<svg xmlns="http://www.w3.org/2000/svg" viewBox="0 0 200 200" role="img" aria-labelledby="title desc">
  <title id="title">Kultivarfinder Favicon</title>
  <desc id="desc">Stilisiertes, symmetrisches Blattpiktogramm in Petrol</desc>
  <g fill="#0c7a78">
    <path d="M98 18a4 4 0 0 1 4 0c18 10 32 46 36 79a4 4 0 0 1-3.8 4.4l-34.2 2a4 4 0 0 1-4.2-4.2l2.8-81.3a4 4 0 0 1-.6-0.9Z"/>
    <path d="M102 18a4 4 0 0 0-4 0c-18 10-32 46-36 79a4 4 0 0 0 3.8 4.4l34.2 2a4 4 0 0 0 4.2-4.2L101.4 18.9a4 4 0 0 0 0-.9Z" transform="scale(-1 1) translate(-200 0)"/>
    <path d="M106 62a4 4 0 0 1 3.3 1.8c10 15 15.7 40.5 14.8 61a4 4 0 0 1-3.2 3.8l-24.8 5.1a4 4 0 0 1-4.6-4.7l7.3-65.4a4 4 0 0 1 3.8-3.6Z"/>
    <path d="M94 62a4 4 0 0 0-3.3 1.8c-10 15-15.7 40.5-14.8 61a4 4 0 0 0 3.2 3.8l24.8 5.1a4 4 0 0 0 4.6-4.7l-7.3-65.4a4 4 0 0 0-3.8-3.6Z" transform="scale(-1 1) translate(-200 0)"/>
    <path d="M117 96a4 4 0 0 1 3.6 2.3c5.9 13 7.7 31.2 5.1 46.2a4 4 0 0 1-3 3.1l-21.6 6a4 4 0 0 1-4.9-4.7l9.7-52.2a4 4 0 0 1 3.9-3.2Z"/>
    <path d="M83 96a4 4 0 0 0-3.6 2.3c-5.9 13-7.7 31.2-5.1 46.2a4 4 0 0 0 3 3.1l21.6 6a4 4 0 0 0 4.9-4.7l-9.7-52.2a4 4 0 0 0-3.9-3.2Z" transform="scale(-1 1) translate(-200 0)"/>
    <path d="M68 123a4 4 0 0 1 3.4 1.5c9.3 11 14.3 27.6 14.3 40.6a4 4 0 0 1-3.5 3.9l-18.5 2.5a4 4 0 0 1-4.6-4c-0.6-14.5 2.2-32.4 6.9-43.6a4 4 0 0 1 2-2Z"/>
    <path d="M132 123a4 4 0 0 0-3.4 1.5c-9.3 11-14.3 27.6-14.3 40.6a4 4 0 0 0 3.5 3.9l18.5 2.5a4 4 0 0 0 4.6-4c0.6-14.5-2.2-32.4-6.9-43.6a4 4 0 0 0-2-2Z" transform="scale(-1 1) translate(-200 0)"/>
  </g>
</svg>
