<svg version="1.1" viewBox="0.0 0.0 730.0 538.0" fill="none" stroke="none" stroke-linecap="square" stroke-miterlimit="10" width="730" height="538" xmlns:xlink="http://www.w3.org/1999/xlink" xmlns="http://www.w3.org/2000/svg"><path fill="#ffffff" d="M0 0L730.0 0L730.0 538.0L0 538.0L0 0Z" fill-rule="nonzero"/><path fill="#ffffff" d="M26.9 68.833336L703.10004 68.833336L703.10004 511.1L26.9 511.1L26.9 68.833336Z" fill-rule="nonzero"/><path stroke="#000000" stroke-width="1.0" stroke-linecap="butt" d="M365.0 290.0C365.0 290.0 365.0 290.0 365.0 290.0C365.0 290.0 365.0 290.0 365.0 290.0C365.0 290.0 365.0 290.0 365.0 290.0C365.0 290.0 365.0 290.0 365.0 290.0" fill-rule="nonzero"/><path fill="#000000" d="M353.0625 282.04688L353.0625 283.35938Q353.0625 284.40625 352.875 285.125Q352.6875 285.84375 352.32812 286.28125Q351.98438 286.71875 351.48438 286.92188Q351.0 287.125 350.375 287.125Q349.89062 287.125 349.46875 287.0Q349.04688 286.875 348.71875 286.60938Q348.39062 286.32812 348.15625 285.89062Q347.92188 285.45312 347.79688 284.82812Q347.67188 284.1875 347.67188 283.35938L347.67188 282.04688Q347.67188 281.0 347.85938 280.29688Q348.0625 279.59375 348.40625 279.15625Q348.76562 278.71875 349.25 278.53125Q349.75 278.34375 350.35938 278.34375Q350.85938 278.34375 351.28125 278.46875Q351.70312 278.59375 352.03125 278.85938Q352.35938 279.10938 352.57812 279.54688Q352.8125 279.96875 352.9375 280.59375Q353.0625 281.21875 353.0625 282.04688ZM351.96875 283.53125L351.96875 281.875Q351.96875 281.29688 351.90625 280.85938Q351.84375 280.42188 351.70312 280.10938Q351.57812 279.79688 351.375 279.60938Q351.1875 279.42188 350.9375 279.32812Q350.6875 279.23438 350.35938 279.23438Q349.98438 279.23438 349.67188 279.375Q349.375 279.51562 349.17188 279.82812Q348.96875 280.14062 348.85938 280.65625Q348.76562 281.15625 348.76562 281.875L348.76562 283.53125Q348.76562 284.10938 348.82812 284.54688Q348.90625 284.98438 349.03125 285.3125Q349.17188 285.625 349.35938 285.82812Q349.5625 286.03125 349.8125 286.125Q350.0625 286.21875 350.375 286.21875Q350.78125 286.21875 351.07812 286.07812Q351.375 285.92188 351.57812 285.59375Q351.78125 285.26562 351.875 284.76562Q351.96875 284.25 351.96875 283.53125ZM355.8125 285.70312L355.8125 286.57812Q355.8125 287.125 355.53125 287.71875Q355.26562 288.3125 354.78125 288.70312L354.17188 288.28125Q354.35938 288.01562 354.48438 287.75Q354.60938 287.48438 354.67188 287.20312Q354.75 286.92188 354.75 286.59375L354.75 285.70312L355.8125 285.70312ZM362.0625 282.04688L362.0625 283.35938Q362.0625 284.40625 361.875 285.125Q361.6875 285.84375 361.32812 286.28125Q360.98438 286.71875 360.48438 286.92188Q360.0 287.125 359.375 287.125Q358.89062 287.125 358.46875 287.0Q358.04688 286.875 357.71875 286.60938Q357.39062 286.32812 357.15625 285.89062Q356.92188 285.45312 356.79688 284.82812Q356.67188 284.1875 356.67188 283.35938L356.67188 282.04688Q356.67188 281.0 356.85938 280.29688Q357.0625 279.59375 357.40625 279.15625Q357.76562 278.71875 358.25 278.53125Q358.75 278.34375 359.35938 278.34375Q359.85938 278.34375 360.28125 278.46875Q360.70312 278.59375 361.03125 278.85938Q361.35938 279.10938 361.57812 279.54688Q361.8125 279.96875 361.9375 280.59375Q362.0625 281.21875 362.0625 282.04688ZM360.96875 283.53125L360.96875 281.875Q360.96875 281.29688 360.90625 280.85938Q360.84375 280.42188 360.70312 280.10938Q360.57812 279.79688 360.375 279.60938Q360.1875 279.42188 359.9375 279.32812Q359.6875 279.23438 359.35938 279.23438Q358.98438 279.23438 358.67188 279.375Q358.375 279.51562 358.17188 279.82812Q357.96875 280.14062 357.85938 280.65625Q357.76562 281.15625 357.76562 281.875L357.76562 283.53125Q357.76562 284.10938 357.82812 284.54688Q357.90625 284.98438 358.03125 285.3125Q358.17188 285.625 358.35938 285.82812Q358.5625 286.03125 358.8125 286.125Q359.0625 286.21875 359.375 286.21875Q359.78125 286.21875 360.07812 286.07812Q360.375 285.92188 360.57812 285.59375Q360.78125 285.26562 360.875 284.76562Q360.96875 284.25 360.96875 283.53125Z" fill-rule="nonzero"/><path stroke="#000000" stroke-width="1.0" stroke-linecap="butt" d="M412.28333 290.0C412.28333 263.88614 391.11386 242.71666 365.0 242.71666C338.88614 242.71666 317.71667 263.88614 317.71667 290.0C317.71667 316.11386 338.88614 337.28333 365.0 337.28333C391.11386 337.28333 412.28333 316.11386 412.28333 290.0" fill-rule="nonzero"/><path fill="#000000" d="M353.0625 234.76353L353.0625 236.07603Q353.0625 237.12291 352.875 237.84166Q352.6875 238.56041 352.32812 238.99791Q351.98438 239.43541 351.48438 239.63853Q351.0 239.84166 350.375 239.84166Q349.89062 239.84166 349.46875 239.71666Q349.04688 239.59166 348.71875 239.32603Q348.39062 239.04478 348.15625 238.60728Q347.92188 238.16978 347.79688 237.54478Q347.67188 236.90416 347.67188 236.07603L347.67188 234.76353Q347.67188 233.71666 347.85938 233.01353Q348.0625 232.31041 348.40625 231.87291Q348.76562 231.43541 349.25 231.24791Q349.75 231.06041 350.35938 231.06041Q350.85938 231.06041 351.28125 231.18541Q351.70312 231.31041 352.03125 231.57603Q352.35938 231.82603 352.57812 232.26353Q352.8125 232.68541 352.9375 233.31041Q353.0625 233.93541 353.0625 234.76353ZM351.96875 236.24791L351.96875 234.59166Q351.96875 234.01353 351.90625 233.57603Q351.84375 233.13853 351.70312 232.82603Q351.57812 232.51353 351.375 232.32603Q351.1875 232.13853 350.9375 232.04478Q350.6875 231.95103 350.35938 231.95103Q349.98438 231.95103 349.67188 232.09166Q349.375 232.23228 349.17188 232.54478Q348.96875 232.85728 348.85938 233.37291Q348.76562 233.87291 348.76562 234.59166L348.76562 236.24791Q348.76562 236.82603 348.82812 237.26353Q348.90625 237.70103 349.03125 238.02916Q349.17188 238.34166 349.35938 238.54478Q349.5625 238.74791 349.8125 238.84166Q350.0625 238.93541 350.375 238.93541Q350.78125 238.93541 351.07812 238.79478Q351.375 238.63853 351.57812 238.31041Q351.78125 237.98228 351.875 237.48228Q351.96875 236.96666 351.96875 236.24791ZM355.8125 238.41978L355.8125 239.29478Q355.8125 239.84166 355.53125 240.43541Q355.26562 241.02916 354.78125 241.41978L354.17188 240.99791Q354.35938 240.73228 354.48438 240.46666Q354.60938 240.20103 354.67188 239.91978Q354.75 239.63853 354.75 239.31041L354.75 238.41978L355.8125 238.41978ZM360.26562 231.13853L360.26562 239.71666L359.1875 239.71666L359.1875 232.49791L357.0 233.29478L357.0 232.31041L360.10938 231.13853L360.26562 231.13853Z" fill-rule="nonzero"/><path stroke="#000000" stroke-width="1.0" stroke-linecap="butt" d="M459.56668 290.0C459.56668 237.77228 417.22772 195.43333 365.0 195.43333C312.77228 195.43333 270.43332 237.77228 270.43332 290.0C270.43332 342.22772 312.77228 384.56668 365.0 384.56668C417.22772 384.56668 459.56668 342.22772 459.56668 290.0" fill-rule="nonzero"/><path fill="#000000" d="M353.0625 187.48021L353.0625 188.79271Q353.0625 189.83958 352.875 190.55833Q352.6875 191.27708 352.32812 191.71458Q351.98438 192.15208 351.48438 192.35521Q351.0 192.55833 350.375 192.55833Q349.89062 192.55833 349.46875 192.43333Q349.04688 192.30833 348.71875 192.04271Q348.39062 191.76146 348.15625 191.32396Q347.92188 190.88646 347.79688 190.26146Q347.67188 189.62083 347.67188 188.79271L347.67188 187.48021Q347.67188 186.43333 347.85938 185.73021Q348.0625 185.02708 348.40625 184.58958Q348.76562 184.15208 349.25 183.96458Q349.75 183.77708 350.35938 183.77708Q350.85938 183.77708 351.28125 183.90208Q351.70312 184.02708 352.03125 184.29271Q352.35938 184.54271 352.57812 184.98021Q352.8125 185.40208 352.9375 186.02708Q353.0625 186.65208 353.0625 187.48021ZM351.96875 188.96458L351.96875 187.30833Q351.96875 186.73021 351.90625 186.29271Q351.84375 185.85521 351.70312 185.54271Q351.57812 185.23021 351.375 185.04271Q351.1875 184.85521 350.9375 184.76146Q350.6875 184.66771 350.35938 184.66771Q349.98438 184.66771 349.67188 184.80833Q349.375 184.94896 349.17188 185.26146Q348.96875 185.57396 348.85938 186.08958Q348.76562 186.58958 348.76562 187.30833L348.76562 188.96458Q348.76562 189.54271 348.82812 189.98021Q348.90625 190.41771 349.03125 190.74583Q349.17188 191.05833 349.35938 191.26146Q349.5625 191.46458 349.8125 191.55833Q350.0625 191.65208 350.375 191.65208Q350.78125 191.65208 351.07812 191.51146Q351.375 191.35521 351.57812 191.02708Q351.78125 190.69896 351.875 190.19896Q351.96875 189.68333 351.96875 188.96458ZM355.8125 191.13646L355.8125 192.01146Q355.8125 192.55833 355.53125 193.15208Q355.26562 193.74583 354.78125 194.13646L354.17188 193.71458Q354.35938 193.44896 354.48438 193.18333Q354.60938 192.91771 354.67188 192.63646Q354.75 192.35521 354.75 192.02708L354.75 191.13646L355.8125 191.13646ZM362.29688 191.54271L362.29688 192.43333L356.71875 192.43333L356.71875 191.65208L359.51562 188.54271Q360.03125 187.96458 360.3125 187.57396Q360.59375 187.16771 360.70312 186.85521Q360.82812 186.52708 360.82812 186.19896Q360.82812 185.77708 360.65625 185.43333Q360.48438 185.08958 360.14062 184.88646Q359.8125 184.66771 359.32812 184.66771Q358.76562 184.66771 358.39062 184.90208Q358.01562 185.12083 357.82812 185.51146Q357.64062 185.90208 357.64062 186.40208L356.54688 186.40208Q356.54688 185.68333 356.85938 185.08958Q357.1875 184.49583 357.79688 184.13646Q358.42188 183.77708 359.32812 183.77708Q360.14062 183.77708 360.71875 184.07396Q361.29688 184.35521 361.59375 184.87083Q361.90625 185.37083 361.90625 186.05833Q361.90625 186.43333 361.78125 186.82396Q361.65625 187.19896 361.4375 187.58958Q361.21875 187.96458 360.92188 188.33958Q360.64062 188.69896 360.3125 189.05833L358.01562 191.54271L362.29688 191.54271Z" fill-rule="nonzero"/><path stroke="#000000" stroke-width="1.0" stroke-linecap="butt" d="M506.85 290.0C506.85 211.6584 443.34158 148.15 365.0 148.15C286.65842 148.15 223.15 211.6584 223.15 290.0C223.15 368.34158 286.65842 431.85 365.0 431.85C443.34158 431.85 506.85 368.34158 506.85 290.0" fill-rule="nonzero"/><path fill="#000000" d="M353.0625 140.19687L353.0625 141.50937Q353.0625 142.55624 352.875 143.275Q352.6875 143.99374 352.32812 144.43124Q351.98438 144.86874 351.48438 145.07187Q351.0 145.275 350.375 145.275Q349.89062 145.275 349.46875 145.15Q349.04688 145.025 348.71875 144.75937Q348.39062 144.47812 348.15625 144.04062Q347.92188 143.60312 347.79688 142.97812Q347.67188 142.3375 347.67188 141.50937L347.67188 140.19687Q347.67188 139.15 347.85938 138.44687Q348.0625 137.74374 348.40625 137.30624Q348.76562 136.86874 349.25 136.68124Q349.75 136.49374 350.35938 136.49374Q350.85938 136.49374 351.28125 136.61874Q351.70312 136.74374 352.03125 137.00937Q352.35938 137.25937 352.57812 137.69687Q352.8125 138.11874 352.9375 138.74374Q353.0625 139.36874 353.0625 140.19687ZM351.96875 141.68124L351.96875 140.025Q351.96875 139.44687 351.90625 139.00937Q351.84375 138.57187 351.70312 138.25937Q351.57812 137.94687 351.375 137.75937Q351.1875 137.57187 350.9375 137.47812Q350.6875 137.38437 350.35938 137.38437Q349.98438 137.38437 349.67188 137.525Q349.375 137.66562 349.17188 137.97812Q348.96875 138.29062 348.85938 138.80624Q348.76562 139.30624 348.76562 140.025L348.76562 141.68124Q348.76562 142.25937 348.82812 142.69687Q348.90625 143.13437 349.03125 143.4625Q349.17188 143.775 349.35938 143.97812Q349.5625 144.18124 349.8125 144.275Q350.0625 144.36874 350.375 144.36874Q350.78125 144.36874 351.07812 144.22812Q351.375 144.07187 351.57812 143.74374Q351.78125 143.41562 351.875 142.91562Q351.96875 142.4 351.96875 141.68124ZM355.8125 143.85312L355.8125 144.72812Q355.8125 145.275 355.53125 145.86874Q355.26562 146.4625 354.78125 146.85312L354.17188 146.43124Q354.35938 146.16562 354.48438 145.9Q354.60938 145.63437 354.67188 145.35312Q354.75 145.07187 354.75 144.74374L354.75 143.85312L355.8125 143.85312ZM358.29688 140.35312L359.0625 140.35312Q359.64062 140.35312 360.0 140.16562Q360.375 139.9625 360.5625 139.63437Q360.75 139.30624 360.75 138.88437Q360.75 138.4 360.57812 138.07187Q360.42188 137.72812 360.09375 137.55624Q359.76562 137.38437 359.26562 137.38437Q358.79688 137.38437 358.45312 137.57187Q358.10938 137.74374 357.90625 138.07187Q357.71875 138.4 357.71875 138.85312L356.625 138.85312Q356.625 138.19687 356.95312 137.66562Q357.28125 137.13437 357.875 136.82187Q358.46875 136.49374 359.26562 136.49374Q360.03125 136.49374 360.60938 136.775Q361.1875 137.04062 361.51562 137.5875Q361.84375 138.11874 361.84375 138.91562Q361.84375 139.24374 361.6875 139.60312Q361.53125 139.9625 361.21875 140.29062Q360.90625 140.60312 360.40625 140.80624Q359.92188 141.00937 359.21875 141.00937L358.29688 141.00937L358.29688 140.35312ZM358.29688 141.24374L358.29688 140.5875L359.21875 140.5875Q360.03125 140.5875 360.5625 140.79062Q361.09375 140.97812 361.40625 141.30624Q361.71875 141.61874 361.84375 142.00937Q361.96875 142.38437 361.96875 142.775Q361.96875 143.36874 361.76562 143.8375Q361.5625 144.29062 361.1875 144.61874Q360.82812 144.93124 360.32812 145.10312Q359.84375 145.275 359.26562 145.275Q358.70312 145.275 358.21875 145.11874Q357.73438 144.94687 357.35938 144.65Q356.98438 144.35312 356.76562 143.91562Q356.5625 143.4625 356.5625 142.9L357.64062 142.9Q357.64062 143.3375 357.82812 143.68124Q358.03125 144.00937 358.39062 144.19687Q358.76562 144.36874 359.26562 144.36874Q359.76562 144.36874 360.125 144.19687Q360.48438 144.025 360.67188 143.68124Q360.875 143.32187 360.875 142.79062Q360.875 142.25937 360.65625 141.91562Q360.4375 141.57187 360.01562 141.41562Q359.60938 141.24374 359.0625 141.24374L358.29688 141.24374Z" fill-rule="nonzero"/><path stroke="#000000" stroke-width="1.0" stroke-linecap="butt" d="M554.13336 290.0C554.13336 185.54454 469.45544 100.86667 365.0 100.86667C260.54456 100.86667 175.86667 185.54454 175.86667 290.0C175.86667 394.45544 260.54456 479.13333 365.0 479.13333C469.45544 479.13333 554.13336 394.45544 554.13336 290.0" fill-rule="nonzero"/><path fill="#000000" d="M353.0625 92.91354L353.0625 94.22604Q353.0625 95.27292 352.875 95.99167Q352.6875 96.71042 352.32812 97.14792Q351.98438 97.58542 351.48438 97.78854Q351.0 97.99167 350.375 97.99167Q349.89062 97.99167 349.46875 97.86667Q349.04688 97.74167 348.71875 97.47604Q348.39062 97.19479 348.15625 96.75729Q347.92188 96.31979 347.79688 95.69479Q347.67188 95.05417 347.67188 94.22604L347.67188 92.91354Q347.67188 91.86667 347.85938 91.16354Q348.0625 90.46042 348.40625 90.02292Q348.76562 89.58542 349.25 89.39792Q349.75 89.21042 350.35938 89.21042Q350.85938 89.21042 351.28125 89.33542Q351.70312 89.46042 352.03125 89.72604Q352.35938 89.97604 352.57812 90.41354Q352.8125 90.83542 352.9375 91.46042Q353.0625 92.08542 353.0625 92.91354ZM351.96875 94.39792L351.96875 92.74167Q351.96875 92.16354 351.90625 91.72604Q351.84375 91.28854 351.70312 90.97604Q351.57812 90.66354 351.375 90.47604Q351.1875 90.28854 350.9375 90.19479Q350.6875 90.10104 350.35938 90.10104Q349.98438 90.10104 349.67188 90.24167Q349.375 90.38229 349.17188 90.69479Q348.96875 91.00729 348.85938 91.52292Q348.76562 92.02292 348.76562 92.74167L348.76562 94.39792Q348.76562 94.97604 348.82812 95.41354Q348.90625 95.85104 349.03125 96.17917Q349.17188 96.49167 349.35938 96.69479Q349.5625 96.89792 349.8125 96.99167Q350.0625 97.08542 350.375 97.08542Q350.78125 97.08542 351.07812 96.94479Q351.375 96.78854 351.57812 96.46042Q351.78125 96.13229 351.875 95.63229Q351.96875 95.11667 351.96875 94.39792ZM355.8125 96.56979L355.8125 97.44479Q355.8125 97.99167 355.53125 98.58542Q355.26562 99.17917 354.78125 99.56979L354.17188 99.14792Q354.35938 98.88229 354.48438 98.61667Q354.60938 98.35104 354.67188 98.06979Q354.75 97.78854 354.75 97.46042L354.75 96.56979L355.8125 96.56979ZM362.46875 94.99167L362.46875 95.88229L356.3125 95.88229L356.3125 95.24167L360.125 89.33542L361.01562 89.33542L360.0625 91.03854L357.54688 94.99167L362.46875 94.99167ZM361.28125 89.33542L361.28125 97.86667L360.20312 97.86667L360.20312 89.33542L361.28125 89.33542Z" fill-rule="nonzero"/><path stroke="#000000" stroke-width="1.0" stroke-linecap="butt" d="M365.0 290.0L365.0 101.0" fill-rule="nonzero"/><path fill="#000000" d="M346.84375 65.96875L347.9375 65.96875L350.73438 72.921875L353.53125 65.96875L354.625 65.96875L351.15625 74.5L350.3125 74.5L346.84375 65.96875ZM346.48438 65.96875L347.45312 65.96875L347.60938 71.171875L347.60938 74.5L346.48438 74.5L346.48438 65.96875ZM354.01562 65.96875L354.98438 65.96875L354.98438 74.5L353.85938 74.5L353.85938 71.171875L354.01562 65.96875ZM358.10938 73.84375L359.875 68.15625L361.03125 68.15625L358.48438 75.484375Q358.40625 75.71875 358.25 75.984375Q358.10938 76.265625 357.89062 76.5Q357.67188 76.75 357.35938 76.90625Q357.04688 77.0625 356.60938 77.0625Q356.48438 77.0625 356.28125 77.015625Q356.07812 76.984375 356.0 76.96875L356.0 76.09375Q356.04688 76.09375 356.14062 76.09375Q356.25 76.109375 356.28125 76.109375Q356.65625 76.109375 356.90625 76.015625Q357.17188 75.921875 357.34375 75.6875Q357.53125 75.46875 357.65625 75.078125L358.10938 73.84375ZM356.8125 68.15625L358.45312 73.078125L358.73438 74.21875L357.96875 74.625L355.625 68.15625L356.8125 68.15625ZM363.40625 69.15625L363.40625 74.5L362.32812 74.5L362.32812 68.15625L363.375 68.15625L363.40625 69.15625ZM365.39062 68.125L365.39062 69.125Q365.25 69.109375 365.125 69.09375Q365.01562 69.078125 364.85938 69.078125Q364.48438 69.078125 364.1875 69.203125Q363.90625 69.3125 363.70312 69.53125Q363.51562 69.734375 363.39062 70.03125Q363.28125 70.328125 363.25 70.671875L362.9375 70.84375Q362.9375 70.265625 363.04688 69.765625Q363.17188 69.265625 363.40625 68.875Q363.65625 68.484375 364.01562 68.265625Q364.39062 68.046875 364.90625 68.046875Q365.03125 68.046875 365.17188 68.078125Q365.32812 68.09375 365.39062 68.125ZM368.85938 73.71875Q369.25 73.71875 369.57812 73.5625Q369.90625 73.40625 370.10938 73.140625Q370.32812 72.859375 370.35938 72.5L371.39062 72.5Q371.35938 73.0625 371.0 73.546875Q370.65625 74.03125 370.09375 74.328125Q369.53125 74.625 368.85938 74.625Q368.15625 74.625 367.625 74.375Q367.09375 74.109375 366.73438 73.671875Q366.39062 73.234375 366.21875 72.671875Q366.04688 72.09375 366.04688 71.453125L366.04688 71.203125Q366.04688 70.5625 366.21875 70.0Q366.39062 69.421875 366.73438 68.984375Q367.09375 68.546875 367.625 68.296875Q368.15625 68.046875 368.85938 68.046875Q369.60938 68.046875 370.15625 68.34375Q370.71875 68.640625 371.03125 69.171875Q371.35938 69.6875 371.39062 70.34375L370.35938 70.34375Q370.32812 69.953125 370.14062 69.640625Q369.95312 69.3125 369.625 69.125Q369.29688 68.9375 368.85938 68.9375Q368.35938 68.9375 368.01562 69.140625Q367.6875 69.328125 367.48438 69.65625Q367.29688 69.984375 367.20312 70.390625Q367.125 70.796875 367.125 71.203125L367.125 71.453125Q367.125 71.875 367.20312 72.28125Q367.29688 72.671875 367.48438 73.0Q367.6875 73.328125 368.01562 73.53125Q368.35938 73.71875 368.85938 73.71875ZM374.95312 74.625Q374.29688 74.625 373.75 74.40625Q373.21875 74.171875 372.82812 73.765625Q372.45312 73.34375 372.25 72.78125Q372.04688 72.21875 372.04688 71.546875L372.04688 71.3125Q372.04688 70.53125 372.26562 69.921875Q372.5 69.3125 372.89062 68.890625Q373.28125 68.46875 373.78125 68.265625Q374.28125 68.046875 374.8125 68.046875Q375.5 68.046875 375.98438 68.28125Q376.48438 68.515625 376.79688 68.9375Q377.125 69.34375 377.26562 69.921875Q377.42188 70.484375 377.42188 71.140625L377.42188 71.640625L372.6875 71.640625L372.6875 70.75L376.34375 70.75L376.34375 70.671875Q376.3125 70.25 376.15625 69.859375Q376.01562 69.453125 375.6875 69.203125Q375.375 68.9375 374.8125 68.9375Q374.45312 68.9375 374.14062 69.09375Q373.82812 69.25 373.59375 69.5625Q373.375 69.859375 373.25 70.296875Q373.14062 70.734375 373.14062 71.3125L373.14062 71.546875Q373.14062 72.0 373.26562 72.40625Q373.39062 72.796875 373.625 73.09375Q373.875 73.390625 374.21875 73.5625Q374.57812 73.734375 375.01562 73.734375Q375.59375 73.734375 375.98438 73.5Q376.39062 73.265625 376.6875 72.875L377.34375 73.390625Q377.14062 73.703125 376.8125 73.984375Q376.5 74.265625 376.03125 74.453125Q375.57812 74.625 374.95312 74.625ZM379.40625 69.515625L379.40625 74.5L378.32812 74.5L378.32812 68.15625L379.35938 68.15625L379.40625 69.515625ZM379.15625 71.09375L378.70312 71.078125Q378.70312 70.421875 378.89062 69.875Q379.07812 69.3125 379.42188 68.90625Q379.76562 68.5 380.23438 68.28125Q380.70312 68.046875 381.28125 68.046875Q381.75 68.046875 382.125 68.171875Q382.5 68.296875 382.76562 68.578125Q383.03125 68.84375 383.17188 69.28125Q383.3125 69.71875 383.3125 70.34375L383.3125 74.5L382.21875 74.5L382.21875 70.328125Q382.21875 69.828125 382.07812 69.53125Q381.9375 69.234375 381.65625 69.09375Q381.375 68.953125 380.95312 68.953125Q380.54688 68.953125 380.21875 69.125Q379.89062 69.296875 379.65625 69.59375Q379.42188 69.890625 379.28125 70.28125Q379.15625 70.65625 379.15625 71.09375Z" fill-rule="nonzero"/><path stroke="#000000" stroke-width="1.0" stroke-linecap="butt" d="M365.0 290.0L529.0 195.0" fill-rule="nonzero"/><path fill="#000000" d="M525.6406 181.78125L526.7656 181.78125Q526.6719 182.59375 526.2969 183.23438Q525.9219 183.875 525.2344 184.25Q524.5625 184.625 523.53125 184.625Q522.78125 184.625 522.1719 184.34375Q521.5625 184.04688 521.1094 183.53125Q520.6719 183.01562 520.4375 182.29688Q520.2031 181.5625 520.2031 180.65625L520.2031 179.8125Q520.2031 178.92188 520.4375 178.1875Q520.6719 177.45312 521.125 176.9375Q521.5781 176.40625 522.2031 176.125Q522.84375 175.84375 523.625 175.84375Q524.59375 175.84375 525.2656 176.21875Q525.9375 176.57812 526.2969 177.21875Q526.6719 177.85938 526.7656 178.70312L525.6406 178.70312Q525.5625 178.10938 525.3281 177.6875Q525.1094 177.25 524.7031 177.01562Q524.2969 176.78125 523.625 176.78125Q523.0625 176.78125 522.625 177.0Q522.2031 177.20312 521.90625 177.60938Q521.625 178.0 521.46875 178.5625Q521.3281 179.125 521.3281 179.79688L521.3281 180.65625Q521.3281 181.28125 521.4531 181.84375Q521.59375 182.39062 521.8594 182.8125Q522.125 183.21875 522.5469 183.46875Q522.96875 183.70312 523.53125 183.70312Q524.25 183.70312 524.6719 183.46875Q525.1094 183.23438 525.3281 182.8125Q525.5469 182.39062 525.6406 181.78125ZM532.0625 183.42188L532.0625 180.15625Q532.0625 179.78125 531.90625 179.5Q531.7656 179.21875 531.46875 179.07812Q531.1719 178.92188 530.7344 178.92188Q530.3125 178.92188 530.0 179.0625Q529.7031 179.20312 529.53125 179.4375Q529.3594 179.65625 529.3594 179.92188L528.28125 179.92188Q528.28125 179.57812 528.4531 179.25Q528.625 178.90625 528.9531 178.64062Q529.28125 178.35938 529.75 178.20312Q530.21875 178.04688 530.7969 178.04688Q531.4844 178.04688 532.0156 178.28125Q532.5469 178.51562 532.84375 178.98438Q533.15625 179.45312 533.15625 180.15625L533.15625 183.10938Q533.15625 183.4375 533.2031 183.79688Q533.2656 184.14062 533.375 184.40625L533.375 184.5L532.2344 184.5Q532.15625 184.3125 532.1094 184.0Q532.0625 183.6875 532.0625 183.42188ZM532.25 180.65625L532.2656 181.42188L531.1719 181.42188Q530.7031 181.42188 530.34375 181.5Q529.9844 181.5625 529.7344 181.71875Q529.4844 181.85938 529.3594 182.07812Q529.2344 182.29688 529.2344 182.59375Q529.2344 182.89062 529.3594 183.14062Q529.5 183.375 529.7656 183.53125Q530.0469 183.67188 530.4375 183.67188Q530.9375 183.67188 531.3125 183.46875Q531.7031 183.25 531.9219 182.95312Q532.15625 182.64062 532.1719 182.34375L532.6406 182.875Q532.59375 183.10938 532.40625 183.42188Q532.2344 183.71875 531.9219 184.0Q531.625 184.26562 531.2031 184.45312Q530.7969 184.625 530.28125 184.625Q529.6406 184.625 529.15625 184.375Q528.6719 184.10938 528.40625 183.6875Q528.1406 183.26562 528.1406 182.73438Q528.1406 182.21875 528.3281 181.84375Q528.53125 181.45312 528.90625 181.1875Q529.28125 180.92188 529.8125 180.79688Q530.34375 180.65625 531.0 180.65625L532.25 180.65625ZM536.40625 179.15625L536.40625 184.5L535.3281 184.5L535.3281 178.15625L536.375 178.15625L536.40625 179.15625ZM538.3906 178.125L538.3906 179.125Q538.25 179.10938 538.125 179.09375Q538.0156 179.07812 537.8594 179.07812Q537.4844 179.07812 537.1875 179.20312Q536.90625 179.3125 536.7031 179.53125Q536.5156 179.73438 536.3906 180.03125Q536.28125 180.32812 536.25 180.67188L535.9375 180.84375Q535.9375 180.26562 536.0469 179.76562Q536.1719 179.26562 536.40625 178.875Q536.65625 178.48438 537.0156 178.26562Q537.3906 178.04688 537.90625 178.04688Q538.03125 178.04688 538.1719 178.07812Q538.3281 178.09375 538.3906 178.125ZM541.1094 183.84375L542.875 178.15625L544.03125 178.15625L541.4844 185.48438Q541.40625 185.71875 541.25 185.98438Q541.1094 186.26562 540.8906 186.5Q540.6719 186.75 540.3594 186.90625Q540.0469 187.0625 539.6094 187.0625Q539.4844 187.0625 539.28125 187.01562Q539.0781 186.98438 539.0 186.96875L539.0 186.09375Q539.0469 186.09375 539.1406 186.09375Q539.25 186.10938 539.28125 186.10938Q539.65625 186.10938 539.90625 186.01562Q540.1719 185.92188 540.34375 185.6875Q540.53125 185.46875 540.65625 185.07812L541.1094 183.84375ZM539.8125 178.15625L541.4531 183.07812L541.7344 184.21875L540.96875 184.625L538.625 178.15625L539.8125 178.15625ZM545.0469 181.40625L545.0469 181.26562Q545.0469 180.57812 545.2344 180.0Q545.4375 179.40625 545.8125 178.96875Q546.1875 178.53125 546.71875 178.29688Q547.25 178.04688 547.9219 178.04688Q548.5781 178.04688 549.1094 178.29688Q549.65625 178.53125 550.03125 178.96875Q550.40625 179.40625 550.6094 180.0Q550.8125 180.57812 550.8125 181.26562L550.8125 181.40625Q550.8125 182.07812 550.6094 182.67188Q550.40625 183.25 550.03125 183.6875Q549.65625 184.125 549.125 184.375Q548.59375 184.625 547.9219 184.625Q547.2656 184.625 546.71875 184.375Q546.1875 184.125 545.8125 183.6875Q545.4375 183.25 545.2344 182.67188Q545.0469 182.07812 545.0469 181.40625ZM546.125 181.26562L546.125 181.40625Q546.125 181.875 546.2344 182.29688Q546.34375 182.71875 546.5625 183.04688Q546.7969 183.35938 547.1406 183.54688Q547.4844 183.71875 547.9219 183.71875Q548.375 183.71875 548.7031 183.54688Q549.0469 183.35938 549.2656 183.04688Q549.5 182.71875 549.6094 182.29688Q549.71875 181.875 549.71875 181.40625L549.71875 181.26562Q549.71875 180.79688 549.6094 180.375Q549.5 179.95312 549.2656 179.64062Q549.0469 179.3125 548.7031 179.125Q548.375 178.9375 547.9219 178.9375Q547.46875 178.9375 547.125 179.125Q546.7969 179.3125 546.5625 179.64062Q546.34375 179.95312 546.2344 180.375Q546.125 180.79688 546.125 181.26562ZM553.40625 179.375L553.40625 186.9375L552.3281 186.9375L552.3281 178.15625L553.3125 178.15625L553.40625 179.375ZM557.6875 181.28125L557.6875 181.40625Q557.6875 182.09375 557.5156 182.6875Q557.3594 183.26562 557.0469 183.70312Q556.7344 184.14062 556.2656 184.39062Q555.8125 184.625 555.21875 184.625Q554.625 184.625 554.15625 184.42188Q553.6875 184.21875 553.3594 183.84375Q553.0469 183.45312 552.8594 182.92188Q552.6719 182.39062 552.59375 181.71875L552.59375 181.0625Q552.6719 180.35938 552.8594 179.8125Q553.0469 179.25 553.3594 178.85938Q553.6875 178.45312 554.1406 178.25Q554.6094 178.04688 555.2031 178.04688Q555.7969 178.04688 556.2656 178.28125Q556.7344 178.5 557.0469 178.9375Q557.3594 179.35938 557.5156 179.95312Q557.6875 180.54688 557.6875 181.28125ZM556.59375 181.40625L556.59375 181.28125Q556.59375 180.79688 556.4844 180.39062Q556.3906 179.96875 556.1875 179.65625Q555.9844 179.32812 555.65625 179.14062Q555.3281 178.95312 554.8906 178.95312Q554.4844 178.95312 554.1719 179.09375Q553.875 179.23438 553.65625 179.48438Q553.4531 179.71875 553.3125 180.01562Q553.1875 180.3125 553.125 180.64062L553.125 182.15625Q553.2344 182.5625 553.4375 182.92188Q553.65625 183.28125 554.0 183.5Q554.3594 183.71875 554.90625 183.71875Q555.34375 183.71875 555.65625 183.54688Q555.9844 183.35938 556.1875 183.04688Q556.3906 182.71875 556.4844 182.29688Q556.59375 181.875 556.59375 181.40625ZM560.40625 175.5L560.40625 184.5L559.3281 184.5L559.3281 175.5L560.40625 175.5ZM560.15625 181.09375L559.7031 181.07812Q559.7031 180.42188 559.8906 179.875Q560.0781 179.3125 560.4219 178.90625Q560.7656 178.5 561.2344 178.28125Q561.7031 178.04688 562.28125 178.04688Q562.75 178.04688 563.125 178.17188Q563.5 178.29688 563.7656 178.57812Q564.03125 178.84375 564.1719 179.28125Q564.3125 179.71875 564.3125 180.34375L564.3125 184.5L563.21875 184.5L563.21875 180.32812Q563.21875 179.82812 563.0781 179.53125Q562.9375 179.23438 562.65625 179.09375Q562.375 178.95312 561.9531 178.95312Q561.5469 178.95312 561.21875 179.125Q560.8906 179.29688 560.65625 179.59375Q560.4219 179.89062 560.28125 180.28125Q560.15625 180.65625 560.15625 181.09375ZM568.1094 183.84375L569.875 178.15625L571.03125 178.15625L568.4844 185.48438Q568.40625 185.71875 568.25 185.98438Q568.1094 186.26562 567.8906 186.5Q567.6719 186.75 567.3594 186.90625Q567.0469 187.0625 566.6094 187.0625Q566.4844 187.0625 566.28125 187.01562Q566.0781 186.98438 566.0 186.96875L566.0 186.09375Q566.0469 186.09375 566.1406 186.09375Q566.25 186.10938 566.28125 186.10938Q566.65625 186.10938 566.90625 186.01562Q567.1719 185.92188 567.34375 185.6875Q567.53125 185.46875 567.65625 185.07812L568.1094 183.84375ZM566.8125 178.15625L568.4531 183.07812L568.7344 184.21875L567.96875 184.625L565.625 178.15625L566.8125 178.15625ZM573.5 175.5L573.5 184.5L572.4219 184.5L572.4219 175.5L573.5 175.5ZM576.5 175.5L576.5 184.5L575.4219 184.5L575.4219 175.5L576.5 175.5ZM580.9531 184.625Q580.2969 184.625 579.75 184.40625Q579.21875 184.17188 578.8281 183.76562Q578.4531 183.34375 578.25 182.78125Q578.0469 182.21875 578.0469 181.54688L578.0469 181.3125Q578.0469 180.53125 578.2656 179.92188Q578.5 179.3125 578.8906 178.89062Q579.28125 178.46875 579.78125 178.26562Q580.28125 178.04688 580.8125 178.04688Q581.5 178.04688 581.9844 178.28125Q582.4844 178.51562 582.7969 178.9375Q583.125 179.34375 583.2656 179.92188Q583.4219 180.48438 583.4219 181.14062L583.4219 181.64062L578.6875 181.64062L578.6875 180.75L582.34375 180.75L582.34375 180.67188Q582.3125 180.25 582.15625 179.85938Q582.0156 179.45312 581.6875 179.20312Q581.375 178.9375 580.8125 178.9375Q580.4531 178.9375 580.1406 179.09375Q579.8281 179.25 579.59375 179.5625Q579.375 179.85938 579.25 180.29688Q579.1406 180.73438 579.1406 181.3125L579.1406 181.54688Q579.1406 182.0 579.2656 182.40625Q579.3906 182.79688 579.625 183.09375Q579.875 183.39062 580.21875 183.5625Q580.5781 183.73438 581.0156 183.73438Q581.59375 183.73438 581.9844 183.5Q582.3906 183.26562 582.6875 182.875L583.34375 183.39062Q583.1406 183.70312 582.8125 183.98438Q582.5 184.26562 582.03125 184.45312Q581.5781 184.625 580.9531 184.625ZM585.40625 179.51562L585.40625 184.5L584.3281 184.5L584.3281 178.15625L585.3594 178.15625L585.40625 179.51562ZM585.15625 181.09375L584.7031 181.07812Q584.7031 180.42188 584.8906 179.875Q585.0781 179.3125 585.4219 178.90625Q585.7656 178.5 586.2344 178.28125Q586.7031 178.04688 587.28125 178.04688Q587.75 178.04688 588.125 178.17188Q588.5 178.29688 588.7656 178.57812Q589.03125 178.84375 589.1719 179.28125Q589.3125 179.71875 589.3125 180.34375L589.3125 184.5L588.21875 184.5L588.21875 180.32812Q588.21875 179.82812 588.0781 179.53125Q587.9375 179.23438 587.65625 179.09375Q587.375 178.95312 586.9531 178.95312Q586.5469 178.95312 586.21875 179.125Q585.8906 179.29688 585.65625 179.59375Q585.4219 179.89062 585.28125 180.28125Q585.15625 180.65625 585.15625 181.09375Z" fill-rule="nonzero"/><path stroke="#000000" stroke-width="1.0" stroke-linecap="butt" d="M365.0 290.0L529.0 385.0" fill-rule="nonzero"/><path fill="#000000" d="M539.6719 403.57812L539.6719 404.5L535.40625 404.5L535.40625 403.57812L539.6719 403.57812ZM535.625 395.96875L535.625 404.5L534.4844 404.5L534.4844 395.96875L535.625 395.96875ZM541.5 398.15625L541.5 404.5L540.4219 404.5L540.4219 398.15625L541.5 398.15625ZM540.3281 396.48438Q540.3281 396.21875 540.4844 396.03125Q540.65625 395.84375 540.96875 395.84375Q541.28125 395.84375 541.4375 396.03125Q541.6094 396.21875 541.6094 396.48438Q541.6094 396.73438 541.4375 396.92188Q541.28125 397.09375 540.96875 397.09375Q540.65625 397.09375 540.4844 396.92188Q540.3281 396.73438 540.3281 396.48438ZM544.40625 399.51562L544.40625 404.5L543.3281 404.5L543.3281 398.15625L544.3594 398.15625L544.40625 399.51562ZM544.15625 401.09375L543.7031 401.07812Q543.7031 400.42188 543.8906 399.875Q544.0781 399.3125 544.4219 398.90625Q544.7656 398.5 545.2344 398.28125Q545.7031 398.04688 546.28125 398.04688Q546.75 398.04688 547.125 398.17188Q547.5 398.29688 547.7656 398.57812Q548.03125 398.84375 548.1719 399.28125Q548.3125 399.71875 548.3125 400.34375L548.3125 404.5L547.21875 404.5L547.21875 400.32812Q547.21875 399.82812 547.0781 399.53125Q546.9375 399.23438 546.65625 399.09375Q546.375 398.95312 545.9531 398.95312Q545.5469 398.95312 545.21875 399.125Q544.8906 399.29688 544.65625 399.59375Q544.4219 399.89062 544.28125 400.28125Q544.15625 400.65625 544.15625 401.09375ZM554.0625 403.42188L554.0625 400.15625Q554.0625 399.78125 553.90625 399.5Q553.7656 399.21875 553.46875 399.07812Q553.1719 398.92188 552.7344 398.92188Q552.3125 398.92188 552.0 399.0625Q551.7031 399.20312 551.53125 399.4375Q551.3594 399.65625 551.3594 399.92188L550.28125 399.92188Q550.28125 399.57812 550.4531 399.25Q550.625 398.90625 550.9531 398.64062Q551.28125 398.35938 551.75 398.20312Q552.21875 398.04688 552.7969 398.04688Q553.4844 398.04688 554.0156 398.28125Q554.5469 398.51562 554.84375 398.98438Q555.15625 399.45312 555.15625 400.15625L555.15625 403.10938Q555.15625 403.4375 555.2031 403.79688Q555.2656 404.14062 555.375 404.40625L555.375 404.5L554.2344 404.5Q554.15625 404.3125 554.1094 404.0Q554.0625 403.6875 554.0625 403.42188ZM554.25 400.65625L554.2656 401.42188L553.1719 401.42188Q552.7031 401.42188 552.34375 401.5Q551.9844 401.5625 551.7344 401.71875Q551.4844 401.85938 551.3594 402.07812Q551.2344 402.29688 551.2344 402.59375Q551.2344 402.89062 551.3594 403.14062Q551.5 403.375 551.7656 403.53125Q552.0469 403.67188 552.4375 403.67188Q552.9375 403.67188 553.3125 403.46875Q553.7031 403.25 553.9219 402.95312Q554.15625 402.64062 554.1719 402.34375L554.6406 402.875Q554.59375 403.10938 554.40625 403.42188Q554.2344 403.71875 553.9219 404.0Q553.625 404.26562 553.2031 404.45312Q552.7969 404.625 552.28125 404.625Q551.6406 404.625 551.15625 404.375Q550.6719 404.10938 550.40625 403.6875Q550.1406 403.26562 550.1406 402.73438Q550.1406 402.21875 550.3281 401.84375Q550.53125 401.45312 550.90625 401.1875Q551.28125 400.92188 551.8125 400.79688Q552.34375 400.65625 553.0 400.65625L554.25 400.65625ZM558.5 395.5L558.5 404.5L557.4219 404.5L557.4219 395.5L558.5 395.5ZM560.0469 401.40625L560.0469 401.26562Q560.0469 400.57812 560.2344 400.0Q560.4375 399.40625 560.8125 398.96875Q561.1875 398.53125 561.71875 398.29688Q562.25 398.04688 562.9219 398.04688Q563.5781 398.04688 564.1094 398.29688Q564.65625 398.53125 565.03125 398.96875Q565.40625 399.40625 565.6094 400.0Q565.8125 400.57812 565.8125 401.26562L565.8125 401.40625Q565.8125 402.07812 565.6094 402.67188Q565.40625 403.25 565.03125 403.6875Q564.65625 404.125 564.125 404.375Q563.59375 404.625 562.9219 404.625Q562.2656 404.625 561.71875 404.375Q561.1875 404.125 560.8125 403.6875Q560.4375 403.25 560.2344 402.67188Q560.0469 402.07812 560.0469 401.40625ZM561.125 401.26562L561.125 401.40625Q561.125 401.875 561.2344 402.29688Q561.34375 402.71875 561.5625 403.04688Q561.7969 403.35938 562.1406 403.54688Q562.4844 403.71875 562.9219 403.71875Q563.375 403.71875 563.7031 403.54688Q564.0469 403.35938 564.2656 403.04688Q564.5 402.71875 564.6094 402.29688Q564.71875 401.875 564.71875 401.40625L564.71875 401.26562Q564.71875 400.79688 564.6094 400.375Q564.5 399.95312 564.2656 399.64062Q564.0469 399.3125 563.7031 399.125Q563.375 398.9375 562.9219 398.9375Q562.46875 398.9375 562.125 399.125Q561.7969 399.3125 561.5625 399.64062Q561.34375 399.95312 561.2344 400.375Q561.125 400.79688 561.125 401.26562ZM567.0469 401.40625L567.0469 401.26562Q567.0469 400.57812 567.2344 400.0Q567.4375 399.40625 567.8125 398.96875Q568.1875 398.53125 568.71875 398.29688Q569.25 398.04688 569.9219 398.04688Q570.5781 398.04688 571.1094 398.29688Q571.65625 398.53125 572.03125 398.96875Q572.40625 399.40625 572.6094 400.0Q572.8125 400.57812 572.8125 401.26562L572.8125 401.40625Q572.8125 402.07812 572.6094 402.67188Q572.40625 403.25 572.03125 403.6875Q571.65625 404.125 571.125 404.375Q570.59375 404.625 569.9219 404.625Q569.2656 404.625 568.71875 404.375Q568.1875 404.125 567.8125 403.6875Q567.4375 403.25 567.2344 402.67188Q567.0469 402.07812 567.0469 401.40625ZM568.125 401.26562L568.125 401.40625Q568.125 401.875 568.2344 402.29688Q568.34375 402.71875 568.5625 403.04688Q568.7969 403.35938 569.1406 403.54688Q569.4844 403.71875 569.9219 403.71875Q570.375 403.71875 570.7031 403.54688Q571.0469 403.35938 571.2656 403.04688Q571.5 402.71875 571.6094 402.29688Q571.71875 401.875 571.71875 401.40625L571.71875 401.26562Q571.71875 400.79688 571.6094 400.375Q571.5 399.95312 571.2656 399.64062Q571.0469 399.3125 570.7031 399.125Q570.375 398.9375 569.9219 398.9375Q569.46875 398.9375 569.125 399.125Q568.7969 399.3125 568.5625 399.64062Q568.34375 399.95312 568.2344 400.375Q568.125 400.79688 568.125 401.26562ZM575.5 395.5L575.5 404.5L574.4219 404.5L574.4219 395.5L575.5 395.5Z" fill-rule="nonzero"/><path stroke="#000000" stroke-width="1.0" stroke-linecap="butt" d="M365.0 290.0L365.0 479.0" fill-rule="nonzero"/><path fill="#000000" d="M347.67188 513.5781L347.67188 514.5L343.40625 514.5L343.40625 513.5781L347.67188 513.5781ZM343.625 505.96875L343.625 514.5L342.48438 514.5L342.48438 505.96875L343.625 505.96875ZM349.5 508.15625L349.5 514.5L348.42188 514.5L348.42188 508.15625L349.5 508.15625ZM348.32812 506.48438Q348.32812 506.21875 348.48438 506.03125Q348.65625 505.84375 348.96875 505.84375Q349.28125 505.84375 349.4375 506.03125Q349.60938 506.21875 349.60938 506.48438Q349.60938 506.73438 349.4375 506.92188Q349.28125 507.09375 348.96875 507.09375Q348.65625 507.09375 348.48438 506.92188Q348.32812 506.73438 348.32812 506.48438ZM352.40625 509.42188L352.40625 514.5L351.3125 514.5L351.3125 508.15625L352.34375 508.15625L352.40625 509.42188ZM352.1875 511.09375L351.67188 511.07812Q351.6875 510.42188 351.84375 509.875Q352.01562 509.3125 352.32812 508.90625Q352.65625 508.5 353.14062 508.28125Q353.625 508.04688 354.25 508.04688Q354.70312 508.04688 355.07812 508.17188Q355.45312 508.29688 355.71875 508.5625Q356.0 508.82812 356.14062 509.25Q356.29688 509.67188 356.29688 510.28125L356.29688 514.5L355.21875 514.5L355.21875 510.32812Q355.21875 509.82812 355.04688 509.53125Q354.89062 509.23438 354.57812 509.09375Q354.28125 508.95312 353.85938 508.95312Q353.39062 508.95312 353.0625 509.125Q352.73438 509.29688 352.54688 509.59375Q352.35938 509.89062 352.26562 510.28125Q352.1875 510.65625 352.1875 511.09375ZM356.29688 510.48438L355.5625 510.71875Q355.5625 510.1875 355.73438 509.71875Q355.90625 509.23438 356.21875 508.85938Q356.54688 508.48438 357.01562 508.26562Q357.48438 508.04688 358.07812 508.04688Q358.59375 508.04688 358.98438 508.1875Q359.39062 508.3125 359.65625 508.59375Q359.92188 508.875 360.0625 509.3125Q360.20312 509.73438 360.20312 510.32812L360.20312 514.5L359.125 514.5L359.125 510.32812Q359.125 509.78125 358.95312 509.5Q358.78125 509.20312 358.48438 509.07812Q358.1875 508.95312 357.76562 508.95312Q357.40625 508.95312 357.125 509.07812Q356.85938 509.20312 356.67188 509.42188Q356.48438 509.625 356.39062 509.90625Q356.29688 510.1875 356.29688 510.48438ZM362.04688 511.40625L362.04688 511.26562Q362.04688 510.57812 362.23438 510.0Q362.4375 509.40625 362.8125 508.96875Q363.1875 508.53125 363.71875 508.29688Q364.25 508.04688 364.92188 508.04688Q365.57812 508.04688 366.10938 508.29688Q366.65625 508.53125 367.03125 508.96875Q367.40625 509.40625 367.60938 510.0Q367.8125 510.57812 367.8125 511.26562L367.8125 511.40625Q367.8125 512.0781 367.60938 512.6719Q367.40625 513.25 367.03125 513.6875Q366.65625 514.125 366.125 514.375Q365.59375 514.625 364.92188 514.625Q364.26562 514.625 363.71875 514.375Q363.1875 514.125 362.8125 513.6875Q362.4375 513.25 362.23438 512.6719Q362.04688 512.0781 362.04688 511.40625ZM363.125 511.26562L363.125 511.40625Q363.125 511.875 363.23438 512.2969Q363.34375 512.71875 363.5625 513.0469Q363.79688 513.3594 364.14062 513.5469Q364.48438 513.71875 364.92188 513.71875Q365.375 513.71875 365.70312 513.5469Q366.04688 513.3594 366.26562 513.0469Q366.5 512.71875 366.60938 512.2969Q366.71875 511.875 366.71875 511.40625L366.71875 511.26562Q366.71875 510.79688 366.60938 510.375Q366.5 509.95312 366.26562 509.64062Q366.04688 509.3125 365.70312 509.125Q365.375 508.9375 364.92188 508.9375Q364.46875 508.9375 364.125 509.125Q363.79688 509.3125 363.5625 509.64062Q363.34375 509.95312 363.23438 510.375Q363.125 510.79688 363.125 511.26562ZM370.40625 509.51562L370.40625 514.5L369.32812 514.5L369.32812 508.15625L370.35938 508.15625L370.40625 509.51562ZM370.15625 511.09375L369.70312 511.07812Q369.70312 510.42188 369.89062 509.875Q370.07812 509.3125 370.42188 508.90625Q370.76562 508.5 371.23438 508.28125Q371.70312 508.04688 372.28125 508.04688Q372.75 508.04688 373.125 508.17188Q373.5 508.29688 373.76562 508.57812Q374.03125 508.84375 374.17188 509.28125Q374.3125 509.71875 374.3125 510.34375L374.3125 514.5L373.21875 514.5L373.21875 510.32812Q373.21875 509.82812 373.07812 509.53125Q372.9375 509.23438 372.65625 509.09375Q372.375 508.95312 371.95312 508.95312Q371.54688 508.95312 371.21875 509.125Q370.89062 509.29688 370.65625 509.59375Q370.42188 509.89062 370.28125 510.28125Q370.15625 510.65625 370.15625 511.09375ZM378.95312 514.625Q378.29688 514.625 377.75 514.40625Q377.21875 514.1719 376.82812 513.7656Q376.45312 513.34375 376.25 512.78125Q376.04688 512.21875 376.04688 511.54688L376.04688 511.3125Q376.04688 510.53125 376.26562 509.92188Q376.5 509.3125 376.89062 508.89062Q377.28125 508.46875 377.78125 508.26562Q378.28125 508.04688 378.8125 508.04688Q379.5 508.04688 379.98438 508.28125Q380.48438 508.51562 380.79688 508.9375Q381.125 509.34375 381.26562 509.92188Q381.42188 510.48438 381.42188 511.14062L381.42188 511.64062L376.6875 511.64062L376.6875 510.75L380.34375 510.75L380.34375 510.67188Q380.3125 510.25 380.15625 509.85938Q380.01562 509.45312 379.6875 509.20312Q379.375 508.9375 378.8125 508.9375Q378.45312 508.9375 378.14062 509.09375Q377.82812 509.25 377.59375 509.5625Q377.375 509.85938 377.25 510.29688Q377.14062 510.73438 377.14062 511.3125L377.14062 511.54688Q377.14062 512.0 377.26562 512.40625Q377.39062 512.7969 377.625 513.09375Q377.875 513.3906 378.21875 513.5625Q378.57812 513.7344 379.01562 513.7344Q379.59375 513.7344 379.98438 513.5Q380.39062 513.2656 380.6875 512.875L381.34375 513.3906Q381.14062 513.7031 380.8125 513.9844Q380.5 514.2656 380.03125 514.4531Q379.57812 514.625 378.95312 514.625ZM383.40625 509.51562L383.40625 514.5L382.32812 514.5L382.32812 508.15625L383.35938 508.15625L383.40625 509.51562ZM383.15625 511.09375L382.70312 511.07812Q382.70312 510.42188 382.89062 509.875Q383.07812 509.3125 383.42188 508.90625Q383.76562 508.5 384.23438 508.28125Q384.70312 508.04688 385.28125 508.04688Q385.75 508.04688 386.125 508.17188Q386.5 508.29688 386.76562 508.57812Q387.03125 508.84375 387.17188 509.28125Q387.3125 509.71875 387.3125 510.34375L387.3125 514.5L386.21875 514.5L386.21875 510.32812Q386.21875 509.82812 386.07812 509.53125Q385.9375 509.23438 385.65625 509.09375Q385.375 508.95312 384.95312 508.95312Q384.54688 508.95312 384.21875 509.125Q383.89062 509.29688 383.65625 509.59375Q383.42188 509.89062 383.28125 510.28125Q383.15625 510.65625 383.15625 511.09375Z" fill-rule="nonzero"/><path stroke="#000000" stroke-width="1.0" stroke-linecap="butt" d="M365.0 290.0L201.0 385.0" fill-rule="nonzero"/><path fill="#000000" d="M145.59375 401.5625L145.59375 401.4375Q145.59375 400.6875 145.75 400.07812Q145.92188 399.45312 146.23438 399.0Q146.54688 398.54688 147.0 398.29688Q147.46875 398.04688 148.0625 398.04688Q148.51562 398.04688 148.875 398.1875Q149.25 398.3125 149.53125 398.57812Q149.8125 398.82812 150.01562 399.20312Q150.21875 399.57812 150.34375 400.0625Q150.46875 400.53125 150.51562 401.09375L150.51562 401.57812Q150.45312 402.28125 150.26562 402.84375Q150.09375 403.40625 149.79688 403.8125Q149.5 404.20312 149.0625 404.42188Q148.64062 404.625 148.04688 404.625Q147.46875 404.625 147.0 404.40625Q146.54688 404.17188 146.23438 403.76562Q145.92188 403.34375 145.75 402.79688Q145.59375 402.23438 145.59375 401.5625ZM146.67188 401.4375L146.67188 401.5625Q146.67188 402.01562 146.76562 402.40625Q146.85938 402.79688 147.04688 403.09375Q147.25 403.39062 147.5625 403.5625Q147.89062 403.73438 148.32812 403.73438Q148.75 403.73438 149.04688 403.5625Q149.35938 403.375 149.5625 403.07812Q149.78125 402.78125 149.90625 402.39062Q150.04688 402.0 150.14062 401.59375L150.14062 401.20312Q150.07812 400.76562 149.9375 400.375Q149.8125 399.96875 149.59375 399.64062Q149.39062 399.3125 149.07812 399.125Q148.76562 398.9375 148.32812 398.9375Q147.89062 398.9375 147.57812 399.14062Q147.26562 399.32812 147.0625 399.67188Q146.85938 400.01562 146.76562 400.48438Q146.67188 400.9375 146.67188 401.4375ZM149.98438 398.15625L150.90625 398.15625L150.90625 402.76562Q150.90625 403.04688 150.9375 403.21875Q150.96875 403.375 151.03125 403.48438Q151.10938 403.57812 151.1875 403.625Q151.28125 403.65625 151.375 403.65625Q151.42188 403.65625 151.46875 403.64062Q151.53125 403.625 151.5625 403.60938L151.70312 404.42188Q151.51562 404.54688 151.34375 404.57812Q151.17188 404.625 150.98438 404.625Q150.70312 404.625 150.48438 404.51562Q150.28125 404.42188 150.125 404.20312Q149.96875 403.98438 149.89062 403.625Q149.8125 403.26562 149.8125 402.76562L149.8125 399.53125L149.98438 398.15625ZM155.07812 400.42188L155.07812 401.3125L152.21875 401.3125L152.21875 400.42188L155.07812 400.42188ZM161.5625 399.64062L161.5625 400.5625L156.95312 400.5625L156.95312 399.64062L161.5625 399.64062ZM157.125 395.96875L157.125 404.5L155.98438 404.5L155.98438 395.96875L157.125 395.96875ZM162.54688 395.96875L162.54688 404.5L161.42188 404.5L161.42188 395.96875L162.54688 395.96875ZM168.70312 403.03125L168.70312 398.15625L169.79688 398.15625L169.79688 404.5L168.76562 404.5L168.70312 403.03125ZM168.90625 401.70312L169.35938 401.6875Q169.35938 402.3125 169.21875 402.85938Q169.09375 403.39062 168.79688 403.78125Q168.51562 404.17188 168.03125 404.40625Q167.5625 404.625 166.89062 404.625Q166.42188 404.625 166.03125 404.48438Q165.65625 404.34375 165.375 404.0625Q165.10938 403.78125 164.95312 403.32812Q164.79688 402.875 164.79688 402.25L164.79688 398.15625L165.89062 398.15625L165.89062 402.26562Q165.89062 402.6875 165.98438 402.96875Q166.07812 403.25 166.25 403.40625Q166.42188 403.5625 166.625 403.64062Q166.82812 403.70312 167.04688 403.70312Q167.75 403.70312 168.14062 403.4375Q168.54688 403.15625 168.71875 402.70312Q168.90625 402.25 168.90625 401.70312ZM172.90625 399.42188L172.90625 404.5L171.8125 404.5L171.8125 398.15625L172.84375 398.15625L172.90625 399.42188ZM172.6875 401.09375L172.17188 401.07812Q172.1875 400.42188 172.34375 399.875Q172.51562 399.3125 172.82812 398.90625Q173.15625 398.5 173.64062 398.28125Q174.125 398.04688 174.75 398.04688Q175.20312 398.04688 175.57812 398.17188Q175.95312 398.29688 176.21875 398.5625Q176.5 398.82812 176.64062 399.25Q176.79688 399.67188 176.79688 400.28125L176.79688 404.5L175.71875 404.5L175.71875 400.32812Q175.71875 399.82812 175.54688 399.53125Q175.39062 399.23438 175.07812 399.09375Q174.78125 398.95312 174.35938 398.95312Q173.89062 398.95312 173.5625 399.125Q173.23438 399.29688 173.04688 399.59375Q172.85938 399.89062 172.76562 400.28125Q172.6875 400.65625 172.6875 401.09375ZM176.79688 400.48438L176.0625 400.71875Q176.0625 400.1875 176.23438 399.71875Q176.40625 399.23438 176.71875 398.85938Q177.04688 398.48438 177.51562 398.26562Q177.98438 398.04688 178.57812 398.04688Q179.09375 398.04688 179.48438 398.1875Q179.89062 398.3125 180.15625 398.59375Q180.42188 398.875 180.5625 399.3125Q180.70312 399.73438 180.70312 400.32812L180.70312 404.5L179.625 404.5L179.625 400.32812Q179.625 399.78125 179.45312 399.5Q179.28125 399.20312 178.98438 399.07812Q178.6875 398.95312 178.26562 398.95312Q177.90625 398.95312 177.625 399.07812Q177.35938 399.20312 177.17188 399.42188Q176.98438 399.625 176.89062 399.90625Q176.79688 400.1875 176.79688 400.48438ZM186.70312 403.03125L186.70312 398.15625L187.79688 398.15625L187.79688 404.5L186.76562 404.5L186.70312 403.03125ZM186.90625 401.70312L187.35938 401.6875Q187.35938 402.3125 187.21875 402.85938Q187.09375 403.39062 186.79688 403.78125Q186.51562 404.17188 186.03125 404.40625Q185.5625 404.625 184.89062 404.625Q184.42188 404.625 184.03125 404.48438Q183.65625 404.34375 183.375 404.0625Q183.10938 403.78125 182.95312 403.32812Q182.79688 402.875 182.79688 402.25L182.79688 398.15625L183.89062 398.15625L183.89062 402.26562Q183.89062 402.6875 183.98438 402.96875Q184.07812 403.25 184.25 403.40625Q184.42188 403.5625 184.625 403.64062Q184.82812 403.70312 185.04688 403.70312Q185.75 403.70312 186.14062 403.4375Q186.54688 403.15625 186.71875 402.70312Q186.90625 402.25 186.90625 401.70312ZM191.0 395.5L191.0 404.5L189.92188 404.5L189.92188 395.5L191.0 395.5ZM195.45312 404.625Q194.79688 404.625 194.25 404.40625Q193.71875 404.17188 193.32812 403.76562Q192.95312 403.34375 192.75 402.78125Q192.54688 402.21875 192.54688 401.54688L192.54688 401.3125Q192.54688 400.53125 192.76562 399.92188Q193.0 399.3125 193.39062 398.89062Q193.78125 398.46875 194.28125 398.26562Q194.78125 398.04688 195.3125 398.04688Q196.0 398.04688 196.48438 398.28125Q196.98438 398.51562 197.29688 398.9375Q197.625 399.34375 197.76562 399.92188Q197.92188 400.48438 197.92188 401.14062L197.92188 401.64062L193.1875 401.64062L193.1875 400.75L196.84375 400.75L196.84375 400.67188Q196.8125 400.25 196.65625 399.85938Q196.51562 399.45312 196.1875 399.20312Q195.875 398.9375 195.3125 398.9375Q194.95312 398.9375 194.64062 399.09375Q194.32812 399.25 194.09375 399.5625Q193.875 399.85938 193.75 400.29688Q193.64062 400.73438 193.64062 401.3125L193.64062 401.54688Q193.64062 402.0 193.76562 402.40625Q193.89062 402.79688 194.125 403.09375Q194.375 403.39062 194.71875 403.5625Q195.07812 403.73438 195.51562 403.73438Q196.09375 403.73438 196.48438 403.5Q196.89062 403.26562 197.1875 402.875L197.84375 403.39062Q197.64062 403.70312 197.3125 403.98438Q197.0 404.26562 196.53125 404.45312Q196.07812 404.625 195.45312 404.625ZM199.90625 399.51562L199.90625 404.5L198.82812 404.5L198.82812 398.15625L199.85938 398.15625L199.90625 399.51562ZM199.65625 401.09375L199.20312 401.07812Q199.20312 400.42188 199.39062 399.875Q199.57812 399.3125 199.92188 398.90625Q200.26562 398.5 200.73438 398.28125Q201.20312 398.04688 201.78125 398.04688Q202.25 398.04688 202.625 398.17188Q203.0 398.29688 203.26562 398.57812Q203.53125 398.84375 203.67188 399.28125Q203.8125 399.71875 203.8125 400.34375L203.8125 404.5L202.71875 404.5L202.71875 400.32812Q202.71875 399.82812 202.57812 399.53125Q202.4375 399.23438 202.15625 399.09375Q201.875 398.95312 201.45312 398.95312Q201.04688 398.95312 200.71875 399.125Q200.39062 399.29688 200.15625 399.59375Q199.92188 399.89062 199.78125 400.28125Q199.65625 400.65625 199.65625 401.09375Z" fill-rule="nonzero"/><path stroke="#000000" stroke-width="1.0" stroke-linecap="butt" d="M365.0 290.0L201.0 195.0" fill-rule="nonzero"/><path fill="#000000" d="M157.03125 182.34375Q157.03125 182.04688 156.9375 181.8125Q156.85938 181.57812 156.625 181.39062Q156.40625 181.20312 156.0 181.03125Q155.60938 180.85938 155.01562 180.6875Q154.375 180.5 153.85938 180.28125Q153.35938 180.04688 152.98438 179.75Q152.625 179.4375 152.4375 179.0625Q152.25 178.67188 152.25 178.17188Q152.25 177.67188 152.45312 177.25Q152.65625 176.82812 153.03125 176.51562Q153.42188 176.20312 153.95312 176.03125Q154.48438 175.84375 155.14062 175.84375Q156.10938 175.84375 156.78125 176.21875Q157.45312 176.57812 157.79688 177.17188Q158.15625 177.76562 158.15625 178.42188L157.03125 178.42188Q157.03125 177.95312 156.8125 177.57812Q156.60938 177.20312 156.1875 177.0Q155.78125 176.78125 155.14062 176.78125Q154.54688 176.78125 154.14062 176.96875Q153.75 177.14062 153.5625 177.45312Q153.375 177.76562 153.375 178.15625Q153.375 178.42188 153.48438 178.65625Q153.60938 178.875 153.84375 179.0625Q154.09375 179.25 154.46875 179.40625Q154.84375 179.5625 155.375 179.70312Q156.09375 179.90625 156.625 180.17188Q157.15625 180.42188 157.5 180.73438Q157.84375 181.04688 158.0 181.4375Q158.17188 181.82812 158.17188 182.32812Q158.17188 182.85938 157.95312 183.28125Q157.75 183.70312 157.35938 184.0Q156.96875 184.29688 156.42188 184.46875Q155.875 184.625 155.20312 184.625Q154.60938 184.625 154.03125 184.45312Q153.46875 184.28125 153.0 183.95312Q152.53125 183.625 152.25 183.15625Q151.96875 182.67188 151.96875 182.03125L153.09375 182.03125Q153.09375 182.46875 153.26562 182.78125Q153.4375 183.09375 153.73438 183.29688Q154.03125 183.5 154.40625 183.60938Q154.78125 183.70312 155.20312 183.70312Q155.79688 183.70312 156.20312 183.54688Q156.60938 183.375 156.8125 183.07812Q157.03125 182.76562 157.03125 182.34375ZM159.04688 181.40625L159.04688 181.26562Q159.04688 180.57812 159.23438 180.0Q159.4375 179.40625 159.8125 178.96875Q160.1875 178.53125 160.71875 178.29688Q161.25 178.04688 161.92188 178.04688Q162.57812 178.04688 163.10938 178.29688Q163.65625 178.53125 164.03125 178.96875Q164.40625 179.40625 164.60938 180.0Q164.8125 180.57812 164.8125 181.26562L164.8125 181.40625Q164.8125 182.07812 164.60938 182.67188Q164.40625 183.25 164.03125 183.6875Q163.65625 184.125 163.125 184.375Q162.59375 184.625 161.92188 184.625Q161.26562 184.625 160.71875 184.375Q160.1875 184.125 159.8125 183.6875Q159.4375 183.25 159.23438 182.67188Q159.04688 182.07812 159.04688 181.40625ZM160.125 181.26562L160.125 181.40625Q160.125 181.875 160.23438 182.29688Q160.34375 182.71875 160.5625 183.04688Q160.79688 183.35938 161.14062 183.54688Q161.48438 183.71875 161.92188 183.71875Q162.375 183.71875 162.70312 183.54688Q163.04688 183.35938 163.26562 183.04688Q163.5 182.71875 163.60938 182.29688Q163.71875 181.875 163.71875 181.40625L163.71875 181.26562Q163.71875 180.79688 163.60938 180.375Q163.5 179.95312 163.26562 179.64062Q163.04688 179.3125 162.70312 179.125Q162.375 178.9375 161.92188 178.9375Q161.46875 178.9375 161.125 179.125Q160.79688 179.3125 160.5625 179.64062Q160.34375 179.95312 160.23438 180.375Q160.125 180.79688 160.125 181.26562ZM167.40625 179.51562L167.40625 184.5L166.32812 184.5L166.32812 178.15625L167.35938 178.15625L167.40625 179.51562ZM167.15625 181.09375L166.70312 181.07812Q166.70312 180.42188 166.89062 179.875Q167.07812 179.3125 167.42188 178.90625Q167.76562 178.5 168.23438 178.28125Q168.70312 178.04688 169.28125 178.04688Q169.75 178.04688 170.125 178.17188Q170.5 178.29688 170.76562 178.57812Q171.03125 178.84375 171.17188 179.28125Q171.3125 179.71875 171.3125 180.34375L171.3125 184.5L170.21875 184.5L170.21875 180.32812Q170.21875 179.82812 170.07812 179.53125Q169.9375 179.23438 169.65625 179.09375Q169.375 178.95312 168.95312 178.95312Q168.54688 178.95312 168.21875 179.125Q167.89062 179.29688 167.65625 179.59375Q167.42188 179.89062 167.28125 180.28125Q167.15625 180.65625 167.15625 181.09375ZM177.01562 182.8125Q177.01562 182.57812 176.90625 182.375Q176.8125 182.17188 176.5 182.01562Q176.1875 181.84375 175.5625 181.71875Q175.03125 181.60938 174.60938 181.46875Q174.1875 181.3125 173.89062 181.09375Q173.59375 180.875 173.4375 180.57812Q173.28125 180.28125 173.28125 179.89062Q173.28125 179.51562 173.4375 179.1875Q173.60938 178.84375 173.90625 178.59375Q174.21875 178.32812 174.65625 178.1875Q175.09375 178.04688 175.625 178.04688Q176.39062 178.04688 176.92188 178.3125Q177.46875 178.57812 177.75 179.03125Q178.03125 179.48438 178.03125 180.01562L176.95312 180.01562Q176.95312 179.76562 176.79688 179.51562Q176.64062 179.26562 176.34375 179.10938Q176.04688 178.9375 175.625 178.9375Q175.17188 178.9375 174.89062 179.07812Q174.60938 179.20312 174.48438 179.42188Q174.35938 179.625 174.35938 179.85938Q174.35938 180.04688 174.42188 180.1875Q174.48438 180.3125 174.64062 180.4375Q174.79688 180.54688 175.07812 180.65625Q175.375 180.75 175.82812 180.84375Q176.60938 181.01562 177.10938 181.26562Q177.60938 181.51562 177.85938 181.875Q178.10938 182.21875 178.10938 182.73438Q178.10938 183.15625 177.92188 183.5Q177.75 183.84375 177.42188 184.09375Q177.10938 184.34375 176.65625 184.48438Q176.20312 184.625 175.65625 184.625Q174.8125 184.625 174.23438 184.32812Q173.65625 184.01562 173.35938 183.54688Q173.0625 183.0625 173.0625 182.54688L174.14062 182.54688Q174.17188 182.98438 174.40625 183.25Q174.64062 183.51562 174.96875 183.625Q175.3125 183.71875 175.65625 183.71875Q176.09375 183.71875 176.39062 183.60938Q176.70312 183.48438 176.85938 183.28125Q177.01562 183.07812 177.01562 182.8125ZM181.98438 178.15625L181.98438 178.98438L178.54688 178.98438L178.54688 178.15625L181.98438 178.15625ZM179.71875 176.625L180.79688 176.625L180.79688 182.92188Q180.79688 183.25 180.89062 183.42188Q181.0 183.57812 181.15625 183.64062Q181.3125 183.6875 181.5 183.6875Q181.625 183.6875 181.76562 183.65625Q181.92188 183.625 182.0 183.60938L182.01562 184.5Q181.875 184.54688 181.67188 184.57812Q181.46875 184.625 181.17188 184.625Q180.78125 184.625 180.4375 184.46875Q180.10938 184.29688 179.90625 183.9375Q179.71875 183.5625 179.71875 182.92188L179.71875 176.625ZM184.5 178.15625L184.5 184.5L183.42188 184.5L183.42188 178.15625L184.5 178.15625ZM183.32812 176.48438Q183.32812 176.21875 183.48438 176.03125Q183.65625 175.84375 183.96875 175.84375Q184.28125 175.84375 184.4375 176.03125Q184.60938 176.21875 184.60938 176.48438Q184.60938 176.73438 184.4375 176.92188Q184.28125 177.09375 183.96875 177.09375Q183.65625 177.09375 183.48438 176.92188Q183.32812 176.73438 183.32812 176.48438ZM190.4375 178.15625L191.42188 178.15625L191.42188 184.35938Q191.42188 185.20312 191.07812 185.79688Q190.73438 186.39062 190.125 186.6875Q189.53125 187.0 188.73438 187.0Q188.40625 187.0 187.95312 186.89062Q187.51562 186.79688 187.09375 186.54688Q186.67188 186.3125 186.39062 185.90625L186.95312 185.25Q187.35938 185.73438 187.78125 185.92188Q188.21875 186.10938 188.65625 186.10938Q189.17188 186.10938 189.54688 185.90625Q189.92188 185.71875 190.125 185.34375Q190.32812 184.96875 190.32812 184.42188L190.32812 179.54688L190.4375 178.15625ZM186.0625 181.40625L186.0625 181.28125Q186.0625 180.54688 186.23438 179.95312Q186.42188 179.35938 186.73438 178.9375Q187.0625 178.5 187.51562 178.28125Q187.98438 178.04688 188.57812 178.04688Q189.17188 178.04688 189.60938 178.25Q190.0625 178.45312 190.375 178.85938Q190.6875 179.25 190.875 179.8125Q191.0625 180.35938 191.125 181.0625L191.125 181.60938Q191.0625 182.29688 190.875 182.85938Q190.6875 183.42188 190.375 183.8125Q190.0625 184.20312 189.60938 184.42188Q189.15625 184.625 188.5625 184.625Q187.98438 184.625 187.53125 184.39062Q187.07812 184.14062 186.75 183.70312Q186.42188 183.26562 186.23438 182.6875Q186.0625 182.09375 186.0625 181.40625ZM187.15625 181.28125L187.15625 181.40625Q187.15625 181.875 187.25 182.29688Q187.34375 182.70312 187.54688 183.03125Q187.75 183.34375 188.0625 183.53125Q188.39062 183.70312 188.82812 183.70312Q189.35938 183.70312 189.70312 183.46875Q190.0625 183.23438 190.26562 182.85938Q190.48438 182.48438 190.59375 182.04688L190.59375 180.64062Q190.53125 180.3125 190.39062 180.01562Q190.26562 179.71875 190.0625 179.48438Q189.85938 179.23438 189.54688 179.09375Q189.25 178.95312 188.82812 178.95312Q188.39062 178.95312 188.0625 179.14062Q187.75 179.32812 187.54688 179.65625Q187.34375 179.96875 187.25 180.39062Q187.15625 180.79688 187.15625 181.28125ZM195.95312 184.625Q195.29688 184.625 194.75 184.40625Q194.21875 184.17188 193.82812 183.76562Q193.45312 183.34375 193.25 182.78125Q193.04688 182.21875 193.04688 181.54688L193.04688 181.3125Q193.04688 180.53125 193.26562 179.92188Q193.5 179.3125 193.89062 178.89062Q194.28125 178.46875 194.78125 178.26562Q195.28125 178.04688 195.8125 178.04688Q196.5 178.04688 196.98438 178.28125Q197.48438 178.51562 197.79688 178.9375Q198.125 179.34375 198.26562 179.92188Q198.42188 180.48438 198.42188 181.14062L198.42188 181.64062L193.6875 181.64062L193.6875 180.75L197.34375 180.75L197.34375 180.67188Q197.3125 180.25 197.15625 179.85938Q197.01562 179.45312 196.6875 179.20312Q196.375 178.9375 195.8125 178.9375Q195.45312 178.9375 195.14062 179.09375Q194.82812 179.25 194.59375 179.5625Q194.375 179.85938 194.25 180.29688Q194.14062 180.73438 194.14062 181.3125L194.14062 181.54688Q194.14062 182.0 194.26562 182.40625Q194.39062 182.79688 194.625 183.09375Q194.875 183.39062 195.21875 183.5625Q195.57812 183.73438 196.01562 183.73438Q196.59375 183.73438 196.98438 183.5Q197.39062 183.26562 197.6875 182.875L198.34375 183.39062Q198.14062 183.70312 197.8125 183.98438Q197.5 184.26562 197.03125 184.45312Q196.57812 184.625 195.95312 184.625Z" fill-rule="nonzero"/><path stroke="#000000" stroke-width="1.0" stroke-linecap="butt" d="M365.0 290.0L365.0 101.0" fill-rule="nonzero"/><path stroke="#ff0000" stroke-width="2.0" stroke-linecap="butt" stroke-opacity="0.7019608" stroke-dasharray="8.0,6.0,2.0,6.0" d="M365.0 139.0L480.0 224.0L418.0 321.0L365.0 347.0L332.0 309.0L336.0 273.0Z" fill-rule="nonzero"/><path fill="#ff0000" fill-opacity="0.7019608" d="M369.5 139.0C369.5 141.48528 367.4853 143.5 365.0 143.5C362.5147 143.5 360.5 141.48528 360.5 139.0C360.5 136.51472 362.5147 134.5 365.0 134.5C367.4853 134.5 369.5 136.51472 369.5 139.0Z" fill-rule="nonzero"/><path fill="#ff0000" fill-opacity="0.7019608" d="M484.5 224.0C484.5 226.48528 482.4853 228.5 480.0 228.5C477.5147 228.5 475.5 226.48528 475.5 224.0C475.5 221.51472 477.5147 219.5 480.0 219.5C482.4853 219.5 484.5 221.51472 484.5 224.0Z" fill-rule="nonzero"/><path fill="#ff0000" fill-opacity="0.7019608" d="M422.5 321.0C422.5 323.4853 420.4853 325.5 418.0 325.5C415.5147 325.5 413.5 323.4853 413.5 321.0C413.5 318.5147 415.5147 316.5 418.0 316.5C420.4853 316.5 422.5 318.5147 422.5 321.0Z" fill-rule="nonzero"/><path fill="#ff0000" fill-opacity="0.7019608" d="M369.5 347.0C369.5 349.4853 367.4853 351.5 365.0 351.5C362.5147 351.5 360.5 349.4853 360.5 347.0C360.5 344.5147 362.5147 342.5 365.0 342.5C367.4853 342.5 369.5 344.5147 369.5 347.0Z" fill-rule="nonzero"/><path fill="#ff0000" fill-opacity="0.7019608" d="M336.5 309.0C336.5 311.4853 334.4853 313.5 332.0 313.5C329.5147 313.5 327.5 311.4853 327.5 309.0C327.5 306.5147 329.5147 304.5 332.0 304.5C334.4853 304.5 336.5 306.5147 336.5 309.0Z" fill-rule="nonzero"/><path fill="#ff0000" fill-opacity="0.7019608" d="M340.5 273.0C340.5 275.4853 338.4853 277.5 336.0 277.5C333.5147 277.5 331.5 275.4853 331.5 273.0C331.5 270.5147 333.5147 268.5 336.0 268.5C338.4853 268.5 340.5 270.5147 340.5 273.0Z" fill-rule="nonzero"/><path fill="#757575" d="M26.86875 45.9L32.36875 31.587502L34.415627 31.587502L40.275 45.9L38.11875 45.9L36.446877 41.55625L30.4625 41.55625L28.884375 45.9L26.86875 45.9ZM31.009375 40.025L35.853127 40.025L34.36875 36.05625Q33.68125 34.24375 33.353127 33.0875Q33.071877 34.4625 32.571877 35.821877L31.009375 40.025ZM41.18125 45.9L41.18125 31.587502L42.93125 31.587502L42.93125 45.9L41.18125 45.9ZM45.228127 33.603127L45.228127 31.587502L46.99375 31.587502L46.99375 33.603127L45.228127 33.603127ZM45.228127 45.9L45.228127 35.525L46.99375 35.525L46.99375 45.9L45.228127 45.9ZM56.321877 42.55625L58.134377 42.790627Q57.7125 44.36875 56.540627 45.259377Q55.384377 46.134377 53.571877 46.134377Q51.30625 46.134377 49.9625 44.74375Q48.634377 43.3375 48.634377 40.80625Q48.634377 38.18125 49.978127 36.74375Q51.321877 35.290627 53.478127 35.290627Q55.55625 35.290627 56.86875 36.7125Q58.196877 38.11875 58.196877 40.696877Q58.196877 40.853127 58.18125 41.165627L50.446877 41.165627Q50.540627 42.86875 51.415627 43.775Q52.290627 44.68125 53.5875 44.68125Q54.55625 44.68125 55.228127 44.18125Q55.915627 43.665627 56.321877 42.55625ZM50.540627 39.7125L56.3375 39.7125Q56.228127 38.415627 55.68125 37.759377Q54.8375 36.74375 53.49375 36.74375Q52.290627 36.74375 51.4625 37.55625Q50.634377 38.353127 50.540627 39.7125ZM60.2125 45.9L60.2125 35.525L61.80625 35.525L61.80625 37.009377Q62.946877 35.290627 65.10313 35.290627Q66.04063 35.290627 66.82188 35.634377Q67.61875 35.9625 68.00938 36.509377Q68.4 37.05625 68.55625 37.80625Q68.65 38.30625 68.65 39.525L68.65 45.9L66.88438 45.9L66.88438 39.5875Q66.88438 38.509377 66.68125 37.978127Q66.47813 37.446877 65.94688 37.134377Q65.43125 36.821877 64.72813 36.821877Q63.603127 36.821877 62.790627 37.540627Q61.978127 38.24375 61.978127 40.228127L61.978127 45.9L60.2125 45.9ZM76.38438 45.9L76.38438 31.587502L79.24375 31.587502L82.61875 41.7125Q83.0875 43.134377 83.30625 43.8375Q83.55625 43.05625 84.07188 41.540627L87.49375 31.587502L90.04063 31.587502L90.04063 45.9L88.22813 45.9L88.22813 33.915627L84.05625 45.9L82.35313 45.9L78.2125 33.7125L78.2125 45.9L76.38438 45.9ZM93.22813 33.603127L93.22813 31.587502L94.99375 31.587502L94.99375 33.603127L93.22813 33.603127ZM93.22813 45.9L93.22813 35.525L94.99375 35.525L94.99375 45.9L93.22813 45.9ZM97.2125 45.9L97.2125 35.525L98.80625 35.525L98.80625 37.009377Q99.94688 35.290627 102.10313 35.290627Q103.04063 35.290627 103.82188 35.634377Q104.61875 35.9625 105.00938 36.509377Q105.4 37.05625 105.55625 37.80625Q105.65 38.30625 105.65 39.525L105.65 45.9L103.88438 45.9L103.88438 39.5875Q103.88438 38.509377 103.68125 37.978127Q103.47813 37.446877 102.94688 37.134377Q102.43125 36.821877 101.72813 36.821877Q100.60313 36.821877 99.79063 37.540627Q98.97813 38.24375 98.97813 40.228127L98.97813 45.9L97.2125 45.9ZM111.05625 44.321877L111.30625 45.884377Q110.57188 46.040627 109.97813 46.040627Q109.025 46.040627 108.49375 45.74375Q107.97813 45.43125 107.75938 44.946877Q107.54063 44.446877 107.54063 42.86875L107.54063 36.9L106.25938 36.9L106.25938 35.525L107.54063 35.525L107.54063 32.9625L109.29063 31.900002L109.29063 35.525L111.05625 35.525L111.05625 36.9L109.29063 36.9L109.29063 42.9625Q109.29063 43.7125 109.38438 43.93125Q109.47813 44.134377 109.68125 44.275Q109.9 44.4 110.29063 44.4Q110.57188 44.4 111.05625 44.321877ZM112.50938 42.80625L114.25938 42.525Q114.4 43.571877 115.07188 44.134377Q115.74375 44.68125 116.94688 44.68125Q118.15 44.68125 118.72813 44.196877Q119.32188 43.696877 119.32188 43.040627Q119.32188 42.446877 118.80625 42.103127Q118.44688 41.86875 117.00938 41.509377Q115.07188 41.009377 114.32188 40.665627Q113.5875 40.30625 113.19688 39.68125Q112.80625 39.040627 112.80625 38.275Q112.80625 37.5875 113.11875 36.99375Q113.44688 36.4 113.99375 36.009377Q114.4 35.7125 115.10313 35.509377Q115.82188 35.290627 116.63438 35.290627Q117.85313 35.290627 118.775 35.65Q119.69688 35.99375 120.13438 36.603127Q120.57188 37.196877 120.74375 38.196877L119.025 38.43125Q118.9 37.634377 118.3375 37.196877Q117.775 36.74375 116.75938 36.74375Q115.54063 36.74375 115.025 37.15Q114.50938 37.540627 114.50938 38.071877Q114.50938 38.415627 114.72813 38.696877Q114.93125 38.978127 115.4 39.165627Q115.66563 39.259377 116.94688 39.603127Q118.82188 40.103127 119.55625 40.43125Q120.29063 40.74375 120.7125 41.353127Q121.13438 41.946877 121.13438 42.853127Q121.13438 43.728127 120.61875 44.509377Q120.10313 45.290627 119.13438 45.7125Q118.16563 46.134377 116.94688 46.134377Q114.93125 46.134377 113.86875 45.290627Q112.80625 44.446877 112.50938 42.80625Z" fill-rule="nonzero"/></svg>