<svg version="1.1" viewBox="0.0 0.0 730.0 538.0" fill="none" stroke="none" stroke-linecap="square" stroke-miterlimit="10" width="730" height="538" xmlns:xlink="http://www.w3.org/1999/xlink" xmlns="http://www.w3.org/2000/svg"><path fill="#ffffff" d="M0 0L730.0 0L730.0 538.0L0 538.0L0 0Z" fill-rule="nonzero"/><path fill="#ffffff" d="M26.9 68.833336L703.10004 68.833336L703.10004 511.1L26.9 511.1L26.9 68.833336Z" fill-rule="nonzero"/><path stroke="#000000" stroke-width="1.0" stroke-linecap="butt" d="M365.0 290.0C365.0 290.0 365.0 290.0 365.0 290.0C365.0 290.0 365.0 290.0 365.0 290.0C365.0 290.0 365.0 290.0 365.0 290.0C365.0 290.0 365.0 290.0 365.0 290.0" fill-rule="nonzero"/><path fill="#000000" d="M353.0625 282.04688L353.0625 283.35938Q353.0625 284.40625 352.875 285.125Q352.6875 285.84375 352.32812 286.28125Q351.98438 286.71875 351.48438 286.92188Q351.0 287.125 350.375 287.125Q349.89062 287.125 349.46875 287.0Q349.04688 286.875 348.71875 286.60938Q348.39062 286.32812 348.15625 285.89062Q347.92188 285.45312 347.79688 284.82812Q347.67188 284.1875 347.67188 283.35938L347.67188 282.04688Q347.67188 281.0 347.85938 280.29688Q348.0625 279.59375 348.40625 279.15625Q348.76562 278.71875 349.25 278.53125Q349.75 278.34375 350.35938 278.34375Q350.85938 278.34375 351.28125 278.46875Q351.70312 278.59375 352.03125 278.85938Q352.35938 279.10938 352.57812 279.54688Q352.8125 279.96875 352.9375 280.59375Q353.0625 281.21875 353.0625 282.04688ZM351.96875 283.53125L351.96875 281.875Q351.96875 281.29688 351.90625 280.85938Q351.84375 280.42188 351.70312 280.10938Q351.57812 279.79688 351.375 279.60938Q351.1875 279.42188 350.9375 279.32812Q350.6875 279.23438 350.35938 279.23438Q349.98438 279.23438 349.67188 279.375Q349.375 279.51562 349.17188 279.82812Q348.96875 280.14062 348.85938 280.65625Q348.76562 281.15625 348.76562 281.875L348.76562 283.53125Q348.76562 284.10938 348.82812 284.54688Q348.90625 284.98438 349.03125 285.3125Q349.17188 285.625 349.35938 285.82812Q349.5625 286.03125 349.8125 286.125Q350.0625 286.21875 350.375 286.21875Q350.78125 286.21875 351.07812 286.07812Q351.375 285.92188 351.57812 285.59375Q351.78125 285.26562 351.875 284.76562Q351.96875 284.25 351.96875 283.53125ZM355.8125 285.70312L355.8125 286.57812Q355.8125 287.125 355.53125 287.71875Q355.26562 288.3125 354.78125 288.70312L354.17188 288.28125Q354.35938 288.01562 354.48438 287.75Q354.60938 287.48438 354.67188 287.20312Q354.75 286.92188 354.75 286.59375L354.75 285.70312L355.8125 285.70312ZM362.0625 282.04688L362.0625 283.35938Q362.0625 284.40625 361.875 285.125Q361.6875 285.84375 361.32812 286.28125Q360.98438 286.71875 360.48438 286.92188Q360.0 287.125 359.375 287.125Q358.89062 287.125 358.46875 287.0Q358.04688 286.875 357.71875 286.60938Q357.39062 286.32812 357.15625 285.89062Q356.92188 285.45312 356.79688 284.82812Q356.67188 284.1875 356.67188 283.35938L356.67188 282.04688Q356.67188 281.0 356.85938 280.29688Q357.0625 279.59375 357.40625 279.15625Q357.76562 278.71875 358.25 278.53125Q358.75 278.34375 359.35938 278.34375Q359.85938 278.34375 360.28125 278.46875Q360.70312 278.59375 361.03125 278.85938Q361.35938 279.10938 361.57812 279.54688Q361.8125 279.96875 361.9375 280.59375Q362.0625 281.21875 362.0625 282.04688ZM360.96875 283.53125L360.96875 281.875Q360.96875 281.29688 360.90625 280.85938Q360.84375 280.42188 360.70312 280.10938Q360.57812 279.79688 360.375 279.60938Q360.1875 279.42188 359.9375 279.32812Q359.6875 279.23438 359.35938 279.23438Q358.98438 279.23438 358.67188 279.375Q358.375 279.51562 358.17188 279.82812Q357.96875 280.14062 357.85938 280.65625Q357.76562 281.15625 357.76562 281.875L357.76562 283.53125Q357.76562 284.10938 357.82812 284.54688Q357.90625 284.98438 358.03125 285.3125Q358.17188 285.625 358.35938 285.82812Q358.5625 286.03125 358.8125 286.125Q359.0625 286.21875 359.375 286.21875Q359.78125 286.21875 360.07812 286.07812Q360.375 285.92188 360.57812 285.59375Q360.78125 285.26562 360.875 284.76562Q360.96875 284.25 360.96875 283.53125Z" fill-rule="nonzero"/><path stroke="#000000" stroke-width="1.0" stroke-linecap="butt" d="M428.04443 290.0C428.04443 255.18152 399.81848 226.95555 365.0 226.95555C330.18152 226.95555 301.95557 255.18152 301.95557 290.0C301.95557 324.81848 330.18152 353.04443 365.0 353.04443C399.81848 353.04443 428.04443 324.81848 428.04443 290.0" fill-rule="nonzero"/><path fill="#000000" d="M353.0625 219.00243L353.0625 220.31493Q353.0625 221.3618 352.875 222.08055Q352.6875 222.7993 352.32812 223.2368Q351.98438 223.6743 351.48438 223.87743Q351.0 224.08055 350.375 224.08055Q349.89062 224.08055 349.46875 223.95555Q349.04688 223.83055 348.71875 223.56493Q348.39062 223.28368 348.15625 222.84618Q347.92188 222.40868 347.79688 221.78368Q347.67188 221.14305 347.67188 220.31493L347.67188 219.00243Q347.67188 217.95555 347.85938 217.25243Q348.0625 216.5493 348.40625 216.1118Q348.76562 215.6743 349.25 215.4868Q349.75 215.2993 350.35938 215.2993Q350.85938 215.2993 351.28125 215.4243Q351.70312 215.5493 352.03125 215.81493Q352.35938 216.06493 352.57812 216.50243Q352.8125 216.9243 352.9375 217.5493Q353.0625 218.1743 353.0625 219.00243ZM351.96875 220.4868L351.96875 218.83055Q351.96875 218.25243 351.90625 217.81493Q351.84375 217.37743 351.70312 217.06493Q351.57812 216.75243 351.375 216.56493Q351.1875 216.37743 350.9375 216.28368Q350.6875 216.18993 350.35938 216.18993Q349.98438 216.18993 349.67188 216.33055Q349.375 216.47118 349.17188 216.78368Q348.96875 217.09618 348.85938 217.6118Q348.76562 218.1118 348.76562 218.83055L348.76562 220.4868Q348.76562 221.06493 348.82812 221.50243Q348.90625 221.93993 349.03125 222.26805Q349.17188 222.58055 349.35938 222.78368Q349.5625 222.9868 349.8125 223.08055Q350.0625 223.1743 350.375 223.1743Q350.78125 223.1743 351.07812 223.03368Q351.375 222.87743 351.57812 222.5493Q351.78125 222.22118 351.875 221.72118Q351.96875 221.20555 351.96875 220.4868ZM355.8125 222.65868L355.8125 223.53368Q355.8125 224.08055 355.53125 224.6743Q355.26562 225.26805 354.78125 225.65868L354.17188 225.2368Q354.35938 224.97118 354.48438 224.70555Q354.60938 224.43993 354.67188 224.15868Q354.75 223.87743 354.75 223.5493L354.75 222.65868L355.8125 222.65868ZM360.26562 215.37743L360.26562 223.95555L359.1875 223.95555L359.1875 216.7368L357.0 217.53368L357.0 216.5493L360.10938 215.37743L360.26562 215.37743Z" fill-rule="nonzero"/><path stroke="#000000" stroke-width="1.0" stroke-linecap="butt" d="M491.0889 290.0C491.0889 220.36304 434.63696 163.91112 365.0 163.91112C295.36304 163.91112 238.91112 220.36304 238.91112 290.0C238.91112 359.63696 295.36304 416.0889 365.0 416.0889C434.63696 416.0889 491.0889 359.63696 491.0889 290.0" fill-rule="nonzero"/><path fill="#000000" d="M353.0625 155.958L353.0625 157.2705Q353.0625 158.31737 352.875 159.03612Q352.6875 159.75487 352.32812 160.19237Q351.98438 160.62987 351.48438 160.833Q351.0 161.03612 350.375 161.03612Q349.89062 161.03612 349.46875 160.91112Q349.04688 160.78612 348.71875 160.5205Q348.39062 160.23924 348.15625 159.80174Q347.92188 159.36424 347.79688 158.73924Q347.67188 158.09862 347.67188 157.2705L347.67188 155.958Q347.67188 154.91112 347.85938 154.208Q348.0625 153.50487 348.40625 153.06737Q348.76562 152.62987 349.25 152.44237Q349.75 152.25487 350.35938 152.25487Q350.85938 152.25487 351.28125 152.37987Q351.70312 152.50487 352.03125 152.7705Q352.35938 153.0205 352.57812 153.458Q352.8125 153.87987 352.9375 154.50487Q353.0625 155.12987 353.0625 155.958ZM351.96875 157.44237L351.96875 155.78612Q351.96875 155.208 351.90625 154.7705Q351.84375 154.333 351.70312 154.0205Q351.57812 153.708 351.375 153.5205Q351.1875 153.333 350.9375 153.23924Q350.6875 153.1455 350.35938 153.1455Q349.98438 153.1455 349.67188 153.28612Q349.375 153.42674 349.17188 153.73924Q348.96875 154.05174 348.85938 154.56737Q348.76562 155.06737 348.76562 155.78612L348.76562 157.44237Q348.76562 158.0205 348.82812 158.458Q348.90625 158.8955 349.03125 159.22362Q349.17188 159.53612 349.35938 159.73924Q349.5625 159.94237 349.8125 160.03612Q350.0625 160.12987 350.375 160.12987Q350.78125 160.12987 351.07812 159.98924Q351.375 159.833 351.57812 159.50487Q351.78125 159.17674 351.875 158.67674Q351.96875 158.16112 351.96875 157.44237ZM355.8125 159.61424L355.8125 160.48924Q355.8125 161.03612 355.53125 161.62987Q355.26562 162.22362 354.78125 162.61424L354.17188 162.19237Q354.35938 161.92674 354.48438 161.66112Q354.60938 161.3955 354.67188 161.11424Q354.75 160.833 354.75 160.50487L354.75 159.61424L355.8125 159.61424ZM362.29688 160.0205L362.29688 160.91112L356.71875 160.91112L356.71875 160.12987L359.51562 157.0205Q360.03125 156.44237 360.3125 156.05174Q360.59375 155.6455 360.70312 155.333Q360.82812 155.00487 360.82812 154.67674Q360.82812 154.25487 360.65625 153.91112Q360.48438 153.56737 360.14062 153.36424Q359.8125 153.1455 359.32812 153.1455Q358.76562 153.1455 358.39062 153.37987Q358.01562 153.59862 357.82812 153.98924Q357.64062 154.37987 357.64062 154.87987L356.54688 154.87987Q356.54688 154.16112 356.85938 153.56737Q357.1875 152.97362 357.79688 152.61424Q358.42188 152.25487 359.32812 152.25487Q360.14062 152.25487 360.71875 152.55174Q361.29688 152.833 361.59375 153.34862Q361.90625 153.84862 361.90625 154.53612Q361.90625 154.91112 361.78125 155.30174Q361.65625 155.67674 361.4375 156.06737Q361.21875 156.44237 360.92188 156.81737Q360.64062 157.17674 360.3125 157.53612L358.01562 160.0205L362.29688 160.0205Z" fill-rule="nonzero"/><path stroke="#000000" stroke-width="1.0" stroke-linecap="butt" d="M554.13336 290.0C554.13336 185.54454 469.45544 100.86667 365.0 100.86667C260.54456 100.86667 175.86667 185.54454 175.86667 290.0C175.86667 394.45544 260.54456 479.13333 365.0 479.13333C469.45544 479.13333 554.13336 394.45544 554.13336 290.0" fill-rule="nonzero"/><path fill="#000000" d="M353.0625 92.91354L353.0625 94.22604Q353.0625 95.27292 352.875 95.99167Q352.6875 96.71042 352.32812 97.14792Q351.98438 97.58542 351.48438 97.78854Q351.0 97.99167 350.375 97.99167Q349.89062 97.99167 349.46875 97.86667Q349.04688 97.74167 348.71875 97.47604Q348.39062 97.19479 348.15625 96.75729Q347.92188 96.31979 347.79688 95.69479Q347.67188 95.05417 347.67188 94.22604L347.67188 92.91354Q347.67188 91.86667 347.85938 91.16354Q348.0625 90.46042 348.40625 90.02292Q348.76562 89.58542 349.25 89.39792Q349.75 89.21042 350.35938 89.21042Q350.85938 89.21042 351.28125 89.33542Q351.70312 89.46042 352.03125 89.72604Q352.35938 89.97604 352.57812 90.41354Q352.8125 90.83542 352.9375 91.46042Q353.0625 92.08542 353.0625 92.91354ZM351.96875 94.39792L351.96875 92.74167Q351.96875 92.16354 351.90625 91.72604Q351.84375 91.28854 351.70312 90.97604Q351.57812 90.66354 351.375 90.47604Q351.1875 90.28854 350.9375 90.19479Q350.6875 90.10104 350.35938 90.10104Q349.98438 90.10104 349.67188 90.24167Q349.375 90.38229 349.17188 90.69479Q348.96875 91.00729 348.85938 91.52292Q348.76562 92.02292 348.76562 92.74167L348.76562 94.39792Q348.76562 94.97604 348.82812 95.41354Q348.90625 95.85104 349.03125 96.17917Q349.17188 96.49167 349.35938 96.69479Q349.5625 96.89792 349.8125 96.99167Q350.0625 97.08542 350.375 97.08542Q350.78125 97.08542 351.07812 96.94479Q351.375 96.78854 351.57812 96.46042Q351.78125 96.13229 351.875 95.63229Q351.96875 95.11667 351.96875 94.39792ZM355.8125 96.56979L355.8125 97.44479Q355.8125 97.99167 355.53125 98.58542Q355.26562 99.17917 354.78125 99.56979L354.17188 99.14792Q354.35938 98.88229 354.48438 98.61667Q354.60938 98.35104 354.67188 98.06979Q354.75 97.78854 354.75 97.46042L354.75 96.56979L355.8125 96.56979ZM358.29688 93.06979L359.0625 93.06979Q359.64062 93.06979 360.0 92.88229Q360.375 92.67917 360.5625 92.35104Q360.75 92.02292 360.75 91.60104Q360.75 91.11667 360.57812 90.78854Q360.42188 90.44479 360.09375 90.27292Q359.76562 90.10104 359.26562 90.10104Q358.79688 90.10104 358.45312 90.28854Q358.10938 90.46042 357.90625 90.78854Q357.71875 91.11667 357.71875 91.56979L356.625 91.56979Q356.625 90.91354 356.95312 90.38229Q357.28125 89.85104 357.875 89.53854Q358.46875 89.21042 359.26562 89.21042Q360.03125 89.21042 360.60938 89.49167Q361.1875 89.75729 361.51562 90.30417Q361.84375 90.83542 361.84375 91.63229Q361.84375 91.96042 361.6875 92.31979Q361.53125 92.67917 361.21875 93.00729Q360.90625 93.31979 360.40625 93.52292Q359.92188 93.72604 359.21875 93.72604L358.29688 93.72604L358.29688 93.06979ZM358.29688 93.96042L358.29688 93.30417L359.21875 93.30417Q360.03125 93.30417 360.5625 93.50729Q361.09375 93.69479 361.40625 94.02292Q361.71875 94.33542 361.84375 94.72604Q361.96875 95.10104 361.96875 95.49167Q361.96875 96.08542 361.76562 96.55417Q361.5625 97.00729 361.1875 97.33542Q360.82812 97.64792 360.32812 97.81979Q359.84375 97.99167 359.26562 97.99167Q358.70312 97.99167 358.21875 97.83542Q357.73438 97.66354 357.35938 97.36667Q356.98438 97.06979 356.76562 96.63229Q356.5625 96.17917 356.5625 95.61667L357.64062 95.61667Q357.64062 96.05417 357.82812 96.39792Q358.03125 96.72604 358.39062 96.91354Q358.76562 97.08542 359.26562 97.08542Q359.76562 97.08542 360.125 96.91354Q360.48438 96.74167 360.67188 96.39792Q360.875 96.03854 360.875 95.50729Q360.875 94.97604 360.65625 94.63229Q360.4375 94.28854 360.01562 94.13229Q359.60938 93.96042 359.0625 93.96042L358.29688 93.96042Z" fill-rule="nonzero"/><path stroke="#000000" stroke-width="1.0" stroke-linecap="butt" d="M365.0 290.0L365.0 101.0" fill-rule="nonzero"/><path fill="#000000" d="M335.64062 79.78125L336.76562 79.78125Q336.67188 80.59375 336.29688 81.234375Q335.92188 81.875 335.23438 82.25Q334.5625 82.625 333.53125 82.625Q332.78125 82.625 332.17188 82.34375Q331.5625 82.046875 331.10938 81.53125Q330.67188 81.015625 330.4375 80.296875Q330.20312 79.5625 330.20312 78.65625L330.20312 77.8125Q330.20312 76.921875 330.4375 76.1875Q330.67188 75.453125 331.125 74.9375Q331.57812 74.40625 332.20312 74.125Q332.84375 73.84375 333.625 73.84375Q334.59375 73.84375 335.26562 74.21875Q335.9375 74.578125 336.29688 75.21875Q336.67188 75.859375 336.76562 76.703125L335.64062 76.703125Q335.5625 76.109375 335.32812 75.6875Q335.10938 75.25 334.70312 75.015625Q334.29688 74.78125 333.625 74.78125Q333.0625 74.78125 332.625 75.0Q332.20312 75.203125 331.90625 75.609375Q331.625 76.0 331.46875 76.5625Q331.32812 77.125 331.32812 77.796875L331.32812 78.65625Q331.32812 79.28125 331.45312 79.84375Q331.59375 80.390625 331.85938 80.8125Q332.125 81.21875 332.54688 81.46875Q332.96875 81.703125 333.53125 81.703125Q334.25 81.703125 334.67188 81.46875Q335.10938 81.234375 335.32812 80.8125Q335.54688 80.390625 335.64062 79.78125ZM342.0625 81.421875L342.0625 78.15625Q342.0625 77.78125 341.90625 77.5Q341.76562 77.21875 341.46875 77.078125Q341.17188 76.921875 340.73438 76.921875Q340.3125 76.921875 340.0 77.0625Q339.70312 77.203125 339.53125 77.4375Q339.35938 77.65625 339.35938 77.921875L338.28125 77.921875Q338.28125 77.578125 338.45312 77.25Q338.625 76.90625 338.95312 76.640625Q339.28125 76.359375 339.75 76.203125Q340.21875 76.046875 340.79688 76.046875Q341.48438 76.046875 342.01562 76.28125Q342.54688 76.515625 342.84375 76.984375Q343.15625 77.453125 343.15625 78.15625L343.15625 81.109375Q343.15625 81.4375 343.20312 81.796875Q343.26562 82.140625 343.375 82.40625L343.375 82.5L342.23438 82.5Q342.15625 82.3125 342.10938 82.0Q342.0625 81.6875 342.0625 81.421875ZM342.25 78.65625L342.26562 79.421875L341.17188 79.421875Q340.70312 79.421875 340.34375 79.5Q339.98438 79.5625 339.73438 79.71875Q339.48438 79.859375 339.35938 80.078125Q339.23438 80.296875 339.23438 80.59375Q339.23438 80.890625 339.35938 81.140625Q339.5 81.375 339.76562 81.53125Q340.04688 81.671875 340.4375 81.671875Q340.9375 81.671875 341.3125 81.46875Q341.70312 81.25 341.92188 80.953125Q342.15625 80.640625 342.17188 80.34375L342.64062 80.875Q342.59375 81.109375 342.40625 81.421875Q342.23438 81.71875 341.92188 82.0Q341.625 82.265625 341.20312 82.453125Q340.79688 82.625 340.28125 82.625Q339.64062 82.625 339.15625 82.375Q338.67188 82.109375 338.40625 81.6875Q338.14062 81.265625 338.14062 80.734375Q338.14062 80.21875 338.32812 79.84375Q338.53125 79.453125 338.90625 79.1875Q339.28125 78.921875 339.8125 78.796875Q340.34375 78.65625 341.0 78.65625L342.25 78.65625ZM346.40625 77.15625L346.40625 82.5L345.32812 82.5L345.32812 76.15625L346.375 76.15625L346.40625 77.15625ZM348.39062 76.125L348.39062 77.125Q348.25 77.109375 348.125 77.09375Q348.01562 77.078125 347.85938 77.078125Q347.48438 77.078125 347.1875 77.203125Q346.90625 77.3125 346.70312 77.53125Q346.51562 77.734375 346.39062 78.03125Q346.28125 78.328125 346.25 78.671875L345.9375 78.84375Q345.9375 78.265625 346.04688 77.765625Q346.17188 77.265625 346.40625 76.875Q346.65625 76.484375 347.01562 76.265625Q347.39062 76.046875 347.90625 76.046875Q348.03125 76.046875 348.17188 76.078125Q348.32812 76.09375 348.39062 76.125ZM351.10938 81.84375L352.875 76.15625L354.03125 76.15625L351.48438 83.484375Q351.40625 83.71875 351.25 83.984375Q351.10938 84.265625 350.89062 84.5Q350.67188 84.75 350.35938 84.90625Q350.04688 85.0625 349.60938 85.0625Q349.48438 85.0625 349.28125 85.015625Q349.07812 84.984375 349.0 84.96875L349.0 84.09375Q349.04688 84.09375 349.14062 84.09375Q349.25 84.109375 349.28125 84.109375Q349.65625 84.109375 349.90625 84.015625Q350.17188 83.921875 350.34375 83.6875Q350.53125 83.46875 350.65625 83.078125L351.10938 81.84375ZM349.8125 76.15625L351.45312 81.078125L351.73438 82.21875L350.96875 82.625L348.625 76.15625L349.8125 76.15625ZM355.04688 79.40625L355.04688 79.265625Q355.04688 78.578125 355.23438 78.0Q355.4375 77.40625 355.8125 76.96875Q356.1875 76.53125 356.71875 76.296875Q357.25 76.046875 357.92188 76.046875Q358.57812 76.046875 359.10938 76.296875Q359.65625 76.53125 360.03125 76.96875Q360.40625 77.40625 360.60938 78.0Q360.8125 78.578125 360.8125 79.265625L360.8125 79.40625Q360.8125 80.078125 360.60938 80.671875Q360.40625 81.25 360.03125 81.6875Q359.65625 82.125 359.125 82.375Q358.59375 82.625 357.92188 82.625Q357.26562 82.625 356.71875 82.375Q356.1875 82.125 355.8125 81.6875Q355.4375 81.25 355.23438 80.671875Q355.04688 80.078125 355.04688 79.40625ZM356.125 79.265625L356.125 79.40625Q356.125 79.875 356.23438 80.296875Q356.34375 80.71875 356.5625 81.046875Q356.79688 81.359375 357.14062 81.546875Q357.48438 81.71875 357.92188 81.71875Q358.375 81.71875 358.70312 81.546875Q359.04688 81.359375 359.26562 81.046875Q359.5 80.71875 359.60938 80.296875Q359.71875 79.875 359.71875 79.40625L359.71875 79.265625Q359.71875 78.796875 359.60938 78.375Q359.5 77.953125 359.26562 77.640625Q359.04688 77.3125 358.70312 77.125Q358.375 76.9375 357.92188 76.9375Q357.46875 76.9375 357.125 77.125Q356.79688 77.3125 356.5625 77.640625Q356.34375 77.953125 356.23438 78.375Q356.125 78.796875 356.125 79.265625ZM363.40625 77.375L363.40625 84.9375L362.32812 84.9375L362.32812 76.15625L363.3125 76.15625L363.40625 77.375ZM367.6875 79.28125L367.6875 79.40625Q367.6875 80.09375 367.51562 80.6875Q367.35938 81.265625 367.04688 81.703125Q366.73438 82.140625 366.26562 82.390625Q365.8125 82.625 365.21875 82.625Q364.625 82.625 364.15625 82.421875Q363.6875 82.21875 363.35938 81.84375Q363.04688 81.453125 362.85938 80.921875Q362.67188 80.390625 362.59375 79.71875L362.59375 79.0625Q362.67188 78.359375 362.85938 77.8125Q363.04688 77.25 363.35938 76.859375Q363.6875 76.453125 364.14062 76.25Q364.60938 76.046875 365.20312 76.046875Q365.79688 76.046875 366.26562 76.28125Q366.73438 76.5 367.04688 76.9375Q367.35938 77.359375 367.51562 77.953125Q367.6875 78.546875 367.6875 79.28125ZM366.59375 79.40625L366.59375 79.28125Q366.59375 78.796875 366.48438 78.390625Q366.39062 77.96875 366.1875 77.65625Q365.98438 77.328125 365.65625 77.140625Q365.32812 76.953125 364.89062 76.953125Q364.48438 76.953125 364.17188 77.09375Q363.875 77.234375 363.65625 77.484375Q363.45312 77.71875 363.3125 78.015625Q363.1875 78.3125 363.125 78.640625L363.125 80.15625Q363.23438 80.5625 363.4375 80.921875Q363.65625 81.28125 364.0 81.5Q364.35938 81.71875 364.90625 81.71875Q365.34375 81.71875 365.65625 81.546875Q365.98438 81.359375 366.1875 81.046875Q366.39062 80.71875 366.48438 80.296875Q366.59375 79.875 366.59375 79.40625ZM370.40625 73.5L370.40625 82.5L369.32812 82.5L369.32812 73.5L370.40625 73.5ZM370.15625 79.09375L369.70312 79.078125Q369.70312 78.421875 369.89062 77.875Q370.07812 77.3125 370.42188 76.90625Q370.76562 76.5 371.23438 76.28125Q371.70312 76.046875 372.28125 76.046875Q372.75 76.046875 373.125 76.171875Q373.5 76.296875 373.76562 76.578125Q374.03125 76.84375 374.17188 77.28125Q374.3125 77.71875 374.3125 78.34375L374.3125 82.5L373.21875 82.5L373.21875 78.328125Q373.21875 77.828125 373.07812 77.53125Q372.9375 77.234375 372.65625 77.09375Q372.375 76.953125 371.95312 76.953125Q371.54688 76.953125 371.21875 77.125Q370.89062 77.296875 370.65625 77.59375Q370.42188 77.890625 370.28125 78.28125Q370.15625 78.65625 370.15625 79.09375ZM378.10938 81.84375L379.875 76.15625L381.03125 76.15625L378.48438 83.484375Q378.40625 83.71875 378.25 83.984375Q378.10938 84.265625 377.89062 84.5Q377.67188 84.75 377.35938 84.90625Q377.04688 85.0625 376.60938 85.0625Q376.48438 85.0625 376.28125 85.015625Q376.07812 84.984375 376.0 84.96875L376.0 84.09375Q376.04688 84.09375 376.14062 84.09375Q376.25 84.109375 376.28125 84.109375Q376.65625 84.109375 376.90625 84.015625Q377.17188 83.921875 377.34375 83.6875Q377.53125 83.46875 377.65625 83.078125L378.10938 81.84375ZM376.8125 76.15625L378.45312 81.078125L378.73438 82.21875L377.96875 82.625L375.625 76.15625L376.8125 76.15625ZM383.5 73.5L383.5 82.5L382.42188 82.5L382.42188 73.5L383.5 73.5ZM386.5 73.5L386.5 82.5L385.42188 82.5L385.42188 73.5L386.5 73.5ZM390.95312 82.625Q390.29688 82.625 389.75 82.40625Q389.21875 82.171875 388.82812 81.765625Q388.45312 81.34375 388.25 80.78125Q388.04688 80.21875 388.04688 79.546875L388.04688 79.3125Q388.04688 78.53125 388.26562 77.921875Q388.5 77.3125 388.89062 76.890625Q389.28125 76.46875 389.78125 76.265625Q390.28125 76.046875 390.8125 76.046875Q391.5 76.046875 391.98438 76.28125Q392.48438 76.515625 392.79688 76.9375Q393.125 77.34375 393.26562 77.921875Q393.42188 78.484375 393.42188 79.140625L393.42188 79.640625L388.6875 79.640625L388.6875 78.75L392.34375 78.75L392.34375 78.671875Q392.3125 78.25 392.15625 77.859375Q392.01562 77.453125 391.6875 77.203125Q391.375 76.9375 390.8125 76.9375Q390.45312 76.9375 390.14062 77.09375Q389.82812 77.25 389.59375 77.5625Q389.375 77.859375 389.25 78.296875Q389.14062 78.734375 389.14062 79.3125L389.14062 79.546875Q389.14062 80.0 389.26562 80.40625Q389.39062 80.796875 389.625 81.09375Q389.875 81.390625 390.21875 81.5625Q390.57812 81.734375 391.01562 81.734375Q391.59375 81.734375 391.98438 81.5Q392.39062 81.265625 392.6875 80.875L393.34375 81.390625Q393.14062 81.703125 392.8125 81.984375Q392.5 82.265625 392.03125 82.453125Q391.57812 82.625 390.95312 82.625ZM395.40625 77.515625L395.40625 82.5L394.32812 82.5L394.32812 76.15625L395.35938 76.15625L395.40625 77.515625ZM395.15625 79.09375L394.70312 79.078125Q394.70312 78.421875 394.89062 77.875Q395.07812 77.3125 395.42188 76.90625Q395.76562 76.5 396.23438 76.28125Q396.70312 76.046875 397.28125 76.046875Q397.75 76.046875 398.125 76.171875Q398.5 76.296875 398.76562 76.578125Q399.03125 76.84375 399.17188 77.28125Q399.3125 77.71875 399.3125 78.34375L399.3125 82.5L398.21875 82.5L398.21875 78.328125Q398.21875 77.828125 398.07812 77.53125Q397.9375 77.234375 397.65625 77.09375Q397.375 76.953125 396.95312 76.953125Q396.54688 76.953125 396.21875 77.125Q395.89062 77.296875 395.65625 77.59375Q395.42188 77.890625 395.28125 78.28125Q395.15625 78.65625 395.15625 79.09375Z" fill-rule="nonzero"/><path stroke="#000000" stroke-width="1.0" stroke-linecap="butt" d="M365.0 290.0L529.0 195.0" fill-rule="nonzero"/><path fill="#000000" d="M530.6719 187.57812L530.6719 188.5L526.40625 188.5L526.40625 187.57812L530.6719 187.57812ZM526.625 179.96875L526.625 188.5L525.4844 188.5L525.4844 179.96875L526.625 179.96875ZM532.5 182.15625L532.5 188.5L531.4219 188.5L531.4219 182.15625L532.5 182.15625ZM531.3281 180.48438Q531.3281 180.21875 531.4844 180.03125Q531.65625 179.84375 531.96875 179.84375Q532.28125 179.84375 532.4375 180.03125Q532.6094 180.21875 532.6094 180.48438Q532.6094 180.73438 532.4375 180.92188Q532.28125 181.09375 531.96875 181.09375Q531.65625 181.09375 531.4844 180.92188Q531.3281 180.73438 531.3281 180.48438ZM535.40625 183.42188L535.40625 188.5L534.3125 188.5L534.3125 182.15625L535.34375 182.15625L535.40625 183.42188ZM535.1875 185.09375L534.6719 185.07812Q534.6875 184.42188 534.84375 183.875Q535.0156 183.3125 535.3281 182.90625Q535.65625 182.5 536.1406 182.28125Q536.625 182.04688 537.25 182.04688Q537.7031 182.04688 538.0781 182.17188Q538.4531 182.29688 538.71875 182.5625Q539.0 182.82812 539.1406 183.25Q539.2969 183.67188 539.2969 184.28125L539.2969 188.5L538.21875 188.5L538.21875 184.32812Q538.21875 183.82812 538.0469 183.53125Q537.8906 183.23438 537.5781 183.09375Q537.28125 182.95312 536.8594 182.95312Q536.3906 182.95312 536.0625 183.125Q535.7344 183.29688 535.5469 183.59375Q535.3594 183.89062 535.2656 184.28125Q535.1875 184.65625 535.1875 185.09375ZM539.2969 184.48438L538.5625 184.71875Q538.5625 184.1875 538.7344 183.71875Q538.90625 183.23438 539.21875 182.85938Q539.5469 182.48438 540.0156 182.26562Q540.4844 182.04688 541.0781 182.04688Q541.59375 182.04688 541.9844 182.1875Q542.3906 182.3125 542.65625 182.59375Q542.9219 182.875 543.0625 183.3125Q543.2031 183.73438 543.2031 184.32812L543.2031 188.5L542.125 188.5L542.125 184.32812Q542.125 183.78125 541.9531 183.5Q541.78125 183.20312 541.4844 183.07812Q541.1875 182.95312 540.7656 182.95312Q540.40625 182.95312 540.125 183.07812Q539.8594 183.20312 539.6719 183.42188Q539.4844 183.625 539.3906 183.90625Q539.2969 184.1875 539.2969 184.48438ZM545.0469 185.40625L545.0469 185.26562Q545.0469 184.57812 545.2344 184.0Q545.4375 183.40625 545.8125 182.96875Q546.1875 182.53125 546.71875 182.29688Q547.25 182.04688 547.9219 182.04688Q548.5781 182.04688 549.1094 182.29688Q549.65625 182.53125 550.03125 182.96875Q550.40625 183.40625 550.6094 184.0Q550.8125 184.57812 550.8125 185.26562L550.8125 185.40625Q550.8125 186.07812 550.6094 186.67188Q550.40625 187.25 550.03125 187.6875Q549.65625 188.125 549.125 188.375Q548.59375 188.625 547.9219 188.625Q547.2656 188.625 546.71875 188.375Q546.1875 188.125 545.8125 187.6875Q545.4375 187.25 545.2344 186.67188Q545.0469 186.07812 545.0469 185.40625ZM546.125 185.26562L546.125 185.40625Q546.125 185.875 546.2344 186.29688Q546.34375 186.71875 546.5625 187.04688Q546.7969 187.35938 547.1406 187.54688Q547.4844 187.71875 547.9219 187.71875Q548.375 187.71875 548.7031 187.54688Q549.0469 187.35938 549.2656 187.04688Q549.5 186.71875 549.6094 186.29688Q549.71875 185.875 549.71875 185.40625L549.71875 185.26562Q549.71875 184.79688 549.6094 184.375Q549.5 183.95312 549.2656 183.64062Q549.0469 183.3125 548.7031 183.125Q548.375 182.9375 547.9219 182.9375Q547.46875 182.9375 547.125 183.125Q546.7969 183.3125 546.5625 183.64062Q546.34375 183.95312 546.2344 184.375Q546.125 184.79688 546.125 185.26562ZM553.40625 183.51562L553.40625 188.5L552.3281 188.5L552.3281 182.15625L553.3594 182.15625L553.40625 183.51562ZM553.15625 185.09375L552.7031 185.07812Q552.7031 184.42188 552.8906 183.875Q553.0781 183.3125 553.4219 182.90625Q553.7656 182.5 554.2344 182.28125Q554.7031 182.04688 555.28125 182.04688Q555.75 182.04688 556.125 182.17188Q556.5 182.29688 556.7656 182.57812Q557.03125 182.84375 557.1719 183.28125Q557.3125 183.71875 557.3125 184.34375L557.3125 188.5L556.21875 188.5L556.21875 184.32812Q556.21875 183.82812 556.0781 183.53125Q555.9375 183.23438 555.65625 183.09375Q555.375 182.95312 554.9531 182.95312Q554.5469 182.95312 554.21875 183.125Q553.8906 183.29688 553.65625 183.59375Q553.4219 183.89062 553.28125 184.28125Q553.15625 184.65625 553.15625 185.09375ZM561.9531 188.625Q561.2969 188.625 560.75 188.40625Q560.21875 188.17188 559.8281 187.76562Q559.4531 187.34375 559.25 186.78125Q559.0469 186.21875 559.0469 185.54688L559.0469 185.3125Q559.0469 184.53125 559.2656 183.92188Q559.5 183.3125 559.8906 182.89062Q560.28125 182.46875 560.78125 182.26562Q561.28125 182.04688 561.8125 182.04688Q562.5 182.04688 562.9844 182.28125Q563.4844 182.51562 563.7969 182.9375Q564.125 183.34375 564.2656 183.92188Q564.4219 184.48438 564.4219 185.14062L564.4219 185.64062L559.6875 185.64062L559.6875 184.75L563.34375 184.75L563.34375 184.67188Q563.3125 184.25 563.15625 183.85938Q563.0156 183.45312 562.6875 183.20312Q562.375 182.9375 561.8125 182.9375Q561.4531 182.9375 561.1406 183.09375Q560.8281 183.25 560.59375 183.5625Q560.375 183.85938 560.25 184.29688Q560.1406 184.73438 560.1406 185.3125L560.1406 185.54688Q560.1406 186.0 560.2656 186.40625Q560.3906 186.79688 560.625 187.09375Q560.875 187.39062 561.21875 187.5625Q561.5781 187.73438 562.0156 187.73438Q562.59375 187.73438 562.9844 187.5Q563.3906 187.26562 563.6875 186.875L564.34375 187.39062Q564.1406 187.70312 563.8125 187.98438Q563.5 188.26562 563.03125 188.45312Q562.5781 188.625 561.9531 188.625ZM566.40625 183.51562L566.40625 188.5L565.3281 188.5L565.3281 182.15625L566.3594 182.15625L566.40625 183.51562ZM566.15625 185.09375L565.7031 185.07812Q565.7031 184.42188 565.8906 183.875Q566.0781 183.3125 566.4219 182.90625Q566.7656 182.5 567.2344 182.28125Q567.7031 182.04688 568.28125 182.04688Q568.75 182.04688 569.125 182.17188Q569.5 182.29688 569.7656 182.57812Q570.03125 182.84375 570.1719 183.28125Q570.3125 183.71875 570.3125 184.34375L570.3125 188.5L569.21875 188.5L569.21875 184.32812Q569.21875 183.82812 569.0781 183.53125Q568.9375 183.23438 568.65625 183.09375Q568.375 182.95312 567.9531 182.95312Q567.5469 182.95312 567.21875 183.125Q566.8906 183.29688 566.65625 183.59375Q566.4219 183.89062 566.28125 184.28125Q566.15625 184.65625 566.15625 185.09375Z" fill-rule="nonzero"/><path stroke="#000000" stroke-width="1.0" stroke-linecap="butt" d="M365.0 290.0L529.0 385.0" fill-rule="nonzero"/><path fill="#000000" d="M529.84375 391.96875L530.9375 391.96875L533.7344 398.92188L536.53125 391.96875L537.625 391.96875L534.15625 400.5L533.3125 400.5L529.84375 391.96875ZM529.4844 391.96875L530.4531 391.96875L530.6094 397.17188L530.6094 400.5L529.4844 400.5L529.4844 391.96875ZM537.0156 391.96875L537.9844 391.96875L537.9844 400.5L536.8594 400.5L536.8594 397.17188L537.0156 391.96875ZM541.1094 399.84375L542.875 394.15625L544.03125 394.15625L541.4844 401.48438Q541.40625 401.71875 541.25 401.98438Q541.1094 402.26562 540.8906 402.5Q540.6719 402.75 540.3594 402.90625Q540.0469 403.0625 539.6094 403.0625Q539.4844 403.0625 539.28125 403.01562Q539.0781 402.98438 539.0 402.96875L539.0 402.09375Q539.0469 402.09375 539.1406 402.09375Q539.25 402.10938 539.28125 402.10938Q539.65625 402.10938 539.90625 402.01562Q540.1719 401.92188 540.34375 401.6875Q540.53125 401.46875 540.65625 401.07812L541.1094 399.84375ZM539.8125 394.15625L541.4531 399.07812L541.7344 400.21875L540.96875 400.625L538.625 394.15625L539.8125 394.15625ZM546.40625 395.15625L546.40625 400.5L545.3281 400.5L545.3281 394.15625L546.375 394.15625L546.40625 395.15625ZM548.3906 394.125L548.3906 395.125Q548.25 395.10938 548.125 395.09375Q548.0156 395.07812 547.8594 395.07812Q547.4844 395.07812 547.1875 395.20312Q546.90625 395.3125 546.7031 395.53125Q546.5156 395.73438 546.3906 396.03125Q546.28125 396.32812 546.25 396.67188L545.9375 396.84375Q545.9375 396.26562 546.0469 395.76562Q546.1719 395.26562 546.40625 394.875Q546.65625 394.48438 547.0156 394.26562Q547.3906 394.04688 547.90625 394.04688Q548.03125 394.04688 548.1719 394.07812Q548.3281 394.09375 548.3906 394.125ZM551.8594 399.71875Q552.25 399.71875 552.5781 399.5625Q552.90625 399.40625 553.1094 399.14062Q553.3281 398.85938 553.3594 398.5L554.3906 398.5Q554.3594 399.0625 554.0 399.54688Q553.65625 400.03125 553.09375 400.32812Q552.53125 400.625 551.8594 400.625Q551.15625 400.625 550.625 400.375Q550.09375 400.10938 549.7344 399.67188Q549.3906 399.23438 549.21875 398.67188Q549.0469 398.09375 549.0469 397.45312L549.0469 397.20312Q549.0469 396.5625 549.21875 396.0Q549.3906 395.42188 549.7344 394.98438Q550.09375 394.54688 550.625 394.29688Q551.15625 394.04688 551.8594 394.04688Q552.6094 394.04688 553.15625 394.34375Q553.71875 394.64062 554.03125 395.17188Q554.3594 395.6875 554.3906 396.34375L553.3594 396.34375Q553.3281 395.95312 553.1406 395.64062Q552.9531 395.3125 552.625 395.125Q552.2969 394.9375 551.8594 394.9375Q551.3594 394.9375 551.0156 395.14062Q550.6875 395.32812 550.4844 395.65625Q550.2969 395.98438 550.2031 396.39062Q550.125 396.79688 550.125 397.20312L550.125 397.45312Q550.125 397.875 550.2031 398.28125Q550.2969 398.67188 550.4844 399.0Q550.6875 399.32812 551.0156 399.53125Q551.3594 399.71875 551.8594 399.71875ZM557.9531 400.625Q557.2969 400.625 556.75 400.40625Q556.21875 400.17188 555.8281 399.76562Q555.4531 399.34375 555.25 398.78125Q555.0469 398.21875 555.0469 397.54688L555.0469 397.3125Q555.0469 396.53125 555.2656 395.92188Q555.5 395.3125 555.8906 394.89062Q556.28125 394.46875 556.78125 394.26562Q557.28125 394.04688 557.8125 394.04688Q558.5 394.04688 558.9844 394.28125Q559.4844 394.51562 559.7969 394.9375Q560.125 395.34375 560.2656 395.92188Q560.4219 396.48438 560.4219 397.14062L560.4219 397.64062L555.6875 397.64062L555.6875 396.75L559.34375 396.75L559.34375 396.67188Q559.3125 396.25 559.15625 395.85938Q559.0156 395.45312 558.6875 395.20312Q558.375 394.9375 557.8125 394.9375Q557.4531 394.9375 557.1406 395.09375Q556.8281 395.25 556.59375 395.5625Q556.375 395.85938 556.25 396.29688Q556.1406 396.73438 556.1406 397.3125L556.1406 397.54688Q556.1406 398.0 556.2656 398.40625Q556.3906 398.79688 556.625 399.09375Q556.875 399.39062 557.21875 399.5625Q557.5781 399.73438 558.0156 399.73438Q558.59375 399.73438 558.9844 399.5Q559.3906 399.26562 559.6875 398.875L560.34375 399.39062Q560.1406 399.70312 559.8125 399.98438Q559.5 400.26562 559.03125 400.45312Q558.5781 400.625 557.9531 400.625ZM562.40625 395.51562L562.40625 400.5L561.3281 400.5L561.3281 394.15625L562.3594 394.15625L562.40625 395.51562ZM562.15625 397.09375L561.7031 397.07812Q561.7031 396.42188 561.8906 395.875Q562.0781 395.3125 562.4219 394.90625Q562.7656 394.5 563.2344 394.28125Q563.7031 394.04688 564.28125 394.04688Q564.75 394.04688 565.125 394.17188Q565.5 394.29688 565.7656 394.57812Q566.03125 394.84375 566.1719 395.28125Q566.3125 395.71875 566.3125 396.34375L566.3125 400.5L565.21875 400.5L565.21875 396.32812Q565.21875 395.82812 565.0781 395.53125Q564.9375 395.23438 564.65625 395.09375Q564.375 394.95312 563.9531 394.95312Q563.5469 394.95312 563.21875 395.125Q562.8906 395.29688 562.65625 395.59375Q562.4219 395.89062 562.28125 396.28125Q562.15625 396.65625 562.15625 397.09375Z" fill-rule="nonzero"/><path stroke="#000000" stroke-width="1.0" stroke-linecap="butt" d="M365.0 290.0L365.0 479.0" fill-rule="nonzero"/><path fill="#000000" d="M342.125 497.96875L342.125 506.5L340.98438 506.5L340.98438 497.96875L342.125 497.96875ZM345.70312 501.8125L345.70312 502.73438L341.875 502.73438L341.875 501.8125L345.70312 501.8125ZM346.28125 497.96875L346.28125 498.89062L341.875 498.89062L341.875 497.96875L346.28125 497.96875ZM351.5625 505.42188L351.5625 502.15625Q351.5625 501.78125 351.40625 501.5Q351.26562 501.21875 350.96875 501.07812Q350.67188 500.92188 350.23438 500.92188Q349.8125 500.92188 349.5 501.0625Q349.20312 501.20312 349.03125 501.4375Q348.85938 501.65625 348.85938 501.92188L347.78125 501.92188Q347.78125 501.57812 347.95312 501.25Q348.125 500.90625 348.45312 500.64062Q348.78125 500.35938 349.25 500.20312Q349.71875 500.04688 350.29688 500.04688Q350.98438 500.04688 351.51562 500.28125Q352.04688 500.51562 352.34375 500.98438Q352.65625 501.45312 352.65625 502.15625L352.65625 505.10938Q352.65625 505.4375 352.70312 505.79688Q352.76562 506.14062 352.875 506.40625L352.875 506.5L351.73438 506.5Q351.65625 506.3125 351.60938 506.0Q351.5625 505.6875 351.5625 505.42188ZM351.75 502.65625L351.76562 503.42188L350.67188 503.42188Q350.20312 503.42188 349.84375 503.5Q349.48438 503.5625 349.23438 503.71875Q348.98438 503.85938 348.85938 504.07812Q348.73438 504.29688 348.73438 504.59375Q348.73438 504.89062 348.85938 505.14062Q349.0 505.375 349.26562 505.53125Q349.54688 505.67188 349.9375 505.67188Q350.4375 505.67188 350.8125 505.46875Q351.20312 505.25 351.42188 504.95312Q351.65625 504.64062 351.67188 504.34375L352.14062 504.875Q352.09375 505.10938 351.90625 505.42188Q351.73438 505.71875 351.42188 506.0Q351.125 506.26562 350.70312 506.45312Q350.29688 506.625 349.78125 506.625Q349.14062 506.625 348.65625 506.375Q348.17188 506.10938 347.90625 505.6875Q347.64062 505.26562 347.64062 504.73438Q347.64062 504.21875 347.82812 503.84375Q348.03125 503.45312 348.40625 503.1875Q348.78125 502.92188 349.3125 502.79688Q349.84375 502.65625 350.5 502.65625L351.75 502.65625ZM355.90625 501.15625L355.90625 506.5L354.82812 506.5L354.82812 500.15625L355.875 500.15625L355.90625 501.15625ZM357.89062 500.125L357.89062 501.125Q357.75 501.10938 357.625 501.09375Q357.51562 501.07812 357.35938 501.07812Q356.98438 501.07812 356.6875 501.20312Q356.40625 501.3125 356.20312 501.53125Q356.01562 501.73438 355.89062 502.03125Q355.78125 502.32812 355.75 502.67188L355.4375 502.84375Q355.4375 502.26562 355.54688 501.76562Q355.67188 501.26562 355.90625 500.875Q356.15625 500.48438 356.51562 500.26562Q356.89062 500.04688 357.40625 500.04688Q357.53125 500.04688 357.67188 500.07812Q357.82812 500.09375 357.89062 500.125ZM359.90625 501.51562L359.90625 506.5L358.82812 506.5L358.82812 500.15625L359.85938 500.15625L359.90625 501.51562ZM359.65625 503.09375L359.20312 503.07812Q359.20312 502.42188 359.39062 501.875Q359.57812 501.3125 359.92188 500.90625Q360.26562 500.5 360.73438 500.28125Q361.20312 500.04688 361.78125 500.04688Q362.25 500.04688 362.625 500.17188Q363.0 500.29688 363.26562 500.57812Q363.53125 500.84375 363.67188 501.28125Q363.8125 501.71875 363.8125 502.34375L363.8125 506.5L362.71875 506.5L362.71875 502.32812Q362.71875 501.82812 362.57812 501.53125Q362.4375 501.23438 362.15625 501.09375Q361.875 500.95312 361.45312 500.95312Q361.04688 500.95312 360.71875 501.125Q360.39062 501.29688 360.15625 501.59375Q359.92188 501.89062 359.78125 502.28125Q359.65625 502.65625 359.65625 503.09375ZM368.45312 506.625Q367.79688 506.625 367.25 506.40625Q366.71875 506.17188 366.32812 505.76562Q365.95312 505.34375 365.75 504.78125Q365.54688 504.21875 365.54688 503.54688L365.54688 503.3125Q365.54688 502.53125 365.76562 501.92188Q366.0 501.3125 366.39062 500.89062Q366.78125 500.46875 367.28125 500.26562Q367.78125 500.04688 368.3125 500.04688Q369.0 500.04688 369.48438 500.28125Q369.98438 500.51562 370.29688 500.9375Q370.625 501.34375 370.76562 501.92188Q370.92188 502.48438 370.92188 503.14062L370.92188 503.64062L366.1875 503.64062L366.1875 502.75L369.84375 502.75L369.84375 502.67188Q369.8125 502.25 369.65625 501.85938Q369.51562 501.45312 369.1875 501.20312Q368.875 500.9375 368.3125 500.9375Q367.95312 500.9375 367.64062 501.09375Q367.32812 501.25 367.09375 501.5625Q366.875 501.85938 366.75 502.29688Q366.64062 502.73438 366.64062 503.3125L366.64062 503.54688Q366.64062 504.0 366.76562 504.40625Q366.89062 504.79688 367.125 505.09375Q367.375 505.39062 367.71875 505.5625Q368.07812 505.73438 368.51562 505.73438Q369.09375 505.73438 369.48438 505.5Q369.89062 505.26562 370.1875 504.875L370.84375 505.39062Q370.64062 505.70312 370.3125 505.98438Q370.0 506.26562 369.53125 506.45312Q369.07812 506.625 368.45312 506.625ZM375.51562 504.8125Q375.51562 504.57812 375.40625 504.375Q375.3125 504.17188 375.0 504.01562Q374.6875 503.84375 374.0625 503.71875Q373.53125 503.60938 373.10938 503.46875Q372.6875 503.3125 372.39062 503.09375Q372.09375 502.875 371.9375 502.57812Q371.78125 502.28125 371.78125 501.89062Q371.78125 501.51562 371.9375 501.1875Q372.10938 500.84375 372.40625 500.59375Q372.71875 500.32812 373.15625 500.1875Q373.59375 500.04688 374.125 500.04688Q374.89062 500.04688 375.42188 500.3125Q375.96875 500.57812 376.25 501.03125Q376.53125 501.48438 376.53125 502.01562L375.45312 502.01562Q375.45312 501.76562 375.29688 501.51562Q375.14062 501.26562 374.84375 501.10938Q374.54688 500.9375 374.125 500.9375Q373.67188 500.9375 373.39062 501.07812Q373.10938 501.20312 372.98438 501.42188Q372.85938 501.625 372.85938 501.85938Q372.85938 502.04688 372.92188 502.1875Q372.98438 502.3125 373.14062 502.4375Q373.29688 502.54688 373.57812 502.65625Q373.875 502.75 374.32812 502.84375Q375.10938 503.01562 375.60938 503.26562Q376.10938 503.51562 376.35938 503.875Q376.60938 504.21875 376.60938 504.73438Q376.60938 505.15625 376.42188 505.5Q376.25 505.84375 375.92188 506.09375Q375.60938 506.34375 375.15625 506.48438Q374.70312 506.625 374.15625 506.625Q373.3125 506.625 372.73438 506.32812Q372.15625 506.01562 371.85938 505.54688Q371.5625 505.0625 371.5625 504.54688L372.64062 504.54688Q372.67188 504.98438 372.90625 505.25Q373.14062 505.51562 373.46875 505.625Q373.8125 505.71875 374.15625 505.71875Q374.59375 505.71875 374.89062 505.60938Q375.20312 505.48438 375.35938 505.28125Q375.51562 505.07812 375.51562 504.8125ZM380.45312 506.625Q379.79688 506.625 379.25 506.40625Q378.71875 506.17188 378.32812 505.76562Q377.95312 505.34375 377.75 504.78125Q377.54688 504.21875 377.54688 503.54688L377.54688 503.3125Q377.54688 502.53125 377.76562 501.92188Q378.0 501.3125 378.39062 500.89062Q378.78125 500.46875 379.28125 500.26562Q379.78125 500.04688 380.3125 500.04688Q381.0 500.04688 381.48438 500.28125Q381.98438 500.51562 382.29688 500.9375Q382.625 501.34375 382.76562 501.92188Q382.92188 502.48438 382.92188 503.14062L382.92188 503.64062L378.1875 503.64062L378.1875 502.75L381.84375 502.75L381.84375 502.67188Q381.8125 502.25 381.65625 501.85938Q381.51562 501.45312 381.1875 501.20312Q380.875 500.9375 380.3125 500.9375Q379.95312 500.9375 379.64062 501.09375Q379.32812 501.25 379.09375 501.5625Q378.875 501.85938 378.75 502.29688Q378.64062 502.73438 378.64062 503.3125L378.64062 503.54688Q378.64062 504.0 378.76562 504.40625Q378.89062 504.79688 379.125 505.09375Q379.375 505.39062 379.71875 505.5625Q380.07812 505.73438 380.51562 505.73438Q381.09375 505.73438 381.48438 505.5Q381.89062 505.26562 382.1875 504.875L382.84375 505.39062Q382.64062 505.70312 382.3125 505.98438Q382.0 506.26562 381.53125 506.45312Q381.07812 506.625 380.45312 506.625ZM384.90625 501.51562L384.90625 506.5L383.82812 506.5L383.82812 500.15625L384.85938 500.15625L384.90625 501.51562ZM384.65625 503.09375L384.20312 503.07812Q384.20312 502.42188 384.39062 501.875Q384.57812 501.3125 384.92188 500.90625Q385.26562 500.5 385.73438 500.28125Q386.20312 500.04688 386.78125 500.04688Q387.25 500.04688 387.625 500.17188Q388.0 500.29688 388.26562 500.57812Q388.53125 500.84375 388.67188 501.28125Q388.8125 501.71875 388.8125 502.34375L388.8125 506.5L387.71875 506.5L387.71875 502.32812Q387.71875 501.82812 387.57812 501.53125Q387.4375 501.23438 387.15625 501.09375Q386.875 500.95312 386.45312 500.95312Q386.04688 500.95312 385.71875 501.125Q385.39062 501.29688 385.15625 501.59375Q384.92188 501.89062 384.78125 502.28125Q384.65625 502.65625 384.65625 503.09375Z" fill-rule="nonzero"/><path stroke="#000000" stroke-width="1.0" stroke-linecap="butt" d="M365.0 290.0L201.0 385.0" fill-rule="nonzero"/><path fill="#000000" d="M163.5625 395.64062L163.5625 396.5625L158.95312 396.5625L158.95312 395.64062L163.5625 395.64062ZM159.125 391.96875L159.125 400.5L157.98438 400.5L157.98438 391.96875L159.125 391.96875ZM164.54688 391.96875L164.54688 400.5L163.42188 400.5L163.42188 391.96875L164.54688 391.96875ZM170.70312 399.03125L170.70312 394.15625L171.79688 394.15625L171.79688 400.5L170.76562 400.5L170.70312 399.03125ZM170.90625 397.70312L171.35938 397.6875Q171.35938 398.3125 171.21875 398.85938Q171.09375 399.39062 170.79688 399.78125Q170.51562 400.17188 170.03125 400.40625Q169.5625 400.625 168.89062 400.625Q168.42188 400.625 168.03125 400.48438Q167.65625 400.34375 167.375 400.0625Q167.10938 399.78125 166.95312 399.32812Q166.79688 398.875 166.79688 398.25L166.79688 394.15625L167.89062 394.15625L167.89062 398.26562Q167.89062 398.6875 167.98438 398.96875Q168.07812 399.25 168.25 399.40625Q168.42188 399.5625 168.625 399.64062Q168.82812 399.70312 169.04688 399.70312Q169.75 399.70312 170.14062 399.4375Q170.54688 399.15625 170.71875 398.70312Q170.90625 398.25 170.90625 397.70312ZM174.90625 395.42188L174.90625 400.5L173.8125 400.5L173.8125 394.15625L174.84375 394.15625L174.90625 395.42188ZM174.6875 397.09375L174.17188 397.07812Q174.1875 396.42188 174.34375 395.875Q174.51562 395.3125 174.82812 394.90625Q175.15625 394.5 175.64062 394.28125Q176.125 394.04688 176.75 394.04688Q177.20312 394.04688 177.57812 394.17188Q177.95312 394.29688 178.21875 394.5625Q178.5 394.82812 178.64062 395.25Q178.79688 395.67188 178.79688 396.28125L178.79688 400.5L177.71875 400.5L177.71875 396.32812Q177.71875 395.82812 177.54688 395.53125Q177.39062 395.23438 177.07812 395.09375Q176.78125 394.95312 176.35938 394.95312Q175.89062 394.95312 175.5625 395.125Q175.23438 395.29688 175.04688 395.59375Q174.85938 395.89062 174.76562 396.28125Q174.6875 396.65625 174.6875 397.09375ZM178.79688 396.48438L178.0625 396.71875Q178.0625 396.1875 178.23438 395.71875Q178.40625 395.23438 178.71875 394.85938Q179.04688 394.48438 179.51562 394.26562Q179.98438 394.04688 180.57812 394.04688Q181.09375 394.04688 181.48438 394.1875Q181.89062 394.3125 182.15625 394.59375Q182.42188 394.875 182.5625 395.3125Q182.70312 395.73438 182.70312 396.32812L182.70312 400.5L181.625 400.5L181.625 396.32812Q181.625 395.78125 181.45312 395.5Q181.28125 395.20312 180.98438 395.07812Q180.6875 394.95312 180.26562 394.95312Q179.90625 394.95312 179.625 395.07812Q179.35938 395.20312 179.17188 395.42188Q178.98438 395.625 178.89062 395.90625Q178.79688 396.1875 178.79688 396.48438ZM188.70312 399.03125L188.70312 394.15625L189.79688 394.15625L189.79688 400.5L188.76562 400.5L188.70312 399.03125ZM188.90625 397.70312L189.35938 397.6875Q189.35938 398.3125 189.21875 398.85938Q189.09375 399.39062 188.79688 399.78125Q188.51562 400.17188 188.03125 400.40625Q187.5625 400.625 186.89062 400.625Q186.42188 400.625 186.03125 400.48438Q185.65625 400.34375 185.375 400.0625Q185.10938 399.78125 184.95312 399.32812Q184.79688 398.875 184.79688 398.25L184.79688 394.15625L185.89062 394.15625L185.89062 398.26562Q185.89062 398.6875 185.98438 398.96875Q186.07812 399.25 186.25 399.40625Q186.42188 399.5625 186.625 399.64062Q186.82812 399.70312 187.04688 399.70312Q187.75 399.70312 188.14062 399.4375Q188.54688 399.15625 188.71875 398.70312Q188.90625 398.25 188.90625 397.70312ZM193.0 391.5L193.0 400.5L191.92188 400.5L191.92188 391.5L193.0 391.5ZM197.45312 400.625Q196.79688 400.625 196.25 400.40625Q195.71875 400.17188 195.32812 399.76562Q194.95312 399.34375 194.75 398.78125Q194.54688 398.21875 194.54688 397.54688L194.54688 397.3125Q194.54688 396.53125 194.76562 395.92188Q195.0 395.3125 195.39062 394.89062Q195.78125 394.46875 196.28125 394.26562Q196.78125 394.04688 197.3125 394.04688Q198.0 394.04688 198.48438 394.28125Q198.98438 394.51562 199.29688 394.9375Q199.625 395.34375 199.76562 395.92188Q199.92188 396.48438 199.92188 397.14062L199.92188 397.64062L195.1875 397.64062L195.1875 396.75L198.84375 396.75L198.84375 396.67188Q198.8125 396.25 198.65625 395.85938Q198.51562 395.45312 198.1875 395.20312Q197.875 394.9375 197.3125 394.9375Q196.95312 394.9375 196.64062 395.09375Q196.32812 395.25 196.09375 395.5625Q195.875 395.85938 195.75 396.29688Q195.64062 396.73438 195.64062 397.3125L195.64062 397.54688Q195.64062 398.0 195.76562 398.40625Q195.89062 398.79688 196.125 399.09375Q196.375 399.39062 196.71875 399.5625Q197.07812 399.73438 197.51562 399.73438Q198.09375 399.73438 198.48438 399.5Q198.89062 399.26562 199.1875 398.875L199.84375 399.39062Q199.64062 399.70312 199.3125 399.98438Q199.0 400.26562 198.53125 400.45312Q198.07812 400.625 197.45312 400.625ZM201.90625 395.51562L201.90625 400.5L200.82812 400.5L200.82812 394.15625L201.85938 394.15625L201.90625 395.51562ZM201.65625 397.09375L201.20312 397.07812Q201.20312 396.42188 201.39062 395.875Q201.57812 395.3125 201.92188 394.90625Q202.26562 394.5 202.73438 394.28125Q203.20312 394.04688 203.78125 394.04688Q204.25 394.04688 204.625 394.17188Q205.0 394.29688 205.26562 394.57812Q205.53125 394.84375 205.67188 395.28125Q205.8125 395.71875 205.8125 396.34375L205.8125 400.5L204.71875 400.5L204.71875 396.32812Q204.71875 395.82812 204.57812 395.53125Q204.4375 395.23438 204.15625 395.09375Q203.875 394.95312 203.45312 394.95312Q203.04688 394.95312 202.71875 395.125Q202.39062 395.29688 202.15625 395.59375Q201.92188 395.89062 201.78125 396.28125Q201.65625 396.65625 201.65625 397.09375Z" fill-rule="nonzero"/><path stroke="#000000" stroke-width="1.0" stroke-linecap="butt" d="M365.0 290.0L201.0 195.0" fill-rule="nonzero"/><path fill="#000000" d="M164.03125 186.34375Q164.03125 186.04688 163.9375 185.8125Q163.85938 185.57812 163.625 185.39062Q163.40625 185.20312 163.0 185.03125Q162.60938 184.85938 162.01562 184.6875Q161.375 184.5 160.85938 184.28125Q160.35938 184.04688 159.98438 183.75Q159.625 183.4375 159.4375 183.0625Q159.25 182.67188 159.25 182.17188Q159.25 181.67188 159.45312 181.25Q159.65625 180.82812 160.03125 180.51562Q160.42188 180.20312 160.95312 180.03125Q161.48438 179.84375 162.14062 179.84375Q163.10938 179.84375 163.78125 180.21875Q164.45312 180.57812 164.79688 181.17188Q165.15625 181.76562 165.15625 182.42188L164.03125 182.42188Q164.03125 181.95312 163.8125 181.57812Q163.60938 181.20312 163.1875 181.0Q162.78125 180.78125 162.14062 180.78125Q161.54688 180.78125 161.14062 180.96875Q160.75 181.14062 160.5625 181.45312Q160.375 181.76562 160.375 182.15625Q160.375 182.42188 160.48438 182.65625Q160.60938 182.875 160.84375 183.0625Q161.09375 183.25 161.46875 183.40625Q161.84375 183.5625 162.375 183.70312Q163.09375 183.90625 163.625 184.17188Q164.15625 184.42188 164.5 184.73438Q164.84375 185.04688 165.0 185.4375Q165.17188 185.82812 165.17188 186.32812Q165.17188 186.85938 164.95312 187.28125Q164.75 187.70312 164.35938 188.0Q163.96875 188.29688 163.42188 188.46875Q162.875 188.625 162.20312 188.625Q161.60938 188.625 161.03125 188.45312Q160.46875 188.28125 160.0 187.95312Q159.53125 187.625 159.25 187.15625Q158.96875 186.67188 158.96875 186.03125L160.09375 186.03125Q160.09375 186.46875 160.26562 186.78125Q160.4375 187.09375 160.73438 187.29688Q161.03125 187.5 161.40625 187.60938Q161.78125 187.70312 162.20312 187.70312Q162.79688 187.70312 163.20312 187.54688Q163.60938 187.375 163.8125 187.07812Q164.03125 186.76562 164.03125 186.34375ZM166.04688 185.40625L166.04688 185.26562Q166.04688 184.57812 166.23438 184.0Q166.4375 183.40625 166.8125 182.96875Q167.1875 182.53125 167.71875 182.29688Q168.25 182.04688 168.92188 182.04688Q169.57812 182.04688 170.10938 182.29688Q170.65625 182.53125 171.03125 182.96875Q171.40625 183.40625 171.60938 184.0Q171.8125 184.57812 171.8125 185.26562L171.8125 185.40625Q171.8125 186.07812 171.60938 186.67188Q171.40625 187.25 171.03125 187.6875Q170.65625 188.125 170.125 188.375Q169.59375 188.625 168.92188 188.625Q168.26562 188.625 167.71875 188.375Q167.1875 188.125 166.8125 187.6875Q166.4375 187.25 166.23438 186.67188Q166.04688 186.07812 166.04688 185.40625ZM167.125 185.26562L167.125 185.40625Q167.125 185.875 167.23438 186.29688Q167.34375 186.71875 167.5625 187.04688Q167.79688 187.35938 168.14062 187.54688Q168.48438 187.71875 168.92188 187.71875Q169.375 187.71875 169.70312 187.54688Q170.04688 187.35938 170.26562 187.04688Q170.5 186.71875 170.60938 186.29688Q170.71875 185.875 170.71875 185.40625L170.71875 185.26562Q170.71875 184.79688 170.60938 184.375Q170.5 183.95312 170.26562 183.64062Q170.04688 183.3125 169.70312 183.125Q169.375 182.9375 168.92188 182.9375Q168.46875 182.9375 168.125 183.125Q167.79688 183.3125 167.5625 183.64062Q167.34375 183.95312 167.23438 184.375Q167.125 184.79688 167.125 185.26562ZM174.40625 183.51562L174.40625 188.5L173.32812 188.5L173.32812 182.15625L174.35938 182.15625L174.40625 183.51562ZM174.15625 185.09375L173.70312 185.07812Q173.70312 184.42188 173.89062 183.875Q174.07812 183.3125 174.42188 182.90625Q174.76562 182.5 175.23438 182.28125Q175.70312 182.04688 176.28125 182.04688Q176.75 182.04688 177.125 182.17188Q177.5 182.29688 177.76562 182.57812Q178.03125 182.84375 178.17188 183.28125Q178.3125 183.71875 178.3125 184.34375L178.3125 188.5L177.21875 188.5L177.21875 184.32812Q177.21875 183.82812 177.07812 183.53125Q176.9375 183.23438 176.65625 183.09375Q176.375 182.95312 175.95312 182.95312Q175.54688 182.95312 175.21875 183.125Q174.89062 183.29688 174.65625 183.59375Q174.42188 183.89062 174.28125 184.28125Q174.15625 184.65625 174.15625 185.09375ZM184.01562 186.8125Q184.01562 186.57812 183.90625 186.375Q183.8125 186.17188 183.5 186.01562Q183.1875 185.84375 182.5625 185.71875Q182.03125 185.60938 181.60938 185.46875Q181.1875 185.3125 180.89062 185.09375Q180.59375 184.875 180.4375 184.57812Q180.28125 184.28125 180.28125 183.89062Q180.28125 183.51562 180.4375 183.1875Q180.60938 182.84375 180.90625 182.59375Q181.21875 182.32812 181.65625 182.1875Q182.09375 182.04688 182.625 182.04688Q183.39062 182.04688 183.92188 182.3125Q184.46875 182.57812 184.75 183.03125Q185.03125 183.48438 185.03125 184.01562L183.95312 184.01562Q183.95312 183.76562 183.79688 183.51562Q183.64062 183.26562 183.34375 183.10938Q183.04688 182.9375 182.625 182.9375Q182.17188 182.9375 181.89062 183.07812Q181.60938 183.20312 181.48438 183.42188Q181.35938 183.625 181.35938 183.85938Q181.35938 184.04688 181.42188 184.1875Q181.48438 184.3125 181.64062 184.4375Q181.79688 184.54688 182.07812 184.65625Q182.375 184.75 182.82812 184.84375Q183.60938 185.01562 184.10938 185.26562Q184.60938 185.51562 184.85938 185.875Q185.10938 186.21875 185.10938 186.73438Q185.10938 187.15625 184.92188 187.5Q184.75 187.84375 184.42188 188.09375Q184.10938 188.34375 183.65625 188.48438Q183.20312 188.625 182.65625 188.625Q181.8125 188.625 181.23438 188.32812Q180.65625 188.01562 180.35938 187.54688Q180.0625 187.0625 180.0625 186.54688L181.14062 186.54688Q181.17188 186.98438 181.40625 187.25Q181.64062 187.51562 181.96875 187.625Q182.3125 187.71875 182.65625 187.71875Q183.09375 187.71875 183.39062 187.60938Q183.70312 187.48438 183.85938 187.28125Q184.01562 187.07812 184.01562 186.8125ZM188.98438 182.15625L188.98438 182.98438L185.54688 182.98438L185.54688 182.15625L188.98438 182.15625ZM186.71875 180.625L187.79688 180.625L187.79688 186.92188Q187.79688 187.25 187.89062 187.42188Q188.0 187.57812 188.15625 187.64062Q188.3125 187.6875 188.5 187.6875Q188.625 187.6875 188.76562 187.65625Q188.92188 187.625 189.0 187.60938L189.01562 188.5Q188.875 188.54688 188.67188 188.57812Q188.46875 188.625 188.17188 188.625Q187.78125 188.625 187.4375 188.46875Q187.10938 188.29688 186.90625 187.9375Q186.71875 187.5625 186.71875 186.92188L186.71875 180.625ZM191.5 182.15625L191.5 188.5L190.42188 188.5L190.42188 182.15625L191.5 182.15625ZM190.32812 180.48438Q190.32812 180.21875 190.48438 180.03125Q190.65625 179.84375 190.96875 179.84375Q191.28125 179.84375 191.4375 180.03125Q191.60938 180.21875 191.60938 180.48438Q191.60938 180.73438 191.4375 180.92188Q191.28125 181.09375 190.96875 181.09375Q190.65625 181.09375 190.48438 180.92188Q190.32812 180.73438 190.32812 180.48438ZM197.4375 182.15625L198.42188 182.15625L198.42188 188.35938Q198.42188 189.20312 198.07812 189.79688Q197.73438 190.39062 197.125 190.6875Q196.53125 191.0 195.73438 191.0Q195.40625 191.0 194.95312 190.89062Q194.51562 190.79688 194.09375 190.54688Q193.67188 190.3125 193.39062 189.90625L193.95312 189.25Q194.35938 189.73438 194.78125 189.92188Q195.21875 190.10938 195.65625 190.10938Q196.17188 190.10938 196.54688 189.90625Q196.92188 189.71875 197.125 189.34375Q197.32812 188.96875 197.32812 188.42188L197.32812 183.54688L197.4375 182.15625ZM193.0625 185.40625L193.0625 185.28125Q193.0625 184.54688 193.23438 183.95312Q193.42188 183.35938 193.73438 182.9375Q194.0625 182.5 194.51562 182.28125Q194.98438 182.04688 195.57812 182.04688Q196.17188 182.04688 196.60938 182.25Q197.0625 182.45312 197.375 182.85938Q197.6875 183.25 197.875 183.8125Q198.0625 184.35938 198.125 185.0625L198.125 185.60938Q198.0625 186.29688 197.875 186.85938Q197.6875 187.42188 197.375 187.8125Q197.0625 188.20312 196.60938 188.42188Q196.15625 188.625 195.5625 188.625Q194.98438 188.625 194.53125 188.39062Q194.07812 188.14062 193.75 187.70312Q193.42188 187.26562 193.23438 186.6875Q193.0625 186.09375 193.0625 185.40625ZM194.15625 185.28125L194.15625 185.40625Q194.15625 185.875 194.25 186.29688Q194.34375 186.70312 194.54688 187.03125Q194.75 187.34375 195.0625 187.53125Q195.39062 187.70312 195.82812 187.70312Q196.35938 187.70312 196.70312 187.46875Q197.0625 187.23438 197.26562 186.85938Q197.48438 186.48438 197.59375 186.04688L197.59375 184.64062Q197.53125 184.3125 197.39062 184.01562Q197.26562 183.71875 197.0625 183.48438Q196.85938 183.23438 196.54688 183.09375Q196.25 182.95312 195.82812 182.95312Q195.39062 182.95312 195.0625 183.14062Q194.75 183.32812 194.54688 183.65625Q194.34375 183.96875 194.25 184.39062Q194.15625 184.79688 194.15625 185.28125ZM202.95312 188.625Q202.29688 188.625 201.75 188.40625Q201.21875 188.17188 200.82812 187.76562Q200.45312 187.34375 200.25 186.78125Q200.04688 186.21875 200.04688 185.54688L200.04688 185.3125Q200.04688 184.53125 200.26562 183.92188Q200.5 183.3125 200.89062 182.89062Q201.28125 182.46875 201.78125 182.26562Q202.28125 182.04688 202.8125 182.04688Q203.5 182.04688 203.98438 182.28125Q204.48438 182.51562 204.79688 182.9375Q205.125 183.34375 205.26562 183.92188Q205.42188 184.48438 205.42188 185.14062L205.42188 185.64062L200.6875 185.64062L200.6875 184.75L204.34375 184.75L204.34375 184.67188Q204.3125 184.25 204.15625 183.85938Q204.01562 183.45312 203.6875 183.20312Q203.375 182.9375 202.8125 182.9375Q202.45312 182.9375 202.14062 183.09375Q201.82812 183.25 201.59375 183.5625Q201.375 183.85938 201.25 184.29688Q201.14062 184.73438 201.14062 185.3125L201.14062 185.54688Q201.14062 186.0 201.26562 186.40625Q201.39062 186.79688 201.625 187.09375Q201.875 187.39062 202.21875 187.5625Q202.57812 187.73438 203.01562 187.73438Q203.59375 187.73438 203.98438 187.5Q204.39062 187.26562 204.6875 186.875L205.34375 187.39062Q205.14062 187.70312 204.8125 187.98438Q204.5 188.26562 204.03125 188.45312Q203.57812 188.625 202.95312 188.625Z" fill-rule="nonzero"/><path stroke="#000000" stroke-width="1.0" stroke-linecap="butt" d="M365.0 290.0L365.0 101.0" fill-rule="nonzero"/><path stroke="#ff0000" stroke-width="2.0" stroke-linecap="butt" stroke-opacity="0.7019608" stroke-dasharray="8.0,6.0,2.0,6.0" d="M365.0 82.0L458.0 236.0L436.0 331.0L365.0 353.0L321.0 315.0L261.0 230.0Z" fill-rule="nonzero"/><path fill="#ff0000" fill-opacity="0.7019608" d="M369.5 82.0C369.5 84.48528 367.4853 86.5 365.0 86.5C362.5147 86.5 360.5 84.48528 360.5 82.0C360.5 79.51472 362.5147 77.5 365.0 77.5C367.4853 77.5 369.5 79.51472 369.5 82.0Z" fill-rule="nonzero"/><path fill="#ff0000" fill-opacity="0.7019608" d="M462.5 236.0C462.5 238.48528 460.4853 240.5 458.0 240.5C455.5147 240.5 453.5 238.48528 453.5 236.0C453.5 233.51472 455.5147 231.5 458.0 231.5C460.4853 231.5 462.5 233.51472 462.5 236.0Z" fill-rule="nonzero"/><path fill="#ff0000" fill-opacity="0.7019608" d="M440.5 331.0C440.5 333.4853 438.4853 335.5 436.0 335.5C433.5147 335.5 431.5 333.4853 431.5 331.0C431.5 328.5147 433.5147 326.5 436.0 326.5C438.4853 326.5 440.5 328.5147 440.5 331.0Z" fill-rule="nonzero"/><path fill="#ff0000" fill-opacity="0.7019608" d="M369.5 353.0C369.5 355.4853 367.4853 357.5 365.0 357.5C362.5147 357.5 360.5 355.4853 360.5 353.0C360.5 350.5147 362.5147 348.5 365.0 348.5C367.4853 348.5 369.5 350.5147 369.5 353.0Z" fill-rule="nonzero"/><path fill="#ff0000" fill-opacity="0.7019608" d="M325.5 315.0C325.5 317.4853 323.4853 319.5 321.0 319.5C318.5147 319.5 316.5 317.4853 316.5 315.0C316.5 312.5147 318.5147 310.5 321.0 310.5C323.4853 310.5 325.5 312.5147 325.5 315.0Z" fill-rule="nonzero"/><path fill="#ff0000" fill-opacity="0.7019608" d="M265.5 230.0C265.5 232.48528 263.4853 234.5 261.0 234.5C258.5147 234.5 256.5 232.48528 256.5 230.0C256.5 227.51472 258.5147 225.5 261.0 225.5C263.4853 225.5 265.5 227.51472 265.5 230.0Z" fill-rule="nonzero"/><path fill="#757575" d="M26.86875 45.9L32.36875 31.587502L34.415627 31.587502L40.275 45.9L38.11875 45.9L36.446877 41.55625L30.4625 41.55625L28.884375 45.9L26.86875 45.9ZM31.009375 40.025L35.853127 40.025L34.36875 36.05625Q33.68125 34.24375 33.353127 33.0875Q33.071877 34.4625 32.571877 35.821877L31.009375 40.025ZM41.2125 45.9L41.2125 35.525L42.80625 35.525L42.80625 37.009377Q43.946877 35.290627 46.103127 35.290627Q47.040627 35.290627 47.821877 35.634377Q48.61875 35.9625 49.009377 36.509377Q49.4 37.05625 49.55625 37.80625Q49.65 38.30625 49.65 39.525L49.65 45.9L47.884377 45.9L47.884377 39.5875Q47.884377 38.509377 47.68125 37.978127Q47.478127 37.446877 46.946877 37.134377Q46.43125 36.821877 45.728127 36.821877Q44.603127 36.821877 43.790627 37.540627Q42.978127 38.24375 42.978127 40.228127L42.978127 45.9L41.2125 45.9ZM52.228127 33.603127L52.228127 31.587502L53.99375 31.587502L53.99375 33.603127L52.228127 33.603127ZM52.228127 45.9L52.228127 35.525L53.99375 35.525L53.99375 45.9L52.228127 45.9ZM56.2125 45.9L56.2125 35.525L57.790627 35.525L57.790627 36.978127Q58.275 36.228127 59.0875 35.759377Q59.9 35.290627 60.93125 35.290627Q62.0875 35.290627 62.821877 35.775Q63.55625 36.24375 63.86875 37.103127Q65.10313 35.290627 67.07188 35.290627Q68.61875 35.290627 69.44688 36.15Q70.275 37.009377 70.275 38.775L70.275 45.9L68.525 45.9L68.525 39.36875Q68.525 38.30625 68.35313 37.853127Q68.18125 37.384377 67.72813 37.103127Q67.29063 36.821877 66.68125 36.821877Q65.5875 36.821877 64.85313 37.55625Q64.13438 38.275 64.13438 39.86875L64.13438 45.9L62.384377 45.9L62.384377 39.165627Q62.384377 37.99375 61.946877 37.415627Q61.525 36.821877 60.540627 36.821877Q59.80625 36.821877 59.165627 37.2125Q58.540627 37.603127 58.259377 38.353127Q57.978127 39.103127 57.978127 40.525L57.978127 45.9L56.2125 45.9ZM79.99375 44.61875Q79.00938 45.446877 78.10313 45.790627Q77.19688 46.134377 76.16563 46.134377Q74.4625 46.134377 73.54063 45.30625Q72.61875 44.4625 72.61875 43.165627Q72.61875 42.4 72.9625 41.775Q73.32188 41.15 73.88438 40.775Q74.44688 40.384377 75.15 40.18125Q75.66563 40.05625 76.7125 39.915627Q78.8375 39.665627 79.8375 39.321877Q79.85313 38.9625 79.85313 38.853127Q79.85313 37.790627 79.35313 37.3375Q78.68125 36.74375 77.35313 36.74375Q76.10313 36.74375 75.50938 37.18125Q74.93125 37.61875 74.65 38.728127L72.93125 38.49375Q73.16563 37.384377 73.69688 36.7125Q74.22813 36.025 75.24375 35.665627Q76.25938 35.290627 77.60313 35.290627Q78.93125 35.290627 79.75938 35.603127Q80.5875 35.915627 80.97813 36.4Q81.36875 36.86875 81.525 37.5875Q81.61875 38.040627 81.61875 39.2125L81.61875 41.55625Q81.61875 44.009377 81.72813 44.665627Q81.8375 45.30625 82.18125 45.9L80.3375 45.9Q80.07188 45.353127 79.99375 44.61875ZM79.8375 40.696877Q78.88438 41.0875 76.9625 41.353127Q75.88438 41.509377 75.43125 41.7125Q74.99375 41.9 74.74375 42.275Q74.49375 42.65 74.49375 43.11875Q74.49375 43.821877 75.025 44.290627Q75.55625 44.759377 76.5875 44.759377Q77.60313 44.759377 78.38438 44.321877Q79.18125 43.86875 79.55625 43.103127Q79.8375 42.49375 79.8375 41.3375L79.8375 40.696877ZM84.18125 45.9L84.18125 31.587502L85.93125 31.587502L85.93125 45.9L84.18125 45.9ZM94.36875 45.9L94.36875 31.587502L96.25938 31.587502L96.25938 38.68125L103.36875 31.587502L105.93125 31.587502L99.93125 37.384377L106.19688 45.9L103.69688 45.9L98.60313 38.65L96.25938 40.93125L96.25938 45.9L94.36875 45.9ZM114.00938 45.9L114.00938 44.36875Q112.80625 46.134377 110.72813 46.134377Q109.80625 46.134377 109.00938 45.790627Q108.2125 45.43125 107.82188 44.9Q107.44688 44.36875 107.29063 43.5875Q107.18125 43.071877 107.18125 41.946877L107.18125 35.525L108.93125 35.525L108.93125 41.275Q108.93125 42.65 109.04063 43.134377Q109.2125 43.821877 109.74375 44.228127Q110.29063 44.61875 111.07188 44.61875Q111.86875 44.61875 112.55625 44.2125Q113.25938 43.80625 113.54063 43.11875Q113.8375 42.415627 113.8375 41.0875L113.8375 35.525L115.5875 35.525L115.5875 45.9L114.00938 45.9ZM117.50938 42.80625L119.25938 42.525Q119.4 43.571877 120.07188 44.134377Q120.74375 44.68125 121.94688 44.68125Q123.15 44.68125 123.72813 44.196877Q124.32188 43.696877 124.32188 43.040627Q124.32188 42.446877 123.80625 42.103127Q123.44688 41.86875 122.00938 41.509377Q120.07188 41.009377 119.32188 40.665627Q118.5875 40.30625 118.19688 39.68125Q117.80625 39.040627 117.80625 38.275Q117.80625 37.5875 118.11875 36.99375Q118.44688 36.4 118.99375 36.009377Q119.4 35.7125 120.10313 35.509377Q120.82188 35.290627 121.63438 35.290627Q122.85313 35.290627 123.775 35.65Q124.69688 35.99375 125.13438 36.603127Q125.57188 37.196877 125.74375 38.196877L124.025 38.43125Q123.9 37.634377 123.3375 37.196877Q122.775 36.74375 121.75938 36.74375Q120.54063 36.74375 120.025 37.15Q119.50938 37.540627 119.50938 38.071877Q119.50938 38.415627 119.72813 38.696877Q119.93125 38.978127 120.4 39.165627Q120.66563 39.259377 121.94688 39.603127Q123.82188 40.103127 124.55625 40.43125Q125.29063 40.74375 125.7125 41.353127Q126.13438 41.946877 126.13438 42.853127Q126.13438 43.728127 125.61875 44.509377Q125.10313 45.290627 124.13438 45.7125Q123.16563 46.134377 121.94688 46.134377Q119.93125 46.134377 118.86875 45.290627Q117.80625 44.446877 117.50938 42.80625ZM128.2125 45.9L128.2125 31.587502L129.97812 31.587502L129.97812 36.7125Q131.2125 35.290627 133.0875 35.290627Q134.22812 35.290627 135.07187 35.74375Q135.93124 36.196877 136.29062 37.009377Q136.66562 37.80625 136.66562 39.321877L136.66562 45.9L134.91562 45.9L134.91562 39.321877Q134.91562 38.009377 134.3375 37.415627Q133.75937 36.80625 132.72812 36.80625Q131.94687 36.80625 131.24374 37.2125Q130.55624 37.61875 130.25937 38.321877Q129.97812 39.009377 129.97812 40.228127L129.97812 45.9L128.2125 45.9Z" fill-rule="nonzero"/></svg>