<svg version="1.1" viewBox="0.0 0.0 730.0 538.0" fill="none" stroke="none" stroke-linecap="square" stroke-miterlimit="10" width="730" height="538" xmlns:xlink="http://www.w3.org/1999/xlink" xmlns="http://www.w3.org/2000/svg"><path fill="#ffffff" d="M0 0L730.0 0L730.0 538.0L0 538.0L0 0Z" fill-rule="nonzero"/><path fill="#ffffff" d="M26.9 68.833336L703.10004 68.833336L703.10004 511.1L26.9 511.1L26.9 68.833336Z" fill-rule="nonzero"/><path stroke="#000000" stroke-width="1.0" stroke-linecap="butt" d="M365.0 290.0C365.0 290.0 365.0 290.0 365.0 290.0C365.0 290.0 365.0 290.0 365.0 290.0C365.0 290.0 365.0 290.0 365.0 290.0C365.0 290.0 365.0 290.0 365.0 290.0" fill-rule="nonzero"/><path fill="#000000" d="M353.0625 282.04688L353.0625 283.35938Q353.0625 284.40625 352.875 285.125Q352.6875 285.84375 352.32812 286.28125Q351.98438 286.71875 351.48438 286.92188Q351.0 287.125 350.375 287.125Q349.89062 287.125 349.46875 287.0Q349.04688 286.875 348.71875 286.60938Q348.39062 286.32812 348.15625 285.89062Q347.92188 285.45312 347.79688 284.82812Q347.67188 284.1875 347.67188 283.35938L347.67188 282.04688Q347.67188 281.0 347.85938 280.29688Q348.0625 279.59375 348.40625 279.15625Q348.76562 278.71875 349.25 278.53125Q349.75 278.34375 350.35938 278.34375Q350.85938 278.34375 351.28125 278.46875Q351.70312 278.59375 352.03125 278.85938Q352.35938 279.10938 352.57812 279.54688Q352.8125 279.96875 352.9375 280.59375Q353.0625 281.21875 353.0625 282.04688ZM351.96875 283.53125L351.96875 281.875Q351.96875 281.29688 351.90625 280.85938Q351.84375 280.42188 351.70312 280.10938Q351.57812 279.79688 351.375 279.60938Q351.1875 279.42188 350.9375 279.32812Q350.6875 279.23438 350.35938 279.23438Q349.98438 279.23438 349.67188 279.375Q349.375 279.51562 349.17188 279.82812Q348.96875 280.14062 348.85938 280.65625Q348.76562 281.15625 348.76562 281.875L348.76562 283.53125Q348.76562 284.10938 348.82812 284.54688Q348.90625 284.98438 349.03125 285.3125Q349.17188 285.625 349.35938 285.82812Q349.5625 286.03125 349.8125 286.125Q350.0625 286.21875 350.375 286.21875Q350.78125 286.21875 351.07812 286.07812Q351.375 285.92188 351.57812 285.59375Q351.78125 285.26562 351.875 284.76562Q351.96875 284.25 351.96875 283.53125ZM355.8125 285.70312L355.8125 286.57812Q355.8125 287.125 355.53125 287.71875Q355.26562 288.3125 354.78125 288.70312L354.17188 288.28125Q354.35938 288.01562 354.48438 287.75Q354.60938 287.48438 354.67188 287.20312Q354.75 286.92188 354.75 286.59375L354.75 285.70312L355.8125 285.70312ZM362.0625 282.04688L362.0625 283.35938Q362.0625 284.40625 361.875 285.125Q361.6875 285.84375 361.32812 286.28125Q360.98438 286.71875 360.48438 286.92188Q360.0 287.125 359.375 287.125Q358.89062 287.125 358.46875 287.0Q358.04688 286.875 357.71875 286.60938Q357.39062 286.32812 357.15625 285.89062Q356.92188 285.45312 356.79688 284.82812Q356.67188 284.1875 356.67188 283.35938L356.67188 282.04688Q356.67188 281.0 356.85938 280.29688Q357.0625 279.59375 357.40625 279.15625Q357.76562 278.71875 358.25 278.53125Q358.75 278.34375 359.35938 278.34375Q359.85938 278.34375 360.28125 278.46875Q360.70312 278.59375 361.03125 278.85938Q361.35938 279.10938 361.57812 279.54688Q361.8125 279.96875 361.9375 280.59375Q362.0625 281.21875 362.0625 282.04688ZM360.96875 283.53125L360.96875 281.875Q360.96875 281.29688 360.90625 280.85938Q360.84375 280.42188 360.70312 280.10938Q360.57812 279.79688 360.375 279.60938Q360.1875 279.42188 359.9375 279.32812Q359.6875 279.23438 359.35938 279.23438Q358.98438 279.23438 358.67188 279.375Q358.375 279.51562 358.17188 279.82812Q357.96875 280.14062 357.85938 280.65625Q357.76562 281.15625 357.76562 281.875L357.76562 283.53125Q357.76562 284.10938 357.82812 284.54688Q357.90625 284.98438 358.03125 285.3125Q358.17188 285.625 358.35938 285.82812Q358.5625 286.03125 358.8125 286.125Q359.0625 286.21875 359.375 286.21875Q359.78125 286.21875 360.07812 286.07812Q360.375 285.92188 360.57812 285.59375Q360.78125 285.26562 360.875 284.76562Q360.96875 284.25 360.96875 283.53125Z" fill-rule="nonzero"/><path stroke="#000000" stroke-width="1.0" stroke-linecap="butt" d="M428.04443 290.0C428.04443 255.18152 399.81848 226.95555 365.0 226.95555C330.18152 226.95555 301.95557 255.18152 301.95557 290.0C301.95557 324.81848 330.18152 353.04443 365.0 353.04443C399.81848 353.04443 428.04443 324.81848 428.04443 290.0" fill-rule="nonzero"/><path fill="#000000" d="M353.0625 219.00243L353.0625 220.31493Q353.0625 221.3618 352.875 222.08055Q352.6875 222.7993 352.32812 223.2368Q351.98438 223.6743 351.48438 223.87743Q351.0 224.08055 350.375 224.08055Q349.89062 224.08055 349.46875 223.95555Q349.04688 223.83055 348.71875 223.56493Q348.39062 223.28368 348.15625 222.84618Q347.92188 222.40868 347.79688 221.78368Q347.67188 221.14305 347.67188 220.31493L347.67188 219.00243Q347.67188 217.95555 347.85938 217.25243Q348.0625 216.5493 348.40625 216.1118Q348.76562 215.6743 349.25 215.4868Q349.75 215.2993 350.35938 215.2993Q350.85938 215.2993 351.28125 215.4243Q351.70312 215.5493 352.03125 215.81493Q352.35938 216.06493 352.57812 216.50243Q352.8125 216.9243 352.9375 217.5493Q353.0625 218.1743 353.0625 219.00243ZM351.96875 220.4868L351.96875 218.83055Q351.96875 218.25243 351.90625 217.81493Q351.84375 217.37743 351.70312 217.06493Q351.57812 216.75243 351.375 216.56493Q351.1875 216.37743 350.9375 216.28368Q350.6875 216.18993 350.35938 216.18993Q349.98438 216.18993 349.67188 216.33055Q349.375 216.47118 349.17188 216.78368Q348.96875 217.09618 348.85938 217.6118Q348.76562 218.1118 348.76562 218.83055L348.76562 220.4868Q348.76562 221.06493 348.82812 221.50243Q348.90625 221.93993 349.03125 222.26805Q349.17188 222.58055 349.35938 222.78368Q349.5625 222.9868 349.8125 223.08055Q350.0625 223.1743 350.375 223.1743Q350.78125 223.1743 351.07812 223.03368Q351.375 222.87743 351.57812 222.5493Q351.78125 222.22118 351.875 221.72118Q351.96875 221.20555 351.96875 220.4868ZM355.8125 222.65868L355.8125 223.53368Q355.8125 224.08055 355.53125 224.6743Q355.26562 225.26805 354.78125 225.65868L354.17188 225.2368Q354.35938 224.97118 354.48438 224.70555Q354.60938 224.43993 354.67188 224.15868Q354.75 223.87743 354.75 223.5493L354.75 222.65868L355.8125 222.65868ZM360.26562 215.37743L360.26562 223.95555L359.1875 223.95555L359.1875 216.7368L357.0 217.53368L357.0 216.5493L360.10938 215.37743L360.26562 215.37743Z" fill-rule="nonzero"/><path stroke="#000000" stroke-width="1.0" stroke-linecap="butt" d="M491.0889 290.0C491.0889 220.36304 434.63696 163.91112 365.0 163.91112C295.36304 163.91112 238.91112 220.36304 238.91112 290.0C238.91112 359.63696 295.36304 416.0889 365.0 416.0889C434.63696 416.0889 491.0889 359.63696 491.0889 290.0" fill-rule="nonzero"/><path fill="#000000" d="M353.0625 155.958L353.0625 157.2705Q353.0625 158.31737 352.875 159.03612Q352.6875 159.75487 352.32812 160.19237Q351.98438 160.62987 351.48438 160.833Q351.0 161.03612 350.375 161.03612Q349.89062 161.03612 349.46875 160.91112Q349.04688 160.78612 348.71875 160.5205Q348.39062 160.23924 348.15625 159.80174Q347.92188 159.36424 347.79688 158.73924Q347.67188 158.09862 347.67188 157.2705L347.67188 155.958Q347.67188 154.91112 347.85938 154.208Q348.0625 153.50487 348.40625 153.06737Q348.76562 152.62987 349.25 152.44237Q349.75 152.25487 350.35938 152.25487Q350.85938 152.25487 351.28125 152.37987Q351.70312 152.50487 352.03125 152.7705Q352.35938 153.0205 352.57812 153.458Q352.8125 153.87987 352.9375 154.50487Q353.0625 155.12987 353.0625 155.958ZM351.96875 157.44237L351.96875 155.78612Q351.96875 155.208 351.90625 154.7705Q351.84375 154.333 351.70312 154.0205Q351.57812 153.708 351.375 153.5205Q351.1875 153.333 350.9375 153.23924Q350.6875 153.1455 350.35938 153.1455Q349.98438 153.1455 349.67188 153.28612Q349.375 153.42674 349.17188 153.73924Q348.96875 154.05174 348.85938 154.56737Q348.76562 155.06737 348.76562 155.78612L348.76562 157.44237Q348.76562 158.0205 348.82812 158.458Q348.90625 158.8955 349.03125 159.22362Q349.17188 159.53612 349.35938 159.73924Q349.5625 159.94237 349.8125 160.03612Q350.0625 160.12987 350.375 160.12987Q350.78125 160.12987 351.07812 159.98924Q351.375 159.833 351.57812 159.50487Q351.78125 159.17674 351.875 158.67674Q351.96875 158.16112 351.96875 157.44237ZM355.8125 159.61424L355.8125 160.48924Q355.8125 161.03612 355.53125 161.62987Q355.26562 162.22362 354.78125 162.61424L354.17188 162.19237Q354.35938 161.92674 354.48438 161.66112Q354.60938 161.3955 354.67188 161.11424Q354.75 160.833 354.75 160.50487L354.75 159.61424L355.8125 159.61424ZM362.29688 160.0205L362.29688 160.91112L356.71875 160.91112L356.71875 160.12987L359.51562 157.0205Q360.03125 156.44237 360.3125 156.05174Q360.59375 155.6455 360.70312 155.333Q360.82812 155.00487 360.82812 154.67674Q360.82812 154.25487 360.65625 153.91112Q360.48438 153.56737 360.14062 153.36424Q359.8125 153.1455 359.32812 153.1455Q358.76562 153.1455 358.39062 153.37987Q358.01562 153.59862 357.82812 153.98924Q357.64062 154.37987 357.64062 154.87987L356.54688 154.87987Q356.54688 154.16112 356.85938 153.56737Q357.1875 152.97362 357.79688 152.61424Q358.42188 152.25487 359.32812 152.25487Q360.14062 152.25487 360.71875 152.55174Q361.29688 152.833 361.59375 153.34862Q361.90625 153.84862 361.90625 154.53612Q361.90625 154.91112 361.78125 155.30174Q361.65625 155.67674 361.4375 156.06737Q361.21875 156.44237 360.92188 156.81737Q360.64062 157.17674 360.3125 157.53612L358.01562 160.0205L362.29688 160.0205Z" fill-rule="nonzero"/><path stroke="#000000" stroke-width="1.0" stroke-linecap="butt" d="M554.13336 290.0C554.13336 185.54454 469.45544 100.86667 365.0 100.86667C260.54456 100.86667 175.86667 185.54454 175.86667 290.0C175.86667 394.45544 260.54456 479.13333 365.0 479.13333C469.45544 479.13333 554.13336 394.45544 554.13336 290.0" fill-rule="nonzero"/><path fill="#000000" d="M353.0625 92.91354L353.0625 94.22604Q353.0625 95.27292 352.875 95.99167Q352.6875 96.71042 352.32812 97.14792Q351.98438 97.58542 351.48438 97.78854Q351.0 97.99167 350.375 97.99167Q349.89062 97.99167 349.46875 97.86667Q349.04688 97.74167 348.71875 97.47604Q348.39062 97.19479 348.15625 96.75729Q347.92188 96.31979 347.79688 95.69479Q347.67188 95.05417 347.67188 94.22604L347.67188 92.91354Q347.67188 91.86667 347.85938 91.16354Q348.0625 90.46042 348.40625 90.02292Q348.76562 89.58542 349.25 89.39792Q349.75 89.21042 350.35938 89.21042Q350.85938 89.21042 351.28125 89.33542Q351.70312 89.46042 352.03125 89.72604Q352.35938 89.97604 352.57812 90.41354Q352.8125 90.83542 352.9375 91.46042Q353.0625 92.08542 353.0625 92.91354ZM351.96875 94.39792L351.96875 92.74167Q351.96875 92.16354 351.90625 91.72604Q351.84375 91.28854 351.70312 90.97604Q351.57812 90.66354 351.375 90.47604Q351.1875 90.28854 350.9375 90.19479Q350.6875 90.10104 350.35938 90.10104Q349.98438 90.10104 349.67188 90.24167Q349.375 90.38229 349.17188 90.69479Q348.96875 91.00729 348.85938 91.52292Q348.76562 92.02292 348.76562 92.74167L348.76562 94.39792Q348.76562 94.97604 348.82812 95.41354Q348.90625 95.85104 349.03125 96.17917Q349.17188 96.49167 349.35938 96.69479Q349.5625 96.89792 349.8125 96.99167Q350.0625 97.08542 350.375 97.08542Q350.78125 97.08542 351.07812 96.94479Q351.375 96.78854 351.57812 96.46042Q351.78125 96.13229 351.875 95.63229Q351.96875 95.11667 351.96875 94.39792ZM355.8125 96.56979L355.8125 97.44479Q355.8125 97.99167 355.53125 98.58542Q355.26562 99.17917 354.78125 99.56979L354.17188 99.14792Q354.35938 98.88229 354.48438 98.61667Q354.60938 98.35104 354.67188 98.06979Q354.75 97.78854 354.75 97.46042L354.75 96.56979L355.8125 96.56979ZM358.29688 93.06979L359.0625 93.06979Q359.64062 93.06979 360.0 92.88229Q360.375 92.67917 360.5625 92.35104Q360.75 92.02292 360.75 91.60104Q360.75 91.11667 360.57812 90.78854Q360.42188 90.44479 360.09375 90.27292Q359.76562 90.10104 359.26562 90.10104Q358.79688 90.10104 358.45312 90.28854Q358.10938 90.46042 357.90625 90.78854Q357.71875 91.11667 357.71875 91.56979L356.625 91.56979Q356.625 90.91354 356.95312 90.38229Q357.28125 89.85104 357.875 89.53854Q358.46875 89.21042 359.26562 89.21042Q360.03125 89.21042 360.60938 89.49167Q361.1875 89.75729 361.51562 90.30417Q361.84375 90.83542 361.84375 91.63229Q361.84375 91.96042 361.6875 92.31979Q361.53125 92.67917 361.21875 93.00729Q360.90625 93.31979 360.40625 93.52292Q359.92188 93.72604 359.21875 93.72604L358.29688 93.72604L358.29688 93.06979ZM358.29688 93.96042L358.29688 93.30417L359.21875 93.30417Q360.03125 93.30417 360.5625 93.50729Q361.09375 93.69479 361.40625 94.02292Q361.71875 94.33542 361.84375 94.72604Q361.96875 95.10104 361.96875 95.49167Q361.96875 96.08542 361.76562 96.55417Q361.5625 97.00729 361.1875 97.33542Q360.82812 97.64792 360.32812 97.81979Q359.84375 97.99167 359.26562 97.99167Q358.70312 97.99167 358.21875 97.83542Q357.73438 97.66354 357.35938 97.36667Q356.98438 97.06979 356.76562 96.63229Q356.5625 96.17917 356.5625 95.61667L357.64062 95.61667Q357.64062 96.05417 357.82812 96.39792Q358.03125 96.72604 358.39062 96.91354Q358.76562 97.08542 359.26562 97.08542Q359.76562 97.08542 360.125 96.91354Q360.48438 96.74167 360.67188 96.39792Q360.875 96.03854 360.875 95.50729Q360.875 94.97604 360.65625 94.63229Q360.4375 94.28854 360.01562 94.13229Q359.60938 93.96042 359.0625 93.96042L358.29688 93.96042Z" fill-rule="nonzero"/><path stroke="#000000" stroke-width="1.0" stroke-linecap="butt" d="M365.0 290.0L365.0 101.0" fill-rule="nonzero"/><path fill="#000000" d="M335.64062 61.78125L336.76562 61.78125Q336.67188 62.59375 336.29688 63.234375Q335.92188 63.875 335.23438 64.25Q334.5625 64.625 333.53125 64.625Q332.78125 64.625 332.17188 64.34375Q331.5625 64.046875 331.10938 63.53125Q330.67188 63.015625 330.4375 62.296875Q330.20312 61.5625 330.20312 60.65625L330.20312 59.8125Q330.20312 58.921875 330.4375 58.1875Q330.67188 57.453125 331.125 56.9375Q331.57812 56.40625 332.20312 56.125Q332.84375 55.84375 333.625 55.84375Q334.59375 55.84375 335.26562 56.21875Q335.9375 56.578125 336.29688 57.21875Q336.67188 57.859375 336.76562 58.703125L335.64062 58.703125Q335.5625 58.109375 335.32812 57.6875Q335.10938 57.25 334.70312 57.015625Q334.29688 56.78125 333.625 56.78125Q333.0625 56.78125 332.625 57.0Q332.20312 57.203125 331.90625 57.609375Q331.625 58.0 331.46875 58.5625Q331.32812 59.125 331.32812 59.796875L331.32812 60.65625Q331.32812 61.28125 331.45312 61.84375Q331.59375 62.390625 331.85938 62.8125Q332.125 63.21875 332.54688 63.46875Q332.96875 63.703125 333.53125 63.703125Q334.25 63.703125 334.67188 63.46875Q335.10938 63.234375 335.32812 62.8125Q335.54688 62.390625 335.64062 61.78125ZM342.0625 63.421875L342.0625 60.15625Q342.0625 59.78125 341.90625 59.5Q341.76562 59.21875 341.46875 59.078125Q341.17188 58.921875 340.73438 58.921875Q340.3125 58.921875 340.0 59.0625Q339.70312 59.203125 339.53125 59.4375Q339.35938 59.65625 339.35938 59.921875L338.28125 59.921875Q338.28125 59.578125 338.45312 59.25Q338.625 58.90625 338.95312 58.640625Q339.28125 58.359375 339.75 58.203125Q340.21875 58.046875 340.79688 58.046875Q341.48438 58.046875 342.01562 58.28125Q342.54688 58.515625 342.84375 58.984375Q343.15625 59.453125 343.15625 60.15625L343.15625 63.109375Q343.15625 63.4375 343.20312 63.796875Q343.26562 64.140625 343.375 64.40625L343.375 64.5L342.23438 64.5Q342.15625 64.3125 342.10938 64.0Q342.0625 63.6875 342.0625 63.421875ZM342.25 60.65625L342.26562 61.421875L341.17188 61.421875Q340.70312 61.421875 340.34375 61.5Q339.98438 61.5625 339.73438 61.71875Q339.48438 61.859375 339.35938 62.078125Q339.23438 62.296875 339.23438 62.59375Q339.23438 62.890625 339.35938 63.140625Q339.5 63.375 339.76562 63.53125Q340.04688 63.671875 340.4375 63.671875Q340.9375 63.671875 341.3125 63.46875Q341.70312 63.25 341.92188 62.953125Q342.15625 62.640625 342.17188 62.34375L342.64062 62.875Q342.59375 63.109375 342.40625 63.421875Q342.23438 63.71875 341.92188 64.0Q341.625 64.265625 341.20312 64.453125Q340.79688 64.625 340.28125 64.625Q339.64062 64.625 339.15625 64.375Q338.67188 64.109375 338.40625 63.6875Q338.14062 63.265625 338.14062 62.734375Q338.14062 62.21875 338.32812 61.84375Q338.53125 61.453125 338.90625 61.1875Q339.28125 60.921875 339.8125 60.796875Q340.34375 60.65625 341.0 60.65625L342.25 60.65625ZM346.40625 59.15625L346.40625 64.5L345.32812 64.5L345.32812 58.15625L346.375 58.15625L346.40625 59.15625ZM348.39062 58.125L348.39062 59.125Q348.25 59.109375 348.125 59.09375Q348.01562 59.078125 347.85938 59.078125Q347.48438 59.078125 347.1875 59.203125Q346.90625 59.3125 346.70312 59.53125Q346.51562 59.734375 346.39062 60.03125Q346.28125 60.328125 346.25 60.671875L345.9375 60.84375Q345.9375 60.265625 346.04688 59.765625Q346.17188 59.265625 346.40625 58.875Q346.65625 58.484375 347.01562 58.265625Q347.39062 58.046875 347.90625 58.046875Q348.03125 58.046875 348.17188 58.078125Q348.32812 58.09375 348.39062 58.125ZM351.10938 63.84375L352.875 58.15625L354.03125 58.15625L351.48438 65.484375Q351.40625 65.71875 351.25 65.984375Q351.10938 66.265625 350.89062 66.5Q350.67188 66.75 350.35938 66.90625Q350.04688 67.0625 349.60938 67.0625Q349.48438 67.0625 349.28125 67.015625Q349.07812 66.984375 349.0 66.96875L349.0 66.09375Q349.04688 66.09375 349.14062 66.09375Q349.25 66.109375 349.28125 66.109375Q349.65625 66.109375 349.90625 66.015625Q350.17188 65.921875 350.34375 65.6875Q350.53125 65.46875 350.65625 65.078125L351.10938 63.84375ZM349.8125 58.15625L351.45312 63.078125L351.73438 64.21875L350.96875 64.625L348.625 58.15625L349.8125 58.15625ZM355.04688 61.40625L355.04688 61.265625Q355.04688 60.578125 355.23438 60.0Q355.4375 59.40625 355.8125 58.96875Q356.1875 58.53125 356.71875 58.296875Q357.25 58.046875 357.92188 58.046875Q358.57812 58.046875 359.10938 58.296875Q359.65625 58.53125 360.03125 58.96875Q360.40625 59.40625 360.60938 60.0Q360.8125 60.578125 360.8125 61.265625L360.8125 61.40625Q360.8125 62.078125 360.60938 62.671875Q360.40625 63.25 360.03125 63.6875Q359.65625 64.125 359.125 64.375Q358.59375 64.625 357.92188 64.625Q357.26562 64.625 356.71875 64.375Q356.1875 64.125 355.8125 63.6875Q355.4375 63.25 355.23438 62.671875Q355.04688 62.078125 355.04688 61.40625ZM356.125 61.265625L356.125 61.40625Q356.125 61.875 356.23438 62.296875Q356.34375 62.71875 356.5625 63.046875Q356.79688 63.359375 357.14062 63.546875Q357.48438 63.71875 357.92188 63.71875Q358.375 63.71875 358.70312 63.546875Q359.04688 63.359375 359.26562 63.046875Q359.5 62.71875 359.60938 62.296875Q359.71875 61.875 359.71875 61.40625L359.71875 61.265625Q359.71875 60.796875 359.60938 60.375Q359.5 59.953125 359.26562 59.640625Q359.04688 59.3125 358.70312 59.125Q358.375 58.9375 357.92188 58.9375Q357.46875 58.9375 357.125 59.125Q356.79688 59.3125 356.5625 59.640625Q356.34375 59.953125 356.23438 60.375Q356.125 60.796875 356.125 61.265625ZM363.40625 59.375L363.40625 66.9375L362.32812 66.9375L362.32812 58.15625L363.3125 58.15625L363.40625 59.375ZM367.6875 61.28125L367.6875 61.40625Q367.6875 62.09375 367.51562 62.6875Q367.35938 63.265625 367.04688 63.703125Q366.73438 64.140625 366.26562 64.390625Q365.8125 64.625 365.21875 64.625Q364.625 64.625 364.15625 64.421875Q363.6875 64.21875 363.35938 63.84375Q363.04688 63.453125 362.85938 62.921875Q362.67188 62.390625 362.59375 61.71875L362.59375 61.0625Q362.67188 60.359375 362.85938 59.8125Q363.04688 59.25 363.35938 58.859375Q363.6875 58.453125 364.14062 58.25Q364.60938 58.046875 365.20312 58.046875Q365.79688 58.046875 366.26562 58.28125Q366.73438 58.5 367.04688 58.9375Q367.35938 59.359375 367.51562 59.953125Q367.6875 60.546875 367.6875 61.28125ZM366.59375 61.40625L366.59375 61.28125Q366.59375 60.796875 366.48438 60.390625Q366.39062 59.96875 366.1875 59.65625Q365.98438 59.328125 365.65625 59.140625Q365.32812 58.953125 364.89062 58.953125Q364.48438 58.953125 364.17188 59.09375Q363.875 59.234375 363.65625 59.484375Q363.45312 59.71875 363.3125 60.015625Q363.1875 60.3125 363.125 60.640625L363.125 62.15625Q363.23438 62.5625 363.4375 62.921875Q363.65625 63.28125 364.0 63.5Q364.35938 63.71875 364.90625 63.71875Q365.34375 63.71875 365.65625 63.546875Q365.98438 63.359375 366.1875 63.046875Q366.39062 62.71875 366.48438 62.296875Q366.59375 61.875 366.59375 61.40625ZM370.40625 55.5L370.40625 64.5L369.32812 64.5L369.32812 55.5L370.40625 55.5ZM370.15625 61.09375L369.70312 61.078125Q369.70312 60.421875 369.89062 59.875Q370.07812 59.3125 370.42188 58.90625Q370.76562 58.5 371.23438 58.28125Q371.70312 58.046875 372.28125 58.046875Q372.75 58.046875 373.125 58.171875Q373.5 58.296875 373.76562 58.578125Q374.03125 58.84375 374.17188 59.28125Q374.3125 59.71875 374.3125 60.34375L374.3125 64.5L373.21875 64.5L373.21875 60.328125Q373.21875 59.828125 373.07812 59.53125Q372.9375 59.234375 372.65625 59.09375Q372.375 58.953125 371.95312 58.953125Q371.54688 58.953125 371.21875 59.125Q370.89062 59.296875 370.65625 59.59375Q370.42188 59.890625 370.28125 60.28125Q370.15625 60.65625 370.15625 61.09375ZM378.10938 63.84375L379.875 58.15625L381.03125 58.15625L378.48438 65.484375Q378.40625 65.71875 378.25 65.984375Q378.10938 66.265625 377.89062 66.5Q377.67188 66.75 377.35938 66.90625Q377.04688 67.0625 376.60938 67.0625Q376.48438 67.0625 376.28125 67.015625Q376.07812 66.984375 376.0 66.96875L376.0 66.09375Q376.04688 66.09375 376.14062 66.09375Q376.25 66.109375 376.28125 66.109375Q376.65625 66.109375 376.90625 66.015625Q377.17188 65.921875 377.34375 65.6875Q377.53125 65.46875 377.65625 65.078125L378.10938 63.84375ZM376.8125 58.15625L378.45312 63.078125L378.73438 64.21875L377.96875 64.625L375.625 58.15625L376.8125 58.15625ZM383.5 55.5L383.5 64.5L382.42188 64.5L382.42188 55.5L383.5 55.5ZM386.5 55.5L386.5 64.5L385.42188 64.5L385.42188 55.5L386.5 55.5ZM390.95312 64.625Q390.29688 64.625 389.75 64.40625Q389.21875 64.171875 388.82812 63.765625Q388.45312 63.34375 388.25 62.78125Q388.04688 62.21875 388.04688 61.546875L388.04688 61.3125Q388.04688 60.53125 388.26562 59.921875Q388.5 59.3125 388.89062 58.890625Q389.28125 58.46875 389.78125 58.265625Q390.28125 58.046875 390.8125 58.046875Q391.5 58.046875 391.98438 58.28125Q392.48438 58.515625 392.79688 58.9375Q393.125 59.34375 393.26562 59.921875Q393.42188 60.484375 393.42188 61.140625L393.42188 61.640625L388.6875 61.640625L388.6875 60.75L392.34375 60.75L392.34375 60.671875Q392.3125 60.25 392.15625 59.859375Q392.01562 59.453125 391.6875 59.203125Q391.375 58.9375 390.8125 58.9375Q390.45312 58.9375 390.14062 59.09375Q389.82812 59.25 389.59375 59.5625Q389.375 59.859375 389.25 60.296875Q389.14062 60.734375 389.14062 61.3125L389.14062 61.546875Q389.14062 62.0 389.26562 62.40625Q389.39062 62.796875 389.625 63.09375Q389.875 63.390625 390.21875 63.5625Q390.57812 63.734375 391.01562 63.734375Q391.59375 63.734375 391.98438 63.5Q392.39062 63.265625 392.6875 62.875L393.34375 63.390625Q393.14062 63.703125 392.8125 63.984375Q392.5 64.265625 392.03125 64.453125Q391.57812 64.625 390.95312 64.625ZM395.40625 59.515625L395.40625 64.5L394.32812 64.5L394.32812 58.15625L395.35938 58.15625L395.40625 59.515625ZM395.15625 61.09375L394.70312 61.078125Q394.70312 60.421875 394.89062 59.875Q395.07812 59.3125 395.42188 58.90625Q395.76562 58.5 396.23438 58.28125Q396.70312 58.046875 397.28125 58.046875Q397.75 58.046875 398.125 58.171875Q398.5 58.296875 398.76562 58.578125Q399.03125 58.84375 399.17188 59.28125Q399.3125 59.71875 399.3125 60.34375L399.3125 64.5L398.21875 64.5L398.21875 60.328125Q398.21875 59.828125 398.07812 59.53125Q397.9375 59.234375 397.65625 59.09375Q397.375 58.953125 396.95312 58.953125Q396.54688 58.953125 396.21875 59.125Q395.89062 59.296875 395.65625 59.59375Q395.42188 59.890625 395.28125 60.28125Q395.15625 60.65625 395.15625 61.09375Z" fill-rule="nonzero"/><path stroke="#000000" stroke-width="1.0" stroke-linecap="butt" d="M365.0 290.0L529.0 195.0" fill-rule="nonzero"/><path fill="#000000" d="M523.1406 176.78125L524.2656 176.78125Q524.1719 177.59375 523.7969 178.23438Q523.4219 178.875 522.7344 179.25Q522.0625 179.625 521.03125 179.625Q520.28125 179.625 519.6719 179.34375Q519.0625 179.04688 518.6094 178.53125Q518.1719 178.01562 517.9375 177.29688Q517.7031 176.5625 517.7031 175.65625L517.7031 174.8125Q517.7031 173.92188 517.9375 173.1875Q518.1719 172.45312 518.625 171.9375Q519.0781 171.40625 519.7031 171.125Q520.34375 170.84375 521.125 170.84375Q522.09375 170.84375 522.7656 171.21875Q523.4375 171.57812 523.7969 172.21875Q524.1719 172.85938 524.2656 173.70312L523.1406 173.70312Q523.0625 173.10938 522.8281 172.6875Q522.6094 172.25 522.2031 172.01562Q521.7969 171.78125 521.125 171.78125Q520.5625 171.78125 520.125 172.0Q519.7031 172.20312 519.40625 172.60938Q519.125 173.0 518.96875 173.5625Q518.8281 174.125 518.8281 174.79688L518.8281 175.65625Q518.8281 176.28125 518.9531 176.84375Q519.09375 177.39062 519.3594 177.8125Q519.625 178.21875 520.0469 178.46875Q520.46875 178.70312 521.03125 178.70312Q521.75 178.70312 522.1719 178.46875Q522.6094 178.23438 522.8281 177.8125Q523.0469 177.39062 523.1406 176.78125ZM529.5625 178.42188L529.5625 175.15625Q529.5625 174.78125 529.40625 174.5Q529.2656 174.21875 528.96875 174.07812Q528.6719 173.92188 528.2344 173.92188Q527.8125 173.92188 527.5 174.0625Q527.2031 174.20312 527.03125 174.4375Q526.8594 174.65625 526.8594 174.92188L525.78125 174.92188Q525.78125 174.57812 525.9531 174.25Q526.125 173.90625 526.4531 173.64062Q526.78125 173.35938 527.25 173.20312Q527.71875 173.04688 528.2969 173.04688Q528.9844 173.04688 529.5156 173.28125Q530.0469 173.51562 530.34375 173.98438Q530.65625 174.45312 530.65625 175.15625L530.65625 178.10938Q530.65625 178.4375 530.7031 178.79688Q530.7656 179.14062 530.875 179.40625L530.875 179.5L529.7344 179.5Q529.65625 179.3125 529.6094 179.0Q529.5625 178.6875 529.5625 178.42188ZM529.75 175.65625L529.7656 176.42188L528.6719 176.42188Q528.2031 176.42188 527.84375 176.5Q527.4844 176.5625 527.2344 176.71875Q526.9844 176.85938 526.8594 177.07812Q526.7344 177.29688 526.7344 177.59375Q526.7344 177.89062 526.8594 178.14062Q527.0 178.375 527.2656 178.53125Q527.5469 178.67188 527.9375 178.67188Q528.4375 178.67188 528.8125 178.46875Q529.2031 178.25 529.4219 177.95312Q529.65625 177.64062 529.6719 177.34375L530.1406 177.875Q530.09375 178.10938 529.90625 178.42188Q529.7344 178.71875 529.4219 179.0Q529.125 179.26562 528.7031 179.45312Q528.2969 179.625 527.78125 179.625Q527.1406 179.625 526.65625 179.375Q526.1719 179.10938 525.90625 178.6875Q525.6406 178.26562 525.6406 177.73438Q525.6406 177.21875 525.8281 176.84375Q526.03125 176.45312 526.40625 176.1875Q526.78125 175.92188 527.3125 175.79688Q527.84375 175.65625 528.5 175.65625L529.75 175.65625ZM533.90625 174.15625L533.90625 179.5L532.8281 179.5L532.8281 173.15625L533.875 173.15625L533.90625 174.15625ZM535.8906 173.125L535.8906 174.125Q535.75 174.10938 535.625 174.09375Q535.5156 174.07812 535.3594 174.07812Q534.9844 174.07812 534.6875 174.20312Q534.40625 174.3125 534.2031 174.53125Q534.0156 174.73438 533.8906 175.03125Q533.78125 175.32812 533.75 175.67188L533.4375 175.84375Q533.4375 175.26562 533.5469 174.76562Q533.6719 174.26562 533.90625 173.875Q534.15625 173.48438 534.5156 173.26562Q534.8906 173.04688 535.40625 173.04688Q535.53125 173.04688 535.6719 173.07812Q535.8281 173.09375 535.8906 173.125ZM538.6094 178.84375L540.375 173.15625L541.53125 173.15625L538.9844 180.48438Q538.90625 180.71875 538.75 180.98438Q538.6094 181.26562 538.3906 181.5Q538.1719 181.75 537.8594 181.90625Q537.5469 182.0625 537.1094 182.0625Q536.9844 182.0625 536.78125 182.01562Q536.5781 181.98438 536.5 181.96875L536.5 181.09375Q536.5469 181.09375 536.6406 181.09375Q536.75 181.10938 536.78125 181.10938Q537.15625 181.10938 537.40625 181.01562Q537.6719 180.92188 537.84375 180.6875Q538.03125 180.46875 538.15625 180.07812L538.6094 178.84375ZM537.3125 173.15625L538.9531 178.07812L539.2344 179.21875L538.46875 179.625L536.125 173.15625L537.3125 173.15625ZM542.5469 176.40625L542.5469 176.26562Q542.5469 175.57812 542.7344 175.0Q542.9375 174.40625 543.3125 173.96875Q543.6875 173.53125 544.21875 173.29688Q544.75 173.04688 545.4219 173.04688Q546.0781 173.04688 546.6094 173.29688Q547.15625 173.53125 547.53125 173.96875Q547.90625 174.40625 548.1094 175.0Q548.3125 175.57812 548.3125 176.26562L548.3125 176.40625Q548.3125 177.07812 548.1094 177.67188Q547.90625 178.25 547.53125 178.6875Q547.15625 179.125 546.625 179.375Q546.09375 179.625 545.4219 179.625Q544.7656 179.625 544.21875 179.375Q543.6875 179.125 543.3125 178.6875Q542.9375 178.25 542.7344 177.67188Q542.5469 177.07812 542.5469 176.40625ZM543.625 176.26562L543.625 176.40625Q543.625 176.875 543.7344 177.29688Q543.84375 177.71875 544.0625 178.04688Q544.2969 178.35938 544.6406 178.54688Q544.9844 178.71875 545.4219 178.71875Q545.875 178.71875 546.2031 178.54688Q546.5469 178.35938 546.7656 178.04688Q547.0 177.71875 547.1094 177.29688Q547.21875 176.875 547.21875 176.40625L547.21875 176.26562Q547.21875 175.79688 547.1094 175.375Q547.0 174.95312 546.7656 174.64062Q546.5469 174.3125 546.2031 174.125Q545.875 173.9375 545.4219 173.9375Q544.96875 173.9375 544.625 174.125Q544.2969 174.3125 544.0625 174.64062Q543.84375 174.95312 543.7344 175.375Q543.625 175.79688 543.625 176.26562ZM550.90625 174.375L550.90625 181.9375L549.8281 181.9375L549.8281 173.15625L550.8125 173.15625L550.90625 174.375ZM555.1875 176.28125L555.1875 176.40625Q555.1875 177.09375 555.0156 177.6875Q554.8594 178.26562 554.5469 178.70312Q554.2344 179.14062 553.7656 179.39062Q553.3125 179.625 552.71875 179.625Q552.125 179.625 551.65625 179.42188Q551.1875 179.21875 550.8594 178.84375Q550.5469 178.45312 550.3594 177.92188Q550.1719 177.39062 550.09375 176.71875L550.09375 176.0625Q550.1719 175.35938 550.3594 174.8125Q550.5469 174.25 550.8594 173.85938Q551.1875 173.45312 551.6406 173.25Q552.1094 173.04688 552.7031 173.04688Q553.2969 173.04688 553.7656 173.28125Q554.2344 173.5 554.5469 173.9375Q554.8594 174.35938 555.0156 174.95312Q555.1875 175.54688 555.1875 176.28125ZM554.09375 176.40625L554.09375 176.28125Q554.09375 175.79688 553.9844 175.39062Q553.8906 174.96875 553.6875 174.65625Q553.4844 174.32812 553.15625 174.14062Q552.8281 173.95312 552.3906 173.95312Q551.9844 173.95312 551.6719 174.09375Q551.375 174.23438 551.15625 174.48438Q550.9531 174.71875 550.8125 175.01562Q550.6875 175.3125 550.625 175.64062L550.625 177.15625Q550.7344 177.5625 550.9375 177.92188Q551.15625 178.28125 551.5 178.5Q551.8594 178.71875 552.40625 178.71875Q552.84375 178.71875 553.15625 178.54688Q553.4844 178.35938 553.6875 178.04688Q553.8906 177.71875 553.9844 177.29688Q554.09375 176.875 554.09375 176.40625ZM557.90625 170.5L557.90625 179.5L556.8281 179.5L556.8281 170.5L557.90625 170.5ZM557.65625 176.09375L557.2031 176.07812Q557.2031 175.42188 557.3906 174.875Q557.5781 174.3125 557.9219 173.90625Q558.2656 173.5 558.7344 173.28125Q559.2031 173.04688 559.78125 173.04688Q560.25 173.04688 560.625 173.17188Q561.0 173.29688 561.2656 173.57812Q561.53125 173.84375 561.6719 174.28125Q561.8125 174.71875 561.8125 175.34375L561.8125 179.5L560.71875 179.5L560.71875 175.32812Q560.71875 174.82812 560.5781 174.53125Q560.4375 174.23438 560.15625 174.09375Q559.875 173.95312 559.4531 173.95312Q559.0469 173.95312 558.71875 174.125Q558.3906 174.29688 558.15625 174.59375Q557.9219 174.89062 557.78125 175.28125Q557.65625 175.65625 557.65625 176.09375ZM565.6094 178.84375L567.375 173.15625L568.53125 173.15625L565.9844 180.48438Q565.90625 180.71875 565.75 180.98438Q565.6094 181.26562 565.3906 181.5Q565.1719 181.75 564.8594 181.90625Q564.5469 182.0625 564.1094 182.0625Q563.9844 182.0625 563.78125 182.01562Q563.5781 181.98438 563.5 181.96875L563.5 181.09375Q563.5469 181.09375 563.6406 181.09375Q563.75 181.10938 563.78125 181.10938Q564.15625 181.10938 564.40625 181.01562Q564.6719 180.92188 564.84375 180.6875Q565.03125 180.46875 565.15625 180.07812L565.6094 178.84375ZM564.3125 173.15625L565.9531 178.07812L566.2344 179.21875L565.46875 179.625L563.125 173.15625L564.3125 173.15625ZM571.0 170.5L571.0 179.5L569.9219 179.5L569.9219 170.5L571.0 170.5ZM574.0 170.5L574.0 179.5L572.9219 179.5L572.9219 170.5L574.0 170.5ZM578.4531 179.625Q577.7969 179.625 577.25 179.40625Q576.71875 179.17188 576.3281 178.76562Q575.9531 178.34375 575.75 177.78125Q575.5469 177.21875 575.5469 176.54688L575.5469 176.3125Q575.5469 175.53125 575.7656 174.92188Q576.0 174.3125 576.3906 173.89062Q576.78125 173.46875 577.28125 173.26562Q577.78125 173.04688 578.3125 173.04688Q579.0 173.04688 579.4844 173.28125Q579.9844 173.51562 580.2969 173.9375Q580.625 174.34375 580.7656 174.92188Q580.9219 175.48438 580.9219 176.14062L580.9219 176.64062L576.1875 176.64062L576.1875 175.75L579.84375 175.75L579.84375 175.67188Q579.8125 175.25 579.65625 174.85938Q579.5156 174.45312 579.1875 174.20312Q578.875 173.9375 578.3125 173.9375Q577.9531 173.9375 577.6406 174.09375Q577.3281 174.25 577.09375 174.5625Q576.875 174.85938 576.75 175.29688Q576.6406 175.73438 576.6406 176.3125L576.6406 176.54688Q576.6406 177.0 576.7656 177.40625Q576.8906 177.79688 577.125 178.09375Q577.375 178.39062 577.71875 178.5625Q578.0781 178.73438 578.5156 178.73438Q579.09375 178.73438 579.4844 178.5Q579.8906 178.26562 580.1875 177.875L580.84375 178.39062Q580.6406 178.70312 580.3125 178.98438Q580.0 179.26562 579.53125 179.45312Q579.0781 179.625 578.4531 179.625ZM582.90625 174.51562L582.90625 179.5L581.8281 179.5L581.8281 173.15625L582.8594 173.15625L582.90625 174.51562ZM582.65625 176.09375L582.2031 176.07812Q582.2031 175.42188 582.3906 174.875Q582.5781 174.3125 582.9219 173.90625Q583.2656 173.5 583.7344 173.28125Q584.2031 173.04688 584.78125 173.04688Q585.25 173.04688 585.625 173.17188Q586.0 173.29688 586.2656 173.57812Q586.53125 173.84375 586.6719 174.28125Q586.8125 174.71875 586.8125 175.34375L586.8125 179.5L585.71875 179.5L585.71875 175.32812Q585.71875 174.82812 585.5781 174.53125Q585.4375 174.23438 585.15625 174.09375Q584.875 173.95312 584.4531 173.95312Q584.0469 173.95312 583.71875 174.125Q583.3906 174.29688 583.15625 174.59375Q582.9219 174.89062 582.78125 175.28125Q582.65625 175.65625 582.65625 176.09375ZM588.5469 176.40625L588.5469 176.26562Q588.5469 175.57812 588.7344 175.0Q588.9375 174.40625 589.3125 173.96875Q589.6875 173.53125 590.21875 173.29688Q590.75 173.04688 591.4219 173.04688Q592.0781 173.04688 592.6094 173.29688Q593.15625 173.53125 593.53125 173.96875Q593.90625 174.40625 594.1094 175.0Q594.3125 175.57812 594.3125 176.26562L594.3125 176.40625Q594.3125 177.07812 594.1094 177.67188Q593.90625 178.25 593.53125 178.6875Q593.15625 179.125 592.625 179.375Q592.09375 179.625 591.4219 179.625Q590.7656 179.625 590.21875 179.375Q589.6875 179.125 589.3125 178.6875Q588.9375 178.25 588.7344 177.67188Q588.5469 177.07812 588.5469 176.40625ZM589.625 176.26562L589.625 176.40625Q589.625 176.875 589.7344 177.29688Q589.84375 177.71875 590.0625 178.04688Q590.2969 178.35938 590.6406 178.54688Q590.9844 178.71875 591.4219 178.71875Q591.875 178.71875 592.2031 178.54688Q592.5469 178.35938 592.7656 178.04688Q593.0 177.71875 593.1094 177.29688Q593.21875 176.875 593.21875 176.40625L593.21875 176.26562Q593.21875 175.79688 593.1094 175.375Q593.0 174.95312 592.7656 174.64062Q592.5469 174.3125 592.2031 174.125Q591.875 173.9375 591.4219 173.9375Q590.96875 173.9375 590.625 174.125Q590.2969 174.3125 590.0625 174.64062Q589.84375 174.95312 589.7344 175.375Q589.625 175.79688 589.625 176.26562ZM596.5625 173.15625L597.9531 175.46875L599.3594 173.15625L600.625 173.15625L598.5469 176.28125L600.6875 179.5L599.4375 179.5L597.96875 177.125L596.5 179.5L595.25 179.5L597.375 176.28125L595.3125 173.15625L596.5625 173.15625ZM603.0 173.15625L603.0 179.5L601.9219 179.5L601.9219 173.15625L603.0 173.15625ZM601.8281 171.48438Q601.8281 171.21875 601.9844 171.03125Q602.15625 170.84375 602.46875 170.84375Q602.78125 170.84375 602.9375 171.03125Q603.1094 171.21875 603.1094 171.48438Q603.1094 171.73438 602.9375 171.92188Q602.78125 172.09375 602.46875 172.09375Q602.15625 172.09375 601.9844 171.92188Q601.8281 171.73438 601.8281 171.48438ZM608.8281 178.26562L608.8281 170.5L609.90625 170.5L609.90625 179.5L608.9219 179.5L608.8281 178.26562ZM604.5625 176.40625L604.5625 176.28125Q604.5625 175.54688 604.7344 174.95312Q604.9219 174.35938 605.25 173.9375Q605.5781 173.5 606.03125 173.28125Q606.5 173.04688 607.0625 173.04688Q607.65625 173.04688 608.1094 173.25Q608.5625 173.45312 608.875 173.85938Q609.1875 174.25 609.3594 174.8125Q609.5469 175.35938 609.625 176.0625L609.625 176.60938Q609.5625 177.29688 609.375 177.85938Q609.1875 178.42188 608.875 178.8125Q608.5625 179.20312 608.1094 179.42188Q607.65625 179.625 607.0469 179.625Q606.5 179.625 606.03125 179.39062Q605.5781 179.14062 605.25 178.70312Q604.9219 178.26562 604.7344 177.6875Q604.5625 177.09375 604.5625 176.40625ZM605.6406 176.28125L605.6406 176.40625Q605.6406 176.875 605.7344 177.29688Q605.84375 177.70312 606.0469 178.03125Q606.25 178.34375 606.5625 178.53125Q606.8906 178.70312 607.3281 178.70312Q607.8594 178.70312 608.2031 178.46875Q608.5625 178.23438 608.7656 177.85938Q608.9844 177.48438 609.09375 177.04688L609.09375 175.64062Q609.03125 175.3125 608.8906 175.01562Q608.7656 174.71875 608.5469 174.48438Q608.34375 174.23438 608.0469 174.09375Q607.75 173.95312 607.3281 173.95312Q606.8906 173.95312 606.5625 174.14062Q606.25 174.32812 606.0469 174.65625Q605.84375 174.96875 605.7344 175.39062Q605.6406 175.79688 605.6406 176.28125Z" fill-rule="nonzero"/><path stroke="#000000" stroke-width="1.0" stroke-linecap="butt" d="M365.0 290.0L529.0 385.0" fill-rule="nonzero"/><path fill="#000000" d="M545.5625 404.64062L545.5625 405.5625L540.9531 405.5625L540.9531 404.64062L545.5625 404.64062ZM541.125 400.96875L541.125 409.5L539.9844 409.5L539.9844 400.96875L541.125 400.96875ZM546.5469 400.96875L546.5469 409.5L545.4219 409.5L545.4219 400.96875L546.5469 400.96875ZM552.7031 408.03125L552.7031 403.15625L553.7969 403.15625L553.7969 409.5L552.7656 409.5L552.7031 408.03125ZM552.90625 406.70312L553.3594 406.6875Q553.3594 407.3125 553.21875 407.85938Q553.09375 408.39062 552.7969 408.78125Q552.5156 409.17188 552.03125 409.40625Q551.5625 409.625 550.8906 409.625Q550.4219 409.625 550.03125 409.48438Q549.65625 409.34375 549.375 409.0625Q549.1094 408.78125 548.9531 408.32812Q548.7969 407.875 548.7969 407.25L548.7969 403.15625L549.8906 403.15625L549.8906 407.26562Q549.8906 407.6875 549.9844 407.96875Q550.0781 408.25 550.25 408.40625Q550.4219 408.5625 550.625 408.64062Q550.8281 408.70312 551.0469 408.70312Q551.75 408.70312 552.1406 408.4375Q552.5469 408.15625 552.71875 407.70312Q552.90625 407.25 552.90625 406.70312ZM556.90625 404.42188L556.90625 409.5L555.8125 409.5L555.8125 403.15625L556.84375 403.15625L556.90625 404.42188ZM556.6875 406.09375L556.1719 406.07812Q556.1875 405.42188 556.34375 404.875Q556.5156 404.3125 556.8281 403.90625Q557.15625 403.5 557.6406 403.28125Q558.125 403.04688 558.75 403.04688Q559.2031 403.04688 559.5781 403.17188Q559.9531 403.29688 560.21875 403.5625Q560.5 403.82812 560.6406 404.25Q560.7969 404.67188 560.7969 405.28125L560.7969 409.5L559.71875 409.5L559.71875 405.32812Q559.71875 404.82812 559.5469 404.53125Q559.3906 404.23438 559.0781 404.09375Q558.78125 403.95312 558.3594 403.95312Q557.8906 403.95312 557.5625 404.125Q557.2344 404.29688 557.0469 404.59375Q556.8594 404.89062 556.7656 405.28125Q556.6875 405.65625 556.6875 406.09375ZM560.7969 405.48438L560.0625 405.71875Q560.0625 405.1875 560.2344 404.71875Q560.40625 404.23438 560.71875 403.85938Q561.0469 403.48438 561.5156 403.26562Q561.9844 403.04688 562.5781 403.04688Q563.09375 403.04688 563.4844 403.1875Q563.8906 403.3125 564.15625 403.59375Q564.4219 403.875 564.5625 404.3125Q564.7031 404.73438 564.7031 405.32812L564.7031 409.5L563.625 409.5L563.625 405.32812Q563.625 404.78125 563.4531 404.5Q563.28125 404.20312 562.9844 404.07812Q562.6875 403.95312 562.2656 403.95312Q561.90625 403.95312 561.625 404.07812Q561.3594 404.20312 561.1719 404.42188Q560.9844 404.625 560.8906 404.90625Q560.7969 405.1875 560.7969 405.48438ZM570.7031 408.03125L570.7031 403.15625L571.7969 403.15625L571.7969 409.5L570.7656 409.5L570.7031 408.03125ZM570.90625 406.70312L571.3594 406.6875Q571.3594 407.3125 571.21875 407.85938Q571.09375 408.39062 570.7969 408.78125Q570.5156 409.17188 570.03125 409.40625Q569.5625 409.625 568.8906 409.625Q568.4219 409.625 568.03125 409.48438Q567.65625 409.34375 567.375 409.0625Q567.1094 408.78125 566.9531 408.32812Q566.7969 407.875 566.7969 407.25L566.7969 403.15625L567.8906 403.15625L567.8906 407.26562Q567.8906 407.6875 567.9844 407.96875Q568.0781 408.25 568.25 408.40625Q568.4219 408.5625 568.625 408.64062Q568.8281 408.70312 569.0469 408.70312Q569.75 408.70312 570.1406 408.4375Q570.5469 408.15625 570.71875 407.70312Q570.90625 407.25 570.90625 406.70312ZM575.0 400.5L575.0 409.5L573.9219 409.5L573.9219 400.5L575.0 400.5ZM579.4531 409.625Q578.7969 409.625 578.25 409.40625Q577.71875 409.17188 577.3281 408.76562Q576.9531 408.34375 576.75 407.78125Q576.5469 407.21875 576.5469 406.54688L576.5469 406.3125Q576.5469 405.53125 576.7656 404.92188Q577.0 404.3125 577.3906 403.89062Q577.78125 403.46875 578.28125 403.26562Q578.78125 403.04688 579.3125 403.04688Q580.0 403.04688 580.4844 403.28125Q580.9844 403.51562 581.2969 403.9375Q581.625 404.34375 581.7656 404.92188Q581.9219 405.48438 581.9219 406.14062L581.9219 406.64062L577.1875 406.64062L577.1875 405.75L580.84375 405.75L580.84375 405.67188Q580.8125 405.25 580.65625 404.85938Q580.5156 404.45312 580.1875 404.20312Q579.875 403.9375 579.3125 403.9375Q578.9531 403.9375 578.6406 404.09375Q578.3281 404.25 578.09375 404.5625Q577.875 404.85938 577.75 405.29688Q577.6406 405.73438 577.6406 406.3125L577.6406 406.54688Q577.6406 407.0 577.7656 407.40625Q577.8906 407.79688 578.125 408.09375Q578.375 408.39062 578.71875 408.5625Q579.0781 408.73438 579.5156 408.73438Q580.09375 408.73438 580.4844 408.5Q580.8906 408.26562 581.1875 407.875L581.84375 408.39062Q581.6406 408.70312 581.3125 408.98438Q581.0 409.26562 580.53125 409.45312Q580.0781 409.625 579.4531 409.625ZM583.90625 404.51562L583.90625 409.5L582.8281 409.5L582.8281 403.15625L583.8594 403.15625L583.90625 404.51562ZM583.65625 406.09375L583.2031 406.07812Q583.2031 405.42188 583.3906 404.875Q583.5781 404.3125 583.9219 403.90625Q584.2656 403.5 584.7344 403.28125Q585.2031 403.04688 585.78125 403.04688Q586.25 403.04688 586.625 403.17188Q587.0 403.29688 587.2656 403.57812Q587.53125 403.84375 587.6719 404.28125Q587.8125 404.71875 587.8125 405.34375L587.8125 409.5L586.71875 409.5L586.71875 405.32812Q586.71875 404.82812 586.5781 404.53125Q586.4375 404.23438 586.15625 404.09375Q585.875 403.95312 585.4531 403.95312Q585.0469 403.95312 584.71875 404.125Q584.3906 404.29688 584.15625 404.59375Q583.9219 404.89062 583.78125 405.28125Q583.65625 405.65625 583.65625 406.09375Z" fill-rule="nonzero"/><path stroke="#000000" stroke-width="1.0" stroke-linecap="butt" d="M365.0 290.0L365.0 479.0" fill-rule="nonzero"/><path fill="#000000" d="M354.79688 520.25L354.79688 523.375Q354.64062 523.6094 354.29688 523.90625Q353.95312 524.1875 353.34375 524.40625Q352.73438 524.625 351.78125 524.625Q351.0 524.625 350.34375 524.3594Q349.6875 524.0781 349.20312 523.5469Q348.73438 523.0156 348.46875 522.2656Q348.21875 521.5156 348.21875 520.5625L348.21875 519.90625Q348.21875 518.9375 348.4375 518.1875Q348.67188 517.4375 349.10938 516.9219Q349.54688 516.3906 350.1875 516.125Q350.82812 515.84375 351.65625 515.84375Q352.625 515.84375 353.28125 516.1875Q353.95312 516.53125 354.3125 517.125Q354.6875 517.7031 354.79688 518.46875L353.67188 518.46875Q353.59375 518.0 353.35938 517.625Q353.14062 517.2344 352.71875 517.0156Q352.3125 516.78125 351.65625 516.78125Q351.0625 516.78125 350.625 517.0Q350.1875 517.2031 349.90625 517.6094Q349.625 518.0156 349.48438 518.59375Q349.35938 519.1719 349.35938 519.8906L349.35938 520.5625Q349.35938 521.2969 349.53125 521.875Q349.70312 522.4531 350.01562 522.875Q350.34375 523.28125 350.78125 523.5Q351.23438 523.7031 351.78125 523.7031Q352.39062 523.7031 352.76562 523.59375Q353.14062 523.4844 353.34375 523.34375Q353.5625 523.2031 353.67188 523.0781L353.67188 521.1719L351.70312 521.1719L351.70312 520.25L354.79688 520.25ZM360.20312 523.03125L360.20312 518.15625L361.29688 518.15625L361.29688 524.5L360.26562 524.5L360.20312 523.03125ZM360.40625 521.7031L360.85938 521.6875Q360.85938 522.3125 360.71875 522.8594Q360.59375 523.3906 360.29688 523.78125Q360.01562 524.1719 359.53125 524.40625Q359.0625 524.625 358.39062 524.625Q357.92188 524.625 357.53125 524.4844Q357.15625 524.34375 356.875 524.0625Q356.60938 523.78125 356.45312 523.3281Q356.29688 522.875 356.29688 522.25L356.29688 518.15625L357.39062 518.15625L357.39062 522.2656Q357.39062 522.6875 357.48438 522.96875Q357.57812 523.25 357.75 523.40625Q357.92188 523.5625 358.125 523.6406Q358.32812 523.7031 358.54688 523.7031Q359.25 523.7031 359.64062 523.4375Q360.04688 523.15625 360.21875 522.7031Q360.40625 522.25 360.40625 521.7031ZM367.0625 523.4219L367.0625 520.15625Q367.0625 519.78125 366.90625 519.5Q366.76562 519.21875 366.46875 519.0781Q366.17188 518.9219 365.73438 518.9219Q365.3125 518.9219 365.0 519.0625Q364.70312 519.2031 364.53125 519.4375Q364.35938 519.65625 364.35938 519.9219L363.28125 519.9219Q363.28125 519.5781 363.45312 519.25Q363.625 518.90625 363.95312 518.6406Q364.28125 518.3594 364.75 518.2031Q365.21875 518.0469 365.79688 518.0469Q366.48438 518.0469 367.01562 518.28125Q367.54688 518.5156 367.84375 518.9844Q368.15625 519.4531 368.15625 520.15625L368.15625 523.1094Q368.15625 523.4375 368.20312 523.7969Q368.26562 524.1406 368.375 524.40625L368.375 524.5L367.23438 524.5Q367.15625 524.3125 367.10938 524.0Q367.0625 523.6875 367.0625 523.4219ZM367.25 520.65625L367.26562 521.4219L366.17188 521.4219Q365.70312 521.4219 365.34375 521.5Q364.98438 521.5625 364.73438 521.71875Q364.48438 521.8594 364.35938 522.0781Q364.23438 522.2969 364.23438 522.59375Q364.23438 522.8906 364.35938 523.1406Q364.5 523.375 364.76562 523.53125Q365.04688 523.6719 365.4375 523.6719Q365.9375 523.6719 366.3125 523.46875Q366.70312 523.25 366.92188 522.9531Q367.15625 522.6406 367.17188 522.34375L367.64062 522.875Q367.59375 523.1094 367.40625 523.4219Q367.23438 523.71875 366.92188 524.0Q366.625 524.2656 366.20312 524.4531Q365.79688 524.625 365.28125 524.625Q364.64062 524.625 364.15625 524.375Q363.67188 524.1094 363.40625 523.6875Q363.14062 523.2656 363.14062 522.7344Q363.14062 522.21875 363.32812 521.84375Q363.53125 521.4531 363.90625 521.1875Q364.28125 520.9219 364.8125 520.7969Q365.34375 520.65625 366.0 520.65625L367.25 520.65625ZM371.5 518.15625L371.5 524.5L370.42188 524.5L370.42188 518.15625L371.5 518.15625ZM370.32812 516.4844Q370.32812 516.21875 370.48438 516.03125Q370.65625 515.84375 370.96875 515.84375Q371.28125 515.84375 371.4375 516.03125Q371.60938 516.21875 371.60938 516.4844Q371.60938 516.7344 371.4375 516.9219Q371.28125 517.09375 370.96875 517.09375Q370.65625 517.09375 370.48438 516.9219Q370.32812 516.7344 370.32812 516.4844ZM373.04688 521.40625L373.04688 521.2656Q373.04688 520.5781 373.23438 520.0Q373.4375 519.40625 373.8125 518.96875Q374.1875 518.53125 374.71875 518.2969Q375.25 518.0469 375.92188 518.0469Q376.57812 518.0469 377.10938 518.2969Q377.65625 518.53125 378.03125 518.96875Q378.40625 519.40625 378.60938 520.0Q378.8125 520.5781 378.8125 521.2656L378.8125 521.40625Q378.8125 522.0781 378.60938 522.6719Q378.40625 523.25 378.03125 523.6875Q377.65625 524.125 377.125 524.375Q376.59375 524.625 375.92188 524.625Q375.26562 524.625 374.71875 524.375Q374.1875 524.125 373.8125 523.6875Q373.4375 523.25 373.23438 522.6719Q373.04688 522.0781 373.04688 521.40625ZM374.125 521.2656L374.125 521.40625Q374.125 521.875 374.23438 522.2969Q374.34375 522.71875 374.5625 523.0469Q374.79688 523.3594 375.14062 523.5469Q375.48438 523.71875 375.92188 523.71875Q376.375 523.71875 376.70312 523.5469Q377.04688 523.3594 377.26562 523.0469Q377.5 522.71875 377.60938 522.2969Q377.71875 521.875 377.71875 521.40625L377.71875 521.2656Q377.71875 520.7969 377.60938 520.375Q377.5 519.9531 377.26562 519.6406Q377.04688 519.3125 376.70312 519.125Q376.375 518.9375 375.92188 518.9375Q375.46875 518.9375 375.125 519.125Q374.79688 519.3125 374.5625 519.6406Q374.34375 519.9531 374.23438 520.375Q374.125 520.7969 374.125 521.2656ZM381.5 515.5L381.5 524.5L380.42188 524.5L380.42188 515.5L381.5 515.5Z" fill-rule="nonzero"/><path stroke="#000000" stroke-width="1.0" stroke-linecap="butt" d="M365.0 290.0L201.0 385.0" fill-rule="nonzero"/><path fill="#000000" d="M136.59375 406.5625L136.59375 406.4375Q136.59375 405.6875 136.75 405.07812Q136.92188 404.45312 137.23438 404.0Q137.54688 403.54688 138.0 403.29688Q138.46875 403.04688 139.0625 403.04688Q139.51562 403.04688 139.875 403.1875Q140.25 403.3125 140.53125 403.57812Q140.8125 403.82812 141.01562 404.20312Q141.21875 404.57812 141.34375 405.0625Q141.46875 405.53125 141.51562 406.09375L141.51562 406.57812Q141.45312 407.28125 141.26562 407.84375Q141.09375 408.40625 140.79688 408.8125Q140.5 409.20312 140.0625 409.42188Q139.64062 409.625 139.04688 409.625Q138.46875 409.625 138.0 409.40625Q137.54688 409.17188 137.23438 408.76562Q136.92188 408.34375 136.75 407.79688Q136.59375 407.23438 136.59375 406.5625ZM137.67188 406.4375L137.67188 406.5625Q137.67188 407.01562 137.76562 407.40625Q137.85938 407.79688 138.04688 408.09375Q138.25 408.39062 138.5625 408.5625Q138.89062 408.73438 139.32812 408.73438Q139.75 408.73438 140.04688 408.5625Q140.35938 408.375 140.5625 408.07812Q140.78125 407.78125 140.90625 407.39062Q141.04688 407.0 141.14062 406.59375L141.14062 406.20312Q141.07812 405.76562 140.9375 405.375Q140.8125 404.96875 140.59375 404.64062Q140.39062 404.3125 140.07812 404.125Q139.76562 403.9375 139.32812 403.9375Q138.89062 403.9375 138.57812 404.14062Q138.26562 404.32812 138.0625 404.67188Q137.85938 405.01562 137.76562 405.48438Q137.67188 405.9375 137.67188 406.4375ZM140.98438 403.15625L141.90625 403.15625L141.90625 407.76562Q141.90625 408.04688 141.9375 408.21875Q141.96875 408.375 142.03125 408.48438Q142.10938 408.57812 142.1875 408.625Q142.28125 408.65625 142.375 408.65625Q142.42188 408.65625 142.46875 408.64062Q142.53125 408.625 142.5625 408.60938L142.70312 409.42188Q142.51562 409.54688 142.34375 409.57812Q142.17188 409.625 141.98438 409.625Q141.70312 409.625 141.48438 409.51562Q141.28125 409.42188 141.125 409.20312Q140.96875 408.98438 140.89062 408.625Q140.8125 408.26562 140.8125 407.76562L140.8125 404.53125L140.98438 403.15625ZM146.07812 405.42188L146.07812 406.3125L143.21875 406.3125L143.21875 405.42188L146.07812 405.42188ZM150.03125 405.51562L147.875 405.51562L147.85938 404.59375L149.82812 404.59375Q150.3125 404.59375 150.67188 404.4375Q151.03125 404.26562 151.23438 403.96875Q151.4375 403.65625 151.4375 403.23438Q151.4375 402.76562 151.25 402.46875Q151.07812 402.17188 150.70312 402.03125Q150.34375 401.89062 149.78125 401.89062L148.125 401.89062L148.125 409.5L146.98438 409.5L146.98438 400.96875L149.78125 400.96875Q150.4375 400.96875 150.95312 401.10938Q151.46875 401.23438 151.82812 401.51562Q152.1875 401.78125 152.375 402.21875Q152.5625 402.64062 152.5625 403.23438Q152.5625 403.76562 152.29688 404.20312Q152.03125 404.625 151.54688 404.89062Q151.07812 405.15625 150.4375 405.23438L150.03125 405.51562ZM149.98438 409.5L147.42188 409.5L148.0625 408.57812L149.98438 408.57812Q150.51562 408.57812 150.89062 408.39062Q151.28125 408.20312 151.46875 407.85938Q151.67188 407.51562 151.67188 407.04688Q151.67188 406.57812 151.5 406.23438Q151.32812 405.89062 150.96875 405.70312Q150.60938 405.51562 150.03125 405.51562L148.42188 405.51562L148.4375 404.59375L150.64062 404.59375L150.875 404.92188Q151.48438 404.98438 151.90625 405.28125Q152.34375 405.57812 152.5625 406.03125Q152.79688 406.48438 152.79688 407.03125Q152.79688 407.82812 152.4375 408.39062Q152.09375 408.9375 151.45312 409.21875Q150.82812 409.5 149.98438 409.5ZM155.0 403.15625L155.0 409.5L153.92188 409.5L153.92188 403.15625L155.0 403.15625ZM153.82812 401.48438Q153.82812 401.21875 153.98438 401.03125Q154.15625 400.84375 154.46875 400.84375Q154.78125 400.84375 154.9375 401.03125Q155.10938 401.21875 155.10938 401.48438Q155.10938 401.73438 154.9375 401.92188Q154.78125 402.09375 154.46875 402.09375Q154.15625 402.09375 153.98438 401.92188Q153.82812 401.73438 153.82812 401.48438ZM160.51562 407.8125Q160.51562 407.57812 160.40625 407.375Q160.3125 407.17188 160.0 407.01562Q159.6875 406.84375 159.0625 406.71875Q158.53125 406.60938 158.10938 406.46875Q157.6875 406.3125 157.39062 406.09375Q157.09375 405.875 156.9375 405.57812Q156.78125 405.28125 156.78125 404.89062Q156.78125 404.51562 156.9375 404.1875Q157.10938 403.84375 157.40625 403.59375Q157.71875 403.32812 158.15625 403.1875Q158.59375 403.04688 159.125 403.04688Q159.89062 403.04688 160.42188 403.3125Q160.96875 403.57812 161.25 404.03125Q161.53125 404.48438 161.53125 405.01562L160.45312 405.01562Q160.45312 404.76562 160.29688 404.51562Q160.14062 404.26562 159.84375 404.10938Q159.54688 403.9375 159.125 403.9375Q158.67188 403.9375 158.39062 404.07812Q158.10938 404.20312 157.98438 404.42188Q157.85938 404.625 157.85938 404.85938Q157.85938 405.04688 157.92188 405.1875Q157.98438 405.3125 158.14062 405.4375Q158.29688 405.54688 158.57812 405.65625Q158.875 405.75 159.32812 405.84375Q160.10938 406.01562 160.60938 406.26562Q161.10938 406.51562 161.35938 406.875Q161.60938 407.21875 161.60938 407.73438Q161.60938 408.15625 161.42188 408.5Q161.25 408.84375 160.92188 409.09375Q160.60938 409.34375 160.15625 409.48438Q159.70312 409.625 159.15625 409.625Q158.3125 409.625 157.73438 409.32812Q157.15625 409.01562 156.85938 408.54688Q156.5625 408.0625 156.5625 407.54688L157.64062 407.54688Q157.67188 407.98438 157.90625 408.25Q158.14062 408.51562 158.46875 408.625Q158.8125 408.71875 159.15625 408.71875Q159.59375 408.71875 159.89062 408.60938Q160.20312 408.48438 160.35938 408.28125Q160.51562 408.07812 160.51562 407.8125ZM166.5625 408.42188L166.5625 405.15625Q166.5625 404.78125 166.40625 404.5Q166.26562 404.21875 165.96875 404.07812Q165.67188 403.92188 165.23438 403.92188Q164.8125 403.92188 164.5 404.0625Q164.20312 404.20312 164.03125 404.4375Q163.85938 404.65625 163.85938 404.92188L162.78125 404.92188Q162.78125 404.57812 162.95312 404.25Q163.125 403.90625 163.45312 403.64062Q163.78125 403.35938 164.25 403.20312Q164.71875 403.04688 165.29688 403.04688Q165.98438 403.04688 166.51562 403.28125Q167.04688 403.51562 167.34375 403.98438Q167.65625 404.45312 167.65625 405.15625L167.65625 408.10938Q167.65625 408.4375 167.70312 408.79688Q167.76562 409.14062 167.875 409.40625L167.875 409.5L166.73438 409.5Q166.65625 409.3125 166.60938 409.0Q166.5625 408.6875 166.5625 408.42188ZM166.75 405.65625L166.76562 406.42188L165.67188 406.42188Q165.20312 406.42188 164.84375 406.5Q164.48438 406.5625 164.23438 406.71875Q163.98438 406.85938 163.85938 407.07812Q163.73438 407.29688 163.73438 407.59375Q163.73438 407.89062 163.85938 408.14062Q164.0 408.375 164.26562 408.53125Q164.54688 408.67188 164.9375 408.67188Q165.4375 408.67188 165.8125 408.46875Q166.20312 408.25 166.42188 407.95312Q166.65625 407.64062 166.67188 407.34375L167.14062 407.875Q167.09375 408.10938 166.90625 408.42188Q166.73438 408.71875 166.42188 409.0Q166.125 409.26562 165.70312 409.45312Q165.29688 409.625 164.78125 409.625Q164.14062 409.625 163.65625 409.375Q163.17188 409.10938 162.90625 408.6875Q162.64062 408.26562 162.64062 407.73438Q162.64062 407.21875 162.82812 406.84375Q163.03125 406.45312 163.40625 406.1875Q163.78125 405.92188 164.3125 405.79688Q164.84375 405.65625 165.5 405.65625L166.75 405.65625ZM169.82812 400.5L170.90625 400.5L170.90625 408.26562L170.8125 409.5L169.82812 409.5L169.82812 400.5ZM175.1875 406.28125L175.1875 406.40625Q175.1875 407.09375 175.01562 407.6875Q174.85938 408.26562 174.54688 408.70312Q174.23438 409.14062 173.76562 409.39062Q173.3125 409.625 172.73438 409.625Q172.125 409.625 171.67188 409.42188Q171.21875 409.20312 170.90625 408.8125Q170.59375 408.42188 170.40625 407.85938Q170.21875 407.29688 170.15625 406.60938L170.15625 406.0625Q170.21875 405.35938 170.40625 404.8125Q170.59375 404.25 170.90625 403.85938Q171.21875 403.45312 171.67188 403.25Q172.125 403.04688 172.71875 403.04688Q173.3125 403.04688 173.76562 403.28125Q174.23438 403.5 174.54688 403.9375Q174.85938 404.35938 175.01562 404.95312Q175.1875 405.54688 175.1875 406.28125ZM174.10938 406.40625L174.10938 406.28125Q174.10938 405.79688 174.01562 405.39062Q173.92188 404.96875 173.73438 404.65625Q173.54688 404.32812 173.21875 404.14062Q172.90625 403.95312 172.45312 403.95312Q172.03125 403.95312 171.73438 404.09375Q171.4375 404.23438 171.21875 404.48438Q171.01562 404.71875 170.875 405.01562Q170.75 405.3125 170.6875 405.64062L170.6875 407.04688Q170.78125 407.45312 170.98438 407.84375Q171.20312 408.21875 171.5625 408.46875Q171.92188 408.70312 172.45312 408.70312Q172.89062 408.70312 173.20312 408.53125Q173.53125 408.34375 173.71875 408.03125Q173.92188 407.70312 174.01562 407.29688Q174.10938 406.875 174.10938 406.40625ZM176.54688 406.40625L176.54688 406.26562Q176.54688 405.57812 176.73438 405.0Q176.9375 404.40625 177.3125 403.96875Q177.6875 403.53125 178.21875 403.29688Q178.75 403.04688 179.42188 403.04688Q180.07812 403.04688 180.60938 403.29688Q181.15625 403.53125 181.53125 403.96875Q181.90625 404.40625 182.10938 405.0Q182.3125 405.57812 182.3125 406.26562L182.3125 406.40625Q182.3125 407.07812 182.10938 407.67188Q181.90625 408.25 181.53125 408.6875Q181.15625 409.125 180.625 409.375Q180.09375 409.625 179.42188 409.625Q178.76562 409.625 178.21875 409.375Q177.6875 409.125 177.3125 408.6875Q176.9375 408.25 176.73438 407.67188Q176.54688 407.07812 176.54688 406.40625ZM177.625 406.26562L177.625 406.40625Q177.625 406.875 177.73438 407.29688Q177.84375 407.71875 178.0625 408.04688Q178.29688 408.35938 178.64062 408.54688Q178.98438 408.71875 179.42188 408.71875Q179.875 408.71875 180.20312 408.54688Q180.54688 408.35938 180.76562 408.04688Q181.0 407.71875 181.10938 407.29688Q181.21875 406.875 181.21875 406.40625L181.21875 406.26562Q181.21875 405.79688 181.10938 405.375Q181.0 404.95312 180.76562 404.64062Q180.54688 404.3125 180.20312 404.125Q179.875 403.9375 179.42188 403.9375Q178.96875 403.9375 178.625 404.125Q178.29688 404.3125 178.0625 404.64062Q177.84375 404.95312 177.73438 405.375Q177.625 405.79688 177.625 406.26562ZM185.0 400.5L185.0 409.5L183.92188 409.5L183.92188 400.5L185.0 400.5ZM186.54688 406.40625L186.54688 406.26562Q186.54688 405.57812 186.73438 405.0Q186.9375 404.40625 187.3125 403.96875Q187.6875 403.53125 188.21875 403.29688Q188.75 403.04688 189.42188 403.04688Q190.07812 403.04688 190.60938 403.29688Q191.15625 403.53125 191.53125 403.96875Q191.90625 404.40625 192.10938 405.0Q192.3125 405.57812 192.3125 406.26562L192.3125 406.40625Q192.3125 407.07812 192.10938 407.67188Q191.90625 408.25 191.53125 408.6875Q191.15625 409.125 190.625 409.375Q190.09375 409.625 189.42188 409.625Q188.76562 409.625 188.21875 409.375Q187.6875 409.125 187.3125 408.6875Q186.9375 408.25 186.73438 407.67188Q186.54688 407.07812 186.54688 406.40625ZM187.625 406.26562L187.625 406.40625Q187.625 406.875 187.73438 407.29688Q187.84375 407.71875 188.0625 408.04688Q188.29688 408.35938 188.64062 408.54688Q188.98438 408.71875 189.42188 408.71875Q189.875 408.71875 190.20312 408.54688Q190.54688 408.35938 190.76562 408.04688Q191.0 407.71875 191.10938 407.29688Q191.21875 406.875 191.21875 406.40625L191.21875 406.26562Q191.21875 405.79688 191.10938 405.375Q191.0 404.95312 190.76562 404.64062Q190.54688 404.3125 190.20312 404.125Q189.875 403.9375 189.42188 403.9375Q188.96875 403.9375 188.625 404.125Q188.29688 404.3125 188.0625 404.64062Q187.84375 404.95312 187.73438 405.375Q187.625 405.79688 187.625 406.26562ZM195.0 400.5L195.0 409.5L193.92188 409.5L193.92188 400.5L195.0 400.5Z" fill-rule="nonzero"/><path stroke="#000000" stroke-width="1.0" stroke-linecap="butt" d="M365.0 290.0L201.0 195.0" fill-rule="nonzero"/><path fill="#000000" d="M148.03125 177.34375Q148.03125 177.04688 147.9375 176.8125Q147.85938 176.57812 147.625 176.39062Q147.40625 176.20312 147.0 176.03125Q146.60938 175.85938 146.01562 175.6875Q145.375 175.5 144.85938 175.28125Q144.35938 175.04688 143.98438 174.75Q143.625 174.4375 143.4375 174.0625Q143.25 173.67188 143.25 173.17188Q143.25 172.67188 143.45312 172.25Q143.65625 171.82812 144.03125 171.51562Q144.42188 171.20312 144.95312 171.03125Q145.48438 170.84375 146.14062 170.84375Q147.10938 170.84375 147.78125 171.21875Q148.45312 171.57812 148.79688 172.17188Q149.15625 172.76562 149.15625 173.42188L148.03125 173.42188Q148.03125 172.95312 147.8125 172.57812Q147.60938 172.20312 147.1875 172.0Q146.78125 171.78125 146.14062 171.78125Q145.54688 171.78125 145.14062 171.96875Q144.75 172.14062 144.5625 172.45312Q144.375 172.76562 144.375 173.15625Q144.375 173.42188 144.48438 173.65625Q144.60938 173.875 144.84375 174.0625Q145.09375 174.25 145.46875 174.40625Q145.84375 174.5625 146.375 174.70312Q147.09375 174.90625 147.625 175.17188Q148.15625 175.42188 148.5 175.73438Q148.84375 176.04688 149.0 176.4375Q149.17188 176.82812 149.17188 177.32812Q149.17188 177.85938 148.95312 178.28125Q148.75 178.70312 148.35938 179.0Q147.96875 179.29688 147.42188 179.46875Q146.875 179.625 146.20312 179.625Q145.60938 179.625 145.03125 179.45312Q144.46875 179.28125 144.0 178.95312Q143.53125 178.625 143.25 178.15625Q142.96875 177.67188 142.96875 177.03125L144.09375 177.03125Q144.09375 177.46875 144.26562 177.78125Q144.4375 178.09375 144.73438 178.29688Q145.03125 178.5 145.40625 178.60938Q145.78125 178.70312 146.20312 178.70312Q146.79688 178.70312 147.20312 178.54688Q147.60938 178.375 147.8125 178.07812Q148.03125 177.76562 148.03125 177.34375ZM150.04688 176.40625L150.04688 176.26562Q150.04688 175.57812 150.23438 175.0Q150.4375 174.40625 150.8125 173.96875Q151.1875 173.53125 151.71875 173.29688Q152.25 173.04688 152.92188 173.04688Q153.57812 173.04688 154.10938 173.29688Q154.65625 173.53125 155.03125 173.96875Q155.40625 174.40625 155.60938 175.0Q155.8125 175.57812 155.8125 176.26562L155.8125 176.40625Q155.8125 177.07812 155.60938 177.67188Q155.40625 178.25 155.03125 178.6875Q154.65625 179.125 154.125 179.375Q153.59375 179.625 152.92188 179.625Q152.26562 179.625 151.71875 179.375Q151.1875 179.125 150.8125 178.6875Q150.4375 178.25 150.23438 177.67188Q150.04688 177.07812 150.04688 176.40625ZM151.125 176.26562L151.125 176.40625Q151.125 176.875 151.23438 177.29688Q151.34375 177.71875 151.5625 178.04688Q151.79688 178.35938 152.14062 178.54688Q152.48438 178.71875 152.92188 178.71875Q153.375 178.71875 153.70312 178.54688Q154.04688 178.35938 154.26562 178.04688Q154.5 177.71875 154.60938 177.29688Q154.71875 176.875 154.71875 176.40625L154.71875 176.26562Q154.71875 175.79688 154.60938 175.375Q154.5 174.95312 154.26562 174.64062Q154.04688 174.3125 153.70312 174.125Q153.375 173.9375 152.92188 173.9375Q152.46875 173.9375 152.125 174.125Q151.79688 174.3125 151.5625 174.64062Q151.34375 174.95312 151.23438 175.375Q151.125 175.79688 151.125 176.26562ZM158.40625 174.51562L158.40625 179.5L157.32812 179.5L157.32812 173.15625L158.35938 173.15625L158.40625 174.51562ZM158.15625 176.09375L157.70312 176.07812Q157.70312 175.42188 157.89062 174.875Q158.07812 174.3125 158.42188 173.90625Q158.76562 173.5 159.23438 173.28125Q159.70312 173.04688 160.28125 173.04688Q160.75 173.04688 161.125 173.17188Q161.5 173.29688 161.76562 173.57812Q162.03125 173.84375 162.17188 174.28125Q162.3125 174.71875 162.3125 175.34375L162.3125 179.5L161.21875 179.5L161.21875 175.32812Q161.21875 174.82812 161.07812 174.53125Q160.9375 174.23438 160.65625 174.09375Q160.375 173.95312 159.95312 173.95312Q159.54688 173.95312 159.21875 174.125Q158.89062 174.29688 158.65625 174.59375Q158.42188 174.89062 158.28125 175.28125Q158.15625 175.65625 158.15625 176.09375ZM168.01562 177.8125Q168.01562 177.57812 167.90625 177.375Q167.8125 177.17188 167.5 177.01562Q167.1875 176.84375 166.5625 176.71875Q166.03125 176.60938 165.60938 176.46875Q165.1875 176.3125 164.89062 176.09375Q164.59375 175.875 164.4375 175.57812Q164.28125 175.28125 164.28125 174.89062Q164.28125 174.51562 164.4375 174.1875Q164.60938 173.84375 164.90625 173.59375Q165.21875 173.32812 165.65625 173.1875Q166.09375 173.04688 166.625 173.04688Q167.39062 173.04688 167.92188 173.3125Q168.46875 173.57812 168.75 174.03125Q169.03125 174.48438 169.03125 175.01562L167.95312 175.01562Q167.95312 174.76562 167.79688 174.51562Q167.64062 174.26562 167.34375 174.10938Q167.04688 173.9375 166.625 173.9375Q166.17188 173.9375 165.89062 174.07812Q165.60938 174.20312 165.48438 174.42188Q165.35938 174.625 165.35938 174.85938Q165.35938 175.04688 165.42188 175.1875Q165.48438 175.3125 165.64062 175.4375Q165.79688 175.54688 166.07812 175.65625Q166.375 175.75 166.82812 175.84375Q167.60938 176.01562 168.10938 176.26562Q168.60938 176.51562 168.85938 176.875Q169.10938 177.21875 169.10938 177.73438Q169.10938 178.15625 168.92188 178.5Q168.75 178.84375 168.42188 179.09375Q168.10938 179.34375 167.65625 179.48438Q167.20312 179.625 166.65625 179.625Q165.8125 179.625 165.23438 179.32812Q164.65625 179.01562 164.35938 178.54688Q164.0625 178.0625 164.0625 177.54688L165.14062 177.54688Q165.17188 177.98438 165.40625 178.25Q165.64062 178.51562 165.96875 178.625Q166.3125 178.71875 166.65625 178.71875Q167.09375 178.71875 167.39062 178.60938Q167.70312 178.48438 167.85938 178.28125Q168.01562 178.07812 168.01562 177.8125ZM172.98438 173.15625L172.98438 173.98438L169.54688 173.98438L169.54688 173.15625L172.98438 173.15625ZM170.71875 171.625L171.79688 171.625L171.79688 177.92188Q171.79688 178.25 171.89062 178.42188Q172.0 178.57812 172.15625 178.64062Q172.3125 178.6875 172.5 178.6875Q172.625 178.6875 172.76562 178.65625Q172.92188 178.625 173.0 178.60938L173.01562 179.5Q172.875 179.54688 172.67188 179.57812Q172.46875 179.625 172.17188 179.625Q171.78125 179.625 171.4375 179.46875Q171.10938 179.29688 170.90625 178.9375Q170.71875 178.5625 170.71875 177.92188L170.71875 171.625ZM175.5 173.15625L175.5 179.5L174.42188 179.5L174.42188 173.15625L175.5 173.15625ZM174.32812 171.48438Q174.32812 171.21875 174.48438 171.03125Q174.65625 170.84375 174.96875 170.84375Q175.28125 170.84375 175.4375 171.03125Q175.60938 171.21875 175.60938 171.48438Q175.60938 171.73438 175.4375 171.92188Q175.28125 172.09375 174.96875 172.09375Q174.65625 172.09375 174.48438 171.92188Q174.32812 171.73438 174.32812 171.48438ZM181.4375 173.15625L182.42188 173.15625L182.42188 179.35938Q182.42188 180.20312 182.07812 180.79688Q181.73438 181.39062 181.125 181.6875Q180.53125 182.0 179.73438 182.0Q179.40625 182.0 178.95312 181.89062Q178.51562 181.79688 178.09375 181.54688Q177.67188 181.3125 177.39062 180.90625L177.95312 180.25Q178.35938 180.73438 178.78125 180.92188Q179.21875 181.10938 179.65625 181.10938Q180.17188 181.10938 180.54688 180.90625Q180.92188 180.71875 181.125 180.34375Q181.32812 179.96875 181.32812 179.42188L181.32812 174.54688L181.4375 173.15625ZM177.0625 176.40625L177.0625 176.28125Q177.0625 175.54688 177.23438 174.95312Q177.42188 174.35938 177.73438 173.9375Q178.0625 173.5 178.51562 173.28125Q178.98438 173.04688 179.57812 173.04688Q180.17188 173.04688 180.60938 173.25Q181.0625 173.45312 181.375 173.85938Q181.6875 174.25 181.875 174.8125Q182.0625 175.35938 182.125 176.0625L182.125 176.60938Q182.0625 177.29688 181.875 177.85938Q181.6875 178.42188 181.375 178.8125Q181.0625 179.20312 180.60938 179.42188Q180.15625 179.625 179.5625 179.625Q178.98438 179.625 178.53125 179.39062Q178.07812 179.14062 177.75 178.70312Q177.42188 178.26562 177.23438 177.6875Q177.0625 177.09375 177.0625 176.40625ZM178.15625 176.28125L178.15625 176.40625Q178.15625 176.875 178.25 177.29688Q178.34375 177.70312 178.54688 178.03125Q178.75 178.34375 179.0625 178.53125Q179.39062 178.70312 179.82812 178.70312Q180.35938 178.70312 180.70312 178.46875Q181.0625 178.23438 181.26562 177.85938Q181.48438 177.48438 181.59375 177.04688L181.59375 175.64062Q181.53125 175.3125 181.39062 175.01562Q181.26562 174.71875 181.0625 174.48438Q180.85938 174.23438 180.54688 174.09375Q180.25 173.95312 179.82812 173.95312Q179.39062 173.95312 179.0625 174.14062Q178.75 174.32812 178.54688 174.65625Q178.34375 174.96875 178.25 175.39062Q178.15625 175.79688 178.15625 176.28125ZM186.95312 179.625Q186.29688 179.625 185.75 179.40625Q185.21875 179.17188 184.82812 178.76562Q184.45312 178.34375 184.25 177.78125Q184.04688 177.21875 184.04688 176.54688L184.04688 176.3125Q184.04688 175.53125 184.26562 174.92188Q184.5 174.3125 184.89062 173.89062Q185.28125 173.46875 185.78125 173.26562Q186.28125 173.04688 186.8125 173.04688Q187.5 173.04688 187.98438 173.28125Q188.48438 173.51562 188.79688 173.9375Q189.125 174.34375 189.26562 174.92188Q189.42188 175.48438 189.42188 176.14062L189.42188 176.64062L184.6875 176.64062L184.6875 175.75L188.34375 175.75L188.34375 175.67188Q188.3125 175.25 188.15625 174.85938Q188.01562 174.45312 187.6875 174.20312Q187.375 173.9375 186.8125 173.9375Q186.45312 173.9375 186.14062 174.09375Q185.82812 174.25 185.59375 174.5625Q185.375 174.85938 185.25 175.29688Q185.14062 175.73438 185.14062 176.3125L185.14062 176.54688Q185.14062 177.0 185.26562 177.40625Q185.39062 177.79688 185.625 178.09375Q185.875 178.39062 186.21875 178.5625Q186.57812 178.73438 187.01562 178.73438Q187.59375 178.73438 187.98438 178.5Q188.39062 178.26562 188.6875 177.875L189.34375 178.39062Q189.14062 178.70312 188.8125 178.98438Q188.5 179.26562 188.03125 179.45312Q187.57812 179.625 186.95312 179.625Z" fill-rule="nonzero"/><path stroke="#000000" stroke-width="1.0" stroke-linecap="butt" d="M365.0 290.0L365.0 101.0" fill-rule="nonzero"/><path stroke="#ff0000" stroke-width="2.0" stroke-linecap="butt" stroke-opacity="0.7019608" stroke-dasharray="8.0,6.0,2.0,6.0" d="M365.0 101.0L452.0 240.0L452.0 340.0L365.0 347.0L321.0 315.0L250.0 224.0Z" fill-rule="nonzero"/><path fill="#ff0000" fill-opacity="0.7019608" d="M369.5 101.0C369.5 103.48528 367.4853 105.5 365.0 105.5C362.5147 105.5 360.5 103.48528 360.5 101.0C360.5 98.51472 362.5147 96.5 365.0 96.5C367.4853 96.5 369.5 98.51472 369.5 101.0Z" fill-rule="nonzero"/><path fill="#ff0000" fill-opacity="0.7019608" d="M456.5 240.0C456.5 242.48528 454.4853 244.5 452.0 244.5C449.5147 244.5 447.5 242.48528 447.5 240.0C447.5 237.51472 449.5147 235.5 452.0 235.5C454.4853 235.5 456.5 237.51472 456.5 240.0Z" fill-rule="nonzero"/><path fill="#ff0000" fill-opacity="0.7019608" d="M456.5 340.0C456.5 342.4853 454.4853 344.5 452.0 344.5C449.5147 344.5 447.5 342.4853 447.5 340.0C447.5 337.5147 449.5147 335.5 452.0 335.5C454.4853 335.5 456.5 337.5147 456.5 340.0Z" fill-rule="nonzero"/><path fill="#ff0000" fill-opacity="0.7019608" d="M369.5 347.0C369.5 349.4853 367.4853 351.5 365.0 351.5C362.5147 351.5 360.5 349.4853 360.5 347.0C360.5 344.5147 362.5147 342.5 365.0 342.5C367.4853 342.5 369.5 344.5147 369.5 347.0Z" fill-rule="nonzero"/><path fill="#ff0000" fill-opacity="0.7019608" d="M325.5 315.0C325.5 317.4853 323.4853 319.5 321.0 319.5C318.5147 319.5 316.5 317.4853 316.5 315.0C316.5 312.5147 318.5147 310.5 321.0 310.5C323.4853 310.5 325.5 312.5147 325.5 315.0Z" fill-rule="nonzero"/><path fill="#ff0000" fill-opacity="0.7019608" d="M254.5 224.0C254.5 226.48528 252.48528 228.5 250.0 228.5C247.51472 228.5 245.5 226.48528 245.5 224.0C245.5 221.51472 247.51472 219.5 250.0 219.5C252.48528 219.5 254.5 221.51472 254.5 224.0Z" fill-rule="nonzero"/><path fill="#757575" d="M28.36875 45.9L28.36875 31.587502L33.74375 31.587502Q35.384377 31.587502 36.36875 32.025Q37.353127 32.446877 37.915627 33.353127Q38.478127 34.259377 38.478127 35.24375Q38.478127 36.165627 37.978127 36.978127Q37.49375 37.790627 36.478127 38.275Q37.775 38.665627 38.478127 39.5875Q39.18125 40.49375 39.18125 41.74375Q39.18125 42.759377 38.74375 43.61875Q38.321877 44.478127 37.696877 44.946877Q37.071877 45.415627 36.134377 45.665627Q35.196877 45.9 33.821877 45.9L28.36875 45.9ZM30.259375 37.603127L33.353127 37.603127Q34.61875 37.603127 35.165627 37.43125Q35.884377 37.2125 36.24375 36.728127Q36.61875 36.228127 36.61875 35.4625Q36.61875 34.759377 36.275 34.2125Q35.93125 33.665627 35.290627 33.478127Q34.665627 33.275 33.11875 33.275L30.259375 33.275L30.259375 37.603127ZM30.259375 44.2125L33.821877 44.2125Q34.74375 44.2125 35.11875 44.134377Q35.775 44.025 36.2125 43.759377Q36.65 43.478127 36.93125 42.9625Q37.2125 42.43125 37.2125 41.74375Q37.2125 40.946877 36.80625 40.353127Q36.4 39.759377 35.665627 39.525Q34.93125 39.290627 33.571877 39.290627L30.259375 39.290627L30.259375 44.2125ZM47.99375 44.61875Q47.009377 45.446877 46.103127 45.790627Q45.196877 46.134377 44.165627 46.134377Q42.4625 46.134377 41.540627 45.30625Q40.61875 44.4625 40.61875 43.165627Q40.61875 42.4 40.9625 41.775Q41.321877 41.15 41.884377 40.775Q42.446877 40.384377 43.15 40.18125Q43.665627 40.05625 44.7125 39.915627Q46.8375 39.665627 47.8375 39.321877Q47.853127 38.9625 47.853127 38.853127Q47.853127 37.790627 47.353127 37.3375Q46.68125 36.74375 45.353127 36.74375Q44.103127 36.74375 43.509377 37.18125Q42.93125 37.61875 42.65 38.728127L40.93125 38.49375Q41.165627 37.384377 41.696877 36.7125Q42.228127 36.025 43.24375 35.665627Q44.259377 35.290627 45.603127 35.290627Q46.93125 35.290627 47.759377 35.603127Q48.5875 35.915627 48.978127 36.4Q49.36875 36.86875 49.525 37.5875Q49.61875 38.040627 49.61875 39.2125L49.61875 41.55625Q49.61875 44.009377 49.728127 44.665627Q49.8375 45.30625 50.18125 45.9L48.3375 45.9Q48.071877 45.353127 47.99375 44.61875ZM47.8375 40.696877Q46.884377 41.0875 44.9625 41.353127Q43.884377 41.509377 43.43125 41.7125Q42.99375 41.9 42.74375 42.275Q42.49375 42.65 42.49375 43.11875Q42.49375 43.821877 43.025 44.290627Q43.55625 44.759377 44.5875 44.759377Q45.603127 44.759377 46.384377 44.321877Q47.18125 43.86875 47.55625 43.103127Q47.8375 42.49375 47.8375 41.3375L47.8375 40.696877ZM52.228127 45.9L52.228127 31.587502L53.99375 31.587502L53.99375 39.74375L58.15 35.525L60.415627 35.525L56.4625 39.36875L60.821877 45.9L58.65 45.9L55.228127 40.603127L53.99375 41.790627L53.99375 45.9L52.228127 45.9ZM69.32188 42.55625L71.13438 42.790627Q70.7125 44.36875 69.54063 45.259377Q68.38438 46.134377 66.57188 46.134377Q64.30625 46.134377 62.9625 44.74375Q61.634377 43.3375 61.634377 40.80625Q61.634377 38.18125 62.978127 36.74375Q64.32188 35.290627 66.47813 35.290627Q68.55625 35.290627 69.86875 36.7125Q71.19688 38.11875 71.19688 40.696877Q71.19688 40.853127 71.18125 41.165627L63.446877 41.165627Q63.540627 42.86875 64.41563 43.775Q65.29063 44.68125 66.5875 44.68125Q67.55625 44.68125 68.22813 44.18125Q68.91563 43.665627 69.32188 42.55625ZM63.540627 39.7125L69.3375 39.7125Q69.22813 38.415627 68.68125 37.759377Q67.8375 36.74375 66.49375 36.74375Q65.29063 36.74375 64.4625 37.55625Q63.634377 38.353127 63.540627 39.7125ZM73.19688 45.9L73.19688 35.525L74.775 35.525L74.775 37.103127Q75.38438 35.99375 75.9 35.65Q76.41563 35.290627 77.025 35.290627Q77.91563 35.290627 78.8375 35.853127L78.22813 37.49375Q77.5875 37.103127 76.94688 37.103127Q76.36875 37.103127 75.9 37.4625Q75.44688 37.80625 75.24375 38.415627Q74.9625 39.353127 74.9625 40.4625L74.9625 45.9L73.19688 45.9ZM79.50938 42.80625L81.25938 42.525Q81.4 43.571877 82.07188 44.134377Q82.74375 44.68125 83.94688 44.68125Q85.15 44.68125 85.72813 44.196877Q86.32188 43.696877 86.32188 43.040627Q86.32188 42.446877 85.80625 42.103127Q85.44688 41.86875 84.00938 41.509377Q82.07188 41.009377 81.32188 40.665627Q80.5875 40.30625 80.19688 39.68125Q79.80625 39.040627 79.80625 38.275Q79.80625 37.5875 80.11875 36.99375Q80.44688 36.4 80.99375 36.009377Q81.4 35.7125 82.10313 35.509377Q82.82188 35.290627 83.63438 35.290627Q84.85313 35.290627 85.775 35.65Q86.69688 35.99375 87.13438 36.603127Q87.57188 37.196877 87.74375 38.196877L86.025 38.43125Q85.9 37.634377 85.3375 37.196877Q84.775 36.74375 83.75938 36.74375Q82.54063 36.74375 82.025 37.15Q81.50938 37.540627 81.50938 38.071877Q81.50938 38.415627 81.72813 38.696877Q81.93125 38.978127 82.4 39.165627Q82.66563 39.259377 83.94688 39.603127Q85.82188 40.103127 86.55625 40.43125Q87.29063 40.74375 87.7125 41.353127Q88.13438 41.946877 88.13438 42.853127Q88.13438 43.728127 87.61875 44.509377Q87.10313 45.290627 86.13438 45.7125Q85.16563 46.134377 83.94688 46.134377Q81.93125 46.134377 80.86875 45.290627Q79.80625 44.446877 79.50938 42.80625ZM96.44688 45.9L96.44688 31.587502L101.36875 31.587502Q103.04063 31.587502 103.93125 31.790627Q105.15 32.071877 106.025 32.80625Q107.15 33.775 107.7125 35.259377Q108.275 36.74375 108.275 38.665627Q108.275 40.290627 107.9 41.55625Q107.525 42.80625 106.91563 43.634377Q106.32188 44.4625 105.61875 44.946877Q104.91563 45.415627 103.91563 45.665627Q102.91563 45.9 101.60313 45.9L96.44688 45.9ZM98.3375 44.2125L101.4 44.2125Q102.80625 44.2125 103.60313 43.946877Q104.41563 43.68125 104.9 43.196877Q105.57188 42.525 105.94688 41.4Q106.32188 40.259377 106.32188 38.634377Q106.32188 36.384377 105.5875 35.18125Q104.85313 33.978127 103.79063 33.571877Q103.04063 33.275 101.35313 33.275L98.3375 33.275L98.3375 44.2125ZM117.32188 42.55625L119.13438 42.790627Q118.7125 44.36875 117.54063 45.259377Q116.38438 46.134377 114.57188 46.134377Q112.30625 46.134377 110.9625 44.74375Q109.63438 43.3375 109.63438 40.80625Q109.63438 38.18125 110.97813 36.74375Q112.32188 35.290627 114.47813 35.290627Q116.55625 35.290627 117.86875 36.7125Q119.19688 38.11875 119.19688 40.696877Q119.19688 40.853127 119.18125 41.165627L111.44688 41.165627Q111.54063 42.86875 112.41563 43.775Q113.29063 44.68125 114.5875 44.68125Q115.55625 44.68125 116.22813 44.18125Q116.91563 43.665627 117.32188 42.55625ZM111.54063 39.7125L117.3375 39.7125Q117.22813 38.415627 116.68125 37.759377Q115.8375 36.74375 114.49375 36.74375Q113.29063 36.74375 112.4625 37.55625Q111.63438 38.353127 111.54063 39.7125ZM121.18125 45.9L121.18125 31.587502L122.93125 31.587502L122.93125 45.9L121.18125 45.9ZM125.22813 33.603127L125.22813 31.587502L126.99375 31.587502L126.99375 33.603127L125.22813 33.603127ZM125.22813 45.9L125.22813 35.525L126.99375 35.525L126.99375 45.9L125.22813 45.9ZM128.9 46.759377L130.60312 47.009377Q130.7125 47.80625 131.19687 48.165627Q131.85312 48.65 132.99374 48.65Q134.2125 48.65 134.86874 48.165627Q135.54062 47.68125 135.775 46.80625Q135.91562 46.259377 135.9 44.540627Q134.74374 45.9 133.025 45.9Q130.88437 45.9 129.7125 44.353127Q128.54062 42.80625 128.54062 40.65Q128.54062 39.165627 129.07187 37.915627Q129.61874 36.665627 130.63437 35.978127Q131.66562 35.290627 133.04062 35.290627Q134.86874 35.290627 136.07187 36.775L136.07187 35.525L137.68124 35.525L137.68124 44.49375Q137.68124 46.915627 137.18124 47.915627Q136.69687 48.93125 135.61874 49.509377Q134.55624 50.103127 132.99374 50.103127Q131.15 50.103127 129.99374 49.275Q128.85312 48.446877 128.9 46.759377ZM130.35312 40.525Q130.35312 42.571877 131.16562 43.509377Q131.97812 44.446877 133.19687 44.446877Q134.4 44.446877 135.2125 43.509377Q136.04062 42.571877 136.04062 40.5875Q136.04062 38.68125 135.19687 37.7125Q134.35312 36.74375 133.16562 36.74375Q131.99374 36.74375 131.16562 37.696877Q130.35312 38.65 130.35312 40.525ZM140.2125 45.9L140.2125 31.587502L141.97812 31.587502L141.97812 36.7125Q143.2125 35.290627 145.0875 35.290627Q146.22812 35.290627 147.07187 35.74375Q147.93124 36.196877 148.29062 37.009377Q148.66562 37.80625 148.66562 39.321877L148.66562 45.9L146.91562 45.9L146.91562 39.321877Q146.91562 38.009377 146.3375 37.415627Q145.75937 36.80625 144.72812 36.80625Q143.94687 36.80625 143.24374 37.2125Q142.55624 37.61875 142.25937 38.321877Q141.97812 39.009377 141.97812 40.228127L141.97812 45.9L140.2125 45.9ZM155.05624 44.321877L155.30624 45.884377Q154.57187 46.040627 153.97812 46.040627Q153.025 46.040627 152.49374 45.74375Q151.97812 45.43125 151.75937 44.946877Q151.54062 44.446877 151.54062 42.86875L151.54062 36.9L150.25937 36.9L150.25937 35.525L151.54062 35.525L151.54062 32.9625L153.29062 31.900002L153.29062 35.525L155.05624 35.525L155.05624 36.9L153.29062 36.9L153.29062 42.9625Q153.29062 43.7125 153.38437 43.93125Q153.47812 44.134377 153.68124 44.275Q153.9 44.4 154.29062 44.4Q154.57187 44.4 155.05624 44.321877Z" fill-rule="nonzero"/></svg>