<svg version="1.1" viewBox="0.0 0.0 730.0 538.0" fill="none" stroke="none" stroke-linecap="square" stroke-miterlimit="10" width="730" height="538" xmlns:xlink="http://www.w3.org/1999/xlink" xmlns="http://www.w3.org/2000/svg"><path fill="#ffffff" d="M0 0L730.0 0L730.0 538.0L0 538.0L0 0Z" fill-rule="nonzero"/><path fill="#ffffff" d="M26.9 68.833336L703.10004 68.833336L703.10004 511.1L26.9 511.1L26.9 68.833336Z" fill-rule="nonzero"/><path stroke="#000000" stroke-width="1.0" stroke-linecap="butt" d="M365.0 290.0C365.0 290.0 365.0 290.0 365.0 290.0C365.0 290.0 365.0 290.0 365.0 290.0C365.0 290.0 365.0 290.0 365.0 290.0C365.0 290.0 365.0 290.0 365.0 290.0" fill-rule="nonzero"/><path fill="#000000" d="M353.0625 282.04688L353.0625 283.35938Q353.0625 284.40625 352.875 285.125Q352.6875 285.84375 352.32812 286.28125Q351.98438 286.71875 351.48438 286.92188Q351.0 287.125 350.375 287.125Q349.89062 287.125 349.46875 287.0Q349.04688 286.875 348.71875 286.60938Q348.39062 286.32812 348.15625 285.89062Q347.92188 285.45312 347.79688 284.82812Q347.67188 284.1875 347.67188 283.35938L347.67188 282.04688Q347.67188 281.0 347.85938 280.29688Q348.0625 279.59375 348.40625 279.15625Q348.76562 278.71875 349.25 278.53125Q349.75 278.34375 350.35938 278.34375Q350.85938 278.34375 351.28125 278.46875Q351.70312 278.59375 352.03125 278.85938Q352.35938 279.10938 352.57812 279.54688Q352.8125 279.96875 352.9375 280.59375Q353.0625 281.21875 353.0625 282.04688ZM351.96875 283.53125L351.96875 281.875Q351.96875 281.29688 351.90625 280.85938Q351.84375 280.42188 351.70312 280.10938Q351.57812 279.79688 351.375 279.60938Q351.1875 279.42188 350.9375 279.32812Q350.6875 279.23438 350.35938 279.23438Q349.98438 279.23438 349.67188 279.375Q349.375 279.51562 349.17188 279.82812Q348.96875 280.14062 348.85938 280.65625Q348.76562 281.15625 348.76562 281.875L348.76562 283.53125Q348.76562 284.10938 348.82812 284.54688Q348.90625 284.98438 349.03125 285.3125Q349.17188 285.625 349.35938 285.82812Q349.5625 286.03125 349.8125 286.125Q350.0625 286.21875 350.375 286.21875Q350.78125 286.21875 351.07812 286.07812Q351.375 285.92188 351.57812 285.59375Q351.78125 285.26562 351.875 284.76562Q351.96875 284.25 351.96875 283.53125ZM355.8125 285.70312L355.8125 286.57812Q355.8125 287.125 355.53125 287.71875Q355.26562 288.3125 354.78125 288.70312L354.17188 288.28125Q354.35938 288.01562 354.48438 287.75Q354.60938 287.48438 354.67188 287.20312Q354.75 286.92188 354.75 286.59375L354.75 285.70312L355.8125 285.70312ZM362.0625 282.04688L362.0625 283.35938Q362.0625 284.40625 361.875 285.125Q361.6875 285.84375 361.32812 286.28125Q360.98438 286.71875 360.48438 286.92188Q360.0 287.125 359.375 287.125Q358.89062 287.125 358.46875 287.0Q358.04688 286.875 357.71875 286.60938Q357.39062 286.32812 357.15625 285.89062Q356.92188 285.45312 356.79688 284.82812Q356.67188 284.1875 356.67188 283.35938L356.67188 282.04688Q356.67188 281.0 356.85938 280.29688Q357.0625 279.59375 357.40625 279.15625Q357.76562 278.71875 358.25 278.53125Q358.75 278.34375 359.35938 278.34375Q359.85938 278.34375 360.28125 278.46875Q360.70312 278.59375 361.03125 278.85938Q361.35938 279.10938 361.57812 279.54688Q361.8125 279.96875 361.9375 280.59375Q362.0625 281.21875 362.0625 282.04688ZM360.96875 283.53125L360.96875 281.875Q360.96875 281.29688 360.90625 280.85938Q360.84375 280.42188 360.70312 280.10938Q360.57812 279.79688 360.375 279.60938Q360.1875 279.42188 359.9375 279.32812Q359.6875 279.23438 359.35938 279.23438Q358.98438 279.23438 358.67188 279.375Q358.375 279.51562 358.17188 279.82812Q357.96875 280.14062 357.85938 280.65625Q357.76562 281.15625 357.76562 281.875L357.76562 283.53125Q357.76562 284.10938 357.82812 284.54688Q357.90625 284.98438 358.03125 285.3125Q358.17188 285.625 358.35938 285.82812Q358.5625 286.03125 358.8125 286.125Q359.0625 286.21875 359.375 286.21875Q359.78125 286.21875 360.07812 286.07812Q360.375 285.92188 360.57812 285.59375Q360.78125 285.26562 360.875 284.76562Q360.96875 284.25 360.96875 283.53125Z" fill-rule="nonzero"/><path stroke="#000000" stroke-width="1.0" stroke-linecap="butt" d="M428.04443 290.0C428.04443 255.18152 399.81848 226.95555 365.0 226.95555C330.18152 226.95555 301.95557 255.18152 301.95557 290.0C301.95557 324.81848 330.18152 353.04443 365.0 353.04443C399.81848 353.04443 428.04443 324.81848 428.04443 290.0" fill-rule="nonzero"/><path fill="#000000" d="M353.0625 219.00243L353.0625 220.31493Q353.0625 221.3618 352.875 222.08055Q352.6875 222.7993 352.32812 223.2368Q351.98438 223.6743 351.48438 223.87743Q351.0 224.08055 350.375 224.08055Q349.89062 224.08055 349.46875 223.95555Q349.04688 223.83055 348.71875 223.56493Q348.39062 223.28368 348.15625 222.84618Q347.92188 222.40868 347.79688 221.78368Q347.67188 221.14305 347.67188 220.31493L347.67188 219.00243Q347.67188 217.95555 347.85938 217.25243Q348.0625 216.5493 348.40625 216.1118Q348.76562 215.6743 349.25 215.4868Q349.75 215.2993 350.35938 215.2993Q350.85938 215.2993 351.28125 215.4243Q351.70312 215.5493 352.03125 215.81493Q352.35938 216.06493 352.57812 216.50243Q352.8125 216.9243 352.9375 217.5493Q353.0625 218.1743 353.0625 219.00243ZM351.96875 220.4868L351.96875 218.83055Q351.96875 218.25243 351.90625 217.81493Q351.84375 217.37743 351.70312 217.06493Q351.57812 216.75243 351.375 216.56493Q351.1875 216.37743 350.9375 216.28368Q350.6875 216.18993 350.35938 216.18993Q349.98438 216.18993 349.67188 216.33055Q349.375 216.47118 349.17188 216.78368Q348.96875 217.09618 348.85938 217.6118Q348.76562 218.1118 348.76562 218.83055L348.76562 220.4868Q348.76562 221.06493 348.82812 221.50243Q348.90625 221.93993 349.03125 222.26805Q349.17188 222.58055 349.35938 222.78368Q349.5625 222.9868 349.8125 223.08055Q350.0625 223.1743 350.375 223.1743Q350.78125 223.1743 351.07812 223.03368Q351.375 222.87743 351.57812 222.5493Q351.78125 222.22118 351.875 221.72118Q351.96875 221.20555 351.96875 220.4868ZM355.8125 222.65868L355.8125 223.53368Q355.8125 224.08055 355.53125 224.6743Q355.26562 225.26805 354.78125 225.65868L354.17188 225.2368Q354.35938 224.97118 354.48438 224.70555Q354.60938 224.43993 354.67188 224.15868Q354.75 223.87743 354.75 223.5493L354.75 222.65868L355.8125 222.65868ZM360.26562 215.37743L360.26562 223.95555L359.1875 223.95555L359.1875 216.7368L357.0 217.53368L357.0 216.5493L360.10938 215.37743L360.26562 215.37743Z" fill-rule="nonzero"/><path stroke="#000000" stroke-width="1.0" stroke-linecap="butt" d="M491.0889 290.0C491.0889 220.36304 434.63696 163.91112 365.0 163.91112C295.36304 163.91112 238.91112 220.36304 238.91112 290.0C238.91112 359.63696 295.36304 416.0889 365.0 416.0889C434.63696 416.0889 491.0889 359.63696 491.0889 290.0" fill-rule="nonzero"/><path fill="#000000" d="M353.0625 155.958L353.0625 157.2705Q353.0625 158.31737 352.875 159.03612Q352.6875 159.75487 352.32812 160.19237Q351.98438 160.62987 351.48438 160.833Q351.0 161.03612 350.375 161.03612Q349.89062 161.03612 349.46875 160.91112Q349.04688 160.78612 348.71875 160.5205Q348.39062 160.23924 348.15625 159.80174Q347.92188 159.36424 347.79688 158.73924Q347.67188 158.09862 347.67188 157.2705L347.67188 155.958Q347.67188 154.91112 347.85938 154.208Q348.0625 153.50487 348.40625 153.06737Q348.76562 152.62987 349.25 152.44237Q349.75 152.25487 350.35938 152.25487Q350.85938 152.25487 351.28125 152.37987Q351.70312 152.50487 352.03125 152.7705Q352.35938 153.0205 352.57812 153.458Q352.8125 153.87987 352.9375 154.50487Q353.0625 155.12987 353.0625 155.958ZM351.96875 157.44237L351.96875 155.78612Q351.96875 155.208 351.90625 154.7705Q351.84375 154.333 351.70312 154.0205Q351.57812 153.708 351.375 153.5205Q351.1875 153.333 350.9375 153.23924Q350.6875 153.1455 350.35938 153.1455Q349.98438 153.1455 349.67188 153.28612Q349.375 153.42674 349.17188 153.73924Q348.96875 154.05174 348.85938 154.56737Q348.76562 155.06737 348.76562 155.78612L348.76562 157.44237Q348.76562 158.0205 348.82812 158.458Q348.90625 158.8955 349.03125 159.22362Q349.17188 159.53612 349.35938 159.73924Q349.5625 159.94237 349.8125 160.03612Q350.0625 160.12987 350.375 160.12987Q350.78125 160.12987 351.07812 159.98924Q351.375 159.833 351.57812 159.50487Q351.78125 159.17674 351.875 158.67674Q351.96875 158.16112 351.96875 157.44237ZM355.8125 159.61424L355.8125 160.48924Q355.8125 161.03612 355.53125 161.62987Q355.26562 162.22362 354.78125 162.61424L354.17188 162.19237Q354.35938 161.92674 354.48438 161.66112Q354.60938 161.3955 354.67188 161.11424Q354.75 160.833 354.75 160.50487L354.75 159.61424L355.8125 159.61424ZM362.29688 160.0205L362.29688 160.91112L356.71875 160.91112L356.71875 160.12987L359.51562 157.0205Q360.03125 156.44237 360.3125 156.05174Q360.59375 155.6455 360.70312 155.333Q360.82812 155.00487 360.82812 154.67674Q360.82812 154.25487 360.65625 153.91112Q360.48438 153.56737 360.14062 153.36424Q359.8125 153.1455 359.32812 153.1455Q358.76562 153.1455 358.39062 153.37987Q358.01562 153.59862 357.82812 153.98924Q357.64062 154.37987 357.64062 154.87987L356.54688 154.87987Q356.54688 154.16112 356.85938 153.56737Q357.1875 152.97362 357.79688 152.61424Q358.42188 152.25487 359.32812 152.25487Q360.14062 152.25487 360.71875 152.55174Q361.29688 152.833 361.59375 153.34862Q361.90625 153.84862 361.90625 154.53612Q361.90625 154.91112 361.78125 155.30174Q361.65625 155.67674 361.4375 156.06737Q361.21875 156.44237 360.92188 156.81737Q360.64062 157.17674 360.3125 157.53612L358.01562 160.0205L362.29688 160.0205Z" fill-rule="nonzero"/><path stroke="#000000" stroke-width="1.0" stroke-linecap="butt" d="M554.13336 290.0C554.13336 185.54454 469.45544 100.86667 365.0 100.86667C260.54456 100.86667 175.86667 185.54454 175.86667 290.0C175.86667 394.45544 260.54456 479.13333 365.0 479.13333C469.45544 479.13333 554.13336 394.45544 554.13336 290.0" fill-rule="nonzero"/><path fill="#000000" d="M353.0625 92.91354L353.0625 94.22604Q353.0625 95.27292 352.875 95.99167Q352.6875 96.71042 352.32812 97.14792Q351.98438 97.58542 351.48438 97.78854Q351.0 97.99167 350.375 97.99167Q349.89062 97.99167 349.46875 97.86667Q349.04688 97.74167 348.71875 97.47604Q348.39062 97.19479 348.15625 96.75729Q347.92188 96.31979 347.79688 95.69479Q347.67188 95.05417 347.67188 94.22604L347.67188 92.91354Q347.67188 91.86667 347.85938 91.16354Q348.0625 90.46042 348.40625 90.02292Q348.76562 89.58542 349.25 89.39792Q349.75 89.21042 350.35938 89.21042Q350.85938 89.21042 351.28125 89.33542Q351.70312 89.46042 352.03125 89.72604Q352.35938 89.97604 352.57812 90.41354Q352.8125 90.83542 352.9375 91.46042Q353.0625 92.08542 353.0625 92.91354ZM351.96875 94.39792L351.96875 92.74167Q351.96875 92.16354 351.90625 91.72604Q351.84375 91.28854 351.70312 90.97604Q351.57812 90.66354 351.375 90.47604Q351.1875 90.28854 350.9375 90.19479Q350.6875 90.10104 350.35938 90.10104Q349.98438 90.10104 349.67188 90.24167Q349.375 90.38229 349.17188 90.69479Q348.96875 91.00729 348.85938 91.52292Q348.76562 92.02292 348.76562 92.74167L348.76562 94.39792Q348.76562 94.97604 348.82812 95.41354Q348.90625 95.85104 349.03125 96.17917Q349.17188 96.49167 349.35938 96.69479Q349.5625 96.89792 349.8125 96.99167Q350.0625 97.08542 350.375 97.08542Q350.78125 97.08542 351.07812 96.94479Q351.375 96.78854 351.57812 96.46042Q351.78125 96.13229 351.875 95.63229Q351.96875 95.11667 351.96875 94.39792ZM355.8125 96.56979L355.8125 97.44479Q355.8125 97.99167 355.53125 98.58542Q355.26562 99.17917 354.78125 99.56979L354.17188 99.14792Q354.35938 98.88229 354.48438 98.61667Q354.60938 98.35104 354.67188 98.06979Q354.75 97.78854 354.75 97.46042L354.75 96.56979L355.8125 96.56979ZM358.29688 93.06979L359.0625 93.06979Q359.64062 93.06979 360.0 92.88229Q360.375 92.67917 360.5625 92.35104Q360.75 92.02292 360.75 91.60104Q360.75 91.11667 360.57812 90.78854Q360.42188 90.44479 360.09375 90.27292Q359.76562 90.10104 359.26562 90.10104Q358.79688 90.10104 358.45312 90.28854Q358.10938 90.46042 357.90625 90.78854Q357.71875 91.11667 357.71875 91.56979L356.625 91.56979Q356.625 90.91354 356.95312 90.38229Q357.28125 89.85104 357.875 89.53854Q358.46875 89.21042 359.26562 89.21042Q360.03125 89.21042 360.60938 89.49167Q361.1875 89.75729 361.51562 90.30417Q361.84375 90.83542 361.84375 91.63229Q361.84375 91.96042 361.6875 92.31979Q361.53125 92.67917 361.21875 93.00729Q360.90625 93.31979 360.40625 93.52292Q359.92188 93.72604 359.21875 93.72604L358.29688 93.72604L358.29688 93.06979ZM358.29688 93.96042L358.29688 93.30417L359.21875 93.30417Q360.03125 93.30417 360.5625 93.50729Q361.09375 93.69479 361.40625 94.02292Q361.71875 94.33542 361.84375 94.72604Q361.96875 95.10104 361.96875 95.49167Q361.96875 96.08542 361.76562 96.55417Q361.5625 97.00729 361.1875 97.33542Q360.82812 97.64792 360.32812 97.81979Q359.84375 97.99167 359.26562 97.99167Q358.70312 97.99167 358.21875 97.83542Q357.73438 97.66354 357.35938 97.36667Q356.98438 97.06979 356.76562 96.63229Q356.5625 96.17917 356.5625 95.61667L357.64062 95.61667Q357.64062 96.05417 357.82812 96.39792Q358.03125 96.72604 358.39062 96.91354Q358.76562 97.08542 359.26562 97.08542Q359.76562 97.08542 360.125 96.91354Q360.48438 96.74167 360.67188 96.39792Q360.875 96.03854 360.875 95.50729Q360.875 94.97604 360.65625 94.63229Q360.4375 94.28854 360.01562 94.13229Q359.60938 93.96042 359.0625 93.96042L358.29688 93.96042Z" fill-rule="nonzero"/><path stroke="#000000" stroke-width="1.0" stroke-linecap="butt" d="M365.0 290.0L365.0 101.0" fill-rule="nonzero"/><path fill="#000000" d="M335.64062 79.78125L336.76562 79.78125Q336.67188 80.59375 336.29688 81.234375Q335.92188 81.875 335.23438 82.25Q334.5625 82.625 333.53125 82.625Q332.78125 82.625 332.17188 82.34375Q331.5625 82.046875 331.10938 81.53125Q330.67188 81.015625 330.4375 80.296875Q330.20312 79.5625 330.20312 78.65625L330.20312 77.8125Q330.20312 76.921875 330.4375 76.1875Q330.67188 75.453125 331.125 74.9375Q331.57812 74.40625 332.20312 74.125Q332.84375 73.84375 333.625 73.84375Q334.59375 73.84375 335.26562 74.21875Q335.9375 74.578125 336.29688 75.21875Q336.67188 75.859375 336.76562 76.703125L335.64062 76.703125Q335.5625 76.109375 335.32812 75.6875Q335.10938 75.25 334.70312 75.015625Q334.29688 74.78125 333.625 74.78125Q333.0625 74.78125 332.625 75.0Q332.20312 75.203125 331.90625 75.609375Q331.625 76.0 331.46875 76.5625Q331.32812 77.125 331.32812 77.796875L331.32812 78.65625Q331.32812 79.28125 331.45312 79.84375Q331.59375 80.390625 331.85938 80.8125Q332.125 81.21875 332.54688 81.46875Q332.96875 81.703125 333.53125 81.703125Q334.25 81.703125 334.67188 81.46875Q335.10938 81.234375 335.32812 80.8125Q335.54688 80.390625 335.64062 79.78125ZM342.0625 81.421875L342.0625 78.15625Q342.0625 77.78125 341.90625 77.5Q341.76562 77.21875 341.46875 77.078125Q341.17188 76.921875 340.73438 76.921875Q340.3125 76.921875 340.0 77.0625Q339.70312 77.203125 339.53125 77.4375Q339.35938 77.65625 339.35938 77.921875L338.28125 77.921875Q338.28125 77.578125 338.45312 77.25Q338.625 76.90625 338.95312 76.640625Q339.28125 76.359375 339.75 76.203125Q340.21875 76.046875 340.79688 76.046875Q341.48438 76.046875 342.01562 76.28125Q342.54688 76.515625 342.84375 76.984375Q343.15625 77.453125 343.15625 78.15625L343.15625 81.109375Q343.15625 81.4375 343.20312 81.796875Q343.26562 82.140625 343.375 82.40625L343.375 82.5L342.23438 82.5Q342.15625 82.3125 342.10938 82.0Q342.0625 81.6875 342.0625 81.421875ZM342.25 78.65625L342.26562 79.421875L341.17188 79.421875Q340.70312 79.421875 340.34375 79.5Q339.98438 79.5625 339.73438 79.71875Q339.48438 79.859375 339.35938 80.078125Q339.23438 80.296875 339.23438 80.59375Q339.23438 80.890625 339.35938 81.140625Q339.5 81.375 339.76562 81.53125Q340.04688 81.671875 340.4375 81.671875Q340.9375 81.671875 341.3125 81.46875Q341.70312 81.25 341.92188 80.953125Q342.15625 80.640625 342.17188 80.34375L342.64062 80.875Q342.59375 81.109375 342.40625 81.421875Q342.23438 81.71875 341.92188 82.0Q341.625 82.265625 341.20312 82.453125Q340.79688 82.625 340.28125 82.625Q339.64062 82.625 339.15625 82.375Q338.67188 82.109375 338.40625 81.6875Q338.14062 81.265625 338.14062 80.734375Q338.14062 80.21875 338.32812 79.84375Q338.53125 79.453125 338.90625 79.1875Q339.28125 78.921875 339.8125 78.796875Q340.34375 78.65625 341.0 78.65625L342.25 78.65625ZM346.40625 77.15625L346.40625 82.5L345.32812 82.5L345.32812 76.15625L346.375 76.15625L346.40625 77.15625ZM348.39062 76.125L348.39062 77.125Q348.25 77.109375 348.125 77.09375Q348.01562 77.078125 347.85938 77.078125Q347.48438 77.078125 347.1875 77.203125Q346.90625 77.3125 346.70312 77.53125Q346.51562 77.734375 346.39062 78.03125Q346.28125 78.328125 346.25 78.671875L345.9375 78.84375Q345.9375 78.265625 346.04688 77.765625Q346.17188 77.265625 346.40625 76.875Q346.65625 76.484375 347.01562 76.265625Q347.39062 76.046875 347.90625 76.046875Q348.03125 76.046875 348.17188 76.078125Q348.32812 76.09375 348.39062 76.125ZM351.10938 81.84375L352.875 76.15625L354.03125 76.15625L351.48438 83.484375Q351.40625 83.71875 351.25 83.984375Q351.10938 84.265625 350.89062 84.5Q350.67188 84.75 350.35938 84.90625Q350.04688 85.0625 349.60938 85.0625Q349.48438 85.0625 349.28125 85.015625Q349.07812 84.984375 349.0 84.96875L349.0 84.09375Q349.04688 84.09375 349.14062 84.09375Q349.25 84.109375 349.28125 84.109375Q349.65625 84.109375 349.90625 84.015625Q350.17188 83.921875 350.34375 83.6875Q350.53125 83.46875 350.65625 83.078125L351.10938 81.84375ZM349.8125 76.15625L351.45312 81.078125L351.73438 82.21875L350.96875 82.625L348.625 76.15625L349.8125 76.15625ZM355.04688 79.40625L355.04688 79.265625Q355.04688 78.578125 355.23438 78.0Q355.4375 77.40625 355.8125 76.96875Q356.1875 76.53125 356.71875 76.296875Q357.25 76.046875 357.92188 76.046875Q358.57812 76.046875 359.10938 76.296875Q359.65625 76.53125 360.03125 76.96875Q360.40625 77.40625 360.60938 78.0Q360.8125 78.578125 360.8125 79.265625L360.8125 79.40625Q360.8125 80.078125 360.60938 80.671875Q360.40625 81.25 360.03125 81.6875Q359.65625 82.125 359.125 82.375Q358.59375 82.625 357.92188 82.625Q357.26562 82.625 356.71875 82.375Q356.1875 82.125 355.8125 81.6875Q355.4375 81.25 355.23438 80.671875Q355.04688 80.078125 355.04688 79.40625ZM356.125 79.265625L356.125 79.40625Q356.125 79.875 356.23438 80.296875Q356.34375 80.71875 356.5625 81.046875Q356.79688 81.359375 357.14062 81.546875Q357.48438 81.71875 357.92188 81.71875Q358.375 81.71875 358.70312 81.546875Q359.04688 81.359375 359.26562 81.046875Q359.5 80.71875 359.60938 80.296875Q359.71875 79.875 359.71875 79.40625L359.71875 79.265625Q359.71875 78.796875 359.60938 78.375Q359.5 77.953125 359.26562 77.640625Q359.04688 77.3125 358.70312 77.125Q358.375 76.9375 357.92188 76.9375Q357.46875 76.9375 357.125 77.125Q356.79688 77.3125 356.5625 77.640625Q356.34375 77.953125 356.23438 78.375Q356.125 78.796875 356.125 79.265625ZM363.40625 77.375L363.40625 84.9375L362.32812 84.9375L362.32812 76.15625L363.3125 76.15625L363.40625 77.375ZM367.6875 79.28125L367.6875 79.40625Q367.6875 80.09375 367.51562 80.6875Q367.35938 81.265625 367.04688 81.703125Q366.73438 82.140625 366.26562 82.390625Q365.8125 82.625 365.21875 82.625Q364.625 82.625 364.15625 82.421875Q363.6875 82.21875 363.35938 81.84375Q363.04688 81.453125 362.85938 80.921875Q362.67188 80.390625 362.59375 79.71875L362.59375 79.0625Q362.67188 78.359375 362.85938 77.8125Q363.04688 77.25 363.35938 76.859375Q363.6875 76.453125 364.14062 76.25Q364.60938 76.046875 365.20312 76.046875Q365.79688 76.046875 366.26562 76.28125Q366.73438 76.5 367.04688 76.9375Q367.35938 77.359375 367.51562 77.953125Q367.6875 78.546875 367.6875 79.28125ZM366.59375 79.40625L366.59375 79.28125Q366.59375 78.796875 366.48438 78.390625Q366.39062 77.96875 366.1875 77.65625Q365.98438 77.328125 365.65625 77.140625Q365.32812 76.953125 364.89062 76.953125Q364.48438 76.953125 364.17188 77.09375Q363.875 77.234375 363.65625 77.484375Q363.45312 77.71875 363.3125 78.015625Q363.1875 78.3125 363.125 78.640625L363.125 80.15625Q363.23438 80.5625 363.4375 80.921875Q363.65625 81.28125 364.0 81.5Q364.35938 81.71875 364.90625 81.71875Q365.34375 81.71875 365.65625 81.546875Q365.98438 81.359375 366.1875 81.046875Q366.39062 80.71875 366.48438 80.296875Q366.59375 79.875 366.59375 79.40625ZM370.40625 73.5L370.40625 82.5L369.32812 82.5L369.32812 73.5L370.40625 73.5ZM370.15625 79.09375L369.70312 79.078125Q369.70312 78.421875 369.89062 77.875Q370.07812 77.3125 370.42188 76.90625Q370.76562 76.5 371.23438 76.28125Q371.70312 76.046875 372.28125 76.046875Q372.75 76.046875 373.125 76.171875Q373.5 76.296875 373.76562 76.578125Q374.03125 76.84375 374.17188 77.28125Q374.3125 77.71875 374.3125 78.34375L374.3125 82.5L373.21875 82.5L373.21875 78.328125Q373.21875 77.828125 373.07812 77.53125Q372.9375 77.234375 372.65625 77.09375Q372.375 76.953125 371.95312 76.953125Q371.54688 76.953125 371.21875 77.125Q370.89062 77.296875 370.65625 77.59375Q370.42188 77.890625 370.28125 78.28125Q370.15625 78.65625 370.15625 79.09375ZM378.10938 81.84375L379.875 76.15625L381.03125 76.15625L378.48438 83.484375Q378.40625 83.71875 378.25 83.984375Q378.10938 84.265625 377.89062 84.5Q377.67188 84.75 377.35938 84.90625Q377.04688 85.0625 376.60938 85.0625Q376.48438 85.0625 376.28125 85.015625Q376.07812 84.984375 376.0 84.96875L376.0 84.09375Q376.04688 84.09375 376.14062 84.09375Q376.25 84.109375 376.28125 84.109375Q376.65625 84.109375 376.90625 84.015625Q377.17188 83.921875 377.34375 83.6875Q377.53125 83.46875 377.65625 83.078125L378.10938 81.84375ZM376.8125 76.15625L378.45312 81.078125L378.73438 82.21875L377.96875 82.625L375.625 76.15625L376.8125 76.15625ZM383.5 73.5L383.5 82.5L382.42188 82.5L382.42188 73.5L383.5 73.5ZM386.5 73.5L386.5 82.5L385.42188 82.5L385.42188 73.5L386.5 73.5ZM390.95312 82.625Q390.29688 82.625 389.75 82.40625Q389.21875 82.171875 388.82812 81.765625Q388.45312 81.34375 388.25 80.78125Q388.04688 80.21875 388.04688 79.546875L388.04688 79.3125Q388.04688 78.53125 388.26562 77.921875Q388.5 77.3125 388.89062 76.890625Q389.28125 76.46875 389.78125 76.265625Q390.28125 76.046875 390.8125 76.046875Q391.5 76.046875 391.98438 76.28125Q392.48438 76.515625 392.79688 76.9375Q393.125 77.34375 393.26562 77.921875Q393.42188 78.484375 393.42188 79.140625L393.42188 79.640625L388.6875 79.640625L388.6875 78.75L392.34375 78.75L392.34375 78.671875Q392.3125 78.25 392.15625 77.859375Q392.01562 77.453125 391.6875 77.203125Q391.375 76.9375 390.8125 76.9375Q390.45312 76.9375 390.14062 77.09375Q389.82812 77.25 389.59375 77.5625Q389.375 77.859375 389.25 78.296875Q389.14062 78.734375 389.14062 79.3125L389.14062 79.546875Q389.14062 80.0 389.26562 80.40625Q389.39062 80.796875 389.625 81.09375Q389.875 81.390625 390.21875 81.5625Q390.57812 81.734375 391.01562 81.734375Q391.59375 81.734375 391.98438 81.5Q392.39062 81.265625 392.6875 80.875L393.34375 81.390625Q393.14062 81.703125 392.8125 81.984375Q392.5 82.265625 392.03125 82.453125Q391.57812 82.625 390.95312 82.625ZM395.40625 77.515625L395.40625 82.5L394.32812 82.5L394.32812 76.15625L395.35938 76.15625L395.40625 77.515625ZM395.15625 79.09375L394.70312 79.078125Q394.70312 78.421875 394.89062 77.875Q395.07812 77.3125 395.42188 76.90625Q395.76562 76.5 396.23438 76.28125Q396.70312 76.046875 397.28125 76.046875Q397.75 76.046875 398.125 76.171875Q398.5 76.296875 398.76562 76.578125Q399.03125 76.84375 399.17188 77.28125Q399.3125 77.71875 399.3125 78.34375L399.3125 82.5L398.21875 82.5L398.21875 78.328125Q398.21875 77.828125 398.07812 77.53125Q397.9375 77.234375 397.65625 77.09375Q397.375 76.953125 396.95312 76.953125Q396.54688 76.953125 396.21875 77.125Q395.89062 77.296875 395.65625 77.59375Q395.42188 77.890625 395.28125 78.28125Q395.15625 78.65625 395.15625 79.09375Z" fill-rule="nonzero"/><path stroke="#000000" stroke-width="1.0" stroke-linecap="butt" d="M365.0 290.0L529.0 195.0" fill-rule="nonzero"/><path fill="#000000" d="M526.53125 183.67188L527.3906 183.67188Q528.2031 183.67188 528.7656 183.98438Q529.34375 184.28125 529.6406 184.8125Q529.9531 185.34375 529.9531 186.01562Q529.9531 186.84375 529.6094 187.42188Q529.2656 188.0 528.6719 188.3125Q528.0781 188.625 527.2969 188.625Q526.84375 188.625 526.3906 188.5Q525.9375 188.35938 525.5625 188.09375Q525.2031 187.82812 524.9844 187.40625Q524.7656 186.98438 524.7656 186.40625L525.1875 186.15625Q525.1875 186.59375 525.4375 186.95312Q525.7031 187.29688 526.1406 187.51562Q526.59375 187.73438 527.1875 187.73438Q527.71875 187.73438 528.09375 187.51562Q528.46875 187.29688 528.6719 186.92188Q528.875 186.53125 528.875 186.03125Q528.875 185.625 528.6875 185.25Q528.5156 184.85938 528.1875 184.60938Q527.8594 184.35938 527.375 184.35938L526.53125 184.35938L526.53125 183.67188ZM527.0469 179.84375Q527.8125 179.84375 528.375 180.14062Q528.9375 180.4375 529.2344 180.95312Q529.5469 181.46875 529.5469 182.14062Q529.5469 182.70312 529.2344 183.17188Q528.9375 183.625 528.375 183.90625Q527.8125 184.17188 527.0469 184.17188L526.53125 184.17188L526.53125 183.46875L527.03125 183.46875Q527.5469 183.46875 527.8594 183.29688Q528.1719 183.125 528.3125 182.82812Q528.46875 182.51562 528.46875 182.125Q528.46875 181.76562 528.3125 181.45312Q528.15625 181.14062 527.84375 180.9375Q527.53125 180.73438 527.0469 180.73438Q526.625 180.73438 526.28125 180.9375Q525.9375 181.125 525.7344 181.46875Q525.53125 181.79688 525.53125 182.21875L525.53125 190.75L524.4375 190.75L524.4375 182.21875Q524.4375 181.5625 524.7969 181.03125Q525.15625 180.48438 525.75 180.17188Q526.34375 179.84375 527.0469 179.84375ZM533.5781 184.42188L533.5781 185.3125L530.71875 185.3125L530.71875 184.42188L533.5781 184.42188ZM534.84375 179.96875L535.9375 179.96875L538.7344 186.92188L541.53125 179.96875L542.625 179.96875L539.15625 188.5L538.3125 188.5L534.84375 179.96875ZM534.4844 179.96875L535.4531 179.96875L535.6094 185.17188L535.6094 188.5L534.4844 188.5L534.4844 179.96875ZM542.0156 179.96875L542.9844 179.96875L542.9844 188.5L541.8594 188.5L541.8594 185.17188L542.0156 179.96875ZM546.1094 187.84375L547.875 182.15625L549.03125 182.15625L546.4844 189.48438Q546.40625 189.71875 546.25 189.98438Q546.1094 190.26562 545.8906 190.5Q545.6719 190.75 545.3594 190.90625Q545.0469 191.0625 544.6094 191.0625Q544.4844 191.0625 544.28125 191.01562Q544.0781 190.98438 544.0 190.96875L544.0 190.09375Q544.0469 190.09375 544.1406 190.09375Q544.25 190.10938 544.28125 190.10938Q544.65625 190.10938 544.90625 190.01562Q545.1719 189.92188 545.34375 189.6875Q545.53125 189.46875 545.65625 189.07812L546.1094 187.84375ZM544.8125 182.15625L546.4531 187.07812L546.7344 188.21875L545.96875 188.625L543.625 182.15625L544.8125 182.15625ZM551.40625 183.15625L551.40625 188.5L550.3281 188.5L550.3281 182.15625L551.375 182.15625L551.40625 183.15625ZM553.3906 182.125L553.3906 183.125Q553.25 183.10938 553.125 183.09375Q553.0156 183.07812 552.8594 183.07812Q552.4844 183.07812 552.1875 183.20312Q551.90625 183.3125 551.7031 183.53125Q551.5156 183.73438 551.3906 184.03125Q551.28125 184.32812 551.25 184.67188L550.9375 184.84375Q550.9375 184.26562 551.0469 183.76562Q551.1719 183.26562 551.40625 182.875Q551.65625 182.48438 552.0156 182.26562Q552.3906 182.04688 552.90625 182.04688Q553.03125 182.04688 553.1719 182.07812Q553.3281 182.09375 553.3906 182.125ZM556.8594 187.71875Q557.25 187.71875 557.5781 187.5625Q557.90625 187.40625 558.1094 187.14062Q558.3281 186.85938 558.3594 186.5L559.3906 186.5Q559.3594 187.0625 559.0 187.54688Q558.65625 188.03125 558.09375 188.32812Q557.53125 188.625 556.8594 188.625Q556.15625 188.625 555.625 188.375Q555.09375 188.10938 554.7344 187.67188Q554.3906 187.23438 554.21875 186.67188Q554.0469 186.09375 554.0469 185.45312L554.0469 185.20312Q554.0469 184.5625 554.21875 184.0Q554.3906 183.42188 554.7344 182.98438Q555.09375 182.54688 555.625 182.29688Q556.15625 182.04688 556.8594 182.04688Q557.6094 182.04688 558.15625 182.34375Q558.71875 182.64062 559.03125 183.17188Q559.3594 183.6875 559.3906 184.34375L558.3594 184.34375Q558.3281 183.95312 558.1406 183.64062Q557.9531 183.3125 557.625 183.125Q557.2969 182.9375 556.8594 182.9375Q556.3594 182.9375 556.0156 183.14062Q555.6875 183.32812 555.4844 183.65625Q555.2969 183.98438 555.2031 184.39062Q555.125 184.79688 555.125 185.20312L555.125 185.45312Q555.125 185.875 555.2031 186.28125Q555.2969 186.67188 555.4844 187.0Q555.6875 187.32812 556.0156 187.53125Q556.3594 187.71875 556.8594 187.71875ZM562.9531 188.625Q562.2969 188.625 561.75 188.40625Q561.21875 188.17188 560.8281 187.76562Q560.4531 187.34375 560.25 186.78125Q560.0469 186.21875 560.0469 185.54688L560.0469 185.3125Q560.0469 184.53125 560.2656 183.92188Q560.5 183.3125 560.8906 182.89062Q561.28125 182.46875 561.78125 182.26562Q562.28125 182.04688 562.8125 182.04688Q563.5 182.04688 563.9844 182.28125Q564.4844 182.51562 564.7969 182.9375Q565.125 183.34375 565.2656 183.92188Q565.4219 184.48438 565.4219 185.14062L565.4219 185.64062L560.6875 185.64062L560.6875 184.75L564.34375 184.75L564.34375 184.67188Q564.3125 184.25 564.15625 183.85938Q564.0156 183.45312 563.6875 183.20312Q563.375 182.9375 562.8125 182.9375Q562.4531 182.9375 562.1406 183.09375Q561.8281 183.25 561.59375 183.5625Q561.375 183.85938 561.25 184.29688Q561.1406 184.73438 561.1406 185.3125L561.1406 185.54688Q561.1406 186.0 561.2656 186.40625Q561.3906 186.79688 561.625 187.09375Q561.875 187.39062 562.21875 187.5625Q562.5781 187.73438 563.0156 187.73438Q563.59375 187.73438 563.9844 187.5Q564.3906 187.26562 564.6875 186.875L565.34375 187.39062Q565.1406 187.70312 564.8125 187.98438Q564.5 188.26562 564.03125 188.45312Q563.5781 188.625 562.9531 188.625ZM567.40625 183.51562L567.40625 188.5L566.3281 188.5L566.3281 182.15625L567.3594 182.15625L567.40625 183.51562ZM567.15625 185.09375L566.7031 185.07812Q566.7031 184.42188 566.8906 183.875Q567.0781 183.3125 567.4219 182.90625Q567.7656 182.5 568.2344 182.28125Q568.7031 182.04688 569.28125 182.04688Q569.75 182.04688 570.125 182.17188Q570.5 182.29688 570.7656 182.57812Q571.03125 182.84375 571.1719 183.28125Q571.3125 183.71875 571.3125 184.34375L571.3125 188.5L570.21875 188.5L570.21875 184.32812Q570.21875 183.82812 570.0781 183.53125Q569.9375 183.23438 569.65625 183.09375Q569.375 182.95312 568.9531 182.95312Q568.5469 182.95312 568.21875 183.125Q567.8906 183.29688 567.65625 183.59375Q567.4219 183.89062 567.28125 184.28125Q567.15625 184.65625 567.15625 185.09375Z" fill-rule="nonzero"/><path stroke="#000000" stroke-width="1.0" stroke-linecap="butt" d="M365.0 290.0L529.0 385.0" fill-rule="nonzero"/><path fill="#000000" d="M529.5625 395.64062L529.5625 396.5625L524.9531 396.5625L524.9531 395.64062L529.5625 395.64062ZM525.125 391.96875L525.125 400.5L523.9844 400.5L523.9844 391.96875L525.125 391.96875ZM530.5469 391.96875L530.5469 400.5L529.4219 400.5L529.4219 391.96875L530.5469 391.96875ZM536.7031 399.03125L536.7031 394.15625L537.7969 394.15625L537.7969 400.5L536.7656 400.5L536.7031 399.03125ZM536.90625 397.70312L537.3594 397.6875Q537.3594 398.3125 537.21875 398.85938Q537.09375 399.39062 536.7969 399.78125Q536.5156 400.17188 536.03125 400.40625Q535.5625 400.625 534.8906 400.625Q534.4219 400.625 534.03125 400.48438Q533.65625 400.34375 533.375 400.0625Q533.1094 399.78125 532.9531 399.32812Q532.7969 398.875 532.7969 398.25L532.7969 394.15625L533.8906 394.15625L533.8906 398.26562Q533.8906 398.6875 533.9844 398.96875Q534.0781 399.25 534.25 399.40625Q534.4219 399.5625 534.625 399.64062Q534.8281 399.70312 535.0469 399.70312Q535.75 399.70312 536.1406 399.4375Q536.5469 399.15625 536.71875 398.70312Q536.90625 398.25 536.90625 397.70312ZM540.90625 395.42188L540.90625 400.5L539.8125 400.5L539.8125 394.15625L540.84375 394.15625L540.90625 395.42188ZM540.6875 397.09375L540.1719 397.07812Q540.1875 396.42188 540.34375 395.875Q540.5156 395.3125 540.8281 394.90625Q541.15625 394.5 541.6406 394.28125Q542.125 394.04688 542.75 394.04688Q543.2031 394.04688 543.5781 394.17188Q543.9531 394.29688 544.21875 394.5625Q544.5 394.82812 544.6406 395.25Q544.7969 395.67188 544.7969 396.28125L544.7969 400.5L543.71875 400.5L543.71875 396.32812Q543.71875 395.82812 543.5469 395.53125Q543.3906 395.23438 543.0781 395.09375Q542.78125 394.95312 542.3594 394.95312Q541.8906 394.95312 541.5625 395.125Q541.2344 395.29688 541.0469 395.59375Q540.8594 395.89062 540.7656 396.28125Q540.6875 396.65625 540.6875 397.09375ZM544.7969 396.48438L544.0625 396.71875Q544.0625 396.1875 544.2344 395.71875Q544.40625 395.23438 544.71875 394.85938Q545.0469 394.48438 545.5156 394.26562Q545.9844 394.04688 546.5781 394.04688Q547.09375 394.04688 547.4844 394.1875Q547.8906 394.3125 548.15625 394.59375Q548.4219 394.875 548.5625 395.3125Q548.7031 395.73438 548.7031 396.32812L548.7031 400.5L547.625 400.5L547.625 396.32812Q547.625 395.78125 547.4531 395.5Q547.28125 395.20312 546.9844 395.07812Q546.6875 394.95312 546.2656 394.95312Q545.90625 394.95312 545.625 395.07812Q545.3594 395.20312 545.1719 395.42188Q544.9844 395.625 544.8906 395.90625Q544.7969 396.1875 544.7969 396.48438ZM554.7031 399.03125L554.7031 394.15625L555.7969 394.15625L555.7969 400.5L554.7656 400.5L554.7031 399.03125ZM554.90625 397.70312L555.3594 397.6875Q555.3594 398.3125 555.21875 398.85938Q555.09375 399.39062 554.7969 399.78125Q554.5156 400.17188 554.03125 400.40625Q553.5625 400.625 552.8906 400.625Q552.4219 400.625 552.03125 400.48438Q551.65625 400.34375 551.375 400.0625Q551.1094 399.78125 550.9531 399.32812Q550.7969 398.875 550.7969 398.25L550.7969 394.15625L551.8906 394.15625L551.8906 398.26562Q551.8906 398.6875 551.9844 398.96875Q552.0781 399.25 552.25 399.40625Q552.4219 399.5625 552.625 399.64062Q552.8281 399.70312 553.0469 399.70312Q553.75 399.70312 554.1406 399.4375Q554.5469 399.15625 554.71875 398.70312Q554.90625 398.25 554.90625 397.70312ZM559.0 391.5L559.0 400.5L557.9219 400.5L557.9219 391.5L559.0 391.5ZM563.4531 400.625Q562.7969 400.625 562.25 400.40625Q561.71875 400.17188 561.3281 399.76562Q560.9531 399.34375 560.75 398.78125Q560.5469 398.21875 560.5469 397.54688L560.5469 397.3125Q560.5469 396.53125 560.7656 395.92188Q561.0 395.3125 561.3906 394.89062Q561.78125 394.46875 562.28125 394.26562Q562.78125 394.04688 563.3125 394.04688Q564.0 394.04688 564.4844 394.28125Q564.9844 394.51562 565.2969 394.9375Q565.625 395.34375 565.7656 395.92188Q565.9219 396.48438 565.9219 397.14062L565.9219 397.64062L561.1875 397.64062L561.1875 396.75L564.84375 396.75L564.84375 396.67188Q564.8125 396.25 564.65625 395.85938Q564.5156 395.45312 564.1875 395.20312Q563.875 394.9375 563.3125 394.9375Q562.9531 394.9375 562.6406 395.09375Q562.3281 395.25 562.09375 395.5625Q561.875 395.85938 561.75 396.29688Q561.6406 396.73438 561.6406 397.3125L561.6406 397.54688Q561.6406 398.0 561.7656 398.40625Q561.8906 398.79688 562.125 399.09375Q562.375 399.39062 562.71875 399.5625Q563.0781 399.73438 563.5156 399.73438Q564.09375 399.73438 564.4844 399.5Q564.8906 399.26562 565.1875 398.875L565.84375 399.39062Q565.6406 399.70312 565.3125 399.98438Q565.0 400.26562 564.53125 400.45312Q564.0781 400.625 563.4531 400.625ZM567.90625 395.51562L567.90625 400.5L566.8281 400.5L566.8281 394.15625L567.8594 394.15625L567.90625 395.51562ZM567.65625 397.09375L567.2031 397.07812Q567.2031 396.42188 567.3906 395.875Q567.5781 395.3125 567.9219 394.90625Q568.2656 394.5 568.7344 394.28125Q569.2031 394.04688 569.78125 394.04688Q570.25 394.04688 570.625 394.17188Q571.0 394.29688 571.2656 394.57812Q571.53125 394.84375 571.6719 395.28125Q571.8125 395.71875 571.8125 396.34375L571.8125 400.5L570.71875 400.5L570.71875 396.32812Q570.71875 395.82812 570.5781 395.53125Q570.4375 395.23438 570.15625 395.09375Q569.875 394.95312 569.4531 394.95312Q569.0469 394.95312 568.71875 395.125Q568.3906 395.29688 568.15625 395.59375Q567.9219 395.89062 567.78125 396.28125Q567.65625 396.65625 567.65625 397.09375Z" fill-rule="nonzero"/><path stroke="#000000" stroke-width="1.0" stroke-linecap="butt" d="M365.0 290.0L365.0 479.0" fill-rule="nonzero"/><path fill="#000000" d="M339.29688 506.5L337.51562 506.5L337.53125 505.57812L339.29688 505.57812Q340.21875 505.57812 340.82812 505.20312Q341.4375 504.8125 341.73438 504.125Q342.04688 503.42188 342.04688 502.48438L342.04688 501.96875Q342.04688 501.23438 341.875 500.67188Q341.70312 500.09375 341.35938 499.70312Q341.01562 499.29688 340.51562 499.09375Q340.03125 498.89062 339.40625 498.89062L337.48438 498.89062L337.48438 497.96875L339.40625 497.96875Q340.25 497.96875 340.9375 498.25Q341.625 498.53125 342.125 499.0625Q342.625 499.57812 342.89062 500.32812Q343.17188 501.0625 343.17188 501.98438L343.17188 502.48438Q343.17188 503.42188 342.89062 504.17188Q342.625 504.90625 342.10938 505.42188Q341.60938 505.9375 340.89062 506.21875Q340.1875 506.5 339.29688 506.5ZM338.125 497.96875L338.125 506.5L336.98438 506.5L336.98438 497.96875L338.125 497.96875ZM347.07812 502.42188L347.07812 503.3125L344.21875 503.3125L344.21875 502.42188L347.07812 502.42188ZM353.17188 505.57812L353.17188 506.5L348.90625 506.5L348.90625 505.57812L353.17188 505.57812ZM349.125 497.96875L349.125 506.5L347.98438 506.5L347.98438 497.96875L349.125 497.96875ZM355.0 500.15625L355.0 506.5L353.92188 506.5L353.92188 500.15625L355.0 500.15625ZM353.82812 498.48438Q353.82812 498.21875 353.98438 498.03125Q354.15625 497.84375 354.46875 497.84375Q354.78125 497.84375 354.9375 498.03125Q355.10938 498.21875 355.10938 498.48438Q355.10938 498.73438 354.9375 498.92188Q354.78125 499.09375 354.46875 499.09375Q354.15625 499.09375 353.98438 498.92188Q353.82812 498.73438 353.82812 498.48438ZM357.90625 501.42188L357.90625 506.5L356.8125 506.5L356.8125 500.15625L357.84375 500.15625L357.90625 501.42188ZM357.6875 503.09375L357.17188 503.07812Q357.1875 502.42188 357.34375 501.875Q357.51562 501.3125 357.82812 500.90625Q358.15625 500.5 358.64062 500.28125Q359.125 500.04688 359.75 500.04688Q360.20312 500.04688 360.57812 500.17188Q360.95312 500.29688 361.21875 500.5625Q361.5 500.82812 361.64062 501.25Q361.79688 501.67188 361.79688 502.28125L361.79688 506.5L360.71875 506.5L360.71875 502.32812Q360.71875 501.82812 360.54688 501.53125Q360.39062 501.23438 360.07812 501.09375Q359.78125 500.95312 359.35938 500.95312Q358.89062 500.95312 358.5625 501.125Q358.23438 501.29688 358.04688 501.59375Q357.85938 501.89062 357.76562 502.28125Q357.6875 502.65625 357.6875 503.09375ZM361.79688 502.48438L361.0625 502.71875Q361.0625 502.1875 361.23438 501.71875Q361.40625 501.23438 361.71875 500.85938Q362.04688 500.48438 362.51562 500.26562Q362.98438 500.04688 363.57812 500.04688Q364.09375 500.04688 364.48438 500.1875Q364.89062 500.3125 365.15625 500.59375Q365.42188 500.875 365.5625 501.3125Q365.70312 501.73438 365.70312 502.32812L365.70312 506.5L364.625 506.5L364.625 502.32812Q364.625 501.78125 364.45312 501.5Q364.28125 501.20312 363.98438 501.07812Q363.6875 500.95312 363.26562 500.95312Q362.90625 500.95312 362.625 501.07812Q362.35938 501.20312 362.17188 501.42188Q361.98438 501.625 361.89062 501.90625Q361.79688 502.1875 361.79688 502.48438ZM367.54688 503.40625L367.54688 503.26562Q367.54688 502.57812 367.73438 502.0Q367.9375 501.40625 368.3125 500.96875Q368.6875 500.53125 369.21875 500.29688Q369.75 500.04688 370.42188 500.04688Q371.07812 500.04688 371.60938 500.29688Q372.15625 500.53125 372.53125 500.96875Q372.90625 501.40625 373.10938 502.0Q373.3125 502.57812 373.3125 503.26562L373.3125 503.40625Q373.3125 504.07812 373.10938 504.67188Q372.90625 505.25 372.53125 505.6875Q372.15625 506.125 371.625 506.375Q371.09375 506.625 370.42188 506.625Q369.76562 506.625 369.21875 506.375Q368.6875 506.125 368.3125 505.6875Q367.9375 505.25 367.73438 504.67188Q367.54688 504.07812 367.54688 503.40625ZM368.625 503.26562L368.625 503.40625Q368.625 503.875 368.73438 504.29688Q368.84375 504.71875 369.0625 505.04688Q369.29688 505.35938 369.64062 505.54688Q369.98438 505.71875 370.42188 505.71875Q370.875 505.71875 371.20312 505.54688Q371.54688 505.35938 371.76562 505.04688Q372.0 504.71875 372.10938 504.29688Q372.21875 503.875 372.21875 503.40625L372.21875 503.26562Q372.21875 502.79688 372.10938 502.375Q372.0 501.95312 371.76562 501.64062Q371.54688 501.3125 371.20312 501.125Q370.875 500.9375 370.42188 500.9375Q369.96875 500.9375 369.625 501.125Q369.29688 501.3125 369.0625 501.64062Q368.84375 501.95312 368.73438 502.375Q368.625 502.79688 368.625 503.26562ZM375.90625 501.51562L375.90625 506.5L374.82812 506.5L374.82812 500.15625L375.85938 500.15625L375.90625 501.51562ZM375.65625 503.09375L375.20312 503.07812Q375.20312 502.42188 375.39062 501.875Q375.57812 501.3125 375.92188 500.90625Q376.26562 500.5 376.73438 500.28125Q377.20312 500.04688 377.78125 500.04688Q378.25 500.04688 378.625 500.17188Q379.0 500.29688 379.26562 500.57812Q379.53125 500.84375 379.67188 501.28125Q379.8125 501.71875 379.8125 502.34375L379.8125 506.5L378.71875 506.5L378.71875 502.32812Q378.71875 501.82812 378.57812 501.53125Q378.4375 501.23438 378.15625 501.09375Q377.875 500.95312 377.45312 500.95312Q377.04688 500.95312 376.71875 501.125Q376.39062 501.29688 376.15625 501.59375Q375.92188 501.89062 375.78125 502.28125Q375.65625 502.65625 375.65625 503.09375ZM384.45312 506.625Q383.79688 506.625 383.25 506.40625Q382.71875 506.17188 382.32812 505.76562Q381.95312 505.34375 381.75 504.78125Q381.54688 504.21875 381.54688 503.54688L381.54688 503.3125Q381.54688 502.53125 381.76562 501.92188Q382.0 501.3125 382.39062 500.89062Q382.78125 500.46875 383.28125 500.26562Q383.78125 500.04688 384.3125 500.04688Q385.0 500.04688 385.48438 500.28125Q385.98438 500.51562 386.29688 500.9375Q386.625 501.34375 386.76562 501.92188Q386.92188 502.48438 386.92188 503.14062L386.92188 503.64062L382.1875 503.64062L382.1875 502.75L385.84375 502.75L385.84375 502.67188Q385.8125 502.25 385.65625 501.85938Q385.51562 501.45312 385.1875 501.20312Q384.875 500.9375 384.3125 500.9375Q383.95312 500.9375 383.64062 501.09375Q383.32812 501.25 383.09375 501.5625Q382.875 501.85938 382.75 502.29688Q382.64062 502.73438 382.64062 503.3125L382.64062 503.54688Q382.64062 504.0 382.76562 504.40625Q382.89062 504.79688 383.125 505.09375Q383.375 505.39062 383.71875 505.5625Q384.07812 505.73438 384.51562 505.73438Q385.09375 505.73438 385.48438 505.5Q385.89062 505.26562 386.1875 504.875L386.84375 505.39062Q386.64062 505.70312 386.3125 505.98438Q386.0 506.26562 385.53125 506.45312Q385.07812 506.625 384.45312 506.625ZM388.90625 501.51562L388.90625 506.5L387.82812 506.5L387.82812 500.15625L388.85938 500.15625L388.90625 501.51562ZM388.65625 503.09375L388.20312 503.07812Q388.20312 502.42188 388.39062 501.875Q388.57812 501.3125 388.92188 500.90625Q389.26562 500.5 389.73438 500.28125Q390.20312 500.04688 390.78125 500.04688Q391.25 500.04688 391.625 500.17188Q392.0 500.29688 392.26562 500.57812Q392.53125 500.84375 392.67188 501.28125Q392.8125 501.71875 392.8125 502.34375L392.8125 506.5L391.71875 506.5L391.71875 502.32812Q391.71875 501.82812 391.57812 501.53125Q391.4375 501.23438 391.15625 501.09375Q390.875 500.95312 390.45312 500.95312Q390.04688 500.95312 389.71875 501.125Q389.39062 501.29688 389.15625 501.59375Q388.92188 501.89062 388.78125 502.28125Q388.65625 502.65625 388.65625 503.09375Z" fill-rule="nonzero"/><path stroke="#000000" stroke-width="1.0" stroke-linecap="butt" d="M365.0 290.0L201.0 385.0" fill-rule="nonzero"/><path fill="#000000" d="M166.67188 399.57812L166.67188 400.5L162.40625 400.5L162.40625 399.57812L166.67188 399.57812ZM162.625 391.96875L162.625 400.5L161.48438 400.5L161.48438 391.96875L162.625 391.96875ZM168.5 394.15625L168.5 400.5L167.42188 400.5L167.42188 394.15625L168.5 394.15625ZM167.32812 392.48438Q167.32812 392.21875 167.48438 392.03125Q167.65625 391.84375 167.96875 391.84375Q168.28125 391.84375 168.4375 392.03125Q168.60938 392.21875 168.60938 392.48438Q168.60938 392.73438 168.4375 392.92188Q168.28125 393.09375 167.96875 393.09375Q167.65625 393.09375 167.48438 392.92188Q167.32812 392.73438 167.32812 392.48438ZM171.40625 395.51562L171.40625 400.5L170.32812 400.5L170.32812 394.15625L171.35938 394.15625L171.40625 395.51562ZM171.15625 397.09375L170.70312 397.07812Q170.70312 396.42188 170.89062 395.875Q171.07812 395.3125 171.42188 394.90625Q171.76562 394.5 172.23438 394.28125Q172.70312 394.04688 173.28125 394.04688Q173.75 394.04688 174.125 394.17188Q174.5 394.29688 174.76562 394.57812Q175.03125 394.84375 175.17188 395.28125Q175.3125 395.71875 175.3125 396.34375L175.3125 400.5L174.21875 400.5L174.21875 396.32812Q174.21875 395.82812 174.07812 395.53125Q173.9375 395.23438 173.65625 395.09375Q173.375 394.95312 172.95312 394.95312Q172.54688 394.95312 172.21875 395.125Q171.89062 395.29688 171.65625 395.59375Q171.42188 395.89062 171.28125 396.28125Q171.15625 396.65625 171.15625 397.09375ZM181.0625 399.42188L181.0625 396.15625Q181.0625 395.78125 180.90625 395.5Q180.76562 395.21875 180.46875 395.07812Q180.17188 394.92188 179.73438 394.92188Q179.3125 394.92188 179.0 395.0625Q178.70312 395.20312 178.53125 395.4375Q178.35938 395.65625 178.35938 395.92188L177.28125 395.92188Q177.28125 395.57812 177.45312 395.25Q177.625 394.90625 177.95312 394.64062Q178.28125 394.35938 178.75 394.20312Q179.21875 394.04688 179.79688 394.04688Q180.48438 394.04688 181.01562 394.28125Q181.54688 394.51562 181.84375 394.98438Q182.15625 395.45312 182.15625 396.15625L182.15625 399.10938Q182.15625 399.4375 182.20312 399.79688Q182.26562 400.14062 182.375 400.40625L182.375 400.5L181.23438 400.5Q181.15625 400.3125 181.10938 400.0Q181.0625 399.6875 181.0625 399.42188ZM181.25 396.65625L181.26562 397.42188L180.17188 397.42188Q179.70312 397.42188 179.34375 397.5Q178.98438 397.5625 178.73438 397.71875Q178.48438 397.85938 178.35938 398.07812Q178.23438 398.29688 178.23438 398.59375Q178.23438 398.89062 178.35938 399.14062Q178.5 399.375 178.76562 399.53125Q179.04688 399.67188 179.4375 399.67188Q179.9375 399.67188 180.3125 399.46875Q180.70312 399.25 180.92188 398.95312Q181.15625 398.64062 181.17188 398.34375L181.64062 398.875Q181.59375 399.10938 181.40625 399.42188Q181.23438 399.71875 180.92188 400.0Q180.625 400.26562 180.20312 400.45312Q179.79688 400.625 179.28125 400.625Q178.64062 400.625 178.15625 400.375Q177.67188 400.10938 177.40625 399.6875Q177.14062 399.26562 177.14062 398.73438Q177.14062 398.21875 177.32812 397.84375Q177.53125 397.45312 177.90625 397.1875Q178.28125 396.92188 178.8125 396.79688Q179.34375 396.65625 180.0 396.65625L181.25 396.65625ZM185.5 391.5L185.5 400.5L184.42188 400.5L184.42188 391.5L185.5 391.5ZM187.04688 397.40625L187.04688 397.26562Q187.04688 396.57812 187.23438 396.0Q187.4375 395.40625 187.8125 394.96875Q188.1875 394.53125 188.71875 394.29688Q189.25 394.04688 189.92188 394.04688Q190.57812 394.04688 191.10938 394.29688Q191.65625 394.53125 192.03125 394.96875Q192.40625 395.40625 192.60938 396.0Q192.8125 396.57812 192.8125 397.26562L192.8125 397.40625Q192.8125 398.07812 192.60938 398.67188Q192.40625 399.25 192.03125 399.6875Q191.65625 400.125 191.125 400.375Q190.59375 400.625 189.92188 400.625Q189.26562 400.625 188.71875 400.375Q188.1875 400.125 187.8125 399.6875Q187.4375 399.25 187.23438 398.67188Q187.04688 398.07812 187.04688 397.40625ZM188.125 397.26562L188.125 397.40625Q188.125 397.875 188.23438 398.29688Q188.34375 398.71875 188.5625 399.04688Q188.79688 399.35938 189.14062 399.54688Q189.48438 399.71875 189.92188 399.71875Q190.375 399.71875 190.70312 399.54688Q191.04688 399.35938 191.26562 399.04688Q191.5 398.71875 191.60938 398.29688Q191.71875 397.875 191.71875 397.40625L191.71875 397.26562Q191.71875 396.79688 191.60938 396.375Q191.5 395.95312 191.26562 395.64062Q191.04688 395.3125 190.70312 395.125Q190.375 394.9375 189.92188 394.9375Q189.46875 394.9375 189.125 395.125Q188.79688 395.3125 188.5625 395.64062Q188.34375 395.95312 188.23438 396.375Q188.125 396.79688 188.125 397.26562ZM194.04688 397.40625L194.04688 397.26562Q194.04688 396.57812 194.23438 396.0Q194.4375 395.40625 194.8125 394.96875Q195.1875 394.53125 195.71875 394.29688Q196.25 394.04688 196.92188 394.04688Q197.57812 394.04688 198.10938 394.29688Q198.65625 394.53125 199.03125 394.96875Q199.40625 395.40625 199.60938 396.0Q199.8125 396.57812 199.8125 397.26562L199.8125 397.40625Q199.8125 398.07812 199.60938 398.67188Q199.40625 399.25 199.03125 399.6875Q198.65625 400.125 198.125 400.375Q197.59375 400.625 196.92188 400.625Q196.26562 400.625 195.71875 400.375Q195.1875 400.125 194.8125 399.6875Q194.4375 399.25 194.23438 398.67188Q194.04688 398.07812 194.04688 397.40625ZM195.125 397.26562L195.125 397.40625Q195.125 397.875 195.23438 398.29688Q195.34375 398.71875 195.5625 399.04688Q195.79688 399.35938 196.14062 399.54688Q196.48438 399.71875 196.92188 399.71875Q197.375 399.71875 197.70312 399.54688Q198.04688 399.35938 198.26562 399.04688Q198.5 398.71875 198.60938 398.29688Q198.71875 397.875 198.71875 397.40625L198.71875 397.26562Q198.71875 396.79688 198.60938 396.375Q198.5 395.95312 198.26562 395.64062Q198.04688 395.3125 197.70312 395.125Q197.375 394.9375 196.92188 394.9375Q196.46875 394.9375 196.125 395.125Q195.79688 395.3125 195.5625 395.64062Q195.34375 395.95312 195.23438 396.375Q195.125 396.79688 195.125 397.26562ZM202.5 391.5L202.5 400.5L201.42188 400.5L201.42188 391.5L202.5 391.5Z" fill-rule="nonzero"/><path stroke="#000000" stroke-width="1.0" stroke-linecap="butt" d="M365.0 290.0L201.0 195.0" fill-rule="nonzero"/><path fill="#000000" d="M164.03125 186.34375Q164.03125 186.04688 163.9375 185.8125Q163.85938 185.57812 163.625 185.39062Q163.40625 185.20312 163.0 185.03125Q162.60938 184.85938 162.01562 184.6875Q161.375 184.5 160.85938 184.28125Q160.35938 184.04688 159.98438 183.75Q159.625 183.4375 159.4375 183.0625Q159.25 182.67188 159.25 182.17188Q159.25 181.67188 159.45312 181.25Q159.65625 180.82812 160.03125 180.51562Q160.42188 180.20312 160.95312 180.03125Q161.48438 179.84375 162.14062 179.84375Q163.10938 179.84375 163.78125 180.21875Q164.45312 180.57812 164.79688 181.17188Q165.15625 181.76562 165.15625 182.42188L164.03125 182.42188Q164.03125 181.95312 163.8125 181.57812Q163.60938 181.20312 163.1875 181.0Q162.78125 180.78125 162.14062 180.78125Q161.54688 180.78125 161.14062 180.96875Q160.75 181.14062 160.5625 181.45312Q160.375 181.76562 160.375 182.15625Q160.375 182.42188 160.48438 182.65625Q160.60938 182.875 160.84375 183.0625Q161.09375 183.25 161.46875 183.40625Q161.84375 183.5625 162.375 183.70312Q163.09375 183.90625 163.625 184.17188Q164.15625 184.42188 164.5 184.73438Q164.84375 185.04688 165.0 185.4375Q165.17188 185.82812 165.17188 186.32812Q165.17188 186.85938 164.95312 187.28125Q164.75 187.70312 164.35938 188.0Q163.96875 188.29688 163.42188 188.46875Q162.875 188.625 162.20312 188.625Q161.60938 188.625 161.03125 188.45312Q160.46875 188.28125 160.0 187.95312Q159.53125 187.625 159.25 187.15625Q158.96875 186.67188 158.96875 186.03125L160.09375 186.03125Q160.09375 186.46875 160.26562 186.78125Q160.4375 187.09375 160.73438 187.29688Q161.03125 187.5 161.40625 187.60938Q161.78125 187.70312 162.20312 187.70312Q162.79688 187.70312 163.20312 187.54688Q163.60938 187.375 163.8125 187.07812Q164.03125 186.76562 164.03125 186.34375ZM166.04688 185.40625L166.04688 185.26562Q166.04688 184.57812 166.23438 184.0Q166.4375 183.40625 166.8125 182.96875Q167.1875 182.53125 167.71875 182.29688Q168.25 182.04688 168.92188 182.04688Q169.57812 182.04688 170.10938 182.29688Q170.65625 182.53125 171.03125 182.96875Q171.40625 183.40625 171.60938 184.0Q171.8125 184.57812 171.8125 185.26562L171.8125 185.40625Q171.8125 186.07812 171.60938 186.67188Q171.40625 187.25 171.03125 187.6875Q170.65625 188.125 170.125 188.375Q169.59375 188.625 168.92188 188.625Q168.26562 188.625 167.71875 188.375Q167.1875 188.125 166.8125 187.6875Q166.4375 187.25 166.23438 186.67188Q166.04688 186.07812 166.04688 185.40625ZM167.125 185.26562L167.125 185.40625Q167.125 185.875 167.23438 186.29688Q167.34375 186.71875 167.5625 187.04688Q167.79688 187.35938 168.14062 187.54688Q168.48438 187.71875 168.92188 187.71875Q169.375 187.71875 169.70312 187.54688Q170.04688 187.35938 170.26562 187.04688Q170.5 186.71875 170.60938 186.29688Q170.71875 185.875 170.71875 185.40625L170.71875 185.26562Q170.71875 184.79688 170.60938 184.375Q170.5 183.95312 170.26562 183.64062Q170.04688 183.3125 169.70312 183.125Q169.375 182.9375 168.92188 182.9375Q168.46875 182.9375 168.125 183.125Q167.79688 183.3125 167.5625 183.64062Q167.34375 183.95312 167.23438 184.375Q167.125 184.79688 167.125 185.26562ZM174.40625 183.51562L174.40625 188.5L173.32812 188.5L173.32812 182.15625L174.35938 182.15625L174.40625 183.51562ZM174.15625 185.09375L173.70312 185.07812Q173.70312 184.42188 173.89062 183.875Q174.07812 183.3125 174.42188 182.90625Q174.76562 182.5 175.23438 182.28125Q175.70312 182.04688 176.28125 182.04688Q176.75 182.04688 177.125 182.17188Q177.5 182.29688 177.76562 182.57812Q178.03125 182.84375 178.17188 183.28125Q178.3125 183.71875 178.3125 184.34375L178.3125 188.5L177.21875 188.5L177.21875 184.32812Q177.21875 183.82812 177.07812 183.53125Q176.9375 183.23438 176.65625 183.09375Q176.375 182.95312 175.95312 182.95312Q175.54688 182.95312 175.21875 183.125Q174.89062 183.29688 174.65625 183.59375Q174.42188 183.89062 174.28125 184.28125Q174.15625 184.65625 174.15625 185.09375ZM184.01562 186.8125Q184.01562 186.57812 183.90625 186.375Q183.8125 186.17188 183.5 186.01562Q183.1875 185.84375 182.5625 185.71875Q182.03125 185.60938 181.60938 185.46875Q181.1875 185.3125 180.89062 185.09375Q180.59375 184.875 180.4375 184.57812Q180.28125 184.28125 180.28125 183.89062Q180.28125 183.51562 180.4375 183.1875Q180.60938 182.84375 180.90625 182.59375Q181.21875 182.32812 181.65625 182.1875Q182.09375 182.04688 182.625 182.04688Q183.39062 182.04688 183.92188 182.3125Q184.46875 182.57812 184.75 183.03125Q185.03125 183.48438 185.03125 184.01562L183.95312 184.01562Q183.95312 183.76562 183.79688 183.51562Q183.64062 183.26562 183.34375 183.10938Q183.04688 182.9375 182.625 182.9375Q182.17188 182.9375 181.89062 183.07812Q181.60938 183.20312 181.48438 183.42188Q181.35938 183.625 181.35938 183.85938Q181.35938 184.04688 181.42188 184.1875Q181.48438 184.3125 181.64062 184.4375Q181.79688 184.54688 182.07812 184.65625Q182.375 184.75 182.82812 184.84375Q183.60938 185.01562 184.10938 185.26562Q184.60938 185.51562 184.85938 185.875Q185.10938 186.21875 185.10938 186.73438Q185.10938 187.15625 184.92188 187.5Q184.75 187.84375 184.42188 188.09375Q184.10938 188.34375 183.65625 188.48438Q183.20312 188.625 182.65625 188.625Q181.8125 188.625 181.23438 188.32812Q180.65625 188.01562 180.35938 187.54688Q180.0625 187.0625 180.0625 186.54688L181.14062 186.54688Q181.17188 186.98438 181.40625 187.25Q181.64062 187.51562 181.96875 187.625Q182.3125 187.71875 182.65625 187.71875Q183.09375 187.71875 183.39062 187.60938Q183.70312 187.48438 183.85938 187.28125Q184.01562 187.07812 184.01562 186.8125ZM188.98438 182.15625L188.98438 182.98438L185.54688 182.98438L185.54688 182.15625L188.98438 182.15625ZM186.71875 180.625L187.79688 180.625L187.79688 186.92188Q187.79688 187.25 187.89062 187.42188Q188.0 187.57812 188.15625 187.64062Q188.3125 187.6875 188.5 187.6875Q188.625 187.6875 188.76562 187.65625Q188.92188 187.625 189.0 187.60938L189.01562 188.5Q188.875 188.54688 188.67188 188.57812Q188.46875 188.625 188.17188 188.625Q187.78125 188.625 187.4375 188.46875Q187.10938 188.29688 186.90625 187.9375Q186.71875 187.5625 186.71875 186.92188L186.71875 180.625ZM191.5 182.15625L191.5 188.5L190.42188 188.5L190.42188 182.15625L191.5 182.15625ZM190.32812 180.48438Q190.32812 180.21875 190.48438 180.03125Q190.65625 179.84375 190.96875 179.84375Q191.28125 179.84375 191.4375 180.03125Q191.60938 180.21875 191.60938 180.48438Q191.60938 180.73438 191.4375 180.92188Q191.28125 181.09375 190.96875 181.09375Q190.65625 181.09375 190.48438 180.92188Q190.32812 180.73438 190.32812 180.48438ZM197.4375 182.15625L198.42188 182.15625L198.42188 188.35938Q198.42188 189.20312 198.07812 189.79688Q197.73438 190.39062 197.125 190.6875Q196.53125 191.0 195.73438 191.0Q195.40625 191.0 194.95312 190.89062Q194.51562 190.79688 194.09375 190.54688Q193.67188 190.3125 193.39062 189.90625L193.95312 189.25Q194.35938 189.73438 194.78125 189.92188Q195.21875 190.10938 195.65625 190.10938Q196.17188 190.10938 196.54688 189.90625Q196.92188 189.71875 197.125 189.34375Q197.32812 188.96875 197.32812 188.42188L197.32812 183.54688L197.4375 182.15625ZM193.0625 185.40625L193.0625 185.28125Q193.0625 184.54688 193.23438 183.95312Q193.42188 183.35938 193.73438 182.9375Q194.0625 182.5 194.51562 182.28125Q194.98438 182.04688 195.57812 182.04688Q196.17188 182.04688 196.60938 182.25Q197.0625 182.45312 197.375 182.85938Q197.6875 183.25 197.875 183.8125Q198.0625 184.35938 198.125 185.0625L198.125 185.60938Q198.0625 186.29688 197.875 186.85938Q197.6875 187.42188 197.375 187.8125Q197.0625 188.20312 196.60938 188.42188Q196.15625 188.625 195.5625 188.625Q194.98438 188.625 194.53125 188.39062Q194.07812 188.14062 193.75 187.70312Q193.42188 187.26562 193.23438 186.6875Q193.0625 186.09375 193.0625 185.40625ZM194.15625 185.28125L194.15625 185.40625Q194.15625 185.875 194.25 186.29688Q194.34375 186.70312 194.54688 187.03125Q194.75 187.34375 195.0625 187.53125Q195.39062 187.70312 195.82812 187.70312Q196.35938 187.70312 196.70312 187.46875Q197.0625 187.23438 197.26562 186.85938Q197.48438 186.48438 197.59375 186.04688L197.59375 184.64062Q197.53125 184.3125 197.39062 184.01562Q197.26562 183.71875 197.0625 183.48438Q196.85938 183.23438 196.54688 183.09375Q196.25 182.95312 195.82812 182.95312Q195.39062 182.95312 195.0625 183.14062Q194.75 183.32812 194.54688 183.65625Q194.34375 183.96875 194.25 184.39062Q194.15625 184.79688 194.15625 185.28125ZM202.95312 188.625Q202.29688 188.625 201.75 188.40625Q201.21875 188.17188 200.82812 187.76562Q200.45312 187.34375 200.25 186.78125Q200.04688 186.21875 200.04688 185.54688L200.04688 185.3125Q200.04688 184.53125 200.26562 183.92188Q200.5 183.3125 200.89062 182.89062Q201.28125 182.46875 201.78125 182.26562Q202.28125 182.04688 202.8125 182.04688Q203.5 182.04688 203.98438 182.28125Q204.48438 182.51562 204.79688 182.9375Q205.125 183.34375 205.26562 183.92188Q205.42188 184.48438 205.42188 185.14062L205.42188 185.64062L200.6875 185.64062L200.6875 184.75L204.34375 184.75L204.34375 184.67188Q204.3125 184.25 204.15625 183.85938Q204.01562 183.45312 203.6875 183.20312Q203.375 182.9375 202.8125 182.9375Q202.45312 182.9375 202.14062 183.09375Q201.82812 183.25 201.59375 183.5625Q201.375 183.85938 201.25 184.29688Q201.14062 184.73438 201.14062 185.3125L201.14062 185.54688Q201.14062 186.0 201.26562 186.40625Q201.39062 186.79688 201.625 187.09375Q201.875 187.39062 202.21875 187.5625Q202.57812 187.73438 203.01562 187.73438Q203.59375 187.73438 203.98438 187.5Q204.39062 187.26562 204.6875 186.875L205.34375 187.39062Q205.14062 187.70312 204.8125 187.98438Q204.5 188.26562 204.03125 188.45312Q203.57812 188.625 202.95312 188.625Z" fill-rule="nonzero"/><path stroke="#000000" stroke-width="1.0" stroke-linecap="butt" d="M365.0 290.0L365.0 101.0" fill-rule="nonzero"/><path stroke="#ff0000" stroke-width="2.0" stroke-linecap="butt" stroke-opacity="0.7019608" stroke-dasharray="8.0,6.0,2.0,6.0" d="M365.0 82.0L540.0 189.0L436.0 331.0L365.0 366.0L321.0 315.0L327.0 268.0Z" fill-rule="nonzero"/><path fill="#ff0000" fill-opacity="0.7019608" d="M369.5 82.0C369.5 84.48528 367.4853 86.5 365.0 86.5C362.5147 86.5 360.5 84.48528 360.5 82.0C360.5 79.51472 362.5147 77.5 365.0 77.5C367.4853 77.5 369.5 79.51472 369.5 82.0Z" fill-rule="nonzero"/><path fill="#ff0000" fill-opacity="0.7019608" d="M544.5 189.0C544.5 191.48528 542.4853 193.5 540.0 193.5C537.5147 193.5 535.5 191.48528 535.5 189.0C535.5 186.51472 537.5147 184.5 540.0 184.5C542.4853 184.5 544.5 186.51472 544.5 189.0Z" fill-rule="nonzero"/><path fill="#ff0000" fill-opacity="0.7019608" d="M440.5 331.0C440.5 333.4853 438.4853 335.5 436.0 335.5C433.5147 335.5 431.5 333.4853 431.5 331.0C431.5 328.5147 433.5147 326.5 436.0 326.5C438.4853 326.5 440.5 328.5147 440.5 331.0Z" fill-rule="nonzero"/><path fill="#ff0000" fill-opacity="0.7019608" d="M369.5 366.0C369.5 368.4853 367.4853 370.5 365.0 370.5C362.5147 370.5 360.5 368.4853 360.5 366.0C360.5 363.5147 362.5147 361.5 365.0 361.5C367.4853 361.5 369.5 363.5147 369.5 366.0Z" fill-rule="nonzero"/><path fill="#ff0000" fill-opacity="0.7019608" d="M325.5 315.0C325.5 317.4853 323.4853 319.5 321.0 319.5C318.5147 319.5 316.5 317.4853 316.5 315.0C316.5 312.5147 318.5147 310.5 321.0 310.5C323.4853 310.5 325.5 312.5147 325.5 315.0Z" fill-rule="nonzero"/><path fill="#ff0000" fill-opacity="0.7019608" d="M331.5 268.0C331.5 270.4853 329.4853 272.5 327.0 272.5C324.5147 272.5 322.5 270.4853 322.5 268.0C322.5 265.5147 324.5147 263.5 327.0 263.5C329.4853 263.5 331.5 265.5147 331.5 268.0Z" fill-rule="nonzero"/><path fill="#757575" d="M28.36875 45.9L28.36875 31.587502L33.74375 31.587502Q35.384377 31.587502 36.36875 32.025Q37.353127 32.446877 37.915627 33.353127Q38.478127 34.259377 38.478127 35.24375Q38.478127 36.165627 37.978127 36.978127Q37.49375 37.790627 36.478127 38.275Q37.775 38.665627 38.478127 39.5875Q39.18125 40.49375 39.18125 41.74375Q39.18125 42.759377 38.74375 43.61875Q38.321877 44.478127 37.696877 44.946877Q37.071877 45.415627 36.134377 45.665627Q35.196877 45.9 33.821877 45.9L28.36875 45.9ZM30.259375 37.603127L33.353127 37.603127Q34.61875 37.603127 35.165627 37.43125Q35.884377 37.2125 36.24375 36.728127Q36.61875 36.228127 36.61875 35.4625Q36.61875 34.759377 36.275 34.2125Q35.93125 33.665627 35.290627 33.478127Q34.665627 33.275 33.11875 33.275L30.259375 33.275L30.259375 37.603127ZM30.259375 44.2125L33.821877 44.2125Q34.74375 44.2125 35.11875 44.134377Q35.775 44.025 36.2125 43.759377Q36.65 43.478127 36.93125 42.9625Q37.2125 42.43125 37.2125 41.74375Q37.2125 40.946877 36.80625 40.353127Q36.4 39.759377 35.665627 39.525Q34.93125 39.290627 33.571877 39.290627L30.259375 39.290627L30.259375 44.2125ZM47.99375 44.61875Q47.009377 45.446877 46.103127 45.790627Q45.196877 46.134377 44.165627 46.134377Q42.4625 46.134377 41.540627 45.30625Q40.61875 44.4625 40.61875 43.165627Q40.61875 42.4 40.9625 41.775Q41.321877 41.15 41.884377 40.775Q42.446877 40.384377 43.15 40.18125Q43.665627 40.05625 44.7125 39.915627Q46.8375 39.665627 47.8375 39.321877Q47.853127 38.9625 47.853127 38.853127Q47.853127 37.790627 47.353127 37.3375Q46.68125 36.74375 45.353127 36.74375Q44.103127 36.74375 43.509377 37.18125Q42.93125 37.61875 42.65 38.728127L40.93125 38.49375Q41.165627 37.384377 41.696877 36.7125Q42.228127 36.025 43.24375 35.665627Q44.259377 35.290627 45.603127 35.290627Q46.93125 35.290627 47.759377 35.603127Q48.5875 35.915627 48.978127 36.4Q49.36875 36.86875 49.525 37.5875Q49.61875 38.040627 49.61875 39.2125L49.61875 41.55625Q49.61875 44.009377 49.728127 44.665627Q49.8375 45.30625 50.18125 45.9L48.3375 45.9Q48.071877 45.353127 47.99375 44.61875ZM47.8375 40.696877Q46.884377 41.0875 44.9625 41.353127Q43.884377 41.509377 43.43125 41.7125Q42.99375 41.9 42.74375 42.275Q42.49375 42.65 42.49375 43.11875Q42.49375 43.821877 43.025 44.290627Q43.55625 44.759377 44.5875 44.759377Q45.603127 44.759377 46.384377 44.321877Q47.18125 43.86875 47.55625 43.103127Q47.8375 42.49375 47.8375 41.3375L47.8375 40.696877ZM55.103127 45.9L51.15 35.525L53.009377 35.525L55.24375 41.74375Q55.603127 42.74375 55.9 43.821877Q56.134377 43.009377 56.55625 41.853127L58.853127 35.525L60.665627 35.525L56.74375 45.9L55.103127 45.9ZM67.99375 44.61875Q67.00938 45.446877 66.10313 45.790627Q65.19688 46.134377 64.16563 46.134377Q62.4625 46.134377 61.540627 45.30625Q60.61875 44.4625 60.61875 43.165627Q60.61875 42.4 60.9625 41.775Q61.321877 41.15 61.884377 40.775Q62.446877 40.384377 63.15 40.18125Q63.665627 40.05625 64.7125 39.915627Q66.8375 39.665627 67.8375 39.321877Q67.85313 38.9625 67.85313 38.853127Q67.85313 37.790627 67.35313 37.3375Q66.68125 36.74375 65.35313 36.74375Q64.10313 36.74375 63.509377 37.18125Q62.93125 37.61875 62.65 38.728127L60.93125 38.49375Q61.165627 37.384377 61.696877 36.7125Q62.228127 36.025 63.24375 35.665627Q64.25938 35.290627 65.60313 35.290627Q66.93125 35.290627 67.75938 35.603127Q68.5875 35.915627 68.97813 36.4Q69.36875 36.86875 69.525 37.5875Q69.61875 38.040627 69.61875 39.2125L69.61875 41.55625Q69.61875 44.009377 69.72813 44.665627Q69.8375 45.30625 70.18125 45.9L68.3375 45.9Q68.07188 45.353127 67.99375 44.61875ZM67.8375 40.696877Q66.88438 41.0875 64.9625 41.353127Q63.884377 41.509377 63.43125 41.7125Q62.99375 41.9 62.74375 42.275Q62.49375 42.65 62.49375 43.11875Q62.49375 43.821877 63.025 44.290627Q63.55625 44.759377 64.5875 44.759377Q65.60313 44.759377 66.38438 44.321877Q67.18125 43.86875 67.55625 43.103127Q67.8375 42.49375 67.8375 41.3375L67.8375 40.696877ZM72.19688 45.9L72.19688 35.525L73.775 35.525L73.775 37.103127Q74.38438 35.99375 74.9 35.65Q75.41563 35.290627 76.025 35.290627Q76.91563 35.290627 77.8375 35.853127L77.22813 37.49375Q76.5875 37.103127 75.94688 37.103127Q75.36875 37.103127 74.9 37.4625Q74.44688 37.80625 74.24375 38.415627Q73.9625 39.353127 73.9625 40.4625L73.9625 45.9L72.19688 45.9ZM79.22813 33.603127L79.22813 31.587502L80.99375 31.587502L80.99375 33.603127L79.22813 33.603127ZM79.22813 45.9L79.22813 35.525L80.99375 35.525L80.99375 45.9L79.22813 45.9ZM89.99375 44.61875Q89.00938 45.446877 88.10313 45.790627Q87.19688 46.134377 86.16563 46.134377Q84.4625 46.134377 83.54063 45.30625Q82.61875 44.4625 82.61875 43.165627Q82.61875 42.4 82.9625 41.775Q83.32188 41.15 83.88438 40.775Q84.44688 40.384377 85.15 40.18125Q85.66563 40.05625 86.7125 39.915627Q88.8375 39.665627 89.8375 39.321877Q89.85313 38.9625 89.85313 38.853127Q89.85313 37.790627 89.35313 37.3375Q88.68125 36.74375 87.35313 36.74375Q86.10313 36.74375 85.50938 37.18125Q84.93125 37.61875 84.65 38.728127L82.93125 38.49375Q83.16563 37.384377 83.69688 36.7125Q84.22813 36.025 85.24375 35.665627Q86.25938 35.290627 87.60313 35.290627Q88.93125 35.290627 89.75938 35.603127Q90.5875 35.915627 90.97813 36.4Q91.36875 36.86875 91.525 37.5875Q91.61875 38.040627 91.61875 39.2125L91.61875 41.55625Q91.61875 44.009377 91.72813 44.665627Q91.8375 45.30625 92.18125 45.9L90.3375 45.9Q90.07188 45.353127 89.99375 44.61875ZM89.8375 40.696877Q88.88438 41.0875 86.9625 41.353127Q85.88438 41.509377 85.43125 41.7125Q84.99375 41.9 84.74375 42.275Q84.49375 42.65 84.49375 43.11875Q84.49375 43.821877 85.025 44.290627Q85.55625 44.759377 86.5875 44.759377Q87.60313 44.759377 88.38438 44.321877Q89.18125 43.86875 89.55625 43.103127Q89.8375 42.49375 89.8375 41.3375L89.8375 40.696877ZM94.2125 45.9L94.2125 35.525L95.80625 35.525L95.80625 37.009377Q96.94688 35.290627 99.10313 35.290627Q100.04063 35.290627 100.82188 35.634377Q101.61875 35.9625 102.00938 36.509377Q102.4 37.05625 102.55625 37.80625Q102.65 38.30625 102.65 39.525L102.65 45.9L100.88438 45.9L100.88438 39.5875Q100.88438 38.509377 100.68125 37.978127Q100.47813 37.446877 99.94688 37.134377Q99.43125 36.821877 98.72813 36.821877Q97.60313 36.821877 96.79063 37.540627Q95.97813 38.24375 95.97813 40.228127L95.97813 45.9L94.2125 45.9ZM110.36875 45.9L110.36875 31.587502L115.74375 31.587502Q117.38438 31.587502 118.36875 32.025Q119.35313 32.446877 119.91563 33.353127Q120.47813 34.259377 120.47813 35.24375Q120.47813 36.165627 119.97813 36.978127Q119.49375 37.790627 118.47813 38.275Q119.775 38.665627 120.47813 39.5875Q121.18125 40.49375 121.18125 41.74375Q121.18125 42.759377 120.74375 43.61875Q120.32188 44.478127 119.69688 44.946877Q119.07188 45.415627 118.13438 45.665627Q117.19688 45.9 115.82188 45.9L110.36875 45.9ZM112.25938 37.603127L115.35313 37.603127Q116.61875 37.603127 117.16563 37.43125Q117.88438 37.2125 118.24375 36.728127Q118.61875 36.228127 118.61875 35.4625Q118.61875 34.759377 118.275 34.2125Q117.93125 33.665627 117.29063 33.478127Q116.66563 33.275 115.11875 33.275L112.25938 33.275L112.25938 37.603127ZM112.25938 44.2125L115.82188 44.2125Q116.74375 44.2125 117.11875 44.134377Q117.775 44.025 118.2125 43.759377Q118.65 43.478127 118.93125 42.9625Q119.2125 42.43125 119.2125 41.74375Q119.2125 40.946877 118.80625 40.353127Q118.4 39.759377 117.66563 39.525Q116.93125 39.290627 115.57188 39.290627L112.25938 39.290627L112.25938 44.2125ZM130.00937 45.9L130.00937 44.36875Q128.80624 46.134377 126.72813 46.134377Q125.80625 46.134377 125.00938 45.790627Q124.2125 45.43125 123.82188 44.9Q123.44688 44.36875 123.29063 43.5875Q123.18125 43.071877 123.18125 41.946877L123.18125 35.525L124.93125 35.525L124.93125 41.275Q124.93125 42.65 125.04063 43.134377Q125.2125 43.821877 125.74375 44.228127Q126.29063 44.61875 127.07188 44.61875Q127.86875 44.61875 128.55624 44.2125Q129.25937 43.80625 129.54062 43.11875Q129.8375 42.415627 129.8375 41.0875L129.8375 35.525L131.5875 35.525L131.5875 45.9L130.00937 45.9ZM139.94687 45.9L139.94687 44.5875Q138.9625 46.134377 137.04062 46.134377Q135.80624 46.134377 134.75937 45.446877Q133.72812 44.759377 133.15 43.540627Q132.5875 42.321877 132.5875 40.728127Q132.5875 39.165627 133.10312 37.9Q133.61874 36.634377 134.65 35.9625Q135.69687 35.290627 136.9625 35.290627Q137.9 35.290627 138.63437 35.696877Q139.36874 36.0875 139.8375 36.7125L139.8375 31.587502L141.57187 31.587502L141.57187 45.9L139.94687 45.9ZM134.38437 40.728127Q134.38437 42.7125 135.22812 43.696877Q136.07187 44.68125 137.2125 44.68125Q138.36874 44.68125 139.16562 43.74375Q139.97812 42.80625 139.97812 40.86875Q139.97812 38.74375 139.15 37.74375Q138.3375 36.74375 137.13437 36.74375Q135.9625 36.74375 135.16562 37.7125Q134.38437 38.665627 134.38437 40.728127Z" fill-rule="nonzero"/></svg>