<svg version="1.1" viewBox="0.0 0.0 730.0 538.0" fill="none" stroke="none" stroke-linecap="square" stroke-miterlimit="10" width="730" height="538" xmlns:xlink="http://www.w3.org/1999/xlink" xmlns="http://www.w3.org/2000/svg"><path fill="#ffffff" d="M0 0L730.0 0L730.0 538.0L0 538.0L0 0Z" fill-rule="nonzero"/><path fill="#ffffff" d="M26.9 68.833336L703.10004 68.833336L703.10004 511.1L26.9 511.1L26.9 68.833336Z" fill-rule="nonzero"/><path stroke="#000000" stroke-width="1.0" stroke-linecap="butt" d="M365.0 290.0C365.0 290.0 365.0 290.0 365.0 290.0C365.0 290.0 365.0 290.0 365.0 290.0C365.0 290.0 365.0 290.0 365.0 290.0C365.0 290.0 365.0 290.0 365.0 290.0" fill-rule="nonzero"/><path fill="#000000" d="M353.0625 282.04688L353.0625 283.35938Q353.0625 284.40625 352.875 285.125Q352.6875 285.84375 352.32812 286.28125Q351.98438 286.71875 351.48438 286.92188Q351.0 287.125 350.375 287.125Q349.89062 287.125 349.46875 287.0Q349.04688 286.875 348.71875 286.60938Q348.39062 286.32812 348.15625 285.89062Q347.92188 285.45312 347.79688 284.82812Q347.67188 284.1875 347.67188 283.35938L347.67188 282.04688Q347.67188 281.0 347.85938 280.29688Q348.0625 279.59375 348.40625 279.15625Q348.76562 278.71875 349.25 278.53125Q349.75 278.34375 350.35938 278.34375Q350.85938 278.34375 351.28125 278.46875Q351.70312 278.59375 352.03125 278.85938Q352.35938 279.10938 352.57812 279.54688Q352.8125 279.96875 352.9375 280.59375Q353.0625 281.21875 353.0625 282.04688ZM351.96875 283.53125L351.96875 281.875Q351.96875 281.29688 351.90625 280.85938Q351.84375 280.42188 351.70312 280.10938Q351.57812 279.79688 351.375 279.60938Q351.1875 279.42188 350.9375 279.32812Q350.6875 279.23438 350.35938 279.23438Q349.98438 279.23438 349.67188 279.375Q349.375 279.51562 349.17188 279.82812Q348.96875 280.14062 348.85938 280.65625Q348.76562 281.15625 348.76562 281.875L348.76562 283.53125Q348.76562 284.10938 348.82812 284.54688Q348.90625 284.98438 349.03125 285.3125Q349.17188 285.625 349.35938 285.82812Q349.5625 286.03125 349.8125 286.125Q350.0625 286.21875 350.375 286.21875Q350.78125 286.21875 351.07812 286.07812Q351.375 285.92188 351.57812 285.59375Q351.78125 285.26562 351.875 284.76562Q351.96875 284.25 351.96875 283.53125ZM355.8125 285.70312L355.8125 286.57812Q355.8125 287.125 355.53125 287.71875Q355.26562 288.3125 354.78125 288.70312L354.17188 288.28125Q354.35938 288.01562 354.48438 287.75Q354.60938 287.48438 354.67188 287.20312Q354.75 286.92188 354.75 286.59375L354.75 285.70312L355.8125 285.70312ZM362.0625 282.04688L362.0625 283.35938Q362.0625 284.40625 361.875 285.125Q361.6875 285.84375 361.32812 286.28125Q360.98438 286.71875 360.48438 286.92188Q360.0 287.125 359.375 287.125Q358.89062 287.125 358.46875 287.0Q358.04688 286.875 357.71875 286.60938Q357.39062 286.32812 357.15625 285.89062Q356.92188 285.45312 356.79688 284.82812Q356.67188 284.1875 356.67188 283.35938L356.67188 282.04688Q356.67188 281.0 356.85938 280.29688Q357.0625 279.59375 357.40625 279.15625Q357.76562 278.71875 358.25 278.53125Q358.75 278.34375 359.35938 278.34375Q359.85938 278.34375 360.28125 278.46875Q360.70312 278.59375 361.03125 278.85938Q361.35938 279.10938 361.57812 279.54688Q361.8125 279.96875 361.9375 280.59375Q362.0625 281.21875 362.0625 282.04688ZM360.96875 283.53125L360.96875 281.875Q360.96875 281.29688 360.90625 280.85938Q360.84375 280.42188 360.70312 280.10938Q360.57812 279.79688 360.375 279.60938Q360.1875 279.42188 359.9375 279.32812Q359.6875 279.23438 359.35938 279.23438Q358.98438 279.23438 358.67188 279.375Q358.375 279.51562 358.17188 279.82812Q357.96875 280.14062 357.85938 280.65625Q357.76562 281.15625 357.76562 281.875L357.76562 283.53125Q357.76562 284.10938 357.82812 284.54688Q357.90625 284.98438 358.03125 285.3125Q358.17188 285.625 358.35938 285.82812Q358.5625 286.03125 358.8125 286.125Q359.0625 286.21875 359.375 286.21875Q359.78125 286.21875 360.07812 286.07812Q360.375 285.92188 360.57812 285.59375Q360.78125 285.26562 360.875 284.76562Q360.96875 284.25 360.96875 283.53125Z" fill-rule="nonzero"/><path stroke="#000000" stroke-width="1.0" stroke-linecap="butt" d="M402.82666 290.0C402.82666 269.10892 385.89108 252.17334 365.0 252.17334C344.10892 252.17334 327.17334 269.10892 327.17334 290.0C327.17334 310.89108 344.10892 327.82666 365.0 327.82666C385.89108 327.82666 402.82666 310.89108 402.82666 290.0" fill-rule="nonzero"/><path fill="#000000" d="M353.0625 244.22021L353.0625 245.53271Q353.0625 246.57959 352.875 247.29834Q352.6875 248.01709 352.32812 248.45459Q351.98438 248.89209 351.48438 249.09521Q351.0 249.29834 350.375 249.29834Q349.89062 249.29834 349.46875 249.17334Q349.04688 249.04834 348.71875 248.78271Q348.39062 248.50146 348.15625 248.06396Q347.92188 247.62646 347.79688 247.00146Q347.67188 246.36084 347.67188 245.53271L347.67188 244.22021Q347.67188 243.17334 347.85938 242.47021Q348.0625 241.76709 348.40625 241.32959Q348.76562 240.89209 349.25 240.70459Q349.75 240.51709 350.35938 240.51709Q350.85938 240.51709 351.28125 240.64209Q351.70312 240.76709 352.03125 241.03271Q352.35938 241.28271 352.57812 241.72021Q352.8125 242.14209 352.9375 242.76709Q353.0625 243.39209 353.0625 244.22021ZM351.96875 245.70459L351.96875 244.04834Q351.96875 243.47021 351.90625 243.03271Q351.84375 242.59521 351.70312 242.28271Q351.57812 241.97021 351.375 241.78271Q351.1875 241.59521 350.9375 241.50146Q350.6875 241.40771 350.35938 241.40771Q349.98438 241.40771 349.67188 241.54834Q349.375 241.68896 349.17188 242.00146Q348.96875 242.31396 348.85938 242.82959Q348.76562 243.32959 348.76562 244.04834L348.76562 245.70459Q348.76562 246.28271 348.82812 246.72021Q348.90625 247.15771 349.03125 247.48584Q349.17188 247.79834 349.35938 248.00146Q349.5625 248.20459 349.8125 248.29834Q350.0625 248.39209 350.375 248.39209Q350.78125 248.39209 351.07812 248.25146Q351.375 248.09521 351.57812 247.76709Q351.78125 247.43896 351.875 246.93896Q351.96875 246.42334 351.96875 245.70459ZM355.8125 247.87646L355.8125 248.75146Q355.8125 249.29834 355.53125 249.89209Q355.26562 250.48584 354.78125 250.87646L354.17188 250.45459Q354.35938 250.18896 354.48438 249.92334Q354.60938 249.65771 354.67188 249.37646Q354.75 249.09521 354.75 248.76709L354.75 247.87646L355.8125 247.87646ZM360.26562 240.59521L360.26562 249.17334L359.1875 249.17334L359.1875 241.95459L357.0 242.75146L357.0 241.76709L360.10938 240.59521L360.26562 240.59521Z" fill-rule="nonzero"/><path stroke="#000000" stroke-width="1.0" stroke-linecap="butt" d="M440.65332 290.0C440.65332 248.21782 406.7822 214.34666 365.0 214.34666C323.2178 214.34666 289.34668 248.21782 289.34668 290.0C289.34668 331.7822 323.2178 365.65332 365.0 365.65332C406.7822 365.65332 440.65332 331.7822 440.65332 290.0" fill-rule="nonzero"/><path fill="#000000" d="M353.0625 206.39354L353.0625 207.70604Q353.0625 208.75291 352.875 209.47166Q352.6875 210.19041 352.32812 210.62791Q351.98438 211.06541 351.48438 211.26854Q351.0 211.47166 350.375 211.47166Q349.89062 211.47166 349.46875 211.34666Q349.04688 211.22166 348.71875 210.95604Q348.39062 210.67479 348.15625 210.23729Q347.92188 209.79979 347.79688 209.17479Q347.67188 208.53416 347.67188 207.70604L347.67188 206.39354Q347.67188 205.34666 347.85938 204.64354Q348.0625 203.94041 348.40625 203.50291Q348.76562 203.06541 349.25 202.87791Q349.75 202.69041 350.35938 202.69041Q350.85938 202.69041 351.28125 202.81541Q351.70312 202.94041 352.03125 203.20604Q352.35938 203.45604 352.57812 203.89354Q352.8125 204.31541 352.9375 204.94041Q353.0625 205.56541 353.0625 206.39354ZM351.96875 207.87791L351.96875 206.22166Q351.96875 205.64354 351.90625 205.20604Q351.84375 204.76854 351.70312 204.45604Q351.57812 204.14354 351.375 203.95604Q351.1875 203.76854 350.9375 203.67479Q350.6875 203.58104 350.35938 203.58104Q349.98438 203.58104 349.67188 203.72166Q349.375 203.86229 349.17188 204.17479Q348.96875 204.48729 348.85938 205.00291Q348.76562 205.50291 348.76562 206.22166L348.76562 207.87791Q348.76562 208.45604 348.82812 208.89354Q348.90625 209.33104 349.03125 209.65916Q349.17188 209.97166 349.35938 210.17479Q349.5625 210.37791 349.8125 210.47166Q350.0625 210.56541 350.375 210.56541Q350.78125 210.56541 351.07812 210.42479Q351.375 210.26854 351.57812 209.94041Q351.78125 209.61229 351.875 209.11229Q351.96875 208.59666 351.96875 207.87791ZM355.8125 210.04979L355.8125 210.92479Q355.8125 211.47166 355.53125 212.06541Q355.26562 212.65916 354.78125 213.04979L354.17188 212.62791Q354.35938 212.36229 354.48438 212.09666Q354.60938 211.83104 354.67188 211.54979Q354.75 211.26854 354.75 210.94041L354.75 210.04979L355.8125 210.04979ZM362.29688 210.45604L362.29688 211.34666L356.71875 211.34666L356.71875 210.56541L359.51562 207.45604Q360.03125 206.87791 360.3125 206.48729Q360.59375 206.08104 360.70312 205.76854Q360.82812 205.44041 360.82812 205.11229Q360.82812 204.69041 360.65625 204.34666Q360.48438 204.00291 360.14062 203.79979Q359.8125 203.58104 359.32812 203.58104Q358.76562 203.58104 358.39062 203.81541Q358.01562 204.03416 357.82812 204.42479Q357.64062 204.81541 357.64062 205.31541L356.54688 205.31541Q356.54688 204.59666 356.85938 204.00291Q357.1875 203.40916 357.79688 203.04979Q358.42188 202.69041 359.32812 202.69041Q360.14062 202.69041 360.71875 202.98729Q361.29688 203.26854 361.59375 203.78416Q361.90625 204.28416 361.90625 204.97166Q361.90625 205.34666 361.78125 205.73729Q361.65625 206.11229 361.4375 206.50291Q361.21875 206.87791 360.92188 207.25291Q360.64062 207.61229 360.3125 207.97166L358.01562 210.45604L362.29688 210.45604Z" fill-rule="nonzero"/><path stroke="#000000" stroke-width="1.0" stroke-linecap="butt" d="M478.48 290.0C478.48 227.32672 427.67328 176.52 365.0 176.52C302.32672 176.52 251.52 227.32672 251.52 290.0C251.52 352.67328 302.32672 403.48 365.0 403.48C427.67328 403.48 478.48 352.67328 478.48 290.0" fill-rule="nonzero"/><path fill="#000000" d="M353.0625 168.56688L353.0625 169.87938Q353.0625 170.92625 352.875 171.645Q352.6875 172.36375 352.32812 172.80125Q351.98438 173.23875 351.48438 173.44188Q351.0 173.645 350.375 173.645Q349.89062 173.645 349.46875 173.52Q349.04688 173.395 348.71875 173.12938Q348.39062 172.84813 348.15625 172.41063Q347.92188 171.97313 347.79688 171.34813Q347.67188 170.7075 347.67188 169.87938L347.67188 168.56688Q347.67188 167.52 347.85938 166.81688Q348.0625 166.11375 348.40625 165.67625Q348.76562 165.23875 349.25 165.05125Q349.75 164.86375 350.35938 164.86375Q350.85938 164.86375 351.28125 164.98875Q351.70312 165.11375 352.03125 165.37938Q352.35938 165.62938 352.57812 166.06688Q352.8125 166.48875 352.9375 167.11375Q353.0625 167.73875 353.0625 168.56688ZM351.96875 170.05125L351.96875 168.395Q351.96875 167.81688 351.90625 167.37938Q351.84375 166.94188 351.70312 166.62938Q351.57812 166.31688 351.375 166.12938Q351.1875 165.94188 350.9375 165.84813Q350.6875 165.75438 350.35938 165.75438Q349.98438 165.75438 349.67188 165.895Q349.375 166.03563 349.17188 166.34813Q348.96875 166.66063 348.85938 167.17625Q348.76562 167.67625 348.76562 168.395L348.76562 170.05125Q348.76562 170.62938 348.82812 171.06688Q348.90625 171.50438 349.03125 171.8325Q349.17188 172.145 349.35938 172.34813Q349.5625 172.55125 349.8125 172.645Q350.0625 172.73875 350.375 172.73875Q350.78125 172.73875 351.07812 172.59813Q351.375 172.44188 351.57812 172.11375Q351.78125 171.78563 351.875 171.28563Q351.96875 170.77 351.96875 170.05125ZM355.8125 172.22313L355.8125 173.09813Q355.8125 173.645 355.53125 174.23875Q355.26562 174.8325 354.78125 175.22313L354.17188 174.80125Q354.35938 174.53563 354.48438 174.27Q354.60938 174.00438 354.67188 173.72313Q354.75 173.44188 354.75 173.11375L354.75 172.22313L355.8125 172.22313ZM358.29688 168.72313L359.0625 168.72313Q359.64062 168.72313 360.0 168.53563Q360.375 168.3325 360.5625 168.00438Q360.75 167.67625 360.75 167.25438Q360.75 166.77 360.57812 166.44188Q360.42188 166.09813 360.09375 165.92625Q359.76562 165.75438 359.26562 165.75438Q358.79688 165.75438 358.45312 165.94188Q358.10938 166.11375 357.90625 166.44188Q357.71875 166.77 357.71875 167.22313L356.625 167.22313Q356.625 166.56688 356.95312 166.03563Q357.28125 165.50438 357.875 165.19188Q358.46875 164.86375 359.26562 164.86375Q360.03125 164.86375 360.60938 165.145Q361.1875 165.41063 361.51562 165.9575Q361.84375 166.48875 361.84375 167.28563Q361.84375 167.61375 361.6875 167.97313Q361.53125 168.3325 361.21875 168.66063Q360.90625 168.97313 360.40625 169.17625Q359.92188 169.37938 359.21875 169.37938L358.29688 169.37938L358.29688 168.72313ZM358.29688 169.61375L358.29688 168.9575L359.21875 168.9575Q360.03125 168.9575 360.5625 169.16063Q361.09375 169.34813 361.40625 169.67625Q361.71875 169.98875 361.84375 170.37938Q361.96875 170.75438 361.96875 171.145Q361.96875 171.73875 361.76562 172.2075Q361.5625 172.66063 361.1875 172.98875Q360.82812 173.30125 360.32812 173.47313Q359.84375 173.645 359.26562 173.645Q358.70312 173.645 358.21875 173.48875Q357.73438 173.31688 357.35938 173.02Q356.98438 172.72313 356.76562 172.28563Q356.5625 171.8325 356.5625 171.27L357.64062 171.27Q357.64062 171.7075 357.82812 172.05125Q358.03125 172.37938 358.39062 172.56688Q358.76562 172.73875 359.26562 172.73875Q359.76562 172.73875 360.125 172.56688Q360.48438 172.395 360.67188 172.05125Q360.875 171.69188 360.875 171.16063Q360.875 170.62938 360.65625 170.28563Q360.4375 169.94188 360.01562 169.78563Q359.60938 169.61375 359.0625 169.61375L358.29688 169.61375Z" fill-rule="nonzero"/><path stroke="#000000" stroke-width="1.0" stroke-linecap="butt" d="M516.30664 290.0C516.30664 206.43564 448.56436 138.69333 365.0 138.69333C281.43564 138.69333 213.69333 206.43564 213.69333 290.0C213.69333 373.56436 281.43564 441.30667 365.0 441.30667C448.56436 441.30667 516.30664 373.56436 516.30664 290.0" fill-rule="nonzero"/><path fill="#000000" d="M353.0625 130.7402L353.0625 132.0527Q353.0625 133.09958 352.875 133.81833Q352.6875 134.53708 352.32812 134.97458Q351.98438 135.41208 351.48438 135.6152Q351.0 135.81833 350.375 135.81833Q349.89062 135.81833 349.46875 135.69333Q349.04688 135.56833 348.71875 135.3027Q348.39062 135.02145 348.15625 134.58395Q347.92188 134.14645 347.79688 133.52145Q347.67188 132.88083 347.67188 132.0527L347.67188 130.7402Q347.67188 129.69333 347.85938 128.9902Q348.0625 128.28708 348.40625 127.84958Q348.76562 127.41208 349.25 127.22458Q349.75 127.03708 350.35938 127.03708Q350.85938 127.03708 351.28125 127.16208Q351.70312 127.28708 352.03125 127.552704Q352.35938 127.802704 352.57812 128.2402Q352.8125 128.66208 352.9375 129.28708Q353.0625 129.91208 353.0625 130.7402ZM351.96875 132.22458L351.96875 130.56833Q351.96875 129.9902 351.90625 129.5527Q351.84375 129.1152 351.70312 128.8027Q351.57812 128.4902 351.375 128.3027Q351.1875 128.1152 350.9375 128.02145Q350.6875 127.927704 350.35938 127.927704Q349.98438 127.927704 349.67188 128.06833Q349.375 128.20895 349.17188 128.52145Q348.96875 128.83395 348.85938 129.34958Q348.76562 129.84958 348.76562 130.56833L348.76562 132.22458Q348.76562 132.8027 348.82812 133.2402Q348.90625 133.6777 349.03125 134.00583Q349.17188 134.31833 349.35938 134.52145Q349.5625 134.72458 349.8125 134.81833Q350.0625 134.91208 350.375 134.91208Q350.78125 134.91208 351.07812 134.77145Q351.375 134.6152 351.57812 134.28708Q351.78125 133.95895 351.875 133.45895Q351.96875 132.94333 351.96875 132.22458ZM355.8125 134.39645L355.8125 135.27145Q355.8125 135.81833 355.53125 136.41208Q355.26562 137.00583 354.78125 137.39645L354.17188 136.97458Q354.35938 136.70895 354.48438 136.44333Q354.60938 136.1777 354.67188 135.89645Q354.75 135.6152 354.75 135.28708L354.75 134.39645L355.8125 134.39645ZM362.46875 132.81833L362.46875 133.70895L356.3125 133.70895L356.3125 133.06833L360.125 127.16208L361.01562 127.16208L360.0625 128.8652L357.54688 132.81833L362.46875 132.81833ZM361.28125 127.16208L361.28125 135.69333L360.20312 135.69333L360.20312 127.16208L361.28125 127.16208Z" fill-rule="nonzero"/><path stroke="#000000" stroke-width="1.0" stroke-linecap="butt" d="M554.13336 290.0C554.13336 185.54454 469.45544 100.86667 365.0 100.86667C260.54456 100.86667 175.86667 185.54454 175.86667 290.0C175.86667 394.45544 260.54456 479.13333 365.0 479.13333C469.45544 479.13333 554.13336 394.45544 554.13336 290.0" fill-rule="nonzero"/><path fill="#000000" d="M353.0625 92.91354L353.0625 94.22604Q353.0625 95.27292 352.875 95.99167Q352.6875 96.71042 352.32812 97.14792Q351.98438 97.58542 351.48438 97.78854Q351.0 97.99167 350.375 97.99167Q349.89062 97.99167 349.46875 97.86667Q349.04688 97.74167 348.71875 97.47604Q348.39062 97.19479 348.15625 96.75729Q347.92188 96.31979 347.79688 95.69479Q347.67188 95.05417 347.67188 94.22604L347.67188 92.91354Q347.67188 91.86667 347.85938 91.16354Q348.0625 90.46042 348.40625 90.02292Q348.76562 89.58542 349.25 89.39792Q349.75 89.21042 350.35938 89.21042Q350.85938 89.21042 351.28125 89.33542Q351.70312 89.46042 352.03125 89.72604Q352.35938 89.97604 352.57812 90.41354Q352.8125 90.83542 352.9375 91.46042Q353.0625 92.08542 353.0625 92.91354ZM351.96875 94.39792L351.96875 92.74167Q351.96875 92.16354 351.90625 91.72604Q351.84375 91.28854 351.70312 90.97604Q351.57812 90.66354 351.375 90.47604Q351.1875 90.28854 350.9375 90.19479Q350.6875 90.10104 350.35938 90.10104Q349.98438 90.10104 349.67188 90.24167Q349.375 90.38229 349.17188 90.69479Q348.96875 91.00729 348.85938 91.52292Q348.76562 92.02292 348.76562 92.74167L348.76562 94.39792Q348.76562 94.97604 348.82812 95.41354Q348.90625 95.85104 349.03125 96.17917Q349.17188 96.49167 349.35938 96.69479Q349.5625 96.89792 349.8125 96.99167Q350.0625 97.08542 350.375 97.08542Q350.78125 97.08542 351.07812 96.94479Q351.375 96.78854 351.57812 96.46042Q351.78125 96.13229 351.875 95.63229Q351.96875 95.11667 351.96875 94.39792ZM355.8125 96.56979L355.8125 97.44479Q355.8125 97.99167 355.53125 98.58542Q355.26562 99.17917 354.78125 99.56979L354.17188 99.14792Q354.35938 98.88229 354.48438 98.61667Q354.60938 98.35104 354.67188 98.06979Q354.75 97.78854 354.75 97.46042L354.75 96.56979L355.8125 96.56979ZM358.07812 93.80417L357.21875 93.58542L357.64062 89.33542L362.01562 89.33542L362.01562 90.33542L358.5625 90.33542L358.29688 92.66354Q358.53125 92.52292 358.89062 92.41354Q359.26562 92.28854 359.73438 92.28854Q360.3125 92.28854 360.78125 92.49167Q361.25 92.69479 361.57812 93.06979Q361.92188 93.44479 362.09375 93.97604Q362.26562 94.49167 362.26562 95.14792Q362.26562 95.75729 362.09375 96.27292Q361.9375 96.78854 361.59375 97.17917Q361.26562 97.55417 360.75 97.77292Q360.25 97.99167 359.5625 97.99167Q359.04688 97.99167 358.59375 97.85104Q358.14062 97.69479 357.76562 97.39792Q357.40625 97.10104 357.1875 96.66354Q356.96875 96.22604 356.90625 95.61667L357.9375 95.61667Q358.0 96.10104 358.20312 96.42917Q358.42188 96.75729 358.76562 96.92917Q359.10938 97.08542 359.5625 97.08542Q359.95312 97.08542 360.25 96.96042Q360.54688 96.81979 360.75 96.56979Q360.96875 96.31979 361.07812 95.96042Q361.1875 95.60104 361.1875 95.16354Q361.1875 94.75729 361.0625 94.41354Q360.95312 94.06979 360.73438 93.81979Q360.51562 93.55417 360.20312 93.41354Q359.89062 93.25729 359.46875 93.25729Q358.9375 93.25729 358.65625 93.41354Q358.375 93.55417 358.07812 93.80417Z" fill-rule="nonzero"/><path stroke="#000000" stroke-width="1.0" stroke-linecap="butt" d="M365.0 290.0L365.0 101.0" fill-rule="nonzero"/><path fill="#000000" d="M347.67188 73.578125L347.67188 74.5L343.40625 74.5L343.40625 73.578125L347.67188 73.578125ZM343.625 65.96875L343.625 74.5L342.48438 74.5L342.48438 65.96875L343.625 65.96875ZM349.5 68.15625L349.5 74.5L348.42188 74.5L348.42188 68.15625L349.5 68.15625ZM348.32812 66.484375Q348.32812 66.21875 348.48438 66.03125Q348.65625 65.84375 348.96875 65.84375Q349.28125 65.84375 349.4375 66.03125Q349.60938 66.21875 349.60938 66.484375Q349.60938 66.734375 349.4375 66.921875Q349.28125 67.09375 348.96875 67.09375Q348.65625 67.09375 348.48438 66.921875Q348.32812 66.734375 348.32812 66.484375ZM352.40625 69.421875L352.40625 74.5L351.3125 74.5L351.3125 68.15625L352.34375 68.15625L352.40625 69.421875ZM352.1875 71.09375L351.67188 71.078125Q351.6875 70.421875 351.84375 69.875Q352.01562 69.3125 352.32812 68.90625Q352.65625 68.5 353.14062 68.28125Q353.625 68.046875 354.25 68.046875Q354.70312 68.046875 355.07812 68.171875Q355.45312 68.296875 355.71875 68.5625Q356.0 68.828125 356.14062 69.25Q356.29688 69.671875 356.29688 70.28125L356.29688 74.5L355.21875 74.5L355.21875 70.328125Q355.21875 69.828125 355.04688 69.53125Q354.89062 69.234375 354.57812 69.09375Q354.28125 68.953125 353.85938 68.953125Q353.39062 68.953125 353.0625 69.125Q352.73438 69.296875 352.54688 69.59375Q352.35938 69.890625 352.26562 70.28125Q352.1875 70.65625 352.1875 71.09375ZM356.29688 70.484375L355.5625 70.71875Q355.5625 70.1875 355.73438 69.71875Q355.90625 69.234375 356.21875 68.859375Q356.54688 68.484375 357.01562 68.265625Q357.48438 68.046875 358.07812 68.046875Q358.59375 68.046875 358.98438 68.1875Q359.39062 68.3125 359.65625 68.59375Q359.92188 68.875 360.0625 69.3125Q360.20312 69.734375 360.20312 70.328125L360.20312 74.5L359.125 74.5L359.125 70.328125Q359.125 69.78125 358.95312 69.5Q358.78125 69.203125 358.48438 69.078125Q358.1875 68.953125 357.76562 68.953125Q357.40625 68.953125 357.125 69.078125Q356.85938 69.203125 356.67188 69.421875Q356.48438 69.625 356.39062 69.90625Q356.29688 70.1875 356.29688 70.484375ZM362.04688 71.40625L362.04688 71.265625Q362.04688 70.578125 362.23438 70.0Q362.4375 69.40625 362.8125 68.96875Q363.1875 68.53125 363.71875 68.296875Q364.25 68.046875 364.92188 68.046875Q365.57812 68.046875 366.10938 68.296875Q366.65625 68.53125 367.03125 68.96875Q367.40625 69.40625 367.60938 70.0Q367.8125 70.578125 367.8125 71.265625L367.8125 71.40625Q367.8125 72.078125 367.60938 72.671875Q367.40625 73.25 367.03125 73.6875Q366.65625 74.125 366.125 74.375Q365.59375 74.625 364.92188 74.625Q364.26562 74.625 363.71875 74.375Q363.1875 74.125 362.8125 73.6875Q362.4375 73.25 362.23438 72.671875Q362.04688 72.078125 362.04688 71.40625ZM363.125 71.265625L363.125 71.40625Q363.125 71.875 363.23438 72.296875Q363.34375 72.71875 363.5625 73.046875Q363.79688 73.359375 364.14062 73.546875Q364.48438 73.71875 364.92188 73.71875Q365.375 73.71875 365.70312 73.546875Q366.04688 73.359375 366.26562 73.046875Q366.5 72.71875 366.60938 72.296875Q366.71875 71.875 366.71875 71.40625L366.71875 71.265625Q366.71875 70.796875 366.60938 70.375Q366.5 69.953125 366.26562 69.640625Q366.04688 69.3125 365.70312 69.125Q365.375 68.9375 364.92188 68.9375Q364.46875 68.9375 364.125 69.125Q363.79688 69.3125 363.5625 69.640625Q363.34375 69.953125 363.23438 70.375Q363.125 70.796875 363.125 71.265625ZM370.40625 69.515625L370.40625 74.5L369.32812 74.5L369.32812 68.15625L370.35938 68.15625L370.40625 69.515625ZM370.15625 71.09375L369.70312 71.078125Q369.70312 70.421875 369.89062 69.875Q370.07812 69.3125 370.42188 68.90625Q370.76562 68.5 371.23438 68.28125Q371.70312 68.046875 372.28125 68.046875Q372.75 68.046875 373.125 68.171875Q373.5 68.296875 373.76562 68.578125Q374.03125 68.84375 374.17188 69.28125Q374.3125 69.71875 374.3125 70.34375L374.3125 74.5L373.21875 74.5L373.21875 70.328125Q373.21875 69.828125 373.07812 69.53125Q372.9375 69.234375 372.65625 69.09375Q372.375 68.953125 371.95312 68.953125Q371.54688 68.953125 371.21875 69.125Q370.89062 69.296875 370.65625 69.59375Q370.42188 69.890625 370.28125 70.28125Q370.15625 70.65625 370.15625 71.09375ZM378.95312 74.625Q378.29688 74.625 377.75 74.40625Q377.21875 74.171875 376.82812 73.765625Q376.45312 73.34375 376.25 72.78125Q376.04688 72.21875 376.04688 71.546875L376.04688 71.3125Q376.04688 70.53125 376.26562 69.921875Q376.5 69.3125 376.89062 68.890625Q377.28125 68.46875 377.78125 68.265625Q378.28125 68.046875 378.8125 68.046875Q379.5 68.046875 379.98438 68.28125Q380.48438 68.515625 380.79688 68.9375Q381.125 69.34375 381.26562 69.921875Q381.42188 70.484375 381.42188 71.140625L381.42188 71.640625L376.6875 71.640625L376.6875 70.75L380.34375 70.75L380.34375 70.671875Q380.3125 70.25 380.15625 69.859375Q380.01562 69.453125 379.6875 69.203125Q379.375 68.9375 378.8125 68.9375Q378.45312 68.9375 378.14062 69.09375Q377.82812 69.25 377.59375 69.5625Q377.375 69.859375 377.25 70.296875Q377.14062 70.734375 377.14062 71.3125L377.14062 71.546875Q377.14062 72.0 377.26562 72.40625Q377.39062 72.796875 377.625 73.09375Q377.875 73.390625 378.21875 73.5625Q378.57812 73.734375 379.01562 73.734375Q379.59375 73.734375 379.98438 73.5Q380.39062 73.265625 380.6875 72.875L381.34375 73.390625Q381.14062 73.703125 380.8125 73.984375Q380.5 74.265625 380.03125 74.453125Q379.57812 74.625 378.95312 74.625ZM383.40625 69.515625L383.40625 74.5L382.32812 74.5L382.32812 68.15625L383.35938 68.15625L383.40625 69.515625ZM383.15625 71.09375L382.70312 71.078125Q382.70312 70.421875 382.89062 69.875Q383.07812 69.3125 383.42188 68.90625Q383.76562 68.5 384.23438 68.28125Q384.70312 68.046875 385.28125 68.046875Q385.75 68.046875 386.125 68.171875Q386.5 68.296875 386.76562 68.578125Q387.03125 68.84375 387.17188 69.28125Q387.3125 69.71875 387.3125 70.34375L387.3125 74.5L386.21875 74.5L386.21875 70.328125Q386.21875 69.828125 386.07812 69.53125Q385.9375 69.234375 385.65625 69.09375Q385.375 68.953125 384.95312 68.953125Q384.54688 68.953125 384.21875 69.125Q383.89062 69.296875 383.65625 69.59375Q383.42188 69.890625 383.28125 70.28125Q383.15625 70.65625 383.15625 71.09375Z" fill-rule="nonzero"/><path stroke="#000000" stroke-width="1.0" stroke-linecap="butt" d="M365.0 290.0L529.0 195.0" fill-rule="nonzero"/><path fill="#000000" d="M525.6406 181.78125L526.7656 181.78125Q526.6719 182.59375 526.2969 183.23438Q525.9219 183.875 525.2344 184.25Q524.5625 184.625 523.53125 184.625Q522.78125 184.625 522.1719 184.34375Q521.5625 184.04688 521.1094 183.53125Q520.6719 183.01562 520.4375 182.29688Q520.2031 181.5625 520.2031 180.65625L520.2031 179.8125Q520.2031 178.92188 520.4375 178.1875Q520.6719 177.45312 521.125 176.9375Q521.5781 176.40625 522.2031 176.125Q522.84375 175.84375 523.625 175.84375Q524.59375 175.84375 525.2656 176.21875Q525.9375 176.57812 526.2969 177.21875Q526.6719 177.85938 526.7656 178.70312L525.6406 178.70312Q525.5625 178.10938 525.3281 177.6875Q525.1094 177.25 524.7031 177.01562Q524.2969 176.78125 523.625 176.78125Q523.0625 176.78125 522.625 177.0Q522.2031 177.20312 521.90625 177.60938Q521.625 178.0 521.46875 178.5625Q521.3281 179.125 521.3281 179.79688L521.3281 180.65625Q521.3281 181.28125 521.4531 181.84375Q521.59375 182.39062 521.8594 182.8125Q522.125 183.21875 522.5469 183.46875Q522.96875 183.70312 523.53125 183.70312Q524.25 183.70312 524.6719 183.46875Q525.1094 183.23438 525.3281 182.8125Q525.5469 182.39062 525.6406 181.78125ZM532.0625 183.42188L532.0625 180.15625Q532.0625 179.78125 531.90625 179.5Q531.7656 179.21875 531.46875 179.07812Q531.1719 178.92188 530.7344 178.92188Q530.3125 178.92188 530.0 179.0625Q529.7031 179.20312 529.53125 179.4375Q529.3594 179.65625 529.3594 179.92188L528.28125 179.92188Q528.28125 179.57812 528.4531 179.25Q528.625 178.90625 528.9531 178.64062Q529.28125 178.35938 529.75 178.20312Q530.21875 178.04688 530.7969 178.04688Q531.4844 178.04688 532.0156 178.28125Q532.5469 178.51562 532.84375 178.98438Q533.15625 179.45312 533.15625 180.15625L533.15625 183.10938Q533.15625 183.4375 533.2031 183.79688Q533.2656 184.14062 533.375 184.40625L533.375 184.5L532.2344 184.5Q532.15625 184.3125 532.1094 184.0Q532.0625 183.6875 532.0625 183.42188ZM532.25 180.65625L532.2656 181.42188L531.1719 181.42188Q530.7031 181.42188 530.34375 181.5Q529.9844 181.5625 529.7344 181.71875Q529.4844 181.85938 529.3594 182.07812Q529.2344 182.29688 529.2344 182.59375Q529.2344 182.89062 529.3594 183.14062Q529.5 183.375 529.7656 183.53125Q530.0469 183.67188 530.4375 183.67188Q530.9375 183.67188 531.3125 183.46875Q531.7031 183.25 531.9219 182.95312Q532.15625 182.64062 532.1719 182.34375L532.6406 182.875Q532.59375 183.10938 532.40625 183.42188Q532.2344 183.71875 531.9219 184.0Q531.625 184.26562 531.2031 184.45312Q530.7969 184.625 530.28125 184.625Q529.6406 184.625 529.15625 184.375Q528.6719 184.10938 528.40625 183.6875Q528.1406 183.26562 528.1406 182.73438Q528.1406 182.21875 528.3281 181.84375Q528.53125 181.45312 528.90625 181.1875Q529.28125 180.92188 529.8125 180.79688Q530.34375 180.65625 531.0 180.65625L532.25 180.65625ZM536.40625 179.15625L536.40625 184.5L535.3281 184.5L535.3281 178.15625L536.375 178.15625L536.40625 179.15625ZM538.3906 178.125L538.3906 179.125Q538.25 179.10938 538.125 179.09375Q538.0156 179.07812 537.8594 179.07812Q537.4844 179.07812 537.1875 179.20312Q536.90625 179.3125 536.7031 179.53125Q536.5156 179.73438 536.3906 180.03125Q536.28125 180.32812 536.25 180.67188L535.9375 180.84375Q535.9375 180.26562 536.0469 179.76562Q536.1719 179.26562 536.40625 178.875Q536.65625 178.48438 537.0156 178.26562Q537.3906 178.04688 537.90625 178.04688Q538.03125 178.04688 538.1719 178.07812Q538.3281 178.09375 538.3906 178.125ZM541.1094 183.84375L542.875 178.15625L544.03125 178.15625L541.4844 185.48438Q541.40625 185.71875 541.25 185.98438Q541.1094 186.26562 540.8906 186.5Q540.6719 186.75 540.3594 186.90625Q540.0469 187.0625 539.6094 187.0625Q539.4844 187.0625 539.28125 187.01562Q539.0781 186.98438 539.0 186.96875L539.0 186.09375Q539.0469 186.09375 539.1406 186.09375Q539.25 186.10938 539.28125 186.10938Q539.65625 186.10938 539.90625 186.01562Q540.1719 185.92188 540.34375 185.6875Q540.53125 185.46875 540.65625 185.07812L541.1094 183.84375ZM539.8125 178.15625L541.4531 183.07812L541.7344 184.21875L540.96875 184.625L538.625 178.15625L539.8125 178.15625ZM545.0469 181.40625L545.0469 181.26562Q545.0469 180.57812 545.2344 180.0Q545.4375 179.40625 545.8125 178.96875Q546.1875 178.53125 546.71875 178.29688Q547.25 178.04688 547.9219 178.04688Q548.5781 178.04688 549.1094 178.29688Q549.65625 178.53125 550.03125 178.96875Q550.40625 179.40625 550.6094 180.0Q550.8125 180.57812 550.8125 181.26562L550.8125 181.40625Q550.8125 182.07812 550.6094 182.67188Q550.40625 183.25 550.03125 183.6875Q549.65625 184.125 549.125 184.375Q548.59375 184.625 547.9219 184.625Q547.2656 184.625 546.71875 184.375Q546.1875 184.125 545.8125 183.6875Q545.4375 183.25 545.2344 182.67188Q545.0469 182.07812 545.0469 181.40625ZM546.125 181.26562L546.125 181.40625Q546.125 181.875 546.2344 182.29688Q546.34375 182.71875 546.5625 183.04688Q546.7969 183.35938 547.1406 183.54688Q547.4844 183.71875 547.9219 183.71875Q548.375 183.71875 548.7031 183.54688Q549.0469 183.35938 549.2656 183.04688Q549.5 182.71875 549.6094 182.29688Q549.71875 181.875 549.71875 181.40625L549.71875 181.26562Q549.71875 180.79688 549.6094 180.375Q549.5 179.95312 549.2656 179.64062Q549.0469 179.3125 548.7031 179.125Q548.375 178.9375 547.9219 178.9375Q547.46875 178.9375 547.125 179.125Q546.7969 179.3125 546.5625 179.64062Q546.34375 179.95312 546.2344 180.375Q546.125 180.79688 546.125 181.26562ZM553.40625 179.375L553.40625 186.9375L552.3281 186.9375L552.3281 178.15625L553.3125 178.15625L553.40625 179.375ZM557.6875 181.28125L557.6875 181.40625Q557.6875 182.09375 557.5156 182.6875Q557.3594 183.26562 557.0469 183.70312Q556.7344 184.14062 556.2656 184.39062Q555.8125 184.625 555.21875 184.625Q554.625 184.625 554.15625 184.42188Q553.6875 184.21875 553.3594 183.84375Q553.0469 183.45312 552.8594 182.92188Q552.6719 182.39062 552.59375 181.71875L552.59375 181.0625Q552.6719 180.35938 552.8594 179.8125Q553.0469 179.25 553.3594 178.85938Q553.6875 178.45312 554.1406 178.25Q554.6094 178.04688 555.2031 178.04688Q555.7969 178.04688 556.2656 178.28125Q556.7344 178.5 557.0469 178.9375Q557.3594 179.35938 557.5156 179.95312Q557.6875 180.54688 557.6875 181.28125ZM556.59375 181.40625L556.59375 181.28125Q556.59375 180.79688 556.4844 180.39062Q556.3906 179.96875 556.1875 179.65625Q555.9844 179.32812 555.65625 179.14062Q555.3281 178.95312 554.8906 178.95312Q554.4844 178.95312 554.1719 179.09375Q553.875 179.23438 553.65625 179.48438Q553.4531 179.71875 553.3125 180.01562Q553.1875 180.3125 553.125 180.64062L553.125 182.15625Q553.2344 182.5625 553.4375 182.92188Q553.65625 183.28125 554.0 183.5Q554.3594 183.71875 554.90625 183.71875Q555.34375 183.71875 555.65625 183.54688Q555.9844 183.35938 556.1875 183.04688Q556.3906 182.71875 556.4844 182.29688Q556.59375 181.875 556.59375 181.40625ZM560.40625 175.5L560.40625 184.5L559.3281 184.5L559.3281 175.5L560.40625 175.5ZM560.15625 181.09375L559.7031 181.07812Q559.7031 180.42188 559.8906 179.875Q560.0781 179.3125 560.4219 178.90625Q560.7656 178.5 561.2344 178.28125Q561.7031 178.04688 562.28125 178.04688Q562.75 178.04688 563.125 178.17188Q563.5 178.29688 563.7656 178.57812Q564.03125 178.84375 564.1719 179.28125Q564.3125 179.71875 564.3125 180.34375L564.3125 184.5L563.21875 184.5L563.21875 180.32812Q563.21875 179.82812 563.0781 179.53125Q562.9375 179.23438 562.65625 179.09375Q562.375 178.95312 561.9531 178.95312Q561.5469 178.95312 561.21875 179.125Q560.8906 179.29688 560.65625 179.59375Q560.4219 179.89062 560.28125 180.28125Q560.15625 180.65625 560.15625 181.09375ZM568.1094 183.84375L569.875 178.15625L571.03125 178.15625L568.4844 185.48438Q568.40625 185.71875 568.25 185.98438Q568.1094 186.26562 567.8906 186.5Q567.6719 186.75 567.3594 186.90625Q567.0469 187.0625 566.6094 187.0625Q566.4844 187.0625 566.28125 187.01562Q566.0781 186.98438 566.0 186.96875L566.0 186.09375Q566.0469 186.09375 566.1406 186.09375Q566.25 186.10938 566.28125 186.10938Q566.65625 186.10938 566.90625 186.01562Q567.1719 185.92188 567.34375 185.6875Q567.53125 185.46875 567.65625 185.07812L568.1094 183.84375ZM566.8125 178.15625L568.4531 183.07812L568.7344 184.21875L567.96875 184.625L565.625 178.15625L566.8125 178.15625ZM573.5 175.5L573.5 184.5L572.4219 184.5L572.4219 175.5L573.5 175.5ZM576.5 175.5L576.5 184.5L575.4219 184.5L575.4219 175.5L576.5 175.5ZM580.9531 184.625Q580.2969 184.625 579.75 184.40625Q579.21875 184.17188 578.8281 183.76562Q578.4531 183.34375 578.25 182.78125Q578.0469 182.21875 578.0469 181.54688L578.0469 181.3125Q578.0469 180.53125 578.2656 179.92188Q578.5 179.3125 578.8906 178.89062Q579.28125 178.46875 579.78125 178.26562Q580.28125 178.04688 580.8125 178.04688Q581.5 178.04688 581.9844 178.28125Q582.4844 178.51562 582.7969 178.9375Q583.125 179.34375 583.2656 179.92188Q583.4219 180.48438 583.4219 181.14062L583.4219 181.64062L578.6875 181.64062L578.6875 180.75L582.34375 180.75L582.34375 180.67188Q582.3125 180.25 582.15625 179.85938Q582.0156 179.45312 581.6875 179.20312Q581.375 178.9375 580.8125 178.9375Q580.4531 178.9375 580.1406 179.09375Q579.8281 179.25 579.59375 179.5625Q579.375 179.85938 579.25 180.29688Q579.1406 180.73438 579.1406 181.3125L579.1406 181.54688Q579.1406 182.0 579.2656 182.40625Q579.3906 182.79688 579.625 183.09375Q579.875 183.39062 580.21875 183.5625Q580.5781 183.73438 581.0156 183.73438Q581.59375 183.73438 581.9844 183.5Q582.3906 183.26562 582.6875 182.875L583.34375 183.39062Q583.1406 183.70312 582.8125 183.98438Q582.5 184.26562 582.03125 184.45312Q581.5781 184.625 580.9531 184.625ZM585.40625 179.51562L585.40625 184.5L584.3281 184.5L584.3281 178.15625L585.3594 178.15625L585.40625 179.51562ZM585.15625 181.09375L584.7031 181.07812Q584.7031 180.42188 584.8906 179.875Q585.0781 179.3125 585.4219 178.90625Q585.7656 178.5 586.2344 178.28125Q586.7031 178.04688 587.28125 178.04688Q587.75 178.04688 588.125 178.17188Q588.5 178.29688 588.7656 178.57812Q589.03125 178.84375 589.1719 179.28125Q589.3125 179.71875 589.3125 180.34375L589.3125 184.5L588.21875 184.5L588.21875 180.32812Q588.21875 179.82812 588.0781 179.53125Q587.9375 179.23438 587.65625 179.09375Q587.375 178.95312 586.9531 178.95312Q586.5469 178.95312 586.21875 179.125Q585.8906 179.29688 585.65625 179.59375Q585.4219 179.89062 585.28125 180.28125Q585.15625 180.65625 585.15625 181.09375Z" fill-rule="nonzero"/><path stroke="#000000" stroke-width="1.0" stroke-linecap="butt" d="M365.0 290.0L529.0 385.0" fill-rule="nonzero"/><path fill="#000000" d="M539.6719 403.57812L539.6719 404.5L535.40625 404.5L535.40625 403.57812L539.6719 403.57812ZM535.625 395.96875L535.625 404.5L534.4844 404.5L534.4844 395.96875L535.625 395.96875ZM541.5 398.15625L541.5 404.5L540.4219 404.5L540.4219 398.15625L541.5 398.15625ZM540.3281 396.48438Q540.3281 396.21875 540.4844 396.03125Q540.65625 395.84375 540.96875 395.84375Q541.28125 395.84375 541.4375 396.03125Q541.6094 396.21875 541.6094 396.48438Q541.6094 396.73438 541.4375 396.92188Q541.28125 397.09375 540.96875 397.09375Q540.65625 397.09375 540.4844 396.92188Q540.3281 396.73438 540.3281 396.48438ZM544.40625 399.51562L544.40625 404.5L543.3281 404.5L543.3281 398.15625L544.3594 398.15625L544.40625 399.51562ZM544.15625 401.09375L543.7031 401.07812Q543.7031 400.42188 543.8906 399.875Q544.0781 399.3125 544.4219 398.90625Q544.7656 398.5 545.2344 398.28125Q545.7031 398.04688 546.28125 398.04688Q546.75 398.04688 547.125 398.17188Q547.5 398.29688 547.7656 398.57812Q548.03125 398.84375 548.1719 399.28125Q548.3125 399.71875 548.3125 400.34375L548.3125 404.5L547.21875 404.5L547.21875 400.32812Q547.21875 399.82812 547.0781 399.53125Q546.9375 399.23438 546.65625 399.09375Q546.375 398.95312 545.9531 398.95312Q545.5469 398.95312 545.21875 399.125Q544.8906 399.29688 544.65625 399.59375Q544.4219 399.89062 544.28125 400.28125Q544.15625 400.65625 544.15625 401.09375ZM554.0625 403.42188L554.0625 400.15625Q554.0625 399.78125 553.90625 399.5Q553.7656 399.21875 553.46875 399.07812Q553.1719 398.92188 552.7344 398.92188Q552.3125 398.92188 552.0 399.0625Q551.7031 399.20312 551.53125 399.4375Q551.3594 399.65625 551.3594 399.92188L550.28125 399.92188Q550.28125 399.57812 550.4531 399.25Q550.625 398.90625 550.9531 398.64062Q551.28125 398.35938 551.75 398.20312Q552.21875 398.04688 552.7969 398.04688Q553.4844 398.04688 554.0156 398.28125Q554.5469 398.51562 554.84375 398.98438Q555.15625 399.45312 555.15625 400.15625L555.15625 403.10938Q555.15625 403.4375 555.2031 403.79688Q555.2656 404.14062 555.375 404.40625L555.375 404.5L554.2344 404.5Q554.15625 404.3125 554.1094 404.0Q554.0625 403.6875 554.0625 403.42188ZM554.25 400.65625L554.2656 401.42188L553.1719 401.42188Q552.7031 401.42188 552.34375 401.5Q551.9844 401.5625 551.7344 401.71875Q551.4844 401.85938 551.3594 402.07812Q551.2344 402.29688 551.2344 402.59375Q551.2344 402.89062 551.3594 403.14062Q551.5 403.375 551.7656 403.53125Q552.0469 403.67188 552.4375 403.67188Q552.9375 403.67188 553.3125 403.46875Q553.7031 403.25 553.9219 402.95312Q554.15625 402.64062 554.1719 402.34375L554.6406 402.875Q554.59375 403.10938 554.40625 403.42188Q554.2344 403.71875 553.9219 404.0Q553.625 404.26562 553.2031 404.45312Q552.7969 404.625 552.28125 404.625Q551.6406 404.625 551.15625 404.375Q550.6719 404.10938 550.40625 403.6875Q550.1406 403.26562 550.1406 402.73438Q550.1406 402.21875 550.3281 401.84375Q550.53125 401.45312 550.90625 401.1875Q551.28125 400.92188 551.8125 400.79688Q552.34375 400.65625 553.0 400.65625L554.25 400.65625ZM558.5 395.5L558.5 404.5L557.4219 404.5L557.4219 395.5L558.5 395.5ZM560.0469 401.40625L560.0469 401.26562Q560.0469 400.57812 560.2344 400.0Q560.4375 399.40625 560.8125 398.96875Q561.1875 398.53125 561.71875 398.29688Q562.25 398.04688 562.9219 398.04688Q563.5781 398.04688 564.1094 398.29688Q564.65625 398.53125 565.03125 398.96875Q565.40625 399.40625 565.6094 400.0Q565.8125 400.57812 565.8125 401.26562L565.8125 401.40625Q565.8125 402.07812 565.6094 402.67188Q565.40625 403.25 565.03125 403.6875Q564.65625 404.125 564.125 404.375Q563.59375 404.625 562.9219 404.625Q562.2656 404.625 561.71875 404.375Q561.1875 404.125 560.8125 403.6875Q560.4375 403.25 560.2344 402.67188Q560.0469 402.07812 560.0469 401.40625ZM561.125 401.26562L561.125 401.40625Q561.125 401.875 561.2344 402.29688Q561.34375 402.71875 561.5625 403.04688Q561.7969 403.35938 562.1406 403.54688Q562.4844 403.71875 562.9219 403.71875Q563.375 403.71875 563.7031 403.54688Q564.0469 403.35938 564.2656 403.04688Q564.5 402.71875 564.6094 402.29688Q564.71875 401.875 564.71875 401.40625L564.71875 401.26562Q564.71875 400.79688 564.6094 400.375Q564.5 399.95312 564.2656 399.64062Q564.0469 399.3125 563.7031 399.125Q563.375 398.9375 562.9219 398.9375Q562.46875 398.9375 562.125 399.125Q561.7969 399.3125 561.5625 399.64062Q561.34375 399.95312 561.2344 400.375Q561.125 400.79688 561.125 401.26562ZM567.0469 401.40625L567.0469 401.26562Q567.0469 400.57812 567.2344 400.0Q567.4375 399.40625 567.8125 398.96875Q568.1875 398.53125 568.71875 398.29688Q569.25 398.04688 569.9219 398.04688Q570.5781 398.04688 571.1094 398.29688Q571.65625 398.53125 572.03125 398.96875Q572.40625 399.40625 572.6094 400.0Q572.8125 400.57812 572.8125 401.26562L572.8125 401.40625Q572.8125 402.07812 572.6094 402.67188Q572.40625 403.25 572.03125 403.6875Q571.65625 404.125 571.125 404.375Q570.59375 404.625 569.9219 404.625Q569.2656 404.625 568.71875 404.375Q568.1875 404.125 567.8125 403.6875Q567.4375 403.25 567.2344 402.67188Q567.0469 402.07812 567.0469 401.40625ZM568.125 401.26562L568.125 401.40625Q568.125 401.875 568.2344 402.29688Q568.34375 402.71875 568.5625 403.04688Q568.7969 403.35938 569.1406 403.54688Q569.4844 403.71875 569.9219 403.71875Q570.375 403.71875 570.7031 403.54688Q571.0469 403.35938 571.2656 403.04688Q571.5 402.71875 571.6094 402.29688Q571.71875 401.875 571.71875 401.40625L571.71875 401.26562Q571.71875 400.79688 571.6094 400.375Q571.5 399.95312 571.2656 399.64062Q571.0469 399.3125 570.7031 399.125Q570.375 398.9375 569.9219 398.9375Q569.46875 398.9375 569.125 399.125Q568.7969 399.3125 568.5625 399.64062Q568.34375 399.95312 568.2344 400.375Q568.125 400.79688 568.125 401.26562ZM575.5 395.5L575.5 404.5L574.4219 404.5L574.4219 395.5L575.5 395.5Z" fill-rule="nonzero"/><path stroke="#000000" stroke-width="1.0" stroke-linecap="butt" d="M365.0 290.0L365.0 479.0" fill-rule="nonzero"/><path fill="#000000" d="M317.53125 512.34375Q317.53125 512.0469 317.4375 511.8125Q317.35938 511.57812 317.125 511.39062Q316.90625 511.20312 316.5 511.03125Q316.10938 510.85938 315.51562 510.6875Q314.875 510.5 314.35938 510.28125Q313.85938 510.04688 313.48438 509.75Q313.125 509.4375 312.9375 509.0625Q312.75 508.67188 312.75 508.17188Q312.75 507.67188 312.95312 507.25Q313.15625 506.82812 313.53125 506.51562Q313.92188 506.20312 314.45312 506.03125Q314.98438 505.84375 315.64062 505.84375Q316.60938 505.84375 317.28125 506.21875Q317.95312 506.57812 318.29688 507.17188Q318.65625 507.76562 318.65625 508.42188L317.53125 508.42188Q317.53125 507.95312 317.3125 507.57812Q317.10938 507.20312 316.6875 507.0Q316.28125 506.78125 315.64062 506.78125Q315.04688 506.78125 314.64062 506.96875Q314.25 507.14062 314.0625 507.45312Q313.875 507.76562 313.875 508.15625Q313.875 508.42188 313.98438 508.65625Q314.10938 508.875 314.34375 509.0625Q314.59375 509.25 314.96875 509.40625Q315.34375 509.5625 315.875 509.70312Q316.59375 509.90625 317.125 510.17188Q317.65625 510.42188 318.0 510.73438Q318.34375 511.04688 318.5 511.4375Q318.67188 511.82812 318.67188 512.3281Q318.67188 512.8594 318.45312 513.28125Q318.25 513.7031 317.85938 514.0Q317.46875 514.2969 316.92188 514.46875Q316.375 514.625 315.70312 514.625Q315.10938 514.625 314.53125 514.4531Q313.96875 514.28125 313.5 513.9531Q313.03125 513.625 312.75 513.15625Q312.46875 512.6719 312.46875 512.03125L313.59375 512.03125Q313.59375 512.46875 313.76562 512.78125Q313.9375 513.09375 314.23438 513.2969Q314.53125 513.5 314.90625 513.6094Q315.28125 513.7031 315.70312 513.7031Q316.29688 513.7031 316.70312 513.5469Q317.10938 513.375 317.3125 513.0781Q317.53125 512.7656 317.53125 512.34375ZM322.45312 514.625Q321.79688 514.625 321.25 514.40625Q320.71875 514.1719 320.32812 513.7656Q319.95312 513.34375 319.75 512.78125Q319.54688 512.21875 319.54688 511.54688L319.54688 511.3125Q319.54688 510.53125 319.76562 509.92188Q320.0 509.3125 320.39062 508.89062Q320.78125 508.46875 321.28125 508.26562Q321.78125 508.04688 322.3125 508.04688Q323.0 508.04688 323.48438 508.28125Q323.98438 508.51562 324.29688 508.9375Q324.625 509.34375 324.76562 509.92188Q324.92188 510.48438 324.92188 511.14062L324.92188 511.64062L320.1875 511.64062L320.1875 510.75L323.84375 510.75L323.84375 510.67188Q323.8125 510.25 323.65625 509.85938Q323.51562 509.45312 323.1875 509.20312Q322.875 508.9375 322.3125 508.9375Q321.95312 508.9375 321.64062 509.09375Q321.32812 509.25 321.09375 509.5625Q320.875 509.85938 320.75 510.29688Q320.64062 510.73438 320.64062 511.3125L320.64062 511.54688Q320.64062 512.0 320.76562 512.40625Q320.89062 512.7969 321.125 513.09375Q321.375 513.3906 321.71875 513.5625Q322.07812 513.7344 322.51562 513.7344Q323.09375 513.7344 323.48438 513.5Q323.89062 513.2656 324.1875 512.875L324.84375 513.3906Q324.64062 513.7031 324.3125 513.9844Q324.0 514.2656 323.53125 514.4531Q323.07812 514.625 322.45312 514.625ZM327.0 505.5L327.0 514.5L325.92188 514.5L325.92188 505.5L327.0 505.5ZM330.0 508.15625L330.0 514.5L328.92188 514.5L328.92188 508.15625L330.0 508.15625ZM328.82812 506.48438Q328.82812 506.21875 328.98438 506.03125Q329.15625 505.84375 329.46875 505.84375Q329.78125 505.84375 329.9375 506.03125Q330.10938 506.21875 330.10938 506.48438Q330.10938 506.73438 329.9375 506.92188Q329.78125 507.09375 329.46875 507.09375Q329.15625 507.09375 328.98438 506.92188Q328.82812 506.73438 328.82812 506.48438ZM332.90625 509.51562L332.90625 514.5L331.82812 514.5L331.82812 508.15625L332.85938 508.15625L332.90625 509.51562ZM332.65625 511.09375L332.20312 511.07812Q332.20312 510.42188 332.39062 509.875Q332.57812 509.3125 332.92188 508.90625Q333.26562 508.5 333.73438 508.28125Q334.20312 508.04688 334.78125 508.04688Q335.25 508.04688 335.625 508.17188Q336.0 508.29688 336.26562 508.57812Q336.53125 508.84375 336.67188 509.28125Q336.8125 509.71875 336.8125 510.34375L336.8125 514.5L335.71875 514.5L335.71875 510.32812Q335.71875 509.82812 335.57812 509.53125Q335.4375 509.23438 335.15625 509.09375Q334.875 508.95312 334.45312 508.95312Q334.04688 508.95312 333.71875 509.125Q333.39062 509.29688 333.15625 509.59375Q332.92188 509.89062 332.78125 510.28125Q332.65625 510.65625 332.65625 511.09375ZM342.5625 513.4219L342.5625 510.15625Q342.5625 509.78125 342.40625 509.5Q342.26562 509.21875 341.96875 509.07812Q341.67188 508.92188 341.23438 508.92188Q340.8125 508.92188 340.5 509.0625Q340.20312 509.20312 340.03125 509.4375Q339.85938 509.65625 339.85938 509.92188L338.78125 509.92188Q338.78125 509.57812 338.95312 509.25Q339.125 508.90625 339.45312 508.64062Q339.78125 508.35938 340.25 508.20312Q340.71875 508.04688 341.29688 508.04688Q341.98438 508.04688 342.51562 508.28125Q343.04688 508.51562 343.34375 508.98438Q343.65625 509.45312 343.65625 510.15625L343.65625 513.1094Q343.65625 513.4375 343.70312 513.7969Q343.76562 514.1406 343.875 514.40625L343.875 514.5L342.73438 514.5Q342.65625 514.3125 342.60938 514.0Q342.5625 513.6875 342.5625 513.4219ZM342.75 510.65625L342.76562 511.42188L341.67188 511.42188Q341.20312 511.42188 340.84375 511.5Q340.48438 511.5625 340.23438 511.71875Q339.98438 511.85938 339.85938 512.0781Q339.73438 512.2969 339.73438 512.59375Q339.73438 512.8906 339.85938 513.1406Q340.0 513.375 340.26562 513.53125Q340.54688 513.6719 340.9375 513.6719Q341.4375 513.6719 341.8125 513.46875Q342.20312 513.25 342.42188 512.9531Q342.65625 512.6406 342.67188 512.34375L343.14062 512.875Q343.09375 513.1094 342.90625 513.4219Q342.73438 513.71875 342.42188 514.0Q342.125 514.2656 341.70312 514.4531Q341.29688 514.625 340.78125 514.625Q340.14062 514.625 339.65625 514.375Q339.17188 514.1094 338.90625 513.6875Q338.64062 513.2656 338.64062 512.7344Q338.64062 512.21875 338.82812 511.84375Q339.03125 511.45312 339.40625 511.1875Q339.78125 510.92188 340.3125 510.79688Q340.84375 510.65625 341.5 510.65625L342.75 510.65625ZM348.07812 510.42188L348.07812 511.3125L345.21875 511.3125L345.21875 510.42188L348.07812 510.42188ZM350.29688 509.70312L351.0625 509.70312Q351.64062 509.70312 352.0 509.51562Q352.375 509.3125 352.5625 508.98438Q352.75 508.65625 352.75 508.23438Q352.75 507.75 352.57812 507.42188Q352.42188 507.07812 352.09375 506.90625Q351.76562 506.73438 351.26562 506.73438Q350.79688 506.73438 350.45312 506.92188Q350.10938 507.09375 349.90625 507.42188Q349.71875 507.75 349.71875 508.20312L348.625 508.20312Q348.625 507.54688 348.95312 507.01562Q349.28125 506.48438 349.875 506.17188Q350.46875 505.84375 351.26562 505.84375Q352.03125 505.84375 352.60938 506.125Q353.1875 506.39062 353.51562 506.9375Q353.84375 507.46875 353.84375 508.26562Q353.84375 508.59375 353.6875 508.95312Q353.53125 509.3125 353.21875 509.64062Q352.90625 509.95312 352.40625 510.15625Q351.92188 510.35938 351.21875 510.35938L350.29688 510.35938L350.29688 509.70312ZM350.29688 510.59375L350.29688 509.9375L351.21875 509.9375Q352.03125 509.9375 352.5625 510.14062Q353.09375 510.32812 353.40625 510.65625Q353.71875 510.96875 353.84375 511.35938Q353.96875 511.73438 353.96875 512.125Q353.96875 512.71875 353.76562 513.1875Q353.5625 513.6406 353.1875 513.96875Q352.82812 514.28125 352.32812 514.4531Q351.84375 514.625 351.26562 514.625Q350.70312 514.625 350.21875 514.46875Q349.73438 514.2969 349.35938 514.0Q348.98438 513.7031 348.76562 513.2656Q348.5625 512.8125 348.5625 512.25L349.64062 512.25Q349.64062 512.6875 349.82812 513.03125Q350.03125 513.3594 350.39062 513.5469Q350.76562 513.71875 351.26562 513.71875Q351.76562 513.71875 352.125 513.5469Q352.48438 513.375 352.67188 513.03125Q352.875 512.6719 352.875 512.1406Q352.875 511.60938 352.65625 511.26562Q352.4375 510.92188 352.01562 510.76562Q351.60938 510.59375 351.0625 510.59375L350.29688 510.59375ZM356.8125 513.2031L356.8125 514.0781Q356.8125 514.625 356.53125 515.21875Q356.26562 515.8125 355.78125 516.2031L355.17188 515.78125Q355.35938 515.5156 355.48438 515.25Q355.60938 514.9844 355.67188 514.7031Q355.75 514.4219 355.75 514.09375L355.75 513.2031L356.8125 513.2031ZM363.21875 505.96875L363.21875 506.57812L359.6875 514.5L358.54688 514.5L362.07812 506.85938L357.45312 506.85938L357.45312 505.96875L363.21875 505.96875ZM364.78125 511.09375L364.78125 511.03125Q364.78125 509.75 365.0625 508.71875Q365.35938 507.6875 365.79688 506.90625Q366.25 506.125 366.73438 505.60938Q367.23438 505.09375 367.65625 504.875L367.875 505.59375Q367.53125 505.84375 367.17188 506.3125Q366.82812 506.78125 366.53125 507.45312Q366.23438 508.125 366.04688 509.01562Q365.875 509.90625 365.875 511.01562L365.875 511.09375Q365.875 512.21875 366.04688 513.1094Q366.23438 514.0 366.53125 514.6719Q366.82812 515.3594 367.17188 515.8281Q367.53125 516.3125 367.875 516.59375L367.65625 517.25Q367.23438 517.03125 366.73438 516.5156Q366.25 516.0 365.79688 515.21875Q365.35938 514.4531 365.0625 513.4219Q364.78125 512.375 364.78125 511.09375ZM372.26562 505.92188L372.26562 514.5L371.1875 514.5L371.1875 507.28125L369.0 508.07812L369.0 507.09375L372.10938 505.92188L372.26562 505.92188ZM379.26562 505.92188L379.26562 514.5L378.1875 514.5L378.1875 507.28125L376.0 508.07812L376.0 507.09375L379.10938 505.92188L379.26562 505.92188ZM385.32812 511.03125L385.32812 511.09375Q385.32812 512.375 385.03125 513.4219Q384.75 514.4531 384.29688 515.21875Q383.85938 516.0 383.35938 516.5156Q382.875 517.03125 382.45312 517.25L382.23438 516.59375Q382.57812 516.3281 382.92188 515.8594Q383.28125 515.3906 383.57812 514.7031Q383.875 514.0156 384.04688 513.125Q384.23438 512.21875 384.23438 511.09375L384.23438 511.01562Q384.23438 509.90625 384.04688 509.01562Q383.85938 508.10938 383.54688 507.42188Q383.23438 506.73438 382.89062 506.26562Q382.54688 505.79688 382.23438 505.53125L382.45312 504.875Q382.875 505.09375 383.35938 505.60938Q383.85938 506.125 384.29688 506.90625Q384.75 507.6875 385.03125 508.71875Q385.32812 509.75 385.32812 511.03125ZM389.07812 510.42188L389.07812 511.3125L386.21875 511.3125L386.21875 510.42188L389.07812 510.42188ZM393.82812 513.2656L393.82812 505.5L394.90625 505.5L394.90625 514.5L393.92188 514.5L393.82812 513.2656ZM389.5625 511.40625L389.5625 511.28125Q389.5625 510.54688 389.73438 509.95312Q389.92188 509.35938 390.25 508.9375Q390.57812 508.5 391.03125 508.28125Q391.5 508.04688 392.0625 508.04688Q392.65625 508.04688 393.10938 508.25Q393.5625 508.45312 393.875 508.85938Q394.1875 509.25 394.35938 509.8125Q394.54688 510.35938 394.625 511.0625L394.625 511.60938Q394.5625 512.2969 394.375 512.8594Q394.1875 513.4219 393.875 513.8125Q393.5625 514.2031 393.10938 514.4219Q392.65625 514.625 392.04688 514.625Q391.5 514.625 391.03125 514.3906Q390.57812 514.1406 390.25 513.7031Q389.92188 513.2656 389.73438 512.6875Q389.5625 512.09375 389.5625 511.40625ZM390.64062 511.28125L390.64062 511.40625Q390.64062 511.875 390.73438 512.2969Q390.84375 512.7031 391.04688 513.03125Q391.25 513.34375 391.5625 513.53125Q391.89062 513.7031 392.32812 513.7031Q392.85938 513.7031 393.20312 513.46875Q393.5625 513.2344 393.76562 512.8594Q393.98438 512.4844 394.09375 512.0469L394.09375 510.64062Q394.03125 510.3125 393.89062 510.01562Q393.76562 509.71875 393.54688 509.48438Q393.34375 509.23438 393.04688 509.09375Q392.75 508.95312 392.32812 508.95312Q391.89062 508.95312 391.5625 509.14062Q391.25 509.32812 391.04688 509.65625Q390.84375 509.96875 390.73438 510.39062Q390.64062 510.79688 390.64062 511.28125ZM398.0 508.15625L398.0 514.5L396.92188 514.5L396.92188 508.15625L398.0 508.15625ZM396.82812 506.48438Q396.82812 506.21875 396.98438 506.03125Q397.15625 505.84375 397.46875 505.84375Q397.78125 505.84375 397.9375 506.03125Q398.10938 506.21875 398.10938 506.48438Q398.10938 506.73438 397.9375 506.92188Q397.78125 507.09375 397.46875 507.09375Q397.15625 507.09375 396.98438 506.92188Q396.82812 506.73438 396.82812 506.48438ZM402.45312 514.625Q401.79688 514.625 401.25 514.40625Q400.71875 514.1719 400.32812 513.7656Q399.95312 513.34375 399.75 512.78125Q399.54688 512.21875 399.54688 511.54688L399.54688 511.3125Q399.54688 510.53125 399.76562 509.92188Q400.0 509.3125 400.39062 508.89062Q400.78125 508.46875 401.28125 508.26562Q401.78125 508.04688 402.3125 508.04688Q403.0 508.04688 403.48438 508.28125Q403.98438 508.51562 404.29688 508.9375Q404.625 509.34375 404.76562 509.92188Q404.92188 510.48438 404.92188 511.14062L404.92188 511.64062L400.1875 511.64062L400.1875 510.75L403.84375 510.75L403.84375 510.67188Q403.8125 510.25 403.65625 509.85938Q403.51562 509.45312 403.1875 509.20312Q402.875 508.9375 402.3125 508.9375Q401.95312 508.9375 401.64062 509.09375Q401.32812 509.25 401.09375 509.5625Q400.875 509.85938 400.75 510.29688Q400.64062 510.73438 400.64062 511.3125L400.64062 511.54688Q400.64062 512.0 400.76562 512.40625Q400.89062 512.7969 401.125 513.09375Q401.375 513.3906 401.71875 513.5625Q402.07812 513.7344 402.51562 513.7344Q403.09375 513.7344 403.48438 513.5Q403.89062 513.2656 404.1875 512.875L404.84375 513.3906Q404.64062 513.7031 404.3125 513.9844Q404.0 514.2656 403.53125 514.4531Q403.07812 514.625 402.45312 514.625ZM406.90625 509.51562L406.90625 514.5L405.82812 514.5L405.82812 508.15625L406.85938 508.15625L406.90625 509.51562ZM406.65625 511.09375L406.20312 511.07812Q406.20312 510.42188 406.39062 509.875Q406.57812 509.3125 406.92188 508.90625Q407.26562 508.5 407.73438 508.28125Q408.20312 508.04688 408.78125 508.04688Q409.25 508.04688 409.625 508.17188Q410.0 508.29688 410.26562 508.57812Q410.53125 508.84375 410.67188 509.28125Q410.8125 509.71875 410.8125 510.34375L410.8125 514.5L409.71875 514.5L409.71875 510.32812Q409.71875 509.82812 409.57812 509.53125Q409.4375 509.23438 409.15625 509.09375Q408.875 508.95312 408.45312 508.95312Q408.04688 508.95312 407.71875 509.125Q407.39062 509.29688 407.15625 509.59375Q406.92188 509.89062 406.78125 510.28125Q406.65625 510.65625 406.65625 511.09375ZM415.45312 514.625Q414.79688 514.625 414.25 514.40625Q413.71875 514.1719 413.32812 513.7656Q412.95312 513.34375 412.75 512.78125Q412.54688 512.21875 412.54688 511.54688L412.54688 511.3125Q412.54688 510.53125 412.76562 509.92188Q413.0 509.3125 413.39062 508.89062Q413.78125 508.46875 414.28125 508.26562Q414.78125 508.04688 415.3125 508.04688Q416.0 508.04688 416.48438 508.28125Q416.98438 508.51562 417.29688 508.9375Q417.625 509.34375 417.76562 509.92188Q417.92188 510.48438 417.92188 511.14062L417.92188 511.64062L413.1875 511.64062L413.1875 510.75L416.84375 510.75L416.84375 510.67188Q416.8125 510.25 416.65625 509.85938Q416.51562 509.45312 416.1875 509.20312Q415.875 508.9375 415.3125 508.9375Q414.95312 508.9375 414.64062 509.09375Q414.32812 509.25 414.09375 509.5625Q413.875 509.85938 413.75 510.29688Q413.64062 510.73438 413.64062 511.3125L413.64062 511.54688Q413.64062 512.0 413.76562 512.40625Q413.89062 512.7969 414.125 513.09375Q414.375 513.3906 414.71875 513.5625Q415.07812 513.7344 415.51562 513.7344Q416.09375 513.7344 416.48438 513.5Q416.89062 513.2656 417.1875 512.875L417.84375 513.3906Q417.64062 513.7031 417.3125 513.9844Q417.0 514.2656 416.53125 514.4531Q416.07812 514.625 415.45312 514.625Z" fill-rule="nonzero"/><path stroke="#000000" stroke-width="1.0" stroke-linecap="butt" d="M365.0 290.0L201.0 385.0" fill-rule="nonzero"/><path fill="#000000" d="M147.79688 400.25L147.79688 403.375Q147.64062 403.60938 147.29688 403.90625Q146.95312 404.1875 146.34375 404.40625Q145.73438 404.625 144.78125 404.625Q144.0 404.625 143.34375 404.35938Q142.6875 404.07812 142.20312 403.54688Q141.73438 403.01562 141.46875 402.26562Q141.21875 401.51562 141.21875 400.5625L141.21875 399.90625Q141.21875 398.9375 141.4375 398.1875Q141.67188 397.4375 142.10938 396.92188Q142.54688 396.39062 143.1875 396.125Q143.82812 395.84375 144.65625 395.84375Q145.625 395.84375 146.28125 396.1875Q146.95312 396.53125 147.3125 397.125Q147.6875 397.70312 147.79688 398.46875L146.67188 398.46875Q146.59375 398.0 146.35938 397.625Q146.14062 397.23438 145.71875 397.01562Q145.3125 396.78125 144.65625 396.78125Q144.0625 396.78125 143.625 397.0Q143.1875 397.20312 142.90625 397.60938Q142.625 398.01562 142.48438 398.59375Q142.35938 399.17188 142.35938 399.89062L142.35938 400.5625Q142.35938 401.29688 142.53125 401.875Q142.70312 402.45312 143.01562 402.875Q143.34375 403.28125 143.78125 403.5Q144.23438 403.70312 144.78125 403.70312Q145.39062 403.70312 145.76562 403.59375Q146.14062 403.48438 146.34375 403.34375Q146.5625 403.20312 146.67188 403.07812L146.67188 401.17188L144.70312 401.17188L144.70312 400.25L147.79688 400.25ZM151.95312 404.625Q151.29688 404.625 150.75 404.40625Q150.21875 404.17188 149.82812 403.76562Q149.45312 403.34375 149.25 402.78125Q149.04688 402.21875 149.04688 401.54688L149.04688 401.3125Q149.04688 400.53125 149.26562 399.92188Q149.5 399.3125 149.89062 398.89062Q150.28125 398.46875 150.78125 398.26562Q151.28125 398.04688 151.8125 398.04688Q152.5 398.04688 152.98438 398.28125Q153.48438 398.51562 153.79688 398.9375Q154.125 399.34375 154.26562 399.92188Q154.42188 400.48438 154.42188 401.14062L154.42188 401.64062L149.6875 401.64062L149.6875 400.75L153.34375 400.75L153.34375 400.67188Q153.3125 400.25 153.15625 399.85938Q153.01562 399.45312 152.6875 399.20312Q152.375 398.9375 151.8125 398.9375Q151.45312 398.9375 151.14062 399.09375Q150.82812 399.25 150.59375 399.5625Q150.375 399.85938 150.25 400.29688Q150.14062 400.73438 150.14062 401.3125L150.14062 401.54688Q150.14062 402.0 150.26562 402.40625Q150.39062 402.79688 150.625 403.09375Q150.875 403.39062 151.21875 403.5625Q151.57812 403.73438 152.01562 403.73438Q152.59375 403.73438 152.98438 403.5Q153.39062 403.26562 153.6875 402.875L154.34375 403.39062Q154.14062 403.70312 153.8125 403.98438Q153.5 404.26562 153.03125 404.45312Q152.57812 404.625 151.95312 404.625ZM156.40625 399.15625L156.40625 404.5L155.32812 404.5L155.32812 398.15625L156.375 398.15625L156.40625 399.15625ZM158.39062 398.125L158.39062 399.125Q158.25 399.10938 158.125 399.09375Q158.01562 399.07812 157.85938 399.07812Q157.48438 399.07812 157.1875 399.20312Q156.90625 399.3125 156.70312 399.53125Q156.51562 399.73438 156.39062 400.03125Q156.28125 400.32812 156.25 400.67188L155.9375 400.84375Q155.9375 400.26562 156.04688 399.76562Q156.17188 399.26562 156.40625 398.875Q156.65625 398.48438 157.01562 398.26562Q157.39062 398.04688 157.90625 398.04688Q158.03125 398.04688 158.17188 398.07812Q158.32812 398.09375 158.39062 398.125ZM160.40625 399.42188L160.40625 404.5L159.3125 404.5L159.3125 398.15625L160.34375 398.15625L160.40625 399.42188ZM160.1875 401.09375L159.67188 401.07812Q159.6875 400.42188 159.84375 399.875Q160.01562 399.3125 160.32812 398.90625Q160.65625 398.5 161.14062 398.28125Q161.625 398.04688 162.25 398.04688Q162.70312 398.04688 163.07812 398.17188Q163.45312 398.29688 163.71875 398.5625Q164.0 398.82812 164.14062 399.25Q164.29688 399.67188 164.29688 400.28125L164.29688 404.5L163.21875 404.5L163.21875 400.32812Q163.21875 399.82812 163.04688 399.53125Q162.89062 399.23438 162.57812 399.09375Q162.28125 398.95312 161.85938 398.95312Q161.39062 398.95312 161.0625 399.125Q160.73438 399.29688 160.54688 399.59375Q160.35938 399.89062 160.26562 400.28125Q160.1875 400.65625 160.1875 401.09375ZM164.29688 400.48438L163.5625 400.71875Q163.5625 400.1875 163.73438 399.71875Q163.90625 399.23438 164.21875 398.85938Q164.54688 398.48438 165.01562 398.26562Q165.48438 398.04688 166.07812 398.04688Q166.59375 398.04688 166.98438 398.1875Q167.39062 398.3125 167.65625 398.59375Q167.92188 398.875 168.0625 399.3125Q168.20312 399.73438 168.20312 400.32812L168.20312 404.5L167.125 404.5L167.125 400.32812Q167.125 399.78125 166.95312 399.5Q166.78125 399.20312 166.48438 399.07812Q166.1875 398.95312 165.76562 398.95312Q165.40625 398.95312 165.125 399.07812Q164.85938 399.20312 164.67188 399.42188Q164.48438 399.625 164.39062 399.90625Q164.29688 400.1875 164.29688 400.48438ZM174.0625 403.42188L174.0625 400.15625Q174.0625 399.78125 173.90625 399.5Q173.76562 399.21875 173.46875 399.07812Q173.17188 398.92188 172.73438 398.92188Q172.3125 398.92188 172.0 399.0625Q171.70312 399.20312 171.53125 399.4375Q171.35938 399.65625 171.35938 399.92188L170.28125 399.92188Q170.28125 399.57812 170.45312 399.25Q170.625 398.90625 170.95312 398.64062Q171.28125 398.35938 171.75 398.20312Q172.21875 398.04688 172.79688 398.04688Q173.48438 398.04688 174.01562 398.28125Q174.54688 398.51562 174.84375 398.98438Q175.15625 399.45312 175.15625 400.15625L175.15625 403.10938Q175.15625 403.4375 175.20312 403.79688Q175.26562 404.14062 175.375 404.40625L175.375 404.5L174.23438 404.5Q174.15625 404.3125 174.10938 404.0Q174.0625 403.6875 174.0625 403.42188ZM174.25 400.65625L174.26562 401.42188L173.17188 401.42188Q172.70312 401.42188 172.34375 401.5Q171.98438 401.5625 171.73438 401.71875Q171.48438 401.85938 171.35938 402.07812Q171.23438 402.29688 171.23438 402.59375Q171.23438 402.89062 171.35938 403.14062Q171.5 403.375 171.76562 403.53125Q172.04688 403.67188 172.4375 403.67188Q172.9375 403.67188 173.3125 403.46875Q173.70312 403.25 173.92188 402.95312Q174.15625 402.64062 174.17188 402.34375L174.64062 402.875Q174.59375 403.10938 174.40625 403.42188Q174.23438 403.71875 173.92188 404.0Q173.625 404.26562 173.20312 404.45312Q172.79688 404.625 172.28125 404.625Q171.64062 404.625 171.15625 404.375Q170.67188 404.10938 170.40625 403.6875Q170.14062 403.26562 170.14062 402.73438Q170.14062 402.21875 170.32812 401.84375Q170.53125 401.45312 170.90625 401.1875Q171.28125 400.92188 171.8125 400.79688Q172.34375 400.65625 173.0 400.65625L174.25 400.65625ZM179.85938 403.71875Q180.25 403.71875 180.57812 403.5625Q180.90625 403.40625 181.10938 403.14062Q181.32812 402.85938 181.35938 402.5L182.39062 402.5Q182.35938 403.0625 182.0 403.54688Q181.65625 404.03125 181.09375 404.32812Q180.53125 404.625 179.85938 404.625Q179.15625 404.625 178.625 404.375Q178.09375 404.10938 177.73438 403.67188Q177.39062 403.23438 177.21875 402.67188Q177.04688 402.09375 177.04688 401.45312L177.04688 401.20312Q177.04688 400.5625 177.21875 400.0Q177.39062 399.42188 177.73438 398.98438Q178.09375 398.54688 178.625 398.29688Q179.15625 398.04688 179.85938 398.04688Q180.60938 398.04688 181.15625 398.34375Q181.71875 398.64062 182.03125 399.17188Q182.35938 399.6875 182.39062 400.34375L181.35938 400.34375Q181.32812 399.95312 181.14062 399.64062Q180.95312 399.3125 180.625 399.125Q180.29688 398.9375 179.85938 398.9375Q179.35938 398.9375 179.01562 399.14062Q178.6875 399.32812 178.48438 399.65625Q178.29688 399.98438 178.20312 400.39062Q178.125 400.79688 178.125 401.20312L178.125 401.45312Q178.125 401.875 178.20312 402.28125Q178.29688 402.67188 178.48438 403.0Q178.6875 403.32812 179.01562 403.53125Q179.35938 403.71875 179.85938 403.71875ZM184.40625 399.15625L184.40625 404.5L183.32812 404.5L183.32812 398.15625L184.375 398.15625L184.40625 399.15625ZM186.39062 398.125L186.39062 399.125Q186.25 399.10938 186.125 399.09375Q186.01562 399.07812 185.85938 399.07812Q185.48438 399.07812 185.1875 399.20312Q184.90625 399.3125 184.70312 399.53125Q184.51562 399.73438 184.39062 400.03125Q184.28125 400.32812 184.25 400.67188L183.9375 400.84375Q183.9375 400.26562 184.04688 399.76562Q184.17188 399.26562 184.40625 398.875Q184.65625 398.48438 185.01562 398.26562Q185.39062 398.04688 185.90625 398.04688Q186.03125 398.04688 186.17188 398.07812Q186.32812 398.09375 186.39062 398.125ZM189.95312 404.625Q189.29688 404.625 188.75 404.40625Q188.21875 404.17188 187.82812 403.76562Q187.45312 403.34375 187.25 402.78125Q187.04688 402.21875 187.04688 401.54688L187.04688 401.3125Q187.04688 400.53125 187.26562 399.92188Q187.5 399.3125 187.89062 398.89062Q188.28125 398.46875 188.78125 398.26562Q189.28125 398.04688 189.8125 398.04688Q190.5 398.04688 190.98438 398.28125Q191.48438 398.51562 191.79688 398.9375Q192.125 399.34375 192.26562 399.92188Q192.42188 400.48438 192.42188 401.14062L192.42188 401.64062L187.6875 401.64062L187.6875 400.75L191.34375 400.75L191.34375 400.67188Q191.3125 400.25 191.15625 399.85938Q191.01562 399.45312 190.6875 399.20312Q190.375 398.9375 189.8125 398.9375Q189.45312 398.9375 189.14062 399.09375Q188.82812 399.25 188.59375 399.5625Q188.375 399.85938 188.25 400.29688Q188.14062 400.73438 188.14062 401.3125L188.14062 401.54688Q188.14062 402.0 188.26562 402.40625Q188.39062 402.79688 188.625 403.09375Q188.875 403.39062 189.21875 403.5625Q189.57812 403.73438 190.01562 403.73438Q190.59375 403.73438 190.98438 403.5Q191.39062 403.26562 191.6875 402.875L192.34375 403.39062Q192.14062 403.70312 191.8125 403.98438Q191.5 404.26562 191.03125 404.45312Q190.57812 404.625 189.95312 404.625ZM194.40625 399.51562L194.40625 404.5L193.32812 404.5L193.32812 398.15625L194.35938 398.15625L194.40625 399.51562ZM194.15625 401.09375L193.70312 401.07812Q193.70312 400.42188 193.89062 399.875Q194.07812 399.3125 194.42188 398.90625Q194.76562 398.5 195.23438 398.28125Q195.70312 398.04688 196.28125 398.04688Q196.75 398.04688 197.125 398.17188Q197.5 398.29688 197.76562 398.57812Q198.03125 398.84375 198.17188 399.28125Q198.3125 399.71875 198.3125 400.34375L198.3125 404.5L197.21875 404.5L197.21875 400.32812Q197.21875 399.82812 197.07812 399.53125Q196.9375 399.23438 196.65625 399.09375Q196.375 398.95312 195.95312 398.95312Q195.54688 398.95312 195.21875 399.125Q194.89062 399.29688 194.65625 399.59375Q194.42188 399.89062 194.28125 400.28125Q194.15625 400.65625 194.15625 401.09375ZM206.53125 400.51562L204.375 400.51562L204.35938 399.59375L206.32812 399.59375Q206.8125 399.59375 207.17188 399.4375Q207.53125 399.26562 207.73438 398.96875Q207.9375 398.65625 207.9375 398.23438Q207.9375 397.76562 207.75 397.46875Q207.57812 397.17188 207.20312 397.03125Q206.84375 396.89062 206.28125 396.89062L204.625 396.89062L204.625 404.5L203.48438 404.5L203.48438 395.96875L206.28125 395.96875Q206.9375 395.96875 207.45312 396.10938Q207.96875 396.23438 208.32812 396.51562Q208.6875 396.78125 208.875 397.21875Q209.0625 397.64062 209.0625 398.23438Q209.0625 398.76562 208.79688 399.20312Q208.53125 399.625 208.04688 399.89062Q207.57812 400.15625 206.9375 400.23438L206.53125 400.51562ZM206.48438 404.5L203.92188 404.5L204.5625 403.57812L206.48438 403.57812Q207.01562 403.57812 207.39062 403.39062Q207.78125 403.20312 207.96875 402.85938Q208.17188 402.51562 208.17188 402.04688Q208.17188 401.57812 208.0 401.23438Q207.82812 400.89062 207.46875 400.70312Q207.10938 400.51562 206.53125 400.51562L204.92188 400.51562L204.9375 399.59375L207.14062 399.59375L207.375 399.92188Q207.98438 399.98438 208.40625 400.28125Q208.84375 400.57812 209.0625 401.03125Q209.29688 401.48438 209.29688 402.03125Q209.29688 402.82812 208.9375 403.39062Q208.59375 403.9375 207.95312 404.21875Q207.32812 404.5 206.48438 404.5Z" fill-rule="nonzero"/><path stroke="#000000" stroke-width="1.0" stroke-linecap="butt" d="M365.0 290.0L201.0 195.0" fill-rule="nonzero"/><path fill="#000000" d="M157.03125 182.34375Q157.03125 182.04688 156.9375 181.8125Q156.85938 181.57812 156.625 181.39062Q156.40625 181.20312 156.0 181.03125Q155.60938 180.85938 155.01562 180.6875Q154.375 180.5 153.85938 180.28125Q153.35938 180.04688 152.98438 179.75Q152.625 179.4375 152.4375 179.0625Q152.25 178.67188 152.25 178.17188Q152.25 177.67188 152.45312 177.25Q152.65625 176.82812 153.03125 176.51562Q153.42188 176.20312 153.95312 176.03125Q154.48438 175.84375 155.14062 175.84375Q156.10938 175.84375 156.78125 176.21875Q157.45312 176.57812 157.79688 177.17188Q158.15625 177.76562 158.15625 178.42188L157.03125 178.42188Q157.03125 177.95312 156.8125 177.57812Q156.60938 177.20312 156.1875 177.0Q155.78125 176.78125 155.14062 176.78125Q154.54688 176.78125 154.14062 176.96875Q153.75 177.14062 153.5625 177.45312Q153.375 177.76562 153.375 178.15625Q153.375 178.42188 153.48438 178.65625Q153.60938 178.875 153.84375 179.0625Q154.09375 179.25 154.46875 179.40625Q154.84375 179.5625 155.375 179.70312Q156.09375 179.90625 156.625 180.17188Q157.15625 180.42188 157.5 180.73438Q157.84375 181.04688 158.0 181.4375Q158.17188 181.82812 158.17188 182.32812Q158.17188 182.85938 157.95312 183.28125Q157.75 183.70312 157.35938 184.0Q156.96875 184.29688 156.42188 184.46875Q155.875 184.625 155.20312 184.625Q154.60938 184.625 154.03125 184.45312Q153.46875 184.28125 153.0 183.95312Q152.53125 183.625 152.25 183.15625Q151.96875 182.67188 151.96875 182.03125L153.09375 182.03125Q153.09375 182.46875 153.26562 182.78125Q153.4375 183.09375 153.73438 183.29688Q154.03125 183.5 154.40625 183.60938Q154.78125 183.70312 155.20312 183.70312Q155.79688 183.70312 156.20312 183.54688Q156.60938 183.375 156.8125 183.07812Q157.03125 182.76562 157.03125 182.34375ZM159.04688 181.40625L159.04688 181.26562Q159.04688 180.57812 159.23438 180.0Q159.4375 179.40625 159.8125 178.96875Q160.1875 178.53125 160.71875 178.29688Q161.25 178.04688 161.92188 178.04688Q162.57812 178.04688 163.10938 178.29688Q163.65625 178.53125 164.03125 178.96875Q164.40625 179.40625 164.60938 180.0Q164.8125 180.57812 164.8125 181.26562L164.8125 181.40625Q164.8125 182.07812 164.60938 182.67188Q164.40625 183.25 164.03125 183.6875Q163.65625 184.125 163.125 184.375Q162.59375 184.625 161.92188 184.625Q161.26562 184.625 160.71875 184.375Q160.1875 184.125 159.8125 183.6875Q159.4375 183.25 159.23438 182.67188Q159.04688 182.07812 159.04688 181.40625ZM160.125 181.26562L160.125 181.40625Q160.125 181.875 160.23438 182.29688Q160.34375 182.71875 160.5625 183.04688Q160.79688 183.35938 161.14062 183.54688Q161.48438 183.71875 161.92188 183.71875Q162.375 183.71875 162.70312 183.54688Q163.04688 183.35938 163.26562 183.04688Q163.5 182.71875 163.60938 182.29688Q163.71875 181.875 163.71875 181.40625L163.71875 181.26562Q163.71875 180.79688 163.60938 180.375Q163.5 179.95312 163.26562 179.64062Q163.04688 179.3125 162.70312 179.125Q162.375 178.9375 161.92188 178.9375Q161.46875 178.9375 161.125 179.125Q160.79688 179.3125 160.5625 179.64062Q160.34375 179.95312 160.23438 180.375Q160.125 180.79688 160.125 181.26562ZM167.40625 179.51562L167.40625 184.5L166.32812 184.5L166.32812 178.15625L167.35938 178.15625L167.40625 179.51562ZM167.15625 181.09375L166.70312 181.07812Q166.70312 180.42188 166.89062 179.875Q167.07812 179.3125 167.42188 178.90625Q167.76562 178.5 168.23438 178.28125Q168.70312 178.04688 169.28125 178.04688Q169.75 178.04688 170.125 178.17188Q170.5 178.29688 170.76562 178.57812Q171.03125 178.84375 171.17188 179.28125Q171.3125 179.71875 171.3125 180.34375L171.3125 184.5L170.21875 184.5L170.21875 180.32812Q170.21875 179.82812 170.07812 179.53125Q169.9375 179.23438 169.65625 179.09375Q169.375 178.95312 168.95312 178.95312Q168.54688 178.95312 168.21875 179.125Q167.89062 179.29688 167.65625 179.59375Q167.42188 179.89062 167.28125 180.28125Q167.15625 180.65625 167.15625 181.09375ZM177.01562 182.8125Q177.01562 182.57812 176.90625 182.375Q176.8125 182.17188 176.5 182.01562Q176.1875 181.84375 175.5625 181.71875Q175.03125 181.60938 174.60938 181.46875Q174.1875 181.3125 173.89062 181.09375Q173.59375 180.875 173.4375 180.57812Q173.28125 180.28125 173.28125 179.89062Q173.28125 179.51562 173.4375 179.1875Q173.60938 178.84375 173.90625 178.59375Q174.21875 178.32812 174.65625 178.1875Q175.09375 178.04688 175.625 178.04688Q176.39062 178.04688 176.92188 178.3125Q177.46875 178.57812 177.75 179.03125Q178.03125 179.48438 178.03125 180.01562L176.95312 180.01562Q176.95312 179.76562 176.79688 179.51562Q176.64062 179.26562 176.34375 179.10938Q176.04688 178.9375 175.625 178.9375Q175.17188 178.9375 174.89062 179.07812Q174.60938 179.20312 174.48438 179.42188Q174.35938 179.625 174.35938 179.85938Q174.35938 180.04688 174.42188 180.1875Q174.48438 180.3125 174.64062 180.4375Q174.79688 180.54688 175.07812 180.65625Q175.375 180.75 175.82812 180.84375Q176.60938 181.01562 177.10938 181.26562Q177.60938 181.51562 177.85938 181.875Q178.10938 182.21875 178.10938 182.73438Q178.10938 183.15625 177.92188 183.5Q177.75 183.84375 177.42188 184.09375Q177.10938 184.34375 176.65625 184.48438Q176.20312 184.625 175.65625 184.625Q174.8125 184.625 174.23438 184.32812Q173.65625 184.01562 173.35938 183.54688Q173.0625 183.0625 173.0625 182.54688L174.14062 182.54688Q174.17188 182.98438 174.40625 183.25Q174.64062 183.51562 174.96875 183.625Q175.3125 183.71875 175.65625 183.71875Q176.09375 183.71875 176.39062 183.60938Q176.70312 183.48438 176.85938 183.28125Q177.01562 183.07812 177.01562 182.8125ZM181.98438 178.15625L181.98438 178.98438L178.54688 178.98438L178.54688 178.15625L181.98438 178.15625ZM179.71875 176.625L180.79688 176.625L180.79688 182.92188Q180.79688 183.25 180.89062 183.42188Q181.0 183.57812 181.15625 183.64062Q181.3125 183.6875 181.5 183.6875Q181.625 183.6875 181.76562 183.65625Q181.92188 183.625 182.0 183.60938L182.01562 184.5Q181.875 184.54688 181.67188 184.57812Q181.46875 184.625 181.17188 184.625Q180.78125 184.625 180.4375 184.46875Q180.10938 184.29688 179.90625 183.9375Q179.71875 183.5625 179.71875 182.92188L179.71875 176.625ZM184.5 178.15625L184.5 184.5L183.42188 184.5L183.42188 178.15625L184.5 178.15625ZM183.32812 176.48438Q183.32812 176.21875 183.48438 176.03125Q183.65625 175.84375 183.96875 175.84375Q184.28125 175.84375 184.4375 176.03125Q184.60938 176.21875 184.60938 176.48438Q184.60938 176.73438 184.4375 176.92188Q184.28125 177.09375 183.96875 177.09375Q183.65625 177.09375 183.48438 176.92188Q183.32812 176.73438 183.32812 176.48438ZM190.4375 178.15625L191.42188 178.15625L191.42188 184.35938Q191.42188 185.20312 191.07812 185.79688Q190.73438 186.39062 190.125 186.6875Q189.53125 187.0 188.73438 187.0Q188.40625 187.0 187.95312 186.89062Q187.51562 186.79688 187.09375 186.54688Q186.67188 186.3125 186.39062 185.90625L186.95312 185.25Q187.35938 185.73438 187.78125 185.92188Q188.21875 186.10938 188.65625 186.10938Q189.17188 186.10938 189.54688 185.90625Q189.92188 185.71875 190.125 185.34375Q190.32812 184.96875 190.32812 184.42188L190.32812 179.54688L190.4375 178.15625ZM186.0625 181.40625L186.0625 181.28125Q186.0625 180.54688 186.23438 179.95312Q186.42188 179.35938 186.73438 178.9375Q187.0625 178.5 187.51562 178.28125Q187.98438 178.04688 188.57812 178.04688Q189.17188 178.04688 189.60938 178.25Q190.0625 178.45312 190.375 178.85938Q190.6875 179.25 190.875 179.8125Q191.0625 180.35938 191.125 181.0625L191.125 181.60938Q191.0625 182.29688 190.875 182.85938Q190.6875 183.42188 190.375 183.8125Q190.0625 184.20312 189.60938 184.42188Q189.15625 184.625 188.5625 184.625Q187.98438 184.625 187.53125 184.39062Q187.07812 184.14062 186.75 183.70312Q186.42188 183.26562 186.23438 182.6875Q186.0625 182.09375 186.0625 181.40625ZM187.15625 181.28125L187.15625 181.40625Q187.15625 181.875 187.25 182.29688Q187.34375 182.70312 187.54688 183.03125Q187.75 183.34375 188.0625 183.53125Q188.39062 183.70312 188.82812 183.70312Q189.35938 183.70312 189.70312 183.46875Q190.0625 183.23438 190.26562 182.85938Q190.48438 182.48438 190.59375 182.04688L190.59375 180.64062Q190.53125 180.3125 190.39062 180.01562Q190.26562 179.71875 190.0625 179.48438Q189.85938 179.23438 189.54688 179.09375Q189.25 178.95312 188.82812 178.95312Q188.39062 178.95312 188.0625 179.14062Q187.75 179.32812 187.54688 179.65625Q187.34375 179.96875 187.25 180.39062Q187.15625 180.79688 187.15625 181.28125ZM195.95312 184.625Q195.29688 184.625 194.75 184.40625Q194.21875 184.17188 193.82812 183.76562Q193.45312 183.34375 193.25 182.78125Q193.04688 182.21875 193.04688 181.54688L193.04688 181.3125Q193.04688 180.53125 193.26562 179.92188Q193.5 179.3125 193.89062 178.89062Q194.28125 178.46875 194.78125 178.26562Q195.28125 178.04688 195.8125 178.04688Q196.5 178.04688 196.98438 178.28125Q197.48438 178.51562 197.79688 178.9375Q198.125 179.34375 198.26562 179.92188Q198.42188 180.48438 198.42188 181.14062L198.42188 181.64062L193.6875 181.64062L193.6875 180.75L197.34375 180.75L197.34375 180.67188Q197.3125 180.25 197.15625 179.85938Q197.01562 179.45312 196.6875 179.20312Q196.375 178.9375 195.8125 178.9375Q195.45312 178.9375 195.14062 179.09375Q194.82812 179.25 194.59375 179.5625Q194.375 179.85938 194.25 180.29688Q194.14062 180.73438 194.14062 181.3125L194.14062 181.54688Q194.14062 182.0 194.26562 182.40625Q194.39062 182.79688 194.625 183.09375Q194.875 183.39062 195.21875 183.5625Q195.57812 183.73438 196.01562 183.73438Q196.59375 183.73438 196.98438 183.5Q197.39062 183.26562 197.6875 182.875L198.34375 183.39062Q198.14062 183.70312 197.8125 183.98438Q197.5 184.26562 197.03125 184.45312Q196.57812 184.625 195.95312 184.625Z" fill-rule="nonzero"/><path stroke="#000000" stroke-width="1.0" stroke-linecap="butt" d="M365.0 290.0L365.0 101.0" fill-rule="nonzero"/><path stroke="#ff0000" stroke-width="2.0" stroke-linecap="butt" stroke-opacity="0.7019608" stroke-dasharray="8.0,6.0,2.0,6.0" d="M365.0 207.0L401.0 269.0L394.0 307.0L365.0 313.0L345.0 301.0L214.0 203.0Z" fill-rule="nonzero"/><path fill="#ff0000" fill-opacity="0.7019608" d="M369.5 207.0C369.5 209.48528 367.4853 211.5 365.0 211.5C362.5147 211.5 360.5 209.48528 360.5 207.0C360.5 204.51472 362.5147 202.5 365.0 202.5C367.4853 202.5 369.5 204.51472 369.5 207.0Z" fill-rule="nonzero"/><path fill="#ff0000" fill-opacity="0.7019608" d="M405.5 269.0C405.5 271.4853 403.4853 273.5 401.0 273.5C398.5147 273.5 396.5 271.4853 396.5 269.0C396.5 266.5147 398.5147 264.5 401.0 264.5C403.4853 264.5 405.5 266.5147 405.5 269.0Z" fill-rule="nonzero"/><path fill="#ff0000" fill-opacity="0.7019608" d="M398.5 307.0C398.5 309.4853 396.4853 311.5 394.0 311.5C391.5147 311.5 389.5 309.4853 389.5 307.0C389.5 304.5147 391.5147 302.5 394.0 302.5C396.4853 302.5 398.5 304.5147 398.5 307.0Z" fill-rule="nonzero"/><path fill="#ff0000" fill-opacity="0.7019608" d="M369.5 313.0C369.5 315.4853 367.4853 317.5 365.0 317.5C362.5147 317.5 360.5 315.4853 360.5 313.0C360.5 310.5147 362.5147 308.5 365.0 308.5C367.4853 308.5 369.5 310.5147 369.5 313.0Z" fill-rule="nonzero"/><path fill="#ff0000" fill-opacity="0.7019608" d="M349.5 301.0C349.5 303.4853 347.4853 305.5 345.0 305.5C342.5147 305.5 340.5 303.4853 340.5 301.0C340.5 298.5147 342.5147 296.5 345.0 296.5C347.4853 296.5 349.5 298.5147 349.5 301.0Z" fill-rule="nonzero"/><path fill="#ff0000" fill-opacity="0.7019608" d="M218.5 203.0C218.5 205.48528 216.48528 207.5 214.0 207.5C211.51472 207.5 209.5 205.48528 209.5 203.0C209.5 200.51472 211.51472 198.5 214.0 198.5C216.48528 198.5 218.5 200.51472 218.5 203.0Z" fill-rule="nonzero"/><path fill="#757575" d="M28.36875 45.9L28.36875 31.587502L33.74375 31.587502Q35.384377 31.587502 36.36875 32.025Q37.353127 32.446877 37.915627 33.353127Q38.478127 34.259377 38.478127 35.24375Q38.478127 36.165627 37.978127 36.978127Q37.49375 37.790627 36.478127 38.275Q37.775 38.665627 38.478127 39.5875Q39.18125 40.49375 39.18125 41.74375Q39.18125 42.759377 38.74375 43.61875Q38.321877 44.478127 37.696877 44.946877Q37.071877 45.415627 36.134377 45.665627Q35.196877 45.9 33.821877 45.9L28.36875 45.9ZM30.259375 37.603127L33.353127 37.603127Q34.61875 37.603127 35.165627 37.43125Q35.884377 37.2125 36.24375 36.728127Q36.61875 36.228127 36.61875 35.4625Q36.61875 34.759377 36.275 34.2125Q35.93125 33.665627 35.290627 33.478127Q34.665627 33.275 33.11875 33.275L30.259375 33.275L30.259375 37.603127ZM30.259375 44.2125L33.821877 44.2125Q34.74375 44.2125 35.11875 44.134377Q35.775 44.025 36.2125 43.759377Q36.65 43.478127 36.93125 42.9625Q37.2125 42.43125 37.2125 41.74375Q37.2125 40.946877 36.80625 40.353127Q36.4 39.759377 35.665627 39.525Q34.93125 39.290627 33.571877 39.290627L30.259375 39.290627L30.259375 44.2125ZM48.321877 42.55625L50.134377 42.790627Q49.7125 44.36875 48.540627 45.259377Q47.384377 46.134377 45.571877 46.134377Q43.30625 46.134377 41.9625 44.74375Q40.634377 43.3375 40.634377 40.80625Q40.634377 38.18125 41.978127 36.74375Q43.321877 35.290627 45.478127 35.290627Q47.55625 35.290627 48.86875 36.7125Q50.196877 38.11875 50.196877 40.696877Q50.196877 40.853127 50.18125 41.165627L42.446877 41.165627Q42.540627 42.86875 43.415627 43.775Q44.290627 44.68125 45.5875 44.68125Q46.55625 44.68125 47.228127 44.18125Q47.915627 43.665627 48.321877 42.55625ZM42.540627 39.7125L48.3375 39.7125Q48.228127 38.415627 47.68125 37.759377Q46.8375 36.74375 45.49375 36.74375Q44.290627 36.74375 43.4625 37.55625Q42.634377 38.353127 42.540627 39.7125ZM52.196877 45.9L52.196877 35.525L53.775 35.525L53.775 37.103127Q54.384377 35.99375 54.9 35.65Q55.415627 35.290627 56.025 35.290627Q56.915627 35.290627 57.8375 35.853127L57.228127 37.49375Q56.5875 37.103127 55.946877 37.103127Q55.36875 37.103127 54.9 37.4625Q54.446877 37.80625 54.24375 38.415627Q53.9625 39.353127 53.9625 40.4625L53.9625 45.9L52.196877 45.9ZM59.18125 45.9L59.18125 31.587502L60.93125 31.587502L60.93125 45.9L59.18125 45.9ZM63.228127 33.603127L63.228127 31.587502L64.99375 31.587502L64.99375 33.603127L63.228127 33.603127ZM63.228127 45.9L63.228127 35.525L64.99375 35.525L64.99375 45.9L63.228127 45.9ZM67.2125 45.9L67.2125 35.525L68.80625 35.525L68.80625 37.009377Q69.94688 35.290627 72.10313 35.290627Q73.04063 35.290627 73.82188 35.634377Q74.61875 35.9625 75.00938 36.509377Q75.4 37.05625 75.55625 37.80625Q75.65 38.30625 75.65 39.525L75.65 45.9L73.88438 45.9L73.88438 39.5875Q73.88438 38.509377 73.68125 37.978127Q73.47813 37.446877 72.94688 37.134377Q72.43125 36.821877 71.72813 36.821877Q70.60313 36.821877 69.79063 37.540627Q68.97813 38.24375 68.97813 40.228127L68.97813 45.9L67.2125 45.9ZM83.36875 45.9L83.36875 31.587502L88.74375 31.587502Q90.38438 31.587502 91.36875 32.025Q92.35313 32.446877 92.91563 33.353127Q93.47813 34.259377 93.47813 35.24375Q93.47813 36.165627 92.97813 36.978127Q92.49375 37.790627 91.47813 38.275Q92.775 38.665627 93.47813 39.5875Q94.18125 40.49375 94.18125 41.74375Q94.18125 42.759377 93.74375 43.61875Q93.32188 44.478127 92.69688 44.946877Q92.07188 45.415627 91.13438 45.665627Q90.19688 45.9 88.82188 45.9L83.36875 45.9ZM85.25938 37.603127L88.35313 37.603127Q89.61875 37.603127 90.16563 37.43125Q90.88438 37.2125 91.24375 36.728127Q91.61875 36.228127 91.61875 35.4625Q91.61875 34.759377 91.275 34.2125Q90.93125 33.665627 90.29063 33.478127Q89.66563 33.275 88.11875 33.275L85.25938 33.275L85.25938 37.603127ZM85.25938 44.2125L88.82188 44.2125Q89.74375 44.2125 90.11875 44.134377Q90.775 44.025 91.2125 43.759377Q91.65 43.478127 91.93125 42.9625Q92.2125 42.43125 92.2125 41.74375Q92.2125 40.946877 91.80625 40.353127Q91.4 39.759377 90.66563 39.525Q89.93125 39.290627 88.57188 39.290627L85.25938 39.290627L85.25938 44.2125ZM103.32188 42.55625L105.13438 42.790627Q104.7125 44.36875 103.54063 45.259377Q102.38438 46.134377 100.57188 46.134377Q98.30625 46.134377 96.9625 44.74375Q95.63438 43.3375 95.63438 40.80625Q95.63438 38.18125 96.97813 36.74375Q98.32188 35.290627 100.47813 35.290627Q102.55625 35.290627 103.86875 36.7125Q105.19688 38.11875 105.19688 40.696877Q105.19688 40.853127 105.18125 41.165627L97.44688 41.165627Q97.54063 42.86875 98.41563 43.775Q99.29063 44.68125 100.5875 44.68125Q101.55625 44.68125 102.22813 44.18125Q102.91563 43.665627 103.32188 42.55625ZM97.54063 39.7125L103.3375 39.7125Q103.22813 38.415627 102.68125 37.759377Q101.8375 36.74375 100.49375 36.74375Q99.29063 36.74375 98.4625 37.55625Q97.63438 38.353127 97.54063 39.7125ZM107.19688 45.9L107.19688 35.525L108.775 35.525L108.775 37.103127Q109.38438 35.99375 109.9 35.65Q110.41563 35.290627 111.025 35.290627Q111.91563 35.290627 112.8375 35.853127L112.22813 37.49375Q111.5875 37.103127 110.94688 37.103127Q110.36875 37.103127 109.9 37.4625Q109.44688 37.80625 109.24375 38.415627Q108.9625 39.353127 108.9625 40.4625L108.9625 45.9L107.19688 45.9ZM114.19688 45.9L114.19688 35.525L115.775 35.525L115.775 37.103127Q116.38438 35.99375 116.9 35.65Q117.41563 35.290627 118.025 35.290627Q118.91563 35.290627 119.8375 35.853127L119.22813 37.49375Q118.5875 37.103127 117.94688 37.103127Q117.36875 37.103127 116.9 37.4625Q116.44688 37.80625 116.24375 38.415627Q115.9625 39.353127 115.9625 40.4625L115.9625 45.9L114.19688 45.9ZM121.22813 33.603127L121.22813 31.587502L122.99375 31.587502L122.99375 33.603127L121.22813 33.603127ZM121.22813 45.9L121.22813 35.525L122.99375 35.525L122.99375 45.9L121.22813 45.9ZM132.32187 42.55625L134.13437 42.790627Q133.7125 44.36875 132.54062 45.259377Q131.38437 46.134377 129.57187 46.134377Q127.30625 46.134377 125.9625 44.74375Q124.63438 43.3375 124.63438 40.80625Q124.63438 38.18125 125.97813 36.74375Q127.32188 35.290627 129.47812 35.290627Q131.55624 35.290627 132.86874 36.7125Q134.19687 38.11875 134.19687 40.696877Q134.19687 40.853127 134.18124 41.165627L126.44688 41.165627Q126.54063 42.86875 127.41563 43.775Q128.29062 44.68125 129.5875 44.68125Q130.55624 44.68125 131.22812 44.18125Q131.91562 43.665627 132.32187 42.55625ZM126.54063 39.7125L132.3375 39.7125Q132.22812 38.415627 131.68124 37.759377Q130.8375 36.74375 129.49374 36.74375Q128.29062 36.74375 127.4625 37.55625Q126.63438 38.353127 126.54063 39.7125ZM135.50937 42.80625L137.25937 42.525Q137.4 43.571877 138.07187 44.134377Q138.74374 44.68125 139.94687 44.68125Q141.15 44.68125 141.72812 44.196877Q142.32187 43.696877 142.32187 43.040627Q142.32187 42.446877 141.80624 42.103127Q141.44687 41.86875 140.00937 41.509377Q138.07187 41.009377 137.32187 40.665627Q136.5875 40.30625 136.19687 39.68125Q135.80624 39.040627 135.80624 38.275Q135.80624 37.5875 136.11874 36.99375Q136.44687 36.4 136.99374 36.009377Q137.4 35.7125 138.10312 35.509377Q138.82187 35.290627 139.63437 35.290627Q140.85312 35.290627 141.775 35.65Q142.69687 35.99375 143.13437 36.603127Q143.57187 37.196877 143.74374 38.196877L142.025 38.43125Q141.9 37.634377 141.3375 37.196877Q140.775 36.74375 139.75937 36.74375Q138.54062 36.74375 138.025 37.15Q137.50937 37.540627 137.50937 38.071877Q137.50937 38.415627 137.72812 38.696877Q137.93124 38.978127 138.4 39.165627Q138.66562 39.259377 139.94687 39.603127Q141.82187 40.103127 142.55624 40.43125Q143.29062 40.74375 143.7125 41.353127Q144.13437 41.946877 144.13437 42.853127Q144.13437 43.728127 143.61874 44.509377Q143.10312 45.290627 142.13437 45.7125Q141.16562 46.134377 139.94687 46.134377Q137.93124 46.134377 136.86874 45.290627Q135.80624 44.446877 135.50937 42.80625Z" fill-rule="nonzero"/></svg>