<svg version="1.1" viewBox="0.0 0.0 730.0 655.0" fill="none" stroke="none" stroke-linecap="square" stroke-miterlimit="10" width="730" height="655" xmlns:xlink="http://www.w3.org/1999/xlink" xmlns="http://www.w3.org/2000/svg"><path fill="#ffffff" d="M0 0L730.0 0L730.0 655.0L0 655.0L0 0Z" fill-rule="nonzero"/><path fill="#ffffff" d="M32.75 78.583336L697.25 78.583336L697.25 622.25L32.75 622.25L32.75 78.583336Z" fill-rule="nonzero"/><path stroke="#000000" stroke-width="1.0" stroke-linecap="butt" d="M365.0 350.0C365.0 350.0 365.0 350.0 365.0 350.0C365.0 350.0 365.0 350.0 365.0 350.0C365.0 350.0 365.0 350.0 365.0 350.0C365.0 350.0 365.0 350.0 365.0 350.0" fill-rule="nonzero"/><path fill="#000000" d="M353.0625 342.04688L353.0625 343.35938Q353.0625 344.40625 352.875 345.125Q352.6875 345.84375 352.32812 346.28125Q351.98438 346.71875 351.48438 346.92188Q351.0 347.125 350.375 347.125Q349.89062 347.125 349.46875 347.0Q349.04688 346.875 348.71875 346.60938Q348.39062 346.32812 348.15625 345.89062Q347.92188 345.45312 347.79688 344.82812Q347.67188 344.1875 347.67188 343.35938L347.67188 342.04688Q347.67188 341.0 347.85938 340.29688Q348.0625 339.59375 348.40625 339.15625Q348.76562 338.71875 349.25 338.53125Q349.75 338.34375 350.35938 338.34375Q350.85938 338.34375 351.28125 338.46875Q351.70312 338.59375 352.03125 338.85938Q352.35938 339.10938 352.57812 339.54688Q352.8125 339.96875 352.9375 340.59375Q353.0625 341.21875 353.0625 342.04688ZM351.96875 343.53125L351.96875 341.875Q351.96875 341.29688 351.90625 340.85938Q351.84375 340.42188 351.70312 340.10938Q351.57812 339.79688 351.375 339.60938Q351.1875 339.42188 350.9375 339.32812Q350.6875 339.23438 350.35938 339.23438Q349.98438 339.23438 349.67188 339.375Q349.375 339.51562 349.17188 339.82812Q348.96875 340.14062 348.85938 340.65625Q348.76562 341.15625 348.76562 341.875L348.76562 343.53125Q348.76562 344.10938 348.82812 344.54688Q348.90625 344.98438 349.03125 345.3125Q349.17188 345.625 349.35938 345.82812Q349.5625 346.03125 349.8125 346.125Q350.0625 346.21875 350.375 346.21875Q350.78125 346.21875 351.07812 346.07812Q351.375 345.92188 351.57812 345.59375Q351.78125 345.26562 351.875 344.76562Q351.96875 344.25 351.96875 343.53125ZM355.8125 345.70312L355.8125 346.57812Q355.8125 347.125 355.53125 347.71875Q355.26562 348.3125 354.78125 348.70312L354.17188 348.28125Q354.35938 348.01562 354.48438 347.75Q354.60938 347.48438 354.67188 347.20312Q354.75 346.92188 354.75 346.59375L354.75 345.70312L355.8125 345.70312ZM362.0625 342.04688L362.0625 343.35938Q362.0625 344.40625 361.875 345.125Q361.6875 345.84375 361.32812 346.28125Q360.98438 346.71875 360.48438 346.92188Q360.0 347.125 359.375 347.125Q358.89062 347.125 358.46875 347.0Q358.04688 346.875 357.71875 346.60938Q357.39062 346.32812 357.15625 345.89062Q356.92188 345.45312 356.79688 344.82812Q356.67188 344.1875 356.67188 343.35938L356.67188 342.04688Q356.67188 341.0 356.85938 340.29688Q357.0625 339.59375 357.40625 339.15625Q357.76562 338.71875 358.25 338.53125Q358.75 338.34375 359.35938 338.34375Q359.85938 338.34375 360.28125 338.46875Q360.70312 338.59375 361.03125 338.85938Q361.35938 339.10938 361.57812 339.54688Q361.8125 339.96875 361.9375 340.59375Q362.0625 341.21875 362.0625 342.04688ZM360.96875 343.53125L360.96875 341.875Q360.96875 341.29688 360.90625 340.85938Q360.84375 340.42188 360.70312 340.10938Q360.57812 339.79688 360.375 339.60938Q360.1875 339.42188 359.9375 339.32812Q359.6875 339.23438 359.35938 339.23438Q358.98438 339.23438 358.67188 339.375Q358.375 339.51562 358.17188 339.82812Q357.96875 340.14062 357.85938 340.65625Q357.76562 341.15625 357.76562 341.875L357.76562 343.53125Q357.76562 344.10938 357.82812 344.54688Q357.90625 344.98438 358.03125 345.3125Q358.17188 345.625 358.35938 345.82812Q358.5625 346.03125 358.8125 346.125Q359.0625 346.21875 359.375 346.21875Q359.78125 346.21875 360.07812 346.07812Q360.375 345.92188 360.57812 345.59375Q360.78125 345.26562 360.875 344.76562Q360.96875 344.25 360.96875 343.53125Z" fill-rule="nonzero"/><path stroke="#000000" stroke-width="1.0" stroke-linecap="butt" d="M408.87976 350.0C408.87976 325.76587 389.23413 306.12024 365.0 306.12024C340.76587 306.12024 321.12024 325.76587 321.12024 350.0C321.12024 374.23413 340.76587 393.87976 365.0 393.87976C389.23413 393.87976 408.87976 374.23413 408.87976 350.0" fill-rule="nonzero"/><path fill="#000000" d="M353.0625 298.1671L353.0625 299.4796Q353.0625 300.5265 352.875 301.24524Q352.6875 301.964 352.32812 302.4015Q351.98438 302.839 351.48438 303.0421Q351.0 303.24524 350.375 303.24524Q349.89062 303.24524 349.46875 303.12024Q349.04688 302.99524 348.71875 302.7296Q348.39062 302.44836 348.15625 302.01086Q347.92188 301.57336 347.79688 300.94836Q347.67188 300.30774 347.67188 299.4796L347.67188 298.1671Q347.67188 297.12024 347.85938 296.4171Q348.0625 295.714 348.40625 295.2765Q348.76562 294.839 349.25 294.6515Q349.75 294.464 350.35938 294.464Q350.85938 294.464 351.28125 294.589Q351.70312 294.714 352.03125 294.9796Q352.35938 295.2296 352.57812 295.6671Q352.8125 296.089 352.9375 296.714Q353.0625 297.339 353.0625 298.1671ZM351.96875 299.6515L351.96875 297.99524Q351.96875 297.4171 351.90625 296.9796Q351.84375 296.5421 351.70312 296.2296Q351.57812 295.9171 351.375 295.7296Q351.1875 295.5421 350.9375 295.44836Q350.6875 295.3546 350.35938 295.3546Q349.98438 295.3546 349.67188 295.49524Q349.375 295.63586 349.17188 295.94836Q348.96875 296.26086 348.85938 296.7765Q348.76562 297.2765 348.76562 297.99524L348.76562 299.6515Q348.76562 300.2296 348.82812 300.6671Q348.90625 301.1046 349.03125 301.43274Q349.17188 301.74524 349.35938 301.94836Q349.5625 302.1515 349.8125 302.24524Q350.0625 302.339 350.375 302.339Q350.78125 302.339 351.07812 302.19836Q351.375 302.0421 351.57812 301.714Q351.78125 301.38586 351.875 300.88586Q351.96875 300.37024 351.96875 299.6515ZM355.8125 301.82336L355.8125 302.69836Q355.8125 303.24524 355.53125 303.839Q355.26562 304.43274 354.78125 304.82336L354.17188 304.4015Q354.35938 304.13586 354.48438 303.87024Q354.60938 303.6046 354.67188 303.32336Q354.75 303.0421 354.75 302.714L354.75 301.82336L355.8125 301.82336ZM360.26562 294.5421L360.26562 303.12024L359.1875 303.12024L359.1875 295.9015L357.0 296.69836L357.0 295.714L360.10938 294.5421L360.26562 294.5421Z" fill-rule="nonzero"/><path stroke="#000000" stroke-width="1.0" stroke-linecap="butt" d="M452.7595 350.0C452.7595 301.53177 413.46823 262.2405 365.0 262.2405C316.53177 262.2405 277.2405 301.53177 277.2405 350.0C277.2405 398.46823 316.53177 437.7595 365.0 437.7595C413.46823 437.7595 452.7595 398.46823 452.7595 350.0" fill-rule="nonzero"/><path fill="#000000" d="M353.0625 254.28738L353.0625 255.59988Q353.0625 256.64676 352.875 257.3655Q352.6875 258.08426 352.32812 258.52176Q351.98438 258.95926 351.48438 259.16238Q351.0 259.3655 350.375 259.3655Q349.89062 259.3655 349.46875 259.2405Q349.04688 259.1155 348.71875 258.84988Q348.39062 258.56863 348.15625 258.13113Q347.92188 257.69363 347.79688 257.06863Q347.67188 256.428 347.67188 255.59988L347.67188 254.28738Q347.67188 253.24051 347.85938 252.53738Q348.0625 251.83426 348.40625 251.39676Q348.76562 250.95926 349.25 250.77176Q349.75 250.58426 350.35938 250.58426Q350.85938 250.58426 351.28125 250.70926Q351.70312 250.83426 352.03125 251.09988Q352.35938 251.34988 352.57812 251.78738Q352.8125 252.20926 352.9375 252.83426Q353.0625 253.45926 353.0625 254.28738ZM351.96875 255.77176L351.96875 254.11551Q351.96875 253.53738 351.90625 253.09988Q351.84375 252.66238 351.70312 252.34988Q351.57812 252.03738 351.375 251.84988Q351.1875 251.66238 350.9375 251.56863Q350.6875 251.47488 350.35938 251.47488Q349.98438 251.47488 349.67188 251.61551Q349.375 251.75613 349.17188 252.06863Q348.96875 252.38113 348.85938 252.89676Q348.76562 253.39676 348.76562 254.11551L348.76562 255.77176Q348.76562 256.34988 348.82812 256.78738Q348.90625 257.22488 349.03125 257.553Q349.17188 257.8655 349.35938 258.06863Q349.5625 258.27176 349.8125 258.3655Q350.0625 258.45926 350.375 258.45926Q350.78125 258.45926 351.07812 258.31863Q351.375 258.16238 351.57812 257.83426Q351.78125 257.50613 351.875 257.00613Q351.96875 256.4905 351.96875 255.77176ZM355.8125 257.94363L355.8125 258.81863Q355.8125 259.3655 355.53125 259.95926Q355.26562 260.553 354.78125 260.94363L354.17188 260.52176Q354.35938 260.25613 354.48438 259.9905Q354.60938 259.72488 354.67188 259.44363Q354.75 259.16238 354.75 258.83426L354.75 257.94363L355.8125 257.94363ZM362.29688 258.34988L362.29688 259.2405L356.71875 259.2405L356.71875 258.45926L359.51562 255.34988Q360.03125 254.77176 360.3125 254.38113Q360.59375 253.97488 360.70312 253.66238Q360.82812 253.33426 360.82812 253.00613Q360.82812 252.58426 360.65625 252.24051Q360.48438 251.89676 360.14062 251.69363Q359.8125 251.47488 359.32812 251.47488Q358.76562 251.47488 358.39062 251.70926Q358.01562 251.92801 357.82812 252.31863Q357.64062 252.70926 357.64062 253.20926L356.54688 253.20926Q356.54688 252.49051 356.85938 251.89676Q357.1875 251.30301 357.79688 250.94363Q358.42188 250.58426 359.32812 250.58426Q360.14062 250.58426 360.71875 250.88113Q361.29688 251.16238 361.59375 251.67801Q361.90625 252.17801 361.90625 252.86551Q361.90625 253.24051 361.78125 253.63113Q361.65625 254.00613 361.4375 254.39676Q361.21875 254.77176 360.92188 255.14676Q360.64062 255.50613 360.3125 255.86551L358.01562 258.34988L362.29688 258.34988Z" fill-rule="nonzero"/><path stroke="#000000" stroke-width="1.0" stroke-linecap="butt" d="M496.63925 350.0C496.63925 277.29764 437.70236 218.36075 365.0 218.36075C292.29764 218.36075 233.36075 277.29764 233.36075 350.0C233.36075 422.70236 292.29764 481.63925 365.0 481.63925C437.70236 481.63925 496.63925 422.70236 496.63925 350.0" fill-rule="nonzero"/><path fill="#000000" d="M353.0625 210.40762L353.0625 211.72012Q353.0625 212.767 352.875 213.48575Q352.6875 214.2045 352.32812 214.642Q351.98438 215.0795 351.48438 215.28262Q351.0 215.48575 350.375 215.48575Q349.89062 215.48575 349.46875 215.36075Q349.04688 215.23575 348.71875 214.97012Q348.39062 214.68887 348.15625 214.25137Q347.92188 213.81387 347.79688 213.18887Q347.67188 212.54825 347.67188 211.72012L347.67188 210.40762Q347.67188 209.36075 347.85938 208.65762Q348.0625 207.9545 348.40625 207.517Q348.76562 207.0795 349.25 206.892Q349.75 206.7045 350.35938 206.7045Q350.85938 206.7045 351.28125 206.8295Q351.70312 206.9545 352.03125 207.22012Q352.35938 207.47012 352.57812 207.90762Q352.8125 208.3295 352.9375 208.9545Q353.0625 209.5795 353.0625 210.40762ZM351.96875 211.892L351.96875 210.23575Q351.96875 209.65762 351.90625 209.22012Q351.84375 208.78262 351.70312 208.47012Q351.57812 208.15762 351.375 207.97012Q351.1875 207.78262 350.9375 207.68887Q350.6875 207.59512 350.35938 207.59512Q349.98438 207.59512 349.67188 207.73575Q349.375 207.87637 349.17188 208.18887Q348.96875 208.50137 348.85938 209.017Q348.76562 209.517 348.76562 210.23575L348.76562 211.892Q348.76562 212.47012 348.82812 212.90762Q348.90625 213.34512 349.03125 213.67325Q349.17188 213.98575 349.35938 214.18887Q349.5625 214.392 349.8125 214.48575Q350.0625 214.5795 350.375 214.5795Q350.78125 214.5795 351.07812 214.43887Q351.375 214.28262 351.57812 213.9545Q351.78125 213.62637 351.875 213.12637Q351.96875 212.61075 351.96875 211.892ZM355.8125 214.06387L355.8125 214.93887Q355.8125 215.48575 355.53125 216.0795Q355.26562 216.67325 354.78125 217.06387L354.17188 216.642Q354.35938 216.37637 354.48438 216.11075Q354.60938 215.84512 354.67188 215.56387Q354.75 215.28262 354.75 214.9545L354.75 214.06387L355.8125 214.06387ZM358.29688 210.56387L359.0625 210.56387Q359.64062 210.56387 360.0 210.37637Q360.375 210.17325 360.5625 209.84512Q360.75 209.517 360.75 209.09512Q360.75 208.61075 360.57812 208.28262Q360.42188 207.93887 360.09375 207.767Q359.76562 207.59512 359.26562 207.59512Q358.79688 207.59512 358.45312 207.78262Q358.10938 207.9545 357.90625 208.28262Q357.71875 208.61075 357.71875 209.06387L356.625 209.06387Q356.625 208.40762 356.95312 207.87637Q357.28125 207.34512 357.875 207.03262Q358.46875 206.7045 359.26562 206.7045Q360.03125 206.7045 360.60938 206.98575Q361.1875 207.25137 361.51562 207.79825Q361.84375 208.3295 361.84375 209.12637Q361.84375 209.4545 361.6875 209.81387Q361.53125 210.17325 361.21875 210.50137Q360.90625 210.81387 360.40625 211.017Q359.92188 211.22012 359.21875 211.22012L358.29688 211.22012L358.29688 210.56387ZM358.29688 211.4545L358.29688 210.79825L359.21875 210.79825Q360.03125 210.79825 360.5625 211.00137Q361.09375 211.18887 361.40625 211.517Q361.71875 211.8295 361.84375 212.22012Q361.96875 212.59512 361.96875 212.98575Q361.96875 213.5795 361.76562 214.04825Q361.5625 214.50137 361.1875 214.8295Q360.82812 215.142 360.32812 215.31387Q359.84375 215.48575 359.26562 215.48575Q358.70312 215.48575 358.21875 215.3295Q357.73438 215.15762 357.35938 214.86075Q356.98438 214.56387 356.76562 214.12637Q356.5625 213.67325 356.5625 213.11075L357.64062 213.11075Q357.64062 213.54825 357.82812 213.892Q358.03125 214.22012 358.39062 214.40762Q358.76562 214.5795 359.26562 214.5795Q359.76562 214.5795 360.125 214.40762Q360.48438 214.23575 360.67188 213.892Q360.875 213.53262 360.875 213.00137Q360.875 212.47012 360.65625 212.12637Q360.4375 211.78262 360.01562 211.62637Q359.60938 211.4545 359.0625 211.4545L358.29688 211.4545Z" fill-rule="nonzero"/><path stroke="#000000" stroke-width="1.0" stroke-linecap="butt" d="M540.519 350.0C540.519 253.06354 461.93646 174.481 365.0 174.481C268.06354 174.481 189.481 253.06354 189.481 350.0C189.481 446.93646 268.06354 525.519 365.0 525.519C461.93646 525.519 540.519 446.93646 540.519 350.0" fill-rule="nonzero"/><path fill="#000000" d="M353.0625 166.52788L353.0625 167.84038Q353.0625 168.88725 352.875 169.606Q352.6875 170.32475 352.32812 170.76225Q351.98438 171.19975 351.48438 171.40288Q351.0 171.606 350.375 171.606Q349.89062 171.606 349.46875 171.481Q349.04688 171.356 348.71875 171.09038Q348.39062 170.80913 348.15625 170.37163Q347.92188 169.93413 347.79688 169.30913Q347.67188 168.6685 347.67188 167.84038L347.67188 166.52788Q347.67188 165.481 347.85938 164.77788Q348.0625 164.07475 348.40625 163.63725Q348.76562 163.19975 349.25 163.01225Q349.75 162.82475 350.35938 162.82475Q350.85938 162.82475 351.28125 162.94975Q351.70312 163.07475 352.03125 163.34038Q352.35938 163.59038 352.57812 164.02788Q352.8125 164.44975 352.9375 165.07475Q353.0625 165.69975 353.0625 166.52788ZM351.96875 168.01225L351.96875 166.356Q351.96875 165.77788 351.90625 165.34038Q351.84375 164.90288 351.70312 164.59038Q351.57812 164.27788 351.375 164.09038Q351.1875 163.90288 350.9375 163.80913Q350.6875 163.71538 350.35938 163.71538Q349.98438 163.71538 349.67188 163.856Q349.375 163.99663 349.17188 164.30913Q348.96875 164.62163 348.85938 165.13725Q348.76562 165.63725 348.76562 166.356L348.76562 168.01225Q348.76562 168.59038 348.82812 169.02788Q348.90625 169.46538 349.03125 169.7935Q349.17188 170.106 349.35938 170.30913Q349.5625 170.51225 349.8125 170.606Q350.0625 170.69975 350.375 170.69975Q350.78125 170.69975 351.07812 170.55913Q351.375 170.40288 351.57812 170.07475Q351.78125 169.74663 351.875 169.24663Q351.96875 168.731 351.96875 168.01225ZM355.8125 170.18413L355.8125 171.05913Q355.8125 171.606 355.53125 172.19975Q355.26562 172.7935 354.78125 173.18413L354.17188 172.76225Q354.35938 172.49663 354.48438 172.231Q354.60938 171.96538 354.67188 171.68413Q354.75 171.40288 354.75 171.07475L354.75 170.18413L355.8125 170.18413ZM362.46875 168.606L362.46875 169.49663L356.3125 169.49663L356.3125 168.856L360.125 162.94975L361.01562 162.94975L360.0625 164.65288L357.54688 168.606L362.46875 168.606ZM361.28125 162.94975L361.28125 171.481L360.20312 171.481L360.20312 162.94975L361.28125 162.94975Z" fill-rule="nonzero"/><path stroke="#000000" stroke-width="1.0" stroke-linecap="butt" d="M584.39874 350.0C584.39874 228.82942 486.1706 130.60126 365.0 130.60126C243.82942 130.60126 145.60126 228.82942 145.60126 350.0C145.60126 471.1706 243.82942 569.39874 365.0 569.39874C486.1706 569.39874 584.39874 471.1706 584.39874 350.0" fill-rule="nonzero"/><path fill="#000000" d="M353.0625 122.648125L353.0625 123.960625Q353.0625 125.0075 352.875 125.72625Q352.6875 126.445 352.32812 126.8825Q351.98438 127.32 351.48438 127.523125Q351.0 127.72625 350.375 127.72625Q349.89062 127.72625 349.46875 127.60125Q349.04688 127.47625 348.71875 127.210625Q348.39062 126.929375 348.15625 126.491875Q347.92188 126.054375 347.79688 125.429375Q347.67188 124.78875 347.67188 123.960625L347.67188 122.648125Q347.67188 121.60125 347.85938 120.898125Q348.0625 120.195 348.40625 119.7575Q348.76562 119.32 349.25 119.1325Q349.75 118.945 350.35938 118.945Q350.85938 118.945 351.28125 119.07Q351.70312 119.195 352.03125 119.460625Q352.35938 119.710625 352.57812 120.148125Q352.8125 120.57 352.9375 121.195Q353.0625 121.82 353.0625 122.648125ZM351.96875 124.1325L351.96875 122.47625Q351.96875 121.898125 351.90625 121.460625Q351.84375 121.023125 351.70312 120.710625Q351.57812 120.398125 351.375 120.210625Q351.1875 120.023125 350.9375 119.929375Q350.6875 119.835625 350.35938 119.835625Q349.98438 119.835625 349.67188 119.97625Q349.375 120.116875 349.17188 120.429375Q348.96875 120.741875 348.85938 121.2575Q348.76562 121.7575 348.76562 122.47625L348.76562 124.1325Q348.76562 124.710625 348.82812 125.148125Q348.90625 125.585625 349.03125 125.91375Q349.17188 126.22625 349.35938 126.429375Q349.5625 126.6325 349.8125 126.72625Q350.0625 126.82 350.375 126.82Q350.78125 126.82 351.07812 126.679375Q351.375 126.523125 351.57812 126.195Q351.78125 125.866875 351.875 125.366875Q351.96875 124.85125 351.96875 124.1325ZM355.8125 126.304375L355.8125 127.179375Q355.8125 127.72625 355.53125 128.32Q355.26562 128.91376 354.78125 129.30438L354.17188 128.8825Q354.35938 128.61688 354.48438 128.35126Q354.60938 128.08563 354.67188 127.804375Q354.75 127.523125 354.75 127.195L354.75 126.304375L355.8125 126.304375ZM358.07812 123.53875L357.21875 123.32L357.64062 119.07L362.01562 119.07L362.01562 120.07L358.5625 120.07L358.29688 122.398125Q358.53125 122.2575 358.89062 122.148125Q359.26562 122.023125 359.73438 122.023125Q360.3125 122.023125 360.78125 122.22625Q361.25 122.429375 361.57812 122.804375Q361.92188 123.179375 362.09375 123.710625Q362.26562 124.22625 362.26562 124.8825Q362.26562 125.491875 362.09375 126.0075Q361.9375 126.523125 361.59375 126.91375Q361.26562 127.28875 360.75 127.5075Q360.25 127.72625 359.5625 127.72625Q359.04688 127.72625 358.59375 127.585625Q358.14062 127.429375 357.76562 127.1325Q357.40625 126.835625 357.1875 126.398125Q356.96875 125.960625 356.90625 125.35125L357.9375 125.35125Q358.0 125.835625 358.20312 126.16375Q358.42188 126.491875 358.76562 126.66375Q359.10938 126.82 359.5625 126.82Q359.95312 126.82 360.25 126.695Q360.54688 126.554375 360.75 126.304375Q360.96875 126.054375 361.07812 125.695Q361.1875 125.335625 361.1875 124.898125Q361.1875 124.491875 361.0625 124.148125Q360.95312 123.804375 360.73438 123.554375Q360.51562 123.28875 360.20312 123.148125Q359.89062 122.991875 359.46875 122.991875Q358.9375 122.991875 358.65625 123.148125Q358.375 123.28875 358.07812 123.53875Z" fill-rule="nonzero"/><path stroke="#000000" stroke-width="1.0" stroke-linecap="butt" d="M365.0 350.0L365.0 131.0" fill-rule="nonzero"/><path fill="#000000" d="M335.64062 76.78125L336.76562 76.78125Q336.67188 77.59375 336.29688 78.234375Q335.92188 78.875 335.23438 79.25Q334.5625 79.625 333.53125 79.625Q332.78125 79.625 332.17188 79.34375Q331.5625 79.046875 331.10938 78.53125Q330.67188 78.015625 330.4375 77.296875Q330.20312 76.5625 330.20312 75.65625L330.20312 74.8125Q330.20312 73.921875 330.4375 73.1875Q330.67188 72.453125 331.125 71.9375Q331.57812 71.40625 332.20312 71.125Q332.84375 70.84375 333.625 70.84375Q334.59375 70.84375 335.26562 71.21875Q335.9375 71.578125 336.29688 72.21875Q336.67188 72.859375 336.76562 73.703125L335.64062 73.703125Q335.5625 73.109375 335.32812 72.6875Q335.10938 72.25 334.70312 72.015625Q334.29688 71.78125 333.625 71.78125Q333.0625 71.78125 332.625 72.0Q332.20312 72.203125 331.90625 72.609375Q331.625 73.0 331.46875 73.5625Q331.32812 74.125 331.32812 74.796875L331.32812 75.65625Q331.32812 76.28125 331.45312 76.84375Q331.59375 77.390625 331.85938 77.8125Q332.125 78.21875 332.54688 78.46875Q332.96875 78.703125 333.53125 78.703125Q334.25 78.703125 334.67188 78.46875Q335.10938 78.234375 335.32812 77.8125Q335.54688 77.390625 335.64062 76.78125ZM342.0625 78.421875L342.0625 75.15625Q342.0625 74.78125 341.90625 74.5Q341.76562 74.21875 341.46875 74.078125Q341.17188 73.921875 340.73438 73.921875Q340.3125 73.921875 340.0 74.0625Q339.70312 74.203125 339.53125 74.4375Q339.35938 74.65625 339.35938 74.921875L338.28125 74.921875Q338.28125 74.578125 338.45312 74.25Q338.625 73.90625 338.95312 73.640625Q339.28125 73.359375 339.75 73.203125Q340.21875 73.046875 340.79688 73.046875Q341.48438 73.046875 342.01562 73.28125Q342.54688 73.515625 342.84375 73.984375Q343.15625 74.453125 343.15625 75.15625L343.15625 78.109375Q343.15625 78.4375 343.20312 78.796875Q343.26562 79.140625 343.375 79.40625L343.375 79.5L342.23438 79.5Q342.15625 79.3125 342.10938 79.0Q342.0625 78.6875 342.0625 78.421875ZM342.25 75.65625L342.26562 76.421875L341.17188 76.421875Q340.70312 76.421875 340.34375 76.5Q339.98438 76.5625 339.73438 76.71875Q339.48438 76.859375 339.35938 77.078125Q339.23438 77.296875 339.23438 77.59375Q339.23438 77.890625 339.35938 78.140625Q339.5 78.375 339.76562 78.53125Q340.04688 78.671875 340.4375 78.671875Q340.9375 78.671875 341.3125 78.46875Q341.70312 78.25 341.92188 77.953125Q342.15625 77.640625 342.17188 77.34375L342.64062 77.875Q342.59375 78.109375 342.40625 78.421875Q342.23438 78.71875 341.92188 79.0Q341.625 79.265625 341.20312 79.453125Q340.79688 79.625 340.28125 79.625Q339.64062 79.625 339.15625 79.375Q338.67188 79.109375 338.40625 78.6875Q338.14062 78.265625 338.14062 77.734375Q338.14062 77.21875 338.32812 76.84375Q338.53125 76.453125 338.90625 76.1875Q339.28125 75.921875 339.8125 75.796875Q340.34375 75.65625 341.0 75.65625L342.25 75.65625ZM346.40625 74.15625L346.40625 79.5L345.32812 79.5L345.32812 73.15625L346.375 73.15625L346.40625 74.15625ZM348.39062 73.125L348.39062 74.125Q348.25 74.109375 348.125 74.09375Q348.01562 74.078125 347.85938 74.078125Q347.48438 74.078125 347.1875 74.203125Q346.90625 74.3125 346.70312 74.53125Q346.51562 74.734375 346.39062 75.03125Q346.28125 75.328125 346.25 75.671875L345.9375 75.84375Q345.9375 75.265625 346.04688 74.765625Q346.17188 74.265625 346.40625 73.875Q346.65625 73.484375 347.01562 73.265625Q347.39062 73.046875 347.90625 73.046875Q348.03125 73.046875 348.17188 73.078125Q348.32812 73.09375 348.39062 73.125ZM351.10938 78.84375L352.875 73.15625L354.03125 73.15625L351.48438 80.484375Q351.40625 80.71875 351.25 80.984375Q351.10938 81.265625 350.89062 81.5Q350.67188 81.75 350.35938 81.90625Q350.04688 82.0625 349.60938 82.0625Q349.48438 82.0625 349.28125 82.015625Q349.07812 81.984375 349.0 81.96875L349.0 81.09375Q349.04688 81.09375 349.14062 81.09375Q349.25 81.109375 349.28125 81.109375Q349.65625 81.109375 349.90625 81.015625Q350.17188 80.921875 350.34375 80.6875Q350.53125 80.46875 350.65625 80.078125L351.10938 78.84375ZM349.8125 73.15625L351.45312 78.078125L351.73438 79.21875L350.96875 79.625L348.625 73.15625L349.8125 73.15625ZM355.04688 76.40625L355.04688 76.265625Q355.04688 75.578125 355.23438 75.0Q355.4375 74.40625 355.8125 73.96875Q356.1875 73.53125 356.71875 73.296875Q357.25 73.046875 357.92188 73.046875Q358.57812 73.046875 359.10938 73.296875Q359.65625 73.53125 360.03125 73.96875Q360.40625 74.40625 360.60938 75.0Q360.8125 75.578125 360.8125 76.265625L360.8125 76.40625Q360.8125 77.078125 360.60938 77.671875Q360.40625 78.25 360.03125 78.6875Q359.65625 79.125 359.125 79.375Q358.59375 79.625 357.92188 79.625Q357.26562 79.625 356.71875 79.375Q356.1875 79.125 355.8125 78.6875Q355.4375 78.25 355.23438 77.671875Q355.04688 77.078125 355.04688 76.40625ZM356.125 76.265625L356.125 76.40625Q356.125 76.875 356.23438 77.296875Q356.34375 77.71875 356.5625 78.046875Q356.79688 78.359375 357.14062 78.546875Q357.48438 78.71875 357.92188 78.71875Q358.375 78.71875 358.70312 78.546875Q359.04688 78.359375 359.26562 78.046875Q359.5 77.71875 359.60938 77.296875Q359.71875 76.875 359.71875 76.40625L359.71875 76.265625Q359.71875 75.796875 359.60938 75.375Q359.5 74.953125 359.26562 74.640625Q359.04688 74.3125 358.70312 74.125Q358.375 73.9375 357.92188 73.9375Q357.46875 73.9375 357.125 74.125Q356.79688 74.3125 356.5625 74.640625Q356.34375 74.953125 356.23438 75.375Q356.125 75.796875 356.125 76.265625ZM363.40625 74.375L363.40625 81.9375L362.32812 81.9375L362.32812 73.15625L363.3125 73.15625L363.40625 74.375ZM367.6875 76.28125L367.6875 76.40625Q367.6875 77.09375 367.51562 77.6875Q367.35938 78.265625 367.04688 78.703125Q366.73438 79.140625 366.26562 79.390625Q365.8125 79.625 365.21875 79.625Q364.625 79.625 364.15625 79.421875Q363.6875 79.21875 363.35938 78.84375Q363.04688 78.453125 362.85938 77.921875Q362.67188 77.390625 362.59375 76.71875L362.59375 76.0625Q362.67188 75.359375 362.85938 74.8125Q363.04688 74.25 363.35938 73.859375Q363.6875 73.453125 364.14062 73.25Q364.60938 73.046875 365.20312 73.046875Q365.79688 73.046875 366.26562 73.28125Q366.73438 73.5 367.04688 73.9375Q367.35938 74.359375 367.51562 74.953125Q367.6875 75.546875 367.6875 76.28125ZM366.59375 76.40625L366.59375 76.28125Q366.59375 75.796875 366.48438 75.390625Q366.39062 74.96875 366.1875 74.65625Q365.98438 74.328125 365.65625 74.140625Q365.32812 73.953125 364.89062 73.953125Q364.48438 73.953125 364.17188 74.09375Q363.875 74.234375 363.65625 74.484375Q363.45312 74.71875 363.3125 75.015625Q363.1875 75.3125 363.125 75.640625L363.125 77.15625Q363.23438 77.5625 363.4375 77.921875Q363.65625 78.28125 364.0 78.5Q364.35938 78.71875 364.90625 78.71875Q365.34375 78.71875 365.65625 78.546875Q365.98438 78.359375 366.1875 78.046875Q366.39062 77.71875 366.48438 77.296875Q366.59375 76.875 366.59375 76.40625ZM370.40625 70.5L370.40625 79.5L369.32812 79.5L369.32812 70.5L370.40625 70.5ZM370.15625 76.09375L369.70312 76.078125Q369.70312 75.421875 369.89062 74.875Q370.07812 74.3125 370.42188 73.90625Q370.76562 73.5 371.23438 73.28125Q371.70312 73.046875 372.28125 73.046875Q372.75 73.046875 373.125 73.171875Q373.5 73.296875 373.76562 73.578125Q374.03125 73.84375 374.17188 74.28125Q374.3125 74.71875 374.3125 75.34375L374.3125 79.5L373.21875 79.5L373.21875 75.328125Q373.21875 74.828125 373.07812 74.53125Q372.9375 74.234375 372.65625 74.09375Q372.375 73.953125 371.95312 73.953125Q371.54688 73.953125 371.21875 74.125Q370.89062 74.296875 370.65625 74.59375Q370.42188 74.890625 370.28125 75.28125Q370.15625 75.65625 370.15625 76.09375ZM378.10938 78.84375L379.875 73.15625L381.03125 73.15625L378.48438 80.484375Q378.40625 80.71875 378.25 80.984375Q378.10938 81.265625 377.89062 81.5Q377.67188 81.75 377.35938 81.90625Q377.04688 82.0625 376.60938 82.0625Q376.48438 82.0625 376.28125 82.015625Q376.07812 81.984375 376.0 81.96875L376.0 81.09375Q376.04688 81.09375 376.14062 81.09375Q376.25 81.109375 376.28125 81.109375Q376.65625 81.109375 376.90625 81.015625Q377.17188 80.921875 377.34375 80.6875Q377.53125 80.46875 377.65625 80.078125L378.10938 78.84375ZM376.8125 73.15625L378.45312 78.078125L378.73438 79.21875L377.96875 79.625L375.625 73.15625L376.8125 73.15625ZM383.5 70.5L383.5 79.5L382.42188 79.5L382.42188 70.5L383.5 70.5ZM386.5 70.5L386.5 79.5L385.42188 79.5L385.42188 70.5L386.5 70.5ZM390.95312 79.625Q390.29688 79.625 389.75 79.40625Q389.21875 79.171875 388.82812 78.765625Q388.45312 78.34375 388.25 77.78125Q388.04688 77.21875 388.04688 76.546875L388.04688 76.3125Q388.04688 75.53125 388.26562 74.921875Q388.5 74.3125 388.89062 73.890625Q389.28125 73.46875 389.78125 73.265625Q390.28125 73.046875 390.8125 73.046875Q391.5 73.046875 391.98438 73.28125Q392.48438 73.515625 392.79688 73.9375Q393.125 74.34375 393.26562 74.921875Q393.42188 75.484375 393.42188 76.140625L393.42188 76.640625L388.6875 76.640625L388.6875 75.75L392.34375 75.75L392.34375 75.671875Q392.3125 75.25 392.15625 74.859375Q392.01562 74.453125 391.6875 74.203125Q391.375 73.9375 390.8125 73.9375Q390.45312 73.9375 390.14062 74.09375Q389.82812 74.25 389.59375 74.5625Q389.375 74.859375 389.25 75.296875Q389.14062 75.734375 389.14062 76.3125L389.14062 76.546875Q389.14062 77.0 389.26562 77.40625Q389.39062 77.796875 389.625 78.09375Q389.875 78.390625 390.21875 78.5625Q390.57812 78.734375 391.01562 78.734375Q391.59375 78.734375 391.98438 78.5Q392.39062 78.265625 392.6875 77.875L393.34375 78.390625Q393.14062 78.703125 392.8125 78.984375Q392.5 79.265625 392.03125 79.453125Q391.57812 79.625 390.95312 79.625ZM395.40625 74.515625L395.40625 79.5L394.32812 79.5L394.32812 73.15625L395.35938 73.15625L395.40625 74.515625ZM395.15625 76.09375L394.70312 76.078125Q394.70312 75.421875 394.89062 74.875Q395.07812 74.3125 395.42188 73.90625Q395.76562 73.5 396.23438 73.28125Q396.70312 73.046875 397.28125 73.046875Q397.75 73.046875 398.125 73.171875Q398.5 73.296875 398.76562 73.578125Q399.03125 73.84375 399.17188 74.28125Q399.3125 74.71875 399.3125 75.34375L399.3125 79.5L398.21875 79.5L398.21875 75.328125Q398.21875 74.828125 398.07812 74.53125Q397.9375 74.234375 397.65625 74.09375Q397.375 73.953125 396.95312 73.953125Q396.54688 73.953125 396.21875 74.125Q395.89062 74.296875 395.65625 74.59375Q395.42188 74.890625 395.28125 75.28125Q395.15625 75.65625 395.15625 76.09375Z" fill-rule="nonzero"/><path stroke="#000000" stroke-width="1.0" stroke-linecap="butt" d="M365.0 350.0L555.0 240.0" fill-rule="nonzero"/><path fill="#000000" d="M555.53125 215.34375Q555.53125 215.04688 555.4375 214.8125Q555.3594 214.57812 555.125 214.39062Q554.90625 214.20312 554.5 214.03125Q554.1094 213.85938 553.5156 213.6875Q552.875 213.5 552.3594 213.28125Q551.8594 213.04688 551.4844 212.75Q551.125 212.4375 550.9375 212.0625Q550.75 211.67188 550.75 211.17188Q550.75 210.67188 550.9531 210.25Q551.15625 209.82812 551.53125 209.51562Q551.9219 209.20312 552.4531 209.03125Q552.9844 208.84375 553.6406 208.84375Q554.6094 208.84375 555.28125 209.21875Q555.9531 209.57812 556.2969 210.17188Q556.65625 210.76562 556.65625 211.42188L555.53125 211.42188Q555.53125 210.95312 555.3125 210.57812Q555.1094 210.20312 554.6875 210.0Q554.28125 209.78125 553.6406 209.78125Q553.0469 209.78125 552.6406 209.96875Q552.25 210.14062 552.0625 210.45312Q551.875 210.76562 551.875 211.15625Q551.875 211.42188 551.9844 211.65625Q552.1094 211.875 552.34375 212.0625Q552.59375 212.25 552.96875 212.40625Q553.34375 212.5625 553.875 212.70312Q554.59375 212.90625 555.125 213.17188Q555.65625 213.42188 556.0 213.73438Q556.34375 214.04688 556.5 214.4375Q556.6719 214.82812 556.6719 215.32812Q556.6719 215.85938 556.4531 216.28125Q556.25 216.70312 555.8594 217.0Q555.46875 217.29688 554.9219 217.46875Q554.375 217.625 553.7031 217.625Q553.1094 217.625 552.53125 217.45312Q551.96875 217.28125 551.5 216.95312Q551.03125 216.625 550.75 216.15625Q550.46875 215.67188 550.46875 215.03125L551.59375 215.03125Q551.59375 215.46875 551.7656 215.78125Q551.9375 216.09375 552.2344 216.29688Q552.53125 216.5 552.90625 216.60938Q553.28125 216.70312 553.7031 216.70312Q554.2969 216.70312 554.7031 216.54688Q555.1094 216.375 555.3125 216.07812Q555.53125 215.76562 555.53125 215.34375ZM560.4531 217.625Q559.7969 217.625 559.25 217.40625Q558.71875 217.17188 558.3281 216.76562Q557.9531 216.34375 557.75 215.78125Q557.5469 215.21875 557.5469 214.54688L557.5469 214.3125Q557.5469 213.53125 557.7656 212.92188Q558.0 212.3125 558.3906 211.89062Q558.78125 211.46875 559.28125 211.26562Q559.78125 211.04688 560.3125 211.04688Q561.0 211.04688 561.4844 211.28125Q561.9844 211.51562 562.2969 211.9375Q562.625 212.34375 562.7656 212.92188Q562.9219 213.48438 562.9219 214.14062L562.9219 214.64062L558.1875 214.64062L558.1875 213.75L561.84375 213.75L561.84375 213.67188Q561.8125 213.25 561.65625 212.85938Q561.5156 212.45312 561.1875 212.20312Q560.875 211.9375 560.3125 211.9375Q559.9531 211.9375 559.6406 212.09375Q559.3281 212.25 559.09375 212.5625Q558.875 212.85938 558.75 213.29688Q558.6406 213.73438 558.6406 214.3125L558.6406 214.54688Q558.6406 215.0 558.7656 215.40625Q558.8906 215.79688 559.125 216.09375Q559.375 216.39062 559.71875 216.5625Q560.0781 216.73438 560.5156 216.73438Q561.09375 216.73438 561.4844 216.5Q561.8906 216.26562 562.1875 215.875L562.84375 216.39062Q562.6406 216.70312 562.3125 216.98438Q562.0 217.26562 561.53125 217.45312Q561.0781 217.625 560.4531 217.625ZM565.0 208.5L565.0 217.5L563.9219 217.5L563.9219 208.5L565.0 208.5ZM568.0 211.15625L568.0 217.5L566.9219 217.5L566.9219 211.15625L568.0 211.15625ZM566.8281 209.48438Q566.8281 209.21875 566.9844 209.03125Q567.15625 208.84375 567.46875 208.84375Q567.78125 208.84375 567.9375 209.03125Q568.1094 209.21875 568.1094 209.48438Q568.1094 209.73438 567.9375 209.92188Q567.78125 210.09375 567.46875 210.09375Q567.15625 210.09375 566.9844 209.92188Q566.8281 209.73438 566.8281 209.48438ZM570.90625 212.51562L570.90625 217.5L569.8281 217.5L569.8281 211.15625L570.8594 211.15625L570.90625 212.51562ZM570.65625 214.09375L570.2031 214.07812Q570.2031 213.42188 570.3906 212.875Q570.5781 212.3125 570.9219 211.90625Q571.2656 211.5 571.7344 211.28125Q572.2031 211.04688 572.78125 211.04688Q573.25 211.04688 573.625 211.17188Q574.0 211.29688 574.2656 211.57812Q574.53125 211.84375 574.6719 212.28125Q574.8125 212.71875 574.8125 213.34375L574.8125 217.5L573.71875 217.5L573.71875 213.32812Q573.71875 212.82812 573.5781 212.53125Q573.4375 212.23438 573.15625 212.09375Q572.875 211.95312 572.4531 211.95312Q572.0469 211.95312 571.71875 212.125Q571.3906 212.29688 571.15625 212.59375Q570.9219 212.89062 570.78125 213.28125Q570.65625 213.65625 570.65625 214.09375ZM580.5625 216.42188L580.5625 213.15625Q580.5625 212.78125 580.40625 212.5Q580.2656 212.21875 579.96875 212.07812Q579.6719 211.92188 579.2344 211.92188Q578.8125 211.92188 578.5 212.0625Q578.2031 212.20312 578.03125 212.4375Q577.8594 212.65625 577.8594 212.92188L576.78125 212.92188Q576.78125 212.57812 576.9531 212.25Q577.125 211.90625 577.4531 211.64062Q577.78125 211.35938 578.25 211.20312Q578.71875 211.04688 579.2969 211.04688Q579.9844 211.04688 580.5156 211.28125Q581.0469 211.51562 581.34375 211.98438Q581.65625 212.45312 581.65625 213.15625L581.65625 216.10938Q581.65625 216.4375 581.7031 216.79688Q581.7656 217.14062 581.875 217.40625L581.875 217.5L580.7344 217.5Q580.65625 217.3125 580.6094 217.0Q580.5625 216.6875 580.5625 216.42188ZM580.75 213.65625L580.7656 214.42188L579.6719 214.42188Q579.2031 214.42188 578.84375 214.5Q578.4844 214.5625 578.2344 214.71875Q577.9844 214.85938 577.8594 215.07812Q577.7344 215.29688 577.7344 215.59375Q577.7344 215.89062 577.8594 216.14062Q578.0 216.375 578.2656 216.53125Q578.5469 216.67188 578.9375 216.67188Q579.4375 216.67188 579.8125 216.46875Q580.2031 216.25 580.4219 215.95312Q580.65625 215.64062 580.6719 215.34375L581.1406 215.875Q581.09375 216.10938 580.90625 216.42188Q580.7344 216.71875 580.4219 217.0Q580.125 217.26562 579.7031 217.45312Q579.2969 217.625 578.78125 217.625Q578.1406 217.625 577.65625 217.375Q577.1719 217.10938 576.90625 216.6875Q576.6406 216.26562 576.6406 215.73438Q576.6406 215.21875 576.8281 214.84375Q577.03125 214.45312 577.40625 214.1875Q577.78125 213.92188 578.3125 213.79688Q578.84375 213.65625 579.5 213.65625L580.75 213.65625ZM586.0781 213.42188L586.0781 214.3125L583.21875 214.3125L583.21875 213.42188L586.0781 213.42188ZM588.2969 212.70312L589.0625 212.70312Q589.6406 212.70312 590.0 212.51562Q590.375 212.3125 590.5625 211.98438Q590.75 211.65625 590.75 211.23438Q590.75 210.75 590.5781 210.42188Q590.4219 210.07812 590.09375 209.90625Q589.7656 209.73438 589.2656 209.73438Q588.7969 209.73438 588.4531 209.92188Q588.1094 210.09375 587.90625 210.42188Q587.71875 210.75 587.71875 211.20312L586.625 211.20312Q586.625 210.54688 586.9531 210.01562Q587.28125 209.48438 587.875 209.17188Q588.46875 208.84375 589.2656 208.84375Q590.03125 208.84375 590.6094 209.125Q591.1875 209.39062 591.5156 209.9375Q591.84375 210.46875 591.84375 211.26562Q591.84375 211.59375 591.6875 211.95312Q591.53125 212.3125 591.21875 212.64062Q590.90625 212.95312 590.40625 213.15625Q589.9219 213.35938 589.21875 213.35938L588.2969 213.35938L588.2969 212.70312ZM588.2969 213.59375L588.2969 212.9375L589.21875 212.9375Q590.03125 212.9375 590.5625 213.14062Q591.09375 213.32812 591.40625 213.65625Q591.71875 213.96875 591.84375 214.35938Q591.96875 214.73438 591.96875 215.125Q591.96875 215.71875 591.7656 216.1875Q591.5625 216.64062 591.1875 216.96875Q590.8281 217.28125 590.3281 217.45312Q589.84375 217.625 589.2656 217.625Q588.7031 217.625 588.21875 217.46875Q587.7344 217.29688 587.3594 217.0Q586.9844 216.70312 586.7656 216.26562Q586.5625 215.8125 586.5625 215.25L587.6406 215.25Q587.6406 215.6875 587.8281 216.03125Q588.03125 216.35938 588.3906 216.54688Q588.7656 216.71875 589.2656 216.71875Q589.7656 216.71875 590.125 216.54688Q590.4844 216.375 590.6719 216.03125Q590.875 215.67188 590.875 215.14062Q590.875 214.60938 590.65625 214.26562Q590.4375 213.92188 590.0156 213.76562Q589.6094 213.59375 589.0625 213.59375L588.2969 213.59375ZM594.8125 216.20312L594.8125 217.07812Q594.8125 217.625 594.53125 218.21875Q594.2656 218.8125 593.78125 219.20312L593.1719 218.78125Q593.3594 218.51562 593.4844 218.25Q593.6094 217.98438 593.6719 217.70312Q593.75 217.42188 593.75 217.09375L593.75 216.20312L594.8125 216.20312ZM601.21875 208.96875L601.21875 209.57812L597.6875 217.5L596.5469 217.5L600.0781 209.85938L595.4531 209.85938L595.4531 208.96875L601.21875 208.96875ZM602.78125 214.09375L602.78125 214.03125Q602.78125 212.75 603.0625 211.71875Q603.3594 210.6875 603.7969 209.90625Q604.25 209.125 604.7344 208.60938Q605.2344 208.09375 605.65625 207.875L605.875 208.59375Q605.53125 208.84375 605.1719 209.3125Q604.8281 209.78125 604.53125 210.45312Q604.2344 211.125 604.0469 212.01562Q603.875 212.90625 603.875 214.01562L603.875 214.09375Q603.875 215.21875 604.0469 216.10938Q604.2344 217.0 604.53125 217.67188Q604.8281 218.35938 605.1719 218.82812Q605.53125 219.3125 605.875 219.59375L605.65625 220.25Q605.2344 220.03125 604.7344 219.51562Q604.25 219.0 603.7969 218.21875Q603.3594 217.45312 603.0625 216.42188Q602.78125 215.375 602.78125 214.09375ZM610.2656 208.92188L610.2656 217.5L609.1875 217.5L609.1875 210.28125L607.0 211.07812L607.0 210.09375L610.1094 208.92188L610.2656 208.92188ZM617.2656 208.92188L617.2656 217.5L616.1875 217.5L616.1875 210.28125L614.0 211.07812L614.0 210.09375L617.1094 208.92188L617.2656 208.92188ZM623.3281 214.03125L623.3281 214.09375Q623.3281 215.375 623.03125 216.42188Q622.75 217.45312 622.2969 218.21875Q621.8594 219.0 621.3594 219.51562Q620.875 220.03125 620.4531 220.25L620.2344 219.59375Q620.5781 219.32812 620.9219 218.85938Q621.28125 218.39062 621.5781 217.70312Q621.875 217.01562 622.0469 216.125Q622.2344 215.21875 622.2344 214.09375L622.2344 214.01562Q622.2344 212.90625 622.0469 212.01562Q621.8594 211.10938 621.5469 210.42188Q621.2344 209.73438 620.8906 209.26562Q620.5469 208.79688 620.2344 208.53125L620.4531 207.875Q620.875 208.09375 621.3594 208.60938Q621.8594 209.125 622.2969 209.90625Q622.75 210.6875 623.03125 211.71875Q623.3281 212.75 623.3281 214.03125ZM627.0781 213.42188L627.0781 214.3125L624.21875 214.3125L624.21875 213.42188L627.0781 213.42188ZM631.8281 216.26562L631.8281 208.5L632.90625 208.5L632.90625 217.5L631.9219 217.5L631.8281 216.26562ZM627.5625 214.40625L627.5625 214.28125Q627.5625 213.54688 627.7344 212.95312Q627.9219 212.35938 628.25 211.9375Q628.5781 211.5 629.03125 211.28125Q629.5 211.04688 630.0625 211.04688Q630.65625 211.04688 631.1094 211.25Q631.5625 211.45312 631.875 211.85938Q632.1875 212.25 632.3594 212.8125Q632.5469 213.35938 632.625 214.0625L632.625 214.60938Q632.5625 215.29688 632.375 215.85938Q632.1875 216.42188 631.875 216.8125Q631.5625 217.20312 631.1094 217.42188Q630.65625 217.625 630.0469 217.625Q629.5 217.625 629.03125 217.39062Q628.5781 217.14062 628.25 216.70312Q627.9219 216.26562 627.7344 215.6875Q627.5625 215.09375 627.5625 214.40625ZM628.6406 214.28125L628.6406 214.40625Q628.6406 214.875 628.7344 215.29688Q628.84375 215.70312 629.0469 216.03125Q629.25 216.34375 629.5625 216.53125Q629.8906 216.70312 630.3281 216.70312Q630.8594 216.70312 631.2031 216.46875Q631.5625 216.23438 631.7656 215.85938Q631.9844 215.48438 632.09375 215.04688L632.09375 213.64062Q632.03125 213.3125 631.8906 213.01562Q631.7656 212.71875 631.5469 212.48438Q631.34375 212.23438 631.0469 212.09375Q630.75 211.95312 630.3281 211.95312Q629.8906 211.95312 629.5625 212.14062Q629.25 212.32812 629.0469 212.65625Q628.84375 212.96875 628.7344 213.39062Q628.6406 213.79688 628.6406 214.28125ZM636.0 211.15625L636.0 217.5L634.9219 217.5L634.9219 211.15625L636.0 211.15625ZM634.8281 209.48438Q634.8281 209.21875 634.9844 209.03125Q635.15625 208.84375 635.46875 208.84375Q635.78125 208.84375 635.9375 209.03125Q636.1094 209.21875 636.1094 209.48438Q636.1094 209.73438 635.9375 209.92188Q635.78125 210.09375 635.46875 210.09375Q635.15625 210.09375 634.9844 209.92188Q634.8281 209.73438 634.8281 209.48438ZM640.4531 217.625Q639.7969 217.625 639.25 217.40625Q638.71875 217.17188 638.3281 216.76562Q637.9531 216.34375 637.75 215.78125Q637.5469 215.21875 637.5469 214.54688L637.5469 214.3125Q637.5469 213.53125 637.7656 212.92188Q638.0 212.3125 638.3906 211.89062Q638.78125 211.46875 639.28125 211.26562Q639.78125 211.04688 640.3125 211.04688Q641.0 211.04688 641.4844 211.28125Q641.9844 211.51562 642.2969 211.9375Q642.625 212.34375 642.7656 212.92188Q642.9219 213.48438 642.9219 214.14062L642.9219 214.64062L638.1875 214.64062L638.1875 213.75L641.84375 213.75L641.84375 213.67188Q641.8125 213.25 641.65625 212.85938Q641.5156 212.45312 641.1875 212.20312Q640.875 211.9375 640.3125 211.9375Q639.9531 211.9375 639.6406 212.09375Q639.3281 212.25 639.09375 212.5625Q638.875 212.85938 638.75 213.29688Q638.6406 213.73438 638.6406 214.3125L638.6406 214.54688Q638.6406 215.0 638.7656 215.40625Q638.8906 215.79688 639.125 216.09375Q639.375 216.39062 639.71875 216.5625Q640.0781 216.73438 640.5156 216.73438Q641.09375 216.73438 641.4844 216.5Q641.8906 216.26562 642.1875 215.875L642.84375 216.39062Q642.6406 216.70312 642.3125 216.98438Q642.0 217.26562 641.53125 217.45312Q641.0781 217.625 640.4531 217.625ZM644.90625 212.51562L644.90625 217.5L643.8281 217.5L643.8281 211.15625L644.8594 211.15625L644.90625 212.51562ZM644.65625 214.09375L644.2031 214.07812Q644.2031 213.42188 644.3906 212.875Q644.5781 212.3125 644.9219 211.90625Q645.2656 211.5 645.7344 211.28125Q646.2031 211.04688 646.78125 211.04688Q647.25 211.04688 647.625 211.17188Q648.0 211.29688 648.2656 211.57812Q648.53125 211.84375 648.6719 212.28125Q648.8125 212.71875 648.8125 213.34375L648.8125 217.5L647.71875 217.5L647.71875 213.32812Q647.71875 212.82812 647.5781 212.53125Q647.4375 212.23438 647.15625 212.09375Q646.875 211.95312 646.4531 211.95312Q646.0469 211.95312 645.71875 212.125Q645.3906 212.29688 645.15625 212.59375Q644.9219 212.89062 644.78125 213.28125Q644.65625 213.65625 644.65625 214.09375ZM653.4531 217.625Q652.7969 217.625 652.25 217.40625Q651.71875 217.17188 651.3281 216.76562Q650.9531 216.34375 650.75 215.78125Q650.5469 215.21875 650.5469 214.54688L650.5469 214.3125Q650.5469 213.53125 650.7656 212.92188Q651.0 212.3125 651.3906 211.89062Q651.78125 211.46875 652.28125 211.26562Q652.78125 211.04688 653.3125 211.04688Q654.0 211.04688 654.4844 211.28125Q654.9844 211.51562 655.2969 211.9375Q655.625 212.34375 655.7656 212.92188Q655.9219 213.48438 655.9219 214.14062L655.9219 214.64062L651.1875 214.64062L651.1875 213.75L654.84375 213.75L654.84375 213.67188Q654.8125 213.25 654.65625 212.85938Q654.5156 212.45312 654.1875 212.20312Q653.875 211.9375 653.3125 211.9375Q652.9531 211.9375 652.6406 212.09375Q652.3281 212.25 652.09375 212.5625Q651.875 212.85938 651.75 213.29688Q651.6406 213.73438 651.6406 214.3125L651.6406 214.54688Q651.6406 215.0 651.7656 215.40625Q651.8906 215.79688 652.125 216.09375Q652.375 216.39062 652.71875 216.5625Q653.0781 216.73438 653.5156 216.73438Q654.09375 216.73438 654.4844 216.5Q654.8906 216.26562 655.1875 215.875L655.84375 216.39062Q655.6406 216.70312 655.3125 216.98438Q655.0 217.26562 654.53125 217.45312Q654.0781 217.625 653.4531 217.625Z" fill-rule="nonzero"/><path stroke="#000000" stroke-width="1.0" stroke-linecap="butt" d="M365.0 350.0L555.0 460.0" fill-rule="nonzero"/><path fill="#000000" d="M544.53125 489.34375Q544.53125 489.04688 544.4375 488.8125Q544.3594 488.57812 544.125 488.39062Q543.90625 488.20312 543.5 488.03125Q543.1094 487.85938 542.5156 487.6875Q541.875 487.5 541.3594 487.28125Q540.8594 487.04688 540.4844 486.75Q540.125 486.4375 539.9375 486.0625Q539.75 485.67188 539.75 485.17188Q539.75 484.67188 539.9531 484.25Q540.15625 483.82812 540.53125 483.51562Q540.9219 483.20312 541.4531 483.03125Q541.9844 482.84375 542.6406 482.84375Q543.6094 482.84375 544.28125 483.21875Q544.9531 483.57812 545.2969 484.17188Q545.65625 484.76562 545.65625 485.42188L544.53125 485.42188Q544.53125 484.95312 544.3125 484.57812Q544.1094 484.20312 543.6875 484.0Q543.28125 483.78125 542.6406 483.78125Q542.0469 483.78125 541.6406 483.96875Q541.25 484.14062 541.0625 484.45312Q540.875 484.76562 540.875 485.15625Q540.875 485.42188 540.9844 485.65625Q541.1094 485.875 541.34375 486.0625Q541.59375 486.25 541.96875 486.40625Q542.34375 486.5625 542.875 486.70312Q543.59375 486.90625 544.125 487.17188Q544.65625 487.42188 545.0 487.73438Q545.34375 488.04688 545.5 488.4375Q545.6719 488.82812 545.6719 489.32812Q545.6719 489.85938 545.4531 490.28125Q545.25 490.70312 544.8594 491.0Q544.46875 491.29688 543.9219 491.46875Q543.375 491.625 542.7031 491.625Q542.1094 491.625 541.53125 491.45312Q540.96875 491.28125 540.5 490.95312Q540.03125 490.625 539.75 490.15625Q539.46875 489.67188 539.46875 489.03125L540.59375 489.03125Q540.59375 489.46875 540.7656 489.78125Q540.9375 490.09375 541.2344 490.29688Q541.53125 490.5 541.90625 490.60938Q542.28125 490.70312 542.7031 490.70312Q543.2969 490.70312 543.7031 490.54688Q544.1094 490.375 544.3125 490.07812Q544.53125 489.76562 544.53125 489.34375ZM549.4531 491.625Q548.7969 491.625 548.25 491.40625Q547.71875 491.17188 547.3281 490.76562Q546.9531 490.34375 546.75 489.78125Q546.5469 489.21875 546.5469 488.54688L546.5469 488.3125Q546.5469 487.53125 546.7656 486.92188Q547.0 486.3125 547.3906 485.89062Q547.78125 485.46875 548.28125 485.26562Q548.78125 485.04688 549.3125 485.04688Q550.0 485.04688 550.4844 485.28125Q550.9844 485.51562 551.2969 485.9375Q551.625 486.34375 551.7656 486.92188Q551.9219 487.48438 551.9219 488.14062L551.9219 488.64062L547.1875 488.64062L547.1875 487.75L550.84375 487.75L550.84375 487.67188Q550.8125 487.25 550.65625 486.85938Q550.5156 486.45312 550.1875 486.20312Q549.875 485.9375 549.3125 485.9375Q548.9531 485.9375 548.6406 486.09375Q548.3281 486.25 548.09375 486.5625Q547.875 486.85938 547.75 487.29688Q547.6406 487.73438 547.6406 488.3125L547.6406 488.54688Q547.6406 489.0 547.7656 489.40625Q547.8906 489.79688 548.125 490.09375Q548.375 490.39062 548.71875 490.5625Q549.0781 490.73438 549.5156 490.73438Q550.09375 490.73438 550.4844 490.5Q550.8906 490.26562 551.1875 489.875L551.84375 490.39062Q551.6406 490.70312 551.3125 490.98438Q551.0 491.26562 550.53125 491.45312Q550.0781 491.625 549.4531 491.625ZM554.0 482.5L554.0 491.5L552.9219 491.5L552.9219 482.5L554.0 482.5ZM557.0 485.15625L557.0 491.5L555.9219 491.5L555.9219 485.15625L557.0 485.15625ZM555.8281 483.48438Q555.8281 483.21875 555.9844 483.03125Q556.15625 482.84375 556.46875 482.84375Q556.78125 482.84375 556.9375 483.03125Q557.1094 483.21875 557.1094 483.48438Q557.1094 483.73438 556.9375 483.92188Q556.78125 484.09375 556.46875 484.09375Q556.15625 484.09375 555.9844 483.92188Q555.8281 483.73438 555.8281 483.48438ZM559.90625 486.51562L559.90625 491.5L558.8281 491.5L558.8281 485.15625L559.8594 485.15625L559.90625 486.51562ZM559.65625 488.09375L559.2031 488.07812Q559.2031 487.42188 559.3906 486.875Q559.5781 486.3125 559.9219 485.90625Q560.2656 485.5 560.7344 485.28125Q561.2031 485.04688 561.78125 485.04688Q562.25 485.04688 562.625 485.17188Q563.0 485.29688 563.2656 485.57812Q563.53125 485.84375 563.6719 486.28125Q563.8125 486.71875 563.8125 487.34375L563.8125 491.5L562.71875 491.5L562.71875 487.32812Q562.71875 486.82812 562.5781 486.53125Q562.4375 486.23438 562.15625 486.09375Q561.875 485.95312 561.4531 485.95312Q561.0469 485.95312 560.71875 486.125Q560.3906 486.29688 560.15625 486.59375Q559.9219 486.89062 559.78125 487.28125Q559.65625 487.65625 559.65625 488.09375ZM569.5625 490.42188L569.5625 487.15625Q569.5625 486.78125 569.40625 486.5Q569.2656 486.21875 568.96875 486.07812Q568.6719 485.92188 568.2344 485.92188Q567.8125 485.92188 567.5 486.0625Q567.2031 486.20312 567.03125 486.4375Q566.8594 486.65625 566.8594 486.92188L565.78125 486.92188Q565.78125 486.57812 565.9531 486.25Q566.125 485.90625 566.4531 485.64062Q566.78125 485.35938 567.25 485.20312Q567.71875 485.04688 568.2969 485.04688Q568.9844 485.04688 569.5156 485.28125Q570.0469 485.51562 570.34375 485.98438Q570.65625 486.45312 570.65625 487.15625L570.65625 490.10938Q570.65625 490.4375 570.7031 490.79688Q570.7656 491.14062 570.875 491.40625L570.875 491.5L569.7344 491.5Q569.65625 491.3125 569.6094 491.0Q569.5625 490.6875 569.5625 490.42188ZM569.75 487.65625L569.7656 488.42188L568.6719 488.42188Q568.2031 488.42188 567.84375 488.5Q567.4844 488.5625 567.2344 488.71875Q566.9844 488.85938 566.8594 489.07812Q566.7344 489.29688 566.7344 489.59375Q566.7344 489.89062 566.8594 490.14062Q567.0 490.375 567.2656 490.53125Q567.5469 490.67188 567.9375 490.67188Q568.4375 490.67188 568.8125 490.46875Q569.2031 490.25 569.4219 489.95312Q569.65625 489.64062 569.6719 489.34375L570.1406 489.875Q570.09375 490.10938 569.90625 490.42188Q569.7344 490.71875 569.4219 491.0Q569.125 491.26562 568.7031 491.45312Q568.2969 491.625 567.78125 491.625Q567.1406 491.625 566.65625 491.375Q566.1719 491.10938 565.90625 490.6875Q565.6406 490.26562 565.6406 489.73438Q565.6406 489.21875 565.8281 488.84375Q566.03125 488.45312 566.40625 488.1875Q566.78125 487.92188 567.3125 487.79688Q567.84375 487.65625 568.5 487.65625L569.75 487.65625ZM575.0781 487.42188L575.0781 488.3125L572.21875 488.3125L572.21875 487.42188L575.0781 487.42188ZM581.46875 488.625L581.46875 489.51562L575.3125 489.51562L575.3125 488.875L579.125 482.96875L580.0156 482.96875L579.0625 484.67188L576.5469 488.625L581.46875 488.625ZM580.28125 482.96875L580.28125 491.5L579.2031 491.5L579.2031 482.96875L580.28125 482.96875ZM582.78125 488.09375L582.78125 488.03125Q582.78125 486.75 583.0625 485.71875Q583.3594 484.6875 583.7969 483.90625Q584.25 483.125 584.7344 482.60938Q585.2344 482.09375 585.65625 481.875L585.875 482.59375Q585.53125 482.84375 585.1719 483.3125Q584.8281 483.78125 584.53125 484.45312Q584.2344 485.125 584.0469 486.01562Q583.875 486.90625 583.875 488.01562L583.875 488.09375Q583.875 489.21875 584.0469 490.10938Q584.2344 491.0 584.53125 491.67188Q584.8281 492.35938 585.1719 492.82812Q585.53125 493.3125 585.875 493.59375L585.65625 494.25Q585.2344 494.03125 584.7344 493.51562Q584.25 493.0 583.7969 492.21875Q583.3594 491.45312 583.0625 490.42188Q582.78125 489.375 582.78125 488.09375ZM590.2656 482.92188L590.2656 491.5L589.1875 491.5L589.1875 484.28125L587.0 485.07812L587.0 484.09375L590.1094 482.92188L590.2656 482.92188ZM595.0781 487.4375L594.21875 487.21875L594.6406 482.96875L599.0156 482.96875L599.0156 483.96875L595.5625 483.96875L595.2969 486.29688Q595.53125 486.15625 595.8906 486.04688Q596.2656 485.92188 596.7344 485.92188Q597.3125 485.92188 597.78125 486.125Q598.25 486.32812 598.5781 486.70312Q598.9219 487.07812 599.09375 487.60938Q599.2656 488.125 599.2656 488.78125Q599.2656 489.39062 599.09375 489.90625Q598.9375 490.42188 598.59375 490.8125Q598.2656 491.1875 597.75 491.40625Q597.25 491.625 596.5625 491.625Q596.0469 491.625 595.59375 491.48438Q595.1406 491.32812 594.7656 491.03125Q594.40625 490.73438 594.1875 490.29688Q593.96875 489.85938 593.90625 489.25L594.9375 489.25Q595.0 489.73438 595.2031 490.0625Q595.4219 490.39062 595.7656 490.5625Q596.1094 490.71875 596.5625 490.71875Q596.9531 490.71875 597.25 490.59375Q597.5469 490.45312 597.75 490.20312Q597.96875 489.95312 598.0781 489.59375Q598.1875 489.23438 598.1875 488.79688Q598.1875 488.39062 598.0625 488.04688Q597.9531 487.70312 597.7344 487.45312Q597.5156 487.1875 597.2031 487.04688Q596.8906 486.89062 596.46875 486.89062Q595.9375 486.89062 595.65625 487.04688Q595.375 487.1875 595.0781 487.4375ZM603.3281 488.03125L603.3281 488.09375Q603.3281 489.375 603.03125 490.42188Q602.75 491.45312 602.2969 492.21875Q601.8594 493.0 601.3594 493.51562Q600.875 494.03125 600.4531 494.25L600.2344 493.59375Q600.5781 493.32812 600.9219 492.85938Q601.28125 492.39062 601.5781 491.70312Q601.875 491.01562 602.0469 490.125Q602.2344 489.21875 602.2344 488.09375L602.2344 488.01562Q602.2344 486.90625 602.0469 486.01562Q601.8594 485.10938 601.5469 484.42188Q601.2344 483.73438 600.8906 483.26562Q600.5469 482.79688 600.2344 482.53125L600.4531 481.875Q600.875 482.09375 601.3594 482.60938Q601.8594 483.125 602.2969 483.90625Q602.75 484.6875 603.03125 485.71875Q603.3281 486.75 603.3281 488.03125ZM605.8125 490.20312L605.8125 491.07812Q605.8125 491.625 605.53125 492.21875Q605.2656 492.8125 604.78125 493.20312L604.1719 492.78125Q604.3594 492.51562 604.4844 492.25Q604.6094 491.98438 604.6719 491.70312Q604.75 491.42188 604.75 491.09375L604.75 490.20312L605.8125 490.20312ZM612.21875 482.96875L612.21875 483.57812L608.6875 491.5L607.5469 491.5L611.0781 483.85938L606.4531 483.85938L606.4531 482.96875L612.21875 482.96875ZM613.78125 488.09375L613.78125 488.03125Q613.78125 486.75 614.0625 485.71875Q614.3594 484.6875 614.7969 483.90625Q615.25 483.125 615.7344 482.60938Q616.2344 482.09375 616.65625 481.875L616.875 482.59375Q616.53125 482.84375 616.1719 483.3125Q615.8281 483.78125 615.53125 484.45312Q615.2344 485.125 615.0469 486.01562Q614.875 486.90625 614.875 488.01562L614.875 488.09375Q614.875 489.21875 615.0469 490.10938Q615.2344 491.0 615.53125 491.67188Q615.8281 492.35938 616.1719 492.82812Q616.53125 493.3125 616.875 493.59375L616.65625 494.25Q616.2344 494.03125 615.7344 493.51562Q615.25 493.0 614.7969 492.21875Q614.3594 491.45312 614.0625 490.42188Q613.78125 489.375 613.78125 488.09375ZM621.2656 482.92188L621.2656 491.5L620.1875 491.5L620.1875 484.28125L618.0 485.07812L618.0 484.09375L621.1094 482.92188L621.2656 482.92188ZM628.2656 482.92188L628.2656 491.5L627.1875 491.5L627.1875 484.28125L625.0 485.07812L625.0 484.09375L628.1094 482.92188L628.2656 482.92188ZM634.3281 488.03125L634.3281 488.09375Q634.3281 489.375 634.03125 490.42188Q633.75 491.45312 633.2969 492.21875Q632.8594 493.0 632.3594 493.51562Q631.875 494.03125 631.4531 494.25L631.2344 493.59375Q631.5781 493.32812 631.9219 492.85938Q632.28125 492.39062 632.5781 491.70312Q632.875 491.01562 633.0469 490.125Q633.2344 489.21875 633.2344 488.09375L633.2344 488.01562Q633.2344 486.90625 633.0469 486.01562Q632.8594 485.10938 632.5469 484.42188Q632.2344 483.73438 631.8906 483.26562Q631.5469 482.79688 631.2344 482.53125L631.4531 481.875Q631.875 482.09375 632.3594 482.60938Q632.8594 483.125 633.2969 483.90625Q633.75 484.6875 634.03125 485.71875Q634.3281 486.75 634.3281 488.03125ZM638.0781 487.42188L638.0781 488.3125L635.21875 488.3125L635.21875 487.42188L638.0781 487.42188ZM642.8281 490.26562L642.8281 482.5L643.90625 482.5L643.90625 491.5L642.9219 491.5L642.8281 490.26562ZM638.5625 488.40625L638.5625 488.28125Q638.5625 487.54688 638.7344 486.95312Q638.9219 486.35938 639.25 485.9375Q639.5781 485.5 640.03125 485.28125Q640.5 485.04688 641.0625 485.04688Q641.65625 485.04688 642.1094 485.25Q642.5625 485.45312 642.875 485.85938Q643.1875 486.25 643.3594 486.8125Q643.5469 487.35938 643.625 488.0625L643.625 488.60938Q643.5625 489.29688 643.375 489.85938Q643.1875 490.42188 642.875 490.8125Q642.5625 491.20312 642.1094 491.42188Q641.65625 491.625 641.0469 491.625Q640.5 491.625 640.03125 491.39062Q639.5781 491.14062 639.25 490.70312Q638.9219 490.26562 638.7344 489.6875Q638.5625 489.09375 638.5625 488.40625ZM639.6406 488.28125L639.6406 488.40625Q639.6406 488.875 639.7344 489.29688Q639.84375 489.70312 640.0469 490.03125Q640.25 490.34375 640.5625 490.53125Q640.8906 490.70312 641.3281 490.70312Q641.8594 490.70312 642.2031 490.46875Q642.5625 490.23438 642.7656 489.85938Q642.9844 489.48438 643.09375 489.04688L643.09375 487.64062Q643.03125 487.3125 642.8906 487.01562Q642.7656 486.71875 642.5469 486.48438Q642.34375 486.23438 642.0469 486.09375Q641.75 485.95312 641.3281 485.95312Q640.8906 485.95312 640.5625 486.14062Q640.25 486.32812 640.0469 486.65625Q639.84375 486.96875 639.7344 487.39062Q639.6406 487.79688 639.6406 488.28125ZM647.0 485.15625L647.0 491.5L645.9219 491.5L645.9219 485.15625L647.0 485.15625ZM645.8281 483.48438Q645.8281 483.21875 645.9844 483.03125Q646.15625 482.84375 646.46875 482.84375Q646.78125 482.84375 646.9375 483.03125Q647.1094 483.21875 647.1094 483.48438Q647.1094 483.73438 646.9375 483.92188Q646.78125 484.09375 646.46875 484.09375Q646.15625 484.09375 645.9844 483.92188Q645.8281 483.73438 645.8281 483.48438ZM651.4531 491.625Q650.7969 491.625 650.25 491.40625Q649.71875 491.17188 649.3281 490.76562Q648.9531 490.34375 648.75 489.78125Q648.5469 489.21875 648.5469 488.54688L648.5469 488.3125Q648.5469 487.53125 648.7656 486.92188Q649.0 486.3125 649.3906 485.89062Q649.78125 485.46875 650.28125 485.26562Q650.78125 485.04688 651.3125 485.04688Q652.0 485.04688 652.4844 485.28125Q652.9844 485.51562 653.2969 485.9375Q653.625 486.34375 653.7656 486.92188Q653.9219 487.48438 653.9219 488.14062L653.9219 488.64062L649.1875 488.64062L649.1875 487.75L652.84375 487.75L652.84375 487.67188Q652.8125 487.25 652.65625 486.85938Q652.5156 486.45312 652.1875 486.20312Q651.875 485.9375 651.3125 485.9375Q650.9531 485.9375 650.6406 486.09375Q650.3281 486.25 650.09375 486.5625Q649.875 486.85938 649.75 487.29688Q649.6406 487.73438 649.6406 488.3125L649.6406 488.54688Q649.6406 489.0 649.7656 489.40625Q649.8906 489.79688 650.125 490.09375Q650.375 490.39062 650.71875 490.5625Q651.0781 490.73438 651.5156 490.73438Q652.09375 490.73438 652.4844 490.5Q652.8906 490.26562 653.1875 489.875L653.84375 490.39062Q653.6406 490.70312 653.3125 490.98438Q653.0 491.26562 652.53125 491.45312Q652.0781 491.625 651.4531 491.625ZM655.90625 486.51562L655.90625 491.5L654.8281 491.5L654.8281 485.15625L655.8594 485.15625L655.90625 486.51562ZM655.65625 488.09375L655.2031 488.07812Q655.2031 487.42188 655.3906 486.875Q655.5781 486.3125 655.9219 485.90625Q656.2656 485.5 656.7344 485.28125Q657.2031 485.04688 657.78125 485.04688Q658.25 485.04688 658.625 485.17188Q659.0 485.29688 659.2656 485.57812Q659.53125 485.84375 659.6719 486.28125Q659.8125 486.71875 659.8125 487.34375L659.8125 491.5L658.71875 491.5L658.71875 487.32812Q658.71875 486.82812 658.5781 486.53125Q658.4375 486.23438 658.15625 486.09375Q657.875 485.95312 657.4531 485.95312Q657.0469 485.95312 656.71875 486.125Q656.3906 486.29688 656.15625 486.59375Q655.9219 486.89062 655.78125 487.28125Q655.65625 487.65625 655.65625 488.09375ZM664.4531 491.625Q663.7969 491.625 663.25 491.40625Q662.71875 491.17188 662.3281 490.76562Q661.9531 490.34375 661.75 489.78125Q661.5469 489.21875 661.5469 488.54688L661.5469 488.3125Q661.5469 487.53125 661.7656 486.92188Q662.0 486.3125 662.3906 485.89062Q662.78125 485.46875 663.28125 485.26562Q663.78125 485.04688 664.3125 485.04688Q665.0 485.04688 665.4844 485.28125Q665.9844 485.51562 666.2969 485.9375Q666.625 486.34375 666.7656 486.92188Q666.9219 487.48438 666.9219 488.14062L666.9219 488.64062L662.1875 488.64062L662.1875 487.75L665.84375 487.75L665.84375 487.67188Q665.8125 487.25 665.65625 486.85938Q665.5156 486.45312 665.1875 486.20312Q664.875 485.9375 664.3125 485.9375Q663.9531 485.9375 663.6406 486.09375Q663.3281 486.25 663.09375 486.5625Q662.875 486.85938 662.75 487.29688Q662.6406 487.73438 662.6406 488.3125L662.6406 488.54688Q662.6406 489.0 662.7656 489.40625Q662.8906 489.79688 663.125 490.09375Q663.375 490.39062 663.71875 490.5625Q664.0781 490.73438 664.5156 490.73438Q665.09375 490.73438 665.4844 490.5Q665.8906 490.26562 666.1875 489.875L666.84375 490.39062Q666.6406 490.70312 666.3125 490.98438Q666.0 491.26562 665.53125 491.45312Q665.0781 491.625 664.4531 491.625Z" fill-rule="nonzero"/><path stroke="#000000" stroke-width="1.0" stroke-linecap="butt" d="M365.0 350.0L365.0 569.0" fill-rule="nonzero"/><path fill="#000000" d="M346.84375 620.96875L347.9375 620.96875L350.73438 627.9219L353.53125 620.96875L354.625 620.96875L351.15625 629.5L350.3125 629.5L346.84375 620.96875ZM346.48438 620.96875L347.45312 620.96875L347.60938 626.1719L347.60938 629.5L346.48438 629.5L346.48438 620.96875ZM354.01562 620.96875L354.98438 620.96875L354.98438 629.5L353.85938 629.5L353.85938 626.1719L354.01562 620.96875ZM358.10938 628.84375L359.875 623.15625L361.03125 623.15625L358.48438 630.4844Q358.40625 630.71875 358.25 630.9844Q358.10938 631.2656 357.89062 631.5Q357.67188 631.75 357.35938 631.90625Q357.04688 632.0625 356.60938 632.0625Q356.48438 632.0625 356.28125 632.0156Q356.07812 631.9844 356.0 631.96875L356.0 631.09375Q356.04688 631.09375 356.14062 631.09375Q356.25 631.1094 356.28125 631.1094Q356.65625 631.1094 356.90625 631.0156Q357.17188 630.9219 357.34375 630.6875Q357.53125 630.46875 357.65625 630.0781L358.10938 628.84375ZM356.8125 623.15625L358.45312 628.0781L358.73438 629.21875L357.96875 629.625L355.625 623.15625L356.8125 623.15625ZM363.40625 624.15625L363.40625 629.5L362.32812 629.5L362.32812 623.15625L363.375 623.15625L363.40625 624.15625ZM365.39062 623.125L365.39062 624.125Q365.25 624.1094 365.125 624.09375Q365.01562 624.0781 364.85938 624.0781Q364.48438 624.0781 364.1875 624.2031Q363.90625 624.3125 363.70312 624.53125Q363.51562 624.7344 363.39062 625.03125Q363.28125 625.3281 363.25 625.6719L362.9375 625.84375Q362.9375 625.2656 363.04688 624.7656Q363.17188 624.2656 363.40625 623.875Q363.65625 623.4844 364.01562 623.2656Q364.39062 623.0469 364.90625 623.0469Q365.03125 623.0469 365.17188 623.0781Q365.32812 623.09375 365.39062 623.125ZM368.85938 628.71875Q369.25 628.71875 369.57812 628.5625Q369.90625 628.40625 370.10938 628.1406Q370.32812 627.8594 370.35938 627.5L371.39062 627.5Q371.35938 628.0625 371.0 628.5469Q370.65625 629.03125 370.09375 629.3281Q369.53125 629.625 368.85938 629.625Q368.15625 629.625 367.625 629.375Q367.09375 629.1094 366.73438 628.6719Q366.39062 628.2344 366.21875 627.6719Q366.04688 627.09375 366.04688 626.4531L366.04688 626.2031Q366.04688 625.5625 366.21875 625.0Q366.39062 624.4219 366.73438 623.9844Q367.09375 623.5469 367.625 623.2969Q368.15625 623.0469 368.85938 623.0469Q369.60938 623.0469 370.15625 623.34375Q370.71875 623.6406 371.03125 624.1719Q371.35938 624.6875 371.39062 625.34375L370.35938 625.34375Q370.32812 624.9531 370.14062 624.6406Q369.95312 624.3125 369.625 624.125Q369.29688 623.9375 368.85938 623.9375Q368.35938 623.9375 368.01562 624.1406Q367.6875 624.3281 367.48438 624.65625Q367.29688 624.9844 367.20312 625.3906Q367.125 625.7969 367.125 626.2031L367.125 626.4531Q367.125 626.875 367.20312 627.28125Q367.29688 627.6719 367.48438 628.0Q367.6875 628.3281 368.01562 628.53125Q368.35938 628.71875 368.85938 628.71875ZM374.95312 629.625Q374.29688 629.625 373.75 629.40625Q373.21875 629.1719 372.82812 628.7656Q372.45312 628.34375 372.25 627.78125Q372.04688 627.21875 372.04688 626.5469L372.04688 626.3125Q372.04688 625.53125 372.26562 624.9219Q372.5 624.3125 372.89062 623.8906Q373.28125 623.46875 373.78125 623.2656Q374.28125 623.0469 374.8125 623.0469Q375.5 623.0469 375.98438 623.28125Q376.48438 623.5156 376.79688 623.9375Q377.125 624.34375 377.26562 624.9219Q377.42188 625.4844 377.42188 626.1406L377.42188 626.6406L372.6875 626.6406L372.6875 625.75L376.34375 625.75L376.34375 625.6719Q376.3125 625.25 376.15625 624.8594Q376.01562 624.4531 375.6875 624.2031Q375.375 623.9375 374.8125 623.9375Q374.45312 623.9375 374.14062 624.09375Q373.82812 624.25 373.59375 624.5625Q373.375 624.8594 373.25 625.2969Q373.14062 625.7344 373.14062 626.3125L373.14062 626.5469Q373.14062 627.0 373.26562 627.40625Q373.39062 627.7969 373.625 628.09375Q373.875 628.3906 374.21875 628.5625Q374.57812 628.7344 375.01562 628.7344Q375.59375 628.7344 375.98438 628.5Q376.39062 628.2656 376.6875 627.875L377.34375 628.3906Q377.14062 628.7031 376.8125 628.9844Q376.5 629.2656 376.03125 629.4531Q375.57812 629.625 374.95312 629.625ZM379.40625 624.5156L379.40625 629.5L378.32812 629.5L378.32812 623.15625L379.35938 623.15625L379.40625 624.5156ZM379.15625 626.09375L378.70312 626.0781Q378.70312 625.4219 378.89062 624.875Q379.07812 624.3125 379.42188 623.90625Q379.76562 623.5 380.23438 623.28125Q380.70312 623.0469 381.28125 623.0469Q381.75 623.0469 382.125 623.1719Q382.5 623.2969 382.76562 623.5781Q383.03125 623.84375 383.17188 624.28125Q383.3125 624.71875 383.3125 625.34375L383.3125 629.5L382.21875 629.5L382.21875 625.3281Q382.21875 624.8281 382.07812 624.53125Q381.9375 624.2344 381.65625 624.09375Q381.375 623.9531 380.95312 623.9531Q380.54688 623.9531 380.21875 624.125Q379.89062 624.2969 379.65625 624.59375Q379.42188 624.8906 379.28125 625.28125Q379.15625 625.65625 379.15625 626.09375Z" fill-rule="nonzero"/><path stroke="#000000" stroke-width="1.0" stroke-linecap="butt" d="M365.0 350.0L175.0 460.0" fill-rule="nonzero"/><path fill="#000000" d="M109.671875 490.57812L109.671875 491.5L105.40625 491.5L105.40625 490.57812L109.671875 490.57812ZM105.625 482.96875L105.625 491.5L104.484375 491.5L104.484375 482.96875L105.625 482.96875ZM111.5 485.15625L111.5 491.5L110.421875 491.5L110.421875 485.15625L111.5 485.15625ZM110.328125 483.48438Q110.328125 483.21875 110.484375 483.03125Q110.65625 482.84375 110.96875 482.84375Q111.28125 482.84375 111.4375 483.03125Q111.609375 483.21875 111.609375 483.48438Q111.609375 483.73438 111.4375 483.92188Q111.28125 484.09375 110.96875 484.09375Q110.65625 484.09375 110.484375 483.92188Q110.328125 483.73438 110.328125 483.48438ZM114.40625 486.42188L114.40625 491.5L113.3125 491.5L113.3125 485.15625L114.34375 485.15625L114.40625 486.42188ZM114.1875 488.09375L113.671875 488.07812Q113.6875 487.42188 113.84375 486.875Q114.015625 486.3125 114.328125 485.90625Q114.65625 485.5 115.140625 485.28125Q115.625 485.04688 116.25 485.04688Q116.703125 485.04688 117.078125 485.17188Q117.453125 485.29688 117.71875 485.5625Q118.0 485.82812 118.140625 486.25Q118.296875 486.67188 118.296875 487.28125L118.296875 491.5L117.21875 491.5L117.21875 487.32812Q117.21875 486.82812 117.046875 486.53125Q116.890625 486.23438 116.578125 486.09375Q116.28125 485.95312 115.859375 485.95312Q115.390625 485.95312 115.0625 486.125Q114.734375 486.29688 114.546875 486.59375Q114.359375 486.89062 114.265625 487.28125Q114.1875 487.65625 114.1875 488.09375ZM118.296875 487.48438L117.5625 487.71875Q117.5625 487.1875 117.734375 486.71875Q117.90625 486.23438 118.21875 485.85938Q118.546875 485.48438 119.015625 485.26562Q119.484375 485.04688 120.078125 485.04688Q120.59375 485.04688 120.984375 485.1875Q121.390625 485.3125 121.65625 485.59375Q121.921875 485.875 122.0625 486.3125Q122.203125 486.73438 122.203125 487.32812L122.203125 491.5L121.125 491.5L121.125 487.32812Q121.125 486.78125 120.953125 486.5Q120.78125 486.20312 120.484375 486.07812Q120.1875 485.95312 119.765625 485.95312Q119.40625 485.95312 119.125 486.07812Q118.859375 486.20312 118.671875 486.42188Q118.484375 486.625 118.390625 486.90625Q118.296875 487.1875 118.296875 487.48438ZM124.046875 488.40625L124.046875 488.26562Q124.046875 487.57812 124.234375 487.0Q124.4375 486.40625 124.8125 485.96875Q125.1875 485.53125 125.71875 485.29688Q126.25 485.04688 126.921875 485.04688Q127.578125 485.04688 128.10938 485.29688Q128.65625 485.53125 129.03125 485.96875Q129.40625 486.40625 129.60938 487.0Q129.8125 487.57812 129.8125 488.26562L129.8125 488.40625Q129.8125 489.07812 129.60938 489.67188Q129.40625 490.25 129.03125 490.6875Q128.65625 491.125 128.125 491.375Q127.59375 491.625 126.921875 491.625Q126.265625 491.625 125.71875 491.375Q125.1875 491.125 124.8125 490.6875Q124.4375 490.25 124.234375 489.67188Q124.046875 489.07812 124.046875 488.40625ZM125.125 488.26562L125.125 488.40625Q125.125 488.875 125.234375 489.29688Q125.34375 489.71875 125.5625 490.04688Q125.796875 490.35938 126.140625 490.54688Q126.484375 490.71875 126.921875 490.71875Q127.375 490.71875 127.703125 490.54688Q128.04688 490.35938 128.26562 490.04688Q128.5 489.71875 128.60938 489.29688Q128.71875 488.875 128.71875 488.40625L128.71875 488.26562Q128.71875 487.79688 128.60938 487.375Q128.5 486.95312 128.26562 486.64062Q128.04688 486.3125 127.703125 486.125Q127.375 485.9375 126.921875 485.9375Q126.46875 485.9375 126.125 486.125Q125.796875 486.3125 125.5625 486.64062Q125.34375 486.95312 125.234375 487.375Q125.125 487.79688 125.125 488.26562ZM132.40625 486.51562L132.40625 491.5L131.32812 491.5L131.32812 485.15625L132.35938 485.15625L132.40625 486.51562ZM132.15625 488.09375L131.70312 488.07812Q131.70312 487.42188 131.89062 486.875Q132.07812 486.3125 132.42188 485.90625Q132.76562 485.5 133.23438 485.28125Q133.70312 485.04688 134.28125 485.04688Q134.75 485.04688 135.125 485.17188Q135.5 485.29688 135.76562 485.57812Q136.03125 485.84375 136.17188 486.28125Q136.3125 486.71875 136.3125 487.34375L136.3125 491.5L135.21875 491.5L135.21875 487.32812Q135.21875 486.82812 135.07812 486.53125Q134.9375 486.23438 134.65625 486.09375Q134.375 485.95312 133.95312 485.95312Q133.54688 485.95312 133.21875 486.125Q132.89062 486.29688 132.65625 486.59375Q132.42188 486.89062 132.28125 487.28125Q132.15625 487.65625 132.15625 488.09375ZM140.95312 491.625Q140.29688 491.625 139.75 491.40625Q139.21875 491.17188 138.82812 490.76562Q138.45312 490.34375 138.25 489.78125Q138.04688 489.21875 138.04688 488.54688L138.04688 488.3125Q138.04688 487.53125 138.26562 486.92188Q138.5 486.3125 138.89062 485.89062Q139.28125 485.46875 139.78125 485.26562Q140.28125 485.04688 140.8125 485.04688Q141.5 485.04688 141.98438 485.28125Q142.48438 485.51562 142.79688 485.9375Q143.125 486.34375 143.26562 486.92188Q143.42188 487.48438 143.42188 488.14062L143.42188 488.64062L138.6875 488.64062L138.6875 487.75L142.34375 487.75L142.34375 487.67188Q142.3125 487.25 142.15625 486.85938Q142.01562 486.45312 141.6875 486.20312Q141.375 485.9375 140.8125 485.9375Q140.45312 485.9375 140.14062 486.09375Q139.82812 486.25 139.59375 486.5625Q139.375 486.85938 139.25 487.29688Q139.14062 487.73438 139.14062 488.3125L139.14062 488.54688Q139.14062 489.0 139.26562 489.40625Q139.39062 489.79688 139.625 490.09375Q139.875 490.39062 140.21875 490.5625Q140.57812 490.73438 141.01562 490.73438Q141.59375 490.73438 141.98438 490.5Q142.39062 490.26562 142.6875 489.875L143.34375 490.39062Q143.14062 490.70312 142.8125 490.98438Q142.5 491.26562 142.03125 491.45312Q141.57812 491.625 140.95312 491.625ZM145.40625 486.51562L145.40625 491.5L144.32812 491.5L144.32812 485.15625L145.35938 485.15625L145.40625 486.51562ZM145.15625 488.09375L144.70312 488.07812Q144.70312 487.42188 144.89062 486.875Q145.07812 486.3125 145.42188 485.90625Q145.76562 485.5 146.23438 485.28125Q146.70312 485.04688 147.28125 485.04688Q147.75 485.04688 148.125 485.17188Q148.5 485.29688 148.76562 485.57812Q149.03125 485.84375 149.17188 486.28125Q149.3125 486.71875 149.3125 487.34375L149.3125 491.5L148.21875 491.5L148.21875 487.32812Q148.21875 486.82812 148.07812 486.53125Q147.9375 486.23438 147.65625 486.09375Q147.375 485.95312 146.95312 485.95312Q146.54688 485.95312 146.21875 486.125Q145.89062 486.29688 145.65625 486.59375Q145.42188 486.89062 145.28125 487.28125Q145.15625 487.65625 145.15625 488.09375Z" fill-rule="nonzero"/><path stroke="#000000" stroke-width="1.0" stroke-linecap="butt" d="M365.0 350.0L175.0 240.0" fill-rule="nonzero"/><path fill="#000000" d="M109.03125 215.34375Q109.03125 215.04688 108.9375 214.8125Q108.859375 214.57812 108.625 214.39062Q108.40625 214.20312 108.0 214.03125Q107.609375 213.85938 107.015625 213.6875Q106.375 213.5 105.859375 213.28125Q105.359375 213.04688 104.984375 212.75Q104.625 212.4375 104.4375 212.0625Q104.25 211.67188 104.25 211.17188Q104.25 210.67188 104.453125 210.25Q104.65625 209.82812 105.03125 209.51562Q105.421875 209.20312 105.953125 209.03125Q106.484375 208.84375 107.140625 208.84375Q108.109375 208.84375 108.78125 209.21875Q109.453125 209.57812 109.796875 210.17188Q110.15625 210.76562 110.15625 211.42188L109.03125 211.42188Q109.03125 210.95312 108.8125 210.57812Q108.609375 210.20312 108.1875 210.0Q107.78125 209.78125 107.140625 209.78125Q106.546875 209.78125 106.140625 209.96875Q105.75 210.14062 105.5625 210.45312Q105.375 210.76562 105.375 211.15625Q105.375 211.42188 105.484375 211.65625Q105.609375 211.875 105.84375 212.0625Q106.09375 212.25 106.46875 212.40625Q106.84375 212.5625 107.375 212.70312Q108.09375 212.90625 108.625 213.17188Q109.15625 213.42188 109.5 213.73438Q109.84375 214.04688 110.0 214.4375Q110.171875 214.82812 110.171875 215.32812Q110.171875 215.85938 109.953125 216.28125Q109.75 216.70312 109.359375 217.0Q108.96875 217.29688 108.421875 217.46875Q107.875 217.625 107.203125 217.625Q106.609375 217.625 106.03125 217.45312Q105.46875 217.28125 105.0 216.95312Q104.53125 216.625 104.25 216.15625Q103.96875 215.67188 103.96875 215.03125L105.09375 215.03125Q105.09375 215.46875 105.265625 215.78125Q105.4375 216.09375 105.734375 216.29688Q106.03125 216.5 106.40625 216.60938Q106.78125 216.70312 107.203125 216.70312Q107.796875 216.70312 108.203125 216.54688Q108.609375 216.375 108.8125 216.07812Q109.03125 215.76562 109.03125 215.34375ZM111.046875 214.40625L111.046875 214.26562Q111.046875 213.57812 111.234375 213.0Q111.4375 212.40625 111.8125 211.96875Q112.1875 211.53125 112.71875 211.29688Q113.25 211.04688 113.921875 211.04688Q114.578125 211.04688 115.109375 211.29688Q115.65625 211.53125 116.03125 211.96875Q116.40625 212.40625 116.609375 213.0Q116.8125 213.57812 116.8125 214.26562L116.8125 214.40625Q116.8125 215.07812 116.609375 215.67188Q116.40625 216.25 116.03125 216.6875Q115.65625 217.125 115.125 217.375Q114.59375 217.625 113.921875 217.625Q113.265625 217.625 112.71875 217.375Q112.1875 217.125 111.8125 216.6875Q111.4375 216.25 111.234375 215.67188Q111.046875 215.07812 111.046875 214.40625ZM112.125 214.26562L112.125 214.40625Q112.125 214.875 112.234375 215.29688Q112.34375 215.71875 112.5625 216.04688Q112.796875 216.35938 113.140625 216.54688Q113.484375 216.71875 113.921875 216.71875Q114.375 216.71875 114.703125 216.54688Q115.046875 216.35938 115.265625 216.04688Q115.5 215.71875 115.609375 215.29688Q115.71875 214.875 115.71875 214.40625L115.71875 214.26562Q115.71875 213.79688 115.609375 213.375Q115.5 212.95312 115.265625 212.64062Q115.046875 212.3125 114.703125 212.125Q114.375 211.9375 113.921875 211.9375Q113.46875 211.9375 113.125 212.125Q112.796875 212.3125 112.5625 212.64062Q112.34375 212.95312 112.234375 213.375Q112.125 213.79688 112.125 214.26562ZM119.40625 212.51562L119.40625 217.5L118.328125 217.5L118.328125 211.15625L119.359375 211.15625L119.40625 212.51562ZM119.15625 214.09375L118.703125 214.07812Q118.703125 213.42188 118.890625 212.875Q119.078125 212.3125 119.421875 211.90625Q119.765625 211.5 120.234375 211.28125Q120.703125 211.04688 121.28125 211.04688Q121.75 211.04688 122.125 211.17188Q122.5 211.29688 122.765625 211.57812Q123.03125 211.84375 123.171875 212.28125Q123.3125 212.71875 123.3125 213.34375L123.3125 217.5L122.21875 217.5L122.21875 213.32812Q122.21875 212.82812 122.078125 212.53125Q121.9375 212.23438 121.65625 212.09375Q121.375 211.95312 120.953125 211.95312Q120.546875 211.95312 120.21875 212.125Q119.890625 212.29688 119.65625 212.59375Q119.421875 212.89062 119.28125 213.28125Q119.15625 213.65625 119.15625 214.09375ZM129.01562 215.8125Q129.01562 215.57812 128.90625 215.375Q128.8125 215.17188 128.5 215.01562Q128.1875 214.84375 127.5625 214.71875Q127.03125 214.60938 126.609375 214.46875Q126.1875 214.3125 125.890625 214.09375Q125.59375 213.875 125.4375 213.57812Q125.28125 213.28125 125.28125 212.89062Q125.28125 212.51562 125.4375 212.1875Q125.609375 211.84375 125.90625 211.59375Q126.21875 211.32812 126.65625 211.1875Q127.09375 211.04688 127.625 211.04688Q128.39062 211.04688 128.92188 211.3125Q129.46875 211.57812 129.75 212.03125Q130.03125 212.48438 130.03125 213.01562L128.95312 213.01562Q128.95312 212.76562 128.79688 212.51562Q128.64062 212.26562 128.34375 212.10938Q128.04688 211.9375 127.625 211.9375Q127.171875 211.9375 126.890625 212.07812Q126.609375 212.20312 126.484375 212.42188Q126.359375 212.625 126.359375 212.85938Q126.359375 213.04688 126.421875 213.1875Q126.484375 213.3125 126.640625 213.4375Q126.796875 213.54688 127.078125 213.65625Q127.375 213.75 127.828125 213.84375Q128.60938 214.01562 129.10938 214.26562Q129.60938 214.51562 129.85938 214.875Q130.10938 215.21875 130.10938 215.73438Q130.10938 216.15625 129.92188 216.5Q129.75 216.84375 129.42188 217.09375Q129.10938 217.34375 128.65625 217.48438Q128.20312 217.625 127.65625 217.625Q126.8125 217.625 126.234375 217.32812Q125.65625 217.01562 125.359375 216.54688Q125.0625 216.0625 125.0625 215.54688L126.140625 215.54688Q126.171875 215.98438 126.40625 216.25Q126.640625 216.51562 126.96875 216.625Q127.3125 216.71875 127.65625 216.71875Q128.09375 216.71875 128.39062 216.60938Q128.70312 216.48438 128.85938 216.28125Q129.01562 216.07812 129.01562 215.8125ZM133.98438 211.15625L133.98438 211.98438L130.54688 211.98438L130.54688 211.15625L133.98438 211.15625ZM131.71875 209.625L132.79688 209.625L132.79688 215.92188Q132.79688 216.25 132.89062 216.42188Q133.0 216.57812 133.15625 216.64062Q133.3125 216.6875 133.5 216.6875Q133.625 216.6875 133.76562 216.65625Q133.92188 216.625 134.0 216.60938L134.01562 217.5Q133.875 217.54688 133.67188 217.57812Q133.46875 217.625 133.17188 217.625Q132.78125 217.625 132.4375 217.46875Q132.10938 217.29688 131.90625 216.9375Q131.71875 216.5625 131.71875 215.92188L131.71875 209.625ZM136.5 211.15625L136.5 217.5L135.42188 217.5L135.42188 211.15625L136.5 211.15625ZM135.32812 209.48438Q135.32812 209.21875 135.48438 209.03125Q135.65625 208.84375 135.96875 208.84375Q136.28125 208.84375 136.4375 209.03125Q136.60938 209.21875 136.60938 209.48438Q136.60938 209.73438 136.4375 209.92188Q136.28125 210.09375 135.96875 210.09375Q135.65625 210.09375 135.48438 209.92188Q135.32812 209.73438 135.32812 209.48438ZM142.4375 211.15625L143.42188 211.15625L143.42188 217.35938Q143.42188 218.20312 143.07812 218.79688Q142.73438 219.39062 142.125 219.6875Q141.53125 220.0 140.73438 220.0Q140.40625 220.0 139.95312 219.89062Q139.51562 219.79688 139.09375 219.54688Q138.67188 219.3125 138.39062 218.90625L138.95312 218.25Q139.35938 218.73438 139.78125 218.92188Q140.21875 219.10938 140.65625 219.10938Q141.17188 219.10938 141.54688 218.90625Q141.92188 218.71875 142.125 218.34375Q142.32812 217.96875 142.32812 217.42188L142.32812 212.54688L142.4375 211.15625ZM138.0625 214.40625L138.0625 214.28125Q138.0625 213.54688 138.23438 212.95312Q138.42188 212.35938 138.73438 211.9375Q139.0625 211.5 139.51562 211.28125Q139.98438 211.04688 140.57812 211.04688Q141.17188 211.04688 141.60938 211.25Q142.0625 211.45312 142.375 211.85938Q142.6875 212.25 142.875 212.8125Q143.0625 213.35938 143.125 214.0625L143.125 214.60938Q143.0625 215.29688 142.875 215.85938Q142.6875 216.42188 142.375 216.8125Q142.0625 217.20312 141.60938 217.42188Q141.15625 217.625 140.5625 217.625Q139.98438 217.625 139.53125 217.39062Q139.07812 217.14062 138.75 216.70312Q138.42188 216.26562 138.23438 215.6875Q138.0625 215.09375 138.0625 214.40625ZM139.15625 214.28125L139.15625 214.40625Q139.15625 214.875 139.25 215.29688Q139.34375 215.70312 139.54688 216.03125Q139.75 216.34375 140.0625 216.53125Q140.39062 216.70312 140.82812 216.70312Q141.35938 216.70312 141.70312 216.46875Q142.0625 216.23438 142.26562 215.85938Q142.48438 215.48438 142.59375 215.04688L142.59375 213.64062Q142.53125 213.3125 142.39062 213.01562Q142.26562 212.71875 142.0625 212.48438Q141.85938 212.23438 141.54688 212.09375Q141.25 211.95312 140.82812 211.95312Q140.39062 211.95312 140.0625 212.14062Q139.75 212.32812 139.54688 212.65625Q139.34375 212.96875 139.25 213.39062Q139.15625 213.79688 139.15625 214.28125ZM147.95312 217.625Q147.29688 217.625 146.75 217.40625Q146.21875 217.17188 145.82812 216.76562Q145.45312 216.34375 145.25 215.78125Q145.04688 215.21875 145.04688 214.54688L145.04688 214.3125Q145.04688 213.53125 145.26562 212.92188Q145.5 212.3125 145.89062 211.89062Q146.28125 211.46875 146.78125 211.26562Q147.28125 211.04688 147.8125 211.04688Q148.5 211.04688 148.98438 211.28125Q149.48438 211.51562 149.79688 211.9375Q150.125 212.34375 150.26562 212.92188Q150.42188 213.48438 150.42188 214.14062L150.42188 214.64062L145.6875 214.64062L145.6875 213.75L149.34375 213.75L149.34375 213.67188Q149.3125 213.25 149.15625 212.85938Q149.01562 212.45312 148.6875 212.20312Q148.375 211.9375 147.8125 211.9375Q147.45312 211.9375 147.14062 212.09375Q146.82812 212.25 146.59375 212.5625Q146.375 212.85938 146.25 213.29688Q146.14062 213.73438 146.14062 214.3125L146.14062 214.54688Q146.14062 215.0 146.26562 215.40625Q146.39062 215.79688 146.625 216.09375Q146.875 216.39062 147.21875 216.5625Q147.57812 216.73438 148.01562 216.73438Q148.59375 216.73438 148.98438 216.5Q149.39062 216.26562 149.6875 215.875L150.34375 216.39062Q150.14062 216.70312 149.8125 216.98438Q149.5 217.26562 149.03125 217.45312Q148.57812 217.625 147.95312 217.625Z" fill-rule="nonzero"/><path stroke="#000000" stroke-width="1.0" stroke-linecap="butt" d="M365.0 350.0L365.0 131.0" fill-rule="nonzero"/><path stroke="#ff0000" stroke-width="2.0" stroke-linecap="butt" stroke-opacity="0.7019608" stroke-dasharray="8.0,6.0,2.0,6.0" d="M365.0 293.0L407.0 326.0L407.0 374.0L365.0 389.0L331.0 370.0L186.0 247.0Z" fill-rule="nonzero"/><path fill="#ff0000" fill-opacity="0.7019608" d="M369.5 293.0C369.5 295.4853 367.4853 297.5 365.0 297.5C362.5147 297.5 360.5 295.4853 360.5 293.0C360.5 290.5147 362.5147 288.5 365.0 288.5C367.4853 288.5 369.5 290.5147 369.5 293.0Z" fill-rule="nonzero"/><path fill="#ff0000" fill-opacity="0.7019608" d="M411.5 326.0C411.5 328.4853 409.4853 330.5 407.0 330.5C404.5147 330.5 402.5 328.4853 402.5 326.0C402.5 323.5147 404.5147 321.5 407.0 321.5C409.4853 321.5 411.5 323.5147 411.5 326.0Z" fill-rule="nonzero"/><path fill="#ff0000" fill-opacity="0.7019608" d="M411.5 374.0C411.5 376.4853 409.4853 378.5 407.0 378.5C404.5147 378.5 402.5 376.4853 402.5 374.0C402.5 371.5147 404.5147 369.5 407.0 369.5C409.4853 369.5 411.5 371.5147 411.5 374.0Z" fill-rule="nonzero"/><path fill="#ff0000" fill-opacity="0.7019608" d="M369.5 389.0C369.5 391.4853 367.4853 393.5 365.0 393.5C362.5147 393.5 360.5 391.4853 360.5 389.0C360.5 386.5147 362.5147 384.5 365.0 384.5C367.4853 384.5 369.5 386.5147 369.5 389.0Z" fill-rule="nonzero"/><path fill="#ff0000" fill-opacity="0.7019608" d="M335.5 370.0C335.5 372.4853 333.4853 374.5 331.0 374.5C328.5147 374.5 326.5 372.4853 326.5 370.0C326.5 367.5147 328.5147 365.5 331.0 365.5C333.4853 365.5 335.5 367.5147 335.5 370.0Z" fill-rule="nonzero"/><path fill="#ff0000" fill-opacity="0.7019608" d="M190.5 247.0C190.5 249.48528 188.48528 251.5 186.0 251.5C183.51472 251.5 181.5 249.48528 181.5 247.0C181.5 244.51472 183.51472 242.5 186.0 242.5C188.48528 242.5 190.5 244.51472 190.5 247.0Z" fill-rule="nonzero"/><path fill="#757575" d="M34.21875 51.75L34.21875 37.4375L39.59375 37.4375Q41.234375 37.4375 42.21875 37.875Q43.203125 38.296875 43.765625 39.203125Q44.328125 40.109375 44.328125 41.09375Q44.328125 42.015625 43.828125 42.828125Q43.34375 43.640625 42.328125 44.125Q43.625 44.515625 44.328125 45.4375Q45.03125 46.34375 45.03125 47.59375Q45.03125 48.609375 44.59375 49.46875Q44.171875 50.328125 43.546875 50.796875Q42.921875 51.265625 41.984375 51.515625Q41.046875 51.75 39.671875 51.75L34.21875 51.75ZM36.109375 43.453125L39.203125 43.453125Q40.46875 43.453125 41.015625 43.28125Q41.734375 43.0625 42.09375 42.578125Q42.46875 42.078125 42.46875 41.3125Q42.46875 40.609375 42.125 40.0625Q41.78125 39.515625 41.140625 39.328125Q40.515625 39.125 38.96875 39.125L36.109375 39.125L36.109375 43.453125ZM36.109375 50.0625L39.671875 50.0625Q40.59375 50.0625 40.96875 49.984375Q41.625 49.875 42.0625 49.609375Q42.5 49.328125 42.78125 48.8125Q43.0625 48.28125 43.0625 47.59375Q43.0625 46.796875 42.65625 46.203125Q42.25 45.609375 41.515625 45.375Q40.78125 45.140625 39.421875 45.140625L36.109375 45.140625L36.109375 50.0625ZM47.03125 51.75L47.03125 37.4375L48.78125 37.4375L48.78125 51.75L47.03125 51.75ZM57.84375 50.46875Q56.859375 51.296875 55.953125 51.640625Q55.046875 51.984375 54.015625 51.984375Q52.3125 51.984375 51.390625 51.15625Q50.46875 50.3125 50.46875 49.015625Q50.46875 48.25 50.8125 47.625Q51.171875 47.0 51.734375 46.625Q52.296875 46.234375 53.0 46.03125Q53.515625 45.90625 54.5625 45.765625Q56.6875 45.515625 57.6875 45.171875Q57.703125 44.8125 57.703125 44.703125Q57.703125 43.640625 57.203125 43.1875Q56.53125 42.59375 55.203125 42.59375Q53.953125 42.59375 53.359375 43.03125Q52.78125 43.46875 52.5 44.578125L50.78125 44.34375Q51.015625 43.234375 51.546875 42.5625Q52.078125 41.875 53.09375 41.515625Q54.109375 41.140625 55.453125 41.140625Q56.78125 41.140625 57.609375 41.453125Q58.4375 41.765625 58.828125 42.25Q59.21875 42.71875 59.375 43.4375Q59.46875 43.890625 59.46875 45.0625L59.46875 47.40625Q59.46875 49.859375 59.578125 50.515625Q59.6875 51.15625 60.03125 51.75L58.1875 51.75Q57.921875 51.203125 57.84375 50.46875ZM57.6875 46.546875Q56.734375 46.9375 54.8125 47.203125Q53.734375 47.359375 53.28125 47.5625Q52.84375 47.75 52.59375 48.125Q52.34375 48.5 52.34375 48.96875Q52.34375 49.671875 52.875 50.140625Q53.40625 50.609375 54.4375 50.609375Q55.453125 50.609375 56.234375 50.171875Q57.03125 49.71875 57.40625 48.953125Q57.6875 48.34375 57.6875 47.1875L57.6875 46.546875ZM68.84375 47.953125L70.5625 48.171875Q70.28125 49.96875 69.109375 50.984375Q67.953125 51.984375 66.25 51.984375Q64.125 51.984375 62.828125 50.59375Q61.53125 49.203125 61.53125 46.609375Q61.53125 44.921875 62.078125 43.671875Q62.640625 42.40625 63.78125 41.78125Q64.921875 41.140625 66.265625 41.140625Q67.953125 41.140625 69.015625 42.0Q70.09375 42.859375 70.40625 44.421875L68.6875 44.6875Q68.453125 43.640625 67.828125 43.125Q67.203125 42.59375 66.328125 42.59375Q65.0 42.59375 64.171875 43.546875Q63.34375 44.5 63.34375 46.546875Q63.34375 48.640625 64.140625 49.59375Q64.9375 50.53125 66.234375 50.53125Q67.265625 50.53125 67.953125 49.90625Q68.65625 49.265625 68.84375 47.953125ZM72.078125 51.75L72.078125 37.4375L73.84375 37.4375L73.84375 45.59375L78.0 41.375L80.265625 41.375L76.3125 45.21875L80.671875 51.75L78.5 51.75L75.078125 46.453125L73.84375 47.640625L73.84375 51.75L72.078125 51.75ZM91.9375 51.75L91.9375 39.125L87.21875 39.125L87.21875 37.4375L98.5625 37.4375L98.5625 39.125L93.828125 39.125L93.828125 51.75L91.9375 51.75ZM100.046875 51.75L100.046875 41.375L101.625 41.375L101.625 42.953125Q102.234375 41.84375 102.75 41.5Q103.265625 41.140625 103.875 41.140625Q104.765625 41.140625 105.6875 41.703125L105.078125 43.34375Q104.4375 42.953125 103.796875 42.953125Q103.21875 42.953125 102.75 43.3125Q102.296875 43.65625 102.09375 44.265625Q101.8125 45.203125 101.8125 46.3125L101.8125 51.75L100.046875 51.75ZM107.078125 39.453125L107.078125 37.4375L108.84375 37.4375L108.84375 39.453125L107.078125 39.453125ZM107.078125 51.75L107.078125 41.375L108.84375 41.375L108.84375 51.75L107.078125 51.75ZM117.84375 50.46875Q116.859375 51.296875 115.953125 51.640625Q115.046875 51.984375 114.015625 51.984375Q112.3125 51.984375 111.390625 51.15625Q110.46875 50.3125 110.46875 49.015625Q110.46875 48.25 110.8125 47.625Q111.171875 47.0 111.734375 46.625Q112.296875 46.234375 113.0 46.03125Q113.515625 45.90625 114.5625 45.765625Q116.6875 45.515625 117.6875 45.171875Q117.703125 44.8125 117.703125 44.703125Q117.703125 43.640625 117.203125 43.1875Q116.53125 42.59375 115.203125 42.59375Q113.953125 42.59375 113.359375 43.03125Q112.78125 43.46875 112.5 44.578125L110.78125 44.34375Q111.015625 43.234375 111.546875 42.5625Q112.078125 41.875 113.09375 41.515625Q114.109375 41.140625 115.453125 41.140625Q116.78125 41.140625 117.609375 41.453125Q118.4375 41.765625 118.828125 42.25Q119.21875 42.71875 119.375 43.4375Q119.46875 43.890625 119.46875 45.0625L119.46875 47.40625Q119.46875 49.859375 119.578125 50.515625Q119.6875 51.15625 120.03125 51.75L118.1875 51.75Q117.921875 51.203125 117.84375 50.46875ZM117.6875 46.546875Q116.734375 46.9375 114.8125 47.203125Q113.734375 47.359375 113.28125 47.5625Q112.84375 47.75 112.59375 48.125Q112.34375 48.5 112.34375 48.96875Q112.34375 49.671875 112.875 50.140625Q113.40625 50.609375 114.4375 50.609375Q115.453125 50.609375 116.234375 50.171875Q117.03125 49.71875 117.40625 48.953125Q117.6875 48.34375 117.6875 47.1875L117.6875 46.546875ZM122.0625 51.75L122.0625 41.375L123.65625 41.375L123.65625 42.859375Q124.796875 41.140625 126.953125 41.140625Q127.890625 41.140625 128.67188 41.484375Q129.46875 41.8125 129.85938 42.359375Q130.25 42.90625 130.40625 43.65625Q130.5 44.15625 130.5 45.375L130.5 51.75L128.73438 51.75L128.73438 45.4375Q128.73438 44.359375 128.53125 43.828125Q128.32812 43.296875 127.796875 42.984375Q127.28125 42.671875 126.578125 42.671875Q125.453125 42.671875 124.640625 43.390625Q123.828125 44.09375 123.828125 46.078125L123.828125 51.75L122.0625 51.75ZM131.75 52.609375L133.45312 52.859375Q133.5625 53.65625 134.04688 54.015625Q134.70312 54.5 135.84375 54.5Q137.0625 54.5 137.71875 54.015625Q138.39062 53.53125 138.625 52.65625Q138.76562 52.109375 138.75 50.390625Q137.59375 51.75 135.875 51.75Q133.73438 51.75 132.5625 50.203125Q131.39062 48.65625 131.39062 46.5Q131.39062 45.015625 131.92188 43.765625Q132.46875 42.515625 133.48438 41.828125Q134.51562 41.140625 135.89062 41.140625Q137.71875 41.140625 138.92188 42.625L138.92188 41.375L140.53125 41.375L140.53125 50.34375Q140.53125 52.765625 140.03125 53.765625Q139.54688 54.78125 138.46875 55.359375Q137.40625 55.953125 135.84375 55.953125Q134.0 55.953125 132.84375 55.125Q131.70312 54.296875 131.75 52.609375ZM133.20312 46.375Q133.20312 48.421875 134.01562 49.359375Q134.82812 50.296875 136.04688 50.296875Q137.25 50.296875 138.0625 49.359375Q138.89062 48.421875 138.89062 46.4375Q138.89062 44.53125 138.04688 43.5625Q137.20312 42.59375 136.01562 42.59375Q134.84375 42.59375 134.01562 43.546875Q133.20312 44.5 133.20312 46.375ZM143.03125 51.75L143.03125 37.4375L144.78125 37.4375L144.78125 51.75L143.03125 51.75ZM154.17188 48.40625L155.98438 48.640625Q155.5625 50.21875 154.39062 51.109375Q153.23438 51.984375 151.42188 51.984375Q149.15625 51.984375 147.8125 50.59375Q146.48438 49.1875 146.48438 46.65625Q146.48438 44.03125 147.82812 42.59375Q149.17188 41.140625 151.32812 41.140625Q153.40625 41.140625 154.71875 42.5625Q156.04688 43.96875 156.04688 46.546875Q156.04688 46.703125 156.03125 47.015625L148.29688 47.015625Q148.39062 48.71875 149.26562 49.625Q150.14062 50.53125 151.4375 50.53125Q152.40625 50.53125 153.07812 50.03125Q153.76562 49.515625 154.17188 48.40625ZM148.39062 45.5625L154.1875 45.5625Q154.07812 44.265625 153.53125 43.609375Q152.6875 42.59375 151.34375 42.59375Q150.14062 42.59375 149.3125 43.40625Q148.48438 44.203125 148.39062 45.5625Z" fill-rule="nonzero"/></svg>