<svg version="1.1" viewBox="0.0 0.0 730.0 655.0" fill="none" stroke="none" stroke-linecap="square" stroke-miterlimit="10" width="730" height="655" xmlns:xlink="http://www.w3.org/1999/xlink" xmlns="http://www.w3.org/2000/svg"><path fill="#ffffff" d="M0 0L730.0 0L730.0 655.0L0 655.0L0 0Z" fill-rule="nonzero"/><path fill="#ffffff" d="M32.75 78.583336L697.25 78.583336L697.25 622.25L32.75 622.25L32.75 78.583336Z" fill-rule="nonzero"/><path stroke="#000000" stroke-width="1.0" stroke-linecap="butt" d="M365.0 350.0C365.0 350.0 365.0 350.0 365.0 350.0C365.0 350.0 365.0 350.0 365.0 350.0C365.0 350.0 365.0 350.0 365.0 350.0C365.0 350.0 365.0 350.0 365.0 350.0" fill-rule="nonzero"/><path fill="#000000" d="M353.0625 342.04688L353.0625 343.35938Q353.0625 344.40625 352.875 345.125Q352.6875 345.84375 352.32812 346.28125Q351.98438 346.71875 351.48438 346.92188Q351.0 347.125 350.375 347.125Q349.89062 347.125 349.46875 347.0Q349.04688 346.875 348.71875 346.60938Q348.39062 346.32812 348.15625 345.89062Q347.92188 345.45312 347.79688 344.82812Q347.67188 344.1875 347.67188 343.35938L347.67188 342.04688Q347.67188 341.0 347.85938 340.29688Q348.0625 339.59375 348.40625 339.15625Q348.76562 338.71875 349.25 338.53125Q349.75 338.34375 350.35938 338.34375Q350.85938 338.34375 351.28125 338.46875Q351.70312 338.59375 352.03125 338.85938Q352.35938 339.10938 352.57812 339.54688Q352.8125 339.96875 352.9375 340.59375Q353.0625 341.21875 353.0625 342.04688ZM351.96875 343.53125L351.96875 341.875Q351.96875 341.29688 351.90625 340.85938Q351.84375 340.42188 351.70312 340.10938Q351.57812 339.79688 351.375 339.60938Q351.1875 339.42188 350.9375 339.32812Q350.6875 339.23438 350.35938 339.23438Q349.98438 339.23438 349.67188 339.375Q349.375 339.51562 349.17188 339.82812Q348.96875 340.14062 348.85938 340.65625Q348.76562 341.15625 348.76562 341.875L348.76562 343.53125Q348.76562 344.10938 348.82812 344.54688Q348.90625 344.98438 349.03125 345.3125Q349.17188 345.625 349.35938 345.82812Q349.5625 346.03125 349.8125 346.125Q350.0625 346.21875 350.375 346.21875Q350.78125 346.21875 351.07812 346.07812Q351.375 345.92188 351.57812 345.59375Q351.78125 345.26562 351.875 344.76562Q351.96875 344.25 351.96875 343.53125ZM355.8125 345.70312L355.8125 346.57812Q355.8125 347.125 355.53125 347.71875Q355.26562 348.3125 354.78125 348.70312L354.17188 348.28125Q354.35938 348.01562 354.48438 347.75Q354.60938 347.48438 354.67188 347.20312Q354.75 346.92188 354.75 346.59375L354.75 345.70312L355.8125 345.70312ZM362.0625 342.04688L362.0625 343.35938Q362.0625 344.40625 361.875 345.125Q361.6875 345.84375 361.32812 346.28125Q360.98438 346.71875 360.48438 346.92188Q360.0 347.125 359.375 347.125Q358.89062 347.125 358.46875 347.0Q358.04688 346.875 357.71875 346.60938Q357.39062 346.32812 357.15625 345.89062Q356.92188 345.45312 356.79688 344.82812Q356.67188 344.1875 356.67188 343.35938L356.67188 342.04688Q356.67188 341.0 356.85938 340.29688Q357.0625 339.59375 357.40625 339.15625Q357.76562 338.71875 358.25 338.53125Q358.75 338.34375 359.35938 338.34375Q359.85938 338.34375 360.28125 338.46875Q360.70312 338.59375 361.03125 338.85938Q361.35938 339.10938 361.57812 339.54688Q361.8125 339.96875 361.9375 340.59375Q362.0625 341.21875 362.0625 342.04688ZM360.96875 343.53125L360.96875 341.875Q360.96875 341.29688 360.90625 340.85938Q360.84375 340.42188 360.70312 340.10938Q360.57812 339.79688 360.375 339.60938Q360.1875 339.42188 359.9375 339.32812Q359.6875 339.23438 359.35938 339.23438Q358.98438 339.23438 358.67188 339.375Q358.375 339.51562 358.17188 339.82812Q357.96875 340.14062 357.85938 340.65625Q357.76562 341.15625 357.76562 341.875L357.76562 343.53125Q357.76562 344.10938 357.82812 344.54688Q357.90625 344.98438 358.03125 345.3125Q358.17188 345.625 358.35938 345.82812Q358.5625 346.03125 358.8125 346.125Q359.0625 346.21875 359.375 346.21875Q359.78125 346.21875 360.07812 346.07812Q360.375 345.92188 360.57812 345.59375Q360.78125 345.26562 360.875 344.76562Q360.96875 344.25 360.96875 343.53125Z" fill-rule="nonzero"/><path stroke="#000000" stroke-width="1.0" stroke-linecap="butt" d="M412.96667 350.0C412.96667 323.50873 391.49127 302.03333 365.0 302.03333C338.50873 302.03333 317.03333 323.50873 317.03333 350.0C317.03333 376.49127 338.50873 397.96667 365.0 397.96667C391.49127 397.96667 412.96667 376.49127 412.96667 350.0" fill-rule="nonzero"/><path fill="#000000" d="M353.0625 294.0802L353.0625 295.3927Q353.0625 296.43958 352.875 297.15833Q352.6875 297.87708 352.32812 298.31458Q351.98438 298.75208 351.48438 298.9552Q351.0 299.15833 350.375 299.15833Q349.89062 299.15833 349.46875 299.03333Q349.04688 298.90833 348.71875 298.6427Q348.39062 298.36145 348.15625 297.92395Q347.92188 297.48645 347.79688 296.86145Q347.67188 296.22083 347.67188 295.3927L347.67188 294.0802Q347.67188 293.03333 347.85938 292.3302Q348.0625 291.62708 348.40625 291.18958Q348.76562 290.75208 349.25 290.56458Q349.75 290.37708 350.35938 290.37708Q350.85938 290.37708 351.28125 290.50208Q351.70312 290.62708 352.03125 290.8927Q352.35938 291.1427 352.57812 291.5802Q352.8125 292.00208 352.9375 292.62708Q353.0625 293.25208 353.0625 294.0802ZM351.96875 295.56458L351.96875 293.90833Q351.96875 293.3302 351.90625 292.8927Q351.84375 292.4552 351.70312 292.1427Q351.57812 291.8302 351.375 291.6427Q351.1875 291.4552 350.9375 291.36145Q350.6875 291.2677 350.35938 291.2677Q349.98438 291.2677 349.67188 291.40833Q349.375 291.54895 349.17188 291.86145Q348.96875 292.17395 348.85938 292.68958Q348.76562 293.18958 348.76562 293.90833L348.76562 295.56458Q348.76562 296.1427 348.82812 296.5802Q348.90625 297.0177 349.03125 297.34583Q349.17188 297.65833 349.35938 297.86145Q349.5625 298.06458 349.8125 298.15833Q350.0625 298.25208 350.375 298.25208Q350.78125 298.25208 351.07812 298.11145Q351.375 297.9552 351.57812 297.62708Q351.78125 297.29895 351.875 296.79895Q351.96875 296.28333 351.96875 295.56458ZM355.8125 297.73645L355.8125 298.61145Q355.8125 299.15833 355.53125 299.75208Q355.26562 300.34583 354.78125 300.73645L354.17188 300.31458Q354.35938 300.04895 354.48438 299.78333Q354.60938 299.5177 354.67188 299.23645Q354.75 298.9552 354.75 298.62708L354.75 297.73645L355.8125 297.73645ZM360.26562 290.4552L360.26562 299.03333L359.1875 299.03333L359.1875 291.81458L357.0 292.61145L357.0 291.62708L360.10938 290.4552L360.26562 290.4552Z" fill-rule="nonzero"/><path stroke="#000000" stroke-width="1.0" stroke-linecap="butt" d="M460.93332 350.0C460.93332 297.0175 417.9825 254.06667 365.0 254.06667C312.0175 254.06667 269.06668 297.0175 269.06668 350.0C269.06668 402.9825 312.0175 445.93332 365.0 445.93332C417.9825 445.93332 460.93332 402.9825 460.93332 350.0" fill-rule="nonzero"/><path fill="#000000" d="M353.0625 246.11354L353.0625 247.42604Q353.0625 248.47292 352.875 249.19167Q352.6875 249.91042 352.32812 250.34792Q351.98438 250.78542 351.48438 250.98854Q351.0 251.19167 350.375 251.19167Q349.89062 251.19167 349.46875 251.06667Q349.04688 250.94167 348.71875 250.67604Q348.39062 250.39479 348.15625 249.95729Q347.92188 249.51979 347.79688 248.89479Q347.67188 248.25417 347.67188 247.42604L347.67188 246.11354Q347.67188 245.06667 347.85938 244.36354Q348.0625 243.66042 348.40625 243.22292Q348.76562 242.78542 349.25 242.59792Q349.75 242.41042 350.35938 242.41042Q350.85938 242.41042 351.28125 242.53542Q351.70312 242.66042 352.03125 242.92604Q352.35938 243.17604 352.57812 243.61354Q352.8125 244.03542 352.9375 244.66042Q353.0625 245.28542 353.0625 246.11354ZM351.96875 247.59792L351.96875 245.94167Q351.96875 245.36354 351.90625 244.92604Q351.84375 244.48854 351.70312 244.17604Q351.57812 243.86354 351.375 243.67604Q351.1875 243.48854 350.9375 243.39479Q350.6875 243.30104 350.35938 243.30104Q349.98438 243.30104 349.67188 243.44167Q349.375 243.58229 349.17188 243.89479Q348.96875 244.20729 348.85938 244.72292Q348.76562 245.22292 348.76562 245.94167L348.76562 247.59792Q348.76562 248.17604 348.82812 248.61354Q348.90625 249.05104 349.03125 249.37917Q349.17188 249.69167 349.35938 249.89479Q349.5625 250.09792 349.8125 250.19167Q350.0625 250.28542 350.375 250.28542Q350.78125 250.28542 351.07812 250.14479Q351.375 249.98854 351.57812 249.66042Q351.78125 249.33229 351.875 248.83229Q351.96875 248.31667 351.96875 247.59792ZM355.8125 249.76979L355.8125 250.64479Q355.8125 251.19167 355.53125 251.78542Q355.26562 252.37917 354.78125 252.76979L354.17188 252.34792Q354.35938 252.08229 354.48438 251.81667Q354.60938 251.55104 354.67188 251.26979Q354.75 250.98854 354.75 250.66042L354.75 249.76979L355.8125 249.76979ZM362.29688 250.17604L362.29688 251.06667L356.71875 251.06667L356.71875 250.28542L359.51562 247.17604Q360.03125 246.59792 360.3125 246.20729Q360.59375 245.80104 360.70312 245.48854Q360.82812 245.16042 360.82812 244.83229Q360.82812 244.41042 360.65625 244.06667Q360.48438 243.72292 360.14062 243.51979Q359.8125 243.30104 359.32812 243.30104Q358.76562 243.30104 358.39062 243.53542Q358.01562 243.75417 357.82812 244.14479Q357.64062 244.53542 357.64062 245.03542L356.54688 245.03542Q356.54688 244.31667 356.85938 243.72292Q357.1875 243.12917 357.79688 242.76979Q358.42188 242.41042 359.32812 242.41042Q360.14062 242.41042 360.71875 242.70729Q361.29688 242.98854 361.59375 243.50417Q361.90625 244.00417 361.90625 244.69167Q361.90625 245.06667 361.78125 245.45729Q361.65625 245.83229 361.4375 246.22292Q361.21875 246.59792 360.92188 246.97292Q360.64062 247.33229 360.3125 247.69167L358.01562 250.17604L362.29688 250.17604Z" fill-rule="nonzero"/><path stroke="#000000" stroke-width="1.0" stroke-linecap="butt" d="M508.9 350.0C508.9 270.5262 444.4738 206.1 365.0 206.1C285.5262 206.1 221.1 270.5262 221.1 350.0C221.1 429.4738 285.5262 493.9 365.0 493.9C444.4738 493.9 508.9 429.4738 508.9 350.0" fill-rule="nonzero"/><path fill="#000000" d="M353.0625 198.14688L353.0625 199.45938Q353.0625 200.50626 352.875 201.225Q352.6875 201.94376 352.32812 202.38126Q351.98438 202.81876 351.48438 203.02188Q351.0 203.225 350.375 203.225Q349.89062 203.225 349.46875 203.1Q349.04688 202.975 348.71875 202.70938Q348.39062 202.42813 348.15625 201.99063Q347.92188 201.55313 347.79688 200.92813Q347.67188 200.2875 347.67188 199.45938L347.67188 198.14688Q347.67188 197.1 347.85938 196.39688Q348.0625 195.69376 348.40625 195.25626Q348.76562 194.81876 349.25 194.63126Q349.75 194.44376 350.35938 194.44376Q350.85938 194.44376 351.28125 194.56876Q351.70312 194.69376 352.03125 194.95938Q352.35938 195.20938 352.57812 195.64688Q352.8125 196.06876 352.9375 196.69376Q353.0625 197.31876 353.0625 198.14688ZM351.96875 199.63126L351.96875 197.975Q351.96875 197.39688 351.90625 196.95938Q351.84375 196.52188 351.70312 196.20938Q351.57812 195.89688 351.375 195.70938Q351.1875 195.52188 350.9375 195.42813Q350.6875 195.33438 350.35938 195.33438Q349.98438 195.33438 349.67188 195.475Q349.375 195.61563 349.17188 195.92813Q348.96875 196.24063 348.85938 196.75626Q348.76562 197.25626 348.76562 197.975L348.76562 199.63126Q348.76562 200.20938 348.82812 200.64688Q348.90625 201.08438 349.03125 201.4125Q349.17188 201.725 349.35938 201.92813Q349.5625 202.13126 349.8125 202.225Q350.0625 202.31876 350.375 202.31876Q350.78125 202.31876 351.07812 202.17813Q351.375 202.02188 351.57812 201.69376Q351.78125 201.36563 351.875 200.86563Q351.96875 200.35 351.96875 199.63126ZM355.8125 201.80313L355.8125 202.67813Q355.8125 203.225 355.53125 203.81876Q355.26562 204.4125 354.78125 204.80313L354.17188 204.38126Q354.35938 204.11563 354.48438 203.85Q354.60938 203.58438 354.67188 203.30313Q354.75 203.02188 354.75 202.69376L354.75 201.80313L355.8125 201.80313ZM358.29688 198.30313L359.0625 198.30313Q359.64062 198.30313 360.0 198.11563Q360.375 197.9125 360.5625 197.58438Q360.75 197.25626 360.75 196.83438Q360.75 196.35 360.57812 196.02188Q360.42188 195.67813 360.09375 195.50626Q359.76562 195.33438 359.26562 195.33438Q358.79688 195.33438 358.45312 195.52188Q358.10938 195.69376 357.90625 196.02188Q357.71875 196.35 357.71875 196.80313L356.625 196.80313Q356.625 196.14688 356.95312 195.61563Q357.28125 195.08438 357.875 194.77188Q358.46875 194.44376 359.26562 194.44376Q360.03125 194.44376 360.60938 194.725Q361.1875 194.99063 361.51562 195.5375Q361.84375 196.06876 361.84375 196.86563Q361.84375 197.19376 361.6875 197.55313Q361.53125 197.9125 361.21875 198.24063Q360.90625 198.55313 360.40625 198.75626Q359.92188 198.95938 359.21875 198.95938L358.29688 198.95938L358.29688 198.30313ZM358.29688 199.19376L358.29688 198.5375L359.21875 198.5375Q360.03125 198.5375 360.5625 198.74063Q361.09375 198.92813 361.40625 199.25626Q361.71875 199.56876 361.84375 199.95938Q361.96875 200.33438 361.96875 200.725Q361.96875 201.31876 361.76562 201.7875Q361.5625 202.24063 361.1875 202.56876Q360.82812 202.88126 360.32812 203.05313Q359.84375 203.225 359.26562 203.225Q358.70312 203.225 358.21875 203.06876Q357.73438 202.89688 357.35938 202.6Q356.98438 202.30313 356.76562 201.86563Q356.5625 201.4125 356.5625 200.85L357.64062 200.85Q357.64062 201.2875 357.82812 201.63126Q358.03125 201.95938 358.39062 202.14688Q358.76562 202.31876 359.26562 202.31876Q359.76562 202.31876 360.125 202.14688Q360.48438 201.975 360.67188 201.63126Q360.875 201.27188 360.875 200.74063Q360.875 200.20938 360.65625 199.86563Q360.4375 199.52188 360.01562 199.36563Q359.60938 199.19376 359.0625 199.19376L358.29688 199.19376Z" fill-rule="nonzero"/><path stroke="#000000" stroke-width="1.0" stroke-linecap="butt" d="M556.86664 350.0C556.86664 244.03497 470.96503 158.13333 365.0 158.13333C259.03497 158.13333 173.13333 244.03497 173.13333 350.0C173.13333 455.96503 259.03497 541.86664 365.0 541.86664C470.96503 541.86664 556.86664 455.96503 556.86664 350.0" fill-rule="nonzero"/><path fill="#000000" d="M353.0625 150.1802L353.0625 151.4927Q353.0625 152.53958 352.875 153.25833Q352.6875 153.97708 352.32812 154.41458Q351.98438 154.85208 351.48438 155.0552Q351.0 155.25833 350.375 155.25833Q349.89062 155.25833 349.46875 155.13333Q349.04688 155.00833 348.71875 154.7427Q348.39062 154.46146 348.15625 154.02396Q347.92188 153.58646 347.79688 152.96146Q347.67188 152.32083 347.67188 151.4927L347.67188 150.1802Q347.67188 149.13333 347.85938 148.4302Q348.0625 147.72708 348.40625 147.28958Q348.76562 146.85208 349.25 146.66458Q349.75 146.47708 350.35938 146.47708Q350.85938 146.47708 351.28125 146.60208Q351.70312 146.72708 352.03125 146.9927Q352.35938 147.2427 352.57812 147.6802Q352.8125 148.10208 352.9375 148.72708Q353.0625 149.35208 353.0625 150.1802ZM351.96875 151.66458L351.96875 150.00833Q351.96875 149.4302 351.90625 148.9927Q351.84375 148.5552 351.70312 148.2427Q351.57812 147.9302 351.375 147.7427Q351.1875 147.5552 350.9375 147.46146Q350.6875 147.3677 350.35938 147.3677Q349.98438 147.3677 349.67188 147.50833Q349.375 147.64896 349.17188 147.96146Q348.96875 148.27396 348.85938 148.78958Q348.76562 149.28958 348.76562 150.00833L348.76562 151.66458Q348.76562 152.2427 348.82812 152.6802Q348.90625 153.1177 349.03125 153.44583Q349.17188 153.75833 349.35938 153.96146Q349.5625 154.16458 349.8125 154.25833Q350.0625 154.35208 350.375 154.35208Q350.78125 154.35208 351.07812 154.21146Q351.375 154.0552 351.57812 153.72708Q351.78125 153.39896 351.875 152.89896Q351.96875 152.38333 351.96875 151.66458ZM355.8125 153.83646L355.8125 154.71146Q355.8125 155.25833 355.53125 155.85208Q355.26562 156.44583 354.78125 156.83646L354.17188 156.41458Q354.35938 156.14896 354.48438 155.88333Q354.60938 155.6177 354.67188 155.33646Q354.75 155.0552 354.75 154.72708L354.75 153.83646L355.8125 153.83646ZM362.46875 152.25833L362.46875 153.14896L356.3125 153.14896L356.3125 152.50833L360.125 146.60208L361.01562 146.60208L360.0625 148.3052L357.54688 152.25833L362.46875 152.25833ZM361.28125 146.60208L361.28125 155.13333L360.20312 155.13333L360.20312 146.60208L361.28125 146.60208Z" fill-rule="nonzero"/><path stroke="#000000" stroke-width="1.0" stroke-linecap="butt" d="M604.8333 350.0C604.8333 217.5437 497.4563 110.166664 365.0 110.166664C232.5437 110.166664 125.166664 217.5437 125.166664 350.0C125.166664 482.4563 232.5437 589.8333 365.0 589.8333C497.4563 589.8333 604.8333 482.4563 604.8333 350.0" fill-rule="nonzero"/><path fill="#000000" d="M353.0625 102.21354L353.0625 103.52604Q353.0625 104.572914 352.875 105.291664Q352.6875 106.010414 352.32812 106.447914Q351.98438 106.885414 351.48438 107.08854Q351.0 107.291664 350.375 107.291664Q349.89062 107.291664 349.46875 107.166664Q349.04688 107.041664 348.71875 106.77604Q348.39062 106.49479 348.15625 106.05729Q347.92188 105.61979 347.79688 104.99479Q347.67188 104.354164 347.67188 103.52604L347.67188 102.21354Q347.67188 101.166664 347.85938 100.46354Q348.0625 99.760414 348.40625 99.322914Q348.76562 98.885414 349.25 98.697914Q349.75 98.510414 350.35938 98.510414Q350.85938 98.510414 351.28125 98.635414Q351.70312 98.760414 352.03125 99.02604Q352.35938 99.27604 352.57812 99.71354Q352.8125 100.135414 352.9375 100.760414Q353.0625 101.385414 353.0625 102.21354ZM351.96875 103.697914L351.96875 102.041664Q351.96875 101.46354 351.90625 101.02604Q351.84375 100.58854 351.70312 100.27604Q351.57812 99.96354 351.375 99.77604Q351.1875 99.58854 350.9375 99.49479Q350.6875 99.40104 350.35938 99.40104Q349.98438 99.40104 349.67188 99.541664Q349.375 99.68229 349.17188 99.99479Q348.96875 100.30729 348.85938 100.822914Q348.76562 101.322914 348.76562 102.041664L348.76562 103.697914Q348.76562 104.27604 348.82812 104.71354Q348.90625 105.15104 349.03125 105.479164Q349.17188 105.791664 349.35938 105.99479Q349.5625 106.197914 349.8125 106.291664Q350.0625 106.385414 350.375 106.385414Q350.78125 106.385414 351.07812 106.24479Q351.375 106.08854 351.57812 105.760414Q351.78125 105.43229 351.875 104.93229Q351.96875 104.416664 351.96875 103.697914ZM355.8125 105.86979L355.8125 106.74479Q355.8125 107.291664 355.53125 107.885414Q355.26562 108.479164 354.78125 108.86979L354.17188 108.447914Q354.35938 108.18229 354.48438 107.916664Q354.60938 107.65104 354.67188 107.36979Q354.75 107.08854 354.75 106.760414L354.75 105.86979L355.8125 105.86979ZM358.07812 103.104164L357.21875 102.885414L357.64062 98.635414L362.01562 98.635414L362.01562 99.635414L358.5625 99.635414L358.29688 101.96354Q358.53125 101.822914 358.89062 101.71354Q359.26562 101.58854 359.73438 101.58854Q360.3125 101.58854 360.78125 101.791664Q361.25 101.99479 361.57812 102.36979Q361.92188 102.74479 362.09375 103.27604Q362.26562 103.791664 362.26562 104.447914Q362.26562 105.05729 362.09375 105.572914Q361.9375 106.08854 361.59375 106.479164Q361.26562 106.854164 360.75 107.072914Q360.25 107.291664 359.5625 107.291664Q359.04688 107.291664 358.59375 107.15104Q358.14062 106.99479 357.76562 106.697914Q357.40625 106.40104 357.1875 105.96354Q356.96875 105.52604 356.90625 104.916664L357.9375 104.916664Q358.0 105.40104 358.20312 105.729164Q358.42188 106.05729 358.76562 106.229164Q359.10938 106.385414 359.5625 106.385414Q359.95312 106.385414 360.25 106.260414Q360.54688 106.11979 360.75 105.86979Q360.96875 105.61979 361.07812 105.260414Q361.1875 104.90104 361.1875 104.46354Q361.1875 104.05729 361.0625 103.71354Q360.95312 103.36979 360.73438 103.11979Q360.51562 102.854164 360.20312 102.71354Q359.89062 102.55729 359.46875 102.55729Q358.9375 102.55729 358.65625 102.71354Q358.375 102.854164 358.07812 103.104164Z" fill-rule="nonzero"/><path stroke="#000000" stroke-width="1.0" stroke-linecap="butt" d="M365.0 350.0L365.0 110.0" fill-rule="nonzero"/><path fill="#000000" d="M335.64062 86.78125L336.76562 86.78125Q336.67188 87.59375 336.29688 88.234375Q335.92188 88.875 335.23438 89.25Q334.5625 89.625 333.53125 89.625Q332.78125 89.625 332.17188 89.34375Q331.5625 89.046875 331.10938 88.53125Q330.67188 88.015625 330.4375 87.296875Q330.20312 86.5625 330.20312 85.65625L330.20312 84.8125Q330.20312 83.921875 330.4375 83.1875Q330.67188 82.453125 331.125 81.9375Q331.57812 81.40625 332.20312 81.125Q332.84375 80.84375 333.625 80.84375Q334.59375 80.84375 335.26562 81.21875Q335.9375 81.578125 336.29688 82.21875Q336.67188 82.859375 336.76562 83.703125L335.64062 83.703125Q335.5625 83.109375 335.32812 82.6875Q335.10938 82.25 334.70312 82.015625Q334.29688 81.78125 333.625 81.78125Q333.0625 81.78125 332.625 82.0Q332.20312 82.203125 331.90625 82.609375Q331.625 83.0 331.46875 83.5625Q331.32812 84.125 331.32812 84.796875L331.32812 85.65625Q331.32812 86.28125 331.45312 86.84375Q331.59375 87.390625 331.85938 87.8125Q332.125 88.21875 332.54688 88.46875Q332.96875 88.703125 333.53125 88.703125Q334.25 88.703125 334.67188 88.46875Q335.10938 88.234375 335.32812 87.8125Q335.54688 87.390625 335.64062 86.78125ZM342.0625 88.421875L342.0625 85.15625Q342.0625 84.78125 341.90625 84.5Q341.76562 84.21875 341.46875 84.078125Q341.17188 83.921875 340.73438 83.921875Q340.3125 83.921875 340.0 84.0625Q339.70312 84.203125 339.53125 84.4375Q339.35938 84.65625 339.35938 84.921875L338.28125 84.921875Q338.28125 84.578125 338.45312 84.25Q338.625 83.90625 338.95312 83.640625Q339.28125 83.359375 339.75 83.203125Q340.21875 83.046875 340.79688 83.046875Q341.48438 83.046875 342.01562 83.28125Q342.54688 83.515625 342.84375 83.984375Q343.15625 84.453125 343.15625 85.15625L343.15625 88.109375Q343.15625 88.4375 343.20312 88.796875Q343.26562 89.140625 343.375 89.40625L343.375 89.5L342.23438 89.5Q342.15625 89.3125 342.10938 89.0Q342.0625 88.6875 342.0625 88.421875ZM342.25 85.65625L342.26562 86.421875L341.17188 86.421875Q340.70312 86.421875 340.34375 86.5Q339.98438 86.5625 339.73438 86.71875Q339.48438 86.859375 339.35938 87.078125Q339.23438 87.296875 339.23438 87.59375Q339.23438 87.890625 339.35938 88.140625Q339.5 88.375 339.76562 88.53125Q340.04688 88.671875 340.4375 88.671875Q340.9375 88.671875 341.3125 88.46875Q341.70312 88.25 341.92188 87.953125Q342.15625 87.640625 342.17188 87.34375L342.64062 87.875Q342.59375 88.109375 342.40625 88.421875Q342.23438 88.71875 341.92188 89.0Q341.625 89.265625 341.20312 89.453125Q340.79688 89.625 340.28125 89.625Q339.64062 89.625 339.15625 89.375Q338.67188 89.109375 338.40625 88.6875Q338.14062 88.265625 338.14062 87.734375Q338.14062 87.21875 338.32812 86.84375Q338.53125 86.453125 338.90625 86.1875Q339.28125 85.921875 339.8125 85.796875Q340.34375 85.65625 341.0 85.65625L342.25 85.65625ZM346.40625 84.15625L346.40625 89.5L345.32812 89.5L345.32812 83.15625L346.375 83.15625L346.40625 84.15625ZM348.39062 83.125L348.39062 84.125Q348.25 84.109375 348.125 84.09375Q348.01562 84.078125 347.85938 84.078125Q347.48438 84.078125 347.1875 84.203125Q346.90625 84.3125 346.70312 84.53125Q346.51562 84.734375 346.39062 85.03125Q346.28125 85.328125 346.25 85.671875L345.9375 85.84375Q345.9375 85.265625 346.04688 84.765625Q346.17188 84.265625 346.40625 83.875Q346.65625 83.484375 347.01562 83.265625Q347.39062 83.046875 347.90625 83.046875Q348.03125 83.046875 348.17188 83.078125Q348.32812 83.09375 348.39062 83.125ZM351.10938 88.84375L352.875 83.15625L354.03125 83.15625L351.48438 90.484375Q351.40625 90.71875 351.25 90.984375Q351.10938 91.265625 350.89062 91.5Q350.67188 91.75 350.35938 91.90625Q350.04688 92.0625 349.60938 92.0625Q349.48438 92.0625 349.28125 92.015625Q349.07812 91.984375 349.0 91.96875L349.0 91.09375Q349.04688 91.09375 349.14062 91.09375Q349.25 91.109375 349.28125 91.109375Q349.65625 91.109375 349.90625 91.015625Q350.17188 90.921875 350.34375 90.6875Q350.53125 90.46875 350.65625 90.078125L351.10938 88.84375ZM349.8125 83.15625L351.45312 88.078125L351.73438 89.21875L350.96875 89.625L348.625 83.15625L349.8125 83.15625ZM355.04688 86.40625L355.04688 86.265625Q355.04688 85.578125 355.23438 85.0Q355.4375 84.40625 355.8125 83.96875Q356.1875 83.53125 356.71875 83.296875Q357.25 83.046875 357.92188 83.046875Q358.57812 83.046875 359.10938 83.296875Q359.65625 83.53125 360.03125 83.96875Q360.40625 84.40625 360.60938 85.0Q360.8125 85.578125 360.8125 86.265625L360.8125 86.40625Q360.8125 87.078125 360.60938 87.671875Q360.40625 88.25 360.03125 88.6875Q359.65625 89.125 359.125 89.375Q358.59375 89.625 357.92188 89.625Q357.26562 89.625 356.71875 89.375Q356.1875 89.125 355.8125 88.6875Q355.4375 88.25 355.23438 87.671875Q355.04688 87.078125 355.04688 86.40625ZM356.125 86.265625L356.125 86.40625Q356.125 86.875 356.23438 87.296875Q356.34375 87.71875 356.5625 88.046875Q356.79688 88.359375 357.14062 88.546875Q357.48438 88.71875 357.92188 88.71875Q358.375 88.71875 358.70312 88.546875Q359.04688 88.359375 359.26562 88.046875Q359.5 87.71875 359.60938 87.296875Q359.71875 86.875 359.71875 86.40625L359.71875 86.265625Q359.71875 85.796875 359.60938 85.375Q359.5 84.953125 359.26562 84.640625Q359.04688 84.3125 358.70312 84.125Q358.375 83.9375 357.92188 83.9375Q357.46875 83.9375 357.125 84.125Q356.79688 84.3125 356.5625 84.640625Q356.34375 84.953125 356.23438 85.375Q356.125 85.796875 356.125 86.265625ZM363.40625 84.375L363.40625 91.9375L362.32812 91.9375L362.32812 83.15625L363.3125 83.15625L363.40625 84.375ZM367.6875 86.28125L367.6875 86.40625Q367.6875 87.09375 367.51562 87.6875Q367.35938 88.265625 367.04688 88.703125Q366.73438 89.140625 366.26562 89.390625Q365.8125 89.625 365.21875 89.625Q364.625 89.625 364.15625 89.421875Q363.6875 89.21875 363.35938 88.84375Q363.04688 88.453125 362.85938 87.921875Q362.67188 87.390625 362.59375 86.71875L362.59375 86.0625Q362.67188 85.359375 362.85938 84.8125Q363.04688 84.25 363.35938 83.859375Q363.6875 83.453125 364.14062 83.25Q364.60938 83.046875 365.20312 83.046875Q365.79688 83.046875 366.26562 83.28125Q366.73438 83.5 367.04688 83.9375Q367.35938 84.359375 367.51562 84.953125Q367.6875 85.546875 367.6875 86.28125ZM366.59375 86.40625L366.59375 86.28125Q366.59375 85.796875 366.48438 85.390625Q366.39062 84.96875 366.1875 84.65625Q365.98438 84.328125 365.65625 84.140625Q365.32812 83.953125 364.89062 83.953125Q364.48438 83.953125 364.17188 84.09375Q363.875 84.234375 363.65625 84.484375Q363.45312 84.71875 363.3125 85.015625Q363.1875 85.3125 363.125 85.640625L363.125 87.15625Q363.23438 87.5625 363.4375 87.921875Q363.65625 88.28125 364.0 88.5Q364.35938 88.71875 364.90625 88.71875Q365.34375 88.71875 365.65625 88.546875Q365.98438 88.359375 366.1875 88.046875Q366.39062 87.71875 366.48438 87.296875Q366.59375 86.875 366.59375 86.40625ZM370.40625 80.5L370.40625 89.5L369.32812 89.5L369.32812 80.5L370.40625 80.5ZM370.15625 86.09375L369.70312 86.078125Q369.70312 85.421875 369.89062 84.875Q370.07812 84.3125 370.42188 83.90625Q370.76562 83.5 371.23438 83.28125Q371.70312 83.046875 372.28125 83.046875Q372.75 83.046875 373.125 83.171875Q373.5 83.296875 373.76562 83.578125Q374.03125 83.84375 374.17188 84.28125Q374.3125 84.71875 374.3125 85.34375L374.3125 89.5L373.21875 89.5L373.21875 85.328125Q373.21875 84.828125 373.07812 84.53125Q372.9375 84.234375 372.65625 84.09375Q372.375 83.953125 371.95312 83.953125Q371.54688 83.953125 371.21875 84.125Q370.89062 84.296875 370.65625 84.59375Q370.42188 84.890625 370.28125 85.28125Q370.15625 85.65625 370.15625 86.09375ZM378.10938 88.84375L379.875 83.15625L381.03125 83.15625L378.48438 90.484375Q378.40625 90.71875 378.25 90.984375Q378.10938 91.265625 377.89062 91.5Q377.67188 91.75 377.35938 91.90625Q377.04688 92.0625 376.60938 92.0625Q376.48438 92.0625 376.28125 92.015625Q376.07812 91.984375 376.0 91.96875L376.0 91.09375Q376.04688 91.09375 376.14062 91.09375Q376.25 91.109375 376.28125 91.109375Q376.65625 91.109375 376.90625 91.015625Q377.17188 90.921875 377.34375 90.6875Q377.53125 90.46875 377.65625 90.078125L378.10938 88.84375ZM376.8125 83.15625L378.45312 88.078125L378.73438 89.21875L377.96875 89.625L375.625 83.15625L376.8125 83.15625ZM383.5 80.5L383.5 89.5L382.42188 89.5L382.42188 80.5L383.5 80.5ZM386.5 80.5L386.5 89.5L385.42188 89.5L385.42188 80.5L386.5 80.5ZM390.95312 89.625Q390.29688 89.625 389.75 89.40625Q389.21875 89.171875 388.82812 88.765625Q388.45312 88.34375 388.25 87.78125Q388.04688 87.21875 388.04688 86.546875L388.04688 86.3125Q388.04688 85.53125 388.26562 84.921875Q388.5 84.3125 388.89062 83.890625Q389.28125 83.46875 389.78125 83.265625Q390.28125 83.046875 390.8125 83.046875Q391.5 83.046875 391.98438 83.28125Q392.48438 83.515625 392.79688 83.9375Q393.125 84.34375 393.26562 84.921875Q393.42188 85.484375 393.42188 86.140625L393.42188 86.640625L388.6875 86.640625L388.6875 85.75L392.34375 85.75L392.34375 85.671875Q392.3125 85.25 392.15625 84.859375Q392.01562 84.453125 391.6875 84.203125Q391.375 83.9375 390.8125 83.9375Q390.45312 83.9375 390.14062 84.09375Q389.82812 84.25 389.59375 84.5625Q389.375 84.859375 389.25 85.296875Q389.14062 85.734375 389.14062 86.3125L389.14062 86.546875Q389.14062 87.0 389.26562 87.40625Q389.39062 87.796875 389.625 88.09375Q389.875 88.390625 390.21875 88.5625Q390.57812 88.734375 391.01562 88.734375Q391.59375 88.734375 391.98438 88.5Q392.39062 88.265625 392.6875 87.875L393.34375 88.390625Q393.14062 88.703125 392.8125 88.984375Q392.5 89.265625 392.03125 89.453125Q391.57812 89.625 390.95312 89.625ZM395.40625 84.515625L395.40625 89.5L394.32812 89.5L394.32812 83.15625L395.35938 83.15625L395.40625 84.515625ZM395.15625 86.09375L394.70312 86.078125Q394.70312 85.421875 394.89062 84.875Q395.07812 84.3125 395.42188 83.90625Q395.76562 83.5 396.23438 83.28125Q396.70312 83.046875 397.28125 83.046875Q397.75 83.046875 398.125 83.171875Q398.5 83.296875 398.76562 83.578125Q399.03125 83.84375 399.17188 84.28125Q399.3125 84.71875 399.3125 85.34375L399.3125 89.5L398.21875 89.5L398.21875 85.328125Q398.21875 84.828125 398.07812 84.53125Q397.9375 84.234375 397.65625 84.09375Q397.375 83.953125 396.95312 83.953125Q396.54688 83.953125 396.21875 84.125Q395.89062 84.296875 395.65625 84.59375Q395.42188 84.890625 395.28125 85.28125Q395.15625 85.65625 395.15625 86.09375Z" fill-rule="nonzero"/><path stroke="#000000" stroke-width="1.0" stroke-linecap="butt" d="M365.0 350.0L573.0 230.0" fill-rule="nonzero"/><path fill="#000000" d="M577.03125 220.34375Q577.03125 220.04688 576.9375 219.8125Q576.8594 219.57812 576.625 219.39062Q576.40625 219.20312 576.0 219.03125Q575.6094 218.85938 575.0156 218.6875Q574.375 218.5 573.8594 218.28125Q573.3594 218.04688 572.9844 217.75Q572.625 217.4375 572.4375 217.0625Q572.25 216.67188 572.25 216.17188Q572.25 215.67188 572.4531 215.25Q572.65625 214.82812 573.03125 214.51562Q573.4219 214.20312 573.9531 214.03125Q574.4844 213.84375 575.1406 213.84375Q576.1094 213.84375 576.78125 214.21875Q577.4531 214.57812 577.7969 215.17188Q578.15625 215.76562 578.15625 216.42188L577.03125 216.42188Q577.03125 215.95312 576.8125 215.57812Q576.6094 215.20312 576.1875 215.0Q575.78125 214.78125 575.1406 214.78125Q574.5469 214.78125 574.1406 214.96875Q573.75 215.14062 573.5625 215.45312Q573.375 215.76562 573.375 216.15625Q573.375 216.42188 573.4844 216.65625Q573.6094 216.875 573.84375 217.0625Q574.09375 217.25 574.46875 217.40625Q574.84375 217.5625 575.375 217.70312Q576.09375 217.90625 576.625 218.17188Q577.15625 218.42188 577.5 218.73438Q577.84375 219.04688 578.0 219.4375Q578.1719 219.82812 578.1719 220.32812Q578.1719 220.85938 577.9531 221.28125Q577.75 221.70312 577.3594 222.0Q576.96875 222.29688 576.4219 222.46875Q575.875 222.625 575.2031 222.625Q574.6094 222.625 574.03125 222.45312Q573.46875 222.28125 573.0 221.95312Q572.53125 221.625 572.25 221.15625Q571.96875 220.67188 571.96875 220.03125L573.09375 220.03125Q573.09375 220.46875 573.2656 220.78125Q573.4375 221.09375 573.7344 221.29688Q574.03125 221.5 574.40625 221.60938Q574.78125 221.70312 575.2031 221.70312Q575.7969 221.70312 576.2031 221.54688Q576.6094 221.375 576.8125 221.07812Q577.03125 220.76562 577.03125 220.34375ZM581.9531 222.625Q581.2969 222.625 580.75 222.40625Q580.21875 222.17188 579.8281 221.76562Q579.4531 221.34375 579.25 220.78125Q579.0469 220.21875 579.0469 219.54688L579.0469 219.3125Q579.0469 218.53125 579.2656 217.92188Q579.5 217.3125 579.8906 216.89062Q580.28125 216.46875 580.78125 216.26562Q581.28125 216.04688 581.8125 216.04688Q582.5 216.04688 582.9844 216.28125Q583.4844 216.51562 583.7969 216.9375Q584.125 217.34375 584.2656 217.92188Q584.4219 218.48438 584.4219 219.14062L584.4219 219.64062L579.6875 219.64062L579.6875 218.75L583.34375 218.75L583.34375 218.67188Q583.3125 218.25 583.15625 217.85938Q583.0156 217.45312 582.6875 217.20312Q582.375 216.9375 581.8125 216.9375Q581.4531 216.9375 581.1406 217.09375Q580.8281 217.25 580.59375 217.5625Q580.375 217.85938 580.25 218.29688Q580.1406 218.73438 580.1406 219.3125L580.1406 219.54688Q580.1406 220.0 580.2656 220.40625Q580.3906 220.79688 580.625 221.09375Q580.875 221.39062 581.21875 221.5625Q581.5781 221.73438 582.0156 221.73438Q582.59375 221.73438 582.9844 221.5Q583.3906 221.26562 583.6875 220.875L584.34375 221.39062Q584.1406 221.70312 583.8125 221.98438Q583.5 222.26562 583.03125 222.45312Q582.5781 222.625 581.9531 222.625ZM586.5 213.5L586.5 222.5L585.4219 222.5L585.4219 213.5L586.5 213.5ZM589.5 216.15625L589.5 222.5L588.4219 222.5L588.4219 216.15625L589.5 216.15625ZM588.3281 214.48438Q588.3281 214.21875 588.4844 214.03125Q588.65625 213.84375 588.96875 213.84375Q589.28125 213.84375 589.4375 214.03125Q589.6094 214.21875 589.6094 214.48438Q589.6094 214.73438 589.4375 214.92188Q589.28125 215.09375 588.96875 215.09375Q588.65625 215.09375 588.4844 214.92188Q588.3281 214.73438 588.3281 214.48438ZM592.40625 217.51562L592.40625 222.5L591.3281 222.5L591.3281 216.15625L592.3594 216.15625L592.40625 217.51562ZM592.15625 219.09375L591.7031 219.07812Q591.7031 218.42188 591.8906 217.875Q592.0781 217.3125 592.4219 216.90625Q592.7656 216.5 593.2344 216.28125Q593.7031 216.04688 594.28125 216.04688Q594.75 216.04688 595.125 216.17188Q595.5 216.29688 595.7656 216.57812Q596.03125 216.84375 596.1719 217.28125Q596.3125 217.71875 596.3125 218.34375L596.3125 222.5L595.21875 222.5L595.21875 218.32812Q595.21875 217.82812 595.0781 217.53125Q594.9375 217.23438 594.65625 217.09375Q594.375 216.95312 593.9531 216.95312Q593.5469 216.95312 593.21875 217.125Q592.8906 217.29688 592.65625 217.59375Q592.4219 217.89062 592.28125 218.28125Q592.15625 218.65625 592.15625 219.09375ZM600.9531 222.625Q600.2969 222.625 599.75 222.40625Q599.21875 222.17188 598.8281 221.76562Q598.4531 221.34375 598.25 220.78125Q598.0469 220.21875 598.0469 219.54688L598.0469 219.3125Q598.0469 218.53125 598.2656 217.92188Q598.5 217.3125 598.8906 216.89062Q599.28125 216.46875 599.78125 216.26562Q600.28125 216.04688 600.8125 216.04688Q601.5 216.04688 601.9844 216.28125Q602.4844 216.51562 602.7969 216.9375Q603.125 217.34375 603.2656 217.92188Q603.4219 218.48438 603.4219 219.14062L603.4219 219.64062L598.6875 219.64062L598.6875 218.75L602.34375 218.75L602.34375 218.67188Q602.3125 218.25 602.15625 217.85938Q602.0156 217.45312 601.6875 217.20312Q601.375 216.9375 600.8125 216.9375Q600.4531 216.9375 600.1406 217.09375Q599.8281 217.25 599.59375 217.5625Q599.375 217.85938 599.25 218.29688Q599.1406 218.73438 599.1406 219.3125L599.1406 219.54688Q599.1406 220.0 599.2656 220.40625Q599.3906 220.79688 599.625 221.09375Q599.875 221.39062 600.21875 221.5625Q600.5781 221.73438 601.0156 221.73438Q601.59375 221.73438 601.9844 221.5Q602.3906 221.26562 602.6875 220.875L603.34375 221.39062Q603.1406 221.70312 602.8125 221.98438Q602.5 222.26562 602.03125 222.45312Q601.5781 222.625 600.9531 222.625ZM605.40625 217.51562L605.40625 222.5L604.3281 222.5L604.3281 216.15625L605.3594 216.15625L605.40625 217.51562ZM605.15625 219.09375L604.7031 219.07812Q604.7031 218.42188 604.8906 217.875Q605.0781 217.3125 605.4219 216.90625Q605.7656 216.5 606.2344 216.28125Q606.7031 216.04688 607.28125 216.04688Q607.75 216.04688 608.125 216.17188Q608.5 216.29688 608.7656 216.57812Q609.03125 216.84375 609.1719 217.28125Q609.3125 217.71875 609.3125 218.34375L609.3125 222.5L608.21875 222.5L608.21875 218.32812Q608.21875 217.82812 608.0781 217.53125Q607.9375 217.23438 607.65625 217.09375Q607.375 216.95312 606.9531 216.95312Q606.5469 216.95312 606.21875 217.125Q605.8906 217.29688 605.65625 217.59375Q605.4219 217.89062 605.28125 218.28125Q605.15625 218.65625 605.15625 219.09375ZM613.9531 222.625Q613.2969 222.625 612.75 222.40625Q612.21875 222.17188 611.8281 221.76562Q611.4531 221.34375 611.25 220.78125Q611.0469 220.21875 611.0469 219.54688L611.0469 219.3125Q611.0469 218.53125 611.2656 217.92188Q611.5 217.3125 611.8906 216.89062Q612.28125 216.46875 612.78125 216.26562Q613.28125 216.04688 613.8125 216.04688Q614.5 216.04688 614.9844 216.28125Q615.4844 216.51562 615.7969 216.9375Q616.125 217.34375 616.2656 217.92188Q616.4219 218.48438 616.4219 219.14062L616.4219 219.64062L611.6875 219.64062L611.6875 218.75L615.34375 218.75L615.34375 218.67188Q615.3125 218.25 615.15625 217.85938Q615.0156 217.45312 614.6875 217.20312Q614.375 216.9375 613.8125 216.9375Q613.4531 216.9375 613.1406 217.09375Q612.8281 217.25 612.59375 217.5625Q612.375 217.85938 612.25 218.29688Q612.1406 218.73438 612.1406 219.3125L612.1406 219.54688Q612.1406 220.0 612.2656 220.40625Q612.3906 220.79688 612.625 221.09375Q612.875 221.39062 613.21875 221.5625Q613.5781 221.73438 614.0156 221.73438Q614.59375 221.73438 614.9844 221.5Q615.3906 221.26562 615.6875 220.875L616.34375 221.39062Q616.1406 221.70312 615.8125 221.98438Q615.5 222.26562 615.03125 222.45312Q614.5781 222.625 613.9531 222.625Z" fill-rule="nonzero"/><path stroke="#000000" stroke-width="1.0" stroke-linecap="butt" d="M365.0 350.0L573.0 470.0" fill-rule="nonzero"/><path fill="#000000" d="M577.03125 484.34375Q577.03125 484.04688 576.9375 483.8125Q576.8594 483.57812 576.625 483.39062Q576.40625 483.20312 576.0 483.03125Q575.6094 482.85938 575.0156 482.6875Q574.375 482.5 573.8594 482.28125Q573.3594 482.04688 572.9844 481.75Q572.625 481.4375 572.4375 481.0625Q572.25 480.67188 572.25 480.17188Q572.25 479.67188 572.4531 479.25Q572.65625 478.82812 573.03125 478.51562Q573.4219 478.20312 573.9531 478.03125Q574.4844 477.84375 575.1406 477.84375Q576.1094 477.84375 576.78125 478.21875Q577.4531 478.57812 577.7969 479.17188Q578.15625 479.76562 578.15625 480.42188L577.03125 480.42188Q577.03125 479.95312 576.8125 479.57812Q576.6094 479.20312 576.1875 479.0Q575.78125 478.78125 575.1406 478.78125Q574.5469 478.78125 574.1406 478.96875Q573.75 479.14062 573.5625 479.45312Q573.375 479.76562 573.375 480.15625Q573.375 480.42188 573.4844 480.65625Q573.6094 480.875 573.84375 481.0625Q574.09375 481.25 574.46875 481.40625Q574.84375 481.5625 575.375 481.70312Q576.09375 481.90625 576.625 482.17188Q577.15625 482.42188 577.5 482.73438Q577.84375 483.04688 578.0 483.4375Q578.1719 483.82812 578.1719 484.32812Q578.1719 484.85938 577.9531 485.28125Q577.75 485.70312 577.3594 486.0Q576.96875 486.29688 576.4219 486.46875Q575.875 486.625 575.2031 486.625Q574.6094 486.625 574.03125 486.45312Q573.46875 486.28125 573.0 485.95312Q572.53125 485.625 572.25 485.15625Q571.96875 484.67188 571.96875 484.03125L573.09375 484.03125Q573.09375 484.46875 573.2656 484.78125Q573.4375 485.09375 573.7344 485.29688Q574.03125 485.5 574.40625 485.60938Q574.78125 485.70312 575.2031 485.70312Q575.7969 485.70312 576.2031 485.54688Q576.6094 485.375 576.8125 485.07812Q577.03125 484.76562 577.03125 484.34375ZM581.9531 486.625Q581.2969 486.625 580.75 486.40625Q580.21875 486.17188 579.8281 485.76562Q579.4531 485.34375 579.25 484.78125Q579.0469 484.21875 579.0469 483.54688L579.0469 483.3125Q579.0469 482.53125 579.2656 481.92188Q579.5 481.3125 579.8906 480.89062Q580.28125 480.46875 580.78125 480.26562Q581.28125 480.04688 581.8125 480.04688Q582.5 480.04688 582.9844 480.28125Q583.4844 480.51562 583.7969 480.9375Q584.125 481.34375 584.2656 481.92188Q584.4219 482.48438 584.4219 483.14062L584.4219 483.64062L579.6875 483.64062L579.6875 482.75L583.34375 482.75L583.34375 482.67188Q583.3125 482.25 583.15625 481.85938Q583.0156 481.45312 582.6875 481.20312Q582.375 480.9375 581.8125 480.9375Q581.4531 480.9375 581.1406 481.09375Q580.8281 481.25 580.59375 481.5625Q580.375 481.85938 580.25 482.29688Q580.1406 482.73438 580.1406 483.3125L580.1406 483.54688Q580.1406 484.0 580.2656 484.40625Q580.3906 484.79688 580.625 485.09375Q580.875 485.39062 581.21875 485.5625Q581.5781 485.73438 582.0156 485.73438Q582.59375 485.73438 582.9844 485.5Q583.3906 485.26562 583.6875 484.875L584.34375 485.39062Q584.1406 485.70312 583.8125 485.98438Q583.5 486.26562 583.03125 486.45312Q582.5781 486.625 581.9531 486.625ZM586.5 477.5L586.5 486.5L585.4219 486.5L585.4219 477.5L586.5 477.5ZM589.5 480.15625L589.5 486.5L588.4219 486.5L588.4219 480.15625L589.5 480.15625ZM588.3281 478.48438Q588.3281 478.21875 588.4844 478.03125Q588.65625 477.84375 588.96875 477.84375Q589.28125 477.84375 589.4375 478.03125Q589.6094 478.21875 589.6094 478.48438Q589.6094 478.73438 589.4375 478.92188Q589.28125 479.09375 588.96875 479.09375Q588.65625 479.09375 588.4844 478.92188Q588.3281 478.73438 588.3281 478.48438ZM592.40625 481.51562L592.40625 486.5L591.3281 486.5L591.3281 480.15625L592.3594 480.15625L592.40625 481.51562ZM592.15625 483.09375L591.7031 483.07812Q591.7031 482.42188 591.8906 481.875Q592.0781 481.3125 592.4219 480.90625Q592.7656 480.5 593.2344 480.28125Q593.7031 480.04688 594.28125 480.04688Q594.75 480.04688 595.125 480.17188Q595.5 480.29688 595.7656 480.57812Q596.03125 480.84375 596.1719 481.28125Q596.3125 481.71875 596.3125 482.34375L596.3125 486.5L595.21875 486.5L595.21875 482.32812Q595.21875 481.82812 595.0781 481.53125Q594.9375 481.23438 594.65625 481.09375Q594.375 480.95312 593.9531 480.95312Q593.5469 480.95312 593.21875 481.125Q592.8906 481.29688 592.65625 481.59375Q592.4219 481.89062 592.28125 482.28125Q592.15625 482.65625 592.15625 483.09375ZM600.9531 486.625Q600.2969 486.625 599.75 486.40625Q599.21875 486.17188 598.8281 485.76562Q598.4531 485.34375 598.25 484.78125Q598.0469 484.21875 598.0469 483.54688L598.0469 483.3125Q598.0469 482.53125 598.2656 481.92188Q598.5 481.3125 598.8906 480.89062Q599.28125 480.46875 599.78125 480.26562Q600.28125 480.04688 600.8125 480.04688Q601.5 480.04688 601.9844 480.28125Q602.4844 480.51562 602.7969 480.9375Q603.125 481.34375 603.2656 481.92188Q603.4219 482.48438 603.4219 483.14062L603.4219 483.64062L598.6875 483.64062L598.6875 482.75L602.34375 482.75L602.34375 482.67188Q602.3125 482.25 602.15625 481.85938Q602.0156 481.45312 601.6875 481.20312Q601.375 480.9375 600.8125 480.9375Q600.4531 480.9375 600.1406 481.09375Q599.8281 481.25 599.59375 481.5625Q599.375 481.85938 599.25 482.29688Q599.1406 482.73438 599.1406 483.3125L599.1406 483.54688Q599.1406 484.0 599.2656 484.40625Q599.3906 484.79688 599.625 485.09375Q599.875 485.39062 600.21875 485.5625Q600.5781 485.73438 601.0156 485.73438Q601.59375 485.73438 601.9844 485.5Q602.3906 485.26562 602.6875 484.875L603.34375 485.39062Q603.1406 485.70312 602.8125 485.98438Q602.5 486.26562 602.03125 486.45312Q601.5781 486.625 600.9531 486.625ZM605.40625 481.51562L605.40625 486.5L604.3281 486.5L604.3281 480.15625L605.3594 480.15625L605.40625 481.51562ZM605.15625 483.09375L604.7031 483.07812Q604.7031 482.42188 604.8906 481.875Q605.0781 481.3125 605.4219 480.90625Q605.7656 480.5 606.2344 480.28125Q606.7031 480.04688 607.28125 480.04688Q607.75 480.04688 608.125 480.17188Q608.5 480.29688 608.7656 480.57812Q609.03125 480.84375 609.1719 481.28125Q609.3125 481.71875 609.3125 482.34375L609.3125 486.5L608.21875 486.5L608.21875 482.32812Q608.21875 481.82812 608.0781 481.53125Q607.9375 481.23438 607.65625 481.09375Q607.375 480.95312 606.9531 480.95312Q606.5469 480.95312 606.21875 481.125Q605.8906 481.29688 605.65625 481.59375Q605.4219 481.89062 605.28125 482.28125Q605.15625 482.65625 605.15625 483.09375ZM613.9531 486.625Q613.2969 486.625 612.75 486.40625Q612.21875 486.17188 611.8281 485.76562Q611.4531 485.34375 611.25 484.78125Q611.0469 484.21875 611.0469 483.54688L611.0469 483.3125Q611.0469 482.53125 611.2656 481.92188Q611.5 481.3125 611.8906 480.89062Q612.28125 480.46875 612.78125 480.26562Q613.28125 480.04688 613.8125 480.04688Q614.5 480.04688 614.9844 480.28125Q615.4844 480.51562 615.7969 480.9375Q616.125 481.34375 616.2656 481.92188Q616.4219 482.48438 616.4219 483.14062L616.4219 483.64062L611.6875 483.64062L611.6875 482.75L615.34375 482.75L615.34375 482.67188Q615.3125 482.25 615.15625 481.85938Q615.0156 481.45312 614.6875 481.20312Q614.375 480.9375 613.8125 480.9375Q613.4531 480.9375 613.1406 481.09375Q612.8281 481.25 612.59375 481.5625Q612.375 481.85938 612.25 482.29688Q612.1406 482.73438 612.1406 483.3125L612.1406 483.54688Q612.1406 484.0 612.2656 484.40625Q612.3906 484.79688 612.625 485.09375Q612.875 485.39062 613.21875 485.5625Q613.5781 485.73438 614.0156 485.73438Q614.59375 485.73438 614.9844 485.5Q615.3906 485.26562 615.6875 484.875L616.34375 485.39062Q616.1406 485.70312 615.8125 485.98438Q615.5 486.26562 615.03125 486.45312Q614.5781 486.625 613.9531 486.625Z" fill-rule="nonzero"/><path stroke="#000000" stroke-width="1.0" stroke-linecap="butt" d="M365.0 350.0L365.0 590.0" fill-rule="nonzero"/><path fill="#000000" d="M343.53125 614.6719L344.39062 614.6719Q345.20312 614.6719 345.76562 614.9844Q346.34375 615.28125 346.64062 615.8125Q346.95312 616.34375 346.95312 617.0156Q346.95312 617.84375 346.60938 618.4219Q346.26562 619.0 345.67188 619.3125Q345.07812 619.625 344.29688 619.625Q343.84375 619.625 343.39062 619.5Q342.9375 619.3594 342.5625 619.09375Q342.20312 618.8281 341.98438 618.40625Q341.76562 617.9844 341.76562 617.40625L342.1875 617.15625Q342.1875 617.59375 342.4375 617.9531Q342.70312 618.2969 343.14062 618.5156Q343.59375 618.7344 344.1875 618.7344Q344.71875 618.7344 345.09375 618.5156Q345.46875 618.2969 345.67188 617.9219Q345.875 617.53125 345.875 617.03125Q345.875 616.625 345.6875 616.25Q345.51562 615.8594 345.1875 615.6094Q344.85938 615.3594 344.375 615.3594L343.53125 615.3594L343.53125 614.6719ZM344.04688 610.84375Q344.8125 610.84375 345.375 611.1406Q345.9375 611.4375 346.23438 611.9531Q346.54688 612.46875 346.54688 613.1406Q346.54688 613.7031 346.23438 614.1719Q345.9375 614.625 345.375 614.90625Q344.8125 615.1719 344.04688 615.1719L343.53125 615.1719L343.53125 614.46875L344.03125 614.46875Q344.54688 614.46875 344.85938 614.2969Q345.17188 614.125 345.3125 613.8281Q345.46875 613.5156 345.46875 613.125Q345.46875 612.7656 345.3125 612.4531Q345.15625 612.1406 344.84375 611.9375Q344.53125 611.7344 344.04688 611.7344Q343.625 611.7344 343.28125 611.9375Q342.9375 612.125 342.73438 612.46875Q342.53125 612.7969 342.53125 613.21875L342.53125 621.75L341.4375 621.75L341.4375 613.21875Q341.4375 612.5625 341.79688 612.03125Q342.15625 611.4844 342.75 611.1719Q343.34375 610.84375 344.04688 610.84375ZM350.57812 615.4219L350.57812 616.3125L347.71875 616.3125L347.71875 615.4219L350.57812 615.4219ZM351.84375 610.96875L352.9375 610.96875L355.73438 617.9219L358.53125 610.96875L359.625 610.96875L356.15625 619.5L355.3125 619.5L351.84375 610.96875ZM351.48438 610.96875L352.45312 610.96875L352.60938 616.1719L352.60938 619.5L351.48438 619.5L351.48438 610.96875ZM359.01562 610.96875L359.98438 610.96875L359.98438 619.5L358.85938 619.5L358.85938 616.1719L359.01562 610.96875ZM363.10938 618.84375L364.875 613.15625L366.03125 613.15625L363.48438 620.4844Q363.40625 620.71875 363.25 620.9844Q363.10938 621.2656 362.89062 621.5Q362.67188 621.75 362.35938 621.90625Q362.04688 622.0625 361.60938 622.0625Q361.48438 622.0625 361.28125 622.0156Q361.07812 621.9844 361.0 621.96875L361.0 621.09375Q361.04688 621.09375 361.14062 621.09375Q361.25 621.1094 361.28125 621.1094Q361.65625 621.1094 361.90625 621.0156Q362.17188 620.9219 362.34375 620.6875Q362.53125 620.46875 362.65625 620.0781L363.10938 618.84375ZM361.8125 613.15625L363.45312 618.0781L363.73438 619.21875L362.96875 619.625L360.625 613.15625L361.8125 613.15625ZM368.40625 614.15625L368.40625 619.5L367.32812 619.5L367.32812 613.15625L368.375 613.15625L368.40625 614.15625ZM370.39062 613.125L370.39062 614.125Q370.25 614.1094 370.125 614.09375Q370.01562 614.0781 369.85938 614.0781Q369.48438 614.0781 369.1875 614.2031Q368.90625 614.3125 368.70312 614.53125Q368.51562 614.7344 368.39062 615.03125Q368.28125 615.3281 368.25 615.6719L367.9375 615.84375Q367.9375 615.2656 368.04688 614.7656Q368.17188 614.2656 368.40625 613.875Q368.65625 613.4844 369.01562 613.2656Q369.39062 613.0469 369.90625 613.0469Q370.03125 613.0469 370.17188 613.0781Q370.32812 613.09375 370.39062 613.125ZM373.85938 618.71875Q374.25 618.71875 374.57812 618.5625Q374.90625 618.40625 375.10938 618.1406Q375.32812 617.8594 375.35938 617.5L376.39062 617.5Q376.35938 618.0625 376.0 618.5469Q375.65625 619.03125 375.09375 619.3281Q374.53125 619.625 373.85938 619.625Q373.15625 619.625 372.625 619.375Q372.09375 619.1094 371.73438 618.6719Q371.39062 618.2344 371.21875 617.6719Q371.04688 617.09375 371.04688 616.4531L371.04688 616.2031Q371.04688 615.5625 371.21875 615.0Q371.39062 614.4219 371.73438 613.9844Q372.09375 613.5469 372.625 613.2969Q373.15625 613.0469 373.85938 613.0469Q374.60938 613.0469 375.15625 613.34375Q375.71875 613.6406 376.03125 614.1719Q376.35938 614.6875 376.39062 615.34375L375.35938 615.34375Q375.32812 614.9531 375.14062 614.6406Q374.95312 614.3125 374.625 614.125Q374.29688 613.9375 373.85938 613.9375Q373.35938 613.9375 373.01562 614.1406Q372.6875 614.3281 372.48438 614.65625Q372.29688 614.9844 372.20312 615.3906Q372.125 615.7969 372.125 616.2031L372.125 616.4531Q372.125 616.875 372.20312 617.28125Q372.29688 617.6719 372.48438 618.0Q372.6875 618.3281 373.01562 618.53125Q373.35938 618.71875 373.85938 618.71875ZM379.95312 619.625Q379.29688 619.625 378.75 619.40625Q378.21875 619.1719 377.82812 618.7656Q377.45312 618.34375 377.25 617.78125Q377.04688 617.21875 377.04688 616.5469L377.04688 616.3125Q377.04688 615.53125 377.26562 614.9219Q377.5 614.3125 377.89062 613.8906Q378.28125 613.46875 378.78125 613.2656Q379.28125 613.0469 379.8125 613.0469Q380.5 613.0469 380.98438 613.28125Q381.48438 613.5156 381.79688 613.9375Q382.125 614.34375 382.26562 614.9219Q382.42188 615.4844 382.42188 616.1406L382.42188 616.6406L377.6875 616.6406L377.6875 615.75L381.34375 615.75L381.34375 615.6719Q381.3125 615.25 381.15625 614.8594Q381.01562 614.4531 380.6875 614.2031Q380.375 613.9375 379.8125 613.9375Q379.45312 613.9375 379.14062 614.09375Q378.82812 614.25 378.59375 614.5625Q378.375 614.8594 378.25 615.2969Q378.14062 615.7344 378.14062 616.3125L378.14062 616.5469Q378.14062 617.0 378.26562 617.40625Q378.39062 617.7969 378.625 618.09375Q378.875 618.3906 379.21875 618.5625Q379.57812 618.7344 380.01562 618.7344Q380.59375 618.7344 380.98438 618.5Q381.39062 618.2656 381.6875 617.875L382.34375 618.3906Q382.14062 618.7031 381.8125 618.9844Q381.5 619.2656 381.03125 619.4531Q380.57812 619.625 379.95312 619.625ZM384.40625 614.5156L384.40625 619.5L383.32812 619.5L383.32812 613.15625L384.35938 613.15625L384.40625 614.5156ZM384.15625 616.09375L383.70312 616.0781Q383.70312 615.4219 383.89062 614.875Q384.07812 614.3125 384.42188 613.90625Q384.76562 613.5 385.23438 613.28125Q385.70312 613.0469 386.28125 613.0469Q386.75 613.0469 387.125 613.1719Q387.5 613.2969 387.76562 613.5781Q388.03125 613.84375 388.17188 614.28125Q388.3125 614.71875 388.3125 615.34375L388.3125 619.5L387.21875 619.5L387.21875 615.3281Q387.21875 614.8281 387.07812 614.53125Q386.9375 614.2344 386.65625 614.09375Q386.375 613.9531 385.95312 613.9531Q385.54688 613.9531 385.21875 614.125Q384.89062 614.2969 384.65625 614.59375Q384.42188 614.8906 384.28125 615.28125Q384.15625 615.65625 384.15625 616.09375Z" fill-rule="nonzero"/><path stroke="#000000" stroke-width="1.0" stroke-linecap="butt" d="M365.0 350.0L157.0 470.0" fill-rule="nonzero"/><path fill="#000000" d="M110.296875 486.5L108.515625 486.5L108.53125 485.57812L110.296875 485.57812Q111.21875 485.57812 111.828125 485.20312Q112.4375 484.8125 112.734375 484.125Q113.046875 483.42188 113.046875 482.48438L113.046875 481.96875Q113.046875 481.23438 112.875 480.67188Q112.703125 480.09375 112.359375 479.70312Q112.015625 479.29688 111.515625 479.09375Q111.03125 478.89062 110.40625 478.89062L108.484375 478.89062L108.484375 477.96875L110.40625 477.96875Q111.25 477.96875 111.9375 478.25Q112.625 478.53125 113.125 479.0625Q113.625 479.57812 113.890625 480.32812Q114.171875 481.0625 114.171875 481.98438L114.171875 482.48438Q114.171875 483.42188 113.890625 484.17188Q113.625 484.90625 113.109375 485.42188Q112.609375 485.9375 111.890625 486.21875Q111.1875 486.5 110.296875 486.5ZM109.125 477.96875L109.125 486.5L107.984375 486.5L107.984375 477.96875L109.125 477.96875ZM118.078125 482.42188L118.078125 483.3125L115.21875 483.3125L115.21875 482.42188L118.078125 482.42188ZM124.171875 485.57812L124.171875 486.5L119.90625 486.5L119.90625 485.57812L124.171875 485.57812ZM120.125 477.96875L120.125 486.5L118.984375 486.5L118.984375 477.96875L120.125 477.96875ZM126.0 480.15625L126.0 486.5L124.921875 486.5L124.921875 480.15625L126.0 480.15625ZM124.828125 478.48438Q124.828125 478.21875 124.984375 478.03125Q125.15625 477.84375 125.46875 477.84375Q125.78125 477.84375 125.9375 478.03125Q126.109375 478.21875 126.109375 478.48438Q126.109375 478.73438 125.9375 478.92188Q125.78125 479.09375 125.46875 479.09375Q125.15625 479.09375 124.984375 478.92188Q124.828125 478.73438 124.828125 478.48438ZM128.90625 481.42188L128.90625 486.5L127.8125 486.5L127.8125 480.15625L128.84375 480.15625L128.90625 481.42188ZM128.6875 483.09375L128.17188 483.07812Q128.1875 482.42188 128.34375 481.875Q128.51562 481.3125 128.82812 480.90625Q129.15625 480.5 129.64062 480.28125Q130.125 480.04688 130.75 480.04688Q131.20312 480.04688 131.57812 480.17188Q131.95312 480.29688 132.21875 480.5625Q132.5 480.82812 132.64062 481.25Q132.79688 481.67188 132.79688 482.28125L132.79688 486.5L131.71875 486.5L131.71875 482.32812Q131.71875 481.82812 131.54688 481.53125Q131.39062 481.23438 131.07812 481.09375Q130.78125 480.95312 130.35938 480.95312Q129.89062 480.95312 129.5625 481.125Q129.23438 481.29688 129.04688 481.59375Q128.85938 481.89062 128.76562 482.28125Q128.6875 482.65625 128.6875 483.09375ZM132.79688 482.48438L132.0625 482.71875Q132.0625 482.1875 132.23438 481.71875Q132.40625 481.23438 132.71875 480.85938Q133.04688 480.48438 133.51562 480.26562Q133.98438 480.04688 134.57812 480.04688Q135.09375 480.04688 135.48438 480.1875Q135.89062 480.3125 136.15625 480.59375Q136.42188 480.875 136.5625 481.3125Q136.70312 481.73438 136.70312 482.32812L136.70312 486.5L135.625 486.5L135.625 482.32812Q135.625 481.78125 135.45312 481.5Q135.28125 481.20312 134.98438 481.07812Q134.6875 480.95312 134.26562 480.95312Q133.90625 480.95312 133.625 481.07812Q133.35938 481.20312 133.17188 481.42188Q132.98438 481.625 132.89062 481.90625Q132.79688 482.1875 132.79688 482.48438ZM138.54688 483.40625L138.54688 483.26562Q138.54688 482.57812 138.73438 482.0Q138.9375 481.40625 139.3125 480.96875Q139.6875 480.53125 140.21875 480.29688Q140.75 480.04688 141.42188 480.04688Q142.07812 480.04688 142.60938 480.29688Q143.15625 480.53125 143.53125 480.96875Q143.90625 481.40625 144.10938 482.0Q144.3125 482.57812 144.3125 483.26562L144.3125 483.40625Q144.3125 484.07812 144.10938 484.67188Q143.90625 485.25 143.53125 485.6875Q143.15625 486.125 142.625 486.375Q142.09375 486.625 141.42188 486.625Q140.76562 486.625 140.21875 486.375Q139.6875 486.125 139.3125 485.6875Q138.9375 485.25 138.73438 484.67188Q138.54688 484.07812 138.54688 483.40625ZM139.625 483.26562L139.625 483.40625Q139.625 483.875 139.73438 484.29688Q139.84375 484.71875 140.0625 485.04688Q140.29688 485.35938 140.64062 485.54688Q140.98438 485.71875 141.42188 485.71875Q141.875 485.71875 142.20312 485.54688Q142.54688 485.35938 142.76562 485.04688Q143.0 484.71875 143.10938 484.29688Q143.21875 483.875 143.21875 483.40625L143.21875 483.26562Q143.21875 482.79688 143.10938 482.375Q143.0 481.95312 142.76562 481.64062Q142.54688 481.3125 142.20312 481.125Q141.875 480.9375 141.42188 480.9375Q140.96875 480.9375 140.625 481.125Q140.29688 481.3125 140.0625 481.64062Q139.84375 481.95312 139.73438 482.375Q139.625 482.79688 139.625 483.26562ZM146.90625 481.51562L146.90625 486.5L145.82812 486.5L145.82812 480.15625L146.85938 480.15625L146.90625 481.51562ZM146.65625 483.09375L146.20312 483.07812Q146.20312 482.42188 146.39062 481.875Q146.57812 481.3125 146.92188 480.90625Q147.26562 480.5 147.73438 480.28125Q148.20312 480.04688 148.78125 480.04688Q149.25 480.04688 149.625 480.17188Q150.0 480.29688 150.26562 480.57812Q150.53125 480.84375 150.67188 481.28125Q150.8125 481.71875 150.8125 482.34375L150.8125 486.5L149.71875 486.5L149.71875 482.32812Q149.71875 481.82812 149.57812 481.53125Q149.4375 481.23438 149.15625 481.09375Q148.875 480.95312 148.45312 480.95312Q148.04688 480.95312 147.71875 481.125Q147.39062 481.29688 147.15625 481.59375Q146.92188 481.89062 146.78125 482.28125Q146.65625 482.65625 146.65625 483.09375ZM155.45312 486.625Q154.79688 486.625 154.25 486.40625Q153.71875 486.17188 153.32812 485.76562Q152.95312 485.34375 152.75 484.78125Q152.54688 484.21875 152.54688 483.54688L152.54688 483.3125Q152.54688 482.53125 152.76562 481.92188Q153.0 481.3125 153.39062 480.89062Q153.78125 480.46875 154.28125 480.26562Q154.78125 480.04688 155.3125 480.04688Q156.0 480.04688 156.48438 480.28125Q156.98438 480.51562 157.29688 480.9375Q157.625 481.34375 157.76562 481.92188Q157.92188 482.48438 157.92188 483.14062L157.92188 483.64062L153.1875 483.64062L153.1875 482.75L156.84375 482.75L156.84375 482.67188Q156.8125 482.25 156.65625 481.85938Q156.51562 481.45312 156.1875 481.20312Q155.875 480.9375 155.3125 480.9375Q154.95312 480.9375 154.64062 481.09375Q154.32812 481.25 154.09375 481.5625Q153.875 481.85938 153.75 482.29688Q153.64062 482.73438 153.64062 483.3125L153.64062 483.54688Q153.64062 484.0 153.76562 484.40625Q153.89062 484.79688 154.125 485.09375Q154.375 485.39062 154.71875 485.5625Q155.07812 485.73438 155.51562 485.73438Q156.09375 485.73438 156.48438 485.5Q156.89062 485.26562 157.1875 484.875L157.84375 485.39062Q157.64062 485.70312 157.3125 485.98438Q157.0 486.26562 156.53125 486.45312Q156.07812 486.625 155.45312 486.625ZM159.90625 481.51562L159.90625 486.5L158.82812 486.5L158.82812 480.15625L159.85938 480.15625L159.90625 481.51562ZM159.65625 483.09375L159.20312 483.07812Q159.20312 482.42188 159.39062 481.875Q159.57812 481.3125 159.92188 480.90625Q160.26562 480.5 160.73438 480.28125Q161.20312 480.04688 161.78125 480.04688Q162.25 480.04688 162.625 480.17188Q163.0 480.29688 163.26562 480.57812Q163.53125 480.84375 163.67188 481.28125Q163.8125 481.71875 163.8125 482.34375L163.8125 486.5L162.71875 486.5L162.71875 482.32812Q162.71875 481.82812 162.57812 481.53125Q162.4375 481.23438 162.15625 481.09375Q161.875 480.95312 161.45312 480.95312Q161.04688 480.95312 160.71875 481.125Q160.39062 481.29688 160.15625 481.59375Q159.92188 481.89062 159.78125 482.28125Q159.65625 482.65625 159.65625 483.09375Z" fill-rule="nonzero"/><path stroke="#000000" stroke-width="1.0" stroke-linecap="butt" d="M365.0 350.0L157.0 230.0" fill-rule="nonzero"/><path fill="#000000" d="M118.03125 220.34375Q118.03125 220.04688 117.9375 219.8125Q117.859375 219.57812 117.625 219.39062Q117.40625 219.20312 117.0 219.03125Q116.609375 218.85938 116.015625 218.6875Q115.375 218.5 114.859375 218.28125Q114.359375 218.04688 113.984375 217.75Q113.625 217.4375 113.4375 217.0625Q113.25 216.67188 113.25 216.17188Q113.25 215.67188 113.453125 215.25Q113.65625 214.82812 114.03125 214.51562Q114.421875 214.20312 114.953125 214.03125Q115.484375 213.84375 116.140625 213.84375Q117.109375 213.84375 117.78125 214.21875Q118.453125 214.57812 118.796875 215.17188Q119.15625 215.76562 119.15625 216.42188L118.03125 216.42188Q118.03125 215.95312 117.8125 215.57812Q117.609375 215.20312 117.1875 215.0Q116.78125 214.78125 116.140625 214.78125Q115.546875 214.78125 115.140625 214.96875Q114.75 215.14062 114.5625 215.45312Q114.375 215.76562 114.375 216.15625Q114.375 216.42188 114.484375 216.65625Q114.609375 216.875 114.84375 217.0625Q115.09375 217.25 115.46875 217.40625Q115.84375 217.5625 116.375 217.70312Q117.09375 217.90625 117.625 218.17188Q118.15625 218.42188 118.5 218.73438Q118.84375 219.04688 119.0 219.4375Q119.171875 219.82812 119.171875 220.32812Q119.171875 220.85938 118.953125 221.28125Q118.75 221.70312 118.359375 222.0Q117.96875 222.29688 117.421875 222.46875Q116.875 222.625 116.203125 222.625Q115.609375 222.625 115.03125 222.45312Q114.46875 222.28125 114.0 221.95312Q113.53125 221.625 113.25 221.15625Q112.96875 220.67188 112.96875 220.03125L114.09375 220.03125Q114.09375 220.46875 114.265625 220.78125Q114.4375 221.09375 114.734375 221.29688Q115.03125 221.5 115.40625 221.60938Q115.78125 221.70312 116.203125 221.70312Q116.796875 221.70312 117.203125 221.54688Q117.609375 221.375 117.8125 221.07812Q118.03125 220.76562 118.03125 220.34375ZM120.046875 219.40625L120.046875 219.26562Q120.046875 218.57812 120.234375 218.0Q120.4375 217.40625 120.8125 216.96875Q121.1875 216.53125 121.71875 216.29688Q122.25 216.04688 122.921875 216.04688Q123.578125 216.04688 124.109375 216.29688Q124.65625 216.53125 125.03125 216.96875Q125.40625 217.40625 125.609375 218.0Q125.8125 218.57812 125.8125 219.26562L125.8125 219.40625Q125.8125 220.07812 125.609375 220.67188Q125.40625 221.25 125.03125 221.6875Q124.65625 222.125 124.125 222.375Q123.59375 222.625 122.921875 222.625Q122.265625 222.625 121.71875 222.375Q121.1875 222.125 120.8125 221.6875Q120.4375 221.25 120.234375 220.67188Q120.046875 220.07812 120.046875 219.40625ZM121.125 219.26562L121.125 219.40625Q121.125 219.875 121.234375 220.29688Q121.34375 220.71875 121.5625 221.04688Q121.796875 221.35938 122.140625 221.54688Q122.484375 221.71875 122.921875 221.71875Q123.375 221.71875 123.703125 221.54688Q124.046875 221.35938 124.265625 221.04688Q124.5 220.71875 124.609375 220.29688Q124.71875 219.875 124.71875 219.40625L124.71875 219.26562Q124.71875 218.79688 124.609375 218.375Q124.5 217.95312 124.265625 217.64062Q124.046875 217.3125 123.703125 217.125Q123.375 216.9375 122.921875 216.9375Q122.46875 216.9375 122.125 217.125Q121.796875 217.3125 121.5625 217.64062Q121.34375 217.95312 121.234375 218.375Q121.125 218.79688 121.125 219.26562ZM128.40625 217.51562L128.40625 222.5L127.328125 222.5L127.328125 216.15625L128.35938 216.15625L128.40625 217.51562ZM128.15625 219.09375L127.703125 219.07812Q127.703125 218.42188 127.890625 217.875Q128.07812 217.3125 128.42188 216.90625Q128.76562 216.5 129.23438 216.28125Q129.70312 216.04688 130.28125 216.04688Q130.75 216.04688 131.125 216.17188Q131.5 216.29688 131.76562 216.57812Q132.03125 216.84375 132.17188 217.28125Q132.3125 217.71875 132.3125 218.34375L132.3125 222.5L131.21875 222.5L131.21875 218.32812Q131.21875 217.82812 131.07812 217.53125Q130.9375 217.23438 130.65625 217.09375Q130.375 216.95312 129.95312 216.95312Q129.54688 216.95312 129.21875 217.125Q128.89062 217.29688 128.65625 217.59375Q128.42188 217.89062 128.28125 218.28125Q128.15625 218.65625 128.15625 219.09375ZM138.01562 220.8125Q138.01562 220.57812 137.90625 220.375Q137.8125 220.17188 137.5 220.01562Q137.1875 219.84375 136.5625 219.71875Q136.03125 219.60938 135.60938 219.46875Q135.1875 219.3125 134.89062 219.09375Q134.59375 218.875 134.4375 218.57812Q134.28125 218.28125 134.28125 217.89062Q134.28125 217.51562 134.4375 217.1875Q134.60938 216.84375 134.90625 216.59375Q135.21875 216.32812 135.65625 216.1875Q136.09375 216.04688 136.625 216.04688Q137.39062 216.04688 137.92188 216.3125Q138.46875 216.57812 138.75 217.03125Q139.03125 217.48438 139.03125 218.01562L137.95312 218.01562Q137.95312 217.76562 137.79688 217.51562Q137.64062 217.26562 137.34375 217.10938Q137.04688 216.9375 136.625 216.9375Q136.17188 216.9375 135.89062 217.07812Q135.60938 217.20312 135.48438 217.42188Q135.35938 217.625 135.35938 217.85938Q135.35938 218.04688 135.42188 218.1875Q135.48438 218.3125 135.64062 218.4375Q135.79688 218.54688 136.07812 218.65625Q136.375 218.75 136.82812 218.84375Q137.60938 219.01562 138.10938 219.26562Q138.60938 219.51562 138.85938 219.875Q139.10938 220.21875 139.10938 220.73438Q139.10938 221.15625 138.92188 221.5Q138.75 221.84375 138.42188 222.09375Q138.10938 222.34375 137.65625 222.48438Q137.20312 222.625 136.65625 222.625Q135.8125 222.625 135.23438 222.32812Q134.65625 222.01562 134.35938 221.54688Q134.0625 221.0625 134.0625 220.54688L135.14062 220.54688Q135.17188 220.98438 135.40625 221.25Q135.64062 221.51562 135.96875 221.625Q136.3125 221.71875 136.65625 221.71875Q137.09375 221.71875 137.39062 221.60938Q137.70312 221.48438 137.85938 221.28125Q138.01562 221.07812 138.01562 220.8125ZM142.98438 216.15625L142.98438 216.98438L139.54688 216.98438L139.54688 216.15625L142.98438 216.15625ZM140.71875 214.625L141.79688 214.625L141.79688 220.92188Q141.79688 221.25 141.89062 221.42188Q142.0 221.57812 142.15625 221.64062Q142.3125 221.6875 142.5 221.6875Q142.625 221.6875 142.76562 221.65625Q142.92188 221.625 143.0 221.60938L143.01562 222.5Q142.875 222.54688 142.67188 222.57812Q142.46875 222.625 142.17188 222.625Q141.78125 222.625 141.4375 222.46875Q141.10938 222.29688 140.90625 221.9375Q140.71875 221.5625 140.71875 220.92188L140.71875 214.625ZM145.5 216.15625L145.5 222.5L144.42188 222.5L144.42188 216.15625L145.5 216.15625ZM144.32812 214.48438Q144.32812 214.21875 144.48438 214.03125Q144.65625 213.84375 144.96875 213.84375Q145.28125 213.84375 145.4375 214.03125Q145.60938 214.21875 145.60938 214.48438Q145.60938 214.73438 145.4375 214.92188Q145.28125 215.09375 144.96875 215.09375Q144.65625 215.09375 144.48438 214.92188Q144.32812 214.73438 144.32812 214.48438ZM151.4375 216.15625L152.42188 216.15625L152.42188 222.35938Q152.42188 223.20312 152.07812 223.79688Q151.73438 224.39062 151.125 224.6875Q150.53125 225.0 149.73438 225.0Q149.40625 225.0 148.95312 224.89062Q148.51562 224.79688 148.09375 224.54688Q147.67188 224.3125 147.39062 223.90625L147.95312 223.25Q148.35938 223.73438 148.78125 223.92188Q149.21875 224.10938 149.65625 224.10938Q150.17188 224.10938 150.54688 223.90625Q150.92188 223.71875 151.125 223.34375Q151.32812 222.96875 151.32812 222.42188L151.32812 217.54688L151.4375 216.15625ZM147.0625 219.40625L147.0625 219.28125Q147.0625 218.54688 147.23438 217.95312Q147.42188 217.35938 147.73438 216.9375Q148.0625 216.5 148.51562 216.28125Q148.98438 216.04688 149.57812 216.04688Q150.17188 216.04688 150.60938 216.25Q151.0625 216.45312 151.375 216.85938Q151.6875 217.25 151.875 217.8125Q152.0625 218.35938 152.125 219.0625L152.125 219.60938Q152.0625 220.29688 151.875 220.85938Q151.6875 221.42188 151.375 221.8125Q151.0625 222.20312 150.60938 222.42188Q150.15625 222.625 149.5625 222.625Q148.98438 222.625 148.53125 222.39062Q148.07812 222.14062 147.75 221.70312Q147.42188 221.26562 147.23438 220.6875Q147.0625 220.09375 147.0625 219.40625ZM148.15625 219.28125L148.15625 219.40625Q148.15625 219.875 148.25 220.29688Q148.34375 220.70312 148.54688 221.03125Q148.75 221.34375 149.0625 221.53125Q149.39062 221.70312 149.82812 221.70312Q150.35938 221.70312 150.70312 221.46875Q151.0625 221.23438 151.26562 220.85938Q151.48438 220.48438 151.59375 220.04688L151.59375 218.64062Q151.53125 218.3125 151.39062 218.01562Q151.26562 217.71875 151.0625 217.48438Q150.85938 217.23438 150.54688 217.09375Q150.25 216.95312 149.82812 216.95312Q149.39062 216.95312 149.0625 217.14062Q148.75 217.32812 148.54688 217.65625Q148.34375 217.96875 148.25 218.39062Q148.15625 218.79688 148.15625 219.28125ZM156.95312 222.625Q156.29688 222.625 155.75 222.40625Q155.21875 222.17188 154.82812 221.76562Q154.45312 221.34375 154.25 220.78125Q154.04688 220.21875 154.04688 219.54688L154.04688 219.3125Q154.04688 218.53125 154.26562 217.92188Q154.5 217.3125 154.89062 216.89062Q155.28125 216.46875 155.78125 216.26562Q156.28125 216.04688 156.8125 216.04688Q157.5 216.04688 157.98438 216.28125Q158.48438 216.51562 158.79688 216.9375Q159.125 217.34375 159.26562 217.92188Q159.42188 218.48438 159.42188 219.14062L159.42188 219.64062L154.6875 219.64062L154.6875 218.75L158.34375 218.75L158.34375 218.67188Q158.3125 218.25 158.15625 217.85938Q158.01562 217.45312 157.6875 217.20312Q157.375 216.9375 156.8125 216.9375Q156.45312 216.9375 156.14062 217.09375Q155.82812 217.25 155.59375 217.5625Q155.375 217.85938 155.25 218.29688Q155.14062 218.73438 155.14062 219.3125L155.14062 219.54688Q155.14062 220.0 155.26562 220.40625Q155.39062 220.79688 155.625 221.09375Q155.875 221.39062 156.21875 221.5625Q156.57812 221.73438 157.01562 221.73438Q157.59375 221.73438 157.98438 221.5Q158.39062 221.26562 158.6875 220.875L159.34375 221.39062Q159.14062 221.70312 158.8125 221.98438Q158.5 222.26562 158.03125 222.45312Q157.57812 222.625 156.95312 222.625Z" fill-rule="nonzero"/><path stroke="#000000" stroke-width="1.0" stroke-linecap="butt" d="M365.0 350.0L365.0 110.0" fill-rule="nonzero"/><path stroke="#ff0000" stroke-width="2.0" stroke-linecap="butt" stroke-opacity="0.7019608" stroke-dasharray="8.0,6.0,2.0,6.0" d="M365.0 288.0L411.0 324.0L411.0 376.0L365.0 393.0L328.0 372.0L170.0 237.0Z" fill-rule="nonzero"/><path fill="#ff0000" fill-opacity="0.7019608" d="M369.5 288.0C369.5 290.4853 367.4853 292.5 365.0 292.5C362.5147 292.5 360.5 290.4853 360.5 288.0C360.5 285.5147 362.5147 283.5 365.0 283.5C367.4853 283.5 369.5 285.5147 369.5 288.0Z" fill-rule="nonzero"/><path fill="#ff0000" fill-opacity="0.7019608" d="M415.5 324.0C415.5 326.4853 413.4853 328.5 411.0 328.5C408.5147 328.5 406.5 326.4853 406.5 324.0C406.5 321.5147 408.5147 319.5 411.0 319.5C413.4853 319.5 415.5 321.5147 415.5 324.0Z" fill-rule="nonzero"/><path fill="#ff0000" fill-opacity="0.7019608" d="M415.5 376.0C415.5 378.4853 413.4853 380.5 411.0 380.5C408.5147 380.5 406.5 378.4853 406.5 376.0C406.5 373.5147 408.5147 371.5 411.0 371.5C413.4853 371.5 415.5 373.5147 415.5 376.0Z" fill-rule="nonzero"/><path fill="#ff0000" fill-opacity="0.7019608" d="M369.5 393.0C369.5 395.4853 367.4853 397.5 365.0 397.5C362.5147 397.5 360.5 395.4853 360.5 393.0C360.5 390.5147 362.5147 388.5 365.0 388.5C367.4853 388.5 369.5 390.5147 369.5 393.0Z" fill-rule="nonzero"/><path fill="#ff0000" fill-opacity="0.7019608" d="M332.5 372.0C332.5 374.4853 330.4853 376.5 328.0 376.5C325.5147 376.5 323.5 374.4853 323.5 372.0C323.5 369.5147 325.5147 367.5 328.0 367.5C330.4853 367.5 332.5 369.5147 332.5 372.0Z" fill-rule="nonzero"/><path fill="#ff0000" fill-opacity="0.7019608" d="M174.5 237.0C174.5 239.48528 172.48528 241.5 170.0 241.5C167.51472 241.5 165.5 239.48528 165.5 237.0C165.5 234.51472 167.51472 232.5 170.0 232.5C172.48528 232.5 174.5 234.51472 174.5 237.0Z" fill-rule="nonzero"/><path fill="#757575" d="M34.21875 51.75L34.21875 37.4375L39.59375 37.4375Q41.234375 37.4375 42.21875 37.875Q43.203125 38.296875 43.765625 39.203125Q44.328125 40.109375 44.328125 41.09375Q44.328125 42.015625 43.828125 42.828125Q43.34375 43.640625 42.328125 44.125Q43.625 44.515625 44.328125 45.4375Q45.03125 46.34375 45.03125 47.59375Q45.03125 48.609375 44.59375 49.46875Q44.171875 50.328125 43.546875 50.796875Q42.921875 51.265625 41.984375 51.515625Q41.046875 51.75 39.671875 51.75L34.21875 51.75ZM36.109375 43.453125L39.203125 43.453125Q40.46875 43.453125 41.015625 43.28125Q41.734375 43.0625 42.09375 42.578125Q42.46875 42.078125 42.46875 41.3125Q42.46875 40.609375 42.125 40.0625Q41.78125 39.515625 41.140625 39.328125Q40.515625 39.125 38.96875 39.125L36.109375 39.125L36.109375 43.453125ZM36.109375 50.0625L39.671875 50.0625Q40.59375 50.0625 40.96875 49.984375Q41.625 49.875 42.0625 49.609375Q42.5 49.328125 42.78125 48.8125Q43.0625 48.28125 43.0625 47.59375Q43.0625 46.796875 42.65625 46.203125Q42.25 45.609375 41.515625 45.375Q40.78125 45.140625 39.421875 45.140625L36.109375 45.140625L36.109375 50.0625ZM47.03125 51.75L47.03125 37.4375L48.78125 37.4375L48.78125 51.75L47.03125 51.75ZM57.84375 50.46875Q56.859375 51.296875 55.953125 51.640625Q55.046875 51.984375 54.015625 51.984375Q52.3125 51.984375 51.390625 51.15625Q50.46875 50.3125 50.46875 49.015625Q50.46875 48.25 50.8125 47.625Q51.171875 47.0 51.734375 46.625Q52.296875 46.234375 53.0 46.03125Q53.515625 45.90625 54.5625 45.765625Q56.6875 45.515625 57.6875 45.171875Q57.703125 44.8125 57.703125 44.703125Q57.703125 43.640625 57.203125 43.1875Q56.53125 42.59375 55.203125 42.59375Q53.953125 42.59375 53.359375 43.03125Q52.78125 43.46875 52.5 44.578125L50.78125 44.34375Q51.015625 43.234375 51.546875 42.5625Q52.078125 41.875 53.09375 41.515625Q54.109375 41.140625 55.453125 41.140625Q56.78125 41.140625 57.609375 41.453125Q58.4375 41.765625 58.828125 42.25Q59.21875 42.71875 59.375 43.4375Q59.46875 43.890625 59.46875 45.0625L59.46875 47.40625Q59.46875 49.859375 59.578125 50.515625Q59.6875 51.15625 60.03125 51.75L58.1875 51.75Q57.921875 51.203125 57.84375 50.46875ZM57.6875 46.546875Q56.734375 46.9375 54.8125 47.203125Q53.734375 47.359375 53.28125 47.5625Q52.84375 47.75 52.59375 48.125Q52.34375 48.5 52.34375 48.96875Q52.34375 49.671875 52.875 50.140625Q53.40625 50.609375 54.4375 50.609375Q55.453125 50.609375 56.234375 50.171875Q57.03125 49.71875 57.40625 48.953125Q57.6875 48.34375 57.6875 47.1875L57.6875 46.546875ZM68.84375 47.953125L70.5625 48.171875Q70.28125 49.96875 69.109375 50.984375Q67.953125 51.984375 66.25 51.984375Q64.125 51.984375 62.828125 50.59375Q61.53125 49.203125 61.53125 46.609375Q61.53125 44.921875 62.078125 43.671875Q62.640625 42.40625 63.78125 41.78125Q64.921875 41.140625 66.265625 41.140625Q67.953125 41.140625 69.015625 42.0Q70.09375 42.859375 70.40625 44.421875L68.6875 44.6875Q68.453125 43.640625 67.828125 43.125Q67.203125 42.59375 66.328125 42.59375Q65.0 42.59375 64.171875 43.546875Q63.34375 44.5 63.34375 46.546875Q63.34375 48.640625 64.140625 49.59375Q64.9375 50.53125 66.234375 50.53125Q67.265625 50.53125 67.953125 49.90625Q68.65625 49.265625 68.84375 47.953125ZM72.078125 51.75L72.078125 37.4375L73.84375 37.4375L73.84375 45.59375L78.0 41.375L80.265625 41.375L76.3125 45.21875L80.671875 51.75L78.5 51.75L75.078125 46.453125L73.84375 47.640625L73.84375 51.75L72.078125 51.75ZM91.9375 51.75L91.9375 39.125L87.21875 39.125L87.21875 37.4375L98.5625 37.4375L98.5625 39.125L93.828125 39.125L93.828125 51.75L91.9375 51.75ZM100.046875 51.75L100.046875 41.375L101.625 41.375L101.625 42.953125Q102.234375 41.84375 102.75 41.5Q103.265625 41.140625 103.875 41.140625Q104.765625 41.140625 105.6875 41.703125L105.078125 43.34375Q104.4375 42.953125 103.796875 42.953125Q103.21875 42.953125 102.75 43.3125Q102.296875 43.65625 102.09375 44.265625Q101.8125 45.203125 101.8125 46.3125L101.8125 51.75L100.046875 51.75ZM107.078125 39.453125L107.078125 37.4375L108.84375 37.4375L108.84375 39.453125L107.078125 39.453125ZM107.078125 51.75L107.078125 41.375L108.84375 41.375L108.84375 51.75L107.078125 51.75ZM117.84375 50.46875Q116.859375 51.296875 115.953125 51.640625Q115.046875 51.984375 114.015625 51.984375Q112.3125 51.984375 111.390625 51.15625Q110.46875 50.3125 110.46875 49.015625Q110.46875 48.25 110.8125 47.625Q111.171875 47.0 111.734375 46.625Q112.296875 46.234375 113.0 46.03125Q113.515625 45.90625 114.5625 45.765625Q116.6875 45.515625 117.6875 45.171875Q117.703125 44.8125 117.703125 44.703125Q117.703125 43.640625 117.203125 43.1875Q116.53125 42.59375 115.203125 42.59375Q113.953125 42.59375 113.359375 43.03125Q112.78125 43.46875 112.5 44.578125L110.78125 44.34375Q111.015625 43.234375 111.546875 42.5625Q112.078125 41.875 113.09375 41.515625Q114.109375 41.140625 115.453125 41.140625Q116.78125 41.140625 117.609375 41.453125Q118.4375 41.765625 118.828125 42.25Q119.21875 42.71875 119.375 43.4375Q119.46875 43.890625 119.46875 45.0625L119.46875 47.40625Q119.46875 49.859375 119.578125 50.515625Q119.6875 51.15625 120.03125 51.75L118.1875 51.75Q117.921875 51.203125 117.84375 50.46875ZM117.6875 46.546875Q116.734375 46.9375 114.8125 47.203125Q113.734375 47.359375 113.28125 47.5625Q112.84375 47.75 112.59375 48.125Q112.34375 48.5 112.34375 48.96875Q112.34375 49.671875 112.875 50.140625Q113.40625 50.609375 114.4375 50.609375Q115.453125 50.609375 116.234375 50.171875Q117.03125 49.71875 117.40625 48.953125Q117.6875 48.34375 117.6875 47.1875L117.6875 46.546875ZM122.0625 51.75L122.0625 41.375L123.65625 41.375L123.65625 42.859375Q124.796875 41.140625 126.953125 41.140625Q127.890625 41.140625 128.67188 41.484375Q129.46875 41.8125 129.85938 42.359375Q130.25 42.90625 130.40625 43.65625Q130.5 44.15625 130.5 45.375L130.5 51.75L128.73438 51.75L128.73438 45.4375Q128.73438 44.359375 128.53125 43.828125Q128.32812 43.296875 127.796875 42.984375Q127.28125 42.671875 126.578125 42.671875Q125.453125 42.671875 124.640625 43.390625Q123.828125 44.09375 123.828125 46.078125L123.828125 51.75L122.0625 51.75ZM131.75 52.609375L133.45312 52.859375Q133.5625 53.65625 134.04688 54.015625Q134.70312 54.5 135.84375 54.5Q137.0625 54.5 137.71875 54.015625Q138.39062 53.53125 138.625 52.65625Q138.76562 52.109375 138.75 50.390625Q137.59375 51.75 135.875 51.75Q133.73438 51.75 132.5625 50.203125Q131.39062 48.65625 131.39062 46.5Q131.39062 45.015625 131.92188 43.765625Q132.46875 42.515625 133.48438 41.828125Q134.51562 41.140625 135.89062 41.140625Q137.71875 41.140625 138.92188 42.625L138.92188 41.375L140.53125 41.375L140.53125 50.34375Q140.53125 52.765625 140.03125 53.765625Q139.54688 54.78125 138.46875 55.359375Q137.40625 55.953125 135.84375 55.953125Q134.0 55.953125 132.84375 55.125Q131.70312 54.296875 131.75 52.609375ZM133.20312 46.375Q133.20312 48.421875 134.01562 49.359375Q134.82812 50.296875 136.04688 50.296875Q137.25 50.296875 138.0625 49.359375Q138.89062 48.421875 138.89062 46.4375Q138.89062 44.53125 138.04688 43.5625Q137.20312 42.59375 136.01562 42.59375Q134.84375 42.59375 134.01562 43.546875Q133.20312 44.5 133.20312 46.375ZM143.03125 51.75L143.03125 37.4375L144.78125 37.4375L144.78125 51.75L143.03125 51.75ZM154.17188 48.40625L155.98438 48.640625Q155.5625 50.21875 154.39062 51.109375Q153.23438 51.984375 151.42188 51.984375Q149.15625 51.984375 147.8125 50.59375Q146.48438 49.1875 146.48438 46.65625Q146.48438 44.03125 147.82812 42.59375Q149.17188 41.140625 151.32812 41.140625Q153.40625 41.140625 154.71875 42.5625Q156.04688 43.96875 156.04688 46.546875Q156.04688 46.703125 156.03125 47.015625L148.29688 47.015625Q148.39062 48.71875 149.26562 49.625Q150.14062 50.53125 151.4375 50.53125Q152.40625 50.53125 153.07812 50.03125Q153.76562 49.515625 154.17188 48.40625ZM148.39062 45.5625L154.1875 45.5625Q154.07812 44.265625 153.53125 43.609375Q152.6875 42.59375 151.34375 42.59375Q150.14062 42.59375 149.3125 43.40625Q148.48438 44.203125 148.39062 45.5625Z" fill-rule="nonzero"/></svg>