<svg version="1.1" viewBox="0.0 0.0 730.0 538.0" fill="none" stroke="none" stroke-linecap="square" stroke-miterlimit="10" width="730" height="538" xmlns:xlink="http://www.w3.org/1999/xlink" xmlns="http://www.w3.org/2000/svg"><path fill="#ffffff" d="M0 0L730.0 0L730.0 538.0L0 538.0L0 0Z" fill-rule="nonzero"/><path fill="#ffffff" d="M26.9 68.833336L703.10004 68.833336L703.10004 511.1L26.9 511.1L26.9 68.833336Z" fill-rule="nonzero"/><path stroke="#000000" stroke-width="1.0" stroke-linecap="butt" d="M365.0 290.0C365.0 290.0 365.0 290.0 365.0 290.0C365.0 290.0 365.0 290.0 365.0 290.0C365.0 290.0 365.0 290.0 365.0 290.0C365.0 290.0 365.0 290.0 365.0 290.0" fill-rule="nonzero"/><path fill="#000000" d="M353.0625 282.04688L353.0625 283.35938Q353.0625 284.40625 352.875 285.125Q352.6875 285.84375 352.32812 286.28125Q351.98438 286.71875 351.48438 286.92188Q351.0 287.125 350.375 287.125Q349.89062 287.125 349.46875 287.0Q349.04688 286.875 348.71875 286.60938Q348.39062 286.32812 348.15625 285.89062Q347.92188 285.45312 347.79688 284.82812Q347.67188 284.1875 347.67188 283.35938L347.67188 282.04688Q347.67188 281.0 347.85938 280.29688Q348.0625 279.59375 348.40625 279.15625Q348.76562 278.71875 349.25 278.53125Q349.75 278.34375 350.35938 278.34375Q350.85938 278.34375 351.28125 278.46875Q351.70312 278.59375 352.03125 278.85938Q352.35938 279.10938 352.57812 279.54688Q352.8125 279.96875 352.9375 280.59375Q353.0625 281.21875 353.0625 282.04688ZM351.96875 283.53125L351.96875 281.875Q351.96875 281.29688 351.90625 280.85938Q351.84375 280.42188 351.70312 280.10938Q351.57812 279.79688 351.375 279.60938Q351.1875 279.42188 350.9375 279.32812Q350.6875 279.23438 350.35938 279.23438Q349.98438 279.23438 349.67188 279.375Q349.375 279.51562 349.17188 279.82812Q348.96875 280.14062 348.85938 280.65625Q348.76562 281.15625 348.76562 281.875L348.76562 283.53125Q348.76562 284.10938 348.82812 284.54688Q348.90625 284.98438 349.03125 285.3125Q349.17188 285.625 349.35938 285.82812Q349.5625 286.03125 349.8125 286.125Q350.0625 286.21875 350.375 286.21875Q350.78125 286.21875 351.07812 286.07812Q351.375 285.92188 351.57812 285.59375Q351.78125 285.26562 351.875 284.76562Q351.96875 284.25 351.96875 283.53125ZM355.8125 285.70312L355.8125 286.57812Q355.8125 287.125 355.53125 287.71875Q355.26562 288.3125 354.78125 288.70312L354.17188 288.28125Q354.35938 288.01562 354.48438 287.75Q354.60938 287.48438 354.67188 287.20312Q354.75 286.92188 354.75 286.59375L354.75 285.70312L355.8125 285.70312ZM362.0625 282.04688L362.0625 283.35938Q362.0625 284.40625 361.875 285.125Q361.6875 285.84375 361.32812 286.28125Q360.98438 286.71875 360.48438 286.92188Q360.0 287.125 359.375 287.125Q358.89062 287.125 358.46875 287.0Q358.04688 286.875 357.71875 286.60938Q357.39062 286.32812 357.15625 285.89062Q356.92188 285.45312 356.79688 284.82812Q356.67188 284.1875 356.67188 283.35938L356.67188 282.04688Q356.67188 281.0 356.85938 280.29688Q357.0625 279.59375 357.40625 279.15625Q357.76562 278.71875 358.25 278.53125Q358.75 278.34375 359.35938 278.34375Q359.85938 278.34375 360.28125 278.46875Q360.70312 278.59375 361.03125 278.85938Q361.35938 279.10938 361.57812 279.54688Q361.8125 279.96875 361.9375 280.59375Q362.0625 281.21875 362.0625 282.04688ZM360.96875 283.53125L360.96875 281.875Q360.96875 281.29688 360.90625 280.85938Q360.84375 280.42188 360.70312 280.10938Q360.57812 279.79688 360.375 279.60938Q360.1875 279.42188 359.9375 279.32812Q359.6875 279.23438 359.35938 279.23438Q358.98438 279.23438 358.67188 279.375Q358.375 279.51562 358.17188 279.82812Q357.96875 280.14062 357.85938 280.65625Q357.76562 281.15625 357.76562 281.875L357.76562 283.53125Q357.76562 284.10938 357.82812 284.54688Q357.90625 284.98438 358.03125 285.3125Q358.17188 285.625 358.35938 285.82812Q358.5625 286.03125 358.8125 286.125Q359.0625 286.21875 359.375 286.21875Q359.78125 286.21875 360.07812 286.07812Q360.375 285.92188 360.57812 285.59375Q360.78125 285.26562 360.875 284.76562Q360.96875 284.25 360.96875 283.53125Z" fill-rule="nonzero"/><path stroke="#000000" stroke-width="1.0" stroke-linecap="butt" d="M412.28333 290.0C412.28333 263.88614 391.11386 242.71666 365.0 242.71666C338.88614 242.71666 317.71667 263.88614 317.71667 290.0C317.71667 316.11386 338.88614 337.28333 365.0 337.28333C391.11386 337.28333 412.28333 316.11386 412.28333 290.0" fill-rule="nonzero"/><path fill="#000000" d="M353.0625 234.76353L353.0625 236.07603Q353.0625 237.12291 352.875 237.84166Q352.6875 238.56041 352.32812 238.99791Q351.98438 239.43541 351.48438 239.63853Q351.0 239.84166 350.375 239.84166Q349.89062 239.84166 349.46875 239.71666Q349.04688 239.59166 348.71875 239.32603Q348.39062 239.04478 348.15625 238.60728Q347.92188 238.16978 347.79688 237.54478Q347.67188 236.90416 347.67188 236.07603L347.67188 234.76353Q347.67188 233.71666 347.85938 233.01353Q348.0625 232.31041 348.40625 231.87291Q348.76562 231.43541 349.25 231.24791Q349.75 231.06041 350.35938 231.06041Q350.85938 231.06041 351.28125 231.18541Q351.70312 231.31041 352.03125 231.57603Q352.35938 231.82603 352.57812 232.26353Q352.8125 232.68541 352.9375 233.31041Q353.0625 233.93541 353.0625 234.76353ZM351.96875 236.24791L351.96875 234.59166Q351.96875 234.01353 351.90625 233.57603Q351.84375 233.13853 351.70312 232.82603Q351.57812 232.51353 351.375 232.32603Q351.1875 232.13853 350.9375 232.04478Q350.6875 231.95103 350.35938 231.95103Q349.98438 231.95103 349.67188 232.09166Q349.375 232.23228 349.17188 232.54478Q348.96875 232.85728 348.85938 233.37291Q348.76562 233.87291 348.76562 234.59166L348.76562 236.24791Q348.76562 236.82603 348.82812 237.26353Q348.90625 237.70103 349.03125 238.02916Q349.17188 238.34166 349.35938 238.54478Q349.5625 238.74791 349.8125 238.84166Q350.0625 238.93541 350.375 238.93541Q350.78125 238.93541 351.07812 238.79478Q351.375 238.63853 351.57812 238.31041Q351.78125 237.98228 351.875 237.48228Q351.96875 236.96666 351.96875 236.24791ZM355.8125 238.41978L355.8125 239.29478Q355.8125 239.84166 355.53125 240.43541Q355.26562 241.02916 354.78125 241.41978L354.17188 240.99791Q354.35938 240.73228 354.48438 240.46666Q354.60938 240.20103 354.67188 239.91978Q354.75 239.63853 354.75 239.31041L354.75 238.41978L355.8125 238.41978ZM360.26562 231.13853L360.26562 239.71666L359.1875 239.71666L359.1875 232.49791L357.0 233.29478L357.0 232.31041L360.10938 231.13853L360.26562 231.13853Z" fill-rule="nonzero"/><path stroke="#000000" stroke-width="1.0" stroke-linecap="butt" d="M459.56668 290.0C459.56668 237.77228 417.22772 195.43333 365.0 195.43333C312.77228 195.43333 270.43332 237.77228 270.43332 290.0C270.43332 342.22772 312.77228 384.56668 365.0 384.56668C417.22772 384.56668 459.56668 342.22772 459.56668 290.0" fill-rule="nonzero"/><path fill="#000000" d="M353.0625 187.48021L353.0625 188.79271Q353.0625 189.83958 352.875 190.55833Q352.6875 191.27708 352.32812 191.71458Q351.98438 192.15208 351.48438 192.35521Q351.0 192.55833 350.375 192.55833Q349.89062 192.55833 349.46875 192.43333Q349.04688 192.30833 348.71875 192.04271Q348.39062 191.76146 348.15625 191.32396Q347.92188 190.88646 347.79688 190.26146Q347.67188 189.62083 347.67188 188.79271L347.67188 187.48021Q347.67188 186.43333 347.85938 185.73021Q348.0625 185.02708 348.40625 184.58958Q348.76562 184.15208 349.25 183.96458Q349.75 183.77708 350.35938 183.77708Q350.85938 183.77708 351.28125 183.90208Q351.70312 184.02708 352.03125 184.29271Q352.35938 184.54271 352.57812 184.98021Q352.8125 185.40208 352.9375 186.02708Q353.0625 186.65208 353.0625 187.48021ZM351.96875 188.96458L351.96875 187.30833Q351.96875 186.73021 351.90625 186.29271Q351.84375 185.85521 351.70312 185.54271Q351.57812 185.23021 351.375 185.04271Q351.1875 184.85521 350.9375 184.76146Q350.6875 184.66771 350.35938 184.66771Q349.98438 184.66771 349.67188 184.80833Q349.375 184.94896 349.17188 185.26146Q348.96875 185.57396 348.85938 186.08958Q348.76562 186.58958 348.76562 187.30833L348.76562 188.96458Q348.76562 189.54271 348.82812 189.98021Q348.90625 190.41771 349.03125 190.74583Q349.17188 191.05833 349.35938 191.26146Q349.5625 191.46458 349.8125 191.55833Q350.0625 191.65208 350.375 191.65208Q350.78125 191.65208 351.07812 191.51146Q351.375 191.35521 351.57812 191.02708Q351.78125 190.69896 351.875 190.19896Q351.96875 189.68333 351.96875 188.96458ZM355.8125 191.13646L355.8125 192.01146Q355.8125 192.55833 355.53125 193.15208Q355.26562 193.74583 354.78125 194.13646L354.17188 193.71458Q354.35938 193.44896 354.48438 193.18333Q354.60938 192.91771 354.67188 192.63646Q354.75 192.35521 354.75 192.02708L354.75 191.13646L355.8125 191.13646ZM362.29688 191.54271L362.29688 192.43333L356.71875 192.43333L356.71875 191.65208L359.51562 188.54271Q360.03125 187.96458 360.3125 187.57396Q360.59375 187.16771 360.70312 186.85521Q360.82812 186.52708 360.82812 186.19896Q360.82812 185.77708 360.65625 185.43333Q360.48438 185.08958 360.14062 184.88646Q359.8125 184.66771 359.32812 184.66771Q358.76562 184.66771 358.39062 184.90208Q358.01562 185.12083 357.82812 185.51146Q357.64062 185.90208 357.64062 186.40208L356.54688 186.40208Q356.54688 185.68333 356.85938 185.08958Q357.1875 184.49583 357.79688 184.13646Q358.42188 183.77708 359.32812 183.77708Q360.14062 183.77708 360.71875 184.07396Q361.29688 184.35521 361.59375 184.87083Q361.90625 185.37083 361.90625 186.05833Q361.90625 186.43333 361.78125 186.82396Q361.65625 187.19896 361.4375 187.58958Q361.21875 187.96458 360.92188 188.33958Q360.64062 188.69896 360.3125 189.05833L358.01562 191.54271L362.29688 191.54271Z" fill-rule="nonzero"/><path stroke="#000000" stroke-width="1.0" stroke-linecap="butt" d="M506.85 290.0C506.85 211.6584 443.34158 148.15 365.0 148.15C286.65842 148.15 223.15 211.6584 223.15 290.0C223.15 368.34158 286.65842 431.85 365.0 431.85C443.34158 431.85 506.85 368.34158 506.85 290.0" fill-rule="nonzero"/><path fill="#000000" d="M353.0625 140.19687L353.0625 141.50937Q353.0625 142.55624 352.875 143.275Q352.6875 143.99374 352.32812 144.43124Q351.98438 144.86874 351.48438 145.07187Q351.0 145.275 350.375 145.275Q349.89062 145.275 349.46875 145.15Q349.04688 145.025 348.71875 144.75937Q348.39062 144.47812 348.15625 144.04062Q347.92188 143.60312 347.79688 142.97812Q347.67188 142.3375 347.67188 141.50937L347.67188 140.19687Q347.67188 139.15 347.85938 138.44687Q348.0625 137.74374 348.40625 137.30624Q348.76562 136.86874 349.25 136.68124Q349.75 136.49374 350.35938 136.49374Q350.85938 136.49374 351.28125 136.61874Q351.70312 136.74374 352.03125 137.00937Q352.35938 137.25937 352.57812 137.69687Q352.8125 138.11874 352.9375 138.74374Q353.0625 139.36874 353.0625 140.19687ZM351.96875 141.68124L351.96875 140.025Q351.96875 139.44687 351.90625 139.00937Q351.84375 138.57187 351.70312 138.25937Q351.57812 137.94687 351.375 137.75937Q351.1875 137.57187 350.9375 137.47812Q350.6875 137.38437 350.35938 137.38437Q349.98438 137.38437 349.67188 137.525Q349.375 137.66562 349.17188 137.97812Q348.96875 138.29062 348.85938 138.80624Q348.76562 139.30624 348.76562 140.025L348.76562 141.68124Q348.76562 142.25937 348.82812 142.69687Q348.90625 143.13437 349.03125 143.4625Q349.17188 143.775 349.35938 143.97812Q349.5625 144.18124 349.8125 144.275Q350.0625 144.36874 350.375 144.36874Q350.78125 144.36874 351.07812 144.22812Q351.375 144.07187 351.57812 143.74374Q351.78125 143.41562 351.875 142.91562Q351.96875 142.4 351.96875 141.68124ZM355.8125 143.85312L355.8125 144.72812Q355.8125 145.275 355.53125 145.86874Q355.26562 146.4625 354.78125 146.85312L354.17188 146.43124Q354.35938 146.16562 354.48438 145.9Q354.60938 145.63437 354.67188 145.35312Q354.75 145.07187 354.75 144.74374L354.75 143.85312L355.8125 143.85312ZM358.29688 140.35312L359.0625 140.35312Q359.64062 140.35312 360.0 140.16562Q360.375 139.9625 360.5625 139.63437Q360.75 139.30624 360.75 138.88437Q360.75 138.4 360.57812 138.07187Q360.42188 137.72812 360.09375 137.55624Q359.76562 137.38437 359.26562 137.38437Q358.79688 137.38437 358.45312 137.57187Q358.10938 137.74374 357.90625 138.07187Q357.71875 138.4 357.71875 138.85312L356.625 138.85312Q356.625 138.19687 356.95312 137.66562Q357.28125 137.13437 357.875 136.82187Q358.46875 136.49374 359.26562 136.49374Q360.03125 136.49374 360.60938 136.775Q361.1875 137.04062 361.51562 137.5875Q361.84375 138.11874 361.84375 138.91562Q361.84375 139.24374 361.6875 139.60312Q361.53125 139.9625 361.21875 140.29062Q360.90625 140.60312 360.40625 140.80624Q359.92188 141.00937 359.21875 141.00937L358.29688 141.00937L358.29688 140.35312ZM358.29688 141.24374L358.29688 140.5875L359.21875 140.5875Q360.03125 140.5875 360.5625 140.79062Q361.09375 140.97812 361.40625 141.30624Q361.71875 141.61874 361.84375 142.00937Q361.96875 142.38437 361.96875 142.775Q361.96875 143.36874 361.76562 143.8375Q361.5625 144.29062 361.1875 144.61874Q360.82812 144.93124 360.32812 145.10312Q359.84375 145.275 359.26562 145.275Q358.70312 145.275 358.21875 145.11874Q357.73438 144.94687 357.35938 144.65Q356.98438 144.35312 356.76562 143.91562Q356.5625 143.4625 356.5625 142.9L357.64062 142.9Q357.64062 143.3375 357.82812 143.68124Q358.03125 144.00937 358.39062 144.19687Q358.76562 144.36874 359.26562 144.36874Q359.76562 144.36874 360.125 144.19687Q360.48438 144.025 360.67188 143.68124Q360.875 143.32187 360.875 142.79062Q360.875 142.25937 360.65625 141.91562Q360.4375 141.57187 360.01562 141.41562Q359.60938 141.24374 359.0625 141.24374L358.29688 141.24374Z" fill-rule="nonzero"/><path stroke="#000000" stroke-width="1.0" stroke-linecap="butt" d="M554.13336 290.0C554.13336 185.54454 469.45544 100.86667 365.0 100.86667C260.54456 100.86667 175.86667 185.54454 175.86667 290.0C175.86667 394.45544 260.54456 479.13333 365.0 479.13333C469.45544 479.13333 554.13336 394.45544 554.13336 290.0" fill-rule="nonzero"/><path fill="#000000" d="M353.0625 92.91354L353.0625 94.22604Q353.0625 95.27292 352.875 95.99167Q352.6875 96.71042 352.32812 97.14792Q351.98438 97.58542 351.48438 97.78854Q351.0 97.99167 350.375 97.99167Q349.89062 97.99167 349.46875 97.86667Q349.04688 97.74167 348.71875 97.47604Q348.39062 97.19479 348.15625 96.75729Q347.92188 96.31979 347.79688 95.69479Q347.67188 95.05417 347.67188 94.22604L347.67188 92.91354Q347.67188 91.86667 347.85938 91.16354Q348.0625 90.46042 348.40625 90.02292Q348.76562 89.58542 349.25 89.39792Q349.75 89.21042 350.35938 89.21042Q350.85938 89.21042 351.28125 89.33542Q351.70312 89.46042 352.03125 89.72604Q352.35938 89.97604 352.57812 90.41354Q352.8125 90.83542 352.9375 91.46042Q353.0625 92.08542 353.0625 92.91354ZM351.96875 94.39792L351.96875 92.74167Q351.96875 92.16354 351.90625 91.72604Q351.84375 91.28854 351.70312 90.97604Q351.57812 90.66354 351.375 90.47604Q351.1875 90.28854 350.9375 90.19479Q350.6875 90.10104 350.35938 90.10104Q349.98438 90.10104 349.67188 90.24167Q349.375 90.38229 349.17188 90.69479Q348.96875 91.00729 348.85938 91.52292Q348.76562 92.02292 348.76562 92.74167L348.76562 94.39792Q348.76562 94.97604 348.82812 95.41354Q348.90625 95.85104 349.03125 96.17917Q349.17188 96.49167 349.35938 96.69479Q349.5625 96.89792 349.8125 96.99167Q350.0625 97.08542 350.375 97.08542Q350.78125 97.08542 351.07812 96.94479Q351.375 96.78854 351.57812 96.46042Q351.78125 96.13229 351.875 95.63229Q351.96875 95.11667 351.96875 94.39792ZM355.8125 96.56979L355.8125 97.44479Q355.8125 97.99167 355.53125 98.58542Q355.26562 99.17917 354.78125 99.56979L354.17188 99.14792Q354.35938 98.88229 354.48438 98.61667Q354.60938 98.35104 354.67188 98.06979Q354.75 97.78854 354.75 97.46042L354.75 96.56979L355.8125 96.56979ZM362.46875 94.99167L362.46875 95.88229L356.3125 95.88229L356.3125 95.24167L360.125 89.33542L361.01562 89.33542L360.0625 91.03854L357.54688 94.99167L362.46875 94.99167ZM361.28125 89.33542L361.28125 97.86667L360.20312 97.86667L360.20312 89.33542L361.28125 89.33542Z" fill-rule="nonzero"/><path stroke="#000000" stroke-width="1.0" stroke-linecap="butt" d="M365.0 290.0L365.0 101.0" fill-rule="nonzero"/><path fill="#000000" d="M347.67188 73.578125L347.67188 74.5L343.40625 74.5L343.40625 73.578125L347.67188 73.578125ZM343.625 65.96875L343.625 74.5L342.48438 74.5L342.48438 65.96875L343.625 65.96875ZM349.5 68.15625L349.5 74.5L348.42188 74.5L348.42188 68.15625L349.5 68.15625ZM348.32812 66.484375Q348.32812 66.21875 348.48438 66.03125Q348.65625 65.84375 348.96875 65.84375Q349.28125 65.84375 349.4375 66.03125Q349.60938 66.21875 349.60938 66.484375Q349.60938 66.734375 349.4375 66.921875Q349.28125 67.09375 348.96875 67.09375Q348.65625 67.09375 348.48438 66.921875Q348.32812 66.734375 348.32812 66.484375ZM352.40625 69.421875L352.40625 74.5L351.3125 74.5L351.3125 68.15625L352.34375 68.15625L352.40625 69.421875ZM352.1875 71.09375L351.67188 71.078125Q351.6875 70.421875 351.84375 69.875Q352.01562 69.3125 352.32812 68.90625Q352.65625 68.5 353.14062 68.28125Q353.625 68.046875 354.25 68.046875Q354.70312 68.046875 355.07812 68.171875Q355.45312 68.296875 355.71875 68.5625Q356.0 68.828125 356.14062 69.25Q356.29688 69.671875 356.29688 70.28125L356.29688 74.5L355.21875 74.5L355.21875 70.328125Q355.21875 69.828125 355.04688 69.53125Q354.89062 69.234375 354.57812 69.09375Q354.28125 68.953125 353.85938 68.953125Q353.39062 68.953125 353.0625 69.125Q352.73438 69.296875 352.54688 69.59375Q352.35938 69.890625 352.26562 70.28125Q352.1875 70.65625 352.1875 71.09375ZM356.29688 70.484375L355.5625 70.71875Q355.5625 70.1875 355.73438 69.71875Q355.90625 69.234375 356.21875 68.859375Q356.54688 68.484375 357.01562 68.265625Q357.48438 68.046875 358.07812 68.046875Q358.59375 68.046875 358.98438 68.1875Q359.39062 68.3125 359.65625 68.59375Q359.92188 68.875 360.0625 69.3125Q360.20312 69.734375 360.20312 70.328125L360.20312 74.5L359.125 74.5L359.125 70.328125Q359.125 69.78125 358.95312 69.5Q358.78125 69.203125 358.48438 69.078125Q358.1875 68.953125 357.76562 68.953125Q357.40625 68.953125 357.125 69.078125Q356.85938 69.203125 356.67188 69.421875Q356.48438 69.625 356.39062 69.90625Q356.29688 70.1875 356.29688 70.484375ZM362.04688 71.40625L362.04688 71.265625Q362.04688 70.578125 362.23438 70.0Q362.4375 69.40625 362.8125 68.96875Q363.1875 68.53125 363.71875 68.296875Q364.25 68.046875 364.92188 68.046875Q365.57812 68.046875 366.10938 68.296875Q366.65625 68.53125 367.03125 68.96875Q367.40625 69.40625 367.60938 70.0Q367.8125 70.578125 367.8125 71.265625L367.8125 71.40625Q367.8125 72.078125 367.60938 72.671875Q367.40625 73.25 367.03125 73.6875Q366.65625 74.125 366.125 74.375Q365.59375 74.625 364.92188 74.625Q364.26562 74.625 363.71875 74.375Q363.1875 74.125 362.8125 73.6875Q362.4375 73.25 362.23438 72.671875Q362.04688 72.078125 362.04688 71.40625ZM363.125 71.265625L363.125 71.40625Q363.125 71.875 363.23438 72.296875Q363.34375 72.71875 363.5625 73.046875Q363.79688 73.359375 364.14062 73.546875Q364.48438 73.71875 364.92188 73.71875Q365.375 73.71875 365.70312 73.546875Q366.04688 73.359375 366.26562 73.046875Q366.5 72.71875 366.60938 72.296875Q366.71875 71.875 366.71875 71.40625L366.71875 71.265625Q366.71875 70.796875 366.60938 70.375Q366.5 69.953125 366.26562 69.640625Q366.04688 69.3125 365.70312 69.125Q365.375 68.9375 364.92188 68.9375Q364.46875 68.9375 364.125 69.125Q363.79688 69.3125 363.5625 69.640625Q363.34375 69.953125 363.23438 70.375Q363.125 70.796875 363.125 71.265625ZM370.40625 69.515625L370.40625 74.5L369.32812 74.5L369.32812 68.15625L370.35938 68.15625L370.40625 69.515625ZM370.15625 71.09375L369.70312 71.078125Q369.70312 70.421875 369.89062 69.875Q370.07812 69.3125 370.42188 68.90625Q370.76562 68.5 371.23438 68.28125Q371.70312 68.046875 372.28125 68.046875Q372.75 68.046875 373.125 68.171875Q373.5 68.296875 373.76562 68.578125Q374.03125 68.84375 374.17188 69.28125Q374.3125 69.71875 374.3125 70.34375L374.3125 74.5L373.21875 74.5L373.21875 70.328125Q373.21875 69.828125 373.07812 69.53125Q372.9375 69.234375 372.65625 69.09375Q372.375 68.953125 371.95312 68.953125Q371.54688 68.953125 371.21875 69.125Q370.89062 69.296875 370.65625 69.59375Q370.42188 69.890625 370.28125 70.28125Q370.15625 70.65625 370.15625 71.09375ZM378.95312 74.625Q378.29688 74.625 377.75 74.40625Q377.21875 74.171875 376.82812 73.765625Q376.45312 73.34375 376.25 72.78125Q376.04688 72.21875 376.04688 71.546875L376.04688 71.3125Q376.04688 70.53125 376.26562 69.921875Q376.5 69.3125 376.89062 68.890625Q377.28125 68.46875 377.78125 68.265625Q378.28125 68.046875 378.8125 68.046875Q379.5 68.046875 379.98438 68.28125Q380.48438 68.515625 380.79688 68.9375Q381.125 69.34375 381.26562 69.921875Q381.42188 70.484375 381.42188 71.140625L381.42188 71.640625L376.6875 71.640625L376.6875 70.75L380.34375 70.75L380.34375 70.671875Q380.3125 70.25 380.15625 69.859375Q380.01562 69.453125 379.6875 69.203125Q379.375 68.9375 378.8125 68.9375Q378.45312 68.9375 378.14062 69.09375Q377.82812 69.25 377.59375 69.5625Q377.375 69.859375 377.25 70.296875Q377.14062 70.734375 377.14062 71.3125L377.14062 71.546875Q377.14062 72.0 377.26562 72.40625Q377.39062 72.796875 377.625 73.09375Q377.875 73.390625 378.21875 73.5625Q378.57812 73.734375 379.01562 73.734375Q379.59375 73.734375 379.98438 73.5Q380.39062 73.265625 380.6875 72.875L381.34375 73.390625Q381.14062 73.703125 380.8125 73.984375Q380.5 74.265625 380.03125 74.453125Q379.57812 74.625 378.95312 74.625ZM383.40625 69.515625L383.40625 74.5L382.32812 74.5L382.32812 68.15625L383.35938 68.15625L383.40625 69.515625ZM383.15625 71.09375L382.70312 71.078125Q382.70312 70.421875 382.89062 69.875Q383.07812 69.3125 383.42188 68.90625Q383.76562 68.5 384.23438 68.28125Q384.70312 68.046875 385.28125 68.046875Q385.75 68.046875 386.125 68.171875Q386.5 68.296875 386.76562 68.578125Q387.03125 68.84375 387.17188 69.28125Q387.3125 69.71875 387.3125 70.34375L387.3125 74.5L386.21875 74.5L386.21875 70.328125Q386.21875 69.828125 386.07812 69.53125Q385.9375 69.234375 385.65625 69.09375Q385.375 68.953125 384.95312 68.953125Q384.54688 68.953125 384.21875 69.125Q383.89062 69.296875 383.65625 69.59375Q383.42188 69.890625 383.28125 70.28125Q383.15625 70.65625 383.15625 71.09375Z" fill-rule="nonzero"/><path stroke="#000000" stroke-width="1.0" stroke-linecap="butt" d="M365.0 290.0L529.0 195.0" fill-rule="nonzero"/><path fill="#000000" d="M539.6719 183.57812L539.6719 184.5L535.40625 184.5L535.40625 183.57812L539.6719 183.57812ZM535.625 175.96875L535.625 184.5L534.4844 184.5L534.4844 175.96875L535.625 175.96875ZM541.5 178.15625L541.5 184.5L540.4219 184.5L540.4219 178.15625L541.5 178.15625ZM540.3281 176.48438Q540.3281 176.21875 540.4844 176.03125Q540.65625 175.84375 540.96875 175.84375Q541.28125 175.84375 541.4375 176.03125Q541.6094 176.21875 541.6094 176.48438Q541.6094 176.73438 541.4375 176.92188Q541.28125 177.09375 540.96875 177.09375Q540.65625 177.09375 540.4844 176.92188Q540.3281 176.73438 540.3281 176.48438ZM544.40625 179.51562L544.40625 184.5L543.3281 184.5L543.3281 178.15625L544.3594 178.15625L544.40625 179.51562ZM544.15625 181.09375L543.7031 181.07812Q543.7031 180.42188 543.8906 179.875Q544.0781 179.3125 544.4219 178.90625Q544.7656 178.5 545.2344 178.28125Q545.7031 178.04688 546.28125 178.04688Q546.75 178.04688 547.125 178.17188Q547.5 178.29688 547.7656 178.57812Q548.03125 178.84375 548.1719 179.28125Q548.3125 179.71875 548.3125 180.34375L548.3125 184.5L547.21875 184.5L547.21875 180.32812Q547.21875 179.82812 547.0781 179.53125Q546.9375 179.23438 546.65625 179.09375Q546.375 178.95312 545.9531 178.95312Q545.5469 178.95312 545.21875 179.125Q544.8906 179.29688 544.65625 179.59375Q544.4219 179.89062 544.28125 180.28125Q544.15625 180.65625 544.15625 181.09375ZM554.0625 183.42188L554.0625 180.15625Q554.0625 179.78125 553.90625 179.5Q553.7656 179.21875 553.46875 179.07812Q553.1719 178.92188 552.7344 178.92188Q552.3125 178.92188 552.0 179.0625Q551.7031 179.20312 551.53125 179.4375Q551.3594 179.65625 551.3594 179.92188L550.28125 179.92188Q550.28125 179.57812 550.4531 179.25Q550.625 178.90625 550.9531 178.64062Q551.28125 178.35938 551.75 178.20312Q552.21875 178.04688 552.7969 178.04688Q553.4844 178.04688 554.0156 178.28125Q554.5469 178.51562 554.84375 178.98438Q555.15625 179.45312 555.15625 180.15625L555.15625 183.10938Q555.15625 183.4375 555.2031 183.79688Q555.2656 184.14062 555.375 184.40625L555.375 184.5L554.2344 184.5Q554.15625 184.3125 554.1094 184.0Q554.0625 183.6875 554.0625 183.42188ZM554.25 180.65625L554.2656 181.42188L553.1719 181.42188Q552.7031 181.42188 552.34375 181.5Q551.9844 181.5625 551.7344 181.71875Q551.4844 181.85938 551.3594 182.07812Q551.2344 182.29688 551.2344 182.59375Q551.2344 182.89062 551.3594 183.14062Q551.5 183.375 551.7656 183.53125Q552.0469 183.67188 552.4375 183.67188Q552.9375 183.67188 553.3125 183.46875Q553.7031 183.25 553.9219 182.95312Q554.15625 182.64062 554.1719 182.34375L554.6406 182.875Q554.59375 183.10938 554.40625 183.42188Q554.2344 183.71875 553.9219 184.0Q553.625 184.26562 553.2031 184.45312Q552.7969 184.625 552.28125 184.625Q551.6406 184.625 551.15625 184.375Q550.6719 184.10938 550.40625 183.6875Q550.1406 183.26562 550.1406 182.73438Q550.1406 182.21875 550.3281 181.84375Q550.53125 181.45312 550.90625 181.1875Q551.28125 180.92188 551.8125 180.79688Q552.34375 180.65625 553.0 180.65625L554.25 180.65625ZM558.5 175.5L558.5 184.5L557.4219 184.5L557.4219 175.5L558.5 175.5ZM560.0469 181.40625L560.0469 181.26562Q560.0469 180.57812 560.2344 180.0Q560.4375 179.40625 560.8125 178.96875Q561.1875 178.53125 561.71875 178.29688Q562.25 178.04688 562.9219 178.04688Q563.5781 178.04688 564.1094 178.29688Q564.65625 178.53125 565.03125 178.96875Q565.40625 179.40625 565.6094 180.0Q565.8125 180.57812 565.8125 181.26562L565.8125 181.40625Q565.8125 182.07812 565.6094 182.67188Q565.40625 183.25 565.03125 183.6875Q564.65625 184.125 564.125 184.375Q563.59375 184.625 562.9219 184.625Q562.2656 184.625 561.71875 184.375Q561.1875 184.125 560.8125 183.6875Q560.4375 183.25 560.2344 182.67188Q560.0469 182.07812 560.0469 181.40625ZM561.125 181.26562L561.125 181.40625Q561.125 181.875 561.2344 182.29688Q561.34375 182.71875 561.5625 183.04688Q561.7969 183.35938 562.1406 183.54688Q562.4844 183.71875 562.9219 183.71875Q563.375 183.71875 563.7031 183.54688Q564.0469 183.35938 564.2656 183.04688Q564.5 182.71875 564.6094 182.29688Q564.71875 181.875 564.71875 181.40625L564.71875 181.26562Q564.71875 180.79688 564.6094 180.375Q564.5 179.95312 564.2656 179.64062Q564.0469 179.3125 563.7031 179.125Q563.375 178.9375 562.9219 178.9375Q562.46875 178.9375 562.125 179.125Q561.7969 179.3125 561.5625 179.64062Q561.34375 179.95312 561.2344 180.375Q561.125 180.79688 561.125 181.26562ZM567.0469 181.40625L567.0469 181.26562Q567.0469 180.57812 567.2344 180.0Q567.4375 179.40625 567.8125 178.96875Q568.1875 178.53125 568.71875 178.29688Q569.25 178.04688 569.9219 178.04688Q570.5781 178.04688 571.1094 178.29688Q571.65625 178.53125 572.03125 178.96875Q572.40625 179.40625 572.6094 180.0Q572.8125 180.57812 572.8125 181.26562L572.8125 181.40625Q572.8125 182.07812 572.6094 182.67188Q572.40625 183.25 572.03125 183.6875Q571.65625 184.125 571.125 184.375Q570.59375 184.625 569.9219 184.625Q569.2656 184.625 568.71875 184.375Q568.1875 184.125 567.8125 183.6875Q567.4375 183.25 567.2344 182.67188Q567.0469 182.07812 567.0469 181.40625ZM568.125 181.26562L568.125 181.40625Q568.125 181.875 568.2344 182.29688Q568.34375 182.71875 568.5625 183.04688Q568.7969 183.35938 569.1406 183.54688Q569.4844 183.71875 569.9219 183.71875Q570.375 183.71875 570.7031 183.54688Q571.0469 183.35938 571.2656 183.04688Q571.5 182.71875 571.6094 182.29688Q571.71875 181.875 571.71875 181.40625L571.71875 181.26562Q571.71875 180.79688 571.6094 180.375Q571.5 179.95312 571.2656 179.64062Q571.0469 179.3125 570.7031 179.125Q570.375 178.9375 569.9219 178.9375Q569.46875 178.9375 569.125 179.125Q568.7969 179.3125 568.5625 179.64062Q568.34375 179.95312 568.2344 180.375Q568.125 180.79688 568.125 181.26562ZM575.5 175.5L575.5 184.5L574.4219 184.5L574.4219 175.5L575.5 175.5Z" fill-rule="nonzero"/><path stroke="#000000" stroke-width="1.0" stroke-linecap="butt" d="M365.0 290.0L529.0 385.0" fill-rule="nonzero"/><path fill="#000000" d="M525.6406 401.78125L526.7656 401.78125Q526.6719 402.59375 526.2969 403.23438Q525.9219 403.875 525.2344 404.25Q524.5625 404.625 523.53125 404.625Q522.78125 404.625 522.1719 404.34375Q521.5625 404.04688 521.1094 403.53125Q520.6719 403.01562 520.4375 402.29688Q520.2031 401.5625 520.2031 400.65625L520.2031 399.8125Q520.2031 398.92188 520.4375 398.1875Q520.6719 397.45312 521.125 396.9375Q521.5781 396.40625 522.2031 396.125Q522.84375 395.84375 523.625 395.84375Q524.59375 395.84375 525.2656 396.21875Q525.9375 396.57812 526.2969 397.21875Q526.6719 397.85938 526.7656 398.70312L525.6406 398.70312Q525.5625 398.10938 525.3281 397.6875Q525.1094 397.25 524.7031 397.01562Q524.2969 396.78125 523.625 396.78125Q523.0625 396.78125 522.625 397.0Q522.2031 397.20312 521.90625 397.60938Q521.625 398.0 521.46875 398.5625Q521.3281 399.125 521.3281 399.79688L521.3281 400.65625Q521.3281 401.28125 521.4531 401.84375Q521.59375 402.39062 521.8594 402.8125Q522.125 403.21875 522.5469 403.46875Q522.96875 403.70312 523.53125 403.70312Q524.25 403.70312 524.6719 403.46875Q525.1094 403.23438 525.3281 402.8125Q525.5469 402.39062 525.6406 401.78125ZM532.0625 403.42188L532.0625 400.15625Q532.0625 399.78125 531.90625 399.5Q531.7656 399.21875 531.46875 399.07812Q531.1719 398.92188 530.7344 398.92188Q530.3125 398.92188 530.0 399.0625Q529.7031 399.20312 529.53125 399.4375Q529.3594 399.65625 529.3594 399.92188L528.28125 399.92188Q528.28125 399.57812 528.4531 399.25Q528.625 398.90625 528.9531 398.64062Q529.28125 398.35938 529.75 398.20312Q530.21875 398.04688 530.7969 398.04688Q531.4844 398.04688 532.0156 398.28125Q532.5469 398.51562 532.84375 398.98438Q533.15625 399.45312 533.15625 400.15625L533.15625 403.10938Q533.15625 403.4375 533.2031 403.79688Q533.2656 404.14062 533.375 404.40625L533.375 404.5L532.2344 404.5Q532.15625 404.3125 532.1094 404.0Q532.0625 403.6875 532.0625 403.42188ZM532.25 400.65625L532.2656 401.42188L531.1719 401.42188Q530.7031 401.42188 530.34375 401.5Q529.9844 401.5625 529.7344 401.71875Q529.4844 401.85938 529.3594 402.07812Q529.2344 402.29688 529.2344 402.59375Q529.2344 402.89062 529.3594 403.14062Q529.5 403.375 529.7656 403.53125Q530.0469 403.67188 530.4375 403.67188Q530.9375 403.67188 531.3125 403.46875Q531.7031 403.25 531.9219 402.95312Q532.15625 402.64062 532.1719 402.34375L532.6406 402.875Q532.59375 403.10938 532.40625 403.42188Q532.2344 403.71875 531.9219 404.0Q531.625 404.26562 531.2031 404.45312Q530.7969 404.625 530.28125 404.625Q529.6406 404.625 529.15625 404.375Q528.6719 404.10938 528.40625 403.6875Q528.1406 403.26562 528.1406 402.73438Q528.1406 402.21875 528.3281 401.84375Q528.53125 401.45312 528.90625 401.1875Q529.28125 400.92188 529.8125 400.79688Q530.34375 400.65625 531.0 400.65625L532.25 400.65625ZM536.40625 399.15625L536.40625 404.5L535.3281 404.5L535.3281 398.15625L536.375 398.15625L536.40625 399.15625ZM538.3906 398.125L538.3906 399.125Q538.25 399.10938 538.125 399.09375Q538.0156 399.07812 537.8594 399.07812Q537.4844 399.07812 537.1875 399.20312Q536.90625 399.3125 536.7031 399.53125Q536.5156 399.73438 536.3906 400.03125Q536.28125 400.32812 536.25 400.67188L535.9375 400.84375Q535.9375 400.26562 536.0469 399.76562Q536.1719 399.26562 536.40625 398.875Q536.65625 398.48438 537.0156 398.26562Q537.3906 398.04688 537.90625 398.04688Q538.03125 398.04688 538.1719 398.07812Q538.3281 398.09375 538.3906 398.125ZM541.1094 403.84375L542.875 398.15625L544.03125 398.15625L541.4844 405.48438Q541.40625 405.71875 541.25 405.98438Q541.1094 406.26562 540.8906 406.5Q540.6719 406.75 540.3594 406.90625Q540.0469 407.0625 539.6094 407.0625Q539.4844 407.0625 539.28125 407.01562Q539.0781 406.98438 539.0 406.96875L539.0 406.09375Q539.0469 406.09375 539.1406 406.09375Q539.25 406.10938 539.28125 406.10938Q539.65625 406.10938 539.90625 406.01562Q540.1719 405.92188 540.34375 405.6875Q540.53125 405.46875 540.65625 405.07812L541.1094 403.84375ZM539.8125 398.15625L541.4531 403.07812L541.7344 404.21875L540.96875 404.625L538.625 398.15625L539.8125 398.15625ZM545.0469 401.40625L545.0469 401.26562Q545.0469 400.57812 545.2344 400.0Q545.4375 399.40625 545.8125 398.96875Q546.1875 398.53125 546.71875 398.29688Q547.25 398.04688 547.9219 398.04688Q548.5781 398.04688 549.1094 398.29688Q549.65625 398.53125 550.03125 398.96875Q550.40625 399.40625 550.6094 400.0Q550.8125 400.57812 550.8125 401.26562L550.8125 401.40625Q550.8125 402.07812 550.6094 402.67188Q550.40625 403.25 550.03125 403.6875Q549.65625 404.125 549.125 404.375Q548.59375 404.625 547.9219 404.625Q547.2656 404.625 546.71875 404.375Q546.1875 404.125 545.8125 403.6875Q545.4375 403.25 545.2344 402.67188Q545.0469 402.07812 545.0469 401.40625ZM546.125 401.26562L546.125 401.40625Q546.125 401.875 546.2344 402.29688Q546.34375 402.71875 546.5625 403.04688Q546.7969 403.35938 547.1406 403.54688Q547.4844 403.71875 547.9219 403.71875Q548.375 403.71875 548.7031 403.54688Q549.0469 403.35938 549.2656 403.04688Q549.5 402.71875 549.6094 402.29688Q549.71875 401.875 549.71875 401.40625L549.71875 401.26562Q549.71875 400.79688 549.6094 400.375Q549.5 399.95312 549.2656 399.64062Q549.0469 399.3125 548.7031 399.125Q548.375 398.9375 547.9219 398.9375Q547.46875 398.9375 547.125 399.125Q546.7969 399.3125 546.5625 399.64062Q546.34375 399.95312 546.2344 400.375Q546.125 400.79688 546.125 401.26562ZM553.40625 399.375L553.40625 406.9375L552.3281 406.9375L552.3281 398.15625L553.3125 398.15625L553.40625 399.375ZM557.6875 401.28125L557.6875 401.40625Q557.6875 402.09375 557.5156 402.6875Q557.3594 403.26562 557.0469 403.70312Q556.7344 404.14062 556.2656 404.39062Q555.8125 404.625 555.21875 404.625Q554.625 404.625 554.15625 404.42188Q553.6875 404.21875 553.3594 403.84375Q553.0469 403.45312 552.8594 402.92188Q552.6719 402.39062 552.59375 401.71875L552.59375 401.0625Q552.6719 400.35938 552.8594 399.8125Q553.0469 399.25 553.3594 398.85938Q553.6875 398.45312 554.1406 398.25Q554.6094 398.04688 555.2031 398.04688Q555.7969 398.04688 556.2656 398.28125Q556.7344 398.5 557.0469 398.9375Q557.3594 399.35938 557.5156 399.95312Q557.6875 400.54688 557.6875 401.28125ZM556.59375 401.40625L556.59375 401.28125Q556.59375 400.79688 556.4844 400.39062Q556.3906 399.96875 556.1875 399.65625Q555.9844 399.32812 555.65625 399.14062Q555.3281 398.95312 554.8906 398.95312Q554.4844 398.95312 554.1719 399.09375Q553.875 399.23438 553.65625 399.48438Q553.4531 399.71875 553.3125 400.01562Q553.1875 400.3125 553.125 400.64062L553.125 402.15625Q553.2344 402.5625 553.4375 402.92188Q553.65625 403.28125 554.0 403.5Q554.3594 403.71875 554.90625 403.71875Q555.34375 403.71875 555.65625 403.54688Q555.9844 403.35938 556.1875 403.04688Q556.3906 402.71875 556.4844 402.29688Q556.59375 401.875 556.59375 401.40625ZM560.40625 395.5L560.40625 404.5L559.3281 404.5L559.3281 395.5L560.40625 395.5ZM560.15625 401.09375L559.7031 401.07812Q559.7031 400.42188 559.8906 399.875Q560.0781 399.3125 560.4219 398.90625Q560.7656 398.5 561.2344 398.28125Q561.7031 398.04688 562.28125 398.04688Q562.75 398.04688 563.125 398.17188Q563.5 398.29688 563.7656 398.57812Q564.03125 398.84375 564.1719 399.28125Q564.3125 399.71875 564.3125 400.34375L564.3125 404.5L563.21875 404.5L563.21875 400.32812Q563.21875 399.82812 563.0781 399.53125Q562.9375 399.23438 562.65625 399.09375Q562.375 398.95312 561.9531 398.95312Q561.5469 398.95312 561.21875 399.125Q560.8906 399.29688 560.65625 399.59375Q560.4219 399.89062 560.28125 400.28125Q560.15625 400.65625 560.15625 401.09375ZM568.1094 403.84375L569.875 398.15625L571.03125 398.15625L568.4844 405.48438Q568.40625 405.71875 568.25 405.98438Q568.1094 406.26562 567.8906 406.5Q567.6719 406.75 567.3594 406.90625Q567.0469 407.0625 566.6094 407.0625Q566.4844 407.0625 566.28125 407.01562Q566.0781 406.98438 566.0 406.96875L566.0 406.09375Q566.0469 406.09375 566.1406 406.09375Q566.25 406.10938 566.28125 406.10938Q566.65625 406.10938 566.90625 406.01562Q567.1719 405.92188 567.34375 405.6875Q567.53125 405.46875 567.65625 405.07812L568.1094 403.84375ZM566.8125 398.15625L568.4531 403.07812L568.7344 404.21875L567.96875 404.625L565.625 398.15625L566.8125 398.15625ZM573.5 395.5L573.5 404.5L572.4219 404.5L572.4219 395.5L573.5 395.5ZM576.5 395.5L576.5 404.5L575.4219 404.5L575.4219 395.5L576.5 395.5ZM580.9531 404.625Q580.2969 404.625 579.75 404.40625Q579.21875 404.17188 578.8281 403.76562Q578.4531 403.34375 578.25 402.78125Q578.0469 402.21875 578.0469 401.54688L578.0469 401.3125Q578.0469 400.53125 578.2656 399.92188Q578.5 399.3125 578.8906 398.89062Q579.28125 398.46875 579.78125 398.26562Q580.28125 398.04688 580.8125 398.04688Q581.5 398.04688 581.9844 398.28125Q582.4844 398.51562 582.7969 398.9375Q583.125 399.34375 583.2656 399.92188Q583.4219 400.48438 583.4219 401.14062L583.4219 401.64062L578.6875 401.64062L578.6875 400.75L582.34375 400.75L582.34375 400.67188Q582.3125 400.25 582.15625 399.85938Q582.0156 399.45312 581.6875 399.20312Q581.375 398.9375 580.8125 398.9375Q580.4531 398.9375 580.1406 399.09375Q579.8281 399.25 579.59375 399.5625Q579.375 399.85938 579.25 400.29688Q579.1406 400.73438 579.1406 401.3125L579.1406 401.54688Q579.1406 402.0 579.2656 402.40625Q579.3906 402.79688 579.625 403.09375Q579.875 403.39062 580.21875 403.5625Q580.5781 403.73438 581.0156 403.73438Q581.59375 403.73438 581.9844 403.5Q582.3906 403.26562 582.6875 402.875L583.34375 403.39062Q583.1406 403.70312 582.8125 403.98438Q582.5 404.26562 582.03125 404.45312Q581.5781 404.625 580.9531 404.625ZM585.40625 399.51562L585.40625 404.5L584.3281 404.5L584.3281 398.15625L585.3594 398.15625L585.40625 399.51562ZM585.15625 401.09375L584.7031 401.07812Q584.7031 400.42188 584.8906 399.875Q585.0781 399.3125 585.4219 398.90625Q585.7656 398.5 586.2344 398.28125Q586.7031 398.04688 587.28125 398.04688Q587.75 398.04688 588.125 398.17188Q588.5 398.29688 588.7656 398.57812Q589.03125 398.84375 589.1719 399.28125Q589.3125 399.71875 589.3125 400.34375L589.3125 404.5L588.21875 404.5L588.21875 400.32812Q588.21875 399.82812 588.0781 399.53125Q587.9375 399.23438 587.65625 399.09375Q587.375 398.95312 586.9531 398.95312Q586.5469 398.95312 586.21875 399.125Q585.8906 399.29688 585.65625 399.59375Q585.4219 399.89062 585.28125 400.28125Q585.15625 400.65625 585.15625 401.09375Z" fill-rule="nonzero"/><path stroke="#000000" stroke-width="1.0" stroke-linecap="butt" d="M365.0 290.0L365.0 479.0" fill-rule="nonzero"/><path fill="#000000" d="M317.53125 512.34375Q317.53125 512.0469 317.4375 511.8125Q317.35938 511.57812 317.125 511.39062Q316.90625 511.20312 316.5 511.03125Q316.10938 510.85938 315.51562 510.6875Q314.875 510.5 314.35938 510.28125Q313.85938 510.04688 313.48438 509.75Q313.125 509.4375 312.9375 509.0625Q312.75 508.67188 312.75 508.17188Q312.75 507.67188 312.95312 507.25Q313.15625 506.82812 313.53125 506.51562Q313.92188 506.20312 314.45312 506.03125Q314.98438 505.84375 315.64062 505.84375Q316.60938 505.84375 317.28125 506.21875Q317.95312 506.57812 318.29688 507.17188Q318.65625 507.76562 318.65625 508.42188L317.53125 508.42188Q317.53125 507.95312 317.3125 507.57812Q317.10938 507.20312 316.6875 507.0Q316.28125 506.78125 315.64062 506.78125Q315.04688 506.78125 314.64062 506.96875Q314.25 507.14062 314.0625 507.45312Q313.875 507.76562 313.875 508.15625Q313.875 508.42188 313.98438 508.65625Q314.10938 508.875 314.34375 509.0625Q314.59375 509.25 314.96875 509.40625Q315.34375 509.5625 315.875 509.70312Q316.59375 509.90625 317.125 510.17188Q317.65625 510.42188 318.0 510.73438Q318.34375 511.04688 318.5 511.4375Q318.67188 511.82812 318.67188 512.3281Q318.67188 512.8594 318.45312 513.28125Q318.25 513.7031 317.85938 514.0Q317.46875 514.2969 316.92188 514.46875Q316.375 514.625 315.70312 514.625Q315.10938 514.625 314.53125 514.4531Q313.96875 514.28125 313.5 513.9531Q313.03125 513.625 312.75 513.15625Q312.46875 512.6719 312.46875 512.03125L313.59375 512.03125Q313.59375 512.46875 313.76562 512.78125Q313.9375 513.09375 314.23438 513.2969Q314.53125 513.5 314.90625 513.6094Q315.28125 513.7031 315.70312 513.7031Q316.29688 513.7031 316.70312 513.5469Q317.10938 513.375 317.3125 513.0781Q317.53125 512.7656 317.53125 512.34375ZM322.45312 514.625Q321.79688 514.625 321.25 514.40625Q320.71875 514.1719 320.32812 513.7656Q319.95312 513.34375 319.75 512.78125Q319.54688 512.21875 319.54688 511.54688L319.54688 511.3125Q319.54688 510.53125 319.76562 509.92188Q320.0 509.3125 320.39062 508.89062Q320.78125 508.46875 321.28125 508.26562Q321.78125 508.04688 322.3125 508.04688Q323.0 508.04688 323.48438 508.28125Q323.98438 508.51562 324.29688 508.9375Q324.625 509.34375 324.76562 509.92188Q324.92188 510.48438 324.92188 511.14062L324.92188 511.64062L320.1875 511.64062L320.1875 510.75L323.84375 510.75L323.84375 510.67188Q323.8125 510.25 323.65625 509.85938Q323.51562 509.45312 323.1875 509.20312Q322.875 508.9375 322.3125 508.9375Q321.95312 508.9375 321.64062 509.09375Q321.32812 509.25 321.09375 509.5625Q320.875 509.85938 320.75 510.29688Q320.64062 510.73438 320.64062 511.3125L320.64062 511.54688Q320.64062 512.0 320.76562 512.40625Q320.89062 512.7969 321.125 513.09375Q321.375 513.3906 321.71875 513.5625Q322.07812 513.7344 322.51562 513.7344Q323.09375 513.7344 323.48438 513.5Q323.89062 513.2656 324.1875 512.875L324.84375 513.3906Q324.64062 513.7031 324.3125 513.9844Q324.0 514.2656 323.53125 514.4531Q323.07812 514.625 322.45312 514.625ZM327.0 505.5L327.0 514.5L325.92188 514.5L325.92188 505.5L327.0 505.5ZM330.0 508.15625L330.0 514.5L328.92188 514.5L328.92188 508.15625L330.0 508.15625ZM328.82812 506.48438Q328.82812 506.21875 328.98438 506.03125Q329.15625 505.84375 329.46875 505.84375Q329.78125 505.84375 329.9375 506.03125Q330.10938 506.21875 330.10938 506.48438Q330.10938 506.73438 329.9375 506.92188Q329.78125 507.09375 329.46875 507.09375Q329.15625 507.09375 328.98438 506.92188Q328.82812 506.73438 328.82812 506.48438ZM332.90625 509.51562L332.90625 514.5L331.82812 514.5L331.82812 508.15625L332.85938 508.15625L332.90625 509.51562ZM332.65625 511.09375L332.20312 511.07812Q332.20312 510.42188 332.39062 509.875Q332.57812 509.3125 332.92188 508.90625Q333.26562 508.5 333.73438 508.28125Q334.20312 508.04688 334.78125 508.04688Q335.25 508.04688 335.625 508.17188Q336.0 508.29688 336.26562 508.57812Q336.53125 508.84375 336.67188 509.28125Q336.8125 509.71875 336.8125 510.34375L336.8125 514.5L335.71875 514.5L335.71875 510.32812Q335.71875 509.82812 335.57812 509.53125Q335.4375 509.23438 335.15625 509.09375Q334.875 508.95312 334.45312 508.95312Q334.04688 508.95312 333.71875 509.125Q333.39062 509.29688 333.15625 509.59375Q332.92188 509.89062 332.78125 510.28125Q332.65625 510.65625 332.65625 511.09375ZM342.5625 513.4219L342.5625 510.15625Q342.5625 509.78125 342.40625 509.5Q342.26562 509.21875 341.96875 509.07812Q341.67188 508.92188 341.23438 508.92188Q340.8125 508.92188 340.5 509.0625Q340.20312 509.20312 340.03125 509.4375Q339.85938 509.65625 339.85938 509.92188L338.78125 509.92188Q338.78125 509.57812 338.95312 509.25Q339.125 508.90625 339.45312 508.64062Q339.78125 508.35938 340.25 508.20312Q340.71875 508.04688 341.29688 508.04688Q341.98438 508.04688 342.51562 508.28125Q343.04688 508.51562 343.34375 508.98438Q343.65625 509.45312 343.65625 510.15625L343.65625 513.1094Q343.65625 513.4375 343.70312 513.7969Q343.76562 514.1406 343.875 514.40625L343.875 514.5L342.73438 514.5Q342.65625 514.3125 342.60938 514.0Q342.5625 513.6875 342.5625 513.4219ZM342.75 510.65625L342.76562 511.42188L341.67188 511.42188Q341.20312 511.42188 340.84375 511.5Q340.48438 511.5625 340.23438 511.71875Q339.98438 511.85938 339.85938 512.0781Q339.73438 512.2969 339.73438 512.59375Q339.73438 512.8906 339.85938 513.1406Q340.0 513.375 340.26562 513.53125Q340.54688 513.6719 340.9375 513.6719Q341.4375 513.6719 341.8125 513.46875Q342.20312 513.25 342.42188 512.9531Q342.65625 512.6406 342.67188 512.34375L343.14062 512.875Q343.09375 513.1094 342.90625 513.4219Q342.73438 513.71875 342.42188 514.0Q342.125 514.2656 341.70312 514.4531Q341.29688 514.625 340.78125 514.625Q340.14062 514.625 339.65625 514.375Q339.17188 514.1094 338.90625 513.6875Q338.64062 513.2656 338.64062 512.7344Q338.64062 512.21875 338.82812 511.84375Q339.03125 511.45312 339.40625 511.1875Q339.78125 510.92188 340.3125 510.79688Q340.84375 510.65625 341.5 510.65625L342.75 510.65625ZM348.07812 510.42188L348.07812 511.3125L345.21875 511.3125L345.21875 510.42188L348.07812 510.42188ZM350.29688 509.70312L351.0625 509.70312Q351.64062 509.70312 352.0 509.51562Q352.375 509.3125 352.5625 508.98438Q352.75 508.65625 352.75 508.23438Q352.75 507.75 352.57812 507.42188Q352.42188 507.07812 352.09375 506.90625Q351.76562 506.73438 351.26562 506.73438Q350.79688 506.73438 350.45312 506.92188Q350.10938 507.09375 349.90625 507.42188Q349.71875 507.75 349.71875 508.20312L348.625 508.20312Q348.625 507.54688 348.95312 507.01562Q349.28125 506.48438 349.875 506.17188Q350.46875 505.84375 351.26562 505.84375Q352.03125 505.84375 352.60938 506.125Q353.1875 506.39062 353.51562 506.9375Q353.84375 507.46875 353.84375 508.26562Q353.84375 508.59375 353.6875 508.95312Q353.53125 509.3125 353.21875 509.64062Q352.90625 509.95312 352.40625 510.15625Q351.92188 510.35938 351.21875 510.35938L350.29688 510.35938L350.29688 509.70312ZM350.29688 510.59375L350.29688 509.9375L351.21875 509.9375Q352.03125 509.9375 352.5625 510.14062Q353.09375 510.32812 353.40625 510.65625Q353.71875 510.96875 353.84375 511.35938Q353.96875 511.73438 353.96875 512.125Q353.96875 512.71875 353.76562 513.1875Q353.5625 513.6406 353.1875 513.96875Q352.82812 514.28125 352.32812 514.4531Q351.84375 514.625 351.26562 514.625Q350.70312 514.625 350.21875 514.46875Q349.73438 514.2969 349.35938 514.0Q348.98438 513.7031 348.76562 513.2656Q348.5625 512.8125 348.5625 512.25L349.64062 512.25Q349.64062 512.6875 349.82812 513.03125Q350.03125 513.3594 350.39062 513.5469Q350.76562 513.71875 351.26562 513.71875Q351.76562 513.71875 352.125 513.5469Q352.48438 513.375 352.67188 513.03125Q352.875 512.6719 352.875 512.1406Q352.875 511.60938 352.65625 511.26562Q352.4375 510.92188 352.01562 510.76562Q351.60938 510.59375 351.0625 510.59375L350.29688 510.59375ZM356.8125 513.2031L356.8125 514.0781Q356.8125 514.625 356.53125 515.21875Q356.26562 515.8125 355.78125 516.2031L355.17188 515.78125Q355.35938 515.5156 355.48438 515.25Q355.60938 514.9844 355.67188 514.7031Q355.75 514.4219 355.75 514.09375L355.75 513.2031L356.8125 513.2031ZM363.21875 505.96875L363.21875 506.57812L359.6875 514.5L358.54688 514.5L362.07812 506.85938L357.45312 506.85938L357.45312 505.96875L363.21875 505.96875ZM364.78125 511.09375L364.78125 511.03125Q364.78125 509.75 365.0625 508.71875Q365.35938 507.6875 365.79688 506.90625Q366.25 506.125 366.73438 505.60938Q367.23438 505.09375 367.65625 504.875L367.875 505.59375Q367.53125 505.84375 367.17188 506.3125Q366.82812 506.78125 366.53125 507.45312Q366.23438 508.125 366.04688 509.01562Q365.875 509.90625 365.875 511.01562L365.875 511.09375Q365.875 512.21875 366.04688 513.1094Q366.23438 514.0 366.53125 514.6719Q366.82812 515.3594 367.17188 515.8281Q367.53125 516.3125 367.875 516.59375L367.65625 517.25Q367.23438 517.03125 366.73438 516.5156Q366.25 516.0 365.79688 515.21875Q365.35938 514.4531 365.0625 513.4219Q364.78125 512.375 364.78125 511.09375ZM372.26562 505.92188L372.26562 514.5L371.1875 514.5L371.1875 507.28125L369.0 508.07812L369.0 507.09375L372.10938 505.92188L372.26562 505.92188ZM379.26562 505.92188L379.26562 514.5L378.1875 514.5L378.1875 507.28125L376.0 508.07812L376.0 507.09375L379.10938 505.92188L379.26562 505.92188ZM385.32812 511.03125L385.32812 511.09375Q385.32812 512.375 385.03125 513.4219Q384.75 514.4531 384.29688 515.21875Q383.85938 516.0 383.35938 516.5156Q382.875 517.03125 382.45312 517.25L382.23438 516.59375Q382.57812 516.3281 382.92188 515.8594Q383.28125 515.3906 383.57812 514.7031Q383.875 514.0156 384.04688 513.125Q384.23438 512.21875 384.23438 511.09375L384.23438 511.01562Q384.23438 509.90625 384.04688 509.01562Q383.85938 508.10938 383.54688 507.42188Q383.23438 506.73438 382.89062 506.26562Q382.54688 505.79688 382.23438 505.53125L382.45312 504.875Q382.875 505.09375 383.35938 505.60938Q383.85938 506.125 384.29688 506.90625Q384.75 507.6875 385.03125 508.71875Q385.32812 509.75 385.32812 511.03125ZM389.07812 510.42188L389.07812 511.3125L386.21875 511.3125L386.21875 510.42188L389.07812 510.42188ZM393.82812 513.2656L393.82812 505.5L394.90625 505.5L394.90625 514.5L393.92188 514.5L393.82812 513.2656ZM389.5625 511.40625L389.5625 511.28125Q389.5625 510.54688 389.73438 509.95312Q389.92188 509.35938 390.25 508.9375Q390.57812 508.5 391.03125 508.28125Q391.5 508.04688 392.0625 508.04688Q392.65625 508.04688 393.10938 508.25Q393.5625 508.45312 393.875 508.85938Q394.1875 509.25 394.35938 509.8125Q394.54688 510.35938 394.625 511.0625L394.625 511.60938Q394.5625 512.2969 394.375 512.8594Q394.1875 513.4219 393.875 513.8125Q393.5625 514.2031 393.10938 514.4219Q392.65625 514.625 392.04688 514.625Q391.5 514.625 391.03125 514.3906Q390.57812 514.1406 390.25 513.7031Q389.92188 513.2656 389.73438 512.6875Q389.5625 512.09375 389.5625 511.40625ZM390.64062 511.28125L390.64062 511.40625Q390.64062 511.875 390.73438 512.2969Q390.84375 512.7031 391.04688 513.03125Q391.25 513.34375 391.5625 513.53125Q391.89062 513.7031 392.32812 513.7031Q392.85938 513.7031 393.20312 513.46875Q393.5625 513.2344 393.76562 512.8594Q393.98438 512.4844 394.09375 512.0469L394.09375 510.64062Q394.03125 510.3125 393.89062 510.01562Q393.76562 509.71875 393.54688 509.48438Q393.34375 509.23438 393.04688 509.09375Q392.75 508.95312 392.32812 508.95312Q391.89062 508.95312 391.5625 509.14062Q391.25 509.32812 391.04688 509.65625Q390.84375 509.96875 390.73438 510.39062Q390.64062 510.79688 390.64062 511.28125ZM398.0 508.15625L398.0 514.5L396.92188 514.5L396.92188 508.15625L398.0 508.15625ZM396.82812 506.48438Q396.82812 506.21875 396.98438 506.03125Q397.15625 505.84375 397.46875 505.84375Q397.78125 505.84375 397.9375 506.03125Q398.10938 506.21875 398.10938 506.48438Q398.10938 506.73438 397.9375 506.92188Q397.78125 507.09375 397.46875 507.09375Q397.15625 507.09375 396.98438 506.92188Q396.82812 506.73438 396.82812 506.48438ZM402.45312 514.625Q401.79688 514.625 401.25 514.40625Q400.71875 514.1719 400.32812 513.7656Q399.95312 513.34375 399.75 512.78125Q399.54688 512.21875 399.54688 511.54688L399.54688 511.3125Q399.54688 510.53125 399.76562 509.92188Q400.0 509.3125 400.39062 508.89062Q400.78125 508.46875 401.28125 508.26562Q401.78125 508.04688 402.3125 508.04688Q403.0 508.04688 403.48438 508.28125Q403.98438 508.51562 404.29688 508.9375Q404.625 509.34375 404.76562 509.92188Q404.92188 510.48438 404.92188 511.14062L404.92188 511.64062L400.1875 511.64062L400.1875 510.75L403.84375 510.75L403.84375 510.67188Q403.8125 510.25 403.65625 509.85938Q403.51562 509.45312 403.1875 509.20312Q402.875 508.9375 402.3125 508.9375Q401.95312 508.9375 401.64062 509.09375Q401.32812 509.25 401.09375 509.5625Q400.875 509.85938 400.75 510.29688Q400.64062 510.73438 400.64062 511.3125L400.64062 511.54688Q400.64062 512.0 400.76562 512.40625Q400.89062 512.7969 401.125 513.09375Q401.375 513.3906 401.71875 513.5625Q402.07812 513.7344 402.51562 513.7344Q403.09375 513.7344 403.48438 513.5Q403.89062 513.2656 404.1875 512.875L404.84375 513.3906Q404.64062 513.7031 404.3125 513.9844Q404.0 514.2656 403.53125 514.4531Q403.07812 514.625 402.45312 514.625ZM406.90625 509.51562L406.90625 514.5L405.82812 514.5L405.82812 508.15625L406.85938 508.15625L406.90625 509.51562ZM406.65625 511.09375L406.20312 511.07812Q406.20312 510.42188 406.39062 509.875Q406.57812 509.3125 406.92188 508.90625Q407.26562 508.5 407.73438 508.28125Q408.20312 508.04688 408.78125 508.04688Q409.25 508.04688 409.625 508.17188Q410.0 508.29688 410.26562 508.57812Q410.53125 508.84375 410.67188 509.28125Q410.8125 509.71875 410.8125 510.34375L410.8125 514.5L409.71875 514.5L409.71875 510.32812Q409.71875 509.82812 409.57812 509.53125Q409.4375 509.23438 409.15625 509.09375Q408.875 508.95312 408.45312 508.95312Q408.04688 508.95312 407.71875 509.125Q407.39062 509.29688 407.15625 509.59375Q406.92188 509.89062 406.78125 510.28125Q406.65625 510.65625 406.65625 511.09375ZM415.45312 514.625Q414.79688 514.625 414.25 514.40625Q413.71875 514.1719 413.32812 513.7656Q412.95312 513.34375 412.75 512.78125Q412.54688 512.21875 412.54688 511.54688L412.54688 511.3125Q412.54688 510.53125 412.76562 509.92188Q413.0 509.3125 413.39062 508.89062Q413.78125 508.46875 414.28125 508.26562Q414.78125 508.04688 415.3125 508.04688Q416.0 508.04688 416.48438 508.28125Q416.98438 508.51562 417.29688 508.9375Q417.625 509.34375 417.76562 509.92188Q417.92188 510.48438 417.92188 511.14062L417.92188 511.64062L413.1875 511.64062L413.1875 510.75L416.84375 510.75L416.84375 510.67188Q416.8125 510.25 416.65625 509.85938Q416.51562 509.45312 416.1875 509.20312Q415.875 508.9375 415.3125 508.9375Q414.95312 508.9375 414.64062 509.09375Q414.32812 509.25 414.09375 509.5625Q413.875 509.85938 413.75 510.29688Q413.64062 510.73438 413.64062 511.3125L413.64062 511.54688Q413.64062 512.0 413.76562 512.40625Q413.89062 512.7969 414.125 513.09375Q414.375 513.3906 414.71875 513.5625Q415.07812 513.7344 415.51562 513.7344Q416.09375 513.7344 416.48438 513.5Q416.89062 513.2656 417.1875 512.875L417.84375 513.3906Q417.64062 513.7031 417.3125 513.9844Q417.0 514.2656 416.53125 514.4531Q416.07812 514.625 415.45312 514.625Z" fill-rule="nonzero"/><path stroke="#000000" stroke-width="1.0" stroke-linecap="butt" d="M365.0 290.0L201.0 385.0" fill-rule="nonzero"/><path fill="#000000" d="M156.84375 395.96875L157.9375 395.96875L160.73438 402.92188L163.53125 395.96875L164.625 395.96875L161.15625 404.5L160.3125 404.5L156.84375 395.96875ZM156.48438 395.96875L157.45312 395.96875L157.60938 401.17188L157.60938 404.5L156.48438 404.5L156.48438 395.96875ZM164.01562 395.96875L164.98438 395.96875L164.98438 404.5L163.85938 404.5L163.85938 401.17188L164.01562 395.96875ZM168.10938 403.84375L169.875 398.15625L171.03125 398.15625L168.48438 405.48438Q168.40625 405.71875 168.25 405.98438Q168.10938 406.26562 167.89062 406.5Q167.67188 406.75 167.35938 406.90625Q167.04688 407.0625 166.60938 407.0625Q166.48438 407.0625 166.28125 407.01562Q166.07812 406.98438 166.0 406.96875L166.0 406.09375Q166.04688 406.09375 166.14062 406.09375Q166.25 406.10938 166.28125 406.10938Q166.65625 406.10938 166.90625 406.01562Q167.17188 405.92188 167.34375 405.6875Q167.53125 405.46875 167.65625 405.07812L168.10938 403.84375ZM166.8125 398.15625L168.45312 403.07812L168.73438 404.21875L167.96875 404.625L165.625 398.15625L166.8125 398.15625ZM173.40625 399.15625L173.40625 404.5L172.32812 404.5L172.32812 398.15625L173.375 398.15625L173.40625 399.15625ZM175.39062 398.125L175.39062 399.125Q175.25 399.10938 175.125 399.09375Q175.01562 399.07812 174.85938 399.07812Q174.48438 399.07812 174.1875 399.20312Q173.90625 399.3125 173.70312 399.53125Q173.51562 399.73438 173.39062 400.03125Q173.28125 400.32812 173.25 400.67188L172.9375 400.84375Q172.9375 400.26562 173.04688 399.76562Q173.17188 399.26562 173.40625 398.875Q173.65625 398.48438 174.01562 398.26562Q174.39062 398.04688 174.90625 398.04688Q175.03125 398.04688 175.17188 398.07812Q175.32812 398.09375 175.39062 398.125ZM178.85938 403.71875Q179.25 403.71875 179.57812 403.5625Q179.90625 403.40625 180.10938 403.14062Q180.32812 402.85938 180.35938 402.5L181.39062 402.5Q181.35938 403.0625 181.0 403.54688Q180.65625 404.03125 180.09375 404.32812Q179.53125 404.625 178.85938 404.625Q178.15625 404.625 177.625 404.375Q177.09375 404.10938 176.73438 403.67188Q176.39062 403.23438 176.21875 402.67188Q176.04688 402.09375 176.04688 401.45312L176.04688 401.20312Q176.04688 400.5625 176.21875 400.0Q176.39062 399.42188 176.73438 398.98438Q177.09375 398.54688 177.625 398.29688Q178.15625 398.04688 178.85938 398.04688Q179.60938 398.04688 180.15625 398.34375Q180.71875 398.64062 181.03125 399.17188Q181.35938 399.6875 181.39062 400.34375L180.35938 400.34375Q180.32812 399.95312 180.14062 399.64062Q179.95312 399.3125 179.625 399.125Q179.29688 398.9375 178.85938 398.9375Q178.35938 398.9375 178.01562 399.14062Q177.6875 399.32812 177.48438 399.65625Q177.29688 399.98438 177.20312 400.39062Q177.125 400.79688 177.125 401.20312L177.125 401.45312Q177.125 401.875 177.20312 402.28125Q177.29688 402.67188 177.48438 403.0Q177.6875 403.32812 178.01562 403.53125Q178.35938 403.71875 178.85938 403.71875ZM184.95312 404.625Q184.29688 404.625 183.75 404.40625Q183.21875 404.17188 182.82812 403.76562Q182.45312 403.34375 182.25 402.78125Q182.04688 402.21875 182.04688 401.54688L182.04688 401.3125Q182.04688 400.53125 182.26562 399.92188Q182.5 399.3125 182.89062 398.89062Q183.28125 398.46875 183.78125 398.26562Q184.28125 398.04688 184.8125 398.04688Q185.5 398.04688 185.98438 398.28125Q186.48438 398.51562 186.79688 398.9375Q187.125 399.34375 187.26562 399.92188Q187.42188 400.48438 187.42188 401.14062L187.42188 401.64062L182.6875 401.64062L182.6875 400.75L186.34375 400.75L186.34375 400.67188Q186.3125 400.25 186.15625 399.85938Q186.01562 399.45312 185.6875 399.20312Q185.375 398.9375 184.8125 398.9375Q184.45312 398.9375 184.14062 399.09375Q183.82812 399.25 183.59375 399.5625Q183.375 399.85938 183.25 400.29688Q183.14062 400.73438 183.14062 401.3125L183.14062 401.54688Q183.14062 402.0 183.26562 402.40625Q183.39062 402.79688 183.625 403.09375Q183.875 403.39062 184.21875 403.5625Q184.57812 403.73438 185.01562 403.73438Q185.59375 403.73438 185.98438 403.5Q186.39062 403.26562 186.6875 402.875L187.34375 403.39062Q187.14062 403.70312 186.8125 403.98438Q186.5 404.26562 186.03125 404.45312Q185.57812 404.625 184.95312 404.625ZM189.40625 399.51562L189.40625 404.5L188.32812 404.5L188.32812 398.15625L189.35938 398.15625L189.40625 399.51562ZM189.15625 401.09375L188.70312 401.07812Q188.70312 400.42188 188.89062 399.875Q189.07812 399.3125 189.42188 398.90625Q189.76562 398.5 190.23438 398.28125Q190.70312 398.04688 191.28125 398.04688Q191.75 398.04688 192.125 398.17188Q192.5 398.29688 192.76562 398.57812Q193.03125 398.84375 193.17188 399.28125Q193.3125 399.71875 193.3125 400.34375L193.3125 404.5L192.21875 404.5L192.21875 400.32812Q192.21875 399.82812 192.07812 399.53125Q191.9375 399.23438 191.65625 399.09375Q191.375 398.95312 190.95312 398.95312Q190.54688 398.95312 190.21875 399.125Q189.89062 399.29688 189.65625 399.59375Q189.42188 399.89062 189.28125 400.28125Q189.15625 400.65625 189.15625 401.09375Z" fill-rule="nonzero"/><path stroke="#000000" stroke-width="1.0" stroke-linecap="butt" d="M365.0 290.0L201.0 195.0" fill-rule="nonzero"/><path fill="#000000" d="M157.03125 182.34375Q157.03125 182.04688 156.9375 181.8125Q156.85938 181.57812 156.625 181.39062Q156.40625 181.20312 156.0 181.03125Q155.60938 180.85938 155.01562 180.6875Q154.375 180.5 153.85938 180.28125Q153.35938 180.04688 152.98438 179.75Q152.625 179.4375 152.4375 179.0625Q152.25 178.67188 152.25 178.17188Q152.25 177.67188 152.45312 177.25Q152.65625 176.82812 153.03125 176.51562Q153.42188 176.20312 153.95312 176.03125Q154.48438 175.84375 155.14062 175.84375Q156.10938 175.84375 156.78125 176.21875Q157.45312 176.57812 157.79688 177.17188Q158.15625 177.76562 158.15625 178.42188L157.03125 178.42188Q157.03125 177.95312 156.8125 177.57812Q156.60938 177.20312 156.1875 177.0Q155.78125 176.78125 155.14062 176.78125Q154.54688 176.78125 154.14062 176.96875Q153.75 177.14062 153.5625 177.45312Q153.375 177.76562 153.375 178.15625Q153.375 178.42188 153.48438 178.65625Q153.60938 178.875 153.84375 179.0625Q154.09375 179.25 154.46875 179.40625Q154.84375 179.5625 155.375 179.70312Q156.09375 179.90625 156.625 180.17188Q157.15625 180.42188 157.5 180.73438Q157.84375 181.04688 158.0 181.4375Q158.17188 181.82812 158.17188 182.32812Q158.17188 182.85938 157.95312 183.28125Q157.75 183.70312 157.35938 184.0Q156.96875 184.29688 156.42188 184.46875Q155.875 184.625 155.20312 184.625Q154.60938 184.625 154.03125 184.45312Q153.46875 184.28125 153.0 183.95312Q152.53125 183.625 152.25 183.15625Q151.96875 182.67188 151.96875 182.03125L153.09375 182.03125Q153.09375 182.46875 153.26562 182.78125Q153.4375 183.09375 153.73438 183.29688Q154.03125 183.5 154.40625 183.60938Q154.78125 183.70312 155.20312 183.70312Q155.79688 183.70312 156.20312 183.54688Q156.60938 183.375 156.8125 183.07812Q157.03125 182.76562 157.03125 182.34375ZM159.04688 181.40625L159.04688 181.26562Q159.04688 180.57812 159.23438 180.0Q159.4375 179.40625 159.8125 178.96875Q160.1875 178.53125 160.71875 178.29688Q161.25 178.04688 161.92188 178.04688Q162.57812 178.04688 163.10938 178.29688Q163.65625 178.53125 164.03125 178.96875Q164.40625 179.40625 164.60938 180.0Q164.8125 180.57812 164.8125 181.26562L164.8125 181.40625Q164.8125 182.07812 164.60938 182.67188Q164.40625 183.25 164.03125 183.6875Q163.65625 184.125 163.125 184.375Q162.59375 184.625 161.92188 184.625Q161.26562 184.625 160.71875 184.375Q160.1875 184.125 159.8125 183.6875Q159.4375 183.25 159.23438 182.67188Q159.04688 182.07812 159.04688 181.40625ZM160.125 181.26562L160.125 181.40625Q160.125 181.875 160.23438 182.29688Q160.34375 182.71875 160.5625 183.04688Q160.79688 183.35938 161.14062 183.54688Q161.48438 183.71875 161.92188 183.71875Q162.375 183.71875 162.70312 183.54688Q163.04688 183.35938 163.26562 183.04688Q163.5 182.71875 163.60938 182.29688Q163.71875 181.875 163.71875 181.40625L163.71875 181.26562Q163.71875 180.79688 163.60938 180.375Q163.5 179.95312 163.26562 179.64062Q163.04688 179.3125 162.70312 179.125Q162.375 178.9375 161.92188 178.9375Q161.46875 178.9375 161.125 179.125Q160.79688 179.3125 160.5625 179.64062Q160.34375 179.95312 160.23438 180.375Q160.125 180.79688 160.125 181.26562ZM167.40625 179.51562L167.40625 184.5L166.32812 184.5L166.32812 178.15625L167.35938 178.15625L167.40625 179.51562ZM167.15625 181.09375L166.70312 181.07812Q166.70312 180.42188 166.89062 179.875Q167.07812 179.3125 167.42188 178.90625Q167.76562 178.5 168.23438 178.28125Q168.70312 178.04688 169.28125 178.04688Q169.75 178.04688 170.125 178.17188Q170.5 178.29688 170.76562 178.57812Q171.03125 178.84375 171.17188 179.28125Q171.3125 179.71875 171.3125 180.34375L171.3125 184.5L170.21875 184.5L170.21875 180.32812Q170.21875 179.82812 170.07812 179.53125Q169.9375 179.23438 169.65625 179.09375Q169.375 178.95312 168.95312 178.95312Q168.54688 178.95312 168.21875 179.125Q167.89062 179.29688 167.65625 179.59375Q167.42188 179.89062 167.28125 180.28125Q167.15625 180.65625 167.15625 181.09375ZM177.01562 182.8125Q177.01562 182.57812 176.90625 182.375Q176.8125 182.17188 176.5 182.01562Q176.1875 181.84375 175.5625 181.71875Q175.03125 181.60938 174.60938 181.46875Q174.1875 181.3125 173.89062 181.09375Q173.59375 180.875 173.4375 180.57812Q173.28125 180.28125 173.28125 179.89062Q173.28125 179.51562 173.4375 179.1875Q173.60938 178.84375 173.90625 178.59375Q174.21875 178.32812 174.65625 178.1875Q175.09375 178.04688 175.625 178.04688Q176.39062 178.04688 176.92188 178.3125Q177.46875 178.57812 177.75 179.03125Q178.03125 179.48438 178.03125 180.01562L176.95312 180.01562Q176.95312 179.76562 176.79688 179.51562Q176.64062 179.26562 176.34375 179.10938Q176.04688 178.9375 175.625 178.9375Q175.17188 178.9375 174.89062 179.07812Q174.60938 179.20312 174.48438 179.42188Q174.35938 179.625 174.35938 179.85938Q174.35938 180.04688 174.42188 180.1875Q174.48438 180.3125 174.64062 180.4375Q174.79688 180.54688 175.07812 180.65625Q175.375 180.75 175.82812 180.84375Q176.60938 181.01562 177.10938 181.26562Q177.60938 181.51562 177.85938 181.875Q178.10938 182.21875 178.10938 182.73438Q178.10938 183.15625 177.92188 183.5Q177.75 183.84375 177.42188 184.09375Q177.10938 184.34375 176.65625 184.48438Q176.20312 184.625 175.65625 184.625Q174.8125 184.625 174.23438 184.32812Q173.65625 184.01562 173.35938 183.54688Q173.0625 183.0625 173.0625 182.54688L174.14062 182.54688Q174.17188 182.98438 174.40625 183.25Q174.64062 183.51562 174.96875 183.625Q175.3125 183.71875 175.65625 183.71875Q176.09375 183.71875 176.39062 183.60938Q176.70312 183.48438 176.85938 183.28125Q177.01562 183.07812 177.01562 182.8125ZM181.98438 178.15625L181.98438 178.98438L178.54688 178.98438L178.54688 178.15625L181.98438 178.15625ZM179.71875 176.625L180.79688 176.625L180.79688 182.92188Q180.79688 183.25 180.89062 183.42188Q181.0 183.57812 181.15625 183.64062Q181.3125 183.6875 181.5 183.6875Q181.625 183.6875 181.76562 183.65625Q181.92188 183.625 182.0 183.60938L182.01562 184.5Q181.875 184.54688 181.67188 184.57812Q181.46875 184.625 181.17188 184.625Q180.78125 184.625 180.4375 184.46875Q180.10938 184.29688 179.90625 183.9375Q179.71875 183.5625 179.71875 182.92188L179.71875 176.625ZM184.5 178.15625L184.5 184.5L183.42188 184.5L183.42188 178.15625L184.5 178.15625ZM183.32812 176.48438Q183.32812 176.21875 183.48438 176.03125Q183.65625 175.84375 183.96875 175.84375Q184.28125 175.84375 184.4375 176.03125Q184.60938 176.21875 184.60938 176.48438Q184.60938 176.73438 184.4375 176.92188Q184.28125 177.09375 183.96875 177.09375Q183.65625 177.09375 183.48438 176.92188Q183.32812 176.73438 183.32812 176.48438ZM190.4375 178.15625L191.42188 178.15625L191.42188 184.35938Q191.42188 185.20312 191.07812 185.79688Q190.73438 186.39062 190.125 186.6875Q189.53125 187.0 188.73438 187.0Q188.40625 187.0 187.95312 186.89062Q187.51562 186.79688 187.09375 186.54688Q186.67188 186.3125 186.39062 185.90625L186.95312 185.25Q187.35938 185.73438 187.78125 185.92188Q188.21875 186.10938 188.65625 186.10938Q189.17188 186.10938 189.54688 185.90625Q189.92188 185.71875 190.125 185.34375Q190.32812 184.96875 190.32812 184.42188L190.32812 179.54688L190.4375 178.15625ZM186.0625 181.40625L186.0625 181.28125Q186.0625 180.54688 186.23438 179.95312Q186.42188 179.35938 186.73438 178.9375Q187.0625 178.5 187.51562 178.28125Q187.98438 178.04688 188.57812 178.04688Q189.17188 178.04688 189.60938 178.25Q190.0625 178.45312 190.375 178.85938Q190.6875 179.25 190.875 179.8125Q191.0625 180.35938 191.125 181.0625L191.125 181.60938Q191.0625 182.29688 190.875 182.85938Q190.6875 183.42188 190.375 183.8125Q190.0625 184.20312 189.60938 184.42188Q189.15625 184.625 188.5625 184.625Q187.98438 184.625 187.53125 184.39062Q187.07812 184.14062 186.75 183.70312Q186.42188 183.26562 186.23438 182.6875Q186.0625 182.09375 186.0625 181.40625ZM187.15625 181.28125L187.15625 181.40625Q187.15625 181.875 187.25 182.29688Q187.34375 182.70312 187.54688 183.03125Q187.75 183.34375 188.0625 183.53125Q188.39062 183.70312 188.82812 183.70312Q189.35938 183.70312 189.70312 183.46875Q190.0625 183.23438 190.26562 182.85938Q190.48438 182.48438 190.59375 182.04688L190.59375 180.64062Q190.53125 180.3125 190.39062 180.01562Q190.26562 179.71875 190.0625 179.48438Q189.85938 179.23438 189.54688 179.09375Q189.25 178.95312 188.82812 178.95312Q188.39062 178.95312 188.0625 179.14062Q187.75 179.32812 187.54688 179.65625Q187.34375 179.96875 187.25 180.39062Q187.15625 180.79688 187.15625 181.28125ZM195.95312 184.625Q195.29688 184.625 194.75 184.40625Q194.21875 184.17188 193.82812 183.76562Q193.45312 183.34375 193.25 182.78125Q193.04688 182.21875 193.04688 181.54688L193.04688 181.3125Q193.04688 180.53125 193.26562 179.92188Q193.5 179.3125 193.89062 178.89062Q194.28125 178.46875 194.78125 178.26562Q195.28125 178.04688 195.8125 178.04688Q196.5 178.04688 196.98438 178.28125Q197.48438 178.51562 197.79688 178.9375Q198.125 179.34375 198.26562 179.92188Q198.42188 180.48438 198.42188 181.14062L198.42188 181.64062L193.6875 181.64062L193.6875 180.75L197.34375 180.75L197.34375 180.67188Q197.3125 180.25 197.15625 179.85938Q197.01562 179.45312 196.6875 179.20312Q196.375 178.9375 195.8125 178.9375Q195.45312 178.9375 195.14062 179.09375Q194.82812 179.25 194.59375 179.5625Q194.375 179.85938 194.25 180.29688Q194.14062 180.73438 194.14062 181.3125L194.14062 181.54688Q194.14062 182.0 194.26562 182.40625Q194.39062 182.79688 194.625 183.09375Q194.875 183.39062 195.21875 183.5625Q195.57812 183.73438 196.01562 183.73438Q196.59375 183.73438 196.98438 183.5Q197.39062 183.26562 197.6875 182.875L198.34375 183.39062Q198.14062 183.70312 197.8125 183.98438Q197.5 184.26562 197.03125 184.45312Q196.57812 184.625 195.95312 184.625Z" fill-rule="nonzero"/><path stroke="#000000" stroke-width="1.0" stroke-linecap="butt" d="M365.0 290.0L365.0 101.0" fill-rule="nonzero"/><path stroke="#ff0000" stroke-width="2.0" stroke-linecap="butt" stroke-dasharray="8.0,6.0,2.0,6.0" d="M365.0 195.0L439.0 247.0L406.0 314.0L365.0 323.0L336.0 307.0L209.0 200.0Z" fill-rule="nonzero"/><path fill="#ff0000" d="M371.0 195.0C371.0 198.3137 368.31372 201.0 365.0 201.0C361.68628 201.0 359.0 198.3137 359.0 195.0C359.0 191.6863 361.68628 189.0 365.0 189.0C368.31372 189.0 371.0 191.6863 371.0 195.0Z" fill-rule="nonzero"/><path fill="#ff0000" d="M445.0 247.0C445.0 250.3137 442.31372 253.0 439.0 253.0C435.68628 253.0 433.0 250.3137 433.0 247.0C433.0 243.6863 435.68628 241.0 439.0 241.0C442.31372 241.0 445.0 243.6863 445.0 247.0Z" fill-rule="nonzero"/><path fill="#ff0000" d="M412.0 314.0C412.0 317.31372 409.31372 320.0 406.0 320.0C402.68628 320.0 400.0 317.31372 400.0 314.0C400.0 310.68628 402.68628 308.0 406.0 308.0C409.31372 308.0 412.0 310.68628 412.0 314.0Z" fill-rule="nonzero"/><path fill="#ff0000" d="M371.0 323.0C371.0 326.31372 368.31372 329.0 365.0 329.0C361.68628 329.0 359.0 326.31372 359.0 323.0C359.0 319.68628 361.68628 317.0 365.0 317.0C368.31372 317.0 371.0 319.68628 371.0 323.0Z" fill-rule="nonzero"/><path fill="#ff0000" d="M342.0 307.0C342.0 310.31372 339.31372 313.0 336.0 313.0C332.68628 313.0 330.0 310.31372 330.0 307.0C330.0 303.68628 332.68628 301.0 336.0 301.0C339.31372 301.0 342.0 303.68628 342.0 307.0Z" fill-rule="nonzero"/><path fill="#ff0000" d="M215.0 200.0C215.0 203.3137 212.3137 206.0 209.0 206.0C205.6863 206.0 203.0 203.3137 203.0 200.0C203.0 196.6863 205.6863 194.0 209.0 194.0C212.3137 194.0 215.0 196.6863 215.0 200.0Z" fill-rule="nonzero"/><path fill="#757575" d="M28.36875 44.9L28.36875 30.587502L33.74375 30.587502Q35.384377 30.587502 36.36875 31.025002Q37.353127 31.446877 37.915627 32.353127Q38.478127 33.259377 38.478127 34.24375Q38.478127 35.165627 37.978127 35.978127Q37.49375 36.790627 36.478127 37.275Q37.775 37.665627 38.478127 38.5875Q39.18125 39.49375 39.18125 40.74375Q39.18125 41.759377 38.74375 42.61875Q38.321877 43.478127 37.696877 43.946877Q37.071877 44.415627 36.134377 44.665627Q35.196877 44.9 33.821877 44.9L28.36875 44.9ZM30.259375 36.603127L33.353127 36.603127Q34.61875 36.603127 35.165627 36.43125Q35.884377 36.2125 36.24375 35.728127Q36.61875 35.228127 36.61875 34.4625Q36.61875 33.759377 36.275 33.2125Q35.93125 32.665627 35.290627 32.478127Q34.665627 32.275 33.11875 32.275L30.259375 32.275L30.259375 36.603127ZM30.259375 43.2125L33.821877 43.2125Q34.74375 43.2125 35.11875 43.134377Q35.775 43.025 36.2125 42.759377Q36.65 42.478127 36.93125 41.9625Q37.2125 41.43125 37.2125 40.74375Q37.2125 39.946877 36.80625 39.353127Q36.4 38.759377 35.665627 38.525Q34.93125 38.290627 33.571877 38.290627L30.259375 38.290627L30.259375 43.2125ZM41.18125 44.9L41.18125 30.587502L42.93125 30.587502L42.93125 44.9L41.18125 44.9ZM45.228127 32.603127L45.228127 30.587502L46.99375 30.587502L46.99375 32.603127L45.228127 32.603127ZM45.228127 44.9L45.228127 34.525L46.99375 34.525L46.99375 44.9L45.228127 44.9ZM49.2125 44.9L49.2125 34.525L50.80625 34.525L50.80625 36.009377Q51.946877 34.290627 54.103127 34.290627Q55.040627 34.290627 55.821877 34.634377Q56.61875 34.9625 57.009377 35.509377Q57.4 36.05625 57.55625 36.80625Q57.65 37.30625 57.65 38.525L57.65 44.9L55.884377 44.9L55.884377 38.5875Q55.884377 37.509377 55.68125 36.978127Q55.478127 36.446877 54.946877 36.134377Q54.43125 35.821877 53.728127 35.821877Q52.603127 35.821877 51.790627 36.540627Q50.978127 37.24375 50.978127 39.228127L50.978127 44.9L49.2125 44.9ZM58.9 45.759377L60.603127 46.009377Q60.7125 46.80625 61.196877 47.165627Q61.853127 47.65 62.99375 47.65Q64.2125 47.65 64.86875 47.165627Q65.54063 46.68125 65.775 45.80625Q65.91563 45.259377 65.9 43.540627Q64.74375 44.9 63.025 44.9Q60.884377 44.9 59.7125 43.353127Q58.540627 41.80625 58.540627 39.65Q58.540627 38.165627 59.071877 36.915627Q59.61875 35.665627 60.634377 34.978127Q61.665627 34.290627 63.040627 34.290627Q64.86875 34.290627 66.07188 35.775L66.07188 34.525L67.68125 34.525L67.68125 43.49375Q67.68125 45.915627 67.18125 46.915627Q66.69688 47.93125 65.61875 48.509377Q64.55625 49.103127 62.99375 49.103127Q61.15 49.103127 59.99375 48.275Q58.853127 47.446877 58.9 45.759377ZM60.353127 39.525Q60.353127 41.571877 61.165627 42.509377Q61.978127 43.446877 63.196877 43.446877Q64.4 43.446877 65.2125 42.509377Q66.04063 41.571877 66.04063 39.5875Q66.04063 37.68125 65.19688 36.7125Q64.35313 35.74375 63.165627 35.74375Q61.99375 35.74375 61.165627 36.696877Q60.353127 37.65 60.353127 39.525ZM76.36875 44.9L76.36875 30.587502L81.74375 30.587502Q83.38438 30.587502 84.36875 31.025002Q85.35313 31.446877 85.91563 32.353127Q86.47813 33.259377 86.47813 34.24375Q86.47813 35.165627 85.97813 35.978127Q85.49375 36.790627 84.47813 37.275Q85.775 37.665627 86.47813 38.5875Q87.18125 39.49375 87.18125 40.74375Q87.18125 41.759377 86.74375 42.61875Q86.32188 43.478127 85.69688 43.946877Q85.07188 44.415627 84.13438 44.665627Q83.19688 44.9 81.82188 44.9L76.36875 44.9ZM78.25938 36.603127L81.35313 36.603127Q82.61875 36.603127 83.16563 36.43125Q83.88438 36.2125 84.24375 35.728127Q84.61875 35.228127 84.61875 34.4625Q84.61875 33.759377 84.275 33.2125Q83.93125 32.665627 83.29063 32.478127Q82.66563 32.275 81.11875 32.275L78.25938 32.275L78.25938 36.603127ZM78.25938 43.2125L81.82188 43.2125Q82.74375 43.2125 83.11875 43.134377Q83.775 43.025 84.2125 42.759377Q84.65 42.478127 84.93125 41.9625Q85.2125 41.43125 85.2125 40.74375Q85.2125 39.946877 84.80625 39.353127Q84.4 38.759377 83.66563 38.525Q82.93125 38.290627 81.57188 38.290627L78.25938 38.290627L78.25938 43.2125ZM89.18125 44.9L89.18125 30.587502L90.93125 30.587502L90.93125 44.9L89.18125 44.9ZM99.99375 43.61875Q99.00938 44.446877 98.10313 44.790627Q97.19688 45.134377 96.16563 45.134377Q94.4625 45.134377 93.54063 44.30625Q92.61875 43.4625 92.61875 42.165627Q92.61875 41.4 92.9625 40.775Q93.32188 40.15 93.88438 39.775Q94.44688 39.384377 95.15 39.18125Q95.66563 39.05625 96.7125 38.915627Q98.8375 38.665627 99.8375 38.321877Q99.85313 37.9625 99.85313 37.853127Q99.85313 36.790627 99.35313 36.3375Q98.68125 35.74375 97.35313 35.74375Q96.10313 35.74375 95.50938 36.18125Q94.93125 36.61875 94.65 37.728127L92.93125 37.49375Q93.16563 36.384377 93.69688 35.7125Q94.22813 35.025 95.24375 34.665627Q96.25938 34.290627 97.60313 34.290627Q98.93125 34.290627 99.75938 34.603127Q100.5875 34.915627 100.97813 35.4Q101.36875 35.86875 101.525 36.5875Q101.61875 37.040627 101.61875 38.2125L101.61875 40.55625Q101.61875 43.009377 101.72813 43.665627Q101.8375 44.30625 102.18125 44.9L100.3375 44.9Q100.07188 44.353127 99.99375 43.61875ZM99.8375 39.696877Q98.88438 40.0875 96.9625 40.353127Q95.88438 40.509377 95.43125 40.7125Q94.99375 40.9 94.74375 41.275Q94.49375 41.65 94.49375 42.11875Q94.49375 42.821877 95.025 43.290627Q95.55625 43.759377 96.5875 43.759377Q97.60313 43.759377 98.38438 43.321877Q99.18125 42.86875 99.55625 42.103127Q99.8375 41.49375 99.8375 40.3375L99.8375 39.696877ZM103.57188 39.7125Q103.57188 36.8375 105.16563 35.446877Q106.50938 34.290627 108.43125 34.290627Q110.57188 34.290627 111.91563 35.696877Q113.275 37.103127 113.275 39.571877Q113.275 41.571877 112.68125 42.728127Q112.0875 43.86875 110.93125 44.509377Q109.79063 45.134377 108.43125 45.134377Q106.24375 45.134377 104.9 43.74375Q103.57188 42.3375 103.57188 39.7125ZM105.36875 39.7125Q105.36875 41.7125 106.22813 42.696877Q107.10313 43.68125 108.43125 43.68125Q109.74375 43.68125 110.60313 42.696877Q111.47813 41.696877 111.47813 39.65Q111.47813 37.728127 110.60313 36.74375Q109.72813 35.74375 108.43125 35.74375Q107.10313 35.74375 106.22813 36.74375Q105.36875 37.728127 105.36875 39.7125ZM117.13438 44.9L113.9625 34.525L115.775 34.525L117.43125 40.509377L118.04063 42.74375Q118.0875 42.571877 118.57188 40.603127L120.22813 34.525L122.04063 34.525L123.5875 40.540627L124.10313 42.525L124.69688 40.525L126.47813 34.525L128.18124 34.525L124.94688 44.9L123.11875 44.9L121.4625 38.68125L121.07188 36.915627L118.9625 44.9L117.13438 44.9Z" fill-rule="nonzero"/></svg>