<svg version="1.1" viewBox="0.0 0.0 730.0 538.0" fill="none" stroke="none" stroke-linecap="square" stroke-miterlimit="10" width="730" height="538" xmlns:xlink="http://www.w3.org/1999/xlink" xmlns="http://www.w3.org/2000/svg"><path fill="#ffffff" d="M0 0L730.0 0L730.0 538.0L0 538.0L0 0Z" fill-rule="nonzero"/><path fill="#ffffff" d="M26.9 68.833336L703.10004 68.833336L703.10004 511.1L26.9 511.1L26.9 68.833336Z" fill-rule="nonzero"/><path stroke="#000000" stroke-width="1.0" stroke-linecap="butt" d="M365.0 290.0C365.0 290.0 365.0 290.0 365.0 290.0C365.0 290.0 365.0 290.0 365.0 290.0C365.0 290.0 365.0 290.0 365.0 290.0C365.0 290.0 365.0 290.0 365.0 290.0" fill-rule="nonzero"/><path fill="#000000" d="M353.0625 282.04688L353.0625 283.35938Q353.0625 284.40625 352.875 285.125Q352.6875 285.84375 352.32812 286.28125Q351.98438 286.71875 351.48438 286.92188Q351.0 287.125 350.375 287.125Q349.89062 287.125 349.46875 287.0Q349.04688 286.875 348.71875 286.60938Q348.39062 286.32812 348.15625 285.89062Q347.92188 285.45312 347.79688 284.82812Q347.67188 284.1875 347.67188 283.35938L347.67188 282.04688Q347.67188 281.0 347.85938 280.29688Q348.0625 279.59375 348.40625 279.15625Q348.76562 278.71875 349.25 278.53125Q349.75 278.34375 350.35938 278.34375Q350.85938 278.34375 351.28125 278.46875Q351.70312 278.59375 352.03125 278.85938Q352.35938 279.10938 352.57812 279.54688Q352.8125 279.96875 352.9375 280.59375Q353.0625 281.21875 353.0625 282.04688ZM351.96875 283.53125L351.96875 281.875Q351.96875 281.29688 351.90625 280.85938Q351.84375 280.42188 351.70312 280.10938Q351.57812 279.79688 351.375 279.60938Q351.1875 279.42188 350.9375 279.32812Q350.6875 279.23438 350.35938 279.23438Q349.98438 279.23438 349.67188 279.375Q349.375 279.51562 349.17188 279.82812Q348.96875 280.14062 348.85938 280.65625Q348.76562 281.15625 348.76562 281.875L348.76562 283.53125Q348.76562 284.10938 348.82812 284.54688Q348.90625 284.98438 349.03125 285.3125Q349.17188 285.625 349.35938 285.82812Q349.5625 286.03125 349.8125 286.125Q350.0625 286.21875 350.375 286.21875Q350.78125 286.21875 351.07812 286.07812Q351.375 285.92188 351.57812 285.59375Q351.78125 285.26562 351.875 284.76562Q351.96875 284.25 351.96875 283.53125ZM355.8125 285.70312L355.8125 286.57812Q355.8125 287.125 355.53125 287.71875Q355.26562 288.3125 354.78125 288.70312L354.17188 288.28125Q354.35938 288.01562 354.48438 287.75Q354.60938 287.48438 354.67188 287.20312Q354.75 286.92188 354.75 286.59375L354.75 285.70312L355.8125 285.70312ZM362.0625 282.04688L362.0625 283.35938Q362.0625 284.40625 361.875 285.125Q361.6875 285.84375 361.32812 286.28125Q360.98438 286.71875 360.48438 286.92188Q360.0 287.125 359.375 287.125Q358.89062 287.125 358.46875 287.0Q358.04688 286.875 357.71875 286.60938Q357.39062 286.32812 357.15625 285.89062Q356.92188 285.45312 356.79688 284.82812Q356.67188 284.1875 356.67188 283.35938L356.67188 282.04688Q356.67188 281.0 356.85938 280.29688Q357.0625 279.59375 357.40625 279.15625Q357.76562 278.71875 358.25 278.53125Q358.75 278.34375 359.35938 278.34375Q359.85938 278.34375 360.28125 278.46875Q360.70312 278.59375 361.03125 278.85938Q361.35938 279.10938 361.57812 279.54688Q361.8125 279.96875 361.9375 280.59375Q362.0625 281.21875 362.0625 282.04688ZM360.96875 283.53125L360.96875 281.875Q360.96875 281.29688 360.90625 280.85938Q360.84375 280.42188 360.70312 280.10938Q360.57812 279.79688 360.375 279.60938Q360.1875 279.42188 359.9375 279.32812Q359.6875 279.23438 359.35938 279.23438Q358.98438 279.23438 358.67188 279.375Q358.375 279.51562 358.17188 279.82812Q357.96875 280.14062 357.85938 280.65625Q357.76562 281.15625 357.76562 281.875L357.76562 283.53125Q357.76562 284.10938 357.82812 284.54688Q357.90625 284.98438 358.03125 285.3125Q358.17188 285.625 358.35938 285.82812Q358.5625 286.03125 358.8125 286.125Q359.0625 286.21875 359.375 286.21875Q359.78125 286.21875 360.07812 286.07812Q360.375 285.92188 360.57812 285.59375Q360.78125 285.26562 360.875 284.76562Q360.96875 284.25 360.96875 283.53125Z" fill-rule="nonzero"/><path stroke="#000000" stroke-width="1.0" stroke-linecap="butt" d="M412.28333 290.0C412.28333 263.88614 391.11386 242.71666 365.0 242.71666C338.88614 242.71666 317.71667 263.88614 317.71667 290.0C317.71667 316.11386 338.88614 337.28333 365.0 337.28333C391.11386 337.28333 412.28333 316.11386 412.28333 290.0" fill-rule="nonzero"/><path fill="#000000" d="M353.0625 234.76353L353.0625 236.07603Q353.0625 237.12291 352.875 237.84166Q352.6875 238.56041 352.32812 238.99791Q351.98438 239.43541 351.48438 239.63853Q351.0 239.84166 350.375 239.84166Q349.89062 239.84166 349.46875 239.71666Q349.04688 239.59166 348.71875 239.32603Q348.39062 239.04478 348.15625 238.60728Q347.92188 238.16978 347.79688 237.54478Q347.67188 236.90416 347.67188 236.07603L347.67188 234.76353Q347.67188 233.71666 347.85938 233.01353Q348.0625 232.31041 348.40625 231.87291Q348.76562 231.43541 349.25 231.24791Q349.75 231.06041 350.35938 231.06041Q350.85938 231.06041 351.28125 231.18541Q351.70312 231.31041 352.03125 231.57603Q352.35938 231.82603 352.57812 232.26353Q352.8125 232.68541 352.9375 233.31041Q353.0625 233.93541 353.0625 234.76353ZM351.96875 236.24791L351.96875 234.59166Q351.96875 234.01353 351.90625 233.57603Q351.84375 233.13853 351.70312 232.82603Q351.57812 232.51353 351.375 232.32603Q351.1875 232.13853 350.9375 232.04478Q350.6875 231.95103 350.35938 231.95103Q349.98438 231.95103 349.67188 232.09166Q349.375 232.23228 349.17188 232.54478Q348.96875 232.85728 348.85938 233.37291Q348.76562 233.87291 348.76562 234.59166L348.76562 236.24791Q348.76562 236.82603 348.82812 237.26353Q348.90625 237.70103 349.03125 238.02916Q349.17188 238.34166 349.35938 238.54478Q349.5625 238.74791 349.8125 238.84166Q350.0625 238.93541 350.375 238.93541Q350.78125 238.93541 351.07812 238.79478Q351.375 238.63853 351.57812 238.31041Q351.78125 237.98228 351.875 237.48228Q351.96875 236.96666 351.96875 236.24791ZM355.8125 238.41978L355.8125 239.29478Q355.8125 239.84166 355.53125 240.43541Q355.26562 241.02916 354.78125 241.41978L354.17188 240.99791Q354.35938 240.73228 354.48438 240.46666Q354.60938 240.20103 354.67188 239.91978Q354.75 239.63853 354.75 239.31041L354.75 238.41978L355.8125 238.41978ZM360.26562 231.13853L360.26562 239.71666L359.1875 239.71666L359.1875 232.49791L357.0 233.29478L357.0 232.31041L360.10938 231.13853L360.26562 231.13853Z" fill-rule="nonzero"/><path stroke="#000000" stroke-width="1.0" stroke-linecap="butt" d="M459.56668 290.0C459.56668 237.77228 417.22772 195.43333 365.0 195.43333C312.77228 195.43333 270.43332 237.77228 270.43332 290.0C270.43332 342.22772 312.77228 384.56668 365.0 384.56668C417.22772 384.56668 459.56668 342.22772 459.56668 290.0" fill-rule="nonzero"/><path fill="#000000" d="M353.0625 187.48021L353.0625 188.79271Q353.0625 189.83958 352.875 190.55833Q352.6875 191.27708 352.32812 191.71458Q351.98438 192.15208 351.48438 192.35521Q351.0 192.55833 350.375 192.55833Q349.89062 192.55833 349.46875 192.43333Q349.04688 192.30833 348.71875 192.04271Q348.39062 191.76146 348.15625 191.32396Q347.92188 190.88646 347.79688 190.26146Q347.67188 189.62083 347.67188 188.79271L347.67188 187.48021Q347.67188 186.43333 347.85938 185.73021Q348.0625 185.02708 348.40625 184.58958Q348.76562 184.15208 349.25 183.96458Q349.75 183.77708 350.35938 183.77708Q350.85938 183.77708 351.28125 183.90208Q351.70312 184.02708 352.03125 184.29271Q352.35938 184.54271 352.57812 184.98021Q352.8125 185.40208 352.9375 186.02708Q353.0625 186.65208 353.0625 187.48021ZM351.96875 188.96458L351.96875 187.30833Q351.96875 186.73021 351.90625 186.29271Q351.84375 185.85521 351.70312 185.54271Q351.57812 185.23021 351.375 185.04271Q351.1875 184.85521 350.9375 184.76146Q350.6875 184.66771 350.35938 184.66771Q349.98438 184.66771 349.67188 184.80833Q349.375 184.94896 349.17188 185.26146Q348.96875 185.57396 348.85938 186.08958Q348.76562 186.58958 348.76562 187.30833L348.76562 188.96458Q348.76562 189.54271 348.82812 189.98021Q348.90625 190.41771 349.03125 190.74583Q349.17188 191.05833 349.35938 191.26146Q349.5625 191.46458 349.8125 191.55833Q350.0625 191.65208 350.375 191.65208Q350.78125 191.65208 351.07812 191.51146Q351.375 191.35521 351.57812 191.02708Q351.78125 190.69896 351.875 190.19896Q351.96875 189.68333 351.96875 188.96458ZM355.8125 191.13646L355.8125 192.01146Q355.8125 192.55833 355.53125 193.15208Q355.26562 193.74583 354.78125 194.13646L354.17188 193.71458Q354.35938 193.44896 354.48438 193.18333Q354.60938 192.91771 354.67188 192.63646Q354.75 192.35521 354.75 192.02708L354.75 191.13646L355.8125 191.13646ZM362.29688 191.54271L362.29688 192.43333L356.71875 192.43333L356.71875 191.65208L359.51562 188.54271Q360.03125 187.96458 360.3125 187.57396Q360.59375 187.16771 360.70312 186.85521Q360.82812 186.52708 360.82812 186.19896Q360.82812 185.77708 360.65625 185.43333Q360.48438 185.08958 360.14062 184.88646Q359.8125 184.66771 359.32812 184.66771Q358.76562 184.66771 358.39062 184.90208Q358.01562 185.12083 357.82812 185.51146Q357.64062 185.90208 357.64062 186.40208L356.54688 186.40208Q356.54688 185.68333 356.85938 185.08958Q357.1875 184.49583 357.79688 184.13646Q358.42188 183.77708 359.32812 183.77708Q360.14062 183.77708 360.71875 184.07396Q361.29688 184.35521 361.59375 184.87083Q361.90625 185.37083 361.90625 186.05833Q361.90625 186.43333 361.78125 186.82396Q361.65625 187.19896 361.4375 187.58958Q361.21875 187.96458 360.92188 188.33958Q360.64062 188.69896 360.3125 189.05833L358.01562 191.54271L362.29688 191.54271Z" fill-rule="nonzero"/><path stroke="#000000" stroke-width="1.0" stroke-linecap="butt" d="M506.85 290.0C506.85 211.6584 443.34158 148.15 365.0 148.15C286.65842 148.15 223.15 211.6584 223.15 290.0C223.15 368.34158 286.65842 431.85 365.0 431.85C443.34158 431.85 506.85 368.34158 506.85 290.0" fill-rule="nonzero"/><path fill="#000000" d="M353.0625 140.19687L353.0625 141.50937Q353.0625 142.55624 352.875 143.275Q352.6875 143.99374 352.32812 144.43124Q351.98438 144.86874 351.48438 145.07187Q351.0 145.275 350.375 145.275Q349.89062 145.275 349.46875 145.15Q349.04688 145.025 348.71875 144.75937Q348.39062 144.47812 348.15625 144.04062Q347.92188 143.60312 347.79688 142.97812Q347.67188 142.3375 347.67188 141.50937L347.67188 140.19687Q347.67188 139.15 347.85938 138.44687Q348.0625 137.74374 348.40625 137.30624Q348.76562 136.86874 349.25 136.68124Q349.75 136.49374 350.35938 136.49374Q350.85938 136.49374 351.28125 136.61874Q351.70312 136.74374 352.03125 137.00937Q352.35938 137.25937 352.57812 137.69687Q352.8125 138.11874 352.9375 138.74374Q353.0625 139.36874 353.0625 140.19687ZM351.96875 141.68124L351.96875 140.025Q351.96875 139.44687 351.90625 139.00937Q351.84375 138.57187 351.70312 138.25937Q351.57812 137.94687 351.375 137.75937Q351.1875 137.57187 350.9375 137.47812Q350.6875 137.38437 350.35938 137.38437Q349.98438 137.38437 349.67188 137.525Q349.375 137.66562 349.17188 137.97812Q348.96875 138.29062 348.85938 138.80624Q348.76562 139.30624 348.76562 140.025L348.76562 141.68124Q348.76562 142.25937 348.82812 142.69687Q348.90625 143.13437 349.03125 143.4625Q349.17188 143.775 349.35938 143.97812Q349.5625 144.18124 349.8125 144.275Q350.0625 144.36874 350.375 144.36874Q350.78125 144.36874 351.07812 144.22812Q351.375 144.07187 351.57812 143.74374Q351.78125 143.41562 351.875 142.91562Q351.96875 142.4 351.96875 141.68124ZM355.8125 143.85312L355.8125 144.72812Q355.8125 145.275 355.53125 145.86874Q355.26562 146.4625 354.78125 146.85312L354.17188 146.43124Q354.35938 146.16562 354.48438 145.9Q354.60938 145.63437 354.67188 145.35312Q354.75 145.07187 354.75 144.74374L354.75 143.85312L355.8125 143.85312ZM358.29688 140.35312L359.0625 140.35312Q359.64062 140.35312 360.0 140.16562Q360.375 139.9625 360.5625 139.63437Q360.75 139.30624 360.75 138.88437Q360.75 138.4 360.57812 138.07187Q360.42188 137.72812 360.09375 137.55624Q359.76562 137.38437 359.26562 137.38437Q358.79688 137.38437 358.45312 137.57187Q358.10938 137.74374 357.90625 138.07187Q357.71875 138.4 357.71875 138.85312L356.625 138.85312Q356.625 138.19687 356.95312 137.66562Q357.28125 137.13437 357.875 136.82187Q358.46875 136.49374 359.26562 136.49374Q360.03125 136.49374 360.60938 136.775Q361.1875 137.04062 361.51562 137.5875Q361.84375 138.11874 361.84375 138.91562Q361.84375 139.24374 361.6875 139.60312Q361.53125 139.9625 361.21875 140.29062Q360.90625 140.60312 360.40625 140.80624Q359.92188 141.00937 359.21875 141.00937L358.29688 141.00937L358.29688 140.35312ZM358.29688 141.24374L358.29688 140.5875L359.21875 140.5875Q360.03125 140.5875 360.5625 140.79062Q361.09375 140.97812 361.40625 141.30624Q361.71875 141.61874 361.84375 142.00937Q361.96875 142.38437 361.96875 142.775Q361.96875 143.36874 361.76562 143.8375Q361.5625 144.29062 361.1875 144.61874Q360.82812 144.93124 360.32812 145.10312Q359.84375 145.275 359.26562 145.275Q358.70312 145.275 358.21875 145.11874Q357.73438 144.94687 357.35938 144.65Q356.98438 144.35312 356.76562 143.91562Q356.5625 143.4625 356.5625 142.9L357.64062 142.9Q357.64062 143.3375 357.82812 143.68124Q358.03125 144.00937 358.39062 144.19687Q358.76562 144.36874 359.26562 144.36874Q359.76562 144.36874 360.125 144.19687Q360.48438 144.025 360.67188 143.68124Q360.875 143.32187 360.875 142.79062Q360.875 142.25937 360.65625 141.91562Q360.4375 141.57187 360.01562 141.41562Q359.60938 141.24374 359.0625 141.24374L358.29688 141.24374Z" fill-rule="nonzero"/><path stroke="#000000" stroke-width="1.0" stroke-linecap="butt" d="M554.13336 290.0C554.13336 185.54454 469.45544 100.86667 365.0 100.86667C260.54456 100.86667 175.86667 185.54454 175.86667 290.0C175.86667 394.45544 260.54456 479.13333 365.0 479.13333C469.45544 479.13333 554.13336 394.45544 554.13336 290.0" fill-rule="nonzero"/><path fill="#000000" d="M353.0625 92.91354L353.0625 94.22604Q353.0625 95.27292 352.875 95.99167Q352.6875 96.71042 352.32812 97.14792Q351.98438 97.58542 351.48438 97.78854Q351.0 97.99167 350.375 97.99167Q349.89062 97.99167 349.46875 97.86667Q349.04688 97.74167 348.71875 97.47604Q348.39062 97.19479 348.15625 96.75729Q347.92188 96.31979 347.79688 95.69479Q347.67188 95.05417 347.67188 94.22604L347.67188 92.91354Q347.67188 91.86667 347.85938 91.16354Q348.0625 90.46042 348.40625 90.02292Q348.76562 89.58542 349.25 89.39792Q349.75 89.21042 350.35938 89.21042Q350.85938 89.21042 351.28125 89.33542Q351.70312 89.46042 352.03125 89.72604Q352.35938 89.97604 352.57812 90.41354Q352.8125 90.83542 352.9375 91.46042Q353.0625 92.08542 353.0625 92.91354ZM351.96875 94.39792L351.96875 92.74167Q351.96875 92.16354 351.90625 91.72604Q351.84375 91.28854 351.70312 90.97604Q351.57812 90.66354 351.375 90.47604Q351.1875 90.28854 350.9375 90.19479Q350.6875 90.10104 350.35938 90.10104Q349.98438 90.10104 349.67188 90.24167Q349.375 90.38229 349.17188 90.69479Q348.96875 91.00729 348.85938 91.52292Q348.76562 92.02292 348.76562 92.74167L348.76562 94.39792Q348.76562 94.97604 348.82812 95.41354Q348.90625 95.85104 349.03125 96.17917Q349.17188 96.49167 349.35938 96.69479Q349.5625 96.89792 349.8125 96.99167Q350.0625 97.08542 350.375 97.08542Q350.78125 97.08542 351.07812 96.94479Q351.375 96.78854 351.57812 96.46042Q351.78125 96.13229 351.875 95.63229Q351.96875 95.11667 351.96875 94.39792ZM355.8125 96.56979L355.8125 97.44479Q355.8125 97.99167 355.53125 98.58542Q355.26562 99.17917 354.78125 99.56979L354.17188 99.14792Q354.35938 98.88229 354.48438 98.61667Q354.60938 98.35104 354.67188 98.06979Q354.75 97.78854 354.75 97.46042L354.75 96.56979L355.8125 96.56979ZM362.46875 94.99167L362.46875 95.88229L356.3125 95.88229L356.3125 95.24167L360.125 89.33542L361.01562 89.33542L360.0625 91.03854L357.54688 94.99167L362.46875 94.99167ZM361.28125 89.33542L361.28125 97.86667L360.20312 97.86667L360.20312 89.33542L361.28125 89.33542Z" fill-rule="nonzero"/><path stroke="#000000" stroke-width="1.0" stroke-linecap="butt" d="M365.0 290.0L365.0 101.0" fill-rule="nonzero"/><path fill="#000000" d="M339.29688 74.5L337.51562 74.5L337.53125 73.578125L339.29688 73.578125Q340.21875 73.578125 340.82812 73.203125Q341.4375 72.8125 341.73438 72.125Q342.04688 71.421875 342.04688 70.484375L342.04688 69.96875Q342.04688 69.234375 341.875 68.671875Q341.70312 68.09375 341.35938 67.703125Q341.01562 67.296875 340.51562 67.09375Q340.03125 66.890625 339.40625 66.890625L337.48438 66.890625L337.48438 65.96875L339.40625 65.96875Q340.25 65.96875 340.9375 66.25Q341.625 66.53125 342.125 67.0625Q342.625 67.578125 342.89062 68.328125Q343.17188 69.0625 343.17188 69.984375L343.17188 70.484375Q343.17188 71.421875 342.89062 72.171875Q342.625 72.90625 342.10938 73.421875Q341.60938 73.9375 340.89062 74.21875Q340.1875 74.5 339.29688 74.5ZM338.125 65.96875L338.125 74.5L336.98438 74.5L336.98438 65.96875L338.125 65.96875ZM347.07812 70.421875L347.07812 71.3125L344.21875 71.3125L344.21875 70.421875L347.07812 70.421875ZM353.17188 73.578125L353.17188 74.5L348.90625 74.5L348.90625 73.578125L353.17188 73.578125ZM349.125 65.96875L349.125 74.5L347.98438 74.5L347.98438 65.96875L349.125 65.96875ZM355.0 68.15625L355.0 74.5L353.92188 74.5L353.92188 68.15625L355.0 68.15625ZM353.82812 66.484375Q353.82812 66.21875 353.98438 66.03125Q354.15625 65.84375 354.46875 65.84375Q354.78125 65.84375 354.9375 66.03125Q355.10938 66.21875 355.10938 66.484375Q355.10938 66.734375 354.9375 66.921875Q354.78125 67.09375 354.46875 67.09375Q354.15625 67.09375 353.98438 66.921875Q353.82812 66.734375 353.82812 66.484375ZM357.90625 69.421875L357.90625 74.5L356.8125 74.5L356.8125 68.15625L357.84375 68.15625L357.90625 69.421875ZM357.6875 71.09375L357.17188 71.078125Q357.1875 70.421875 357.34375 69.875Q357.51562 69.3125 357.82812 68.90625Q358.15625 68.5 358.64062 68.28125Q359.125 68.046875 359.75 68.046875Q360.20312 68.046875 360.57812 68.171875Q360.95312 68.296875 361.21875 68.5625Q361.5 68.828125 361.64062 69.25Q361.79688 69.671875 361.79688 70.28125L361.79688 74.5L360.71875 74.5L360.71875 70.328125Q360.71875 69.828125 360.54688 69.53125Q360.39062 69.234375 360.07812 69.09375Q359.78125 68.953125 359.35938 68.953125Q358.89062 68.953125 358.5625 69.125Q358.23438 69.296875 358.04688 69.59375Q357.85938 69.890625 357.76562 70.28125Q357.6875 70.65625 357.6875 71.09375ZM361.79688 70.484375L361.0625 70.71875Q361.0625 70.1875 361.23438 69.71875Q361.40625 69.234375 361.71875 68.859375Q362.04688 68.484375 362.51562 68.265625Q362.98438 68.046875 363.57812 68.046875Q364.09375 68.046875 364.48438 68.1875Q364.89062 68.3125 365.15625 68.59375Q365.42188 68.875 365.5625 69.3125Q365.70312 69.734375 365.70312 70.328125L365.70312 74.5L364.625 74.5L364.625 70.328125Q364.625 69.78125 364.45312 69.5Q364.28125 69.203125 363.98438 69.078125Q363.6875 68.953125 363.26562 68.953125Q362.90625 68.953125 362.625 69.078125Q362.35938 69.203125 362.17188 69.421875Q361.98438 69.625 361.89062 69.90625Q361.79688 70.1875 361.79688 70.484375ZM367.54688 71.40625L367.54688 71.265625Q367.54688 70.578125 367.73438 70.0Q367.9375 69.40625 368.3125 68.96875Q368.6875 68.53125 369.21875 68.296875Q369.75 68.046875 370.42188 68.046875Q371.07812 68.046875 371.60938 68.296875Q372.15625 68.53125 372.53125 68.96875Q372.90625 69.40625 373.10938 70.0Q373.3125 70.578125 373.3125 71.265625L373.3125 71.40625Q373.3125 72.078125 373.10938 72.671875Q372.90625 73.25 372.53125 73.6875Q372.15625 74.125 371.625 74.375Q371.09375 74.625 370.42188 74.625Q369.76562 74.625 369.21875 74.375Q368.6875 74.125 368.3125 73.6875Q367.9375 73.25 367.73438 72.671875Q367.54688 72.078125 367.54688 71.40625ZM368.625 71.265625L368.625 71.40625Q368.625 71.875 368.73438 72.296875Q368.84375 72.71875 369.0625 73.046875Q369.29688 73.359375 369.64062 73.546875Q369.98438 73.71875 370.42188 73.71875Q370.875 73.71875 371.20312 73.546875Q371.54688 73.359375 371.76562 73.046875Q372.0 72.71875 372.10938 72.296875Q372.21875 71.875 372.21875 71.40625L372.21875 71.265625Q372.21875 70.796875 372.10938 70.375Q372.0 69.953125 371.76562 69.640625Q371.54688 69.3125 371.20312 69.125Q370.875 68.9375 370.42188 68.9375Q369.96875 68.9375 369.625 69.125Q369.29688 69.3125 369.0625 69.640625Q368.84375 69.953125 368.73438 70.375Q368.625 70.796875 368.625 71.265625ZM375.90625 69.515625L375.90625 74.5L374.82812 74.5L374.82812 68.15625L375.85938 68.15625L375.90625 69.515625ZM375.65625 71.09375L375.20312 71.078125Q375.20312 70.421875 375.39062 69.875Q375.57812 69.3125 375.92188 68.90625Q376.26562 68.5 376.73438 68.28125Q377.20312 68.046875 377.78125 68.046875Q378.25 68.046875 378.625 68.171875Q379.0 68.296875 379.26562 68.578125Q379.53125 68.84375 379.67188 69.28125Q379.8125 69.71875 379.8125 70.34375L379.8125 74.5L378.71875 74.5L378.71875 70.328125Q378.71875 69.828125 378.57812 69.53125Q378.4375 69.234375 378.15625 69.09375Q377.875 68.953125 377.45312 68.953125Q377.04688 68.953125 376.71875 69.125Q376.39062 69.296875 376.15625 69.59375Q375.92188 69.890625 375.78125 70.28125Q375.65625 70.65625 375.65625 71.09375ZM384.45312 74.625Q383.79688 74.625 383.25 74.40625Q382.71875 74.171875 382.32812 73.765625Q381.95312 73.34375 381.75 72.78125Q381.54688 72.21875 381.54688 71.546875L381.54688 71.3125Q381.54688 70.53125 381.76562 69.921875Q382.0 69.3125 382.39062 68.890625Q382.78125 68.46875 383.28125 68.265625Q383.78125 68.046875 384.3125 68.046875Q385.0 68.046875 385.48438 68.28125Q385.98438 68.515625 386.29688 68.9375Q386.625 69.34375 386.76562 69.921875Q386.92188 70.484375 386.92188 71.140625L386.92188 71.640625L382.1875 71.640625L382.1875 70.75L385.84375 70.75L385.84375 70.671875Q385.8125 70.25 385.65625 69.859375Q385.51562 69.453125 385.1875 69.203125Q384.875 68.9375 384.3125 68.9375Q383.95312 68.9375 383.64062 69.09375Q383.32812 69.25 383.09375 69.5625Q382.875 69.859375 382.75 70.296875Q382.64062 70.734375 382.64062 71.3125L382.64062 71.546875Q382.64062 72.0 382.76562 72.40625Q382.89062 72.796875 383.125 73.09375Q383.375 73.390625 383.71875 73.5625Q384.07812 73.734375 384.51562 73.734375Q385.09375 73.734375 385.48438 73.5Q385.89062 73.265625 386.1875 72.875L386.84375 73.390625Q386.64062 73.703125 386.3125 73.984375Q386.0 74.265625 385.53125 74.453125Q385.07812 74.625 384.45312 74.625ZM388.90625 69.515625L388.90625 74.5L387.82812 74.5L387.82812 68.15625L388.85938 68.15625L388.90625 69.515625ZM388.65625 71.09375L388.20312 71.078125Q388.20312 70.421875 388.39062 69.875Q388.57812 69.3125 388.92188 68.90625Q389.26562 68.5 389.73438 68.28125Q390.20312 68.046875 390.78125 68.046875Q391.25 68.046875 391.625 68.171875Q392.0 68.296875 392.26562 68.578125Q392.53125 68.84375 392.67188 69.28125Q392.8125 69.71875 392.8125 70.34375L392.8125 74.5L391.71875 74.5L391.71875 70.328125Q391.71875 69.828125 391.57812 69.53125Q391.4375 69.234375 391.15625 69.09375Q390.875 68.953125 390.45312 68.953125Q390.04688 68.953125 389.71875 69.125Q389.39062 69.296875 389.15625 69.59375Q388.92188 69.890625 388.78125 70.28125Q388.65625 70.65625 388.65625 71.09375Z" fill-rule="nonzero"/><path stroke="#000000" stroke-width="1.0" stroke-linecap="butt" d="M365.0 290.0L529.0 195.0" fill-rule="nonzero"/><path fill="#000000" d="M539.6719 183.57812L539.6719 184.5L535.40625 184.5L535.40625 183.57812L539.6719 183.57812ZM535.625 175.96875L535.625 184.5L534.4844 184.5L534.4844 175.96875L535.625 175.96875ZM541.5 178.15625L541.5 184.5L540.4219 184.5L540.4219 178.15625L541.5 178.15625ZM540.3281 176.48438Q540.3281 176.21875 540.4844 176.03125Q540.65625 175.84375 540.96875 175.84375Q541.28125 175.84375 541.4375 176.03125Q541.6094 176.21875 541.6094 176.48438Q541.6094 176.73438 541.4375 176.92188Q541.28125 177.09375 540.96875 177.09375Q540.65625 177.09375 540.4844 176.92188Q540.3281 176.73438 540.3281 176.48438ZM544.40625 179.51562L544.40625 184.5L543.3281 184.5L543.3281 178.15625L544.3594 178.15625L544.40625 179.51562ZM544.15625 181.09375L543.7031 181.07812Q543.7031 180.42188 543.8906 179.875Q544.0781 179.3125 544.4219 178.90625Q544.7656 178.5 545.2344 178.28125Q545.7031 178.04688 546.28125 178.04688Q546.75 178.04688 547.125 178.17188Q547.5 178.29688 547.7656 178.57812Q548.03125 178.84375 548.1719 179.28125Q548.3125 179.71875 548.3125 180.34375L548.3125 184.5L547.21875 184.5L547.21875 180.32812Q547.21875 179.82812 547.0781 179.53125Q546.9375 179.23438 546.65625 179.09375Q546.375 178.95312 545.9531 178.95312Q545.5469 178.95312 545.21875 179.125Q544.8906 179.29688 544.65625 179.59375Q544.4219 179.89062 544.28125 180.28125Q544.15625 180.65625 544.15625 181.09375ZM554.0625 183.42188L554.0625 180.15625Q554.0625 179.78125 553.90625 179.5Q553.7656 179.21875 553.46875 179.07812Q553.1719 178.92188 552.7344 178.92188Q552.3125 178.92188 552.0 179.0625Q551.7031 179.20312 551.53125 179.4375Q551.3594 179.65625 551.3594 179.92188L550.28125 179.92188Q550.28125 179.57812 550.4531 179.25Q550.625 178.90625 550.9531 178.64062Q551.28125 178.35938 551.75 178.20312Q552.21875 178.04688 552.7969 178.04688Q553.4844 178.04688 554.0156 178.28125Q554.5469 178.51562 554.84375 178.98438Q555.15625 179.45312 555.15625 180.15625L555.15625 183.10938Q555.15625 183.4375 555.2031 183.79688Q555.2656 184.14062 555.375 184.40625L555.375 184.5L554.2344 184.5Q554.15625 184.3125 554.1094 184.0Q554.0625 183.6875 554.0625 183.42188ZM554.25 180.65625L554.2656 181.42188L553.1719 181.42188Q552.7031 181.42188 552.34375 181.5Q551.9844 181.5625 551.7344 181.71875Q551.4844 181.85938 551.3594 182.07812Q551.2344 182.29688 551.2344 182.59375Q551.2344 182.89062 551.3594 183.14062Q551.5 183.375 551.7656 183.53125Q552.0469 183.67188 552.4375 183.67188Q552.9375 183.67188 553.3125 183.46875Q553.7031 183.25 553.9219 182.95312Q554.15625 182.64062 554.1719 182.34375L554.6406 182.875Q554.59375 183.10938 554.40625 183.42188Q554.2344 183.71875 553.9219 184.0Q553.625 184.26562 553.2031 184.45312Q552.7969 184.625 552.28125 184.625Q551.6406 184.625 551.15625 184.375Q550.6719 184.10938 550.40625 183.6875Q550.1406 183.26562 550.1406 182.73438Q550.1406 182.21875 550.3281 181.84375Q550.53125 181.45312 550.90625 181.1875Q551.28125 180.92188 551.8125 180.79688Q552.34375 180.65625 553.0 180.65625L554.25 180.65625ZM558.5 175.5L558.5 184.5L557.4219 184.5L557.4219 175.5L558.5 175.5ZM560.0469 181.40625L560.0469 181.26562Q560.0469 180.57812 560.2344 180.0Q560.4375 179.40625 560.8125 178.96875Q561.1875 178.53125 561.71875 178.29688Q562.25 178.04688 562.9219 178.04688Q563.5781 178.04688 564.1094 178.29688Q564.65625 178.53125 565.03125 178.96875Q565.40625 179.40625 565.6094 180.0Q565.8125 180.57812 565.8125 181.26562L565.8125 181.40625Q565.8125 182.07812 565.6094 182.67188Q565.40625 183.25 565.03125 183.6875Q564.65625 184.125 564.125 184.375Q563.59375 184.625 562.9219 184.625Q562.2656 184.625 561.71875 184.375Q561.1875 184.125 560.8125 183.6875Q560.4375 183.25 560.2344 182.67188Q560.0469 182.07812 560.0469 181.40625ZM561.125 181.26562L561.125 181.40625Q561.125 181.875 561.2344 182.29688Q561.34375 182.71875 561.5625 183.04688Q561.7969 183.35938 562.1406 183.54688Q562.4844 183.71875 562.9219 183.71875Q563.375 183.71875 563.7031 183.54688Q564.0469 183.35938 564.2656 183.04688Q564.5 182.71875 564.6094 182.29688Q564.71875 181.875 564.71875 181.40625L564.71875 181.26562Q564.71875 180.79688 564.6094 180.375Q564.5 179.95312 564.2656 179.64062Q564.0469 179.3125 563.7031 179.125Q563.375 178.9375 562.9219 178.9375Q562.46875 178.9375 562.125 179.125Q561.7969 179.3125 561.5625 179.64062Q561.34375 179.95312 561.2344 180.375Q561.125 180.79688 561.125 181.26562ZM567.0469 181.40625L567.0469 181.26562Q567.0469 180.57812 567.2344 180.0Q567.4375 179.40625 567.8125 178.96875Q568.1875 178.53125 568.71875 178.29688Q569.25 178.04688 569.9219 178.04688Q570.5781 178.04688 571.1094 178.29688Q571.65625 178.53125 572.03125 178.96875Q572.40625 179.40625 572.6094 180.0Q572.8125 180.57812 572.8125 181.26562L572.8125 181.40625Q572.8125 182.07812 572.6094 182.67188Q572.40625 183.25 572.03125 183.6875Q571.65625 184.125 571.125 184.375Q570.59375 184.625 569.9219 184.625Q569.2656 184.625 568.71875 184.375Q568.1875 184.125 567.8125 183.6875Q567.4375 183.25 567.2344 182.67188Q567.0469 182.07812 567.0469 181.40625ZM568.125 181.26562L568.125 181.40625Q568.125 181.875 568.2344 182.29688Q568.34375 182.71875 568.5625 183.04688Q568.7969 183.35938 569.1406 183.54688Q569.4844 183.71875 569.9219 183.71875Q570.375 183.71875 570.7031 183.54688Q571.0469 183.35938 571.2656 183.04688Q571.5 182.71875 571.6094 182.29688Q571.71875 181.875 571.71875 181.40625L571.71875 181.26562Q571.71875 180.79688 571.6094 180.375Q571.5 179.95312 571.2656 179.64062Q571.0469 179.3125 570.7031 179.125Q570.375 178.9375 569.9219 178.9375Q569.46875 178.9375 569.125 179.125Q568.7969 179.3125 568.5625 179.64062Q568.34375 179.95312 568.2344 180.375Q568.125 180.79688 568.125 181.26562ZM575.5 175.5L575.5 184.5L574.4219 184.5L574.4219 175.5L575.5 175.5Z" fill-rule="nonzero"/><path stroke="#000000" stroke-width="1.0" stroke-linecap="butt" d="M365.0 290.0L529.0 385.0" fill-rule="nonzero"/><path fill="#000000" d="M525.6406 401.78125L526.7656 401.78125Q526.6719 402.59375 526.2969 403.23438Q525.9219 403.875 525.2344 404.25Q524.5625 404.625 523.53125 404.625Q522.78125 404.625 522.1719 404.34375Q521.5625 404.04688 521.1094 403.53125Q520.6719 403.01562 520.4375 402.29688Q520.2031 401.5625 520.2031 400.65625L520.2031 399.8125Q520.2031 398.92188 520.4375 398.1875Q520.6719 397.45312 521.125 396.9375Q521.5781 396.40625 522.2031 396.125Q522.84375 395.84375 523.625 395.84375Q524.59375 395.84375 525.2656 396.21875Q525.9375 396.57812 526.2969 397.21875Q526.6719 397.85938 526.7656 398.70312L525.6406 398.70312Q525.5625 398.10938 525.3281 397.6875Q525.1094 397.25 524.7031 397.01562Q524.2969 396.78125 523.625 396.78125Q523.0625 396.78125 522.625 397.0Q522.2031 397.20312 521.90625 397.60938Q521.625 398.0 521.46875 398.5625Q521.3281 399.125 521.3281 399.79688L521.3281 400.65625Q521.3281 401.28125 521.4531 401.84375Q521.59375 402.39062 521.8594 402.8125Q522.125 403.21875 522.5469 403.46875Q522.96875 403.70312 523.53125 403.70312Q524.25 403.70312 524.6719 403.46875Q525.1094 403.23438 525.3281 402.8125Q525.5469 402.39062 525.6406 401.78125ZM532.0625 403.42188L532.0625 400.15625Q532.0625 399.78125 531.90625 399.5Q531.7656 399.21875 531.46875 399.07812Q531.1719 398.92188 530.7344 398.92188Q530.3125 398.92188 530.0 399.0625Q529.7031 399.20312 529.53125 399.4375Q529.3594 399.65625 529.3594 399.92188L528.28125 399.92188Q528.28125 399.57812 528.4531 399.25Q528.625 398.90625 528.9531 398.64062Q529.28125 398.35938 529.75 398.20312Q530.21875 398.04688 530.7969 398.04688Q531.4844 398.04688 532.0156 398.28125Q532.5469 398.51562 532.84375 398.98438Q533.15625 399.45312 533.15625 400.15625L533.15625 403.10938Q533.15625 403.4375 533.2031 403.79688Q533.2656 404.14062 533.375 404.40625L533.375 404.5L532.2344 404.5Q532.15625 404.3125 532.1094 404.0Q532.0625 403.6875 532.0625 403.42188ZM532.25 400.65625L532.2656 401.42188L531.1719 401.42188Q530.7031 401.42188 530.34375 401.5Q529.9844 401.5625 529.7344 401.71875Q529.4844 401.85938 529.3594 402.07812Q529.2344 402.29688 529.2344 402.59375Q529.2344 402.89062 529.3594 403.14062Q529.5 403.375 529.7656 403.53125Q530.0469 403.67188 530.4375 403.67188Q530.9375 403.67188 531.3125 403.46875Q531.7031 403.25 531.9219 402.95312Q532.15625 402.64062 532.1719 402.34375L532.6406 402.875Q532.59375 403.10938 532.40625 403.42188Q532.2344 403.71875 531.9219 404.0Q531.625 404.26562 531.2031 404.45312Q530.7969 404.625 530.28125 404.625Q529.6406 404.625 529.15625 404.375Q528.6719 404.10938 528.40625 403.6875Q528.1406 403.26562 528.1406 402.73438Q528.1406 402.21875 528.3281 401.84375Q528.53125 401.45312 528.90625 401.1875Q529.28125 400.92188 529.8125 400.79688Q530.34375 400.65625 531.0 400.65625L532.25 400.65625ZM536.40625 399.15625L536.40625 404.5L535.3281 404.5L535.3281 398.15625L536.375 398.15625L536.40625 399.15625ZM538.3906 398.125L538.3906 399.125Q538.25 399.10938 538.125 399.09375Q538.0156 399.07812 537.8594 399.07812Q537.4844 399.07812 537.1875 399.20312Q536.90625 399.3125 536.7031 399.53125Q536.5156 399.73438 536.3906 400.03125Q536.28125 400.32812 536.25 400.67188L535.9375 400.84375Q535.9375 400.26562 536.0469 399.76562Q536.1719 399.26562 536.40625 398.875Q536.65625 398.48438 537.0156 398.26562Q537.3906 398.04688 537.90625 398.04688Q538.03125 398.04688 538.1719 398.07812Q538.3281 398.09375 538.3906 398.125ZM541.1094 403.84375L542.875 398.15625L544.03125 398.15625L541.4844 405.48438Q541.40625 405.71875 541.25 405.98438Q541.1094 406.26562 540.8906 406.5Q540.6719 406.75 540.3594 406.90625Q540.0469 407.0625 539.6094 407.0625Q539.4844 407.0625 539.28125 407.01562Q539.0781 406.98438 539.0 406.96875L539.0 406.09375Q539.0469 406.09375 539.1406 406.09375Q539.25 406.10938 539.28125 406.10938Q539.65625 406.10938 539.90625 406.01562Q540.1719 405.92188 540.34375 405.6875Q540.53125 405.46875 540.65625 405.07812L541.1094 403.84375ZM539.8125 398.15625L541.4531 403.07812L541.7344 404.21875L540.96875 404.625L538.625 398.15625L539.8125 398.15625ZM545.0469 401.40625L545.0469 401.26562Q545.0469 400.57812 545.2344 400.0Q545.4375 399.40625 545.8125 398.96875Q546.1875 398.53125 546.71875 398.29688Q547.25 398.04688 547.9219 398.04688Q548.5781 398.04688 549.1094 398.29688Q549.65625 398.53125 550.03125 398.96875Q550.40625 399.40625 550.6094 400.0Q550.8125 400.57812 550.8125 401.26562L550.8125 401.40625Q550.8125 402.07812 550.6094 402.67188Q550.40625 403.25 550.03125 403.6875Q549.65625 404.125 549.125 404.375Q548.59375 404.625 547.9219 404.625Q547.2656 404.625 546.71875 404.375Q546.1875 404.125 545.8125 403.6875Q545.4375 403.25 545.2344 402.67188Q545.0469 402.07812 545.0469 401.40625ZM546.125 401.26562L546.125 401.40625Q546.125 401.875 546.2344 402.29688Q546.34375 402.71875 546.5625 403.04688Q546.7969 403.35938 547.1406 403.54688Q547.4844 403.71875 547.9219 403.71875Q548.375 403.71875 548.7031 403.54688Q549.0469 403.35938 549.2656 403.04688Q549.5 402.71875 549.6094 402.29688Q549.71875 401.875 549.71875 401.40625L549.71875 401.26562Q549.71875 400.79688 549.6094 400.375Q549.5 399.95312 549.2656 399.64062Q549.0469 399.3125 548.7031 399.125Q548.375 398.9375 547.9219 398.9375Q547.46875 398.9375 547.125 399.125Q546.7969 399.3125 546.5625 399.64062Q546.34375 399.95312 546.2344 400.375Q546.125 400.79688 546.125 401.26562ZM553.40625 399.375L553.40625 406.9375L552.3281 406.9375L552.3281 398.15625L553.3125 398.15625L553.40625 399.375ZM557.6875 401.28125L557.6875 401.40625Q557.6875 402.09375 557.5156 402.6875Q557.3594 403.26562 557.0469 403.70312Q556.7344 404.14062 556.2656 404.39062Q555.8125 404.625 555.21875 404.625Q554.625 404.625 554.15625 404.42188Q553.6875 404.21875 553.3594 403.84375Q553.0469 403.45312 552.8594 402.92188Q552.6719 402.39062 552.59375 401.71875L552.59375 401.0625Q552.6719 400.35938 552.8594 399.8125Q553.0469 399.25 553.3594 398.85938Q553.6875 398.45312 554.1406 398.25Q554.6094 398.04688 555.2031 398.04688Q555.7969 398.04688 556.2656 398.28125Q556.7344 398.5 557.0469 398.9375Q557.3594 399.35938 557.5156 399.95312Q557.6875 400.54688 557.6875 401.28125ZM556.59375 401.40625L556.59375 401.28125Q556.59375 400.79688 556.4844 400.39062Q556.3906 399.96875 556.1875 399.65625Q555.9844 399.32812 555.65625 399.14062Q555.3281 398.95312 554.8906 398.95312Q554.4844 398.95312 554.1719 399.09375Q553.875 399.23438 553.65625 399.48438Q553.4531 399.71875 553.3125 400.01562Q553.1875 400.3125 553.125 400.64062L553.125 402.15625Q553.2344 402.5625 553.4375 402.92188Q553.65625 403.28125 554.0 403.5Q554.3594 403.71875 554.90625 403.71875Q555.34375 403.71875 555.65625 403.54688Q555.9844 403.35938 556.1875 403.04688Q556.3906 402.71875 556.4844 402.29688Q556.59375 401.875 556.59375 401.40625ZM560.40625 395.5L560.40625 404.5L559.3281 404.5L559.3281 395.5L560.40625 395.5ZM560.15625 401.09375L559.7031 401.07812Q559.7031 400.42188 559.8906 399.875Q560.0781 399.3125 560.4219 398.90625Q560.7656 398.5 561.2344 398.28125Q561.7031 398.04688 562.28125 398.04688Q562.75 398.04688 563.125 398.17188Q563.5 398.29688 563.7656 398.57812Q564.03125 398.84375 564.1719 399.28125Q564.3125 399.71875 564.3125 400.34375L564.3125 404.5L563.21875 404.5L563.21875 400.32812Q563.21875 399.82812 563.0781 399.53125Q562.9375 399.23438 562.65625 399.09375Q562.375 398.95312 561.9531 398.95312Q561.5469 398.95312 561.21875 399.125Q560.8906 399.29688 560.65625 399.59375Q560.4219 399.89062 560.28125 400.28125Q560.15625 400.65625 560.15625 401.09375ZM568.1094 403.84375L569.875 398.15625L571.03125 398.15625L568.4844 405.48438Q568.40625 405.71875 568.25 405.98438Q568.1094 406.26562 567.8906 406.5Q567.6719 406.75 567.3594 406.90625Q567.0469 407.0625 566.6094 407.0625Q566.4844 407.0625 566.28125 407.01562Q566.0781 406.98438 566.0 406.96875L566.0 406.09375Q566.0469 406.09375 566.1406 406.09375Q566.25 406.10938 566.28125 406.10938Q566.65625 406.10938 566.90625 406.01562Q567.1719 405.92188 567.34375 405.6875Q567.53125 405.46875 567.65625 405.07812L568.1094 403.84375ZM566.8125 398.15625L568.4531 403.07812L568.7344 404.21875L567.96875 404.625L565.625 398.15625L566.8125 398.15625ZM573.5 395.5L573.5 404.5L572.4219 404.5L572.4219 395.5L573.5 395.5ZM576.5 395.5L576.5 404.5L575.4219 404.5L575.4219 395.5L576.5 395.5ZM580.9531 404.625Q580.2969 404.625 579.75 404.40625Q579.21875 404.17188 578.8281 403.76562Q578.4531 403.34375 578.25 402.78125Q578.0469 402.21875 578.0469 401.54688L578.0469 401.3125Q578.0469 400.53125 578.2656 399.92188Q578.5 399.3125 578.8906 398.89062Q579.28125 398.46875 579.78125 398.26562Q580.28125 398.04688 580.8125 398.04688Q581.5 398.04688 581.9844 398.28125Q582.4844 398.51562 582.7969 398.9375Q583.125 399.34375 583.2656 399.92188Q583.4219 400.48438 583.4219 401.14062L583.4219 401.64062L578.6875 401.64062L578.6875 400.75L582.34375 400.75L582.34375 400.67188Q582.3125 400.25 582.15625 399.85938Q582.0156 399.45312 581.6875 399.20312Q581.375 398.9375 580.8125 398.9375Q580.4531 398.9375 580.1406 399.09375Q579.8281 399.25 579.59375 399.5625Q579.375 399.85938 579.25 400.29688Q579.1406 400.73438 579.1406 401.3125L579.1406 401.54688Q579.1406 402.0 579.2656 402.40625Q579.3906 402.79688 579.625 403.09375Q579.875 403.39062 580.21875 403.5625Q580.5781 403.73438 581.0156 403.73438Q581.59375 403.73438 581.9844 403.5Q582.3906 403.26562 582.6875 402.875L583.34375 403.39062Q583.1406 403.70312 582.8125 403.98438Q582.5 404.26562 582.03125 404.45312Q581.5781 404.625 580.9531 404.625ZM585.40625 399.51562L585.40625 404.5L584.3281 404.5L584.3281 398.15625L585.3594 398.15625L585.40625 399.51562ZM585.15625 401.09375L584.7031 401.07812Q584.7031 400.42188 584.8906 399.875Q585.0781 399.3125 585.4219 398.90625Q585.7656 398.5 586.2344 398.28125Q586.7031 398.04688 587.28125 398.04688Q587.75 398.04688 588.125 398.17188Q588.5 398.29688 588.7656 398.57812Q589.03125 398.84375 589.1719 399.28125Q589.3125 399.71875 589.3125 400.34375L589.3125 404.5L588.21875 404.5L588.21875 400.32812Q588.21875 399.82812 588.0781 399.53125Q587.9375 399.23438 587.65625 399.09375Q587.375 398.95312 586.9531 398.95312Q586.5469 398.95312 586.21875 399.125Q585.8906 399.29688 585.65625 399.59375Q585.4219 399.89062 585.28125 400.28125Q585.15625 400.65625 585.15625 401.09375Z" fill-rule="nonzero"/><path stroke="#000000" stroke-width="1.0" stroke-linecap="butt" d="M365.0 290.0L365.0 479.0" fill-rule="nonzero"/><path fill="#000000" d="M348.03125 512.34375Q348.03125 512.0469 347.9375 511.8125Q347.85938 511.57812 347.625 511.39062Q347.40625 511.20312 347.0 511.03125Q346.60938 510.85938 346.01562 510.6875Q345.375 510.5 344.85938 510.28125Q344.35938 510.04688 343.98438 509.75Q343.625 509.4375 343.4375 509.0625Q343.25 508.67188 343.25 508.17188Q343.25 507.67188 343.45312 507.25Q343.65625 506.82812 344.03125 506.51562Q344.42188 506.20312 344.95312 506.03125Q345.48438 505.84375 346.14062 505.84375Q347.10938 505.84375 347.78125 506.21875Q348.45312 506.57812 348.79688 507.17188Q349.15625 507.76562 349.15625 508.42188L348.03125 508.42188Q348.03125 507.95312 347.8125 507.57812Q347.60938 507.20312 347.1875 507.0Q346.78125 506.78125 346.14062 506.78125Q345.54688 506.78125 345.14062 506.96875Q344.75 507.14062 344.5625 507.45312Q344.375 507.76562 344.375 508.15625Q344.375 508.42188 344.48438 508.65625Q344.60938 508.875 344.84375 509.0625Q345.09375 509.25 345.46875 509.40625Q345.84375 509.5625 346.375 509.70312Q347.09375 509.90625 347.625 510.17188Q348.15625 510.42188 348.5 510.73438Q348.84375 511.04688 349.0 511.4375Q349.17188 511.82812 349.17188 512.3281Q349.17188 512.8594 348.95312 513.28125Q348.75 513.7031 348.35938 514.0Q347.96875 514.2969 347.42188 514.46875Q346.875 514.625 346.20312 514.625Q345.60938 514.625 345.03125 514.4531Q344.46875 514.28125 344.0 513.9531Q343.53125 513.625 343.25 513.15625Q342.96875 512.6719 342.96875 512.03125L344.09375 512.03125Q344.09375 512.46875 344.26562 512.78125Q344.4375 513.09375 344.73438 513.2969Q345.03125 513.5 345.40625 513.6094Q345.78125 513.7031 346.20312 513.7031Q346.79688 513.7031 347.20312 513.5469Q347.60938 513.375 347.8125 513.0781Q348.03125 512.7656 348.03125 512.34375ZM352.95312 514.625Q352.29688 514.625 351.75 514.40625Q351.21875 514.1719 350.82812 513.7656Q350.45312 513.34375 350.25 512.78125Q350.04688 512.21875 350.04688 511.54688L350.04688 511.3125Q350.04688 510.53125 350.26562 509.92188Q350.5 509.3125 350.89062 508.89062Q351.28125 508.46875 351.78125 508.26562Q352.28125 508.04688 352.8125 508.04688Q353.5 508.04688 353.98438 508.28125Q354.48438 508.51562 354.79688 508.9375Q355.125 509.34375 355.26562 509.92188Q355.42188 510.48438 355.42188 511.14062L355.42188 511.64062L350.6875 511.64062L350.6875 510.75L354.34375 510.75L354.34375 510.67188Q354.3125 510.25 354.15625 509.85938Q354.01562 509.45312 353.6875 509.20312Q353.375 508.9375 352.8125 508.9375Q352.45312 508.9375 352.14062 509.09375Q351.82812 509.25 351.59375 509.5625Q351.375 509.85938 351.25 510.29688Q351.14062 510.73438 351.14062 511.3125L351.14062 511.54688Q351.14062 512.0 351.26562 512.40625Q351.39062 512.7969 351.625 513.09375Q351.875 513.3906 352.21875 513.5625Q352.57812 513.7344 353.01562 513.7344Q353.59375 513.7344 353.98438 513.5Q354.39062 513.2656 354.6875 512.875L355.34375 513.3906Q355.14062 513.7031 354.8125 513.9844Q354.5 514.2656 354.03125 514.4531Q353.57812 514.625 352.95312 514.625ZM357.5 505.5L357.5 514.5L356.42188 514.5L356.42188 505.5L357.5 505.5ZM360.5 508.15625L360.5 514.5L359.42188 514.5L359.42188 508.15625L360.5 508.15625ZM359.32812 506.48438Q359.32812 506.21875 359.48438 506.03125Q359.65625 505.84375 359.96875 505.84375Q360.28125 505.84375 360.4375 506.03125Q360.60938 506.21875 360.60938 506.48438Q360.60938 506.73438 360.4375 506.92188Q360.28125 507.09375 359.96875 507.09375Q359.65625 507.09375 359.48438 506.92188Q359.32812 506.73438 359.32812 506.48438ZM363.40625 509.51562L363.40625 514.5L362.32812 514.5L362.32812 508.15625L363.35938 508.15625L363.40625 509.51562ZM363.15625 511.09375L362.70312 511.07812Q362.70312 510.42188 362.89062 509.875Q363.07812 509.3125 363.42188 508.90625Q363.76562 508.5 364.23438 508.28125Q364.70312 508.04688 365.28125 508.04688Q365.75 508.04688 366.125 508.17188Q366.5 508.29688 366.76562 508.57812Q367.03125 508.84375 367.17188 509.28125Q367.3125 509.71875 367.3125 510.34375L367.3125 514.5L366.21875 514.5L366.21875 510.32812Q366.21875 509.82812 366.07812 509.53125Q365.9375 509.23438 365.65625 509.09375Q365.375 508.95312 364.95312 508.95312Q364.54688 508.95312 364.21875 509.125Q363.89062 509.29688 363.65625 509.59375Q363.42188 509.89062 363.28125 510.28125Q363.15625 510.65625 363.15625 511.09375ZM371.95312 514.625Q371.29688 514.625 370.75 514.40625Q370.21875 514.1719 369.82812 513.7656Q369.45312 513.34375 369.25 512.78125Q369.04688 512.21875 369.04688 511.54688L369.04688 511.3125Q369.04688 510.53125 369.26562 509.92188Q369.5 509.3125 369.89062 508.89062Q370.28125 508.46875 370.78125 508.26562Q371.28125 508.04688 371.8125 508.04688Q372.5 508.04688 372.98438 508.28125Q373.48438 508.51562 373.79688 508.9375Q374.125 509.34375 374.26562 509.92188Q374.42188 510.48438 374.42188 511.14062L374.42188 511.64062L369.6875 511.64062L369.6875 510.75L373.34375 510.75L373.34375 510.67188Q373.3125 510.25 373.15625 509.85938Q373.01562 509.45312 372.6875 509.20312Q372.375 508.9375 371.8125 508.9375Q371.45312 508.9375 371.14062 509.09375Q370.82812 509.25 370.59375 509.5625Q370.375 509.85938 370.25 510.29688Q370.14062 510.73438 370.14062 511.3125L370.14062 511.54688Q370.14062 512.0 370.26562 512.40625Q370.39062 512.7969 370.625 513.09375Q370.875 513.3906 371.21875 513.5625Q371.57812 513.7344 372.01562 513.7344Q372.59375 513.7344 372.98438 513.5Q373.39062 513.2656 373.6875 512.875L374.34375 513.3906Q374.14062 513.7031 373.8125 513.9844Q373.5 514.2656 373.03125 514.4531Q372.57812 514.625 371.95312 514.625ZM376.40625 509.51562L376.40625 514.5L375.32812 514.5L375.32812 508.15625L376.35938 508.15625L376.40625 509.51562ZM376.15625 511.09375L375.70312 511.07812Q375.70312 510.42188 375.89062 509.875Q376.07812 509.3125 376.42188 508.90625Q376.76562 508.5 377.23438 508.28125Q377.70312 508.04688 378.28125 508.04688Q378.75 508.04688 379.125 508.17188Q379.5 508.29688 379.76562 508.57812Q380.03125 508.84375 380.17188 509.28125Q380.3125 509.71875 380.3125 510.34375L380.3125 514.5L379.21875 514.5L379.21875 510.32812Q379.21875 509.82812 379.07812 509.53125Q378.9375 509.23438 378.65625 509.09375Q378.375 508.95312 377.95312 508.95312Q377.54688 508.95312 377.21875 509.125Q376.89062 509.29688 376.65625 509.59375Q376.42188 509.89062 376.28125 510.28125Q376.15625 510.65625 376.15625 511.09375ZM384.95312 514.625Q384.29688 514.625 383.75 514.40625Q383.21875 514.1719 382.82812 513.7656Q382.45312 513.34375 382.25 512.78125Q382.04688 512.21875 382.04688 511.54688L382.04688 511.3125Q382.04688 510.53125 382.26562 509.92188Q382.5 509.3125 382.89062 508.89062Q383.28125 508.46875 383.78125 508.26562Q384.28125 508.04688 384.8125 508.04688Q385.5 508.04688 385.98438 508.28125Q386.48438 508.51562 386.79688 508.9375Q387.125 509.34375 387.26562 509.92188Q387.42188 510.48438 387.42188 511.14062L387.42188 511.64062L382.6875 511.64062L382.6875 510.75L386.34375 510.75L386.34375 510.67188Q386.3125 510.25 386.15625 509.85938Q386.01562 509.45312 385.6875 509.20312Q385.375 508.9375 384.8125 508.9375Q384.45312 508.9375 384.14062 509.09375Q383.82812 509.25 383.59375 509.5625Q383.375 509.85938 383.25 510.29688Q383.14062 510.73438 383.14062 511.3125L383.14062 511.54688Q383.14062 512.0 383.26562 512.40625Q383.39062 512.7969 383.625 513.09375Q383.875 513.3906 384.21875 513.5625Q384.57812 513.7344 385.01562 513.7344Q385.59375 513.7344 385.98438 513.5Q386.39062 513.2656 386.6875 512.875L387.34375 513.3906Q387.14062 513.7031 386.8125 513.9844Q386.5 514.2656 386.03125 514.4531Q385.57812 514.625 384.95312 514.625Z" fill-rule="nonzero"/><path stroke="#000000" stroke-width="1.0" stroke-linecap="butt" d="M365.0 290.0L201.0 385.0" fill-rule="nonzero"/><path fill="#000000" d="M153.53125 399.67188L154.39062 399.67188Q155.20312 399.67188 155.76562 399.98438Q156.34375 400.28125 156.64062 400.8125Q156.95312 401.34375 156.95312 402.01562Q156.95312 402.84375 156.60938 403.42188Q156.26562 404.0 155.67188 404.3125Q155.07812 404.625 154.29688 404.625Q153.84375 404.625 153.39062 404.5Q152.9375 404.35938 152.5625 404.09375Q152.20312 403.82812 151.98438 403.40625Q151.76562 402.98438 151.76562 402.40625L152.1875 402.15625Q152.1875 402.59375 152.4375 402.95312Q152.70312 403.29688 153.14062 403.51562Q153.59375 403.73438 154.1875 403.73438Q154.71875 403.73438 155.09375 403.51562Q155.46875 403.29688 155.67188 402.92188Q155.875 402.53125 155.875 402.03125Q155.875 401.625 155.6875 401.25Q155.51562 400.85938 155.1875 400.60938Q154.85938 400.35938 154.375 400.35938L153.53125 400.35938L153.53125 399.67188ZM154.04688 395.84375Q154.8125 395.84375 155.375 396.14062Q155.9375 396.4375 156.23438 396.95312Q156.54688 397.46875 156.54688 398.14062Q156.54688 398.70312 156.23438 399.17188Q155.9375 399.625 155.375 399.90625Q154.8125 400.17188 154.04688 400.17188L153.53125 400.17188L153.53125 399.46875L154.03125 399.46875Q154.54688 399.46875 154.85938 399.29688Q155.17188 399.125 155.3125 398.82812Q155.46875 398.51562 155.46875 398.125Q155.46875 397.76562 155.3125 397.45312Q155.15625 397.14062 154.84375 396.9375Q154.53125 396.73438 154.04688 396.73438Q153.625 396.73438 153.28125 396.9375Q152.9375 397.125 152.73438 397.46875Q152.53125 397.79688 152.53125 398.21875L152.53125 406.75L151.4375 406.75L151.4375 398.21875Q151.4375 397.5625 151.79688 397.03125Q152.15625 396.48438 152.75 396.17188Q153.34375 395.84375 154.04688 395.84375ZM160.57812 400.42188L160.57812 401.3125L157.71875 401.3125L157.71875 400.42188L160.57812 400.42188ZM161.84375 395.96875L162.9375 395.96875L165.73438 402.92188L168.53125 395.96875L169.625 395.96875L166.15625 404.5L165.3125 404.5L161.84375 395.96875ZM161.48438 395.96875L162.45312 395.96875L162.60938 401.17188L162.60938 404.5L161.48438 404.5L161.48438 395.96875ZM169.01562 395.96875L169.98438 395.96875L169.98438 404.5L168.85938 404.5L168.85938 401.17188L169.01562 395.96875ZM173.10938 403.84375L174.875 398.15625L176.03125 398.15625L173.48438 405.48438Q173.40625 405.71875 173.25 405.98438Q173.10938 406.26562 172.89062 406.5Q172.67188 406.75 172.35938 406.90625Q172.04688 407.0625 171.60938 407.0625Q171.48438 407.0625 171.28125 407.01562Q171.07812 406.98438 171.0 406.96875L171.0 406.09375Q171.04688 406.09375 171.14062 406.09375Q171.25 406.10938 171.28125 406.10938Q171.65625 406.10938 171.90625 406.01562Q172.17188 405.92188 172.34375 405.6875Q172.53125 405.46875 172.65625 405.07812L173.10938 403.84375ZM171.8125 398.15625L173.45312 403.07812L173.73438 404.21875L172.96875 404.625L170.625 398.15625L171.8125 398.15625ZM178.40625 399.15625L178.40625 404.5L177.32812 404.5L177.32812 398.15625L178.375 398.15625L178.40625 399.15625ZM180.39062 398.125L180.39062 399.125Q180.25 399.10938 180.125 399.09375Q180.01562 399.07812 179.85938 399.07812Q179.48438 399.07812 179.1875 399.20312Q178.90625 399.3125 178.70312 399.53125Q178.51562 399.73438 178.39062 400.03125Q178.28125 400.32812 178.25 400.67188L177.9375 400.84375Q177.9375 400.26562 178.04688 399.76562Q178.17188 399.26562 178.40625 398.875Q178.65625 398.48438 179.01562 398.26562Q179.39062 398.04688 179.90625 398.04688Q180.03125 398.04688 180.17188 398.07812Q180.32812 398.09375 180.39062 398.125ZM183.85938 403.71875Q184.25 403.71875 184.57812 403.5625Q184.90625 403.40625 185.10938 403.14062Q185.32812 402.85938 185.35938 402.5L186.39062 402.5Q186.35938 403.0625 186.0 403.54688Q185.65625 404.03125 185.09375 404.32812Q184.53125 404.625 183.85938 404.625Q183.15625 404.625 182.625 404.375Q182.09375 404.10938 181.73438 403.67188Q181.39062 403.23438 181.21875 402.67188Q181.04688 402.09375 181.04688 401.45312L181.04688 401.20312Q181.04688 400.5625 181.21875 400.0Q181.39062 399.42188 181.73438 398.98438Q182.09375 398.54688 182.625 398.29688Q183.15625 398.04688 183.85938 398.04688Q184.60938 398.04688 185.15625 398.34375Q185.71875 398.64062 186.03125 399.17188Q186.35938 399.6875 186.39062 400.34375L185.35938 400.34375Q185.32812 399.95312 185.14062 399.64062Q184.95312 399.3125 184.625 399.125Q184.29688 398.9375 183.85938 398.9375Q183.35938 398.9375 183.01562 399.14062Q182.6875 399.32812 182.48438 399.65625Q182.29688 399.98438 182.20312 400.39062Q182.125 400.79688 182.125 401.20312L182.125 401.45312Q182.125 401.875 182.20312 402.28125Q182.29688 402.67188 182.48438 403.0Q182.6875 403.32812 183.01562 403.53125Q183.35938 403.71875 183.85938 403.71875ZM189.95312 404.625Q189.29688 404.625 188.75 404.40625Q188.21875 404.17188 187.82812 403.76562Q187.45312 403.34375 187.25 402.78125Q187.04688 402.21875 187.04688 401.54688L187.04688 401.3125Q187.04688 400.53125 187.26562 399.92188Q187.5 399.3125 187.89062 398.89062Q188.28125 398.46875 188.78125 398.26562Q189.28125 398.04688 189.8125 398.04688Q190.5 398.04688 190.98438 398.28125Q191.48438 398.51562 191.79688 398.9375Q192.125 399.34375 192.26562 399.92188Q192.42188 400.48438 192.42188 401.14062L192.42188 401.64062L187.6875 401.64062L187.6875 400.75L191.34375 400.75L191.34375 400.67188Q191.3125 400.25 191.15625 399.85938Q191.01562 399.45312 190.6875 399.20312Q190.375 398.9375 189.8125 398.9375Q189.45312 398.9375 189.14062 399.09375Q188.82812 399.25 188.59375 399.5625Q188.375 399.85938 188.25 400.29688Q188.14062 400.73438 188.14062 401.3125L188.14062 401.54688Q188.14062 402.0 188.26562 402.40625Q188.39062 402.79688 188.625 403.09375Q188.875 403.39062 189.21875 403.5625Q189.57812 403.73438 190.01562 403.73438Q190.59375 403.73438 190.98438 403.5Q191.39062 403.26562 191.6875 402.875L192.34375 403.39062Q192.14062 403.70312 191.8125 403.98438Q191.5 404.26562 191.03125 404.45312Q190.57812 404.625 189.95312 404.625ZM194.40625 399.51562L194.40625 404.5L193.32812 404.5L193.32812 398.15625L194.35938 398.15625L194.40625 399.51562ZM194.15625 401.09375L193.70312 401.07812Q193.70312 400.42188 193.89062 399.875Q194.07812 399.3125 194.42188 398.90625Q194.76562 398.5 195.23438 398.28125Q195.70312 398.04688 196.28125 398.04688Q196.75 398.04688 197.125 398.17188Q197.5 398.29688 197.76562 398.57812Q198.03125 398.84375 198.17188 399.28125Q198.3125 399.71875 198.3125 400.34375L198.3125 404.5L197.21875 404.5L197.21875 400.32812Q197.21875 399.82812 197.07812 399.53125Q196.9375 399.23438 196.65625 399.09375Q196.375 398.95312 195.95312 398.95312Q195.54688 398.95312 195.21875 399.125Q194.89062 399.29688 194.65625 399.59375Q194.42188 399.89062 194.28125 400.28125Q194.15625 400.65625 194.15625 401.09375Z" fill-rule="nonzero"/><path stroke="#000000" stroke-width="1.0" stroke-linecap="butt" d="M365.0 290.0L201.0 195.0" fill-rule="nonzero"/><path fill="#000000" d="M157.03125 182.34375Q157.03125 182.04688 156.9375 181.8125Q156.85938 181.57812 156.625 181.39062Q156.40625 181.20312 156.0 181.03125Q155.60938 180.85938 155.01562 180.6875Q154.375 180.5 153.85938 180.28125Q153.35938 180.04688 152.98438 179.75Q152.625 179.4375 152.4375 179.0625Q152.25 178.67188 152.25 178.17188Q152.25 177.67188 152.45312 177.25Q152.65625 176.82812 153.03125 176.51562Q153.42188 176.20312 153.95312 176.03125Q154.48438 175.84375 155.14062 175.84375Q156.10938 175.84375 156.78125 176.21875Q157.45312 176.57812 157.79688 177.17188Q158.15625 177.76562 158.15625 178.42188L157.03125 178.42188Q157.03125 177.95312 156.8125 177.57812Q156.60938 177.20312 156.1875 177.0Q155.78125 176.78125 155.14062 176.78125Q154.54688 176.78125 154.14062 176.96875Q153.75 177.14062 153.5625 177.45312Q153.375 177.76562 153.375 178.15625Q153.375 178.42188 153.48438 178.65625Q153.60938 178.875 153.84375 179.0625Q154.09375 179.25 154.46875 179.40625Q154.84375 179.5625 155.375 179.70312Q156.09375 179.90625 156.625 180.17188Q157.15625 180.42188 157.5 180.73438Q157.84375 181.04688 158.0 181.4375Q158.17188 181.82812 158.17188 182.32812Q158.17188 182.85938 157.95312 183.28125Q157.75 183.70312 157.35938 184.0Q156.96875 184.29688 156.42188 184.46875Q155.875 184.625 155.20312 184.625Q154.60938 184.625 154.03125 184.45312Q153.46875 184.28125 153.0 183.95312Q152.53125 183.625 152.25 183.15625Q151.96875 182.67188 151.96875 182.03125L153.09375 182.03125Q153.09375 182.46875 153.26562 182.78125Q153.4375 183.09375 153.73438 183.29688Q154.03125 183.5 154.40625 183.60938Q154.78125 183.70312 155.20312 183.70312Q155.79688 183.70312 156.20312 183.54688Q156.60938 183.375 156.8125 183.07812Q157.03125 182.76562 157.03125 182.34375ZM159.04688 181.40625L159.04688 181.26562Q159.04688 180.57812 159.23438 180.0Q159.4375 179.40625 159.8125 178.96875Q160.1875 178.53125 160.71875 178.29688Q161.25 178.04688 161.92188 178.04688Q162.57812 178.04688 163.10938 178.29688Q163.65625 178.53125 164.03125 178.96875Q164.40625 179.40625 164.60938 180.0Q164.8125 180.57812 164.8125 181.26562L164.8125 181.40625Q164.8125 182.07812 164.60938 182.67188Q164.40625 183.25 164.03125 183.6875Q163.65625 184.125 163.125 184.375Q162.59375 184.625 161.92188 184.625Q161.26562 184.625 160.71875 184.375Q160.1875 184.125 159.8125 183.6875Q159.4375 183.25 159.23438 182.67188Q159.04688 182.07812 159.04688 181.40625ZM160.125 181.26562L160.125 181.40625Q160.125 181.875 160.23438 182.29688Q160.34375 182.71875 160.5625 183.04688Q160.79688 183.35938 161.14062 183.54688Q161.48438 183.71875 161.92188 183.71875Q162.375 183.71875 162.70312 183.54688Q163.04688 183.35938 163.26562 183.04688Q163.5 182.71875 163.60938 182.29688Q163.71875 181.875 163.71875 181.40625L163.71875 181.26562Q163.71875 180.79688 163.60938 180.375Q163.5 179.95312 163.26562 179.64062Q163.04688 179.3125 162.70312 179.125Q162.375 178.9375 161.92188 178.9375Q161.46875 178.9375 161.125 179.125Q160.79688 179.3125 160.5625 179.64062Q160.34375 179.95312 160.23438 180.375Q160.125 180.79688 160.125 181.26562ZM167.40625 179.51562L167.40625 184.5L166.32812 184.5L166.32812 178.15625L167.35938 178.15625L167.40625 179.51562ZM167.15625 181.09375L166.70312 181.07812Q166.70312 180.42188 166.89062 179.875Q167.07812 179.3125 167.42188 178.90625Q167.76562 178.5 168.23438 178.28125Q168.70312 178.04688 169.28125 178.04688Q169.75 178.04688 170.125 178.17188Q170.5 178.29688 170.76562 178.57812Q171.03125 178.84375 171.17188 179.28125Q171.3125 179.71875 171.3125 180.34375L171.3125 184.5L170.21875 184.5L170.21875 180.32812Q170.21875 179.82812 170.07812 179.53125Q169.9375 179.23438 169.65625 179.09375Q169.375 178.95312 168.95312 178.95312Q168.54688 178.95312 168.21875 179.125Q167.89062 179.29688 167.65625 179.59375Q167.42188 179.89062 167.28125 180.28125Q167.15625 180.65625 167.15625 181.09375ZM177.01562 182.8125Q177.01562 182.57812 176.90625 182.375Q176.8125 182.17188 176.5 182.01562Q176.1875 181.84375 175.5625 181.71875Q175.03125 181.60938 174.60938 181.46875Q174.1875 181.3125 173.89062 181.09375Q173.59375 180.875 173.4375 180.57812Q173.28125 180.28125 173.28125 179.89062Q173.28125 179.51562 173.4375 179.1875Q173.60938 178.84375 173.90625 178.59375Q174.21875 178.32812 174.65625 178.1875Q175.09375 178.04688 175.625 178.04688Q176.39062 178.04688 176.92188 178.3125Q177.46875 178.57812 177.75 179.03125Q178.03125 179.48438 178.03125 180.01562L176.95312 180.01562Q176.95312 179.76562 176.79688 179.51562Q176.64062 179.26562 176.34375 179.10938Q176.04688 178.9375 175.625 178.9375Q175.17188 178.9375 174.89062 179.07812Q174.60938 179.20312 174.48438 179.42188Q174.35938 179.625 174.35938 179.85938Q174.35938 180.04688 174.42188 180.1875Q174.48438 180.3125 174.64062 180.4375Q174.79688 180.54688 175.07812 180.65625Q175.375 180.75 175.82812 180.84375Q176.60938 181.01562 177.10938 181.26562Q177.60938 181.51562 177.85938 181.875Q178.10938 182.21875 178.10938 182.73438Q178.10938 183.15625 177.92188 183.5Q177.75 183.84375 177.42188 184.09375Q177.10938 184.34375 176.65625 184.48438Q176.20312 184.625 175.65625 184.625Q174.8125 184.625 174.23438 184.32812Q173.65625 184.01562 173.35938 183.54688Q173.0625 183.0625 173.0625 182.54688L174.14062 182.54688Q174.17188 182.98438 174.40625 183.25Q174.64062 183.51562 174.96875 183.625Q175.3125 183.71875 175.65625 183.71875Q176.09375 183.71875 176.39062 183.60938Q176.70312 183.48438 176.85938 183.28125Q177.01562 183.07812 177.01562 182.8125ZM181.98438 178.15625L181.98438 178.98438L178.54688 178.98438L178.54688 178.15625L181.98438 178.15625ZM179.71875 176.625L180.79688 176.625L180.79688 182.92188Q180.79688 183.25 180.89062 183.42188Q181.0 183.57812 181.15625 183.64062Q181.3125 183.6875 181.5 183.6875Q181.625 183.6875 181.76562 183.65625Q181.92188 183.625 182.0 183.60938L182.01562 184.5Q181.875 184.54688 181.67188 184.57812Q181.46875 184.625 181.17188 184.625Q180.78125 184.625 180.4375 184.46875Q180.10938 184.29688 179.90625 183.9375Q179.71875 183.5625 179.71875 182.92188L179.71875 176.625ZM184.5 178.15625L184.5 184.5L183.42188 184.5L183.42188 178.15625L184.5 178.15625ZM183.32812 176.48438Q183.32812 176.21875 183.48438 176.03125Q183.65625 175.84375 183.96875 175.84375Q184.28125 175.84375 184.4375 176.03125Q184.60938 176.21875 184.60938 176.48438Q184.60938 176.73438 184.4375 176.92188Q184.28125 177.09375 183.96875 177.09375Q183.65625 177.09375 183.48438 176.92188Q183.32812 176.73438 183.32812 176.48438ZM190.4375 178.15625L191.42188 178.15625L191.42188 184.35938Q191.42188 185.20312 191.07812 185.79688Q190.73438 186.39062 190.125 186.6875Q189.53125 187.0 188.73438 187.0Q188.40625 187.0 187.95312 186.89062Q187.51562 186.79688 187.09375 186.54688Q186.67188 186.3125 186.39062 185.90625L186.95312 185.25Q187.35938 185.73438 187.78125 185.92188Q188.21875 186.10938 188.65625 186.10938Q189.17188 186.10938 189.54688 185.90625Q189.92188 185.71875 190.125 185.34375Q190.32812 184.96875 190.32812 184.42188L190.32812 179.54688L190.4375 178.15625ZM186.0625 181.40625L186.0625 181.28125Q186.0625 180.54688 186.23438 179.95312Q186.42188 179.35938 186.73438 178.9375Q187.0625 178.5 187.51562 178.28125Q187.98438 178.04688 188.57812 178.04688Q189.17188 178.04688 189.60938 178.25Q190.0625 178.45312 190.375 178.85938Q190.6875 179.25 190.875 179.8125Q191.0625 180.35938 191.125 181.0625L191.125 181.60938Q191.0625 182.29688 190.875 182.85938Q190.6875 183.42188 190.375 183.8125Q190.0625 184.20312 189.60938 184.42188Q189.15625 184.625 188.5625 184.625Q187.98438 184.625 187.53125 184.39062Q187.07812 184.14062 186.75 183.70312Q186.42188 183.26562 186.23438 182.6875Q186.0625 182.09375 186.0625 181.40625ZM187.15625 181.28125L187.15625 181.40625Q187.15625 181.875 187.25 182.29688Q187.34375 182.70312 187.54688 183.03125Q187.75 183.34375 188.0625 183.53125Q188.39062 183.70312 188.82812 183.70312Q189.35938 183.70312 189.70312 183.46875Q190.0625 183.23438 190.26562 182.85938Q190.48438 182.48438 190.59375 182.04688L190.59375 180.64062Q190.53125 180.3125 190.39062 180.01562Q190.26562 179.71875 190.0625 179.48438Q189.85938 179.23438 189.54688 179.09375Q189.25 178.95312 188.82812 178.95312Q188.39062 178.95312 188.0625 179.14062Q187.75 179.32812 187.54688 179.65625Q187.34375 179.96875 187.25 180.39062Q187.15625 180.79688 187.15625 181.28125ZM195.95312 184.625Q195.29688 184.625 194.75 184.40625Q194.21875 184.17188 193.82812 183.76562Q193.45312 183.34375 193.25 182.78125Q193.04688 182.21875 193.04688 181.54688L193.04688 181.3125Q193.04688 180.53125 193.26562 179.92188Q193.5 179.3125 193.89062 178.89062Q194.28125 178.46875 194.78125 178.26562Q195.28125 178.04688 195.8125 178.04688Q196.5 178.04688 196.98438 178.28125Q197.48438 178.51562 197.79688 178.9375Q198.125 179.34375 198.26562 179.92188Q198.42188 180.48438 198.42188 181.14062L198.42188 181.64062L193.6875 181.64062L193.6875 180.75L197.34375 180.75L197.34375 180.67188Q197.3125 180.25 197.15625 179.85938Q197.01562 179.45312 196.6875 179.20312Q196.375 178.9375 195.8125 178.9375Q195.45312 178.9375 195.14062 179.09375Q194.82812 179.25 194.59375 179.5625Q194.375 179.85938 194.25 180.29688Q194.14062 180.73438 194.14062 181.3125L194.14062 181.54688Q194.14062 182.0 194.26562 182.40625Q194.39062 182.79688 194.625 183.09375Q194.875 183.39062 195.21875 183.5625Q195.57812 183.73438 196.01562 183.73438Q196.59375 183.73438 196.98438 183.5Q197.39062 183.26562 197.6875 182.875L198.34375 183.39062Q198.14062 183.70312 197.8125 183.98438Q197.5 184.26562 197.03125 184.45312Q196.57812 184.625 195.95312 184.625Z" fill-rule="nonzero"/><path stroke="#000000" stroke-width="1.0" stroke-linecap="butt" d="M365.0 290.0L365.0 101.0" fill-rule="nonzero"/><path stroke="#ff0000" stroke-width="2.0" stroke-linecap="butt" stroke-dasharray="8.0,6.0,2.0,6.0" d="M365.0 195.0L439.0 247.0L406.0 314.0L365.0 323.0L336.0 307.0L209.0 200.0Z" fill-rule="nonzero"/><path fill="#ff0000" d="M371.0 195.0C371.0 198.3137 368.31372 201.0 365.0 201.0C361.68628 201.0 359.0 198.3137 359.0 195.0C359.0 191.6863 361.68628 189.0 365.0 189.0C368.31372 189.0 371.0 191.6863 371.0 195.0Z" fill-rule="nonzero"/><path fill="#ff0000" d="M445.0 247.0C445.0 250.3137 442.31372 253.0 439.0 253.0C435.68628 253.0 433.0 250.3137 433.0 247.0C433.0 243.6863 435.68628 241.0 439.0 241.0C442.31372 241.0 445.0 243.6863 445.0 247.0Z" fill-rule="nonzero"/><path fill="#ff0000" d="M412.0 314.0C412.0 317.31372 409.31372 320.0 406.0 320.0C402.68628 320.0 400.0 317.31372 400.0 314.0C400.0 310.68628 402.68628 308.0 406.0 308.0C409.31372 308.0 412.0 310.68628 412.0 314.0Z" fill-rule="nonzero"/><path fill="#ff0000" d="M371.0 323.0C371.0 326.31372 368.31372 329.0 365.0 329.0C361.68628 329.0 359.0 326.31372 359.0 323.0C359.0 319.68628 361.68628 317.0 365.0 317.0C368.31372 317.0 371.0 319.68628 371.0 323.0Z" fill-rule="nonzero"/><path fill="#ff0000" d="M342.0 307.0C342.0 310.31372 339.31372 313.0 336.0 313.0C332.68628 313.0 330.0 310.31372 330.0 307.0C330.0 303.68628 332.68628 301.0 336.0 301.0C339.31372 301.0 342.0 303.68628 342.0 307.0Z" fill-rule="nonzero"/><path fill="#ff0000" d="M215.0 200.0C215.0 203.3137 212.3137 206.0 209.0 206.0C205.6863 206.0 203.0 203.3137 203.0 200.0C203.0 196.6863 205.6863 194.0 209.0 194.0C212.3137 194.0 215.0 196.6863 215.0 200.0Z" fill-rule="nonzero"/><path fill="#757575" d="M28.36875 44.9L28.36875 30.587502L33.74375 30.587502Q35.384377 30.587502 36.36875 31.025002Q37.353127 31.446877 37.915627 32.353127Q38.478127 33.259377 38.478127 34.24375Q38.478127 35.165627 37.978127 35.978127Q37.49375 36.790627 36.478127 37.275Q37.775 37.665627 38.478127 38.5875Q39.18125 39.49375 39.18125 40.74375Q39.18125 41.759377 38.74375 42.61875Q38.321877 43.478127 37.696877 43.946877Q37.071877 44.415627 36.134377 44.665627Q35.196877 44.9 33.821877 44.9L28.36875 44.9ZM30.259375 36.603127L33.353127 36.603127Q34.61875 36.603127 35.165627 36.43125Q35.884377 36.2125 36.24375 35.728127Q36.61875 35.228127 36.61875 34.4625Q36.61875 33.759377 36.275 33.2125Q35.93125 32.665627 35.290627 32.478127Q34.665627 32.275 33.11875 32.275L30.259375 32.275L30.259375 36.603127ZM30.259375 43.2125L33.821877 43.2125Q34.74375 43.2125 35.11875 43.134377Q35.775 43.025 36.2125 42.759377Q36.65 42.478127 36.93125 41.9625Q37.2125 41.43125 37.2125 40.74375Q37.2125 39.946877 36.80625 39.353127Q36.4 38.759377 35.665627 38.525Q34.93125 38.290627 33.571877 38.290627L30.259375 38.290627L30.259375 43.2125ZM41.18125 44.9L41.18125 30.587502L42.93125 30.587502L42.93125 44.9L41.18125 44.9ZM45.228127 32.603127L45.228127 30.587502L46.99375 30.587502L46.99375 32.603127L45.228127 32.603127ZM45.228127 44.9L45.228127 34.525L46.99375 34.525L46.99375 44.9L45.228127 44.9ZM49.2125 44.9L49.2125 34.525L50.80625 34.525L50.80625 36.009377Q51.946877 34.290627 54.103127 34.290627Q55.040627 34.290627 55.821877 34.634377Q56.61875 34.9625 57.009377 35.509377Q57.4 36.05625 57.55625 36.80625Q57.65 37.30625 57.65 38.525L57.65 44.9L55.884377 44.9L55.884377 38.5875Q55.884377 37.509377 55.68125 36.978127Q55.478127 36.446877 54.946877 36.134377Q54.43125 35.821877 53.728127 35.821877Q52.603127 35.821877 51.790627 36.540627Q50.978127 37.24375 50.978127 39.228127L50.978127 44.9L49.2125 44.9ZM58.9 45.759377L60.603127 46.009377Q60.7125 46.80625 61.196877 47.165627Q61.853127 47.65 62.99375 47.65Q64.2125 47.65 64.86875 47.165627Q65.54063 46.68125 65.775 45.80625Q65.91563 45.259377 65.9 43.540627Q64.74375 44.9 63.025 44.9Q60.884377 44.9 59.7125 43.353127Q58.540627 41.80625 58.540627 39.65Q58.540627 38.165627 59.071877 36.915627Q59.61875 35.665627 60.634377 34.978127Q61.665627 34.290627 63.040627 34.290627Q64.86875 34.290627 66.07188 35.775L66.07188 34.525L67.68125 34.525L67.68125 43.49375Q67.68125 45.915627 67.18125 46.915627Q66.69688 47.93125 65.61875 48.509377Q64.55625 49.103127 62.99375 49.103127Q61.15 49.103127 59.99375 48.275Q58.853127 47.446877 58.9 45.759377ZM60.353127 39.525Q60.353127 41.571877 61.165627 42.509377Q61.978127 43.446877 63.196877 43.446877Q64.4 43.446877 65.2125 42.509377Q66.04063 41.571877 66.04063 39.5875Q66.04063 37.68125 65.19688 36.7125Q64.35313 35.74375 63.165627 35.74375Q61.99375 35.74375 61.165627 36.696877Q60.353127 37.65 60.353127 39.525ZM76.36875 44.9L76.36875 30.587502L81.74375 30.587502Q83.38438 30.587502 84.36875 31.025002Q85.35313 31.446877 85.91563 32.353127Q86.47813 33.259377 86.47813 34.24375Q86.47813 35.165627 85.97813 35.978127Q85.49375 36.790627 84.47813 37.275Q85.775 37.665627 86.47813 38.5875Q87.18125 39.49375 87.18125 40.74375Q87.18125 41.759377 86.74375 42.61875Q86.32188 43.478127 85.69688 43.946877Q85.07188 44.415627 84.13438 44.665627Q83.19688 44.9 81.82188 44.9L76.36875 44.9ZM78.25938 36.603127L81.35313 36.603127Q82.61875 36.603127 83.16563 36.43125Q83.88438 36.2125 84.24375 35.728127Q84.61875 35.228127 84.61875 34.4625Q84.61875 33.759377 84.275 33.2125Q83.93125 32.665627 83.29063 32.478127Q82.66563 32.275 81.11875 32.275L78.25938 32.275L78.25938 36.603127ZM78.25938 43.2125L81.82188 43.2125Q82.74375 43.2125 83.11875 43.134377Q83.775 43.025 84.2125 42.759377Q84.65 42.478127 84.93125 41.9625Q85.2125 41.43125 85.2125 40.74375Q85.2125 39.946877 84.80625 39.353127Q84.4 38.759377 83.66563 38.525Q82.93125 38.290627 81.57188 38.290627L78.25938 38.290627L78.25938 43.2125ZM89.18125 44.9L89.18125 30.587502L90.93125 30.587502L90.93125 44.9L89.18125 44.9ZM99.99375 43.61875Q99.00938 44.446877 98.10313 44.790627Q97.19688 45.134377 96.16563 45.134377Q94.4625 45.134377 93.54063 44.30625Q92.61875 43.4625 92.61875 42.165627Q92.61875 41.4 92.9625 40.775Q93.32188 40.15 93.88438 39.775Q94.44688 39.384377 95.15 39.18125Q95.66563 39.05625 96.7125 38.915627Q98.8375 38.665627 99.8375 38.321877Q99.85313 37.9625 99.85313 37.853127Q99.85313 36.790627 99.35313 36.3375Q98.68125 35.74375 97.35313 35.74375Q96.10313 35.74375 95.50938 36.18125Q94.93125 36.61875 94.65 37.728127L92.93125 37.49375Q93.16563 36.384377 93.69688 35.7125Q94.22813 35.025 95.24375 34.665627Q96.25938 34.290627 97.60313 34.290627Q98.93125 34.290627 99.75938 34.603127Q100.5875 34.915627 100.97813 35.4Q101.36875 35.86875 101.525 36.5875Q101.61875 37.040627 101.61875 38.2125L101.61875 40.55625Q101.61875 43.009377 101.72813 43.665627Q101.8375 44.30625 102.18125 44.9L100.3375 44.9Q100.07188 44.353127 99.99375 43.61875ZM99.8375 39.696877Q98.88438 40.0875 96.9625 40.353127Q95.88438 40.509377 95.43125 40.7125Q94.99375 40.9 94.74375 41.275Q94.49375 41.65 94.49375 42.11875Q94.49375 42.821877 95.025 43.290627Q95.55625 43.759377 96.5875 43.759377Q97.60313 43.759377 98.38438 43.321877Q99.18125 42.86875 99.55625 42.103127Q99.8375 41.49375 99.8375 40.3375L99.8375 39.696877ZM103.57188 39.7125Q103.57188 36.8375 105.16563 35.446877Q106.50938 34.290627 108.43125 34.290627Q110.57188 34.290627 111.91563 35.696877Q113.275 37.103127 113.275 39.571877Q113.275 41.571877 112.68125 42.728127Q112.0875 43.86875 110.93125 44.509377Q109.79063 45.134377 108.43125 45.134377Q106.24375 45.134377 104.9 43.74375Q103.57188 42.3375 103.57188 39.7125ZM105.36875 39.7125Q105.36875 41.7125 106.22813 42.696877Q107.10313 43.68125 108.43125 43.68125Q109.74375 43.68125 110.60313 42.696877Q111.47813 41.696877 111.47813 39.65Q111.47813 37.728127 110.60313 36.74375Q109.72813 35.74375 108.43125 35.74375Q107.10313 35.74375 106.22813 36.74375Q105.36875 37.728127 105.36875 39.7125ZM117.13438 44.9L113.9625 34.525L115.775 34.525L117.43125 40.509377L118.04063 42.74375Q118.0875 42.571877 118.57188 40.603127L120.22813 34.525L122.04063 34.525L123.5875 40.540627L124.10313 42.525L124.69688 40.525L126.47813 34.525L128.18124 34.525L124.94688 44.9L123.11875 44.9L121.4625 38.68125L121.07188 36.915627L118.9625 44.9L117.13438 44.9Z" fill-rule="nonzero"/></svg>