<svg version="1.1" viewBox="0.0 0.0 730.0 538.0" fill="none" stroke="none" stroke-linecap="square" stroke-miterlimit="10" width="730" height="538" xmlns:xlink="http://www.w3.org/1999/xlink" xmlns="http://www.w3.org/2000/svg"><path fill="#ffffff" d="M0 0L730.0 0L730.0 538.0L0 538.0L0 0Z" fill-rule="nonzero"/><path fill="#ffffff" d="M26.9 68.833336L703.10004 68.833336L703.10004 511.1L26.9 511.1L26.9 68.833336Z" fill-rule="nonzero"/><path stroke="#000000" stroke-width="1.0" stroke-linecap="butt" d="M365.0 290.0C365.0 290.0 365.0 290.0 365.0 290.0C365.0 290.0 365.0 290.0 365.0 290.0C365.0 290.0 365.0 290.0 365.0 290.0C365.0 290.0 365.0 290.0 365.0 290.0" fill-rule="nonzero"/><path fill="#000000" d="M353.0625 282.04688L353.0625 283.35938Q353.0625 284.40625 352.875 285.125Q352.6875 285.84375 352.32812 286.28125Q351.98438 286.71875 351.48438 286.92188Q351.0 287.125 350.375 287.125Q349.89062 287.125 349.46875 287.0Q349.04688 286.875 348.71875 286.60938Q348.39062 286.32812 348.15625 285.89062Q347.92188 285.45312 347.79688 284.82812Q347.67188 284.1875 347.67188 283.35938L347.67188 282.04688Q347.67188 281.0 347.85938 280.29688Q348.0625 279.59375 348.40625 279.15625Q348.76562 278.71875 349.25 278.53125Q349.75 278.34375 350.35938 278.34375Q350.85938 278.34375 351.28125 278.46875Q351.70312 278.59375 352.03125 278.85938Q352.35938 279.10938 352.57812 279.54688Q352.8125 279.96875 352.9375 280.59375Q353.0625 281.21875 353.0625 282.04688ZM351.96875 283.53125L351.96875 281.875Q351.96875 281.29688 351.90625 280.85938Q351.84375 280.42188 351.70312 280.10938Q351.57812 279.79688 351.375 279.60938Q351.1875 279.42188 350.9375 279.32812Q350.6875 279.23438 350.35938 279.23438Q349.98438 279.23438 349.67188 279.375Q349.375 279.51562 349.17188 279.82812Q348.96875 280.14062 348.85938 280.65625Q348.76562 281.15625 348.76562 281.875L348.76562 283.53125Q348.76562 284.10938 348.82812 284.54688Q348.90625 284.98438 349.03125 285.3125Q349.17188 285.625 349.35938 285.82812Q349.5625 286.03125 349.8125 286.125Q350.0625 286.21875 350.375 286.21875Q350.78125 286.21875 351.07812 286.07812Q351.375 285.92188 351.57812 285.59375Q351.78125 285.26562 351.875 284.76562Q351.96875 284.25 351.96875 283.53125ZM355.8125 285.70312L355.8125 286.57812Q355.8125 287.125 355.53125 287.71875Q355.26562 288.3125 354.78125 288.70312L354.17188 288.28125Q354.35938 288.01562 354.48438 287.75Q354.60938 287.48438 354.67188 287.20312Q354.75 286.92188 354.75 286.59375L354.75 285.70312L355.8125 285.70312ZM362.0625 282.04688L362.0625 283.35938Q362.0625 284.40625 361.875 285.125Q361.6875 285.84375 361.32812 286.28125Q360.98438 286.71875 360.48438 286.92188Q360.0 287.125 359.375 287.125Q358.89062 287.125 358.46875 287.0Q358.04688 286.875 357.71875 286.60938Q357.39062 286.32812 357.15625 285.89062Q356.92188 285.45312 356.79688 284.82812Q356.67188 284.1875 356.67188 283.35938L356.67188 282.04688Q356.67188 281.0 356.85938 280.29688Q357.0625 279.59375 357.40625 279.15625Q357.76562 278.71875 358.25 278.53125Q358.75 278.34375 359.35938 278.34375Q359.85938 278.34375 360.28125 278.46875Q360.70312 278.59375 361.03125 278.85938Q361.35938 279.10938 361.57812 279.54688Q361.8125 279.96875 361.9375 280.59375Q362.0625 281.21875 362.0625 282.04688ZM360.96875 283.53125L360.96875 281.875Q360.96875 281.29688 360.90625 280.85938Q360.84375 280.42188 360.70312 280.10938Q360.57812 279.79688 360.375 279.60938Q360.1875 279.42188 359.9375 279.32812Q359.6875 279.23438 359.35938 279.23438Q358.98438 279.23438 358.67188 279.375Q358.375 279.51562 358.17188 279.82812Q357.96875 280.14062 357.85938 280.65625Q357.76562 281.15625 357.76562 281.875L357.76562 283.53125Q357.76562 284.10938 357.82812 284.54688Q357.90625 284.98438 358.03125 285.3125Q358.17188 285.625 358.35938 285.82812Q358.5625 286.03125 358.8125 286.125Q359.0625 286.21875 359.375 286.21875Q359.78125 286.21875 360.07812 286.07812Q360.375 285.92188 360.57812 285.59375Q360.78125 285.26562 360.875 284.76562Q360.96875 284.25 360.96875 283.53125Z" fill-rule="nonzero"/><path stroke="#000000" stroke-width="1.0" stroke-linecap="butt" d="M412.28333 290.0C412.28333 263.88614 391.11386 242.71666 365.0 242.71666C338.88614 242.71666 317.71667 263.88614 317.71667 290.0C317.71667 316.11386 338.88614 337.28333 365.0 337.28333C391.11386 337.28333 412.28333 316.11386 412.28333 290.0" fill-rule="nonzero"/><path fill="#000000" d="M353.0625 234.76353L353.0625 236.07603Q353.0625 237.12291 352.875 237.84166Q352.6875 238.56041 352.32812 238.99791Q351.98438 239.43541 351.48438 239.63853Q351.0 239.84166 350.375 239.84166Q349.89062 239.84166 349.46875 239.71666Q349.04688 239.59166 348.71875 239.32603Q348.39062 239.04478 348.15625 238.60728Q347.92188 238.16978 347.79688 237.54478Q347.67188 236.90416 347.67188 236.07603L347.67188 234.76353Q347.67188 233.71666 347.85938 233.01353Q348.0625 232.31041 348.40625 231.87291Q348.76562 231.43541 349.25 231.24791Q349.75 231.06041 350.35938 231.06041Q350.85938 231.06041 351.28125 231.18541Q351.70312 231.31041 352.03125 231.57603Q352.35938 231.82603 352.57812 232.26353Q352.8125 232.68541 352.9375 233.31041Q353.0625 233.93541 353.0625 234.76353ZM351.96875 236.24791L351.96875 234.59166Q351.96875 234.01353 351.90625 233.57603Q351.84375 233.13853 351.70312 232.82603Q351.57812 232.51353 351.375 232.32603Q351.1875 232.13853 350.9375 232.04478Q350.6875 231.95103 350.35938 231.95103Q349.98438 231.95103 349.67188 232.09166Q349.375 232.23228 349.17188 232.54478Q348.96875 232.85728 348.85938 233.37291Q348.76562 233.87291 348.76562 234.59166L348.76562 236.24791Q348.76562 236.82603 348.82812 237.26353Q348.90625 237.70103 349.03125 238.02916Q349.17188 238.34166 349.35938 238.54478Q349.5625 238.74791 349.8125 238.84166Q350.0625 238.93541 350.375 238.93541Q350.78125 238.93541 351.07812 238.79478Q351.375 238.63853 351.57812 238.31041Q351.78125 237.98228 351.875 237.48228Q351.96875 236.96666 351.96875 236.24791ZM355.8125 238.41978L355.8125 239.29478Q355.8125 239.84166 355.53125 240.43541Q355.26562 241.02916 354.78125 241.41978L354.17188 240.99791Q354.35938 240.73228 354.48438 240.46666Q354.60938 240.20103 354.67188 239.91978Q354.75 239.63853 354.75 239.31041L354.75 238.41978L355.8125 238.41978ZM360.26562 231.13853L360.26562 239.71666L359.1875 239.71666L359.1875 232.49791L357.0 233.29478L357.0 232.31041L360.10938 231.13853L360.26562 231.13853Z" fill-rule="nonzero"/><path stroke="#000000" stroke-width="1.0" stroke-linecap="butt" d="M459.56668 290.0C459.56668 237.77228 417.22772 195.43333 365.0 195.43333C312.77228 195.43333 270.43332 237.77228 270.43332 290.0C270.43332 342.22772 312.77228 384.56668 365.0 384.56668C417.22772 384.56668 459.56668 342.22772 459.56668 290.0" fill-rule="nonzero"/><path fill="#000000" d="M353.0625 187.48021L353.0625 188.79271Q353.0625 189.83958 352.875 190.55833Q352.6875 191.27708 352.32812 191.71458Q351.98438 192.15208 351.48438 192.35521Q351.0 192.55833 350.375 192.55833Q349.89062 192.55833 349.46875 192.43333Q349.04688 192.30833 348.71875 192.04271Q348.39062 191.76146 348.15625 191.32396Q347.92188 190.88646 347.79688 190.26146Q347.67188 189.62083 347.67188 188.79271L347.67188 187.48021Q347.67188 186.43333 347.85938 185.73021Q348.0625 185.02708 348.40625 184.58958Q348.76562 184.15208 349.25 183.96458Q349.75 183.77708 350.35938 183.77708Q350.85938 183.77708 351.28125 183.90208Q351.70312 184.02708 352.03125 184.29271Q352.35938 184.54271 352.57812 184.98021Q352.8125 185.40208 352.9375 186.02708Q353.0625 186.65208 353.0625 187.48021ZM351.96875 188.96458L351.96875 187.30833Q351.96875 186.73021 351.90625 186.29271Q351.84375 185.85521 351.70312 185.54271Q351.57812 185.23021 351.375 185.04271Q351.1875 184.85521 350.9375 184.76146Q350.6875 184.66771 350.35938 184.66771Q349.98438 184.66771 349.67188 184.80833Q349.375 184.94896 349.17188 185.26146Q348.96875 185.57396 348.85938 186.08958Q348.76562 186.58958 348.76562 187.30833L348.76562 188.96458Q348.76562 189.54271 348.82812 189.98021Q348.90625 190.41771 349.03125 190.74583Q349.17188 191.05833 349.35938 191.26146Q349.5625 191.46458 349.8125 191.55833Q350.0625 191.65208 350.375 191.65208Q350.78125 191.65208 351.07812 191.51146Q351.375 191.35521 351.57812 191.02708Q351.78125 190.69896 351.875 190.19896Q351.96875 189.68333 351.96875 188.96458ZM355.8125 191.13646L355.8125 192.01146Q355.8125 192.55833 355.53125 193.15208Q355.26562 193.74583 354.78125 194.13646L354.17188 193.71458Q354.35938 193.44896 354.48438 193.18333Q354.60938 192.91771 354.67188 192.63646Q354.75 192.35521 354.75 192.02708L354.75 191.13646L355.8125 191.13646ZM362.29688 191.54271L362.29688 192.43333L356.71875 192.43333L356.71875 191.65208L359.51562 188.54271Q360.03125 187.96458 360.3125 187.57396Q360.59375 187.16771 360.70312 186.85521Q360.82812 186.52708 360.82812 186.19896Q360.82812 185.77708 360.65625 185.43333Q360.48438 185.08958 360.14062 184.88646Q359.8125 184.66771 359.32812 184.66771Q358.76562 184.66771 358.39062 184.90208Q358.01562 185.12083 357.82812 185.51146Q357.64062 185.90208 357.64062 186.40208L356.54688 186.40208Q356.54688 185.68333 356.85938 185.08958Q357.1875 184.49583 357.79688 184.13646Q358.42188 183.77708 359.32812 183.77708Q360.14062 183.77708 360.71875 184.07396Q361.29688 184.35521 361.59375 184.87083Q361.90625 185.37083 361.90625 186.05833Q361.90625 186.43333 361.78125 186.82396Q361.65625 187.19896 361.4375 187.58958Q361.21875 187.96458 360.92188 188.33958Q360.64062 188.69896 360.3125 189.05833L358.01562 191.54271L362.29688 191.54271Z" fill-rule="nonzero"/><path stroke="#000000" stroke-width="1.0" stroke-linecap="butt" d="M506.85 290.0C506.85 211.6584 443.34158 148.15 365.0 148.15C286.65842 148.15 223.15 211.6584 223.15 290.0C223.15 368.34158 286.65842 431.85 365.0 431.85C443.34158 431.85 506.85 368.34158 506.85 290.0" fill-rule="nonzero"/><path fill="#000000" d="M353.0625 140.19687L353.0625 141.50937Q353.0625 142.55624 352.875 143.275Q352.6875 143.99374 352.32812 144.43124Q351.98438 144.86874 351.48438 145.07187Q351.0 145.275 350.375 145.275Q349.89062 145.275 349.46875 145.15Q349.04688 145.025 348.71875 144.75937Q348.39062 144.47812 348.15625 144.04062Q347.92188 143.60312 347.79688 142.97812Q347.67188 142.3375 347.67188 141.50937L347.67188 140.19687Q347.67188 139.15 347.85938 138.44687Q348.0625 137.74374 348.40625 137.30624Q348.76562 136.86874 349.25 136.68124Q349.75 136.49374 350.35938 136.49374Q350.85938 136.49374 351.28125 136.61874Q351.70312 136.74374 352.03125 137.00937Q352.35938 137.25937 352.57812 137.69687Q352.8125 138.11874 352.9375 138.74374Q353.0625 139.36874 353.0625 140.19687ZM351.96875 141.68124L351.96875 140.025Q351.96875 139.44687 351.90625 139.00937Q351.84375 138.57187 351.70312 138.25937Q351.57812 137.94687 351.375 137.75937Q351.1875 137.57187 350.9375 137.47812Q350.6875 137.38437 350.35938 137.38437Q349.98438 137.38437 349.67188 137.525Q349.375 137.66562 349.17188 137.97812Q348.96875 138.29062 348.85938 138.80624Q348.76562 139.30624 348.76562 140.025L348.76562 141.68124Q348.76562 142.25937 348.82812 142.69687Q348.90625 143.13437 349.03125 143.4625Q349.17188 143.775 349.35938 143.97812Q349.5625 144.18124 349.8125 144.275Q350.0625 144.36874 350.375 144.36874Q350.78125 144.36874 351.07812 144.22812Q351.375 144.07187 351.57812 143.74374Q351.78125 143.41562 351.875 142.91562Q351.96875 142.4 351.96875 141.68124ZM355.8125 143.85312L355.8125 144.72812Q355.8125 145.275 355.53125 145.86874Q355.26562 146.4625 354.78125 146.85312L354.17188 146.43124Q354.35938 146.16562 354.48438 145.9Q354.60938 145.63437 354.67188 145.35312Q354.75 145.07187 354.75 144.74374L354.75 143.85312L355.8125 143.85312ZM358.29688 140.35312L359.0625 140.35312Q359.64062 140.35312 360.0 140.16562Q360.375 139.9625 360.5625 139.63437Q360.75 139.30624 360.75 138.88437Q360.75 138.4 360.57812 138.07187Q360.42188 137.72812 360.09375 137.55624Q359.76562 137.38437 359.26562 137.38437Q358.79688 137.38437 358.45312 137.57187Q358.10938 137.74374 357.90625 138.07187Q357.71875 138.4 357.71875 138.85312L356.625 138.85312Q356.625 138.19687 356.95312 137.66562Q357.28125 137.13437 357.875 136.82187Q358.46875 136.49374 359.26562 136.49374Q360.03125 136.49374 360.60938 136.775Q361.1875 137.04062 361.51562 137.5875Q361.84375 138.11874 361.84375 138.91562Q361.84375 139.24374 361.6875 139.60312Q361.53125 139.9625 361.21875 140.29062Q360.90625 140.60312 360.40625 140.80624Q359.92188 141.00937 359.21875 141.00937L358.29688 141.00937L358.29688 140.35312ZM358.29688 141.24374L358.29688 140.5875L359.21875 140.5875Q360.03125 140.5875 360.5625 140.79062Q361.09375 140.97812 361.40625 141.30624Q361.71875 141.61874 361.84375 142.00937Q361.96875 142.38437 361.96875 142.775Q361.96875 143.36874 361.76562 143.8375Q361.5625 144.29062 361.1875 144.61874Q360.82812 144.93124 360.32812 145.10312Q359.84375 145.275 359.26562 145.275Q358.70312 145.275 358.21875 145.11874Q357.73438 144.94687 357.35938 144.65Q356.98438 144.35312 356.76562 143.91562Q356.5625 143.4625 356.5625 142.9L357.64062 142.9Q357.64062 143.3375 357.82812 143.68124Q358.03125 144.00937 358.39062 144.19687Q358.76562 144.36874 359.26562 144.36874Q359.76562 144.36874 360.125 144.19687Q360.48438 144.025 360.67188 143.68124Q360.875 143.32187 360.875 142.79062Q360.875 142.25937 360.65625 141.91562Q360.4375 141.57187 360.01562 141.41562Q359.60938 141.24374 359.0625 141.24374L358.29688 141.24374Z" fill-rule="nonzero"/><path stroke="#000000" stroke-width="1.0" stroke-linecap="butt" d="M554.13336 290.0C554.13336 185.54454 469.45544 100.86667 365.0 100.86667C260.54456 100.86667 175.86667 185.54454 175.86667 290.0C175.86667 394.45544 260.54456 479.13333 365.0 479.13333C469.45544 479.13333 554.13336 394.45544 554.13336 290.0" fill-rule="nonzero"/><path fill="#000000" d="M353.0625 92.91354L353.0625 94.22604Q353.0625 95.27292 352.875 95.99167Q352.6875 96.71042 352.32812 97.14792Q351.98438 97.58542 351.48438 97.78854Q351.0 97.99167 350.375 97.99167Q349.89062 97.99167 349.46875 97.86667Q349.04688 97.74167 348.71875 97.47604Q348.39062 97.19479 348.15625 96.75729Q347.92188 96.31979 347.79688 95.69479Q347.67188 95.05417 347.67188 94.22604L347.67188 92.91354Q347.67188 91.86667 347.85938 91.16354Q348.0625 90.46042 348.40625 90.02292Q348.76562 89.58542 349.25 89.39792Q349.75 89.21042 350.35938 89.21042Q350.85938 89.21042 351.28125 89.33542Q351.70312 89.46042 352.03125 89.72604Q352.35938 89.97604 352.57812 90.41354Q352.8125 90.83542 352.9375 91.46042Q353.0625 92.08542 353.0625 92.91354ZM351.96875 94.39792L351.96875 92.74167Q351.96875 92.16354 351.90625 91.72604Q351.84375 91.28854 351.70312 90.97604Q351.57812 90.66354 351.375 90.47604Q351.1875 90.28854 350.9375 90.19479Q350.6875 90.10104 350.35938 90.10104Q349.98438 90.10104 349.67188 90.24167Q349.375 90.38229 349.17188 90.69479Q348.96875 91.00729 348.85938 91.52292Q348.76562 92.02292 348.76562 92.74167L348.76562 94.39792Q348.76562 94.97604 348.82812 95.41354Q348.90625 95.85104 349.03125 96.17917Q349.17188 96.49167 349.35938 96.69479Q349.5625 96.89792 349.8125 96.99167Q350.0625 97.08542 350.375 97.08542Q350.78125 97.08542 351.07812 96.94479Q351.375 96.78854 351.57812 96.46042Q351.78125 96.13229 351.875 95.63229Q351.96875 95.11667 351.96875 94.39792ZM355.8125 96.56979L355.8125 97.44479Q355.8125 97.99167 355.53125 98.58542Q355.26562 99.17917 354.78125 99.56979L354.17188 99.14792Q354.35938 98.88229 354.48438 98.61667Q354.60938 98.35104 354.67188 98.06979Q354.75 97.78854 354.75 97.46042L354.75 96.56979L355.8125 96.56979ZM362.46875 94.99167L362.46875 95.88229L356.3125 95.88229L356.3125 95.24167L360.125 89.33542L361.01562 89.33542L360.0625 91.03854L357.54688 94.99167L362.46875 94.99167ZM361.28125 89.33542L361.28125 97.86667L360.20312 97.86667L360.20312 89.33542L361.28125 89.33542Z" fill-rule="nonzero"/><path stroke="#000000" stroke-width="1.0" stroke-linecap="butt" d="M365.0 290.0L365.0 101.0" fill-rule="nonzero"/><path fill="#000000" d="M335.64062 77.78125L336.76562 77.78125Q336.67188 78.59375 336.29688 79.234375Q335.92188 79.875 335.23438 80.25Q334.5625 80.625 333.53125 80.625Q332.78125 80.625 332.17188 80.34375Q331.5625 80.046875 331.10938 79.53125Q330.67188 79.015625 330.4375 78.296875Q330.20312 77.5625 330.20312 76.65625L330.20312 75.8125Q330.20312 74.921875 330.4375 74.1875Q330.67188 73.453125 331.125 72.9375Q331.57812 72.40625 332.20312 72.125Q332.84375 71.84375 333.625 71.84375Q334.59375 71.84375 335.26562 72.21875Q335.9375 72.578125 336.29688 73.21875Q336.67188 73.859375 336.76562 74.703125L335.64062 74.703125Q335.5625 74.109375 335.32812 73.6875Q335.10938 73.25 334.70312 73.015625Q334.29688 72.78125 333.625 72.78125Q333.0625 72.78125 332.625 73.0Q332.20312 73.203125 331.90625 73.609375Q331.625 74.0 331.46875 74.5625Q331.32812 75.125 331.32812 75.796875L331.32812 76.65625Q331.32812 77.28125 331.45312 77.84375Q331.59375 78.390625 331.85938 78.8125Q332.125 79.21875 332.54688 79.46875Q332.96875 79.703125 333.53125 79.703125Q334.25 79.703125 334.67188 79.46875Q335.10938 79.234375 335.32812 78.8125Q335.54688 78.390625 335.64062 77.78125ZM342.0625 79.421875L342.0625 76.15625Q342.0625 75.78125 341.90625 75.5Q341.76562 75.21875 341.46875 75.078125Q341.17188 74.921875 340.73438 74.921875Q340.3125 74.921875 340.0 75.0625Q339.70312 75.203125 339.53125 75.4375Q339.35938 75.65625 339.35938 75.921875L338.28125 75.921875Q338.28125 75.578125 338.45312 75.25Q338.625 74.90625 338.95312 74.640625Q339.28125 74.359375 339.75 74.203125Q340.21875 74.046875 340.79688 74.046875Q341.48438 74.046875 342.01562 74.28125Q342.54688 74.515625 342.84375 74.984375Q343.15625 75.453125 343.15625 76.15625L343.15625 79.109375Q343.15625 79.4375 343.20312 79.796875Q343.26562 80.140625 343.375 80.40625L343.375 80.5L342.23438 80.5Q342.15625 80.3125 342.10938 80.0Q342.0625 79.6875 342.0625 79.421875ZM342.25 76.65625L342.26562 77.421875L341.17188 77.421875Q340.70312 77.421875 340.34375 77.5Q339.98438 77.5625 339.73438 77.71875Q339.48438 77.859375 339.35938 78.078125Q339.23438 78.296875 339.23438 78.59375Q339.23438 78.890625 339.35938 79.140625Q339.5 79.375 339.76562 79.53125Q340.04688 79.671875 340.4375 79.671875Q340.9375 79.671875 341.3125 79.46875Q341.70312 79.25 341.92188 78.953125Q342.15625 78.640625 342.17188 78.34375L342.64062 78.875Q342.59375 79.109375 342.40625 79.421875Q342.23438 79.71875 341.92188 80.0Q341.625 80.265625 341.20312 80.453125Q340.79688 80.625 340.28125 80.625Q339.64062 80.625 339.15625 80.375Q338.67188 80.109375 338.40625 79.6875Q338.14062 79.265625 338.14062 78.734375Q338.14062 78.21875 338.32812 77.84375Q338.53125 77.453125 338.90625 77.1875Q339.28125 76.921875 339.8125 76.796875Q340.34375 76.65625 341.0 76.65625L342.25 76.65625ZM346.40625 75.15625L346.40625 80.5L345.32812 80.5L345.32812 74.15625L346.375 74.15625L346.40625 75.15625ZM348.39062 74.125L348.39062 75.125Q348.25 75.109375 348.125 75.09375Q348.01562 75.078125 347.85938 75.078125Q347.48438 75.078125 347.1875 75.203125Q346.90625 75.3125 346.70312 75.53125Q346.51562 75.734375 346.39062 76.03125Q346.28125 76.328125 346.25 76.671875L345.9375 76.84375Q345.9375 76.265625 346.04688 75.765625Q346.17188 75.265625 346.40625 74.875Q346.65625 74.484375 347.01562 74.265625Q347.39062 74.046875 347.90625 74.046875Q348.03125 74.046875 348.17188 74.078125Q348.32812 74.09375 348.39062 74.125ZM351.10938 79.84375L352.875 74.15625L354.03125 74.15625L351.48438 81.484375Q351.40625 81.71875 351.25 81.984375Q351.10938 82.265625 350.89062 82.5Q350.67188 82.75 350.35938 82.90625Q350.04688 83.0625 349.60938 83.0625Q349.48438 83.0625 349.28125 83.015625Q349.07812 82.984375 349.0 82.96875L349.0 82.09375Q349.04688 82.09375 349.14062 82.09375Q349.25 82.109375 349.28125 82.109375Q349.65625 82.109375 349.90625 82.015625Q350.17188 81.921875 350.34375 81.6875Q350.53125 81.46875 350.65625 81.078125L351.10938 79.84375ZM349.8125 74.15625L351.45312 79.078125L351.73438 80.21875L350.96875 80.625L348.625 74.15625L349.8125 74.15625ZM355.04688 77.40625L355.04688 77.265625Q355.04688 76.578125 355.23438 76.0Q355.4375 75.40625 355.8125 74.96875Q356.1875 74.53125 356.71875 74.296875Q357.25 74.046875 357.92188 74.046875Q358.57812 74.046875 359.10938 74.296875Q359.65625 74.53125 360.03125 74.96875Q360.40625 75.40625 360.60938 76.0Q360.8125 76.578125 360.8125 77.265625L360.8125 77.40625Q360.8125 78.078125 360.60938 78.671875Q360.40625 79.25 360.03125 79.6875Q359.65625 80.125 359.125 80.375Q358.59375 80.625 357.92188 80.625Q357.26562 80.625 356.71875 80.375Q356.1875 80.125 355.8125 79.6875Q355.4375 79.25 355.23438 78.671875Q355.04688 78.078125 355.04688 77.40625ZM356.125 77.265625L356.125 77.40625Q356.125 77.875 356.23438 78.296875Q356.34375 78.71875 356.5625 79.046875Q356.79688 79.359375 357.14062 79.546875Q357.48438 79.71875 357.92188 79.71875Q358.375 79.71875 358.70312 79.546875Q359.04688 79.359375 359.26562 79.046875Q359.5 78.71875 359.60938 78.296875Q359.71875 77.875 359.71875 77.40625L359.71875 77.265625Q359.71875 76.796875 359.60938 76.375Q359.5 75.953125 359.26562 75.640625Q359.04688 75.3125 358.70312 75.125Q358.375 74.9375 357.92188 74.9375Q357.46875 74.9375 357.125 75.125Q356.79688 75.3125 356.5625 75.640625Q356.34375 75.953125 356.23438 76.375Q356.125 76.796875 356.125 77.265625ZM363.40625 75.375L363.40625 82.9375L362.32812 82.9375L362.32812 74.15625L363.3125 74.15625L363.40625 75.375ZM367.6875 77.28125L367.6875 77.40625Q367.6875 78.09375 367.51562 78.6875Q367.35938 79.265625 367.04688 79.703125Q366.73438 80.140625 366.26562 80.390625Q365.8125 80.625 365.21875 80.625Q364.625 80.625 364.15625 80.421875Q363.6875 80.21875 363.35938 79.84375Q363.04688 79.453125 362.85938 78.921875Q362.67188 78.390625 362.59375 77.71875L362.59375 77.0625Q362.67188 76.359375 362.85938 75.8125Q363.04688 75.25 363.35938 74.859375Q363.6875 74.453125 364.14062 74.25Q364.60938 74.046875 365.20312 74.046875Q365.79688 74.046875 366.26562 74.28125Q366.73438 74.5 367.04688 74.9375Q367.35938 75.359375 367.51562 75.953125Q367.6875 76.546875 367.6875 77.28125ZM366.59375 77.40625L366.59375 77.28125Q366.59375 76.796875 366.48438 76.390625Q366.39062 75.96875 366.1875 75.65625Q365.98438 75.328125 365.65625 75.140625Q365.32812 74.953125 364.89062 74.953125Q364.48438 74.953125 364.17188 75.09375Q363.875 75.234375 363.65625 75.484375Q363.45312 75.71875 363.3125 76.015625Q363.1875 76.3125 363.125 76.640625L363.125 78.15625Q363.23438 78.5625 363.4375 78.921875Q363.65625 79.28125 364.0 79.5Q364.35938 79.71875 364.90625 79.71875Q365.34375 79.71875 365.65625 79.546875Q365.98438 79.359375 366.1875 79.046875Q366.39062 78.71875 366.48438 78.296875Q366.59375 77.875 366.59375 77.40625ZM370.40625 71.5L370.40625 80.5L369.32812 80.5L369.32812 71.5L370.40625 71.5ZM370.15625 77.09375L369.70312 77.078125Q369.70312 76.421875 369.89062 75.875Q370.07812 75.3125 370.42188 74.90625Q370.76562 74.5 371.23438 74.28125Q371.70312 74.046875 372.28125 74.046875Q372.75 74.046875 373.125 74.171875Q373.5 74.296875 373.76562 74.578125Q374.03125 74.84375 374.17188 75.28125Q374.3125 75.71875 374.3125 76.34375L374.3125 80.5L373.21875 80.5L373.21875 76.328125Q373.21875 75.828125 373.07812 75.53125Q372.9375 75.234375 372.65625 75.09375Q372.375 74.953125 371.95312 74.953125Q371.54688 74.953125 371.21875 75.125Q370.89062 75.296875 370.65625 75.59375Q370.42188 75.890625 370.28125 76.28125Q370.15625 76.65625 370.15625 77.09375ZM378.10938 79.84375L379.875 74.15625L381.03125 74.15625L378.48438 81.484375Q378.40625 81.71875 378.25 81.984375Q378.10938 82.265625 377.89062 82.5Q377.67188 82.75 377.35938 82.90625Q377.04688 83.0625 376.60938 83.0625Q376.48438 83.0625 376.28125 83.015625Q376.07812 82.984375 376.0 82.96875L376.0 82.09375Q376.04688 82.09375 376.14062 82.09375Q376.25 82.109375 376.28125 82.109375Q376.65625 82.109375 376.90625 82.015625Q377.17188 81.921875 377.34375 81.6875Q377.53125 81.46875 377.65625 81.078125L378.10938 79.84375ZM376.8125 74.15625L378.45312 79.078125L378.73438 80.21875L377.96875 80.625L375.625 74.15625L376.8125 74.15625ZM383.5 71.5L383.5 80.5L382.42188 80.5L382.42188 71.5L383.5 71.5ZM386.5 71.5L386.5 80.5L385.42188 80.5L385.42188 71.5L386.5 71.5ZM390.95312 80.625Q390.29688 80.625 389.75 80.40625Q389.21875 80.171875 388.82812 79.765625Q388.45312 79.34375 388.25 78.78125Q388.04688 78.21875 388.04688 77.546875L388.04688 77.3125Q388.04688 76.53125 388.26562 75.921875Q388.5 75.3125 388.89062 74.890625Q389.28125 74.46875 389.78125 74.265625Q390.28125 74.046875 390.8125 74.046875Q391.5 74.046875 391.98438 74.28125Q392.48438 74.515625 392.79688 74.9375Q393.125 75.34375 393.26562 75.921875Q393.42188 76.484375 393.42188 77.140625L393.42188 77.640625L388.6875 77.640625L388.6875 76.75L392.34375 76.75L392.34375 76.671875Q392.3125 76.25 392.15625 75.859375Q392.01562 75.453125 391.6875 75.203125Q391.375 74.9375 390.8125 74.9375Q390.45312 74.9375 390.14062 75.09375Q389.82812 75.25 389.59375 75.5625Q389.375 75.859375 389.25 76.296875Q389.14062 76.734375 389.14062 77.3125L389.14062 77.546875Q389.14062 78.0 389.26562 78.40625Q389.39062 78.796875 389.625 79.09375Q389.875 79.390625 390.21875 79.5625Q390.57812 79.734375 391.01562 79.734375Q391.59375 79.734375 391.98438 79.5Q392.39062 79.265625 392.6875 78.875L393.34375 79.390625Q393.14062 79.703125 392.8125 79.984375Q392.5 80.265625 392.03125 80.453125Q391.57812 80.625 390.95312 80.625ZM395.40625 75.515625L395.40625 80.5L394.32812 80.5L394.32812 74.15625L395.35938 74.15625L395.40625 75.515625ZM395.15625 77.09375L394.70312 77.078125Q394.70312 76.421875 394.89062 75.875Q395.07812 75.3125 395.42188 74.90625Q395.76562 74.5 396.23438 74.28125Q396.70312 74.046875 397.28125 74.046875Q397.75 74.046875 398.125 74.171875Q398.5 74.296875 398.76562 74.578125Q399.03125 74.84375 399.17188 75.28125Q399.3125 75.71875 399.3125 76.34375L399.3125 80.5L398.21875 80.5L398.21875 76.328125Q398.21875 75.828125 398.07812 75.53125Q397.9375 75.234375 397.65625 75.09375Q397.375 74.953125 396.95312 74.953125Q396.54688 74.953125 396.21875 75.125Q395.89062 75.296875 395.65625 75.59375Q395.42188 75.890625 395.28125 76.28125Q395.15625 76.65625 395.15625 77.09375Z" fill-rule="nonzero"/><path stroke="#000000" stroke-width="1.0" stroke-linecap="butt" d="M365.0 290.0L529.0 195.0" fill-rule="nonzero"/><path fill="#000000" d="M525.2969 187.5L523.5156 187.5L523.53125 186.57812L525.2969 186.57812Q526.21875 186.57812 526.8281 186.20312Q527.4375 185.8125 527.7344 185.125Q528.0469 184.42188 528.0469 183.48438L528.0469 182.96875Q528.0469 182.23438 527.875 181.67188Q527.7031 181.09375 527.3594 180.70312Q527.0156 180.29688 526.5156 180.09375Q526.03125 179.89062 525.40625 179.89062L523.4844 179.89062L523.4844 178.96875L525.40625 178.96875Q526.25 178.96875 526.9375 179.25Q527.625 179.53125 528.125 180.0625Q528.625 180.57812 528.8906 181.32812Q529.1719 182.0625 529.1719 182.98438L529.1719 183.48438Q529.1719 184.42188 528.8906 185.17188Q528.625 185.90625 528.1094 186.42188Q527.6094 186.9375 526.8906 187.21875Q526.1875 187.5 525.2969 187.5ZM524.125 178.96875L524.125 187.5L522.9844 187.5L522.9844 178.96875L524.125 178.96875ZM533.0781 183.42188L533.0781 184.3125L530.21875 184.3125L530.21875 183.42188L533.0781 183.42188ZM539.1719 186.57812L539.1719 187.5L534.90625 187.5L534.90625 186.57812L539.1719 186.57812ZM535.125 178.96875L535.125 187.5L533.9844 187.5L533.9844 178.96875L535.125 178.96875ZM541.0 181.15625L541.0 187.5L539.9219 187.5L539.9219 181.15625L541.0 181.15625ZM539.8281 179.48438Q539.8281 179.21875 539.9844 179.03125Q540.15625 178.84375 540.46875 178.84375Q540.78125 178.84375 540.9375 179.03125Q541.1094 179.21875 541.1094 179.48438Q541.1094 179.73438 540.9375 179.92188Q540.78125 180.09375 540.46875 180.09375Q540.15625 180.09375 539.9844 179.92188Q539.8281 179.73438 539.8281 179.48438ZM543.90625 182.42188L543.90625 187.5L542.8125 187.5L542.8125 181.15625L543.84375 181.15625L543.90625 182.42188ZM543.6875 184.09375L543.1719 184.07812Q543.1875 183.42188 543.34375 182.875Q543.5156 182.3125 543.8281 181.90625Q544.15625 181.5 544.6406 181.28125Q545.125 181.04688 545.75 181.04688Q546.2031 181.04688 546.5781 181.17188Q546.9531 181.29688 547.21875 181.5625Q547.5 181.82812 547.6406 182.25Q547.7969 182.67188 547.7969 183.28125L547.7969 187.5L546.71875 187.5L546.71875 183.32812Q546.71875 182.82812 546.5469 182.53125Q546.3906 182.23438 546.0781 182.09375Q545.78125 181.95312 545.3594 181.95312Q544.8906 181.95312 544.5625 182.125Q544.2344 182.29688 544.0469 182.59375Q543.8594 182.89062 543.7656 183.28125Q543.6875 183.65625 543.6875 184.09375ZM547.7969 183.48438L547.0625 183.71875Q547.0625 183.1875 547.2344 182.71875Q547.40625 182.23438 547.71875 181.85938Q548.0469 181.48438 548.5156 181.26562Q548.9844 181.04688 549.5781 181.04688Q550.09375 181.04688 550.4844 181.1875Q550.8906 181.3125 551.15625 181.59375Q551.4219 181.875 551.5625 182.3125Q551.7031 182.73438 551.7031 183.32812L551.7031 187.5L550.625 187.5L550.625 183.32812Q550.625 182.78125 550.4531 182.5Q550.28125 182.20312 549.9844 182.07812Q549.6875 181.95312 549.2656 181.95312Q548.90625 181.95312 548.625 182.07812Q548.3594 182.20312 548.1719 182.42188Q547.9844 182.625 547.8906 182.90625Q547.7969 183.1875 547.7969 183.48438ZM553.5469 184.40625L553.5469 184.26562Q553.5469 183.57812 553.7344 183.0Q553.9375 182.40625 554.3125 181.96875Q554.6875 181.53125 555.21875 181.29688Q555.75 181.04688 556.4219 181.04688Q557.0781 181.04688 557.6094 181.29688Q558.15625 181.53125 558.53125 181.96875Q558.90625 182.40625 559.1094 183.0Q559.3125 183.57812 559.3125 184.26562L559.3125 184.40625Q559.3125 185.07812 559.1094 185.67188Q558.90625 186.25 558.53125 186.6875Q558.15625 187.125 557.625 187.375Q557.09375 187.625 556.4219 187.625Q555.7656 187.625 555.21875 187.375Q554.6875 187.125 554.3125 186.6875Q553.9375 186.25 553.7344 185.67188Q553.5469 185.07812 553.5469 184.40625ZM554.625 184.26562L554.625 184.40625Q554.625 184.875 554.7344 185.29688Q554.84375 185.71875 555.0625 186.04688Q555.2969 186.35938 555.6406 186.54688Q555.9844 186.71875 556.4219 186.71875Q556.875 186.71875 557.2031 186.54688Q557.5469 186.35938 557.7656 186.04688Q558.0 185.71875 558.1094 185.29688Q558.21875 184.875 558.21875 184.40625L558.21875 184.26562Q558.21875 183.79688 558.1094 183.375Q558.0 182.95312 557.7656 182.64062Q557.5469 182.3125 557.2031 182.125Q556.875 181.9375 556.4219 181.9375Q555.96875 181.9375 555.625 182.125Q555.2969 182.3125 555.0625 182.64062Q554.84375 182.95312 554.7344 183.375Q554.625 183.79688 554.625 184.26562ZM561.90625 182.51562L561.90625 187.5L560.8281 187.5L560.8281 181.15625L561.8594 181.15625L561.90625 182.51562ZM561.65625 184.09375L561.2031 184.07812Q561.2031 183.42188 561.3906 182.875Q561.5781 182.3125 561.9219 181.90625Q562.2656 181.5 562.7344 181.28125Q563.2031 181.04688 563.78125 181.04688Q564.25 181.04688 564.625 181.17188Q565.0 181.29688 565.2656 181.57812Q565.53125 181.84375 565.6719 182.28125Q565.8125 182.71875 565.8125 183.34375L565.8125 187.5L564.71875 187.5L564.71875 183.32812Q564.71875 182.82812 564.5781 182.53125Q564.4375 182.23438 564.15625 182.09375Q563.875 181.95312 563.4531 181.95312Q563.0469 181.95312 562.71875 182.125Q562.3906 182.29688 562.15625 182.59375Q561.9219 182.89062 561.78125 183.28125Q561.65625 183.65625 561.65625 184.09375ZM570.4531 187.625Q569.7969 187.625 569.25 187.40625Q568.71875 187.17188 568.3281 186.76562Q567.9531 186.34375 567.75 185.78125Q567.5469 185.21875 567.5469 184.54688L567.5469 184.3125Q567.5469 183.53125 567.7656 182.92188Q568.0 182.3125 568.3906 181.89062Q568.78125 181.46875 569.28125 181.26562Q569.78125 181.04688 570.3125 181.04688Q571.0 181.04688 571.4844 181.28125Q571.9844 181.51562 572.2969 181.9375Q572.625 182.34375 572.7656 182.92188Q572.9219 183.48438 572.9219 184.14062L572.9219 184.64062L568.1875 184.64062L568.1875 183.75L571.84375 183.75L571.84375 183.67188Q571.8125 183.25 571.65625 182.85938Q571.5156 182.45312 571.1875 182.20312Q570.875 181.9375 570.3125 181.9375Q569.9531 181.9375 569.6406 182.09375Q569.3281 182.25 569.09375 182.5625Q568.875 182.85938 568.75 183.29688Q568.6406 183.73438 568.6406 184.3125L568.6406 184.54688Q568.6406 185.0 568.7656 185.40625Q568.8906 185.79688 569.125 186.09375Q569.375 186.39062 569.71875 186.5625Q570.0781 186.73438 570.5156 186.73438Q571.09375 186.73438 571.4844 186.5Q571.8906 186.26562 572.1875 185.875L572.84375 186.39062Q572.6406 186.70312 572.3125 186.98438Q572.0 187.26562 571.53125 187.45312Q571.0781 187.625 570.4531 187.625ZM574.90625 182.51562L574.90625 187.5L573.8281 187.5L573.8281 181.15625L574.8594 181.15625L574.90625 182.51562ZM574.65625 184.09375L574.2031 184.07812Q574.2031 183.42188 574.3906 182.875Q574.5781 182.3125 574.9219 181.90625Q575.2656 181.5 575.7344 181.28125Q576.2031 181.04688 576.78125 181.04688Q577.25 181.04688 577.625 181.17188Q578.0 181.29688 578.2656 181.57812Q578.53125 181.84375 578.6719 182.28125Q578.8125 182.71875 578.8125 183.34375L578.8125 187.5L577.71875 187.5L577.71875 183.32812Q577.71875 182.82812 577.5781 182.53125Q577.4375 182.23438 577.15625 182.09375Q576.875 181.95312 576.4531 181.95312Q576.0469 181.95312 575.71875 182.125Q575.3906 182.29688 575.15625 182.59375Q574.9219 182.89062 574.78125 183.28125Q574.65625 183.65625 574.65625 184.09375Z" fill-rule="nonzero"/><path stroke="#000000" stroke-width="1.0" stroke-linecap="butt" d="M365.0 290.0L529.0 385.0" fill-rule="nonzero"/><path fill="#000000" d="M532.5625 396.64062L532.5625 397.5625L527.9531 397.5625L527.9531 396.64062L532.5625 396.64062ZM528.125 392.96875L528.125 401.5L526.9844 401.5L526.9844 392.96875L528.125 392.96875ZM533.5469 392.96875L533.5469 401.5L532.4219 401.5L532.4219 392.96875L533.5469 392.96875ZM539.7031 400.03125L539.7031 395.15625L540.7969 395.15625L540.7969 401.5L539.7656 401.5L539.7031 400.03125ZM539.90625 398.70312L540.3594 398.6875Q540.3594 399.3125 540.21875 399.85938Q540.09375 400.39062 539.7969 400.78125Q539.5156 401.17188 539.03125 401.40625Q538.5625 401.625 537.8906 401.625Q537.4219 401.625 537.03125 401.48438Q536.65625 401.34375 536.375 401.0625Q536.1094 400.78125 535.9531 400.32812Q535.7969 399.875 535.7969 399.25L535.7969 395.15625L536.8906 395.15625L536.8906 399.26562Q536.8906 399.6875 536.9844 399.96875Q537.0781 400.25 537.25 400.40625Q537.4219 400.5625 537.625 400.64062Q537.8281 400.70312 538.0469 400.70312Q538.75 400.70312 539.1406 400.4375Q539.5469 400.15625 539.71875 399.70312Q539.90625 399.25 539.90625 398.70312ZM543.90625 396.42188L543.90625 401.5L542.8125 401.5L542.8125 395.15625L543.84375 395.15625L543.90625 396.42188ZM543.6875 398.09375L543.1719 398.07812Q543.1875 397.42188 543.34375 396.875Q543.5156 396.3125 543.8281 395.90625Q544.15625 395.5 544.6406 395.28125Q545.125 395.04688 545.75 395.04688Q546.2031 395.04688 546.5781 395.17188Q546.9531 395.29688 547.21875 395.5625Q547.5 395.82812 547.6406 396.25Q547.7969 396.67188 547.7969 397.28125L547.7969 401.5L546.71875 401.5L546.71875 397.32812Q546.71875 396.82812 546.5469 396.53125Q546.3906 396.23438 546.0781 396.09375Q545.78125 395.95312 545.3594 395.95312Q544.8906 395.95312 544.5625 396.125Q544.2344 396.29688 544.0469 396.59375Q543.8594 396.89062 543.7656 397.28125Q543.6875 397.65625 543.6875 398.09375ZM547.7969 397.48438L547.0625 397.71875Q547.0625 397.1875 547.2344 396.71875Q547.40625 396.23438 547.71875 395.85938Q548.0469 395.48438 548.5156 395.26562Q548.9844 395.04688 549.5781 395.04688Q550.09375 395.04688 550.4844 395.1875Q550.8906 395.3125 551.15625 395.59375Q551.4219 395.875 551.5625 396.3125Q551.7031 396.73438 551.7031 397.32812L551.7031 401.5L550.625 401.5L550.625 397.32812Q550.625 396.78125 550.4531 396.5Q550.28125 396.20312 549.9844 396.07812Q549.6875 395.95312 549.2656 395.95312Q548.90625 395.95312 548.625 396.07812Q548.3594 396.20312 548.1719 396.42188Q547.9844 396.625 547.8906 396.90625Q547.7969 397.1875 547.7969 397.48438ZM557.7031 400.03125L557.7031 395.15625L558.7969 395.15625L558.7969 401.5L557.7656 401.5L557.7031 400.03125ZM557.90625 398.70312L558.3594 398.6875Q558.3594 399.3125 558.21875 399.85938Q558.09375 400.39062 557.7969 400.78125Q557.5156 401.17188 557.03125 401.40625Q556.5625 401.625 555.8906 401.625Q555.4219 401.625 555.03125 401.48438Q554.65625 401.34375 554.375 401.0625Q554.1094 400.78125 553.9531 400.32812Q553.7969 399.875 553.7969 399.25L553.7969 395.15625L554.8906 395.15625L554.8906 399.26562Q554.8906 399.6875 554.9844 399.96875Q555.0781 400.25 555.25 400.40625Q555.4219 400.5625 555.625 400.64062Q555.8281 400.70312 556.0469 400.70312Q556.75 400.70312 557.1406 400.4375Q557.5469 400.15625 557.71875 399.70312Q557.90625 399.25 557.90625 398.70312ZM562.0 392.5L562.0 401.5L560.9219 401.5L560.9219 392.5L562.0 392.5ZM566.4531 401.625Q565.7969 401.625 565.25 401.40625Q564.71875 401.17188 564.3281 400.76562Q563.9531 400.34375 563.75 399.78125Q563.5469 399.21875 563.5469 398.54688L563.5469 398.3125Q563.5469 397.53125 563.7656 396.92188Q564.0 396.3125 564.3906 395.89062Q564.78125 395.46875 565.28125 395.26562Q565.78125 395.04688 566.3125 395.04688Q567.0 395.04688 567.4844 395.28125Q567.9844 395.51562 568.2969 395.9375Q568.625 396.34375 568.7656 396.92188Q568.9219 397.48438 568.9219 398.14062L568.9219 398.64062L564.1875 398.64062L564.1875 397.75L567.84375 397.75L567.84375 397.67188Q567.8125 397.25 567.65625 396.85938Q567.5156 396.45312 567.1875 396.20312Q566.875 395.9375 566.3125 395.9375Q565.9531 395.9375 565.6406 396.09375Q565.3281 396.25 565.09375 396.5625Q564.875 396.85938 564.75 397.29688Q564.6406 397.73438 564.6406 398.3125L564.6406 398.54688Q564.6406 399.0 564.7656 399.40625Q564.8906 399.79688 565.125 400.09375Q565.375 400.39062 565.71875 400.5625Q566.0781 400.73438 566.5156 400.73438Q567.09375 400.73438 567.4844 400.5Q567.8906 400.26562 568.1875 399.875L568.84375 400.39062Q568.6406 400.70312 568.3125 400.98438Q568.0 401.26562 567.53125 401.45312Q567.0781 401.625 566.4531 401.625ZM570.90625 396.51562L570.90625 401.5L569.8281 401.5L569.8281 395.15625L570.8594 395.15625L570.90625 396.51562ZM570.65625 398.09375L570.2031 398.07812Q570.2031 397.42188 570.3906 396.875Q570.5781 396.3125 570.9219 395.90625Q571.2656 395.5 571.7344 395.28125Q572.2031 395.04688 572.78125 395.04688Q573.25 395.04688 573.625 395.17188Q574.0 395.29688 574.2656 395.57812Q574.53125 395.84375 574.6719 396.28125Q574.8125 396.71875 574.8125 397.34375L574.8125 401.5L573.71875 401.5L573.71875 397.32812Q573.71875 396.82812 573.5781 396.53125Q573.4375 396.23438 573.15625 396.09375Q572.875 395.95312 572.4531 395.95312Q572.0469 395.95312 571.71875 396.125Q571.3906 396.29688 571.15625 396.59375Q570.9219 396.89062 570.78125 397.28125Q570.65625 397.65625 570.65625 398.09375Z" fill-rule="nonzero"/><path stroke="#000000" stroke-width="1.0" stroke-linecap="butt" d="M365.0 290.0L365.0 479.0" fill-rule="nonzero"/><path fill="#000000" d="M343.53125 503.67188L344.39062 503.67188Q345.20312 503.67188 345.76562 503.98438Q346.34375 504.28125 346.64062 504.8125Q346.95312 505.34375 346.95312 506.01562Q346.95312 506.84375 346.60938 507.42188Q346.26562 508.0 345.67188 508.3125Q345.07812 508.625 344.29688 508.625Q343.84375 508.625 343.39062 508.5Q342.9375 508.35938 342.5625 508.09375Q342.20312 507.82812 341.98438 507.40625Q341.76562 506.98438 341.76562 506.40625L342.1875 506.15625Q342.1875 506.59375 342.4375 506.95312Q342.70312 507.29688 343.14062 507.51562Q343.59375 507.73438 344.1875 507.73438Q344.71875 507.73438 345.09375 507.51562Q345.46875 507.29688 345.67188 506.92188Q345.875 506.53125 345.875 506.03125Q345.875 505.625 345.6875 505.25Q345.51562 504.85938 345.1875 504.60938Q344.85938 504.35938 344.375 504.35938L343.53125 504.35938L343.53125 503.67188ZM344.04688 499.84375Q344.8125 499.84375 345.375 500.14062Q345.9375 500.4375 346.23438 500.95312Q346.54688 501.46875 346.54688 502.14062Q346.54688 502.70312 346.23438 503.17188Q345.9375 503.625 345.375 503.90625Q344.8125 504.17188 344.04688 504.17188L343.53125 504.17188L343.53125 503.46875L344.03125 503.46875Q344.54688 503.46875 344.85938 503.29688Q345.17188 503.125 345.3125 502.82812Q345.46875 502.51562 345.46875 502.125Q345.46875 501.76562 345.3125 501.45312Q345.15625 501.14062 344.84375 500.9375Q344.53125 500.73438 344.04688 500.73438Q343.625 500.73438 343.28125 500.9375Q342.9375 501.125 342.73438 501.46875Q342.53125 501.79688 342.53125 502.21875L342.53125 510.75L341.4375 510.75L341.4375 502.21875Q341.4375 501.5625 341.79688 501.03125Q342.15625 500.48438 342.75 500.17188Q343.34375 499.84375 344.04688 499.84375ZM350.57812 504.42188L350.57812 505.3125L347.71875 505.3125L347.71875 504.42188L350.57812 504.42188ZM351.84375 499.96875L352.9375 499.96875L355.73438 506.92188L358.53125 499.96875L359.625 499.96875L356.15625 508.5L355.3125 508.5L351.84375 499.96875ZM351.48438 499.96875L352.45312 499.96875L352.60938 505.17188L352.60938 508.5L351.48438 508.5L351.48438 499.96875ZM359.01562 499.96875L359.98438 499.96875L359.98438 508.5L358.85938 508.5L358.85938 505.17188L359.01562 499.96875ZM363.10938 507.84375L364.875 502.15625L366.03125 502.15625L363.48438 509.48438Q363.40625 509.71875 363.25 509.98438Q363.10938 510.26562 362.89062 510.5Q362.67188 510.75 362.35938 510.90625Q362.04688 511.0625 361.60938 511.0625Q361.48438 511.0625 361.28125 511.01562Q361.07812 510.98438 361.0 510.96875L361.0 510.09375Q361.04688 510.09375 361.14062 510.09375Q361.25 510.10938 361.28125 510.10938Q361.65625 510.10938 361.90625 510.01562Q362.17188 509.92188 362.34375 509.6875Q362.53125 509.46875 362.65625 509.07812L363.10938 507.84375ZM361.8125 502.15625L363.45312 507.07812L363.73438 508.21875L362.96875 508.625L360.625 502.15625L361.8125 502.15625ZM368.40625 503.15625L368.40625 508.5L367.32812 508.5L367.32812 502.15625L368.375 502.15625L368.40625 503.15625ZM370.39062 502.125L370.39062 503.125Q370.25 503.10938 370.125 503.09375Q370.01562 503.07812 369.85938 503.07812Q369.48438 503.07812 369.1875 503.20312Q368.90625 503.3125 368.70312 503.53125Q368.51562 503.73438 368.39062 504.03125Q368.28125 504.32812 368.25 504.67188L367.9375 504.84375Q367.9375 504.26562 368.04688 503.76562Q368.17188 503.26562 368.40625 502.875Q368.65625 502.48438 369.01562 502.26562Q369.39062 502.04688 369.90625 502.04688Q370.03125 502.04688 370.17188 502.07812Q370.32812 502.09375 370.39062 502.125ZM373.85938 507.71875Q374.25 507.71875 374.57812 507.5625Q374.90625 507.40625 375.10938 507.14062Q375.32812 506.85938 375.35938 506.5L376.39062 506.5Q376.35938 507.0625 376.0 507.54688Q375.65625 508.03125 375.09375 508.32812Q374.53125 508.625 373.85938 508.625Q373.15625 508.625 372.625 508.375Q372.09375 508.10938 371.73438 507.67188Q371.39062 507.23438 371.21875 506.67188Q371.04688 506.09375 371.04688 505.45312L371.04688 505.20312Q371.04688 504.5625 371.21875 504.0Q371.39062 503.42188 371.73438 502.98438Q372.09375 502.54688 372.625 502.29688Q373.15625 502.04688 373.85938 502.04688Q374.60938 502.04688 375.15625 502.34375Q375.71875 502.64062 376.03125 503.17188Q376.35938 503.6875 376.39062 504.34375L375.35938 504.34375Q375.32812 503.95312 375.14062 503.64062Q374.95312 503.3125 374.625 503.125Q374.29688 502.9375 373.85938 502.9375Q373.35938 502.9375 373.01562 503.14062Q372.6875 503.32812 372.48438 503.65625Q372.29688 503.98438 372.20312 504.39062Q372.125 504.79688 372.125 505.20312L372.125 505.45312Q372.125 505.875 372.20312 506.28125Q372.29688 506.67188 372.48438 507.0Q372.6875 507.32812 373.01562 507.53125Q373.35938 507.71875 373.85938 507.71875ZM379.95312 508.625Q379.29688 508.625 378.75 508.40625Q378.21875 508.17188 377.82812 507.76562Q377.45312 507.34375 377.25 506.78125Q377.04688 506.21875 377.04688 505.54688L377.04688 505.3125Q377.04688 504.53125 377.26562 503.92188Q377.5 503.3125 377.89062 502.89062Q378.28125 502.46875 378.78125 502.26562Q379.28125 502.04688 379.8125 502.04688Q380.5 502.04688 380.98438 502.28125Q381.48438 502.51562 381.79688 502.9375Q382.125 503.34375 382.26562 503.92188Q382.42188 504.48438 382.42188 505.14062L382.42188 505.64062L377.6875 505.64062L377.6875 504.75L381.34375 504.75L381.34375 504.67188Q381.3125 504.25 381.15625 503.85938Q381.01562 503.45312 380.6875 503.20312Q380.375 502.9375 379.8125 502.9375Q379.45312 502.9375 379.14062 503.09375Q378.82812 503.25 378.59375 503.5625Q378.375 503.85938 378.25 504.29688Q378.14062 504.73438 378.14062 505.3125L378.14062 505.54688Q378.14062 506.0 378.26562 506.40625Q378.39062 506.79688 378.625 507.09375Q378.875 507.39062 379.21875 507.5625Q379.57812 507.73438 380.01562 507.73438Q380.59375 507.73438 380.98438 507.5Q381.39062 507.26562 381.6875 506.875L382.34375 507.39062Q382.14062 507.70312 381.8125 507.98438Q381.5 508.26562 381.03125 508.45312Q380.57812 508.625 379.95312 508.625ZM384.40625 503.51562L384.40625 508.5L383.32812 508.5L383.32812 502.15625L384.35938 502.15625L384.40625 503.51562ZM384.15625 505.09375L383.70312 505.07812Q383.70312 504.42188 383.89062 503.875Q384.07812 503.3125 384.42188 502.90625Q384.76562 502.5 385.23438 502.28125Q385.70312 502.04688 386.28125 502.04688Q386.75 502.04688 387.125 502.17188Q387.5 502.29688 387.76562 502.57812Q388.03125 502.84375 388.17188 503.28125Q388.3125 503.71875 388.3125 504.34375L388.3125 508.5L387.21875 508.5L387.21875 504.32812Q387.21875 503.82812 387.07812 503.53125Q386.9375 503.23438 386.65625 503.09375Q386.375 502.95312 385.95312 502.95312Q385.54688 502.95312 385.21875 503.125Q384.89062 503.29688 384.65625 503.59375Q384.42188 503.89062 384.28125 504.28125Q384.15625 504.65625 384.15625 505.09375Z" fill-rule="nonzero"/><path stroke="#000000" stroke-width="1.0" stroke-linecap="butt" d="M365.0 290.0L201.0 385.0" fill-rule="nonzero"/><path fill="#000000" d="M163.67188 400.57812L163.67188 401.5L159.40625 401.5L159.40625 400.57812L163.67188 400.57812ZM159.625 392.96875L159.625 401.5L158.48438 401.5L158.48438 392.96875L159.625 392.96875ZM165.5 395.15625L165.5 401.5L164.42188 401.5L164.42188 395.15625L165.5 395.15625ZM164.32812 393.48438Q164.32812 393.21875 164.48438 393.03125Q164.65625 392.84375 164.96875 392.84375Q165.28125 392.84375 165.4375 393.03125Q165.60938 393.21875 165.60938 393.48438Q165.60938 393.73438 165.4375 393.92188Q165.28125 394.09375 164.96875 394.09375Q164.65625 394.09375 164.48438 393.92188Q164.32812 393.73438 164.32812 393.48438ZM168.40625 396.51562L168.40625 401.5L167.32812 401.5L167.32812 395.15625L168.35938 395.15625L168.40625 396.51562ZM168.15625 398.09375L167.70312 398.07812Q167.70312 397.42188 167.89062 396.875Q168.07812 396.3125 168.42188 395.90625Q168.76562 395.5 169.23438 395.28125Q169.70312 395.04688 170.28125 395.04688Q170.75 395.04688 171.125 395.17188Q171.5 395.29688 171.76562 395.57812Q172.03125 395.84375 172.17188 396.28125Q172.3125 396.71875 172.3125 397.34375L172.3125 401.5L171.21875 401.5L171.21875 397.32812Q171.21875 396.82812 171.07812 396.53125Q170.9375 396.23438 170.65625 396.09375Q170.375 395.95312 169.95312 395.95312Q169.54688 395.95312 169.21875 396.125Q168.89062 396.29688 168.65625 396.59375Q168.42188 396.89062 168.28125 397.28125Q168.15625 397.65625 168.15625 398.09375ZM178.0625 400.42188L178.0625 397.15625Q178.0625 396.78125 177.90625 396.5Q177.76562 396.21875 177.46875 396.07812Q177.17188 395.92188 176.73438 395.92188Q176.3125 395.92188 176.0 396.0625Q175.70312 396.20312 175.53125 396.4375Q175.35938 396.65625 175.35938 396.92188L174.28125 396.92188Q174.28125 396.57812 174.45312 396.25Q174.625 395.90625 174.95312 395.64062Q175.28125 395.35938 175.75 395.20312Q176.21875 395.04688 176.79688 395.04688Q177.48438 395.04688 178.01562 395.28125Q178.54688 395.51562 178.84375 395.98438Q179.15625 396.45312 179.15625 397.15625L179.15625 400.10938Q179.15625 400.4375 179.20312 400.79688Q179.26562 401.14062 179.375 401.40625L179.375 401.5L178.23438 401.5Q178.15625 401.3125 178.10938 401.0Q178.0625 400.6875 178.0625 400.42188ZM178.25 397.65625L178.26562 398.42188L177.17188 398.42188Q176.70312 398.42188 176.34375 398.5Q175.98438 398.5625 175.73438 398.71875Q175.48438 398.85938 175.35938 399.07812Q175.23438 399.29688 175.23438 399.59375Q175.23438 399.89062 175.35938 400.14062Q175.5 400.375 175.76562 400.53125Q176.04688 400.67188 176.4375 400.67188Q176.9375 400.67188 177.3125 400.46875Q177.70312 400.25 177.92188 399.95312Q178.15625 399.64062 178.17188 399.34375L178.64062 399.875Q178.59375 400.10938 178.40625 400.42188Q178.23438 400.71875 177.92188 401.0Q177.625 401.26562 177.20312 401.45312Q176.79688 401.625 176.28125 401.625Q175.64062 401.625 175.15625 401.375Q174.67188 401.10938 174.40625 400.6875Q174.14062 400.26562 174.14062 399.73438Q174.14062 399.21875 174.32812 398.84375Q174.53125 398.45312 174.90625 398.1875Q175.28125 397.92188 175.8125 397.79688Q176.34375 397.65625 177.0 397.65625L178.25 397.65625ZM182.5 392.5L182.5 401.5L181.42188 401.5L181.42188 392.5L182.5 392.5ZM184.04688 398.40625L184.04688 398.26562Q184.04688 397.57812 184.23438 397.0Q184.4375 396.40625 184.8125 395.96875Q185.1875 395.53125 185.71875 395.29688Q186.25 395.04688 186.92188 395.04688Q187.57812 395.04688 188.10938 395.29688Q188.65625 395.53125 189.03125 395.96875Q189.40625 396.40625 189.60938 397.0Q189.8125 397.57812 189.8125 398.26562L189.8125 398.40625Q189.8125 399.07812 189.60938 399.67188Q189.40625 400.25 189.03125 400.6875Q188.65625 401.125 188.125 401.375Q187.59375 401.625 186.92188 401.625Q186.26562 401.625 185.71875 401.375Q185.1875 401.125 184.8125 400.6875Q184.4375 400.25 184.23438 399.67188Q184.04688 399.07812 184.04688 398.40625ZM185.125 398.26562L185.125 398.40625Q185.125 398.875 185.23438 399.29688Q185.34375 399.71875 185.5625 400.04688Q185.79688 400.35938 186.14062 400.54688Q186.48438 400.71875 186.92188 400.71875Q187.375 400.71875 187.70312 400.54688Q188.04688 400.35938 188.26562 400.04688Q188.5 399.71875 188.60938 399.29688Q188.71875 398.875 188.71875 398.40625L188.71875 398.26562Q188.71875 397.79688 188.60938 397.375Q188.5 396.95312 188.26562 396.64062Q188.04688 396.3125 187.70312 396.125Q187.375 395.9375 186.92188 395.9375Q186.46875 395.9375 186.125 396.125Q185.79688 396.3125 185.5625 396.64062Q185.34375 396.95312 185.23438 397.375Q185.125 397.79688 185.125 398.26562ZM191.04688 398.40625L191.04688 398.26562Q191.04688 397.57812 191.23438 397.0Q191.4375 396.40625 191.8125 395.96875Q192.1875 395.53125 192.71875 395.29688Q193.25 395.04688 193.92188 395.04688Q194.57812 395.04688 195.10938 395.29688Q195.65625 395.53125 196.03125 395.96875Q196.40625 396.40625 196.60938 397.0Q196.8125 397.57812 196.8125 398.26562L196.8125 398.40625Q196.8125 399.07812 196.60938 399.67188Q196.40625 400.25 196.03125 400.6875Q195.65625 401.125 195.125 401.375Q194.59375 401.625 193.92188 401.625Q193.26562 401.625 192.71875 401.375Q192.1875 401.125 191.8125 400.6875Q191.4375 400.25 191.23438 399.67188Q191.04688 399.07812 191.04688 398.40625ZM192.125 398.26562L192.125 398.40625Q192.125 398.875 192.23438 399.29688Q192.34375 399.71875 192.5625 400.04688Q192.79688 400.35938 193.14062 400.54688Q193.48438 400.71875 193.92188 400.71875Q194.375 400.71875 194.70312 400.54688Q195.04688 400.35938 195.26562 400.04688Q195.5 399.71875 195.60938 399.29688Q195.71875 398.875 195.71875 398.40625L195.71875 398.26562Q195.71875 397.79688 195.60938 397.375Q195.5 396.95312 195.26562 396.64062Q195.04688 396.3125 194.70312 396.125Q194.375 395.9375 193.92188 395.9375Q193.46875 395.9375 193.125 396.125Q192.79688 396.3125 192.5625 396.64062Q192.34375 396.95312 192.23438 397.375Q192.125 397.79688 192.125 398.26562ZM199.5 392.5L199.5 401.5L198.42188 401.5L198.42188 392.5L199.5 392.5Z" fill-rule="nonzero"/><path stroke="#000000" stroke-width="1.0" stroke-linecap="butt" d="M365.0 290.0L201.0 195.0" fill-rule="nonzero"/><path fill="#000000" d="M161.03125 185.34375Q161.03125 185.04688 160.9375 184.8125Q160.85938 184.57812 160.625 184.39062Q160.40625 184.20312 160.0 184.03125Q159.60938 183.85938 159.01562 183.6875Q158.375 183.5 157.85938 183.28125Q157.35938 183.04688 156.98438 182.75Q156.625 182.4375 156.4375 182.0625Q156.25 181.67188 156.25 181.17188Q156.25 180.67188 156.45312 180.25Q156.65625 179.82812 157.03125 179.51562Q157.42188 179.20312 157.95312 179.03125Q158.48438 178.84375 159.14062 178.84375Q160.10938 178.84375 160.78125 179.21875Q161.45312 179.57812 161.79688 180.17188Q162.15625 180.76562 162.15625 181.42188L161.03125 181.42188Q161.03125 180.95312 160.8125 180.57812Q160.60938 180.20312 160.1875 180.0Q159.78125 179.78125 159.14062 179.78125Q158.54688 179.78125 158.14062 179.96875Q157.75 180.14062 157.5625 180.45312Q157.375 180.76562 157.375 181.15625Q157.375 181.42188 157.48438 181.65625Q157.60938 181.875 157.84375 182.0625Q158.09375 182.25 158.46875 182.40625Q158.84375 182.5625 159.375 182.70312Q160.09375 182.90625 160.625 183.17188Q161.15625 183.42188 161.5 183.73438Q161.84375 184.04688 162.0 184.4375Q162.17188 184.82812 162.17188 185.32812Q162.17188 185.85938 161.95312 186.28125Q161.75 186.70312 161.35938 187.0Q160.96875 187.29688 160.42188 187.46875Q159.875 187.625 159.20312 187.625Q158.60938 187.625 158.03125 187.45312Q157.46875 187.28125 157.0 186.95312Q156.53125 186.625 156.25 186.15625Q155.96875 185.67188 155.96875 185.03125L157.09375 185.03125Q157.09375 185.46875 157.26562 185.78125Q157.4375 186.09375 157.73438 186.29688Q158.03125 186.5 158.40625 186.60938Q158.78125 186.70312 159.20312 186.70312Q159.79688 186.70312 160.20312 186.54688Q160.60938 186.375 160.8125 186.07812Q161.03125 185.76562 161.03125 185.34375ZM163.04688 184.40625L163.04688 184.26562Q163.04688 183.57812 163.23438 183.0Q163.4375 182.40625 163.8125 181.96875Q164.1875 181.53125 164.71875 181.29688Q165.25 181.04688 165.92188 181.04688Q166.57812 181.04688 167.10938 181.29688Q167.65625 181.53125 168.03125 181.96875Q168.40625 182.40625 168.60938 183.0Q168.8125 183.57812 168.8125 184.26562L168.8125 184.40625Q168.8125 185.07812 168.60938 185.67188Q168.40625 186.25 168.03125 186.6875Q167.65625 187.125 167.125 187.375Q166.59375 187.625 165.92188 187.625Q165.26562 187.625 164.71875 187.375Q164.1875 187.125 163.8125 186.6875Q163.4375 186.25 163.23438 185.67188Q163.04688 185.07812 163.04688 184.40625ZM164.125 184.26562L164.125 184.40625Q164.125 184.875 164.23438 185.29688Q164.34375 185.71875 164.5625 186.04688Q164.79688 186.35938 165.14062 186.54688Q165.48438 186.71875 165.92188 186.71875Q166.375 186.71875 166.70312 186.54688Q167.04688 186.35938 167.26562 186.04688Q167.5 185.71875 167.60938 185.29688Q167.71875 184.875 167.71875 184.40625L167.71875 184.26562Q167.71875 183.79688 167.60938 183.375Q167.5 182.95312 167.26562 182.64062Q167.04688 182.3125 166.70312 182.125Q166.375 181.9375 165.92188 181.9375Q165.46875 181.9375 165.125 182.125Q164.79688 182.3125 164.5625 182.64062Q164.34375 182.95312 164.23438 183.375Q164.125 183.79688 164.125 184.26562ZM171.40625 182.51562L171.40625 187.5L170.32812 187.5L170.32812 181.15625L171.35938 181.15625L171.40625 182.51562ZM171.15625 184.09375L170.70312 184.07812Q170.70312 183.42188 170.89062 182.875Q171.07812 182.3125 171.42188 181.90625Q171.76562 181.5 172.23438 181.28125Q172.70312 181.04688 173.28125 181.04688Q173.75 181.04688 174.125 181.17188Q174.5 181.29688 174.76562 181.57812Q175.03125 181.84375 175.17188 182.28125Q175.3125 182.71875 175.3125 183.34375L175.3125 187.5L174.21875 187.5L174.21875 183.32812Q174.21875 182.82812 174.07812 182.53125Q173.9375 182.23438 173.65625 182.09375Q173.375 181.95312 172.95312 181.95312Q172.54688 181.95312 172.21875 182.125Q171.89062 182.29688 171.65625 182.59375Q171.42188 182.89062 171.28125 183.28125Q171.15625 183.65625 171.15625 184.09375ZM181.01562 185.8125Q181.01562 185.57812 180.90625 185.375Q180.8125 185.17188 180.5 185.01562Q180.1875 184.84375 179.5625 184.71875Q179.03125 184.60938 178.60938 184.46875Q178.1875 184.3125 177.89062 184.09375Q177.59375 183.875 177.4375 183.57812Q177.28125 183.28125 177.28125 182.89062Q177.28125 182.51562 177.4375 182.1875Q177.60938 181.84375 177.90625 181.59375Q178.21875 181.32812 178.65625 181.1875Q179.09375 181.04688 179.625 181.04688Q180.39062 181.04688 180.92188 181.3125Q181.46875 181.57812 181.75 182.03125Q182.03125 182.48438 182.03125 183.01562L180.95312 183.01562Q180.95312 182.76562 180.79688 182.51562Q180.64062 182.26562 180.34375 182.10938Q180.04688 181.9375 179.625 181.9375Q179.17188 181.9375 178.89062 182.07812Q178.60938 182.20312 178.48438 182.42188Q178.35938 182.625 178.35938 182.85938Q178.35938 183.04688 178.42188 183.1875Q178.48438 183.3125 178.64062 183.4375Q178.79688 183.54688 179.07812 183.65625Q179.375 183.75 179.82812 183.84375Q180.60938 184.01562 181.10938 184.26562Q181.60938 184.51562 181.85938 184.875Q182.10938 185.21875 182.10938 185.73438Q182.10938 186.15625 181.92188 186.5Q181.75 186.84375 181.42188 187.09375Q181.10938 187.34375 180.65625 187.48438Q180.20312 187.625 179.65625 187.625Q178.8125 187.625 178.23438 187.32812Q177.65625 187.01562 177.35938 186.54688Q177.0625 186.0625 177.0625 185.54688L178.14062 185.54688Q178.17188 185.98438 178.40625 186.25Q178.64062 186.51562 178.96875 186.625Q179.3125 186.71875 179.65625 186.71875Q180.09375 186.71875 180.39062 186.60938Q180.70312 186.48438 180.85938 186.28125Q181.01562 186.07812 181.01562 185.8125ZM185.98438 181.15625L185.98438 181.98438L182.54688 181.98438L182.54688 181.15625L185.98438 181.15625ZM183.71875 179.625L184.79688 179.625L184.79688 185.92188Q184.79688 186.25 184.89062 186.42188Q185.0 186.57812 185.15625 186.64062Q185.3125 186.6875 185.5 186.6875Q185.625 186.6875 185.76562 186.65625Q185.92188 186.625 186.0 186.60938L186.01562 187.5Q185.875 187.54688 185.67188 187.57812Q185.46875 187.625 185.17188 187.625Q184.78125 187.625 184.4375 187.46875Q184.10938 187.29688 183.90625 186.9375Q183.71875 186.5625 183.71875 185.92188L183.71875 179.625ZM188.5 181.15625L188.5 187.5L187.42188 187.5L187.42188 181.15625L188.5 181.15625ZM187.32812 179.48438Q187.32812 179.21875 187.48438 179.03125Q187.65625 178.84375 187.96875 178.84375Q188.28125 178.84375 188.4375 179.03125Q188.60938 179.21875 188.60938 179.48438Q188.60938 179.73438 188.4375 179.92188Q188.28125 180.09375 187.96875 180.09375Q187.65625 180.09375 187.48438 179.92188Q187.32812 179.73438 187.32812 179.48438ZM194.4375 181.15625L195.42188 181.15625L195.42188 187.35938Q195.42188 188.20312 195.07812 188.79688Q194.73438 189.39062 194.125 189.6875Q193.53125 190.0 192.73438 190.0Q192.40625 190.0 191.95312 189.89062Q191.51562 189.79688 191.09375 189.54688Q190.67188 189.3125 190.39062 188.90625L190.95312 188.25Q191.35938 188.73438 191.78125 188.92188Q192.21875 189.10938 192.65625 189.10938Q193.17188 189.10938 193.54688 188.90625Q193.92188 188.71875 194.125 188.34375Q194.32812 187.96875 194.32812 187.42188L194.32812 182.54688L194.4375 181.15625ZM190.0625 184.40625L190.0625 184.28125Q190.0625 183.54688 190.23438 182.95312Q190.42188 182.35938 190.73438 181.9375Q191.0625 181.5 191.51562 181.28125Q191.98438 181.04688 192.57812 181.04688Q193.17188 181.04688 193.60938 181.25Q194.0625 181.45312 194.375 181.85938Q194.6875 182.25 194.875 182.8125Q195.0625 183.35938 195.125 184.0625L195.125 184.60938Q195.0625 185.29688 194.875 185.85938Q194.6875 186.42188 194.375 186.8125Q194.0625 187.20312 193.60938 187.42188Q193.15625 187.625 192.5625 187.625Q191.98438 187.625 191.53125 187.39062Q191.07812 187.14062 190.75 186.70312Q190.42188 186.26562 190.23438 185.6875Q190.0625 185.09375 190.0625 184.40625ZM191.15625 184.28125L191.15625 184.40625Q191.15625 184.875 191.25 185.29688Q191.34375 185.70312 191.54688 186.03125Q191.75 186.34375 192.0625 186.53125Q192.39062 186.70312 192.82812 186.70312Q193.35938 186.70312 193.70312 186.46875Q194.0625 186.23438 194.26562 185.85938Q194.48438 185.48438 194.59375 185.04688L194.59375 183.64062Q194.53125 183.3125 194.39062 183.01562Q194.26562 182.71875 194.0625 182.48438Q193.85938 182.23438 193.54688 182.09375Q193.25 181.95312 192.82812 181.95312Q192.39062 181.95312 192.0625 182.14062Q191.75 182.32812 191.54688 182.65625Q191.34375 182.96875 191.25 183.39062Q191.15625 183.79688 191.15625 184.28125ZM199.95312 187.625Q199.29688 187.625 198.75 187.40625Q198.21875 187.17188 197.82812 186.76562Q197.45312 186.34375 197.25 185.78125Q197.04688 185.21875 197.04688 184.54688L197.04688 184.3125Q197.04688 183.53125 197.26562 182.92188Q197.5 182.3125 197.89062 181.89062Q198.28125 181.46875 198.78125 181.26562Q199.28125 181.04688 199.8125 181.04688Q200.5 181.04688 200.98438 181.28125Q201.48438 181.51562 201.79688 181.9375Q202.125 182.34375 202.26562 182.92188Q202.42188 183.48438 202.42188 184.14062L202.42188 184.64062L197.6875 184.64062L197.6875 183.75L201.34375 183.75L201.34375 183.67188Q201.3125 183.25 201.15625 182.85938Q201.01562 182.45312 200.6875 182.20312Q200.375 181.9375 199.8125 181.9375Q199.45312 181.9375 199.14062 182.09375Q198.82812 182.25 198.59375 182.5625Q198.375 182.85938 198.25 183.29688Q198.14062 183.73438 198.14062 184.3125L198.14062 184.54688Q198.14062 185.0 198.26562 185.40625Q198.39062 185.79688 198.625 186.09375Q198.875 186.39062 199.21875 186.5625Q199.57812 186.73438 200.01562 186.73438Q200.59375 186.73438 200.98438 186.5Q201.39062 186.26562 201.6875 185.875L202.34375 186.39062Q202.14062 186.70312 201.8125 186.98438Q201.5 187.26562 201.03125 187.45312Q200.57812 187.625 199.95312 187.625Z" fill-rule="nonzero"/><path stroke="#000000" stroke-width="1.0" stroke-linecap="butt" d="M365.0 290.0L365.0 101.0" fill-rule="nonzero"/><path stroke="#ff0000" stroke-width="2.0" stroke-linecap="butt" stroke-opacity="0.7019608" stroke-dasharray="8.0,6.0,2.0,6.0" d="M365.0 177.0L443.0 245.0L402.0 311.0L365.0 333.0L332.0 309.0L238.0 217.0Z" fill-rule="nonzero"/><path fill="#ff0000" fill-opacity="0.7019608" d="M371.0 177.0C371.0 180.3137 368.31372 183.0 365.0 183.0C361.68628 183.0 359.0 180.3137 359.0 177.0C359.0 173.6863 361.68628 171.0 365.0 171.0C368.31372 171.0 371.0 173.6863 371.0 177.0Z" fill-rule="nonzero"/><path fill="#ff0000" fill-opacity="0.7019608" d="M449.0 245.0C449.0 248.3137 446.31372 251.0 443.0 251.0C439.68628 251.0 437.0 248.3137 437.0 245.0C437.0 241.6863 439.68628 239.0 443.0 239.0C446.31372 239.0 449.0 241.6863 449.0 245.0Z" fill-rule="nonzero"/><path fill="#ff0000" fill-opacity="0.7019608" d="M408.0 311.0C408.0 314.31372 405.31372 317.0 402.0 317.0C398.68628 317.0 396.0 314.31372 396.0 311.0C396.0 307.68628 398.68628 305.0 402.0 305.0C405.31372 305.0 408.0 307.68628 408.0 311.0Z" fill-rule="nonzero"/><path fill="#ff0000" fill-opacity="0.7019608" d="M371.0 333.0C371.0 336.31372 368.31372 339.0 365.0 339.0C361.68628 339.0 359.0 336.31372 359.0 333.0C359.0 329.68628 361.68628 327.0 365.0 327.0C368.31372 327.0 371.0 329.68628 371.0 333.0Z" fill-rule="nonzero"/><path fill="#ff0000" fill-opacity="0.7019608" d="M338.0 309.0C338.0 312.31372 335.31372 315.0 332.0 315.0C328.68628 315.0 326.0 312.31372 326.0 309.0C326.0 305.68628 328.68628 303.0 332.0 303.0C335.31372 303.0 338.0 305.68628 338.0 309.0Z" fill-rule="nonzero"/><path fill="#ff0000" fill-opacity="0.7019608" d="M244.0 217.0C244.0 220.3137 241.3137 223.0 238.0 223.0C234.6863 223.0 232.0 220.3137 232.0 217.0C232.0 213.6863 234.6863 211.0 238.0 211.0C241.3137 211.0 244.0 213.6863 244.0 217.0Z" fill-rule="nonzero"/><path fill="#757575" d="M28.36875 45.9L28.36875 31.587502L33.74375 31.587502Q35.384377 31.587502 36.36875 32.025Q37.353127 32.446877 37.915627 33.353127Q38.478127 34.259377 38.478127 35.24375Q38.478127 36.165627 37.978127 36.978127Q37.49375 37.790627 36.478127 38.275Q37.775 38.665627 38.478127 39.5875Q39.18125 40.49375 39.18125 41.74375Q39.18125 42.759377 38.74375 43.61875Q38.321877 44.478127 37.696877 44.946877Q37.071877 45.415627 36.134377 45.665627Q35.196877 45.9 33.821877 45.9L28.36875 45.9ZM30.259375 37.603127L33.353127 37.603127Q34.61875 37.603127 35.165627 37.43125Q35.884377 37.2125 36.24375 36.728127Q36.61875 36.228127 36.61875 35.4625Q36.61875 34.759377 36.275 34.2125Q35.93125 33.665627 35.290627 33.478127Q34.665627 33.275 33.11875 33.275L30.259375 33.275L30.259375 37.603127ZM30.259375 44.2125L33.821877 44.2125Q34.74375 44.2125 35.11875 44.134377Q35.775 44.025 36.2125 43.759377Q36.65 43.478127 36.93125 42.9625Q37.2125 42.43125 37.2125 41.74375Q37.2125 40.946877 36.80625 40.353127Q36.4 39.759377 35.665627 39.525Q34.93125 39.290627 33.571877 39.290627L30.259375 39.290627L30.259375 44.2125ZM48.009377 45.9L48.009377 44.36875Q46.80625 46.134377 44.728127 46.134377Q43.80625 46.134377 43.009377 45.790627Q42.2125 45.43125 41.821877 44.9Q41.446877 44.36875 41.290627 43.5875Q41.18125 43.071877 41.18125 41.946877L41.18125 35.525L42.93125 35.525L42.93125 41.275Q42.93125 42.65 43.040627 43.134377Q43.2125 43.821877 43.74375 44.228127Q44.290627 44.61875 45.071877 44.61875Q45.86875 44.61875 46.55625 44.2125Q47.259377 43.80625 47.540627 43.11875Q47.8375 42.415627 47.8375 41.0875L47.8375 35.525L49.5875 35.525L49.5875 45.9L48.009377 45.9ZM57.99375 42.103127L59.7125 42.321877Q59.43125 44.11875 58.259377 45.134377Q57.103127 46.134377 55.4 46.134377Q53.275 46.134377 51.978127 44.74375Q50.68125 43.353127 50.68125 40.759377Q50.68125 39.071877 51.228127 37.821877Q51.790627 36.55625 52.93125 35.93125Q54.071877 35.290627 55.415627 35.290627Q57.103127 35.290627 58.165627 36.15Q59.24375 37.009377 59.55625 38.571877L57.8375 38.8375Q57.603127 37.790627 56.978127 37.275Q56.353127 36.74375 55.478127 36.74375Q54.15 36.74375 53.321877 37.696877Q52.49375 38.65 52.49375 40.696877Q52.49375 42.790627 53.290627 43.74375Q54.0875 44.68125 55.384377 44.68125Q56.415627 44.68125 57.103127 44.05625Q57.80625 43.415627 57.99375 42.103127ZM61.228127 45.9L61.228127 31.587502L62.99375 31.587502L62.99375 39.74375L67.15 35.525L69.41563 35.525L65.4625 39.36875L69.82188 45.9L67.65 45.9L64.22813 40.603127L62.99375 41.790627L62.99375 45.9L61.228127 45.9ZM78.32188 42.55625L80.13438 42.790627Q79.7125 44.36875 78.54063 45.259377Q77.38438 46.134377 75.57188 46.134377Q73.30625 46.134377 71.9625 44.74375Q70.63438 43.3375 70.63438 40.80625Q70.63438 38.18125 71.97813 36.74375Q73.32188 35.290627 75.47813 35.290627Q77.55625 35.290627 78.86875 36.7125Q80.19688 38.11875 80.19688 40.696877Q80.19688 40.853127 80.18125 41.165627L72.44688 41.165627Q72.54063 42.86875 73.41563 43.775Q74.29063 44.68125 75.5875 44.68125Q76.55625 44.68125 77.22813 44.18125Q77.91563 43.665627 78.32188 42.55625ZM72.54063 39.7125L78.3375 39.7125Q78.22813 38.415627 77.68125 37.759377Q76.8375 36.74375 75.49375 36.74375Q74.29063 36.74375 73.4625 37.55625Q72.63438 38.353127 72.54063 39.7125ZM86.05625 44.321877L86.30625 45.884377Q85.57188 46.040627 84.97813 46.040627Q84.025 46.040627 83.49375 45.74375Q82.97813 45.43125 82.75938 44.946877Q82.54063 44.446877 82.54063 42.86875L82.54063 36.9L81.25938 36.9L81.25938 35.525L82.54063 35.525L82.54063 32.9625L84.29063 31.900002L84.29063 35.525L86.05625 35.525L86.05625 36.9L84.29063 36.9L84.29063 42.9625Q84.29063 43.7125 84.38438 43.93125Q84.47813 44.134377 84.68125 44.275Q84.9 44.4 85.29063 44.4Q85.57188 44.4 86.05625 44.321877ZM94.36875 45.9L94.36875 31.587502L96.25938 31.587502L96.25938 44.2125L103.30625 44.2125L103.30625 45.9L94.36875 45.9ZM105.22813 33.603127L105.22813 31.587502L106.99375 31.587502L106.99375 33.603127L105.22813 33.603127ZM105.22813 45.9L105.22813 35.525L106.99375 35.525L106.99375 45.9L105.22813 45.9ZM108.50938 42.80625L110.25938 42.525Q110.4 43.571877 111.07188 44.134377Q111.74375 44.68125 112.94688 44.68125Q114.15 44.68125 114.72813 44.196877Q115.32188 43.696877 115.32188 43.040627Q115.32188 42.446877 114.80625 42.103127Q114.44688 41.86875 113.00938 41.509377Q111.07188 41.009377 110.32188 40.665627Q109.5875 40.30625 109.19688 39.68125Q108.80625 39.040627 108.80625 38.275Q108.80625 37.5875 109.11875 36.99375Q109.44688 36.4 109.99375 36.009377Q110.4 35.7125 111.10313 35.509377Q111.82188 35.290627 112.63438 35.290627Q113.85313 35.290627 114.775 35.65Q115.69688 35.99375 116.13438 36.603127Q116.57188 37.196877 116.74375 38.196877L115.025 38.43125Q114.9 37.634377 114.3375 37.196877Q113.775 36.74375 112.75938 36.74375Q111.54063 36.74375 111.025 37.15Q110.50938 37.540627 110.50938 38.071877Q110.50938 38.415627 110.72813 38.696877Q110.93125 38.978127 111.4 39.165627Q111.66563 39.259377 112.94688 39.603127Q114.82188 40.103127 115.55625 40.43125Q116.29063 40.74375 116.7125 41.353127Q117.13438 41.946877 117.13438 42.853127Q117.13438 43.728127 116.61875 44.509377Q116.10313 45.290627 115.13438 45.7125Q114.16563 46.134377 112.94688 46.134377Q110.93125 46.134377 109.86875 45.290627Q108.80625 44.446877 108.50938 42.80625ZM123.05625 44.321877L123.30625 45.884377Q122.57188 46.040627 121.97813 46.040627Q121.025 46.040627 120.49375 45.74375Q119.97813 45.43125 119.75938 44.946877Q119.54063 44.446877 119.54063 42.86875L119.54063 36.9L118.25938 36.9L118.25938 35.525L119.54063 35.525L119.54063 32.9625L121.29063 31.900002L121.29063 35.525L123.05625 35.525L123.05625 36.9L121.29063 36.9L121.29063 42.9625Q121.29063 43.7125 121.38438 43.93125Q121.47813 44.134377 121.68125 44.275Q121.9 44.4 122.29063 44.4Q122.57188 44.4 123.05625 44.321877Z" fill-rule="nonzero"/></svg>