<svg version="1.1" viewBox="0.0 0.0 730.0 538.0" fill="none" stroke="none" stroke-linecap="square" stroke-miterlimit="10" width="730" height="538" xmlns:xlink="http://www.w3.org/1999/xlink" xmlns="http://www.w3.org/2000/svg"><path fill="#ffffff" d="M0 0L730.0 0L730.0 538.0L0 538.0L0 0Z" fill-rule="nonzero"/><path fill="#ffffff" d="M94.52 68.833336L703.10004 68.833336L703.10004 511.1L94.52 511.1L94.52 68.833336Z" fill-rule="nonzero"/><path stroke="#000000" stroke-width="1.0" stroke-linecap="butt" d="M399.0 290.0C399.0 290.0 399.0 290.0 399.0 290.0C399.0 290.0 399.0 290.0 399.0 290.0C399.0 290.0 399.0 290.0 399.0 290.0C399.0 290.0 399.0 290.0 399.0 290.0" fill-rule="nonzero"/><path fill="#000000" d="M387.0625 282.04688L387.0625 283.35938Q387.0625 284.40625 386.875 285.125Q386.6875 285.84375 386.32812 286.28125Q385.98438 286.71875 385.48438 286.92188Q385.0 287.125 384.375 287.125Q383.89062 287.125 383.46875 287.0Q383.04688 286.875 382.71875 286.60938Q382.39062 286.32812 382.15625 285.89062Q381.92188 285.45312 381.79688 284.82812Q381.67188 284.1875 381.67188 283.35938L381.67188 282.04688Q381.67188 281.0 381.85938 280.29688Q382.0625 279.59375 382.40625 279.15625Q382.76562 278.71875 383.25 278.53125Q383.75 278.34375 384.35938 278.34375Q384.85938 278.34375 385.28125 278.46875Q385.70312 278.59375 386.03125 278.85938Q386.35938 279.10938 386.57812 279.54688Q386.8125 279.96875 386.9375 280.59375Q387.0625 281.21875 387.0625 282.04688ZM385.96875 283.53125L385.96875 281.875Q385.96875 281.29688 385.90625 280.85938Q385.84375 280.42188 385.70312 280.10938Q385.57812 279.79688 385.375 279.60938Q385.1875 279.42188 384.9375 279.32812Q384.6875 279.23438 384.35938 279.23438Q383.98438 279.23438 383.67188 279.375Q383.375 279.51562 383.17188 279.82812Q382.96875 280.14062 382.85938 280.65625Q382.76562 281.15625 382.76562 281.875L382.76562 283.53125Q382.76562 284.10938 382.82812 284.54688Q382.90625 284.98438 383.03125 285.3125Q383.17188 285.625 383.35938 285.82812Q383.5625 286.03125 383.8125 286.125Q384.0625 286.21875 384.375 286.21875Q384.78125 286.21875 385.07812 286.07812Q385.375 285.92188 385.57812 285.59375Q385.78125 285.26562 385.875 284.76562Q385.96875 284.25 385.96875 283.53125ZM389.8125 285.70312L389.8125 286.57812Q389.8125 287.125 389.53125 287.71875Q389.26562 288.3125 388.78125 288.70312L388.17188 288.28125Q388.35938 288.01562 388.48438 287.75Q388.60938 287.48438 388.67188 287.20312Q388.75 286.92188 388.75 286.59375L388.75 285.70312L389.8125 285.70312ZM396.0625 282.04688L396.0625 283.35938Q396.0625 284.40625 395.875 285.125Q395.6875 285.84375 395.32812 286.28125Q394.98438 286.71875 394.48438 286.92188Q394.0 287.125 393.375 287.125Q392.89062 287.125 392.46875 287.0Q392.04688 286.875 391.71875 286.60938Q391.39062 286.32812 391.15625 285.89062Q390.92188 285.45312 390.79688 284.82812Q390.67188 284.1875 390.67188 283.35938L390.67188 282.04688Q390.67188 281.0 390.85938 280.29688Q391.0625 279.59375 391.40625 279.15625Q391.76562 278.71875 392.25 278.53125Q392.75 278.34375 393.35938 278.34375Q393.85938 278.34375 394.28125 278.46875Q394.70312 278.59375 395.03125 278.85938Q395.35938 279.10938 395.57812 279.54688Q395.8125 279.96875 395.9375 280.59375Q396.0625 281.21875 396.0625 282.04688ZM394.96875 283.53125L394.96875 281.875Q394.96875 281.29688 394.90625 280.85938Q394.84375 280.42188 394.70312 280.10938Q394.57812 279.79688 394.375 279.60938Q394.1875 279.42188 393.9375 279.32812Q393.6875 279.23438 393.35938 279.23438Q392.98438 279.23438 392.67188 279.375Q392.375 279.51562 392.17188 279.82812Q391.96875 280.14062 391.85938 280.65625Q391.76562 281.15625 391.76562 281.875L391.76562 283.53125Q391.76562 284.10938 391.82812 284.54688Q391.90625 284.98438 392.03125 285.3125Q392.17188 285.625 392.35938 285.82812Q392.5625 286.03125 392.8125 286.125Q393.0625 286.21875 393.375 286.21875Q393.78125 286.21875 394.07812 286.07812Q394.375 285.92188 394.57812 285.59375Q394.78125 285.26562 394.875 284.76562Q394.96875 284.25 394.96875 283.53125Z" fill-rule="nonzero"/><path stroke="#000000" stroke-width="1.0" stroke-linecap="butt" d="M462.04443 290.0C462.04443 255.18152 433.81848 226.95555 399.0 226.95555C364.18152 226.95555 335.95557 255.18152 335.95557 290.0C335.95557 324.81848 364.18152 353.04443 399.0 353.04443C433.81848 353.04443 462.04443 324.81848 462.04443 290.0" fill-rule="nonzero"/><path fill="#000000" d="M387.0625 219.00243L387.0625 220.31493Q387.0625 221.3618 386.875 222.08055Q386.6875 222.7993 386.32812 223.2368Q385.98438 223.6743 385.48438 223.87743Q385.0 224.08055 384.375 224.08055Q383.89062 224.08055 383.46875 223.95555Q383.04688 223.83055 382.71875 223.56493Q382.39062 223.28368 382.15625 222.84618Q381.92188 222.40868 381.79688 221.78368Q381.67188 221.14305 381.67188 220.31493L381.67188 219.00243Q381.67188 217.95555 381.85938 217.25243Q382.0625 216.5493 382.40625 216.1118Q382.76562 215.6743 383.25 215.4868Q383.75 215.2993 384.35938 215.2993Q384.85938 215.2993 385.28125 215.4243Q385.70312 215.5493 386.03125 215.81493Q386.35938 216.06493 386.57812 216.50243Q386.8125 216.9243 386.9375 217.5493Q387.0625 218.1743 387.0625 219.00243ZM385.96875 220.4868L385.96875 218.83055Q385.96875 218.25243 385.90625 217.81493Q385.84375 217.37743 385.70312 217.06493Q385.57812 216.75243 385.375 216.56493Q385.1875 216.37743 384.9375 216.28368Q384.6875 216.18993 384.35938 216.18993Q383.98438 216.18993 383.67188 216.33055Q383.375 216.47118 383.17188 216.78368Q382.96875 217.09618 382.85938 217.6118Q382.76562 218.1118 382.76562 218.83055L382.76562 220.4868Q382.76562 221.06493 382.82812 221.50243Q382.90625 221.93993 383.03125 222.26805Q383.17188 222.58055 383.35938 222.78368Q383.5625 222.9868 383.8125 223.08055Q384.0625 223.1743 384.375 223.1743Q384.78125 223.1743 385.07812 223.03368Q385.375 222.87743 385.57812 222.5493Q385.78125 222.22118 385.875 221.72118Q385.96875 221.20555 385.96875 220.4868ZM389.8125 222.65868L389.8125 223.53368Q389.8125 224.08055 389.53125 224.6743Q389.26562 225.26805 388.78125 225.65868L388.17188 225.2368Q388.35938 224.97118 388.48438 224.70555Q388.60938 224.43993 388.67188 224.15868Q388.75 223.87743 388.75 223.5493L388.75 222.65868L389.8125 222.65868ZM394.26562 215.37743L394.26562 223.95555L393.1875 223.95555L393.1875 216.7368L391.0 217.53368L391.0 216.5493L394.10938 215.37743L394.26562 215.37743Z" fill-rule="nonzero"/><path stroke="#000000" stroke-width="1.0" stroke-linecap="butt" d="M525.08887 290.0C525.08887 220.36304 468.63696 163.91112 399.0 163.91112C329.36304 163.91112 272.9111 220.36304 272.9111 290.0C272.9111 359.63696 329.36304 416.0889 399.0 416.0889C468.63696 416.0889 525.08887 359.63696 525.08887 290.0" fill-rule="nonzero"/><path fill="#000000" d="M387.0625 155.958L387.0625 157.2705Q387.0625 158.31737 386.875 159.03612Q386.6875 159.75487 386.32812 160.19237Q385.98438 160.62987 385.48438 160.833Q385.0 161.03612 384.375 161.03612Q383.89062 161.03612 383.46875 160.91112Q383.04688 160.78612 382.71875 160.5205Q382.39062 160.23924 382.15625 159.80174Q381.92188 159.36424 381.79688 158.73924Q381.67188 158.09862 381.67188 157.2705L381.67188 155.958Q381.67188 154.91112 381.85938 154.208Q382.0625 153.50487 382.40625 153.06737Q382.76562 152.62987 383.25 152.44237Q383.75 152.25487 384.35938 152.25487Q384.85938 152.25487 385.28125 152.37987Q385.70312 152.50487 386.03125 152.7705Q386.35938 153.0205 386.57812 153.458Q386.8125 153.87987 386.9375 154.50487Q387.0625 155.12987 387.0625 155.958ZM385.96875 157.44237L385.96875 155.78612Q385.96875 155.208 385.90625 154.7705Q385.84375 154.333 385.70312 154.0205Q385.57812 153.708 385.375 153.5205Q385.1875 153.333 384.9375 153.23924Q384.6875 153.1455 384.35938 153.1455Q383.98438 153.1455 383.67188 153.28612Q383.375 153.42674 383.17188 153.73924Q382.96875 154.05174 382.85938 154.56737Q382.76562 155.06737 382.76562 155.78612L382.76562 157.44237Q382.76562 158.0205 382.82812 158.458Q382.90625 158.8955 383.03125 159.22362Q383.17188 159.53612 383.35938 159.73924Q383.5625 159.94237 383.8125 160.03612Q384.0625 160.12987 384.375 160.12987Q384.78125 160.12987 385.07812 159.98924Q385.375 159.833 385.57812 159.50487Q385.78125 159.17674 385.875 158.67674Q385.96875 158.16112 385.96875 157.44237ZM389.8125 159.61424L389.8125 160.48924Q389.8125 161.03612 389.53125 161.62987Q389.26562 162.22362 388.78125 162.61424L388.17188 162.19237Q388.35938 161.92674 388.48438 161.66112Q388.60938 161.3955 388.67188 161.11424Q388.75 160.833 388.75 160.50487L388.75 159.61424L389.8125 159.61424ZM396.29688 160.0205L396.29688 160.91112L390.71875 160.91112L390.71875 160.12987L393.51562 157.0205Q394.03125 156.44237 394.3125 156.05174Q394.59375 155.6455 394.70312 155.333Q394.82812 155.00487 394.82812 154.67674Q394.82812 154.25487 394.65625 153.91112Q394.48438 153.56737 394.14062 153.36424Q393.8125 153.1455 393.32812 153.1455Q392.76562 153.1455 392.39062 153.37987Q392.01562 153.59862 391.82812 153.98924Q391.64062 154.37987 391.64062 154.87987L390.54688 154.87987Q390.54688 154.16112 390.85938 153.56737Q391.1875 152.97362 391.79688 152.61424Q392.42188 152.25487 393.32812 152.25487Q394.14062 152.25487 394.71875 152.55174Q395.29688 152.833 395.59375 153.34862Q395.90625 153.84862 395.90625 154.53612Q395.90625 154.91112 395.78125 155.30174Q395.65625 155.67674 395.4375 156.06737Q395.21875 156.44237 394.92188 156.81737Q394.64062 157.17674 394.3125 157.53612L392.01562 160.0205L396.29688 160.0205Z" fill-rule="nonzero"/><path stroke="#000000" stroke-width="1.0" stroke-linecap="butt" d="M588.13336 290.0C588.13336 185.54454 503.45544 100.86667 399.0 100.86667C294.54456 100.86667 209.86667 185.54454 209.86667 290.0C209.86667 394.45544 294.54456 479.13333 399.0 479.13333C503.45544 479.13333 588.13336 394.45544 588.13336 290.0" fill-rule="nonzero"/><path fill="#000000" d="M387.0625 92.91354L387.0625 94.22604Q387.0625 95.27292 386.875 95.99167Q386.6875 96.71042 386.32812 97.14792Q385.98438 97.58542 385.48438 97.78854Q385.0 97.99167 384.375 97.99167Q383.89062 97.99167 383.46875 97.86667Q383.04688 97.74167 382.71875 97.47604Q382.39062 97.19479 382.15625 96.75729Q381.92188 96.31979 381.79688 95.69479Q381.67188 95.05417 381.67188 94.22604L381.67188 92.91354Q381.67188 91.86667 381.85938 91.16354Q382.0625 90.46042 382.40625 90.02292Q382.76562 89.58542 383.25 89.39792Q383.75 89.21042 384.35938 89.21042Q384.85938 89.21042 385.28125 89.33542Q385.70312 89.46042 386.03125 89.72604Q386.35938 89.97604 386.57812 90.41354Q386.8125 90.83542 386.9375 91.46042Q387.0625 92.08542 387.0625 92.91354ZM385.96875 94.39792L385.96875 92.74167Q385.96875 92.16354 385.90625 91.72604Q385.84375 91.28854 385.70312 90.97604Q385.57812 90.66354 385.375 90.47604Q385.1875 90.28854 384.9375 90.19479Q384.6875 90.10104 384.35938 90.10104Q383.98438 90.10104 383.67188 90.24167Q383.375 90.38229 383.17188 90.69479Q382.96875 91.00729 382.85938 91.52292Q382.76562 92.02292 382.76562 92.74167L382.76562 94.39792Q382.76562 94.97604 382.82812 95.41354Q382.90625 95.85104 383.03125 96.17917Q383.17188 96.49167 383.35938 96.69479Q383.5625 96.89792 383.8125 96.99167Q384.0625 97.08542 384.375 97.08542Q384.78125 97.08542 385.07812 96.94479Q385.375 96.78854 385.57812 96.46042Q385.78125 96.13229 385.875 95.63229Q385.96875 95.11667 385.96875 94.39792ZM389.8125 96.56979L389.8125 97.44479Q389.8125 97.99167 389.53125 98.58542Q389.26562 99.17917 388.78125 99.56979L388.17188 99.14792Q388.35938 98.88229 388.48438 98.61667Q388.60938 98.35104 388.67188 98.06979Q388.75 97.78854 388.75 97.46042L388.75 96.56979L389.8125 96.56979ZM392.29688 93.06979L393.0625 93.06979Q393.64062 93.06979 394.0 92.88229Q394.375 92.67917 394.5625 92.35104Q394.75 92.02292 394.75 91.60104Q394.75 91.11667 394.57812 90.78854Q394.42188 90.44479 394.09375 90.27292Q393.76562 90.10104 393.26562 90.10104Q392.79688 90.10104 392.45312 90.28854Q392.10938 90.46042 391.90625 90.78854Q391.71875 91.11667 391.71875 91.56979L390.625 91.56979Q390.625 90.91354 390.95312 90.38229Q391.28125 89.85104 391.875 89.53854Q392.46875 89.21042 393.26562 89.21042Q394.03125 89.21042 394.60938 89.49167Q395.1875 89.75729 395.51562 90.30417Q395.84375 90.83542 395.84375 91.63229Q395.84375 91.96042 395.6875 92.31979Q395.53125 92.67917 395.21875 93.00729Q394.90625 93.31979 394.40625 93.52292Q393.92188 93.72604 393.21875 93.72604L392.29688 93.72604L392.29688 93.06979ZM392.29688 93.96042L392.29688 93.30417L393.21875 93.30417Q394.03125 93.30417 394.5625 93.50729Q395.09375 93.69479 395.40625 94.02292Q395.71875 94.33542 395.84375 94.72604Q395.96875 95.10104 395.96875 95.49167Q395.96875 96.08542 395.76562 96.55417Q395.5625 97.00729 395.1875 97.33542Q394.82812 97.64792 394.32812 97.81979Q393.84375 97.99167 393.26562 97.99167Q392.70312 97.99167 392.21875 97.83542Q391.73438 97.66354 391.35938 97.36667Q390.98438 97.06979 390.76562 96.63229Q390.5625 96.17917 390.5625 95.61667L391.64062 95.61667Q391.64062 96.05417 391.82812 96.39792Q392.03125 96.72604 392.39062 96.91354Q392.76562 97.08542 393.26562 97.08542Q393.76562 97.08542 394.125 96.91354Q394.48438 96.74167 394.67188 96.39792Q394.875 96.03854 394.875 95.50729Q394.875 94.97604 394.65625 94.63229Q394.4375 94.28854 394.01562 94.13229Q393.60938 93.96042 393.0625 93.96042L392.29688 93.96042Z" fill-rule="nonzero"/><path stroke="#000000" stroke-width="1.0" stroke-linecap="butt" d="M399.0 290.0L399.0 101.0" fill-rule="nonzero"/><path fill="#000000" d="M369.64062 76.78125L370.76562 76.78125Q370.67188 77.59375 370.29688 78.234375Q369.92188 78.875 369.23438 79.25Q368.5625 79.625 367.53125 79.625Q366.78125 79.625 366.17188 79.34375Q365.5625 79.046875 365.10938 78.53125Q364.67188 78.015625 364.4375 77.296875Q364.20312 76.5625 364.20312 75.65625L364.20312 74.8125Q364.20312 73.921875 364.4375 73.1875Q364.67188 72.453125 365.125 71.9375Q365.57812 71.40625 366.20312 71.125Q366.84375 70.84375 367.625 70.84375Q368.59375 70.84375 369.26562 71.21875Q369.9375 71.578125 370.29688 72.21875Q370.67188 72.859375 370.76562 73.703125L369.64062 73.703125Q369.5625 73.109375 369.32812 72.6875Q369.10938 72.25 368.70312 72.015625Q368.29688 71.78125 367.625 71.78125Q367.0625 71.78125 366.625 72.0Q366.20312 72.203125 365.90625 72.609375Q365.625 73.0 365.46875 73.5625Q365.32812 74.125 365.32812 74.796875L365.32812 75.65625Q365.32812 76.28125 365.45312 76.84375Q365.59375 77.390625 365.85938 77.8125Q366.125 78.21875 366.54688 78.46875Q366.96875 78.703125 367.53125 78.703125Q368.25 78.703125 368.67188 78.46875Q369.10938 78.234375 369.32812 77.8125Q369.54688 77.390625 369.64062 76.78125ZM376.0625 78.421875L376.0625 75.15625Q376.0625 74.78125 375.90625 74.5Q375.76562 74.21875 375.46875 74.078125Q375.17188 73.921875 374.73438 73.921875Q374.3125 73.921875 374.0 74.0625Q373.70312 74.203125 373.53125 74.4375Q373.35938 74.65625 373.35938 74.921875L372.28125 74.921875Q372.28125 74.578125 372.45312 74.25Q372.625 73.90625 372.95312 73.640625Q373.28125 73.359375 373.75 73.203125Q374.21875 73.046875 374.79688 73.046875Q375.48438 73.046875 376.01562 73.28125Q376.54688 73.515625 376.84375 73.984375Q377.15625 74.453125 377.15625 75.15625L377.15625 78.109375Q377.15625 78.4375 377.20312 78.796875Q377.26562 79.140625 377.375 79.40625L377.375 79.5L376.23438 79.5Q376.15625 79.3125 376.10938 79.0Q376.0625 78.6875 376.0625 78.421875ZM376.25 75.65625L376.26562 76.421875L375.17188 76.421875Q374.70312 76.421875 374.34375 76.5Q373.98438 76.5625 373.73438 76.71875Q373.48438 76.859375 373.35938 77.078125Q373.23438 77.296875 373.23438 77.59375Q373.23438 77.890625 373.35938 78.140625Q373.5 78.375 373.76562 78.53125Q374.04688 78.671875 374.4375 78.671875Q374.9375 78.671875 375.3125 78.46875Q375.70312 78.25 375.92188 77.953125Q376.15625 77.640625 376.17188 77.34375L376.64062 77.875Q376.59375 78.109375 376.40625 78.421875Q376.23438 78.71875 375.92188 79.0Q375.625 79.265625 375.20312 79.453125Q374.79688 79.625 374.28125 79.625Q373.64062 79.625 373.15625 79.375Q372.67188 79.109375 372.40625 78.6875Q372.14062 78.265625 372.14062 77.734375Q372.14062 77.21875 372.32812 76.84375Q372.53125 76.453125 372.90625 76.1875Q373.28125 75.921875 373.8125 75.796875Q374.34375 75.65625 375.0 75.65625L376.25 75.65625ZM380.40625 74.15625L380.40625 79.5L379.32812 79.5L379.32812 73.15625L380.375 73.15625L380.40625 74.15625ZM382.39062 73.125L382.39062 74.125Q382.25 74.109375 382.125 74.09375Q382.01562 74.078125 381.85938 74.078125Q381.48438 74.078125 381.1875 74.203125Q380.90625 74.3125 380.70312 74.53125Q380.51562 74.734375 380.39062 75.03125Q380.28125 75.328125 380.25 75.671875L379.9375 75.84375Q379.9375 75.265625 380.04688 74.765625Q380.17188 74.265625 380.40625 73.875Q380.65625 73.484375 381.01562 73.265625Q381.39062 73.046875 381.90625 73.046875Q382.03125 73.046875 382.17188 73.078125Q382.32812 73.09375 382.39062 73.125ZM385.10938 78.84375L386.875 73.15625L388.03125 73.15625L385.48438 80.484375Q385.40625 80.71875 385.25 80.984375Q385.10938 81.265625 384.89062 81.5Q384.67188 81.75 384.35938 81.90625Q384.04688 82.0625 383.60938 82.0625Q383.48438 82.0625 383.28125 82.015625Q383.07812 81.984375 383.0 81.96875L383.0 81.09375Q383.04688 81.09375 383.14062 81.09375Q383.25 81.109375 383.28125 81.109375Q383.65625 81.109375 383.90625 81.015625Q384.17188 80.921875 384.34375 80.6875Q384.53125 80.46875 384.65625 80.078125L385.10938 78.84375ZM383.8125 73.15625L385.45312 78.078125L385.73438 79.21875L384.96875 79.625L382.625 73.15625L383.8125 73.15625ZM389.04688 76.40625L389.04688 76.265625Q389.04688 75.578125 389.23438 75.0Q389.4375 74.40625 389.8125 73.96875Q390.1875 73.53125 390.71875 73.296875Q391.25 73.046875 391.92188 73.046875Q392.57812 73.046875 393.10938 73.296875Q393.65625 73.53125 394.03125 73.96875Q394.40625 74.40625 394.60938 75.0Q394.8125 75.578125 394.8125 76.265625L394.8125 76.40625Q394.8125 77.078125 394.60938 77.671875Q394.40625 78.25 394.03125 78.6875Q393.65625 79.125 393.125 79.375Q392.59375 79.625 391.92188 79.625Q391.26562 79.625 390.71875 79.375Q390.1875 79.125 389.8125 78.6875Q389.4375 78.25 389.23438 77.671875Q389.04688 77.078125 389.04688 76.40625ZM390.125 76.265625L390.125 76.40625Q390.125 76.875 390.23438 77.296875Q390.34375 77.71875 390.5625 78.046875Q390.79688 78.359375 391.14062 78.546875Q391.48438 78.71875 391.92188 78.71875Q392.375 78.71875 392.70312 78.546875Q393.04688 78.359375 393.26562 78.046875Q393.5 77.71875 393.60938 77.296875Q393.71875 76.875 393.71875 76.40625L393.71875 76.265625Q393.71875 75.796875 393.60938 75.375Q393.5 74.953125 393.26562 74.640625Q393.04688 74.3125 392.70312 74.125Q392.375 73.9375 391.92188 73.9375Q391.46875 73.9375 391.125 74.125Q390.79688 74.3125 390.5625 74.640625Q390.34375 74.953125 390.23438 75.375Q390.125 75.796875 390.125 76.265625ZM397.40625 74.375L397.40625 81.9375L396.32812 81.9375L396.32812 73.15625L397.3125 73.15625L397.40625 74.375ZM401.6875 76.28125L401.6875 76.40625Q401.6875 77.09375 401.51562 77.6875Q401.35938 78.265625 401.04688 78.703125Q400.73438 79.140625 400.26562 79.390625Q399.8125 79.625 399.21875 79.625Q398.625 79.625 398.15625 79.421875Q397.6875 79.21875 397.35938 78.84375Q397.04688 78.453125 396.85938 77.921875Q396.67188 77.390625 396.59375 76.71875L396.59375 76.0625Q396.67188 75.359375 396.85938 74.8125Q397.04688 74.25 397.35938 73.859375Q397.6875 73.453125 398.14062 73.25Q398.60938 73.046875 399.20312 73.046875Q399.79688 73.046875 400.26562 73.28125Q400.73438 73.5 401.04688 73.9375Q401.35938 74.359375 401.51562 74.953125Q401.6875 75.546875 401.6875 76.28125ZM400.59375 76.40625L400.59375 76.28125Q400.59375 75.796875 400.48438 75.390625Q400.39062 74.96875 400.1875 74.65625Q399.98438 74.328125 399.65625 74.140625Q399.32812 73.953125 398.89062 73.953125Q398.48438 73.953125 398.17188 74.09375Q397.875 74.234375 397.65625 74.484375Q397.45312 74.71875 397.3125 75.015625Q397.1875 75.3125 397.125 75.640625L397.125 77.15625Q397.23438 77.5625 397.4375 77.921875Q397.65625 78.28125 398.0 78.5Q398.35938 78.71875 398.90625 78.71875Q399.34375 78.71875 399.65625 78.546875Q399.98438 78.359375 400.1875 78.046875Q400.39062 77.71875 400.48438 77.296875Q400.59375 76.875 400.59375 76.40625ZM404.40625 70.5L404.40625 79.5L403.32812 79.5L403.32812 70.5L404.40625 70.5ZM404.15625 76.09375L403.70312 76.078125Q403.70312 75.421875 403.89062 74.875Q404.07812 74.3125 404.42188 73.90625Q404.76562 73.5 405.23438 73.28125Q405.70312 73.046875 406.28125 73.046875Q406.75 73.046875 407.125 73.171875Q407.5 73.296875 407.76562 73.578125Q408.03125 73.84375 408.17188 74.28125Q408.3125 74.71875 408.3125 75.34375L408.3125 79.5L407.21875 79.5L407.21875 75.328125Q407.21875 74.828125 407.07812 74.53125Q406.9375 74.234375 406.65625 74.09375Q406.375 73.953125 405.95312 73.953125Q405.54688 73.953125 405.21875 74.125Q404.89062 74.296875 404.65625 74.59375Q404.42188 74.890625 404.28125 75.28125Q404.15625 75.65625 404.15625 76.09375ZM412.10938 78.84375L413.875 73.15625L415.03125 73.15625L412.48438 80.484375Q412.40625 80.71875 412.25 80.984375Q412.10938 81.265625 411.89062 81.5Q411.67188 81.75 411.35938 81.90625Q411.04688 82.0625 410.60938 82.0625Q410.48438 82.0625 410.28125 82.015625Q410.07812 81.984375 410.0 81.96875L410.0 81.09375Q410.04688 81.09375 410.14062 81.09375Q410.25 81.109375 410.28125 81.109375Q410.65625 81.109375 410.90625 81.015625Q411.17188 80.921875 411.34375 80.6875Q411.53125 80.46875 411.65625 80.078125L412.10938 78.84375ZM410.8125 73.15625L412.45312 78.078125L412.73438 79.21875L411.96875 79.625L409.625 73.15625L410.8125 73.15625ZM417.5 70.5L417.5 79.5L416.42188 79.5L416.42188 70.5L417.5 70.5ZM420.5 70.5L420.5 79.5L419.42188 79.5L419.42188 70.5L420.5 70.5ZM424.95312 79.625Q424.29688 79.625 423.75 79.40625Q423.21875 79.171875 422.82812 78.765625Q422.45312 78.34375 422.25 77.78125Q422.04688 77.21875 422.04688 76.546875L422.04688 76.3125Q422.04688 75.53125 422.26562 74.921875Q422.5 74.3125 422.89062 73.890625Q423.28125 73.46875 423.78125 73.265625Q424.28125 73.046875 424.8125 73.046875Q425.5 73.046875 425.98438 73.28125Q426.48438 73.515625 426.79688 73.9375Q427.125 74.34375 427.26562 74.921875Q427.42188 75.484375 427.42188 76.140625L427.42188 76.640625L422.6875 76.640625L422.6875 75.75L426.34375 75.75L426.34375 75.671875Q426.3125 75.25 426.15625 74.859375Q426.01562 74.453125 425.6875 74.203125Q425.375 73.9375 424.8125 73.9375Q424.45312 73.9375 424.14062 74.09375Q423.82812 74.25 423.59375 74.5625Q423.375 74.859375 423.25 75.296875Q423.14062 75.734375 423.14062 76.3125L423.14062 76.546875Q423.14062 77.0 423.26562 77.40625Q423.39062 77.796875 423.625 78.09375Q423.875 78.390625 424.21875 78.5625Q424.57812 78.734375 425.01562 78.734375Q425.59375 78.734375 425.98438 78.5Q426.39062 78.265625 426.6875 77.875L427.34375 78.390625Q427.14062 78.703125 426.8125 78.984375Q426.5 79.265625 426.03125 79.453125Q425.57812 79.625 424.95312 79.625ZM429.40625 74.515625L429.40625 79.5L428.32812 79.5L428.32812 73.15625L429.35938 73.15625L429.40625 74.515625ZM429.15625 76.09375L428.70312 76.078125Q428.70312 75.421875 428.89062 74.875Q429.07812 74.3125 429.42188 73.90625Q429.76562 73.5 430.23438 73.28125Q430.70312 73.046875 431.28125 73.046875Q431.75 73.046875 432.125 73.171875Q432.5 73.296875 432.76562 73.578125Q433.03125 73.84375 433.17188 74.28125Q433.3125 74.71875 433.3125 75.34375L433.3125 79.5L432.21875 79.5L432.21875 75.328125Q432.21875 74.828125 432.07812 74.53125Q431.9375 74.234375 431.65625 74.09375Q431.375 73.953125 430.95312 73.953125Q430.54688 73.953125 430.21875 74.125Q429.89062 74.296875 429.65625 74.59375Q429.42188 74.890625 429.28125 75.28125Q429.15625 75.65625 429.15625 76.09375Z" fill-rule="nonzero"/><path stroke="#000000" stroke-width="1.0" stroke-linecap="butt" d="M399.0 290.0L563.0 195.0" fill-rule="nonzero"/><path fill="#000000" d="M567.6719 185.57812L567.6719 186.5L563.40625 186.5L563.40625 185.57812L567.6719 185.57812ZM563.625 177.96875L563.625 186.5L562.4844 186.5L562.4844 177.96875L563.625 177.96875ZM569.5 180.15625L569.5 186.5L568.4219 186.5L568.4219 180.15625L569.5 180.15625ZM568.3281 178.48438Q568.3281 178.21875 568.4844 178.03125Q568.65625 177.84375 568.96875 177.84375Q569.28125 177.84375 569.4375 178.03125Q569.6094 178.21875 569.6094 178.48438Q569.6094 178.73438 569.4375 178.92188Q569.28125 179.09375 568.96875 179.09375Q568.65625 179.09375 568.4844 178.92188Q568.3281 178.73438 568.3281 178.48438ZM572.40625 181.42188L572.40625 186.5L571.3125 186.5L571.3125 180.15625L572.34375 180.15625L572.40625 181.42188ZM572.1875 183.09375L571.6719 183.07812Q571.6875 182.42188 571.84375 181.875Q572.0156 181.3125 572.3281 180.90625Q572.65625 180.5 573.1406 180.28125Q573.625 180.04688 574.25 180.04688Q574.7031 180.04688 575.0781 180.17188Q575.4531 180.29688 575.71875 180.5625Q576.0 180.82812 576.1406 181.25Q576.2969 181.67188 576.2969 182.28125L576.2969 186.5L575.21875 186.5L575.21875 182.32812Q575.21875 181.82812 575.0469 181.53125Q574.8906 181.23438 574.5781 181.09375Q574.28125 180.95312 573.8594 180.95312Q573.3906 180.95312 573.0625 181.125Q572.7344 181.29688 572.5469 181.59375Q572.3594 181.89062 572.2656 182.28125Q572.1875 182.65625 572.1875 183.09375ZM576.2969 182.48438L575.5625 182.71875Q575.5625 182.1875 575.7344 181.71875Q575.90625 181.23438 576.21875 180.85938Q576.5469 180.48438 577.0156 180.26562Q577.4844 180.04688 578.0781 180.04688Q578.59375 180.04688 578.9844 180.1875Q579.3906 180.3125 579.65625 180.59375Q579.9219 180.875 580.0625 181.3125Q580.2031 181.73438 580.2031 182.32812L580.2031 186.5L579.125 186.5L579.125 182.32812Q579.125 181.78125 578.9531 181.5Q578.78125 181.20312 578.4844 181.07812Q578.1875 180.95312 577.7656 180.95312Q577.40625 180.95312 577.125 181.07812Q576.8594 181.20312 576.6719 181.42188Q576.4844 181.625 576.3906 181.90625Q576.2969 182.1875 576.2969 182.48438ZM582.0469 183.40625L582.0469 183.26562Q582.0469 182.57812 582.2344 182.0Q582.4375 181.40625 582.8125 180.96875Q583.1875 180.53125 583.71875 180.29688Q584.25 180.04688 584.9219 180.04688Q585.5781 180.04688 586.1094 180.29688Q586.65625 180.53125 587.03125 180.96875Q587.40625 181.40625 587.6094 182.0Q587.8125 182.57812 587.8125 183.26562L587.8125 183.40625Q587.8125 184.07812 587.6094 184.67188Q587.40625 185.25 587.03125 185.6875Q586.65625 186.125 586.125 186.375Q585.59375 186.625 584.9219 186.625Q584.2656 186.625 583.71875 186.375Q583.1875 186.125 582.8125 185.6875Q582.4375 185.25 582.2344 184.67188Q582.0469 184.07812 582.0469 183.40625ZM583.125 183.26562L583.125 183.40625Q583.125 183.875 583.2344 184.29688Q583.34375 184.71875 583.5625 185.04688Q583.7969 185.35938 584.1406 185.54688Q584.4844 185.71875 584.9219 185.71875Q585.375 185.71875 585.7031 185.54688Q586.0469 185.35938 586.2656 185.04688Q586.5 184.71875 586.6094 184.29688Q586.71875 183.875 586.71875 183.40625L586.71875 183.26562Q586.71875 182.79688 586.6094 182.375Q586.5 181.95312 586.2656 181.64062Q586.0469 181.3125 585.7031 181.125Q585.375 180.9375 584.9219 180.9375Q584.46875 180.9375 584.125 181.125Q583.7969 181.3125 583.5625 181.64062Q583.34375 181.95312 583.2344 182.375Q583.125 182.79688 583.125 183.26562ZM590.40625 181.51562L590.40625 186.5L589.3281 186.5L589.3281 180.15625L590.3594 180.15625L590.40625 181.51562ZM590.15625 183.09375L589.7031 183.07812Q589.7031 182.42188 589.8906 181.875Q590.0781 181.3125 590.4219 180.90625Q590.7656 180.5 591.2344 180.28125Q591.7031 180.04688 592.28125 180.04688Q592.75 180.04688 593.125 180.17188Q593.5 180.29688 593.7656 180.57812Q594.03125 180.84375 594.1719 181.28125Q594.3125 181.71875 594.3125 182.34375L594.3125 186.5L593.21875 186.5L593.21875 182.32812Q593.21875 181.82812 593.0781 181.53125Q592.9375 181.23438 592.65625 181.09375Q592.375 180.95312 591.9531 180.95312Q591.5469 180.95312 591.21875 181.125Q590.8906 181.29688 590.65625 181.59375Q590.4219 181.89062 590.28125 182.28125Q590.15625 182.65625 590.15625 183.09375ZM598.9531 186.625Q598.2969 186.625 597.75 186.40625Q597.21875 186.17188 596.8281 185.76562Q596.4531 185.34375 596.25 184.78125Q596.0469 184.21875 596.0469 183.54688L596.0469 183.3125Q596.0469 182.53125 596.2656 181.92188Q596.5 181.3125 596.8906 180.89062Q597.28125 180.46875 597.78125 180.26562Q598.28125 180.04688 598.8125 180.04688Q599.5 180.04688 599.9844 180.28125Q600.4844 180.51562 600.7969 180.9375Q601.125 181.34375 601.2656 181.92188Q601.4219 182.48438 601.4219 183.14062L601.4219 183.64062L596.6875 183.64062L596.6875 182.75L600.34375 182.75L600.34375 182.67188Q600.3125 182.25 600.15625 181.85938Q600.0156 181.45312 599.6875 181.20312Q599.375 180.9375 598.8125 180.9375Q598.4531 180.9375 598.1406 181.09375Q597.8281 181.25 597.59375 181.5625Q597.375 181.85938 597.25 182.29688Q597.1406 182.73438 597.1406 183.3125L597.1406 183.54688Q597.1406 184.0 597.2656 184.40625Q597.3906 184.79688 597.625 185.09375Q597.875 185.39062 598.21875 185.5625Q598.5781 185.73438 599.0156 185.73438Q599.59375 185.73438 599.9844 185.5Q600.3906 185.26562 600.6875 184.875L601.34375 185.39062Q601.1406 185.70312 600.8125 185.98438Q600.5 186.26562 600.03125 186.45312Q599.5781 186.625 598.9531 186.625ZM603.40625 181.51562L603.40625 186.5L602.3281 186.5L602.3281 180.15625L603.3594 180.15625L603.40625 181.51562ZM603.15625 183.09375L602.7031 183.07812Q602.7031 182.42188 602.8906 181.875Q603.0781 181.3125 603.4219 180.90625Q603.7656 180.5 604.2344 180.28125Q604.7031 180.04688 605.28125 180.04688Q605.75 180.04688 606.125 180.17188Q606.5 180.29688 606.7656 180.57812Q607.03125 180.84375 607.1719 181.28125Q607.3125 181.71875 607.3125 182.34375L607.3125 186.5L606.21875 186.5L606.21875 182.32812Q606.21875 181.82812 606.0781 181.53125Q605.9375 181.23438 605.65625 181.09375Q605.375 180.95312 604.9531 180.95312Q604.5469 180.95312 604.21875 181.125Q603.8906 181.29688 603.65625 181.59375Q603.4219 181.89062 603.28125 182.28125Q603.15625 182.65625 603.15625 183.09375Z" fill-rule="nonzero"/><path stroke="#000000" stroke-width="1.0" stroke-linecap="butt" d="M399.0 290.0L563.0 385.0" fill-rule="nonzero"/><path fill="#000000" d="M555.59375 399.5625L555.59375 399.4375Q555.59375 398.6875 555.75 398.07812Q555.9219 397.45312 556.2344 397.0Q556.5469 396.54688 557.0 396.29688Q557.46875 396.04688 558.0625 396.04688Q558.5156 396.04688 558.875 396.1875Q559.25 396.3125 559.53125 396.57812Q559.8125 396.82812 560.0156 397.20312Q560.21875 397.57812 560.34375 398.0625Q560.46875 398.53125 560.5156 399.09375L560.5156 399.57812Q560.4531 400.28125 560.2656 400.84375Q560.09375 401.40625 559.7969 401.8125Q559.5 402.20312 559.0625 402.42188Q558.6406 402.625 558.0469 402.625Q557.46875 402.625 557.0 402.40625Q556.5469 402.17188 556.2344 401.76562Q555.9219 401.34375 555.75 400.79688Q555.59375 400.23438 555.59375 399.5625ZM556.6719 399.4375L556.6719 399.5625Q556.6719 400.01562 556.7656 400.40625Q556.8594 400.79688 557.0469 401.09375Q557.25 401.39062 557.5625 401.5625Q557.8906 401.73438 558.3281 401.73438Q558.75 401.73438 559.0469 401.5625Q559.3594 401.375 559.5625 401.07812Q559.78125 400.78125 559.90625 400.39062Q560.0469 400.0 560.1406 399.59375L560.1406 399.20312Q560.0781 398.76562 559.9375 398.375Q559.8125 397.96875 559.59375 397.64062Q559.3906 397.3125 559.0781 397.125Q558.7656 396.9375 558.3281 396.9375Q557.8906 396.9375 557.5781 397.14062Q557.2656 397.32812 557.0625 397.67188Q556.8594 398.01562 556.7656 398.48438Q556.6719 398.9375 556.6719 399.4375ZM559.9844 396.15625L560.90625 396.15625L560.90625 400.76562Q560.90625 401.04688 560.9375 401.21875Q560.96875 401.375 561.03125 401.48438Q561.1094 401.57812 561.1875 401.625Q561.28125 401.65625 561.375 401.65625Q561.4219 401.65625 561.46875 401.64062Q561.53125 401.625 561.5625 401.60938L561.7031 402.42188Q561.5156 402.54688 561.34375 402.57812Q561.1719 402.625 560.9844 402.625Q560.7031 402.625 560.4844 402.51562Q560.28125 402.42188 560.125 402.20312Q559.96875 401.98438 559.8906 401.625Q559.8125 401.26562 559.8125 400.76562L559.8125 397.53125L559.9844 396.15625ZM565.0781 398.42188L565.0781 399.3125L562.21875 399.3125L562.21875 398.42188L565.0781 398.42188ZM571.5625 397.64062L571.5625 398.5625L566.9531 398.5625L566.9531 397.64062L571.5625 397.64062ZM567.125 393.96875L567.125 402.5L565.9844 402.5L565.9844 393.96875L567.125 393.96875ZM572.5469 393.96875L572.5469 402.5L571.4219 402.5L571.4219 393.96875L572.5469 393.96875ZM578.7031 401.03125L578.7031 396.15625L579.7969 396.15625L579.7969 402.5L578.7656 402.5L578.7031 401.03125ZM578.90625 399.70312L579.3594 399.6875Q579.3594 400.3125 579.21875 400.85938Q579.09375 401.39062 578.7969 401.78125Q578.5156 402.17188 578.03125 402.40625Q577.5625 402.625 576.8906 402.625Q576.4219 402.625 576.03125 402.48438Q575.65625 402.34375 575.375 402.0625Q575.1094 401.78125 574.9531 401.32812Q574.7969 400.875 574.7969 400.25L574.7969 396.15625L575.8906 396.15625L575.8906 400.26562Q575.8906 400.6875 575.9844 400.96875Q576.0781 401.25 576.25 401.40625Q576.4219 401.5625 576.625 401.64062Q576.8281 401.70312 577.0469 401.70312Q577.75 401.70312 578.1406 401.4375Q578.5469 401.15625 578.71875 400.70312Q578.90625 400.25 578.90625 399.70312ZM582.90625 397.42188L582.90625 402.5L581.8125 402.5L581.8125 396.15625L582.84375 396.15625L582.90625 397.42188ZM582.6875 399.09375L582.1719 399.07812Q582.1875 398.42188 582.34375 397.875Q582.5156 397.3125 582.8281 396.90625Q583.15625 396.5 583.6406 396.28125Q584.125 396.04688 584.75 396.04688Q585.2031 396.04688 585.5781 396.17188Q585.9531 396.29688 586.21875 396.5625Q586.5 396.82812 586.6406 397.25Q586.7969 397.67188 586.7969 398.28125L586.7969 402.5L585.71875 402.5L585.71875 398.32812Q585.71875 397.82812 585.5469 397.53125Q585.3906 397.23438 585.0781 397.09375Q584.78125 396.95312 584.3594 396.95312Q583.8906 396.95312 583.5625 397.125Q583.2344 397.29688 583.0469 397.59375Q582.8594 397.89062 582.7656 398.28125Q582.6875 398.65625 582.6875 399.09375ZM586.7969 398.48438L586.0625 398.71875Q586.0625 398.1875 586.2344 397.71875Q586.40625 397.23438 586.71875 396.85938Q587.0469 396.48438 587.5156 396.26562Q587.9844 396.04688 588.5781 396.04688Q589.09375 396.04688 589.4844 396.1875Q589.8906 396.3125 590.15625 396.59375Q590.4219 396.875 590.5625 397.3125Q590.7031 397.73438 590.7031 398.32812L590.7031 402.5L589.625 402.5L589.625 398.32812Q589.625 397.78125 589.4531 397.5Q589.28125 397.20312 588.9844 397.07812Q588.6875 396.95312 588.2656 396.95312Q587.90625 396.95312 587.625 397.07812Q587.3594 397.20312 587.1719 397.42188Q586.9844 397.625 586.8906 397.90625Q586.7969 398.1875 586.7969 398.48438ZM596.7031 401.03125L596.7031 396.15625L597.7969 396.15625L597.7969 402.5L596.7656 402.5L596.7031 401.03125ZM596.90625 399.70312L597.3594 399.6875Q597.3594 400.3125 597.21875 400.85938Q597.09375 401.39062 596.7969 401.78125Q596.5156 402.17188 596.03125 402.40625Q595.5625 402.625 594.8906 402.625Q594.4219 402.625 594.03125 402.48438Q593.65625 402.34375 593.375 402.0625Q593.1094 401.78125 592.9531 401.32812Q592.7969 400.875 592.7969 400.25L592.7969 396.15625L593.8906 396.15625L593.8906 400.26562Q593.8906 400.6875 593.9844 400.96875Q594.0781 401.25 594.25 401.40625Q594.4219 401.5625 594.625 401.64062Q594.8281 401.70312 595.0469 401.70312Q595.75 401.70312 596.1406 401.4375Q596.5469 401.15625 596.71875 400.70312Q596.90625 400.25 596.90625 399.70312ZM601.0 393.5L601.0 402.5L599.9219 402.5L599.9219 393.5L601.0 393.5ZM605.4531 402.625Q604.7969 402.625 604.25 402.40625Q603.71875 402.17188 603.3281 401.76562Q602.9531 401.34375 602.75 400.78125Q602.5469 400.21875 602.5469 399.54688L602.5469 399.3125Q602.5469 398.53125 602.7656 397.92188Q603.0 397.3125 603.3906 396.89062Q603.78125 396.46875 604.28125 396.26562Q604.78125 396.04688 605.3125 396.04688Q606.0 396.04688 606.4844 396.28125Q606.9844 396.51562 607.2969 396.9375Q607.625 397.34375 607.7656 397.92188Q607.9219 398.48438 607.9219 399.14062L607.9219 399.64062L603.1875 399.64062L603.1875 398.75L606.84375 398.75L606.84375 398.67188Q606.8125 398.25 606.65625 397.85938Q606.5156 397.45312 606.1875 397.20312Q605.875 396.9375 605.3125 396.9375Q604.9531 396.9375 604.6406 397.09375Q604.3281 397.25 604.09375 397.5625Q603.875 397.85938 603.75 398.29688Q603.6406 398.73438 603.6406 399.3125L603.6406 399.54688Q603.6406 400.0 603.7656 400.40625Q603.8906 400.79688 604.125 401.09375Q604.375 401.39062 604.71875 401.5625Q605.0781 401.73438 605.5156 401.73438Q606.09375 401.73438 606.4844 401.5Q606.8906 401.26562 607.1875 400.875L607.84375 401.39062Q607.6406 401.70312 607.3125 401.98438Q607.0 402.26562 606.53125 402.45312Q606.0781 402.625 605.4531 402.625ZM609.90625 397.51562L609.90625 402.5L608.8281 402.5L608.8281 396.15625L609.8594 396.15625L609.90625 397.51562ZM609.65625 399.09375L609.2031 399.07812Q609.2031 398.42188 609.3906 397.875Q609.5781 397.3125 609.9219 396.90625Q610.2656 396.5 610.7344 396.28125Q611.2031 396.04688 611.78125 396.04688Q612.25 396.04688 612.625 396.17188Q613.0 396.29688 613.2656 396.57812Q613.53125 396.84375 613.6719 397.28125Q613.8125 397.71875 613.8125 398.34375L613.8125 402.5L612.71875 402.5L612.71875 398.32812Q612.71875 397.82812 612.5781 397.53125Q612.4375 397.23438 612.15625 397.09375Q611.875 396.95312 611.4531 396.95312Q611.0469 396.95312 610.71875 397.125Q610.3906 397.29688 610.15625 397.59375Q609.9219 397.89062 609.78125 398.28125Q609.65625 398.65625 609.65625 399.09375Z" fill-rule="nonzero"/><path stroke="#000000" stroke-width="1.0" stroke-linecap="butt" d="M399.0 290.0L399.0 479.0" fill-rule="nonzero"/><path fill="#000000" d="M380.84375 500.96875L381.9375 500.96875L384.73438 507.92188L387.53125 500.96875L388.625 500.96875L385.15625 509.5L384.3125 509.5L380.84375 500.96875ZM380.48438 500.96875L381.45312 500.96875L381.60938 506.17188L381.60938 509.5L380.48438 509.5L380.48438 500.96875ZM388.01562 500.96875L388.98438 500.96875L388.98438 509.5L387.85938 509.5L387.85938 506.17188L388.01562 500.96875ZM392.10938 508.84375L393.875 503.15625L395.03125 503.15625L392.48438 510.48438Q392.40625 510.71875 392.25 510.98438Q392.10938 511.26562 391.89062 511.5Q391.67188 511.75 391.35938 511.90625Q391.04688 512.0625 390.60938 512.0625Q390.48438 512.0625 390.28125 512.0156Q390.07812 511.98438 390.0 511.96875L390.0 511.09375Q390.04688 511.09375 390.14062 511.09375Q390.25 511.10938 390.28125 511.10938Q390.65625 511.10938 390.90625 511.01562Q391.17188 510.92188 391.34375 510.6875Q391.53125 510.46875 391.65625 510.07812L392.10938 508.84375ZM390.8125 503.15625L392.45312 508.07812L392.73438 509.21875L391.96875 509.625L389.625 503.15625L390.8125 503.15625ZM397.40625 504.15625L397.40625 509.5L396.32812 509.5L396.32812 503.15625L397.375 503.15625L397.40625 504.15625ZM399.39062 503.125L399.39062 504.125Q399.25 504.10938 399.125 504.09375Q399.01562 504.07812 398.85938 504.07812Q398.48438 504.07812 398.1875 504.20312Q397.90625 504.3125 397.70312 504.53125Q397.51562 504.73438 397.39062 505.03125Q397.28125 505.32812 397.25 505.67188L396.9375 505.84375Q396.9375 505.26562 397.04688 504.76562Q397.17188 504.26562 397.40625 503.875Q397.65625 503.48438 398.01562 503.26562Q398.39062 503.04688 398.90625 503.04688Q399.03125 503.04688 399.17188 503.07812Q399.32812 503.09375 399.39062 503.125ZM402.85938 508.71875Q403.25 508.71875 403.57812 508.5625Q403.90625 508.40625 404.10938 508.14062Q404.32812 507.85938 404.35938 507.5L405.39062 507.5Q405.35938 508.0625 405.0 508.54688Q404.65625 509.03125 404.09375 509.32812Q403.53125 509.625 402.85938 509.625Q402.15625 509.625 401.625 509.375Q401.09375 509.10938 400.73438 508.67188Q400.39062 508.23438 400.21875 507.67188Q400.04688 507.09375 400.04688 506.45312L400.04688 506.20312Q400.04688 505.5625 400.21875 505.0Q400.39062 504.42188 400.73438 503.98438Q401.09375 503.54688 401.625 503.29688Q402.15625 503.04688 402.85938 503.04688Q403.60938 503.04688 404.15625 503.34375Q404.71875 503.64062 405.03125 504.17188Q405.35938 504.6875 405.39062 505.34375L404.35938 505.34375Q404.32812 504.95312 404.14062 504.64062Q403.95312 504.3125 403.625 504.125Q403.29688 503.9375 402.85938 503.9375Q402.35938 503.9375 402.01562 504.14062Q401.6875 504.32812 401.48438 504.65625Q401.29688 504.98438 401.20312 505.39062Q401.125 505.79688 401.125 506.20312L401.125 506.45312Q401.125 506.875 401.20312 507.28125Q401.29688 507.67188 401.48438 508.0Q401.6875 508.32812 402.01562 508.53125Q402.35938 508.71875 402.85938 508.71875ZM408.95312 509.625Q408.29688 509.625 407.75 509.40625Q407.21875 509.17188 406.82812 508.76562Q406.45312 508.34375 406.25 507.78125Q406.04688 507.21875 406.04688 506.54688L406.04688 506.3125Q406.04688 505.53125 406.26562 504.92188Q406.5 504.3125 406.89062 503.89062Q407.28125 503.46875 407.78125 503.26562Q408.28125 503.04688 408.8125 503.04688Q409.5 503.04688 409.98438 503.28125Q410.48438 503.51562 410.79688 503.9375Q411.125 504.34375 411.26562 504.92188Q411.42188 505.48438 411.42188 506.14062L411.42188 506.64062L406.6875 506.64062L406.6875 505.75L410.34375 505.75L410.34375 505.67188Q410.3125 505.25 410.15625 504.85938Q410.01562 504.45312 409.6875 504.20312Q409.375 503.9375 408.8125 503.9375Q408.45312 503.9375 408.14062 504.09375Q407.82812 504.25 407.59375 504.5625Q407.375 504.85938 407.25 505.29688Q407.14062 505.73438 407.14062 506.3125L407.14062 506.54688Q407.14062 507.0 407.26562 507.40625Q407.39062 507.79688 407.625 508.09375Q407.875 508.39062 408.21875 508.5625Q408.57812 508.73438 409.01562 508.73438Q409.59375 508.73438 409.98438 508.5Q410.39062 508.26562 410.6875 507.875L411.34375 508.39062Q411.14062 508.70312 410.8125 508.98438Q410.5 509.26562 410.03125 509.45312Q409.57812 509.625 408.95312 509.625ZM413.40625 504.51562L413.40625 509.5L412.32812 509.5L412.32812 503.15625L413.35938 503.15625L413.40625 504.51562ZM413.15625 506.09375L412.70312 506.07812Q412.70312 505.42188 412.89062 504.875Q413.07812 504.3125 413.42188 503.90625Q413.76562 503.5 414.23438 503.28125Q414.70312 503.04688 415.28125 503.04688Q415.75 503.04688 416.125 503.17188Q416.5 503.29688 416.76562 503.57812Q417.03125 503.84375 417.17188 504.28125Q417.3125 504.71875 417.3125 505.34375L417.3125 509.5L416.21875 509.5L416.21875 505.32812Q416.21875 504.82812 416.07812 504.53125Q415.9375 504.23438 415.65625 504.09375Q415.375 503.95312 414.95312 503.95312Q414.54688 503.95312 414.21875 504.125Q413.89062 504.29688 413.65625 504.59375Q413.42188 504.89062 413.28125 505.28125Q413.15625 505.65625 413.15625 506.09375Z" fill-rule="nonzero"/><path stroke="#000000" stroke-width="1.0" stroke-linecap="butt" d="M399.0 290.0L235.0 385.0" fill-rule="nonzero"/><path fill="#000000" d="M197.67188 401.57812L197.67188 402.5L193.40625 402.5L193.40625 401.57812L197.67188 401.57812ZM193.625 393.96875L193.625 402.5L192.48438 402.5L192.48438 393.96875L193.625 393.96875ZM199.5 396.15625L199.5 402.5L198.42188 402.5L198.42188 396.15625L199.5 396.15625ZM198.32812 394.48438Q198.32812 394.21875 198.48438 394.03125Q198.65625 393.84375 198.96875 393.84375Q199.28125 393.84375 199.4375 394.03125Q199.60938 394.21875 199.60938 394.48438Q199.60938 394.73438 199.4375 394.92188Q199.28125 395.09375 198.96875 395.09375Q198.65625 395.09375 198.48438 394.92188Q198.32812 394.73438 198.32812 394.48438ZM202.40625 397.51562L202.40625 402.5L201.32812 402.5L201.32812 396.15625L202.35938 396.15625L202.40625 397.51562ZM202.15625 399.09375L201.70312 399.07812Q201.70312 398.42188 201.89062 397.875Q202.07812 397.3125 202.42188 396.90625Q202.76562 396.5 203.23438 396.28125Q203.70312 396.04688 204.28125 396.04688Q204.75 396.04688 205.125 396.17188Q205.5 396.29688 205.76562 396.57812Q206.03125 396.84375 206.17188 397.28125Q206.3125 397.71875 206.3125 398.34375L206.3125 402.5L205.21875 402.5L205.21875 398.32812Q205.21875 397.82812 205.07812 397.53125Q204.9375 397.23438 204.65625 397.09375Q204.375 396.95312 203.95312 396.95312Q203.54688 396.95312 203.21875 397.125Q202.89062 397.29688 202.65625 397.59375Q202.42188 397.89062 202.28125 398.28125Q202.15625 398.65625 202.15625 399.09375ZM212.0625 401.42188L212.0625 398.15625Q212.0625 397.78125 211.90625 397.5Q211.76562 397.21875 211.46875 397.07812Q211.17188 396.92188 210.73438 396.92188Q210.3125 396.92188 210.0 397.0625Q209.70312 397.20312 209.53125 397.4375Q209.35938 397.65625 209.35938 397.92188L208.28125 397.92188Q208.28125 397.57812 208.45312 397.25Q208.625 396.90625 208.95312 396.64062Q209.28125 396.35938 209.75 396.20312Q210.21875 396.04688 210.79688 396.04688Q211.48438 396.04688 212.01562 396.28125Q212.54688 396.51562 212.84375 396.98438Q213.15625 397.45312 213.15625 398.15625L213.15625 401.10938Q213.15625 401.4375 213.20312 401.79688Q213.26562 402.14062 213.375 402.40625L213.375 402.5L212.23438 402.5Q212.15625 402.3125 212.10938 402.0Q212.0625 401.6875 212.0625 401.42188ZM212.25 398.65625L212.26562 399.42188L211.17188 399.42188Q210.70312 399.42188 210.34375 399.5Q209.98438 399.5625 209.73438 399.71875Q209.48438 399.85938 209.35938 400.07812Q209.23438 400.29688 209.23438 400.59375Q209.23438 400.89062 209.35938 401.14062Q209.5 401.375 209.76562 401.53125Q210.04688 401.67188 210.4375 401.67188Q210.9375 401.67188 211.3125 401.46875Q211.70312 401.25 211.92188 400.95312Q212.15625 400.64062 212.17188 400.34375L212.64062 400.875Q212.59375 401.10938 212.40625 401.42188Q212.23438 401.71875 211.92188 402.0Q211.625 402.26562 211.20312 402.45312Q210.79688 402.625 210.28125 402.625Q209.64062 402.625 209.15625 402.375Q208.67188 402.10938 208.40625 401.6875Q208.14062 401.26562 208.14062 400.73438Q208.14062 400.21875 208.32812 399.84375Q208.53125 399.45312 208.90625 399.1875Q209.28125 398.92188 209.8125 398.79688Q210.34375 398.65625 211.0 398.65625L212.25 398.65625ZM216.5 393.5L216.5 402.5L215.42188 402.5L215.42188 393.5L216.5 393.5ZM218.04688 399.40625L218.04688 399.26562Q218.04688 398.57812 218.23438 398.0Q218.4375 397.40625 218.8125 396.96875Q219.1875 396.53125 219.71875 396.29688Q220.25 396.04688 220.92188 396.04688Q221.57812 396.04688 222.10938 396.29688Q222.65625 396.53125 223.03125 396.96875Q223.40625 397.40625 223.60938 398.0Q223.8125 398.57812 223.8125 399.26562L223.8125 399.40625Q223.8125 400.07812 223.60938 400.67188Q223.40625 401.25 223.03125 401.6875Q222.65625 402.125 222.125 402.375Q221.59375 402.625 220.92188 402.625Q220.26562 402.625 219.71875 402.375Q219.1875 402.125 218.8125 401.6875Q218.4375 401.25 218.23438 400.67188Q218.04688 400.07812 218.04688 399.40625ZM219.125 399.26562L219.125 399.40625Q219.125 399.875 219.23438 400.29688Q219.34375 400.71875 219.5625 401.04688Q219.79688 401.35938 220.14062 401.54688Q220.48438 401.71875 220.92188 401.71875Q221.375 401.71875 221.70312 401.54688Q222.04688 401.35938 222.26562 401.04688Q222.5 400.71875 222.60938 400.29688Q222.71875 399.875 222.71875 399.40625L222.71875 399.26562Q222.71875 398.79688 222.60938 398.375Q222.5 397.95312 222.26562 397.64062Q222.04688 397.3125 221.70312 397.125Q221.375 396.9375 220.92188 396.9375Q220.46875 396.9375 220.125 397.125Q219.79688 397.3125 219.5625 397.64062Q219.34375 397.95312 219.23438 398.375Q219.125 398.79688 219.125 399.26562ZM225.04688 399.40625L225.04688 399.26562Q225.04688 398.57812 225.23438 398.0Q225.4375 397.40625 225.8125 396.96875Q226.1875 396.53125 226.71875 396.29688Q227.25 396.04688 227.92188 396.04688Q228.57812 396.04688 229.10938 396.29688Q229.65625 396.53125 230.03125 396.96875Q230.40625 397.40625 230.60938 398.0Q230.8125 398.57812 230.8125 399.26562L230.8125 399.40625Q230.8125 400.07812 230.60938 400.67188Q230.40625 401.25 230.03125 401.6875Q229.65625 402.125 229.125 402.375Q228.59375 402.625 227.92188 402.625Q227.26562 402.625 226.71875 402.375Q226.1875 402.125 225.8125 401.6875Q225.4375 401.25 225.23438 400.67188Q225.04688 400.07812 225.04688 399.40625ZM226.125 399.26562L226.125 399.40625Q226.125 399.875 226.23438 400.29688Q226.34375 400.71875 226.5625 401.04688Q226.79688 401.35938 227.14062 401.54688Q227.48438 401.71875 227.92188 401.71875Q228.375 401.71875 228.70312 401.54688Q229.04688 401.35938 229.26562 401.04688Q229.5 400.71875 229.60938 400.29688Q229.71875 399.875 229.71875 399.40625L229.71875 399.26562Q229.71875 398.79688 229.60938 398.375Q229.5 397.95312 229.26562 397.64062Q229.04688 397.3125 228.70312 397.125Q228.375 396.9375 227.92188 396.9375Q227.46875 396.9375 227.125 397.125Q226.79688 397.3125 226.5625 397.64062Q226.34375 397.95312 226.23438 398.375Q226.125 398.79688 226.125 399.26562ZM233.5 393.5L233.5 402.5L232.42188 402.5L232.42188 393.5L233.5 393.5Z" fill-rule="nonzero"/><path stroke="#000000" stroke-width="1.0" stroke-linecap="butt" d="M399.0 290.0L235.0 195.0" fill-rule="nonzero"/><path fill="#000000" d="M195.03125 184.34375Q195.03125 184.04688 194.9375 183.8125Q194.85938 183.57812 194.625 183.39062Q194.40625 183.20312 194.0 183.03125Q193.60938 182.85938 193.01562 182.6875Q192.375 182.5 191.85938 182.28125Q191.35938 182.04688 190.98438 181.75Q190.625 181.4375 190.4375 181.0625Q190.25 180.67188 190.25 180.17188Q190.25 179.67188 190.45312 179.25Q190.65625 178.82812 191.03125 178.51562Q191.42188 178.20312 191.95312 178.03125Q192.48438 177.84375 193.14062 177.84375Q194.10938 177.84375 194.78125 178.21875Q195.45312 178.57812 195.79688 179.17188Q196.15625 179.76562 196.15625 180.42188L195.03125 180.42188Q195.03125 179.95312 194.8125 179.57812Q194.60938 179.20312 194.1875 179.0Q193.78125 178.78125 193.14062 178.78125Q192.54688 178.78125 192.14062 178.96875Q191.75 179.14062 191.5625 179.45312Q191.375 179.76562 191.375 180.15625Q191.375 180.42188 191.48438 180.65625Q191.60938 180.875 191.84375 181.0625Q192.09375 181.25 192.46875 181.40625Q192.84375 181.5625 193.375 181.70312Q194.09375 181.90625 194.625 182.17188Q195.15625 182.42188 195.5 182.73438Q195.84375 183.04688 196.0 183.4375Q196.17188 183.82812 196.17188 184.32812Q196.17188 184.85938 195.95312 185.28125Q195.75 185.70312 195.35938 186.0Q194.96875 186.29688 194.42188 186.46875Q193.875 186.625 193.20312 186.625Q192.60938 186.625 192.03125 186.45312Q191.46875 186.28125 191.0 185.95312Q190.53125 185.625 190.25 185.15625Q189.96875 184.67188 189.96875 184.03125L191.09375 184.03125Q191.09375 184.46875 191.26562 184.78125Q191.4375 185.09375 191.73438 185.29688Q192.03125 185.5 192.40625 185.60938Q192.78125 185.70312 193.20312 185.70312Q193.79688 185.70312 194.20312 185.54688Q194.60938 185.375 194.8125 185.07812Q195.03125 184.76562 195.03125 184.34375ZM197.04688 183.40625L197.04688 183.26562Q197.04688 182.57812 197.23438 182.0Q197.4375 181.40625 197.8125 180.96875Q198.1875 180.53125 198.71875 180.29688Q199.25 180.04688 199.92188 180.04688Q200.57812 180.04688 201.10938 180.29688Q201.65625 180.53125 202.03125 180.96875Q202.40625 181.40625 202.60938 182.0Q202.8125 182.57812 202.8125 183.26562L202.8125 183.40625Q202.8125 184.07812 202.60938 184.67188Q202.40625 185.25 202.03125 185.6875Q201.65625 186.125 201.125 186.375Q200.59375 186.625 199.92188 186.625Q199.26562 186.625 198.71875 186.375Q198.1875 186.125 197.8125 185.6875Q197.4375 185.25 197.23438 184.67188Q197.04688 184.07812 197.04688 183.40625ZM198.125 183.26562L198.125 183.40625Q198.125 183.875 198.23438 184.29688Q198.34375 184.71875 198.5625 185.04688Q198.79688 185.35938 199.14062 185.54688Q199.48438 185.71875 199.92188 185.71875Q200.375 185.71875 200.70312 185.54688Q201.04688 185.35938 201.26562 185.04688Q201.5 184.71875 201.60938 184.29688Q201.71875 183.875 201.71875 183.40625L201.71875 183.26562Q201.71875 182.79688 201.60938 182.375Q201.5 181.95312 201.26562 181.64062Q201.04688 181.3125 200.70312 181.125Q200.375 180.9375 199.92188 180.9375Q199.46875 180.9375 199.125 181.125Q198.79688 181.3125 198.5625 181.64062Q198.34375 181.95312 198.23438 182.375Q198.125 182.79688 198.125 183.26562ZM205.40625 181.51562L205.40625 186.5L204.32812 186.5L204.32812 180.15625L205.35938 180.15625L205.40625 181.51562ZM205.15625 183.09375L204.70312 183.07812Q204.70312 182.42188 204.89062 181.875Q205.07812 181.3125 205.42188 180.90625Q205.76562 180.5 206.23438 180.28125Q206.70312 180.04688 207.28125 180.04688Q207.75 180.04688 208.125 180.17188Q208.5 180.29688 208.76562 180.57812Q209.03125 180.84375 209.17188 181.28125Q209.3125 181.71875 209.3125 182.34375L209.3125 186.5L208.21875 186.5L208.21875 182.32812Q208.21875 181.82812 208.07812 181.53125Q207.9375 181.23438 207.65625 181.09375Q207.375 180.95312 206.95312 180.95312Q206.54688 180.95312 206.21875 181.125Q205.89062 181.29688 205.65625 181.59375Q205.42188 181.89062 205.28125 182.28125Q205.15625 182.65625 205.15625 183.09375ZM215.01562 184.8125Q215.01562 184.57812 214.90625 184.375Q214.8125 184.17188 214.5 184.01562Q214.1875 183.84375 213.5625 183.71875Q213.03125 183.60938 212.60938 183.46875Q212.1875 183.3125 211.89062 183.09375Q211.59375 182.875 211.4375 182.57812Q211.28125 182.28125 211.28125 181.89062Q211.28125 181.51562 211.4375 181.1875Q211.60938 180.84375 211.90625 180.59375Q212.21875 180.32812 212.65625 180.1875Q213.09375 180.04688 213.625 180.04688Q214.39062 180.04688 214.92188 180.3125Q215.46875 180.57812 215.75 181.03125Q216.03125 181.48438 216.03125 182.01562L214.95312 182.01562Q214.95312 181.76562 214.79688 181.51562Q214.64062 181.26562 214.34375 181.10938Q214.04688 180.9375 213.625 180.9375Q213.17188 180.9375 212.89062 181.07812Q212.60938 181.20312 212.48438 181.42188Q212.35938 181.625 212.35938 181.85938Q212.35938 182.04688 212.42188 182.1875Q212.48438 182.3125 212.64062 182.4375Q212.79688 182.54688 213.07812 182.65625Q213.375 182.75 213.82812 182.84375Q214.60938 183.01562 215.10938 183.26562Q215.60938 183.51562 215.85938 183.875Q216.10938 184.21875 216.10938 184.73438Q216.10938 185.15625 215.92188 185.5Q215.75 185.84375 215.42188 186.09375Q215.10938 186.34375 214.65625 186.48438Q214.20312 186.625 213.65625 186.625Q212.8125 186.625 212.23438 186.32812Q211.65625 186.01562 211.35938 185.54688Q211.0625 185.0625 211.0625 184.54688L212.14062 184.54688Q212.17188 184.98438 212.40625 185.25Q212.64062 185.51562 212.96875 185.625Q213.3125 185.71875 213.65625 185.71875Q214.09375 185.71875 214.39062 185.60938Q214.70312 185.48438 214.85938 185.28125Q215.01562 185.07812 215.01562 184.8125ZM219.98438 180.15625L219.98438 180.98438L216.54688 180.98438L216.54688 180.15625L219.98438 180.15625ZM217.71875 178.625L218.79688 178.625L218.79688 184.92188Q218.79688 185.25 218.89062 185.42188Q219.0 185.57812 219.15625 185.64062Q219.3125 185.6875 219.5 185.6875Q219.625 185.6875 219.76562 185.65625Q219.92188 185.625 220.0 185.60938L220.01562 186.5Q219.875 186.54688 219.67188 186.57812Q219.46875 186.625 219.17188 186.625Q218.78125 186.625 218.4375 186.46875Q218.10938 186.29688 217.90625 185.9375Q217.71875 185.5625 217.71875 184.92188L217.71875 178.625ZM222.5 180.15625L222.5 186.5L221.42188 186.5L221.42188 180.15625L222.5 180.15625ZM221.32812 178.48438Q221.32812 178.21875 221.48438 178.03125Q221.65625 177.84375 221.96875 177.84375Q222.28125 177.84375 222.4375 178.03125Q222.60938 178.21875 222.60938 178.48438Q222.60938 178.73438 222.4375 178.92188Q222.28125 179.09375 221.96875 179.09375Q221.65625 179.09375 221.48438 178.92188Q221.32812 178.73438 221.32812 178.48438ZM228.4375 180.15625L229.42188 180.15625L229.42188 186.35938Q229.42188 187.20312 229.07812 187.79688Q228.73438 188.39062 228.125 188.6875Q227.53125 189.0 226.73438 189.0Q226.40625 189.0 225.95312 188.89062Q225.51562 188.79688 225.09375 188.54688Q224.67188 188.3125 224.39062 187.90625L224.95312 187.25Q225.35938 187.73438 225.78125 187.92188Q226.21875 188.10938 226.65625 188.10938Q227.17188 188.10938 227.54688 187.90625Q227.92188 187.71875 228.125 187.34375Q228.32812 186.96875 228.32812 186.42188L228.32812 181.54688L228.4375 180.15625ZM224.0625 183.40625L224.0625 183.28125Q224.0625 182.54688 224.23438 181.95312Q224.42188 181.35938 224.73438 180.9375Q225.0625 180.5 225.51562 180.28125Q225.98438 180.04688 226.57812 180.04688Q227.17188 180.04688 227.60938 180.25Q228.0625 180.45312 228.375 180.85938Q228.6875 181.25 228.875 181.8125Q229.0625 182.35938 229.125 183.0625L229.125 183.60938Q229.0625 184.29688 228.875 184.85938Q228.6875 185.42188 228.375 185.8125Q228.0625 186.20312 227.60938 186.42188Q227.15625 186.625 226.5625 186.625Q225.98438 186.625 225.53125 186.39062Q225.07812 186.14062 224.75 185.70312Q224.42188 185.26562 224.23438 184.6875Q224.0625 184.09375 224.0625 183.40625ZM225.15625 183.28125L225.15625 183.40625Q225.15625 183.875 225.25 184.29688Q225.34375 184.70312 225.54688 185.03125Q225.75 185.34375 226.0625 185.53125Q226.39062 185.70312 226.82812 185.70312Q227.35938 185.70312 227.70312 185.46875Q228.0625 185.23438 228.26562 184.85938Q228.48438 184.48438 228.59375 184.04688L228.59375 182.64062Q228.53125 182.3125 228.39062 182.01562Q228.26562 181.71875 228.0625 181.48438Q227.85938 181.23438 227.54688 181.09375Q227.25 180.95312 226.82812 180.95312Q226.39062 180.95312 226.0625 181.14062Q225.75 181.32812 225.54688 181.65625Q225.34375 181.96875 225.25 182.39062Q225.15625 182.79688 225.15625 183.28125ZM233.95312 186.625Q233.29688 186.625 232.75 186.40625Q232.21875 186.17188 231.82812 185.76562Q231.45312 185.34375 231.25 184.78125Q231.04688 184.21875 231.04688 183.54688L231.04688 183.3125Q231.04688 182.53125 231.26562 181.92188Q231.5 181.3125 231.89062 180.89062Q232.28125 180.46875 232.78125 180.26562Q233.28125 180.04688 233.8125 180.04688Q234.5 180.04688 234.98438 180.28125Q235.48438 180.51562 235.79688 180.9375Q236.125 181.34375 236.26562 181.92188Q236.42188 182.48438 236.42188 183.14062L236.42188 183.64062L231.6875 183.64062L231.6875 182.75L235.34375 182.75L235.34375 182.67188Q235.3125 182.25 235.15625 181.85938Q235.01562 181.45312 234.6875 181.20312Q234.375 180.9375 233.8125 180.9375Q233.45312 180.9375 233.14062 181.09375Q232.82812 181.25 232.59375 181.5625Q232.375 181.85938 232.25 182.29688Q232.14062 182.73438 232.14062 183.3125L232.14062 183.54688Q232.14062 184.0 232.26562 184.40625Q232.39062 184.79688 232.625 185.09375Q232.875 185.39062 233.21875 185.5625Q233.57812 185.73438 234.01562 185.73438Q234.59375 185.73438 234.98438 185.5Q235.39062 185.26562 235.6875 184.875L236.34375 185.39062Q236.14062 185.70312 235.8125 185.98438Q235.5 186.26562 235.03125 186.45312Q234.57812 186.625 233.95312 186.625Z" fill-rule="nonzero"/><path stroke="#000000" stroke-width="1.0" stroke-linecap="butt" d="M399.0 290.0L399.0 101.0" fill-rule="nonzero"/><path stroke="#ff0000" stroke-width="2.0" stroke-linecap="butt" stroke-opacity="0.7019608" stroke-dasharray="8.0,6.0,2.0,6.0" d="M399.0 139.0L503.0 230.0L448.0 318.0L399.0 347.0L355.0 315.0L230.0 192.0Z" fill-rule="nonzero"/><path fill="#ff0000" fill-opacity="0.7019608" d="M405.0 139.0C405.0 142.3137 402.31372 145.0 399.0 145.0C395.68628 145.0 393.0 142.3137 393.0 139.0C393.0 135.6863 395.68628 133.0 399.0 133.0C402.31372 133.0 405.0 135.6863 405.0 139.0Z" fill-rule="nonzero"/><path fill="#ff0000" fill-opacity="0.7019608" d="M509.0 230.0C509.0 233.3137 506.31372 236.0 503.0 236.0C499.68628 236.0 497.0 233.3137 497.0 230.0C497.0 226.6863 499.68628 224.0 503.0 224.0C506.31372 224.0 509.0 226.6863 509.0 230.0Z" fill-rule="nonzero"/><path fill="#ff0000" fill-opacity="0.7019608" d="M454.0 318.0C454.0 321.31372 451.31372 324.0 448.0 324.0C444.68628 324.0 442.0 321.31372 442.0 318.0C442.0 314.68628 444.68628 312.0 448.0 312.0C451.31372 312.0 454.0 314.68628 454.0 318.0Z" fill-rule="nonzero"/><path fill="#ff0000" fill-opacity="0.7019608" d="M405.0 347.0C405.0 350.31372 402.31372 353.0 399.0 353.0C395.68628 353.0 393.0 350.31372 393.0 347.0C393.0 343.68628 395.68628 341.0 399.0 341.0C402.31372 341.0 405.0 343.68628 405.0 347.0Z" fill-rule="nonzero"/><path fill="#ff0000" fill-opacity="0.7019608" d="M361.0 315.0C361.0 318.31372 358.31372 321.0 355.0 321.0C351.68628 321.0 349.0 318.31372 349.0 315.0C349.0 311.68628 351.68628 309.0 355.0 309.0C358.31372 309.0 361.0 311.68628 361.0 315.0Z" fill-rule="nonzero"/><path fill="#ff0000" fill-opacity="0.7019608" d="M236.0 192.0C236.0 195.3137 233.3137 198.0 230.0 198.0C226.6863 198.0 224.0 195.3137 224.0 192.0C224.0 188.6863 226.6863 186.0 230.0 186.0C233.3137 186.0 236.0 188.6863 236.0 192.0Z" fill-rule="nonzero"/><path fill="#ff0000" fill-opacity="0.7019608" d="M38.9 75.333336C38.9 78.64704 36.213707 81.333336 32.9 81.333336C29.586292 81.333336 26.9 78.64704 26.9 75.333336C26.9 72.01962 29.586292 69.333336 32.9 69.333336C36.213707 69.333336 38.9 72.01962 38.9 75.333336Z" fill-rule="nonzero"/><path fill="#757575" d="M32.0875 45.9L32.0875 33.275L27.36875 33.275L27.36875 31.587502L38.7125 31.587502L38.7125 33.275L33.978127 33.275L33.978127 45.9L32.0875 45.9ZM47.321877 42.55625L49.134377 42.790627Q48.7125 44.36875 47.540627 45.259377Q46.384377 46.134377 44.571877 46.134377Q42.30625 46.134377 40.9625 44.74375Q39.634377 43.3375 39.634377 40.80625Q39.634377 38.18125 40.978127 36.74375Q42.321877 35.290627 44.478127 35.290627Q46.55625 35.290627 47.86875 36.7125Q49.196877 38.11875 49.196877 40.696877Q49.196877 40.853127 49.18125 41.165627L41.446877 41.165627Q41.540627 42.86875 42.415627 43.775Q43.290627 44.68125 44.5875 44.68125Q45.55625 44.68125 46.228127 44.18125Q46.915627 43.665627 47.321877 42.55625ZM41.540627 39.7125L47.3375 39.7125Q47.228127 38.415627 46.68125 37.759377Q45.8375 36.74375 44.49375 36.74375Q43.290627 36.74375 42.4625 37.55625Q41.634377 38.353127 41.540627 39.7125ZM51.196877 45.9L51.196877 35.525L52.775 35.525L52.775 37.103127Q53.384377 35.99375 53.9 35.65Q54.415627 35.290627 55.025 35.290627Q55.915627 35.290627 56.8375 35.853127L56.228127 37.49375Q55.5875 37.103127 54.946877 37.103127Q54.36875 37.103127 53.9 37.4625Q53.446877 37.80625 53.24375 38.415627Q52.9625 39.353127 52.9625 40.4625L52.9625 45.9L51.196877 45.9ZM58.2125 49.86875L58.2125 35.525L59.821877 35.525L59.821877 36.86875Q60.384377 36.0875 61.0875 35.696877Q61.80625 35.290627 62.821877 35.290627Q64.15 35.290627 65.16563 35.978127Q66.18125 36.665627 66.69688 37.915627Q67.22813 39.15 67.22813 40.634377Q67.22813 42.228127 66.65 43.509377Q66.0875 44.775 64.99375 45.4625Q63.9 46.134377 62.696877 46.134377Q61.821877 46.134377 61.11875 45.759377Q60.43125 45.384377 59.978127 44.821877L59.978127 49.86875L58.2125 49.86875ZM59.80625 40.775Q59.80625 42.775 60.61875 43.728127Q61.43125 44.68125 62.5875 44.68125Q63.759377 44.68125 64.5875 43.696877Q65.43125 42.7125 65.43125 40.61875Q65.43125 38.65 64.60313 37.665627Q63.790627 36.665627 62.665627 36.665627Q61.540627 36.665627 60.665627 37.728127Q59.80625 38.775 59.80625 40.775ZM76.32188 42.55625L78.13438 42.790627Q77.7125 44.36875 76.54063 45.259377Q75.38438 46.134377 73.57188 46.134377Q71.30625 46.134377 69.9625 44.74375Q68.63438 43.3375 68.63438 40.80625Q68.63438 38.18125 69.97813 36.74375Q71.32188 35.290627 73.47813 35.290627Q75.55625 35.290627 76.86875 36.7125Q78.19688 38.11875 78.19688 40.696877Q78.19688 40.853127 78.18125 41.165627L70.44688 41.165627Q70.54063 42.86875 71.41563 43.775Q72.29063 44.68125 73.5875 44.68125Q74.55625 44.68125 75.22813 44.18125Q75.91563 43.665627 76.32188 42.55625ZM70.54063 39.7125L76.3375 39.7125Q76.22813 38.415627 75.68125 37.759377Q74.8375 36.74375 73.49375 36.74375Q72.29063 36.74375 71.4625 37.55625Q70.63438 38.353127 70.54063 39.7125ZM80.2125 45.9L80.2125 35.525L81.80625 35.525L81.80625 37.009377Q82.94688 35.290627 85.10313 35.290627Q86.04063 35.290627 86.82188 35.634377Q87.61875 35.9625 88.00938 36.509377Q88.4 37.05625 88.55625 37.80625Q88.65 38.30625 88.65 39.525L88.65 45.9L86.88438 45.9L86.88438 39.5875Q86.88438 38.509377 86.68125 37.978127Q86.47813 37.446877 85.94688 37.134377Q85.43125 36.821877 84.72813 36.821877Q83.60313 36.821877 82.79063 37.540627Q81.97813 38.24375 81.97813 40.228127L81.97813 45.9L80.2125 45.9ZM90.2125 49.86875L90.2125 35.525L91.82188 35.525L91.82188 36.86875Q92.38438 36.0875 93.0875 35.696877Q93.80625 35.290627 94.82188 35.290627Q96.15 35.290627 97.16563 35.978127Q98.18125 36.665627 98.69688 37.915627Q99.22813 39.15 99.22813 40.634377Q99.22813 42.228127 98.65 43.509377Q98.0875 44.775 96.99375 45.4625Q95.9 46.134377 94.69688 46.134377Q93.82188 46.134377 93.11875 45.759377Q92.43125 45.384377 91.97813 44.821877L91.97813 49.86875L90.2125 49.86875ZM91.80625 40.775Q91.80625 42.775 92.61875 43.728127Q93.43125 44.68125 94.5875 44.68125Q95.75938 44.68125 96.5875 43.696877Q97.43125 42.7125 97.43125 40.61875Q97.43125 38.65 96.60313 37.665627Q95.79063 36.665627 94.66563 36.665627Q93.54063 36.665627 92.66563 37.728127Q91.80625 38.775 91.80625 40.775ZM101.19688 45.9L101.19688 35.525L102.775 35.525L102.775 37.103127Q103.38438 35.99375 103.9 35.65Q104.41563 35.290627 105.025 35.290627Q105.91563 35.290627 106.8375 35.853127L106.22813 37.49375Q105.5875 37.103127 104.94688 37.103127Q104.36875 37.103127 103.9 37.4625Q103.44688 37.80625 103.24375 38.415627Q102.9625 39.353127 102.9625 40.4625L102.9625 45.9L101.19688 45.9ZM107.57188 40.7125Q107.57188 37.8375 109.16563 36.446877Q110.50938 35.290627 112.43125 35.290627Q114.57188 35.290627 115.91563 36.696877Q117.275 38.103127 117.275 40.571877Q117.275 42.571877 116.68125 43.728127Q116.0875 44.86875 114.93125 45.509377Q113.79063 46.134377 112.43125 46.134377Q110.24375 46.134377 108.9 44.74375Q107.57188 43.3375 107.57188 40.7125ZM109.36875 40.7125Q109.36875 42.7125 110.22813 43.696877Q111.10313 44.68125 112.43125 44.68125Q113.74375 44.68125 114.60313 43.696877Q115.47813 42.696877 115.47813 40.65Q115.47813 38.728127 114.60313 37.74375Q113.72813 36.74375 112.43125 36.74375Q111.10313 36.74375 110.22813 37.74375Q109.36875 38.728127 109.36875 40.7125ZM119.63438 45.9L119.63438 36.9L118.0875 36.9L118.0875 35.525L119.63438 35.525L119.63438 34.43125Q119.63438 33.384377 119.82188 32.86875Q120.07188 32.18125 120.7125 31.759377Q121.35313 31.337502 122.50938 31.337502Q123.25938 31.337502 124.15 31.509377L123.88438 33.040627Q123.3375 32.946877 122.85313 32.946877Q122.05625 32.946877 121.7125 33.290627Q121.38438 33.634377 121.38438 34.571877L121.38438 35.525L123.41563 35.525L123.41563 36.9L121.38438 36.9L121.38438 45.9L119.63438 45.9ZM125.22813 33.603127L125.22813 31.587502L126.99375 31.587502L126.99375 33.603127L125.22813 33.603127ZM125.22813 45.9L125.22813 35.525L126.99375 35.525L126.99375 45.9L125.22813 45.9ZM129.18124 45.9L129.18124 31.587502L130.93124 31.587502L130.93124 45.9L129.18124 45.9Z" fill-rule="nonzero"/></svg>