<svg version="1.1" viewBox="0.0 0.0 730.0 538.0" fill="none" stroke="none" stroke-linecap="square" stroke-miterlimit="10" width="730" height="538" xmlns:xlink="http://www.w3.org/1999/xlink" xmlns="http://www.w3.org/2000/svg"><path fill="#ffffff" d="M0 0L730.0 0L730.0 538.0L0 538.0L0 0Z" fill-rule="nonzero"/><path fill="#ffffff" d="M26.9 68.833336L703.10004 68.833336L703.10004 511.1L26.9 511.1L26.9 68.833336Z" fill-rule="nonzero"/><path stroke="#cccccc" stroke-width="1.0" stroke-linecap="butt" d="M365.0 290.0C365.0 290.0 365.0 290.0 365.0 290.0C365.0 290.0 365.0 290.0 365.0 290.0C365.0 290.0 365.0 290.0 365.0 290.0C365.0 290.0 365.0 290.0 365.0 290.0" fill-rule="nonzero"/><path fill="#000000" d="M353.0625 282.04688L353.0625 283.35938Q353.0625 284.40625 352.875 285.125Q352.6875 285.84375 352.32812 286.28125Q351.98438 286.71875 351.48438 286.92188Q351.0 287.125 350.375 287.125Q349.89062 287.125 349.46875 287.0Q349.04688 286.875 348.71875 286.60938Q348.39062 286.32812 348.15625 285.89062Q347.92188 285.45312 347.79688 284.82812Q347.67188 284.1875 347.67188 283.35938L347.67188 282.04688Q347.67188 281.0 347.85938 280.29688Q348.0625 279.59375 348.40625 279.15625Q348.76562 278.71875 349.25 278.53125Q349.75 278.34375 350.35938 278.34375Q350.85938 278.34375 351.28125 278.46875Q351.70312 278.59375 352.03125 278.85938Q352.35938 279.10938 352.57812 279.54688Q352.8125 279.96875 352.9375 280.59375Q353.0625 281.21875 353.0625 282.04688ZM351.96875 283.53125L351.96875 281.875Q351.96875 281.29688 351.90625 280.85938Q351.84375 280.42188 351.70312 280.10938Q351.57812 279.79688 351.375 279.60938Q351.1875 279.42188 350.9375 279.32812Q350.6875 279.23438 350.35938 279.23438Q349.98438 279.23438 349.67188 279.375Q349.375 279.51562 349.17188 279.82812Q348.96875 280.14062 348.85938 280.65625Q348.76562 281.15625 348.76562 281.875L348.76562 283.53125Q348.76562 284.10938 348.82812 284.54688Q348.90625 284.98438 349.03125 285.3125Q349.17188 285.625 349.35938 285.82812Q349.5625 286.03125 349.8125 286.125Q350.0625 286.21875 350.375 286.21875Q350.78125 286.21875 351.07812 286.07812Q351.375 285.92188 351.57812 285.59375Q351.78125 285.26562 351.875 284.76562Q351.96875 284.25 351.96875 283.53125ZM355.8125 285.70312L355.8125 286.57812Q355.8125 287.125 355.53125 287.71875Q355.26562 288.3125 354.78125 288.70312L354.17188 288.28125Q354.35938 288.01562 354.48438 287.75Q354.60938 287.48438 354.67188 287.20312Q354.75 286.92188 354.75 286.59375L354.75 285.70312L355.8125 285.70312ZM362.0625 282.04688L362.0625 283.35938Q362.0625 284.40625 361.875 285.125Q361.6875 285.84375 361.32812 286.28125Q360.98438 286.71875 360.48438 286.92188Q360.0 287.125 359.375 287.125Q358.89062 287.125 358.46875 287.0Q358.04688 286.875 357.71875 286.60938Q357.39062 286.32812 357.15625 285.89062Q356.92188 285.45312 356.79688 284.82812Q356.67188 284.1875 356.67188 283.35938L356.67188 282.04688Q356.67188 281.0 356.85938 280.29688Q357.0625 279.59375 357.40625 279.15625Q357.76562 278.71875 358.25 278.53125Q358.75 278.34375 359.35938 278.34375Q359.85938 278.34375 360.28125 278.46875Q360.70312 278.59375 361.03125 278.85938Q361.35938 279.10938 361.57812 279.54688Q361.8125 279.96875 361.9375 280.59375Q362.0625 281.21875 362.0625 282.04688ZM360.96875 283.53125L360.96875 281.875Q360.96875 281.29688 360.90625 280.85938Q360.84375 280.42188 360.70312 280.10938Q360.57812 279.79688 360.375 279.60938Q360.1875 279.42188 359.9375 279.32812Q359.6875 279.23438 359.35938 279.23438Q358.98438 279.23438 358.67188 279.375Q358.375 279.51562 358.17188 279.82812Q357.96875 280.14062 357.85938 280.65625Q357.76562 281.15625 357.76562 281.875L357.76562 283.53125Q357.76562 284.10938 357.82812 284.54688Q357.90625 284.98438 358.03125 285.3125Q358.17188 285.625 358.35938 285.82812Q358.5625 286.03125 358.8125 286.125Q359.0625 286.21875 359.375 286.21875Q359.78125 286.21875 360.07812 286.07812Q360.375 285.92188 360.57812 285.59375Q360.78125 285.26562 360.875 284.76562Q360.96875 284.25 360.96875 283.53125Z" fill-rule="nonzero"/><path stroke="#cccccc" stroke-width="1.0" stroke-linecap="butt" d="M412.28333 290.0C412.28333 263.88614 391.11386 242.71666 365.0 242.71666C338.88614 242.71666 317.71667 263.88614 317.71667 290.0C317.71667 316.11386 338.88614 337.28333 365.0 337.28333C391.11386 337.28333 412.28333 316.11386 412.28333 290.0" fill-rule="nonzero"/><path fill="#000000" d="M353.0625 234.76353L353.0625 236.07603Q353.0625 237.12291 352.875 237.84166Q352.6875 238.56041 352.32812 238.99791Q351.98438 239.43541 351.48438 239.63853Q351.0 239.84166 350.375 239.84166Q349.89062 239.84166 349.46875 239.71666Q349.04688 239.59166 348.71875 239.32603Q348.39062 239.04478 348.15625 238.60728Q347.92188 238.16978 347.79688 237.54478Q347.67188 236.90416 347.67188 236.07603L347.67188 234.76353Q347.67188 233.71666 347.85938 233.01353Q348.0625 232.31041 348.40625 231.87291Q348.76562 231.43541 349.25 231.24791Q349.75 231.06041 350.35938 231.06041Q350.85938 231.06041 351.28125 231.18541Q351.70312 231.31041 352.03125 231.57603Q352.35938 231.82603 352.57812 232.26353Q352.8125 232.68541 352.9375 233.31041Q353.0625 233.93541 353.0625 234.76353ZM351.96875 236.24791L351.96875 234.59166Q351.96875 234.01353 351.90625 233.57603Q351.84375 233.13853 351.70312 232.82603Q351.57812 232.51353 351.375 232.32603Q351.1875 232.13853 350.9375 232.04478Q350.6875 231.95103 350.35938 231.95103Q349.98438 231.95103 349.67188 232.09166Q349.375 232.23228 349.17188 232.54478Q348.96875 232.85728 348.85938 233.37291Q348.76562 233.87291 348.76562 234.59166L348.76562 236.24791Q348.76562 236.82603 348.82812 237.26353Q348.90625 237.70103 349.03125 238.02916Q349.17188 238.34166 349.35938 238.54478Q349.5625 238.74791 349.8125 238.84166Q350.0625 238.93541 350.375 238.93541Q350.78125 238.93541 351.07812 238.79478Q351.375 238.63853 351.57812 238.31041Q351.78125 237.98228 351.875 237.48228Q351.96875 236.96666 351.96875 236.24791ZM355.8125 238.41978L355.8125 239.29478Q355.8125 239.84166 355.53125 240.43541Q355.26562 241.02916 354.78125 241.41978L354.17188 240.99791Q354.35938 240.73228 354.48438 240.46666Q354.60938 240.20103 354.67188 239.91978Q354.75 239.63853 354.75 239.31041L354.75 238.41978L355.8125 238.41978ZM360.26562 231.13853L360.26562 239.71666L359.1875 239.71666L359.1875 232.49791L357.0 233.29478L357.0 232.31041L360.10938 231.13853L360.26562 231.13853Z" fill-rule="nonzero"/><path stroke="#cccccc" stroke-width="1.0" stroke-linecap="butt" d="M459.56668 290.0C459.56668 237.77228 417.22772 195.43333 365.0 195.43333C312.77228 195.43333 270.43332 237.77228 270.43332 290.0C270.43332 342.22772 312.77228 384.56668 365.0 384.56668C417.22772 384.56668 459.56668 342.22772 459.56668 290.0" fill-rule="nonzero"/><path fill="#000000" d="M353.0625 187.48021L353.0625 188.79271Q353.0625 189.83958 352.875 190.55833Q352.6875 191.27708 352.32812 191.71458Q351.98438 192.15208 351.48438 192.35521Q351.0 192.55833 350.375 192.55833Q349.89062 192.55833 349.46875 192.43333Q349.04688 192.30833 348.71875 192.04271Q348.39062 191.76146 348.15625 191.32396Q347.92188 190.88646 347.79688 190.26146Q347.67188 189.62083 347.67188 188.79271L347.67188 187.48021Q347.67188 186.43333 347.85938 185.73021Q348.0625 185.02708 348.40625 184.58958Q348.76562 184.15208 349.25 183.96458Q349.75 183.77708 350.35938 183.77708Q350.85938 183.77708 351.28125 183.90208Q351.70312 184.02708 352.03125 184.29271Q352.35938 184.54271 352.57812 184.98021Q352.8125 185.40208 352.9375 186.02708Q353.0625 186.65208 353.0625 187.48021ZM351.96875 188.96458L351.96875 187.30833Q351.96875 186.73021 351.90625 186.29271Q351.84375 185.85521 351.70312 185.54271Q351.57812 185.23021 351.375 185.04271Q351.1875 184.85521 350.9375 184.76146Q350.6875 184.66771 350.35938 184.66771Q349.98438 184.66771 349.67188 184.80833Q349.375 184.94896 349.17188 185.26146Q348.96875 185.57396 348.85938 186.08958Q348.76562 186.58958 348.76562 187.30833L348.76562 188.96458Q348.76562 189.54271 348.82812 189.98021Q348.90625 190.41771 349.03125 190.74583Q349.17188 191.05833 349.35938 191.26146Q349.5625 191.46458 349.8125 191.55833Q350.0625 191.65208 350.375 191.65208Q350.78125 191.65208 351.07812 191.51146Q351.375 191.35521 351.57812 191.02708Q351.78125 190.69896 351.875 190.19896Q351.96875 189.68333 351.96875 188.96458ZM355.8125 191.13646L355.8125 192.01146Q355.8125 192.55833 355.53125 193.15208Q355.26562 193.74583 354.78125 194.13646L354.17188 193.71458Q354.35938 193.44896 354.48438 193.18333Q354.60938 192.91771 354.67188 192.63646Q354.75 192.35521 354.75 192.02708L354.75 191.13646L355.8125 191.13646ZM362.29688 191.54271L362.29688 192.43333L356.71875 192.43333L356.71875 191.65208L359.51562 188.54271Q360.03125 187.96458 360.3125 187.57396Q360.59375 187.16771 360.70312 186.85521Q360.82812 186.52708 360.82812 186.19896Q360.82812 185.77708 360.65625 185.43333Q360.48438 185.08958 360.14062 184.88646Q359.8125 184.66771 359.32812 184.66771Q358.76562 184.66771 358.39062 184.90208Q358.01562 185.12083 357.82812 185.51146Q357.64062 185.90208 357.64062 186.40208L356.54688 186.40208Q356.54688 185.68333 356.85938 185.08958Q357.1875 184.49583 357.79688 184.13646Q358.42188 183.77708 359.32812 183.77708Q360.14062 183.77708 360.71875 184.07396Q361.29688 184.35521 361.59375 184.87083Q361.90625 185.37083 361.90625 186.05833Q361.90625 186.43333 361.78125 186.82396Q361.65625 187.19896 361.4375 187.58958Q361.21875 187.96458 360.92188 188.33958Q360.64062 188.69896 360.3125 189.05833L358.01562 191.54271L362.29688 191.54271Z" fill-rule="nonzero"/><path stroke="#cccccc" stroke-width="1.0" stroke-linecap="butt" d="M506.85 290.0C506.85 211.6584 443.34158 148.15 365.0 148.15C286.65842 148.15 223.15 211.6584 223.15 290.0C223.15 368.34158 286.65842 431.85 365.0 431.85C443.34158 431.85 506.85 368.34158 506.85 290.0" fill-rule="nonzero"/><path fill="#000000" d="M353.0625 140.19687L353.0625 141.50937Q353.0625 142.55624 352.875 143.275Q352.6875 143.99374 352.32812 144.43124Q351.98438 144.86874 351.48438 145.07187Q351.0 145.275 350.375 145.275Q349.89062 145.275 349.46875 145.15Q349.04688 145.025 348.71875 144.75937Q348.39062 144.47812 348.15625 144.04062Q347.92188 143.60312 347.79688 142.97812Q347.67188 142.3375 347.67188 141.50937L347.67188 140.19687Q347.67188 139.15 347.85938 138.44687Q348.0625 137.74374 348.40625 137.30624Q348.76562 136.86874 349.25 136.68124Q349.75 136.49374 350.35938 136.49374Q350.85938 136.49374 351.28125 136.61874Q351.70312 136.74374 352.03125 137.00937Q352.35938 137.25937 352.57812 137.69687Q352.8125 138.11874 352.9375 138.74374Q353.0625 139.36874 353.0625 140.19687ZM351.96875 141.68124L351.96875 140.025Q351.96875 139.44687 351.90625 139.00937Q351.84375 138.57187 351.70312 138.25937Q351.57812 137.94687 351.375 137.75937Q351.1875 137.57187 350.9375 137.47812Q350.6875 137.38437 350.35938 137.38437Q349.98438 137.38437 349.67188 137.525Q349.375 137.66562 349.17188 137.97812Q348.96875 138.29062 348.85938 138.80624Q348.76562 139.30624 348.76562 140.025L348.76562 141.68124Q348.76562 142.25937 348.82812 142.69687Q348.90625 143.13437 349.03125 143.4625Q349.17188 143.775 349.35938 143.97812Q349.5625 144.18124 349.8125 144.275Q350.0625 144.36874 350.375 144.36874Q350.78125 144.36874 351.07812 144.22812Q351.375 144.07187 351.57812 143.74374Q351.78125 143.41562 351.875 142.91562Q351.96875 142.4 351.96875 141.68124ZM355.8125 143.85312L355.8125 144.72812Q355.8125 145.275 355.53125 145.86874Q355.26562 146.4625 354.78125 146.85312L354.17188 146.43124Q354.35938 146.16562 354.48438 145.9Q354.60938 145.63437 354.67188 145.35312Q354.75 145.07187 354.75 144.74374L354.75 143.85312L355.8125 143.85312ZM358.29688 140.35312L359.0625 140.35312Q359.64062 140.35312 360.0 140.16562Q360.375 139.9625 360.5625 139.63437Q360.75 139.30624 360.75 138.88437Q360.75 138.4 360.57812 138.07187Q360.42188 137.72812 360.09375 137.55624Q359.76562 137.38437 359.26562 137.38437Q358.79688 137.38437 358.45312 137.57187Q358.10938 137.74374 357.90625 138.07187Q357.71875 138.4 357.71875 138.85312L356.625 138.85312Q356.625 138.19687 356.95312 137.66562Q357.28125 137.13437 357.875 136.82187Q358.46875 136.49374 359.26562 136.49374Q360.03125 136.49374 360.60938 136.775Q361.1875 137.04062 361.51562 137.5875Q361.84375 138.11874 361.84375 138.91562Q361.84375 139.24374 361.6875 139.60312Q361.53125 139.9625 361.21875 140.29062Q360.90625 140.60312 360.40625 140.80624Q359.92188 141.00937 359.21875 141.00937L358.29688 141.00937L358.29688 140.35312ZM358.29688 141.24374L358.29688 140.5875L359.21875 140.5875Q360.03125 140.5875 360.5625 140.79062Q361.09375 140.97812 361.40625 141.30624Q361.71875 141.61874 361.84375 142.00937Q361.96875 142.38437 361.96875 142.775Q361.96875 143.36874 361.76562 143.8375Q361.5625 144.29062 361.1875 144.61874Q360.82812 144.93124 360.32812 145.10312Q359.84375 145.275 359.26562 145.275Q358.70312 145.275 358.21875 145.11874Q357.73438 144.94687 357.35938 144.65Q356.98438 144.35312 356.76562 143.91562Q356.5625 143.4625 356.5625 142.9L357.64062 142.9Q357.64062 143.3375 357.82812 143.68124Q358.03125 144.00937 358.39062 144.19687Q358.76562 144.36874 359.26562 144.36874Q359.76562 144.36874 360.125 144.19687Q360.48438 144.025 360.67188 143.68124Q360.875 143.32187 360.875 142.79062Q360.875 142.25937 360.65625 141.91562Q360.4375 141.57187 360.01562 141.41562Q359.60938 141.24374 359.0625 141.24374L358.29688 141.24374Z" fill-rule="nonzero"/><path stroke="#cccccc" stroke-width="1.0" stroke-linecap="butt" d="M554.13336 290.0C554.13336 185.54454 469.45544 100.86667 365.0 100.86667C260.54456 100.86667 175.86667 185.54454 175.86667 290.0C175.86667 394.45544 260.54456 479.13333 365.0 479.13333C469.45544 479.13333 554.13336 394.45544 554.13336 290.0" fill-rule="nonzero"/><path fill="#000000" d="M353.0625 92.91354L353.0625 94.22604Q353.0625 95.27292 352.875 95.99167Q352.6875 96.71042 352.32812 97.14792Q351.98438 97.58542 351.48438 97.78854Q351.0 97.99167 350.375 97.99167Q349.89062 97.99167 349.46875 97.86667Q349.04688 97.74167 348.71875 97.47604Q348.39062 97.19479 348.15625 96.75729Q347.92188 96.31979 347.79688 95.69479Q347.67188 95.05417 347.67188 94.22604L347.67188 92.91354Q347.67188 91.86667 347.85938 91.16354Q348.0625 90.46042 348.40625 90.02292Q348.76562 89.58542 349.25 89.39792Q349.75 89.21042 350.35938 89.21042Q350.85938 89.21042 351.28125 89.33542Q351.70312 89.46042 352.03125 89.72604Q352.35938 89.97604 352.57812 90.41354Q352.8125 90.83542 352.9375 91.46042Q353.0625 92.08542 353.0625 92.91354ZM351.96875 94.39792L351.96875 92.74167Q351.96875 92.16354 351.90625 91.72604Q351.84375 91.28854 351.70312 90.97604Q351.57812 90.66354 351.375 90.47604Q351.1875 90.28854 350.9375 90.19479Q350.6875 90.10104 350.35938 90.10104Q349.98438 90.10104 349.67188 90.24167Q349.375 90.38229 349.17188 90.69479Q348.96875 91.00729 348.85938 91.52292Q348.76562 92.02292 348.76562 92.74167L348.76562 94.39792Q348.76562 94.97604 348.82812 95.41354Q348.90625 95.85104 349.03125 96.17917Q349.17188 96.49167 349.35938 96.69479Q349.5625 96.89792 349.8125 96.99167Q350.0625 97.08542 350.375 97.08542Q350.78125 97.08542 351.07812 96.94479Q351.375 96.78854 351.57812 96.46042Q351.78125 96.13229 351.875 95.63229Q351.96875 95.11667 351.96875 94.39792ZM355.8125 96.56979L355.8125 97.44479Q355.8125 97.99167 355.53125 98.58542Q355.26562 99.17917 354.78125 99.56979L354.17188 99.14792Q354.35938 98.88229 354.48438 98.61667Q354.60938 98.35104 354.67188 98.06979Q354.75 97.78854 354.75 97.46042L354.75 96.56979L355.8125 96.56979ZM362.46875 94.99167L362.46875 95.88229L356.3125 95.88229L356.3125 95.24167L360.125 89.33542L361.01562 89.33542L360.0625 91.03854L357.54688 94.99167L362.46875 94.99167ZM361.28125 89.33542L361.28125 97.86667L360.20312 97.86667L360.20312 89.33542L361.28125 89.33542Z" fill-rule="nonzero"/><path stroke="#cccccc" stroke-width="1.0" stroke-linecap="butt" d="M365.0 290.0L365.0 101.0" fill-rule="nonzero"/><path fill="#000000" d="M343.53125 69.671875L344.39062 69.671875Q345.20312 69.671875 345.76562 69.984375Q346.34375 70.28125 346.64062 70.8125Q346.95312 71.34375 346.95312 72.015625Q346.95312 72.84375 346.60938 73.421875Q346.26562 74.0 345.67188 74.3125Q345.07812 74.625 344.29688 74.625Q343.84375 74.625 343.39062 74.5Q342.9375 74.359375 342.5625 74.09375Q342.20312 73.828125 341.98438 73.40625Q341.76562 72.984375 341.76562 72.40625L342.1875 72.15625Q342.1875 72.59375 342.4375 72.953125Q342.70312 73.296875 343.14062 73.515625Q343.59375 73.734375 344.1875 73.734375Q344.71875 73.734375 345.09375 73.515625Q345.46875 73.296875 345.67188 72.921875Q345.875 72.53125 345.875 72.03125Q345.875 71.625 345.6875 71.25Q345.51562 70.859375 345.1875 70.609375Q344.85938 70.359375 344.375 70.359375L343.53125 70.359375L343.53125 69.671875ZM344.04688 65.84375Q344.8125 65.84375 345.375 66.140625Q345.9375 66.4375 346.23438 66.953125Q346.54688 67.46875 346.54688 68.140625Q346.54688 68.703125 346.23438 69.171875Q345.9375 69.625 345.375 69.90625Q344.8125 70.171875 344.04688 70.171875L343.53125 70.171875L343.53125 69.46875L344.03125 69.46875Q344.54688 69.46875 344.85938 69.296875Q345.17188 69.125 345.3125 68.828125Q345.46875 68.515625 345.46875 68.125Q345.46875 67.765625 345.3125 67.453125Q345.15625 67.140625 344.84375 66.9375Q344.53125 66.734375 344.04688 66.734375Q343.625 66.734375 343.28125 66.9375Q342.9375 67.125 342.73438 67.46875Q342.53125 67.796875 342.53125 68.21875L342.53125 76.75L341.4375 76.75L341.4375 68.21875Q341.4375 67.5625 341.79688 67.03125Q342.15625 66.484375 342.75 66.171875Q343.34375 65.84375 344.04688 65.84375ZM350.57812 70.421875L350.57812 71.3125L347.71875 71.3125L347.71875 70.421875L350.57812 70.421875ZM351.84375 65.96875L352.9375 65.96875L355.73438 72.921875L358.53125 65.96875L359.625 65.96875L356.15625 74.5L355.3125 74.5L351.84375 65.96875ZM351.48438 65.96875L352.45312 65.96875L352.60938 71.171875L352.60938 74.5L351.48438 74.5L351.48438 65.96875ZM359.01562 65.96875L359.98438 65.96875L359.98438 74.5L358.85938 74.5L358.85938 71.171875L359.01562 65.96875ZM363.10938 73.84375L364.875 68.15625L366.03125 68.15625L363.48438 75.484375Q363.40625 75.71875 363.25 75.984375Q363.10938 76.265625 362.89062 76.5Q362.67188 76.75 362.35938 76.90625Q362.04688 77.0625 361.60938 77.0625Q361.48438 77.0625 361.28125 77.015625Q361.07812 76.984375 361.0 76.96875L361.0 76.09375Q361.04688 76.09375 361.14062 76.09375Q361.25 76.109375 361.28125 76.109375Q361.65625 76.109375 361.90625 76.015625Q362.17188 75.921875 362.34375 75.6875Q362.53125 75.46875 362.65625 75.078125L363.10938 73.84375ZM361.8125 68.15625L363.45312 73.078125L363.73438 74.21875L362.96875 74.625L360.625 68.15625L361.8125 68.15625ZM368.40625 69.15625L368.40625 74.5L367.32812 74.5L367.32812 68.15625L368.375 68.15625L368.40625 69.15625ZM370.39062 68.125L370.39062 69.125Q370.25 69.109375 370.125 69.09375Q370.01562 69.078125 369.85938 69.078125Q369.48438 69.078125 369.1875 69.203125Q368.90625 69.3125 368.70312 69.53125Q368.51562 69.734375 368.39062 70.03125Q368.28125 70.328125 368.25 70.671875L367.9375 70.84375Q367.9375 70.265625 368.04688 69.765625Q368.17188 69.265625 368.40625 68.875Q368.65625 68.484375 369.01562 68.265625Q369.39062 68.046875 369.90625 68.046875Q370.03125 68.046875 370.17188 68.078125Q370.32812 68.09375 370.39062 68.125ZM373.85938 73.71875Q374.25 73.71875 374.57812 73.5625Q374.90625 73.40625 375.10938 73.140625Q375.32812 72.859375 375.35938 72.5L376.39062 72.5Q376.35938 73.0625 376.0 73.546875Q375.65625 74.03125 375.09375 74.328125Q374.53125 74.625 373.85938 74.625Q373.15625 74.625 372.625 74.375Q372.09375 74.109375 371.73438 73.671875Q371.39062 73.234375 371.21875 72.671875Q371.04688 72.09375 371.04688 71.453125L371.04688 71.203125Q371.04688 70.5625 371.21875 70.0Q371.39062 69.421875 371.73438 68.984375Q372.09375 68.546875 372.625 68.296875Q373.15625 68.046875 373.85938 68.046875Q374.60938 68.046875 375.15625 68.34375Q375.71875 68.640625 376.03125 69.171875Q376.35938 69.6875 376.39062 70.34375L375.35938 70.34375Q375.32812 69.953125 375.14062 69.640625Q374.95312 69.3125 374.625 69.125Q374.29688 68.9375 373.85938 68.9375Q373.35938 68.9375 373.01562 69.140625Q372.6875 69.328125 372.48438 69.65625Q372.29688 69.984375 372.20312 70.390625Q372.125 70.796875 372.125 71.203125L372.125 71.453125Q372.125 71.875 372.20312 72.28125Q372.29688 72.671875 372.48438 73.0Q372.6875 73.328125 373.01562 73.53125Q373.35938 73.71875 373.85938 73.71875ZM379.95312 74.625Q379.29688 74.625 378.75 74.40625Q378.21875 74.171875 377.82812 73.765625Q377.45312 73.34375 377.25 72.78125Q377.04688 72.21875 377.04688 71.546875L377.04688 71.3125Q377.04688 70.53125 377.26562 69.921875Q377.5 69.3125 377.89062 68.890625Q378.28125 68.46875 378.78125 68.265625Q379.28125 68.046875 379.8125 68.046875Q380.5 68.046875 380.98438 68.28125Q381.48438 68.515625 381.79688 68.9375Q382.125 69.34375 382.26562 69.921875Q382.42188 70.484375 382.42188 71.140625L382.42188 71.640625L377.6875 71.640625L377.6875 70.75L381.34375 70.75L381.34375 70.671875Q381.3125 70.25 381.15625 69.859375Q381.01562 69.453125 380.6875 69.203125Q380.375 68.9375 379.8125 68.9375Q379.45312 68.9375 379.14062 69.09375Q378.82812 69.25 378.59375 69.5625Q378.375 69.859375 378.25 70.296875Q378.14062 70.734375 378.14062 71.3125L378.14062 71.546875Q378.14062 72.0 378.26562 72.40625Q378.39062 72.796875 378.625 73.09375Q378.875 73.390625 379.21875 73.5625Q379.57812 73.734375 380.01562 73.734375Q380.59375 73.734375 380.98438 73.5Q381.39062 73.265625 381.6875 72.875L382.34375 73.390625Q382.14062 73.703125 381.8125 73.984375Q381.5 74.265625 381.03125 74.453125Q380.57812 74.625 379.95312 74.625ZM384.40625 69.515625L384.40625 74.5L383.32812 74.5L383.32812 68.15625L384.35938 68.15625L384.40625 69.515625ZM384.15625 71.09375L383.70312 71.078125Q383.70312 70.421875 383.89062 69.875Q384.07812 69.3125 384.42188 68.90625Q384.76562 68.5 385.23438 68.28125Q385.70312 68.046875 386.28125 68.046875Q386.75 68.046875 387.125 68.171875Q387.5 68.296875 387.76562 68.578125Q388.03125 68.84375 388.17188 69.28125Q388.3125 69.71875 388.3125 70.34375L388.3125 74.5L387.21875 74.5L387.21875 70.328125Q387.21875 69.828125 387.07812 69.53125Q386.9375 69.234375 386.65625 69.09375Q386.375 68.953125 385.95312 68.953125Q385.54688 68.953125 385.21875 69.125Q384.89062 69.296875 384.65625 69.59375Q384.42188 69.890625 384.28125 70.28125Q384.15625 70.65625 384.15625 71.09375Z" fill-rule="nonzero"/><path stroke="#cccccc" stroke-width="1.0" stroke-linecap="butt" d="M365.0 290.0L529.0 195.0" fill-rule="nonzero"/><path fill="#000000" d="M529.2969 184.5L527.5156 184.5L527.53125 183.57812L529.2969 183.57812Q530.21875 183.57812 530.8281 183.20312Q531.4375 182.8125 531.7344 182.125Q532.0469 181.42188 532.0469 180.48438L532.0469 179.96875Q532.0469 179.23438 531.875 178.67188Q531.7031 178.09375 531.3594 177.70312Q531.0156 177.29688 530.5156 177.09375Q530.03125 176.89062 529.40625 176.89062L527.4844 176.89062L527.4844 175.96875L529.40625 175.96875Q530.25 175.96875 530.9375 176.25Q531.625 176.53125 532.125 177.0625Q532.625 177.57812 532.8906 178.32812Q533.1719 179.0625 533.1719 179.98438L533.1719 180.48438Q533.1719 181.42188 532.8906 182.17188Q532.625 182.90625 532.1094 183.42188Q531.6094 183.9375 530.8906 184.21875Q530.1875 184.5 529.2969 184.5ZM528.125 175.96875L528.125 184.5L526.9844 184.5L526.9844 175.96875L528.125 175.96875ZM537.0781 180.42188L537.0781 181.3125L534.21875 181.3125L534.21875 180.42188L537.0781 180.42188ZM543.1719 183.57812L543.1719 184.5L538.90625 184.5L538.90625 183.57812L543.1719 183.57812ZM539.125 175.96875L539.125 184.5L537.9844 184.5L537.9844 175.96875L539.125 175.96875ZM545.0 178.15625L545.0 184.5L543.9219 184.5L543.9219 178.15625L545.0 178.15625ZM543.8281 176.48438Q543.8281 176.21875 543.9844 176.03125Q544.15625 175.84375 544.46875 175.84375Q544.78125 175.84375 544.9375 176.03125Q545.1094 176.21875 545.1094 176.48438Q545.1094 176.73438 544.9375 176.92188Q544.78125 177.09375 544.46875 177.09375Q544.15625 177.09375 543.9844 176.92188Q543.8281 176.73438 543.8281 176.48438ZM547.90625 179.42188L547.90625 184.5L546.8125 184.5L546.8125 178.15625L547.84375 178.15625L547.90625 179.42188ZM547.6875 181.09375L547.1719 181.07812Q547.1875 180.42188 547.34375 179.875Q547.5156 179.3125 547.8281 178.90625Q548.15625 178.5 548.6406 178.28125Q549.125 178.04688 549.75 178.04688Q550.2031 178.04688 550.5781 178.17188Q550.9531 178.29688 551.21875 178.5625Q551.5 178.82812 551.6406 179.25Q551.7969 179.67188 551.7969 180.28125L551.7969 184.5L550.71875 184.5L550.71875 180.32812Q550.71875 179.82812 550.5469 179.53125Q550.3906 179.23438 550.0781 179.09375Q549.78125 178.95312 549.3594 178.95312Q548.8906 178.95312 548.5625 179.125Q548.2344 179.29688 548.0469 179.59375Q547.8594 179.89062 547.7656 180.28125Q547.6875 180.65625 547.6875 181.09375ZM551.7969 180.48438L551.0625 180.71875Q551.0625 180.1875 551.2344 179.71875Q551.40625 179.23438 551.71875 178.85938Q552.0469 178.48438 552.5156 178.26562Q552.9844 178.04688 553.5781 178.04688Q554.09375 178.04688 554.4844 178.1875Q554.8906 178.3125 555.15625 178.59375Q555.4219 178.875 555.5625 179.3125Q555.7031 179.73438 555.7031 180.32812L555.7031 184.5L554.625 184.5L554.625 180.32812Q554.625 179.78125 554.4531 179.5Q554.28125 179.20312 553.9844 179.07812Q553.6875 178.95312 553.2656 178.95312Q552.90625 178.95312 552.625 179.07812Q552.3594 179.20312 552.1719 179.42188Q551.9844 179.625 551.8906 179.90625Q551.7969 180.1875 551.7969 180.48438ZM557.5469 181.40625L557.5469 181.26562Q557.5469 180.57812 557.7344 180.0Q557.9375 179.40625 558.3125 178.96875Q558.6875 178.53125 559.21875 178.29688Q559.75 178.04688 560.4219 178.04688Q561.0781 178.04688 561.6094 178.29688Q562.15625 178.53125 562.53125 178.96875Q562.90625 179.40625 563.1094 180.0Q563.3125 180.57812 563.3125 181.26562L563.3125 181.40625Q563.3125 182.07812 563.1094 182.67188Q562.90625 183.25 562.53125 183.6875Q562.15625 184.125 561.625 184.375Q561.09375 184.625 560.4219 184.625Q559.7656 184.625 559.21875 184.375Q558.6875 184.125 558.3125 183.6875Q557.9375 183.25 557.7344 182.67188Q557.5469 182.07812 557.5469 181.40625ZM558.625 181.26562L558.625 181.40625Q558.625 181.875 558.7344 182.29688Q558.84375 182.71875 559.0625 183.04688Q559.2969 183.35938 559.6406 183.54688Q559.9844 183.71875 560.4219 183.71875Q560.875 183.71875 561.2031 183.54688Q561.5469 183.35938 561.7656 183.04688Q562.0 182.71875 562.1094 182.29688Q562.21875 181.875 562.21875 181.40625L562.21875 181.26562Q562.21875 180.79688 562.1094 180.375Q562.0 179.95312 561.7656 179.64062Q561.5469 179.3125 561.2031 179.125Q560.875 178.9375 560.4219 178.9375Q559.96875 178.9375 559.625 179.125Q559.2969 179.3125 559.0625 179.64062Q558.84375 179.95312 558.7344 180.375Q558.625 180.79688 558.625 181.26562ZM565.90625 179.51562L565.90625 184.5L564.8281 184.5L564.8281 178.15625L565.8594 178.15625L565.90625 179.51562ZM565.65625 181.09375L565.2031 181.07812Q565.2031 180.42188 565.3906 179.875Q565.5781 179.3125 565.9219 178.90625Q566.2656 178.5 566.7344 178.28125Q567.2031 178.04688 567.78125 178.04688Q568.25 178.04688 568.625 178.17188Q569.0 178.29688 569.2656 178.57812Q569.53125 178.84375 569.6719 179.28125Q569.8125 179.71875 569.8125 180.34375L569.8125 184.5L568.71875 184.5L568.71875 180.32812Q568.71875 179.82812 568.5781 179.53125Q568.4375 179.23438 568.15625 179.09375Q567.875 178.95312 567.4531 178.95312Q567.0469 178.95312 566.71875 179.125Q566.3906 179.29688 566.15625 179.59375Q565.9219 179.89062 565.78125 180.28125Q565.65625 180.65625 565.65625 181.09375ZM574.4531 184.625Q573.7969 184.625 573.25 184.40625Q572.71875 184.17188 572.3281 183.76562Q571.9531 183.34375 571.75 182.78125Q571.5469 182.21875 571.5469 181.54688L571.5469 181.3125Q571.5469 180.53125 571.7656 179.92188Q572.0 179.3125 572.3906 178.89062Q572.78125 178.46875 573.28125 178.26562Q573.78125 178.04688 574.3125 178.04688Q575.0 178.04688 575.4844 178.28125Q575.9844 178.51562 576.2969 178.9375Q576.625 179.34375 576.7656 179.92188Q576.9219 180.48438 576.9219 181.14062L576.9219 181.64062L572.1875 181.64062L572.1875 180.75L575.84375 180.75L575.84375 180.67188Q575.8125 180.25 575.65625 179.85938Q575.5156 179.45312 575.1875 179.20312Q574.875 178.9375 574.3125 178.9375Q573.9531 178.9375 573.6406 179.09375Q573.3281 179.25 573.09375 179.5625Q572.875 179.85938 572.75 180.29688Q572.6406 180.73438 572.6406 181.3125L572.6406 181.54688Q572.6406 182.0 572.7656 182.40625Q572.8906 182.79688 573.125 183.09375Q573.375 183.39062 573.71875 183.5625Q574.0781 183.73438 574.5156 183.73438Q575.09375 183.73438 575.4844 183.5Q575.8906 183.26562 576.1875 182.875L576.84375 183.39062Q576.6406 183.70312 576.3125 183.98438Q576.0 184.26562 575.53125 184.45312Q575.0781 184.625 574.4531 184.625ZM578.90625 179.51562L578.90625 184.5L577.8281 184.5L577.8281 178.15625L578.8594 178.15625L578.90625 179.51562ZM578.65625 181.09375L578.2031 181.07812Q578.2031 180.42188 578.3906 179.875Q578.5781 179.3125 578.9219 178.90625Q579.2656 178.5 579.7344 178.28125Q580.2031 178.04688 580.78125 178.04688Q581.25 178.04688 581.625 178.17188Q582.0 178.29688 582.2656 178.57812Q582.53125 178.84375 582.6719 179.28125Q582.8125 179.71875 582.8125 180.34375L582.8125 184.5L581.71875 184.5L581.71875 180.32812Q581.71875 179.82812 581.5781 179.53125Q581.4375 179.23438 581.15625 179.09375Q580.875 178.95312 580.4531 178.95312Q580.0469 178.95312 579.71875 179.125Q579.3906 179.29688 579.15625 179.59375Q578.9219 179.89062 578.78125 180.28125Q578.65625 180.65625 578.65625 181.09375Z" fill-rule="nonzero"/><path stroke="#cccccc" stroke-width="1.0" stroke-linecap="butt" d="M365.0 290.0L529.0 385.0" fill-rule="nonzero"/><path fill="#000000" d="M525.6406 401.78125L526.7656 401.78125Q526.6719 402.59375 526.2969 403.23438Q525.9219 403.875 525.2344 404.25Q524.5625 404.625 523.53125 404.625Q522.78125 404.625 522.1719 404.34375Q521.5625 404.04688 521.1094 403.53125Q520.6719 403.01562 520.4375 402.29688Q520.2031 401.5625 520.2031 400.65625L520.2031 399.8125Q520.2031 398.92188 520.4375 398.1875Q520.6719 397.45312 521.125 396.9375Q521.5781 396.40625 522.2031 396.125Q522.84375 395.84375 523.625 395.84375Q524.59375 395.84375 525.2656 396.21875Q525.9375 396.57812 526.2969 397.21875Q526.6719 397.85938 526.7656 398.70312L525.6406 398.70312Q525.5625 398.10938 525.3281 397.6875Q525.1094 397.25 524.7031 397.01562Q524.2969 396.78125 523.625 396.78125Q523.0625 396.78125 522.625 397.0Q522.2031 397.20312 521.90625 397.60938Q521.625 398.0 521.46875 398.5625Q521.3281 399.125 521.3281 399.79688L521.3281 400.65625Q521.3281 401.28125 521.4531 401.84375Q521.59375 402.39062 521.8594 402.8125Q522.125 403.21875 522.5469 403.46875Q522.96875 403.70312 523.53125 403.70312Q524.25 403.70312 524.6719 403.46875Q525.1094 403.23438 525.3281 402.8125Q525.5469 402.39062 525.6406 401.78125ZM532.0625 403.42188L532.0625 400.15625Q532.0625 399.78125 531.90625 399.5Q531.7656 399.21875 531.46875 399.07812Q531.1719 398.92188 530.7344 398.92188Q530.3125 398.92188 530.0 399.0625Q529.7031 399.20312 529.53125 399.4375Q529.3594 399.65625 529.3594 399.92188L528.28125 399.92188Q528.28125 399.57812 528.4531 399.25Q528.625 398.90625 528.9531 398.64062Q529.28125 398.35938 529.75 398.20312Q530.21875 398.04688 530.7969 398.04688Q531.4844 398.04688 532.0156 398.28125Q532.5469 398.51562 532.84375 398.98438Q533.15625 399.45312 533.15625 400.15625L533.15625 403.10938Q533.15625 403.4375 533.2031 403.79688Q533.2656 404.14062 533.375 404.40625L533.375 404.5L532.2344 404.5Q532.15625 404.3125 532.1094 404.0Q532.0625 403.6875 532.0625 403.42188ZM532.25 400.65625L532.2656 401.42188L531.1719 401.42188Q530.7031 401.42188 530.34375 401.5Q529.9844 401.5625 529.7344 401.71875Q529.4844 401.85938 529.3594 402.07812Q529.2344 402.29688 529.2344 402.59375Q529.2344 402.89062 529.3594 403.14062Q529.5 403.375 529.7656 403.53125Q530.0469 403.67188 530.4375 403.67188Q530.9375 403.67188 531.3125 403.46875Q531.7031 403.25 531.9219 402.95312Q532.15625 402.64062 532.1719 402.34375L532.6406 402.875Q532.59375 403.10938 532.40625 403.42188Q532.2344 403.71875 531.9219 404.0Q531.625 404.26562 531.2031 404.45312Q530.7969 404.625 530.28125 404.625Q529.6406 404.625 529.15625 404.375Q528.6719 404.10938 528.40625 403.6875Q528.1406 403.26562 528.1406 402.73438Q528.1406 402.21875 528.3281 401.84375Q528.53125 401.45312 528.90625 401.1875Q529.28125 400.92188 529.8125 400.79688Q530.34375 400.65625 531.0 400.65625L532.25 400.65625ZM536.40625 399.15625L536.40625 404.5L535.3281 404.5L535.3281 398.15625L536.375 398.15625L536.40625 399.15625ZM538.3906 398.125L538.3906 399.125Q538.25 399.10938 538.125 399.09375Q538.0156 399.07812 537.8594 399.07812Q537.4844 399.07812 537.1875 399.20312Q536.90625 399.3125 536.7031 399.53125Q536.5156 399.73438 536.3906 400.03125Q536.28125 400.32812 536.25 400.67188L535.9375 400.84375Q535.9375 400.26562 536.0469 399.76562Q536.1719 399.26562 536.40625 398.875Q536.65625 398.48438 537.0156 398.26562Q537.3906 398.04688 537.90625 398.04688Q538.03125 398.04688 538.1719 398.07812Q538.3281 398.09375 538.3906 398.125ZM541.1094 403.84375L542.875 398.15625L544.03125 398.15625L541.4844 405.48438Q541.40625 405.71875 541.25 405.98438Q541.1094 406.26562 540.8906 406.5Q540.6719 406.75 540.3594 406.90625Q540.0469 407.0625 539.6094 407.0625Q539.4844 407.0625 539.28125 407.01562Q539.0781 406.98438 539.0 406.96875L539.0 406.09375Q539.0469 406.09375 539.1406 406.09375Q539.25 406.10938 539.28125 406.10938Q539.65625 406.10938 539.90625 406.01562Q540.1719 405.92188 540.34375 405.6875Q540.53125 405.46875 540.65625 405.07812L541.1094 403.84375ZM539.8125 398.15625L541.4531 403.07812L541.7344 404.21875L540.96875 404.625L538.625 398.15625L539.8125 398.15625ZM545.0469 401.40625L545.0469 401.26562Q545.0469 400.57812 545.2344 400.0Q545.4375 399.40625 545.8125 398.96875Q546.1875 398.53125 546.71875 398.29688Q547.25 398.04688 547.9219 398.04688Q548.5781 398.04688 549.1094 398.29688Q549.65625 398.53125 550.03125 398.96875Q550.40625 399.40625 550.6094 400.0Q550.8125 400.57812 550.8125 401.26562L550.8125 401.40625Q550.8125 402.07812 550.6094 402.67188Q550.40625 403.25 550.03125 403.6875Q549.65625 404.125 549.125 404.375Q548.59375 404.625 547.9219 404.625Q547.2656 404.625 546.71875 404.375Q546.1875 404.125 545.8125 403.6875Q545.4375 403.25 545.2344 402.67188Q545.0469 402.07812 545.0469 401.40625ZM546.125 401.26562L546.125 401.40625Q546.125 401.875 546.2344 402.29688Q546.34375 402.71875 546.5625 403.04688Q546.7969 403.35938 547.1406 403.54688Q547.4844 403.71875 547.9219 403.71875Q548.375 403.71875 548.7031 403.54688Q549.0469 403.35938 549.2656 403.04688Q549.5 402.71875 549.6094 402.29688Q549.71875 401.875 549.71875 401.40625L549.71875 401.26562Q549.71875 400.79688 549.6094 400.375Q549.5 399.95312 549.2656 399.64062Q549.0469 399.3125 548.7031 399.125Q548.375 398.9375 547.9219 398.9375Q547.46875 398.9375 547.125 399.125Q546.7969 399.3125 546.5625 399.64062Q546.34375 399.95312 546.2344 400.375Q546.125 400.79688 546.125 401.26562ZM553.40625 399.375L553.40625 406.9375L552.3281 406.9375L552.3281 398.15625L553.3125 398.15625L553.40625 399.375ZM557.6875 401.28125L557.6875 401.40625Q557.6875 402.09375 557.5156 402.6875Q557.3594 403.26562 557.0469 403.70312Q556.7344 404.14062 556.2656 404.39062Q555.8125 404.625 555.21875 404.625Q554.625 404.625 554.15625 404.42188Q553.6875 404.21875 553.3594 403.84375Q553.0469 403.45312 552.8594 402.92188Q552.6719 402.39062 552.59375 401.71875L552.59375 401.0625Q552.6719 400.35938 552.8594 399.8125Q553.0469 399.25 553.3594 398.85938Q553.6875 398.45312 554.1406 398.25Q554.6094 398.04688 555.2031 398.04688Q555.7969 398.04688 556.2656 398.28125Q556.7344 398.5 557.0469 398.9375Q557.3594 399.35938 557.5156 399.95312Q557.6875 400.54688 557.6875 401.28125ZM556.59375 401.40625L556.59375 401.28125Q556.59375 400.79688 556.4844 400.39062Q556.3906 399.96875 556.1875 399.65625Q555.9844 399.32812 555.65625 399.14062Q555.3281 398.95312 554.8906 398.95312Q554.4844 398.95312 554.1719 399.09375Q553.875 399.23438 553.65625 399.48438Q553.4531 399.71875 553.3125 400.01562Q553.1875 400.3125 553.125 400.64062L553.125 402.15625Q553.2344 402.5625 553.4375 402.92188Q553.65625 403.28125 554.0 403.5Q554.3594 403.71875 554.90625 403.71875Q555.34375 403.71875 555.65625 403.54688Q555.9844 403.35938 556.1875 403.04688Q556.3906 402.71875 556.4844 402.29688Q556.59375 401.875 556.59375 401.40625ZM560.40625 395.5L560.40625 404.5L559.3281 404.5L559.3281 395.5L560.40625 395.5ZM560.15625 401.09375L559.7031 401.07812Q559.7031 400.42188 559.8906 399.875Q560.0781 399.3125 560.4219 398.90625Q560.7656 398.5 561.2344 398.28125Q561.7031 398.04688 562.28125 398.04688Q562.75 398.04688 563.125 398.17188Q563.5 398.29688 563.7656 398.57812Q564.03125 398.84375 564.1719 399.28125Q564.3125 399.71875 564.3125 400.34375L564.3125 404.5L563.21875 404.5L563.21875 400.32812Q563.21875 399.82812 563.0781 399.53125Q562.9375 399.23438 562.65625 399.09375Q562.375 398.95312 561.9531 398.95312Q561.5469 398.95312 561.21875 399.125Q560.8906 399.29688 560.65625 399.59375Q560.4219 399.89062 560.28125 400.28125Q560.15625 400.65625 560.15625 401.09375ZM568.1094 403.84375L569.875 398.15625L571.03125 398.15625L568.4844 405.48438Q568.40625 405.71875 568.25 405.98438Q568.1094 406.26562 567.8906 406.5Q567.6719 406.75 567.3594 406.90625Q567.0469 407.0625 566.6094 407.0625Q566.4844 407.0625 566.28125 407.01562Q566.0781 406.98438 566.0 406.96875L566.0 406.09375Q566.0469 406.09375 566.1406 406.09375Q566.25 406.10938 566.28125 406.10938Q566.65625 406.10938 566.90625 406.01562Q567.1719 405.92188 567.34375 405.6875Q567.53125 405.46875 567.65625 405.07812L568.1094 403.84375ZM566.8125 398.15625L568.4531 403.07812L568.7344 404.21875L567.96875 404.625L565.625 398.15625L566.8125 398.15625ZM573.5 395.5L573.5 404.5L572.4219 404.5L572.4219 395.5L573.5 395.5ZM576.5 395.5L576.5 404.5L575.4219 404.5L575.4219 395.5L576.5 395.5ZM580.9531 404.625Q580.2969 404.625 579.75 404.40625Q579.21875 404.17188 578.8281 403.76562Q578.4531 403.34375 578.25 402.78125Q578.0469 402.21875 578.0469 401.54688L578.0469 401.3125Q578.0469 400.53125 578.2656 399.92188Q578.5 399.3125 578.8906 398.89062Q579.28125 398.46875 579.78125 398.26562Q580.28125 398.04688 580.8125 398.04688Q581.5 398.04688 581.9844 398.28125Q582.4844 398.51562 582.7969 398.9375Q583.125 399.34375 583.2656 399.92188Q583.4219 400.48438 583.4219 401.14062L583.4219 401.64062L578.6875 401.64062L578.6875 400.75L582.34375 400.75L582.34375 400.67188Q582.3125 400.25 582.15625 399.85938Q582.0156 399.45312 581.6875 399.20312Q581.375 398.9375 580.8125 398.9375Q580.4531 398.9375 580.1406 399.09375Q579.8281 399.25 579.59375 399.5625Q579.375 399.85938 579.25 400.29688Q579.1406 400.73438 579.1406 401.3125L579.1406 401.54688Q579.1406 402.0 579.2656 402.40625Q579.3906 402.79688 579.625 403.09375Q579.875 403.39062 580.21875 403.5625Q580.5781 403.73438 581.0156 403.73438Q581.59375 403.73438 581.9844 403.5Q582.3906 403.26562 582.6875 402.875L583.34375 403.39062Q583.1406 403.70312 582.8125 403.98438Q582.5 404.26562 582.03125 404.45312Q581.5781 404.625 580.9531 404.625ZM585.40625 399.51562L585.40625 404.5L584.3281 404.5L584.3281 398.15625L585.3594 398.15625L585.40625 399.51562ZM585.15625 401.09375L584.7031 401.07812Q584.7031 400.42188 584.8906 399.875Q585.0781 399.3125 585.4219 398.90625Q585.7656 398.5 586.2344 398.28125Q586.7031 398.04688 587.28125 398.04688Q587.75 398.04688 588.125 398.17188Q588.5 398.29688 588.7656 398.57812Q589.03125 398.84375 589.1719 399.28125Q589.3125 399.71875 589.3125 400.34375L589.3125 404.5L588.21875 404.5L588.21875 400.32812Q588.21875 399.82812 588.0781 399.53125Q587.9375 399.23438 587.65625 399.09375Q587.375 398.95312 586.9531 398.95312Q586.5469 398.95312 586.21875 399.125Q585.8906 399.29688 585.65625 399.59375Q585.4219 399.89062 585.28125 400.28125Q585.15625 400.65625 585.15625 401.09375Z" fill-rule="nonzero"/><path stroke="#cccccc" stroke-width="1.0" stroke-linecap="butt" d="M365.0 290.0L365.0 479.0" fill-rule="nonzero"/><path fill="#000000" d="M347.53125 509.67188L348.39062 509.67188Q349.20312 509.67188 349.76562 509.98438Q350.34375 510.28125 350.64062 510.8125Q350.95312 511.34375 350.95312 512.0156Q350.95312 512.84375 350.60938 513.4219Q350.26562 514.0 349.67188 514.3125Q349.07812 514.625 348.29688 514.625Q347.84375 514.625 347.39062 514.5Q346.9375 514.3594 346.5625 514.09375Q346.20312 513.8281 345.98438 513.40625Q345.76562 512.9844 345.76562 512.40625L346.1875 512.15625Q346.1875 512.59375 346.4375 512.9531Q346.70312 513.2969 347.14062 513.5156Q347.59375 513.7344 348.1875 513.7344Q348.71875 513.7344 349.09375 513.5156Q349.46875 513.2969 349.67188 512.9219Q349.875 512.53125 349.875 512.03125Q349.875 511.625 349.6875 511.25Q349.51562 510.85938 349.1875 510.60938Q348.85938 510.35938 348.375 510.35938L347.53125 510.35938L347.53125 509.67188ZM348.04688 505.84375Q348.8125 505.84375 349.375 506.14062Q349.9375 506.4375 350.23438 506.95312Q350.54688 507.46875 350.54688 508.14062Q350.54688 508.70312 350.23438 509.17188Q349.9375 509.625 349.375 509.90625Q348.8125 510.17188 348.04688 510.17188L347.53125 510.17188L347.53125 509.46875L348.03125 509.46875Q348.54688 509.46875 348.85938 509.29688Q349.17188 509.125 349.3125 508.82812Q349.46875 508.51562 349.46875 508.125Q349.46875 507.76562 349.3125 507.45312Q349.15625 507.14062 348.84375 506.9375Q348.53125 506.73438 348.04688 506.73438Q347.625 506.73438 347.28125 506.9375Q346.9375 507.125 346.73438 507.46875Q346.53125 507.79688 346.53125 508.21875L346.53125 516.75L345.4375 516.75L345.4375 508.21875Q345.4375 507.5625 345.79688 507.03125Q346.15625 506.48438 346.75 506.17188Q347.34375 505.84375 348.04688 505.84375ZM354.57812 510.42188L354.57812 511.3125L351.71875 511.3125L351.71875 510.42188L354.57812 510.42188ZM358.64062 511.15625L356.35938 511.15625L356.35938 510.23438L358.64062 510.23438Q359.29688 510.23438 359.70312 510.03125Q360.125 509.8125 360.3125 509.4375Q360.5 509.0625 360.5 508.57812Q360.5 508.14062 360.3125 507.76562Q360.125 507.375 359.70312 507.14062Q359.29688 506.89062 358.64062 506.89062L356.625 506.89062L356.625 514.5L355.48438 514.5L355.48438 505.96875L358.64062 505.96875Q359.60938 505.96875 360.26562 506.3125Q360.9375 506.64062 361.28125 507.23438Q361.625 507.8125 361.625 508.5625Q361.625 509.39062 361.28125 509.96875Q360.9375 510.54688 360.26562 510.85938Q359.60938 511.15625 358.64062 511.15625ZM364.5 508.15625L364.5 514.5L363.42188 514.5L363.42188 508.15625L364.5 508.15625ZM363.32812 506.48438Q363.32812 506.21875 363.48438 506.03125Q363.65625 505.84375 363.96875 505.84375Q364.28125 505.84375 364.4375 506.03125Q364.60938 506.21875 364.60938 506.48438Q364.60938 506.73438 364.4375 506.92188Q364.28125 507.09375 363.96875 507.09375Q363.65625 507.09375 363.48438 506.92188Q363.32812 506.73438 363.32812 506.48438ZM367.40625 509.51562L367.40625 514.5L366.32812 514.5L366.32812 508.15625L367.35938 508.15625L367.40625 509.51562ZM367.15625 511.09375L366.70312 511.07812Q366.70312 510.42188 366.89062 509.875Q367.07812 509.3125 367.42188 508.90625Q367.76562 508.5 368.23438 508.28125Q368.70312 508.04688 369.28125 508.04688Q369.75 508.04688 370.125 508.17188Q370.5 508.29688 370.76562 508.57812Q371.03125 508.84375 371.17188 509.28125Q371.3125 509.71875 371.3125 510.34375L371.3125 514.5L370.21875 514.5L370.21875 510.32812Q370.21875 509.82812 370.07812 509.53125Q369.9375 509.23438 369.65625 509.09375Q369.375 508.95312 368.95312 508.95312Q368.54688 508.95312 368.21875 509.125Q367.89062 509.29688 367.65625 509.59375Q367.42188 509.89062 367.28125 510.28125Q367.15625 510.65625 367.15625 511.09375ZM375.95312 514.625Q375.29688 514.625 374.75 514.40625Q374.21875 514.1719 373.82812 513.7656Q373.45312 513.34375 373.25 512.78125Q373.04688 512.21875 373.04688 511.54688L373.04688 511.3125Q373.04688 510.53125 373.26562 509.92188Q373.5 509.3125 373.89062 508.89062Q374.28125 508.46875 374.78125 508.26562Q375.28125 508.04688 375.8125 508.04688Q376.5 508.04688 376.98438 508.28125Q377.48438 508.51562 377.79688 508.9375Q378.125 509.34375 378.26562 509.92188Q378.42188 510.48438 378.42188 511.14062L378.42188 511.64062L373.6875 511.64062L373.6875 510.75L377.34375 510.75L377.34375 510.67188Q377.3125 510.25 377.15625 509.85938Q377.01562 509.45312 376.6875 509.20312Q376.375 508.9375 375.8125 508.9375Q375.45312 508.9375 375.14062 509.09375Q374.82812 509.25 374.59375 509.5625Q374.375 509.85938 374.25 510.29688Q374.14062 510.73438 374.14062 511.3125L374.14062 511.54688Q374.14062 512.0 374.26562 512.40625Q374.39062 512.7969 374.625 513.09375Q374.875 513.3906 375.21875 513.5625Q375.57812 513.7344 376.01562 513.7344Q376.59375 513.7344 376.98438 513.5Q377.39062 513.2656 377.6875 512.875L378.34375 513.3906Q378.14062 513.7031 377.8125 513.9844Q377.5 514.2656 377.03125 514.4531Q376.57812 514.625 375.95312 514.625ZM380.40625 509.51562L380.40625 514.5L379.32812 514.5L379.32812 508.15625L380.35938 508.15625L380.40625 509.51562ZM380.15625 511.09375L379.70312 511.07812Q379.70312 510.42188 379.89062 509.875Q380.07812 509.3125 380.42188 508.90625Q380.76562 508.5 381.23438 508.28125Q381.70312 508.04688 382.28125 508.04688Q382.75 508.04688 383.125 508.17188Q383.5 508.29688 383.76562 508.57812Q384.03125 508.84375 384.17188 509.28125Q384.3125 509.71875 384.3125 510.34375L384.3125 514.5L383.21875 514.5L383.21875 510.32812Q383.21875 509.82812 383.07812 509.53125Q382.9375 509.23438 382.65625 509.09375Q382.375 508.95312 381.95312 508.95312Q381.54688 508.95312 381.21875 509.125Q380.89062 509.29688 380.65625 509.59375Q380.42188 509.89062 380.28125 510.28125Q380.15625 510.65625 380.15625 511.09375Z" fill-rule="nonzero"/><path stroke="#cccccc" stroke-width="1.0" stroke-linecap="butt" d="M365.0 290.0L201.0 385.0" fill-rule="nonzero"/><path fill="#000000" d="M155.09375 401.5625L155.09375 401.4375Q155.09375 400.6875 155.25 400.07812Q155.42188 399.45312 155.73438 399.0Q156.04688 398.54688 156.5 398.29688Q156.96875 398.04688 157.5625 398.04688Q158.01562 398.04688 158.375 398.1875Q158.75 398.3125 159.03125 398.57812Q159.3125 398.82812 159.51562 399.20312Q159.71875 399.57812 159.84375 400.0625Q159.96875 400.53125 160.01562 401.09375L160.01562 401.57812Q159.95312 402.28125 159.76562 402.84375Q159.59375 403.40625 159.29688 403.8125Q159.0 404.20312 158.5625 404.42188Q158.14062 404.625 157.54688 404.625Q156.96875 404.625 156.5 404.40625Q156.04688 404.17188 155.73438 403.76562Q155.42188 403.34375 155.25 402.79688Q155.09375 402.23438 155.09375 401.5625ZM156.17188 401.4375L156.17188 401.5625Q156.17188 402.01562 156.26562 402.40625Q156.35938 402.79688 156.54688 403.09375Q156.75 403.39062 157.0625 403.5625Q157.39062 403.73438 157.82812 403.73438Q158.25 403.73438 158.54688 403.5625Q158.85938 403.375 159.0625 403.07812Q159.28125 402.78125 159.40625 402.39062Q159.54688 402.0 159.64062 401.59375L159.64062 401.20312Q159.57812 400.76562 159.4375 400.375Q159.3125 399.96875 159.09375 399.64062Q158.89062 399.3125 158.57812 399.125Q158.26562 398.9375 157.82812 398.9375Q157.39062 398.9375 157.07812 399.14062Q156.76562 399.32812 156.5625 399.67188Q156.35938 400.01562 156.26562 400.48438Q156.17188 400.9375 156.17188 401.4375ZM159.48438 398.15625L160.40625 398.15625L160.40625 402.76562Q160.40625 403.04688 160.4375 403.21875Q160.46875 403.375 160.53125 403.48438Q160.60938 403.57812 160.6875 403.625Q160.78125 403.65625 160.875 403.65625Q160.92188 403.65625 160.96875 403.64062Q161.03125 403.625 161.0625 403.60938L161.20312 404.42188Q161.01562 404.54688 160.84375 404.57812Q160.67188 404.625 160.48438 404.625Q160.20312 404.625 159.98438 404.51562Q159.78125 404.42188 159.625 404.20312Q159.46875 403.98438 159.39062 403.625Q159.3125 403.26562 159.3125 402.76562L159.3125 399.53125L159.48438 398.15625ZM164.57812 400.42188L164.57812 401.3125L161.71875 401.3125L161.71875 400.42188L164.57812 400.42188ZM168.64062 401.15625L166.35938 401.15625L166.35938 400.23438L168.64062 400.23438Q169.29688 400.23438 169.70312 400.03125Q170.125 399.8125 170.3125 399.4375Q170.5 399.0625 170.5 398.57812Q170.5 398.14062 170.3125 397.76562Q170.125 397.375 169.70312 397.14062Q169.29688 396.89062 168.64062 396.89062L166.625 396.89062L166.625 404.5L165.48438 404.5L165.48438 395.96875L168.64062 395.96875Q169.60938 395.96875 170.26562 396.3125Q170.9375 396.64062 171.28125 397.23438Q171.625 397.8125 171.625 398.5625Q171.625 399.39062 171.28125 399.96875Q170.9375 400.54688 170.26562 400.85938Q169.60938 401.15625 168.64062 401.15625ZM174.5 398.15625L174.5 404.5L173.42188 404.5L173.42188 398.15625L174.5 398.15625ZM173.32812 396.48438Q173.32812 396.21875 173.48438 396.03125Q173.65625 395.84375 173.96875 395.84375Q174.28125 395.84375 174.4375 396.03125Q174.60938 396.21875 174.60938 396.48438Q174.60938 396.73438 174.4375 396.92188Q174.28125 397.09375 173.96875 397.09375Q173.65625 397.09375 173.48438 396.92188Q173.32812 396.73438 173.32812 396.48438ZM177.40625 399.51562L177.40625 404.5L176.32812 404.5L176.32812 398.15625L177.35938 398.15625L177.40625 399.51562ZM177.15625 401.09375L176.70312 401.07812Q176.70312 400.42188 176.89062 399.875Q177.07812 399.3125 177.42188 398.90625Q177.76562 398.5 178.23438 398.28125Q178.70312 398.04688 179.28125 398.04688Q179.75 398.04688 180.125 398.17188Q180.5 398.29688 180.76562 398.57812Q181.03125 398.84375 181.17188 399.28125Q181.3125 399.71875 181.3125 400.34375L181.3125 404.5L180.21875 404.5L180.21875 400.32812Q180.21875 399.82812 180.07812 399.53125Q179.9375 399.23438 179.65625 399.09375Q179.375 398.95312 178.95312 398.95312Q178.54688 398.95312 178.21875 399.125Q177.89062 399.29688 177.65625 399.59375Q177.42188 399.89062 177.28125 400.28125Q177.15625 400.65625 177.15625 401.09375ZM185.95312 404.625Q185.29688 404.625 184.75 404.40625Q184.21875 404.17188 183.82812 403.76562Q183.45312 403.34375 183.25 402.78125Q183.04688 402.21875 183.04688 401.54688L183.04688 401.3125Q183.04688 400.53125 183.26562 399.92188Q183.5 399.3125 183.89062 398.89062Q184.28125 398.46875 184.78125 398.26562Q185.28125 398.04688 185.8125 398.04688Q186.5 398.04688 186.98438 398.28125Q187.48438 398.51562 187.79688 398.9375Q188.125 399.34375 188.26562 399.92188Q188.42188 400.48438 188.42188 401.14062L188.42188 401.64062L183.6875 401.64062L183.6875 400.75L187.34375 400.75L187.34375 400.67188Q187.3125 400.25 187.15625 399.85938Q187.01562 399.45312 186.6875 399.20312Q186.375 398.9375 185.8125 398.9375Q185.45312 398.9375 185.14062 399.09375Q184.82812 399.25 184.59375 399.5625Q184.375 399.85938 184.25 400.29688Q184.14062 400.73438 184.14062 401.3125L184.14062 401.54688Q184.14062 402.0 184.26562 402.40625Q184.39062 402.79688 184.625 403.09375Q184.875 403.39062 185.21875 403.5625Q185.57812 403.73438 186.01562 403.73438Q186.59375 403.73438 186.98438 403.5Q187.39062 403.26562 187.6875 402.875L188.34375 403.39062Q188.14062 403.70312 187.8125 403.98438Q187.5 404.26562 187.03125 404.45312Q186.57812 404.625 185.95312 404.625ZM190.40625 399.51562L190.40625 404.5L189.32812 404.5L189.32812 398.15625L190.35938 398.15625L190.40625 399.51562ZM190.15625 401.09375L189.70312 401.07812Q189.70312 400.42188 189.89062 399.875Q190.07812 399.3125 190.42188 398.90625Q190.76562 398.5 191.23438 398.28125Q191.70312 398.04688 192.28125 398.04688Q192.75 398.04688 193.125 398.17188Q193.5 398.29688 193.76562 398.57812Q194.03125 398.84375 194.17188 399.28125Q194.3125 399.71875 194.3125 400.34375L194.3125 404.5L193.21875 404.5L193.21875 400.32812Q193.21875 399.82812 193.07812 399.53125Q192.9375 399.23438 192.65625 399.09375Q192.375 398.95312 191.95312 398.95312Q191.54688 398.95312 191.21875 399.125Q190.89062 399.29688 190.65625 399.59375Q190.42188 399.89062 190.28125 400.28125Q190.15625 400.65625 190.15625 401.09375Z" fill-rule="nonzero"/><path stroke="#cccccc" stroke-width="1.0" stroke-linecap="butt" d="M365.0 290.0L201.0 195.0" fill-rule="nonzero"/><path fill="#000000" d="M157.03125 182.34375Q157.03125 182.04688 156.9375 181.8125Q156.85938 181.57812 156.625 181.39062Q156.40625 181.20312 156.0 181.03125Q155.60938 180.85938 155.01562 180.6875Q154.375 180.5 153.85938 180.28125Q153.35938 180.04688 152.98438 179.75Q152.625 179.4375 152.4375 179.0625Q152.25 178.67188 152.25 178.17188Q152.25 177.67188 152.45312 177.25Q152.65625 176.82812 153.03125 176.51562Q153.42188 176.20312 153.95312 176.03125Q154.48438 175.84375 155.14062 175.84375Q156.10938 175.84375 156.78125 176.21875Q157.45312 176.57812 157.79688 177.17188Q158.15625 177.76562 158.15625 178.42188L157.03125 178.42188Q157.03125 177.95312 156.8125 177.57812Q156.60938 177.20312 156.1875 177.0Q155.78125 176.78125 155.14062 176.78125Q154.54688 176.78125 154.14062 176.96875Q153.75 177.14062 153.5625 177.45312Q153.375 177.76562 153.375 178.15625Q153.375 178.42188 153.48438 178.65625Q153.60938 178.875 153.84375 179.0625Q154.09375 179.25 154.46875 179.40625Q154.84375 179.5625 155.375 179.70312Q156.09375 179.90625 156.625 180.17188Q157.15625 180.42188 157.5 180.73438Q157.84375 181.04688 158.0 181.4375Q158.17188 181.82812 158.17188 182.32812Q158.17188 182.85938 157.95312 183.28125Q157.75 183.70312 157.35938 184.0Q156.96875 184.29688 156.42188 184.46875Q155.875 184.625 155.20312 184.625Q154.60938 184.625 154.03125 184.45312Q153.46875 184.28125 153.0 183.95312Q152.53125 183.625 152.25 183.15625Q151.96875 182.67188 151.96875 182.03125L153.09375 182.03125Q153.09375 182.46875 153.26562 182.78125Q153.4375 183.09375 153.73438 183.29688Q154.03125 183.5 154.40625 183.60938Q154.78125 183.70312 155.20312 183.70312Q155.79688 183.70312 156.20312 183.54688Q156.60938 183.375 156.8125 183.07812Q157.03125 182.76562 157.03125 182.34375ZM159.04688 181.40625L159.04688 181.26562Q159.04688 180.57812 159.23438 180.0Q159.4375 179.40625 159.8125 178.96875Q160.1875 178.53125 160.71875 178.29688Q161.25 178.04688 161.92188 178.04688Q162.57812 178.04688 163.10938 178.29688Q163.65625 178.53125 164.03125 178.96875Q164.40625 179.40625 164.60938 180.0Q164.8125 180.57812 164.8125 181.26562L164.8125 181.40625Q164.8125 182.07812 164.60938 182.67188Q164.40625 183.25 164.03125 183.6875Q163.65625 184.125 163.125 184.375Q162.59375 184.625 161.92188 184.625Q161.26562 184.625 160.71875 184.375Q160.1875 184.125 159.8125 183.6875Q159.4375 183.25 159.23438 182.67188Q159.04688 182.07812 159.04688 181.40625ZM160.125 181.26562L160.125 181.40625Q160.125 181.875 160.23438 182.29688Q160.34375 182.71875 160.5625 183.04688Q160.79688 183.35938 161.14062 183.54688Q161.48438 183.71875 161.92188 183.71875Q162.375 183.71875 162.70312 183.54688Q163.04688 183.35938 163.26562 183.04688Q163.5 182.71875 163.60938 182.29688Q163.71875 181.875 163.71875 181.40625L163.71875 181.26562Q163.71875 180.79688 163.60938 180.375Q163.5 179.95312 163.26562 179.64062Q163.04688 179.3125 162.70312 179.125Q162.375 178.9375 161.92188 178.9375Q161.46875 178.9375 161.125 179.125Q160.79688 179.3125 160.5625 179.64062Q160.34375 179.95312 160.23438 180.375Q160.125 180.79688 160.125 181.26562ZM167.40625 179.51562L167.40625 184.5L166.32812 184.5L166.32812 178.15625L167.35938 178.15625L167.40625 179.51562ZM167.15625 181.09375L166.70312 181.07812Q166.70312 180.42188 166.89062 179.875Q167.07812 179.3125 167.42188 178.90625Q167.76562 178.5 168.23438 178.28125Q168.70312 178.04688 169.28125 178.04688Q169.75 178.04688 170.125 178.17188Q170.5 178.29688 170.76562 178.57812Q171.03125 178.84375 171.17188 179.28125Q171.3125 179.71875 171.3125 180.34375L171.3125 184.5L170.21875 184.5L170.21875 180.32812Q170.21875 179.82812 170.07812 179.53125Q169.9375 179.23438 169.65625 179.09375Q169.375 178.95312 168.95312 178.95312Q168.54688 178.95312 168.21875 179.125Q167.89062 179.29688 167.65625 179.59375Q167.42188 179.89062 167.28125 180.28125Q167.15625 180.65625 167.15625 181.09375ZM177.01562 182.8125Q177.01562 182.57812 176.90625 182.375Q176.8125 182.17188 176.5 182.01562Q176.1875 181.84375 175.5625 181.71875Q175.03125 181.60938 174.60938 181.46875Q174.1875 181.3125 173.89062 181.09375Q173.59375 180.875 173.4375 180.57812Q173.28125 180.28125 173.28125 179.89062Q173.28125 179.51562 173.4375 179.1875Q173.60938 178.84375 173.90625 178.59375Q174.21875 178.32812 174.65625 178.1875Q175.09375 178.04688 175.625 178.04688Q176.39062 178.04688 176.92188 178.3125Q177.46875 178.57812 177.75 179.03125Q178.03125 179.48438 178.03125 180.01562L176.95312 180.01562Q176.95312 179.76562 176.79688 179.51562Q176.64062 179.26562 176.34375 179.10938Q176.04688 178.9375 175.625 178.9375Q175.17188 178.9375 174.89062 179.07812Q174.60938 179.20312 174.48438 179.42188Q174.35938 179.625 174.35938 179.85938Q174.35938 180.04688 174.42188 180.1875Q174.48438 180.3125 174.64062 180.4375Q174.79688 180.54688 175.07812 180.65625Q175.375 180.75 175.82812 180.84375Q176.60938 181.01562 177.10938 181.26562Q177.60938 181.51562 177.85938 181.875Q178.10938 182.21875 178.10938 182.73438Q178.10938 183.15625 177.92188 183.5Q177.75 183.84375 177.42188 184.09375Q177.10938 184.34375 176.65625 184.48438Q176.20312 184.625 175.65625 184.625Q174.8125 184.625 174.23438 184.32812Q173.65625 184.01562 173.35938 183.54688Q173.0625 183.0625 173.0625 182.54688L174.14062 182.54688Q174.17188 182.98438 174.40625 183.25Q174.64062 183.51562 174.96875 183.625Q175.3125 183.71875 175.65625 183.71875Q176.09375 183.71875 176.39062 183.60938Q176.70312 183.48438 176.85938 183.28125Q177.01562 183.07812 177.01562 182.8125ZM181.98438 178.15625L181.98438 178.98438L178.54688 178.98438L178.54688 178.15625L181.98438 178.15625ZM179.71875 176.625L180.79688 176.625L180.79688 182.92188Q180.79688 183.25 180.89062 183.42188Q181.0 183.57812 181.15625 183.64062Q181.3125 183.6875 181.5 183.6875Q181.625 183.6875 181.76562 183.65625Q181.92188 183.625 182.0 183.60938L182.01562 184.5Q181.875 184.54688 181.67188 184.57812Q181.46875 184.625 181.17188 184.625Q180.78125 184.625 180.4375 184.46875Q180.10938 184.29688 179.90625 183.9375Q179.71875 183.5625 179.71875 182.92188L179.71875 176.625ZM184.5 178.15625L184.5 184.5L183.42188 184.5L183.42188 178.15625L184.5 178.15625ZM183.32812 176.48438Q183.32812 176.21875 183.48438 176.03125Q183.65625 175.84375 183.96875 175.84375Q184.28125 175.84375 184.4375 176.03125Q184.60938 176.21875 184.60938 176.48438Q184.60938 176.73438 184.4375 176.92188Q184.28125 177.09375 183.96875 177.09375Q183.65625 177.09375 183.48438 176.92188Q183.32812 176.73438 183.32812 176.48438ZM190.4375 178.15625L191.42188 178.15625L191.42188 184.35938Q191.42188 185.20312 191.07812 185.79688Q190.73438 186.39062 190.125 186.6875Q189.53125 187.0 188.73438 187.0Q188.40625 187.0 187.95312 186.89062Q187.51562 186.79688 187.09375 186.54688Q186.67188 186.3125 186.39062 185.90625L186.95312 185.25Q187.35938 185.73438 187.78125 185.92188Q188.21875 186.10938 188.65625 186.10938Q189.17188 186.10938 189.54688 185.90625Q189.92188 185.71875 190.125 185.34375Q190.32812 184.96875 190.32812 184.42188L190.32812 179.54688L190.4375 178.15625ZM186.0625 181.40625L186.0625 181.28125Q186.0625 180.54688 186.23438 179.95312Q186.42188 179.35938 186.73438 178.9375Q187.0625 178.5 187.51562 178.28125Q187.98438 178.04688 188.57812 178.04688Q189.17188 178.04688 189.60938 178.25Q190.0625 178.45312 190.375 178.85938Q190.6875 179.25 190.875 179.8125Q191.0625 180.35938 191.125 181.0625L191.125 181.60938Q191.0625 182.29688 190.875 182.85938Q190.6875 183.42188 190.375 183.8125Q190.0625 184.20312 189.60938 184.42188Q189.15625 184.625 188.5625 184.625Q187.98438 184.625 187.53125 184.39062Q187.07812 184.14062 186.75 183.70312Q186.42188 183.26562 186.23438 182.6875Q186.0625 182.09375 186.0625 181.40625ZM187.15625 181.28125L187.15625 181.40625Q187.15625 181.875 187.25 182.29688Q187.34375 182.70312 187.54688 183.03125Q187.75 183.34375 188.0625 183.53125Q188.39062 183.70312 188.82812 183.70312Q189.35938 183.70312 189.70312 183.46875Q190.0625 183.23438 190.26562 182.85938Q190.48438 182.48438 190.59375 182.04688L190.59375 180.64062Q190.53125 180.3125 190.39062 180.01562Q190.26562 179.71875 190.0625 179.48438Q189.85938 179.23438 189.54688 179.09375Q189.25 178.95312 188.82812 178.95312Q188.39062 178.95312 188.0625 179.14062Q187.75 179.32812 187.54688 179.65625Q187.34375 179.96875 187.25 180.39062Q187.15625 180.79688 187.15625 181.28125ZM195.95312 184.625Q195.29688 184.625 194.75 184.40625Q194.21875 184.17188 193.82812 183.76562Q193.45312 183.34375 193.25 182.78125Q193.04688 182.21875 193.04688 181.54688L193.04688 181.3125Q193.04688 180.53125 193.26562 179.92188Q193.5 179.3125 193.89062 178.89062Q194.28125 178.46875 194.78125 178.26562Q195.28125 178.04688 195.8125 178.04688Q196.5 178.04688 196.98438 178.28125Q197.48438 178.51562 197.79688 178.9375Q198.125 179.34375 198.26562 179.92188Q198.42188 180.48438 198.42188 181.14062L198.42188 181.64062L193.6875 181.64062L193.6875 180.75L197.34375 180.75L197.34375 180.67188Q197.3125 180.25 197.15625 179.85938Q197.01562 179.45312 196.6875 179.20312Q196.375 178.9375 195.8125 178.9375Q195.45312 178.9375 195.14062 179.09375Q194.82812 179.25 194.59375 179.5625Q194.375 179.85938 194.25 180.29688Q194.14062 180.73438 194.14062 181.3125L194.14062 181.54688Q194.14062 182.0 194.26562 182.40625Q194.39062 182.79688 194.625 183.09375Q194.875 183.39062 195.21875 183.5625Q195.57812 183.73438 196.01562 183.73438Q196.59375 183.73438 196.98438 183.5Q197.39062 183.26562 197.6875 182.875L198.34375 183.39062Q198.14062 183.70312 197.8125 183.98438Q197.5 184.26562 197.03125 184.45312Q196.57812 184.625 195.95312 184.625Z" fill-rule="nonzero"/><path stroke="#cccccc" stroke-width="1.0" stroke-linecap="butt" d="M365.0 290.0L365.0 101.0" fill-rule="nonzero"/><path stroke="#ff0000" stroke-width="2.0" stroke-linecap="butt" stroke-opacity="0.7019608" stroke-dasharray="8.0,6.0,2.0,6.0" d="M365.0 77.0L467.0 231.0L390.0 304.0L365.0 314.0L349.0 299.0L308.0 257.0Z" fill-rule="nonzero"/><path fill="#ff0000" fill-opacity="0.7019608" d="M365.0 72.5L368.89713 74.75L368.89713 79.25L365.0 81.5L361.10287 79.25L361.10287 74.75Z" fill-rule="nonzero"/><path fill="#ff0000" fill-opacity="0.7019608" d="M467.0 226.5L470.89713 228.75L470.89713 233.25L467.0 235.5L463.10287 233.25L463.10287 228.75Z" fill-rule="nonzero"/><path fill="#ff0000" fill-opacity="0.7019608" d="M390.0 299.5L393.89713 301.75L393.89713 306.25L390.0 308.5L386.10287 306.25L386.10287 301.75Z" fill-rule="nonzero"/><path fill="#ff0000" fill-opacity="0.7019608" d="M365.0 309.5L368.89713 311.75L368.89713 316.25L365.0 318.5L361.10287 316.25L361.10287 311.75Z" fill-rule="nonzero"/><path fill="#ff0000" fill-opacity="0.7019608" d="M349.0 294.5L352.89713 296.75L352.89713 301.25L349.0 303.5L345.10287 301.25L345.10287 296.75Z" fill-rule="nonzero"/><path fill="#ff0000" fill-opacity="0.7019608" d="M308.0 252.5L311.89713 254.75L311.89713 259.25L308.0 261.5L304.10287 259.25L304.10287 254.75Z" fill-rule="nonzero"/><path fill="#757575" d="M39.665627 39.884377L41.55625 40.353127Q40.9625 42.696877 39.415627 43.93125Q37.86875 45.15 35.61875 45.15Q33.30625 45.15 31.853125 44.2125Q30.415625 43.259377 29.65 41.478127Q28.9 39.68125 28.9 37.634377Q28.9 35.4 29.74375 33.74375Q30.603125 32.071877 32.18125 31.212502Q33.759377 30.337502 35.65 30.337502Q37.80625 30.337502 39.259377 31.431252Q40.728127 32.525 41.30625 34.509377L39.446877 34.946877Q38.946877 33.384377 37.99375 32.68125Q37.05625 31.962502 35.61875 31.962502Q33.9625 31.962502 32.853127 32.759377Q31.74375 33.540627 31.290625 34.884377Q30.853125 36.2125 30.853125 37.61875Q30.853125 39.446877 31.384375 40.821877Q31.915625 42.18125 33.040627 42.853127Q34.165627 43.525 35.4625 43.525Q37.05625 43.525 38.165627 42.603127Q39.275 41.68125 39.665627 39.884377ZM42.540627 40.603127L42.540627 38.8375L47.93125 38.8375L47.93125 40.603127L42.540627 40.603127ZM55.36875 44.9L55.36875 41.478127L49.15 41.478127L49.15 39.853127L55.68125 30.587502L57.11875 30.587502L57.11875 39.853127L59.05625 39.853127L59.05625 41.478127L57.11875 41.478127L57.11875 44.9L55.36875 44.9ZM55.36875 39.853127L55.36875 33.4L50.884377 39.853127L55.36875 39.853127ZM60.853127 32.4625L60.853127 30.775002L70.11875 30.775002L70.11875 32.134377Q68.74375 33.5875 67.4 36.009377Q66.05625 38.415627 65.3375 40.9625Q64.80625 42.759377 64.65 44.9L62.853127 44.9Q62.884377 43.2125 63.509377 40.821877Q64.15 38.43125 65.3375 36.2125Q66.525 33.978127 67.85313 32.4625L60.853127 32.4625Z" fill-rule="nonzero"/></svg>