<svg version="1.1" viewBox="0.0 0.0 730.0 538.0" fill="none" stroke="none" stroke-linecap="square" stroke-miterlimit="10" width="730" height="538" xmlns:xlink="http://www.w3.org/1999/xlink" xmlns="http://www.w3.org/2000/svg"><path fill="#ffffff" d="M0 0L730.0 0L730.0 538.0L0 538.0L0 0Z" fill-rule="nonzero"/><path fill="#ffffff" d="M26.9 68.833336L703.10004 68.833336L703.10004 511.1L26.9 511.1L26.9 68.833336Z" fill-rule="nonzero"/><path stroke="#cccccc" stroke-width="1.0" stroke-linecap="butt" d="M365.0 290.0C365.0 290.0 365.0 290.0 365.0 290.0C365.0 290.0 365.0 290.0 365.0 290.0C365.0 290.0 365.0 290.0 365.0 290.0C365.0 290.0 365.0 290.0 365.0 290.0" fill-rule="nonzero"/><path fill="#000000" d="M353.0625 282.04688L353.0625 283.35938Q353.0625 284.40625 352.875 285.125Q352.6875 285.84375 352.32812 286.28125Q351.98438 286.71875 351.48438 286.92188Q351.0 287.125 350.375 287.125Q349.89062 287.125 349.46875 287.0Q349.04688 286.875 348.71875 286.60938Q348.39062 286.32812 348.15625 285.89062Q347.92188 285.45312 347.79688 284.82812Q347.67188 284.1875 347.67188 283.35938L347.67188 282.04688Q347.67188 281.0 347.85938 280.29688Q348.0625 279.59375 348.40625 279.15625Q348.76562 278.71875 349.25 278.53125Q349.75 278.34375 350.35938 278.34375Q350.85938 278.34375 351.28125 278.46875Q351.70312 278.59375 352.03125 278.85938Q352.35938 279.10938 352.57812 279.54688Q352.8125 279.96875 352.9375 280.59375Q353.0625 281.21875 353.0625 282.04688ZM351.96875 283.53125L351.96875 281.875Q351.96875 281.29688 351.90625 280.85938Q351.84375 280.42188 351.70312 280.10938Q351.57812 279.79688 351.375 279.60938Q351.1875 279.42188 350.9375 279.32812Q350.6875 279.23438 350.35938 279.23438Q349.98438 279.23438 349.67188 279.375Q349.375 279.51562 349.17188 279.82812Q348.96875 280.14062 348.85938 280.65625Q348.76562 281.15625 348.76562 281.875L348.76562 283.53125Q348.76562 284.10938 348.82812 284.54688Q348.90625 284.98438 349.03125 285.3125Q349.17188 285.625 349.35938 285.82812Q349.5625 286.03125 349.8125 286.125Q350.0625 286.21875 350.375 286.21875Q350.78125 286.21875 351.07812 286.07812Q351.375 285.92188 351.57812 285.59375Q351.78125 285.26562 351.875 284.76562Q351.96875 284.25 351.96875 283.53125ZM355.8125 285.70312L355.8125 286.57812Q355.8125 287.125 355.53125 287.71875Q355.26562 288.3125 354.78125 288.70312L354.17188 288.28125Q354.35938 288.01562 354.48438 287.75Q354.60938 287.48438 354.67188 287.20312Q354.75 286.92188 354.75 286.59375L354.75 285.70312L355.8125 285.70312ZM362.0625 282.04688L362.0625 283.35938Q362.0625 284.40625 361.875 285.125Q361.6875 285.84375 361.32812 286.28125Q360.98438 286.71875 360.48438 286.92188Q360.0 287.125 359.375 287.125Q358.89062 287.125 358.46875 287.0Q358.04688 286.875 357.71875 286.60938Q357.39062 286.32812 357.15625 285.89062Q356.92188 285.45312 356.79688 284.82812Q356.67188 284.1875 356.67188 283.35938L356.67188 282.04688Q356.67188 281.0 356.85938 280.29688Q357.0625 279.59375 357.40625 279.15625Q357.76562 278.71875 358.25 278.53125Q358.75 278.34375 359.35938 278.34375Q359.85938 278.34375 360.28125 278.46875Q360.70312 278.59375 361.03125 278.85938Q361.35938 279.10938 361.57812 279.54688Q361.8125 279.96875 361.9375 280.59375Q362.0625 281.21875 362.0625 282.04688ZM360.96875 283.53125L360.96875 281.875Q360.96875 281.29688 360.90625 280.85938Q360.84375 280.42188 360.70312 280.10938Q360.57812 279.79688 360.375 279.60938Q360.1875 279.42188 359.9375 279.32812Q359.6875 279.23438 359.35938 279.23438Q358.98438 279.23438 358.67188 279.375Q358.375 279.51562 358.17188 279.82812Q357.96875 280.14062 357.85938 280.65625Q357.76562 281.15625 357.76562 281.875L357.76562 283.53125Q357.76562 284.10938 357.82812 284.54688Q357.90625 284.98438 358.03125 285.3125Q358.17188 285.625 358.35938 285.82812Q358.5625 286.03125 358.8125 286.125Q359.0625 286.21875 359.375 286.21875Q359.78125 286.21875 360.07812 286.07812Q360.375 285.92188 360.57812 285.59375Q360.78125 285.26562 360.875 284.76562Q360.96875 284.25 360.96875 283.53125Z" fill-rule="nonzero"/><path stroke="#cccccc" stroke-width="1.0" stroke-linecap="butt" d="M412.28333 290.0C412.28333 263.88614 391.11386 242.71666 365.0 242.71666C338.88614 242.71666 317.71667 263.88614 317.71667 290.0C317.71667 316.11386 338.88614 337.28333 365.0 337.28333C391.11386 337.28333 412.28333 316.11386 412.28333 290.0" fill-rule="nonzero"/><path fill="#000000" d="M353.0625 234.76353L353.0625 236.07603Q353.0625 237.12291 352.875 237.84166Q352.6875 238.56041 352.32812 238.99791Q351.98438 239.43541 351.48438 239.63853Q351.0 239.84166 350.375 239.84166Q349.89062 239.84166 349.46875 239.71666Q349.04688 239.59166 348.71875 239.32603Q348.39062 239.04478 348.15625 238.60728Q347.92188 238.16978 347.79688 237.54478Q347.67188 236.90416 347.67188 236.07603L347.67188 234.76353Q347.67188 233.71666 347.85938 233.01353Q348.0625 232.31041 348.40625 231.87291Q348.76562 231.43541 349.25 231.24791Q349.75 231.06041 350.35938 231.06041Q350.85938 231.06041 351.28125 231.18541Q351.70312 231.31041 352.03125 231.57603Q352.35938 231.82603 352.57812 232.26353Q352.8125 232.68541 352.9375 233.31041Q353.0625 233.93541 353.0625 234.76353ZM351.96875 236.24791L351.96875 234.59166Q351.96875 234.01353 351.90625 233.57603Q351.84375 233.13853 351.70312 232.82603Q351.57812 232.51353 351.375 232.32603Q351.1875 232.13853 350.9375 232.04478Q350.6875 231.95103 350.35938 231.95103Q349.98438 231.95103 349.67188 232.09166Q349.375 232.23228 349.17188 232.54478Q348.96875 232.85728 348.85938 233.37291Q348.76562 233.87291 348.76562 234.59166L348.76562 236.24791Q348.76562 236.82603 348.82812 237.26353Q348.90625 237.70103 349.03125 238.02916Q349.17188 238.34166 349.35938 238.54478Q349.5625 238.74791 349.8125 238.84166Q350.0625 238.93541 350.375 238.93541Q350.78125 238.93541 351.07812 238.79478Q351.375 238.63853 351.57812 238.31041Q351.78125 237.98228 351.875 237.48228Q351.96875 236.96666 351.96875 236.24791ZM355.8125 238.41978L355.8125 239.29478Q355.8125 239.84166 355.53125 240.43541Q355.26562 241.02916 354.78125 241.41978L354.17188 240.99791Q354.35938 240.73228 354.48438 240.46666Q354.60938 240.20103 354.67188 239.91978Q354.75 239.63853 354.75 239.31041L354.75 238.41978L355.8125 238.41978ZM360.26562 231.13853L360.26562 239.71666L359.1875 239.71666L359.1875 232.49791L357.0 233.29478L357.0 232.31041L360.10938 231.13853L360.26562 231.13853Z" fill-rule="nonzero"/><path stroke="#cccccc" stroke-width="1.0" stroke-linecap="butt" d="M459.56668 290.0C459.56668 237.77228 417.22772 195.43333 365.0 195.43333C312.77228 195.43333 270.43332 237.77228 270.43332 290.0C270.43332 342.22772 312.77228 384.56668 365.0 384.56668C417.22772 384.56668 459.56668 342.22772 459.56668 290.0" fill-rule="nonzero"/><path fill="#000000" d="M353.0625 187.48021L353.0625 188.79271Q353.0625 189.83958 352.875 190.55833Q352.6875 191.27708 352.32812 191.71458Q351.98438 192.15208 351.48438 192.35521Q351.0 192.55833 350.375 192.55833Q349.89062 192.55833 349.46875 192.43333Q349.04688 192.30833 348.71875 192.04271Q348.39062 191.76146 348.15625 191.32396Q347.92188 190.88646 347.79688 190.26146Q347.67188 189.62083 347.67188 188.79271L347.67188 187.48021Q347.67188 186.43333 347.85938 185.73021Q348.0625 185.02708 348.40625 184.58958Q348.76562 184.15208 349.25 183.96458Q349.75 183.77708 350.35938 183.77708Q350.85938 183.77708 351.28125 183.90208Q351.70312 184.02708 352.03125 184.29271Q352.35938 184.54271 352.57812 184.98021Q352.8125 185.40208 352.9375 186.02708Q353.0625 186.65208 353.0625 187.48021ZM351.96875 188.96458L351.96875 187.30833Q351.96875 186.73021 351.90625 186.29271Q351.84375 185.85521 351.70312 185.54271Q351.57812 185.23021 351.375 185.04271Q351.1875 184.85521 350.9375 184.76146Q350.6875 184.66771 350.35938 184.66771Q349.98438 184.66771 349.67188 184.80833Q349.375 184.94896 349.17188 185.26146Q348.96875 185.57396 348.85938 186.08958Q348.76562 186.58958 348.76562 187.30833L348.76562 188.96458Q348.76562 189.54271 348.82812 189.98021Q348.90625 190.41771 349.03125 190.74583Q349.17188 191.05833 349.35938 191.26146Q349.5625 191.46458 349.8125 191.55833Q350.0625 191.65208 350.375 191.65208Q350.78125 191.65208 351.07812 191.51146Q351.375 191.35521 351.57812 191.02708Q351.78125 190.69896 351.875 190.19896Q351.96875 189.68333 351.96875 188.96458ZM355.8125 191.13646L355.8125 192.01146Q355.8125 192.55833 355.53125 193.15208Q355.26562 193.74583 354.78125 194.13646L354.17188 193.71458Q354.35938 193.44896 354.48438 193.18333Q354.60938 192.91771 354.67188 192.63646Q354.75 192.35521 354.75 192.02708L354.75 191.13646L355.8125 191.13646ZM362.29688 191.54271L362.29688 192.43333L356.71875 192.43333L356.71875 191.65208L359.51562 188.54271Q360.03125 187.96458 360.3125 187.57396Q360.59375 187.16771 360.70312 186.85521Q360.82812 186.52708 360.82812 186.19896Q360.82812 185.77708 360.65625 185.43333Q360.48438 185.08958 360.14062 184.88646Q359.8125 184.66771 359.32812 184.66771Q358.76562 184.66771 358.39062 184.90208Q358.01562 185.12083 357.82812 185.51146Q357.64062 185.90208 357.64062 186.40208L356.54688 186.40208Q356.54688 185.68333 356.85938 185.08958Q357.1875 184.49583 357.79688 184.13646Q358.42188 183.77708 359.32812 183.77708Q360.14062 183.77708 360.71875 184.07396Q361.29688 184.35521 361.59375 184.87083Q361.90625 185.37083 361.90625 186.05833Q361.90625 186.43333 361.78125 186.82396Q361.65625 187.19896 361.4375 187.58958Q361.21875 187.96458 360.92188 188.33958Q360.64062 188.69896 360.3125 189.05833L358.01562 191.54271L362.29688 191.54271Z" fill-rule="nonzero"/><path stroke="#cccccc" stroke-width="1.0" stroke-linecap="butt" d="M506.85 290.0C506.85 211.6584 443.34158 148.15 365.0 148.15C286.65842 148.15 223.15 211.6584 223.15 290.0C223.15 368.34158 286.65842 431.85 365.0 431.85C443.34158 431.85 506.85 368.34158 506.85 290.0" fill-rule="nonzero"/><path fill="#000000" d="M353.0625 140.19687L353.0625 141.50937Q353.0625 142.55624 352.875 143.275Q352.6875 143.99374 352.32812 144.43124Q351.98438 144.86874 351.48438 145.07187Q351.0 145.275 350.375 145.275Q349.89062 145.275 349.46875 145.15Q349.04688 145.025 348.71875 144.75937Q348.39062 144.47812 348.15625 144.04062Q347.92188 143.60312 347.79688 142.97812Q347.67188 142.3375 347.67188 141.50937L347.67188 140.19687Q347.67188 139.15 347.85938 138.44687Q348.0625 137.74374 348.40625 137.30624Q348.76562 136.86874 349.25 136.68124Q349.75 136.49374 350.35938 136.49374Q350.85938 136.49374 351.28125 136.61874Q351.70312 136.74374 352.03125 137.00937Q352.35938 137.25937 352.57812 137.69687Q352.8125 138.11874 352.9375 138.74374Q353.0625 139.36874 353.0625 140.19687ZM351.96875 141.68124L351.96875 140.025Q351.96875 139.44687 351.90625 139.00937Q351.84375 138.57187 351.70312 138.25937Q351.57812 137.94687 351.375 137.75937Q351.1875 137.57187 350.9375 137.47812Q350.6875 137.38437 350.35938 137.38437Q349.98438 137.38437 349.67188 137.525Q349.375 137.66562 349.17188 137.97812Q348.96875 138.29062 348.85938 138.80624Q348.76562 139.30624 348.76562 140.025L348.76562 141.68124Q348.76562 142.25937 348.82812 142.69687Q348.90625 143.13437 349.03125 143.4625Q349.17188 143.775 349.35938 143.97812Q349.5625 144.18124 349.8125 144.275Q350.0625 144.36874 350.375 144.36874Q350.78125 144.36874 351.07812 144.22812Q351.375 144.07187 351.57812 143.74374Q351.78125 143.41562 351.875 142.91562Q351.96875 142.4 351.96875 141.68124ZM355.8125 143.85312L355.8125 144.72812Q355.8125 145.275 355.53125 145.86874Q355.26562 146.4625 354.78125 146.85312L354.17188 146.43124Q354.35938 146.16562 354.48438 145.9Q354.60938 145.63437 354.67188 145.35312Q354.75 145.07187 354.75 144.74374L354.75 143.85312L355.8125 143.85312ZM358.29688 140.35312L359.0625 140.35312Q359.64062 140.35312 360.0 140.16562Q360.375 139.9625 360.5625 139.63437Q360.75 139.30624 360.75 138.88437Q360.75 138.4 360.57812 138.07187Q360.42188 137.72812 360.09375 137.55624Q359.76562 137.38437 359.26562 137.38437Q358.79688 137.38437 358.45312 137.57187Q358.10938 137.74374 357.90625 138.07187Q357.71875 138.4 357.71875 138.85312L356.625 138.85312Q356.625 138.19687 356.95312 137.66562Q357.28125 137.13437 357.875 136.82187Q358.46875 136.49374 359.26562 136.49374Q360.03125 136.49374 360.60938 136.775Q361.1875 137.04062 361.51562 137.5875Q361.84375 138.11874 361.84375 138.91562Q361.84375 139.24374 361.6875 139.60312Q361.53125 139.9625 361.21875 140.29062Q360.90625 140.60312 360.40625 140.80624Q359.92188 141.00937 359.21875 141.00937L358.29688 141.00937L358.29688 140.35312ZM358.29688 141.24374L358.29688 140.5875L359.21875 140.5875Q360.03125 140.5875 360.5625 140.79062Q361.09375 140.97812 361.40625 141.30624Q361.71875 141.61874 361.84375 142.00937Q361.96875 142.38437 361.96875 142.775Q361.96875 143.36874 361.76562 143.8375Q361.5625 144.29062 361.1875 144.61874Q360.82812 144.93124 360.32812 145.10312Q359.84375 145.275 359.26562 145.275Q358.70312 145.275 358.21875 145.11874Q357.73438 144.94687 357.35938 144.65Q356.98438 144.35312 356.76562 143.91562Q356.5625 143.4625 356.5625 142.9L357.64062 142.9Q357.64062 143.3375 357.82812 143.68124Q358.03125 144.00937 358.39062 144.19687Q358.76562 144.36874 359.26562 144.36874Q359.76562 144.36874 360.125 144.19687Q360.48438 144.025 360.67188 143.68124Q360.875 143.32187 360.875 142.79062Q360.875 142.25937 360.65625 141.91562Q360.4375 141.57187 360.01562 141.41562Q359.60938 141.24374 359.0625 141.24374L358.29688 141.24374Z" fill-rule="nonzero"/><path stroke="#cccccc" stroke-width="1.0" stroke-linecap="butt" d="M554.13336 290.0C554.13336 185.54454 469.45544 100.86667 365.0 100.86667C260.54456 100.86667 175.86667 185.54454 175.86667 290.0C175.86667 394.45544 260.54456 479.13333 365.0 479.13333C469.45544 479.13333 554.13336 394.45544 554.13336 290.0" fill-rule="nonzero"/><path fill="#000000" d="M353.0625 92.91354L353.0625 94.22604Q353.0625 95.27292 352.875 95.99167Q352.6875 96.71042 352.32812 97.14792Q351.98438 97.58542 351.48438 97.78854Q351.0 97.99167 350.375 97.99167Q349.89062 97.99167 349.46875 97.86667Q349.04688 97.74167 348.71875 97.47604Q348.39062 97.19479 348.15625 96.75729Q347.92188 96.31979 347.79688 95.69479Q347.67188 95.05417 347.67188 94.22604L347.67188 92.91354Q347.67188 91.86667 347.85938 91.16354Q348.0625 90.46042 348.40625 90.02292Q348.76562 89.58542 349.25 89.39792Q349.75 89.21042 350.35938 89.21042Q350.85938 89.21042 351.28125 89.33542Q351.70312 89.46042 352.03125 89.72604Q352.35938 89.97604 352.57812 90.41354Q352.8125 90.83542 352.9375 91.46042Q353.0625 92.08542 353.0625 92.91354ZM351.96875 94.39792L351.96875 92.74167Q351.96875 92.16354 351.90625 91.72604Q351.84375 91.28854 351.70312 90.97604Q351.57812 90.66354 351.375 90.47604Q351.1875 90.28854 350.9375 90.19479Q350.6875 90.10104 350.35938 90.10104Q349.98438 90.10104 349.67188 90.24167Q349.375 90.38229 349.17188 90.69479Q348.96875 91.00729 348.85938 91.52292Q348.76562 92.02292 348.76562 92.74167L348.76562 94.39792Q348.76562 94.97604 348.82812 95.41354Q348.90625 95.85104 349.03125 96.17917Q349.17188 96.49167 349.35938 96.69479Q349.5625 96.89792 349.8125 96.99167Q350.0625 97.08542 350.375 97.08542Q350.78125 97.08542 351.07812 96.94479Q351.375 96.78854 351.57812 96.46042Q351.78125 96.13229 351.875 95.63229Q351.96875 95.11667 351.96875 94.39792ZM355.8125 96.56979L355.8125 97.44479Q355.8125 97.99167 355.53125 98.58542Q355.26562 99.17917 354.78125 99.56979L354.17188 99.14792Q354.35938 98.88229 354.48438 98.61667Q354.60938 98.35104 354.67188 98.06979Q354.75 97.78854 354.75 97.46042L354.75 96.56979L355.8125 96.56979ZM362.46875 94.99167L362.46875 95.88229L356.3125 95.88229L356.3125 95.24167L360.125 89.33542L361.01562 89.33542L360.0625 91.03854L357.54688 94.99167L362.46875 94.99167ZM361.28125 89.33542L361.28125 97.86667L360.20312 97.86667L360.20312 89.33542L361.28125 89.33542Z" fill-rule="nonzero"/><path stroke="#cccccc" stroke-width="1.0" stroke-linecap="butt" d="M365.0 290.0L365.0 101.0" fill-rule="nonzero"/><path fill="#000000" d="M348.03125 72.34375Q348.03125 72.046875 347.9375 71.8125Q347.85938 71.578125 347.625 71.390625Q347.40625 71.203125 347.0 71.03125Q346.60938 70.859375 346.01562 70.6875Q345.375 70.5 344.85938 70.28125Q344.35938 70.046875 343.98438 69.75Q343.625 69.4375 343.4375 69.0625Q343.25 68.671875 343.25 68.171875Q343.25 67.671875 343.45312 67.25Q343.65625 66.828125 344.03125 66.515625Q344.42188 66.203125 344.95312 66.03125Q345.48438 65.84375 346.14062 65.84375Q347.10938 65.84375 347.78125 66.21875Q348.45312 66.578125 348.79688 67.171875Q349.15625 67.765625 349.15625 68.421875L348.03125 68.421875Q348.03125 67.953125 347.8125 67.578125Q347.60938 67.203125 347.1875 67.0Q346.78125 66.78125 346.14062 66.78125Q345.54688 66.78125 345.14062 66.96875Q344.75 67.140625 344.5625 67.453125Q344.375 67.765625 344.375 68.15625Q344.375 68.421875 344.48438 68.65625Q344.60938 68.875 344.84375 69.0625Q345.09375 69.25 345.46875 69.40625Q345.84375 69.5625 346.375 69.703125Q347.09375 69.90625 347.625 70.171875Q348.15625 70.421875 348.5 70.734375Q348.84375 71.046875 349.0 71.4375Q349.17188 71.828125 349.17188 72.328125Q349.17188 72.859375 348.95312 73.28125Q348.75 73.703125 348.35938 74.0Q347.96875 74.296875 347.42188 74.46875Q346.875 74.625 346.20312 74.625Q345.60938 74.625 345.03125 74.453125Q344.46875 74.28125 344.0 73.953125Q343.53125 73.625 343.25 73.15625Q342.96875 72.671875 342.96875 72.03125L344.09375 72.03125Q344.09375 72.46875 344.26562 72.78125Q344.4375 73.09375 344.73438 73.296875Q345.03125 73.5 345.40625 73.609375Q345.78125 73.703125 346.20312 73.703125Q346.79688 73.703125 347.20312 73.546875Q347.60938 73.375 347.8125 73.078125Q348.03125 72.765625 348.03125 72.34375ZM352.95312 74.625Q352.29688 74.625 351.75 74.40625Q351.21875 74.171875 350.82812 73.765625Q350.45312 73.34375 350.25 72.78125Q350.04688 72.21875 350.04688 71.546875L350.04688 71.3125Q350.04688 70.53125 350.26562 69.921875Q350.5 69.3125 350.89062 68.890625Q351.28125 68.46875 351.78125 68.265625Q352.28125 68.046875 352.8125 68.046875Q353.5 68.046875 353.98438 68.28125Q354.48438 68.515625 354.79688 68.9375Q355.125 69.34375 355.26562 69.921875Q355.42188 70.484375 355.42188 71.140625L355.42188 71.640625L350.6875 71.640625L350.6875 70.75L354.34375 70.75L354.34375 70.671875Q354.3125 70.25 354.15625 69.859375Q354.01562 69.453125 353.6875 69.203125Q353.375 68.9375 352.8125 68.9375Q352.45312 68.9375 352.14062 69.09375Q351.82812 69.25 351.59375 69.5625Q351.375 69.859375 351.25 70.296875Q351.14062 70.734375 351.14062 71.3125L351.14062 71.546875Q351.14062 72.0 351.26562 72.40625Q351.39062 72.796875 351.625 73.09375Q351.875 73.390625 352.21875 73.5625Q352.57812 73.734375 353.01562 73.734375Q353.59375 73.734375 353.98438 73.5Q354.39062 73.265625 354.6875 72.875L355.34375 73.390625Q355.14062 73.703125 354.8125 73.984375Q354.5 74.265625 354.03125 74.453125Q353.57812 74.625 352.95312 74.625ZM357.5 65.5L357.5 74.5L356.42188 74.5L356.42188 65.5L357.5 65.5ZM360.5 68.15625L360.5 74.5L359.42188 74.5L359.42188 68.15625L360.5 68.15625ZM359.32812 66.484375Q359.32812 66.21875 359.48438 66.03125Q359.65625 65.84375 359.96875 65.84375Q360.28125 65.84375 360.4375 66.03125Q360.60938 66.21875 360.60938 66.484375Q360.60938 66.734375 360.4375 66.921875Q360.28125 67.09375 359.96875 67.09375Q359.65625 67.09375 359.48438 66.921875Q359.32812 66.734375 359.32812 66.484375ZM363.40625 69.515625L363.40625 74.5L362.32812 74.5L362.32812 68.15625L363.35938 68.15625L363.40625 69.515625ZM363.15625 71.09375L362.70312 71.078125Q362.70312 70.421875 362.89062 69.875Q363.07812 69.3125 363.42188 68.90625Q363.76562 68.5 364.23438 68.28125Q364.70312 68.046875 365.28125 68.046875Q365.75 68.046875 366.125 68.171875Q366.5 68.296875 366.76562 68.578125Q367.03125 68.84375 367.17188 69.28125Q367.3125 69.71875 367.3125 70.34375L367.3125 74.5L366.21875 74.5L366.21875 70.328125Q366.21875 69.828125 366.07812 69.53125Q365.9375 69.234375 365.65625 69.09375Q365.375 68.953125 364.95312 68.953125Q364.54688 68.953125 364.21875 69.125Q363.89062 69.296875 363.65625 69.59375Q363.42188 69.890625 363.28125 70.28125Q363.15625 70.65625 363.15625 71.09375ZM371.95312 74.625Q371.29688 74.625 370.75 74.40625Q370.21875 74.171875 369.82812 73.765625Q369.45312 73.34375 369.25 72.78125Q369.04688 72.21875 369.04688 71.546875L369.04688 71.3125Q369.04688 70.53125 369.26562 69.921875Q369.5 69.3125 369.89062 68.890625Q370.28125 68.46875 370.78125 68.265625Q371.28125 68.046875 371.8125 68.046875Q372.5 68.046875 372.98438 68.28125Q373.48438 68.515625 373.79688 68.9375Q374.125 69.34375 374.26562 69.921875Q374.42188 70.484375 374.42188 71.140625L374.42188 71.640625L369.6875 71.640625L369.6875 70.75L373.34375 70.75L373.34375 70.671875Q373.3125 70.25 373.15625 69.859375Q373.01562 69.453125 372.6875 69.203125Q372.375 68.9375 371.8125 68.9375Q371.45312 68.9375 371.14062 69.09375Q370.82812 69.25 370.59375 69.5625Q370.375 69.859375 370.25 70.296875Q370.14062 70.734375 370.14062 71.3125L370.14062 71.546875Q370.14062 72.0 370.26562 72.40625Q370.39062 72.796875 370.625 73.09375Q370.875 73.390625 371.21875 73.5625Q371.57812 73.734375 372.01562 73.734375Q372.59375 73.734375 372.98438 73.5Q373.39062 73.265625 373.6875 72.875L374.34375 73.390625Q374.14062 73.703125 373.8125 73.984375Q373.5 74.265625 373.03125 74.453125Q372.57812 74.625 371.95312 74.625ZM376.40625 69.515625L376.40625 74.5L375.32812 74.5L375.32812 68.15625L376.35938 68.15625L376.40625 69.515625ZM376.15625 71.09375L375.70312 71.078125Q375.70312 70.421875 375.89062 69.875Q376.07812 69.3125 376.42188 68.90625Q376.76562 68.5 377.23438 68.28125Q377.70312 68.046875 378.28125 68.046875Q378.75 68.046875 379.125 68.171875Q379.5 68.296875 379.76562 68.578125Q380.03125 68.84375 380.17188 69.28125Q380.3125 69.71875 380.3125 70.34375L380.3125 74.5L379.21875 74.5L379.21875 70.328125Q379.21875 69.828125 379.07812 69.53125Q378.9375 69.234375 378.65625 69.09375Q378.375 68.953125 377.95312 68.953125Q377.54688 68.953125 377.21875 69.125Q376.89062 69.296875 376.65625 69.59375Q376.42188 69.890625 376.28125 70.28125Q376.15625 70.65625 376.15625 71.09375ZM384.95312 74.625Q384.29688 74.625 383.75 74.40625Q383.21875 74.171875 382.82812 73.765625Q382.45312 73.34375 382.25 72.78125Q382.04688 72.21875 382.04688 71.546875L382.04688 71.3125Q382.04688 70.53125 382.26562 69.921875Q382.5 69.3125 382.89062 68.890625Q383.28125 68.46875 383.78125 68.265625Q384.28125 68.046875 384.8125 68.046875Q385.5 68.046875 385.98438 68.28125Q386.48438 68.515625 386.79688 68.9375Q387.125 69.34375 387.26562 69.921875Q387.42188 70.484375 387.42188 71.140625L387.42188 71.640625L382.6875 71.640625L382.6875 70.75L386.34375 70.75L386.34375 70.671875Q386.3125 70.25 386.15625 69.859375Q386.01562 69.453125 385.6875 69.203125Q385.375 68.9375 384.8125 68.9375Q384.45312 68.9375 384.14062 69.09375Q383.82812 69.25 383.59375 69.5625Q383.375 69.859375 383.25 70.296875Q383.14062 70.734375 383.14062 71.3125L383.14062 71.546875Q383.14062 72.0 383.26562 72.40625Q383.39062 72.796875 383.625 73.09375Q383.875 73.390625 384.21875 73.5625Q384.57812 73.734375 385.01562 73.734375Q385.59375 73.734375 385.98438 73.5Q386.39062 73.265625 386.6875 72.875L387.34375 73.390625Q387.14062 73.703125 386.8125 73.984375Q386.5 74.265625 386.03125 74.453125Q385.57812 74.625 384.95312 74.625Z" fill-rule="nonzero"/><path stroke="#cccccc" stroke-width="1.0" stroke-linecap="butt" d="M365.0 290.0L529.0 195.0" fill-rule="nonzero"/><path fill="#000000" d="M525.6406 181.78125L526.7656 181.78125Q526.6719 182.59375 526.2969 183.23438Q525.9219 183.875 525.2344 184.25Q524.5625 184.625 523.53125 184.625Q522.78125 184.625 522.1719 184.34375Q521.5625 184.04688 521.1094 183.53125Q520.6719 183.01562 520.4375 182.29688Q520.2031 181.5625 520.2031 180.65625L520.2031 179.8125Q520.2031 178.92188 520.4375 178.1875Q520.6719 177.45312 521.125 176.9375Q521.5781 176.40625 522.2031 176.125Q522.84375 175.84375 523.625 175.84375Q524.59375 175.84375 525.2656 176.21875Q525.9375 176.57812 526.2969 177.21875Q526.6719 177.85938 526.7656 178.70312L525.6406 178.70312Q525.5625 178.10938 525.3281 177.6875Q525.1094 177.25 524.7031 177.01562Q524.2969 176.78125 523.625 176.78125Q523.0625 176.78125 522.625 177.0Q522.2031 177.20312 521.90625 177.60938Q521.625 178.0 521.46875 178.5625Q521.3281 179.125 521.3281 179.79688L521.3281 180.65625Q521.3281 181.28125 521.4531 181.84375Q521.59375 182.39062 521.8594 182.8125Q522.125 183.21875 522.5469 183.46875Q522.96875 183.70312 523.53125 183.70312Q524.25 183.70312 524.6719 183.46875Q525.1094 183.23438 525.3281 182.8125Q525.5469 182.39062 525.6406 181.78125ZM532.0625 183.42188L532.0625 180.15625Q532.0625 179.78125 531.90625 179.5Q531.7656 179.21875 531.46875 179.07812Q531.1719 178.92188 530.7344 178.92188Q530.3125 178.92188 530.0 179.0625Q529.7031 179.20312 529.53125 179.4375Q529.3594 179.65625 529.3594 179.92188L528.28125 179.92188Q528.28125 179.57812 528.4531 179.25Q528.625 178.90625 528.9531 178.64062Q529.28125 178.35938 529.75 178.20312Q530.21875 178.04688 530.7969 178.04688Q531.4844 178.04688 532.0156 178.28125Q532.5469 178.51562 532.84375 178.98438Q533.15625 179.45312 533.15625 180.15625L533.15625 183.10938Q533.15625 183.4375 533.2031 183.79688Q533.2656 184.14062 533.375 184.40625L533.375 184.5L532.2344 184.5Q532.15625 184.3125 532.1094 184.0Q532.0625 183.6875 532.0625 183.42188ZM532.25 180.65625L532.2656 181.42188L531.1719 181.42188Q530.7031 181.42188 530.34375 181.5Q529.9844 181.5625 529.7344 181.71875Q529.4844 181.85938 529.3594 182.07812Q529.2344 182.29688 529.2344 182.59375Q529.2344 182.89062 529.3594 183.14062Q529.5 183.375 529.7656 183.53125Q530.0469 183.67188 530.4375 183.67188Q530.9375 183.67188 531.3125 183.46875Q531.7031 183.25 531.9219 182.95312Q532.15625 182.64062 532.1719 182.34375L532.6406 182.875Q532.59375 183.10938 532.40625 183.42188Q532.2344 183.71875 531.9219 184.0Q531.625 184.26562 531.2031 184.45312Q530.7969 184.625 530.28125 184.625Q529.6406 184.625 529.15625 184.375Q528.6719 184.10938 528.40625 183.6875Q528.1406 183.26562 528.1406 182.73438Q528.1406 182.21875 528.3281 181.84375Q528.53125 181.45312 528.90625 181.1875Q529.28125 180.92188 529.8125 180.79688Q530.34375 180.65625 531.0 180.65625L532.25 180.65625ZM536.40625 179.15625L536.40625 184.5L535.3281 184.5L535.3281 178.15625L536.375 178.15625L536.40625 179.15625ZM538.3906 178.125L538.3906 179.125Q538.25 179.10938 538.125 179.09375Q538.0156 179.07812 537.8594 179.07812Q537.4844 179.07812 537.1875 179.20312Q536.90625 179.3125 536.7031 179.53125Q536.5156 179.73438 536.3906 180.03125Q536.28125 180.32812 536.25 180.67188L535.9375 180.84375Q535.9375 180.26562 536.0469 179.76562Q536.1719 179.26562 536.40625 178.875Q536.65625 178.48438 537.0156 178.26562Q537.3906 178.04688 537.90625 178.04688Q538.03125 178.04688 538.1719 178.07812Q538.3281 178.09375 538.3906 178.125ZM541.1094 183.84375L542.875 178.15625L544.03125 178.15625L541.4844 185.48438Q541.40625 185.71875 541.25 185.98438Q541.1094 186.26562 540.8906 186.5Q540.6719 186.75 540.3594 186.90625Q540.0469 187.0625 539.6094 187.0625Q539.4844 187.0625 539.28125 187.01562Q539.0781 186.98438 539.0 186.96875L539.0 186.09375Q539.0469 186.09375 539.1406 186.09375Q539.25 186.10938 539.28125 186.10938Q539.65625 186.10938 539.90625 186.01562Q540.1719 185.92188 540.34375 185.6875Q540.53125 185.46875 540.65625 185.07812L541.1094 183.84375ZM539.8125 178.15625L541.4531 183.07812L541.7344 184.21875L540.96875 184.625L538.625 178.15625L539.8125 178.15625ZM545.0469 181.40625L545.0469 181.26562Q545.0469 180.57812 545.2344 180.0Q545.4375 179.40625 545.8125 178.96875Q546.1875 178.53125 546.71875 178.29688Q547.25 178.04688 547.9219 178.04688Q548.5781 178.04688 549.1094 178.29688Q549.65625 178.53125 550.03125 178.96875Q550.40625 179.40625 550.6094 180.0Q550.8125 180.57812 550.8125 181.26562L550.8125 181.40625Q550.8125 182.07812 550.6094 182.67188Q550.40625 183.25 550.03125 183.6875Q549.65625 184.125 549.125 184.375Q548.59375 184.625 547.9219 184.625Q547.2656 184.625 546.71875 184.375Q546.1875 184.125 545.8125 183.6875Q545.4375 183.25 545.2344 182.67188Q545.0469 182.07812 545.0469 181.40625ZM546.125 181.26562L546.125 181.40625Q546.125 181.875 546.2344 182.29688Q546.34375 182.71875 546.5625 183.04688Q546.7969 183.35938 547.1406 183.54688Q547.4844 183.71875 547.9219 183.71875Q548.375 183.71875 548.7031 183.54688Q549.0469 183.35938 549.2656 183.04688Q549.5 182.71875 549.6094 182.29688Q549.71875 181.875 549.71875 181.40625L549.71875 181.26562Q549.71875 180.79688 549.6094 180.375Q549.5 179.95312 549.2656 179.64062Q549.0469 179.3125 548.7031 179.125Q548.375 178.9375 547.9219 178.9375Q547.46875 178.9375 547.125 179.125Q546.7969 179.3125 546.5625 179.64062Q546.34375 179.95312 546.2344 180.375Q546.125 180.79688 546.125 181.26562ZM553.40625 179.375L553.40625 186.9375L552.3281 186.9375L552.3281 178.15625L553.3125 178.15625L553.40625 179.375ZM557.6875 181.28125L557.6875 181.40625Q557.6875 182.09375 557.5156 182.6875Q557.3594 183.26562 557.0469 183.70312Q556.7344 184.14062 556.2656 184.39062Q555.8125 184.625 555.21875 184.625Q554.625 184.625 554.15625 184.42188Q553.6875 184.21875 553.3594 183.84375Q553.0469 183.45312 552.8594 182.92188Q552.6719 182.39062 552.59375 181.71875L552.59375 181.0625Q552.6719 180.35938 552.8594 179.8125Q553.0469 179.25 553.3594 178.85938Q553.6875 178.45312 554.1406 178.25Q554.6094 178.04688 555.2031 178.04688Q555.7969 178.04688 556.2656 178.28125Q556.7344 178.5 557.0469 178.9375Q557.3594 179.35938 557.5156 179.95312Q557.6875 180.54688 557.6875 181.28125ZM556.59375 181.40625L556.59375 181.28125Q556.59375 180.79688 556.4844 180.39062Q556.3906 179.96875 556.1875 179.65625Q555.9844 179.32812 555.65625 179.14062Q555.3281 178.95312 554.8906 178.95312Q554.4844 178.95312 554.1719 179.09375Q553.875 179.23438 553.65625 179.48438Q553.4531 179.71875 553.3125 180.01562Q553.1875 180.3125 553.125 180.64062L553.125 182.15625Q553.2344 182.5625 553.4375 182.92188Q553.65625 183.28125 554.0 183.5Q554.3594 183.71875 554.90625 183.71875Q555.34375 183.71875 555.65625 183.54688Q555.9844 183.35938 556.1875 183.04688Q556.3906 182.71875 556.4844 182.29688Q556.59375 181.875 556.59375 181.40625ZM560.40625 175.5L560.40625 184.5L559.3281 184.5L559.3281 175.5L560.40625 175.5ZM560.15625 181.09375L559.7031 181.07812Q559.7031 180.42188 559.8906 179.875Q560.0781 179.3125 560.4219 178.90625Q560.7656 178.5 561.2344 178.28125Q561.7031 178.04688 562.28125 178.04688Q562.75 178.04688 563.125 178.17188Q563.5 178.29688 563.7656 178.57812Q564.03125 178.84375 564.1719 179.28125Q564.3125 179.71875 564.3125 180.34375L564.3125 184.5L563.21875 184.5L563.21875 180.32812Q563.21875 179.82812 563.0781 179.53125Q562.9375 179.23438 562.65625 179.09375Q562.375 178.95312 561.9531 178.95312Q561.5469 178.95312 561.21875 179.125Q560.8906 179.29688 560.65625 179.59375Q560.4219 179.89062 560.28125 180.28125Q560.15625 180.65625 560.15625 181.09375ZM568.1094 183.84375L569.875 178.15625L571.03125 178.15625L568.4844 185.48438Q568.40625 185.71875 568.25 185.98438Q568.1094 186.26562 567.8906 186.5Q567.6719 186.75 567.3594 186.90625Q567.0469 187.0625 566.6094 187.0625Q566.4844 187.0625 566.28125 187.01562Q566.0781 186.98438 566.0 186.96875L566.0 186.09375Q566.0469 186.09375 566.1406 186.09375Q566.25 186.10938 566.28125 186.10938Q566.65625 186.10938 566.90625 186.01562Q567.1719 185.92188 567.34375 185.6875Q567.53125 185.46875 567.65625 185.07812L568.1094 183.84375ZM566.8125 178.15625L568.4531 183.07812L568.7344 184.21875L567.96875 184.625L565.625 178.15625L566.8125 178.15625ZM573.5 175.5L573.5 184.5L572.4219 184.5L572.4219 175.5L573.5 175.5ZM576.5 175.5L576.5 184.5L575.4219 184.5L575.4219 175.5L576.5 175.5ZM580.9531 184.625Q580.2969 184.625 579.75 184.40625Q579.21875 184.17188 578.8281 183.76562Q578.4531 183.34375 578.25 182.78125Q578.0469 182.21875 578.0469 181.54688L578.0469 181.3125Q578.0469 180.53125 578.2656 179.92188Q578.5 179.3125 578.8906 178.89062Q579.28125 178.46875 579.78125 178.26562Q580.28125 178.04688 580.8125 178.04688Q581.5 178.04688 581.9844 178.28125Q582.4844 178.51562 582.7969 178.9375Q583.125 179.34375 583.2656 179.92188Q583.4219 180.48438 583.4219 181.14062L583.4219 181.64062L578.6875 181.64062L578.6875 180.75L582.34375 180.75L582.34375 180.67188Q582.3125 180.25 582.15625 179.85938Q582.0156 179.45312 581.6875 179.20312Q581.375 178.9375 580.8125 178.9375Q580.4531 178.9375 580.1406 179.09375Q579.8281 179.25 579.59375 179.5625Q579.375 179.85938 579.25 180.29688Q579.1406 180.73438 579.1406 181.3125L579.1406 181.54688Q579.1406 182.0 579.2656 182.40625Q579.3906 182.79688 579.625 183.09375Q579.875 183.39062 580.21875 183.5625Q580.5781 183.73438 581.0156 183.73438Q581.59375 183.73438 581.9844 183.5Q582.3906 183.26562 582.6875 182.875L583.34375 183.39062Q583.1406 183.70312 582.8125 183.98438Q582.5 184.26562 582.03125 184.45312Q581.5781 184.625 580.9531 184.625ZM585.40625 179.51562L585.40625 184.5L584.3281 184.5L584.3281 178.15625L585.3594 178.15625L585.40625 179.51562ZM585.15625 181.09375L584.7031 181.07812Q584.7031 180.42188 584.8906 179.875Q585.0781 179.3125 585.4219 178.90625Q585.7656 178.5 586.2344 178.28125Q586.7031 178.04688 587.28125 178.04688Q587.75 178.04688 588.125 178.17188Q588.5 178.29688 588.7656 178.57812Q589.03125 178.84375 589.1719 179.28125Q589.3125 179.71875 589.3125 180.34375L589.3125 184.5L588.21875 184.5L588.21875 180.32812Q588.21875 179.82812 588.0781 179.53125Q587.9375 179.23438 587.65625 179.09375Q587.375 178.95312 586.9531 178.95312Q586.5469 178.95312 586.21875 179.125Q585.8906 179.29688 585.65625 179.59375Q585.4219 179.89062 585.28125 180.28125Q585.15625 180.65625 585.15625 181.09375Z" fill-rule="nonzero"/><path stroke="#cccccc" stroke-width="1.0" stroke-linecap="butt" d="M365.0 290.0L529.0 385.0" fill-rule="nonzero"/><path fill="#000000" d="M529.2969 404.5L527.5156 404.5L527.53125 403.57812L529.2969 403.57812Q530.21875 403.57812 530.8281 403.20312Q531.4375 402.8125 531.7344 402.125Q532.0469 401.42188 532.0469 400.48438L532.0469 399.96875Q532.0469 399.23438 531.875 398.67188Q531.7031 398.09375 531.3594 397.70312Q531.0156 397.29688 530.5156 397.09375Q530.03125 396.89062 529.40625 396.89062L527.4844 396.89062L527.4844 395.96875L529.40625 395.96875Q530.25 395.96875 530.9375 396.25Q531.625 396.53125 532.125 397.0625Q532.625 397.57812 532.8906 398.32812Q533.1719 399.0625 533.1719 399.98438L533.1719 400.48438Q533.1719 401.42188 532.8906 402.17188Q532.625 402.90625 532.1094 403.42188Q531.6094 403.9375 530.8906 404.21875Q530.1875 404.5 529.2969 404.5ZM528.125 395.96875L528.125 404.5L526.9844 404.5L526.9844 395.96875L528.125 395.96875ZM537.0781 400.42188L537.0781 401.3125L534.21875 401.3125L534.21875 400.42188L537.0781 400.42188ZM543.1719 403.57812L543.1719 404.5L538.90625 404.5L538.90625 403.57812L543.1719 403.57812ZM539.125 395.96875L539.125 404.5L537.9844 404.5L537.9844 395.96875L539.125 395.96875ZM545.0 398.15625L545.0 404.5L543.9219 404.5L543.9219 398.15625L545.0 398.15625ZM543.8281 396.48438Q543.8281 396.21875 543.9844 396.03125Q544.15625 395.84375 544.46875 395.84375Q544.78125 395.84375 544.9375 396.03125Q545.1094 396.21875 545.1094 396.48438Q545.1094 396.73438 544.9375 396.92188Q544.78125 397.09375 544.46875 397.09375Q544.15625 397.09375 543.9844 396.92188Q543.8281 396.73438 543.8281 396.48438ZM547.90625 399.42188L547.90625 404.5L546.8125 404.5L546.8125 398.15625L547.84375 398.15625L547.90625 399.42188ZM547.6875 401.09375L547.1719 401.07812Q547.1875 400.42188 547.34375 399.875Q547.5156 399.3125 547.8281 398.90625Q548.15625 398.5 548.6406 398.28125Q549.125 398.04688 549.75 398.04688Q550.2031 398.04688 550.5781 398.17188Q550.9531 398.29688 551.21875 398.5625Q551.5 398.82812 551.6406 399.25Q551.7969 399.67188 551.7969 400.28125L551.7969 404.5L550.71875 404.5L550.71875 400.32812Q550.71875 399.82812 550.5469 399.53125Q550.3906 399.23438 550.0781 399.09375Q549.78125 398.95312 549.3594 398.95312Q548.8906 398.95312 548.5625 399.125Q548.2344 399.29688 548.0469 399.59375Q547.8594 399.89062 547.7656 400.28125Q547.6875 400.65625 547.6875 401.09375ZM551.7969 400.48438L551.0625 400.71875Q551.0625 400.1875 551.2344 399.71875Q551.40625 399.23438 551.71875 398.85938Q552.0469 398.48438 552.5156 398.26562Q552.9844 398.04688 553.5781 398.04688Q554.09375 398.04688 554.4844 398.1875Q554.8906 398.3125 555.15625 398.59375Q555.4219 398.875 555.5625 399.3125Q555.7031 399.73438 555.7031 400.32812L555.7031 404.5L554.625 404.5L554.625 400.32812Q554.625 399.78125 554.4531 399.5Q554.28125 399.20312 553.9844 399.07812Q553.6875 398.95312 553.2656 398.95312Q552.90625 398.95312 552.625 399.07812Q552.3594 399.20312 552.1719 399.42188Q551.9844 399.625 551.8906 399.90625Q551.7969 400.1875 551.7969 400.48438ZM557.5469 401.40625L557.5469 401.26562Q557.5469 400.57812 557.7344 400.0Q557.9375 399.40625 558.3125 398.96875Q558.6875 398.53125 559.21875 398.29688Q559.75 398.04688 560.4219 398.04688Q561.0781 398.04688 561.6094 398.29688Q562.15625 398.53125 562.53125 398.96875Q562.90625 399.40625 563.1094 400.0Q563.3125 400.57812 563.3125 401.26562L563.3125 401.40625Q563.3125 402.07812 563.1094 402.67188Q562.90625 403.25 562.53125 403.6875Q562.15625 404.125 561.625 404.375Q561.09375 404.625 560.4219 404.625Q559.7656 404.625 559.21875 404.375Q558.6875 404.125 558.3125 403.6875Q557.9375 403.25 557.7344 402.67188Q557.5469 402.07812 557.5469 401.40625ZM558.625 401.26562L558.625 401.40625Q558.625 401.875 558.7344 402.29688Q558.84375 402.71875 559.0625 403.04688Q559.2969 403.35938 559.6406 403.54688Q559.9844 403.71875 560.4219 403.71875Q560.875 403.71875 561.2031 403.54688Q561.5469 403.35938 561.7656 403.04688Q562.0 402.71875 562.1094 402.29688Q562.21875 401.875 562.21875 401.40625L562.21875 401.26562Q562.21875 400.79688 562.1094 400.375Q562.0 399.95312 561.7656 399.64062Q561.5469 399.3125 561.2031 399.125Q560.875 398.9375 560.4219 398.9375Q559.96875 398.9375 559.625 399.125Q559.2969 399.3125 559.0625 399.64062Q558.84375 399.95312 558.7344 400.375Q558.625 400.79688 558.625 401.26562ZM565.90625 399.51562L565.90625 404.5L564.8281 404.5L564.8281 398.15625L565.8594 398.15625L565.90625 399.51562ZM565.65625 401.09375L565.2031 401.07812Q565.2031 400.42188 565.3906 399.875Q565.5781 399.3125 565.9219 398.90625Q566.2656 398.5 566.7344 398.28125Q567.2031 398.04688 567.78125 398.04688Q568.25 398.04688 568.625 398.17188Q569.0 398.29688 569.2656 398.57812Q569.53125 398.84375 569.6719 399.28125Q569.8125 399.71875 569.8125 400.34375L569.8125 404.5L568.71875 404.5L568.71875 400.32812Q568.71875 399.82812 568.5781 399.53125Q568.4375 399.23438 568.15625 399.09375Q567.875 398.95312 567.4531 398.95312Q567.0469 398.95312 566.71875 399.125Q566.3906 399.29688 566.15625 399.59375Q565.9219 399.89062 565.78125 400.28125Q565.65625 400.65625 565.65625 401.09375ZM574.4531 404.625Q573.7969 404.625 573.25 404.40625Q572.71875 404.17188 572.3281 403.76562Q571.9531 403.34375 571.75 402.78125Q571.5469 402.21875 571.5469 401.54688L571.5469 401.3125Q571.5469 400.53125 571.7656 399.92188Q572.0 399.3125 572.3906 398.89062Q572.78125 398.46875 573.28125 398.26562Q573.78125 398.04688 574.3125 398.04688Q575.0 398.04688 575.4844 398.28125Q575.9844 398.51562 576.2969 398.9375Q576.625 399.34375 576.7656 399.92188Q576.9219 400.48438 576.9219 401.14062L576.9219 401.64062L572.1875 401.64062L572.1875 400.75L575.84375 400.75L575.84375 400.67188Q575.8125 400.25 575.65625 399.85938Q575.5156 399.45312 575.1875 399.20312Q574.875 398.9375 574.3125 398.9375Q573.9531 398.9375 573.6406 399.09375Q573.3281 399.25 573.09375 399.5625Q572.875 399.85938 572.75 400.29688Q572.6406 400.73438 572.6406 401.3125L572.6406 401.54688Q572.6406 402.0 572.7656 402.40625Q572.8906 402.79688 573.125 403.09375Q573.375 403.39062 573.71875 403.5625Q574.0781 403.73438 574.5156 403.73438Q575.09375 403.73438 575.4844 403.5Q575.8906 403.26562 576.1875 402.875L576.84375 403.39062Q576.6406 403.70312 576.3125 403.98438Q576.0 404.26562 575.53125 404.45312Q575.0781 404.625 574.4531 404.625ZM578.90625 399.51562L578.90625 404.5L577.8281 404.5L577.8281 398.15625L578.8594 398.15625L578.90625 399.51562ZM578.65625 401.09375L578.2031 401.07812Q578.2031 400.42188 578.3906 399.875Q578.5781 399.3125 578.9219 398.90625Q579.2656 398.5 579.7344 398.28125Q580.2031 398.04688 580.78125 398.04688Q581.25 398.04688 581.625 398.17188Q582.0 398.29688 582.2656 398.57812Q582.53125 398.84375 582.6719 399.28125Q582.8125 399.71875 582.8125 400.34375L582.8125 404.5L581.71875 404.5L581.71875 400.32812Q581.71875 399.82812 581.5781 399.53125Q581.4375 399.23438 581.15625 399.09375Q580.875 398.95312 580.4531 398.95312Q580.0469 398.95312 579.71875 399.125Q579.3906 399.29688 579.15625 399.59375Q578.9219 399.89062 578.78125 400.28125Q578.65625 400.65625 578.65625 401.09375Z" fill-rule="nonzero"/><path stroke="#cccccc" stroke-width="1.0" stroke-linecap="butt" d="M365.0 290.0L365.0 479.0" fill-rule="nonzero"/><path fill="#000000" d="M346.5625 509.64062L346.5625 510.5625L341.95312 510.5625L341.95312 509.64062L346.5625 509.64062ZM342.125 505.96875L342.125 514.5L340.98438 514.5L340.98438 505.96875L342.125 505.96875ZM347.54688 505.96875L347.54688 514.5L346.42188 514.5L346.42188 505.96875L347.54688 505.96875ZM353.70312 513.03125L353.70312 508.15625L354.79688 508.15625L354.79688 514.5L353.76562 514.5L353.70312 513.03125ZM353.90625 511.70312L354.35938 511.6875Q354.35938 512.3125 354.21875 512.8594Q354.09375 513.3906 353.79688 513.78125Q353.51562 514.1719 353.03125 514.40625Q352.5625 514.625 351.89062 514.625Q351.42188 514.625 351.03125 514.4844Q350.65625 514.34375 350.375 514.0625Q350.10938 513.78125 349.95312 513.3281Q349.79688 512.875 349.79688 512.25L349.79688 508.15625L350.89062 508.15625L350.89062 512.2656Q350.89062 512.6875 350.98438 512.96875Q351.07812 513.25 351.25 513.40625Q351.42188 513.5625 351.625 513.6406Q351.82812 513.7031 352.04688 513.7031Q352.75 513.7031 353.14062 513.4375Q353.54688 513.15625 353.71875 512.7031Q353.90625 512.25 353.90625 511.70312ZM357.90625 509.42188L357.90625 514.5L356.8125 514.5L356.8125 508.15625L357.84375 508.15625L357.90625 509.42188ZM357.6875 511.09375L357.17188 511.07812Q357.1875 510.42188 357.34375 509.875Q357.51562 509.3125 357.82812 508.90625Q358.15625 508.5 358.64062 508.28125Q359.125 508.04688 359.75 508.04688Q360.20312 508.04688 360.57812 508.17188Q360.95312 508.29688 361.21875 508.5625Q361.5 508.82812 361.64062 509.25Q361.79688 509.67188 361.79688 510.28125L361.79688 514.5L360.71875 514.5L360.71875 510.32812Q360.71875 509.82812 360.54688 509.53125Q360.39062 509.23438 360.07812 509.09375Q359.78125 508.95312 359.35938 508.95312Q358.89062 508.95312 358.5625 509.125Q358.23438 509.29688 358.04688 509.59375Q357.85938 509.89062 357.76562 510.28125Q357.6875 510.65625 357.6875 511.09375ZM361.79688 510.48438L361.0625 510.71875Q361.0625 510.1875 361.23438 509.71875Q361.40625 509.23438 361.71875 508.85938Q362.04688 508.48438 362.51562 508.26562Q362.98438 508.04688 363.57812 508.04688Q364.09375 508.04688 364.48438 508.1875Q364.89062 508.3125 365.15625 508.59375Q365.42188 508.875 365.5625 509.3125Q365.70312 509.73438 365.70312 510.32812L365.70312 514.5L364.625 514.5L364.625 510.32812Q364.625 509.78125 364.45312 509.5Q364.28125 509.20312 363.98438 509.07812Q363.6875 508.95312 363.26562 508.95312Q362.90625 508.95312 362.625 509.07812Q362.35938 509.20312 362.17188 509.42188Q361.98438 509.625 361.89062 509.90625Q361.79688 510.1875 361.79688 510.48438ZM371.70312 513.03125L371.70312 508.15625L372.79688 508.15625L372.79688 514.5L371.76562 514.5L371.70312 513.03125ZM371.90625 511.70312L372.35938 511.6875Q372.35938 512.3125 372.21875 512.8594Q372.09375 513.3906 371.79688 513.78125Q371.51562 514.1719 371.03125 514.40625Q370.5625 514.625 369.89062 514.625Q369.42188 514.625 369.03125 514.4844Q368.65625 514.34375 368.375 514.0625Q368.10938 513.78125 367.95312 513.3281Q367.79688 512.875 367.79688 512.25L367.79688 508.15625L368.89062 508.15625L368.89062 512.2656Q368.89062 512.6875 368.98438 512.96875Q369.07812 513.25 369.25 513.40625Q369.42188 513.5625 369.625 513.6406Q369.82812 513.7031 370.04688 513.7031Q370.75 513.7031 371.14062 513.4375Q371.54688 513.15625 371.71875 512.7031Q371.90625 512.25 371.90625 511.70312ZM376.0 505.5L376.0 514.5L374.92188 514.5L374.92188 505.5L376.0 505.5ZM380.45312 514.625Q379.79688 514.625 379.25 514.40625Q378.71875 514.1719 378.32812 513.7656Q377.95312 513.34375 377.75 512.78125Q377.54688 512.21875 377.54688 511.54688L377.54688 511.3125Q377.54688 510.53125 377.76562 509.92188Q378.0 509.3125 378.39062 508.89062Q378.78125 508.46875 379.28125 508.26562Q379.78125 508.04688 380.3125 508.04688Q381.0 508.04688 381.48438 508.28125Q381.98438 508.51562 382.29688 508.9375Q382.625 509.34375 382.76562 509.92188Q382.92188 510.48438 382.92188 511.14062L382.92188 511.64062L378.1875 511.64062L378.1875 510.75L381.84375 510.75L381.84375 510.67188Q381.8125 510.25 381.65625 509.85938Q381.51562 509.45312 381.1875 509.20312Q380.875 508.9375 380.3125 508.9375Q379.95312 508.9375 379.64062 509.09375Q379.32812 509.25 379.09375 509.5625Q378.875 509.85938 378.75 510.29688Q378.64062 510.73438 378.64062 511.3125L378.64062 511.54688Q378.64062 512.0 378.76562 512.40625Q378.89062 512.7969 379.125 513.09375Q379.375 513.3906 379.71875 513.5625Q380.07812 513.7344 380.51562 513.7344Q381.09375 513.7344 381.48438 513.5Q381.89062 513.2656 382.1875 512.875L382.84375 513.3906Q382.64062 513.7031 382.3125 513.9844Q382.0 514.2656 381.53125 514.4531Q381.07812 514.625 380.45312 514.625ZM384.90625 509.51562L384.90625 514.5L383.82812 514.5L383.82812 508.15625L384.85938 508.15625L384.90625 509.51562ZM384.65625 511.09375L384.20312 511.07812Q384.20312 510.42188 384.39062 509.875Q384.57812 509.3125 384.92188 508.90625Q385.26562 508.5 385.73438 508.28125Q386.20312 508.04688 386.78125 508.04688Q387.25 508.04688 387.625 508.17188Q388.0 508.29688 388.26562 508.57812Q388.53125 508.84375 388.67188 509.28125Q388.8125 509.71875 388.8125 510.34375L388.8125 514.5L387.71875 514.5L387.71875 510.32812Q387.71875 509.82812 387.57812 509.53125Q387.4375 509.23438 387.15625 509.09375Q386.875 508.95312 386.45312 508.95312Q386.04688 508.95312 385.71875 509.125Q385.39062 509.29688 385.15625 509.59375Q384.92188 509.89062 384.78125 510.28125Q384.65625 510.65625 384.65625 511.09375Z" fill-rule="nonzero"/><path stroke="#cccccc" stroke-width="1.0" stroke-linecap="butt" d="M365.0 290.0L201.0 385.0" fill-rule="nonzero"/><path fill="#000000" d="M145.59375 401.5625L145.59375 401.4375Q145.59375 400.6875 145.75 400.07812Q145.92188 399.45312 146.23438 399.0Q146.54688 398.54688 147.0 398.29688Q147.46875 398.04688 148.0625 398.04688Q148.51562 398.04688 148.875 398.1875Q149.25 398.3125 149.53125 398.57812Q149.8125 398.82812 150.01562 399.20312Q150.21875 399.57812 150.34375 400.0625Q150.46875 400.53125 150.51562 401.09375L150.51562 401.57812Q150.45312 402.28125 150.26562 402.84375Q150.09375 403.40625 149.79688 403.8125Q149.5 404.20312 149.0625 404.42188Q148.64062 404.625 148.04688 404.625Q147.46875 404.625 147.0 404.40625Q146.54688 404.17188 146.23438 403.76562Q145.92188 403.34375 145.75 402.79688Q145.59375 402.23438 145.59375 401.5625ZM146.67188 401.4375L146.67188 401.5625Q146.67188 402.01562 146.76562 402.40625Q146.85938 402.79688 147.04688 403.09375Q147.25 403.39062 147.5625 403.5625Q147.89062 403.73438 148.32812 403.73438Q148.75 403.73438 149.04688 403.5625Q149.35938 403.375 149.5625 403.07812Q149.78125 402.78125 149.90625 402.39062Q150.04688 402.0 150.14062 401.59375L150.14062 401.20312Q150.07812 400.76562 149.9375 400.375Q149.8125 399.96875 149.59375 399.64062Q149.39062 399.3125 149.07812 399.125Q148.76562 398.9375 148.32812 398.9375Q147.89062 398.9375 147.57812 399.14062Q147.26562 399.32812 147.0625 399.67188Q146.85938 400.01562 146.76562 400.48438Q146.67188 400.9375 146.67188 401.4375ZM149.98438 398.15625L150.90625 398.15625L150.90625 402.76562Q150.90625 403.04688 150.9375 403.21875Q150.96875 403.375 151.03125 403.48438Q151.10938 403.57812 151.1875 403.625Q151.28125 403.65625 151.375 403.65625Q151.42188 403.65625 151.46875 403.64062Q151.53125 403.625 151.5625 403.60938L151.70312 404.42188Q151.51562 404.54688 151.34375 404.57812Q151.17188 404.625 150.98438 404.625Q150.70312 404.625 150.48438 404.51562Q150.28125 404.42188 150.125 404.20312Q149.96875 403.98438 149.89062 403.625Q149.8125 403.26562 149.8125 402.76562L149.8125 399.53125L149.98438 398.15625ZM155.07812 400.42188L155.07812 401.3125L152.21875 401.3125L152.21875 400.42188L155.07812 400.42188ZM159.03125 400.51562L156.875 400.51562L156.85938 399.59375L158.82812 399.59375Q159.3125 399.59375 159.67188 399.4375Q160.03125 399.26562 160.23438 398.96875Q160.4375 398.65625 160.4375 398.23438Q160.4375 397.76562 160.25 397.46875Q160.07812 397.17188 159.70312 397.03125Q159.34375 396.89062 158.78125 396.89062L157.125 396.89062L157.125 404.5L155.98438 404.5L155.98438 395.96875L158.78125 395.96875Q159.4375 395.96875 159.95312 396.10938Q160.46875 396.23438 160.82812 396.51562Q161.1875 396.78125 161.375 397.21875Q161.5625 397.64062 161.5625 398.23438Q161.5625 398.76562 161.29688 399.20312Q161.03125 399.625 160.54688 399.89062Q160.07812 400.15625 159.4375 400.23438L159.03125 400.51562ZM158.98438 404.5L156.42188 404.5L157.0625 403.57812L158.98438 403.57812Q159.51562 403.57812 159.89062 403.39062Q160.28125 403.20312 160.46875 402.85938Q160.67188 402.51562 160.67188 402.04688Q160.67188 401.57812 160.5 401.23438Q160.32812 400.89062 159.96875 400.70312Q159.60938 400.51562 159.03125 400.51562L157.42188 400.51562L157.4375 399.59375L159.64062 399.59375L159.875 399.92188Q160.48438 399.98438 160.90625 400.28125Q161.34375 400.57812 161.5625 401.03125Q161.79688 401.48438 161.79688 402.03125Q161.79688 402.82812 161.4375 403.39062Q161.09375 403.9375 160.45312 404.21875Q159.82812 404.5 158.98438 404.5ZM164.0 398.15625L164.0 404.5L162.92188 404.5L162.92188 398.15625L164.0 398.15625ZM162.82812 396.48438Q162.82812 396.21875 162.98438 396.03125Q163.15625 395.84375 163.46875 395.84375Q163.78125 395.84375 163.9375 396.03125Q164.10938 396.21875 164.10938 396.48438Q164.10938 396.73438 163.9375 396.92188Q163.78125 397.09375 163.46875 397.09375Q163.15625 397.09375 162.98438 396.92188Q162.82812 396.73438 162.82812 396.48438ZM169.51562 402.8125Q169.51562 402.57812 169.40625 402.375Q169.3125 402.17188 169.0 402.01562Q168.6875 401.84375 168.0625 401.71875Q167.53125 401.60938 167.10938 401.46875Q166.6875 401.3125 166.39062 401.09375Q166.09375 400.875 165.9375 400.57812Q165.78125 400.28125 165.78125 399.89062Q165.78125 399.51562 165.9375 399.1875Q166.10938 398.84375 166.40625 398.59375Q166.71875 398.32812 167.15625 398.1875Q167.59375 398.04688 168.125 398.04688Q168.89062 398.04688 169.42188 398.3125Q169.96875 398.57812 170.25 399.03125Q170.53125 399.48438 170.53125 400.01562L169.45312 400.01562Q169.45312 399.76562 169.29688 399.51562Q169.14062 399.26562 168.84375 399.10938Q168.54688 398.9375 168.125 398.9375Q167.67188 398.9375 167.39062 399.07812Q167.10938 399.20312 166.98438 399.42188Q166.85938 399.625 166.85938 399.85938Q166.85938 400.04688 166.92188 400.1875Q166.98438 400.3125 167.14062 400.4375Q167.29688 400.54688 167.57812 400.65625Q167.875 400.75 168.32812 400.84375Q169.10938 401.01562 169.60938 401.26562Q170.10938 401.51562 170.35938 401.875Q170.60938 402.21875 170.60938 402.73438Q170.60938 403.15625 170.42188 403.5Q170.25 403.84375 169.92188 404.09375Q169.60938 404.34375 169.15625 404.48438Q168.70312 404.625 168.15625 404.625Q167.3125 404.625 166.73438 404.32812Q166.15625 404.01562 165.85938 403.54688Q165.5625 403.0625 165.5625 402.54688L166.64062 402.54688Q166.67188 402.98438 166.90625 403.25Q167.14062 403.51562 167.46875 403.625Q167.8125 403.71875 168.15625 403.71875Q168.59375 403.71875 168.89062 403.60938Q169.20312 403.48438 169.35938 403.28125Q169.51562 403.07812 169.51562 402.8125ZM175.5625 403.42188L175.5625 400.15625Q175.5625 399.78125 175.40625 399.5Q175.26562 399.21875 174.96875 399.07812Q174.67188 398.92188 174.23438 398.92188Q173.8125 398.92188 173.5 399.0625Q173.20312 399.20312 173.03125 399.4375Q172.85938 399.65625 172.85938 399.92188L171.78125 399.92188Q171.78125 399.57812 171.95312 399.25Q172.125 398.90625 172.45312 398.64062Q172.78125 398.35938 173.25 398.20312Q173.71875 398.04688 174.29688 398.04688Q174.98438 398.04688 175.51562 398.28125Q176.04688 398.51562 176.34375 398.98438Q176.65625 399.45312 176.65625 400.15625L176.65625 403.10938Q176.65625 403.4375 176.70312 403.79688Q176.76562 404.14062 176.875 404.40625L176.875 404.5L175.73438 404.5Q175.65625 404.3125 175.60938 404.0Q175.5625 403.6875 175.5625 403.42188ZM175.75 400.65625L175.76562 401.42188L174.67188 401.42188Q174.20312 401.42188 173.84375 401.5Q173.48438 401.5625 173.23438 401.71875Q172.98438 401.85938 172.85938 402.07812Q172.73438 402.29688 172.73438 402.59375Q172.73438 402.89062 172.85938 403.14062Q173.0 403.375 173.26562 403.53125Q173.54688 403.67188 173.9375 403.67188Q174.4375 403.67188 174.8125 403.46875Q175.20312 403.25 175.42188 402.95312Q175.65625 402.64062 175.67188 402.34375L176.14062 402.875Q176.09375 403.10938 175.90625 403.42188Q175.73438 403.71875 175.42188 404.0Q175.125 404.26562 174.70312 404.45312Q174.29688 404.625 173.78125 404.625Q173.14062 404.625 172.65625 404.375Q172.17188 404.10938 171.90625 403.6875Q171.64062 403.26562 171.64062 402.73438Q171.64062 402.21875 171.82812 401.84375Q172.03125 401.45312 172.40625 401.1875Q172.78125 400.92188 173.3125 400.79688Q173.84375 400.65625 174.5 400.65625L175.75 400.65625ZM178.82812 395.5L179.90625 395.5L179.90625 403.26562L179.8125 404.5L178.82812 404.5L178.82812 395.5ZM184.1875 401.28125L184.1875 401.40625Q184.1875 402.09375 184.01562 402.6875Q183.85938 403.26562 183.54688 403.70312Q183.23438 404.14062 182.76562 404.39062Q182.3125 404.625 181.73438 404.625Q181.125 404.625 180.67188 404.42188Q180.21875 404.20312 179.90625 403.8125Q179.59375 403.42188 179.40625 402.85938Q179.21875 402.29688 179.15625 401.60938L179.15625 401.0625Q179.21875 400.35938 179.40625 399.8125Q179.59375 399.25 179.90625 398.85938Q180.21875 398.45312 180.67188 398.25Q181.125 398.04688 181.71875 398.04688Q182.3125 398.04688 182.76562 398.28125Q183.23438 398.5 183.54688 398.9375Q183.85938 399.35938 184.01562 399.95312Q184.1875 400.54688 184.1875 401.28125ZM183.10938 401.40625L183.10938 401.28125Q183.10938 400.79688 183.01562 400.39062Q182.92188 399.96875 182.73438 399.65625Q182.54688 399.32812 182.21875 399.14062Q181.90625 398.95312 181.45312 398.95312Q181.03125 398.95312 180.73438 399.09375Q180.4375 399.23438 180.21875 399.48438Q180.01562 399.71875 179.875 400.01562Q179.75 400.3125 179.6875 400.64062L179.6875 402.04688Q179.78125 402.45312 179.98438 402.84375Q180.20312 403.21875 180.5625 403.46875Q180.92188 403.70312 181.45312 403.70312Q181.89062 403.70312 182.20312 403.53125Q182.53125 403.34375 182.71875 403.03125Q182.92188 402.70312 183.01562 402.29688Q183.10938 401.875 183.10938 401.40625ZM185.54688 401.40625L185.54688 401.26562Q185.54688 400.57812 185.73438 400.0Q185.9375 399.40625 186.3125 398.96875Q186.6875 398.53125 187.21875 398.29688Q187.75 398.04688 188.42188 398.04688Q189.07812 398.04688 189.60938 398.29688Q190.15625 398.53125 190.53125 398.96875Q190.90625 399.40625 191.10938 400.0Q191.3125 400.57812 191.3125 401.26562L191.3125 401.40625Q191.3125 402.07812 191.10938 402.67188Q190.90625 403.25 190.53125 403.6875Q190.15625 404.125 189.625 404.375Q189.09375 404.625 188.42188 404.625Q187.76562 404.625 187.21875 404.375Q186.6875 404.125 186.3125 403.6875Q185.9375 403.25 185.73438 402.67188Q185.54688 402.07812 185.54688 401.40625ZM186.625 401.26562L186.625 401.40625Q186.625 401.875 186.73438 402.29688Q186.84375 402.71875 187.0625 403.04688Q187.29688 403.35938 187.64062 403.54688Q187.98438 403.71875 188.42188 403.71875Q188.875 403.71875 189.20312 403.54688Q189.54688 403.35938 189.76562 403.04688Q190.0 402.71875 190.10938 402.29688Q190.21875 401.875 190.21875 401.40625L190.21875 401.26562Q190.21875 400.79688 190.10938 400.375Q190.0 399.95312 189.76562 399.64062Q189.54688 399.3125 189.20312 399.125Q188.875 398.9375 188.42188 398.9375Q187.96875 398.9375 187.625 399.125Q187.29688 399.3125 187.0625 399.64062Q186.84375 399.95312 186.73438 400.375Q186.625 400.79688 186.625 401.26562ZM194.0 395.5L194.0 404.5L192.92188 404.5L192.92188 395.5L194.0 395.5ZM195.54688 401.40625L195.54688 401.26562Q195.54688 400.57812 195.73438 400.0Q195.9375 399.40625 196.3125 398.96875Q196.6875 398.53125 197.21875 398.29688Q197.75 398.04688 198.42188 398.04688Q199.07812 398.04688 199.60938 398.29688Q200.15625 398.53125 200.53125 398.96875Q200.90625 399.40625 201.10938 400.0Q201.3125 400.57812 201.3125 401.26562L201.3125 401.40625Q201.3125 402.07812 201.10938 402.67188Q200.90625 403.25 200.53125 403.6875Q200.15625 404.125 199.625 404.375Q199.09375 404.625 198.42188 404.625Q197.76562 404.625 197.21875 404.375Q196.6875 404.125 196.3125 403.6875Q195.9375 403.25 195.73438 402.67188Q195.54688 402.07812 195.54688 401.40625ZM196.625 401.26562L196.625 401.40625Q196.625 401.875 196.73438 402.29688Q196.84375 402.71875 197.0625 403.04688Q197.29688 403.35938 197.64062 403.54688Q197.98438 403.71875 198.42188 403.71875Q198.875 403.71875 199.20312 403.54688Q199.54688 403.35938 199.76562 403.04688Q200.0 402.71875 200.10938 402.29688Q200.21875 401.875 200.21875 401.40625L200.21875 401.26562Q200.21875 400.79688 200.10938 400.375Q200.0 399.95312 199.76562 399.64062Q199.54688 399.3125 199.20312 399.125Q198.875 398.9375 198.42188 398.9375Q197.96875 398.9375 197.625 399.125Q197.29688 399.3125 197.0625 399.64062Q196.84375 399.95312 196.73438 400.375Q196.625 400.79688 196.625 401.26562ZM204.0 395.5L204.0 404.5L202.92188 404.5L202.92188 395.5L204.0 395.5Z" fill-rule="nonzero"/><path stroke="#cccccc" stroke-width="1.0" stroke-linecap="butt" d="M365.0 290.0L201.0 195.0" fill-rule="nonzero"/><path fill="#000000" d="M157.03125 182.34375Q157.03125 182.04688 156.9375 181.8125Q156.85938 181.57812 156.625 181.39062Q156.40625 181.20312 156.0 181.03125Q155.60938 180.85938 155.01562 180.6875Q154.375 180.5 153.85938 180.28125Q153.35938 180.04688 152.98438 179.75Q152.625 179.4375 152.4375 179.0625Q152.25 178.67188 152.25 178.17188Q152.25 177.67188 152.45312 177.25Q152.65625 176.82812 153.03125 176.51562Q153.42188 176.20312 153.95312 176.03125Q154.48438 175.84375 155.14062 175.84375Q156.10938 175.84375 156.78125 176.21875Q157.45312 176.57812 157.79688 177.17188Q158.15625 177.76562 158.15625 178.42188L157.03125 178.42188Q157.03125 177.95312 156.8125 177.57812Q156.60938 177.20312 156.1875 177.0Q155.78125 176.78125 155.14062 176.78125Q154.54688 176.78125 154.14062 176.96875Q153.75 177.14062 153.5625 177.45312Q153.375 177.76562 153.375 178.15625Q153.375 178.42188 153.48438 178.65625Q153.60938 178.875 153.84375 179.0625Q154.09375 179.25 154.46875 179.40625Q154.84375 179.5625 155.375 179.70312Q156.09375 179.90625 156.625 180.17188Q157.15625 180.42188 157.5 180.73438Q157.84375 181.04688 158.0 181.4375Q158.17188 181.82812 158.17188 182.32812Q158.17188 182.85938 157.95312 183.28125Q157.75 183.70312 157.35938 184.0Q156.96875 184.29688 156.42188 184.46875Q155.875 184.625 155.20312 184.625Q154.60938 184.625 154.03125 184.45312Q153.46875 184.28125 153.0 183.95312Q152.53125 183.625 152.25 183.15625Q151.96875 182.67188 151.96875 182.03125L153.09375 182.03125Q153.09375 182.46875 153.26562 182.78125Q153.4375 183.09375 153.73438 183.29688Q154.03125 183.5 154.40625 183.60938Q154.78125 183.70312 155.20312 183.70312Q155.79688 183.70312 156.20312 183.54688Q156.60938 183.375 156.8125 183.07812Q157.03125 182.76562 157.03125 182.34375ZM159.04688 181.40625L159.04688 181.26562Q159.04688 180.57812 159.23438 180.0Q159.4375 179.40625 159.8125 178.96875Q160.1875 178.53125 160.71875 178.29688Q161.25 178.04688 161.92188 178.04688Q162.57812 178.04688 163.10938 178.29688Q163.65625 178.53125 164.03125 178.96875Q164.40625 179.40625 164.60938 180.0Q164.8125 180.57812 164.8125 181.26562L164.8125 181.40625Q164.8125 182.07812 164.60938 182.67188Q164.40625 183.25 164.03125 183.6875Q163.65625 184.125 163.125 184.375Q162.59375 184.625 161.92188 184.625Q161.26562 184.625 160.71875 184.375Q160.1875 184.125 159.8125 183.6875Q159.4375 183.25 159.23438 182.67188Q159.04688 182.07812 159.04688 181.40625ZM160.125 181.26562L160.125 181.40625Q160.125 181.875 160.23438 182.29688Q160.34375 182.71875 160.5625 183.04688Q160.79688 183.35938 161.14062 183.54688Q161.48438 183.71875 161.92188 183.71875Q162.375 183.71875 162.70312 183.54688Q163.04688 183.35938 163.26562 183.04688Q163.5 182.71875 163.60938 182.29688Q163.71875 181.875 163.71875 181.40625L163.71875 181.26562Q163.71875 180.79688 163.60938 180.375Q163.5 179.95312 163.26562 179.64062Q163.04688 179.3125 162.70312 179.125Q162.375 178.9375 161.92188 178.9375Q161.46875 178.9375 161.125 179.125Q160.79688 179.3125 160.5625 179.64062Q160.34375 179.95312 160.23438 180.375Q160.125 180.79688 160.125 181.26562ZM167.40625 179.51562L167.40625 184.5L166.32812 184.5L166.32812 178.15625L167.35938 178.15625L167.40625 179.51562ZM167.15625 181.09375L166.70312 181.07812Q166.70312 180.42188 166.89062 179.875Q167.07812 179.3125 167.42188 178.90625Q167.76562 178.5 168.23438 178.28125Q168.70312 178.04688 169.28125 178.04688Q169.75 178.04688 170.125 178.17188Q170.5 178.29688 170.76562 178.57812Q171.03125 178.84375 171.17188 179.28125Q171.3125 179.71875 171.3125 180.34375L171.3125 184.5L170.21875 184.5L170.21875 180.32812Q170.21875 179.82812 170.07812 179.53125Q169.9375 179.23438 169.65625 179.09375Q169.375 178.95312 168.95312 178.95312Q168.54688 178.95312 168.21875 179.125Q167.89062 179.29688 167.65625 179.59375Q167.42188 179.89062 167.28125 180.28125Q167.15625 180.65625 167.15625 181.09375ZM177.01562 182.8125Q177.01562 182.57812 176.90625 182.375Q176.8125 182.17188 176.5 182.01562Q176.1875 181.84375 175.5625 181.71875Q175.03125 181.60938 174.60938 181.46875Q174.1875 181.3125 173.89062 181.09375Q173.59375 180.875 173.4375 180.57812Q173.28125 180.28125 173.28125 179.89062Q173.28125 179.51562 173.4375 179.1875Q173.60938 178.84375 173.90625 178.59375Q174.21875 178.32812 174.65625 178.1875Q175.09375 178.04688 175.625 178.04688Q176.39062 178.04688 176.92188 178.3125Q177.46875 178.57812 177.75 179.03125Q178.03125 179.48438 178.03125 180.01562L176.95312 180.01562Q176.95312 179.76562 176.79688 179.51562Q176.64062 179.26562 176.34375 179.10938Q176.04688 178.9375 175.625 178.9375Q175.17188 178.9375 174.89062 179.07812Q174.60938 179.20312 174.48438 179.42188Q174.35938 179.625 174.35938 179.85938Q174.35938 180.04688 174.42188 180.1875Q174.48438 180.3125 174.64062 180.4375Q174.79688 180.54688 175.07812 180.65625Q175.375 180.75 175.82812 180.84375Q176.60938 181.01562 177.10938 181.26562Q177.60938 181.51562 177.85938 181.875Q178.10938 182.21875 178.10938 182.73438Q178.10938 183.15625 177.92188 183.5Q177.75 183.84375 177.42188 184.09375Q177.10938 184.34375 176.65625 184.48438Q176.20312 184.625 175.65625 184.625Q174.8125 184.625 174.23438 184.32812Q173.65625 184.01562 173.35938 183.54688Q173.0625 183.0625 173.0625 182.54688L174.14062 182.54688Q174.17188 182.98438 174.40625 183.25Q174.64062 183.51562 174.96875 183.625Q175.3125 183.71875 175.65625 183.71875Q176.09375 183.71875 176.39062 183.60938Q176.70312 183.48438 176.85938 183.28125Q177.01562 183.07812 177.01562 182.8125ZM181.98438 178.15625L181.98438 178.98438L178.54688 178.98438L178.54688 178.15625L181.98438 178.15625ZM179.71875 176.625L180.79688 176.625L180.79688 182.92188Q180.79688 183.25 180.89062 183.42188Q181.0 183.57812 181.15625 183.64062Q181.3125 183.6875 181.5 183.6875Q181.625 183.6875 181.76562 183.65625Q181.92188 183.625 182.0 183.60938L182.01562 184.5Q181.875 184.54688 181.67188 184.57812Q181.46875 184.625 181.17188 184.625Q180.78125 184.625 180.4375 184.46875Q180.10938 184.29688 179.90625 183.9375Q179.71875 183.5625 179.71875 182.92188L179.71875 176.625ZM184.5 178.15625L184.5 184.5L183.42188 184.5L183.42188 178.15625L184.5 178.15625ZM183.32812 176.48438Q183.32812 176.21875 183.48438 176.03125Q183.65625 175.84375 183.96875 175.84375Q184.28125 175.84375 184.4375 176.03125Q184.60938 176.21875 184.60938 176.48438Q184.60938 176.73438 184.4375 176.92188Q184.28125 177.09375 183.96875 177.09375Q183.65625 177.09375 183.48438 176.92188Q183.32812 176.73438 183.32812 176.48438ZM190.4375 178.15625L191.42188 178.15625L191.42188 184.35938Q191.42188 185.20312 191.07812 185.79688Q190.73438 186.39062 190.125 186.6875Q189.53125 187.0 188.73438 187.0Q188.40625 187.0 187.95312 186.89062Q187.51562 186.79688 187.09375 186.54688Q186.67188 186.3125 186.39062 185.90625L186.95312 185.25Q187.35938 185.73438 187.78125 185.92188Q188.21875 186.10938 188.65625 186.10938Q189.17188 186.10938 189.54688 185.90625Q189.92188 185.71875 190.125 185.34375Q190.32812 184.96875 190.32812 184.42188L190.32812 179.54688L190.4375 178.15625ZM186.0625 181.40625L186.0625 181.28125Q186.0625 180.54688 186.23438 179.95312Q186.42188 179.35938 186.73438 178.9375Q187.0625 178.5 187.51562 178.28125Q187.98438 178.04688 188.57812 178.04688Q189.17188 178.04688 189.60938 178.25Q190.0625 178.45312 190.375 178.85938Q190.6875 179.25 190.875 179.8125Q191.0625 180.35938 191.125 181.0625L191.125 181.60938Q191.0625 182.29688 190.875 182.85938Q190.6875 183.42188 190.375 183.8125Q190.0625 184.20312 189.60938 184.42188Q189.15625 184.625 188.5625 184.625Q187.98438 184.625 187.53125 184.39062Q187.07812 184.14062 186.75 183.70312Q186.42188 183.26562 186.23438 182.6875Q186.0625 182.09375 186.0625 181.40625ZM187.15625 181.28125L187.15625 181.40625Q187.15625 181.875 187.25 182.29688Q187.34375 182.70312 187.54688 183.03125Q187.75 183.34375 188.0625 183.53125Q188.39062 183.70312 188.82812 183.70312Q189.35938 183.70312 189.70312 183.46875Q190.0625 183.23438 190.26562 182.85938Q190.48438 182.48438 190.59375 182.04688L190.59375 180.64062Q190.53125 180.3125 190.39062 180.01562Q190.26562 179.71875 190.0625 179.48438Q189.85938 179.23438 189.54688 179.09375Q189.25 178.95312 188.82812 178.95312Q188.39062 178.95312 188.0625 179.14062Q187.75 179.32812 187.54688 179.65625Q187.34375 179.96875 187.25 180.39062Q187.15625 180.79688 187.15625 181.28125ZM195.95312 184.625Q195.29688 184.625 194.75 184.40625Q194.21875 184.17188 193.82812 183.76562Q193.45312 183.34375 193.25 182.78125Q193.04688 182.21875 193.04688 181.54688L193.04688 181.3125Q193.04688 180.53125 193.26562 179.92188Q193.5 179.3125 193.89062 178.89062Q194.28125 178.46875 194.78125 178.26562Q195.28125 178.04688 195.8125 178.04688Q196.5 178.04688 196.98438 178.28125Q197.48438 178.51562 197.79688 178.9375Q198.125 179.34375 198.26562 179.92188Q198.42188 180.48438 198.42188 181.14062L198.42188 181.64062L193.6875 181.64062L193.6875 180.75L197.34375 180.75L197.34375 180.67188Q197.3125 180.25 197.15625 179.85938Q197.01562 179.45312 196.6875 179.20312Q196.375 178.9375 195.8125 178.9375Q195.45312 178.9375 195.14062 179.09375Q194.82812 179.25 194.59375 179.5625Q194.375 179.85938 194.25 180.29688Q194.14062 180.73438 194.14062 181.3125L194.14062 181.54688Q194.14062 182.0 194.26562 182.40625Q194.39062 182.79688 194.625 183.09375Q194.875 183.39062 195.21875 183.5625Q195.57812 183.73438 196.01562 183.73438Q196.59375 183.73438 196.98438 183.5Q197.39062 183.26562 197.6875 182.875L198.34375 183.39062Q198.14062 183.70312 197.8125 183.98438Q197.5 184.26562 197.03125 184.45312Q196.57812 184.625 195.95312 184.625Z" fill-rule="nonzero"/><path stroke="#cccccc" stroke-width="1.0" stroke-linecap="butt" d="M365.0 290.0L365.0 101.0" fill-rule="nonzero"/><path stroke="#ff0000" stroke-width="2.0" stroke-linecap="butt" stroke-opacity="0.7019608" stroke-dasharray="8.0,6.0,2.0,6.0" d="M365.0 210.0L431.0 252.0L426.0 325.0L365.0 342.0L340.0 304.0L222.0 207.0Z" fill-rule="nonzero"/><path fill="#ff0000" fill-opacity="0.7019608" d="M361.81802 206.81802L365.0 208.875L368.18198 206.81802L366.125 210.0L368.18198 213.18198L365.0 211.125L361.81802 213.18198L363.875 210.0Z" fill-rule="nonzero"/><path fill="#ff0000" fill-opacity="0.7019608" d="M427.81802 248.81802L431.0 250.875L434.18198 248.81802L432.125 252.0L434.18198 255.18198L431.0 253.125L427.81802 255.18198L429.875 252.0Z" fill-rule="nonzero"/><path fill="#ff0000" fill-opacity="0.7019608" d="M422.81802 321.81802L426.0 323.875L429.18198 321.81802L427.125 325.0L429.18198 328.18198L426.0 326.125L422.81802 328.18198L424.875 325.0Z" fill-rule="nonzero"/><path fill="#ff0000" fill-opacity="0.7019608" d="M361.81802 338.81802L365.0 340.875L368.18198 338.81802L366.125 342.0L368.18198 345.18198L365.0 343.125L361.81802 345.18198L363.875 342.0Z" fill-rule="nonzero"/><path fill="#ff0000" fill-opacity="0.7019608" d="M336.81802 300.81802L340.0 302.875L343.18198 300.81802L341.125 304.0L343.18198 307.18198L340.0 305.125L336.81802 307.18198L338.875 304.0Z" fill-rule="nonzero"/><path fill="#ff0000" fill-opacity="0.7019608" d="M218.81802 203.81802L222.0 205.875L225.18198 203.81802L223.125 207.0L225.18198 210.18198L222.0 208.125L218.81802 210.18198L220.875 207.0Z" fill-rule="nonzero"/><path fill="#757575" d="M38.665627 40.884377L40.55625 41.353127Q39.9625 43.696877 38.415627 44.93125Q36.86875 46.15 34.61875 46.15Q32.30625 46.15 30.853125 45.2125Q29.415625 44.259377 28.65 42.478127Q27.9 40.68125 27.9 38.634377Q27.9 36.4 28.74375 34.74375Q29.603125 33.071877 31.18125 32.2125Q32.759377 31.337502 34.65 31.337502Q36.80625 31.337502 38.259377 32.43125Q39.728127 33.525 40.30625 35.509377L38.446877 35.946877Q37.946877 34.384377 36.99375 33.68125Q36.05625 32.9625 34.61875 32.9625Q32.9625 32.9625 31.853125 33.759377Q30.74375 34.540627 30.290625 35.884377Q29.853125 37.2125 29.853125 38.61875Q29.853125 40.446877 30.384375 41.821877Q30.915625 43.18125 32.040627 43.853127Q33.165627 44.525 34.4625 44.525Q36.05625 44.525 37.165627 43.603127Q38.275 42.68125 38.665627 40.884377ZM48.99375 44.61875Q48.009377 45.446877 47.103127 45.790627Q46.196877 46.134377 45.165627 46.134377Q43.4625 46.134377 42.540627 45.30625Q41.61875 44.4625 41.61875 43.165627Q41.61875 42.4 41.9625 41.775Q42.321877 41.15 42.884377 40.775Q43.446877 40.384377 44.15 40.18125Q44.665627 40.05625 45.7125 39.915627Q47.8375 39.665627 48.8375 39.321877Q48.853127 38.9625 48.853127 38.853127Q48.853127 37.790627 48.353127 37.3375Q47.68125 36.74375 46.353127 36.74375Q45.103127 36.74375 44.509377 37.18125Q43.93125 37.61875 43.65 38.728127L41.93125 38.49375Q42.165627 37.384377 42.696877 36.7125Q43.228127 36.025 44.24375 35.665627Q45.259377 35.290627 46.603127 35.290627Q47.93125 35.290627 48.759377 35.603127Q49.5875 35.915627 49.978127 36.4Q50.36875 36.86875 50.525 37.5875Q50.61875 38.040627 50.61875 39.2125L50.61875 41.55625Q50.61875 44.009377 50.728127 44.665627Q50.8375 45.30625 51.18125 45.9L49.3375 45.9Q49.071877 45.353127 48.99375 44.61875ZM48.8375 40.696877Q47.884377 41.0875 45.9625 41.353127Q44.884377 41.509377 44.43125 41.7125Q43.99375 41.9 43.74375 42.275Q43.49375 42.65 43.49375 43.11875Q43.49375 43.821877 44.025 44.290627Q44.55625 44.759377 45.5875 44.759377Q46.603127 44.759377 47.384377 44.321877Q48.18125 43.86875 48.55625 43.103127Q48.8375 42.49375 48.8375 41.3375L48.8375 40.696877ZM53.2125 49.86875L53.2125 35.525L54.821877 35.525L54.821877 36.86875Q55.384377 36.0875 56.0875 35.696877Q56.80625 35.290627 57.821877 35.290627Q59.15 35.290627 60.165627 35.978127Q61.18125 36.665627 61.696877 37.915627Q62.228127 39.15 62.228127 40.634377Q62.228127 42.228127 61.65 43.509377Q61.0875 44.775 59.99375 45.4625Q58.9 46.134377 57.696877 46.134377Q56.821877 46.134377 56.11875 45.759377Q55.43125 45.384377 54.978127 44.821877L54.978127 49.86875L53.2125 49.86875ZM54.80625 40.775Q54.80625 42.775 55.61875 43.728127Q56.43125 44.68125 57.5875 44.68125Q58.759377 44.68125 59.5875 43.696877Q60.43125 42.7125 60.43125 40.61875Q60.43125 38.65 59.603127 37.665627Q58.790627 36.665627 57.665627 36.665627Q56.540627 36.665627 55.665627 37.728127Q54.80625 38.775 54.80625 40.775ZM69.47813 41.8375L71.18125 41.603127Q71.25938 43.24375 71.80625 43.853127Q72.35313 44.446877 73.32188 44.446877Q74.025 44.446877 74.54063 44.134377Q75.05625 43.80625 75.24375 43.24375Q75.44688 42.68125 75.44688 41.446877L75.44688 31.587502L77.35313 31.587502L77.35313 41.3375Q77.35313 43.134377 76.91563 44.11875Q76.47813 45.103127 75.525 45.634377Q74.5875 46.15 73.32188 46.15Q71.44688 46.15 70.43125 45.071877Q69.43125 43.978127 69.47813 41.8375ZM87.00938 45.9L87.00938 44.36875Q85.80625 46.134377 83.72813 46.134377Q82.80625 46.134377 82.00938 45.790627Q81.2125 45.43125 80.82188 44.9Q80.44688 44.36875 80.29063 43.5875Q80.18125 43.071877 80.18125 41.946877L80.18125 35.525L81.93125 35.525L81.93125 41.275Q81.93125 42.65 82.04063 43.134377Q82.2125 43.821877 82.74375 44.228127Q83.29063 44.61875 84.07188 44.61875Q84.86875 44.61875 85.55625 44.2125Q86.25938 43.80625 86.54063 43.11875Q86.8375 42.415627 86.8375 41.0875L86.8375 35.525L88.5875 35.525L88.5875 45.9L87.00938 45.9ZM90.2125 45.9L90.2125 35.525L91.80625 35.525L91.80625 37.009377Q92.94688 35.290627 95.10313 35.290627Q96.04063 35.290627 96.82188 35.634377Q97.61875 35.9625 98.00938 36.509377Q98.4 37.05625 98.55625 37.80625Q98.65 38.30625 98.65 39.525L98.65 45.9L96.88438 45.9L96.88438 39.5875Q96.88438 38.509377 96.68125 37.978127Q96.47813 37.446877 95.94688 37.134377Q95.43125 36.821877 94.72813 36.821877Q93.60313 36.821877 92.79063 37.540627Q91.97813 38.24375 91.97813 40.228127L91.97813 45.9L90.2125 45.9ZM100.22813 45.9L100.22813 31.587502L101.99375 31.587502L101.99375 39.74375L106.15 35.525L108.41563 35.525L104.4625 39.36875L108.82188 45.9L106.65 45.9L103.22813 40.603127L101.99375 41.790627L101.99375 45.9L100.22813 45.9ZM110.13438 49.9L109.94688 48.24375Q110.525 48.4 110.94688 48.4Q111.54063 48.4 111.88438 48.196877Q112.24375 48.009377 112.4625 47.665627Q112.63438 47.4 113.00938 46.353127Q113.05625 46.196877 113.16563 45.915627L109.22813 35.525L111.11875 35.525L113.275 41.540627Q113.69688 42.68125 114.025 43.93125Q114.3375 42.728127 114.74375 41.571877L116.9625 35.525L118.72813 35.525L114.775 46.071877Q114.15 47.790627 113.79063 48.43125Q113.32188 49.30625 112.7125 49.696877Q112.11875 50.103127 111.275 50.103127Q110.75938 50.103127 110.13438 49.9Z" fill-rule="nonzero"/></svg>