<svg version="1.1" viewBox="0.0 0.0 730.0 538.0" fill="none" stroke="none" stroke-linecap="square" stroke-miterlimit="10" width="730" height="538" xmlns:xlink="http://www.w3.org/1999/xlink" xmlns="http://www.w3.org/2000/svg"><path fill="#ffffff" d="M0 0L730.0 0L730.0 538.0L0 538.0L0 0Z" fill-rule="nonzero"/><path fill="#ffffff" d="M26.9 68.833336L703.10004 68.833336L703.10004 511.1L26.9 511.1L26.9 68.833336Z" fill-rule="nonzero"/><path stroke="#cccccc" stroke-width="1.0" stroke-linecap="butt" d="M365.0 290.0C365.0 290.0 365.0 290.0 365.0 290.0C365.0 290.0 365.0 290.0 365.0 290.0C365.0 290.0 365.0 290.0 365.0 290.0C365.0 290.0 365.0 290.0 365.0 290.0" fill-rule="nonzero"/><path fill="#000000" d="M353.0625 282.04688L353.0625 283.35938Q353.0625 284.40625 352.875 285.125Q352.6875 285.84375 352.32812 286.28125Q351.98438 286.71875 351.48438 286.92188Q351.0 287.125 350.375 287.125Q349.89062 287.125 349.46875 287.0Q349.04688 286.875 348.71875 286.60938Q348.39062 286.32812 348.15625 285.89062Q347.92188 285.45312 347.79688 284.82812Q347.67188 284.1875 347.67188 283.35938L347.67188 282.04688Q347.67188 281.0 347.85938 280.29688Q348.0625 279.59375 348.40625 279.15625Q348.76562 278.71875 349.25 278.53125Q349.75 278.34375 350.35938 278.34375Q350.85938 278.34375 351.28125 278.46875Q351.70312 278.59375 352.03125 278.85938Q352.35938 279.10938 352.57812 279.54688Q352.8125 279.96875 352.9375 280.59375Q353.0625 281.21875 353.0625 282.04688ZM351.96875 283.53125L351.96875 281.875Q351.96875 281.29688 351.90625 280.85938Q351.84375 280.42188 351.70312 280.10938Q351.57812 279.79688 351.375 279.60938Q351.1875 279.42188 350.9375 279.32812Q350.6875 279.23438 350.35938 279.23438Q349.98438 279.23438 349.67188 279.375Q349.375 279.51562 349.17188 279.82812Q348.96875 280.14062 348.85938 280.65625Q348.76562 281.15625 348.76562 281.875L348.76562 283.53125Q348.76562 284.10938 348.82812 284.54688Q348.90625 284.98438 349.03125 285.3125Q349.17188 285.625 349.35938 285.82812Q349.5625 286.03125 349.8125 286.125Q350.0625 286.21875 350.375 286.21875Q350.78125 286.21875 351.07812 286.07812Q351.375 285.92188 351.57812 285.59375Q351.78125 285.26562 351.875 284.76562Q351.96875 284.25 351.96875 283.53125ZM355.8125 285.70312L355.8125 286.57812Q355.8125 287.125 355.53125 287.71875Q355.26562 288.3125 354.78125 288.70312L354.17188 288.28125Q354.35938 288.01562 354.48438 287.75Q354.60938 287.48438 354.67188 287.20312Q354.75 286.92188 354.75 286.59375L354.75 285.70312L355.8125 285.70312ZM362.0625 282.04688L362.0625 283.35938Q362.0625 284.40625 361.875 285.125Q361.6875 285.84375 361.32812 286.28125Q360.98438 286.71875 360.48438 286.92188Q360.0 287.125 359.375 287.125Q358.89062 287.125 358.46875 287.0Q358.04688 286.875 357.71875 286.60938Q357.39062 286.32812 357.15625 285.89062Q356.92188 285.45312 356.79688 284.82812Q356.67188 284.1875 356.67188 283.35938L356.67188 282.04688Q356.67188 281.0 356.85938 280.29688Q357.0625 279.59375 357.40625 279.15625Q357.76562 278.71875 358.25 278.53125Q358.75 278.34375 359.35938 278.34375Q359.85938 278.34375 360.28125 278.46875Q360.70312 278.59375 361.03125 278.85938Q361.35938 279.10938 361.57812 279.54688Q361.8125 279.96875 361.9375 280.59375Q362.0625 281.21875 362.0625 282.04688ZM360.96875 283.53125L360.96875 281.875Q360.96875 281.29688 360.90625 280.85938Q360.84375 280.42188 360.70312 280.10938Q360.57812 279.79688 360.375 279.60938Q360.1875 279.42188 359.9375 279.32812Q359.6875 279.23438 359.35938 279.23438Q358.98438 279.23438 358.67188 279.375Q358.375 279.51562 358.17188 279.82812Q357.96875 280.14062 357.85938 280.65625Q357.76562 281.15625 357.76562 281.875L357.76562 283.53125Q357.76562 284.10938 357.82812 284.54688Q357.90625 284.98438 358.03125 285.3125Q358.17188 285.625 358.35938 285.82812Q358.5625 286.03125 358.8125 286.125Q359.0625 286.21875 359.375 286.21875Q359.78125 286.21875 360.07812 286.07812Q360.375 285.92188 360.57812 285.59375Q360.78125 285.26562 360.875 284.76562Q360.96875 284.25 360.96875 283.53125Z" fill-rule="nonzero"/><path stroke="#cccccc" stroke-width="1.0" stroke-linecap="butt" d="M412.28333 290.0C412.28333 263.88614 391.11386 242.71666 365.0 242.71666C338.88614 242.71666 317.71667 263.88614 317.71667 290.0C317.71667 316.11386 338.88614 337.28333 365.0 337.28333C391.11386 337.28333 412.28333 316.11386 412.28333 290.0" fill-rule="nonzero"/><path fill="#000000" d="M353.0625 234.76353L353.0625 236.07603Q353.0625 237.12291 352.875 237.84166Q352.6875 238.56041 352.32812 238.99791Q351.98438 239.43541 351.48438 239.63853Q351.0 239.84166 350.375 239.84166Q349.89062 239.84166 349.46875 239.71666Q349.04688 239.59166 348.71875 239.32603Q348.39062 239.04478 348.15625 238.60728Q347.92188 238.16978 347.79688 237.54478Q347.67188 236.90416 347.67188 236.07603L347.67188 234.76353Q347.67188 233.71666 347.85938 233.01353Q348.0625 232.31041 348.40625 231.87291Q348.76562 231.43541 349.25 231.24791Q349.75 231.06041 350.35938 231.06041Q350.85938 231.06041 351.28125 231.18541Q351.70312 231.31041 352.03125 231.57603Q352.35938 231.82603 352.57812 232.26353Q352.8125 232.68541 352.9375 233.31041Q353.0625 233.93541 353.0625 234.76353ZM351.96875 236.24791L351.96875 234.59166Q351.96875 234.01353 351.90625 233.57603Q351.84375 233.13853 351.70312 232.82603Q351.57812 232.51353 351.375 232.32603Q351.1875 232.13853 350.9375 232.04478Q350.6875 231.95103 350.35938 231.95103Q349.98438 231.95103 349.67188 232.09166Q349.375 232.23228 349.17188 232.54478Q348.96875 232.85728 348.85938 233.37291Q348.76562 233.87291 348.76562 234.59166L348.76562 236.24791Q348.76562 236.82603 348.82812 237.26353Q348.90625 237.70103 349.03125 238.02916Q349.17188 238.34166 349.35938 238.54478Q349.5625 238.74791 349.8125 238.84166Q350.0625 238.93541 350.375 238.93541Q350.78125 238.93541 351.07812 238.79478Q351.375 238.63853 351.57812 238.31041Q351.78125 237.98228 351.875 237.48228Q351.96875 236.96666 351.96875 236.24791ZM355.8125 238.41978L355.8125 239.29478Q355.8125 239.84166 355.53125 240.43541Q355.26562 241.02916 354.78125 241.41978L354.17188 240.99791Q354.35938 240.73228 354.48438 240.46666Q354.60938 240.20103 354.67188 239.91978Q354.75 239.63853 354.75 239.31041L354.75 238.41978L355.8125 238.41978ZM360.26562 231.13853L360.26562 239.71666L359.1875 239.71666L359.1875 232.49791L357.0 233.29478L357.0 232.31041L360.10938 231.13853L360.26562 231.13853Z" fill-rule="nonzero"/><path stroke="#cccccc" stroke-width="1.0" stroke-linecap="butt" d="M459.56668 290.0C459.56668 237.77228 417.22772 195.43333 365.0 195.43333C312.77228 195.43333 270.43332 237.77228 270.43332 290.0C270.43332 342.22772 312.77228 384.56668 365.0 384.56668C417.22772 384.56668 459.56668 342.22772 459.56668 290.0" fill-rule="nonzero"/><path fill="#000000" d="M353.0625 187.48021L353.0625 188.79271Q353.0625 189.83958 352.875 190.55833Q352.6875 191.27708 352.32812 191.71458Q351.98438 192.15208 351.48438 192.35521Q351.0 192.55833 350.375 192.55833Q349.89062 192.55833 349.46875 192.43333Q349.04688 192.30833 348.71875 192.04271Q348.39062 191.76146 348.15625 191.32396Q347.92188 190.88646 347.79688 190.26146Q347.67188 189.62083 347.67188 188.79271L347.67188 187.48021Q347.67188 186.43333 347.85938 185.73021Q348.0625 185.02708 348.40625 184.58958Q348.76562 184.15208 349.25 183.96458Q349.75 183.77708 350.35938 183.77708Q350.85938 183.77708 351.28125 183.90208Q351.70312 184.02708 352.03125 184.29271Q352.35938 184.54271 352.57812 184.98021Q352.8125 185.40208 352.9375 186.02708Q353.0625 186.65208 353.0625 187.48021ZM351.96875 188.96458L351.96875 187.30833Q351.96875 186.73021 351.90625 186.29271Q351.84375 185.85521 351.70312 185.54271Q351.57812 185.23021 351.375 185.04271Q351.1875 184.85521 350.9375 184.76146Q350.6875 184.66771 350.35938 184.66771Q349.98438 184.66771 349.67188 184.80833Q349.375 184.94896 349.17188 185.26146Q348.96875 185.57396 348.85938 186.08958Q348.76562 186.58958 348.76562 187.30833L348.76562 188.96458Q348.76562 189.54271 348.82812 189.98021Q348.90625 190.41771 349.03125 190.74583Q349.17188 191.05833 349.35938 191.26146Q349.5625 191.46458 349.8125 191.55833Q350.0625 191.65208 350.375 191.65208Q350.78125 191.65208 351.07812 191.51146Q351.375 191.35521 351.57812 191.02708Q351.78125 190.69896 351.875 190.19896Q351.96875 189.68333 351.96875 188.96458ZM355.8125 191.13646L355.8125 192.01146Q355.8125 192.55833 355.53125 193.15208Q355.26562 193.74583 354.78125 194.13646L354.17188 193.71458Q354.35938 193.44896 354.48438 193.18333Q354.60938 192.91771 354.67188 192.63646Q354.75 192.35521 354.75 192.02708L354.75 191.13646L355.8125 191.13646ZM362.29688 191.54271L362.29688 192.43333L356.71875 192.43333L356.71875 191.65208L359.51562 188.54271Q360.03125 187.96458 360.3125 187.57396Q360.59375 187.16771 360.70312 186.85521Q360.82812 186.52708 360.82812 186.19896Q360.82812 185.77708 360.65625 185.43333Q360.48438 185.08958 360.14062 184.88646Q359.8125 184.66771 359.32812 184.66771Q358.76562 184.66771 358.39062 184.90208Q358.01562 185.12083 357.82812 185.51146Q357.64062 185.90208 357.64062 186.40208L356.54688 186.40208Q356.54688 185.68333 356.85938 185.08958Q357.1875 184.49583 357.79688 184.13646Q358.42188 183.77708 359.32812 183.77708Q360.14062 183.77708 360.71875 184.07396Q361.29688 184.35521 361.59375 184.87083Q361.90625 185.37083 361.90625 186.05833Q361.90625 186.43333 361.78125 186.82396Q361.65625 187.19896 361.4375 187.58958Q361.21875 187.96458 360.92188 188.33958Q360.64062 188.69896 360.3125 189.05833L358.01562 191.54271L362.29688 191.54271Z" fill-rule="nonzero"/><path stroke="#cccccc" stroke-width="1.0" stroke-linecap="butt" d="M506.85 290.0C506.85 211.6584 443.34158 148.15 365.0 148.15C286.65842 148.15 223.15 211.6584 223.15 290.0C223.15 368.34158 286.65842 431.85 365.0 431.85C443.34158 431.85 506.85 368.34158 506.85 290.0" fill-rule="nonzero"/><path fill="#000000" d="M353.0625 140.19687L353.0625 141.50937Q353.0625 142.55624 352.875 143.275Q352.6875 143.99374 352.32812 144.43124Q351.98438 144.86874 351.48438 145.07187Q351.0 145.275 350.375 145.275Q349.89062 145.275 349.46875 145.15Q349.04688 145.025 348.71875 144.75937Q348.39062 144.47812 348.15625 144.04062Q347.92188 143.60312 347.79688 142.97812Q347.67188 142.3375 347.67188 141.50937L347.67188 140.19687Q347.67188 139.15 347.85938 138.44687Q348.0625 137.74374 348.40625 137.30624Q348.76562 136.86874 349.25 136.68124Q349.75 136.49374 350.35938 136.49374Q350.85938 136.49374 351.28125 136.61874Q351.70312 136.74374 352.03125 137.00937Q352.35938 137.25937 352.57812 137.69687Q352.8125 138.11874 352.9375 138.74374Q353.0625 139.36874 353.0625 140.19687ZM351.96875 141.68124L351.96875 140.025Q351.96875 139.44687 351.90625 139.00937Q351.84375 138.57187 351.70312 138.25937Q351.57812 137.94687 351.375 137.75937Q351.1875 137.57187 350.9375 137.47812Q350.6875 137.38437 350.35938 137.38437Q349.98438 137.38437 349.67188 137.525Q349.375 137.66562 349.17188 137.97812Q348.96875 138.29062 348.85938 138.80624Q348.76562 139.30624 348.76562 140.025L348.76562 141.68124Q348.76562 142.25937 348.82812 142.69687Q348.90625 143.13437 349.03125 143.4625Q349.17188 143.775 349.35938 143.97812Q349.5625 144.18124 349.8125 144.275Q350.0625 144.36874 350.375 144.36874Q350.78125 144.36874 351.07812 144.22812Q351.375 144.07187 351.57812 143.74374Q351.78125 143.41562 351.875 142.91562Q351.96875 142.4 351.96875 141.68124ZM355.8125 143.85312L355.8125 144.72812Q355.8125 145.275 355.53125 145.86874Q355.26562 146.4625 354.78125 146.85312L354.17188 146.43124Q354.35938 146.16562 354.48438 145.9Q354.60938 145.63437 354.67188 145.35312Q354.75 145.07187 354.75 144.74374L354.75 143.85312L355.8125 143.85312ZM358.29688 140.35312L359.0625 140.35312Q359.64062 140.35312 360.0 140.16562Q360.375 139.9625 360.5625 139.63437Q360.75 139.30624 360.75 138.88437Q360.75 138.4 360.57812 138.07187Q360.42188 137.72812 360.09375 137.55624Q359.76562 137.38437 359.26562 137.38437Q358.79688 137.38437 358.45312 137.57187Q358.10938 137.74374 357.90625 138.07187Q357.71875 138.4 357.71875 138.85312L356.625 138.85312Q356.625 138.19687 356.95312 137.66562Q357.28125 137.13437 357.875 136.82187Q358.46875 136.49374 359.26562 136.49374Q360.03125 136.49374 360.60938 136.775Q361.1875 137.04062 361.51562 137.5875Q361.84375 138.11874 361.84375 138.91562Q361.84375 139.24374 361.6875 139.60312Q361.53125 139.9625 361.21875 140.29062Q360.90625 140.60312 360.40625 140.80624Q359.92188 141.00937 359.21875 141.00937L358.29688 141.00937L358.29688 140.35312ZM358.29688 141.24374L358.29688 140.5875L359.21875 140.5875Q360.03125 140.5875 360.5625 140.79062Q361.09375 140.97812 361.40625 141.30624Q361.71875 141.61874 361.84375 142.00937Q361.96875 142.38437 361.96875 142.775Q361.96875 143.36874 361.76562 143.8375Q361.5625 144.29062 361.1875 144.61874Q360.82812 144.93124 360.32812 145.10312Q359.84375 145.275 359.26562 145.275Q358.70312 145.275 358.21875 145.11874Q357.73438 144.94687 357.35938 144.65Q356.98438 144.35312 356.76562 143.91562Q356.5625 143.4625 356.5625 142.9L357.64062 142.9Q357.64062 143.3375 357.82812 143.68124Q358.03125 144.00937 358.39062 144.19687Q358.76562 144.36874 359.26562 144.36874Q359.76562 144.36874 360.125 144.19687Q360.48438 144.025 360.67188 143.68124Q360.875 143.32187 360.875 142.79062Q360.875 142.25937 360.65625 141.91562Q360.4375 141.57187 360.01562 141.41562Q359.60938 141.24374 359.0625 141.24374L358.29688 141.24374Z" fill-rule="nonzero"/><path stroke="#cccccc" stroke-width="1.0" stroke-linecap="butt" d="M554.13336 290.0C554.13336 185.54454 469.45544 100.86667 365.0 100.86667C260.54456 100.86667 175.86667 185.54454 175.86667 290.0C175.86667 394.45544 260.54456 479.13333 365.0 479.13333C469.45544 479.13333 554.13336 394.45544 554.13336 290.0" fill-rule="nonzero"/><path fill="#000000" d="M353.0625 92.91354L353.0625 94.22604Q353.0625 95.27292 352.875 95.99167Q352.6875 96.71042 352.32812 97.14792Q351.98438 97.58542 351.48438 97.78854Q351.0 97.99167 350.375 97.99167Q349.89062 97.99167 349.46875 97.86667Q349.04688 97.74167 348.71875 97.47604Q348.39062 97.19479 348.15625 96.75729Q347.92188 96.31979 347.79688 95.69479Q347.67188 95.05417 347.67188 94.22604L347.67188 92.91354Q347.67188 91.86667 347.85938 91.16354Q348.0625 90.46042 348.40625 90.02292Q348.76562 89.58542 349.25 89.39792Q349.75 89.21042 350.35938 89.21042Q350.85938 89.21042 351.28125 89.33542Q351.70312 89.46042 352.03125 89.72604Q352.35938 89.97604 352.57812 90.41354Q352.8125 90.83542 352.9375 91.46042Q353.0625 92.08542 353.0625 92.91354ZM351.96875 94.39792L351.96875 92.74167Q351.96875 92.16354 351.90625 91.72604Q351.84375 91.28854 351.70312 90.97604Q351.57812 90.66354 351.375 90.47604Q351.1875 90.28854 350.9375 90.19479Q350.6875 90.10104 350.35938 90.10104Q349.98438 90.10104 349.67188 90.24167Q349.375 90.38229 349.17188 90.69479Q348.96875 91.00729 348.85938 91.52292Q348.76562 92.02292 348.76562 92.74167L348.76562 94.39792Q348.76562 94.97604 348.82812 95.41354Q348.90625 95.85104 349.03125 96.17917Q349.17188 96.49167 349.35938 96.69479Q349.5625 96.89792 349.8125 96.99167Q350.0625 97.08542 350.375 97.08542Q350.78125 97.08542 351.07812 96.94479Q351.375 96.78854 351.57812 96.46042Q351.78125 96.13229 351.875 95.63229Q351.96875 95.11667 351.96875 94.39792ZM355.8125 96.56979L355.8125 97.44479Q355.8125 97.99167 355.53125 98.58542Q355.26562 99.17917 354.78125 99.56979L354.17188 99.14792Q354.35938 98.88229 354.48438 98.61667Q354.60938 98.35104 354.67188 98.06979Q354.75 97.78854 354.75 97.46042L354.75 96.56979L355.8125 96.56979ZM362.46875 94.99167L362.46875 95.88229L356.3125 95.88229L356.3125 95.24167L360.125 89.33542L361.01562 89.33542L360.0625 91.03854L357.54688 94.99167L362.46875 94.99167ZM361.28125 89.33542L361.28125 97.86667L360.20312 97.86667L360.20312 89.33542L361.28125 89.33542Z" fill-rule="nonzero"/><path stroke="#cccccc" stroke-width="1.0" stroke-linecap="butt" d="M365.0 290.0L365.0 101.0" fill-rule="nonzero"/><path fill="#000000" d="M335.64062 79.78125L336.76562 79.78125Q336.67188 80.59375 336.29688 81.234375Q335.92188 81.875 335.23438 82.25Q334.5625 82.625 333.53125 82.625Q332.78125 82.625 332.17188 82.34375Q331.5625 82.046875 331.10938 81.53125Q330.67188 81.015625 330.4375 80.296875Q330.20312 79.5625 330.20312 78.65625L330.20312 77.8125Q330.20312 76.921875 330.4375 76.1875Q330.67188 75.453125 331.125 74.9375Q331.57812 74.40625 332.20312 74.125Q332.84375 73.84375 333.625 73.84375Q334.59375 73.84375 335.26562 74.21875Q335.9375 74.578125 336.29688 75.21875Q336.67188 75.859375 336.76562 76.703125L335.64062 76.703125Q335.5625 76.109375 335.32812 75.6875Q335.10938 75.25 334.70312 75.015625Q334.29688 74.78125 333.625 74.78125Q333.0625 74.78125 332.625 75.0Q332.20312 75.203125 331.90625 75.609375Q331.625 76.0 331.46875 76.5625Q331.32812 77.125 331.32812 77.796875L331.32812 78.65625Q331.32812 79.28125 331.45312 79.84375Q331.59375 80.390625 331.85938 80.8125Q332.125 81.21875 332.54688 81.46875Q332.96875 81.703125 333.53125 81.703125Q334.25 81.703125 334.67188 81.46875Q335.10938 81.234375 335.32812 80.8125Q335.54688 80.390625 335.64062 79.78125ZM342.0625 81.421875L342.0625 78.15625Q342.0625 77.78125 341.90625 77.5Q341.76562 77.21875 341.46875 77.078125Q341.17188 76.921875 340.73438 76.921875Q340.3125 76.921875 340.0 77.0625Q339.70312 77.203125 339.53125 77.4375Q339.35938 77.65625 339.35938 77.921875L338.28125 77.921875Q338.28125 77.578125 338.45312 77.25Q338.625 76.90625 338.95312 76.640625Q339.28125 76.359375 339.75 76.203125Q340.21875 76.046875 340.79688 76.046875Q341.48438 76.046875 342.01562 76.28125Q342.54688 76.515625 342.84375 76.984375Q343.15625 77.453125 343.15625 78.15625L343.15625 81.109375Q343.15625 81.4375 343.20312 81.796875Q343.26562 82.140625 343.375 82.40625L343.375 82.5L342.23438 82.5Q342.15625 82.3125 342.10938 82.0Q342.0625 81.6875 342.0625 81.421875ZM342.25 78.65625L342.26562 79.421875L341.17188 79.421875Q340.70312 79.421875 340.34375 79.5Q339.98438 79.5625 339.73438 79.71875Q339.48438 79.859375 339.35938 80.078125Q339.23438 80.296875 339.23438 80.59375Q339.23438 80.890625 339.35938 81.140625Q339.5 81.375 339.76562 81.53125Q340.04688 81.671875 340.4375 81.671875Q340.9375 81.671875 341.3125 81.46875Q341.70312 81.25 341.92188 80.953125Q342.15625 80.640625 342.17188 80.34375L342.64062 80.875Q342.59375 81.109375 342.40625 81.421875Q342.23438 81.71875 341.92188 82.0Q341.625 82.265625 341.20312 82.453125Q340.79688 82.625 340.28125 82.625Q339.64062 82.625 339.15625 82.375Q338.67188 82.109375 338.40625 81.6875Q338.14062 81.265625 338.14062 80.734375Q338.14062 80.21875 338.32812 79.84375Q338.53125 79.453125 338.90625 79.1875Q339.28125 78.921875 339.8125 78.796875Q340.34375 78.65625 341.0 78.65625L342.25 78.65625ZM346.40625 77.15625L346.40625 82.5L345.32812 82.5L345.32812 76.15625L346.375 76.15625L346.40625 77.15625ZM348.39062 76.125L348.39062 77.125Q348.25 77.109375 348.125 77.09375Q348.01562 77.078125 347.85938 77.078125Q347.48438 77.078125 347.1875 77.203125Q346.90625 77.3125 346.70312 77.53125Q346.51562 77.734375 346.39062 78.03125Q346.28125 78.328125 346.25 78.671875L345.9375 78.84375Q345.9375 78.265625 346.04688 77.765625Q346.17188 77.265625 346.40625 76.875Q346.65625 76.484375 347.01562 76.265625Q347.39062 76.046875 347.90625 76.046875Q348.03125 76.046875 348.17188 76.078125Q348.32812 76.09375 348.39062 76.125ZM351.10938 81.84375L352.875 76.15625L354.03125 76.15625L351.48438 83.484375Q351.40625 83.71875 351.25 83.984375Q351.10938 84.265625 350.89062 84.5Q350.67188 84.75 350.35938 84.90625Q350.04688 85.0625 349.60938 85.0625Q349.48438 85.0625 349.28125 85.015625Q349.07812 84.984375 349.0 84.96875L349.0 84.09375Q349.04688 84.09375 349.14062 84.09375Q349.25 84.109375 349.28125 84.109375Q349.65625 84.109375 349.90625 84.015625Q350.17188 83.921875 350.34375 83.6875Q350.53125 83.46875 350.65625 83.078125L351.10938 81.84375ZM349.8125 76.15625L351.45312 81.078125L351.73438 82.21875L350.96875 82.625L348.625 76.15625L349.8125 76.15625ZM355.04688 79.40625L355.04688 79.265625Q355.04688 78.578125 355.23438 78.0Q355.4375 77.40625 355.8125 76.96875Q356.1875 76.53125 356.71875 76.296875Q357.25 76.046875 357.92188 76.046875Q358.57812 76.046875 359.10938 76.296875Q359.65625 76.53125 360.03125 76.96875Q360.40625 77.40625 360.60938 78.0Q360.8125 78.578125 360.8125 79.265625L360.8125 79.40625Q360.8125 80.078125 360.60938 80.671875Q360.40625 81.25 360.03125 81.6875Q359.65625 82.125 359.125 82.375Q358.59375 82.625 357.92188 82.625Q357.26562 82.625 356.71875 82.375Q356.1875 82.125 355.8125 81.6875Q355.4375 81.25 355.23438 80.671875Q355.04688 80.078125 355.04688 79.40625ZM356.125 79.265625L356.125 79.40625Q356.125 79.875 356.23438 80.296875Q356.34375 80.71875 356.5625 81.046875Q356.79688 81.359375 357.14062 81.546875Q357.48438 81.71875 357.92188 81.71875Q358.375 81.71875 358.70312 81.546875Q359.04688 81.359375 359.26562 81.046875Q359.5 80.71875 359.60938 80.296875Q359.71875 79.875 359.71875 79.40625L359.71875 79.265625Q359.71875 78.796875 359.60938 78.375Q359.5 77.953125 359.26562 77.640625Q359.04688 77.3125 358.70312 77.125Q358.375 76.9375 357.92188 76.9375Q357.46875 76.9375 357.125 77.125Q356.79688 77.3125 356.5625 77.640625Q356.34375 77.953125 356.23438 78.375Q356.125 78.796875 356.125 79.265625ZM363.40625 77.375L363.40625 84.9375L362.32812 84.9375L362.32812 76.15625L363.3125 76.15625L363.40625 77.375ZM367.6875 79.28125L367.6875 79.40625Q367.6875 80.09375 367.51562 80.6875Q367.35938 81.265625 367.04688 81.703125Q366.73438 82.140625 366.26562 82.390625Q365.8125 82.625 365.21875 82.625Q364.625 82.625 364.15625 82.421875Q363.6875 82.21875 363.35938 81.84375Q363.04688 81.453125 362.85938 80.921875Q362.67188 80.390625 362.59375 79.71875L362.59375 79.0625Q362.67188 78.359375 362.85938 77.8125Q363.04688 77.25 363.35938 76.859375Q363.6875 76.453125 364.14062 76.25Q364.60938 76.046875 365.20312 76.046875Q365.79688 76.046875 366.26562 76.28125Q366.73438 76.5 367.04688 76.9375Q367.35938 77.359375 367.51562 77.953125Q367.6875 78.546875 367.6875 79.28125ZM366.59375 79.40625L366.59375 79.28125Q366.59375 78.796875 366.48438 78.390625Q366.39062 77.96875 366.1875 77.65625Q365.98438 77.328125 365.65625 77.140625Q365.32812 76.953125 364.89062 76.953125Q364.48438 76.953125 364.17188 77.09375Q363.875 77.234375 363.65625 77.484375Q363.45312 77.71875 363.3125 78.015625Q363.1875 78.3125 363.125 78.640625L363.125 80.15625Q363.23438 80.5625 363.4375 80.921875Q363.65625 81.28125 364.0 81.5Q364.35938 81.71875 364.90625 81.71875Q365.34375 81.71875 365.65625 81.546875Q365.98438 81.359375 366.1875 81.046875Q366.39062 80.71875 366.48438 80.296875Q366.59375 79.875 366.59375 79.40625ZM370.40625 73.5L370.40625 82.5L369.32812 82.5L369.32812 73.5L370.40625 73.5ZM370.15625 79.09375L369.70312 79.078125Q369.70312 78.421875 369.89062 77.875Q370.07812 77.3125 370.42188 76.90625Q370.76562 76.5 371.23438 76.28125Q371.70312 76.046875 372.28125 76.046875Q372.75 76.046875 373.125 76.171875Q373.5 76.296875 373.76562 76.578125Q374.03125 76.84375 374.17188 77.28125Q374.3125 77.71875 374.3125 78.34375L374.3125 82.5L373.21875 82.5L373.21875 78.328125Q373.21875 77.828125 373.07812 77.53125Q372.9375 77.234375 372.65625 77.09375Q372.375 76.953125 371.95312 76.953125Q371.54688 76.953125 371.21875 77.125Q370.89062 77.296875 370.65625 77.59375Q370.42188 77.890625 370.28125 78.28125Q370.15625 78.65625 370.15625 79.09375ZM378.10938 81.84375L379.875 76.15625L381.03125 76.15625L378.48438 83.484375Q378.40625 83.71875 378.25 83.984375Q378.10938 84.265625 377.89062 84.5Q377.67188 84.75 377.35938 84.90625Q377.04688 85.0625 376.60938 85.0625Q376.48438 85.0625 376.28125 85.015625Q376.07812 84.984375 376.0 84.96875L376.0 84.09375Q376.04688 84.09375 376.14062 84.09375Q376.25 84.109375 376.28125 84.109375Q376.65625 84.109375 376.90625 84.015625Q377.17188 83.921875 377.34375 83.6875Q377.53125 83.46875 377.65625 83.078125L378.10938 81.84375ZM376.8125 76.15625L378.45312 81.078125L378.73438 82.21875L377.96875 82.625L375.625 76.15625L376.8125 76.15625ZM383.5 73.5L383.5 82.5L382.42188 82.5L382.42188 73.5L383.5 73.5ZM386.5 73.5L386.5 82.5L385.42188 82.5L385.42188 73.5L386.5 73.5ZM390.95312 82.625Q390.29688 82.625 389.75 82.40625Q389.21875 82.171875 388.82812 81.765625Q388.45312 81.34375 388.25 80.78125Q388.04688 80.21875 388.04688 79.546875L388.04688 79.3125Q388.04688 78.53125 388.26562 77.921875Q388.5 77.3125 388.89062 76.890625Q389.28125 76.46875 389.78125 76.265625Q390.28125 76.046875 390.8125 76.046875Q391.5 76.046875 391.98438 76.28125Q392.48438 76.515625 392.79688 76.9375Q393.125 77.34375 393.26562 77.921875Q393.42188 78.484375 393.42188 79.140625L393.42188 79.640625L388.6875 79.640625L388.6875 78.75L392.34375 78.75L392.34375 78.671875Q392.3125 78.25 392.15625 77.859375Q392.01562 77.453125 391.6875 77.203125Q391.375 76.9375 390.8125 76.9375Q390.45312 76.9375 390.14062 77.09375Q389.82812 77.25 389.59375 77.5625Q389.375 77.859375 389.25 78.296875Q389.14062 78.734375 389.14062 79.3125L389.14062 79.546875Q389.14062 80.0 389.26562 80.40625Q389.39062 80.796875 389.625 81.09375Q389.875 81.390625 390.21875 81.5625Q390.57812 81.734375 391.01562 81.734375Q391.59375 81.734375 391.98438 81.5Q392.39062 81.265625 392.6875 80.875L393.34375 81.390625Q393.14062 81.703125 392.8125 81.984375Q392.5 82.265625 392.03125 82.453125Q391.57812 82.625 390.95312 82.625ZM395.40625 77.515625L395.40625 82.5L394.32812 82.5L394.32812 76.15625L395.35938 76.15625L395.40625 77.515625ZM395.15625 79.09375L394.70312 79.078125Q394.70312 78.421875 394.89062 77.875Q395.07812 77.3125 395.42188 76.90625Q395.76562 76.5 396.23438 76.28125Q396.70312 76.046875 397.28125 76.046875Q397.75 76.046875 398.125 76.171875Q398.5 76.296875 398.76562 76.578125Q399.03125 76.84375 399.17188 77.28125Q399.3125 77.71875 399.3125 78.34375L399.3125 82.5L398.21875 82.5L398.21875 78.328125Q398.21875 77.828125 398.07812 77.53125Q397.9375 77.234375 397.65625 77.09375Q397.375 76.953125 396.95312 76.953125Q396.54688 76.953125 396.21875 77.125Q395.89062 77.296875 395.65625 77.59375Q395.42188 77.890625 395.28125 78.28125Q395.15625 78.65625 395.15625 79.09375Z" fill-rule="nonzero"/><path stroke="#cccccc" stroke-width="1.0" stroke-linecap="butt" d="M365.0 290.0L529.0 195.0" fill-rule="nonzero"/><path fill="#000000" d="M529.84375 179.96875L530.9375 179.96875L533.7344 186.92188L536.53125 179.96875L537.625 179.96875L534.15625 188.5L533.3125 188.5L529.84375 179.96875ZM529.4844 179.96875L530.4531 179.96875L530.6094 185.17188L530.6094 188.5L529.4844 188.5L529.4844 179.96875ZM537.0156 179.96875L537.9844 179.96875L537.9844 188.5L536.8594 188.5L536.8594 185.17188L537.0156 179.96875ZM541.1094 187.84375L542.875 182.15625L544.03125 182.15625L541.4844 189.48438Q541.40625 189.71875 541.25 189.98438Q541.1094 190.26562 540.8906 190.5Q540.6719 190.75 540.3594 190.90625Q540.0469 191.0625 539.6094 191.0625Q539.4844 191.0625 539.28125 191.01562Q539.0781 190.98438 539.0 190.96875L539.0 190.09375Q539.0469 190.09375 539.1406 190.09375Q539.25 190.10938 539.28125 190.10938Q539.65625 190.10938 539.90625 190.01562Q540.1719 189.92188 540.34375 189.6875Q540.53125 189.46875 540.65625 189.07812L541.1094 187.84375ZM539.8125 182.15625L541.4531 187.07812L541.7344 188.21875L540.96875 188.625L538.625 182.15625L539.8125 182.15625ZM546.40625 183.15625L546.40625 188.5L545.3281 188.5L545.3281 182.15625L546.375 182.15625L546.40625 183.15625ZM548.3906 182.125L548.3906 183.125Q548.25 183.10938 548.125 183.09375Q548.0156 183.07812 547.8594 183.07812Q547.4844 183.07812 547.1875 183.20312Q546.90625 183.3125 546.7031 183.53125Q546.5156 183.73438 546.3906 184.03125Q546.28125 184.32812 546.25 184.67188L545.9375 184.84375Q545.9375 184.26562 546.0469 183.76562Q546.1719 183.26562 546.40625 182.875Q546.65625 182.48438 547.0156 182.26562Q547.3906 182.04688 547.90625 182.04688Q548.03125 182.04688 548.1719 182.07812Q548.3281 182.09375 548.3906 182.125ZM551.8594 187.71875Q552.25 187.71875 552.5781 187.5625Q552.90625 187.40625 553.1094 187.14062Q553.3281 186.85938 553.3594 186.5L554.3906 186.5Q554.3594 187.0625 554.0 187.54688Q553.65625 188.03125 553.09375 188.32812Q552.53125 188.625 551.8594 188.625Q551.15625 188.625 550.625 188.375Q550.09375 188.10938 549.7344 187.67188Q549.3906 187.23438 549.21875 186.67188Q549.0469 186.09375 549.0469 185.45312L549.0469 185.20312Q549.0469 184.5625 549.21875 184.0Q549.3906 183.42188 549.7344 182.98438Q550.09375 182.54688 550.625 182.29688Q551.15625 182.04688 551.8594 182.04688Q552.6094 182.04688 553.15625 182.34375Q553.71875 182.64062 554.03125 183.17188Q554.3594 183.6875 554.3906 184.34375L553.3594 184.34375Q553.3281 183.95312 553.1406 183.64062Q552.9531 183.3125 552.625 183.125Q552.2969 182.9375 551.8594 182.9375Q551.3594 182.9375 551.0156 183.14062Q550.6875 183.32812 550.4844 183.65625Q550.2969 183.98438 550.2031 184.39062Q550.125 184.79688 550.125 185.20312L550.125 185.45312Q550.125 185.875 550.2031 186.28125Q550.2969 186.67188 550.4844 187.0Q550.6875 187.32812 551.0156 187.53125Q551.3594 187.71875 551.8594 187.71875ZM557.9531 188.625Q557.2969 188.625 556.75 188.40625Q556.21875 188.17188 555.8281 187.76562Q555.4531 187.34375 555.25 186.78125Q555.0469 186.21875 555.0469 185.54688L555.0469 185.3125Q555.0469 184.53125 555.2656 183.92188Q555.5 183.3125 555.8906 182.89062Q556.28125 182.46875 556.78125 182.26562Q557.28125 182.04688 557.8125 182.04688Q558.5 182.04688 558.9844 182.28125Q559.4844 182.51562 559.7969 182.9375Q560.125 183.34375 560.2656 183.92188Q560.4219 184.48438 560.4219 185.14062L560.4219 185.64062L555.6875 185.64062L555.6875 184.75L559.34375 184.75L559.34375 184.67188Q559.3125 184.25 559.15625 183.85938Q559.0156 183.45312 558.6875 183.20312Q558.375 182.9375 557.8125 182.9375Q557.4531 182.9375 557.1406 183.09375Q556.8281 183.25 556.59375 183.5625Q556.375 183.85938 556.25 184.29688Q556.1406 184.73438 556.1406 185.3125L556.1406 185.54688Q556.1406 186.0 556.2656 186.40625Q556.3906 186.79688 556.625 187.09375Q556.875 187.39062 557.21875 187.5625Q557.5781 187.73438 558.0156 187.73438Q558.59375 187.73438 558.9844 187.5Q559.3906 187.26562 559.6875 186.875L560.34375 187.39062Q560.1406 187.70312 559.8125 187.98438Q559.5 188.26562 559.03125 188.45312Q558.5781 188.625 557.9531 188.625ZM562.40625 183.51562L562.40625 188.5L561.3281 188.5L561.3281 182.15625L562.3594 182.15625L562.40625 183.51562ZM562.15625 185.09375L561.7031 185.07812Q561.7031 184.42188 561.8906 183.875Q562.0781 183.3125 562.4219 182.90625Q562.7656 182.5 563.2344 182.28125Q563.7031 182.04688 564.28125 182.04688Q564.75 182.04688 565.125 182.17188Q565.5 182.29688 565.7656 182.57812Q566.03125 182.84375 566.1719 183.28125Q566.3125 183.71875 566.3125 184.34375L566.3125 188.5L565.21875 188.5L565.21875 184.32812Q565.21875 183.82812 565.0781 183.53125Q564.9375 183.23438 564.65625 183.09375Q564.375 182.95312 563.9531 182.95312Q563.5469 182.95312 563.21875 183.125Q562.8906 183.29688 562.65625 183.59375Q562.4219 183.89062 562.28125 184.28125Q562.15625 184.65625 562.15625 185.09375Z" fill-rule="nonzero"/><path stroke="#cccccc" stroke-width="1.0" stroke-linecap="butt" d="M365.0 290.0L529.0 385.0" fill-rule="nonzero"/><path fill="#000000" d="M530.6719 399.57812L530.6719 400.5L526.40625 400.5L526.40625 399.57812L530.6719 399.57812ZM526.625 391.96875L526.625 400.5L525.4844 400.5L525.4844 391.96875L526.625 391.96875ZM532.5 394.15625L532.5 400.5L531.4219 400.5L531.4219 394.15625L532.5 394.15625ZM531.3281 392.48438Q531.3281 392.21875 531.4844 392.03125Q531.65625 391.84375 531.96875 391.84375Q532.28125 391.84375 532.4375 392.03125Q532.6094 392.21875 532.6094 392.48438Q532.6094 392.73438 532.4375 392.92188Q532.28125 393.09375 531.96875 393.09375Q531.65625 393.09375 531.4844 392.92188Q531.3281 392.73438 531.3281 392.48438ZM535.40625 395.42188L535.40625 400.5L534.3125 400.5L534.3125 394.15625L535.34375 394.15625L535.40625 395.42188ZM535.1875 397.09375L534.6719 397.07812Q534.6875 396.42188 534.84375 395.875Q535.0156 395.3125 535.3281 394.90625Q535.65625 394.5 536.1406 394.28125Q536.625 394.04688 537.25 394.04688Q537.7031 394.04688 538.0781 394.17188Q538.4531 394.29688 538.71875 394.5625Q539.0 394.82812 539.1406 395.25Q539.2969 395.67188 539.2969 396.28125L539.2969 400.5L538.21875 400.5L538.21875 396.32812Q538.21875 395.82812 538.0469 395.53125Q537.8906 395.23438 537.5781 395.09375Q537.28125 394.95312 536.8594 394.95312Q536.3906 394.95312 536.0625 395.125Q535.7344 395.29688 535.5469 395.59375Q535.3594 395.89062 535.2656 396.28125Q535.1875 396.65625 535.1875 397.09375ZM539.2969 396.48438L538.5625 396.71875Q538.5625 396.1875 538.7344 395.71875Q538.90625 395.23438 539.21875 394.85938Q539.5469 394.48438 540.0156 394.26562Q540.4844 394.04688 541.0781 394.04688Q541.59375 394.04688 541.9844 394.1875Q542.3906 394.3125 542.65625 394.59375Q542.9219 394.875 543.0625 395.3125Q543.2031 395.73438 543.2031 396.32812L543.2031 400.5L542.125 400.5L542.125 396.32812Q542.125 395.78125 541.9531 395.5Q541.78125 395.20312 541.4844 395.07812Q541.1875 394.95312 540.7656 394.95312Q540.40625 394.95312 540.125 395.07812Q539.8594 395.20312 539.6719 395.42188Q539.4844 395.625 539.3906 395.90625Q539.2969 396.1875 539.2969 396.48438ZM545.0469 397.40625L545.0469 397.26562Q545.0469 396.57812 545.2344 396.0Q545.4375 395.40625 545.8125 394.96875Q546.1875 394.53125 546.71875 394.29688Q547.25 394.04688 547.9219 394.04688Q548.5781 394.04688 549.1094 394.29688Q549.65625 394.53125 550.03125 394.96875Q550.40625 395.40625 550.6094 396.0Q550.8125 396.57812 550.8125 397.26562L550.8125 397.40625Q550.8125 398.07812 550.6094 398.67188Q550.40625 399.25 550.03125 399.6875Q549.65625 400.125 549.125 400.375Q548.59375 400.625 547.9219 400.625Q547.2656 400.625 546.71875 400.375Q546.1875 400.125 545.8125 399.6875Q545.4375 399.25 545.2344 398.67188Q545.0469 398.07812 545.0469 397.40625ZM546.125 397.26562L546.125 397.40625Q546.125 397.875 546.2344 398.29688Q546.34375 398.71875 546.5625 399.04688Q546.7969 399.35938 547.1406 399.54688Q547.4844 399.71875 547.9219 399.71875Q548.375 399.71875 548.7031 399.54688Q549.0469 399.35938 549.2656 399.04688Q549.5 398.71875 549.6094 398.29688Q549.71875 397.875 549.71875 397.40625L549.71875 397.26562Q549.71875 396.79688 549.6094 396.375Q549.5 395.95312 549.2656 395.64062Q549.0469 395.3125 548.7031 395.125Q548.375 394.9375 547.9219 394.9375Q547.46875 394.9375 547.125 395.125Q546.7969 395.3125 546.5625 395.64062Q546.34375 395.95312 546.2344 396.375Q546.125 396.79688 546.125 397.26562ZM553.40625 395.51562L553.40625 400.5L552.3281 400.5L552.3281 394.15625L553.3594 394.15625L553.40625 395.51562ZM553.15625 397.09375L552.7031 397.07812Q552.7031 396.42188 552.8906 395.875Q553.0781 395.3125 553.4219 394.90625Q553.7656 394.5 554.2344 394.28125Q554.7031 394.04688 555.28125 394.04688Q555.75 394.04688 556.125 394.17188Q556.5 394.29688 556.7656 394.57812Q557.03125 394.84375 557.1719 395.28125Q557.3125 395.71875 557.3125 396.34375L557.3125 400.5L556.21875 400.5L556.21875 396.32812Q556.21875 395.82812 556.0781 395.53125Q555.9375 395.23438 555.65625 395.09375Q555.375 394.95312 554.9531 394.95312Q554.5469 394.95312 554.21875 395.125Q553.8906 395.29688 553.65625 395.59375Q553.4219 395.89062 553.28125 396.28125Q553.15625 396.65625 553.15625 397.09375ZM561.9531 400.625Q561.2969 400.625 560.75 400.40625Q560.21875 400.17188 559.8281 399.76562Q559.4531 399.34375 559.25 398.78125Q559.0469 398.21875 559.0469 397.54688L559.0469 397.3125Q559.0469 396.53125 559.2656 395.92188Q559.5 395.3125 559.8906 394.89062Q560.28125 394.46875 560.78125 394.26562Q561.28125 394.04688 561.8125 394.04688Q562.5 394.04688 562.9844 394.28125Q563.4844 394.51562 563.7969 394.9375Q564.125 395.34375 564.2656 395.92188Q564.4219 396.48438 564.4219 397.14062L564.4219 397.64062L559.6875 397.64062L559.6875 396.75L563.34375 396.75L563.34375 396.67188Q563.3125 396.25 563.15625 395.85938Q563.0156 395.45312 562.6875 395.20312Q562.375 394.9375 561.8125 394.9375Q561.4531 394.9375 561.1406 395.09375Q560.8281 395.25 560.59375 395.5625Q560.375 395.85938 560.25 396.29688Q560.1406 396.73438 560.1406 397.3125L560.1406 397.54688Q560.1406 398.0 560.2656 398.40625Q560.3906 398.79688 560.625 399.09375Q560.875 399.39062 561.21875 399.5625Q561.5781 399.73438 562.0156 399.73438Q562.59375 399.73438 562.9844 399.5Q563.3906 399.26562 563.6875 398.875L564.34375 399.39062Q564.1406 399.70312 563.8125 399.98438Q563.5 400.26562 563.03125 400.45312Q562.5781 400.625 561.9531 400.625ZM566.40625 395.51562L566.40625 400.5L565.3281 400.5L565.3281 394.15625L566.3594 394.15625L566.40625 395.51562ZM566.15625 397.09375L565.7031 397.07812Q565.7031 396.42188 565.8906 395.875Q566.0781 395.3125 566.4219 394.90625Q566.7656 394.5 567.2344 394.28125Q567.7031 394.04688 568.28125 394.04688Q568.75 394.04688 569.125 394.17188Q569.5 394.29688 569.7656 394.57812Q570.03125 394.84375 570.1719 395.28125Q570.3125 395.71875 570.3125 396.34375L570.3125 400.5L569.21875 400.5L569.21875 396.32812Q569.21875 395.82812 569.0781 395.53125Q568.9375 395.23438 568.65625 395.09375Q568.375 394.95312 567.9531 394.95312Q567.5469 394.95312 567.21875 395.125Q566.8906 395.29688 566.65625 395.59375Q566.4219 395.89062 566.28125 396.28125Q566.15625 396.65625 566.15625 397.09375Z" fill-rule="nonzero"/><path stroke="#cccccc" stroke-width="1.0" stroke-linecap="butt" d="M365.0 290.0L365.0 479.0" fill-rule="nonzero"/><path fill="#000000" d="M335.59375 503.5625L335.59375 503.4375Q335.59375 502.6875 335.75 502.07812Q335.92188 501.45312 336.23438 501.0Q336.54688 500.54688 337.0 500.29688Q337.46875 500.04688 338.0625 500.04688Q338.51562 500.04688 338.875 500.1875Q339.25 500.3125 339.53125 500.57812Q339.8125 500.82812 340.01562 501.20312Q340.21875 501.57812 340.34375 502.0625Q340.46875 502.53125 340.51562 503.09375L340.51562 503.57812Q340.45312 504.28125 340.26562 504.84375Q340.09375 505.40625 339.79688 505.8125Q339.5 506.20312 339.0625 506.42188Q338.64062 506.625 338.04688 506.625Q337.46875 506.625 337.0 506.40625Q336.54688 506.17188 336.23438 505.76562Q335.92188 505.34375 335.75 504.79688Q335.59375 504.23438 335.59375 503.5625ZM336.67188 503.4375L336.67188 503.5625Q336.67188 504.01562 336.76562 504.40625Q336.85938 504.79688 337.04688 505.09375Q337.25 505.39062 337.5625 505.5625Q337.89062 505.73438 338.32812 505.73438Q338.75 505.73438 339.04688 505.5625Q339.35938 505.375 339.5625 505.07812Q339.78125 504.78125 339.90625 504.39062Q340.04688 504.0 340.14062 503.59375L340.14062 503.20312Q340.07812 502.76562 339.9375 502.375Q339.8125 501.96875 339.59375 501.64062Q339.39062 501.3125 339.07812 501.125Q338.76562 500.9375 338.32812 500.9375Q337.89062 500.9375 337.57812 501.14062Q337.26562 501.32812 337.0625 501.67188Q336.85938 502.01562 336.76562 502.48438Q336.67188 502.9375 336.67188 503.4375ZM339.98438 500.15625L340.90625 500.15625L340.90625 504.76562Q340.90625 505.04688 340.9375 505.21875Q340.96875 505.375 341.03125 505.48438Q341.10938 505.57812 341.1875 505.625Q341.28125 505.65625 341.375 505.65625Q341.42188 505.65625 341.46875 505.64062Q341.53125 505.625 341.5625 505.60938L341.70312 506.42188Q341.51562 506.54688 341.34375 506.57812Q341.17188 506.625 340.98438 506.625Q340.70312 506.625 340.48438 506.51562Q340.28125 506.42188 340.125 506.20312Q339.96875 505.98438 339.89062 505.625Q339.8125 505.26562 339.8125 504.76562L339.8125 501.53125L339.98438 500.15625ZM345.07812 502.42188L345.07812 503.3125L342.21875 503.3125L342.21875 502.42188L345.07812 502.42188ZM351.5625 501.64062L351.5625 502.5625L346.95312 502.5625L346.95312 501.64062L351.5625 501.64062ZM347.125 497.96875L347.125 506.5L345.98438 506.5L345.98438 497.96875L347.125 497.96875ZM352.54688 497.96875L352.54688 506.5L351.42188 506.5L351.42188 497.96875L352.54688 497.96875ZM358.70312 505.03125L358.70312 500.15625L359.79688 500.15625L359.79688 506.5L358.76562 506.5L358.70312 505.03125ZM358.90625 503.70312L359.35938 503.6875Q359.35938 504.3125 359.21875 504.85938Q359.09375 505.39062 358.79688 505.78125Q358.51562 506.17188 358.03125 506.40625Q357.5625 506.625 356.89062 506.625Q356.42188 506.625 356.03125 506.48438Q355.65625 506.34375 355.375 506.0625Q355.10938 505.78125 354.95312 505.32812Q354.79688 504.875 354.79688 504.25L354.79688 500.15625L355.89062 500.15625L355.89062 504.26562Q355.89062 504.6875 355.98438 504.96875Q356.07812 505.25 356.25 505.40625Q356.42188 505.5625 356.625 505.64062Q356.82812 505.70312 357.04688 505.70312Q357.75 505.70312 358.14062 505.4375Q358.54688 505.15625 358.71875 504.70312Q358.90625 504.25 358.90625 503.70312ZM362.90625 501.42188L362.90625 506.5L361.8125 506.5L361.8125 500.15625L362.84375 500.15625L362.90625 501.42188ZM362.6875 503.09375L362.17188 503.07812Q362.1875 502.42188 362.34375 501.875Q362.51562 501.3125 362.82812 500.90625Q363.15625 500.5 363.64062 500.28125Q364.125 500.04688 364.75 500.04688Q365.20312 500.04688 365.57812 500.17188Q365.95312 500.29688 366.21875 500.5625Q366.5 500.82812 366.64062 501.25Q366.79688 501.67188 366.79688 502.28125L366.79688 506.5L365.71875 506.5L365.71875 502.32812Q365.71875 501.82812 365.54688 501.53125Q365.39062 501.23438 365.07812 501.09375Q364.78125 500.95312 364.35938 500.95312Q363.89062 500.95312 363.5625 501.125Q363.23438 501.29688 363.04688 501.59375Q362.85938 501.89062 362.76562 502.28125Q362.6875 502.65625 362.6875 503.09375ZM366.79688 502.48438L366.0625 502.71875Q366.0625 502.1875 366.23438 501.71875Q366.40625 501.23438 366.71875 500.85938Q367.04688 500.48438 367.51562 500.26562Q367.98438 500.04688 368.57812 500.04688Q369.09375 500.04688 369.48438 500.1875Q369.89062 500.3125 370.15625 500.59375Q370.42188 500.875 370.5625 501.3125Q370.70312 501.73438 370.70312 502.32812L370.70312 506.5L369.625 506.5L369.625 502.32812Q369.625 501.78125 369.45312 501.5Q369.28125 501.20312 368.98438 501.07812Q368.6875 500.95312 368.26562 500.95312Q367.90625 500.95312 367.625 501.07812Q367.35938 501.20312 367.17188 501.42188Q366.98438 501.625 366.89062 501.90625Q366.79688 502.1875 366.79688 502.48438ZM376.70312 505.03125L376.70312 500.15625L377.79688 500.15625L377.79688 506.5L376.76562 506.5L376.70312 505.03125ZM376.90625 503.70312L377.35938 503.6875Q377.35938 504.3125 377.21875 504.85938Q377.09375 505.39062 376.79688 505.78125Q376.51562 506.17188 376.03125 506.40625Q375.5625 506.625 374.89062 506.625Q374.42188 506.625 374.03125 506.48438Q373.65625 506.34375 373.375 506.0625Q373.10938 505.78125 372.95312 505.32812Q372.79688 504.875 372.79688 504.25L372.79688 500.15625L373.89062 500.15625L373.89062 504.26562Q373.89062 504.6875 373.98438 504.96875Q374.07812 505.25 374.25 505.40625Q374.42188 505.5625 374.625 505.64062Q374.82812 505.70312 375.04688 505.70312Q375.75 505.70312 376.14062 505.4375Q376.54688 505.15625 376.71875 504.70312Q376.90625 504.25 376.90625 503.70312ZM381.0 497.5L381.0 506.5L379.92188 506.5L379.92188 497.5L381.0 497.5ZM385.45312 506.625Q384.79688 506.625 384.25 506.40625Q383.71875 506.17188 383.32812 505.76562Q382.95312 505.34375 382.75 504.78125Q382.54688 504.21875 382.54688 503.54688L382.54688 503.3125Q382.54688 502.53125 382.76562 501.92188Q383.0 501.3125 383.39062 500.89062Q383.78125 500.46875 384.28125 500.26562Q384.78125 500.04688 385.3125 500.04688Q386.0 500.04688 386.48438 500.28125Q386.98438 500.51562 387.29688 500.9375Q387.625 501.34375 387.76562 501.92188Q387.92188 502.48438 387.92188 503.14062L387.92188 503.64062L383.1875 503.64062L383.1875 502.75L386.84375 502.75L386.84375 502.67188Q386.8125 502.25 386.65625 501.85938Q386.51562 501.45312 386.1875 501.20312Q385.875 500.9375 385.3125 500.9375Q384.95312 500.9375 384.64062 501.09375Q384.32812 501.25 384.09375 501.5625Q383.875 501.85938 383.75 502.29688Q383.64062 502.73438 383.64062 503.3125L383.64062 503.54688Q383.64062 504.0 383.76562 504.40625Q383.89062 504.79688 384.125 505.09375Q384.375 505.39062 384.71875 505.5625Q385.07812 505.73438 385.51562 505.73438Q386.09375 505.73438 386.48438 505.5Q386.89062 505.26562 387.1875 504.875L387.84375 505.39062Q387.64062 505.70312 387.3125 505.98438Q387.0 506.26562 386.53125 506.45312Q386.07812 506.625 385.45312 506.625ZM389.90625 501.51562L389.90625 506.5L388.82812 506.5L388.82812 500.15625L389.85938 500.15625L389.90625 501.51562ZM389.65625 503.09375L389.20312 503.07812Q389.20312 502.42188 389.39062 501.875Q389.57812 501.3125 389.92188 500.90625Q390.26562 500.5 390.73438 500.28125Q391.20312 500.04688 391.78125 500.04688Q392.25 500.04688 392.625 500.17188Q393.0 500.29688 393.26562 500.57812Q393.53125 500.84375 393.67188 501.28125Q393.8125 501.71875 393.8125 502.34375L393.8125 506.5L392.71875 506.5L392.71875 502.32812Q392.71875 501.82812 392.57812 501.53125Q392.4375 501.23438 392.15625 501.09375Q391.875 500.95312 391.45312 500.95312Q391.04688 500.95312 390.71875 501.125Q390.39062 501.29688 390.15625 501.59375Q389.92188 501.89062 389.78125 502.28125Q389.65625 502.65625 389.65625 503.09375Z" fill-rule="nonzero"/><path stroke="#cccccc" stroke-width="1.0" stroke-linecap="butt" d="M365.0 290.0L201.0 385.0" fill-rule="nonzero"/><path fill="#000000" d="M166.67188 399.57812L166.67188 400.5L162.40625 400.5L162.40625 399.57812L166.67188 399.57812ZM162.625 391.96875L162.625 400.5L161.48438 400.5L161.48438 391.96875L162.625 391.96875ZM168.5 394.15625L168.5 400.5L167.42188 400.5L167.42188 394.15625L168.5 394.15625ZM167.32812 392.48438Q167.32812 392.21875 167.48438 392.03125Q167.65625 391.84375 167.96875 391.84375Q168.28125 391.84375 168.4375 392.03125Q168.60938 392.21875 168.60938 392.48438Q168.60938 392.73438 168.4375 392.92188Q168.28125 393.09375 167.96875 393.09375Q167.65625 393.09375 167.48438 392.92188Q167.32812 392.73438 167.32812 392.48438ZM171.40625 395.51562L171.40625 400.5L170.32812 400.5L170.32812 394.15625L171.35938 394.15625L171.40625 395.51562ZM171.15625 397.09375L170.70312 397.07812Q170.70312 396.42188 170.89062 395.875Q171.07812 395.3125 171.42188 394.90625Q171.76562 394.5 172.23438 394.28125Q172.70312 394.04688 173.28125 394.04688Q173.75 394.04688 174.125 394.17188Q174.5 394.29688 174.76562 394.57812Q175.03125 394.84375 175.17188 395.28125Q175.3125 395.71875 175.3125 396.34375L175.3125 400.5L174.21875 400.5L174.21875 396.32812Q174.21875 395.82812 174.07812 395.53125Q173.9375 395.23438 173.65625 395.09375Q173.375 394.95312 172.95312 394.95312Q172.54688 394.95312 172.21875 395.125Q171.89062 395.29688 171.65625 395.59375Q171.42188 395.89062 171.28125 396.28125Q171.15625 396.65625 171.15625 397.09375ZM181.0625 399.42188L181.0625 396.15625Q181.0625 395.78125 180.90625 395.5Q180.76562 395.21875 180.46875 395.07812Q180.17188 394.92188 179.73438 394.92188Q179.3125 394.92188 179.0 395.0625Q178.70312 395.20312 178.53125 395.4375Q178.35938 395.65625 178.35938 395.92188L177.28125 395.92188Q177.28125 395.57812 177.45312 395.25Q177.625 394.90625 177.95312 394.64062Q178.28125 394.35938 178.75 394.20312Q179.21875 394.04688 179.79688 394.04688Q180.48438 394.04688 181.01562 394.28125Q181.54688 394.51562 181.84375 394.98438Q182.15625 395.45312 182.15625 396.15625L182.15625 399.10938Q182.15625 399.4375 182.20312 399.79688Q182.26562 400.14062 182.375 400.40625L182.375 400.5L181.23438 400.5Q181.15625 400.3125 181.10938 400.0Q181.0625 399.6875 181.0625 399.42188ZM181.25 396.65625L181.26562 397.42188L180.17188 397.42188Q179.70312 397.42188 179.34375 397.5Q178.98438 397.5625 178.73438 397.71875Q178.48438 397.85938 178.35938 398.07812Q178.23438 398.29688 178.23438 398.59375Q178.23438 398.89062 178.35938 399.14062Q178.5 399.375 178.76562 399.53125Q179.04688 399.67188 179.4375 399.67188Q179.9375 399.67188 180.3125 399.46875Q180.70312 399.25 180.92188 398.95312Q181.15625 398.64062 181.17188 398.34375L181.64062 398.875Q181.59375 399.10938 181.40625 399.42188Q181.23438 399.71875 180.92188 400.0Q180.625 400.26562 180.20312 400.45312Q179.79688 400.625 179.28125 400.625Q178.64062 400.625 178.15625 400.375Q177.67188 400.10938 177.40625 399.6875Q177.14062 399.26562 177.14062 398.73438Q177.14062 398.21875 177.32812 397.84375Q177.53125 397.45312 177.90625 397.1875Q178.28125 396.92188 178.8125 396.79688Q179.34375 396.65625 180.0 396.65625L181.25 396.65625ZM185.5 391.5L185.5 400.5L184.42188 400.5L184.42188 391.5L185.5 391.5ZM187.04688 397.40625L187.04688 397.26562Q187.04688 396.57812 187.23438 396.0Q187.4375 395.40625 187.8125 394.96875Q188.1875 394.53125 188.71875 394.29688Q189.25 394.04688 189.92188 394.04688Q190.57812 394.04688 191.10938 394.29688Q191.65625 394.53125 192.03125 394.96875Q192.40625 395.40625 192.60938 396.0Q192.8125 396.57812 192.8125 397.26562L192.8125 397.40625Q192.8125 398.07812 192.60938 398.67188Q192.40625 399.25 192.03125 399.6875Q191.65625 400.125 191.125 400.375Q190.59375 400.625 189.92188 400.625Q189.26562 400.625 188.71875 400.375Q188.1875 400.125 187.8125 399.6875Q187.4375 399.25 187.23438 398.67188Q187.04688 398.07812 187.04688 397.40625ZM188.125 397.26562L188.125 397.40625Q188.125 397.875 188.23438 398.29688Q188.34375 398.71875 188.5625 399.04688Q188.79688 399.35938 189.14062 399.54688Q189.48438 399.71875 189.92188 399.71875Q190.375 399.71875 190.70312 399.54688Q191.04688 399.35938 191.26562 399.04688Q191.5 398.71875 191.60938 398.29688Q191.71875 397.875 191.71875 397.40625L191.71875 397.26562Q191.71875 396.79688 191.60938 396.375Q191.5 395.95312 191.26562 395.64062Q191.04688 395.3125 190.70312 395.125Q190.375 394.9375 189.92188 394.9375Q189.46875 394.9375 189.125 395.125Q188.79688 395.3125 188.5625 395.64062Q188.34375 395.95312 188.23438 396.375Q188.125 396.79688 188.125 397.26562ZM194.04688 397.40625L194.04688 397.26562Q194.04688 396.57812 194.23438 396.0Q194.4375 395.40625 194.8125 394.96875Q195.1875 394.53125 195.71875 394.29688Q196.25 394.04688 196.92188 394.04688Q197.57812 394.04688 198.10938 394.29688Q198.65625 394.53125 199.03125 394.96875Q199.40625 395.40625 199.60938 396.0Q199.8125 396.57812 199.8125 397.26562L199.8125 397.40625Q199.8125 398.07812 199.60938 398.67188Q199.40625 399.25 199.03125 399.6875Q198.65625 400.125 198.125 400.375Q197.59375 400.625 196.92188 400.625Q196.26562 400.625 195.71875 400.375Q195.1875 400.125 194.8125 399.6875Q194.4375 399.25 194.23438 398.67188Q194.04688 398.07812 194.04688 397.40625ZM195.125 397.26562L195.125 397.40625Q195.125 397.875 195.23438 398.29688Q195.34375 398.71875 195.5625 399.04688Q195.79688 399.35938 196.14062 399.54688Q196.48438 399.71875 196.92188 399.71875Q197.375 399.71875 197.70312 399.54688Q198.04688 399.35938 198.26562 399.04688Q198.5 398.71875 198.60938 398.29688Q198.71875 397.875 198.71875 397.40625L198.71875 397.26562Q198.71875 396.79688 198.60938 396.375Q198.5 395.95312 198.26562 395.64062Q198.04688 395.3125 197.70312 395.125Q197.375 394.9375 196.92188 394.9375Q196.46875 394.9375 196.125 395.125Q195.79688 395.3125 195.5625 395.64062Q195.34375 395.95312 195.23438 396.375Q195.125 396.79688 195.125 397.26562ZM202.5 391.5L202.5 400.5L201.42188 400.5L201.42188 391.5L202.5 391.5Z" fill-rule="nonzero"/><path stroke="#cccccc" stroke-width="1.0" stroke-linecap="butt" d="M365.0 290.0L201.0 195.0" fill-rule="nonzero"/><path fill="#000000" d="M164.03125 186.34375Q164.03125 186.04688 163.9375 185.8125Q163.85938 185.57812 163.625 185.39062Q163.40625 185.20312 163.0 185.03125Q162.60938 184.85938 162.01562 184.6875Q161.375 184.5 160.85938 184.28125Q160.35938 184.04688 159.98438 183.75Q159.625 183.4375 159.4375 183.0625Q159.25 182.67188 159.25 182.17188Q159.25 181.67188 159.45312 181.25Q159.65625 180.82812 160.03125 180.51562Q160.42188 180.20312 160.95312 180.03125Q161.48438 179.84375 162.14062 179.84375Q163.10938 179.84375 163.78125 180.21875Q164.45312 180.57812 164.79688 181.17188Q165.15625 181.76562 165.15625 182.42188L164.03125 182.42188Q164.03125 181.95312 163.8125 181.57812Q163.60938 181.20312 163.1875 181.0Q162.78125 180.78125 162.14062 180.78125Q161.54688 180.78125 161.14062 180.96875Q160.75 181.14062 160.5625 181.45312Q160.375 181.76562 160.375 182.15625Q160.375 182.42188 160.48438 182.65625Q160.60938 182.875 160.84375 183.0625Q161.09375 183.25 161.46875 183.40625Q161.84375 183.5625 162.375 183.70312Q163.09375 183.90625 163.625 184.17188Q164.15625 184.42188 164.5 184.73438Q164.84375 185.04688 165.0 185.4375Q165.17188 185.82812 165.17188 186.32812Q165.17188 186.85938 164.95312 187.28125Q164.75 187.70312 164.35938 188.0Q163.96875 188.29688 163.42188 188.46875Q162.875 188.625 162.20312 188.625Q161.60938 188.625 161.03125 188.45312Q160.46875 188.28125 160.0 187.95312Q159.53125 187.625 159.25 187.15625Q158.96875 186.67188 158.96875 186.03125L160.09375 186.03125Q160.09375 186.46875 160.26562 186.78125Q160.4375 187.09375 160.73438 187.29688Q161.03125 187.5 161.40625 187.60938Q161.78125 187.70312 162.20312 187.70312Q162.79688 187.70312 163.20312 187.54688Q163.60938 187.375 163.8125 187.07812Q164.03125 186.76562 164.03125 186.34375ZM166.04688 185.40625L166.04688 185.26562Q166.04688 184.57812 166.23438 184.0Q166.4375 183.40625 166.8125 182.96875Q167.1875 182.53125 167.71875 182.29688Q168.25 182.04688 168.92188 182.04688Q169.57812 182.04688 170.10938 182.29688Q170.65625 182.53125 171.03125 182.96875Q171.40625 183.40625 171.60938 184.0Q171.8125 184.57812 171.8125 185.26562L171.8125 185.40625Q171.8125 186.07812 171.60938 186.67188Q171.40625 187.25 171.03125 187.6875Q170.65625 188.125 170.125 188.375Q169.59375 188.625 168.92188 188.625Q168.26562 188.625 167.71875 188.375Q167.1875 188.125 166.8125 187.6875Q166.4375 187.25 166.23438 186.67188Q166.04688 186.07812 166.04688 185.40625ZM167.125 185.26562L167.125 185.40625Q167.125 185.875 167.23438 186.29688Q167.34375 186.71875 167.5625 187.04688Q167.79688 187.35938 168.14062 187.54688Q168.48438 187.71875 168.92188 187.71875Q169.375 187.71875 169.70312 187.54688Q170.04688 187.35938 170.26562 187.04688Q170.5 186.71875 170.60938 186.29688Q170.71875 185.875 170.71875 185.40625L170.71875 185.26562Q170.71875 184.79688 170.60938 184.375Q170.5 183.95312 170.26562 183.64062Q170.04688 183.3125 169.70312 183.125Q169.375 182.9375 168.92188 182.9375Q168.46875 182.9375 168.125 183.125Q167.79688 183.3125 167.5625 183.64062Q167.34375 183.95312 167.23438 184.375Q167.125 184.79688 167.125 185.26562ZM174.40625 183.51562L174.40625 188.5L173.32812 188.5L173.32812 182.15625L174.35938 182.15625L174.40625 183.51562ZM174.15625 185.09375L173.70312 185.07812Q173.70312 184.42188 173.89062 183.875Q174.07812 183.3125 174.42188 182.90625Q174.76562 182.5 175.23438 182.28125Q175.70312 182.04688 176.28125 182.04688Q176.75 182.04688 177.125 182.17188Q177.5 182.29688 177.76562 182.57812Q178.03125 182.84375 178.17188 183.28125Q178.3125 183.71875 178.3125 184.34375L178.3125 188.5L177.21875 188.5L177.21875 184.32812Q177.21875 183.82812 177.07812 183.53125Q176.9375 183.23438 176.65625 183.09375Q176.375 182.95312 175.95312 182.95312Q175.54688 182.95312 175.21875 183.125Q174.89062 183.29688 174.65625 183.59375Q174.42188 183.89062 174.28125 184.28125Q174.15625 184.65625 174.15625 185.09375ZM184.01562 186.8125Q184.01562 186.57812 183.90625 186.375Q183.8125 186.17188 183.5 186.01562Q183.1875 185.84375 182.5625 185.71875Q182.03125 185.60938 181.60938 185.46875Q181.1875 185.3125 180.89062 185.09375Q180.59375 184.875 180.4375 184.57812Q180.28125 184.28125 180.28125 183.89062Q180.28125 183.51562 180.4375 183.1875Q180.60938 182.84375 180.90625 182.59375Q181.21875 182.32812 181.65625 182.1875Q182.09375 182.04688 182.625 182.04688Q183.39062 182.04688 183.92188 182.3125Q184.46875 182.57812 184.75 183.03125Q185.03125 183.48438 185.03125 184.01562L183.95312 184.01562Q183.95312 183.76562 183.79688 183.51562Q183.64062 183.26562 183.34375 183.10938Q183.04688 182.9375 182.625 182.9375Q182.17188 182.9375 181.89062 183.07812Q181.60938 183.20312 181.48438 183.42188Q181.35938 183.625 181.35938 183.85938Q181.35938 184.04688 181.42188 184.1875Q181.48438 184.3125 181.64062 184.4375Q181.79688 184.54688 182.07812 184.65625Q182.375 184.75 182.82812 184.84375Q183.60938 185.01562 184.10938 185.26562Q184.60938 185.51562 184.85938 185.875Q185.10938 186.21875 185.10938 186.73438Q185.10938 187.15625 184.92188 187.5Q184.75 187.84375 184.42188 188.09375Q184.10938 188.34375 183.65625 188.48438Q183.20312 188.625 182.65625 188.625Q181.8125 188.625 181.23438 188.32812Q180.65625 188.01562 180.35938 187.54688Q180.0625 187.0625 180.0625 186.54688L181.14062 186.54688Q181.17188 186.98438 181.40625 187.25Q181.64062 187.51562 181.96875 187.625Q182.3125 187.71875 182.65625 187.71875Q183.09375 187.71875 183.39062 187.60938Q183.70312 187.48438 183.85938 187.28125Q184.01562 187.07812 184.01562 186.8125ZM188.98438 182.15625L188.98438 182.98438L185.54688 182.98438L185.54688 182.15625L188.98438 182.15625ZM186.71875 180.625L187.79688 180.625L187.79688 186.92188Q187.79688 187.25 187.89062 187.42188Q188.0 187.57812 188.15625 187.64062Q188.3125 187.6875 188.5 187.6875Q188.625 187.6875 188.76562 187.65625Q188.92188 187.625 189.0 187.60938L189.01562 188.5Q188.875 188.54688 188.67188 188.57812Q188.46875 188.625 188.17188 188.625Q187.78125 188.625 187.4375 188.46875Q187.10938 188.29688 186.90625 187.9375Q186.71875 187.5625 186.71875 186.92188L186.71875 180.625ZM191.5 182.15625L191.5 188.5L190.42188 188.5L190.42188 182.15625L191.5 182.15625ZM190.32812 180.48438Q190.32812 180.21875 190.48438 180.03125Q190.65625 179.84375 190.96875 179.84375Q191.28125 179.84375 191.4375 180.03125Q191.60938 180.21875 191.60938 180.48438Q191.60938 180.73438 191.4375 180.92188Q191.28125 181.09375 190.96875 181.09375Q190.65625 181.09375 190.48438 180.92188Q190.32812 180.73438 190.32812 180.48438ZM197.4375 182.15625L198.42188 182.15625L198.42188 188.35938Q198.42188 189.20312 198.07812 189.79688Q197.73438 190.39062 197.125 190.6875Q196.53125 191.0 195.73438 191.0Q195.40625 191.0 194.95312 190.89062Q194.51562 190.79688 194.09375 190.54688Q193.67188 190.3125 193.39062 189.90625L193.95312 189.25Q194.35938 189.73438 194.78125 189.92188Q195.21875 190.10938 195.65625 190.10938Q196.17188 190.10938 196.54688 189.90625Q196.92188 189.71875 197.125 189.34375Q197.32812 188.96875 197.32812 188.42188L197.32812 183.54688L197.4375 182.15625ZM193.0625 185.40625L193.0625 185.28125Q193.0625 184.54688 193.23438 183.95312Q193.42188 183.35938 193.73438 182.9375Q194.0625 182.5 194.51562 182.28125Q194.98438 182.04688 195.57812 182.04688Q196.17188 182.04688 196.60938 182.25Q197.0625 182.45312 197.375 182.85938Q197.6875 183.25 197.875 183.8125Q198.0625 184.35938 198.125 185.0625L198.125 185.60938Q198.0625 186.29688 197.875 186.85938Q197.6875 187.42188 197.375 187.8125Q197.0625 188.20312 196.60938 188.42188Q196.15625 188.625 195.5625 188.625Q194.98438 188.625 194.53125 188.39062Q194.07812 188.14062 193.75 187.70312Q193.42188 187.26562 193.23438 186.6875Q193.0625 186.09375 193.0625 185.40625ZM194.15625 185.28125L194.15625 185.40625Q194.15625 185.875 194.25 186.29688Q194.34375 186.70312 194.54688 187.03125Q194.75 187.34375 195.0625 187.53125Q195.39062 187.70312 195.82812 187.70312Q196.35938 187.70312 196.70312 187.46875Q197.0625 187.23438 197.26562 186.85938Q197.48438 186.48438 197.59375 186.04688L197.59375 184.64062Q197.53125 184.3125 197.39062 184.01562Q197.26562 183.71875 197.0625 183.48438Q196.85938 183.23438 196.54688 183.09375Q196.25 182.95312 195.82812 182.95312Q195.39062 182.95312 195.0625 183.14062Q194.75 183.32812 194.54688 183.65625Q194.34375 183.96875 194.25 184.39062Q194.15625 184.79688 194.15625 185.28125ZM202.95312 188.625Q202.29688 188.625 201.75 188.40625Q201.21875 188.17188 200.82812 187.76562Q200.45312 187.34375 200.25 186.78125Q200.04688 186.21875 200.04688 185.54688L200.04688 185.3125Q200.04688 184.53125 200.26562 183.92188Q200.5 183.3125 200.89062 182.89062Q201.28125 182.46875 201.78125 182.26562Q202.28125 182.04688 202.8125 182.04688Q203.5 182.04688 203.98438 182.28125Q204.48438 182.51562 204.79688 182.9375Q205.125 183.34375 205.26562 183.92188Q205.42188 184.48438 205.42188 185.14062L205.42188 185.64062L200.6875 185.64062L200.6875 184.75L204.34375 184.75L204.34375 184.67188Q204.3125 184.25 204.15625 183.85938Q204.01562 183.45312 203.6875 183.20312Q203.375 182.9375 202.8125 182.9375Q202.45312 182.9375 202.14062 183.09375Q201.82812 183.25 201.59375 183.5625Q201.375 183.85938 201.25 184.29688Q201.14062 184.73438 201.14062 185.3125L201.14062 185.54688Q201.14062 186.0 201.26562 186.40625Q201.39062 186.79688 201.625 187.09375Q201.875 187.39062 202.21875 187.5625Q202.57812 187.73438 203.01562 187.73438Q203.59375 187.73438 203.98438 187.5Q204.39062 187.26562 204.6875 186.875L205.34375 187.39062Q205.14062 187.70312 204.8125 187.98438Q204.5 188.26562 204.03125 188.45312Q203.57812 188.625 202.95312 188.625Z" fill-rule="nonzero"/><path stroke="#cccccc" stroke-width="1.0" stroke-linecap="butt" d="M365.0 290.0L365.0 101.0" fill-rule="nonzero"/><path stroke="#ff0000" stroke-width="2.0" stroke-linecap="butt" stroke-opacity="0.7019608" stroke-dasharray="8.0,6.0,2.0,6.0" d="M365.0 134.0L443.0 245.0L435.0 330.0L365.0 351.0L340.0 304.0L316.0 262.0Z" fill-rule="nonzero"/><path fill="#ff0000" fill-opacity="0.7019608" d="M365.0 129.5L368.89713 131.75L368.89713 136.25L365.0 138.5L361.10287 136.25L361.10287 131.75Z" fill-rule="nonzero"/><path fill="#ff0000" fill-opacity="0.7019608" d="M443.0 240.5L446.89713 242.75L446.89713 247.25L443.0 249.5L439.10287 247.25L439.10287 242.75Z" fill-rule="nonzero"/><path fill="#ff0000" fill-opacity="0.7019608" d="M435.0 325.5L438.89713 327.75L438.89713 332.25L435.0 334.5L431.10287 332.25L431.10287 327.75Z" fill-rule="nonzero"/><path fill="#ff0000" fill-opacity="0.7019608" d="M365.0 346.5L368.89713 348.75L368.89713 353.25L365.0 355.5L361.10287 353.25L361.10287 348.75Z" fill-rule="nonzero"/><path fill="#ff0000" fill-opacity="0.7019608" d="M340.0 299.5L343.89713 301.75L343.89713 306.25L340.0 308.5L336.10287 306.25L336.10287 301.75Z" fill-rule="nonzero"/><path fill="#ff0000" fill-opacity="0.7019608" d="M316.0 257.5L319.89713 259.75L319.89713 264.25L316.0 266.5L312.10287 264.25L312.10287 259.75Z" fill-rule="nonzero"/><path fill="#757575" d="M39.665627 39.884377L41.55625 40.353127Q40.9625 42.696877 39.415627 43.93125Q37.86875 45.15 35.61875 45.15Q33.30625 45.15 31.853125 44.2125Q30.415625 43.259377 29.65 41.478127Q28.9 39.68125 28.9 37.634377Q28.9 35.4 29.74375 33.74375Q30.603125 32.071877 32.18125 31.212502Q33.759377 30.337502 35.65 30.337502Q37.80625 30.337502 39.259377 31.431252Q40.728127 32.525 41.30625 34.509377L39.446877 34.946877Q38.946877 33.384377 37.99375 32.68125Q37.05625 31.962502 35.61875 31.962502Q33.9625 31.962502 32.853127 32.759377Q31.74375 33.540627 31.290625 34.884377Q30.853125 36.2125 30.853125 37.61875Q30.853125 39.446877 31.384375 40.821877Q31.915625 42.18125 33.040627 42.853127Q34.165627 43.525 35.4625 43.525Q37.05625 43.525 38.165627 42.603127Q39.275 41.68125 39.665627 39.884377ZM43.2125 44.9L43.2125 30.587502L44.978127 30.587502L44.978127 35.7125Q46.2125 34.290627 48.0875 34.290627Q49.228127 34.290627 50.071877 34.74375Q50.93125 35.196877 51.290627 36.009377Q51.665627 36.80625 51.665627 38.321877L51.665627 44.9L49.915627 44.9L49.915627 38.321877Q49.915627 37.009377 49.3375 36.415627Q48.759377 35.80625 47.728127 35.80625Q46.946877 35.80625 46.24375 36.2125Q45.55625 36.61875 45.259377 37.321877Q44.978127 38.009377 44.978127 39.228127L44.978127 44.9L43.2125 44.9ZM60.321877 41.55625L62.134377 41.790627Q61.7125 43.36875 60.540627 44.259377Q59.384377 45.134377 57.571877 45.134377Q55.30625 45.134377 53.9625 43.74375Q52.634377 42.3375 52.634377 39.80625Q52.634377 37.18125 53.978127 35.74375Q55.321877 34.290627 57.478127 34.290627Q59.55625 34.290627 60.86875 35.7125Q62.196877 37.11875 62.196877 39.696877Q62.196877 39.853127 62.18125 40.165627L54.446877 40.165627Q54.540627 41.86875 55.415627 42.775Q56.290627 43.68125 57.5875 43.68125Q58.55625 43.68125 59.228127 43.18125Q59.915627 42.665627 60.321877 41.55625ZM54.540627 38.7125L60.3375 38.7125Q60.228127 37.415627 59.68125 36.759377Q58.8375 35.74375 57.49375 35.74375Q56.290627 35.74375 55.4625 36.55625Q54.634377 37.353127 54.540627 38.7125ZM64.2125 44.9L64.2125 34.525L65.79063 34.525L65.79063 35.978127Q66.275 35.228127 67.0875 34.759377Q67.9 34.290627 68.93125 34.290627Q70.0875 34.290627 70.82188 34.775Q71.55625 35.24375 71.86875 36.103127Q73.10313 34.290627 75.07188 34.290627Q76.61875 34.290627 77.44688 35.15Q78.275 36.009377 78.275 37.775L78.275 44.9L76.525 44.9L76.525 38.36875Q76.525 37.30625 76.35313 36.853127Q76.18125 36.384377 75.72813 36.103127Q75.29063 35.821877 74.68125 35.821877Q73.5875 35.821877 72.85313 36.55625Q72.13438 37.275 72.13438 38.86875L72.13438 44.9L70.38438 44.9L70.38438 38.165627Q70.38438 36.99375 69.94688 36.415627Q69.525 35.821877 68.54063 35.821877Q67.80625 35.821877 67.16563 36.2125Q66.54063 36.603127 66.25938 37.353127Q65.97813 38.103127 65.97813 39.525L65.97813 44.9L64.2125 44.9ZM86.94688 44.9L86.94688 43.5875Q85.9625 45.134377 84.04063 45.134377Q82.80625 45.134377 81.75938 44.446877Q80.72813 43.759377 80.15 42.540627Q79.5875 41.321877 79.5875 39.728127Q79.5875 38.165627 80.10313 36.9Q80.61875 35.634377 81.65 34.9625Q82.69688 34.290627 83.9625 34.290627Q84.9 34.290627 85.63438 34.696877Q86.36875 35.0875 86.8375 35.7125L86.8375 30.587502L88.57188 30.587502L88.57188 44.9L86.94688 44.9ZM81.38438 39.728127Q81.38438 41.7125 82.22813 42.696877Q83.07188 43.68125 84.2125 43.68125Q85.36875 43.68125 86.16563 42.74375Q86.97813 41.80625 86.97813 39.86875Q86.97813 37.74375 86.15 36.74375Q85.3375 35.74375 84.13438 35.74375Q82.9625 35.74375 82.16563 36.7125Q81.38438 37.665627 81.38438 39.728127ZM90.57188 39.7125Q90.57188 36.8375 92.16563 35.446877Q93.50938 34.290627 95.43125 34.290627Q97.57188 34.290627 98.91563 35.696877Q100.275 37.103127 100.275 39.571877Q100.275 41.571877 99.68125 42.728127Q99.0875 43.86875 97.93125 44.509377Q96.79063 45.134377 95.43125 45.134377Q93.24375 45.134377 91.9 43.74375Q90.57188 42.3375 90.57188 39.7125ZM92.36875 39.7125Q92.36875 41.7125 93.22813 42.696877Q94.10313 43.68125 95.43125 43.68125Q96.74375 43.68125 97.60313 42.696877Q98.47813 41.696877 98.47813 39.65Q98.47813 37.728127 97.60313 36.74375Q96.72813 35.74375 95.43125 35.74375Q94.10313 35.74375 93.22813 36.74375Q92.36875 37.728127 92.36875 39.7125ZM101.9 45.759377L103.60313 46.009377Q103.7125 46.80625 104.19688 47.165627Q104.85313 47.65 105.99375 47.65Q107.2125 47.65 107.86875 47.165627Q108.54063 46.68125 108.775 45.80625Q108.91563 45.259377 108.9 43.540627Q107.74375 44.9 106.025 44.9Q103.88438 44.9 102.7125 43.353127Q101.54063 41.80625 101.54063 39.65Q101.54063 38.165627 102.07188 36.915627Q102.61875 35.665627 103.63438 34.978127Q104.66563 34.290627 106.04063 34.290627Q107.86875 34.290627 109.07188 35.775L109.07188 34.525L110.68125 34.525L110.68125 43.49375Q110.68125 45.915627 110.18125 46.915627Q109.69688 47.93125 108.61875 48.509377Q107.55625 49.103127 105.99375 49.103127Q104.15 49.103127 102.99375 48.275Q101.85313 47.446877 101.9 45.759377ZM103.35313 39.525Q103.35313 41.571877 104.16563 42.509377Q104.97813 43.446877 106.19688 43.446877Q107.4 43.446877 108.2125 42.509377Q109.04063 41.571877 109.04063 39.5875Q109.04063 37.68125 108.19688 36.7125Q107.35313 35.74375 106.16563 35.74375Q104.99375 35.74375 104.16563 36.696877Q103.35313 37.65 103.35313 39.525Z" fill-rule="nonzero"/></svg>