<svg version="1.1" viewBox="0.0 0.0 730.0 538.0" fill="none" stroke="none" stroke-linecap="square" stroke-miterlimit="10" width="730" height="538" xmlns:xlink="http://www.w3.org/1999/xlink" xmlns="http://www.w3.org/2000/svg"><path fill="#ffffff" d="M0 0L730.0 0L730.0 538.0L0 538.0L0 0Z" fill-rule="nonzero"/><path fill="#ffffff" d="M26.9 68.833336L703.10004 68.833336L703.10004 511.1L26.9 511.1L26.9 68.833336Z" fill-rule="nonzero"/><path stroke="#cccccc" stroke-width="1.0" stroke-linecap="butt" d="M365.0 290.0C365.0 290.0 365.0 290.0 365.0 290.0C365.0 290.0 365.0 290.0 365.0 290.0C365.0 290.0 365.0 290.0 365.0 290.0C365.0 290.0 365.0 290.0 365.0 290.0" fill-rule="nonzero"/><path fill="#000000" d="M353.0625 282.04688L353.0625 283.35938Q353.0625 284.40625 352.875 285.125Q352.6875 285.84375 352.32812 286.28125Q351.98438 286.71875 351.48438 286.92188Q351.0 287.125 350.375 287.125Q349.89062 287.125 349.46875 287.0Q349.04688 286.875 348.71875 286.60938Q348.39062 286.32812 348.15625 285.89062Q347.92188 285.45312 347.79688 284.82812Q347.67188 284.1875 347.67188 283.35938L347.67188 282.04688Q347.67188 281.0 347.85938 280.29688Q348.0625 279.59375 348.40625 279.15625Q348.76562 278.71875 349.25 278.53125Q349.75 278.34375 350.35938 278.34375Q350.85938 278.34375 351.28125 278.46875Q351.70312 278.59375 352.03125 278.85938Q352.35938 279.10938 352.57812 279.54688Q352.8125 279.96875 352.9375 280.59375Q353.0625 281.21875 353.0625 282.04688ZM351.96875 283.53125L351.96875 281.875Q351.96875 281.29688 351.90625 280.85938Q351.84375 280.42188 351.70312 280.10938Q351.57812 279.79688 351.375 279.60938Q351.1875 279.42188 350.9375 279.32812Q350.6875 279.23438 350.35938 279.23438Q349.98438 279.23438 349.67188 279.375Q349.375 279.51562 349.17188 279.82812Q348.96875 280.14062 348.85938 280.65625Q348.76562 281.15625 348.76562 281.875L348.76562 283.53125Q348.76562 284.10938 348.82812 284.54688Q348.90625 284.98438 349.03125 285.3125Q349.17188 285.625 349.35938 285.82812Q349.5625 286.03125 349.8125 286.125Q350.0625 286.21875 350.375 286.21875Q350.78125 286.21875 351.07812 286.07812Q351.375 285.92188 351.57812 285.59375Q351.78125 285.26562 351.875 284.76562Q351.96875 284.25 351.96875 283.53125ZM355.8125 285.70312L355.8125 286.57812Q355.8125 287.125 355.53125 287.71875Q355.26562 288.3125 354.78125 288.70312L354.17188 288.28125Q354.35938 288.01562 354.48438 287.75Q354.60938 287.48438 354.67188 287.20312Q354.75 286.92188 354.75 286.59375L354.75 285.70312L355.8125 285.70312ZM362.0625 282.04688L362.0625 283.35938Q362.0625 284.40625 361.875 285.125Q361.6875 285.84375 361.32812 286.28125Q360.98438 286.71875 360.48438 286.92188Q360.0 287.125 359.375 287.125Q358.89062 287.125 358.46875 287.0Q358.04688 286.875 357.71875 286.60938Q357.39062 286.32812 357.15625 285.89062Q356.92188 285.45312 356.79688 284.82812Q356.67188 284.1875 356.67188 283.35938L356.67188 282.04688Q356.67188 281.0 356.85938 280.29688Q357.0625 279.59375 357.40625 279.15625Q357.76562 278.71875 358.25 278.53125Q358.75 278.34375 359.35938 278.34375Q359.85938 278.34375 360.28125 278.46875Q360.70312 278.59375 361.03125 278.85938Q361.35938 279.10938 361.57812 279.54688Q361.8125 279.96875 361.9375 280.59375Q362.0625 281.21875 362.0625 282.04688ZM360.96875 283.53125L360.96875 281.875Q360.96875 281.29688 360.90625 280.85938Q360.84375 280.42188 360.70312 280.10938Q360.57812 279.79688 360.375 279.60938Q360.1875 279.42188 359.9375 279.32812Q359.6875 279.23438 359.35938 279.23438Q358.98438 279.23438 358.67188 279.375Q358.375 279.51562 358.17188 279.82812Q357.96875 280.14062 357.85938 280.65625Q357.76562 281.15625 357.76562 281.875L357.76562 283.53125Q357.76562 284.10938 357.82812 284.54688Q357.90625 284.98438 358.03125 285.3125Q358.17188 285.625 358.35938 285.82812Q358.5625 286.03125 358.8125 286.125Q359.0625 286.21875 359.375 286.21875Q359.78125 286.21875 360.07812 286.07812Q360.375 285.92188 360.57812 285.59375Q360.78125 285.26562 360.875 284.76562Q360.96875 284.25 360.96875 283.53125Z" fill-rule="nonzero"/><path stroke="#cccccc" stroke-width="1.0" stroke-linecap="butt" d="M412.28333 290.0C412.28333 263.88614 391.11386 242.71666 365.0 242.71666C338.88614 242.71666 317.71667 263.88614 317.71667 290.0C317.71667 316.11386 338.88614 337.28333 365.0 337.28333C391.11386 337.28333 412.28333 316.11386 412.28333 290.0" fill-rule="nonzero"/><path fill="#000000" d="M353.0625 234.76353L353.0625 236.07603Q353.0625 237.12291 352.875 237.84166Q352.6875 238.56041 352.32812 238.99791Q351.98438 239.43541 351.48438 239.63853Q351.0 239.84166 350.375 239.84166Q349.89062 239.84166 349.46875 239.71666Q349.04688 239.59166 348.71875 239.32603Q348.39062 239.04478 348.15625 238.60728Q347.92188 238.16978 347.79688 237.54478Q347.67188 236.90416 347.67188 236.07603L347.67188 234.76353Q347.67188 233.71666 347.85938 233.01353Q348.0625 232.31041 348.40625 231.87291Q348.76562 231.43541 349.25 231.24791Q349.75 231.06041 350.35938 231.06041Q350.85938 231.06041 351.28125 231.18541Q351.70312 231.31041 352.03125 231.57603Q352.35938 231.82603 352.57812 232.26353Q352.8125 232.68541 352.9375 233.31041Q353.0625 233.93541 353.0625 234.76353ZM351.96875 236.24791L351.96875 234.59166Q351.96875 234.01353 351.90625 233.57603Q351.84375 233.13853 351.70312 232.82603Q351.57812 232.51353 351.375 232.32603Q351.1875 232.13853 350.9375 232.04478Q350.6875 231.95103 350.35938 231.95103Q349.98438 231.95103 349.67188 232.09166Q349.375 232.23228 349.17188 232.54478Q348.96875 232.85728 348.85938 233.37291Q348.76562 233.87291 348.76562 234.59166L348.76562 236.24791Q348.76562 236.82603 348.82812 237.26353Q348.90625 237.70103 349.03125 238.02916Q349.17188 238.34166 349.35938 238.54478Q349.5625 238.74791 349.8125 238.84166Q350.0625 238.93541 350.375 238.93541Q350.78125 238.93541 351.07812 238.79478Q351.375 238.63853 351.57812 238.31041Q351.78125 237.98228 351.875 237.48228Q351.96875 236.96666 351.96875 236.24791ZM355.8125 238.41978L355.8125 239.29478Q355.8125 239.84166 355.53125 240.43541Q355.26562 241.02916 354.78125 241.41978L354.17188 240.99791Q354.35938 240.73228 354.48438 240.46666Q354.60938 240.20103 354.67188 239.91978Q354.75 239.63853 354.75 239.31041L354.75 238.41978L355.8125 238.41978ZM360.26562 231.13853L360.26562 239.71666L359.1875 239.71666L359.1875 232.49791L357.0 233.29478L357.0 232.31041L360.10938 231.13853L360.26562 231.13853Z" fill-rule="nonzero"/><path stroke="#cccccc" stroke-width="1.0" stroke-linecap="butt" d="M459.56668 290.0C459.56668 237.77228 417.22772 195.43333 365.0 195.43333C312.77228 195.43333 270.43332 237.77228 270.43332 290.0C270.43332 342.22772 312.77228 384.56668 365.0 384.56668C417.22772 384.56668 459.56668 342.22772 459.56668 290.0" fill-rule="nonzero"/><path fill="#000000" d="M353.0625 187.48021L353.0625 188.79271Q353.0625 189.83958 352.875 190.55833Q352.6875 191.27708 352.32812 191.71458Q351.98438 192.15208 351.48438 192.35521Q351.0 192.55833 350.375 192.55833Q349.89062 192.55833 349.46875 192.43333Q349.04688 192.30833 348.71875 192.04271Q348.39062 191.76146 348.15625 191.32396Q347.92188 190.88646 347.79688 190.26146Q347.67188 189.62083 347.67188 188.79271L347.67188 187.48021Q347.67188 186.43333 347.85938 185.73021Q348.0625 185.02708 348.40625 184.58958Q348.76562 184.15208 349.25 183.96458Q349.75 183.77708 350.35938 183.77708Q350.85938 183.77708 351.28125 183.90208Q351.70312 184.02708 352.03125 184.29271Q352.35938 184.54271 352.57812 184.98021Q352.8125 185.40208 352.9375 186.02708Q353.0625 186.65208 353.0625 187.48021ZM351.96875 188.96458L351.96875 187.30833Q351.96875 186.73021 351.90625 186.29271Q351.84375 185.85521 351.70312 185.54271Q351.57812 185.23021 351.375 185.04271Q351.1875 184.85521 350.9375 184.76146Q350.6875 184.66771 350.35938 184.66771Q349.98438 184.66771 349.67188 184.80833Q349.375 184.94896 349.17188 185.26146Q348.96875 185.57396 348.85938 186.08958Q348.76562 186.58958 348.76562 187.30833L348.76562 188.96458Q348.76562 189.54271 348.82812 189.98021Q348.90625 190.41771 349.03125 190.74583Q349.17188 191.05833 349.35938 191.26146Q349.5625 191.46458 349.8125 191.55833Q350.0625 191.65208 350.375 191.65208Q350.78125 191.65208 351.07812 191.51146Q351.375 191.35521 351.57812 191.02708Q351.78125 190.69896 351.875 190.19896Q351.96875 189.68333 351.96875 188.96458ZM355.8125 191.13646L355.8125 192.01146Q355.8125 192.55833 355.53125 193.15208Q355.26562 193.74583 354.78125 194.13646L354.17188 193.71458Q354.35938 193.44896 354.48438 193.18333Q354.60938 192.91771 354.67188 192.63646Q354.75 192.35521 354.75 192.02708L354.75 191.13646L355.8125 191.13646ZM362.29688 191.54271L362.29688 192.43333L356.71875 192.43333L356.71875 191.65208L359.51562 188.54271Q360.03125 187.96458 360.3125 187.57396Q360.59375 187.16771 360.70312 186.85521Q360.82812 186.52708 360.82812 186.19896Q360.82812 185.77708 360.65625 185.43333Q360.48438 185.08958 360.14062 184.88646Q359.8125 184.66771 359.32812 184.66771Q358.76562 184.66771 358.39062 184.90208Q358.01562 185.12083 357.82812 185.51146Q357.64062 185.90208 357.64062 186.40208L356.54688 186.40208Q356.54688 185.68333 356.85938 185.08958Q357.1875 184.49583 357.79688 184.13646Q358.42188 183.77708 359.32812 183.77708Q360.14062 183.77708 360.71875 184.07396Q361.29688 184.35521 361.59375 184.87083Q361.90625 185.37083 361.90625 186.05833Q361.90625 186.43333 361.78125 186.82396Q361.65625 187.19896 361.4375 187.58958Q361.21875 187.96458 360.92188 188.33958Q360.64062 188.69896 360.3125 189.05833L358.01562 191.54271L362.29688 191.54271Z" fill-rule="nonzero"/><path stroke="#cccccc" stroke-width="1.0" stroke-linecap="butt" d="M506.85 290.0C506.85 211.6584 443.34158 148.15 365.0 148.15C286.65842 148.15 223.15 211.6584 223.15 290.0C223.15 368.34158 286.65842 431.85 365.0 431.85C443.34158 431.85 506.85 368.34158 506.85 290.0" fill-rule="nonzero"/><path fill="#000000" d="M353.0625 140.19687L353.0625 141.50937Q353.0625 142.55624 352.875 143.275Q352.6875 143.99374 352.32812 144.43124Q351.98438 144.86874 351.48438 145.07187Q351.0 145.275 350.375 145.275Q349.89062 145.275 349.46875 145.15Q349.04688 145.025 348.71875 144.75937Q348.39062 144.47812 348.15625 144.04062Q347.92188 143.60312 347.79688 142.97812Q347.67188 142.3375 347.67188 141.50937L347.67188 140.19687Q347.67188 139.15 347.85938 138.44687Q348.0625 137.74374 348.40625 137.30624Q348.76562 136.86874 349.25 136.68124Q349.75 136.49374 350.35938 136.49374Q350.85938 136.49374 351.28125 136.61874Q351.70312 136.74374 352.03125 137.00937Q352.35938 137.25937 352.57812 137.69687Q352.8125 138.11874 352.9375 138.74374Q353.0625 139.36874 353.0625 140.19687ZM351.96875 141.68124L351.96875 140.025Q351.96875 139.44687 351.90625 139.00937Q351.84375 138.57187 351.70312 138.25937Q351.57812 137.94687 351.375 137.75937Q351.1875 137.57187 350.9375 137.47812Q350.6875 137.38437 350.35938 137.38437Q349.98438 137.38437 349.67188 137.525Q349.375 137.66562 349.17188 137.97812Q348.96875 138.29062 348.85938 138.80624Q348.76562 139.30624 348.76562 140.025L348.76562 141.68124Q348.76562 142.25937 348.82812 142.69687Q348.90625 143.13437 349.03125 143.4625Q349.17188 143.775 349.35938 143.97812Q349.5625 144.18124 349.8125 144.275Q350.0625 144.36874 350.375 144.36874Q350.78125 144.36874 351.07812 144.22812Q351.375 144.07187 351.57812 143.74374Q351.78125 143.41562 351.875 142.91562Q351.96875 142.4 351.96875 141.68124ZM355.8125 143.85312L355.8125 144.72812Q355.8125 145.275 355.53125 145.86874Q355.26562 146.4625 354.78125 146.85312L354.17188 146.43124Q354.35938 146.16562 354.48438 145.9Q354.60938 145.63437 354.67188 145.35312Q354.75 145.07187 354.75 144.74374L354.75 143.85312L355.8125 143.85312ZM358.29688 140.35312L359.0625 140.35312Q359.64062 140.35312 360.0 140.16562Q360.375 139.9625 360.5625 139.63437Q360.75 139.30624 360.75 138.88437Q360.75 138.4 360.57812 138.07187Q360.42188 137.72812 360.09375 137.55624Q359.76562 137.38437 359.26562 137.38437Q358.79688 137.38437 358.45312 137.57187Q358.10938 137.74374 357.90625 138.07187Q357.71875 138.4 357.71875 138.85312L356.625 138.85312Q356.625 138.19687 356.95312 137.66562Q357.28125 137.13437 357.875 136.82187Q358.46875 136.49374 359.26562 136.49374Q360.03125 136.49374 360.60938 136.775Q361.1875 137.04062 361.51562 137.5875Q361.84375 138.11874 361.84375 138.91562Q361.84375 139.24374 361.6875 139.60312Q361.53125 139.9625 361.21875 140.29062Q360.90625 140.60312 360.40625 140.80624Q359.92188 141.00937 359.21875 141.00937L358.29688 141.00937L358.29688 140.35312ZM358.29688 141.24374L358.29688 140.5875L359.21875 140.5875Q360.03125 140.5875 360.5625 140.79062Q361.09375 140.97812 361.40625 141.30624Q361.71875 141.61874 361.84375 142.00937Q361.96875 142.38437 361.96875 142.775Q361.96875 143.36874 361.76562 143.8375Q361.5625 144.29062 361.1875 144.61874Q360.82812 144.93124 360.32812 145.10312Q359.84375 145.275 359.26562 145.275Q358.70312 145.275 358.21875 145.11874Q357.73438 144.94687 357.35938 144.65Q356.98438 144.35312 356.76562 143.91562Q356.5625 143.4625 356.5625 142.9L357.64062 142.9Q357.64062 143.3375 357.82812 143.68124Q358.03125 144.00937 358.39062 144.19687Q358.76562 144.36874 359.26562 144.36874Q359.76562 144.36874 360.125 144.19687Q360.48438 144.025 360.67188 143.68124Q360.875 143.32187 360.875 142.79062Q360.875 142.25937 360.65625 141.91562Q360.4375 141.57187 360.01562 141.41562Q359.60938 141.24374 359.0625 141.24374L358.29688 141.24374Z" fill-rule="nonzero"/><path stroke="#cccccc" stroke-width="1.0" stroke-linecap="butt" d="M554.13336 290.0C554.13336 185.54454 469.45544 100.86667 365.0 100.86667C260.54456 100.86667 175.86667 185.54454 175.86667 290.0C175.86667 394.45544 260.54456 479.13333 365.0 479.13333C469.45544 479.13333 554.13336 394.45544 554.13336 290.0" fill-rule="nonzero"/><path fill="#000000" d="M353.0625 92.91354L353.0625 94.22604Q353.0625 95.27292 352.875 95.99167Q352.6875 96.71042 352.32812 97.14792Q351.98438 97.58542 351.48438 97.78854Q351.0 97.99167 350.375 97.99167Q349.89062 97.99167 349.46875 97.86667Q349.04688 97.74167 348.71875 97.47604Q348.39062 97.19479 348.15625 96.75729Q347.92188 96.31979 347.79688 95.69479Q347.67188 95.05417 347.67188 94.22604L347.67188 92.91354Q347.67188 91.86667 347.85938 91.16354Q348.0625 90.46042 348.40625 90.02292Q348.76562 89.58542 349.25 89.39792Q349.75 89.21042 350.35938 89.21042Q350.85938 89.21042 351.28125 89.33542Q351.70312 89.46042 352.03125 89.72604Q352.35938 89.97604 352.57812 90.41354Q352.8125 90.83542 352.9375 91.46042Q353.0625 92.08542 353.0625 92.91354ZM351.96875 94.39792L351.96875 92.74167Q351.96875 92.16354 351.90625 91.72604Q351.84375 91.28854 351.70312 90.97604Q351.57812 90.66354 351.375 90.47604Q351.1875 90.28854 350.9375 90.19479Q350.6875 90.10104 350.35938 90.10104Q349.98438 90.10104 349.67188 90.24167Q349.375 90.38229 349.17188 90.69479Q348.96875 91.00729 348.85938 91.52292Q348.76562 92.02292 348.76562 92.74167L348.76562 94.39792Q348.76562 94.97604 348.82812 95.41354Q348.90625 95.85104 349.03125 96.17917Q349.17188 96.49167 349.35938 96.69479Q349.5625 96.89792 349.8125 96.99167Q350.0625 97.08542 350.375 97.08542Q350.78125 97.08542 351.07812 96.94479Q351.375 96.78854 351.57812 96.46042Q351.78125 96.13229 351.875 95.63229Q351.96875 95.11667 351.96875 94.39792ZM355.8125 96.56979L355.8125 97.44479Q355.8125 97.99167 355.53125 98.58542Q355.26562 99.17917 354.78125 99.56979L354.17188 99.14792Q354.35938 98.88229 354.48438 98.61667Q354.60938 98.35104 354.67188 98.06979Q354.75 97.78854 354.75 97.46042L354.75 96.56979L355.8125 96.56979ZM362.46875 94.99167L362.46875 95.88229L356.3125 95.88229L356.3125 95.24167L360.125 89.33542L361.01562 89.33542L360.0625 91.03854L357.54688 94.99167L362.46875 94.99167ZM361.28125 89.33542L361.28125 97.86667L360.20312 97.86667L360.20312 89.33542L361.28125 89.33542Z" fill-rule="nonzero"/><path stroke="#cccccc" stroke-width="1.0" stroke-linecap="butt" d="M365.0 290.0L365.0 101.0" fill-rule="nonzero"/><path fill="#000000" d="M335.64062 77.78125L336.76562 77.78125Q336.67188 78.59375 336.29688 79.234375Q335.92188 79.875 335.23438 80.25Q334.5625 80.625 333.53125 80.625Q332.78125 80.625 332.17188 80.34375Q331.5625 80.046875 331.10938 79.53125Q330.67188 79.015625 330.4375 78.296875Q330.20312 77.5625 330.20312 76.65625L330.20312 75.8125Q330.20312 74.921875 330.4375 74.1875Q330.67188 73.453125 331.125 72.9375Q331.57812 72.40625 332.20312 72.125Q332.84375 71.84375 333.625 71.84375Q334.59375 71.84375 335.26562 72.21875Q335.9375 72.578125 336.29688 73.21875Q336.67188 73.859375 336.76562 74.703125L335.64062 74.703125Q335.5625 74.109375 335.32812 73.6875Q335.10938 73.25 334.70312 73.015625Q334.29688 72.78125 333.625 72.78125Q333.0625 72.78125 332.625 73.0Q332.20312 73.203125 331.90625 73.609375Q331.625 74.0 331.46875 74.5625Q331.32812 75.125 331.32812 75.796875L331.32812 76.65625Q331.32812 77.28125 331.45312 77.84375Q331.59375 78.390625 331.85938 78.8125Q332.125 79.21875 332.54688 79.46875Q332.96875 79.703125 333.53125 79.703125Q334.25 79.703125 334.67188 79.46875Q335.10938 79.234375 335.32812 78.8125Q335.54688 78.390625 335.64062 77.78125ZM342.0625 79.421875L342.0625 76.15625Q342.0625 75.78125 341.90625 75.5Q341.76562 75.21875 341.46875 75.078125Q341.17188 74.921875 340.73438 74.921875Q340.3125 74.921875 340.0 75.0625Q339.70312 75.203125 339.53125 75.4375Q339.35938 75.65625 339.35938 75.921875L338.28125 75.921875Q338.28125 75.578125 338.45312 75.25Q338.625 74.90625 338.95312 74.640625Q339.28125 74.359375 339.75 74.203125Q340.21875 74.046875 340.79688 74.046875Q341.48438 74.046875 342.01562 74.28125Q342.54688 74.515625 342.84375 74.984375Q343.15625 75.453125 343.15625 76.15625L343.15625 79.109375Q343.15625 79.4375 343.20312 79.796875Q343.26562 80.140625 343.375 80.40625L343.375 80.5L342.23438 80.5Q342.15625 80.3125 342.10938 80.0Q342.0625 79.6875 342.0625 79.421875ZM342.25 76.65625L342.26562 77.421875L341.17188 77.421875Q340.70312 77.421875 340.34375 77.5Q339.98438 77.5625 339.73438 77.71875Q339.48438 77.859375 339.35938 78.078125Q339.23438 78.296875 339.23438 78.59375Q339.23438 78.890625 339.35938 79.140625Q339.5 79.375 339.76562 79.53125Q340.04688 79.671875 340.4375 79.671875Q340.9375 79.671875 341.3125 79.46875Q341.70312 79.25 341.92188 78.953125Q342.15625 78.640625 342.17188 78.34375L342.64062 78.875Q342.59375 79.109375 342.40625 79.421875Q342.23438 79.71875 341.92188 80.0Q341.625 80.265625 341.20312 80.453125Q340.79688 80.625 340.28125 80.625Q339.64062 80.625 339.15625 80.375Q338.67188 80.109375 338.40625 79.6875Q338.14062 79.265625 338.14062 78.734375Q338.14062 78.21875 338.32812 77.84375Q338.53125 77.453125 338.90625 77.1875Q339.28125 76.921875 339.8125 76.796875Q340.34375 76.65625 341.0 76.65625L342.25 76.65625ZM346.40625 75.15625L346.40625 80.5L345.32812 80.5L345.32812 74.15625L346.375 74.15625L346.40625 75.15625ZM348.39062 74.125L348.39062 75.125Q348.25 75.109375 348.125 75.09375Q348.01562 75.078125 347.85938 75.078125Q347.48438 75.078125 347.1875 75.203125Q346.90625 75.3125 346.70312 75.53125Q346.51562 75.734375 346.39062 76.03125Q346.28125 76.328125 346.25 76.671875L345.9375 76.84375Q345.9375 76.265625 346.04688 75.765625Q346.17188 75.265625 346.40625 74.875Q346.65625 74.484375 347.01562 74.265625Q347.39062 74.046875 347.90625 74.046875Q348.03125 74.046875 348.17188 74.078125Q348.32812 74.09375 348.39062 74.125ZM351.10938 79.84375L352.875 74.15625L354.03125 74.15625L351.48438 81.484375Q351.40625 81.71875 351.25 81.984375Q351.10938 82.265625 350.89062 82.5Q350.67188 82.75 350.35938 82.90625Q350.04688 83.0625 349.60938 83.0625Q349.48438 83.0625 349.28125 83.015625Q349.07812 82.984375 349.0 82.96875L349.0 82.09375Q349.04688 82.09375 349.14062 82.09375Q349.25 82.109375 349.28125 82.109375Q349.65625 82.109375 349.90625 82.015625Q350.17188 81.921875 350.34375 81.6875Q350.53125 81.46875 350.65625 81.078125L351.10938 79.84375ZM349.8125 74.15625L351.45312 79.078125L351.73438 80.21875L350.96875 80.625L348.625 74.15625L349.8125 74.15625ZM355.04688 77.40625L355.04688 77.265625Q355.04688 76.578125 355.23438 76.0Q355.4375 75.40625 355.8125 74.96875Q356.1875 74.53125 356.71875 74.296875Q357.25 74.046875 357.92188 74.046875Q358.57812 74.046875 359.10938 74.296875Q359.65625 74.53125 360.03125 74.96875Q360.40625 75.40625 360.60938 76.0Q360.8125 76.578125 360.8125 77.265625L360.8125 77.40625Q360.8125 78.078125 360.60938 78.671875Q360.40625 79.25 360.03125 79.6875Q359.65625 80.125 359.125 80.375Q358.59375 80.625 357.92188 80.625Q357.26562 80.625 356.71875 80.375Q356.1875 80.125 355.8125 79.6875Q355.4375 79.25 355.23438 78.671875Q355.04688 78.078125 355.04688 77.40625ZM356.125 77.265625L356.125 77.40625Q356.125 77.875 356.23438 78.296875Q356.34375 78.71875 356.5625 79.046875Q356.79688 79.359375 357.14062 79.546875Q357.48438 79.71875 357.92188 79.71875Q358.375 79.71875 358.70312 79.546875Q359.04688 79.359375 359.26562 79.046875Q359.5 78.71875 359.60938 78.296875Q359.71875 77.875 359.71875 77.40625L359.71875 77.265625Q359.71875 76.796875 359.60938 76.375Q359.5 75.953125 359.26562 75.640625Q359.04688 75.3125 358.70312 75.125Q358.375 74.9375 357.92188 74.9375Q357.46875 74.9375 357.125 75.125Q356.79688 75.3125 356.5625 75.640625Q356.34375 75.953125 356.23438 76.375Q356.125 76.796875 356.125 77.265625ZM363.40625 75.375L363.40625 82.9375L362.32812 82.9375L362.32812 74.15625L363.3125 74.15625L363.40625 75.375ZM367.6875 77.28125L367.6875 77.40625Q367.6875 78.09375 367.51562 78.6875Q367.35938 79.265625 367.04688 79.703125Q366.73438 80.140625 366.26562 80.390625Q365.8125 80.625 365.21875 80.625Q364.625 80.625 364.15625 80.421875Q363.6875 80.21875 363.35938 79.84375Q363.04688 79.453125 362.85938 78.921875Q362.67188 78.390625 362.59375 77.71875L362.59375 77.0625Q362.67188 76.359375 362.85938 75.8125Q363.04688 75.25 363.35938 74.859375Q363.6875 74.453125 364.14062 74.25Q364.60938 74.046875 365.20312 74.046875Q365.79688 74.046875 366.26562 74.28125Q366.73438 74.5 367.04688 74.9375Q367.35938 75.359375 367.51562 75.953125Q367.6875 76.546875 367.6875 77.28125ZM366.59375 77.40625L366.59375 77.28125Q366.59375 76.796875 366.48438 76.390625Q366.39062 75.96875 366.1875 75.65625Q365.98438 75.328125 365.65625 75.140625Q365.32812 74.953125 364.89062 74.953125Q364.48438 74.953125 364.17188 75.09375Q363.875 75.234375 363.65625 75.484375Q363.45312 75.71875 363.3125 76.015625Q363.1875 76.3125 363.125 76.640625L363.125 78.15625Q363.23438 78.5625 363.4375 78.921875Q363.65625 79.28125 364.0 79.5Q364.35938 79.71875 364.90625 79.71875Q365.34375 79.71875 365.65625 79.546875Q365.98438 79.359375 366.1875 79.046875Q366.39062 78.71875 366.48438 78.296875Q366.59375 77.875 366.59375 77.40625ZM370.40625 71.5L370.40625 80.5L369.32812 80.5L369.32812 71.5L370.40625 71.5ZM370.15625 77.09375L369.70312 77.078125Q369.70312 76.421875 369.89062 75.875Q370.07812 75.3125 370.42188 74.90625Q370.76562 74.5 371.23438 74.28125Q371.70312 74.046875 372.28125 74.046875Q372.75 74.046875 373.125 74.171875Q373.5 74.296875 373.76562 74.578125Q374.03125 74.84375 374.17188 75.28125Q374.3125 75.71875 374.3125 76.34375L374.3125 80.5L373.21875 80.5L373.21875 76.328125Q373.21875 75.828125 373.07812 75.53125Q372.9375 75.234375 372.65625 75.09375Q372.375 74.953125 371.95312 74.953125Q371.54688 74.953125 371.21875 75.125Q370.89062 75.296875 370.65625 75.59375Q370.42188 75.890625 370.28125 76.28125Q370.15625 76.65625 370.15625 77.09375ZM378.10938 79.84375L379.875 74.15625L381.03125 74.15625L378.48438 81.484375Q378.40625 81.71875 378.25 81.984375Q378.10938 82.265625 377.89062 82.5Q377.67188 82.75 377.35938 82.90625Q377.04688 83.0625 376.60938 83.0625Q376.48438 83.0625 376.28125 83.015625Q376.07812 82.984375 376.0 82.96875L376.0 82.09375Q376.04688 82.09375 376.14062 82.09375Q376.25 82.109375 376.28125 82.109375Q376.65625 82.109375 376.90625 82.015625Q377.17188 81.921875 377.34375 81.6875Q377.53125 81.46875 377.65625 81.078125L378.10938 79.84375ZM376.8125 74.15625L378.45312 79.078125L378.73438 80.21875L377.96875 80.625L375.625 74.15625L376.8125 74.15625ZM383.5 71.5L383.5 80.5L382.42188 80.5L382.42188 71.5L383.5 71.5ZM386.5 71.5L386.5 80.5L385.42188 80.5L385.42188 71.5L386.5 71.5ZM390.95312 80.625Q390.29688 80.625 389.75 80.40625Q389.21875 80.171875 388.82812 79.765625Q388.45312 79.34375 388.25 78.78125Q388.04688 78.21875 388.04688 77.546875L388.04688 77.3125Q388.04688 76.53125 388.26562 75.921875Q388.5 75.3125 388.89062 74.890625Q389.28125 74.46875 389.78125 74.265625Q390.28125 74.046875 390.8125 74.046875Q391.5 74.046875 391.98438 74.28125Q392.48438 74.515625 392.79688 74.9375Q393.125 75.34375 393.26562 75.921875Q393.42188 76.484375 393.42188 77.140625L393.42188 77.640625L388.6875 77.640625L388.6875 76.75L392.34375 76.75L392.34375 76.671875Q392.3125 76.25 392.15625 75.859375Q392.01562 75.453125 391.6875 75.203125Q391.375 74.9375 390.8125 74.9375Q390.45312 74.9375 390.14062 75.09375Q389.82812 75.25 389.59375 75.5625Q389.375 75.859375 389.25 76.296875Q389.14062 76.734375 389.14062 77.3125L389.14062 77.546875Q389.14062 78.0 389.26562 78.40625Q389.39062 78.796875 389.625 79.09375Q389.875 79.390625 390.21875 79.5625Q390.57812 79.734375 391.01562 79.734375Q391.59375 79.734375 391.98438 79.5Q392.39062 79.265625 392.6875 78.875L393.34375 79.390625Q393.14062 79.703125 392.8125 79.984375Q392.5 80.265625 392.03125 80.453125Q391.57812 80.625 390.95312 80.625ZM395.40625 75.515625L395.40625 80.5L394.32812 80.5L394.32812 74.15625L395.35938 74.15625L395.40625 75.515625ZM395.15625 77.09375L394.70312 77.078125Q394.70312 76.421875 394.89062 75.875Q395.07812 75.3125 395.42188 74.90625Q395.76562 74.5 396.23438 74.28125Q396.70312 74.046875 397.28125 74.046875Q397.75 74.046875 398.125 74.171875Q398.5 74.296875 398.76562 74.578125Q399.03125 74.84375 399.17188 75.28125Q399.3125 75.71875 399.3125 76.34375L399.3125 80.5L398.21875 80.5L398.21875 76.328125Q398.21875 75.828125 398.07812 75.53125Q397.9375 75.234375 397.65625 75.09375Q397.375 74.953125 396.95312 74.953125Q396.54688 74.953125 396.21875 75.125Q395.89062 75.296875 395.65625 75.59375Q395.42188 75.890625 395.28125 76.28125Q395.15625 76.65625 395.15625 77.09375Z" fill-rule="nonzero"/><path stroke="#cccccc" stroke-width="1.0" stroke-linecap="butt" d="M365.0 290.0L529.0 195.0" fill-rule="nonzero"/><path fill="#000000" d="M529.53125 182.67188L530.3906 182.67188Q531.2031 182.67188 531.7656 182.98438Q532.34375 183.28125 532.6406 183.8125Q532.9531 184.34375 532.9531 185.01562Q532.9531 185.84375 532.6094 186.42188Q532.2656 187.0 531.6719 187.3125Q531.0781 187.625 530.2969 187.625Q529.84375 187.625 529.3906 187.5Q528.9375 187.35938 528.5625 187.09375Q528.2031 186.82812 527.9844 186.40625Q527.7656 185.98438 527.7656 185.40625L528.1875 185.15625Q528.1875 185.59375 528.4375 185.95312Q528.7031 186.29688 529.1406 186.51562Q529.59375 186.73438 530.1875 186.73438Q530.71875 186.73438 531.09375 186.51562Q531.46875 186.29688 531.6719 185.92188Q531.875 185.53125 531.875 185.03125Q531.875 184.625 531.6875 184.25Q531.5156 183.85938 531.1875 183.60938Q530.8594 183.35938 530.375 183.35938L529.53125 183.35938L529.53125 182.67188ZM530.0469 178.84375Q530.8125 178.84375 531.375 179.14062Q531.9375 179.4375 532.2344 179.95312Q532.5469 180.46875 532.5469 181.14062Q532.5469 181.70312 532.2344 182.17188Q531.9375 182.625 531.375 182.90625Q530.8125 183.17188 530.0469 183.17188L529.53125 183.17188L529.53125 182.46875L530.03125 182.46875Q530.5469 182.46875 530.8594 182.29688Q531.1719 182.125 531.3125 181.82812Q531.46875 181.51562 531.46875 181.125Q531.46875 180.76562 531.3125 180.45312Q531.15625 180.14062 530.84375 179.9375Q530.53125 179.73438 530.0469 179.73438Q529.625 179.73438 529.28125 179.9375Q528.9375 180.125 528.7344 180.46875Q528.53125 180.79688 528.53125 181.21875L528.53125 189.75L527.4375 189.75L527.4375 181.21875Q527.4375 180.5625 527.7969 180.03125Q528.15625 179.48438 528.75 179.17188Q529.34375 178.84375 530.0469 178.84375ZM536.5781 183.42188L536.5781 184.3125L533.71875 184.3125L533.71875 183.42188L536.5781 183.42188ZM537.84375 178.96875L538.9375 178.96875L541.7344 185.92188L544.53125 178.96875L545.625 178.96875L542.15625 187.5L541.3125 187.5L537.84375 178.96875ZM537.4844 178.96875L538.4531 178.96875L538.6094 184.17188L538.6094 187.5L537.4844 187.5L537.4844 178.96875ZM545.0156 178.96875L545.9844 178.96875L545.9844 187.5L544.8594 187.5L544.8594 184.17188L545.0156 178.96875ZM549.1094 186.84375L550.875 181.15625L552.03125 181.15625L549.4844 188.48438Q549.40625 188.71875 549.25 188.98438Q549.1094 189.26562 548.8906 189.5Q548.6719 189.75 548.3594 189.90625Q548.0469 190.0625 547.6094 190.0625Q547.4844 190.0625 547.28125 190.01562Q547.0781 189.98438 547.0 189.96875L547.0 189.09375Q547.0469 189.09375 547.1406 189.09375Q547.25 189.10938 547.28125 189.10938Q547.65625 189.10938 547.90625 189.01562Q548.1719 188.92188 548.34375 188.6875Q548.53125 188.46875 548.65625 188.07812L549.1094 186.84375ZM547.8125 181.15625L549.4531 186.07812L549.7344 187.21875L548.96875 187.625L546.625 181.15625L547.8125 181.15625ZM554.40625 182.15625L554.40625 187.5L553.3281 187.5L553.3281 181.15625L554.375 181.15625L554.40625 182.15625ZM556.3906 181.125L556.3906 182.125Q556.25 182.10938 556.125 182.09375Q556.0156 182.07812 555.8594 182.07812Q555.4844 182.07812 555.1875 182.20312Q554.90625 182.3125 554.7031 182.53125Q554.5156 182.73438 554.3906 183.03125Q554.28125 183.32812 554.25 183.67188L553.9375 183.84375Q553.9375 183.26562 554.0469 182.76562Q554.1719 182.26562 554.40625 181.875Q554.65625 181.48438 555.0156 181.26562Q555.3906 181.04688 555.90625 181.04688Q556.03125 181.04688 556.1719 181.07812Q556.3281 181.09375 556.3906 181.125ZM559.8594 186.71875Q560.25 186.71875 560.5781 186.5625Q560.90625 186.40625 561.1094 186.14062Q561.3281 185.85938 561.3594 185.5L562.3906 185.5Q562.3594 186.0625 562.0 186.54688Q561.65625 187.03125 561.09375 187.32812Q560.53125 187.625 559.8594 187.625Q559.15625 187.625 558.625 187.375Q558.09375 187.10938 557.7344 186.67188Q557.3906 186.23438 557.21875 185.67188Q557.0469 185.09375 557.0469 184.45312L557.0469 184.20312Q557.0469 183.5625 557.21875 183.0Q557.3906 182.42188 557.7344 181.98438Q558.09375 181.54688 558.625 181.29688Q559.15625 181.04688 559.8594 181.04688Q560.6094 181.04688 561.15625 181.34375Q561.71875 181.64062 562.03125 182.17188Q562.3594 182.6875 562.3906 183.34375L561.3594 183.34375Q561.3281 182.95312 561.1406 182.64062Q560.9531 182.3125 560.625 182.125Q560.2969 181.9375 559.8594 181.9375Q559.3594 181.9375 559.0156 182.14062Q558.6875 182.32812 558.4844 182.65625Q558.2969 182.98438 558.2031 183.39062Q558.125 183.79688 558.125 184.20312L558.125 184.45312Q558.125 184.875 558.2031 185.28125Q558.2969 185.67188 558.4844 186.0Q558.6875 186.32812 559.0156 186.53125Q559.3594 186.71875 559.8594 186.71875ZM565.9531 187.625Q565.2969 187.625 564.75 187.40625Q564.21875 187.17188 563.8281 186.76562Q563.4531 186.34375 563.25 185.78125Q563.0469 185.21875 563.0469 184.54688L563.0469 184.3125Q563.0469 183.53125 563.2656 182.92188Q563.5 182.3125 563.8906 181.89062Q564.28125 181.46875 564.78125 181.26562Q565.28125 181.04688 565.8125 181.04688Q566.5 181.04688 566.9844 181.28125Q567.4844 181.51562 567.7969 181.9375Q568.125 182.34375 568.2656 182.92188Q568.4219 183.48438 568.4219 184.14062L568.4219 184.64062L563.6875 184.64062L563.6875 183.75L567.34375 183.75L567.34375 183.67188Q567.3125 183.25 567.15625 182.85938Q567.0156 182.45312 566.6875 182.20312Q566.375 181.9375 565.8125 181.9375Q565.4531 181.9375 565.1406 182.09375Q564.8281 182.25 564.59375 182.5625Q564.375 182.85938 564.25 183.29688Q564.1406 183.73438 564.1406 184.3125L564.1406 184.54688Q564.1406 185.0 564.2656 185.40625Q564.3906 185.79688 564.625 186.09375Q564.875 186.39062 565.21875 186.5625Q565.5781 186.73438 566.0156 186.73438Q566.59375 186.73438 566.9844 186.5Q567.3906 186.26562 567.6875 185.875L568.34375 186.39062Q568.1406 186.70312 567.8125 186.98438Q567.5 187.26562 567.03125 187.45312Q566.5781 187.625 565.9531 187.625ZM570.40625 182.51562L570.40625 187.5L569.3281 187.5L569.3281 181.15625L570.3594 181.15625L570.40625 182.51562ZM570.15625 184.09375L569.7031 184.07812Q569.7031 183.42188 569.8906 182.875Q570.0781 182.3125 570.4219 181.90625Q570.7656 181.5 571.2344 181.28125Q571.7031 181.04688 572.28125 181.04688Q572.75 181.04688 573.125 181.17188Q573.5 181.29688 573.7656 181.57812Q574.03125 181.84375 574.1719 182.28125Q574.3125 182.71875 574.3125 183.34375L574.3125 187.5L573.21875 187.5L573.21875 183.32812Q573.21875 182.82812 573.0781 182.53125Q572.9375 182.23438 572.65625 182.09375Q572.375 181.95312 571.9531 181.95312Q571.5469 181.95312 571.21875 182.125Q570.8906 182.29688 570.65625 182.59375Q570.4219 182.89062 570.28125 183.28125Q570.15625 183.65625 570.15625 184.09375Z" fill-rule="nonzero"/><path stroke="#cccccc" stroke-width="1.0" stroke-linecap="butt" d="M365.0 290.0L529.0 385.0" fill-rule="nonzero"/><path fill="#000000" d="M525.2969 401.5L523.5156 401.5L523.53125 400.57812L525.2969 400.57812Q526.21875 400.57812 526.8281 400.20312Q527.4375 399.8125 527.7344 399.125Q528.0469 398.42188 528.0469 397.48438L528.0469 396.96875Q528.0469 396.23438 527.875 395.67188Q527.7031 395.09375 527.3594 394.70312Q527.0156 394.29688 526.5156 394.09375Q526.03125 393.89062 525.40625 393.89062L523.4844 393.89062L523.4844 392.96875L525.40625 392.96875Q526.25 392.96875 526.9375 393.25Q527.625 393.53125 528.125 394.0625Q528.625 394.57812 528.8906 395.32812Q529.1719 396.0625 529.1719 396.98438L529.1719 397.48438Q529.1719 398.42188 528.8906 399.17188Q528.625 399.90625 528.1094 400.42188Q527.6094 400.9375 526.8906 401.21875Q526.1875 401.5 525.2969 401.5ZM524.125 392.96875L524.125 401.5L522.9844 401.5L522.9844 392.96875L524.125 392.96875ZM533.0781 397.42188L533.0781 398.3125L530.21875 398.3125L530.21875 397.42188L533.0781 397.42188ZM539.1719 400.57812L539.1719 401.5L534.90625 401.5L534.90625 400.57812L539.1719 400.57812ZM535.125 392.96875L535.125 401.5L533.9844 401.5L533.9844 392.96875L535.125 392.96875ZM541.0 395.15625L541.0 401.5L539.9219 401.5L539.9219 395.15625L541.0 395.15625ZM539.8281 393.48438Q539.8281 393.21875 539.9844 393.03125Q540.15625 392.84375 540.46875 392.84375Q540.78125 392.84375 540.9375 393.03125Q541.1094 393.21875 541.1094 393.48438Q541.1094 393.73438 540.9375 393.92188Q540.78125 394.09375 540.46875 394.09375Q540.15625 394.09375 539.9844 393.92188Q539.8281 393.73438 539.8281 393.48438ZM543.90625 396.42188L543.90625 401.5L542.8125 401.5L542.8125 395.15625L543.84375 395.15625L543.90625 396.42188ZM543.6875 398.09375L543.1719 398.07812Q543.1875 397.42188 543.34375 396.875Q543.5156 396.3125 543.8281 395.90625Q544.15625 395.5 544.6406 395.28125Q545.125 395.04688 545.75 395.04688Q546.2031 395.04688 546.5781 395.17188Q546.9531 395.29688 547.21875 395.5625Q547.5 395.82812 547.6406 396.25Q547.7969 396.67188 547.7969 397.28125L547.7969 401.5L546.71875 401.5L546.71875 397.32812Q546.71875 396.82812 546.5469 396.53125Q546.3906 396.23438 546.0781 396.09375Q545.78125 395.95312 545.3594 395.95312Q544.8906 395.95312 544.5625 396.125Q544.2344 396.29688 544.0469 396.59375Q543.8594 396.89062 543.7656 397.28125Q543.6875 397.65625 543.6875 398.09375ZM547.7969 397.48438L547.0625 397.71875Q547.0625 397.1875 547.2344 396.71875Q547.40625 396.23438 547.71875 395.85938Q548.0469 395.48438 548.5156 395.26562Q548.9844 395.04688 549.5781 395.04688Q550.09375 395.04688 550.4844 395.1875Q550.8906 395.3125 551.15625 395.59375Q551.4219 395.875 551.5625 396.3125Q551.7031 396.73438 551.7031 397.32812L551.7031 401.5L550.625 401.5L550.625 397.32812Q550.625 396.78125 550.4531 396.5Q550.28125 396.20312 549.9844 396.07812Q549.6875 395.95312 549.2656 395.95312Q548.90625 395.95312 548.625 396.07812Q548.3594 396.20312 548.1719 396.42188Q547.9844 396.625 547.8906 396.90625Q547.7969 397.1875 547.7969 397.48438ZM553.5469 398.40625L553.5469 398.26562Q553.5469 397.57812 553.7344 397.0Q553.9375 396.40625 554.3125 395.96875Q554.6875 395.53125 555.21875 395.29688Q555.75 395.04688 556.4219 395.04688Q557.0781 395.04688 557.6094 395.29688Q558.15625 395.53125 558.53125 395.96875Q558.90625 396.40625 559.1094 397.0Q559.3125 397.57812 559.3125 398.26562L559.3125 398.40625Q559.3125 399.07812 559.1094 399.67188Q558.90625 400.25 558.53125 400.6875Q558.15625 401.125 557.625 401.375Q557.09375 401.625 556.4219 401.625Q555.7656 401.625 555.21875 401.375Q554.6875 401.125 554.3125 400.6875Q553.9375 400.25 553.7344 399.67188Q553.5469 399.07812 553.5469 398.40625ZM554.625 398.26562L554.625 398.40625Q554.625 398.875 554.7344 399.29688Q554.84375 399.71875 555.0625 400.04688Q555.2969 400.35938 555.6406 400.54688Q555.9844 400.71875 556.4219 400.71875Q556.875 400.71875 557.2031 400.54688Q557.5469 400.35938 557.7656 400.04688Q558.0 399.71875 558.1094 399.29688Q558.21875 398.875 558.21875 398.40625L558.21875 398.26562Q558.21875 397.79688 558.1094 397.375Q558.0 396.95312 557.7656 396.64062Q557.5469 396.3125 557.2031 396.125Q556.875 395.9375 556.4219 395.9375Q555.96875 395.9375 555.625 396.125Q555.2969 396.3125 555.0625 396.64062Q554.84375 396.95312 554.7344 397.375Q554.625 397.79688 554.625 398.26562ZM561.90625 396.51562L561.90625 401.5L560.8281 401.5L560.8281 395.15625L561.8594 395.15625L561.90625 396.51562ZM561.65625 398.09375L561.2031 398.07812Q561.2031 397.42188 561.3906 396.875Q561.5781 396.3125 561.9219 395.90625Q562.2656 395.5 562.7344 395.28125Q563.2031 395.04688 563.78125 395.04688Q564.25 395.04688 564.625 395.17188Q565.0 395.29688 565.2656 395.57812Q565.53125 395.84375 565.6719 396.28125Q565.8125 396.71875 565.8125 397.34375L565.8125 401.5L564.71875 401.5L564.71875 397.32812Q564.71875 396.82812 564.5781 396.53125Q564.4375 396.23438 564.15625 396.09375Q563.875 395.95312 563.4531 395.95312Q563.0469 395.95312 562.71875 396.125Q562.3906 396.29688 562.15625 396.59375Q561.9219 396.89062 561.78125 397.28125Q561.65625 397.65625 561.65625 398.09375ZM570.4531 401.625Q569.7969 401.625 569.25 401.40625Q568.71875 401.17188 568.3281 400.76562Q567.9531 400.34375 567.75 399.78125Q567.5469 399.21875 567.5469 398.54688L567.5469 398.3125Q567.5469 397.53125 567.7656 396.92188Q568.0 396.3125 568.3906 395.89062Q568.78125 395.46875 569.28125 395.26562Q569.78125 395.04688 570.3125 395.04688Q571.0 395.04688 571.4844 395.28125Q571.9844 395.51562 572.2969 395.9375Q572.625 396.34375 572.7656 396.92188Q572.9219 397.48438 572.9219 398.14062L572.9219 398.64062L568.1875 398.64062L568.1875 397.75L571.84375 397.75L571.84375 397.67188Q571.8125 397.25 571.65625 396.85938Q571.5156 396.45312 571.1875 396.20312Q570.875 395.9375 570.3125 395.9375Q569.9531 395.9375 569.6406 396.09375Q569.3281 396.25 569.09375 396.5625Q568.875 396.85938 568.75 397.29688Q568.6406 397.73438 568.6406 398.3125L568.6406 398.54688Q568.6406 399.0 568.7656 399.40625Q568.8906 399.79688 569.125 400.09375Q569.375 400.39062 569.71875 400.5625Q570.0781 400.73438 570.5156 400.73438Q571.09375 400.73438 571.4844 400.5Q571.8906 400.26562 572.1875 399.875L572.84375 400.39062Q572.6406 400.70312 572.3125 400.98438Q572.0 401.26562 571.53125 401.45312Q571.0781 401.625 570.4531 401.625ZM574.90625 396.51562L574.90625 401.5L573.8281 401.5L573.8281 395.15625L574.8594 395.15625L574.90625 396.51562ZM574.65625 398.09375L574.2031 398.07812Q574.2031 397.42188 574.3906 396.875Q574.5781 396.3125 574.9219 395.90625Q575.2656 395.5 575.7344 395.28125Q576.2031 395.04688 576.78125 395.04688Q577.25 395.04688 577.625 395.17188Q578.0 395.29688 578.2656 395.57812Q578.53125 395.84375 578.6719 396.28125Q578.8125 396.71875 578.8125 397.34375L578.8125 401.5L577.71875 401.5L577.71875 397.32812Q577.71875 396.82812 577.5781 396.53125Q577.4375 396.23438 577.15625 396.09375Q576.875 395.95312 576.4531 395.95312Q576.0469 395.95312 575.71875 396.125Q575.3906 396.29688 575.15625 396.59375Q574.9219 396.89062 574.78125 397.28125Q574.65625 397.65625 574.65625 398.09375Z" fill-rule="nonzero"/><path stroke="#cccccc" stroke-width="1.0" stroke-linecap="butt" d="M365.0 290.0L365.0 479.0" fill-rule="nonzero"/><path fill="#000000" d="M346.5625 503.64062L346.5625 504.5625L341.95312 504.5625L341.95312 503.64062L346.5625 503.64062ZM342.125 499.96875L342.125 508.5L340.98438 508.5L340.98438 499.96875L342.125 499.96875ZM347.54688 499.96875L347.54688 508.5L346.42188 508.5L346.42188 499.96875L347.54688 499.96875ZM353.70312 507.03125L353.70312 502.15625L354.79688 502.15625L354.79688 508.5L353.76562 508.5L353.70312 507.03125ZM353.90625 505.70312L354.35938 505.6875Q354.35938 506.3125 354.21875 506.85938Q354.09375 507.39062 353.79688 507.78125Q353.51562 508.17188 353.03125 508.40625Q352.5625 508.625 351.89062 508.625Q351.42188 508.625 351.03125 508.48438Q350.65625 508.34375 350.375 508.0625Q350.10938 507.78125 349.95312 507.32812Q349.79688 506.875 349.79688 506.25L349.79688 502.15625L350.89062 502.15625L350.89062 506.26562Q350.89062 506.6875 350.98438 506.96875Q351.07812 507.25 351.25 507.40625Q351.42188 507.5625 351.625 507.64062Q351.82812 507.70312 352.04688 507.70312Q352.75 507.70312 353.14062 507.4375Q353.54688 507.15625 353.71875 506.70312Q353.90625 506.25 353.90625 505.70312ZM357.90625 503.42188L357.90625 508.5L356.8125 508.5L356.8125 502.15625L357.84375 502.15625L357.90625 503.42188ZM357.6875 505.09375L357.17188 505.07812Q357.1875 504.42188 357.34375 503.875Q357.51562 503.3125 357.82812 502.90625Q358.15625 502.5 358.64062 502.28125Q359.125 502.04688 359.75 502.04688Q360.20312 502.04688 360.57812 502.17188Q360.95312 502.29688 361.21875 502.5625Q361.5 502.82812 361.64062 503.25Q361.79688 503.67188 361.79688 504.28125L361.79688 508.5L360.71875 508.5L360.71875 504.32812Q360.71875 503.82812 360.54688 503.53125Q360.39062 503.23438 360.07812 503.09375Q359.78125 502.95312 359.35938 502.95312Q358.89062 502.95312 358.5625 503.125Q358.23438 503.29688 358.04688 503.59375Q357.85938 503.89062 357.76562 504.28125Q357.6875 504.65625 357.6875 505.09375ZM361.79688 504.48438L361.0625 504.71875Q361.0625 504.1875 361.23438 503.71875Q361.40625 503.23438 361.71875 502.85938Q362.04688 502.48438 362.51562 502.26562Q362.98438 502.04688 363.57812 502.04688Q364.09375 502.04688 364.48438 502.1875Q364.89062 502.3125 365.15625 502.59375Q365.42188 502.875 365.5625 503.3125Q365.70312 503.73438 365.70312 504.32812L365.70312 508.5L364.625 508.5L364.625 504.32812Q364.625 503.78125 364.45312 503.5Q364.28125 503.20312 363.98438 503.07812Q363.6875 502.95312 363.26562 502.95312Q362.90625 502.95312 362.625 503.07812Q362.35938 503.20312 362.17188 503.42188Q361.98438 503.625 361.89062 503.90625Q361.79688 504.1875 361.79688 504.48438ZM371.70312 507.03125L371.70312 502.15625L372.79688 502.15625L372.79688 508.5L371.76562 508.5L371.70312 507.03125ZM371.90625 505.70312L372.35938 505.6875Q372.35938 506.3125 372.21875 506.85938Q372.09375 507.39062 371.79688 507.78125Q371.51562 508.17188 371.03125 508.40625Q370.5625 508.625 369.89062 508.625Q369.42188 508.625 369.03125 508.48438Q368.65625 508.34375 368.375 508.0625Q368.10938 507.78125 367.95312 507.32812Q367.79688 506.875 367.79688 506.25L367.79688 502.15625L368.89062 502.15625L368.89062 506.26562Q368.89062 506.6875 368.98438 506.96875Q369.07812 507.25 369.25 507.40625Q369.42188 507.5625 369.625 507.64062Q369.82812 507.70312 370.04688 507.70312Q370.75 507.70312 371.14062 507.4375Q371.54688 507.15625 371.71875 506.70312Q371.90625 506.25 371.90625 505.70312ZM376.0 499.5L376.0 508.5L374.92188 508.5L374.92188 499.5L376.0 499.5ZM380.45312 508.625Q379.79688 508.625 379.25 508.40625Q378.71875 508.17188 378.32812 507.76562Q377.95312 507.34375 377.75 506.78125Q377.54688 506.21875 377.54688 505.54688L377.54688 505.3125Q377.54688 504.53125 377.76562 503.92188Q378.0 503.3125 378.39062 502.89062Q378.78125 502.46875 379.28125 502.26562Q379.78125 502.04688 380.3125 502.04688Q381.0 502.04688 381.48438 502.28125Q381.98438 502.51562 382.29688 502.9375Q382.625 503.34375 382.76562 503.92188Q382.92188 504.48438 382.92188 505.14062L382.92188 505.64062L378.1875 505.64062L378.1875 504.75L381.84375 504.75L381.84375 504.67188Q381.8125 504.25 381.65625 503.85938Q381.51562 503.45312 381.1875 503.20312Q380.875 502.9375 380.3125 502.9375Q379.95312 502.9375 379.64062 503.09375Q379.32812 503.25 379.09375 503.5625Q378.875 503.85938 378.75 504.29688Q378.64062 504.73438 378.64062 505.3125L378.64062 505.54688Q378.64062 506.0 378.76562 506.40625Q378.89062 506.79688 379.125 507.09375Q379.375 507.39062 379.71875 507.5625Q380.07812 507.73438 380.51562 507.73438Q381.09375 507.73438 381.48438 507.5Q381.89062 507.26562 382.1875 506.875L382.84375 507.39062Q382.64062 507.70312 382.3125 507.98438Q382.0 508.26562 381.53125 508.45312Q381.07812 508.625 380.45312 508.625ZM384.90625 503.51562L384.90625 508.5L383.82812 508.5L383.82812 502.15625L384.85938 502.15625L384.90625 503.51562ZM384.65625 505.09375L384.20312 505.07812Q384.20312 504.42188 384.39062 503.875Q384.57812 503.3125 384.92188 502.90625Q385.26562 502.5 385.73438 502.28125Q386.20312 502.04688 386.78125 502.04688Q387.25 502.04688 387.625 502.17188Q388.0 502.29688 388.26562 502.57812Q388.53125 502.84375 388.67188 503.28125Q388.8125 503.71875 388.8125 504.34375L388.8125 508.5L387.71875 508.5L387.71875 504.32812Q387.71875 503.82812 387.57812 503.53125Q387.4375 503.23438 387.15625 503.09375Q386.875 502.95312 386.45312 502.95312Q386.04688 502.95312 385.71875 503.125Q385.39062 503.29688 385.15625 503.59375Q384.92188 503.89062 384.78125 504.28125Q384.65625 504.65625 384.65625 505.09375Z" fill-rule="nonzero"/><path stroke="#cccccc" stroke-width="1.0" stroke-linecap="butt" d="M365.0 290.0L201.0 385.0" fill-rule="nonzero"/><path fill="#000000" d="M163.67188 400.57812L163.67188 401.5L159.40625 401.5L159.40625 400.57812L163.67188 400.57812ZM159.625 392.96875L159.625 401.5L158.48438 401.5L158.48438 392.96875L159.625 392.96875ZM165.5 395.15625L165.5 401.5L164.42188 401.5L164.42188 395.15625L165.5 395.15625ZM164.32812 393.48438Q164.32812 393.21875 164.48438 393.03125Q164.65625 392.84375 164.96875 392.84375Q165.28125 392.84375 165.4375 393.03125Q165.60938 393.21875 165.60938 393.48438Q165.60938 393.73438 165.4375 393.92188Q165.28125 394.09375 164.96875 394.09375Q164.65625 394.09375 164.48438 393.92188Q164.32812 393.73438 164.32812 393.48438ZM168.40625 396.51562L168.40625 401.5L167.32812 401.5L167.32812 395.15625L168.35938 395.15625L168.40625 396.51562ZM168.15625 398.09375L167.70312 398.07812Q167.70312 397.42188 167.89062 396.875Q168.07812 396.3125 168.42188 395.90625Q168.76562 395.5 169.23438 395.28125Q169.70312 395.04688 170.28125 395.04688Q170.75 395.04688 171.125 395.17188Q171.5 395.29688 171.76562 395.57812Q172.03125 395.84375 172.17188 396.28125Q172.3125 396.71875 172.3125 397.34375L172.3125 401.5L171.21875 401.5L171.21875 397.32812Q171.21875 396.82812 171.07812 396.53125Q170.9375 396.23438 170.65625 396.09375Q170.375 395.95312 169.95312 395.95312Q169.54688 395.95312 169.21875 396.125Q168.89062 396.29688 168.65625 396.59375Q168.42188 396.89062 168.28125 397.28125Q168.15625 397.65625 168.15625 398.09375ZM178.0625 400.42188L178.0625 397.15625Q178.0625 396.78125 177.90625 396.5Q177.76562 396.21875 177.46875 396.07812Q177.17188 395.92188 176.73438 395.92188Q176.3125 395.92188 176.0 396.0625Q175.70312 396.20312 175.53125 396.4375Q175.35938 396.65625 175.35938 396.92188L174.28125 396.92188Q174.28125 396.57812 174.45312 396.25Q174.625 395.90625 174.95312 395.64062Q175.28125 395.35938 175.75 395.20312Q176.21875 395.04688 176.79688 395.04688Q177.48438 395.04688 178.01562 395.28125Q178.54688 395.51562 178.84375 395.98438Q179.15625 396.45312 179.15625 397.15625L179.15625 400.10938Q179.15625 400.4375 179.20312 400.79688Q179.26562 401.14062 179.375 401.40625L179.375 401.5L178.23438 401.5Q178.15625 401.3125 178.10938 401.0Q178.0625 400.6875 178.0625 400.42188ZM178.25 397.65625L178.26562 398.42188L177.17188 398.42188Q176.70312 398.42188 176.34375 398.5Q175.98438 398.5625 175.73438 398.71875Q175.48438 398.85938 175.35938 399.07812Q175.23438 399.29688 175.23438 399.59375Q175.23438 399.89062 175.35938 400.14062Q175.5 400.375 175.76562 400.53125Q176.04688 400.67188 176.4375 400.67188Q176.9375 400.67188 177.3125 400.46875Q177.70312 400.25 177.92188 399.95312Q178.15625 399.64062 178.17188 399.34375L178.64062 399.875Q178.59375 400.10938 178.40625 400.42188Q178.23438 400.71875 177.92188 401.0Q177.625 401.26562 177.20312 401.45312Q176.79688 401.625 176.28125 401.625Q175.64062 401.625 175.15625 401.375Q174.67188 401.10938 174.40625 400.6875Q174.14062 400.26562 174.14062 399.73438Q174.14062 399.21875 174.32812 398.84375Q174.53125 398.45312 174.90625 398.1875Q175.28125 397.92188 175.8125 397.79688Q176.34375 397.65625 177.0 397.65625L178.25 397.65625ZM182.5 392.5L182.5 401.5L181.42188 401.5L181.42188 392.5L182.5 392.5ZM184.04688 398.40625L184.04688 398.26562Q184.04688 397.57812 184.23438 397.0Q184.4375 396.40625 184.8125 395.96875Q185.1875 395.53125 185.71875 395.29688Q186.25 395.04688 186.92188 395.04688Q187.57812 395.04688 188.10938 395.29688Q188.65625 395.53125 189.03125 395.96875Q189.40625 396.40625 189.60938 397.0Q189.8125 397.57812 189.8125 398.26562L189.8125 398.40625Q189.8125 399.07812 189.60938 399.67188Q189.40625 400.25 189.03125 400.6875Q188.65625 401.125 188.125 401.375Q187.59375 401.625 186.92188 401.625Q186.26562 401.625 185.71875 401.375Q185.1875 401.125 184.8125 400.6875Q184.4375 400.25 184.23438 399.67188Q184.04688 399.07812 184.04688 398.40625ZM185.125 398.26562L185.125 398.40625Q185.125 398.875 185.23438 399.29688Q185.34375 399.71875 185.5625 400.04688Q185.79688 400.35938 186.14062 400.54688Q186.48438 400.71875 186.92188 400.71875Q187.375 400.71875 187.70312 400.54688Q188.04688 400.35938 188.26562 400.04688Q188.5 399.71875 188.60938 399.29688Q188.71875 398.875 188.71875 398.40625L188.71875 398.26562Q188.71875 397.79688 188.60938 397.375Q188.5 396.95312 188.26562 396.64062Q188.04688 396.3125 187.70312 396.125Q187.375 395.9375 186.92188 395.9375Q186.46875 395.9375 186.125 396.125Q185.79688 396.3125 185.5625 396.64062Q185.34375 396.95312 185.23438 397.375Q185.125 397.79688 185.125 398.26562ZM191.04688 398.40625L191.04688 398.26562Q191.04688 397.57812 191.23438 397.0Q191.4375 396.40625 191.8125 395.96875Q192.1875 395.53125 192.71875 395.29688Q193.25 395.04688 193.92188 395.04688Q194.57812 395.04688 195.10938 395.29688Q195.65625 395.53125 196.03125 395.96875Q196.40625 396.40625 196.60938 397.0Q196.8125 397.57812 196.8125 398.26562L196.8125 398.40625Q196.8125 399.07812 196.60938 399.67188Q196.40625 400.25 196.03125 400.6875Q195.65625 401.125 195.125 401.375Q194.59375 401.625 193.92188 401.625Q193.26562 401.625 192.71875 401.375Q192.1875 401.125 191.8125 400.6875Q191.4375 400.25 191.23438 399.67188Q191.04688 399.07812 191.04688 398.40625ZM192.125 398.26562L192.125 398.40625Q192.125 398.875 192.23438 399.29688Q192.34375 399.71875 192.5625 400.04688Q192.79688 400.35938 193.14062 400.54688Q193.48438 400.71875 193.92188 400.71875Q194.375 400.71875 194.70312 400.54688Q195.04688 400.35938 195.26562 400.04688Q195.5 399.71875 195.60938 399.29688Q195.71875 398.875 195.71875 398.40625L195.71875 398.26562Q195.71875 397.79688 195.60938 397.375Q195.5 396.95312 195.26562 396.64062Q195.04688 396.3125 194.70312 396.125Q194.375 395.9375 193.92188 395.9375Q193.46875 395.9375 193.125 396.125Q192.79688 396.3125 192.5625 396.64062Q192.34375 396.95312 192.23438 397.375Q192.125 397.79688 192.125 398.26562ZM199.5 392.5L199.5 401.5L198.42188 401.5L198.42188 392.5L199.5 392.5Z" fill-rule="nonzero"/><path stroke="#cccccc" stroke-width="1.0" stroke-linecap="butt" d="M365.0 290.0L201.0 195.0" fill-rule="nonzero"/><path fill="#000000" d="M161.03125 185.34375Q161.03125 185.04688 160.9375 184.8125Q160.85938 184.57812 160.625 184.39062Q160.40625 184.20312 160.0 184.03125Q159.60938 183.85938 159.01562 183.6875Q158.375 183.5 157.85938 183.28125Q157.35938 183.04688 156.98438 182.75Q156.625 182.4375 156.4375 182.0625Q156.25 181.67188 156.25 181.17188Q156.25 180.67188 156.45312 180.25Q156.65625 179.82812 157.03125 179.51562Q157.42188 179.20312 157.95312 179.03125Q158.48438 178.84375 159.14062 178.84375Q160.10938 178.84375 160.78125 179.21875Q161.45312 179.57812 161.79688 180.17188Q162.15625 180.76562 162.15625 181.42188L161.03125 181.42188Q161.03125 180.95312 160.8125 180.57812Q160.60938 180.20312 160.1875 180.0Q159.78125 179.78125 159.14062 179.78125Q158.54688 179.78125 158.14062 179.96875Q157.75 180.14062 157.5625 180.45312Q157.375 180.76562 157.375 181.15625Q157.375 181.42188 157.48438 181.65625Q157.60938 181.875 157.84375 182.0625Q158.09375 182.25 158.46875 182.40625Q158.84375 182.5625 159.375 182.70312Q160.09375 182.90625 160.625 183.17188Q161.15625 183.42188 161.5 183.73438Q161.84375 184.04688 162.0 184.4375Q162.17188 184.82812 162.17188 185.32812Q162.17188 185.85938 161.95312 186.28125Q161.75 186.70312 161.35938 187.0Q160.96875 187.29688 160.42188 187.46875Q159.875 187.625 159.20312 187.625Q158.60938 187.625 158.03125 187.45312Q157.46875 187.28125 157.0 186.95312Q156.53125 186.625 156.25 186.15625Q155.96875 185.67188 155.96875 185.03125L157.09375 185.03125Q157.09375 185.46875 157.26562 185.78125Q157.4375 186.09375 157.73438 186.29688Q158.03125 186.5 158.40625 186.60938Q158.78125 186.70312 159.20312 186.70312Q159.79688 186.70312 160.20312 186.54688Q160.60938 186.375 160.8125 186.07812Q161.03125 185.76562 161.03125 185.34375ZM163.04688 184.40625L163.04688 184.26562Q163.04688 183.57812 163.23438 183.0Q163.4375 182.40625 163.8125 181.96875Q164.1875 181.53125 164.71875 181.29688Q165.25 181.04688 165.92188 181.04688Q166.57812 181.04688 167.10938 181.29688Q167.65625 181.53125 168.03125 181.96875Q168.40625 182.40625 168.60938 183.0Q168.8125 183.57812 168.8125 184.26562L168.8125 184.40625Q168.8125 185.07812 168.60938 185.67188Q168.40625 186.25 168.03125 186.6875Q167.65625 187.125 167.125 187.375Q166.59375 187.625 165.92188 187.625Q165.26562 187.625 164.71875 187.375Q164.1875 187.125 163.8125 186.6875Q163.4375 186.25 163.23438 185.67188Q163.04688 185.07812 163.04688 184.40625ZM164.125 184.26562L164.125 184.40625Q164.125 184.875 164.23438 185.29688Q164.34375 185.71875 164.5625 186.04688Q164.79688 186.35938 165.14062 186.54688Q165.48438 186.71875 165.92188 186.71875Q166.375 186.71875 166.70312 186.54688Q167.04688 186.35938 167.26562 186.04688Q167.5 185.71875 167.60938 185.29688Q167.71875 184.875 167.71875 184.40625L167.71875 184.26562Q167.71875 183.79688 167.60938 183.375Q167.5 182.95312 167.26562 182.64062Q167.04688 182.3125 166.70312 182.125Q166.375 181.9375 165.92188 181.9375Q165.46875 181.9375 165.125 182.125Q164.79688 182.3125 164.5625 182.64062Q164.34375 182.95312 164.23438 183.375Q164.125 183.79688 164.125 184.26562ZM171.40625 182.51562L171.40625 187.5L170.32812 187.5L170.32812 181.15625L171.35938 181.15625L171.40625 182.51562ZM171.15625 184.09375L170.70312 184.07812Q170.70312 183.42188 170.89062 182.875Q171.07812 182.3125 171.42188 181.90625Q171.76562 181.5 172.23438 181.28125Q172.70312 181.04688 173.28125 181.04688Q173.75 181.04688 174.125 181.17188Q174.5 181.29688 174.76562 181.57812Q175.03125 181.84375 175.17188 182.28125Q175.3125 182.71875 175.3125 183.34375L175.3125 187.5L174.21875 187.5L174.21875 183.32812Q174.21875 182.82812 174.07812 182.53125Q173.9375 182.23438 173.65625 182.09375Q173.375 181.95312 172.95312 181.95312Q172.54688 181.95312 172.21875 182.125Q171.89062 182.29688 171.65625 182.59375Q171.42188 182.89062 171.28125 183.28125Q171.15625 183.65625 171.15625 184.09375ZM181.01562 185.8125Q181.01562 185.57812 180.90625 185.375Q180.8125 185.17188 180.5 185.01562Q180.1875 184.84375 179.5625 184.71875Q179.03125 184.60938 178.60938 184.46875Q178.1875 184.3125 177.89062 184.09375Q177.59375 183.875 177.4375 183.57812Q177.28125 183.28125 177.28125 182.89062Q177.28125 182.51562 177.4375 182.1875Q177.60938 181.84375 177.90625 181.59375Q178.21875 181.32812 178.65625 181.1875Q179.09375 181.04688 179.625 181.04688Q180.39062 181.04688 180.92188 181.3125Q181.46875 181.57812 181.75 182.03125Q182.03125 182.48438 182.03125 183.01562L180.95312 183.01562Q180.95312 182.76562 180.79688 182.51562Q180.64062 182.26562 180.34375 182.10938Q180.04688 181.9375 179.625 181.9375Q179.17188 181.9375 178.89062 182.07812Q178.60938 182.20312 178.48438 182.42188Q178.35938 182.625 178.35938 182.85938Q178.35938 183.04688 178.42188 183.1875Q178.48438 183.3125 178.64062 183.4375Q178.79688 183.54688 179.07812 183.65625Q179.375 183.75 179.82812 183.84375Q180.60938 184.01562 181.10938 184.26562Q181.60938 184.51562 181.85938 184.875Q182.10938 185.21875 182.10938 185.73438Q182.10938 186.15625 181.92188 186.5Q181.75 186.84375 181.42188 187.09375Q181.10938 187.34375 180.65625 187.48438Q180.20312 187.625 179.65625 187.625Q178.8125 187.625 178.23438 187.32812Q177.65625 187.01562 177.35938 186.54688Q177.0625 186.0625 177.0625 185.54688L178.14062 185.54688Q178.17188 185.98438 178.40625 186.25Q178.64062 186.51562 178.96875 186.625Q179.3125 186.71875 179.65625 186.71875Q180.09375 186.71875 180.39062 186.60938Q180.70312 186.48438 180.85938 186.28125Q181.01562 186.07812 181.01562 185.8125ZM185.98438 181.15625L185.98438 181.98438L182.54688 181.98438L182.54688 181.15625L185.98438 181.15625ZM183.71875 179.625L184.79688 179.625L184.79688 185.92188Q184.79688 186.25 184.89062 186.42188Q185.0 186.57812 185.15625 186.64062Q185.3125 186.6875 185.5 186.6875Q185.625 186.6875 185.76562 186.65625Q185.92188 186.625 186.0 186.60938L186.01562 187.5Q185.875 187.54688 185.67188 187.57812Q185.46875 187.625 185.17188 187.625Q184.78125 187.625 184.4375 187.46875Q184.10938 187.29688 183.90625 186.9375Q183.71875 186.5625 183.71875 185.92188L183.71875 179.625ZM188.5 181.15625L188.5 187.5L187.42188 187.5L187.42188 181.15625L188.5 181.15625ZM187.32812 179.48438Q187.32812 179.21875 187.48438 179.03125Q187.65625 178.84375 187.96875 178.84375Q188.28125 178.84375 188.4375 179.03125Q188.60938 179.21875 188.60938 179.48438Q188.60938 179.73438 188.4375 179.92188Q188.28125 180.09375 187.96875 180.09375Q187.65625 180.09375 187.48438 179.92188Q187.32812 179.73438 187.32812 179.48438ZM194.4375 181.15625L195.42188 181.15625L195.42188 187.35938Q195.42188 188.20312 195.07812 188.79688Q194.73438 189.39062 194.125 189.6875Q193.53125 190.0 192.73438 190.0Q192.40625 190.0 191.95312 189.89062Q191.51562 189.79688 191.09375 189.54688Q190.67188 189.3125 190.39062 188.90625L190.95312 188.25Q191.35938 188.73438 191.78125 188.92188Q192.21875 189.10938 192.65625 189.10938Q193.17188 189.10938 193.54688 188.90625Q193.92188 188.71875 194.125 188.34375Q194.32812 187.96875 194.32812 187.42188L194.32812 182.54688L194.4375 181.15625ZM190.0625 184.40625L190.0625 184.28125Q190.0625 183.54688 190.23438 182.95312Q190.42188 182.35938 190.73438 181.9375Q191.0625 181.5 191.51562 181.28125Q191.98438 181.04688 192.57812 181.04688Q193.17188 181.04688 193.60938 181.25Q194.0625 181.45312 194.375 181.85938Q194.6875 182.25 194.875 182.8125Q195.0625 183.35938 195.125 184.0625L195.125 184.60938Q195.0625 185.29688 194.875 185.85938Q194.6875 186.42188 194.375 186.8125Q194.0625 187.20312 193.60938 187.42188Q193.15625 187.625 192.5625 187.625Q191.98438 187.625 191.53125 187.39062Q191.07812 187.14062 190.75 186.70312Q190.42188 186.26562 190.23438 185.6875Q190.0625 185.09375 190.0625 184.40625ZM191.15625 184.28125L191.15625 184.40625Q191.15625 184.875 191.25 185.29688Q191.34375 185.70312 191.54688 186.03125Q191.75 186.34375 192.0625 186.53125Q192.39062 186.70312 192.82812 186.70312Q193.35938 186.70312 193.70312 186.46875Q194.0625 186.23438 194.26562 185.85938Q194.48438 185.48438 194.59375 185.04688L194.59375 183.64062Q194.53125 183.3125 194.39062 183.01562Q194.26562 182.71875 194.0625 182.48438Q193.85938 182.23438 193.54688 182.09375Q193.25 181.95312 192.82812 181.95312Q192.39062 181.95312 192.0625 182.14062Q191.75 182.32812 191.54688 182.65625Q191.34375 182.96875 191.25 183.39062Q191.15625 183.79688 191.15625 184.28125ZM199.95312 187.625Q199.29688 187.625 198.75 187.40625Q198.21875 187.17188 197.82812 186.76562Q197.45312 186.34375 197.25 185.78125Q197.04688 185.21875 197.04688 184.54688L197.04688 184.3125Q197.04688 183.53125 197.26562 182.92188Q197.5 182.3125 197.89062 181.89062Q198.28125 181.46875 198.78125 181.26562Q199.28125 181.04688 199.8125 181.04688Q200.5 181.04688 200.98438 181.28125Q201.48438 181.51562 201.79688 181.9375Q202.125 182.34375 202.26562 182.92188Q202.42188 183.48438 202.42188 184.14062L202.42188 184.64062L197.6875 184.64062L197.6875 183.75L201.34375 183.75L201.34375 183.67188Q201.3125 183.25 201.15625 182.85938Q201.01562 182.45312 200.6875 182.20312Q200.375 181.9375 199.8125 181.9375Q199.45312 181.9375 199.14062 182.09375Q198.82812 182.25 198.59375 182.5625Q198.375 182.85938 198.25 183.29688Q198.14062 183.73438 198.14062 184.3125L198.14062 184.54688Q198.14062 185.0 198.26562 185.40625Q198.39062 185.79688 198.625 186.09375Q198.875 186.39062 199.21875 186.5625Q199.57812 186.73438 200.01562 186.73438Q200.59375 186.73438 200.98438 186.5Q201.39062 186.26562 201.6875 185.875L202.34375 186.39062Q202.14062 186.70312 201.8125 186.98438Q201.5 187.26562 201.03125 187.45312Q200.57812 187.625 199.95312 187.625Z" fill-rule="nonzero"/><path stroke="#cccccc" stroke-width="1.0" stroke-linecap="butt" d="M365.0 290.0L365.0 101.0" fill-rule="nonzero"/><path stroke="#ff0000" stroke-width="2.0" stroke-linecap="butt" stroke-opacity="0.7019608" stroke-dasharray="8.0,6.0,2.0,6.0" d="M365.0 134.0L443.0 245.0L435.0 330.0L365.0 351.0L340.0 304.0L316.0 262.0Z" fill-rule="nonzero"/><path fill="#ff0000" fill-opacity="0.7019608" d="M365.0 129.5L368.89713 131.75L368.89713 136.25L365.0 138.5L361.10287 136.25L361.10287 131.75Z" fill-rule="nonzero"/><path fill="#ff0000" fill-opacity="0.7019608" d="M443.0 240.5L446.89713 242.75L446.89713 247.25L443.0 249.5L439.10287 247.25L439.10287 242.75Z" fill-rule="nonzero"/><path fill="#ff0000" fill-opacity="0.7019608" d="M435.0 325.5L438.89713 327.75L438.89713 332.25L435.0 334.5L431.10287 332.25L431.10287 327.75Z" fill-rule="nonzero"/><path fill="#ff0000" fill-opacity="0.7019608" d="M365.0 346.5L368.89713 348.75L368.89713 353.25L365.0 355.5L361.10287 353.25L361.10287 348.75Z" fill-rule="nonzero"/><path fill="#ff0000" fill-opacity="0.7019608" d="M340.0 299.5L343.89713 301.75L343.89713 306.25L340.0 308.5L336.10287 306.25L336.10287 301.75Z" fill-rule="nonzero"/><path fill="#ff0000" fill-opacity="0.7019608" d="M316.0 257.5L319.89713 259.75L319.89713 264.25L316.0 266.5L312.10287 264.25L312.10287 259.75Z" fill-rule="nonzero"/><path fill="#757575" d="M39.665627 39.884377L41.55625 40.353127Q40.9625 42.696877 39.415627 43.93125Q37.86875 45.15 35.61875 45.15Q33.30625 45.15 31.853125 44.2125Q30.415625 43.259377 29.65 41.478127Q28.9 39.68125 28.9 37.634377Q28.9 35.4 29.74375 33.74375Q30.603125 32.071877 32.18125 31.212502Q33.759377 30.337502 35.65 30.337502Q37.80625 30.337502 39.259377 31.431252Q40.728127 32.525 41.30625 34.509377L39.446877 34.946877Q38.946877 33.384377 37.99375 32.68125Q37.05625 31.962502 35.61875 31.962502Q33.9625 31.962502 32.853127 32.759377Q31.74375 33.540627 31.290625 34.884377Q30.853125 36.2125 30.853125 37.61875Q30.853125 39.446877 31.384375 40.821877Q31.915625 42.18125 33.040627 42.853127Q34.165627 43.525 35.4625 43.525Q37.05625 43.525 38.165627 42.603127Q39.275 41.68125 39.665627 39.884377ZM43.2125 44.9L43.2125 30.587502L44.978127 30.587502L44.978127 35.7125Q46.2125 34.290627 48.0875 34.290627Q49.228127 34.290627 50.071877 34.74375Q50.93125 35.196877 51.290627 36.009377Q51.665627 36.80625 51.665627 38.321877L51.665627 44.9L49.915627 44.9L49.915627 38.321877Q49.915627 37.009377 49.3375 36.415627Q48.759377 35.80625 47.728127 35.80625Q46.946877 35.80625 46.24375 36.2125Q45.55625 36.61875 45.259377 37.321877Q44.978127 38.009377 44.978127 39.228127L44.978127 44.9L43.2125 44.9ZM60.321877 41.55625L62.134377 41.790627Q61.7125 43.36875 60.540627 44.259377Q59.384377 45.134377 57.571877 45.134377Q55.30625 45.134377 53.9625 43.74375Q52.634377 42.3375 52.634377 39.80625Q52.634377 37.18125 53.978127 35.74375Q55.321877 34.290627 57.478127 34.290627Q59.55625 34.290627 60.86875 35.7125Q62.196877 37.11875 62.196877 39.696877Q62.196877 39.853127 62.18125 40.165627L54.446877 40.165627Q54.540627 41.86875 55.415627 42.775Q56.290627 43.68125 57.5875 43.68125Q58.55625 43.68125 59.228127 43.18125Q59.915627 42.665627 60.321877 41.55625ZM54.540627 38.7125L60.3375 38.7125Q60.228127 37.415627 59.68125 36.759377Q58.8375 35.74375 57.49375 35.74375Q56.290627 35.74375 55.4625 36.55625Q54.634377 37.353127 54.540627 38.7125ZM64.2125 44.9L64.2125 34.525L65.79063 34.525L65.79063 35.978127Q66.275 35.228127 67.0875 34.759377Q67.9 34.290627 68.93125 34.290627Q70.0875 34.290627 70.82188 34.775Q71.55625 35.24375 71.86875 36.103127Q73.10313 34.290627 75.07188 34.290627Q76.61875 34.290627 77.44688 35.15Q78.275 36.009377 78.275 37.775L78.275 44.9L76.525 44.9L76.525 38.36875Q76.525 37.30625 76.35313 36.853127Q76.18125 36.384377 75.72813 36.103127Q75.29063 35.821877 74.68125 35.821877Q73.5875 35.821877 72.85313 36.55625Q72.13438 37.275 72.13438 38.86875L72.13438 44.9L70.38438 44.9L70.38438 38.165627Q70.38438 36.99375 69.94688 36.415627Q69.525 35.821877 68.54063 35.821877Q67.80625 35.821877 67.16563 36.2125Q66.54063 36.603127 66.25938 37.353127Q65.97813 38.103127 65.97813 39.525L65.97813 44.9L64.2125 44.9ZM86.94688 44.9L86.94688 43.5875Q85.9625 45.134377 84.04063 45.134377Q82.80625 45.134377 81.75938 44.446877Q80.72813 43.759377 80.15 42.540627Q79.5875 41.321877 79.5875 39.728127Q79.5875 38.165627 80.10313 36.9Q80.61875 35.634377 81.65 34.9625Q82.69688 34.290627 83.9625 34.290627Q84.9 34.290627 85.63438 34.696877Q86.36875 35.0875 86.8375 35.7125L86.8375 30.587502L88.57188 30.587502L88.57188 44.9L86.94688 44.9ZM81.38438 39.728127Q81.38438 41.7125 82.22813 42.696877Q83.07188 43.68125 84.2125 43.68125Q85.36875 43.68125 86.16563 42.74375Q86.97813 41.80625 86.97813 39.86875Q86.97813 37.74375 86.15 36.74375Q85.3375 35.74375 84.13438 35.74375Q82.9625 35.74375 82.16563 36.7125Q81.38438 37.665627 81.38438 39.728127ZM90.57188 39.7125Q90.57188 36.8375 92.16563 35.446877Q93.50938 34.290627 95.43125 34.290627Q97.57188 34.290627 98.91563 35.696877Q100.275 37.103127 100.275 39.571877Q100.275 41.571877 99.68125 42.728127Q99.0875 43.86875 97.93125 44.509377Q96.79063 45.134377 95.43125 45.134377Q93.24375 45.134377 91.9 43.74375Q90.57188 42.3375 90.57188 39.7125ZM92.36875 39.7125Q92.36875 41.7125 93.22813 42.696877Q94.10313 43.68125 95.43125 43.68125Q96.74375 43.68125 97.60313 42.696877Q98.47813 41.696877 98.47813 39.65Q98.47813 37.728127 97.60313 36.74375Q96.72813 35.74375 95.43125 35.74375Q94.10313 35.74375 93.22813 36.74375Q92.36875 37.728127 92.36875 39.7125ZM101.9 45.759377L103.60313 46.009377Q103.7125 46.80625 104.19688 47.165627Q104.85313 47.65 105.99375 47.65Q107.2125 47.65 107.86875 47.165627Q108.54063 46.68125 108.775 45.80625Q108.91563 45.259377 108.9 43.540627Q107.74375 44.9 106.025 44.9Q103.88438 44.9 102.7125 43.353127Q101.54063 41.80625 101.54063 39.65Q101.54063 38.165627 102.07188 36.915627Q102.61875 35.665627 103.63438 34.978127Q104.66563 34.290627 106.04063 34.290627Q107.86875 34.290627 109.07188 35.775L109.07188 34.525L110.68125 34.525L110.68125 43.49375Q110.68125 45.915627 110.18125 46.915627Q109.69688 47.93125 108.61875 48.509377Q107.55625 49.103127 105.99375 49.103127Q104.15 49.103127 102.99375 48.275Q101.85313 47.446877 101.9 45.759377ZM103.35313 39.525Q103.35313 41.571877 104.16563 42.509377Q104.97813 43.446877 106.19688 43.446877Q107.4 43.446877 108.2125 42.509377Q109.04063 41.571877 109.04063 39.5875Q109.04063 37.68125 108.19688 36.7125Q107.35313 35.74375 106.16563 35.74375Q104.99375 35.74375 104.16563 36.696877Q103.35313 37.65 103.35313 39.525Z" fill-rule="nonzero"/></svg>