<svg version="1.1" viewBox="0.0 0.0 730.0 538.0" fill="none" stroke="none" stroke-linecap="square" stroke-miterlimit="10" width="730" height="538" xmlns:xlink="http://www.w3.org/1999/xlink" xmlns="http://www.w3.org/2000/svg"><path fill="#ffffff" d="M0 0L730.0 0L730.0 538.0L0 538.0L0 0Z" fill-rule="nonzero"/><path fill="#ffffff" d="M26.9 68.833336L703.10004 68.833336L703.10004 511.1L26.9 511.1L26.9 68.833336Z" fill-rule="nonzero"/><path stroke="#cccccc" stroke-width="1.0" stroke-linecap="butt" d="M365.0 290.0C365.0 290.0 365.0 290.0 365.0 290.0C365.0 290.0 365.0 290.0 365.0 290.0C365.0 290.0 365.0 290.0 365.0 290.0C365.0 290.0 365.0 290.0 365.0 290.0" fill-rule="nonzero"/><path fill="#000000" d="M353.0625 282.04688L353.0625 283.35938Q353.0625 284.40625 352.875 285.125Q352.6875 285.84375 352.32812 286.28125Q351.98438 286.71875 351.48438 286.92188Q351.0 287.125 350.375 287.125Q349.89062 287.125 349.46875 287.0Q349.04688 286.875 348.71875 286.60938Q348.39062 286.32812 348.15625 285.89062Q347.92188 285.45312 347.79688 284.82812Q347.67188 284.1875 347.67188 283.35938L347.67188 282.04688Q347.67188 281.0 347.85938 280.29688Q348.0625 279.59375 348.40625 279.15625Q348.76562 278.71875 349.25 278.53125Q349.75 278.34375 350.35938 278.34375Q350.85938 278.34375 351.28125 278.46875Q351.70312 278.59375 352.03125 278.85938Q352.35938 279.10938 352.57812 279.54688Q352.8125 279.96875 352.9375 280.59375Q353.0625 281.21875 353.0625 282.04688ZM351.96875 283.53125L351.96875 281.875Q351.96875 281.29688 351.90625 280.85938Q351.84375 280.42188 351.70312 280.10938Q351.57812 279.79688 351.375 279.60938Q351.1875 279.42188 350.9375 279.32812Q350.6875 279.23438 350.35938 279.23438Q349.98438 279.23438 349.67188 279.375Q349.375 279.51562 349.17188 279.82812Q348.96875 280.14062 348.85938 280.65625Q348.76562 281.15625 348.76562 281.875L348.76562 283.53125Q348.76562 284.10938 348.82812 284.54688Q348.90625 284.98438 349.03125 285.3125Q349.17188 285.625 349.35938 285.82812Q349.5625 286.03125 349.8125 286.125Q350.0625 286.21875 350.375 286.21875Q350.78125 286.21875 351.07812 286.07812Q351.375 285.92188 351.57812 285.59375Q351.78125 285.26562 351.875 284.76562Q351.96875 284.25 351.96875 283.53125ZM355.8125 285.70312L355.8125 286.57812Q355.8125 287.125 355.53125 287.71875Q355.26562 288.3125 354.78125 288.70312L354.17188 288.28125Q354.35938 288.01562 354.48438 287.75Q354.60938 287.48438 354.67188 287.20312Q354.75 286.92188 354.75 286.59375L354.75 285.70312L355.8125 285.70312ZM362.0625 282.04688L362.0625 283.35938Q362.0625 284.40625 361.875 285.125Q361.6875 285.84375 361.32812 286.28125Q360.98438 286.71875 360.48438 286.92188Q360.0 287.125 359.375 287.125Q358.89062 287.125 358.46875 287.0Q358.04688 286.875 357.71875 286.60938Q357.39062 286.32812 357.15625 285.89062Q356.92188 285.45312 356.79688 284.82812Q356.67188 284.1875 356.67188 283.35938L356.67188 282.04688Q356.67188 281.0 356.85938 280.29688Q357.0625 279.59375 357.40625 279.15625Q357.76562 278.71875 358.25 278.53125Q358.75 278.34375 359.35938 278.34375Q359.85938 278.34375 360.28125 278.46875Q360.70312 278.59375 361.03125 278.85938Q361.35938 279.10938 361.57812 279.54688Q361.8125 279.96875 361.9375 280.59375Q362.0625 281.21875 362.0625 282.04688ZM360.96875 283.53125L360.96875 281.875Q360.96875 281.29688 360.90625 280.85938Q360.84375 280.42188 360.70312 280.10938Q360.57812 279.79688 360.375 279.60938Q360.1875 279.42188 359.9375 279.32812Q359.6875 279.23438 359.35938 279.23438Q358.98438 279.23438 358.67188 279.375Q358.375 279.51562 358.17188 279.82812Q357.96875 280.14062 357.85938 280.65625Q357.76562 281.15625 357.76562 281.875L357.76562 283.53125Q357.76562 284.10938 357.82812 284.54688Q357.90625 284.98438 358.03125 285.3125Q358.17188 285.625 358.35938 285.82812Q358.5625 286.03125 358.8125 286.125Q359.0625 286.21875 359.375 286.21875Q359.78125 286.21875 360.07812 286.07812Q360.375 285.92188 360.57812 285.59375Q360.78125 285.26562 360.875 284.76562Q360.96875 284.25 360.96875 283.53125Z" fill-rule="nonzero"/><path stroke="#cccccc" stroke-width="1.0" stroke-linecap="butt" d="M412.28333 290.0C412.28333 263.88614 391.11386 242.71666 365.0 242.71666C338.88614 242.71666 317.71667 263.88614 317.71667 290.0C317.71667 316.11386 338.88614 337.28333 365.0 337.28333C391.11386 337.28333 412.28333 316.11386 412.28333 290.0" fill-rule="nonzero"/><path fill="#000000" d="M353.0625 234.76353L353.0625 236.07603Q353.0625 237.12291 352.875 237.84166Q352.6875 238.56041 352.32812 238.99791Q351.98438 239.43541 351.48438 239.63853Q351.0 239.84166 350.375 239.84166Q349.89062 239.84166 349.46875 239.71666Q349.04688 239.59166 348.71875 239.32603Q348.39062 239.04478 348.15625 238.60728Q347.92188 238.16978 347.79688 237.54478Q347.67188 236.90416 347.67188 236.07603L347.67188 234.76353Q347.67188 233.71666 347.85938 233.01353Q348.0625 232.31041 348.40625 231.87291Q348.76562 231.43541 349.25 231.24791Q349.75 231.06041 350.35938 231.06041Q350.85938 231.06041 351.28125 231.18541Q351.70312 231.31041 352.03125 231.57603Q352.35938 231.82603 352.57812 232.26353Q352.8125 232.68541 352.9375 233.31041Q353.0625 233.93541 353.0625 234.76353ZM351.96875 236.24791L351.96875 234.59166Q351.96875 234.01353 351.90625 233.57603Q351.84375 233.13853 351.70312 232.82603Q351.57812 232.51353 351.375 232.32603Q351.1875 232.13853 350.9375 232.04478Q350.6875 231.95103 350.35938 231.95103Q349.98438 231.95103 349.67188 232.09166Q349.375 232.23228 349.17188 232.54478Q348.96875 232.85728 348.85938 233.37291Q348.76562 233.87291 348.76562 234.59166L348.76562 236.24791Q348.76562 236.82603 348.82812 237.26353Q348.90625 237.70103 349.03125 238.02916Q349.17188 238.34166 349.35938 238.54478Q349.5625 238.74791 349.8125 238.84166Q350.0625 238.93541 350.375 238.93541Q350.78125 238.93541 351.07812 238.79478Q351.375 238.63853 351.57812 238.31041Q351.78125 237.98228 351.875 237.48228Q351.96875 236.96666 351.96875 236.24791ZM355.8125 238.41978L355.8125 239.29478Q355.8125 239.84166 355.53125 240.43541Q355.26562 241.02916 354.78125 241.41978L354.17188 240.99791Q354.35938 240.73228 354.48438 240.46666Q354.60938 240.20103 354.67188 239.91978Q354.75 239.63853 354.75 239.31041L354.75 238.41978L355.8125 238.41978ZM360.26562 231.13853L360.26562 239.71666L359.1875 239.71666L359.1875 232.49791L357.0 233.29478L357.0 232.31041L360.10938 231.13853L360.26562 231.13853Z" fill-rule="nonzero"/><path stroke="#cccccc" stroke-width="1.0" stroke-linecap="butt" d="M459.56668 290.0C459.56668 237.77228 417.22772 195.43333 365.0 195.43333C312.77228 195.43333 270.43332 237.77228 270.43332 290.0C270.43332 342.22772 312.77228 384.56668 365.0 384.56668C417.22772 384.56668 459.56668 342.22772 459.56668 290.0" fill-rule="nonzero"/><path fill="#000000" d="M353.0625 187.48021L353.0625 188.79271Q353.0625 189.83958 352.875 190.55833Q352.6875 191.27708 352.32812 191.71458Q351.98438 192.15208 351.48438 192.35521Q351.0 192.55833 350.375 192.55833Q349.89062 192.55833 349.46875 192.43333Q349.04688 192.30833 348.71875 192.04271Q348.39062 191.76146 348.15625 191.32396Q347.92188 190.88646 347.79688 190.26146Q347.67188 189.62083 347.67188 188.79271L347.67188 187.48021Q347.67188 186.43333 347.85938 185.73021Q348.0625 185.02708 348.40625 184.58958Q348.76562 184.15208 349.25 183.96458Q349.75 183.77708 350.35938 183.77708Q350.85938 183.77708 351.28125 183.90208Q351.70312 184.02708 352.03125 184.29271Q352.35938 184.54271 352.57812 184.98021Q352.8125 185.40208 352.9375 186.02708Q353.0625 186.65208 353.0625 187.48021ZM351.96875 188.96458L351.96875 187.30833Q351.96875 186.73021 351.90625 186.29271Q351.84375 185.85521 351.70312 185.54271Q351.57812 185.23021 351.375 185.04271Q351.1875 184.85521 350.9375 184.76146Q350.6875 184.66771 350.35938 184.66771Q349.98438 184.66771 349.67188 184.80833Q349.375 184.94896 349.17188 185.26146Q348.96875 185.57396 348.85938 186.08958Q348.76562 186.58958 348.76562 187.30833L348.76562 188.96458Q348.76562 189.54271 348.82812 189.98021Q348.90625 190.41771 349.03125 190.74583Q349.17188 191.05833 349.35938 191.26146Q349.5625 191.46458 349.8125 191.55833Q350.0625 191.65208 350.375 191.65208Q350.78125 191.65208 351.07812 191.51146Q351.375 191.35521 351.57812 191.02708Q351.78125 190.69896 351.875 190.19896Q351.96875 189.68333 351.96875 188.96458ZM355.8125 191.13646L355.8125 192.01146Q355.8125 192.55833 355.53125 193.15208Q355.26562 193.74583 354.78125 194.13646L354.17188 193.71458Q354.35938 193.44896 354.48438 193.18333Q354.60938 192.91771 354.67188 192.63646Q354.75 192.35521 354.75 192.02708L354.75 191.13646L355.8125 191.13646ZM362.29688 191.54271L362.29688 192.43333L356.71875 192.43333L356.71875 191.65208L359.51562 188.54271Q360.03125 187.96458 360.3125 187.57396Q360.59375 187.16771 360.70312 186.85521Q360.82812 186.52708 360.82812 186.19896Q360.82812 185.77708 360.65625 185.43333Q360.48438 185.08958 360.14062 184.88646Q359.8125 184.66771 359.32812 184.66771Q358.76562 184.66771 358.39062 184.90208Q358.01562 185.12083 357.82812 185.51146Q357.64062 185.90208 357.64062 186.40208L356.54688 186.40208Q356.54688 185.68333 356.85938 185.08958Q357.1875 184.49583 357.79688 184.13646Q358.42188 183.77708 359.32812 183.77708Q360.14062 183.77708 360.71875 184.07396Q361.29688 184.35521 361.59375 184.87083Q361.90625 185.37083 361.90625 186.05833Q361.90625 186.43333 361.78125 186.82396Q361.65625 187.19896 361.4375 187.58958Q361.21875 187.96458 360.92188 188.33958Q360.64062 188.69896 360.3125 189.05833L358.01562 191.54271L362.29688 191.54271Z" fill-rule="nonzero"/><path stroke="#cccccc" stroke-width="1.0" stroke-linecap="butt" d="M506.85 290.0C506.85 211.6584 443.34158 148.15 365.0 148.15C286.65842 148.15 223.15 211.6584 223.15 290.0C223.15 368.34158 286.65842 431.85 365.0 431.85C443.34158 431.85 506.85 368.34158 506.85 290.0" fill-rule="nonzero"/><path fill="#000000" d="M353.0625 140.19687L353.0625 141.50937Q353.0625 142.55624 352.875 143.275Q352.6875 143.99374 352.32812 144.43124Q351.98438 144.86874 351.48438 145.07187Q351.0 145.275 350.375 145.275Q349.89062 145.275 349.46875 145.15Q349.04688 145.025 348.71875 144.75937Q348.39062 144.47812 348.15625 144.04062Q347.92188 143.60312 347.79688 142.97812Q347.67188 142.3375 347.67188 141.50937L347.67188 140.19687Q347.67188 139.15 347.85938 138.44687Q348.0625 137.74374 348.40625 137.30624Q348.76562 136.86874 349.25 136.68124Q349.75 136.49374 350.35938 136.49374Q350.85938 136.49374 351.28125 136.61874Q351.70312 136.74374 352.03125 137.00937Q352.35938 137.25937 352.57812 137.69687Q352.8125 138.11874 352.9375 138.74374Q353.0625 139.36874 353.0625 140.19687ZM351.96875 141.68124L351.96875 140.025Q351.96875 139.44687 351.90625 139.00937Q351.84375 138.57187 351.70312 138.25937Q351.57812 137.94687 351.375 137.75937Q351.1875 137.57187 350.9375 137.47812Q350.6875 137.38437 350.35938 137.38437Q349.98438 137.38437 349.67188 137.525Q349.375 137.66562 349.17188 137.97812Q348.96875 138.29062 348.85938 138.80624Q348.76562 139.30624 348.76562 140.025L348.76562 141.68124Q348.76562 142.25937 348.82812 142.69687Q348.90625 143.13437 349.03125 143.4625Q349.17188 143.775 349.35938 143.97812Q349.5625 144.18124 349.8125 144.275Q350.0625 144.36874 350.375 144.36874Q350.78125 144.36874 351.07812 144.22812Q351.375 144.07187 351.57812 143.74374Q351.78125 143.41562 351.875 142.91562Q351.96875 142.4 351.96875 141.68124ZM355.8125 143.85312L355.8125 144.72812Q355.8125 145.275 355.53125 145.86874Q355.26562 146.4625 354.78125 146.85312L354.17188 146.43124Q354.35938 146.16562 354.48438 145.9Q354.60938 145.63437 354.67188 145.35312Q354.75 145.07187 354.75 144.74374L354.75 143.85312L355.8125 143.85312ZM358.29688 140.35312L359.0625 140.35312Q359.64062 140.35312 360.0 140.16562Q360.375 139.9625 360.5625 139.63437Q360.75 139.30624 360.75 138.88437Q360.75 138.4 360.57812 138.07187Q360.42188 137.72812 360.09375 137.55624Q359.76562 137.38437 359.26562 137.38437Q358.79688 137.38437 358.45312 137.57187Q358.10938 137.74374 357.90625 138.07187Q357.71875 138.4 357.71875 138.85312L356.625 138.85312Q356.625 138.19687 356.95312 137.66562Q357.28125 137.13437 357.875 136.82187Q358.46875 136.49374 359.26562 136.49374Q360.03125 136.49374 360.60938 136.775Q361.1875 137.04062 361.51562 137.5875Q361.84375 138.11874 361.84375 138.91562Q361.84375 139.24374 361.6875 139.60312Q361.53125 139.9625 361.21875 140.29062Q360.90625 140.60312 360.40625 140.80624Q359.92188 141.00937 359.21875 141.00937L358.29688 141.00937L358.29688 140.35312ZM358.29688 141.24374L358.29688 140.5875L359.21875 140.5875Q360.03125 140.5875 360.5625 140.79062Q361.09375 140.97812 361.40625 141.30624Q361.71875 141.61874 361.84375 142.00937Q361.96875 142.38437 361.96875 142.775Q361.96875 143.36874 361.76562 143.8375Q361.5625 144.29062 361.1875 144.61874Q360.82812 144.93124 360.32812 145.10312Q359.84375 145.275 359.26562 145.275Q358.70312 145.275 358.21875 145.11874Q357.73438 144.94687 357.35938 144.65Q356.98438 144.35312 356.76562 143.91562Q356.5625 143.4625 356.5625 142.9L357.64062 142.9Q357.64062 143.3375 357.82812 143.68124Q358.03125 144.00937 358.39062 144.19687Q358.76562 144.36874 359.26562 144.36874Q359.76562 144.36874 360.125 144.19687Q360.48438 144.025 360.67188 143.68124Q360.875 143.32187 360.875 142.79062Q360.875 142.25937 360.65625 141.91562Q360.4375 141.57187 360.01562 141.41562Q359.60938 141.24374 359.0625 141.24374L358.29688 141.24374Z" fill-rule="nonzero"/><path stroke="#cccccc" stroke-width="1.0" stroke-linecap="butt" d="M554.13336 290.0C554.13336 185.54454 469.45544 100.86667 365.0 100.86667C260.54456 100.86667 175.86667 185.54454 175.86667 290.0C175.86667 394.45544 260.54456 479.13333 365.0 479.13333C469.45544 479.13333 554.13336 394.45544 554.13336 290.0" fill-rule="nonzero"/><path fill="#000000" d="M353.0625 92.91354L353.0625 94.22604Q353.0625 95.27292 352.875 95.99167Q352.6875 96.71042 352.32812 97.14792Q351.98438 97.58542 351.48438 97.78854Q351.0 97.99167 350.375 97.99167Q349.89062 97.99167 349.46875 97.86667Q349.04688 97.74167 348.71875 97.47604Q348.39062 97.19479 348.15625 96.75729Q347.92188 96.31979 347.79688 95.69479Q347.67188 95.05417 347.67188 94.22604L347.67188 92.91354Q347.67188 91.86667 347.85938 91.16354Q348.0625 90.46042 348.40625 90.02292Q348.76562 89.58542 349.25 89.39792Q349.75 89.21042 350.35938 89.21042Q350.85938 89.21042 351.28125 89.33542Q351.70312 89.46042 352.03125 89.72604Q352.35938 89.97604 352.57812 90.41354Q352.8125 90.83542 352.9375 91.46042Q353.0625 92.08542 353.0625 92.91354ZM351.96875 94.39792L351.96875 92.74167Q351.96875 92.16354 351.90625 91.72604Q351.84375 91.28854 351.70312 90.97604Q351.57812 90.66354 351.375 90.47604Q351.1875 90.28854 350.9375 90.19479Q350.6875 90.10104 350.35938 90.10104Q349.98438 90.10104 349.67188 90.24167Q349.375 90.38229 349.17188 90.69479Q348.96875 91.00729 348.85938 91.52292Q348.76562 92.02292 348.76562 92.74167L348.76562 94.39792Q348.76562 94.97604 348.82812 95.41354Q348.90625 95.85104 349.03125 96.17917Q349.17188 96.49167 349.35938 96.69479Q349.5625 96.89792 349.8125 96.99167Q350.0625 97.08542 350.375 97.08542Q350.78125 97.08542 351.07812 96.94479Q351.375 96.78854 351.57812 96.46042Q351.78125 96.13229 351.875 95.63229Q351.96875 95.11667 351.96875 94.39792ZM355.8125 96.56979L355.8125 97.44479Q355.8125 97.99167 355.53125 98.58542Q355.26562 99.17917 354.78125 99.56979L354.17188 99.14792Q354.35938 98.88229 354.48438 98.61667Q354.60938 98.35104 354.67188 98.06979Q354.75 97.78854 354.75 97.46042L354.75 96.56979L355.8125 96.56979ZM362.46875 94.99167L362.46875 95.88229L356.3125 95.88229L356.3125 95.24167L360.125 89.33542L361.01562 89.33542L360.0625 91.03854L357.54688 94.99167L362.46875 94.99167ZM361.28125 89.33542L361.28125 97.86667L360.20312 97.86667L360.20312 89.33542L361.28125 89.33542Z" fill-rule="nonzero"/><path stroke="#cccccc" stroke-width="1.0" stroke-linecap="butt" d="M365.0 290.0L365.0 101.0" fill-rule="nonzero"/><path fill="#000000" d="M347.67188 81.578125L347.67188 82.5L343.40625 82.5L343.40625 81.578125L347.67188 81.578125ZM343.625 73.96875L343.625 82.5L342.48438 82.5L342.48438 73.96875L343.625 73.96875ZM349.5 76.15625L349.5 82.5L348.42188 82.5L348.42188 76.15625L349.5 76.15625ZM348.32812 74.484375Q348.32812 74.21875 348.48438 74.03125Q348.65625 73.84375 348.96875 73.84375Q349.28125 73.84375 349.4375 74.03125Q349.60938 74.21875 349.60938 74.484375Q349.60938 74.734375 349.4375 74.921875Q349.28125 75.09375 348.96875 75.09375Q348.65625 75.09375 348.48438 74.921875Q348.32812 74.734375 348.32812 74.484375ZM352.40625 77.421875L352.40625 82.5L351.3125 82.5L351.3125 76.15625L352.34375 76.15625L352.40625 77.421875ZM352.1875 79.09375L351.67188 79.078125Q351.6875 78.421875 351.84375 77.875Q352.01562 77.3125 352.32812 76.90625Q352.65625 76.5 353.14062 76.28125Q353.625 76.046875 354.25 76.046875Q354.70312 76.046875 355.07812 76.171875Q355.45312 76.296875 355.71875 76.5625Q356.0 76.828125 356.14062 77.25Q356.29688 77.671875 356.29688 78.28125L356.29688 82.5L355.21875 82.5L355.21875 78.328125Q355.21875 77.828125 355.04688 77.53125Q354.89062 77.234375 354.57812 77.09375Q354.28125 76.953125 353.85938 76.953125Q353.39062 76.953125 353.0625 77.125Q352.73438 77.296875 352.54688 77.59375Q352.35938 77.890625 352.26562 78.28125Q352.1875 78.65625 352.1875 79.09375ZM356.29688 78.484375L355.5625 78.71875Q355.5625 78.1875 355.73438 77.71875Q355.90625 77.234375 356.21875 76.859375Q356.54688 76.484375 357.01562 76.265625Q357.48438 76.046875 358.07812 76.046875Q358.59375 76.046875 358.98438 76.1875Q359.39062 76.3125 359.65625 76.59375Q359.92188 76.875 360.0625 77.3125Q360.20312 77.734375 360.20312 78.328125L360.20312 82.5L359.125 82.5L359.125 78.328125Q359.125 77.78125 358.95312 77.5Q358.78125 77.203125 358.48438 77.078125Q358.1875 76.953125 357.76562 76.953125Q357.40625 76.953125 357.125 77.078125Q356.85938 77.203125 356.67188 77.421875Q356.48438 77.625 356.39062 77.90625Q356.29688 78.1875 356.29688 78.484375ZM362.04688 79.40625L362.04688 79.265625Q362.04688 78.578125 362.23438 78.0Q362.4375 77.40625 362.8125 76.96875Q363.1875 76.53125 363.71875 76.296875Q364.25 76.046875 364.92188 76.046875Q365.57812 76.046875 366.10938 76.296875Q366.65625 76.53125 367.03125 76.96875Q367.40625 77.40625 367.60938 78.0Q367.8125 78.578125 367.8125 79.265625L367.8125 79.40625Q367.8125 80.078125 367.60938 80.671875Q367.40625 81.25 367.03125 81.6875Q366.65625 82.125 366.125 82.375Q365.59375 82.625 364.92188 82.625Q364.26562 82.625 363.71875 82.375Q363.1875 82.125 362.8125 81.6875Q362.4375 81.25 362.23438 80.671875Q362.04688 80.078125 362.04688 79.40625ZM363.125 79.265625L363.125 79.40625Q363.125 79.875 363.23438 80.296875Q363.34375 80.71875 363.5625 81.046875Q363.79688 81.359375 364.14062 81.546875Q364.48438 81.71875 364.92188 81.71875Q365.375 81.71875 365.70312 81.546875Q366.04688 81.359375 366.26562 81.046875Q366.5 80.71875 366.60938 80.296875Q366.71875 79.875 366.71875 79.40625L366.71875 79.265625Q366.71875 78.796875 366.60938 78.375Q366.5 77.953125 366.26562 77.640625Q366.04688 77.3125 365.70312 77.125Q365.375 76.9375 364.92188 76.9375Q364.46875 76.9375 364.125 77.125Q363.79688 77.3125 363.5625 77.640625Q363.34375 77.953125 363.23438 78.375Q363.125 78.796875 363.125 79.265625ZM370.40625 77.515625L370.40625 82.5L369.32812 82.5L369.32812 76.15625L370.35938 76.15625L370.40625 77.515625ZM370.15625 79.09375L369.70312 79.078125Q369.70312 78.421875 369.89062 77.875Q370.07812 77.3125 370.42188 76.90625Q370.76562 76.5 371.23438 76.28125Q371.70312 76.046875 372.28125 76.046875Q372.75 76.046875 373.125 76.171875Q373.5 76.296875 373.76562 76.578125Q374.03125 76.84375 374.17188 77.28125Q374.3125 77.71875 374.3125 78.34375L374.3125 82.5L373.21875 82.5L373.21875 78.328125Q373.21875 77.828125 373.07812 77.53125Q372.9375 77.234375 372.65625 77.09375Q372.375 76.953125 371.95312 76.953125Q371.54688 76.953125 371.21875 77.125Q370.89062 77.296875 370.65625 77.59375Q370.42188 77.890625 370.28125 78.28125Q370.15625 78.65625 370.15625 79.09375ZM378.95312 82.625Q378.29688 82.625 377.75 82.40625Q377.21875 82.171875 376.82812 81.765625Q376.45312 81.34375 376.25 80.78125Q376.04688 80.21875 376.04688 79.546875L376.04688 79.3125Q376.04688 78.53125 376.26562 77.921875Q376.5 77.3125 376.89062 76.890625Q377.28125 76.46875 377.78125 76.265625Q378.28125 76.046875 378.8125 76.046875Q379.5 76.046875 379.98438 76.28125Q380.48438 76.515625 380.79688 76.9375Q381.125 77.34375 381.26562 77.921875Q381.42188 78.484375 381.42188 79.140625L381.42188 79.640625L376.6875 79.640625L376.6875 78.75L380.34375 78.75L380.34375 78.671875Q380.3125 78.25 380.15625 77.859375Q380.01562 77.453125 379.6875 77.203125Q379.375 76.9375 378.8125 76.9375Q378.45312 76.9375 378.14062 77.09375Q377.82812 77.25 377.59375 77.5625Q377.375 77.859375 377.25 78.296875Q377.14062 78.734375 377.14062 79.3125L377.14062 79.546875Q377.14062 80.0 377.26562 80.40625Q377.39062 80.796875 377.625 81.09375Q377.875 81.390625 378.21875 81.5625Q378.57812 81.734375 379.01562 81.734375Q379.59375 81.734375 379.98438 81.5Q380.39062 81.265625 380.6875 80.875L381.34375 81.390625Q381.14062 81.703125 380.8125 81.984375Q380.5 82.265625 380.03125 82.453125Q379.57812 82.625 378.95312 82.625ZM383.40625 77.515625L383.40625 82.5L382.32812 82.5L382.32812 76.15625L383.35938 76.15625L383.40625 77.515625ZM383.15625 79.09375L382.70312 79.078125Q382.70312 78.421875 382.89062 77.875Q383.07812 77.3125 383.42188 76.90625Q383.76562 76.5 384.23438 76.28125Q384.70312 76.046875 385.28125 76.046875Q385.75 76.046875 386.125 76.171875Q386.5 76.296875 386.76562 76.578125Q387.03125 76.84375 387.17188 77.28125Q387.3125 77.71875 387.3125 78.34375L387.3125 82.5L386.21875 82.5L386.21875 78.328125Q386.21875 77.828125 386.07812 77.53125Q385.9375 77.234375 385.65625 77.09375Q385.375 76.953125 384.95312 76.953125Q384.54688 76.953125 384.21875 77.125Q383.89062 77.296875 383.65625 77.59375Q383.42188 77.890625 383.28125 78.28125Q383.15625 78.65625 383.15625 79.09375Z" fill-rule="nonzero"/><path stroke="#cccccc" stroke-width="1.0" stroke-linecap="butt" d="M365.0 290.0L529.0 195.0" fill-rule="nonzero"/><path fill="#000000" d="M532.6719 187.57812L532.6719 188.5L528.40625 188.5L528.40625 187.57812L532.6719 187.57812ZM528.625 179.96875L528.625 188.5L527.4844 188.5L527.4844 179.96875L528.625 179.96875ZM534.5 182.15625L534.5 188.5L533.4219 188.5L533.4219 182.15625L534.5 182.15625ZM533.3281 180.48438Q533.3281 180.21875 533.4844 180.03125Q533.65625 179.84375 533.96875 179.84375Q534.28125 179.84375 534.4375 180.03125Q534.6094 180.21875 534.6094 180.48438Q534.6094 180.73438 534.4375 180.92188Q534.28125 181.09375 533.96875 181.09375Q533.65625 181.09375 533.4844 180.92188Q533.3281 180.73438 533.3281 180.48438ZM537.40625 183.51562L537.40625 188.5L536.3281 188.5L536.3281 182.15625L537.3594 182.15625L537.40625 183.51562ZM537.15625 185.09375L536.7031 185.07812Q536.7031 184.42188 536.8906 183.875Q537.0781 183.3125 537.4219 182.90625Q537.7656 182.5 538.2344 182.28125Q538.7031 182.04688 539.28125 182.04688Q539.75 182.04688 540.125 182.17188Q540.5 182.29688 540.7656 182.57812Q541.03125 182.84375 541.1719 183.28125Q541.3125 183.71875 541.3125 184.34375L541.3125 188.5L540.21875 188.5L540.21875 184.32812Q540.21875 183.82812 540.0781 183.53125Q539.9375 183.23438 539.65625 183.09375Q539.375 182.95312 538.9531 182.95312Q538.5469 182.95312 538.21875 183.125Q537.8906 183.29688 537.65625 183.59375Q537.4219 183.89062 537.28125 184.28125Q537.15625 184.65625 537.15625 185.09375ZM547.0625 187.42188L547.0625 184.15625Q547.0625 183.78125 546.90625 183.5Q546.7656 183.21875 546.46875 183.07812Q546.1719 182.92188 545.7344 182.92188Q545.3125 182.92188 545.0 183.0625Q544.7031 183.20312 544.53125 183.4375Q544.3594 183.65625 544.3594 183.92188L543.28125 183.92188Q543.28125 183.57812 543.4531 183.25Q543.625 182.90625 543.9531 182.64062Q544.28125 182.35938 544.75 182.20312Q545.21875 182.04688 545.7969 182.04688Q546.4844 182.04688 547.0156 182.28125Q547.5469 182.51562 547.84375 182.98438Q548.15625 183.45312 548.15625 184.15625L548.15625 187.10938Q548.15625 187.4375 548.2031 187.79688Q548.2656 188.14062 548.375 188.40625L548.375 188.5L547.2344 188.5Q547.15625 188.3125 547.1094 188.0Q547.0625 187.6875 547.0625 187.42188ZM547.25 184.65625L547.2656 185.42188L546.1719 185.42188Q545.7031 185.42188 545.34375 185.5Q544.9844 185.5625 544.7344 185.71875Q544.4844 185.85938 544.3594 186.07812Q544.2344 186.29688 544.2344 186.59375Q544.2344 186.89062 544.3594 187.14062Q544.5 187.375 544.7656 187.53125Q545.0469 187.67188 545.4375 187.67188Q545.9375 187.67188 546.3125 187.46875Q546.7031 187.25 546.9219 186.95312Q547.15625 186.64062 547.1719 186.34375L547.6406 186.875Q547.59375 187.10938 547.40625 187.42188Q547.2344 187.71875 546.9219 188.0Q546.625 188.26562 546.2031 188.45312Q545.7969 188.625 545.28125 188.625Q544.6406 188.625 544.15625 188.375Q543.6719 188.10938 543.40625 187.6875Q543.1406 187.26562 543.1406 186.73438Q543.1406 186.21875 543.3281 185.84375Q543.53125 185.45312 543.90625 185.1875Q544.28125 184.92188 544.8125 184.79688Q545.34375 184.65625 546.0 184.65625L547.25 184.65625ZM551.5 179.5L551.5 188.5L550.4219 188.5L550.4219 179.5L551.5 179.5ZM553.0469 185.40625L553.0469 185.26562Q553.0469 184.57812 553.2344 184.0Q553.4375 183.40625 553.8125 182.96875Q554.1875 182.53125 554.71875 182.29688Q555.25 182.04688 555.9219 182.04688Q556.5781 182.04688 557.1094 182.29688Q557.65625 182.53125 558.03125 182.96875Q558.40625 183.40625 558.6094 184.0Q558.8125 184.57812 558.8125 185.26562L558.8125 185.40625Q558.8125 186.07812 558.6094 186.67188Q558.40625 187.25 558.03125 187.6875Q557.65625 188.125 557.125 188.375Q556.59375 188.625 555.9219 188.625Q555.2656 188.625 554.71875 188.375Q554.1875 188.125 553.8125 187.6875Q553.4375 187.25 553.2344 186.67188Q553.0469 186.07812 553.0469 185.40625ZM554.125 185.26562L554.125 185.40625Q554.125 185.875 554.2344 186.29688Q554.34375 186.71875 554.5625 187.04688Q554.7969 187.35938 555.1406 187.54688Q555.4844 187.71875 555.9219 187.71875Q556.375 187.71875 556.7031 187.54688Q557.0469 187.35938 557.2656 187.04688Q557.5 186.71875 557.6094 186.29688Q557.71875 185.875 557.71875 185.40625L557.71875 185.26562Q557.71875 184.79688 557.6094 184.375Q557.5 183.95312 557.2656 183.64062Q557.0469 183.3125 556.7031 183.125Q556.375 182.9375 555.9219 182.9375Q555.46875 182.9375 555.125 183.125Q554.7969 183.3125 554.5625 183.64062Q554.34375 183.95312 554.2344 184.375Q554.125 184.79688 554.125 185.26562ZM560.0469 185.40625L560.0469 185.26562Q560.0469 184.57812 560.2344 184.0Q560.4375 183.40625 560.8125 182.96875Q561.1875 182.53125 561.71875 182.29688Q562.25 182.04688 562.9219 182.04688Q563.5781 182.04688 564.1094 182.29688Q564.65625 182.53125 565.03125 182.96875Q565.40625 183.40625 565.6094 184.0Q565.8125 184.57812 565.8125 185.26562L565.8125 185.40625Q565.8125 186.07812 565.6094 186.67188Q565.40625 187.25 565.03125 187.6875Q564.65625 188.125 564.125 188.375Q563.59375 188.625 562.9219 188.625Q562.2656 188.625 561.71875 188.375Q561.1875 188.125 560.8125 187.6875Q560.4375 187.25 560.2344 186.67188Q560.0469 186.07812 560.0469 185.40625ZM561.125 185.26562L561.125 185.40625Q561.125 185.875 561.2344 186.29688Q561.34375 186.71875 561.5625 187.04688Q561.7969 187.35938 562.1406 187.54688Q562.4844 187.71875 562.9219 187.71875Q563.375 187.71875 563.7031 187.54688Q564.0469 187.35938 564.2656 187.04688Q564.5 186.71875 564.6094 186.29688Q564.71875 185.875 564.71875 185.40625L564.71875 185.26562Q564.71875 184.79688 564.6094 184.375Q564.5 183.95312 564.2656 183.64062Q564.0469 183.3125 563.7031 183.125Q563.375 182.9375 562.9219 182.9375Q562.46875 182.9375 562.125 183.125Q561.7969 183.3125 561.5625 183.64062Q561.34375 183.95312 561.2344 184.375Q561.125 184.79688 561.125 185.26562ZM568.5 179.5L568.5 188.5L567.4219 188.5L567.4219 179.5L568.5 179.5Z" fill-rule="nonzero"/><path stroke="#cccccc" stroke-width="1.0" stroke-linecap="butt" d="M365.0 290.0L529.0 385.0" fill-rule="nonzero"/><path fill="#000000" d="M529.84375 391.96875L530.9375 391.96875L533.7344 398.92188L536.53125 391.96875L537.625 391.96875L534.15625 400.5L533.3125 400.5L529.84375 391.96875ZM529.4844 391.96875L530.4531 391.96875L530.6094 397.17188L530.6094 400.5L529.4844 400.5L529.4844 391.96875ZM537.0156 391.96875L537.9844 391.96875L537.9844 400.5L536.8594 400.5L536.8594 397.17188L537.0156 391.96875ZM541.1094 399.84375L542.875 394.15625L544.03125 394.15625L541.4844 401.48438Q541.40625 401.71875 541.25 401.98438Q541.1094 402.26562 540.8906 402.5Q540.6719 402.75 540.3594 402.90625Q540.0469 403.0625 539.6094 403.0625Q539.4844 403.0625 539.28125 403.01562Q539.0781 402.98438 539.0 402.96875L539.0 402.09375Q539.0469 402.09375 539.1406 402.09375Q539.25 402.10938 539.28125 402.10938Q539.65625 402.10938 539.90625 402.01562Q540.1719 401.92188 540.34375 401.6875Q540.53125 401.46875 540.65625 401.07812L541.1094 399.84375ZM539.8125 394.15625L541.4531 399.07812L541.7344 400.21875L540.96875 400.625L538.625 394.15625L539.8125 394.15625ZM546.40625 395.15625L546.40625 400.5L545.3281 400.5L545.3281 394.15625L546.375 394.15625L546.40625 395.15625ZM548.3906 394.125L548.3906 395.125Q548.25 395.10938 548.125 395.09375Q548.0156 395.07812 547.8594 395.07812Q547.4844 395.07812 547.1875 395.20312Q546.90625 395.3125 546.7031 395.53125Q546.5156 395.73438 546.3906 396.03125Q546.28125 396.32812 546.25 396.67188L545.9375 396.84375Q545.9375 396.26562 546.0469 395.76562Q546.1719 395.26562 546.40625 394.875Q546.65625 394.48438 547.0156 394.26562Q547.3906 394.04688 547.90625 394.04688Q548.03125 394.04688 548.1719 394.07812Q548.3281 394.09375 548.3906 394.125ZM551.8594 399.71875Q552.25 399.71875 552.5781 399.5625Q552.90625 399.40625 553.1094 399.14062Q553.3281 398.85938 553.3594 398.5L554.3906 398.5Q554.3594 399.0625 554.0 399.54688Q553.65625 400.03125 553.09375 400.32812Q552.53125 400.625 551.8594 400.625Q551.15625 400.625 550.625 400.375Q550.09375 400.10938 549.7344 399.67188Q549.3906 399.23438 549.21875 398.67188Q549.0469 398.09375 549.0469 397.45312L549.0469 397.20312Q549.0469 396.5625 549.21875 396.0Q549.3906 395.42188 549.7344 394.98438Q550.09375 394.54688 550.625 394.29688Q551.15625 394.04688 551.8594 394.04688Q552.6094 394.04688 553.15625 394.34375Q553.71875 394.64062 554.03125 395.17188Q554.3594 395.6875 554.3906 396.34375L553.3594 396.34375Q553.3281 395.95312 553.1406 395.64062Q552.9531 395.3125 552.625 395.125Q552.2969 394.9375 551.8594 394.9375Q551.3594 394.9375 551.0156 395.14062Q550.6875 395.32812 550.4844 395.65625Q550.2969 395.98438 550.2031 396.39062Q550.125 396.79688 550.125 397.20312L550.125 397.45312Q550.125 397.875 550.2031 398.28125Q550.2969 398.67188 550.4844 399.0Q550.6875 399.32812 551.0156 399.53125Q551.3594 399.71875 551.8594 399.71875ZM557.9531 400.625Q557.2969 400.625 556.75 400.40625Q556.21875 400.17188 555.8281 399.76562Q555.4531 399.34375 555.25 398.78125Q555.0469 398.21875 555.0469 397.54688L555.0469 397.3125Q555.0469 396.53125 555.2656 395.92188Q555.5 395.3125 555.8906 394.89062Q556.28125 394.46875 556.78125 394.26562Q557.28125 394.04688 557.8125 394.04688Q558.5 394.04688 558.9844 394.28125Q559.4844 394.51562 559.7969 394.9375Q560.125 395.34375 560.2656 395.92188Q560.4219 396.48438 560.4219 397.14062L560.4219 397.64062L555.6875 397.64062L555.6875 396.75L559.34375 396.75L559.34375 396.67188Q559.3125 396.25 559.15625 395.85938Q559.0156 395.45312 558.6875 395.20312Q558.375 394.9375 557.8125 394.9375Q557.4531 394.9375 557.1406 395.09375Q556.8281 395.25 556.59375 395.5625Q556.375 395.85938 556.25 396.29688Q556.1406 396.73438 556.1406 397.3125L556.1406 397.54688Q556.1406 398.0 556.2656 398.40625Q556.3906 398.79688 556.625 399.09375Q556.875 399.39062 557.21875 399.5625Q557.5781 399.73438 558.0156 399.73438Q558.59375 399.73438 558.9844 399.5Q559.3906 399.26562 559.6875 398.875L560.34375 399.39062Q560.1406 399.70312 559.8125 399.98438Q559.5 400.26562 559.03125 400.45312Q558.5781 400.625 557.9531 400.625ZM562.40625 395.51562L562.40625 400.5L561.3281 400.5L561.3281 394.15625L562.3594 394.15625L562.40625 395.51562ZM562.15625 397.09375L561.7031 397.07812Q561.7031 396.42188 561.8906 395.875Q562.0781 395.3125 562.4219 394.90625Q562.7656 394.5 563.2344 394.28125Q563.7031 394.04688 564.28125 394.04688Q564.75 394.04688 565.125 394.17188Q565.5 394.29688 565.7656 394.57812Q566.03125 394.84375 566.1719 395.28125Q566.3125 395.71875 566.3125 396.34375L566.3125 400.5L565.21875 400.5L565.21875 396.32812Q565.21875 395.82812 565.0781 395.53125Q564.9375 395.23438 564.65625 395.09375Q564.375 394.95312 563.9531 394.95312Q563.5469 394.95312 563.21875 395.125Q562.8906 395.29688 562.65625 395.59375Q562.4219 395.89062 562.28125 396.28125Q562.15625 396.65625 562.15625 397.09375Z" fill-rule="nonzero"/><path stroke="#cccccc" stroke-width="1.0" stroke-linecap="butt" d="M365.0 290.0L365.0 479.0" fill-rule="nonzero"/><path fill="#000000" d="M335.64062 503.78125L336.76562 503.78125Q336.67188 504.59375 336.29688 505.23438Q335.92188 505.875 335.23438 506.25Q334.5625 506.625 333.53125 506.625Q332.78125 506.625 332.17188 506.34375Q331.5625 506.04688 331.10938 505.53125Q330.67188 505.01562 330.4375 504.29688Q330.20312 503.5625 330.20312 502.65625L330.20312 501.8125Q330.20312 500.92188 330.4375 500.1875Q330.67188 499.45312 331.125 498.9375Q331.57812 498.40625 332.20312 498.125Q332.84375 497.84375 333.625 497.84375Q334.59375 497.84375 335.26562 498.21875Q335.9375 498.57812 336.29688 499.21875Q336.67188 499.85938 336.76562 500.70312L335.64062 500.70312Q335.5625 500.10938 335.32812 499.6875Q335.10938 499.25 334.70312 499.01562Q334.29688 498.78125 333.625 498.78125Q333.0625 498.78125 332.625 499.0Q332.20312 499.20312 331.90625 499.60938Q331.625 500.0 331.46875 500.5625Q331.32812 501.125 331.32812 501.79688L331.32812 502.65625Q331.32812 503.28125 331.45312 503.84375Q331.59375 504.39062 331.85938 504.8125Q332.125 505.21875 332.54688 505.46875Q332.96875 505.70312 333.53125 505.70312Q334.25 505.70312 334.67188 505.46875Q335.10938 505.23438 335.32812 504.8125Q335.54688 504.39062 335.64062 503.78125ZM342.0625 505.42188L342.0625 502.15625Q342.0625 501.78125 341.90625 501.5Q341.76562 501.21875 341.46875 501.07812Q341.17188 500.92188 340.73438 500.92188Q340.3125 500.92188 340.0 501.0625Q339.70312 501.20312 339.53125 501.4375Q339.35938 501.65625 339.35938 501.92188L338.28125 501.92188Q338.28125 501.57812 338.45312 501.25Q338.625 500.90625 338.95312 500.64062Q339.28125 500.35938 339.75 500.20312Q340.21875 500.04688 340.79688 500.04688Q341.48438 500.04688 342.01562 500.28125Q342.54688 500.51562 342.84375 500.98438Q343.15625 501.45312 343.15625 502.15625L343.15625 505.10938Q343.15625 505.4375 343.20312 505.79688Q343.26562 506.14062 343.375 506.40625L343.375 506.5L342.23438 506.5Q342.15625 506.3125 342.10938 506.0Q342.0625 505.6875 342.0625 505.42188ZM342.25 502.65625L342.26562 503.42188L341.17188 503.42188Q340.70312 503.42188 340.34375 503.5Q339.98438 503.5625 339.73438 503.71875Q339.48438 503.85938 339.35938 504.07812Q339.23438 504.29688 339.23438 504.59375Q339.23438 504.89062 339.35938 505.14062Q339.5 505.375 339.76562 505.53125Q340.04688 505.67188 340.4375 505.67188Q340.9375 505.67188 341.3125 505.46875Q341.70312 505.25 341.92188 504.95312Q342.15625 504.64062 342.17188 504.34375L342.64062 504.875Q342.59375 505.10938 342.40625 505.42188Q342.23438 505.71875 341.92188 506.0Q341.625 506.26562 341.20312 506.45312Q340.79688 506.625 340.28125 506.625Q339.64062 506.625 339.15625 506.375Q338.67188 506.10938 338.40625 505.6875Q338.14062 505.26562 338.14062 504.73438Q338.14062 504.21875 338.32812 503.84375Q338.53125 503.45312 338.90625 503.1875Q339.28125 502.92188 339.8125 502.79688Q340.34375 502.65625 341.0 502.65625L342.25 502.65625ZM346.40625 501.15625L346.40625 506.5L345.32812 506.5L345.32812 500.15625L346.375 500.15625L346.40625 501.15625ZM348.39062 500.125L348.39062 501.125Q348.25 501.10938 348.125 501.09375Q348.01562 501.07812 347.85938 501.07812Q347.48438 501.07812 347.1875 501.20312Q346.90625 501.3125 346.70312 501.53125Q346.51562 501.73438 346.39062 502.03125Q346.28125 502.32812 346.25 502.67188L345.9375 502.84375Q345.9375 502.26562 346.04688 501.76562Q346.17188 501.26562 346.40625 500.875Q346.65625 500.48438 347.01562 500.26562Q347.39062 500.04688 347.90625 500.04688Q348.03125 500.04688 348.17188 500.07812Q348.32812 500.09375 348.39062 500.125ZM351.10938 505.84375L352.875 500.15625L354.03125 500.15625L351.48438 507.48438Q351.40625 507.71875 351.25 507.98438Q351.10938 508.26562 350.89062 508.5Q350.67188 508.75 350.35938 508.90625Q350.04688 509.0625 349.60938 509.0625Q349.48438 509.0625 349.28125 509.01562Q349.07812 508.98438 349.0 508.96875L349.0 508.09375Q349.04688 508.09375 349.14062 508.09375Q349.25 508.10938 349.28125 508.10938Q349.65625 508.10938 349.90625 508.01562Q350.17188 507.92188 350.34375 507.6875Q350.53125 507.46875 350.65625 507.07812L351.10938 505.84375ZM349.8125 500.15625L351.45312 505.07812L351.73438 506.21875L350.96875 506.625L348.625 500.15625L349.8125 500.15625ZM355.04688 503.40625L355.04688 503.26562Q355.04688 502.57812 355.23438 502.0Q355.4375 501.40625 355.8125 500.96875Q356.1875 500.53125 356.71875 500.29688Q357.25 500.04688 357.92188 500.04688Q358.57812 500.04688 359.10938 500.29688Q359.65625 500.53125 360.03125 500.96875Q360.40625 501.40625 360.60938 502.0Q360.8125 502.57812 360.8125 503.26562L360.8125 503.40625Q360.8125 504.07812 360.60938 504.67188Q360.40625 505.25 360.03125 505.6875Q359.65625 506.125 359.125 506.375Q358.59375 506.625 357.92188 506.625Q357.26562 506.625 356.71875 506.375Q356.1875 506.125 355.8125 505.6875Q355.4375 505.25 355.23438 504.67188Q355.04688 504.07812 355.04688 503.40625ZM356.125 503.26562L356.125 503.40625Q356.125 503.875 356.23438 504.29688Q356.34375 504.71875 356.5625 505.04688Q356.79688 505.35938 357.14062 505.54688Q357.48438 505.71875 357.92188 505.71875Q358.375 505.71875 358.70312 505.54688Q359.04688 505.35938 359.26562 505.04688Q359.5 504.71875 359.60938 504.29688Q359.71875 503.875 359.71875 503.40625L359.71875 503.26562Q359.71875 502.79688 359.60938 502.375Q359.5 501.95312 359.26562 501.64062Q359.04688 501.3125 358.70312 501.125Q358.375 500.9375 357.92188 500.9375Q357.46875 500.9375 357.125 501.125Q356.79688 501.3125 356.5625 501.64062Q356.34375 501.95312 356.23438 502.375Q356.125 502.79688 356.125 503.26562ZM363.40625 501.375L363.40625 508.9375L362.32812 508.9375L362.32812 500.15625L363.3125 500.15625L363.40625 501.375ZM367.6875 503.28125L367.6875 503.40625Q367.6875 504.09375 367.51562 504.6875Q367.35938 505.26562 367.04688 505.70312Q366.73438 506.14062 366.26562 506.39062Q365.8125 506.625 365.21875 506.625Q364.625 506.625 364.15625 506.42188Q363.6875 506.21875 363.35938 505.84375Q363.04688 505.45312 362.85938 504.92188Q362.67188 504.39062 362.59375 503.71875L362.59375 503.0625Q362.67188 502.35938 362.85938 501.8125Q363.04688 501.25 363.35938 500.85938Q363.6875 500.45312 364.14062 500.25Q364.60938 500.04688 365.20312 500.04688Q365.79688 500.04688 366.26562 500.28125Q366.73438 500.5 367.04688 500.9375Q367.35938 501.35938 367.51562 501.95312Q367.6875 502.54688 367.6875 503.28125ZM366.59375 503.40625L366.59375 503.28125Q366.59375 502.79688 366.48438 502.39062Q366.39062 501.96875 366.1875 501.65625Q365.98438 501.32812 365.65625 501.14062Q365.32812 500.95312 364.89062 500.95312Q364.48438 500.95312 364.17188 501.09375Q363.875 501.23438 363.65625 501.48438Q363.45312 501.71875 363.3125 502.01562Q363.1875 502.3125 363.125 502.64062L363.125 504.15625Q363.23438 504.5625 363.4375 504.92188Q363.65625 505.28125 364.0 505.5Q364.35938 505.71875 364.90625 505.71875Q365.34375 505.71875 365.65625 505.54688Q365.98438 505.35938 366.1875 505.04688Q366.39062 504.71875 366.48438 504.29688Q366.59375 503.875 366.59375 503.40625ZM370.40625 497.5L370.40625 506.5L369.32812 506.5L369.32812 497.5L370.40625 497.5ZM370.15625 503.09375L369.70312 503.07812Q369.70312 502.42188 369.89062 501.875Q370.07812 501.3125 370.42188 500.90625Q370.76562 500.5 371.23438 500.28125Q371.70312 500.04688 372.28125 500.04688Q372.75 500.04688 373.125 500.17188Q373.5 500.29688 373.76562 500.57812Q374.03125 500.84375 374.17188 501.28125Q374.3125 501.71875 374.3125 502.34375L374.3125 506.5L373.21875 506.5L373.21875 502.32812Q373.21875 501.82812 373.07812 501.53125Q372.9375 501.23438 372.65625 501.09375Q372.375 500.95312 371.95312 500.95312Q371.54688 500.95312 371.21875 501.125Q370.89062 501.29688 370.65625 501.59375Q370.42188 501.89062 370.28125 502.28125Q370.15625 502.65625 370.15625 503.09375ZM378.10938 505.84375L379.875 500.15625L381.03125 500.15625L378.48438 507.48438Q378.40625 507.71875 378.25 507.98438Q378.10938 508.26562 377.89062 508.5Q377.67188 508.75 377.35938 508.90625Q377.04688 509.0625 376.60938 509.0625Q376.48438 509.0625 376.28125 509.01562Q376.07812 508.98438 376.0 508.96875L376.0 508.09375Q376.04688 508.09375 376.14062 508.09375Q376.25 508.10938 376.28125 508.10938Q376.65625 508.10938 376.90625 508.01562Q377.17188 507.92188 377.34375 507.6875Q377.53125 507.46875 377.65625 507.07812L378.10938 505.84375ZM376.8125 500.15625L378.45312 505.07812L378.73438 506.21875L377.96875 506.625L375.625 500.15625L376.8125 500.15625ZM383.5 497.5L383.5 506.5L382.42188 506.5L382.42188 497.5L383.5 497.5ZM386.5 497.5L386.5 506.5L385.42188 506.5L385.42188 497.5L386.5 497.5ZM390.95312 506.625Q390.29688 506.625 389.75 506.40625Q389.21875 506.17188 388.82812 505.76562Q388.45312 505.34375 388.25 504.78125Q388.04688 504.21875 388.04688 503.54688L388.04688 503.3125Q388.04688 502.53125 388.26562 501.92188Q388.5 501.3125 388.89062 500.89062Q389.28125 500.46875 389.78125 500.26562Q390.28125 500.04688 390.8125 500.04688Q391.5 500.04688 391.98438 500.28125Q392.48438 500.51562 392.79688 500.9375Q393.125 501.34375 393.26562 501.92188Q393.42188 502.48438 393.42188 503.14062L393.42188 503.64062L388.6875 503.64062L388.6875 502.75L392.34375 502.75L392.34375 502.67188Q392.3125 502.25 392.15625 501.85938Q392.01562 501.45312 391.6875 501.20312Q391.375 500.9375 390.8125 500.9375Q390.45312 500.9375 390.14062 501.09375Q389.82812 501.25 389.59375 501.5625Q389.375 501.85938 389.25 502.29688Q389.14062 502.73438 389.14062 503.3125L389.14062 503.54688Q389.14062 504.0 389.26562 504.40625Q389.39062 504.79688 389.625 505.09375Q389.875 505.39062 390.21875 505.5625Q390.57812 505.73438 391.01562 505.73438Q391.59375 505.73438 391.98438 505.5Q392.39062 505.26562 392.6875 504.875L393.34375 505.39062Q393.14062 505.70312 392.8125 505.98438Q392.5 506.26562 392.03125 506.45312Q391.57812 506.625 390.95312 506.625ZM395.40625 501.51562L395.40625 506.5L394.32812 506.5L394.32812 500.15625L395.35938 500.15625L395.40625 501.51562ZM395.15625 503.09375L394.70312 503.07812Q394.70312 502.42188 394.89062 501.875Q395.07812 501.3125 395.42188 500.90625Q395.76562 500.5 396.23438 500.28125Q396.70312 500.04688 397.28125 500.04688Q397.75 500.04688 398.125 500.17188Q398.5 500.29688 398.76562 500.57812Q399.03125 500.84375 399.17188 501.28125Q399.3125 501.71875 399.3125 502.34375L399.3125 506.5L398.21875 506.5L398.21875 502.32812Q398.21875 501.82812 398.07812 501.53125Q397.9375 501.23438 397.65625 501.09375Q397.375 500.95312 396.95312 500.95312Q396.54688 500.95312 396.21875 501.125Q395.89062 501.29688 395.65625 501.59375Q395.42188 501.89062 395.28125 502.28125Q395.15625 502.65625 395.15625 503.09375Z" fill-rule="nonzero"/><path stroke="#cccccc" stroke-width="1.0" stroke-linecap="butt" d="M365.0 290.0L201.0 385.0" fill-rule="nonzero"/><path fill="#000000" d="M169.0625 395.96875L169.0625 396.5Q169.0625 397.46875 168.8125 398.23438Q168.57812 398.98438 168.125 399.51562Q167.67188 400.04688 167.04688 400.34375Q166.42188 400.625 165.64062 400.625Q164.875 400.625 164.25 400.34375Q163.625 400.04688 163.15625 399.51562Q162.70312 398.98438 162.45312 398.23438Q162.20312 397.46875 162.20312 396.5L162.20312 395.96875Q162.20312 395.0 162.45312 394.25Q162.70312 393.48438 163.15625 392.95312Q163.60938 392.40625 164.23438 392.125Q164.875 391.84375 165.625 391.84375Q166.40625 391.84375 167.03125 392.125Q167.67188 392.40625 168.125 392.95312Q168.57812 393.48438 168.8125 394.25Q169.0625 395.0 169.0625 395.96875ZM167.9375 396.5L167.9375 395.95312Q167.9375 395.1875 167.78125 394.60938Q167.625 394.01562 167.32812 393.625Q167.03125 393.21875 166.59375 393.01562Q166.17188 392.8125 165.625 392.8125Q165.09375 392.8125 164.67188 393.01562Q164.25 393.21875 163.9375 393.625Q163.64062 394.01562 163.46875 394.60938Q163.3125 395.1875 163.3125 395.95312L163.3125 396.5Q163.3125 397.26562 163.46875 397.85938Q163.64062 398.45312 163.95312 398.85938Q164.26562 399.25 164.6875 399.45312Q165.10938 399.65625 165.64062 399.65625Q166.1875 399.65625 166.60938 399.45312Q167.04688 399.25 167.34375 398.85938Q167.64062 398.45312 167.78125 397.85938Q167.9375 397.26562 167.9375 396.5ZM172.85938 399.71875Q173.25 399.71875 173.57812 399.5625Q173.90625 399.40625 174.10938 399.14062Q174.32812 398.85938 174.35938 398.5L175.39062 398.5Q175.35938 399.0625 175.0 399.54688Q174.65625 400.03125 174.09375 400.32812Q173.53125 400.625 172.85938 400.625Q172.15625 400.625 171.625 400.375Q171.09375 400.10938 170.73438 399.67188Q170.39062 399.23438 170.21875 398.67188Q170.04688 398.09375 170.04688 397.45312L170.04688 397.20312Q170.04688 396.5625 170.21875 396.0Q170.39062 395.42188 170.73438 394.98438Q171.09375 394.54688 171.625 394.29688Q172.15625 394.04688 172.85938 394.04688Q173.60938 394.04688 174.15625 394.34375Q174.71875 394.64062 175.03125 395.17188Q175.35938 395.6875 175.39062 396.34375L174.35938 396.34375Q174.32812 395.95312 174.14062 395.64062Q173.95312 395.3125 173.625 395.125Q173.29688 394.9375 172.85938 394.9375Q172.35938 394.9375 172.01562 395.14062Q171.6875 395.32812 171.48438 395.65625Q171.29688 395.98438 171.20312 396.39062Q171.125 396.79688 171.125 397.20312L171.125 397.45312Q171.125 397.875 171.20312 398.28125Q171.29688 398.67188 171.48438 399.0Q171.6875 399.32812 172.01562 399.53125Q172.35938 399.71875 172.85938 399.71875ZM177.5 394.15625L177.5 400.5L176.42188 400.5L176.42188 394.15625L177.5 394.15625ZM176.32812 392.48438Q176.32812 392.21875 176.48438 392.03125Q176.65625 391.84375 176.96875 391.84375Q177.28125 391.84375 177.4375 392.03125Q177.60938 392.21875 177.60938 392.48438Q177.60938 392.73438 177.4375 392.92188Q177.28125 393.09375 176.96875 393.09375Q176.65625 393.09375 176.48438 392.92188Q176.32812 392.73438 176.32812 392.48438ZM180.40625 395.42188L180.40625 400.5L179.3125 400.5L179.3125 394.15625L180.34375 394.15625L180.40625 395.42188ZM180.1875 397.09375L179.67188 397.07812Q179.6875 396.42188 179.84375 395.875Q180.01562 395.3125 180.32812 394.90625Q180.65625 394.5 181.14062 394.28125Q181.625 394.04688 182.25 394.04688Q182.70312 394.04688 183.07812 394.17188Q183.45312 394.29688 183.71875 394.5625Q184.0 394.82812 184.14062 395.25Q184.29688 395.67188 184.29688 396.28125L184.29688 400.5L183.21875 400.5L183.21875 396.32812Q183.21875 395.82812 183.04688 395.53125Q182.89062 395.23438 182.57812 395.09375Q182.28125 394.95312 181.85938 394.95312Q181.39062 394.95312 181.0625 395.125Q180.73438 395.29688 180.54688 395.59375Q180.35938 395.89062 180.26562 396.28125Q180.1875 396.65625 180.1875 397.09375ZM184.29688 396.48438L183.5625 396.71875Q183.5625 396.1875 183.73438 395.71875Q183.90625 395.23438 184.21875 394.85938Q184.54688 394.48438 185.01562 394.26562Q185.48438 394.04688 186.07812 394.04688Q186.59375 394.04688 186.98438 394.1875Q187.39062 394.3125 187.65625 394.59375Q187.92188 394.875 188.0625 395.3125Q188.20312 395.73438 188.20312 396.32812L188.20312 400.5L187.125 400.5L187.125 396.32812Q187.125 395.78125 186.95312 395.5Q186.78125 395.20312 186.48438 395.07812Q186.1875 394.95312 185.76562 394.95312Q185.40625 394.95312 185.125 395.07812Q184.85938 395.20312 184.67188 395.42188Q184.48438 395.625 184.39062 395.90625Q184.29688 396.1875 184.29688 396.48438ZM192.95312 400.625Q192.29688 400.625 191.75 400.40625Q191.21875 400.17188 190.82812 399.76562Q190.45312 399.34375 190.25 398.78125Q190.04688 398.21875 190.04688 397.54688L190.04688 397.3125Q190.04688 396.53125 190.26562 395.92188Q190.5 395.3125 190.89062 394.89062Q191.28125 394.46875 191.78125 394.26562Q192.28125 394.04688 192.8125 394.04688Q193.5 394.04688 193.98438 394.28125Q194.48438 394.51562 194.79688 394.9375Q195.125 395.34375 195.26562 395.92188Q195.42188 396.48438 195.42188 397.14062L195.42188 397.64062L190.6875 397.64062L190.6875 396.75L194.34375 396.75L194.34375 396.67188Q194.3125 396.25 194.15625 395.85938Q194.01562 395.45312 193.6875 395.20312Q193.375 394.9375 192.8125 394.9375Q192.45312 394.9375 192.14062 395.09375Q191.82812 395.25 191.59375 395.5625Q191.375 395.85938 191.25 396.29688Q191.14062 396.73438 191.14062 397.3125L191.14062 397.54688Q191.14062 398.0 191.26562 398.40625Q191.39062 398.79688 191.625 399.09375Q191.875 399.39062 192.21875 399.5625Q192.57812 399.73438 193.01562 399.73438Q193.59375 399.73438 193.98438 399.5Q194.39062 399.26562 194.6875 398.875L195.34375 399.39062Q195.14062 399.70312 194.8125 399.98438Q194.5 400.26562 194.03125 400.45312Q193.57812 400.625 192.95312 400.625ZM197.40625 395.51562L197.40625 400.5L196.32812 400.5L196.32812 394.15625L197.35938 394.15625L197.40625 395.51562ZM197.15625 397.09375L196.70312 397.07812Q196.70312 396.42188 196.89062 395.875Q197.07812 395.3125 197.42188 394.90625Q197.76562 394.5 198.23438 394.28125Q198.70312 394.04688 199.28125 394.04688Q199.75 394.04688 200.125 394.17188Q200.5 394.29688 200.76562 394.57812Q201.03125 394.84375 201.17188 395.28125Q201.3125 395.71875 201.3125 396.34375L201.3125 400.5L200.21875 400.5L200.21875 396.32812Q200.21875 395.82812 200.07812 395.53125Q199.9375 395.23438 199.65625 395.09375Q199.375 394.95312 198.95312 394.95312Q198.54688 394.95312 198.21875 395.125Q197.89062 395.29688 197.65625 395.59375Q197.42188 395.89062 197.28125 396.28125Q197.15625 396.65625 197.15625 397.09375Z" fill-rule="nonzero"/><path stroke="#cccccc" stroke-width="1.0" stroke-linecap="butt" d="M365.0 290.0L201.0 195.0" fill-rule="nonzero"/><path fill="#000000" d="M164.03125 186.34375Q164.03125 186.04688 163.9375 185.8125Q163.85938 185.57812 163.625 185.39062Q163.40625 185.20312 163.0 185.03125Q162.60938 184.85938 162.01562 184.6875Q161.375 184.5 160.85938 184.28125Q160.35938 184.04688 159.98438 183.75Q159.625 183.4375 159.4375 183.0625Q159.25 182.67188 159.25 182.17188Q159.25 181.67188 159.45312 181.25Q159.65625 180.82812 160.03125 180.51562Q160.42188 180.20312 160.95312 180.03125Q161.48438 179.84375 162.14062 179.84375Q163.10938 179.84375 163.78125 180.21875Q164.45312 180.57812 164.79688 181.17188Q165.15625 181.76562 165.15625 182.42188L164.03125 182.42188Q164.03125 181.95312 163.8125 181.57812Q163.60938 181.20312 163.1875 181.0Q162.78125 180.78125 162.14062 180.78125Q161.54688 180.78125 161.14062 180.96875Q160.75 181.14062 160.5625 181.45312Q160.375 181.76562 160.375 182.15625Q160.375 182.42188 160.48438 182.65625Q160.60938 182.875 160.84375 183.0625Q161.09375 183.25 161.46875 183.40625Q161.84375 183.5625 162.375 183.70312Q163.09375 183.90625 163.625 184.17188Q164.15625 184.42188 164.5 184.73438Q164.84375 185.04688 165.0 185.4375Q165.17188 185.82812 165.17188 186.32812Q165.17188 186.85938 164.95312 187.28125Q164.75 187.70312 164.35938 188.0Q163.96875 188.29688 163.42188 188.46875Q162.875 188.625 162.20312 188.625Q161.60938 188.625 161.03125 188.45312Q160.46875 188.28125 160.0 187.95312Q159.53125 187.625 159.25 187.15625Q158.96875 186.67188 158.96875 186.03125L160.09375 186.03125Q160.09375 186.46875 160.26562 186.78125Q160.4375 187.09375 160.73438 187.29688Q161.03125 187.5 161.40625 187.60938Q161.78125 187.70312 162.20312 187.70312Q162.79688 187.70312 163.20312 187.54688Q163.60938 187.375 163.8125 187.07812Q164.03125 186.76562 164.03125 186.34375ZM166.04688 185.40625L166.04688 185.26562Q166.04688 184.57812 166.23438 184.0Q166.4375 183.40625 166.8125 182.96875Q167.1875 182.53125 167.71875 182.29688Q168.25 182.04688 168.92188 182.04688Q169.57812 182.04688 170.10938 182.29688Q170.65625 182.53125 171.03125 182.96875Q171.40625 183.40625 171.60938 184.0Q171.8125 184.57812 171.8125 185.26562L171.8125 185.40625Q171.8125 186.07812 171.60938 186.67188Q171.40625 187.25 171.03125 187.6875Q170.65625 188.125 170.125 188.375Q169.59375 188.625 168.92188 188.625Q168.26562 188.625 167.71875 188.375Q167.1875 188.125 166.8125 187.6875Q166.4375 187.25 166.23438 186.67188Q166.04688 186.07812 166.04688 185.40625ZM167.125 185.26562L167.125 185.40625Q167.125 185.875 167.23438 186.29688Q167.34375 186.71875 167.5625 187.04688Q167.79688 187.35938 168.14062 187.54688Q168.48438 187.71875 168.92188 187.71875Q169.375 187.71875 169.70312 187.54688Q170.04688 187.35938 170.26562 187.04688Q170.5 186.71875 170.60938 186.29688Q170.71875 185.875 170.71875 185.40625L170.71875 185.26562Q170.71875 184.79688 170.60938 184.375Q170.5 183.95312 170.26562 183.64062Q170.04688 183.3125 169.70312 183.125Q169.375 182.9375 168.92188 182.9375Q168.46875 182.9375 168.125 183.125Q167.79688 183.3125 167.5625 183.64062Q167.34375 183.95312 167.23438 184.375Q167.125 184.79688 167.125 185.26562ZM174.40625 183.51562L174.40625 188.5L173.32812 188.5L173.32812 182.15625L174.35938 182.15625L174.40625 183.51562ZM174.15625 185.09375L173.70312 185.07812Q173.70312 184.42188 173.89062 183.875Q174.07812 183.3125 174.42188 182.90625Q174.76562 182.5 175.23438 182.28125Q175.70312 182.04688 176.28125 182.04688Q176.75 182.04688 177.125 182.17188Q177.5 182.29688 177.76562 182.57812Q178.03125 182.84375 178.17188 183.28125Q178.3125 183.71875 178.3125 184.34375L178.3125 188.5L177.21875 188.5L177.21875 184.32812Q177.21875 183.82812 177.07812 183.53125Q176.9375 183.23438 176.65625 183.09375Q176.375 182.95312 175.95312 182.95312Q175.54688 182.95312 175.21875 183.125Q174.89062 183.29688 174.65625 183.59375Q174.42188 183.89062 174.28125 184.28125Q174.15625 184.65625 174.15625 185.09375ZM184.01562 186.8125Q184.01562 186.57812 183.90625 186.375Q183.8125 186.17188 183.5 186.01562Q183.1875 185.84375 182.5625 185.71875Q182.03125 185.60938 181.60938 185.46875Q181.1875 185.3125 180.89062 185.09375Q180.59375 184.875 180.4375 184.57812Q180.28125 184.28125 180.28125 183.89062Q180.28125 183.51562 180.4375 183.1875Q180.60938 182.84375 180.90625 182.59375Q181.21875 182.32812 181.65625 182.1875Q182.09375 182.04688 182.625 182.04688Q183.39062 182.04688 183.92188 182.3125Q184.46875 182.57812 184.75 183.03125Q185.03125 183.48438 185.03125 184.01562L183.95312 184.01562Q183.95312 183.76562 183.79688 183.51562Q183.64062 183.26562 183.34375 183.10938Q183.04688 182.9375 182.625 182.9375Q182.17188 182.9375 181.89062 183.07812Q181.60938 183.20312 181.48438 183.42188Q181.35938 183.625 181.35938 183.85938Q181.35938 184.04688 181.42188 184.1875Q181.48438 184.3125 181.64062 184.4375Q181.79688 184.54688 182.07812 184.65625Q182.375 184.75 182.82812 184.84375Q183.60938 185.01562 184.10938 185.26562Q184.60938 185.51562 184.85938 185.875Q185.10938 186.21875 185.10938 186.73438Q185.10938 187.15625 184.92188 187.5Q184.75 187.84375 184.42188 188.09375Q184.10938 188.34375 183.65625 188.48438Q183.20312 188.625 182.65625 188.625Q181.8125 188.625 181.23438 188.32812Q180.65625 188.01562 180.35938 187.54688Q180.0625 187.0625 180.0625 186.54688L181.14062 186.54688Q181.17188 186.98438 181.40625 187.25Q181.64062 187.51562 181.96875 187.625Q182.3125 187.71875 182.65625 187.71875Q183.09375 187.71875 183.39062 187.60938Q183.70312 187.48438 183.85938 187.28125Q184.01562 187.07812 184.01562 186.8125ZM188.98438 182.15625L188.98438 182.98438L185.54688 182.98438L185.54688 182.15625L188.98438 182.15625ZM186.71875 180.625L187.79688 180.625L187.79688 186.92188Q187.79688 187.25 187.89062 187.42188Q188.0 187.57812 188.15625 187.64062Q188.3125 187.6875 188.5 187.6875Q188.625 187.6875 188.76562 187.65625Q188.92188 187.625 189.0 187.60938L189.01562 188.5Q188.875 188.54688 188.67188 188.57812Q188.46875 188.625 188.17188 188.625Q187.78125 188.625 187.4375 188.46875Q187.10938 188.29688 186.90625 187.9375Q186.71875 187.5625 186.71875 186.92188L186.71875 180.625ZM191.5 182.15625L191.5 188.5L190.42188 188.5L190.42188 182.15625L191.5 182.15625ZM190.32812 180.48438Q190.32812 180.21875 190.48438 180.03125Q190.65625 179.84375 190.96875 179.84375Q191.28125 179.84375 191.4375 180.03125Q191.60938 180.21875 191.60938 180.48438Q191.60938 180.73438 191.4375 180.92188Q191.28125 181.09375 190.96875 181.09375Q190.65625 181.09375 190.48438 180.92188Q190.32812 180.73438 190.32812 180.48438ZM197.4375 182.15625L198.42188 182.15625L198.42188 188.35938Q198.42188 189.20312 198.07812 189.79688Q197.73438 190.39062 197.125 190.6875Q196.53125 191.0 195.73438 191.0Q195.40625 191.0 194.95312 190.89062Q194.51562 190.79688 194.09375 190.54688Q193.67188 190.3125 193.39062 189.90625L193.95312 189.25Q194.35938 189.73438 194.78125 189.92188Q195.21875 190.10938 195.65625 190.10938Q196.17188 190.10938 196.54688 189.90625Q196.92188 189.71875 197.125 189.34375Q197.32812 188.96875 197.32812 188.42188L197.32812 183.54688L197.4375 182.15625ZM193.0625 185.40625L193.0625 185.28125Q193.0625 184.54688 193.23438 183.95312Q193.42188 183.35938 193.73438 182.9375Q194.0625 182.5 194.51562 182.28125Q194.98438 182.04688 195.57812 182.04688Q196.17188 182.04688 196.60938 182.25Q197.0625 182.45312 197.375 182.85938Q197.6875 183.25 197.875 183.8125Q198.0625 184.35938 198.125 185.0625L198.125 185.60938Q198.0625 186.29688 197.875 186.85938Q197.6875 187.42188 197.375 187.8125Q197.0625 188.20312 196.60938 188.42188Q196.15625 188.625 195.5625 188.625Q194.98438 188.625 194.53125 188.39062Q194.07812 188.14062 193.75 187.70312Q193.42188 187.26562 193.23438 186.6875Q193.0625 186.09375 193.0625 185.40625ZM194.15625 185.28125L194.15625 185.40625Q194.15625 185.875 194.25 186.29688Q194.34375 186.70312 194.54688 187.03125Q194.75 187.34375 195.0625 187.53125Q195.39062 187.70312 195.82812 187.70312Q196.35938 187.70312 196.70312 187.46875Q197.0625 187.23438 197.26562 186.85938Q197.48438 186.48438 197.59375 186.04688L197.59375 184.64062Q197.53125 184.3125 197.39062 184.01562Q197.26562 183.71875 197.0625 183.48438Q196.85938 183.23438 196.54688 183.09375Q196.25 182.95312 195.82812 182.95312Q195.39062 182.95312 195.0625 183.14062Q194.75 183.32812 194.54688 183.65625Q194.34375 183.96875 194.25 184.39062Q194.15625 184.79688 194.15625 185.28125ZM202.95312 188.625Q202.29688 188.625 201.75 188.40625Q201.21875 188.17188 200.82812 187.76562Q200.45312 187.34375 200.25 186.78125Q200.04688 186.21875 200.04688 185.54688L200.04688 185.3125Q200.04688 184.53125 200.26562 183.92188Q200.5 183.3125 200.89062 182.89062Q201.28125 182.46875 201.78125 182.26562Q202.28125 182.04688 202.8125 182.04688Q203.5 182.04688 203.98438 182.28125Q204.48438 182.51562 204.79688 182.9375Q205.125 183.34375 205.26562 183.92188Q205.42188 184.48438 205.42188 185.14062L205.42188 185.64062L200.6875 185.64062L200.6875 184.75L204.34375 184.75L204.34375 184.67188Q204.3125 184.25 204.15625 183.85938Q204.01562 183.45312 203.6875 183.20312Q203.375 182.9375 202.8125 182.9375Q202.45312 182.9375 202.14062 183.09375Q201.82812 183.25 201.59375 183.5625Q201.375 183.85938 201.25 184.29688Q201.14062 184.73438 201.14062 185.3125L201.14062 185.54688Q201.14062 186.0 201.26562 186.40625Q201.39062 186.79688 201.625 187.09375Q201.875 187.39062 202.21875 187.5625Q202.57812 187.73438 203.01562 187.73438Q203.59375 187.73438 203.98438 187.5Q204.39062 187.26562 204.6875 186.875L205.34375 187.39062Q205.14062 187.70312 204.8125 187.98438Q204.5 188.26562 204.03125 188.45312Q203.57812 188.625 202.95312 188.625Z" fill-rule="nonzero"/><path stroke="#cccccc" stroke-width="1.0" stroke-linecap="butt" d="M365.0 290.0L365.0 101.0" fill-rule="nonzero"/><path stroke="#ff0000" stroke-width="2.0" stroke-linecap="butt" stroke-opacity="0.7019608" stroke-dasharray="8.0,6.0,2.0,6.0" d="M365.0 167.0L406.0 266.0L394.0 307.0L365.0 323.0L353.0 297.0L181.0 184.0Z" fill-rule="nonzero"/><path fill="#ff0000" fill-opacity="0.7019608" d="M365.0 162.5L368.89713 164.75L368.89713 169.25L365.0 171.5L361.10287 169.25L361.10287 164.75Z" fill-rule="nonzero"/><path fill="#ff0000" fill-opacity="0.7019608" d="M406.0 261.5L409.89713 263.75L409.89713 268.25L406.0 270.5L402.10287 268.25L402.10287 263.75Z" fill-rule="nonzero"/><path fill="#ff0000" fill-opacity="0.7019608" d="M394.0 302.5L397.89713 304.75L397.89713 309.25L394.0 311.5L390.10287 309.25L390.10287 304.75Z" fill-rule="nonzero"/><path fill="#ff0000" fill-opacity="0.7019608" d="M365.0 318.5L368.89713 320.75L368.89713 325.25L365.0 327.5L361.10287 325.25L361.10287 320.75Z" fill-rule="nonzero"/><path fill="#ff0000" fill-opacity="0.7019608" d="M353.0 292.5L356.89713 294.75L356.89713 299.25L353.0 301.5L349.10287 299.25L349.10287 294.75Z" fill-rule="nonzero"/><path fill="#ff0000" fill-opacity="0.7019608" d="M181.0 179.5L184.89711 181.75L184.89711 186.25L181.0 188.5L177.10289 186.25L177.10289 181.75Z" fill-rule="nonzero"/><path fill="#757575" d="M39.665627 39.884377L41.55625 40.353127Q40.9625 42.696877 39.415627 43.93125Q37.86875 45.15 35.61875 45.15Q33.30625 45.15 31.853125 44.2125Q30.415625 43.259377 29.65 41.478127Q28.9 39.68125 28.9 37.634377Q28.9 35.4 29.74375 33.74375Q30.603125 32.071877 32.18125 31.212502Q33.759377 30.337502 35.65 30.337502Q37.80625 30.337502 39.259377 31.431252Q40.728127 32.525 41.30625 34.509377L39.446877 34.946877Q38.946877 33.384377 37.99375 32.68125Q37.05625 31.962502 35.61875 31.962502Q33.9625 31.962502 32.853127 32.759377Q31.74375 33.540627 31.290625 34.884377Q30.853125 36.2125 30.853125 37.61875Q30.853125 39.446877 31.384375 40.821877Q31.915625 42.18125 33.040627 42.853127Q34.165627 43.525 35.4625 43.525Q37.05625 43.525 38.165627 42.603127Q39.275 41.68125 39.665627 39.884377ZM43.2125 44.9L43.2125 30.587502L44.978127 30.587502L44.978127 35.7125Q46.2125 34.290627 48.0875 34.290627Q49.228127 34.290627 50.071877 34.74375Q50.93125 35.196877 51.290627 36.009377Q51.665627 36.80625 51.665627 38.321877L51.665627 44.9L49.915627 44.9L49.915627 38.321877Q49.915627 37.009377 49.3375 36.415627Q48.759377 35.80625 47.728127 35.80625Q46.946877 35.80625 46.24375 36.2125Q45.55625 36.61875 45.259377 37.321877Q44.978127 38.009377 44.978127 39.228127L44.978127 44.9L43.2125 44.9ZM61.321877 41.55625L63.134377 41.790627Q62.7125 43.36875 61.540627 44.259377Q60.384377 45.134377 58.571877 45.134377Q56.30625 45.134377 54.9625 43.74375Q53.634377 42.3375 53.634377 39.80625Q53.634377 37.18125 54.978127 35.74375Q56.321877 34.290627 58.478127 34.290627Q60.55625 34.290627 61.86875 35.7125Q63.196877 37.11875 63.196877 39.696877Q63.196877 39.853127 63.18125 40.165627L55.446877 40.165627Q55.540627 41.86875 56.415627 42.775Q57.290627 43.68125 58.5875 43.68125Q59.55625 43.68125 60.228127 43.18125Q60.915627 42.665627 61.321877 41.55625ZM55.540627 38.7125L61.3375 38.7125Q61.228127 37.415627 60.68125 36.759377Q59.8375 35.74375 58.49375 35.74375Q57.290627 35.74375 56.4625 36.55625Q55.634377 37.353127 55.540627 38.7125ZM65.19688 44.9L65.19688 34.525L66.775 34.525L66.775 36.103127Q67.38438 34.99375 67.9 34.65Q68.41563 34.290627 69.025 34.290627Q69.91563 34.290627 70.8375 34.853127L70.22813 36.49375Q69.5875 36.103127 68.94688 36.103127Q68.36875 36.103127 67.9 36.4625Q67.44688 36.80625 67.24375 37.415627Q66.9625 38.353127 66.9625 39.4625L66.9625 44.9L65.19688 44.9ZM72.19688 44.9L72.19688 34.525L73.775 34.525L73.775 36.103127Q74.38438 34.99375 74.9 34.65Q75.41563 34.290627 76.025 34.290627Q76.91563 34.290627 77.8375 34.853127L77.22813 36.49375Q76.5875 36.103127 75.94688 36.103127Q75.36875 36.103127 74.9 36.4625Q74.44688 36.80625 74.24375 37.415627Q73.9625 38.353127 73.9625 39.4625L73.9625 44.9L72.19688 44.9ZM79.13438 48.9L78.94688 47.24375Q79.525 47.4 79.94688 47.4Q80.54063 47.4 80.88438 47.196877Q81.24375 47.009377 81.4625 46.665627Q81.63438 46.4 82.00938 45.353127Q82.05625 45.196877 82.16563 44.915627L78.22813 34.525L80.11875 34.525L82.275 40.540627Q82.69688 41.68125 83.025 42.93125Q83.3375 41.728127 83.74375 40.571877L85.9625 34.525L87.72813 34.525L83.775 45.071877Q83.15 46.790627 82.79063 47.43125Q82.32188 48.30625 81.7125 48.696877Q81.11875 49.103127 80.275 49.103127Q79.75938 49.103127 79.13438 48.9ZM95.36875 44.9L95.36875 30.587502L100.74375 30.587502Q102.38438 30.587502 103.36875 31.025002Q104.35313 31.446877 104.91563 32.353127Q105.47813 33.259377 105.47813 34.24375Q105.47813 35.165627 104.97813 35.978127Q104.49375 36.790627 103.47813 37.275Q104.775 37.665627 105.47813 38.5875Q106.18125 39.49375 106.18125 40.74375Q106.18125 41.759377 105.74375 42.61875Q105.32188 43.478127 104.69688 43.946877Q104.07188 44.415627 103.13438 44.665627Q102.19688 44.9 100.82188 44.9L95.36875 44.9ZM97.25938 36.603127L100.35313 36.603127Q101.61875 36.603127 102.16563 36.43125Q102.88438 36.2125 103.24375 35.728127Q103.61875 35.228127 103.61875 34.4625Q103.61875 33.759377 103.275 33.2125Q102.93125 32.665627 102.29063 32.478127Q101.66563 32.275 100.11875 32.275L97.25938 32.275L97.25938 36.603127ZM97.25938 43.2125L100.82188 43.2125Q101.74375 43.2125 102.11875 43.134377Q102.775 43.025 103.2125 42.759377Q103.65 42.478127 103.93125 41.9625Q104.2125 41.43125 104.2125 40.74375Q104.2125 39.946877 103.80625 39.353127Q103.4 38.759377 102.66563 38.525Q101.93125 38.290627 100.57188 38.290627L97.25938 38.290627L97.25938 43.2125ZM114.99375 43.61875Q114.00938 44.446877 113.10313 44.790627Q112.19688 45.134377 111.16563 45.134377Q109.4625 45.134377 108.54063 44.30625Q107.61875 43.4625 107.61875 42.165627Q107.61875 41.4 107.9625 40.775Q108.32188 40.15 108.88438 39.775Q109.44688 39.384377 110.15 39.18125Q110.66563 39.05625 111.7125 38.915627Q113.8375 38.665627 114.8375 38.321877Q114.85313 37.9625 114.85313 37.853127Q114.85313 36.790627 114.35313 36.3375Q113.68125 35.74375 112.35313 35.74375Q111.10313 35.74375 110.50938 36.18125Q109.93125 36.61875 109.65 37.728127L107.93125 37.49375Q108.16563 36.384377 108.69688 35.7125Q109.22813 35.025 110.24375 34.665627Q111.25938 34.290627 112.60313 34.290627Q113.93125 34.290627 114.75938 34.603127Q115.5875 34.915627 115.97813 35.4Q116.36875 35.86875 116.525 36.5875Q116.61875 37.040627 116.61875 38.2125L116.61875 40.55625Q116.61875 43.009377 116.72813 43.665627Q116.8375 44.30625 117.18125 44.9L115.3375 44.9Q115.07188 44.353127 114.99375 43.61875ZM114.8375 39.696877Q113.88438 40.0875 111.9625 40.353127Q110.88438 40.509377 110.43125 40.7125Q109.99375 40.9 109.74375 41.275Q109.49375 41.65 109.49375 42.11875Q109.49375 42.821877 110.025 43.290627Q110.55625 43.759377 111.5875 43.759377Q112.60313 43.759377 113.38438 43.321877Q114.18125 42.86875 114.55625 42.103127Q114.8375 41.49375 114.8375 40.3375L114.8375 39.696877ZM119.2125 44.9L119.2125 34.525L120.80625 34.525L120.80625 36.009377Q121.94688 34.290627 124.10313 34.290627Q125.04063 34.290627 125.82188 34.634377Q126.61875 34.9625 127.00938 35.509377Q127.4 36.05625 127.55625 36.80625Q127.65 37.30625 127.65 38.525L127.65 44.9L125.88438 44.9L125.88438 38.5875Q125.88438 37.509377 125.68125 36.978127Q125.47813 36.446877 124.94688 36.134377Q124.43125 35.821877 123.72813 35.821877Q122.60313 35.821877 121.79063 36.540627Q120.97813 37.24375 120.97813 39.228127L120.97813 44.9L119.2125 44.9ZM129.9 45.759377L131.60312 46.009377Q131.7125 46.80625 132.19687 47.165627Q132.85312 47.65 133.99374 47.65Q135.2125 47.65 135.86874 47.165627Q136.54062 46.68125 136.775 45.80625Q136.91562 45.259377 136.9 43.540627Q135.74374 44.9 134.025 44.9Q131.88437 44.9 130.7125 43.353127Q129.54062 41.80625 129.54062 39.65Q129.54062 38.165627 130.07187 36.915627Q130.61874 35.665627 131.63437 34.978127Q132.66562 34.290627 134.04062 34.290627Q135.86874 34.290627 137.07187 35.775L137.07187 34.525L138.68124 34.525L138.68124 43.49375Q138.68124 45.915627 138.18124 46.915627Q137.69687 47.93125 136.61874 48.509377Q135.55624 49.103127 133.99374 49.103127Q132.15 49.103127 130.99374 48.275Q129.85312 47.446877 129.9 45.759377ZM131.35312 39.525Q131.35312 41.571877 132.16562 42.509377Q132.97812 43.446877 134.19687 43.446877Q135.4 43.446877 136.2125 42.509377Q137.04062 41.571877 137.04062 39.5875Q137.04062 37.68125 136.19687 36.7125Q135.35312 35.74375 134.16562 35.74375Q132.99374 35.74375 132.16562 36.696877Q131.35312 37.65 131.35312 39.525ZM147.36874 44.9L147.36874 30.587502L152.74374 30.587502Q154.38437 30.587502 155.36874 31.025002Q156.35312 31.446877 156.91562 32.353127Q157.47812 33.259377 157.47812 34.24375Q157.47812 35.165627 156.97812 35.978127Q156.49374 36.790627 155.47812 37.275Q156.775 37.665627 157.47812 38.5875Q158.18124 39.49375 158.18124 40.74375Q158.18124 41.759377 157.74374 42.61875Q157.32187 43.478127 156.69687 43.946877Q156.07187 44.415627 155.13437 44.665627Q154.19687 44.9 152.82187 44.9L147.36874 44.9ZM149.25937 36.603127L152.35312 36.603127Q153.61874 36.603127 154.16562 36.43125Q154.88437 36.2125 155.24374 35.728127Q155.61874 35.228127 155.61874 34.4625Q155.61874 33.759377 155.275 33.2125Q154.93124 32.665627 154.29062 32.478127Q153.66562 32.275 152.11874 32.275L149.25937 32.275L149.25937 36.603127ZM149.25937 43.2125L152.82187 43.2125Q153.74374 43.2125 154.11874 43.134377Q154.775 43.025 155.2125 42.759377Q155.65 42.478127 155.93124 41.9625Q156.2125 41.43125 156.2125 40.74375Q156.2125 39.946877 155.80624 39.353127Q155.4 38.759377 154.66562 38.525Q153.93124 38.290627 152.57187 38.290627L149.25937 38.290627L149.25937 43.2125ZM166.99374 43.61875Q166.00937 44.446877 165.10312 44.790627Q164.19687 45.134377 163.16562 45.134377Q161.4625 45.134377 160.54062 44.30625Q159.61874 43.4625 159.61874 42.165627Q159.61874 41.4 159.9625 40.775Q160.32187 40.15 160.88437 39.775Q161.44687 39.384377 162.15 39.18125Q162.66562 39.05625 163.7125 38.915627Q165.8375 38.665627 166.8375 38.321877Q166.85312 37.9625 166.85312 37.853127Q166.85312 36.790627 166.35312 36.3375Q165.68124 35.74375 164.35312 35.74375Q163.10312 35.74375 162.50937 36.18125Q161.93124 36.61875 161.65 37.728127L159.93124 37.49375Q160.16562 36.384377 160.69687 35.7125Q161.22812 35.025 162.24374 34.665627Q163.25937 34.290627 164.60312 34.290627Q165.93124 34.290627 166.75937 34.603127Q167.5875 34.915627 167.97812 35.4Q168.36874 35.86875 168.525 36.5875Q168.61874 37.040627 168.61874 38.2125L168.61874 40.55625Q168.61874 43.009377 168.72812 43.665627Q168.8375 44.30625 169.18124 44.9L167.3375 44.9Q167.07187 44.353127 166.99374 43.61875ZM166.8375 39.696877Q165.88437 40.0875 163.9625 40.353127Q162.88437 40.509377 162.43124 40.7125Q161.99374 40.9 161.74374 41.275Q161.49374 41.65 161.49374 42.11875Q161.49374 42.821877 162.025 43.290627Q162.55624 43.759377 163.5875 43.759377Q164.60312 43.759377 165.38437 43.321877Q166.18124 42.86875 166.55624 42.103127Q166.8375 41.49375 166.8375 40.3375L166.8375 39.696877ZM171.2125 44.9L171.2125 34.525L172.80624 34.525L172.80624 36.009377Q173.94687 34.290627 176.10312 34.290627Q177.04062 34.290627 177.82187 34.634377Q178.61874 34.9625 179.00937 35.509377Q179.4 36.05625 179.55624 36.80625Q179.65 37.30625 179.65 38.525L179.65 44.9L177.88437 44.9L177.88437 38.5875Q177.88437 37.509377 177.68124 36.978127Q177.47812 36.446877 176.94687 36.134377Q176.43124 35.821877 175.72812 35.821877Q174.60312 35.821877 173.79062 36.540627Q172.97812 37.24375 172.97812 39.228127L172.97812 44.9L171.2125 44.9ZM181.9 45.759377L183.60312 46.009377Q183.7125 46.80625 184.19687 47.165627Q184.85312 47.65 185.99374 47.65Q187.2125 47.65 187.86874 47.165627Q188.54062 46.68125 188.775 45.80625Q188.91562 45.259377 188.9 43.540627Q187.74374 44.9 186.025 44.9Q183.88437 44.9 182.7125 43.353127Q181.54062 41.80625 181.54062 39.65Q181.54062 38.165627 182.07187 36.915627Q182.61874 35.665627 183.63437 34.978127Q184.66562 34.290627 186.04062 34.290627Q187.86874 34.290627 189.07187 35.775L189.07187 34.525L190.68124 34.525L190.68124 43.49375Q190.68124 45.915627 190.18124 46.915627Q189.69687 47.93125 188.61874 48.509377Q187.55624 49.103127 185.99374 49.103127Q184.15 49.103127 182.99374 48.275Q181.85312 47.446877 181.9 45.759377ZM183.35312 39.525Q183.35312 41.571877 184.16562 42.509377Q184.97812 43.446877 186.19687 43.446877Q187.4 43.446877 188.2125 42.509377Q189.04062 41.571877 189.04062 39.5875Q189.04062 37.68125 188.19687 36.7125Q187.35312 35.74375 186.16562 35.74375Q184.99374 35.74375 184.16562 36.696877Q183.35312 37.65 183.35312 39.525Z" fill-rule="nonzero"/></svg>