<svg version="1.1" viewBox="0.0 0.0 730.0 538.0" fill="none" stroke="none" stroke-linecap="square" stroke-miterlimit="10" width="730" height="538" xmlns:xlink="http://www.w3.org/1999/xlink" xmlns="http://www.w3.org/2000/svg"><path fill="#ffffff" d="M0 0L730.0 0L730.0 538.0L0 538.0L0 0Z" fill-rule="nonzero"/><path fill="#ffffff" d="M26.9 68.833336L703.10004 68.833336L703.10004 511.1L26.9 511.1L26.9 68.833336Z" fill-rule="nonzero"/><path stroke="#cccccc" stroke-width="1.0" stroke-linecap="butt" d="M365.0 290.0C365.0 290.0 365.0 290.0 365.0 290.0C365.0 290.0 365.0 290.0 365.0 290.0C365.0 290.0 365.0 290.0 365.0 290.0C365.0 290.0 365.0 290.0 365.0 290.0" fill-rule="nonzero"/><path fill="#000000" d="M353.0625 282.04688L353.0625 283.35938Q353.0625 284.40625 352.875 285.125Q352.6875 285.84375 352.32812 286.28125Q351.98438 286.71875 351.48438 286.92188Q351.0 287.125 350.375 287.125Q349.89062 287.125 349.46875 287.0Q349.04688 286.875 348.71875 286.60938Q348.39062 286.32812 348.15625 285.89062Q347.92188 285.45312 347.79688 284.82812Q347.67188 284.1875 347.67188 283.35938L347.67188 282.04688Q347.67188 281.0 347.85938 280.29688Q348.0625 279.59375 348.40625 279.15625Q348.76562 278.71875 349.25 278.53125Q349.75 278.34375 350.35938 278.34375Q350.85938 278.34375 351.28125 278.46875Q351.70312 278.59375 352.03125 278.85938Q352.35938 279.10938 352.57812 279.54688Q352.8125 279.96875 352.9375 280.59375Q353.0625 281.21875 353.0625 282.04688ZM351.96875 283.53125L351.96875 281.875Q351.96875 281.29688 351.90625 280.85938Q351.84375 280.42188 351.70312 280.10938Q351.57812 279.79688 351.375 279.60938Q351.1875 279.42188 350.9375 279.32812Q350.6875 279.23438 350.35938 279.23438Q349.98438 279.23438 349.67188 279.375Q349.375 279.51562 349.17188 279.82812Q348.96875 280.14062 348.85938 280.65625Q348.76562 281.15625 348.76562 281.875L348.76562 283.53125Q348.76562 284.10938 348.82812 284.54688Q348.90625 284.98438 349.03125 285.3125Q349.17188 285.625 349.35938 285.82812Q349.5625 286.03125 349.8125 286.125Q350.0625 286.21875 350.375 286.21875Q350.78125 286.21875 351.07812 286.07812Q351.375 285.92188 351.57812 285.59375Q351.78125 285.26562 351.875 284.76562Q351.96875 284.25 351.96875 283.53125ZM355.8125 285.70312L355.8125 286.57812Q355.8125 287.125 355.53125 287.71875Q355.26562 288.3125 354.78125 288.70312L354.17188 288.28125Q354.35938 288.01562 354.48438 287.75Q354.60938 287.48438 354.67188 287.20312Q354.75 286.92188 354.75 286.59375L354.75 285.70312L355.8125 285.70312ZM362.0625 282.04688L362.0625 283.35938Q362.0625 284.40625 361.875 285.125Q361.6875 285.84375 361.32812 286.28125Q360.98438 286.71875 360.48438 286.92188Q360.0 287.125 359.375 287.125Q358.89062 287.125 358.46875 287.0Q358.04688 286.875 357.71875 286.60938Q357.39062 286.32812 357.15625 285.89062Q356.92188 285.45312 356.79688 284.82812Q356.67188 284.1875 356.67188 283.35938L356.67188 282.04688Q356.67188 281.0 356.85938 280.29688Q357.0625 279.59375 357.40625 279.15625Q357.76562 278.71875 358.25 278.53125Q358.75 278.34375 359.35938 278.34375Q359.85938 278.34375 360.28125 278.46875Q360.70312 278.59375 361.03125 278.85938Q361.35938 279.10938 361.57812 279.54688Q361.8125 279.96875 361.9375 280.59375Q362.0625 281.21875 362.0625 282.04688ZM360.96875 283.53125L360.96875 281.875Q360.96875 281.29688 360.90625 280.85938Q360.84375 280.42188 360.70312 280.10938Q360.57812 279.79688 360.375 279.60938Q360.1875 279.42188 359.9375 279.32812Q359.6875 279.23438 359.35938 279.23438Q358.98438 279.23438 358.67188 279.375Q358.375 279.51562 358.17188 279.82812Q357.96875 280.14062 357.85938 280.65625Q357.76562 281.15625 357.76562 281.875L357.76562 283.53125Q357.76562 284.10938 357.82812 284.54688Q357.90625 284.98438 358.03125 285.3125Q358.17188 285.625 358.35938 285.82812Q358.5625 286.03125 358.8125 286.125Q359.0625 286.21875 359.375 286.21875Q359.78125 286.21875 360.07812 286.07812Q360.375 285.92188 360.57812 285.59375Q360.78125 285.26562 360.875 284.76562Q360.96875 284.25 360.96875 283.53125Z" fill-rule="nonzero"/><path stroke="#cccccc" stroke-width="1.0" stroke-linecap="butt" d="M412.28333 290.0C412.28333 263.88614 391.11386 242.71666 365.0 242.71666C338.88614 242.71666 317.71667 263.88614 317.71667 290.0C317.71667 316.11386 338.88614 337.28333 365.0 337.28333C391.11386 337.28333 412.28333 316.11386 412.28333 290.0" fill-rule="nonzero"/><path fill="#000000" d="M353.0625 234.76353L353.0625 236.07603Q353.0625 237.12291 352.875 237.84166Q352.6875 238.56041 352.32812 238.99791Q351.98438 239.43541 351.48438 239.63853Q351.0 239.84166 350.375 239.84166Q349.89062 239.84166 349.46875 239.71666Q349.04688 239.59166 348.71875 239.32603Q348.39062 239.04478 348.15625 238.60728Q347.92188 238.16978 347.79688 237.54478Q347.67188 236.90416 347.67188 236.07603L347.67188 234.76353Q347.67188 233.71666 347.85938 233.01353Q348.0625 232.31041 348.40625 231.87291Q348.76562 231.43541 349.25 231.24791Q349.75 231.06041 350.35938 231.06041Q350.85938 231.06041 351.28125 231.18541Q351.70312 231.31041 352.03125 231.57603Q352.35938 231.82603 352.57812 232.26353Q352.8125 232.68541 352.9375 233.31041Q353.0625 233.93541 353.0625 234.76353ZM351.96875 236.24791L351.96875 234.59166Q351.96875 234.01353 351.90625 233.57603Q351.84375 233.13853 351.70312 232.82603Q351.57812 232.51353 351.375 232.32603Q351.1875 232.13853 350.9375 232.04478Q350.6875 231.95103 350.35938 231.95103Q349.98438 231.95103 349.67188 232.09166Q349.375 232.23228 349.17188 232.54478Q348.96875 232.85728 348.85938 233.37291Q348.76562 233.87291 348.76562 234.59166L348.76562 236.24791Q348.76562 236.82603 348.82812 237.26353Q348.90625 237.70103 349.03125 238.02916Q349.17188 238.34166 349.35938 238.54478Q349.5625 238.74791 349.8125 238.84166Q350.0625 238.93541 350.375 238.93541Q350.78125 238.93541 351.07812 238.79478Q351.375 238.63853 351.57812 238.31041Q351.78125 237.98228 351.875 237.48228Q351.96875 236.96666 351.96875 236.24791ZM355.8125 238.41978L355.8125 239.29478Q355.8125 239.84166 355.53125 240.43541Q355.26562 241.02916 354.78125 241.41978L354.17188 240.99791Q354.35938 240.73228 354.48438 240.46666Q354.60938 240.20103 354.67188 239.91978Q354.75 239.63853 354.75 239.31041L354.75 238.41978L355.8125 238.41978ZM360.26562 231.13853L360.26562 239.71666L359.1875 239.71666L359.1875 232.49791L357.0 233.29478L357.0 232.31041L360.10938 231.13853L360.26562 231.13853Z" fill-rule="nonzero"/><path stroke="#cccccc" stroke-width="1.0" stroke-linecap="butt" d="M459.56668 290.0C459.56668 237.77228 417.22772 195.43333 365.0 195.43333C312.77228 195.43333 270.43332 237.77228 270.43332 290.0C270.43332 342.22772 312.77228 384.56668 365.0 384.56668C417.22772 384.56668 459.56668 342.22772 459.56668 290.0" fill-rule="nonzero"/><path fill="#000000" d="M353.0625 187.48021L353.0625 188.79271Q353.0625 189.83958 352.875 190.55833Q352.6875 191.27708 352.32812 191.71458Q351.98438 192.15208 351.48438 192.35521Q351.0 192.55833 350.375 192.55833Q349.89062 192.55833 349.46875 192.43333Q349.04688 192.30833 348.71875 192.04271Q348.39062 191.76146 348.15625 191.32396Q347.92188 190.88646 347.79688 190.26146Q347.67188 189.62083 347.67188 188.79271L347.67188 187.48021Q347.67188 186.43333 347.85938 185.73021Q348.0625 185.02708 348.40625 184.58958Q348.76562 184.15208 349.25 183.96458Q349.75 183.77708 350.35938 183.77708Q350.85938 183.77708 351.28125 183.90208Q351.70312 184.02708 352.03125 184.29271Q352.35938 184.54271 352.57812 184.98021Q352.8125 185.40208 352.9375 186.02708Q353.0625 186.65208 353.0625 187.48021ZM351.96875 188.96458L351.96875 187.30833Q351.96875 186.73021 351.90625 186.29271Q351.84375 185.85521 351.70312 185.54271Q351.57812 185.23021 351.375 185.04271Q351.1875 184.85521 350.9375 184.76146Q350.6875 184.66771 350.35938 184.66771Q349.98438 184.66771 349.67188 184.80833Q349.375 184.94896 349.17188 185.26146Q348.96875 185.57396 348.85938 186.08958Q348.76562 186.58958 348.76562 187.30833L348.76562 188.96458Q348.76562 189.54271 348.82812 189.98021Q348.90625 190.41771 349.03125 190.74583Q349.17188 191.05833 349.35938 191.26146Q349.5625 191.46458 349.8125 191.55833Q350.0625 191.65208 350.375 191.65208Q350.78125 191.65208 351.07812 191.51146Q351.375 191.35521 351.57812 191.02708Q351.78125 190.69896 351.875 190.19896Q351.96875 189.68333 351.96875 188.96458ZM355.8125 191.13646L355.8125 192.01146Q355.8125 192.55833 355.53125 193.15208Q355.26562 193.74583 354.78125 194.13646L354.17188 193.71458Q354.35938 193.44896 354.48438 193.18333Q354.60938 192.91771 354.67188 192.63646Q354.75 192.35521 354.75 192.02708L354.75 191.13646L355.8125 191.13646ZM362.29688 191.54271L362.29688 192.43333L356.71875 192.43333L356.71875 191.65208L359.51562 188.54271Q360.03125 187.96458 360.3125 187.57396Q360.59375 187.16771 360.70312 186.85521Q360.82812 186.52708 360.82812 186.19896Q360.82812 185.77708 360.65625 185.43333Q360.48438 185.08958 360.14062 184.88646Q359.8125 184.66771 359.32812 184.66771Q358.76562 184.66771 358.39062 184.90208Q358.01562 185.12083 357.82812 185.51146Q357.64062 185.90208 357.64062 186.40208L356.54688 186.40208Q356.54688 185.68333 356.85938 185.08958Q357.1875 184.49583 357.79688 184.13646Q358.42188 183.77708 359.32812 183.77708Q360.14062 183.77708 360.71875 184.07396Q361.29688 184.35521 361.59375 184.87083Q361.90625 185.37083 361.90625 186.05833Q361.90625 186.43333 361.78125 186.82396Q361.65625 187.19896 361.4375 187.58958Q361.21875 187.96458 360.92188 188.33958Q360.64062 188.69896 360.3125 189.05833L358.01562 191.54271L362.29688 191.54271Z" fill-rule="nonzero"/><path stroke="#cccccc" stroke-width="1.0" stroke-linecap="butt" d="M506.85 290.0C506.85 211.6584 443.34158 148.15 365.0 148.15C286.65842 148.15 223.15 211.6584 223.15 290.0C223.15 368.34158 286.65842 431.85 365.0 431.85C443.34158 431.85 506.85 368.34158 506.85 290.0" fill-rule="nonzero"/><path fill="#000000" d="M353.0625 140.19687L353.0625 141.50937Q353.0625 142.55624 352.875 143.275Q352.6875 143.99374 352.32812 144.43124Q351.98438 144.86874 351.48438 145.07187Q351.0 145.275 350.375 145.275Q349.89062 145.275 349.46875 145.15Q349.04688 145.025 348.71875 144.75937Q348.39062 144.47812 348.15625 144.04062Q347.92188 143.60312 347.79688 142.97812Q347.67188 142.3375 347.67188 141.50937L347.67188 140.19687Q347.67188 139.15 347.85938 138.44687Q348.0625 137.74374 348.40625 137.30624Q348.76562 136.86874 349.25 136.68124Q349.75 136.49374 350.35938 136.49374Q350.85938 136.49374 351.28125 136.61874Q351.70312 136.74374 352.03125 137.00937Q352.35938 137.25937 352.57812 137.69687Q352.8125 138.11874 352.9375 138.74374Q353.0625 139.36874 353.0625 140.19687ZM351.96875 141.68124L351.96875 140.025Q351.96875 139.44687 351.90625 139.00937Q351.84375 138.57187 351.70312 138.25937Q351.57812 137.94687 351.375 137.75937Q351.1875 137.57187 350.9375 137.47812Q350.6875 137.38437 350.35938 137.38437Q349.98438 137.38437 349.67188 137.525Q349.375 137.66562 349.17188 137.97812Q348.96875 138.29062 348.85938 138.80624Q348.76562 139.30624 348.76562 140.025L348.76562 141.68124Q348.76562 142.25937 348.82812 142.69687Q348.90625 143.13437 349.03125 143.4625Q349.17188 143.775 349.35938 143.97812Q349.5625 144.18124 349.8125 144.275Q350.0625 144.36874 350.375 144.36874Q350.78125 144.36874 351.07812 144.22812Q351.375 144.07187 351.57812 143.74374Q351.78125 143.41562 351.875 142.91562Q351.96875 142.4 351.96875 141.68124ZM355.8125 143.85312L355.8125 144.72812Q355.8125 145.275 355.53125 145.86874Q355.26562 146.4625 354.78125 146.85312L354.17188 146.43124Q354.35938 146.16562 354.48438 145.9Q354.60938 145.63437 354.67188 145.35312Q354.75 145.07187 354.75 144.74374L354.75 143.85312L355.8125 143.85312ZM358.29688 140.35312L359.0625 140.35312Q359.64062 140.35312 360.0 140.16562Q360.375 139.9625 360.5625 139.63437Q360.75 139.30624 360.75 138.88437Q360.75 138.4 360.57812 138.07187Q360.42188 137.72812 360.09375 137.55624Q359.76562 137.38437 359.26562 137.38437Q358.79688 137.38437 358.45312 137.57187Q358.10938 137.74374 357.90625 138.07187Q357.71875 138.4 357.71875 138.85312L356.625 138.85312Q356.625 138.19687 356.95312 137.66562Q357.28125 137.13437 357.875 136.82187Q358.46875 136.49374 359.26562 136.49374Q360.03125 136.49374 360.60938 136.775Q361.1875 137.04062 361.51562 137.5875Q361.84375 138.11874 361.84375 138.91562Q361.84375 139.24374 361.6875 139.60312Q361.53125 139.9625 361.21875 140.29062Q360.90625 140.60312 360.40625 140.80624Q359.92188 141.00937 359.21875 141.00937L358.29688 141.00937L358.29688 140.35312ZM358.29688 141.24374L358.29688 140.5875L359.21875 140.5875Q360.03125 140.5875 360.5625 140.79062Q361.09375 140.97812 361.40625 141.30624Q361.71875 141.61874 361.84375 142.00937Q361.96875 142.38437 361.96875 142.775Q361.96875 143.36874 361.76562 143.8375Q361.5625 144.29062 361.1875 144.61874Q360.82812 144.93124 360.32812 145.10312Q359.84375 145.275 359.26562 145.275Q358.70312 145.275 358.21875 145.11874Q357.73438 144.94687 357.35938 144.65Q356.98438 144.35312 356.76562 143.91562Q356.5625 143.4625 356.5625 142.9L357.64062 142.9Q357.64062 143.3375 357.82812 143.68124Q358.03125 144.00937 358.39062 144.19687Q358.76562 144.36874 359.26562 144.36874Q359.76562 144.36874 360.125 144.19687Q360.48438 144.025 360.67188 143.68124Q360.875 143.32187 360.875 142.79062Q360.875 142.25937 360.65625 141.91562Q360.4375 141.57187 360.01562 141.41562Q359.60938 141.24374 359.0625 141.24374L358.29688 141.24374Z" fill-rule="nonzero"/><path stroke="#cccccc" stroke-width="1.0" stroke-linecap="butt" d="M554.13336 290.0C554.13336 185.54454 469.45544 100.86667 365.0 100.86667C260.54456 100.86667 175.86667 185.54454 175.86667 290.0C175.86667 394.45544 260.54456 479.13333 365.0 479.13333C469.45544 479.13333 554.13336 394.45544 554.13336 290.0" fill-rule="nonzero"/><path fill="#000000" d="M353.0625 92.91354L353.0625 94.22604Q353.0625 95.27292 352.875 95.99167Q352.6875 96.71042 352.32812 97.14792Q351.98438 97.58542 351.48438 97.78854Q351.0 97.99167 350.375 97.99167Q349.89062 97.99167 349.46875 97.86667Q349.04688 97.74167 348.71875 97.47604Q348.39062 97.19479 348.15625 96.75729Q347.92188 96.31979 347.79688 95.69479Q347.67188 95.05417 347.67188 94.22604L347.67188 92.91354Q347.67188 91.86667 347.85938 91.16354Q348.0625 90.46042 348.40625 90.02292Q348.76562 89.58542 349.25 89.39792Q349.75 89.21042 350.35938 89.21042Q350.85938 89.21042 351.28125 89.33542Q351.70312 89.46042 352.03125 89.72604Q352.35938 89.97604 352.57812 90.41354Q352.8125 90.83542 352.9375 91.46042Q353.0625 92.08542 353.0625 92.91354ZM351.96875 94.39792L351.96875 92.74167Q351.96875 92.16354 351.90625 91.72604Q351.84375 91.28854 351.70312 90.97604Q351.57812 90.66354 351.375 90.47604Q351.1875 90.28854 350.9375 90.19479Q350.6875 90.10104 350.35938 90.10104Q349.98438 90.10104 349.67188 90.24167Q349.375 90.38229 349.17188 90.69479Q348.96875 91.00729 348.85938 91.52292Q348.76562 92.02292 348.76562 92.74167L348.76562 94.39792Q348.76562 94.97604 348.82812 95.41354Q348.90625 95.85104 349.03125 96.17917Q349.17188 96.49167 349.35938 96.69479Q349.5625 96.89792 349.8125 96.99167Q350.0625 97.08542 350.375 97.08542Q350.78125 97.08542 351.07812 96.94479Q351.375 96.78854 351.57812 96.46042Q351.78125 96.13229 351.875 95.63229Q351.96875 95.11667 351.96875 94.39792ZM355.8125 96.56979L355.8125 97.44479Q355.8125 97.99167 355.53125 98.58542Q355.26562 99.17917 354.78125 99.56979L354.17188 99.14792Q354.35938 98.88229 354.48438 98.61667Q354.60938 98.35104 354.67188 98.06979Q354.75 97.78854 354.75 97.46042L354.75 96.56979L355.8125 96.56979ZM362.46875 94.99167L362.46875 95.88229L356.3125 95.88229L356.3125 95.24167L360.125 89.33542L361.01562 89.33542L360.0625 91.03854L357.54688 94.99167L362.46875 94.99167ZM361.28125 89.33542L361.28125 97.86667L360.20312 97.86667L360.20312 89.33542L361.28125 89.33542Z" fill-rule="nonzero"/><path stroke="#cccccc" stroke-width="1.0" stroke-linecap="butt" d="M365.0 290.0L365.0 101.0" fill-rule="nonzero"/><path fill="#000000" d="M339.29688 74.5L337.51562 74.5L337.53125 73.578125L339.29688 73.578125Q340.21875 73.578125 340.82812 73.203125Q341.4375 72.8125 341.73438 72.125Q342.04688 71.421875 342.04688 70.484375L342.04688 69.96875Q342.04688 69.234375 341.875 68.671875Q341.70312 68.09375 341.35938 67.703125Q341.01562 67.296875 340.51562 67.09375Q340.03125 66.890625 339.40625 66.890625L337.48438 66.890625L337.48438 65.96875L339.40625 65.96875Q340.25 65.96875 340.9375 66.25Q341.625 66.53125 342.125 67.0625Q342.625 67.578125 342.89062 68.328125Q343.17188 69.0625 343.17188 69.984375L343.17188 70.484375Q343.17188 71.421875 342.89062 72.171875Q342.625 72.90625 342.10938 73.421875Q341.60938 73.9375 340.89062 74.21875Q340.1875 74.5 339.29688 74.5ZM338.125 65.96875L338.125 74.5L336.98438 74.5L336.98438 65.96875L338.125 65.96875ZM347.07812 70.421875L347.07812 71.3125L344.21875 71.3125L344.21875 70.421875L347.07812 70.421875ZM353.17188 73.578125L353.17188 74.5L348.90625 74.5L348.90625 73.578125L353.17188 73.578125ZM349.125 65.96875L349.125 74.5L347.98438 74.5L347.98438 65.96875L349.125 65.96875ZM355.0 68.15625L355.0 74.5L353.92188 74.5L353.92188 68.15625L355.0 68.15625ZM353.82812 66.484375Q353.82812 66.21875 353.98438 66.03125Q354.15625 65.84375 354.46875 65.84375Q354.78125 65.84375 354.9375 66.03125Q355.10938 66.21875 355.10938 66.484375Q355.10938 66.734375 354.9375 66.921875Q354.78125 67.09375 354.46875 67.09375Q354.15625 67.09375 353.98438 66.921875Q353.82812 66.734375 353.82812 66.484375ZM357.90625 69.421875L357.90625 74.5L356.8125 74.5L356.8125 68.15625L357.84375 68.15625L357.90625 69.421875ZM357.6875 71.09375L357.17188 71.078125Q357.1875 70.421875 357.34375 69.875Q357.51562 69.3125 357.82812 68.90625Q358.15625 68.5 358.64062 68.28125Q359.125 68.046875 359.75 68.046875Q360.20312 68.046875 360.57812 68.171875Q360.95312 68.296875 361.21875 68.5625Q361.5 68.828125 361.64062 69.25Q361.79688 69.671875 361.79688 70.28125L361.79688 74.5L360.71875 74.5L360.71875 70.328125Q360.71875 69.828125 360.54688 69.53125Q360.39062 69.234375 360.07812 69.09375Q359.78125 68.953125 359.35938 68.953125Q358.89062 68.953125 358.5625 69.125Q358.23438 69.296875 358.04688 69.59375Q357.85938 69.890625 357.76562 70.28125Q357.6875 70.65625 357.6875 71.09375ZM361.79688 70.484375L361.0625 70.71875Q361.0625 70.1875 361.23438 69.71875Q361.40625 69.234375 361.71875 68.859375Q362.04688 68.484375 362.51562 68.265625Q362.98438 68.046875 363.57812 68.046875Q364.09375 68.046875 364.48438 68.1875Q364.89062 68.3125 365.15625 68.59375Q365.42188 68.875 365.5625 69.3125Q365.70312 69.734375 365.70312 70.328125L365.70312 74.5L364.625 74.5L364.625 70.328125Q364.625 69.78125 364.45312 69.5Q364.28125 69.203125 363.98438 69.078125Q363.6875 68.953125 363.26562 68.953125Q362.90625 68.953125 362.625 69.078125Q362.35938 69.203125 362.17188 69.421875Q361.98438 69.625 361.89062 69.90625Q361.79688 70.1875 361.79688 70.484375ZM367.54688 71.40625L367.54688 71.265625Q367.54688 70.578125 367.73438 70.0Q367.9375 69.40625 368.3125 68.96875Q368.6875 68.53125 369.21875 68.296875Q369.75 68.046875 370.42188 68.046875Q371.07812 68.046875 371.60938 68.296875Q372.15625 68.53125 372.53125 68.96875Q372.90625 69.40625 373.10938 70.0Q373.3125 70.578125 373.3125 71.265625L373.3125 71.40625Q373.3125 72.078125 373.10938 72.671875Q372.90625 73.25 372.53125 73.6875Q372.15625 74.125 371.625 74.375Q371.09375 74.625 370.42188 74.625Q369.76562 74.625 369.21875 74.375Q368.6875 74.125 368.3125 73.6875Q367.9375 73.25 367.73438 72.671875Q367.54688 72.078125 367.54688 71.40625ZM368.625 71.265625L368.625 71.40625Q368.625 71.875 368.73438 72.296875Q368.84375 72.71875 369.0625 73.046875Q369.29688 73.359375 369.64062 73.546875Q369.98438 73.71875 370.42188 73.71875Q370.875 73.71875 371.20312 73.546875Q371.54688 73.359375 371.76562 73.046875Q372.0 72.71875 372.10938 72.296875Q372.21875 71.875 372.21875 71.40625L372.21875 71.265625Q372.21875 70.796875 372.10938 70.375Q372.0 69.953125 371.76562 69.640625Q371.54688 69.3125 371.20312 69.125Q370.875 68.9375 370.42188 68.9375Q369.96875 68.9375 369.625 69.125Q369.29688 69.3125 369.0625 69.640625Q368.84375 69.953125 368.73438 70.375Q368.625 70.796875 368.625 71.265625ZM375.90625 69.515625L375.90625 74.5L374.82812 74.5L374.82812 68.15625L375.85938 68.15625L375.90625 69.515625ZM375.65625 71.09375L375.20312 71.078125Q375.20312 70.421875 375.39062 69.875Q375.57812 69.3125 375.92188 68.90625Q376.26562 68.5 376.73438 68.28125Q377.20312 68.046875 377.78125 68.046875Q378.25 68.046875 378.625 68.171875Q379.0 68.296875 379.26562 68.578125Q379.53125 68.84375 379.67188 69.28125Q379.8125 69.71875 379.8125 70.34375L379.8125 74.5L378.71875 74.5L378.71875 70.328125Q378.71875 69.828125 378.57812 69.53125Q378.4375 69.234375 378.15625 69.09375Q377.875 68.953125 377.45312 68.953125Q377.04688 68.953125 376.71875 69.125Q376.39062 69.296875 376.15625 69.59375Q375.92188 69.890625 375.78125 70.28125Q375.65625 70.65625 375.65625 71.09375ZM384.45312 74.625Q383.79688 74.625 383.25 74.40625Q382.71875 74.171875 382.32812 73.765625Q381.95312 73.34375 381.75 72.78125Q381.54688 72.21875 381.54688 71.546875L381.54688 71.3125Q381.54688 70.53125 381.76562 69.921875Q382.0 69.3125 382.39062 68.890625Q382.78125 68.46875 383.28125 68.265625Q383.78125 68.046875 384.3125 68.046875Q385.0 68.046875 385.48438 68.28125Q385.98438 68.515625 386.29688 68.9375Q386.625 69.34375 386.76562 69.921875Q386.92188 70.484375 386.92188 71.140625L386.92188 71.640625L382.1875 71.640625L382.1875 70.75L385.84375 70.75L385.84375 70.671875Q385.8125 70.25 385.65625 69.859375Q385.51562 69.453125 385.1875 69.203125Q384.875 68.9375 384.3125 68.9375Q383.95312 68.9375 383.64062 69.09375Q383.32812 69.25 383.09375 69.5625Q382.875 69.859375 382.75 70.296875Q382.64062 70.734375 382.64062 71.3125L382.64062 71.546875Q382.64062 72.0 382.76562 72.40625Q382.89062 72.796875 383.125 73.09375Q383.375 73.390625 383.71875 73.5625Q384.07812 73.734375 384.51562 73.734375Q385.09375 73.734375 385.48438 73.5Q385.89062 73.265625 386.1875 72.875L386.84375 73.390625Q386.64062 73.703125 386.3125 73.984375Q386.0 74.265625 385.53125 74.453125Q385.07812 74.625 384.45312 74.625ZM388.90625 69.515625L388.90625 74.5L387.82812 74.5L387.82812 68.15625L388.85938 68.15625L388.90625 69.515625ZM388.65625 71.09375L388.20312 71.078125Q388.20312 70.421875 388.39062 69.875Q388.57812 69.3125 388.92188 68.90625Q389.26562 68.5 389.73438 68.28125Q390.20312 68.046875 390.78125 68.046875Q391.25 68.046875 391.625 68.171875Q392.0 68.296875 392.26562 68.578125Q392.53125 68.84375 392.67188 69.28125Q392.8125 69.71875 392.8125 70.34375L392.8125 74.5L391.71875 74.5L391.71875 70.328125Q391.71875 69.828125 391.57812 69.53125Q391.4375 69.234375 391.15625 69.09375Q390.875 68.953125 390.45312 68.953125Q390.04688 68.953125 389.71875 69.125Q389.39062 69.296875 389.15625 69.59375Q388.92188 69.890625 388.78125 70.28125Q388.65625 70.65625 388.65625 71.09375Z" fill-rule="nonzero"/><path stroke="#cccccc" stroke-width="1.0" stroke-linecap="butt" d="M365.0 290.0L529.0 195.0" fill-rule="nonzero"/><path fill="#000000" d="M525.6406 181.78125L526.7656 181.78125Q526.6719 182.59375 526.2969 183.23438Q525.9219 183.875 525.2344 184.25Q524.5625 184.625 523.53125 184.625Q522.78125 184.625 522.1719 184.34375Q521.5625 184.04688 521.1094 183.53125Q520.6719 183.01562 520.4375 182.29688Q520.2031 181.5625 520.2031 180.65625L520.2031 179.8125Q520.2031 178.92188 520.4375 178.1875Q520.6719 177.45312 521.125 176.9375Q521.5781 176.40625 522.2031 176.125Q522.84375 175.84375 523.625 175.84375Q524.59375 175.84375 525.2656 176.21875Q525.9375 176.57812 526.2969 177.21875Q526.6719 177.85938 526.7656 178.70312L525.6406 178.70312Q525.5625 178.10938 525.3281 177.6875Q525.1094 177.25 524.7031 177.01562Q524.2969 176.78125 523.625 176.78125Q523.0625 176.78125 522.625 177.0Q522.2031 177.20312 521.90625 177.60938Q521.625 178.0 521.46875 178.5625Q521.3281 179.125 521.3281 179.79688L521.3281 180.65625Q521.3281 181.28125 521.4531 181.84375Q521.59375 182.39062 521.8594 182.8125Q522.125 183.21875 522.5469 183.46875Q522.96875 183.70312 523.53125 183.70312Q524.25 183.70312 524.6719 183.46875Q525.1094 183.23438 525.3281 182.8125Q525.5469 182.39062 525.6406 181.78125ZM532.0625 183.42188L532.0625 180.15625Q532.0625 179.78125 531.90625 179.5Q531.7656 179.21875 531.46875 179.07812Q531.1719 178.92188 530.7344 178.92188Q530.3125 178.92188 530.0 179.0625Q529.7031 179.20312 529.53125 179.4375Q529.3594 179.65625 529.3594 179.92188L528.28125 179.92188Q528.28125 179.57812 528.4531 179.25Q528.625 178.90625 528.9531 178.64062Q529.28125 178.35938 529.75 178.20312Q530.21875 178.04688 530.7969 178.04688Q531.4844 178.04688 532.0156 178.28125Q532.5469 178.51562 532.84375 178.98438Q533.15625 179.45312 533.15625 180.15625L533.15625 183.10938Q533.15625 183.4375 533.2031 183.79688Q533.2656 184.14062 533.375 184.40625L533.375 184.5L532.2344 184.5Q532.15625 184.3125 532.1094 184.0Q532.0625 183.6875 532.0625 183.42188ZM532.25 180.65625L532.2656 181.42188L531.1719 181.42188Q530.7031 181.42188 530.34375 181.5Q529.9844 181.5625 529.7344 181.71875Q529.4844 181.85938 529.3594 182.07812Q529.2344 182.29688 529.2344 182.59375Q529.2344 182.89062 529.3594 183.14062Q529.5 183.375 529.7656 183.53125Q530.0469 183.67188 530.4375 183.67188Q530.9375 183.67188 531.3125 183.46875Q531.7031 183.25 531.9219 182.95312Q532.15625 182.64062 532.1719 182.34375L532.6406 182.875Q532.59375 183.10938 532.40625 183.42188Q532.2344 183.71875 531.9219 184.0Q531.625 184.26562 531.2031 184.45312Q530.7969 184.625 530.28125 184.625Q529.6406 184.625 529.15625 184.375Q528.6719 184.10938 528.40625 183.6875Q528.1406 183.26562 528.1406 182.73438Q528.1406 182.21875 528.3281 181.84375Q528.53125 181.45312 528.90625 181.1875Q529.28125 180.92188 529.8125 180.79688Q530.34375 180.65625 531.0 180.65625L532.25 180.65625ZM536.40625 179.15625L536.40625 184.5L535.3281 184.5L535.3281 178.15625L536.375 178.15625L536.40625 179.15625ZM538.3906 178.125L538.3906 179.125Q538.25 179.10938 538.125 179.09375Q538.0156 179.07812 537.8594 179.07812Q537.4844 179.07812 537.1875 179.20312Q536.90625 179.3125 536.7031 179.53125Q536.5156 179.73438 536.3906 180.03125Q536.28125 180.32812 536.25 180.67188L535.9375 180.84375Q535.9375 180.26562 536.0469 179.76562Q536.1719 179.26562 536.40625 178.875Q536.65625 178.48438 537.0156 178.26562Q537.3906 178.04688 537.90625 178.04688Q538.03125 178.04688 538.1719 178.07812Q538.3281 178.09375 538.3906 178.125ZM541.1094 183.84375L542.875 178.15625L544.03125 178.15625L541.4844 185.48438Q541.40625 185.71875 541.25 185.98438Q541.1094 186.26562 540.8906 186.5Q540.6719 186.75 540.3594 186.90625Q540.0469 187.0625 539.6094 187.0625Q539.4844 187.0625 539.28125 187.01562Q539.0781 186.98438 539.0 186.96875L539.0 186.09375Q539.0469 186.09375 539.1406 186.09375Q539.25 186.10938 539.28125 186.10938Q539.65625 186.10938 539.90625 186.01562Q540.1719 185.92188 540.34375 185.6875Q540.53125 185.46875 540.65625 185.07812L541.1094 183.84375ZM539.8125 178.15625L541.4531 183.07812L541.7344 184.21875L540.96875 184.625L538.625 178.15625L539.8125 178.15625ZM545.0469 181.40625L545.0469 181.26562Q545.0469 180.57812 545.2344 180.0Q545.4375 179.40625 545.8125 178.96875Q546.1875 178.53125 546.71875 178.29688Q547.25 178.04688 547.9219 178.04688Q548.5781 178.04688 549.1094 178.29688Q549.65625 178.53125 550.03125 178.96875Q550.40625 179.40625 550.6094 180.0Q550.8125 180.57812 550.8125 181.26562L550.8125 181.40625Q550.8125 182.07812 550.6094 182.67188Q550.40625 183.25 550.03125 183.6875Q549.65625 184.125 549.125 184.375Q548.59375 184.625 547.9219 184.625Q547.2656 184.625 546.71875 184.375Q546.1875 184.125 545.8125 183.6875Q545.4375 183.25 545.2344 182.67188Q545.0469 182.07812 545.0469 181.40625ZM546.125 181.26562L546.125 181.40625Q546.125 181.875 546.2344 182.29688Q546.34375 182.71875 546.5625 183.04688Q546.7969 183.35938 547.1406 183.54688Q547.4844 183.71875 547.9219 183.71875Q548.375 183.71875 548.7031 183.54688Q549.0469 183.35938 549.2656 183.04688Q549.5 182.71875 549.6094 182.29688Q549.71875 181.875 549.71875 181.40625L549.71875 181.26562Q549.71875 180.79688 549.6094 180.375Q549.5 179.95312 549.2656 179.64062Q549.0469 179.3125 548.7031 179.125Q548.375 178.9375 547.9219 178.9375Q547.46875 178.9375 547.125 179.125Q546.7969 179.3125 546.5625 179.64062Q546.34375 179.95312 546.2344 180.375Q546.125 180.79688 546.125 181.26562ZM553.40625 179.375L553.40625 186.9375L552.3281 186.9375L552.3281 178.15625L553.3125 178.15625L553.40625 179.375ZM557.6875 181.28125L557.6875 181.40625Q557.6875 182.09375 557.5156 182.6875Q557.3594 183.26562 557.0469 183.70312Q556.7344 184.14062 556.2656 184.39062Q555.8125 184.625 555.21875 184.625Q554.625 184.625 554.15625 184.42188Q553.6875 184.21875 553.3594 183.84375Q553.0469 183.45312 552.8594 182.92188Q552.6719 182.39062 552.59375 181.71875L552.59375 181.0625Q552.6719 180.35938 552.8594 179.8125Q553.0469 179.25 553.3594 178.85938Q553.6875 178.45312 554.1406 178.25Q554.6094 178.04688 555.2031 178.04688Q555.7969 178.04688 556.2656 178.28125Q556.7344 178.5 557.0469 178.9375Q557.3594 179.35938 557.5156 179.95312Q557.6875 180.54688 557.6875 181.28125ZM556.59375 181.40625L556.59375 181.28125Q556.59375 180.79688 556.4844 180.39062Q556.3906 179.96875 556.1875 179.65625Q555.9844 179.32812 555.65625 179.14062Q555.3281 178.95312 554.8906 178.95312Q554.4844 178.95312 554.1719 179.09375Q553.875 179.23438 553.65625 179.48438Q553.4531 179.71875 553.3125 180.01562Q553.1875 180.3125 553.125 180.64062L553.125 182.15625Q553.2344 182.5625 553.4375 182.92188Q553.65625 183.28125 554.0 183.5Q554.3594 183.71875 554.90625 183.71875Q555.34375 183.71875 555.65625 183.54688Q555.9844 183.35938 556.1875 183.04688Q556.3906 182.71875 556.4844 182.29688Q556.59375 181.875 556.59375 181.40625ZM560.40625 175.5L560.40625 184.5L559.3281 184.5L559.3281 175.5L560.40625 175.5ZM560.15625 181.09375L559.7031 181.07812Q559.7031 180.42188 559.8906 179.875Q560.0781 179.3125 560.4219 178.90625Q560.7656 178.5 561.2344 178.28125Q561.7031 178.04688 562.28125 178.04688Q562.75 178.04688 563.125 178.17188Q563.5 178.29688 563.7656 178.57812Q564.03125 178.84375 564.1719 179.28125Q564.3125 179.71875 564.3125 180.34375L564.3125 184.5L563.21875 184.5L563.21875 180.32812Q563.21875 179.82812 563.0781 179.53125Q562.9375 179.23438 562.65625 179.09375Q562.375 178.95312 561.9531 178.95312Q561.5469 178.95312 561.21875 179.125Q560.8906 179.29688 560.65625 179.59375Q560.4219 179.89062 560.28125 180.28125Q560.15625 180.65625 560.15625 181.09375ZM568.1094 183.84375L569.875 178.15625L571.03125 178.15625L568.4844 185.48438Q568.40625 185.71875 568.25 185.98438Q568.1094 186.26562 567.8906 186.5Q567.6719 186.75 567.3594 186.90625Q567.0469 187.0625 566.6094 187.0625Q566.4844 187.0625 566.28125 187.01562Q566.0781 186.98438 566.0 186.96875L566.0 186.09375Q566.0469 186.09375 566.1406 186.09375Q566.25 186.10938 566.28125 186.10938Q566.65625 186.10938 566.90625 186.01562Q567.1719 185.92188 567.34375 185.6875Q567.53125 185.46875 567.65625 185.07812L568.1094 183.84375ZM566.8125 178.15625L568.4531 183.07812L568.7344 184.21875L567.96875 184.625L565.625 178.15625L566.8125 178.15625ZM573.5 175.5L573.5 184.5L572.4219 184.5L572.4219 175.5L573.5 175.5ZM576.5 175.5L576.5 184.5L575.4219 184.5L575.4219 175.5L576.5 175.5ZM580.9531 184.625Q580.2969 184.625 579.75 184.40625Q579.21875 184.17188 578.8281 183.76562Q578.4531 183.34375 578.25 182.78125Q578.0469 182.21875 578.0469 181.54688L578.0469 181.3125Q578.0469 180.53125 578.2656 179.92188Q578.5 179.3125 578.8906 178.89062Q579.28125 178.46875 579.78125 178.26562Q580.28125 178.04688 580.8125 178.04688Q581.5 178.04688 581.9844 178.28125Q582.4844 178.51562 582.7969 178.9375Q583.125 179.34375 583.2656 179.92188Q583.4219 180.48438 583.4219 181.14062L583.4219 181.64062L578.6875 181.64062L578.6875 180.75L582.34375 180.75L582.34375 180.67188Q582.3125 180.25 582.15625 179.85938Q582.0156 179.45312 581.6875 179.20312Q581.375 178.9375 580.8125 178.9375Q580.4531 178.9375 580.1406 179.09375Q579.8281 179.25 579.59375 179.5625Q579.375 179.85938 579.25 180.29688Q579.1406 180.73438 579.1406 181.3125L579.1406 181.54688Q579.1406 182.0 579.2656 182.40625Q579.3906 182.79688 579.625 183.09375Q579.875 183.39062 580.21875 183.5625Q580.5781 183.73438 581.0156 183.73438Q581.59375 183.73438 581.9844 183.5Q582.3906 183.26562 582.6875 182.875L583.34375 183.39062Q583.1406 183.70312 582.8125 183.98438Q582.5 184.26562 582.03125 184.45312Q581.5781 184.625 580.9531 184.625ZM585.40625 179.51562L585.40625 184.5L584.3281 184.5L584.3281 178.15625L585.3594 178.15625L585.40625 179.51562ZM585.15625 181.09375L584.7031 181.07812Q584.7031 180.42188 584.8906 179.875Q585.0781 179.3125 585.4219 178.90625Q585.7656 178.5 586.2344 178.28125Q586.7031 178.04688 587.28125 178.04688Q587.75 178.04688 588.125 178.17188Q588.5 178.29688 588.7656 178.57812Q589.03125 178.84375 589.1719 179.28125Q589.3125 179.71875 589.3125 180.34375L589.3125 184.5L588.21875 184.5L588.21875 180.32812Q588.21875 179.82812 588.0781 179.53125Q587.9375 179.23438 587.65625 179.09375Q587.375 178.95312 586.9531 178.95312Q586.5469 178.95312 586.21875 179.125Q585.8906 179.29688 585.65625 179.59375Q585.4219 179.89062 585.28125 180.28125Q585.15625 180.65625 585.15625 181.09375Z" fill-rule="nonzero"/><path stroke="#cccccc" stroke-width="1.0" stroke-linecap="butt" d="M365.0 290.0L529.0 385.0" fill-rule="nonzero"/><path fill="#000000" d="M533.53125 399.67188L534.3906 399.67188Q535.2031 399.67188 535.7656 399.98438Q536.34375 400.28125 536.6406 400.8125Q536.9531 401.34375 536.9531 402.01562Q536.9531 402.84375 536.6094 403.42188Q536.2656 404.0 535.6719 404.3125Q535.0781 404.625 534.2969 404.625Q533.84375 404.625 533.3906 404.5Q532.9375 404.35938 532.5625 404.09375Q532.2031 403.82812 531.9844 403.40625Q531.7656 402.98438 531.7656 402.40625L532.1875 402.15625Q532.1875 402.59375 532.4375 402.95312Q532.7031 403.29688 533.1406 403.51562Q533.59375 403.73438 534.1875 403.73438Q534.71875 403.73438 535.09375 403.51562Q535.46875 403.29688 535.6719 402.92188Q535.875 402.53125 535.875 402.03125Q535.875 401.625 535.6875 401.25Q535.5156 400.85938 535.1875 400.60938Q534.8594 400.35938 534.375 400.35938L533.53125 400.35938L533.53125 399.67188ZM534.0469 395.84375Q534.8125 395.84375 535.375 396.14062Q535.9375 396.4375 536.2344 396.95312Q536.5469 397.46875 536.5469 398.14062Q536.5469 398.70312 536.2344 399.17188Q535.9375 399.625 535.375 399.90625Q534.8125 400.17188 534.0469 400.17188L533.53125 400.17188L533.53125 399.46875L534.03125 399.46875Q534.5469 399.46875 534.8594 399.29688Q535.1719 399.125 535.3125 398.82812Q535.46875 398.51562 535.46875 398.125Q535.46875 397.76562 535.3125 397.45312Q535.15625 397.14062 534.84375 396.9375Q534.53125 396.73438 534.0469 396.73438Q533.625 396.73438 533.28125 396.9375Q532.9375 397.125 532.7344 397.46875Q532.53125 397.79688 532.53125 398.21875L532.53125 406.75L531.4375 406.75L531.4375 398.21875Q531.4375 397.5625 531.7969 397.03125Q532.15625 396.48438 532.75 396.17188Q533.34375 395.84375 534.0469 395.84375ZM540.5781 400.42188L540.5781 401.3125L537.71875 401.3125L537.71875 400.42188L540.5781 400.42188ZM541.84375 395.96875L542.9375 395.96875L545.7344 402.92188L548.53125 395.96875L549.625 395.96875L546.15625 404.5L545.3125 404.5L541.84375 395.96875ZM541.4844 395.96875L542.4531 395.96875L542.6094 401.17188L542.6094 404.5L541.4844 404.5L541.4844 395.96875ZM549.0156 395.96875L549.9844 395.96875L549.9844 404.5L548.8594 404.5L548.8594 401.17188L549.0156 395.96875ZM553.1094 403.84375L554.875 398.15625L556.03125 398.15625L553.4844 405.48438Q553.40625 405.71875 553.25 405.98438Q553.1094 406.26562 552.8906 406.5Q552.6719 406.75 552.3594 406.90625Q552.0469 407.0625 551.6094 407.0625Q551.4844 407.0625 551.28125 407.01562Q551.0781 406.98438 551.0 406.96875L551.0 406.09375Q551.0469 406.09375 551.1406 406.09375Q551.25 406.10938 551.28125 406.10938Q551.65625 406.10938 551.90625 406.01562Q552.1719 405.92188 552.34375 405.6875Q552.53125 405.46875 552.65625 405.07812L553.1094 403.84375ZM551.8125 398.15625L553.4531 403.07812L553.7344 404.21875L552.96875 404.625L550.625 398.15625L551.8125 398.15625ZM558.40625 399.15625L558.40625 404.5L557.3281 404.5L557.3281 398.15625L558.375 398.15625L558.40625 399.15625ZM560.3906 398.125L560.3906 399.125Q560.25 399.10938 560.125 399.09375Q560.0156 399.07812 559.8594 399.07812Q559.4844 399.07812 559.1875 399.20312Q558.90625 399.3125 558.7031 399.53125Q558.5156 399.73438 558.3906 400.03125Q558.28125 400.32812 558.25 400.67188L557.9375 400.84375Q557.9375 400.26562 558.0469 399.76562Q558.1719 399.26562 558.40625 398.875Q558.65625 398.48438 559.0156 398.26562Q559.3906 398.04688 559.90625 398.04688Q560.03125 398.04688 560.1719 398.07812Q560.3281 398.09375 560.3906 398.125ZM563.8594 403.71875Q564.25 403.71875 564.5781 403.5625Q564.90625 403.40625 565.1094 403.14062Q565.3281 402.85938 565.3594 402.5L566.3906 402.5Q566.3594 403.0625 566.0 403.54688Q565.65625 404.03125 565.09375 404.32812Q564.53125 404.625 563.8594 404.625Q563.15625 404.625 562.625 404.375Q562.09375 404.10938 561.7344 403.67188Q561.3906 403.23438 561.21875 402.67188Q561.0469 402.09375 561.0469 401.45312L561.0469 401.20312Q561.0469 400.5625 561.21875 400.0Q561.3906 399.42188 561.7344 398.98438Q562.09375 398.54688 562.625 398.29688Q563.15625 398.04688 563.8594 398.04688Q564.6094 398.04688 565.15625 398.34375Q565.71875 398.64062 566.03125 399.17188Q566.3594 399.6875 566.3906 400.34375L565.3594 400.34375Q565.3281 399.95312 565.1406 399.64062Q564.9531 399.3125 564.625 399.125Q564.2969 398.9375 563.8594 398.9375Q563.3594 398.9375 563.0156 399.14062Q562.6875 399.32812 562.4844 399.65625Q562.2969 399.98438 562.2031 400.39062Q562.125 400.79688 562.125 401.20312L562.125 401.45312Q562.125 401.875 562.2031 402.28125Q562.2969 402.67188 562.4844 403.0Q562.6875 403.32812 563.0156 403.53125Q563.3594 403.71875 563.8594 403.71875ZM569.9531 404.625Q569.2969 404.625 568.75 404.40625Q568.21875 404.17188 567.8281 403.76562Q567.4531 403.34375 567.25 402.78125Q567.0469 402.21875 567.0469 401.54688L567.0469 401.3125Q567.0469 400.53125 567.2656 399.92188Q567.5 399.3125 567.8906 398.89062Q568.28125 398.46875 568.78125 398.26562Q569.28125 398.04688 569.8125 398.04688Q570.5 398.04688 570.9844 398.28125Q571.4844 398.51562 571.7969 398.9375Q572.125 399.34375 572.2656 399.92188Q572.4219 400.48438 572.4219 401.14062L572.4219 401.64062L567.6875 401.64062L567.6875 400.75L571.34375 400.75L571.34375 400.67188Q571.3125 400.25 571.15625 399.85938Q571.0156 399.45312 570.6875 399.20312Q570.375 398.9375 569.8125 398.9375Q569.4531 398.9375 569.1406 399.09375Q568.8281 399.25 568.59375 399.5625Q568.375 399.85938 568.25 400.29688Q568.1406 400.73438 568.1406 401.3125L568.1406 401.54688Q568.1406 402.0 568.2656 402.40625Q568.3906 402.79688 568.625 403.09375Q568.875 403.39062 569.21875 403.5625Q569.5781 403.73438 570.0156 403.73438Q570.59375 403.73438 570.9844 403.5Q571.3906 403.26562 571.6875 402.875L572.34375 403.39062Q572.1406 403.70312 571.8125 403.98438Q571.5 404.26562 571.03125 404.45312Q570.5781 404.625 569.9531 404.625ZM574.40625 399.51562L574.40625 404.5L573.3281 404.5L573.3281 398.15625L574.3594 398.15625L574.40625 399.51562ZM574.15625 401.09375L573.7031 401.07812Q573.7031 400.42188 573.8906 399.875Q574.0781 399.3125 574.4219 398.90625Q574.7656 398.5 575.2344 398.28125Q575.7031 398.04688 576.28125 398.04688Q576.75 398.04688 577.125 398.17188Q577.5 398.29688 577.7656 398.57812Q578.03125 398.84375 578.1719 399.28125Q578.3125 399.71875 578.3125 400.34375L578.3125 404.5L577.21875 404.5L577.21875 400.32812Q577.21875 399.82812 577.0781 399.53125Q576.9375 399.23438 576.65625 399.09375Q576.375 398.95312 575.9531 398.95312Q575.5469 398.95312 575.21875 399.125Q574.8906 399.29688 574.65625 399.59375Q574.4219 399.89062 574.28125 400.28125Q574.15625 400.65625 574.15625 401.09375Z" fill-rule="nonzero"/><path stroke="#cccccc" stroke-width="1.0" stroke-linecap="butt" d="M365.0 290.0L365.0 479.0" fill-rule="nonzero"/><path fill="#000000" d="M349.67188 513.5781L349.67188 514.5L345.40625 514.5L345.40625 513.5781L349.67188 513.5781ZM345.625 505.96875L345.625 514.5L344.48438 514.5L344.48438 505.96875L345.625 505.96875ZM351.5 508.15625L351.5 514.5L350.42188 514.5L350.42188 508.15625L351.5 508.15625ZM350.32812 506.48438Q350.32812 506.21875 350.48438 506.03125Q350.65625 505.84375 350.96875 505.84375Q351.28125 505.84375 351.4375 506.03125Q351.60938 506.21875 351.60938 506.48438Q351.60938 506.73438 351.4375 506.92188Q351.28125 507.09375 350.96875 507.09375Q350.65625 507.09375 350.48438 506.92188Q350.32812 506.73438 350.32812 506.48438ZM354.40625 509.51562L354.40625 514.5L353.32812 514.5L353.32812 508.15625L354.35938 508.15625L354.40625 509.51562ZM354.15625 511.09375L353.70312 511.07812Q353.70312 510.42188 353.89062 509.875Q354.07812 509.3125 354.42188 508.90625Q354.76562 508.5 355.23438 508.28125Q355.70312 508.04688 356.28125 508.04688Q356.75 508.04688 357.125 508.17188Q357.5 508.29688 357.76562 508.57812Q358.03125 508.84375 358.17188 509.28125Q358.3125 509.71875 358.3125 510.34375L358.3125 514.5L357.21875 514.5L357.21875 510.32812Q357.21875 509.82812 357.07812 509.53125Q356.9375 509.23438 356.65625 509.09375Q356.375 508.95312 355.95312 508.95312Q355.54688 508.95312 355.21875 509.125Q354.89062 509.29688 354.65625 509.59375Q354.42188 509.89062 354.28125 510.28125Q354.15625 510.65625 354.15625 511.09375ZM364.0625 513.4219L364.0625 510.15625Q364.0625 509.78125 363.90625 509.5Q363.76562 509.21875 363.46875 509.07812Q363.17188 508.92188 362.73438 508.92188Q362.3125 508.92188 362.0 509.0625Q361.70312 509.20312 361.53125 509.4375Q361.35938 509.65625 361.35938 509.92188L360.28125 509.92188Q360.28125 509.57812 360.45312 509.25Q360.625 508.90625 360.95312 508.64062Q361.28125 508.35938 361.75 508.20312Q362.21875 508.04688 362.79688 508.04688Q363.48438 508.04688 364.01562 508.28125Q364.54688 508.51562 364.84375 508.98438Q365.15625 509.45312 365.15625 510.15625L365.15625 513.1094Q365.15625 513.4375 365.20312 513.7969Q365.26562 514.1406 365.375 514.40625L365.375 514.5L364.23438 514.5Q364.15625 514.3125 364.10938 514.0Q364.0625 513.6875 364.0625 513.4219ZM364.25 510.65625L364.26562 511.42188L363.17188 511.42188Q362.70312 511.42188 362.34375 511.5Q361.98438 511.5625 361.73438 511.71875Q361.48438 511.85938 361.35938 512.0781Q361.23438 512.2969 361.23438 512.59375Q361.23438 512.8906 361.35938 513.1406Q361.5 513.375 361.76562 513.53125Q362.04688 513.6719 362.4375 513.6719Q362.9375 513.6719 363.3125 513.46875Q363.70312 513.25 363.92188 512.9531Q364.15625 512.6406 364.17188 512.34375L364.64062 512.875Q364.59375 513.1094 364.40625 513.4219Q364.23438 513.71875 363.92188 514.0Q363.625 514.2656 363.20312 514.4531Q362.79688 514.625 362.28125 514.625Q361.64062 514.625 361.15625 514.375Q360.67188 514.1094 360.40625 513.6875Q360.14062 513.2656 360.14062 512.7344Q360.14062 512.21875 360.32812 511.84375Q360.53125 511.45312 360.90625 511.1875Q361.28125 510.92188 361.8125 510.79688Q362.34375 510.65625 363.0 510.65625L364.25 510.65625ZM368.5 505.5L368.5 514.5L367.42188 514.5L367.42188 505.5L368.5 505.5ZM370.04688 511.40625L370.04688 511.26562Q370.04688 510.57812 370.23438 510.0Q370.4375 509.40625 370.8125 508.96875Q371.1875 508.53125 371.71875 508.29688Q372.25 508.04688 372.92188 508.04688Q373.57812 508.04688 374.10938 508.29688Q374.65625 508.53125 375.03125 508.96875Q375.40625 509.40625 375.60938 510.0Q375.8125 510.57812 375.8125 511.26562L375.8125 511.40625Q375.8125 512.0781 375.60938 512.6719Q375.40625 513.25 375.03125 513.6875Q374.65625 514.125 374.125 514.375Q373.59375 514.625 372.92188 514.625Q372.26562 514.625 371.71875 514.375Q371.1875 514.125 370.8125 513.6875Q370.4375 513.25 370.23438 512.6719Q370.04688 512.0781 370.04688 511.40625ZM371.125 511.26562L371.125 511.40625Q371.125 511.875 371.23438 512.2969Q371.34375 512.71875 371.5625 513.0469Q371.79688 513.3594 372.14062 513.5469Q372.48438 513.71875 372.92188 513.71875Q373.375 513.71875 373.70312 513.5469Q374.04688 513.3594 374.26562 513.0469Q374.5 512.71875 374.60938 512.2969Q374.71875 511.875 374.71875 511.40625L374.71875 511.26562Q374.71875 510.79688 374.60938 510.375Q374.5 509.95312 374.26562 509.64062Q374.04688 509.3125 373.70312 509.125Q373.375 508.9375 372.92188 508.9375Q372.46875 508.9375 372.125 509.125Q371.79688 509.3125 371.5625 509.64062Q371.34375 509.95312 371.23438 510.375Q371.125 510.79688 371.125 511.26562ZM377.04688 511.40625L377.04688 511.26562Q377.04688 510.57812 377.23438 510.0Q377.4375 509.40625 377.8125 508.96875Q378.1875 508.53125 378.71875 508.29688Q379.25 508.04688 379.92188 508.04688Q380.57812 508.04688 381.10938 508.29688Q381.65625 508.53125 382.03125 508.96875Q382.40625 509.40625 382.60938 510.0Q382.8125 510.57812 382.8125 511.26562L382.8125 511.40625Q382.8125 512.0781 382.60938 512.6719Q382.40625 513.25 382.03125 513.6875Q381.65625 514.125 381.125 514.375Q380.59375 514.625 379.92188 514.625Q379.26562 514.625 378.71875 514.375Q378.1875 514.125 377.8125 513.6875Q377.4375 513.25 377.23438 512.6719Q377.04688 512.0781 377.04688 511.40625ZM378.125 511.26562L378.125 511.40625Q378.125 511.875 378.23438 512.2969Q378.34375 512.71875 378.5625 513.0469Q378.79688 513.3594 379.14062 513.5469Q379.48438 513.71875 379.92188 513.71875Q380.375 513.71875 380.70312 513.5469Q381.04688 513.3594 381.26562 513.0469Q381.5 512.71875 381.60938 512.2969Q381.71875 511.875 381.71875 511.40625L381.71875 511.26562Q381.71875 510.79688 381.60938 510.375Q381.5 509.95312 381.26562 509.64062Q381.04688 509.3125 380.70312 509.125Q380.375 508.9375 379.92188 508.9375Q379.46875 508.9375 379.125 509.125Q378.79688 509.3125 378.5625 509.64062Q378.34375 509.95312 378.23438 510.375Q378.125 510.79688 378.125 511.26562ZM385.5 505.5L385.5 514.5L384.42188 514.5L384.42188 505.5L385.5 505.5Z" fill-rule="nonzero"/><path stroke="#cccccc" stroke-width="1.0" stroke-linecap="butt" d="M365.0 290.0L201.0 385.0" fill-rule="nonzero"/><path fill="#000000" d="M164.79688 400.25L164.79688 403.375Q164.64062 403.60938 164.29688 403.90625Q163.95312 404.1875 163.34375 404.40625Q162.73438 404.625 161.78125 404.625Q161.0 404.625 160.34375 404.35938Q159.6875 404.07812 159.20312 403.54688Q158.73438 403.01562 158.46875 402.26562Q158.21875 401.51562 158.21875 400.5625L158.21875 399.90625Q158.21875 398.9375 158.4375 398.1875Q158.67188 397.4375 159.10938 396.92188Q159.54688 396.39062 160.1875 396.125Q160.82812 395.84375 161.65625 395.84375Q162.625 395.84375 163.28125 396.1875Q163.95312 396.53125 164.3125 397.125Q164.6875 397.70312 164.79688 398.46875L163.67188 398.46875Q163.59375 398.0 163.35938 397.625Q163.14062 397.23438 162.71875 397.01562Q162.3125 396.78125 161.65625 396.78125Q161.0625 396.78125 160.625 397.0Q160.1875 397.20312 159.90625 397.60938Q159.625 398.01562 159.48438 398.59375Q159.35938 399.17188 159.35938 399.89062L159.35938 400.5625Q159.35938 401.29688 159.53125 401.875Q159.70312 402.45312 160.01562 402.875Q160.34375 403.28125 160.78125 403.5Q161.23438 403.70312 161.78125 403.70312Q162.39062 403.70312 162.76562 403.59375Q163.14062 403.48438 163.34375 403.34375Q163.5625 403.20312 163.67188 403.07812L163.67188 401.17188L161.70312 401.17188L161.70312 400.25L164.79688 400.25ZM170.20312 403.03125L170.20312 398.15625L171.29688 398.15625L171.29688 404.5L170.26562 404.5L170.20312 403.03125ZM170.40625 401.70312L170.85938 401.6875Q170.85938 402.3125 170.71875 402.85938Q170.59375 403.39062 170.29688 403.78125Q170.01562 404.17188 169.53125 404.40625Q169.0625 404.625 168.39062 404.625Q167.92188 404.625 167.53125 404.48438Q167.15625 404.34375 166.875 404.0625Q166.60938 403.78125 166.45312 403.32812Q166.29688 402.875 166.29688 402.25L166.29688 398.15625L167.39062 398.15625L167.39062 402.26562Q167.39062 402.6875 167.48438 402.96875Q167.57812 403.25 167.75 403.40625Q167.92188 403.5625 168.125 403.64062Q168.32812 403.70312 168.54688 403.70312Q169.25 403.70312 169.64062 403.4375Q170.04688 403.15625 170.21875 402.70312Q170.40625 402.25 170.40625 401.70312ZM177.0625 403.42188L177.0625 400.15625Q177.0625 399.78125 176.90625 399.5Q176.76562 399.21875 176.46875 399.07812Q176.17188 398.92188 175.73438 398.92188Q175.3125 398.92188 175.0 399.0625Q174.70312 399.20312 174.53125 399.4375Q174.35938 399.65625 174.35938 399.92188L173.28125 399.92188Q173.28125 399.57812 173.45312 399.25Q173.625 398.90625 173.95312 398.64062Q174.28125 398.35938 174.75 398.20312Q175.21875 398.04688 175.79688 398.04688Q176.48438 398.04688 177.01562 398.28125Q177.54688 398.51562 177.84375 398.98438Q178.15625 399.45312 178.15625 400.15625L178.15625 403.10938Q178.15625 403.4375 178.20312 403.79688Q178.26562 404.14062 178.375 404.40625L178.375 404.5L177.23438 404.5Q177.15625 404.3125 177.10938 404.0Q177.0625 403.6875 177.0625 403.42188ZM177.25 400.65625L177.26562 401.42188L176.17188 401.42188Q175.70312 401.42188 175.34375 401.5Q174.98438 401.5625 174.73438 401.71875Q174.48438 401.85938 174.35938 402.07812Q174.23438 402.29688 174.23438 402.59375Q174.23438 402.89062 174.35938 403.14062Q174.5 403.375 174.76562 403.53125Q175.04688 403.67188 175.4375 403.67188Q175.9375 403.67188 176.3125 403.46875Q176.70312 403.25 176.92188 402.95312Q177.15625 402.64062 177.17188 402.34375L177.64062 402.875Q177.59375 403.10938 177.40625 403.42188Q177.23438 403.71875 176.92188 404.0Q176.625 404.26562 176.20312 404.45312Q175.79688 404.625 175.28125 404.625Q174.64062 404.625 174.15625 404.375Q173.67188 404.10938 173.40625 403.6875Q173.14062 403.26562 173.14062 402.73438Q173.14062 402.21875 173.32812 401.84375Q173.53125 401.45312 173.90625 401.1875Q174.28125 400.92188 174.8125 400.79688Q175.34375 400.65625 176.0 400.65625L177.25 400.65625ZM181.5 398.15625L181.5 404.5L180.42188 404.5L180.42188 398.15625L181.5 398.15625ZM180.32812 396.48438Q180.32812 396.21875 180.48438 396.03125Q180.65625 395.84375 180.96875 395.84375Q181.28125 395.84375 181.4375 396.03125Q181.60938 396.21875 181.60938 396.48438Q181.60938 396.73438 181.4375 396.92188Q181.28125 397.09375 180.96875 397.09375Q180.65625 397.09375 180.48438 396.92188Q180.32812 396.73438 180.32812 396.48438ZM183.04688 401.40625L183.04688 401.26562Q183.04688 400.57812 183.23438 400.0Q183.4375 399.40625 183.8125 398.96875Q184.1875 398.53125 184.71875 398.29688Q185.25 398.04688 185.92188 398.04688Q186.57812 398.04688 187.10938 398.29688Q187.65625 398.53125 188.03125 398.96875Q188.40625 399.40625 188.60938 400.0Q188.8125 400.57812 188.8125 401.26562L188.8125 401.40625Q188.8125 402.07812 188.60938 402.67188Q188.40625 403.25 188.03125 403.6875Q187.65625 404.125 187.125 404.375Q186.59375 404.625 185.92188 404.625Q185.26562 404.625 184.71875 404.375Q184.1875 404.125 183.8125 403.6875Q183.4375 403.25 183.23438 402.67188Q183.04688 402.07812 183.04688 401.40625ZM184.125 401.26562L184.125 401.40625Q184.125 401.875 184.23438 402.29688Q184.34375 402.71875 184.5625 403.04688Q184.79688 403.35938 185.14062 403.54688Q185.48438 403.71875 185.92188 403.71875Q186.375 403.71875 186.70312 403.54688Q187.04688 403.35938 187.26562 403.04688Q187.5 402.71875 187.60938 402.29688Q187.71875 401.875 187.71875 401.40625L187.71875 401.26562Q187.71875 400.79688 187.60938 400.375Q187.5 399.95312 187.26562 399.64062Q187.04688 399.3125 186.70312 399.125Q186.375 398.9375 185.92188 398.9375Q185.46875 398.9375 185.125 399.125Q184.79688 399.3125 184.5625 399.64062Q184.34375 399.95312 184.23438 400.375Q184.125 400.79688 184.125 401.26562ZM191.5 395.5L191.5 404.5L190.42188 404.5L190.42188 395.5L191.5 395.5Z" fill-rule="nonzero"/><path stroke="#cccccc" stroke-width="1.0" stroke-linecap="butt" d="M365.0 290.0L201.0 195.0" fill-rule="nonzero"/><path fill="#000000" d="M157.03125 182.34375Q157.03125 182.04688 156.9375 181.8125Q156.85938 181.57812 156.625 181.39062Q156.40625 181.20312 156.0 181.03125Q155.60938 180.85938 155.01562 180.6875Q154.375 180.5 153.85938 180.28125Q153.35938 180.04688 152.98438 179.75Q152.625 179.4375 152.4375 179.0625Q152.25 178.67188 152.25 178.17188Q152.25 177.67188 152.45312 177.25Q152.65625 176.82812 153.03125 176.51562Q153.42188 176.20312 153.95312 176.03125Q154.48438 175.84375 155.14062 175.84375Q156.10938 175.84375 156.78125 176.21875Q157.45312 176.57812 157.79688 177.17188Q158.15625 177.76562 158.15625 178.42188L157.03125 178.42188Q157.03125 177.95312 156.8125 177.57812Q156.60938 177.20312 156.1875 177.0Q155.78125 176.78125 155.14062 176.78125Q154.54688 176.78125 154.14062 176.96875Q153.75 177.14062 153.5625 177.45312Q153.375 177.76562 153.375 178.15625Q153.375 178.42188 153.48438 178.65625Q153.60938 178.875 153.84375 179.0625Q154.09375 179.25 154.46875 179.40625Q154.84375 179.5625 155.375 179.70312Q156.09375 179.90625 156.625 180.17188Q157.15625 180.42188 157.5 180.73438Q157.84375 181.04688 158.0 181.4375Q158.17188 181.82812 158.17188 182.32812Q158.17188 182.85938 157.95312 183.28125Q157.75 183.70312 157.35938 184.0Q156.96875 184.29688 156.42188 184.46875Q155.875 184.625 155.20312 184.625Q154.60938 184.625 154.03125 184.45312Q153.46875 184.28125 153.0 183.95312Q152.53125 183.625 152.25 183.15625Q151.96875 182.67188 151.96875 182.03125L153.09375 182.03125Q153.09375 182.46875 153.26562 182.78125Q153.4375 183.09375 153.73438 183.29688Q154.03125 183.5 154.40625 183.60938Q154.78125 183.70312 155.20312 183.70312Q155.79688 183.70312 156.20312 183.54688Q156.60938 183.375 156.8125 183.07812Q157.03125 182.76562 157.03125 182.34375ZM159.04688 181.40625L159.04688 181.26562Q159.04688 180.57812 159.23438 180.0Q159.4375 179.40625 159.8125 178.96875Q160.1875 178.53125 160.71875 178.29688Q161.25 178.04688 161.92188 178.04688Q162.57812 178.04688 163.10938 178.29688Q163.65625 178.53125 164.03125 178.96875Q164.40625 179.40625 164.60938 180.0Q164.8125 180.57812 164.8125 181.26562L164.8125 181.40625Q164.8125 182.07812 164.60938 182.67188Q164.40625 183.25 164.03125 183.6875Q163.65625 184.125 163.125 184.375Q162.59375 184.625 161.92188 184.625Q161.26562 184.625 160.71875 184.375Q160.1875 184.125 159.8125 183.6875Q159.4375 183.25 159.23438 182.67188Q159.04688 182.07812 159.04688 181.40625ZM160.125 181.26562L160.125 181.40625Q160.125 181.875 160.23438 182.29688Q160.34375 182.71875 160.5625 183.04688Q160.79688 183.35938 161.14062 183.54688Q161.48438 183.71875 161.92188 183.71875Q162.375 183.71875 162.70312 183.54688Q163.04688 183.35938 163.26562 183.04688Q163.5 182.71875 163.60938 182.29688Q163.71875 181.875 163.71875 181.40625L163.71875 181.26562Q163.71875 180.79688 163.60938 180.375Q163.5 179.95312 163.26562 179.64062Q163.04688 179.3125 162.70312 179.125Q162.375 178.9375 161.92188 178.9375Q161.46875 178.9375 161.125 179.125Q160.79688 179.3125 160.5625 179.64062Q160.34375 179.95312 160.23438 180.375Q160.125 180.79688 160.125 181.26562ZM167.40625 179.51562L167.40625 184.5L166.32812 184.5L166.32812 178.15625L167.35938 178.15625L167.40625 179.51562ZM167.15625 181.09375L166.70312 181.07812Q166.70312 180.42188 166.89062 179.875Q167.07812 179.3125 167.42188 178.90625Q167.76562 178.5 168.23438 178.28125Q168.70312 178.04688 169.28125 178.04688Q169.75 178.04688 170.125 178.17188Q170.5 178.29688 170.76562 178.57812Q171.03125 178.84375 171.17188 179.28125Q171.3125 179.71875 171.3125 180.34375L171.3125 184.5L170.21875 184.5L170.21875 180.32812Q170.21875 179.82812 170.07812 179.53125Q169.9375 179.23438 169.65625 179.09375Q169.375 178.95312 168.95312 178.95312Q168.54688 178.95312 168.21875 179.125Q167.89062 179.29688 167.65625 179.59375Q167.42188 179.89062 167.28125 180.28125Q167.15625 180.65625 167.15625 181.09375ZM177.01562 182.8125Q177.01562 182.57812 176.90625 182.375Q176.8125 182.17188 176.5 182.01562Q176.1875 181.84375 175.5625 181.71875Q175.03125 181.60938 174.60938 181.46875Q174.1875 181.3125 173.89062 181.09375Q173.59375 180.875 173.4375 180.57812Q173.28125 180.28125 173.28125 179.89062Q173.28125 179.51562 173.4375 179.1875Q173.60938 178.84375 173.90625 178.59375Q174.21875 178.32812 174.65625 178.1875Q175.09375 178.04688 175.625 178.04688Q176.39062 178.04688 176.92188 178.3125Q177.46875 178.57812 177.75 179.03125Q178.03125 179.48438 178.03125 180.01562L176.95312 180.01562Q176.95312 179.76562 176.79688 179.51562Q176.64062 179.26562 176.34375 179.10938Q176.04688 178.9375 175.625 178.9375Q175.17188 178.9375 174.89062 179.07812Q174.60938 179.20312 174.48438 179.42188Q174.35938 179.625 174.35938 179.85938Q174.35938 180.04688 174.42188 180.1875Q174.48438 180.3125 174.64062 180.4375Q174.79688 180.54688 175.07812 180.65625Q175.375 180.75 175.82812 180.84375Q176.60938 181.01562 177.10938 181.26562Q177.60938 181.51562 177.85938 181.875Q178.10938 182.21875 178.10938 182.73438Q178.10938 183.15625 177.92188 183.5Q177.75 183.84375 177.42188 184.09375Q177.10938 184.34375 176.65625 184.48438Q176.20312 184.625 175.65625 184.625Q174.8125 184.625 174.23438 184.32812Q173.65625 184.01562 173.35938 183.54688Q173.0625 183.0625 173.0625 182.54688L174.14062 182.54688Q174.17188 182.98438 174.40625 183.25Q174.64062 183.51562 174.96875 183.625Q175.3125 183.71875 175.65625 183.71875Q176.09375 183.71875 176.39062 183.60938Q176.70312 183.48438 176.85938 183.28125Q177.01562 183.07812 177.01562 182.8125ZM181.98438 178.15625L181.98438 178.98438L178.54688 178.98438L178.54688 178.15625L181.98438 178.15625ZM179.71875 176.625L180.79688 176.625L180.79688 182.92188Q180.79688 183.25 180.89062 183.42188Q181.0 183.57812 181.15625 183.64062Q181.3125 183.6875 181.5 183.6875Q181.625 183.6875 181.76562 183.65625Q181.92188 183.625 182.0 183.60938L182.01562 184.5Q181.875 184.54688 181.67188 184.57812Q181.46875 184.625 181.17188 184.625Q180.78125 184.625 180.4375 184.46875Q180.10938 184.29688 179.90625 183.9375Q179.71875 183.5625 179.71875 182.92188L179.71875 176.625ZM184.5 178.15625L184.5 184.5L183.42188 184.5L183.42188 178.15625L184.5 178.15625ZM183.32812 176.48438Q183.32812 176.21875 183.48438 176.03125Q183.65625 175.84375 183.96875 175.84375Q184.28125 175.84375 184.4375 176.03125Q184.60938 176.21875 184.60938 176.48438Q184.60938 176.73438 184.4375 176.92188Q184.28125 177.09375 183.96875 177.09375Q183.65625 177.09375 183.48438 176.92188Q183.32812 176.73438 183.32812 176.48438ZM190.4375 178.15625L191.42188 178.15625L191.42188 184.35938Q191.42188 185.20312 191.07812 185.79688Q190.73438 186.39062 190.125 186.6875Q189.53125 187.0 188.73438 187.0Q188.40625 187.0 187.95312 186.89062Q187.51562 186.79688 187.09375 186.54688Q186.67188 186.3125 186.39062 185.90625L186.95312 185.25Q187.35938 185.73438 187.78125 185.92188Q188.21875 186.10938 188.65625 186.10938Q189.17188 186.10938 189.54688 185.90625Q189.92188 185.71875 190.125 185.34375Q190.32812 184.96875 190.32812 184.42188L190.32812 179.54688L190.4375 178.15625ZM186.0625 181.40625L186.0625 181.28125Q186.0625 180.54688 186.23438 179.95312Q186.42188 179.35938 186.73438 178.9375Q187.0625 178.5 187.51562 178.28125Q187.98438 178.04688 188.57812 178.04688Q189.17188 178.04688 189.60938 178.25Q190.0625 178.45312 190.375 178.85938Q190.6875 179.25 190.875 179.8125Q191.0625 180.35938 191.125 181.0625L191.125 181.60938Q191.0625 182.29688 190.875 182.85938Q190.6875 183.42188 190.375 183.8125Q190.0625 184.20312 189.60938 184.42188Q189.15625 184.625 188.5625 184.625Q187.98438 184.625 187.53125 184.39062Q187.07812 184.14062 186.75 183.70312Q186.42188 183.26562 186.23438 182.6875Q186.0625 182.09375 186.0625 181.40625ZM187.15625 181.28125L187.15625 181.40625Q187.15625 181.875 187.25 182.29688Q187.34375 182.70312 187.54688 183.03125Q187.75 183.34375 188.0625 183.53125Q188.39062 183.70312 188.82812 183.70312Q189.35938 183.70312 189.70312 183.46875Q190.0625 183.23438 190.26562 182.85938Q190.48438 182.48438 190.59375 182.04688L190.59375 180.64062Q190.53125 180.3125 190.39062 180.01562Q190.26562 179.71875 190.0625 179.48438Q189.85938 179.23438 189.54688 179.09375Q189.25 178.95312 188.82812 178.95312Q188.39062 178.95312 188.0625 179.14062Q187.75 179.32812 187.54688 179.65625Q187.34375 179.96875 187.25 180.39062Q187.15625 180.79688 187.15625 181.28125ZM195.95312 184.625Q195.29688 184.625 194.75 184.40625Q194.21875 184.17188 193.82812 183.76562Q193.45312 183.34375 193.25 182.78125Q193.04688 182.21875 193.04688 181.54688L193.04688 181.3125Q193.04688 180.53125 193.26562 179.92188Q193.5 179.3125 193.89062 178.89062Q194.28125 178.46875 194.78125 178.26562Q195.28125 178.04688 195.8125 178.04688Q196.5 178.04688 196.98438 178.28125Q197.48438 178.51562 197.79688 178.9375Q198.125 179.34375 198.26562 179.92188Q198.42188 180.48438 198.42188 181.14062L198.42188 181.64062L193.6875 181.64062L193.6875 180.75L197.34375 180.75L197.34375 180.67188Q197.3125 180.25 197.15625 179.85938Q197.01562 179.45312 196.6875 179.20312Q196.375 178.9375 195.8125 178.9375Q195.45312 178.9375 195.14062 179.09375Q194.82812 179.25 194.59375 179.5625Q194.375 179.85938 194.25 180.29688Q194.14062 180.73438 194.14062 181.3125L194.14062 181.54688Q194.14062 182.0 194.26562 182.40625Q194.39062 182.79688 194.625 183.09375Q194.875 183.39062 195.21875 183.5625Q195.57812 183.73438 196.01562 183.73438Q196.59375 183.73438 196.98438 183.5Q197.39062 183.26562 197.6875 182.875L198.34375 183.39062Q198.14062 183.70312 197.8125 183.98438Q197.5 184.26562 197.03125 184.45312Q196.57812 184.625 195.95312 184.625Z" fill-rule="nonzero"/><path stroke="#cccccc" stroke-width="1.0" stroke-linecap="butt" d="M365.0 290.0L365.0 101.0" fill-rule="nonzero"/><path stroke="#ff0000" stroke-width="2.0" stroke-linecap="butt" stroke-opacity="0.7019608" stroke-dasharray="8.0,6.0,2.0,6.0" d="M365.0 167.0L439.0 247.0L431.0 328.0L365.0 351.0L340.0 304.0L279.0 240.0Z" fill-rule="nonzero"/><path fill="#ff0000" fill-opacity="0.7019608" d="M361.81802 163.81802L365.0 165.875L368.18198 163.81802L366.125 167.0L368.18198 170.18198L365.0 168.125L361.81802 170.18198L363.875 167.0Z" fill-rule="nonzero"/><path fill="#ff0000" fill-opacity="0.7019608" d="M435.81802 243.81802L439.0 245.875L442.18198 243.81802L440.125 247.0L442.18198 250.18198L439.0 248.125L435.81802 250.18198L437.875 247.0Z" fill-rule="nonzero"/><path fill="#ff0000" fill-opacity="0.7019608" d="M427.81802 324.81802L431.0 326.875L434.18198 324.81802L432.125 328.0L434.18198 331.18198L431.0 329.125L427.81802 331.18198L429.875 328.0Z" fill-rule="nonzero"/><path fill="#ff0000" fill-opacity="0.7019608" d="M361.81802 347.81802L365.0 349.875L368.18198 347.81802L366.125 351.0L368.18198 354.18198L365.0 352.125L361.81802 354.18198L363.875 351.0Z" fill-rule="nonzero"/><path fill="#ff0000" fill-opacity="0.7019608" d="M336.81802 300.81802L340.0 302.875L343.18198 300.81802L341.125 304.0L343.18198 307.18198L340.0 305.125L336.81802 307.18198L338.875 304.0Z" fill-rule="nonzero"/><path fill="#ff0000" fill-opacity="0.7019608" d="M275.81802 236.81802L279.0 238.875L282.18198 236.81802L280.125 240.0L282.18198 243.18198L279.0 241.125L275.81802 243.18198L277.875 240.0Z" fill-rule="nonzero"/><path fill="#757575" d="M38.665627 40.884377L40.55625 41.353127Q39.9625 43.696877 38.415627 44.93125Q36.86875 46.15 34.61875 46.15Q32.30625 46.15 30.853125 45.2125Q29.415625 44.259377 28.65 42.478127Q27.9 40.68125 27.9 38.634377Q27.9 36.4 28.74375 34.74375Q29.603125 33.071877 31.18125 32.2125Q32.759377 31.337502 34.65 31.337502Q36.80625 31.337502 38.259377 32.43125Q39.728127 33.525 40.30625 35.509377L38.446877 35.946877Q37.946877 34.384377 36.99375 33.68125Q36.05625 32.9625 34.61875 32.9625Q32.9625 32.9625 31.853125 33.759377Q30.74375 34.540627 30.290625 35.884377Q29.853125 37.2125 29.853125 38.61875Q29.853125 40.446877 30.384375 41.821877Q30.915625 43.18125 32.040627 43.853127Q33.165627 44.525 34.4625 44.525Q36.05625 44.525 37.165627 43.603127Q38.275 42.68125 38.665627 40.884377ZM42.228127 33.603127L42.228127 31.587502L43.99375 31.587502L43.99375 33.603127L42.228127 33.603127ZM42.228127 45.9L42.228127 35.525L43.99375 35.525L43.99375 45.9L42.228127 45.9ZM46.2125 45.9L46.2125 35.525L47.80625 35.525L47.80625 37.009377Q48.946877 35.290627 51.103127 35.290627Q52.040627 35.290627 52.821877 35.634377Q53.61875 35.9625 54.009377 36.509377Q54.4 37.05625 54.55625 37.80625Q54.65 38.30625 54.65 39.525L54.65 45.9L52.884377 45.9L52.884377 39.5875Q52.884377 38.509377 52.68125 37.978127Q52.478127 37.446877 51.946877 37.134377Q51.43125 36.821877 50.728127 36.821877Q49.603127 36.821877 48.790627 37.540627Q47.978127 38.24375 47.978127 40.228127L47.978127 45.9L46.2125 45.9ZM62.946877 45.9L62.946877 44.5875Q61.9625 46.134377 60.040627 46.134377Q58.80625 46.134377 57.759377 45.446877Q56.728127 44.759377 56.15 43.540627Q55.5875 42.321877 55.5875 40.728127Q55.5875 39.165627 56.103127 37.9Q56.61875 36.634377 57.65 35.9625Q58.696877 35.290627 59.9625 35.290627Q60.9 35.290627 61.634377 35.696877Q62.36875 36.0875 62.8375 36.7125L62.8375 31.587502L64.57188 31.587502L64.57188 45.9L62.946877 45.9ZM57.384377 40.728127Q57.384377 42.7125 58.228127 43.696877Q59.071877 44.68125 60.2125 44.68125Q61.36875 44.68125 62.165627 43.74375Q62.978127 42.80625 62.978127 40.86875Q62.978127 38.74375 62.15 37.74375Q61.3375 36.74375 60.134377 36.74375Q58.9625 36.74375 58.165627 37.7125Q57.384377 38.665627 57.384377 40.728127ZM74.32188 42.55625L76.13438 42.790627Q75.7125 44.36875 74.54063 45.259377Q73.38438 46.134377 71.57188 46.134377Q69.30625 46.134377 67.9625 44.74375Q66.63438 43.3375 66.63438 40.80625Q66.63438 38.18125 67.97813 36.74375Q69.32188 35.290627 71.47813 35.290627Q73.55625 35.290627 74.86875 36.7125Q76.19688 38.11875 76.19688 40.696877Q76.19688 40.853127 76.18125 41.165627L68.44688 41.165627Q68.54063 42.86875 69.41563 43.775Q70.29063 44.68125 71.5875 44.68125Q72.55625 44.68125 73.22813 44.18125Q73.91563 43.665627 74.32188 42.55625ZM68.54063 39.7125L74.3375 39.7125Q74.22813 38.415627 73.68125 37.759377Q72.8375 36.74375 71.49375 36.74375Q70.29063 36.74375 69.4625 37.55625Q68.63438 38.353127 68.54063 39.7125ZM78.19688 45.9L78.19688 35.525L79.775 35.525L79.775 37.103127Q80.38438 35.99375 80.9 35.65Q81.41563 35.290627 82.025 35.290627Q82.91563 35.290627 83.8375 35.853127L83.22813 37.49375Q82.5875 37.103127 81.94688 37.103127Q81.36875 37.103127 80.9 37.4625Q80.44688 37.80625 80.24375 38.415627Q79.9625 39.353127 79.9625 40.4625L79.9625 45.9L78.19688 45.9ZM92.32188 42.55625L94.13438 42.790627Q93.7125 44.36875 92.54063 45.259377Q91.38438 46.134377 89.57188 46.134377Q87.30625 46.134377 85.9625 44.74375Q84.63438 43.3375 84.63438 40.80625Q84.63438 38.18125 85.97813 36.74375Q87.32188 35.290627 89.47813 35.290627Q91.55625 35.290627 92.86875 36.7125Q94.19688 38.11875 94.19688 40.696877Q94.19688 40.853127 94.18125 41.165627L86.44688 41.165627Q86.54063 42.86875 87.41563 43.775Q88.29063 44.68125 89.5875 44.68125Q90.55625 44.68125 91.22813 44.18125Q91.91563 43.665627 92.32188 42.55625ZM86.54063 39.7125L92.3375 39.7125Q92.22813 38.415627 91.68125 37.759377Q90.8375 36.74375 89.49375 36.74375Q88.29063 36.74375 87.4625 37.55625Q86.63438 38.353127 86.54063 39.7125ZM96.18125 45.9L96.18125 31.587502L97.93125 31.587502L97.93125 45.9L96.18125 45.9ZM100.18125 45.9L100.18125 31.587502L101.93125 31.587502L101.93125 45.9L100.18125 45.9ZM110.99375 44.61875Q110.00938 45.446877 109.10313 45.790627Q108.19688 46.134377 107.16563 46.134377Q105.4625 46.134377 104.54063 45.30625Q103.61875 44.4625 103.61875 43.165627Q103.61875 42.4 103.9625 41.775Q104.32188 41.15 104.88438 40.775Q105.44688 40.384377 106.15 40.18125Q106.66563 40.05625 107.7125 39.915627Q109.8375 39.665627 110.8375 39.321877Q110.85313 38.9625 110.85313 38.853127Q110.85313 37.790627 110.35313 37.3375Q109.68125 36.74375 108.35313 36.74375Q107.10313 36.74375 106.50938 37.18125Q105.93125 37.61875 105.65 38.728127L103.93125 38.49375Q104.16563 37.384377 104.69688 36.7125Q105.22813 36.025 106.24375 35.665627Q107.25938 35.290627 108.60313 35.290627Q109.93125 35.290627 110.75938 35.603127Q111.5875 35.915627 111.97813 36.4Q112.36875 36.86875 112.525 37.5875Q112.61875 38.040627 112.61875 39.2125L112.61875 41.55625Q112.61875 44.009377 112.72813 44.665627Q112.8375 45.30625 113.18125 45.9L111.3375 45.9Q111.07188 45.353127 110.99375 44.61875ZM110.8375 40.696877Q109.88438 41.0875 107.9625 41.353127Q106.88438 41.509377 106.43125 41.7125Q105.99375 41.9 105.74375 42.275Q105.49375 42.65 105.49375 43.11875Q105.49375 43.821877 106.025 44.290627Q106.55625 44.759377 107.5875 44.759377Q108.60313 44.759377 109.38438 44.321877Q110.18125 43.86875 110.55625 43.103127Q110.8375 42.49375 110.8375 41.3375L110.8375 40.696877ZM121.36875 45.9L121.36875 31.587502L123.25938 31.587502L123.25938 38.68125L130.36874 31.587502L132.93124 31.587502L126.93125 37.384377L133.19687 45.9L130.69687 45.9L125.60313 38.65L123.25938 40.93125L123.25938 45.9L121.36875 45.9ZM141.00937 45.9L141.00937 44.36875Q139.80624 46.134377 137.72812 46.134377Q136.80624 46.134377 136.00937 45.790627Q135.2125 45.43125 134.82187 44.9Q134.44687 44.36875 134.29062 43.5875Q134.18124 43.071877 134.18124 41.946877L134.18124 35.525L135.93124 35.525L135.93124 41.275Q135.93124 42.65 136.04062 43.134377Q136.2125 43.821877 136.74374 44.228127Q137.29062 44.61875 138.07187 44.61875Q138.86874 44.61875 139.55624 44.2125Q140.25937 43.80625 140.54062 43.11875Q140.8375 42.415627 140.8375 41.0875L140.8375 35.525L142.5875 35.525L142.5875 45.9L141.00937 45.9ZM143.50937 42.80625L145.25937 42.525Q145.4 43.571877 146.07187 44.134377Q146.74374 44.68125 147.94687 44.68125Q149.15 44.68125 149.72812 44.196877Q150.32187 43.696877 150.32187 43.040627Q150.32187 42.446877 149.80624 42.103127Q149.44687 41.86875 148.00937 41.509377Q146.07187 41.009377 145.32187 40.665627Q144.5875 40.30625 144.19687 39.68125Q143.80624 39.040627 143.80624 38.275Q143.80624 37.5875 144.11874 36.99375Q144.44687 36.4 144.99374 36.009377Q145.4 35.7125 146.10312 35.509377Q146.82187 35.290627 147.63437 35.290627Q148.85312 35.290627 149.775 35.65Q150.69687 35.99375 151.13437 36.603127Q151.57187 37.196877 151.74374 38.196877L150.025 38.43125Q149.9 37.634377 149.3375 37.196877Q148.775 36.74375 147.75937 36.74375Q146.54062 36.74375 146.025 37.15Q145.50937 37.540627 145.50937 38.071877Q145.50937 38.415627 145.72812 38.696877Q145.93124 38.978127 146.4 39.165627Q146.66562 39.259377 147.94687 39.603127Q149.82187 40.103127 150.55624 40.43125Q151.29062 40.74375 151.7125 41.353127Q152.13437 41.946877 152.13437 42.853127Q152.13437 43.728127 151.61874 44.509377Q151.10312 45.290627 150.13437 45.7125Q149.16562 46.134377 147.94687 46.134377Q145.93124 46.134377 144.86874 45.290627Q143.80624 44.446877 143.50937 42.80625ZM154.2125 45.9L154.2125 31.587502L155.97812 31.587502L155.97812 36.7125Q157.2125 35.290627 159.0875 35.290627Q160.22812 35.290627 161.07187 35.74375Q161.93124 36.196877 162.29062 37.009377Q162.66562 37.80625 162.66562 39.321877L162.66562 45.9L160.91562 45.9L160.91562 39.321877Q160.91562 38.009377 160.3375 37.415627Q159.75937 36.80625 158.72812 36.80625Q157.94687 36.80625 157.24374 37.2125Q156.55624 37.61875 156.25937 38.321877Q155.97812 39.009377 155.97812 40.228127L155.97812 45.9L154.2125 45.9Z" fill-rule="nonzero"/></svg>