<svg version="1.1" viewBox="0.0 0.0 730.0 538.0" fill="none" stroke="none" stroke-linecap="square" stroke-miterlimit="10" width="730" height="538" xmlns:xlink="http://www.w3.org/1999/xlink" xmlns="http://www.w3.org/2000/svg"><path fill="#ffffff" d="M0 0L730.0 0L730.0 538.0L0 538.0L0 0Z" fill-rule="nonzero"/><path fill="#ffffff" d="M26.9 68.833336L703.10004 68.833336L703.10004 511.1L26.9 511.1L26.9 68.833336Z" fill-rule="nonzero"/><path stroke="#cccccc" stroke-width="1.0" stroke-linecap="butt" d="M365.0 290.0C365.0 290.0 365.0 290.0 365.0 290.0C365.0 290.0 365.0 290.0 365.0 290.0C365.0 290.0 365.0 290.0 365.0 290.0C365.0 290.0 365.0 290.0 365.0 290.0" fill-rule="nonzero"/><path fill="#000000" d="M346.0625 282.04688L346.0625 283.35938Q346.0625 284.40625 345.875 285.125Q345.6875 285.84375 345.32812 286.28125Q344.98438 286.71875 344.48438 286.92188Q344.0 287.125 343.375 287.125Q342.89062 287.125 342.46875 287.0Q342.04688 286.875 341.71875 286.60938Q341.39062 286.32812 341.15625 285.89062Q340.92188 285.45312 340.79688 284.82812Q340.67188 284.1875 340.67188 283.35938L340.67188 282.04688Q340.67188 281.0 340.85938 280.29688Q341.0625 279.59375 341.40625 279.15625Q341.76562 278.71875 342.25 278.53125Q342.75 278.34375 343.35938 278.34375Q343.85938 278.34375 344.28125 278.46875Q344.70312 278.59375 345.03125 278.85938Q345.35938 279.10938 345.57812 279.54688Q345.8125 279.96875 345.9375 280.59375Q346.0625 281.21875 346.0625 282.04688ZM344.96875 283.53125L344.96875 281.875Q344.96875 281.29688 344.90625 280.85938Q344.84375 280.42188 344.70312 280.10938Q344.57812 279.79688 344.375 279.60938Q344.1875 279.42188 343.9375 279.32812Q343.6875 279.23438 343.35938 279.23438Q342.98438 279.23438 342.67188 279.375Q342.375 279.51562 342.17188 279.82812Q341.96875 280.14062 341.85938 280.65625Q341.76562 281.15625 341.76562 281.875L341.76562 283.53125Q341.76562 284.10938 341.82812 284.54688Q341.90625 284.98438 342.03125 285.3125Q342.17188 285.625 342.35938 285.82812Q342.5625 286.03125 342.8125 286.125Q343.0625 286.21875 343.375 286.21875Q343.78125 286.21875 344.07812 286.07812Q344.375 285.92188 344.57812 285.59375Q344.78125 285.26562 344.875 284.76562Q344.96875 284.25 344.96875 283.53125ZM348.8125 285.70312L348.8125 286.57812Q348.8125 287.125 348.53125 287.71875Q348.26562 288.3125 347.78125 288.70312L347.17188 288.28125Q347.35938 288.01562 347.48438 287.75Q347.60938 287.48438 347.67188 287.20312Q347.75 286.92188 347.75 286.59375L347.75 285.70312L348.8125 285.70312ZM355.0625 282.04688L355.0625 283.35938Q355.0625 284.40625 354.875 285.125Q354.6875 285.84375 354.32812 286.28125Q353.98438 286.71875 353.48438 286.92188Q353.0 287.125 352.375 287.125Q351.89062 287.125 351.46875 287.0Q351.04688 286.875 350.71875 286.60938Q350.39062 286.32812 350.15625 285.89062Q349.92188 285.45312 349.79688 284.82812Q349.67188 284.1875 349.67188 283.35938L349.67188 282.04688Q349.67188 281.0 349.85938 280.29688Q350.0625 279.59375 350.40625 279.15625Q350.76562 278.71875 351.25 278.53125Q351.75 278.34375 352.35938 278.34375Q352.85938 278.34375 353.28125 278.46875Q353.70312 278.59375 354.03125 278.85938Q354.35938 279.10938 354.57812 279.54688Q354.8125 279.96875 354.9375 280.59375Q355.0625 281.21875 355.0625 282.04688ZM353.96875 283.53125L353.96875 281.875Q353.96875 281.29688 353.90625 280.85938Q353.84375 280.42188 353.70312 280.10938Q353.57812 279.79688 353.375 279.60938Q353.1875 279.42188 352.9375 279.32812Q352.6875 279.23438 352.35938 279.23438Q351.98438 279.23438 351.67188 279.375Q351.375 279.51562 351.17188 279.82812Q350.96875 280.14062 350.85938 280.65625Q350.76562 281.15625 350.76562 281.875L350.76562 283.53125Q350.76562 284.10938 350.82812 284.54688Q350.90625 284.98438 351.03125 285.3125Q351.17188 285.625 351.35938 285.82812Q351.5625 286.03125 351.8125 286.125Q352.0625 286.21875 352.375 286.21875Q352.78125 286.21875 353.07812 286.07812Q353.375 285.92188 353.57812 285.59375Q353.78125 285.26562 353.875 284.76562Q353.96875 284.25 353.96875 283.53125ZM362.0625 282.04688L362.0625 283.35938Q362.0625 284.40625 361.875 285.125Q361.6875 285.84375 361.32812 286.28125Q360.98438 286.71875 360.48438 286.92188Q360.0 287.125 359.375 287.125Q358.89062 287.125 358.46875 287.0Q358.04688 286.875 357.71875 286.60938Q357.39062 286.32812 357.15625 285.89062Q356.92188 285.45312 356.79688 284.82812Q356.67188 284.1875 356.67188 283.35938L356.67188 282.04688Q356.67188 281.0 356.85938 280.29688Q357.0625 279.59375 357.40625 279.15625Q357.76562 278.71875 358.25 278.53125Q358.75 278.34375 359.35938 278.34375Q359.85938 278.34375 360.28125 278.46875Q360.70312 278.59375 361.03125 278.85938Q361.35938 279.10938 361.57812 279.54688Q361.8125 279.96875 361.9375 280.59375Q362.0625 281.21875 362.0625 282.04688ZM360.96875 283.53125L360.96875 281.875Q360.96875 281.29688 360.90625 280.85938Q360.84375 280.42188 360.70312 280.10938Q360.57812 279.79688 360.375 279.60938Q360.1875 279.42188 359.9375 279.32812Q359.6875 279.23438 359.35938 279.23438Q358.98438 279.23438 358.67188 279.375Q358.375 279.51562 358.17188 279.82812Q357.96875 280.14062 357.85938 280.65625Q357.76562 281.15625 357.76562 281.875L357.76562 283.53125Q357.76562 284.10938 357.82812 284.54688Q357.90625 284.98438 358.03125 285.3125Q358.17188 285.625 358.35938 285.82812Q358.5625 286.03125 358.8125 286.125Q359.0625 286.21875 359.375 286.21875Q359.78125 286.21875 360.07812 286.07812Q360.375 285.92188 360.57812 285.59375Q360.78125 285.26562 360.875 284.76562Q360.96875 284.25 360.96875 283.53125Z" fill-rule="nonzero"/><path stroke="#cccccc" stroke-width="1.0" stroke-linecap="butt" d="M412.28333 290.0C412.28333 263.88614 391.11386 242.71666 365.0 242.71666C338.88614 242.71666 317.71667 263.88614 317.71667 290.0C317.71667 316.11386 338.88614 337.28333 365.0 337.28333C391.11386 337.28333 412.28333 316.11386 412.28333 290.0" fill-rule="nonzero"/><path fill="#000000" d="M346.0625 234.76353L346.0625 236.07603Q346.0625 237.12291 345.875 237.84166Q345.6875 238.56041 345.32812 238.99791Q344.98438 239.43541 344.48438 239.63853Q344.0 239.84166 343.375 239.84166Q342.89062 239.84166 342.46875 239.71666Q342.04688 239.59166 341.71875 239.32603Q341.39062 239.04478 341.15625 238.60728Q340.92188 238.16978 340.79688 237.54478Q340.67188 236.90416 340.67188 236.07603L340.67188 234.76353Q340.67188 233.71666 340.85938 233.01353Q341.0625 232.31041 341.40625 231.87291Q341.76562 231.43541 342.25 231.24791Q342.75 231.06041 343.35938 231.06041Q343.85938 231.06041 344.28125 231.18541Q344.70312 231.31041 345.03125 231.57603Q345.35938 231.82603 345.57812 232.26353Q345.8125 232.68541 345.9375 233.31041Q346.0625 233.93541 346.0625 234.76353ZM344.96875 236.24791L344.96875 234.59166Q344.96875 234.01353 344.90625 233.57603Q344.84375 233.13853 344.70312 232.82603Q344.57812 232.51353 344.375 232.32603Q344.1875 232.13853 343.9375 232.04478Q343.6875 231.95103 343.35938 231.95103Q342.98438 231.95103 342.67188 232.09166Q342.375 232.23228 342.17188 232.54478Q341.96875 232.85728 341.85938 233.37291Q341.76562 233.87291 341.76562 234.59166L341.76562 236.24791Q341.76562 236.82603 341.82812 237.26353Q341.90625 237.70103 342.03125 238.02916Q342.17188 238.34166 342.35938 238.54478Q342.5625 238.74791 342.8125 238.84166Q343.0625 238.93541 343.375 238.93541Q343.78125 238.93541 344.07812 238.79478Q344.375 238.63853 344.57812 238.31041Q344.78125 237.98228 344.875 237.48228Q344.96875 236.96666 344.96875 236.24791ZM348.8125 238.41978L348.8125 239.29478Q348.8125 239.84166 348.53125 240.43541Q348.26562 241.02916 347.78125 241.41978L347.17188 240.99791Q347.35938 240.73228 347.48438 240.46666Q347.60938 240.20103 347.67188 239.91978Q347.75 239.63853 347.75 239.31041L347.75 238.41978L348.8125 238.41978ZM355.0625 234.76353L355.0625 236.07603Q355.0625 237.12291 354.875 237.84166Q354.6875 238.56041 354.32812 238.99791Q353.98438 239.43541 353.48438 239.63853Q353.0 239.84166 352.375 239.84166Q351.89062 239.84166 351.46875 239.71666Q351.04688 239.59166 350.71875 239.32603Q350.39062 239.04478 350.15625 238.60728Q349.92188 238.16978 349.79688 237.54478Q349.67188 236.90416 349.67188 236.07603L349.67188 234.76353Q349.67188 233.71666 349.85938 233.01353Q350.0625 232.31041 350.40625 231.87291Q350.76562 231.43541 351.25 231.24791Q351.75 231.06041 352.35938 231.06041Q352.85938 231.06041 353.28125 231.18541Q353.70312 231.31041 354.03125 231.57603Q354.35938 231.82603 354.57812 232.26353Q354.8125 232.68541 354.9375 233.31041Q355.0625 233.93541 355.0625 234.76353ZM353.96875 236.24791L353.96875 234.59166Q353.96875 234.01353 353.90625 233.57603Q353.84375 233.13853 353.70312 232.82603Q353.57812 232.51353 353.375 232.32603Q353.1875 232.13853 352.9375 232.04478Q352.6875 231.95103 352.35938 231.95103Q351.98438 231.95103 351.67188 232.09166Q351.375 232.23228 351.17188 232.54478Q350.96875 232.85728 350.85938 233.37291Q350.76562 233.87291 350.76562 234.59166L350.76562 236.24791Q350.76562 236.82603 350.82812 237.26353Q350.90625 237.70103 351.03125 238.02916Q351.17188 238.34166 351.35938 238.54478Q351.5625 238.74791 351.8125 238.84166Q352.0625 238.93541 352.375 238.93541Q352.78125 238.93541 353.07812 238.79478Q353.375 238.63853 353.57812 238.31041Q353.78125 237.98228 353.875 237.48228Q353.96875 236.96666 353.96875 236.24791ZM358.07812 235.65416L357.21875 235.43541L357.64062 231.18541L362.01562 231.18541L362.01562 232.18541L358.5625 232.18541L358.29688 234.51353Q358.53125 234.37291 358.89062 234.26353Q359.26562 234.13853 359.73438 234.13853Q360.3125 234.13853 360.78125 234.34166Q361.25 234.54478 361.57812 234.91978Q361.92188 235.29478 362.09375 235.82603Q362.26562 236.34166 362.26562 236.99791Q362.26562 237.60728 362.09375 238.12291Q361.9375 238.63853 361.59375 239.02916Q361.26562 239.40416 360.75 239.62291Q360.25 239.84166 359.5625 239.84166Q359.04688 239.84166 358.59375 239.70103Q358.14062 239.54478 357.76562 239.24791Q357.40625 238.95103 357.1875 238.51353Q356.96875 238.07603 356.90625 237.46666L357.9375 237.46666Q358.0 237.95103 358.20312 238.27916Q358.42188 238.60728 358.76562 238.77916Q359.10938 238.93541 359.5625 238.93541Q359.95312 238.93541 360.25 238.81041Q360.54688 238.66978 360.75 238.41978Q360.96875 238.16978 361.07812 237.81041Q361.1875 237.45103 361.1875 237.01353Q361.1875 236.60728 361.0625 236.26353Q360.95312 235.91978 360.73438 235.66978Q360.51562 235.40416 360.20312 235.26353Q359.89062 235.10728 359.46875 235.10728Q358.9375 235.10728 358.65625 235.26353Q358.375 235.40416 358.07812 235.65416Z" fill-rule="nonzero"/><path stroke="#cccccc" stroke-width="1.0" stroke-linecap="butt" d="M459.56668 290.0C459.56668 237.77228 417.22772 195.43333 365.0 195.43333C312.77228 195.43333 270.43332 237.77228 270.43332 290.0C270.43332 342.22772 312.77228 384.56668 365.0 384.56668C417.22772 384.56668 459.56668 342.22772 459.56668 290.0" fill-rule="nonzero"/><path fill="#000000" d="M346.0625 187.48021L346.0625 188.79271Q346.0625 189.83958 345.875 190.55833Q345.6875 191.27708 345.32812 191.71458Q344.98438 192.15208 344.48438 192.35521Q344.0 192.55833 343.375 192.55833Q342.89062 192.55833 342.46875 192.43333Q342.04688 192.30833 341.71875 192.04271Q341.39062 191.76146 341.15625 191.32396Q340.92188 190.88646 340.79688 190.26146Q340.67188 189.62083 340.67188 188.79271L340.67188 187.48021Q340.67188 186.43333 340.85938 185.73021Q341.0625 185.02708 341.40625 184.58958Q341.76562 184.15208 342.25 183.96458Q342.75 183.77708 343.35938 183.77708Q343.85938 183.77708 344.28125 183.90208Q344.70312 184.02708 345.03125 184.29271Q345.35938 184.54271 345.57812 184.98021Q345.8125 185.40208 345.9375 186.02708Q346.0625 186.65208 346.0625 187.48021ZM344.96875 188.96458L344.96875 187.30833Q344.96875 186.73021 344.90625 186.29271Q344.84375 185.85521 344.70312 185.54271Q344.57812 185.23021 344.375 185.04271Q344.1875 184.85521 343.9375 184.76146Q343.6875 184.66771 343.35938 184.66771Q342.98438 184.66771 342.67188 184.80833Q342.375 184.94896 342.17188 185.26146Q341.96875 185.57396 341.85938 186.08958Q341.76562 186.58958 341.76562 187.30833L341.76562 188.96458Q341.76562 189.54271 341.82812 189.98021Q341.90625 190.41771 342.03125 190.74583Q342.17188 191.05833 342.35938 191.26146Q342.5625 191.46458 342.8125 191.55833Q343.0625 191.65208 343.375 191.65208Q343.78125 191.65208 344.07812 191.51146Q344.375 191.35521 344.57812 191.02708Q344.78125 190.69896 344.875 190.19896Q344.96875 189.68333 344.96875 188.96458ZM348.8125 191.13646L348.8125 192.01146Q348.8125 192.55833 348.53125 193.15208Q348.26562 193.74583 347.78125 194.13646L347.17188 193.71458Q347.35938 193.44896 347.48438 193.18333Q347.60938 192.91771 347.67188 192.63646Q347.75 192.35521 347.75 192.02708L347.75 191.13646L348.8125 191.13646ZM353.26562 183.85521L353.26562 192.43333L352.1875 192.43333L352.1875 185.21458L350.0 186.01146L350.0 185.02708L353.10938 183.85521L353.26562 183.85521ZM362.0625 187.48021L362.0625 188.79271Q362.0625 189.83958 361.875 190.55833Q361.6875 191.27708 361.32812 191.71458Q360.98438 192.15208 360.48438 192.35521Q360.0 192.55833 359.375 192.55833Q358.89062 192.55833 358.46875 192.43333Q358.04688 192.30833 357.71875 192.04271Q357.39062 191.76146 357.15625 191.32396Q356.92188 190.88646 356.79688 190.26146Q356.67188 189.62083 356.67188 188.79271L356.67188 187.48021Q356.67188 186.43333 356.85938 185.73021Q357.0625 185.02708 357.40625 184.58958Q357.76562 184.15208 358.25 183.96458Q358.75 183.77708 359.35938 183.77708Q359.85938 183.77708 360.28125 183.90208Q360.70312 184.02708 361.03125 184.29271Q361.35938 184.54271 361.57812 184.98021Q361.8125 185.40208 361.9375 186.02708Q362.0625 186.65208 362.0625 187.48021ZM360.96875 188.96458L360.96875 187.30833Q360.96875 186.73021 360.90625 186.29271Q360.84375 185.85521 360.70312 185.54271Q360.57812 185.23021 360.375 185.04271Q360.1875 184.85521 359.9375 184.76146Q359.6875 184.66771 359.35938 184.66771Q358.98438 184.66771 358.67188 184.80833Q358.375 184.94896 358.17188 185.26146Q357.96875 185.57396 357.85938 186.08958Q357.76562 186.58958 357.76562 187.30833L357.76562 188.96458Q357.76562 189.54271 357.82812 189.98021Q357.90625 190.41771 358.03125 190.74583Q358.17188 191.05833 358.35938 191.26146Q358.5625 191.46458 358.8125 191.55833Q359.0625 191.65208 359.375 191.65208Q359.78125 191.65208 360.07812 191.51146Q360.375 191.35521 360.57812 191.02708Q360.78125 190.69896 360.875 190.19896Q360.96875 189.68333 360.96875 188.96458Z" fill-rule="nonzero"/><path stroke="#cccccc" stroke-width="1.0" stroke-linecap="butt" d="M506.85 290.0C506.85 211.6584 443.34158 148.15 365.0 148.15C286.65842 148.15 223.15 211.6584 223.15 290.0C223.15 368.34158 286.65842 431.85 365.0 431.85C443.34158 431.85 506.85 368.34158 506.85 290.0" fill-rule="nonzero"/><path fill="#000000" d="M346.0625 140.19687L346.0625 141.50937Q346.0625 142.55624 345.875 143.275Q345.6875 143.99374 345.32812 144.43124Q344.98438 144.86874 344.48438 145.07187Q344.0 145.275 343.375 145.275Q342.89062 145.275 342.46875 145.15Q342.04688 145.025 341.71875 144.75937Q341.39062 144.47812 341.15625 144.04062Q340.92188 143.60312 340.79688 142.97812Q340.67188 142.3375 340.67188 141.50937L340.67188 140.19687Q340.67188 139.15 340.85938 138.44687Q341.0625 137.74374 341.40625 137.30624Q341.76562 136.86874 342.25 136.68124Q342.75 136.49374 343.35938 136.49374Q343.85938 136.49374 344.28125 136.61874Q344.70312 136.74374 345.03125 137.00937Q345.35938 137.25937 345.57812 137.69687Q345.8125 138.11874 345.9375 138.74374Q346.0625 139.36874 346.0625 140.19687ZM344.96875 141.68124L344.96875 140.025Q344.96875 139.44687 344.90625 139.00937Q344.84375 138.57187 344.70312 138.25937Q344.57812 137.94687 344.375 137.75937Q344.1875 137.57187 343.9375 137.47812Q343.6875 137.38437 343.35938 137.38437Q342.98438 137.38437 342.67188 137.525Q342.375 137.66562 342.17188 137.97812Q341.96875 138.29062 341.85938 138.80624Q341.76562 139.30624 341.76562 140.025L341.76562 141.68124Q341.76562 142.25937 341.82812 142.69687Q341.90625 143.13437 342.03125 143.4625Q342.17188 143.775 342.35938 143.97812Q342.5625 144.18124 342.8125 144.275Q343.0625 144.36874 343.375 144.36874Q343.78125 144.36874 344.07812 144.22812Q344.375 144.07187 344.57812 143.74374Q344.78125 143.41562 344.875 142.91562Q344.96875 142.4 344.96875 141.68124ZM348.8125 143.85312L348.8125 144.72812Q348.8125 145.275 348.53125 145.86874Q348.26562 146.4625 347.78125 146.85312L347.17188 146.43124Q347.35938 146.16562 347.48438 145.9Q347.60938 145.63437 347.67188 145.35312Q347.75 145.07187 347.75 144.74374L347.75 143.85312L348.8125 143.85312ZM353.26562 136.57187L353.26562 145.15L352.1875 145.15L352.1875 137.93124L350.0 138.72812L350.0 137.74374L353.10938 136.57187L353.26562 136.57187ZM358.07812 141.0875L357.21875 140.86874L357.64062 136.61874L362.01562 136.61874L362.01562 137.61874L358.5625 137.61874L358.29688 139.94687Q358.53125 139.80624 358.89062 139.69687Q359.26562 139.57187 359.73438 139.57187Q360.3125 139.57187 360.78125 139.775Q361.25 139.97812 361.57812 140.35312Q361.92188 140.72812 362.09375 141.25937Q362.26562 141.775 362.26562 142.43124Q362.26562 143.04062 362.09375 143.55624Q361.9375 144.07187 361.59375 144.4625Q361.26562 144.8375 360.75 145.05624Q360.25 145.275 359.5625 145.275Q359.04688 145.275 358.59375 145.13437Q358.14062 144.97812 357.76562 144.68124Q357.40625 144.38437 357.1875 143.94687Q356.96875 143.50937 356.90625 142.9L357.9375 142.9Q358.0 143.38437 358.20312 143.7125Q358.42188 144.04062 358.76562 144.2125Q359.10938 144.36874 359.5625 144.36874Q359.95312 144.36874 360.25 144.24374Q360.54688 144.10312 360.75 143.85312Q360.96875 143.60312 361.07812 143.24374Q361.1875 142.88437 361.1875 142.44687Q361.1875 142.04062 361.0625 141.69687Q360.95312 141.35312 360.73438 141.10312Q360.51562 140.8375 360.20312 140.69687Q359.89062 140.54062 359.46875 140.54062Q358.9375 140.54062 358.65625 140.69687Q358.375 140.8375 358.07812 141.0875Z" fill-rule="nonzero"/><path stroke="#cccccc" stroke-width="1.0" stroke-linecap="butt" d="M554.13336 290.0C554.13336 185.54454 469.45544 100.86667 365.0 100.86667C260.54456 100.86667 175.86667 185.54454 175.86667 290.0C175.86667 394.45544 260.54456 479.13333 365.0 479.13333C469.45544 479.13333 554.13336 394.45544 554.13336 290.0" fill-rule="nonzero"/><path fill="#000000" d="M346.0625 92.91354L346.0625 94.22604Q346.0625 95.27292 345.875 95.99167Q345.6875 96.71042 345.32812 97.14792Q344.98438 97.58542 344.48438 97.78854Q344.0 97.99167 343.375 97.99167Q342.89062 97.99167 342.46875 97.86667Q342.04688 97.74167 341.71875 97.47604Q341.39062 97.19479 341.15625 96.75729Q340.92188 96.31979 340.79688 95.69479Q340.67188 95.05417 340.67188 94.22604L340.67188 92.91354Q340.67188 91.86667 340.85938 91.16354Q341.0625 90.46042 341.40625 90.02292Q341.76562 89.58542 342.25 89.39792Q342.75 89.21042 343.35938 89.21042Q343.85938 89.21042 344.28125 89.33542Q344.70312 89.46042 345.03125 89.72604Q345.35938 89.97604 345.57812 90.41354Q345.8125 90.83542 345.9375 91.46042Q346.0625 92.08542 346.0625 92.91354ZM344.96875 94.39792L344.96875 92.74167Q344.96875 92.16354 344.90625 91.72604Q344.84375 91.28854 344.70312 90.97604Q344.57812 90.66354 344.375 90.47604Q344.1875 90.28854 343.9375 90.19479Q343.6875 90.10104 343.35938 90.10104Q342.98438 90.10104 342.67188 90.24167Q342.375 90.38229 342.17188 90.69479Q341.96875 91.00729 341.85938 91.52292Q341.76562 92.02292 341.76562 92.74167L341.76562 94.39792Q341.76562 94.97604 341.82812 95.41354Q341.90625 95.85104 342.03125 96.17917Q342.17188 96.49167 342.35938 96.69479Q342.5625 96.89792 342.8125 96.99167Q343.0625 97.08542 343.375 97.08542Q343.78125 97.08542 344.07812 96.94479Q344.375 96.78854 344.57812 96.46042Q344.78125 96.13229 344.875 95.63229Q344.96875 95.11667 344.96875 94.39792ZM348.8125 96.56979L348.8125 97.44479Q348.8125 97.99167 348.53125 98.58542Q348.26562 99.17917 347.78125 99.56979L347.17188 99.14792Q347.35938 98.88229 347.48438 98.61667Q347.60938 98.35104 347.67188 98.06979Q347.75 97.78854 347.75 97.46042L347.75 96.56979L348.8125 96.56979ZM355.29688 96.97604L355.29688 97.86667L349.71875 97.86667L349.71875 97.08542L352.51562 93.97604Q353.03125 93.39792 353.3125 93.00729Q353.59375 92.60104 353.70312 92.28854Q353.82812 91.96042 353.82812 91.63229Q353.82812 91.21042 353.65625 90.86667Q353.48438 90.52292 353.14062 90.31979Q352.8125 90.10104 352.32812 90.10104Q351.76562 90.10104 351.39062 90.33542Q351.01562 90.55417 350.82812 90.94479Q350.64062 91.33542 350.64062 91.83542L349.54688 91.83542Q349.54688 91.11667 349.85938 90.52292Q350.1875 89.92917 350.79688 89.56979Q351.42188 89.21042 352.32812 89.21042Q353.14062 89.21042 353.71875 89.50729Q354.29688 89.78854 354.59375 90.30417Q354.90625 90.80417 354.90625 91.49167Q354.90625 91.86667 354.78125 92.25729Q354.65625 92.63229 354.4375 93.02292Q354.21875 93.39792 353.92188 93.77292Q353.64062 94.13229 353.3125 94.49167L351.01562 96.97604L355.29688 96.97604ZM362.0625 92.91354L362.0625 94.22604Q362.0625 95.27292 361.875 95.99167Q361.6875 96.71042 361.32812 97.14792Q360.98438 97.58542 360.48438 97.78854Q360.0 97.99167 359.375 97.99167Q358.89062 97.99167 358.46875 97.86667Q358.04688 97.74167 357.71875 97.47604Q357.39062 97.19479 357.15625 96.75729Q356.92188 96.31979 356.79688 95.69479Q356.67188 95.05417 356.67188 94.22604L356.67188 92.91354Q356.67188 91.86667 356.85938 91.16354Q357.0625 90.46042 357.40625 90.02292Q357.76562 89.58542 358.25 89.39792Q358.75 89.21042 359.35938 89.21042Q359.85938 89.21042 360.28125 89.33542Q360.70312 89.46042 361.03125 89.72604Q361.35938 89.97604 361.57812 90.41354Q361.8125 90.83542 361.9375 91.46042Q362.0625 92.08542 362.0625 92.91354ZM360.96875 94.39792L360.96875 92.74167Q360.96875 92.16354 360.90625 91.72604Q360.84375 91.28854 360.70312 90.97604Q360.57812 90.66354 360.375 90.47604Q360.1875 90.28854 359.9375 90.19479Q359.6875 90.10104 359.35938 90.10104Q358.98438 90.10104 358.67188 90.24167Q358.375 90.38229 358.17188 90.69479Q357.96875 91.00729 357.85938 91.52292Q357.76562 92.02292 357.76562 92.74167L357.76562 94.39792Q357.76562 94.97604 357.82812 95.41354Q357.90625 95.85104 358.03125 96.17917Q358.17188 96.49167 358.35938 96.69479Q358.5625 96.89792 358.8125 96.99167Q359.0625 97.08542 359.375 97.08542Q359.78125 97.08542 360.07812 96.94479Q360.375 96.78854 360.57812 96.46042Q360.78125 96.13229 360.875 95.63229Q360.96875 95.11667 360.96875 94.39792Z" fill-rule="nonzero"/><path stroke="#cccccc" stroke-width="1.0" stroke-linecap="butt" d="M365.0 290.0L365.0 101.0" fill-rule="nonzero"/><path fill="#000000" d="M342.125 65.96875L342.125 74.5L340.98438 74.5L340.98438 65.96875L342.125 65.96875ZM345.70312 69.8125L345.70312 70.734375L341.875 70.734375L341.875 69.8125L345.70312 69.8125ZM346.28125 65.96875L346.28125 66.890625L341.875 66.890625L341.875 65.96875L346.28125 65.96875ZM351.5625 73.421875L351.5625 70.15625Q351.5625 69.78125 351.40625 69.5Q351.26562 69.21875 350.96875 69.078125Q350.67188 68.921875 350.23438 68.921875Q349.8125 68.921875 349.5 69.0625Q349.20312 69.203125 349.03125 69.4375Q348.85938 69.65625 348.85938 69.921875L347.78125 69.921875Q347.78125 69.578125 347.95312 69.25Q348.125 68.90625 348.45312 68.640625Q348.78125 68.359375 349.25 68.203125Q349.71875 68.046875 350.29688 68.046875Q350.98438 68.046875 351.51562 68.28125Q352.04688 68.515625 352.34375 68.984375Q352.65625 69.453125 352.65625 70.15625L352.65625 73.109375Q352.65625 73.4375 352.70312 73.796875Q352.76562 74.140625 352.875 74.40625L352.875 74.5L351.73438 74.5Q351.65625 74.3125 351.60938 74.0Q351.5625 73.6875 351.5625 73.421875ZM351.75 70.65625L351.76562 71.421875L350.67188 71.421875Q350.20312 71.421875 349.84375 71.5Q349.48438 71.5625 349.23438 71.71875Q348.98438 71.859375 348.85938 72.078125Q348.73438 72.296875 348.73438 72.59375Q348.73438 72.890625 348.85938 73.140625Q349.0 73.375 349.26562 73.53125Q349.54688 73.671875 349.9375 73.671875Q350.4375 73.671875 350.8125 73.46875Q351.20312 73.25 351.42188 72.953125Q351.65625 72.640625 351.67188 72.34375L352.14062 72.875Q352.09375 73.109375 351.90625 73.421875Q351.73438 73.71875 351.42188 74.0Q351.125 74.265625 350.70312 74.453125Q350.29688 74.625 349.78125 74.625Q349.14062 74.625 348.65625 74.375Q348.17188 74.109375 347.90625 73.6875Q347.64062 73.265625 347.64062 72.734375Q347.64062 72.21875 347.82812 71.84375Q348.03125 71.453125 348.40625 71.1875Q348.78125 70.921875 349.3125 70.796875Q349.84375 70.65625 350.5 70.65625L351.75 70.65625ZM355.90625 69.15625L355.90625 74.5L354.82812 74.5L354.82812 68.15625L355.875 68.15625L355.90625 69.15625ZM357.89062 68.125L357.89062 69.125Q357.75 69.109375 357.625 69.09375Q357.51562 69.078125 357.35938 69.078125Q356.98438 69.078125 356.6875 69.203125Q356.40625 69.3125 356.20312 69.53125Q356.01562 69.734375 355.89062 70.03125Q355.78125 70.328125 355.75 70.671875L355.4375 70.84375Q355.4375 70.265625 355.54688 69.765625Q355.67188 69.265625 355.90625 68.875Q356.15625 68.484375 356.51562 68.265625Q356.89062 68.046875 357.40625 68.046875Q357.53125 68.046875 357.67188 68.078125Q357.82812 68.09375 357.89062 68.125ZM359.90625 69.515625L359.90625 74.5L358.82812 74.5L358.82812 68.15625L359.85938 68.15625L359.90625 69.515625ZM359.65625 71.09375L359.20312 71.078125Q359.20312 70.421875 359.39062 69.875Q359.57812 69.3125 359.92188 68.90625Q360.26562 68.5 360.73438 68.28125Q361.20312 68.046875 361.78125 68.046875Q362.25 68.046875 362.625 68.171875Q363.0 68.296875 363.26562 68.578125Q363.53125 68.84375 363.67188 69.28125Q363.8125 69.71875 363.8125 70.34375L363.8125 74.5L362.71875 74.5L362.71875 70.328125Q362.71875 69.828125 362.57812 69.53125Q362.4375 69.234375 362.15625 69.09375Q361.875 68.953125 361.45312 68.953125Q361.04688 68.953125 360.71875 69.125Q360.39062 69.296875 360.15625 69.59375Q359.92188 69.890625 359.78125 70.28125Q359.65625 70.65625 359.65625 71.09375ZM368.45312 74.625Q367.79688 74.625 367.25 74.40625Q366.71875 74.171875 366.32812 73.765625Q365.95312 73.34375 365.75 72.78125Q365.54688 72.21875 365.54688 71.546875L365.54688 71.3125Q365.54688 70.53125 365.76562 69.921875Q366.0 69.3125 366.39062 68.890625Q366.78125 68.46875 367.28125 68.265625Q367.78125 68.046875 368.3125 68.046875Q369.0 68.046875 369.48438 68.28125Q369.98438 68.515625 370.29688 68.9375Q370.625 69.34375 370.76562 69.921875Q370.92188 70.484375 370.92188 71.140625L370.92188 71.640625L366.1875 71.640625L366.1875 70.75L369.84375 70.75L369.84375 70.671875Q369.8125 70.25 369.65625 69.859375Q369.51562 69.453125 369.1875 69.203125Q368.875 68.9375 368.3125 68.9375Q367.95312 68.9375 367.64062 69.09375Q367.32812 69.25 367.09375 69.5625Q366.875 69.859375 366.75 70.296875Q366.64062 70.734375 366.64062 71.3125L366.64062 71.546875Q366.64062 72.0 366.76562 72.40625Q366.89062 72.796875 367.125 73.09375Q367.375 73.390625 367.71875 73.5625Q368.07812 73.734375 368.51562 73.734375Q369.09375 73.734375 369.48438 73.5Q369.89062 73.265625 370.1875 72.875L370.84375 73.390625Q370.64062 73.703125 370.3125 73.984375Q370.0 74.265625 369.53125 74.453125Q369.07812 74.625 368.45312 74.625ZM375.51562 72.8125Q375.51562 72.578125 375.40625 72.375Q375.3125 72.171875 375.0 72.015625Q374.6875 71.84375 374.0625 71.71875Q373.53125 71.609375 373.10938 71.46875Q372.6875 71.3125 372.39062 71.09375Q372.09375 70.875 371.9375 70.578125Q371.78125 70.28125 371.78125 69.890625Q371.78125 69.515625 371.9375 69.1875Q372.10938 68.84375 372.40625 68.59375Q372.71875 68.328125 373.15625 68.1875Q373.59375 68.046875 374.125 68.046875Q374.89062 68.046875 375.42188 68.3125Q375.96875 68.578125 376.25 69.03125Q376.53125 69.484375 376.53125 70.015625L375.45312 70.015625Q375.45312 69.765625 375.29688 69.515625Q375.14062 69.265625 374.84375 69.109375Q374.54688 68.9375 374.125 68.9375Q373.67188 68.9375 373.39062 69.078125Q373.10938 69.203125 372.98438 69.421875Q372.85938 69.625 372.85938 69.859375Q372.85938 70.046875 372.92188 70.1875Q372.98438 70.3125 373.14062 70.4375Q373.29688 70.546875 373.57812 70.65625Q373.875 70.75 374.32812 70.84375Q375.10938 71.015625 375.60938 71.265625Q376.10938 71.515625 376.35938 71.875Q376.60938 72.21875 376.60938 72.734375Q376.60938 73.15625 376.42188 73.5Q376.25 73.84375 375.92188 74.09375Q375.60938 74.34375 375.15625 74.484375Q374.70312 74.625 374.15625 74.625Q373.3125 74.625 372.73438 74.328125Q372.15625 74.015625 371.85938 73.546875Q371.5625 73.0625 371.5625 72.546875L372.64062 72.546875Q372.67188 72.984375 372.90625 73.25Q373.14062 73.515625 373.46875 73.625Q373.8125 73.71875 374.15625 73.71875Q374.59375 73.71875 374.89062 73.609375Q375.20312 73.484375 375.35938 73.28125Q375.51562 73.078125 375.51562 72.8125ZM380.45312 74.625Q379.79688 74.625 379.25 74.40625Q378.71875 74.171875 378.32812 73.765625Q377.95312 73.34375 377.75 72.78125Q377.54688 72.21875 377.54688 71.546875L377.54688 71.3125Q377.54688 70.53125 377.76562 69.921875Q378.0 69.3125 378.39062 68.890625Q378.78125 68.46875 379.28125 68.265625Q379.78125 68.046875 380.3125 68.046875Q381.0 68.046875 381.48438 68.28125Q381.98438 68.515625 382.29688 68.9375Q382.625 69.34375 382.76562 69.921875Q382.92188 70.484375 382.92188 71.140625L382.92188 71.640625L378.1875 71.640625L378.1875 70.75L381.84375 70.75L381.84375 70.671875Q381.8125 70.25 381.65625 69.859375Q381.51562 69.453125 381.1875 69.203125Q380.875 68.9375 380.3125 68.9375Q379.95312 68.9375 379.64062 69.09375Q379.32812 69.25 379.09375 69.5625Q378.875 69.859375 378.75 70.296875Q378.64062 70.734375 378.64062 71.3125L378.64062 71.546875Q378.64062 72.0 378.76562 72.40625Q378.89062 72.796875 379.125 73.09375Q379.375 73.390625 379.71875 73.5625Q380.07812 73.734375 380.51562 73.734375Q381.09375 73.734375 381.48438 73.5Q381.89062 73.265625 382.1875 72.875L382.84375 73.390625Q382.64062 73.703125 382.3125 73.984375Q382.0 74.265625 381.53125 74.453125Q381.07812 74.625 380.45312 74.625ZM384.90625 69.515625L384.90625 74.5L383.82812 74.5L383.82812 68.15625L384.85938 68.15625L384.90625 69.515625ZM384.65625 71.09375L384.20312 71.078125Q384.20312 70.421875 384.39062 69.875Q384.57812 69.3125 384.92188 68.90625Q385.26562 68.5 385.73438 68.28125Q386.20312 68.046875 386.78125 68.046875Q387.25 68.046875 387.625 68.171875Q388.0 68.296875 388.26562 68.578125Q388.53125 68.84375 388.67188 69.28125Q388.8125 69.71875 388.8125 70.34375L388.8125 74.5L387.71875 74.5L387.71875 70.328125Q387.71875 69.828125 387.57812 69.53125Q387.4375 69.234375 387.15625 69.09375Q386.875 68.953125 386.45312 68.953125Q386.04688 68.953125 385.71875 69.125Q385.39062 69.296875 385.15625 69.59375Q384.92188 69.890625 384.78125 70.28125Q384.65625 70.65625 384.65625 71.09375Z" fill-rule="nonzero"/><path stroke="#cccccc" stroke-width="1.0" stroke-linecap="butt" d="M365.0 290.0L529.0 195.0" fill-rule="nonzero"/><path fill="#000000" d="M536.84375 175.96875L537.9375 175.96875L540.7344 182.92188L543.53125 175.96875L544.625 175.96875L541.15625 184.5L540.3125 184.5L536.84375 175.96875ZM536.4844 175.96875L537.4531 175.96875L537.6094 181.17188L537.6094 184.5L536.4844 184.5L536.4844 175.96875ZM544.0156 175.96875L544.9844 175.96875L544.9844 184.5L543.8594 184.5L543.8594 181.17188L544.0156 175.96875ZM548.1094 183.84375L549.875 178.15625L551.03125 178.15625L548.4844 185.48438Q548.40625 185.71875 548.25 185.98438Q548.1094 186.26562 547.8906 186.5Q547.6719 186.75 547.3594 186.90625Q547.0469 187.0625 546.6094 187.0625Q546.4844 187.0625 546.28125 187.01562Q546.0781 186.98438 546.0 186.96875L546.0 186.09375Q546.0469 186.09375 546.1406 186.09375Q546.25 186.10938 546.28125 186.10938Q546.65625 186.10938 546.90625 186.01562Q547.1719 185.92188 547.34375 185.6875Q547.53125 185.46875 547.65625 185.07812L548.1094 183.84375ZM546.8125 178.15625L548.4531 183.07812L548.7344 184.21875L547.96875 184.625L545.625 178.15625L546.8125 178.15625ZM553.40625 179.15625L553.40625 184.5L552.3281 184.5L552.3281 178.15625L553.375 178.15625L553.40625 179.15625ZM555.3906 178.125L555.3906 179.125Q555.25 179.10938 555.125 179.09375Q555.0156 179.07812 554.8594 179.07812Q554.4844 179.07812 554.1875 179.20312Q553.90625 179.3125 553.7031 179.53125Q553.5156 179.73438 553.3906 180.03125Q553.28125 180.32812 553.25 180.67188L552.9375 180.84375Q552.9375 180.26562 553.0469 179.76562Q553.1719 179.26562 553.40625 178.875Q553.65625 178.48438 554.0156 178.26562Q554.3906 178.04688 554.90625 178.04688Q555.03125 178.04688 555.1719 178.07812Q555.3281 178.09375 555.3906 178.125ZM558.8594 183.71875Q559.25 183.71875 559.5781 183.5625Q559.90625 183.40625 560.1094 183.14062Q560.3281 182.85938 560.3594 182.5L561.3906 182.5Q561.3594 183.0625 561.0 183.54688Q560.65625 184.03125 560.09375 184.32812Q559.53125 184.625 558.8594 184.625Q558.15625 184.625 557.625 184.375Q557.09375 184.10938 556.7344 183.67188Q556.3906 183.23438 556.21875 182.67188Q556.0469 182.09375 556.0469 181.45312L556.0469 181.20312Q556.0469 180.5625 556.21875 180.0Q556.3906 179.42188 556.7344 178.98438Q557.09375 178.54688 557.625 178.29688Q558.15625 178.04688 558.8594 178.04688Q559.6094 178.04688 560.15625 178.34375Q560.71875 178.64062 561.03125 179.17188Q561.3594 179.6875 561.3906 180.34375L560.3594 180.34375Q560.3281 179.95312 560.1406 179.64062Q559.9531 179.3125 559.625 179.125Q559.2969 178.9375 558.8594 178.9375Q558.3594 178.9375 558.0156 179.14062Q557.6875 179.32812 557.4844 179.65625Q557.2969 179.98438 557.2031 180.39062Q557.125 180.79688 557.125 181.20312L557.125 181.45312Q557.125 181.875 557.2031 182.28125Q557.2969 182.67188 557.4844 183.0Q557.6875 183.32812 558.0156 183.53125Q558.3594 183.71875 558.8594 183.71875ZM564.9531 184.625Q564.2969 184.625 563.75 184.40625Q563.21875 184.17188 562.8281 183.76562Q562.4531 183.34375 562.25 182.78125Q562.0469 182.21875 562.0469 181.54688L562.0469 181.3125Q562.0469 180.53125 562.2656 179.92188Q562.5 179.3125 562.8906 178.89062Q563.28125 178.46875 563.78125 178.26562Q564.28125 178.04688 564.8125 178.04688Q565.5 178.04688 565.9844 178.28125Q566.4844 178.51562 566.7969 178.9375Q567.125 179.34375 567.2656 179.92188Q567.4219 180.48438 567.4219 181.14062L567.4219 181.64062L562.6875 181.64062L562.6875 180.75L566.34375 180.75L566.34375 180.67188Q566.3125 180.25 566.15625 179.85938Q566.0156 179.45312 565.6875 179.20312Q565.375 178.9375 564.8125 178.9375Q564.4531 178.9375 564.1406 179.09375Q563.8281 179.25 563.59375 179.5625Q563.375 179.85938 563.25 180.29688Q563.1406 180.73438 563.1406 181.3125L563.1406 181.54688Q563.1406 182.0 563.2656 182.40625Q563.3906 182.79688 563.625 183.09375Q563.875 183.39062 564.21875 183.5625Q564.5781 183.73438 565.0156 183.73438Q565.59375 183.73438 565.9844 183.5Q566.3906 183.26562 566.6875 182.875L567.34375 183.39062Q567.1406 183.70312 566.8125 183.98438Q566.5 184.26562 566.03125 184.45312Q565.5781 184.625 564.9531 184.625ZM569.40625 179.51562L569.40625 184.5L568.3281 184.5L568.3281 178.15625L569.3594 178.15625L569.40625 179.51562ZM569.15625 181.09375L568.7031 181.07812Q568.7031 180.42188 568.8906 179.875Q569.0781 179.3125 569.4219 178.90625Q569.7656 178.5 570.2344 178.28125Q570.7031 178.04688 571.28125 178.04688Q571.75 178.04688 572.125 178.17188Q572.5 178.29688 572.7656 178.57812Q573.03125 178.84375 573.1719 179.28125Q573.3125 179.71875 573.3125 180.34375L573.3125 184.5L572.21875 184.5L572.21875 180.32812Q572.21875 179.82812 572.0781 179.53125Q571.9375 179.23438 571.65625 179.09375Q571.375 178.95312 570.9531 178.95312Q570.5469 178.95312 570.21875 179.125Q569.8906 179.29688 569.65625 179.59375Q569.4219 179.89062 569.28125 180.28125Q569.15625 180.65625 569.15625 181.09375Z" fill-rule="nonzero"/><path stroke="#cccccc" stroke-width="1.0" stroke-linecap="butt" d="M365.0 290.0L529.0 385.0" fill-rule="nonzero"/><path fill="#000000" d="M525.6406 401.78125L526.7656 401.78125Q526.6719 402.59375 526.2969 403.23438Q525.9219 403.875 525.2344 404.25Q524.5625 404.625 523.53125 404.625Q522.78125 404.625 522.1719 404.34375Q521.5625 404.04688 521.1094 403.53125Q520.6719 403.01562 520.4375 402.29688Q520.2031 401.5625 520.2031 400.65625L520.2031 399.8125Q520.2031 398.92188 520.4375 398.1875Q520.6719 397.45312 521.125 396.9375Q521.5781 396.40625 522.2031 396.125Q522.84375 395.84375 523.625 395.84375Q524.59375 395.84375 525.2656 396.21875Q525.9375 396.57812 526.2969 397.21875Q526.6719 397.85938 526.7656 398.70312L525.6406 398.70312Q525.5625 398.10938 525.3281 397.6875Q525.1094 397.25 524.7031 397.01562Q524.2969 396.78125 523.625 396.78125Q523.0625 396.78125 522.625 397.0Q522.2031 397.20312 521.90625 397.60938Q521.625 398.0 521.46875 398.5625Q521.3281 399.125 521.3281 399.79688L521.3281 400.65625Q521.3281 401.28125 521.4531 401.84375Q521.59375 402.39062 521.8594 402.8125Q522.125 403.21875 522.5469 403.46875Q522.96875 403.70312 523.53125 403.70312Q524.25 403.70312 524.6719 403.46875Q525.1094 403.23438 525.3281 402.8125Q525.5469 402.39062 525.6406 401.78125ZM532.0625 403.42188L532.0625 400.15625Q532.0625 399.78125 531.90625 399.5Q531.7656 399.21875 531.46875 399.07812Q531.1719 398.92188 530.7344 398.92188Q530.3125 398.92188 530.0 399.0625Q529.7031 399.20312 529.53125 399.4375Q529.3594 399.65625 529.3594 399.92188L528.28125 399.92188Q528.28125 399.57812 528.4531 399.25Q528.625 398.90625 528.9531 398.64062Q529.28125 398.35938 529.75 398.20312Q530.21875 398.04688 530.7969 398.04688Q531.4844 398.04688 532.0156 398.28125Q532.5469 398.51562 532.84375 398.98438Q533.15625 399.45312 533.15625 400.15625L533.15625 403.10938Q533.15625 403.4375 533.2031 403.79688Q533.2656 404.14062 533.375 404.40625L533.375 404.5L532.2344 404.5Q532.15625 404.3125 532.1094 404.0Q532.0625 403.6875 532.0625 403.42188ZM532.25 400.65625L532.2656 401.42188L531.1719 401.42188Q530.7031 401.42188 530.34375 401.5Q529.9844 401.5625 529.7344 401.71875Q529.4844 401.85938 529.3594 402.07812Q529.2344 402.29688 529.2344 402.59375Q529.2344 402.89062 529.3594 403.14062Q529.5 403.375 529.7656 403.53125Q530.0469 403.67188 530.4375 403.67188Q530.9375 403.67188 531.3125 403.46875Q531.7031 403.25 531.9219 402.95312Q532.15625 402.64062 532.1719 402.34375L532.6406 402.875Q532.59375 403.10938 532.40625 403.42188Q532.2344 403.71875 531.9219 404.0Q531.625 404.26562 531.2031 404.45312Q530.7969 404.625 530.28125 404.625Q529.6406 404.625 529.15625 404.375Q528.6719 404.10938 528.40625 403.6875Q528.1406 403.26562 528.1406 402.73438Q528.1406 402.21875 528.3281 401.84375Q528.53125 401.45312 528.90625 401.1875Q529.28125 400.92188 529.8125 400.79688Q530.34375 400.65625 531.0 400.65625L532.25 400.65625ZM536.40625 399.15625L536.40625 404.5L535.3281 404.5L535.3281 398.15625L536.375 398.15625L536.40625 399.15625ZM538.3906 398.125L538.3906 399.125Q538.25 399.10938 538.125 399.09375Q538.0156 399.07812 537.8594 399.07812Q537.4844 399.07812 537.1875 399.20312Q536.90625 399.3125 536.7031 399.53125Q536.5156 399.73438 536.3906 400.03125Q536.28125 400.32812 536.25 400.67188L535.9375 400.84375Q535.9375 400.26562 536.0469 399.76562Q536.1719 399.26562 536.40625 398.875Q536.65625 398.48438 537.0156 398.26562Q537.3906 398.04688 537.90625 398.04688Q538.03125 398.04688 538.1719 398.07812Q538.3281 398.09375 538.3906 398.125ZM541.1094 403.84375L542.875 398.15625L544.03125 398.15625L541.4844 405.48438Q541.40625 405.71875 541.25 405.98438Q541.1094 406.26562 540.8906 406.5Q540.6719 406.75 540.3594 406.90625Q540.0469 407.0625 539.6094 407.0625Q539.4844 407.0625 539.28125 407.01562Q539.0781 406.98438 539.0 406.96875L539.0 406.09375Q539.0469 406.09375 539.1406 406.09375Q539.25 406.10938 539.28125 406.10938Q539.65625 406.10938 539.90625 406.01562Q540.1719 405.92188 540.34375 405.6875Q540.53125 405.46875 540.65625 405.07812L541.1094 403.84375ZM539.8125 398.15625L541.4531 403.07812L541.7344 404.21875L540.96875 404.625L538.625 398.15625L539.8125 398.15625ZM545.0469 401.40625L545.0469 401.26562Q545.0469 400.57812 545.2344 400.0Q545.4375 399.40625 545.8125 398.96875Q546.1875 398.53125 546.71875 398.29688Q547.25 398.04688 547.9219 398.04688Q548.5781 398.04688 549.1094 398.29688Q549.65625 398.53125 550.03125 398.96875Q550.40625 399.40625 550.6094 400.0Q550.8125 400.57812 550.8125 401.26562L550.8125 401.40625Q550.8125 402.07812 550.6094 402.67188Q550.40625 403.25 550.03125 403.6875Q549.65625 404.125 549.125 404.375Q548.59375 404.625 547.9219 404.625Q547.2656 404.625 546.71875 404.375Q546.1875 404.125 545.8125 403.6875Q545.4375 403.25 545.2344 402.67188Q545.0469 402.07812 545.0469 401.40625ZM546.125 401.26562L546.125 401.40625Q546.125 401.875 546.2344 402.29688Q546.34375 402.71875 546.5625 403.04688Q546.7969 403.35938 547.1406 403.54688Q547.4844 403.71875 547.9219 403.71875Q548.375 403.71875 548.7031 403.54688Q549.0469 403.35938 549.2656 403.04688Q549.5 402.71875 549.6094 402.29688Q549.71875 401.875 549.71875 401.40625L549.71875 401.26562Q549.71875 400.79688 549.6094 400.375Q549.5 399.95312 549.2656 399.64062Q549.0469 399.3125 548.7031 399.125Q548.375 398.9375 547.9219 398.9375Q547.46875 398.9375 547.125 399.125Q546.7969 399.3125 546.5625 399.64062Q546.34375 399.95312 546.2344 400.375Q546.125 400.79688 546.125 401.26562ZM553.40625 399.375L553.40625 406.9375L552.3281 406.9375L552.3281 398.15625L553.3125 398.15625L553.40625 399.375ZM557.6875 401.28125L557.6875 401.40625Q557.6875 402.09375 557.5156 402.6875Q557.3594 403.26562 557.0469 403.70312Q556.7344 404.14062 556.2656 404.39062Q555.8125 404.625 555.21875 404.625Q554.625 404.625 554.15625 404.42188Q553.6875 404.21875 553.3594 403.84375Q553.0469 403.45312 552.8594 402.92188Q552.6719 402.39062 552.59375 401.71875L552.59375 401.0625Q552.6719 400.35938 552.8594 399.8125Q553.0469 399.25 553.3594 398.85938Q553.6875 398.45312 554.1406 398.25Q554.6094 398.04688 555.2031 398.04688Q555.7969 398.04688 556.2656 398.28125Q556.7344 398.5 557.0469 398.9375Q557.3594 399.35938 557.5156 399.95312Q557.6875 400.54688 557.6875 401.28125ZM556.59375 401.40625L556.59375 401.28125Q556.59375 400.79688 556.4844 400.39062Q556.3906 399.96875 556.1875 399.65625Q555.9844 399.32812 555.65625 399.14062Q555.3281 398.95312 554.8906 398.95312Q554.4844 398.95312 554.1719 399.09375Q553.875 399.23438 553.65625 399.48438Q553.4531 399.71875 553.3125 400.01562Q553.1875 400.3125 553.125 400.64062L553.125 402.15625Q553.2344 402.5625 553.4375 402.92188Q553.65625 403.28125 554.0 403.5Q554.3594 403.71875 554.90625 403.71875Q555.34375 403.71875 555.65625 403.54688Q555.9844 403.35938 556.1875 403.04688Q556.3906 402.71875 556.4844 402.29688Q556.59375 401.875 556.59375 401.40625ZM560.40625 395.5L560.40625 404.5L559.3281 404.5L559.3281 395.5L560.40625 395.5ZM560.15625 401.09375L559.7031 401.07812Q559.7031 400.42188 559.8906 399.875Q560.0781 399.3125 560.4219 398.90625Q560.7656 398.5 561.2344 398.28125Q561.7031 398.04688 562.28125 398.04688Q562.75 398.04688 563.125 398.17188Q563.5 398.29688 563.7656 398.57812Q564.03125 398.84375 564.1719 399.28125Q564.3125 399.71875 564.3125 400.34375L564.3125 404.5L563.21875 404.5L563.21875 400.32812Q563.21875 399.82812 563.0781 399.53125Q562.9375 399.23438 562.65625 399.09375Q562.375 398.95312 561.9531 398.95312Q561.5469 398.95312 561.21875 399.125Q560.8906 399.29688 560.65625 399.59375Q560.4219 399.89062 560.28125 400.28125Q560.15625 400.65625 560.15625 401.09375ZM568.1094 403.84375L569.875 398.15625L571.03125 398.15625L568.4844 405.48438Q568.40625 405.71875 568.25 405.98438Q568.1094 406.26562 567.8906 406.5Q567.6719 406.75 567.3594 406.90625Q567.0469 407.0625 566.6094 407.0625Q566.4844 407.0625 566.28125 407.01562Q566.0781 406.98438 566.0 406.96875L566.0 406.09375Q566.0469 406.09375 566.1406 406.09375Q566.25 406.10938 566.28125 406.10938Q566.65625 406.10938 566.90625 406.01562Q567.1719 405.92188 567.34375 405.6875Q567.53125 405.46875 567.65625 405.07812L568.1094 403.84375ZM566.8125 398.15625L568.4531 403.07812L568.7344 404.21875L567.96875 404.625L565.625 398.15625L566.8125 398.15625ZM573.5 395.5L573.5 404.5L572.4219 404.5L572.4219 395.5L573.5 395.5ZM576.5 395.5L576.5 404.5L575.4219 404.5L575.4219 395.5L576.5 395.5ZM580.9531 404.625Q580.2969 404.625 579.75 404.40625Q579.21875 404.17188 578.8281 403.76562Q578.4531 403.34375 578.25 402.78125Q578.0469 402.21875 578.0469 401.54688L578.0469 401.3125Q578.0469 400.53125 578.2656 399.92188Q578.5 399.3125 578.8906 398.89062Q579.28125 398.46875 579.78125 398.26562Q580.28125 398.04688 580.8125 398.04688Q581.5 398.04688 581.9844 398.28125Q582.4844 398.51562 582.7969 398.9375Q583.125 399.34375 583.2656 399.92188Q583.4219 400.48438 583.4219 401.14062L583.4219 401.64062L578.6875 401.64062L578.6875 400.75L582.34375 400.75L582.34375 400.67188Q582.3125 400.25 582.15625 399.85938Q582.0156 399.45312 581.6875 399.20312Q581.375 398.9375 580.8125 398.9375Q580.4531 398.9375 580.1406 399.09375Q579.8281 399.25 579.59375 399.5625Q579.375 399.85938 579.25 400.29688Q579.1406 400.73438 579.1406 401.3125L579.1406 401.54688Q579.1406 402.0 579.2656 402.40625Q579.3906 402.79688 579.625 403.09375Q579.875 403.39062 580.21875 403.5625Q580.5781 403.73438 581.0156 403.73438Q581.59375 403.73438 581.9844 403.5Q582.3906 403.26562 582.6875 402.875L583.34375 403.39062Q583.1406 403.70312 582.8125 403.98438Q582.5 404.26562 582.03125 404.45312Q581.5781 404.625 580.9531 404.625ZM585.40625 399.51562L585.40625 404.5L584.3281 404.5L584.3281 398.15625L585.3594 398.15625L585.40625 399.51562ZM585.15625 401.09375L584.7031 401.07812Q584.7031 400.42188 584.8906 399.875Q585.0781 399.3125 585.4219 398.90625Q585.7656 398.5 586.2344 398.28125Q586.7031 398.04688 587.28125 398.04688Q587.75 398.04688 588.125 398.17188Q588.5 398.29688 588.7656 398.57812Q589.03125 398.84375 589.1719 399.28125Q589.3125 399.71875 589.3125 400.34375L589.3125 404.5L588.21875 404.5L588.21875 400.32812Q588.21875 399.82812 588.0781 399.53125Q587.9375 399.23438 587.65625 399.09375Q587.375 398.95312 586.9531 398.95312Q586.5469 398.95312 586.21875 399.125Q585.8906 399.29688 585.65625 399.59375Q585.4219 399.89062 585.28125 400.28125Q585.15625 400.65625 585.15625 401.09375Z" fill-rule="nonzero"/><path stroke="#cccccc" stroke-width="1.0" stroke-linecap="butt" d="M365.0 290.0L365.0 479.0" fill-rule="nonzero"/><path fill="#000000" d="M340.64062 505.96875L340.64062 514.5L339.53125 514.5L339.53125 505.96875L340.64062 505.96875ZM343.39062 505.96875L343.39062 506.89062L336.79688 506.89062L336.79688 505.96875L343.39062 505.96875ZM346.95312 514.625Q346.29688 514.625 345.75 514.40625Q345.21875 514.1719 344.82812 513.7656Q344.45312 513.34375 344.25 512.78125Q344.04688 512.21875 344.04688 511.54688L344.04688 511.3125Q344.04688 510.53125 344.26562 509.92188Q344.5 509.3125 344.89062 508.89062Q345.28125 508.46875 345.78125 508.26562Q346.28125 508.04688 346.8125 508.04688Q347.5 508.04688 347.98438 508.28125Q348.48438 508.51562 348.79688 508.9375Q349.125 509.34375 349.26562 509.92188Q349.42188 510.48438 349.42188 511.14062L349.42188 511.64062L344.6875 511.64062L344.6875 510.75L348.34375 510.75L348.34375 510.67188Q348.3125 510.25 348.15625 509.85938Q348.01562 509.45312 347.6875 509.20312Q347.375 508.9375 346.8125 508.9375Q346.45312 508.9375 346.14062 509.09375Q345.82812 509.25 345.59375 509.5625Q345.375 509.85938 345.25 510.29688Q345.14062 510.73438 345.14062 511.3125L345.14062 511.54688Q345.14062 512.0 345.26562 512.40625Q345.39062 512.7969 345.625 513.09375Q345.875 513.3906 346.21875 513.5625Q346.57812 513.7344 347.01562 513.7344Q347.59375 513.7344 347.98438 513.5Q348.39062 513.2656 348.6875 512.875L349.34375 513.3906Q349.14062 513.7031 348.8125 513.9844Q348.5 514.2656 348.03125 514.4531Q347.57812 514.625 346.95312 514.625ZM351.40625 509.15625L351.40625 514.5L350.32812 514.5L350.32812 508.15625L351.375 508.15625L351.40625 509.15625ZM353.39062 508.125L353.39062 509.125Q353.25 509.10938 353.125 509.09375Q353.01562 509.07812 352.85938 509.07812Q352.48438 509.07812 352.1875 509.20312Q351.90625 509.3125 351.70312 509.53125Q351.51562 509.73438 351.39062 510.03125Q351.28125 510.32812 351.25 510.67188L350.9375 510.84375Q350.9375 510.26562 351.04688 509.76562Q351.17188 509.26562 351.40625 508.875Q351.65625 508.48438 352.01562 508.26562Q352.39062 508.04688 352.90625 508.04688Q353.03125 508.04688 353.17188 508.07812Q353.32812 508.09375 353.39062 508.125ZM355.40625 509.375L355.40625 516.9375L354.32812 516.9375L354.32812 508.15625L355.3125 508.15625L355.40625 509.375ZM359.6875 511.28125L359.6875 511.40625Q359.6875 512.09375 359.51562 512.6875Q359.35938 513.2656 359.04688 513.7031Q358.73438 514.1406 358.26562 514.3906Q357.8125 514.625 357.21875 514.625Q356.625 514.625 356.15625 514.4219Q355.6875 514.21875 355.35938 513.84375Q355.04688 513.4531 354.85938 512.9219Q354.67188 512.3906 354.59375 511.71875L354.59375 511.0625Q354.67188 510.35938 354.85938 509.8125Q355.04688 509.25 355.35938 508.85938Q355.6875 508.45312 356.14062 508.25Q356.60938 508.04688 357.20312 508.04688Q357.79688 508.04688 358.26562 508.28125Q358.73438 508.5 359.04688 508.9375Q359.35938 509.35938 359.51562 509.95312Q359.6875 510.54688 359.6875 511.28125ZM358.59375 511.40625L358.59375 511.28125Q358.59375 510.79688 358.48438 510.39062Q358.39062 509.96875 358.1875 509.65625Q357.98438 509.32812 357.65625 509.14062Q357.32812 508.95312 356.89062 508.95312Q356.48438 508.95312 356.17188 509.09375Q355.875 509.23438 355.65625 509.48438Q355.45312 509.71875 355.3125 510.01562Q355.1875 510.3125 355.125 510.64062L355.125 512.15625Q355.23438 512.5625 355.4375 512.9219Q355.65625 513.28125 356.0 513.5Q356.35938 513.71875 356.90625 513.71875Q357.34375 513.71875 357.65625 513.5469Q357.98438 513.3594 358.1875 513.0469Q358.39062 512.71875 358.48438 512.2969Q358.59375 511.875 358.59375 511.40625ZM362.5 508.15625L362.5 514.5L361.42188 514.5L361.42188 508.15625L362.5 508.15625ZM361.32812 506.48438Q361.32812 506.21875 361.48438 506.03125Q361.65625 505.84375 361.96875 505.84375Q362.28125 505.84375 362.4375 506.03125Q362.60938 506.21875 362.60938 506.48438Q362.60938 506.73438 362.4375 506.92188Q362.28125 507.09375 361.96875 507.09375Q361.65625 507.09375 361.48438 506.92188Q361.32812 506.73438 361.32812 506.48438ZM365.40625 509.51562L365.40625 514.5L364.32812 514.5L364.32812 508.15625L365.35938 508.15625L365.40625 509.51562ZM365.15625 511.09375L364.70312 511.07812Q364.70312 510.42188 364.89062 509.875Q365.07812 509.3125 365.42188 508.90625Q365.76562 508.5 366.23438 508.28125Q366.70312 508.04688 367.28125 508.04688Q367.75 508.04688 368.125 508.17188Q368.5 508.29688 368.76562 508.57812Q369.03125 508.84375 369.17188 509.28125Q369.3125 509.71875 369.3125 510.34375L369.3125 514.5L368.21875 514.5L368.21875 510.32812Q368.21875 509.82812 368.07812 509.53125Q367.9375 509.23438 367.65625 509.09375Q367.375 508.95312 366.95312 508.95312Q366.54688 508.95312 366.21875 509.125Q365.89062 509.29688 365.65625 509.59375Q365.42188 509.89062 365.28125 510.28125Q365.15625 510.65625 365.15625 511.09375ZM371.04688 511.40625L371.04688 511.26562Q371.04688 510.57812 371.23438 510.0Q371.4375 509.40625 371.8125 508.96875Q372.1875 508.53125 372.71875 508.29688Q373.25 508.04688 373.92188 508.04688Q374.57812 508.04688 375.10938 508.29688Q375.65625 508.53125 376.03125 508.96875Q376.40625 509.40625 376.60938 510.0Q376.8125 510.57812 376.8125 511.26562L376.8125 511.40625Q376.8125 512.0781 376.60938 512.6719Q376.40625 513.25 376.03125 513.6875Q375.65625 514.125 375.125 514.375Q374.59375 514.625 373.92188 514.625Q373.26562 514.625 372.71875 514.375Q372.1875 514.125 371.8125 513.6875Q371.4375 513.25 371.23438 512.6719Q371.04688 512.0781 371.04688 511.40625ZM372.125 511.26562L372.125 511.40625Q372.125 511.875 372.23438 512.2969Q372.34375 512.71875 372.5625 513.0469Q372.79688 513.3594 373.14062 513.5469Q373.48438 513.71875 373.92188 513.71875Q374.375 513.71875 374.70312 513.5469Q375.04688 513.3594 375.26562 513.0469Q375.5 512.71875 375.60938 512.2969Q375.71875 511.875 375.71875 511.40625L375.71875 511.26562Q375.71875 510.79688 375.60938 510.375Q375.5 509.95312 375.26562 509.64062Q375.04688 509.3125 374.70312 509.125Q374.375 508.9375 373.92188 508.9375Q373.46875 508.9375 373.125 509.125Q372.79688 509.3125 372.5625 509.64062Q372.34375 509.95312 372.23438 510.375Q372.125 510.79688 372.125 511.26562ZM379.5 505.5L379.5 514.5L378.42188 514.5L378.42188 505.5L379.5 505.5ZM383.95312 514.625Q383.29688 514.625 382.75 514.40625Q382.21875 514.1719 381.82812 513.7656Q381.45312 513.34375 381.25 512.78125Q381.04688 512.21875 381.04688 511.54688L381.04688 511.3125Q381.04688 510.53125 381.26562 509.92188Q381.5 509.3125 381.89062 508.89062Q382.28125 508.46875 382.78125 508.26562Q383.28125 508.04688 383.8125 508.04688Q384.5 508.04688 384.98438 508.28125Q385.48438 508.51562 385.79688 508.9375Q386.125 509.34375 386.26562 509.92188Q386.42188 510.48438 386.42188 511.14062L386.42188 511.64062L381.6875 511.64062L381.6875 510.75L385.34375 510.75L385.34375 510.67188Q385.3125 510.25 385.15625 509.85938Q385.01562 509.45312 384.6875 509.20312Q384.375 508.9375 383.8125 508.9375Q383.45312 508.9375 383.14062 509.09375Q382.82812 509.25 382.59375 509.5625Q382.375 509.85938 382.25 510.29688Q382.14062 510.73438 382.14062 511.3125L382.14062 511.54688Q382.14062 512.0 382.26562 512.40625Q382.39062 512.7969 382.625 513.09375Q382.875 513.3906 383.21875 513.5625Q383.57812 513.7344 384.01562 513.7344Q384.59375 513.7344 384.98438 513.5Q385.39062 513.2656 385.6875 512.875L386.34375 513.3906Q386.14062 513.7031 385.8125 513.9844Q385.5 514.2656 385.03125 514.4531Q384.57812 514.625 383.95312 514.625ZM388.40625 509.51562L388.40625 514.5L387.32812 514.5L387.32812 508.15625L388.35938 508.15625L388.40625 509.51562ZM388.15625 511.09375L387.70312 511.07812Q387.70312 510.42188 387.89062 509.875Q388.07812 509.3125 388.42188 508.90625Q388.76562 508.5 389.23438 508.28125Q389.70312 508.04688 390.28125 508.04688Q390.75 508.04688 391.125 508.17188Q391.5 508.29688 391.76562 508.57812Q392.03125 508.84375 392.17188 509.28125Q392.3125 509.71875 392.3125 510.34375L392.3125 514.5L391.21875 514.5L391.21875 510.32812Q391.21875 509.82812 391.07812 509.53125Q390.9375 509.23438 390.65625 509.09375Q390.375 508.95312 389.95312 508.95312Q389.54688 508.95312 389.21875 509.125Q388.89062 509.29688 388.65625 509.59375Q388.42188 509.89062 388.28125 510.28125Q388.15625 510.65625 388.15625 511.09375Z" fill-rule="nonzero"/><path stroke="#cccccc" stroke-width="1.0" stroke-linecap="butt" d="M365.0 290.0L201.0 385.0" fill-rule="nonzero"/><path fill="#000000" d="M157.67188 403.57812L157.67188 404.5L153.40625 404.5L153.40625 403.57812L157.67188 403.57812ZM153.625 395.96875L153.625 404.5L152.48438 404.5L152.48438 395.96875L153.625 395.96875ZM159.5 398.15625L159.5 404.5L158.42188 404.5L158.42188 398.15625L159.5 398.15625ZM158.32812 396.48438Q158.32812 396.21875 158.48438 396.03125Q158.65625 395.84375 158.96875 395.84375Q159.28125 395.84375 159.4375 396.03125Q159.60938 396.21875 159.60938 396.48438Q159.60938 396.73438 159.4375 396.92188Q159.28125 397.09375 158.96875 397.09375Q158.65625 397.09375 158.48438 396.92188Q158.32812 396.73438 158.32812 396.48438ZM162.40625 399.42188L162.40625 404.5L161.3125 404.5L161.3125 398.15625L162.34375 398.15625L162.40625 399.42188ZM162.1875 401.09375L161.67188 401.07812Q161.6875 400.42188 161.84375 399.875Q162.01562 399.3125 162.32812 398.90625Q162.65625 398.5 163.14062 398.28125Q163.625 398.04688 164.25 398.04688Q164.70312 398.04688 165.07812 398.17188Q165.45312 398.29688 165.71875 398.5625Q166.0 398.82812 166.14062 399.25Q166.29688 399.67188 166.29688 400.28125L166.29688 404.5L165.21875 404.5L165.21875 400.32812Q165.21875 399.82812 165.04688 399.53125Q164.89062 399.23438 164.57812 399.09375Q164.28125 398.95312 163.85938 398.95312Q163.39062 398.95312 163.0625 399.125Q162.73438 399.29688 162.54688 399.59375Q162.35938 399.89062 162.26562 400.28125Q162.1875 400.65625 162.1875 401.09375ZM166.29688 400.48438L165.5625 400.71875Q165.5625 400.1875 165.73438 399.71875Q165.90625 399.23438 166.21875 398.85938Q166.54688 398.48438 167.01562 398.26562Q167.48438 398.04688 168.07812 398.04688Q168.59375 398.04688 168.98438 398.1875Q169.39062 398.3125 169.65625 398.59375Q169.92188 398.875 170.0625 399.3125Q170.20312 399.73438 170.20312 400.32812L170.20312 404.5L169.125 404.5L169.125 400.32812Q169.125 399.78125 168.95312 399.5Q168.78125 399.20312 168.48438 399.07812Q168.1875 398.95312 167.76562 398.95312Q167.40625 398.95312 167.125 399.07812Q166.85938 399.20312 166.67188 399.42188Q166.48438 399.625 166.39062 399.90625Q166.29688 400.1875 166.29688 400.48438ZM172.04688 401.40625L172.04688 401.26562Q172.04688 400.57812 172.23438 400.0Q172.4375 399.40625 172.8125 398.96875Q173.1875 398.53125 173.71875 398.29688Q174.25 398.04688 174.92188 398.04688Q175.57812 398.04688 176.10938 398.29688Q176.65625 398.53125 177.03125 398.96875Q177.40625 399.40625 177.60938 400.0Q177.8125 400.57812 177.8125 401.26562L177.8125 401.40625Q177.8125 402.07812 177.60938 402.67188Q177.40625 403.25 177.03125 403.6875Q176.65625 404.125 176.125 404.375Q175.59375 404.625 174.92188 404.625Q174.26562 404.625 173.71875 404.375Q173.1875 404.125 172.8125 403.6875Q172.4375 403.25 172.23438 402.67188Q172.04688 402.07812 172.04688 401.40625ZM173.125 401.26562L173.125 401.40625Q173.125 401.875 173.23438 402.29688Q173.34375 402.71875 173.5625 403.04688Q173.79688 403.35938 174.14062 403.54688Q174.48438 403.71875 174.92188 403.71875Q175.375 403.71875 175.70312 403.54688Q176.04688 403.35938 176.26562 403.04688Q176.5 402.71875 176.60938 402.29688Q176.71875 401.875 176.71875 401.40625L176.71875 401.26562Q176.71875 400.79688 176.60938 400.375Q176.5 399.95312 176.26562 399.64062Q176.04688 399.3125 175.70312 399.125Q175.375 398.9375 174.92188 398.9375Q174.46875 398.9375 174.125 399.125Q173.79688 399.3125 173.5625 399.64062Q173.34375 399.95312 173.23438 400.375Q173.125 400.79688 173.125 401.26562ZM180.40625 399.51562L180.40625 404.5L179.32812 404.5L179.32812 398.15625L180.35938 398.15625L180.40625 399.51562ZM180.15625 401.09375L179.70312 401.07812Q179.70312 400.42188 179.89062 399.875Q180.07812 399.3125 180.42188 398.90625Q180.76562 398.5 181.23438 398.28125Q181.70312 398.04688 182.28125 398.04688Q182.75 398.04688 183.125 398.17188Q183.5 398.29688 183.76562 398.57812Q184.03125 398.84375 184.17188 399.28125Q184.3125 399.71875 184.3125 400.34375L184.3125 404.5L183.21875 404.5L183.21875 400.32812Q183.21875 399.82812 183.07812 399.53125Q182.9375 399.23438 182.65625 399.09375Q182.375 398.95312 181.95312 398.95312Q181.54688 398.95312 181.21875 399.125Q180.89062 399.29688 180.65625 399.59375Q180.42188 399.89062 180.28125 400.28125Q180.15625 400.65625 180.15625 401.09375ZM188.95312 404.625Q188.29688 404.625 187.75 404.40625Q187.21875 404.17188 186.82812 403.76562Q186.45312 403.34375 186.25 402.78125Q186.04688 402.21875 186.04688 401.54688L186.04688 401.3125Q186.04688 400.53125 186.26562 399.92188Q186.5 399.3125 186.89062 398.89062Q187.28125 398.46875 187.78125 398.26562Q188.28125 398.04688 188.8125 398.04688Q189.5 398.04688 189.98438 398.28125Q190.48438 398.51562 190.79688 398.9375Q191.125 399.34375 191.26562 399.92188Q191.42188 400.48438 191.42188 401.14062L191.42188 401.64062L186.6875 401.64062L186.6875 400.75L190.34375 400.75L190.34375 400.67188Q190.3125 400.25 190.15625 399.85938Q190.01562 399.45312 189.6875 399.20312Q189.375 398.9375 188.8125 398.9375Q188.45312 398.9375 188.14062 399.09375Q187.82812 399.25 187.59375 399.5625Q187.375 399.85938 187.25 400.29688Q187.14062 400.73438 187.14062 401.3125L187.14062 401.54688Q187.14062 402.0 187.26562 402.40625Q187.39062 402.79688 187.625 403.09375Q187.875 403.39062 188.21875 403.5625Q188.57812 403.73438 189.01562 403.73438Q189.59375 403.73438 189.98438 403.5Q190.39062 403.26562 190.6875 402.875L191.34375 403.39062Q191.14062 403.70312 190.8125 403.98438Q190.5 404.26562 190.03125 404.45312Q189.57812 404.625 188.95312 404.625ZM193.40625 399.51562L193.40625 404.5L192.32812 404.5L192.32812 398.15625L193.35938 398.15625L193.40625 399.51562ZM193.15625 401.09375L192.70312 401.07812Q192.70312 400.42188 192.89062 399.875Q193.07812 399.3125 193.42188 398.90625Q193.76562 398.5 194.23438 398.28125Q194.70312 398.04688 195.28125 398.04688Q195.75 398.04688 196.125 398.17188Q196.5 398.29688 196.76562 398.57812Q197.03125 398.84375 197.17188 399.28125Q197.3125 399.71875 197.3125 400.34375L197.3125 404.5L196.21875 404.5L196.21875 400.32812Q196.21875 399.82812 196.07812 399.53125Q195.9375 399.23438 195.65625 399.09375Q195.375 398.95312 194.95312 398.95312Q194.54688 398.95312 194.21875 399.125Q193.89062 399.29688 193.65625 399.59375Q193.42188 399.89062 193.28125 400.28125Q193.15625 400.65625 193.15625 401.09375Z" fill-rule="nonzero"/><path stroke="#cccccc" stroke-width="1.0" stroke-linecap="butt" d="M365.0 290.0L201.0 195.0" fill-rule="nonzero"/><path fill="#000000" d="M157.03125 182.34375Q157.03125 182.04688 156.9375 181.8125Q156.85938 181.57812 156.625 181.39062Q156.40625 181.20312 156.0 181.03125Q155.60938 180.85938 155.01562 180.6875Q154.375 180.5 153.85938 180.28125Q153.35938 180.04688 152.98438 179.75Q152.625 179.4375 152.4375 179.0625Q152.25 178.67188 152.25 178.17188Q152.25 177.67188 152.45312 177.25Q152.65625 176.82812 153.03125 176.51562Q153.42188 176.20312 153.95312 176.03125Q154.48438 175.84375 155.14062 175.84375Q156.10938 175.84375 156.78125 176.21875Q157.45312 176.57812 157.79688 177.17188Q158.15625 177.76562 158.15625 178.42188L157.03125 178.42188Q157.03125 177.95312 156.8125 177.57812Q156.60938 177.20312 156.1875 177.0Q155.78125 176.78125 155.14062 176.78125Q154.54688 176.78125 154.14062 176.96875Q153.75 177.14062 153.5625 177.45312Q153.375 177.76562 153.375 178.15625Q153.375 178.42188 153.48438 178.65625Q153.60938 178.875 153.84375 179.0625Q154.09375 179.25 154.46875 179.40625Q154.84375 179.5625 155.375 179.70312Q156.09375 179.90625 156.625 180.17188Q157.15625 180.42188 157.5 180.73438Q157.84375 181.04688 158.0 181.4375Q158.17188 181.82812 158.17188 182.32812Q158.17188 182.85938 157.95312 183.28125Q157.75 183.70312 157.35938 184.0Q156.96875 184.29688 156.42188 184.46875Q155.875 184.625 155.20312 184.625Q154.60938 184.625 154.03125 184.45312Q153.46875 184.28125 153.0 183.95312Q152.53125 183.625 152.25 183.15625Q151.96875 182.67188 151.96875 182.03125L153.09375 182.03125Q153.09375 182.46875 153.26562 182.78125Q153.4375 183.09375 153.73438 183.29688Q154.03125 183.5 154.40625 183.60938Q154.78125 183.70312 155.20312 183.70312Q155.79688 183.70312 156.20312 183.54688Q156.60938 183.375 156.8125 183.07812Q157.03125 182.76562 157.03125 182.34375ZM159.04688 181.40625L159.04688 181.26562Q159.04688 180.57812 159.23438 180.0Q159.4375 179.40625 159.8125 178.96875Q160.1875 178.53125 160.71875 178.29688Q161.25 178.04688 161.92188 178.04688Q162.57812 178.04688 163.10938 178.29688Q163.65625 178.53125 164.03125 178.96875Q164.40625 179.40625 164.60938 180.0Q164.8125 180.57812 164.8125 181.26562L164.8125 181.40625Q164.8125 182.07812 164.60938 182.67188Q164.40625 183.25 164.03125 183.6875Q163.65625 184.125 163.125 184.375Q162.59375 184.625 161.92188 184.625Q161.26562 184.625 160.71875 184.375Q160.1875 184.125 159.8125 183.6875Q159.4375 183.25 159.23438 182.67188Q159.04688 182.07812 159.04688 181.40625ZM160.125 181.26562L160.125 181.40625Q160.125 181.875 160.23438 182.29688Q160.34375 182.71875 160.5625 183.04688Q160.79688 183.35938 161.14062 183.54688Q161.48438 183.71875 161.92188 183.71875Q162.375 183.71875 162.70312 183.54688Q163.04688 183.35938 163.26562 183.04688Q163.5 182.71875 163.60938 182.29688Q163.71875 181.875 163.71875 181.40625L163.71875 181.26562Q163.71875 180.79688 163.60938 180.375Q163.5 179.95312 163.26562 179.64062Q163.04688 179.3125 162.70312 179.125Q162.375 178.9375 161.92188 178.9375Q161.46875 178.9375 161.125 179.125Q160.79688 179.3125 160.5625 179.64062Q160.34375 179.95312 160.23438 180.375Q160.125 180.79688 160.125 181.26562ZM167.40625 179.51562L167.40625 184.5L166.32812 184.5L166.32812 178.15625L167.35938 178.15625L167.40625 179.51562ZM167.15625 181.09375L166.70312 181.07812Q166.70312 180.42188 166.89062 179.875Q167.07812 179.3125 167.42188 178.90625Q167.76562 178.5 168.23438 178.28125Q168.70312 178.04688 169.28125 178.04688Q169.75 178.04688 170.125 178.17188Q170.5 178.29688 170.76562 178.57812Q171.03125 178.84375 171.17188 179.28125Q171.3125 179.71875 171.3125 180.34375L171.3125 184.5L170.21875 184.5L170.21875 180.32812Q170.21875 179.82812 170.07812 179.53125Q169.9375 179.23438 169.65625 179.09375Q169.375 178.95312 168.95312 178.95312Q168.54688 178.95312 168.21875 179.125Q167.89062 179.29688 167.65625 179.59375Q167.42188 179.89062 167.28125 180.28125Q167.15625 180.65625 167.15625 181.09375ZM177.01562 182.8125Q177.01562 182.57812 176.90625 182.375Q176.8125 182.17188 176.5 182.01562Q176.1875 181.84375 175.5625 181.71875Q175.03125 181.60938 174.60938 181.46875Q174.1875 181.3125 173.89062 181.09375Q173.59375 180.875 173.4375 180.57812Q173.28125 180.28125 173.28125 179.89062Q173.28125 179.51562 173.4375 179.1875Q173.60938 178.84375 173.90625 178.59375Q174.21875 178.32812 174.65625 178.1875Q175.09375 178.04688 175.625 178.04688Q176.39062 178.04688 176.92188 178.3125Q177.46875 178.57812 177.75 179.03125Q178.03125 179.48438 178.03125 180.01562L176.95312 180.01562Q176.95312 179.76562 176.79688 179.51562Q176.64062 179.26562 176.34375 179.10938Q176.04688 178.9375 175.625 178.9375Q175.17188 178.9375 174.89062 179.07812Q174.60938 179.20312 174.48438 179.42188Q174.35938 179.625 174.35938 179.85938Q174.35938 180.04688 174.42188 180.1875Q174.48438 180.3125 174.64062 180.4375Q174.79688 180.54688 175.07812 180.65625Q175.375 180.75 175.82812 180.84375Q176.60938 181.01562 177.10938 181.26562Q177.60938 181.51562 177.85938 181.875Q178.10938 182.21875 178.10938 182.73438Q178.10938 183.15625 177.92188 183.5Q177.75 183.84375 177.42188 184.09375Q177.10938 184.34375 176.65625 184.48438Q176.20312 184.625 175.65625 184.625Q174.8125 184.625 174.23438 184.32812Q173.65625 184.01562 173.35938 183.54688Q173.0625 183.0625 173.0625 182.54688L174.14062 182.54688Q174.17188 182.98438 174.40625 183.25Q174.64062 183.51562 174.96875 183.625Q175.3125 183.71875 175.65625 183.71875Q176.09375 183.71875 176.39062 183.60938Q176.70312 183.48438 176.85938 183.28125Q177.01562 183.07812 177.01562 182.8125ZM181.98438 178.15625L181.98438 178.98438L178.54688 178.98438L178.54688 178.15625L181.98438 178.15625ZM179.71875 176.625L180.79688 176.625L180.79688 182.92188Q180.79688 183.25 180.89062 183.42188Q181.0 183.57812 181.15625 183.64062Q181.3125 183.6875 181.5 183.6875Q181.625 183.6875 181.76562 183.65625Q181.92188 183.625 182.0 183.60938L182.01562 184.5Q181.875 184.54688 181.67188 184.57812Q181.46875 184.625 181.17188 184.625Q180.78125 184.625 180.4375 184.46875Q180.10938 184.29688 179.90625 183.9375Q179.71875 183.5625 179.71875 182.92188L179.71875 176.625ZM184.5 178.15625L184.5 184.5L183.42188 184.5L183.42188 178.15625L184.5 178.15625ZM183.32812 176.48438Q183.32812 176.21875 183.48438 176.03125Q183.65625 175.84375 183.96875 175.84375Q184.28125 175.84375 184.4375 176.03125Q184.60938 176.21875 184.60938 176.48438Q184.60938 176.73438 184.4375 176.92188Q184.28125 177.09375 183.96875 177.09375Q183.65625 177.09375 183.48438 176.92188Q183.32812 176.73438 183.32812 176.48438ZM190.4375 178.15625L191.42188 178.15625L191.42188 184.35938Q191.42188 185.20312 191.07812 185.79688Q190.73438 186.39062 190.125 186.6875Q189.53125 187.0 188.73438 187.0Q188.40625 187.0 187.95312 186.89062Q187.51562 186.79688 187.09375 186.54688Q186.67188 186.3125 186.39062 185.90625L186.95312 185.25Q187.35938 185.73438 187.78125 185.92188Q188.21875 186.10938 188.65625 186.10938Q189.17188 186.10938 189.54688 185.90625Q189.92188 185.71875 190.125 185.34375Q190.32812 184.96875 190.32812 184.42188L190.32812 179.54688L190.4375 178.15625ZM186.0625 181.40625L186.0625 181.28125Q186.0625 180.54688 186.23438 179.95312Q186.42188 179.35938 186.73438 178.9375Q187.0625 178.5 187.51562 178.28125Q187.98438 178.04688 188.57812 178.04688Q189.17188 178.04688 189.60938 178.25Q190.0625 178.45312 190.375 178.85938Q190.6875 179.25 190.875 179.8125Q191.0625 180.35938 191.125 181.0625L191.125 181.60938Q191.0625 182.29688 190.875 182.85938Q190.6875 183.42188 190.375 183.8125Q190.0625 184.20312 189.60938 184.42188Q189.15625 184.625 188.5625 184.625Q187.98438 184.625 187.53125 184.39062Q187.07812 184.14062 186.75 183.70312Q186.42188 183.26562 186.23438 182.6875Q186.0625 182.09375 186.0625 181.40625ZM187.15625 181.28125L187.15625 181.40625Q187.15625 181.875 187.25 182.29688Q187.34375 182.70312 187.54688 183.03125Q187.75 183.34375 188.0625 183.53125Q188.39062 183.70312 188.82812 183.70312Q189.35938 183.70312 189.70312 183.46875Q190.0625 183.23438 190.26562 182.85938Q190.48438 182.48438 190.59375 182.04688L190.59375 180.64062Q190.53125 180.3125 190.39062 180.01562Q190.26562 179.71875 190.0625 179.48438Q189.85938 179.23438 189.54688 179.09375Q189.25 178.95312 188.82812 178.95312Q188.39062 178.95312 188.0625 179.14062Q187.75 179.32812 187.54688 179.65625Q187.34375 179.96875 187.25 180.39062Q187.15625 180.79688 187.15625 181.28125ZM195.95312 184.625Q195.29688 184.625 194.75 184.40625Q194.21875 184.17188 193.82812 183.76562Q193.45312 183.34375 193.25 182.78125Q193.04688 182.21875 193.04688 181.54688L193.04688 181.3125Q193.04688 180.53125 193.26562 179.92188Q193.5 179.3125 193.89062 178.89062Q194.28125 178.46875 194.78125 178.26562Q195.28125 178.04688 195.8125 178.04688Q196.5 178.04688 196.98438 178.28125Q197.48438 178.51562 197.79688 178.9375Q198.125 179.34375 198.26562 179.92188Q198.42188 180.48438 198.42188 181.14062L198.42188 181.64062L193.6875 181.64062L193.6875 180.75L197.34375 180.75L197.34375 180.67188Q197.3125 180.25 197.15625 179.85938Q197.01562 179.45312 196.6875 179.20312Q196.375 178.9375 195.8125 178.9375Q195.45312 178.9375 195.14062 179.09375Q194.82812 179.25 194.59375 179.5625Q194.375 179.85938 194.25 180.29688Q194.14062 180.73438 194.14062 181.3125L194.14062 181.54688Q194.14062 182.0 194.26562 182.40625Q194.39062 182.79688 194.625 183.09375Q194.875 183.39062 195.21875 183.5625Q195.57812 183.73438 196.01562 183.73438Q196.59375 183.73438 196.98438 183.5Q197.39062 183.26562 197.6875 182.875L198.34375 183.39062Q198.14062 183.70312 197.8125 183.98438Q197.5 184.26562 197.03125 184.45312Q196.57812 184.625 195.95312 184.625Z" fill-rule="nonzero"/><path stroke="#cccccc" stroke-width="1.0" stroke-linecap="butt" d="M365.0 290.0L365.0 101.0" fill-rule="nonzero"/><path stroke="#ff0000" stroke-width="2.0" stroke-linecap="butt" stroke-opacity="0.7019608" stroke-dasharray="8.0,6.0,2.0,6.0" d="M365.0 54.0L521.0 200.0L512.0 375.0L365.0 385.0L332.0 309.0L168.0 177.0Z" fill-rule="nonzero"/><path fill="#ff0000" fill-opacity="0.7019608" d="M361.81802 50.81802L365.0 52.875L368.18198 50.81802L366.125 54.0L368.18198 57.18198L365.0 55.125L361.81802 57.18198L363.875 54.0Z" fill-rule="nonzero"/><path fill="#ff0000" fill-opacity="0.7019608" d="M517.818 196.81802L521.0 198.875L524.182 196.81802L522.125 200.0L524.182 203.18198L521.0 201.125L517.818 203.18198L519.875 200.0Z" fill-rule="nonzero"/><path fill="#ff0000" fill-opacity="0.7019608" d="M508.81802 371.81802L512.0 373.875L515.182 371.81802L513.125 375.0L515.182 378.18198L512.0 376.125L508.81802 378.18198L510.875 375.0Z" fill-rule="nonzero"/><path fill="#ff0000" fill-opacity="0.7019608" d="M361.81802 381.81802L365.0 383.875L368.18198 381.81802L366.125 385.0L368.18198 388.18198L365.0 386.125L361.81802 388.18198L363.875 385.0Z" fill-rule="nonzero"/><path fill="#ff0000" fill-opacity="0.7019608" d="M328.81802 305.81802L332.0 307.875L335.18198 305.81802L333.125 309.0L335.18198 312.18198L332.0 310.125L328.81802 312.18198L330.875 309.0Z" fill-rule="nonzero"/><path fill="#ff0000" fill-opacity="0.7019608" d="M164.81802 173.81802L168.0 175.875L171.18198 173.81802L169.125 177.0L171.18198 180.18198L168.0 178.125L164.81802 180.18198L166.875 177.0Z" fill-rule="nonzero"/><path fill="#757575" d="M28.540625 45.9L28.540625 31.587502L38.196877 31.587502L38.196877 33.275L30.43125 33.275L30.43125 37.7125L37.15 37.7125L37.15 39.4L30.43125 39.4L30.43125 45.9L28.540625 45.9ZM40.196877 45.9L40.196877 35.525L41.775 35.525L41.775 37.103127Q42.384377 35.99375 42.9 35.65Q43.415627 35.290627 44.025 35.290627Q44.915627 35.290627 45.8375 35.853127L45.228127 37.49375Q44.5875 37.103127 43.946877 37.103127Q43.36875 37.103127 42.9 37.4625Q42.446877 37.80625 42.24375 38.415627Q41.9625 39.353127 41.9625 40.4625L41.9625 45.9L40.196877 45.9ZM54.321877 42.55625L56.134377 42.790627Q55.7125 44.36875 54.540627 45.259377Q53.384377 46.134377 51.571877 46.134377Q49.30625 46.134377 47.9625 44.74375Q46.634377 43.3375 46.634377 40.80625Q46.634377 38.18125 47.978127 36.74375Q49.321877 35.290627 51.478127 35.290627Q53.55625 35.290627 54.86875 36.7125Q56.196877 38.11875 56.196877 40.696877Q56.196877 40.853127 56.18125 41.165627L48.446877 41.165627Q48.540627 42.86875 49.415627 43.775Q50.290627 44.68125 51.5875 44.68125Q52.55625 44.68125 53.228127 44.18125Q53.915627 43.665627 54.321877 42.55625ZM48.540627 39.7125L54.3375 39.7125Q54.228127 38.415627 53.68125 37.759377Q52.8375 36.74375 51.49375 36.74375Q50.290627 36.74375 49.4625 37.55625Q48.634377 38.353127 48.540627 39.7125ZM57.509377 42.80625L59.259377 42.525Q59.4 43.571877 60.071877 44.134377Q60.74375 44.68125 61.946877 44.68125Q63.15 44.68125 63.728127 44.196877Q64.32188 43.696877 64.32188 43.040627Q64.32188 42.446877 63.80625 42.103127Q63.446877 41.86875 62.009377 41.509377Q60.071877 41.009377 59.321877 40.665627Q58.5875 40.30625 58.196877 39.68125Q57.80625 39.040627 57.80625 38.275Q57.80625 37.5875 58.11875 36.99375Q58.446877 36.4 58.99375 36.009377Q59.4 35.7125 60.103127 35.509377Q60.821877 35.290627 61.634377 35.290627Q62.853127 35.290627 63.775 35.65Q64.69688 35.99375 65.13438 36.603127Q65.57188 37.196877 65.74375 38.196877L64.025 38.43125Q63.9 37.634377 63.3375 37.196877Q62.775 36.74375 61.759377 36.74375Q60.540627 36.74375 60.025 37.15Q59.509377 37.540627 59.509377 38.071877Q59.509377 38.415627 59.728127 38.696877Q59.93125 38.978127 60.4 39.165627Q60.665627 39.259377 61.946877 39.603127Q63.821877 40.103127 64.55625 40.43125Q65.29063 40.74375 65.7125 41.353127Q66.13438 41.946877 66.13438 42.853127Q66.13438 43.728127 65.61875 44.509377Q65.10313 45.290627 64.13438 45.7125Q63.165627 46.134377 61.946877 46.134377Q59.93125 46.134377 58.86875 45.290627Q57.80625 44.446877 57.509377 42.80625ZM68.2125 45.9L68.2125 31.587502L69.97813 31.587502L69.97813 36.7125Q71.2125 35.290627 73.0875 35.290627Q74.22813 35.290627 75.07188 35.74375Q75.93125 36.196877 76.29063 37.009377Q76.66563 37.80625 76.66563 39.321877L76.66563 45.9L74.91563 45.9L74.91563 39.321877Q74.91563 38.009377 74.3375 37.415627Q73.75938 36.80625 72.72813 36.80625Q71.94688 36.80625 71.24375 37.2125Q70.55625 37.61875 70.25938 38.321877Q69.97813 39.009377 69.97813 40.228127L69.97813 45.9L68.2125 45.9ZM87.94688 45.9L84.15 31.587502L86.0875 31.587502L88.25938 40.9625Q88.61875 42.446877 88.86875 43.9Q89.41563 41.603127 89.50938 41.24375L92.24375 31.587502L94.525 31.587502L96.57188 38.821877Q97.35313 41.525 97.69688 43.9Q97.9625 42.540627 98.4 40.775L100.65 31.587502L102.55625 31.587502L98.63438 45.9L96.80625 45.9L93.79063 34.99375Q93.4 33.61875 93.3375 33.30625Q93.10313 34.290627 92.91563 34.99375L89.88438 45.9L87.94688 45.9ZM110.99375 44.61875Q110.00938 45.446877 109.10313 45.790627Q108.19688 46.134377 107.16563 46.134377Q105.4625 46.134377 104.54063 45.30625Q103.61875 44.4625 103.61875 43.165627Q103.61875 42.4 103.9625 41.775Q104.32188 41.15 104.88438 40.775Q105.44688 40.384377 106.15 40.18125Q106.66563 40.05625 107.7125 39.915627Q109.8375 39.665627 110.8375 39.321877Q110.85313 38.9625 110.85313 38.853127Q110.85313 37.790627 110.35313 37.3375Q109.68125 36.74375 108.35313 36.74375Q107.10313 36.74375 106.50938 37.18125Q105.93125 37.61875 105.65 38.728127L103.93125 38.49375Q104.16563 37.384377 104.69688 36.7125Q105.22813 36.025 106.24375 35.665627Q107.25938 35.290627 108.60313 35.290627Q109.93125 35.290627 110.75938 35.603127Q111.5875 35.915627 111.97813 36.4Q112.36875 36.86875 112.525 37.5875Q112.61875 38.040627 112.61875 39.2125L112.61875 41.55625Q112.61875 44.009377 112.72813 44.665627Q112.8375 45.30625 113.18125 45.9L111.3375 45.9Q111.07188 45.353127 110.99375 44.61875ZM110.8375 40.696877Q109.88438 41.0875 107.9625 41.353127Q106.88438 41.509377 106.43125 41.7125Q105.99375 41.9 105.74375 42.275Q105.49375 42.65 105.49375 43.11875Q105.49375 43.821877 106.025 44.290627Q106.55625 44.759377 107.5875 44.759377Q108.60313 44.759377 109.38438 44.321877Q110.18125 43.86875 110.55625 43.103127Q110.8375 42.49375 110.8375 41.3375L110.8375 40.696877ZM119.05625 44.321877L119.30625 45.884377Q118.57188 46.040627 117.97813 46.040627Q117.025 46.040627 116.49375 45.74375Q115.97813 45.43125 115.75938 44.946877Q115.54063 44.446877 115.54063 42.86875L115.54063 36.9L114.25938 36.9L114.25938 35.525L115.54063 35.525L115.54063 32.9625L117.29063 31.900002L117.29063 35.525L119.05625 35.525L119.05625 36.9L117.29063 36.9L117.29063 42.9625Q117.29063 43.7125 117.38438 43.93125Q117.47813 44.134377 117.68125 44.275Q117.9 44.4 118.29063 44.4Q118.57188 44.4 119.05625 44.321877ZM128.32187 42.55625L130.13437 42.790627Q129.7125 44.36875 128.54062 45.259377Q127.38438 46.134377 125.57188 46.134377Q123.30625 46.134377 121.9625 44.74375Q120.63438 43.3375 120.63438 40.80625Q120.63438 38.18125 121.97813 36.74375Q123.32188 35.290627 125.47813 35.290627Q127.55625 35.290627 128.86874 36.7125Q130.19687 38.11875 130.19687 40.696877Q130.19687 40.853127 130.18124 41.165627L122.44688 41.165627Q122.54063 42.86875 123.41563 43.775Q124.29063 44.68125 125.5875 44.68125Q126.55625 44.68125 127.22813 44.18125Q127.91563 43.665627 128.32187 42.55625ZM122.54063 39.7125L128.3375 39.7125Q128.22812 38.415627 127.68125 37.759377Q126.8375 36.74375 125.49375 36.74375Q124.29063 36.74375 123.4625 37.55625Q122.63438 38.353127 122.54063 39.7125ZM132.19687 45.9L132.19687 35.525L133.775 35.525L133.775 37.103127Q134.38437 35.99375 134.9 35.65Q135.41562 35.290627 136.025 35.290627Q136.91562 35.290627 137.8375 35.853127L137.22812 37.49375Q136.5875 37.103127 135.94687 37.103127Q135.36874 37.103127 134.9 37.4625Q134.44687 37.80625 134.24374 38.415627Q133.9625 39.353127 133.9625 40.4625L133.9625 45.9L132.19687 45.9ZM149.0875 45.9L149.0875 33.275L144.36874 33.275L144.36874 31.587502L155.7125 31.587502L155.7125 33.275L150.97812 33.275L150.97812 45.9L149.0875 45.9ZM163.99374 44.61875Q163.00937 45.446877 162.10312 45.790627Q161.19687 46.134377 160.16562 46.134377Q158.4625 46.134377 157.54062 45.30625Q156.61874 44.4625 156.61874 43.165627Q156.61874 42.4 156.9625 41.775Q157.32187 41.15 157.88437 40.775Q158.44687 40.384377 159.15 40.18125Q159.66562 40.05625 160.7125 39.915627Q162.8375 39.665627 163.8375 39.321877Q163.85312 38.9625 163.85312 38.853127Q163.85312 37.790627 163.35312 37.3375Q162.68124 36.74375 161.35312 36.74375Q160.10312 36.74375 159.50937 37.18125Q158.93124 37.61875 158.65 38.728127L156.93124 38.49375Q157.16562 37.384377 157.69687 36.7125Q158.22812 36.025 159.24374 35.665627Q160.25937 35.290627 161.60312 35.290627Q162.93124 35.290627 163.75937 35.603127Q164.5875 35.915627 164.97812 36.4Q165.36874 36.86875 165.525 37.5875Q165.61874 38.040627 165.61874 39.2125L165.61874 41.55625Q165.61874 44.009377 165.72812 44.665627Q165.8375 45.30625 166.18124 45.9L164.3375 45.9Q164.07187 45.353127 163.99374 44.61875ZM163.8375 40.696877Q162.88437 41.0875 160.9625 41.353127Q159.88437 41.509377 159.43124 41.7125Q158.99374 41.9 158.74374 42.275Q158.49374 42.65 158.49374 43.11875Q158.49374 43.821877 159.025 44.290627Q159.55624 44.759377 160.5875 44.759377Q161.60312 44.759377 162.38437 44.321877Q163.18124 43.86875 163.55624 43.103127Q163.8375 42.49375 163.8375 41.3375L163.8375 40.696877ZM168.63437 45.9L168.63437 36.9L167.0875 36.9L167.0875 35.525L168.63437 35.525L168.63437 34.43125Q168.63437 33.384377 168.82187 32.86875Q169.07187 32.18125 169.7125 31.759377Q170.35312 31.337502 171.50937 31.337502Q172.25937 31.337502 173.15 31.509377L172.88437 33.040627Q172.3375 32.946877 171.85312 32.946877Q171.05624 32.946877 170.7125 33.290627Q170.38437 33.634377 170.38437 34.571877L170.38437 35.525L172.41562 35.525L172.41562 36.9L170.38437 36.9L170.38437 45.9L168.63437 45.9ZM174.63437 45.9L174.63437 36.9L173.0875 36.9L173.0875 35.525L174.63437 35.525L174.63437 34.43125Q174.63437 33.384377 174.82187 32.86875Q175.07187 32.18125 175.7125 31.759377Q176.35312 31.337502 177.50937 31.337502Q178.25937 31.337502 179.15 31.509377L178.88437 33.040627Q178.3375 32.946877 177.85312 32.946877Q177.05624 32.946877 176.7125 33.290627Q176.38437 33.634377 176.38437 34.571877L176.38437 35.525L178.41562 35.525L178.41562 36.9L176.38437 36.9L176.38437 45.9L174.63437 45.9ZM180.13437 49.9L179.94687 48.24375Q180.525 48.4 180.94687 48.4Q181.54062 48.4 181.88437 48.196877Q182.24374 48.009377 182.4625 47.665627Q182.63437 47.4 183.00937 46.353127Q183.05624 46.196877 183.16562 45.915627L179.22812 35.525L181.11874 35.525L183.275 41.540627Q183.69687 42.68125 184.025 43.93125Q184.3375 42.728127 184.74374 41.571877L186.9625 35.525L188.72812 35.525L184.775 46.071877Q184.15 47.790627 183.79062 48.43125Q183.32187 49.30625 182.7125 49.696877Q182.11874 50.103127 181.275 50.103127Q180.75937 50.103127 180.13437 49.9Z" fill-rule="nonzero"/></svg>