<svg version="1.1" viewBox="0.0 0.0 730.0 538.0" fill="none" stroke="none" stroke-linecap="square" stroke-miterlimit="10" width="730" height="538" xmlns:xlink="http://www.w3.org/1999/xlink" xmlns="http://www.w3.org/2000/svg"><path fill="#ffffff" d="M0 0L730.0 0L730.0 538.0L0 538.0L0 0Z" fill-rule="nonzero"/><path fill="#ffffff" d="M26.9 68.833336L703.10004 68.833336L703.10004 511.1L26.9 511.1L26.9 68.833336Z" fill-rule="nonzero"/><path stroke="#cccccc" stroke-width="1.0" stroke-linecap="butt" d="M365.0 290.0C365.0 290.0 365.0 290.0 365.0 290.0C365.0 290.0 365.0 290.0 365.0 290.0C365.0 290.0 365.0 290.0 365.0 290.0C365.0 290.0 365.0 290.0 365.0 290.0" fill-rule="nonzero"/><path fill="#000000" d="M353.0625 282.04688L353.0625 283.35938Q353.0625 284.40625 352.875 285.125Q352.6875 285.84375 352.32812 286.28125Q351.98438 286.71875 351.48438 286.92188Q351.0 287.125 350.375 287.125Q349.89062 287.125 349.46875 287.0Q349.04688 286.875 348.71875 286.60938Q348.39062 286.32812 348.15625 285.89062Q347.92188 285.45312 347.79688 284.82812Q347.67188 284.1875 347.67188 283.35938L347.67188 282.04688Q347.67188 281.0 347.85938 280.29688Q348.0625 279.59375 348.40625 279.15625Q348.76562 278.71875 349.25 278.53125Q349.75 278.34375 350.35938 278.34375Q350.85938 278.34375 351.28125 278.46875Q351.70312 278.59375 352.03125 278.85938Q352.35938 279.10938 352.57812 279.54688Q352.8125 279.96875 352.9375 280.59375Q353.0625 281.21875 353.0625 282.04688ZM351.96875 283.53125L351.96875 281.875Q351.96875 281.29688 351.90625 280.85938Q351.84375 280.42188 351.70312 280.10938Q351.57812 279.79688 351.375 279.60938Q351.1875 279.42188 350.9375 279.32812Q350.6875 279.23438 350.35938 279.23438Q349.98438 279.23438 349.67188 279.375Q349.375 279.51562 349.17188 279.82812Q348.96875 280.14062 348.85938 280.65625Q348.76562 281.15625 348.76562 281.875L348.76562 283.53125Q348.76562 284.10938 348.82812 284.54688Q348.90625 284.98438 349.03125 285.3125Q349.17188 285.625 349.35938 285.82812Q349.5625 286.03125 349.8125 286.125Q350.0625 286.21875 350.375 286.21875Q350.78125 286.21875 351.07812 286.07812Q351.375 285.92188 351.57812 285.59375Q351.78125 285.26562 351.875 284.76562Q351.96875 284.25 351.96875 283.53125ZM355.8125 285.70312L355.8125 286.57812Q355.8125 287.125 355.53125 287.71875Q355.26562 288.3125 354.78125 288.70312L354.17188 288.28125Q354.35938 288.01562 354.48438 287.75Q354.60938 287.48438 354.67188 287.20312Q354.75 286.92188 354.75 286.59375L354.75 285.70312L355.8125 285.70312ZM362.0625 282.04688L362.0625 283.35938Q362.0625 284.40625 361.875 285.125Q361.6875 285.84375 361.32812 286.28125Q360.98438 286.71875 360.48438 286.92188Q360.0 287.125 359.375 287.125Q358.89062 287.125 358.46875 287.0Q358.04688 286.875 357.71875 286.60938Q357.39062 286.32812 357.15625 285.89062Q356.92188 285.45312 356.79688 284.82812Q356.67188 284.1875 356.67188 283.35938L356.67188 282.04688Q356.67188 281.0 356.85938 280.29688Q357.0625 279.59375 357.40625 279.15625Q357.76562 278.71875 358.25 278.53125Q358.75 278.34375 359.35938 278.34375Q359.85938 278.34375 360.28125 278.46875Q360.70312 278.59375 361.03125 278.85938Q361.35938 279.10938 361.57812 279.54688Q361.8125 279.96875 361.9375 280.59375Q362.0625 281.21875 362.0625 282.04688ZM360.96875 283.53125L360.96875 281.875Q360.96875 281.29688 360.90625 280.85938Q360.84375 280.42188 360.70312 280.10938Q360.57812 279.79688 360.375 279.60938Q360.1875 279.42188 359.9375 279.32812Q359.6875 279.23438 359.35938 279.23438Q358.98438 279.23438 358.67188 279.375Q358.375 279.51562 358.17188 279.82812Q357.96875 280.14062 357.85938 280.65625Q357.76562 281.15625 357.76562 281.875L357.76562 283.53125Q357.76562 284.10938 357.82812 284.54688Q357.90625 284.98438 358.03125 285.3125Q358.17188 285.625 358.35938 285.82812Q358.5625 286.03125 358.8125 286.125Q359.0625 286.21875 359.375 286.21875Q359.78125 286.21875 360.07812 286.07812Q360.375 285.92188 360.57812 285.59375Q360.78125 285.26562 360.875 284.76562Q360.96875 284.25 360.96875 283.53125Z" fill-rule="nonzero"/><path stroke="#cccccc" stroke-width="1.0" stroke-linecap="butt" d="M412.28333 290.0C412.28333 263.88614 391.11386 242.71666 365.0 242.71666C338.88614 242.71666 317.71667 263.88614 317.71667 290.0C317.71667 316.11386 338.88614 337.28333 365.0 337.28333C391.11386 337.28333 412.28333 316.11386 412.28333 290.0" fill-rule="nonzero"/><path fill="#000000" d="M353.0625 234.76353L353.0625 236.07603Q353.0625 237.12291 352.875 237.84166Q352.6875 238.56041 352.32812 238.99791Q351.98438 239.43541 351.48438 239.63853Q351.0 239.84166 350.375 239.84166Q349.89062 239.84166 349.46875 239.71666Q349.04688 239.59166 348.71875 239.32603Q348.39062 239.04478 348.15625 238.60728Q347.92188 238.16978 347.79688 237.54478Q347.67188 236.90416 347.67188 236.07603L347.67188 234.76353Q347.67188 233.71666 347.85938 233.01353Q348.0625 232.31041 348.40625 231.87291Q348.76562 231.43541 349.25 231.24791Q349.75 231.06041 350.35938 231.06041Q350.85938 231.06041 351.28125 231.18541Q351.70312 231.31041 352.03125 231.57603Q352.35938 231.82603 352.57812 232.26353Q352.8125 232.68541 352.9375 233.31041Q353.0625 233.93541 353.0625 234.76353ZM351.96875 236.24791L351.96875 234.59166Q351.96875 234.01353 351.90625 233.57603Q351.84375 233.13853 351.70312 232.82603Q351.57812 232.51353 351.375 232.32603Q351.1875 232.13853 350.9375 232.04478Q350.6875 231.95103 350.35938 231.95103Q349.98438 231.95103 349.67188 232.09166Q349.375 232.23228 349.17188 232.54478Q348.96875 232.85728 348.85938 233.37291Q348.76562 233.87291 348.76562 234.59166L348.76562 236.24791Q348.76562 236.82603 348.82812 237.26353Q348.90625 237.70103 349.03125 238.02916Q349.17188 238.34166 349.35938 238.54478Q349.5625 238.74791 349.8125 238.84166Q350.0625 238.93541 350.375 238.93541Q350.78125 238.93541 351.07812 238.79478Q351.375 238.63853 351.57812 238.31041Q351.78125 237.98228 351.875 237.48228Q351.96875 236.96666 351.96875 236.24791ZM355.8125 238.41978L355.8125 239.29478Q355.8125 239.84166 355.53125 240.43541Q355.26562 241.02916 354.78125 241.41978L354.17188 240.99791Q354.35938 240.73228 354.48438 240.46666Q354.60938 240.20103 354.67188 239.91978Q354.75 239.63853 354.75 239.31041L354.75 238.41978L355.8125 238.41978ZM360.26562 231.13853L360.26562 239.71666L359.1875 239.71666L359.1875 232.49791L357.0 233.29478L357.0 232.31041L360.10938 231.13853L360.26562 231.13853Z" fill-rule="nonzero"/><path stroke="#cccccc" stroke-width="1.0" stroke-linecap="butt" d="M459.56668 290.0C459.56668 237.77228 417.22772 195.43333 365.0 195.43333C312.77228 195.43333 270.43332 237.77228 270.43332 290.0C270.43332 342.22772 312.77228 384.56668 365.0 384.56668C417.22772 384.56668 459.56668 342.22772 459.56668 290.0" fill-rule="nonzero"/><path fill="#000000" d="M353.0625 187.48021L353.0625 188.79271Q353.0625 189.83958 352.875 190.55833Q352.6875 191.27708 352.32812 191.71458Q351.98438 192.15208 351.48438 192.35521Q351.0 192.55833 350.375 192.55833Q349.89062 192.55833 349.46875 192.43333Q349.04688 192.30833 348.71875 192.04271Q348.39062 191.76146 348.15625 191.32396Q347.92188 190.88646 347.79688 190.26146Q347.67188 189.62083 347.67188 188.79271L347.67188 187.48021Q347.67188 186.43333 347.85938 185.73021Q348.0625 185.02708 348.40625 184.58958Q348.76562 184.15208 349.25 183.96458Q349.75 183.77708 350.35938 183.77708Q350.85938 183.77708 351.28125 183.90208Q351.70312 184.02708 352.03125 184.29271Q352.35938 184.54271 352.57812 184.98021Q352.8125 185.40208 352.9375 186.02708Q353.0625 186.65208 353.0625 187.48021ZM351.96875 188.96458L351.96875 187.30833Q351.96875 186.73021 351.90625 186.29271Q351.84375 185.85521 351.70312 185.54271Q351.57812 185.23021 351.375 185.04271Q351.1875 184.85521 350.9375 184.76146Q350.6875 184.66771 350.35938 184.66771Q349.98438 184.66771 349.67188 184.80833Q349.375 184.94896 349.17188 185.26146Q348.96875 185.57396 348.85938 186.08958Q348.76562 186.58958 348.76562 187.30833L348.76562 188.96458Q348.76562 189.54271 348.82812 189.98021Q348.90625 190.41771 349.03125 190.74583Q349.17188 191.05833 349.35938 191.26146Q349.5625 191.46458 349.8125 191.55833Q350.0625 191.65208 350.375 191.65208Q350.78125 191.65208 351.07812 191.51146Q351.375 191.35521 351.57812 191.02708Q351.78125 190.69896 351.875 190.19896Q351.96875 189.68333 351.96875 188.96458ZM355.8125 191.13646L355.8125 192.01146Q355.8125 192.55833 355.53125 193.15208Q355.26562 193.74583 354.78125 194.13646L354.17188 193.71458Q354.35938 193.44896 354.48438 193.18333Q354.60938 192.91771 354.67188 192.63646Q354.75 192.35521 354.75 192.02708L354.75 191.13646L355.8125 191.13646ZM362.29688 191.54271L362.29688 192.43333L356.71875 192.43333L356.71875 191.65208L359.51562 188.54271Q360.03125 187.96458 360.3125 187.57396Q360.59375 187.16771 360.70312 186.85521Q360.82812 186.52708 360.82812 186.19896Q360.82812 185.77708 360.65625 185.43333Q360.48438 185.08958 360.14062 184.88646Q359.8125 184.66771 359.32812 184.66771Q358.76562 184.66771 358.39062 184.90208Q358.01562 185.12083 357.82812 185.51146Q357.64062 185.90208 357.64062 186.40208L356.54688 186.40208Q356.54688 185.68333 356.85938 185.08958Q357.1875 184.49583 357.79688 184.13646Q358.42188 183.77708 359.32812 183.77708Q360.14062 183.77708 360.71875 184.07396Q361.29688 184.35521 361.59375 184.87083Q361.90625 185.37083 361.90625 186.05833Q361.90625 186.43333 361.78125 186.82396Q361.65625 187.19896 361.4375 187.58958Q361.21875 187.96458 360.92188 188.33958Q360.64062 188.69896 360.3125 189.05833L358.01562 191.54271L362.29688 191.54271Z" fill-rule="nonzero"/><path stroke="#cccccc" stroke-width="1.0" stroke-linecap="butt" d="M506.85 290.0C506.85 211.6584 443.34158 148.15 365.0 148.15C286.65842 148.15 223.15 211.6584 223.15 290.0C223.15 368.34158 286.65842 431.85 365.0 431.85C443.34158 431.85 506.85 368.34158 506.85 290.0" fill-rule="nonzero"/><path fill="#000000" d="M353.0625 140.19687L353.0625 141.50937Q353.0625 142.55624 352.875 143.275Q352.6875 143.99374 352.32812 144.43124Q351.98438 144.86874 351.48438 145.07187Q351.0 145.275 350.375 145.275Q349.89062 145.275 349.46875 145.15Q349.04688 145.025 348.71875 144.75937Q348.39062 144.47812 348.15625 144.04062Q347.92188 143.60312 347.79688 142.97812Q347.67188 142.3375 347.67188 141.50937L347.67188 140.19687Q347.67188 139.15 347.85938 138.44687Q348.0625 137.74374 348.40625 137.30624Q348.76562 136.86874 349.25 136.68124Q349.75 136.49374 350.35938 136.49374Q350.85938 136.49374 351.28125 136.61874Q351.70312 136.74374 352.03125 137.00937Q352.35938 137.25937 352.57812 137.69687Q352.8125 138.11874 352.9375 138.74374Q353.0625 139.36874 353.0625 140.19687ZM351.96875 141.68124L351.96875 140.025Q351.96875 139.44687 351.90625 139.00937Q351.84375 138.57187 351.70312 138.25937Q351.57812 137.94687 351.375 137.75937Q351.1875 137.57187 350.9375 137.47812Q350.6875 137.38437 350.35938 137.38437Q349.98438 137.38437 349.67188 137.525Q349.375 137.66562 349.17188 137.97812Q348.96875 138.29062 348.85938 138.80624Q348.76562 139.30624 348.76562 140.025L348.76562 141.68124Q348.76562 142.25937 348.82812 142.69687Q348.90625 143.13437 349.03125 143.4625Q349.17188 143.775 349.35938 143.97812Q349.5625 144.18124 349.8125 144.275Q350.0625 144.36874 350.375 144.36874Q350.78125 144.36874 351.07812 144.22812Q351.375 144.07187 351.57812 143.74374Q351.78125 143.41562 351.875 142.91562Q351.96875 142.4 351.96875 141.68124ZM355.8125 143.85312L355.8125 144.72812Q355.8125 145.275 355.53125 145.86874Q355.26562 146.4625 354.78125 146.85312L354.17188 146.43124Q354.35938 146.16562 354.48438 145.9Q354.60938 145.63437 354.67188 145.35312Q354.75 145.07187 354.75 144.74374L354.75 143.85312L355.8125 143.85312ZM358.29688 140.35312L359.0625 140.35312Q359.64062 140.35312 360.0 140.16562Q360.375 139.9625 360.5625 139.63437Q360.75 139.30624 360.75 138.88437Q360.75 138.4 360.57812 138.07187Q360.42188 137.72812 360.09375 137.55624Q359.76562 137.38437 359.26562 137.38437Q358.79688 137.38437 358.45312 137.57187Q358.10938 137.74374 357.90625 138.07187Q357.71875 138.4 357.71875 138.85312L356.625 138.85312Q356.625 138.19687 356.95312 137.66562Q357.28125 137.13437 357.875 136.82187Q358.46875 136.49374 359.26562 136.49374Q360.03125 136.49374 360.60938 136.775Q361.1875 137.04062 361.51562 137.5875Q361.84375 138.11874 361.84375 138.91562Q361.84375 139.24374 361.6875 139.60312Q361.53125 139.9625 361.21875 140.29062Q360.90625 140.60312 360.40625 140.80624Q359.92188 141.00937 359.21875 141.00937L358.29688 141.00937L358.29688 140.35312ZM358.29688 141.24374L358.29688 140.5875L359.21875 140.5875Q360.03125 140.5875 360.5625 140.79062Q361.09375 140.97812 361.40625 141.30624Q361.71875 141.61874 361.84375 142.00937Q361.96875 142.38437 361.96875 142.775Q361.96875 143.36874 361.76562 143.8375Q361.5625 144.29062 361.1875 144.61874Q360.82812 144.93124 360.32812 145.10312Q359.84375 145.275 359.26562 145.275Q358.70312 145.275 358.21875 145.11874Q357.73438 144.94687 357.35938 144.65Q356.98438 144.35312 356.76562 143.91562Q356.5625 143.4625 356.5625 142.9L357.64062 142.9Q357.64062 143.3375 357.82812 143.68124Q358.03125 144.00937 358.39062 144.19687Q358.76562 144.36874 359.26562 144.36874Q359.76562 144.36874 360.125 144.19687Q360.48438 144.025 360.67188 143.68124Q360.875 143.32187 360.875 142.79062Q360.875 142.25937 360.65625 141.91562Q360.4375 141.57187 360.01562 141.41562Q359.60938 141.24374 359.0625 141.24374L358.29688 141.24374Z" fill-rule="nonzero"/><path stroke="#cccccc" stroke-width="1.0" stroke-linecap="butt" d="M554.13336 290.0C554.13336 185.54454 469.45544 100.86667 365.0 100.86667C260.54456 100.86667 175.86667 185.54454 175.86667 290.0C175.86667 394.45544 260.54456 479.13333 365.0 479.13333C469.45544 479.13333 554.13336 394.45544 554.13336 290.0" fill-rule="nonzero"/><path fill="#000000" d="M353.0625 92.91354L353.0625 94.22604Q353.0625 95.27292 352.875 95.99167Q352.6875 96.71042 352.32812 97.14792Q351.98438 97.58542 351.48438 97.78854Q351.0 97.99167 350.375 97.99167Q349.89062 97.99167 349.46875 97.86667Q349.04688 97.74167 348.71875 97.47604Q348.39062 97.19479 348.15625 96.75729Q347.92188 96.31979 347.79688 95.69479Q347.67188 95.05417 347.67188 94.22604L347.67188 92.91354Q347.67188 91.86667 347.85938 91.16354Q348.0625 90.46042 348.40625 90.02292Q348.76562 89.58542 349.25 89.39792Q349.75 89.21042 350.35938 89.21042Q350.85938 89.21042 351.28125 89.33542Q351.70312 89.46042 352.03125 89.72604Q352.35938 89.97604 352.57812 90.41354Q352.8125 90.83542 352.9375 91.46042Q353.0625 92.08542 353.0625 92.91354ZM351.96875 94.39792L351.96875 92.74167Q351.96875 92.16354 351.90625 91.72604Q351.84375 91.28854 351.70312 90.97604Q351.57812 90.66354 351.375 90.47604Q351.1875 90.28854 350.9375 90.19479Q350.6875 90.10104 350.35938 90.10104Q349.98438 90.10104 349.67188 90.24167Q349.375 90.38229 349.17188 90.69479Q348.96875 91.00729 348.85938 91.52292Q348.76562 92.02292 348.76562 92.74167L348.76562 94.39792Q348.76562 94.97604 348.82812 95.41354Q348.90625 95.85104 349.03125 96.17917Q349.17188 96.49167 349.35938 96.69479Q349.5625 96.89792 349.8125 96.99167Q350.0625 97.08542 350.375 97.08542Q350.78125 97.08542 351.07812 96.94479Q351.375 96.78854 351.57812 96.46042Q351.78125 96.13229 351.875 95.63229Q351.96875 95.11667 351.96875 94.39792ZM355.8125 96.56979L355.8125 97.44479Q355.8125 97.99167 355.53125 98.58542Q355.26562 99.17917 354.78125 99.56979L354.17188 99.14792Q354.35938 98.88229 354.48438 98.61667Q354.60938 98.35104 354.67188 98.06979Q354.75 97.78854 354.75 97.46042L354.75 96.56979L355.8125 96.56979ZM362.46875 94.99167L362.46875 95.88229L356.3125 95.88229L356.3125 95.24167L360.125 89.33542L361.01562 89.33542L360.0625 91.03854L357.54688 94.99167L362.46875 94.99167ZM361.28125 89.33542L361.28125 97.86667L360.20312 97.86667L360.20312 89.33542L361.28125 89.33542Z" fill-rule="nonzero"/><path stroke="#cccccc" stroke-width="1.0" stroke-linecap="butt" d="M365.0 290.0L365.0 101.0" fill-rule="nonzero"/><path fill="#000000" d="M346.84375 65.96875L347.9375 65.96875L350.73438 72.921875L353.53125 65.96875L354.625 65.96875L351.15625 74.5L350.3125 74.5L346.84375 65.96875ZM346.48438 65.96875L347.45312 65.96875L347.60938 71.171875L347.60938 74.5L346.48438 74.5L346.48438 65.96875ZM354.01562 65.96875L354.98438 65.96875L354.98438 74.5L353.85938 74.5L353.85938 71.171875L354.01562 65.96875ZM358.10938 73.84375L359.875 68.15625L361.03125 68.15625L358.48438 75.484375Q358.40625 75.71875 358.25 75.984375Q358.10938 76.265625 357.89062 76.5Q357.67188 76.75 357.35938 76.90625Q357.04688 77.0625 356.60938 77.0625Q356.48438 77.0625 356.28125 77.015625Q356.07812 76.984375 356.0 76.96875L356.0 76.09375Q356.04688 76.09375 356.14062 76.09375Q356.25 76.109375 356.28125 76.109375Q356.65625 76.109375 356.90625 76.015625Q357.17188 75.921875 357.34375 75.6875Q357.53125 75.46875 357.65625 75.078125L358.10938 73.84375ZM356.8125 68.15625L358.45312 73.078125L358.73438 74.21875L357.96875 74.625L355.625 68.15625L356.8125 68.15625ZM363.40625 69.15625L363.40625 74.5L362.32812 74.5L362.32812 68.15625L363.375 68.15625L363.40625 69.15625ZM365.39062 68.125L365.39062 69.125Q365.25 69.109375 365.125 69.09375Q365.01562 69.078125 364.85938 69.078125Q364.48438 69.078125 364.1875 69.203125Q363.90625 69.3125 363.70312 69.53125Q363.51562 69.734375 363.39062 70.03125Q363.28125 70.328125 363.25 70.671875L362.9375 70.84375Q362.9375 70.265625 363.04688 69.765625Q363.17188 69.265625 363.40625 68.875Q363.65625 68.484375 364.01562 68.265625Q364.39062 68.046875 364.90625 68.046875Q365.03125 68.046875 365.17188 68.078125Q365.32812 68.09375 365.39062 68.125ZM368.85938 73.71875Q369.25 73.71875 369.57812 73.5625Q369.90625 73.40625 370.10938 73.140625Q370.32812 72.859375 370.35938 72.5L371.39062 72.5Q371.35938 73.0625 371.0 73.546875Q370.65625 74.03125 370.09375 74.328125Q369.53125 74.625 368.85938 74.625Q368.15625 74.625 367.625 74.375Q367.09375 74.109375 366.73438 73.671875Q366.39062 73.234375 366.21875 72.671875Q366.04688 72.09375 366.04688 71.453125L366.04688 71.203125Q366.04688 70.5625 366.21875 70.0Q366.39062 69.421875 366.73438 68.984375Q367.09375 68.546875 367.625 68.296875Q368.15625 68.046875 368.85938 68.046875Q369.60938 68.046875 370.15625 68.34375Q370.71875 68.640625 371.03125 69.171875Q371.35938 69.6875 371.39062 70.34375L370.35938 70.34375Q370.32812 69.953125 370.14062 69.640625Q369.95312 69.3125 369.625 69.125Q369.29688 68.9375 368.85938 68.9375Q368.35938 68.9375 368.01562 69.140625Q367.6875 69.328125 367.48438 69.65625Q367.29688 69.984375 367.20312 70.390625Q367.125 70.796875 367.125 71.203125L367.125 71.453125Q367.125 71.875 367.20312 72.28125Q367.29688 72.671875 367.48438 73.0Q367.6875 73.328125 368.01562 73.53125Q368.35938 73.71875 368.85938 73.71875ZM374.95312 74.625Q374.29688 74.625 373.75 74.40625Q373.21875 74.171875 372.82812 73.765625Q372.45312 73.34375 372.25 72.78125Q372.04688 72.21875 372.04688 71.546875L372.04688 71.3125Q372.04688 70.53125 372.26562 69.921875Q372.5 69.3125 372.89062 68.890625Q373.28125 68.46875 373.78125 68.265625Q374.28125 68.046875 374.8125 68.046875Q375.5 68.046875 375.98438 68.28125Q376.48438 68.515625 376.79688 68.9375Q377.125 69.34375 377.26562 69.921875Q377.42188 70.484375 377.42188 71.140625L377.42188 71.640625L372.6875 71.640625L372.6875 70.75L376.34375 70.75L376.34375 70.671875Q376.3125 70.25 376.15625 69.859375Q376.01562 69.453125 375.6875 69.203125Q375.375 68.9375 374.8125 68.9375Q374.45312 68.9375 374.14062 69.09375Q373.82812 69.25 373.59375 69.5625Q373.375 69.859375 373.25 70.296875Q373.14062 70.734375 373.14062 71.3125L373.14062 71.546875Q373.14062 72.0 373.26562 72.40625Q373.39062 72.796875 373.625 73.09375Q373.875 73.390625 374.21875 73.5625Q374.57812 73.734375 375.01562 73.734375Q375.59375 73.734375 375.98438 73.5Q376.39062 73.265625 376.6875 72.875L377.34375 73.390625Q377.14062 73.703125 376.8125 73.984375Q376.5 74.265625 376.03125 74.453125Q375.57812 74.625 374.95312 74.625ZM379.40625 69.515625L379.40625 74.5L378.32812 74.5L378.32812 68.15625L379.35938 68.15625L379.40625 69.515625ZM379.15625 71.09375L378.70312 71.078125Q378.70312 70.421875 378.89062 69.875Q379.07812 69.3125 379.42188 68.90625Q379.76562 68.5 380.23438 68.28125Q380.70312 68.046875 381.28125 68.046875Q381.75 68.046875 382.125 68.171875Q382.5 68.296875 382.76562 68.578125Q383.03125 68.84375 383.17188 69.28125Q383.3125 69.71875 383.3125 70.34375L383.3125 74.5L382.21875 74.5L382.21875 70.328125Q382.21875 69.828125 382.07812 69.53125Q381.9375 69.234375 381.65625 69.09375Q381.375 68.953125 380.95312 68.953125Q380.54688 68.953125 380.21875 69.125Q379.89062 69.296875 379.65625 69.59375Q379.42188 69.890625 379.28125 70.28125Q379.15625 70.65625 379.15625 71.09375Z" fill-rule="nonzero"/><path stroke="#cccccc" stroke-width="1.0" stroke-linecap="butt" d="M365.0 290.0L529.0 195.0" fill-rule="nonzero"/><path fill="#000000" d="M525.6406 181.78125L526.7656 181.78125Q526.6719 182.59375 526.2969 183.23438Q525.9219 183.875 525.2344 184.25Q524.5625 184.625 523.53125 184.625Q522.78125 184.625 522.1719 184.34375Q521.5625 184.04688 521.1094 183.53125Q520.6719 183.01562 520.4375 182.29688Q520.2031 181.5625 520.2031 180.65625L520.2031 179.8125Q520.2031 178.92188 520.4375 178.1875Q520.6719 177.45312 521.125 176.9375Q521.5781 176.40625 522.2031 176.125Q522.84375 175.84375 523.625 175.84375Q524.59375 175.84375 525.2656 176.21875Q525.9375 176.57812 526.2969 177.21875Q526.6719 177.85938 526.7656 178.70312L525.6406 178.70312Q525.5625 178.10938 525.3281 177.6875Q525.1094 177.25 524.7031 177.01562Q524.2969 176.78125 523.625 176.78125Q523.0625 176.78125 522.625 177.0Q522.2031 177.20312 521.90625 177.60938Q521.625 178.0 521.46875 178.5625Q521.3281 179.125 521.3281 179.79688L521.3281 180.65625Q521.3281 181.28125 521.4531 181.84375Q521.59375 182.39062 521.8594 182.8125Q522.125 183.21875 522.5469 183.46875Q522.96875 183.70312 523.53125 183.70312Q524.25 183.70312 524.6719 183.46875Q525.1094 183.23438 525.3281 182.8125Q525.5469 182.39062 525.6406 181.78125ZM532.0625 183.42188L532.0625 180.15625Q532.0625 179.78125 531.90625 179.5Q531.7656 179.21875 531.46875 179.07812Q531.1719 178.92188 530.7344 178.92188Q530.3125 178.92188 530.0 179.0625Q529.7031 179.20312 529.53125 179.4375Q529.3594 179.65625 529.3594 179.92188L528.28125 179.92188Q528.28125 179.57812 528.4531 179.25Q528.625 178.90625 528.9531 178.64062Q529.28125 178.35938 529.75 178.20312Q530.21875 178.04688 530.7969 178.04688Q531.4844 178.04688 532.0156 178.28125Q532.5469 178.51562 532.84375 178.98438Q533.15625 179.45312 533.15625 180.15625L533.15625 183.10938Q533.15625 183.4375 533.2031 183.79688Q533.2656 184.14062 533.375 184.40625L533.375 184.5L532.2344 184.5Q532.15625 184.3125 532.1094 184.0Q532.0625 183.6875 532.0625 183.42188ZM532.25 180.65625L532.2656 181.42188L531.1719 181.42188Q530.7031 181.42188 530.34375 181.5Q529.9844 181.5625 529.7344 181.71875Q529.4844 181.85938 529.3594 182.07812Q529.2344 182.29688 529.2344 182.59375Q529.2344 182.89062 529.3594 183.14062Q529.5 183.375 529.7656 183.53125Q530.0469 183.67188 530.4375 183.67188Q530.9375 183.67188 531.3125 183.46875Q531.7031 183.25 531.9219 182.95312Q532.15625 182.64062 532.1719 182.34375L532.6406 182.875Q532.59375 183.10938 532.40625 183.42188Q532.2344 183.71875 531.9219 184.0Q531.625 184.26562 531.2031 184.45312Q530.7969 184.625 530.28125 184.625Q529.6406 184.625 529.15625 184.375Q528.6719 184.10938 528.40625 183.6875Q528.1406 183.26562 528.1406 182.73438Q528.1406 182.21875 528.3281 181.84375Q528.53125 181.45312 528.90625 181.1875Q529.28125 180.92188 529.8125 180.79688Q530.34375 180.65625 531.0 180.65625L532.25 180.65625ZM536.40625 179.15625L536.40625 184.5L535.3281 184.5L535.3281 178.15625L536.375 178.15625L536.40625 179.15625ZM538.3906 178.125L538.3906 179.125Q538.25 179.10938 538.125 179.09375Q538.0156 179.07812 537.8594 179.07812Q537.4844 179.07812 537.1875 179.20312Q536.90625 179.3125 536.7031 179.53125Q536.5156 179.73438 536.3906 180.03125Q536.28125 180.32812 536.25 180.67188L535.9375 180.84375Q535.9375 180.26562 536.0469 179.76562Q536.1719 179.26562 536.40625 178.875Q536.65625 178.48438 537.0156 178.26562Q537.3906 178.04688 537.90625 178.04688Q538.03125 178.04688 538.1719 178.07812Q538.3281 178.09375 538.3906 178.125ZM541.1094 183.84375L542.875 178.15625L544.03125 178.15625L541.4844 185.48438Q541.40625 185.71875 541.25 185.98438Q541.1094 186.26562 540.8906 186.5Q540.6719 186.75 540.3594 186.90625Q540.0469 187.0625 539.6094 187.0625Q539.4844 187.0625 539.28125 187.01562Q539.0781 186.98438 539.0 186.96875L539.0 186.09375Q539.0469 186.09375 539.1406 186.09375Q539.25 186.10938 539.28125 186.10938Q539.65625 186.10938 539.90625 186.01562Q540.1719 185.92188 540.34375 185.6875Q540.53125 185.46875 540.65625 185.07812L541.1094 183.84375ZM539.8125 178.15625L541.4531 183.07812L541.7344 184.21875L540.96875 184.625L538.625 178.15625L539.8125 178.15625ZM545.0469 181.40625L545.0469 181.26562Q545.0469 180.57812 545.2344 180.0Q545.4375 179.40625 545.8125 178.96875Q546.1875 178.53125 546.71875 178.29688Q547.25 178.04688 547.9219 178.04688Q548.5781 178.04688 549.1094 178.29688Q549.65625 178.53125 550.03125 178.96875Q550.40625 179.40625 550.6094 180.0Q550.8125 180.57812 550.8125 181.26562L550.8125 181.40625Q550.8125 182.07812 550.6094 182.67188Q550.40625 183.25 550.03125 183.6875Q549.65625 184.125 549.125 184.375Q548.59375 184.625 547.9219 184.625Q547.2656 184.625 546.71875 184.375Q546.1875 184.125 545.8125 183.6875Q545.4375 183.25 545.2344 182.67188Q545.0469 182.07812 545.0469 181.40625ZM546.125 181.26562L546.125 181.40625Q546.125 181.875 546.2344 182.29688Q546.34375 182.71875 546.5625 183.04688Q546.7969 183.35938 547.1406 183.54688Q547.4844 183.71875 547.9219 183.71875Q548.375 183.71875 548.7031 183.54688Q549.0469 183.35938 549.2656 183.04688Q549.5 182.71875 549.6094 182.29688Q549.71875 181.875 549.71875 181.40625L549.71875 181.26562Q549.71875 180.79688 549.6094 180.375Q549.5 179.95312 549.2656 179.64062Q549.0469 179.3125 548.7031 179.125Q548.375 178.9375 547.9219 178.9375Q547.46875 178.9375 547.125 179.125Q546.7969 179.3125 546.5625 179.64062Q546.34375 179.95312 546.2344 180.375Q546.125 180.79688 546.125 181.26562ZM553.40625 179.375L553.40625 186.9375L552.3281 186.9375L552.3281 178.15625L553.3125 178.15625L553.40625 179.375ZM557.6875 181.28125L557.6875 181.40625Q557.6875 182.09375 557.5156 182.6875Q557.3594 183.26562 557.0469 183.70312Q556.7344 184.14062 556.2656 184.39062Q555.8125 184.625 555.21875 184.625Q554.625 184.625 554.15625 184.42188Q553.6875 184.21875 553.3594 183.84375Q553.0469 183.45312 552.8594 182.92188Q552.6719 182.39062 552.59375 181.71875L552.59375 181.0625Q552.6719 180.35938 552.8594 179.8125Q553.0469 179.25 553.3594 178.85938Q553.6875 178.45312 554.1406 178.25Q554.6094 178.04688 555.2031 178.04688Q555.7969 178.04688 556.2656 178.28125Q556.7344 178.5 557.0469 178.9375Q557.3594 179.35938 557.5156 179.95312Q557.6875 180.54688 557.6875 181.28125ZM556.59375 181.40625L556.59375 181.28125Q556.59375 180.79688 556.4844 180.39062Q556.3906 179.96875 556.1875 179.65625Q555.9844 179.32812 555.65625 179.14062Q555.3281 178.95312 554.8906 178.95312Q554.4844 178.95312 554.1719 179.09375Q553.875 179.23438 553.65625 179.48438Q553.4531 179.71875 553.3125 180.01562Q553.1875 180.3125 553.125 180.64062L553.125 182.15625Q553.2344 182.5625 553.4375 182.92188Q553.65625 183.28125 554.0 183.5Q554.3594 183.71875 554.90625 183.71875Q555.34375 183.71875 555.65625 183.54688Q555.9844 183.35938 556.1875 183.04688Q556.3906 182.71875 556.4844 182.29688Q556.59375 181.875 556.59375 181.40625ZM560.40625 175.5L560.40625 184.5L559.3281 184.5L559.3281 175.5L560.40625 175.5ZM560.15625 181.09375L559.7031 181.07812Q559.7031 180.42188 559.8906 179.875Q560.0781 179.3125 560.4219 178.90625Q560.7656 178.5 561.2344 178.28125Q561.7031 178.04688 562.28125 178.04688Q562.75 178.04688 563.125 178.17188Q563.5 178.29688 563.7656 178.57812Q564.03125 178.84375 564.1719 179.28125Q564.3125 179.71875 564.3125 180.34375L564.3125 184.5L563.21875 184.5L563.21875 180.32812Q563.21875 179.82812 563.0781 179.53125Q562.9375 179.23438 562.65625 179.09375Q562.375 178.95312 561.9531 178.95312Q561.5469 178.95312 561.21875 179.125Q560.8906 179.29688 560.65625 179.59375Q560.4219 179.89062 560.28125 180.28125Q560.15625 180.65625 560.15625 181.09375ZM568.1094 183.84375L569.875 178.15625L571.03125 178.15625L568.4844 185.48438Q568.40625 185.71875 568.25 185.98438Q568.1094 186.26562 567.8906 186.5Q567.6719 186.75 567.3594 186.90625Q567.0469 187.0625 566.6094 187.0625Q566.4844 187.0625 566.28125 187.01562Q566.0781 186.98438 566.0 186.96875L566.0 186.09375Q566.0469 186.09375 566.1406 186.09375Q566.25 186.10938 566.28125 186.10938Q566.65625 186.10938 566.90625 186.01562Q567.1719 185.92188 567.34375 185.6875Q567.53125 185.46875 567.65625 185.07812L568.1094 183.84375ZM566.8125 178.15625L568.4531 183.07812L568.7344 184.21875L567.96875 184.625L565.625 178.15625L566.8125 178.15625ZM573.5 175.5L573.5 184.5L572.4219 184.5L572.4219 175.5L573.5 175.5ZM576.5 175.5L576.5 184.5L575.4219 184.5L575.4219 175.5L576.5 175.5ZM580.9531 184.625Q580.2969 184.625 579.75 184.40625Q579.21875 184.17188 578.8281 183.76562Q578.4531 183.34375 578.25 182.78125Q578.0469 182.21875 578.0469 181.54688L578.0469 181.3125Q578.0469 180.53125 578.2656 179.92188Q578.5 179.3125 578.8906 178.89062Q579.28125 178.46875 579.78125 178.26562Q580.28125 178.04688 580.8125 178.04688Q581.5 178.04688 581.9844 178.28125Q582.4844 178.51562 582.7969 178.9375Q583.125 179.34375 583.2656 179.92188Q583.4219 180.48438 583.4219 181.14062L583.4219 181.64062L578.6875 181.64062L578.6875 180.75L582.34375 180.75L582.34375 180.67188Q582.3125 180.25 582.15625 179.85938Q582.0156 179.45312 581.6875 179.20312Q581.375 178.9375 580.8125 178.9375Q580.4531 178.9375 580.1406 179.09375Q579.8281 179.25 579.59375 179.5625Q579.375 179.85938 579.25 180.29688Q579.1406 180.73438 579.1406 181.3125L579.1406 181.54688Q579.1406 182.0 579.2656 182.40625Q579.3906 182.79688 579.625 183.09375Q579.875 183.39062 580.21875 183.5625Q580.5781 183.73438 581.0156 183.73438Q581.59375 183.73438 581.9844 183.5Q582.3906 183.26562 582.6875 182.875L583.34375 183.39062Q583.1406 183.70312 582.8125 183.98438Q582.5 184.26562 582.03125 184.45312Q581.5781 184.625 580.9531 184.625ZM585.40625 179.51562L585.40625 184.5L584.3281 184.5L584.3281 178.15625L585.3594 178.15625L585.40625 179.51562ZM585.15625 181.09375L584.7031 181.07812Q584.7031 180.42188 584.8906 179.875Q585.0781 179.3125 585.4219 178.90625Q585.7656 178.5 586.2344 178.28125Q586.7031 178.04688 587.28125 178.04688Q587.75 178.04688 588.125 178.17188Q588.5 178.29688 588.7656 178.57812Q589.03125 178.84375 589.1719 179.28125Q589.3125 179.71875 589.3125 180.34375L589.3125 184.5L588.21875 184.5L588.21875 180.32812Q588.21875 179.82812 588.0781 179.53125Q587.9375 179.23438 587.65625 179.09375Q587.375 178.95312 586.9531 178.95312Q586.5469 178.95312 586.21875 179.125Q585.8906 179.29688 585.65625 179.59375Q585.4219 179.89062 585.28125 180.28125Q585.15625 180.65625 585.15625 181.09375Z" fill-rule="nonzero"/><path stroke="#cccccc" stroke-width="1.0" stroke-linecap="butt" d="M365.0 290.0L529.0 385.0" fill-rule="nonzero"/><path fill="#000000" d="M537.6719 403.57812L537.6719 404.5L533.40625 404.5L533.40625 403.57812L537.6719 403.57812ZM533.625 395.96875L533.625 404.5L532.4844 404.5L532.4844 395.96875L533.625 395.96875ZM539.5 398.15625L539.5 404.5L538.4219 404.5L538.4219 398.15625L539.5 398.15625ZM538.3281 396.48438Q538.3281 396.21875 538.4844 396.03125Q538.65625 395.84375 538.96875 395.84375Q539.28125 395.84375 539.4375 396.03125Q539.6094 396.21875 539.6094 396.48438Q539.6094 396.73438 539.4375 396.92188Q539.28125 397.09375 538.96875 397.09375Q538.65625 397.09375 538.4844 396.92188Q538.3281 396.73438 538.3281 396.48438ZM542.40625 399.42188L542.40625 404.5L541.3125 404.5L541.3125 398.15625L542.34375 398.15625L542.40625 399.42188ZM542.1875 401.09375L541.6719 401.07812Q541.6875 400.42188 541.84375 399.875Q542.0156 399.3125 542.3281 398.90625Q542.65625 398.5 543.1406 398.28125Q543.625 398.04688 544.25 398.04688Q544.7031 398.04688 545.0781 398.17188Q545.4531 398.29688 545.71875 398.5625Q546.0 398.82812 546.1406 399.25Q546.2969 399.67188 546.2969 400.28125L546.2969 404.5L545.21875 404.5L545.21875 400.32812Q545.21875 399.82812 545.0469 399.53125Q544.8906 399.23438 544.5781 399.09375Q544.28125 398.95312 543.8594 398.95312Q543.3906 398.95312 543.0625 399.125Q542.7344 399.29688 542.5469 399.59375Q542.3594 399.89062 542.2656 400.28125Q542.1875 400.65625 542.1875 401.09375ZM546.2969 400.48438L545.5625 400.71875Q545.5625 400.1875 545.7344 399.71875Q545.90625 399.23438 546.21875 398.85938Q546.5469 398.48438 547.0156 398.26562Q547.4844 398.04688 548.0781 398.04688Q548.59375 398.04688 548.9844 398.1875Q549.3906 398.3125 549.65625 398.59375Q549.9219 398.875 550.0625 399.3125Q550.2031 399.73438 550.2031 400.32812L550.2031 404.5L549.125 404.5L549.125 400.32812Q549.125 399.78125 548.9531 399.5Q548.78125 399.20312 548.4844 399.07812Q548.1875 398.95312 547.7656 398.95312Q547.40625 398.95312 547.125 399.07812Q546.8594 399.20312 546.6719 399.42188Q546.4844 399.625 546.3906 399.90625Q546.2969 400.1875 546.2969 400.48438ZM552.0469 401.40625L552.0469 401.26562Q552.0469 400.57812 552.2344 400.0Q552.4375 399.40625 552.8125 398.96875Q553.1875 398.53125 553.71875 398.29688Q554.25 398.04688 554.9219 398.04688Q555.5781 398.04688 556.1094 398.29688Q556.65625 398.53125 557.03125 398.96875Q557.40625 399.40625 557.6094 400.0Q557.8125 400.57812 557.8125 401.26562L557.8125 401.40625Q557.8125 402.07812 557.6094 402.67188Q557.40625 403.25 557.03125 403.6875Q556.65625 404.125 556.125 404.375Q555.59375 404.625 554.9219 404.625Q554.2656 404.625 553.71875 404.375Q553.1875 404.125 552.8125 403.6875Q552.4375 403.25 552.2344 402.67188Q552.0469 402.07812 552.0469 401.40625ZM553.125 401.26562L553.125 401.40625Q553.125 401.875 553.2344 402.29688Q553.34375 402.71875 553.5625 403.04688Q553.7969 403.35938 554.1406 403.54688Q554.4844 403.71875 554.9219 403.71875Q555.375 403.71875 555.7031 403.54688Q556.0469 403.35938 556.2656 403.04688Q556.5 402.71875 556.6094 402.29688Q556.71875 401.875 556.71875 401.40625L556.71875 401.26562Q556.71875 400.79688 556.6094 400.375Q556.5 399.95312 556.2656 399.64062Q556.0469 399.3125 555.7031 399.125Q555.375 398.9375 554.9219 398.9375Q554.46875 398.9375 554.125 399.125Q553.7969 399.3125 553.5625 399.64062Q553.34375 399.95312 553.2344 400.375Q553.125 400.79688 553.125 401.26562ZM560.40625 399.51562L560.40625 404.5L559.3281 404.5L559.3281 398.15625L560.3594 398.15625L560.40625 399.51562ZM560.15625 401.09375L559.7031 401.07812Q559.7031 400.42188 559.8906 399.875Q560.0781 399.3125 560.4219 398.90625Q560.7656 398.5 561.2344 398.28125Q561.7031 398.04688 562.28125 398.04688Q562.75 398.04688 563.125 398.17188Q563.5 398.29688 563.7656 398.57812Q564.03125 398.84375 564.1719 399.28125Q564.3125 399.71875 564.3125 400.34375L564.3125 404.5L563.21875 404.5L563.21875 400.32812Q563.21875 399.82812 563.0781 399.53125Q562.9375 399.23438 562.65625 399.09375Q562.375 398.95312 561.9531 398.95312Q561.5469 398.95312 561.21875 399.125Q560.8906 399.29688 560.65625 399.59375Q560.4219 399.89062 560.28125 400.28125Q560.15625 400.65625 560.15625 401.09375ZM568.9531 404.625Q568.2969 404.625 567.75 404.40625Q567.21875 404.17188 566.8281 403.76562Q566.4531 403.34375 566.25 402.78125Q566.0469 402.21875 566.0469 401.54688L566.0469 401.3125Q566.0469 400.53125 566.2656 399.92188Q566.5 399.3125 566.8906 398.89062Q567.28125 398.46875 567.78125 398.26562Q568.28125 398.04688 568.8125 398.04688Q569.5 398.04688 569.9844 398.28125Q570.4844 398.51562 570.7969 398.9375Q571.125 399.34375 571.2656 399.92188Q571.4219 400.48438 571.4219 401.14062L571.4219 401.64062L566.6875 401.64062L566.6875 400.75L570.34375 400.75L570.34375 400.67188Q570.3125 400.25 570.15625 399.85938Q570.0156 399.45312 569.6875 399.20312Q569.375 398.9375 568.8125 398.9375Q568.4531 398.9375 568.1406 399.09375Q567.8281 399.25 567.59375 399.5625Q567.375 399.85938 567.25 400.29688Q567.1406 400.73438 567.1406 401.3125L567.1406 401.54688Q567.1406 402.0 567.2656 402.40625Q567.3906 402.79688 567.625 403.09375Q567.875 403.39062 568.21875 403.5625Q568.5781 403.73438 569.0156 403.73438Q569.59375 403.73438 569.9844 403.5Q570.3906 403.26562 570.6875 402.875L571.34375 403.39062Q571.1406 403.70312 570.8125 403.98438Q570.5 404.26562 570.03125 404.45312Q569.5781 404.625 568.9531 404.625ZM573.40625 399.51562L573.40625 404.5L572.3281 404.5L572.3281 398.15625L573.3594 398.15625L573.40625 399.51562ZM573.15625 401.09375L572.7031 401.07812Q572.7031 400.42188 572.8906 399.875Q573.0781 399.3125 573.4219 398.90625Q573.7656 398.5 574.2344 398.28125Q574.7031 398.04688 575.28125 398.04688Q575.75 398.04688 576.125 398.17188Q576.5 398.29688 576.7656 398.57812Q577.03125 398.84375 577.1719 399.28125Q577.3125 399.71875 577.3125 400.34375L577.3125 404.5L576.21875 404.5L576.21875 400.32812Q576.21875 399.82812 576.0781 399.53125Q575.9375 399.23438 575.65625 399.09375Q575.375 398.95312 574.9531 398.95312Q574.5469 398.95312 574.21875 399.125Q573.8906 399.29688 573.65625 399.59375Q573.4219 399.89062 573.28125 400.28125Q573.15625 400.65625 573.15625 401.09375Z" fill-rule="nonzero"/><path stroke="#cccccc" stroke-width="1.0" stroke-linecap="butt" d="M365.0 290.0L365.0 479.0" fill-rule="nonzero"/><path fill="#000000" d="M342.125 505.96875L342.125 514.5L340.98438 514.5L340.98438 505.96875L342.125 505.96875ZM345.70312 509.8125L345.70312 510.73438L341.875 510.73438L341.875 509.8125L345.70312 509.8125ZM346.28125 505.96875L346.28125 506.89062L341.875 506.89062L341.875 505.96875L346.28125 505.96875ZM351.5625 513.4219L351.5625 510.15625Q351.5625 509.78125 351.40625 509.5Q351.26562 509.21875 350.96875 509.07812Q350.67188 508.92188 350.23438 508.92188Q349.8125 508.92188 349.5 509.0625Q349.20312 509.20312 349.03125 509.4375Q348.85938 509.65625 348.85938 509.92188L347.78125 509.92188Q347.78125 509.57812 347.95312 509.25Q348.125 508.90625 348.45312 508.64062Q348.78125 508.35938 349.25 508.20312Q349.71875 508.04688 350.29688 508.04688Q350.98438 508.04688 351.51562 508.28125Q352.04688 508.51562 352.34375 508.98438Q352.65625 509.45312 352.65625 510.15625L352.65625 513.1094Q352.65625 513.4375 352.70312 513.7969Q352.76562 514.1406 352.875 514.40625L352.875 514.5L351.73438 514.5Q351.65625 514.3125 351.60938 514.0Q351.5625 513.6875 351.5625 513.4219ZM351.75 510.65625L351.76562 511.42188L350.67188 511.42188Q350.20312 511.42188 349.84375 511.5Q349.48438 511.5625 349.23438 511.71875Q348.98438 511.85938 348.85938 512.0781Q348.73438 512.2969 348.73438 512.59375Q348.73438 512.8906 348.85938 513.1406Q349.0 513.375 349.26562 513.53125Q349.54688 513.6719 349.9375 513.6719Q350.4375 513.6719 350.8125 513.46875Q351.20312 513.25 351.42188 512.9531Q351.65625 512.6406 351.67188 512.34375L352.14062 512.875Q352.09375 513.1094 351.90625 513.4219Q351.73438 513.71875 351.42188 514.0Q351.125 514.2656 350.70312 514.4531Q350.29688 514.625 349.78125 514.625Q349.14062 514.625 348.65625 514.375Q348.17188 514.1094 347.90625 513.6875Q347.64062 513.2656 347.64062 512.7344Q347.64062 512.21875 347.82812 511.84375Q348.03125 511.45312 348.40625 511.1875Q348.78125 510.92188 349.3125 510.79688Q349.84375 510.65625 350.5 510.65625L351.75 510.65625ZM355.90625 509.15625L355.90625 514.5L354.82812 514.5L354.82812 508.15625L355.875 508.15625L355.90625 509.15625ZM357.89062 508.125L357.89062 509.125Q357.75 509.10938 357.625 509.09375Q357.51562 509.07812 357.35938 509.07812Q356.98438 509.07812 356.6875 509.20312Q356.40625 509.3125 356.20312 509.53125Q356.01562 509.73438 355.89062 510.03125Q355.78125 510.32812 355.75 510.67188L355.4375 510.84375Q355.4375 510.26562 355.54688 509.76562Q355.67188 509.26562 355.90625 508.875Q356.15625 508.48438 356.51562 508.26562Q356.89062 508.04688 357.40625 508.04688Q357.53125 508.04688 357.67188 508.07812Q357.82812 508.09375 357.89062 508.125ZM359.90625 509.51562L359.90625 514.5L358.82812 514.5L358.82812 508.15625L359.85938 508.15625L359.90625 509.51562ZM359.65625 511.09375L359.20312 511.07812Q359.20312 510.42188 359.39062 509.875Q359.57812 509.3125 359.92188 508.90625Q360.26562 508.5 360.73438 508.28125Q361.20312 508.04688 361.78125 508.04688Q362.25 508.04688 362.625 508.17188Q363.0 508.29688 363.26562 508.57812Q363.53125 508.84375 363.67188 509.28125Q363.8125 509.71875 363.8125 510.34375L363.8125 514.5L362.71875 514.5L362.71875 510.32812Q362.71875 509.82812 362.57812 509.53125Q362.4375 509.23438 362.15625 509.09375Q361.875 508.95312 361.45312 508.95312Q361.04688 508.95312 360.71875 509.125Q360.39062 509.29688 360.15625 509.59375Q359.92188 509.89062 359.78125 510.28125Q359.65625 510.65625 359.65625 511.09375ZM368.45312 514.625Q367.79688 514.625 367.25 514.40625Q366.71875 514.1719 366.32812 513.7656Q365.95312 513.34375 365.75 512.78125Q365.54688 512.21875 365.54688 511.54688L365.54688 511.3125Q365.54688 510.53125 365.76562 509.92188Q366.0 509.3125 366.39062 508.89062Q366.78125 508.46875 367.28125 508.26562Q367.78125 508.04688 368.3125 508.04688Q369.0 508.04688 369.48438 508.28125Q369.98438 508.51562 370.29688 508.9375Q370.625 509.34375 370.76562 509.92188Q370.92188 510.48438 370.92188 511.14062L370.92188 511.64062L366.1875 511.64062L366.1875 510.75L369.84375 510.75L369.84375 510.67188Q369.8125 510.25 369.65625 509.85938Q369.51562 509.45312 369.1875 509.20312Q368.875 508.9375 368.3125 508.9375Q367.95312 508.9375 367.64062 509.09375Q367.32812 509.25 367.09375 509.5625Q366.875 509.85938 366.75 510.29688Q366.64062 510.73438 366.64062 511.3125L366.64062 511.54688Q366.64062 512.0 366.76562 512.40625Q366.89062 512.7969 367.125 513.09375Q367.375 513.3906 367.71875 513.5625Q368.07812 513.7344 368.51562 513.7344Q369.09375 513.7344 369.48438 513.5Q369.89062 513.2656 370.1875 512.875L370.84375 513.3906Q370.64062 513.7031 370.3125 513.9844Q370.0 514.2656 369.53125 514.4531Q369.07812 514.625 368.45312 514.625ZM375.51562 512.8125Q375.51562 512.5781 375.40625 512.375Q375.3125 512.1719 375.0 512.0156Q374.6875 511.84375 374.0625 511.71875Q373.53125 511.60938 373.10938 511.46875Q372.6875 511.3125 372.39062 511.09375Q372.09375 510.875 371.9375 510.57812Q371.78125 510.28125 371.78125 509.89062Q371.78125 509.51562 371.9375 509.1875Q372.10938 508.84375 372.40625 508.59375Q372.71875 508.32812 373.15625 508.1875Q373.59375 508.04688 374.125 508.04688Q374.89062 508.04688 375.42188 508.3125Q375.96875 508.57812 376.25 509.03125Q376.53125 509.48438 376.53125 510.01562L375.45312 510.01562Q375.45312 509.76562 375.29688 509.51562Q375.14062 509.26562 374.84375 509.10938Q374.54688 508.9375 374.125 508.9375Q373.67188 508.9375 373.39062 509.07812Q373.10938 509.20312 372.98438 509.42188Q372.85938 509.625 372.85938 509.85938Q372.85938 510.04688 372.92188 510.1875Q372.98438 510.3125 373.14062 510.4375Q373.29688 510.54688 373.57812 510.65625Q373.875 510.75 374.32812 510.84375Q375.10938 511.01562 375.60938 511.26562Q376.10938 511.51562 376.35938 511.875Q376.60938 512.21875 376.60938 512.7344Q376.60938 513.15625 376.42188 513.5Q376.25 513.84375 375.92188 514.09375Q375.60938 514.34375 375.15625 514.4844Q374.70312 514.625 374.15625 514.625Q373.3125 514.625 372.73438 514.3281Q372.15625 514.0156 371.85938 513.5469Q371.5625 513.0625 371.5625 512.5469L372.64062 512.5469Q372.67188 512.9844 372.90625 513.25Q373.14062 513.5156 373.46875 513.625Q373.8125 513.71875 374.15625 513.71875Q374.59375 513.71875 374.89062 513.6094Q375.20312 513.4844 375.35938 513.28125Q375.51562 513.0781 375.51562 512.8125ZM380.45312 514.625Q379.79688 514.625 379.25 514.40625Q378.71875 514.1719 378.32812 513.7656Q377.95312 513.34375 377.75 512.78125Q377.54688 512.21875 377.54688 511.54688L377.54688 511.3125Q377.54688 510.53125 377.76562 509.92188Q378.0 509.3125 378.39062 508.89062Q378.78125 508.46875 379.28125 508.26562Q379.78125 508.04688 380.3125 508.04688Q381.0 508.04688 381.48438 508.28125Q381.98438 508.51562 382.29688 508.9375Q382.625 509.34375 382.76562 509.92188Q382.92188 510.48438 382.92188 511.14062L382.92188 511.64062L378.1875 511.64062L378.1875 510.75L381.84375 510.75L381.84375 510.67188Q381.8125 510.25 381.65625 509.85938Q381.51562 509.45312 381.1875 509.20312Q380.875 508.9375 380.3125 508.9375Q379.95312 508.9375 379.64062 509.09375Q379.32812 509.25 379.09375 509.5625Q378.875 509.85938 378.75 510.29688Q378.64062 510.73438 378.64062 511.3125L378.64062 511.54688Q378.64062 512.0 378.76562 512.40625Q378.89062 512.7969 379.125 513.09375Q379.375 513.3906 379.71875 513.5625Q380.07812 513.7344 380.51562 513.7344Q381.09375 513.7344 381.48438 513.5Q381.89062 513.2656 382.1875 512.875L382.84375 513.3906Q382.64062 513.7031 382.3125 513.9844Q382.0 514.2656 381.53125 514.4531Q381.07812 514.625 380.45312 514.625ZM384.90625 509.51562L384.90625 514.5L383.82812 514.5L383.82812 508.15625L384.85938 508.15625L384.90625 509.51562ZM384.65625 511.09375L384.20312 511.07812Q384.20312 510.42188 384.39062 509.875Q384.57812 509.3125 384.92188 508.90625Q385.26562 508.5 385.73438 508.28125Q386.20312 508.04688 386.78125 508.04688Q387.25 508.04688 387.625 508.17188Q388.0 508.29688 388.26562 508.57812Q388.53125 508.84375 388.67188 509.28125Q388.8125 509.71875 388.8125 510.34375L388.8125 514.5L387.71875 514.5L387.71875 510.32812Q387.71875 509.82812 387.57812 509.53125Q387.4375 509.23438 387.15625 509.09375Q386.875 508.95312 386.45312 508.95312Q386.04688 508.95312 385.71875 509.125Q385.39062 509.29688 385.15625 509.59375Q384.92188 509.89062 384.78125 510.28125Q384.65625 510.65625 384.65625 511.09375Z" fill-rule="nonzero"/><path stroke="#cccccc" stroke-width="1.0" stroke-linecap="butt" d="M365.0 290.0L201.0 385.0" fill-rule="nonzero"/><path fill="#000000" d="M145.59375 401.5625L145.59375 401.4375Q145.59375 400.6875 145.75 400.07812Q145.92188 399.45312 146.23438 399.0Q146.54688 398.54688 147.0 398.29688Q147.46875 398.04688 148.0625 398.04688Q148.51562 398.04688 148.875 398.1875Q149.25 398.3125 149.53125 398.57812Q149.8125 398.82812 150.01562 399.20312Q150.21875 399.57812 150.34375 400.0625Q150.46875 400.53125 150.51562 401.09375L150.51562 401.57812Q150.45312 402.28125 150.26562 402.84375Q150.09375 403.40625 149.79688 403.8125Q149.5 404.20312 149.0625 404.42188Q148.64062 404.625 148.04688 404.625Q147.46875 404.625 147.0 404.40625Q146.54688 404.17188 146.23438 403.76562Q145.92188 403.34375 145.75 402.79688Q145.59375 402.23438 145.59375 401.5625ZM146.67188 401.4375L146.67188 401.5625Q146.67188 402.01562 146.76562 402.40625Q146.85938 402.79688 147.04688 403.09375Q147.25 403.39062 147.5625 403.5625Q147.89062 403.73438 148.32812 403.73438Q148.75 403.73438 149.04688 403.5625Q149.35938 403.375 149.5625 403.07812Q149.78125 402.78125 149.90625 402.39062Q150.04688 402.0 150.14062 401.59375L150.14062 401.20312Q150.07812 400.76562 149.9375 400.375Q149.8125 399.96875 149.59375 399.64062Q149.39062 399.3125 149.07812 399.125Q148.76562 398.9375 148.32812 398.9375Q147.89062 398.9375 147.57812 399.14062Q147.26562 399.32812 147.0625 399.67188Q146.85938 400.01562 146.76562 400.48438Q146.67188 400.9375 146.67188 401.4375ZM149.98438 398.15625L150.90625 398.15625L150.90625 402.76562Q150.90625 403.04688 150.9375 403.21875Q150.96875 403.375 151.03125 403.48438Q151.10938 403.57812 151.1875 403.625Q151.28125 403.65625 151.375 403.65625Q151.42188 403.65625 151.46875 403.64062Q151.53125 403.625 151.5625 403.60938L151.70312 404.42188Q151.51562 404.54688 151.34375 404.57812Q151.17188 404.625 150.98438 404.625Q150.70312 404.625 150.48438 404.51562Q150.28125 404.42188 150.125 404.20312Q149.96875 403.98438 149.89062 403.625Q149.8125 403.26562 149.8125 402.76562L149.8125 399.53125L149.98438 398.15625ZM155.07812 400.42188L155.07812 401.3125L152.21875 401.3125L152.21875 400.42188L155.07812 400.42188ZM161.5625 399.64062L161.5625 400.5625L156.95312 400.5625L156.95312 399.64062L161.5625 399.64062ZM157.125 395.96875L157.125 404.5L155.98438 404.5L155.98438 395.96875L157.125 395.96875ZM162.54688 395.96875L162.54688 404.5L161.42188 404.5L161.42188 395.96875L162.54688 395.96875ZM168.70312 403.03125L168.70312 398.15625L169.79688 398.15625L169.79688 404.5L168.76562 404.5L168.70312 403.03125ZM168.90625 401.70312L169.35938 401.6875Q169.35938 402.3125 169.21875 402.85938Q169.09375 403.39062 168.79688 403.78125Q168.51562 404.17188 168.03125 404.40625Q167.5625 404.625 166.89062 404.625Q166.42188 404.625 166.03125 404.48438Q165.65625 404.34375 165.375 404.0625Q165.10938 403.78125 164.95312 403.32812Q164.79688 402.875 164.79688 402.25L164.79688 398.15625L165.89062 398.15625L165.89062 402.26562Q165.89062 402.6875 165.98438 402.96875Q166.07812 403.25 166.25 403.40625Q166.42188 403.5625 166.625 403.64062Q166.82812 403.70312 167.04688 403.70312Q167.75 403.70312 168.14062 403.4375Q168.54688 403.15625 168.71875 402.70312Q168.90625 402.25 168.90625 401.70312ZM172.90625 399.42188L172.90625 404.5L171.8125 404.5L171.8125 398.15625L172.84375 398.15625L172.90625 399.42188ZM172.6875 401.09375L172.17188 401.07812Q172.1875 400.42188 172.34375 399.875Q172.51562 399.3125 172.82812 398.90625Q173.15625 398.5 173.64062 398.28125Q174.125 398.04688 174.75 398.04688Q175.20312 398.04688 175.57812 398.17188Q175.95312 398.29688 176.21875 398.5625Q176.5 398.82812 176.64062 399.25Q176.79688 399.67188 176.79688 400.28125L176.79688 404.5L175.71875 404.5L175.71875 400.32812Q175.71875 399.82812 175.54688 399.53125Q175.39062 399.23438 175.07812 399.09375Q174.78125 398.95312 174.35938 398.95312Q173.89062 398.95312 173.5625 399.125Q173.23438 399.29688 173.04688 399.59375Q172.85938 399.89062 172.76562 400.28125Q172.6875 400.65625 172.6875 401.09375ZM176.79688 400.48438L176.0625 400.71875Q176.0625 400.1875 176.23438 399.71875Q176.40625 399.23438 176.71875 398.85938Q177.04688 398.48438 177.51562 398.26562Q177.98438 398.04688 178.57812 398.04688Q179.09375 398.04688 179.48438 398.1875Q179.89062 398.3125 180.15625 398.59375Q180.42188 398.875 180.5625 399.3125Q180.70312 399.73438 180.70312 400.32812L180.70312 404.5L179.625 404.5L179.625 400.32812Q179.625 399.78125 179.45312 399.5Q179.28125 399.20312 178.98438 399.07812Q178.6875 398.95312 178.26562 398.95312Q177.90625 398.95312 177.625 399.07812Q177.35938 399.20312 177.17188 399.42188Q176.98438 399.625 176.89062 399.90625Q176.79688 400.1875 176.79688 400.48438ZM186.70312 403.03125L186.70312 398.15625L187.79688 398.15625L187.79688 404.5L186.76562 404.5L186.70312 403.03125ZM186.90625 401.70312L187.35938 401.6875Q187.35938 402.3125 187.21875 402.85938Q187.09375 403.39062 186.79688 403.78125Q186.51562 404.17188 186.03125 404.40625Q185.5625 404.625 184.89062 404.625Q184.42188 404.625 184.03125 404.48438Q183.65625 404.34375 183.375 404.0625Q183.10938 403.78125 182.95312 403.32812Q182.79688 402.875 182.79688 402.25L182.79688 398.15625L183.89062 398.15625L183.89062 402.26562Q183.89062 402.6875 183.98438 402.96875Q184.07812 403.25 184.25 403.40625Q184.42188 403.5625 184.625 403.64062Q184.82812 403.70312 185.04688 403.70312Q185.75 403.70312 186.14062 403.4375Q186.54688 403.15625 186.71875 402.70312Q186.90625 402.25 186.90625 401.70312ZM191.0 395.5L191.0 404.5L189.92188 404.5L189.92188 395.5L191.0 395.5ZM195.45312 404.625Q194.79688 404.625 194.25 404.40625Q193.71875 404.17188 193.32812 403.76562Q192.95312 403.34375 192.75 402.78125Q192.54688 402.21875 192.54688 401.54688L192.54688 401.3125Q192.54688 400.53125 192.76562 399.92188Q193.0 399.3125 193.39062 398.89062Q193.78125 398.46875 194.28125 398.26562Q194.78125 398.04688 195.3125 398.04688Q196.0 398.04688 196.48438 398.28125Q196.98438 398.51562 197.29688 398.9375Q197.625 399.34375 197.76562 399.92188Q197.92188 400.48438 197.92188 401.14062L197.92188 401.64062L193.1875 401.64062L193.1875 400.75L196.84375 400.75L196.84375 400.67188Q196.8125 400.25 196.65625 399.85938Q196.51562 399.45312 196.1875 399.20312Q195.875 398.9375 195.3125 398.9375Q194.95312 398.9375 194.64062 399.09375Q194.32812 399.25 194.09375 399.5625Q193.875 399.85938 193.75 400.29688Q193.64062 400.73438 193.64062 401.3125L193.64062 401.54688Q193.64062 402.0 193.76562 402.40625Q193.89062 402.79688 194.125 403.09375Q194.375 403.39062 194.71875 403.5625Q195.07812 403.73438 195.51562 403.73438Q196.09375 403.73438 196.48438 403.5Q196.89062 403.26562 197.1875 402.875L197.84375 403.39062Q197.64062 403.70312 197.3125 403.98438Q197.0 404.26562 196.53125 404.45312Q196.07812 404.625 195.45312 404.625ZM199.90625 399.51562L199.90625 404.5L198.82812 404.5L198.82812 398.15625L199.85938 398.15625L199.90625 399.51562ZM199.65625 401.09375L199.20312 401.07812Q199.20312 400.42188 199.39062 399.875Q199.57812 399.3125 199.92188 398.90625Q200.26562 398.5 200.73438 398.28125Q201.20312 398.04688 201.78125 398.04688Q202.25 398.04688 202.625 398.17188Q203.0 398.29688 203.26562 398.57812Q203.53125 398.84375 203.67188 399.28125Q203.8125 399.71875 203.8125 400.34375L203.8125 404.5L202.71875 404.5L202.71875 400.32812Q202.71875 399.82812 202.57812 399.53125Q202.4375 399.23438 202.15625 399.09375Q201.875 398.95312 201.45312 398.95312Q201.04688 398.95312 200.71875 399.125Q200.39062 399.29688 200.15625 399.59375Q199.92188 399.89062 199.78125 400.28125Q199.65625 400.65625 199.65625 401.09375Z" fill-rule="nonzero"/><path stroke="#cccccc" stroke-width="1.0" stroke-linecap="butt" d="M365.0 290.0L201.0 195.0" fill-rule="nonzero"/><path fill="#000000" d="M157.03125 182.34375Q157.03125 182.04688 156.9375 181.8125Q156.85938 181.57812 156.625 181.39062Q156.40625 181.20312 156.0 181.03125Q155.60938 180.85938 155.01562 180.6875Q154.375 180.5 153.85938 180.28125Q153.35938 180.04688 152.98438 179.75Q152.625 179.4375 152.4375 179.0625Q152.25 178.67188 152.25 178.17188Q152.25 177.67188 152.45312 177.25Q152.65625 176.82812 153.03125 176.51562Q153.42188 176.20312 153.95312 176.03125Q154.48438 175.84375 155.14062 175.84375Q156.10938 175.84375 156.78125 176.21875Q157.45312 176.57812 157.79688 177.17188Q158.15625 177.76562 158.15625 178.42188L157.03125 178.42188Q157.03125 177.95312 156.8125 177.57812Q156.60938 177.20312 156.1875 177.0Q155.78125 176.78125 155.14062 176.78125Q154.54688 176.78125 154.14062 176.96875Q153.75 177.14062 153.5625 177.45312Q153.375 177.76562 153.375 178.15625Q153.375 178.42188 153.48438 178.65625Q153.60938 178.875 153.84375 179.0625Q154.09375 179.25 154.46875 179.40625Q154.84375 179.5625 155.375 179.70312Q156.09375 179.90625 156.625 180.17188Q157.15625 180.42188 157.5 180.73438Q157.84375 181.04688 158.0 181.4375Q158.17188 181.82812 158.17188 182.32812Q158.17188 182.85938 157.95312 183.28125Q157.75 183.70312 157.35938 184.0Q156.96875 184.29688 156.42188 184.46875Q155.875 184.625 155.20312 184.625Q154.60938 184.625 154.03125 184.45312Q153.46875 184.28125 153.0 183.95312Q152.53125 183.625 152.25 183.15625Q151.96875 182.67188 151.96875 182.03125L153.09375 182.03125Q153.09375 182.46875 153.26562 182.78125Q153.4375 183.09375 153.73438 183.29688Q154.03125 183.5 154.40625 183.60938Q154.78125 183.70312 155.20312 183.70312Q155.79688 183.70312 156.20312 183.54688Q156.60938 183.375 156.8125 183.07812Q157.03125 182.76562 157.03125 182.34375ZM159.04688 181.40625L159.04688 181.26562Q159.04688 180.57812 159.23438 180.0Q159.4375 179.40625 159.8125 178.96875Q160.1875 178.53125 160.71875 178.29688Q161.25 178.04688 161.92188 178.04688Q162.57812 178.04688 163.10938 178.29688Q163.65625 178.53125 164.03125 178.96875Q164.40625 179.40625 164.60938 180.0Q164.8125 180.57812 164.8125 181.26562L164.8125 181.40625Q164.8125 182.07812 164.60938 182.67188Q164.40625 183.25 164.03125 183.6875Q163.65625 184.125 163.125 184.375Q162.59375 184.625 161.92188 184.625Q161.26562 184.625 160.71875 184.375Q160.1875 184.125 159.8125 183.6875Q159.4375 183.25 159.23438 182.67188Q159.04688 182.07812 159.04688 181.40625ZM160.125 181.26562L160.125 181.40625Q160.125 181.875 160.23438 182.29688Q160.34375 182.71875 160.5625 183.04688Q160.79688 183.35938 161.14062 183.54688Q161.48438 183.71875 161.92188 183.71875Q162.375 183.71875 162.70312 183.54688Q163.04688 183.35938 163.26562 183.04688Q163.5 182.71875 163.60938 182.29688Q163.71875 181.875 163.71875 181.40625L163.71875 181.26562Q163.71875 180.79688 163.60938 180.375Q163.5 179.95312 163.26562 179.64062Q163.04688 179.3125 162.70312 179.125Q162.375 178.9375 161.92188 178.9375Q161.46875 178.9375 161.125 179.125Q160.79688 179.3125 160.5625 179.64062Q160.34375 179.95312 160.23438 180.375Q160.125 180.79688 160.125 181.26562ZM167.40625 179.51562L167.40625 184.5L166.32812 184.5L166.32812 178.15625L167.35938 178.15625L167.40625 179.51562ZM167.15625 181.09375L166.70312 181.07812Q166.70312 180.42188 166.89062 179.875Q167.07812 179.3125 167.42188 178.90625Q167.76562 178.5 168.23438 178.28125Q168.70312 178.04688 169.28125 178.04688Q169.75 178.04688 170.125 178.17188Q170.5 178.29688 170.76562 178.57812Q171.03125 178.84375 171.17188 179.28125Q171.3125 179.71875 171.3125 180.34375L171.3125 184.5L170.21875 184.5L170.21875 180.32812Q170.21875 179.82812 170.07812 179.53125Q169.9375 179.23438 169.65625 179.09375Q169.375 178.95312 168.95312 178.95312Q168.54688 178.95312 168.21875 179.125Q167.89062 179.29688 167.65625 179.59375Q167.42188 179.89062 167.28125 180.28125Q167.15625 180.65625 167.15625 181.09375ZM177.01562 182.8125Q177.01562 182.57812 176.90625 182.375Q176.8125 182.17188 176.5 182.01562Q176.1875 181.84375 175.5625 181.71875Q175.03125 181.60938 174.60938 181.46875Q174.1875 181.3125 173.89062 181.09375Q173.59375 180.875 173.4375 180.57812Q173.28125 180.28125 173.28125 179.89062Q173.28125 179.51562 173.4375 179.1875Q173.60938 178.84375 173.90625 178.59375Q174.21875 178.32812 174.65625 178.1875Q175.09375 178.04688 175.625 178.04688Q176.39062 178.04688 176.92188 178.3125Q177.46875 178.57812 177.75 179.03125Q178.03125 179.48438 178.03125 180.01562L176.95312 180.01562Q176.95312 179.76562 176.79688 179.51562Q176.64062 179.26562 176.34375 179.10938Q176.04688 178.9375 175.625 178.9375Q175.17188 178.9375 174.89062 179.07812Q174.60938 179.20312 174.48438 179.42188Q174.35938 179.625 174.35938 179.85938Q174.35938 180.04688 174.42188 180.1875Q174.48438 180.3125 174.64062 180.4375Q174.79688 180.54688 175.07812 180.65625Q175.375 180.75 175.82812 180.84375Q176.60938 181.01562 177.10938 181.26562Q177.60938 181.51562 177.85938 181.875Q178.10938 182.21875 178.10938 182.73438Q178.10938 183.15625 177.92188 183.5Q177.75 183.84375 177.42188 184.09375Q177.10938 184.34375 176.65625 184.48438Q176.20312 184.625 175.65625 184.625Q174.8125 184.625 174.23438 184.32812Q173.65625 184.01562 173.35938 183.54688Q173.0625 183.0625 173.0625 182.54688L174.14062 182.54688Q174.17188 182.98438 174.40625 183.25Q174.64062 183.51562 174.96875 183.625Q175.3125 183.71875 175.65625 183.71875Q176.09375 183.71875 176.39062 183.60938Q176.70312 183.48438 176.85938 183.28125Q177.01562 183.07812 177.01562 182.8125ZM181.98438 178.15625L181.98438 178.98438L178.54688 178.98438L178.54688 178.15625L181.98438 178.15625ZM179.71875 176.625L180.79688 176.625L180.79688 182.92188Q180.79688 183.25 180.89062 183.42188Q181.0 183.57812 181.15625 183.64062Q181.3125 183.6875 181.5 183.6875Q181.625 183.6875 181.76562 183.65625Q181.92188 183.625 182.0 183.60938L182.01562 184.5Q181.875 184.54688 181.67188 184.57812Q181.46875 184.625 181.17188 184.625Q180.78125 184.625 180.4375 184.46875Q180.10938 184.29688 179.90625 183.9375Q179.71875 183.5625 179.71875 182.92188L179.71875 176.625ZM184.5 178.15625L184.5 184.5L183.42188 184.5L183.42188 178.15625L184.5 178.15625ZM183.32812 176.48438Q183.32812 176.21875 183.48438 176.03125Q183.65625 175.84375 183.96875 175.84375Q184.28125 175.84375 184.4375 176.03125Q184.60938 176.21875 184.60938 176.48438Q184.60938 176.73438 184.4375 176.92188Q184.28125 177.09375 183.96875 177.09375Q183.65625 177.09375 183.48438 176.92188Q183.32812 176.73438 183.32812 176.48438ZM190.4375 178.15625L191.42188 178.15625L191.42188 184.35938Q191.42188 185.20312 191.07812 185.79688Q190.73438 186.39062 190.125 186.6875Q189.53125 187.0 188.73438 187.0Q188.40625 187.0 187.95312 186.89062Q187.51562 186.79688 187.09375 186.54688Q186.67188 186.3125 186.39062 185.90625L186.95312 185.25Q187.35938 185.73438 187.78125 185.92188Q188.21875 186.10938 188.65625 186.10938Q189.17188 186.10938 189.54688 185.90625Q189.92188 185.71875 190.125 185.34375Q190.32812 184.96875 190.32812 184.42188L190.32812 179.54688L190.4375 178.15625ZM186.0625 181.40625L186.0625 181.28125Q186.0625 180.54688 186.23438 179.95312Q186.42188 179.35938 186.73438 178.9375Q187.0625 178.5 187.51562 178.28125Q187.98438 178.04688 188.57812 178.04688Q189.17188 178.04688 189.60938 178.25Q190.0625 178.45312 190.375 178.85938Q190.6875 179.25 190.875 179.8125Q191.0625 180.35938 191.125 181.0625L191.125 181.60938Q191.0625 182.29688 190.875 182.85938Q190.6875 183.42188 190.375 183.8125Q190.0625 184.20312 189.60938 184.42188Q189.15625 184.625 188.5625 184.625Q187.98438 184.625 187.53125 184.39062Q187.07812 184.14062 186.75 183.70312Q186.42188 183.26562 186.23438 182.6875Q186.0625 182.09375 186.0625 181.40625ZM187.15625 181.28125L187.15625 181.40625Q187.15625 181.875 187.25 182.29688Q187.34375 182.70312 187.54688 183.03125Q187.75 183.34375 188.0625 183.53125Q188.39062 183.70312 188.82812 183.70312Q189.35938 183.70312 189.70312 183.46875Q190.0625 183.23438 190.26562 182.85938Q190.48438 182.48438 190.59375 182.04688L190.59375 180.64062Q190.53125 180.3125 190.39062 180.01562Q190.26562 179.71875 190.0625 179.48438Q189.85938 179.23438 189.54688 179.09375Q189.25 178.95312 188.82812 178.95312Q188.39062 178.95312 188.0625 179.14062Q187.75 179.32812 187.54688 179.65625Q187.34375 179.96875 187.25 180.39062Q187.15625 180.79688 187.15625 181.28125ZM195.95312 184.625Q195.29688 184.625 194.75 184.40625Q194.21875 184.17188 193.82812 183.76562Q193.45312 183.34375 193.25 182.78125Q193.04688 182.21875 193.04688 181.54688L193.04688 181.3125Q193.04688 180.53125 193.26562 179.92188Q193.5 179.3125 193.89062 178.89062Q194.28125 178.46875 194.78125 178.26562Q195.28125 178.04688 195.8125 178.04688Q196.5 178.04688 196.98438 178.28125Q197.48438 178.51562 197.79688 178.9375Q198.125 179.34375 198.26562 179.92188Q198.42188 180.48438 198.42188 181.14062L198.42188 181.64062L193.6875 181.64062L193.6875 180.75L197.34375 180.75L197.34375 180.67188Q197.3125 180.25 197.15625 179.85938Q197.01562 179.45312 196.6875 179.20312Q196.375 178.9375 195.8125 178.9375Q195.45312 178.9375 195.14062 179.09375Q194.82812 179.25 194.59375 179.5625Q194.375 179.85938 194.25 180.29688Q194.14062 180.73438 194.14062 181.3125L194.14062 181.54688Q194.14062 182.0 194.26562 182.40625Q194.39062 182.79688 194.625 183.09375Q194.875 183.39062 195.21875 183.5625Q195.57812 183.73438 196.01562 183.73438Q196.59375 183.73438 196.98438 183.5Q197.39062 183.26562 197.6875 182.875L198.34375 183.39062Q198.14062 183.70312 197.8125 183.98438Q197.5 184.26562 197.03125 184.45312Q196.57812 184.625 195.95312 184.625Z" fill-rule="nonzero"/><path stroke="#cccccc" stroke-width="1.0" stroke-linecap="butt" d="M365.0 290.0L365.0 101.0" fill-rule="nonzero"/><path stroke="#ff0000" stroke-width="2.0" stroke-linecap="butt" stroke-opacity="0.7019608" stroke-dasharray="8.0,6.0,2.0,6.0" d="M365.0 134.0L447.0 243.0L439.0 333.0L365.0 328.0L349.0 299.0L304.0 255.0Z" fill-rule="nonzero"/><path fill="#ff0000" fill-opacity="0.7019608" d="M361.81802 130.81802L365.0 132.875L368.18198 130.81802L366.125 134.0L368.18198 137.18198L365.0 135.125L361.81802 137.18198L363.875 134.0Z" fill-rule="nonzero"/><path fill="#ff0000" fill-opacity="0.7019608" d="M443.81802 239.81802L447.0 241.875L450.18198 239.81802L448.125 243.0L450.18198 246.18198L447.0 244.125L443.81802 246.18198L445.875 243.0Z" fill-rule="nonzero"/><path fill="#ff0000" fill-opacity="0.7019608" d="M435.81802 329.81802L439.0 331.875L442.18198 329.81802L440.125 333.0L442.18198 336.18198L439.0 334.125L435.81802 336.18198L437.875 333.0Z" fill-rule="nonzero"/><path fill="#ff0000" fill-opacity="0.7019608" d="M361.81802 324.81802L365.0 326.875L368.18198 324.81802L366.125 328.0L368.18198 331.18198L365.0 329.125L361.81802 331.18198L363.875 328.0Z" fill-rule="nonzero"/><path fill="#ff0000" fill-opacity="0.7019608" d="M345.81802 295.81802L349.0 297.875L352.18198 295.81802L350.125 299.0L352.18198 302.18198L349.0 300.125L345.81802 302.18198L347.875 299.0Z" fill-rule="nonzero"/><path fill="#ff0000" fill-opacity="0.7019608" d="M300.81802 251.81802L304.0 253.875L307.18198 251.81802L305.125 255.0L307.18198 258.18198L304.0 256.125L300.81802 258.18198L302.875 255.0Z" fill-rule="nonzero"/><path fill="#757575" d="M28.540625 45.9L28.540625 31.587502L38.196877 31.587502L38.196877 33.275L30.43125 33.275L30.43125 37.7125L37.15 37.7125L37.15 39.4L30.43125 39.4L30.43125 45.9L28.540625 45.9ZM40.196877 45.9L40.196877 35.525L41.775 35.525L41.775 37.103127Q42.384377 35.99375 42.9 35.65Q43.415627 35.290627 44.025 35.290627Q44.915627 35.290627 45.8375 35.853127L45.228127 37.49375Q44.5875 37.103127 43.946877 37.103127Q43.36875 37.103127 42.9 37.4625Q42.446877 37.80625 42.24375 38.415627Q41.9625 39.353127 41.9625 40.4625L41.9625 45.9L40.196877 45.9ZM46.571877 40.7125Q46.571877 37.8375 48.165627 36.446877Q49.509377 35.290627 51.43125 35.290627Q53.571877 35.290627 54.915627 36.696877Q56.275 38.103127 56.275 40.571877Q56.275 42.571877 55.68125 43.728127Q55.0875 44.86875 53.93125 45.509377Q52.790627 46.134377 51.43125 46.134377Q49.24375 46.134377 47.9 44.74375Q46.571877 43.3375 46.571877 40.7125ZM48.36875 40.7125Q48.36875 42.7125 49.228127 43.696877Q50.103127 44.68125 51.43125 44.68125Q52.74375 44.68125 53.603127 43.696877Q54.478127 42.696877 54.478127 40.65Q54.478127 38.728127 53.603127 37.74375Q52.728127 36.74375 51.43125 36.74375Q50.103127 36.74375 49.228127 37.74375Q48.36875 38.728127 48.36875 40.7125ZM57.509377 42.80625L59.259377 42.525Q59.4 43.571877 60.071877 44.134377Q60.74375 44.68125 61.946877 44.68125Q63.15 44.68125 63.728127 44.196877Q64.32188 43.696877 64.32188 43.040627Q64.32188 42.446877 63.80625 42.103127Q63.446877 41.86875 62.009377 41.509377Q60.071877 41.009377 59.321877 40.665627Q58.5875 40.30625 58.196877 39.68125Q57.80625 39.040627 57.80625 38.275Q57.80625 37.5875 58.11875 36.99375Q58.446877 36.4 58.99375 36.009377Q59.4 35.7125 60.103127 35.509377Q60.821877 35.290627 61.634377 35.290627Q62.853127 35.290627 63.775 35.65Q64.69688 35.99375 65.13438 36.603127Q65.57188 37.196877 65.74375 38.196877L64.025 38.43125Q63.9 37.634377 63.3375 37.196877Q62.775 36.74375 61.759377 36.74375Q60.540627 36.74375 60.025 37.15Q59.509377 37.540627 59.509377 38.071877Q59.509377 38.415627 59.728127 38.696877Q59.93125 38.978127 60.4 39.165627Q60.665627 39.259377 61.946877 39.603127Q63.821877 40.103127 64.55625 40.43125Q65.29063 40.74375 65.7125 41.353127Q66.13438 41.946877 66.13438 42.853127Q66.13438 43.728127 65.61875 44.509377Q65.10313 45.290627 64.13438 45.7125Q63.165627 46.134377 61.946877 46.134377Q59.93125 46.134377 58.86875 45.290627Q57.80625 44.446877 57.509377 42.80625ZM72.05625 44.321877L72.30625 45.884377Q71.57188 46.040627 70.97813 46.040627Q70.025 46.040627 69.49375 45.74375Q68.97813 45.43125 68.75938 44.946877Q68.54063 44.446877 68.54063 42.86875L68.54063 36.9L67.25938 36.9L67.25938 35.525L68.54063 35.525L68.54063 32.9625L70.29063 31.900002L70.29063 35.525L72.05625 35.525L72.05625 36.9L70.29063 36.9L70.29063 42.9625Q70.29063 43.7125 70.38438 43.93125Q70.47813 44.134377 70.68125 44.275Q70.9 44.4 71.29063 44.4Q71.57188 44.4 72.05625 44.321877ZM81.32188 42.55625L83.13438 42.790627Q82.7125 44.36875 81.54063 45.259377Q80.38438 46.134377 78.57188 46.134377Q76.30625 46.134377 74.9625 44.74375Q73.63438 43.3375 73.63438 40.80625Q73.63438 38.18125 74.97813 36.74375Q76.32188 35.290627 78.47813 35.290627Q80.55625 35.290627 81.86875 36.7125Q83.19688 38.11875 83.19688 40.696877Q83.19688 40.853127 83.18125 41.165627L75.44688 41.165627Q75.54063 42.86875 76.41563 43.775Q77.29063 44.68125 78.5875 44.68125Q79.55625 44.68125 80.22813 44.18125Q80.91563 43.665627 81.32188 42.55625ZM75.54063 39.7125L81.3375 39.7125Q81.22813 38.415627 80.68125 37.759377Q79.8375 36.74375 78.49375 36.74375Q77.29063 36.74375 76.4625 37.55625Q75.63438 38.353127 75.54063 39.7125ZM91.94688 45.9L91.94688 44.5875Q90.9625 46.134377 89.04063 46.134377Q87.80625 46.134377 86.75938 45.446877Q85.72813 44.759377 85.15 43.540627Q84.5875 42.321877 84.5875 40.728127Q84.5875 39.165627 85.10313 37.9Q85.61875 36.634377 86.65 35.9625Q87.69688 35.290627 88.9625 35.290627Q89.9 35.290627 90.63438 35.696877Q91.36875 36.0875 91.8375 36.7125L91.8375 31.587502L93.57188 31.587502L93.57188 45.9L91.94688 45.9ZM86.38438 40.728127Q86.38438 42.7125 87.22813 43.696877Q88.07188 44.68125 89.2125 44.68125Q90.36875 44.68125 91.16563 43.74375Q91.97813 42.80625 91.97813 40.86875Q91.97813 38.74375 91.15 37.74375Q90.3375 36.74375 89.13438 36.74375Q87.9625 36.74375 87.16563 37.7125Q86.38438 38.665627 86.38438 40.728127ZM109.15 40.290627L109.15 38.603127L115.2125 38.5875L115.2125 43.9Q113.80625 45.025 112.32188 45.5875Q110.8375 46.15 109.275 46.15Q107.16563 46.15 105.44688 45.24375Q103.72813 44.3375 102.8375 42.634377Q101.9625 40.915627 101.9625 38.80625Q101.9625 36.7125 102.8375 34.915627Q103.7125 33.103127 105.35313 32.228127Q106.99375 31.337502 109.13438 31.337502Q110.68125 31.337502 111.93125 31.837502Q113.19688 32.3375 113.9 33.24375Q114.61875 34.134377 114.99375 35.5875L113.29063 36.05625Q112.9625 34.9625 112.47813 34.3375Q112.00938 33.7125 111.11875 33.3375Q110.22813 32.9625 109.15 32.9625Q107.8375 32.9625 106.88438 33.353127Q105.94688 33.74375 105.36875 34.4Q104.79063 35.040627 104.4625 35.80625Q103.91563 37.134377 103.91563 38.696877Q103.91563 40.603127 104.57188 41.9Q105.24375 43.18125 106.49375 43.80625Q107.75938 44.43125 109.16563 44.43125Q110.4 44.43125 111.57188 43.9625Q112.74375 43.49375 113.35313 42.946877L113.35313 40.290627L109.15 40.290627ZM125.00938 45.9L125.00938 44.36875Q123.80625 46.134377 121.72813 46.134377Q120.80625 46.134377 120.00938 45.790627Q119.2125 45.43125 118.82188 44.9Q118.44688 44.36875 118.29063 43.5875Q118.18125 43.071877 118.18125 41.946877L118.18125 35.525L119.93125 35.525L119.93125 41.275Q119.93125 42.65 120.04063 43.134377Q120.2125 43.821877 120.74375 44.228127Q121.29063 44.61875 122.07188 44.61875Q122.86875 44.61875 123.55625 44.2125Q124.25938 43.80625 124.54063 43.11875Q124.8375 42.415627 124.8375 41.0875L124.8375 35.525L126.5875 35.525L126.5875 45.9L125.00938 45.9ZM128.2125 45.9L128.2125 35.525L129.79062 35.525L129.79062 36.978127Q130.275 36.228127 131.0875 35.759377Q131.9 35.290627 132.93124 35.290627Q134.0875 35.290627 134.82187 35.775Q135.55624 36.24375 135.86874 37.103127Q137.10312 35.290627 139.07187 35.290627Q140.61874 35.290627 141.44687 36.15Q142.275 37.009377 142.275 38.775L142.275 45.9L140.525 45.9L140.525 39.36875Q140.525 38.30625 140.35312 37.853127Q140.18124 37.384377 139.72812 37.103127Q139.29062 36.821877 138.68124 36.821877Q137.5875 36.821877 136.85312 37.55625Q136.13437 38.275 136.13437 39.86875L136.13437 45.9L134.38437 45.9L134.38437 39.165627Q134.38437 37.99375 133.94687 37.415627Q133.525 36.821877 132.54062 36.821877Q131.80624 36.821877 131.16562 37.2125Q130.54062 37.603127 130.25937 38.353127Q129.97812 39.103127 129.97812 40.525L129.97812 45.9L128.2125 45.9ZM145.8375 45.9L144.2125 45.9L144.2125 31.587502L145.9625 31.587502L145.9625 36.696877Q147.0875 35.290627 148.80624 35.290627Q149.75937 35.290627 150.61874 35.68125Q151.47812 36.071877 152.025 36.775Q152.57187 37.4625 152.88437 38.446877Q153.19687 39.43125 153.19687 40.55625Q153.19687 43.228127 151.88437 44.68125Q150.57187 46.134377 148.72812 46.134377Q146.88437 46.134377 145.8375 44.603127L145.8375 45.9ZM145.82187 40.634377Q145.82187 42.49375 146.32187 43.3375Q147.16562 44.68125 148.57187 44.68125Q149.72812 44.68125 150.55624 43.68125Q151.4 42.68125 151.4 40.696877Q151.4 38.665627 150.5875 37.7125Q149.79062 36.74375 148.65 36.74375Q147.49374 36.74375 146.65 37.74375Q145.82187 38.74375 145.82187 40.634377ZM154.57187 40.7125Q154.57187 37.8375 156.16562 36.446877Q157.50937 35.290627 159.43124 35.290627Q161.57187 35.290627 162.91562 36.696877Q164.275 38.103127 164.275 40.571877Q164.275 42.571877 163.68124 43.728127Q163.0875 44.86875 161.93124 45.509377Q160.79062 46.134377 159.43124 46.134377Q157.24374 46.134377 155.9 44.74375Q154.57187 43.3375 154.57187 40.7125ZM156.36874 40.7125Q156.36874 42.7125 157.22812 43.696877Q158.10312 44.68125 159.43124 44.68125Q160.74374 44.68125 161.60312 43.696877Q162.47812 42.696877 162.47812 40.65Q162.47812 38.728127 161.60312 37.74375Q160.72812 36.74375 159.43124 36.74375Q158.10312 36.74375 157.22812 37.74375Q156.36874 38.728127 156.36874 40.7125Z" fill-rule="nonzero"/></svg>