<svg version="1.1" viewBox="0.0 0.0 730.0 538.0" fill="none" stroke="none" stroke-linecap="square" stroke-miterlimit="10" width="730" height="538" xmlns:xlink="http://www.w3.org/1999/xlink" xmlns="http://www.w3.org/2000/svg"><path fill="#ffffff" d="M0 0L730.0 0L730.0 538.0L0 538.0L0 0Z" fill-rule="nonzero"/><path fill="#ffffff" d="M26.9 68.833336L703.10004 68.833336L703.10004 511.1L26.9 511.1L26.9 68.833336Z" fill-rule="nonzero"/><path stroke="#cccccc" stroke-width="1.0" stroke-linecap="butt" d="M365.0 290.0C365.0 290.0 365.0 290.0 365.0 290.0C365.0 290.0 365.0 290.0 365.0 290.0C365.0 290.0 365.0 290.0 365.0 290.0C365.0 290.0 365.0 290.0 365.0 290.0" fill-rule="nonzero"/><path fill="#000000" d="M353.0625 282.04688L353.0625 283.35938Q353.0625 284.40625 352.875 285.125Q352.6875 285.84375 352.32812 286.28125Q351.98438 286.71875 351.48438 286.92188Q351.0 287.125 350.375 287.125Q349.89062 287.125 349.46875 287.0Q349.04688 286.875 348.71875 286.60938Q348.39062 286.32812 348.15625 285.89062Q347.92188 285.45312 347.79688 284.82812Q347.67188 284.1875 347.67188 283.35938L347.67188 282.04688Q347.67188 281.0 347.85938 280.29688Q348.0625 279.59375 348.40625 279.15625Q348.76562 278.71875 349.25 278.53125Q349.75 278.34375 350.35938 278.34375Q350.85938 278.34375 351.28125 278.46875Q351.70312 278.59375 352.03125 278.85938Q352.35938 279.10938 352.57812 279.54688Q352.8125 279.96875 352.9375 280.59375Q353.0625 281.21875 353.0625 282.04688ZM351.96875 283.53125L351.96875 281.875Q351.96875 281.29688 351.90625 280.85938Q351.84375 280.42188 351.70312 280.10938Q351.57812 279.79688 351.375 279.60938Q351.1875 279.42188 350.9375 279.32812Q350.6875 279.23438 350.35938 279.23438Q349.98438 279.23438 349.67188 279.375Q349.375 279.51562 349.17188 279.82812Q348.96875 280.14062 348.85938 280.65625Q348.76562 281.15625 348.76562 281.875L348.76562 283.53125Q348.76562 284.10938 348.82812 284.54688Q348.90625 284.98438 349.03125 285.3125Q349.17188 285.625 349.35938 285.82812Q349.5625 286.03125 349.8125 286.125Q350.0625 286.21875 350.375 286.21875Q350.78125 286.21875 351.07812 286.07812Q351.375 285.92188 351.57812 285.59375Q351.78125 285.26562 351.875 284.76562Q351.96875 284.25 351.96875 283.53125ZM355.8125 285.70312L355.8125 286.57812Q355.8125 287.125 355.53125 287.71875Q355.26562 288.3125 354.78125 288.70312L354.17188 288.28125Q354.35938 288.01562 354.48438 287.75Q354.60938 287.48438 354.67188 287.20312Q354.75 286.92188 354.75 286.59375L354.75 285.70312L355.8125 285.70312ZM362.0625 282.04688L362.0625 283.35938Q362.0625 284.40625 361.875 285.125Q361.6875 285.84375 361.32812 286.28125Q360.98438 286.71875 360.48438 286.92188Q360.0 287.125 359.375 287.125Q358.89062 287.125 358.46875 287.0Q358.04688 286.875 357.71875 286.60938Q357.39062 286.32812 357.15625 285.89062Q356.92188 285.45312 356.79688 284.82812Q356.67188 284.1875 356.67188 283.35938L356.67188 282.04688Q356.67188 281.0 356.85938 280.29688Q357.0625 279.59375 357.40625 279.15625Q357.76562 278.71875 358.25 278.53125Q358.75 278.34375 359.35938 278.34375Q359.85938 278.34375 360.28125 278.46875Q360.70312 278.59375 361.03125 278.85938Q361.35938 279.10938 361.57812 279.54688Q361.8125 279.96875 361.9375 280.59375Q362.0625 281.21875 362.0625 282.04688ZM360.96875 283.53125L360.96875 281.875Q360.96875 281.29688 360.90625 280.85938Q360.84375 280.42188 360.70312 280.10938Q360.57812 279.79688 360.375 279.60938Q360.1875 279.42188 359.9375 279.32812Q359.6875 279.23438 359.35938 279.23438Q358.98438 279.23438 358.67188 279.375Q358.375 279.51562 358.17188 279.82812Q357.96875 280.14062 357.85938 280.65625Q357.76562 281.15625 357.76562 281.875L357.76562 283.53125Q357.76562 284.10938 357.82812 284.54688Q357.90625 284.98438 358.03125 285.3125Q358.17188 285.625 358.35938 285.82812Q358.5625 286.03125 358.8125 286.125Q359.0625 286.21875 359.375 286.21875Q359.78125 286.21875 360.07812 286.07812Q360.375 285.92188 360.57812 285.59375Q360.78125 285.26562 360.875 284.76562Q360.96875 284.25 360.96875 283.53125Z" fill-rule="nonzero"/><path stroke="#cccccc" stroke-width="1.0" stroke-linecap="butt" d="M412.28333 290.0C412.28333 263.88614 391.11386 242.71666 365.0 242.71666C338.88614 242.71666 317.71667 263.88614 317.71667 290.0C317.71667 316.11386 338.88614 337.28333 365.0 337.28333C391.11386 337.28333 412.28333 316.11386 412.28333 290.0" fill-rule="nonzero"/><path fill="#000000" d="M353.0625 234.76353L353.0625 236.07603Q353.0625 237.12291 352.875 237.84166Q352.6875 238.56041 352.32812 238.99791Q351.98438 239.43541 351.48438 239.63853Q351.0 239.84166 350.375 239.84166Q349.89062 239.84166 349.46875 239.71666Q349.04688 239.59166 348.71875 239.32603Q348.39062 239.04478 348.15625 238.60728Q347.92188 238.16978 347.79688 237.54478Q347.67188 236.90416 347.67188 236.07603L347.67188 234.76353Q347.67188 233.71666 347.85938 233.01353Q348.0625 232.31041 348.40625 231.87291Q348.76562 231.43541 349.25 231.24791Q349.75 231.06041 350.35938 231.06041Q350.85938 231.06041 351.28125 231.18541Q351.70312 231.31041 352.03125 231.57603Q352.35938 231.82603 352.57812 232.26353Q352.8125 232.68541 352.9375 233.31041Q353.0625 233.93541 353.0625 234.76353ZM351.96875 236.24791L351.96875 234.59166Q351.96875 234.01353 351.90625 233.57603Q351.84375 233.13853 351.70312 232.82603Q351.57812 232.51353 351.375 232.32603Q351.1875 232.13853 350.9375 232.04478Q350.6875 231.95103 350.35938 231.95103Q349.98438 231.95103 349.67188 232.09166Q349.375 232.23228 349.17188 232.54478Q348.96875 232.85728 348.85938 233.37291Q348.76562 233.87291 348.76562 234.59166L348.76562 236.24791Q348.76562 236.82603 348.82812 237.26353Q348.90625 237.70103 349.03125 238.02916Q349.17188 238.34166 349.35938 238.54478Q349.5625 238.74791 349.8125 238.84166Q350.0625 238.93541 350.375 238.93541Q350.78125 238.93541 351.07812 238.79478Q351.375 238.63853 351.57812 238.31041Q351.78125 237.98228 351.875 237.48228Q351.96875 236.96666 351.96875 236.24791ZM355.8125 238.41978L355.8125 239.29478Q355.8125 239.84166 355.53125 240.43541Q355.26562 241.02916 354.78125 241.41978L354.17188 240.99791Q354.35938 240.73228 354.48438 240.46666Q354.60938 240.20103 354.67188 239.91978Q354.75 239.63853 354.75 239.31041L354.75 238.41978L355.8125 238.41978ZM360.26562 231.13853L360.26562 239.71666L359.1875 239.71666L359.1875 232.49791L357.0 233.29478L357.0 232.31041L360.10938 231.13853L360.26562 231.13853Z" fill-rule="nonzero"/><path stroke="#cccccc" stroke-width="1.0" stroke-linecap="butt" d="M459.56668 290.0C459.56668 237.77228 417.22772 195.43333 365.0 195.43333C312.77228 195.43333 270.43332 237.77228 270.43332 290.0C270.43332 342.22772 312.77228 384.56668 365.0 384.56668C417.22772 384.56668 459.56668 342.22772 459.56668 290.0" fill-rule="nonzero"/><path fill="#000000" d="M353.0625 187.48021L353.0625 188.79271Q353.0625 189.83958 352.875 190.55833Q352.6875 191.27708 352.32812 191.71458Q351.98438 192.15208 351.48438 192.35521Q351.0 192.55833 350.375 192.55833Q349.89062 192.55833 349.46875 192.43333Q349.04688 192.30833 348.71875 192.04271Q348.39062 191.76146 348.15625 191.32396Q347.92188 190.88646 347.79688 190.26146Q347.67188 189.62083 347.67188 188.79271L347.67188 187.48021Q347.67188 186.43333 347.85938 185.73021Q348.0625 185.02708 348.40625 184.58958Q348.76562 184.15208 349.25 183.96458Q349.75 183.77708 350.35938 183.77708Q350.85938 183.77708 351.28125 183.90208Q351.70312 184.02708 352.03125 184.29271Q352.35938 184.54271 352.57812 184.98021Q352.8125 185.40208 352.9375 186.02708Q353.0625 186.65208 353.0625 187.48021ZM351.96875 188.96458L351.96875 187.30833Q351.96875 186.73021 351.90625 186.29271Q351.84375 185.85521 351.70312 185.54271Q351.57812 185.23021 351.375 185.04271Q351.1875 184.85521 350.9375 184.76146Q350.6875 184.66771 350.35938 184.66771Q349.98438 184.66771 349.67188 184.80833Q349.375 184.94896 349.17188 185.26146Q348.96875 185.57396 348.85938 186.08958Q348.76562 186.58958 348.76562 187.30833L348.76562 188.96458Q348.76562 189.54271 348.82812 189.98021Q348.90625 190.41771 349.03125 190.74583Q349.17188 191.05833 349.35938 191.26146Q349.5625 191.46458 349.8125 191.55833Q350.0625 191.65208 350.375 191.65208Q350.78125 191.65208 351.07812 191.51146Q351.375 191.35521 351.57812 191.02708Q351.78125 190.69896 351.875 190.19896Q351.96875 189.68333 351.96875 188.96458ZM355.8125 191.13646L355.8125 192.01146Q355.8125 192.55833 355.53125 193.15208Q355.26562 193.74583 354.78125 194.13646L354.17188 193.71458Q354.35938 193.44896 354.48438 193.18333Q354.60938 192.91771 354.67188 192.63646Q354.75 192.35521 354.75 192.02708L354.75 191.13646L355.8125 191.13646ZM362.29688 191.54271L362.29688 192.43333L356.71875 192.43333L356.71875 191.65208L359.51562 188.54271Q360.03125 187.96458 360.3125 187.57396Q360.59375 187.16771 360.70312 186.85521Q360.82812 186.52708 360.82812 186.19896Q360.82812 185.77708 360.65625 185.43333Q360.48438 185.08958 360.14062 184.88646Q359.8125 184.66771 359.32812 184.66771Q358.76562 184.66771 358.39062 184.90208Q358.01562 185.12083 357.82812 185.51146Q357.64062 185.90208 357.64062 186.40208L356.54688 186.40208Q356.54688 185.68333 356.85938 185.08958Q357.1875 184.49583 357.79688 184.13646Q358.42188 183.77708 359.32812 183.77708Q360.14062 183.77708 360.71875 184.07396Q361.29688 184.35521 361.59375 184.87083Q361.90625 185.37083 361.90625 186.05833Q361.90625 186.43333 361.78125 186.82396Q361.65625 187.19896 361.4375 187.58958Q361.21875 187.96458 360.92188 188.33958Q360.64062 188.69896 360.3125 189.05833L358.01562 191.54271L362.29688 191.54271Z" fill-rule="nonzero"/><path stroke="#cccccc" stroke-width="1.0" stroke-linecap="butt" d="M506.85 290.0C506.85 211.6584 443.34158 148.15 365.0 148.15C286.65842 148.15 223.15 211.6584 223.15 290.0C223.15 368.34158 286.65842 431.85 365.0 431.85C443.34158 431.85 506.85 368.34158 506.85 290.0" fill-rule="nonzero"/><path fill="#000000" d="M353.0625 140.19687L353.0625 141.50937Q353.0625 142.55624 352.875 143.275Q352.6875 143.99374 352.32812 144.43124Q351.98438 144.86874 351.48438 145.07187Q351.0 145.275 350.375 145.275Q349.89062 145.275 349.46875 145.15Q349.04688 145.025 348.71875 144.75937Q348.39062 144.47812 348.15625 144.04062Q347.92188 143.60312 347.79688 142.97812Q347.67188 142.3375 347.67188 141.50937L347.67188 140.19687Q347.67188 139.15 347.85938 138.44687Q348.0625 137.74374 348.40625 137.30624Q348.76562 136.86874 349.25 136.68124Q349.75 136.49374 350.35938 136.49374Q350.85938 136.49374 351.28125 136.61874Q351.70312 136.74374 352.03125 137.00937Q352.35938 137.25937 352.57812 137.69687Q352.8125 138.11874 352.9375 138.74374Q353.0625 139.36874 353.0625 140.19687ZM351.96875 141.68124L351.96875 140.025Q351.96875 139.44687 351.90625 139.00937Q351.84375 138.57187 351.70312 138.25937Q351.57812 137.94687 351.375 137.75937Q351.1875 137.57187 350.9375 137.47812Q350.6875 137.38437 350.35938 137.38437Q349.98438 137.38437 349.67188 137.525Q349.375 137.66562 349.17188 137.97812Q348.96875 138.29062 348.85938 138.80624Q348.76562 139.30624 348.76562 140.025L348.76562 141.68124Q348.76562 142.25937 348.82812 142.69687Q348.90625 143.13437 349.03125 143.4625Q349.17188 143.775 349.35938 143.97812Q349.5625 144.18124 349.8125 144.275Q350.0625 144.36874 350.375 144.36874Q350.78125 144.36874 351.07812 144.22812Q351.375 144.07187 351.57812 143.74374Q351.78125 143.41562 351.875 142.91562Q351.96875 142.4 351.96875 141.68124ZM355.8125 143.85312L355.8125 144.72812Q355.8125 145.275 355.53125 145.86874Q355.26562 146.4625 354.78125 146.85312L354.17188 146.43124Q354.35938 146.16562 354.48438 145.9Q354.60938 145.63437 354.67188 145.35312Q354.75 145.07187 354.75 144.74374L354.75 143.85312L355.8125 143.85312ZM358.29688 140.35312L359.0625 140.35312Q359.64062 140.35312 360.0 140.16562Q360.375 139.9625 360.5625 139.63437Q360.75 139.30624 360.75 138.88437Q360.75 138.4 360.57812 138.07187Q360.42188 137.72812 360.09375 137.55624Q359.76562 137.38437 359.26562 137.38437Q358.79688 137.38437 358.45312 137.57187Q358.10938 137.74374 357.90625 138.07187Q357.71875 138.4 357.71875 138.85312L356.625 138.85312Q356.625 138.19687 356.95312 137.66562Q357.28125 137.13437 357.875 136.82187Q358.46875 136.49374 359.26562 136.49374Q360.03125 136.49374 360.60938 136.775Q361.1875 137.04062 361.51562 137.5875Q361.84375 138.11874 361.84375 138.91562Q361.84375 139.24374 361.6875 139.60312Q361.53125 139.9625 361.21875 140.29062Q360.90625 140.60312 360.40625 140.80624Q359.92188 141.00937 359.21875 141.00937L358.29688 141.00937L358.29688 140.35312ZM358.29688 141.24374L358.29688 140.5875L359.21875 140.5875Q360.03125 140.5875 360.5625 140.79062Q361.09375 140.97812 361.40625 141.30624Q361.71875 141.61874 361.84375 142.00937Q361.96875 142.38437 361.96875 142.775Q361.96875 143.36874 361.76562 143.8375Q361.5625 144.29062 361.1875 144.61874Q360.82812 144.93124 360.32812 145.10312Q359.84375 145.275 359.26562 145.275Q358.70312 145.275 358.21875 145.11874Q357.73438 144.94687 357.35938 144.65Q356.98438 144.35312 356.76562 143.91562Q356.5625 143.4625 356.5625 142.9L357.64062 142.9Q357.64062 143.3375 357.82812 143.68124Q358.03125 144.00937 358.39062 144.19687Q358.76562 144.36874 359.26562 144.36874Q359.76562 144.36874 360.125 144.19687Q360.48438 144.025 360.67188 143.68124Q360.875 143.32187 360.875 142.79062Q360.875 142.25937 360.65625 141.91562Q360.4375 141.57187 360.01562 141.41562Q359.60938 141.24374 359.0625 141.24374L358.29688 141.24374Z" fill-rule="nonzero"/><path stroke="#cccccc" stroke-width="1.0" stroke-linecap="butt" d="M554.13336 290.0C554.13336 185.54454 469.45544 100.86667 365.0 100.86667C260.54456 100.86667 175.86667 185.54454 175.86667 290.0C175.86667 394.45544 260.54456 479.13333 365.0 479.13333C469.45544 479.13333 554.13336 394.45544 554.13336 290.0" fill-rule="nonzero"/><path fill="#000000" d="M353.0625 92.91354L353.0625 94.22604Q353.0625 95.27292 352.875 95.99167Q352.6875 96.71042 352.32812 97.14792Q351.98438 97.58542 351.48438 97.78854Q351.0 97.99167 350.375 97.99167Q349.89062 97.99167 349.46875 97.86667Q349.04688 97.74167 348.71875 97.47604Q348.39062 97.19479 348.15625 96.75729Q347.92188 96.31979 347.79688 95.69479Q347.67188 95.05417 347.67188 94.22604L347.67188 92.91354Q347.67188 91.86667 347.85938 91.16354Q348.0625 90.46042 348.40625 90.02292Q348.76562 89.58542 349.25 89.39792Q349.75 89.21042 350.35938 89.21042Q350.85938 89.21042 351.28125 89.33542Q351.70312 89.46042 352.03125 89.72604Q352.35938 89.97604 352.57812 90.41354Q352.8125 90.83542 352.9375 91.46042Q353.0625 92.08542 353.0625 92.91354ZM351.96875 94.39792L351.96875 92.74167Q351.96875 92.16354 351.90625 91.72604Q351.84375 91.28854 351.70312 90.97604Q351.57812 90.66354 351.375 90.47604Q351.1875 90.28854 350.9375 90.19479Q350.6875 90.10104 350.35938 90.10104Q349.98438 90.10104 349.67188 90.24167Q349.375 90.38229 349.17188 90.69479Q348.96875 91.00729 348.85938 91.52292Q348.76562 92.02292 348.76562 92.74167L348.76562 94.39792Q348.76562 94.97604 348.82812 95.41354Q348.90625 95.85104 349.03125 96.17917Q349.17188 96.49167 349.35938 96.69479Q349.5625 96.89792 349.8125 96.99167Q350.0625 97.08542 350.375 97.08542Q350.78125 97.08542 351.07812 96.94479Q351.375 96.78854 351.57812 96.46042Q351.78125 96.13229 351.875 95.63229Q351.96875 95.11667 351.96875 94.39792ZM355.8125 96.56979L355.8125 97.44479Q355.8125 97.99167 355.53125 98.58542Q355.26562 99.17917 354.78125 99.56979L354.17188 99.14792Q354.35938 98.88229 354.48438 98.61667Q354.60938 98.35104 354.67188 98.06979Q354.75 97.78854 354.75 97.46042L354.75 96.56979L355.8125 96.56979ZM362.46875 94.99167L362.46875 95.88229L356.3125 95.88229L356.3125 95.24167L360.125 89.33542L361.01562 89.33542L360.0625 91.03854L357.54688 94.99167L362.46875 94.99167ZM361.28125 89.33542L361.28125 97.86667L360.20312 97.86667L360.20312 89.33542L361.28125 89.33542Z" fill-rule="nonzero"/><path stroke="#cccccc" stroke-width="1.0" stroke-linecap="butt" d="M365.0 290.0L365.0 101.0" fill-rule="nonzero"/><path fill="#000000" d="M335.64062 77.78125L336.76562 77.78125Q336.67188 78.59375 336.29688 79.234375Q335.92188 79.875 335.23438 80.25Q334.5625 80.625 333.53125 80.625Q332.78125 80.625 332.17188 80.34375Q331.5625 80.046875 331.10938 79.53125Q330.67188 79.015625 330.4375 78.296875Q330.20312 77.5625 330.20312 76.65625L330.20312 75.8125Q330.20312 74.921875 330.4375 74.1875Q330.67188 73.453125 331.125 72.9375Q331.57812 72.40625 332.20312 72.125Q332.84375 71.84375 333.625 71.84375Q334.59375 71.84375 335.26562 72.21875Q335.9375 72.578125 336.29688 73.21875Q336.67188 73.859375 336.76562 74.703125L335.64062 74.703125Q335.5625 74.109375 335.32812 73.6875Q335.10938 73.25 334.70312 73.015625Q334.29688 72.78125 333.625 72.78125Q333.0625 72.78125 332.625 73.0Q332.20312 73.203125 331.90625 73.609375Q331.625 74.0 331.46875 74.5625Q331.32812 75.125 331.32812 75.796875L331.32812 76.65625Q331.32812 77.28125 331.45312 77.84375Q331.59375 78.390625 331.85938 78.8125Q332.125 79.21875 332.54688 79.46875Q332.96875 79.703125 333.53125 79.703125Q334.25 79.703125 334.67188 79.46875Q335.10938 79.234375 335.32812 78.8125Q335.54688 78.390625 335.64062 77.78125ZM342.0625 79.421875L342.0625 76.15625Q342.0625 75.78125 341.90625 75.5Q341.76562 75.21875 341.46875 75.078125Q341.17188 74.921875 340.73438 74.921875Q340.3125 74.921875 340.0 75.0625Q339.70312 75.203125 339.53125 75.4375Q339.35938 75.65625 339.35938 75.921875L338.28125 75.921875Q338.28125 75.578125 338.45312 75.25Q338.625 74.90625 338.95312 74.640625Q339.28125 74.359375 339.75 74.203125Q340.21875 74.046875 340.79688 74.046875Q341.48438 74.046875 342.01562 74.28125Q342.54688 74.515625 342.84375 74.984375Q343.15625 75.453125 343.15625 76.15625L343.15625 79.109375Q343.15625 79.4375 343.20312 79.796875Q343.26562 80.140625 343.375 80.40625L343.375 80.5L342.23438 80.5Q342.15625 80.3125 342.10938 80.0Q342.0625 79.6875 342.0625 79.421875ZM342.25 76.65625L342.26562 77.421875L341.17188 77.421875Q340.70312 77.421875 340.34375 77.5Q339.98438 77.5625 339.73438 77.71875Q339.48438 77.859375 339.35938 78.078125Q339.23438 78.296875 339.23438 78.59375Q339.23438 78.890625 339.35938 79.140625Q339.5 79.375 339.76562 79.53125Q340.04688 79.671875 340.4375 79.671875Q340.9375 79.671875 341.3125 79.46875Q341.70312 79.25 341.92188 78.953125Q342.15625 78.640625 342.17188 78.34375L342.64062 78.875Q342.59375 79.109375 342.40625 79.421875Q342.23438 79.71875 341.92188 80.0Q341.625 80.265625 341.20312 80.453125Q340.79688 80.625 340.28125 80.625Q339.64062 80.625 339.15625 80.375Q338.67188 80.109375 338.40625 79.6875Q338.14062 79.265625 338.14062 78.734375Q338.14062 78.21875 338.32812 77.84375Q338.53125 77.453125 338.90625 77.1875Q339.28125 76.921875 339.8125 76.796875Q340.34375 76.65625 341.0 76.65625L342.25 76.65625ZM346.40625 75.15625L346.40625 80.5L345.32812 80.5L345.32812 74.15625L346.375 74.15625L346.40625 75.15625ZM348.39062 74.125L348.39062 75.125Q348.25 75.109375 348.125 75.09375Q348.01562 75.078125 347.85938 75.078125Q347.48438 75.078125 347.1875 75.203125Q346.90625 75.3125 346.70312 75.53125Q346.51562 75.734375 346.39062 76.03125Q346.28125 76.328125 346.25 76.671875L345.9375 76.84375Q345.9375 76.265625 346.04688 75.765625Q346.17188 75.265625 346.40625 74.875Q346.65625 74.484375 347.01562 74.265625Q347.39062 74.046875 347.90625 74.046875Q348.03125 74.046875 348.17188 74.078125Q348.32812 74.09375 348.39062 74.125ZM351.10938 79.84375L352.875 74.15625L354.03125 74.15625L351.48438 81.484375Q351.40625 81.71875 351.25 81.984375Q351.10938 82.265625 350.89062 82.5Q350.67188 82.75 350.35938 82.90625Q350.04688 83.0625 349.60938 83.0625Q349.48438 83.0625 349.28125 83.015625Q349.07812 82.984375 349.0 82.96875L349.0 82.09375Q349.04688 82.09375 349.14062 82.09375Q349.25 82.109375 349.28125 82.109375Q349.65625 82.109375 349.90625 82.015625Q350.17188 81.921875 350.34375 81.6875Q350.53125 81.46875 350.65625 81.078125L351.10938 79.84375ZM349.8125 74.15625L351.45312 79.078125L351.73438 80.21875L350.96875 80.625L348.625 74.15625L349.8125 74.15625ZM355.04688 77.40625L355.04688 77.265625Q355.04688 76.578125 355.23438 76.0Q355.4375 75.40625 355.8125 74.96875Q356.1875 74.53125 356.71875 74.296875Q357.25 74.046875 357.92188 74.046875Q358.57812 74.046875 359.10938 74.296875Q359.65625 74.53125 360.03125 74.96875Q360.40625 75.40625 360.60938 76.0Q360.8125 76.578125 360.8125 77.265625L360.8125 77.40625Q360.8125 78.078125 360.60938 78.671875Q360.40625 79.25 360.03125 79.6875Q359.65625 80.125 359.125 80.375Q358.59375 80.625 357.92188 80.625Q357.26562 80.625 356.71875 80.375Q356.1875 80.125 355.8125 79.6875Q355.4375 79.25 355.23438 78.671875Q355.04688 78.078125 355.04688 77.40625ZM356.125 77.265625L356.125 77.40625Q356.125 77.875 356.23438 78.296875Q356.34375 78.71875 356.5625 79.046875Q356.79688 79.359375 357.14062 79.546875Q357.48438 79.71875 357.92188 79.71875Q358.375 79.71875 358.70312 79.546875Q359.04688 79.359375 359.26562 79.046875Q359.5 78.71875 359.60938 78.296875Q359.71875 77.875 359.71875 77.40625L359.71875 77.265625Q359.71875 76.796875 359.60938 76.375Q359.5 75.953125 359.26562 75.640625Q359.04688 75.3125 358.70312 75.125Q358.375 74.9375 357.92188 74.9375Q357.46875 74.9375 357.125 75.125Q356.79688 75.3125 356.5625 75.640625Q356.34375 75.953125 356.23438 76.375Q356.125 76.796875 356.125 77.265625ZM363.40625 75.375L363.40625 82.9375L362.32812 82.9375L362.32812 74.15625L363.3125 74.15625L363.40625 75.375ZM367.6875 77.28125L367.6875 77.40625Q367.6875 78.09375 367.51562 78.6875Q367.35938 79.265625 367.04688 79.703125Q366.73438 80.140625 366.26562 80.390625Q365.8125 80.625 365.21875 80.625Q364.625 80.625 364.15625 80.421875Q363.6875 80.21875 363.35938 79.84375Q363.04688 79.453125 362.85938 78.921875Q362.67188 78.390625 362.59375 77.71875L362.59375 77.0625Q362.67188 76.359375 362.85938 75.8125Q363.04688 75.25 363.35938 74.859375Q363.6875 74.453125 364.14062 74.25Q364.60938 74.046875 365.20312 74.046875Q365.79688 74.046875 366.26562 74.28125Q366.73438 74.5 367.04688 74.9375Q367.35938 75.359375 367.51562 75.953125Q367.6875 76.546875 367.6875 77.28125ZM366.59375 77.40625L366.59375 77.28125Q366.59375 76.796875 366.48438 76.390625Q366.39062 75.96875 366.1875 75.65625Q365.98438 75.328125 365.65625 75.140625Q365.32812 74.953125 364.89062 74.953125Q364.48438 74.953125 364.17188 75.09375Q363.875 75.234375 363.65625 75.484375Q363.45312 75.71875 363.3125 76.015625Q363.1875 76.3125 363.125 76.640625L363.125 78.15625Q363.23438 78.5625 363.4375 78.921875Q363.65625 79.28125 364.0 79.5Q364.35938 79.71875 364.90625 79.71875Q365.34375 79.71875 365.65625 79.546875Q365.98438 79.359375 366.1875 79.046875Q366.39062 78.71875 366.48438 78.296875Q366.59375 77.875 366.59375 77.40625ZM370.40625 71.5L370.40625 80.5L369.32812 80.5L369.32812 71.5L370.40625 71.5ZM370.15625 77.09375L369.70312 77.078125Q369.70312 76.421875 369.89062 75.875Q370.07812 75.3125 370.42188 74.90625Q370.76562 74.5 371.23438 74.28125Q371.70312 74.046875 372.28125 74.046875Q372.75 74.046875 373.125 74.171875Q373.5 74.296875 373.76562 74.578125Q374.03125 74.84375 374.17188 75.28125Q374.3125 75.71875 374.3125 76.34375L374.3125 80.5L373.21875 80.5L373.21875 76.328125Q373.21875 75.828125 373.07812 75.53125Q372.9375 75.234375 372.65625 75.09375Q372.375 74.953125 371.95312 74.953125Q371.54688 74.953125 371.21875 75.125Q370.89062 75.296875 370.65625 75.59375Q370.42188 75.890625 370.28125 76.28125Q370.15625 76.65625 370.15625 77.09375ZM378.10938 79.84375L379.875 74.15625L381.03125 74.15625L378.48438 81.484375Q378.40625 81.71875 378.25 81.984375Q378.10938 82.265625 377.89062 82.5Q377.67188 82.75 377.35938 82.90625Q377.04688 83.0625 376.60938 83.0625Q376.48438 83.0625 376.28125 83.015625Q376.07812 82.984375 376.0 82.96875L376.0 82.09375Q376.04688 82.09375 376.14062 82.09375Q376.25 82.109375 376.28125 82.109375Q376.65625 82.109375 376.90625 82.015625Q377.17188 81.921875 377.34375 81.6875Q377.53125 81.46875 377.65625 81.078125L378.10938 79.84375ZM376.8125 74.15625L378.45312 79.078125L378.73438 80.21875L377.96875 80.625L375.625 74.15625L376.8125 74.15625ZM383.5 71.5L383.5 80.5L382.42188 80.5L382.42188 71.5L383.5 71.5ZM386.5 71.5L386.5 80.5L385.42188 80.5L385.42188 71.5L386.5 71.5ZM390.95312 80.625Q390.29688 80.625 389.75 80.40625Q389.21875 80.171875 388.82812 79.765625Q388.45312 79.34375 388.25 78.78125Q388.04688 78.21875 388.04688 77.546875L388.04688 77.3125Q388.04688 76.53125 388.26562 75.921875Q388.5 75.3125 388.89062 74.890625Q389.28125 74.46875 389.78125 74.265625Q390.28125 74.046875 390.8125 74.046875Q391.5 74.046875 391.98438 74.28125Q392.48438 74.515625 392.79688 74.9375Q393.125 75.34375 393.26562 75.921875Q393.42188 76.484375 393.42188 77.140625L393.42188 77.640625L388.6875 77.640625L388.6875 76.75L392.34375 76.75L392.34375 76.671875Q392.3125 76.25 392.15625 75.859375Q392.01562 75.453125 391.6875 75.203125Q391.375 74.9375 390.8125 74.9375Q390.45312 74.9375 390.14062 75.09375Q389.82812 75.25 389.59375 75.5625Q389.375 75.859375 389.25 76.296875Q389.14062 76.734375 389.14062 77.3125L389.14062 77.546875Q389.14062 78.0 389.26562 78.40625Q389.39062 78.796875 389.625 79.09375Q389.875 79.390625 390.21875 79.5625Q390.57812 79.734375 391.01562 79.734375Q391.59375 79.734375 391.98438 79.5Q392.39062 79.265625 392.6875 78.875L393.34375 79.390625Q393.14062 79.703125 392.8125 79.984375Q392.5 80.265625 392.03125 80.453125Q391.57812 80.625 390.95312 80.625ZM395.40625 75.515625L395.40625 80.5L394.32812 80.5L394.32812 74.15625L395.35938 74.15625L395.40625 75.515625ZM395.15625 77.09375L394.70312 77.078125Q394.70312 76.421875 394.89062 75.875Q395.07812 75.3125 395.42188 74.90625Q395.76562 74.5 396.23438 74.28125Q396.70312 74.046875 397.28125 74.046875Q397.75 74.046875 398.125 74.171875Q398.5 74.296875 398.76562 74.578125Q399.03125 74.84375 399.17188 75.28125Q399.3125 75.71875 399.3125 76.34375L399.3125 80.5L398.21875 80.5L398.21875 76.328125Q398.21875 75.828125 398.07812 75.53125Q397.9375 75.234375 397.65625 75.09375Q397.375 74.953125 396.95312 74.953125Q396.54688 74.953125 396.21875 75.125Q395.89062 75.296875 395.65625 75.59375Q395.42188 75.890625 395.28125 76.28125Q395.15625 76.65625 395.15625 77.09375Z" fill-rule="nonzero"/><path stroke="#cccccc" stroke-width="1.0" stroke-linecap="butt" d="M365.0 290.0L529.0 195.0" fill-rule="nonzero"/><path fill="#000000" d="M525.2969 187.5L523.5156 187.5L523.53125 186.57812L525.2969 186.57812Q526.21875 186.57812 526.8281 186.20312Q527.4375 185.8125 527.7344 185.125Q528.0469 184.42188 528.0469 183.48438L528.0469 182.96875Q528.0469 182.23438 527.875 181.67188Q527.7031 181.09375 527.3594 180.70312Q527.0156 180.29688 526.5156 180.09375Q526.03125 179.89062 525.40625 179.89062L523.4844 179.89062L523.4844 178.96875L525.40625 178.96875Q526.25 178.96875 526.9375 179.25Q527.625 179.53125 528.125 180.0625Q528.625 180.57812 528.8906 181.32812Q529.1719 182.0625 529.1719 182.98438L529.1719 183.48438Q529.1719 184.42188 528.8906 185.17188Q528.625 185.90625 528.1094 186.42188Q527.6094 186.9375 526.8906 187.21875Q526.1875 187.5 525.2969 187.5ZM524.125 178.96875L524.125 187.5L522.9844 187.5L522.9844 178.96875L524.125 178.96875ZM533.0781 183.42188L533.0781 184.3125L530.21875 184.3125L530.21875 183.42188L533.0781 183.42188ZM539.1719 186.57812L539.1719 187.5L534.90625 187.5L534.90625 186.57812L539.1719 186.57812ZM535.125 178.96875L535.125 187.5L533.9844 187.5L533.9844 178.96875L535.125 178.96875ZM541.0 181.15625L541.0 187.5L539.9219 187.5L539.9219 181.15625L541.0 181.15625ZM539.8281 179.48438Q539.8281 179.21875 539.9844 179.03125Q540.15625 178.84375 540.46875 178.84375Q540.78125 178.84375 540.9375 179.03125Q541.1094 179.21875 541.1094 179.48438Q541.1094 179.73438 540.9375 179.92188Q540.78125 180.09375 540.46875 180.09375Q540.15625 180.09375 539.9844 179.92188Q539.8281 179.73438 539.8281 179.48438ZM543.90625 182.42188L543.90625 187.5L542.8125 187.5L542.8125 181.15625L543.84375 181.15625L543.90625 182.42188ZM543.6875 184.09375L543.1719 184.07812Q543.1875 183.42188 543.34375 182.875Q543.5156 182.3125 543.8281 181.90625Q544.15625 181.5 544.6406 181.28125Q545.125 181.04688 545.75 181.04688Q546.2031 181.04688 546.5781 181.17188Q546.9531 181.29688 547.21875 181.5625Q547.5 181.82812 547.6406 182.25Q547.7969 182.67188 547.7969 183.28125L547.7969 187.5L546.71875 187.5L546.71875 183.32812Q546.71875 182.82812 546.5469 182.53125Q546.3906 182.23438 546.0781 182.09375Q545.78125 181.95312 545.3594 181.95312Q544.8906 181.95312 544.5625 182.125Q544.2344 182.29688 544.0469 182.59375Q543.8594 182.89062 543.7656 183.28125Q543.6875 183.65625 543.6875 184.09375ZM547.7969 183.48438L547.0625 183.71875Q547.0625 183.1875 547.2344 182.71875Q547.40625 182.23438 547.71875 181.85938Q548.0469 181.48438 548.5156 181.26562Q548.9844 181.04688 549.5781 181.04688Q550.09375 181.04688 550.4844 181.1875Q550.8906 181.3125 551.15625 181.59375Q551.4219 181.875 551.5625 182.3125Q551.7031 182.73438 551.7031 183.32812L551.7031 187.5L550.625 187.5L550.625 183.32812Q550.625 182.78125 550.4531 182.5Q550.28125 182.20312 549.9844 182.07812Q549.6875 181.95312 549.2656 181.95312Q548.90625 181.95312 548.625 182.07812Q548.3594 182.20312 548.1719 182.42188Q547.9844 182.625 547.8906 182.90625Q547.7969 183.1875 547.7969 183.48438ZM553.5469 184.40625L553.5469 184.26562Q553.5469 183.57812 553.7344 183.0Q553.9375 182.40625 554.3125 181.96875Q554.6875 181.53125 555.21875 181.29688Q555.75 181.04688 556.4219 181.04688Q557.0781 181.04688 557.6094 181.29688Q558.15625 181.53125 558.53125 181.96875Q558.90625 182.40625 559.1094 183.0Q559.3125 183.57812 559.3125 184.26562L559.3125 184.40625Q559.3125 185.07812 559.1094 185.67188Q558.90625 186.25 558.53125 186.6875Q558.15625 187.125 557.625 187.375Q557.09375 187.625 556.4219 187.625Q555.7656 187.625 555.21875 187.375Q554.6875 187.125 554.3125 186.6875Q553.9375 186.25 553.7344 185.67188Q553.5469 185.07812 553.5469 184.40625ZM554.625 184.26562L554.625 184.40625Q554.625 184.875 554.7344 185.29688Q554.84375 185.71875 555.0625 186.04688Q555.2969 186.35938 555.6406 186.54688Q555.9844 186.71875 556.4219 186.71875Q556.875 186.71875 557.2031 186.54688Q557.5469 186.35938 557.7656 186.04688Q558.0 185.71875 558.1094 185.29688Q558.21875 184.875 558.21875 184.40625L558.21875 184.26562Q558.21875 183.79688 558.1094 183.375Q558.0 182.95312 557.7656 182.64062Q557.5469 182.3125 557.2031 182.125Q556.875 181.9375 556.4219 181.9375Q555.96875 181.9375 555.625 182.125Q555.2969 182.3125 555.0625 182.64062Q554.84375 182.95312 554.7344 183.375Q554.625 183.79688 554.625 184.26562ZM561.90625 182.51562L561.90625 187.5L560.8281 187.5L560.8281 181.15625L561.8594 181.15625L561.90625 182.51562ZM561.65625 184.09375L561.2031 184.07812Q561.2031 183.42188 561.3906 182.875Q561.5781 182.3125 561.9219 181.90625Q562.2656 181.5 562.7344 181.28125Q563.2031 181.04688 563.78125 181.04688Q564.25 181.04688 564.625 181.17188Q565.0 181.29688 565.2656 181.57812Q565.53125 181.84375 565.6719 182.28125Q565.8125 182.71875 565.8125 183.34375L565.8125 187.5L564.71875 187.5L564.71875 183.32812Q564.71875 182.82812 564.5781 182.53125Q564.4375 182.23438 564.15625 182.09375Q563.875 181.95312 563.4531 181.95312Q563.0469 181.95312 562.71875 182.125Q562.3906 182.29688 562.15625 182.59375Q561.9219 182.89062 561.78125 183.28125Q561.65625 183.65625 561.65625 184.09375ZM570.4531 187.625Q569.7969 187.625 569.25 187.40625Q568.71875 187.17188 568.3281 186.76562Q567.9531 186.34375 567.75 185.78125Q567.5469 185.21875 567.5469 184.54688L567.5469 184.3125Q567.5469 183.53125 567.7656 182.92188Q568.0 182.3125 568.3906 181.89062Q568.78125 181.46875 569.28125 181.26562Q569.78125 181.04688 570.3125 181.04688Q571.0 181.04688 571.4844 181.28125Q571.9844 181.51562 572.2969 181.9375Q572.625 182.34375 572.7656 182.92188Q572.9219 183.48438 572.9219 184.14062L572.9219 184.64062L568.1875 184.64062L568.1875 183.75L571.84375 183.75L571.84375 183.67188Q571.8125 183.25 571.65625 182.85938Q571.5156 182.45312 571.1875 182.20312Q570.875 181.9375 570.3125 181.9375Q569.9531 181.9375 569.6406 182.09375Q569.3281 182.25 569.09375 182.5625Q568.875 182.85938 568.75 183.29688Q568.6406 183.73438 568.6406 184.3125L568.6406 184.54688Q568.6406 185.0 568.7656 185.40625Q568.8906 185.79688 569.125 186.09375Q569.375 186.39062 569.71875 186.5625Q570.0781 186.73438 570.5156 186.73438Q571.09375 186.73438 571.4844 186.5Q571.8906 186.26562 572.1875 185.875L572.84375 186.39062Q572.6406 186.70312 572.3125 186.98438Q572.0 187.26562 571.53125 187.45312Q571.0781 187.625 570.4531 187.625ZM574.90625 182.51562L574.90625 187.5L573.8281 187.5L573.8281 181.15625L574.8594 181.15625L574.90625 182.51562ZM574.65625 184.09375L574.2031 184.07812Q574.2031 183.42188 574.3906 182.875Q574.5781 182.3125 574.9219 181.90625Q575.2656 181.5 575.7344 181.28125Q576.2031 181.04688 576.78125 181.04688Q577.25 181.04688 577.625 181.17188Q578.0 181.29688 578.2656 181.57812Q578.53125 181.84375 578.6719 182.28125Q578.8125 182.71875 578.8125 183.34375L578.8125 187.5L577.71875 187.5L577.71875 183.32812Q577.71875 182.82812 577.5781 182.53125Q577.4375 182.23438 577.15625 182.09375Q576.875 181.95312 576.4531 181.95312Q576.0469 181.95312 575.71875 182.125Q575.3906 182.29688 575.15625 182.59375Q574.9219 182.89062 574.78125 183.28125Q574.65625 183.65625 574.65625 184.09375Z" fill-rule="nonzero"/><path stroke="#cccccc" stroke-width="1.0" stroke-linecap="butt" d="M365.0 290.0L529.0 385.0" fill-rule="nonzero"/><path fill="#000000" d="M535.6719 400.57812L535.6719 401.5L531.40625 401.5L531.40625 400.57812L535.6719 400.57812ZM531.625 392.96875L531.625 401.5L530.4844 401.5L530.4844 392.96875L531.625 392.96875ZM537.5 395.15625L537.5 401.5L536.4219 401.5L536.4219 395.15625L537.5 395.15625ZM536.3281 393.48438Q536.3281 393.21875 536.4844 393.03125Q536.65625 392.84375 536.96875 392.84375Q537.28125 392.84375 537.4375 393.03125Q537.6094 393.21875 537.6094 393.48438Q537.6094 393.73438 537.4375 393.92188Q537.28125 394.09375 536.96875 394.09375Q536.65625 394.09375 536.4844 393.92188Q536.3281 393.73438 536.3281 393.48438ZM540.40625 396.51562L540.40625 401.5L539.3281 401.5L539.3281 395.15625L540.3594 395.15625L540.40625 396.51562ZM540.15625 398.09375L539.7031 398.07812Q539.7031 397.42188 539.8906 396.875Q540.0781 396.3125 540.4219 395.90625Q540.7656 395.5 541.2344 395.28125Q541.7031 395.04688 542.28125 395.04688Q542.75 395.04688 543.125 395.17188Q543.5 395.29688 543.7656 395.57812Q544.03125 395.84375 544.1719 396.28125Q544.3125 396.71875 544.3125 397.34375L544.3125 401.5L543.21875 401.5L543.21875 397.32812Q543.21875 396.82812 543.0781 396.53125Q542.9375 396.23438 542.65625 396.09375Q542.375 395.95312 541.9531 395.95312Q541.5469 395.95312 541.21875 396.125Q540.8906 396.29688 540.65625 396.59375Q540.4219 396.89062 540.28125 397.28125Q540.15625 397.65625 540.15625 398.09375ZM550.0625 400.42188L550.0625 397.15625Q550.0625 396.78125 549.90625 396.5Q549.7656 396.21875 549.46875 396.07812Q549.1719 395.92188 548.7344 395.92188Q548.3125 395.92188 548.0 396.0625Q547.7031 396.20312 547.53125 396.4375Q547.3594 396.65625 547.3594 396.92188L546.28125 396.92188Q546.28125 396.57812 546.4531 396.25Q546.625 395.90625 546.9531 395.64062Q547.28125 395.35938 547.75 395.20312Q548.21875 395.04688 548.7969 395.04688Q549.4844 395.04688 550.0156 395.28125Q550.5469 395.51562 550.84375 395.98438Q551.15625 396.45312 551.15625 397.15625L551.15625 400.10938Q551.15625 400.4375 551.2031 400.79688Q551.2656 401.14062 551.375 401.40625L551.375 401.5L550.2344 401.5Q550.15625 401.3125 550.1094 401.0Q550.0625 400.6875 550.0625 400.42188ZM550.25 397.65625L550.2656 398.42188L549.1719 398.42188Q548.7031 398.42188 548.34375 398.5Q547.9844 398.5625 547.7344 398.71875Q547.4844 398.85938 547.3594 399.07812Q547.2344 399.29688 547.2344 399.59375Q547.2344 399.89062 547.3594 400.14062Q547.5 400.375 547.7656 400.53125Q548.0469 400.67188 548.4375 400.67188Q548.9375 400.67188 549.3125 400.46875Q549.7031 400.25 549.9219 399.95312Q550.15625 399.64062 550.1719 399.34375L550.6406 399.875Q550.59375 400.10938 550.40625 400.42188Q550.2344 400.71875 549.9219 401.0Q549.625 401.26562 549.2031 401.45312Q548.7969 401.625 548.28125 401.625Q547.6406 401.625 547.15625 401.375Q546.6719 401.10938 546.40625 400.6875Q546.1406 400.26562 546.1406 399.73438Q546.1406 399.21875 546.3281 398.84375Q546.53125 398.45312 546.90625 398.1875Q547.28125 397.92188 547.8125 397.79688Q548.34375 397.65625 549.0 397.65625L550.25 397.65625ZM554.5 392.5L554.5 401.5L553.4219 401.5L553.4219 392.5L554.5 392.5ZM556.0469 398.40625L556.0469 398.26562Q556.0469 397.57812 556.2344 397.0Q556.4375 396.40625 556.8125 395.96875Q557.1875 395.53125 557.71875 395.29688Q558.25 395.04688 558.9219 395.04688Q559.5781 395.04688 560.1094 395.29688Q560.65625 395.53125 561.03125 395.96875Q561.40625 396.40625 561.6094 397.0Q561.8125 397.57812 561.8125 398.26562L561.8125 398.40625Q561.8125 399.07812 561.6094 399.67188Q561.40625 400.25 561.03125 400.6875Q560.65625 401.125 560.125 401.375Q559.59375 401.625 558.9219 401.625Q558.2656 401.625 557.71875 401.375Q557.1875 401.125 556.8125 400.6875Q556.4375 400.25 556.2344 399.67188Q556.0469 399.07812 556.0469 398.40625ZM557.125 398.26562L557.125 398.40625Q557.125 398.875 557.2344 399.29688Q557.34375 399.71875 557.5625 400.04688Q557.7969 400.35938 558.1406 400.54688Q558.4844 400.71875 558.9219 400.71875Q559.375 400.71875 559.7031 400.54688Q560.0469 400.35938 560.2656 400.04688Q560.5 399.71875 560.6094 399.29688Q560.71875 398.875 560.71875 398.40625L560.71875 398.26562Q560.71875 397.79688 560.6094 397.375Q560.5 396.95312 560.2656 396.64062Q560.0469 396.3125 559.7031 396.125Q559.375 395.9375 558.9219 395.9375Q558.46875 395.9375 558.125 396.125Q557.7969 396.3125 557.5625 396.64062Q557.34375 396.95312 557.2344 397.375Q557.125 397.79688 557.125 398.26562ZM563.0469 398.40625L563.0469 398.26562Q563.0469 397.57812 563.2344 397.0Q563.4375 396.40625 563.8125 395.96875Q564.1875 395.53125 564.71875 395.29688Q565.25 395.04688 565.9219 395.04688Q566.5781 395.04688 567.1094 395.29688Q567.65625 395.53125 568.03125 395.96875Q568.40625 396.40625 568.6094 397.0Q568.8125 397.57812 568.8125 398.26562L568.8125 398.40625Q568.8125 399.07812 568.6094 399.67188Q568.40625 400.25 568.03125 400.6875Q567.65625 401.125 567.125 401.375Q566.59375 401.625 565.9219 401.625Q565.2656 401.625 564.71875 401.375Q564.1875 401.125 563.8125 400.6875Q563.4375 400.25 563.2344 399.67188Q563.0469 399.07812 563.0469 398.40625ZM564.125 398.26562L564.125 398.40625Q564.125 398.875 564.2344 399.29688Q564.34375 399.71875 564.5625 400.04688Q564.7969 400.35938 565.1406 400.54688Q565.4844 400.71875 565.9219 400.71875Q566.375 400.71875 566.7031 400.54688Q567.0469 400.35938 567.2656 400.04688Q567.5 399.71875 567.6094 399.29688Q567.71875 398.875 567.71875 398.40625L567.71875 398.26562Q567.71875 397.79688 567.6094 397.375Q567.5 396.95312 567.2656 396.64062Q567.0469 396.3125 566.7031 396.125Q566.375 395.9375 565.9219 395.9375Q565.46875 395.9375 565.125 396.125Q564.7969 396.3125 564.5625 396.64062Q564.34375 396.95312 564.2344 397.375Q564.125 397.79688 564.125 398.26562ZM571.5 392.5L571.5 401.5L570.4219 401.5L570.4219 392.5L571.5 392.5Z" fill-rule="nonzero"/><path stroke="#cccccc" stroke-width="1.0" stroke-linecap="butt" d="M365.0 290.0L365.0 479.0" fill-rule="nonzero"/><path fill="#000000" d="M348.03125 506.34375Q348.03125 506.04688 347.9375 505.8125Q347.85938 505.57812 347.625 505.39062Q347.40625 505.20312 347.0 505.03125Q346.60938 504.85938 346.01562 504.6875Q345.375 504.5 344.85938 504.28125Q344.35938 504.04688 343.98438 503.75Q343.625 503.4375 343.4375 503.0625Q343.25 502.67188 343.25 502.17188Q343.25 501.67188 343.45312 501.25Q343.65625 500.82812 344.03125 500.51562Q344.42188 500.20312 344.95312 500.03125Q345.48438 499.84375 346.14062 499.84375Q347.10938 499.84375 347.78125 500.21875Q348.45312 500.57812 348.79688 501.17188Q349.15625 501.76562 349.15625 502.42188L348.03125 502.42188Q348.03125 501.95312 347.8125 501.57812Q347.60938 501.20312 347.1875 501.0Q346.78125 500.78125 346.14062 500.78125Q345.54688 500.78125 345.14062 500.96875Q344.75 501.14062 344.5625 501.45312Q344.375 501.76562 344.375 502.15625Q344.375 502.42188 344.48438 502.65625Q344.60938 502.875 344.84375 503.0625Q345.09375 503.25 345.46875 503.40625Q345.84375 503.5625 346.375 503.70312Q347.09375 503.90625 347.625 504.17188Q348.15625 504.42188 348.5 504.73438Q348.84375 505.04688 349.0 505.4375Q349.17188 505.82812 349.17188 506.32812Q349.17188 506.85938 348.95312 507.28125Q348.75 507.70312 348.35938 508.0Q347.96875 508.29688 347.42188 508.46875Q346.875 508.625 346.20312 508.625Q345.60938 508.625 345.03125 508.45312Q344.46875 508.28125 344.0 507.95312Q343.53125 507.625 343.25 507.15625Q342.96875 506.67188 342.96875 506.03125L344.09375 506.03125Q344.09375 506.46875 344.26562 506.78125Q344.4375 507.09375 344.73438 507.29688Q345.03125 507.5 345.40625 507.60938Q345.78125 507.70312 346.20312 507.70312Q346.79688 507.70312 347.20312 507.54688Q347.60938 507.375 347.8125 507.07812Q348.03125 506.76562 348.03125 506.34375ZM352.95312 508.625Q352.29688 508.625 351.75 508.40625Q351.21875 508.17188 350.82812 507.76562Q350.45312 507.34375 350.25 506.78125Q350.04688 506.21875 350.04688 505.54688L350.04688 505.3125Q350.04688 504.53125 350.26562 503.92188Q350.5 503.3125 350.89062 502.89062Q351.28125 502.46875 351.78125 502.26562Q352.28125 502.04688 352.8125 502.04688Q353.5 502.04688 353.98438 502.28125Q354.48438 502.51562 354.79688 502.9375Q355.125 503.34375 355.26562 503.92188Q355.42188 504.48438 355.42188 505.14062L355.42188 505.64062L350.6875 505.64062L350.6875 504.75L354.34375 504.75L354.34375 504.67188Q354.3125 504.25 354.15625 503.85938Q354.01562 503.45312 353.6875 503.20312Q353.375 502.9375 352.8125 502.9375Q352.45312 502.9375 352.14062 503.09375Q351.82812 503.25 351.59375 503.5625Q351.375 503.85938 351.25 504.29688Q351.14062 504.73438 351.14062 505.3125L351.14062 505.54688Q351.14062 506.0 351.26562 506.40625Q351.39062 506.79688 351.625 507.09375Q351.875 507.39062 352.21875 507.5625Q352.57812 507.73438 353.01562 507.73438Q353.59375 507.73438 353.98438 507.5Q354.39062 507.26562 354.6875 506.875L355.34375 507.39062Q355.14062 507.70312 354.8125 507.98438Q354.5 508.26562 354.03125 508.45312Q353.57812 508.625 352.95312 508.625ZM357.5 499.5L357.5 508.5L356.42188 508.5L356.42188 499.5L357.5 499.5ZM360.5 502.15625L360.5 508.5L359.42188 508.5L359.42188 502.15625L360.5 502.15625ZM359.32812 500.48438Q359.32812 500.21875 359.48438 500.03125Q359.65625 499.84375 359.96875 499.84375Q360.28125 499.84375 360.4375 500.03125Q360.60938 500.21875 360.60938 500.48438Q360.60938 500.73438 360.4375 500.92188Q360.28125 501.09375 359.96875 501.09375Q359.65625 501.09375 359.48438 500.92188Q359.32812 500.73438 359.32812 500.48438ZM363.40625 503.51562L363.40625 508.5L362.32812 508.5L362.32812 502.15625L363.35938 502.15625L363.40625 503.51562ZM363.15625 505.09375L362.70312 505.07812Q362.70312 504.42188 362.89062 503.875Q363.07812 503.3125 363.42188 502.90625Q363.76562 502.5 364.23438 502.28125Q364.70312 502.04688 365.28125 502.04688Q365.75 502.04688 366.125 502.17188Q366.5 502.29688 366.76562 502.57812Q367.03125 502.84375 367.17188 503.28125Q367.3125 503.71875 367.3125 504.34375L367.3125 508.5L366.21875 508.5L366.21875 504.32812Q366.21875 503.82812 366.07812 503.53125Q365.9375 503.23438 365.65625 503.09375Q365.375 502.95312 364.95312 502.95312Q364.54688 502.95312 364.21875 503.125Q363.89062 503.29688 363.65625 503.59375Q363.42188 503.89062 363.28125 504.28125Q363.15625 504.65625 363.15625 505.09375ZM371.95312 508.625Q371.29688 508.625 370.75 508.40625Q370.21875 508.17188 369.82812 507.76562Q369.45312 507.34375 369.25 506.78125Q369.04688 506.21875 369.04688 505.54688L369.04688 505.3125Q369.04688 504.53125 369.26562 503.92188Q369.5 503.3125 369.89062 502.89062Q370.28125 502.46875 370.78125 502.26562Q371.28125 502.04688 371.8125 502.04688Q372.5 502.04688 372.98438 502.28125Q373.48438 502.51562 373.79688 502.9375Q374.125 503.34375 374.26562 503.92188Q374.42188 504.48438 374.42188 505.14062L374.42188 505.64062L369.6875 505.64062L369.6875 504.75L373.34375 504.75L373.34375 504.67188Q373.3125 504.25 373.15625 503.85938Q373.01562 503.45312 372.6875 503.20312Q372.375 502.9375 371.8125 502.9375Q371.45312 502.9375 371.14062 503.09375Q370.82812 503.25 370.59375 503.5625Q370.375 503.85938 370.25 504.29688Q370.14062 504.73438 370.14062 505.3125L370.14062 505.54688Q370.14062 506.0 370.26562 506.40625Q370.39062 506.79688 370.625 507.09375Q370.875 507.39062 371.21875 507.5625Q371.57812 507.73438 372.01562 507.73438Q372.59375 507.73438 372.98438 507.5Q373.39062 507.26562 373.6875 506.875L374.34375 507.39062Q374.14062 507.70312 373.8125 507.98438Q373.5 508.26562 373.03125 508.45312Q372.57812 508.625 371.95312 508.625ZM376.40625 503.51562L376.40625 508.5L375.32812 508.5L375.32812 502.15625L376.35938 502.15625L376.40625 503.51562ZM376.15625 505.09375L375.70312 505.07812Q375.70312 504.42188 375.89062 503.875Q376.07812 503.3125 376.42188 502.90625Q376.76562 502.5 377.23438 502.28125Q377.70312 502.04688 378.28125 502.04688Q378.75 502.04688 379.125 502.17188Q379.5 502.29688 379.76562 502.57812Q380.03125 502.84375 380.17188 503.28125Q380.3125 503.71875 380.3125 504.34375L380.3125 508.5L379.21875 508.5L379.21875 504.32812Q379.21875 503.82812 379.07812 503.53125Q378.9375 503.23438 378.65625 503.09375Q378.375 502.95312 377.95312 502.95312Q377.54688 502.95312 377.21875 503.125Q376.89062 503.29688 376.65625 503.59375Q376.42188 503.89062 376.28125 504.28125Q376.15625 504.65625 376.15625 505.09375ZM384.95312 508.625Q384.29688 508.625 383.75 508.40625Q383.21875 508.17188 382.82812 507.76562Q382.45312 507.34375 382.25 506.78125Q382.04688 506.21875 382.04688 505.54688L382.04688 505.3125Q382.04688 504.53125 382.26562 503.92188Q382.5 503.3125 382.89062 502.89062Q383.28125 502.46875 383.78125 502.26562Q384.28125 502.04688 384.8125 502.04688Q385.5 502.04688 385.98438 502.28125Q386.48438 502.51562 386.79688 502.9375Q387.125 503.34375 387.26562 503.92188Q387.42188 504.48438 387.42188 505.14062L387.42188 505.64062L382.6875 505.64062L382.6875 504.75L386.34375 504.75L386.34375 504.67188Q386.3125 504.25 386.15625 503.85938Q386.01562 503.45312 385.6875 503.20312Q385.375 502.9375 384.8125 502.9375Q384.45312 502.9375 384.14062 503.09375Q383.82812 503.25 383.59375 503.5625Q383.375 503.85938 383.25 504.29688Q383.14062 504.73438 383.14062 505.3125L383.14062 505.54688Q383.14062 506.0 383.26562 506.40625Q383.39062 506.79688 383.625 507.09375Q383.875 507.39062 384.21875 507.5625Q384.57812 507.73438 385.01562 507.73438Q385.59375 507.73438 385.98438 507.5Q386.39062 507.26562 386.6875 506.875L387.34375 507.39062Q387.14062 507.70312 386.8125 507.98438Q386.5 508.26562 386.03125 508.45312Q385.57812 508.625 384.95312 508.625Z" fill-rule="nonzero"/><path stroke="#cccccc" stroke-width="1.0" stroke-linecap="butt" d="M365.0 290.0L201.0 385.0" fill-rule="nonzero"/><path fill="#000000" d="M157.53125 396.67188L158.39062 396.67188Q159.20312 396.67188 159.76562 396.98438Q160.34375 397.28125 160.64062 397.8125Q160.95312 398.34375 160.95312 399.01562Q160.95312 399.84375 160.60938 400.42188Q160.26562 401.0 159.67188 401.3125Q159.07812 401.625 158.29688 401.625Q157.84375 401.625 157.39062 401.5Q156.9375 401.35938 156.5625 401.09375Q156.20312 400.82812 155.98438 400.40625Q155.76562 399.98438 155.76562 399.40625L156.1875 399.15625Q156.1875 399.59375 156.4375 399.95312Q156.70312 400.29688 157.14062 400.51562Q157.59375 400.73438 158.1875 400.73438Q158.71875 400.73438 159.09375 400.51562Q159.46875 400.29688 159.67188 399.92188Q159.875 399.53125 159.875 399.03125Q159.875 398.625 159.6875 398.25Q159.51562 397.85938 159.1875 397.60938Q158.85938 397.35938 158.375 397.35938L157.53125 397.35938L157.53125 396.67188ZM158.04688 392.84375Q158.8125 392.84375 159.375 393.14062Q159.9375 393.4375 160.23438 393.95312Q160.54688 394.46875 160.54688 395.14062Q160.54688 395.70312 160.23438 396.17188Q159.9375 396.625 159.375 396.90625Q158.8125 397.17188 158.04688 397.17188L157.53125 397.17188L157.53125 396.46875L158.03125 396.46875Q158.54688 396.46875 158.85938 396.29688Q159.17188 396.125 159.3125 395.82812Q159.46875 395.51562 159.46875 395.125Q159.46875 394.76562 159.3125 394.45312Q159.15625 394.14062 158.84375 393.9375Q158.53125 393.73438 158.04688 393.73438Q157.625 393.73438 157.28125 393.9375Q156.9375 394.125 156.73438 394.46875Q156.53125 394.79688 156.53125 395.21875L156.53125 403.75L155.4375 403.75L155.4375 395.21875Q155.4375 394.5625 155.79688 394.03125Q156.15625 393.48438 156.75 393.17188Q157.34375 392.84375 158.04688 392.84375ZM164.57812 397.42188L164.57812 398.3125L161.71875 398.3125L161.71875 397.42188L164.57812 397.42188ZM165.84375 392.96875L166.9375 392.96875L169.73438 399.92188L172.53125 392.96875L173.625 392.96875L170.15625 401.5L169.3125 401.5L165.84375 392.96875ZM165.48438 392.96875L166.45312 392.96875L166.60938 398.17188L166.60938 401.5L165.48438 401.5L165.48438 392.96875ZM173.01562 392.96875L173.98438 392.96875L173.98438 401.5L172.85938 401.5L172.85938 398.17188L173.01562 392.96875ZM177.10938 400.84375L178.875 395.15625L180.03125 395.15625L177.48438 402.48438Q177.40625 402.71875 177.25 402.98438Q177.10938 403.26562 176.89062 403.5Q176.67188 403.75 176.35938 403.90625Q176.04688 404.0625 175.60938 404.0625Q175.48438 404.0625 175.28125 404.01562Q175.07812 403.98438 175.0 403.96875L175.0 403.09375Q175.04688 403.09375 175.14062 403.09375Q175.25 403.10938 175.28125 403.10938Q175.65625 403.10938 175.90625 403.01562Q176.17188 402.92188 176.34375 402.6875Q176.53125 402.46875 176.65625 402.07812L177.10938 400.84375ZM175.8125 395.15625L177.45312 400.07812L177.73438 401.21875L176.96875 401.625L174.625 395.15625L175.8125 395.15625ZM182.40625 396.15625L182.40625 401.5L181.32812 401.5L181.32812 395.15625L182.375 395.15625L182.40625 396.15625ZM184.39062 395.125L184.39062 396.125Q184.25 396.10938 184.125 396.09375Q184.01562 396.07812 183.85938 396.07812Q183.48438 396.07812 183.1875 396.20312Q182.90625 396.3125 182.70312 396.53125Q182.51562 396.73438 182.39062 397.03125Q182.28125 397.32812 182.25 397.67188L181.9375 397.84375Q181.9375 397.26562 182.04688 396.76562Q182.17188 396.26562 182.40625 395.875Q182.65625 395.48438 183.01562 395.26562Q183.39062 395.04688 183.90625 395.04688Q184.03125 395.04688 184.17188 395.07812Q184.32812 395.09375 184.39062 395.125ZM187.85938 400.71875Q188.25 400.71875 188.57812 400.5625Q188.90625 400.40625 189.10938 400.14062Q189.32812 399.85938 189.35938 399.5L190.39062 399.5Q190.35938 400.0625 190.0 400.54688Q189.65625 401.03125 189.09375 401.32812Q188.53125 401.625 187.85938 401.625Q187.15625 401.625 186.625 401.375Q186.09375 401.10938 185.73438 400.67188Q185.39062 400.23438 185.21875 399.67188Q185.04688 399.09375 185.04688 398.45312L185.04688 398.20312Q185.04688 397.5625 185.21875 397.0Q185.39062 396.42188 185.73438 395.98438Q186.09375 395.54688 186.625 395.29688Q187.15625 395.04688 187.85938 395.04688Q188.60938 395.04688 189.15625 395.34375Q189.71875 395.64062 190.03125 396.17188Q190.35938 396.6875 190.39062 397.34375L189.35938 397.34375Q189.32812 396.95312 189.14062 396.64062Q188.95312 396.3125 188.625 396.125Q188.29688 395.9375 187.85938 395.9375Q187.35938 395.9375 187.01562 396.14062Q186.6875 396.32812 186.48438 396.65625Q186.29688 396.98438 186.20312 397.39062Q186.125 397.79688 186.125 398.20312L186.125 398.45312Q186.125 398.875 186.20312 399.28125Q186.29688 399.67188 186.48438 400.0Q186.6875 400.32812 187.01562 400.53125Q187.35938 400.71875 187.85938 400.71875ZM193.95312 401.625Q193.29688 401.625 192.75 401.40625Q192.21875 401.17188 191.82812 400.76562Q191.45312 400.34375 191.25 399.78125Q191.04688 399.21875 191.04688 398.54688L191.04688 398.3125Q191.04688 397.53125 191.26562 396.92188Q191.5 396.3125 191.89062 395.89062Q192.28125 395.46875 192.78125 395.26562Q193.28125 395.04688 193.8125 395.04688Q194.5 395.04688 194.98438 395.28125Q195.48438 395.51562 195.79688 395.9375Q196.125 396.34375 196.26562 396.92188Q196.42188 397.48438 196.42188 398.14062L196.42188 398.64062L191.6875 398.64062L191.6875 397.75L195.34375 397.75L195.34375 397.67188Q195.3125 397.25 195.15625 396.85938Q195.01562 396.45312 194.6875 396.20312Q194.375 395.9375 193.8125 395.9375Q193.45312 395.9375 193.14062 396.09375Q192.82812 396.25 192.59375 396.5625Q192.375 396.85938 192.25 397.29688Q192.14062 397.73438 192.14062 398.3125L192.14062 398.54688Q192.14062 399.0 192.26562 399.40625Q192.39062 399.79688 192.625 400.09375Q192.875 400.39062 193.21875 400.5625Q193.57812 400.73438 194.01562 400.73438Q194.59375 400.73438 194.98438 400.5Q195.39062 400.26562 195.6875 399.875L196.34375 400.39062Q196.14062 400.70312 195.8125 400.98438Q195.5 401.26562 195.03125 401.45312Q194.57812 401.625 193.95312 401.625ZM198.40625 396.51562L198.40625 401.5L197.32812 401.5L197.32812 395.15625L198.35938 395.15625L198.40625 396.51562ZM198.15625 398.09375L197.70312 398.07812Q197.70312 397.42188 197.89062 396.875Q198.07812 396.3125 198.42188 395.90625Q198.76562 395.5 199.23438 395.28125Q199.70312 395.04688 200.28125 395.04688Q200.75 395.04688 201.125 395.17188Q201.5 395.29688 201.76562 395.57812Q202.03125 395.84375 202.17188 396.28125Q202.3125 396.71875 202.3125 397.34375L202.3125 401.5L201.21875 401.5L201.21875 397.32812Q201.21875 396.82812 201.07812 396.53125Q200.9375 396.23438 200.65625 396.09375Q200.375 395.95312 199.95312 395.95312Q199.54688 395.95312 199.21875 396.125Q198.89062 396.29688 198.65625 396.59375Q198.42188 396.89062 198.28125 397.28125Q198.15625 397.65625 198.15625 398.09375Z" fill-rule="nonzero"/><path stroke="#cccccc" stroke-width="1.0" stroke-linecap="butt" d="M365.0 290.0L201.0 195.0" fill-rule="nonzero"/><path fill="#000000" d="M161.03125 185.34375Q161.03125 185.04688 160.9375 184.8125Q160.85938 184.57812 160.625 184.39062Q160.40625 184.20312 160.0 184.03125Q159.60938 183.85938 159.01562 183.6875Q158.375 183.5 157.85938 183.28125Q157.35938 183.04688 156.98438 182.75Q156.625 182.4375 156.4375 182.0625Q156.25 181.67188 156.25 181.17188Q156.25 180.67188 156.45312 180.25Q156.65625 179.82812 157.03125 179.51562Q157.42188 179.20312 157.95312 179.03125Q158.48438 178.84375 159.14062 178.84375Q160.10938 178.84375 160.78125 179.21875Q161.45312 179.57812 161.79688 180.17188Q162.15625 180.76562 162.15625 181.42188L161.03125 181.42188Q161.03125 180.95312 160.8125 180.57812Q160.60938 180.20312 160.1875 180.0Q159.78125 179.78125 159.14062 179.78125Q158.54688 179.78125 158.14062 179.96875Q157.75 180.14062 157.5625 180.45312Q157.375 180.76562 157.375 181.15625Q157.375 181.42188 157.48438 181.65625Q157.60938 181.875 157.84375 182.0625Q158.09375 182.25 158.46875 182.40625Q158.84375 182.5625 159.375 182.70312Q160.09375 182.90625 160.625 183.17188Q161.15625 183.42188 161.5 183.73438Q161.84375 184.04688 162.0 184.4375Q162.17188 184.82812 162.17188 185.32812Q162.17188 185.85938 161.95312 186.28125Q161.75 186.70312 161.35938 187.0Q160.96875 187.29688 160.42188 187.46875Q159.875 187.625 159.20312 187.625Q158.60938 187.625 158.03125 187.45312Q157.46875 187.28125 157.0 186.95312Q156.53125 186.625 156.25 186.15625Q155.96875 185.67188 155.96875 185.03125L157.09375 185.03125Q157.09375 185.46875 157.26562 185.78125Q157.4375 186.09375 157.73438 186.29688Q158.03125 186.5 158.40625 186.60938Q158.78125 186.70312 159.20312 186.70312Q159.79688 186.70312 160.20312 186.54688Q160.60938 186.375 160.8125 186.07812Q161.03125 185.76562 161.03125 185.34375ZM163.04688 184.40625L163.04688 184.26562Q163.04688 183.57812 163.23438 183.0Q163.4375 182.40625 163.8125 181.96875Q164.1875 181.53125 164.71875 181.29688Q165.25 181.04688 165.92188 181.04688Q166.57812 181.04688 167.10938 181.29688Q167.65625 181.53125 168.03125 181.96875Q168.40625 182.40625 168.60938 183.0Q168.8125 183.57812 168.8125 184.26562L168.8125 184.40625Q168.8125 185.07812 168.60938 185.67188Q168.40625 186.25 168.03125 186.6875Q167.65625 187.125 167.125 187.375Q166.59375 187.625 165.92188 187.625Q165.26562 187.625 164.71875 187.375Q164.1875 187.125 163.8125 186.6875Q163.4375 186.25 163.23438 185.67188Q163.04688 185.07812 163.04688 184.40625ZM164.125 184.26562L164.125 184.40625Q164.125 184.875 164.23438 185.29688Q164.34375 185.71875 164.5625 186.04688Q164.79688 186.35938 165.14062 186.54688Q165.48438 186.71875 165.92188 186.71875Q166.375 186.71875 166.70312 186.54688Q167.04688 186.35938 167.26562 186.04688Q167.5 185.71875 167.60938 185.29688Q167.71875 184.875 167.71875 184.40625L167.71875 184.26562Q167.71875 183.79688 167.60938 183.375Q167.5 182.95312 167.26562 182.64062Q167.04688 182.3125 166.70312 182.125Q166.375 181.9375 165.92188 181.9375Q165.46875 181.9375 165.125 182.125Q164.79688 182.3125 164.5625 182.64062Q164.34375 182.95312 164.23438 183.375Q164.125 183.79688 164.125 184.26562ZM171.40625 182.51562L171.40625 187.5L170.32812 187.5L170.32812 181.15625L171.35938 181.15625L171.40625 182.51562ZM171.15625 184.09375L170.70312 184.07812Q170.70312 183.42188 170.89062 182.875Q171.07812 182.3125 171.42188 181.90625Q171.76562 181.5 172.23438 181.28125Q172.70312 181.04688 173.28125 181.04688Q173.75 181.04688 174.125 181.17188Q174.5 181.29688 174.76562 181.57812Q175.03125 181.84375 175.17188 182.28125Q175.3125 182.71875 175.3125 183.34375L175.3125 187.5L174.21875 187.5L174.21875 183.32812Q174.21875 182.82812 174.07812 182.53125Q173.9375 182.23438 173.65625 182.09375Q173.375 181.95312 172.95312 181.95312Q172.54688 181.95312 172.21875 182.125Q171.89062 182.29688 171.65625 182.59375Q171.42188 182.89062 171.28125 183.28125Q171.15625 183.65625 171.15625 184.09375ZM181.01562 185.8125Q181.01562 185.57812 180.90625 185.375Q180.8125 185.17188 180.5 185.01562Q180.1875 184.84375 179.5625 184.71875Q179.03125 184.60938 178.60938 184.46875Q178.1875 184.3125 177.89062 184.09375Q177.59375 183.875 177.4375 183.57812Q177.28125 183.28125 177.28125 182.89062Q177.28125 182.51562 177.4375 182.1875Q177.60938 181.84375 177.90625 181.59375Q178.21875 181.32812 178.65625 181.1875Q179.09375 181.04688 179.625 181.04688Q180.39062 181.04688 180.92188 181.3125Q181.46875 181.57812 181.75 182.03125Q182.03125 182.48438 182.03125 183.01562L180.95312 183.01562Q180.95312 182.76562 180.79688 182.51562Q180.64062 182.26562 180.34375 182.10938Q180.04688 181.9375 179.625 181.9375Q179.17188 181.9375 178.89062 182.07812Q178.60938 182.20312 178.48438 182.42188Q178.35938 182.625 178.35938 182.85938Q178.35938 183.04688 178.42188 183.1875Q178.48438 183.3125 178.64062 183.4375Q178.79688 183.54688 179.07812 183.65625Q179.375 183.75 179.82812 183.84375Q180.60938 184.01562 181.10938 184.26562Q181.60938 184.51562 181.85938 184.875Q182.10938 185.21875 182.10938 185.73438Q182.10938 186.15625 181.92188 186.5Q181.75 186.84375 181.42188 187.09375Q181.10938 187.34375 180.65625 187.48438Q180.20312 187.625 179.65625 187.625Q178.8125 187.625 178.23438 187.32812Q177.65625 187.01562 177.35938 186.54688Q177.0625 186.0625 177.0625 185.54688L178.14062 185.54688Q178.17188 185.98438 178.40625 186.25Q178.64062 186.51562 178.96875 186.625Q179.3125 186.71875 179.65625 186.71875Q180.09375 186.71875 180.39062 186.60938Q180.70312 186.48438 180.85938 186.28125Q181.01562 186.07812 181.01562 185.8125ZM185.98438 181.15625L185.98438 181.98438L182.54688 181.98438L182.54688 181.15625L185.98438 181.15625ZM183.71875 179.625L184.79688 179.625L184.79688 185.92188Q184.79688 186.25 184.89062 186.42188Q185.0 186.57812 185.15625 186.64062Q185.3125 186.6875 185.5 186.6875Q185.625 186.6875 185.76562 186.65625Q185.92188 186.625 186.0 186.60938L186.01562 187.5Q185.875 187.54688 185.67188 187.57812Q185.46875 187.625 185.17188 187.625Q184.78125 187.625 184.4375 187.46875Q184.10938 187.29688 183.90625 186.9375Q183.71875 186.5625 183.71875 185.92188L183.71875 179.625ZM188.5 181.15625L188.5 187.5L187.42188 187.5L187.42188 181.15625L188.5 181.15625ZM187.32812 179.48438Q187.32812 179.21875 187.48438 179.03125Q187.65625 178.84375 187.96875 178.84375Q188.28125 178.84375 188.4375 179.03125Q188.60938 179.21875 188.60938 179.48438Q188.60938 179.73438 188.4375 179.92188Q188.28125 180.09375 187.96875 180.09375Q187.65625 180.09375 187.48438 179.92188Q187.32812 179.73438 187.32812 179.48438ZM194.4375 181.15625L195.42188 181.15625L195.42188 187.35938Q195.42188 188.20312 195.07812 188.79688Q194.73438 189.39062 194.125 189.6875Q193.53125 190.0 192.73438 190.0Q192.40625 190.0 191.95312 189.89062Q191.51562 189.79688 191.09375 189.54688Q190.67188 189.3125 190.39062 188.90625L190.95312 188.25Q191.35938 188.73438 191.78125 188.92188Q192.21875 189.10938 192.65625 189.10938Q193.17188 189.10938 193.54688 188.90625Q193.92188 188.71875 194.125 188.34375Q194.32812 187.96875 194.32812 187.42188L194.32812 182.54688L194.4375 181.15625ZM190.0625 184.40625L190.0625 184.28125Q190.0625 183.54688 190.23438 182.95312Q190.42188 182.35938 190.73438 181.9375Q191.0625 181.5 191.51562 181.28125Q191.98438 181.04688 192.57812 181.04688Q193.17188 181.04688 193.60938 181.25Q194.0625 181.45312 194.375 181.85938Q194.6875 182.25 194.875 182.8125Q195.0625 183.35938 195.125 184.0625L195.125 184.60938Q195.0625 185.29688 194.875 185.85938Q194.6875 186.42188 194.375 186.8125Q194.0625 187.20312 193.60938 187.42188Q193.15625 187.625 192.5625 187.625Q191.98438 187.625 191.53125 187.39062Q191.07812 187.14062 190.75 186.70312Q190.42188 186.26562 190.23438 185.6875Q190.0625 185.09375 190.0625 184.40625ZM191.15625 184.28125L191.15625 184.40625Q191.15625 184.875 191.25 185.29688Q191.34375 185.70312 191.54688 186.03125Q191.75 186.34375 192.0625 186.53125Q192.39062 186.70312 192.82812 186.70312Q193.35938 186.70312 193.70312 186.46875Q194.0625 186.23438 194.26562 185.85938Q194.48438 185.48438 194.59375 185.04688L194.59375 183.64062Q194.53125 183.3125 194.39062 183.01562Q194.26562 182.71875 194.0625 182.48438Q193.85938 182.23438 193.54688 182.09375Q193.25 181.95312 192.82812 181.95312Q192.39062 181.95312 192.0625 182.14062Q191.75 182.32812 191.54688 182.65625Q191.34375 182.96875 191.25 183.39062Q191.15625 183.79688 191.15625 184.28125ZM199.95312 187.625Q199.29688 187.625 198.75 187.40625Q198.21875 187.17188 197.82812 186.76562Q197.45312 186.34375 197.25 185.78125Q197.04688 185.21875 197.04688 184.54688L197.04688 184.3125Q197.04688 183.53125 197.26562 182.92188Q197.5 182.3125 197.89062 181.89062Q198.28125 181.46875 198.78125 181.26562Q199.28125 181.04688 199.8125 181.04688Q200.5 181.04688 200.98438 181.28125Q201.48438 181.51562 201.79688 181.9375Q202.125 182.34375 202.26562 182.92188Q202.42188 183.48438 202.42188 184.14062L202.42188 184.64062L197.6875 184.64062L197.6875 183.75L201.34375 183.75L201.34375 183.67188Q201.3125 183.25 201.15625 182.85938Q201.01562 182.45312 200.6875 182.20312Q200.375 181.9375 199.8125 181.9375Q199.45312 181.9375 199.14062 182.09375Q198.82812 182.25 198.59375 182.5625Q198.375 182.85938 198.25 183.29688Q198.14062 183.73438 198.14062 184.3125L198.14062 184.54688Q198.14062 185.0 198.26562 185.40625Q198.39062 185.79688 198.625 186.09375Q198.875 186.39062 199.21875 186.5625Q199.57812 186.73438 200.01562 186.73438Q200.59375 186.73438 200.98438 186.5Q201.39062 186.26562 201.6875 185.875L202.34375 186.39062Q202.14062 186.70312 201.8125 186.98438Q201.5 187.26562 201.03125 187.45312Q200.57812 187.625 199.95312 187.625Z" fill-rule="nonzero"/><path stroke="#cccccc" stroke-width="1.0" stroke-linecap="butt" d="M365.0 290.0L365.0 101.0" fill-rule="nonzero"/><path stroke="#ff0000" stroke-width="2.0" stroke-linecap="butt" stroke-opacity="0.7019608" stroke-dasharray="8.0,6.0,2.0,6.0" d="M365.0 167.0L439.0 247.0L431.0 328.0L365.0 351.0L340.0 304.0L279.0 240.0Z" fill-rule="nonzero"/><path fill="#ff0000" fill-opacity="0.7019608" d="M361.81802 163.81802L365.0 165.875L368.18198 163.81802L366.125 167.0L368.18198 170.18198L365.0 168.125L361.81802 170.18198L363.875 167.0Z" fill-rule="nonzero"/><path fill="#ff0000" fill-opacity="0.7019608" d="M435.81802 243.81802L439.0 245.875L442.18198 243.81802L440.125 247.0L442.18198 250.18198L439.0 248.125L435.81802 250.18198L437.875 247.0Z" fill-rule="nonzero"/><path fill="#ff0000" fill-opacity="0.7019608" d="M427.81802 324.81802L431.0 326.875L434.18198 324.81802L432.125 328.0L434.18198 331.18198L431.0 329.125L427.81802 331.18198L429.875 328.0Z" fill-rule="nonzero"/><path fill="#ff0000" fill-opacity="0.7019608" d="M361.81802 347.81802L365.0 349.875L368.18198 347.81802L366.125 351.0L368.18198 354.18198L365.0 352.125L361.81802 354.18198L363.875 351.0Z" fill-rule="nonzero"/><path fill="#ff0000" fill-opacity="0.7019608" d="M336.81802 300.81802L340.0 302.875L343.18198 300.81802L341.125 304.0L343.18198 307.18198L340.0 305.125L336.81802 307.18198L338.875 304.0Z" fill-rule="nonzero"/><path fill="#ff0000" fill-opacity="0.7019608" d="M275.81802 236.81802L279.0 238.875L282.18198 236.81802L280.125 240.0L282.18198 243.18198L279.0 241.125L275.81802 243.18198L277.875 240.0Z" fill-rule="nonzero"/><path fill="#757575" d="M28.540625 45.9L28.540625 31.587502L38.196877 31.587502L38.196877 33.275L30.43125 33.275L30.43125 37.7125L37.15 37.7125L37.15 39.4L30.43125 39.4L30.43125 45.9L28.540625 45.9ZM40.196877 45.9L40.196877 35.525L41.775 35.525L41.775 37.103127Q42.384377 35.99375 42.9 35.65Q43.415627 35.290627 44.025 35.290627Q44.915627 35.290627 45.8375 35.853127L45.228127 37.49375Q44.5875 37.103127 43.946877 37.103127Q43.36875 37.103127 42.9 37.4625Q42.446877 37.80625 42.24375 38.415627Q41.9625 39.353127 41.9625 40.4625L41.9625 45.9L40.196877 45.9ZM46.571877 40.7125Q46.571877 37.8375 48.165627 36.446877Q49.509377 35.290627 51.43125 35.290627Q53.571877 35.290627 54.915627 36.696877Q56.275 38.103127 56.275 40.571877Q56.275 42.571877 55.68125 43.728127Q55.0875 44.86875 53.93125 45.509377Q52.790627 46.134377 51.43125 46.134377Q49.24375 46.134377 47.9 44.74375Q46.571877 43.3375 46.571877 40.7125ZM48.36875 40.7125Q48.36875 42.7125 49.228127 43.696877Q50.103127 44.68125 51.43125 44.68125Q52.74375 44.68125 53.603127 43.696877Q54.478127 42.696877 54.478127 40.65Q54.478127 38.728127 53.603127 37.74375Q52.728127 36.74375 51.43125 36.74375Q50.103127 36.74375 49.228127 37.74375Q48.36875 38.728127 48.36875 40.7125ZM57.509377 42.80625L59.259377 42.525Q59.4 43.571877 60.071877 44.134377Q60.74375 44.68125 61.946877 44.68125Q63.15 44.68125 63.728127 44.196877Q64.32188 43.696877 64.32188 43.040627Q64.32188 42.446877 63.80625 42.103127Q63.446877 41.86875 62.009377 41.509377Q60.071877 41.009377 59.321877 40.665627Q58.5875 40.30625 58.196877 39.68125Q57.80625 39.040627 57.80625 38.275Q57.80625 37.5875 58.11875 36.99375Q58.446877 36.4 58.99375 36.009377Q59.4 35.7125 60.103127 35.509377Q60.821877 35.290627 61.634377 35.290627Q62.853127 35.290627 63.775 35.65Q64.69688 35.99375 65.13438 36.603127Q65.57188 37.196877 65.74375 38.196877L64.025 38.43125Q63.9 37.634377 63.3375 37.196877Q62.775 36.74375 61.759377 36.74375Q60.540627 36.74375 60.025 37.15Q59.509377 37.540627 59.509377 38.071877Q59.509377 38.415627 59.728127 38.696877Q59.93125 38.978127 60.4 39.165627Q60.665627 39.259377 61.946877 39.603127Q63.821877 40.103127 64.55625 40.43125Q65.29063 40.74375 65.7125 41.353127Q66.13438 41.946877 66.13438 42.853127Q66.13438 43.728127 65.61875 44.509377Q65.10313 45.290627 64.13438 45.7125Q63.165627 46.134377 61.946877 46.134377Q59.93125 46.134377 58.86875 45.290627Q57.80625 44.446877 57.509377 42.80625ZM72.05625 44.321877L72.30625 45.884377Q71.57188 46.040627 70.97813 46.040627Q70.025 46.040627 69.49375 45.74375Q68.97813 45.43125 68.75938 44.946877Q68.54063 44.446877 68.54063 42.86875L68.54063 36.9L67.25938 36.9L67.25938 35.525L68.54063 35.525L68.54063 32.9625L70.29063 31.900002L70.29063 35.525L72.05625 35.525L72.05625 36.9L70.29063 36.9L70.29063 42.9625Q70.29063 43.7125 70.38438 43.93125Q70.47813 44.134377 70.68125 44.275Q70.9 44.4 71.29063 44.4Q71.57188 44.4 72.05625 44.321877ZM81.32188 42.55625L83.13438 42.790627Q82.7125 44.36875 81.54063 45.259377Q80.38438 46.134377 78.57188 46.134377Q76.30625 46.134377 74.9625 44.74375Q73.63438 43.3375 73.63438 40.80625Q73.63438 38.18125 74.97813 36.74375Q76.32188 35.290627 78.47813 35.290627Q80.55625 35.290627 81.86875 36.7125Q83.19688 38.11875 83.19688 40.696877Q83.19688 40.853127 83.18125 41.165627L75.44688 41.165627Q75.54063 42.86875 76.41563 43.775Q77.29063 44.68125 78.5875 44.68125Q79.55625 44.68125 80.22813 44.18125Q80.91563 43.665627 81.32188 42.55625ZM75.54063 39.7125L81.3375 39.7125Q81.22813 38.415627 80.68125 37.759377Q79.8375 36.74375 78.49375 36.74375Q77.29063 36.74375 76.4625 37.55625Q75.63438 38.353127 75.54063 39.7125ZM91.94688 45.9L91.94688 44.5875Q90.9625 46.134377 89.04063 46.134377Q87.80625 46.134377 86.75938 45.446877Q85.72813 44.759377 85.15 43.540627Q84.5875 42.321877 84.5875 40.728127Q84.5875 39.165627 85.10313 37.9Q85.61875 36.634377 86.65 35.9625Q87.69688 35.290627 88.9625 35.290627Q89.9 35.290627 90.63438 35.696877Q91.36875 36.0875 91.8375 36.7125L91.8375 31.587502L93.57188 31.587502L93.57188 45.9L91.94688 45.9ZM86.38438 40.728127Q86.38438 42.7125 87.22813 43.696877Q88.07188 44.68125 89.2125 44.68125Q90.36875 44.68125 91.16563 43.74375Q91.97813 42.80625 91.97813 40.86875Q91.97813 38.74375 91.15 37.74375Q90.3375 36.74375 89.13438 36.74375Q87.9625 36.74375 87.16563 37.7125Q86.38438 38.665627 86.38438 40.728127ZM102.54063 45.9L102.54063 31.587502L112.19688 31.587502L112.19688 33.275L104.43125 33.275L104.43125 37.7125L111.15 37.7125L111.15 39.4L104.43125 39.4L104.43125 45.9L102.54063 45.9ZM114.19688 45.9L114.19688 35.525L115.775 35.525L115.775 37.103127Q116.38438 35.99375 116.9 35.65Q117.41563 35.290627 118.025 35.290627Q118.91563 35.290627 119.8375 35.853127L119.22813 37.49375Q118.5875 37.103127 117.94688 37.103127Q117.36875 37.103127 116.9 37.4625Q116.44688 37.80625 116.24375 38.415627Q115.9625 39.353127 115.9625 40.4625L115.9625 45.9L114.19688 45.9ZM128.00937 45.9L128.00937 44.36875Q126.80625 46.134377 124.72813 46.134377Q123.80625 46.134377 123.00938 45.790627Q122.2125 45.43125 121.82188 44.9Q121.44688 44.36875 121.29063 43.5875Q121.18125 43.071877 121.18125 41.946877L121.18125 35.525L122.93125 35.525L122.93125 41.275Q122.93125 42.65 123.04063 43.134377Q123.2125 43.821877 123.74375 44.228127Q124.29063 44.61875 125.07188 44.61875Q125.86875 44.61875 126.55625 44.2125Q127.25938 43.80625 127.54063 43.11875Q127.8375 42.415627 127.8375 41.0875L127.8375 35.525L129.5875 35.525L129.5875 45.9L128.00937 45.9ZM131.22812 33.603127L131.22812 31.587502L132.99374 31.587502L132.99374 33.603127L131.22812 33.603127ZM131.22812 45.9L131.22812 35.525L132.99374 35.525L132.99374 45.9L131.22812 45.9ZM139.05624 44.321877L139.30624 45.884377Q138.57187 46.040627 137.97812 46.040627Q137.025 46.040627 136.49374 45.74375Q135.97812 45.43125 135.75937 44.946877Q135.54062 44.446877 135.54062 42.86875L135.54062 36.9L134.25937 36.9L134.25937 35.525L135.54062 35.525L135.54062 32.9625L137.29062 31.900002L137.29062 35.525L139.05624 35.525L139.05624 36.9L137.29062 36.9L137.29062 42.9625Q137.29062 43.7125 137.38437 43.93125Q137.47812 44.134377 137.68124 44.275Q137.9 44.4 138.29062 44.4Q138.57187 44.4 139.05624 44.321877ZM157.66562 40.884377L159.55624 41.353127Q158.9625 43.696877 157.41562 44.93125Q155.86874 46.15 153.61874 46.15Q151.30624 46.15 149.85312 45.2125Q148.41562 44.259377 147.65 42.478127Q146.9 40.68125 146.9 38.634377Q146.9 36.4 147.74374 34.74375Q148.60312 33.071877 150.18124 32.2125Q151.75937 31.337502 153.65 31.337502Q155.80624 31.337502 157.25937 32.43125Q158.72812 33.525 159.30624 35.509377L157.44687 35.946877Q156.94687 34.384377 155.99374 33.68125Q155.05624 32.9625 153.61874 32.9625Q151.9625 32.9625 150.85312 33.759377Q149.74374 34.540627 149.29062 35.884377Q148.85312 37.2125 148.85312 38.61875Q148.85312 40.446877 149.38437 41.821877Q149.91562 43.18125 151.04062 43.853127Q152.16562 44.525 153.4625 44.525Q155.05624 44.525 156.16562 43.603127Q157.275 42.68125 157.66562 40.884377ZM167.99374 44.61875Q167.00937 45.446877 166.10312 45.790627Q165.19687 46.134377 164.16562 46.134377Q162.4625 46.134377 161.54062 45.30625Q160.61874 44.4625 160.61874 43.165627Q160.61874 42.4 160.9625 41.775Q161.32187 41.15 161.88437 40.775Q162.44687 40.384377 163.15 40.18125Q163.66562 40.05625 164.7125 39.915627Q166.8375 39.665627 167.8375 39.321877Q167.85312 38.9625 167.85312 38.853127Q167.85312 37.790627 167.35312 37.3375Q166.68124 36.74375 165.35312 36.74375Q164.10312 36.74375 163.50937 37.18125Q162.93124 37.61875 162.65 38.728127L160.93124 38.49375Q161.16562 37.384377 161.69687 36.7125Q162.22812 36.025 163.24374 35.665627Q164.25937 35.290627 165.60312 35.290627Q166.93124 35.290627 167.75937 35.603127Q168.5875 35.915627 168.97812 36.4Q169.36874 36.86875 169.525 37.5875Q169.61874 38.040627 169.61874 39.2125L169.61874 41.55625Q169.61874 44.009377 169.72812 44.665627Q169.8375 45.30625 170.18124 45.9L168.3375 45.9Q168.07187 45.353127 167.99374 44.61875ZM167.8375 40.696877Q166.88437 41.0875 164.9625 41.353127Q163.88437 41.509377 163.43124 41.7125Q162.99374 41.9 162.74374 42.275Q162.49374 42.65 162.49374 43.11875Q162.49374 43.821877 163.025 44.290627Q163.55624 44.759377 164.5875 44.759377Q165.60312 44.759377 166.38437 44.321877Q167.18124 43.86875 167.55624 43.103127Q167.8375 42.49375 167.8375 41.3375L167.8375 40.696877ZM172.22812 45.9L172.22812 31.587502L173.99374 31.587502L173.99374 39.74375L178.15 35.525L180.41562 35.525L176.4625 39.36875L180.82187 45.9L178.65 45.9L175.22812 40.603127L173.99374 41.790627L173.99374 45.9L172.22812 45.9ZM189.32187 42.55625L191.13437 42.790627Q190.7125 44.36875 189.54062 45.259377Q188.38437 46.134377 186.57187 46.134377Q184.30624 46.134377 182.9625 44.74375Q181.63437 43.3375 181.63437 40.80625Q181.63437 38.18125 182.97812 36.74375Q184.32187 35.290627 186.47812 35.290627Q188.55624 35.290627 189.86874 36.7125Q191.19687 38.11875 191.19687 40.696877Q191.19687 40.853127 191.18124 41.165627L183.44687 41.165627Q183.54062 42.86875 184.41562 43.775Q185.29062 44.68125 186.5875 44.68125Q187.55624 44.68125 188.22812 44.18125Q188.91562 43.665627 189.32187 42.55625ZM183.54062 39.7125L189.3375 39.7125Q189.22812 38.415627 188.68124 37.759377Q187.8375 36.74375 186.49374 36.74375Q185.29062 36.74375 184.4625 37.55625Q183.63437 38.353127 183.54062 39.7125Z" fill-rule="nonzero"/></svg>