<svg version="1.1" viewBox="0.0 0.0 744.0 567.0" fill="none" stroke="none" stroke-linecap="square" stroke-miterlimit="10" width="744" height="567" xmlns:xlink="http://www.w3.org/1999/xlink" xmlns="http://www.w3.org/2000/svg"><path fill="#ffffff" d="M0 0L744.0 0L744.0 567.0L0 567.0L0 0Z" fill-rule="nonzero"/><path fill="#ffffff" d="M28.35 71.25L715.64996 71.25L715.64996 538.65L28.35 538.65L28.35 71.25Z" fill-rule="nonzero"/><path stroke="#cccccc" stroke-width="1.0" stroke-linecap="butt" d="M372.0 305.0C372.0 305.0 372.0 305.0 372.0 305.0C372.0 305.0 372.0 305.0 372.0 305.0C372.0 305.0 372.0 305.0 372.0 305.0C372.0 305.0 372.0 305.0 372.0 305.0" fill-rule="nonzero"/><path fill="#000000" d="M360.0625 297.04688L360.0625 298.35938Q360.0625 299.40625 359.875 300.125Q359.6875 300.84375 359.32812 301.28125Q358.98438 301.71875 358.48438 301.92188Q358.0 302.125 357.375 302.125Q356.89062 302.125 356.46875 302.0Q356.04688 301.875 355.71875 301.60938Q355.39062 301.32812 355.15625 300.89062Q354.92188 300.45312 354.79688 299.82812Q354.67188 299.1875 354.67188 298.35938L354.67188 297.04688Q354.67188 296.0 354.85938 295.29688Q355.0625 294.59375 355.40625 294.15625Q355.76562 293.71875 356.25 293.53125Q356.75 293.34375 357.35938 293.34375Q357.85938 293.34375 358.28125 293.46875Q358.70312 293.59375 359.03125 293.85938Q359.35938 294.10938 359.57812 294.54688Q359.8125 294.96875 359.9375 295.59375Q360.0625 296.21875 360.0625 297.04688ZM358.96875 298.53125L358.96875 296.875Q358.96875 296.29688 358.90625 295.85938Q358.84375 295.42188 358.70312 295.10938Q358.57812 294.79688 358.375 294.60938Q358.1875 294.42188 357.9375 294.32812Q357.6875 294.23438 357.35938 294.23438Q356.98438 294.23438 356.67188 294.375Q356.375 294.51562 356.17188 294.82812Q355.96875 295.14062 355.85938 295.65625Q355.76562 296.15625 355.76562 296.875L355.76562 298.53125Q355.76562 299.10938 355.82812 299.54688Q355.90625 299.98438 356.03125 300.3125Q356.17188 300.625 356.35938 300.82812Q356.5625 301.03125 356.8125 301.125Q357.0625 301.21875 357.375 301.21875Q357.78125 301.21875 358.07812 301.07812Q358.375 300.92188 358.57812 300.59375Q358.78125 300.26562 358.875 299.76562Q358.96875 299.25 358.96875 298.53125ZM362.8125 300.70312L362.8125 301.57812Q362.8125 302.125 362.53125 302.71875Q362.26562 303.3125 361.78125 303.70312L361.17188 303.28125Q361.35938 303.01562 361.48438 302.75Q361.60938 302.48438 361.67188 302.20312Q361.75 301.92188 361.75 301.59375L361.75 300.70312L362.8125 300.70312ZM369.0625 297.04688L369.0625 298.35938Q369.0625 299.40625 368.875 300.125Q368.6875 300.84375 368.32812 301.28125Q367.98438 301.71875 367.48438 301.92188Q367.0 302.125 366.375 302.125Q365.89062 302.125 365.46875 302.0Q365.04688 301.875 364.71875 301.60938Q364.39062 301.32812 364.15625 300.89062Q363.92188 300.45312 363.79688 299.82812Q363.67188 299.1875 363.67188 298.35938L363.67188 297.04688Q363.67188 296.0 363.85938 295.29688Q364.0625 294.59375 364.40625 294.15625Q364.76562 293.71875 365.25 293.53125Q365.75 293.34375 366.35938 293.34375Q366.85938 293.34375 367.28125 293.46875Q367.70312 293.59375 368.03125 293.85938Q368.35938 294.10938 368.57812 294.54688Q368.8125 294.96875 368.9375 295.59375Q369.0625 296.21875 369.0625 297.04688ZM367.96875 298.53125L367.96875 296.875Q367.96875 296.29688 367.90625 295.85938Q367.84375 295.42188 367.70312 295.10938Q367.57812 294.79688 367.375 294.60938Q367.1875 294.42188 366.9375 294.32812Q366.6875 294.23438 366.35938 294.23438Q365.98438 294.23438 365.67188 294.375Q365.375 294.51562 365.17188 294.82812Q364.96875 295.14062 364.85938 295.65625Q364.76562 296.15625 364.76562 296.875L364.76562 298.53125Q364.76562 299.10938 364.82812 299.54688Q364.90625 299.98438 365.03125 300.3125Q365.17188 300.625 365.35938 300.82812Q365.5625 301.03125 365.8125 301.125Q366.0625 301.21875 366.375 301.21875Q366.78125 301.21875 367.07812 301.07812Q367.375 300.92188 367.57812 300.59375Q367.78125 300.26562 367.875 299.76562Q367.96875 299.25 367.96875 298.53125Z" fill-rule="nonzero"/><path stroke="#cccccc" stroke-width="1.0" stroke-linecap="butt" d="M422.425 305.0C422.425 277.15103 399.84897 254.575 372.0 254.575C344.15103 254.575 321.575 277.15103 321.575 305.0C321.575 332.84897 344.15103 355.425 372.0 355.425C399.84897 355.425 422.425 332.84897 422.425 305.0" fill-rule="nonzero"/><path fill="#000000" d="M360.0625 246.62187L360.0625 247.93437Q360.0625 248.98125 359.875 249.7Q359.6875 250.41875 359.32812 250.85625Q358.98438 251.29375 358.48438 251.49687Q358.0 251.7 357.375 251.7Q356.89062 251.7 356.46875 251.575Q356.04688 251.45 355.71875 251.18437Q355.39062 250.90312 355.15625 250.46562Q354.92188 250.02812 354.79688 249.40312Q354.67188 248.7625 354.67188 247.93437L354.67188 246.62187Q354.67188 245.575 354.85938 244.87187Q355.0625 244.16875 355.40625 243.73125Q355.76562 243.29375 356.25 243.10625Q356.75 242.91875 357.35938 242.91875Q357.85938 242.91875 358.28125 243.04375Q358.70312 243.16875 359.03125 243.43437Q359.35938 243.68437 359.57812 244.12187Q359.8125 244.54375 359.9375 245.16875Q360.0625 245.79375 360.0625 246.62187ZM358.96875 248.10625L358.96875 246.45Q358.96875 245.87187 358.90625 245.43437Q358.84375 244.99687 358.70312 244.68437Q358.57812 244.37187 358.375 244.18437Q358.1875 243.99687 357.9375 243.90312Q357.6875 243.80937 357.35938 243.80937Q356.98438 243.80937 356.67188 243.95Q356.375 244.09062 356.17188 244.40312Q355.96875 244.71562 355.85938 245.23125Q355.76562 245.73125 355.76562 246.45L355.76562 248.10625Q355.76562 248.68437 355.82812 249.12187Q355.90625 249.55937 356.03125 249.8875Q356.17188 250.2 356.35938 250.40312Q356.5625 250.60625 356.8125 250.7Q357.0625 250.79375 357.375 250.79375Q357.78125 250.79375 358.07812 250.65312Q358.375 250.49687 358.57812 250.16875Q358.78125 249.84062 358.875 249.34062Q358.96875 248.825 358.96875 248.10625ZM362.8125 250.27812L362.8125 251.15312Q362.8125 251.7 362.53125 252.29375Q362.26562 252.8875 361.78125 253.27812L361.17188 252.85625Q361.35938 252.59062 361.48438 252.325Q361.60938 252.05937 361.67188 251.77812Q361.75 251.49687 361.75 251.16875L361.75 250.27812L362.8125 250.27812ZM367.26562 242.99687L367.26562 251.575L366.1875 251.575L366.1875 244.35625L364.0 245.15312L364.0 244.16875L367.10938 242.99687L367.26562 242.99687Z" fill-rule="nonzero"/><path stroke="#cccccc" stroke-width="1.0" stroke-linecap="butt" d="M472.85 305.0C472.85 249.30208 427.6979 204.15 372.0 204.15C316.3021 204.15 271.15 249.30208 271.15 305.0C271.15 360.6979 316.3021 405.85 372.0 405.85C427.6979 405.85 472.85 360.6979 472.85 305.0" fill-rule="nonzero"/><path fill="#000000" d="M360.0625 196.19687L360.0625 197.50937Q360.0625 198.55624 359.875 199.275Q359.6875 199.99374 359.32812 200.43124Q358.98438 200.86874 358.48438 201.07187Q358.0 201.275 357.375 201.275Q356.89062 201.275 356.46875 201.15Q356.04688 201.025 355.71875 200.75937Q355.39062 200.47812 355.15625 200.04062Q354.92188 199.60312 354.79688 198.97812Q354.67188 198.3375 354.67188 197.50937L354.67188 196.19687Q354.67188 195.15 354.85938 194.44687Q355.0625 193.74374 355.40625 193.30624Q355.76562 192.86874 356.25 192.68124Q356.75 192.49374 357.35938 192.49374Q357.85938 192.49374 358.28125 192.61874Q358.70312 192.74374 359.03125 193.00937Q359.35938 193.25937 359.57812 193.69687Q359.8125 194.11874 359.9375 194.74374Q360.0625 195.36874 360.0625 196.19687ZM358.96875 197.68124L358.96875 196.025Q358.96875 195.44687 358.90625 195.00937Q358.84375 194.57187 358.70312 194.25937Q358.57812 193.94687 358.375 193.75937Q358.1875 193.57187 357.9375 193.47812Q357.6875 193.38437 357.35938 193.38437Q356.98438 193.38437 356.67188 193.525Q356.375 193.66562 356.17188 193.97812Q355.96875 194.29062 355.85938 194.80624Q355.76562 195.30624 355.76562 196.025L355.76562 197.68124Q355.76562 198.25937 355.82812 198.69687Q355.90625 199.13437 356.03125 199.4625Q356.17188 199.775 356.35938 199.97812Q356.5625 200.18124 356.8125 200.275Q357.0625 200.36874 357.375 200.36874Q357.78125 200.36874 358.07812 200.22812Q358.375 200.07187 358.57812 199.74374Q358.78125 199.41562 358.875 198.91562Q358.96875 198.4 358.96875 197.68124ZM362.8125 199.85312L362.8125 200.72812Q362.8125 201.275 362.53125 201.86874Q362.26562 202.4625 361.78125 202.85312L361.17188 202.43124Q361.35938 202.16562 361.48438 201.9Q361.60938 201.63437 361.67188 201.35312Q361.75 201.07187 361.75 200.74374L361.75 199.85312L362.8125 199.85312ZM369.29688 200.25937L369.29688 201.15L363.71875 201.15L363.71875 200.36874L366.51562 197.25937Q367.03125 196.68124 367.3125 196.29062Q367.59375 195.88437 367.70312 195.57187Q367.82812 195.24374 367.82812 194.91562Q367.82812 194.49374 367.65625 194.15Q367.48438 193.80624 367.14062 193.60312Q366.8125 193.38437 366.32812 193.38437Q365.76562 193.38437 365.39062 193.61874Q365.01562 193.8375 364.82812 194.22812Q364.64062 194.61874 364.64062 195.11874L363.54688 195.11874Q363.54688 194.4 363.85938 193.80624Q364.1875 193.2125 364.79688 192.85312Q365.42188 192.49374 366.32812 192.49374Q367.14062 192.49374 367.71875 192.79062Q368.29688 193.07187 368.59375 193.5875Q368.90625 194.0875 368.90625 194.775Q368.90625 195.15 368.78125 195.54062Q368.65625 195.91562 368.4375 196.30624Q368.21875 196.68124 367.92188 197.05624Q367.64062 197.41562 367.3125 197.775L365.01562 200.25937L369.29688 200.25937Z" fill-rule="nonzero"/><path stroke="#cccccc" stroke-width="1.0" stroke-linecap="butt" d="M523.275 305.0C523.275 221.45312 455.54688 153.725 372.0 153.725C288.45312 153.725 220.725 221.45312 220.725 305.0C220.725 388.54688 288.45312 456.275 372.0 456.275C455.54688 456.275 523.275 388.54688 523.275 305.0" fill-rule="nonzero"/><path fill="#000000" d="M360.0625 145.77188L360.0625 147.08438Q360.0625 148.13126 359.875 148.85Q359.6875 149.56876 359.32812 150.00626Q358.98438 150.44376 358.48438 150.64688Q358.0 150.85 357.375 150.85Q356.89062 150.85 356.46875 150.725Q356.04688 150.6 355.71875 150.33438Q355.39062 150.05313 355.15625 149.61563Q354.92188 149.17813 354.79688 148.55313Q354.67188 147.9125 354.67188 147.08438L354.67188 145.77188Q354.67188 144.725 354.85938 144.02188Q355.0625 143.31876 355.40625 142.88126Q355.76562 142.44376 356.25 142.25626Q356.75 142.06876 357.35938 142.06876Q357.85938 142.06876 358.28125 142.19376Q358.70312 142.31876 359.03125 142.58438Q359.35938 142.83438 359.57812 143.27188Q359.8125 143.69376 359.9375 144.31876Q360.0625 144.94376 360.0625 145.77188ZM358.96875 147.25626L358.96875 145.6Q358.96875 145.02188 358.90625 144.58438Q358.84375 144.14688 358.70312 143.83438Q358.57812 143.52188 358.375 143.33438Q358.1875 143.14688 357.9375 143.05313Q357.6875 142.95938 357.35938 142.95938Q356.98438 142.95938 356.67188 143.1Q356.375 143.24063 356.17188 143.55313Q355.96875 143.86563 355.85938 144.38126Q355.76562 144.88126 355.76562 145.6L355.76562 147.25626Q355.76562 147.83438 355.82812 148.27188Q355.90625 148.70938 356.03125 149.0375Q356.17188 149.35 356.35938 149.55313Q356.5625 149.75626 356.8125 149.85Q357.0625 149.94376 357.375 149.94376Q357.78125 149.94376 358.07812 149.80313Q358.375 149.64688 358.57812 149.31876Q358.78125 148.99063 358.875 148.49063Q358.96875 147.975 358.96875 147.25626ZM362.8125 149.42813L362.8125 150.30313Q362.8125 150.85 362.53125 151.44376Q362.26562 152.0375 361.78125 152.42813L361.17188 152.00626Q361.35938 151.74063 361.48438 151.475Q361.60938 151.20938 361.67188 150.92813Q361.75 150.64688 361.75 150.31876L361.75 149.42813L362.8125 149.42813ZM365.29688 145.92813L366.0625 145.92813Q366.64062 145.92813 367.0 145.74063Q367.375 145.5375 367.5625 145.20938Q367.75 144.88126 367.75 144.45938Q367.75 143.975 367.57812 143.64688Q367.42188 143.30313 367.09375 143.13126Q366.76562 142.95938 366.26562 142.95938Q365.79688 142.95938 365.45312 143.14688Q365.10938 143.31876 364.90625 143.64688Q364.71875 143.975 364.71875 144.42813L363.625 144.42813Q363.625 143.77188 363.95312 143.24063Q364.28125 142.70938 364.875 142.39688Q365.46875 142.06876 366.26562 142.06876Q367.03125 142.06876 367.60938 142.35Q368.1875 142.61563 368.51562 143.1625Q368.84375 143.69376 368.84375 144.49063Q368.84375 144.81876 368.6875 145.17813Q368.53125 145.5375 368.21875 145.86563Q367.90625 146.17813 367.40625 146.38126Q366.92188 146.58438 366.21875 146.58438L365.29688 146.58438L365.29688 145.92813ZM365.29688 146.81876L365.29688 146.1625L366.21875 146.1625Q367.03125 146.1625 367.5625 146.36563Q368.09375 146.55313 368.40625 146.88126Q368.71875 147.19376 368.84375 147.58438Q368.96875 147.95938 368.96875 148.35Q368.96875 148.94376 368.76562 149.4125Q368.5625 149.86563 368.1875 150.19376Q367.82812 150.50626 367.32812 150.67813Q366.84375 150.85 366.26562 150.85Q365.70312 150.85 365.21875 150.69376Q364.73438 150.52188 364.35938 150.225Q363.98438 149.92813 363.76562 149.49063Q363.5625 149.0375 363.5625 148.475L364.64062 148.475Q364.64062 148.9125 364.82812 149.25626Q365.03125 149.58438 365.39062 149.77188Q365.76562 149.94376 366.26562 149.94376Q366.76562 149.94376 367.125 149.77188Q367.48438 149.6 367.67188 149.25626Q367.875 148.89688 367.875 148.36563Q367.875 147.83438 367.65625 147.49063Q367.4375 147.14688 367.01562 146.99063Q366.60938 146.81876 366.0625 146.81876L365.29688 146.81876Z" fill-rule="nonzero"/><path stroke="#cccccc" stroke-width="1.0" stroke-linecap="butt" d="M573.7 305.0C573.7 193.60417 483.39584 103.3 372.0 103.3C260.60416 103.3 170.3 193.60417 170.3 305.0C170.3 416.39584 260.60416 506.7 372.0 506.7C483.39584 506.7 573.7 416.39584 573.7 305.0" fill-rule="nonzero"/><path fill="#000000" d="M360.0625 95.34688L360.0625 96.65938Q360.0625 97.70625 359.875 98.425Q359.6875 99.14375 359.32812 99.58125Q358.98438 100.01875 358.48438 100.22188Q358.0 100.425 357.375 100.425Q356.89062 100.425 356.46875 100.3Q356.04688 100.175 355.71875 99.90938Q355.39062 99.62813 355.15625 99.19063Q354.92188 98.75313 354.79688 98.12813Q354.67188 97.4875 354.67188 96.65938L354.67188 95.34688Q354.67188 94.3 354.85938 93.59688Q355.0625 92.89375 355.40625 92.45625Q355.76562 92.01875 356.25 91.83125Q356.75 91.64375 357.35938 91.64375Q357.85938 91.64375 358.28125 91.76875Q358.70312 91.89375 359.03125 92.15938Q359.35938 92.40938 359.57812 92.84688Q359.8125 93.26875 359.9375 93.89375Q360.0625 94.51875 360.0625 95.34688ZM358.96875 96.83125L358.96875 95.175Q358.96875 94.59688 358.90625 94.15938Q358.84375 93.72188 358.70312 93.40938Q358.57812 93.09688 358.375 92.90938Q358.1875 92.72188 357.9375 92.62813Q357.6875 92.53438 357.35938 92.53438Q356.98438 92.53438 356.67188 92.675Q356.375 92.81563 356.17188 93.12813Q355.96875 93.44063 355.85938 93.95625Q355.76562 94.45625 355.76562 95.175L355.76562 96.83125Q355.76562 97.40938 355.82812 97.84688Q355.90625 98.28438 356.03125 98.6125Q356.17188 98.925 356.35938 99.12813Q356.5625 99.33125 356.8125 99.425Q357.0625 99.51875 357.375 99.51875Q357.78125 99.51875 358.07812 99.37813Q358.375 99.22188 358.57812 98.89375Q358.78125 98.56563 358.875 98.06563Q358.96875 97.55 358.96875 96.83125ZM362.8125 99.00313L362.8125 99.87813Q362.8125 100.425 362.53125 101.01875Q362.26562 101.6125 361.78125 102.00313L361.17188 101.58125Q361.35938 101.31563 361.48438 101.05Q361.60938 100.78438 361.67188 100.50313Q361.75 100.22188 361.75 99.89375L361.75 99.00313L362.8125 99.00313ZM369.46875 97.425L369.46875 98.31563L363.3125 98.31563L363.3125 97.675L367.125 91.76875L368.01562 91.76875L367.0625 93.47188L364.54688 97.425L369.46875 97.425ZM368.28125 91.76875L368.28125 100.3L367.20312 100.3L367.20312 91.76875L368.28125 91.76875Z" fill-rule="nonzero"/><path stroke="#cccccc" stroke-width="1.0" stroke-linecap="butt" d="M372.0 305.0L372.0 103.0" fill-rule="nonzero"/><path fill="#000000" d="M353.84375 52.96875L354.9375 52.96875L357.73438 59.921875L360.53125 52.96875L361.625 52.96875L358.15625 61.5L357.3125 61.5L353.84375 52.96875ZM353.48438 52.96875L354.45312 52.96875L354.60938 58.171875L354.60938 61.5L353.48438 61.5L353.48438 52.96875ZM361.01562 52.96875L361.98438 52.96875L361.98438 61.5L360.85938 61.5L360.85938 58.171875L361.01562 52.96875ZM365.10938 60.84375L366.875 55.15625L368.03125 55.15625L365.48438 62.484375Q365.40625 62.71875 365.25 62.984375Q365.10938 63.265625 364.89062 63.5Q364.67188 63.75 364.35938 63.90625Q364.04688 64.0625 363.60938 64.0625Q363.48438 64.0625 363.28125 64.015625Q363.07812 63.984375 363.0 63.96875L363.0 63.09375Q363.04688 63.09375 363.14062 63.09375Q363.25 63.109375 363.28125 63.109375Q363.65625 63.109375 363.90625 63.015625Q364.17188 62.921875 364.34375 62.6875Q364.53125 62.46875 364.65625 62.078125L365.10938 60.84375ZM363.8125 55.15625L365.45312 60.078125L365.73438 61.21875L364.96875 61.625L362.625 55.15625L363.8125 55.15625ZM370.40625 56.15625L370.40625 61.5L369.32812 61.5L369.32812 55.15625L370.375 55.15625L370.40625 56.15625ZM372.39062 55.125L372.39062 56.125Q372.25 56.109375 372.125 56.09375Q372.01562 56.078125 371.85938 56.078125Q371.48438 56.078125 371.1875 56.203125Q370.90625 56.3125 370.70312 56.53125Q370.51562 56.734375 370.39062 57.03125Q370.28125 57.328125 370.25 57.671875L369.9375 57.84375Q369.9375 57.265625 370.04688 56.765625Q370.17188 56.265625 370.40625 55.875Q370.65625 55.484375 371.01562 55.265625Q371.39062 55.046875 371.90625 55.046875Q372.03125 55.046875 372.17188 55.078125Q372.32812 55.09375 372.39062 55.125ZM375.85938 60.71875Q376.25 60.71875 376.57812 60.5625Q376.90625 60.40625 377.10938 60.140625Q377.32812 59.859375 377.35938 59.5L378.39062 59.5Q378.35938 60.0625 378.0 60.546875Q377.65625 61.03125 377.09375 61.328125Q376.53125 61.625 375.85938 61.625Q375.15625 61.625 374.625 61.375Q374.09375 61.109375 373.73438 60.671875Q373.39062 60.234375 373.21875 59.671875Q373.04688 59.09375 373.04688 58.453125L373.04688 58.203125Q373.04688 57.5625 373.21875 57.0Q373.39062 56.421875 373.73438 55.984375Q374.09375 55.546875 374.625 55.296875Q375.15625 55.046875 375.85938 55.046875Q376.60938 55.046875 377.15625 55.34375Q377.71875 55.640625 378.03125 56.171875Q378.35938 56.6875 378.39062 57.34375L377.35938 57.34375Q377.32812 56.953125 377.14062 56.640625Q376.95312 56.3125 376.625 56.125Q376.29688 55.9375 375.85938 55.9375Q375.35938 55.9375 375.01562 56.140625Q374.6875 56.328125 374.48438 56.65625Q374.29688 56.984375 374.20312 57.390625Q374.125 57.796875 374.125 58.203125L374.125 58.453125Q374.125 58.875 374.20312 59.28125Q374.29688 59.671875 374.48438 60.0Q374.6875 60.328125 375.01562 60.53125Q375.35938 60.71875 375.85938 60.71875ZM381.95312 61.625Q381.29688 61.625 380.75 61.40625Q380.21875 61.171875 379.82812 60.765625Q379.45312 60.34375 379.25 59.78125Q379.04688 59.21875 379.04688 58.546875L379.04688 58.3125Q379.04688 57.53125 379.26562 56.921875Q379.5 56.3125 379.89062 55.890625Q380.28125 55.46875 380.78125 55.265625Q381.28125 55.046875 381.8125 55.046875Q382.5 55.046875 382.98438 55.28125Q383.48438 55.515625 383.79688 55.9375Q384.125 56.34375 384.26562 56.921875Q384.42188 57.484375 384.42188 58.140625L384.42188 58.640625L379.6875 58.640625L379.6875 57.75L383.34375 57.75L383.34375 57.671875Q383.3125 57.25 383.15625 56.859375Q383.01562 56.453125 382.6875 56.203125Q382.375 55.9375 381.8125 55.9375Q381.45312 55.9375 381.14062 56.09375Q380.82812 56.25 380.59375 56.5625Q380.375 56.859375 380.25 57.296875Q380.14062 57.734375 380.14062 58.3125L380.14062 58.546875Q380.14062 59.0 380.26562 59.40625Q380.39062 59.796875 380.625 60.09375Q380.875 60.390625 381.21875 60.5625Q381.57812 60.734375 382.01562 60.734375Q382.59375 60.734375 382.98438 60.5Q383.39062 60.265625 383.6875 59.875L384.34375 60.390625Q384.14062 60.703125 383.8125 60.984375Q383.5 61.265625 383.03125 61.453125Q382.57812 61.625 381.95312 61.625ZM386.40625 56.515625L386.40625 61.5L385.32812 61.5L385.32812 55.15625L386.35938 55.15625L386.40625 56.515625ZM386.15625 58.09375L385.70312 58.078125Q385.70312 57.421875 385.89062 56.875Q386.07812 56.3125 386.42188 55.90625Q386.76562 55.5 387.23438 55.28125Q387.70312 55.046875 388.28125 55.046875Q388.75 55.046875 389.125 55.171875Q389.5 55.296875 389.76562 55.578125Q390.03125 55.84375 390.17188 56.28125Q390.3125 56.71875 390.3125 57.34375L390.3125 61.5L389.21875 61.5L389.21875 57.328125Q389.21875 56.828125 389.07812 56.53125Q388.9375 56.234375 388.65625 56.09375Q388.375 55.953125 387.95312 55.953125Q387.54688 55.953125 387.21875 56.125Q386.89062 56.296875 386.65625 56.59375Q386.42188 56.890625 386.28125 57.28125Q386.15625 57.65625 386.15625 58.09375Z" fill-rule="nonzero"/><path stroke="#cccccc" stroke-width="1.0" stroke-linecap="butt" d="M372.0 305.0L547.0 204.0" fill-rule="nonzero"/><path fill="#000000" d="M573.0625 180.96875L573.0625 181.5Q573.0625 182.46875 572.8125 183.23438Q572.5781 183.98438 572.125 184.51562Q571.6719 185.04688 571.0469 185.34375Q570.4219 185.625 569.6406 185.625Q568.875 185.625 568.25 185.34375Q567.625 185.04688 567.15625 184.51562Q566.7031 183.98438 566.4531 183.23438Q566.2031 182.46875 566.2031 181.5L566.2031 180.96875Q566.2031 180.0 566.4531 179.25Q566.7031 178.48438 567.15625 177.95312Q567.6094 177.40625 568.2344 177.125Q568.875 176.84375 569.625 176.84375Q570.40625 176.84375 571.03125 177.125Q571.6719 177.40625 572.125 177.95312Q572.5781 178.48438 572.8125 179.25Q573.0625 180.0 573.0625 180.96875ZM571.9375 181.5L571.9375 180.95312Q571.9375 180.1875 571.78125 179.60938Q571.625 179.01562 571.3281 178.625Q571.03125 178.21875 570.59375 178.01562Q570.1719 177.8125 569.625 177.8125Q569.09375 177.8125 568.6719 178.01562Q568.25 178.21875 567.9375 178.625Q567.6406 179.01562 567.46875 179.60938Q567.3125 180.1875 567.3125 180.95312L567.3125 181.5Q567.3125 182.26562 567.46875 182.85938Q567.6406 183.45312 567.9531 183.85938Q568.2656 184.25 568.6875 184.45312Q569.1094 184.65625 569.6406 184.65625Q570.1875 184.65625 570.6094 184.45312Q571.0469 184.25 571.34375 183.85938Q571.6406 183.45312 571.78125 182.85938Q571.9375 182.26562 571.9375 181.5ZM576.8594 184.71875Q577.25 184.71875 577.5781 184.5625Q577.90625 184.40625 578.1094 184.14062Q578.3281 183.85938 578.3594 183.5L579.3906 183.5Q579.3594 184.0625 579.0 184.54688Q578.65625 185.03125 578.09375 185.32812Q577.53125 185.625 576.8594 185.625Q576.15625 185.625 575.625 185.375Q575.09375 185.10938 574.7344 184.67188Q574.3906 184.23438 574.21875 183.67188Q574.0469 183.09375 574.0469 182.45312L574.0469 182.20312Q574.0469 181.5625 574.21875 181.0Q574.3906 180.42188 574.7344 179.98438Q575.09375 179.54688 575.625 179.29688Q576.15625 179.04688 576.8594 179.04688Q577.6094 179.04688 578.15625 179.34375Q578.71875 179.64062 579.03125 180.17188Q579.3594 180.6875 579.3906 181.34375L578.3594 181.34375Q578.3281 180.95312 578.1406 180.64062Q577.9531 180.3125 577.625 180.125Q577.2969 179.9375 576.8594 179.9375Q576.3594 179.9375 576.0156 180.14062Q575.6875 180.32812 575.4844 180.65625Q575.2969 180.98438 575.2031 181.39062Q575.125 181.79688 575.125 182.20312L575.125 182.45312Q575.125 182.875 575.2031 183.28125Q575.2969 183.67188 575.4844 184.0Q575.6875 184.32812 576.0156 184.53125Q576.3594 184.71875 576.8594 184.71875ZM581.5 179.15625L581.5 185.5L580.4219 185.5L580.4219 179.15625L581.5 179.15625ZM580.3281 177.48438Q580.3281 177.21875 580.4844 177.03125Q580.65625 176.84375 580.96875 176.84375Q581.28125 176.84375 581.4375 177.03125Q581.6094 177.21875 581.6094 177.48438Q581.6094 177.73438 581.4375 177.92188Q581.28125 178.09375 580.96875 178.09375Q580.65625 178.09375 580.4844 177.92188Q580.3281 177.73438 580.3281 177.48438ZM584.40625 180.42188L584.40625 185.5L583.3125 185.5L583.3125 179.15625L584.34375 179.15625L584.40625 180.42188ZM584.1875 182.09375L583.6719 182.07812Q583.6875 181.42188 583.84375 180.875Q584.0156 180.3125 584.3281 179.90625Q584.65625 179.5 585.1406 179.28125Q585.625 179.04688 586.25 179.04688Q586.7031 179.04688 587.0781 179.17188Q587.4531 179.29688 587.71875 179.5625Q588.0 179.82812 588.1406 180.25Q588.2969 180.67188 588.2969 181.28125L588.2969 185.5L587.21875 185.5L587.21875 181.32812Q587.21875 180.82812 587.0469 180.53125Q586.8906 180.23438 586.5781 180.09375Q586.28125 179.95312 585.8594 179.95312Q585.3906 179.95312 585.0625 180.125Q584.7344 180.29688 584.5469 180.59375Q584.3594 180.89062 584.2656 181.28125Q584.1875 181.65625 584.1875 182.09375ZM588.2969 181.48438L587.5625 181.71875Q587.5625 181.1875 587.7344 180.71875Q587.90625 180.23438 588.21875 179.85938Q588.5469 179.48438 589.0156 179.26562Q589.4844 179.04688 590.0781 179.04688Q590.59375 179.04688 590.9844 179.1875Q591.3906 179.3125 591.65625 179.59375Q591.9219 179.875 592.0625 180.3125Q592.2031 180.73438 592.2031 181.32812L592.2031 185.5L591.125 185.5L591.125 181.32812Q591.125 180.78125 590.9531 180.5Q590.78125 180.20312 590.4844 180.07812Q590.1875 179.95312 589.7656 179.95312Q589.40625 179.95312 589.125 180.07812Q588.8594 180.20312 588.6719 180.42188Q588.4844 180.625 588.3906 180.90625Q588.2969 181.1875 588.2969 181.48438ZM596.9531 185.625Q596.2969 185.625 595.75 185.40625Q595.21875 185.17188 594.8281 184.76562Q594.4531 184.34375 594.25 183.78125Q594.0469 183.21875 594.0469 182.54688L594.0469 182.3125Q594.0469 181.53125 594.2656 180.92188Q594.5 180.3125 594.8906 179.89062Q595.28125 179.46875 595.78125 179.26562Q596.28125 179.04688 596.8125 179.04688Q597.5 179.04688 597.9844 179.28125Q598.4844 179.51562 598.7969 179.9375Q599.125 180.34375 599.2656 180.92188Q599.4219 181.48438 599.4219 182.14062L599.4219 182.64062L594.6875 182.64062L594.6875 181.75L598.34375 181.75L598.34375 181.67188Q598.3125 181.25 598.15625 180.85938Q598.0156 180.45312 597.6875 180.20312Q597.375 179.9375 596.8125 179.9375Q596.4531 179.9375 596.1406 180.09375Q595.8281 180.25 595.59375 180.5625Q595.375 180.85938 595.25 181.29688Q595.1406 181.73438 595.1406 182.3125L595.1406 182.54688Q595.1406 183.0 595.2656 183.40625Q595.3906 183.79688 595.625 184.09375Q595.875 184.39062 596.21875 184.5625Q596.5781 184.73438 597.0156 184.73438Q597.59375 184.73438 597.9844 184.5Q598.3906 184.26562 598.6875 183.875L599.34375 184.39062Q599.1406 184.70312 598.8125 184.98438Q598.5 185.26562 598.03125 185.45312Q597.5781 185.625 596.9531 185.625ZM601.40625 180.51562L601.40625 185.5L600.3281 185.5L600.3281 179.15625L601.3594 179.15625L601.40625 180.51562ZM601.15625 182.09375L600.7031 182.07812Q600.7031 181.42188 600.8906 180.875Q601.0781 180.3125 601.4219 179.90625Q601.7656 179.5 602.2344 179.28125Q602.7031 179.04688 603.28125 179.04688Q603.75 179.04688 604.125 179.17188Q604.5 179.29688 604.7656 179.57812Q605.03125 179.84375 605.1719 180.28125Q605.3125 180.71875 605.3125 181.34375L605.3125 185.5L604.21875 185.5L604.21875 181.32812Q604.21875 180.82812 604.0781 180.53125Q603.9375 180.23438 603.65625 180.09375Q603.375 179.95312 602.9531 179.95312Q602.5469 179.95312 602.21875 180.125Q601.8906 180.29688 601.65625 180.59375Q601.4219 180.89062 601.28125 181.28125Q601.15625 181.65625 601.15625 182.09375Z" fill-rule="nonzero"/><path stroke="#cccccc" stroke-width="1.0" stroke-linecap="butt" d="M372.0 305.0L547.0 406.0" fill-rule="nonzero"/><path fill="#000000" d="M570.6719 432.57812L570.6719 433.5L566.40625 433.5L566.40625 432.57812L570.6719 432.57812ZM566.625 424.96875L566.625 433.5L565.4844 433.5L565.4844 424.96875L566.625 424.96875ZM572.5 427.15625L572.5 433.5L571.4219 433.5L571.4219 427.15625L572.5 427.15625ZM571.3281 425.48438Q571.3281 425.21875 571.4844 425.03125Q571.65625 424.84375 571.96875 424.84375Q572.28125 424.84375 572.4375 425.03125Q572.6094 425.21875 572.6094 425.48438Q572.6094 425.73438 572.4375 425.92188Q572.28125 426.09375 571.96875 426.09375Q571.65625 426.09375 571.4844 425.92188Q571.3281 425.73438 571.3281 425.48438ZM575.40625 428.51562L575.40625 433.5L574.3281 433.5L574.3281 427.15625L575.3594 427.15625L575.40625 428.51562ZM575.15625 430.09375L574.7031 430.07812Q574.7031 429.42188 574.8906 428.875Q575.0781 428.3125 575.4219 427.90625Q575.7656 427.5 576.2344 427.28125Q576.7031 427.04688 577.28125 427.04688Q577.75 427.04688 578.125 427.17188Q578.5 427.29688 578.7656 427.57812Q579.03125 427.84375 579.1719 428.28125Q579.3125 428.71875 579.3125 429.34375L579.3125 433.5L578.21875 433.5L578.21875 429.32812Q578.21875 428.82812 578.0781 428.53125Q577.9375 428.23438 577.65625 428.09375Q577.375 427.95312 576.9531 427.95312Q576.5469 427.95312 576.21875 428.125Q575.8906 428.29688 575.65625 428.59375Q575.4219 428.89062 575.28125 429.28125Q575.15625 429.65625 575.15625 430.09375ZM585.0625 432.42188L585.0625 429.15625Q585.0625 428.78125 584.90625 428.5Q584.7656 428.21875 584.46875 428.07812Q584.1719 427.92188 583.7344 427.92188Q583.3125 427.92188 583.0 428.0625Q582.7031 428.20312 582.53125 428.4375Q582.3594 428.65625 582.3594 428.92188L581.28125 428.92188Q581.28125 428.57812 581.4531 428.25Q581.625 427.90625 581.9531 427.64062Q582.28125 427.35938 582.75 427.20312Q583.21875 427.04688 583.7969 427.04688Q584.4844 427.04688 585.0156 427.28125Q585.5469 427.51562 585.84375 427.98438Q586.15625 428.45312 586.15625 429.15625L586.15625 432.10938Q586.15625 432.4375 586.2031 432.79688Q586.2656 433.14062 586.375 433.40625L586.375 433.5L585.2344 433.5Q585.15625 433.3125 585.1094 433.0Q585.0625 432.6875 585.0625 432.42188ZM585.25 429.65625L585.2656 430.42188L584.1719 430.42188Q583.7031 430.42188 583.34375 430.5Q582.9844 430.5625 582.7344 430.71875Q582.4844 430.85938 582.3594 431.07812Q582.2344 431.29688 582.2344 431.59375Q582.2344 431.89062 582.3594 432.14062Q582.5 432.375 582.7656 432.53125Q583.0469 432.67188 583.4375 432.67188Q583.9375 432.67188 584.3125 432.46875Q584.7031 432.25 584.9219 431.95312Q585.15625 431.64062 585.1719 431.34375L585.6406 431.875Q585.59375 432.10938 585.40625 432.42188Q585.2344 432.71875 584.9219 433.0Q584.625 433.26562 584.2031 433.45312Q583.7969 433.625 583.28125 433.625Q582.6406 433.625 582.15625 433.375Q581.6719 433.10938 581.40625 432.6875Q581.1406 432.26562 581.1406 431.73438Q581.1406 431.21875 581.3281 430.84375Q581.53125 430.45312 581.90625 430.1875Q582.28125 429.92188 582.8125 429.79688Q583.34375 429.65625 584.0 429.65625L585.25 429.65625ZM589.5 424.5L589.5 433.5L588.4219 433.5L588.4219 424.5L589.5 424.5ZM591.0469 430.40625L591.0469 430.26562Q591.0469 429.57812 591.2344 429.0Q591.4375 428.40625 591.8125 427.96875Q592.1875 427.53125 592.71875 427.29688Q593.25 427.04688 593.9219 427.04688Q594.5781 427.04688 595.1094 427.29688Q595.65625 427.53125 596.03125 427.96875Q596.40625 428.40625 596.6094 429.0Q596.8125 429.57812 596.8125 430.26562L596.8125 430.40625Q596.8125 431.07812 596.6094 431.67188Q596.40625 432.25 596.03125 432.6875Q595.65625 433.125 595.125 433.375Q594.59375 433.625 593.9219 433.625Q593.2656 433.625 592.71875 433.375Q592.1875 433.125 591.8125 432.6875Q591.4375 432.25 591.2344 431.67188Q591.0469 431.07812 591.0469 430.40625ZM592.125 430.26562L592.125 430.40625Q592.125 430.875 592.2344 431.29688Q592.34375 431.71875 592.5625 432.04688Q592.7969 432.35938 593.1406 432.54688Q593.4844 432.71875 593.9219 432.71875Q594.375 432.71875 594.7031 432.54688Q595.0469 432.35938 595.2656 432.04688Q595.5 431.71875 595.6094 431.29688Q595.71875 430.875 595.71875 430.40625L595.71875 430.26562Q595.71875 429.79688 595.6094 429.375Q595.5 428.95312 595.2656 428.64062Q595.0469 428.3125 594.7031 428.125Q594.375 427.9375 593.9219 427.9375Q593.46875 427.9375 593.125 428.125Q592.7969 428.3125 592.5625 428.64062Q592.34375 428.95312 592.2344 429.375Q592.125 429.79688 592.125 430.26562ZM598.0469 430.40625L598.0469 430.26562Q598.0469 429.57812 598.2344 429.0Q598.4375 428.40625 598.8125 427.96875Q599.1875 427.53125 599.71875 427.29688Q600.25 427.04688 600.9219 427.04688Q601.5781 427.04688 602.1094 427.29688Q602.65625 427.53125 603.03125 427.96875Q603.40625 428.40625 603.6094 429.0Q603.8125 429.57812 603.8125 430.26562L603.8125 430.40625Q603.8125 431.07812 603.6094 431.67188Q603.40625 432.25 603.03125 432.6875Q602.65625 433.125 602.125 433.375Q601.59375 433.625 600.9219 433.625Q600.2656 433.625 599.71875 433.375Q599.1875 433.125 598.8125 432.6875Q598.4375 432.25 598.2344 431.67188Q598.0469 431.07812 598.0469 430.40625ZM599.125 430.26562L599.125 430.40625Q599.125 430.875 599.2344 431.29688Q599.34375 431.71875 599.5625 432.04688Q599.7969 432.35938 600.1406 432.54688Q600.4844 432.71875 600.9219 432.71875Q601.375 432.71875 601.7031 432.54688Q602.0469 432.35938 602.2656 432.04688Q602.5 431.71875 602.6094 431.29688Q602.71875 430.875 602.71875 430.40625L602.71875 430.26562Q602.71875 429.79688 602.6094 429.375Q602.5 428.95312 602.2656 428.64062Q602.0469 428.3125 601.7031 428.125Q601.375 427.9375 600.9219 427.9375Q600.46875 427.9375 600.125 428.125Q599.7969 428.3125 599.5625 428.64062Q599.34375 428.95312 599.2344 429.375Q599.125 429.79688 599.125 430.26562ZM606.5 424.5L606.5 433.5L605.4219 433.5L605.4219 424.5L606.5 424.5Z" fill-rule="nonzero"/><path stroke="#cccccc" stroke-width="1.0" stroke-linecap="butt" d="M372.0 305.0L372.0 507.0" fill-rule="nonzero"/><path fill="#000000" d="M342.64062 554.78125L343.76562 554.78125Q343.67188 555.59375 343.29688 556.2344Q342.92188 556.875 342.23438 557.25Q341.5625 557.625 340.53125 557.625Q339.78125 557.625 339.17188 557.34375Q338.5625 557.0469 338.10938 556.53125Q337.67188 556.0156 337.4375 555.2969Q337.20312 554.5625 337.20312 553.65625L337.20312 552.8125Q337.20312 551.9219 337.4375 551.1875Q337.67188 550.4531 338.125 549.9375Q338.57812 549.40625 339.20312 549.125Q339.84375 548.84375 340.625 548.84375Q341.59375 548.84375 342.26562 549.21875Q342.9375 549.5781 343.29688 550.21875Q343.67188 550.8594 343.76562 551.7031L342.64062 551.7031Q342.5625 551.1094 342.32812 550.6875Q342.10938 550.25 341.70312 550.0156Q341.29688 549.78125 340.625 549.78125Q340.0625 549.78125 339.625 550.0Q339.20312 550.2031 338.90625 550.6094Q338.625 551.0 338.46875 551.5625Q338.32812 552.125 338.32812 552.7969L338.32812 553.65625Q338.32812 554.28125 338.45312 554.84375Q338.59375 555.3906 338.85938 555.8125Q339.125 556.21875 339.54688 556.46875Q339.96875 556.7031 340.53125 556.7031Q341.25 556.7031 341.67188 556.46875Q342.10938 556.2344 342.32812 555.8125Q342.54688 555.3906 342.64062 554.78125ZM349.0625 556.4219L349.0625 553.15625Q349.0625 552.78125 348.90625 552.5Q348.76562 552.21875 348.46875 552.0781Q348.17188 551.9219 347.73438 551.9219Q347.3125 551.9219 347.0 552.0625Q346.70312 552.2031 346.53125 552.4375Q346.35938 552.65625 346.35938 552.9219L345.28125 552.9219Q345.28125 552.5781 345.45312 552.25Q345.625 551.90625 345.95312 551.6406Q346.28125 551.3594 346.75 551.2031Q347.21875 551.0469 347.79688 551.0469Q348.48438 551.0469 349.01562 551.28125Q349.54688 551.5156 349.84375 551.9844Q350.15625 552.4531 350.15625 553.15625L350.15625 556.1094Q350.15625 556.4375 350.20312 556.7969Q350.26562 557.1406 350.375 557.40625L350.375 557.5L349.23438 557.5Q349.15625 557.3125 349.10938 557.0Q349.0625 556.6875 349.0625 556.4219ZM349.25 553.65625L349.26562 554.4219L348.17188 554.4219Q347.70312 554.4219 347.34375 554.5Q346.98438 554.5625 346.73438 554.71875Q346.48438 554.8594 346.35938 555.0781Q346.23438 555.2969 346.23438 555.59375Q346.23438 555.8906 346.35938 556.1406Q346.5 556.375 346.76562 556.53125Q347.04688 556.6719 347.4375 556.6719Q347.9375 556.6719 348.3125 556.46875Q348.70312 556.25 348.92188 555.9531Q349.15625 555.6406 349.17188 555.34375L349.64062 555.875Q349.59375 556.1094 349.40625 556.4219Q349.23438 556.71875 348.92188 557.0Q348.625 557.2656 348.20312 557.4531Q347.79688 557.625 347.28125 557.625Q346.64062 557.625 346.15625 557.375Q345.67188 557.1094 345.40625 556.6875Q345.14062 556.2656 345.14062 555.7344Q345.14062 555.21875 345.32812 554.84375Q345.53125 554.4531 345.90625 554.1875Q346.28125 553.9219 346.8125 553.7969Q347.34375 553.65625 348.0 553.65625L349.25 553.65625ZM353.40625 552.15625L353.40625 557.5L352.32812 557.5L352.32812 551.15625L353.375 551.15625L353.40625 552.15625ZM355.39062 551.125L355.39062 552.125Q355.25 552.1094 355.125 552.09375Q355.01562 552.0781 354.85938 552.0781Q354.48438 552.0781 354.1875 552.2031Q353.90625 552.3125 353.70312 552.53125Q353.51562 552.7344 353.39062 553.03125Q353.28125 553.3281 353.25 553.6719L352.9375 553.84375Q352.9375 553.2656 353.04688 552.7656Q353.17188 552.2656 353.40625 551.875Q353.65625 551.4844 354.01562 551.2656Q354.39062 551.0469 354.90625 551.0469Q355.03125 551.0469 355.17188 551.0781Q355.32812 551.09375 355.39062 551.125ZM358.10938 556.84375L359.875 551.15625L361.03125 551.15625L358.48438 558.4844Q358.40625 558.71875 358.25 558.9844Q358.10938 559.2656 357.89062 559.5Q357.67188 559.75 357.35938 559.90625Q357.04688 560.0625 356.60938 560.0625Q356.48438 560.0625 356.28125 560.0156Q356.07812 559.9844 356.0 559.96875L356.0 559.09375Q356.04688 559.09375 356.14062 559.09375Q356.25 559.1094 356.28125 559.1094Q356.65625 559.1094 356.90625 559.0156Q357.17188 558.9219 357.34375 558.6875Q357.53125 558.46875 357.65625 558.0781L358.10938 556.84375ZM356.8125 551.15625L358.45312 556.0781L358.73438 557.21875L357.96875 557.625L355.625 551.15625L356.8125 551.15625ZM362.04688 554.40625L362.04688 554.2656Q362.04688 553.5781 362.23438 553.0Q362.4375 552.40625 362.8125 551.96875Q363.1875 551.53125 363.71875 551.2969Q364.25 551.0469 364.92188 551.0469Q365.57812 551.0469 366.10938 551.2969Q366.65625 551.53125 367.03125 551.96875Q367.40625 552.40625 367.60938 553.0Q367.8125 553.5781 367.8125 554.2656L367.8125 554.40625Q367.8125 555.0781 367.60938 555.6719Q367.40625 556.25 367.03125 556.6875Q366.65625 557.125 366.125 557.375Q365.59375 557.625 364.92188 557.625Q364.26562 557.625 363.71875 557.375Q363.1875 557.125 362.8125 556.6875Q362.4375 556.25 362.23438 555.6719Q362.04688 555.0781 362.04688 554.40625ZM363.125 554.2656L363.125 554.40625Q363.125 554.875 363.23438 555.2969Q363.34375 555.71875 363.5625 556.0469Q363.79688 556.3594 364.14062 556.5469Q364.48438 556.71875 364.92188 556.71875Q365.375 556.71875 365.70312 556.5469Q366.04688 556.3594 366.26562 556.0469Q366.5 555.71875 366.60938 555.2969Q366.71875 554.875 366.71875 554.40625L366.71875 554.2656Q366.71875 553.7969 366.60938 553.375Q366.5 552.9531 366.26562 552.6406Q366.04688 552.3125 365.70312 552.125Q365.375 551.9375 364.92188 551.9375Q364.46875 551.9375 364.125 552.125Q363.79688 552.3125 363.5625 552.6406Q363.34375 552.9531 363.23438 553.375Q363.125 553.7969 363.125 554.2656ZM370.40625 552.375L370.40625 559.9375L369.32812 559.9375L369.32812 551.15625L370.3125 551.15625L370.40625 552.375ZM374.6875 554.28125L374.6875 554.40625Q374.6875 555.09375 374.51562 555.6875Q374.35938 556.2656 374.04688 556.7031Q373.73438 557.1406 373.26562 557.3906Q372.8125 557.625 372.21875 557.625Q371.625 557.625 371.15625 557.4219Q370.6875 557.21875 370.35938 556.84375Q370.04688 556.4531 369.85938 555.9219Q369.67188 555.3906 369.59375 554.71875L369.59375 554.0625Q369.67188 553.3594 369.85938 552.8125Q370.04688 552.25 370.35938 551.8594Q370.6875 551.4531 371.14062 551.25Q371.60938 551.0469 372.20312 551.0469Q372.79688 551.0469 373.26562 551.28125Q373.73438 551.5 374.04688 551.9375Q374.35938 552.3594 374.51562 552.9531Q374.6875 553.5469 374.6875 554.28125ZM373.59375 554.40625L373.59375 554.28125Q373.59375 553.7969 373.48438 553.3906Q373.39062 552.96875 373.1875 552.65625Q372.98438 552.3281 372.65625 552.1406Q372.32812 551.9531 371.89062 551.9531Q371.48438 551.9531 371.17188 552.09375Q370.875 552.2344 370.65625 552.4844Q370.45312 552.71875 370.3125 553.0156Q370.1875 553.3125 370.125 553.6406L370.125 555.15625Q370.23438 555.5625 370.4375 555.9219Q370.65625 556.28125 371.0 556.5Q371.35938 556.71875 371.90625 556.71875Q372.34375 556.71875 372.65625 556.5469Q372.98438 556.3594 373.1875 556.0469Q373.39062 555.71875 373.48438 555.2969Q373.59375 554.875 373.59375 554.40625ZM377.40625 548.5L377.40625 557.5L376.32812 557.5L376.32812 548.5L377.40625 548.5ZM377.15625 554.09375L376.70312 554.0781Q376.70312 553.4219 376.89062 552.875Q377.07812 552.3125 377.42188 551.90625Q377.76562 551.5 378.23438 551.28125Q378.70312 551.0469 379.28125 551.0469Q379.75 551.0469 380.125 551.1719Q380.5 551.2969 380.76562 551.5781Q381.03125 551.84375 381.17188 552.28125Q381.3125 552.71875 381.3125 553.34375L381.3125 557.5L380.21875 557.5L380.21875 553.3281Q380.21875 552.8281 380.07812 552.53125Q379.9375 552.2344 379.65625 552.09375Q379.375 551.9531 378.95312 551.9531Q378.54688 551.9531 378.21875 552.125Q377.89062 552.2969 377.65625 552.59375Q377.42188 552.8906 377.28125 553.28125Q377.15625 553.65625 377.15625 554.09375ZM385.10938 556.84375L386.875 551.15625L388.03125 551.15625L385.48438 558.4844Q385.40625 558.71875 385.25 558.9844Q385.10938 559.2656 384.89062 559.5Q384.67188 559.75 384.35938 559.90625Q384.04688 560.0625 383.60938 560.0625Q383.48438 560.0625 383.28125 560.0156Q383.07812 559.9844 383.0 559.96875L383.0 559.09375Q383.04688 559.09375 383.14062 559.09375Q383.25 559.1094 383.28125 559.1094Q383.65625 559.1094 383.90625 559.0156Q384.17188 558.9219 384.34375 558.6875Q384.53125 558.46875 384.65625 558.0781L385.10938 556.84375ZM383.8125 551.15625L385.45312 556.0781L385.73438 557.21875L384.96875 557.625L382.625 551.15625L383.8125 551.15625ZM390.5 548.5L390.5 557.5L389.42188 557.5L389.42188 548.5L390.5 548.5ZM393.5 548.5L393.5 557.5L392.42188 557.5L392.42188 548.5L393.5 548.5ZM397.95312 557.625Q397.29688 557.625 396.75 557.40625Q396.21875 557.1719 395.82812 556.7656Q395.45312 556.34375 395.25 555.78125Q395.04688 555.21875 395.04688 554.5469L395.04688 554.3125Q395.04688 553.53125 395.26562 552.9219Q395.5 552.3125 395.89062 551.8906Q396.28125 551.46875 396.78125 551.2656Q397.28125 551.0469 397.8125 551.0469Q398.5 551.0469 398.98438 551.28125Q399.48438 551.5156 399.79688 551.9375Q400.125 552.34375 400.26562 552.9219Q400.42188 553.4844 400.42188 554.1406L400.42188 554.6406L395.6875 554.6406L395.6875 553.75L399.34375 553.75L399.34375 553.6719Q399.3125 553.25 399.15625 552.8594Q399.01562 552.4531 398.6875 552.2031Q398.375 551.9375 397.8125 551.9375Q397.45312 551.9375 397.14062 552.09375Q396.82812 552.25 396.59375 552.5625Q396.375 552.8594 396.25 553.2969Q396.14062 553.7344 396.14062 554.3125L396.14062 554.5469Q396.14062 555.0 396.26562 555.40625Q396.39062 555.7969 396.625 556.09375Q396.875 556.3906 397.21875 556.5625Q397.57812 556.7344 398.01562 556.7344Q398.59375 556.7344 398.98438 556.5Q399.39062 556.2656 399.6875 555.875L400.34375 556.3906Q400.14062 556.7031 399.8125 556.9844Q399.5 557.2656 399.03125 557.4531Q398.57812 557.625 397.95312 557.625ZM402.40625 552.5156L402.40625 557.5L401.32812 557.5L401.32812 551.15625L402.35938 551.15625L402.40625 552.5156ZM402.15625 554.09375L401.70312 554.0781Q401.70312 553.4219 401.89062 552.875Q402.07812 552.3125 402.42188 551.90625Q402.76562 551.5 403.23438 551.28125Q403.70312 551.0469 404.28125 551.0469Q404.75 551.0469 405.125 551.1719Q405.5 551.2969 405.76562 551.5781Q406.03125 551.84375 406.17188 552.28125Q406.3125 552.71875 406.3125 553.34375L406.3125 557.5L405.21875 557.5L405.21875 553.3281Q405.21875 552.8281 405.07812 552.53125Q404.9375 552.2344 404.65625 552.09375Q404.375 551.9531 403.95312 551.9531Q403.54688 551.9531 403.21875 552.125Q402.89062 552.2969 402.65625 552.59375Q402.42188 552.8906 402.28125 553.28125Q402.15625 553.65625 402.15625 554.09375Z" fill-rule="nonzero"/><path stroke="#cccccc" stroke-width="1.0" stroke-linecap="butt" d="M372.0 305.0L197.0 406.0" fill-rule="nonzero"/><path fill="#000000" d="M110.53125 431.34375Q110.53125 431.04688 110.4375 430.8125Q110.359375 430.57812 110.125 430.39062Q109.90625 430.20312 109.5 430.03125Q109.109375 429.85938 108.515625 429.6875Q107.875 429.5 107.359375 429.28125Q106.859375 429.04688 106.484375 428.75Q106.125 428.4375 105.9375 428.0625Q105.75 427.67188 105.75 427.17188Q105.75 426.67188 105.953125 426.25Q106.15625 425.82812 106.53125 425.51562Q106.921875 425.20312 107.453125 425.03125Q107.984375 424.84375 108.640625 424.84375Q109.609375 424.84375 110.28125 425.21875Q110.953125 425.57812 111.296875 426.17188Q111.65625 426.76562 111.65625 427.42188L110.53125 427.42188Q110.53125 426.95312 110.3125 426.57812Q110.109375 426.20312 109.6875 426.0Q109.28125 425.78125 108.640625 425.78125Q108.046875 425.78125 107.640625 425.96875Q107.25 426.14062 107.0625 426.45312Q106.875 426.76562 106.875 427.15625Q106.875 427.42188 106.984375 427.65625Q107.109375 427.875 107.34375 428.0625Q107.59375 428.25 107.96875 428.40625Q108.34375 428.5625 108.875 428.70312Q109.59375 428.90625 110.125 429.17188Q110.65625 429.42188 111.0 429.73438Q111.34375 430.04688 111.5 430.4375Q111.671875 430.82812 111.671875 431.32812Q111.671875 431.85938 111.453125 432.28125Q111.25 432.70312 110.859375 433.0Q110.46875 433.29688 109.921875 433.46875Q109.375 433.625 108.703125 433.625Q108.109375 433.625 107.53125 433.45312Q106.96875 433.28125 106.5 432.95312Q106.03125 432.625 105.75 432.15625Q105.46875 431.67188 105.46875 431.03125L106.59375 431.03125Q106.59375 431.46875 106.765625 431.78125Q106.9375 432.09375 107.234375 432.29688Q107.53125 432.5 107.90625 432.60938Q108.28125 432.70312 108.703125 432.70312Q109.296875 432.70312 109.703125 432.54688Q110.109375 432.375 110.3125 432.07812Q110.53125 431.76562 110.53125 431.34375ZM115.453125 433.625Q114.796875 433.625 114.25 433.40625Q113.71875 433.17188 113.328125 432.76562Q112.953125 432.34375 112.75 431.78125Q112.546875 431.21875 112.546875 430.54688L112.546875 430.3125Q112.546875 429.53125 112.765625 428.92188Q113.0 428.3125 113.390625 427.89062Q113.78125 427.46875 114.28125 427.26562Q114.78125 427.04688 115.3125 427.04688Q116.0 427.04688 116.484375 427.28125Q116.984375 427.51562 117.296875 427.9375Q117.625 428.34375 117.765625 428.92188Q117.921875 429.48438 117.921875 430.14062L117.921875 430.64062L113.1875 430.64062L113.1875 429.75L116.84375 429.75L116.84375 429.67188Q116.8125 429.25 116.65625 428.85938Q116.515625 428.45312 116.1875 428.20312Q115.875 427.9375 115.3125 427.9375Q114.953125 427.9375 114.640625 428.09375Q114.328125 428.25 114.09375 428.5625Q113.875 428.85938 113.75 429.29688Q113.640625 429.73438 113.640625 430.3125L113.640625 430.54688Q113.640625 431.0 113.765625 431.40625Q113.890625 431.79688 114.125 432.09375Q114.375 432.39062 114.71875 432.5625Q115.078125 432.73438 115.515625 432.73438Q116.09375 432.73438 116.484375 432.5Q116.890625 432.26562 117.1875 431.875L117.84375 432.39062Q117.640625 432.70312 117.3125 432.98438Q117.0 433.26562 116.53125 433.45312Q116.078125 433.625 115.453125 433.625ZM120.0 424.5L120.0 433.5L118.921875 433.5L118.921875 424.5L120.0 424.5ZM123.0 427.15625L123.0 433.5L121.921875 433.5L121.921875 427.15625L123.0 427.15625ZM121.828125 425.48438Q121.828125 425.21875 121.984375 425.03125Q122.15625 424.84375 122.46875 424.84375Q122.78125 424.84375 122.9375 425.03125Q123.109375 425.21875 123.109375 425.48438Q123.109375 425.73438 122.9375 425.92188Q122.78125 426.09375 122.46875 426.09375Q122.15625 426.09375 121.984375 425.92188Q121.828125 425.73438 121.828125 425.48438ZM125.90625 428.51562L125.90625 433.5L124.828125 433.5L124.828125 427.15625L125.859375 427.15625L125.90625 428.51562ZM125.65625 430.09375L125.203125 430.07812Q125.203125 429.42188 125.390625 428.875Q125.578125 428.3125 125.921875 427.90625Q126.265625 427.5 126.734375 427.28125Q127.203125 427.04688 127.78125 427.04688Q128.25 427.04688 128.625 427.17188Q129.0 427.29688 129.26562 427.57812Q129.53125 427.84375 129.67188 428.28125Q129.8125 428.71875 129.8125 429.34375L129.8125 433.5L128.71875 433.5L128.71875 429.32812Q128.71875 428.82812 128.57812 428.53125Q128.4375 428.23438 128.15625 428.09375Q127.875 427.95312 127.453125 427.95312Q127.046875 427.95312 126.71875 428.125Q126.390625 428.29688 126.15625 428.59375Q125.921875 428.89062 125.78125 429.28125Q125.65625 429.65625 125.65625 430.09375ZM135.5625 432.42188L135.5625 429.15625Q135.5625 428.78125 135.40625 428.5Q135.26562 428.21875 134.96875 428.07812Q134.67188 427.92188 134.23438 427.92188Q133.8125 427.92188 133.5 428.0625Q133.20312 428.20312 133.03125 428.4375Q132.85938 428.65625 132.85938 428.92188L131.78125 428.92188Q131.78125 428.57812 131.95312 428.25Q132.125 427.90625 132.45312 427.64062Q132.78125 427.35938 133.25 427.20312Q133.71875 427.04688 134.29688 427.04688Q134.98438 427.04688 135.51562 427.28125Q136.04688 427.51562 136.34375 427.98438Q136.65625 428.45312 136.65625 429.15625L136.65625 432.10938Q136.65625 432.4375 136.70312 432.79688Q136.76562 433.14062 136.875 433.40625L136.875 433.5L135.73438 433.5Q135.65625 433.3125 135.60938 433.0Q135.5625 432.6875 135.5625 432.42188ZM135.75 429.65625L135.76562 430.42188L134.67188 430.42188Q134.20312 430.42188 133.84375 430.5Q133.48438 430.5625 133.23438 430.71875Q132.98438 430.85938 132.85938 431.07812Q132.73438 431.29688 132.73438 431.59375Q132.73438 431.89062 132.85938 432.14062Q133.0 432.375 133.26562 432.53125Q133.54688 432.67188 133.9375 432.67188Q134.4375 432.67188 134.8125 432.46875Q135.20312 432.25 135.42188 431.95312Q135.65625 431.64062 135.67188 431.34375L136.14062 431.875Q136.09375 432.10938 135.90625 432.42188Q135.73438 432.71875 135.42188 433.0Q135.125 433.26562 134.70312 433.45312Q134.29688 433.625 133.78125 433.625Q133.14062 433.625 132.65625 433.375Q132.17188 433.10938 131.90625 432.6875Q131.64062 432.26562 131.64062 431.73438Q131.64062 431.21875 131.82812 430.84375Q132.03125 430.45312 132.40625 430.1875Q132.78125 429.92188 133.3125 429.79688Q133.84375 429.65625 134.5 429.65625L135.75 429.65625ZM141.07812 429.42188L141.07812 430.3125L138.21875 430.3125L138.21875 429.42188L141.07812 429.42188ZM143.29688 428.70312L144.0625 428.70312Q144.64062 428.70312 145.0 428.51562Q145.375 428.3125 145.5625 427.98438Q145.75 427.65625 145.75 427.23438Q145.75 426.75 145.57812 426.42188Q145.42188 426.07812 145.09375 425.90625Q144.76562 425.73438 144.26562 425.73438Q143.79688 425.73438 143.45312 425.92188Q143.10938 426.09375 142.90625 426.42188Q142.71875 426.75 142.71875 427.20312L141.625 427.20312Q141.625 426.54688 141.95312 426.01562Q142.28125 425.48438 142.875 425.17188Q143.46875 424.84375 144.26562 424.84375Q145.03125 424.84375 145.60938 425.125Q146.1875 425.39062 146.51562 425.9375Q146.84375 426.46875 146.84375 427.26562Q146.84375 427.59375 146.6875 427.95312Q146.53125 428.3125 146.21875 428.64062Q145.90625 428.95312 145.40625 429.15625Q144.92188 429.35938 144.21875 429.35938L143.29688 429.35938L143.29688 428.70312ZM143.29688 429.59375L143.29688 428.9375L144.21875 428.9375Q145.03125 428.9375 145.5625 429.14062Q146.09375 429.32812 146.40625 429.65625Q146.71875 429.96875 146.84375 430.35938Q146.96875 430.73438 146.96875 431.125Q146.96875 431.71875 146.76562 432.1875Q146.5625 432.64062 146.1875 432.96875Q145.82812 433.28125 145.32812 433.45312Q144.84375 433.625 144.26562 433.625Q143.70312 433.625 143.21875 433.46875Q142.73438 433.29688 142.35938 433.0Q141.98438 432.70312 141.76562 432.26562Q141.5625 431.8125 141.5625 431.25L142.64062 431.25Q142.64062 431.6875 142.82812 432.03125Q143.03125 432.35938 143.39062 432.54688Q143.76562 432.71875 144.26562 432.71875Q144.76562 432.71875 145.125 432.54688Q145.48438 432.375 145.67188 432.03125Q145.875 431.67188 145.875 431.14062Q145.875 430.60938 145.65625 430.26562Q145.4375 429.92188 145.01562 429.76562Q144.60938 429.59375 144.0625 429.59375L143.29688 429.59375ZM149.8125 432.20312L149.8125 433.07812Q149.8125 433.625 149.53125 434.21875Q149.26562 434.8125 148.78125 435.20312L148.17188 434.78125Q148.35938 434.51562 148.48438 434.25Q148.60938 433.98438 148.67188 433.70312Q148.75 433.42188 148.75 433.09375L148.75 432.20312L149.8125 432.20312ZM156.21875 424.96875L156.21875 425.57812L152.6875 433.5L151.54688 433.5L155.07812 425.85938L150.45312 425.85938L150.45312 424.96875L156.21875 424.96875ZM157.78125 430.09375L157.78125 430.03125Q157.78125 428.75 158.0625 427.71875Q158.35938 426.6875 158.79688 425.90625Q159.25 425.125 159.73438 424.60938Q160.23438 424.09375 160.65625 423.875L160.875 424.59375Q160.53125 424.84375 160.17188 425.3125Q159.82812 425.78125 159.53125 426.45312Q159.23438 427.125 159.04688 428.01562Q158.875 428.90625 158.875 430.01562L158.875 430.09375Q158.875 431.21875 159.04688 432.10938Q159.23438 433.0 159.53125 433.67188Q159.82812 434.35938 160.17188 434.82812Q160.53125 435.3125 160.875 435.59375L160.65625 436.25Q160.23438 436.03125 159.73438 435.51562Q159.25 435.0 158.79688 434.21875Q158.35938 433.45312 158.0625 432.42188Q157.78125 431.375 157.78125 430.09375ZM165.26562 424.92188L165.26562 433.5L164.1875 433.5L164.1875 426.28125L162.0 427.07812L162.0 426.09375L165.10938 424.92188L165.26562 424.92188ZM172.26562 424.92188L172.26562 433.5L171.1875 433.5L171.1875 426.28125L169.0 427.07812L169.0 426.09375L172.10938 424.92188L172.26562 424.92188ZM178.32812 430.03125L178.32812 430.09375Q178.32812 431.375 178.03125 432.42188Q177.75 433.45312 177.29688 434.21875Q176.85938 435.0 176.35938 435.51562Q175.875 436.03125 175.45312 436.25L175.23438 435.59375Q175.57812 435.32812 175.92188 434.85938Q176.28125 434.39062 176.57812 433.70312Q176.875 433.01562 177.04688 432.125Q177.23438 431.21875 177.23438 430.09375L177.23438 430.01562Q177.23438 428.90625 177.04688 428.01562Q176.85938 427.10938 176.54688 426.42188Q176.23438 425.73438 175.89062 425.26562Q175.54688 424.79688 175.23438 424.53125L175.45312 423.875Q175.875 424.09375 176.35938 424.60938Q176.85938 425.125 177.29688 425.90625Q177.75 426.6875 178.03125 427.71875Q178.32812 428.75 178.32812 430.03125ZM182.07812 429.42188L182.07812 430.3125L179.21875 430.3125L179.21875 429.42188L182.07812 429.42188ZM186.82812 432.26562L186.82812 424.5L187.90625 424.5L187.90625 433.5L186.92188 433.5L186.82812 432.26562ZM182.5625 430.40625L182.5625 430.28125Q182.5625 429.54688 182.73438 428.95312Q182.92188 428.35938 183.25 427.9375Q183.57812 427.5 184.03125 427.28125Q184.5 427.04688 185.0625 427.04688Q185.65625 427.04688 186.10938 427.25Q186.5625 427.45312 186.875 427.85938Q187.1875 428.25 187.35938 428.8125Q187.54688 429.35938 187.625 430.0625L187.625 430.60938Q187.5625 431.29688 187.375 431.85938Q187.1875 432.42188 186.875 432.8125Q186.5625 433.20312 186.10938 433.42188Q185.65625 433.625 185.04688 433.625Q184.5 433.625 184.03125 433.39062Q183.57812 433.14062 183.25 432.70312Q182.92188 432.26562 182.73438 431.6875Q182.5625 431.09375 182.5625 430.40625ZM183.64062 430.28125L183.64062 430.40625Q183.64062 430.875 183.73438 431.29688Q183.84375 431.70312 184.04688 432.03125Q184.25 432.34375 184.5625 432.53125Q184.89062 432.70312 185.32812 432.70312Q185.85938 432.70312 186.20312 432.46875Q186.5625 432.23438 186.76562 431.85938Q186.98438 431.48438 187.09375 431.04688L187.09375 429.64062Q187.03125 429.3125 186.89062 429.01562Q186.76562 428.71875 186.54688 428.48438Q186.34375 428.23438 186.04688 428.09375Q185.75 427.95312 185.32812 427.95312Q184.89062 427.95312 184.5625 428.14062Q184.25 428.32812 184.04688 428.65625Q183.84375 428.96875 183.73438 429.39062Q183.64062 429.79688 183.64062 430.28125ZM191.0 427.15625L191.0 433.5L189.92188 433.5L189.92188 427.15625L191.0 427.15625ZM189.82812 425.48438Q189.82812 425.21875 189.98438 425.03125Q190.15625 424.84375 190.46875 424.84375Q190.78125 424.84375 190.9375 425.03125Q191.10938 425.21875 191.10938 425.48438Q191.10938 425.73438 190.9375 425.92188Q190.78125 426.09375 190.46875 426.09375Q190.15625 426.09375 189.98438 425.92188Q189.82812 425.73438 189.82812 425.48438ZM195.45312 433.625Q194.79688 433.625 194.25 433.40625Q193.71875 433.17188 193.32812 432.76562Q192.95312 432.34375 192.75 431.78125Q192.54688 431.21875 192.54688 430.54688L192.54688 430.3125Q192.54688 429.53125 192.76562 428.92188Q193.0 428.3125 193.39062 427.89062Q193.78125 427.46875 194.28125 427.26562Q194.78125 427.04688 195.3125 427.04688Q196.0 427.04688 196.48438 427.28125Q196.98438 427.51562 197.29688 427.9375Q197.625 428.34375 197.76562 428.92188Q197.92188 429.48438 197.92188 430.14062L197.92188 430.64062L193.1875 430.64062L193.1875 429.75L196.84375 429.75L196.84375 429.67188Q196.8125 429.25 196.65625 428.85938Q196.51562 428.45312 196.1875 428.20312Q195.875 427.9375 195.3125 427.9375Q194.95312 427.9375 194.64062 428.09375Q194.32812 428.25 194.09375 428.5625Q193.875 428.85938 193.75 429.29688Q193.64062 429.73438 193.64062 430.3125L193.64062 430.54688Q193.64062 431.0 193.76562 431.40625Q193.89062 431.79688 194.125 432.09375Q194.375 432.39062 194.71875 432.5625Q195.07812 432.73438 195.51562 432.73438Q196.09375 432.73438 196.48438 432.5Q196.89062 432.26562 197.1875 431.875L197.84375 432.39062Q197.64062 432.70312 197.3125 432.98438Q197.0 433.26562 196.53125 433.45312Q196.07812 433.625 195.45312 433.625ZM199.90625 428.51562L199.90625 433.5L198.82812 433.5L198.82812 427.15625L199.85938 427.15625L199.90625 428.51562ZM199.65625 430.09375L199.20312 430.07812Q199.20312 429.42188 199.39062 428.875Q199.57812 428.3125 199.92188 427.90625Q200.26562 427.5 200.73438 427.28125Q201.20312 427.04688 201.78125 427.04688Q202.25 427.04688 202.625 427.17188Q203.0 427.29688 203.26562 427.57812Q203.53125 427.84375 203.67188 428.28125Q203.8125 428.71875 203.8125 429.34375L203.8125 433.5L202.71875 433.5L202.71875 429.32812Q202.71875 428.82812 202.57812 428.53125Q202.4375 428.23438 202.15625 428.09375Q201.875 427.95312 201.45312 427.95312Q201.04688 427.95312 200.71875 428.125Q200.39062 428.29688 200.15625 428.59375Q199.92188 428.89062 199.78125 429.28125Q199.65625 429.65625 199.65625 430.09375ZM208.45312 433.625Q207.79688 433.625 207.25 433.40625Q206.71875 433.17188 206.32812 432.76562Q205.95312 432.34375 205.75 431.78125Q205.54688 431.21875 205.54688 430.54688L205.54688 430.3125Q205.54688 429.53125 205.76562 428.92188Q206.0 428.3125 206.39062 427.89062Q206.78125 427.46875 207.28125 427.26562Q207.78125 427.04688 208.3125 427.04688Q209.0 427.04688 209.48438 427.28125Q209.98438 427.51562 210.29688 427.9375Q210.625 428.34375 210.76562 428.92188Q210.92188 429.48438 210.92188 430.14062L210.92188 430.64062L206.1875 430.64062L206.1875 429.75L209.84375 429.75L209.84375 429.67188Q209.8125 429.25 209.65625 428.85938Q209.51562 428.45312 209.1875 428.20312Q208.875 427.9375 208.3125 427.9375Q207.95312 427.9375 207.64062 428.09375Q207.32812 428.25 207.09375 428.5625Q206.875 428.85938 206.75 429.29688Q206.64062 429.73438 206.64062 430.3125L206.64062 430.54688Q206.64062 431.0 206.76562 431.40625Q206.89062 431.79688 207.125 432.09375Q207.375 432.39062 207.71875 432.5625Q208.07812 432.73438 208.51562 432.73438Q209.09375 432.73438 209.48438 432.5Q209.89062 432.26562 210.1875 431.875L210.84375 432.39062Q210.64062 432.70312 210.3125 432.98438Q210.0 433.26562 209.53125 433.45312Q209.07812 433.625 208.45312 433.625Z" fill-rule="nonzero"/><path stroke="#cccccc" stroke-width="1.0" stroke-linecap="butt" d="M372.0 305.0L197.0 204.0" fill-rule="nonzero"/><path fill="#000000" d="M140.03125 183.34375Q140.03125 183.04688 139.9375 182.8125Q139.85938 182.57812 139.625 182.39062Q139.40625 182.20312 139.0 182.03125Q138.60938 181.85938 138.01562 181.6875Q137.375 181.5 136.85938 181.28125Q136.35938 181.04688 135.98438 180.75Q135.625 180.4375 135.4375 180.0625Q135.25 179.67188 135.25 179.17188Q135.25 178.67188 135.45312 178.25Q135.65625 177.82812 136.03125 177.51562Q136.42188 177.20312 136.95312 177.03125Q137.48438 176.84375 138.14062 176.84375Q139.10938 176.84375 139.78125 177.21875Q140.45312 177.57812 140.79688 178.17188Q141.15625 178.76562 141.15625 179.42188L140.03125 179.42188Q140.03125 178.95312 139.8125 178.57812Q139.60938 178.20312 139.1875 178.0Q138.78125 177.78125 138.14062 177.78125Q137.54688 177.78125 137.14062 177.96875Q136.75 178.14062 136.5625 178.45312Q136.375 178.76562 136.375 179.15625Q136.375 179.42188 136.48438 179.65625Q136.60938 179.875 136.84375 180.0625Q137.09375 180.25 137.46875 180.40625Q137.84375 180.5625 138.375 180.70312Q139.09375 180.90625 139.625 181.17188Q140.15625 181.42188 140.5 181.73438Q140.84375 182.04688 141.0 182.4375Q141.17188 182.82812 141.17188 183.32812Q141.17188 183.85938 140.95312 184.28125Q140.75 184.70312 140.35938 185.0Q139.96875 185.29688 139.42188 185.46875Q138.875 185.625 138.20312 185.625Q137.60938 185.625 137.03125 185.45312Q136.46875 185.28125 136.0 184.95312Q135.53125 184.625 135.25 184.15625Q134.96875 183.67188 134.96875 183.03125L136.09375 183.03125Q136.09375 183.46875 136.26562 183.78125Q136.4375 184.09375 136.73438 184.29688Q137.03125 184.5 137.40625 184.60938Q137.78125 184.70312 138.20312 184.70312Q138.79688 184.70312 139.20312 184.54688Q139.60938 184.375 139.8125 184.07812Q140.03125 183.76562 140.03125 183.34375ZM142.04688 182.40625L142.04688 182.26562Q142.04688 181.57812 142.23438 181.0Q142.4375 180.40625 142.8125 179.96875Q143.1875 179.53125 143.71875 179.29688Q144.25 179.04688 144.92188 179.04688Q145.57812 179.04688 146.10938 179.29688Q146.65625 179.53125 147.03125 179.96875Q147.40625 180.40625 147.60938 181.0Q147.8125 181.57812 147.8125 182.26562L147.8125 182.40625Q147.8125 183.07812 147.60938 183.67188Q147.40625 184.25 147.03125 184.6875Q146.65625 185.125 146.125 185.375Q145.59375 185.625 144.92188 185.625Q144.26562 185.625 143.71875 185.375Q143.1875 185.125 142.8125 184.6875Q142.4375 184.25 142.23438 183.67188Q142.04688 183.07812 142.04688 182.40625ZM143.125 182.26562L143.125 182.40625Q143.125 182.875 143.23438 183.29688Q143.34375 183.71875 143.5625 184.04688Q143.79688 184.35938 144.14062 184.54688Q144.48438 184.71875 144.92188 184.71875Q145.375 184.71875 145.70312 184.54688Q146.04688 184.35938 146.26562 184.04688Q146.5 183.71875 146.60938 183.29688Q146.71875 182.875 146.71875 182.40625L146.71875 182.26562Q146.71875 181.79688 146.60938 181.375Q146.5 180.95312 146.26562 180.64062Q146.04688 180.3125 145.70312 180.125Q145.375 179.9375 144.92188 179.9375Q144.46875 179.9375 144.125 180.125Q143.79688 180.3125 143.5625 180.64062Q143.34375 180.95312 143.23438 181.375Q143.125 181.79688 143.125 182.26562ZM150.40625 180.51562L150.40625 185.5L149.32812 185.5L149.32812 179.15625L150.35938 179.15625L150.40625 180.51562ZM150.15625 182.09375L149.70312 182.07812Q149.70312 181.42188 149.89062 180.875Q150.07812 180.3125 150.42188 179.90625Q150.76562 179.5 151.23438 179.28125Q151.70312 179.04688 152.28125 179.04688Q152.75 179.04688 153.125 179.17188Q153.5 179.29688 153.76562 179.57812Q154.03125 179.84375 154.17188 180.28125Q154.3125 180.71875 154.3125 181.34375L154.3125 185.5L153.21875 185.5L153.21875 181.32812Q153.21875 180.82812 153.07812 180.53125Q152.9375 180.23438 152.65625 180.09375Q152.375 179.95312 151.95312 179.95312Q151.54688 179.95312 151.21875 180.125Q150.89062 180.29688 150.65625 180.59375Q150.42188 180.89062 150.28125 181.28125Q150.15625 181.65625 150.15625 182.09375ZM160.01562 183.8125Q160.01562 183.57812 159.90625 183.375Q159.8125 183.17188 159.5 183.01562Q159.1875 182.84375 158.5625 182.71875Q158.03125 182.60938 157.60938 182.46875Q157.1875 182.3125 156.89062 182.09375Q156.59375 181.875 156.4375 181.57812Q156.28125 181.28125 156.28125 180.89062Q156.28125 180.51562 156.4375 180.1875Q156.60938 179.84375 156.90625 179.59375Q157.21875 179.32812 157.65625 179.1875Q158.09375 179.04688 158.625 179.04688Q159.39062 179.04688 159.92188 179.3125Q160.46875 179.57812 160.75 180.03125Q161.03125 180.48438 161.03125 181.01562L159.95312 181.01562Q159.95312 180.76562 159.79688 180.51562Q159.64062 180.26562 159.34375 180.10938Q159.04688 179.9375 158.625 179.9375Q158.17188 179.9375 157.89062 180.07812Q157.60938 180.20312 157.48438 180.42188Q157.35938 180.625 157.35938 180.85938Q157.35938 181.04688 157.42188 181.1875Q157.48438 181.3125 157.64062 181.4375Q157.79688 181.54688 158.07812 181.65625Q158.375 181.75 158.82812 181.84375Q159.60938 182.01562 160.10938 182.26562Q160.60938 182.51562 160.85938 182.875Q161.10938 183.21875 161.10938 183.73438Q161.10938 184.15625 160.92188 184.5Q160.75 184.84375 160.42188 185.09375Q160.10938 185.34375 159.65625 185.48438Q159.20312 185.625 158.65625 185.625Q157.8125 185.625 157.23438 185.32812Q156.65625 185.01562 156.35938 184.54688Q156.0625 184.0625 156.0625 183.54688L157.14062 183.54688Q157.17188 183.98438 157.40625 184.25Q157.64062 184.51562 157.96875 184.625Q158.3125 184.71875 158.65625 184.71875Q159.09375 184.71875 159.39062 184.60938Q159.70312 184.48438 159.85938 184.28125Q160.01562 184.07812 160.01562 183.8125ZM164.98438 179.15625L164.98438 179.98438L161.54688 179.98438L161.54688 179.15625L164.98438 179.15625ZM162.71875 177.625L163.79688 177.625L163.79688 183.92188Q163.79688 184.25 163.89062 184.42188Q164.0 184.57812 164.15625 184.64062Q164.3125 184.6875 164.5 184.6875Q164.625 184.6875 164.76562 184.65625Q164.92188 184.625 165.0 184.60938L165.01562 185.5Q164.875 185.54688 164.67188 185.57812Q164.46875 185.625 164.17188 185.625Q163.78125 185.625 163.4375 185.46875Q163.10938 185.29688 162.90625 184.9375Q162.71875 184.5625 162.71875 183.92188L162.71875 177.625ZM167.5 179.15625L167.5 185.5L166.42188 185.5L166.42188 179.15625L167.5 179.15625ZM166.32812 177.48438Q166.32812 177.21875 166.48438 177.03125Q166.65625 176.84375 166.96875 176.84375Q167.28125 176.84375 167.4375 177.03125Q167.60938 177.21875 167.60938 177.48438Q167.60938 177.73438 167.4375 177.92188Q167.28125 178.09375 166.96875 178.09375Q166.65625 178.09375 166.48438 177.92188Q166.32812 177.73438 166.32812 177.48438ZM173.4375 179.15625L174.42188 179.15625L174.42188 185.35938Q174.42188 186.20312 174.07812 186.79688Q173.73438 187.39062 173.125 187.6875Q172.53125 188.0 171.73438 188.0Q171.40625 188.0 170.95312 187.89062Q170.51562 187.79688 170.09375 187.54688Q169.67188 187.3125 169.39062 186.90625L169.95312 186.25Q170.35938 186.73438 170.78125 186.92188Q171.21875 187.10938 171.65625 187.10938Q172.17188 187.10938 172.54688 186.90625Q172.92188 186.71875 173.125 186.34375Q173.32812 185.96875 173.32812 185.42188L173.32812 180.54688L173.4375 179.15625ZM169.0625 182.40625L169.0625 182.28125Q169.0625 181.54688 169.23438 180.95312Q169.42188 180.35938 169.73438 179.9375Q170.0625 179.5 170.51562 179.28125Q170.98438 179.04688 171.57812 179.04688Q172.17188 179.04688 172.60938 179.25Q173.0625 179.45312 173.375 179.85938Q173.6875 180.25 173.875 180.8125Q174.0625 181.35938 174.125 182.0625L174.125 182.60938Q174.0625 183.29688 173.875 183.85938Q173.6875 184.42188 173.375 184.8125Q173.0625 185.20312 172.60938 185.42188Q172.15625 185.625 171.5625 185.625Q170.98438 185.625 170.53125 185.39062Q170.07812 185.14062 169.75 184.70312Q169.42188 184.26562 169.23438 183.6875Q169.0625 183.09375 169.0625 182.40625ZM170.15625 182.28125L170.15625 182.40625Q170.15625 182.875 170.25 183.29688Q170.34375 183.70312 170.54688 184.03125Q170.75 184.34375 171.0625 184.53125Q171.39062 184.70312 171.82812 184.70312Q172.35938 184.70312 172.70312 184.46875Q173.0625 184.23438 173.26562 183.85938Q173.48438 183.48438 173.59375 183.04688L173.59375 181.64062Q173.53125 181.3125 173.39062 181.01562Q173.26562 180.71875 173.0625 180.48438Q172.85938 180.23438 172.54688 180.09375Q172.25 179.95312 171.82812 179.95312Q171.39062 179.95312 171.0625 180.14062Q170.75 180.32812 170.54688 180.65625Q170.34375 180.96875 170.25 181.39062Q170.15625 181.79688 170.15625 182.28125ZM178.95312 185.625Q178.29688 185.625 177.75 185.40625Q177.21875 185.17188 176.82812 184.76562Q176.45312 184.34375 176.25 183.78125Q176.04688 183.21875 176.04688 182.54688L176.04688 182.3125Q176.04688 181.53125 176.26562 180.92188Q176.5 180.3125 176.89062 179.89062Q177.28125 179.46875 177.78125 179.26562Q178.28125 179.04688 178.8125 179.04688Q179.5 179.04688 179.98438 179.28125Q180.48438 179.51562 180.79688 179.9375Q181.125 180.34375 181.26562 180.92188Q181.42188 181.48438 181.42188 182.14062L181.42188 182.64062L176.6875 182.64062L176.6875 181.75L180.34375 181.75L180.34375 181.67188Q180.3125 181.25 180.15625 180.85938Q180.01562 180.45312 179.6875 180.20312Q179.375 179.9375 178.8125 179.9375Q178.45312 179.9375 178.14062 180.09375Q177.82812 180.25 177.59375 180.5625Q177.375 180.85938 177.25 181.29688Q177.14062 181.73438 177.14062 182.3125L177.14062 182.54688Q177.14062 183.0 177.26562 183.40625Q177.39062 183.79688 177.625 184.09375Q177.875 184.39062 178.21875 184.5625Q178.57812 184.73438 179.01562 184.73438Q179.59375 184.73438 179.98438 184.5Q180.39062 184.26562 180.6875 183.875L181.34375 184.39062Q181.14062 184.70312 180.8125 184.98438Q180.5 185.26562 180.03125 185.45312Q179.57812 185.625 178.95312 185.625Z" fill-rule="nonzero"/><path stroke="#cccccc" stroke-width="1.0" stroke-linecap="butt" d="M372.0 305.0L372.0 103.0" fill-rule="nonzero"/><path stroke="#ff0000" stroke-width="2.0" stroke-linecap="butt" stroke-opacity="0.7019608" stroke-dasharray="8.0,6.0,2.0,6.0" d="M372.0 58.0L429.0 272.0L420.0 333.0L372.0 350.0L337.0 325.0L315.0 272.0Z" fill-rule="nonzero"/><path fill="#ff0000" fill-opacity="0.7019608" d="M368.81802 54.81802L372.0 56.875L375.18198 54.81802L373.125 58.0L375.18198 61.18198L372.0 59.125L368.81802 61.18198L370.875 58.0Z" fill-rule="nonzero"/><path fill="#ff0000" fill-opacity="0.7019608" d="M425.81802 268.81802L429.0 270.875L432.18198 268.81802L430.125 272.0L432.18198 275.18198L429.0 273.125L425.81802 275.18198L427.875 272.0Z" fill-rule="nonzero"/><path fill="#ff0000" fill-opacity="0.7019608" d="M416.81802 329.81802L420.0 331.875L423.18198 329.81802L421.125 333.0L423.18198 336.18198L420.0 334.125L416.81802 336.18198L418.875 333.0Z" fill-rule="nonzero"/><path fill="#ff0000" fill-opacity="0.7019608" d="M368.81802 346.81802L372.0 348.875L375.18198 346.81802L373.125 350.0L375.18198 353.18198L372.0 351.125L368.81802 353.18198L370.875 350.0Z" fill-rule="nonzero"/><path fill="#ff0000" fill-opacity="0.7019608" d="M333.81802 321.81802L337.0 323.875L340.18198 321.81802L338.125 325.0L340.18198 328.18198L337.0 326.125L333.81802 328.18198L335.875 325.0Z" fill-rule="nonzero"/><path fill="#ff0000" fill-opacity="0.7019608" d="M311.81802 268.81802L315.0 270.875L318.18198 268.81802L316.125 272.0L318.18198 275.18198L315.0 273.125L311.81802 275.18198L313.875 272.0Z" fill-rule="nonzero"/><path fill="#757575" d="M36.6 41.740623L36.6 40.053123L42.6625 40.0375L42.6625 45.35Q41.25625 46.475 39.771873 47.0375Q38.2875 47.6 36.725 47.6Q34.615623 47.6 32.896873 46.69375Q31.178125 45.7875 30.2875 44.084373Q29.4125 42.365623 29.4125 40.25625Q29.4125 38.1625 30.2875 36.365623Q31.1625 34.553123 32.803123 33.678123Q34.44375 32.7875 36.584373 32.7875Q38.13125 32.7875 39.38125 33.2875Q40.646873 33.7875 41.35 34.69375Q42.06875 35.584373 42.44375 37.0375L40.740623 37.50625Q40.4125 36.4125 39.928123 35.7875Q39.459373 35.1625 38.56875 34.7875Q37.678123 34.4125 36.6 34.4125Q35.2875 34.4125 34.334373 34.803123Q33.396873 35.19375 32.81875 35.85Q32.240623 36.490623 31.9125 37.25625Q31.365625 38.584373 31.365625 40.146873Q31.365625 42.053123 32.021873 43.35Q32.69375 44.63125 33.94375 45.25625Q35.209373 45.88125 36.615623 45.88125Q37.85 45.88125 39.021873 45.4125Q40.19375 44.94375 40.803123 44.396873L40.803123 41.740623L36.6 41.740623ZM52.44375 46.06875Q51.459373 46.896873 50.553123 47.240623Q49.646873 47.584373 48.615623 47.584373Q46.9125 47.584373 45.990623 46.75625Q45.06875 45.9125 45.06875 44.615623Q45.06875 43.85 45.4125 43.225Q45.771873 42.6 46.334373 42.225Q46.896873 41.834373 47.6 41.63125Q48.115623 41.50625 49.1625 41.365623Q51.2875 41.115623 52.2875 40.771873Q52.303123 40.4125 52.303123 40.303123Q52.303123 39.240623 51.803123 38.7875Q51.13125 38.19375 49.803123 38.19375Q48.553123 38.19375 47.959373 38.63125Q47.38125 39.06875 47.1 40.178123L45.38125 39.94375Q45.615623 38.834373 46.146873 38.1625Q46.678123 37.475 47.69375 37.115623Q48.709373 36.740623 50.053123 36.740623Q51.38125 36.740623 52.209373 37.053123Q53.0375 37.365623 53.428123 37.85Q53.81875 38.31875 53.975 39.0375Q54.06875 39.490623 54.06875 40.6625L54.06875 43.00625Q54.06875 45.459373 54.178123 46.115623Q54.2875 46.75625 54.63125 47.35L52.7875 47.35Q52.521873 46.803123 52.44375 46.06875ZM52.2875 42.146873Q51.334373 42.5375 49.4125 42.803123Q48.334373 42.959373 47.88125 43.1625Q47.44375 43.35 47.19375 43.725Q46.94375 44.1 46.94375 44.56875Q46.94375 45.271873 47.475 45.740623Q48.00625 46.209373 49.0375 46.209373Q50.053123 46.209373 50.834373 45.771873Q51.63125 45.31875 52.00625 44.553123Q52.2875 43.94375 52.2875 42.7875L52.2875 42.146873ZM55.959373 44.25625L57.709373 43.975Q57.85 45.021873 58.521873 45.584373Q59.19375 46.13125 60.396873 46.13125Q61.6 46.13125 62.178123 45.646873Q62.771873 45.146873 62.771873 44.490623Q62.771873 43.896873 62.25625 43.553123Q61.896873 43.31875 60.459373 42.959373Q58.521873 42.459373 57.771873 42.115623Q57.0375 41.75625 56.646873 41.13125Q56.25625 40.490623 56.25625 39.725Q56.25625 39.0375 56.56875 38.44375Q56.896873 37.85 57.44375 37.459373Q57.85 37.1625 58.553123 36.959373Q59.271873 36.740623 60.084373 36.740623Q61.303123 36.740623 62.225 37.1Q63.146873 37.44375 63.584373 38.053123Q64.02187 38.646873 64.19375 39.646873L62.475 39.88125Q62.35 39.084373 61.7875 38.646873Q61.225 38.19375 60.209373 38.19375Q58.990623 38.19375 58.475 38.6Q57.959373 38.990623 57.959373 39.521873Q57.959373 39.865623 58.178123 40.146873Q58.38125 40.428123 58.85 40.615623Q59.115623 40.709373 60.396873 41.053123Q62.271873 41.553123 63.00625 41.88125Q63.740623 42.19375 64.1625 42.803123Q64.58437 43.396873 64.58437 44.303123Q64.58437 45.178123 64.06875 45.959373Q63.553123 46.740623 62.584373 47.1625Q61.615623 47.584373 60.396873 47.584373Q58.38125 47.584373 57.31875 46.740623Q56.25625 45.896873 55.959373 44.25625ZM70.50625 45.771873L70.75625 47.334373Q70.02187 47.490623 69.42812 47.490623Q68.475 47.490623 67.94375 47.19375Q67.42812 46.88125 67.20937 46.396873Q66.99062 45.896873 66.99062 44.31875L66.99062 38.35L65.70937 38.35L65.70937 36.975L66.99062 36.975L66.99062 34.4125L68.74062 33.35L68.74062 36.975L70.50625 36.975L70.50625 38.35L68.74062 38.35L68.74062 44.4125Q68.74062 45.1625 68.83437 45.38125Q68.92812 45.584373 69.13125 45.725Q69.35 45.85 69.74062 45.85Q70.02187 45.85 70.50625 45.771873ZM72.64687 47.35L72.64687 36.975L74.225 36.975L74.225 38.553123Q74.83437 37.44375 75.35 37.1Q75.86562 36.740623 76.475 36.740623Q77.36562 36.740623 78.2875 37.303123L77.67812 38.94375Q77.0375 38.553123 76.39687 38.553123Q75.81875 38.553123 75.35 38.9125Q74.89687 39.25625 74.69375 39.865623Q74.4125 40.803123 74.4125 41.9125L74.4125 47.35L72.64687 47.35ZM79.02187 42.1625Q79.02187 39.2875 80.61562 37.896873Q81.95937 36.740623 83.88125 36.740623Q86.02187 36.740623 87.36562 38.146873Q88.725 39.553123 88.725 42.021873Q88.725 44.021873 88.13125 45.178123Q87.5375 46.31875 86.38125 46.959373Q85.24062 47.584373 83.88125 47.584373Q81.69375 47.584373 80.35 46.19375Q79.02187 44.7875 79.02187 42.1625ZM80.81875 42.1625Q80.81875 44.1625 81.67812 45.146873Q82.55312 46.13125 83.88125 46.13125Q85.19375 46.13125 86.05312 45.146873Q86.92812 44.146873 86.92812 42.1Q86.92812 40.178123 86.05312 39.19375Q85.17812 38.19375 83.88125 38.19375Q82.55312 38.19375 81.67812 39.19375Q80.81875 40.178123 80.81875 42.1625ZM96.89687 47.35L96.89687 33.0375L102.2875 33.0375Q103.725 33.0375 104.475 33.1625Q105.52187 33.35 106.24062 33.85Q106.95937 34.334373 107.38125 35.225Q107.81875 36.115623 107.81875 37.178123Q107.81875 39.00625 106.64687 40.271873Q105.49062 41.521873 102.45937 41.521873L98.7875 41.521873L98.7875 47.35L96.89687 47.35ZM98.7875 39.834373L102.49062 39.834373Q104.31875 39.834373 105.08437 39.1625Q105.86562 38.475 105.86562 37.225Q105.86562 36.334373 105.4125 35.69375Q104.95937 35.053123 104.225 34.85Q103.74062 34.725 102.44375 34.725L98.7875 34.725L98.7875 39.834373ZM109.02187 42.1625Q109.02187 39.2875 110.61562 37.896873Q111.95937 36.740623 113.88125 36.740623Q116.02187 36.740623 117.36562 38.146873Q118.725 39.553123 118.725 42.021873Q118.725 44.021873 118.13125 45.178123Q117.5375 46.31875 116.38125 46.959373Q115.24062 47.584373 113.88125 47.584373Q111.69375 47.584373 110.35 46.19375Q109.02187 44.7875 109.02187 42.1625ZM110.81875 42.1625Q110.81875 44.1625 111.67812 45.146873Q112.55312 46.13125 113.88125 46.13125Q115.19375 46.13125 116.05312 45.146873Q116.92812 44.146873 116.92812 42.1Q116.92812 40.178123 116.05312 39.19375Q115.17812 38.19375 113.88125 38.19375Q112.55312 38.19375 111.67812 39.19375Q110.81875 40.178123 110.81875 42.1625ZM120.6625 51.31875L120.6625 36.975L122.27187 36.975L122.27187 38.31875Q122.83437 37.5375 123.5375 37.146873Q124.25625 36.740623 125.27187 36.740623Q126.6 36.740623 127.61562 37.428123Q128.63126 38.115623 129.14688 39.365623Q129.67813 40.6 129.67813 42.084373Q129.67813 43.678123 129.1 44.959373Q128.5375 46.225 127.44375 46.9125Q126.35 47.584373 125.14687 47.584373Q124.27187 47.584373 123.56875 47.209373Q122.88125 46.834373 122.42812 46.271873L122.42812 51.31875L120.6625 51.31875ZM122.25625 42.225Q122.25625 44.225 123.06875 45.178123Q123.88125 46.13125 125.0375 46.13125Q126.20937 46.13125 127.0375 45.146873Q127.88125 44.1625 127.88125 42.06875Q127.88125 40.1 127.05312 39.115623Q126.24062 38.115623 125.11562 38.115623Q123.99062 38.115623 123.11562 39.178123Q122.25625 40.225 122.25625 42.225Z" fill-rule="nonzero"/></svg>