<svg version="1.1" viewBox="0.0 0.0 744.0 567.0" fill="none" stroke="none" stroke-linecap="square" stroke-miterlimit="10" width="744" height="567" xmlns:xlink="http://www.w3.org/1999/xlink" xmlns="http://www.w3.org/2000/svg"><path fill="#ffffff" d="M0 0L744.0 0L744.0 567.0L0 567.0L0 0Z" fill-rule="nonzero"/><path fill="#ffffff" d="M28.35 71.25L715.64996 71.25L715.64996 538.65L28.35 538.65L28.35 71.25Z" fill-rule="nonzero"/><path stroke="#cccccc" stroke-width="1.0" stroke-linecap="butt" d="M372.0 305.0C372.0 305.0 372.0 305.0 372.0 305.0C372.0 305.0 372.0 305.0 372.0 305.0C372.0 305.0 372.0 305.0 372.0 305.0C372.0 305.0 372.0 305.0 372.0 305.0" fill-rule="nonzero"/><path fill="#000000" d="M360.0625 297.04688L360.0625 298.35938Q360.0625 299.40625 359.875 300.125Q359.6875 300.84375 359.32812 301.28125Q358.98438 301.71875 358.48438 301.92188Q358.0 302.125 357.375 302.125Q356.89062 302.125 356.46875 302.0Q356.04688 301.875 355.71875 301.60938Q355.39062 301.32812 355.15625 300.89062Q354.92188 300.45312 354.79688 299.82812Q354.67188 299.1875 354.67188 298.35938L354.67188 297.04688Q354.67188 296.0 354.85938 295.29688Q355.0625 294.59375 355.40625 294.15625Q355.76562 293.71875 356.25 293.53125Q356.75 293.34375 357.35938 293.34375Q357.85938 293.34375 358.28125 293.46875Q358.70312 293.59375 359.03125 293.85938Q359.35938 294.10938 359.57812 294.54688Q359.8125 294.96875 359.9375 295.59375Q360.0625 296.21875 360.0625 297.04688ZM358.96875 298.53125L358.96875 296.875Q358.96875 296.29688 358.90625 295.85938Q358.84375 295.42188 358.70312 295.10938Q358.57812 294.79688 358.375 294.60938Q358.1875 294.42188 357.9375 294.32812Q357.6875 294.23438 357.35938 294.23438Q356.98438 294.23438 356.67188 294.375Q356.375 294.51562 356.17188 294.82812Q355.96875 295.14062 355.85938 295.65625Q355.76562 296.15625 355.76562 296.875L355.76562 298.53125Q355.76562 299.10938 355.82812 299.54688Q355.90625 299.98438 356.03125 300.3125Q356.17188 300.625 356.35938 300.82812Q356.5625 301.03125 356.8125 301.125Q357.0625 301.21875 357.375 301.21875Q357.78125 301.21875 358.07812 301.07812Q358.375 300.92188 358.57812 300.59375Q358.78125 300.26562 358.875 299.76562Q358.96875 299.25 358.96875 298.53125ZM362.8125 300.70312L362.8125 301.57812Q362.8125 302.125 362.53125 302.71875Q362.26562 303.3125 361.78125 303.70312L361.17188 303.28125Q361.35938 303.01562 361.48438 302.75Q361.60938 302.48438 361.67188 302.20312Q361.75 301.92188 361.75 301.59375L361.75 300.70312L362.8125 300.70312ZM369.0625 297.04688L369.0625 298.35938Q369.0625 299.40625 368.875 300.125Q368.6875 300.84375 368.32812 301.28125Q367.98438 301.71875 367.48438 301.92188Q367.0 302.125 366.375 302.125Q365.89062 302.125 365.46875 302.0Q365.04688 301.875 364.71875 301.60938Q364.39062 301.32812 364.15625 300.89062Q363.92188 300.45312 363.79688 299.82812Q363.67188 299.1875 363.67188 298.35938L363.67188 297.04688Q363.67188 296.0 363.85938 295.29688Q364.0625 294.59375 364.40625 294.15625Q364.76562 293.71875 365.25 293.53125Q365.75 293.34375 366.35938 293.34375Q366.85938 293.34375 367.28125 293.46875Q367.70312 293.59375 368.03125 293.85938Q368.35938 294.10938 368.57812 294.54688Q368.8125 294.96875 368.9375 295.59375Q369.0625 296.21875 369.0625 297.04688ZM367.96875 298.53125L367.96875 296.875Q367.96875 296.29688 367.90625 295.85938Q367.84375 295.42188 367.70312 295.10938Q367.57812 294.79688 367.375 294.60938Q367.1875 294.42188 366.9375 294.32812Q366.6875 294.23438 366.35938 294.23438Q365.98438 294.23438 365.67188 294.375Q365.375 294.51562 365.17188 294.82812Q364.96875 295.14062 364.85938 295.65625Q364.76562 296.15625 364.76562 296.875L364.76562 298.53125Q364.76562 299.10938 364.82812 299.54688Q364.90625 299.98438 365.03125 300.3125Q365.17188 300.625 365.35938 300.82812Q365.5625 301.03125 365.8125 301.125Q366.0625 301.21875 366.375 301.21875Q366.78125 301.21875 367.07812 301.07812Q367.375 300.92188 367.57812 300.59375Q367.78125 300.26562 367.875 299.76562Q367.96875 299.25 367.96875 298.53125Z" fill-rule="nonzero"/><path stroke="#cccccc" stroke-width="1.0" stroke-linecap="butt" d="M422.425 305.0C422.425 277.15103 399.84897 254.575 372.0 254.575C344.15103 254.575 321.575 277.15103 321.575 305.0C321.575 332.84897 344.15103 355.425 372.0 355.425C399.84897 355.425 422.425 332.84897 422.425 305.0" fill-rule="nonzero"/><path fill="#000000" d="M360.0625 246.62187L360.0625 247.93437Q360.0625 248.98125 359.875 249.7Q359.6875 250.41875 359.32812 250.85625Q358.98438 251.29375 358.48438 251.49687Q358.0 251.7 357.375 251.7Q356.89062 251.7 356.46875 251.575Q356.04688 251.45 355.71875 251.18437Q355.39062 250.90312 355.15625 250.46562Q354.92188 250.02812 354.79688 249.40312Q354.67188 248.7625 354.67188 247.93437L354.67188 246.62187Q354.67188 245.575 354.85938 244.87187Q355.0625 244.16875 355.40625 243.73125Q355.76562 243.29375 356.25 243.10625Q356.75 242.91875 357.35938 242.91875Q357.85938 242.91875 358.28125 243.04375Q358.70312 243.16875 359.03125 243.43437Q359.35938 243.68437 359.57812 244.12187Q359.8125 244.54375 359.9375 245.16875Q360.0625 245.79375 360.0625 246.62187ZM358.96875 248.10625L358.96875 246.45Q358.96875 245.87187 358.90625 245.43437Q358.84375 244.99687 358.70312 244.68437Q358.57812 244.37187 358.375 244.18437Q358.1875 243.99687 357.9375 243.90312Q357.6875 243.80937 357.35938 243.80937Q356.98438 243.80937 356.67188 243.95Q356.375 244.09062 356.17188 244.40312Q355.96875 244.71562 355.85938 245.23125Q355.76562 245.73125 355.76562 246.45L355.76562 248.10625Q355.76562 248.68437 355.82812 249.12187Q355.90625 249.55937 356.03125 249.8875Q356.17188 250.2 356.35938 250.40312Q356.5625 250.60625 356.8125 250.7Q357.0625 250.79375 357.375 250.79375Q357.78125 250.79375 358.07812 250.65312Q358.375 250.49687 358.57812 250.16875Q358.78125 249.84062 358.875 249.34062Q358.96875 248.825 358.96875 248.10625ZM362.8125 250.27812L362.8125 251.15312Q362.8125 251.7 362.53125 252.29375Q362.26562 252.8875 361.78125 253.27812L361.17188 252.85625Q361.35938 252.59062 361.48438 252.325Q361.60938 252.05937 361.67188 251.77812Q361.75 251.49687 361.75 251.16875L361.75 250.27812L362.8125 250.27812ZM367.26562 242.99687L367.26562 251.575L366.1875 251.575L366.1875 244.35625L364.0 245.15312L364.0 244.16875L367.10938 242.99687L367.26562 242.99687Z" fill-rule="nonzero"/><path stroke="#cccccc" stroke-width="1.0" stroke-linecap="butt" d="M472.85 305.0C472.85 249.30208 427.6979 204.15 372.0 204.15C316.3021 204.15 271.15 249.30208 271.15 305.0C271.15 360.6979 316.3021 405.85 372.0 405.85C427.6979 405.85 472.85 360.6979 472.85 305.0" fill-rule="nonzero"/><path fill="#000000" d="M360.0625 196.19687L360.0625 197.50937Q360.0625 198.55624 359.875 199.275Q359.6875 199.99374 359.32812 200.43124Q358.98438 200.86874 358.48438 201.07187Q358.0 201.275 357.375 201.275Q356.89062 201.275 356.46875 201.15Q356.04688 201.025 355.71875 200.75937Q355.39062 200.47812 355.15625 200.04062Q354.92188 199.60312 354.79688 198.97812Q354.67188 198.3375 354.67188 197.50937L354.67188 196.19687Q354.67188 195.15 354.85938 194.44687Q355.0625 193.74374 355.40625 193.30624Q355.76562 192.86874 356.25 192.68124Q356.75 192.49374 357.35938 192.49374Q357.85938 192.49374 358.28125 192.61874Q358.70312 192.74374 359.03125 193.00937Q359.35938 193.25937 359.57812 193.69687Q359.8125 194.11874 359.9375 194.74374Q360.0625 195.36874 360.0625 196.19687ZM358.96875 197.68124L358.96875 196.025Q358.96875 195.44687 358.90625 195.00937Q358.84375 194.57187 358.70312 194.25937Q358.57812 193.94687 358.375 193.75937Q358.1875 193.57187 357.9375 193.47812Q357.6875 193.38437 357.35938 193.38437Q356.98438 193.38437 356.67188 193.525Q356.375 193.66562 356.17188 193.97812Q355.96875 194.29062 355.85938 194.80624Q355.76562 195.30624 355.76562 196.025L355.76562 197.68124Q355.76562 198.25937 355.82812 198.69687Q355.90625 199.13437 356.03125 199.4625Q356.17188 199.775 356.35938 199.97812Q356.5625 200.18124 356.8125 200.275Q357.0625 200.36874 357.375 200.36874Q357.78125 200.36874 358.07812 200.22812Q358.375 200.07187 358.57812 199.74374Q358.78125 199.41562 358.875 198.91562Q358.96875 198.4 358.96875 197.68124ZM362.8125 199.85312L362.8125 200.72812Q362.8125 201.275 362.53125 201.86874Q362.26562 202.4625 361.78125 202.85312L361.17188 202.43124Q361.35938 202.16562 361.48438 201.9Q361.60938 201.63437 361.67188 201.35312Q361.75 201.07187 361.75 200.74374L361.75 199.85312L362.8125 199.85312ZM369.29688 200.25937L369.29688 201.15L363.71875 201.15L363.71875 200.36874L366.51562 197.25937Q367.03125 196.68124 367.3125 196.29062Q367.59375 195.88437 367.70312 195.57187Q367.82812 195.24374 367.82812 194.91562Q367.82812 194.49374 367.65625 194.15Q367.48438 193.80624 367.14062 193.60312Q366.8125 193.38437 366.32812 193.38437Q365.76562 193.38437 365.39062 193.61874Q365.01562 193.8375 364.82812 194.22812Q364.64062 194.61874 364.64062 195.11874L363.54688 195.11874Q363.54688 194.4 363.85938 193.80624Q364.1875 193.2125 364.79688 192.85312Q365.42188 192.49374 366.32812 192.49374Q367.14062 192.49374 367.71875 192.79062Q368.29688 193.07187 368.59375 193.5875Q368.90625 194.0875 368.90625 194.775Q368.90625 195.15 368.78125 195.54062Q368.65625 195.91562 368.4375 196.30624Q368.21875 196.68124 367.92188 197.05624Q367.64062 197.41562 367.3125 197.775L365.01562 200.25937L369.29688 200.25937Z" fill-rule="nonzero"/><path stroke="#cccccc" stroke-width="1.0" stroke-linecap="butt" d="M523.275 305.0C523.275 221.45312 455.54688 153.725 372.0 153.725C288.45312 153.725 220.725 221.45312 220.725 305.0C220.725 388.54688 288.45312 456.275 372.0 456.275C455.54688 456.275 523.275 388.54688 523.275 305.0" fill-rule="nonzero"/><path fill="#000000" d="M360.0625 145.77188L360.0625 147.08438Q360.0625 148.13126 359.875 148.85Q359.6875 149.56876 359.32812 150.00626Q358.98438 150.44376 358.48438 150.64688Q358.0 150.85 357.375 150.85Q356.89062 150.85 356.46875 150.725Q356.04688 150.6 355.71875 150.33438Q355.39062 150.05313 355.15625 149.61563Q354.92188 149.17813 354.79688 148.55313Q354.67188 147.9125 354.67188 147.08438L354.67188 145.77188Q354.67188 144.725 354.85938 144.02188Q355.0625 143.31876 355.40625 142.88126Q355.76562 142.44376 356.25 142.25626Q356.75 142.06876 357.35938 142.06876Q357.85938 142.06876 358.28125 142.19376Q358.70312 142.31876 359.03125 142.58438Q359.35938 142.83438 359.57812 143.27188Q359.8125 143.69376 359.9375 144.31876Q360.0625 144.94376 360.0625 145.77188ZM358.96875 147.25626L358.96875 145.6Q358.96875 145.02188 358.90625 144.58438Q358.84375 144.14688 358.70312 143.83438Q358.57812 143.52188 358.375 143.33438Q358.1875 143.14688 357.9375 143.05313Q357.6875 142.95938 357.35938 142.95938Q356.98438 142.95938 356.67188 143.1Q356.375 143.24063 356.17188 143.55313Q355.96875 143.86563 355.85938 144.38126Q355.76562 144.88126 355.76562 145.6L355.76562 147.25626Q355.76562 147.83438 355.82812 148.27188Q355.90625 148.70938 356.03125 149.0375Q356.17188 149.35 356.35938 149.55313Q356.5625 149.75626 356.8125 149.85Q357.0625 149.94376 357.375 149.94376Q357.78125 149.94376 358.07812 149.80313Q358.375 149.64688 358.57812 149.31876Q358.78125 148.99063 358.875 148.49063Q358.96875 147.975 358.96875 147.25626ZM362.8125 149.42813L362.8125 150.30313Q362.8125 150.85 362.53125 151.44376Q362.26562 152.0375 361.78125 152.42813L361.17188 152.00626Q361.35938 151.74063 361.48438 151.475Q361.60938 151.20938 361.67188 150.92813Q361.75 150.64688 361.75 150.31876L361.75 149.42813L362.8125 149.42813ZM365.29688 145.92813L366.0625 145.92813Q366.64062 145.92813 367.0 145.74063Q367.375 145.5375 367.5625 145.20938Q367.75 144.88126 367.75 144.45938Q367.75 143.975 367.57812 143.64688Q367.42188 143.30313 367.09375 143.13126Q366.76562 142.95938 366.26562 142.95938Q365.79688 142.95938 365.45312 143.14688Q365.10938 143.31876 364.90625 143.64688Q364.71875 143.975 364.71875 144.42813L363.625 144.42813Q363.625 143.77188 363.95312 143.24063Q364.28125 142.70938 364.875 142.39688Q365.46875 142.06876 366.26562 142.06876Q367.03125 142.06876 367.60938 142.35Q368.1875 142.61563 368.51562 143.1625Q368.84375 143.69376 368.84375 144.49063Q368.84375 144.81876 368.6875 145.17813Q368.53125 145.5375 368.21875 145.86563Q367.90625 146.17813 367.40625 146.38126Q366.92188 146.58438 366.21875 146.58438L365.29688 146.58438L365.29688 145.92813ZM365.29688 146.81876L365.29688 146.1625L366.21875 146.1625Q367.03125 146.1625 367.5625 146.36563Q368.09375 146.55313 368.40625 146.88126Q368.71875 147.19376 368.84375 147.58438Q368.96875 147.95938 368.96875 148.35Q368.96875 148.94376 368.76562 149.4125Q368.5625 149.86563 368.1875 150.19376Q367.82812 150.50626 367.32812 150.67813Q366.84375 150.85 366.26562 150.85Q365.70312 150.85 365.21875 150.69376Q364.73438 150.52188 364.35938 150.225Q363.98438 149.92813 363.76562 149.49063Q363.5625 149.0375 363.5625 148.475L364.64062 148.475Q364.64062 148.9125 364.82812 149.25626Q365.03125 149.58438 365.39062 149.77188Q365.76562 149.94376 366.26562 149.94376Q366.76562 149.94376 367.125 149.77188Q367.48438 149.6 367.67188 149.25626Q367.875 148.89688 367.875 148.36563Q367.875 147.83438 367.65625 147.49063Q367.4375 147.14688 367.01562 146.99063Q366.60938 146.81876 366.0625 146.81876L365.29688 146.81876Z" fill-rule="nonzero"/><path stroke="#cccccc" stroke-width="1.0" stroke-linecap="butt" d="M573.7 305.0C573.7 193.60417 483.39584 103.3 372.0 103.3C260.60416 103.3 170.3 193.60417 170.3 305.0C170.3 416.39584 260.60416 506.7 372.0 506.7C483.39584 506.7 573.7 416.39584 573.7 305.0" fill-rule="nonzero"/><path fill="#000000" d="M360.0625 95.34688L360.0625 96.65938Q360.0625 97.70625 359.875 98.425Q359.6875 99.14375 359.32812 99.58125Q358.98438 100.01875 358.48438 100.22188Q358.0 100.425 357.375 100.425Q356.89062 100.425 356.46875 100.3Q356.04688 100.175 355.71875 99.90938Q355.39062 99.62813 355.15625 99.19063Q354.92188 98.75313 354.79688 98.12813Q354.67188 97.4875 354.67188 96.65938L354.67188 95.34688Q354.67188 94.3 354.85938 93.59688Q355.0625 92.89375 355.40625 92.45625Q355.76562 92.01875 356.25 91.83125Q356.75 91.64375 357.35938 91.64375Q357.85938 91.64375 358.28125 91.76875Q358.70312 91.89375 359.03125 92.15938Q359.35938 92.40938 359.57812 92.84688Q359.8125 93.26875 359.9375 93.89375Q360.0625 94.51875 360.0625 95.34688ZM358.96875 96.83125L358.96875 95.175Q358.96875 94.59688 358.90625 94.15938Q358.84375 93.72188 358.70312 93.40938Q358.57812 93.09688 358.375 92.90938Q358.1875 92.72188 357.9375 92.62813Q357.6875 92.53438 357.35938 92.53438Q356.98438 92.53438 356.67188 92.675Q356.375 92.81563 356.17188 93.12813Q355.96875 93.44063 355.85938 93.95625Q355.76562 94.45625 355.76562 95.175L355.76562 96.83125Q355.76562 97.40938 355.82812 97.84688Q355.90625 98.28438 356.03125 98.6125Q356.17188 98.925 356.35938 99.12813Q356.5625 99.33125 356.8125 99.425Q357.0625 99.51875 357.375 99.51875Q357.78125 99.51875 358.07812 99.37813Q358.375 99.22188 358.57812 98.89375Q358.78125 98.56563 358.875 98.06563Q358.96875 97.55 358.96875 96.83125ZM362.8125 99.00313L362.8125 99.87813Q362.8125 100.425 362.53125 101.01875Q362.26562 101.6125 361.78125 102.00313L361.17188 101.58125Q361.35938 101.31563 361.48438 101.05Q361.60938 100.78438 361.67188 100.50313Q361.75 100.22188 361.75 99.89375L361.75 99.00313L362.8125 99.00313ZM369.46875 97.425L369.46875 98.31563L363.3125 98.31563L363.3125 97.675L367.125 91.76875L368.01562 91.76875L367.0625 93.47188L364.54688 97.425L369.46875 97.425ZM368.28125 91.76875L368.28125 100.3L367.20312 100.3L367.20312 91.76875L368.28125 91.76875Z" fill-rule="nonzero"/><path stroke="#cccccc" stroke-width="1.0" stroke-linecap="butt" d="M372.0 305.0L372.0 103.0" fill-rule="nonzero"/><path fill="#000000" d="M342.64062 80.78125L343.76562 80.78125Q343.67188 81.59375 343.29688 82.234375Q342.92188 82.875 342.23438 83.25Q341.5625 83.625 340.53125 83.625Q339.78125 83.625 339.17188 83.34375Q338.5625 83.046875 338.10938 82.53125Q337.67188 82.015625 337.4375 81.296875Q337.20312 80.5625 337.20312 79.65625L337.20312 78.8125Q337.20312 77.921875 337.4375 77.1875Q337.67188 76.453125 338.125 75.9375Q338.57812 75.40625 339.20312 75.125Q339.84375 74.84375 340.625 74.84375Q341.59375 74.84375 342.26562 75.21875Q342.9375 75.578125 343.29688 76.21875Q343.67188 76.859375 343.76562 77.703125L342.64062 77.703125Q342.5625 77.109375 342.32812 76.6875Q342.10938 76.25 341.70312 76.015625Q341.29688 75.78125 340.625 75.78125Q340.0625 75.78125 339.625 76.0Q339.20312 76.203125 338.90625 76.609375Q338.625 77.0 338.46875 77.5625Q338.32812 78.125 338.32812 78.796875L338.32812 79.65625Q338.32812 80.28125 338.45312 80.84375Q338.59375 81.390625 338.85938 81.8125Q339.125 82.21875 339.54688 82.46875Q339.96875 82.703125 340.53125 82.703125Q341.25 82.703125 341.67188 82.46875Q342.10938 82.234375 342.32812 81.8125Q342.54688 81.390625 342.64062 80.78125ZM349.0625 82.421875L349.0625 79.15625Q349.0625 78.78125 348.90625 78.5Q348.76562 78.21875 348.46875 78.078125Q348.17188 77.921875 347.73438 77.921875Q347.3125 77.921875 347.0 78.0625Q346.70312 78.203125 346.53125 78.4375Q346.35938 78.65625 346.35938 78.921875L345.28125 78.921875Q345.28125 78.578125 345.45312 78.25Q345.625 77.90625 345.95312 77.640625Q346.28125 77.359375 346.75 77.203125Q347.21875 77.046875 347.79688 77.046875Q348.48438 77.046875 349.01562 77.28125Q349.54688 77.515625 349.84375 77.984375Q350.15625 78.453125 350.15625 79.15625L350.15625 82.109375Q350.15625 82.4375 350.20312 82.796875Q350.26562 83.140625 350.375 83.40625L350.375 83.5L349.23438 83.5Q349.15625 83.3125 349.10938 83.0Q349.0625 82.6875 349.0625 82.421875ZM349.25 79.65625L349.26562 80.421875L348.17188 80.421875Q347.70312 80.421875 347.34375 80.5Q346.98438 80.5625 346.73438 80.71875Q346.48438 80.859375 346.35938 81.078125Q346.23438 81.296875 346.23438 81.59375Q346.23438 81.890625 346.35938 82.140625Q346.5 82.375 346.76562 82.53125Q347.04688 82.671875 347.4375 82.671875Q347.9375 82.671875 348.3125 82.46875Q348.70312 82.25 348.92188 81.953125Q349.15625 81.640625 349.17188 81.34375L349.64062 81.875Q349.59375 82.109375 349.40625 82.421875Q349.23438 82.71875 348.92188 83.0Q348.625 83.265625 348.20312 83.453125Q347.79688 83.625 347.28125 83.625Q346.64062 83.625 346.15625 83.375Q345.67188 83.109375 345.40625 82.6875Q345.14062 82.265625 345.14062 81.734375Q345.14062 81.21875 345.32812 80.84375Q345.53125 80.453125 345.90625 80.1875Q346.28125 79.921875 346.8125 79.796875Q347.34375 79.65625 348.0 79.65625L349.25 79.65625ZM353.40625 78.15625L353.40625 83.5L352.32812 83.5L352.32812 77.15625L353.375 77.15625L353.40625 78.15625ZM355.39062 77.125L355.39062 78.125Q355.25 78.109375 355.125 78.09375Q355.01562 78.078125 354.85938 78.078125Q354.48438 78.078125 354.1875 78.203125Q353.90625 78.3125 353.70312 78.53125Q353.51562 78.734375 353.39062 79.03125Q353.28125 79.328125 353.25 79.671875L352.9375 79.84375Q352.9375 79.265625 353.04688 78.765625Q353.17188 78.265625 353.40625 77.875Q353.65625 77.484375 354.01562 77.265625Q354.39062 77.046875 354.90625 77.046875Q355.03125 77.046875 355.17188 77.078125Q355.32812 77.09375 355.39062 77.125ZM358.10938 82.84375L359.875 77.15625L361.03125 77.15625L358.48438 84.484375Q358.40625 84.71875 358.25 84.984375Q358.10938 85.265625 357.89062 85.5Q357.67188 85.75 357.35938 85.90625Q357.04688 86.0625 356.60938 86.0625Q356.48438 86.0625 356.28125 86.015625Q356.07812 85.984375 356.0 85.96875L356.0 85.09375Q356.04688 85.09375 356.14062 85.09375Q356.25 85.109375 356.28125 85.109375Q356.65625 85.109375 356.90625 85.015625Q357.17188 84.921875 357.34375 84.6875Q357.53125 84.46875 357.65625 84.078125L358.10938 82.84375ZM356.8125 77.15625L358.45312 82.078125L358.73438 83.21875L357.96875 83.625L355.625 77.15625L356.8125 77.15625ZM362.04688 80.40625L362.04688 80.265625Q362.04688 79.578125 362.23438 79.0Q362.4375 78.40625 362.8125 77.96875Q363.1875 77.53125 363.71875 77.296875Q364.25 77.046875 364.92188 77.046875Q365.57812 77.046875 366.10938 77.296875Q366.65625 77.53125 367.03125 77.96875Q367.40625 78.40625 367.60938 79.0Q367.8125 79.578125 367.8125 80.265625L367.8125 80.40625Q367.8125 81.078125 367.60938 81.671875Q367.40625 82.25 367.03125 82.6875Q366.65625 83.125 366.125 83.375Q365.59375 83.625 364.92188 83.625Q364.26562 83.625 363.71875 83.375Q363.1875 83.125 362.8125 82.6875Q362.4375 82.25 362.23438 81.671875Q362.04688 81.078125 362.04688 80.40625ZM363.125 80.265625L363.125 80.40625Q363.125 80.875 363.23438 81.296875Q363.34375 81.71875 363.5625 82.046875Q363.79688 82.359375 364.14062 82.546875Q364.48438 82.71875 364.92188 82.71875Q365.375 82.71875 365.70312 82.546875Q366.04688 82.359375 366.26562 82.046875Q366.5 81.71875 366.60938 81.296875Q366.71875 80.875 366.71875 80.40625L366.71875 80.265625Q366.71875 79.796875 366.60938 79.375Q366.5 78.953125 366.26562 78.640625Q366.04688 78.3125 365.70312 78.125Q365.375 77.9375 364.92188 77.9375Q364.46875 77.9375 364.125 78.125Q363.79688 78.3125 363.5625 78.640625Q363.34375 78.953125 363.23438 79.375Q363.125 79.796875 363.125 80.265625ZM370.40625 78.375L370.40625 85.9375L369.32812 85.9375L369.32812 77.15625L370.3125 77.15625L370.40625 78.375ZM374.6875 80.28125L374.6875 80.40625Q374.6875 81.09375 374.51562 81.6875Q374.35938 82.265625 374.04688 82.703125Q373.73438 83.140625 373.26562 83.390625Q372.8125 83.625 372.21875 83.625Q371.625 83.625 371.15625 83.421875Q370.6875 83.21875 370.35938 82.84375Q370.04688 82.453125 369.85938 81.921875Q369.67188 81.390625 369.59375 80.71875L369.59375 80.0625Q369.67188 79.359375 369.85938 78.8125Q370.04688 78.25 370.35938 77.859375Q370.6875 77.453125 371.14062 77.25Q371.60938 77.046875 372.20312 77.046875Q372.79688 77.046875 373.26562 77.28125Q373.73438 77.5 374.04688 77.9375Q374.35938 78.359375 374.51562 78.953125Q374.6875 79.546875 374.6875 80.28125ZM373.59375 80.40625L373.59375 80.28125Q373.59375 79.796875 373.48438 79.390625Q373.39062 78.96875 373.1875 78.65625Q372.98438 78.328125 372.65625 78.140625Q372.32812 77.953125 371.89062 77.953125Q371.48438 77.953125 371.17188 78.09375Q370.875 78.234375 370.65625 78.484375Q370.45312 78.71875 370.3125 79.015625Q370.1875 79.3125 370.125 79.640625L370.125 81.15625Q370.23438 81.5625 370.4375 81.921875Q370.65625 82.28125 371.0 82.5Q371.35938 82.71875 371.90625 82.71875Q372.34375 82.71875 372.65625 82.546875Q372.98438 82.359375 373.1875 82.046875Q373.39062 81.71875 373.48438 81.296875Q373.59375 80.875 373.59375 80.40625ZM377.40625 74.5L377.40625 83.5L376.32812 83.5L376.32812 74.5L377.40625 74.5ZM377.15625 80.09375L376.70312 80.078125Q376.70312 79.421875 376.89062 78.875Q377.07812 78.3125 377.42188 77.90625Q377.76562 77.5 378.23438 77.28125Q378.70312 77.046875 379.28125 77.046875Q379.75 77.046875 380.125 77.171875Q380.5 77.296875 380.76562 77.578125Q381.03125 77.84375 381.17188 78.28125Q381.3125 78.71875 381.3125 79.34375L381.3125 83.5L380.21875 83.5L380.21875 79.328125Q380.21875 78.828125 380.07812 78.53125Q379.9375 78.234375 379.65625 78.09375Q379.375 77.953125 378.95312 77.953125Q378.54688 77.953125 378.21875 78.125Q377.89062 78.296875 377.65625 78.59375Q377.42188 78.890625 377.28125 79.28125Q377.15625 79.65625 377.15625 80.09375ZM385.10938 82.84375L386.875 77.15625L388.03125 77.15625L385.48438 84.484375Q385.40625 84.71875 385.25 84.984375Q385.10938 85.265625 384.89062 85.5Q384.67188 85.75 384.35938 85.90625Q384.04688 86.0625 383.60938 86.0625Q383.48438 86.0625 383.28125 86.015625Q383.07812 85.984375 383.0 85.96875L383.0 85.09375Q383.04688 85.09375 383.14062 85.09375Q383.25 85.109375 383.28125 85.109375Q383.65625 85.109375 383.90625 85.015625Q384.17188 84.921875 384.34375 84.6875Q384.53125 84.46875 384.65625 84.078125L385.10938 82.84375ZM383.8125 77.15625L385.45312 82.078125L385.73438 83.21875L384.96875 83.625L382.625 77.15625L383.8125 77.15625ZM390.5 74.5L390.5 83.5L389.42188 83.5L389.42188 74.5L390.5 74.5ZM393.5 74.5L393.5 83.5L392.42188 83.5L392.42188 74.5L393.5 74.5ZM397.95312 83.625Q397.29688 83.625 396.75 83.40625Q396.21875 83.171875 395.82812 82.765625Q395.45312 82.34375 395.25 81.78125Q395.04688 81.21875 395.04688 80.546875L395.04688 80.3125Q395.04688 79.53125 395.26562 78.921875Q395.5 78.3125 395.89062 77.890625Q396.28125 77.46875 396.78125 77.265625Q397.28125 77.046875 397.8125 77.046875Q398.5 77.046875 398.98438 77.28125Q399.48438 77.515625 399.79688 77.9375Q400.125 78.34375 400.26562 78.921875Q400.42188 79.484375 400.42188 80.140625L400.42188 80.640625L395.6875 80.640625L395.6875 79.75L399.34375 79.75L399.34375 79.671875Q399.3125 79.25 399.15625 78.859375Q399.01562 78.453125 398.6875 78.203125Q398.375 77.9375 397.8125 77.9375Q397.45312 77.9375 397.14062 78.09375Q396.82812 78.25 396.59375 78.5625Q396.375 78.859375 396.25 79.296875Q396.14062 79.734375 396.14062 80.3125L396.14062 80.546875Q396.14062 81.0 396.26562 81.40625Q396.39062 81.796875 396.625 82.09375Q396.875 82.390625 397.21875 82.5625Q397.57812 82.734375 398.01562 82.734375Q398.59375 82.734375 398.98438 82.5Q399.39062 82.265625 399.6875 81.875L400.34375 82.390625Q400.14062 82.703125 399.8125 82.984375Q399.5 83.265625 399.03125 83.453125Q398.57812 83.625 397.95312 83.625ZM402.40625 78.515625L402.40625 83.5L401.32812 83.5L401.32812 77.15625L402.35938 77.15625L402.40625 78.515625ZM402.15625 80.09375L401.70312 80.078125Q401.70312 79.421875 401.89062 78.875Q402.07812 78.3125 402.42188 77.90625Q402.76562 77.5 403.23438 77.28125Q403.70312 77.046875 404.28125 77.046875Q404.75 77.046875 405.125 77.171875Q405.5 77.296875 405.76562 77.578125Q406.03125 77.84375 406.17188 78.28125Q406.3125 78.71875 406.3125 79.34375L406.3125 83.5L405.21875 83.5L405.21875 79.328125Q405.21875 78.828125 405.07812 78.53125Q404.9375 78.234375 404.65625 78.09375Q404.375 77.953125 403.95312 77.953125Q403.54688 77.953125 403.21875 78.125Q402.89062 78.296875 402.65625 78.59375Q402.42188 78.890625 402.28125 79.28125Q402.15625 79.65625 402.15625 80.09375Z" fill-rule="nonzero"/><path stroke="#cccccc" stroke-width="1.0" stroke-linecap="butt" d="M372.0 305.0L547.0 204.0" fill-rule="nonzero"/><path fill="#000000" d="M543.6406 187.96875L543.6406 196.5L542.53125 196.5L542.53125 187.96875L543.6406 187.96875ZM546.3906 187.96875L546.3906 188.89062L539.7969 188.89062L539.7969 187.96875L546.3906 187.96875ZM549.9531 196.625Q549.2969 196.625 548.75 196.40625Q548.21875 196.17188 547.8281 195.76562Q547.4531 195.34375 547.25 194.78125Q547.0469 194.21875 547.0469 193.54688L547.0469 193.3125Q547.0469 192.53125 547.2656 191.92188Q547.5 191.3125 547.8906 190.89062Q548.28125 190.46875 548.78125 190.26562Q549.28125 190.04688 549.8125 190.04688Q550.5 190.04688 550.9844 190.28125Q551.4844 190.51562 551.7969 190.9375Q552.125 191.34375 552.2656 191.92188Q552.4219 192.48438 552.4219 193.14062L552.4219 193.64062L547.6875 193.64062L547.6875 192.75L551.34375 192.75L551.34375 192.67188Q551.3125 192.25 551.15625 191.85938Q551.0156 191.45312 550.6875 191.20312Q550.375 190.9375 549.8125 190.9375Q549.4531 190.9375 549.1406 191.09375Q548.8281 191.25 548.59375 191.5625Q548.375 191.85938 548.25 192.29688Q548.1406 192.73438 548.1406 193.3125L548.1406 193.54688Q548.1406 194.0 548.2656 194.40625Q548.3906 194.79688 548.625 195.09375Q548.875 195.39062 549.21875 195.5625Q549.5781 195.73438 550.0156 195.73438Q550.59375 195.73438 550.9844 195.5Q551.3906 195.26562 551.6875 194.875L552.34375 195.39062Q552.1406 195.70312 551.8125 195.98438Q551.5 196.26562 551.03125 196.45312Q550.5781 196.625 549.9531 196.625ZM554.40625 191.15625L554.40625 196.5L553.3281 196.5L553.3281 190.15625L554.375 190.15625L554.40625 191.15625ZM556.3906 190.125L556.3906 191.125Q556.25 191.10938 556.125 191.09375Q556.0156 191.07812 555.8594 191.07812Q555.4844 191.07812 555.1875 191.20312Q554.90625 191.3125 554.7031 191.53125Q554.5156 191.73438 554.3906 192.03125Q554.28125 192.32812 554.25 192.67188L553.9375 192.84375Q553.9375 192.26562 554.0469 191.76562Q554.1719 191.26562 554.40625 190.875Q554.65625 190.48438 555.0156 190.26562Q555.3906 190.04688 555.90625 190.04688Q556.03125 190.04688 556.1719 190.07812Q556.3281 190.09375 556.3906 190.125ZM558.40625 191.375L558.40625 198.9375L557.3281 198.9375L557.3281 190.15625L558.3125 190.15625L558.40625 191.375ZM562.6875 193.28125L562.6875 193.40625Q562.6875 194.09375 562.5156 194.6875Q562.3594 195.26562 562.0469 195.70312Q561.7344 196.14062 561.2656 196.39062Q560.8125 196.625 560.21875 196.625Q559.625 196.625 559.15625 196.42188Q558.6875 196.21875 558.3594 195.84375Q558.0469 195.45312 557.8594 194.92188Q557.6719 194.39062 557.59375 193.71875L557.59375 193.0625Q557.6719 192.35938 557.8594 191.8125Q558.0469 191.25 558.3594 190.85938Q558.6875 190.45312 559.1406 190.25Q559.6094 190.04688 560.2031 190.04688Q560.7969 190.04688 561.2656 190.28125Q561.7344 190.5 562.0469 190.9375Q562.3594 191.35938 562.5156 191.95312Q562.6875 192.54688 562.6875 193.28125ZM561.59375 193.40625L561.59375 193.28125Q561.59375 192.79688 561.4844 192.39062Q561.3906 191.96875 561.1875 191.65625Q560.9844 191.32812 560.65625 191.14062Q560.3281 190.95312 559.8906 190.95312Q559.4844 190.95312 559.1719 191.09375Q558.875 191.23438 558.65625 191.48438Q558.4531 191.71875 558.3125 192.01562Q558.1875 192.3125 558.125 192.64062L558.125 194.15625Q558.2344 194.5625 558.4375 194.92188Q558.65625 195.28125 559.0 195.5Q559.3594 195.71875 559.90625 195.71875Q560.34375 195.71875 560.65625 195.54688Q560.9844 195.35938 561.1875 195.04688Q561.3906 194.71875 561.4844 194.29688Q561.59375 193.875 561.59375 193.40625ZM565.5 190.15625L565.5 196.5L564.4219 196.5L564.4219 190.15625L565.5 190.15625ZM564.3281 188.48438Q564.3281 188.21875 564.4844 188.03125Q564.65625 187.84375 564.96875 187.84375Q565.28125 187.84375 565.4375 188.03125Q565.6094 188.21875 565.6094 188.48438Q565.6094 188.73438 565.4375 188.92188Q565.28125 189.09375 564.96875 189.09375Q564.65625 189.09375 564.4844 188.92188Q564.3281 188.73438 564.3281 188.48438ZM568.40625 191.51562L568.40625 196.5L567.3281 196.5L567.3281 190.15625L568.3594 190.15625L568.40625 191.51562ZM568.15625 193.09375L567.7031 193.07812Q567.7031 192.42188 567.8906 191.875Q568.0781 191.3125 568.4219 190.90625Q568.7656 190.5 569.2344 190.28125Q569.7031 190.04688 570.28125 190.04688Q570.75 190.04688 571.125 190.17188Q571.5 190.29688 571.7656 190.57812Q572.03125 190.84375 572.1719 191.28125Q572.3125 191.71875 572.3125 192.34375L572.3125 196.5L571.21875 196.5L571.21875 192.32812Q571.21875 191.82812 571.0781 191.53125Q570.9375 191.23438 570.65625 191.09375Q570.375 190.95312 569.9531 190.95312Q569.5469 190.95312 569.21875 191.125Q568.8906 191.29688 568.65625 191.59375Q568.4219 191.89062 568.28125 192.28125Q568.15625 192.65625 568.15625 193.09375ZM574.0469 193.40625L574.0469 193.26562Q574.0469 192.57812 574.2344 192.0Q574.4375 191.40625 574.8125 190.96875Q575.1875 190.53125 575.71875 190.29688Q576.25 190.04688 576.9219 190.04688Q577.5781 190.04688 578.1094 190.29688Q578.65625 190.53125 579.03125 190.96875Q579.40625 191.40625 579.6094 192.0Q579.8125 192.57812 579.8125 193.26562L579.8125 193.40625Q579.8125 194.07812 579.6094 194.67188Q579.40625 195.25 579.03125 195.6875Q578.65625 196.125 578.125 196.375Q577.59375 196.625 576.9219 196.625Q576.2656 196.625 575.71875 196.375Q575.1875 196.125 574.8125 195.6875Q574.4375 195.25 574.2344 194.67188Q574.0469 194.07812 574.0469 193.40625ZM575.125 193.26562L575.125 193.40625Q575.125 193.875 575.2344 194.29688Q575.34375 194.71875 575.5625 195.04688Q575.7969 195.35938 576.1406 195.54688Q576.4844 195.71875 576.9219 195.71875Q577.375 195.71875 577.7031 195.54688Q578.0469 195.35938 578.2656 195.04688Q578.5 194.71875 578.6094 194.29688Q578.71875 193.875 578.71875 193.40625L578.71875 193.26562Q578.71875 192.79688 578.6094 192.375Q578.5 191.95312 578.2656 191.64062Q578.0469 191.3125 577.7031 191.125Q577.375 190.9375 576.9219 190.9375Q576.46875 190.9375 576.125 191.125Q575.7969 191.3125 575.5625 191.64062Q575.34375 191.95312 575.2344 192.375Q575.125 192.79688 575.125 193.26562ZM582.5 187.5L582.5 196.5L581.4219 196.5L581.4219 187.5L582.5 187.5ZM586.9531 196.625Q586.2969 196.625 585.75 196.40625Q585.21875 196.17188 584.8281 195.76562Q584.4531 195.34375 584.25 194.78125Q584.0469 194.21875 584.0469 193.54688L584.0469 193.3125Q584.0469 192.53125 584.2656 191.92188Q584.5 191.3125 584.8906 190.89062Q585.28125 190.46875 585.78125 190.26562Q586.28125 190.04688 586.8125 190.04688Q587.5 190.04688 587.9844 190.28125Q588.4844 190.51562 588.7969 190.9375Q589.125 191.34375 589.2656 191.92188Q589.4219 192.48438 589.4219 193.14062L589.4219 193.64062L584.6875 193.64062L584.6875 192.75L588.34375 192.75L588.34375 192.67188Q588.3125 192.25 588.15625 191.85938Q588.0156 191.45312 587.6875 191.20312Q587.375 190.9375 586.8125 190.9375Q586.4531 190.9375 586.1406 191.09375Q585.8281 191.25 585.59375 191.5625Q585.375 191.85938 585.25 192.29688Q585.1406 192.73438 585.1406 193.3125L585.1406 193.54688Q585.1406 194.0 585.2656 194.40625Q585.3906 194.79688 585.625 195.09375Q585.875 195.39062 586.21875 195.5625Q586.5781 195.73438 587.0156 195.73438Q587.59375 195.73438 587.9844 195.5Q588.3906 195.26562 588.6875 194.875L589.34375 195.39062Q589.1406 195.70312 588.8125 195.98438Q588.5 196.26562 588.03125 196.45312Q587.5781 196.625 586.9531 196.625ZM591.40625 191.51562L591.40625 196.5L590.3281 196.5L590.3281 190.15625L591.3594 190.15625L591.40625 191.51562ZM591.15625 193.09375L590.7031 193.07812Q590.7031 192.42188 590.8906 191.875Q591.0781 191.3125 591.4219 190.90625Q591.7656 190.5 592.2344 190.28125Q592.7031 190.04688 593.28125 190.04688Q593.75 190.04688 594.125 190.17188Q594.5 190.29688 594.7656 190.57812Q595.03125 190.84375 595.1719 191.28125Q595.3125 191.71875 595.3125 192.34375L595.3125 196.5L594.21875 196.5L594.21875 192.32812Q594.21875 191.82812 594.0781 191.53125Q593.9375 191.23438 593.65625 191.09375Q593.375 190.95312 592.9531 190.95312Q592.5469 190.95312 592.21875 191.125Q591.8906 191.29688 591.65625 191.59375Q591.4219 191.89062 591.28125 192.28125Q591.15625 192.65625 591.15625 193.09375Z" fill-rule="nonzero"/><path stroke="#cccccc" stroke-width="1.0" stroke-linecap="butt" d="M372.0 305.0L547.0 406.0" fill-rule="nonzero"/><path fill="#000000" d="M545.125 413.96875L545.125 422.5L543.9844 422.5L543.9844 413.96875L545.125 413.96875ZM548.7031 417.8125L548.7031 418.73438L544.875 418.73438L544.875 417.8125L548.7031 417.8125ZM549.28125 413.96875L549.28125 414.89062L544.875 414.89062L544.875 413.96875L549.28125 413.96875ZM554.5625 421.42188L554.5625 418.15625Q554.5625 417.78125 554.40625 417.5Q554.2656 417.21875 553.96875 417.07812Q553.6719 416.92188 553.2344 416.92188Q552.8125 416.92188 552.5 417.0625Q552.2031 417.20312 552.03125 417.4375Q551.8594 417.65625 551.8594 417.92188L550.78125 417.92188Q550.78125 417.57812 550.9531 417.25Q551.125 416.90625 551.4531 416.64062Q551.78125 416.35938 552.25 416.20312Q552.71875 416.04688 553.2969 416.04688Q553.9844 416.04688 554.5156 416.28125Q555.0469 416.51562 555.34375 416.98438Q555.65625 417.45312 555.65625 418.15625L555.65625 421.10938Q555.65625 421.4375 555.7031 421.79688Q555.7656 422.14062 555.875 422.40625L555.875 422.5L554.7344 422.5Q554.65625 422.3125 554.6094 422.0Q554.5625 421.6875 554.5625 421.42188ZM554.75 418.65625L554.7656 419.42188L553.6719 419.42188Q553.2031 419.42188 552.84375 419.5Q552.4844 419.5625 552.2344 419.71875Q551.9844 419.85938 551.8594 420.07812Q551.7344 420.29688 551.7344 420.59375Q551.7344 420.89062 551.8594 421.14062Q552.0 421.375 552.2656 421.53125Q552.5469 421.67188 552.9375 421.67188Q553.4375 421.67188 553.8125 421.46875Q554.2031 421.25 554.4219 420.95312Q554.65625 420.64062 554.6719 420.34375L555.1406 420.875Q555.09375 421.10938 554.90625 421.42188Q554.7344 421.71875 554.4219 422.0Q554.125 422.26562 553.7031 422.45312Q553.2969 422.625 552.78125 422.625Q552.1406 422.625 551.65625 422.375Q551.1719 422.10938 550.90625 421.6875Q550.6406 421.26562 550.6406 420.73438Q550.6406 420.21875 550.8281 419.84375Q551.03125 419.45312 551.40625 419.1875Q551.78125 418.92188 552.3125 418.79688Q552.84375 418.65625 553.5 418.65625L554.75 418.65625ZM558.90625 417.15625L558.90625 422.5L557.8281 422.5L557.8281 416.15625L558.875 416.15625L558.90625 417.15625ZM560.8906 416.125L560.8906 417.125Q560.75 417.10938 560.625 417.09375Q560.5156 417.07812 560.3594 417.07812Q559.9844 417.07812 559.6875 417.20312Q559.40625 417.3125 559.2031 417.53125Q559.0156 417.73438 558.8906 418.03125Q558.78125 418.32812 558.75 418.67188L558.4375 418.84375Q558.4375 418.26562 558.5469 417.76562Q558.6719 417.26562 558.90625 416.875Q559.15625 416.48438 559.5156 416.26562Q559.8906 416.04688 560.40625 416.04688Q560.53125 416.04688 560.6719 416.07812Q560.8281 416.09375 560.8906 416.125ZM562.90625 417.51562L562.90625 422.5L561.8281 422.5L561.8281 416.15625L562.8594 416.15625L562.90625 417.51562ZM562.65625 419.09375L562.2031 419.07812Q562.2031 418.42188 562.3906 417.875Q562.5781 417.3125 562.9219 416.90625Q563.2656 416.5 563.7344 416.28125Q564.2031 416.04688 564.78125 416.04688Q565.25 416.04688 565.625 416.17188Q566.0 416.29688 566.2656 416.57812Q566.53125 416.84375 566.6719 417.28125Q566.8125 417.71875 566.8125 418.34375L566.8125 422.5L565.71875 422.5L565.71875 418.32812Q565.71875 417.82812 565.5781 417.53125Q565.4375 417.23438 565.15625 417.09375Q564.875 416.95312 564.4531 416.95312Q564.0469 416.95312 563.71875 417.125Q563.3906 417.29688 563.15625 417.59375Q562.9219 417.89062 562.78125 418.28125Q562.65625 418.65625 562.65625 419.09375ZM571.4531 422.625Q570.7969 422.625 570.25 422.40625Q569.71875 422.17188 569.3281 421.76562Q568.9531 421.34375 568.75 420.78125Q568.5469 420.21875 568.5469 419.54688L568.5469 419.3125Q568.5469 418.53125 568.7656 417.92188Q569.0 417.3125 569.3906 416.89062Q569.78125 416.46875 570.28125 416.26562Q570.78125 416.04688 571.3125 416.04688Q572.0 416.04688 572.4844 416.28125Q572.9844 416.51562 573.2969 416.9375Q573.625 417.34375 573.7656 417.92188Q573.9219 418.48438 573.9219 419.14062L573.9219 419.64062L569.1875 419.64062L569.1875 418.75L572.84375 418.75L572.84375 418.67188Q572.8125 418.25 572.65625 417.85938Q572.5156 417.45312 572.1875 417.20312Q571.875 416.9375 571.3125 416.9375Q570.9531 416.9375 570.6406 417.09375Q570.3281 417.25 570.09375 417.5625Q569.875 417.85938 569.75 418.29688Q569.6406 418.73438 569.6406 419.3125L569.6406 419.54688Q569.6406 420.0 569.7656 420.40625Q569.8906 420.79688 570.125 421.09375Q570.375 421.39062 570.71875 421.5625Q571.0781 421.73438 571.5156 421.73438Q572.09375 421.73438 572.4844 421.5Q572.8906 421.26562 573.1875 420.875L573.84375 421.39062Q573.6406 421.70312 573.3125 421.98438Q573.0 422.26562 572.53125 422.45312Q572.0781 422.625 571.4531 422.625ZM578.5156 420.8125Q578.5156 420.57812 578.40625 420.375Q578.3125 420.17188 578.0 420.01562Q577.6875 419.84375 577.0625 419.71875Q576.53125 419.60938 576.1094 419.46875Q575.6875 419.3125 575.3906 419.09375Q575.09375 418.875 574.9375 418.57812Q574.78125 418.28125 574.78125 417.89062Q574.78125 417.51562 574.9375 417.1875Q575.1094 416.84375 575.40625 416.59375Q575.71875 416.32812 576.15625 416.1875Q576.59375 416.04688 577.125 416.04688Q577.8906 416.04688 578.4219 416.3125Q578.96875 416.57812 579.25 417.03125Q579.53125 417.48438 579.53125 418.01562L578.4531 418.01562Q578.4531 417.76562 578.2969 417.51562Q578.1406 417.26562 577.84375 417.10938Q577.5469 416.9375 577.125 416.9375Q576.6719 416.9375 576.3906 417.07812Q576.1094 417.20312 575.9844 417.42188Q575.8594 417.625 575.8594 417.85938Q575.8594 418.04688 575.9219 418.1875Q575.9844 418.3125 576.1406 418.4375Q576.2969 418.54688 576.5781 418.65625Q576.875 418.75 577.3281 418.84375Q578.1094 419.01562 578.6094 419.26562Q579.1094 419.51562 579.3594 419.875Q579.6094 420.21875 579.6094 420.73438Q579.6094 421.15625 579.4219 421.5Q579.25 421.84375 578.9219 422.09375Q578.6094 422.34375 578.15625 422.48438Q577.7031 422.625 577.15625 422.625Q576.3125 422.625 575.7344 422.32812Q575.15625 422.01562 574.8594 421.54688Q574.5625 421.0625 574.5625 420.54688L575.6406 420.54688Q575.6719 420.98438 575.90625 421.25Q576.1406 421.51562 576.46875 421.625Q576.8125 421.71875 577.15625 421.71875Q577.59375 421.71875 577.8906 421.60938Q578.2031 421.48438 578.3594 421.28125Q578.5156 421.07812 578.5156 420.8125ZM583.4531 422.625Q582.7969 422.625 582.25 422.40625Q581.71875 422.17188 581.3281 421.76562Q580.9531 421.34375 580.75 420.78125Q580.5469 420.21875 580.5469 419.54688L580.5469 419.3125Q580.5469 418.53125 580.7656 417.92188Q581.0 417.3125 581.3906 416.89062Q581.78125 416.46875 582.28125 416.26562Q582.78125 416.04688 583.3125 416.04688Q584.0 416.04688 584.4844 416.28125Q584.9844 416.51562 585.2969 416.9375Q585.625 417.34375 585.7656 417.92188Q585.9219 418.48438 585.9219 419.14062L585.9219 419.64062L581.1875 419.64062L581.1875 418.75L584.84375 418.75L584.84375 418.67188Q584.8125 418.25 584.65625 417.85938Q584.5156 417.45312 584.1875 417.20312Q583.875 416.9375 583.3125 416.9375Q582.9531 416.9375 582.6406 417.09375Q582.3281 417.25 582.09375 417.5625Q581.875 417.85938 581.75 418.29688Q581.6406 418.73438 581.6406 419.3125L581.6406 419.54688Q581.6406 420.0 581.7656 420.40625Q581.8906 420.79688 582.125 421.09375Q582.375 421.39062 582.71875 421.5625Q583.0781 421.73438 583.5156 421.73438Q584.09375 421.73438 584.4844 421.5Q584.8906 421.26562 585.1875 420.875L585.84375 421.39062Q585.6406 421.70312 585.3125 421.98438Q585.0 422.26562 584.53125 422.45312Q584.0781 422.625 583.4531 422.625ZM587.90625 417.51562L587.90625 422.5L586.8281 422.5L586.8281 416.15625L587.8594 416.15625L587.90625 417.51562ZM587.65625 419.09375L587.2031 419.07812Q587.2031 418.42188 587.3906 417.875Q587.5781 417.3125 587.9219 416.90625Q588.2656 416.5 588.7344 416.28125Q589.2031 416.04688 589.78125 416.04688Q590.25 416.04688 590.625 416.17188Q591.0 416.29688 591.2656 416.57812Q591.53125 416.84375 591.6719 417.28125Q591.8125 417.71875 591.8125 418.34375L591.8125 422.5L590.71875 422.5L590.71875 418.32812Q590.71875 417.82812 590.5781 417.53125Q590.4375 417.23438 590.15625 417.09375Q589.875 416.95312 589.4531 416.95312Q589.0469 416.95312 588.71875 417.125Q588.3906 417.29688 588.15625 417.59375Q587.9219 417.89062 587.78125 418.28125Q587.65625 418.65625 587.65625 419.09375Z" fill-rule="nonzero"/><path stroke="#cccccc" stroke-width="1.0" stroke-linecap="butt" d="M372.0 305.0L372.0 507.0" fill-rule="nonzero"/><path fill="#000000" d="M342.59375 532.5625L342.59375 532.4375Q342.59375 531.6875 342.75 531.0781Q342.92188 530.4531 343.23438 530.0Q343.54688 529.5469 344.0 529.2969Q344.46875 529.0469 345.0625 529.0469Q345.51562 529.0469 345.875 529.1875Q346.25 529.3125 346.53125 529.5781Q346.8125 529.8281 347.01562 530.2031Q347.21875 530.5781 347.34375 531.0625Q347.46875 531.53125 347.51562 532.09375L347.51562 532.5781Q347.45312 533.28125 347.26562 533.84375Q347.09375 534.40625 346.79688 534.8125Q346.5 535.2031 346.0625 535.4219Q345.64062 535.625 345.04688 535.625Q344.46875 535.625 344.0 535.40625Q343.54688 535.1719 343.23438 534.7656Q342.92188 534.34375 342.75 533.7969Q342.59375 533.2344 342.59375 532.5625ZM343.67188 532.4375L343.67188 532.5625Q343.67188 533.0156 343.76562 533.40625Q343.85938 533.7969 344.04688 534.09375Q344.25 534.3906 344.5625 534.5625Q344.89062 534.7344 345.32812 534.7344Q345.75 534.7344 346.04688 534.5625Q346.35938 534.375 346.5625 534.0781Q346.78125 533.78125 346.90625 533.3906Q347.04688 533.0 347.14062 532.59375L347.14062 532.2031Q347.07812 531.7656 346.9375 531.375Q346.8125 530.96875 346.59375 530.6406Q346.39062 530.3125 346.07812 530.125Q345.76562 529.9375 345.32812 529.9375Q344.89062 529.9375 344.57812 530.1406Q344.26562 530.3281 344.0625 530.6719Q343.85938 531.0156 343.76562 531.4844Q343.67188 531.9375 343.67188 532.4375ZM346.98438 529.15625L347.90625 529.15625L347.90625 533.7656Q347.90625 534.0469 347.9375 534.21875Q347.96875 534.375 348.03125 534.4844Q348.10938 534.5781 348.1875 534.625Q348.28125 534.65625 348.375 534.65625Q348.42188 534.65625 348.46875 534.6406Q348.53125 534.625 348.5625 534.6094L348.70312 535.4219Q348.51562 535.5469 348.34375 535.5781Q348.17188 535.625 347.98438 535.625Q347.70312 535.625 347.48438 535.5156Q347.28125 535.4219 347.125 535.2031Q346.96875 534.9844 346.89062 534.625Q346.8125 534.2656 346.8125 533.7656L346.8125 530.53125L346.98438 529.15625ZM352.07812 531.4219L352.07812 532.3125L349.21875 532.3125L349.21875 531.4219L352.07812 531.4219ZM358.5625 530.6406L358.5625 531.5625L353.95312 531.5625L353.95312 530.6406L358.5625 530.6406ZM354.125 526.96875L354.125 535.5L352.98438 535.5L352.98438 526.96875L354.125 526.96875ZM359.54688 526.96875L359.54688 535.5L358.42188 535.5L358.42188 526.96875L359.54688 526.96875ZM365.70312 534.03125L365.70312 529.15625L366.79688 529.15625L366.79688 535.5L365.76562 535.5L365.70312 534.03125ZM365.90625 532.7031L366.35938 532.6875Q366.35938 533.3125 366.21875 533.8594Q366.09375 534.3906 365.79688 534.78125Q365.51562 535.1719 365.03125 535.40625Q364.5625 535.625 363.89062 535.625Q363.42188 535.625 363.03125 535.4844Q362.65625 535.34375 362.375 535.0625Q362.10938 534.78125 361.95312 534.3281Q361.79688 533.875 361.79688 533.25L361.79688 529.15625L362.89062 529.15625L362.89062 533.2656Q362.89062 533.6875 362.98438 533.96875Q363.07812 534.25 363.25 534.40625Q363.42188 534.5625 363.625 534.6406Q363.82812 534.7031 364.04688 534.7031Q364.75 534.7031 365.14062 534.4375Q365.54688 534.15625 365.71875 533.7031Q365.90625 533.25 365.90625 532.7031ZM369.90625 530.4219L369.90625 535.5L368.8125 535.5L368.8125 529.15625L369.84375 529.15625L369.90625 530.4219ZM369.6875 532.09375L369.17188 532.0781Q369.1875 531.4219 369.34375 530.875Q369.51562 530.3125 369.82812 529.90625Q370.15625 529.5 370.64062 529.28125Q371.125 529.0469 371.75 529.0469Q372.20312 529.0469 372.57812 529.1719Q372.95312 529.2969 373.21875 529.5625Q373.5 529.8281 373.64062 530.25Q373.79688 530.6719 373.79688 531.28125L373.79688 535.5L372.71875 535.5L372.71875 531.3281Q372.71875 530.8281 372.54688 530.53125Q372.39062 530.2344 372.07812 530.09375Q371.78125 529.9531 371.35938 529.9531Q370.89062 529.9531 370.5625 530.125Q370.23438 530.2969 370.04688 530.59375Q369.85938 530.8906 369.76562 531.28125Q369.6875 531.65625 369.6875 532.09375ZM373.79688 531.4844L373.0625 531.71875Q373.0625 531.1875 373.23438 530.71875Q373.40625 530.2344 373.71875 529.8594Q374.04688 529.4844 374.51562 529.2656Q374.98438 529.0469 375.57812 529.0469Q376.09375 529.0469 376.48438 529.1875Q376.89062 529.3125 377.15625 529.59375Q377.42188 529.875 377.5625 530.3125Q377.70312 530.7344 377.70312 531.3281L377.70312 535.5L376.625 535.5L376.625 531.3281Q376.625 530.78125 376.45312 530.5Q376.28125 530.2031 375.98438 530.0781Q375.6875 529.9531 375.26562 529.9531Q374.90625 529.9531 374.625 530.0781Q374.35938 530.2031 374.17188 530.4219Q373.98438 530.625 373.89062 530.90625Q373.79688 531.1875 373.79688 531.4844ZM383.70312 534.03125L383.70312 529.15625L384.79688 529.15625L384.79688 535.5L383.76562 535.5L383.70312 534.03125ZM383.90625 532.7031L384.35938 532.6875Q384.35938 533.3125 384.21875 533.8594Q384.09375 534.3906 383.79688 534.78125Q383.51562 535.1719 383.03125 535.40625Q382.5625 535.625 381.89062 535.625Q381.42188 535.625 381.03125 535.4844Q380.65625 535.34375 380.375 535.0625Q380.10938 534.78125 379.95312 534.3281Q379.79688 533.875 379.79688 533.25L379.79688 529.15625L380.89062 529.15625L380.89062 533.2656Q380.89062 533.6875 380.98438 533.96875Q381.07812 534.25 381.25 534.40625Q381.42188 534.5625 381.625 534.6406Q381.82812 534.7031 382.04688 534.7031Q382.75 534.7031 383.14062 534.4375Q383.54688 534.15625 383.71875 533.7031Q383.90625 533.25 383.90625 532.7031ZM388.0 526.5L388.0 535.5L386.92188 535.5L386.92188 526.5L388.0 526.5ZM392.45312 535.625Q391.79688 535.625 391.25 535.40625Q390.71875 535.1719 390.32812 534.7656Q389.95312 534.34375 389.75 533.78125Q389.54688 533.21875 389.54688 532.5469L389.54688 532.3125Q389.54688 531.53125 389.76562 530.9219Q390.0 530.3125 390.39062 529.8906Q390.78125 529.46875 391.28125 529.2656Q391.78125 529.0469 392.3125 529.0469Q393.0 529.0469 393.48438 529.28125Q393.98438 529.5156 394.29688 529.9375Q394.625 530.34375 394.76562 530.9219Q394.92188 531.4844 394.92188 532.1406L394.92188 532.6406L390.1875 532.6406L390.1875 531.75L393.84375 531.75L393.84375 531.6719Q393.8125 531.25 393.65625 530.8594Q393.51562 530.4531 393.1875 530.2031Q392.875 529.9375 392.3125 529.9375Q391.95312 529.9375 391.64062 530.09375Q391.32812 530.25 391.09375 530.5625Q390.875 530.8594 390.75 531.2969Q390.64062 531.7344 390.64062 532.3125L390.64062 532.5469Q390.64062 533.0 390.76562 533.40625Q390.89062 533.7969 391.125 534.09375Q391.375 534.3906 391.71875 534.5625Q392.07812 534.7344 392.51562 534.7344Q393.09375 534.7344 393.48438 534.5Q393.89062 534.2656 394.1875 533.875L394.84375 534.3906Q394.64062 534.7031 394.3125 534.9844Q394.0 535.2656 393.53125 535.4531Q393.07812 535.625 392.45312 535.625ZM396.90625 530.5156L396.90625 535.5L395.82812 535.5L395.82812 529.15625L396.85938 529.15625L396.90625 530.5156ZM396.65625 532.09375L396.20312 532.0781Q396.20312 531.4219 396.39062 530.875Q396.57812 530.3125 396.92188 529.90625Q397.26562 529.5 397.73438 529.28125Q398.20312 529.0469 398.78125 529.0469Q399.25 529.0469 399.625 529.1719Q400.0 529.2969 400.26562 529.5781Q400.53125 529.84375 400.67188 530.28125Q400.8125 530.71875 400.8125 531.34375L400.8125 535.5L399.71875 535.5L399.71875 531.3281Q399.71875 530.8281 399.57812 530.53125Q399.4375 530.2344 399.15625 530.09375Q398.875 529.9531 398.45312 529.9531Q398.04688 529.9531 397.71875 530.125Q397.39062 530.2969 397.15625 530.59375Q396.92188 530.8906 396.78125 531.28125Q396.65625 531.65625 396.65625 532.09375Z" fill-rule="nonzero"/><path stroke="#cccccc" stroke-width="1.0" stroke-linecap="butt" d="M372.0 305.0L197.0 406.0" fill-rule="nonzero"/><path fill="#000000" d="M158.67188 421.57812L158.67188 422.5L154.40625 422.5L154.40625 421.57812L158.67188 421.57812ZM154.625 413.96875L154.625 422.5L153.48438 422.5L153.48438 413.96875L154.625 413.96875ZM160.5 416.15625L160.5 422.5L159.42188 422.5L159.42188 416.15625L160.5 416.15625ZM159.32812 414.48438Q159.32812 414.21875 159.48438 414.03125Q159.65625 413.84375 159.96875 413.84375Q160.28125 413.84375 160.4375 414.03125Q160.60938 414.21875 160.60938 414.48438Q160.60938 414.73438 160.4375 414.92188Q160.28125 415.09375 159.96875 415.09375Q159.65625 415.09375 159.48438 414.92188Q159.32812 414.73438 159.32812 414.48438ZM163.40625 417.42188L163.40625 422.5L162.3125 422.5L162.3125 416.15625L163.34375 416.15625L163.40625 417.42188ZM163.1875 419.09375L162.67188 419.07812Q162.6875 418.42188 162.84375 417.875Q163.01562 417.3125 163.32812 416.90625Q163.65625 416.5 164.14062 416.28125Q164.625 416.04688 165.25 416.04688Q165.70312 416.04688 166.07812 416.17188Q166.45312 416.29688 166.71875 416.5625Q167.0 416.82812 167.14062 417.25Q167.29688 417.67188 167.29688 418.28125L167.29688 422.5L166.21875 422.5L166.21875 418.32812Q166.21875 417.82812 166.04688 417.53125Q165.89062 417.23438 165.57812 417.09375Q165.28125 416.95312 164.85938 416.95312Q164.39062 416.95312 164.0625 417.125Q163.73438 417.29688 163.54688 417.59375Q163.35938 417.89062 163.26562 418.28125Q163.1875 418.65625 163.1875 419.09375ZM167.29688 418.48438L166.5625 418.71875Q166.5625 418.1875 166.73438 417.71875Q166.90625 417.23438 167.21875 416.85938Q167.54688 416.48438 168.01562 416.26562Q168.48438 416.04688 169.07812 416.04688Q169.59375 416.04688 169.98438 416.1875Q170.39062 416.3125 170.65625 416.59375Q170.92188 416.875 171.0625 417.3125Q171.20312 417.73438 171.20312 418.32812L171.20312 422.5L170.125 422.5L170.125 418.32812Q170.125 417.78125 169.95312 417.5Q169.78125 417.20312 169.48438 417.07812Q169.1875 416.95312 168.76562 416.95312Q168.40625 416.95312 168.125 417.07812Q167.85938 417.20312 167.67188 417.42188Q167.48438 417.625 167.39062 417.90625Q167.29688 418.1875 167.29688 418.48438ZM173.04688 419.40625L173.04688 419.26562Q173.04688 418.57812 173.23438 418.0Q173.4375 417.40625 173.8125 416.96875Q174.1875 416.53125 174.71875 416.29688Q175.25 416.04688 175.92188 416.04688Q176.57812 416.04688 177.10938 416.29688Q177.65625 416.53125 178.03125 416.96875Q178.40625 417.40625 178.60938 418.0Q178.8125 418.57812 178.8125 419.26562L178.8125 419.40625Q178.8125 420.07812 178.60938 420.67188Q178.40625 421.25 178.03125 421.6875Q177.65625 422.125 177.125 422.375Q176.59375 422.625 175.92188 422.625Q175.26562 422.625 174.71875 422.375Q174.1875 422.125 173.8125 421.6875Q173.4375 421.25 173.23438 420.67188Q173.04688 420.07812 173.04688 419.40625ZM174.125 419.26562L174.125 419.40625Q174.125 419.875 174.23438 420.29688Q174.34375 420.71875 174.5625 421.04688Q174.79688 421.35938 175.14062 421.54688Q175.48438 421.71875 175.92188 421.71875Q176.375 421.71875 176.70312 421.54688Q177.04688 421.35938 177.26562 421.04688Q177.5 420.71875 177.60938 420.29688Q177.71875 419.875 177.71875 419.40625L177.71875 419.26562Q177.71875 418.79688 177.60938 418.375Q177.5 417.95312 177.26562 417.64062Q177.04688 417.3125 176.70312 417.125Q176.375 416.9375 175.92188 416.9375Q175.46875 416.9375 175.125 417.125Q174.79688 417.3125 174.5625 417.64062Q174.34375 417.95312 174.23438 418.375Q174.125 418.79688 174.125 419.26562ZM181.40625 417.51562L181.40625 422.5L180.32812 422.5L180.32812 416.15625L181.35938 416.15625L181.40625 417.51562ZM181.15625 419.09375L180.70312 419.07812Q180.70312 418.42188 180.89062 417.875Q181.07812 417.3125 181.42188 416.90625Q181.76562 416.5 182.23438 416.28125Q182.70312 416.04688 183.28125 416.04688Q183.75 416.04688 184.125 416.17188Q184.5 416.29688 184.76562 416.57812Q185.03125 416.84375 185.17188 417.28125Q185.3125 417.71875 185.3125 418.34375L185.3125 422.5L184.21875 422.5L184.21875 418.32812Q184.21875 417.82812 184.07812 417.53125Q183.9375 417.23438 183.65625 417.09375Q183.375 416.95312 182.95312 416.95312Q182.54688 416.95312 182.21875 417.125Q181.89062 417.29688 181.65625 417.59375Q181.42188 417.89062 181.28125 418.28125Q181.15625 418.65625 181.15625 419.09375ZM189.95312 422.625Q189.29688 422.625 188.75 422.40625Q188.21875 422.17188 187.82812 421.76562Q187.45312 421.34375 187.25 420.78125Q187.04688 420.21875 187.04688 419.54688L187.04688 419.3125Q187.04688 418.53125 187.26562 417.92188Q187.5 417.3125 187.89062 416.89062Q188.28125 416.46875 188.78125 416.26562Q189.28125 416.04688 189.8125 416.04688Q190.5 416.04688 190.98438 416.28125Q191.48438 416.51562 191.79688 416.9375Q192.125 417.34375 192.26562 417.92188Q192.42188 418.48438 192.42188 419.14062L192.42188 419.64062L187.6875 419.64062L187.6875 418.75L191.34375 418.75L191.34375 418.67188Q191.3125 418.25 191.15625 417.85938Q191.01562 417.45312 190.6875 417.20312Q190.375 416.9375 189.8125 416.9375Q189.45312 416.9375 189.14062 417.09375Q188.82812 417.25 188.59375 417.5625Q188.375 417.85938 188.25 418.29688Q188.14062 418.73438 188.14062 419.3125L188.14062 419.54688Q188.14062 420.0 188.26562 420.40625Q188.39062 420.79688 188.625 421.09375Q188.875 421.39062 189.21875 421.5625Q189.57812 421.73438 190.01562 421.73438Q190.59375 421.73438 190.98438 421.5Q191.39062 421.26562 191.6875 420.875L192.34375 421.39062Q192.14062 421.70312 191.8125 421.98438Q191.5 422.26562 191.03125 422.45312Q190.57812 422.625 189.95312 422.625ZM194.40625 417.51562L194.40625 422.5L193.32812 422.5L193.32812 416.15625L194.35938 416.15625L194.40625 417.51562ZM194.15625 419.09375L193.70312 419.07812Q193.70312 418.42188 193.89062 417.875Q194.07812 417.3125 194.42188 416.90625Q194.76562 416.5 195.23438 416.28125Q195.70312 416.04688 196.28125 416.04688Q196.75 416.04688 197.125 416.17188Q197.5 416.29688 197.76562 416.57812Q198.03125 416.84375 198.17188 417.28125Q198.3125 417.71875 198.3125 418.34375L198.3125 422.5L197.21875 422.5L197.21875 418.32812Q197.21875 417.82812 197.07812 417.53125Q196.9375 417.23438 196.65625 417.09375Q196.375 416.95312 195.95312 416.95312Q195.54688 416.95312 195.21875 417.125Q194.89062 417.29688 194.65625 417.59375Q194.42188 417.89062 194.28125 418.28125Q194.15625 418.65625 194.15625 419.09375Z" fill-rule="nonzero"/><path stroke="#cccccc" stroke-width="1.0" stroke-linecap="butt" d="M372.0 305.0L197.0 204.0" fill-rule="nonzero"/><path fill="#000000" d="M158.03125 194.34375Q158.03125 194.04688 157.9375 193.8125Q157.85938 193.57812 157.625 193.39062Q157.40625 193.20312 157.0 193.03125Q156.60938 192.85938 156.01562 192.6875Q155.375 192.5 154.85938 192.28125Q154.35938 192.04688 153.98438 191.75Q153.625 191.4375 153.4375 191.0625Q153.25 190.67188 153.25 190.17188Q153.25 189.67188 153.45312 189.25Q153.65625 188.82812 154.03125 188.51562Q154.42188 188.20312 154.95312 188.03125Q155.48438 187.84375 156.14062 187.84375Q157.10938 187.84375 157.78125 188.21875Q158.45312 188.57812 158.79688 189.17188Q159.15625 189.76562 159.15625 190.42188L158.03125 190.42188Q158.03125 189.95312 157.8125 189.57812Q157.60938 189.20312 157.1875 189.0Q156.78125 188.78125 156.14062 188.78125Q155.54688 188.78125 155.14062 188.96875Q154.75 189.14062 154.5625 189.45312Q154.375 189.76562 154.375 190.15625Q154.375 190.42188 154.48438 190.65625Q154.60938 190.875 154.84375 191.0625Q155.09375 191.25 155.46875 191.40625Q155.84375 191.5625 156.375 191.70312Q157.09375 191.90625 157.625 192.17188Q158.15625 192.42188 158.5 192.73438Q158.84375 193.04688 159.0 193.4375Q159.17188 193.82812 159.17188 194.32812Q159.17188 194.85938 158.95312 195.28125Q158.75 195.70312 158.35938 196.0Q157.96875 196.29688 157.42188 196.46875Q156.875 196.625 156.20312 196.625Q155.60938 196.625 155.03125 196.45312Q154.46875 196.28125 154.0 195.95312Q153.53125 195.625 153.25 195.15625Q152.96875 194.67188 152.96875 194.03125L154.09375 194.03125Q154.09375 194.46875 154.26562 194.78125Q154.4375 195.09375 154.73438 195.29688Q155.03125 195.5 155.40625 195.60938Q155.78125 195.70312 156.20312 195.70312Q156.79688 195.70312 157.20312 195.54688Q157.60938 195.375 157.8125 195.07812Q158.03125 194.76562 158.03125 194.34375ZM160.04688 193.40625L160.04688 193.26562Q160.04688 192.57812 160.23438 192.0Q160.4375 191.40625 160.8125 190.96875Q161.1875 190.53125 161.71875 190.29688Q162.25 190.04688 162.92188 190.04688Q163.57812 190.04688 164.10938 190.29688Q164.65625 190.53125 165.03125 190.96875Q165.40625 191.40625 165.60938 192.0Q165.8125 192.57812 165.8125 193.26562L165.8125 193.40625Q165.8125 194.07812 165.60938 194.67188Q165.40625 195.25 165.03125 195.6875Q164.65625 196.125 164.125 196.375Q163.59375 196.625 162.92188 196.625Q162.26562 196.625 161.71875 196.375Q161.1875 196.125 160.8125 195.6875Q160.4375 195.25 160.23438 194.67188Q160.04688 194.07812 160.04688 193.40625ZM161.125 193.26562L161.125 193.40625Q161.125 193.875 161.23438 194.29688Q161.34375 194.71875 161.5625 195.04688Q161.79688 195.35938 162.14062 195.54688Q162.48438 195.71875 162.92188 195.71875Q163.375 195.71875 163.70312 195.54688Q164.04688 195.35938 164.26562 195.04688Q164.5 194.71875 164.60938 194.29688Q164.71875 193.875 164.71875 193.40625L164.71875 193.26562Q164.71875 192.79688 164.60938 192.375Q164.5 191.95312 164.26562 191.64062Q164.04688 191.3125 163.70312 191.125Q163.375 190.9375 162.92188 190.9375Q162.46875 190.9375 162.125 191.125Q161.79688 191.3125 161.5625 191.64062Q161.34375 191.95312 161.23438 192.375Q161.125 192.79688 161.125 193.26562ZM168.40625 191.51562L168.40625 196.5L167.32812 196.5L167.32812 190.15625L168.35938 190.15625L168.40625 191.51562ZM168.15625 193.09375L167.70312 193.07812Q167.70312 192.42188 167.89062 191.875Q168.07812 191.3125 168.42188 190.90625Q168.76562 190.5 169.23438 190.28125Q169.70312 190.04688 170.28125 190.04688Q170.75 190.04688 171.125 190.17188Q171.5 190.29688 171.76562 190.57812Q172.03125 190.84375 172.17188 191.28125Q172.3125 191.71875 172.3125 192.34375L172.3125 196.5L171.21875 196.5L171.21875 192.32812Q171.21875 191.82812 171.07812 191.53125Q170.9375 191.23438 170.65625 191.09375Q170.375 190.95312 169.95312 190.95312Q169.54688 190.95312 169.21875 191.125Q168.89062 191.29688 168.65625 191.59375Q168.42188 191.89062 168.28125 192.28125Q168.15625 192.65625 168.15625 193.09375ZM178.01562 194.8125Q178.01562 194.57812 177.90625 194.375Q177.8125 194.17188 177.5 194.01562Q177.1875 193.84375 176.5625 193.71875Q176.03125 193.60938 175.60938 193.46875Q175.1875 193.3125 174.89062 193.09375Q174.59375 192.875 174.4375 192.57812Q174.28125 192.28125 174.28125 191.89062Q174.28125 191.51562 174.4375 191.1875Q174.60938 190.84375 174.90625 190.59375Q175.21875 190.32812 175.65625 190.1875Q176.09375 190.04688 176.625 190.04688Q177.39062 190.04688 177.92188 190.3125Q178.46875 190.57812 178.75 191.03125Q179.03125 191.48438 179.03125 192.01562L177.95312 192.01562Q177.95312 191.76562 177.79688 191.51562Q177.64062 191.26562 177.34375 191.10938Q177.04688 190.9375 176.625 190.9375Q176.17188 190.9375 175.89062 191.07812Q175.60938 191.20312 175.48438 191.42188Q175.35938 191.625 175.35938 191.85938Q175.35938 192.04688 175.42188 192.1875Q175.48438 192.3125 175.64062 192.4375Q175.79688 192.54688 176.07812 192.65625Q176.375 192.75 176.82812 192.84375Q177.60938 193.01562 178.10938 193.26562Q178.60938 193.51562 178.85938 193.875Q179.10938 194.21875 179.10938 194.73438Q179.10938 195.15625 178.92188 195.5Q178.75 195.84375 178.42188 196.09375Q178.10938 196.34375 177.65625 196.48438Q177.20312 196.625 176.65625 196.625Q175.8125 196.625 175.23438 196.32812Q174.65625 196.01562 174.35938 195.54688Q174.0625 195.0625 174.0625 194.54688L175.14062 194.54688Q175.17188 194.98438 175.40625 195.25Q175.64062 195.51562 175.96875 195.625Q176.3125 195.71875 176.65625 195.71875Q177.09375 195.71875 177.39062 195.60938Q177.70312 195.48438 177.85938 195.28125Q178.01562 195.07812 178.01562 194.8125ZM182.98438 190.15625L182.98438 190.98438L179.54688 190.98438L179.54688 190.15625L182.98438 190.15625ZM180.71875 188.625L181.79688 188.625L181.79688 194.92188Q181.79688 195.25 181.89062 195.42188Q182.0 195.57812 182.15625 195.64062Q182.3125 195.6875 182.5 195.6875Q182.625 195.6875 182.76562 195.65625Q182.92188 195.625 183.0 195.60938L183.01562 196.5Q182.875 196.54688 182.67188 196.57812Q182.46875 196.625 182.17188 196.625Q181.78125 196.625 181.4375 196.46875Q181.10938 196.29688 180.90625 195.9375Q180.71875 195.5625 180.71875 194.92188L180.71875 188.625ZM185.5 190.15625L185.5 196.5L184.42188 196.5L184.42188 190.15625L185.5 190.15625ZM184.32812 188.48438Q184.32812 188.21875 184.48438 188.03125Q184.65625 187.84375 184.96875 187.84375Q185.28125 187.84375 185.4375 188.03125Q185.60938 188.21875 185.60938 188.48438Q185.60938 188.73438 185.4375 188.92188Q185.28125 189.09375 184.96875 189.09375Q184.65625 189.09375 184.48438 188.92188Q184.32812 188.73438 184.32812 188.48438ZM191.4375 190.15625L192.42188 190.15625L192.42188 196.35938Q192.42188 197.20312 192.07812 197.79688Q191.73438 198.39062 191.125 198.6875Q190.53125 199.0 189.73438 199.0Q189.40625 199.0 188.95312 198.89062Q188.51562 198.79688 188.09375 198.54688Q187.67188 198.3125 187.39062 197.90625L187.95312 197.25Q188.35938 197.73438 188.78125 197.92188Q189.21875 198.10938 189.65625 198.10938Q190.17188 198.10938 190.54688 197.90625Q190.92188 197.71875 191.125 197.34375Q191.32812 196.96875 191.32812 196.42188L191.32812 191.54688L191.4375 190.15625ZM187.0625 193.40625L187.0625 193.28125Q187.0625 192.54688 187.23438 191.95312Q187.42188 191.35938 187.73438 190.9375Q188.0625 190.5 188.51562 190.28125Q188.98438 190.04688 189.57812 190.04688Q190.17188 190.04688 190.60938 190.25Q191.0625 190.45312 191.375 190.85938Q191.6875 191.25 191.875 191.8125Q192.0625 192.35938 192.125 193.0625L192.125 193.60938Q192.0625 194.29688 191.875 194.85938Q191.6875 195.42188 191.375 195.8125Q191.0625 196.20312 190.60938 196.42188Q190.15625 196.625 189.5625 196.625Q188.98438 196.625 188.53125 196.39062Q188.07812 196.14062 187.75 195.70312Q187.42188 195.26562 187.23438 194.6875Q187.0625 194.09375 187.0625 193.40625ZM188.15625 193.28125L188.15625 193.40625Q188.15625 193.875 188.25 194.29688Q188.34375 194.70312 188.54688 195.03125Q188.75 195.34375 189.0625 195.53125Q189.39062 195.70312 189.82812 195.70312Q190.35938 195.70312 190.70312 195.46875Q191.0625 195.23438 191.26562 194.85938Q191.48438 194.48438 191.59375 194.04688L191.59375 192.64062Q191.53125 192.3125 191.39062 192.01562Q191.26562 191.71875 191.0625 191.48438Q190.85938 191.23438 190.54688 191.09375Q190.25 190.95312 189.82812 190.95312Q189.39062 190.95312 189.0625 191.14062Q188.75 191.32812 188.54688 191.65625Q188.34375 191.96875 188.25 192.39062Q188.15625 192.79688 188.15625 193.28125ZM196.95312 196.625Q196.29688 196.625 195.75 196.40625Q195.21875 196.17188 194.82812 195.76562Q194.45312 195.34375 194.25 194.78125Q194.04688 194.21875 194.04688 193.54688L194.04688 193.3125Q194.04688 192.53125 194.26562 191.92188Q194.5 191.3125 194.89062 190.89062Q195.28125 190.46875 195.78125 190.26562Q196.28125 190.04688 196.8125 190.04688Q197.5 190.04688 197.98438 190.28125Q198.48438 190.51562 198.79688 190.9375Q199.125 191.34375 199.26562 191.92188Q199.42188 192.48438 199.42188 193.14062L199.42188 193.64062L194.6875 193.64062L194.6875 192.75L198.34375 192.75L198.34375 192.67188Q198.3125 192.25 198.15625 191.85938Q198.01562 191.45312 197.6875 191.20312Q197.375 190.9375 196.8125 190.9375Q196.45312 190.9375 196.14062 191.09375Q195.82812 191.25 195.59375 191.5625Q195.375 191.85938 195.25 192.29688Q195.14062 192.73438 195.14062 193.3125L195.14062 193.54688Q195.14062 194.0 195.26562 194.40625Q195.39062 194.79688 195.625 195.09375Q195.875 195.39062 196.21875 195.5625Q196.57812 195.73438 197.01562 195.73438Q197.59375 195.73438 197.98438 195.5Q198.39062 195.26562 198.6875 194.875L199.34375 195.39062Q199.14062 195.70312 198.8125 195.98438Q198.5 196.26562 198.03125 196.45312Q197.57812 196.625 196.95312 196.625Z" fill-rule="nonzero"/><path stroke="#cccccc" stroke-width="1.0" stroke-linecap="butt" d="M372.0 305.0L372.0 103.0" fill-rule="nonzero"/><path stroke="#ff0000" stroke-width="2.0" stroke-linecap="butt" stroke-opacity="0.7019608" stroke-dasharray="8.0,6.0,2.0,6.0" d="M372.0 149.0L451.0 260.0L403.0 323.0L372.0 335.0L350.0 318.0L228.0 222.0Z" fill-rule="nonzero"/><path fill="#ff0000" fill-opacity="0.7019608" d="M368.81802 145.81802L372.0 147.875L375.18198 145.81802L373.125 149.0L375.18198 152.18198L372.0 150.125L368.81802 152.18198L370.875 149.0Z" fill-rule="nonzero"/><path fill="#ff0000" fill-opacity="0.7019608" d="M447.81802 256.81802L451.0 258.875L454.18198 256.81802L452.125 260.0L454.18198 263.18198L451.0 261.125L447.81802 263.18198L449.875 260.0Z" fill-rule="nonzero"/><path fill="#ff0000" fill-opacity="0.7019608" d="M399.81802 319.81802L403.0 321.875L406.18198 319.81802L404.125 323.0L406.18198 326.18198L403.0 324.125L399.81802 326.18198L401.875 323.0Z" fill-rule="nonzero"/><path fill="#ff0000" fill-opacity="0.7019608" d="M368.81802 331.81802L372.0 333.875L375.18198 331.81802L373.125 335.0L375.18198 338.18198L372.0 336.125L368.81802 338.18198L370.875 335.0Z" fill-rule="nonzero"/><path fill="#ff0000" fill-opacity="0.7019608" d="M346.81802 314.81802L350.0 316.875L353.18198 314.81802L351.125 318.0L353.18198 321.18198L350.0 319.125L346.81802 321.18198L348.875 318.0Z" fill-rule="nonzero"/><path fill="#ff0000" fill-opacity="0.7019608" d="M224.81802 218.81802L228.0 220.875L231.18198 218.81802L229.125 222.0L231.18198 225.18198L228.0 223.125L224.81802 225.18198L226.875 222.0Z" fill-rule="nonzero"/><path fill="#757575" d="M33.5375 47.35L33.5375 34.725L28.81875 34.725L28.81875 33.0375L40.1625 33.0375L40.1625 34.725L35.428123 34.725L35.428123 47.35L33.5375 47.35ZM48.771873 44.00625L50.584373 44.240623Q50.1625 45.81875 48.990623 46.709373Q47.834373 47.584373 46.021873 47.584373Q43.75625 47.584373 42.4125 46.19375Q41.084373 44.7875 41.084373 42.25625Q41.084373 39.63125 42.428123 38.19375Q43.771873 36.740623 45.928123 36.740623Q48.00625 36.740623 49.31875 38.1625Q50.646873 39.56875 50.646873 42.146873Q50.646873 42.303123 50.63125 42.615623L42.896873 42.615623Q42.990623 44.31875 43.865623 45.225Q44.740623 46.13125 46.0375 46.13125Q47.00625 46.13125 47.678123 45.63125Q48.365623 45.115623 48.771873 44.00625ZM42.990623 41.1625L48.7875 41.1625Q48.678123 39.865623 48.13125 39.209373Q47.2875 38.19375 45.94375 38.19375Q44.740623 38.19375 43.9125 39.00625Q43.084373 39.803123 42.990623 41.1625ZM52.646873 47.35L52.646873 36.975L54.225 36.975L54.225 38.553123Q54.834373 37.44375 55.35 37.1Q55.865623 36.740623 56.475 36.740623Q57.365623 36.740623 58.2875 37.303123L57.678123 38.94375Q57.0375 38.553123 56.396873 38.553123Q55.81875 38.553123 55.35 38.9125Q54.896873 39.25625 54.69375 39.865623Q54.4125 40.803123 54.4125 41.9125L54.4125 47.35L52.646873 47.35ZM59.6625 51.31875L59.6625 36.975L61.271873 36.975L61.271873 38.31875Q61.834373 37.5375 62.5375 37.146873Q63.25625 36.740623 64.27187 36.740623Q65.6 36.740623 66.61562 37.428123Q67.63125 38.115623 68.14687 39.365623Q68.67812 40.6 68.67812 42.084373Q68.67812 43.678123 68.1 44.959373Q67.5375 46.225 66.44375 46.9125Q65.35 47.584373 64.14687 47.584373Q63.271873 47.584373 62.56875 47.209373Q61.88125 46.834373 61.428123 46.271873L61.428123 51.31875L59.6625 51.31875ZM61.25625 42.225Q61.25625 44.225 62.06875 45.178123Q62.88125 46.13125 64.0375 46.13125Q65.20937 46.13125 66.0375 45.146873Q66.88125 44.1625 66.88125 42.06875Q66.88125 40.1 66.05312 39.115623Q65.24062 38.115623 64.11562 38.115623Q62.990623 38.115623 62.115623 39.178123Q61.25625 40.225 61.25625 42.225ZM77.77187 44.00625L79.58437 44.240623Q79.1625 45.81875 77.99062 46.709373Q76.83437 47.584373 75.02187 47.584373Q72.75625 47.584373 71.4125 46.19375Q70.08437 44.7875 70.08437 42.25625Q70.08437 39.63125 71.42812 38.19375Q72.77187 36.740623 74.92812 36.740623Q77.00625 36.740623 78.31875 38.1625Q79.64687 39.56875 79.64687 42.146873Q79.64687 42.303123 79.63125 42.615623L71.89687 42.615623Q71.99062 44.31875 72.86562 45.225Q73.74062 46.13125 75.0375 46.13125Q76.00625 46.13125 76.67812 45.63125Q77.36562 45.115623 77.77187 44.00625ZM71.99062 41.1625L77.7875 41.1625Q77.67812 39.865623 77.13125 39.209373Q76.2875 38.19375 74.94375 38.19375Q73.74062 38.19375 72.9125 39.00625Q72.08437 39.803123 71.99062 41.1625ZM81.6625 47.35L81.6625 36.975L83.25625 36.975L83.25625 38.459373Q84.39687 36.740623 86.55312 36.740623Q87.49062 36.740623 88.27187 37.084373Q89.06875 37.4125 89.45937 37.959373Q89.85 38.50625 90.00625 39.25625Q90.1 39.75625 90.1 40.975L90.1 47.35L88.33437 47.35L88.33437 41.0375Q88.33437 39.959373 88.13125 39.428123Q87.92812 38.896873 87.39687 38.584373Q86.88125 38.271873 86.17812 38.271873Q85.05312 38.271873 84.24062 38.990623Q83.42812 39.69375 83.42812 41.678123L83.42812 47.35L81.6625 47.35ZM91.6625 51.31875L91.6625 36.975L93.27187 36.975L93.27187 38.31875Q93.83437 37.5375 94.5375 37.146873Q95.25625 36.740623 96.27187 36.740623Q97.6 36.740623 98.61562 37.428123Q99.63125 38.115623 100.14687 39.365623Q100.67812 40.6 100.67812 42.084373Q100.67812 43.678123 100.1 44.959373Q99.5375 46.225 98.44375 46.9125Q97.35 47.584373 96.14687 47.584373Q95.27187 47.584373 94.56875 47.209373Q93.88125 46.834373 93.42812 46.271873L93.42812 51.31875L91.6625 51.31875ZM93.25625 42.225Q93.25625 44.225 94.06875 45.178123Q94.88125 46.13125 96.0375 46.13125Q97.20937 46.13125 98.0375 45.146873Q98.88125 44.1625 98.88125 42.06875Q98.88125 40.1 98.05312 39.115623Q97.24062 38.115623 96.11562 38.115623Q94.99062 38.115623 94.11562 39.178123Q93.25625 40.225 93.25625 42.225ZM102.64687 47.35L102.64687 36.975L104.225 36.975L104.225 38.553123Q104.83437 37.44375 105.35 37.1Q105.86562 36.740623 106.475 36.740623Q107.36562 36.740623 108.2875 37.303123L107.67812 38.94375Q107.0375 38.553123 106.39687 38.553123Q105.81875 38.553123 105.35 38.9125Q104.89687 39.25625 104.69375 39.865623Q104.4125 40.803123 104.4125 41.9125L104.4125 47.35L102.64687 47.35ZM109.02187 42.1625Q109.02187 39.2875 110.61562 37.896873Q111.95937 36.740623 113.88125 36.740623Q116.02187 36.740623 117.36562 38.146873Q118.725 39.553123 118.725 42.021873Q118.725 44.021873 118.13125 45.178123Q117.5375 46.31875 116.38125 46.959373Q115.24062 47.584373 113.88125 47.584373Q111.69375 47.584373 110.35 46.19375Q109.02187 44.7875 109.02187 42.1625ZM110.81875 42.1625Q110.81875 44.1625 111.67812 45.146873Q112.55312 46.13125 113.88125 46.13125Q115.19375 46.13125 116.05312 45.146873Q116.92812 44.146873 116.92812 42.1Q116.92812 40.178123 116.05312 39.19375Q115.17812 38.19375 113.88125 38.19375Q112.55312 38.19375 111.67812 39.19375Q110.81875 40.178123 110.81875 42.1625ZM121.08437 47.35L121.08437 38.35L119.5375 38.35L119.5375 36.975L121.08437 36.975L121.08437 35.88125Q121.08437 34.834373 121.27187 34.31875Q121.52187 33.63125 122.1625 33.209373Q122.80312 32.7875 123.95937 32.7875Q124.70937 32.7875 125.6 32.959373L125.33437 34.490623Q124.7875 34.396873 124.30312 34.396873Q123.50625 34.396873 123.1625 34.740623Q122.83437 35.084373 122.83437 36.021873L122.83437 36.975L124.86562 36.975L124.86562 38.35L122.83437 38.35L122.83437 47.35L121.08437 47.35ZM126.67812 35.053123L126.67812 33.0375L128.44376 33.0375L128.44376 35.053123L126.67812 35.053123ZM126.67812 47.35L126.67812 36.975L128.44376 36.975L128.44376 47.35L126.67812 47.35ZM130.63126 47.35L130.63126 33.0375L132.38126 33.0375L132.38126 47.35L130.63126 47.35Z" fill-rule="nonzero"/></svg>