<svg version="1.1" viewBox="0.0 0.0 744.0 567.0" fill="none" stroke="none" stroke-linecap="square" stroke-miterlimit="10" width="744" height="567" xmlns:xlink="http://www.w3.org/1999/xlink" xmlns="http://www.w3.org/2000/svg"><path fill="#ffffff" d="M0 0L744.0 0L744.0 567.0L0 567.0L0 0Z" fill-rule="nonzero"/><path fill="#ffffff" d="M28.35 71.25L715.64996 71.25L715.64996 538.65L28.35 538.65L28.35 71.25Z" fill-rule="nonzero"/><path stroke="#cccccc" stroke-width="1.0" stroke-linecap="butt" d="M372.0 305.0C372.0 305.0 372.0 305.0 372.0 305.0C372.0 305.0 372.0 305.0 372.0 305.0C372.0 305.0 372.0 305.0 372.0 305.0C372.0 305.0 372.0 305.0 372.0 305.0" fill-rule="nonzero"/><path fill="#000000" d="M353.0625 297.04688L353.0625 298.35938Q353.0625 299.40625 352.875 300.125Q352.6875 300.84375 352.32812 301.28125Q351.98438 301.71875 351.48438 301.92188Q351.0 302.125 350.375 302.125Q349.89062 302.125 349.46875 302.0Q349.04688 301.875 348.71875 301.60938Q348.39062 301.32812 348.15625 300.89062Q347.92188 300.45312 347.79688 299.82812Q347.67188 299.1875 347.67188 298.35938L347.67188 297.04688Q347.67188 296.0 347.85938 295.29688Q348.0625 294.59375 348.40625 294.15625Q348.76562 293.71875 349.25 293.53125Q349.75 293.34375 350.35938 293.34375Q350.85938 293.34375 351.28125 293.46875Q351.70312 293.59375 352.03125 293.85938Q352.35938 294.10938 352.57812 294.54688Q352.8125 294.96875 352.9375 295.59375Q353.0625 296.21875 353.0625 297.04688ZM351.96875 298.53125L351.96875 296.875Q351.96875 296.29688 351.90625 295.85938Q351.84375 295.42188 351.70312 295.10938Q351.57812 294.79688 351.375 294.60938Q351.1875 294.42188 350.9375 294.32812Q350.6875 294.23438 350.35938 294.23438Q349.98438 294.23438 349.67188 294.375Q349.375 294.51562 349.17188 294.82812Q348.96875 295.14062 348.85938 295.65625Q348.76562 296.15625 348.76562 296.875L348.76562 298.53125Q348.76562 299.10938 348.82812 299.54688Q348.90625 299.98438 349.03125 300.3125Q349.17188 300.625 349.35938 300.82812Q349.5625 301.03125 349.8125 301.125Q350.0625 301.21875 350.375 301.21875Q350.78125 301.21875 351.07812 301.07812Q351.375 300.92188 351.57812 300.59375Q351.78125 300.26562 351.875 299.76562Q351.96875 299.25 351.96875 298.53125ZM355.8125 300.70312L355.8125 301.57812Q355.8125 302.125 355.53125 302.71875Q355.26562 303.3125 354.78125 303.70312L354.17188 303.28125Q354.35938 303.01562 354.48438 302.75Q354.60938 302.48438 354.67188 302.20312Q354.75 301.92188 354.75 301.59375L354.75 300.70312L355.8125 300.70312ZM362.0625 297.04688L362.0625 298.35938Q362.0625 299.40625 361.875 300.125Q361.6875 300.84375 361.32812 301.28125Q360.98438 301.71875 360.48438 301.92188Q360.0 302.125 359.375 302.125Q358.89062 302.125 358.46875 302.0Q358.04688 301.875 357.71875 301.60938Q357.39062 301.32812 357.15625 300.89062Q356.92188 300.45312 356.79688 299.82812Q356.67188 299.1875 356.67188 298.35938L356.67188 297.04688Q356.67188 296.0 356.85938 295.29688Q357.0625 294.59375 357.40625 294.15625Q357.76562 293.71875 358.25 293.53125Q358.75 293.34375 359.35938 293.34375Q359.85938 293.34375 360.28125 293.46875Q360.70312 293.59375 361.03125 293.85938Q361.35938 294.10938 361.57812 294.54688Q361.8125 294.96875 361.9375 295.59375Q362.0625 296.21875 362.0625 297.04688ZM360.96875 298.53125L360.96875 296.875Q360.96875 296.29688 360.90625 295.85938Q360.84375 295.42188 360.70312 295.10938Q360.57812 294.79688 360.375 294.60938Q360.1875 294.42188 359.9375 294.32812Q359.6875 294.23438 359.35938 294.23438Q358.98438 294.23438 358.67188 294.375Q358.375 294.51562 358.17188 294.82812Q357.96875 295.14062 357.85938 295.65625Q357.76562 296.15625 357.76562 296.875L357.76562 298.53125Q357.76562 299.10938 357.82812 299.54688Q357.90625 299.98438 358.03125 300.3125Q358.17188 300.625 358.35938 300.82812Q358.5625 301.03125 358.8125 301.125Q359.0625 301.21875 359.375 301.21875Q359.78125 301.21875 360.07812 301.07812Q360.375 300.92188 360.57812 300.59375Q360.78125 300.26562 360.875 299.76562Q360.96875 299.25 360.96875 298.53125ZM369.0625 297.04688L369.0625 298.35938Q369.0625 299.40625 368.875 300.125Q368.6875 300.84375 368.32812 301.28125Q367.98438 301.71875 367.48438 301.92188Q367.0 302.125 366.375 302.125Q365.89062 302.125 365.46875 302.0Q365.04688 301.875 364.71875 301.60938Q364.39062 301.32812 364.15625 300.89062Q363.92188 300.45312 363.79688 299.82812Q363.67188 299.1875 363.67188 298.35938L363.67188 297.04688Q363.67188 296.0 363.85938 295.29688Q364.0625 294.59375 364.40625 294.15625Q364.76562 293.71875 365.25 293.53125Q365.75 293.34375 366.35938 293.34375Q366.85938 293.34375 367.28125 293.46875Q367.70312 293.59375 368.03125 293.85938Q368.35938 294.10938 368.57812 294.54688Q368.8125 294.96875 368.9375 295.59375Q369.0625 296.21875 369.0625 297.04688ZM367.96875 298.53125L367.96875 296.875Q367.96875 296.29688 367.90625 295.85938Q367.84375 295.42188 367.70312 295.10938Q367.57812 294.79688 367.375 294.60938Q367.1875 294.42188 366.9375 294.32812Q366.6875 294.23438 366.35938 294.23438Q365.98438 294.23438 365.67188 294.375Q365.375 294.51562 365.17188 294.82812Q364.96875 295.14062 364.85938 295.65625Q364.76562 296.15625 364.76562 296.875L364.76562 298.53125Q364.76562 299.10938 364.82812 299.54688Q364.90625 299.98438 365.03125 300.3125Q365.17188 300.625 365.35938 300.82812Q365.5625 301.03125 365.8125 301.125Q366.0625 301.21875 366.375 301.21875Q366.78125 301.21875 367.07812 301.07812Q367.375 300.92188 367.57812 300.59375Q367.78125 300.26562 367.875 299.76562Q367.96875 299.25 367.96875 298.53125Z" fill-rule="nonzero"/><path stroke="#cccccc" stroke-width="1.0" stroke-linecap="butt" d="M405.61667 305.0C405.61667 286.43402 390.56598 271.38333 372.0 271.38333C353.43402 271.38333 338.38333 286.43402 338.38333 305.0C338.38333 323.56598 353.43402 338.61667 372.0 338.61667C390.56598 338.61667 405.61667 323.56598 405.61667 305.0" fill-rule="nonzero"/><path fill="#000000" d="M353.0625 263.4302L353.0625 264.7427Q353.0625 265.78958 352.875 266.50833Q352.6875 267.22708 352.32812 267.66458Q351.98438 268.10208 351.48438 268.3052Q351.0 268.50833 350.375 268.50833Q349.89062 268.50833 349.46875 268.38333Q349.04688 268.25833 348.71875 267.9927Q348.39062 267.71146 348.15625 267.27396Q347.92188 266.83646 347.79688 266.21146Q347.67188 265.57083 347.67188 264.7427L347.67188 263.4302Q347.67188 262.38333 347.85938 261.6802Q348.0625 260.97708 348.40625 260.53958Q348.76562 260.10208 349.25 259.91458Q349.75 259.72708 350.35938 259.72708Q350.85938 259.72708 351.28125 259.85208Q351.70312 259.97708 352.03125 260.2427Q352.35938 260.4927 352.57812 260.9302Q352.8125 261.35208 352.9375 261.97708Q353.0625 262.60208 353.0625 263.4302ZM351.96875 264.91458L351.96875 263.25833Q351.96875 262.6802 351.90625 262.2427Q351.84375 261.8052 351.70312 261.4927Q351.57812 261.1802 351.375 260.9927Q351.1875 260.8052 350.9375 260.71146Q350.6875 260.6177 350.35938 260.6177Q349.98438 260.6177 349.67188 260.75833Q349.375 260.89896 349.17188 261.21146Q348.96875 261.52396 348.85938 262.03958Q348.76562 262.53958 348.76562 263.25833L348.76562 264.91458Q348.76562 265.4927 348.82812 265.9302Q348.90625 266.3677 349.03125 266.69583Q349.17188 267.00833 349.35938 267.21146Q349.5625 267.41458 349.8125 267.50833Q350.0625 267.60208 350.375 267.60208Q350.78125 267.60208 351.07812 267.46146Q351.375 267.3052 351.57812 266.97708Q351.78125 266.64896 351.875 266.14896Q351.96875 265.63333 351.96875 264.91458ZM355.8125 267.08646L355.8125 267.96146Q355.8125 268.50833 355.53125 269.10208Q355.26562 269.69583 354.78125 270.08646L354.17188 269.66458Q354.35938 269.39896 354.48438 269.13333Q354.60938 268.8677 354.67188 268.58646Q354.75 268.3052 354.75 267.97708L354.75 267.08646L355.8125 267.08646ZM362.0625 263.4302L362.0625 264.7427Q362.0625 265.78958 361.875 266.50833Q361.6875 267.22708 361.32812 267.66458Q360.98438 268.10208 360.48438 268.3052Q360.0 268.50833 359.375 268.50833Q358.89062 268.50833 358.46875 268.38333Q358.04688 268.25833 357.71875 267.9927Q357.39062 267.71146 357.15625 267.27396Q356.92188 266.83646 356.79688 266.21146Q356.67188 265.57083 356.67188 264.7427L356.67188 263.4302Q356.67188 262.38333 356.85938 261.6802Q357.0625 260.97708 357.40625 260.53958Q357.76562 260.10208 358.25 259.91458Q358.75 259.72708 359.35938 259.72708Q359.85938 259.72708 360.28125 259.85208Q360.70312 259.97708 361.03125 260.2427Q361.35938 260.4927 361.57812 260.9302Q361.8125 261.35208 361.9375 261.97708Q362.0625 262.60208 362.0625 263.4302ZM360.96875 264.91458L360.96875 263.25833Q360.96875 262.6802 360.90625 262.2427Q360.84375 261.8052 360.70312 261.4927Q360.57812 261.1802 360.375 260.9927Q360.1875 260.8052 359.9375 260.71146Q359.6875 260.6177 359.35938 260.6177Q358.98438 260.6177 358.67188 260.75833Q358.375 260.89896 358.17188 261.21146Q357.96875 261.52396 357.85938 262.03958Q357.76562 262.53958 357.76562 263.25833L357.76562 264.91458Q357.76562 265.4927 357.82812 265.9302Q357.90625 266.3677 358.03125 266.69583Q358.17188 267.00833 358.35938 267.21146Q358.5625 267.41458 358.8125 267.50833Q359.0625 267.60208 359.375 267.60208Q359.78125 267.60208 360.07812 267.46146Q360.375 267.3052 360.57812 266.97708Q360.78125 266.64896 360.875 266.14896Q360.96875 265.63333 360.96875 264.91458ZM365.07812 264.32083L364.21875 264.10208L364.64062 259.85208L369.01562 259.85208L369.01562 260.85208L365.5625 260.85208L365.29688 263.1802Q365.53125 263.03958 365.89062 262.9302Q366.26562 262.8052 366.73438 262.8052Q367.3125 262.8052 367.78125 263.00833Q368.25 263.21146 368.57812 263.58646Q368.92188 263.96146 369.09375 264.4927Q369.26562 265.00833 369.26562 265.66458Q369.26562 266.27396 369.09375 266.78958Q368.9375 267.3052 368.59375 267.69583Q368.26562 268.07083 367.75 268.28958Q367.25 268.50833 366.5625 268.50833Q366.04688 268.50833 365.59375 268.3677Q365.14062 268.21146 364.76562 267.91458Q364.40625 267.6177 364.1875 267.1802Q363.96875 266.7427 363.90625 266.13333L364.9375 266.13333Q365.0 266.6177 365.20312 266.94583Q365.42188 267.27396 365.76562 267.44583Q366.10938 267.60208 366.5625 267.60208Q366.95312 267.60208 367.25 267.47708Q367.54688 267.33646 367.75 267.08646Q367.96875 266.83646 368.07812 266.47708Q368.1875 266.1177 368.1875 265.6802Q368.1875 265.27396 368.0625 264.9302Q367.95312 264.58646 367.73438 264.33646Q367.51562 264.07083 367.20312 263.9302Q366.89062 263.77396 366.46875 263.77396Q365.9375 263.77396 365.65625 263.9302Q365.375 264.07083 365.07812 264.32083Z" fill-rule="nonzero"/><path stroke="#cccccc" stroke-width="1.0" stroke-linecap="butt" d="M439.23334 305.0C439.23334 267.86804 409.13196 237.76666 372.0 237.76666C334.86804 237.76666 304.76666 267.86804 304.76666 305.0C304.76666 342.13196 334.86804 372.23334 372.0 372.23334C409.13196 372.23334 439.23334 342.13196 439.23334 305.0" fill-rule="nonzero"/><path fill="#000000" d="M353.0625 229.81354L353.0625 231.12604Q353.0625 232.17291 352.875 232.89166Q352.6875 233.61041 352.32812 234.04791Q351.98438 234.48541 351.48438 234.68854Q351.0 234.89166 350.375 234.89166Q349.89062 234.89166 349.46875 234.76666Q349.04688 234.64166 348.71875 234.37604Q348.39062 234.09479 348.15625 233.65729Q347.92188 233.21979 347.79688 232.59479Q347.67188 231.95416 347.67188 231.12604L347.67188 229.81354Q347.67188 228.76666 347.85938 228.06354Q348.0625 227.36041 348.40625 226.92291Q348.76562 226.48541 349.25 226.29791Q349.75 226.11041 350.35938 226.11041Q350.85938 226.11041 351.28125 226.23541Q351.70312 226.36041 352.03125 226.62604Q352.35938 226.87604 352.57812 227.31354Q352.8125 227.73541 352.9375 228.36041Q353.0625 228.98541 353.0625 229.81354ZM351.96875 231.29791L351.96875 229.64166Q351.96875 229.06354 351.90625 228.62604Q351.84375 228.18854 351.70312 227.87604Q351.57812 227.56354 351.375 227.37604Q351.1875 227.18854 350.9375 227.09479Q350.6875 227.00104 350.35938 227.00104Q349.98438 227.00104 349.67188 227.14166Q349.375 227.28229 349.17188 227.59479Q348.96875 227.90729 348.85938 228.42291Q348.76562 228.92291 348.76562 229.64166L348.76562 231.29791Q348.76562 231.87604 348.82812 232.31354Q348.90625 232.75104 349.03125 233.07916Q349.17188 233.39166 349.35938 233.59479Q349.5625 233.79791 349.8125 233.89166Q350.0625 233.98541 350.375 233.98541Q350.78125 233.98541 351.07812 233.84479Q351.375 233.68854 351.57812 233.36041Q351.78125 233.03229 351.875 232.53229Q351.96875 232.01666 351.96875 231.29791ZM355.8125 233.46979L355.8125 234.34479Q355.8125 234.89166 355.53125 235.48541Q355.26562 236.07916 354.78125 236.46979L354.17188 236.04791Q354.35938 235.78229 354.48438 235.51666Q354.60938 235.25104 354.67188 234.96979Q354.75 234.68854 354.75 234.36041L354.75 233.46979L355.8125 233.46979ZM360.26562 226.18854L360.26562 234.76666L359.1875 234.76666L359.1875 227.54791L357.0 228.34479L357.0 227.36041L360.10938 226.18854L360.26562 226.18854ZM369.0625 229.81354L369.0625 231.12604Q369.0625 232.17291 368.875 232.89166Q368.6875 233.61041 368.32812 234.04791Q367.98438 234.48541 367.48438 234.68854Q367.0 234.89166 366.375 234.89166Q365.89062 234.89166 365.46875 234.76666Q365.04688 234.64166 364.71875 234.37604Q364.39062 234.09479 364.15625 233.65729Q363.92188 233.21979 363.79688 232.59479Q363.67188 231.95416 363.67188 231.12604L363.67188 229.81354Q363.67188 228.76666 363.85938 228.06354Q364.0625 227.36041 364.40625 226.92291Q364.76562 226.48541 365.25 226.29791Q365.75 226.11041 366.35938 226.11041Q366.85938 226.11041 367.28125 226.23541Q367.70312 226.36041 368.03125 226.62604Q368.35938 226.87604 368.57812 227.31354Q368.8125 227.73541 368.9375 228.36041Q369.0625 228.98541 369.0625 229.81354ZM367.96875 231.29791L367.96875 229.64166Q367.96875 229.06354 367.90625 228.62604Q367.84375 228.18854 367.70312 227.87604Q367.57812 227.56354 367.375 227.37604Q367.1875 227.18854 366.9375 227.09479Q366.6875 227.00104 366.35938 227.00104Q365.98438 227.00104 365.67188 227.14166Q365.375 227.28229 365.17188 227.59479Q364.96875 227.90729 364.85938 228.42291Q364.76562 228.92291 364.76562 229.64166L364.76562 231.29791Q364.76562 231.87604 364.82812 232.31354Q364.90625 232.75104 365.03125 233.07916Q365.17188 233.39166 365.35938 233.59479Q365.5625 233.79791 365.8125 233.89166Q366.0625 233.98541 366.375 233.98541Q366.78125 233.98541 367.07812 233.84479Q367.375 233.68854 367.57812 233.36041Q367.78125 233.03229 367.875 232.53229Q367.96875 232.01666 367.96875 231.29791Z" fill-rule="nonzero"/><path stroke="#cccccc" stroke-width="1.0" stroke-linecap="butt" d="M472.85 305.0C472.85 249.30208 427.6979 204.15 372.0 204.15C316.3021 204.15 271.15 249.30208 271.15 305.0C271.15 360.6979 316.3021 405.85 372.0 405.85C427.6979 405.85 472.85 360.6979 472.85 305.0" fill-rule="nonzero"/><path fill="#000000" d="M353.0625 196.19687L353.0625 197.50937Q353.0625 198.55624 352.875 199.275Q352.6875 199.99374 352.32812 200.43124Q351.98438 200.86874 351.48438 201.07187Q351.0 201.275 350.375 201.275Q349.89062 201.275 349.46875 201.15Q349.04688 201.025 348.71875 200.75937Q348.39062 200.47812 348.15625 200.04062Q347.92188 199.60312 347.79688 198.97812Q347.67188 198.3375 347.67188 197.50937L347.67188 196.19687Q347.67188 195.15 347.85938 194.44687Q348.0625 193.74374 348.40625 193.30624Q348.76562 192.86874 349.25 192.68124Q349.75 192.49374 350.35938 192.49374Q350.85938 192.49374 351.28125 192.61874Q351.70312 192.74374 352.03125 193.00937Q352.35938 193.25937 352.57812 193.69687Q352.8125 194.11874 352.9375 194.74374Q353.0625 195.36874 353.0625 196.19687ZM351.96875 197.68124L351.96875 196.025Q351.96875 195.44687 351.90625 195.00937Q351.84375 194.57187 351.70312 194.25937Q351.57812 193.94687 351.375 193.75937Q351.1875 193.57187 350.9375 193.47812Q350.6875 193.38437 350.35938 193.38437Q349.98438 193.38437 349.67188 193.525Q349.375 193.66562 349.17188 193.97812Q348.96875 194.29062 348.85938 194.80624Q348.76562 195.30624 348.76562 196.025L348.76562 197.68124Q348.76562 198.25937 348.82812 198.69687Q348.90625 199.13437 349.03125 199.4625Q349.17188 199.775 349.35938 199.97812Q349.5625 200.18124 349.8125 200.275Q350.0625 200.36874 350.375 200.36874Q350.78125 200.36874 351.07812 200.22812Q351.375 200.07187 351.57812 199.74374Q351.78125 199.41562 351.875 198.91562Q351.96875 198.4 351.96875 197.68124ZM355.8125 199.85312L355.8125 200.72812Q355.8125 201.275 355.53125 201.86874Q355.26562 202.4625 354.78125 202.85312L354.17188 202.43124Q354.35938 202.16562 354.48438 201.9Q354.60938 201.63437 354.67188 201.35312Q354.75 201.07187 354.75 200.74374L354.75 199.85312L355.8125 199.85312ZM360.26562 192.57187L360.26562 201.15L359.1875 201.15L359.1875 193.93124L357.0 194.72812L357.0 193.74374L360.10938 192.57187L360.26562 192.57187ZM365.07812 197.0875L364.21875 196.86874L364.64062 192.61874L369.01562 192.61874L369.01562 193.61874L365.5625 193.61874L365.29688 195.94687Q365.53125 195.80624 365.89062 195.69687Q366.26562 195.57187 366.73438 195.57187Q367.3125 195.57187 367.78125 195.775Q368.25 195.97812 368.57812 196.35312Q368.92188 196.72812 369.09375 197.25937Q369.26562 197.775 369.26562 198.43124Q369.26562 199.04062 369.09375 199.55624Q368.9375 200.07187 368.59375 200.4625Q368.26562 200.8375 367.75 201.05624Q367.25 201.275 366.5625 201.275Q366.04688 201.275 365.59375 201.13437Q365.14062 200.97812 364.76562 200.68124Q364.40625 200.38437 364.1875 199.94687Q363.96875 199.50937 363.90625 198.9L364.9375 198.9Q365.0 199.38437 365.20312 199.7125Q365.42188 200.04062 365.76562 200.2125Q366.10938 200.36874 366.5625 200.36874Q366.95312 200.36874 367.25 200.24374Q367.54688 200.10312 367.75 199.85312Q367.96875 199.60312 368.07812 199.24374Q368.1875 198.88437 368.1875 198.44687Q368.1875 198.04062 368.0625 197.69687Q367.95312 197.35312 367.73438 197.10312Q367.51562 196.8375 367.20312 196.69687Q366.89062 196.54062 366.46875 196.54062Q365.9375 196.54062 365.65625 196.69687Q365.375 196.8375 365.07812 197.0875Z" fill-rule="nonzero"/><path stroke="#cccccc" stroke-width="1.0" stroke-linecap="butt" d="M506.46667 305.0C506.46667 230.73611 446.2639 170.53334 372.0 170.53334C297.7361 170.53334 237.53334 230.73611 237.53334 305.0C237.53334 379.2639 297.7361 439.46667 372.0 439.46667C446.2639 439.46667 506.46667 379.2639 506.46667 305.0" fill-rule="nonzero"/><path fill="#000000" d="M353.0625 162.58022L353.0625 163.89272Q353.0625 164.93959 352.875 165.65834Q352.6875 166.37709 352.32812 166.81459Q351.98438 167.25209 351.48438 167.45522Q351.0 167.65834 350.375 167.65834Q349.89062 167.65834 349.46875 167.53334Q349.04688 167.40834 348.71875 167.14272Q348.39062 166.86147 348.15625 166.42397Q347.92188 165.98647 347.79688 165.36147Q347.67188 164.72084 347.67188 163.89272L347.67188 162.58022Q347.67188 161.53334 347.85938 160.83022Q348.0625 160.12709 348.40625 159.68959Q348.76562 159.25209 349.25 159.06459Q349.75 158.87709 350.35938 158.87709Q350.85938 158.87709 351.28125 159.00209Q351.70312 159.12709 352.03125 159.39272Q352.35938 159.64272 352.57812 160.08022Q352.8125 160.50209 352.9375 161.12709Q353.0625 161.75209 353.0625 162.58022ZM351.96875 164.06459L351.96875 162.40834Q351.96875 161.83022 351.90625 161.39272Q351.84375 160.95522 351.70312 160.64272Q351.57812 160.33022 351.375 160.14272Q351.1875 159.95522 350.9375 159.86147Q350.6875 159.76772 350.35938 159.76772Q349.98438 159.76772 349.67188 159.90834Q349.375 160.04897 349.17188 160.36147Q348.96875 160.67397 348.85938 161.18959Q348.76562 161.68959 348.76562 162.40834L348.76562 164.06459Q348.76562 164.64272 348.82812 165.08022Q348.90625 165.51772 349.03125 165.84584Q349.17188 166.15834 349.35938 166.36147Q349.5625 166.56459 349.8125 166.65834Q350.0625 166.75209 350.375 166.75209Q350.78125 166.75209 351.07812 166.61147Q351.375 166.45522 351.57812 166.12709Q351.78125 165.79897 351.875 165.29897Q351.96875 164.78334 351.96875 164.06459ZM355.8125 166.23647L355.8125 167.11147Q355.8125 167.65834 355.53125 168.25209Q355.26562 168.84584 354.78125 169.23647L354.17188 168.81459Q354.35938 168.54897 354.48438 168.28334Q354.60938 168.01772 354.67188 167.73647Q354.75 167.45522 354.75 167.12709L354.75 166.23647L355.8125 166.23647ZM362.29688 166.64272L362.29688 167.53334L356.71875 167.53334L356.71875 166.75209L359.51562 163.64272Q360.03125 163.06459 360.3125 162.67397Q360.59375 162.26772 360.70312 161.95522Q360.82812 161.62709 360.82812 161.29897Q360.82812 160.87709 360.65625 160.53334Q360.48438 160.18959 360.14062 159.98647Q359.8125 159.76772 359.32812 159.76772Q358.76562 159.76772 358.39062 160.00209Q358.01562 160.22084 357.82812 160.61147Q357.64062 161.00209 357.64062 161.50209L356.54688 161.50209Q356.54688 160.78334 356.85938 160.18959Q357.1875 159.59584 357.79688 159.23647Q358.42188 158.87709 359.32812 158.87709Q360.14062 158.87709 360.71875 159.17397Q361.29688 159.45522 361.59375 159.97084Q361.90625 160.47084 361.90625 161.15834Q361.90625 161.53334 361.78125 161.92397Q361.65625 162.29897 361.4375 162.68959Q361.21875 163.06459 360.92188 163.43959Q360.64062 163.79897 360.3125 164.15834L358.01562 166.64272L362.29688 166.64272ZM369.0625 162.58022L369.0625 163.89272Q369.0625 164.93959 368.875 165.65834Q368.6875 166.37709 368.32812 166.81459Q367.98438 167.25209 367.48438 167.45522Q367.0 167.65834 366.375 167.65834Q365.89062 167.65834 365.46875 167.53334Q365.04688 167.40834 364.71875 167.14272Q364.39062 166.86147 364.15625 166.42397Q363.92188 165.98647 363.79688 165.36147Q363.67188 164.72084 363.67188 163.89272L363.67188 162.58022Q363.67188 161.53334 363.85938 160.83022Q364.0625 160.12709 364.40625 159.68959Q364.76562 159.25209 365.25 159.06459Q365.75 158.87709 366.35938 158.87709Q366.85938 158.87709 367.28125 159.00209Q367.70312 159.12709 368.03125 159.39272Q368.35938 159.64272 368.57812 160.08022Q368.8125 160.50209 368.9375 161.12709Q369.0625 161.75209 369.0625 162.58022ZM367.96875 164.06459L367.96875 162.40834Q367.96875 161.83022 367.90625 161.39272Q367.84375 160.95522 367.70312 160.64272Q367.57812 160.33022 367.375 160.14272Q367.1875 159.95522 366.9375 159.86147Q366.6875 159.76772 366.35938 159.76772Q365.98438 159.76772 365.67188 159.90834Q365.375 160.04897 365.17188 160.36147Q364.96875 160.67397 364.85938 161.18959Q364.76562 161.68959 364.76562 162.40834L364.76562 164.06459Q364.76562 164.64272 364.82812 165.08022Q364.90625 165.51772 365.03125 165.84584Q365.17188 166.15834 365.35938 166.36147Q365.5625 166.56459 365.8125 166.65834Q366.0625 166.75209 366.375 166.75209Q366.78125 166.75209 367.07812 166.61147Q367.375 166.45522 367.57812 166.12709Q367.78125 165.79897 367.875 165.29897Q367.96875 164.78334 367.96875 164.06459Z" fill-rule="nonzero"/><path stroke="#cccccc" stroke-width="1.0" stroke-linecap="butt" d="M540.0833 305.0C540.0833 212.17014 464.82986 136.91667 372.0 136.91667C279.17014 136.91667 203.91667 212.17014 203.91667 305.0C203.91667 397.82986 279.17014 473.08334 372.0 473.08334C464.82986 473.08334 540.0833 397.82986 540.0833 305.0" fill-rule="nonzero"/><path fill="#000000" d="M353.0625 128.96355L353.0625 130.27605Q353.0625 131.32292 352.875 132.04167Q352.6875 132.76042 352.32812 133.19792Q351.98438 133.63542 351.48438 133.83855Q351.0 134.04167 350.375 134.04167Q349.89062 134.04167 349.46875 133.91667Q349.04688 133.79167 348.71875 133.52605Q348.39062 133.2448 348.15625 132.8073Q347.92188 132.3698 347.79688 131.7448Q347.67188 131.10417 347.67188 130.27605L347.67188 128.96355Q347.67188 127.91667 347.85938 127.21355Q348.0625 126.51042 348.40625 126.07292Q348.76562 125.63542 349.25 125.44792Q349.75 125.26042 350.35938 125.26042Q350.85938 125.26042 351.28125 125.38542Q351.70312 125.51042 352.03125 125.77605Q352.35938 126.02605 352.57812 126.46355Q352.8125 126.88542 352.9375 127.51042Q353.0625 128.13542 353.0625 128.96355ZM351.96875 130.44792L351.96875 128.79167Q351.96875 128.21355 351.90625 127.77605Q351.84375 127.33855 351.70312 127.02605Q351.57812 126.71355 351.375 126.52605Q351.1875 126.33855 350.9375 126.2448Q350.6875 126.15105 350.35938 126.15105Q349.98438 126.15105 349.67188 126.29167Q349.375 126.4323 349.17188 126.7448Q348.96875 127.0573 348.85938 127.57292Q348.76562 128.07292 348.76562 128.79167L348.76562 130.44792Q348.76562 131.02605 348.82812 131.46355Q348.90625 131.90105 349.03125 132.22917Q349.17188 132.54167 349.35938 132.7448Q349.5625 132.94792 349.8125 133.04167Q350.0625 133.13542 350.375 133.13542Q350.78125 133.13542 351.07812 132.9948Q351.375 132.83855 351.57812 132.51042Q351.78125 132.1823 351.875 131.6823Q351.96875 131.16667 351.96875 130.44792ZM355.8125 132.6198L355.8125 133.4948Q355.8125 134.04167 355.53125 134.63542Q355.26562 135.22917 354.78125 135.6198L354.17188 135.19792Q354.35938 134.9323 354.48438 134.66667Q354.60938 134.40105 354.67188 134.1198Q354.75 133.83855 354.75 133.51042L354.75 132.6198L355.8125 132.6198ZM362.29688 133.02605L362.29688 133.91667L356.71875 133.91667L356.71875 133.13542L359.51562 130.02605Q360.03125 129.44792 360.3125 129.0573Q360.59375 128.65105 360.70312 128.33855Q360.82812 128.01042 360.82812 127.6823Q360.82812 127.26042 360.65625 126.91667Q360.48438 126.57292 360.14062 126.3698Q359.8125 126.15105 359.32812 126.15105Q358.76562 126.15105 358.39062 126.38542Q358.01562 126.60417 357.82812 126.9948Q357.64062 127.38542 357.64062 127.88542L356.54688 127.88542Q356.54688 127.16667 356.85938 126.57292Q357.1875 125.97917 357.79688 125.6198Q358.42188 125.26042 359.32812 125.26042Q360.14062 125.26042 360.71875 125.5573Q361.29688 125.83855 361.59375 126.35417Q361.90625 126.85417 361.90625 127.54167Q361.90625 127.91667 361.78125 128.3073Q361.65625 128.6823 361.4375 129.07292Q361.21875 129.44792 360.92188 129.82292Q360.64062 130.1823 360.3125 130.54167L358.01562 133.02605L362.29688 133.02605ZM365.07812 129.85417L364.21875 129.63542L364.64062 125.38542L369.01562 125.38542L369.01562 126.38542L365.5625 126.38542L365.29688 128.71355Q365.53125 128.57292 365.89062 128.46355Q366.26562 128.33855 366.73438 128.33855Q367.3125 128.33855 367.78125 128.54167Q368.25 128.7448 368.57812 129.1198Q368.92188 129.4948 369.09375 130.02605Q369.26562 130.54167 369.26562 131.19792Q369.26562 131.8073 369.09375 132.32292Q368.9375 132.83855 368.59375 133.22917Q368.26562 133.60417 367.75 133.82292Q367.25 134.04167 366.5625 134.04167Q366.04688 134.04167 365.59375 133.90105Q365.14062 133.7448 364.76562 133.44792Q364.40625 133.15105 364.1875 132.71355Q363.96875 132.27605 363.90625 131.66667L364.9375 131.66667Q365.0 132.15105 365.20312 132.47917Q365.42188 132.8073 365.76562 132.97917Q366.10938 133.13542 366.5625 133.13542Q366.95312 133.13542 367.25 133.01042Q367.54688 132.8698 367.75 132.6198Q367.96875 132.3698 368.07812 132.01042Q368.1875 131.65105 368.1875 131.21355Q368.1875 130.8073 368.0625 130.46355Q367.95312 130.1198 367.73438 129.8698Q367.51562 129.60417 367.20312 129.46355Q366.89062 129.3073 366.46875 129.3073Q365.9375 129.3073 365.65625 129.46355Q365.375 129.60417 365.07812 129.85417Z" fill-rule="nonzero"/><path stroke="#cccccc" stroke-width="1.0" stroke-linecap="butt" d="M573.7 305.0C573.7 193.60417 483.39584 103.3 372.0 103.3C260.60416 103.3 170.3 193.60417 170.3 305.0C170.3 416.39584 260.60416 506.7 372.0 506.7C483.39584 506.7 573.7 416.39584 573.7 305.0" fill-rule="nonzero"/><path fill="#000000" d="M353.0625 95.34688L353.0625 96.65938Q353.0625 97.70625 352.875 98.425Q352.6875 99.14375 352.32812 99.58125Q351.98438 100.01875 351.48438 100.22188Q351.0 100.425 350.375 100.425Q349.89062 100.425 349.46875 100.3Q349.04688 100.175 348.71875 99.90938Q348.39062 99.62813 348.15625 99.19063Q347.92188 98.75313 347.79688 98.12813Q347.67188 97.4875 347.67188 96.65938L347.67188 95.34688Q347.67188 94.3 347.85938 93.59688Q348.0625 92.89375 348.40625 92.45625Q348.76562 92.01875 349.25 91.83125Q349.75 91.64375 350.35938 91.64375Q350.85938 91.64375 351.28125 91.76875Q351.70312 91.89375 352.03125 92.15938Q352.35938 92.40938 352.57812 92.84688Q352.8125 93.26875 352.9375 93.89375Q353.0625 94.51875 353.0625 95.34688ZM351.96875 96.83125L351.96875 95.175Q351.96875 94.59688 351.90625 94.15938Q351.84375 93.72188 351.70312 93.40938Q351.57812 93.09688 351.375 92.90938Q351.1875 92.72188 350.9375 92.62813Q350.6875 92.53438 350.35938 92.53438Q349.98438 92.53438 349.67188 92.675Q349.375 92.81563 349.17188 93.12813Q348.96875 93.44063 348.85938 93.95625Q348.76562 94.45625 348.76562 95.175L348.76562 96.83125Q348.76562 97.40938 348.82812 97.84688Q348.90625 98.28438 349.03125 98.6125Q349.17188 98.925 349.35938 99.12813Q349.5625 99.33125 349.8125 99.425Q350.0625 99.51875 350.375 99.51875Q350.78125 99.51875 351.07812 99.37813Q351.375 99.22188 351.57812 98.89375Q351.78125 98.56563 351.875 98.06563Q351.96875 97.55 351.96875 96.83125ZM355.8125 99.00313L355.8125 99.87813Q355.8125 100.425 355.53125 101.01875Q355.26562 101.6125 354.78125 102.00313L354.17188 101.58125Q354.35938 101.31563 354.48438 101.05Q354.60938 100.78438 354.67188 100.50313Q354.75 100.22188 354.75 99.89375L354.75 99.00313L355.8125 99.00313ZM358.29688 95.50313L359.0625 95.50313Q359.64062 95.50313 360.0 95.31563Q360.375 95.1125 360.5625 94.78438Q360.75 94.45625 360.75 94.03438Q360.75 93.55 360.57812 93.22188Q360.42188 92.87813 360.09375 92.70625Q359.76562 92.53438 359.26562 92.53438Q358.79688 92.53438 358.45312 92.72188Q358.10938 92.89375 357.90625 93.22188Q357.71875 93.55 357.71875 94.00313L356.625 94.00313Q356.625 93.34688 356.95312 92.81563Q357.28125 92.28438 357.875 91.97188Q358.46875 91.64375 359.26562 91.64375Q360.03125 91.64375 360.60938 91.925Q361.1875 92.19063 361.51562 92.7375Q361.84375 93.26875 361.84375 94.06563Q361.84375 94.39375 361.6875 94.75313Q361.53125 95.1125 361.21875 95.44063Q360.90625 95.75313 360.40625 95.95625Q359.92188 96.15938 359.21875 96.15938L358.29688 96.15938L358.29688 95.50313ZM358.29688 96.39375L358.29688 95.7375L359.21875 95.7375Q360.03125 95.7375 360.5625 95.94063Q361.09375 96.12813 361.40625 96.45625Q361.71875 96.76875 361.84375 97.15938Q361.96875 97.53438 361.96875 97.925Q361.96875 98.51875 361.76562 98.9875Q361.5625 99.44063 361.1875 99.76875Q360.82812 100.08125 360.32812 100.25313Q359.84375 100.425 359.26562 100.425Q358.70312 100.425 358.21875 100.26875Q357.73438 100.09688 357.35938 99.8Q356.98438 99.50313 356.76562 99.06563Q356.5625 98.6125 356.5625 98.05L357.64062 98.05Q357.64062 98.4875 357.82812 98.83125Q358.03125 99.15938 358.39062 99.34688Q358.76562 99.51875 359.26562 99.51875Q359.76562 99.51875 360.125 99.34688Q360.48438 99.175 360.67188 98.83125Q360.875 98.47188 360.875 97.94063Q360.875 97.40938 360.65625 97.06563Q360.4375 96.72188 360.01562 96.56563Q359.60938 96.39375 359.0625 96.39375L358.29688 96.39375ZM369.0625 95.34688L369.0625 96.65938Q369.0625 97.70625 368.875 98.425Q368.6875 99.14375 368.32812 99.58125Q367.98438 100.01875 367.48438 100.22188Q367.0 100.425 366.375 100.425Q365.89062 100.425 365.46875 100.3Q365.04688 100.175 364.71875 99.90938Q364.39062 99.62813 364.15625 99.19063Q363.92188 98.75313 363.79688 98.12813Q363.67188 97.4875 363.67188 96.65938L363.67188 95.34688Q363.67188 94.3 363.85938 93.59688Q364.0625 92.89375 364.40625 92.45625Q364.76562 92.01875 365.25 91.83125Q365.75 91.64375 366.35938 91.64375Q366.85938 91.64375 367.28125 91.76875Q367.70312 91.89375 368.03125 92.15938Q368.35938 92.40938 368.57812 92.84688Q368.8125 93.26875 368.9375 93.89375Q369.0625 94.51875 369.0625 95.34688ZM367.96875 96.83125L367.96875 95.175Q367.96875 94.59688 367.90625 94.15938Q367.84375 93.72188 367.70312 93.40938Q367.57812 93.09688 367.375 92.90938Q367.1875 92.72188 366.9375 92.62813Q366.6875 92.53438 366.35938 92.53438Q365.98438 92.53438 365.67188 92.675Q365.375 92.81563 365.17188 93.12813Q364.96875 93.44063 364.85938 93.95625Q364.76562 94.45625 364.76562 95.175L364.76562 96.83125Q364.76562 97.40938 364.82812 97.84688Q364.90625 98.28438 365.03125 98.6125Q365.17188 98.925 365.35938 99.12813Q365.5625 99.33125 365.8125 99.425Q366.0625 99.51875 366.375 99.51875Q366.78125 99.51875 367.07812 99.37813Q367.375 99.22188 367.57812 98.89375Q367.78125 98.56563 367.875 98.06563Q367.96875 97.55 367.96875 96.83125Z" fill-rule="nonzero"/><path stroke="#cccccc" stroke-width="1.0" stroke-linecap="butt" d="M372.0 305.0L372.0 103.0" fill-rule="nonzero"/><path fill="#000000" d="M349.125 68.96875L349.125 77.5L347.98438 77.5L347.98438 68.96875L349.125 68.96875ZM352.70312 72.8125L352.70312 73.734375L348.875 73.734375L348.875 72.8125L352.70312 72.8125ZM353.28125 68.96875L353.28125 69.890625L348.875 69.890625L348.875 68.96875L353.28125 68.96875ZM358.5625 76.421875L358.5625 73.15625Q358.5625 72.78125 358.40625 72.5Q358.26562 72.21875 357.96875 72.078125Q357.67188 71.921875 357.23438 71.921875Q356.8125 71.921875 356.5 72.0625Q356.20312 72.203125 356.03125 72.4375Q355.85938 72.65625 355.85938 72.921875L354.78125 72.921875Q354.78125 72.578125 354.95312 72.25Q355.125 71.90625 355.45312 71.640625Q355.78125 71.359375 356.25 71.203125Q356.71875 71.046875 357.29688 71.046875Q357.98438 71.046875 358.51562 71.28125Q359.04688 71.515625 359.34375 71.984375Q359.65625 72.453125 359.65625 73.15625L359.65625 76.109375Q359.65625 76.4375 359.70312 76.796875Q359.76562 77.140625 359.875 77.40625L359.875 77.5L358.73438 77.5Q358.65625 77.3125 358.60938 77.0Q358.5625 76.6875 358.5625 76.421875ZM358.75 73.65625L358.76562 74.421875L357.67188 74.421875Q357.20312 74.421875 356.84375 74.5Q356.48438 74.5625 356.23438 74.71875Q355.98438 74.859375 355.85938 75.078125Q355.73438 75.296875 355.73438 75.59375Q355.73438 75.890625 355.85938 76.140625Q356.0 76.375 356.26562 76.53125Q356.54688 76.671875 356.9375 76.671875Q357.4375 76.671875 357.8125 76.46875Q358.20312 76.25 358.42188 75.953125Q358.65625 75.640625 358.67188 75.34375L359.14062 75.875Q359.09375 76.109375 358.90625 76.421875Q358.73438 76.71875 358.42188 77.0Q358.125 77.265625 357.70312 77.453125Q357.29688 77.625 356.78125 77.625Q356.14062 77.625 355.65625 77.375Q355.17188 77.109375 354.90625 76.6875Q354.64062 76.265625 354.64062 75.734375Q354.64062 75.21875 354.82812 74.84375Q355.03125 74.453125 355.40625 74.1875Q355.78125 73.921875 356.3125 73.796875Q356.84375 73.65625 357.5 73.65625L358.75 73.65625ZM362.90625 72.15625L362.90625 77.5L361.82812 77.5L361.82812 71.15625L362.875 71.15625L362.90625 72.15625ZM364.89062 71.125L364.89062 72.125Q364.75 72.109375 364.625 72.09375Q364.51562 72.078125 364.35938 72.078125Q363.98438 72.078125 363.6875 72.203125Q363.40625 72.3125 363.20312 72.53125Q363.01562 72.734375 362.89062 73.03125Q362.78125 73.328125 362.75 73.671875L362.4375 73.84375Q362.4375 73.265625 362.54688 72.765625Q362.67188 72.265625 362.90625 71.875Q363.15625 71.484375 363.51562 71.265625Q363.89062 71.046875 364.40625 71.046875Q364.53125 71.046875 364.67188 71.078125Q364.82812 71.09375 364.89062 71.125ZM366.90625 72.515625L366.90625 77.5L365.82812 77.5L365.82812 71.15625L366.85938 71.15625L366.90625 72.515625ZM366.65625 74.09375L366.20312 74.078125Q366.20312 73.421875 366.39062 72.875Q366.57812 72.3125 366.92188 71.90625Q367.26562 71.5 367.73438 71.28125Q368.20312 71.046875 368.78125 71.046875Q369.25 71.046875 369.625 71.171875Q370.0 71.296875 370.26562 71.578125Q370.53125 71.84375 370.67188 72.28125Q370.8125 72.71875 370.8125 73.34375L370.8125 77.5L369.71875 77.5L369.71875 73.328125Q369.71875 72.828125 369.57812 72.53125Q369.4375 72.234375 369.15625 72.09375Q368.875 71.953125 368.45312 71.953125Q368.04688 71.953125 367.71875 72.125Q367.39062 72.296875 367.15625 72.59375Q366.92188 72.890625 366.78125 73.28125Q366.65625 73.65625 366.65625 74.09375ZM375.45312 77.625Q374.79688 77.625 374.25 77.40625Q373.71875 77.171875 373.32812 76.765625Q372.95312 76.34375 372.75 75.78125Q372.54688 75.21875 372.54688 74.546875L372.54688 74.3125Q372.54688 73.53125 372.76562 72.921875Q373.0 72.3125 373.39062 71.890625Q373.78125 71.46875 374.28125 71.265625Q374.78125 71.046875 375.3125 71.046875Q376.0 71.046875 376.48438 71.28125Q376.98438 71.515625 377.29688 71.9375Q377.625 72.34375 377.76562 72.921875Q377.92188 73.484375 377.92188 74.140625L377.92188 74.640625L373.1875 74.640625L373.1875 73.75L376.84375 73.75L376.84375 73.671875Q376.8125 73.25 376.65625 72.859375Q376.51562 72.453125 376.1875 72.203125Q375.875 71.9375 375.3125 71.9375Q374.95312 71.9375 374.64062 72.09375Q374.32812 72.25 374.09375 72.5625Q373.875 72.859375 373.75 73.296875Q373.64062 73.734375 373.64062 74.3125L373.64062 74.546875Q373.64062 75.0 373.76562 75.40625Q373.89062 75.796875 374.125 76.09375Q374.375 76.390625 374.71875 76.5625Q375.07812 76.734375 375.51562 76.734375Q376.09375 76.734375 376.48438 76.5Q376.89062 76.265625 377.1875 75.875L377.84375 76.390625Q377.64062 76.703125 377.3125 76.984375Q377.0 77.265625 376.53125 77.453125Q376.07812 77.625 375.45312 77.625ZM382.51562 75.8125Q382.51562 75.578125 382.40625 75.375Q382.3125 75.171875 382.0 75.015625Q381.6875 74.84375 381.0625 74.71875Q380.53125 74.609375 380.10938 74.46875Q379.6875 74.3125 379.39062 74.09375Q379.09375 73.875 378.9375 73.578125Q378.78125 73.28125 378.78125 72.890625Q378.78125 72.515625 378.9375 72.1875Q379.10938 71.84375 379.40625 71.59375Q379.71875 71.328125 380.15625 71.1875Q380.59375 71.046875 381.125 71.046875Q381.89062 71.046875 382.42188 71.3125Q382.96875 71.578125 383.25 72.03125Q383.53125 72.484375 383.53125 73.015625L382.45312 73.015625Q382.45312 72.765625 382.29688 72.515625Q382.14062 72.265625 381.84375 72.109375Q381.54688 71.9375 381.125 71.9375Q380.67188 71.9375 380.39062 72.078125Q380.10938 72.203125 379.98438 72.421875Q379.85938 72.625 379.85938 72.859375Q379.85938 73.046875 379.92188 73.1875Q379.98438 73.3125 380.14062 73.4375Q380.29688 73.546875 380.57812 73.65625Q380.875 73.75 381.32812 73.84375Q382.10938 74.015625 382.60938 74.265625Q383.10938 74.515625 383.35938 74.875Q383.60938 75.21875 383.60938 75.734375Q383.60938 76.15625 383.42188 76.5Q383.25 76.84375 382.92188 77.09375Q382.60938 77.34375 382.15625 77.484375Q381.70312 77.625 381.15625 77.625Q380.3125 77.625 379.73438 77.328125Q379.15625 77.015625 378.85938 76.546875Q378.5625 76.0625 378.5625 75.546875L379.64062 75.546875Q379.67188 75.984375 379.90625 76.25Q380.14062 76.515625 380.46875 76.625Q380.8125 76.71875 381.15625 76.71875Q381.59375 76.71875 381.89062 76.609375Q382.20312 76.484375 382.35938 76.28125Q382.51562 76.078125 382.51562 75.8125ZM387.45312 77.625Q386.79688 77.625 386.25 77.40625Q385.71875 77.171875 385.32812 76.765625Q384.95312 76.34375 384.75 75.78125Q384.54688 75.21875 384.54688 74.546875L384.54688 74.3125Q384.54688 73.53125 384.76562 72.921875Q385.0 72.3125 385.39062 71.890625Q385.78125 71.46875 386.28125 71.265625Q386.78125 71.046875 387.3125 71.046875Q388.0 71.046875 388.48438 71.28125Q388.98438 71.515625 389.29688 71.9375Q389.625 72.34375 389.76562 72.921875Q389.92188 73.484375 389.92188 74.140625L389.92188 74.640625L385.1875 74.640625L385.1875 73.75L388.84375 73.75L388.84375 73.671875Q388.8125 73.25 388.65625 72.859375Q388.51562 72.453125 388.1875 72.203125Q387.875 71.9375 387.3125 71.9375Q386.95312 71.9375 386.64062 72.09375Q386.32812 72.25 386.09375 72.5625Q385.875 72.859375 385.75 73.296875Q385.64062 73.734375 385.64062 74.3125L385.64062 74.546875Q385.64062 75.0 385.76562 75.40625Q385.89062 75.796875 386.125 76.09375Q386.375 76.390625 386.71875 76.5625Q387.07812 76.734375 387.51562 76.734375Q388.09375 76.734375 388.48438 76.5Q388.89062 76.265625 389.1875 75.875L389.84375 76.390625Q389.64062 76.703125 389.3125 76.984375Q389.0 77.265625 388.53125 77.453125Q388.07812 77.625 387.45312 77.625ZM391.90625 72.515625L391.90625 77.5L390.82812 77.5L390.82812 71.15625L391.85938 71.15625L391.90625 72.515625ZM391.65625 74.09375L391.20312 74.078125Q391.20312 73.421875 391.39062 72.875Q391.57812 72.3125 391.92188 71.90625Q392.26562 71.5 392.73438 71.28125Q393.20312 71.046875 393.78125 71.046875Q394.25 71.046875 394.625 71.171875Q395.0 71.296875 395.26562 71.578125Q395.53125 71.84375 395.67188 72.28125Q395.8125 72.71875 395.8125 73.34375L395.8125 77.5L394.71875 77.5L394.71875 73.328125Q394.71875 72.828125 394.57812 72.53125Q394.4375 72.234375 394.15625 72.09375Q393.875 71.953125 393.45312 71.953125Q393.04688 71.953125 392.71875 72.125Q392.39062 72.296875 392.15625 72.59375Q391.92188 72.890625 391.78125 73.28125Q391.65625 73.65625 391.65625 74.09375Z" fill-rule="nonzero"/><path stroke="#cccccc" stroke-width="1.0" stroke-linecap="butt" d="M372.0 305.0L547.0 204.0" fill-rule="nonzero"/><path fill="#000000" d="M554.84375 184.96875L555.9375 184.96875L558.7344 191.92188L561.53125 184.96875L562.625 184.96875L559.15625 193.5L558.3125 193.5L554.84375 184.96875ZM554.4844 184.96875L555.4531 184.96875L555.6094 190.17188L555.6094 193.5L554.4844 193.5L554.4844 184.96875ZM562.0156 184.96875L562.9844 184.96875L562.9844 193.5L561.8594 193.5L561.8594 190.17188L562.0156 184.96875ZM566.1094 192.84375L567.875 187.15625L569.03125 187.15625L566.4844 194.48438Q566.40625 194.71875 566.25 194.98438Q566.1094 195.26562 565.8906 195.5Q565.6719 195.75 565.3594 195.90625Q565.0469 196.0625 564.6094 196.0625Q564.4844 196.0625 564.28125 196.01562Q564.0781 195.98438 564.0 195.96875L564.0 195.09375Q564.0469 195.09375 564.1406 195.09375Q564.25 195.10938 564.28125 195.10938Q564.65625 195.10938 564.90625 195.01562Q565.1719 194.92188 565.34375 194.6875Q565.53125 194.46875 565.65625 194.07812L566.1094 192.84375ZM564.8125 187.15625L566.4531 192.07812L566.7344 193.21875L565.96875 193.625L563.625 187.15625L564.8125 187.15625ZM571.40625 188.15625L571.40625 193.5L570.3281 193.5L570.3281 187.15625L571.375 187.15625L571.40625 188.15625ZM573.3906 187.125L573.3906 188.125Q573.25 188.10938 573.125 188.09375Q573.0156 188.07812 572.8594 188.07812Q572.4844 188.07812 572.1875 188.20312Q571.90625 188.3125 571.7031 188.53125Q571.5156 188.73438 571.3906 189.03125Q571.28125 189.32812 571.25 189.67188L570.9375 189.84375Q570.9375 189.26562 571.0469 188.76562Q571.1719 188.26562 571.40625 187.875Q571.65625 187.48438 572.0156 187.26562Q572.3906 187.04688 572.90625 187.04688Q573.03125 187.04688 573.1719 187.07812Q573.3281 187.09375 573.3906 187.125ZM576.8594 192.71875Q577.25 192.71875 577.5781 192.5625Q577.90625 192.40625 578.1094 192.14062Q578.3281 191.85938 578.3594 191.5L579.3906 191.5Q579.3594 192.0625 579.0 192.54688Q578.65625 193.03125 578.09375 193.32812Q577.53125 193.625 576.8594 193.625Q576.15625 193.625 575.625 193.375Q575.09375 193.10938 574.7344 192.67188Q574.3906 192.23438 574.21875 191.67188Q574.0469 191.09375 574.0469 190.45312L574.0469 190.20312Q574.0469 189.5625 574.21875 189.0Q574.3906 188.42188 574.7344 187.98438Q575.09375 187.54688 575.625 187.29688Q576.15625 187.04688 576.8594 187.04688Q577.6094 187.04688 578.15625 187.34375Q578.71875 187.64062 579.03125 188.17188Q579.3594 188.6875 579.3906 189.34375L578.3594 189.34375Q578.3281 188.95312 578.1406 188.64062Q577.9531 188.3125 577.625 188.125Q577.2969 187.9375 576.8594 187.9375Q576.3594 187.9375 576.0156 188.14062Q575.6875 188.32812 575.4844 188.65625Q575.2969 188.98438 575.2031 189.39062Q575.125 189.79688 575.125 190.20312L575.125 190.45312Q575.125 190.875 575.2031 191.28125Q575.2969 191.67188 575.4844 192.0Q575.6875 192.32812 576.0156 192.53125Q576.3594 192.71875 576.8594 192.71875ZM582.9531 193.625Q582.2969 193.625 581.75 193.40625Q581.21875 193.17188 580.8281 192.76562Q580.4531 192.34375 580.25 191.78125Q580.0469 191.21875 580.0469 190.54688L580.0469 190.3125Q580.0469 189.53125 580.2656 188.92188Q580.5 188.3125 580.8906 187.89062Q581.28125 187.46875 581.78125 187.26562Q582.28125 187.04688 582.8125 187.04688Q583.5 187.04688 583.9844 187.28125Q584.4844 187.51562 584.7969 187.9375Q585.125 188.34375 585.2656 188.92188Q585.4219 189.48438 585.4219 190.14062L585.4219 190.64062L580.6875 190.64062L580.6875 189.75L584.34375 189.75L584.34375 189.67188Q584.3125 189.25 584.15625 188.85938Q584.0156 188.45312 583.6875 188.20312Q583.375 187.9375 582.8125 187.9375Q582.4531 187.9375 582.1406 188.09375Q581.8281 188.25 581.59375 188.5625Q581.375 188.85938 581.25 189.29688Q581.1406 189.73438 581.1406 190.3125L581.1406 190.54688Q581.1406 191.0 581.2656 191.40625Q581.3906 191.79688 581.625 192.09375Q581.875 192.39062 582.21875 192.5625Q582.5781 192.73438 583.0156 192.73438Q583.59375 192.73438 583.9844 192.5Q584.3906 192.26562 584.6875 191.875L585.34375 192.39062Q585.1406 192.70312 584.8125 192.98438Q584.5 193.26562 584.03125 193.45312Q583.5781 193.625 582.9531 193.625ZM587.40625 188.51562L587.40625 193.5L586.3281 193.5L586.3281 187.15625L587.3594 187.15625L587.40625 188.51562ZM587.15625 190.09375L586.7031 190.07812Q586.7031 189.42188 586.8906 188.875Q587.0781 188.3125 587.4219 187.90625Q587.7656 187.5 588.2344 187.28125Q588.7031 187.04688 589.28125 187.04688Q589.75 187.04688 590.125 187.17188Q590.5 187.29688 590.7656 187.57812Q591.03125 187.84375 591.1719 188.28125Q591.3125 188.71875 591.3125 189.34375L591.3125 193.5L590.21875 193.5L590.21875 189.32812Q590.21875 188.82812 590.0781 188.53125Q589.9375 188.23438 589.65625 188.09375Q589.375 187.95312 588.9531 187.95312Q588.5469 187.95312 588.21875 188.125Q587.8906 188.29688 587.65625 188.59375Q587.4219 188.89062 587.28125 189.28125Q587.15625 189.65625 587.15625 190.09375Z" fill-rule="nonzero"/><path stroke="#cccccc" stroke-width="1.0" stroke-linecap="butt" d="M372.0 305.0L547.0 406.0" fill-rule="nonzero"/><path fill="#000000" d="M543.6406 422.78125L544.7656 422.78125Q544.6719 423.59375 544.2969 424.23438Q543.9219 424.875 543.2344 425.25Q542.5625 425.625 541.53125 425.625Q540.78125 425.625 540.1719 425.34375Q539.5625 425.04688 539.1094 424.53125Q538.6719 424.01562 538.4375 423.29688Q538.2031 422.5625 538.2031 421.65625L538.2031 420.8125Q538.2031 419.92188 538.4375 419.1875Q538.6719 418.45312 539.125 417.9375Q539.5781 417.40625 540.2031 417.125Q540.84375 416.84375 541.625 416.84375Q542.59375 416.84375 543.2656 417.21875Q543.9375 417.57812 544.2969 418.21875Q544.6719 418.85938 544.7656 419.70312L543.6406 419.70312Q543.5625 419.10938 543.3281 418.6875Q543.1094 418.25 542.7031 418.01562Q542.2969 417.78125 541.625 417.78125Q541.0625 417.78125 540.625 418.0Q540.2031 418.20312 539.90625 418.60938Q539.625 419.0 539.46875 419.5625Q539.3281 420.125 539.3281 420.79688L539.3281 421.65625Q539.3281 422.28125 539.4531 422.84375Q539.59375 423.39062 539.8594 423.8125Q540.125 424.21875 540.5469 424.46875Q540.96875 424.70312 541.53125 424.70312Q542.25 424.70312 542.6719 424.46875Q543.1094 424.23438 543.3281 423.8125Q543.5469 423.39062 543.6406 422.78125ZM550.0625 424.42188L550.0625 421.15625Q550.0625 420.78125 549.90625 420.5Q549.7656 420.21875 549.46875 420.07812Q549.1719 419.92188 548.7344 419.92188Q548.3125 419.92188 548.0 420.0625Q547.7031 420.20312 547.53125 420.4375Q547.3594 420.65625 547.3594 420.92188L546.28125 420.92188Q546.28125 420.57812 546.4531 420.25Q546.625 419.90625 546.9531 419.64062Q547.28125 419.35938 547.75 419.20312Q548.21875 419.04688 548.7969 419.04688Q549.4844 419.04688 550.0156 419.28125Q550.5469 419.51562 550.84375 419.98438Q551.15625 420.45312 551.15625 421.15625L551.15625 424.10938Q551.15625 424.4375 551.2031 424.79688Q551.2656 425.14062 551.375 425.40625L551.375 425.5L550.2344 425.5Q550.15625 425.3125 550.1094 425.0Q550.0625 424.6875 550.0625 424.42188ZM550.25 421.65625L550.2656 422.42188L549.1719 422.42188Q548.7031 422.42188 548.34375 422.5Q547.9844 422.5625 547.7344 422.71875Q547.4844 422.85938 547.3594 423.07812Q547.2344 423.29688 547.2344 423.59375Q547.2344 423.89062 547.3594 424.14062Q547.5 424.375 547.7656 424.53125Q548.0469 424.67188 548.4375 424.67188Q548.9375 424.67188 549.3125 424.46875Q549.7031 424.25 549.9219 423.95312Q550.15625 423.64062 550.1719 423.34375L550.6406 423.875Q550.59375 424.10938 550.40625 424.42188Q550.2344 424.71875 549.9219 425.0Q549.625 425.26562 549.2031 425.45312Q548.7969 425.625 548.28125 425.625Q547.6406 425.625 547.15625 425.375Q546.6719 425.10938 546.40625 424.6875Q546.1406 424.26562 546.1406 423.73438Q546.1406 423.21875 546.3281 422.84375Q546.53125 422.45312 546.90625 422.1875Q547.28125 421.92188 547.8125 421.79688Q548.34375 421.65625 549.0 421.65625L550.25 421.65625ZM554.40625 420.15625L554.40625 425.5L553.3281 425.5L553.3281 419.15625L554.375 419.15625L554.40625 420.15625ZM556.3906 419.125L556.3906 420.125Q556.25 420.10938 556.125 420.09375Q556.0156 420.07812 555.8594 420.07812Q555.4844 420.07812 555.1875 420.20312Q554.90625 420.3125 554.7031 420.53125Q554.5156 420.73438 554.3906 421.03125Q554.28125 421.32812 554.25 421.67188L553.9375 421.84375Q553.9375 421.26562 554.0469 420.76562Q554.1719 420.26562 554.40625 419.875Q554.65625 419.48438 555.0156 419.26562Q555.3906 419.04688 555.90625 419.04688Q556.03125 419.04688 556.1719 419.07812Q556.3281 419.09375 556.3906 419.125ZM559.1094 424.84375L560.875 419.15625L562.03125 419.15625L559.4844 426.48438Q559.40625 426.71875 559.25 426.98438Q559.1094 427.26562 558.8906 427.5Q558.6719 427.75 558.3594 427.90625Q558.0469 428.0625 557.6094 428.0625Q557.4844 428.0625 557.28125 428.01562Q557.0781 427.98438 557.0 427.96875L557.0 427.09375Q557.0469 427.09375 557.1406 427.09375Q557.25 427.10938 557.28125 427.10938Q557.65625 427.10938 557.90625 427.01562Q558.1719 426.92188 558.34375 426.6875Q558.53125 426.46875 558.65625 426.07812L559.1094 424.84375ZM557.8125 419.15625L559.4531 424.07812L559.7344 425.21875L558.96875 425.625L556.625 419.15625L557.8125 419.15625ZM563.0469 422.40625L563.0469 422.26562Q563.0469 421.57812 563.2344 421.0Q563.4375 420.40625 563.8125 419.96875Q564.1875 419.53125 564.71875 419.29688Q565.25 419.04688 565.9219 419.04688Q566.5781 419.04688 567.1094 419.29688Q567.65625 419.53125 568.03125 419.96875Q568.40625 420.40625 568.6094 421.0Q568.8125 421.57812 568.8125 422.26562L568.8125 422.40625Q568.8125 423.07812 568.6094 423.67188Q568.40625 424.25 568.03125 424.6875Q567.65625 425.125 567.125 425.375Q566.59375 425.625 565.9219 425.625Q565.2656 425.625 564.71875 425.375Q564.1875 425.125 563.8125 424.6875Q563.4375 424.25 563.2344 423.67188Q563.0469 423.07812 563.0469 422.40625ZM564.125 422.26562L564.125 422.40625Q564.125 422.875 564.2344 423.29688Q564.34375 423.71875 564.5625 424.04688Q564.7969 424.35938 565.1406 424.54688Q565.4844 424.71875 565.9219 424.71875Q566.375 424.71875 566.7031 424.54688Q567.0469 424.35938 567.2656 424.04688Q567.5 423.71875 567.6094 423.29688Q567.71875 422.875 567.71875 422.40625L567.71875 422.26562Q567.71875 421.79688 567.6094 421.375Q567.5 420.95312 567.2656 420.64062Q567.0469 420.3125 566.7031 420.125Q566.375 419.9375 565.9219 419.9375Q565.46875 419.9375 565.125 420.125Q564.7969 420.3125 564.5625 420.64062Q564.34375 420.95312 564.2344 421.375Q564.125 421.79688 564.125 422.26562ZM571.40625 420.375L571.40625 427.9375L570.3281 427.9375L570.3281 419.15625L571.3125 419.15625L571.40625 420.375ZM575.6875 422.28125L575.6875 422.40625Q575.6875 423.09375 575.5156 423.6875Q575.3594 424.26562 575.0469 424.70312Q574.7344 425.14062 574.2656 425.39062Q573.8125 425.625 573.21875 425.625Q572.625 425.625 572.15625 425.42188Q571.6875 425.21875 571.3594 424.84375Q571.0469 424.45312 570.8594 423.92188Q570.6719 423.39062 570.59375 422.71875L570.59375 422.0625Q570.6719 421.35938 570.8594 420.8125Q571.0469 420.25 571.3594 419.85938Q571.6875 419.45312 572.1406 419.25Q572.6094 419.04688 573.2031 419.04688Q573.7969 419.04688 574.2656 419.28125Q574.7344 419.5 575.0469 419.9375Q575.3594 420.35938 575.5156 420.95312Q575.6875 421.54688 575.6875 422.28125ZM574.59375 422.40625L574.59375 422.28125Q574.59375 421.79688 574.4844 421.39062Q574.3906 420.96875 574.1875 420.65625Q573.9844 420.32812 573.65625 420.14062Q573.3281 419.95312 572.8906 419.95312Q572.4844 419.95312 572.1719 420.09375Q571.875 420.23438 571.65625 420.48438Q571.4531 420.71875 571.3125 421.01562Q571.1875 421.3125 571.125 421.64062L571.125 423.15625Q571.2344 423.5625 571.4375 423.92188Q571.65625 424.28125 572.0 424.5Q572.3594 424.71875 572.90625 424.71875Q573.34375 424.71875 573.65625 424.54688Q573.9844 424.35938 574.1875 424.04688Q574.3906 423.71875 574.4844 423.29688Q574.59375 422.875 574.59375 422.40625ZM578.40625 416.5L578.40625 425.5L577.3281 425.5L577.3281 416.5L578.40625 416.5ZM578.15625 422.09375L577.7031 422.07812Q577.7031 421.42188 577.8906 420.875Q578.0781 420.3125 578.4219 419.90625Q578.7656 419.5 579.2344 419.28125Q579.7031 419.04688 580.28125 419.04688Q580.75 419.04688 581.125 419.17188Q581.5 419.29688 581.7656 419.57812Q582.03125 419.84375 582.1719 420.28125Q582.3125 420.71875 582.3125 421.34375L582.3125 425.5L581.21875 425.5L581.21875 421.32812Q581.21875 420.82812 581.0781 420.53125Q580.9375 420.23438 580.65625 420.09375Q580.375 419.95312 579.9531 419.95312Q579.5469 419.95312 579.21875 420.125Q578.8906 420.29688 578.65625 420.59375Q578.4219 420.89062 578.28125 421.28125Q578.15625 421.65625 578.15625 422.09375ZM586.1094 424.84375L587.875 419.15625L589.03125 419.15625L586.4844 426.48438Q586.40625 426.71875 586.25 426.98438Q586.1094 427.26562 585.8906 427.5Q585.6719 427.75 585.3594 427.90625Q585.0469 428.0625 584.6094 428.0625Q584.4844 428.0625 584.28125 428.01562Q584.0781 427.98438 584.0 427.96875L584.0 427.09375Q584.0469 427.09375 584.1406 427.09375Q584.25 427.10938 584.28125 427.10938Q584.65625 427.10938 584.90625 427.01562Q585.1719 426.92188 585.34375 426.6875Q585.53125 426.46875 585.65625 426.07812L586.1094 424.84375ZM584.8125 419.15625L586.4531 424.07812L586.7344 425.21875L585.96875 425.625L583.625 419.15625L584.8125 419.15625ZM591.5 416.5L591.5 425.5L590.4219 425.5L590.4219 416.5L591.5 416.5ZM594.5 416.5L594.5 425.5L593.4219 425.5L593.4219 416.5L594.5 416.5ZM598.9531 425.625Q598.2969 425.625 597.75 425.40625Q597.21875 425.17188 596.8281 424.76562Q596.4531 424.34375 596.25 423.78125Q596.0469 423.21875 596.0469 422.54688L596.0469 422.3125Q596.0469 421.53125 596.2656 420.92188Q596.5 420.3125 596.8906 419.89062Q597.28125 419.46875 597.78125 419.26562Q598.28125 419.04688 598.8125 419.04688Q599.5 419.04688 599.9844 419.28125Q600.4844 419.51562 600.7969 419.9375Q601.125 420.34375 601.2656 420.92188Q601.4219 421.48438 601.4219 422.14062L601.4219 422.64062L596.6875 422.64062L596.6875 421.75L600.34375 421.75L600.34375 421.67188Q600.3125 421.25 600.15625 420.85938Q600.0156 420.45312 599.6875 420.20312Q599.375 419.9375 598.8125 419.9375Q598.4531 419.9375 598.1406 420.09375Q597.8281 420.25 597.59375 420.5625Q597.375 420.85938 597.25 421.29688Q597.1406 421.73438 597.1406 422.3125L597.1406 422.54688Q597.1406 423.0 597.2656 423.40625Q597.3906 423.79688 597.625 424.09375Q597.875 424.39062 598.21875 424.5625Q598.5781 424.73438 599.0156 424.73438Q599.59375 424.73438 599.9844 424.5Q600.3906 424.26562 600.6875 423.875L601.34375 424.39062Q601.1406 424.70312 600.8125 424.98438Q600.5 425.26562 600.03125 425.45312Q599.5781 425.625 598.9531 425.625ZM603.40625 420.51562L603.40625 425.5L602.3281 425.5L602.3281 419.15625L603.3594 419.15625L603.40625 420.51562ZM603.15625 422.09375L602.7031 422.07812Q602.7031 421.42188 602.8906 420.875Q603.0781 420.3125 603.4219 419.90625Q603.7656 419.5 604.2344 419.28125Q604.7031 419.04688 605.28125 419.04688Q605.75 419.04688 606.125 419.17188Q606.5 419.29688 606.7656 419.57812Q607.03125 419.84375 607.1719 420.28125Q607.3125 420.71875 607.3125 421.34375L607.3125 425.5L606.21875 425.5L606.21875 421.32812Q606.21875 420.82812 606.0781 420.53125Q605.9375 420.23438 605.65625 420.09375Q605.375 419.95312 604.9531 419.95312Q604.5469 419.95312 604.21875 420.125Q603.8906 420.29688 603.65625 420.59375Q603.4219 420.89062 603.28125 421.28125Q603.15625 421.65625 603.15625 422.09375Z" fill-rule="nonzero"/><path stroke="#cccccc" stroke-width="1.0" stroke-linecap="butt" d="M372.0 305.0L372.0 507.0" fill-rule="nonzero"/><path fill="#000000" d="M354.67188 540.5781L354.67188 541.5L350.40625 541.5L350.40625 540.5781L354.67188 540.5781ZM350.625 532.96875L350.625 541.5L349.48438 541.5L349.48438 532.96875L350.625 532.96875ZM356.5 535.15625L356.5 541.5L355.42188 541.5L355.42188 535.15625L356.5 535.15625ZM355.32812 533.4844Q355.32812 533.21875 355.48438 533.03125Q355.65625 532.84375 355.96875 532.84375Q356.28125 532.84375 356.4375 533.03125Q356.60938 533.21875 356.60938 533.4844Q356.60938 533.7344 356.4375 533.9219Q356.28125 534.09375 355.96875 534.09375Q355.65625 534.09375 355.48438 533.9219Q355.32812 533.7344 355.32812 533.4844ZM359.40625 536.4219L359.40625 541.5L358.3125 541.5L358.3125 535.15625L359.34375 535.15625L359.40625 536.4219ZM359.1875 538.09375L358.67188 538.0781Q358.6875 537.4219 358.84375 536.875Q359.01562 536.3125 359.32812 535.90625Q359.65625 535.5 360.14062 535.28125Q360.625 535.0469 361.25 535.0469Q361.70312 535.0469 362.07812 535.1719Q362.45312 535.2969 362.71875 535.5625Q363.0 535.8281 363.14062 536.25Q363.29688 536.6719 363.29688 537.28125L363.29688 541.5L362.21875 541.5L362.21875 537.3281Q362.21875 536.8281 362.04688 536.53125Q361.89062 536.2344 361.57812 536.09375Q361.28125 535.9531 360.85938 535.9531Q360.39062 535.9531 360.0625 536.125Q359.73438 536.2969 359.54688 536.59375Q359.35938 536.8906 359.26562 537.28125Q359.1875 537.65625 359.1875 538.09375ZM363.29688 537.4844L362.5625 537.71875Q362.5625 537.1875 362.73438 536.71875Q362.90625 536.2344 363.21875 535.8594Q363.54688 535.4844 364.01562 535.2656Q364.48438 535.0469 365.07812 535.0469Q365.59375 535.0469 365.98438 535.1875Q366.39062 535.3125 366.65625 535.59375Q366.92188 535.875 367.0625 536.3125Q367.20312 536.7344 367.20312 537.3281L367.20312 541.5L366.125 541.5L366.125 537.3281Q366.125 536.78125 365.95312 536.5Q365.78125 536.2031 365.48438 536.0781Q365.1875 535.9531 364.76562 535.9531Q364.40625 535.9531 364.125 536.0781Q363.85938 536.2031 363.67188 536.4219Q363.48438 536.625 363.39062 536.90625Q363.29688 537.1875 363.29688 537.4844ZM369.04688 538.40625L369.04688 538.2656Q369.04688 537.5781 369.23438 537.0Q369.4375 536.40625 369.8125 535.96875Q370.1875 535.53125 370.71875 535.2969Q371.25 535.0469 371.92188 535.0469Q372.57812 535.0469 373.10938 535.2969Q373.65625 535.53125 374.03125 535.96875Q374.40625 536.40625 374.60938 537.0Q374.8125 537.5781 374.8125 538.2656L374.8125 538.40625Q374.8125 539.0781 374.60938 539.6719Q374.40625 540.25 374.03125 540.6875Q373.65625 541.125 373.125 541.375Q372.59375 541.625 371.92188 541.625Q371.26562 541.625 370.71875 541.375Q370.1875 541.125 369.8125 540.6875Q369.4375 540.25 369.23438 539.6719Q369.04688 539.0781 369.04688 538.40625ZM370.125 538.2656L370.125 538.40625Q370.125 538.875 370.23438 539.2969Q370.34375 539.71875 370.5625 540.0469Q370.79688 540.3594 371.14062 540.5469Q371.48438 540.71875 371.92188 540.71875Q372.375 540.71875 372.70312 540.5469Q373.04688 540.3594 373.26562 540.0469Q373.5 539.71875 373.60938 539.2969Q373.71875 538.875 373.71875 538.40625L373.71875 538.2656Q373.71875 537.7969 373.60938 537.375Q373.5 536.9531 373.26562 536.6406Q373.04688 536.3125 372.70312 536.125Q372.375 535.9375 371.92188 535.9375Q371.46875 535.9375 371.125 536.125Q370.79688 536.3125 370.5625 536.6406Q370.34375 536.9531 370.23438 537.375Q370.125 537.7969 370.125 538.2656ZM377.40625 536.5156L377.40625 541.5L376.32812 541.5L376.32812 535.15625L377.35938 535.15625L377.40625 536.5156ZM377.15625 538.09375L376.70312 538.0781Q376.70312 537.4219 376.89062 536.875Q377.07812 536.3125 377.42188 535.90625Q377.76562 535.5 378.23438 535.28125Q378.70312 535.0469 379.28125 535.0469Q379.75 535.0469 380.125 535.1719Q380.5 535.2969 380.76562 535.5781Q381.03125 535.84375 381.17188 536.28125Q381.3125 536.71875 381.3125 537.34375L381.3125 541.5L380.21875 541.5L380.21875 537.3281Q380.21875 536.8281 380.07812 536.53125Q379.9375 536.2344 379.65625 536.09375Q379.375 535.9531 378.95312 535.9531Q378.54688 535.9531 378.21875 536.125Q377.89062 536.2969 377.65625 536.59375Q377.42188 536.8906 377.28125 537.28125Q377.15625 537.65625 377.15625 538.09375ZM385.95312 541.625Q385.29688 541.625 384.75 541.40625Q384.21875 541.1719 383.82812 540.7656Q383.45312 540.34375 383.25 539.78125Q383.04688 539.21875 383.04688 538.5469L383.04688 538.3125Q383.04688 537.53125 383.26562 536.9219Q383.5 536.3125 383.89062 535.8906Q384.28125 535.46875 384.78125 535.2656Q385.28125 535.0469 385.8125 535.0469Q386.5 535.0469 386.98438 535.28125Q387.48438 535.5156 387.79688 535.9375Q388.125 536.34375 388.26562 536.9219Q388.42188 537.4844 388.42188 538.1406L388.42188 538.6406L383.6875 538.6406L383.6875 537.75L387.34375 537.75L387.34375 537.6719Q387.3125 537.25 387.15625 536.8594Q387.01562 536.4531 386.6875 536.2031Q386.375 535.9375 385.8125 535.9375Q385.45312 535.9375 385.14062 536.09375Q384.82812 536.25 384.59375 536.5625Q384.375 536.8594 384.25 537.2969Q384.14062 537.7344 384.14062 538.3125L384.14062 538.5469Q384.14062 539.0 384.26562 539.40625Q384.39062 539.7969 384.625 540.09375Q384.875 540.3906 385.21875 540.5625Q385.57812 540.7344 386.01562 540.7344Q386.59375 540.7344 386.98438 540.5Q387.39062 540.2656 387.6875 539.875L388.34375 540.3906Q388.14062 540.7031 387.8125 540.9844Q387.5 541.2656 387.03125 541.4531Q386.57812 541.625 385.95312 541.625ZM390.40625 536.5156L390.40625 541.5L389.32812 541.5L389.32812 535.15625L390.35938 535.15625L390.40625 536.5156ZM390.15625 538.09375L389.70312 538.0781Q389.70312 537.4219 389.89062 536.875Q390.07812 536.3125 390.42188 535.90625Q390.76562 535.5 391.23438 535.28125Q391.70312 535.0469 392.28125 535.0469Q392.75 535.0469 393.125 535.1719Q393.5 535.2969 393.76562 535.5781Q394.03125 535.84375 394.17188 536.28125Q394.3125 536.71875 394.3125 537.34375L394.3125 541.5L393.21875 541.5L393.21875 537.3281Q393.21875 536.8281 393.07812 536.53125Q392.9375 536.2344 392.65625 536.09375Q392.375 535.9531 391.95312 535.9531Q391.54688 535.9531 391.21875 536.125Q390.89062 536.2969 390.65625 536.59375Q390.42188 536.8906 390.28125 537.28125Q390.15625 537.65625 390.15625 538.09375Z" fill-rule="nonzero"/><path stroke="#cccccc" stroke-width="1.0" stroke-linecap="butt" d="M372.0 305.0L197.0 406.0" fill-rule="nonzero"/><path fill="#000000" d="M141.59375 422.5625L141.59375 422.4375Q141.59375 421.6875 141.75 421.07812Q141.92188 420.45312 142.23438 420.0Q142.54688 419.54688 143.0 419.29688Q143.46875 419.04688 144.0625 419.04688Q144.51562 419.04688 144.875 419.1875Q145.25 419.3125 145.53125 419.57812Q145.8125 419.82812 146.01562 420.20312Q146.21875 420.57812 146.34375 421.0625Q146.46875 421.53125 146.51562 422.09375L146.51562 422.57812Q146.45312 423.28125 146.26562 423.84375Q146.09375 424.40625 145.79688 424.8125Q145.5 425.20312 145.0625 425.42188Q144.64062 425.625 144.04688 425.625Q143.46875 425.625 143.0 425.40625Q142.54688 425.17188 142.23438 424.76562Q141.92188 424.34375 141.75 423.79688Q141.59375 423.23438 141.59375 422.5625ZM142.67188 422.4375L142.67188 422.5625Q142.67188 423.01562 142.76562 423.40625Q142.85938 423.79688 143.04688 424.09375Q143.25 424.39062 143.5625 424.5625Q143.89062 424.73438 144.32812 424.73438Q144.75 424.73438 145.04688 424.5625Q145.35938 424.375 145.5625 424.07812Q145.78125 423.78125 145.90625 423.39062Q146.04688 423.0 146.14062 422.59375L146.14062 422.20312Q146.07812 421.76562 145.9375 421.375Q145.8125 420.96875 145.59375 420.64062Q145.39062 420.3125 145.07812 420.125Q144.76562 419.9375 144.32812 419.9375Q143.89062 419.9375 143.57812 420.14062Q143.26562 420.32812 143.0625 420.67188Q142.85938 421.01562 142.76562 421.48438Q142.67188 421.9375 142.67188 422.4375ZM145.98438 419.15625L146.90625 419.15625L146.90625 423.76562Q146.90625 424.04688 146.9375 424.21875Q146.96875 424.375 147.03125 424.48438Q147.10938 424.57812 147.1875 424.625Q147.28125 424.65625 147.375 424.65625Q147.42188 424.65625 147.46875 424.64062Q147.53125 424.625 147.5625 424.60938L147.70312 425.42188Q147.51562 425.54688 147.34375 425.57812Q147.17188 425.625 146.98438 425.625Q146.70312 425.625 146.48438 425.51562Q146.28125 425.42188 146.125 425.20312Q145.96875 424.98438 145.89062 424.625Q145.8125 424.26562 145.8125 423.76562L145.8125 420.53125L145.98438 419.15625ZM151.07812 421.42188L151.07812 422.3125L148.21875 422.3125L148.21875 421.42188L151.07812 421.42188ZM157.5625 420.64062L157.5625 421.5625L152.95312 421.5625L152.95312 420.64062L157.5625 420.64062ZM153.125 416.96875L153.125 425.5L151.98438 425.5L151.98438 416.96875L153.125 416.96875ZM158.54688 416.96875L158.54688 425.5L157.42188 425.5L157.42188 416.96875L158.54688 416.96875ZM164.70312 424.03125L164.70312 419.15625L165.79688 419.15625L165.79688 425.5L164.76562 425.5L164.70312 424.03125ZM164.90625 422.70312L165.35938 422.6875Q165.35938 423.3125 165.21875 423.85938Q165.09375 424.39062 164.79688 424.78125Q164.51562 425.17188 164.03125 425.40625Q163.5625 425.625 162.89062 425.625Q162.42188 425.625 162.03125 425.48438Q161.65625 425.34375 161.375 425.0625Q161.10938 424.78125 160.95312 424.32812Q160.79688 423.875 160.79688 423.25L160.79688 419.15625L161.89062 419.15625L161.89062 423.26562Q161.89062 423.6875 161.98438 423.96875Q162.07812 424.25 162.25 424.40625Q162.42188 424.5625 162.625 424.64062Q162.82812 424.70312 163.04688 424.70312Q163.75 424.70312 164.14062 424.4375Q164.54688 424.15625 164.71875 423.70312Q164.90625 423.25 164.90625 422.70312ZM168.90625 420.42188L168.90625 425.5L167.8125 425.5L167.8125 419.15625L168.84375 419.15625L168.90625 420.42188ZM168.6875 422.09375L168.17188 422.07812Q168.1875 421.42188 168.34375 420.875Q168.51562 420.3125 168.82812 419.90625Q169.15625 419.5 169.64062 419.28125Q170.125 419.04688 170.75 419.04688Q171.20312 419.04688 171.57812 419.17188Q171.95312 419.29688 172.21875 419.5625Q172.5 419.82812 172.64062 420.25Q172.79688 420.67188 172.79688 421.28125L172.79688 425.5L171.71875 425.5L171.71875 421.32812Q171.71875 420.82812 171.54688 420.53125Q171.39062 420.23438 171.07812 420.09375Q170.78125 419.95312 170.35938 419.95312Q169.89062 419.95312 169.5625 420.125Q169.23438 420.29688 169.04688 420.59375Q168.85938 420.89062 168.76562 421.28125Q168.6875 421.65625 168.6875 422.09375ZM172.79688 421.48438L172.0625 421.71875Q172.0625 421.1875 172.23438 420.71875Q172.40625 420.23438 172.71875 419.85938Q173.04688 419.48438 173.51562 419.26562Q173.98438 419.04688 174.57812 419.04688Q175.09375 419.04688 175.48438 419.1875Q175.89062 419.3125 176.15625 419.59375Q176.42188 419.875 176.5625 420.3125Q176.70312 420.73438 176.70312 421.32812L176.70312 425.5L175.625 425.5L175.625 421.32812Q175.625 420.78125 175.45312 420.5Q175.28125 420.20312 174.98438 420.07812Q174.6875 419.95312 174.26562 419.95312Q173.90625 419.95312 173.625 420.07812Q173.35938 420.20312 173.17188 420.42188Q172.98438 420.625 172.89062 420.90625Q172.79688 421.1875 172.79688 421.48438ZM182.70312 424.03125L182.70312 419.15625L183.79688 419.15625L183.79688 425.5L182.76562 425.5L182.70312 424.03125ZM182.90625 422.70312L183.35938 422.6875Q183.35938 423.3125 183.21875 423.85938Q183.09375 424.39062 182.79688 424.78125Q182.51562 425.17188 182.03125 425.40625Q181.5625 425.625 180.89062 425.625Q180.42188 425.625 180.03125 425.48438Q179.65625 425.34375 179.375 425.0625Q179.10938 424.78125 178.95312 424.32812Q178.79688 423.875 178.79688 423.25L178.79688 419.15625L179.89062 419.15625L179.89062 423.26562Q179.89062 423.6875 179.98438 423.96875Q180.07812 424.25 180.25 424.40625Q180.42188 424.5625 180.625 424.64062Q180.82812 424.70312 181.04688 424.70312Q181.75 424.70312 182.14062 424.4375Q182.54688 424.15625 182.71875 423.70312Q182.90625 423.25 182.90625 422.70312ZM187.0 416.5L187.0 425.5L185.92188 425.5L185.92188 416.5L187.0 416.5ZM191.45312 425.625Q190.79688 425.625 190.25 425.40625Q189.71875 425.17188 189.32812 424.76562Q188.95312 424.34375 188.75 423.78125Q188.54688 423.21875 188.54688 422.54688L188.54688 422.3125Q188.54688 421.53125 188.76562 420.92188Q189.0 420.3125 189.39062 419.89062Q189.78125 419.46875 190.28125 419.26562Q190.78125 419.04688 191.3125 419.04688Q192.0 419.04688 192.48438 419.28125Q192.98438 419.51562 193.29688 419.9375Q193.625 420.34375 193.76562 420.92188Q193.92188 421.48438 193.92188 422.14062L193.92188 422.64062L189.1875 422.64062L189.1875 421.75L192.84375 421.75L192.84375 421.67188Q192.8125 421.25 192.65625 420.85938Q192.51562 420.45312 192.1875 420.20312Q191.875 419.9375 191.3125 419.9375Q190.95312 419.9375 190.64062 420.09375Q190.32812 420.25 190.09375 420.5625Q189.875 420.85938 189.75 421.29688Q189.64062 421.73438 189.64062 422.3125L189.64062 422.54688Q189.64062 423.0 189.76562 423.40625Q189.89062 423.79688 190.125 424.09375Q190.375 424.39062 190.71875 424.5625Q191.07812 424.73438 191.51562 424.73438Q192.09375 424.73438 192.48438 424.5Q192.89062 424.26562 193.1875 423.875L193.84375 424.39062Q193.64062 424.70312 193.3125 424.98438Q193.0 425.26562 192.53125 425.45312Q192.07812 425.625 191.45312 425.625ZM195.90625 420.51562L195.90625 425.5L194.82812 425.5L194.82812 419.15625L195.85938 419.15625L195.90625 420.51562ZM195.65625 422.09375L195.20312 422.07812Q195.20312 421.42188 195.39062 420.875Q195.57812 420.3125 195.92188 419.90625Q196.26562 419.5 196.73438 419.28125Q197.20312 419.04688 197.78125 419.04688Q198.25 419.04688 198.625 419.17188Q199.0 419.29688 199.26562 419.57812Q199.53125 419.84375 199.67188 420.28125Q199.8125 420.71875 199.8125 421.34375L199.8125 425.5L198.71875 425.5L198.71875 421.32812Q198.71875 420.82812 198.57812 420.53125Q198.4375 420.23438 198.15625 420.09375Q197.875 419.95312 197.45312 419.95312Q197.04688 419.95312 196.71875 420.125Q196.39062 420.29688 196.15625 420.59375Q195.92188 420.89062 195.78125 421.28125Q195.65625 421.65625 195.65625 422.09375Z" fill-rule="nonzero"/><path stroke="#cccccc" stroke-width="1.0" stroke-linecap="butt" d="M372.0 305.0L197.0 204.0" fill-rule="nonzero"/><path fill="#000000" d="M153.03125 191.34375Q153.03125 191.04688 152.9375 190.8125Q152.85938 190.57812 152.625 190.39062Q152.40625 190.20312 152.0 190.03125Q151.60938 189.85938 151.01562 189.6875Q150.375 189.5 149.85938 189.28125Q149.35938 189.04688 148.98438 188.75Q148.625 188.4375 148.4375 188.0625Q148.25 187.67188 148.25 187.17188Q148.25 186.67188 148.45312 186.25Q148.65625 185.82812 149.03125 185.51562Q149.42188 185.20312 149.95312 185.03125Q150.48438 184.84375 151.14062 184.84375Q152.10938 184.84375 152.78125 185.21875Q153.45312 185.57812 153.79688 186.17188Q154.15625 186.76562 154.15625 187.42188L153.03125 187.42188Q153.03125 186.95312 152.8125 186.57812Q152.60938 186.20312 152.1875 186.0Q151.78125 185.78125 151.14062 185.78125Q150.54688 185.78125 150.14062 185.96875Q149.75 186.14062 149.5625 186.45312Q149.375 186.76562 149.375 187.15625Q149.375 187.42188 149.48438 187.65625Q149.60938 187.875 149.84375 188.0625Q150.09375 188.25 150.46875 188.40625Q150.84375 188.5625 151.375 188.70312Q152.09375 188.90625 152.625 189.17188Q153.15625 189.42188 153.5 189.73438Q153.84375 190.04688 154.0 190.4375Q154.17188 190.82812 154.17188 191.32812Q154.17188 191.85938 153.95312 192.28125Q153.75 192.70312 153.35938 193.0Q152.96875 193.29688 152.42188 193.46875Q151.875 193.625 151.20312 193.625Q150.60938 193.625 150.03125 193.45312Q149.46875 193.28125 149.0 192.95312Q148.53125 192.625 148.25 192.15625Q147.96875 191.67188 147.96875 191.03125L149.09375 191.03125Q149.09375 191.46875 149.26562 191.78125Q149.4375 192.09375 149.73438 192.29688Q150.03125 192.5 150.40625 192.60938Q150.78125 192.70312 151.20312 192.70312Q151.79688 192.70312 152.20312 192.54688Q152.60938 192.375 152.8125 192.07812Q153.03125 191.76562 153.03125 191.34375ZM155.04688 190.40625L155.04688 190.26562Q155.04688 189.57812 155.23438 189.0Q155.4375 188.40625 155.8125 187.96875Q156.1875 187.53125 156.71875 187.29688Q157.25 187.04688 157.92188 187.04688Q158.57812 187.04688 159.10938 187.29688Q159.65625 187.53125 160.03125 187.96875Q160.40625 188.40625 160.60938 189.0Q160.8125 189.57812 160.8125 190.26562L160.8125 190.40625Q160.8125 191.07812 160.60938 191.67188Q160.40625 192.25 160.03125 192.6875Q159.65625 193.125 159.125 193.375Q158.59375 193.625 157.92188 193.625Q157.26562 193.625 156.71875 193.375Q156.1875 193.125 155.8125 192.6875Q155.4375 192.25 155.23438 191.67188Q155.04688 191.07812 155.04688 190.40625ZM156.125 190.26562L156.125 190.40625Q156.125 190.875 156.23438 191.29688Q156.34375 191.71875 156.5625 192.04688Q156.79688 192.35938 157.14062 192.54688Q157.48438 192.71875 157.92188 192.71875Q158.375 192.71875 158.70312 192.54688Q159.04688 192.35938 159.26562 192.04688Q159.5 191.71875 159.60938 191.29688Q159.71875 190.875 159.71875 190.40625L159.71875 190.26562Q159.71875 189.79688 159.60938 189.375Q159.5 188.95312 159.26562 188.64062Q159.04688 188.3125 158.70312 188.125Q158.375 187.9375 157.92188 187.9375Q157.46875 187.9375 157.125 188.125Q156.79688 188.3125 156.5625 188.64062Q156.34375 188.95312 156.23438 189.375Q156.125 189.79688 156.125 190.26562ZM163.40625 188.51562L163.40625 193.5L162.32812 193.5L162.32812 187.15625L163.35938 187.15625L163.40625 188.51562ZM163.15625 190.09375L162.70312 190.07812Q162.70312 189.42188 162.89062 188.875Q163.07812 188.3125 163.42188 187.90625Q163.76562 187.5 164.23438 187.28125Q164.70312 187.04688 165.28125 187.04688Q165.75 187.04688 166.125 187.17188Q166.5 187.29688 166.76562 187.57812Q167.03125 187.84375 167.17188 188.28125Q167.3125 188.71875 167.3125 189.34375L167.3125 193.5L166.21875 193.5L166.21875 189.32812Q166.21875 188.82812 166.07812 188.53125Q165.9375 188.23438 165.65625 188.09375Q165.375 187.95312 164.95312 187.95312Q164.54688 187.95312 164.21875 188.125Q163.89062 188.29688 163.65625 188.59375Q163.42188 188.89062 163.28125 189.28125Q163.15625 189.65625 163.15625 190.09375ZM173.01562 191.8125Q173.01562 191.57812 172.90625 191.375Q172.8125 191.17188 172.5 191.01562Q172.1875 190.84375 171.5625 190.71875Q171.03125 190.60938 170.60938 190.46875Q170.1875 190.3125 169.89062 190.09375Q169.59375 189.875 169.4375 189.57812Q169.28125 189.28125 169.28125 188.89062Q169.28125 188.51562 169.4375 188.1875Q169.60938 187.84375 169.90625 187.59375Q170.21875 187.32812 170.65625 187.1875Q171.09375 187.04688 171.625 187.04688Q172.39062 187.04688 172.92188 187.3125Q173.46875 187.57812 173.75 188.03125Q174.03125 188.48438 174.03125 189.01562L172.95312 189.01562Q172.95312 188.76562 172.79688 188.51562Q172.64062 188.26562 172.34375 188.10938Q172.04688 187.9375 171.625 187.9375Q171.17188 187.9375 170.89062 188.07812Q170.60938 188.20312 170.48438 188.42188Q170.35938 188.625 170.35938 188.85938Q170.35938 189.04688 170.42188 189.1875Q170.48438 189.3125 170.64062 189.4375Q170.79688 189.54688 171.07812 189.65625Q171.375 189.75 171.82812 189.84375Q172.60938 190.01562 173.10938 190.26562Q173.60938 190.51562 173.85938 190.875Q174.10938 191.21875 174.10938 191.73438Q174.10938 192.15625 173.92188 192.5Q173.75 192.84375 173.42188 193.09375Q173.10938 193.34375 172.65625 193.48438Q172.20312 193.625 171.65625 193.625Q170.8125 193.625 170.23438 193.32812Q169.65625 193.01562 169.35938 192.54688Q169.0625 192.0625 169.0625 191.54688L170.14062 191.54688Q170.17188 191.98438 170.40625 192.25Q170.64062 192.51562 170.96875 192.625Q171.3125 192.71875 171.65625 192.71875Q172.09375 192.71875 172.39062 192.60938Q172.70312 192.48438 172.85938 192.28125Q173.01562 192.07812 173.01562 191.8125ZM177.98438 187.15625L177.98438 187.98438L174.54688 187.98438L174.54688 187.15625L177.98438 187.15625ZM175.71875 185.625L176.79688 185.625L176.79688 191.92188Q176.79688 192.25 176.89062 192.42188Q177.0 192.57812 177.15625 192.64062Q177.3125 192.6875 177.5 192.6875Q177.625 192.6875 177.76562 192.65625Q177.92188 192.625 178.0 192.60938L178.01562 193.5Q177.875 193.54688 177.67188 193.57812Q177.46875 193.625 177.17188 193.625Q176.78125 193.625 176.4375 193.46875Q176.10938 193.29688 175.90625 192.9375Q175.71875 192.5625 175.71875 191.92188L175.71875 185.625ZM180.5 187.15625L180.5 193.5L179.42188 193.5L179.42188 187.15625L180.5 187.15625ZM179.32812 185.48438Q179.32812 185.21875 179.48438 185.03125Q179.65625 184.84375 179.96875 184.84375Q180.28125 184.84375 180.4375 185.03125Q180.60938 185.21875 180.60938 185.48438Q180.60938 185.73438 180.4375 185.92188Q180.28125 186.09375 179.96875 186.09375Q179.65625 186.09375 179.48438 185.92188Q179.32812 185.73438 179.32812 185.48438ZM186.4375 187.15625L187.42188 187.15625L187.42188 193.35938Q187.42188 194.20312 187.07812 194.79688Q186.73438 195.39062 186.125 195.6875Q185.53125 196.0 184.73438 196.0Q184.40625 196.0 183.95312 195.89062Q183.51562 195.79688 183.09375 195.54688Q182.67188 195.3125 182.39062 194.90625L182.95312 194.25Q183.35938 194.73438 183.78125 194.92188Q184.21875 195.10938 184.65625 195.10938Q185.17188 195.10938 185.54688 194.90625Q185.92188 194.71875 186.125 194.34375Q186.32812 193.96875 186.32812 193.42188L186.32812 188.54688L186.4375 187.15625ZM182.0625 190.40625L182.0625 190.28125Q182.0625 189.54688 182.23438 188.95312Q182.42188 188.35938 182.73438 187.9375Q183.0625 187.5 183.51562 187.28125Q183.98438 187.04688 184.57812 187.04688Q185.17188 187.04688 185.60938 187.25Q186.0625 187.45312 186.375 187.85938Q186.6875 188.25 186.875 188.8125Q187.0625 189.35938 187.125 190.0625L187.125 190.60938Q187.0625 191.29688 186.875 191.85938Q186.6875 192.42188 186.375 192.8125Q186.0625 193.20312 185.60938 193.42188Q185.15625 193.625 184.5625 193.625Q183.98438 193.625 183.53125 193.39062Q183.07812 193.14062 182.75 192.70312Q182.42188 192.26562 182.23438 191.6875Q182.0625 191.09375 182.0625 190.40625ZM183.15625 190.28125L183.15625 190.40625Q183.15625 190.875 183.25 191.29688Q183.34375 191.70312 183.54688 192.03125Q183.75 192.34375 184.0625 192.53125Q184.39062 192.70312 184.82812 192.70312Q185.35938 192.70312 185.70312 192.46875Q186.0625 192.23438 186.26562 191.85938Q186.48438 191.48438 186.59375 191.04688L186.59375 189.64062Q186.53125 189.3125 186.39062 189.01562Q186.26562 188.71875 186.0625 188.48438Q185.85938 188.23438 185.54688 188.09375Q185.25 187.95312 184.82812 187.95312Q184.39062 187.95312 184.0625 188.14062Q183.75 188.32812 183.54688 188.65625Q183.34375 188.96875 183.25 189.39062Q183.15625 189.79688 183.15625 190.28125ZM191.95312 193.625Q191.29688 193.625 190.75 193.40625Q190.21875 193.17188 189.82812 192.76562Q189.45312 192.34375 189.25 191.78125Q189.04688 191.21875 189.04688 190.54688L189.04688 190.3125Q189.04688 189.53125 189.26562 188.92188Q189.5 188.3125 189.89062 187.89062Q190.28125 187.46875 190.78125 187.26562Q191.28125 187.04688 191.8125 187.04688Q192.5 187.04688 192.98438 187.28125Q193.48438 187.51562 193.79688 187.9375Q194.125 188.34375 194.26562 188.92188Q194.42188 189.48438 194.42188 190.14062L194.42188 190.64062L189.6875 190.64062L189.6875 189.75L193.34375 189.75L193.34375 189.67188Q193.3125 189.25 193.15625 188.85938Q193.01562 188.45312 192.6875 188.20312Q192.375 187.9375 191.8125 187.9375Q191.45312 187.9375 191.14062 188.09375Q190.82812 188.25 190.59375 188.5625Q190.375 188.85938 190.25 189.29688Q190.14062 189.73438 190.14062 190.3125L190.14062 190.54688Q190.14062 191.0 190.26562 191.40625Q190.39062 191.79688 190.625 192.09375Q190.875 192.39062 191.21875 192.5625Q191.57812 192.73438 192.01562 192.73438Q192.59375 192.73438 192.98438 192.5Q193.39062 192.26562 193.6875 191.875L194.34375 192.39062Q194.14062 192.70312 193.8125 192.98438Q193.5 193.26562 193.03125 193.45312Q192.57812 193.625 191.95312 193.625Z" fill-rule="nonzero"/><path stroke="#cccccc" stroke-width="1.0" stroke-linecap="butt" d="M372.0 305.0L372.0 103.0" fill-rule="nonzero"/><path stroke="#ff0000" stroke-width="2.0" stroke-linecap="butt" stroke-opacity="0.7019608" stroke-dasharray="8.0,6.0,2.0,6.0" d="M372.0 137.0L488.0 238.0L483.0 369.0L372.0 413.0L325.0 332.0L302.0 265.0Z" fill-rule="nonzero"/><path fill="#ff0000" fill-opacity="0.7019608" d="M368.81802 133.81802L372.0 135.875L375.18198 133.81802L373.125 137.0L375.18198 140.18198L372.0 138.125L368.81802 140.18198L370.875 137.0Z" fill-rule="nonzero"/><path fill="#ff0000" fill-opacity="0.7019608" d="M484.81802 234.81802L488.0 236.875L491.18198 234.81802L489.125 238.0L491.18198 241.18198L488.0 239.125L484.81802 241.18198L486.875 238.0Z" fill-rule="nonzero"/><path fill="#ff0000" fill-opacity="0.7019608" d="M479.81802 365.81802L483.0 367.875L486.18198 365.81802L484.125 369.0L486.18198 372.18198L483.0 370.125L479.81802 372.18198L481.875 369.0Z" fill-rule="nonzero"/><path fill="#ff0000" fill-opacity="0.7019608" d="M368.81802 409.81802L372.0 411.875L375.18198 409.81802L373.125 413.0L375.18198 416.18198L372.0 414.125L368.81802 416.18198L370.875 413.0Z" fill-rule="nonzero"/><path fill="#ff0000" fill-opacity="0.7019608" d="M321.81802 328.81802L325.0 330.875L328.18198 328.81802L326.125 332.0L328.18198 335.18198L325.0 333.125L321.81802 335.18198L323.875 332.0Z" fill-rule="nonzero"/><path fill="#ff0000" fill-opacity="0.7019608" d="M298.81802 261.81802L302.0 263.875L305.18198 261.81802L303.125 265.0L305.18198 268.18198L302.0 266.125L298.81802 268.18198L300.875 265.0Z" fill-rule="nonzero"/><path fill="#757575" d="M36.6 41.740623L36.6 40.053123L42.6625 40.0375L42.6625 45.35Q41.25625 46.475 39.771873 47.0375Q38.2875 47.6 36.725 47.6Q34.615623 47.6 32.896873 46.69375Q31.178125 45.7875 30.2875 44.084373Q29.4125 42.365623 29.4125 40.25625Q29.4125 38.1625 30.2875 36.365623Q31.1625 34.553123 32.803123 33.678123Q34.44375 32.7875 36.584373 32.7875Q38.13125 32.7875 39.38125 33.2875Q40.646873 33.7875 41.35 34.69375Q42.06875 35.584373 42.44375 37.0375L40.740623 37.50625Q40.4125 36.4125 39.928123 35.7875Q39.459373 35.1625 38.56875 34.7875Q37.678123 34.4125 36.6 34.4125Q35.2875 34.4125 34.334373 34.803123Q33.396873 35.19375 32.81875 35.85Q32.240623 36.490623 31.9125 37.25625Q31.365625 38.584373 31.365625 40.146873Q31.365625 42.053123 32.021873 43.35Q32.69375 44.63125 33.94375 45.25625Q35.209373 45.88125 36.615623 45.88125Q37.85 45.88125 39.021873 45.4125Q40.19375 44.94375 40.803123 44.396873L40.803123 41.740623L36.6 41.740623ZM45.834373 47.35L45.834373 33.0375L48.69375 33.0375L52.06875 43.1625Q52.5375 44.584373 52.75625 45.2875Q53.00625 44.50625 53.521873 42.990623L56.94375 33.0375L59.490623 33.0375L59.490623 47.35L57.678123 47.35L57.678123 35.365623L53.50625 47.35L51.803123 47.35L47.6625 35.1625L47.6625 47.35L45.834373 47.35ZM62.31875 40.38125Q62.31875 36.81875 64.225 34.803123Q66.14687 32.771873 69.17812 32.771873Q71.1625 32.771873 72.74062 33.725Q74.33437 34.678123 75.1625 36.38125Q76.00625 38.06875 76.00625 40.209373Q76.00625 42.38125 75.13125 44.1Q74.25625 45.81875 72.63125 46.709373Q71.02187 47.6 69.1625 47.6Q67.14687 47.6 65.55312 46.63125Q63.959373 45.646873 63.13125 43.959373Q62.31875 42.25625 62.31875 40.38125ZM64.27187 40.4125Q64.27187 42.990623 65.6625 44.490623Q67.05312 45.975 69.14687 45.975Q71.2875 45.975 72.6625 44.475Q74.05312 42.959373 74.05312 40.19375Q74.05312 38.459373 73.45937 37.1625Q72.88125 35.85 71.74062 35.13125Q70.6 34.4125 69.17812 34.4125Q67.17812 34.4125 65.725 35.803123Q64.27187 37.178123 64.27187 40.4125Z" fill-rule="nonzero"/></svg>