<svg version="1.1" viewBox="0.0 0.0 744.0 567.0" fill="none" stroke="none" stroke-linecap="square" stroke-miterlimit="10" width="744" height="567" xmlns:xlink="http://www.w3.org/1999/xlink" xmlns="http://www.w3.org/2000/svg"><path fill="#ffffff" d="M0 0L744.0 0L744.0 567.0L0 567.0L0 0Z" fill-rule="nonzero"/><path fill="#ffffff" d="M28.35 71.25L715.64996 71.25L715.64996 538.65L28.35 538.65L28.35 71.25Z" fill-rule="nonzero"/><path stroke="#cccccc" stroke-width="1.0" stroke-linecap="butt" d="M372.0 305.0C372.0 305.0 372.0 305.0 372.0 305.0C372.0 305.0 372.0 305.0 372.0 305.0C372.0 305.0 372.0 305.0 372.0 305.0C372.0 305.0 372.0 305.0 372.0 305.0" fill-rule="nonzero"/><path fill="#000000" d="M360.0625 297.04688L360.0625 298.35938Q360.0625 299.40625 359.875 300.125Q359.6875 300.84375 359.32812 301.28125Q358.98438 301.71875 358.48438 301.92188Q358.0 302.125 357.375 302.125Q356.89062 302.125 356.46875 302.0Q356.04688 301.875 355.71875 301.60938Q355.39062 301.32812 355.15625 300.89062Q354.92188 300.45312 354.79688 299.82812Q354.67188 299.1875 354.67188 298.35938L354.67188 297.04688Q354.67188 296.0 354.85938 295.29688Q355.0625 294.59375 355.40625 294.15625Q355.76562 293.71875 356.25 293.53125Q356.75 293.34375 357.35938 293.34375Q357.85938 293.34375 358.28125 293.46875Q358.70312 293.59375 359.03125 293.85938Q359.35938 294.10938 359.57812 294.54688Q359.8125 294.96875 359.9375 295.59375Q360.0625 296.21875 360.0625 297.04688ZM358.96875 298.53125L358.96875 296.875Q358.96875 296.29688 358.90625 295.85938Q358.84375 295.42188 358.70312 295.10938Q358.57812 294.79688 358.375 294.60938Q358.1875 294.42188 357.9375 294.32812Q357.6875 294.23438 357.35938 294.23438Q356.98438 294.23438 356.67188 294.375Q356.375 294.51562 356.17188 294.82812Q355.96875 295.14062 355.85938 295.65625Q355.76562 296.15625 355.76562 296.875L355.76562 298.53125Q355.76562 299.10938 355.82812 299.54688Q355.90625 299.98438 356.03125 300.3125Q356.17188 300.625 356.35938 300.82812Q356.5625 301.03125 356.8125 301.125Q357.0625 301.21875 357.375 301.21875Q357.78125 301.21875 358.07812 301.07812Q358.375 300.92188 358.57812 300.59375Q358.78125 300.26562 358.875 299.76562Q358.96875 299.25 358.96875 298.53125ZM362.8125 300.70312L362.8125 301.57812Q362.8125 302.125 362.53125 302.71875Q362.26562 303.3125 361.78125 303.70312L361.17188 303.28125Q361.35938 303.01562 361.48438 302.75Q361.60938 302.48438 361.67188 302.20312Q361.75 301.92188 361.75 301.59375L361.75 300.70312L362.8125 300.70312ZM369.0625 297.04688L369.0625 298.35938Q369.0625 299.40625 368.875 300.125Q368.6875 300.84375 368.32812 301.28125Q367.98438 301.71875 367.48438 301.92188Q367.0 302.125 366.375 302.125Q365.89062 302.125 365.46875 302.0Q365.04688 301.875 364.71875 301.60938Q364.39062 301.32812 364.15625 300.89062Q363.92188 300.45312 363.79688 299.82812Q363.67188 299.1875 363.67188 298.35938L363.67188 297.04688Q363.67188 296.0 363.85938 295.29688Q364.0625 294.59375 364.40625 294.15625Q364.76562 293.71875 365.25 293.53125Q365.75 293.34375 366.35938 293.34375Q366.85938 293.34375 367.28125 293.46875Q367.70312 293.59375 368.03125 293.85938Q368.35938 294.10938 368.57812 294.54688Q368.8125 294.96875 368.9375 295.59375Q369.0625 296.21875 369.0625 297.04688ZM367.96875 298.53125L367.96875 296.875Q367.96875 296.29688 367.90625 295.85938Q367.84375 295.42188 367.70312 295.10938Q367.57812 294.79688 367.375 294.60938Q367.1875 294.42188 366.9375 294.32812Q366.6875 294.23438 366.35938 294.23438Q365.98438 294.23438 365.67188 294.375Q365.375 294.51562 365.17188 294.82812Q364.96875 295.14062 364.85938 295.65625Q364.76562 296.15625 364.76562 296.875L364.76562 298.53125Q364.76562 299.10938 364.82812 299.54688Q364.90625 299.98438 365.03125 300.3125Q365.17188 300.625 365.35938 300.82812Q365.5625 301.03125 365.8125 301.125Q366.0625 301.21875 366.375 301.21875Q366.78125 301.21875 367.07812 301.07812Q367.375 300.92188 367.57812 300.59375Q367.78125 300.26562 367.875 299.76562Q367.96875 299.25 367.96875 298.53125Z" fill-rule="nonzero"/><path stroke="#cccccc" stroke-width="1.0" stroke-linecap="butt" d="M422.425 305.0C422.425 277.15103 399.84897 254.575 372.0 254.575C344.15103 254.575 321.575 277.15103 321.575 305.0C321.575 332.84897 344.15103 355.425 372.0 355.425C399.84897 355.425 422.425 332.84897 422.425 305.0" fill-rule="nonzero"/><path fill="#000000" d="M360.0625 246.62187L360.0625 247.93437Q360.0625 248.98125 359.875 249.7Q359.6875 250.41875 359.32812 250.85625Q358.98438 251.29375 358.48438 251.49687Q358.0 251.7 357.375 251.7Q356.89062 251.7 356.46875 251.575Q356.04688 251.45 355.71875 251.18437Q355.39062 250.90312 355.15625 250.46562Q354.92188 250.02812 354.79688 249.40312Q354.67188 248.7625 354.67188 247.93437L354.67188 246.62187Q354.67188 245.575 354.85938 244.87187Q355.0625 244.16875 355.40625 243.73125Q355.76562 243.29375 356.25 243.10625Q356.75 242.91875 357.35938 242.91875Q357.85938 242.91875 358.28125 243.04375Q358.70312 243.16875 359.03125 243.43437Q359.35938 243.68437 359.57812 244.12187Q359.8125 244.54375 359.9375 245.16875Q360.0625 245.79375 360.0625 246.62187ZM358.96875 248.10625L358.96875 246.45Q358.96875 245.87187 358.90625 245.43437Q358.84375 244.99687 358.70312 244.68437Q358.57812 244.37187 358.375 244.18437Q358.1875 243.99687 357.9375 243.90312Q357.6875 243.80937 357.35938 243.80937Q356.98438 243.80937 356.67188 243.95Q356.375 244.09062 356.17188 244.40312Q355.96875 244.71562 355.85938 245.23125Q355.76562 245.73125 355.76562 246.45L355.76562 248.10625Q355.76562 248.68437 355.82812 249.12187Q355.90625 249.55937 356.03125 249.8875Q356.17188 250.2 356.35938 250.40312Q356.5625 250.60625 356.8125 250.7Q357.0625 250.79375 357.375 250.79375Q357.78125 250.79375 358.07812 250.65312Q358.375 250.49687 358.57812 250.16875Q358.78125 249.84062 358.875 249.34062Q358.96875 248.825 358.96875 248.10625ZM362.8125 250.27812L362.8125 251.15312Q362.8125 251.7 362.53125 252.29375Q362.26562 252.8875 361.78125 253.27812L361.17188 252.85625Q361.35938 252.59062 361.48438 252.325Q361.60938 252.05937 361.67188 251.77812Q361.75 251.49687 361.75 251.16875L361.75 250.27812L362.8125 250.27812ZM367.26562 242.99687L367.26562 251.575L366.1875 251.575L366.1875 244.35625L364.0 245.15312L364.0 244.16875L367.10938 242.99687L367.26562 242.99687Z" fill-rule="nonzero"/><path stroke="#cccccc" stroke-width="1.0" stroke-linecap="butt" d="M472.85 305.0C472.85 249.30208 427.6979 204.15 372.0 204.15C316.3021 204.15 271.15 249.30208 271.15 305.0C271.15 360.6979 316.3021 405.85 372.0 405.85C427.6979 405.85 472.85 360.6979 472.85 305.0" fill-rule="nonzero"/><path fill="#000000" d="M360.0625 196.19687L360.0625 197.50937Q360.0625 198.55624 359.875 199.275Q359.6875 199.99374 359.32812 200.43124Q358.98438 200.86874 358.48438 201.07187Q358.0 201.275 357.375 201.275Q356.89062 201.275 356.46875 201.15Q356.04688 201.025 355.71875 200.75937Q355.39062 200.47812 355.15625 200.04062Q354.92188 199.60312 354.79688 198.97812Q354.67188 198.3375 354.67188 197.50937L354.67188 196.19687Q354.67188 195.15 354.85938 194.44687Q355.0625 193.74374 355.40625 193.30624Q355.76562 192.86874 356.25 192.68124Q356.75 192.49374 357.35938 192.49374Q357.85938 192.49374 358.28125 192.61874Q358.70312 192.74374 359.03125 193.00937Q359.35938 193.25937 359.57812 193.69687Q359.8125 194.11874 359.9375 194.74374Q360.0625 195.36874 360.0625 196.19687ZM358.96875 197.68124L358.96875 196.025Q358.96875 195.44687 358.90625 195.00937Q358.84375 194.57187 358.70312 194.25937Q358.57812 193.94687 358.375 193.75937Q358.1875 193.57187 357.9375 193.47812Q357.6875 193.38437 357.35938 193.38437Q356.98438 193.38437 356.67188 193.525Q356.375 193.66562 356.17188 193.97812Q355.96875 194.29062 355.85938 194.80624Q355.76562 195.30624 355.76562 196.025L355.76562 197.68124Q355.76562 198.25937 355.82812 198.69687Q355.90625 199.13437 356.03125 199.4625Q356.17188 199.775 356.35938 199.97812Q356.5625 200.18124 356.8125 200.275Q357.0625 200.36874 357.375 200.36874Q357.78125 200.36874 358.07812 200.22812Q358.375 200.07187 358.57812 199.74374Q358.78125 199.41562 358.875 198.91562Q358.96875 198.4 358.96875 197.68124ZM362.8125 199.85312L362.8125 200.72812Q362.8125 201.275 362.53125 201.86874Q362.26562 202.4625 361.78125 202.85312L361.17188 202.43124Q361.35938 202.16562 361.48438 201.9Q361.60938 201.63437 361.67188 201.35312Q361.75 201.07187 361.75 200.74374L361.75 199.85312L362.8125 199.85312ZM369.29688 200.25937L369.29688 201.15L363.71875 201.15L363.71875 200.36874L366.51562 197.25937Q367.03125 196.68124 367.3125 196.29062Q367.59375 195.88437 367.70312 195.57187Q367.82812 195.24374 367.82812 194.91562Q367.82812 194.49374 367.65625 194.15Q367.48438 193.80624 367.14062 193.60312Q366.8125 193.38437 366.32812 193.38437Q365.76562 193.38437 365.39062 193.61874Q365.01562 193.8375 364.82812 194.22812Q364.64062 194.61874 364.64062 195.11874L363.54688 195.11874Q363.54688 194.4 363.85938 193.80624Q364.1875 193.2125 364.79688 192.85312Q365.42188 192.49374 366.32812 192.49374Q367.14062 192.49374 367.71875 192.79062Q368.29688 193.07187 368.59375 193.5875Q368.90625 194.0875 368.90625 194.775Q368.90625 195.15 368.78125 195.54062Q368.65625 195.91562 368.4375 196.30624Q368.21875 196.68124 367.92188 197.05624Q367.64062 197.41562 367.3125 197.775L365.01562 200.25937L369.29688 200.25937Z" fill-rule="nonzero"/><path stroke="#cccccc" stroke-width="1.0" stroke-linecap="butt" d="M523.275 305.0C523.275 221.45312 455.54688 153.725 372.0 153.725C288.45312 153.725 220.725 221.45312 220.725 305.0C220.725 388.54688 288.45312 456.275 372.0 456.275C455.54688 456.275 523.275 388.54688 523.275 305.0" fill-rule="nonzero"/><path fill="#000000" d="M360.0625 145.77188L360.0625 147.08438Q360.0625 148.13126 359.875 148.85Q359.6875 149.56876 359.32812 150.00626Q358.98438 150.44376 358.48438 150.64688Q358.0 150.85 357.375 150.85Q356.89062 150.85 356.46875 150.725Q356.04688 150.6 355.71875 150.33438Q355.39062 150.05313 355.15625 149.61563Q354.92188 149.17813 354.79688 148.55313Q354.67188 147.9125 354.67188 147.08438L354.67188 145.77188Q354.67188 144.725 354.85938 144.02188Q355.0625 143.31876 355.40625 142.88126Q355.76562 142.44376 356.25 142.25626Q356.75 142.06876 357.35938 142.06876Q357.85938 142.06876 358.28125 142.19376Q358.70312 142.31876 359.03125 142.58438Q359.35938 142.83438 359.57812 143.27188Q359.8125 143.69376 359.9375 144.31876Q360.0625 144.94376 360.0625 145.77188ZM358.96875 147.25626L358.96875 145.6Q358.96875 145.02188 358.90625 144.58438Q358.84375 144.14688 358.70312 143.83438Q358.57812 143.52188 358.375 143.33438Q358.1875 143.14688 357.9375 143.05313Q357.6875 142.95938 357.35938 142.95938Q356.98438 142.95938 356.67188 143.1Q356.375 143.24063 356.17188 143.55313Q355.96875 143.86563 355.85938 144.38126Q355.76562 144.88126 355.76562 145.6L355.76562 147.25626Q355.76562 147.83438 355.82812 148.27188Q355.90625 148.70938 356.03125 149.0375Q356.17188 149.35 356.35938 149.55313Q356.5625 149.75626 356.8125 149.85Q357.0625 149.94376 357.375 149.94376Q357.78125 149.94376 358.07812 149.80313Q358.375 149.64688 358.57812 149.31876Q358.78125 148.99063 358.875 148.49063Q358.96875 147.975 358.96875 147.25626ZM362.8125 149.42813L362.8125 150.30313Q362.8125 150.85 362.53125 151.44376Q362.26562 152.0375 361.78125 152.42813L361.17188 152.00626Q361.35938 151.74063 361.48438 151.475Q361.60938 151.20938 361.67188 150.92813Q361.75 150.64688 361.75 150.31876L361.75 149.42813L362.8125 149.42813ZM365.29688 145.92813L366.0625 145.92813Q366.64062 145.92813 367.0 145.74063Q367.375 145.5375 367.5625 145.20938Q367.75 144.88126 367.75 144.45938Q367.75 143.975 367.57812 143.64688Q367.42188 143.30313 367.09375 143.13126Q366.76562 142.95938 366.26562 142.95938Q365.79688 142.95938 365.45312 143.14688Q365.10938 143.31876 364.90625 143.64688Q364.71875 143.975 364.71875 144.42813L363.625 144.42813Q363.625 143.77188 363.95312 143.24063Q364.28125 142.70938 364.875 142.39688Q365.46875 142.06876 366.26562 142.06876Q367.03125 142.06876 367.60938 142.35Q368.1875 142.61563 368.51562 143.1625Q368.84375 143.69376 368.84375 144.49063Q368.84375 144.81876 368.6875 145.17813Q368.53125 145.5375 368.21875 145.86563Q367.90625 146.17813 367.40625 146.38126Q366.92188 146.58438 366.21875 146.58438L365.29688 146.58438L365.29688 145.92813ZM365.29688 146.81876L365.29688 146.1625L366.21875 146.1625Q367.03125 146.1625 367.5625 146.36563Q368.09375 146.55313 368.40625 146.88126Q368.71875 147.19376 368.84375 147.58438Q368.96875 147.95938 368.96875 148.35Q368.96875 148.94376 368.76562 149.4125Q368.5625 149.86563 368.1875 150.19376Q367.82812 150.50626 367.32812 150.67813Q366.84375 150.85 366.26562 150.85Q365.70312 150.85 365.21875 150.69376Q364.73438 150.52188 364.35938 150.225Q363.98438 149.92813 363.76562 149.49063Q363.5625 149.0375 363.5625 148.475L364.64062 148.475Q364.64062 148.9125 364.82812 149.25626Q365.03125 149.58438 365.39062 149.77188Q365.76562 149.94376 366.26562 149.94376Q366.76562 149.94376 367.125 149.77188Q367.48438 149.6 367.67188 149.25626Q367.875 148.89688 367.875 148.36563Q367.875 147.83438 367.65625 147.49063Q367.4375 147.14688 367.01562 146.99063Q366.60938 146.81876 366.0625 146.81876L365.29688 146.81876Z" fill-rule="nonzero"/><path stroke="#cccccc" stroke-width="1.0" stroke-linecap="butt" d="M573.7 305.0C573.7 193.60417 483.39584 103.3 372.0 103.3C260.60416 103.3 170.3 193.60417 170.3 305.0C170.3 416.39584 260.60416 506.7 372.0 506.7C483.39584 506.7 573.7 416.39584 573.7 305.0" fill-rule="nonzero"/><path fill="#000000" d="M360.0625 95.34688L360.0625 96.65938Q360.0625 97.70625 359.875 98.425Q359.6875 99.14375 359.32812 99.58125Q358.98438 100.01875 358.48438 100.22188Q358.0 100.425 357.375 100.425Q356.89062 100.425 356.46875 100.3Q356.04688 100.175 355.71875 99.90938Q355.39062 99.62813 355.15625 99.19063Q354.92188 98.75313 354.79688 98.12813Q354.67188 97.4875 354.67188 96.65938L354.67188 95.34688Q354.67188 94.3 354.85938 93.59688Q355.0625 92.89375 355.40625 92.45625Q355.76562 92.01875 356.25 91.83125Q356.75 91.64375 357.35938 91.64375Q357.85938 91.64375 358.28125 91.76875Q358.70312 91.89375 359.03125 92.15938Q359.35938 92.40938 359.57812 92.84688Q359.8125 93.26875 359.9375 93.89375Q360.0625 94.51875 360.0625 95.34688ZM358.96875 96.83125L358.96875 95.175Q358.96875 94.59688 358.90625 94.15938Q358.84375 93.72188 358.70312 93.40938Q358.57812 93.09688 358.375 92.90938Q358.1875 92.72188 357.9375 92.62813Q357.6875 92.53438 357.35938 92.53438Q356.98438 92.53438 356.67188 92.675Q356.375 92.81563 356.17188 93.12813Q355.96875 93.44063 355.85938 93.95625Q355.76562 94.45625 355.76562 95.175L355.76562 96.83125Q355.76562 97.40938 355.82812 97.84688Q355.90625 98.28438 356.03125 98.6125Q356.17188 98.925 356.35938 99.12813Q356.5625 99.33125 356.8125 99.425Q357.0625 99.51875 357.375 99.51875Q357.78125 99.51875 358.07812 99.37813Q358.375 99.22188 358.57812 98.89375Q358.78125 98.56563 358.875 98.06563Q358.96875 97.55 358.96875 96.83125ZM362.8125 99.00313L362.8125 99.87813Q362.8125 100.425 362.53125 101.01875Q362.26562 101.6125 361.78125 102.00313L361.17188 101.58125Q361.35938 101.31563 361.48438 101.05Q361.60938 100.78438 361.67188 100.50313Q361.75 100.22188 361.75 99.89375L361.75 99.00313L362.8125 99.00313ZM369.46875 97.425L369.46875 98.31563L363.3125 98.31563L363.3125 97.675L367.125 91.76875L368.01562 91.76875L367.0625 93.47188L364.54688 97.425L369.46875 97.425ZM368.28125 91.76875L368.28125 100.3L367.20312 100.3L367.20312 91.76875L368.28125 91.76875Z" fill-rule="nonzero"/><path stroke="#cccccc" stroke-width="1.0" stroke-linecap="butt" d="M372.0 305.0L372.0 103.0" fill-rule="nonzero"/><path fill="#000000" d="M342.64062 49.78125L343.76562 49.78125Q343.67188 50.59375 343.29688 51.234375Q342.92188 51.875 342.23438 52.25Q341.5625 52.625 340.53125 52.625Q339.78125 52.625 339.17188 52.34375Q338.5625 52.046875 338.10938 51.53125Q337.67188 51.015625 337.4375 50.296875Q337.20312 49.5625 337.20312 48.65625L337.20312 47.8125Q337.20312 46.921875 337.4375 46.1875Q337.67188 45.453125 338.125 44.9375Q338.57812 44.40625 339.20312 44.125Q339.84375 43.84375 340.625 43.84375Q341.59375 43.84375 342.26562 44.21875Q342.9375 44.578125 343.29688 45.21875Q343.67188 45.859375 343.76562 46.703125L342.64062 46.703125Q342.5625 46.109375 342.32812 45.6875Q342.10938 45.25 341.70312 45.015625Q341.29688 44.78125 340.625 44.78125Q340.0625 44.78125 339.625 45.0Q339.20312 45.203125 338.90625 45.609375Q338.625 46.0 338.46875 46.5625Q338.32812 47.125 338.32812 47.796875L338.32812 48.65625Q338.32812 49.28125 338.45312 49.84375Q338.59375 50.390625 338.85938 50.8125Q339.125 51.21875 339.54688 51.46875Q339.96875 51.703125 340.53125 51.703125Q341.25 51.703125 341.67188 51.46875Q342.10938 51.234375 342.32812 50.8125Q342.54688 50.390625 342.64062 49.78125ZM349.0625 51.421875L349.0625 48.15625Q349.0625 47.78125 348.90625 47.5Q348.76562 47.21875 348.46875 47.078125Q348.17188 46.921875 347.73438 46.921875Q347.3125 46.921875 347.0 47.0625Q346.70312 47.203125 346.53125 47.4375Q346.35938 47.65625 346.35938 47.921875L345.28125 47.921875Q345.28125 47.578125 345.45312 47.25Q345.625 46.90625 345.95312 46.640625Q346.28125 46.359375 346.75 46.203125Q347.21875 46.046875 347.79688 46.046875Q348.48438 46.046875 349.01562 46.28125Q349.54688 46.515625 349.84375 46.984375Q350.15625 47.453125 350.15625 48.15625L350.15625 51.109375Q350.15625 51.4375 350.20312 51.796875Q350.26562 52.140625 350.375 52.40625L350.375 52.5L349.23438 52.5Q349.15625 52.3125 349.10938 52.0Q349.0625 51.6875 349.0625 51.421875ZM349.25 48.65625L349.26562 49.421875L348.17188 49.421875Q347.70312 49.421875 347.34375 49.5Q346.98438 49.5625 346.73438 49.71875Q346.48438 49.859375 346.35938 50.078125Q346.23438 50.296875 346.23438 50.59375Q346.23438 50.890625 346.35938 51.140625Q346.5 51.375 346.76562 51.53125Q347.04688 51.671875 347.4375 51.671875Q347.9375 51.671875 348.3125 51.46875Q348.70312 51.25 348.92188 50.953125Q349.15625 50.640625 349.17188 50.34375L349.64062 50.875Q349.59375 51.109375 349.40625 51.421875Q349.23438 51.71875 348.92188 52.0Q348.625 52.265625 348.20312 52.453125Q347.79688 52.625 347.28125 52.625Q346.64062 52.625 346.15625 52.375Q345.67188 52.109375 345.40625 51.6875Q345.14062 51.265625 345.14062 50.734375Q345.14062 50.21875 345.32812 49.84375Q345.53125 49.453125 345.90625 49.1875Q346.28125 48.921875 346.8125 48.796875Q347.34375 48.65625 348.0 48.65625L349.25 48.65625ZM353.40625 47.15625L353.40625 52.5L352.32812 52.5L352.32812 46.15625L353.375 46.15625L353.40625 47.15625ZM355.39062 46.125L355.39062 47.125Q355.25 47.109375 355.125 47.09375Q355.01562 47.078125 354.85938 47.078125Q354.48438 47.078125 354.1875 47.203125Q353.90625 47.3125 353.70312 47.53125Q353.51562 47.734375 353.39062 48.03125Q353.28125 48.328125 353.25 48.671875L352.9375 48.84375Q352.9375 48.265625 353.04688 47.765625Q353.17188 47.265625 353.40625 46.875Q353.65625 46.484375 354.01562 46.265625Q354.39062 46.046875 354.90625 46.046875Q355.03125 46.046875 355.17188 46.078125Q355.32812 46.09375 355.39062 46.125ZM358.10938 51.84375L359.875 46.15625L361.03125 46.15625L358.48438 53.484375Q358.40625 53.71875 358.25 53.984375Q358.10938 54.265625 357.89062 54.5Q357.67188 54.75 357.35938 54.90625Q357.04688 55.0625 356.60938 55.0625Q356.48438 55.0625 356.28125 55.015625Q356.07812 54.984375 356.0 54.96875L356.0 54.09375Q356.04688 54.09375 356.14062 54.09375Q356.25 54.109375 356.28125 54.109375Q356.65625 54.109375 356.90625 54.015625Q357.17188 53.921875 357.34375 53.6875Q357.53125 53.46875 357.65625 53.078125L358.10938 51.84375ZM356.8125 46.15625L358.45312 51.078125L358.73438 52.21875L357.96875 52.625L355.625 46.15625L356.8125 46.15625ZM362.04688 49.40625L362.04688 49.265625Q362.04688 48.578125 362.23438 48.0Q362.4375 47.40625 362.8125 46.96875Q363.1875 46.53125 363.71875 46.296875Q364.25 46.046875 364.92188 46.046875Q365.57812 46.046875 366.10938 46.296875Q366.65625 46.53125 367.03125 46.96875Q367.40625 47.40625 367.60938 48.0Q367.8125 48.578125 367.8125 49.265625L367.8125 49.40625Q367.8125 50.078125 367.60938 50.671875Q367.40625 51.25 367.03125 51.6875Q366.65625 52.125 366.125 52.375Q365.59375 52.625 364.92188 52.625Q364.26562 52.625 363.71875 52.375Q363.1875 52.125 362.8125 51.6875Q362.4375 51.25 362.23438 50.671875Q362.04688 50.078125 362.04688 49.40625ZM363.125 49.265625L363.125 49.40625Q363.125 49.875 363.23438 50.296875Q363.34375 50.71875 363.5625 51.046875Q363.79688 51.359375 364.14062 51.546875Q364.48438 51.71875 364.92188 51.71875Q365.375 51.71875 365.70312 51.546875Q366.04688 51.359375 366.26562 51.046875Q366.5 50.71875 366.60938 50.296875Q366.71875 49.875 366.71875 49.40625L366.71875 49.265625Q366.71875 48.796875 366.60938 48.375Q366.5 47.953125 366.26562 47.640625Q366.04688 47.3125 365.70312 47.125Q365.375 46.9375 364.92188 46.9375Q364.46875 46.9375 364.125 47.125Q363.79688 47.3125 363.5625 47.640625Q363.34375 47.953125 363.23438 48.375Q363.125 48.796875 363.125 49.265625ZM370.40625 47.375L370.40625 54.9375L369.32812 54.9375L369.32812 46.15625L370.3125 46.15625L370.40625 47.375ZM374.6875 49.28125L374.6875 49.40625Q374.6875 50.09375 374.51562 50.6875Q374.35938 51.265625 374.04688 51.703125Q373.73438 52.140625 373.26562 52.390625Q372.8125 52.625 372.21875 52.625Q371.625 52.625 371.15625 52.421875Q370.6875 52.21875 370.35938 51.84375Q370.04688 51.453125 369.85938 50.921875Q369.67188 50.390625 369.59375 49.71875L369.59375 49.0625Q369.67188 48.359375 369.85938 47.8125Q370.04688 47.25 370.35938 46.859375Q370.6875 46.453125 371.14062 46.25Q371.60938 46.046875 372.20312 46.046875Q372.79688 46.046875 373.26562 46.28125Q373.73438 46.5 374.04688 46.9375Q374.35938 47.359375 374.51562 47.953125Q374.6875 48.546875 374.6875 49.28125ZM373.59375 49.40625L373.59375 49.28125Q373.59375 48.796875 373.48438 48.390625Q373.39062 47.96875 373.1875 47.65625Q372.98438 47.328125 372.65625 47.140625Q372.32812 46.953125 371.89062 46.953125Q371.48438 46.953125 371.17188 47.09375Q370.875 47.234375 370.65625 47.484375Q370.45312 47.71875 370.3125 48.015625Q370.1875 48.3125 370.125 48.640625L370.125 50.15625Q370.23438 50.5625 370.4375 50.921875Q370.65625 51.28125 371.0 51.5Q371.35938 51.71875 371.90625 51.71875Q372.34375 51.71875 372.65625 51.546875Q372.98438 51.359375 373.1875 51.046875Q373.39062 50.71875 373.48438 50.296875Q373.59375 49.875 373.59375 49.40625ZM377.40625 43.5L377.40625 52.5L376.32812 52.5L376.32812 43.5L377.40625 43.5ZM377.15625 49.09375L376.70312 49.078125Q376.70312 48.421875 376.89062 47.875Q377.07812 47.3125 377.42188 46.90625Q377.76562 46.5 378.23438 46.28125Q378.70312 46.046875 379.28125 46.046875Q379.75 46.046875 380.125 46.171875Q380.5 46.296875 380.76562 46.578125Q381.03125 46.84375 381.17188 47.28125Q381.3125 47.71875 381.3125 48.34375L381.3125 52.5L380.21875 52.5L380.21875 48.328125Q380.21875 47.828125 380.07812 47.53125Q379.9375 47.234375 379.65625 47.09375Q379.375 46.953125 378.95312 46.953125Q378.54688 46.953125 378.21875 47.125Q377.89062 47.296875 377.65625 47.59375Q377.42188 47.890625 377.28125 48.28125Q377.15625 48.65625 377.15625 49.09375ZM385.10938 51.84375L386.875 46.15625L388.03125 46.15625L385.48438 53.484375Q385.40625 53.71875 385.25 53.984375Q385.10938 54.265625 384.89062 54.5Q384.67188 54.75 384.35938 54.90625Q384.04688 55.0625 383.60938 55.0625Q383.48438 55.0625 383.28125 55.015625Q383.07812 54.984375 383.0 54.96875L383.0 54.09375Q383.04688 54.09375 383.14062 54.09375Q383.25 54.109375 383.28125 54.109375Q383.65625 54.109375 383.90625 54.015625Q384.17188 53.921875 384.34375 53.6875Q384.53125 53.46875 384.65625 53.078125L385.10938 51.84375ZM383.8125 46.15625L385.45312 51.078125L385.73438 52.21875L384.96875 52.625L382.625 46.15625L383.8125 46.15625ZM390.5 43.5L390.5 52.5L389.42188 52.5L389.42188 43.5L390.5 43.5ZM393.5 43.5L393.5 52.5L392.42188 52.5L392.42188 43.5L393.5 43.5ZM397.95312 52.625Q397.29688 52.625 396.75 52.40625Q396.21875 52.171875 395.82812 51.765625Q395.45312 51.34375 395.25 50.78125Q395.04688 50.21875 395.04688 49.546875L395.04688 49.3125Q395.04688 48.53125 395.26562 47.921875Q395.5 47.3125 395.89062 46.890625Q396.28125 46.46875 396.78125 46.265625Q397.28125 46.046875 397.8125 46.046875Q398.5 46.046875 398.98438 46.28125Q399.48438 46.515625 399.79688 46.9375Q400.125 47.34375 400.26562 47.921875Q400.42188 48.484375 400.42188 49.140625L400.42188 49.640625L395.6875 49.640625L395.6875 48.75L399.34375 48.75L399.34375 48.671875Q399.3125 48.25 399.15625 47.859375Q399.01562 47.453125 398.6875 47.203125Q398.375 46.9375 397.8125 46.9375Q397.45312 46.9375 397.14062 47.09375Q396.82812 47.25 396.59375 47.5625Q396.375 47.859375 396.25 48.296875Q396.14062 48.734375 396.14062 49.3125L396.14062 49.546875Q396.14062 50.0 396.26562 50.40625Q396.39062 50.796875 396.625 51.09375Q396.875 51.390625 397.21875 51.5625Q397.57812 51.734375 398.01562 51.734375Q398.59375 51.734375 398.98438 51.5Q399.39062 51.265625 399.6875 50.875L400.34375 51.390625Q400.14062 51.703125 399.8125 51.984375Q399.5 52.265625 399.03125 52.453125Q398.57812 52.625 397.95312 52.625ZM402.40625 47.515625L402.40625 52.5L401.32812 52.5L401.32812 46.15625L402.35938 46.15625L402.40625 47.515625ZM402.15625 49.09375L401.70312 49.078125Q401.70312 48.421875 401.89062 47.875Q402.07812 47.3125 402.42188 46.90625Q402.76562 46.5 403.23438 46.28125Q403.70312 46.046875 404.28125 46.046875Q404.75 46.046875 405.125 46.171875Q405.5 46.296875 405.76562 46.578125Q406.03125 46.84375 406.17188 47.28125Q406.3125 47.71875 406.3125 48.34375L406.3125 52.5L405.21875 52.5L405.21875 48.328125Q405.21875 47.828125 405.07812 47.53125Q404.9375 47.234375 404.65625 47.09375Q404.375 46.953125 403.95312 46.953125Q403.54688 46.953125 403.21875 47.125Q402.89062 47.296875 402.65625 47.59375Q402.42188 47.890625 402.28125 48.28125Q402.15625 48.65625 402.15625 49.09375Z" fill-rule="nonzero"/><path stroke="#cccccc" stroke-width="1.0" stroke-linecap="butt" d="M372.0 305.0L547.0 204.0" fill-rule="nonzero"/><path fill="#000000" d="M547.53125 178.34375Q547.53125 178.04688 547.4375 177.8125Q547.3594 177.57812 547.125 177.39062Q546.90625 177.20312 546.5 177.03125Q546.1094 176.85938 545.5156 176.6875Q544.875 176.5 544.3594 176.28125Q543.8594 176.04688 543.4844 175.75Q543.125 175.4375 542.9375 175.0625Q542.75 174.67188 542.75 174.17188Q542.75 173.67188 542.9531 173.25Q543.15625 172.82812 543.53125 172.51562Q543.9219 172.20312 544.4531 172.03125Q544.9844 171.84375 545.6406 171.84375Q546.6094 171.84375 547.28125 172.21875Q547.9531 172.57812 548.2969 173.17188Q548.65625 173.76562 548.65625 174.42188L547.53125 174.42188Q547.53125 173.95312 547.3125 173.57812Q547.1094 173.20312 546.6875 173.0Q546.28125 172.78125 545.6406 172.78125Q545.0469 172.78125 544.6406 172.96875Q544.25 173.14062 544.0625 173.45312Q543.875 173.76562 543.875 174.15625Q543.875 174.42188 543.9844 174.65625Q544.1094 174.875 544.34375 175.0625Q544.59375 175.25 544.96875 175.40625Q545.34375 175.5625 545.875 175.70312Q546.59375 175.90625 547.125 176.17188Q547.65625 176.42188 548.0 176.73438Q548.34375 177.04688 548.5 177.4375Q548.6719 177.82812 548.6719 178.32812Q548.6719 178.85938 548.4531 179.28125Q548.25 179.70312 547.8594 180.0Q547.46875 180.29688 546.9219 180.46875Q546.375 180.625 545.7031 180.625Q545.1094 180.625 544.53125 180.45312Q543.96875 180.28125 543.5 179.95312Q543.03125 179.625 542.75 179.15625Q542.46875 178.67188 542.46875 178.03125L543.59375 178.03125Q543.59375 178.46875 543.7656 178.78125Q543.9375 179.09375 544.2344 179.29688Q544.53125 179.5 544.90625 179.60938Q545.28125 179.70312 545.7031 179.70312Q546.2969 179.70312 546.7031 179.54688Q547.1094 179.375 547.3125 179.07812Q547.53125 178.76562 547.53125 178.34375ZM552.4531 180.625Q551.7969 180.625 551.25 180.40625Q550.71875 180.17188 550.3281 179.76562Q549.9531 179.34375 549.75 178.78125Q549.5469 178.21875 549.5469 177.54688L549.5469 177.3125Q549.5469 176.53125 549.7656 175.92188Q550.0 175.3125 550.3906 174.89062Q550.78125 174.46875 551.28125 174.26562Q551.78125 174.04688 552.3125 174.04688Q553.0 174.04688 553.4844 174.28125Q553.9844 174.51562 554.2969 174.9375Q554.625 175.34375 554.7656 175.92188Q554.9219 176.48438 554.9219 177.14062L554.9219 177.64062L550.1875 177.64062L550.1875 176.75L553.84375 176.75L553.84375 176.67188Q553.8125 176.25 553.65625 175.85938Q553.5156 175.45312 553.1875 175.20312Q552.875 174.9375 552.3125 174.9375Q551.9531 174.9375 551.6406 175.09375Q551.3281 175.25 551.09375 175.5625Q550.875 175.85938 550.75 176.29688Q550.6406 176.73438 550.6406 177.3125L550.6406 177.54688Q550.6406 178.0 550.7656 178.40625Q550.8906 178.79688 551.125 179.09375Q551.375 179.39062 551.71875 179.5625Q552.0781 179.73438 552.5156 179.73438Q553.09375 179.73438 553.4844 179.5Q553.8906 179.26562 554.1875 178.875L554.84375 179.39062Q554.6406 179.70312 554.3125 179.98438Q554.0 180.26562 553.53125 180.45312Q553.0781 180.625 552.4531 180.625ZM557.0 171.5L557.0 180.5L555.9219 180.5L555.9219 171.5L557.0 171.5ZM560.0 174.15625L560.0 180.5L558.9219 180.5L558.9219 174.15625L560.0 174.15625ZM558.8281 172.48438Q558.8281 172.21875 558.9844 172.03125Q559.15625 171.84375 559.46875 171.84375Q559.78125 171.84375 559.9375 172.03125Q560.1094 172.21875 560.1094 172.48438Q560.1094 172.73438 559.9375 172.92188Q559.78125 173.09375 559.46875 173.09375Q559.15625 173.09375 558.9844 172.92188Q558.8281 172.73438 558.8281 172.48438ZM562.90625 175.51562L562.90625 180.5L561.8281 180.5L561.8281 174.15625L562.8594 174.15625L562.90625 175.51562ZM562.65625 177.09375L562.2031 177.07812Q562.2031 176.42188 562.3906 175.875Q562.5781 175.3125 562.9219 174.90625Q563.2656 174.5 563.7344 174.28125Q564.2031 174.04688 564.78125 174.04688Q565.25 174.04688 565.625 174.17188Q566.0 174.29688 566.2656 174.57812Q566.53125 174.84375 566.6719 175.28125Q566.8125 175.71875 566.8125 176.34375L566.8125 180.5L565.71875 180.5L565.71875 176.32812Q565.71875 175.82812 565.5781 175.53125Q565.4375 175.23438 565.15625 175.09375Q564.875 174.95312 564.4531 174.95312Q564.0469 174.95312 563.71875 175.125Q563.3906 175.29688 563.15625 175.59375Q562.9219 175.89062 562.78125 176.28125Q562.65625 176.65625 562.65625 177.09375ZM572.5625 179.42188L572.5625 176.15625Q572.5625 175.78125 572.40625 175.5Q572.2656 175.21875 571.96875 175.07812Q571.6719 174.92188 571.2344 174.92188Q570.8125 174.92188 570.5 175.0625Q570.2031 175.20312 570.03125 175.4375Q569.8594 175.65625 569.8594 175.92188L568.78125 175.92188Q568.78125 175.57812 568.9531 175.25Q569.125 174.90625 569.4531 174.64062Q569.78125 174.35938 570.25 174.20312Q570.71875 174.04688 571.2969 174.04688Q571.9844 174.04688 572.5156 174.28125Q573.0469 174.51562 573.34375 174.98438Q573.65625 175.45312 573.65625 176.15625L573.65625 179.10938Q573.65625 179.4375 573.7031 179.79688Q573.7656 180.14062 573.875 180.40625L573.875 180.5L572.7344 180.5Q572.65625 180.3125 572.6094 180.0Q572.5625 179.6875 572.5625 179.42188ZM572.75 176.65625L572.7656 177.42188L571.6719 177.42188Q571.2031 177.42188 570.84375 177.5Q570.4844 177.5625 570.2344 177.71875Q569.9844 177.85938 569.8594 178.07812Q569.7344 178.29688 569.7344 178.59375Q569.7344 178.89062 569.8594 179.14062Q570.0 179.375 570.2656 179.53125Q570.5469 179.67188 570.9375 179.67188Q571.4375 179.67188 571.8125 179.46875Q572.2031 179.25 572.4219 178.95312Q572.65625 178.64062 572.6719 178.34375L573.1406 178.875Q573.09375 179.10938 572.90625 179.42188Q572.7344 179.71875 572.4219 180.0Q572.125 180.26562 571.7031 180.45312Q571.2969 180.625 570.78125 180.625Q570.1406 180.625 569.65625 180.375Q569.1719 180.10938 568.90625 179.6875Q568.6406 179.26562 568.6406 178.73438Q568.6406 178.21875 568.8281 177.84375Q569.03125 177.45312 569.40625 177.1875Q569.78125 176.92188 570.3125 176.79688Q570.84375 176.65625 571.5 176.65625L572.75 176.65625ZM578.0781 176.42188L578.0781 177.3125L575.21875 177.3125L575.21875 176.42188L578.0781 176.42188ZM580.2969 175.70312L581.0625 175.70312Q581.6406 175.70312 582.0 175.51562Q582.375 175.3125 582.5625 174.98438Q582.75 174.65625 582.75 174.23438Q582.75 173.75 582.5781 173.42188Q582.4219 173.07812 582.09375 172.90625Q581.7656 172.73438 581.2656 172.73438Q580.7969 172.73438 580.4531 172.92188Q580.1094 173.09375 579.90625 173.42188Q579.71875 173.75 579.71875 174.20312L578.625 174.20312Q578.625 173.54688 578.9531 173.01562Q579.28125 172.48438 579.875 172.17188Q580.46875 171.84375 581.2656 171.84375Q582.03125 171.84375 582.6094 172.125Q583.1875 172.39062 583.5156 172.9375Q583.84375 173.46875 583.84375 174.26562Q583.84375 174.59375 583.6875 174.95312Q583.53125 175.3125 583.21875 175.64062Q582.90625 175.95312 582.40625 176.15625Q581.9219 176.35938 581.21875 176.35938L580.2969 176.35938L580.2969 175.70312ZM580.2969 176.59375L580.2969 175.9375L581.21875 175.9375Q582.03125 175.9375 582.5625 176.14062Q583.09375 176.32812 583.40625 176.65625Q583.71875 176.96875 583.84375 177.35938Q583.96875 177.73438 583.96875 178.125Q583.96875 178.71875 583.7656 179.1875Q583.5625 179.64062 583.1875 179.96875Q582.8281 180.28125 582.3281 180.45312Q581.84375 180.625 581.2656 180.625Q580.7031 180.625 580.21875 180.46875Q579.7344 180.29688 579.3594 180.0Q578.9844 179.70312 578.7656 179.26562Q578.5625 178.8125 578.5625 178.25L579.6406 178.25Q579.6406 178.6875 579.8281 179.03125Q580.03125 179.35938 580.3906 179.54688Q580.7656 179.71875 581.2656 179.71875Q581.7656 179.71875 582.125 179.54688Q582.4844 179.375 582.6719 179.03125Q582.875 178.67188 582.875 178.14062Q582.875 177.60938 582.65625 177.26562Q582.4375 176.92188 582.0156 176.76562Q581.6094 176.59375 581.0625 176.59375L580.2969 176.59375ZM586.8125 179.20312L586.8125 180.07812Q586.8125 180.625 586.53125 181.21875Q586.2656 181.8125 585.78125 182.20312L585.1719 181.78125Q585.3594 181.51562 585.4844 181.25Q585.6094 180.98438 585.6719 180.70312Q585.75 180.42188 585.75 180.09375L585.75 179.20312L586.8125 179.20312ZM593.21875 171.96875L593.21875 172.57812L589.6875 180.5L588.5469 180.5L592.0781 172.85938L587.4531 172.85938L587.4531 171.96875L593.21875 171.96875ZM594.78125 177.09375L594.78125 177.03125Q594.78125 175.75 595.0625 174.71875Q595.3594 173.6875 595.7969 172.90625Q596.25 172.125 596.7344 171.60938Q597.2344 171.09375 597.65625 170.875L597.875 171.59375Q597.53125 171.84375 597.1719 172.3125Q596.8281 172.78125 596.53125 173.45312Q596.2344 174.125 596.0469 175.01562Q595.875 175.90625 595.875 177.01562L595.875 177.09375Q595.875 178.21875 596.0469 179.10938Q596.2344 180.0 596.53125 180.67188Q596.8281 181.35938 597.1719 181.82812Q597.53125 182.3125 597.875 182.59375L597.65625 183.25Q597.2344 183.03125 596.7344 182.51562Q596.25 182.0 595.7969 181.21875Q595.3594 180.45312 595.0625 179.42188Q594.78125 178.375 594.78125 177.09375ZM602.2656 171.92188L602.2656 180.5L601.1875 180.5L601.1875 173.28125L599.0 174.07812L599.0 173.09375L602.1094 171.92188L602.2656 171.92188ZM609.2656 171.92188L609.2656 180.5L608.1875 180.5L608.1875 173.28125L606.0 174.07812L606.0 173.09375L609.1094 171.92188L609.2656 171.92188ZM615.3281 177.03125L615.3281 177.09375Q615.3281 178.375 615.03125 179.42188Q614.75 180.45312 614.2969 181.21875Q613.8594 182.0 613.3594 182.51562Q612.875 183.03125 612.4531 183.25L612.2344 182.59375Q612.5781 182.32812 612.9219 181.85938Q613.28125 181.39062 613.5781 180.70312Q613.875 180.01562 614.0469 179.125Q614.2344 178.21875 614.2344 177.09375L614.2344 177.01562Q614.2344 175.90625 614.0469 175.01562Q613.8594 174.10938 613.5469 173.42188Q613.2344 172.73438 612.8906 172.26562Q612.5469 171.79688 612.2344 171.53125L612.4531 170.875Q612.875 171.09375 613.3594 171.60938Q613.8594 172.125 614.2969 172.90625Q614.75 173.6875 615.03125 174.71875Q615.3281 175.75 615.3281 177.03125ZM619.0781 176.42188L619.0781 177.3125L616.21875 177.3125L616.21875 176.42188L619.0781 176.42188ZM623.8281 179.26562L623.8281 171.5L624.90625 171.5L624.90625 180.5L623.9219 180.5L623.8281 179.26562ZM619.5625 177.40625L619.5625 177.28125Q619.5625 176.54688 619.7344 175.95312Q619.9219 175.35938 620.25 174.9375Q620.5781 174.5 621.03125 174.28125Q621.5 174.04688 622.0625 174.04688Q622.65625 174.04688 623.1094 174.25Q623.5625 174.45312 623.875 174.85938Q624.1875 175.25 624.3594 175.8125Q624.5469 176.35938 624.625 177.0625L624.625 177.60938Q624.5625 178.29688 624.375 178.85938Q624.1875 179.42188 623.875 179.8125Q623.5625 180.20312 623.1094 180.42188Q622.65625 180.625 622.0469 180.625Q621.5 180.625 621.03125 180.39062Q620.5781 180.14062 620.25 179.70312Q619.9219 179.26562 619.7344 178.6875Q619.5625 178.09375 619.5625 177.40625ZM620.6406 177.28125L620.6406 177.40625Q620.6406 177.875 620.7344 178.29688Q620.84375 178.70312 621.0469 179.03125Q621.25 179.34375 621.5625 179.53125Q621.8906 179.70312 622.3281 179.70312Q622.8594 179.70312 623.2031 179.46875Q623.5625 179.23438 623.7656 178.85938Q623.9844 178.48438 624.09375 178.04688L624.09375 176.64062Q624.03125 176.3125 623.8906 176.01562Q623.7656 175.71875 623.5469 175.48438Q623.34375 175.23438 623.0469 175.09375Q622.75 174.95312 622.3281 174.95312Q621.8906 174.95312 621.5625 175.14062Q621.25 175.32812 621.0469 175.65625Q620.84375 175.96875 620.7344 176.39062Q620.6406 176.79688 620.6406 177.28125ZM628.0 174.15625L628.0 180.5L626.9219 180.5L626.9219 174.15625L628.0 174.15625ZM626.8281 172.48438Q626.8281 172.21875 626.9844 172.03125Q627.15625 171.84375 627.46875 171.84375Q627.78125 171.84375 627.9375 172.03125Q628.1094 172.21875 628.1094 172.48438Q628.1094 172.73438 627.9375 172.92188Q627.78125 173.09375 627.46875 173.09375Q627.15625 173.09375 626.9844 172.92188Q626.8281 172.73438 626.8281 172.48438ZM632.4531 180.625Q631.7969 180.625 631.25 180.40625Q630.71875 180.17188 630.3281 179.76562Q629.9531 179.34375 629.75 178.78125Q629.5469 178.21875 629.5469 177.54688L629.5469 177.3125Q629.5469 176.53125 629.7656 175.92188Q630.0 175.3125 630.3906 174.89062Q630.78125 174.46875 631.28125 174.26562Q631.78125 174.04688 632.3125 174.04688Q633.0 174.04688 633.4844 174.28125Q633.9844 174.51562 634.2969 174.9375Q634.625 175.34375 634.7656 175.92188Q634.9219 176.48438 634.9219 177.14062L634.9219 177.64062L630.1875 177.64062L630.1875 176.75L633.84375 176.75L633.84375 176.67188Q633.8125 176.25 633.65625 175.85938Q633.5156 175.45312 633.1875 175.20312Q632.875 174.9375 632.3125 174.9375Q631.9531 174.9375 631.6406 175.09375Q631.3281 175.25 631.09375 175.5625Q630.875 175.85938 630.75 176.29688Q630.6406 176.73438 630.6406 177.3125L630.6406 177.54688Q630.6406 178.0 630.7656 178.40625Q630.8906 178.79688 631.125 179.09375Q631.375 179.39062 631.71875 179.5625Q632.0781 179.73438 632.5156 179.73438Q633.09375 179.73438 633.4844 179.5Q633.8906 179.26562 634.1875 178.875L634.84375 179.39062Q634.6406 179.70312 634.3125 179.98438Q634.0 180.26562 633.53125 180.45312Q633.0781 180.625 632.4531 180.625ZM636.90625 175.51562L636.90625 180.5L635.8281 180.5L635.8281 174.15625L636.8594 174.15625L636.90625 175.51562ZM636.65625 177.09375L636.2031 177.07812Q636.2031 176.42188 636.3906 175.875Q636.5781 175.3125 636.9219 174.90625Q637.2656 174.5 637.7344 174.28125Q638.2031 174.04688 638.78125 174.04688Q639.25 174.04688 639.625 174.17188Q640.0 174.29688 640.2656 174.57812Q640.53125 174.84375 640.6719 175.28125Q640.8125 175.71875 640.8125 176.34375L640.8125 180.5L639.71875 180.5L639.71875 176.32812Q639.71875 175.82812 639.5781 175.53125Q639.4375 175.23438 639.15625 175.09375Q638.875 174.95312 638.4531 174.95312Q638.0469 174.95312 637.71875 175.125Q637.3906 175.29688 637.15625 175.59375Q636.9219 175.89062 636.78125 176.28125Q636.65625 176.65625 636.65625 177.09375ZM645.4531 180.625Q644.7969 180.625 644.25 180.40625Q643.71875 180.17188 643.3281 179.76562Q642.9531 179.34375 642.75 178.78125Q642.5469 178.21875 642.5469 177.54688L642.5469 177.3125Q642.5469 176.53125 642.7656 175.92188Q643.0 175.3125 643.3906 174.89062Q643.78125 174.46875 644.28125 174.26562Q644.78125 174.04688 645.3125 174.04688Q646.0 174.04688 646.4844 174.28125Q646.9844 174.51562 647.2969 174.9375Q647.625 175.34375 647.7656 175.92188Q647.9219 176.48438 647.9219 177.14062L647.9219 177.64062L643.1875 177.64062L643.1875 176.75L646.84375 176.75L646.84375 176.67188Q646.8125 176.25 646.65625 175.85938Q646.5156 175.45312 646.1875 175.20312Q645.875 174.9375 645.3125 174.9375Q644.9531 174.9375 644.6406 175.09375Q644.3281 175.25 644.09375 175.5625Q643.875 175.85938 643.75 176.29688Q643.6406 176.73438 643.6406 177.3125L643.6406 177.54688Q643.6406 178.0 643.7656 178.40625Q643.8906 178.79688 644.125 179.09375Q644.375 179.39062 644.71875 179.5625Q645.0781 179.73438 645.5156 179.73438Q646.09375 179.73438 646.4844 179.5Q646.8906 179.26562 647.1875 178.875L647.84375 179.39062Q647.6406 179.70312 647.3125 179.98438Q647.0 180.26562 646.53125 180.45312Q646.0781 180.625 645.4531 180.625Z" fill-rule="nonzero"/><path stroke="#cccccc" stroke-width="1.0" stroke-linecap="butt" d="M372.0 305.0L547.0 406.0" fill-rule="nonzero"/><path fill="#000000" d="M536.53125 436.34375Q536.53125 436.04688 536.4375 435.8125Q536.3594 435.57812 536.125 435.39062Q535.90625 435.20312 535.5 435.03125Q535.1094 434.85938 534.5156 434.6875Q533.875 434.5 533.3594 434.28125Q532.8594 434.04688 532.4844 433.75Q532.125 433.4375 531.9375 433.0625Q531.75 432.67188 531.75 432.17188Q531.75 431.67188 531.9531 431.25Q532.15625 430.82812 532.53125 430.51562Q532.9219 430.20312 533.4531 430.03125Q533.9844 429.84375 534.6406 429.84375Q535.6094 429.84375 536.28125 430.21875Q536.9531 430.57812 537.2969 431.17188Q537.65625 431.76562 537.65625 432.42188L536.53125 432.42188Q536.53125 431.95312 536.3125 431.57812Q536.1094 431.20312 535.6875 431.0Q535.28125 430.78125 534.6406 430.78125Q534.0469 430.78125 533.6406 430.96875Q533.25 431.14062 533.0625 431.45312Q532.875 431.76562 532.875 432.15625Q532.875 432.42188 532.9844 432.65625Q533.1094 432.875 533.34375 433.0625Q533.59375 433.25 533.96875 433.40625Q534.34375 433.5625 534.875 433.70312Q535.59375 433.90625 536.125 434.17188Q536.65625 434.42188 537.0 434.73438Q537.34375 435.04688 537.5 435.4375Q537.6719 435.82812 537.6719 436.32812Q537.6719 436.85938 537.4531 437.28125Q537.25 437.70312 536.8594 438.0Q536.46875 438.29688 535.9219 438.46875Q535.375 438.625 534.7031 438.625Q534.1094 438.625 533.53125 438.45312Q532.96875 438.28125 532.5 437.95312Q532.03125 437.625 531.75 437.15625Q531.46875 436.67188 531.46875 436.03125L532.59375 436.03125Q532.59375 436.46875 532.7656 436.78125Q532.9375 437.09375 533.2344 437.29688Q533.53125 437.5 533.90625 437.60938Q534.28125 437.70312 534.7031 437.70312Q535.2969 437.70312 535.7031 437.54688Q536.1094 437.375 536.3125 437.07812Q536.53125 436.76562 536.53125 436.34375ZM541.4531 438.625Q540.7969 438.625 540.25 438.40625Q539.71875 438.17188 539.3281 437.76562Q538.9531 437.34375 538.75 436.78125Q538.5469 436.21875 538.5469 435.54688L538.5469 435.3125Q538.5469 434.53125 538.7656 433.92188Q539.0 433.3125 539.3906 432.89062Q539.78125 432.46875 540.28125 432.26562Q540.78125 432.04688 541.3125 432.04688Q542.0 432.04688 542.4844 432.28125Q542.9844 432.51562 543.2969 432.9375Q543.625 433.34375 543.7656 433.92188Q543.9219 434.48438 543.9219 435.14062L543.9219 435.64062L539.1875 435.64062L539.1875 434.75L542.84375 434.75L542.84375 434.67188Q542.8125 434.25 542.65625 433.85938Q542.5156 433.45312 542.1875 433.20312Q541.875 432.9375 541.3125 432.9375Q540.9531 432.9375 540.6406 433.09375Q540.3281 433.25 540.09375 433.5625Q539.875 433.85938 539.75 434.29688Q539.6406 434.73438 539.6406 435.3125L539.6406 435.54688Q539.6406 436.0 539.7656 436.40625Q539.8906 436.79688 540.125 437.09375Q540.375 437.39062 540.71875 437.5625Q541.0781 437.73438 541.5156 437.73438Q542.09375 437.73438 542.4844 437.5Q542.8906 437.26562 543.1875 436.875L543.84375 437.39062Q543.6406 437.70312 543.3125 437.98438Q543.0 438.26562 542.53125 438.45312Q542.0781 438.625 541.4531 438.625ZM546.0 429.5L546.0 438.5L544.9219 438.5L544.9219 429.5L546.0 429.5ZM549.0 432.15625L549.0 438.5L547.9219 438.5L547.9219 432.15625L549.0 432.15625ZM547.8281 430.48438Q547.8281 430.21875 547.9844 430.03125Q548.15625 429.84375 548.46875 429.84375Q548.78125 429.84375 548.9375 430.03125Q549.1094 430.21875 549.1094 430.48438Q549.1094 430.73438 548.9375 430.92188Q548.78125 431.09375 548.46875 431.09375Q548.15625 431.09375 547.9844 430.92188Q547.8281 430.73438 547.8281 430.48438ZM551.90625 433.51562L551.90625 438.5L550.8281 438.5L550.8281 432.15625L551.8594 432.15625L551.90625 433.51562ZM551.65625 435.09375L551.2031 435.07812Q551.2031 434.42188 551.3906 433.875Q551.5781 433.3125 551.9219 432.90625Q552.2656 432.5 552.7344 432.28125Q553.2031 432.04688 553.78125 432.04688Q554.25 432.04688 554.625 432.17188Q555.0 432.29688 555.2656 432.57812Q555.53125 432.84375 555.6719 433.28125Q555.8125 433.71875 555.8125 434.34375L555.8125 438.5L554.71875 438.5L554.71875 434.32812Q554.71875 433.82812 554.5781 433.53125Q554.4375 433.23438 554.15625 433.09375Q553.875 432.95312 553.4531 432.95312Q553.0469 432.95312 552.71875 433.125Q552.3906 433.29688 552.15625 433.59375Q551.9219 433.89062 551.78125 434.28125Q551.65625 434.65625 551.65625 435.09375ZM561.5625 437.42188L561.5625 434.15625Q561.5625 433.78125 561.40625 433.5Q561.2656 433.21875 560.96875 433.07812Q560.6719 432.92188 560.2344 432.92188Q559.8125 432.92188 559.5 433.0625Q559.2031 433.20312 559.03125 433.4375Q558.8594 433.65625 558.8594 433.92188L557.78125 433.92188Q557.78125 433.57812 557.9531 433.25Q558.125 432.90625 558.4531 432.64062Q558.78125 432.35938 559.25 432.20312Q559.71875 432.04688 560.2969 432.04688Q560.9844 432.04688 561.5156 432.28125Q562.0469 432.51562 562.34375 432.98438Q562.65625 433.45312 562.65625 434.15625L562.65625 437.10938Q562.65625 437.4375 562.7031 437.79688Q562.7656 438.14062 562.875 438.40625L562.875 438.5L561.7344 438.5Q561.65625 438.3125 561.6094 438.0Q561.5625 437.6875 561.5625 437.42188ZM561.75 434.65625L561.7656 435.42188L560.6719 435.42188Q560.2031 435.42188 559.84375 435.5Q559.4844 435.5625 559.2344 435.71875Q558.9844 435.85938 558.8594 436.07812Q558.7344 436.29688 558.7344 436.59375Q558.7344 436.89062 558.8594 437.14062Q559.0 437.375 559.2656 437.53125Q559.5469 437.67188 559.9375 437.67188Q560.4375 437.67188 560.8125 437.46875Q561.2031 437.25 561.4219 436.95312Q561.65625 436.64062 561.6719 436.34375L562.1406 436.875Q562.09375 437.10938 561.90625 437.42188Q561.7344 437.71875 561.4219 438.0Q561.125 438.26562 560.7031 438.45312Q560.2969 438.625 559.78125 438.625Q559.1406 438.625 558.65625 438.375Q558.1719 438.10938 557.90625 437.6875Q557.6406 437.26562 557.6406 436.73438Q557.6406 436.21875 557.8281 435.84375Q558.03125 435.45312 558.40625 435.1875Q558.78125 434.92188 559.3125 434.79688Q559.84375 434.65625 560.5 434.65625L561.75 434.65625ZM567.0781 434.42188L567.0781 435.3125L564.21875 435.3125L564.21875 434.42188L567.0781 434.42188ZM573.46875 435.625L573.46875 436.51562L567.3125 436.51562L567.3125 435.875L571.125 429.96875L572.0156 429.96875L571.0625 431.67188L568.5469 435.625L573.46875 435.625ZM572.28125 429.96875L572.28125 438.5L571.2031 438.5L571.2031 429.96875L572.28125 429.96875ZM574.78125 435.09375L574.78125 435.03125Q574.78125 433.75 575.0625 432.71875Q575.3594 431.6875 575.7969 430.90625Q576.25 430.125 576.7344 429.60938Q577.2344 429.09375 577.65625 428.875L577.875 429.59375Q577.53125 429.84375 577.1719 430.3125Q576.8281 430.78125 576.53125 431.45312Q576.2344 432.125 576.0469 433.01562Q575.875 433.90625 575.875 435.01562L575.875 435.09375Q575.875 436.21875 576.0469 437.10938Q576.2344 438.0 576.53125 438.67188Q576.8281 439.35938 577.1719 439.82812Q577.53125 440.3125 577.875 440.59375L577.65625 441.25Q577.2344 441.03125 576.7344 440.51562Q576.25 440.0 575.7969 439.21875Q575.3594 438.45312 575.0625 437.42188Q574.78125 436.375 574.78125 435.09375ZM582.2656 429.92188L582.2656 438.5L581.1875 438.5L581.1875 431.28125L579.0 432.07812L579.0 431.09375L582.1094 429.92188L582.2656 429.92188ZM587.0781 434.4375L586.21875 434.21875L586.6406 429.96875L591.0156 429.96875L591.0156 430.96875L587.5625 430.96875L587.2969 433.29688Q587.53125 433.15625 587.8906 433.04688Q588.2656 432.92188 588.7344 432.92188Q589.3125 432.92188 589.78125 433.125Q590.25 433.32812 590.5781 433.70312Q590.9219 434.07812 591.09375 434.60938Q591.2656 435.125 591.2656 435.78125Q591.2656 436.39062 591.09375 436.90625Q590.9375 437.42188 590.59375 437.8125Q590.2656 438.1875 589.75 438.40625Q589.25 438.625 588.5625 438.625Q588.0469 438.625 587.59375 438.48438Q587.1406 438.32812 586.7656 438.03125Q586.40625 437.73438 586.1875 437.29688Q585.96875 436.85938 585.90625 436.25L586.9375 436.25Q587.0 436.73438 587.2031 437.0625Q587.4219 437.39062 587.7656 437.5625Q588.1094 437.71875 588.5625 437.71875Q588.9531 437.71875 589.25 437.59375Q589.5469 437.45312 589.75 437.20312Q589.96875 436.95312 590.0781 436.59375Q590.1875 436.23438 590.1875 435.79688Q590.1875 435.39062 590.0625 435.04688Q589.9531 434.70312 589.7344 434.45312Q589.5156 434.1875 589.2031 434.04688Q588.8906 433.89062 588.46875 433.89062Q587.9375 433.89062 587.65625 434.04688Q587.375 434.1875 587.0781 434.4375ZM595.3281 435.03125L595.3281 435.09375Q595.3281 436.375 595.03125 437.42188Q594.75 438.45312 594.2969 439.21875Q593.8594 440.0 593.3594 440.51562Q592.875 441.03125 592.4531 441.25L592.2344 440.59375Q592.5781 440.32812 592.9219 439.85938Q593.28125 439.39062 593.5781 438.70312Q593.875 438.01562 594.0469 437.125Q594.2344 436.21875 594.2344 435.09375L594.2344 435.01562Q594.2344 433.90625 594.0469 433.01562Q593.8594 432.10938 593.5469 431.42188Q593.2344 430.73438 592.8906 430.26562Q592.5469 429.79688 592.2344 429.53125L592.4531 428.875Q592.875 429.09375 593.3594 429.60938Q593.8594 430.125 594.2969 430.90625Q594.75 431.6875 595.03125 432.71875Q595.3281 433.75 595.3281 435.03125ZM597.8125 437.20312L597.8125 438.07812Q597.8125 438.625 597.53125 439.21875Q597.2656 439.8125 596.78125 440.20312L596.1719 439.78125Q596.3594 439.51562 596.4844 439.25Q596.6094 438.98438 596.6719 438.70312Q596.75 438.42188 596.75 438.09375L596.75 437.20312L597.8125 437.20312ZM604.21875 429.96875L604.21875 430.57812L600.6875 438.5L599.5469 438.5L603.0781 430.85938L598.4531 430.85938L598.4531 429.96875L604.21875 429.96875ZM605.78125 435.09375L605.78125 435.03125Q605.78125 433.75 606.0625 432.71875Q606.3594 431.6875 606.7969 430.90625Q607.25 430.125 607.7344 429.60938Q608.2344 429.09375 608.65625 428.875L608.875 429.59375Q608.53125 429.84375 608.1719 430.3125Q607.8281 430.78125 607.53125 431.45312Q607.2344 432.125 607.0469 433.01562Q606.875 433.90625 606.875 435.01562L606.875 435.09375Q606.875 436.21875 607.0469 437.10938Q607.2344 438.0 607.53125 438.67188Q607.8281 439.35938 608.1719 439.82812Q608.53125 440.3125 608.875 440.59375L608.65625 441.25Q608.2344 441.03125 607.7344 440.51562Q607.25 440.0 606.7969 439.21875Q606.3594 438.45312 606.0625 437.42188Q605.78125 436.375 605.78125 435.09375ZM613.2656 429.92188L613.2656 438.5L612.1875 438.5L612.1875 431.28125L610.0 432.07812L610.0 431.09375L613.1094 429.92188L613.2656 429.92188ZM620.2656 429.92188L620.2656 438.5L619.1875 438.5L619.1875 431.28125L617.0 432.07812L617.0 431.09375L620.1094 429.92188L620.2656 429.92188ZM626.3281 435.03125L626.3281 435.09375Q626.3281 436.375 626.03125 437.42188Q625.75 438.45312 625.2969 439.21875Q624.8594 440.0 624.3594 440.51562Q623.875 441.03125 623.4531 441.25L623.2344 440.59375Q623.5781 440.32812 623.9219 439.85938Q624.28125 439.39062 624.5781 438.70312Q624.875 438.01562 625.0469 437.125Q625.2344 436.21875 625.2344 435.09375L625.2344 435.01562Q625.2344 433.90625 625.0469 433.01562Q624.8594 432.10938 624.5469 431.42188Q624.2344 430.73438 623.8906 430.26562Q623.5469 429.79688 623.2344 429.53125L623.4531 428.875Q623.875 429.09375 624.3594 429.60938Q624.8594 430.125 625.2969 430.90625Q625.75 431.6875 626.03125 432.71875Q626.3281 433.75 626.3281 435.03125ZM630.0781 434.42188L630.0781 435.3125L627.21875 435.3125L627.21875 434.42188L630.0781 434.42188ZM634.8281 437.26562L634.8281 429.5L635.90625 429.5L635.90625 438.5L634.9219 438.5L634.8281 437.26562ZM630.5625 435.40625L630.5625 435.28125Q630.5625 434.54688 630.7344 433.95312Q630.9219 433.35938 631.25 432.9375Q631.5781 432.5 632.03125 432.28125Q632.5 432.04688 633.0625 432.04688Q633.65625 432.04688 634.1094 432.25Q634.5625 432.45312 634.875 432.85938Q635.1875 433.25 635.3594 433.8125Q635.5469 434.35938 635.625 435.0625L635.625 435.60938Q635.5625 436.29688 635.375 436.85938Q635.1875 437.42188 634.875 437.8125Q634.5625 438.20312 634.1094 438.42188Q633.65625 438.625 633.0469 438.625Q632.5 438.625 632.03125 438.39062Q631.5781 438.14062 631.25 437.70312Q630.9219 437.26562 630.7344 436.6875Q630.5625 436.09375 630.5625 435.40625ZM631.6406 435.28125L631.6406 435.40625Q631.6406 435.875 631.7344 436.29688Q631.84375 436.70312 632.0469 437.03125Q632.25 437.34375 632.5625 437.53125Q632.8906 437.70312 633.3281 437.70312Q633.8594 437.70312 634.2031 437.46875Q634.5625 437.23438 634.7656 436.85938Q634.9844 436.48438 635.09375 436.04688L635.09375 434.64062Q635.03125 434.3125 634.8906 434.01562Q634.7656 433.71875 634.5469 433.48438Q634.34375 433.23438 634.0469 433.09375Q633.75 432.95312 633.3281 432.95312Q632.8906 432.95312 632.5625 433.14062Q632.25 433.32812 632.0469 433.65625Q631.84375 433.96875 631.7344 434.39062Q631.6406 434.79688 631.6406 435.28125ZM639.0 432.15625L639.0 438.5L637.9219 438.5L637.9219 432.15625L639.0 432.15625ZM637.8281 430.48438Q637.8281 430.21875 637.9844 430.03125Q638.15625 429.84375 638.46875 429.84375Q638.78125 429.84375 638.9375 430.03125Q639.1094 430.21875 639.1094 430.48438Q639.1094 430.73438 638.9375 430.92188Q638.78125 431.09375 638.46875 431.09375Q638.15625 431.09375 637.9844 430.92188Q637.8281 430.73438 637.8281 430.48438ZM643.4531 438.625Q642.7969 438.625 642.25 438.40625Q641.71875 438.17188 641.3281 437.76562Q640.9531 437.34375 640.75 436.78125Q640.5469 436.21875 640.5469 435.54688L640.5469 435.3125Q640.5469 434.53125 640.7656 433.92188Q641.0 433.3125 641.3906 432.89062Q641.78125 432.46875 642.28125 432.26562Q642.78125 432.04688 643.3125 432.04688Q644.0 432.04688 644.4844 432.28125Q644.9844 432.51562 645.2969 432.9375Q645.625 433.34375 645.7656 433.92188Q645.9219 434.48438 645.9219 435.14062L645.9219 435.64062L641.1875 435.64062L641.1875 434.75L644.84375 434.75L644.84375 434.67188Q644.8125 434.25 644.65625 433.85938Q644.5156 433.45312 644.1875 433.20312Q643.875 432.9375 643.3125 432.9375Q642.9531 432.9375 642.6406 433.09375Q642.3281 433.25 642.09375 433.5625Q641.875 433.85938 641.75 434.29688Q641.6406 434.73438 641.6406 435.3125L641.6406 435.54688Q641.6406 436.0 641.7656 436.40625Q641.8906 436.79688 642.125 437.09375Q642.375 437.39062 642.71875 437.5625Q643.0781 437.73438 643.5156 437.73438Q644.09375 437.73438 644.4844 437.5Q644.8906 437.26562 645.1875 436.875L645.84375 437.39062Q645.6406 437.70312 645.3125 437.98438Q645.0 438.26562 644.53125 438.45312Q644.0781 438.625 643.4531 438.625ZM647.90625 433.51562L647.90625 438.5L646.8281 438.5L646.8281 432.15625L647.8594 432.15625L647.90625 433.51562ZM647.65625 435.09375L647.2031 435.07812Q647.2031 434.42188 647.3906 433.875Q647.5781 433.3125 647.9219 432.90625Q648.2656 432.5 648.7344 432.28125Q649.2031 432.04688 649.78125 432.04688Q650.25 432.04688 650.625 432.17188Q651.0 432.29688 651.2656 432.57812Q651.53125 432.84375 651.6719 433.28125Q651.8125 433.71875 651.8125 434.34375L651.8125 438.5L650.71875 438.5L650.71875 434.32812Q650.71875 433.82812 650.5781 433.53125Q650.4375 433.23438 650.15625 433.09375Q649.875 432.95312 649.4531 432.95312Q649.0469 432.95312 648.71875 433.125Q648.3906 433.29688 648.15625 433.59375Q647.9219 433.89062 647.78125 434.28125Q647.65625 434.65625 647.65625 435.09375ZM656.4531 438.625Q655.7969 438.625 655.25 438.40625Q654.71875 438.17188 654.3281 437.76562Q653.9531 437.34375 653.75 436.78125Q653.5469 436.21875 653.5469 435.54688L653.5469 435.3125Q653.5469 434.53125 653.7656 433.92188Q654.0 433.3125 654.3906 432.89062Q654.78125 432.46875 655.28125 432.26562Q655.78125 432.04688 656.3125 432.04688Q657.0 432.04688 657.4844 432.28125Q657.9844 432.51562 658.2969 432.9375Q658.625 433.34375 658.7656 433.92188Q658.9219 434.48438 658.9219 435.14062L658.9219 435.64062L654.1875 435.64062L654.1875 434.75L657.84375 434.75L657.84375 434.67188Q657.8125 434.25 657.65625 433.85938Q657.5156 433.45312 657.1875 433.20312Q656.875 432.9375 656.3125 432.9375Q655.9531 432.9375 655.6406 433.09375Q655.3281 433.25 655.09375 433.5625Q654.875 433.85938 654.75 434.29688Q654.6406 434.73438 654.6406 435.3125L654.6406 435.54688Q654.6406 436.0 654.7656 436.40625Q654.8906 436.79688 655.125 437.09375Q655.375 437.39062 655.71875 437.5625Q656.0781 437.73438 656.5156 437.73438Q657.09375 437.73438 657.4844 437.5Q657.8906 437.26562 658.1875 436.875L658.84375 437.39062Q658.6406 437.70312 658.3125 437.98438Q658.0 438.26562 657.53125 438.45312Q657.0781 438.625 656.4531 438.625Z" fill-rule="nonzero"/><path stroke="#cccccc" stroke-width="1.0" stroke-linecap="butt" d="M372.0 305.0L372.0 507.0" fill-rule="nonzero"/><path stroke="#cccccc" stroke-width="1.0" stroke-linecap="butt" d="M372.0 305.0L197.0 406.0" fill-rule="nonzero"/><path fill="#000000" d="M131.67188 437.57812L131.67188 438.5L127.40625 438.5L127.40625 437.57812L131.67188 437.57812ZM127.625 429.96875L127.625 438.5L126.484375 438.5L126.484375 429.96875L127.625 429.96875ZM133.5 432.15625L133.5 438.5L132.42188 438.5L132.42188 432.15625L133.5 432.15625ZM132.32812 430.48438Q132.32812 430.21875 132.48438 430.03125Q132.65625 429.84375 132.96875 429.84375Q133.28125 429.84375 133.4375 430.03125Q133.60938 430.21875 133.60938 430.48438Q133.60938 430.73438 133.4375 430.92188Q133.28125 431.09375 132.96875 431.09375Q132.65625 431.09375 132.48438 430.92188Q132.32812 430.73438 132.32812 430.48438ZM136.40625 433.42188L136.40625 438.5L135.3125 438.5L135.3125 432.15625L136.34375 432.15625L136.40625 433.42188ZM136.1875 435.09375L135.67188 435.07812Q135.6875 434.42188 135.84375 433.875Q136.01562 433.3125 136.32812 432.90625Q136.65625 432.5 137.14062 432.28125Q137.625 432.04688 138.25 432.04688Q138.70312 432.04688 139.07812 432.17188Q139.45312 432.29688 139.71875 432.5625Q140.0 432.82812 140.14062 433.25Q140.29688 433.67188 140.29688 434.28125L140.29688 438.5L139.21875 438.5L139.21875 434.32812Q139.21875 433.82812 139.04688 433.53125Q138.89062 433.23438 138.57812 433.09375Q138.28125 432.95312 137.85938 432.95312Q137.39062 432.95312 137.0625 433.125Q136.73438 433.29688 136.54688 433.59375Q136.35938 433.89062 136.26562 434.28125Q136.1875 434.65625 136.1875 435.09375ZM140.29688 434.48438L139.5625 434.71875Q139.5625 434.1875 139.73438 433.71875Q139.90625 433.23438 140.21875 432.85938Q140.54688 432.48438 141.01562 432.26562Q141.48438 432.04688 142.07812 432.04688Q142.59375 432.04688 142.98438 432.1875Q143.39062 432.3125 143.65625 432.59375Q143.92188 432.875 144.0625 433.3125Q144.20312 433.73438 144.20312 434.32812L144.20312 438.5L143.125 438.5L143.125 434.32812Q143.125 433.78125 142.95312 433.5Q142.78125 433.20312 142.48438 433.07812Q142.1875 432.95312 141.76562 432.95312Q141.40625 432.95312 141.125 433.07812Q140.85938 433.20312 140.67188 433.42188Q140.48438 433.625 140.39062 433.90625Q140.29688 434.1875 140.29688 434.48438ZM146.04688 435.40625L146.04688 435.26562Q146.04688 434.57812 146.23438 434.0Q146.4375 433.40625 146.8125 432.96875Q147.1875 432.53125 147.71875 432.29688Q148.25 432.04688 148.92188 432.04688Q149.57812 432.04688 150.10938 432.29688Q150.65625 432.53125 151.03125 432.96875Q151.40625 433.40625 151.60938 434.0Q151.8125 434.57812 151.8125 435.26562L151.8125 435.40625Q151.8125 436.07812 151.60938 436.67188Q151.40625 437.25 151.03125 437.6875Q150.65625 438.125 150.125 438.375Q149.59375 438.625 148.92188 438.625Q148.26562 438.625 147.71875 438.375Q147.1875 438.125 146.8125 437.6875Q146.4375 437.25 146.23438 436.67188Q146.04688 436.07812 146.04688 435.40625ZM147.125 435.26562L147.125 435.40625Q147.125 435.875 147.23438 436.29688Q147.34375 436.71875 147.5625 437.04688Q147.79688 437.35938 148.14062 437.54688Q148.48438 437.71875 148.92188 437.71875Q149.375 437.71875 149.70312 437.54688Q150.04688 437.35938 150.26562 437.04688Q150.5 436.71875 150.60938 436.29688Q150.71875 435.875 150.71875 435.40625L150.71875 435.26562Q150.71875 434.79688 150.60938 434.375Q150.5 433.95312 150.26562 433.64062Q150.04688 433.3125 149.70312 433.125Q149.375 432.9375 148.92188 432.9375Q148.46875 432.9375 148.125 433.125Q147.79688 433.3125 147.5625 433.64062Q147.34375 433.95312 147.23438 434.375Q147.125 434.79688 147.125 435.26562ZM154.40625 433.51562L154.40625 438.5L153.32812 438.5L153.32812 432.15625L154.35938 432.15625L154.40625 433.51562ZM154.15625 435.09375L153.70312 435.07812Q153.70312 434.42188 153.89062 433.875Q154.07812 433.3125 154.42188 432.90625Q154.76562 432.5 155.23438 432.28125Q155.70312 432.04688 156.28125 432.04688Q156.75 432.04688 157.125 432.17188Q157.5 432.29688 157.76562 432.57812Q158.03125 432.84375 158.17188 433.28125Q158.3125 433.71875 158.3125 434.34375L158.3125 438.5L157.21875 438.5L157.21875 434.32812Q157.21875 433.82812 157.07812 433.53125Q156.9375 433.23438 156.65625 433.09375Q156.375 432.95312 155.95312 432.95312Q155.54688 432.95312 155.21875 433.125Q154.89062 433.29688 154.65625 433.59375Q154.42188 433.89062 154.28125 434.28125Q154.15625 434.65625 154.15625 435.09375ZM162.95312 438.625Q162.29688 438.625 161.75 438.40625Q161.21875 438.17188 160.82812 437.76562Q160.45312 437.34375 160.25 436.78125Q160.04688 436.21875 160.04688 435.54688L160.04688 435.3125Q160.04688 434.53125 160.26562 433.92188Q160.5 433.3125 160.89062 432.89062Q161.28125 432.46875 161.78125 432.26562Q162.28125 432.04688 162.8125 432.04688Q163.5 432.04688 163.98438 432.28125Q164.48438 432.51562 164.79688 432.9375Q165.125 433.34375 165.26562 433.92188Q165.42188 434.48438 165.42188 435.14062L165.42188 435.64062L160.6875 435.64062L160.6875 434.75L164.34375 434.75L164.34375 434.67188Q164.3125 434.25 164.15625 433.85938Q164.01562 433.45312 163.6875 433.20312Q163.375 432.9375 162.8125 432.9375Q162.45312 432.9375 162.14062 433.09375Q161.82812 433.25 161.59375 433.5625Q161.375 433.85938 161.25 434.29688Q161.14062 434.73438 161.14062 435.3125L161.14062 435.54688Q161.14062 436.0 161.26562 436.40625Q161.39062 436.79688 161.625 437.09375Q161.875 437.39062 162.21875 437.5625Q162.57812 437.73438 163.01562 437.73438Q163.59375 437.73438 163.98438 437.5Q164.39062 437.26562 164.6875 436.875L165.34375 437.39062Q165.14062 437.70312 164.8125 437.98438Q164.5 438.26562 164.03125 438.45312Q163.57812 438.625 162.95312 438.625ZM167.40625 433.51562L167.40625 438.5L166.32812 438.5L166.32812 432.15625L167.35938 432.15625L167.40625 433.51562ZM167.15625 435.09375L166.70312 435.07812Q166.70312 434.42188 166.89062 433.875Q167.07812 433.3125 167.42188 432.90625Q167.76562 432.5 168.23438 432.28125Q168.70312 432.04688 169.28125 432.04688Q169.75 432.04688 170.125 432.17188Q170.5 432.29688 170.76562 432.57812Q171.03125 432.84375 171.17188 433.28125Q171.3125 433.71875 171.3125 434.34375L171.3125 438.5L170.21875 438.5L170.21875 434.32812Q170.21875 433.82812 170.07812 433.53125Q169.9375 433.23438 169.65625 433.09375Q169.375 432.95312 168.95312 432.95312Q168.54688 432.95312 168.21875 433.125Q167.89062 433.29688 167.65625 433.59375Q167.42188 433.89062 167.28125 434.28125Q167.15625 434.65625 167.15625 435.09375Z" fill-rule="nonzero"/><path stroke="#cccccc" stroke-width="1.0" stroke-linecap="butt" d="M372.0 305.0L197.0 204.0" fill-rule="nonzero"/><path fill="#000000" d="M131.03125 178.34375Q131.03125 178.04688 130.9375 177.8125Q130.85938 177.57812 130.625 177.39062Q130.40625 177.20312 130.0 177.03125Q129.60938 176.85938 129.01562 176.6875Q128.375 176.5 127.859375 176.28125Q127.359375 176.04688 126.984375 175.75Q126.625 175.4375 126.4375 175.0625Q126.25 174.67188 126.25 174.17188Q126.25 173.67188 126.453125 173.25Q126.65625 172.82812 127.03125 172.51562Q127.421875 172.20312 127.953125 172.03125Q128.48438 171.84375 129.14062 171.84375Q130.10938 171.84375 130.78125 172.21875Q131.45312 172.57812 131.79688 173.17188Q132.15625 173.76562 132.15625 174.42188L131.03125 174.42188Q131.03125 173.95312 130.8125 173.57812Q130.60938 173.20312 130.1875 173.0Q129.78125 172.78125 129.14062 172.78125Q128.54688 172.78125 128.14062 172.96875Q127.75 173.14062 127.5625 173.45312Q127.375 173.76562 127.375 174.15625Q127.375 174.42188 127.484375 174.65625Q127.609375 174.875 127.84375 175.0625Q128.09375 175.25 128.46875 175.40625Q128.84375 175.5625 129.375 175.70312Q130.09375 175.90625 130.625 176.17188Q131.15625 176.42188 131.5 176.73438Q131.84375 177.04688 132.0 177.4375Q132.17188 177.82812 132.17188 178.32812Q132.17188 178.85938 131.95312 179.28125Q131.75 179.70312 131.35938 180.0Q130.96875 180.29688 130.42188 180.46875Q129.875 180.625 129.20312 180.625Q128.60938 180.625 128.03125 180.45312Q127.46875 180.28125 127.0 179.95312Q126.53125 179.625 126.25 179.15625Q125.96875 178.67188 125.96875 178.03125L127.09375 178.03125Q127.09375 178.46875 127.265625 178.78125Q127.4375 179.09375 127.734375 179.29688Q128.03125 179.5 128.40625 179.60938Q128.78125 179.70312 129.20312 179.70312Q129.79688 179.70312 130.20312 179.54688Q130.60938 179.375 130.8125 179.07812Q131.03125 178.76562 131.03125 178.34375ZM133.04688 177.40625L133.04688 177.26562Q133.04688 176.57812 133.23438 176.0Q133.4375 175.40625 133.8125 174.96875Q134.1875 174.53125 134.71875 174.29688Q135.25 174.04688 135.92188 174.04688Q136.57812 174.04688 137.10938 174.29688Q137.65625 174.53125 138.03125 174.96875Q138.40625 175.40625 138.60938 176.0Q138.8125 176.57812 138.8125 177.26562L138.8125 177.40625Q138.8125 178.07812 138.60938 178.67188Q138.40625 179.25 138.03125 179.6875Q137.65625 180.125 137.125 180.375Q136.59375 180.625 135.92188 180.625Q135.26562 180.625 134.71875 180.375Q134.1875 180.125 133.8125 179.6875Q133.4375 179.25 133.23438 178.67188Q133.04688 178.07812 133.04688 177.40625ZM134.125 177.26562L134.125 177.40625Q134.125 177.875 134.23438 178.29688Q134.34375 178.71875 134.5625 179.04688Q134.79688 179.35938 135.14062 179.54688Q135.48438 179.71875 135.92188 179.71875Q136.375 179.71875 136.70312 179.54688Q137.04688 179.35938 137.26562 179.04688Q137.5 178.71875 137.60938 178.29688Q137.71875 177.875 137.71875 177.40625L137.71875 177.26562Q137.71875 176.79688 137.60938 176.375Q137.5 175.95312 137.26562 175.64062Q137.04688 175.3125 136.70312 175.125Q136.375 174.9375 135.92188 174.9375Q135.46875 174.9375 135.125 175.125Q134.79688 175.3125 134.5625 175.64062Q134.34375 175.95312 134.23438 176.375Q134.125 176.79688 134.125 177.26562ZM141.40625 175.51562L141.40625 180.5L140.32812 180.5L140.32812 174.15625L141.35938 174.15625L141.40625 175.51562ZM141.15625 177.09375L140.70312 177.07812Q140.70312 176.42188 140.89062 175.875Q141.07812 175.3125 141.42188 174.90625Q141.76562 174.5 142.23438 174.28125Q142.70312 174.04688 143.28125 174.04688Q143.75 174.04688 144.125 174.17188Q144.5 174.29688 144.76562 174.57812Q145.03125 174.84375 145.17188 175.28125Q145.3125 175.71875 145.3125 176.34375L145.3125 180.5L144.21875 180.5L144.21875 176.32812Q144.21875 175.82812 144.07812 175.53125Q143.9375 175.23438 143.65625 175.09375Q143.375 174.95312 142.95312 174.95312Q142.54688 174.95312 142.21875 175.125Q141.89062 175.29688 141.65625 175.59375Q141.42188 175.89062 141.28125 176.28125Q141.15625 176.65625 141.15625 177.09375ZM151.01562 178.8125Q151.01562 178.57812 150.90625 178.375Q150.8125 178.17188 150.5 178.01562Q150.1875 177.84375 149.5625 177.71875Q149.03125 177.60938 148.60938 177.46875Q148.1875 177.3125 147.89062 177.09375Q147.59375 176.875 147.4375 176.57812Q147.28125 176.28125 147.28125 175.89062Q147.28125 175.51562 147.4375 175.1875Q147.60938 174.84375 147.90625 174.59375Q148.21875 174.32812 148.65625 174.1875Q149.09375 174.04688 149.625 174.04688Q150.39062 174.04688 150.92188 174.3125Q151.46875 174.57812 151.75 175.03125Q152.03125 175.48438 152.03125 176.01562L150.95312 176.01562Q150.95312 175.76562 150.79688 175.51562Q150.64062 175.26562 150.34375 175.10938Q150.04688 174.9375 149.625 174.9375Q149.17188 174.9375 148.89062 175.07812Q148.60938 175.20312 148.48438 175.42188Q148.35938 175.625 148.35938 175.85938Q148.35938 176.04688 148.42188 176.1875Q148.48438 176.3125 148.64062 176.4375Q148.79688 176.54688 149.07812 176.65625Q149.375 176.75 149.82812 176.84375Q150.60938 177.01562 151.10938 177.26562Q151.60938 177.51562 151.85938 177.875Q152.10938 178.21875 152.10938 178.73438Q152.10938 179.15625 151.92188 179.5Q151.75 179.84375 151.42188 180.09375Q151.10938 180.34375 150.65625 180.48438Q150.20312 180.625 149.65625 180.625Q148.8125 180.625 148.23438 180.32812Q147.65625 180.01562 147.35938 179.54688Q147.0625 179.0625 147.0625 178.54688L148.14062 178.54688Q148.17188 178.98438 148.40625 179.25Q148.64062 179.51562 148.96875 179.625Q149.3125 179.71875 149.65625 179.71875Q150.09375 179.71875 150.39062 179.60938Q150.70312 179.48438 150.85938 179.28125Q151.01562 179.07812 151.01562 178.8125ZM155.98438 174.15625L155.98438 174.98438L152.54688 174.98438L152.54688 174.15625L155.98438 174.15625ZM153.71875 172.625L154.79688 172.625L154.79688 178.92188Q154.79688 179.25 154.89062 179.42188Q155.0 179.57812 155.15625 179.64062Q155.3125 179.6875 155.5 179.6875Q155.625 179.6875 155.76562 179.65625Q155.92188 179.625 156.0 179.60938L156.01562 180.5Q155.875 180.54688 155.67188 180.57812Q155.46875 180.625 155.17188 180.625Q154.78125 180.625 154.4375 180.46875Q154.10938 180.29688 153.90625 179.9375Q153.71875 179.5625 153.71875 178.92188L153.71875 172.625ZM158.5 174.15625L158.5 180.5L157.42188 180.5L157.42188 174.15625L158.5 174.15625ZM157.32812 172.48438Q157.32812 172.21875 157.48438 172.03125Q157.65625 171.84375 157.96875 171.84375Q158.28125 171.84375 158.4375 172.03125Q158.60938 172.21875 158.60938 172.48438Q158.60938 172.73438 158.4375 172.92188Q158.28125 173.09375 157.96875 173.09375Q157.65625 173.09375 157.48438 172.92188Q157.32812 172.73438 157.32812 172.48438ZM164.4375 174.15625L165.42188 174.15625L165.42188 180.35938Q165.42188 181.20312 165.07812 181.79688Q164.73438 182.39062 164.125 182.6875Q163.53125 183.0 162.73438 183.0Q162.40625 183.0 161.95312 182.89062Q161.51562 182.79688 161.09375 182.54688Q160.67188 182.3125 160.39062 181.90625L160.95312 181.25Q161.35938 181.73438 161.78125 181.92188Q162.21875 182.10938 162.65625 182.10938Q163.17188 182.10938 163.54688 181.90625Q163.92188 181.71875 164.125 181.34375Q164.32812 180.96875 164.32812 180.42188L164.32812 175.54688L164.4375 174.15625ZM160.0625 177.40625L160.0625 177.28125Q160.0625 176.54688 160.23438 175.95312Q160.42188 175.35938 160.73438 174.9375Q161.0625 174.5 161.51562 174.28125Q161.98438 174.04688 162.57812 174.04688Q163.17188 174.04688 163.60938 174.25Q164.0625 174.45312 164.375 174.85938Q164.6875 175.25 164.875 175.8125Q165.0625 176.35938 165.125 177.0625L165.125 177.60938Q165.0625 178.29688 164.875 178.85938Q164.6875 179.42188 164.375 179.8125Q164.0625 180.20312 163.60938 180.42188Q163.15625 180.625 162.5625 180.625Q161.98438 180.625 161.53125 180.39062Q161.07812 180.14062 160.75 179.70312Q160.42188 179.26562 160.23438 178.6875Q160.0625 178.09375 160.0625 177.40625ZM161.15625 177.28125L161.15625 177.40625Q161.15625 177.875 161.25 178.29688Q161.34375 178.70312 161.54688 179.03125Q161.75 179.34375 162.0625 179.53125Q162.39062 179.70312 162.82812 179.70312Q163.35938 179.70312 163.70312 179.46875Q164.0625 179.23438 164.26562 178.85938Q164.48438 178.48438 164.59375 178.04688L164.59375 176.64062Q164.53125 176.3125 164.39062 176.01562Q164.26562 175.71875 164.0625 175.48438Q163.85938 175.23438 163.54688 175.09375Q163.25 174.95312 162.82812 174.95312Q162.39062 174.95312 162.0625 175.14062Q161.75 175.32812 161.54688 175.65625Q161.34375 175.96875 161.25 176.39062Q161.15625 176.79688 161.15625 177.28125ZM169.95312 180.625Q169.29688 180.625 168.75 180.40625Q168.21875 180.17188 167.82812 179.76562Q167.45312 179.34375 167.25 178.78125Q167.04688 178.21875 167.04688 177.54688L167.04688 177.3125Q167.04688 176.53125 167.26562 175.92188Q167.5 175.3125 167.89062 174.89062Q168.28125 174.46875 168.78125 174.26562Q169.28125 174.04688 169.8125 174.04688Q170.5 174.04688 170.98438 174.28125Q171.48438 174.51562 171.79688 174.9375Q172.125 175.34375 172.26562 175.92188Q172.42188 176.48438 172.42188 177.14062L172.42188 177.64062L167.6875 177.64062L167.6875 176.75L171.34375 176.75L171.34375 176.67188Q171.3125 176.25 171.15625 175.85938Q171.01562 175.45312 170.6875 175.20312Q170.375 174.9375 169.8125 174.9375Q169.45312 174.9375 169.14062 175.09375Q168.82812 175.25 168.59375 175.5625Q168.375 175.85938 168.25 176.29688Q168.14062 176.73438 168.14062 177.3125L168.14062 177.54688Q168.14062 178.0 168.26562 178.40625Q168.39062 178.79688 168.625 179.09375Q168.875 179.39062 169.21875 179.5625Q169.57812 179.73438 170.01562 179.73438Q170.59375 179.73438 170.98438 179.5Q171.39062 179.26562 171.6875 178.875L172.34375 179.39062Q172.14062 179.70312 171.8125 179.98438Q171.5 180.26562 171.03125 180.45312Q170.57812 180.625 169.95312 180.625Z" fill-rule="nonzero"/><path stroke="#cccccc" stroke-width="1.0" stroke-linecap="butt" d="M372.0 305.0L372.0 103.0" fill-rule="nonzero"/><path stroke="#ff0000" stroke-width="2.0" stroke-linecap="butt" stroke-opacity="0.7019608" stroke-dasharray="8.0,6.0,2.0,6.0" d="M372.0 239.0L420.0 277.0L420.0 333.0L372.0 350.0L333.0 328.0L167.0 187.0Z" fill-rule="nonzero"/><path fill="#ff0000" fill-opacity="0.7019608" d="M368.81802 235.81802L372.0 237.875L375.18198 235.81802L373.125 239.0L375.18198 242.18198L372.0 240.125L368.81802 242.18198L370.875 239.0Z" fill-rule="nonzero"/><path fill="#ff0000" fill-opacity="0.7019608" d="M416.81802 273.81802L420.0 275.875L423.18198 273.81802L421.125 277.0L423.18198 280.18198L420.0 278.125L416.81802 280.18198L418.875 277.0Z" fill-rule="nonzero"/><path fill="#ff0000" fill-opacity="0.7019608" d="M416.81802 329.81802L420.0 331.875L423.18198 329.81802L421.125 333.0L423.18198 336.18198L420.0 334.125L416.81802 336.18198L418.875 333.0Z" fill-rule="nonzero"/><path fill="#ff0000" fill-opacity="0.7019608" d="M368.81802 346.81802L372.0 348.875L375.18198 346.81802L373.125 350.0L375.18198 353.18198L372.0 351.125L368.81802 353.18198L370.875 350.0Z" fill-rule="nonzero"/><path fill="#ff0000" fill-opacity="0.7019608" d="M329.81802 324.81802L333.0 326.875L336.18198 324.81802L334.125 328.0L336.18198 331.18198L333.0 329.125L329.81802 331.18198L331.875 328.0Z" fill-rule="nonzero"/><path fill="#ff0000" fill-opacity="0.7019608" d="M163.81802 183.81802L167.0 185.875L170.18198 183.81802L168.125 187.0L170.18198 190.18198L167.0 188.125L163.81802 190.18198L165.875 187.0Z" fill-rule="nonzero"/><path fill="#757575" d="M36.6 41.740623L36.6 40.053123L42.6625 40.0375L42.6625 45.35Q41.25625 46.475 39.771873 47.0375Q38.2875 47.6 36.725 47.6Q34.615623 47.6 32.896873 46.69375Q31.178125 45.7875 30.2875 44.084373Q29.4125 42.365623 29.4125 40.25625Q29.4125 38.1625 30.2875 36.365623Q31.1625 34.553123 32.803123 33.678123Q34.44375 32.7875 36.584373 32.7875Q38.13125 32.7875 39.38125 33.2875Q40.646873 33.7875 41.35 34.69375Q42.06875 35.584373 42.44375 37.0375L40.740623 37.50625Q40.4125 36.4125 39.928123 35.7875Q39.459373 35.1625 38.56875 34.7875Q37.678123 34.4125 36.6 34.4125Q35.2875 34.4125 34.334373 34.803123Q33.396873 35.19375 32.81875 35.85Q32.240623 36.490623 31.9125 37.25625Q31.365625 38.584373 31.365625 40.146873Q31.365625 42.053123 32.021873 43.35Q32.69375 44.63125 33.94375 45.25625Q35.209373 45.88125 36.615623 45.88125Q37.85 45.88125 39.021873 45.4125Q40.19375 44.94375 40.803123 44.396873L40.803123 41.740623L36.6 41.740623ZM45.646873 47.35L45.646873 36.975L47.225 36.975L47.225 38.553123Q47.834373 37.44375 48.35 37.1Q48.865623 36.740623 49.475 36.740623Q50.365623 36.740623 51.2875 37.303123L50.678123 38.94375Q50.0375 38.553123 49.396873 38.553123Q48.81875 38.553123 48.35 38.9125Q47.896873 39.25625 47.69375 39.865623Q47.4125 40.803123 47.4125 41.9125L47.4125 47.35L45.646873 47.35ZM59.44375 46.06875Q58.459373 46.896873 57.553123 47.240623Q56.646873 47.584373 55.615623 47.584373Q53.9125 47.584373 52.990623 46.75625Q52.06875 45.9125 52.06875 44.615623Q52.06875 43.85 52.4125 43.225Q52.771873 42.6 53.334373 42.225Q53.896873 41.834373 54.6 41.63125Q55.115623 41.50625 56.1625 41.365623Q58.2875 41.115623 59.2875 40.771873Q59.303123 40.4125 59.303123 40.303123Q59.303123 39.240623 58.803123 38.7875Q58.13125 38.19375 56.803123 38.19375Q55.553123 38.19375 54.959373 38.63125Q54.38125 39.06875 54.1 40.178123L52.38125 39.94375Q52.615623 38.834373 53.146873 38.1625Q53.678123 37.475 54.69375 37.115623Q55.709373 36.740623 57.053123 36.740623Q58.38125 36.740623 59.209373 37.053123Q60.0375 37.365623 60.428123 37.85Q60.81875 38.31875 60.975 39.0375Q61.06875 39.490623 61.06875 40.6625L61.06875 43.00625Q61.06875 45.459373 61.178123 46.115623Q61.2875 46.75625 61.63125 47.35L59.7875 47.35Q59.521873 46.803123 59.44375 46.06875ZM59.2875 42.146873Q58.334373 42.5375 56.4125 42.803123Q55.334373 42.959373 54.88125 43.1625Q54.44375 43.35 54.19375 43.725Q53.94375 44.1 53.94375 44.56875Q53.94375 45.271873 54.475 45.740623Q55.00625 46.209373 56.0375 46.209373Q57.053123 46.209373 57.834373 45.771873Q58.63125 45.31875 59.00625 44.553123Q59.2875 43.94375 59.2875 42.7875L59.2875 42.146873ZM63.6625 51.31875L63.6625 36.975L65.27187 36.975L65.27187 38.31875Q65.83437 37.5375 66.5375 37.146873Q67.25625 36.740623 68.27187 36.740623Q69.6 36.740623 70.61562 37.428123Q71.63125 38.115623 72.14687 39.365623Q72.67812 40.6 72.67812 42.084373Q72.67812 43.678123 72.1 44.959373Q71.5375 46.225 70.44375 46.9125Q69.35 47.584373 68.14687 47.584373Q67.27187 47.584373 66.56875 47.209373Q65.88125 46.834373 65.42812 46.271873L65.42812 51.31875L63.6625 51.31875ZM65.25625 42.225Q65.25625 44.225 66.06875 45.178123Q66.88125 46.13125 68.0375 46.13125Q69.20937 46.13125 70.0375 45.146873Q70.88125 44.1625 70.88125 42.06875Q70.88125 40.1 70.05312 39.115623Q69.24062 38.115623 68.11562 38.115623Q66.99062 38.115623 66.11562 39.178123Q65.25625 40.225 65.25625 42.225ZM81.77187 44.00625L83.58437 44.240623Q83.1625 45.81875 81.99062 46.709373Q80.83437 47.584373 79.02187 47.584373Q76.75625 47.584373 75.4125 46.19375Q74.08437 44.7875 74.08437 42.25625Q74.08437 39.63125 75.42812 38.19375Q76.77187 36.740623 78.92812 36.740623Q81.00625 36.740623 82.31875 38.1625Q83.64687 39.56875 83.64687 42.146873Q83.64687 42.303123 83.63125 42.615623L75.89687 42.615623Q75.99062 44.31875 76.86562 45.225Q77.74062 46.13125 79.0375 46.13125Q80.00625 46.13125 80.67812 45.63125Q81.36562 45.115623 81.77187 44.00625ZM75.99062 41.1625L81.7875 41.1625Q81.67812 39.865623 81.13125 39.209373Q80.2875 38.19375 78.94375 38.19375Q77.74062 38.19375 76.9125 39.00625Q76.08437 39.803123 75.99062 41.1625ZM91.99062 47.35L91.99062 33.0375L101.64687 33.0375L101.64687 34.725L93.88125 34.725L93.88125 39.1625L100.6 39.1625L100.6 40.85L93.88125 40.85L93.88125 47.35L91.99062 47.35ZM110.44375 46.06875Q109.45937 46.896873 108.55312 47.240623Q107.64687 47.584373 106.61562 47.584373Q104.9125 47.584373 103.99062 46.75625Q103.06875 45.9125 103.06875 44.615623Q103.06875 43.85 103.4125 43.225Q103.77187 42.6 104.33437 42.225Q104.89687 41.834373 105.6 41.63125Q106.11562 41.50625 107.1625 41.365623Q109.2875 41.115623 110.2875 40.771873Q110.30312 40.4125 110.30312 40.303123Q110.30312 39.240623 109.80312 38.7875Q109.13125 38.19375 107.80312 38.19375Q106.55312 38.19375 105.95937 38.63125Q105.38125 39.06875 105.1 40.178123L103.38125 39.94375Q103.61562 38.834373 104.14687 38.1625Q104.67812 37.475 105.69375 37.115623Q106.70937 36.740623 108.05312 36.740623Q109.38125 36.740623 110.20937 37.053123Q111.0375 37.365623 111.42812 37.85Q111.81875 38.31875 111.975 39.0375Q112.06875 39.490623 112.06875 40.6625L112.06875 43.00625Q112.06875 45.459373 112.17812 46.115623Q112.2875 46.75625 112.63125 47.35L110.7875 47.35Q110.52187 46.803123 110.44375 46.06875ZM110.2875 42.146873Q109.33437 42.5375 107.4125 42.803123Q106.33437 42.959373 105.88125 43.1625Q105.44375 43.35 105.19375 43.725Q104.94375 44.1 104.94375 44.56875Q104.94375 45.271873 105.475 45.740623Q106.00625 46.209373 107.0375 46.209373Q108.05312 46.209373 108.83437 45.771873Q109.63125 45.31875 110.00625 44.553123Q110.2875 43.94375 110.2875 42.7875L110.2875 42.146873ZM121.44375 43.553123L123.1625 43.771873Q122.88125 45.56875 121.70937 46.584373Q120.55312 47.584373 118.85 47.584373Q116.725 47.584373 115.42812 46.19375Q114.13125 44.803123 114.13125 42.209373Q114.13125 40.521873 114.67812 39.271873Q115.24062 38.00625 116.38125 37.38125Q117.52187 36.740623 118.86562 36.740623Q120.55312 36.740623 121.61562 37.6Q122.69375 38.459373 123.00625 40.021873L121.2875 40.2875Q121.05312 39.240623 120.42812 38.725Q119.80312 38.19375 118.92812 38.19375Q117.6 38.19375 116.77187 39.146873Q115.94375 40.1 115.94375 42.146873Q115.94375 44.240623 116.74062 45.19375Q117.5375 46.13125 118.83437 46.13125Q119.86562 46.13125 120.55312 45.50625Q121.25625 44.865623 121.44375 43.553123ZM131.77188 44.00625L133.58438 44.240623Q133.1625 45.81875 131.99063 46.709373Q130.83438 47.584373 129.02188 47.584373Q126.75625 47.584373 125.4125 46.19375Q124.08437 44.7875 124.08437 42.25625Q124.08437 39.63125 125.42812 38.19375Q126.77187 36.740623 128.92813 36.740623Q131.00626 36.740623 132.31876 38.1625Q133.64688 39.56875 133.64688 42.146873Q133.64688 42.303123 133.63126 42.615623L125.89687 42.615623Q125.99062 44.31875 126.86562 45.225Q127.74062 46.13125 129.0375 46.13125Q130.00626 46.13125 130.67813 45.63125Q131.36563 45.115623 131.77188 44.00625ZM125.99062 41.1625L131.7875 41.1625Q131.67813 39.865623 131.13126 39.209373Q130.2875 38.19375 128.94376 38.19375Q127.74062 38.19375 126.9125 39.00625Q126.08437 39.803123 125.99062 41.1625Z" fill-rule="nonzero"/></svg>