<svg version="1.1" viewBox="0.0 0.0 744.0 567.0" fill="none" stroke="none" stroke-linecap="square" stroke-miterlimit="10" width="744" height="567" xmlns:xlink="http://www.w3.org/1999/xlink" xmlns="http://www.w3.org/2000/svg"><path fill="#ffffff" d="M0 0L744.0 0L744.0 567.0L0 567.0L0 0Z" fill-rule="nonzero"/><path fill="#ffffff" d="M28.35 71.25L715.64996 71.25L715.64996 538.65L28.35 538.65L28.35 71.25Z" fill-rule="nonzero"/><path stroke="#cccccc" stroke-width="1.0" stroke-linecap="butt" d="M372.0 305.0C372.0 305.0 372.0 305.0 372.0 305.0C372.0 305.0 372.0 305.0 372.0 305.0C372.0 305.0 372.0 305.0 372.0 305.0C372.0 305.0 372.0 305.0 372.0 305.0" fill-rule="nonzero"/><path fill="#000000" d="M353.0625 297.04688L353.0625 298.35938Q353.0625 299.40625 352.875 300.125Q352.6875 300.84375 352.32812 301.28125Q351.98438 301.71875 351.48438 301.92188Q351.0 302.125 350.375 302.125Q349.89062 302.125 349.46875 302.0Q349.04688 301.875 348.71875 301.60938Q348.39062 301.32812 348.15625 300.89062Q347.92188 300.45312 347.79688 299.82812Q347.67188 299.1875 347.67188 298.35938L347.67188 297.04688Q347.67188 296.0 347.85938 295.29688Q348.0625 294.59375 348.40625 294.15625Q348.76562 293.71875 349.25 293.53125Q349.75 293.34375 350.35938 293.34375Q350.85938 293.34375 351.28125 293.46875Q351.70312 293.59375 352.03125 293.85938Q352.35938 294.10938 352.57812 294.54688Q352.8125 294.96875 352.9375 295.59375Q353.0625 296.21875 353.0625 297.04688ZM351.96875 298.53125L351.96875 296.875Q351.96875 296.29688 351.90625 295.85938Q351.84375 295.42188 351.70312 295.10938Q351.57812 294.79688 351.375 294.60938Q351.1875 294.42188 350.9375 294.32812Q350.6875 294.23438 350.35938 294.23438Q349.98438 294.23438 349.67188 294.375Q349.375 294.51562 349.17188 294.82812Q348.96875 295.14062 348.85938 295.65625Q348.76562 296.15625 348.76562 296.875L348.76562 298.53125Q348.76562 299.10938 348.82812 299.54688Q348.90625 299.98438 349.03125 300.3125Q349.17188 300.625 349.35938 300.82812Q349.5625 301.03125 349.8125 301.125Q350.0625 301.21875 350.375 301.21875Q350.78125 301.21875 351.07812 301.07812Q351.375 300.92188 351.57812 300.59375Q351.78125 300.26562 351.875 299.76562Q351.96875 299.25 351.96875 298.53125ZM355.8125 300.70312L355.8125 301.57812Q355.8125 302.125 355.53125 302.71875Q355.26562 303.3125 354.78125 303.70312L354.17188 303.28125Q354.35938 303.01562 354.48438 302.75Q354.60938 302.48438 354.67188 302.20312Q354.75 301.92188 354.75 301.59375L354.75 300.70312L355.8125 300.70312ZM362.0625 297.04688L362.0625 298.35938Q362.0625 299.40625 361.875 300.125Q361.6875 300.84375 361.32812 301.28125Q360.98438 301.71875 360.48438 301.92188Q360.0 302.125 359.375 302.125Q358.89062 302.125 358.46875 302.0Q358.04688 301.875 357.71875 301.60938Q357.39062 301.32812 357.15625 300.89062Q356.92188 300.45312 356.79688 299.82812Q356.67188 299.1875 356.67188 298.35938L356.67188 297.04688Q356.67188 296.0 356.85938 295.29688Q357.0625 294.59375 357.40625 294.15625Q357.76562 293.71875 358.25 293.53125Q358.75 293.34375 359.35938 293.34375Q359.85938 293.34375 360.28125 293.46875Q360.70312 293.59375 361.03125 293.85938Q361.35938 294.10938 361.57812 294.54688Q361.8125 294.96875 361.9375 295.59375Q362.0625 296.21875 362.0625 297.04688ZM360.96875 298.53125L360.96875 296.875Q360.96875 296.29688 360.90625 295.85938Q360.84375 295.42188 360.70312 295.10938Q360.57812 294.79688 360.375 294.60938Q360.1875 294.42188 359.9375 294.32812Q359.6875 294.23438 359.35938 294.23438Q358.98438 294.23438 358.67188 294.375Q358.375 294.51562 358.17188 294.82812Q357.96875 295.14062 357.85938 295.65625Q357.76562 296.15625 357.76562 296.875L357.76562 298.53125Q357.76562 299.10938 357.82812 299.54688Q357.90625 299.98438 358.03125 300.3125Q358.17188 300.625 358.35938 300.82812Q358.5625 301.03125 358.8125 301.125Q359.0625 301.21875 359.375 301.21875Q359.78125 301.21875 360.07812 301.07812Q360.375 300.92188 360.57812 300.59375Q360.78125 300.26562 360.875 299.76562Q360.96875 299.25 360.96875 298.53125ZM369.0625 297.04688L369.0625 298.35938Q369.0625 299.40625 368.875 300.125Q368.6875 300.84375 368.32812 301.28125Q367.98438 301.71875 367.48438 301.92188Q367.0 302.125 366.375 302.125Q365.89062 302.125 365.46875 302.0Q365.04688 301.875 364.71875 301.60938Q364.39062 301.32812 364.15625 300.89062Q363.92188 300.45312 363.79688 299.82812Q363.67188 299.1875 363.67188 298.35938L363.67188 297.04688Q363.67188 296.0 363.85938 295.29688Q364.0625 294.59375 364.40625 294.15625Q364.76562 293.71875 365.25 293.53125Q365.75 293.34375 366.35938 293.34375Q366.85938 293.34375 367.28125 293.46875Q367.70312 293.59375 368.03125 293.85938Q368.35938 294.10938 368.57812 294.54688Q368.8125 294.96875 368.9375 295.59375Q369.0625 296.21875 369.0625 297.04688ZM367.96875 298.53125L367.96875 296.875Q367.96875 296.29688 367.90625 295.85938Q367.84375 295.42188 367.70312 295.10938Q367.57812 294.79688 367.375 294.60938Q367.1875 294.42188 366.9375 294.32812Q366.6875 294.23438 366.35938 294.23438Q365.98438 294.23438 365.67188 294.375Q365.375 294.51562 365.17188 294.82812Q364.96875 295.14062 364.85938 295.65625Q364.76562 296.15625 364.76562 296.875L364.76562 298.53125Q364.76562 299.10938 364.82812 299.54688Q364.90625 299.98438 365.03125 300.3125Q365.17188 300.625 365.35938 300.82812Q365.5625 301.03125 365.8125 301.125Q366.0625 301.21875 366.375 301.21875Q366.78125 301.21875 367.07812 301.07812Q367.375 300.92188 367.57812 300.59375Q367.78125 300.26562 367.875 299.76562Q367.96875 299.25 367.96875 298.53125Z" fill-rule="nonzero"/><path stroke="#cccccc" stroke-width="1.0" stroke-linecap="butt" d="M422.425 305.0C422.425 277.15103 399.84897 254.575 372.0 254.575C344.15103 254.575 321.575 277.15103 321.575 305.0C321.575 332.84897 344.15103 355.425 372.0 355.425C399.84897 355.425 422.425 332.84897 422.425 305.0" fill-rule="nonzero"/><path fill="#000000" d="M353.0625 246.62187L353.0625 247.93437Q353.0625 248.98125 352.875 249.7Q352.6875 250.41875 352.32812 250.85625Q351.98438 251.29375 351.48438 251.49687Q351.0 251.7 350.375 251.7Q349.89062 251.7 349.46875 251.575Q349.04688 251.45 348.71875 251.18437Q348.39062 250.90312 348.15625 250.46562Q347.92188 250.02812 347.79688 249.40312Q347.67188 248.7625 347.67188 247.93437L347.67188 246.62187Q347.67188 245.575 347.85938 244.87187Q348.0625 244.16875 348.40625 243.73125Q348.76562 243.29375 349.25 243.10625Q349.75 242.91875 350.35938 242.91875Q350.85938 242.91875 351.28125 243.04375Q351.70312 243.16875 352.03125 243.43437Q352.35938 243.68437 352.57812 244.12187Q352.8125 244.54375 352.9375 245.16875Q353.0625 245.79375 353.0625 246.62187ZM351.96875 248.10625L351.96875 246.45Q351.96875 245.87187 351.90625 245.43437Q351.84375 244.99687 351.70312 244.68437Q351.57812 244.37187 351.375 244.18437Q351.1875 243.99687 350.9375 243.90312Q350.6875 243.80937 350.35938 243.80937Q349.98438 243.80937 349.67188 243.95Q349.375 244.09062 349.17188 244.40312Q348.96875 244.71562 348.85938 245.23125Q348.76562 245.73125 348.76562 246.45L348.76562 248.10625Q348.76562 248.68437 348.82812 249.12187Q348.90625 249.55937 349.03125 249.8875Q349.17188 250.2 349.35938 250.40312Q349.5625 250.60625 349.8125 250.7Q350.0625 250.79375 350.375 250.79375Q350.78125 250.79375 351.07812 250.65312Q351.375 250.49687 351.57812 250.16875Q351.78125 249.84062 351.875 249.34062Q351.96875 248.825 351.96875 248.10625ZM355.8125 250.27812L355.8125 251.15312Q355.8125 251.7 355.53125 252.29375Q355.26562 252.8875 354.78125 253.27812L354.17188 252.85625Q354.35938 252.59062 354.48438 252.325Q354.60938 252.05937 354.67188 251.77812Q354.75 251.49687 354.75 251.16875L354.75 250.27812L355.8125 250.27812ZM362.0625 246.62187L362.0625 247.93437Q362.0625 248.98125 361.875 249.7Q361.6875 250.41875 361.32812 250.85625Q360.98438 251.29375 360.48438 251.49687Q360.0 251.7 359.375 251.7Q358.89062 251.7 358.46875 251.575Q358.04688 251.45 357.71875 251.18437Q357.39062 250.90312 357.15625 250.46562Q356.92188 250.02812 356.79688 249.40312Q356.67188 248.7625 356.67188 247.93437L356.67188 246.62187Q356.67188 245.575 356.85938 244.87187Q357.0625 244.16875 357.40625 243.73125Q357.76562 243.29375 358.25 243.10625Q358.75 242.91875 359.35938 242.91875Q359.85938 242.91875 360.28125 243.04375Q360.70312 243.16875 361.03125 243.43437Q361.35938 243.68437 361.57812 244.12187Q361.8125 244.54375 361.9375 245.16875Q362.0625 245.79375 362.0625 246.62187ZM360.96875 248.10625L360.96875 246.45Q360.96875 245.87187 360.90625 245.43437Q360.84375 244.99687 360.70312 244.68437Q360.57812 244.37187 360.375 244.18437Q360.1875 243.99687 359.9375 243.90312Q359.6875 243.80937 359.35938 243.80937Q358.98438 243.80937 358.67188 243.95Q358.375 244.09062 358.17188 244.40312Q357.96875 244.71562 357.85938 245.23125Q357.76562 245.73125 357.76562 246.45L357.76562 248.10625Q357.76562 248.68437 357.82812 249.12187Q357.90625 249.55937 358.03125 249.8875Q358.17188 250.2 358.35938 250.40312Q358.5625 250.60625 358.8125 250.7Q359.0625 250.79375 359.375 250.79375Q359.78125 250.79375 360.07812 250.65312Q360.375 250.49687 360.57812 250.16875Q360.78125 249.84062 360.875 249.34062Q360.96875 248.825 360.96875 248.10625ZM365.07812 247.5125L364.21875 247.29375L364.64062 243.04375L369.01562 243.04375L369.01562 244.04375L365.5625 244.04375L365.29688 246.37187Q365.53125 246.23125 365.89062 246.12187Q366.26562 245.99687 366.73438 245.99687Q367.3125 245.99687 367.78125 246.2Q368.25 246.40312 368.57812 246.77812Q368.92188 247.15312 369.09375 247.68437Q369.26562 248.2 369.26562 248.85625Q369.26562 249.46562 369.09375 249.98125Q368.9375 250.49687 368.59375 250.8875Q368.26562 251.2625 367.75 251.48125Q367.25 251.7 366.5625 251.7Q366.04688 251.7 365.59375 251.55937Q365.14062 251.40312 364.76562 251.10625Q364.40625 250.80937 364.1875 250.37187Q363.96875 249.93437 363.90625 249.325L364.9375 249.325Q365.0 249.80937 365.20312 250.1375Q365.42188 250.46562 365.76562 250.6375Q366.10938 250.79375 366.5625 250.79375Q366.95312 250.79375 367.25 250.66875Q367.54688 250.52812 367.75 250.27812Q367.96875 250.02812 368.07812 249.66875Q368.1875 249.30937 368.1875 248.87187Q368.1875 248.46562 368.0625 248.12187Q367.95312 247.77812 367.73438 247.52812Q367.51562 247.2625 367.20312 247.12187Q366.89062 246.96562 366.46875 246.96562Q365.9375 246.96562 365.65625 247.12187Q365.375 247.2625 365.07812 247.5125Z" fill-rule="nonzero"/><path stroke="#cccccc" stroke-width="1.0" stroke-linecap="butt" d="M472.85 305.0C472.85 249.30208 427.6979 204.15 372.0 204.15C316.3021 204.15 271.15 249.30208 271.15 305.0C271.15 360.6979 316.3021 405.85 372.0 405.85C427.6979 405.85 472.85 360.6979 472.85 305.0" fill-rule="nonzero"/><path fill="#000000" d="M353.0625 196.19687L353.0625 197.50937Q353.0625 198.55624 352.875 199.275Q352.6875 199.99374 352.32812 200.43124Q351.98438 200.86874 351.48438 201.07187Q351.0 201.275 350.375 201.275Q349.89062 201.275 349.46875 201.15Q349.04688 201.025 348.71875 200.75937Q348.39062 200.47812 348.15625 200.04062Q347.92188 199.60312 347.79688 198.97812Q347.67188 198.3375 347.67188 197.50937L347.67188 196.19687Q347.67188 195.15 347.85938 194.44687Q348.0625 193.74374 348.40625 193.30624Q348.76562 192.86874 349.25 192.68124Q349.75 192.49374 350.35938 192.49374Q350.85938 192.49374 351.28125 192.61874Q351.70312 192.74374 352.03125 193.00937Q352.35938 193.25937 352.57812 193.69687Q352.8125 194.11874 352.9375 194.74374Q353.0625 195.36874 353.0625 196.19687ZM351.96875 197.68124L351.96875 196.025Q351.96875 195.44687 351.90625 195.00937Q351.84375 194.57187 351.70312 194.25937Q351.57812 193.94687 351.375 193.75937Q351.1875 193.57187 350.9375 193.47812Q350.6875 193.38437 350.35938 193.38437Q349.98438 193.38437 349.67188 193.525Q349.375 193.66562 349.17188 193.97812Q348.96875 194.29062 348.85938 194.80624Q348.76562 195.30624 348.76562 196.025L348.76562 197.68124Q348.76562 198.25937 348.82812 198.69687Q348.90625 199.13437 349.03125 199.4625Q349.17188 199.775 349.35938 199.97812Q349.5625 200.18124 349.8125 200.275Q350.0625 200.36874 350.375 200.36874Q350.78125 200.36874 351.07812 200.22812Q351.375 200.07187 351.57812 199.74374Q351.78125 199.41562 351.875 198.91562Q351.96875 198.4 351.96875 197.68124ZM355.8125 199.85312L355.8125 200.72812Q355.8125 201.275 355.53125 201.86874Q355.26562 202.4625 354.78125 202.85312L354.17188 202.43124Q354.35938 202.16562 354.48438 201.9Q354.60938 201.63437 354.67188 201.35312Q354.75 201.07187 354.75 200.74374L354.75 199.85312L355.8125 199.85312ZM360.26562 192.57187L360.26562 201.15L359.1875 201.15L359.1875 193.93124L357.0 194.72812L357.0 193.74374L360.10938 192.57187L360.26562 192.57187ZM369.0625 196.19687L369.0625 197.50937Q369.0625 198.55624 368.875 199.275Q368.6875 199.99374 368.32812 200.43124Q367.98438 200.86874 367.48438 201.07187Q367.0 201.275 366.375 201.275Q365.89062 201.275 365.46875 201.15Q365.04688 201.025 364.71875 200.75937Q364.39062 200.47812 364.15625 200.04062Q363.92188 199.60312 363.79688 198.97812Q363.67188 198.3375 363.67188 197.50937L363.67188 196.19687Q363.67188 195.15 363.85938 194.44687Q364.0625 193.74374 364.40625 193.30624Q364.76562 192.86874 365.25 192.68124Q365.75 192.49374 366.35938 192.49374Q366.85938 192.49374 367.28125 192.61874Q367.70312 192.74374 368.03125 193.00937Q368.35938 193.25937 368.57812 193.69687Q368.8125 194.11874 368.9375 194.74374Q369.0625 195.36874 369.0625 196.19687ZM367.96875 197.68124L367.96875 196.025Q367.96875 195.44687 367.90625 195.00937Q367.84375 194.57187 367.70312 194.25937Q367.57812 193.94687 367.375 193.75937Q367.1875 193.57187 366.9375 193.47812Q366.6875 193.38437 366.35938 193.38437Q365.98438 193.38437 365.67188 193.525Q365.375 193.66562 365.17188 193.97812Q364.96875 194.29062 364.85938 194.80624Q364.76562 195.30624 364.76562 196.025L364.76562 197.68124Q364.76562 198.25937 364.82812 198.69687Q364.90625 199.13437 365.03125 199.4625Q365.17188 199.775 365.35938 199.97812Q365.5625 200.18124 365.8125 200.275Q366.0625 200.36874 366.375 200.36874Q366.78125 200.36874 367.07812 200.22812Q367.375 200.07187 367.57812 199.74374Q367.78125 199.41562 367.875 198.91562Q367.96875 198.4 367.96875 197.68124Z" fill-rule="nonzero"/><path stroke="#cccccc" stroke-width="1.0" stroke-linecap="butt" d="M523.275 305.0C523.275 221.45312 455.54688 153.725 372.0 153.725C288.45312 153.725 220.725 221.45312 220.725 305.0C220.725 388.54688 288.45312 456.275 372.0 456.275C455.54688 456.275 523.275 388.54688 523.275 305.0" fill-rule="nonzero"/><path fill="#000000" d="M353.0625 145.77188L353.0625 147.08438Q353.0625 148.13126 352.875 148.85Q352.6875 149.56876 352.32812 150.00626Q351.98438 150.44376 351.48438 150.64688Q351.0 150.85 350.375 150.85Q349.89062 150.85 349.46875 150.725Q349.04688 150.6 348.71875 150.33438Q348.39062 150.05313 348.15625 149.61563Q347.92188 149.17813 347.79688 148.55313Q347.67188 147.9125 347.67188 147.08438L347.67188 145.77188Q347.67188 144.725 347.85938 144.02188Q348.0625 143.31876 348.40625 142.88126Q348.76562 142.44376 349.25 142.25626Q349.75 142.06876 350.35938 142.06876Q350.85938 142.06876 351.28125 142.19376Q351.70312 142.31876 352.03125 142.58438Q352.35938 142.83438 352.57812 143.27188Q352.8125 143.69376 352.9375 144.31876Q353.0625 144.94376 353.0625 145.77188ZM351.96875 147.25626L351.96875 145.6Q351.96875 145.02188 351.90625 144.58438Q351.84375 144.14688 351.70312 143.83438Q351.57812 143.52188 351.375 143.33438Q351.1875 143.14688 350.9375 143.05313Q350.6875 142.95938 350.35938 142.95938Q349.98438 142.95938 349.67188 143.1Q349.375 143.24063 349.17188 143.55313Q348.96875 143.86563 348.85938 144.38126Q348.76562 144.88126 348.76562 145.6L348.76562 147.25626Q348.76562 147.83438 348.82812 148.27188Q348.90625 148.70938 349.03125 149.0375Q349.17188 149.35 349.35938 149.55313Q349.5625 149.75626 349.8125 149.85Q350.0625 149.94376 350.375 149.94376Q350.78125 149.94376 351.07812 149.80313Q351.375 149.64688 351.57812 149.31876Q351.78125 148.99063 351.875 148.49063Q351.96875 147.975 351.96875 147.25626ZM355.8125 149.42813L355.8125 150.30313Q355.8125 150.85 355.53125 151.44376Q355.26562 152.0375 354.78125 152.42813L354.17188 152.00626Q354.35938 151.74063 354.48438 151.475Q354.60938 151.20938 354.67188 150.92813Q354.75 150.64688 354.75 150.31876L354.75 149.42813L355.8125 149.42813ZM360.26562 142.14688L360.26562 150.725L359.1875 150.725L359.1875 143.50626L357.0 144.30313L357.0 143.31876L360.10938 142.14688L360.26562 142.14688ZM365.07812 146.6625L364.21875 146.44376L364.64062 142.19376L369.01562 142.19376L369.01562 143.19376L365.5625 143.19376L365.29688 145.52188Q365.53125 145.38126 365.89062 145.27188Q366.26562 145.14688 366.73438 145.14688Q367.3125 145.14688 367.78125 145.35Q368.25 145.55313 368.57812 145.92813Q368.92188 146.30313 369.09375 146.83438Q369.26562 147.35 369.26562 148.00626Q369.26562 148.61563 369.09375 149.13126Q368.9375 149.64688 368.59375 150.0375Q368.26562 150.4125 367.75 150.63126Q367.25 150.85 366.5625 150.85Q366.04688 150.85 365.59375 150.70938Q365.14062 150.55313 364.76562 150.25626Q364.40625 149.95938 364.1875 149.52188Q363.96875 149.08438 363.90625 148.475L364.9375 148.475Q365.0 148.95938 365.20312 149.2875Q365.42188 149.61563 365.76562 149.7875Q366.10938 149.94376 366.5625 149.94376Q366.95312 149.94376 367.25 149.81876Q367.54688 149.67813 367.75 149.42813Q367.96875 149.17813 368.07812 148.81876Q368.1875 148.45938 368.1875 148.02188Q368.1875 147.61563 368.0625 147.27188Q367.95312 146.92813 367.73438 146.67813Q367.51562 146.4125 367.20312 146.27188Q366.89062 146.11563 366.46875 146.11563Q365.9375 146.11563 365.65625 146.27188Q365.375 146.4125 365.07812 146.6625Z" fill-rule="nonzero"/><path stroke="#cccccc" stroke-width="1.0" stroke-linecap="butt" d="M573.7 305.0C573.7 193.60417 483.39584 103.3 372.0 103.3C260.60416 103.3 170.3 193.60417 170.3 305.0C170.3 416.39584 260.60416 506.7 372.0 506.7C483.39584 506.7 573.7 416.39584 573.7 305.0" fill-rule="nonzero"/><path fill="#000000" d="M353.0625 95.34688L353.0625 96.65938Q353.0625 97.70625 352.875 98.425Q352.6875 99.14375 352.32812 99.58125Q351.98438 100.01875 351.48438 100.22188Q351.0 100.425 350.375 100.425Q349.89062 100.425 349.46875 100.3Q349.04688 100.175 348.71875 99.90938Q348.39062 99.62813 348.15625 99.19063Q347.92188 98.75313 347.79688 98.12813Q347.67188 97.4875 347.67188 96.65938L347.67188 95.34688Q347.67188 94.3 347.85938 93.59688Q348.0625 92.89375 348.40625 92.45625Q348.76562 92.01875 349.25 91.83125Q349.75 91.64375 350.35938 91.64375Q350.85938 91.64375 351.28125 91.76875Q351.70312 91.89375 352.03125 92.15938Q352.35938 92.40938 352.57812 92.84688Q352.8125 93.26875 352.9375 93.89375Q353.0625 94.51875 353.0625 95.34688ZM351.96875 96.83125L351.96875 95.175Q351.96875 94.59688 351.90625 94.15938Q351.84375 93.72188 351.70312 93.40938Q351.57812 93.09688 351.375 92.90938Q351.1875 92.72188 350.9375 92.62813Q350.6875 92.53438 350.35938 92.53438Q349.98438 92.53438 349.67188 92.675Q349.375 92.81563 349.17188 93.12813Q348.96875 93.44063 348.85938 93.95625Q348.76562 94.45625 348.76562 95.175L348.76562 96.83125Q348.76562 97.40938 348.82812 97.84688Q348.90625 98.28438 349.03125 98.6125Q349.17188 98.925 349.35938 99.12813Q349.5625 99.33125 349.8125 99.425Q350.0625 99.51875 350.375 99.51875Q350.78125 99.51875 351.07812 99.37813Q351.375 99.22188 351.57812 98.89375Q351.78125 98.56563 351.875 98.06563Q351.96875 97.55 351.96875 96.83125ZM355.8125 99.00313L355.8125 99.87813Q355.8125 100.425 355.53125 101.01875Q355.26562 101.6125 354.78125 102.00313L354.17188 101.58125Q354.35938 101.31563 354.48438 101.05Q354.60938 100.78438 354.67188 100.50313Q354.75 100.22188 354.75 99.89375L354.75 99.00313L355.8125 99.00313ZM362.29688 99.40938L362.29688 100.3L356.71875 100.3L356.71875 99.51875L359.51562 96.40938Q360.03125 95.83125 360.3125 95.44063Q360.59375 95.03438 360.70312 94.72188Q360.82812 94.39375 360.82812 94.06563Q360.82812 93.64375 360.65625 93.3Q360.48438 92.95625 360.14062 92.75313Q359.8125 92.53438 359.32812 92.53438Q358.76562 92.53438 358.39062 92.76875Q358.01562 92.9875 357.82812 93.37813Q357.64062 93.76875 357.64062 94.26875L356.54688 94.26875Q356.54688 93.55 356.85938 92.95625Q357.1875 92.3625 357.79688 92.00313Q358.42188 91.64375 359.32812 91.64375Q360.14062 91.64375 360.71875 91.94063Q361.29688 92.22188 361.59375 92.7375Q361.90625 93.2375 361.90625 93.925Q361.90625 94.3 361.78125 94.69063Q361.65625 95.06563 361.4375 95.45625Q361.21875 95.83125 360.92188 96.20625Q360.64062 96.56563 360.3125 96.925L358.01562 99.40938L362.29688 99.40938ZM369.0625 95.34688L369.0625 96.65938Q369.0625 97.70625 368.875 98.425Q368.6875 99.14375 368.32812 99.58125Q367.98438 100.01875 367.48438 100.22188Q367.0 100.425 366.375 100.425Q365.89062 100.425 365.46875 100.3Q365.04688 100.175 364.71875 99.90938Q364.39062 99.62813 364.15625 99.19063Q363.92188 98.75313 363.79688 98.12813Q363.67188 97.4875 363.67188 96.65938L363.67188 95.34688Q363.67188 94.3 363.85938 93.59688Q364.0625 92.89375 364.40625 92.45625Q364.76562 92.01875 365.25 91.83125Q365.75 91.64375 366.35938 91.64375Q366.85938 91.64375 367.28125 91.76875Q367.70312 91.89375 368.03125 92.15938Q368.35938 92.40938 368.57812 92.84688Q368.8125 93.26875 368.9375 93.89375Q369.0625 94.51875 369.0625 95.34688ZM367.96875 96.83125L367.96875 95.175Q367.96875 94.59688 367.90625 94.15938Q367.84375 93.72188 367.70312 93.40938Q367.57812 93.09688 367.375 92.90938Q367.1875 92.72188 366.9375 92.62813Q366.6875 92.53438 366.35938 92.53438Q365.98438 92.53438 365.67188 92.675Q365.375 92.81563 365.17188 93.12813Q364.96875 93.44063 364.85938 93.95625Q364.76562 94.45625 364.76562 95.175L364.76562 96.83125Q364.76562 97.40938 364.82812 97.84688Q364.90625 98.28438 365.03125 98.6125Q365.17188 98.925 365.35938 99.12813Q365.5625 99.33125 365.8125 99.425Q366.0625 99.51875 366.375 99.51875Q366.78125 99.51875 367.07812 99.37813Q367.375 99.22188 367.57812 98.89375Q367.78125 98.56563 367.875 98.06563Q367.96875 97.55 367.96875 96.83125Z" fill-rule="nonzero"/><path stroke="#cccccc" stroke-width="1.0" stroke-linecap="butt" d="M372.0 305.0L372.0 103.0" fill-rule="nonzero"/><path fill="#000000" d="M342.64062 79.78125L343.76562 79.78125Q343.67188 80.59375 343.29688 81.234375Q342.92188 81.875 342.23438 82.25Q341.5625 82.625 340.53125 82.625Q339.78125 82.625 339.17188 82.34375Q338.5625 82.046875 338.10938 81.53125Q337.67188 81.015625 337.4375 80.296875Q337.20312 79.5625 337.20312 78.65625L337.20312 77.8125Q337.20312 76.921875 337.4375 76.1875Q337.67188 75.453125 338.125 74.9375Q338.57812 74.40625 339.20312 74.125Q339.84375 73.84375 340.625 73.84375Q341.59375 73.84375 342.26562 74.21875Q342.9375 74.578125 343.29688 75.21875Q343.67188 75.859375 343.76562 76.703125L342.64062 76.703125Q342.5625 76.109375 342.32812 75.6875Q342.10938 75.25 341.70312 75.015625Q341.29688 74.78125 340.625 74.78125Q340.0625 74.78125 339.625 75.0Q339.20312 75.203125 338.90625 75.609375Q338.625 76.0 338.46875 76.5625Q338.32812 77.125 338.32812 77.796875L338.32812 78.65625Q338.32812 79.28125 338.45312 79.84375Q338.59375 80.390625 338.85938 80.8125Q339.125 81.21875 339.54688 81.46875Q339.96875 81.703125 340.53125 81.703125Q341.25 81.703125 341.67188 81.46875Q342.10938 81.234375 342.32812 80.8125Q342.54688 80.390625 342.64062 79.78125ZM349.0625 81.421875L349.0625 78.15625Q349.0625 77.78125 348.90625 77.5Q348.76562 77.21875 348.46875 77.078125Q348.17188 76.921875 347.73438 76.921875Q347.3125 76.921875 347.0 77.0625Q346.70312 77.203125 346.53125 77.4375Q346.35938 77.65625 346.35938 77.921875L345.28125 77.921875Q345.28125 77.578125 345.45312 77.25Q345.625 76.90625 345.95312 76.640625Q346.28125 76.359375 346.75 76.203125Q347.21875 76.046875 347.79688 76.046875Q348.48438 76.046875 349.01562 76.28125Q349.54688 76.515625 349.84375 76.984375Q350.15625 77.453125 350.15625 78.15625L350.15625 81.109375Q350.15625 81.4375 350.20312 81.796875Q350.26562 82.140625 350.375 82.40625L350.375 82.5L349.23438 82.5Q349.15625 82.3125 349.10938 82.0Q349.0625 81.6875 349.0625 81.421875ZM349.25 78.65625L349.26562 79.421875L348.17188 79.421875Q347.70312 79.421875 347.34375 79.5Q346.98438 79.5625 346.73438 79.71875Q346.48438 79.859375 346.35938 80.078125Q346.23438 80.296875 346.23438 80.59375Q346.23438 80.890625 346.35938 81.140625Q346.5 81.375 346.76562 81.53125Q347.04688 81.671875 347.4375 81.671875Q347.9375 81.671875 348.3125 81.46875Q348.70312 81.25 348.92188 80.953125Q349.15625 80.640625 349.17188 80.34375L349.64062 80.875Q349.59375 81.109375 349.40625 81.421875Q349.23438 81.71875 348.92188 82.0Q348.625 82.265625 348.20312 82.453125Q347.79688 82.625 347.28125 82.625Q346.64062 82.625 346.15625 82.375Q345.67188 82.109375 345.40625 81.6875Q345.14062 81.265625 345.14062 80.734375Q345.14062 80.21875 345.32812 79.84375Q345.53125 79.453125 345.90625 79.1875Q346.28125 78.921875 346.8125 78.796875Q347.34375 78.65625 348.0 78.65625L349.25 78.65625ZM353.40625 77.15625L353.40625 82.5L352.32812 82.5L352.32812 76.15625L353.375 76.15625L353.40625 77.15625ZM355.39062 76.125L355.39062 77.125Q355.25 77.109375 355.125 77.09375Q355.01562 77.078125 354.85938 77.078125Q354.48438 77.078125 354.1875 77.203125Q353.90625 77.3125 353.70312 77.53125Q353.51562 77.734375 353.39062 78.03125Q353.28125 78.328125 353.25 78.671875L352.9375 78.84375Q352.9375 78.265625 353.04688 77.765625Q353.17188 77.265625 353.40625 76.875Q353.65625 76.484375 354.01562 76.265625Q354.39062 76.046875 354.90625 76.046875Q355.03125 76.046875 355.17188 76.078125Q355.32812 76.09375 355.39062 76.125ZM358.10938 81.84375L359.875 76.15625L361.03125 76.15625L358.48438 83.484375Q358.40625 83.71875 358.25 83.984375Q358.10938 84.265625 357.89062 84.5Q357.67188 84.75 357.35938 84.90625Q357.04688 85.0625 356.60938 85.0625Q356.48438 85.0625 356.28125 85.015625Q356.07812 84.984375 356.0 84.96875L356.0 84.09375Q356.04688 84.09375 356.14062 84.09375Q356.25 84.109375 356.28125 84.109375Q356.65625 84.109375 356.90625 84.015625Q357.17188 83.921875 357.34375 83.6875Q357.53125 83.46875 357.65625 83.078125L358.10938 81.84375ZM356.8125 76.15625L358.45312 81.078125L358.73438 82.21875L357.96875 82.625L355.625 76.15625L356.8125 76.15625ZM362.04688 79.40625L362.04688 79.265625Q362.04688 78.578125 362.23438 78.0Q362.4375 77.40625 362.8125 76.96875Q363.1875 76.53125 363.71875 76.296875Q364.25 76.046875 364.92188 76.046875Q365.57812 76.046875 366.10938 76.296875Q366.65625 76.53125 367.03125 76.96875Q367.40625 77.40625 367.60938 78.0Q367.8125 78.578125 367.8125 79.265625L367.8125 79.40625Q367.8125 80.078125 367.60938 80.671875Q367.40625 81.25 367.03125 81.6875Q366.65625 82.125 366.125 82.375Q365.59375 82.625 364.92188 82.625Q364.26562 82.625 363.71875 82.375Q363.1875 82.125 362.8125 81.6875Q362.4375 81.25 362.23438 80.671875Q362.04688 80.078125 362.04688 79.40625ZM363.125 79.265625L363.125 79.40625Q363.125 79.875 363.23438 80.296875Q363.34375 80.71875 363.5625 81.046875Q363.79688 81.359375 364.14062 81.546875Q364.48438 81.71875 364.92188 81.71875Q365.375 81.71875 365.70312 81.546875Q366.04688 81.359375 366.26562 81.046875Q366.5 80.71875 366.60938 80.296875Q366.71875 79.875 366.71875 79.40625L366.71875 79.265625Q366.71875 78.796875 366.60938 78.375Q366.5 77.953125 366.26562 77.640625Q366.04688 77.3125 365.70312 77.125Q365.375 76.9375 364.92188 76.9375Q364.46875 76.9375 364.125 77.125Q363.79688 77.3125 363.5625 77.640625Q363.34375 77.953125 363.23438 78.375Q363.125 78.796875 363.125 79.265625ZM370.40625 77.375L370.40625 84.9375L369.32812 84.9375L369.32812 76.15625L370.3125 76.15625L370.40625 77.375ZM374.6875 79.28125L374.6875 79.40625Q374.6875 80.09375 374.51562 80.6875Q374.35938 81.265625 374.04688 81.703125Q373.73438 82.140625 373.26562 82.390625Q372.8125 82.625 372.21875 82.625Q371.625 82.625 371.15625 82.421875Q370.6875 82.21875 370.35938 81.84375Q370.04688 81.453125 369.85938 80.921875Q369.67188 80.390625 369.59375 79.71875L369.59375 79.0625Q369.67188 78.359375 369.85938 77.8125Q370.04688 77.25 370.35938 76.859375Q370.6875 76.453125 371.14062 76.25Q371.60938 76.046875 372.20312 76.046875Q372.79688 76.046875 373.26562 76.28125Q373.73438 76.5 374.04688 76.9375Q374.35938 77.359375 374.51562 77.953125Q374.6875 78.546875 374.6875 79.28125ZM373.59375 79.40625L373.59375 79.28125Q373.59375 78.796875 373.48438 78.390625Q373.39062 77.96875 373.1875 77.65625Q372.98438 77.328125 372.65625 77.140625Q372.32812 76.953125 371.89062 76.953125Q371.48438 76.953125 371.17188 77.09375Q370.875 77.234375 370.65625 77.484375Q370.45312 77.71875 370.3125 78.015625Q370.1875 78.3125 370.125 78.640625L370.125 80.15625Q370.23438 80.5625 370.4375 80.921875Q370.65625 81.28125 371.0 81.5Q371.35938 81.71875 371.90625 81.71875Q372.34375 81.71875 372.65625 81.546875Q372.98438 81.359375 373.1875 81.046875Q373.39062 80.71875 373.48438 80.296875Q373.59375 79.875 373.59375 79.40625ZM377.40625 73.5L377.40625 82.5L376.32812 82.5L376.32812 73.5L377.40625 73.5ZM377.15625 79.09375L376.70312 79.078125Q376.70312 78.421875 376.89062 77.875Q377.07812 77.3125 377.42188 76.90625Q377.76562 76.5 378.23438 76.28125Q378.70312 76.046875 379.28125 76.046875Q379.75 76.046875 380.125 76.171875Q380.5 76.296875 380.76562 76.578125Q381.03125 76.84375 381.17188 77.28125Q381.3125 77.71875 381.3125 78.34375L381.3125 82.5L380.21875 82.5L380.21875 78.328125Q380.21875 77.828125 380.07812 77.53125Q379.9375 77.234375 379.65625 77.09375Q379.375 76.953125 378.95312 76.953125Q378.54688 76.953125 378.21875 77.125Q377.89062 77.296875 377.65625 77.59375Q377.42188 77.890625 377.28125 78.28125Q377.15625 78.65625 377.15625 79.09375ZM385.10938 81.84375L386.875 76.15625L388.03125 76.15625L385.48438 83.484375Q385.40625 83.71875 385.25 83.984375Q385.10938 84.265625 384.89062 84.5Q384.67188 84.75 384.35938 84.90625Q384.04688 85.0625 383.60938 85.0625Q383.48438 85.0625 383.28125 85.015625Q383.07812 84.984375 383.0 84.96875L383.0 84.09375Q383.04688 84.09375 383.14062 84.09375Q383.25 84.109375 383.28125 84.109375Q383.65625 84.109375 383.90625 84.015625Q384.17188 83.921875 384.34375 83.6875Q384.53125 83.46875 384.65625 83.078125L385.10938 81.84375ZM383.8125 76.15625L385.45312 81.078125L385.73438 82.21875L384.96875 82.625L382.625 76.15625L383.8125 76.15625ZM390.5 73.5L390.5 82.5L389.42188 82.5L389.42188 73.5L390.5 73.5ZM393.5 73.5L393.5 82.5L392.42188 82.5L392.42188 73.5L393.5 73.5ZM397.95312 82.625Q397.29688 82.625 396.75 82.40625Q396.21875 82.171875 395.82812 81.765625Q395.45312 81.34375 395.25 80.78125Q395.04688 80.21875 395.04688 79.546875L395.04688 79.3125Q395.04688 78.53125 395.26562 77.921875Q395.5 77.3125 395.89062 76.890625Q396.28125 76.46875 396.78125 76.265625Q397.28125 76.046875 397.8125 76.046875Q398.5 76.046875 398.98438 76.28125Q399.48438 76.515625 399.79688 76.9375Q400.125 77.34375 400.26562 77.921875Q400.42188 78.484375 400.42188 79.140625L400.42188 79.640625L395.6875 79.640625L395.6875 78.75L399.34375 78.75L399.34375 78.671875Q399.3125 78.25 399.15625 77.859375Q399.01562 77.453125 398.6875 77.203125Q398.375 76.9375 397.8125 76.9375Q397.45312 76.9375 397.14062 77.09375Q396.82812 77.25 396.59375 77.5625Q396.375 77.859375 396.25 78.296875Q396.14062 78.734375 396.14062 79.3125L396.14062 79.546875Q396.14062 80.0 396.26562 80.40625Q396.39062 80.796875 396.625 81.09375Q396.875 81.390625 397.21875 81.5625Q397.57812 81.734375 398.01562 81.734375Q398.59375 81.734375 398.98438 81.5Q399.39062 81.265625 399.6875 80.875L400.34375 81.390625Q400.14062 81.703125 399.8125 81.984375Q399.5 82.265625 399.03125 82.453125Q398.57812 82.625 397.95312 82.625ZM402.40625 77.515625L402.40625 82.5L401.32812 82.5L401.32812 76.15625L402.35938 76.15625L402.40625 77.515625ZM402.15625 79.09375L401.70312 79.078125Q401.70312 78.421875 401.89062 77.875Q402.07812 77.3125 402.42188 76.90625Q402.76562 76.5 403.23438 76.28125Q403.70312 76.046875 404.28125 76.046875Q404.75 76.046875 405.125 76.171875Q405.5 76.296875 405.76562 76.578125Q406.03125 76.84375 406.17188 77.28125Q406.3125 77.71875 406.3125 78.34375L406.3125 82.5L405.21875 82.5L405.21875 78.328125Q405.21875 77.828125 405.07812 77.53125Q404.9375 77.234375 404.65625 77.09375Q404.375 76.953125 403.95312 76.953125Q403.54688 76.953125 403.21875 77.125Q402.89062 77.296875 402.65625 77.59375Q402.42188 77.890625 402.28125 78.28125Q402.15625 78.65625 402.15625 79.09375Z" fill-rule="nonzero"/><path stroke="#cccccc" stroke-width="1.0" stroke-linecap="butt" d="M372.0 305.0L547.0 204.0" fill-rule="nonzero"/><path fill="#000000" d="M542.2969 196.5L540.5156 196.5L540.53125 195.57812L542.2969 195.57812Q543.21875 195.57812 543.8281 195.20312Q544.4375 194.8125 544.7344 194.125Q545.0469 193.42188 545.0469 192.48438L545.0469 191.96875Q545.0469 191.23438 544.875 190.67188Q544.7031 190.09375 544.3594 189.70312Q544.0156 189.29688 543.5156 189.09375Q543.03125 188.89062 542.40625 188.89062L540.4844 188.89062L540.4844 187.96875L542.40625 187.96875Q543.25 187.96875 543.9375 188.25Q544.625 188.53125 545.125 189.0625Q545.625 189.57812 545.8906 190.32812Q546.1719 191.0625 546.1719 191.98438L546.1719 192.48438Q546.1719 193.42188 545.8906 194.17188Q545.625 194.90625 545.1094 195.42188Q544.6094 195.9375 543.8906 196.21875Q543.1875 196.5 542.2969 196.5ZM541.125 187.96875L541.125 196.5L539.9844 196.5L539.9844 187.96875L541.125 187.96875ZM550.0781 192.42188L550.0781 193.3125L547.21875 193.3125L547.21875 192.42188L550.0781 192.42188ZM556.1719 195.57812L556.1719 196.5L551.90625 196.5L551.90625 195.57812L556.1719 195.57812ZM552.125 187.96875L552.125 196.5L550.9844 196.5L550.9844 187.96875L552.125 187.96875ZM558.0 190.15625L558.0 196.5L556.9219 196.5L556.9219 190.15625L558.0 190.15625ZM556.8281 188.48438Q556.8281 188.21875 556.9844 188.03125Q557.15625 187.84375 557.46875 187.84375Q557.78125 187.84375 557.9375 188.03125Q558.1094 188.21875 558.1094 188.48438Q558.1094 188.73438 557.9375 188.92188Q557.78125 189.09375 557.46875 189.09375Q557.15625 189.09375 556.9844 188.92188Q556.8281 188.73438 556.8281 188.48438ZM560.90625 191.42188L560.90625 196.5L559.8125 196.5L559.8125 190.15625L560.84375 190.15625L560.90625 191.42188ZM560.6875 193.09375L560.1719 193.07812Q560.1875 192.42188 560.34375 191.875Q560.5156 191.3125 560.8281 190.90625Q561.15625 190.5 561.6406 190.28125Q562.125 190.04688 562.75 190.04688Q563.2031 190.04688 563.5781 190.17188Q563.9531 190.29688 564.21875 190.5625Q564.5 190.82812 564.6406 191.25Q564.7969 191.67188 564.7969 192.28125L564.7969 196.5L563.71875 196.5L563.71875 192.32812Q563.71875 191.82812 563.5469 191.53125Q563.3906 191.23438 563.0781 191.09375Q562.78125 190.95312 562.3594 190.95312Q561.8906 190.95312 561.5625 191.125Q561.2344 191.29688 561.0469 191.59375Q560.8594 191.89062 560.7656 192.28125Q560.6875 192.65625 560.6875 193.09375ZM564.7969 192.48438L564.0625 192.71875Q564.0625 192.1875 564.2344 191.71875Q564.40625 191.23438 564.71875 190.85938Q565.0469 190.48438 565.5156 190.26562Q565.9844 190.04688 566.5781 190.04688Q567.09375 190.04688 567.4844 190.1875Q567.8906 190.3125 568.15625 190.59375Q568.4219 190.875 568.5625 191.3125Q568.7031 191.73438 568.7031 192.32812L568.7031 196.5L567.625 196.5L567.625 192.32812Q567.625 191.78125 567.4531 191.5Q567.28125 191.20312 566.9844 191.07812Q566.6875 190.95312 566.2656 190.95312Q565.90625 190.95312 565.625 191.07812Q565.3594 191.20312 565.1719 191.42188Q564.9844 191.625 564.8906 191.90625Q564.7969 192.1875 564.7969 192.48438ZM570.5469 193.40625L570.5469 193.26562Q570.5469 192.57812 570.7344 192.0Q570.9375 191.40625 571.3125 190.96875Q571.6875 190.53125 572.21875 190.29688Q572.75 190.04688 573.4219 190.04688Q574.0781 190.04688 574.6094 190.29688Q575.15625 190.53125 575.53125 190.96875Q575.90625 191.40625 576.1094 192.0Q576.3125 192.57812 576.3125 193.26562L576.3125 193.40625Q576.3125 194.07812 576.1094 194.67188Q575.90625 195.25 575.53125 195.6875Q575.15625 196.125 574.625 196.375Q574.09375 196.625 573.4219 196.625Q572.7656 196.625 572.21875 196.375Q571.6875 196.125 571.3125 195.6875Q570.9375 195.25 570.7344 194.67188Q570.5469 194.07812 570.5469 193.40625ZM571.625 193.26562L571.625 193.40625Q571.625 193.875 571.7344 194.29688Q571.84375 194.71875 572.0625 195.04688Q572.2969 195.35938 572.6406 195.54688Q572.9844 195.71875 573.4219 195.71875Q573.875 195.71875 574.2031 195.54688Q574.5469 195.35938 574.7656 195.04688Q575.0 194.71875 575.1094 194.29688Q575.21875 193.875 575.21875 193.40625L575.21875 193.26562Q575.21875 192.79688 575.1094 192.375Q575.0 191.95312 574.7656 191.64062Q574.5469 191.3125 574.2031 191.125Q573.875 190.9375 573.4219 190.9375Q572.96875 190.9375 572.625 191.125Q572.2969 191.3125 572.0625 191.64062Q571.84375 191.95312 571.7344 192.375Q571.625 192.79688 571.625 193.26562ZM578.90625 191.51562L578.90625 196.5L577.8281 196.5L577.8281 190.15625L578.8594 190.15625L578.90625 191.51562ZM578.65625 193.09375L578.2031 193.07812Q578.2031 192.42188 578.3906 191.875Q578.5781 191.3125 578.9219 190.90625Q579.2656 190.5 579.7344 190.28125Q580.2031 190.04688 580.78125 190.04688Q581.25 190.04688 581.625 190.17188Q582.0 190.29688 582.2656 190.57812Q582.53125 190.84375 582.6719 191.28125Q582.8125 191.71875 582.8125 192.34375L582.8125 196.5L581.71875 196.5L581.71875 192.32812Q581.71875 191.82812 581.5781 191.53125Q581.4375 191.23438 581.15625 191.09375Q580.875 190.95312 580.4531 190.95312Q580.0469 190.95312 579.71875 191.125Q579.3906 191.29688 579.15625 191.59375Q578.9219 191.89062 578.78125 192.28125Q578.65625 192.65625 578.65625 193.09375ZM587.4531 196.625Q586.7969 196.625 586.25 196.40625Q585.71875 196.17188 585.3281 195.76562Q584.9531 195.34375 584.75 194.78125Q584.5469 194.21875 584.5469 193.54688L584.5469 193.3125Q584.5469 192.53125 584.7656 191.92188Q585.0 191.3125 585.3906 190.89062Q585.78125 190.46875 586.28125 190.26562Q586.78125 190.04688 587.3125 190.04688Q588.0 190.04688 588.4844 190.28125Q588.9844 190.51562 589.2969 190.9375Q589.625 191.34375 589.7656 191.92188Q589.9219 192.48438 589.9219 193.14062L589.9219 193.64062L585.1875 193.64062L585.1875 192.75L588.84375 192.75L588.84375 192.67188Q588.8125 192.25 588.65625 191.85938Q588.5156 191.45312 588.1875 191.20312Q587.875 190.9375 587.3125 190.9375Q586.9531 190.9375 586.6406 191.09375Q586.3281 191.25 586.09375 191.5625Q585.875 191.85938 585.75 192.29688Q585.6406 192.73438 585.6406 193.3125L585.6406 193.54688Q585.6406 194.0 585.7656 194.40625Q585.8906 194.79688 586.125 195.09375Q586.375 195.39062 586.71875 195.5625Q587.0781 195.73438 587.5156 195.73438Q588.09375 195.73438 588.4844 195.5Q588.8906 195.26562 589.1875 194.875L589.84375 195.39062Q589.6406 195.70312 589.3125 195.98438Q589.0 196.26562 588.53125 196.45312Q588.0781 196.625 587.4531 196.625ZM591.90625 191.51562L591.90625 196.5L590.8281 196.5L590.8281 190.15625L591.8594 190.15625L591.90625 191.51562ZM591.65625 193.09375L591.2031 193.07812Q591.2031 192.42188 591.3906 191.875Q591.5781 191.3125 591.9219 190.90625Q592.2656 190.5 592.7344 190.28125Q593.2031 190.04688 593.78125 190.04688Q594.25 190.04688 594.625 190.17188Q595.0 190.29688 595.2656 190.57812Q595.53125 190.84375 595.6719 191.28125Q595.8125 191.71875 595.8125 192.34375L595.8125 196.5L594.71875 196.5L594.71875 192.32812Q594.71875 191.82812 594.5781 191.53125Q594.4375 191.23438 594.15625 191.09375Q593.875 190.95312 593.4531 190.95312Q593.0469 190.95312 592.71875 191.125Q592.3906 191.29688 592.15625 191.59375Q591.9219 191.89062 591.78125 192.28125Q591.65625 192.65625 591.65625 193.09375Z" fill-rule="nonzero"/><path stroke="#cccccc" stroke-width="1.0" stroke-linecap="butt" d="M372.0 305.0L547.0 406.0" fill-rule="nonzero"/><path fill="#000000" d="M546.53125 417.67188L547.3906 417.67188Q548.2031 417.67188 548.7656 417.98438Q549.34375 418.28125 549.6406 418.8125Q549.9531 419.34375 549.9531 420.01562Q549.9531 420.84375 549.6094 421.42188Q549.2656 422.0 548.6719 422.3125Q548.0781 422.625 547.2969 422.625Q546.84375 422.625 546.3906 422.5Q545.9375 422.35938 545.5625 422.09375Q545.2031 421.82812 544.9844 421.40625Q544.7656 420.98438 544.7656 420.40625L545.1875 420.15625Q545.1875 420.59375 545.4375 420.95312Q545.7031 421.29688 546.1406 421.51562Q546.59375 421.73438 547.1875 421.73438Q547.71875 421.73438 548.09375 421.51562Q548.46875 421.29688 548.6719 420.92188Q548.875 420.53125 548.875 420.03125Q548.875 419.625 548.6875 419.25Q548.5156 418.85938 548.1875 418.60938Q547.8594 418.35938 547.375 418.35938L546.53125 418.35938L546.53125 417.67188ZM547.0469 413.84375Q547.8125 413.84375 548.375 414.14062Q548.9375 414.4375 549.2344 414.95312Q549.5469 415.46875 549.5469 416.14062Q549.5469 416.70312 549.2344 417.17188Q548.9375 417.625 548.375 417.90625Q547.8125 418.17188 547.0469 418.17188L546.53125 418.17188L546.53125 417.46875L547.03125 417.46875Q547.5469 417.46875 547.8594 417.29688Q548.1719 417.125 548.3125 416.82812Q548.46875 416.51562 548.46875 416.125Q548.46875 415.76562 548.3125 415.45312Q548.15625 415.14062 547.84375 414.9375Q547.53125 414.73438 547.0469 414.73438Q546.625 414.73438 546.28125 414.9375Q545.9375 415.125 545.7344 415.46875Q545.53125 415.79688 545.53125 416.21875L545.53125 424.75L544.4375 424.75L544.4375 416.21875Q544.4375 415.5625 544.7969 415.03125Q545.15625 414.48438 545.75 414.17188Q546.34375 413.84375 547.0469 413.84375ZM553.5781 418.42188L553.5781 419.3125L550.71875 419.3125L550.71875 418.42188L553.5781 418.42188ZM554.84375 413.96875L555.9375 413.96875L558.7344 420.92188L561.53125 413.96875L562.625 413.96875L559.15625 422.5L558.3125 422.5L554.84375 413.96875ZM554.4844 413.96875L555.4531 413.96875L555.6094 419.17188L555.6094 422.5L554.4844 422.5L554.4844 413.96875ZM562.0156 413.96875L562.9844 413.96875L562.9844 422.5L561.8594 422.5L561.8594 419.17188L562.0156 413.96875ZM566.1094 421.84375L567.875 416.15625L569.03125 416.15625L566.4844 423.48438Q566.40625 423.71875 566.25 423.98438Q566.1094 424.26562 565.8906 424.5Q565.6719 424.75 565.3594 424.90625Q565.0469 425.0625 564.6094 425.0625Q564.4844 425.0625 564.28125 425.01562Q564.0781 424.98438 564.0 424.96875L564.0 424.09375Q564.0469 424.09375 564.1406 424.09375Q564.25 424.10938 564.28125 424.10938Q564.65625 424.10938 564.90625 424.01562Q565.1719 423.92188 565.34375 423.6875Q565.53125 423.46875 565.65625 423.07812L566.1094 421.84375ZM564.8125 416.15625L566.4531 421.07812L566.7344 422.21875L565.96875 422.625L563.625 416.15625L564.8125 416.15625ZM571.40625 417.15625L571.40625 422.5L570.3281 422.5L570.3281 416.15625L571.375 416.15625L571.40625 417.15625ZM573.3906 416.125L573.3906 417.125Q573.25 417.10938 573.125 417.09375Q573.0156 417.07812 572.8594 417.07812Q572.4844 417.07812 572.1875 417.20312Q571.90625 417.3125 571.7031 417.53125Q571.5156 417.73438 571.3906 418.03125Q571.28125 418.32812 571.25 418.67188L570.9375 418.84375Q570.9375 418.26562 571.0469 417.76562Q571.1719 417.26562 571.40625 416.875Q571.65625 416.48438 572.0156 416.26562Q572.3906 416.04688 572.90625 416.04688Q573.03125 416.04688 573.1719 416.07812Q573.3281 416.09375 573.3906 416.125ZM576.8594 421.71875Q577.25 421.71875 577.5781 421.5625Q577.90625 421.40625 578.1094 421.14062Q578.3281 420.85938 578.3594 420.5L579.3906 420.5Q579.3594 421.0625 579.0 421.54688Q578.65625 422.03125 578.09375 422.32812Q577.53125 422.625 576.8594 422.625Q576.15625 422.625 575.625 422.375Q575.09375 422.10938 574.7344 421.67188Q574.3906 421.23438 574.21875 420.67188Q574.0469 420.09375 574.0469 419.45312L574.0469 419.20312Q574.0469 418.5625 574.21875 418.0Q574.3906 417.42188 574.7344 416.98438Q575.09375 416.54688 575.625 416.29688Q576.15625 416.04688 576.8594 416.04688Q577.6094 416.04688 578.15625 416.34375Q578.71875 416.64062 579.03125 417.17188Q579.3594 417.6875 579.3906 418.34375L578.3594 418.34375Q578.3281 417.95312 578.1406 417.64062Q577.9531 417.3125 577.625 417.125Q577.2969 416.9375 576.8594 416.9375Q576.3594 416.9375 576.0156 417.14062Q575.6875 417.32812 575.4844 417.65625Q575.2969 417.98438 575.2031 418.39062Q575.125 418.79688 575.125 419.20312L575.125 419.45312Q575.125 419.875 575.2031 420.28125Q575.2969 420.67188 575.4844 421.0Q575.6875 421.32812 576.0156 421.53125Q576.3594 421.71875 576.8594 421.71875ZM582.9531 422.625Q582.2969 422.625 581.75 422.40625Q581.21875 422.17188 580.8281 421.76562Q580.4531 421.34375 580.25 420.78125Q580.0469 420.21875 580.0469 419.54688L580.0469 419.3125Q580.0469 418.53125 580.2656 417.92188Q580.5 417.3125 580.8906 416.89062Q581.28125 416.46875 581.78125 416.26562Q582.28125 416.04688 582.8125 416.04688Q583.5 416.04688 583.9844 416.28125Q584.4844 416.51562 584.7969 416.9375Q585.125 417.34375 585.2656 417.92188Q585.4219 418.48438 585.4219 419.14062L585.4219 419.64062L580.6875 419.64062L580.6875 418.75L584.34375 418.75L584.34375 418.67188Q584.3125 418.25 584.15625 417.85938Q584.0156 417.45312 583.6875 417.20312Q583.375 416.9375 582.8125 416.9375Q582.4531 416.9375 582.1406 417.09375Q581.8281 417.25 581.59375 417.5625Q581.375 417.85938 581.25 418.29688Q581.1406 418.73438 581.1406 419.3125L581.1406 419.54688Q581.1406 420.0 581.2656 420.40625Q581.3906 420.79688 581.625 421.09375Q581.875 421.39062 582.21875 421.5625Q582.5781 421.73438 583.0156 421.73438Q583.59375 421.73438 583.9844 421.5Q584.3906 421.26562 584.6875 420.875L585.34375 421.39062Q585.1406 421.70312 584.8125 421.98438Q584.5 422.26562 584.03125 422.45312Q583.5781 422.625 582.9531 422.625ZM587.40625 417.51562L587.40625 422.5L586.3281 422.5L586.3281 416.15625L587.3594 416.15625L587.40625 417.51562ZM587.15625 419.09375L586.7031 419.07812Q586.7031 418.42188 586.8906 417.875Q587.0781 417.3125 587.4219 416.90625Q587.7656 416.5 588.2344 416.28125Q588.7031 416.04688 589.28125 416.04688Q589.75 416.04688 590.125 416.17188Q590.5 416.29688 590.7656 416.57812Q591.03125 416.84375 591.1719 417.28125Q591.3125 417.71875 591.3125 418.34375L591.3125 422.5L590.21875 422.5L590.21875 418.32812Q590.21875 417.82812 590.0781 417.53125Q589.9375 417.23438 589.65625 417.09375Q589.375 416.95312 588.9531 416.95312Q588.5469 416.95312 588.21875 417.125Q587.8906 417.29688 587.65625 417.59375Q587.4219 417.89062 587.28125 418.28125Q587.15625 418.65625 587.15625 419.09375Z" fill-rule="nonzero"/><path stroke="#cccccc" stroke-width="1.0" stroke-linecap="butt" d="M372.0 305.0L372.0 507.0" fill-rule="nonzero"/><path fill="#000000" d="M359.0625 531.96875L359.0625 532.5Q359.0625 533.46875 358.8125 534.2344Q358.57812 534.9844 358.125 535.5156Q357.67188 536.0469 357.04688 536.34375Q356.42188 536.625 355.64062 536.625Q354.875 536.625 354.25 536.34375Q353.625 536.0469 353.15625 535.5156Q352.70312 534.9844 352.45312 534.2344Q352.20312 533.46875 352.20312 532.5L352.20312 531.96875Q352.20312 531.0 352.45312 530.25Q352.70312 529.4844 353.15625 528.9531Q353.60938 528.40625 354.23438 528.125Q354.875 527.84375 355.625 527.84375Q356.40625 527.84375 357.03125 528.125Q357.67188 528.40625 358.125 528.9531Q358.57812 529.4844 358.8125 530.25Q359.0625 531.0 359.0625 531.96875ZM357.9375 532.5L357.9375 531.9531Q357.9375 531.1875 357.78125 530.6094Q357.625 530.0156 357.32812 529.625Q357.03125 529.21875 356.59375 529.0156Q356.17188 528.8125 355.625 528.8125Q355.09375 528.8125 354.67188 529.0156Q354.25 529.21875 353.9375 529.625Q353.64062 530.0156 353.46875 530.6094Q353.3125 531.1875 353.3125 531.9531L353.3125 532.5Q353.3125 533.2656 353.46875 533.8594Q353.64062 534.4531 353.95312 534.8594Q354.26562 535.25 354.6875 535.4531Q355.10938 535.65625 355.64062 535.65625Q356.1875 535.65625 356.60938 535.4531Q357.04688 535.25 357.34375 534.8594Q357.64062 534.4531 357.78125 533.8594Q357.9375 533.2656 357.9375 532.5ZM362.85938 535.71875Q363.25 535.71875 363.57812 535.5625Q363.90625 535.40625 364.10938 535.1406Q364.32812 534.8594 364.35938 534.5L365.39062 534.5Q365.35938 535.0625 365.0 535.5469Q364.65625 536.03125 364.09375 536.3281Q363.53125 536.625 362.85938 536.625Q362.15625 536.625 361.625 536.375Q361.09375 536.1094 360.73438 535.6719Q360.39062 535.2344 360.21875 534.6719Q360.04688 534.09375 360.04688 533.4531L360.04688 533.2031Q360.04688 532.5625 360.21875 532.0Q360.39062 531.4219 360.73438 530.9844Q361.09375 530.5469 361.625 530.2969Q362.15625 530.0469 362.85938 530.0469Q363.60938 530.0469 364.15625 530.34375Q364.71875 530.6406 365.03125 531.1719Q365.35938 531.6875 365.39062 532.34375L364.35938 532.34375Q364.32812 531.9531 364.14062 531.6406Q363.95312 531.3125 363.625 531.125Q363.29688 530.9375 362.85938 530.9375Q362.35938 530.9375 362.01562 531.1406Q361.6875 531.3281 361.48438 531.65625Q361.29688 531.9844 361.20312 532.3906Q361.125 532.7969 361.125 533.2031L361.125 533.4531Q361.125 533.875 361.20312 534.28125Q361.29688 534.6719 361.48438 535.0Q361.6875 535.3281 362.01562 535.53125Q362.35938 535.71875 362.85938 535.71875ZM367.5 530.15625L367.5 536.5L366.42188 536.5L366.42188 530.15625L367.5 530.15625ZM366.32812 528.4844Q366.32812 528.21875 366.48438 528.03125Q366.65625 527.84375 366.96875 527.84375Q367.28125 527.84375 367.4375 528.03125Q367.60938 528.21875 367.60938 528.4844Q367.60938 528.7344 367.4375 528.9219Q367.28125 529.09375 366.96875 529.09375Q366.65625 529.09375 366.48438 528.9219Q366.32812 528.7344 366.32812 528.4844ZM370.40625 531.4219L370.40625 536.5L369.3125 536.5L369.3125 530.15625L370.34375 530.15625L370.40625 531.4219ZM370.1875 533.09375L369.67188 533.0781Q369.6875 532.4219 369.84375 531.875Q370.01562 531.3125 370.32812 530.90625Q370.65625 530.5 371.14062 530.28125Q371.625 530.0469 372.25 530.0469Q372.70312 530.0469 373.07812 530.1719Q373.45312 530.2969 373.71875 530.5625Q374.0 530.8281 374.14062 531.25Q374.29688 531.6719 374.29688 532.28125L374.29688 536.5L373.21875 536.5L373.21875 532.3281Q373.21875 531.8281 373.04688 531.53125Q372.89062 531.2344 372.57812 531.09375Q372.28125 530.9531 371.85938 530.9531Q371.39062 530.9531 371.0625 531.125Q370.73438 531.2969 370.54688 531.59375Q370.35938 531.8906 370.26562 532.28125Q370.1875 532.65625 370.1875 533.09375ZM374.29688 532.4844L373.5625 532.71875Q373.5625 532.1875 373.73438 531.71875Q373.90625 531.2344 374.21875 530.8594Q374.54688 530.4844 375.01562 530.2656Q375.48438 530.0469 376.07812 530.0469Q376.59375 530.0469 376.98438 530.1875Q377.39062 530.3125 377.65625 530.59375Q377.92188 530.875 378.0625 531.3125Q378.20312 531.7344 378.20312 532.3281L378.20312 536.5L377.125 536.5L377.125 532.3281Q377.125 531.78125 376.95312 531.5Q376.78125 531.2031 376.48438 531.0781Q376.1875 530.9531 375.76562 530.9531Q375.40625 530.9531 375.125 531.0781Q374.85938 531.2031 374.67188 531.4219Q374.48438 531.625 374.39062 531.90625Q374.29688 532.1875 374.29688 532.4844ZM382.95312 536.625Q382.29688 536.625 381.75 536.40625Q381.21875 536.1719 380.82812 535.7656Q380.45312 535.34375 380.25 534.78125Q380.04688 534.21875 380.04688 533.5469L380.04688 533.3125Q380.04688 532.53125 380.26562 531.9219Q380.5 531.3125 380.89062 530.8906Q381.28125 530.46875 381.78125 530.2656Q382.28125 530.0469 382.8125 530.0469Q383.5 530.0469 383.98438 530.28125Q384.48438 530.5156 384.79688 530.9375Q385.125 531.34375 385.26562 531.9219Q385.42188 532.4844 385.42188 533.1406L385.42188 533.6406L380.6875 533.6406L380.6875 532.75L384.34375 532.75L384.34375 532.6719Q384.3125 532.25 384.15625 531.8594Q384.01562 531.4531 383.6875 531.2031Q383.375 530.9375 382.8125 530.9375Q382.45312 530.9375 382.14062 531.09375Q381.82812 531.25 381.59375 531.5625Q381.375 531.8594 381.25 532.2969Q381.14062 532.7344 381.14062 533.3125L381.14062 533.5469Q381.14062 534.0 381.26562 534.40625Q381.39062 534.7969 381.625 535.09375Q381.875 535.3906 382.21875 535.5625Q382.57812 535.7344 383.01562 535.7344Q383.59375 535.7344 383.98438 535.5Q384.39062 535.2656 384.6875 534.875L385.34375 535.3906Q385.14062 535.7031 384.8125 535.9844Q384.5 536.2656 384.03125 536.4531Q383.57812 536.625 382.95312 536.625ZM387.40625 531.5156L387.40625 536.5L386.32812 536.5L386.32812 530.15625L387.35938 530.15625L387.40625 531.5156ZM387.15625 533.09375L386.70312 533.0781Q386.70312 532.4219 386.89062 531.875Q387.07812 531.3125 387.42188 530.90625Q387.76562 530.5 388.23438 530.28125Q388.70312 530.0469 389.28125 530.0469Q389.75 530.0469 390.125 530.1719Q390.5 530.2969 390.76562 530.5781Q391.03125 530.84375 391.17188 531.28125Q391.3125 531.71875 391.3125 532.34375L391.3125 536.5L390.21875 536.5L390.21875 532.3281Q390.21875 531.8281 390.07812 531.53125Q389.9375 531.2344 389.65625 531.09375Q389.375 530.9531 388.95312 530.9531Q388.54688 530.9531 388.21875 531.125Q387.89062 531.2969 387.65625 531.59375Q387.42188 531.8906 387.28125 532.28125Q387.15625 532.65625 387.15625 533.09375Z" fill-rule="nonzero"/><path stroke="#cccccc" stroke-width="1.0" stroke-linecap="butt" d="M372.0 305.0L197.0 406.0" fill-rule="nonzero"/><path fill="#000000" d="M160.67188 421.57812L160.67188 422.5L156.40625 422.5L156.40625 421.57812L160.67188 421.57812ZM156.625 413.96875L156.625 422.5L155.48438 422.5L155.48438 413.96875L156.625 413.96875ZM162.5 416.15625L162.5 422.5L161.42188 422.5L161.42188 416.15625L162.5 416.15625ZM161.32812 414.48438Q161.32812 414.21875 161.48438 414.03125Q161.65625 413.84375 161.96875 413.84375Q162.28125 413.84375 162.4375 414.03125Q162.60938 414.21875 162.60938 414.48438Q162.60938 414.73438 162.4375 414.92188Q162.28125 415.09375 161.96875 415.09375Q161.65625 415.09375 161.48438 414.92188Q161.32812 414.73438 161.32812 414.48438ZM165.40625 417.51562L165.40625 422.5L164.32812 422.5L164.32812 416.15625L165.35938 416.15625L165.40625 417.51562ZM165.15625 419.09375L164.70312 419.07812Q164.70312 418.42188 164.89062 417.875Q165.07812 417.3125 165.42188 416.90625Q165.76562 416.5 166.23438 416.28125Q166.70312 416.04688 167.28125 416.04688Q167.75 416.04688 168.125 416.17188Q168.5 416.29688 168.76562 416.57812Q169.03125 416.84375 169.17188 417.28125Q169.3125 417.71875 169.3125 418.34375L169.3125 422.5L168.21875 422.5L168.21875 418.32812Q168.21875 417.82812 168.07812 417.53125Q167.9375 417.23438 167.65625 417.09375Q167.375 416.95312 166.95312 416.95312Q166.54688 416.95312 166.21875 417.125Q165.89062 417.29688 165.65625 417.59375Q165.42188 417.89062 165.28125 418.28125Q165.15625 418.65625 165.15625 419.09375ZM175.0625 421.42188L175.0625 418.15625Q175.0625 417.78125 174.90625 417.5Q174.76562 417.21875 174.46875 417.07812Q174.17188 416.92188 173.73438 416.92188Q173.3125 416.92188 173.0 417.0625Q172.70312 417.20312 172.53125 417.4375Q172.35938 417.65625 172.35938 417.92188L171.28125 417.92188Q171.28125 417.57812 171.45312 417.25Q171.625 416.90625 171.95312 416.64062Q172.28125 416.35938 172.75 416.20312Q173.21875 416.04688 173.79688 416.04688Q174.48438 416.04688 175.01562 416.28125Q175.54688 416.51562 175.84375 416.98438Q176.15625 417.45312 176.15625 418.15625L176.15625 421.10938Q176.15625 421.4375 176.20312 421.79688Q176.26562 422.14062 176.375 422.40625L176.375 422.5L175.23438 422.5Q175.15625 422.3125 175.10938 422.0Q175.0625 421.6875 175.0625 421.42188ZM175.25 418.65625L175.26562 419.42188L174.17188 419.42188Q173.70312 419.42188 173.34375 419.5Q172.98438 419.5625 172.73438 419.71875Q172.48438 419.85938 172.35938 420.07812Q172.23438 420.29688 172.23438 420.59375Q172.23438 420.89062 172.35938 421.14062Q172.5 421.375 172.76562 421.53125Q173.04688 421.67188 173.4375 421.67188Q173.9375 421.67188 174.3125 421.46875Q174.70312 421.25 174.92188 420.95312Q175.15625 420.64062 175.17188 420.34375L175.64062 420.875Q175.59375 421.10938 175.40625 421.42188Q175.23438 421.71875 174.92188 422.0Q174.625 422.26562 174.20312 422.45312Q173.79688 422.625 173.28125 422.625Q172.64062 422.625 172.15625 422.375Q171.67188 422.10938 171.40625 421.6875Q171.14062 421.26562 171.14062 420.73438Q171.14062 420.21875 171.32812 419.84375Q171.53125 419.45312 171.90625 419.1875Q172.28125 418.92188 172.8125 418.79688Q173.34375 418.65625 174.0 418.65625L175.25 418.65625ZM179.5 413.5L179.5 422.5L178.42188 422.5L178.42188 413.5L179.5 413.5ZM181.04688 419.40625L181.04688 419.26562Q181.04688 418.57812 181.23438 418.0Q181.4375 417.40625 181.8125 416.96875Q182.1875 416.53125 182.71875 416.29688Q183.25 416.04688 183.92188 416.04688Q184.57812 416.04688 185.10938 416.29688Q185.65625 416.53125 186.03125 416.96875Q186.40625 417.40625 186.60938 418.0Q186.8125 418.57812 186.8125 419.26562L186.8125 419.40625Q186.8125 420.07812 186.60938 420.67188Q186.40625 421.25 186.03125 421.6875Q185.65625 422.125 185.125 422.375Q184.59375 422.625 183.92188 422.625Q183.26562 422.625 182.71875 422.375Q182.1875 422.125 181.8125 421.6875Q181.4375 421.25 181.23438 420.67188Q181.04688 420.07812 181.04688 419.40625ZM182.125 419.26562L182.125 419.40625Q182.125 419.875 182.23438 420.29688Q182.34375 420.71875 182.5625 421.04688Q182.79688 421.35938 183.14062 421.54688Q183.48438 421.71875 183.92188 421.71875Q184.375 421.71875 184.70312 421.54688Q185.04688 421.35938 185.26562 421.04688Q185.5 420.71875 185.60938 420.29688Q185.71875 419.875 185.71875 419.40625L185.71875 419.26562Q185.71875 418.79688 185.60938 418.375Q185.5 417.95312 185.26562 417.64062Q185.04688 417.3125 184.70312 417.125Q184.375 416.9375 183.92188 416.9375Q183.46875 416.9375 183.125 417.125Q182.79688 417.3125 182.5625 417.64062Q182.34375 417.95312 182.23438 418.375Q182.125 418.79688 182.125 419.26562ZM188.04688 419.40625L188.04688 419.26562Q188.04688 418.57812 188.23438 418.0Q188.4375 417.40625 188.8125 416.96875Q189.1875 416.53125 189.71875 416.29688Q190.25 416.04688 190.92188 416.04688Q191.57812 416.04688 192.10938 416.29688Q192.65625 416.53125 193.03125 416.96875Q193.40625 417.40625 193.60938 418.0Q193.8125 418.57812 193.8125 419.26562L193.8125 419.40625Q193.8125 420.07812 193.60938 420.67188Q193.40625 421.25 193.03125 421.6875Q192.65625 422.125 192.125 422.375Q191.59375 422.625 190.92188 422.625Q190.26562 422.625 189.71875 422.375Q189.1875 422.125 188.8125 421.6875Q188.4375 421.25 188.23438 420.67188Q188.04688 420.07812 188.04688 419.40625ZM189.125 419.26562L189.125 419.40625Q189.125 419.875 189.23438 420.29688Q189.34375 420.71875 189.5625 421.04688Q189.79688 421.35938 190.14062 421.54688Q190.48438 421.71875 190.92188 421.71875Q191.375 421.71875 191.70312 421.54688Q192.04688 421.35938 192.26562 421.04688Q192.5 420.71875 192.60938 420.29688Q192.71875 419.875 192.71875 419.40625L192.71875 419.26562Q192.71875 418.79688 192.60938 418.375Q192.5 417.95312 192.26562 417.64062Q192.04688 417.3125 191.70312 417.125Q191.375 416.9375 190.92188 416.9375Q190.46875 416.9375 190.125 417.125Q189.79688 417.3125 189.5625 417.64062Q189.34375 417.95312 189.23438 418.375Q189.125 418.79688 189.125 419.26562ZM196.5 413.5L196.5 422.5L195.42188 422.5L195.42188 413.5L196.5 413.5Z" fill-rule="nonzero"/><path stroke="#cccccc" stroke-width="1.0" stroke-linecap="butt" d="M372.0 305.0L197.0 204.0" fill-rule="nonzero"/><path fill="#000000" d="M158.03125 194.34375Q158.03125 194.04688 157.9375 193.8125Q157.85938 193.57812 157.625 193.39062Q157.40625 193.20312 157.0 193.03125Q156.60938 192.85938 156.01562 192.6875Q155.375 192.5 154.85938 192.28125Q154.35938 192.04688 153.98438 191.75Q153.625 191.4375 153.4375 191.0625Q153.25 190.67188 153.25 190.17188Q153.25 189.67188 153.45312 189.25Q153.65625 188.82812 154.03125 188.51562Q154.42188 188.20312 154.95312 188.03125Q155.48438 187.84375 156.14062 187.84375Q157.10938 187.84375 157.78125 188.21875Q158.45312 188.57812 158.79688 189.17188Q159.15625 189.76562 159.15625 190.42188L158.03125 190.42188Q158.03125 189.95312 157.8125 189.57812Q157.60938 189.20312 157.1875 189.0Q156.78125 188.78125 156.14062 188.78125Q155.54688 188.78125 155.14062 188.96875Q154.75 189.14062 154.5625 189.45312Q154.375 189.76562 154.375 190.15625Q154.375 190.42188 154.48438 190.65625Q154.60938 190.875 154.84375 191.0625Q155.09375 191.25 155.46875 191.40625Q155.84375 191.5625 156.375 191.70312Q157.09375 191.90625 157.625 192.17188Q158.15625 192.42188 158.5 192.73438Q158.84375 193.04688 159.0 193.4375Q159.17188 193.82812 159.17188 194.32812Q159.17188 194.85938 158.95312 195.28125Q158.75 195.70312 158.35938 196.0Q157.96875 196.29688 157.42188 196.46875Q156.875 196.625 156.20312 196.625Q155.60938 196.625 155.03125 196.45312Q154.46875 196.28125 154.0 195.95312Q153.53125 195.625 153.25 195.15625Q152.96875 194.67188 152.96875 194.03125L154.09375 194.03125Q154.09375 194.46875 154.26562 194.78125Q154.4375 195.09375 154.73438 195.29688Q155.03125 195.5 155.40625 195.60938Q155.78125 195.70312 156.20312 195.70312Q156.79688 195.70312 157.20312 195.54688Q157.60938 195.375 157.8125 195.07812Q158.03125 194.76562 158.03125 194.34375ZM160.04688 193.40625L160.04688 193.26562Q160.04688 192.57812 160.23438 192.0Q160.4375 191.40625 160.8125 190.96875Q161.1875 190.53125 161.71875 190.29688Q162.25 190.04688 162.92188 190.04688Q163.57812 190.04688 164.10938 190.29688Q164.65625 190.53125 165.03125 190.96875Q165.40625 191.40625 165.60938 192.0Q165.8125 192.57812 165.8125 193.26562L165.8125 193.40625Q165.8125 194.07812 165.60938 194.67188Q165.40625 195.25 165.03125 195.6875Q164.65625 196.125 164.125 196.375Q163.59375 196.625 162.92188 196.625Q162.26562 196.625 161.71875 196.375Q161.1875 196.125 160.8125 195.6875Q160.4375 195.25 160.23438 194.67188Q160.04688 194.07812 160.04688 193.40625ZM161.125 193.26562L161.125 193.40625Q161.125 193.875 161.23438 194.29688Q161.34375 194.71875 161.5625 195.04688Q161.79688 195.35938 162.14062 195.54688Q162.48438 195.71875 162.92188 195.71875Q163.375 195.71875 163.70312 195.54688Q164.04688 195.35938 164.26562 195.04688Q164.5 194.71875 164.60938 194.29688Q164.71875 193.875 164.71875 193.40625L164.71875 193.26562Q164.71875 192.79688 164.60938 192.375Q164.5 191.95312 164.26562 191.64062Q164.04688 191.3125 163.70312 191.125Q163.375 190.9375 162.92188 190.9375Q162.46875 190.9375 162.125 191.125Q161.79688 191.3125 161.5625 191.64062Q161.34375 191.95312 161.23438 192.375Q161.125 192.79688 161.125 193.26562ZM168.40625 191.51562L168.40625 196.5L167.32812 196.5L167.32812 190.15625L168.35938 190.15625L168.40625 191.51562ZM168.15625 193.09375L167.70312 193.07812Q167.70312 192.42188 167.89062 191.875Q168.07812 191.3125 168.42188 190.90625Q168.76562 190.5 169.23438 190.28125Q169.70312 190.04688 170.28125 190.04688Q170.75 190.04688 171.125 190.17188Q171.5 190.29688 171.76562 190.57812Q172.03125 190.84375 172.17188 191.28125Q172.3125 191.71875 172.3125 192.34375L172.3125 196.5L171.21875 196.5L171.21875 192.32812Q171.21875 191.82812 171.07812 191.53125Q170.9375 191.23438 170.65625 191.09375Q170.375 190.95312 169.95312 190.95312Q169.54688 190.95312 169.21875 191.125Q168.89062 191.29688 168.65625 191.59375Q168.42188 191.89062 168.28125 192.28125Q168.15625 192.65625 168.15625 193.09375ZM178.01562 194.8125Q178.01562 194.57812 177.90625 194.375Q177.8125 194.17188 177.5 194.01562Q177.1875 193.84375 176.5625 193.71875Q176.03125 193.60938 175.60938 193.46875Q175.1875 193.3125 174.89062 193.09375Q174.59375 192.875 174.4375 192.57812Q174.28125 192.28125 174.28125 191.89062Q174.28125 191.51562 174.4375 191.1875Q174.60938 190.84375 174.90625 190.59375Q175.21875 190.32812 175.65625 190.1875Q176.09375 190.04688 176.625 190.04688Q177.39062 190.04688 177.92188 190.3125Q178.46875 190.57812 178.75 191.03125Q179.03125 191.48438 179.03125 192.01562L177.95312 192.01562Q177.95312 191.76562 177.79688 191.51562Q177.64062 191.26562 177.34375 191.10938Q177.04688 190.9375 176.625 190.9375Q176.17188 190.9375 175.89062 191.07812Q175.60938 191.20312 175.48438 191.42188Q175.35938 191.625 175.35938 191.85938Q175.35938 192.04688 175.42188 192.1875Q175.48438 192.3125 175.64062 192.4375Q175.79688 192.54688 176.07812 192.65625Q176.375 192.75 176.82812 192.84375Q177.60938 193.01562 178.10938 193.26562Q178.60938 193.51562 178.85938 193.875Q179.10938 194.21875 179.10938 194.73438Q179.10938 195.15625 178.92188 195.5Q178.75 195.84375 178.42188 196.09375Q178.10938 196.34375 177.65625 196.48438Q177.20312 196.625 176.65625 196.625Q175.8125 196.625 175.23438 196.32812Q174.65625 196.01562 174.35938 195.54688Q174.0625 195.0625 174.0625 194.54688L175.14062 194.54688Q175.17188 194.98438 175.40625 195.25Q175.64062 195.51562 175.96875 195.625Q176.3125 195.71875 176.65625 195.71875Q177.09375 195.71875 177.39062 195.60938Q177.70312 195.48438 177.85938 195.28125Q178.01562 195.07812 178.01562 194.8125ZM182.98438 190.15625L182.98438 190.98438L179.54688 190.98438L179.54688 190.15625L182.98438 190.15625ZM180.71875 188.625L181.79688 188.625L181.79688 194.92188Q181.79688 195.25 181.89062 195.42188Q182.0 195.57812 182.15625 195.64062Q182.3125 195.6875 182.5 195.6875Q182.625 195.6875 182.76562 195.65625Q182.92188 195.625 183.0 195.60938L183.01562 196.5Q182.875 196.54688 182.67188 196.57812Q182.46875 196.625 182.17188 196.625Q181.78125 196.625 181.4375 196.46875Q181.10938 196.29688 180.90625 195.9375Q180.71875 195.5625 180.71875 194.92188L180.71875 188.625ZM185.5 190.15625L185.5 196.5L184.42188 196.5L184.42188 190.15625L185.5 190.15625ZM184.32812 188.48438Q184.32812 188.21875 184.48438 188.03125Q184.65625 187.84375 184.96875 187.84375Q185.28125 187.84375 185.4375 188.03125Q185.60938 188.21875 185.60938 188.48438Q185.60938 188.73438 185.4375 188.92188Q185.28125 189.09375 184.96875 189.09375Q184.65625 189.09375 184.48438 188.92188Q184.32812 188.73438 184.32812 188.48438ZM191.4375 190.15625L192.42188 190.15625L192.42188 196.35938Q192.42188 197.20312 192.07812 197.79688Q191.73438 198.39062 191.125 198.6875Q190.53125 199.0 189.73438 199.0Q189.40625 199.0 188.95312 198.89062Q188.51562 198.79688 188.09375 198.54688Q187.67188 198.3125 187.39062 197.90625L187.95312 197.25Q188.35938 197.73438 188.78125 197.92188Q189.21875 198.10938 189.65625 198.10938Q190.17188 198.10938 190.54688 197.90625Q190.92188 197.71875 191.125 197.34375Q191.32812 196.96875 191.32812 196.42188L191.32812 191.54688L191.4375 190.15625ZM187.0625 193.40625L187.0625 193.28125Q187.0625 192.54688 187.23438 191.95312Q187.42188 191.35938 187.73438 190.9375Q188.0625 190.5 188.51562 190.28125Q188.98438 190.04688 189.57812 190.04688Q190.17188 190.04688 190.60938 190.25Q191.0625 190.45312 191.375 190.85938Q191.6875 191.25 191.875 191.8125Q192.0625 192.35938 192.125 193.0625L192.125 193.60938Q192.0625 194.29688 191.875 194.85938Q191.6875 195.42188 191.375 195.8125Q191.0625 196.20312 190.60938 196.42188Q190.15625 196.625 189.5625 196.625Q188.98438 196.625 188.53125 196.39062Q188.07812 196.14062 187.75 195.70312Q187.42188 195.26562 187.23438 194.6875Q187.0625 194.09375 187.0625 193.40625ZM188.15625 193.28125L188.15625 193.40625Q188.15625 193.875 188.25 194.29688Q188.34375 194.70312 188.54688 195.03125Q188.75 195.34375 189.0625 195.53125Q189.39062 195.70312 189.82812 195.70312Q190.35938 195.70312 190.70312 195.46875Q191.0625 195.23438 191.26562 194.85938Q191.48438 194.48438 191.59375 194.04688L191.59375 192.64062Q191.53125 192.3125 191.39062 192.01562Q191.26562 191.71875 191.0625 191.48438Q190.85938 191.23438 190.54688 191.09375Q190.25 190.95312 189.82812 190.95312Q189.39062 190.95312 189.0625 191.14062Q188.75 191.32812 188.54688 191.65625Q188.34375 191.96875 188.25 192.39062Q188.15625 192.79688 188.15625 193.28125ZM196.95312 196.625Q196.29688 196.625 195.75 196.40625Q195.21875 196.17188 194.82812 195.76562Q194.45312 195.34375 194.25 194.78125Q194.04688 194.21875 194.04688 193.54688L194.04688 193.3125Q194.04688 192.53125 194.26562 191.92188Q194.5 191.3125 194.89062 190.89062Q195.28125 190.46875 195.78125 190.26562Q196.28125 190.04688 196.8125 190.04688Q197.5 190.04688 197.98438 190.28125Q198.48438 190.51562 198.79688 190.9375Q199.125 191.34375 199.26562 191.92188Q199.42188 192.48438 199.42188 193.14062L199.42188 193.64062L194.6875 193.64062L194.6875 192.75L198.34375 192.75L198.34375 192.67188Q198.3125 192.25 198.15625 191.85938Q198.01562 191.45312 197.6875 191.20312Q197.375 190.9375 196.8125 190.9375Q196.45312 190.9375 196.14062 191.09375Q195.82812 191.25 195.59375 191.5625Q195.375 191.85938 195.25 192.29688Q195.14062 192.73438 195.14062 193.3125L195.14062 193.54688Q195.14062 194.0 195.26562 194.40625Q195.39062 194.79688 195.625 195.09375Q195.875 195.39062 196.21875 195.5625Q196.57812 195.73438 197.01562 195.73438Q197.59375 195.73438 197.98438 195.5Q198.39062 195.26562 198.6875 194.875L199.34375 195.39062Q199.14062 195.70312 198.8125 195.98438Q198.5 196.26562 198.03125 196.45312Q197.57812 196.625 196.95312 196.625Z" fill-rule="nonzero"/><path stroke="#cccccc" stroke-width="1.0" stroke-linecap="butt" d="M372.0 305.0L372.0 103.0" fill-rule="nonzero"/><path stroke="#ff0000" stroke-width="2.0" stroke-linecap="butt" stroke-opacity="0.7019608" stroke-dasharray="8.0,6.0,2.0,6.0" d="M372.0 73.0L564.0 194.0L477.0 366.0L372.0 416.0L276.0 360.0L189.0 199.0Z" fill-rule="nonzero"/><path fill="#ff0000" fill-opacity="0.7019608" d="M368.81802 69.818016L372.0 71.875L375.18198 69.818016L373.125 73.0L375.18198 76.181984L372.0 74.125L368.81802 76.181984L370.875 73.0Z" fill-rule="nonzero"/><path fill="#ff0000" fill-opacity="0.7019608" d="M560.818 190.81802L564.0 192.875L567.182 190.81802L565.125 194.0L567.182 197.18198L564.0 195.125L560.818 197.18198L562.875 194.0Z" fill-rule="nonzero"/><path fill="#ff0000" fill-opacity="0.7019608" d="M473.81802 362.81802L477.0 364.875L480.18198 362.81802L478.125 366.0L480.18198 369.18198L477.0 367.125L473.81802 369.18198L475.875 366.0Z" fill-rule="nonzero"/><path fill="#ff0000" fill-opacity="0.7019608" d="M368.81802 412.81802L372.0 414.875L375.18198 412.81802L373.125 416.0L375.18198 419.18198L372.0 417.125L368.81802 419.18198L370.875 416.0Z" fill-rule="nonzero"/><path fill="#ff0000" fill-opacity="0.7019608" d="M272.81802 356.81802L276.0 358.875L279.18198 356.81802L277.125 360.0L279.18198 363.18198L276.0 361.125L272.81802 363.18198L274.875 360.0Z" fill-rule="nonzero"/><path fill="#ff0000" fill-opacity="0.7019608" d="M185.81802 195.81802L189.0 197.875L192.18198 195.81802L190.125 199.0L192.18198 202.18198L189.0 200.125L185.81802 202.18198L187.875 199.0Z" fill-rule="nonzero"/><path fill="#757575" d="M36.6 41.740623L36.6 40.053123L42.6625 40.0375L42.6625 45.35Q41.25625 46.475 39.771873 47.0375Q38.2875 47.6 36.725 47.6Q34.615623 47.6 32.896873 46.69375Q31.178125 45.7875 30.2875 44.084373Q29.4125 42.365623 29.4125 40.25625Q29.4125 38.1625 30.2875 36.365623Q31.1625 34.553123 32.803123 33.678123Q34.44375 32.7875 36.584373 32.7875Q38.13125 32.7875 39.38125 33.2875Q40.646873 33.7875 41.35 34.69375Q42.06875 35.584373 42.44375 37.0375L40.740623 37.50625Q40.4125 36.4125 39.928123 35.7875Q39.459373 35.1625 38.56875 34.7875Q37.678123 34.4125 36.6 34.4125Q35.2875 34.4125 34.334373 34.803123Q33.396873 35.19375 32.81875 35.85Q32.240623 36.490623 31.9125 37.25625Q31.365625 38.584373 31.365625 40.146873Q31.365625 42.053123 32.021873 43.35Q32.69375 44.63125 33.94375 45.25625Q35.209373 45.88125 36.615623 45.88125Q37.85 45.88125 39.021873 45.4125Q40.19375 44.94375 40.803123 44.396873L40.803123 41.740623L36.6 41.740623ZM45.646873 47.35L45.646873 36.975L47.225 36.975L47.225 38.553123Q47.834373 37.44375 48.35 37.1Q48.865623 36.740623 49.475 36.740623Q50.365623 36.740623 51.2875 37.303123L50.678123 38.94375Q50.0375 38.553123 49.396873 38.553123Q48.81875 38.553123 48.35 38.9125Q47.896873 39.25625 47.69375 39.865623Q47.4125 40.803123 47.4125 41.9125L47.4125 47.35L45.646873 47.35ZM59.44375 46.06875Q58.459373 46.896873 57.553123 47.240623Q56.646873 47.584373 55.615623 47.584373Q53.9125 47.584373 52.990623 46.75625Q52.06875 45.9125 52.06875 44.615623Q52.06875 43.85 52.4125 43.225Q52.771873 42.6 53.334373 42.225Q53.896873 41.834373 54.6 41.63125Q55.115623 41.50625 56.1625 41.365623Q58.2875 41.115623 59.2875 40.771873Q59.303123 40.4125 59.303123 40.303123Q59.303123 39.240623 58.803123 38.7875Q58.13125 38.19375 56.803123 38.19375Q55.553123 38.19375 54.959373 38.63125Q54.38125 39.06875 54.1 40.178123L52.38125 39.94375Q52.615623 38.834373 53.146873 38.1625Q53.678123 37.475 54.69375 37.115623Q55.709373 36.740623 57.053123 36.740623Q58.38125 36.740623 59.209373 37.053123Q60.0375 37.365623 60.428123 37.85Q60.81875 38.31875 60.975 39.0375Q61.06875 39.490623 61.06875 40.6625L61.06875 43.00625Q61.06875 45.459373 61.178123 46.115623Q61.2875 46.75625 61.63125 47.35L59.7875 47.35Q59.521873 46.803123 59.44375 46.06875ZM59.2875 42.146873Q58.334373 42.5375 56.4125 42.803123Q55.334373 42.959373 54.88125 43.1625Q54.44375 43.35 54.19375 43.725Q53.94375 44.1 53.94375 44.56875Q53.94375 45.271873 54.475 45.740623Q55.00625 46.209373 56.0375 46.209373Q57.053123 46.209373 57.834373 45.771873Q58.63125 45.31875 59.00625 44.553123Q59.2875 43.94375 59.2875 42.7875L59.2875 42.146873ZM63.6625 51.31875L63.6625 36.975L65.27187 36.975L65.27187 38.31875Q65.83437 37.5375 66.5375 37.146873Q67.25625 36.740623 68.27187 36.740623Q69.6 36.740623 70.61562 37.428123Q71.63125 38.115623 72.14687 39.365623Q72.67812 40.6 72.67812 42.084373Q72.67812 43.678123 72.1 44.959373Q71.5375 46.225 70.44375 46.9125Q69.35 47.584373 68.14687 47.584373Q67.27187 47.584373 66.56875 47.209373Q65.88125 46.834373 65.42812 46.271873L65.42812 51.31875L63.6625 51.31875ZM65.25625 42.225Q65.25625 44.225 66.06875 45.178123Q66.88125 46.13125 68.0375 46.13125Q69.20937 46.13125 70.0375 45.146873Q70.88125 44.1625 70.88125 42.06875Q70.88125 40.1 70.05312 39.115623Q69.24062 38.115623 68.11562 38.115623Q66.99062 38.115623 66.11562 39.178123Q65.25625 40.225 65.25625 42.225ZM81.77187 44.00625L83.58437 44.240623Q83.1625 45.81875 81.99062 46.709373Q80.83437 47.584373 79.02187 47.584373Q76.75625 47.584373 75.4125 46.19375Q74.08437 44.7875 74.08437 42.25625Q74.08437 39.63125 75.42812 38.19375Q76.77187 36.740623 78.92812 36.740623Q81.00625 36.740623 82.31875 38.1625Q83.64687 39.56875 83.64687 42.146873Q83.64687 42.303123 83.63125 42.615623L75.89687 42.615623Q75.99062 44.31875 76.86562 45.225Q77.74062 46.13125 79.0375 46.13125Q80.00625 46.13125 80.67812 45.63125Q81.36562 45.115623 81.77187 44.00625ZM75.99062 41.1625L81.7875 41.1625Q81.67812 39.865623 81.13125 39.209373Q80.2875 38.19375 78.94375 38.19375Q77.74062 38.19375 76.9125 39.00625Q76.08437 39.803123 75.99062 41.1625ZM91.81875 47.35L91.81875 33.0375L97.19375 33.0375Q98.83437 33.0375 99.81875 33.475Q100.80312 33.896873 101.36562 34.803123Q101.92812 35.709373 101.92812 36.69375Q101.92812 37.615623 101.42812 38.428123Q100.94375 39.240623 99.92812 39.725Q101.225 40.115623 101.92812 41.0375Q102.63125 41.94375 102.63125 43.19375Q102.63125 44.209373 102.19375 45.06875Q101.77187 45.928123 101.14687 46.396873Q100.52187 46.865623 99.58437 47.115623Q98.64687 47.35 97.27187 47.35L91.81875 47.35ZM93.70937 39.053123L96.80312 39.053123Q98.06875 39.053123 98.61562 38.88125Q99.33437 38.6625 99.69375 38.178123Q100.06875 37.678123 100.06875 36.9125Q100.06875 36.209373 99.725 35.6625Q99.38125 35.115623 98.74062 34.928123Q98.11562 34.725 96.56875 34.725L93.70937 34.725L93.70937 39.053123ZM93.70937 45.6625L97.27187 45.6625Q98.19375 45.6625 98.56875 45.584373Q99.225 45.475 99.6625 45.209373Q100.1 44.928123 100.38125 44.4125Q100.6625 43.88125 100.6625 43.19375Q100.6625 42.396873 100.25625 41.803123Q99.85 41.209373 99.11562 40.975Q98.38125 40.740623 97.02187 40.740623L93.70937 40.740623L93.70937 45.6625ZM111.45937 47.35L111.45937 45.81875Q110.25625 47.584373 108.17812 47.584373Q107.25625 47.584373 106.45937 47.240623Q105.6625 46.88125 105.27187 46.35Q104.89687 45.81875 104.74062 45.0375Q104.63125 44.521873 104.63125 43.396873L104.63125 36.975L106.38125 36.975L106.38125 42.725Q106.38125 44.1 106.49062 44.584373Q106.6625 45.271873 107.19375 45.678123Q107.74062 46.06875 108.52187 46.06875Q109.31875 46.06875 110.00625 45.6625Q110.70937 45.25625 110.99062 44.56875Q111.2875 43.865623 111.2875 42.5375L111.2875 36.975L113.0375 36.975L113.0375 47.35L111.45937 47.35ZM114.64687 47.35L114.64687 36.975L116.225 36.975L116.225 38.553123Q116.83437 37.44375 117.35 37.1Q117.86562 36.740623 118.475 36.740623Q119.36562 36.740623 120.2875 37.303123L119.67812 38.94375Q119.0375 38.553123 118.39687 38.553123Q117.81875 38.553123 117.35 38.9125Q116.89687 39.25625 116.69375 39.865623Q116.4125 40.803123 116.4125 41.9125L116.4125 47.35L114.64687 47.35ZM121.35 48.209373L123.05312 48.459373Q123.1625 49.25625 123.64687 49.615623Q124.30312 50.1 125.44375 50.1Q126.6625 50.1 127.31875 49.615623Q127.99062 49.13125 128.225 48.25625Q128.36563 47.709373 128.35 45.990623Q127.19375 47.35 125.475 47.35Q123.33437 47.35 122.1625 45.803123Q120.99062 44.25625 120.99062 42.1Q120.99062 40.615623 121.52187 39.365623Q122.06875 38.115623 123.08437 37.428123Q124.11562 36.740623 125.49062 36.740623Q127.31875 36.740623 128.52188 38.225L128.52188 36.975L130.13126 36.975L130.13126 45.94375Q130.13126 48.365623 129.63126 49.365623Q129.14688 50.38125 128.06876 50.959373Q127.00625 51.553123 125.44375 51.553123Q123.6 51.553123 122.44375 50.725Q121.30312 49.896873 121.35 48.209373ZM122.80312 41.975Q122.80312 44.021873 123.61562 44.959373Q124.42812 45.896873 125.64687 45.896873Q126.85 45.896873 127.6625 44.959373Q128.49063 44.021873 128.49063 42.0375Q128.49063 40.13125 127.64687 39.1625Q126.80312 38.19375 125.61562 38.19375Q124.44375 38.19375 123.61562 39.146873Q122.80312 40.1 122.80312 41.975ZM139.77188 44.00625L141.58438 44.240623Q141.1625 45.81875 139.99063 46.709373Q138.83438 47.584373 137.02188 47.584373Q134.75626 47.584373 133.4125 46.19375Q132.08438 44.7875 132.08438 42.25625Q132.08438 39.63125 133.42813 38.19375Q134.77188 36.740623 136.92813 36.740623Q139.00626 36.740623 140.31876 38.1625Q141.64688 39.56875 141.64688 42.146873Q141.64688 42.303123 141.63126 42.615623L133.89688 42.615623Q133.99063 44.31875 134.86563 45.225Q135.74063 46.13125 137.0375 46.13125Q138.00626 46.13125 138.67813 45.63125Q139.36563 45.115623 139.77188 44.00625ZM133.99063 41.1625L139.7875 41.1625Q139.67813 39.865623 139.13126 39.209373Q138.2875 38.19375 136.94376 38.19375Q135.74063 38.19375 134.9125 39.00625Q134.08438 39.803123 133.99063 41.1625ZM143.64688 47.35L143.64688 36.975L145.225 36.975L145.225 38.553123Q145.83438 37.44375 146.35 37.1Q146.86563 36.740623 147.475 36.740623Q148.36563 36.740623 149.2875 37.303123L148.67813 38.94375Q148.0375 38.553123 147.39688 38.553123Q146.81876 38.553123 146.35 38.9125Q145.89688 39.25625 145.69376 39.865623Q145.4125 40.803123 145.4125 41.9125L145.4125 47.35L143.64688 47.35Z" fill-rule="nonzero"/></svg>