<svg version="1.1" viewBox="0.0 0.0 744.0 567.0" fill="none" stroke="none" stroke-linecap="square" stroke-miterlimit="10" width="744" height="567" xmlns:xlink="http://www.w3.org/1999/xlink" xmlns="http://www.w3.org/2000/svg"><path fill="#ffffff" d="M0 0L744.0 0L744.0 567.0L0 567.0L0 0Z" fill-rule="nonzero"/><path fill="#ffffff" d="M28.35 71.25L715.64996 71.25L715.64996 538.65L28.35 538.65L28.35 71.25Z" fill-rule="nonzero"/><path stroke="#cccccc" stroke-width="1.0" stroke-linecap="butt" d="M372.0 305.0C372.0 305.0 372.0 305.0 372.0 305.0C372.0 305.0 372.0 305.0 372.0 305.0C372.0 305.0 372.0 305.0 372.0 305.0C372.0 305.0 372.0 305.0 372.0 305.0" fill-rule="nonzero"/><path fill="#000000" d="M360.0625 297.04688L360.0625 298.35938Q360.0625 299.40625 359.875 300.125Q359.6875 300.84375 359.32812 301.28125Q358.98438 301.71875 358.48438 301.92188Q358.0 302.125 357.375 302.125Q356.89062 302.125 356.46875 302.0Q356.04688 301.875 355.71875 301.60938Q355.39062 301.32812 355.15625 300.89062Q354.92188 300.45312 354.79688 299.82812Q354.67188 299.1875 354.67188 298.35938L354.67188 297.04688Q354.67188 296.0 354.85938 295.29688Q355.0625 294.59375 355.40625 294.15625Q355.76562 293.71875 356.25 293.53125Q356.75 293.34375 357.35938 293.34375Q357.85938 293.34375 358.28125 293.46875Q358.70312 293.59375 359.03125 293.85938Q359.35938 294.10938 359.57812 294.54688Q359.8125 294.96875 359.9375 295.59375Q360.0625 296.21875 360.0625 297.04688ZM358.96875 298.53125L358.96875 296.875Q358.96875 296.29688 358.90625 295.85938Q358.84375 295.42188 358.70312 295.10938Q358.57812 294.79688 358.375 294.60938Q358.1875 294.42188 357.9375 294.32812Q357.6875 294.23438 357.35938 294.23438Q356.98438 294.23438 356.67188 294.375Q356.375 294.51562 356.17188 294.82812Q355.96875 295.14062 355.85938 295.65625Q355.76562 296.15625 355.76562 296.875L355.76562 298.53125Q355.76562 299.10938 355.82812 299.54688Q355.90625 299.98438 356.03125 300.3125Q356.17188 300.625 356.35938 300.82812Q356.5625 301.03125 356.8125 301.125Q357.0625 301.21875 357.375 301.21875Q357.78125 301.21875 358.07812 301.07812Q358.375 300.92188 358.57812 300.59375Q358.78125 300.26562 358.875 299.76562Q358.96875 299.25 358.96875 298.53125ZM362.8125 300.70312L362.8125 301.57812Q362.8125 302.125 362.53125 302.71875Q362.26562 303.3125 361.78125 303.70312L361.17188 303.28125Q361.35938 303.01562 361.48438 302.75Q361.60938 302.48438 361.67188 302.20312Q361.75 301.92188 361.75 301.59375L361.75 300.70312L362.8125 300.70312ZM369.0625 297.04688L369.0625 298.35938Q369.0625 299.40625 368.875 300.125Q368.6875 300.84375 368.32812 301.28125Q367.98438 301.71875 367.48438 301.92188Q367.0 302.125 366.375 302.125Q365.89062 302.125 365.46875 302.0Q365.04688 301.875 364.71875 301.60938Q364.39062 301.32812 364.15625 300.89062Q363.92188 300.45312 363.79688 299.82812Q363.67188 299.1875 363.67188 298.35938L363.67188 297.04688Q363.67188 296.0 363.85938 295.29688Q364.0625 294.59375 364.40625 294.15625Q364.76562 293.71875 365.25 293.53125Q365.75 293.34375 366.35938 293.34375Q366.85938 293.34375 367.28125 293.46875Q367.70312 293.59375 368.03125 293.85938Q368.35938 294.10938 368.57812 294.54688Q368.8125 294.96875 368.9375 295.59375Q369.0625 296.21875 369.0625 297.04688ZM367.96875 298.53125L367.96875 296.875Q367.96875 296.29688 367.90625 295.85938Q367.84375 295.42188 367.70312 295.10938Q367.57812 294.79688 367.375 294.60938Q367.1875 294.42188 366.9375 294.32812Q366.6875 294.23438 366.35938 294.23438Q365.98438 294.23438 365.67188 294.375Q365.375 294.51562 365.17188 294.82812Q364.96875 295.14062 364.85938 295.65625Q364.76562 296.15625 364.76562 296.875L364.76562 298.53125Q364.76562 299.10938 364.82812 299.54688Q364.90625 299.98438 365.03125 300.3125Q365.17188 300.625 365.35938 300.82812Q365.5625 301.03125 365.8125 301.125Q366.0625 301.21875 366.375 301.21875Q366.78125 301.21875 367.07812 301.07812Q367.375 300.92188 367.57812 300.59375Q367.78125 300.26562 367.875 299.76562Q367.96875 299.25 367.96875 298.53125Z" fill-rule="nonzero"/><path stroke="#cccccc" stroke-width="1.0" stroke-linecap="butt" d="M422.425 305.0C422.425 277.15103 399.84897 254.575 372.0 254.575C344.15103 254.575 321.575 277.15103 321.575 305.0C321.575 332.84897 344.15103 355.425 372.0 355.425C399.84897 355.425 422.425 332.84897 422.425 305.0" fill-rule="nonzero"/><path fill="#000000" d="M360.0625 246.62187L360.0625 247.93437Q360.0625 248.98125 359.875 249.7Q359.6875 250.41875 359.32812 250.85625Q358.98438 251.29375 358.48438 251.49687Q358.0 251.7 357.375 251.7Q356.89062 251.7 356.46875 251.575Q356.04688 251.45 355.71875 251.18437Q355.39062 250.90312 355.15625 250.46562Q354.92188 250.02812 354.79688 249.40312Q354.67188 248.7625 354.67188 247.93437L354.67188 246.62187Q354.67188 245.575 354.85938 244.87187Q355.0625 244.16875 355.40625 243.73125Q355.76562 243.29375 356.25 243.10625Q356.75 242.91875 357.35938 242.91875Q357.85938 242.91875 358.28125 243.04375Q358.70312 243.16875 359.03125 243.43437Q359.35938 243.68437 359.57812 244.12187Q359.8125 244.54375 359.9375 245.16875Q360.0625 245.79375 360.0625 246.62187ZM358.96875 248.10625L358.96875 246.45Q358.96875 245.87187 358.90625 245.43437Q358.84375 244.99687 358.70312 244.68437Q358.57812 244.37187 358.375 244.18437Q358.1875 243.99687 357.9375 243.90312Q357.6875 243.80937 357.35938 243.80937Q356.98438 243.80937 356.67188 243.95Q356.375 244.09062 356.17188 244.40312Q355.96875 244.71562 355.85938 245.23125Q355.76562 245.73125 355.76562 246.45L355.76562 248.10625Q355.76562 248.68437 355.82812 249.12187Q355.90625 249.55937 356.03125 249.8875Q356.17188 250.2 356.35938 250.40312Q356.5625 250.60625 356.8125 250.7Q357.0625 250.79375 357.375 250.79375Q357.78125 250.79375 358.07812 250.65312Q358.375 250.49687 358.57812 250.16875Q358.78125 249.84062 358.875 249.34062Q358.96875 248.825 358.96875 248.10625ZM362.8125 250.27812L362.8125 251.15312Q362.8125 251.7 362.53125 252.29375Q362.26562 252.8875 361.78125 253.27812L361.17188 252.85625Q361.35938 252.59062 361.48438 252.325Q361.60938 252.05937 361.67188 251.77812Q361.75 251.49687 361.75 251.16875L361.75 250.27812L362.8125 250.27812ZM367.26562 242.99687L367.26562 251.575L366.1875 251.575L366.1875 244.35625L364.0 245.15312L364.0 244.16875L367.10938 242.99687L367.26562 242.99687Z" fill-rule="nonzero"/><path stroke="#cccccc" stroke-width="1.0" stroke-linecap="butt" d="M472.85 305.0C472.85 249.30208 427.6979 204.15 372.0 204.15C316.3021 204.15 271.15 249.30208 271.15 305.0C271.15 360.6979 316.3021 405.85 372.0 405.85C427.6979 405.85 472.85 360.6979 472.85 305.0" fill-rule="nonzero"/><path fill="#000000" d="M360.0625 196.19687L360.0625 197.50937Q360.0625 198.55624 359.875 199.275Q359.6875 199.99374 359.32812 200.43124Q358.98438 200.86874 358.48438 201.07187Q358.0 201.275 357.375 201.275Q356.89062 201.275 356.46875 201.15Q356.04688 201.025 355.71875 200.75937Q355.39062 200.47812 355.15625 200.04062Q354.92188 199.60312 354.79688 198.97812Q354.67188 198.3375 354.67188 197.50937L354.67188 196.19687Q354.67188 195.15 354.85938 194.44687Q355.0625 193.74374 355.40625 193.30624Q355.76562 192.86874 356.25 192.68124Q356.75 192.49374 357.35938 192.49374Q357.85938 192.49374 358.28125 192.61874Q358.70312 192.74374 359.03125 193.00937Q359.35938 193.25937 359.57812 193.69687Q359.8125 194.11874 359.9375 194.74374Q360.0625 195.36874 360.0625 196.19687ZM358.96875 197.68124L358.96875 196.025Q358.96875 195.44687 358.90625 195.00937Q358.84375 194.57187 358.70312 194.25937Q358.57812 193.94687 358.375 193.75937Q358.1875 193.57187 357.9375 193.47812Q357.6875 193.38437 357.35938 193.38437Q356.98438 193.38437 356.67188 193.525Q356.375 193.66562 356.17188 193.97812Q355.96875 194.29062 355.85938 194.80624Q355.76562 195.30624 355.76562 196.025L355.76562 197.68124Q355.76562 198.25937 355.82812 198.69687Q355.90625 199.13437 356.03125 199.4625Q356.17188 199.775 356.35938 199.97812Q356.5625 200.18124 356.8125 200.275Q357.0625 200.36874 357.375 200.36874Q357.78125 200.36874 358.07812 200.22812Q358.375 200.07187 358.57812 199.74374Q358.78125 199.41562 358.875 198.91562Q358.96875 198.4 358.96875 197.68124ZM362.8125 199.85312L362.8125 200.72812Q362.8125 201.275 362.53125 201.86874Q362.26562 202.4625 361.78125 202.85312L361.17188 202.43124Q361.35938 202.16562 361.48438 201.9Q361.60938 201.63437 361.67188 201.35312Q361.75 201.07187 361.75 200.74374L361.75 199.85312L362.8125 199.85312ZM369.29688 200.25937L369.29688 201.15L363.71875 201.15L363.71875 200.36874L366.51562 197.25937Q367.03125 196.68124 367.3125 196.29062Q367.59375 195.88437 367.70312 195.57187Q367.82812 195.24374 367.82812 194.91562Q367.82812 194.49374 367.65625 194.15Q367.48438 193.80624 367.14062 193.60312Q366.8125 193.38437 366.32812 193.38437Q365.76562 193.38437 365.39062 193.61874Q365.01562 193.8375 364.82812 194.22812Q364.64062 194.61874 364.64062 195.11874L363.54688 195.11874Q363.54688 194.4 363.85938 193.80624Q364.1875 193.2125 364.79688 192.85312Q365.42188 192.49374 366.32812 192.49374Q367.14062 192.49374 367.71875 192.79062Q368.29688 193.07187 368.59375 193.5875Q368.90625 194.0875 368.90625 194.775Q368.90625 195.15 368.78125 195.54062Q368.65625 195.91562 368.4375 196.30624Q368.21875 196.68124 367.92188 197.05624Q367.64062 197.41562 367.3125 197.775L365.01562 200.25937L369.29688 200.25937Z" fill-rule="nonzero"/><path stroke="#cccccc" stroke-width="1.0" stroke-linecap="butt" d="M523.275 305.0C523.275 221.45312 455.54688 153.725 372.0 153.725C288.45312 153.725 220.725 221.45312 220.725 305.0C220.725 388.54688 288.45312 456.275 372.0 456.275C455.54688 456.275 523.275 388.54688 523.275 305.0" fill-rule="nonzero"/><path fill="#000000" d="M360.0625 145.77188L360.0625 147.08438Q360.0625 148.13126 359.875 148.85Q359.6875 149.56876 359.32812 150.00626Q358.98438 150.44376 358.48438 150.64688Q358.0 150.85 357.375 150.85Q356.89062 150.85 356.46875 150.725Q356.04688 150.6 355.71875 150.33438Q355.39062 150.05313 355.15625 149.61563Q354.92188 149.17813 354.79688 148.55313Q354.67188 147.9125 354.67188 147.08438L354.67188 145.77188Q354.67188 144.725 354.85938 144.02188Q355.0625 143.31876 355.40625 142.88126Q355.76562 142.44376 356.25 142.25626Q356.75 142.06876 357.35938 142.06876Q357.85938 142.06876 358.28125 142.19376Q358.70312 142.31876 359.03125 142.58438Q359.35938 142.83438 359.57812 143.27188Q359.8125 143.69376 359.9375 144.31876Q360.0625 144.94376 360.0625 145.77188ZM358.96875 147.25626L358.96875 145.6Q358.96875 145.02188 358.90625 144.58438Q358.84375 144.14688 358.70312 143.83438Q358.57812 143.52188 358.375 143.33438Q358.1875 143.14688 357.9375 143.05313Q357.6875 142.95938 357.35938 142.95938Q356.98438 142.95938 356.67188 143.1Q356.375 143.24063 356.17188 143.55313Q355.96875 143.86563 355.85938 144.38126Q355.76562 144.88126 355.76562 145.6L355.76562 147.25626Q355.76562 147.83438 355.82812 148.27188Q355.90625 148.70938 356.03125 149.0375Q356.17188 149.35 356.35938 149.55313Q356.5625 149.75626 356.8125 149.85Q357.0625 149.94376 357.375 149.94376Q357.78125 149.94376 358.07812 149.80313Q358.375 149.64688 358.57812 149.31876Q358.78125 148.99063 358.875 148.49063Q358.96875 147.975 358.96875 147.25626ZM362.8125 149.42813L362.8125 150.30313Q362.8125 150.85 362.53125 151.44376Q362.26562 152.0375 361.78125 152.42813L361.17188 152.00626Q361.35938 151.74063 361.48438 151.475Q361.60938 151.20938 361.67188 150.92813Q361.75 150.64688 361.75 150.31876L361.75 149.42813L362.8125 149.42813ZM365.29688 145.92813L366.0625 145.92813Q366.64062 145.92813 367.0 145.74063Q367.375 145.5375 367.5625 145.20938Q367.75 144.88126 367.75 144.45938Q367.75 143.975 367.57812 143.64688Q367.42188 143.30313 367.09375 143.13126Q366.76562 142.95938 366.26562 142.95938Q365.79688 142.95938 365.45312 143.14688Q365.10938 143.31876 364.90625 143.64688Q364.71875 143.975 364.71875 144.42813L363.625 144.42813Q363.625 143.77188 363.95312 143.24063Q364.28125 142.70938 364.875 142.39688Q365.46875 142.06876 366.26562 142.06876Q367.03125 142.06876 367.60938 142.35Q368.1875 142.61563 368.51562 143.1625Q368.84375 143.69376 368.84375 144.49063Q368.84375 144.81876 368.6875 145.17813Q368.53125 145.5375 368.21875 145.86563Q367.90625 146.17813 367.40625 146.38126Q366.92188 146.58438 366.21875 146.58438L365.29688 146.58438L365.29688 145.92813ZM365.29688 146.81876L365.29688 146.1625L366.21875 146.1625Q367.03125 146.1625 367.5625 146.36563Q368.09375 146.55313 368.40625 146.88126Q368.71875 147.19376 368.84375 147.58438Q368.96875 147.95938 368.96875 148.35Q368.96875 148.94376 368.76562 149.4125Q368.5625 149.86563 368.1875 150.19376Q367.82812 150.50626 367.32812 150.67813Q366.84375 150.85 366.26562 150.85Q365.70312 150.85 365.21875 150.69376Q364.73438 150.52188 364.35938 150.225Q363.98438 149.92813 363.76562 149.49063Q363.5625 149.0375 363.5625 148.475L364.64062 148.475Q364.64062 148.9125 364.82812 149.25626Q365.03125 149.58438 365.39062 149.77188Q365.76562 149.94376 366.26562 149.94376Q366.76562 149.94376 367.125 149.77188Q367.48438 149.6 367.67188 149.25626Q367.875 148.89688 367.875 148.36563Q367.875 147.83438 367.65625 147.49063Q367.4375 147.14688 367.01562 146.99063Q366.60938 146.81876 366.0625 146.81876L365.29688 146.81876Z" fill-rule="nonzero"/><path stroke="#cccccc" stroke-width="1.0" stroke-linecap="butt" d="M573.7 305.0C573.7 193.60417 483.39584 103.3 372.0 103.3C260.60416 103.3 170.3 193.60417 170.3 305.0C170.3 416.39584 260.60416 506.7 372.0 506.7C483.39584 506.7 573.7 416.39584 573.7 305.0" fill-rule="nonzero"/><path fill="#000000" d="M360.0625 95.34688L360.0625 96.65938Q360.0625 97.70625 359.875 98.425Q359.6875 99.14375 359.32812 99.58125Q358.98438 100.01875 358.48438 100.22188Q358.0 100.425 357.375 100.425Q356.89062 100.425 356.46875 100.3Q356.04688 100.175 355.71875 99.90938Q355.39062 99.62813 355.15625 99.19063Q354.92188 98.75313 354.79688 98.12813Q354.67188 97.4875 354.67188 96.65938L354.67188 95.34688Q354.67188 94.3 354.85938 93.59688Q355.0625 92.89375 355.40625 92.45625Q355.76562 92.01875 356.25 91.83125Q356.75 91.64375 357.35938 91.64375Q357.85938 91.64375 358.28125 91.76875Q358.70312 91.89375 359.03125 92.15938Q359.35938 92.40938 359.57812 92.84688Q359.8125 93.26875 359.9375 93.89375Q360.0625 94.51875 360.0625 95.34688ZM358.96875 96.83125L358.96875 95.175Q358.96875 94.59688 358.90625 94.15938Q358.84375 93.72188 358.70312 93.40938Q358.57812 93.09688 358.375 92.90938Q358.1875 92.72188 357.9375 92.62813Q357.6875 92.53438 357.35938 92.53438Q356.98438 92.53438 356.67188 92.675Q356.375 92.81563 356.17188 93.12813Q355.96875 93.44063 355.85938 93.95625Q355.76562 94.45625 355.76562 95.175L355.76562 96.83125Q355.76562 97.40938 355.82812 97.84688Q355.90625 98.28438 356.03125 98.6125Q356.17188 98.925 356.35938 99.12813Q356.5625 99.33125 356.8125 99.425Q357.0625 99.51875 357.375 99.51875Q357.78125 99.51875 358.07812 99.37813Q358.375 99.22188 358.57812 98.89375Q358.78125 98.56563 358.875 98.06563Q358.96875 97.55 358.96875 96.83125ZM362.8125 99.00313L362.8125 99.87813Q362.8125 100.425 362.53125 101.01875Q362.26562 101.6125 361.78125 102.00313L361.17188 101.58125Q361.35938 101.31563 361.48438 101.05Q361.60938 100.78438 361.67188 100.50313Q361.75 100.22188 361.75 99.89375L361.75 99.00313L362.8125 99.00313ZM369.46875 97.425L369.46875 98.31563L363.3125 98.31563L363.3125 97.675L367.125 91.76875L368.01562 91.76875L367.0625 93.47188L364.54688 97.425L369.46875 97.425ZM368.28125 91.76875L368.28125 100.3L367.20312 100.3L367.20312 91.76875L368.28125 91.76875Z" fill-rule="nonzero"/><path stroke="#cccccc" stroke-width="1.0" stroke-linecap="butt" d="M372.0 305.0L372.0 103.0" fill-rule="nonzero"/><path fill="#000000" d="M342.64062 82.78125L343.76562 82.78125Q343.67188 83.59375 343.29688 84.234375Q342.92188 84.875 342.23438 85.25Q341.5625 85.625 340.53125 85.625Q339.78125 85.625 339.17188 85.34375Q338.5625 85.046875 338.10938 84.53125Q337.67188 84.015625 337.4375 83.296875Q337.20312 82.5625 337.20312 81.65625L337.20312 80.8125Q337.20312 79.921875 337.4375 79.1875Q337.67188 78.453125 338.125 77.9375Q338.57812 77.40625 339.20312 77.125Q339.84375 76.84375 340.625 76.84375Q341.59375 76.84375 342.26562 77.21875Q342.9375 77.578125 343.29688 78.21875Q343.67188 78.859375 343.76562 79.703125L342.64062 79.703125Q342.5625 79.109375 342.32812 78.6875Q342.10938 78.25 341.70312 78.015625Q341.29688 77.78125 340.625 77.78125Q340.0625 77.78125 339.625 78.0Q339.20312 78.203125 338.90625 78.609375Q338.625 79.0 338.46875 79.5625Q338.32812 80.125 338.32812 80.796875L338.32812 81.65625Q338.32812 82.28125 338.45312 82.84375Q338.59375 83.390625 338.85938 83.8125Q339.125 84.21875 339.54688 84.46875Q339.96875 84.703125 340.53125 84.703125Q341.25 84.703125 341.67188 84.46875Q342.10938 84.234375 342.32812 83.8125Q342.54688 83.390625 342.64062 82.78125ZM349.0625 84.421875L349.0625 81.15625Q349.0625 80.78125 348.90625 80.5Q348.76562 80.21875 348.46875 80.078125Q348.17188 79.921875 347.73438 79.921875Q347.3125 79.921875 347.0 80.0625Q346.70312 80.203125 346.53125 80.4375Q346.35938 80.65625 346.35938 80.921875L345.28125 80.921875Q345.28125 80.578125 345.45312 80.25Q345.625 79.90625 345.95312 79.640625Q346.28125 79.359375 346.75 79.203125Q347.21875 79.046875 347.79688 79.046875Q348.48438 79.046875 349.01562 79.28125Q349.54688 79.515625 349.84375 79.984375Q350.15625 80.453125 350.15625 81.15625L350.15625 84.109375Q350.15625 84.4375 350.20312 84.796875Q350.26562 85.140625 350.375 85.40625L350.375 85.5L349.23438 85.5Q349.15625 85.3125 349.10938 85.0Q349.0625 84.6875 349.0625 84.421875ZM349.25 81.65625L349.26562 82.421875L348.17188 82.421875Q347.70312 82.421875 347.34375 82.5Q346.98438 82.5625 346.73438 82.71875Q346.48438 82.859375 346.35938 83.078125Q346.23438 83.296875 346.23438 83.59375Q346.23438 83.890625 346.35938 84.140625Q346.5 84.375 346.76562 84.53125Q347.04688 84.671875 347.4375 84.671875Q347.9375 84.671875 348.3125 84.46875Q348.70312 84.25 348.92188 83.953125Q349.15625 83.640625 349.17188 83.34375L349.64062 83.875Q349.59375 84.109375 349.40625 84.421875Q349.23438 84.71875 348.92188 85.0Q348.625 85.265625 348.20312 85.453125Q347.79688 85.625 347.28125 85.625Q346.64062 85.625 346.15625 85.375Q345.67188 85.109375 345.40625 84.6875Q345.14062 84.265625 345.14062 83.734375Q345.14062 83.21875 345.32812 82.84375Q345.53125 82.453125 345.90625 82.1875Q346.28125 81.921875 346.8125 81.796875Q347.34375 81.65625 348.0 81.65625L349.25 81.65625ZM353.40625 80.15625L353.40625 85.5L352.32812 85.5L352.32812 79.15625L353.375 79.15625L353.40625 80.15625ZM355.39062 79.125L355.39062 80.125Q355.25 80.109375 355.125 80.09375Q355.01562 80.078125 354.85938 80.078125Q354.48438 80.078125 354.1875 80.203125Q353.90625 80.3125 353.70312 80.53125Q353.51562 80.734375 353.39062 81.03125Q353.28125 81.328125 353.25 81.671875L352.9375 81.84375Q352.9375 81.265625 353.04688 80.765625Q353.17188 80.265625 353.40625 79.875Q353.65625 79.484375 354.01562 79.265625Q354.39062 79.046875 354.90625 79.046875Q355.03125 79.046875 355.17188 79.078125Q355.32812 79.09375 355.39062 79.125ZM358.10938 84.84375L359.875 79.15625L361.03125 79.15625L358.48438 86.484375Q358.40625 86.71875 358.25 86.984375Q358.10938 87.265625 357.89062 87.5Q357.67188 87.75 357.35938 87.90625Q357.04688 88.0625 356.60938 88.0625Q356.48438 88.0625 356.28125 88.015625Q356.07812 87.984375 356.0 87.96875L356.0 87.09375Q356.04688 87.09375 356.14062 87.09375Q356.25 87.109375 356.28125 87.109375Q356.65625 87.109375 356.90625 87.015625Q357.17188 86.921875 357.34375 86.6875Q357.53125 86.46875 357.65625 86.078125L358.10938 84.84375ZM356.8125 79.15625L358.45312 84.078125L358.73438 85.21875L357.96875 85.625L355.625 79.15625L356.8125 79.15625ZM362.04688 82.40625L362.04688 82.265625Q362.04688 81.578125 362.23438 81.0Q362.4375 80.40625 362.8125 79.96875Q363.1875 79.53125 363.71875 79.296875Q364.25 79.046875 364.92188 79.046875Q365.57812 79.046875 366.10938 79.296875Q366.65625 79.53125 367.03125 79.96875Q367.40625 80.40625 367.60938 81.0Q367.8125 81.578125 367.8125 82.265625L367.8125 82.40625Q367.8125 83.078125 367.60938 83.671875Q367.40625 84.25 367.03125 84.6875Q366.65625 85.125 366.125 85.375Q365.59375 85.625 364.92188 85.625Q364.26562 85.625 363.71875 85.375Q363.1875 85.125 362.8125 84.6875Q362.4375 84.25 362.23438 83.671875Q362.04688 83.078125 362.04688 82.40625ZM363.125 82.265625L363.125 82.40625Q363.125 82.875 363.23438 83.296875Q363.34375 83.71875 363.5625 84.046875Q363.79688 84.359375 364.14062 84.546875Q364.48438 84.71875 364.92188 84.71875Q365.375 84.71875 365.70312 84.546875Q366.04688 84.359375 366.26562 84.046875Q366.5 83.71875 366.60938 83.296875Q366.71875 82.875 366.71875 82.40625L366.71875 82.265625Q366.71875 81.796875 366.60938 81.375Q366.5 80.953125 366.26562 80.640625Q366.04688 80.3125 365.70312 80.125Q365.375 79.9375 364.92188 79.9375Q364.46875 79.9375 364.125 80.125Q363.79688 80.3125 363.5625 80.640625Q363.34375 80.953125 363.23438 81.375Q363.125 81.796875 363.125 82.265625ZM370.40625 80.375L370.40625 87.9375L369.32812 87.9375L369.32812 79.15625L370.3125 79.15625L370.40625 80.375ZM374.6875 82.28125L374.6875 82.40625Q374.6875 83.09375 374.51562 83.6875Q374.35938 84.265625 374.04688 84.703125Q373.73438 85.140625 373.26562 85.390625Q372.8125 85.625 372.21875 85.625Q371.625 85.625 371.15625 85.421875Q370.6875 85.21875 370.35938 84.84375Q370.04688 84.453125 369.85938 83.921875Q369.67188 83.390625 369.59375 82.71875L369.59375 82.0625Q369.67188 81.359375 369.85938 80.8125Q370.04688 80.25 370.35938 79.859375Q370.6875 79.453125 371.14062 79.25Q371.60938 79.046875 372.20312 79.046875Q372.79688 79.046875 373.26562 79.28125Q373.73438 79.5 374.04688 79.9375Q374.35938 80.359375 374.51562 80.953125Q374.6875 81.546875 374.6875 82.28125ZM373.59375 82.40625L373.59375 82.28125Q373.59375 81.796875 373.48438 81.390625Q373.39062 80.96875 373.1875 80.65625Q372.98438 80.328125 372.65625 80.140625Q372.32812 79.953125 371.89062 79.953125Q371.48438 79.953125 371.17188 80.09375Q370.875 80.234375 370.65625 80.484375Q370.45312 80.71875 370.3125 81.015625Q370.1875 81.3125 370.125 81.640625L370.125 83.15625Q370.23438 83.5625 370.4375 83.921875Q370.65625 84.28125 371.0 84.5Q371.35938 84.71875 371.90625 84.71875Q372.34375 84.71875 372.65625 84.546875Q372.98438 84.359375 373.1875 84.046875Q373.39062 83.71875 373.48438 83.296875Q373.59375 82.875 373.59375 82.40625ZM377.40625 76.5L377.40625 85.5L376.32812 85.5L376.32812 76.5L377.40625 76.5ZM377.15625 82.09375L376.70312 82.078125Q376.70312 81.421875 376.89062 80.875Q377.07812 80.3125 377.42188 79.90625Q377.76562 79.5 378.23438 79.28125Q378.70312 79.046875 379.28125 79.046875Q379.75 79.046875 380.125 79.171875Q380.5 79.296875 380.76562 79.578125Q381.03125 79.84375 381.17188 80.28125Q381.3125 80.71875 381.3125 81.34375L381.3125 85.5L380.21875 85.5L380.21875 81.328125Q380.21875 80.828125 380.07812 80.53125Q379.9375 80.234375 379.65625 80.09375Q379.375 79.953125 378.95312 79.953125Q378.54688 79.953125 378.21875 80.125Q377.89062 80.296875 377.65625 80.59375Q377.42188 80.890625 377.28125 81.28125Q377.15625 81.65625 377.15625 82.09375ZM385.10938 84.84375L386.875 79.15625L388.03125 79.15625L385.48438 86.484375Q385.40625 86.71875 385.25 86.984375Q385.10938 87.265625 384.89062 87.5Q384.67188 87.75 384.35938 87.90625Q384.04688 88.0625 383.60938 88.0625Q383.48438 88.0625 383.28125 88.015625Q383.07812 87.984375 383.0 87.96875L383.0 87.09375Q383.04688 87.09375 383.14062 87.09375Q383.25 87.109375 383.28125 87.109375Q383.65625 87.109375 383.90625 87.015625Q384.17188 86.921875 384.34375 86.6875Q384.53125 86.46875 384.65625 86.078125L385.10938 84.84375ZM383.8125 79.15625L385.45312 84.078125L385.73438 85.21875L384.96875 85.625L382.625 79.15625L383.8125 79.15625ZM390.5 76.5L390.5 85.5L389.42188 85.5L389.42188 76.5L390.5 76.5ZM393.5 76.5L393.5 85.5L392.42188 85.5L392.42188 76.5L393.5 76.5ZM397.95312 85.625Q397.29688 85.625 396.75 85.40625Q396.21875 85.171875 395.82812 84.765625Q395.45312 84.34375 395.25 83.78125Q395.04688 83.21875 395.04688 82.546875L395.04688 82.3125Q395.04688 81.53125 395.26562 80.921875Q395.5 80.3125 395.89062 79.890625Q396.28125 79.46875 396.78125 79.265625Q397.28125 79.046875 397.8125 79.046875Q398.5 79.046875 398.98438 79.28125Q399.48438 79.515625 399.79688 79.9375Q400.125 80.34375 400.26562 80.921875Q400.42188 81.484375 400.42188 82.140625L400.42188 82.640625L395.6875 82.640625L395.6875 81.75L399.34375 81.75L399.34375 81.671875Q399.3125 81.25 399.15625 80.859375Q399.01562 80.453125 398.6875 80.203125Q398.375 79.9375 397.8125 79.9375Q397.45312 79.9375 397.14062 80.09375Q396.82812 80.25 396.59375 80.5625Q396.375 80.859375 396.25 81.296875Q396.14062 81.734375 396.14062 82.3125L396.14062 82.546875Q396.14062 83.0 396.26562 83.40625Q396.39062 83.796875 396.625 84.09375Q396.875 84.390625 397.21875 84.5625Q397.57812 84.734375 398.01562 84.734375Q398.59375 84.734375 398.98438 84.5Q399.39062 84.265625 399.6875 83.875L400.34375 84.390625Q400.14062 84.703125 399.8125 84.984375Q399.5 85.265625 399.03125 85.453125Q398.57812 85.625 397.95312 85.625ZM402.40625 80.515625L402.40625 85.5L401.32812 85.5L401.32812 79.15625L402.35938 79.15625L402.40625 80.515625ZM402.15625 82.09375L401.70312 82.078125Q401.70312 81.421875 401.89062 80.875Q402.07812 80.3125 402.42188 79.90625Q402.76562 79.5 403.23438 79.28125Q403.70312 79.046875 404.28125 79.046875Q404.75 79.046875 405.125 79.171875Q405.5 79.296875 405.76562 79.578125Q406.03125 79.84375 406.17188 80.28125Q406.3125 80.71875 406.3125 81.34375L406.3125 85.5L405.21875 85.5L405.21875 81.328125Q405.21875 80.828125 405.07812 80.53125Q404.9375 80.234375 404.65625 80.09375Q404.375 79.953125 403.95312 79.953125Q403.54688 79.953125 403.21875 80.125Q402.89062 80.296875 402.65625 80.59375Q402.42188 80.890625 402.28125 81.28125Q402.15625 81.65625 402.15625 82.09375Z" fill-rule="nonzero"/><path stroke="#cccccc" stroke-width="1.0" stroke-linecap="butt" d="M372.0 305.0L547.0 204.0" fill-rule="nonzero"/><path fill="#000000" d="M544.53125 192.67188L545.3906 192.67188Q546.2031 192.67188 546.7656 192.98438Q547.34375 193.28125 547.6406 193.8125Q547.9531 194.34375 547.9531 195.01562Q547.9531 195.84375 547.6094 196.42188Q547.2656 197.0 546.6719 197.3125Q546.0781 197.625 545.2969 197.625Q544.84375 197.625 544.3906 197.5Q543.9375 197.35938 543.5625 197.09375Q543.2031 196.82812 542.9844 196.40625Q542.7656 195.98438 542.7656 195.40625L543.1875 195.15625Q543.1875 195.59375 543.4375 195.95312Q543.7031 196.29688 544.1406 196.51562Q544.59375 196.73438 545.1875 196.73438Q545.71875 196.73438 546.09375 196.51562Q546.46875 196.29688 546.6719 195.92188Q546.875 195.53125 546.875 195.03125Q546.875 194.625 546.6875 194.25Q546.5156 193.85938 546.1875 193.60938Q545.8594 193.35938 545.375 193.35938L544.53125 193.35938L544.53125 192.67188ZM545.0469 188.84375Q545.8125 188.84375 546.375 189.14062Q546.9375 189.4375 547.2344 189.95312Q547.5469 190.46875 547.5469 191.14062Q547.5469 191.70312 547.2344 192.17188Q546.9375 192.625 546.375 192.90625Q545.8125 193.17188 545.0469 193.17188L544.53125 193.17188L544.53125 192.46875L545.03125 192.46875Q545.5469 192.46875 545.8594 192.29688Q546.1719 192.125 546.3125 191.82812Q546.46875 191.51562 546.46875 191.125Q546.46875 190.76562 546.3125 190.45312Q546.15625 190.14062 545.84375 189.9375Q545.53125 189.73438 545.0469 189.73438Q544.625 189.73438 544.28125 189.9375Q543.9375 190.125 543.7344 190.46875Q543.53125 190.79688 543.53125 191.21875L543.53125 199.75L542.4375 199.75L542.4375 191.21875Q542.4375 190.5625 542.7969 190.03125Q543.15625 189.48438 543.75 189.17188Q544.34375 188.84375 545.0469 188.84375ZM551.5781 193.42188L551.5781 194.3125L548.71875 194.3125L548.71875 193.42188L551.5781 193.42188ZM552.84375 188.96875L553.9375 188.96875L556.7344 195.92188L559.53125 188.96875L560.625 188.96875L557.15625 197.5L556.3125 197.5L552.84375 188.96875ZM552.4844 188.96875L553.4531 188.96875L553.6094 194.17188L553.6094 197.5L552.4844 197.5L552.4844 188.96875ZM560.0156 188.96875L560.9844 188.96875L560.9844 197.5L559.8594 197.5L559.8594 194.17188L560.0156 188.96875ZM564.1094 196.84375L565.875 191.15625L567.03125 191.15625L564.4844 198.48438Q564.40625 198.71875 564.25 198.98438Q564.1094 199.26562 563.8906 199.5Q563.6719 199.75 563.3594 199.90625Q563.0469 200.0625 562.6094 200.0625Q562.4844 200.0625 562.28125 200.01562Q562.0781 199.98438 562.0 199.96875L562.0 199.09375Q562.0469 199.09375 562.1406 199.09375Q562.25 199.10938 562.28125 199.10938Q562.65625 199.10938 562.90625 199.01562Q563.1719 198.92188 563.34375 198.6875Q563.53125 198.46875 563.65625 198.07812L564.1094 196.84375ZM562.8125 191.15625L564.4531 196.07812L564.7344 197.21875L563.96875 197.625L561.625 191.15625L562.8125 191.15625ZM569.40625 192.15625L569.40625 197.5L568.3281 197.5L568.3281 191.15625L569.375 191.15625L569.40625 192.15625ZM571.3906 191.125L571.3906 192.125Q571.25 192.10938 571.125 192.09375Q571.0156 192.07812 570.8594 192.07812Q570.4844 192.07812 570.1875 192.20312Q569.90625 192.3125 569.7031 192.53125Q569.5156 192.73438 569.3906 193.03125Q569.28125 193.32812 569.25 193.67188L568.9375 193.84375Q568.9375 193.26562 569.0469 192.76562Q569.1719 192.26562 569.40625 191.875Q569.65625 191.48438 570.0156 191.26562Q570.3906 191.04688 570.90625 191.04688Q571.03125 191.04688 571.1719 191.07812Q571.3281 191.09375 571.3906 191.125ZM574.8594 196.71875Q575.25 196.71875 575.5781 196.5625Q575.90625 196.40625 576.1094 196.14062Q576.3281 195.85938 576.3594 195.5L577.3906 195.5Q577.3594 196.0625 577.0 196.54688Q576.65625 197.03125 576.09375 197.32812Q575.53125 197.625 574.8594 197.625Q574.15625 197.625 573.625 197.375Q573.09375 197.10938 572.7344 196.67188Q572.3906 196.23438 572.21875 195.67188Q572.0469 195.09375 572.0469 194.45312L572.0469 194.20312Q572.0469 193.5625 572.21875 193.0Q572.3906 192.42188 572.7344 191.98438Q573.09375 191.54688 573.625 191.29688Q574.15625 191.04688 574.8594 191.04688Q575.6094 191.04688 576.15625 191.34375Q576.71875 191.64062 577.03125 192.17188Q577.3594 192.6875 577.3906 193.34375L576.3594 193.34375Q576.3281 192.95312 576.1406 192.64062Q575.9531 192.3125 575.625 192.125Q575.2969 191.9375 574.8594 191.9375Q574.3594 191.9375 574.0156 192.14062Q573.6875 192.32812 573.4844 192.65625Q573.2969 192.98438 573.2031 193.39062Q573.125 193.79688 573.125 194.20312L573.125 194.45312Q573.125 194.875 573.2031 195.28125Q573.2969 195.67188 573.4844 196.0Q573.6875 196.32812 574.0156 196.53125Q574.3594 196.71875 574.8594 196.71875ZM580.9531 197.625Q580.2969 197.625 579.75 197.40625Q579.21875 197.17188 578.8281 196.76562Q578.4531 196.34375 578.25 195.78125Q578.0469 195.21875 578.0469 194.54688L578.0469 194.3125Q578.0469 193.53125 578.2656 192.92188Q578.5 192.3125 578.8906 191.89062Q579.28125 191.46875 579.78125 191.26562Q580.28125 191.04688 580.8125 191.04688Q581.5 191.04688 581.9844 191.28125Q582.4844 191.51562 582.7969 191.9375Q583.125 192.34375 583.2656 192.92188Q583.4219 193.48438 583.4219 194.14062L583.4219 194.64062L578.6875 194.64062L578.6875 193.75L582.34375 193.75L582.34375 193.67188Q582.3125 193.25 582.15625 192.85938Q582.0156 192.45312 581.6875 192.20312Q581.375 191.9375 580.8125 191.9375Q580.4531 191.9375 580.1406 192.09375Q579.8281 192.25 579.59375 192.5625Q579.375 192.85938 579.25 193.29688Q579.1406 193.73438 579.1406 194.3125L579.1406 194.54688Q579.1406 195.0 579.2656 195.40625Q579.3906 195.79688 579.625 196.09375Q579.875 196.39062 580.21875 196.5625Q580.5781 196.73438 581.0156 196.73438Q581.59375 196.73438 581.9844 196.5Q582.3906 196.26562 582.6875 195.875L583.34375 196.39062Q583.1406 196.70312 582.8125 196.98438Q582.5 197.26562 582.03125 197.45312Q581.5781 197.625 580.9531 197.625ZM585.40625 192.51562L585.40625 197.5L584.3281 197.5L584.3281 191.15625L585.3594 191.15625L585.40625 192.51562ZM585.15625 194.09375L584.7031 194.07812Q584.7031 193.42188 584.8906 192.875Q585.0781 192.3125 585.4219 191.90625Q585.7656 191.5 586.2344 191.28125Q586.7031 191.04688 587.28125 191.04688Q587.75 191.04688 588.125 191.17188Q588.5 191.29688 588.7656 191.57812Q589.03125 191.84375 589.1719 192.28125Q589.3125 192.71875 589.3125 193.34375L589.3125 197.5L588.21875 197.5L588.21875 193.32812Q588.21875 192.82812 588.0781 192.53125Q587.9375 192.23438 587.65625 192.09375Q587.375 191.95312 586.9531 191.95312Q586.5469 191.95312 586.21875 192.125Q585.8906 192.29688 585.65625 192.59375Q585.4219 192.89062 585.28125 193.28125Q585.15625 193.65625 585.15625 194.09375Z" fill-rule="nonzero"/><path stroke="#cccccc" stroke-width="1.0" stroke-linecap="butt" d="M372.0 305.0L547.0 406.0" fill-rule="nonzero"/><path fill="#000000" d="M547.5625 416.64062L547.5625 417.5625L542.9531 417.5625L542.9531 416.64062L547.5625 416.64062ZM543.125 412.96875L543.125 421.5L541.9844 421.5L541.9844 412.96875L543.125 412.96875ZM548.5469 412.96875L548.5469 421.5L547.4219 421.5L547.4219 412.96875L548.5469 412.96875ZM554.7031 420.03125L554.7031 415.15625L555.7969 415.15625L555.7969 421.5L554.7656 421.5L554.7031 420.03125ZM554.90625 418.70312L555.3594 418.6875Q555.3594 419.3125 555.21875 419.85938Q555.09375 420.39062 554.7969 420.78125Q554.5156 421.17188 554.03125 421.40625Q553.5625 421.625 552.8906 421.625Q552.4219 421.625 552.03125 421.48438Q551.65625 421.34375 551.375 421.0625Q551.1094 420.78125 550.9531 420.32812Q550.7969 419.875 550.7969 419.25L550.7969 415.15625L551.8906 415.15625L551.8906 419.26562Q551.8906 419.6875 551.9844 419.96875Q552.0781 420.25 552.25 420.40625Q552.4219 420.5625 552.625 420.64062Q552.8281 420.70312 553.0469 420.70312Q553.75 420.70312 554.1406 420.4375Q554.5469 420.15625 554.71875 419.70312Q554.90625 419.25 554.90625 418.70312ZM558.90625 416.42188L558.90625 421.5L557.8125 421.5L557.8125 415.15625L558.84375 415.15625L558.90625 416.42188ZM558.6875 418.09375L558.1719 418.07812Q558.1875 417.42188 558.34375 416.875Q558.5156 416.3125 558.8281 415.90625Q559.15625 415.5 559.6406 415.28125Q560.125 415.04688 560.75 415.04688Q561.2031 415.04688 561.5781 415.17188Q561.9531 415.29688 562.21875 415.5625Q562.5 415.82812 562.6406 416.25Q562.7969 416.67188 562.7969 417.28125L562.7969 421.5L561.71875 421.5L561.71875 417.32812Q561.71875 416.82812 561.5469 416.53125Q561.3906 416.23438 561.0781 416.09375Q560.78125 415.95312 560.3594 415.95312Q559.8906 415.95312 559.5625 416.125Q559.2344 416.29688 559.0469 416.59375Q558.8594 416.89062 558.7656 417.28125Q558.6875 417.65625 558.6875 418.09375ZM562.7969 417.48438L562.0625 417.71875Q562.0625 417.1875 562.2344 416.71875Q562.40625 416.23438 562.71875 415.85938Q563.0469 415.48438 563.5156 415.26562Q563.9844 415.04688 564.5781 415.04688Q565.09375 415.04688 565.4844 415.1875Q565.8906 415.3125 566.15625 415.59375Q566.4219 415.875 566.5625 416.3125Q566.7031 416.73438 566.7031 417.32812L566.7031 421.5L565.625 421.5L565.625 417.32812Q565.625 416.78125 565.4531 416.5Q565.28125 416.20312 564.9844 416.07812Q564.6875 415.95312 564.2656 415.95312Q563.90625 415.95312 563.625 416.07812Q563.3594 416.20312 563.1719 416.42188Q562.9844 416.625 562.8906 416.90625Q562.7969 417.1875 562.7969 417.48438ZM572.7031 420.03125L572.7031 415.15625L573.7969 415.15625L573.7969 421.5L572.7656 421.5L572.7031 420.03125ZM572.90625 418.70312L573.3594 418.6875Q573.3594 419.3125 573.21875 419.85938Q573.09375 420.39062 572.7969 420.78125Q572.5156 421.17188 572.03125 421.40625Q571.5625 421.625 570.8906 421.625Q570.4219 421.625 570.03125 421.48438Q569.65625 421.34375 569.375 421.0625Q569.1094 420.78125 568.9531 420.32812Q568.7969 419.875 568.7969 419.25L568.7969 415.15625L569.8906 415.15625L569.8906 419.26562Q569.8906 419.6875 569.9844 419.96875Q570.0781 420.25 570.25 420.40625Q570.4219 420.5625 570.625 420.64062Q570.8281 420.70312 571.0469 420.70312Q571.75 420.70312 572.1406 420.4375Q572.5469 420.15625 572.71875 419.70312Q572.90625 419.25 572.90625 418.70312ZM577.0 412.5L577.0 421.5L575.9219 421.5L575.9219 412.5L577.0 412.5ZM581.4531 421.625Q580.7969 421.625 580.25 421.40625Q579.71875 421.17188 579.3281 420.76562Q578.9531 420.34375 578.75 419.78125Q578.5469 419.21875 578.5469 418.54688L578.5469 418.3125Q578.5469 417.53125 578.7656 416.92188Q579.0 416.3125 579.3906 415.89062Q579.78125 415.46875 580.28125 415.26562Q580.78125 415.04688 581.3125 415.04688Q582.0 415.04688 582.4844 415.28125Q582.9844 415.51562 583.2969 415.9375Q583.625 416.34375 583.7656 416.92188Q583.9219 417.48438 583.9219 418.14062L583.9219 418.64062L579.1875 418.64062L579.1875 417.75L582.84375 417.75L582.84375 417.67188Q582.8125 417.25 582.65625 416.85938Q582.5156 416.45312 582.1875 416.20312Q581.875 415.9375 581.3125 415.9375Q580.9531 415.9375 580.6406 416.09375Q580.3281 416.25 580.09375 416.5625Q579.875 416.85938 579.75 417.29688Q579.6406 417.73438 579.6406 418.3125L579.6406 418.54688Q579.6406 419.0 579.7656 419.40625Q579.8906 419.79688 580.125 420.09375Q580.375 420.39062 580.71875 420.5625Q581.0781 420.73438 581.5156 420.73438Q582.09375 420.73438 582.4844 420.5Q582.8906 420.26562 583.1875 419.875L583.84375 420.39062Q583.6406 420.70312 583.3125 420.98438Q583.0 421.26562 582.53125 421.45312Q582.0781 421.625 581.4531 421.625ZM585.90625 416.51562L585.90625 421.5L584.8281 421.5L584.8281 415.15625L585.8594 415.15625L585.90625 416.51562ZM585.65625 418.09375L585.2031 418.07812Q585.2031 417.42188 585.3906 416.875Q585.5781 416.3125 585.9219 415.90625Q586.2656 415.5 586.7344 415.28125Q587.2031 415.04688 587.78125 415.04688Q588.25 415.04688 588.625 415.17188Q589.0 415.29688 589.2656 415.57812Q589.53125 415.84375 589.6719 416.28125Q589.8125 416.71875 589.8125 417.34375L589.8125 421.5L588.71875 421.5L588.71875 417.32812Q588.71875 416.82812 588.5781 416.53125Q588.4375 416.23438 588.15625 416.09375Q587.875 415.95312 587.4531 415.95312Q587.0469 415.95312 586.71875 416.125Q586.3906 416.29688 586.15625 416.59375Q585.9219 416.89062 585.78125 417.28125Q585.65625 417.65625 585.65625 418.09375Z" fill-rule="nonzero"/><path stroke="#cccccc" stroke-width="1.0" stroke-linecap="butt" d="M372.0 305.0L372.0 507.0" fill-rule="nonzero"/><path fill="#000000" d="M346.29688 533.5L344.51562 533.5L344.53125 532.5781L346.29688 532.5781Q347.21875 532.5781 347.82812 532.2031Q348.4375 531.8125 348.73438 531.125Q349.04688 530.4219 349.04688 529.4844L349.04688 528.96875Q349.04688 528.2344 348.875 527.6719Q348.70312 527.09375 348.35938 526.7031Q348.01562 526.2969 347.51562 526.09375Q347.03125 525.8906 346.40625 525.8906L344.48438 525.8906L344.48438 524.96875L346.40625 524.96875Q347.25 524.96875 347.9375 525.25Q348.625 525.53125 349.125 526.0625Q349.625 526.5781 349.89062 527.3281Q350.17188 528.0625 350.17188 528.9844L350.17188 529.4844Q350.17188 530.4219 349.89062 531.1719Q349.625 531.90625 349.10938 532.4219Q348.60938 532.9375 347.89062 533.21875Q347.1875 533.5 346.29688 533.5ZM345.125 524.96875L345.125 533.5L343.98438 533.5L343.98438 524.96875L345.125 524.96875ZM354.07812 529.4219L354.07812 530.3125L351.21875 530.3125L351.21875 529.4219L354.07812 529.4219ZM360.17188 532.5781L360.17188 533.5L355.90625 533.5L355.90625 532.5781L360.17188 532.5781ZM356.125 524.96875L356.125 533.5L354.98438 533.5L354.98438 524.96875L356.125 524.96875ZM362.0 527.15625L362.0 533.5L360.92188 533.5L360.92188 527.15625L362.0 527.15625ZM360.82812 525.4844Q360.82812 525.21875 360.98438 525.03125Q361.15625 524.84375 361.46875 524.84375Q361.78125 524.84375 361.9375 525.03125Q362.10938 525.21875 362.10938 525.4844Q362.10938 525.7344 361.9375 525.9219Q361.78125 526.09375 361.46875 526.09375Q361.15625 526.09375 360.98438 525.9219Q360.82812 525.7344 360.82812 525.4844ZM364.90625 528.4219L364.90625 533.5L363.8125 533.5L363.8125 527.15625L364.84375 527.15625L364.90625 528.4219ZM364.6875 530.09375L364.17188 530.0781Q364.1875 529.4219 364.34375 528.875Q364.51562 528.3125 364.82812 527.90625Q365.15625 527.5 365.64062 527.28125Q366.125 527.0469 366.75 527.0469Q367.20312 527.0469 367.57812 527.1719Q367.95312 527.2969 368.21875 527.5625Q368.5 527.8281 368.64062 528.25Q368.79688 528.6719 368.79688 529.28125L368.79688 533.5L367.71875 533.5L367.71875 529.3281Q367.71875 528.8281 367.54688 528.53125Q367.39062 528.2344 367.07812 528.09375Q366.78125 527.9531 366.35938 527.9531Q365.89062 527.9531 365.5625 528.125Q365.23438 528.2969 365.04688 528.59375Q364.85938 528.8906 364.76562 529.28125Q364.6875 529.65625 364.6875 530.09375ZM368.79688 529.4844L368.0625 529.71875Q368.0625 529.1875 368.23438 528.71875Q368.40625 528.2344 368.71875 527.8594Q369.04688 527.4844 369.51562 527.2656Q369.98438 527.0469 370.57812 527.0469Q371.09375 527.0469 371.48438 527.1875Q371.89062 527.3125 372.15625 527.59375Q372.42188 527.875 372.5625 528.3125Q372.70312 528.7344 372.70312 529.3281L372.70312 533.5L371.625 533.5L371.625 529.3281Q371.625 528.78125 371.45312 528.5Q371.28125 528.2031 370.98438 528.0781Q370.6875 527.9531 370.26562 527.9531Q369.90625 527.9531 369.625 528.0781Q369.35938 528.2031 369.17188 528.4219Q368.98438 528.625 368.89062 528.90625Q368.79688 529.1875 368.79688 529.4844ZM374.54688 530.40625L374.54688 530.2656Q374.54688 529.5781 374.73438 529.0Q374.9375 528.40625 375.3125 527.96875Q375.6875 527.53125 376.21875 527.2969Q376.75 527.0469 377.42188 527.0469Q378.07812 527.0469 378.60938 527.2969Q379.15625 527.53125 379.53125 527.96875Q379.90625 528.40625 380.10938 529.0Q380.3125 529.5781 380.3125 530.2656L380.3125 530.40625Q380.3125 531.0781 380.10938 531.6719Q379.90625 532.25 379.53125 532.6875Q379.15625 533.125 378.625 533.375Q378.09375 533.625 377.42188 533.625Q376.76562 533.625 376.21875 533.375Q375.6875 533.125 375.3125 532.6875Q374.9375 532.25 374.73438 531.6719Q374.54688 531.0781 374.54688 530.40625ZM375.625 530.2656L375.625 530.40625Q375.625 530.875 375.73438 531.2969Q375.84375 531.71875 376.0625 532.0469Q376.29688 532.3594 376.64062 532.5469Q376.98438 532.71875 377.42188 532.71875Q377.875 532.71875 378.20312 532.5469Q378.54688 532.3594 378.76562 532.0469Q379.0 531.71875 379.10938 531.2969Q379.21875 530.875 379.21875 530.40625L379.21875 530.2656Q379.21875 529.7969 379.10938 529.375Q379.0 528.9531 378.76562 528.6406Q378.54688 528.3125 378.20312 528.125Q377.875 527.9375 377.42188 527.9375Q376.96875 527.9375 376.625 528.125Q376.29688 528.3125 376.0625 528.6406Q375.84375 528.9531 375.73438 529.375Q375.625 529.7969 375.625 530.2656ZM382.90625 528.5156L382.90625 533.5L381.82812 533.5L381.82812 527.15625L382.85938 527.15625L382.90625 528.5156ZM382.65625 530.09375L382.20312 530.0781Q382.20312 529.4219 382.39062 528.875Q382.57812 528.3125 382.92188 527.90625Q383.26562 527.5 383.73438 527.28125Q384.20312 527.0469 384.78125 527.0469Q385.25 527.0469 385.625 527.1719Q386.0 527.2969 386.26562 527.5781Q386.53125 527.84375 386.67188 528.28125Q386.8125 528.71875 386.8125 529.34375L386.8125 533.5L385.71875 533.5L385.71875 529.3281Q385.71875 528.8281 385.57812 528.53125Q385.4375 528.2344 385.15625 528.09375Q384.875 527.9531 384.45312 527.9531Q384.04688 527.9531 383.71875 528.125Q383.39062 528.2969 383.15625 528.59375Q382.92188 528.8906 382.78125 529.28125Q382.65625 529.65625 382.65625 530.09375ZM391.45312 533.625Q390.79688 533.625 390.25 533.40625Q389.71875 533.1719 389.32812 532.7656Q388.95312 532.34375 388.75 531.78125Q388.54688 531.21875 388.54688 530.5469L388.54688 530.3125Q388.54688 529.53125 388.76562 528.9219Q389.0 528.3125 389.39062 527.8906Q389.78125 527.46875 390.28125 527.2656Q390.78125 527.0469 391.3125 527.0469Q392.0 527.0469 392.48438 527.28125Q392.98438 527.5156 393.29688 527.9375Q393.625 528.34375 393.76562 528.9219Q393.92188 529.4844 393.92188 530.1406L393.92188 530.6406L389.1875 530.6406L389.1875 529.75L392.84375 529.75L392.84375 529.6719Q392.8125 529.25 392.65625 528.8594Q392.51562 528.4531 392.1875 528.2031Q391.875 527.9375 391.3125 527.9375Q390.95312 527.9375 390.64062 528.09375Q390.32812 528.25 390.09375 528.5625Q389.875 528.8594 389.75 529.2969Q389.64062 529.7344 389.64062 530.3125L389.64062 530.5469Q389.64062 531.0 389.76562 531.40625Q389.89062 531.7969 390.125 532.09375Q390.375 532.3906 390.71875 532.5625Q391.07812 532.7344 391.51562 532.7344Q392.09375 532.7344 392.48438 532.5Q392.89062 532.2656 393.1875 531.875L393.84375 532.3906Q393.64062 532.7031 393.3125 532.9844Q393.0 533.2656 392.53125 533.4531Q392.07812 533.625 391.45312 533.625ZM395.90625 528.5156L395.90625 533.5L394.82812 533.5L394.82812 527.15625L395.85938 527.15625L395.90625 528.5156ZM395.65625 530.09375L395.20312 530.0781Q395.20312 529.4219 395.39062 528.875Q395.57812 528.3125 395.92188 527.90625Q396.26562 527.5 396.73438 527.28125Q397.20312 527.0469 397.78125 527.0469Q398.25 527.0469 398.625 527.1719Q399.0 527.2969 399.26562 527.5781Q399.53125 527.84375 399.67188 528.28125Q399.8125 528.71875 399.8125 529.34375L399.8125 533.5L398.71875 533.5L398.71875 529.3281Q398.71875 528.8281 398.57812 528.53125Q398.4375 528.2344 398.15625 528.09375Q397.875 527.9531 397.45312 527.9531Q397.04688 527.9531 396.71875 528.125Q396.39062 528.2969 396.15625 528.59375Q395.92188 528.8906 395.78125 529.28125Q395.65625 529.65625 395.65625 530.09375Z" fill-rule="nonzero"/><path stroke="#cccccc" stroke-width="1.0" stroke-linecap="butt" d="M372.0 305.0L197.0 406.0" fill-rule="nonzero"/><path fill="#000000" d="M162.67188 420.57812L162.67188 421.5L158.40625 421.5L158.40625 420.57812L162.67188 420.57812ZM158.625 412.96875L158.625 421.5L157.48438 421.5L157.48438 412.96875L158.625 412.96875ZM164.5 415.15625L164.5 421.5L163.42188 421.5L163.42188 415.15625L164.5 415.15625ZM163.32812 413.48438Q163.32812 413.21875 163.48438 413.03125Q163.65625 412.84375 163.96875 412.84375Q164.28125 412.84375 164.4375 413.03125Q164.60938 413.21875 164.60938 413.48438Q164.60938 413.73438 164.4375 413.92188Q164.28125 414.09375 163.96875 414.09375Q163.65625 414.09375 163.48438 413.92188Q163.32812 413.73438 163.32812 413.48438ZM167.40625 416.51562L167.40625 421.5L166.32812 421.5L166.32812 415.15625L167.35938 415.15625L167.40625 416.51562ZM167.15625 418.09375L166.70312 418.07812Q166.70312 417.42188 166.89062 416.875Q167.07812 416.3125 167.42188 415.90625Q167.76562 415.5 168.23438 415.28125Q168.70312 415.04688 169.28125 415.04688Q169.75 415.04688 170.125 415.17188Q170.5 415.29688 170.76562 415.57812Q171.03125 415.84375 171.17188 416.28125Q171.3125 416.71875 171.3125 417.34375L171.3125 421.5L170.21875 421.5L170.21875 417.32812Q170.21875 416.82812 170.07812 416.53125Q169.9375 416.23438 169.65625 416.09375Q169.375 415.95312 168.95312 415.95312Q168.54688 415.95312 168.21875 416.125Q167.89062 416.29688 167.65625 416.59375Q167.42188 416.89062 167.28125 417.28125Q167.15625 417.65625 167.15625 418.09375ZM177.0625 420.42188L177.0625 417.15625Q177.0625 416.78125 176.90625 416.5Q176.76562 416.21875 176.46875 416.07812Q176.17188 415.92188 175.73438 415.92188Q175.3125 415.92188 175.0 416.0625Q174.70312 416.20312 174.53125 416.4375Q174.35938 416.65625 174.35938 416.92188L173.28125 416.92188Q173.28125 416.57812 173.45312 416.25Q173.625 415.90625 173.95312 415.64062Q174.28125 415.35938 174.75 415.20312Q175.21875 415.04688 175.79688 415.04688Q176.48438 415.04688 177.01562 415.28125Q177.54688 415.51562 177.84375 415.98438Q178.15625 416.45312 178.15625 417.15625L178.15625 420.10938Q178.15625 420.4375 178.20312 420.79688Q178.26562 421.14062 178.375 421.40625L178.375 421.5L177.23438 421.5Q177.15625 421.3125 177.10938 421.0Q177.0625 420.6875 177.0625 420.42188ZM177.25 417.65625L177.26562 418.42188L176.17188 418.42188Q175.70312 418.42188 175.34375 418.5Q174.98438 418.5625 174.73438 418.71875Q174.48438 418.85938 174.35938 419.07812Q174.23438 419.29688 174.23438 419.59375Q174.23438 419.89062 174.35938 420.14062Q174.5 420.375 174.76562 420.53125Q175.04688 420.67188 175.4375 420.67188Q175.9375 420.67188 176.3125 420.46875Q176.70312 420.25 176.92188 419.95312Q177.15625 419.64062 177.17188 419.34375L177.64062 419.875Q177.59375 420.10938 177.40625 420.42188Q177.23438 420.71875 176.92188 421.0Q176.625 421.26562 176.20312 421.45312Q175.79688 421.625 175.28125 421.625Q174.64062 421.625 174.15625 421.375Q173.67188 421.10938 173.40625 420.6875Q173.14062 420.26562 173.14062 419.73438Q173.14062 419.21875 173.32812 418.84375Q173.53125 418.45312 173.90625 418.1875Q174.28125 417.92188 174.8125 417.79688Q175.34375 417.65625 176.0 417.65625L177.25 417.65625ZM181.5 412.5L181.5 421.5L180.42188 421.5L180.42188 412.5L181.5 412.5ZM183.04688 418.40625L183.04688 418.26562Q183.04688 417.57812 183.23438 417.0Q183.4375 416.40625 183.8125 415.96875Q184.1875 415.53125 184.71875 415.29688Q185.25 415.04688 185.92188 415.04688Q186.57812 415.04688 187.10938 415.29688Q187.65625 415.53125 188.03125 415.96875Q188.40625 416.40625 188.60938 417.0Q188.8125 417.57812 188.8125 418.26562L188.8125 418.40625Q188.8125 419.07812 188.60938 419.67188Q188.40625 420.25 188.03125 420.6875Q187.65625 421.125 187.125 421.375Q186.59375 421.625 185.92188 421.625Q185.26562 421.625 184.71875 421.375Q184.1875 421.125 183.8125 420.6875Q183.4375 420.25 183.23438 419.67188Q183.04688 419.07812 183.04688 418.40625ZM184.125 418.26562L184.125 418.40625Q184.125 418.875 184.23438 419.29688Q184.34375 419.71875 184.5625 420.04688Q184.79688 420.35938 185.14062 420.54688Q185.48438 420.71875 185.92188 420.71875Q186.375 420.71875 186.70312 420.54688Q187.04688 420.35938 187.26562 420.04688Q187.5 419.71875 187.60938 419.29688Q187.71875 418.875 187.71875 418.40625L187.71875 418.26562Q187.71875 417.79688 187.60938 417.375Q187.5 416.95312 187.26562 416.64062Q187.04688 416.3125 186.70312 416.125Q186.375 415.9375 185.92188 415.9375Q185.46875 415.9375 185.125 416.125Q184.79688 416.3125 184.5625 416.64062Q184.34375 416.95312 184.23438 417.375Q184.125 417.79688 184.125 418.26562ZM190.04688 418.40625L190.04688 418.26562Q190.04688 417.57812 190.23438 417.0Q190.4375 416.40625 190.8125 415.96875Q191.1875 415.53125 191.71875 415.29688Q192.25 415.04688 192.92188 415.04688Q193.57812 415.04688 194.10938 415.29688Q194.65625 415.53125 195.03125 415.96875Q195.40625 416.40625 195.60938 417.0Q195.8125 417.57812 195.8125 418.26562L195.8125 418.40625Q195.8125 419.07812 195.60938 419.67188Q195.40625 420.25 195.03125 420.6875Q194.65625 421.125 194.125 421.375Q193.59375 421.625 192.92188 421.625Q192.26562 421.625 191.71875 421.375Q191.1875 421.125 190.8125 420.6875Q190.4375 420.25 190.23438 419.67188Q190.04688 419.07812 190.04688 418.40625ZM191.125 418.26562L191.125 418.40625Q191.125 418.875 191.23438 419.29688Q191.34375 419.71875 191.5625 420.04688Q191.79688 420.35938 192.14062 420.54688Q192.48438 420.71875 192.92188 420.71875Q193.375 420.71875 193.70312 420.54688Q194.04688 420.35938 194.26562 420.04688Q194.5 419.71875 194.60938 419.29688Q194.71875 418.875 194.71875 418.40625L194.71875 418.26562Q194.71875 417.79688 194.60938 417.375Q194.5 416.95312 194.26562 416.64062Q194.04688 416.3125 193.70312 416.125Q193.375 415.9375 192.92188 415.9375Q192.46875 415.9375 192.125 416.125Q191.79688 416.3125 191.5625 416.64062Q191.34375 416.95312 191.23438 417.375Q191.125 417.79688 191.125 418.26562ZM198.5 412.5L198.5 421.5L197.42188 421.5L197.42188 412.5L198.5 412.5Z" fill-rule="nonzero"/><path stroke="#cccccc" stroke-width="1.0" stroke-linecap="butt" d="M372.0 305.0L197.0 204.0" fill-rule="nonzero"/><path fill="#000000" d="M160.03125 195.34375Q160.03125 195.04688 159.9375 194.8125Q159.85938 194.57812 159.625 194.39062Q159.40625 194.20312 159.0 194.03125Q158.60938 193.85938 158.01562 193.6875Q157.375 193.5 156.85938 193.28125Q156.35938 193.04688 155.98438 192.75Q155.625 192.4375 155.4375 192.0625Q155.25 191.67188 155.25 191.17188Q155.25 190.67188 155.45312 190.25Q155.65625 189.82812 156.03125 189.51562Q156.42188 189.20312 156.95312 189.03125Q157.48438 188.84375 158.14062 188.84375Q159.10938 188.84375 159.78125 189.21875Q160.45312 189.57812 160.79688 190.17188Q161.15625 190.76562 161.15625 191.42188L160.03125 191.42188Q160.03125 190.95312 159.8125 190.57812Q159.60938 190.20312 159.1875 190.0Q158.78125 189.78125 158.14062 189.78125Q157.54688 189.78125 157.14062 189.96875Q156.75 190.14062 156.5625 190.45312Q156.375 190.76562 156.375 191.15625Q156.375 191.42188 156.48438 191.65625Q156.60938 191.875 156.84375 192.0625Q157.09375 192.25 157.46875 192.40625Q157.84375 192.5625 158.375 192.70312Q159.09375 192.90625 159.625 193.17188Q160.15625 193.42188 160.5 193.73438Q160.84375 194.04688 161.0 194.4375Q161.17188 194.82812 161.17188 195.32812Q161.17188 195.85938 160.95312 196.28125Q160.75 196.70312 160.35938 197.0Q159.96875 197.29688 159.42188 197.46875Q158.875 197.625 158.20312 197.625Q157.60938 197.625 157.03125 197.45312Q156.46875 197.28125 156.0 196.95312Q155.53125 196.625 155.25 196.15625Q154.96875 195.67188 154.96875 195.03125L156.09375 195.03125Q156.09375 195.46875 156.26562 195.78125Q156.4375 196.09375 156.73438 196.29688Q157.03125 196.5 157.40625 196.60938Q157.78125 196.70312 158.20312 196.70312Q158.79688 196.70312 159.20312 196.54688Q159.60938 196.375 159.8125 196.07812Q160.03125 195.76562 160.03125 195.34375ZM162.04688 194.40625L162.04688 194.26562Q162.04688 193.57812 162.23438 193.0Q162.4375 192.40625 162.8125 191.96875Q163.1875 191.53125 163.71875 191.29688Q164.25 191.04688 164.92188 191.04688Q165.57812 191.04688 166.10938 191.29688Q166.65625 191.53125 167.03125 191.96875Q167.40625 192.40625 167.60938 193.0Q167.8125 193.57812 167.8125 194.26562L167.8125 194.40625Q167.8125 195.07812 167.60938 195.67188Q167.40625 196.25 167.03125 196.6875Q166.65625 197.125 166.125 197.375Q165.59375 197.625 164.92188 197.625Q164.26562 197.625 163.71875 197.375Q163.1875 197.125 162.8125 196.6875Q162.4375 196.25 162.23438 195.67188Q162.04688 195.07812 162.04688 194.40625ZM163.125 194.26562L163.125 194.40625Q163.125 194.875 163.23438 195.29688Q163.34375 195.71875 163.5625 196.04688Q163.79688 196.35938 164.14062 196.54688Q164.48438 196.71875 164.92188 196.71875Q165.375 196.71875 165.70312 196.54688Q166.04688 196.35938 166.26562 196.04688Q166.5 195.71875 166.60938 195.29688Q166.71875 194.875 166.71875 194.40625L166.71875 194.26562Q166.71875 193.79688 166.60938 193.375Q166.5 192.95312 166.26562 192.64062Q166.04688 192.3125 165.70312 192.125Q165.375 191.9375 164.92188 191.9375Q164.46875 191.9375 164.125 192.125Q163.79688 192.3125 163.5625 192.64062Q163.34375 192.95312 163.23438 193.375Q163.125 193.79688 163.125 194.26562ZM170.40625 192.51562L170.40625 197.5L169.32812 197.5L169.32812 191.15625L170.35938 191.15625L170.40625 192.51562ZM170.15625 194.09375L169.70312 194.07812Q169.70312 193.42188 169.89062 192.875Q170.07812 192.3125 170.42188 191.90625Q170.76562 191.5 171.23438 191.28125Q171.70312 191.04688 172.28125 191.04688Q172.75 191.04688 173.125 191.17188Q173.5 191.29688 173.76562 191.57812Q174.03125 191.84375 174.17188 192.28125Q174.3125 192.71875 174.3125 193.34375L174.3125 197.5L173.21875 197.5L173.21875 193.32812Q173.21875 192.82812 173.07812 192.53125Q172.9375 192.23438 172.65625 192.09375Q172.375 191.95312 171.95312 191.95312Q171.54688 191.95312 171.21875 192.125Q170.89062 192.29688 170.65625 192.59375Q170.42188 192.89062 170.28125 193.28125Q170.15625 193.65625 170.15625 194.09375ZM180.01562 195.8125Q180.01562 195.57812 179.90625 195.375Q179.8125 195.17188 179.5 195.01562Q179.1875 194.84375 178.5625 194.71875Q178.03125 194.60938 177.60938 194.46875Q177.1875 194.3125 176.89062 194.09375Q176.59375 193.875 176.4375 193.57812Q176.28125 193.28125 176.28125 192.89062Q176.28125 192.51562 176.4375 192.1875Q176.60938 191.84375 176.90625 191.59375Q177.21875 191.32812 177.65625 191.1875Q178.09375 191.04688 178.625 191.04688Q179.39062 191.04688 179.92188 191.3125Q180.46875 191.57812 180.75 192.03125Q181.03125 192.48438 181.03125 193.01562L179.95312 193.01562Q179.95312 192.76562 179.79688 192.51562Q179.64062 192.26562 179.34375 192.10938Q179.04688 191.9375 178.625 191.9375Q178.17188 191.9375 177.89062 192.07812Q177.60938 192.20312 177.48438 192.42188Q177.35938 192.625 177.35938 192.85938Q177.35938 193.04688 177.42188 193.1875Q177.48438 193.3125 177.64062 193.4375Q177.79688 193.54688 178.07812 193.65625Q178.375 193.75 178.82812 193.84375Q179.60938 194.01562 180.10938 194.26562Q180.60938 194.51562 180.85938 194.875Q181.10938 195.21875 181.10938 195.73438Q181.10938 196.15625 180.92188 196.5Q180.75 196.84375 180.42188 197.09375Q180.10938 197.34375 179.65625 197.48438Q179.20312 197.625 178.65625 197.625Q177.8125 197.625 177.23438 197.32812Q176.65625 197.01562 176.35938 196.54688Q176.0625 196.0625 176.0625 195.54688L177.14062 195.54688Q177.17188 195.98438 177.40625 196.25Q177.64062 196.51562 177.96875 196.625Q178.3125 196.71875 178.65625 196.71875Q179.09375 196.71875 179.39062 196.60938Q179.70312 196.48438 179.85938 196.28125Q180.01562 196.07812 180.01562 195.8125ZM184.98438 191.15625L184.98438 191.98438L181.54688 191.98438L181.54688 191.15625L184.98438 191.15625ZM182.71875 189.625L183.79688 189.625L183.79688 195.92188Q183.79688 196.25 183.89062 196.42188Q184.0 196.57812 184.15625 196.64062Q184.3125 196.6875 184.5 196.6875Q184.625 196.6875 184.76562 196.65625Q184.92188 196.625 185.0 196.60938L185.01562 197.5Q184.875 197.54688 184.67188 197.57812Q184.46875 197.625 184.17188 197.625Q183.78125 197.625 183.4375 197.46875Q183.10938 197.29688 182.90625 196.9375Q182.71875 196.5625 182.71875 195.92188L182.71875 189.625ZM187.5 191.15625L187.5 197.5L186.42188 197.5L186.42188 191.15625L187.5 191.15625ZM186.32812 189.48438Q186.32812 189.21875 186.48438 189.03125Q186.65625 188.84375 186.96875 188.84375Q187.28125 188.84375 187.4375 189.03125Q187.60938 189.21875 187.60938 189.48438Q187.60938 189.73438 187.4375 189.92188Q187.28125 190.09375 186.96875 190.09375Q186.65625 190.09375 186.48438 189.92188Q186.32812 189.73438 186.32812 189.48438ZM193.4375 191.15625L194.42188 191.15625L194.42188 197.35938Q194.42188 198.20312 194.07812 198.79688Q193.73438 199.39062 193.125 199.6875Q192.53125 200.0 191.73438 200.0Q191.40625 200.0 190.95312 199.89062Q190.51562 199.79688 190.09375 199.54688Q189.67188 199.3125 189.39062 198.90625L189.95312 198.25Q190.35938 198.73438 190.78125 198.92188Q191.21875 199.10938 191.65625 199.10938Q192.17188 199.10938 192.54688 198.90625Q192.92188 198.71875 193.125 198.34375Q193.32812 197.96875 193.32812 197.42188L193.32812 192.54688L193.4375 191.15625ZM189.0625 194.40625L189.0625 194.28125Q189.0625 193.54688 189.23438 192.95312Q189.42188 192.35938 189.73438 191.9375Q190.0625 191.5 190.51562 191.28125Q190.98438 191.04688 191.57812 191.04688Q192.17188 191.04688 192.60938 191.25Q193.0625 191.45312 193.375 191.85938Q193.6875 192.25 193.875 192.8125Q194.0625 193.35938 194.125 194.0625L194.125 194.60938Q194.0625 195.29688 193.875 195.85938Q193.6875 196.42188 193.375 196.8125Q193.0625 197.20312 192.60938 197.42188Q192.15625 197.625 191.5625 197.625Q190.98438 197.625 190.53125 197.39062Q190.07812 197.14062 189.75 196.70312Q189.42188 196.26562 189.23438 195.6875Q189.0625 195.09375 189.0625 194.40625ZM190.15625 194.28125L190.15625 194.40625Q190.15625 194.875 190.25 195.29688Q190.34375 195.70312 190.54688 196.03125Q190.75 196.34375 191.0625 196.53125Q191.39062 196.70312 191.82812 196.70312Q192.35938 196.70312 192.70312 196.46875Q193.0625 196.23438 193.26562 195.85938Q193.48438 195.48438 193.59375 195.04688L193.59375 193.64062Q193.53125 193.3125 193.39062 193.01562Q193.26562 192.71875 193.0625 192.48438Q192.85938 192.23438 192.54688 192.09375Q192.25 191.95312 191.82812 191.95312Q191.39062 191.95312 191.0625 192.14062Q190.75 192.32812 190.54688 192.65625Q190.34375 192.96875 190.25 193.39062Q190.15625 193.79688 190.15625 194.28125ZM198.95312 197.625Q198.29688 197.625 197.75 197.40625Q197.21875 197.17188 196.82812 196.76562Q196.45312 196.34375 196.25 195.78125Q196.04688 195.21875 196.04688 194.54688L196.04688 194.3125Q196.04688 193.53125 196.26562 192.92188Q196.5 192.3125 196.89062 191.89062Q197.28125 191.46875 197.78125 191.26562Q198.28125 191.04688 198.8125 191.04688Q199.5 191.04688 199.98438 191.28125Q200.48438 191.51562 200.79688 191.9375Q201.125 192.34375 201.26562 192.92188Q201.42188 193.48438 201.42188 194.14062L201.42188 194.64062L196.6875 194.64062L196.6875 193.75L200.34375 193.75L200.34375 193.67188Q200.3125 193.25 200.15625 192.85938Q200.01562 192.45312 199.6875 192.20312Q199.375 191.9375 198.8125 191.9375Q198.45312 191.9375 198.14062 192.09375Q197.82812 192.25 197.59375 192.5625Q197.375 192.85938 197.25 193.29688Q197.14062 193.73438 197.14062 194.3125L197.14062 194.54688Q197.14062 195.0 197.26562 195.40625Q197.39062 195.79688 197.625 196.09375Q197.875 196.39062 198.21875 196.5625Q198.57812 196.73438 199.01562 196.73438Q199.59375 196.73438 199.98438 196.5Q200.39062 196.26562 200.6875 195.875L201.34375 196.39062Q201.14062 196.70312 200.8125 196.98438Q200.5 197.26562 200.03125 197.45312Q199.57812 197.625 198.95312 197.625Z" fill-rule="nonzero"/><path stroke="#cccccc" stroke-width="1.0" stroke-linecap="butt" d="M372.0 305.0L372.0 103.0" fill-rule="nonzero"/><path stroke="#ff0000" stroke-width="2.0" stroke-linecap="butt" stroke-opacity="0.7019608" stroke-dasharray="8.0,6.0,2.0,6.0" d="M372.0 139.0L512.0 224.0L411.0 328.0L372.0 345.0L337.0 325.0L337.0 285.0Z" fill-rule="nonzero"/><path fill="#ff0000" fill-opacity="0.7019608" d="M368.81802 135.81802L372.0 137.875L375.18198 135.81802L373.125 139.0L375.18198 142.18198L372.0 140.125L368.81802 142.18198L370.875 139.0Z" fill-rule="nonzero"/><path fill="#ff0000" fill-opacity="0.7019608" d="M508.81802 220.81802L512.0 222.875L515.182 220.81802L513.125 224.0L515.182 227.18198L512.0 225.125L508.81802 227.18198L510.875 224.0Z" fill-rule="nonzero"/><path fill="#ff0000" fill-opacity="0.7019608" d="M407.81802 324.81802L411.0 326.875L414.18198 324.81802L412.125 328.0L414.18198 331.18198L411.0 329.125L407.81802 331.18198L409.875 328.0Z" fill-rule="nonzero"/><path fill="#ff0000" fill-opacity="0.7019608" d="M368.81802 341.81802L372.0 343.875L375.18198 341.81802L373.125 345.0L375.18198 348.18198L372.0 346.125L368.81802 348.18198L370.875 345.0Z" fill-rule="nonzero"/><path fill="#ff0000" fill-opacity="0.7019608" d="M333.81802 321.81802L337.0 323.875L340.18198 321.81802L338.125 325.0L340.18198 328.18198L337.0 326.125L333.81802 328.18198L335.875 325.0Z" fill-rule="nonzero"/><path fill="#ff0000" fill-opacity="0.7019608" d="M333.81802 281.81802L337.0 283.875L340.18198 281.81802L338.125 285.0L340.18198 288.18198L337.0 286.125L333.81802 288.18198L335.875 285.0Z" fill-rule="nonzero"/><path fill="#757575" d="M29.959375 47.35L29.959375 33.0375L31.85 33.0375L31.85 38.9125L39.2875 38.9125L39.2875 33.0375L41.178123 33.0375L41.178123 47.35L39.2875 47.35L39.2875 40.6L31.85 40.6L31.85 47.35L29.959375 47.35ZM42.021873 42.1625Q42.021873 39.2875 43.615623 37.896873Q44.959373 36.740623 46.88125 36.740623Q49.021873 36.740623 50.365623 38.146873Q51.725 39.553123 51.725 42.021873Q51.725 44.021873 51.13125 45.178123Q50.5375 46.31875 49.38125 46.959373Q48.240623 47.584373 46.88125 47.584373Q44.69375 47.584373 43.35 46.19375Q42.021873 44.7875 42.021873 42.1625ZM43.81875 42.1625Q43.81875 44.1625 44.678123 45.146873Q45.553123 46.13125 46.88125 46.13125Q48.19375 46.13125 49.053123 45.146873Q49.928123 44.146873 49.928123 42.1Q49.928123 40.178123 49.053123 39.19375Q48.178123 38.19375 46.88125 38.19375Q45.553123 38.19375 44.678123 39.19375Q43.81875 40.178123 43.81875 42.1625ZM53.63125 47.35L53.63125 33.0375L55.38125 33.0375L55.38125 47.35L53.63125 47.35ZM57.584373 51.35L57.396873 49.69375Q57.975 49.85 58.396873 49.85Q58.990623 49.85 59.334373 49.646873Q59.69375 49.459373 59.9125 49.115623Q60.084373 48.85 60.459373 47.803123Q60.50625 47.646873 60.615623 47.365623L56.678123 36.975L58.56875 36.975L60.725 42.990623Q61.146873 44.13125 61.475 45.38125Q61.7875 44.178123 62.19375 43.021873L64.4125 36.975L66.17812 36.975L62.225 47.521873Q61.6 49.240623 61.240623 49.88125Q60.771873 50.75625 60.1625 51.146873Q59.56875 51.553123 58.725 51.553123Q58.209373 51.553123 57.584373 51.35ZM73.83437 47.35L73.83437 33.0375L76.69375 33.0375L80.06875 43.1625Q80.5375 44.584373 80.75625 45.2875Q81.00625 44.50625 81.52187 42.990623L84.94375 33.0375L87.49062 33.0375L87.49062 47.35L85.67812 47.35L85.67812 35.365623L81.50625 47.35L79.80312 47.35L75.6625 35.1625L75.6625 47.35L73.83437 47.35ZM90.67812 35.053123L90.67812 33.0375L92.44375 33.0375L92.44375 35.053123L90.67812 35.053123ZM90.67812 47.35L90.67812 36.975L92.44375 36.975L92.44375 47.35L90.67812 47.35ZM94.6625 47.35L94.6625 36.975L96.25625 36.975L96.25625 38.459373Q97.39687 36.740623 99.55312 36.740623Q100.49062 36.740623 101.27187 37.084373Q102.06875 37.4125 102.45937 37.959373Q102.85 38.50625 103.00625 39.25625Q103.1 39.75625 103.1 40.975L103.1 47.35L101.33437 47.35L101.33437 41.0375Q101.33437 39.959373 101.13125 39.428123Q100.92812 38.896873 100.39687 38.584373Q99.88125 38.271873 99.17812 38.271873Q98.05312 38.271873 97.24062 38.990623Q96.42812 39.69375 96.42812 41.678123L96.42812 47.35L94.6625 47.35ZM108.50625 45.771873L108.75625 47.334373Q108.02187 47.490623 107.42812 47.490623Q106.475 47.490623 105.94375 47.19375Q105.42812 46.88125 105.20937 46.396873Q104.99062 45.896873 104.99062 44.31875L104.99062 38.35L103.70937 38.35L103.70937 36.975L104.99062 36.975L104.99062 34.4125L106.74062 33.35L106.74062 36.975L108.50625 36.975L108.50625 38.35L106.74062 38.35L106.74062 44.4125Q106.74062 45.1625 106.83437 45.38125Q106.92812 45.584373 107.13125 45.725Q107.35 45.85 107.74062 45.85Q108.02187 45.85 108.50625 45.771873ZM109.95937 44.25625L111.70937 43.975Q111.85 45.021873 112.52187 45.584373Q113.19375 46.13125 114.39687 46.13125Q115.6 46.13125 116.17812 45.646873Q116.77187 45.146873 116.77187 44.490623Q116.77187 43.896873 116.25625 43.553123Q115.89687 43.31875 114.45937 42.959373Q112.52187 42.459373 111.77187 42.115623Q111.0375 41.75625 110.64687 41.13125Q110.25625 40.490623 110.25625 39.725Q110.25625 39.0375 110.56875 38.44375Q110.89687 37.85 111.44375 37.459373Q111.85 37.1625 112.55312 36.959373Q113.27187 36.740623 114.08437 36.740623Q115.30312 36.740623 116.225 37.1Q117.14687 37.44375 117.58437 38.053123Q118.02187 38.646873 118.19375 39.646873L116.475 39.88125Q116.35 39.084373 115.7875 38.646873Q115.225 38.19375 114.20937 38.19375Q112.99062 38.19375 112.475 38.6Q111.95937 38.990623 111.95937 39.521873Q111.95937 39.865623 112.17812 40.146873Q112.38125 40.428123 112.85 40.615623Q113.11562 40.709373 114.39687 41.053123Q116.27187 41.553123 117.00625 41.88125Q117.74062 42.19375 118.1625 42.803123Q118.58437 43.396873 118.58437 44.303123Q118.58437 45.178123 118.06875 45.959373Q117.55312 46.740623 116.58437 47.1625Q115.61562 47.584373 114.39687 47.584373Q112.38125 47.584373 111.31875 46.740623Q110.25625 45.896873 109.95937 44.25625Z" fill-rule="nonzero"/></svg>