<svg version="1.1" viewBox="0.0 0.0 744.0 567.0" fill="none" stroke="none" stroke-linecap="square" stroke-miterlimit="10" width="744" height="567" xmlns:xlink="http://www.w3.org/1999/xlink" xmlns="http://www.w3.org/2000/svg"><path fill="#ffffff" d="M0 0L744.0 0L744.0 567.0L0 567.0L0 0Z" fill-rule="nonzero"/><path fill="#ffffff" d="M28.35 71.25L715.64996 71.25L715.64996 538.65L28.35 538.65L28.35 71.25Z" fill-rule="nonzero"/><path stroke="#cccccc" stroke-width="1.0" stroke-linecap="butt" d="M372.0 305.0C372.0 305.0 372.0 305.0 372.0 305.0C372.0 305.0 372.0 305.0 372.0 305.0C372.0 305.0 372.0 305.0 372.0 305.0C372.0 305.0 372.0 305.0 372.0 305.0" fill-rule="nonzero"/><path fill="#000000" d="M360.0625 297.04688L360.0625 298.35938Q360.0625 299.40625 359.875 300.125Q359.6875 300.84375 359.32812 301.28125Q358.98438 301.71875 358.48438 301.92188Q358.0 302.125 357.375 302.125Q356.89062 302.125 356.46875 302.0Q356.04688 301.875 355.71875 301.60938Q355.39062 301.32812 355.15625 300.89062Q354.92188 300.45312 354.79688 299.82812Q354.67188 299.1875 354.67188 298.35938L354.67188 297.04688Q354.67188 296.0 354.85938 295.29688Q355.0625 294.59375 355.40625 294.15625Q355.76562 293.71875 356.25 293.53125Q356.75 293.34375 357.35938 293.34375Q357.85938 293.34375 358.28125 293.46875Q358.70312 293.59375 359.03125 293.85938Q359.35938 294.10938 359.57812 294.54688Q359.8125 294.96875 359.9375 295.59375Q360.0625 296.21875 360.0625 297.04688ZM358.96875 298.53125L358.96875 296.875Q358.96875 296.29688 358.90625 295.85938Q358.84375 295.42188 358.70312 295.10938Q358.57812 294.79688 358.375 294.60938Q358.1875 294.42188 357.9375 294.32812Q357.6875 294.23438 357.35938 294.23438Q356.98438 294.23438 356.67188 294.375Q356.375 294.51562 356.17188 294.82812Q355.96875 295.14062 355.85938 295.65625Q355.76562 296.15625 355.76562 296.875L355.76562 298.53125Q355.76562 299.10938 355.82812 299.54688Q355.90625 299.98438 356.03125 300.3125Q356.17188 300.625 356.35938 300.82812Q356.5625 301.03125 356.8125 301.125Q357.0625 301.21875 357.375 301.21875Q357.78125 301.21875 358.07812 301.07812Q358.375 300.92188 358.57812 300.59375Q358.78125 300.26562 358.875 299.76562Q358.96875 299.25 358.96875 298.53125ZM362.8125 300.70312L362.8125 301.57812Q362.8125 302.125 362.53125 302.71875Q362.26562 303.3125 361.78125 303.70312L361.17188 303.28125Q361.35938 303.01562 361.48438 302.75Q361.60938 302.48438 361.67188 302.20312Q361.75 301.92188 361.75 301.59375L361.75 300.70312L362.8125 300.70312ZM369.0625 297.04688L369.0625 298.35938Q369.0625 299.40625 368.875 300.125Q368.6875 300.84375 368.32812 301.28125Q367.98438 301.71875 367.48438 301.92188Q367.0 302.125 366.375 302.125Q365.89062 302.125 365.46875 302.0Q365.04688 301.875 364.71875 301.60938Q364.39062 301.32812 364.15625 300.89062Q363.92188 300.45312 363.79688 299.82812Q363.67188 299.1875 363.67188 298.35938L363.67188 297.04688Q363.67188 296.0 363.85938 295.29688Q364.0625 294.59375 364.40625 294.15625Q364.76562 293.71875 365.25 293.53125Q365.75 293.34375 366.35938 293.34375Q366.85938 293.34375 367.28125 293.46875Q367.70312 293.59375 368.03125 293.85938Q368.35938 294.10938 368.57812 294.54688Q368.8125 294.96875 368.9375 295.59375Q369.0625 296.21875 369.0625 297.04688ZM367.96875 298.53125L367.96875 296.875Q367.96875 296.29688 367.90625 295.85938Q367.84375 295.42188 367.70312 295.10938Q367.57812 294.79688 367.375 294.60938Q367.1875 294.42188 366.9375 294.32812Q366.6875 294.23438 366.35938 294.23438Q365.98438 294.23438 365.67188 294.375Q365.375 294.51562 365.17188 294.82812Q364.96875 295.14062 364.85938 295.65625Q364.76562 296.15625 364.76562 296.875L364.76562 298.53125Q364.76562 299.10938 364.82812 299.54688Q364.90625 299.98438 365.03125 300.3125Q365.17188 300.625 365.35938 300.82812Q365.5625 301.03125 365.8125 301.125Q366.0625 301.21875 366.375 301.21875Q366.78125 301.21875 367.07812 301.07812Q367.375 300.92188 367.57812 300.59375Q367.78125 300.26562 367.875 299.76562Q367.96875 299.25 367.96875 298.53125Z" fill-rule="nonzero"/><path stroke="#cccccc" stroke-width="1.0" stroke-linecap="butt" d="M422.425 305.0C422.425 277.15103 399.84897 254.575 372.0 254.575C344.15103 254.575 321.575 277.15103 321.575 305.0C321.575 332.84897 344.15103 355.425 372.0 355.425C399.84897 355.425 422.425 332.84897 422.425 305.0" fill-rule="nonzero"/><path fill="#000000" d="M360.0625 246.62187L360.0625 247.93437Q360.0625 248.98125 359.875 249.7Q359.6875 250.41875 359.32812 250.85625Q358.98438 251.29375 358.48438 251.49687Q358.0 251.7 357.375 251.7Q356.89062 251.7 356.46875 251.575Q356.04688 251.45 355.71875 251.18437Q355.39062 250.90312 355.15625 250.46562Q354.92188 250.02812 354.79688 249.40312Q354.67188 248.7625 354.67188 247.93437L354.67188 246.62187Q354.67188 245.575 354.85938 244.87187Q355.0625 244.16875 355.40625 243.73125Q355.76562 243.29375 356.25 243.10625Q356.75 242.91875 357.35938 242.91875Q357.85938 242.91875 358.28125 243.04375Q358.70312 243.16875 359.03125 243.43437Q359.35938 243.68437 359.57812 244.12187Q359.8125 244.54375 359.9375 245.16875Q360.0625 245.79375 360.0625 246.62187ZM358.96875 248.10625L358.96875 246.45Q358.96875 245.87187 358.90625 245.43437Q358.84375 244.99687 358.70312 244.68437Q358.57812 244.37187 358.375 244.18437Q358.1875 243.99687 357.9375 243.90312Q357.6875 243.80937 357.35938 243.80937Q356.98438 243.80937 356.67188 243.95Q356.375 244.09062 356.17188 244.40312Q355.96875 244.71562 355.85938 245.23125Q355.76562 245.73125 355.76562 246.45L355.76562 248.10625Q355.76562 248.68437 355.82812 249.12187Q355.90625 249.55937 356.03125 249.8875Q356.17188 250.2 356.35938 250.40312Q356.5625 250.60625 356.8125 250.7Q357.0625 250.79375 357.375 250.79375Q357.78125 250.79375 358.07812 250.65312Q358.375 250.49687 358.57812 250.16875Q358.78125 249.84062 358.875 249.34062Q358.96875 248.825 358.96875 248.10625ZM362.8125 250.27812L362.8125 251.15312Q362.8125 251.7 362.53125 252.29375Q362.26562 252.8875 361.78125 253.27812L361.17188 252.85625Q361.35938 252.59062 361.48438 252.325Q361.60938 252.05937 361.67188 251.77812Q361.75 251.49687 361.75 251.16875L361.75 250.27812L362.8125 250.27812ZM367.26562 242.99687L367.26562 251.575L366.1875 251.575L366.1875 244.35625L364.0 245.15312L364.0 244.16875L367.10938 242.99687L367.26562 242.99687Z" fill-rule="nonzero"/><path stroke="#cccccc" stroke-width="1.0" stroke-linecap="butt" d="M472.85 305.0C472.85 249.30208 427.6979 204.15 372.0 204.15C316.3021 204.15 271.15 249.30208 271.15 305.0C271.15 360.6979 316.3021 405.85 372.0 405.85C427.6979 405.85 472.85 360.6979 472.85 305.0" fill-rule="nonzero"/><path fill="#000000" d="M360.0625 196.19687L360.0625 197.50937Q360.0625 198.55624 359.875 199.275Q359.6875 199.99374 359.32812 200.43124Q358.98438 200.86874 358.48438 201.07187Q358.0 201.275 357.375 201.275Q356.89062 201.275 356.46875 201.15Q356.04688 201.025 355.71875 200.75937Q355.39062 200.47812 355.15625 200.04062Q354.92188 199.60312 354.79688 198.97812Q354.67188 198.3375 354.67188 197.50937L354.67188 196.19687Q354.67188 195.15 354.85938 194.44687Q355.0625 193.74374 355.40625 193.30624Q355.76562 192.86874 356.25 192.68124Q356.75 192.49374 357.35938 192.49374Q357.85938 192.49374 358.28125 192.61874Q358.70312 192.74374 359.03125 193.00937Q359.35938 193.25937 359.57812 193.69687Q359.8125 194.11874 359.9375 194.74374Q360.0625 195.36874 360.0625 196.19687ZM358.96875 197.68124L358.96875 196.025Q358.96875 195.44687 358.90625 195.00937Q358.84375 194.57187 358.70312 194.25937Q358.57812 193.94687 358.375 193.75937Q358.1875 193.57187 357.9375 193.47812Q357.6875 193.38437 357.35938 193.38437Q356.98438 193.38437 356.67188 193.525Q356.375 193.66562 356.17188 193.97812Q355.96875 194.29062 355.85938 194.80624Q355.76562 195.30624 355.76562 196.025L355.76562 197.68124Q355.76562 198.25937 355.82812 198.69687Q355.90625 199.13437 356.03125 199.4625Q356.17188 199.775 356.35938 199.97812Q356.5625 200.18124 356.8125 200.275Q357.0625 200.36874 357.375 200.36874Q357.78125 200.36874 358.07812 200.22812Q358.375 200.07187 358.57812 199.74374Q358.78125 199.41562 358.875 198.91562Q358.96875 198.4 358.96875 197.68124ZM362.8125 199.85312L362.8125 200.72812Q362.8125 201.275 362.53125 201.86874Q362.26562 202.4625 361.78125 202.85312L361.17188 202.43124Q361.35938 202.16562 361.48438 201.9Q361.60938 201.63437 361.67188 201.35312Q361.75 201.07187 361.75 200.74374L361.75 199.85312L362.8125 199.85312ZM369.29688 200.25937L369.29688 201.15L363.71875 201.15L363.71875 200.36874L366.51562 197.25937Q367.03125 196.68124 367.3125 196.29062Q367.59375 195.88437 367.70312 195.57187Q367.82812 195.24374 367.82812 194.91562Q367.82812 194.49374 367.65625 194.15Q367.48438 193.80624 367.14062 193.60312Q366.8125 193.38437 366.32812 193.38437Q365.76562 193.38437 365.39062 193.61874Q365.01562 193.8375 364.82812 194.22812Q364.64062 194.61874 364.64062 195.11874L363.54688 195.11874Q363.54688 194.4 363.85938 193.80624Q364.1875 193.2125 364.79688 192.85312Q365.42188 192.49374 366.32812 192.49374Q367.14062 192.49374 367.71875 192.79062Q368.29688 193.07187 368.59375 193.5875Q368.90625 194.0875 368.90625 194.775Q368.90625 195.15 368.78125 195.54062Q368.65625 195.91562 368.4375 196.30624Q368.21875 196.68124 367.92188 197.05624Q367.64062 197.41562 367.3125 197.775L365.01562 200.25937L369.29688 200.25937Z" fill-rule="nonzero"/><path stroke="#cccccc" stroke-width="1.0" stroke-linecap="butt" d="M523.275 305.0C523.275 221.45312 455.54688 153.725 372.0 153.725C288.45312 153.725 220.725 221.45312 220.725 305.0C220.725 388.54688 288.45312 456.275 372.0 456.275C455.54688 456.275 523.275 388.54688 523.275 305.0" fill-rule="nonzero"/><path fill="#000000" d="M360.0625 145.77188L360.0625 147.08438Q360.0625 148.13126 359.875 148.85Q359.6875 149.56876 359.32812 150.00626Q358.98438 150.44376 358.48438 150.64688Q358.0 150.85 357.375 150.85Q356.89062 150.85 356.46875 150.725Q356.04688 150.6 355.71875 150.33438Q355.39062 150.05313 355.15625 149.61563Q354.92188 149.17813 354.79688 148.55313Q354.67188 147.9125 354.67188 147.08438L354.67188 145.77188Q354.67188 144.725 354.85938 144.02188Q355.0625 143.31876 355.40625 142.88126Q355.76562 142.44376 356.25 142.25626Q356.75 142.06876 357.35938 142.06876Q357.85938 142.06876 358.28125 142.19376Q358.70312 142.31876 359.03125 142.58438Q359.35938 142.83438 359.57812 143.27188Q359.8125 143.69376 359.9375 144.31876Q360.0625 144.94376 360.0625 145.77188ZM358.96875 147.25626L358.96875 145.6Q358.96875 145.02188 358.90625 144.58438Q358.84375 144.14688 358.70312 143.83438Q358.57812 143.52188 358.375 143.33438Q358.1875 143.14688 357.9375 143.05313Q357.6875 142.95938 357.35938 142.95938Q356.98438 142.95938 356.67188 143.1Q356.375 143.24063 356.17188 143.55313Q355.96875 143.86563 355.85938 144.38126Q355.76562 144.88126 355.76562 145.6L355.76562 147.25626Q355.76562 147.83438 355.82812 148.27188Q355.90625 148.70938 356.03125 149.0375Q356.17188 149.35 356.35938 149.55313Q356.5625 149.75626 356.8125 149.85Q357.0625 149.94376 357.375 149.94376Q357.78125 149.94376 358.07812 149.80313Q358.375 149.64688 358.57812 149.31876Q358.78125 148.99063 358.875 148.49063Q358.96875 147.975 358.96875 147.25626ZM362.8125 149.42813L362.8125 150.30313Q362.8125 150.85 362.53125 151.44376Q362.26562 152.0375 361.78125 152.42813L361.17188 152.00626Q361.35938 151.74063 361.48438 151.475Q361.60938 151.20938 361.67188 150.92813Q361.75 150.64688 361.75 150.31876L361.75 149.42813L362.8125 149.42813ZM365.29688 145.92813L366.0625 145.92813Q366.64062 145.92813 367.0 145.74063Q367.375 145.5375 367.5625 145.20938Q367.75 144.88126 367.75 144.45938Q367.75 143.975 367.57812 143.64688Q367.42188 143.30313 367.09375 143.13126Q366.76562 142.95938 366.26562 142.95938Q365.79688 142.95938 365.45312 143.14688Q365.10938 143.31876 364.90625 143.64688Q364.71875 143.975 364.71875 144.42813L363.625 144.42813Q363.625 143.77188 363.95312 143.24063Q364.28125 142.70938 364.875 142.39688Q365.46875 142.06876 366.26562 142.06876Q367.03125 142.06876 367.60938 142.35Q368.1875 142.61563 368.51562 143.1625Q368.84375 143.69376 368.84375 144.49063Q368.84375 144.81876 368.6875 145.17813Q368.53125 145.5375 368.21875 145.86563Q367.90625 146.17813 367.40625 146.38126Q366.92188 146.58438 366.21875 146.58438L365.29688 146.58438L365.29688 145.92813ZM365.29688 146.81876L365.29688 146.1625L366.21875 146.1625Q367.03125 146.1625 367.5625 146.36563Q368.09375 146.55313 368.40625 146.88126Q368.71875 147.19376 368.84375 147.58438Q368.96875 147.95938 368.96875 148.35Q368.96875 148.94376 368.76562 149.4125Q368.5625 149.86563 368.1875 150.19376Q367.82812 150.50626 367.32812 150.67813Q366.84375 150.85 366.26562 150.85Q365.70312 150.85 365.21875 150.69376Q364.73438 150.52188 364.35938 150.225Q363.98438 149.92813 363.76562 149.49063Q363.5625 149.0375 363.5625 148.475L364.64062 148.475Q364.64062 148.9125 364.82812 149.25626Q365.03125 149.58438 365.39062 149.77188Q365.76562 149.94376 366.26562 149.94376Q366.76562 149.94376 367.125 149.77188Q367.48438 149.6 367.67188 149.25626Q367.875 148.89688 367.875 148.36563Q367.875 147.83438 367.65625 147.49063Q367.4375 147.14688 367.01562 146.99063Q366.60938 146.81876 366.0625 146.81876L365.29688 146.81876Z" fill-rule="nonzero"/><path stroke="#cccccc" stroke-width="1.0" stroke-linecap="butt" d="M573.7 305.0C573.7 193.60417 483.39584 103.3 372.0 103.3C260.60416 103.3 170.3 193.60417 170.3 305.0C170.3 416.39584 260.60416 506.7 372.0 506.7C483.39584 506.7 573.7 416.39584 573.7 305.0" fill-rule="nonzero"/><path fill="#000000" d="M360.0625 95.34688L360.0625 96.65938Q360.0625 97.70625 359.875 98.425Q359.6875 99.14375 359.32812 99.58125Q358.98438 100.01875 358.48438 100.22188Q358.0 100.425 357.375 100.425Q356.89062 100.425 356.46875 100.3Q356.04688 100.175 355.71875 99.90938Q355.39062 99.62813 355.15625 99.19063Q354.92188 98.75313 354.79688 98.12813Q354.67188 97.4875 354.67188 96.65938L354.67188 95.34688Q354.67188 94.3 354.85938 93.59688Q355.0625 92.89375 355.40625 92.45625Q355.76562 92.01875 356.25 91.83125Q356.75 91.64375 357.35938 91.64375Q357.85938 91.64375 358.28125 91.76875Q358.70312 91.89375 359.03125 92.15938Q359.35938 92.40938 359.57812 92.84688Q359.8125 93.26875 359.9375 93.89375Q360.0625 94.51875 360.0625 95.34688ZM358.96875 96.83125L358.96875 95.175Q358.96875 94.59688 358.90625 94.15938Q358.84375 93.72188 358.70312 93.40938Q358.57812 93.09688 358.375 92.90938Q358.1875 92.72188 357.9375 92.62813Q357.6875 92.53438 357.35938 92.53438Q356.98438 92.53438 356.67188 92.675Q356.375 92.81563 356.17188 93.12813Q355.96875 93.44063 355.85938 93.95625Q355.76562 94.45625 355.76562 95.175L355.76562 96.83125Q355.76562 97.40938 355.82812 97.84688Q355.90625 98.28438 356.03125 98.6125Q356.17188 98.925 356.35938 99.12813Q356.5625 99.33125 356.8125 99.425Q357.0625 99.51875 357.375 99.51875Q357.78125 99.51875 358.07812 99.37813Q358.375 99.22188 358.57812 98.89375Q358.78125 98.56563 358.875 98.06563Q358.96875 97.55 358.96875 96.83125ZM362.8125 99.00313L362.8125 99.87813Q362.8125 100.425 362.53125 101.01875Q362.26562 101.6125 361.78125 102.00313L361.17188 101.58125Q361.35938 101.31563 361.48438 101.05Q361.60938 100.78438 361.67188 100.50313Q361.75 100.22188 361.75 99.89375L361.75 99.00313L362.8125 99.00313ZM369.46875 97.425L369.46875 98.31563L363.3125 98.31563L363.3125 97.675L367.125 91.76875L368.01562 91.76875L367.0625 93.47188L364.54688 97.425L369.46875 97.425ZM368.28125 91.76875L368.28125 100.3L367.20312 100.3L367.20312 91.76875L368.28125 91.76875Z" fill-rule="nonzero"/><path stroke="#cccccc" stroke-width="1.0" stroke-linecap="butt" d="M372.0 305.0L372.0 103.0" fill-rule="nonzero"/><path fill="#000000" d="M356.67188 76.578125L356.67188 77.5L352.40625 77.5L352.40625 76.578125L356.67188 76.578125ZM352.625 68.96875L352.625 77.5L351.48438 77.5L351.48438 68.96875L352.625 68.96875ZM358.5 71.15625L358.5 77.5L357.42188 77.5L357.42188 71.15625L358.5 71.15625ZM357.32812 69.484375Q357.32812 69.21875 357.48438 69.03125Q357.65625 68.84375 357.96875 68.84375Q358.28125 68.84375 358.4375 69.03125Q358.60938 69.21875 358.60938 69.484375Q358.60938 69.734375 358.4375 69.921875Q358.28125 70.09375 357.96875 70.09375Q357.65625 70.09375 357.48438 69.921875Q357.32812 69.734375 357.32812 69.484375ZM361.40625 72.515625L361.40625 77.5L360.32812 77.5L360.32812 71.15625L361.35938 71.15625L361.40625 72.515625ZM361.15625 74.09375L360.70312 74.078125Q360.70312 73.421875 360.89062 72.875Q361.07812 72.3125 361.42188 71.90625Q361.76562 71.5 362.23438 71.28125Q362.70312 71.046875 363.28125 71.046875Q363.75 71.046875 364.125 71.171875Q364.5 71.296875 364.76562 71.578125Q365.03125 71.84375 365.17188 72.28125Q365.3125 72.71875 365.3125 73.34375L365.3125 77.5L364.21875 77.5L364.21875 73.328125Q364.21875 72.828125 364.07812 72.53125Q363.9375 72.234375 363.65625 72.09375Q363.375 71.953125 362.95312 71.953125Q362.54688 71.953125 362.21875 72.125Q361.89062 72.296875 361.65625 72.59375Q361.42188 72.890625 361.28125 73.28125Q361.15625 73.65625 361.15625 74.09375ZM371.0625 76.421875L371.0625 73.15625Q371.0625 72.78125 370.90625 72.5Q370.76562 72.21875 370.46875 72.078125Q370.17188 71.921875 369.73438 71.921875Q369.3125 71.921875 369.0 72.0625Q368.70312 72.203125 368.53125 72.4375Q368.35938 72.65625 368.35938 72.921875L367.28125 72.921875Q367.28125 72.578125 367.45312 72.25Q367.625 71.90625 367.95312 71.640625Q368.28125 71.359375 368.75 71.203125Q369.21875 71.046875 369.79688 71.046875Q370.48438 71.046875 371.01562 71.28125Q371.54688 71.515625 371.84375 71.984375Q372.15625 72.453125 372.15625 73.15625L372.15625 76.109375Q372.15625 76.4375 372.20312 76.796875Q372.26562 77.140625 372.375 77.40625L372.375 77.5L371.23438 77.5Q371.15625 77.3125 371.10938 77.0Q371.0625 76.6875 371.0625 76.421875ZM371.25 73.65625L371.26562 74.421875L370.17188 74.421875Q369.70312 74.421875 369.34375 74.5Q368.98438 74.5625 368.73438 74.71875Q368.48438 74.859375 368.35938 75.078125Q368.23438 75.296875 368.23438 75.59375Q368.23438 75.890625 368.35938 76.140625Q368.5 76.375 368.76562 76.53125Q369.04688 76.671875 369.4375 76.671875Q369.9375 76.671875 370.3125 76.46875Q370.70312 76.25 370.92188 75.953125Q371.15625 75.640625 371.17188 75.34375L371.64062 75.875Q371.59375 76.109375 371.40625 76.421875Q371.23438 76.71875 370.92188 77.0Q370.625 77.265625 370.20312 77.453125Q369.79688 77.625 369.28125 77.625Q368.64062 77.625 368.15625 77.375Q367.67188 77.109375 367.40625 76.6875Q367.14062 76.265625 367.14062 75.734375Q367.14062 75.21875 367.32812 74.84375Q367.53125 74.453125 367.90625 74.1875Q368.28125 73.921875 368.8125 73.796875Q369.34375 73.65625 370.0 73.65625L371.25 73.65625ZM375.5 68.5L375.5 77.5L374.42188 77.5L374.42188 68.5L375.5 68.5ZM377.04688 74.40625L377.04688 74.265625Q377.04688 73.578125 377.23438 73.0Q377.4375 72.40625 377.8125 71.96875Q378.1875 71.53125 378.71875 71.296875Q379.25 71.046875 379.92188 71.046875Q380.57812 71.046875 381.10938 71.296875Q381.65625 71.53125 382.03125 71.96875Q382.40625 72.40625 382.60938 73.0Q382.8125 73.578125 382.8125 74.265625L382.8125 74.40625Q382.8125 75.078125 382.60938 75.671875Q382.40625 76.25 382.03125 76.6875Q381.65625 77.125 381.125 77.375Q380.59375 77.625 379.92188 77.625Q379.26562 77.625 378.71875 77.375Q378.1875 77.125 377.8125 76.6875Q377.4375 76.25 377.23438 75.671875Q377.04688 75.078125 377.04688 74.40625ZM378.125 74.265625L378.125 74.40625Q378.125 74.875 378.23438 75.296875Q378.34375 75.71875 378.5625 76.046875Q378.79688 76.359375 379.14062 76.546875Q379.48438 76.71875 379.92188 76.71875Q380.375 76.71875 380.70312 76.546875Q381.04688 76.359375 381.26562 76.046875Q381.5 75.71875 381.60938 75.296875Q381.71875 74.875 381.71875 74.40625L381.71875 74.265625Q381.71875 73.796875 381.60938 73.375Q381.5 72.953125 381.26562 72.640625Q381.04688 72.3125 380.70312 72.125Q380.375 71.9375 379.92188 71.9375Q379.46875 71.9375 379.125 72.125Q378.79688 72.3125 378.5625 72.640625Q378.34375 72.953125 378.23438 73.375Q378.125 73.796875 378.125 74.265625ZM384.04688 74.40625L384.04688 74.265625Q384.04688 73.578125 384.23438 73.0Q384.4375 72.40625 384.8125 71.96875Q385.1875 71.53125 385.71875 71.296875Q386.25 71.046875 386.92188 71.046875Q387.57812 71.046875 388.10938 71.296875Q388.65625 71.53125 389.03125 71.96875Q389.40625 72.40625 389.60938 73.0Q389.8125 73.578125 389.8125 74.265625L389.8125 74.40625Q389.8125 75.078125 389.60938 75.671875Q389.40625 76.25 389.03125 76.6875Q388.65625 77.125 388.125 77.375Q387.59375 77.625 386.92188 77.625Q386.26562 77.625 385.71875 77.375Q385.1875 77.125 384.8125 76.6875Q384.4375 76.25 384.23438 75.671875Q384.04688 75.078125 384.04688 74.40625ZM385.125 74.265625L385.125 74.40625Q385.125 74.875 385.23438 75.296875Q385.34375 75.71875 385.5625 76.046875Q385.79688 76.359375 386.14062 76.546875Q386.48438 76.71875 386.92188 76.71875Q387.375 76.71875 387.70312 76.546875Q388.04688 76.359375 388.26562 76.046875Q388.5 75.71875 388.60938 75.296875Q388.71875 74.875 388.71875 74.40625L388.71875 74.265625Q388.71875 73.796875 388.60938 73.375Q388.5 72.953125 388.26562 72.640625Q388.04688 72.3125 387.70312 72.125Q387.375 71.9375 386.92188 71.9375Q386.46875 71.9375 386.125 72.125Q385.79688 72.3125 385.5625 72.640625Q385.34375 72.953125 385.23438 73.375Q385.125 73.796875 385.125 74.265625ZM392.5 68.5L392.5 77.5L391.42188 77.5L391.42188 68.5L392.5 68.5Z" fill-rule="nonzero"/><path stroke="#cccccc" stroke-width="1.0" stroke-linecap="butt" d="M372.0 305.0L547.0 204.0" fill-rule="nonzero"/><path fill="#000000" d="M543.6406 190.78125L544.7656 190.78125Q544.6719 191.59375 544.2969 192.23438Q543.9219 192.875 543.2344 193.25Q542.5625 193.625 541.53125 193.625Q540.78125 193.625 540.1719 193.34375Q539.5625 193.04688 539.1094 192.53125Q538.6719 192.01562 538.4375 191.29688Q538.2031 190.5625 538.2031 189.65625L538.2031 188.8125Q538.2031 187.92188 538.4375 187.1875Q538.6719 186.45312 539.125 185.9375Q539.5781 185.40625 540.2031 185.125Q540.84375 184.84375 541.625 184.84375Q542.59375 184.84375 543.2656 185.21875Q543.9375 185.57812 544.2969 186.21875Q544.6719 186.85938 544.7656 187.70312L543.6406 187.70312Q543.5625 187.10938 543.3281 186.6875Q543.1094 186.25 542.7031 186.01562Q542.2969 185.78125 541.625 185.78125Q541.0625 185.78125 540.625 186.0Q540.2031 186.20312 539.90625 186.60938Q539.625 187.0 539.46875 187.5625Q539.3281 188.125 539.3281 188.79688L539.3281 189.65625Q539.3281 190.28125 539.4531 190.84375Q539.59375 191.39062 539.8594 191.8125Q540.125 192.21875 540.5469 192.46875Q540.96875 192.70312 541.53125 192.70312Q542.25 192.70312 542.6719 192.46875Q543.1094 192.23438 543.3281 191.8125Q543.5469 191.39062 543.6406 190.78125ZM550.0625 192.42188L550.0625 189.15625Q550.0625 188.78125 549.90625 188.5Q549.7656 188.21875 549.46875 188.07812Q549.1719 187.92188 548.7344 187.92188Q548.3125 187.92188 548.0 188.0625Q547.7031 188.20312 547.53125 188.4375Q547.3594 188.65625 547.3594 188.92188L546.28125 188.92188Q546.28125 188.57812 546.4531 188.25Q546.625 187.90625 546.9531 187.64062Q547.28125 187.35938 547.75 187.20312Q548.21875 187.04688 548.7969 187.04688Q549.4844 187.04688 550.0156 187.28125Q550.5469 187.51562 550.84375 187.98438Q551.15625 188.45312 551.15625 189.15625L551.15625 192.10938Q551.15625 192.4375 551.2031 192.79688Q551.2656 193.14062 551.375 193.40625L551.375 193.5L550.2344 193.5Q550.15625 193.3125 550.1094 193.0Q550.0625 192.6875 550.0625 192.42188ZM550.25 189.65625L550.2656 190.42188L549.1719 190.42188Q548.7031 190.42188 548.34375 190.5Q547.9844 190.5625 547.7344 190.71875Q547.4844 190.85938 547.3594 191.07812Q547.2344 191.29688 547.2344 191.59375Q547.2344 191.89062 547.3594 192.14062Q547.5 192.375 547.7656 192.53125Q548.0469 192.67188 548.4375 192.67188Q548.9375 192.67188 549.3125 192.46875Q549.7031 192.25 549.9219 191.95312Q550.15625 191.64062 550.1719 191.34375L550.6406 191.875Q550.59375 192.10938 550.40625 192.42188Q550.2344 192.71875 549.9219 193.0Q549.625 193.26562 549.2031 193.45312Q548.7969 193.625 548.28125 193.625Q547.6406 193.625 547.15625 193.375Q546.6719 193.10938 546.40625 192.6875Q546.1406 192.26562 546.1406 191.73438Q546.1406 191.21875 546.3281 190.84375Q546.53125 190.45312 546.90625 190.1875Q547.28125 189.92188 547.8125 189.79688Q548.34375 189.65625 549.0 189.65625L550.25 189.65625ZM554.40625 188.15625L554.40625 193.5L553.3281 193.5L553.3281 187.15625L554.375 187.15625L554.40625 188.15625ZM556.3906 187.125L556.3906 188.125Q556.25 188.10938 556.125 188.09375Q556.0156 188.07812 555.8594 188.07812Q555.4844 188.07812 555.1875 188.20312Q554.90625 188.3125 554.7031 188.53125Q554.5156 188.73438 554.3906 189.03125Q554.28125 189.32812 554.25 189.67188L553.9375 189.84375Q553.9375 189.26562 554.0469 188.76562Q554.1719 188.26562 554.40625 187.875Q554.65625 187.48438 555.0156 187.26562Q555.3906 187.04688 555.90625 187.04688Q556.03125 187.04688 556.1719 187.07812Q556.3281 187.09375 556.3906 187.125ZM559.1094 192.84375L560.875 187.15625L562.03125 187.15625L559.4844 194.48438Q559.40625 194.71875 559.25 194.98438Q559.1094 195.26562 558.8906 195.5Q558.6719 195.75 558.3594 195.90625Q558.0469 196.0625 557.6094 196.0625Q557.4844 196.0625 557.28125 196.01562Q557.0781 195.98438 557.0 195.96875L557.0 195.09375Q557.0469 195.09375 557.1406 195.09375Q557.25 195.10938 557.28125 195.10938Q557.65625 195.10938 557.90625 195.01562Q558.1719 194.92188 558.34375 194.6875Q558.53125 194.46875 558.65625 194.07812L559.1094 192.84375ZM557.8125 187.15625L559.4531 192.07812L559.7344 193.21875L558.96875 193.625L556.625 187.15625L557.8125 187.15625ZM563.0469 190.40625L563.0469 190.26562Q563.0469 189.57812 563.2344 189.0Q563.4375 188.40625 563.8125 187.96875Q564.1875 187.53125 564.71875 187.29688Q565.25 187.04688 565.9219 187.04688Q566.5781 187.04688 567.1094 187.29688Q567.65625 187.53125 568.03125 187.96875Q568.40625 188.40625 568.6094 189.0Q568.8125 189.57812 568.8125 190.26562L568.8125 190.40625Q568.8125 191.07812 568.6094 191.67188Q568.40625 192.25 568.03125 192.6875Q567.65625 193.125 567.125 193.375Q566.59375 193.625 565.9219 193.625Q565.2656 193.625 564.71875 193.375Q564.1875 193.125 563.8125 192.6875Q563.4375 192.25 563.2344 191.67188Q563.0469 191.07812 563.0469 190.40625ZM564.125 190.26562L564.125 190.40625Q564.125 190.875 564.2344 191.29688Q564.34375 191.71875 564.5625 192.04688Q564.7969 192.35938 565.1406 192.54688Q565.4844 192.71875 565.9219 192.71875Q566.375 192.71875 566.7031 192.54688Q567.0469 192.35938 567.2656 192.04688Q567.5 191.71875 567.6094 191.29688Q567.71875 190.875 567.71875 190.40625L567.71875 190.26562Q567.71875 189.79688 567.6094 189.375Q567.5 188.95312 567.2656 188.64062Q567.0469 188.3125 566.7031 188.125Q566.375 187.9375 565.9219 187.9375Q565.46875 187.9375 565.125 188.125Q564.7969 188.3125 564.5625 188.64062Q564.34375 188.95312 564.2344 189.375Q564.125 189.79688 564.125 190.26562ZM571.40625 188.375L571.40625 195.9375L570.3281 195.9375L570.3281 187.15625L571.3125 187.15625L571.40625 188.375ZM575.6875 190.28125L575.6875 190.40625Q575.6875 191.09375 575.5156 191.6875Q575.3594 192.26562 575.0469 192.70312Q574.7344 193.14062 574.2656 193.39062Q573.8125 193.625 573.21875 193.625Q572.625 193.625 572.15625 193.42188Q571.6875 193.21875 571.3594 192.84375Q571.0469 192.45312 570.8594 191.92188Q570.6719 191.39062 570.59375 190.71875L570.59375 190.0625Q570.6719 189.35938 570.8594 188.8125Q571.0469 188.25 571.3594 187.85938Q571.6875 187.45312 572.1406 187.25Q572.6094 187.04688 573.2031 187.04688Q573.7969 187.04688 574.2656 187.28125Q574.7344 187.5 575.0469 187.9375Q575.3594 188.35938 575.5156 188.95312Q575.6875 189.54688 575.6875 190.28125ZM574.59375 190.40625L574.59375 190.28125Q574.59375 189.79688 574.4844 189.39062Q574.3906 188.96875 574.1875 188.65625Q573.9844 188.32812 573.65625 188.14062Q573.3281 187.95312 572.8906 187.95312Q572.4844 187.95312 572.1719 188.09375Q571.875 188.23438 571.65625 188.48438Q571.4531 188.71875 571.3125 189.01562Q571.1875 189.3125 571.125 189.64062L571.125 191.15625Q571.2344 191.5625 571.4375 191.92188Q571.65625 192.28125 572.0 192.5Q572.3594 192.71875 572.90625 192.71875Q573.34375 192.71875 573.65625 192.54688Q573.9844 192.35938 574.1875 192.04688Q574.3906 191.71875 574.4844 191.29688Q574.59375 190.875 574.59375 190.40625ZM578.40625 184.5L578.40625 193.5L577.3281 193.5L577.3281 184.5L578.40625 184.5ZM578.15625 190.09375L577.7031 190.07812Q577.7031 189.42188 577.8906 188.875Q578.0781 188.3125 578.4219 187.90625Q578.7656 187.5 579.2344 187.28125Q579.7031 187.04688 580.28125 187.04688Q580.75 187.04688 581.125 187.17188Q581.5 187.29688 581.7656 187.57812Q582.03125 187.84375 582.1719 188.28125Q582.3125 188.71875 582.3125 189.34375L582.3125 193.5L581.21875 193.5L581.21875 189.32812Q581.21875 188.82812 581.0781 188.53125Q580.9375 188.23438 580.65625 188.09375Q580.375 187.95312 579.9531 187.95312Q579.5469 187.95312 579.21875 188.125Q578.8906 188.29688 578.65625 188.59375Q578.4219 188.89062 578.28125 189.28125Q578.15625 189.65625 578.15625 190.09375ZM586.1094 192.84375L587.875 187.15625L589.03125 187.15625L586.4844 194.48438Q586.40625 194.71875 586.25 194.98438Q586.1094 195.26562 585.8906 195.5Q585.6719 195.75 585.3594 195.90625Q585.0469 196.0625 584.6094 196.0625Q584.4844 196.0625 584.28125 196.01562Q584.0781 195.98438 584.0 195.96875L584.0 195.09375Q584.0469 195.09375 584.1406 195.09375Q584.25 195.10938 584.28125 195.10938Q584.65625 195.10938 584.90625 195.01562Q585.1719 194.92188 585.34375 194.6875Q585.53125 194.46875 585.65625 194.07812L586.1094 192.84375ZM584.8125 187.15625L586.4531 192.07812L586.7344 193.21875L585.96875 193.625L583.625 187.15625L584.8125 187.15625ZM591.5 184.5L591.5 193.5L590.4219 193.5L590.4219 184.5L591.5 184.5ZM594.5 184.5L594.5 193.5L593.4219 193.5L593.4219 184.5L594.5 184.5ZM598.9531 193.625Q598.2969 193.625 597.75 193.40625Q597.21875 193.17188 596.8281 192.76562Q596.4531 192.34375 596.25 191.78125Q596.0469 191.21875 596.0469 190.54688L596.0469 190.3125Q596.0469 189.53125 596.2656 188.92188Q596.5 188.3125 596.8906 187.89062Q597.28125 187.46875 597.78125 187.26562Q598.28125 187.04688 598.8125 187.04688Q599.5 187.04688 599.9844 187.28125Q600.4844 187.51562 600.7969 187.9375Q601.125 188.34375 601.2656 188.92188Q601.4219 189.48438 601.4219 190.14062L601.4219 190.64062L596.6875 190.64062L596.6875 189.75L600.34375 189.75L600.34375 189.67188Q600.3125 189.25 600.15625 188.85938Q600.0156 188.45312 599.6875 188.20312Q599.375 187.9375 598.8125 187.9375Q598.4531 187.9375 598.1406 188.09375Q597.8281 188.25 597.59375 188.5625Q597.375 188.85938 597.25 189.29688Q597.1406 189.73438 597.1406 190.3125L597.1406 190.54688Q597.1406 191.0 597.2656 191.40625Q597.3906 191.79688 597.625 192.09375Q597.875 192.39062 598.21875 192.5625Q598.5781 192.73438 599.0156 192.73438Q599.59375 192.73438 599.9844 192.5Q600.3906 192.26562 600.6875 191.875L601.34375 192.39062Q601.1406 192.70312 600.8125 192.98438Q600.5 193.26562 600.03125 193.45312Q599.5781 193.625 598.9531 193.625ZM603.40625 188.51562L603.40625 193.5L602.3281 193.5L602.3281 187.15625L603.3594 187.15625L603.40625 188.51562ZM603.15625 190.09375L602.7031 190.07812Q602.7031 189.42188 602.8906 188.875Q603.0781 188.3125 603.4219 187.90625Q603.7656 187.5 604.2344 187.28125Q604.7031 187.04688 605.28125 187.04688Q605.75 187.04688 606.125 187.17188Q606.5 187.29688 606.7656 187.57812Q607.03125 187.84375 607.1719 188.28125Q607.3125 188.71875 607.3125 189.34375L607.3125 193.5L606.21875 193.5L606.21875 189.32812Q606.21875 188.82812 606.0781 188.53125Q605.9375 188.23438 605.65625 188.09375Q605.375 187.95312 604.9531 187.95312Q604.5469 187.95312 604.21875 188.125Q603.8906 188.29688 603.65625 188.59375Q603.4219 188.89062 603.28125 189.28125Q603.15625 189.65625 603.15625 190.09375Z" fill-rule="nonzero"/><path stroke="#cccccc" stroke-width="1.0" stroke-linecap="butt" d="M372.0 305.0L547.0 406.0" fill-rule="nonzero"/><path fill="#000000" d="M555.6719 424.57812L555.6719 425.5L551.40625 425.5L551.40625 424.57812L555.6719 424.57812ZM551.625 416.96875L551.625 425.5L550.4844 425.5L550.4844 416.96875L551.625 416.96875ZM557.5 419.15625L557.5 425.5L556.4219 425.5L556.4219 419.15625L557.5 419.15625ZM556.3281 417.48438Q556.3281 417.21875 556.4844 417.03125Q556.65625 416.84375 556.96875 416.84375Q557.28125 416.84375 557.4375 417.03125Q557.6094 417.21875 557.6094 417.48438Q557.6094 417.73438 557.4375 417.92188Q557.28125 418.09375 556.96875 418.09375Q556.65625 418.09375 556.4844 417.92188Q556.3281 417.73438 556.3281 417.48438ZM560.40625 420.42188L560.40625 425.5L559.3125 425.5L559.3125 419.15625L560.34375 419.15625L560.40625 420.42188ZM560.1875 422.09375L559.6719 422.07812Q559.6875 421.42188 559.84375 420.875Q560.0156 420.3125 560.3281 419.90625Q560.65625 419.5 561.1406 419.28125Q561.625 419.04688 562.25 419.04688Q562.7031 419.04688 563.0781 419.17188Q563.4531 419.29688 563.71875 419.5625Q564.0 419.82812 564.1406 420.25Q564.2969 420.67188 564.2969 421.28125L564.2969 425.5L563.21875 425.5L563.21875 421.32812Q563.21875 420.82812 563.0469 420.53125Q562.8906 420.23438 562.5781 420.09375Q562.28125 419.95312 561.8594 419.95312Q561.3906 419.95312 561.0625 420.125Q560.7344 420.29688 560.5469 420.59375Q560.3594 420.89062 560.2656 421.28125Q560.1875 421.65625 560.1875 422.09375ZM564.2969 421.48438L563.5625 421.71875Q563.5625 421.1875 563.7344 420.71875Q563.90625 420.23438 564.21875 419.85938Q564.5469 419.48438 565.0156 419.26562Q565.4844 419.04688 566.0781 419.04688Q566.59375 419.04688 566.9844 419.1875Q567.3906 419.3125 567.65625 419.59375Q567.9219 419.875 568.0625 420.3125Q568.2031 420.73438 568.2031 421.32812L568.2031 425.5L567.125 425.5L567.125 421.32812Q567.125 420.78125 566.9531 420.5Q566.78125 420.20312 566.4844 420.07812Q566.1875 419.95312 565.7656 419.95312Q565.40625 419.95312 565.125 420.07812Q564.8594 420.20312 564.6719 420.42188Q564.4844 420.625 564.3906 420.90625Q564.2969 421.1875 564.2969 421.48438ZM570.0469 422.40625L570.0469 422.26562Q570.0469 421.57812 570.2344 421.0Q570.4375 420.40625 570.8125 419.96875Q571.1875 419.53125 571.71875 419.29688Q572.25 419.04688 572.9219 419.04688Q573.5781 419.04688 574.1094 419.29688Q574.65625 419.53125 575.03125 419.96875Q575.40625 420.40625 575.6094 421.0Q575.8125 421.57812 575.8125 422.26562L575.8125 422.40625Q575.8125 423.07812 575.6094 423.67188Q575.40625 424.25 575.03125 424.6875Q574.65625 425.125 574.125 425.375Q573.59375 425.625 572.9219 425.625Q572.2656 425.625 571.71875 425.375Q571.1875 425.125 570.8125 424.6875Q570.4375 424.25 570.2344 423.67188Q570.0469 423.07812 570.0469 422.40625ZM571.125 422.26562L571.125 422.40625Q571.125 422.875 571.2344 423.29688Q571.34375 423.71875 571.5625 424.04688Q571.7969 424.35938 572.1406 424.54688Q572.4844 424.71875 572.9219 424.71875Q573.375 424.71875 573.7031 424.54688Q574.0469 424.35938 574.2656 424.04688Q574.5 423.71875 574.6094 423.29688Q574.71875 422.875 574.71875 422.40625L574.71875 422.26562Q574.71875 421.79688 574.6094 421.375Q574.5 420.95312 574.2656 420.64062Q574.0469 420.3125 573.7031 420.125Q573.375 419.9375 572.9219 419.9375Q572.46875 419.9375 572.125 420.125Q571.7969 420.3125 571.5625 420.64062Q571.34375 420.95312 571.2344 421.375Q571.125 421.79688 571.125 422.26562ZM578.40625 420.51562L578.40625 425.5L577.3281 425.5L577.3281 419.15625L578.3594 419.15625L578.40625 420.51562ZM578.15625 422.09375L577.7031 422.07812Q577.7031 421.42188 577.8906 420.875Q578.0781 420.3125 578.4219 419.90625Q578.7656 419.5 579.2344 419.28125Q579.7031 419.04688 580.28125 419.04688Q580.75 419.04688 581.125 419.17188Q581.5 419.29688 581.7656 419.57812Q582.03125 419.84375 582.1719 420.28125Q582.3125 420.71875 582.3125 421.34375L582.3125 425.5L581.21875 425.5L581.21875 421.32812Q581.21875 420.82812 581.0781 420.53125Q580.9375 420.23438 580.65625 420.09375Q580.375 419.95312 579.9531 419.95312Q579.5469 419.95312 579.21875 420.125Q578.8906 420.29688 578.65625 420.59375Q578.4219 420.89062 578.28125 421.28125Q578.15625 421.65625 578.15625 422.09375ZM586.9531 425.625Q586.2969 425.625 585.75 425.40625Q585.21875 425.17188 584.8281 424.76562Q584.4531 424.34375 584.25 423.78125Q584.0469 423.21875 584.0469 422.54688L584.0469 422.3125Q584.0469 421.53125 584.2656 420.92188Q584.5 420.3125 584.8906 419.89062Q585.28125 419.46875 585.78125 419.26562Q586.28125 419.04688 586.8125 419.04688Q587.5 419.04688 587.9844 419.28125Q588.4844 419.51562 588.7969 419.9375Q589.125 420.34375 589.2656 420.92188Q589.4219 421.48438 589.4219 422.14062L589.4219 422.64062L584.6875 422.64062L584.6875 421.75L588.34375 421.75L588.34375 421.67188Q588.3125 421.25 588.15625 420.85938Q588.0156 420.45312 587.6875 420.20312Q587.375 419.9375 586.8125 419.9375Q586.4531 419.9375 586.1406 420.09375Q585.8281 420.25 585.59375 420.5625Q585.375 420.85938 585.25 421.29688Q585.1406 421.73438 585.1406 422.3125L585.1406 422.54688Q585.1406 423.0 585.2656 423.40625Q585.3906 423.79688 585.625 424.09375Q585.875 424.39062 586.21875 424.5625Q586.5781 424.73438 587.0156 424.73438Q587.59375 424.73438 587.9844 424.5Q588.3906 424.26562 588.6875 423.875L589.34375 424.39062Q589.1406 424.70312 588.8125 424.98438Q588.5 425.26562 588.03125 425.45312Q587.5781 425.625 586.9531 425.625ZM591.40625 420.51562L591.40625 425.5L590.3281 425.5L590.3281 419.15625L591.3594 419.15625L591.40625 420.51562ZM591.15625 422.09375L590.7031 422.07812Q590.7031 421.42188 590.8906 420.875Q591.0781 420.3125 591.4219 419.90625Q591.7656 419.5 592.2344 419.28125Q592.7031 419.04688 593.28125 419.04688Q593.75 419.04688 594.125 419.17188Q594.5 419.29688 594.7656 419.57812Q595.03125 419.84375 595.1719 420.28125Q595.3125 420.71875 595.3125 421.34375L595.3125 425.5L594.21875 425.5L594.21875 421.32812Q594.21875 420.82812 594.0781 420.53125Q593.9375 420.23438 593.65625 420.09375Q593.375 419.95312 592.9531 419.95312Q592.5469 419.95312 592.21875 420.125Q591.8906 420.29688 591.65625 420.59375Q591.4219 420.89062 591.28125 421.28125Q591.15625 421.65625 591.15625 422.09375Z" fill-rule="nonzero"/><path stroke="#cccccc" stroke-width="1.0" stroke-linecap="butt" d="M372.0 305.0L372.0 507.0" fill-rule="nonzero"/><path fill="#000000" d="M361.79688 537.25L361.79688 540.375Q361.64062 540.6094 361.29688 540.90625Q360.95312 541.1875 360.34375 541.40625Q359.73438 541.625 358.78125 541.625Q358.0 541.625 357.34375 541.3594Q356.6875 541.0781 356.20312 540.5469Q355.73438 540.0156 355.46875 539.2656Q355.21875 538.5156 355.21875 537.5625L355.21875 536.90625Q355.21875 535.9375 355.4375 535.1875Q355.67188 534.4375 356.10938 533.9219Q356.54688 533.3906 357.1875 533.125Q357.82812 532.84375 358.65625 532.84375Q359.625 532.84375 360.28125 533.1875Q360.95312 533.53125 361.3125 534.125Q361.6875 534.7031 361.79688 535.46875L360.67188 535.46875Q360.59375 535.0 360.35938 534.625Q360.14062 534.2344 359.71875 534.0156Q359.3125 533.78125 358.65625 533.78125Q358.0625 533.78125 357.625 534.0Q357.1875 534.2031 356.90625 534.6094Q356.625 535.0156 356.48438 535.59375Q356.35938 536.1719 356.35938 536.8906L356.35938 537.5625Q356.35938 538.2969 356.53125 538.875Q356.70312 539.4531 357.01562 539.875Q357.34375 540.28125 357.78125 540.5Q358.23438 540.7031 358.78125 540.7031Q359.39062 540.7031 359.76562 540.59375Q360.14062 540.4844 360.34375 540.34375Q360.5625 540.2031 360.67188 540.0781L360.67188 538.1719L358.70312 538.1719L358.70312 537.25L361.79688 537.25ZM367.20312 540.03125L367.20312 535.15625L368.29688 535.15625L368.29688 541.5L367.26562 541.5L367.20312 540.03125ZM367.40625 538.7031L367.85938 538.6875Q367.85938 539.3125 367.71875 539.8594Q367.59375 540.3906 367.29688 540.78125Q367.01562 541.1719 366.53125 541.40625Q366.0625 541.625 365.39062 541.625Q364.92188 541.625 364.53125 541.4844Q364.15625 541.34375 363.875 541.0625Q363.60938 540.78125 363.45312 540.3281Q363.29688 539.875 363.29688 539.25L363.29688 535.15625L364.39062 535.15625L364.39062 539.2656Q364.39062 539.6875 364.48438 539.96875Q364.57812 540.25 364.75 540.40625Q364.92188 540.5625 365.125 540.6406Q365.32812 540.7031 365.54688 540.7031Q366.25 540.7031 366.64062 540.4375Q367.04688 540.15625 367.21875 539.7031Q367.40625 539.25 367.40625 538.7031ZM374.0625 540.4219L374.0625 537.15625Q374.0625 536.78125 373.90625 536.5Q373.76562 536.21875 373.46875 536.0781Q373.17188 535.9219 372.73438 535.9219Q372.3125 535.9219 372.0 536.0625Q371.70312 536.2031 371.53125 536.4375Q371.35938 536.65625 371.35938 536.9219L370.28125 536.9219Q370.28125 536.5781 370.45312 536.25Q370.625 535.90625 370.95312 535.6406Q371.28125 535.3594 371.75 535.2031Q372.21875 535.0469 372.79688 535.0469Q373.48438 535.0469 374.01562 535.28125Q374.54688 535.5156 374.84375 535.9844Q375.15625 536.4531 375.15625 537.15625L375.15625 540.1094Q375.15625 540.4375 375.20312 540.7969Q375.26562 541.1406 375.375 541.40625L375.375 541.5L374.23438 541.5Q374.15625 541.3125 374.10938 541.0Q374.0625 540.6875 374.0625 540.4219ZM374.25 537.65625L374.26562 538.4219L373.17188 538.4219Q372.70312 538.4219 372.34375 538.5Q371.98438 538.5625 371.73438 538.71875Q371.48438 538.8594 371.35938 539.0781Q371.23438 539.2969 371.23438 539.59375Q371.23438 539.8906 371.35938 540.1406Q371.5 540.375 371.76562 540.53125Q372.04688 540.6719 372.4375 540.6719Q372.9375 540.6719 373.3125 540.46875Q373.70312 540.25 373.92188 539.9531Q374.15625 539.6406 374.17188 539.34375L374.64062 539.875Q374.59375 540.1094 374.40625 540.4219Q374.23438 540.71875 373.92188 541.0Q373.625 541.2656 373.20312 541.4531Q372.79688 541.625 372.28125 541.625Q371.64062 541.625 371.15625 541.375Q370.67188 541.1094 370.40625 540.6875Q370.14062 540.2656 370.14062 539.7344Q370.14062 539.21875 370.32812 538.84375Q370.53125 538.4531 370.90625 538.1875Q371.28125 537.9219 371.8125 537.7969Q372.34375 537.65625 373.0 537.65625L374.25 537.65625ZM378.5 535.15625L378.5 541.5L377.42188 541.5L377.42188 535.15625L378.5 535.15625ZM377.32812 533.4844Q377.32812 533.21875 377.48438 533.03125Q377.65625 532.84375 377.96875 532.84375Q378.28125 532.84375 378.4375 533.03125Q378.60938 533.21875 378.60938 533.4844Q378.60938 533.7344 378.4375 533.9219Q378.28125 534.09375 377.96875 534.09375Q377.65625 534.09375 377.48438 533.9219Q377.32812 533.7344 377.32812 533.4844ZM380.04688 538.40625L380.04688 538.2656Q380.04688 537.5781 380.23438 537.0Q380.4375 536.40625 380.8125 535.96875Q381.1875 535.53125 381.71875 535.2969Q382.25 535.0469 382.92188 535.0469Q383.57812 535.0469 384.10938 535.2969Q384.65625 535.53125 385.03125 535.96875Q385.40625 536.40625 385.60938 537.0Q385.8125 537.5781 385.8125 538.2656L385.8125 538.40625Q385.8125 539.0781 385.60938 539.6719Q385.40625 540.25 385.03125 540.6875Q384.65625 541.125 384.125 541.375Q383.59375 541.625 382.92188 541.625Q382.26562 541.625 381.71875 541.375Q381.1875 541.125 380.8125 540.6875Q380.4375 540.25 380.23438 539.6719Q380.04688 539.0781 380.04688 538.40625ZM381.125 538.2656L381.125 538.40625Q381.125 538.875 381.23438 539.2969Q381.34375 539.71875 381.5625 540.0469Q381.79688 540.3594 382.14062 540.5469Q382.48438 540.71875 382.92188 540.71875Q383.375 540.71875 383.70312 540.5469Q384.04688 540.3594 384.26562 540.0469Q384.5 539.71875 384.60938 539.2969Q384.71875 538.875 384.71875 538.40625L384.71875 538.2656Q384.71875 537.7969 384.60938 537.375Q384.5 536.9531 384.26562 536.6406Q384.04688 536.3125 383.70312 536.125Q383.375 535.9375 382.92188 535.9375Q382.46875 535.9375 382.125 536.125Q381.79688 536.3125 381.5625 536.6406Q381.34375 536.9531 381.23438 537.375Q381.125 537.7969 381.125 538.2656ZM388.5 532.5L388.5 541.5L387.42188 541.5L387.42188 532.5L388.5 532.5Z" fill-rule="nonzero"/><path stroke="#cccccc" stroke-width="1.0" stroke-linecap="butt" d="M372.0 305.0L197.0 406.0" fill-rule="nonzero"/><path fill="#000000" d="M141.59375 422.5625L141.59375 422.4375Q141.59375 421.6875 141.75 421.07812Q141.92188 420.45312 142.23438 420.0Q142.54688 419.54688 143.0 419.29688Q143.46875 419.04688 144.0625 419.04688Q144.51562 419.04688 144.875 419.1875Q145.25 419.3125 145.53125 419.57812Q145.8125 419.82812 146.01562 420.20312Q146.21875 420.57812 146.34375 421.0625Q146.46875 421.53125 146.51562 422.09375L146.51562 422.57812Q146.45312 423.28125 146.26562 423.84375Q146.09375 424.40625 145.79688 424.8125Q145.5 425.20312 145.0625 425.42188Q144.64062 425.625 144.04688 425.625Q143.46875 425.625 143.0 425.40625Q142.54688 425.17188 142.23438 424.76562Q141.92188 424.34375 141.75 423.79688Q141.59375 423.23438 141.59375 422.5625ZM142.67188 422.4375L142.67188 422.5625Q142.67188 423.01562 142.76562 423.40625Q142.85938 423.79688 143.04688 424.09375Q143.25 424.39062 143.5625 424.5625Q143.89062 424.73438 144.32812 424.73438Q144.75 424.73438 145.04688 424.5625Q145.35938 424.375 145.5625 424.07812Q145.78125 423.78125 145.90625 423.39062Q146.04688 423.0 146.14062 422.59375L146.14062 422.20312Q146.07812 421.76562 145.9375 421.375Q145.8125 420.96875 145.59375 420.64062Q145.39062 420.3125 145.07812 420.125Q144.76562 419.9375 144.32812 419.9375Q143.89062 419.9375 143.57812 420.14062Q143.26562 420.32812 143.0625 420.67188Q142.85938 421.01562 142.76562 421.48438Q142.67188 421.9375 142.67188 422.4375ZM145.98438 419.15625L146.90625 419.15625L146.90625 423.76562Q146.90625 424.04688 146.9375 424.21875Q146.96875 424.375 147.03125 424.48438Q147.10938 424.57812 147.1875 424.625Q147.28125 424.65625 147.375 424.65625Q147.42188 424.65625 147.46875 424.64062Q147.53125 424.625 147.5625 424.60938L147.70312 425.42188Q147.51562 425.54688 147.34375 425.57812Q147.17188 425.625 146.98438 425.625Q146.70312 425.625 146.48438 425.51562Q146.28125 425.42188 146.125 425.20312Q145.96875 424.98438 145.89062 424.625Q145.8125 424.26562 145.8125 423.76562L145.8125 420.53125L145.98438 419.15625ZM151.07812 421.42188L151.07812 422.3125L148.21875 422.3125L148.21875 421.42188L151.07812 421.42188ZM157.5625 420.64062L157.5625 421.5625L152.95312 421.5625L152.95312 420.64062L157.5625 420.64062ZM153.125 416.96875L153.125 425.5L151.98438 425.5L151.98438 416.96875L153.125 416.96875ZM158.54688 416.96875L158.54688 425.5L157.42188 425.5L157.42188 416.96875L158.54688 416.96875ZM164.70312 424.03125L164.70312 419.15625L165.79688 419.15625L165.79688 425.5L164.76562 425.5L164.70312 424.03125ZM164.90625 422.70312L165.35938 422.6875Q165.35938 423.3125 165.21875 423.85938Q165.09375 424.39062 164.79688 424.78125Q164.51562 425.17188 164.03125 425.40625Q163.5625 425.625 162.89062 425.625Q162.42188 425.625 162.03125 425.48438Q161.65625 425.34375 161.375 425.0625Q161.10938 424.78125 160.95312 424.32812Q160.79688 423.875 160.79688 423.25L160.79688 419.15625L161.89062 419.15625L161.89062 423.26562Q161.89062 423.6875 161.98438 423.96875Q162.07812 424.25 162.25 424.40625Q162.42188 424.5625 162.625 424.64062Q162.82812 424.70312 163.04688 424.70312Q163.75 424.70312 164.14062 424.4375Q164.54688 424.15625 164.71875 423.70312Q164.90625 423.25 164.90625 422.70312ZM168.90625 420.42188L168.90625 425.5L167.8125 425.5L167.8125 419.15625L168.84375 419.15625L168.90625 420.42188ZM168.6875 422.09375L168.17188 422.07812Q168.1875 421.42188 168.34375 420.875Q168.51562 420.3125 168.82812 419.90625Q169.15625 419.5 169.64062 419.28125Q170.125 419.04688 170.75 419.04688Q171.20312 419.04688 171.57812 419.17188Q171.95312 419.29688 172.21875 419.5625Q172.5 419.82812 172.64062 420.25Q172.79688 420.67188 172.79688 421.28125L172.79688 425.5L171.71875 425.5L171.71875 421.32812Q171.71875 420.82812 171.54688 420.53125Q171.39062 420.23438 171.07812 420.09375Q170.78125 419.95312 170.35938 419.95312Q169.89062 419.95312 169.5625 420.125Q169.23438 420.29688 169.04688 420.59375Q168.85938 420.89062 168.76562 421.28125Q168.6875 421.65625 168.6875 422.09375ZM172.79688 421.48438L172.0625 421.71875Q172.0625 421.1875 172.23438 420.71875Q172.40625 420.23438 172.71875 419.85938Q173.04688 419.48438 173.51562 419.26562Q173.98438 419.04688 174.57812 419.04688Q175.09375 419.04688 175.48438 419.1875Q175.89062 419.3125 176.15625 419.59375Q176.42188 419.875 176.5625 420.3125Q176.70312 420.73438 176.70312 421.32812L176.70312 425.5L175.625 425.5L175.625 421.32812Q175.625 420.78125 175.45312 420.5Q175.28125 420.20312 174.98438 420.07812Q174.6875 419.95312 174.26562 419.95312Q173.90625 419.95312 173.625 420.07812Q173.35938 420.20312 173.17188 420.42188Q172.98438 420.625 172.89062 420.90625Q172.79688 421.1875 172.79688 421.48438ZM182.70312 424.03125L182.70312 419.15625L183.79688 419.15625L183.79688 425.5L182.76562 425.5L182.70312 424.03125ZM182.90625 422.70312L183.35938 422.6875Q183.35938 423.3125 183.21875 423.85938Q183.09375 424.39062 182.79688 424.78125Q182.51562 425.17188 182.03125 425.40625Q181.5625 425.625 180.89062 425.625Q180.42188 425.625 180.03125 425.48438Q179.65625 425.34375 179.375 425.0625Q179.10938 424.78125 178.95312 424.32812Q178.79688 423.875 178.79688 423.25L178.79688 419.15625L179.89062 419.15625L179.89062 423.26562Q179.89062 423.6875 179.98438 423.96875Q180.07812 424.25 180.25 424.40625Q180.42188 424.5625 180.625 424.64062Q180.82812 424.70312 181.04688 424.70312Q181.75 424.70312 182.14062 424.4375Q182.54688 424.15625 182.71875 423.70312Q182.90625 423.25 182.90625 422.70312ZM187.0 416.5L187.0 425.5L185.92188 425.5L185.92188 416.5L187.0 416.5ZM191.45312 425.625Q190.79688 425.625 190.25 425.40625Q189.71875 425.17188 189.32812 424.76562Q188.95312 424.34375 188.75 423.78125Q188.54688 423.21875 188.54688 422.54688L188.54688 422.3125Q188.54688 421.53125 188.76562 420.92188Q189.0 420.3125 189.39062 419.89062Q189.78125 419.46875 190.28125 419.26562Q190.78125 419.04688 191.3125 419.04688Q192.0 419.04688 192.48438 419.28125Q192.98438 419.51562 193.29688 419.9375Q193.625 420.34375 193.76562 420.92188Q193.92188 421.48438 193.92188 422.14062L193.92188 422.64062L189.1875 422.64062L189.1875 421.75L192.84375 421.75L192.84375 421.67188Q192.8125 421.25 192.65625 420.85938Q192.51562 420.45312 192.1875 420.20312Q191.875 419.9375 191.3125 419.9375Q190.95312 419.9375 190.64062 420.09375Q190.32812 420.25 190.09375 420.5625Q189.875 420.85938 189.75 421.29688Q189.64062 421.73438 189.64062 422.3125L189.64062 422.54688Q189.64062 423.0 189.76562 423.40625Q189.89062 423.79688 190.125 424.09375Q190.375 424.39062 190.71875 424.5625Q191.07812 424.73438 191.51562 424.73438Q192.09375 424.73438 192.48438 424.5Q192.89062 424.26562 193.1875 423.875L193.84375 424.39062Q193.64062 424.70312 193.3125 424.98438Q193.0 425.26562 192.53125 425.45312Q192.07812 425.625 191.45312 425.625ZM195.90625 420.51562L195.90625 425.5L194.82812 425.5L194.82812 419.15625L195.85938 419.15625L195.90625 420.51562ZM195.65625 422.09375L195.20312 422.07812Q195.20312 421.42188 195.39062 420.875Q195.57812 420.3125 195.92188 419.90625Q196.26562 419.5 196.73438 419.28125Q197.20312 419.04688 197.78125 419.04688Q198.25 419.04688 198.625 419.17188Q199.0 419.29688 199.26562 419.57812Q199.53125 419.84375 199.67188 420.28125Q199.8125 420.71875 199.8125 421.34375L199.8125 425.5L198.71875 425.5L198.71875 421.32812Q198.71875 420.82812 198.57812 420.53125Q198.4375 420.23438 198.15625 420.09375Q197.875 419.95312 197.45312 419.95312Q197.04688 419.95312 196.71875 420.125Q196.39062 420.29688 196.15625 420.59375Q195.92188 420.89062 195.78125 421.28125Q195.65625 421.65625 195.65625 422.09375Z" fill-rule="nonzero"/><path stroke="#cccccc" stroke-width="1.0" stroke-linecap="butt" d="M372.0 305.0L197.0 204.0" fill-rule="nonzero"/><path fill="#000000" d="M153.03125 191.34375Q153.03125 191.04688 152.9375 190.8125Q152.85938 190.57812 152.625 190.39062Q152.40625 190.20312 152.0 190.03125Q151.60938 189.85938 151.01562 189.6875Q150.375 189.5 149.85938 189.28125Q149.35938 189.04688 148.98438 188.75Q148.625 188.4375 148.4375 188.0625Q148.25 187.67188 148.25 187.17188Q148.25 186.67188 148.45312 186.25Q148.65625 185.82812 149.03125 185.51562Q149.42188 185.20312 149.95312 185.03125Q150.48438 184.84375 151.14062 184.84375Q152.10938 184.84375 152.78125 185.21875Q153.45312 185.57812 153.79688 186.17188Q154.15625 186.76562 154.15625 187.42188L153.03125 187.42188Q153.03125 186.95312 152.8125 186.57812Q152.60938 186.20312 152.1875 186.0Q151.78125 185.78125 151.14062 185.78125Q150.54688 185.78125 150.14062 185.96875Q149.75 186.14062 149.5625 186.45312Q149.375 186.76562 149.375 187.15625Q149.375 187.42188 149.48438 187.65625Q149.60938 187.875 149.84375 188.0625Q150.09375 188.25 150.46875 188.40625Q150.84375 188.5625 151.375 188.70312Q152.09375 188.90625 152.625 189.17188Q153.15625 189.42188 153.5 189.73438Q153.84375 190.04688 154.0 190.4375Q154.17188 190.82812 154.17188 191.32812Q154.17188 191.85938 153.95312 192.28125Q153.75 192.70312 153.35938 193.0Q152.96875 193.29688 152.42188 193.46875Q151.875 193.625 151.20312 193.625Q150.60938 193.625 150.03125 193.45312Q149.46875 193.28125 149.0 192.95312Q148.53125 192.625 148.25 192.15625Q147.96875 191.67188 147.96875 191.03125L149.09375 191.03125Q149.09375 191.46875 149.26562 191.78125Q149.4375 192.09375 149.73438 192.29688Q150.03125 192.5 150.40625 192.60938Q150.78125 192.70312 151.20312 192.70312Q151.79688 192.70312 152.20312 192.54688Q152.60938 192.375 152.8125 192.07812Q153.03125 191.76562 153.03125 191.34375ZM155.04688 190.40625L155.04688 190.26562Q155.04688 189.57812 155.23438 189.0Q155.4375 188.40625 155.8125 187.96875Q156.1875 187.53125 156.71875 187.29688Q157.25 187.04688 157.92188 187.04688Q158.57812 187.04688 159.10938 187.29688Q159.65625 187.53125 160.03125 187.96875Q160.40625 188.40625 160.60938 189.0Q160.8125 189.57812 160.8125 190.26562L160.8125 190.40625Q160.8125 191.07812 160.60938 191.67188Q160.40625 192.25 160.03125 192.6875Q159.65625 193.125 159.125 193.375Q158.59375 193.625 157.92188 193.625Q157.26562 193.625 156.71875 193.375Q156.1875 193.125 155.8125 192.6875Q155.4375 192.25 155.23438 191.67188Q155.04688 191.07812 155.04688 190.40625ZM156.125 190.26562L156.125 190.40625Q156.125 190.875 156.23438 191.29688Q156.34375 191.71875 156.5625 192.04688Q156.79688 192.35938 157.14062 192.54688Q157.48438 192.71875 157.92188 192.71875Q158.375 192.71875 158.70312 192.54688Q159.04688 192.35938 159.26562 192.04688Q159.5 191.71875 159.60938 191.29688Q159.71875 190.875 159.71875 190.40625L159.71875 190.26562Q159.71875 189.79688 159.60938 189.375Q159.5 188.95312 159.26562 188.64062Q159.04688 188.3125 158.70312 188.125Q158.375 187.9375 157.92188 187.9375Q157.46875 187.9375 157.125 188.125Q156.79688 188.3125 156.5625 188.64062Q156.34375 188.95312 156.23438 189.375Q156.125 189.79688 156.125 190.26562ZM163.40625 188.51562L163.40625 193.5L162.32812 193.5L162.32812 187.15625L163.35938 187.15625L163.40625 188.51562ZM163.15625 190.09375L162.70312 190.07812Q162.70312 189.42188 162.89062 188.875Q163.07812 188.3125 163.42188 187.90625Q163.76562 187.5 164.23438 187.28125Q164.70312 187.04688 165.28125 187.04688Q165.75 187.04688 166.125 187.17188Q166.5 187.29688 166.76562 187.57812Q167.03125 187.84375 167.17188 188.28125Q167.3125 188.71875 167.3125 189.34375L167.3125 193.5L166.21875 193.5L166.21875 189.32812Q166.21875 188.82812 166.07812 188.53125Q165.9375 188.23438 165.65625 188.09375Q165.375 187.95312 164.95312 187.95312Q164.54688 187.95312 164.21875 188.125Q163.89062 188.29688 163.65625 188.59375Q163.42188 188.89062 163.28125 189.28125Q163.15625 189.65625 163.15625 190.09375ZM173.01562 191.8125Q173.01562 191.57812 172.90625 191.375Q172.8125 191.17188 172.5 191.01562Q172.1875 190.84375 171.5625 190.71875Q171.03125 190.60938 170.60938 190.46875Q170.1875 190.3125 169.89062 190.09375Q169.59375 189.875 169.4375 189.57812Q169.28125 189.28125 169.28125 188.89062Q169.28125 188.51562 169.4375 188.1875Q169.60938 187.84375 169.90625 187.59375Q170.21875 187.32812 170.65625 187.1875Q171.09375 187.04688 171.625 187.04688Q172.39062 187.04688 172.92188 187.3125Q173.46875 187.57812 173.75 188.03125Q174.03125 188.48438 174.03125 189.01562L172.95312 189.01562Q172.95312 188.76562 172.79688 188.51562Q172.64062 188.26562 172.34375 188.10938Q172.04688 187.9375 171.625 187.9375Q171.17188 187.9375 170.89062 188.07812Q170.60938 188.20312 170.48438 188.42188Q170.35938 188.625 170.35938 188.85938Q170.35938 189.04688 170.42188 189.1875Q170.48438 189.3125 170.64062 189.4375Q170.79688 189.54688 171.07812 189.65625Q171.375 189.75 171.82812 189.84375Q172.60938 190.01562 173.10938 190.26562Q173.60938 190.51562 173.85938 190.875Q174.10938 191.21875 174.10938 191.73438Q174.10938 192.15625 173.92188 192.5Q173.75 192.84375 173.42188 193.09375Q173.10938 193.34375 172.65625 193.48438Q172.20312 193.625 171.65625 193.625Q170.8125 193.625 170.23438 193.32812Q169.65625 193.01562 169.35938 192.54688Q169.0625 192.0625 169.0625 191.54688L170.14062 191.54688Q170.17188 191.98438 170.40625 192.25Q170.64062 192.51562 170.96875 192.625Q171.3125 192.71875 171.65625 192.71875Q172.09375 192.71875 172.39062 192.60938Q172.70312 192.48438 172.85938 192.28125Q173.01562 192.07812 173.01562 191.8125ZM177.98438 187.15625L177.98438 187.98438L174.54688 187.98438L174.54688 187.15625L177.98438 187.15625ZM175.71875 185.625L176.79688 185.625L176.79688 191.92188Q176.79688 192.25 176.89062 192.42188Q177.0 192.57812 177.15625 192.64062Q177.3125 192.6875 177.5 192.6875Q177.625 192.6875 177.76562 192.65625Q177.92188 192.625 178.0 192.60938L178.01562 193.5Q177.875 193.54688 177.67188 193.57812Q177.46875 193.625 177.17188 193.625Q176.78125 193.625 176.4375 193.46875Q176.10938 193.29688 175.90625 192.9375Q175.71875 192.5625 175.71875 191.92188L175.71875 185.625ZM180.5 187.15625L180.5 193.5L179.42188 193.5L179.42188 187.15625L180.5 187.15625ZM179.32812 185.48438Q179.32812 185.21875 179.48438 185.03125Q179.65625 184.84375 179.96875 184.84375Q180.28125 184.84375 180.4375 185.03125Q180.60938 185.21875 180.60938 185.48438Q180.60938 185.73438 180.4375 185.92188Q180.28125 186.09375 179.96875 186.09375Q179.65625 186.09375 179.48438 185.92188Q179.32812 185.73438 179.32812 185.48438ZM186.4375 187.15625L187.42188 187.15625L187.42188 193.35938Q187.42188 194.20312 187.07812 194.79688Q186.73438 195.39062 186.125 195.6875Q185.53125 196.0 184.73438 196.0Q184.40625 196.0 183.95312 195.89062Q183.51562 195.79688 183.09375 195.54688Q182.67188 195.3125 182.39062 194.90625L182.95312 194.25Q183.35938 194.73438 183.78125 194.92188Q184.21875 195.10938 184.65625 195.10938Q185.17188 195.10938 185.54688 194.90625Q185.92188 194.71875 186.125 194.34375Q186.32812 193.96875 186.32812 193.42188L186.32812 188.54688L186.4375 187.15625ZM182.0625 190.40625L182.0625 190.28125Q182.0625 189.54688 182.23438 188.95312Q182.42188 188.35938 182.73438 187.9375Q183.0625 187.5 183.51562 187.28125Q183.98438 187.04688 184.57812 187.04688Q185.17188 187.04688 185.60938 187.25Q186.0625 187.45312 186.375 187.85938Q186.6875 188.25 186.875 188.8125Q187.0625 189.35938 187.125 190.0625L187.125 190.60938Q187.0625 191.29688 186.875 191.85938Q186.6875 192.42188 186.375 192.8125Q186.0625 193.20312 185.60938 193.42188Q185.15625 193.625 184.5625 193.625Q183.98438 193.625 183.53125 193.39062Q183.07812 193.14062 182.75 192.70312Q182.42188 192.26562 182.23438 191.6875Q182.0625 191.09375 182.0625 190.40625ZM183.15625 190.28125L183.15625 190.40625Q183.15625 190.875 183.25 191.29688Q183.34375 191.70312 183.54688 192.03125Q183.75 192.34375 184.0625 192.53125Q184.39062 192.70312 184.82812 192.70312Q185.35938 192.70312 185.70312 192.46875Q186.0625 192.23438 186.26562 191.85938Q186.48438 191.48438 186.59375 191.04688L186.59375 189.64062Q186.53125 189.3125 186.39062 189.01562Q186.26562 188.71875 186.0625 188.48438Q185.85938 188.23438 185.54688 188.09375Q185.25 187.95312 184.82812 187.95312Q184.39062 187.95312 184.0625 188.14062Q183.75 188.32812 183.54688 188.65625Q183.34375 188.96875 183.25 189.39062Q183.15625 189.79688 183.15625 190.28125ZM191.95312 193.625Q191.29688 193.625 190.75 193.40625Q190.21875 193.17188 189.82812 192.76562Q189.45312 192.34375 189.25 191.78125Q189.04688 191.21875 189.04688 190.54688L189.04688 190.3125Q189.04688 189.53125 189.26562 188.92188Q189.5 188.3125 189.89062 187.89062Q190.28125 187.46875 190.78125 187.26562Q191.28125 187.04688 191.8125 187.04688Q192.5 187.04688 192.98438 187.28125Q193.48438 187.51562 193.79688 187.9375Q194.125 188.34375 194.26562 188.92188Q194.42188 189.48438 194.42188 190.14062L194.42188 190.64062L189.6875 190.64062L189.6875 189.75L193.34375 189.75L193.34375 189.67188Q193.3125 189.25 193.15625 188.85938Q193.01562 188.45312 192.6875 188.20312Q192.375 187.9375 191.8125 187.9375Q191.45312 187.9375 191.14062 188.09375Q190.82812 188.25 190.59375 188.5625Q190.375 188.85938 190.25 189.29688Q190.14062 189.73438 190.14062 190.3125L190.14062 190.54688Q190.14062 191.0 190.26562 191.40625Q190.39062 191.79688 190.625 192.09375Q190.875 192.39062 191.21875 192.5625Q191.57812 192.73438 192.01562 192.73438Q192.59375 192.73438 192.98438 192.5Q193.39062 192.26562 193.6875 191.875L194.34375 192.39062Q194.14062 192.70312 193.8125 192.98438Q193.5 193.26562 193.03125 193.45312Q192.57812 193.625 191.95312 193.625Z" fill-rule="nonzero"/><path stroke="#cccccc" stroke-width="1.0" stroke-linecap="butt" d="M372.0 305.0L372.0 103.0" fill-rule="nonzero"/><path stroke="#ff0000" stroke-width="2.0" stroke-linecap="butt" stroke-opacity="0.7019608" stroke-dasharray="8.0,6.0,2.0,6.0" d="M372.0 179.0L455.0 257.0L420.0 333.0L372.0 350.0L341.0 323.0L245.0 232.0Z" fill-rule="nonzero"/><path fill="#ff0000" fill-opacity="0.7019608" d="M368.81802 175.81802L372.0 177.875L375.18198 175.81802L373.125 179.0L375.18198 182.18198L372.0 180.125L368.81802 182.18198L370.875 179.0Z" fill-rule="nonzero"/><path fill="#ff0000" fill-opacity="0.7019608" d="M451.81802 253.81802L455.0 255.875L458.18198 253.81802L456.125 257.0L458.18198 260.18198L455.0 258.125L451.81802 260.18198L453.875 257.0Z" fill-rule="nonzero"/><path fill="#ff0000" fill-opacity="0.7019608" d="M416.81802 329.81802L420.0 331.875L423.18198 329.81802L421.125 333.0L423.18198 336.18198L420.0 334.125L416.81802 336.18198L418.875 333.0Z" fill-rule="nonzero"/><path fill="#ff0000" fill-opacity="0.7019608" d="M368.81802 346.81802L372.0 348.875L375.18198 346.81802L373.125 350.0L375.18198 353.18198L372.0 351.125L368.81802 353.18198L370.875 350.0Z" fill-rule="nonzero"/><path fill="#ff0000" fill-opacity="0.7019608" d="M337.81802 319.81802L341.0 321.875L344.18198 319.81802L342.125 323.0L344.18198 326.18198L341.0 324.125L337.81802 326.18198L339.875 323.0Z" fill-rule="nonzero"/><path fill="#ff0000" fill-opacity="0.7019608" d="M241.81802 228.81802L245.0 230.875L248.18198 228.81802L246.125 232.0L248.18198 235.18198L245.0 233.125L241.81802 235.18198L243.875 232.0Z" fill-rule="nonzero"/><path fill="#757575" d="M30.209375 47.35L30.209375 33.0375L32.115623 33.0375L32.115623 47.35L30.209375 47.35ZM42.44375 43.553123L44.1625 43.771873Q43.88125 45.56875 42.709373 46.584373Q41.553123 47.584373 39.85 47.584373Q37.725 47.584373 36.428123 46.19375Q35.13125 44.803123 35.13125 42.209373Q35.13125 40.521873 35.678123 39.271873Q36.240623 38.00625 37.38125 37.38125Q38.521873 36.740623 39.865623 36.740623Q41.553123 36.740623 42.615623 37.6Q43.69375 38.459373 44.00625 40.021873L42.2875 40.2875Q42.053123 39.240623 41.428123 38.725Q40.803123 38.19375 39.928123 38.19375Q38.6 38.19375 37.771873 39.146873Q36.94375 40.1 36.94375 42.146873Q36.94375 44.240623 37.740623 45.19375Q38.5375 46.13125 39.834373 46.13125Q40.865623 46.13125 41.553123 45.50625Q42.25625 44.865623 42.44375 43.553123ZM52.771873 44.00625L54.584373 44.240623Q54.1625 45.81875 52.990623 46.709373Q51.834373 47.584373 50.021873 47.584373Q47.75625 47.584373 46.4125 46.19375Q45.084373 44.7875 45.084373 42.25625Q45.084373 39.63125 46.428123 38.19375Q47.771873 36.740623 49.928123 36.740623Q52.00625 36.740623 53.31875 38.1625Q54.646873 39.56875 54.646873 42.146873Q54.646873 42.303123 54.63125 42.615623L46.896873 42.615623Q46.990623 44.31875 47.865623 45.225Q48.740623 46.13125 50.0375 46.13125Q51.00625 46.13125 51.678123 45.63125Q52.365623 45.115623 52.771873 44.00625ZM46.990623 41.1625L52.7875 41.1625Q52.678123 39.865623 52.13125 39.209373Q51.2875 38.19375 49.94375 38.19375Q48.740623 38.19375 47.9125 39.00625Q47.084373 39.803123 46.990623 41.1625ZM73.11562 42.334373L75.00625 42.803123Q74.4125 45.146873 72.86562 46.38125Q71.31875 47.6 69.06875 47.6Q66.75625 47.6 65.30312 46.6625Q63.865623 45.709373 63.1 43.928123Q62.35 42.13125 62.35 40.084373Q62.35 37.85 63.19375 36.19375Q64.05312 34.521873 65.63125 33.6625Q67.20937 32.7875 69.1 32.7875Q71.25625 32.7875 72.70937 33.88125Q74.17812 34.975 74.75625 36.959373L72.89687 37.396873Q72.39687 35.834373 71.44375 35.13125Q70.50625 34.4125 69.06875 34.4125Q67.4125 34.4125 66.30312 35.209373Q65.19375 35.990623 64.74062 37.334373Q64.30312 38.6625 64.30312 40.06875Q64.30312 41.896873 64.83437 43.271873Q65.36562 44.63125 66.49062 45.303123Q67.61562 45.975 68.9125 45.975Q70.50625 45.975 71.61562 45.053123Q72.725 44.13125 73.11562 42.334373ZM76.64687 47.35L76.64687 36.975L78.225 36.975L78.225 38.553123Q78.83437 37.44375 79.35 37.1Q79.86562 36.740623 80.475 36.740623Q81.36562 36.740623 82.2875 37.303123L81.67812 38.94375Q81.0375 38.553123 80.39687 38.553123Q79.81875 38.553123 79.35 38.9125Q78.89687 39.25625 78.69375 39.865623Q78.4125 40.803123 78.4125 41.9125L78.4125 47.35L76.64687 47.35ZM90.77187 44.00625L92.58437 44.240623Q92.1625 45.81875 90.99062 46.709373Q89.83437 47.584373 88.02187 47.584373Q85.75625 47.584373 84.4125 46.19375Q83.08437 44.7875 83.08437 42.25625Q83.08437 39.63125 84.42812 38.19375Q85.77187 36.740623 87.92812 36.740623Q90.00625 36.740623 91.31875 38.1625Q92.64687 39.56875 92.64687 42.146873Q92.64687 42.303123 92.63125 42.615623L84.89687 42.615623Q84.99062 44.31875 85.86562 45.225Q86.74062 46.13125 88.0375 46.13125Q89.00625 46.13125 89.67812 45.63125Q90.36562 45.115623 90.77187 44.00625ZM84.99062 41.1625L90.7875 41.1625Q90.67812 39.865623 90.13125 39.209373Q89.2875 38.19375 87.94375 38.19375Q86.74062 38.19375 85.9125 39.00625Q85.08437 39.803123 84.99062 41.1625ZM101.44375 46.06875Q100.45937 46.896873 99.55312 47.240623Q98.64687 47.584373 97.61562 47.584373Q95.9125 47.584373 94.99062 46.75625Q94.06875 45.9125 94.06875 44.615623Q94.06875 43.85 94.4125 43.225Q94.77187 42.6 95.33437 42.225Q95.89687 41.834373 96.6 41.63125Q97.11562 41.50625 98.1625 41.365623Q100.2875 41.115623 101.2875 40.771873Q101.30312 40.4125 101.30312 40.303123Q101.30312 39.240623 100.80312 38.7875Q100.13125 38.19375 98.80312 38.19375Q97.55312 38.19375 96.95937 38.63125Q96.38125 39.06875 96.1 40.178123L94.38125 39.94375Q94.61562 38.834373 95.14687 38.1625Q95.67812 37.475 96.69375 37.115623Q97.70937 36.740623 99.05312 36.740623Q100.38125 36.740623 101.20937 37.053123Q102.0375 37.365623 102.42812 37.85Q102.81875 38.31875 102.975 39.0375Q103.06875 39.490623 103.06875 40.6625L103.06875 43.00625Q103.06875 45.459373 103.17812 46.115623Q103.2875 46.75625 103.63125 47.35L101.7875 47.35Q101.52187 46.803123 101.44375 46.06875ZM101.2875 42.146873Q100.33437 42.5375 98.4125 42.803123Q97.33437 42.959373 96.88125 43.1625Q96.44375 43.35 96.19375 43.725Q95.94375 44.1 95.94375 44.56875Q95.94375 45.271873 96.475 45.740623Q97.00625 46.209373 98.0375 46.209373Q99.05312 46.209373 99.83437 45.771873Q100.63125 45.31875 101.00625 44.553123Q101.2875 43.94375 101.2875 42.7875L101.2875 42.146873ZM105.6625 47.35L105.6625 36.975L107.24062 36.975L107.24062 38.428123Q107.725 37.678123 108.5375 37.209373Q109.35 36.740623 110.38125 36.740623Q111.5375 36.740623 112.27187 37.225Q113.00625 37.69375 113.31875 38.553123Q114.55312 36.740623 116.52187 36.740623Q118.06875 36.740623 118.89687 37.6Q119.725 38.459373 119.725 40.225L119.725 47.35L117.975 47.35L117.975 40.81875Q117.975 39.75625 117.80312 39.303123Q117.63125 38.834373 117.17812 38.553123Q116.74062 38.271873 116.13125 38.271873Q115.0375 38.271873 114.30312 39.00625Q113.58437 39.725 113.58437 41.31875L113.58437 47.35L111.83437 47.35L111.83437 40.615623Q111.83437 39.44375 111.39687 38.865623Q110.975 38.271873 109.99062 38.271873Q109.25625 38.271873 108.61562 38.6625Q107.99062 39.053123 107.70937 39.803123Q107.42812 40.553123 107.42812 41.975L107.42812 47.35L105.6625 47.35ZM138.11563 42.334373L140.00626 42.803123Q139.4125 45.146873 137.86563 46.38125Q136.31876 47.6 134.06876 47.6Q131.75626 47.6 130.30313 46.6625Q128.86563 45.709373 128.1 43.928123Q127.35 42.13125 127.35 40.084373Q127.35 37.85 128.19376 36.19375Q129.05313 34.521873 130.63126 33.6625Q132.20938 32.7875 134.1 32.7875Q136.25626 32.7875 137.70938 33.88125Q139.17813 34.975 139.75626 36.959373L137.89688 37.396873Q137.39688 35.834373 136.44376 35.13125Q135.50626 34.4125 134.06876 34.4125Q132.4125 34.4125 131.30313 35.209373Q130.19376 35.990623 129.74063 37.334373Q129.30313 38.6625 129.30313 40.06875Q129.30313 41.896873 129.83438 43.271873Q130.36563 44.63125 131.49063 45.303123Q132.61563 45.975 133.9125 45.975Q135.50626 45.975 136.61563 45.053123Q137.725 44.13125 138.11563 42.334373ZM148.44376 46.06875Q147.45938 46.896873 146.55313 47.240623Q145.64688 47.584373 144.61563 47.584373Q142.9125 47.584373 141.99063 46.75625Q141.06876 45.9125 141.06876 44.615623Q141.06876 43.85 141.4125 43.225Q141.77188 42.6 142.33438 42.225Q142.89688 41.834373 143.6 41.63125Q144.11563 41.50625 145.1625 41.365623Q147.2875 41.115623 148.2875 40.771873Q148.30313 40.4125 148.30313 40.303123Q148.30313 39.240623 147.80313 38.7875Q147.13126 38.19375 145.80313 38.19375Q144.55313 38.19375 143.95938 38.63125Q143.38126 39.06875 143.1 40.178123L141.38126 39.94375Q141.61563 38.834373 142.14688 38.1625Q142.67813 37.475 143.69376 37.115623Q144.70938 36.740623 146.05313 36.740623Q147.38126 36.740623 148.20938 37.053123Q149.0375 37.365623 149.42813 37.85Q149.81876 38.31875 149.975 39.0375Q150.06876 39.490623 150.06876 40.6625L150.06876 43.00625Q150.06876 45.459373 150.17813 46.115623Q150.2875 46.75625 150.63126 47.35L148.7875 47.35Q148.52188 46.803123 148.44376 46.06875ZM148.2875 42.146873Q147.33438 42.5375 145.4125 42.803123Q144.33438 42.959373 143.88126 43.1625Q143.44376 43.35 143.19376 43.725Q142.94376 44.1 142.94376 44.56875Q142.94376 45.271873 143.475 45.740623Q144.00626 46.209373 145.0375 46.209373Q146.05313 46.209373 146.83438 45.771873Q147.63126 45.31875 148.00626 44.553123Q148.2875 43.94375 148.2875 42.7875L148.2875 42.146873ZM152.67813 47.35L152.67813 33.0375L154.44376 33.0375L154.44376 41.19375L158.6 36.975L160.86563 36.975L156.9125 40.81875L161.27188 47.35L159.1 47.35L155.67813 42.053123L154.44376 43.240623L154.44376 47.35L152.67813 47.35ZM169.77188 44.00625L171.58438 44.240623Q171.1625 45.81875 169.99063 46.709373Q168.83438 47.584373 167.02188 47.584373Q164.75626 47.584373 163.4125 46.19375Q162.08438 44.7875 162.08438 42.25625Q162.08438 39.63125 163.42813 38.19375Q164.77188 36.740623 166.92813 36.740623Q169.00626 36.740623 170.31876 38.1625Q171.64688 39.56875 171.64688 42.146873Q171.64688 42.303123 171.63126 42.615623L163.89688 42.615623Q163.99063 44.31875 164.86563 45.225Q165.74063 46.13125 167.0375 46.13125Q168.00626 46.13125 168.67813 45.63125Q169.36563 45.115623 169.77188 44.00625ZM163.99063 41.1625L169.7875 41.1625Q169.67813 39.865623 169.13126 39.209373Q168.2875 38.19375 166.94376 38.19375Q165.74063 38.19375 164.9125 39.00625Q164.08438 39.803123 163.99063 41.1625ZM178.49063 47.35L182.2875 41.959373L178.7875 36.975L180.975 36.975L182.56876 39.4125Q183.02188 40.1 183.2875 40.56875Q183.725 39.928123 184.08438 39.428123L185.83438 36.975L187.92813 36.975L184.35 41.865623L188.20938 47.35L186.05313 47.35L183.9125 44.13125L183.35 43.25625L180.63126 47.35L178.49063 47.35ZM194.81876 47.35L194.81876 33.0375L196.70938 33.0375L196.70938 40.13125L203.81876 33.0375L206.38126 33.0375L200.38126 38.834373L206.64688 47.35L204.14688 47.35L199.05313 40.1L196.70938 42.38125L196.70938 47.35L194.81876 47.35ZM214.45938 47.35L214.45938 45.81875Q213.25626 47.584373 211.17813 47.584373Q210.25626 47.584373 209.45938 47.240623Q208.6625 46.88125 208.27188 46.35Q207.89688 45.81875 207.74063 45.0375Q207.63126 44.521873 207.63126 43.396873L207.63126 36.975L209.38126 36.975L209.38126 42.725Q209.38126 44.1 209.49063 44.584373Q209.6625 45.271873 210.19376 45.678123Q210.74063 46.06875 211.52188 46.06875Q212.31876 46.06875 213.00626 45.6625Q213.70938 45.25625 213.99063 44.56875Q214.2875 43.865623 214.2875 42.5375L214.2875 36.975L216.0375 36.975L216.0375 47.35L214.45938 47.35ZM216.95938 44.25625L218.70938 43.975Q218.85 45.021873 219.52188 45.584373Q220.19376 46.13125 221.39688 46.13125Q222.6 46.13125 223.17813 45.646873Q223.77188 45.146873 223.77188 44.490623Q223.77188 43.896873 223.25626 43.553123Q222.89688 43.31875 221.45938 42.959373Q219.52188 42.459373 218.77188 42.115623Q218.0375 41.75625 217.64688 41.13125Q217.25626 40.490623 217.25626 39.725Q217.25626 39.0375 217.56876 38.44375Q217.89688 37.85 218.44376 37.459373Q218.85 37.1625 219.55313 36.959373Q220.27188 36.740623 221.08438 36.740623Q222.30313 36.740623 223.225 37.1Q224.14688 37.44375 224.58438 38.053123Q225.02188 38.646873 225.19376 39.646873L223.475 39.88125Q223.35 39.084373 222.7875 38.646873Q222.225 38.19375 221.20938 38.19375Q219.99063 38.19375 219.475 38.6Q218.95938 38.990623 218.95938 39.521873Q218.95938 39.865623 219.17813 40.146873Q219.38126 40.428123 219.85 40.615623Q220.11563 40.709373 221.39688 41.053123Q223.27188 41.553123 224.00626 41.88125Q224.74063 42.19375 225.1625 42.803123Q225.58438 43.396873 225.58438 44.303123Q225.58438 45.178123 225.06876 45.959373Q224.55313 46.740623 223.58438 47.1625Q222.61563 47.584373 221.39688 47.584373Q219.38126 47.584373 218.31876 46.740623Q217.25626 45.896873 216.95938 44.25625ZM227.6625 47.35L227.6625 33.0375L229.42813 33.0375L229.42813 38.1625Q230.6625 36.740623 232.5375 36.740623Q233.67813 36.740623 234.52188 37.19375Q235.38126 37.646873 235.74063 38.459373Q236.11563 39.25625 236.11563 40.771873L236.11563 47.35L234.36563 47.35L234.36563 40.771873Q234.36563 39.459373 233.7875 38.865623Q233.20938 38.25625 232.17813 38.25625Q231.39688 38.25625 230.69376 38.6625Q230.00626 39.06875 229.70938 39.771873Q229.42813 40.459373 229.42813 41.678123L229.42813 47.35L227.6625 47.35ZM243.83438 47.35L243.83438 33.0375L246.69376 33.0375L250.06876 43.1625Q250.5375 44.584373 250.75626 45.2875Q251.00626 44.50625 251.52188 42.990623L254.94376 33.0375L257.49063 33.0375L257.49063 47.35L255.67813 47.35L255.67813 35.365623L251.50626 47.35L249.80313 47.35L245.6625 35.1625L245.6625 47.35L243.83438 47.35ZM260.67813 35.053123L260.67813 33.0375L262.44376 33.0375L262.44376 35.053123L260.67813 35.053123ZM260.67813 47.35L260.67813 36.975L262.44376 36.975L262.44376 47.35L260.67813 47.35ZM264.6625 47.35L264.6625 36.975L266.25626 36.975L266.25626 38.459373Q267.39688 36.740623 269.55313 36.740623Q270.49063 36.740623 271.27188 37.084373Q272.06876 37.4125 272.45938 37.959373Q272.85 38.50625 273.00626 39.25625Q273.1 39.75625 273.1 40.975L273.1 47.35L271.33438 47.35L271.33438 41.0375Q271.33438 39.959373 271.13126 39.428123Q270.92813 38.896873 270.39688 38.584373Q269.88126 38.271873 269.17813 38.271873Q268.05313 38.271873 267.24063 38.990623Q266.42813 39.69375 266.42813 41.678123L266.42813 47.35L264.6625 47.35ZM278.50626 45.771873L278.75626 47.334373Q278.02188 47.490623 277.42813 47.490623Q276.475 47.490623 275.94376 47.19375Q275.42813 46.88125 275.20938 46.396873Q274.99063 45.896873 274.99063 44.31875L274.99063 38.35L273.70938 38.35L273.70938 36.975L274.99063 36.975L274.99063 34.4125L276.74063 33.35L276.74063 36.975L278.50626 36.975L278.50626 38.35L276.74063 38.35L276.74063 44.4125Q276.74063 45.1625 276.83438 45.38125Q276.92813 45.584373 277.13126 45.725Q277.35 45.85 277.74063 45.85Q278.02188 45.85 278.50626 45.771873ZM279.95938 44.25625L281.70938 43.975Q281.85 45.021873 282.52188 45.584373Q283.19376 46.13125 284.39688 46.13125Q285.6 46.13125 286.17813 45.646873Q286.77188 45.146873 286.77188 44.490623Q286.77188 43.896873 286.25626 43.553123Q285.89688 43.31875 284.45938 42.959373Q282.52188 42.459373 281.77188 42.115623Q281.0375 41.75625 280.64688 41.13125Q280.25626 40.490623 280.25626 39.725Q280.25626 39.0375 280.56876 38.44375Q280.89688 37.85 281.44376 37.459373Q281.85 37.1625 282.55313 36.959373Q283.27188 36.740623 284.08438 36.740623Q285.30313 36.740623 286.225 37.1Q287.14688 37.44375 287.58438 38.053123Q288.02188 38.646873 288.19376 39.646873L286.475 39.88125Q286.35 39.084373 285.7875 38.646873Q285.225 38.19375 284.20938 38.19375Q282.99063 38.19375 282.475 38.6Q281.95938 38.990623 281.95938 39.521873Q281.95938 39.865623 282.17813 40.146873Q282.38126 40.428123 282.85 40.615623Q283.11563 40.709373 284.39688 41.053123Q286.27188 41.553123 287.00626 41.88125Q287.74063 42.19375 288.1625 42.803123Q288.58438 43.396873 288.58438 44.303123Q288.58438 45.178123 288.06876 45.959373Q287.55313 46.740623 286.58438 47.1625Q285.61563 47.584373 284.39688 47.584373Q282.38126 47.584373 281.31876 46.740623Q280.25626 45.896873 279.95938 44.25625Z" fill-rule="nonzero"/></svg>