<svg version="1.1" viewBox="0.0 0.0 744.0 567.0" fill="none" stroke="none" stroke-linecap="square" stroke-miterlimit="10" width="744" height="567" xmlns:xlink="http://www.w3.org/1999/xlink" xmlns="http://www.w3.org/2000/svg"><path fill="#ffffff" d="M0 0L744.0 0L744.0 567.0L0 567.0L0 0Z" fill-rule="nonzero"/><path fill="#ffffff" d="M28.35 71.25L715.64996 71.25L715.64996 538.65L28.35 538.65L28.35 71.25Z" fill-rule="nonzero"/><path stroke="#cccccc" stroke-width="1.0" stroke-linecap="butt" d="M372.0 305.0C372.0 305.0 372.0 305.0 372.0 305.0C372.0 305.0 372.0 305.0 372.0 305.0C372.0 305.0 372.0 305.0 372.0 305.0C372.0 305.0 372.0 305.0 372.0 305.0" fill-rule="nonzero"/><path fill="#000000" d="M360.0625 297.04688L360.0625 298.35938Q360.0625 299.40625 359.875 300.125Q359.6875 300.84375 359.32812 301.28125Q358.98438 301.71875 358.48438 301.92188Q358.0 302.125 357.375 302.125Q356.89062 302.125 356.46875 302.0Q356.04688 301.875 355.71875 301.60938Q355.39062 301.32812 355.15625 300.89062Q354.92188 300.45312 354.79688 299.82812Q354.67188 299.1875 354.67188 298.35938L354.67188 297.04688Q354.67188 296.0 354.85938 295.29688Q355.0625 294.59375 355.40625 294.15625Q355.76562 293.71875 356.25 293.53125Q356.75 293.34375 357.35938 293.34375Q357.85938 293.34375 358.28125 293.46875Q358.70312 293.59375 359.03125 293.85938Q359.35938 294.10938 359.57812 294.54688Q359.8125 294.96875 359.9375 295.59375Q360.0625 296.21875 360.0625 297.04688ZM358.96875 298.53125L358.96875 296.875Q358.96875 296.29688 358.90625 295.85938Q358.84375 295.42188 358.70312 295.10938Q358.57812 294.79688 358.375 294.60938Q358.1875 294.42188 357.9375 294.32812Q357.6875 294.23438 357.35938 294.23438Q356.98438 294.23438 356.67188 294.375Q356.375 294.51562 356.17188 294.82812Q355.96875 295.14062 355.85938 295.65625Q355.76562 296.15625 355.76562 296.875L355.76562 298.53125Q355.76562 299.10938 355.82812 299.54688Q355.90625 299.98438 356.03125 300.3125Q356.17188 300.625 356.35938 300.82812Q356.5625 301.03125 356.8125 301.125Q357.0625 301.21875 357.375 301.21875Q357.78125 301.21875 358.07812 301.07812Q358.375 300.92188 358.57812 300.59375Q358.78125 300.26562 358.875 299.76562Q358.96875 299.25 358.96875 298.53125ZM362.8125 300.70312L362.8125 301.57812Q362.8125 302.125 362.53125 302.71875Q362.26562 303.3125 361.78125 303.70312L361.17188 303.28125Q361.35938 303.01562 361.48438 302.75Q361.60938 302.48438 361.67188 302.20312Q361.75 301.92188 361.75 301.59375L361.75 300.70312L362.8125 300.70312ZM369.0625 297.04688L369.0625 298.35938Q369.0625 299.40625 368.875 300.125Q368.6875 300.84375 368.32812 301.28125Q367.98438 301.71875 367.48438 301.92188Q367.0 302.125 366.375 302.125Q365.89062 302.125 365.46875 302.0Q365.04688 301.875 364.71875 301.60938Q364.39062 301.32812 364.15625 300.89062Q363.92188 300.45312 363.79688 299.82812Q363.67188 299.1875 363.67188 298.35938L363.67188 297.04688Q363.67188 296.0 363.85938 295.29688Q364.0625 294.59375 364.40625 294.15625Q364.76562 293.71875 365.25 293.53125Q365.75 293.34375 366.35938 293.34375Q366.85938 293.34375 367.28125 293.46875Q367.70312 293.59375 368.03125 293.85938Q368.35938 294.10938 368.57812 294.54688Q368.8125 294.96875 368.9375 295.59375Q369.0625 296.21875 369.0625 297.04688ZM367.96875 298.53125L367.96875 296.875Q367.96875 296.29688 367.90625 295.85938Q367.84375 295.42188 367.70312 295.10938Q367.57812 294.79688 367.375 294.60938Q367.1875 294.42188 366.9375 294.32812Q366.6875 294.23438 366.35938 294.23438Q365.98438 294.23438 365.67188 294.375Q365.375 294.51562 365.17188 294.82812Q364.96875 295.14062 364.85938 295.65625Q364.76562 296.15625 364.76562 296.875L364.76562 298.53125Q364.76562 299.10938 364.82812 299.54688Q364.90625 299.98438 365.03125 300.3125Q365.17188 300.625 365.35938 300.82812Q365.5625 301.03125 365.8125 301.125Q366.0625 301.21875 366.375 301.21875Q366.78125 301.21875 367.07812 301.07812Q367.375 300.92188 367.57812 300.59375Q367.78125 300.26562 367.875 299.76562Q367.96875 299.25 367.96875 298.53125Z" fill-rule="nonzero"/><path stroke="#cccccc" stroke-width="1.0" stroke-linecap="butt" d="M422.425 305.0C422.425 277.15103 399.84897 254.575 372.0 254.575C344.15103 254.575 321.575 277.15103 321.575 305.0C321.575 332.84897 344.15103 355.425 372.0 355.425C399.84897 355.425 422.425 332.84897 422.425 305.0" fill-rule="nonzero"/><path fill="#000000" d="M360.0625 246.62187L360.0625 247.93437Q360.0625 248.98125 359.875 249.7Q359.6875 250.41875 359.32812 250.85625Q358.98438 251.29375 358.48438 251.49687Q358.0 251.7 357.375 251.7Q356.89062 251.7 356.46875 251.575Q356.04688 251.45 355.71875 251.18437Q355.39062 250.90312 355.15625 250.46562Q354.92188 250.02812 354.79688 249.40312Q354.67188 248.7625 354.67188 247.93437L354.67188 246.62187Q354.67188 245.575 354.85938 244.87187Q355.0625 244.16875 355.40625 243.73125Q355.76562 243.29375 356.25 243.10625Q356.75 242.91875 357.35938 242.91875Q357.85938 242.91875 358.28125 243.04375Q358.70312 243.16875 359.03125 243.43437Q359.35938 243.68437 359.57812 244.12187Q359.8125 244.54375 359.9375 245.16875Q360.0625 245.79375 360.0625 246.62187ZM358.96875 248.10625L358.96875 246.45Q358.96875 245.87187 358.90625 245.43437Q358.84375 244.99687 358.70312 244.68437Q358.57812 244.37187 358.375 244.18437Q358.1875 243.99687 357.9375 243.90312Q357.6875 243.80937 357.35938 243.80937Q356.98438 243.80937 356.67188 243.95Q356.375 244.09062 356.17188 244.40312Q355.96875 244.71562 355.85938 245.23125Q355.76562 245.73125 355.76562 246.45L355.76562 248.10625Q355.76562 248.68437 355.82812 249.12187Q355.90625 249.55937 356.03125 249.8875Q356.17188 250.2 356.35938 250.40312Q356.5625 250.60625 356.8125 250.7Q357.0625 250.79375 357.375 250.79375Q357.78125 250.79375 358.07812 250.65312Q358.375 250.49687 358.57812 250.16875Q358.78125 249.84062 358.875 249.34062Q358.96875 248.825 358.96875 248.10625ZM362.8125 250.27812L362.8125 251.15312Q362.8125 251.7 362.53125 252.29375Q362.26562 252.8875 361.78125 253.27812L361.17188 252.85625Q361.35938 252.59062 361.48438 252.325Q361.60938 252.05937 361.67188 251.77812Q361.75 251.49687 361.75 251.16875L361.75 250.27812L362.8125 250.27812ZM369.29688 250.68437L369.29688 251.575L363.71875 251.575L363.71875 250.79375L366.51562 247.68437Q367.03125 247.10625 367.3125 246.71562Q367.59375 246.30937 367.70312 245.99687Q367.82812 245.66875 367.82812 245.34062Q367.82812 244.91875 367.65625 244.575Q367.48438 244.23125 367.14062 244.02812Q366.8125 243.80937 366.32812 243.80937Q365.76562 243.80937 365.39062 244.04375Q365.01562 244.2625 364.82812 244.65312Q364.64062 245.04375 364.64062 245.54375L363.54688 245.54375Q363.54688 244.825 363.85938 244.23125Q364.1875 243.6375 364.79688 243.27812Q365.42188 242.91875 366.32812 242.91875Q367.14062 242.91875 367.71875 243.21562Q368.29688 243.49687 368.59375 244.0125Q368.90625 244.5125 368.90625 245.2Q368.90625 245.575 368.78125 245.96562Q368.65625 246.34062 368.4375 246.73125Q368.21875 247.10625 367.92188 247.48125Q367.64062 247.84062 367.3125 248.2L365.01562 250.68437L369.29688 250.68437Z" fill-rule="nonzero"/><path stroke="#cccccc" stroke-width="1.0" stroke-linecap="butt" d="M472.85 305.0C472.85 249.30208 427.6979 204.15 372.0 204.15C316.3021 204.15 271.15 249.30208 271.15 305.0C271.15 360.6979 316.3021 405.85 372.0 405.85C427.6979 405.85 472.85 360.6979 472.85 305.0" fill-rule="nonzero"/><path fill="#000000" d="M360.0625 196.19687L360.0625 197.50937Q360.0625 198.55624 359.875 199.275Q359.6875 199.99374 359.32812 200.43124Q358.98438 200.86874 358.48438 201.07187Q358.0 201.275 357.375 201.275Q356.89062 201.275 356.46875 201.15Q356.04688 201.025 355.71875 200.75937Q355.39062 200.47812 355.15625 200.04062Q354.92188 199.60312 354.79688 198.97812Q354.67188 198.3375 354.67188 197.50937L354.67188 196.19687Q354.67188 195.15 354.85938 194.44687Q355.0625 193.74374 355.40625 193.30624Q355.76562 192.86874 356.25 192.68124Q356.75 192.49374 357.35938 192.49374Q357.85938 192.49374 358.28125 192.61874Q358.70312 192.74374 359.03125 193.00937Q359.35938 193.25937 359.57812 193.69687Q359.8125 194.11874 359.9375 194.74374Q360.0625 195.36874 360.0625 196.19687ZM358.96875 197.68124L358.96875 196.025Q358.96875 195.44687 358.90625 195.00937Q358.84375 194.57187 358.70312 194.25937Q358.57812 193.94687 358.375 193.75937Q358.1875 193.57187 357.9375 193.47812Q357.6875 193.38437 357.35938 193.38437Q356.98438 193.38437 356.67188 193.525Q356.375 193.66562 356.17188 193.97812Q355.96875 194.29062 355.85938 194.80624Q355.76562 195.30624 355.76562 196.025L355.76562 197.68124Q355.76562 198.25937 355.82812 198.69687Q355.90625 199.13437 356.03125 199.4625Q356.17188 199.775 356.35938 199.97812Q356.5625 200.18124 356.8125 200.275Q357.0625 200.36874 357.375 200.36874Q357.78125 200.36874 358.07812 200.22812Q358.375 200.07187 358.57812 199.74374Q358.78125 199.41562 358.875 198.91562Q358.96875 198.4 358.96875 197.68124ZM362.8125 199.85312L362.8125 200.72812Q362.8125 201.275 362.53125 201.86874Q362.26562 202.4625 361.78125 202.85312L361.17188 202.43124Q361.35938 202.16562 361.48438 201.9Q361.60938 201.63437 361.67188 201.35312Q361.75 201.07187 361.75 200.74374L361.75 199.85312L362.8125 199.85312ZM369.46875 198.275L369.46875 199.16562L363.3125 199.16562L363.3125 198.525L367.125 192.61874L368.01562 192.61874L367.0625 194.32187L364.54688 198.275L369.46875 198.275ZM368.28125 192.61874L368.28125 201.15L367.20312 201.15L367.20312 192.61874L368.28125 192.61874Z" fill-rule="nonzero"/><path stroke="#cccccc" stroke-width="1.0" stroke-linecap="butt" d="M523.275 305.0C523.275 221.45312 455.54688 153.725 372.0 153.725C288.45312 153.725 220.725 221.45312 220.725 305.0C220.725 388.54688 288.45312 456.275 372.0 456.275C455.54688 456.275 523.275 388.54688 523.275 305.0" fill-rule="nonzero"/><path fill="#000000" d="M360.0625 145.77188L360.0625 147.08438Q360.0625 148.13126 359.875 148.85Q359.6875 149.56876 359.32812 150.00626Q358.98438 150.44376 358.48438 150.64688Q358.0 150.85 357.375 150.85Q356.89062 150.85 356.46875 150.725Q356.04688 150.6 355.71875 150.33438Q355.39062 150.05313 355.15625 149.61563Q354.92188 149.17813 354.79688 148.55313Q354.67188 147.9125 354.67188 147.08438L354.67188 145.77188Q354.67188 144.725 354.85938 144.02188Q355.0625 143.31876 355.40625 142.88126Q355.76562 142.44376 356.25 142.25626Q356.75 142.06876 357.35938 142.06876Q357.85938 142.06876 358.28125 142.19376Q358.70312 142.31876 359.03125 142.58438Q359.35938 142.83438 359.57812 143.27188Q359.8125 143.69376 359.9375 144.31876Q360.0625 144.94376 360.0625 145.77188ZM358.96875 147.25626L358.96875 145.6Q358.96875 145.02188 358.90625 144.58438Q358.84375 144.14688 358.70312 143.83438Q358.57812 143.52188 358.375 143.33438Q358.1875 143.14688 357.9375 143.05313Q357.6875 142.95938 357.35938 142.95938Q356.98438 142.95938 356.67188 143.1Q356.375 143.24063 356.17188 143.55313Q355.96875 143.86563 355.85938 144.38126Q355.76562 144.88126 355.76562 145.6L355.76562 147.25626Q355.76562 147.83438 355.82812 148.27188Q355.90625 148.70938 356.03125 149.0375Q356.17188 149.35 356.35938 149.55313Q356.5625 149.75626 356.8125 149.85Q357.0625 149.94376 357.375 149.94376Q357.78125 149.94376 358.07812 149.80313Q358.375 149.64688 358.57812 149.31876Q358.78125 148.99063 358.875 148.49063Q358.96875 147.975 358.96875 147.25626ZM362.8125 149.42813L362.8125 150.30313Q362.8125 150.85 362.53125 151.44376Q362.26562 152.0375 361.78125 152.42813L361.17188 152.00626Q361.35938 151.74063 361.48438 151.475Q361.60938 151.20938 361.67188 150.92813Q361.75 150.64688 361.75 150.31876L361.75 149.42813L362.8125 149.42813ZM367.875 142.17813L367.96875 142.17813L367.96875 143.1L367.875 143.1Q367.01562 143.1 366.42188 143.38126Q365.84375 143.6625 365.5 144.13126Q365.17188 144.58438 365.01562 145.17813Q364.875 145.75626 364.875 146.35L364.875 147.6Q364.875 148.1625 365.0 148.6Q365.14062 149.0375 365.375 149.35Q365.60938 149.64688 365.90625 149.80313Q366.20312 149.94376 366.51562 149.94376Q366.89062 149.94376 367.1875 149.80313Q367.48438 149.6625 367.6875 149.39688Q367.89062 149.13126 367.98438 148.7875Q368.09375 148.42813 368.09375 147.99063Q368.09375 147.61563 368.0 147.25626Q367.90625 146.89688 367.71875 146.63126Q367.53125 146.35 367.23438 146.19376Q366.9375 146.02188 366.54688 146.02188Q366.09375 146.02188 365.70312 146.24063Q365.3125 146.45938 365.0625 146.81876Q364.8125 147.17813 364.78125 147.58438L364.20312 147.58438Q364.29688 146.92813 364.51562 146.45938Q364.73438 145.99063 365.07812 145.69376Q365.42188 145.39688 365.82812 145.27188Q366.25 145.13126 366.71875 145.13126Q367.35938 145.13126 367.8125 145.38126Q368.28125 145.61563 368.57812 146.02188Q368.89062 146.4125 369.03125 146.9125Q369.17188 147.4125 369.17188 147.94376Q369.17188 148.5375 369.0 149.06876Q368.82812 149.6 368.48438 150.00626Q368.15625 150.39688 367.65625 150.63126Q367.17188 150.85 366.51562 150.85Q365.82812 150.85 365.3125 150.56876Q364.79688 150.27188 364.45312 149.80313Q364.125 149.31876 363.95312 148.74063Q363.78125 148.1625 363.78125 147.56876L363.78125 147.05313Q363.78125 146.14688 363.95312 145.2875Q364.14062 144.4125 364.59375 143.70938Q365.04688 143.00626 365.84375 142.6Q366.64062 142.17813 367.875 142.17813Z" fill-rule="nonzero"/><path stroke="#cccccc" stroke-width="1.0" stroke-linecap="butt" d="M573.7 305.0C573.7 193.60417 483.39584 103.3 372.0 103.3C260.60416 103.3 170.3 193.60417 170.3 305.0C170.3 416.39584 260.60416 506.7 372.0 506.7C483.39584 506.7 573.7 416.39584 573.7 305.0" fill-rule="nonzero"/><path fill="#000000" d="M360.0625 95.34688L360.0625 96.65938Q360.0625 97.70625 359.875 98.425Q359.6875 99.14375 359.32812 99.58125Q358.98438 100.01875 358.48438 100.22188Q358.0 100.425 357.375 100.425Q356.89062 100.425 356.46875 100.3Q356.04688 100.175 355.71875 99.90938Q355.39062 99.62813 355.15625 99.19063Q354.92188 98.75313 354.79688 98.12813Q354.67188 97.4875 354.67188 96.65938L354.67188 95.34688Q354.67188 94.3 354.85938 93.59688Q355.0625 92.89375 355.40625 92.45625Q355.76562 92.01875 356.25 91.83125Q356.75 91.64375 357.35938 91.64375Q357.85938 91.64375 358.28125 91.76875Q358.70312 91.89375 359.03125 92.15938Q359.35938 92.40938 359.57812 92.84688Q359.8125 93.26875 359.9375 93.89375Q360.0625 94.51875 360.0625 95.34688ZM358.96875 96.83125L358.96875 95.175Q358.96875 94.59688 358.90625 94.15938Q358.84375 93.72188 358.70312 93.40938Q358.57812 93.09688 358.375 92.90938Q358.1875 92.72188 357.9375 92.62813Q357.6875 92.53438 357.35938 92.53438Q356.98438 92.53438 356.67188 92.675Q356.375 92.81563 356.17188 93.12813Q355.96875 93.44063 355.85938 93.95625Q355.76562 94.45625 355.76562 95.175L355.76562 96.83125Q355.76562 97.40938 355.82812 97.84688Q355.90625 98.28438 356.03125 98.6125Q356.17188 98.925 356.35938 99.12813Q356.5625 99.33125 356.8125 99.425Q357.0625 99.51875 357.375 99.51875Q357.78125 99.51875 358.07812 99.37813Q358.375 99.22188 358.57812 98.89375Q358.78125 98.56563 358.875 98.06563Q358.96875 97.55 358.96875 96.83125ZM362.8125 99.00313L362.8125 99.87813Q362.8125 100.425 362.53125 101.01875Q362.26562 101.6125 361.78125 102.00313L361.17188 101.58125Q361.35938 101.31563 361.48438 101.05Q361.60938 100.78438 361.67188 100.50313Q361.75 100.22188 361.75 99.89375L361.75 99.00313L362.8125 99.00313ZM369.09375 97.9875Q369.09375 98.76875 368.73438 99.31563Q368.375 99.84688 367.75 100.14375Q367.14062 100.425 366.375 100.425Q365.60938 100.425 364.98438 100.14375Q364.375 99.84688 364.01562 99.31563Q363.65625 98.76875 363.65625 97.9875Q363.65625 97.4875 363.85938 97.06563Q364.0625 96.62813 364.42188 96.31563Q364.78125 96.00313 365.26562 95.83125Q365.76562 95.65938 366.35938 95.65938Q367.15625 95.65938 367.76562 95.95625Q368.375 96.25313 368.73438 96.78438Q369.09375 97.31563 369.09375 97.9875ZM368.0 97.97188Q368.0 97.4875 367.79688 97.12813Q367.59375 96.75313 367.21875 96.55Q366.84375 96.34688 366.35938 96.34688Q365.85938 96.34688 365.5 96.55Q365.14062 96.75313 364.9375 97.12813Q364.75 97.4875 364.75 97.97188Q364.75 98.45625 364.9375 98.81563Q365.14062 99.15938 365.5 99.34688Q365.875 99.51875 366.375 99.51875Q366.875 99.51875 367.23438 99.34688Q367.60938 99.15938 367.79688 98.81563Q368.0 98.45625 368.0 97.97188ZM368.89062 93.9875Q368.89062 94.6125 368.5625 95.1125Q368.23438 95.6125 367.65625 95.89375Q367.09375 96.175 366.375 96.175Q365.64062 96.175 365.0625 95.89375Q364.5 95.6125 364.17188 95.1125Q363.85938 94.6125 363.85938 93.9875Q363.85938 93.2375 364.17188 92.72188Q364.5 92.20625 365.0625 91.925Q365.64062 91.64375 366.375 91.64375Q367.10938 91.64375 367.67188 91.925Q368.23438 92.20625 368.5625 92.72188Q368.89062 93.2375 368.89062 93.9875ZM367.8125 94.00313Q367.8125 93.58125 367.625 93.25313Q367.4375 92.925 367.10938 92.7375Q366.79688 92.53438 366.375 92.53438Q365.9375 92.53438 365.60938 92.72188Q365.29688 92.89375 365.125 93.22188Q364.95312 93.55 364.95312 94.00313Q364.95312 94.44063 365.125 94.76875Q365.29688 95.09688 365.625 95.28438Q365.95312 95.47188 366.375 95.47188Q366.79688 95.47188 367.10938 95.28438Q367.4375 95.09688 367.625 94.76875Q367.8125 94.44063 367.8125 94.00313Z" fill-rule="nonzero"/><path stroke="#cccccc" stroke-width="1.0" stroke-linecap="butt" d="M372.0 305.0L372.0 103.0" fill-rule="nonzero"/><path fill="#000000" d="M342.64062 78.78125L343.76562 78.78125Q343.67188 79.59375 343.29688 80.234375Q342.92188 80.875 342.23438 81.25Q341.5625 81.625 340.53125 81.625Q339.78125 81.625 339.17188 81.34375Q338.5625 81.046875 338.10938 80.53125Q337.67188 80.015625 337.4375 79.296875Q337.20312 78.5625 337.20312 77.65625L337.20312 76.8125Q337.20312 75.921875 337.4375 75.1875Q337.67188 74.453125 338.125 73.9375Q338.57812 73.40625 339.20312 73.125Q339.84375 72.84375 340.625 72.84375Q341.59375 72.84375 342.26562 73.21875Q342.9375 73.578125 343.29688 74.21875Q343.67188 74.859375 343.76562 75.703125L342.64062 75.703125Q342.5625 75.109375 342.32812 74.6875Q342.10938 74.25 341.70312 74.015625Q341.29688 73.78125 340.625 73.78125Q340.0625 73.78125 339.625 74.0Q339.20312 74.203125 338.90625 74.609375Q338.625 75.0 338.46875 75.5625Q338.32812 76.125 338.32812 76.796875L338.32812 77.65625Q338.32812 78.28125 338.45312 78.84375Q338.59375 79.390625 338.85938 79.8125Q339.125 80.21875 339.54688 80.46875Q339.96875 80.703125 340.53125 80.703125Q341.25 80.703125 341.67188 80.46875Q342.10938 80.234375 342.32812 79.8125Q342.54688 79.390625 342.64062 78.78125ZM349.0625 80.421875L349.0625 77.15625Q349.0625 76.78125 348.90625 76.5Q348.76562 76.21875 348.46875 76.078125Q348.17188 75.921875 347.73438 75.921875Q347.3125 75.921875 347.0 76.0625Q346.70312 76.203125 346.53125 76.4375Q346.35938 76.65625 346.35938 76.921875L345.28125 76.921875Q345.28125 76.578125 345.45312 76.25Q345.625 75.90625 345.95312 75.640625Q346.28125 75.359375 346.75 75.203125Q347.21875 75.046875 347.79688 75.046875Q348.48438 75.046875 349.01562 75.28125Q349.54688 75.515625 349.84375 75.984375Q350.15625 76.453125 350.15625 77.15625L350.15625 80.109375Q350.15625 80.4375 350.20312 80.796875Q350.26562 81.140625 350.375 81.40625L350.375 81.5L349.23438 81.5Q349.15625 81.3125 349.10938 81.0Q349.0625 80.6875 349.0625 80.421875ZM349.25 77.65625L349.26562 78.421875L348.17188 78.421875Q347.70312 78.421875 347.34375 78.5Q346.98438 78.5625 346.73438 78.71875Q346.48438 78.859375 346.35938 79.078125Q346.23438 79.296875 346.23438 79.59375Q346.23438 79.890625 346.35938 80.140625Q346.5 80.375 346.76562 80.53125Q347.04688 80.671875 347.4375 80.671875Q347.9375 80.671875 348.3125 80.46875Q348.70312 80.25 348.92188 79.953125Q349.15625 79.640625 349.17188 79.34375L349.64062 79.875Q349.59375 80.109375 349.40625 80.421875Q349.23438 80.71875 348.92188 81.0Q348.625 81.265625 348.20312 81.453125Q347.79688 81.625 347.28125 81.625Q346.64062 81.625 346.15625 81.375Q345.67188 81.109375 345.40625 80.6875Q345.14062 80.265625 345.14062 79.734375Q345.14062 79.21875 345.32812 78.84375Q345.53125 78.453125 345.90625 78.1875Q346.28125 77.921875 346.8125 77.796875Q347.34375 77.65625 348.0 77.65625L349.25 77.65625ZM353.40625 76.15625L353.40625 81.5L352.32812 81.5L352.32812 75.15625L353.375 75.15625L353.40625 76.15625ZM355.39062 75.125L355.39062 76.125Q355.25 76.109375 355.125 76.09375Q355.01562 76.078125 354.85938 76.078125Q354.48438 76.078125 354.1875 76.203125Q353.90625 76.3125 353.70312 76.53125Q353.51562 76.734375 353.39062 77.03125Q353.28125 77.328125 353.25 77.671875L352.9375 77.84375Q352.9375 77.265625 353.04688 76.765625Q353.17188 76.265625 353.40625 75.875Q353.65625 75.484375 354.01562 75.265625Q354.39062 75.046875 354.90625 75.046875Q355.03125 75.046875 355.17188 75.078125Q355.32812 75.09375 355.39062 75.125ZM358.10938 80.84375L359.875 75.15625L361.03125 75.15625L358.48438 82.484375Q358.40625 82.71875 358.25 82.984375Q358.10938 83.265625 357.89062 83.5Q357.67188 83.75 357.35938 83.90625Q357.04688 84.0625 356.60938 84.0625Q356.48438 84.0625 356.28125 84.015625Q356.07812 83.984375 356.0 83.96875L356.0 83.09375Q356.04688 83.09375 356.14062 83.09375Q356.25 83.109375 356.28125 83.109375Q356.65625 83.109375 356.90625 83.015625Q357.17188 82.921875 357.34375 82.6875Q357.53125 82.46875 357.65625 82.078125L358.10938 80.84375ZM356.8125 75.15625L358.45312 80.078125L358.73438 81.21875L357.96875 81.625L355.625 75.15625L356.8125 75.15625ZM362.04688 78.40625L362.04688 78.265625Q362.04688 77.578125 362.23438 77.0Q362.4375 76.40625 362.8125 75.96875Q363.1875 75.53125 363.71875 75.296875Q364.25 75.046875 364.92188 75.046875Q365.57812 75.046875 366.10938 75.296875Q366.65625 75.53125 367.03125 75.96875Q367.40625 76.40625 367.60938 77.0Q367.8125 77.578125 367.8125 78.265625L367.8125 78.40625Q367.8125 79.078125 367.60938 79.671875Q367.40625 80.25 367.03125 80.6875Q366.65625 81.125 366.125 81.375Q365.59375 81.625 364.92188 81.625Q364.26562 81.625 363.71875 81.375Q363.1875 81.125 362.8125 80.6875Q362.4375 80.25 362.23438 79.671875Q362.04688 79.078125 362.04688 78.40625ZM363.125 78.265625L363.125 78.40625Q363.125 78.875 363.23438 79.296875Q363.34375 79.71875 363.5625 80.046875Q363.79688 80.359375 364.14062 80.546875Q364.48438 80.71875 364.92188 80.71875Q365.375 80.71875 365.70312 80.546875Q366.04688 80.359375 366.26562 80.046875Q366.5 79.71875 366.60938 79.296875Q366.71875 78.875 366.71875 78.40625L366.71875 78.265625Q366.71875 77.796875 366.60938 77.375Q366.5 76.953125 366.26562 76.640625Q366.04688 76.3125 365.70312 76.125Q365.375 75.9375 364.92188 75.9375Q364.46875 75.9375 364.125 76.125Q363.79688 76.3125 363.5625 76.640625Q363.34375 76.953125 363.23438 77.375Q363.125 77.796875 363.125 78.265625ZM370.40625 76.375L370.40625 83.9375L369.32812 83.9375L369.32812 75.15625L370.3125 75.15625L370.40625 76.375ZM374.6875 78.28125L374.6875 78.40625Q374.6875 79.09375 374.51562 79.6875Q374.35938 80.265625 374.04688 80.703125Q373.73438 81.140625 373.26562 81.390625Q372.8125 81.625 372.21875 81.625Q371.625 81.625 371.15625 81.421875Q370.6875 81.21875 370.35938 80.84375Q370.04688 80.453125 369.85938 79.921875Q369.67188 79.390625 369.59375 78.71875L369.59375 78.0625Q369.67188 77.359375 369.85938 76.8125Q370.04688 76.25 370.35938 75.859375Q370.6875 75.453125 371.14062 75.25Q371.60938 75.046875 372.20312 75.046875Q372.79688 75.046875 373.26562 75.28125Q373.73438 75.5 374.04688 75.9375Q374.35938 76.359375 374.51562 76.953125Q374.6875 77.546875 374.6875 78.28125ZM373.59375 78.40625L373.59375 78.28125Q373.59375 77.796875 373.48438 77.390625Q373.39062 76.96875 373.1875 76.65625Q372.98438 76.328125 372.65625 76.140625Q372.32812 75.953125 371.89062 75.953125Q371.48438 75.953125 371.17188 76.09375Q370.875 76.234375 370.65625 76.484375Q370.45312 76.71875 370.3125 77.015625Q370.1875 77.3125 370.125 77.640625L370.125 79.15625Q370.23438 79.5625 370.4375 79.921875Q370.65625 80.28125 371.0 80.5Q371.35938 80.71875 371.90625 80.71875Q372.34375 80.71875 372.65625 80.546875Q372.98438 80.359375 373.1875 80.046875Q373.39062 79.71875 373.48438 79.296875Q373.59375 78.875 373.59375 78.40625ZM377.40625 72.5L377.40625 81.5L376.32812 81.5L376.32812 72.5L377.40625 72.5ZM377.15625 78.09375L376.70312 78.078125Q376.70312 77.421875 376.89062 76.875Q377.07812 76.3125 377.42188 75.90625Q377.76562 75.5 378.23438 75.28125Q378.70312 75.046875 379.28125 75.046875Q379.75 75.046875 380.125 75.171875Q380.5 75.296875 380.76562 75.578125Q381.03125 75.84375 381.17188 76.28125Q381.3125 76.71875 381.3125 77.34375L381.3125 81.5L380.21875 81.5L380.21875 77.328125Q380.21875 76.828125 380.07812 76.53125Q379.9375 76.234375 379.65625 76.09375Q379.375 75.953125 378.95312 75.953125Q378.54688 75.953125 378.21875 76.125Q377.89062 76.296875 377.65625 76.59375Q377.42188 76.890625 377.28125 77.28125Q377.15625 77.65625 377.15625 78.09375ZM385.10938 80.84375L386.875 75.15625L388.03125 75.15625L385.48438 82.484375Q385.40625 82.71875 385.25 82.984375Q385.10938 83.265625 384.89062 83.5Q384.67188 83.75 384.35938 83.90625Q384.04688 84.0625 383.60938 84.0625Q383.48438 84.0625 383.28125 84.015625Q383.07812 83.984375 383.0 83.96875L383.0 83.09375Q383.04688 83.09375 383.14062 83.09375Q383.25 83.109375 383.28125 83.109375Q383.65625 83.109375 383.90625 83.015625Q384.17188 82.921875 384.34375 82.6875Q384.53125 82.46875 384.65625 82.078125L385.10938 80.84375ZM383.8125 75.15625L385.45312 80.078125L385.73438 81.21875L384.96875 81.625L382.625 75.15625L383.8125 75.15625ZM390.5 72.5L390.5 81.5L389.42188 81.5L389.42188 72.5L390.5 72.5ZM393.5 72.5L393.5 81.5L392.42188 81.5L392.42188 72.5L393.5 72.5ZM397.95312 81.625Q397.29688 81.625 396.75 81.40625Q396.21875 81.171875 395.82812 80.765625Q395.45312 80.34375 395.25 79.78125Q395.04688 79.21875 395.04688 78.546875L395.04688 78.3125Q395.04688 77.53125 395.26562 76.921875Q395.5 76.3125 395.89062 75.890625Q396.28125 75.46875 396.78125 75.265625Q397.28125 75.046875 397.8125 75.046875Q398.5 75.046875 398.98438 75.28125Q399.48438 75.515625 399.79688 75.9375Q400.125 76.34375 400.26562 76.921875Q400.42188 77.484375 400.42188 78.140625L400.42188 78.640625L395.6875 78.640625L395.6875 77.75L399.34375 77.75L399.34375 77.671875Q399.3125 77.25 399.15625 76.859375Q399.01562 76.453125 398.6875 76.203125Q398.375 75.9375 397.8125 75.9375Q397.45312 75.9375 397.14062 76.09375Q396.82812 76.25 396.59375 76.5625Q396.375 76.859375 396.25 77.296875Q396.14062 77.734375 396.14062 78.3125L396.14062 78.546875Q396.14062 79.0 396.26562 79.40625Q396.39062 79.796875 396.625 80.09375Q396.875 80.390625 397.21875 80.5625Q397.57812 80.734375 398.01562 80.734375Q398.59375 80.734375 398.98438 80.5Q399.39062 80.265625 399.6875 79.875L400.34375 80.390625Q400.14062 80.703125 399.8125 80.984375Q399.5 81.265625 399.03125 81.453125Q398.57812 81.625 397.95312 81.625ZM402.40625 76.515625L402.40625 81.5L401.32812 81.5L401.32812 75.15625L402.35938 75.15625L402.40625 76.515625ZM402.15625 78.09375L401.70312 78.078125Q401.70312 77.421875 401.89062 76.875Q402.07812 76.3125 402.42188 75.90625Q402.76562 75.5 403.23438 75.28125Q403.70312 75.046875 404.28125 75.046875Q404.75 75.046875 405.125 75.171875Q405.5 75.296875 405.76562 75.578125Q406.03125 75.84375 406.17188 76.28125Q406.3125 76.71875 406.3125 77.34375L406.3125 81.5L405.21875 81.5L405.21875 77.328125Q405.21875 76.828125 405.07812 76.53125Q404.9375 76.234375 404.65625 76.09375Q404.375 75.953125 403.95312 75.953125Q403.54688 75.953125 403.21875 76.125Q402.89062 76.296875 402.65625 76.59375Q402.42188 76.890625 402.28125 77.28125Q402.15625 77.65625 402.15625 78.09375Z" fill-rule="nonzero"/><path stroke="#cccccc" stroke-width="1.0" stroke-linecap="butt" d="M372.0 305.0L547.0 204.0" fill-rule="nonzero"/><path fill="#000000" d="M539.59375 192.5625L539.59375 192.4375Q539.59375 191.6875 539.75 191.07812Q539.9219 190.45312 540.2344 190.0Q540.5469 189.54688 541.0 189.29688Q541.46875 189.04688 542.0625 189.04688Q542.5156 189.04688 542.875 189.1875Q543.25 189.3125 543.53125 189.57812Q543.8125 189.82812 544.0156 190.20312Q544.21875 190.57812 544.34375 191.0625Q544.46875 191.53125 544.5156 192.09375L544.5156 192.57812Q544.4531 193.28125 544.2656 193.84375Q544.09375 194.40625 543.7969 194.8125Q543.5 195.20312 543.0625 195.42188Q542.6406 195.625 542.0469 195.625Q541.46875 195.625 541.0 195.40625Q540.5469 195.17188 540.2344 194.76562Q539.9219 194.34375 539.75 193.79688Q539.59375 193.23438 539.59375 192.5625ZM540.6719 192.4375L540.6719 192.5625Q540.6719 193.01562 540.7656 193.40625Q540.8594 193.79688 541.0469 194.09375Q541.25 194.39062 541.5625 194.5625Q541.8906 194.73438 542.3281 194.73438Q542.75 194.73438 543.0469 194.5625Q543.3594 194.375 543.5625 194.07812Q543.78125 193.78125 543.90625 193.39062Q544.0469 193.0 544.1406 192.59375L544.1406 192.20312Q544.0781 191.76562 543.9375 191.375Q543.8125 190.96875 543.59375 190.64062Q543.3906 190.3125 543.0781 190.125Q542.7656 189.9375 542.3281 189.9375Q541.8906 189.9375 541.5781 190.14062Q541.2656 190.32812 541.0625 190.67188Q540.8594 191.01562 540.7656 191.48438Q540.6719 191.9375 540.6719 192.4375ZM543.9844 189.15625L544.90625 189.15625L544.90625 193.76562Q544.90625 194.04688 544.9375 194.21875Q544.96875 194.375 545.03125 194.48438Q545.1094 194.57812 545.1875 194.625Q545.28125 194.65625 545.375 194.65625Q545.4219 194.65625 545.46875 194.64062Q545.53125 194.625 545.5625 194.60938L545.7031 195.42188Q545.5156 195.54688 545.34375 195.57812Q545.1719 195.625 544.9844 195.625Q544.7031 195.625 544.4844 195.51562Q544.28125 195.42188 544.125 195.20312Q543.96875 194.98438 543.8906 194.625Q543.8125 194.26562 543.8125 193.76562L543.8125 190.53125L543.9844 189.15625ZM549.0781 191.42188L549.0781 192.3125L546.21875 192.3125L546.21875 191.42188L549.0781 191.42188ZM555.5625 190.64062L555.5625 191.5625L550.9531 191.5625L550.9531 190.64062L555.5625 190.64062ZM551.125 186.96875L551.125 195.5L549.9844 195.5L549.9844 186.96875L551.125 186.96875ZM556.5469 186.96875L556.5469 195.5L555.4219 195.5L555.4219 186.96875L556.5469 186.96875ZM562.7031 194.03125L562.7031 189.15625L563.7969 189.15625L563.7969 195.5L562.7656 195.5L562.7031 194.03125ZM562.90625 192.70312L563.3594 192.6875Q563.3594 193.3125 563.21875 193.85938Q563.09375 194.39062 562.7969 194.78125Q562.5156 195.17188 562.03125 195.40625Q561.5625 195.625 560.8906 195.625Q560.4219 195.625 560.03125 195.48438Q559.65625 195.34375 559.375 195.0625Q559.1094 194.78125 558.9531 194.32812Q558.7969 193.875 558.7969 193.25L558.7969 189.15625L559.8906 189.15625L559.8906 193.26562Q559.8906 193.6875 559.9844 193.96875Q560.0781 194.25 560.25 194.40625Q560.4219 194.5625 560.625 194.64062Q560.8281 194.70312 561.0469 194.70312Q561.75 194.70312 562.1406 194.4375Q562.5469 194.15625 562.71875 193.70312Q562.90625 193.25 562.90625 192.70312ZM566.90625 190.42188L566.90625 195.5L565.8125 195.5L565.8125 189.15625L566.84375 189.15625L566.90625 190.42188ZM566.6875 192.09375L566.1719 192.07812Q566.1875 191.42188 566.34375 190.875Q566.5156 190.3125 566.8281 189.90625Q567.15625 189.5 567.6406 189.28125Q568.125 189.04688 568.75 189.04688Q569.2031 189.04688 569.5781 189.17188Q569.9531 189.29688 570.21875 189.5625Q570.5 189.82812 570.6406 190.25Q570.7969 190.67188 570.7969 191.28125L570.7969 195.5L569.71875 195.5L569.71875 191.32812Q569.71875 190.82812 569.5469 190.53125Q569.3906 190.23438 569.0781 190.09375Q568.78125 189.95312 568.3594 189.95312Q567.8906 189.95312 567.5625 190.125Q567.2344 190.29688 567.0469 190.59375Q566.8594 190.89062 566.7656 191.28125Q566.6875 191.65625 566.6875 192.09375ZM570.7969 191.48438L570.0625 191.71875Q570.0625 191.1875 570.2344 190.71875Q570.40625 190.23438 570.71875 189.85938Q571.0469 189.48438 571.5156 189.26562Q571.9844 189.04688 572.5781 189.04688Q573.09375 189.04688 573.4844 189.1875Q573.8906 189.3125 574.15625 189.59375Q574.4219 189.875 574.5625 190.3125Q574.7031 190.73438 574.7031 191.32812L574.7031 195.5L573.625 195.5L573.625 191.32812Q573.625 190.78125 573.4531 190.5Q573.28125 190.20312 572.9844 190.07812Q572.6875 189.95312 572.2656 189.95312Q571.90625 189.95312 571.625 190.07812Q571.3594 190.20312 571.1719 190.42188Q570.9844 190.625 570.8906 190.90625Q570.7969 191.1875 570.7969 191.48438ZM580.7031 194.03125L580.7031 189.15625L581.7969 189.15625L581.7969 195.5L580.7656 195.5L580.7031 194.03125ZM580.90625 192.70312L581.3594 192.6875Q581.3594 193.3125 581.21875 193.85938Q581.09375 194.39062 580.7969 194.78125Q580.5156 195.17188 580.03125 195.40625Q579.5625 195.625 578.8906 195.625Q578.4219 195.625 578.03125 195.48438Q577.65625 195.34375 577.375 195.0625Q577.1094 194.78125 576.9531 194.32812Q576.7969 193.875 576.7969 193.25L576.7969 189.15625L577.8906 189.15625L577.8906 193.26562Q577.8906 193.6875 577.9844 193.96875Q578.0781 194.25 578.25 194.40625Q578.4219 194.5625 578.625 194.64062Q578.8281 194.70312 579.0469 194.70312Q579.75 194.70312 580.1406 194.4375Q580.5469 194.15625 580.71875 193.70312Q580.90625 193.25 580.90625 192.70312ZM585.0 186.5L585.0 195.5L583.9219 195.5L583.9219 186.5L585.0 186.5ZM589.4531 195.625Q588.7969 195.625 588.25 195.40625Q587.71875 195.17188 587.3281 194.76562Q586.9531 194.34375 586.75 193.78125Q586.5469 193.21875 586.5469 192.54688L586.5469 192.3125Q586.5469 191.53125 586.7656 190.92188Q587.0 190.3125 587.3906 189.89062Q587.78125 189.46875 588.28125 189.26562Q588.78125 189.04688 589.3125 189.04688Q590.0 189.04688 590.4844 189.28125Q590.9844 189.51562 591.2969 189.9375Q591.625 190.34375 591.7656 190.92188Q591.9219 191.48438 591.9219 192.14062L591.9219 192.64062L587.1875 192.64062L587.1875 191.75L590.84375 191.75L590.84375 191.67188Q590.8125 191.25 590.65625 190.85938Q590.5156 190.45312 590.1875 190.20312Q589.875 189.9375 589.3125 189.9375Q588.9531 189.9375 588.6406 190.09375Q588.3281 190.25 588.09375 190.5625Q587.875 190.85938 587.75 191.29688Q587.6406 191.73438 587.6406 192.3125L587.6406 192.54688Q587.6406 193.0 587.7656 193.40625Q587.8906 193.79688 588.125 194.09375Q588.375 194.39062 588.71875 194.5625Q589.0781 194.73438 589.5156 194.73438Q590.09375 194.73438 590.4844 194.5Q590.8906 194.26562 591.1875 193.875L591.84375 194.39062Q591.6406 194.70312 591.3125 194.98438Q591.0 195.26562 590.53125 195.45312Q590.0781 195.625 589.4531 195.625ZM593.90625 190.51562L593.90625 195.5L592.8281 195.5L592.8281 189.15625L593.8594 189.15625L593.90625 190.51562ZM593.65625 192.09375L593.2031 192.07812Q593.2031 191.42188 593.3906 190.875Q593.5781 190.3125 593.9219 189.90625Q594.2656 189.5 594.7344 189.28125Q595.2031 189.04688 595.78125 189.04688Q596.25 189.04688 596.625 189.17188Q597.0 189.29688 597.2656 189.57812Q597.53125 189.84375 597.6719 190.28125Q597.8125 190.71875 597.8125 191.34375L597.8125 195.5L596.71875 195.5L596.71875 191.32812Q596.71875 190.82812 596.5781 190.53125Q596.4375 190.23438 596.15625 190.09375Q595.875 189.95312 595.4531 189.95312Q595.0469 189.95312 594.71875 190.125Q594.3906 190.29688 594.15625 190.59375Q593.9219 190.89062 593.78125 191.28125Q593.65625 191.65625 593.65625 192.09375Z" fill-rule="nonzero"/><path stroke="#cccccc" stroke-width="1.0" stroke-linecap="butt" d="M372.0 305.0L547.0 406.0" fill-rule="nonzero"/><path fill="#000000" d="M558.7969 419.25L558.7969 422.375Q558.6406 422.60938 558.2969 422.90625Q557.9531 423.1875 557.34375 423.40625Q556.7344 423.625 555.78125 423.625Q555.0 423.625 554.34375 423.35938Q553.6875 423.07812 553.2031 422.54688Q552.7344 422.01562 552.46875 421.26562Q552.21875 420.51562 552.21875 419.5625L552.21875 418.90625Q552.21875 417.9375 552.4375 417.1875Q552.6719 416.4375 553.1094 415.92188Q553.5469 415.39062 554.1875 415.125Q554.8281 414.84375 555.65625 414.84375Q556.625 414.84375 557.28125 415.1875Q557.9531 415.53125 558.3125 416.125Q558.6875 416.70312 558.7969 417.46875L557.6719 417.46875Q557.59375 417.0 557.3594 416.625Q557.1406 416.23438 556.71875 416.01562Q556.3125 415.78125 555.65625 415.78125Q555.0625 415.78125 554.625 416.0Q554.1875 416.20312 553.90625 416.60938Q553.625 417.01562 553.4844 417.59375Q553.3594 418.17188 553.3594 418.89062L553.3594 419.5625Q553.3594 420.29688 553.53125 420.875Q553.7031 421.45312 554.0156 421.875Q554.34375 422.28125 554.78125 422.5Q555.2344 422.70312 555.78125 422.70312Q556.3906 422.70312 556.7656 422.59375Q557.1406 422.48438 557.34375 422.34375Q557.5625 422.20312 557.6719 422.07812L557.6719 420.17188L555.7031 420.17188L555.7031 419.25L558.7969 419.25ZM564.2031 422.03125L564.2031 417.15625L565.2969 417.15625L565.2969 423.5L564.2656 423.5L564.2031 422.03125ZM564.40625 420.70312L564.8594 420.6875Q564.8594 421.3125 564.71875 421.85938Q564.59375 422.39062 564.2969 422.78125Q564.0156 423.17188 563.53125 423.40625Q563.0625 423.625 562.3906 423.625Q561.9219 423.625 561.53125 423.48438Q561.15625 423.34375 560.875 423.0625Q560.6094 422.78125 560.4531 422.32812Q560.2969 421.875 560.2969 421.25L560.2969 417.15625L561.3906 417.15625L561.3906 421.26562Q561.3906 421.6875 561.4844 421.96875Q561.5781 422.25 561.75 422.40625Q561.9219 422.5625 562.125 422.64062Q562.3281 422.70312 562.5469 422.70312Q563.25 422.70312 563.6406 422.4375Q564.0469 422.15625 564.21875 421.70312Q564.40625 421.25 564.40625 420.70312ZM571.0625 422.42188L571.0625 419.15625Q571.0625 418.78125 570.90625 418.5Q570.7656 418.21875 570.46875 418.07812Q570.1719 417.92188 569.7344 417.92188Q569.3125 417.92188 569.0 418.0625Q568.7031 418.20312 568.53125 418.4375Q568.3594 418.65625 568.3594 418.92188L567.28125 418.92188Q567.28125 418.57812 567.4531 418.25Q567.625 417.90625 567.9531 417.64062Q568.28125 417.35938 568.75 417.20312Q569.21875 417.04688 569.7969 417.04688Q570.4844 417.04688 571.0156 417.28125Q571.5469 417.51562 571.84375 417.98438Q572.15625 418.45312 572.15625 419.15625L572.15625 422.10938Q572.15625 422.4375 572.2031 422.79688Q572.2656 423.14062 572.375 423.40625L572.375 423.5L571.2344 423.5Q571.15625 423.3125 571.1094 423.0Q571.0625 422.6875 571.0625 422.42188ZM571.25 419.65625L571.2656 420.42188L570.1719 420.42188Q569.7031 420.42188 569.34375 420.5Q568.9844 420.5625 568.7344 420.71875Q568.4844 420.85938 568.3594 421.07812Q568.2344 421.29688 568.2344 421.59375Q568.2344 421.89062 568.3594 422.14062Q568.5 422.375 568.7656 422.53125Q569.0469 422.67188 569.4375 422.67188Q569.9375 422.67188 570.3125 422.46875Q570.7031 422.25 570.9219 421.95312Q571.15625 421.64062 571.1719 421.34375L571.6406 421.875Q571.59375 422.10938 571.40625 422.42188Q571.2344 422.71875 570.9219 423.0Q570.625 423.26562 570.2031 423.45312Q569.7969 423.625 569.28125 423.625Q568.6406 423.625 568.15625 423.375Q567.6719 423.10938 567.40625 422.6875Q567.1406 422.26562 567.1406 421.73438Q567.1406 421.21875 567.3281 420.84375Q567.53125 420.45312 567.90625 420.1875Q568.28125 419.92188 568.8125 419.79688Q569.34375 419.65625 570.0 419.65625L571.25 419.65625ZM575.5 417.15625L575.5 423.5L574.4219 423.5L574.4219 417.15625L575.5 417.15625ZM574.3281 415.48438Q574.3281 415.21875 574.4844 415.03125Q574.65625 414.84375 574.96875 414.84375Q575.28125 414.84375 575.4375 415.03125Q575.6094 415.21875 575.6094 415.48438Q575.6094 415.73438 575.4375 415.92188Q575.28125 416.09375 574.96875 416.09375Q574.65625 416.09375 574.4844 415.92188Q574.3281 415.73438 574.3281 415.48438ZM577.0469 420.40625L577.0469 420.26562Q577.0469 419.57812 577.2344 419.0Q577.4375 418.40625 577.8125 417.96875Q578.1875 417.53125 578.71875 417.29688Q579.25 417.04688 579.9219 417.04688Q580.5781 417.04688 581.1094 417.29688Q581.65625 417.53125 582.03125 417.96875Q582.40625 418.40625 582.6094 419.0Q582.8125 419.57812 582.8125 420.26562L582.8125 420.40625Q582.8125 421.07812 582.6094 421.67188Q582.40625 422.25 582.03125 422.6875Q581.65625 423.125 581.125 423.375Q580.59375 423.625 579.9219 423.625Q579.2656 423.625 578.71875 423.375Q578.1875 423.125 577.8125 422.6875Q577.4375 422.25 577.2344 421.67188Q577.0469 421.07812 577.0469 420.40625ZM578.125 420.26562L578.125 420.40625Q578.125 420.875 578.2344 421.29688Q578.34375 421.71875 578.5625 422.04688Q578.7969 422.35938 579.1406 422.54688Q579.4844 422.71875 579.9219 422.71875Q580.375 422.71875 580.7031 422.54688Q581.0469 422.35938 581.2656 422.04688Q581.5 421.71875 581.6094 421.29688Q581.71875 420.875 581.71875 420.40625L581.71875 420.26562Q581.71875 419.79688 581.6094 419.375Q581.5 418.95312 581.2656 418.64062Q581.0469 418.3125 580.7031 418.125Q580.375 417.9375 579.9219 417.9375Q579.46875 417.9375 579.125 418.125Q578.7969 418.3125 578.5625 418.64062Q578.34375 418.95312 578.2344 419.375Q578.125 419.79688 578.125 420.26562ZM585.5 414.5L585.5 423.5L584.4219 423.5L584.4219 414.5L585.5 414.5Z" fill-rule="nonzero"/><path stroke="#cccccc" stroke-width="1.0" stroke-linecap="butt" d="M372.0 305.0L372.0 507.0" fill-rule="nonzero"/><path fill="#000000" d="M342.59375 534.5625L342.59375 534.4375Q342.59375 533.6875 342.75 533.0781Q342.92188 532.4531 343.23438 532.0Q343.54688 531.5469 344.0 531.2969Q344.46875 531.0469 345.0625 531.0469Q345.51562 531.0469 345.875 531.1875Q346.25 531.3125 346.53125 531.5781Q346.8125 531.8281 347.01562 532.2031Q347.21875 532.5781 347.34375 533.0625Q347.46875 533.53125 347.51562 534.09375L347.51562 534.5781Q347.45312 535.28125 347.26562 535.84375Q347.09375 536.40625 346.79688 536.8125Q346.5 537.2031 346.0625 537.4219Q345.64062 537.625 345.04688 537.625Q344.46875 537.625 344.0 537.40625Q343.54688 537.1719 343.23438 536.7656Q342.92188 536.34375 342.75 535.7969Q342.59375 535.2344 342.59375 534.5625ZM343.67188 534.4375L343.67188 534.5625Q343.67188 535.0156 343.76562 535.40625Q343.85938 535.7969 344.04688 536.09375Q344.25 536.3906 344.5625 536.5625Q344.89062 536.7344 345.32812 536.7344Q345.75 536.7344 346.04688 536.5625Q346.35938 536.375 346.5625 536.0781Q346.78125 535.78125 346.90625 535.3906Q347.04688 535.0 347.14062 534.59375L347.14062 534.2031Q347.07812 533.7656 346.9375 533.375Q346.8125 532.96875 346.59375 532.6406Q346.39062 532.3125 346.07812 532.125Q345.76562 531.9375 345.32812 531.9375Q344.89062 531.9375 344.57812 532.1406Q344.26562 532.3281 344.0625 532.6719Q343.85938 533.0156 343.76562 533.4844Q343.67188 533.9375 343.67188 534.4375ZM346.98438 531.15625L347.90625 531.15625L347.90625 535.7656Q347.90625 536.0469 347.9375 536.21875Q347.96875 536.375 348.03125 536.4844Q348.10938 536.5781 348.1875 536.625Q348.28125 536.65625 348.375 536.65625Q348.42188 536.65625 348.46875 536.6406Q348.53125 536.625 348.5625 536.6094L348.70312 537.4219Q348.51562 537.5469 348.34375 537.5781Q348.17188 537.625 347.98438 537.625Q347.70312 537.625 347.48438 537.5156Q347.28125 537.4219 347.125 537.2031Q346.96875 536.9844 346.89062 536.625Q346.8125 536.2656 346.8125 535.7656L346.8125 532.53125L346.98438 531.15625ZM352.07812 533.4219L352.07812 534.3125L349.21875 534.3125L349.21875 533.4219L352.07812 533.4219ZM356.03125 533.5156L353.875 533.5156L353.85938 532.59375L355.82812 532.59375Q356.3125 532.59375 356.67188 532.4375Q357.03125 532.2656 357.23438 531.96875Q357.4375 531.65625 357.4375 531.2344Q357.4375 530.7656 357.25 530.46875Q357.07812 530.1719 356.70312 530.03125Q356.34375 529.8906 355.78125 529.8906L354.125 529.8906L354.125 537.5L352.98438 537.5L352.98438 528.96875L355.78125 528.96875Q356.4375 528.96875 356.95312 529.1094Q357.46875 529.2344 357.82812 529.5156Q358.1875 529.78125 358.375 530.21875Q358.5625 530.6406 358.5625 531.2344Q358.5625 531.7656 358.29688 532.2031Q358.03125 532.625 357.54688 532.8906Q357.07812 533.15625 356.4375 533.2344L356.03125 533.5156ZM355.98438 537.5L353.42188 537.5L354.0625 536.5781L355.98438 536.5781Q356.51562 536.5781 356.89062 536.3906Q357.28125 536.2031 357.46875 535.8594Q357.67188 535.5156 357.67188 535.0469Q357.67188 534.5781 357.5 534.2344Q357.32812 533.8906 356.96875 533.7031Q356.60938 533.5156 356.03125 533.5156L354.42188 533.5156L354.4375 532.59375L356.64062 532.59375L356.875 532.9219Q357.48438 532.9844 357.90625 533.28125Q358.34375 533.5781 358.5625 534.03125Q358.79688 534.4844 358.79688 535.03125Q358.79688 535.8281 358.4375 536.3906Q358.09375 536.9375 357.45312 537.21875Q356.82812 537.5 355.98438 537.5ZM361.0 531.15625L361.0 537.5L359.92188 537.5L359.92188 531.15625L361.0 531.15625ZM359.82812 529.4844Q359.82812 529.21875 359.98438 529.03125Q360.15625 528.84375 360.46875 528.84375Q360.78125 528.84375 360.9375 529.03125Q361.10938 529.21875 361.10938 529.4844Q361.10938 529.7344 360.9375 529.9219Q360.78125 530.09375 360.46875 530.09375Q360.15625 530.09375 359.98438 529.9219Q359.82812 529.7344 359.82812 529.4844ZM366.51562 535.8125Q366.51562 535.5781 366.40625 535.375Q366.3125 535.1719 366.0 535.0156Q365.6875 534.84375 365.0625 534.71875Q364.53125 534.6094 364.10938 534.46875Q363.6875 534.3125 363.39062 534.09375Q363.09375 533.875 362.9375 533.5781Q362.78125 533.28125 362.78125 532.8906Q362.78125 532.5156 362.9375 532.1875Q363.10938 531.84375 363.40625 531.59375Q363.71875 531.3281 364.15625 531.1875Q364.59375 531.0469 365.125 531.0469Q365.89062 531.0469 366.42188 531.3125Q366.96875 531.5781 367.25 532.03125Q367.53125 532.4844 367.53125 533.0156L366.45312 533.0156Q366.45312 532.7656 366.29688 532.5156Q366.14062 532.2656 365.84375 532.1094Q365.54688 531.9375 365.125 531.9375Q364.67188 531.9375 364.39062 532.0781Q364.10938 532.2031 363.98438 532.4219Q363.85938 532.625 363.85938 532.8594Q363.85938 533.0469 363.92188 533.1875Q363.98438 533.3125 364.14062 533.4375Q364.29688 533.5469 364.57812 533.65625Q364.875 533.75 365.32812 533.84375Q366.10938 534.0156 366.60938 534.2656Q367.10938 534.5156 367.35938 534.875Q367.60938 535.21875 367.60938 535.7344Q367.60938 536.15625 367.42188 536.5Q367.25 536.84375 366.92188 537.09375Q366.60938 537.34375 366.15625 537.4844Q365.70312 537.625 365.15625 537.625Q364.3125 537.625 363.73438 537.3281Q363.15625 537.0156 362.85938 536.5469Q362.5625 536.0625 362.5625 535.5469L363.64062 535.5469Q363.67188 535.9844 363.90625 536.25Q364.14062 536.5156 364.46875 536.625Q364.8125 536.71875 365.15625 536.71875Q365.59375 536.71875 365.89062 536.6094Q366.20312 536.4844 366.35938 536.28125Q366.51562 536.0781 366.51562 535.8125ZM372.5625 536.4219L372.5625 533.15625Q372.5625 532.78125 372.40625 532.5Q372.26562 532.21875 371.96875 532.0781Q371.67188 531.9219 371.23438 531.9219Q370.8125 531.9219 370.5 532.0625Q370.20312 532.2031 370.03125 532.4375Q369.85938 532.65625 369.85938 532.9219L368.78125 532.9219Q368.78125 532.5781 368.95312 532.25Q369.125 531.90625 369.45312 531.6406Q369.78125 531.3594 370.25 531.2031Q370.71875 531.0469 371.29688 531.0469Q371.98438 531.0469 372.51562 531.28125Q373.04688 531.5156 373.34375 531.9844Q373.65625 532.4531 373.65625 533.15625L373.65625 536.1094Q373.65625 536.4375 373.70312 536.7969Q373.76562 537.1406 373.875 537.40625L373.875 537.5L372.73438 537.5Q372.65625 537.3125 372.60938 537.0Q372.5625 536.6875 372.5625 536.4219ZM372.75 533.65625L372.76562 534.4219L371.67188 534.4219Q371.20312 534.4219 370.84375 534.5Q370.48438 534.5625 370.23438 534.71875Q369.98438 534.8594 369.85938 535.0781Q369.73438 535.2969 369.73438 535.59375Q369.73438 535.8906 369.85938 536.1406Q370.0 536.375 370.26562 536.53125Q370.54688 536.6719 370.9375 536.6719Q371.4375 536.6719 371.8125 536.46875Q372.20312 536.25 372.42188 535.9531Q372.65625 535.6406 372.67188 535.34375L373.14062 535.875Q373.09375 536.1094 372.90625 536.4219Q372.73438 536.71875 372.42188 537.0Q372.125 537.2656 371.70312 537.4531Q371.29688 537.625 370.78125 537.625Q370.14062 537.625 369.65625 537.375Q369.17188 537.1094 368.90625 536.6875Q368.64062 536.2656 368.64062 535.7344Q368.64062 535.21875 368.82812 534.84375Q369.03125 534.4531 369.40625 534.1875Q369.78125 533.9219 370.3125 533.7969Q370.84375 533.65625 371.5 533.65625L372.75 533.65625ZM375.82812 528.5L376.90625 528.5L376.90625 536.2656L376.8125 537.5L375.82812 537.5L375.82812 528.5ZM381.1875 534.28125L381.1875 534.40625Q381.1875 535.09375 381.01562 535.6875Q380.85938 536.2656 380.54688 536.7031Q380.23438 537.1406 379.76562 537.3906Q379.3125 537.625 378.73438 537.625Q378.125 537.625 377.67188 537.4219Q377.21875 537.2031 376.90625 536.8125Q376.59375 536.4219 376.40625 535.8594Q376.21875 535.2969 376.15625 534.6094L376.15625 534.0625Q376.21875 533.3594 376.40625 532.8125Q376.59375 532.25 376.90625 531.8594Q377.21875 531.4531 377.67188 531.25Q378.125 531.0469 378.71875 531.0469Q379.3125 531.0469 379.76562 531.28125Q380.23438 531.5 380.54688 531.9375Q380.85938 532.3594 381.01562 532.9531Q381.1875 533.5469 381.1875 534.28125ZM380.10938 534.40625L380.10938 534.28125Q380.10938 533.7969 380.01562 533.3906Q379.92188 532.96875 379.73438 532.65625Q379.54688 532.3281 379.21875 532.1406Q378.90625 531.9531 378.45312 531.9531Q378.03125 531.9531 377.73438 532.09375Q377.4375 532.2344 377.21875 532.4844Q377.01562 532.71875 376.875 533.0156Q376.75 533.3125 376.6875 533.6406L376.6875 535.0469Q376.78125 535.4531 376.98438 535.84375Q377.20312 536.21875 377.5625 536.46875Q377.92188 536.7031 378.45312 536.7031Q378.89062 536.7031 379.20312 536.53125Q379.53125 536.34375 379.71875 536.03125Q379.92188 535.7031 380.01562 535.2969Q380.10938 534.875 380.10938 534.40625ZM382.54688 534.40625L382.54688 534.2656Q382.54688 533.5781 382.73438 533.0Q382.9375 532.40625 383.3125 531.96875Q383.6875 531.53125 384.21875 531.2969Q384.75 531.0469 385.42188 531.0469Q386.07812 531.0469 386.60938 531.2969Q387.15625 531.53125 387.53125 531.96875Q387.90625 532.40625 388.10938 533.0Q388.3125 533.5781 388.3125 534.2656L388.3125 534.40625Q388.3125 535.0781 388.10938 535.6719Q387.90625 536.25 387.53125 536.6875Q387.15625 537.125 386.625 537.375Q386.09375 537.625 385.42188 537.625Q384.76562 537.625 384.21875 537.375Q383.6875 537.125 383.3125 536.6875Q382.9375 536.25 382.73438 535.6719Q382.54688 535.0781 382.54688 534.40625ZM383.625 534.2656L383.625 534.40625Q383.625 534.875 383.73438 535.2969Q383.84375 535.71875 384.0625 536.0469Q384.29688 536.3594 384.64062 536.5469Q384.98438 536.71875 385.42188 536.71875Q385.875 536.71875 386.20312 536.5469Q386.54688 536.3594 386.76562 536.0469Q387.0 535.71875 387.10938 535.2969Q387.21875 534.875 387.21875 534.40625L387.21875 534.2656Q387.21875 533.7969 387.10938 533.375Q387.0 532.9531 386.76562 532.6406Q386.54688 532.3125 386.20312 532.125Q385.875 531.9375 385.42188 531.9375Q384.96875 531.9375 384.625 532.125Q384.29688 532.3125 384.0625 532.6406Q383.84375 532.9531 383.73438 533.375Q383.625 533.7969 383.625 534.2656ZM391.0 528.5L391.0 537.5L389.92188 537.5L389.92188 528.5L391.0 528.5ZM392.54688 534.40625L392.54688 534.2656Q392.54688 533.5781 392.73438 533.0Q392.9375 532.40625 393.3125 531.96875Q393.6875 531.53125 394.21875 531.2969Q394.75 531.0469 395.42188 531.0469Q396.07812 531.0469 396.60938 531.2969Q397.15625 531.53125 397.53125 531.96875Q397.90625 532.40625 398.10938 533.0Q398.3125 533.5781 398.3125 534.2656L398.3125 534.40625Q398.3125 535.0781 398.10938 535.6719Q397.90625 536.25 397.53125 536.6875Q397.15625 537.125 396.625 537.375Q396.09375 537.625 395.42188 537.625Q394.76562 537.625 394.21875 537.375Q393.6875 537.125 393.3125 536.6875Q392.9375 536.25 392.73438 535.6719Q392.54688 535.0781 392.54688 534.40625ZM393.625 534.2656L393.625 534.40625Q393.625 534.875 393.73438 535.2969Q393.84375 535.71875 394.0625 536.0469Q394.29688 536.3594 394.64062 536.5469Q394.98438 536.71875 395.42188 536.71875Q395.875 536.71875 396.20312 536.5469Q396.54688 536.3594 396.76562 536.0469Q397.0 535.71875 397.10938 535.2969Q397.21875 534.875 397.21875 534.40625L397.21875 534.2656Q397.21875 533.7969 397.10938 533.375Q397.0 532.9531 396.76562 532.6406Q396.54688 532.3125 396.20312 532.125Q395.875 531.9375 395.42188 531.9375Q394.96875 531.9375 394.625 532.125Q394.29688 532.3125 394.0625 532.6406Q393.84375 532.9531 393.73438 533.375Q393.625 533.7969 393.625 534.2656ZM401.0 528.5L401.0 537.5L399.92188 537.5L399.92188 528.5L401.0 528.5Z" fill-rule="nonzero"/><path stroke="#cccccc" stroke-width="1.0" stroke-linecap="butt" d="M372.0 305.0L197.0 406.0" fill-rule="nonzero"/><path fill="#000000" d="M159.67188 422.57812L159.67188 423.5L155.40625 423.5L155.40625 422.57812L159.67188 422.57812ZM155.625 414.96875L155.625 423.5L154.48438 423.5L154.48438 414.96875L155.625 414.96875ZM161.5 417.15625L161.5 423.5L160.42188 423.5L160.42188 417.15625L161.5 417.15625ZM160.32812 415.48438Q160.32812 415.21875 160.48438 415.03125Q160.65625 414.84375 160.96875 414.84375Q161.28125 414.84375 161.4375 415.03125Q161.60938 415.21875 161.60938 415.48438Q161.60938 415.73438 161.4375 415.92188Q161.28125 416.09375 160.96875 416.09375Q160.65625 416.09375 160.48438 415.92188Q160.32812 415.73438 160.32812 415.48438ZM164.40625 418.51562L164.40625 423.5L163.32812 423.5L163.32812 417.15625L164.35938 417.15625L164.40625 418.51562ZM164.15625 420.09375L163.70312 420.07812Q163.70312 419.42188 163.89062 418.875Q164.07812 418.3125 164.42188 417.90625Q164.76562 417.5 165.23438 417.28125Q165.70312 417.04688 166.28125 417.04688Q166.75 417.04688 167.125 417.17188Q167.5 417.29688 167.76562 417.57812Q168.03125 417.84375 168.17188 418.28125Q168.3125 418.71875 168.3125 419.34375L168.3125 423.5L167.21875 423.5L167.21875 419.32812Q167.21875 418.82812 167.07812 418.53125Q166.9375 418.23438 166.65625 418.09375Q166.375 417.95312 165.95312 417.95312Q165.54688 417.95312 165.21875 418.125Q164.89062 418.29688 164.65625 418.59375Q164.42188 418.89062 164.28125 419.28125Q164.15625 419.65625 164.15625 420.09375ZM174.0625 422.42188L174.0625 419.15625Q174.0625 418.78125 173.90625 418.5Q173.76562 418.21875 173.46875 418.07812Q173.17188 417.92188 172.73438 417.92188Q172.3125 417.92188 172.0 418.0625Q171.70312 418.20312 171.53125 418.4375Q171.35938 418.65625 171.35938 418.92188L170.28125 418.92188Q170.28125 418.57812 170.45312 418.25Q170.625 417.90625 170.95312 417.64062Q171.28125 417.35938 171.75 417.20312Q172.21875 417.04688 172.79688 417.04688Q173.48438 417.04688 174.01562 417.28125Q174.54688 417.51562 174.84375 417.98438Q175.15625 418.45312 175.15625 419.15625L175.15625 422.10938Q175.15625 422.4375 175.20312 422.79688Q175.26562 423.14062 175.375 423.40625L175.375 423.5L174.23438 423.5Q174.15625 423.3125 174.10938 423.0Q174.0625 422.6875 174.0625 422.42188ZM174.25 419.65625L174.26562 420.42188L173.17188 420.42188Q172.70312 420.42188 172.34375 420.5Q171.98438 420.5625 171.73438 420.71875Q171.48438 420.85938 171.35938 421.07812Q171.23438 421.29688 171.23438 421.59375Q171.23438 421.89062 171.35938 422.14062Q171.5 422.375 171.76562 422.53125Q172.04688 422.67188 172.4375 422.67188Q172.9375 422.67188 173.3125 422.46875Q173.70312 422.25 173.92188 421.95312Q174.15625 421.64062 174.17188 421.34375L174.64062 421.875Q174.59375 422.10938 174.40625 422.42188Q174.23438 422.71875 173.92188 423.0Q173.625 423.26562 173.20312 423.45312Q172.79688 423.625 172.28125 423.625Q171.64062 423.625 171.15625 423.375Q170.67188 423.10938 170.40625 422.6875Q170.14062 422.26562 170.14062 421.73438Q170.14062 421.21875 170.32812 420.84375Q170.53125 420.45312 170.90625 420.1875Q171.28125 419.92188 171.8125 419.79688Q172.34375 419.65625 173.0 419.65625L174.25 419.65625ZM178.5 414.5L178.5 423.5L177.42188 423.5L177.42188 414.5L178.5 414.5ZM180.04688 420.40625L180.04688 420.26562Q180.04688 419.57812 180.23438 419.0Q180.4375 418.40625 180.8125 417.96875Q181.1875 417.53125 181.71875 417.29688Q182.25 417.04688 182.92188 417.04688Q183.57812 417.04688 184.10938 417.29688Q184.65625 417.53125 185.03125 417.96875Q185.40625 418.40625 185.60938 419.0Q185.8125 419.57812 185.8125 420.26562L185.8125 420.40625Q185.8125 421.07812 185.60938 421.67188Q185.40625 422.25 185.03125 422.6875Q184.65625 423.125 184.125 423.375Q183.59375 423.625 182.92188 423.625Q182.26562 423.625 181.71875 423.375Q181.1875 423.125 180.8125 422.6875Q180.4375 422.25 180.23438 421.67188Q180.04688 421.07812 180.04688 420.40625ZM181.125 420.26562L181.125 420.40625Q181.125 420.875 181.23438 421.29688Q181.34375 421.71875 181.5625 422.04688Q181.79688 422.35938 182.14062 422.54688Q182.48438 422.71875 182.92188 422.71875Q183.375 422.71875 183.70312 422.54688Q184.04688 422.35938 184.26562 422.04688Q184.5 421.71875 184.60938 421.29688Q184.71875 420.875 184.71875 420.40625L184.71875 420.26562Q184.71875 419.79688 184.60938 419.375Q184.5 418.95312 184.26562 418.64062Q184.04688 418.3125 183.70312 418.125Q183.375 417.9375 182.92188 417.9375Q182.46875 417.9375 182.125 418.125Q181.79688 418.3125 181.5625 418.64062Q181.34375 418.95312 181.23438 419.375Q181.125 419.79688 181.125 420.26562ZM187.04688 420.40625L187.04688 420.26562Q187.04688 419.57812 187.23438 419.0Q187.4375 418.40625 187.8125 417.96875Q188.1875 417.53125 188.71875 417.29688Q189.25 417.04688 189.92188 417.04688Q190.57812 417.04688 191.10938 417.29688Q191.65625 417.53125 192.03125 417.96875Q192.40625 418.40625 192.60938 419.0Q192.8125 419.57812 192.8125 420.26562L192.8125 420.40625Q192.8125 421.07812 192.60938 421.67188Q192.40625 422.25 192.03125 422.6875Q191.65625 423.125 191.125 423.375Q190.59375 423.625 189.92188 423.625Q189.26562 423.625 188.71875 423.375Q188.1875 423.125 187.8125 422.6875Q187.4375 422.25 187.23438 421.67188Q187.04688 421.07812 187.04688 420.40625ZM188.125 420.26562L188.125 420.40625Q188.125 420.875 188.23438 421.29688Q188.34375 421.71875 188.5625 422.04688Q188.79688 422.35938 189.14062 422.54688Q189.48438 422.71875 189.92188 422.71875Q190.375 422.71875 190.70312 422.54688Q191.04688 422.35938 191.26562 422.04688Q191.5 421.71875 191.60938 421.29688Q191.71875 420.875 191.71875 420.40625L191.71875 420.26562Q191.71875 419.79688 191.60938 419.375Q191.5 418.95312 191.26562 418.64062Q191.04688 418.3125 190.70312 418.125Q190.375 417.9375 189.92188 417.9375Q189.46875 417.9375 189.125 418.125Q188.79688 418.3125 188.5625 418.64062Q188.34375 418.95312 188.23438 419.375Q188.125 419.79688 188.125 420.26562ZM195.5 414.5L195.5 423.5L194.42188 423.5L194.42188 414.5L195.5 414.5Z" fill-rule="nonzero"/><path stroke="#cccccc" stroke-width="1.0" stroke-linecap="butt" d="M372.0 305.0L197.0 204.0" fill-rule="nonzero"/><path fill="#000000" d="M157.03125 193.34375Q157.03125 193.04688 156.9375 192.8125Q156.85938 192.57812 156.625 192.39062Q156.40625 192.20312 156.0 192.03125Q155.60938 191.85938 155.01562 191.6875Q154.375 191.5 153.85938 191.28125Q153.35938 191.04688 152.98438 190.75Q152.625 190.4375 152.4375 190.0625Q152.25 189.67188 152.25 189.17188Q152.25 188.67188 152.45312 188.25Q152.65625 187.82812 153.03125 187.51562Q153.42188 187.20312 153.95312 187.03125Q154.48438 186.84375 155.14062 186.84375Q156.10938 186.84375 156.78125 187.21875Q157.45312 187.57812 157.79688 188.17188Q158.15625 188.76562 158.15625 189.42188L157.03125 189.42188Q157.03125 188.95312 156.8125 188.57812Q156.60938 188.20312 156.1875 188.0Q155.78125 187.78125 155.14062 187.78125Q154.54688 187.78125 154.14062 187.96875Q153.75 188.14062 153.5625 188.45312Q153.375 188.76562 153.375 189.15625Q153.375 189.42188 153.48438 189.65625Q153.60938 189.875 153.84375 190.0625Q154.09375 190.25 154.46875 190.40625Q154.84375 190.5625 155.375 190.70312Q156.09375 190.90625 156.625 191.17188Q157.15625 191.42188 157.5 191.73438Q157.84375 192.04688 158.0 192.4375Q158.17188 192.82812 158.17188 193.32812Q158.17188 193.85938 157.95312 194.28125Q157.75 194.70312 157.35938 195.0Q156.96875 195.29688 156.42188 195.46875Q155.875 195.625 155.20312 195.625Q154.60938 195.625 154.03125 195.45312Q153.46875 195.28125 153.0 194.95312Q152.53125 194.625 152.25 194.15625Q151.96875 193.67188 151.96875 193.03125L153.09375 193.03125Q153.09375 193.46875 153.26562 193.78125Q153.4375 194.09375 153.73438 194.29688Q154.03125 194.5 154.40625 194.60938Q154.78125 194.70312 155.20312 194.70312Q155.79688 194.70312 156.20312 194.54688Q156.60938 194.375 156.8125 194.07812Q157.03125 193.76562 157.03125 193.34375ZM159.04688 192.40625L159.04688 192.26562Q159.04688 191.57812 159.23438 191.0Q159.4375 190.40625 159.8125 189.96875Q160.1875 189.53125 160.71875 189.29688Q161.25 189.04688 161.92188 189.04688Q162.57812 189.04688 163.10938 189.29688Q163.65625 189.53125 164.03125 189.96875Q164.40625 190.40625 164.60938 191.0Q164.8125 191.57812 164.8125 192.26562L164.8125 192.40625Q164.8125 193.07812 164.60938 193.67188Q164.40625 194.25 164.03125 194.6875Q163.65625 195.125 163.125 195.375Q162.59375 195.625 161.92188 195.625Q161.26562 195.625 160.71875 195.375Q160.1875 195.125 159.8125 194.6875Q159.4375 194.25 159.23438 193.67188Q159.04688 193.07812 159.04688 192.40625ZM160.125 192.26562L160.125 192.40625Q160.125 192.875 160.23438 193.29688Q160.34375 193.71875 160.5625 194.04688Q160.79688 194.35938 161.14062 194.54688Q161.48438 194.71875 161.92188 194.71875Q162.375 194.71875 162.70312 194.54688Q163.04688 194.35938 163.26562 194.04688Q163.5 193.71875 163.60938 193.29688Q163.71875 192.875 163.71875 192.40625L163.71875 192.26562Q163.71875 191.79688 163.60938 191.375Q163.5 190.95312 163.26562 190.64062Q163.04688 190.3125 162.70312 190.125Q162.375 189.9375 161.92188 189.9375Q161.46875 189.9375 161.125 190.125Q160.79688 190.3125 160.5625 190.64062Q160.34375 190.95312 160.23438 191.375Q160.125 191.79688 160.125 192.26562ZM167.40625 190.51562L167.40625 195.5L166.32812 195.5L166.32812 189.15625L167.35938 189.15625L167.40625 190.51562ZM167.15625 192.09375L166.70312 192.07812Q166.70312 191.42188 166.89062 190.875Q167.07812 190.3125 167.42188 189.90625Q167.76562 189.5 168.23438 189.28125Q168.70312 189.04688 169.28125 189.04688Q169.75 189.04688 170.125 189.17188Q170.5 189.29688 170.76562 189.57812Q171.03125 189.84375 171.17188 190.28125Q171.3125 190.71875 171.3125 191.34375L171.3125 195.5L170.21875 195.5L170.21875 191.32812Q170.21875 190.82812 170.07812 190.53125Q169.9375 190.23438 169.65625 190.09375Q169.375 189.95312 168.95312 189.95312Q168.54688 189.95312 168.21875 190.125Q167.89062 190.29688 167.65625 190.59375Q167.42188 190.89062 167.28125 191.28125Q167.15625 191.65625 167.15625 192.09375ZM177.01562 193.8125Q177.01562 193.57812 176.90625 193.375Q176.8125 193.17188 176.5 193.01562Q176.1875 192.84375 175.5625 192.71875Q175.03125 192.60938 174.60938 192.46875Q174.1875 192.3125 173.89062 192.09375Q173.59375 191.875 173.4375 191.57812Q173.28125 191.28125 173.28125 190.89062Q173.28125 190.51562 173.4375 190.1875Q173.60938 189.84375 173.90625 189.59375Q174.21875 189.32812 174.65625 189.1875Q175.09375 189.04688 175.625 189.04688Q176.39062 189.04688 176.92188 189.3125Q177.46875 189.57812 177.75 190.03125Q178.03125 190.48438 178.03125 191.01562L176.95312 191.01562Q176.95312 190.76562 176.79688 190.51562Q176.64062 190.26562 176.34375 190.10938Q176.04688 189.9375 175.625 189.9375Q175.17188 189.9375 174.89062 190.07812Q174.60938 190.20312 174.48438 190.42188Q174.35938 190.625 174.35938 190.85938Q174.35938 191.04688 174.42188 191.1875Q174.48438 191.3125 174.64062 191.4375Q174.79688 191.54688 175.07812 191.65625Q175.375 191.75 175.82812 191.84375Q176.60938 192.01562 177.10938 192.26562Q177.60938 192.51562 177.85938 192.875Q178.10938 193.21875 178.10938 193.73438Q178.10938 194.15625 177.92188 194.5Q177.75 194.84375 177.42188 195.09375Q177.10938 195.34375 176.65625 195.48438Q176.20312 195.625 175.65625 195.625Q174.8125 195.625 174.23438 195.32812Q173.65625 195.01562 173.35938 194.54688Q173.0625 194.0625 173.0625 193.54688L174.14062 193.54688Q174.17188 193.98438 174.40625 194.25Q174.64062 194.51562 174.96875 194.625Q175.3125 194.71875 175.65625 194.71875Q176.09375 194.71875 176.39062 194.60938Q176.70312 194.48438 176.85938 194.28125Q177.01562 194.07812 177.01562 193.8125ZM181.98438 189.15625L181.98438 189.98438L178.54688 189.98438L178.54688 189.15625L181.98438 189.15625ZM179.71875 187.625L180.79688 187.625L180.79688 193.92188Q180.79688 194.25 180.89062 194.42188Q181.0 194.57812 181.15625 194.64062Q181.3125 194.6875 181.5 194.6875Q181.625 194.6875 181.76562 194.65625Q181.92188 194.625 182.0 194.60938L182.01562 195.5Q181.875 195.54688 181.67188 195.57812Q181.46875 195.625 181.17188 195.625Q180.78125 195.625 180.4375 195.46875Q180.10938 195.29688 179.90625 194.9375Q179.71875 194.5625 179.71875 193.92188L179.71875 187.625ZM184.5 189.15625L184.5 195.5L183.42188 195.5L183.42188 189.15625L184.5 189.15625ZM183.32812 187.48438Q183.32812 187.21875 183.48438 187.03125Q183.65625 186.84375 183.96875 186.84375Q184.28125 186.84375 184.4375 187.03125Q184.60938 187.21875 184.60938 187.48438Q184.60938 187.73438 184.4375 187.92188Q184.28125 188.09375 183.96875 188.09375Q183.65625 188.09375 183.48438 187.92188Q183.32812 187.73438 183.32812 187.48438ZM190.4375 189.15625L191.42188 189.15625L191.42188 195.35938Q191.42188 196.20312 191.07812 196.79688Q190.73438 197.39062 190.125 197.6875Q189.53125 198.0 188.73438 198.0Q188.40625 198.0 187.95312 197.89062Q187.51562 197.79688 187.09375 197.54688Q186.67188 197.3125 186.39062 196.90625L186.95312 196.25Q187.35938 196.73438 187.78125 196.92188Q188.21875 197.10938 188.65625 197.10938Q189.17188 197.10938 189.54688 196.90625Q189.92188 196.71875 190.125 196.34375Q190.32812 195.96875 190.32812 195.42188L190.32812 190.54688L190.4375 189.15625ZM186.0625 192.40625L186.0625 192.28125Q186.0625 191.54688 186.23438 190.95312Q186.42188 190.35938 186.73438 189.9375Q187.0625 189.5 187.51562 189.28125Q187.98438 189.04688 188.57812 189.04688Q189.17188 189.04688 189.60938 189.25Q190.0625 189.45312 190.375 189.85938Q190.6875 190.25 190.875 190.8125Q191.0625 191.35938 191.125 192.0625L191.125 192.60938Q191.0625 193.29688 190.875 193.85938Q190.6875 194.42188 190.375 194.8125Q190.0625 195.20312 189.60938 195.42188Q189.15625 195.625 188.5625 195.625Q187.98438 195.625 187.53125 195.39062Q187.07812 195.14062 186.75 194.70312Q186.42188 194.26562 186.23438 193.6875Q186.0625 193.09375 186.0625 192.40625ZM187.15625 192.28125L187.15625 192.40625Q187.15625 192.875 187.25 193.29688Q187.34375 193.70312 187.54688 194.03125Q187.75 194.34375 188.0625 194.53125Q188.39062 194.70312 188.82812 194.70312Q189.35938 194.70312 189.70312 194.46875Q190.0625 194.23438 190.26562 193.85938Q190.48438 193.48438 190.59375 193.04688L190.59375 191.64062Q190.53125 191.3125 190.39062 191.01562Q190.26562 190.71875 190.0625 190.48438Q189.85938 190.23438 189.54688 190.09375Q189.25 189.95312 188.82812 189.95312Q188.39062 189.95312 188.0625 190.14062Q187.75 190.32812 187.54688 190.65625Q187.34375 190.96875 187.25 191.39062Q187.15625 191.79688 187.15625 192.28125ZM195.95312 195.625Q195.29688 195.625 194.75 195.40625Q194.21875 195.17188 193.82812 194.76562Q193.45312 194.34375 193.25 193.78125Q193.04688 193.21875 193.04688 192.54688L193.04688 192.3125Q193.04688 191.53125 193.26562 190.92188Q193.5 190.3125 193.89062 189.89062Q194.28125 189.46875 194.78125 189.26562Q195.28125 189.04688 195.8125 189.04688Q196.5 189.04688 196.98438 189.28125Q197.48438 189.51562 197.79688 189.9375Q198.125 190.34375 198.26562 190.92188Q198.42188 191.48438 198.42188 192.14062L198.42188 192.64062L193.6875 192.64062L193.6875 191.75L197.34375 191.75L197.34375 191.67188Q197.3125 191.25 197.15625 190.85938Q197.01562 190.45312 196.6875 190.20312Q196.375 189.9375 195.8125 189.9375Q195.45312 189.9375 195.14062 190.09375Q194.82812 190.25 194.59375 190.5625Q194.375 190.85938 194.25 191.29688Q194.14062 191.73438 194.14062 192.3125L194.14062 192.54688Q194.14062 193.0 194.26562 193.40625Q194.39062 193.79688 194.625 194.09375Q194.875 194.39062 195.21875 194.5625Q195.57812 194.73438 196.01562 194.73438Q196.59375 194.73438 196.98438 194.5Q197.39062 194.26562 197.6875 193.875L198.34375 194.39062Q198.14062 194.70312 197.8125 194.98438Q197.5 195.26562 197.03125 195.45312Q196.57812 195.625 195.95312 195.625Z" fill-rule="nonzero"/><path stroke="#cccccc" stroke-width="1.0" stroke-linecap="butt" d="M372.0 305.0L372.0 103.0" fill-rule="nonzero"/><path stroke="#ff0000" stroke-width="2.0" stroke-linecap="butt" stroke-opacity="0.7019608" stroke-dasharray="8.0,6.0,2.0,6.0" d="M372.0 174.0L411.0 282.0L389.0 315.0L372.0 320.0L363.0 310.0L346.0 290.0Z" fill-rule="nonzero"/><path fill="#ff0000" fill-opacity="0.7019608" d="M368.81802 170.81802L372.0 172.875L375.18198 170.81802L373.125 174.0L375.18198 177.18198L372.0 175.125L368.81802 177.18198L370.875 174.0Z" fill-rule="nonzero"/><path fill="#ff0000" fill-opacity="0.7019608" d="M407.81802 278.81802L411.0 280.875L414.18198 278.81802L412.125 282.0L414.18198 285.18198L411.0 283.125L407.81802 285.18198L409.875 282.0Z" fill-rule="nonzero"/><path fill="#ff0000" fill-opacity="0.7019608" d="M385.81802 311.81802L389.0 313.875L392.18198 311.81802L390.125 315.0L392.18198 318.18198L389.0 316.125L385.81802 318.18198L387.875 315.0Z" fill-rule="nonzero"/><path fill="#ff0000" fill-opacity="0.7019608" d="M368.81802 316.81802L372.0 318.875L375.18198 316.81802L373.125 320.0L375.18198 323.18198L372.0 321.125L368.81802 323.18198L370.875 320.0Z" fill-rule="nonzero"/><path fill="#ff0000" fill-opacity="0.7019608" d="M359.81802 306.81802L363.0 308.875L366.18198 306.81802L364.125 310.0L366.18198 313.18198L363.0 311.125L359.81802 313.18198L361.875 310.0Z" fill-rule="nonzero"/><path fill="#ff0000" fill-opacity="0.7019608" d="M342.81802 286.81802L346.0 288.875L349.18198 286.81802L347.125 290.0L349.18198 293.18198L346.0 291.125L342.81802 293.18198L344.875 290.0Z" fill-rule="nonzero"/><path fill="#757575" d="M29.81875 47.35L29.81875 33.0375L31.709375 33.0375L31.709375 45.6625L38.75625 45.6625L38.75625 47.35L29.81875 47.35ZM47.44375 46.06875Q46.459373 46.896873 45.553123 47.240623Q44.646873 47.584373 43.615623 47.584373Q41.9125 47.584373 40.990623 46.75625Q40.06875 45.9125 40.06875 44.615623Q40.06875 43.85 40.4125 43.225Q40.771873 42.6 41.334373 42.225Q41.896873 41.834373 42.6 41.63125Q43.115623 41.50625 44.1625 41.365623Q46.2875 41.115623 47.2875 40.771873Q47.303123 40.4125 47.303123 40.303123Q47.303123 39.240623 46.803123 38.7875Q46.13125 38.19375 44.803123 38.19375Q43.553123 38.19375 42.959373 38.63125Q42.38125 39.06875 42.1 40.178123L40.38125 39.94375Q40.615623 38.834373 41.146873 38.1625Q41.678123 37.475 42.69375 37.115623Q43.709373 36.740623 45.053123 36.740623Q46.38125 36.740623 47.209373 37.053123Q48.0375 37.365623 48.428123 37.85Q48.81875 38.31875 48.975 39.0375Q49.06875 39.490623 49.06875 40.6625L49.06875 43.00625Q49.06875 45.459373 49.178123 46.115623Q49.2875 46.75625 49.63125 47.35L47.7875 47.35Q47.521873 46.803123 47.44375 46.06875ZM47.2875 42.146873Q46.334373 42.5375 44.4125 42.803123Q43.334373 42.959373 42.88125 43.1625Q42.44375 43.35 42.19375 43.725Q41.94375 44.1 41.94375 44.56875Q41.94375 45.271873 42.475 45.740623Q43.00625 46.209373 44.0375 46.209373Q45.053123 46.209373 45.834373 45.771873Q46.63125 45.31875 47.00625 44.553123Q47.2875 43.94375 47.2875 42.7875L47.2875 42.146873ZM54.553123 47.35L50.6 36.975L52.459373 36.975L54.69375 43.19375Q55.053123 44.19375 55.35 45.271873Q55.584373 44.459373 56.00625 43.303123L58.303123 36.975L60.115623 36.975L56.19375 47.35L54.553123 47.35ZM67.77187 44.00625L69.58437 44.240623Q69.1625 45.81875 67.99062 46.709373Q66.83437 47.584373 65.02187 47.584373Q62.75625 47.584373 61.4125 46.19375Q60.084373 44.7875 60.084373 42.25625Q60.084373 39.63125 61.428123 38.19375Q62.771873 36.740623 64.92812 36.740623Q67.00625 36.740623 68.31875 38.1625Q69.64687 39.56875 69.64687 42.146873Q69.64687 42.303123 69.63125 42.615623L61.896873 42.615623Q61.990623 44.31875 62.865623 45.225Q63.740623 46.13125 65.0375 46.13125Q66.00625 46.13125 66.67812 45.63125Q67.36562 45.115623 67.77187 44.00625ZM61.990623 41.1625L67.7875 41.1625Q67.67812 39.865623 67.13125 39.209373Q66.2875 38.19375 64.94375 38.19375Q63.740623 38.19375 62.9125 39.00625Q62.084373 39.803123 61.990623 41.1625ZM71.6625 47.35L71.6625 36.975L73.25625 36.975L73.25625 38.459373Q74.39687 36.740623 76.55312 36.740623Q77.49062 36.740623 78.27187 37.084373Q79.06875 37.4125 79.45937 37.959373Q79.85 38.50625 80.00625 39.25625Q80.1 39.75625 80.1 40.975L80.1 47.35L78.33437 47.35L78.33437 41.0375Q78.33437 39.959373 78.13125 39.428123Q77.92812 38.896873 77.39687 38.584373Q76.88125 38.271873 76.17812 38.271873Q75.05312 38.271873 74.24062 38.990623Q73.42812 39.69375 73.42812 41.678123L73.42812 47.35L71.6625 47.35ZM88.39687 47.35L88.39687 46.0375Q87.4125 47.584373 85.49062 47.584373Q84.25625 47.584373 83.20937 46.896873Q82.17812 46.209373 81.6 44.990623Q81.0375 43.771873 81.0375 42.178123Q81.0375 40.615623 81.55312 39.35Q82.06875 38.084373 83.1 37.4125Q84.14687 36.740623 85.4125 36.740623Q86.35 36.740623 87.08437 37.146873Q87.81875 37.5375 88.2875 38.1625L88.2875 33.0375L90.02187 33.0375L90.02187 47.35L88.39687 47.35ZM82.83437 42.178123Q82.83437 44.1625 83.67812 45.146873Q84.52187 46.13125 85.6625 46.13125Q86.81875 46.13125 87.61562 45.19375Q88.42812 44.25625 88.42812 42.31875Q88.42812 40.19375 87.6 39.19375Q86.7875 38.19375 85.58437 38.19375Q84.4125 38.19375 83.61562 39.1625Q82.83437 40.115623 82.83437 42.178123ZM99.77187 44.00625L101.58437 44.240623Q101.1625 45.81875 99.99062 46.709373Q98.83437 47.584373 97.02187 47.584373Q94.75625 47.584373 93.4125 46.19375Q92.08437 44.7875 92.08437 42.25625Q92.08437 39.63125 93.42812 38.19375Q94.77187 36.740623 96.92812 36.740623Q99.00625 36.740623 100.31875 38.1625Q101.64687 39.56875 101.64687 42.146873Q101.64687 42.303123 101.63125 42.615623L93.89687 42.615623Q93.99062 44.31875 94.86562 45.225Q95.74062 46.13125 97.0375 46.13125Q98.00625 46.13125 98.67812 45.63125Q99.36562 45.115623 99.77187 44.00625ZM93.99062 41.1625L99.7875 41.1625Q99.67812 39.865623 99.13125 39.209373Q98.2875 38.19375 96.94375 38.19375Q95.74062 38.19375 94.9125 39.00625Q94.08437 39.803123 93.99062 41.1625ZM103.64687 47.35L103.64687 36.975L105.225 36.975L105.225 38.553123Q105.83437 37.44375 106.35 37.1Q106.86562 36.740623 107.475 36.740623Q108.36562 36.740623 109.2875 37.303123L108.67812 38.94375Q108.0375 38.553123 107.39687 38.553123Q106.81875 38.553123 106.35 38.9125Q105.89687 39.25625 105.69375 39.865623Q105.4125 40.803123 105.4125 41.9125L105.4125 47.35L103.64687 47.35ZM127.11562 42.334373L129.00626 42.803123Q128.4125 45.146873 126.86562 46.38125Q125.31875 47.6 123.06875 47.6Q120.75625 47.6 119.30312 46.6625Q117.86562 45.709373 117.1 43.928123Q116.35 42.13125 116.35 40.084373Q116.35 37.85 117.19375 36.19375Q118.05312 34.521873 119.63125 33.6625Q121.20937 32.7875 123.1 32.7875Q125.25625 32.7875 126.70937 33.88125Q128.17813 34.975 128.75626 36.959373L126.89687 37.396873Q126.39687 35.834373 125.44375 35.13125Q124.50625 34.4125 123.06875 34.4125Q121.4125 34.4125 120.30312 35.209373Q119.19375 35.990623 118.74062 37.334373Q118.30312 38.6625 118.30312 40.06875Q118.30312 41.896873 118.83437 43.271873Q119.36562 44.63125 120.49062 45.303123Q121.61562 45.975 122.9125 45.975Q124.50625 45.975 125.61562 45.053123Q126.725 44.13125 127.11562 42.334373ZM137.44376 46.06875Q136.45938 46.896873 135.55313 47.240623Q134.64688 47.584373 133.61563 47.584373Q131.9125 47.584373 130.99063 46.75625Q130.06876 45.9125 130.06876 44.615623Q130.06876 43.85 130.4125 43.225Q130.77188 42.6 131.33438 42.225Q131.89688 41.834373 132.6 41.63125Q133.11563 41.50625 134.1625 41.365623Q136.2875 41.115623 137.2875 40.771873Q137.30313 40.4125 137.30313 40.303123Q137.30313 39.240623 136.80313 38.7875Q136.13126 38.19375 134.80313 38.19375Q133.55313 38.19375 132.95938 38.63125Q132.38126 39.06875 132.1 40.178123L130.38126 39.94375Q130.61563 38.834373 131.14688 38.1625Q131.67813 37.475 132.69376 37.115623Q133.70938 36.740623 135.05313 36.740623Q136.38126 36.740623 137.20938 37.053123Q138.0375 37.365623 138.42813 37.85Q138.81876 38.31875 138.975 39.0375Q139.06876 39.490623 139.06876 40.6625L139.06876 43.00625Q139.06876 45.459373 139.17813 46.115623Q139.2875 46.75625 139.63126 47.35L137.7875 47.35Q137.52188 46.803123 137.44376 46.06875ZM137.2875 42.146873Q136.33438 42.5375 134.4125 42.803123Q133.33438 42.959373 132.88126 43.1625Q132.44376 43.35 132.19376 43.725Q131.94376 44.1 131.94376 44.56875Q131.94376 45.271873 132.475 45.740623Q133.00626 46.209373 134.0375 46.209373Q135.05313 46.209373 135.83438 45.771873Q136.63126 45.31875 137.00626 44.553123Q137.2875 43.94375 137.2875 42.7875L137.2875 42.146873ZM141.67813 47.35L141.67813 33.0375L143.44376 33.0375L143.44376 41.19375L147.6 36.975L149.86563 36.975L145.9125 40.81875L150.27188 47.35L148.1 47.35L144.67813 42.053123L143.44376 43.240623L143.44376 47.35L141.67813 47.35ZM158.77188 44.00625L160.58438 44.240623Q160.1625 45.81875 158.99063 46.709373Q157.83438 47.584373 156.02188 47.584373Q153.75626 47.584373 152.4125 46.19375Q151.08438 44.7875 151.08438 42.25625Q151.08438 39.63125 152.42813 38.19375Q153.77188 36.740623 155.92813 36.740623Q158.00626 36.740623 159.31876 38.1625Q160.64688 39.56875 160.64688 42.146873Q160.64688 42.303123 160.63126 42.615623L152.89688 42.615623Q152.99063 44.31875 153.86563 45.225Q154.74063 46.13125 156.0375 46.13125Q157.00626 46.13125 157.67813 45.63125Q158.36563 45.115623 158.77188 44.00625ZM152.99063 41.1625L158.7875 41.1625Q158.67813 39.865623 158.13126 39.209373Q157.2875 38.19375 155.94376 38.19375Q154.74063 38.19375 153.9125 39.00625Q153.08438 39.803123 152.99063 41.1625Z" fill-rule="nonzero"/></svg>