<svg version="1.1" viewBox="0.0 0.0 744.0 567.0" fill="none" stroke="none" stroke-linecap="square" stroke-miterlimit="10" width="744" height="567" xmlns:xlink="http://www.w3.org/1999/xlink" xmlns="http://www.w3.org/2000/svg"><path fill="#ffffff" d="M0 0L744.0 0L744.0 567.0L0 567.0L0 0Z" fill-rule="nonzero"/><path fill="#ffffff" d="M28.35 71.25L715.64996 71.25L715.64996 538.65L28.35 538.65L28.35 71.25Z" fill-rule="nonzero"/><path stroke="#cccccc" stroke-width="1.0" stroke-linecap="butt" d="M372.0 305.0C372.0 305.0 372.0 305.0 372.0 305.0C372.0 305.0 372.0 305.0 372.0 305.0C372.0 305.0 372.0 305.0 372.0 305.0C372.0 305.0 372.0 305.0 372.0 305.0" fill-rule="nonzero"/><path fill="#000000" d="M360.0625 297.04688L360.0625 298.35938Q360.0625 299.40625 359.875 300.125Q359.6875 300.84375 359.32812 301.28125Q358.98438 301.71875 358.48438 301.92188Q358.0 302.125 357.375 302.125Q356.89062 302.125 356.46875 302.0Q356.04688 301.875 355.71875 301.60938Q355.39062 301.32812 355.15625 300.89062Q354.92188 300.45312 354.79688 299.82812Q354.67188 299.1875 354.67188 298.35938L354.67188 297.04688Q354.67188 296.0 354.85938 295.29688Q355.0625 294.59375 355.40625 294.15625Q355.76562 293.71875 356.25 293.53125Q356.75 293.34375 357.35938 293.34375Q357.85938 293.34375 358.28125 293.46875Q358.70312 293.59375 359.03125 293.85938Q359.35938 294.10938 359.57812 294.54688Q359.8125 294.96875 359.9375 295.59375Q360.0625 296.21875 360.0625 297.04688ZM358.96875 298.53125L358.96875 296.875Q358.96875 296.29688 358.90625 295.85938Q358.84375 295.42188 358.70312 295.10938Q358.57812 294.79688 358.375 294.60938Q358.1875 294.42188 357.9375 294.32812Q357.6875 294.23438 357.35938 294.23438Q356.98438 294.23438 356.67188 294.375Q356.375 294.51562 356.17188 294.82812Q355.96875 295.14062 355.85938 295.65625Q355.76562 296.15625 355.76562 296.875L355.76562 298.53125Q355.76562 299.10938 355.82812 299.54688Q355.90625 299.98438 356.03125 300.3125Q356.17188 300.625 356.35938 300.82812Q356.5625 301.03125 356.8125 301.125Q357.0625 301.21875 357.375 301.21875Q357.78125 301.21875 358.07812 301.07812Q358.375 300.92188 358.57812 300.59375Q358.78125 300.26562 358.875 299.76562Q358.96875 299.25 358.96875 298.53125ZM362.8125 300.70312L362.8125 301.57812Q362.8125 302.125 362.53125 302.71875Q362.26562 303.3125 361.78125 303.70312L361.17188 303.28125Q361.35938 303.01562 361.48438 302.75Q361.60938 302.48438 361.67188 302.20312Q361.75 301.92188 361.75 301.59375L361.75 300.70312L362.8125 300.70312ZM369.0625 297.04688L369.0625 298.35938Q369.0625 299.40625 368.875 300.125Q368.6875 300.84375 368.32812 301.28125Q367.98438 301.71875 367.48438 301.92188Q367.0 302.125 366.375 302.125Q365.89062 302.125 365.46875 302.0Q365.04688 301.875 364.71875 301.60938Q364.39062 301.32812 364.15625 300.89062Q363.92188 300.45312 363.79688 299.82812Q363.67188 299.1875 363.67188 298.35938L363.67188 297.04688Q363.67188 296.0 363.85938 295.29688Q364.0625 294.59375 364.40625 294.15625Q364.76562 293.71875 365.25 293.53125Q365.75 293.34375 366.35938 293.34375Q366.85938 293.34375 367.28125 293.46875Q367.70312 293.59375 368.03125 293.85938Q368.35938 294.10938 368.57812 294.54688Q368.8125 294.96875 368.9375 295.59375Q369.0625 296.21875 369.0625 297.04688ZM367.96875 298.53125L367.96875 296.875Q367.96875 296.29688 367.90625 295.85938Q367.84375 295.42188 367.70312 295.10938Q367.57812 294.79688 367.375 294.60938Q367.1875 294.42188 366.9375 294.32812Q366.6875 294.23438 366.35938 294.23438Q365.98438 294.23438 365.67188 294.375Q365.375 294.51562 365.17188 294.82812Q364.96875 295.14062 364.85938 295.65625Q364.76562 296.15625 364.76562 296.875L364.76562 298.53125Q364.76562 299.10938 364.82812 299.54688Q364.90625 299.98438 365.03125 300.3125Q365.17188 300.625 365.35938 300.82812Q365.5625 301.03125 365.8125 301.125Q366.0625 301.21875 366.375 301.21875Q366.78125 301.21875 367.07812 301.07812Q367.375 300.92188 367.57812 300.59375Q367.78125 300.26562 367.875 299.76562Q367.96875 299.25 367.96875 298.53125Z" fill-rule="nonzero"/><path stroke="#cccccc" stroke-width="1.0" stroke-linecap="butt" d="M422.425 305.0C422.425 277.15103 399.84897 254.575 372.0 254.575C344.15103 254.575 321.575 277.15103 321.575 305.0C321.575 332.84897 344.15103 355.425 372.0 355.425C399.84897 355.425 422.425 332.84897 422.425 305.0" fill-rule="nonzero"/><path fill="#000000" d="M360.0625 246.62187L360.0625 247.93437Q360.0625 248.98125 359.875 249.7Q359.6875 250.41875 359.32812 250.85625Q358.98438 251.29375 358.48438 251.49687Q358.0 251.7 357.375 251.7Q356.89062 251.7 356.46875 251.575Q356.04688 251.45 355.71875 251.18437Q355.39062 250.90312 355.15625 250.46562Q354.92188 250.02812 354.79688 249.40312Q354.67188 248.7625 354.67188 247.93437L354.67188 246.62187Q354.67188 245.575 354.85938 244.87187Q355.0625 244.16875 355.40625 243.73125Q355.76562 243.29375 356.25 243.10625Q356.75 242.91875 357.35938 242.91875Q357.85938 242.91875 358.28125 243.04375Q358.70312 243.16875 359.03125 243.43437Q359.35938 243.68437 359.57812 244.12187Q359.8125 244.54375 359.9375 245.16875Q360.0625 245.79375 360.0625 246.62187ZM358.96875 248.10625L358.96875 246.45Q358.96875 245.87187 358.90625 245.43437Q358.84375 244.99687 358.70312 244.68437Q358.57812 244.37187 358.375 244.18437Q358.1875 243.99687 357.9375 243.90312Q357.6875 243.80937 357.35938 243.80937Q356.98438 243.80937 356.67188 243.95Q356.375 244.09062 356.17188 244.40312Q355.96875 244.71562 355.85938 245.23125Q355.76562 245.73125 355.76562 246.45L355.76562 248.10625Q355.76562 248.68437 355.82812 249.12187Q355.90625 249.55937 356.03125 249.8875Q356.17188 250.2 356.35938 250.40312Q356.5625 250.60625 356.8125 250.7Q357.0625 250.79375 357.375 250.79375Q357.78125 250.79375 358.07812 250.65312Q358.375 250.49687 358.57812 250.16875Q358.78125 249.84062 358.875 249.34062Q358.96875 248.825 358.96875 248.10625ZM362.8125 250.27812L362.8125 251.15312Q362.8125 251.7 362.53125 252.29375Q362.26562 252.8875 361.78125 253.27812L361.17188 252.85625Q361.35938 252.59062 361.48438 252.325Q361.60938 252.05937 361.67188 251.77812Q361.75 251.49687 361.75 251.16875L361.75 250.27812L362.8125 250.27812ZM367.26562 242.99687L367.26562 251.575L366.1875 251.575L366.1875 244.35625L364.0 245.15312L364.0 244.16875L367.10938 242.99687L367.26562 242.99687Z" fill-rule="nonzero"/><path stroke="#cccccc" stroke-width="1.0" stroke-linecap="butt" d="M472.85 305.0C472.85 249.30208 427.6979 204.15 372.0 204.15C316.3021 204.15 271.15 249.30208 271.15 305.0C271.15 360.6979 316.3021 405.85 372.0 405.85C427.6979 405.85 472.85 360.6979 472.85 305.0" fill-rule="nonzero"/><path fill="#000000" d="M360.0625 196.19687L360.0625 197.50937Q360.0625 198.55624 359.875 199.275Q359.6875 199.99374 359.32812 200.43124Q358.98438 200.86874 358.48438 201.07187Q358.0 201.275 357.375 201.275Q356.89062 201.275 356.46875 201.15Q356.04688 201.025 355.71875 200.75937Q355.39062 200.47812 355.15625 200.04062Q354.92188 199.60312 354.79688 198.97812Q354.67188 198.3375 354.67188 197.50937L354.67188 196.19687Q354.67188 195.15 354.85938 194.44687Q355.0625 193.74374 355.40625 193.30624Q355.76562 192.86874 356.25 192.68124Q356.75 192.49374 357.35938 192.49374Q357.85938 192.49374 358.28125 192.61874Q358.70312 192.74374 359.03125 193.00937Q359.35938 193.25937 359.57812 193.69687Q359.8125 194.11874 359.9375 194.74374Q360.0625 195.36874 360.0625 196.19687ZM358.96875 197.68124L358.96875 196.025Q358.96875 195.44687 358.90625 195.00937Q358.84375 194.57187 358.70312 194.25937Q358.57812 193.94687 358.375 193.75937Q358.1875 193.57187 357.9375 193.47812Q357.6875 193.38437 357.35938 193.38437Q356.98438 193.38437 356.67188 193.525Q356.375 193.66562 356.17188 193.97812Q355.96875 194.29062 355.85938 194.80624Q355.76562 195.30624 355.76562 196.025L355.76562 197.68124Q355.76562 198.25937 355.82812 198.69687Q355.90625 199.13437 356.03125 199.4625Q356.17188 199.775 356.35938 199.97812Q356.5625 200.18124 356.8125 200.275Q357.0625 200.36874 357.375 200.36874Q357.78125 200.36874 358.07812 200.22812Q358.375 200.07187 358.57812 199.74374Q358.78125 199.41562 358.875 198.91562Q358.96875 198.4 358.96875 197.68124ZM362.8125 199.85312L362.8125 200.72812Q362.8125 201.275 362.53125 201.86874Q362.26562 202.4625 361.78125 202.85312L361.17188 202.43124Q361.35938 202.16562 361.48438 201.9Q361.60938 201.63437 361.67188 201.35312Q361.75 201.07187 361.75 200.74374L361.75 199.85312L362.8125 199.85312ZM369.29688 200.25937L369.29688 201.15L363.71875 201.15L363.71875 200.36874L366.51562 197.25937Q367.03125 196.68124 367.3125 196.29062Q367.59375 195.88437 367.70312 195.57187Q367.82812 195.24374 367.82812 194.91562Q367.82812 194.49374 367.65625 194.15Q367.48438 193.80624 367.14062 193.60312Q366.8125 193.38437 366.32812 193.38437Q365.76562 193.38437 365.39062 193.61874Q365.01562 193.8375 364.82812 194.22812Q364.64062 194.61874 364.64062 195.11874L363.54688 195.11874Q363.54688 194.4 363.85938 193.80624Q364.1875 193.2125 364.79688 192.85312Q365.42188 192.49374 366.32812 192.49374Q367.14062 192.49374 367.71875 192.79062Q368.29688 193.07187 368.59375 193.5875Q368.90625 194.0875 368.90625 194.775Q368.90625 195.15 368.78125 195.54062Q368.65625 195.91562 368.4375 196.30624Q368.21875 196.68124 367.92188 197.05624Q367.64062 197.41562 367.3125 197.775L365.01562 200.25937L369.29688 200.25937Z" fill-rule="nonzero"/><path stroke="#cccccc" stroke-width="1.0" stroke-linecap="butt" d="M523.275 305.0C523.275 221.45312 455.54688 153.725 372.0 153.725C288.45312 153.725 220.725 221.45312 220.725 305.0C220.725 388.54688 288.45312 456.275 372.0 456.275C455.54688 456.275 523.275 388.54688 523.275 305.0" fill-rule="nonzero"/><path fill="#000000" d="M360.0625 145.77188L360.0625 147.08438Q360.0625 148.13126 359.875 148.85Q359.6875 149.56876 359.32812 150.00626Q358.98438 150.44376 358.48438 150.64688Q358.0 150.85 357.375 150.85Q356.89062 150.85 356.46875 150.725Q356.04688 150.6 355.71875 150.33438Q355.39062 150.05313 355.15625 149.61563Q354.92188 149.17813 354.79688 148.55313Q354.67188 147.9125 354.67188 147.08438L354.67188 145.77188Q354.67188 144.725 354.85938 144.02188Q355.0625 143.31876 355.40625 142.88126Q355.76562 142.44376 356.25 142.25626Q356.75 142.06876 357.35938 142.06876Q357.85938 142.06876 358.28125 142.19376Q358.70312 142.31876 359.03125 142.58438Q359.35938 142.83438 359.57812 143.27188Q359.8125 143.69376 359.9375 144.31876Q360.0625 144.94376 360.0625 145.77188ZM358.96875 147.25626L358.96875 145.6Q358.96875 145.02188 358.90625 144.58438Q358.84375 144.14688 358.70312 143.83438Q358.57812 143.52188 358.375 143.33438Q358.1875 143.14688 357.9375 143.05313Q357.6875 142.95938 357.35938 142.95938Q356.98438 142.95938 356.67188 143.1Q356.375 143.24063 356.17188 143.55313Q355.96875 143.86563 355.85938 144.38126Q355.76562 144.88126 355.76562 145.6L355.76562 147.25626Q355.76562 147.83438 355.82812 148.27188Q355.90625 148.70938 356.03125 149.0375Q356.17188 149.35 356.35938 149.55313Q356.5625 149.75626 356.8125 149.85Q357.0625 149.94376 357.375 149.94376Q357.78125 149.94376 358.07812 149.80313Q358.375 149.64688 358.57812 149.31876Q358.78125 148.99063 358.875 148.49063Q358.96875 147.975 358.96875 147.25626ZM362.8125 149.42813L362.8125 150.30313Q362.8125 150.85 362.53125 151.44376Q362.26562 152.0375 361.78125 152.42813L361.17188 152.00626Q361.35938 151.74063 361.48438 151.475Q361.60938 151.20938 361.67188 150.92813Q361.75 150.64688 361.75 150.31876L361.75 149.42813L362.8125 149.42813ZM365.29688 145.92813L366.0625 145.92813Q366.64062 145.92813 367.0 145.74063Q367.375 145.5375 367.5625 145.20938Q367.75 144.88126 367.75 144.45938Q367.75 143.975 367.57812 143.64688Q367.42188 143.30313 367.09375 143.13126Q366.76562 142.95938 366.26562 142.95938Q365.79688 142.95938 365.45312 143.14688Q365.10938 143.31876 364.90625 143.64688Q364.71875 143.975 364.71875 144.42813L363.625 144.42813Q363.625 143.77188 363.95312 143.24063Q364.28125 142.70938 364.875 142.39688Q365.46875 142.06876 366.26562 142.06876Q367.03125 142.06876 367.60938 142.35Q368.1875 142.61563 368.51562 143.1625Q368.84375 143.69376 368.84375 144.49063Q368.84375 144.81876 368.6875 145.17813Q368.53125 145.5375 368.21875 145.86563Q367.90625 146.17813 367.40625 146.38126Q366.92188 146.58438 366.21875 146.58438L365.29688 146.58438L365.29688 145.92813ZM365.29688 146.81876L365.29688 146.1625L366.21875 146.1625Q367.03125 146.1625 367.5625 146.36563Q368.09375 146.55313 368.40625 146.88126Q368.71875 147.19376 368.84375 147.58438Q368.96875 147.95938 368.96875 148.35Q368.96875 148.94376 368.76562 149.4125Q368.5625 149.86563 368.1875 150.19376Q367.82812 150.50626 367.32812 150.67813Q366.84375 150.85 366.26562 150.85Q365.70312 150.85 365.21875 150.69376Q364.73438 150.52188 364.35938 150.225Q363.98438 149.92813 363.76562 149.49063Q363.5625 149.0375 363.5625 148.475L364.64062 148.475Q364.64062 148.9125 364.82812 149.25626Q365.03125 149.58438 365.39062 149.77188Q365.76562 149.94376 366.26562 149.94376Q366.76562 149.94376 367.125 149.77188Q367.48438 149.6 367.67188 149.25626Q367.875 148.89688 367.875 148.36563Q367.875 147.83438 367.65625 147.49063Q367.4375 147.14688 367.01562 146.99063Q366.60938 146.81876 366.0625 146.81876L365.29688 146.81876Z" fill-rule="nonzero"/><path stroke="#cccccc" stroke-width="1.0" stroke-linecap="butt" d="M573.7 305.0C573.7 193.60417 483.39584 103.3 372.0 103.3C260.60416 103.3 170.3 193.60417 170.3 305.0C170.3 416.39584 260.60416 506.7 372.0 506.7C483.39584 506.7 573.7 416.39584 573.7 305.0" fill-rule="nonzero"/><path fill="#000000" d="M360.0625 95.34688L360.0625 96.65938Q360.0625 97.70625 359.875 98.425Q359.6875 99.14375 359.32812 99.58125Q358.98438 100.01875 358.48438 100.22188Q358.0 100.425 357.375 100.425Q356.89062 100.425 356.46875 100.3Q356.04688 100.175 355.71875 99.90938Q355.39062 99.62813 355.15625 99.19063Q354.92188 98.75313 354.79688 98.12813Q354.67188 97.4875 354.67188 96.65938L354.67188 95.34688Q354.67188 94.3 354.85938 93.59688Q355.0625 92.89375 355.40625 92.45625Q355.76562 92.01875 356.25 91.83125Q356.75 91.64375 357.35938 91.64375Q357.85938 91.64375 358.28125 91.76875Q358.70312 91.89375 359.03125 92.15938Q359.35938 92.40938 359.57812 92.84688Q359.8125 93.26875 359.9375 93.89375Q360.0625 94.51875 360.0625 95.34688ZM358.96875 96.83125L358.96875 95.175Q358.96875 94.59688 358.90625 94.15938Q358.84375 93.72188 358.70312 93.40938Q358.57812 93.09688 358.375 92.90938Q358.1875 92.72188 357.9375 92.62813Q357.6875 92.53438 357.35938 92.53438Q356.98438 92.53438 356.67188 92.675Q356.375 92.81563 356.17188 93.12813Q355.96875 93.44063 355.85938 93.95625Q355.76562 94.45625 355.76562 95.175L355.76562 96.83125Q355.76562 97.40938 355.82812 97.84688Q355.90625 98.28438 356.03125 98.6125Q356.17188 98.925 356.35938 99.12813Q356.5625 99.33125 356.8125 99.425Q357.0625 99.51875 357.375 99.51875Q357.78125 99.51875 358.07812 99.37813Q358.375 99.22188 358.57812 98.89375Q358.78125 98.56563 358.875 98.06563Q358.96875 97.55 358.96875 96.83125ZM362.8125 99.00313L362.8125 99.87813Q362.8125 100.425 362.53125 101.01875Q362.26562 101.6125 361.78125 102.00313L361.17188 101.58125Q361.35938 101.31563 361.48438 101.05Q361.60938 100.78438 361.67188 100.50313Q361.75 100.22188 361.75 99.89375L361.75 99.00313L362.8125 99.00313ZM369.46875 97.425L369.46875 98.31563L363.3125 98.31563L363.3125 97.675L367.125 91.76875L368.01562 91.76875L367.0625 93.47188L364.54688 97.425L369.46875 97.425ZM368.28125 91.76875L368.28125 100.3L367.20312 100.3L367.20312 91.76875L368.28125 91.76875Z" fill-rule="nonzero"/><path stroke="#cccccc" stroke-width="1.0" stroke-linecap="butt" d="M372.0 305.0L372.0 103.0" fill-rule="nonzero"/><path fill="#000000" d="M352.625 68.96875L352.625 77.5L351.48438 77.5L351.48438 68.96875L352.625 68.96875ZM356.20312 72.8125L356.20312 73.734375L352.375 73.734375L352.375 72.8125L356.20312 72.8125ZM356.78125 68.96875L356.78125 69.890625L352.375 69.890625L352.375 68.96875L356.78125 68.96875ZM360.95312 77.625Q360.29688 77.625 359.75 77.40625Q359.21875 77.171875 358.82812 76.765625Q358.45312 76.34375 358.25 75.78125Q358.04688 75.21875 358.04688 74.546875L358.04688 74.3125Q358.04688 73.53125 358.26562 72.921875Q358.5 72.3125 358.89062 71.890625Q359.28125 71.46875 359.78125 71.265625Q360.28125 71.046875 360.8125 71.046875Q361.5 71.046875 361.98438 71.28125Q362.48438 71.515625 362.79688 71.9375Q363.125 72.34375 363.26562 72.921875Q363.42188 73.484375 363.42188 74.140625L363.42188 74.640625L358.6875 74.640625L358.6875 73.75L362.34375 73.75L362.34375 73.671875Q362.3125 73.25 362.15625 72.859375Q362.01562 72.453125 361.6875 72.203125Q361.375 71.9375 360.8125 71.9375Q360.45312 71.9375 360.14062 72.09375Q359.82812 72.25 359.59375 72.5625Q359.375 72.859375 359.25 73.296875Q359.14062 73.734375 359.14062 74.3125L359.14062 74.546875Q359.14062 75.0 359.26562 75.40625Q359.39062 75.796875 359.625 76.09375Q359.875 76.390625 360.21875 76.5625Q360.57812 76.734375 361.01562 76.734375Q361.59375 76.734375 361.98438 76.5Q362.39062 76.265625 362.6875 75.875L363.34375 76.390625Q363.14062 76.703125 362.8125 76.984375Q362.5 77.265625 362.03125 77.453125Q361.57812 77.625 360.95312 77.625ZM365.40625 72.515625L365.40625 77.5L364.32812 77.5L364.32812 71.15625L365.35938 71.15625L365.40625 72.515625ZM365.15625 74.09375L364.70312 74.078125Q364.70312 73.421875 364.89062 72.875Q365.07812 72.3125 365.42188 71.90625Q365.76562 71.5 366.23438 71.28125Q366.70312 71.046875 367.28125 71.046875Q367.75 71.046875 368.125 71.171875Q368.5 71.296875 368.76562 71.578125Q369.03125 71.84375 369.17188 72.28125Q369.3125 72.71875 369.3125 73.34375L369.3125 77.5L368.21875 77.5L368.21875 73.328125Q368.21875 72.828125 368.07812 72.53125Q367.9375 72.234375 367.65625 72.09375Q367.375 71.953125 366.95312 71.953125Q366.54688 71.953125 366.21875 72.125Q365.89062 72.296875 365.65625 72.59375Q365.42188 72.890625 365.28125 73.28125Q365.15625 73.65625 365.15625 74.09375ZM373.85938 76.71875Q374.25 76.71875 374.57812 76.5625Q374.90625 76.40625 375.10938 76.140625Q375.32812 75.859375 375.35938 75.5L376.39062 75.5Q376.35938 76.0625 376.0 76.546875Q375.65625 77.03125 375.09375 77.328125Q374.53125 77.625 373.85938 77.625Q373.15625 77.625 372.625 77.375Q372.09375 77.109375 371.73438 76.671875Q371.39062 76.234375 371.21875 75.671875Q371.04688 75.09375 371.04688 74.453125L371.04688 74.203125Q371.04688 73.5625 371.21875 73.0Q371.39062 72.421875 371.73438 71.984375Q372.09375 71.546875 372.625 71.296875Q373.15625 71.046875 373.85938 71.046875Q374.60938 71.046875 375.15625 71.34375Q375.71875 71.640625 376.03125 72.171875Q376.35938 72.6875 376.39062 73.34375L375.35938 73.34375Q375.32812 72.953125 375.14062 72.640625Q374.95312 72.3125 374.625 72.125Q374.29688 71.9375 373.85938 71.9375Q373.35938 71.9375 373.01562 72.140625Q372.6875 72.328125 372.48438 72.65625Q372.29688 72.984375 372.20312 73.390625Q372.125 73.796875 372.125 74.203125L372.125 74.453125Q372.125 74.875 372.20312 75.28125Q372.29688 75.671875 372.48438 76.0Q372.6875 76.328125 373.01562 76.53125Q373.35938 76.71875 373.85938 76.71875ZM378.40625 68.5L378.40625 77.5L377.32812 77.5L377.32812 68.5L378.40625 68.5ZM378.15625 74.09375L377.70312 74.078125Q377.70312 73.421875 377.89062 72.875Q378.07812 72.3125 378.42188 71.90625Q378.76562 71.5 379.23438 71.28125Q379.70312 71.046875 380.28125 71.046875Q380.75 71.046875 381.125 71.171875Q381.5 71.296875 381.76562 71.578125Q382.03125 71.84375 382.17188 72.28125Q382.3125 72.71875 382.3125 73.34375L382.3125 77.5L381.21875 77.5L381.21875 73.328125Q381.21875 72.828125 381.07812 72.53125Q380.9375 72.234375 380.65625 72.09375Q380.375 71.953125 379.95312 71.953125Q379.54688 71.953125 379.21875 72.125Q378.89062 72.296875 378.65625 72.59375Q378.42188 72.890625 378.28125 73.28125Q378.15625 73.65625 378.15625 74.09375ZM384.04688 74.40625L384.04688 74.265625Q384.04688 73.578125 384.23438 73.0Q384.4375 72.40625 384.8125 71.96875Q385.1875 71.53125 385.71875 71.296875Q386.25 71.046875 386.92188 71.046875Q387.57812 71.046875 388.10938 71.296875Q388.65625 71.53125 389.03125 71.96875Q389.40625 72.40625 389.60938 73.0Q389.8125 73.578125 389.8125 74.265625L389.8125 74.40625Q389.8125 75.078125 389.60938 75.671875Q389.40625 76.25 389.03125 76.6875Q388.65625 77.125 388.125 77.375Q387.59375 77.625 386.92188 77.625Q386.26562 77.625 385.71875 77.375Q385.1875 77.125 384.8125 76.6875Q384.4375 76.25 384.23438 75.671875Q384.04688 75.078125 384.04688 74.40625ZM385.125 74.265625L385.125 74.40625Q385.125 74.875 385.23438 75.296875Q385.34375 75.71875 385.5625 76.046875Q385.79688 76.359375 386.14062 76.546875Q386.48438 76.71875 386.92188 76.71875Q387.375 76.71875 387.70312 76.546875Q388.04688 76.359375 388.26562 76.046875Q388.5 75.71875 388.60938 75.296875Q388.71875 74.875 388.71875 74.40625L388.71875 74.265625Q388.71875 73.796875 388.60938 73.375Q388.5 72.953125 388.26562 72.640625Q388.04688 72.3125 387.70312 72.125Q387.375 71.9375 386.92188 71.9375Q386.46875 71.9375 386.125 72.125Q385.79688 72.3125 385.5625 72.640625Q385.34375 72.953125 385.23438 73.375Q385.125 73.796875 385.125 74.265625ZM392.5 68.5L392.5 77.5L391.42188 77.5L391.42188 68.5L392.5 68.5Z" fill-rule="nonzero"/><path stroke="#cccccc" stroke-width="1.0" stroke-linecap="butt" d="M372.0 305.0L547.0 204.0" fill-rule="nonzero"/><path fill="#000000" d="M548.6406 184.96875L548.6406 193.5L547.53125 193.5L547.53125 184.96875L548.6406 184.96875ZM551.3906 184.96875L551.3906 185.89062L544.7969 185.89062L544.7969 184.96875L551.3906 184.96875ZM554.9531 193.625Q554.2969 193.625 553.75 193.40625Q553.21875 193.17188 552.8281 192.76562Q552.4531 192.34375 552.25 191.78125Q552.0469 191.21875 552.0469 190.54688L552.0469 190.3125Q552.0469 189.53125 552.2656 188.92188Q552.5 188.3125 552.8906 187.89062Q553.28125 187.46875 553.78125 187.26562Q554.28125 187.04688 554.8125 187.04688Q555.5 187.04688 555.9844 187.28125Q556.4844 187.51562 556.7969 187.9375Q557.125 188.34375 557.2656 188.92188Q557.4219 189.48438 557.4219 190.14062L557.4219 190.64062L552.6875 190.64062L552.6875 189.75L556.34375 189.75L556.34375 189.67188Q556.3125 189.25 556.15625 188.85938Q556.0156 188.45312 555.6875 188.20312Q555.375 187.9375 554.8125 187.9375Q554.4531 187.9375 554.1406 188.09375Q553.8281 188.25 553.59375 188.5625Q553.375 188.85938 553.25 189.29688Q553.1406 189.73438 553.1406 190.3125L553.1406 190.54688Q553.1406 191.0 553.2656 191.40625Q553.3906 191.79688 553.625 192.09375Q553.875 192.39062 554.21875 192.5625Q554.5781 192.73438 555.0156 192.73438Q555.59375 192.73438 555.9844 192.5Q556.3906 192.26562 556.6875 191.875L557.34375 192.39062Q557.1406 192.70312 556.8125 192.98438Q556.5 193.26562 556.03125 193.45312Q555.5781 193.625 554.9531 193.625ZM559.40625 188.15625L559.40625 193.5L558.3281 193.5L558.3281 187.15625L559.375 187.15625L559.40625 188.15625ZM561.3906 187.125L561.3906 188.125Q561.25 188.10938 561.125 188.09375Q561.0156 188.07812 560.8594 188.07812Q560.4844 188.07812 560.1875 188.20312Q559.90625 188.3125 559.7031 188.53125Q559.5156 188.73438 559.3906 189.03125Q559.28125 189.32812 559.25 189.67188L558.9375 189.84375Q558.9375 189.26562 559.0469 188.76562Q559.1719 188.26562 559.40625 187.875Q559.65625 187.48438 560.0156 187.26562Q560.3906 187.04688 560.90625 187.04688Q561.03125 187.04688 561.1719 187.07812Q561.3281 187.09375 561.3906 187.125ZM563.40625 188.375L563.40625 195.9375L562.3281 195.9375L562.3281 187.15625L563.3125 187.15625L563.40625 188.375ZM567.6875 190.28125L567.6875 190.40625Q567.6875 191.09375 567.5156 191.6875Q567.3594 192.26562 567.0469 192.70312Q566.7344 193.14062 566.2656 193.39062Q565.8125 193.625 565.21875 193.625Q564.625 193.625 564.15625 193.42188Q563.6875 193.21875 563.3594 192.84375Q563.0469 192.45312 562.8594 191.92188Q562.6719 191.39062 562.59375 190.71875L562.59375 190.0625Q562.6719 189.35938 562.8594 188.8125Q563.0469 188.25 563.3594 187.85938Q563.6875 187.45312 564.1406 187.25Q564.6094 187.04688 565.2031 187.04688Q565.7969 187.04688 566.2656 187.28125Q566.7344 187.5 567.0469 187.9375Q567.3594 188.35938 567.5156 188.95312Q567.6875 189.54688 567.6875 190.28125ZM566.59375 190.40625L566.59375 190.28125Q566.59375 189.79688 566.4844 189.39062Q566.3906 188.96875 566.1875 188.65625Q565.9844 188.32812 565.65625 188.14062Q565.3281 187.95312 564.8906 187.95312Q564.4844 187.95312 564.1719 188.09375Q563.875 188.23438 563.65625 188.48438Q563.4531 188.71875 563.3125 189.01562Q563.1875 189.3125 563.125 189.64062L563.125 191.15625Q563.2344 191.5625 563.4375 191.92188Q563.65625 192.28125 564.0 192.5Q564.3594 192.71875 564.90625 192.71875Q565.34375 192.71875 565.65625 192.54688Q565.9844 192.35938 566.1875 192.04688Q566.3906 191.71875 566.4844 191.29688Q566.59375 190.875 566.59375 190.40625ZM570.5 187.15625L570.5 193.5L569.4219 193.5L569.4219 187.15625L570.5 187.15625ZM569.3281 185.48438Q569.3281 185.21875 569.4844 185.03125Q569.65625 184.84375 569.96875 184.84375Q570.28125 184.84375 570.4375 185.03125Q570.6094 185.21875 570.6094 185.48438Q570.6094 185.73438 570.4375 185.92188Q570.28125 186.09375 569.96875 186.09375Q569.65625 186.09375 569.4844 185.92188Q569.3281 185.73438 569.3281 185.48438ZM573.40625 188.51562L573.40625 193.5L572.3281 193.5L572.3281 187.15625L573.3594 187.15625L573.40625 188.51562ZM573.15625 190.09375L572.7031 190.07812Q572.7031 189.42188 572.8906 188.875Q573.0781 188.3125 573.4219 187.90625Q573.7656 187.5 574.2344 187.28125Q574.7031 187.04688 575.28125 187.04688Q575.75 187.04688 576.125 187.17188Q576.5 187.29688 576.7656 187.57812Q577.03125 187.84375 577.1719 188.28125Q577.3125 188.71875 577.3125 189.34375L577.3125 193.5L576.21875 193.5L576.21875 189.32812Q576.21875 188.82812 576.0781 188.53125Q575.9375 188.23438 575.65625 188.09375Q575.375 187.95312 574.9531 187.95312Q574.5469 187.95312 574.21875 188.125Q573.8906 188.29688 573.65625 188.59375Q573.4219 188.89062 573.28125 189.28125Q573.15625 189.65625 573.15625 190.09375ZM579.0469 190.40625L579.0469 190.26562Q579.0469 189.57812 579.2344 189.0Q579.4375 188.40625 579.8125 187.96875Q580.1875 187.53125 580.71875 187.29688Q581.25 187.04688 581.9219 187.04688Q582.5781 187.04688 583.1094 187.29688Q583.65625 187.53125 584.03125 187.96875Q584.40625 188.40625 584.6094 189.0Q584.8125 189.57812 584.8125 190.26562L584.8125 190.40625Q584.8125 191.07812 584.6094 191.67188Q584.40625 192.25 584.03125 192.6875Q583.65625 193.125 583.125 193.375Q582.59375 193.625 581.9219 193.625Q581.2656 193.625 580.71875 193.375Q580.1875 193.125 579.8125 192.6875Q579.4375 192.25 579.2344 191.67188Q579.0469 191.07812 579.0469 190.40625ZM580.125 190.26562L580.125 190.40625Q580.125 190.875 580.2344 191.29688Q580.34375 191.71875 580.5625 192.04688Q580.7969 192.35938 581.1406 192.54688Q581.4844 192.71875 581.9219 192.71875Q582.375 192.71875 582.7031 192.54688Q583.0469 192.35938 583.2656 192.04688Q583.5 191.71875 583.6094 191.29688Q583.71875 190.875 583.71875 190.40625L583.71875 190.26562Q583.71875 189.79688 583.6094 189.375Q583.5 188.95312 583.2656 188.64062Q583.0469 188.3125 582.7031 188.125Q582.375 187.9375 581.9219 187.9375Q581.46875 187.9375 581.125 188.125Q580.7969 188.3125 580.5625 188.64062Q580.34375 188.95312 580.2344 189.375Q580.125 189.79688 580.125 190.26562ZM587.5 184.5L587.5 193.5L586.4219 193.5L586.4219 184.5L587.5 184.5ZM591.9531 193.625Q591.2969 193.625 590.75 193.40625Q590.21875 193.17188 589.8281 192.76562Q589.4531 192.34375 589.25 191.78125Q589.0469 191.21875 589.0469 190.54688L589.0469 190.3125Q589.0469 189.53125 589.2656 188.92188Q589.5 188.3125 589.8906 187.89062Q590.28125 187.46875 590.78125 187.26562Q591.28125 187.04688 591.8125 187.04688Q592.5 187.04688 592.9844 187.28125Q593.4844 187.51562 593.7969 187.9375Q594.125 188.34375 594.2656 188.92188Q594.4219 189.48438 594.4219 190.14062L594.4219 190.64062L589.6875 190.64062L589.6875 189.75L593.34375 189.75L593.34375 189.67188Q593.3125 189.25 593.15625 188.85938Q593.0156 188.45312 592.6875 188.20312Q592.375 187.9375 591.8125 187.9375Q591.4531 187.9375 591.1406 188.09375Q590.8281 188.25 590.59375 188.5625Q590.375 188.85938 590.25 189.29688Q590.1406 189.73438 590.1406 190.3125L590.1406 190.54688Q590.1406 191.0 590.2656 191.40625Q590.3906 191.79688 590.625 192.09375Q590.875 192.39062 591.21875 192.5625Q591.5781 192.73438 592.0156 192.73438Q592.59375 192.73438 592.9844 192.5Q593.3906 192.26562 593.6875 191.875L594.34375 192.39062Q594.1406 192.70312 593.8125 192.98438Q593.5 193.26562 593.03125 193.45312Q592.5781 193.625 591.9531 193.625ZM596.40625 188.51562L596.40625 193.5L595.3281 193.5L595.3281 187.15625L596.3594 187.15625L596.40625 188.51562ZM596.15625 190.09375L595.7031 190.07812Q595.7031 189.42188 595.8906 188.875Q596.0781 188.3125 596.4219 187.90625Q596.7656 187.5 597.2344 187.28125Q597.7031 187.04688 598.28125 187.04688Q598.75 187.04688 599.125 187.17188Q599.5 187.29688 599.7656 187.57812Q600.03125 187.84375 600.1719 188.28125Q600.3125 188.71875 600.3125 189.34375L600.3125 193.5L599.21875 193.5L599.21875 189.32812Q599.21875 188.82812 599.0781 188.53125Q598.9375 188.23438 598.65625 188.09375Q598.375 187.95312 597.9531 187.95312Q597.5469 187.95312 597.21875 188.125Q596.8906 188.29688 596.65625 188.59375Q596.4219 188.89062 596.28125 189.28125Q596.15625 189.65625 596.15625 190.09375Z" fill-rule="nonzero"/><path stroke="#cccccc" stroke-width="1.0" stroke-linecap="butt" d="M372.0 305.0L547.0 406.0" fill-rule="nonzero"/><path fill="#000000" d="M543.6406 422.78125L544.7656 422.78125Q544.6719 423.59375 544.2969 424.23438Q543.9219 424.875 543.2344 425.25Q542.5625 425.625 541.53125 425.625Q540.78125 425.625 540.1719 425.34375Q539.5625 425.04688 539.1094 424.53125Q538.6719 424.01562 538.4375 423.29688Q538.2031 422.5625 538.2031 421.65625L538.2031 420.8125Q538.2031 419.92188 538.4375 419.1875Q538.6719 418.45312 539.125 417.9375Q539.5781 417.40625 540.2031 417.125Q540.84375 416.84375 541.625 416.84375Q542.59375 416.84375 543.2656 417.21875Q543.9375 417.57812 544.2969 418.21875Q544.6719 418.85938 544.7656 419.70312L543.6406 419.70312Q543.5625 419.10938 543.3281 418.6875Q543.1094 418.25 542.7031 418.01562Q542.2969 417.78125 541.625 417.78125Q541.0625 417.78125 540.625 418.0Q540.2031 418.20312 539.90625 418.60938Q539.625 419.0 539.46875 419.5625Q539.3281 420.125 539.3281 420.79688L539.3281 421.65625Q539.3281 422.28125 539.4531 422.84375Q539.59375 423.39062 539.8594 423.8125Q540.125 424.21875 540.5469 424.46875Q540.96875 424.70312 541.53125 424.70312Q542.25 424.70312 542.6719 424.46875Q543.1094 424.23438 543.3281 423.8125Q543.5469 423.39062 543.6406 422.78125ZM550.0625 424.42188L550.0625 421.15625Q550.0625 420.78125 549.90625 420.5Q549.7656 420.21875 549.46875 420.07812Q549.1719 419.92188 548.7344 419.92188Q548.3125 419.92188 548.0 420.0625Q547.7031 420.20312 547.53125 420.4375Q547.3594 420.65625 547.3594 420.92188L546.28125 420.92188Q546.28125 420.57812 546.4531 420.25Q546.625 419.90625 546.9531 419.64062Q547.28125 419.35938 547.75 419.20312Q548.21875 419.04688 548.7969 419.04688Q549.4844 419.04688 550.0156 419.28125Q550.5469 419.51562 550.84375 419.98438Q551.15625 420.45312 551.15625 421.15625L551.15625 424.10938Q551.15625 424.4375 551.2031 424.79688Q551.2656 425.14062 551.375 425.40625L551.375 425.5L550.2344 425.5Q550.15625 425.3125 550.1094 425.0Q550.0625 424.6875 550.0625 424.42188ZM550.25 421.65625L550.2656 422.42188L549.1719 422.42188Q548.7031 422.42188 548.34375 422.5Q547.9844 422.5625 547.7344 422.71875Q547.4844 422.85938 547.3594 423.07812Q547.2344 423.29688 547.2344 423.59375Q547.2344 423.89062 547.3594 424.14062Q547.5 424.375 547.7656 424.53125Q548.0469 424.67188 548.4375 424.67188Q548.9375 424.67188 549.3125 424.46875Q549.7031 424.25 549.9219 423.95312Q550.15625 423.64062 550.1719 423.34375L550.6406 423.875Q550.59375 424.10938 550.40625 424.42188Q550.2344 424.71875 549.9219 425.0Q549.625 425.26562 549.2031 425.45312Q548.7969 425.625 548.28125 425.625Q547.6406 425.625 547.15625 425.375Q546.6719 425.10938 546.40625 424.6875Q546.1406 424.26562 546.1406 423.73438Q546.1406 423.21875 546.3281 422.84375Q546.53125 422.45312 546.90625 422.1875Q547.28125 421.92188 547.8125 421.79688Q548.34375 421.65625 549.0 421.65625L550.25 421.65625ZM554.40625 420.15625L554.40625 425.5L553.3281 425.5L553.3281 419.15625L554.375 419.15625L554.40625 420.15625ZM556.3906 419.125L556.3906 420.125Q556.25 420.10938 556.125 420.09375Q556.0156 420.07812 555.8594 420.07812Q555.4844 420.07812 555.1875 420.20312Q554.90625 420.3125 554.7031 420.53125Q554.5156 420.73438 554.3906 421.03125Q554.28125 421.32812 554.25 421.67188L553.9375 421.84375Q553.9375 421.26562 554.0469 420.76562Q554.1719 420.26562 554.40625 419.875Q554.65625 419.48438 555.0156 419.26562Q555.3906 419.04688 555.90625 419.04688Q556.03125 419.04688 556.1719 419.07812Q556.3281 419.09375 556.3906 419.125ZM559.1094 424.84375L560.875 419.15625L562.03125 419.15625L559.4844 426.48438Q559.40625 426.71875 559.25 426.98438Q559.1094 427.26562 558.8906 427.5Q558.6719 427.75 558.3594 427.90625Q558.0469 428.0625 557.6094 428.0625Q557.4844 428.0625 557.28125 428.01562Q557.0781 427.98438 557.0 427.96875L557.0 427.09375Q557.0469 427.09375 557.1406 427.09375Q557.25 427.10938 557.28125 427.10938Q557.65625 427.10938 557.90625 427.01562Q558.1719 426.92188 558.34375 426.6875Q558.53125 426.46875 558.65625 426.07812L559.1094 424.84375ZM557.8125 419.15625L559.4531 424.07812L559.7344 425.21875L558.96875 425.625L556.625 419.15625L557.8125 419.15625ZM563.0469 422.40625L563.0469 422.26562Q563.0469 421.57812 563.2344 421.0Q563.4375 420.40625 563.8125 419.96875Q564.1875 419.53125 564.71875 419.29688Q565.25 419.04688 565.9219 419.04688Q566.5781 419.04688 567.1094 419.29688Q567.65625 419.53125 568.03125 419.96875Q568.40625 420.40625 568.6094 421.0Q568.8125 421.57812 568.8125 422.26562L568.8125 422.40625Q568.8125 423.07812 568.6094 423.67188Q568.40625 424.25 568.03125 424.6875Q567.65625 425.125 567.125 425.375Q566.59375 425.625 565.9219 425.625Q565.2656 425.625 564.71875 425.375Q564.1875 425.125 563.8125 424.6875Q563.4375 424.25 563.2344 423.67188Q563.0469 423.07812 563.0469 422.40625ZM564.125 422.26562L564.125 422.40625Q564.125 422.875 564.2344 423.29688Q564.34375 423.71875 564.5625 424.04688Q564.7969 424.35938 565.1406 424.54688Q565.4844 424.71875 565.9219 424.71875Q566.375 424.71875 566.7031 424.54688Q567.0469 424.35938 567.2656 424.04688Q567.5 423.71875 567.6094 423.29688Q567.71875 422.875 567.71875 422.40625L567.71875 422.26562Q567.71875 421.79688 567.6094 421.375Q567.5 420.95312 567.2656 420.64062Q567.0469 420.3125 566.7031 420.125Q566.375 419.9375 565.9219 419.9375Q565.46875 419.9375 565.125 420.125Q564.7969 420.3125 564.5625 420.64062Q564.34375 420.95312 564.2344 421.375Q564.125 421.79688 564.125 422.26562ZM571.40625 420.375L571.40625 427.9375L570.3281 427.9375L570.3281 419.15625L571.3125 419.15625L571.40625 420.375ZM575.6875 422.28125L575.6875 422.40625Q575.6875 423.09375 575.5156 423.6875Q575.3594 424.26562 575.0469 424.70312Q574.7344 425.14062 574.2656 425.39062Q573.8125 425.625 573.21875 425.625Q572.625 425.625 572.15625 425.42188Q571.6875 425.21875 571.3594 424.84375Q571.0469 424.45312 570.8594 423.92188Q570.6719 423.39062 570.59375 422.71875L570.59375 422.0625Q570.6719 421.35938 570.8594 420.8125Q571.0469 420.25 571.3594 419.85938Q571.6875 419.45312 572.1406 419.25Q572.6094 419.04688 573.2031 419.04688Q573.7969 419.04688 574.2656 419.28125Q574.7344 419.5 575.0469 419.9375Q575.3594 420.35938 575.5156 420.95312Q575.6875 421.54688 575.6875 422.28125ZM574.59375 422.40625L574.59375 422.28125Q574.59375 421.79688 574.4844 421.39062Q574.3906 420.96875 574.1875 420.65625Q573.9844 420.32812 573.65625 420.14062Q573.3281 419.95312 572.8906 419.95312Q572.4844 419.95312 572.1719 420.09375Q571.875 420.23438 571.65625 420.48438Q571.4531 420.71875 571.3125 421.01562Q571.1875 421.3125 571.125 421.64062L571.125 423.15625Q571.2344 423.5625 571.4375 423.92188Q571.65625 424.28125 572.0 424.5Q572.3594 424.71875 572.90625 424.71875Q573.34375 424.71875 573.65625 424.54688Q573.9844 424.35938 574.1875 424.04688Q574.3906 423.71875 574.4844 423.29688Q574.59375 422.875 574.59375 422.40625ZM578.40625 416.5L578.40625 425.5L577.3281 425.5L577.3281 416.5L578.40625 416.5ZM578.15625 422.09375L577.7031 422.07812Q577.7031 421.42188 577.8906 420.875Q578.0781 420.3125 578.4219 419.90625Q578.7656 419.5 579.2344 419.28125Q579.7031 419.04688 580.28125 419.04688Q580.75 419.04688 581.125 419.17188Q581.5 419.29688 581.7656 419.57812Q582.03125 419.84375 582.1719 420.28125Q582.3125 420.71875 582.3125 421.34375L582.3125 425.5L581.21875 425.5L581.21875 421.32812Q581.21875 420.82812 581.0781 420.53125Q580.9375 420.23438 580.65625 420.09375Q580.375 419.95312 579.9531 419.95312Q579.5469 419.95312 579.21875 420.125Q578.8906 420.29688 578.65625 420.59375Q578.4219 420.89062 578.28125 421.28125Q578.15625 421.65625 578.15625 422.09375ZM586.1094 424.84375L587.875 419.15625L589.03125 419.15625L586.4844 426.48438Q586.40625 426.71875 586.25 426.98438Q586.1094 427.26562 585.8906 427.5Q585.6719 427.75 585.3594 427.90625Q585.0469 428.0625 584.6094 428.0625Q584.4844 428.0625 584.28125 428.01562Q584.0781 427.98438 584.0 427.96875L584.0 427.09375Q584.0469 427.09375 584.1406 427.09375Q584.25 427.10938 584.28125 427.10938Q584.65625 427.10938 584.90625 427.01562Q585.1719 426.92188 585.34375 426.6875Q585.53125 426.46875 585.65625 426.07812L586.1094 424.84375ZM584.8125 419.15625L586.4531 424.07812L586.7344 425.21875L585.96875 425.625L583.625 419.15625L584.8125 419.15625ZM591.5 416.5L591.5 425.5L590.4219 425.5L590.4219 416.5L591.5 416.5ZM594.5 416.5L594.5 425.5L593.4219 425.5L593.4219 416.5L594.5 416.5ZM598.9531 425.625Q598.2969 425.625 597.75 425.40625Q597.21875 425.17188 596.8281 424.76562Q596.4531 424.34375 596.25 423.78125Q596.0469 423.21875 596.0469 422.54688L596.0469 422.3125Q596.0469 421.53125 596.2656 420.92188Q596.5 420.3125 596.8906 419.89062Q597.28125 419.46875 597.78125 419.26562Q598.28125 419.04688 598.8125 419.04688Q599.5 419.04688 599.9844 419.28125Q600.4844 419.51562 600.7969 419.9375Q601.125 420.34375 601.2656 420.92188Q601.4219 421.48438 601.4219 422.14062L601.4219 422.64062L596.6875 422.64062L596.6875 421.75L600.34375 421.75L600.34375 421.67188Q600.3125 421.25 600.15625 420.85938Q600.0156 420.45312 599.6875 420.20312Q599.375 419.9375 598.8125 419.9375Q598.4531 419.9375 598.1406 420.09375Q597.8281 420.25 597.59375 420.5625Q597.375 420.85938 597.25 421.29688Q597.1406 421.73438 597.1406 422.3125L597.1406 422.54688Q597.1406 423.0 597.2656 423.40625Q597.3906 423.79688 597.625 424.09375Q597.875 424.39062 598.21875 424.5625Q598.5781 424.73438 599.0156 424.73438Q599.59375 424.73438 599.9844 424.5Q600.3906 424.26562 600.6875 423.875L601.34375 424.39062Q601.1406 424.70312 600.8125 424.98438Q600.5 425.26562 600.03125 425.45312Q599.5781 425.625 598.9531 425.625ZM603.40625 420.51562L603.40625 425.5L602.3281 425.5L602.3281 419.15625L603.3594 419.15625L603.40625 420.51562ZM603.15625 422.09375L602.7031 422.07812Q602.7031 421.42188 602.8906 420.875Q603.0781 420.3125 603.4219 419.90625Q603.7656 419.5 604.2344 419.28125Q604.7031 419.04688 605.28125 419.04688Q605.75 419.04688 606.125 419.17188Q606.5 419.29688 606.7656 419.57812Q607.03125 419.84375 607.1719 420.28125Q607.3125 420.71875 607.3125 421.34375L607.3125 425.5L606.21875 425.5L606.21875 421.32812Q606.21875 420.82812 606.0781 420.53125Q605.9375 420.23438 605.65625 420.09375Q605.375 419.95312 604.9531 419.95312Q604.5469 419.95312 604.21875 420.125Q603.8906 420.29688 603.65625 420.59375Q603.4219 420.89062 603.28125 421.28125Q603.15625 421.65625 603.15625 422.09375Z" fill-rule="nonzero"/><path stroke="#cccccc" stroke-width="1.0" stroke-linecap="butt" d="M372.0 305.0L372.0 507.0" fill-rule="nonzero"/><path fill="#000000" d="M353.84375 532.96875L354.9375 532.96875L357.73438 539.9219L360.53125 532.96875L361.625 532.96875L358.15625 541.5L357.3125 541.5L353.84375 532.96875ZM353.48438 532.96875L354.45312 532.96875L354.60938 538.1719L354.60938 541.5L353.48438 541.5L353.48438 532.96875ZM361.01562 532.96875L361.98438 532.96875L361.98438 541.5L360.85938 541.5L360.85938 538.1719L361.01562 532.96875ZM365.10938 540.84375L366.875 535.15625L368.03125 535.15625L365.48438 542.4844Q365.40625 542.71875 365.25 542.9844Q365.10938 543.2656 364.89062 543.5Q364.67188 543.75 364.35938 543.90625Q364.04688 544.0625 363.60938 544.0625Q363.48438 544.0625 363.28125 544.0156Q363.07812 543.9844 363.0 543.96875L363.0 543.09375Q363.04688 543.09375 363.14062 543.09375Q363.25 543.1094 363.28125 543.1094Q363.65625 543.1094 363.90625 543.0156Q364.17188 542.9219 364.34375 542.6875Q364.53125 542.46875 364.65625 542.0781L365.10938 540.84375ZM363.8125 535.15625L365.45312 540.0781L365.73438 541.21875L364.96875 541.625L362.625 535.15625L363.8125 535.15625ZM370.40625 536.15625L370.40625 541.5L369.32812 541.5L369.32812 535.15625L370.375 535.15625L370.40625 536.15625ZM372.39062 535.125L372.39062 536.125Q372.25 536.1094 372.125 536.09375Q372.01562 536.0781 371.85938 536.0781Q371.48438 536.0781 371.1875 536.2031Q370.90625 536.3125 370.70312 536.53125Q370.51562 536.7344 370.39062 537.03125Q370.28125 537.3281 370.25 537.6719L369.9375 537.84375Q369.9375 537.2656 370.04688 536.7656Q370.17188 536.2656 370.40625 535.875Q370.65625 535.4844 371.01562 535.2656Q371.39062 535.0469 371.90625 535.0469Q372.03125 535.0469 372.17188 535.0781Q372.32812 535.09375 372.39062 535.125ZM375.85938 540.71875Q376.25 540.71875 376.57812 540.5625Q376.90625 540.40625 377.10938 540.1406Q377.32812 539.8594 377.35938 539.5L378.39062 539.5Q378.35938 540.0625 378.0 540.5469Q377.65625 541.03125 377.09375 541.3281Q376.53125 541.625 375.85938 541.625Q375.15625 541.625 374.625 541.375Q374.09375 541.1094 373.73438 540.6719Q373.39062 540.2344 373.21875 539.6719Q373.04688 539.09375 373.04688 538.4531L373.04688 538.2031Q373.04688 537.5625 373.21875 537.0Q373.39062 536.4219 373.73438 535.9844Q374.09375 535.5469 374.625 535.2969Q375.15625 535.0469 375.85938 535.0469Q376.60938 535.0469 377.15625 535.34375Q377.71875 535.6406 378.03125 536.1719Q378.35938 536.6875 378.39062 537.34375L377.35938 537.34375Q377.32812 536.9531 377.14062 536.6406Q376.95312 536.3125 376.625 536.125Q376.29688 535.9375 375.85938 535.9375Q375.35938 535.9375 375.01562 536.1406Q374.6875 536.3281 374.48438 536.65625Q374.29688 536.9844 374.20312 537.3906Q374.125 537.7969 374.125 538.2031L374.125 538.4531Q374.125 538.875 374.20312 539.28125Q374.29688 539.6719 374.48438 540.0Q374.6875 540.3281 375.01562 540.53125Q375.35938 540.71875 375.85938 540.71875ZM381.95312 541.625Q381.29688 541.625 380.75 541.40625Q380.21875 541.1719 379.82812 540.7656Q379.45312 540.34375 379.25 539.78125Q379.04688 539.21875 379.04688 538.5469L379.04688 538.3125Q379.04688 537.53125 379.26562 536.9219Q379.5 536.3125 379.89062 535.8906Q380.28125 535.46875 380.78125 535.2656Q381.28125 535.0469 381.8125 535.0469Q382.5 535.0469 382.98438 535.28125Q383.48438 535.5156 383.79688 535.9375Q384.125 536.34375 384.26562 536.9219Q384.42188 537.4844 384.42188 538.1406L384.42188 538.6406L379.6875 538.6406L379.6875 537.75L383.34375 537.75L383.34375 537.6719Q383.3125 537.25 383.15625 536.8594Q383.01562 536.4531 382.6875 536.2031Q382.375 535.9375 381.8125 535.9375Q381.45312 535.9375 381.14062 536.09375Q380.82812 536.25 380.59375 536.5625Q380.375 536.8594 380.25 537.2969Q380.14062 537.7344 380.14062 538.3125L380.14062 538.5469Q380.14062 539.0 380.26562 539.40625Q380.39062 539.7969 380.625 540.09375Q380.875 540.3906 381.21875 540.5625Q381.57812 540.7344 382.01562 540.7344Q382.59375 540.7344 382.98438 540.5Q383.39062 540.2656 383.6875 539.875L384.34375 540.3906Q384.14062 540.7031 383.8125 540.9844Q383.5 541.2656 383.03125 541.4531Q382.57812 541.625 381.95312 541.625ZM386.40625 536.5156L386.40625 541.5L385.32812 541.5L385.32812 535.15625L386.35938 535.15625L386.40625 536.5156ZM386.15625 538.09375L385.70312 538.0781Q385.70312 537.4219 385.89062 536.875Q386.07812 536.3125 386.42188 535.90625Q386.76562 535.5 387.23438 535.28125Q387.70312 535.0469 388.28125 535.0469Q388.75 535.0469 389.125 535.1719Q389.5 535.2969 389.76562 535.5781Q390.03125 535.84375 390.17188 536.28125Q390.3125 536.71875 390.3125 537.34375L390.3125 541.5L389.21875 541.5L389.21875 537.3281Q389.21875 536.8281 389.07812 536.53125Q388.9375 536.2344 388.65625 536.09375Q388.375 535.9531 387.95312 535.9531Q387.54688 535.9531 387.21875 536.125Q386.89062 536.2969 386.65625 536.59375Q386.42188 536.8906 386.28125 537.28125Q386.15625 537.65625 386.15625 538.09375Z" fill-rule="nonzero"/><path stroke="#cccccc" stroke-width="1.0" stroke-linecap="butt" d="M372.0 305.0L197.0 406.0" fill-rule="nonzero"/><path fill="#000000" d="M153.67188 424.57812L153.67188 425.5L149.40625 425.5L149.40625 424.57812L153.67188 424.57812ZM149.625 416.96875L149.625 425.5L148.48438 425.5L148.48438 416.96875L149.625 416.96875ZM155.5 419.15625L155.5 425.5L154.42188 425.5L154.42188 419.15625L155.5 419.15625ZM154.32812 417.48438Q154.32812 417.21875 154.48438 417.03125Q154.65625 416.84375 154.96875 416.84375Q155.28125 416.84375 155.4375 417.03125Q155.60938 417.21875 155.60938 417.48438Q155.60938 417.73438 155.4375 417.92188Q155.28125 418.09375 154.96875 418.09375Q154.65625 418.09375 154.48438 417.92188Q154.32812 417.73438 154.32812 417.48438ZM158.40625 420.42188L158.40625 425.5L157.3125 425.5L157.3125 419.15625L158.34375 419.15625L158.40625 420.42188ZM158.1875 422.09375L157.67188 422.07812Q157.6875 421.42188 157.84375 420.875Q158.01562 420.3125 158.32812 419.90625Q158.65625 419.5 159.14062 419.28125Q159.625 419.04688 160.25 419.04688Q160.70312 419.04688 161.07812 419.17188Q161.45312 419.29688 161.71875 419.5625Q162.0 419.82812 162.14062 420.25Q162.29688 420.67188 162.29688 421.28125L162.29688 425.5L161.21875 425.5L161.21875 421.32812Q161.21875 420.82812 161.04688 420.53125Q160.89062 420.23438 160.57812 420.09375Q160.28125 419.95312 159.85938 419.95312Q159.39062 419.95312 159.0625 420.125Q158.73438 420.29688 158.54688 420.59375Q158.35938 420.89062 158.26562 421.28125Q158.1875 421.65625 158.1875 422.09375ZM162.29688 421.48438L161.5625 421.71875Q161.5625 421.1875 161.73438 420.71875Q161.90625 420.23438 162.21875 419.85938Q162.54688 419.48438 163.01562 419.26562Q163.48438 419.04688 164.07812 419.04688Q164.59375 419.04688 164.98438 419.1875Q165.39062 419.3125 165.65625 419.59375Q165.92188 419.875 166.0625 420.3125Q166.20312 420.73438 166.20312 421.32812L166.20312 425.5L165.125 425.5L165.125 421.32812Q165.125 420.78125 164.95312 420.5Q164.78125 420.20312 164.48438 420.07812Q164.1875 419.95312 163.76562 419.95312Q163.40625 419.95312 163.125 420.07812Q162.85938 420.20312 162.67188 420.42188Q162.48438 420.625 162.39062 420.90625Q162.29688 421.1875 162.29688 421.48438ZM168.04688 422.40625L168.04688 422.26562Q168.04688 421.57812 168.23438 421.0Q168.4375 420.40625 168.8125 419.96875Q169.1875 419.53125 169.71875 419.29688Q170.25 419.04688 170.92188 419.04688Q171.57812 419.04688 172.10938 419.29688Q172.65625 419.53125 173.03125 419.96875Q173.40625 420.40625 173.60938 421.0Q173.8125 421.57812 173.8125 422.26562L173.8125 422.40625Q173.8125 423.07812 173.60938 423.67188Q173.40625 424.25 173.03125 424.6875Q172.65625 425.125 172.125 425.375Q171.59375 425.625 170.92188 425.625Q170.26562 425.625 169.71875 425.375Q169.1875 425.125 168.8125 424.6875Q168.4375 424.25 168.23438 423.67188Q168.04688 423.07812 168.04688 422.40625ZM169.125 422.26562L169.125 422.40625Q169.125 422.875 169.23438 423.29688Q169.34375 423.71875 169.5625 424.04688Q169.79688 424.35938 170.14062 424.54688Q170.48438 424.71875 170.92188 424.71875Q171.375 424.71875 171.70312 424.54688Q172.04688 424.35938 172.26562 424.04688Q172.5 423.71875 172.60938 423.29688Q172.71875 422.875 172.71875 422.40625L172.71875 422.26562Q172.71875 421.79688 172.60938 421.375Q172.5 420.95312 172.26562 420.64062Q172.04688 420.3125 171.70312 420.125Q171.375 419.9375 170.92188 419.9375Q170.46875 419.9375 170.125 420.125Q169.79688 420.3125 169.5625 420.64062Q169.34375 420.95312 169.23438 421.375Q169.125 421.79688 169.125 422.26562ZM176.40625 420.51562L176.40625 425.5L175.32812 425.5L175.32812 419.15625L176.35938 419.15625L176.40625 420.51562ZM176.15625 422.09375L175.70312 422.07812Q175.70312 421.42188 175.89062 420.875Q176.07812 420.3125 176.42188 419.90625Q176.76562 419.5 177.23438 419.28125Q177.70312 419.04688 178.28125 419.04688Q178.75 419.04688 179.125 419.17188Q179.5 419.29688 179.76562 419.57812Q180.03125 419.84375 180.17188 420.28125Q180.3125 420.71875 180.3125 421.34375L180.3125 425.5L179.21875 425.5L179.21875 421.32812Q179.21875 420.82812 179.07812 420.53125Q178.9375 420.23438 178.65625 420.09375Q178.375 419.95312 177.95312 419.95312Q177.54688 419.95312 177.21875 420.125Q176.89062 420.29688 176.65625 420.59375Q176.42188 420.89062 176.28125 421.28125Q176.15625 421.65625 176.15625 422.09375ZM184.95312 425.625Q184.29688 425.625 183.75 425.40625Q183.21875 425.17188 182.82812 424.76562Q182.45312 424.34375 182.25 423.78125Q182.04688 423.21875 182.04688 422.54688L182.04688 422.3125Q182.04688 421.53125 182.26562 420.92188Q182.5 420.3125 182.89062 419.89062Q183.28125 419.46875 183.78125 419.26562Q184.28125 419.04688 184.8125 419.04688Q185.5 419.04688 185.98438 419.28125Q186.48438 419.51562 186.79688 419.9375Q187.125 420.34375 187.26562 420.92188Q187.42188 421.48438 187.42188 422.14062L187.42188 422.64062L182.6875 422.64062L182.6875 421.75L186.34375 421.75L186.34375 421.67188Q186.3125 421.25 186.15625 420.85938Q186.01562 420.45312 185.6875 420.20312Q185.375 419.9375 184.8125 419.9375Q184.45312 419.9375 184.14062 420.09375Q183.82812 420.25 183.59375 420.5625Q183.375 420.85938 183.25 421.29688Q183.14062 421.73438 183.14062 422.3125L183.14062 422.54688Q183.14062 423.0 183.26562 423.40625Q183.39062 423.79688 183.625 424.09375Q183.875 424.39062 184.21875 424.5625Q184.57812 424.73438 185.01562 424.73438Q185.59375 424.73438 185.98438 424.5Q186.39062 424.26562 186.6875 423.875L187.34375 424.39062Q187.14062 424.70312 186.8125 424.98438Q186.5 425.26562 186.03125 425.45312Q185.57812 425.625 184.95312 425.625ZM189.40625 420.51562L189.40625 425.5L188.32812 425.5L188.32812 419.15625L189.35938 419.15625L189.40625 420.51562ZM189.15625 422.09375L188.70312 422.07812Q188.70312 421.42188 188.89062 420.875Q189.07812 420.3125 189.42188 419.90625Q189.76562 419.5 190.23438 419.28125Q190.70312 419.04688 191.28125 419.04688Q191.75 419.04688 192.125 419.17188Q192.5 419.29688 192.76562 419.57812Q193.03125 419.84375 193.17188 420.28125Q193.3125 420.71875 193.3125 421.34375L193.3125 425.5L192.21875 425.5L192.21875 421.32812Q192.21875 420.82812 192.07812 420.53125Q191.9375 420.23438 191.65625 420.09375Q191.375 419.95312 190.95312 419.95312Q190.54688 419.95312 190.21875 420.125Q189.89062 420.29688 189.65625 420.59375Q189.42188 420.89062 189.28125 421.28125Q189.15625 421.65625 189.15625 422.09375Z" fill-rule="nonzero"/><path stroke="#cccccc" stroke-width="1.0" stroke-linecap="butt" d="M372.0 305.0L197.0 204.0" fill-rule="nonzero"/><path fill="#000000" d="M153.03125 191.34375Q153.03125 191.04688 152.9375 190.8125Q152.85938 190.57812 152.625 190.39062Q152.40625 190.20312 152.0 190.03125Q151.60938 189.85938 151.01562 189.6875Q150.375 189.5 149.85938 189.28125Q149.35938 189.04688 148.98438 188.75Q148.625 188.4375 148.4375 188.0625Q148.25 187.67188 148.25 187.17188Q148.25 186.67188 148.45312 186.25Q148.65625 185.82812 149.03125 185.51562Q149.42188 185.20312 149.95312 185.03125Q150.48438 184.84375 151.14062 184.84375Q152.10938 184.84375 152.78125 185.21875Q153.45312 185.57812 153.79688 186.17188Q154.15625 186.76562 154.15625 187.42188L153.03125 187.42188Q153.03125 186.95312 152.8125 186.57812Q152.60938 186.20312 152.1875 186.0Q151.78125 185.78125 151.14062 185.78125Q150.54688 185.78125 150.14062 185.96875Q149.75 186.14062 149.5625 186.45312Q149.375 186.76562 149.375 187.15625Q149.375 187.42188 149.48438 187.65625Q149.60938 187.875 149.84375 188.0625Q150.09375 188.25 150.46875 188.40625Q150.84375 188.5625 151.375 188.70312Q152.09375 188.90625 152.625 189.17188Q153.15625 189.42188 153.5 189.73438Q153.84375 190.04688 154.0 190.4375Q154.17188 190.82812 154.17188 191.32812Q154.17188 191.85938 153.95312 192.28125Q153.75 192.70312 153.35938 193.0Q152.96875 193.29688 152.42188 193.46875Q151.875 193.625 151.20312 193.625Q150.60938 193.625 150.03125 193.45312Q149.46875 193.28125 149.0 192.95312Q148.53125 192.625 148.25 192.15625Q147.96875 191.67188 147.96875 191.03125L149.09375 191.03125Q149.09375 191.46875 149.26562 191.78125Q149.4375 192.09375 149.73438 192.29688Q150.03125 192.5 150.40625 192.60938Q150.78125 192.70312 151.20312 192.70312Q151.79688 192.70312 152.20312 192.54688Q152.60938 192.375 152.8125 192.07812Q153.03125 191.76562 153.03125 191.34375ZM155.04688 190.40625L155.04688 190.26562Q155.04688 189.57812 155.23438 189.0Q155.4375 188.40625 155.8125 187.96875Q156.1875 187.53125 156.71875 187.29688Q157.25 187.04688 157.92188 187.04688Q158.57812 187.04688 159.10938 187.29688Q159.65625 187.53125 160.03125 187.96875Q160.40625 188.40625 160.60938 189.0Q160.8125 189.57812 160.8125 190.26562L160.8125 190.40625Q160.8125 191.07812 160.60938 191.67188Q160.40625 192.25 160.03125 192.6875Q159.65625 193.125 159.125 193.375Q158.59375 193.625 157.92188 193.625Q157.26562 193.625 156.71875 193.375Q156.1875 193.125 155.8125 192.6875Q155.4375 192.25 155.23438 191.67188Q155.04688 191.07812 155.04688 190.40625ZM156.125 190.26562L156.125 190.40625Q156.125 190.875 156.23438 191.29688Q156.34375 191.71875 156.5625 192.04688Q156.79688 192.35938 157.14062 192.54688Q157.48438 192.71875 157.92188 192.71875Q158.375 192.71875 158.70312 192.54688Q159.04688 192.35938 159.26562 192.04688Q159.5 191.71875 159.60938 191.29688Q159.71875 190.875 159.71875 190.40625L159.71875 190.26562Q159.71875 189.79688 159.60938 189.375Q159.5 188.95312 159.26562 188.64062Q159.04688 188.3125 158.70312 188.125Q158.375 187.9375 157.92188 187.9375Q157.46875 187.9375 157.125 188.125Q156.79688 188.3125 156.5625 188.64062Q156.34375 188.95312 156.23438 189.375Q156.125 189.79688 156.125 190.26562ZM163.40625 188.51562L163.40625 193.5L162.32812 193.5L162.32812 187.15625L163.35938 187.15625L163.40625 188.51562ZM163.15625 190.09375L162.70312 190.07812Q162.70312 189.42188 162.89062 188.875Q163.07812 188.3125 163.42188 187.90625Q163.76562 187.5 164.23438 187.28125Q164.70312 187.04688 165.28125 187.04688Q165.75 187.04688 166.125 187.17188Q166.5 187.29688 166.76562 187.57812Q167.03125 187.84375 167.17188 188.28125Q167.3125 188.71875 167.3125 189.34375L167.3125 193.5L166.21875 193.5L166.21875 189.32812Q166.21875 188.82812 166.07812 188.53125Q165.9375 188.23438 165.65625 188.09375Q165.375 187.95312 164.95312 187.95312Q164.54688 187.95312 164.21875 188.125Q163.89062 188.29688 163.65625 188.59375Q163.42188 188.89062 163.28125 189.28125Q163.15625 189.65625 163.15625 190.09375ZM173.01562 191.8125Q173.01562 191.57812 172.90625 191.375Q172.8125 191.17188 172.5 191.01562Q172.1875 190.84375 171.5625 190.71875Q171.03125 190.60938 170.60938 190.46875Q170.1875 190.3125 169.89062 190.09375Q169.59375 189.875 169.4375 189.57812Q169.28125 189.28125 169.28125 188.89062Q169.28125 188.51562 169.4375 188.1875Q169.60938 187.84375 169.90625 187.59375Q170.21875 187.32812 170.65625 187.1875Q171.09375 187.04688 171.625 187.04688Q172.39062 187.04688 172.92188 187.3125Q173.46875 187.57812 173.75 188.03125Q174.03125 188.48438 174.03125 189.01562L172.95312 189.01562Q172.95312 188.76562 172.79688 188.51562Q172.64062 188.26562 172.34375 188.10938Q172.04688 187.9375 171.625 187.9375Q171.17188 187.9375 170.89062 188.07812Q170.60938 188.20312 170.48438 188.42188Q170.35938 188.625 170.35938 188.85938Q170.35938 189.04688 170.42188 189.1875Q170.48438 189.3125 170.64062 189.4375Q170.79688 189.54688 171.07812 189.65625Q171.375 189.75 171.82812 189.84375Q172.60938 190.01562 173.10938 190.26562Q173.60938 190.51562 173.85938 190.875Q174.10938 191.21875 174.10938 191.73438Q174.10938 192.15625 173.92188 192.5Q173.75 192.84375 173.42188 193.09375Q173.10938 193.34375 172.65625 193.48438Q172.20312 193.625 171.65625 193.625Q170.8125 193.625 170.23438 193.32812Q169.65625 193.01562 169.35938 192.54688Q169.0625 192.0625 169.0625 191.54688L170.14062 191.54688Q170.17188 191.98438 170.40625 192.25Q170.64062 192.51562 170.96875 192.625Q171.3125 192.71875 171.65625 192.71875Q172.09375 192.71875 172.39062 192.60938Q172.70312 192.48438 172.85938 192.28125Q173.01562 192.07812 173.01562 191.8125ZM177.98438 187.15625L177.98438 187.98438L174.54688 187.98438L174.54688 187.15625L177.98438 187.15625ZM175.71875 185.625L176.79688 185.625L176.79688 191.92188Q176.79688 192.25 176.89062 192.42188Q177.0 192.57812 177.15625 192.64062Q177.3125 192.6875 177.5 192.6875Q177.625 192.6875 177.76562 192.65625Q177.92188 192.625 178.0 192.60938L178.01562 193.5Q177.875 193.54688 177.67188 193.57812Q177.46875 193.625 177.17188 193.625Q176.78125 193.625 176.4375 193.46875Q176.10938 193.29688 175.90625 192.9375Q175.71875 192.5625 175.71875 191.92188L175.71875 185.625ZM180.5 187.15625L180.5 193.5L179.42188 193.5L179.42188 187.15625L180.5 187.15625ZM179.32812 185.48438Q179.32812 185.21875 179.48438 185.03125Q179.65625 184.84375 179.96875 184.84375Q180.28125 184.84375 180.4375 185.03125Q180.60938 185.21875 180.60938 185.48438Q180.60938 185.73438 180.4375 185.92188Q180.28125 186.09375 179.96875 186.09375Q179.65625 186.09375 179.48438 185.92188Q179.32812 185.73438 179.32812 185.48438ZM186.4375 187.15625L187.42188 187.15625L187.42188 193.35938Q187.42188 194.20312 187.07812 194.79688Q186.73438 195.39062 186.125 195.6875Q185.53125 196.0 184.73438 196.0Q184.40625 196.0 183.95312 195.89062Q183.51562 195.79688 183.09375 195.54688Q182.67188 195.3125 182.39062 194.90625L182.95312 194.25Q183.35938 194.73438 183.78125 194.92188Q184.21875 195.10938 184.65625 195.10938Q185.17188 195.10938 185.54688 194.90625Q185.92188 194.71875 186.125 194.34375Q186.32812 193.96875 186.32812 193.42188L186.32812 188.54688L186.4375 187.15625ZM182.0625 190.40625L182.0625 190.28125Q182.0625 189.54688 182.23438 188.95312Q182.42188 188.35938 182.73438 187.9375Q183.0625 187.5 183.51562 187.28125Q183.98438 187.04688 184.57812 187.04688Q185.17188 187.04688 185.60938 187.25Q186.0625 187.45312 186.375 187.85938Q186.6875 188.25 186.875 188.8125Q187.0625 189.35938 187.125 190.0625L187.125 190.60938Q187.0625 191.29688 186.875 191.85938Q186.6875 192.42188 186.375 192.8125Q186.0625 193.20312 185.60938 193.42188Q185.15625 193.625 184.5625 193.625Q183.98438 193.625 183.53125 193.39062Q183.07812 193.14062 182.75 192.70312Q182.42188 192.26562 182.23438 191.6875Q182.0625 191.09375 182.0625 190.40625ZM183.15625 190.28125L183.15625 190.40625Q183.15625 190.875 183.25 191.29688Q183.34375 191.70312 183.54688 192.03125Q183.75 192.34375 184.0625 192.53125Q184.39062 192.70312 184.82812 192.70312Q185.35938 192.70312 185.70312 192.46875Q186.0625 192.23438 186.26562 191.85938Q186.48438 191.48438 186.59375 191.04688L186.59375 189.64062Q186.53125 189.3125 186.39062 189.01562Q186.26562 188.71875 186.0625 188.48438Q185.85938 188.23438 185.54688 188.09375Q185.25 187.95312 184.82812 187.95312Q184.39062 187.95312 184.0625 188.14062Q183.75 188.32812 183.54688 188.65625Q183.34375 188.96875 183.25 189.39062Q183.15625 189.79688 183.15625 190.28125ZM191.95312 193.625Q191.29688 193.625 190.75 193.40625Q190.21875 193.17188 189.82812 192.76562Q189.45312 192.34375 189.25 191.78125Q189.04688 191.21875 189.04688 190.54688L189.04688 190.3125Q189.04688 189.53125 189.26562 188.92188Q189.5 188.3125 189.89062 187.89062Q190.28125 187.46875 190.78125 187.26562Q191.28125 187.04688 191.8125 187.04688Q192.5 187.04688 192.98438 187.28125Q193.48438 187.51562 193.79688 187.9375Q194.125 188.34375 194.26562 188.92188Q194.42188 189.48438 194.42188 190.14062L194.42188 190.64062L189.6875 190.64062L189.6875 189.75L193.34375 189.75L193.34375 189.67188Q193.3125 189.25 193.15625 188.85938Q193.01562 188.45312 192.6875 188.20312Q192.375 187.9375 191.8125 187.9375Q191.45312 187.9375 191.14062 188.09375Q190.82812 188.25 190.59375 188.5625Q190.375 188.85938 190.25 189.29688Q190.14062 189.73438 190.14062 190.3125L190.14062 190.54688Q190.14062 191.0 190.26562 191.40625Q190.39062 191.79688 190.625 192.09375Q190.875 192.39062 191.21875 192.5625Q191.57812 192.73438 192.01562 192.73438Q192.59375 192.73438 192.98438 192.5Q193.39062 192.26562 193.6875 191.875L194.34375 192.39062Q194.14062 192.70312 193.8125 192.98438Q193.5 193.26562 193.03125 193.45312Q192.57812 193.625 191.95312 193.625Z" fill-rule="nonzero"/><path stroke="#cccccc" stroke-width="1.0" stroke-linecap="butt" d="M372.0 305.0L372.0 103.0" fill-rule="nonzero"/><path stroke="#ff0000" stroke-width="2.0" stroke-linecap="butt" stroke-opacity="0.7019608" stroke-dasharray="8.0,6.0,2.0,6.0" d="M372.0 149.0L494.0 234.0L416.0 330.0L372.0 350.0L350.0 318.0L306.0 267.0Z" fill-rule="nonzero"/><path fill="#ff0000" fill-opacity="0.7019608" d="M368.81802 145.81802L372.0 147.875L375.18198 145.81802L373.125 149.0L375.18198 152.18198L372.0 150.125L368.81802 152.18198L370.875 149.0Z" fill-rule="nonzero"/><path fill="#ff0000" fill-opacity="0.7019608" d="M490.81802 230.81802L494.0 232.875L497.18198 230.81802L495.125 234.0L497.18198 237.18198L494.0 235.125L490.81802 237.18198L492.875 234.0Z" fill-rule="nonzero"/><path fill="#ff0000" fill-opacity="0.7019608" d="M412.81802 326.81802L416.0 328.875L419.18198 326.81802L417.125 330.0L419.18198 333.18198L416.0 331.125L412.81802 333.18198L414.875 330.0Z" fill-rule="nonzero"/><path fill="#ff0000" fill-opacity="0.7019608" d="M368.81802 346.81802L372.0 348.875L375.18198 346.81802L373.125 350.0L375.18198 353.18198L372.0 351.125L368.81802 353.18198L370.875 350.0Z" fill-rule="nonzero"/><path fill="#ff0000" fill-opacity="0.7019608" d="M346.81802 314.81802L350.0 316.875L353.18198 314.81802L351.125 318.0L353.18198 321.18198L350.0 319.125L346.81802 321.18198L348.875 318.0Z" fill-rule="nonzero"/><path fill="#ff0000" fill-opacity="0.7019608" d="M302.81802 263.81802L306.0 265.875L309.18198 263.81802L307.125 267.0L309.18198 270.18198L306.0 268.125L302.81802 270.18198L304.875 267.0Z" fill-rule="nonzero"/><path fill="#757575" d="M29.81875 47.35L29.81875 33.0375L31.709375 33.0375L31.709375 45.6625L38.75625 45.6625L38.75625 47.35L29.81875 47.35ZM40.678123 35.053123L40.678123 33.0375L42.44375 33.0375L42.44375 35.053123L40.678123 35.053123ZM40.678123 47.35L40.678123 36.975L42.44375 36.975L42.44375 47.35L40.678123 47.35ZM44.63125 47.35L44.63125 33.0375L46.38125 33.0375L46.38125 47.35L44.63125 47.35ZM55.44375 46.06875Q54.459373 46.896873 53.553123 47.240623Q52.646873 47.584373 51.615623 47.584373Q49.9125 47.584373 48.990623 46.75625Q48.06875 45.9125 48.06875 44.615623Q48.06875 43.85 48.4125 43.225Q48.771873 42.6 49.334373 42.225Q49.896873 41.834373 50.6 41.63125Q51.115623 41.50625 52.1625 41.365623Q54.2875 41.115623 55.2875 40.771873Q55.303123 40.4125 55.303123 40.303123Q55.303123 39.240623 54.803123 38.7875Q54.13125 38.19375 52.803123 38.19375Q51.553123 38.19375 50.959373 38.63125Q50.38125 39.06875 50.1 40.178123L48.38125 39.94375Q48.615623 38.834373 49.146873 38.1625Q49.678123 37.475 50.69375 37.115623Q51.709373 36.740623 53.053123 36.740623Q54.38125 36.740623 55.209373 37.053123Q56.0375 37.365623 56.428123 37.85Q56.81875 38.31875 56.975 39.0375Q57.06875 39.490623 57.06875 40.6625L57.06875 43.00625Q57.06875 45.459373 57.178123 46.115623Q57.2875 46.75625 57.63125 47.35L55.7875 47.35Q55.521873 46.803123 55.44375 46.06875ZM55.2875 42.146873Q54.334373 42.5375 52.4125 42.803123Q51.334373 42.959373 50.88125 43.1625Q50.44375 43.35 50.19375 43.725Q49.94375 44.1 49.94375 44.56875Q49.94375 45.271873 50.475 45.740623Q51.00625 46.209373 52.0375 46.209373Q53.053123 46.209373 53.834373 45.771873Q54.63125 45.31875 55.00625 44.553123Q55.2875 43.94375 55.2875 42.7875L55.2875 42.146873ZM66.44375 43.553123L68.1625 43.771873Q67.88125 45.56875 66.70937 46.584373Q65.55312 47.584373 63.85 47.584373Q61.725 47.584373 60.428123 46.19375Q59.13125 44.803123 59.13125 42.209373Q59.13125 40.521873 59.678123 39.271873Q60.240623 38.00625 61.38125 37.38125Q62.521873 36.740623 63.865623 36.740623Q65.55312 36.740623 66.61562 37.6Q67.69375 38.459373 68.00625 40.021873L66.2875 40.2875Q66.05312 39.240623 65.42812 38.725Q64.80312 38.19375 63.928123 38.19375Q62.6 38.19375 61.771873 39.146873Q60.94375 40.1 60.94375 42.146873Q60.94375 44.240623 61.740623 45.19375Q62.5375 46.13125 63.834373 46.13125Q64.86562 46.13125 65.55312 45.50625Q66.25625 44.865623 66.44375 43.553123ZM75.83437 47.35L75.83437 33.0375L78.69375 33.0375L82.06875 43.1625Q82.5375 44.584373 82.75625 45.2875Q83.00625 44.50625 83.52187 42.990623L86.94375 33.0375L89.49062 33.0375L89.49062 47.35L87.67812 47.35L87.67812 35.365623L83.50625 47.35L81.80312 47.35L77.6625 35.1625L77.6625 47.35L75.83437 47.35ZM99.44375 46.06875Q98.45937 46.896873 97.55312 47.240623Q96.64687 47.584373 95.61562 47.584373Q93.9125 47.584373 92.99062 46.75625Q92.06875 45.9125 92.06875 44.615623Q92.06875 43.85 92.4125 43.225Q92.77187 42.6 93.33437 42.225Q93.89687 41.834373 94.6 41.63125Q95.11562 41.50625 96.1625 41.365623Q98.2875 41.115623 99.2875 40.771873Q99.30312 40.4125 99.30312 40.303123Q99.30312 39.240623 98.80312 38.7875Q98.13125 38.19375 96.80312 38.19375Q95.55312 38.19375 94.95937 38.63125Q94.38125 39.06875 94.1 40.178123L92.38125 39.94375Q92.61562 38.834373 93.14687 38.1625Q93.67812 37.475 94.69375 37.115623Q95.70937 36.740623 97.05312 36.740623Q98.38125 36.740623 99.20937 37.053123Q100.0375 37.365623 100.42812 37.85Q100.81875 38.31875 100.975 39.0375Q101.06875 39.490623 101.06875 40.6625L101.06875 43.00625Q101.06875 45.459373 101.17812 46.115623Q101.2875 46.75625 101.63125 47.35L99.7875 47.35Q99.52187 46.803123 99.44375 46.06875ZM99.2875 42.146873Q98.33437 42.5375 96.4125 42.803123Q95.33437 42.959373 94.88125 43.1625Q94.44375 43.35 94.19375 43.725Q93.94375 44.1 93.94375 44.56875Q93.94375 45.271873 94.475 45.740623Q95.00625 46.209373 96.0375 46.209373Q97.05312 46.209373 97.83437 45.771873Q98.63125 45.31875 99.00625 44.553123Q99.2875 43.94375 99.2875 42.7875L99.2875 42.146873ZM103.6625 47.35L103.6625 36.975L105.25625 36.975L105.25625 38.459373Q106.39687 36.740623 108.55312 36.740623Q109.49062 36.740623 110.27187 37.084373Q111.06875 37.4125 111.45937 37.959373Q111.85 38.50625 112.00625 39.25625Q112.1 39.75625 112.1 40.975L112.1 47.35L110.33437 47.35L110.33437 41.0375Q110.33437 39.959373 110.13125 39.428123Q109.92812 38.896873 109.39687 38.584373Q108.88125 38.271873 108.17812 38.271873Q107.05312 38.271873 106.24062 38.990623Q105.42812 39.69375 105.42812 41.678123L105.42812 47.35L103.6625 47.35ZM120.39687 47.35L120.39687 46.0375Q119.4125 47.584373 117.49062 47.584373Q116.25625 47.584373 115.20937 46.896873Q114.17812 46.209373 113.6 44.990623Q113.0375 43.771873 113.0375 42.178123Q113.0375 40.615623 113.55312 39.35Q114.06875 38.084373 115.1 37.4125Q116.14687 36.740623 117.4125 36.740623Q118.35 36.740623 119.08437 37.146873Q119.81875 37.5375 120.2875 38.1625L120.2875 33.0375L122.02187 33.0375L122.02187 47.35L120.39687 47.35ZM114.83437 42.178123Q114.83437 44.1625 115.67812 45.146873Q116.52187 46.13125 117.6625 46.13125Q118.81875 46.13125 119.61562 45.19375Q120.42812 44.25625 120.42812 42.31875Q120.42812 40.19375 119.6 39.19375Q118.7875 38.19375 117.58437 38.19375Q116.4125 38.19375 115.61562 39.1625Q114.83437 40.115623 114.83437 42.178123ZM131.44376 46.06875Q130.45938 46.896873 129.55313 47.240623Q128.64688 47.584373 127.61562 47.584373Q125.9125 47.584373 124.99062 46.75625Q124.06875 45.9125 124.06875 44.615623Q124.06875 43.85 124.4125 43.225Q124.77187 42.6 125.33437 42.225Q125.89687 41.834373 126.6 41.63125Q127.11562 41.50625 128.1625 41.365623Q130.2875 41.115623 131.2875 40.771873Q131.30313 40.4125 131.30313 40.303123Q131.30313 39.240623 130.80313 38.7875Q130.13126 38.19375 128.80313 38.19375Q127.55312 38.19375 126.95937 38.63125Q126.38125 39.06875 126.1 40.178123L124.38125 39.94375Q124.61562 38.834373 125.14687 38.1625Q125.67812 37.475 126.69375 37.115623Q127.70937 36.740623 129.05313 36.740623Q130.38126 36.740623 131.20938 37.053123Q132.0375 37.365623 132.42813 37.85Q132.81876 38.31875 132.975 39.0375Q133.06876 39.490623 133.06876 40.6625L133.06876 43.00625Q133.06876 45.459373 133.17813 46.115623Q133.2875 46.75625 133.63126 47.35L131.7875 47.35Q131.52188 46.803123 131.44376 46.06875ZM131.2875 42.146873Q130.33438 42.5375 128.4125 42.803123Q127.33437 42.959373 126.88125 43.1625Q126.44375 43.35 126.19375 43.725Q125.94375 44.1 125.94375 44.56875Q125.94375 45.271873 126.475 45.740623Q127.00625 46.209373 128.0375 46.209373Q129.05313 46.209373 129.83438 45.771873Q130.63126 45.31875 131.00626 44.553123Q131.2875 43.94375 131.2875 42.7875L131.2875 42.146873ZM135.64688 47.35L135.64688 36.975L137.225 36.975L137.225 38.553123Q137.83438 37.44375 138.35 37.1Q138.86563 36.740623 139.475 36.740623Q140.36563 36.740623 141.2875 37.303123L140.67813 38.94375Q140.0375 38.553123 139.39688 38.553123Q138.81876 38.553123 138.35 38.9125Q137.89688 39.25625 137.69376 39.865623Q137.4125 40.803123 137.4125 41.9125L137.4125 47.35L135.64688 47.35ZM142.67813 35.053123L142.67813 33.0375L144.44376 33.0375L144.44376 35.053123L142.67813 35.053123ZM142.67813 47.35L142.67813 36.975L144.44376 36.975L144.44376 47.35L142.67813 47.35ZM146.6625 47.35L146.6625 36.975L148.25626 36.975L148.25626 38.459373Q149.39688 36.740623 151.55313 36.740623Q152.49063 36.740623 153.27188 37.084373Q154.06876 37.4125 154.45938 37.959373Q154.85 38.50625 155.00626 39.25625Q155.1 39.75625 155.1 40.975L155.1 47.35L153.33438 47.35L153.33438 41.0375Q153.33438 39.959373 153.13126 39.428123Q152.92813 38.896873 152.39688 38.584373Q151.88126 38.271873 151.17813 38.271873Q150.05313 38.271873 149.24063 38.990623Q148.42813 39.69375 148.42813 41.678123L148.42813 47.35L146.6625 47.35Z" fill-rule="nonzero"/></svg>