<svg version="1.1" viewBox="0.0 0.0 744.0 567.0" fill="none" stroke="none" stroke-linecap="square" stroke-miterlimit="10" width="744" height="567" xmlns:xlink="http://www.w3.org/1999/xlink" xmlns="http://www.w3.org/2000/svg"><path fill="#ffffff" d="M0 0L744.0 0L744.0 567.0L0 567.0L0 0Z" fill-rule="nonzero"/><path fill="#ffffff" d="M28.35 71.25L715.64996 71.25L715.64996 538.65L28.35 538.65L28.35 71.25Z" fill-rule="nonzero"/><path stroke="#cccccc" stroke-width="1.0" stroke-linecap="butt" d="M372.0 305.0C372.0 305.0 372.0 305.0 372.0 305.0C372.0 305.0 372.0 305.0 372.0 305.0C372.0 305.0 372.0 305.0 372.0 305.0C372.0 305.0 372.0 305.0 372.0 305.0" fill-rule="nonzero"/><path fill="#000000" d="M360.0625 297.04688L360.0625 298.35938Q360.0625 299.40625 359.875 300.125Q359.6875 300.84375 359.32812 301.28125Q358.98438 301.71875 358.48438 301.92188Q358.0 302.125 357.375 302.125Q356.89062 302.125 356.46875 302.0Q356.04688 301.875 355.71875 301.60938Q355.39062 301.32812 355.15625 300.89062Q354.92188 300.45312 354.79688 299.82812Q354.67188 299.1875 354.67188 298.35938L354.67188 297.04688Q354.67188 296.0 354.85938 295.29688Q355.0625 294.59375 355.40625 294.15625Q355.76562 293.71875 356.25 293.53125Q356.75 293.34375 357.35938 293.34375Q357.85938 293.34375 358.28125 293.46875Q358.70312 293.59375 359.03125 293.85938Q359.35938 294.10938 359.57812 294.54688Q359.8125 294.96875 359.9375 295.59375Q360.0625 296.21875 360.0625 297.04688ZM358.96875 298.53125L358.96875 296.875Q358.96875 296.29688 358.90625 295.85938Q358.84375 295.42188 358.70312 295.10938Q358.57812 294.79688 358.375 294.60938Q358.1875 294.42188 357.9375 294.32812Q357.6875 294.23438 357.35938 294.23438Q356.98438 294.23438 356.67188 294.375Q356.375 294.51562 356.17188 294.82812Q355.96875 295.14062 355.85938 295.65625Q355.76562 296.15625 355.76562 296.875L355.76562 298.53125Q355.76562 299.10938 355.82812 299.54688Q355.90625 299.98438 356.03125 300.3125Q356.17188 300.625 356.35938 300.82812Q356.5625 301.03125 356.8125 301.125Q357.0625 301.21875 357.375 301.21875Q357.78125 301.21875 358.07812 301.07812Q358.375 300.92188 358.57812 300.59375Q358.78125 300.26562 358.875 299.76562Q358.96875 299.25 358.96875 298.53125ZM362.8125 300.70312L362.8125 301.57812Q362.8125 302.125 362.53125 302.71875Q362.26562 303.3125 361.78125 303.70312L361.17188 303.28125Q361.35938 303.01562 361.48438 302.75Q361.60938 302.48438 361.67188 302.20312Q361.75 301.92188 361.75 301.59375L361.75 300.70312L362.8125 300.70312ZM369.0625 297.04688L369.0625 298.35938Q369.0625 299.40625 368.875 300.125Q368.6875 300.84375 368.32812 301.28125Q367.98438 301.71875 367.48438 301.92188Q367.0 302.125 366.375 302.125Q365.89062 302.125 365.46875 302.0Q365.04688 301.875 364.71875 301.60938Q364.39062 301.32812 364.15625 300.89062Q363.92188 300.45312 363.79688 299.82812Q363.67188 299.1875 363.67188 298.35938L363.67188 297.04688Q363.67188 296.0 363.85938 295.29688Q364.0625 294.59375 364.40625 294.15625Q364.76562 293.71875 365.25 293.53125Q365.75 293.34375 366.35938 293.34375Q366.85938 293.34375 367.28125 293.46875Q367.70312 293.59375 368.03125 293.85938Q368.35938 294.10938 368.57812 294.54688Q368.8125 294.96875 368.9375 295.59375Q369.0625 296.21875 369.0625 297.04688ZM367.96875 298.53125L367.96875 296.875Q367.96875 296.29688 367.90625 295.85938Q367.84375 295.42188 367.70312 295.10938Q367.57812 294.79688 367.375 294.60938Q367.1875 294.42188 366.9375 294.32812Q366.6875 294.23438 366.35938 294.23438Q365.98438 294.23438 365.67188 294.375Q365.375 294.51562 365.17188 294.82812Q364.96875 295.14062 364.85938 295.65625Q364.76562 296.15625 364.76562 296.875L364.76562 298.53125Q364.76562 299.10938 364.82812 299.54688Q364.90625 299.98438 365.03125 300.3125Q365.17188 300.625 365.35938 300.82812Q365.5625 301.03125 365.8125 301.125Q366.0625 301.21875 366.375 301.21875Q366.78125 301.21875 367.07812 301.07812Q367.375 300.92188 367.57812 300.59375Q367.78125 300.26562 367.875 299.76562Q367.96875 299.25 367.96875 298.53125Z" fill-rule="nonzero"/><path stroke="#cccccc" stroke-width="1.0" stroke-linecap="butt" d="M422.425 305.0C422.425 277.15103 399.84897 254.575 372.0 254.575C344.15103 254.575 321.575 277.15103 321.575 305.0C321.575 332.84897 344.15103 355.425 372.0 355.425C399.84897 355.425 422.425 332.84897 422.425 305.0" fill-rule="nonzero"/><path fill="#000000" d="M360.0625 246.62187L360.0625 247.93437Q360.0625 248.98125 359.875 249.7Q359.6875 250.41875 359.32812 250.85625Q358.98438 251.29375 358.48438 251.49687Q358.0 251.7 357.375 251.7Q356.89062 251.7 356.46875 251.575Q356.04688 251.45 355.71875 251.18437Q355.39062 250.90312 355.15625 250.46562Q354.92188 250.02812 354.79688 249.40312Q354.67188 248.7625 354.67188 247.93437L354.67188 246.62187Q354.67188 245.575 354.85938 244.87187Q355.0625 244.16875 355.40625 243.73125Q355.76562 243.29375 356.25 243.10625Q356.75 242.91875 357.35938 242.91875Q357.85938 242.91875 358.28125 243.04375Q358.70312 243.16875 359.03125 243.43437Q359.35938 243.68437 359.57812 244.12187Q359.8125 244.54375 359.9375 245.16875Q360.0625 245.79375 360.0625 246.62187ZM358.96875 248.10625L358.96875 246.45Q358.96875 245.87187 358.90625 245.43437Q358.84375 244.99687 358.70312 244.68437Q358.57812 244.37187 358.375 244.18437Q358.1875 243.99687 357.9375 243.90312Q357.6875 243.80937 357.35938 243.80937Q356.98438 243.80937 356.67188 243.95Q356.375 244.09062 356.17188 244.40312Q355.96875 244.71562 355.85938 245.23125Q355.76562 245.73125 355.76562 246.45L355.76562 248.10625Q355.76562 248.68437 355.82812 249.12187Q355.90625 249.55937 356.03125 249.8875Q356.17188 250.2 356.35938 250.40312Q356.5625 250.60625 356.8125 250.7Q357.0625 250.79375 357.375 250.79375Q357.78125 250.79375 358.07812 250.65312Q358.375 250.49687 358.57812 250.16875Q358.78125 249.84062 358.875 249.34062Q358.96875 248.825 358.96875 248.10625ZM362.8125 250.27812L362.8125 251.15312Q362.8125 251.7 362.53125 252.29375Q362.26562 252.8875 361.78125 253.27812L361.17188 252.85625Q361.35938 252.59062 361.48438 252.325Q361.60938 252.05937 361.67188 251.77812Q361.75 251.49687 361.75 251.16875L361.75 250.27812L362.8125 250.27812ZM367.26562 242.99687L367.26562 251.575L366.1875 251.575L366.1875 244.35625L364.0 245.15312L364.0 244.16875L367.10938 242.99687L367.26562 242.99687Z" fill-rule="nonzero"/><path stroke="#cccccc" stroke-width="1.0" stroke-linecap="butt" d="M472.85 305.0C472.85 249.30208 427.6979 204.15 372.0 204.15C316.3021 204.15 271.15 249.30208 271.15 305.0C271.15 360.6979 316.3021 405.85 372.0 405.85C427.6979 405.85 472.85 360.6979 472.85 305.0" fill-rule="nonzero"/><path fill="#000000" d="M360.0625 196.19687L360.0625 197.50937Q360.0625 198.55624 359.875 199.275Q359.6875 199.99374 359.32812 200.43124Q358.98438 200.86874 358.48438 201.07187Q358.0 201.275 357.375 201.275Q356.89062 201.275 356.46875 201.15Q356.04688 201.025 355.71875 200.75937Q355.39062 200.47812 355.15625 200.04062Q354.92188 199.60312 354.79688 198.97812Q354.67188 198.3375 354.67188 197.50937L354.67188 196.19687Q354.67188 195.15 354.85938 194.44687Q355.0625 193.74374 355.40625 193.30624Q355.76562 192.86874 356.25 192.68124Q356.75 192.49374 357.35938 192.49374Q357.85938 192.49374 358.28125 192.61874Q358.70312 192.74374 359.03125 193.00937Q359.35938 193.25937 359.57812 193.69687Q359.8125 194.11874 359.9375 194.74374Q360.0625 195.36874 360.0625 196.19687ZM358.96875 197.68124L358.96875 196.025Q358.96875 195.44687 358.90625 195.00937Q358.84375 194.57187 358.70312 194.25937Q358.57812 193.94687 358.375 193.75937Q358.1875 193.57187 357.9375 193.47812Q357.6875 193.38437 357.35938 193.38437Q356.98438 193.38437 356.67188 193.525Q356.375 193.66562 356.17188 193.97812Q355.96875 194.29062 355.85938 194.80624Q355.76562 195.30624 355.76562 196.025L355.76562 197.68124Q355.76562 198.25937 355.82812 198.69687Q355.90625 199.13437 356.03125 199.4625Q356.17188 199.775 356.35938 199.97812Q356.5625 200.18124 356.8125 200.275Q357.0625 200.36874 357.375 200.36874Q357.78125 200.36874 358.07812 200.22812Q358.375 200.07187 358.57812 199.74374Q358.78125 199.41562 358.875 198.91562Q358.96875 198.4 358.96875 197.68124ZM362.8125 199.85312L362.8125 200.72812Q362.8125 201.275 362.53125 201.86874Q362.26562 202.4625 361.78125 202.85312L361.17188 202.43124Q361.35938 202.16562 361.48438 201.9Q361.60938 201.63437 361.67188 201.35312Q361.75 201.07187 361.75 200.74374L361.75 199.85312L362.8125 199.85312ZM369.29688 200.25937L369.29688 201.15L363.71875 201.15L363.71875 200.36874L366.51562 197.25937Q367.03125 196.68124 367.3125 196.29062Q367.59375 195.88437 367.70312 195.57187Q367.82812 195.24374 367.82812 194.91562Q367.82812 194.49374 367.65625 194.15Q367.48438 193.80624 367.14062 193.60312Q366.8125 193.38437 366.32812 193.38437Q365.76562 193.38437 365.39062 193.61874Q365.01562 193.8375 364.82812 194.22812Q364.64062 194.61874 364.64062 195.11874L363.54688 195.11874Q363.54688 194.4 363.85938 193.80624Q364.1875 193.2125 364.79688 192.85312Q365.42188 192.49374 366.32812 192.49374Q367.14062 192.49374 367.71875 192.79062Q368.29688 193.07187 368.59375 193.5875Q368.90625 194.0875 368.90625 194.775Q368.90625 195.15 368.78125 195.54062Q368.65625 195.91562 368.4375 196.30624Q368.21875 196.68124 367.92188 197.05624Q367.64062 197.41562 367.3125 197.775L365.01562 200.25937L369.29688 200.25937Z" fill-rule="nonzero"/><path stroke="#cccccc" stroke-width="1.0" stroke-linecap="butt" d="M523.275 305.0C523.275 221.45312 455.54688 153.725 372.0 153.725C288.45312 153.725 220.725 221.45312 220.725 305.0C220.725 388.54688 288.45312 456.275 372.0 456.275C455.54688 456.275 523.275 388.54688 523.275 305.0" fill-rule="nonzero"/><path fill="#000000" d="M360.0625 145.77188L360.0625 147.08438Q360.0625 148.13126 359.875 148.85Q359.6875 149.56876 359.32812 150.00626Q358.98438 150.44376 358.48438 150.64688Q358.0 150.85 357.375 150.85Q356.89062 150.85 356.46875 150.725Q356.04688 150.6 355.71875 150.33438Q355.39062 150.05313 355.15625 149.61563Q354.92188 149.17813 354.79688 148.55313Q354.67188 147.9125 354.67188 147.08438L354.67188 145.77188Q354.67188 144.725 354.85938 144.02188Q355.0625 143.31876 355.40625 142.88126Q355.76562 142.44376 356.25 142.25626Q356.75 142.06876 357.35938 142.06876Q357.85938 142.06876 358.28125 142.19376Q358.70312 142.31876 359.03125 142.58438Q359.35938 142.83438 359.57812 143.27188Q359.8125 143.69376 359.9375 144.31876Q360.0625 144.94376 360.0625 145.77188ZM358.96875 147.25626L358.96875 145.6Q358.96875 145.02188 358.90625 144.58438Q358.84375 144.14688 358.70312 143.83438Q358.57812 143.52188 358.375 143.33438Q358.1875 143.14688 357.9375 143.05313Q357.6875 142.95938 357.35938 142.95938Q356.98438 142.95938 356.67188 143.1Q356.375 143.24063 356.17188 143.55313Q355.96875 143.86563 355.85938 144.38126Q355.76562 144.88126 355.76562 145.6L355.76562 147.25626Q355.76562 147.83438 355.82812 148.27188Q355.90625 148.70938 356.03125 149.0375Q356.17188 149.35 356.35938 149.55313Q356.5625 149.75626 356.8125 149.85Q357.0625 149.94376 357.375 149.94376Q357.78125 149.94376 358.07812 149.80313Q358.375 149.64688 358.57812 149.31876Q358.78125 148.99063 358.875 148.49063Q358.96875 147.975 358.96875 147.25626ZM362.8125 149.42813L362.8125 150.30313Q362.8125 150.85 362.53125 151.44376Q362.26562 152.0375 361.78125 152.42813L361.17188 152.00626Q361.35938 151.74063 361.48438 151.475Q361.60938 151.20938 361.67188 150.92813Q361.75 150.64688 361.75 150.31876L361.75 149.42813L362.8125 149.42813ZM365.29688 145.92813L366.0625 145.92813Q366.64062 145.92813 367.0 145.74063Q367.375 145.5375 367.5625 145.20938Q367.75 144.88126 367.75 144.45938Q367.75 143.975 367.57812 143.64688Q367.42188 143.30313 367.09375 143.13126Q366.76562 142.95938 366.26562 142.95938Q365.79688 142.95938 365.45312 143.14688Q365.10938 143.31876 364.90625 143.64688Q364.71875 143.975 364.71875 144.42813L363.625 144.42813Q363.625 143.77188 363.95312 143.24063Q364.28125 142.70938 364.875 142.39688Q365.46875 142.06876 366.26562 142.06876Q367.03125 142.06876 367.60938 142.35Q368.1875 142.61563 368.51562 143.1625Q368.84375 143.69376 368.84375 144.49063Q368.84375 144.81876 368.6875 145.17813Q368.53125 145.5375 368.21875 145.86563Q367.90625 146.17813 367.40625 146.38126Q366.92188 146.58438 366.21875 146.58438L365.29688 146.58438L365.29688 145.92813ZM365.29688 146.81876L365.29688 146.1625L366.21875 146.1625Q367.03125 146.1625 367.5625 146.36563Q368.09375 146.55313 368.40625 146.88126Q368.71875 147.19376 368.84375 147.58438Q368.96875 147.95938 368.96875 148.35Q368.96875 148.94376 368.76562 149.4125Q368.5625 149.86563 368.1875 150.19376Q367.82812 150.50626 367.32812 150.67813Q366.84375 150.85 366.26562 150.85Q365.70312 150.85 365.21875 150.69376Q364.73438 150.52188 364.35938 150.225Q363.98438 149.92813 363.76562 149.49063Q363.5625 149.0375 363.5625 148.475L364.64062 148.475Q364.64062 148.9125 364.82812 149.25626Q365.03125 149.58438 365.39062 149.77188Q365.76562 149.94376 366.26562 149.94376Q366.76562 149.94376 367.125 149.77188Q367.48438 149.6 367.67188 149.25626Q367.875 148.89688 367.875 148.36563Q367.875 147.83438 367.65625 147.49063Q367.4375 147.14688 367.01562 146.99063Q366.60938 146.81876 366.0625 146.81876L365.29688 146.81876Z" fill-rule="nonzero"/><path stroke="#cccccc" stroke-width="1.0" stroke-linecap="butt" d="M573.7 305.0C573.7 193.60417 483.39584 103.3 372.0 103.3C260.60416 103.3 170.3 193.60417 170.3 305.0C170.3 416.39584 260.60416 506.7 372.0 506.7C483.39584 506.7 573.7 416.39584 573.7 305.0" fill-rule="nonzero"/><path fill="#000000" d="M360.0625 95.34688L360.0625 96.65938Q360.0625 97.70625 359.875 98.425Q359.6875 99.14375 359.32812 99.58125Q358.98438 100.01875 358.48438 100.22188Q358.0 100.425 357.375 100.425Q356.89062 100.425 356.46875 100.3Q356.04688 100.175 355.71875 99.90938Q355.39062 99.62813 355.15625 99.19063Q354.92188 98.75313 354.79688 98.12813Q354.67188 97.4875 354.67188 96.65938L354.67188 95.34688Q354.67188 94.3 354.85938 93.59688Q355.0625 92.89375 355.40625 92.45625Q355.76562 92.01875 356.25 91.83125Q356.75 91.64375 357.35938 91.64375Q357.85938 91.64375 358.28125 91.76875Q358.70312 91.89375 359.03125 92.15938Q359.35938 92.40938 359.57812 92.84688Q359.8125 93.26875 359.9375 93.89375Q360.0625 94.51875 360.0625 95.34688ZM358.96875 96.83125L358.96875 95.175Q358.96875 94.59688 358.90625 94.15938Q358.84375 93.72188 358.70312 93.40938Q358.57812 93.09688 358.375 92.90938Q358.1875 92.72188 357.9375 92.62813Q357.6875 92.53438 357.35938 92.53438Q356.98438 92.53438 356.67188 92.675Q356.375 92.81563 356.17188 93.12813Q355.96875 93.44063 355.85938 93.95625Q355.76562 94.45625 355.76562 95.175L355.76562 96.83125Q355.76562 97.40938 355.82812 97.84688Q355.90625 98.28438 356.03125 98.6125Q356.17188 98.925 356.35938 99.12813Q356.5625 99.33125 356.8125 99.425Q357.0625 99.51875 357.375 99.51875Q357.78125 99.51875 358.07812 99.37813Q358.375 99.22188 358.57812 98.89375Q358.78125 98.56563 358.875 98.06563Q358.96875 97.55 358.96875 96.83125ZM362.8125 99.00313L362.8125 99.87813Q362.8125 100.425 362.53125 101.01875Q362.26562 101.6125 361.78125 102.00313L361.17188 101.58125Q361.35938 101.31563 361.48438 101.05Q361.60938 100.78438 361.67188 100.50313Q361.75 100.22188 361.75 99.89375L361.75 99.00313L362.8125 99.00313ZM369.46875 97.425L369.46875 98.31563L363.3125 98.31563L363.3125 97.675L367.125 91.76875L368.01562 91.76875L367.0625 93.47188L364.54688 97.425L369.46875 97.425ZM368.28125 91.76875L368.28125 100.3L367.20312 100.3L367.20312 91.76875L368.28125 91.76875Z" fill-rule="nonzero"/><path stroke="#cccccc" stroke-width="1.0" stroke-linecap="butt" d="M372.0 305.0L372.0 103.0" fill-rule="nonzero"/><path fill="#000000" d="M342.64062 82.78125L343.76562 82.78125Q343.67188 83.59375 343.29688 84.234375Q342.92188 84.875 342.23438 85.25Q341.5625 85.625 340.53125 85.625Q339.78125 85.625 339.17188 85.34375Q338.5625 85.046875 338.10938 84.53125Q337.67188 84.015625 337.4375 83.296875Q337.20312 82.5625 337.20312 81.65625L337.20312 80.8125Q337.20312 79.921875 337.4375 79.1875Q337.67188 78.453125 338.125 77.9375Q338.57812 77.40625 339.20312 77.125Q339.84375 76.84375 340.625 76.84375Q341.59375 76.84375 342.26562 77.21875Q342.9375 77.578125 343.29688 78.21875Q343.67188 78.859375 343.76562 79.703125L342.64062 79.703125Q342.5625 79.109375 342.32812 78.6875Q342.10938 78.25 341.70312 78.015625Q341.29688 77.78125 340.625 77.78125Q340.0625 77.78125 339.625 78.0Q339.20312 78.203125 338.90625 78.609375Q338.625 79.0 338.46875 79.5625Q338.32812 80.125 338.32812 80.796875L338.32812 81.65625Q338.32812 82.28125 338.45312 82.84375Q338.59375 83.390625 338.85938 83.8125Q339.125 84.21875 339.54688 84.46875Q339.96875 84.703125 340.53125 84.703125Q341.25 84.703125 341.67188 84.46875Q342.10938 84.234375 342.32812 83.8125Q342.54688 83.390625 342.64062 82.78125ZM349.0625 84.421875L349.0625 81.15625Q349.0625 80.78125 348.90625 80.5Q348.76562 80.21875 348.46875 80.078125Q348.17188 79.921875 347.73438 79.921875Q347.3125 79.921875 347.0 80.0625Q346.70312 80.203125 346.53125 80.4375Q346.35938 80.65625 346.35938 80.921875L345.28125 80.921875Q345.28125 80.578125 345.45312 80.25Q345.625 79.90625 345.95312 79.640625Q346.28125 79.359375 346.75 79.203125Q347.21875 79.046875 347.79688 79.046875Q348.48438 79.046875 349.01562 79.28125Q349.54688 79.515625 349.84375 79.984375Q350.15625 80.453125 350.15625 81.15625L350.15625 84.109375Q350.15625 84.4375 350.20312 84.796875Q350.26562 85.140625 350.375 85.40625L350.375 85.5L349.23438 85.5Q349.15625 85.3125 349.10938 85.0Q349.0625 84.6875 349.0625 84.421875ZM349.25 81.65625L349.26562 82.421875L348.17188 82.421875Q347.70312 82.421875 347.34375 82.5Q346.98438 82.5625 346.73438 82.71875Q346.48438 82.859375 346.35938 83.078125Q346.23438 83.296875 346.23438 83.59375Q346.23438 83.890625 346.35938 84.140625Q346.5 84.375 346.76562 84.53125Q347.04688 84.671875 347.4375 84.671875Q347.9375 84.671875 348.3125 84.46875Q348.70312 84.25 348.92188 83.953125Q349.15625 83.640625 349.17188 83.34375L349.64062 83.875Q349.59375 84.109375 349.40625 84.421875Q349.23438 84.71875 348.92188 85.0Q348.625 85.265625 348.20312 85.453125Q347.79688 85.625 347.28125 85.625Q346.64062 85.625 346.15625 85.375Q345.67188 85.109375 345.40625 84.6875Q345.14062 84.265625 345.14062 83.734375Q345.14062 83.21875 345.32812 82.84375Q345.53125 82.453125 345.90625 82.1875Q346.28125 81.921875 346.8125 81.796875Q347.34375 81.65625 348.0 81.65625L349.25 81.65625ZM353.40625 80.15625L353.40625 85.5L352.32812 85.5L352.32812 79.15625L353.375 79.15625L353.40625 80.15625ZM355.39062 79.125L355.39062 80.125Q355.25 80.109375 355.125 80.09375Q355.01562 80.078125 354.85938 80.078125Q354.48438 80.078125 354.1875 80.203125Q353.90625 80.3125 353.70312 80.53125Q353.51562 80.734375 353.39062 81.03125Q353.28125 81.328125 353.25 81.671875L352.9375 81.84375Q352.9375 81.265625 353.04688 80.765625Q353.17188 80.265625 353.40625 79.875Q353.65625 79.484375 354.01562 79.265625Q354.39062 79.046875 354.90625 79.046875Q355.03125 79.046875 355.17188 79.078125Q355.32812 79.09375 355.39062 79.125ZM358.10938 84.84375L359.875 79.15625L361.03125 79.15625L358.48438 86.484375Q358.40625 86.71875 358.25 86.984375Q358.10938 87.265625 357.89062 87.5Q357.67188 87.75 357.35938 87.90625Q357.04688 88.0625 356.60938 88.0625Q356.48438 88.0625 356.28125 88.015625Q356.07812 87.984375 356.0 87.96875L356.0 87.09375Q356.04688 87.09375 356.14062 87.09375Q356.25 87.109375 356.28125 87.109375Q356.65625 87.109375 356.90625 87.015625Q357.17188 86.921875 357.34375 86.6875Q357.53125 86.46875 357.65625 86.078125L358.10938 84.84375ZM356.8125 79.15625L358.45312 84.078125L358.73438 85.21875L357.96875 85.625L355.625 79.15625L356.8125 79.15625ZM362.04688 82.40625L362.04688 82.265625Q362.04688 81.578125 362.23438 81.0Q362.4375 80.40625 362.8125 79.96875Q363.1875 79.53125 363.71875 79.296875Q364.25 79.046875 364.92188 79.046875Q365.57812 79.046875 366.10938 79.296875Q366.65625 79.53125 367.03125 79.96875Q367.40625 80.40625 367.60938 81.0Q367.8125 81.578125 367.8125 82.265625L367.8125 82.40625Q367.8125 83.078125 367.60938 83.671875Q367.40625 84.25 367.03125 84.6875Q366.65625 85.125 366.125 85.375Q365.59375 85.625 364.92188 85.625Q364.26562 85.625 363.71875 85.375Q363.1875 85.125 362.8125 84.6875Q362.4375 84.25 362.23438 83.671875Q362.04688 83.078125 362.04688 82.40625ZM363.125 82.265625L363.125 82.40625Q363.125 82.875 363.23438 83.296875Q363.34375 83.71875 363.5625 84.046875Q363.79688 84.359375 364.14062 84.546875Q364.48438 84.71875 364.92188 84.71875Q365.375 84.71875 365.70312 84.546875Q366.04688 84.359375 366.26562 84.046875Q366.5 83.71875 366.60938 83.296875Q366.71875 82.875 366.71875 82.40625L366.71875 82.265625Q366.71875 81.796875 366.60938 81.375Q366.5 80.953125 366.26562 80.640625Q366.04688 80.3125 365.70312 80.125Q365.375 79.9375 364.92188 79.9375Q364.46875 79.9375 364.125 80.125Q363.79688 80.3125 363.5625 80.640625Q363.34375 80.953125 363.23438 81.375Q363.125 81.796875 363.125 82.265625ZM370.40625 80.375L370.40625 87.9375L369.32812 87.9375L369.32812 79.15625L370.3125 79.15625L370.40625 80.375ZM374.6875 82.28125L374.6875 82.40625Q374.6875 83.09375 374.51562 83.6875Q374.35938 84.265625 374.04688 84.703125Q373.73438 85.140625 373.26562 85.390625Q372.8125 85.625 372.21875 85.625Q371.625 85.625 371.15625 85.421875Q370.6875 85.21875 370.35938 84.84375Q370.04688 84.453125 369.85938 83.921875Q369.67188 83.390625 369.59375 82.71875L369.59375 82.0625Q369.67188 81.359375 369.85938 80.8125Q370.04688 80.25 370.35938 79.859375Q370.6875 79.453125 371.14062 79.25Q371.60938 79.046875 372.20312 79.046875Q372.79688 79.046875 373.26562 79.28125Q373.73438 79.5 374.04688 79.9375Q374.35938 80.359375 374.51562 80.953125Q374.6875 81.546875 374.6875 82.28125ZM373.59375 82.40625L373.59375 82.28125Q373.59375 81.796875 373.48438 81.390625Q373.39062 80.96875 373.1875 80.65625Q372.98438 80.328125 372.65625 80.140625Q372.32812 79.953125 371.89062 79.953125Q371.48438 79.953125 371.17188 80.09375Q370.875 80.234375 370.65625 80.484375Q370.45312 80.71875 370.3125 81.015625Q370.1875 81.3125 370.125 81.640625L370.125 83.15625Q370.23438 83.5625 370.4375 83.921875Q370.65625 84.28125 371.0 84.5Q371.35938 84.71875 371.90625 84.71875Q372.34375 84.71875 372.65625 84.546875Q372.98438 84.359375 373.1875 84.046875Q373.39062 83.71875 373.48438 83.296875Q373.59375 82.875 373.59375 82.40625ZM377.40625 76.5L377.40625 85.5L376.32812 85.5L376.32812 76.5L377.40625 76.5ZM377.15625 82.09375L376.70312 82.078125Q376.70312 81.421875 376.89062 80.875Q377.07812 80.3125 377.42188 79.90625Q377.76562 79.5 378.23438 79.28125Q378.70312 79.046875 379.28125 79.046875Q379.75 79.046875 380.125 79.171875Q380.5 79.296875 380.76562 79.578125Q381.03125 79.84375 381.17188 80.28125Q381.3125 80.71875 381.3125 81.34375L381.3125 85.5L380.21875 85.5L380.21875 81.328125Q380.21875 80.828125 380.07812 80.53125Q379.9375 80.234375 379.65625 80.09375Q379.375 79.953125 378.95312 79.953125Q378.54688 79.953125 378.21875 80.125Q377.89062 80.296875 377.65625 80.59375Q377.42188 80.890625 377.28125 81.28125Q377.15625 81.65625 377.15625 82.09375ZM385.10938 84.84375L386.875 79.15625L388.03125 79.15625L385.48438 86.484375Q385.40625 86.71875 385.25 86.984375Q385.10938 87.265625 384.89062 87.5Q384.67188 87.75 384.35938 87.90625Q384.04688 88.0625 383.60938 88.0625Q383.48438 88.0625 383.28125 88.015625Q383.07812 87.984375 383.0 87.96875L383.0 87.09375Q383.04688 87.09375 383.14062 87.09375Q383.25 87.109375 383.28125 87.109375Q383.65625 87.109375 383.90625 87.015625Q384.17188 86.921875 384.34375 86.6875Q384.53125 86.46875 384.65625 86.078125L385.10938 84.84375ZM383.8125 79.15625L385.45312 84.078125L385.73438 85.21875L384.96875 85.625L382.625 79.15625L383.8125 79.15625ZM390.5 76.5L390.5 85.5L389.42188 85.5L389.42188 76.5L390.5 76.5ZM393.5 76.5L393.5 85.5L392.42188 85.5L392.42188 76.5L393.5 76.5ZM397.95312 85.625Q397.29688 85.625 396.75 85.40625Q396.21875 85.171875 395.82812 84.765625Q395.45312 84.34375 395.25 83.78125Q395.04688 83.21875 395.04688 82.546875L395.04688 82.3125Q395.04688 81.53125 395.26562 80.921875Q395.5 80.3125 395.89062 79.890625Q396.28125 79.46875 396.78125 79.265625Q397.28125 79.046875 397.8125 79.046875Q398.5 79.046875 398.98438 79.28125Q399.48438 79.515625 399.79688 79.9375Q400.125 80.34375 400.26562 80.921875Q400.42188 81.484375 400.42188 82.140625L400.42188 82.640625L395.6875 82.640625L395.6875 81.75L399.34375 81.75L399.34375 81.671875Q399.3125 81.25 399.15625 80.859375Q399.01562 80.453125 398.6875 80.203125Q398.375 79.9375 397.8125 79.9375Q397.45312 79.9375 397.14062 80.09375Q396.82812 80.25 396.59375 80.5625Q396.375 80.859375 396.25 81.296875Q396.14062 81.734375 396.14062 82.3125L396.14062 82.546875Q396.14062 83.0 396.26562 83.40625Q396.39062 83.796875 396.625 84.09375Q396.875 84.390625 397.21875 84.5625Q397.57812 84.734375 398.01562 84.734375Q398.59375 84.734375 398.98438 84.5Q399.39062 84.265625 399.6875 83.875L400.34375 84.390625Q400.14062 84.703125 399.8125 84.984375Q399.5 85.265625 399.03125 85.453125Q398.57812 85.625 397.95312 85.625ZM402.40625 80.515625L402.40625 85.5L401.32812 85.5L401.32812 79.15625L402.35938 79.15625L402.40625 80.515625ZM402.15625 82.09375L401.70312 82.078125Q401.70312 81.421875 401.89062 80.875Q402.07812 80.3125 402.42188 79.90625Q402.76562 79.5 403.23438 79.28125Q403.70312 79.046875 404.28125 79.046875Q404.75 79.046875 405.125 79.171875Q405.5 79.296875 405.76562 79.578125Q406.03125 79.84375 406.17188 80.28125Q406.3125 80.71875 406.3125 81.34375L406.3125 85.5L405.21875 85.5L405.21875 81.328125Q405.21875 80.828125 405.07812 80.53125Q404.9375 80.234375 404.65625 80.09375Q404.375 79.953125 403.95312 79.953125Q403.54688 79.953125 403.21875 80.125Q402.89062 80.296875 402.65625 80.59375Q402.42188 80.890625 402.28125 81.28125Q402.15625 81.65625 402.15625 82.09375Z" fill-rule="nonzero"/><path stroke="#cccccc" stroke-width="1.0" stroke-linecap="butt" d="M372.0 305.0L547.0 204.0" fill-rule="nonzero"/><path fill="#000000" d="M547.84375 188.96875L548.9375 188.96875L551.7344 195.92188L554.53125 188.96875L555.625 188.96875L552.15625 197.5L551.3125 197.5L547.84375 188.96875ZM547.4844 188.96875L548.4531 188.96875L548.6094 194.17188L548.6094 197.5L547.4844 197.5L547.4844 188.96875ZM555.0156 188.96875L555.9844 188.96875L555.9844 197.5L554.8594 197.5L554.8594 194.17188L555.0156 188.96875ZM559.1094 196.84375L560.875 191.15625L562.03125 191.15625L559.4844 198.48438Q559.40625 198.71875 559.25 198.98438Q559.1094 199.26562 558.8906 199.5Q558.6719 199.75 558.3594 199.90625Q558.0469 200.0625 557.6094 200.0625Q557.4844 200.0625 557.28125 200.01562Q557.0781 199.98438 557.0 199.96875L557.0 199.09375Q557.0469 199.09375 557.1406 199.09375Q557.25 199.10938 557.28125 199.10938Q557.65625 199.10938 557.90625 199.01562Q558.1719 198.92188 558.34375 198.6875Q558.53125 198.46875 558.65625 198.07812L559.1094 196.84375ZM557.8125 191.15625L559.4531 196.07812L559.7344 197.21875L558.96875 197.625L556.625 191.15625L557.8125 191.15625ZM564.40625 192.15625L564.40625 197.5L563.3281 197.5L563.3281 191.15625L564.375 191.15625L564.40625 192.15625ZM566.3906 191.125L566.3906 192.125Q566.25 192.10938 566.125 192.09375Q566.0156 192.07812 565.8594 192.07812Q565.4844 192.07812 565.1875 192.20312Q564.90625 192.3125 564.7031 192.53125Q564.5156 192.73438 564.3906 193.03125Q564.28125 193.32812 564.25 193.67188L563.9375 193.84375Q563.9375 193.26562 564.0469 192.76562Q564.1719 192.26562 564.40625 191.875Q564.65625 191.48438 565.0156 191.26562Q565.3906 191.04688 565.90625 191.04688Q566.03125 191.04688 566.1719 191.07812Q566.3281 191.09375 566.3906 191.125ZM569.8594 196.71875Q570.25 196.71875 570.5781 196.5625Q570.90625 196.40625 571.1094 196.14062Q571.3281 195.85938 571.3594 195.5L572.3906 195.5Q572.3594 196.0625 572.0 196.54688Q571.65625 197.03125 571.09375 197.32812Q570.53125 197.625 569.8594 197.625Q569.15625 197.625 568.625 197.375Q568.09375 197.10938 567.7344 196.67188Q567.3906 196.23438 567.21875 195.67188Q567.0469 195.09375 567.0469 194.45312L567.0469 194.20312Q567.0469 193.5625 567.21875 193.0Q567.3906 192.42188 567.7344 191.98438Q568.09375 191.54688 568.625 191.29688Q569.15625 191.04688 569.8594 191.04688Q570.6094 191.04688 571.15625 191.34375Q571.71875 191.64062 572.03125 192.17188Q572.3594 192.6875 572.3906 193.34375L571.3594 193.34375Q571.3281 192.95312 571.1406 192.64062Q570.9531 192.3125 570.625 192.125Q570.2969 191.9375 569.8594 191.9375Q569.3594 191.9375 569.0156 192.14062Q568.6875 192.32812 568.4844 192.65625Q568.2969 192.98438 568.2031 193.39062Q568.125 193.79688 568.125 194.20312L568.125 194.45312Q568.125 194.875 568.2031 195.28125Q568.2969 195.67188 568.4844 196.0Q568.6875 196.32812 569.0156 196.53125Q569.3594 196.71875 569.8594 196.71875ZM575.9531 197.625Q575.2969 197.625 574.75 197.40625Q574.21875 197.17188 573.8281 196.76562Q573.4531 196.34375 573.25 195.78125Q573.0469 195.21875 573.0469 194.54688L573.0469 194.3125Q573.0469 193.53125 573.2656 192.92188Q573.5 192.3125 573.8906 191.89062Q574.28125 191.46875 574.78125 191.26562Q575.28125 191.04688 575.8125 191.04688Q576.5 191.04688 576.9844 191.28125Q577.4844 191.51562 577.7969 191.9375Q578.125 192.34375 578.2656 192.92188Q578.4219 193.48438 578.4219 194.14062L578.4219 194.64062L573.6875 194.64062L573.6875 193.75L577.34375 193.75L577.34375 193.67188Q577.3125 193.25 577.15625 192.85938Q577.0156 192.45312 576.6875 192.20312Q576.375 191.9375 575.8125 191.9375Q575.4531 191.9375 575.1406 192.09375Q574.8281 192.25 574.59375 192.5625Q574.375 192.85938 574.25 193.29688Q574.1406 193.73438 574.1406 194.3125L574.1406 194.54688Q574.1406 195.0 574.2656 195.40625Q574.3906 195.79688 574.625 196.09375Q574.875 196.39062 575.21875 196.5625Q575.5781 196.73438 576.0156 196.73438Q576.59375 196.73438 576.9844 196.5Q577.3906 196.26562 577.6875 195.875L578.34375 196.39062Q578.1406 196.70312 577.8125 196.98438Q577.5 197.26562 577.03125 197.45312Q576.5781 197.625 575.9531 197.625ZM580.40625 192.51562L580.40625 197.5L579.3281 197.5L579.3281 191.15625L580.3594 191.15625L580.40625 192.51562ZM580.15625 194.09375L579.7031 194.07812Q579.7031 193.42188 579.8906 192.875Q580.0781 192.3125 580.4219 191.90625Q580.7656 191.5 581.2344 191.28125Q581.7031 191.04688 582.28125 191.04688Q582.75 191.04688 583.125 191.17188Q583.5 191.29688 583.7656 191.57812Q584.03125 191.84375 584.1719 192.28125Q584.3125 192.71875 584.3125 193.34375L584.3125 197.5L583.21875 197.5L583.21875 193.32812Q583.21875 192.82812 583.0781 192.53125Q582.9375 192.23438 582.65625 192.09375Q582.375 191.95312 581.9531 191.95312Q581.5469 191.95312 581.21875 192.125Q580.8906 192.29688 580.65625 192.59375Q580.4219 192.89062 580.28125 193.28125Q580.15625 193.65625 580.15625 194.09375Z" fill-rule="nonzero"/><path stroke="#cccccc" stroke-width="1.0" stroke-linecap="butt" d="M372.0 305.0L547.0 406.0" fill-rule="nonzero"/><path fill="#000000" d="M548.6719 420.57812L548.6719 421.5L544.40625 421.5L544.40625 420.57812L548.6719 420.57812ZM544.625 412.96875L544.625 421.5L543.4844 421.5L543.4844 412.96875L544.625 412.96875ZM550.5 415.15625L550.5 421.5L549.4219 421.5L549.4219 415.15625L550.5 415.15625ZM549.3281 413.48438Q549.3281 413.21875 549.4844 413.03125Q549.65625 412.84375 549.96875 412.84375Q550.28125 412.84375 550.4375 413.03125Q550.6094 413.21875 550.6094 413.48438Q550.6094 413.73438 550.4375 413.92188Q550.28125 414.09375 549.96875 414.09375Q549.65625 414.09375 549.4844 413.92188Q549.3281 413.73438 549.3281 413.48438ZM553.40625 416.42188L553.40625 421.5L552.3125 421.5L552.3125 415.15625L553.34375 415.15625L553.40625 416.42188ZM553.1875 418.09375L552.6719 418.07812Q552.6875 417.42188 552.84375 416.875Q553.0156 416.3125 553.3281 415.90625Q553.65625 415.5 554.1406 415.28125Q554.625 415.04688 555.25 415.04688Q555.7031 415.04688 556.0781 415.17188Q556.4531 415.29688 556.71875 415.5625Q557.0 415.82812 557.1406 416.25Q557.2969 416.67188 557.2969 417.28125L557.2969 421.5L556.21875 421.5L556.21875 417.32812Q556.21875 416.82812 556.0469 416.53125Q555.8906 416.23438 555.5781 416.09375Q555.28125 415.95312 554.8594 415.95312Q554.3906 415.95312 554.0625 416.125Q553.7344 416.29688 553.5469 416.59375Q553.3594 416.89062 553.2656 417.28125Q553.1875 417.65625 553.1875 418.09375ZM557.2969 417.48438L556.5625 417.71875Q556.5625 417.1875 556.7344 416.71875Q556.90625 416.23438 557.21875 415.85938Q557.5469 415.48438 558.0156 415.26562Q558.4844 415.04688 559.0781 415.04688Q559.59375 415.04688 559.9844 415.1875Q560.3906 415.3125 560.65625 415.59375Q560.9219 415.875 561.0625 416.3125Q561.2031 416.73438 561.2031 417.32812L561.2031 421.5L560.125 421.5L560.125 417.32812Q560.125 416.78125 559.9531 416.5Q559.78125 416.20312 559.4844 416.07812Q559.1875 415.95312 558.7656 415.95312Q558.40625 415.95312 558.125 416.07812Q557.8594 416.20312 557.6719 416.42188Q557.4844 416.625 557.3906 416.90625Q557.2969 417.1875 557.2969 417.48438ZM563.0469 418.40625L563.0469 418.26562Q563.0469 417.57812 563.2344 417.0Q563.4375 416.40625 563.8125 415.96875Q564.1875 415.53125 564.71875 415.29688Q565.25 415.04688 565.9219 415.04688Q566.5781 415.04688 567.1094 415.29688Q567.65625 415.53125 568.03125 415.96875Q568.40625 416.40625 568.6094 417.0Q568.8125 417.57812 568.8125 418.26562L568.8125 418.40625Q568.8125 419.07812 568.6094 419.67188Q568.40625 420.25 568.03125 420.6875Q567.65625 421.125 567.125 421.375Q566.59375 421.625 565.9219 421.625Q565.2656 421.625 564.71875 421.375Q564.1875 421.125 563.8125 420.6875Q563.4375 420.25 563.2344 419.67188Q563.0469 419.07812 563.0469 418.40625ZM564.125 418.26562L564.125 418.40625Q564.125 418.875 564.2344 419.29688Q564.34375 419.71875 564.5625 420.04688Q564.7969 420.35938 565.1406 420.54688Q565.4844 420.71875 565.9219 420.71875Q566.375 420.71875 566.7031 420.54688Q567.0469 420.35938 567.2656 420.04688Q567.5 419.71875 567.6094 419.29688Q567.71875 418.875 567.71875 418.40625L567.71875 418.26562Q567.71875 417.79688 567.6094 417.375Q567.5 416.95312 567.2656 416.64062Q567.0469 416.3125 566.7031 416.125Q566.375 415.9375 565.9219 415.9375Q565.46875 415.9375 565.125 416.125Q564.7969 416.3125 564.5625 416.64062Q564.34375 416.95312 564.2344 417.375Q564.125 417.79688 564.125 418.26562ZM571.40625 416.51562L571.40625 421.5L570.3281 421.5L570.3281 415.15625L571.3594 415.15625L571.40625 416.51562ZM571.15625 418.09375L570.7031 418.07812Q570.7031 417.42188 570.8906 416.875Q571.0781 416.3125 571.4219 415.90625Q571.7656 415.5 572.2344 415.28125Q572.7031 415.04688 573.28125 415.04688Q573.75 415.04688 574.125 415.17188Q574.5 415.29688 574.7656 415.57812Q575.03125 415.84375 575.1719 416.28125Q575.3125 416.71875 575.3125 417.34375L575.3125 421.5L574.21875 421.5L574.21875 417.32812Q574.21875 416.82812 574.0781 416.53125Q573.9375 416.23438 573.65625 416.09375Q573.375 415.95312 572.9531 415.95312Q572.5469 415.95312 572.21875 416.125Q571.8906 416.29688 571.65625 416.59375Q571.4219 416.89062 571.28125 417.28125Q571.15625 417.65625 571.15625 418.09375ZM579.9531 421.625Q579.2969 421.625 578.75 421.40625Q578.21875 421.17188 577.8281 420.76562Q577.4531 420.34375 577.25 419.78125Q577.0469 419.21875 577.0469 418.54688L577.0469 418.3125Q577.0469 417.53125 577.2656 416.92188Q577.5 416.3125 577.8906 415.89062Q578.28125 415.46875 578.78125 415.26562Q579.28125 415.04688 579.8125 415.04688Q580.5 415.04688 580.9844 415.28125Q581.4844 415.51562 581.7969 415.9375Q582.125 416.34375 582.2656 416.92188Q582.4219 417.48438 582.4219 418.14062L582.4219 418.64062L577.6875 418.64062L577.6875 417.75L581.34375 417.75L581.34375 417.67188Q581.3125 417.25 581.15625 416.85938Q581.0156 416.45312 580.6875 416.20312Q580.375 415.9375 579.8125 415.9375Q579.4531 415.9375 579.1406 416.09375Q578.8281 416.25 578.59375 416.5625Q578.375 416.85938 578.25 417.29688Q578.1406 417.73438 578.1406 418.3125L578.1406 418.54688Q578.1406 419.0 578.2656 419.40625Q578.3906 419.79688 578.625 420.09375Q578.875 420.39062 579.21875 420.5625Q579.5781 420.73438 580.0156 420.73438Q580.59375 420.73438 580.9844 420.5Q581.3906 420.26562 581.6875 419.875L582.34375 420.39062Q582.1406 420.70312 581.8125 420.98438Q581.5 421.26562 581.03125 421.45312Q580.5781 421.625 579.9531 421.625ZM584.40625 416.51562L584.40625 421.5L583.3281 421.5L583.3281 415.15625L584.3594 415.15625L584.40625 416.51562ZM584.15625 418.09375L583.7031 418.07812Q583.7031 417.42188 583.8906 416.875Q584.0781 416.3125 584.4219 415.90625Q584.7656 415.5 585.2344 415.28125Q585.7031 415.04688 586.28125 415.04688Q586.75 415.04688 587.125 415.17188Q587.5 415.29688 587.7656 415.57812Q588.03125 415.84375 588.1719 416.28125Q588.3125 416.71875 588.3125 417.34375L588.3125 421.5L587.21875 421.5L587.21875 417.32812Q587.21875 416.82812 587.0781 416.53125Q586.9375 416.23438 586.65625 416.09375Q586.375 415.95312 585.9531 415.95312Q585.5469 415.95312 585.21875 416.125Q584.8906 416.29688 584.65625 416.59375Q584.4219 416.89062 584.28125 417.28125Q584.15625 417.65625 584.15625 418.09375Z" fill-rule="nonzero"/><path stroke="#cccccc" stroke-width="1.0" stroke-linecap="butt" d="M372.0 305.0L372.0 507.0" fill-rule="nonzero"/><path fill="#000000" d="M356.67188 532.5781L356.67188 533.5L352.40625 533.5L352.40625 532.5781L356.67188 532.5781ZM352.625 524.96875L352.625 533.5L351.48438 533.5L351.48438 524.96875L352.625 524.96875ZM358.5 527.15625L358.5 533.5L357.42188 533.5L357.42188 527.15625L358.5 527.15625ZM357.32812 525.4844Q357.32812 525.21875 357.48438 525.03125Q357.65625 524.84375 357.96875 524.84375Q358.28125 524.84375 358.4375 525.03125Q358.60938 525.21875 358.60938 525.4844Q358.60938 525.7344 358.4375 525.9219Q358.28125 526.09375 357.96875 526.09375Q357.65625 526.09375 357.48438 525.9219Q357.32812 525.7344 357.32812 525.4844ZM361.40625 528.5156L361.40625 533.5L360.32812 533.5L360.32812 527.15625L361.35938 527.15625L361.40625 528.5156ZM361.15625 530.09375L360.70312 530.0781Q360.70312 529.4219 360.89062 528.875Q361.07812 528.3125 361.42188 527.90625Q361.76562 527.5 362.23438 527.28125Q362.70312 527.0469 363.28125 527.0469Q363.75 527.0469 364.125 527.1719Q364.5 527.2969 364.76562 527.5781Q365.03125 527.84375 365.17188 528.28125Q365.3125 528.71875 365.3125 529.34375L365.3125 533.5L364.21875 533.5L364.21875 529.3281Q364.21875 528.8281 364.07812 528.53125Q363.9375 528.2344 363.65625 528.09375Q363.375 527.9531 362.95312 527.9531Q362.54688 527.9531 362.21875 528.125Q361.89062 528.2969 361.65625 528.59375Q361.42188 528.8906 361.28125 529.28125Q361.15625 529.65625 361.15625 530.09375ZM371.0625 532.4219L371.0625 529.15625Q371.0625 528.78125 370.90625 528.5Q370.76562 528.21875 370.46875 528.0781Q370.17188 527.9219 369.73438 527.9219Q369.3125 527.9219 369.0 528.0625Q368.70312 528.2031 368.53125 528.4375Q368.35938 528.65625 368.35938 528.9219L367.28125 528.9219Q367.28125 528.5781 367.45312 528.25Q367.625 527.90625 367.95312 527.6406Q368.28125 527.3594 368.75 527.2031Q369.21875 527.0469 369.79688 527.0469Q370.48438 527.0469 371.01562 527.28125Q371.54688 527.5156 371.84375 527.9844Q372.15625 528.4531 372.15625 529.15625L372.15625 532.1094Q372.15625 532.4375 372.20312 532.7969Q372.26562 533.1406 372.375 533.40625L372.375 533.5L371.23438 533.5Q371.15625 533.3125 371.10938 533.0Q371.0625 532.6875 371.0625 532.4219ZM371.25 529.65625L371.26562 530.4219L370.17188 530.4219Q369.70312 530.4219 369.34375 530.5Q368.98438 530.5625 368.73438 530.71875Q368.48438 530.8594 368.35938 531.0781Q368.23438 531.2969 368.23438 531.59375Q368.23438 531.8906 368.35938 532.1406Q368.5 532.375 368.76562 532.53125Q369.04688 532.6719 369.4375 532.6719Q369.9375 532.6719 370.3125 532.46875Q370.70312 532.25 370.92188 531.9531Q371.15625 531.6406 371.17188 531.34375L371.64062 531.875Q371.59375 532.1094 371.40625 532.4219Q371.23438 532.71875 370.92188 533.0Q370.625 533.2656 370.20312 533.4531Q369.79688 533.625 369.28125 533.625Q368.64062 533.625 368.15625 533.375Q367.67188 533.1094 367.40625 532.6875Q367.14062 532.2656 367.14062 531.7344Q367.14062 531.21875 367.32812 530.84375Q367.53125 530.4531 367.90625 530.1875Q368.28125 529.9219 368.8125 529.7969Q369.34375 529.65625 370.0 529.65625L371.25 529.65625ZM375.5 524.5L375.5 533.5L374.42188 533.5L374.42188 524.5L375.5 524.5ZM377.04688 530.40625L377.04688 530.2656Q377.04688 529.5781 377.23438 529.0Q377.4375 528.40625 377.8125 527.96875Q378.1875 527.53125 378.71875 527.2969Q379.25 527.0469 379.92188 527.0469Q380.57812 527.0469 381.10938 527.2969Q381.65625 527.53125 382.03125 527.96875Q382.40625 528.40625 382.60938 529.0Q382.8125 529.5781 382.8125 530.2656L382.8125 530.40625Q382.8125 531.0781 382.60938 531.6719Q382.40625 532.25 382.03125 532.6875Q381.65625 533.125 381.125 533.375Q380.59375 533.625 379.92188 533.625Q379.26562 533.625 378.71875 533.375Q378.1875 533.125 377.8125 532.6875Q377.4375 532.25 377.23438 531.6719Q377.04688 531.0781 377.04688 530.40625ZM378.125 530.2656L378.125 530.40625Q378.125 530.875 378.23438 531.2969Q378.34375 531.71875 378.5625 532.0469Q378.79688 532.3594 379.14062 532.5469Q379.48438 532.71875 379.92188 532.71875Q380.375 532.71875 380.70312 532.5469Q381.04688 532.3594 381.26562 532.0469Q381.5 531.71875 381.60938 531.2969Q381.71875 530.875 381.71875 530.40625L381.71875 530.2656Q381.71875 529.7969 381.60938 529.375Q381.5 528.9531 381.26562 528.6406Q381.04688 528.3125 380.70312 528.125Q380.375 527.9375 379.92188 527.9375Q379.46875 527.9375 379.125 528.125Q378.79688 528.3125 378.5625 528.6406Q378.34375 528.9531 378.23438 529.375Q378.125 529.7969 378.125 530.2656ZM384.04688 530.40625L384.04688 530.2656Q384.04688 529.5781 384.23438 529.0Q384.4375 528.40625 384.8125 527.96875Q385.1875 527.53125 385.71875 527.2969Q386.25 527.0469 386.92188 527.0469Q387.57812 527.0469 388.10938 527.2969Q388.65625 527.53125 389.03125 527.96875Q389.40625 528.40625 389.60938 529.0Q389.8125 529.5781 389.8125 530.2656L389.8125 530.40625Q389.8125 531.0781 389.60938 531.6719Q389.40625 532.25 389.03125 532.6875Q388.65625 533.125 388.125 533.375Q387.59375 533.625 386.92188 533.625Q386.26562 533.625 385.71875 533.375Q385.1875 533.125 384.8125 532.6875Q384.4375 532.25 384.23438 531.6719Q384.04688 531.0781 384.04688 530.40625ZM385.125 530.2656L385.125 530.40625Q385.125 530.875 385.23438 531.2969Q385.34375 531.71875 385.5625 532.0469Q385.79688 532.3594 386.14062 532.5469Q386.48438 532.71875 386.92188 532.71875Q387.375 532.71875 387.70312 532.5469Q388.04688 532.3594 388.26562 532.0469Q388.5 531.71875 388.60938 531.2969Q388.71875 530.875 388.71875 530.40625L388.71875 530.2656Q388.71875 529.7969 388.60938 529.375Q388.5 528.9531 388.26562 528.6406Q388.04688 528.3125 387.70312 528.125Q387.375 527.9375 386.92188 527.9375Q386.46875 527.9375 386.125 528.125Q385.79688 528.3125 385.5625 528.6406Q385.34375 528.9531 385.23438 529.375Q385.125 529.7969 385.125 530.2656ZM392.5 524.5L392.5 533.5L391.42188 533.5L391.42188 524.5L392.5 524.5Z" fill-rule="nonzero"/><path stroke="#cccccc" stroke-width="1.0" stroke-linecap="butt" d="M372.0 305.0L197.0 406.0" fill-rule="nonzero"/><path fill="#000000" d="M159.5625 416.64062L159.5625 417.5625L154.95312 417.5625L154.95312 416.64062L159.5625 416.64062ZM155.125 412.96875L155.125 421.5L153.98438 421.5L153.98438 412.96875L155.125 412.96875ZM160.54688 412.96875L160.54688 421.5L159.42188 421.5L159.42188 412.96875L160.54688 412.96875ZM166.70312 420.03125L166.70312 415.15625L167.79688 415.15625L167.79688 421.5L166.76562 421.5L166.70312 420.03125ZM166.90625 418.70312L167.35938 418.6875Q167.35938 419.3125 167.21875 419.85938Q167.09375 420.39062 166.79688 420.78125Q166.51562 421.17188 166.03125 421.40625Q165.5625 421.625 164.89062 421.625Q164.42188 421.625 164.03125 421.48438Q163.65625 421.34375 163.375 421.0625Q163.10938 420.78125 162.95312 420.32812Q162.79688 419.875 162.79688 419.25L162.79688 415.15625L163.89062 415.15625L163.89062 419.26562Q163.89062 419.6875 163.98438 419.96875Q164.07812 420.25 164.25 420.40625Q164.42188 420.5625 164.625 420.64062Q164.82812 420.70312 165.04688 420.70312Q165.75 420.70312 166.14062 420.4375Q166.54688 420.15625 166.71875 419.70312Q166.90625 419.25 166.90625 418.70312ZM170.90625 416.42188L170.90625 421.5L169.8125 421.5L169.8125 415.15625L170.84375 415.15625L170.90625 416.42188ZM170.6875 418.09375L170.17188 418.07812Q170.1875 417.42188 170.34375 416.875Q170.51562 416.3125 170.82812 415.90625Q171.15625 415.5 171.64062 415.28125Q172.125 415.04688 172.75 415.04688Q173.20312 415.04688 173.57812 415.17188Q173.95312 415.29688 174.21875 415.5625Q174.5 415.82812 174.64062 416.25Q174.79688 416.67188 174.79688 417.28125L174.79688 421.5L173.71875 421.5L173.71875 417.32812Q173.71875 416.82812 173.54688 416.53125Q173.39062 416.23438 173.07812 416.09375Q172.78125 415.95312 172.35938 415.95312Q171.89062 415.95312 171.5625 416.125Q171.23438 416.29688 171.04688 416.59375Q170.85938 416.89062 170.76562 417.28125Q170.6875 417.65625 170.6875 418.09375ZM174.79688 417.48438L174.0625 417.71875Q174.0625 417.1875 174.23438 416.71875Q174.40625 416.23438 174.71875 415.85938Q175.04688 415.48438 175.51562 415.26562Q175.98438 415.04688 176.57812 415.04688Q177.09375 415.04688 177.48438 415.1875Q177.89062 415.3125 178.15625 415.59375Q178.42188 415.875 178.5625 416.3125Q178.70312 416.73438 178.70312 417.32812L178.70312 421.5L177.625 421.5L177.625 417.32812Q177.625 416.78125 177.45312 416.5Q177.28125 416.20312 176.98438 416.07812Q176.6875 415.95312 176.26562 415.95312Q175.90625 415.95312 175.625 416.07812Q175.35938 416.20312 175.17188 416.42188Q174.98438 416.625 174.89062 416.90625Q174.79688 417.1875 174.79688 417.48438ZM184.70312 420.03125L184.70312 415.15625L185.79688 415.15625L185.79688 421.5L184.76562 421.5L184.70312 420.03125ZM184.90625 418.70312L185.35938 418.6875Q185.35938 419.3125 185.21875 419.85938Q185.09375 420.39062 184.79688 420.78125Q184.51562 421.17188 184.03125 421.40625Q183.5625 421.625 182.89062 421.625Q182.42188 421.625 182.03125 421.48438Q181.65625 421.34375 181.375 421.0625Q181.10938 420.78125 180.95312 420.32812Q180.79688 419.875 180.79688 419.25L180.79688 415.15625L181.89062 415.15625L181.89062 419.26562Q181.89062 419.6875 181.98438 419.96875Q182.07812 420.25 182.25 420.40625Q182.42188 420.5625 182.625 420.64062Q182.82812 420.70312 183.04688 420.70312Q183.75 420.70312 184.14062 420.4375Q184.54688 420.15625 184.71875 419.70312Q184.90625 419.25 184.90625 418.70312ZM189.0 412.5L189.0 421.5L187.92188 421.5L187.92188 412.5L189.0 412.5ZM193.45312 421.625Q192.79688 421.625 192.25 421.40625Q191.71875 421.17188 191.32812 420.76562Q190.95312 420.34375 190.75 419.78125Q190.54688 419.21875 190.54688 418.54688L190.54688 418.3125Q190.54688 417.53125 190.76562 416.92188Q191.0 416.3125 191.39062 415.89062Q191.78125 415.46875 192.28125 415.26562Q192.78125 415.04688 193.3125 415.04688Q194.0 415.04688 194.48438 415.28125Q194.98438 415.51562 195.29688 415.9375Q195.625 416.34375 195.76562 416.92188Q195.92188 417.48438 195.92188 418.14062L195.92188 418.64062L191.1875 418.64062L191.1875 417.75L194.84375 417.75L194.84375 417.67188Q194.8125 417.25 194.65625 416.85938Q194.51562 416.45312 194.1875 416.20312Q193.875 415.9375 193.3125 415.9375Q192.95312 415.9375 192.64062 416.09375Q192.32812 416.25 192.09375 416.5625Q191.875 416.85938 191.75 417.29688Q191.64062 417.73438 191.64062 418.3125L191.64062 418.54688Q191.64062 419.0 191.76562 419.40625Q191.89062 419.79688 192.125 420.09375Q192.375 420.39062 192.71875 420.5625Q193.07812 420.73438 193.51562 420.73438Q194.09375 420.73438 194.48438 420.5Q194.89062 420.26562 195.1875 419.875L195.84375 420.39062Q195.64062 420.70312 195.3125 420.98438Q195.0 421.26562 194.53125 421.45312Q194.07812 421.625 193.45312 421.625ZM197.90625 416.51562L197.90625 421.5L196.82812 421.5L196.82812 415.15625L197.85938 415.15625L197.90625 416.51562ZM197.65625 418.09375L197.20312 418.07812Q197.20312 417.42188 197.39062 416.875Q197.57812 416.3125 197.92188 415.90625Q198.26562 415.5 198.73438 415.28125Q199.20312 415.04688 199.78125 415.04688Q200.25 415.04688 200.625 415.17188Q201.0 415.29688 201.26562 415.57812Q201.53125 415.84375 201.67188 416.28125Q201.8125 416.71875 201.8125 417.34375L201.8125 421.5L200.71875 421.5L200.71875 417.32812Q200.71875 416.82812 200.57812 416.53125Q200.4375 416.23438 200.15625 416.09375Q199.875 415.95312 199.45312 415.95312Q199.04688 415.95312 198.71875 416.125Q198.39062 416.29688 198.15625 416.59375Q197.92188 416.89062 197.78125 417.28125Q197.65625 417.65625 197.65625 418.09375Z" fill-rule="nonzero"/><path stroke="#cccccc" stroke-width="1.0" stroke-linecap="butt" d="M372.0 305.0L197.0 204.0" fill-rule="nonzero"/><path fill="#000000" d="M160.03125 195.34375Q160.03125 195.04688 159.9375 194.8125Q159.85938 194.57812 159.625 194.39062Q159.40625 194.20312 159.0 194.03125Q158.60938 193.85938 158.01562 193.6875Q157.375 193.5 156.85938 193.28125Q156.35938 193.04688 155.98438 192.75Q155.625 192.4375 155.4375 192.0625Q155.25 191.67188 155.25 191.17188Q155.25 190.67188 155.45312 190.25Q155.65625 189.82812 156.03125 189.51562Q156.42188 189.20312 156.95312 189.03125Q157.48438 188.84375 158.14062 188.84375Q159.10938 188.84375 159.78125 189.21875Q160.45312 189.57812 160.79688 190.17188Q161.15625 190.76562 161.15625 191.42188L160.03125 191.42188Q160.03125 190.95312 159.8125 190.57812Q159.60938 190.20312 159.1875 190.0Q158.78125 189.78125 158.14062 189.78125Q157.54688 189.78125 157.14062 189.96875Q156.75 190.14062 156.5625 190.45312Q156.375 190.76562 156.375 191.15625Q156.375 191.42188 156.48438 191.65625Q156.60938 191.875 156.84375 192.0625Q157.09375 192.25 157.46875 192.40625Q157.84375 192.5625 158.375 192.70312Q159.09375 192.90625 159.625 193.17188Q160.15625 193.42188 160.5 193.73438Q160.84375 194.04688 161.0 194.4375Q161.17188 194.82812 161.17188 195.32812Q161.17188 195.85938 160.95312 196.28125Q160.75 196.70312 160.35938 197.0Q159.96875 197.29688 159.42188 197.46875Q158.875 197.625 158.20312 197.625Q157.60938 197.625 157.03125 197.45312Q156.46875 197.28125 156.0 196.95312Q155.53125 196.625 155.25 196.15625Q154.96875 195.67188 154.96875 195.03125L156.09375 195.03125Q156.09375 195.46875 156.26562 195.78125Q156.4375 196.09375 156.73438 196.29688Q157.03125 196.5 157.40625 196.60938Q157.78125 196.70312 158.20312 196.70312Q158.79688 196.70312 159.20312 196.54688Q159.60938 196.375 159.8125 196.07812Q160.03125 195.76562 160.03125 195.34375ZM162.04688 194.40625L162.04688 194.26562Q162.04688 193.57812 162.23438 193.0Q162.4375 192.40625 162.8125 191.96875Q163.1875 191.53125 163.71875 191.29688Q164.25 191.04688 164.92188 191.04688Q165.57812 191.04688 166.10938 191.29688Q166.65625 191.53125 167.03125 191.96875Q167.40625 192.40625 167.60938 193.0Q167.8125 193.57812 167.8125 194.26562L167.8125 194.40625Q167.8125 195.07812 167.60938 195.67188Q167.40625 196.25 167.03125 196.6875Q166.65625 197.125 166.125 197.375Q165.59375 197.625 164.92188 197.625Q164.26562 197.625 163.71875 197.375Q163.1875 197.125 162.8125 196.6875Q162.4375 196.25 162.23438 195.67188Q162.04688 195.07812 162.04688 194.40625ZM163.125 194.26562L163.125 194.40625Q163.125 194.875 163.23438 195.29688Q163.34375 195.71875 163.5625 196.04688Q163.79688 196.35938 164.14062 196.54688Q164.48438 196.71875 164.92188 196.71875Q165.375 196.71875 165.70312 196.54688Q166.04688 196.35938 166.26562 196.04688Q166.5 195.71875 166.60938 195.29688Q166.71875 194.875 166.71875 194.40625L166.71875 194.26562Q166.71875 193.79688 166.60938 193.375Q166.5 192.95312 166.26562 192.64062Q166.04688 192.3125 165.70312 192.125Q165.375 191.9375 164.92188 191.9375Q164.46875 191.9375 164.125 192.125Q163.79688 192.3125 163.5625 192.64062Q163.34375 192.95312 163.23438 193.375Q163.125 193.79688 163.125 194.26562ZM170.40625 192.51562L170.40625 197.5L169.32812 197.5L169.32812 191.15625L170.35938 191.15625L170.40625 192.51562ZM170.15625 194.09375L169.70312 194.07812Q169.70312 193.42188 169.89062 192.875Q170.07812 192.3125 170.42188 191.90625Q170.76562 191.5 171.23438 191.28125Q171.70312 191.04688 172.28125 191.04688Q172.75 191.04688 173.125 191.17188Q173.5 191.29688 173.76562 191.57812Q174.03125 191.84375 174.17188 192.28125Q174.3125 192.71875 174.3125 193.34375L174.3125 197.5L173.21875 197.5L173.21875 193.32812Q173.21875 192.82812 173.07812 192.53125Q172.9375 192.23438 172.65625 192.09375Q172.375 191.95312 171.95312 191.95312Q171.54688 191.95312 171.21875 192.125Q170.89062 192.29688 170.65625 192.59375Q170.42188 192.89062 170.28125 193.28125Q170.15625 193.65625 170.15625 194.09375ZM180.01562 195.8125Q180.01562 195.57812 179.90625 195.375Q179.8125 195.17188 179.5 195.01562Q179.1875 194.84375 178.5625 194.71875Q178.03125 194.60938 177.60938 194.46875Q177.1875 194.3125 176.89062 194.09375Q176.59375 193.875 176.4375 193.57812Q176.28125 193.28125 176.28125 192.89062Q176.28125 192.51562 176.4375 192.1875Q176.60938 191.84375 176.90625 191.59375Q177.21875 191.32812 177.65625 191.1875Q178.09375 191.04688 178.625 191.04688Q179.39062 191.04688 179.92188 191.3125Q180.46875 191.57812 180.75 192.03125Q181.03125 192.48438 181.03125 193.01562L179.95312 193.01562Q179.95312 192.76562 179.79688 192.51562Q179.64062 192.26562 179.34375 192.10938Q179.04688 191.9375 178.625 191.9375Q178.17188 191.9375 177.89062 192.07812Q177.60938 192.20312 177.48438 192.42188Q177.35938 192.625 177.35938 192.85938Q177.35938 193.04688 177.42188 193.1875Q177.48438 193.3125 177.64062 193.4375Q177.79688 193.54688 178.07812 193.65625Q178.375 193.75 178.82812 193.84375Q179.60938 194.01562 180.10938 194.26562Q180.60938 194.51562 180.85938 194.875Q181.10938 195.21875 181.10938 195.73438Q181.10938 196.15625 180.92188 196.5Q180.75 196.84375 180.42188 197.09375Q180.10938 197.34375 179.65625 197.48438Q179.20312 197.625 178.65625 197.625Q177.8125 197.625 177.23438 197.32812Q176.65625 197.01562 176.35938 196.54688Q176.0625 196.0625 176.0625 195.54688L177.14062 195.54688Q177.17188 195.98438 177.40625 196.25Q177.64062 196.51562 177.96875 196.625Q178.3125 196.71875 178.65625 196.71875Q179.09375 196.71875 179.39062 196.60938Q179.70312 196.48438 179.85938 196.28125Q180.01562 196.07812 180.01562 195.8125ZM184.98438 191.15625L184.98438 191.98438L181.54688 191.98438L181.54688 191.15625L184.98438 191.15625ZM182.71875 189.625L183.79688 189.625L183.79688 195.92188Q183.79688 196.25 183.89062 196.42188Q184.0 196.57812 184.15625 196.64062Q184.3125 196.6875 184.5 196.6875Q184.625 196.6875 184.76562 196.65625Q184.92188 196.625 185.0 196.60938L185.01562 197.5Q184.875 197.54688 184.67188 197.57812Q184.46875 197.625 184.17188 197.625Q183.78125 197.625 183.4375 197.46875Q183.10938 197.29688 182.90625 196.9375Q182.71875 196.5625 182.71875 195.92188L182.71875 189.625ZM187.5 191.15625L187.5 197.5L186.42188 197.5L186.42188 191.15625L187.5 191.15625ZM186.32812 189.48438Q186.32812 189.21875 186.48438 189.03125Q186.65625 188.84375 186.96875 188.84375Q187.28125 188.84375 187.4375 189.03125Q187.60938 189.21875 187.60938 189.48438Q187.60938 189.73438 187.4375 189.92188Q187.28125 190.09375 186.96875 190.09375Q186.65625 190.09375 186.48438 189.92188Q186.32812 189.73438 186.32812 189.48438ZM193.4375 191.15625L194.42188 191.15625L194.42188 197.35938Q194.42188 198.20312 194.07812 198.79688Q193.73438 199.39062 193.125 199.6875Q192.53125 200.0 191.73438 200.0Q191.40625 200.0 190.95312 199.89062Q190.51562 199.79688 190.09375 199.54688Q189.67188 199.3125 189.39062 198.90625L189.95312 198.25Q190.35938 198.73438 190.78125 198.92188Q191.21875 199.10938 191.65625 199.10938Q192.17188 199.10938 192.54688 198.90625Q192.92188 198.71875 193.125 198.34375Q193.32812 197.96875 193.32812 197.42188L193.32812 192.54688L193.4375 191.15625ZM189.0625 194.40625L189.0625 194.28125Q189.0625 193.54688 189.23438 192.95312Q189.42188 192.35938 189.73438 191.9375Q190.0625 191.5 190.51562 191.28125Q190.98438 191.04688 191.57812 191.04688Q192.17188 191.04688 192.60938 191.25Q193.0625 191.45312 193.375 191.85938Q193.6875 192.25 193.875 192.8125Q194.0625 193.35938 194.125 194.0625L194.125 194.60938Q194.0625 195.29688 193.875 195.85938Q193.6875 196.42188 193.375 196.8125Q193.0625 197.20312 192.60938 197.42188Q192.15625 197.625 191.5625 197.625Q190.98438 197.625 190.53125 197.39062Q190.07812 197.14062 189.75 196.70312Q189.42188 196.26562 189.23438 195.6875Q189.0625 195.09375 189.0625 194.40625ZM190.15625 194.28125L190.15625 194.40625Q190.15625 194.875 190.25 195.29688Q190.34375 195.70312 190.54688 196.03125Q190.75 196.34375 191.0625 196.53125Q191.39062 196.70312 191.82812 196.70312Q192.35938 196.70312 192.70312 196.46875Q193.0625 196.23438 193.26562 195.85938Q193.48438 195.48438 193.59375 195.04688L193.59375 193.64062Q193.53125 193.3125 193.39062 193.01562Q193.26562 192.71875 193.0625 192.48438Q192.85938 192.23438 192.54688 192.09375Q192.25 191.95312 191.82812 191.95312Q191.39062 191.95312 191.0625 192.14062Q190.75 192.32812 190.54688 192.65625Q190.34375 192.96875 190.25 193.39062Q190.15625 193.79688 190.15625 194.28125ZM198.95312 197.625Q198.29688 197.625 197.75 197.40625Q197.21875 197.17188 196.82812 196.76562Q196.45312 196.34375 196.25 195.78125Q196.04688 195.21875 196.04688 194.54688L196.04688 194.3125Q196.04688 193.53125 196.26562 192.92188Q196.5 192.3125 196.89062 191.89062Q197.28125 191.46875 197.78125 191.26562Q198.28125 191.04688 198.8125 191.04688Q199.5 191.04688 199.98438 191.28125Q200.48438 191.51562 200.79688 191.9375Q201.125 192.34375 201.26562 192.92188Q201.42188 193.48438 201.42188 194.14062L201.42188 194.64062L196.6875 194.64062L196.6875 193.75L200.34375 193.75L200.34375 193.67188Q200.3125 193.25 200.15625 192.85938Q200.01562 192.45312 199.6875 192.20312Q199.375 191.9375 198.8125 191.9375Q198.45312 191.9375 198.14062 192.09375Q197.82812 192.25 197.59375 192.5625Q197.375 192.85938 197.25 193.29688Q197.14062 193.73438 197.14062 194.3125L197.14062 194.54688Q197.14062 195.0 197.26562 195.40625Q197.39062 195.79688 197.625 196.09375Q197.875 196.39062 198.21875 196.5625Q198.57812 196.73438 199.01562 196.73438Q199.59375 196.73438 199.98438 196.5Q200.39062 196.26562 200.6875 195.875L201.34375 196.39062Q201.14062 196.70312 200.8125 196.98438Q200.5 197.26562 200.03125 197.45312Q199.57812 197.625 198.95312 197.625Z" fill-rule="nonzero"/><path stroke="#cccccc" stroke-width="1.0" stroke-linecap="butt" d="M372.0 305.0L372.0 103.0" fill-rule="nonzero"/><path stroke="#ff0000" stroke-width="2.0" stroke-linecap="butt" stroke-opacity="0.7019608" stroke-dasharray="8.0,6.0,2.0,6.0" d="M372.0 123.0L438.0 267.0L429.0 338.0L372.0 360.0L328.0 330.0L315.0 272.0Z" fill-rule="nonzero"/><path fill="#ff0000" fill-opacity="0.7019608" d="M368.81802 119.818016L372.0 121.875L375.18198 119.818016L373.125 123.0L375.18198 126.181984L372.0 124.125L368.81802 126.181984L370.875 123.0Z" fill-rule="nonzero"/><path fill="#ff0000" fill-opacity="0.7019608" d="M434.81802 263.81802L438.0 265.875L441.18198 263.81802L439.125 267.0L441.18198 270.18198L438.0 268.125L434.81802 270.18198L436.875 267.0Z" fill-rule="nonzero"/><path fill="#ff0000" fill-opacity="0.7019608" d="M425.81802 334.81802L429.0 336.875L432.18198 334.81802L430.125 338.0L432.18198 341.18198L429.0 339.125L425.81802 341.18198L427.875 338.0Z" fill-rule="nonzero"/><path fill="#ff0000" fill-opacity="0.7019608" d="M368.81802 356.81802L372.0 358.875L375.18198 356.81802L373.125 360.0L375.18198 363.18198L372.0 361.125L368.81802 363.18198L370.875 360.0Z" fill-rule="nonzero"/><path fill="#ff0000" fill-opacity="0.7019608" d="M324.81802 326.81802L328.0 328.875L331.18198 326.81802L329.125 330.0L331.18198 333.18198L328.0 331.125L324.81802 333.18198L326.875 330.0Z" fill-rule="nonzero"/><path fill="#ff0000" fill-opacity="0.7019608" d="M311.81802 268.81802L315.0 270.875L318.18198 268.81802L316.125 272.0L318.18198 275.18198L315.0 273.125L311.81802 275.18198L313.875 272.0Z" fill-rule="nonzero"/><path fill="#757575" d="M29.81875 47.35L29.81875 33.0375L31.709375 33.0375L31.709375 45.6625L38.75625 45.6625L38.75625 47.35L29.81875 47.35ZM40.021873 42.1625Q40.021873 39.2875 41.615623 37.896873Q42.959373 36.740623 44.88125 36.740623Q47.021873 36.740623 48.365623 38.146873Q49.725 39.553123 49.725 42.021873Q49.725 44.021873 49.13125 45.178123Q48.5375 46.31875 47.38125 46.959373Q46.240623 47.584373 44.88125 47.584373Q42.69375 47.584373 41.35 46.19375Q40.021873 44.7875 40.021873 42.1625ZM41.81875 42.1625Q41.81875 44.1625 42.678123 45.146873Q43.553123 46.13125 44.88125 46.13125Q46.19375 46.13125 47.053123 45.146873Q47.928123 44.146873 47.928123 42.1Q47.928123 40.178123 47.053123 39.19375Q46.178123 38.19375 44.88125 38.19375Q43.553123 38.19375 42.678123 39.19375Q41.81875 40.178123 41.81875 42.1625ZM51.6625 47.35L51.6625 36.975L53.25625 36.975L53.25625 38.459373Q54.396873 36.740623 56.553123 36.740623Q57.490623 36.740623 58.271873 37.084373Q59.06875 37.4125 59.459373 37.959373Q59.85 38.50625 60.00625 39.25625Q60.1 39.75625 60.1 40.975L60.1 47.35L58.334373 47.35L58.334373 41.0375Q58.334373 39.959373 58.13125 39.428123Q57.928123 38.896873 57.396873 38.584373Q56.88125 38.271873 56.178123 38.271873Q55.053123 38.271873 54.240623 38.990623Q53.428123 39.69375 53.428123 41.678123L53.428123 47.35L51.6625 47.35ZM69.39687 47.35L69.39687 46.0375Q68.4125 47.584373 66.49062 47.584373Q65.25625 47.584373 64.20937 46.896873Q63.178123 46.209373 62.6 44.990623Q62.0375 43.771873 62.0375 42.178123Q62.0375 40.615623 62.553123 39.35Q63.06875 38.084373 64.1 37.4125Q65.14687 36.740623 66.4125 36.740623Q67.35 36.740623 68.08437 37.146873Q68.81875 37.5375 69.2875 38.1625L69.2875 33.0375L71.02187 33.0375L71.02187 47.35L69.39687 47.35ZM63.834373 42.178123Q63.834373 44.1625 64.67812 45.146873Q65.52187 46.13125 66.6625 46.13125Q67.81875 46.13125 68.61562 45.19375Q69.42812 44.25625 69.42812 42.31875Q69.42812 40.19375 68.6 39.19375Q67.7875 38.19375 66.58437 38.19375Q65.4125 38.19375 64.61562 39.1625Q63.834373 40.115623 63.834373 42.178123ZM73.02187 42.1625Q73.02187 39.2875 74.61562 37.896873Q75.95937 36.740623 77.88125 36.740623Q80.02187 36.740623 81.36562 38.146873Q82.725 39.553123 82.725 42.021873Q82.725 44.021873 82.13125 45.178123Q81.5375 46.31875 80.38125 46.959373Q79.24062 47.584373 77.88125 47.584373Q75.69375 47.584373 74.35 46.19375Q73.02187 44.7875 73.02187 42.1625ZM74.81875 42.1625Q74.81875 44.1625 75.67812 45.146873Q76.55312 46.13125 77.88125 46.13125Q79.19375 46.13125 80.05312 45.146873Q80.92812 44.146873 80.92812 42.1Q80.92812 40.178123 80.05312 39.19375Q79.17812 38.19375 77.88125 38.19375Q76.55312 38.19375 75.67812 39.19375Q74.81875 40.178123 74.81875 42.1625ZM84.6625 47.35L84.6625 36.975L86.25625 36.975L86.25625 38.459373Q87.39687 36.740623 89.55312 36.740623Q90.49062 36.740623 91.27187 37.084373Q92.06875 37.4125 92.45937 37.959373Q92.85 38.50625 93.00625 39.25625Q93.1 39.75625 93.1 40.975L93.1 47.35L91.33437 47.35L91.33437 41.0375Q91.33437 39.959373 91.13125 39.428123Q90.92812 38.896873 90.39687 38.584373Q89.88125 38.271873 89.17812 38.271873Q88.05312 38.271873 87.24062 38.990623Q86.42812 39.69375 86.42812 41.678123L86.42812 47.35L84.6625 47.35ZM101.89687 47.35L101.89687 33.0375L107.2875 33.0375Q108.725 33.0375 109.475 33.1625Q110.52187 33.35 111.24062 33.85Q111.95937 34.334373 112.38125 35.225Q112.81875 36.115623 112.81875 37.178123Q112.81875 39.00625 111.64687 40.271873Q110.49062 41.521873 107.45937 41.521873L103.7875 41.521873L103.7875 47.35L101.89687 47.35ZM103.7875 39.834373L107.49062 39.834373Q109.31875 39.834373 110.08437 39.1625Q110.86562 38.475 110.86562 37.225Q110.86562 36.334373 110.4125 35.69375Q109.95937 35.053123 109.225 34.85Q108.74062 34.725 107.44375 34.725L103.7875 34.725L103.7875 39.834373ZM114.02187 42.1625Q114.02187 39.2875 115.61562 37.896873Q116.95937 36.740623 118.88125 36.740623Q121.02187 36.740623 122.36562 38.146873Q123.725 39.553123 123.725 42.021873Q123.725 44.021873 123.13125 45.178123Q122.5375 46.31875 121.38125 46.959373Q120.24062 47.584373 118.88125 47.584373Q116.69375 47.584373 115.35 46.19375Q114.02187 44.7875 114.02187 42.1625ZM115.81875 42.1625Q115.81875 44.1625 116.67812 45.146873Q117.55312 46.13125 118.88125 46.13125Q120.19375 46.13125 121.05312 45.146873Q121.92812 44.146873 121.92812 42.1Q121.92812 40.178123 121.05312 39.19375Q120.17812 38.19375 118.88125 38.19375Q117.55312 38.19375 116.67812 39.19375Q115.81875 40.178123 115.81875 42.1625ZM132.45938 47.35L132.45938 45.81875Q131.25626 47.584373 129.17813 47.584373Q128.25626 47.584373 127.45937 47.240623Q126.6625 46.88125 126.27187 46.35Q125.89687 45.81875 125.74062 45.0375Q125.63125 44.521873 125.63125 43.396873L125.63125 36.975L127.38125 36.975L127.38125 42.725Q127.38125 44.1 127.49062 44.584373Q127.6625 45.271873 128.19376 45.678123Q128.74063 46.06875 129.52188 46.06875Q130.31876 46.06875 131.00626 45.6625Q131.70938 45.25625 131.99063 44.56875Q132.2875 43.865623 132.2875 42.5375L132.2875 36.975L134.0375 36.975L134.0375 47.35L132.45938 47.35ZM136.6625 47.35L136.6625 36.975L138.25626 36.975L138.25626 38.459373Q139.39688 36.740623 141.55313 36.740623Q142.49063 36.740623 143.27188 37.084373Q144.06876 37.4125 144.45938 37.959373Q144.85 38.50625 145.00626 39.25625Q145.1 39.75625 145.1 40.975L145.1 47.35L143.33438 47.35L143.33438 41.0375Q143.33438 39.959373 143.13126 39.428123Q142.92813 38.896873 142.39688 38.584373Q141.88126 38.271873 141.17813 38.271873Q140.05313 38.271873 139.24063 38.990623Q138.42813 39.69375 138.42813 41.678123L138.42813 47.35L136.6625 47.35ZM154.39688 47.35L154.39688 46.0375Q153.4125 47.584373 151.49063 47.584373Q150.25626 47.584373 149.20938 46.896873Q148.17813 46.209373 147.6 44.990623Q147.0375 43.771873 147.0375 42.178123Q147.0375 40.615623 147.55313 39.35Q148.06876 38.084373 149.1 37.4125Q150.14688 36.740623 151.4125 36.740623Q152.35 36.740623 153.08438 37.146873Q153.81876 37.5375 154.2875 38.1625L154.2875 33.0375L156.02188 33.0375L156.02188 47.35L154.39688 47.35ZM148.83438 42.178123Q148.83438 44.1625 149.67813 45.146873Q150.52188 46.13125 151.6625 46.13125Q152.81876 46.13125 153.61563 45.19375Q154.42813 44.25625 154.42813 42.31875Q154.42813 40.19375 153.6 39.19375Q152.7875 38.19375 151.58438 38.19375Q150.4125 38.19375 149.61563 39.1625Q148.83438 40.115623 148.83438 42.178123ZM175.11563 42.334373L177.00626 42.803123Q176.4125 45.146873 174.86563 46.38125Q173.31876 47.6 171.06876 47.6Q168.75626 47.6 167.30313 46.6625Q165.86563 45.709373 165.1 43.928123Q164.35 42.13125 164.35 40.084373Q164.35 37.85 165.19376 36.19375Q166.05313 34.521873 167.63126 33.6625Q169.20938 32.7875 171.1 32.7875Q173.25626 32.7875 174.70938 33.88125Q176.17813 34.975 176.75626 36.959373L174.89688 37.396873Q174.39688 35.834373 173.44376 35.13125Q172.50626 34.4125 171.06876 34.4125Q169.4125 34.4125 168.30313 35.209373Q167.19376 35.990623 166.74063 37.334373Q166.30313 38.6625 166.30313 40.06875Q166.30313 41.896873 166.83438 43.271873Q167.36563 44.63125 168.49063 45.303123Q169.61563 45.975 170.9125 45.975Q172.50626 45.975 173.61563 45.053123Q174.725 44.13125 175.11563 42.334373ZM185.44376 46.06875Q184.45938 46.896873 183.55313 47.240623Q182.64688 47.584373 181.61563 47.584373Q179.9125 47.584373 178.99063 46.75625Q178.06876 45.9125 178.06876 44.615623Q178.06876 43.85 178.4125 43.225Q178.77188 42.6 179.33438 42.225Q179.89688 41.834373 180.6 41.63125Q181.11563 41.50625 182.1625 41.365623Q184.2875 41.115623 185.2875 40.771873Q185.30313 40.4125 185.30313 40.303123Q185.30313 39.240623 184.80313 38.7875Q184.13126 38.19375 182.80313 38.19375Q181.55313 38.19375 180.95938 38.63125Q180.38126 39.06875 180.1 40.178123L178.38126 39.94375Q178.61563 38.834373 179.14688 38.1625Q179.67813 37.475 180.69376 37.115623Q181.70938 36.740623 183.05313 36.740623Q184.38126 36.740623 185.20938 37.053123Q186.0375 37.365623 186.42813 37.85Q186.81876 38.31875 186.975 39.0375Q187.06876 39.490623 187.06876 40.6625L187.06876 43.00625Q187.06876 45.459373 187.17813 46.115623Q187.2875 46.75625 187.63126 47.35L185.7875 47.35Q185.52188 46.803123 185.44376 46.06875ZM185.2875 42.146873Q184.33438 42.5375 182.4125 42.803123Q181.33438 42.959373 180.88126 43.1625Q180.44376 43.35 180.19376 43.725Q179.94376 44.1 179.94376 44.56875Q179.94376 45.271873 180.475 45.740623Q181.00626 46.209373 182.0375 46.209373Q183.05313 46.209373 183.83438 45.771873Q184.63126 45.31875 185.00626 44.553123Q185.2875 43.94375 185.2875 42.7875L185.2875 42.146873ZM189.67813 47.35L189.67813 33.0375L191.44376 33.0375L191.44376 41.19375L195.6 36.975L197.86563 36.975L193.9125 40.81875L198.27188 47.35L196.1 47.35L192.67813 42.053123L191.44376 43.240623L191.44376 47.35L189.67813 47.35ZM206.77188 44.00625L208.58438 44.240623Q208.1625 45.81875 206.99063 46.709373Q205.83438 47.584373 204.02188 47.584373Q201.75626 47.584373 200.4125 46.19375Q199.08438 44.7875 199.08438 42.25625Q199.08438 39.63125 200.42813 38.19375Q201.77188 36.740623 203.92813 36.740623Q206.00626 36.740623 207.31876 38.1625Q208.64688 39.56875 208.64688 42.146873Q208.64688 42.303123 208.63126 42.615623L200.89688 42.615623Q200.99063 44.31875 201.86563 45.225Q202.74063 46.13125 204.0375 46.13125Q205.00626 46.13125 205.67813 45.63125Q206.36563 45.115623 206.77188 44.00625ZM200.99063 41.1625L206.7875 41.1625Q206.67813 39.865623 206.13126 39.209373Q205.2875 38.19375 203.94376 38.19375Q202.74063 38.19375 201.9125 39.00625Q201.08438 39.803123 200.99063 41.1625Z" fill-rule="nonzero"/></svg>