<svg version="1.1" viewBox="0.0 0.0 744.0 567.0" fill="none" stroke="none" stroke-linecap="square" stroke-miterlimit="10" width="744" height="567" xmlns:xlink="http://www.w3.org/1999/xlink" xmlns="http://www.w3.org/2000/svg"><path fill="#ffffff" d="M0 0L744.0 0L744.0 567.0L0 567.0L0 0Z" fill-rule="nonzero"/><path fill="#ffffff" d="M28.35 71.25L715.64996 71.25L715.64996 538.65L28.35 538.65L28.35 71.25Z" fill-rule="nonzero"/><path stroke="#cccccc" stroke-width="1.0" stroke-linecap="butt" d="M372.0 305.0C372.0 305.0 372.0 305.0 372.0 305.0C372.0 305.0 372.0 305.0 372.0 305.0C372.0 305.0 372.0 305.0 372.0 305.0C372.0 305.0 372.0 305.0 372.0 305.0" fill-rule="nonzero"/><path fill="#000000" d="M360.0625 297.04688L360.0625 298.35938Q360.0625 299.40625 359.875 300.125Q359.6875 300.84375 359.32812 301.28125Q358.98438 301.71875 358.48438 301.92188Q358.0 302.125 357.375 302.125Q356.89062 302.125 356.46875 302.0Q356.04688 301.875 355.71875 301.60938Q355.39062 301.32812 355.15625 300.89062Q354.92188 300.45312 354.79688 299.82812Q354.67188 299.1875 354.67188 298.35938L354.67188 297.04688Q354.67188 296.0 354.85938 295.29688Q355.0625 294.59375 355.40625 294.15625Q355.76562 293.71875 356.25 293.53125Q356.75 293.34375 357.35938 293.34375Q357.85938 293.34375 358.28125 293.46875Q358.70312 293.59375 359.03125 293.85938Q359.35938 294.10938 359.57812 294.54688Q359.8125 294.96875 359.9375 295.59375Q360.0625 296.21875 360.0625 297.04688ZM358.96875 298.53125L358.96875 296.875Q358.96875 296.29688 358.90625 295.85938Q358.84375 295.42188 358.70312 295.10938Q358.57812 294.79688 358.375 294.60938Q358.1875 294.42188 357.9375 294.32812Q357.6875 294.23438 357.35938 294.23438Q356.98438 294.23438 356.67188 294.375Q356.375 294.51562 356.17188 294.82812Q355.96875 295.14062 355.85938 295.65625Q355.76562 296.15625 355.76562 296.875L355.76562 298.53125Q355.76562 299.10938 355.82812 299.54688Q355.90625 299.98438 356.03125 300.3125Q356.17188 300.625 356.35938 300.82812Q356.5625 301.03125 356.8125 301.125Q357.0625 301.21875 357.375 301.21875Q357.78125 301.21875 358.07812 301.07812Q358.375 300.92188 358.57812 300.59375Q358.78125 300.26562 358.875 299.76562Q358.96875 299.25 358.96875 298.53125ZM362.8125 300.70312L362.8125 301.57812Q362.8125 302.125 362.53125 302.71875Q362.26562 303.3125 361.78125 303.70312L361.17188 303.28125Q361.35938 303.01562 361.48438 302.75Q361.60938 302.48438 361.67188 302.20312Q361.75 301.92188 361.75 301.59375L361.75 300.70312L362.8125 300.70312ZM369.0625 297.04688L369.0625 298.35938Q369.0625 299.40625 368.875 300.125Q368.6875 300.84375 368.32812 301.28125Q367.98438 301.71875 367.48438 301.92188Q367.0 302.125 366.375 302.125Q365.89062 302.125 365.46875 302.0Q365.04688 301.875 364.71875 301.60938Q364.39062 301.32812 364.15625 300.89062Q363.92188 300.45312 363.79688 299.82812Q363.67188 299.1875 363.67188 298.35938L363.67188 297.04688Q363.67188 296.0 363.85938 295.29688Q364.0625 294.59375 364.40625 294.15625Q364.76562 293.71875 365.25 293.53125Q365.75 293.34375 366.35938 293.34375Q366.85938 293.34375 367.28125 293.46875Q367.70312 293.59375 368.03125 293.85938Q368.35938 294.10938 368.57812 294.54688Q368.8125 294.96875 368.9375 295.59375Q369.0625 296.21875 369.0625 297.04688ZM367.96875 298.53125L367.96875 296.875Q367.96875 296.29688 367.90625 295.85938Q367.84375 295.42188 367.70312 295.10938Q367.57812 294.79688 367.375 294.60938Q367.1875 294.42188 366.9375 294.32812Q366.6875 294.23438 366.35938 294.23438Q365.98438 294.23438 365.67188 294.375Q365.375 294.51562 365.17188 294.82812Q364.96875 295.14062 364.85938 295.65625Q364.76562 296.15625 364.76562 296.875L364.76562 298.53125Q364.76562 299.10938 364.82812 299.54688Q364.90625 299.98438 365.03125 300.3125Q365.17188 300.625 365.35938 300.82812Q365.5625 301.03125 365.8125 301.125Q366.0625 301.21875 366.375 301.21875Q366.78125 301.21875 367.07812 301.07812Q367.375 300.92188 367.57812 300.59375Q367.78125 300.26562 367.875 299.76562Q367.96875 299.25 367.96875 298.53125Z" fill-rule="nonzero"/><path stroke="#cccccc" stroke-width="1.0" stroke-linecap="butt" d="M422.425 305.0C422.425 277.15103 399.84897 254.575 372.0 254.575C344.15103 254.575 321.575 277.15103 321.575 305.0C321.575 332.84897 344.15103 355.425 372.0 355.425C399.84897 355.425 422.425 332.84897 422.425 305.0" fill-rule="nonzero"/><path fill="#000000" d="M360.0625 246.62187L360.0625 247.93437Q360.0625 248.98125 359.875 249.7Q359.6875 250.41875 359.32812 250.85625Q358.98438 251.29375 358.48438 251.49687Q358.0 251.7 357.375 251.7Q356.89062 251.7 356.46875 251.575Q356.04688 251.45 355.71875 251.18437Q355.39062 250.90312 355.15625 250.46562Q354.92188 250.02812 354.79688 249.40312Q354.67188 248.7625 354.67188 247.93437L354.67188 246.62187Q354.67188 245.575 354.85938 244.87187Q355.0625 244.16875 355.40625 243.73125Q355.76562 243.29375 356.25 243.10625Q356.75 242.91875 357.35938 242.91875Q357.85938 242.91875 358.28125 243.04375Q358.70312 243.16875 359.03125 243.43437Q359.35938 243.68437 359.57812 244.12187Q359.8125 244.54375 359.9375 245.16875Q360.0625 245.79375 360.0625 246.62187ZM358.96875 248.10625L358.96875 246.45Q358.96875 245.87187 358.90625 245.43437Q358.84375 244.99687 358.70312 244.68437Q358.57812 244.37187 358.375 244.18437Q358.1875 243.99687 357.9375 243.90312Q357.6875 243.80937 357.35938 243.80937Q356.98438 243.80937 356.67188 243.95Q356.375 244.09062 356.17188 244.40312Q355.96875 244.71562 355.85938 245.23125Q355.76562 245.73125 355.76562 246.45L355.76562 248.10625Q355.76562 248.68437 355.82812 249.12187Q355.90625 249.55937 356.03125 249.8875Q356.17188 250.2 356.35938 250.40312Q356.5625 250.60625 356.8125 250.7Q357.0625 250.79375 357.375 250.79375Q357.78125 250.79375 358.07812 250.65312Q358.375 250.49687 358.57812 250.16875Q358.78125 249.84062 358.875 249.34062Q358.96875 248.825 358.96875 248.10625ZM362.8125 250.27812L362.8125 251.15312Q362.8125 251.7 362.53125 252.29375Q362.26562 252.8875 361.78125 253.27812L361.17188 252.85625Q361.35938 252.59062 361.48438 252.325Q361.60938 252.05937 361.67188 251.77812Q361.75 251.49687 361.75 251.16875L361.75 250.27812L362.8125 250.27812ZM367.26562 242.99687L367.26562 251.575L366.1875 251.575L366.1875 244.35625L364.0 245.15312L364.0 244.16875L367.10938 242.99687L367.26562 242.99687Z" fill-rule="nonzero"/><path stroke="#cccccc" stroke-width="1.0" stroke-linecap="butt" d="M472.85 305.0C472.85 249.30208 427.6979 204.15 372.0 204.15C316.3021 204.15 271.15 249.30208 271.15 305.0C271.15 360.6979 316.3021 405.85 372.0 405.85C427.6979 405.85 472.85 360.6979 472.85 305.0" fill-rule="nonzero"/><path fill="#000000" d="M360.0625 196.19687L360.0625 197.50937Q360.0625 198.55624 359.875 199.275Q359.6875 199.99374 359.32812 200.43124Q358.98438 200.86874 358.48438 201.07187Q358.0 201.275 357.375 201.275Q356.89062 201.275 356.46875 201.15Q356.04688 201.025 355.71875 200.75937Q355.39062 200.47812 355.15625 200.04062Q354.92188 199.60312 354.79688 198.97812Q354.67188 198.3375 354.67188 197.50937L354.67188 196.19687Q354.67188 195.15 354.85938 194.44687Q355.0625 193.74374 355.40625 193.30624Q355.76562 192.86874 356.25 192.68124Q356.75 192.49374 357.35938 192.49374Q357.85938 192.49374 358.28125 192.61874Q358.70312 192.74374 359.03125 193.00937Q359.35938 193.25937 359.57812 193.69687Q359.8125 194.11874 359.9375 194.74374Q360.0625 195.36874 360.0625 196.19687ZM358.96875 197.68124L358.96875 196.025Q358.96875 195.44687 358.90625 195.00937Q358.84375 194.57187 358.70312 194.25937Q358.57812 193.94687 358.375 193.75937Q358.1875 193.57187 357.9375 193.47812Q357.6875 193.38437 357.35938 193.38437Q356.98438 193.38437 356.67188 193.525Q356.375 193.66562 356.17188 193.97812Q355.96875 194.29062 355.85938 194.80624Q355.76562 195.30624 355.76562 196.025L355.76562 197.68124Q355.76562 198.25937 355.82812 198.69687Q355.90625 199.13437 356.03125 199.4625Q356.17188 199.775 356.35938 199.97812Q356.5625 200.18124 356.8125 200.275Q357.0625 200.36874 357.375 200.36874Q357.78125 200.36874 358.07812 200.22812Q358.375 200.07187 358.57812 199.74374Q358.78125 199.41562 358.875 198.91562Q358.96875 198.4 358.96875 197.68124ZM362.8125 199.85312L362.8125 200.72812Q362.8125 201.275 362.53125 201.86874Q362.26562 202.4625 361.78125 202.85312L361.17188 202.43124Q361.35938 202.16562 361.48438 201.9Q361.60938 201.63437 361.67188 201.35312Q361.75 201.07187 361.75 200.74374L361.75 199.85312L362.8125 199.85312ZM369.29688 200.25937L369.29688 201.15L363.71875 201.15L363.71875 200.36874L366.51562 197.25937Q367.03125 196.68124 367.3125 196.29062Q367.59375 195.88437 367.70312 195.57187Q367.82812 195.24374 367.82812 194.91562Q367.82812 194.49374 367.65625 194.15Q367.48438 193.80624 367.14062 193.60312Q366.8125 193.38437 366.32812 193.38437Q365.76562 193.38437 365.39062 193.61874Q365.01562 193.8375 364.82812 194.22812Q364.64062 194.61874 364.64062 195.11874L363.54688 195.11874Q363.54688 194.4 363.85938 193.80624Q364.1875 193.2125 364.79688 192.85312Q365.42188 192.49374 366.32812 192.49374Q367.14062 192.49374 367.71875 192.79062Q368.29688 193.07187 368.59375 193.5875Q368.90625 194.0875 368.90625 194.775Q368.90625 195.15 368.78125 195.54062Q368.65625 195.91562 368.4375 196.30624Q368.21875 196.68124 367.92188 197.05624Q367.64062 197.41562 367.3125 197.775L365.01562 200.25937L369.29688 200.25937Z" fill-rule="nonzero"/><path stroke="#cccccc" stroke-width="1.0" stroke-linecap="butt" d="M523.275 305.0C523.275 221.45312 455.54688 153.725 372.0 153.725C288.45312 153.725 220.725 221.45312 220.725 305.0C220.725 388.54688 288.45312 456.275 372.0 456.275C455.54688 456.275 523.275 388.54688 523.275 305.0" fill-rule="nonzero"/><path fill="#000000" d="M360.0625 145.77188L360.0625 147.08438Q360.0625 148.13126 359.875 148.85Q359.6875 149.56876 359.32812 150.00626Q358.98438 150.44376 358.48438 150.64688Q358.0 150.85 357.375 150.85Q356.89062 150.85 356.46875 150.725Q356.04688 150.6 355.71875 150.33438Q355.39062 150.05313 355.15625 149.61563Q354.92188 149.17813 354.79688 148.55313Q354.67188 147.9125 354.67188 147.08438L354.67188 145.77188Q354.67188 144.725 354.85938 144.02188Q355.0625 143.31876 355.40625 142.88126Q355.76562 142.44376 356.25 142.25626Q356.75 142.06876 357.35938 142.06876Q357.85938 142.06876 358.28125 142.19376Q358.70312 142.31876 359.03125 142.58438Q359.35938 142.83438 359.57812 143.27188Q359.8125 143.69376 359.9375 144.31876Q360.0625 144.94376 360.0625 145.77188ZM358.96875 147.25626L358.96875 145.6Q358.96875 145.02188 358.90625 144.58438Q358.84375 144.14688 358.70312 143.83438Q358.57812 143.52188 358.375 143.33438Q358.1875 143.14688 357.9375 143.05313Q357.6875 142.95938 357.35938 142.95938Q356.98438 142.95938 356.67188 143.1Q356.375 143.24063 356.17188 143.55313Q355.96875 143.86563 355.85938 144.38126Q355.76562 144.88126 355.76562 145.6L355.76562 147.25626Q355.76562 147.83438 355.82812 148.27188Q355.90625 148.70938 356.03125 149.0375Q356.17188 149.35 356.35938 149.55313Q356.5625 149.75626 356.8125 149.85Q357.0625 149.94376 357.375 149.94376Q357.78125 149.94376 358.07812 149.80313Q358.375 149.64688 358.57812 149.31876Q358.78125 148.99063 358.875 148.49063Q358.96875 147.975 358.96875 147.25626ZM362.8125 149.42813L362.8125 150.30313Q362.8125 150.85 362.53125 151.44376Q362.26562 152.0375 361.78125 152.42813L361.17188 152.00626Q361.35938 151.74063 361.48438 151.475Q361.60938 151.20938 361.67188 150.92813Q361.75 150.64688 361.75 150.31876L361.75 149.42813L362.8125 149.42813ZM365.29688 145.92813L366.0625 145.92813Q366.64062 145.92813 367.0 145.74063Q367.375 145.5375 367.5625 145.20938Q367.75 144.88126 367.75 144.45938Q367.75 143.975 367.57812 143.64688Q367.42188 143.30313 367.09375 143.13126Q366.76562 142.95938 366.26562 142.95938Q365.79688 142.95938 365.45312 143.14688Q365.10938 143.31876 364.90625 143.64688Q364.71875 143.975 364.71875 144.42813L363.625 144.42813Q363.625 143.77188 363.95312 143.24063Q364.28125 142.70938 364.875 142.39688Q365.46875 142.06876 366.26562 142.06876Q367.03125 142.06876 367.60938 142.35Q368.1875 142.61563 368.51562 143.1625Q368.84375 143.69376 368.84375 144.49063Q368.84375 144.81876 368.6875 145.17813Q368.53125 145.5375 368.21875 145.86563Q367.90625 146.17813 367.40625 146.38126Q366.92188 146.58438 366.21875 146.58438L365.29688 146.58438L365.29688 145.92813ZM365.29688 146.81876L365.29688 146.1625L366.21875 146.1625Q367.03125 146.1625 367.5625 146.36563Q368.09375 146.55313 368.40625 146.88126Q368.71875 147.19376 368.84375 147.58438Q368.96875 147.95938 368.96875 148.35Q368.96875 148.94376 368.76562 149.4125Q368.5625 149.86563 368.1875 150.19376Q367.82812 150.50626 367.32812 150.67813Q366.84375 150.85 366.26562 150.85Q365.70312 150.85 365.21875 150.69376Q364.73438 150.52188 364.35938 150.225Q363.98438 149.92813 363.76562 149.49063Q363.5625 149.0375 363.5625 148.475L364.64062 148.475Q364.64062 148.9125 364.82812 149.25626Q365.03125 149.58438 365.39062 149.77188Q365.76562 149.94376 366.26562 149.94376Q366.76562 149.94376 367.125 149.77188Q367.48438 149.6 367.67188 149.25626Q367.875 148.89688 367.875 148.36563Q367.875 147.83438 367.65625 147.49063Q367.4375 147.14688 367.01562 146.99063Q366.60938 146.81876 366.0625 146.81876L365.29688 146.81876Z" fill-rule="nonzero"/><path stroke="#cccccc" stroke-width="1.0" stroke-linecap="butt" d="M573.7 305.0C573.7 193.60417 483.39584 103.3 372.0 103.3C260.60416 103.3 170.3 193.60417 170.3 305.0C170.3 416.39584 260.60416 506.7 372.0 506.7C483.39584 506.7 573.7 416.39584 573.7 305.0" fill-rule="nonzero"/><path fill="#000000" d="M360.0625 95.34688L360.0625 96.65938Q360.0625 97.70625 359.875 98.425Q359.6875 99.14375 359.32812 99.58125Q358.98438 100.01875 358.48438 100.22188Q358.0 100.425 357.375 100.425Q356.89062 100.425 356.46875 100.3Q356.04688 100.175 355.71875 99.90938Q355.39062 99.62813 355.15625 99.19063Q354.92188 98.75313 354.79688 98.12813Q354.67188 97.4875 354.67188 96.65938L354.67188 95.34688Q354.67188 94.3 354.85938 93.59688Q355.0625 92.89375 355.40625 92.45625Q355.76562 92.01875 356.25 91.83125Q356.75 91.64375 357.35938 91.64375Q357.85938 91.64375 358.28125 91.76875Q358.70312 91.89375 359.03125 92.15938Q359.35938 92.40938 359.57812 92.84688Q359.8125 93.26875 359.9375 93.89375Q360.0625 94.51875 360.0625 95.34688ZM358.96875 96.83125L358.96875 95.175Q358.96875 94.59688 358.90625 94.15938Q358.84375 93.72188 358.70312 93.40938Q358.57812 93.09688 358.375 92.90938Q358.1875 92.72188 357.9375 92.62813Q357.6875 92.53438 357.35938 92.53438Q356.98438 92.53438 356.67188 92.675Q356.375 92.81563 356.17188 93.12813Q355.96875 93.44063 355.85938 93.95625Q355.76562 94.45625 355.76562 95.175L355.76562 96.83125Q355.76562 97.40938 355.82812 97.84688Q355.90625 98.28438 356.03125 98.6125Q356.17188 98.925 356.35938 99.12813Q356.5625 99.33125 356.8125 99.425Q357.0625 99.51875 357.375 99.51875Q357.78125 99.51875 358.07812 99.37813Q358.375 99.22188 358.57812 98.89375Q358.78125 98.56563 358.875 98.06563Q358.96875 97.55 358.96875 96.83125ZM362.8125 99.00313L362.8125 99.87813Q362.8125 100.425 362.53125 101.01875Q362.26562 101.6125 361.78125 102.00313L361.17188 101.58125Q361.35938 101.31563 361.48438 101.05Q361.60938 100.78438 361.67188 100.50313Q361.75 100.22188 361.75 99.89375L361.75 99.00313L362.8125 99.00313ZM369.46875 97.425L369.46875 98.31563L363.3125 98.31563L363.3125 97.675L367.125 91.76875L368.01562 91.76875L367.0625 93.47188L364.54688 97.425L369.46875 97.425ZM368.28125 91.76875L368.28125 100.3L367.20312 100.3L367.20312 91.76875L368.28125 91.76875Z" fill-rule="nonzero"/><path stroke="#cccccc" stroke-width="1.0" stroke-linecap="butt" d="M372.0 305.0L372.0 103.0" fill-rule="nonzero"/><path fill="#000000" d="M349.125 68.96875L349.125 77.5L347.98438 77.5L347.98438 68.96875L349.125 68.96875ZM352.70312 72.8125L352.70312 73.734375L348.875 73.734375L348.875 72.8125L352.70312 72.8125ZM353.28125 68.96875L353.28125 69.890625L348.875 69.890625L348.875 68.96875L353.28125 68.96875ZM358.5625 76.421875L358.5625 73.15625Q358.5625 72.78125 358.40625 72.5Q358.26562 72.21875 357.96875 72.078125Q357.67188 71.921875 357.23438 71.921875Q356.8125 71.921875 356.5 72.0625Q356.20312 72.203125 356.03125 72.4375Q355.85938 72.65625 355.85938 72.921875L354.78125 72.921875Q354.78125 72.578125 354.95312 72.25Q355.125 71.90625 355.45312 71.640625Q355.78125 71.359375 356.25 71.203125Q356.71875 71.046875 357.29688 71.046875Q357.98438 71.046875 358.51562 71.28125Q359.04688 71.515625 359.34375 71.984375Q359.65625 72.453125 359.65625 73.15625L359.65625 76.109375Q359.65625 76.4375 359.70312 76.796875Q359.76562 77.140625 359.875 77.40625L359.875 77.5L358.73438 77.5Q358.65625 77.3125 358.60938 77.0Q358.5625 76.6875 358.5625 76.421875ZM358.75 73.65625L358.76562 74.421875L357.67188 74.421875Q357.20312 74.421875 356.84375 74.5Q356.48438 74.5625 356.23438 74.71875Q355.98438 74.859375 355.85938 75.078125Q355.73438 75.296875 355.73438 75.59375Q355.73438 75.890625 355.85938 76.140625Q356.0 76.375 356.26562 76.53125Q356.54688 76.671875 356.9375 76.671875Q357.4375 76.671875 357.8125 76.46875Q358.20312 76.25 358.42188 75.953125Q358.65625 75.640625 358.67188 75.34375L359.14062 75.875Q359.09375 76.109375 358.90625 76.421875Q358.73438 76.71875 358.42188 77.0Q358.125 77.265625 357.70312 77.453125Q357.29688 77.625 356.78125 77.625Q356.14062 77.625 355.65625 77.375Q355.17188 77.109375 354.90625 76.6875Q354.64062 76.265625 354.64062 75.734375Q354.64062 75.21875 354.82812 74.84375Q355.03125 74.453125 355.40625 74.1875Q355.78125 73.921875 356.3125 73.796875Q356.84375 73.65625 357.5 73.65625L358.75 73.65625ZM362.90625 72.15625L362.90625 77.5L361.82812 77.5L361.82812 71.15625L362.875 71.15625L362.90625 72.15625ZM364.89062 71.125L364.89062 72.125Q364.75 72.109375 364.625 72.09375Q364.51562 72.078125 364.35938 72.078125Q363.98438 72.078125 363.6875 72.203125Q363.40625 72.3125 363.20312 72.53125Q363.01562 72.734375 362.89062 73.03125Q362.78125 73.328125 362.75 73.671875L362.4375 73.84375Q362.4375 73.265625 362.54688 72.765625Q362.67188 72.265625 362.90625 71.875Q363.15625 71.484375 363.51562 71.265625Q363.89062 71.046875 364.40625 71.046875Q364.53125 71.046875 364.67188 71.078125Q364.82812 71.09375 364.89062 71.125ZM366.90625 72.515625L366.90625 77.5L365.82812 77.5L365.82812 71.15625L366.85938 71.15625L366.90625 72.515625ZM366.65625 74.09375L366.20312 74.078125Q366.20312 73.421875 366.39062 72.875Q366.57812 72.3125 366.92188 71.90625Q367.26562 71.5 367.73438 71.28125Q368.20312 71.046875 368.78125 71.046875Q369.25 71.046875 369.625 71.171875Q370.0 71.296875 370.26562 71.578125Q370.53125 71.84375 370.67188 72.28125Q370.8125 72.71875 370.8125 73.34375L370.8125 77.5L369.71875 77.5L369.71875 73.328125Q369.71875 72.828125 369.57812 72.53125Q369.4375 72.234375 369.15625 72.09375Q368.875 71.953125 368.45312 71.953125Q368.04688 71.953125 367.71875 72.125Q367.39062 72.296875 367.15625 72.59375Q366.92188 72.890625 366.78125 73.28125Q366.65625 73.65625 366.65625 74.09375ZM375.45312 77.625Q374.79688 77.625 374.25 77.40625Q373.71875 77.171875 373.32812 76.765625Q372.95312 76.34375 372.75 75.78125Q372.54688 75.21875 372.54688 74.546875L372.54688 74.3125Q372.54688 73.53125 372.76562 72.921875Q373.0 72.3125 373.39062 71.890625Q373.78125 71.46875 374.28125 71.265625Q374.78125 71.046875 375.3125 71.046875Q376.0 71.046875 376.48438 71.28125Q376.98438 71.515625 377.29688 71.9375Q377.625 72.34375 377.76562 72.921875Q377.92188 73.484375 377.92188 74.140625L377.92188 74.640625L373.1875 74.640625L373.1875 73.75L376.84375 73.75L376.84375 73.671875Q376.8125 73.25 376.65625 72.859375Q376.51562 72.453125 376.1875 72.203125Q375.875 71.9375 375.3125 71.9375Q374.95312 71.9375 374.64062 72.09375Q374.32812 72.25 374.09375 72.5625Q373.875 72.859375 373.75 73.296875Q373.64062 73.734375 373.64062 74.3125L373.64062 74.546875Q373.64062 75.0 373.76562 75.40625Q373.89062 75.796875 374.125 76.09375Q374.375 76.390625 374.71875 76.5625Q375.07812 76.734375 375.51562 76.734375Q376.09375 76.734375 376.48438 76.5Q376.89062 76.265625 377.1875 75.875L377.84375 76.390625Q377.64062 76.703125 377.3125 76.984375Q377.0 77.265625 376.53125 77.453125Q376.07812 77.625 375.45312 77.625ZM382.51562 75.8125Q382.51562 75.578125 382.40625 75.375Q382.3125 75.171875 382.0 75.015625Q381.6875 74.84375 381.0625 74.71875Q380.53125 74.609375 380.10938 74.46875Q379.6875 74.3125 379.39062 74.09375Q379.09375 73.875 378.9375 73.578125Q378.78125 73.28125 378.78125 72.890625Q378.78125 72.515625 378.9375 72.1875Q379.10938 71.84375 379.40625 71.59375Q379.71875 71.328125 380.15625 71.1875Q380.59375 71.046875 381.125 71.046875Q381.89062 71.046875 382.42188 71.3125Q382.96875 71.578125 383.25 72.03125Q383.53125 72.484375 383.53125 73.015625L382.45312 73.015625Q382.45312 72.765625 382.29688 72.515625Q382.14062 72.265625 381.84375 72.109375Q381.54688 71.9375 381.125 71.9375Q380.67188 71.9375 380.39062 72.078125Q380.10938 72.203125 379.98438 72.421875Q379.85938 72.625 379.85938 72.859375Q379.85938 73.046875 379.92188 73.1875Q379.98438 73.3125 380.14062 73.4375Q380.29688 73.546875 380.57812 73.65625Q380.875 73.75 381.32812 73.84375Q382.10938 74.015625 382.60938 74.265625Q383.10938 74.515625 383.35938 74.875Q383.60938 75.21875 383.60938 75.734375Q383.60938 76.15625 383.42188 76.5Q383.25 76.84375 382.92188 77.09375Q382.60938 77.34375 382.15625 77.484375Q381.70312 77.625 381.15625 77.625Q380.3125 77.625 379.73438 77.328125Q379.15625 77.015625 378.85938 76.546875Q378.5625 76.0625 378.5625 75.546875L379.64062 75.546875Q379.67188 75.984375 379.90625 76.25Q380.14062 76.515625 380.46875 76.625Q380.8125 76.71875 381.15625 76.71875Q381.59375 76.71875 381.89062 76.609375Q382.20312 76.484375 382.35938 76.28125Q382.51562 76.078125 382.51562 75.8125ZM387.45312 77.625Q386.79688 77.625 386.25 77.40625Q385.71875 77.171875 385.32812 76.765625Q384.95312 76.34375 384.75 75.78125Q384.54688 75.21875 384.54688 74.546875L384.54688 74.3125Q384.54688 73.53125 384.76562 72.921875Q385.0 72.3125 385.39062 71.890625Q385.78125 71.46875 386.28125 71.265625Q386.78125 71.046875 387.3125 71.046875Q388.0 71.046875 388.48438 71.28125Q388.98438 71.515625 389.29688 71.9375Q389.625 72.34375 389.76562 72.921875Q389.92188 73.484375 389.92188 74.140625L389.92188 74.640625L385.1875 74.640625L385.1875 73.75L388.84375 73.75L388.84375 73.671875Q388.8125 73.25 388.65625 72.859375Q388.51562 72.453125 388.1875 72.203125Q387.875 71.9375 387.3125 71.9375Q386.95312 71.9375 386.64062 72.09375Q386.32812 72.25 386.09375 72.5625Q385.875 72.859375 385.75 73.296875Q385.64062 73.734375 385.64062 74.3125L385.64062 74.546875Q385.64062 75.0 385.76562 75.40625Q385.89062 75.796875 386.125 76.09375Q386.375 76.390625 386.71875 76.5625Q387.07812 76.734375 387.51562 76.734375Q388.09375 76.734375 388.48438 76.5Q388.89062 76.265625 389.1875 75.875L389.84375 76.390625Q389.64062 76.703125 389.3125 76.984375Q389.0 77.265625 388.53125 77.453125Q388.07812 77.625 387.45312 77.625ZM391.90625 72.515625L391.90625 77.5L390.82812 77.5L390.82812 71.15625L391.85938 71.15625L391.90625 72.515625ZM391.65625 74.09375L391.20312 74.078125Q391.20312 73.421875 391.39062 72.875Q391.57812 72.3125 391.92188 71.90625Q392.26562 71.5 392.73438 71.28125Q393.20312 71.046875 393.78125 71.046875Q394.25 71.046875 394.625 71.171875Q395.0 71.296875 395.26562 71.578125Q395.53125 71.84375 395.67188 72.28125Q395.8125 72.71875 395.8125 73.34375L395.8125 77.5L394.71875 77.5L394.71875 73.328125Q394.71875 72.828125 394.57812 72.53125Q394.4375 72.234375 394.15625 72.09375Q393.875 71.953125 393.45312 71.953125Q393.04688 71.953125 392.71875 72.125Q392.39062 72.296875 392.15625 72.59375Q391.92188 72.890625 391.78125 73.28125Q391.65625 73.65625 391.65625 74.09375Z" fill-rule="nonzero"/><path stroke="#cccccc" stroke-width="1.0" stroke-linecap="butt" d="M372.0 305.0L547.0 204.0" fill-rule="nonzero"/><path fill="#000000" d="M555.6719 192.57812L555.6719 193.5L551.40625 193.5L551.40625 192.57812L555.6719 192.57812ZM551.625 184.96875L551.625 193.5L550.4844 193.5L550.4844 184.96875L551.625 184.96875ZM557.5 187.15625L557.5 193.5L556.4219 193.5L556.4219 187.15625L557.5 187.15625ZM556.3281 185.48438Q556.3281 185.21875 556.4844 185.03125Q556.65625 184.84375 556.96875 184.84375Q557.28125 184.84375 557.4375 185.03125Q557.6094 185.21875 557.6094 185.48438Q557.6094 185.73438 557.4375 185.92188Q557.28125 186.09375 556.96875 186.09375Q556.65625 186.09375 556.4844 185.92188Q556.3281 185.73438 556.3281 185.48438ZM560.40625 188.42188L560.40625 193.5L559.3125 193.5L559.3125 187.15625L560.34375 187.15625L560.40625 188.42188ZM560.1875 190.09375L559.6719 190.07812Q559.6875 189.42188 559.84375 188.875Q560.0156 188.3125 560.3281 187.90625Q560.65625 187.5 561.1406 187.28125Q561.625 187.04688 562.25 187.04688Q562.7031 187.04688 563.0781 187.17188Q563.4531 187.29688 563.71875 187.5625Q564.0 187.82812 564.1406 188.25Q564.2969 188.67188 564.2969 189.28125L564.2969 193.5L563.21875 193.5L563.21875 189.32812Q563.21875 188.82812 563.0469 188.53125Q562.8906 188.23438 562.5781 188.09375Q562.28125 187.95312 561.8594 187.95312Q561.3906 187.95312 561.0625 188.125Q560.7344 188.29688 560.5469 188.59375Q560.3594 188.89062 560.2656 189.28125Q560.1875 189.65625 560.1875 190.09375ZM564.2969 189.48438L563.5625 189.71875Q563.5625 189.1875 563.7344 188.71875Q563.90625 188.23438 564.21875 187.85938Q564.5469 187.48438 565.0156 187.26562Q565.4844 187.04688 566.0781 187.04688Q566.59375 187.04688 566.9844 187.1875Q567.3906 187.3125 567.65625 187.59375Q567.9219 187.875 568.0625 188.3125Q568.2031 188.73438 568.2031 189.32812L568.2031 193.5L567.125 193.5L567.125 189.32812Q567.125 188.78125 566.9531 188.5Q566.78125 188.20312 566.4844 188.07812Q566.1875 187.95312 565.7656 187.95312Q565.40625 187.95312 565.125 188.07812Q564.8594 188.20312 564.6719 188.42188Q564.4844 188.625 564.3906 188.90625Q564.2969 189.1875 564.2969 189.48438ZM570.0469 190.40625L570.0469 190.26562Q570.0469 189.57812 570.2344 189.0Q570.4375 188.40625 570.8125 187.96875Q571.1875 187.53125 571.71875 187.29688Q572.25 187.04688 572.9219 187.04688Q573.5781 187.04688 574.1094 187.29688Q574.65625 187.53125 575.03125 187.96875Q575.40625 188.40625 575.6094 189.0Q575.8125 189.57812 575.8125 190.26562L575.8125 190.40625Q575.8125 191.07812 575.6094 191.67188Q575.40625 192.25 575.03125 192.6875Q574.65625 193.125 574.125 193.375Q573.59375 193.625 572.9219 193.625Q572.2656 193.625 571.71875 193.375Q571.1875 193.125 570.8125 192.6875Q570.4375 192.25 570.2344 191.67188Q570.0469 191.07812 570.0469 190.40625ZM571.125 190.26562L571.125 190.40625Q571.125 190.875 571.2344 191.29688Q571.34375 191.71875 571.5625 192.04688Q571.7969 192.35938 572.1406 192.54688Q572.4844 192.71875 572.9219 192.71875Q573.375 192.71875 573.7031 192.54688Q574.0469 192.35938 574.2656 192.04688Q574.5 191.71875 574.6094 191.29688Q574.71875 190.875 574.71875 190.40625L574.71875 190.26562Q574.71875 189.79688 574.6094 189.375Q574.5 188.95312 574.2656 188.64062Q574.0469 188.3125 573.7031 188.125Q573.375 187.9375 572.9219 187.9375Q572.46875 187.9375 572.125 188.125Q571.7969 188.3125 571.5625 188.64062Q571.34375 188.95312 571.2344 189.375Q571.125 189.79688 571.125 190.26562ZM578.40625 188.51562L578.40625 193.5L577.3281 193.5L577.3281 187.15625L578.3594 187.15625L578.40625 188.51562ZM578.15625 190.09375L577.7031 190.07812Q577.7031 189.42188 577.8906 188.875Q578.0781 188.3125 578.4219 187.90625Q578.7656 187.5 579.2344 187.28125Q579.7031 187.04688 580.28125 187.04688Q580.75 187.04688 581.125 187.17188Q581.5 187.29688 581.7656 187.57812Q582.03125 187.84375 582.1719 188.28125Q582.3125 188.71875 582.3125 189.34375L582.3125 193.5L581.21875 193.5L581.21875 189.32812Q581.21875 188.82812 581.0781 188.53125Q580.9375 188.23438 580.65625 188.09375Q580.375 187.95312 579.9531 187.95312Q579.5469 187.95312 579.21875 188.125Q578.8906 188.29688 578.65625 188.59375Q578.4219 188.89062 578.28125 189.28125Q578.15625 189.65625 578.15625 190.09375ZM586.9531 193.625Q586.2969 193.625 585.75 193.40625Q585.21875 193.17188 584.8281 192.76562Q584.4531 192.34375 584.25 191.78125Q584.0469 191.21875 584.0469 190.54688L584.0469 190.3125Q584.0469 189.53125 584.2656 188.92188Q584.5 188.3125 584.8906 187.89062Q585.28125 187.46875 585.78125 187.26562Q586.28125 187.04688 586.8125 187.04688Q587.5 187.04688 587.9844 187.28125Q588.4844 187.51562 588.7969 187.9375Q589.125 188.34375 589.2656 188.92188Q589.4219 189.48438 589.4219 190.14062L589.4219 190.64062L584.6875 190.64062L584.6875 189.75L588.34375 189.75L588.34375 189.67188Q588.3125 189.25 588.15625 188.85938Q588.0156 188.45312 587.6875 188.20312Q587.375 187.9375 586.8125 187.9375Q586.4531 187.9375 586.1406 188.09375Q585.8281 188.25 585.59375 188.5625Q585.375 188.85938 585.25 189.29688Q585.1406 189.73438 585.1406 190.3125L585.1406 190.54688Q585.1406 191.0 585.2656 191.40625Q585.3906 191.79688 585.625 192.09375Q585.875 192.39062 586.21875 192.5625Q586.5781 192.73438 587.0156 192.73438Q587.59375 192.73438 587.9844 192.5Q588.3906 192.26562 588.6875 191.875L589.34375 192.39062Q589.1406 192.70312 588.8125 192.98438Q588.5 193.26562 588.03125 193.45312Q587.5781 193.625 586.9531 193.625ZM591.40625 188.51562L591.40625 193.5L590.3281 193.5L590.3281 187.15625L591.3594 187.15625L591.40625 188.51562ZM591.15625 190.09375L590.7031 190.07812Q590.7031 189.42188 590.8906 188.875Q591.0781 188.3125 591.4219 187.90625Q591.7656 187.5 592.2344 187.28125Q592.7031 187.04688 593.28125 187.04688Q593.75 187.04688 594.125 187.17188Q594.5 187.29688 594.7656 187.57812Q595.03125 187.84375 595.1719 188.28125Q595.3125 188.71875 595.3125 189.34375L595.3125 193.5L594.21875 193.5L594.21875 189.32812Q594.21875 188.82812 594.0781 188.53125Q593.9375 188.23438 593.65625 188.09375Q593.375 187.95312 592.9531 187.95312Q592.5469 187.95312 592.21875 188.125Q591.8906 188.29688 591.65625 188.59375Q591.4219 188.89062 591.28125 189.28125Q591.15625 189.65625 591.15625 190.09375Z" fill-rule="nonzero"/><path stroke="#cccccc" stroke-width="1.0" stroke-linecap="butt" d="M372.0 305.0L547.0 406.0" fill-rule="nonzero"/><path fill="#000000" d="M543.6406 422.78125L544.7656 422.78125Q544.6719 423.59375 544.2969 424.23438Q543.9219 424.875 543.2344 425.25Q542.5625 425.625 541.53125 425.625Q540.78125 425.625 540.1719 425.34375Q539.5625 425.04688 539.1094 424.53125Q538.6719 424.01562 538.4375 423.29688Q538.2031 422.5625 538.2031 421.65625L538.2031 420.8125Q538.2031 419.92188 538.4375 419.1875Q538.6719 418.45312 539.125 417.9375Q539.5781 417.40625 540.2031 417.125Q540.84375 416.84375 541.625 416.84375Q542.59375 416.84375 543.2656 417.21875Q543.9375 417.57812 544.2969 418.21875Q544.6719 418.85938 544.7656 419.70312L543.6406 419.70312Q543.5625 419.10938 543.3281 418.6875Q543.1094 418.25 542.7031 418.01562Q542.2969 417.78125 541.625 417.78125Q541.0625 417.78125 540.625 418.0Q540.2031 418.20312 539.90625 418.60938Q539.625 419.0 539.46875 419.5625Q539.3281 420.125 539.3281 420.79688L539.3281 421.65625Q539.3281 422.28125 539.4531 422.84375Q539.59375 423.39062 539.8594 423.8125Q540.125 424.21875 540.5469 424.46875Q540.96875 424.70312 541.53125 424.70312Q542.25 424.70312 542.6719 424.46875Q543.1094 424.23438 543.3281 423.8125Q543.5469 423.39062 543.6406 422.78125ZM550.0625 424.42188L550.0625 421.15625Q550.0625 420.78125 549.90625 420.5Q549.7656 420.21875 549.46875 420.07812Q549.1719 419.92188 548.7344 419.92188Q548.3125 419.92188 548.0 420.0625Q547.7031 420.20312 547.53125 420.4375Q547.3594 420.65625 547.3594 420.92188L546.28125 420.92188Q546.28125 420.57812 546.4531 420.25Q546.625 419.90625 546.9531 419.64062Q547.28125 419.35938 547.75 419.20312Q548.21875 419.04688 548.7969 419.04688Q549.4844 419.04688 550.0156 419.28125Q550.5469 419.51562 550.84375 419.98438Q551.15625 420.45312 551.15625 421.15625L551.15625 424.10938Q551.15625 424.4375 551.2031 424.79688Q551.2656 425.14062 551.375 425.40625L551.375 425.5L550.2344 425.5Q550.15625 425.3125 550.1094 425.0Q550.0625 424.6875 550.0625 424.42188ZM550.25 421.65625L550.2656 422.42188L549.1719 422.42188Q548.7031 422.42188 548.34375 422.5Q547.9844 422.5625 547.7344 422.71875Q547.4844 422.85938 547.3594 423.07812Q547.2344 423.29688 547.2344 423.59375Q547.2344 423.89062 547.3594 424.14062Q547.5 424.375 547.7656 424.53125Q548.0469 424.67188 548.4375 424.67188Q548.9375 424.67188 549.3125 424.46875Q549.7031 424.25 549.9219 423.95312Q550.15625 423.64062 550.1719 423.34375L550.6406 423.875Q550.59375 424.10938 550.40625 424.42188Q550.2344 424.71875 549.9219 425.0Q549.625 425.26562 549.2031 425.45312Q548.7969 425.625 548.28125 425.625Q547.6406 425.625 547.15625 425.375Q546.6719 425.10938 546.40625 424.6875Q546.1406 424.26562 546.1406 423.73438Q546.1406 423.21875 546.3281 422.84375Q546.53125 422.45312 546.90625 422.1875Q547.28125 421.92188 547.8125 421.79688Q548.34375 421.65625 549.0 421.65625L550.25 421.65625ZM554.40625 420.15625L554.40625 425.5L553.3281 425.5L553.3281 419.15625L554.375 419.15625L554.40625 420.15625ZM556.3906 419.125L556.3906 420.125Q556.25 420.10938 556.125 420.09375Q556.0156 420.07812 555.8594 420.07812Q555.4844 420.07812 555.1875 420.20312Q554.90625 420.3125 554.7031 420.53125Q554.5156 420.73438 554.3906 421.03125Q554.28125 421.32812 554.25 421.67188L553.9375 421.84375Q553.9375 421.26562 554.0469 420.76562Q554.1719 420.26562 554.40625 419.875Q554.65625 419.48438 555.0156 419.26562Q555.3906 419.04688 555.90625 419.04688Q556.03125 419.04688 556.1719 419.07812Q556.3281 419.09375 556.3906 419.125ZM559.1094 424.84375L560.875 419.15625L562.03125 419.15625L559.4844 426.48438Q559.40625 426.71875 559.25 426.98438Q559.1094 427.26562 558.8906 427.5Q558.6719 427.75 558.3594 427.90625Q558.0469 428.0625 557.6094 428.0625Q557.4844 428.0625 557.28125 428.01562Q557.0781 427.98438 557.0 427.96875L557.0 427.09375Q557.0469 427.09375 557.1406 427.09375Q557.25 427.10938 557.28125 427.10938Q557.65625 427.10938 557.90625 427.01562Q558.1719 426.92188 558.34375 426.6875Q558.53125 426.46875 558.65625 426.07812L559.1094 424.84375ZM557.8125 419.15625L559.4531 424.07812L559.7344 425.21875L558.96875 425.625L556.625 419.15625L557.8125 419.15625ZM563.0469 422.40625L563.0469 422.26562Q563.0469 421.57812 563.2344 421.0Q563.4375 420.40625 563.8125 419.96875Q564.1875 419.53125 564.71875 419.29688Q565.25 419.04688 565.9219 419.04688Q566.5781 419.04688 567.1094 419.29688Q567.65625 419.53125 568.03125 419.96875Q568.40625 420.40625 568.6094 421.0Q568.8125 421.57812 568.8125 422.26562L568.8125 422.40625Q568.8125 423.07812 568.6094 423.67188Q568.40625 424.25 568.03125 424.6875Q567.65625 425.125 567.125 425.375Q566.59375 425.625 565.9219 425.625Q565.2656 425.625 564.71875 425.375Q564.1875 425.125 563.8125 424.6875Q563.4375 424.25 563.2344 423.67188Q563.0469 423.07812 563.0469 422.40625ZM564.125 422.26562L564.125 422.40625Q564.125 422.875 564.2344 423.29688Q564.34375 423.71875 564.5625 424.04688Q564.7969 424.35938 565.1406 424.54688Q565.4844 424.71875 565.9219 424.71875Q566.375 424.71875 566.7031 424.54688Q567.0469 424.35938 567.2656 424.04688Q567.5 423.71875 567.6094 423.29688Q567.71875 422.875 567.71875 422.40625L567.71875 422.26562Q567.71875 421.79688 567.6094 421.375Q567.5 420.95312 567.2656 420.64062Q567.0469 420.3125 566.7031 420.125Q566.375 419.9375 565.9219 419.9375Q565.46875 419.9375 565.125 420.125Q564.7969 420.3125 564.5625 420.64062Q564.34375 420.95312 564.2344 421.375Q564.125 421.79688 564.125 422.26562ZM571.40625 420.375L571.40625 427.9375L570.3281 427.9375L570.3281 419.15625L571.3125 419.15625L571.40625 420.375ZM575.6875 422.28125L575.6875 422.40625Q575.6875 423.09375 575.5156 423.6875Q575.3594 424.26562 575.0469 424.70312Q574.7344 425.14062 574.2656 425.39062Q573.8125 425.625 573.21875 425.625Q572.625 425.625 572.15625 425.42188Q571.6875 425.21875 571.3594 424.84375Q571.0469 424.45312 570.8594 423.92188Q570.6719 423.39062 570.59375 422.71875L570.59375 422.0625Q570.6719 421.35938 570.8594 420.8125Q571.0469 420.25 571.3594 419.85938Q571.6875 419.45312 572.1406 419.25Q572.6094 419.04688 573.2031 419.04688Q573.7969 419.04688 574.2656 419.28125Q574.7344 419.5 575.0469 419.9375Q575.3594 420.35938 575.5156 420.95312Q575.6875 421.54688 575.6875 422.28125ZM574.59375 422.40625L574.59375 422.28125Q574.59375 421.79688 574.4844 421.39062Q574.3906 420.96875 574.1875 420.65625Q573.9844 420.32812 573.65625 420.14062Q573.3281 419.95312 572.8906 419.95312Q572.4844 419.95312 572.1719 420.09375Q571.875 420.23438 571.65625 420.48438Q571.4531 420.71875 571.3125 421.01562Q571.1875 421.3125 571.125 421.64062L571.125 423.15625Q571.2344 423.5625 571.4375 423.92188Q571.65625 424.28125 572.0 424.5Q572.3594 424.71875 572.90625 424.71875Q573.34375 424.71875 573.65625 424.54688Q573.9844 424.35938 574.1875 424.04688Q574.3906 423.71875 574.4844 423.29688Q574.59375 422.875 574.59375 422.40625ZM578.40625 416.5L578.40625 425.5L577.3281 425.5L577.3281 416.5L578.40625 416.5ZM578.15625 422.09375L577.7031 422.07812Q577.7031 421.42188 577.8906 420.875Q578.0781 420.3125 578.4219 419.90625Q578.7656 419.5 579.2344 419.28125Q579.7031 419.04688 580.28125 419.04688Q580.75 419.04688 581.125 419.17188Q581.5 419.29688 581.7656 419.57812Q582.03125 419.84375 582.1719 420.28125Q582.3125 420.71875 582.3125 421.34375L582.3125 425.5L581.21875 425.5L581.21875 421.32812Q581.21875 420.82812 581.0781 420.53125Q580.9375 420.23438 580.65625 420.09375Q580.375 419.95312 579.9531 419.95312Q579.5469 419.95312 579.21875 420.125Q578.8906 420.29688 578.65625 420.59375Q578.4219 420.89062 578.28125 421.28125Q578.15625 421.65625 578.15625 422.09375ZM586.1094 424.84375L587.875 419.15625L589.03125 419.15625L586.4844 426.48438Q586.40625 426.71875 586.25 426.98438Q586.1094 427.26562 585.8906 427.5Q585.6719 427.75 585.3594 427.90625Q585.0469 428.0625 584.6094 428.0625Q584.4844 428.0625 584.28125 428.01562Q584.0781 427.98438 584.0 427.96875L584.0 427.09375Q584.0469 427.09375 584.1406 427.09375Q584.25 427.10938 584.28125 427.10938Q584.65625 427.10938 584.90625 427.01562Q585.1719 426.92188 585.34375 426.6875Q585.53125 426.46875 585.65625 426.07812L586.1094 424.84375ZM584.8125 419.15625L586.4531 424.07812L586.7344 425.21875L585.96875 425.625L583.625 419.15625L584.8125 419.15625ZM591.5 416.5L591.5 425.5L590.4219 425.5L590.4219 416.5L591.5 416.5ZM594.5 416.5L594.5 425.5L593.4219 425.5L593.4219 416.5L594.5 416.5ZM598.9531 425.625Q598.2969 425.625 597.75 425.40625Q597.21875 425.17188 596.8281 424.76562Q596.4531 424.34375 596.25 423.78125Q596.0469 423.21875 596.0469 422.54688L596.0469 422.3125Q596.0469 421.53125 596.2656 420.92188Q596.5 420.3125 596.8906 419.89062Q597.28125 419.46875 597.78125 419.26562Q598.28125 419.04688 598.8125 419.04688Q599.5 419.04688 599.9844 419.28125Q600.4844 419.51562 600.7969 419.9375Q601.125 420.34375 601.2656 420.92188Q601.4219 421.48438 601.4219 422.14062L601.4219 422.64062L596.6875 422.64062L596.6875 421.75L600.34375 421.75L600.34375 421.67188Q600.3125 421.25 600.15625 420.85938Q600.0156 420.45312 599.6875 420.20312Q599.375 419.9375 598.8125 419.9375Q598.4531 419.9375 598.1406 420.09375Q597.8281 420.25 597.59375 420.5625Q597.375 420.85938 597.25 421.29688Q597.1406 421.73438 597.1406 422.3125L597.1406 422.54688Q597.1406 423.0 597.2656 423.40625Q597.3906 423.79688 597.625 424.09375Q597.875 424.39062 598.21875 424.5625Q598.5781 424.73438 599.0156 424.73438Q599.59375 424.73438 599.9844 424.5Q600.3906 424.26562 600.6875 423.875L601.34375 424.39062Q601.1406 424.70312 600.8125 424.98438Q600.5 425.26562 600.03125 425.45312Q599.5781 425.625 598.9531 425.625ZM603.40625 420.51562L603.40625 425.5L602.3281 425.5L602.3281 419.15625L603.3594 419.15625L603.40625 420.51562ZM603.15625 422.09375L602.7031 422.07812Q602.7031 421.42188 602.8906 420.875Q603.0781 420.3125 603.4219 419.90625Q603.7656 419.5 604.2344 419.28125Q604.7031 419.04688 605.28125 419.04688Q605.75 419.04688 606.125 419.17188Q606.5 419.29688 606.7656 419.57812Q607.03125 419.84375 607.1719 420.28125Q607.3125 420.71875 607.3125 421.34375L607.3125 425.5L606.21875 425.5L606.21875 421.32812Q606.21875 420.82812 606.0781 420.53125Q605.9375 420.23438 605.65625 420.09375Q605.375 419.95312 604.9531 419.95312Q604.5469 419.95312 604.21875 420.125Q603.8906 420.29688 603.65625 420.59375Q603.4219 420.89062 603.28125 421.28125Q603.15625 421.65625 603.15625 422.09375Z" fill-rule="nonzero"/><path stroke="#cccccc" stroke-width="1.0" stroke-linecap="butt" d="M372.0 305.0L372.0 507.0" fill-rule="nonzero"/><path fill="#000000" d="M352.09375 538.5625L352.09375 538.4375Q352.09375 537.6875 352.25 537.0781Q352.42188 536.4531 352.73438 536.0Q353.04688 535.5469 353.5 535.2969Q353.96875 535.0469 354.5625 535.0469Q355.01562 535.0469 355.375 535.1875Q355.75 535.3125 356.03125 535.5781Q356.3125 535.8281 356.51562 536.2031Q356.71875 536.5781 356.84375 537.0625Q356.96875 537.53125 357.01562 538.09375L357.01562 538.5781Q356.95312 539.28125 356.76562 539.84375Q356.59375 540.40625 356.29688 540.8125Q356.0 541.2031 355.5625 541.4219Q355.14062 541.625 354.54688 541.625Q353.96875 541.625 353.5 541.40625Q353.04688 541.1719 352.73438 540.7656Q352.42188 540.34375 352.25 539.7969Q352.09375 539.2344 352.09375 538.5625ZM353.17188 538.4375L353.17188 538.5625Q353.17188 539.0156 353.26562 539.40625Q353.35938 539.7969 353.54688 540.09375Q353.75 540.3906 354.0625 540.5625Q354.39062 540.7344 354.82812 540.7344Q355.25 540.7344 355.54688 540.5625Q355.85938 540.375 356.0625 540.0781Q356.28125 539.78125 356.40625 539.3906Q356.54688 539.0 356.64062 538.59375L356.64062 538.2031Q356.57812 537.7656 356.4375 537.375Q356.3125 536.96875 356.09375 536.6406Q355.89062 536.3125 355.57812 536.125Q355.26562 535.9375 354.82812 535.9375Q354.39062 535.9375 354.07812 536.1406Q353.76562 536.3281 353.5625 536.6719Q353.35938 537.0156 353.26562 537.4844Q353.17188 537.9375 353.17188 538.4375ZM356.48438 535.15625L357.40625 535.15625L357.40625 539.7656Q357.40625 540.0469 357.4375 540.21875Q357.46875 540.375 357.53125 540.4844Q357.60938 540.5781 357.6875 540.625Q357.78125 540.65625 357.875 540.65625Q357.92188 540.65625 357.96875 540.6406Q358.03125 540.625 358.0625 540.6094L358.20312 541.4219Q358.01562 541.5469 357.84375 541.5781Q357.67188 541.625 357.48438 541.625Q357.20312 541.625 356.98438 541.5156Q356.78125 541.4219 356.625 541.2031Q356.46875 540.9844 356.39062 540.625Q356.3125 540.2656 356.3125 539.7656L356.3125 536.53125L356.48438 535.15625ZM361.57812 537.4219L361.57812 538.3125L358.71875 538.3125L358.71875 537.4219L361.57812 537.4219ZM365.64062 538.15625L363.35938 538.15625L363.35938 537.2344L365.64062 537.2344Q366.29688 537.2344 366.70312 537.03125Q367.125 536.8125 367.3125 536.4375Q367.5 536.0625 367.5 535.5781Q367.5 535.1406 367.3125 534.7656Q367.125 534.375 366.70312 534.1406Q366.29688 533.8906 365.64062 533.8906L363.625 533.8906L363.625 541.5L362.48438 541.5L362.48438 532.96875L365.64062 532.96875Q366.60938 532.96875 367.26562 533.3125Q367.9375 533.6406 368.28125 534.2344Q368.625 534.8125 368.625 535.5625Q368.625 536.3906 368.28125 536.96875Q367.9375 537.5469 367.26562 537.8594Q366.60938 538.15625 365.64062 538.15625ZM371.5 535.15625L371.5 541.5L370.42188 541.5L370.42188 535.15625L371.5 535.15625ZM370.32812 533.4844Q370.32812 533.21875 370.48438 533.03125Q370.65625 532.84375 370.96875 532.84375Q371.28125 532.84375 371.4375 533.03125Q371.60938 533.21875 371.60938 533.4844Q371.60938 533.7344 371.4375 533.9219Q371.28125 534.09375 370.96875 534.09375Q370.65625 534.09375 370.48438 533.9219Q370.32812 533.7344 370.32812 533.4844ZM374.40625 536.5156L374.40625 541.5L373.32812 541.5L373.32812 535.15625L374.35938 535.15625L374.40625 536.5156ZM374.15625 538.09375L373.70312 538.0781Q373.70312 537.4219 373.89062 536.875Q374.07812 536.3125 374.42188 535.90625Q374.76562 535.5 375.23438 535.28125Q375.70312 535.0469 376.28125 535.0469Q376.75 535.0469 377.125 535.1719Q377.5 535.2969 377.76562 535.5781Q378.03125 535.84375 378.17188 536.28125Q378.3125 536.71875 378.3125 537.34375L378.3125 541.5L377.21875 541.5L377.21875 537.3281Q377.21875 536.8281 377.07812 536.53125Q376.9375 536.2344 376.65625 536.09375Q376.375 535.9531 375.95312 535.9531Q375.54688 535.9531 375.21875 536.125Q374.89062 536.2969 374.65625 536.59375Q374.42188 536.8906 374.28125 537.28125Q374.15625 537.65625 374.15625 538.09375ZM382.95312 541.625Q382.29688 541.625 381.75 541.40625Q381.21875 541.1719 380.82812 540.7656Q380.45312 540.34375 380.25 539.78125Q380.04688 539.21875 380.04688 538.5469L380.04688 538.3125Q380.04688 537.53125 380.26562 536.9219Q380.5 536.3125 380.89062 535.8906Q381.28125 535.46875 381.78125 535.2656Q382.28125 535.0469 382.8125 535.0469Q383.5 535.0469 383.98438 535.28125Q384.48438 535.5156 384.79688 535.9375Q385.125 536.34375 385.26562 536.9219Q385.42188 537.4844 385.42188 538.1406L385.42188 538.6406L380.6875 538.6406L380.6875 537.75L384.34375 537.75L384.34375 537.6719Q384.3125 537.25 384.15625 536.8594Q384.01562 536.4531 383.6875 536.2031Q383.375 535.9375 382.8125 535.9375Q382.45312 535.9375 382.14062 536.09375Q381.82812 536.25 381.59375 536.5625Q381.375 536.8594 381.25 537.2969Q381.14062 537.7344 381.14062 538.3125L381.14062 538.5469Q381.14062 539.0 381.26562 539.40625Q381.39062 539.7969 381.625 540.09375Q381.875 540.3906 382.21875 540.5625Q382.57812 540.7344 383.01562 540.7344Q383.59375 540.7344 383.98438 540.5Q384.39062 540.2656 384.6875 539.875L385.34375 540.3906Q385.14062 540.7031 384.8125 540.9844Q384.5 541.2656 384.03125 541.4531Q383.57812 541.625 382.95312 541.625ZM387.40625 536.5156L387.40625 541.5L386.32812 541.5L386.32812 535.15625L387.35938 535.15625L387.40625 536.5156ZM387.15625 538.09375L386.70312 538.0781Q386.70312 537.4219 386.89062 536.875Q387.07812 536.3125 387.42188 535.90625Q387.76562 535.5 388.23438 535.28125Q388.70312 535.0469 389.28125 535.0469Q389.75 535.0469 390.125 535.1719Q390.5 535.2969 390.76562 535.5781Q391.03125 535.84375 391.17188 536.28125Q391.3125 536.71875 391.3125 537.34375L391.3125 541.5L390.21875 541.5L390.21875 537.3281Q390.21875 536.8281 390.07812 536.53125Q389.9375 536.2344 389.65625 536.09375Q389.375 535.9531 388.95312 535.9531Q388.54688 535.9531 388.21875 536.125Q387.89062 536.2969 387.65625 536.59375Q387.42188 536.8906 387.28125 537.28125Q387.15625 537.65625 387.15625 538.09375Z" fill-rule="nonzero"/><path stroke="#cccccc" stroke-width="1.0" stroke-linecap="butt" d="M372.0 305.0L197.0 406.0" fill-rule="nonzero"/><path fill="#000000" d="M155.67188 424.57812L155.67188 425.5L151.40625 425.5L151.40625 424.57812L155.67188 424.57812ZM151.625 416.96875L151.625 425.5L150.48438 425.5L150.48438 416.96875L151.625 416.96875ZM157.5 419.15625L157.5 425.5L156.42188 425.5L156.42188 419.15625L157.5 419.15625ZM156.32812 417.48438Q156.32812 417.21875 156.48438 417.03125Q156.65625 416.84375 156.96875 416.84375Q157.28125 416.84375 157.4375 417.03125Q157.60938 417.21875 157.60938 417.48438Q157.60938 417.73438 157.4375 417.92188Q157.28125 418.09375 156.96875 418.09375Q156.65625 418.09375 156.48438 417.92188Q156.32812 417.73438 156.32812 417.48438ZM160.40625 420.51562L160.40625 425.5L159.32812 425.5L159.32812 419.15625L160.35938 419.15625L160.40625 420.51562ZM160.15625 422.09375L159.70312 422.07812Q159.70312 421.42188 159.89062 420.875Q160.07812 420.3125 160.42188 419.90625Q160.76562 419.5 161.23438 419.28125Q161.70312 419.04688 162.28125 419.04688Q162.75 419.04688 163.125 419.17188Q163.5 419.29688 163.76562 419.57812Q164.03125 419.84375 164.17188 420.28125Q164.3125 420.71875 164.3125 421.34375L164.3125 425.5L163.21875 425.5L163.21875 421.32812Q163.21875 420.82812 163.07812 420.53125Q162.9375 420.23438 162.65625 420.09375Q162.375 419.95312 161.95312 419.95312Q161.54688 419.95312 161.21875 420.125Q160.89062 420.29688 160.65625 420.59375Q160.42188 420.89062 160.28125 421.28125Q160.15625 421.65625 160.15625 422.09375ZM170.0625 424.42188L170.0625 421.15625Q170.0625 420.78125 169.90625 420.5Q169.76562 420.21875 169.46875 420.07812Q169.17188 419.92188 168.73438 419.92188Q168.3125 419.92188 168.0 420.0625Q167.70312 420.20312 167.53125 420.4375Q167.35938 420.65625 167.35938 420.92188L166.28125 420.92188Q166.28125 420.57812 166.45312 420.25Q166.625 419.90625 166.95312 419.64062Q167.28125 419.35938 167.75 419.20312Q168.21875 419.04688 168.79688 419.04688Q169.48438 419.04688 170.01562 419.28125Q170.54688 419.51562 170.84375 419.98438Q171.15625 420.45312 171.15625 421.15625L171.15625 424.10938Q171.15625 424.4375 171.20312 424.79688Q171.26562 425.14062 171.375 425.40625L171.375 425.5L170.23438 425.5Q170.15625 425.3125 170.10938 425.0Q170.0625 424.6875 170.0625 424.42188ZM170.25 421.65625L170.26562 422.42188L169.17188 422.42188Q168.70312 422.42188 168.34375 422.5Q167.98438 422.5625 167.73438 422.71875Q167.48438 422.85938 167.35938 423.07812Q167.23438 423.29688 167.23438 423.59375Q167.23438 423.89062 167.35938 424.14062Q167.5 424.375 167.76562 424.53125Q168.04688 424.67188 168.4375 424.67188Q168.9375 424.67188 169.3125 424.46875Q169.70312 424.25 169.92188 423.95312Q170.15625 423.64062 170.17188 423.34375L170.64062 423.875Q170.59375 424.10938 170.40625 424.42188Q170.23438 424.71875 169.92188 425.0Q169.625 425.26562 169.20312 425.45312Q168.79688 425.625 168.28125 425.625Q167.64062 425.625 167.15625 425.375Q166.67188 425.10938 166.40625 424.6875Q166.14062 424.26562 166.14062 423.73438Q166.14062 423.21875 166.32812 422.84375Q166.53125 422.45312 166.90625 422.1875Q167.28125 421.92188 167.8125 421.79688Q168.34375 421.65625 169.0 421.65625L170.25 421.65625ZM174.5 416.5L174.5 425.5L173.42188 425.5L173.42188 416.5L174.5 416.5ZM176.04688 422.40625L176.04688 422.26562Q176.04688 421.57812 176.23438 421.0Q176.4375 420.40625 176.8125 419.96875Q177.1875 419.53125 177.71875 419.29688Q178.25 419.04688 178.92188 419.04688Q179.57812 419.04688 180.10938 419.29688Q180.65625 419.53125 181.03125 419.96875Q181.40625 420.40625 181.60938 421.0Q181.8125 421.57812 181.8125 422.26562L181.8125 422.40625Q181.8125 423.07812 181.60938 423.67188Q181.40625 424.25 181.03125 424.6875Q180.65625 425.125 180.125 425.375Q179.59375 425.625 178.92188 425.625Q178.26562 425.625 177.71875 425.375Q177.1875 425.125 176.8125 424.6875Q176.4375 424.25 176.23438 423.67188Q176.04688 423.07812 176.04688 422.40625ZM177.125 422.26562L177.125 422.40625Q177.125 422.875 177.23438 423.29688Q177.34375 423.71875 177.5625 424.04688Q177.79688 424.35938 178.14062 424.54688Q178.48438 424.71875 178.92188 424.71875Q179.375 424.71875 179.70312 424.54688Q180.04688 424.35938 180.26562 424.04688Q180.5 423.71875 180.60938 423.29688Q180.71875 422.875 180.71875 422.40625L180.71875 422.26562Q180.71875 421.79688 180.60938 421.375Q180.5 420.95312 180.26562 420.64062Q180.04688 420.3125 179.70312 420.125Q179.375 419.9375 178.92188 419.9375Q178.46875 419.9375 178.125 420.125Q177.79688 420.3125 177.5625 420.64062Q177.34375 420.95312 177.23438 421.375Q177.125 421.79688 177.125 422.26562ZM183.04688 422.40625L183.04688 422.26562Q183.04688 421.57812 183.23438 421.0Q183.4375 420.40625 183.8125 419.96875Q184.1875 419.53125 184.71875 419.29688Q185.25 419.04688 185.92188 419.04688Q186.57812 419.04688 187.10938 419.29688Q187.65625 419.53125 188.03125 419.96875Q188.40625 420.40625 188.60938 421.0Q188.8125 421.57812 188.8125 422.26562L188.8125 422.40625Q188.8125 423.07812 188.60938 423.67188Q188.40625 424.25 188.03125 424.6875Q187.65625 425.125 187.125 425.375Q186.59375 425.625 185.92188 425.625Q185.26562 425.625 184.71875 425.375Q184.1875 425.125 183.8125 424.6875Q183.4375 424.25 183.23438 423.67188Q183.04688 423.07812 183.04688 422.40625ZM184.125 422.26562L184.125 422.40625Q184.125 422.875 184.23438 423.29688Q184.34375 423.71875 184.5625 424.04688Q184.79688 424.35938 185.14062 424.54688Q185.48438 424.71875 185.92188 424.71875Q186.375 424.71875 186.70312 424.54688Q187.04688 424.35938 187.26562 424.04688Q187.5 423.71875 187.60938 423.29688Q187.71875 422.875 187.71875 422.40625L187.71875 422.26562Q187.71875 421.79688 187.60938 421.375Q187.5 420.95312 187.26562 420.64062Q187.04688 420.3125 186.70312 420.125Q186.375 419.9375 185.92188 419.9375Q185.46875 419.9375 185.125 420.125Q184.79688 420.3125 184.5625 420.64062Q184.34375 420.95312 184.23438 421.375Q184.125 421.79688 184.125 422.26562ZM191.5 416.5L191.5 425.5L190.42188 425.5L190.42188 416.5L191.5 416.5Z" fill-rule="nonzero"/><path stroke="#cccccc" stroke-width="1.0" stroke-linecap="butt" d="M372.0 305.0L197.0 204.0" fill-rule="nonzero"/><path fill="#000000" d="M153.03125 191.34375Q153.03125 191.04688 152.9375 190.8125Q152.85938 190.57812 152.625 190.39062Q152.40625 190.20312 152.0 190.03125Q151.60938 189.85938 151.01562 189.6875Q150.375 189.5 149.85938 189.28125Q149.35938 189.04688 148.98438 188.75Q148.625 188.4375 148.4375 188.0625Q148.25 187.67188 148.25 187.17188Q148.25 186.67188 148.45312 186.25Q148.65625 185.82812 149.03125 185.51562Q149.42188 185.20312 149.95312 185.03125Q150.48438 184.84375 151.14062 184.84375Q152.10938 184.84375 152.78125 185.21875Q153.45312 185.57812 153.79688 186.17188Q154.15625 186.76562 154.15625 187.42188L153.03125 187.42188Q153.03125 186.95312 152.8125 186.57812Q152.60938 186.20312 152.1875 186.0Q151.78125 185.78125 151.14062 185.78125Q150.54688 185.78125 150.14062 185.96875Q149.75 186.14062 149.5625 186.45312Q149.375 186.76562 149.375 187.15625Q149.375 187.42188 149.48438 187.65625Q149.60938 187.875 149.84375 188.0625Q150.09375 188.25 150.46875 188.40625Q150.84375 188.5625 151.375 188.70312Q152.09375 188.90625 152.625 189.17188Q153.15625 189.42188 153.5 189.73438Q153.84375 190.04688 154.0 190.4375Q154.17188 190.82812 154.17188 191.32812Q154.17188 191.85938 153.95312 192.28125Q153.75 192.70312 153.35938 193.0Q152.96875 193.29688 152.42188 193.46875Q151.875 193.625 151.20312 193.625Q150.60938 193.625 150.03125 193.45312Q149.46875 193.28125 149.0 192.95312Q148.53125 192.625 148.25 192.15625Q147.96875 191.67188 147.96875 191.03125L149.09375 191.03125Q149.09375 191.46875 149.26562 191.78125Q149.4375 192.09375 149.73438 192.29688Q150.03125 192.5 150.40625 192.60938Q150.78125 192.70312 151.20312 192.70312Q151.79688 192.70312 152.20312 192.54688Q152.60938 192.375 152.8125 192.07812Q153.03125 191.76562 153.03125 191.34375ZM155.04688 190.40625L155.04688 190.26562Q155.04688 189.57812 155.23438 189.0Q155.4375 188.40625 155.8125 187.96875Q156.1875 187.53125 156.71875 187.29688Q157.25 187.04688 157.92188 187.04688Q158.57812 187.04688 159.10938 187.29688Q159.65625 187.53125 160.03125 187.96875Q160.40625 188.40625 160.60938 189.0Q160.8125 189.57812 160.8125 190.26562L160.8125 190.40625Q160.8125 191.07812 160.60938 191.67188Q160.40625 192.25 160.03125 192.6875Q159.65625 193.125 159.125 193.375Q158.59375 193.625 157.92188 193.625Q157.26562 193.625 156.71875 193.375Q156.1875 193.125 155.8125 192.6875Q155.4375 192.25 155.23438 191.67188Q155.04688 191.07812 155.04688 190.40625ZM156.125 190.26562L156.125 190.40625Q156.125 190.875 156.23438 191.29688Q156.34375 191.71875 156.5625 192.04688Q156.79688 192.35938 157.14062 192.54688Q157.48438 192.71875 157.92188 192.71875Q158.375 192.71875 158.70312 192.54688Q159.04688 192.35938 159.26562 192.04688Q159.5 191.71875 159.60938 191.29688Q159.71875 190.875 159.71875 190.40625L159.71875 190.26562Q159.71875 189.79688 159.60938 189.375Q159.5 188.95312 159.26562 188.64062Q159.04688 188.3125 158.70312 188.125Q158.375 187.9375 157.92188 187.9375Q157.46875 187.9375 157.125 188.125Q156.79688 188.3125 156.5625 188.64062Q156.34375 188.95312 156.23438 189.375Q156.125 189.79688 156.125 190.26562ZM163.40625 188.51562L163.40625 193.5L162.32812 193.5L162.32812 187.15625L163.35938 187.15625L163.40625 188.51562ZM163.15625 190.09375L162.70312 190.07812Q162.70312 189.42188 162.89062 188.875Q163.07812 188.3125 163.42188 187.90625Q163.76562 187.5 164.23438 187.28125Q164.70312 187.04688 165.28125 187.04688Q165.75 187.04688 166.125 187.17188Q166.5 187.29688 166.76562 187.57812Q167.03125 187.84375 167.17188 188.28125Q167.3125 188.71875 167.3125 189.34375L167.3125 193.5L166.21875 193.5L166.21875 189.32812Q166.21875 188.82812 166.07812 188.53125Q165.9375 188.23438 165.65625 188.09375Q165.375 187.95312 164.95312 187.95312Q164.54688 187.95312 164.21875 188.125Q163.89062 188.29688 163.65625 188.59375Q163.42188 188.89062 163.28125 189.28125Q163.15625 189.65625 163.15625 190.09375ZM173.01562 191.8125Q173.01562 191.57812 172.90625 191.375Q172.8125 191.17188 172.5 191.01562Q172.1875 190.84375 171.5625 190.71875Q171.03125 190.60938 170.60938 190.46875Q170.1875 190.3125 169.89062 190.09375Q169.59375 189.875 169.4375 189.57812Q169.28125 189.28125 169.28125 188.89062Q169.28125 188.51562 169.4375 188.1875Q169.60938 187.84375 169.90625 187.59375Q170.21875 187.32812 170.65625 187.1875Q171.09375 187.04688 171.625 187.04688Q172.39062 187.04688 172.92188 187.3125Q173.46875 187.57812 173.75 188.03125Q174.03125 188.48438 174.03125 189.01562L172.95312 189.01562Q172.95312 188.76562 172.79688 188.51562Q172.64062 188.26562 172.34375 188.10938Q172.04688 187.9375 171.625 187.9375Q171.17188 187.9375 170.89062 188.07812Q170.60938 188.20312 170.48438 188.42188Q170.35938 188.625 170.35938 188.85938Q170.35938 189.04688 170.42188 189.1875Q170.48438 189.3125 170.64062 189.4375Q170.79688 189.54688 171.07812 189.65625Q171.375 189.75 171.82812 189.84375Q172.60938 190.01562 173.10938 190.26562Q173.60938 190.51562 173.85938 190.875Q174.10938 191.21875 174.10938 191.73438Q174.10938 192.15625 173.92188 192.5Q173.75 192.84375 173.42188 193.09375Q173.10938 193.34375 172.65625 193.48438Q172.20312 193.625 171.65625 193.625Q170.8125 193.625 170.23438 193.32812Q169.65625 193.01562 169.35938 192.54688Q169.0625 192.0625 169.0625 191.54688L170.14062 191.54688Q170.17188 191.98438 170.40625 192.25Q170.64062 192.51562 170.96875 192.625Q171.3125 192.71875 171.65625 192.71875Q172.09375 192.71875 172.39062 192.60938Q172.70312 192.48438 172.85938 192.28125Q173.01562 192.07812 173.01562 191.8125ZM177.98438 187.15625L177.98438 187.98438L174.54688 187.98438L174.54688 187.15625L177.98438 187.15625ZM175.71875 185.625L176.79688 185.625L176.79688 191.92188Q176.79688 192.25 176.89062 192.42188Q177.0 192.57812 177.15625 192.64062Q177.3125 192.6875 177.5 192.6875Q177.625 192.6875 177.76562 192.65625Q177.92188 192.625 178.0 192.60938L178.01562 193.5Q177.875 193.54688 177.67188 193.57812Q177.46875 193.625 177.17188 193.625Q176.78125 193.625 176.4375 193.46875Q176.10938 193.29688 175.90625 192.9375Q175.71875 192.5625 175.71875 191.92188L175.71875 185.625ZM180.5 187.15625L180.5 193.5L179.42188 193.5L179.42188 187.15625L180.5 187.15625ZM179.32812 185.48438Q179.32812 185.21875 179.48438 185.03125Q179.65625 184.84375 179.96875 184.84375Q180.28125 184.84375 180.4375 185.03125Q180.60938 185.21875 180.60938 185.48438Q180.60938 185.73438 180.4375 185.92188Q180.28125 186.09375 179.96875 186.09375Q179.65625 186.09375 179.48438 185.92188Q179.32812 185.73438 179.32812 185.48438ZM186.4375 187.15625L187.42188 187.15625L187.42188 193.35938Q187.42188 194.20312 187.07812 194.79688Q186.73438 195.39062 186.125 195.6875Q185.53125 196.0 184.73438 196.0Q184.40625 196.0 183.95312 195.89062Q183.51562 195.79688 183.09375 195.54688Q182.67188 195.3125 182.39062 194.90625L182.95312 194.25Q183.35938 194.73438 183.78125 194.92188Q184.21875 195.10938 184.65625 195.10938Q185.17188 195.10938 185.54688 194.90625Q185.92188 194.71875 186.125 194.34375Q186.32812 193.96875 186.32812 193.42188L186.32812 188.54688L186.4375 187.15625ZM182.0625 190.40625L182.0625 190.28125Q182.0625 189.54688 182.23438 188.95312Q182.42188 188.35938 182.73438 187.9375Q183.0625 187.5 183.51562 187.28125Q183.98438 187.04688 184.57812 187.04688Q185.17188 187.04688 185.60938 187.25Q186.0625 187.45312 186.375 187.85938Q186.6875 188.25 186.875 188.8125Q187.0625 189.35938 187.125 190.0625L187.125 190.60938Q187.0625 191.29688 186.875 191.85938Q186.6875 192.42188 186.375 192.8125Q186.0625 193.20312 185.60938 193.42188Q185.15625 193.625 184.5625 193.625Q183.98438 193.625 183.53125 193.39062Q183.07812 193.14062 182.75 192.70312Q182.42188 192.26562 182.23438 191.6875Q182.0625 191.09375 182.0625 190.40625ZM183.15625 190.28125L183.15625 190.40625Q183.15625 190.875 183.25 191.29688Q183.34375 191.70312 183.54688 192.03125Q183.75 192.34375 184.0625 192.53125Q184.39062 192.70312 184.82812 192.70312Q185.35938 192.70312 185.70312 192.46875Q186.0625 192.23438 186.26562 191.85938Q186.48438 191.48438 186.59375 191.04688L186.59375 189.64062Q186.53125 189.3125 186.39062 189.01562Q186.26562 188.71875 186.0625 188.48438Q185.85938 188.23438 185.54688 188.09375Q185.25 187.95312 184.82812 187.95312Q184.39062 187.95312 184.0625 188.14062Q183.75 188.32812 183.54688 188.65625Q183.34375 188.96875 183.25 189.39062Q183.15625 189.79688 183.15625 190.28125ZM191.95312 193.625Q191.29688 193.625 190.75 193.40625Q190.21875 193.17188 189.82812 192.76562Q189.45312 192.34375 189.25 191.78125Q189.04688 191.21875 189.04688 190.54688L189.04688 190.3125Q189.04688 189.53125 189.26562 188.92188Q189.5 188.3125 189.89062 187.89062Q190.28125 187.46875 190.78125 187.26562Q191.28125 187.04688 191.8125 187.04688Q192.5 187.04688 192.98438 187.28125Q193.48438 187.51562 193.79688 187.9375Q194.125 188.34375 194.26562 188.92188Q194.42188 189.48438 194.42188 190.14062L194.42188 190.64062L189.6875 190.64062L189.6875 189.75L193.34375 189.75L193.34375 189.67188Q193.3125 189.25 193.15625 188.85938Q193.01562 188.45312 192.6875 188.20312Q192.375 187.9375 191.8125 187.9375Q191.45312 187.9375 191.14062 188.09375Q190.82812 188.25 190.59375 188.5625Q190.375 188.85938 190.25 189.29688Q190.14062 189.73438 190.14062 190.3125L190.14062 190.54688Q190.14062 191.0 190.26562 191.40625Q190.39062 191.79688 190.625 192.09375Q190.875 192.39062 191.21875 192.5625Q191.57812 192.73438 192.01562 192.73438Q192.59375 192.73438 192.98438 192.5Q193.39062 192.26562 193.6875 191.875L194.34375 192.39062Q194.14062 192.70312 193.8125 192.98438Q193.5 193.26562 193.03125 193.45312Q192.57812 193.625 191.95312 193.625Z" fill-rule="nonzero"/><path stroke="#cccccc" stroke-width="1.0" stroke-linecap="butt" d="M372.0 305.0L372.0 103.0" fill-rule="nonzero"/><path stroke="#ff0000" stroke-width="2.0" stroke-linecap="butt" stroke-opacity="0.7019608" stroke-dasharray="8.0,6.0,2.0,6.0" d="M372.0 169.0L459.0 255.0L420.0 333.0L372.0 345.0L341.0 323.0L254.0 237.0Z" fill-rule="nonzero"/><path fill="#ff0000" fill-opacity="0.7019608" d="M368.81802 165.81802L372.0 167.875L375.18198 165.81802L373.125 169.0L375.18198 172.18198L372.0 170.125L368.81802 172.18198L370.875 169.0Z" fill-rule="nonzero"/><path fill="#ff0000" fill-opacity="0.7019608" d="M455.81802 251.81802L459.0 253.875L462.18198 251.81802L460.125 255.0L462.18198 258.18198L459.0 256.125L455.81802 258.18198L457.875 255.0Z" fill-rule="nonzero"/><path fill="#ff0000" fill-opacity="0.7019608" d="M416.81802 329.81802L420.0 331.875L423.18198 329.81802L421.125 333.0L423.18198 336.18198L420.0 334.125L416.81802 336.18198L418.875 333.0Z" fill-rule="nonzero"/><path fill="#ff0000" fill-opacity="0.7019608" d="M368.81802 341.81802L372.0 343.875L375.18198 341.81802L373.125 345.0L375.18198 348.18198L372.0 346.125L368.81802 348.18198L370.875 345.0Z" fill-rule="nonzero"/><path fill="#ff0000" fill-opacity="0.7019608" d="M337.81802 319.81802L341.0 321.875L344.18198 319.81802L342.125 323.0L344.18198 326.18198L341.0 324.125L337.81802 326.18198L339.875 323.0Z" fill-rule="nonzero"/><path fill="#ff0000" fill-opacity="0.7019608" d="M250.81802 233.81802L254.0 235.875L257.18198 233.81802L255.125 237.0L257.18198 240.18198L254.0 238.125L250.81802 240.18198L252.875 237.0Z" fill-rule="nonzero"/><path fill="#757575" d="M29.834375 47.35L29.834375 33.0375L32.69375 33.0375L36.06875 43.1625Q36.5375 44.584373 36.75625 45.2875Q37.00625 44.50625 37.521873 42.990623L40.94375 33.0375L43.490623 33.0375L43.490623 47.35L41.678123 47.35L41.678123 35.365623L37.50625 47.35L35.803123 47.35L31.6625 35.1625L31.6625 47.35L29.834375 47.35ZM45.31875 47.35L50.81875 33.0375L52.865623 33.0375L58.725 47.35L56.56875 47.35L54.896873 43.00625L48.9125 43.00625L47.334373 47.35L45.31875 47.35ZM49.459373 41.475L54.303123 41.475L52.81875 37.50625Q52.13125 35.69375 51.803123 34.5375Q51.521873 35.9125 51.021873 37.271873L49.459373 41.475ZM70.11562 42.334373L72.00625 42.803123Q71.4125 45.146873 69.86562 46.38125Q68.31875 47.6 66.06875 47.6Q63.75625 47.6 62.303123 46.6625Q60.865623 45.709373 60.1 43.928123Q59.35 42.13125 59.35 40.084373Q59.35 37.85 60.19375 36.19375Q61.053123 34.521873 62.63125 33.6625Q64.20937 32.7875 66.1 32.7875Q68.25625 32.7875 69.70937 33.88125Q71.17812 34.975 71.75625 36.959373L69.89687 37.396873Q69.39687 35.834373 68.44375 35.13125Q67.50625 34.4125 66.06875 34.4125Q64.4125 34.4125 63.303123 35.209373Q62.19375 35.990623 61.740623 37.334373Q61.303123 38.6625 61.303123 40.06875Q61.303123 41.896873 61.834373 43.271873Q62.365623 44.63125 63.490623 45.303123Q64.61562 45.975 65.9125 45.975Q67.50625 45.975 68.61562 45.053123Q69.725 44.13125 70.11562 42.334373ZM72.05312 51.31875L72.05312 50.053123L83.69375 50.053123L83.69375 51.31875L72.05312 51.31875ZM90.80312 47.35L89.0375 47.35L89.0375 36.146873Q88.4125 36.75625 87.38125 37.365623Q86.35 37.959373 85.52187 38.271873L85.52187 36.56875Q87.00625 35.88125 88.1 34.896873Q89.20937 33.896873 89.6625 32.975L90.80312 32.975L90.80312 47.35Z" fill-rule="nonzero"/></svg>