<svg version="1.1" viewBox="0.0 0.0 744.0 567.0" fill="none" stroke="none" stroke-linecap="square" stroke-miterlimit="10" width="744" height="567" xmlns:xlink="http://www.w3.org/1999/xlink" xmlns="http://www.w3.org/2000/svg"><path fill="#ffffff" d="M0 0L744.0 0L744.0 567.0L0 567.0L0 0Z" fill-rule="nonzero"/><path fill="#ffffff" d="M28.35 71.25L715.64996 71.25L715.64996 538.65L28.35 538.65L28.35 71.25Z" fill-rule="nonzero"/><path stroke="#cccccc" stroke-width="1.0" stroke-linecap="butt" d="M372.0 305.0C372.0 305.0 372.0 305.0 372.0 305.0C372.0 305.0 372.0 305.0 372.0 305.0C372.0 305.0 372.0 305.0 372.0 305.0C372.0 305.0 372.0 305.0 372.0 305.0" fill-rule="nonzero"/><path fill="#000000" d="M360.0625 297.04688L360.0625 298.35938Q360.0625 299.40625 359.875 300.125Q359.6875 300.84375 359.32812 301.28125Q358.98438 301.71875 358.48438 301.92188Q358.0 302.125 357.375 302.125Q356.89062 302.125 356.46875 302.0Q356.04688 301.875 355.71875 301.60938Q355.39062 301.32812 355.15625 300.89062Q354.92188 300.45312 354.79688 299.82812Q354.67188 299.1875 354.67188 298.35938L354.67188 297.04688Q354.67188 296.0 354.85938 295.29688Q355.0625 294.59375 355.40625 294.15625Q355.76562 293.71875 356.25 293.53125Q356.75 293.34375 357.35938 293.34375Q357.85938 293.34375 358.28125 293.46875Q358.70312 293.59375 359.03125 293.85938Q359.35938 294.10938 359.57812 294.54688Q359.8125 294.96875 359.9375 295.59375Q360.0625 296.21875 360.0625 297.04688ZM358.96875 298.53125L358.96875 296.875Q358.96875 296.29688 358.90625 295.85938Q358.84375 295.42188 358.70312 295.10938Q358.57812 294.79688 358.375 294.60938Q358.1875 294.42188 357.9375 294.32812Q357.6875 294.23438 357.35938 294.23438Q356.98438 294.23438 356.67188 294.375Q356.375 294.51562 356.17188 294.82812Q355.96875 295.14062 355.85938 295.65625Q355.76562 296.15625 355.76562 296.875L355.76562 298.53125Q355.76562 299.10938 355.82812 299.54688Q355.90625 299.98438 356.03125 300.3125Q356.17188 300.625 356.35938 300.82812Q356.5625 301.03125 356.8125 301.125Q357.0625 301.21875 357.375 301.21875Q357.78125 301.21875 358.07812 301.07812Q358.375 300.92188 358.57812 300.59375Q358.78125 300.26562 358.875 299.76562Q358.96875 299.25 358.96875 298.53125ZM362.8125 300.70312L362.8125 301.57812Q362.8125 302.125 362.53125 302.71875Q362.26562 303.3125 361.78125 303.70312L361.17188 303.28125Q361.35938 303.01562 361.48438 302.75Q361.60938 302.48438 361.67188 302.20312Q361.75 301.92188 361.75 301.59375L361.75 300.70312L362.8125 300.70312ZM369.0625 297.04688L369.0625 298.35938Q369.0625 299.40625 368.875 300.125Q368.6875 300.84375 368.32812 301.28125Q367.98438 301.71875 367.48438 301.92188Q367.0 302.125 366.375 302.125Q365.89062 302.125 365.46875 302.0Q365.04688 301.875 364.71875 301.60938Q364.39062 301.32812 364.15625 300.89062Q363.92188 300.45312 363.79688 299.82812Q363.67188 299.1875 363.67188 298.35938L363.67188 297.04688Q363.67188 296.0 363.85938 295.29688Q364.0625 294.59375 364.40625 294.15625Q364.76562 293.71875 365.25 293.53125Q365.75 293.34375 366.35938 293.34375Q366.85938 293.34375 367.28125 293.46875Q367.70312 293.59375 368.03125 293.85938Q368.35938 294.10938 368.57812 294.54688Q368.8125 294.96875 368.9375 295.59375Q369.0625 296.21875 369.0625 297.04688ZM367.96875 298.53125L367.96875 296.875Q367.96875 296.29688 367.90625 295.85938Q367.84375 295.42188 367.70312 295.10938Q367.57812 294.79688 367.375 294.60938Q367.1875 294.42188 366.9375 294.32812Q366.6875 294.23438 366.35938 294.23438Q365.98438 294.23438 365.67188 294.375Q365.375 294.51562 365.17188 294.82812Q364.96875 295.14062 364.85938 295.65625Q364.76562 296.15625 364.76562 296.875L364.76562 298.53125Q364.76562 299.10938 364.82812 299.54688Q364.90625 299.98438 365.03125 300.3125Q365.17188 300.625 365.35938 300.82812Q365.5625 301.03125 365.8125 301.125Q366.0625 301.21875 366.375 301.21875Q366.78125 301.21875 367.07812 301.07812Q367.375 300.92188 367.57812 300.59375Q367.78125 300.26562 367.875 299.76562Q367.96875 299.25 367.96875 298.53125Z" fill-rule="nonzero"/><path stroke="#cccccc" stroke-width="1.0" stroke-linecap="butt" d="M422.425 305.0C422.425 277.15103 399.84897 254.575 372.0 254.575C344.15103 254.575 321.575 277.15103 321.575 305.0C321.575 332.84897 344.15103 355.425 372.0 355.425C399.84897 355.425 422.425 332.84897 422.425 305.0" fill-rule="nonzero"/><path fill="#000000" d="M360.0625 246.62187L360.0625 247.93437Q360.0625 248.98125 359.875 249.7Q359.6875 250.41875 359.32812 250.85625Q358.98438 251.29375 358.48438 251.49687Q358.0 251.7 357.375 251.7Q356.89062 251.7 356.46875 251.575Q356.04688 251.45 355.71875 251.18437Q355.39062 250.90312 355.15625 250.46562Q354.92188 250.02812 354.79688 249.40312Q354.67188 248.7625 354.67188 247.93437L354.67188 246.62187Q354.67188 245.575 354.85938 244.87187Q355.0625 244.16875 355.40625 243.73125Q355.76562 243.29375 356.25 243.10625Q356.75 242.91875 357.35938 242.91875Q357.85938 242.91875 358.28125 243.04375Q358.70312 243.16875 359.03125 243.43437Q359.35938 243.68437 359.57812 244.12187Q359.8125 244.54375 359.9375 245.16875Q360.0625 245.79375 360.0625 246.62187ZM358.96875 248.10625L358.96875 246.45Q358.96875 245.87187 358.90625 245.43437Q358.84375 244.99687 358.70312 244.68437Q358.57812 244.37187 358.375 244.18437Q358.1875 243.99687 357.9375 243.90312Q357.6875 243.80937 357.35938 243.80937Q356.98438 243.80937 356.67188 243.95Q356.375 244.09062 356.17188 244.40312Q355.96875 244.71562 355.85938 245.23125Q355.76562 245.73125 355.76562 246.45L355.76562 248.10625Q355.76562 248.68437 355.82812 249.12187Q355.90625 249.55937 356.03125 249.8875Q356.17188 250.2 356.35938 250.40312Q356.5625 250.60625 356.8125 250.7Q357.0625 250.79375 357.375 250.79375Q357.78125 250.79375 358.07812 250.65312Q358.375 250.49687 358.57812 250.16875Q358.78125 249.84062 358.875 249.34062Q358.96875 248.825 358.96875 248.10625ZM362.8125 250.27812L362.8125 251.15312Q362.8125 251.7 362.53125 252.29375Q362.26562 252.8875 361.78125 253.27812L361.17188 252.85625Q361.35938 252.59062 361.48438 252.325Q361.60938 252.05937 361.67188 251.77812Q361.75 251.49687 361.75 251.16875L361.75 250.27812L362.8125 250.27812ZM369.29688 250.68437L369.29688 251.575L363.71875 251.575L363.71875 250.79375L366.51562 247.68437Q367.03125 247.10625 367.3125 246.71562Q367.59375 246.30937 367.70312 245.99687Q367.82812 245.66875 367.82812 245.34062Q367.82812 244.91875 367.65625 244.575Q367.48438 244.23125 367.14062 244.02812Q366.8125 243.80937 366.32812 243.80937Q365.76562 243.80937 365.39062 244.04375Q365.01562 244.2625 364.82812 244.65312Q364.64062 245.04375 364.64062 245.54375L363.54688 245.54375Q363.54688 244.825 363.85938 244.23125Q364.1875 243.6375 364.79688 243.27812Q365.42188 242.91875 366.32812 242.91875Q367.14062 242.91875 367.71875 243.21562Q368.29688 243.49687 368.59375 244.0125Q368.90625 244.5125 368.90625 245.2Q368.90625 245.575 368.78125 245.96562Q368.65625 246.34062 368.4375 246.73125Q368.21875 247.10625 367.92188 247.48125Q367.64062 247.84062 367.3125 248.2L365.01562 250.68437L369.29688 250.68437Z" fill-rule="nonzero"/><path stroke="#cccccc" stroke-width="1.0" stroke-linecap="butt" d="M472.85 305.0C472.85 249.30208 427.6979 204.15 372.0 204.15C316.3021 204.15 271.15 249.30208 271.15 305.0C271.15 360.6979 316.3021 405.85 372.0 405.85C427.6979 405.85 472.85 360.6979 472.85 305.0" fill-rule="nonzero"/><path fill="#000000" d="M360.0625 196.19687L360.0625 197.50937Q360.0625 198.55624 359.875 199.275Q359.6875 199.99374 359.32812 200.43124Q358.98438 200.86874 358.48438 201.07187Q358.0 201.275 357.375 201.275Q356.89062 201.275 356.46875 201.15Q356.04688 201.025 355.71875 200.75937Q355.39062 200.47812 355.15625 200.04062Q354.92188 199.60312 354.79688 198.97812Q354.67188 198.3375 354.67188 197.50937L354.67188 196.19687Q354.67188 195.15 354.85938 194.44687Q355.0625 193.74374 355.40625 193.30624Q355.76562 192.86874 356.25 192.68124Q356.75 192.49374 357.35938 192.49374Q357.85938 192.49374 358.28125 192.61874Q358.70312 192.74374 359.03125 193.00937Q359.35938 193.25937 359.57812 193.69687Q359.8125 194.11874 359.9375 194.74374Q360.0625 195.36874 360.0625 196.19687ZM358.96875 197.68124L358.96875 196.025Q358.96875 195.44687 358.90625 195.00937Q358.84375 194.57187 358.70312 194.25937Q358.57812 193.94687 358.375 193.75937Q358.1875 193.57187 357.9375 193.47812Q357.6875 193.38437 357.35938 193.38437Q356.98438 193.38437 356.67188 193.525Q356.375 193.66562 356.17188 193.97812Q355.96875 194.29062 355.85938 194.80624Q355.76562 195.30624 355.76562 196.025L355.76562 197.68124Q355.76562 198.25937 355.82812 198.69687Q355.90625 199.13437 356.03125 199.4625Q356.17188 199.775 356.35938 199.97812Q356.5625 200.18124 356.8125 200.275Q357.0625 200.36874 357.375 200.36874Q357.78125 200.36874 358.07812 200.22812Q358.375 200.07187 358.57812 199.74374Q358.78125 199.41562 358.875 198.91562Q358.96875 198.4 358.96875 197.68124ZM362.8125 199.85312L362.8125 200.72812Q362.8125 201.275 362.53125 201.86874Q362.26562 202.4625 361.78125 202.85312L361.17188 202.43124Q361.35938 202.16562 361.48438 201.9Q361.60938 201.63437 361.67188 201.35312Q361.75 201.07187 361.75 200.74374L361.75 199.85312L362.8125 199.85312ZM369.46875 198.275L369.46875 199.16562L363.3125 199.16562L363.3125 198.525L367.125 192.61874L368.01562 192.61874L367.0625 194.32187L364.54688 198.275L369.46875 198.275ZM368.28125 192.61874L368.28125 201.15L367.20312 201.15L367.20312 192.61874L368.28125 192.61874Z" fill-rule="nonzero"/><path stroke="#cccccc" stroke-width="1.0" stroke-linecap="butt" d="M523.275 305.0C523.275 221.45312 455.54688 153.725 372.0 153.725C288.45312 153.725 220.725 221.45312 220.725 305.0C220.725 388.54688 288.45312 456.275 372.0 456.275C455.54688 456.275 523.275 388.54688 523.275 305.0" fill-rule="nonzero"/><path fill="#000000" d="M360.0625 145.77188L360.0625 147.08438Q360.0625 148.13126 359.875 148.85Q359.6875 149.56876 359.32812 150.00626Q358.98438 150.44376 358.48438 150.64688Q358.0 150.85 357.375 150.85Q356.89062 150.85 356.46875 150.725Q356.04688 150.6 355.71875 150.33438Q355.39062 150.05313 355.15625 149.61563Q354.92188 149.17813 354.79688 148.55313Q354.67188 147.9125 354.67188 147.08438L354.67188 145.77188Q354.67188 144.725 354.85938 144.02188Q355.0625 143.31876 355.40625 142.88126Q355.76562 142.44376 356.25 142.25626Q356.75 142.06876 357.35938 142.06876Q357.85938 142.06876 358.28125 142.19376Q358.70312 142.31876 359.03125 142.58438Q359.35938 142.83438 359.57812 143.27188Q359.8125 143.69376 359.9375 144.31876Q360.0625 144.94376 360.0625 145.77188ZM358.96875 147.25626L358.96875 145.6Q358.96875 145.02188 358.90625 144.58438Q358.84375 144.14688 358.70312 143.83438Q358.57812 143.52188 358.375 143.33438Q358.1875 143.14688 357.9375 143.05313Q357.6875 142.95938 357.35938 142.95938Q356.98438 142.95938 356.67188 143.1Q356.375 143.24063 356.17188 143.55313Q355.96875 143.86563 355.85938 144.38126Q355.76562 144.88126 355.76562 145.6L355.76562 147.25626Q355.76562 147.83438 355.82812 148.27188Q355.90625 148.70938 356.03125 149.0375Q356.17188 149.35 356.35938 149.55313Q356.5625 149.75626 356.8125 149.85Q357.0625 149.94376 357.375 149.94376Q357.78125 149.94376 358.07812 149.80313Q358.375 149.64688 358.57812 149.31876Q358.78125 148.99063 358.875 148.49063Q358.96875 147.975 358.96875 147.25626ZM362.8125 149.42813L362.8125 150.30313Q362.8125 150.85 362.53125 151.44376Q362.26562 152.0375 361.78125 152.42813L361.17188 152.00626Q361.35938 151.74063 361.48438 151.475Q361.60938 151.20938 361.67188 150.92813Q361.75 150.64688 361.75 150.31876L361.75 149.42813L362.8125 149.42813ZM367.875 142.17813L367.96875 142.17813L367.96875 143.1L367.875 143.1Q367.01562 143.1 366.42188 143.38126Q365.84375 143.6625 365.5 144.13126Q365.17188 144.58438 365.01562 145.17813Q364.875 145.75626 364.875 146.35L364.875 147.6Q364.875 148.1625 365.0 148.6Q365.14062 149.0375 365.375 149.35Q365.60938 149.64688 365.90625 149.80313Q366.20312 149.94376 366.51562 149.94376Q366.89062 149.94376 367.1875 149.80313Q367.48438 149.6625 367.6875 149.39688Q367.89062 149.13126 367.98438 148.7875Q368.09375 148.42813 368.09375 147.99063Q368.09375 147.61563 368.0 147.25626Q367.90625 146.89688 367.71875 146.63126Q367.53125 146.35 367.23438 146.19376Q366.9375 146.02188 366.54688 146.02188Q366.09375 146.02188 365.70312 146.24063Q365.3125 146.45938 365.0625 146.81876Q364.8125 147.17813 364.78125 147.58438L364.20312 147.58438Q364.29688 146.92813 364.51562 146.45938Q364.73438 145.99063 365.07812 145.69376Q365.42188 145.39688 365.82812 145.27188Q366.25 145.13126 366.71875 145.13126Q367.35938 145.13126 367.8125 145.38126Q368.28125 145.61563 368.57812 146.02188Q368.89062 146.4125 369.03125 146.9125Q369.17188 147.4125 369.17188 147.94376Q369.17188 148.5375 369.0 149.06876Q368.82812 149.6 368.48438 150.00626Q368.15625 150.39688 367.65625 150.63126Q367.17188 150.85 366.51562 150.85Q365.82812 150.85 365.3125 150.56876Q364.79688 150.27188 364.45312 149.80313Q364.125 149.31876 363.95312 148.74063Q363.78125 148.1625 363.78125 147.56876L363.78125 147.05313Q363.78125 146.14688 363.95312 145.2875Q364.14062 144.4125 364.59375 143.70938Q365.04688 143.00626 365.84375 142.6Q366.64062 142.17813 367.875 142.17813Z" fill-rule="nonzero"/><path stroke="#cccccc" stroke-width="1.0" stroke-linecap="butt" d="M573.7 305.0C573.7 193.60417 483.39584 103.3 372.0 103.3C260.60416 103.3 170.3 193.60417 170.3 305.0C170.3 416.39584 260.60416 506.7 372.0 506.7C483.39584 506.7 573.7 416.39584 573.7 305.0" fill-rule="nonzero"/><path fill="#000000" d="M360.0625 95.34688L360.0625 96.65938Q360.0625 97.70625 359.875 98.425Q359.6875 99.14375 359.32812 99.58125Q358.98438 100.01875 358.48438 100.22188Q358.0 100.425 357.375 100.425Q356.89062 100.425 356.46875 100.3Q356.04688 100.175 355.71875 99.90938Q355.39062 99.62813 355.15625 99.19063Q354.92188 98.75313 354.79688 98.12813Q354.67188 97.4875 354.67188 96.65938L354.67188 95.34688Q354.67188 94.3 354.85938 93.59688Q355.0625 92.89375 355.40625 92.45625Q355.76562 92.01875 356.25 91.83125Q356.75 91.64375 357.35938 91.64375Q357.85938 91.64375 358.28125 91.76875Q358.70312 91.89375 359.03125 92.15938Q359.35938 92.40938 359.57812 92.84688Q359.8125 93.26875 359.9375 93.89375Q360.0625 94.51875 360.0625 95.34688ZM358.96875 96.83125L358.96875 95.175Q358.96875 94.59688 358.90625 94.15938Q358.84375 93.72188 358.70312 93.40938Q358.57812 93.09688 358.375 92.90938Q358.1875 92.72188 357.9375 92.62813Q357.6875 92.53438 357.35938 92.53438Q356.98438 92.53438 356.67188 92.675Q356.375 92.81563 356.17188 93.12813Q355.96875 93.44063 355.85938 93.95625Q355.76562 94.45625 355.76562 95.175L355.76562 96.83125Q355.76562 97.40938 355.82812 97.84688Q355.90625 98.28438 356.03125 98.6125Q356.17188 98.925 356.35938 99.12813Q356.5625 99.33125 356.8125 99.425Q357.0625 99.51875 357.375 99.51875Q357.78125 99.51875 358.07812 99.37813Q358.375 99.22188 358.57812 98.89375Q358.78125 98.56563 358.875 98.06563Q358.96875 97.55 358.96875 96.83125ZM362.8125 99.00313L362.8125 99.87813Q362.8125 100.425 362.53125 101.01875Q362.26562 101.6125 361.78125 102.00313L361.17188 101.58125Q361.35938 101.31563 361.48438 101.05Q361.60938 100.78438 361.67188 100.50313Q361.75 100.22188 361.75 99.89375L361.75 99.00313L362.8125 99.00313ZM369.09375 97.9875Q369.09375 98.76875 368.73438 99.31563Q368.375 99.84688 367.75 100.14375Q367.14062 100.425 366.375 100.425Q365.60938 100.425 364.98438 100.14375Q364.375 99.84688 364.01562 99.31563Q363.65625 98.76875 363.65625 97.9875Q363.65625 97.4875 363.85938 97.06563Q364.0625 96.62813 364.42188 96.31563Q364.78125 96.00313 365.26562 95.83125Q365.76562 95.65938 366.35938 95.65938Q367.15625 95.65938 367.76562 95.95625Q368.375 96.25313 368.73438 96.78438Q369.09375 97.31563 369.09375 97.9875ZM368.0 97.97188Q368.0 97.4875 367.79688 97.12813Q367.59375 96.75313 367.21875 96.55Q366.84375 96.34688 366.35938 96.34688Q365.85938 96.34688 365.5 96.55Q365.14062 96.75313 364.9375 97.12813Q364.75 97.4875 364.75 97.97188Q364.75 98.45625 364.9375 98.81563Q365.14062 99.15938 365.5 99.34688Q365.875 99.51875 366.375 99.51875Q366.875 99.51875 367.23438 99.34688Q367.60938 99.15938 367.79688 98.81563Q368.0 98.45625 368.0 97.97188ZM368.89062 93.9875Q368.89062 94.6125 368.5625 95.1125Q368.23438 95.6125 367.65625 95.89375Q367.09375 96.175 366.375 96.175Q365.64062 96.175 365.0625 95.89375Q364.5 95.6125 364.17188 95.1125Q363.85938 94.6125 363.85938 93.9875Q363.85938 93.2375 364.17188 92.72188Q364.5 92.20625 365.0625 91.925Q365.64062 91.64375 366.375 91.64375Q367.10938 91.64375 367.67188 91.925Q368.23438 92.20625 368.5625 92.72188Q368.89062 93.2375 368.89062 93.9875ZM367.8125 94.00313Q367.8125 93.58125 367.625 93.25313Q367.4375 92.925 367.10938 92.7375Q366.79688 92.53438 366.375 92.53438Q365.9375 92.53438 365.60938 92.72188Q365.29688 92.89375 365.125 93.22188Q364.95312 93.55 364.95312 94.00313Q364.95312 94.44063 365.125 94.76875Q365.29688 95.09688 365.625 95.28438Q365.95312 95.47188 366.375 95.47188Q366.79688 95.47188 367.10938 95.28438Q367.4375 95.09688 367.625 94.76875Q367.8125 94.44063 367.8125 94.00313Z" fill-rule="nonzero"/><path stroke="#cccccc" stroke-width="1.0" stroke-linecap="butt" d="M372.0 305.0L372.0 103.0" fill-rule="nonzero"/><path fill="#000000" d="M346.29688 77.5L344.51562 77.5L344.53125 76.578125L346.29688 76.578125Q347.21875 76.578125 347.82812 76.203125Q348.4375 75.8125 348.73438 75.125Q349.04688 74.421875 349.04688 73.484375L349.04688 72.96875Q349.04688 72.234375 348.875 71.671875Q348.70312 71.09375 348.35938 70.703125Q348.01562 70.296875 347.51562 70.09375Q347.03125 69.890625 346.40625 69.890625L344.48438 69.890625L344.48438 68.96875L346.40625 68.96875Q347.25 68.96875 347.9375 69.25Q348.625 69.53125 349.125 70.0625Q349.625 70.578125 349.89062 71.328125Q350.17188 72.0625 350.17188 72.984375L350.17188 73.484375Q350.17188 74.421875 349.89062 75.171875Q349.625 75.90625 349.10938 76.421875Q348.60938 76.9375 347.89062 77.21875Q347.1875 77.5 346.29688 77.5ZM345.125 68.96875L345.125 77.5L343.98438 77.5L343.98438 68.96875L345.125 68.96875ZM354.07812 73.421875L354.07812 74.3125L351.21875 74.3125L351.21875 73.421875L354.07812 73.421875ZM360.17188 76.578125L360.17188 77.5L355.90625 77.5L355.90625 76.578125L360.17188 76.578125ZM356.125 68.96875L356.125 77.5L354.98438 77.5L354.98438 68.96875L356.125 68.96875ZM362.0 71.15625L362.0 77.5L360.92188 77.5L360.92188 71.15625L362.0 71.15625ZM360.82812 69.484375Q360.82812 69.21875 360.98438 69.03125Q361.15625 68.84375 361.46875 68.84375Q361.78125 68.84375 361.9375 69.03125Q362.10938 69.21875 362.10938 69.484375Q362.10938 69.734375 361.9375 69.921875Q361.78125 70.09375 361.46875 70.09375Q361.15625 70.09375 360.98438 69.921875Q360.82812 69.734375 360.82812 69.484375ZM364.90625 72.421875L364.90625 77.5L363.8125 77.5L363.8125 71.15625L364.84375 71.15625L364.90625 72.421875ZM364.6875 74.09375L364.17188 74.078125Q364.1875 73.421875 364.34375 72.875Q364.51562 72.3125 364.82812 71.90625Q365.15625 71.5 365.64062 71.28125Q366.125 71.046875 366.75 71.046875Q367.20312 71.046875 367.57812 71.171875Q367.95312 71.296875 368.21875 71.5625Q368.5 71.828125 368.64062 72.25Q368.79688 72.671875 368.79688 73.28125L368.79688 77.5L367.71875 77.5L367.71875 73.328125Q367.71875 72.828125 367.54688 72.53125Q367.39062 72.234375 367.07812 72.09375Q366.78125 71.953125 366.35938 71.953125Q365.89062 71.953125 365.5625 72.125Q365.23438 72.296875 365.04688 72.59375Q364.85938 72.890625 364.76562 73.28125Q364.6875 73.65625 364.6875 74.09375ZM368.79688 73.484375L368.0625 73.71875Q368.0625 73.1875 368.23438 72.71875Q368.40625 72.234375 368.71875 71.859375Q369.04688 71.484375 369.51562 71.265625Q369.98438 71.046875 370.57812 71.046875Q371.09375 71.046875 371.48438 71.1875Q371.89062 71.3125 372.15625 71.59375Q372.42188 71.875 372.5625 72.3125Q372.70312 72.734375 372.70312 73.328125L372.70312 77.5L371.625 77.5L371.625 73.328125Q371.625 72.78125 371.45312 72.5Q371.28125 72.203125 370.98438 72.078125Q370.6875 71.953125 370.26562 71.953125Q369.90625 71.953125 369.625 72.078125Q369.35938 72.203125 369.17188 72.421875Q368.98438 72.625 368.89062 72.90625Q368.79688 73.1875 368.79688 73.484375ZM374.54688 74.40625L374.54688 74.265625Q374.54688 73.578125 374.73438 73.0Q374.9375 72.40625 375.3125 71.96875Q375.6875 71.53125 376.21875 71.296875Q376.75 71.046875 377.42188 71.046875Q378.07812 71.046875 378.60938 71.296875Q379.15625 71.53125 379.53125 71.96875Q379.90625 72.40625 380.10938 73.0Q380.3125 73.578125 380.3125 74.265625L380.3125 74.40625Q380.3125 75.078125 380.10938 75.671875Q379.90625 76.25 379.53125 76.6875Q379.15625 77.125 378.625 77.375Q378.09375 77.625 377.42188 77.625Q376.76562 77.625 376.21875 77.375Q375.6875 77.125 375.3125 76.6875Q374.9375 76.25 374.73438 75.671875Q374.54688 75.078125 374.54688 74.40625ZM375.625 74.265625L375.625 74.40625Q375.625 74.875 375.73438 75.296875Q375.84375 75.71875 376.0625 76.046875Q376.29688 76.359375 376.64062 76.546875Q376.98438 76.71875 377.42188 76.71875Q377.875 76.71875 378.20312 76.546875Q378.54688 76.359375 378.76562 76.046875Q379.0 75.71875 379.10938 75.296875Q379.21875 74.875 379.21875 74.40625L379.21875 74.265625Q379.21875 73.796875 379.10938 73.375Q379.0 72.953125 378.76562 72.640625Q378.54688 72.3125 378.20312 72.125Q377.875 71.9375 377.42188 71.9375Q376.96875 71.9375 376.625 72.125Q376.29688 72.3125 376.0625 72.640625Q375.84375 72.953125 375.73438 73.375Q375.625 73.796875 375.625 74.265625ZM382.90625 72.515625L382.90625 77.5L381.82812 77.5L381.82812 71.15625L382.85938 71.15625L382.90625 72.515625ZM382.65625 74.09375L382.20312 74.078125Q382.20312 73.421875 382.39062 72.875Q382.57812 72.3125 382.92188 71.90625Q383.26562 71.5 383.73438 71.28125Q384.20312 71.046875 384.78125 71.046875Q385.25 71.046875 385.625 71.171875Q386.0 71.296875 386.26562 71.578125Q386.53125 71.84375 386.67188 72.28125Q386.8125 72.71875 386.8125 73.34375L386.8125 77.5L385.71875 77.5L385.71875 73.328125Q385.71875 72.828125 385.57812 72.53125Q385.4375 72.234375 385.15625 72.09375Q384.875 71.953125 384.45312 71.953125Q384.04688 71.953125 383.71875 72.125Q383.39062 72.296875 383.15625 72.59375Q382.92188 72.890625 382.78125 73.28125Q382.65625 73.65625 382.65625 74.09375ZM391.45312 77.625Q390.79688 77.625 390.25 77.40625Q389.71875 77.171875 389.32812 76.765625Q388.95312 76.34375 388.75 75.78125Q388.54688 75.21875 388.54688 74.546875L388.54688 74.3125Q388.54688 73.53125 388.76562 72.921875Q389.0 72.3125 389.39062 71.890625Q389.78125 71.46875 390.28125 71.265625Q390.78125 71.046875 391.3125 71.046875Q392.0 71.046875 392.48438 71.28125Q392.98438 71.515625 393.29688 71.9375Q393.625 72.34375 393.76562 72.921875Q393.92188 73.484375 393.92188 74.140625L393.92188 74.640625L389.1875 74.640625L389.1875 73.75L392.84375 73.75L392.84375 73.671875Q392.8125 73.25 392.65625 72.859375Q392.51562 72.453125 392.1875 72.203125Q391.875 71.9375 391.3125 71.9375Q390.95312 71.9375 390.64062 72.09375Q390.32812 72.25 390.09375 72.5625Q389.875 72.859375 389.75 73.296875Q389.64062 73.734375 389.64062 74.3125L389.64062 74.546875Q389.64062 75.0 389.76562 75.40625Q389.89062 75.796875 390.125 76.09375Q390.375 76.390625 390.71875 76.5625Q391.07812 76.734375 391.51562 76.734375Q392.09375 76.734375 392.48438 76.5Q392.89062 76.265625 393.1875 75.875L393.84375 76.390625Q393.64062 76.703125 393.3125 76.984375Q393.0 77.265625 392.53125 77.453125Q392.07812 77.625 391.45312 77.625ZM395.90625 72.515625L395.90625 77.5L394.82812 77.5L394.82812 71.15625L395.85938 71.15625L395.90625 72.515625ZM395.65625 74.09375L395.20312 74.078125Q395.20312 73.421875 395.39062 72.875Q395.57812 72.3125 395.92188 71.90625Q396.26562 71.5 396.73438 71.28125Q397.20312 71.046875 397.78125 71.046875Q398.25 71.046875 398.625 71.171875Q399.0 71.296875 399.26562 71.578125Q399.53125 71.84375 399.67188 72.28125Q399.8125 72.71875 399.8125 73.34375L399.8125 77.5L398.71875 77.5L398.71875 73.328125Q398.71875 72.828125 398.57812 72.53125Q398.4375 72.234375 398.15625 72.09375Q397.875 71.953125 397.45312 71.953125Q397.04688 71.953125 396.71875 72.125Q396.39062 72.296875 396.15625 72.59375Q395.92188 72.890625 395.78125 73.28125Q395.65625 73.65625 395.65625 74.09375Z" fill-rule="nonzero"/><path stroke="#cccccc" stroke-width="1.0" stroke-linecap="butt" d="M372.0 305.0L547.0 204.0" fill-rule="nonzero"/><path fill="#000000" d="M543.6406 190.78125L544.7656 190.78125Q544.6719 191.59375 544.2969 192.23438Q543.9219 192.875 543.2344 193.25Q542.5625 193.625 541.53125 193.625Q540.78125 193.625 540.1719 193.34375Q539.5625 193.04688 539.1094 192.53125Q538.6719 192.01562 538.4375 191.29688Q538.2031 190.5625 538.2031 189.65625L538.2031 188.8125Q538.2031 187.92188 538.4375 187.1875Q538.6719 186.45312 539.125 185.9375Q539.5781 185.40625 540.2031 185.125Q540.84375 184.84375 541.625 184.84375Q542.59375 184.84375 543.2656 185.21875Q543.9375 185.57812 544.2969 186.21875Q544.6719 186.85938 544.7656 187.70312L543.6406 187.70312Q543.5625 187.10938 543.3281 186.6875Q543.1094 186.25 542.7031 186.01562Q542.2969 185.78125 541.625 185.78125Q541.0625 185.78125 540.625 186.0Q540.2031 186.20312 539.90625 186.60938Q539.625 187.0 539.46875 187.5625Q539.3281 188.125 539.3281 188.79688L539.3281 189.65625Q539.3281 190.28125 539.4531 190.84375Q539.59375 191.39062 539.8594 191.8125Q540.125 192.21875 540.5469 192.46875Q540.96875 192.70312 541.53125 192.70312Q542.25 192.70312 542.6719 192.46875Q543.1094 192.23438 543.3281 191.8125Q543.5469 191.39062 543.6406 190.78125ZM550.0625 192.42188L550.0625 189.15625Q550.0625 188.78125 549.90625 188.5Q549.7656 188.21875 549.46875 188.07812Q549.1719 187.92188 548.7344 187.92188Q548.3125 187.92188 548.0 188.0625Q547.7031 188.20312 547.53125 188.4375Q547.3594 188.65625 547.3594 188.92188L546.28125 188.92188Q546.28125 188.57812 546.4531 188.25Q546.625 187.90625 546.9531 187.64062Q547.28125 187.35938 547.75 187.20312Q548.21875 187.04688 548.7969 187.04688Q549.4844 187.04688 550.0156 187.28125Q550.5469 187.51562 550.84375 187.98438Q551.15625 188.45312 551.15625 189.15625L551.15625 192.10938Q551.15625 192.4375 551.2031 192.79688Q551.2656 193.14062 551.375 193.40625L551.375 193.5L550.2344 193.5Q550.15625 193.3125 550.1094 193.0Q550.0625 192.6875 550.0625 192.42188ZM550.25 189.65625L550.2656 190.42188L549.1719 190.42188Q548.7031 190.42188 548.34375 190.5Q547.9844 190.5625 547.7344 190.71875Q547.4844 190.85938 547.3594 191.07812Q547.2344 191.29688 547.2344 191.59375Q547.2344 191.89062 547.3594 192.14062Q547.5 192.375 547.7656 192.53125Q548.0469 192.67188 548.4375 192.67188Q548.9375 192.67188 549.3125 192.46875Q549.7031 192.25 549.9219 191.95312Q550.15625 191.64062 550.1719 191.34375L550.6406 191.875Q550.59375 192.10938 550.40625 192.42188Q550.2344 192.71875 549.9219 193.0Q549.625 193.26562 549.2031 193.45312Q548.7969 193.625 548.28125 193.625Q547.6406 193.625 547.15625 193.375Q546.6719 193.10938 546.40625 192.6875Q546.1406 192.26562 546.1406 191.73438Q546.1406 191.21875 546.3281 190.84375Q546.53125 190.45312 546.90625 190.1875Q547.28125 189.92188 547.8125 189.79688Q548.34375 189.65625 549.0 189.65625L550.25 189.65625ZM554.40625 188.15625L554.40625 193.5L553.3281 193.5L553.3281 187.15625L554.375 187.15625L554.40625 188.15625ZM556.3906 187.125L556.3906 188.125Q556.25 188.10938 556.125 188.09375Q556.0156 188.07812 555.8594 188.07812Q555.4844 188.07812 555.1875 188.20312Q554.90625 188.3125 554.7031 188.53125Q554.5156 188.73438 554.3906 189.03125Q554.28125 189.32812 554.25 189.67188L553.9375 189.84375Q553.9375 189.26562 554.0469 188.76562Q554.1719 188.26562 554.40625 187.875Q554.65625 187.48438 555.0156 187.26562Q555.3906 187.04688 555.90625 187.04688Q556.03125 187.04688 556.1719 187.07812Q556.3281 187.09375 556.3906 187.125ZM559.1094 192.84375L560.875 187.15625L562.03125 187.15625L559.4844 194.48438Q559.40625 194.71875 559.25 194.98438Q559.1094 195.26562 558.8906 195.5Q558.6719 195.75 558.3594 195.90625Q558.0469 196.0625 557.6094 196.0625Q557.4844 196.0625 557.28125 196.01562Q557.0781 195.98438 557.0 195.96875L557.0 195.09375Q557.0469 195.09375 557.1406 195.09375Q557.25 195.10938 557.28125 195.10938Q557.65625 195.10938 557.90625 195.01562Q558.1719 194.92188 558.34375 194.6875Q558.53125 194.46875 558.65625 194.07812L559.1094 192.84375ZM557.8125 187.15625L559.4531 192.07812L559.7344 193.21875L558.96875 193.625L556.625 187.15625L557.8125 187.15625ZM563.0469 190.40625L563.0469 190.26562Q563.0469 189.57812 563.2344 189.0Q563.4375 188.40625 563.8125 187.96875Q564.1875 187.53125 564.71875 187.29688Q565.25 187.04688 565.9219 187.04688Q566.5781 187.04688 567.1094 187.29688Q567.65625 187.53125 568.03125 187.96875Q568.40625 188.40625 568.6094 189.0Q568.8125 189.57812 568.8125 190.26562L568.8125 190.40625Q568.8125 191.07812 568.6094 191.67188Q568.40625 192.25 568.03125 192.6875Q567.65625 193.125 567.125 193.375Q566.59375 193.625 565.9219 193.625Q565.2656 193.625 564.71875 193.375Q564.1875 193.125 563.8125 192.6875Q563.4375 192.25 563.2344 191.67188Q563.0469 191.07812 563.0469 190.40625ZM564.125 190.26562L564.125 190.40625Q564.125 190.875 564.2344 191.29688Q564.34375 191.71875 564.5625 192.04688Q564.7969 192.35938 565.1406 192.54688Q565.4844 192.71875 565.9219 192.71875Q566.375 192.71875 566.7031 192.54688Q567.0469 192.35938 567.2656 192.04688Q567.5 191.71875 567.6094 191.29688Q567.71875 190.875 567.71875 190.40625L567.71875 190.26562Q567.71875 189.79688 567.6094 189.375Q567.5 188.95312 567.2656 188.64062Q567.0469 188.3125 566.7031 188.125Q566.375 187.9375 565.9219 187.9375Q565.46875 187.9375 565.125 188.125Q564.7969 188.3125 564.5625 188.64062Q564.34375 188.95312 564.2344 189.375Q564.125 189.79688 564.125 190.26562ZM571.40625 188.375L571.40625 195.9375L570.3281 195.9375L570.3281 187.15625L571.3125 187.15625L571.40625 188.375ZM575.6875 190.28125L575.6875 190.40625Q575.6875 191.09375 575.5156 191.6875Q575.3594 192.26562 575.0469 192.70312Q574.7344 193.14062 574.2656 193.39062Q573.8125 193.625 573.21875 193.625Q572.625 193.625 572.15625 193.42188Q571.6875 193.21875 571.3594 192.84375Q571.0469 192.45312 570.8594 191.92188Q570.6719 191.39062 570.59375 190.71875L570.59375 190.0625Q570.6719 189.35938 570.8594 188.8125Q571.0469 188.25 571.3594 187.85938Q571.6875 187.45312 572.1406 187.25Q572.6094 187.04688 573.2031 187.04688Q573.7969 187.04688 574.2656 187.28125Q574.7344 187.5 575.0469 187.9375Q575.3594 188.35938 575.5156 188.95312Q575.6875 189.54688 575.6875 190.28125ZM574.59375 190.40625L574.59375 190.28125Q574.59375 189.79688 574.4844 189.39062Q574.3906 188.96875 574.1875 188.65625Q573.9844 188.32812 573.65625 188.14062Q573.3281 187.95312 572.8906 187.95312Q572.4844 187.95312 572.1719 188.09375Q571.875 188.23438 571.65625 188.48438Q571.4531 188.71875 571.3125 189.01562Q571.1875 189.3125 571.125 189.64062L571.125 191.15625Q571.2344 191.5625 571.4375 191.92188Q571.65625 192.28125 572.0 192.5Q572.3594 192.71875 572.90625 192.71875Q573.34375 192.71875 573.65625 192.54688Q573.9844 192.35938 574.1875 192.04688Q574.3906 191.71875 574.4844 191.29688Q574.59375 190.875 574.59375 190.40625ZM578.40625 184.5L578.40625 193.5L577.3281 193.5L577.3281 184.5L578.40625 184.5ZM578.15625 190.09375L577.7031 190.07812Q577.7031 189.42188 577.8906 188.875Q578.0781 188.3125 578.4219 187.90625Q578.7656 187.5 579.2344 187.28125Q579.7031 187.04688 580.28125 187.04688Q580.75 187.04688 581.125 187.17188Q581.5 187.29688 581.7656 187.57812Q582.03125 187.84375 582.1719 188.28125Q582.3125 188.71875 582.3125 189.34375L582.3125 193.5L581.21875 193.5L581.21875 189.32812Q581.21875 188.82812 581.0781 188.53125Q580.9375 188.23438 580.65625 188.09375Q580.375 187.95312 579.9531 187.95312Q579.5469 187.95312 579.21875 188.125Q578.8906 188.29688 578.65625 188.59375Q578.4219 188.89062 578.28125 189.28125Q578.15625 189.65625 578.15625 190.09375ZM586.1094 192.84375L587.875 187.15625L589.03125 187.15625L586.4844 194.48438Q586.40625 194.71875 586.25 194.98438Q586.1094 195.26562 585.8906 195.5Q585.6719 195.75 585.3594 195.90625Q585.0469 196.0625 584.6094 196.0625Q584.4844 196.0625 584.28125 196.01562Q584.0781 195.98438 584.0 195.96875L584.0 195.09375Q584.0469 195.09375 584.1406 195.09375Q584.25 195.10938 584.28125 195.10938Q584.65625 195.10938 584.90625 195.01562Q585.1719 194.92188 585.34375 194.6875Q585.53125 194.46875 585.65625 194.07812L586.1094 192.84375ZM584.8125 187.15625L586.4531 192.07812L586.7344 193.21875L585.96875 193.625L583.625 187.15625L584.8125 187.15625ZM591.5 184.5L591.5 193.5L590.4219 193.5L590.4219 184.5L591.5 184.5ZM594.5 184.5L594.5 193.5L593.4219 193.5L593.4219 184.5L594.5 184.5ZM598.9531 193.625Q598.2969 193.625 597.75 193.40625Q597.21875 193.17188 596.8281 192.76562Q596.4531 192.34375 596.25 191.78125Q596.0469 191.21875 596.0469 190.54688L596.0469 190.3125Q596.0469 189.53125 596.2656 188.92188Q596.5 188.3125 596.8906 187.89062Q597.28125 187.46875 597.78125 187.26562Q598.28125 187.04688 598.8125 187.04688Q599.5 187.04688 599.9844 187.28125Q600.4844 187.51562 600.7969 187.9375Q601.125 188.34375 601.2656 188.92188Q601.4219 189.48438 601.4219 190.14062L601.4219 190.64062L596.6875 190.64062L596.6875 189.75L600.34375 189.75L600.34375 189.67188Q600.3125 189.25 600.15625 188.85938Q600.0156 188.45312 599.6875 188.20312Q599.375 187.9375 598.8125 187.9375Q598.4531 187.9375 598.1406 188.09375Q597.8281 188.25 597.59375 188.5625Q597.375 188.85938 597.25 189.29688Q597.1406 189.73438 597.1406 190.3125L597.1406 190.54688Q597.1406 191.0 597.2656 191.40625Q597.3906 191.79688 597.625 192.09375Q597.875 192.39062 598.21875 192.5625Q598.5781 192.73438 599.0156 192.73438Q599.59375 192.73438 599.9844 192.5Q600.3906 192.26562 600.6875 191.875L601.34375 192.39062Q601.1406 192.70312 600.8125 192.98438Q600.5 193.26562 600.03125 193.45312Q599.5781 193.625 598.9531 193.625ZM603.40625 188.51562L603.40625 193.5L602.3281 193.5L602.3281 187.15625L603.3594 187.15625L603.40625 188.51562ZM603.15625 190.09375L602.7031 190.07812Q602.7031 189.42188 602.8906 188.875Q603.0781 188.3125 603.4219 187.90625Q603.7656 187.5 604.2344 187.28125Q604.7031 187.04688 605.28125 187.04688Q605.75 187.04688 606.125 187.17188Q606.5 187.29688 606.7656 187.57812Q607.03125 187.84375 607.1719 188.28125Q607.3125 188.71875 607.3125 189.34375L607.3125 193.5L606.21875 193.5L606.21875 189.32812Q606.21875 188.82812 606.0781 188.53125Q605.9375 188.23438 605.65625 188.09375Q605.375 187.95312 604.9531 187.95312Q604.5469 187.95312 604.21875 188.125Q603.8906 188.29688 603.65625 188.59375Q603.4219 188.89062 603.28125 189.28125Q603.15625 189.65625 603.15625 190.09375Z" fill-rule="nonzero"/><path stroke="#cccccc" stroke-width="1.0" stroke-linecap="butt" d="M372.0 305.0L547.0 406.0" fill-rule="nonzero"/><path fill="#000000" d="M557.6719 424.57812L557.6719 425.5L553.40625 425.5L553.40625 424.57812L557.6719 424.57812ZM553.625 416.96875L553.625 425.5L552.4844 425.5L552.4844 416.96875L553.625 416.96875ZM559.5 419.15625L559.5 425.5L558.4219 425.5L558.4219 419.15625L559.5 419.15625ZM558.3281 417.48438Q558.3281 417.21875 558.4844 417.03125Q558.65625 416.84375 558.96875 416.84375Q559.28125 416.84375 559.4375 417.03125Q559.6094 417.21875 559.6094 417.48438Q559.6094 417.73438 559.4375 417.92188Q559.28125 418.09375 558.96875 418.09375Q558.65625 418.09375 558.4844 417.92188Q558.3281 417.73438 558.3281 417.48438ZM562.40625 420.51562L562.40625 425.5L561.3281 425.5L561.3281 419.15625L562.3594 419.15625L562.40625 420.51562ZM562.15625 422.09375L561.7031 422.07812Q561.7031 421.42188 561.8906 420.875Q562.0781 420.3125 562.4219 419.90625Q562.7656 419.5 563.2344 419.28125Q563.7031 419.04688 564.28125 419.04688Q564.75 419.04688 565.125 419.17188Q565.5 419.29688 565.7656 419.57812Q566.03125 419.84375 566.1719 420.28125Q566.3125 420.71875 566.3125 421.34375L566.3125 425.5L565.21875 425.5L565.21875 421.32812Q565.21875 420.82812 565.0781 420.53125Q564.9375 420.23438 564.65625 420.09375Q564.375 419.95312 563.9531 419.95312Q563.5469 419.95312 563.21875 420.125Q562.8906 420.29688 562.65625 420.59375Q562.4219 420.89062 562.28125 421.28125Q562.15625 421.65625 562.15625 422.09375ZM572.0625 424.42188L572.0625 421.15625Q572.0625 420.78125 571.90625 420.5Q571.7656 420.21875 571.46875 420.07812Q571.1719 419.92188 570.7344 419.92188Q570.3125 419.92188 570.0 420.0625Q569.7031 420.20312 569.53125 420.4375Q569.3594 420.65625 569.3594 420.92188L568.28125 420.92188Q568.28125 420.57812 568.4531 420.25Q568.625 419.90625 568.9531 419.64062Q569.28125 419.35938 569.75 419.20312Q570.21875 419.04688 570.7969 419.04688Q571.4844 419.04688 572.0156 419.28125Q572.5469 419.51562 572.84375 419.98438Q573.15625 420.45312 573.15625 421.15625L573.15625 424.10938Q573.15625 424.4375 573.2031 424.79688Q573.2656 425.14062 573.375 425.40625L573.375 425.5L572.2344 425.5Q572.15625 425.3125 572.1094 425.0Q572.0625 424.6875 572.0625 424.42188ZM572.25 421.65625L572.2656 422.42188L571.1719 422.42188Q570.7031 422.42188 570.34375 422.5Q569.9844 422.5625 569.7344 422.71875Q569.4844 422.85938 569.3594 423.07812Q569.2344 423.29688 569.2344 423.59375Q569.2344 423.89062 569.3594 424.14062Q569.5 424.375 569.7656 424.53125Q570.0469 424.67188 570.4375 424.67188Q570.9375 424.67188 571.3125 424.46875Q571.7031 424.25 571.9219 423.95312Q572.15625 423.64062 572.1719 423.34375L572.6406 423.875Q572.59375 424.10938 572.40625 424.42188Q572.2344 424.71875 571.9219 425.0Q571.625 425.26562 571.2031 425.45312Q570.7969 425.625 570.28125 425.625Q569.6406 425.625 569.15625 425.375Q568.6719 425.10938 568.40625 424.6875Q568.1406 424.26562 568.1406 423.73438Q568.1406 423.21875 568.3281 422.84375Q568.53125 422.45312 568.90625 422.1875Q569.28125 421.92188 569.8125 421.79688Q570.34375 421.65625 571.0 421.65625L572.25 421.65625ZM576.5 416.5L576.5 425.5L575.4219 425.5L575.4219 416.5L576.5 416.5ZM578.0469 422.40625L578.0469 422.26562Q578.0469 421.57812 578.2344 421.0Q578.4375 420.40625 578.8125 419.96875Q579.1875 419.53125 579.71875 419.29688Q580.25 419.04688 580.9219 419.04688Q581.5781 419.04688 582.1094 419.29688Q582.65625 419.53125 583.03125 419.96875Q583.40625 420.40625 583.6094 421.0Q583.8125 421.57812 583.8125 422.26562L583.8125 422.40625Q583.8125 423.07812 583.6094 423.67188Q583.40625 424.25 583.03125 424.6875Q582.65625 425.125 582.125 425.375Q581.59375 425.625 580.9219 425.625Q580.2656 425.625 579.71875 425.375Q579.1875 425.125 578.8125 424.6875Q578.4375 424.25 578.2344 423.67188Q578.0469 423.07812 578.0469 422.40625ZM579.125 422.26562L579.125 422.40625Q579.125 422.875 579.2344 423.29688Q579.34375 423.71875 579.5625 424.04688Q579.7969 424.35938 580.1406 424.54688Q580.4844 424.71875 580.9219 424.71875Q581.375 424.71875 581.7031 424.54688Q582.0469 424.35938 582.2656 424.04688Q582.5 423.71875 582.6094 423.29688Q582.71875 422.875 582.71875 422.40625L582.71875 422.26562Q582.71875 421.79688 582.6094 421.375Q582.5 420.95312 582.2656 420.64062Q582.0469 420.3125 581.7031 420.125Q581.375 419.9375 580.9219 419.9375Q580.46875 419.9375 580.125 420.125Q579.7969 420.3125 579.5625 420.64062Q579.34375 420.95312 579.2344 421.375Q579.125 421.79688 579.125 422.26562ZM585.0469 422.40625L585.0469 422.26562Q585.0469 421.57812 585.2344 421.0Q585.4375 420.40625 585.8125 419.96875Q586.1875 419.53125 586.71875 419.29688Q587.25 419.04688 587.9219 419.04688Q588.5781 419.04688 589.1094 419.29688Q589.65625 419.53125 590.03125 419.96875Q590.40625 420.40625 590.6094 421.0Q590.8125 421.57812 590.8125 422.26562L590.8125 422.40625Q590.8125 423.07812 590.6094 423.67188Q590.40625 424.25 590.03125 424.6875Q589.65625 425.125 589.125 425.375Q588.59375 425.625 587.9219 425.625Q587.2656 425.625 586.71875 425.375Q586.1875 425.125 585.8125 424.6875Q585.4375 424.25 585.2344 423.67188Q585.0469 423.07812 585.0469 422.40625ZM586.125 422.26562L586.125 422.40625Q586.125 422.875 586.2344 423.29688Q586.34375 423.71875 586.5625 424.04688Q586.7969 424.35938 587.1406 424.54688Q587.4844 424.71875 587.9219 424.71875Q588.375 424.71875 588.7031 424.54688Q589.0469 424.35938 589.2656 424.04688Q589.5 423.71875 589.6094 423.29688Q589.71875 422.875 589.71875 422.40625L589.71875 422.26562Q589.71875 421.79688 589.6094 421.375Q589.5 420.95312 589.2656 420.64062Q589.0469 420.3125 588.7031 420.125Q588.375 419.9375 587.9219 419.9375Q587.46875 419.9375 587.125 420.125Q586.7969 420.3125 586.5625 420.64062Q586.34375 420.95312 586.2344 421.375Q586.125 421.79688 586.125 422.26562ZM593.5 416.5L593.5 425.5L592.4219 425.5L592.4219 416.5L593.5 416.5Z" fill-rule="nonzero"/><path stroke="#cccccc" stroke-width="1.0" stroke-linecap="butt" d="M372.0 305.0L372.0 507.0" fill-rule="nonzero"/><path fill="#000000" d="M344.79688 537.25L344.79688 540.375Q344.64062 540.6094 344.29688 540.90625Q343.95312 541.1875 343.34375 541.40625Q342.73438 541.625 341.78125 541.625Q341.0 541.625 340.34375 541.3594Q339.6875 541.0781 339.20312 540.5469Q338.73438 540.0156 338.46875 539.2656Q338.21875 538.5156 338.21875 537.5625L338.21875 536.90625Q338.21875 535.9375 338.4375 535.1875Q338.67188 534.4375 339.10938 533.9219Q339.54688 533.3906 340.1875 533.125Q340.82812 532.84375 341.65625 532.84375Q342.625 532.84375 343.28125 533.1875Q343.95312 533.53125 344.3125 534.125Q344.6875 534.7031 344.79688 535.46875L343.67188 535.46875Q343.59375 535.0 343.35938 534.625Q343.14062 534.2344 342.71875 534.0156Q342.3125 533.78125 341.65625 533.78125Q341.0625 533.78125 340.625 534.0Q340.1875 534.2031 339.90625 534.6094Q339.625 535.0156 339.48438 535.59375Q339.35938 536.1719 339.35938 536.8906L339.35938 537.5625Q339.35938 538.2969 339.53125 538.875Q339.70312 539.4531 340.01562 539.875Q340.34375 540.28125 340.78125 540.5Q341.23438 540.7031 341.78125 540.7031Q342.39062 540.7031 342.76562 540.59375Q343.14062 540.4844 343.34375 540.34375Q343.5625 540.2031 343.67188 540.0781L343.67188 538.1719L341.70312 538.1719L341.70312 537.25L344.79688 537.25ZM348.95312 541.625Q348.29688 541.625 347.75 541.40625Q347.21875 541.1719 346.82812 540.7656Q346.45312 540.34375 346.25 539.78125Q346.04688 539.21875 346.04688 538.5469L346.04688 538.3125Q346.04688 537.53125 346.26562 536.9219Q346.5 536.3125 346.89062 535.8906Q347.28125 535.46875 347.78125 535.2656Q348.28125 535.0469 348.8125 535.0469Q349.5 535.0469 349.98438 535.28125Q350.48438 535.5156 350.79688 535.9375Q351.125 536.34375 351.26562 536.9219Q351.42188 537.4844 351.42188 538.1406L351.42188 538.6406L346.6875 538.6406L346.6875 537.75L350.34375 537.75L350.34375 537.6719Q350.3125 537.25 350.15625 536.8594Q350.01562 536.4531 349.6875 536.2031Q349.375 535.9375 348.8125 535.9375Q348.45312 535.9375 348.14062 536.09375Q347.82812 536.25 347.59375 536.5625Q347.375 536.8594 347.25 537.2969Q347.14062 537.7344 347.14062 538.3125L347.14062 538.5469Q347.14062 539.0 347.26562 539.40625Q347.39062 539.7969 347.625 540.09375Q347.875 540.3906 348.21875 540.5625Q348.57812 540.7344 349.01562 540.7344Q349.59375 540.7344 349.98438 540.5Q350.39062 540.2656 350.6875 539.875L351.34375 540.3906Q351.14062 540.7031 350.8125 540.9844Q350.5 541.2656 350.03125 541.4531Q349.57812 541.625 348.95312 541.625ZM353.40625 536.15625L353.40625 541.5L352.32812 541.5L352.32812 535.15625L353.375 535.15625L353.40625 536.15625ZM355.39062 535.125L355.39062 536.125Q355.25 536.1094 355.125 536.09375Q355.01562 536.0781 354.85938 536.0781Q354.48438 536.0781 354.1875 536.2031Q353.90625 536.3125 353.70312 536.53125Q353.51562 536.7344 353.39062 537.03125Q353.28125 537.3281 353.25 537.6719L352.9375 537.84375Q352.9375 537.2656 353.04688 536.7656Q353.17188 536.2656 353.40625 535.875Q353.65625 535.4844 354.01562 535.2656Q354.39062 535.0469 354.90625 535.0469Q355.03125 535.0469 355.17188 535.0781Q355.32812 535.09375 355.39062 535.125ZM357.40625 536.4219L357.40625 541.5L356.3125 541.5L356.3125 535.15625L357.34375 535.15625L357.40625 536.4219ZM357.1875 538.09375L356.67188 538.0781Q356.6875 537.4219 356.84375 536.875Q357.01562 536.3125 357.32812 535.90625Q357.65625 535.5 358.14062 535.28125Q358.625 535.0469 359.25 535.0469Q359.70312 535.0469 360.07812 535.1719Q360.45312 535.2969 360.71875 535.5625Q361.0 535.8281 361.14062 536.25Q361.29688 536.6719 361.29688 537.28125L361.29688 541.5L360.21875 541.5L360.21875 537.3281Q360.21875 536.8281 360.04688 536.53125Q359.89062 536.2344 359.57812 536.09375Q359.28125 535.9531 358.85938 535.9531Q358.39062 535.9531 358.0625 536.125Q357.73438 536.2969 357.54688 536.59375Q357.35938 536.8906 357.26562 537.28125Q357.1875 537.65625 357.1875 538.09375ZM361.29688 537.4844L360.5625 537.71875Q360.5625 537.1875 360.73438 536.71875Q360.90625 536.2344 361.21875 535.8594Q361.54688 535.4844 362.01562 535.2656Q362.48438 535.0469 363.07812 535.0469Q363.59375 535.0469 363.98438 535.1875Q364.39062 535.3125 364.65625 535.59375Q364.92188 535.875 365.0625 536.3125Q365.20312 536.7344 365.20312 537.3281L365.20312 541.5L364.125 541.5L364.125 537.3281Q364.125 536.78125 363.95312 536.5Q363.78125 536.2031 363.48438 536.0781Q363.1875 535.9531 362.76562 535.9531Q362.40625 535.9531 362.125 536.0781Q361.85938 536.2031 361.67188 536.4219Q361.48438 536.625 361.39062 536.90625Q361.29688 537.1875 361.29688 537.4844ZM371.0625 540.4219L371.0625 537.15625Q371.0625 536.78125 370.90625 536.5Q370.76562 536.21875 370.46875 536.0781Q370.17188 535.9219 369.73438 535.9219Q369.3125 535.9219 369.0 536.0625Q368.70312 536.2031 368.53125 536.4375Q368.35938 536.65625 368.35938 536.9219L367.28125 536.9219Q367.28125 536.5781 367.45312 536.25Q367.625 535.90625 367.95312 535.6406Q368.28125 535.3594 368.75 535.2031Q369.21875 535.0469 369.79688 535.0469Q370.48438 535.0469 371.01562 535.28125Q371.54688 535.5156 371.84375 535.9844Q372.15625 536.4531 372.15625 537.15625L372.15625 540.1094Q372.15625 540.4375 372.20312 540.7969Q372.26562 541.1406 372.375 541.40625L372.375 541.5L371.23438 541.5Q371.15625 541.3125 371.10938 541.0Q371.0625 540.6875 371.0625 540.4219ZM371.25 537.65625L371.26562 538.4219L370.17188 538.4219Q369.70312 538.4219 369.34375 538.5Q368.98438 538.5625 368.73438 538.71875Q368.48438 538.8594 368.35938 539.0781Q368.23438 539.2969 368.23438 539.59375Q368.23438 539.8906 368.35938 540.1406Q368.5 540.375 368.76562 540.53125Q369.04688 540.6719 369.4375 540.6719Q369.9375 540.6719 370.3125 540.46875Q370.70312 540.25 370.92188 539.9531Q371.15625 539.6406 371.17188 539.34375L371.64062 539.875Q371.59375 540.1094 371.40625 540.4219Q371.23438 540.71875 370.92188 541.0Q370.625 541.2656 370.20312 541.4531Q369.79688 541.625 369.28125 541.625Q368.64062 541.625 368.15625 541.375Q367.67188 541.1094 367.40625 540.6875Q367.14062 540.2656 367.14062 539.7344Q367.14062 539.21875 367.32812 538.84375Q367.53125 538.4531 367.90625 538.1875Q368.28125 537.9219 368.8125 537.7969Q369.34375 537.65625 370.0 537.65625L371.25 537.65625ZM376.85938 540.71875Q377.25 540.71875 377.57812 540.5625Q377.90625 540.40625 378.10938 540.1406Q378.32812 539.8594 378.35938 539.5L379.39062 539.5Q379.35938 540.0625 379.0 540.5469Q378.65625 541.03125 378.09375 541.3281Q377.53125 541.625 376.85938 541.625Q376.15625 541.625 375.625 541.375Q375.09375 541.1094 374.73438 540.6719Q374.39062 540.2344 374.21875 539.6719Q374.04688 539.09375 374.04688 538.4531L374.04688 538.2031Q374.04688 537.5625 374.21875 537.0Q374.39062 536.4219 374.73438 535.9844Q375.09375 535.5469 375.625 535.2969Q376.15625 535.0469 376.85938 535.0469Q377.60938 535.0469 378.15625 535.34375Q378.71875 535.6406 379.03125 536.1719Q379.35938 536.6875 379.39062 537.34375L378.35938 537.34375Q378.32812 536.9531 378.14062 536.6406Q377.95312 536.3125 377.625 536.125Q377.29688 535.9375 376.85938 535.9375Q376.35938 535.9375 376.01562 536.1406Q375.6875 536.3281 375.48438 536.65625Q375.29688 536.9844 375.20312 537.3906Q375.125 537.7969 375.125 538.2031L375.125 538.4531Q375.125 538.875 375.20312 539.28125Q375.29688 539.6719 375.48438 540.0Q375.6875 540.3281 376.01562 540.53125Q376.35938 540.71875 376.85938 540.71875ZM381.40625 536.15625L381.40625 541.5L380.32812 541.5L380.32812 535.15625L381.375 535.15625L381.40625 536.15625ZM383.39062 535.125L383.39062 536.125Q383.25 536.1094 383.125 536.09375Q383.01562 536.0781 382.85938 536.0781Q382.48438 536.0781 382.1875 536.2031Q381.90625 536.3125 381.70312 536.53125Q381.51562 536.7344 381.39062 537.03125Q381.28125 537.3281 381.25 537.6719L380.9375 537.84375Q380.9375 537.2656 381.04688 536.7656Q381.17188 536.2656 381.40625 535.875Q381.65625 535.4844 382.01562 535.2656Q382.39062 535.0469 382.90625 535.0469Q383.03125 535.0469 383.17188 535.0781Q383.32812 535.09375 383.39062 535.125ZM386.95312 541.625Q386.29688 541.625 385.75 541.40625Q385.21875 541.1719 384.82812 540.7656Q384.45312 540.34375 384.25 539.78125Q384.04688 539.21875 384.04688 538.5469L384.04688 538.3125Q384.04688 537.53125 384.26562 536.9219Q384.5 536.3125 384.89062 535.8906Q385.28125 535.46875 385.78125 535.2656Q386.28125 535.0469 386.8125 535.0469Q387.5 535.0469 387.98438 535.28125Q388.48438 535.5156 388.79688 535.9375Q389.125 536.34375 389.26562 536.9219Q389.42188 537.4844 389.42188 538.1406L389.42188 538.6406L384.6875 538.6406L384.6875 537.75L388.34375 537.75L388.34375 537.6719Q388.3125 537.25 388.15625 536.8594Q388.01562 536.4531 387.6875 536.2031Q387.375 535.9375 386.8125 535.9375Q386.45312 535.9375 386.14062 536.09375Q385.82812 536.25 385.59375 536.5625Q385.375 536.8594 385.25 537.2969Q385.14062 537.7344 385.14062 538.3125L385.14062 538.5469Q385.14062 539.0 385.26562 539.40625Q385.39062 539.7969 385.625 540.09375Q385.875 540.3906 386.21875 540.5625Q386.57812 540.7344 387.01562 540.7344Q387.59375 540.7344 387.98438 540.5Q388.39062 540.2656 388.6875 539.875L389.34375 540.3906Q389.14062 540.7031 388.8125 540.9844Q388.5 541.2656 388.03125 541.4531Q387.57812 541.625 386.95312 541.625ZM391.40625 536.5156L391.40625 541.5L390.32812 541.5L390.32812 535.15625L391.35938 535.15625L391.40625 536.5156ZM391.15625 538.09375L390.70312 538.0781Q390.70312 537.4219 390.89062 536.875Q391.07812 536.3125 391.42188 535.90625Q391.76562 535.5 392.23438 535.28125Q392.70312 535.0469 393.28125 535.0469Q393.75 535.0469 394.125 535.1719Q394.5 535.2969 394.76562 535.5781Q395.03125 535.84375 395.17188 536.28125Q395.3125 536.71875 395.3125 537.34375L395.3125 541.5L394.21875 541.5L394.21875 537.3281Q394.21875 536.8281 394.07812 536.53125Q393.9375 536.2344 393.65625 536.09375Q393.375 535.9531 392.95312 535.9531Q392.54688 535.9531 392.21875 536.125Q391.89062 536.2969 391.65625 536.59375Q391.42188 536.8906 391.28125 537.28125Q391.15625 537.65625 391.15625 538.09375ZM403.53125 537.5156L401.375 537.5156L401.35938 536.59375L403.32812 536.59375Q403.8125 536.59375 404.17188 536.4375Q404.53125 536.2656 404.73438 535.96875Q404.9375 535.65625 404.9375 535.2344Q404.9375 534.7656 404.75 534.46875Q404.57812 534.1719 404.20312 534.03125Q403.84375 533.8906 403.28125 533.8906L401.625 533.8906L401.625 541.5L400.48438 541.5L400.48438 532.96875L403.28125 532.96875Q403.9375 532.96875 404.45312 533.1094Q404.96875 533.2344 405.32812 533.5156Q405.6875 533.78125 405.875 534.21875Q406.0625 534.6406 406.0625 535.2344Q406.0625 535.7656 405.79688 536.2031Q405.53125 536.625 405.04688 536.8906Q404.57812 537.15625 403.9375 537.2344L403.53125 537.5156ZM403.48438 541.5L400.92188 541.5L401.5625 540.5781L403.48438 540.5781Q404.01562 540.5781 404.39062 540.3906Q404.78125 540.2031 404.96875 539.8594Q405.17188 539.5156 405.17188 539.0469Q405.17188 538.5781 405.0 538.2344Q404.82812 537.8906 404.46875 537.7031Q404.10938 537.5156 403.53125 537.5156L401.92188 537.5156L401.9375 536.59375L404.14062 536.59375L404.375 536.9219Q404.98438 536.9844 405.40625 537.28125Q405.84375 537.5781 406.0625 538.03125Q406.29688 538.4844 406.29688 539.03125Q406.29688 539.8281 405.9375 540.3906Q405.59375 540.9375 404.95312 541.21875Q404.32812 541.5 403.48438 541.5Z" fill-rule="nonzero"/><path stroke="#cccccc" stroke-width="1.0" stroke-linecap="butt" d="M372.0 305.0L197.0 406.0" fill-rule="nonzero"/><path fill="#000000" d="M154.03125 423.34375Q154.03125 423.04688 153.9375 422.8125Q153.85938 422.57812 153.625 422.39062Q153.40625 422.20312 153.0 422.03125Q152.60938 421.85938 152.01562 421.6875Q151.375 421.5 150.85938 421.28125Q150.35938 421.04688 149.98438 420.75Q149.625 420.4375 149.4375 420.0625Q149.25 419.67188 149.25 419.17188Q149.25 418.67188 149.45312 418.25Q149.65625 417.82812 150.03125 417.51562Q150.42188 417.20312 150.95312 417.03125Q151.48438 416.84375 152.14062 416.84375Q153.10938 416.84375 153.78125 417.21875Q154.45312 417.57812 154.79688 418.17188Q155.15625 418.76562 155.15625 419.42188L154.03125 419.42188Q154.03125 418.95312 153.8125 418.57812Q153.60938 418.20312 153.1875 418.0Q152.78125 417.78125 152.14062 417.78125Q151.54688 417.78125 151.14062 417.96875Q150.75 418.14062 150.5625 418.45312Q150.375 418.76562 150.375 419.15625Q150.375 419.42188 150.48438 419.65625Q150.60938 419.875 150.84375 420.0625Q151.09375 420.25 151.46875 420.40625Q151.84375 420.5625 152.375 420.70312Q153.09375 420.90625 153.625 421.17188Q154.15625 421.42188 154.5 421.73438Q154.84375 422.04688 155.0 422.4375Q155.17188 422.82812 155.17188 423.32812Q155.17188 423.85938 154.95312 424.28125Q154.75 424.70312 154.35938 425.0Q153.96875 425.29688 153.42188 425.46875Q152.875 425.625 152.20312 425.625Q151.60938 425.625 151.03125 425.45312Q150.46875 425.28125 150.0 424.95312Q149.53125 424.625 149.25 424.15625Q148.96875 423.67188 148.96875 423.03125L150.09375 423.03125Q150.09375 423.46875 150.26562 423.78125Q150.4375 424.09375 150.73438 424.29688Q151.03125 424.5 151.40625 424.60938Q151.78125 424.70312 152.20312 424.70312Q152.79688 424.70312 153.20312 424.54688Q153.60938 424.375 153.8125 424.07812Q154.03125 423.76562 154.03125 423.34375ZM158.95312 425.625Q158.29688 425.625 157.75 425.40625Q157.21875 425.17188 156.82812 424.76562Q156.45312 424.34375 156.25 423.78125Q156.04688 423.21875 156.04688 422.54688L156.04688 422.3125Q156.04688 421.53125 156.26562 420.92188Q156.5 420.3125 156.89062 419.89062Q157.28125 419.46875 157.78125 419.26562Q158.28125 419.04688 158.8125 419.04688Q159.5 419.04688 159.98438 419.28125Q160.48438 419.51562 160.79688 419.9375Q161.125 420.34375 161.26562 420.92188Q161.42188 421.48438 161.42188 422.14062L161.42188 422.64062L156.6875 422.64062L156.6875 421.75L160.34375 421.75L160.34375 421.67188Q160.3125 421.25 160.15625 420.85938Q160.01562 420.45312 159.6875 420.20312Q159.375 419.9375 158.8125 419.9375Q158.45312 419.9375 158.14062 420.09375Q157.82812 420.25 157.59375 420.5625Q157.375 420.85938 157.25 421.29688Q157.14062 421.73438 157.14062 422.3125L157.14062 422.54688Q157.14062 423.0 157.26562 423.40625Q157.39062 423.79688 157.625 424.09375Q157.875 424.39062 158.21875 424.5625Q158.57812 424.73438 159.01562 424.73438Q159.59375 424.73438 159.98438 424.5Q160.39062 424.26562 160.6875 423.875L161.34375 424.39062Q161.14062 424.70312 160.8125 424.98438Q160.5 425.26562 160.03125 425.45312Q159.57812 425.625 158.95312 425.625ZM163.5 416.5L163.5 425.5L162.42188 425.5L162.42188 416.5L163.5 416.5ZM166.5 419.15625L166.5 425.5L165.42188 425.5L165.42188 419.15625L166.5 419.15625ZM165.32812 417.48438Q165.32812 417.21875 165.48438 417.03125Q165.65625 416.84375 165.96875 416.84375Q166.28125 416.84375 166.4375 417.03125Q166.60938 417.21875 166.60938 417.48438Q166.60938 417.73438 166.4375 417.92188Q166.28125 418.09375 165.96875 418.09375Q165.65625 418.09375 165.48438 417.92188Q165.32812 417.73438 165.32812 417.48438ZM169.40625 420.51562L169.40625 425.5L168.32812 425.5L168.32812 419.15625L169.35938 419.15625L169.40625 420.51562ZM169.15625 422.09375L168.70312 422.07812Q168.70312 421.42188 168.89062 420.875Q169.07812 420.3125 169.42188 419.90625Q169.76562 419.5 170.23438 419.28125Q170.70312 419.04688 171.28125 419.04688Q171.75 419.04688 172.125 419.17188Q172.5 419.29688 172.76562 419.57812Q173.03125 419.84375 173.17188 420.28125Q173.3125 420.71875 173.3125 421.34375L173.3125 425.5L172.21875 425.5L172.21875 421.32812Q172.21875 420.82812 172.07812 420.53125Q171.9375 420.23438 171.65625 420.09375Q171.375 419.95312 170.95312 419.95312Q170.54688 419.95312 170.21875 420.125Q169.89062 420.29688 169.65625 420.59375Q169.42188 420.89062 169.28125 421.28125Q169.15625 421.65625 169.15625 422.09375ZM177.95312 425.625Q177.29688 425.625 176.75 425.40625Q176.21875 425.17188 175.82812 424.76562Q175.45312 424.34375 175.25 423.78125Q175.04688 423.21875 175.04688 422.54688L175.04688 422.3125Q175.04688 421.53125 175.26562 420.92188Q175.5 420.3125 175.89062 419.89062Q176.28125 419.46875 176.78125 419.26562Q177.28125 419.04688 177.8125 419.04688Q178.5 419.04688 178.98438 419.28125Q179.48438 419.51562 179.79688 419.9375Q180.125 420.34375 180.26562 420.92188Q180.42188 421.48438 180.42188 422.14062L180.42188 422.64062L175.6875 422.64062L175.6875 421.75L179.34375 421.75L179.34375 421.67188Q179.3125 421.25 179.15625 420.85938Q179.01562 420.45312 178.6875 420.20312Q178.375 419.9375 177.8125 419.9375Q177.45312 419.9375 177.14062 420.09375Q176.82812 420.25 176.59375 420.5625Q176.375 420.85938 176.25 421.29688Q176.14062 421.73438 176.14062 422.3125L176.14062 422.54688Q176.14062 423.0 176.26562 423.40625Q176.39062 423.79688 176.625 424.09375Q176.875 424.39062 177.21875 424.5625Q177.57812 424.73438 178.01562 424.73438Q178.59375 424.73438 178.98438 424.5Q179.39062 424.26562 179.6875 423.875L180.34375 424.39062Q180.14062 424.70312 179.8125 424.98438Q179.5 425.26562 179.03125 425.45312Q178.57812 425.625 177.95312 425.625ZM182.40625 420.51562L182.40625 425.5L181.32812 425.5L181.32812 419.15625L182.35938 419.15625L182.40625 420.51562ZM182.15625 422.09375L181.70312 422.07812Q181.70312 421.42188 181.89062 420.875Q182.07812 420.3125 182.42188 419.90625Q182.76562 419.5 183.23438 419.28125Q183.70312 419.04688 184.28125 419.04688Q184.75 419.04688 185.125 419.17188Q185.5 419.29688 185.76562 419.57812Q186.03125 419.84375 186.17188 420.28125Q186.3125 420.71875 186.3125 421.34375L186.3125 425.5L185.21875 425.5L185.21875 421.32812Q185.21875 420.82812 185.07812 420.53125Q184.9375 420.23438 184.65625 420.09375Q184.375 419.95312 183.95312 419.95312Q183.54688 419.95312 183.21875 420.125Q182.89062 420.29688 182.65625 420.59375Q182.42188 420.89062 182.28125 421.28125Q182.15625 421.65625 182.15625 422.09375ZM190.95312 425.625Q190.29688 425.625 189.75 425.40625Q189.21875 425.17188 188.82812 424.76562Q188.45312 424.34375 188.25 423.78125Q188.04688 423.21875 188.04688 422.54688L188.04688 422.3125Q188.04688 421.53125 188.26562 420.92188Q188.5 420.3125 188.89062 419.89062Q189.28125 419.46875 189.78125 419.26562Q190.28125 419.04688 190.8125 419.04688Q191.5 419.04688 191.98438 419.28125Q192.48438 419.51562 192.79688 419.9375Q193.125 420.34375 193.26562 420.92188Q193.42188 421.48438 193.42188 422.14062L193.42188 422.64062L188.6875 422.64062L188.6875 421.75L192.34375 421.75L192.34375 421.67188Q192.3125 421.25 192.15625 420.85938Q192.01562 420.45312 191.6875 420.20312Q191.375 419.9375 190.8125 419.9375Q190.45312 419.9375 190.14062 420.09375Q189.82812 420.25 189.59375 420.5625Q189.375 420.85938 189.25 421.29688Q189.14062 421.73438 189.14062 422.3125L189.14062 422.54688Q189.14062 423.0 189.26562 423.40625Q189.39062 423.79688 189.625 424.09375Q189.875 424.39062 190.21875 424.5625Q190.57812 424.73438 191.01562 424.73438Q191.59375 424.73438 191.98438 424.5Q192.39062 424.26562 192.6875 423.875L193.34375 424.39062Q193.14062 424.70312 192.8125 424.98438Q192.5 425.26562 192.03125 425.45312Q191.57812 425.625 190.95312 425.625Z" fill-rule="nonzero"/><path stroke="#cccccc" stroke-width="1.0" stroke-linecap="butt" d="M372.0 305.0L197.0 204.0" fill-rule="nonzero"/><path fill="#000000" d="M153.03125 191.34375Q153.03125 191.04688 152.9375 190.8125Q152.85938 190.57812 152.625 190.39062Q152.40625 190.20312 152.0 190.03125Q151.60938 189.85938 151.01562 189.6875Q150.375 189.5 149.85938 189.28125Q149.35938 189.04688 148.98438 188.75Q148.625 188.4375 148.4375 188.0625Q148.25 187.67188 148.25 187.17188Q148.25 186.67188 148.45312 186.25Q148.65625 185.82812 149.03125 185.51562Q149.42188 185.20312 149.95312 185.03125Q150.48438 184.84375 151.14062 184.84375Q152.10938 184.84375 152.78125 185.21875Q153.45312 185.57812 153.79688 186.17188Q154.15625 186.76562 154.15625 187.42188L153.03125 187.42188Q153.03125 186.95312 152.8125 186.57812Q152.60938 186.20312 152.1875 186.0Q151.78125 185.78125 151.14062 185.78125Q150.54688 185.78125 150.14062 185.96875Q149.75 186.14062 149.5625 186.45312Q149.375 186.76562 149.375 187.15625Q149.375 187.42188 149.48438 187.65625Q149.60938 187.875 149.84375 188.0625Q150.09375 188.25 150.46875 188.40625Q150.84375 188.5625 151.375 188.70312Q152.09375 188.90625 152.625 189.17188Q153.15625 189.42188 153.5 189.73438Q153.84375 190.04688 154.0 190.4375Q154.17188 190.82812 154.17188 191.32812Q154.17188 191.85938 153.95312 192.28125Q153.75 192.70312 153.35938 193.0Q152.96875 193.29688 152.42188 193.46875Q151.875 193.625 151.20312 193.625Q150.60938 193.625 150.03125 193.45312Q149.46875 193.28125 149.0 192.95312Q148.53125 192.625 148.25 192.15625Q147.96875 191.67188 147.96875 191.03125L149.09375 191.03125Q149.09375 191.46875 149.26562 191.78125Q149.4375 192.09375 149.73438 192.29688Q150.03125 192.5 150.40625 192.60938Q150.78125 192.70312 151.20312 192.70312Q151.79688 192.70312 152.20312 192.54688Q152.60938 192.375 152.8125 192.07812Q153.03125 191.76562 153.03125 191.34375ZM155.04688 190.40625L155.04688 190.26562Q155.04688 189.57812 155.23438 189.0Q155.4375 188.40625 155.8125 187.96875Q156.1875 187.53125 156.71875 187.29688Q157.25 187.04688 157.92188 187.04688Q158.57812 187.04688 159.10938 187.29688Q159.65625 187.53125 160.03125 187.96875Q160.40625 188.40625 160.60938 189.0Q160.8125 189.57812 160.8125 190.26562L160.8125 190.40625Q160.8125 191.07812 160.60938 191.67188Q160.40625 192.25 160.03125 192.6875Q159.65625 193.125 159.125 193.375Q158.59375 193.625 157.92188 193.625Q157.26562 193.625 156.71875 193.375Q156.1875 193.125 155.8125 192.6875Q155.4375 192.25 155.23438 191.67188Q155.04688 191.07812 155.04688 190.40625ZM156.125 190.26562L156.125 190.40625Q156.125 190.875 156.23438 191.29688Q156.34375 191.71875 156.5625 192.04688Q156.79688 192.35938 157.14062 192.54688Q157.48438 192.71875 157.92188 192.71875Q158.375 192.71875 158.70312 192.54688Q159.04688 192.35938 159.26562 192.04688Q159.5 191.71875 159.60938 191.29688Q159.71875 190.875 159.71875 190.40625L159.71875 190.26562Q159.71875 189.79688 159.60938 189.375Q159.5 188.95312 159.26562 188.64062Q159.04688 188.3125 158.70312 188.125Q158.375 187.9375 157.92188 187.9375Q157.46875 187.9375 157.125 188.125Q156.79688 188.3125 156.5625 188.64062Q156.34375 188.95312 156.23438 189.375Q156.125 189.79688 156.125 190.26562ZM163.40625 188.51562L163.40625 193.5L162.32812 193.5L162.32812 187.15625L163.35938 187.15625L163.40625 188.51562ZM163.15625 190.09375L162.70312 190.07812Q162.70312 189.42188 162.89062 188.875Q163.07812 188.3125 163.42188 187.90625Q163.76562 187.5 164.23438 187.28125Q164.70312 187.04688 165.28125 187.04688Q165.75 187.04688 166.125 187.17188Q166.5 187.29688 166.76562 187.57812Q167.03125 187.84375 167.17188 188.28125Q167.3125 188.71875 167.3125 189.34375L167.3125 193.5L166.21875 193.5L166.21875 189.32812Q166.21875 188.82812 166.07812 188.53125Q165.9375 188.23438 165.65625 188.09375Q165.375 187.95312 164.95312 187.95312Q164.54688 187.95312 164.21875 188.125Q163.89062 188.29688 163.65625 188.59375Q163.42188 188.89062 163.28125 189.28125Q163.15625 189.65625 163.15625 190.09375ZM173.01562 191.8125Q173.01562 191.57812 172.90625 191.375Q172.8125 191.17188 172.5 191.01562Q172.1875 190.84375 171.5625 190.71875Q171.03125 190.60938 170.60938 190.46875Q170.1875 190.3125 169.89062 190.09375Q169.59375 189.875 169.4375 189.57812Q169.28125 189.28125 169.28125 188.89062Q169.28125 188.51562 169.4375 188.1875Q169.60938 187.84375 169.90625 187.59375Q170.21875 187.32812 170.65625 187.1875Q171.09375 187.04688 171.625 187.04688Q172.39062 187.04688 172.92188 187.3125Q173.46875 187.57812 173.75 188.03125Q174.03125 188.48438 174.03125 189.01562L172.95312 189.01562Q172.95312 188.76562 172.79688 188.51562Q172.64062 188.26562 172.34375 188.10938Q172.04688 187.9375 171.625 187.9375Q171.17188 187.9375 170.89062 188.07812Q170.60938 188.20312 170.48438 188.42188Q170.35938 188.625 170.35938 188.85938Q170.35938 189.04688 170.42188 189.1875Q170.48438 189.3125 170.64062 189.4375Q170.79688 189.54688 171.07812 189.65625Q171.375 189.75 171.82812 189.84375Q172.60938 190.01562 173.10938 190.26562Q173.60938 190.51562 173.85938 190.875Q174.10938 191.21875 174.10938 191.73438Q174.10938 192.15625 173.92188 192.5Q173.75 192.84375 173.42188 193.09375Q173.10938 193.34375 172.65625 193.48438Q172.20312 193.625 171.65625 193.625Q170.8125 193.625 170.23438 193.32812Q169.65625 193.01562 169.35938 192.54688Q169.0625 192.0625 169.0625 191.54688L170.14062 191.54688Q170.17188 191.98438 170.40625 192.25Q170.64062 192.51562 170.96875 192.625Q171.3125 192.71875 171.65625 192.71875Q172.09375 192.71875 172.39062 192.60938Q172.70312 192.48438 172.85938 192.28125Q173.01562 192.07812 173.01562 191.8125ZM177.98438 187.15625L177.98438 187.98438L174.54688 187.98438L174.54688 187.15625L177.98438 187.15625ZM175.71875 185.625L176.79688 185.625L176.79688 191.92188Q176.79688 192.25 176.89062 192.42188Q177.0 192.57812 177.15625 192.64062Q177.3125 192.6875 177.5 192.6875Q177.625 192.6875 177.76562 192.65625Q177.92188 192.625 178.0 192.60938L178.01562 193.5Q177.875 193.54688 177.67188 193.57812Q177.46875 193.625 177.17188 193.625Q176.78125 193.625 176.4375 193.46875Q176.10938 193.29688 175.90625 192.9375Q175.71875 192.5625 175.71875 191.92188L175.71875 185.625ZM180.5 187.15625L180.5 193.5L179.42188 193.5L179.42188 187.15625L180.5 187.15625ZM179.32812 185.48438Q179.32812 185.21875 179.48438 185.03125Q179.65625 184.84375 179.96875 184.84375Q180.28125 184.84375 180.4375 185.03125Q180.60938 185.21875 180.60938 185.48438Q180.60938 185.73438 180.4375 185.92188Q180.28125 186.09375 179.96875 186.09375Q179.65625 186.09375 179.48438 185.92188Q179.32812 185.73438 179.32812 185.48438ZM186.4375 187.15625L187.42188 187.15625L187.42188 193.35938Q187.42188 194.20312 187.07812 194.79688Q186.73438 195.39062 186.125 195.6875Q185.53125 196.0 184.73438 196.0Q184.40625 196.0 183.95312 195.89062Q183.51562 195.79688 183.09375 195.54688Q182.67188 195.3125 182.39062 194.90625L182.95312 194.25Q183.35938 194.73438 183.78125 194.92188Q184.21875 195.10938 184.65625 195.10938Q185.17188 195.10938 185.54688 194.90625Q185.92188 194.71875 186.125 194.34375Q186.32812 193.96875 186.32812 193.42188L186.32812 188.54688L186.4375 187.15625ZM182.0625 190.40625L182.0625 190.28125Q182.0625 189.54688 182.23438 188.95312Q182.42188 188.35938 182.73438 187.9375Q183.0625 187.5 183.51562 187.28125Q183.98438 187.04688 184.57812 187.04688Q185.17188 187.04688 185.60938 187.25Q186.0625 187.45312 186.375 187.85938Q186.6875 188.25 186.875 188.8125Q187.0625 189.35938 187.125 190.0625L187.125 190.60938Q187.0625 191.29688 186.875 191.85938Q186.6875 192.42188 186.375 192.8125Q186.0625 193.20312 185.60938 193.42188Q185.15625 193.625 184.5625 193.625Q183.98438 193.625 183.53125 193.39062Q183.07812 193.14062 182.75 192.70312Q182.42188 192.26562 182.23438 191.6875Q182.0625 191.09375 182.0625 190.40625ZM183.15625 190.28125L183.15625 190.40625Q183.15625 190.875 183.25 191.29688Q183.34375 191.70312 183.54688 192.03125Q183.75 192.34375 184.0625 192.53125Q184.39062 192.70312 184.82812 192.70312Q185.35938 192.70312 185.70312 192.46875Q186.0625 192.23438 186.26562 191.85938Q186.48438 191.48438 186.59375 191.04688L186.59375 189.64062Q186.53125 189.3125 186.39062 189.01562Q186.26562 188.71875 186.0625 188.48438Q185.85938 188.23438 185.54688 188.09375Q185.25 187.95312 184.82812 187.95312Q184.39062 187.95312 184.0625 188.14062Q183.75 188.32812 183.54688 188.65625Q183.34375 188.96875 183.25 189.39062Q183.15625 189.79688 183.15625 190.28125ZM191.95312 193.625Q191.29688 193.625 190.75 193.40625Q190.21875 193.17188 189.82812 192.76562Q189.45312 192.34375 189.25 191.78125Q189.04688 191.21875 189.04688 190.54688L189.04688 190.3125Q189.04688 189.53125 189.26562 188.92188Q189.5 188.3125 189.89062 187.89062Q190.28125 187.46875 190.78125 187.26562Q191.28125 187.04688 191.8125 187.04688Q192.5 187.04688 192.98438 187.28125Q193.48438 187.51562 193.79688 187.9375Q194.125 188.34375 194.26562 188.92188Q194.42188 189.48438 194.42188 190.14062L194.42188 190.64062L189.6875 190.64062L189.6875 189.75L193.34375 189.75L193.34375 189.67188Q193.3125 189.25 193.15625 188.85938Q193.01562 188.45312 192.6875 188.20312Q192.375 187.9375 191.8125 187.9375Q191.45312 187.9375 191.14062 188.09375Q190.82812 188.25 190.59375 188.5625Q190.375 188.85938 190.25 189.29688Q190.14062 189.73438 190.14062 190.3125L190.14062 190.54688Q190.14062 191.0 190.26562 191.40625Q190.39062 191.79688 190.625 192.09375Q190.875 192.39062 191.21875 192.5625Q191.57812 192.73438 192.01562 192.73438Q192.59375 192.73438 192.98438 192.5Q193.39062 192.26562 193.6875 191.875L194.34375 192.39062Q194.14062 192.70312 193.8125 192.98438Q193.5 193.26562 193.03125 193.45312Q192.57812 193.625 191.95312 193.625Z" fill-rule="nonzero"/><path stroke="#cccccc" stroke-width="1.0" stroke-linecap="butt" d="M372.0 305.0L372.0 103.0" fill-rule="nonzero"/><path stroke="#ff0000" stroke-width="2.0" stroke-linecap="butt" stroke-opacity="0.7019608" stroke-dasharray="8.0,6.0,2.0,6.0" d="M372.0 250.0L392.0 294.0L387.0 314.0L372.0 318.0L361.0 311.0L258.0 239.0Z" fill-rule="nonzero"/><path fill="#ff0000" fill-opacity="0.7019608" d="M368.81802 246.81802L372.0 248.875L375.18198 246.81802L373.125 250.0L375.18198 253.18198L372.0 251.125L368.81802 253.18198L370.875 250.0Z" fill-rule="nonzero"/><path fill="#ff0000" fill-opacity="0.7019608" d="M388.81802 290.81802L392.0 292.875L395.18198 290.81802L393.125 294.0L395.18198 297.18198L392.0 295.125L388.81802 297.18198L390.875 294.0Z" fill-rule="nonzero"/><path fill="#ff0000" fill-opacity="0.7019608" d="M383.81802 310.81802L387.0 312.875L390.18198 310.81802L388.125 314.0L390.18198 317.18198L387.0 315.125L383.81802 317.18198L385.875 314.0Z" fill-rule="nonzero"/><path fill="#ff0000" fill-opacity="0.7019608" d="M368.81802 314.81802L372.0 316.875L375.18198 314.81802L373.125 318.0L375.18198 321.18198L372.0 319.125L368.81802 321.18198L370.875 318.0Z" fill-rule="nonzero"/><path fill="#ff0000" fill-opacity="0.7019608" d="M357.81802 307.81802L361.0 309.875L364.18198 307.81802L362.125 311.0L364.18198 314.18198L361.0 312.125L357.81802 314.18198L359.875 311.0Z" fill-rule="nonzero"/><path fill="#ff0000" fill-opacity="0.7019608" d="M254.81802 235.81802L258.0 237.875L261.18198 235.81802L259.125 239.0L261.18198 242.18198L258.0 240.125L254.81802 242.18198L256.875 239.0Z" fill-rule="nonzero"/><path fill="#757575" d="M29.834375 47.35L29.834375 33.0375L32.69375 33.0375L36.06875 43.1625Q36.5375 44.584373 36.75625 45.2875Q37.00625 44.50625 37.521873 42.990623L40.94375 33.0375L43.490623 33.0375L43.490623 47.35L41.678123 47.35L41.678123 35.365623L37.50625 47.35L35.803123 47.35L31.6625 35.1625L31.6625 47.35L29.834375 47.35ZM53.44375 46.06875Q52.459373 46.896873 51.553123 47.240623Q50.646873 47.584373 49.615623 47.584373Q47.9125 47.584373 46.990623 46.75625Q46.06875 45.9125 46.06875 44.615623Q46.06875 43.85 46.4125 43.225Q46.771873 42.6 47.334373 42.225Q47.896873 41.834373 48.6 41.63125Q49.115623 41.50625 50.1625 41.365623Q52.2875 41.115623 53.2875 40.771873Q53.303123 40.4125 53.303123 40.303123Q53.303123 39.240623 52.803123 38.7875Q52.13125 38.19375 50.803123 38.19375Q49.553123 38.19375 48.959373 38.63125Q48.38125 39.06875 48.1 40.178123L46.38125 39.94375Q46.615623 38.834373 47.146873 38.1625Q47.678123 37.475 48.69375 37.115623Q49.709373 36.740623 51.053123 36.740623Q52.38125 36.740623 53.209373 37.053123Q54.0375 37.365623 54.428123 37.85Q54.81875 38.31875 54.975 39.0375Q55.06875 39.490623 55.06875 40.6625L55.06875 43.00625Q55.06875 45.459373 55.178123 46.115623Q55.2875 46.75625 55.63125 47.35L53.7875 47.35Q53.521873 46.803123 53.44375 46.06875ZM53.2875 42.146873Q52.334373 42.5375 50.4125 42.803123Q49.334373 42.959373 48.88125 43.1625Q48.44375 43.35 48.19375 43.725Q47.94375 44.1 47.94375 44.56875Q47.94375 45.271873 48.475 45.740623Q49.00625 46.209373 50.0375 46.209373Q51.053123 46.209373 51.834373 45.771873Q52.63125 45.31875 53.00625 44.553123Q53.2875 43.94375 53.2875 42.7875L53.2875 42.146873ZM57.35 48.209373L59.053123 48.459373Q59.1625 49.25625 59.646873 49.615623Q60.303123 50.1 61.44375 50.1Q62.6625 50.1 63.31875 49.615623Q63.990623 49.13125 64.225 48.25625Q64.36562 47.709373 64.35 45.990623Q63.19375 47.35 61.475 47.35Q59.334373 47.35 58.1625 45.803123Q56.990623 44.25625 56.990623 42.1Q56.990623 40.615623 57.521873 39.365623Q58.06875 38.115623 59.084373 37.428123Q60.115623 36.740623 61.490623 36.740623Q63.31875 36.740623 64.52187 38.225L64.52187 36.975L66.13125 36.975L66.13125 45.94375Q66.13125 48.365623 65.63125 49.365623Q65.14687 50.38125 64.06875 50.959373Q63.00625 51.553123 61.44375 51.553123Q59.6 51.553123 58.44375 50.725Q57.303123 49.896873 57.35 48.209373ZM58.803123 41.975Q58.803123 44.021873 59.615623 44.959373Q60.428123 45.896873 61.646873 45.896873Q62.85 45.896873 63.6625 44.959373Q64.49062 44.021873 64.49062 42.0375Q64.49062 40.13125 63.646873 39.1625Q62.803123 38.19375 61.615623 38.19375Q60.44375 38.19375 59.615623 39.146873Q58.803123 40.1 58.803123 41.975ZM68.67812 35.053123L68.67812 33.0375L70.44375 33.0375L70.44375 35.053123L68.67812 35.053123ZM68.67812 47.35L68.67812 36.975L70.44375 36.975L70.44375 47.35L68.67812 47.35ZM79.44375 43.553123L81.1625 43.771873Q80.88125 45.56875 79.70937 46.584373Q78.55312 47.584373 76.85 47.584373Q74.725 47.584373 73.42812 46.19375Q72.13125 44.803123 72.13125 42.209373Q72.13125 40.521873 72.67812 39.271873Q73.24062 38.00625 74.38125 37.38125Q75.52187 36.740623 76.86562 36.740623Q78.55312 36.740623 79.61562 37.6Q80.69375 38.459373 81.00625 40.021873L79.2875 40.2875Q79.05312 39.240623 78.42812 38.725Q77.80312 38.19375 76.92812 38.19375Q75.6 38.19375 74.77187 39.146873Q73.94375 40.1 73.94375 42.146873Q73.94375 44.240623 74.74062 45.19375Q75.5375 46.13125 76.83437 46.13125Q77.86562 46.13125 78.55312 45.50625Q79.25625 44.865623 79.44375 43.553123ZM95.6 41.740623L95.6 40.053123L101.6625 40.0375L101.6625 45.35Q100.25625 46.475 98.77187 47.0375Q97.2875 47.6 95.725 47.6Q93.61562 47.6 91.89687 46.69375Q90.17812 45.7875 89.2875 44.084373Q88.4125 42.365623 88.4125 40.25625Q88.4125 38.1625 89.2875 36.365623Q90.1625 34.553123 91.80312 33.678123Q93.44375 32.7875 95.58437 32.7875Q97.13125 32.7875 98.38125 33.2875Q99.64687 33.7875 100.35 34.69375Q101.06875 35.584373 101.44375 37.0375L99.74062 37.50625Q99.4125 36.4125 98.92812 35.7875Q98.45937 35.1625 97.56875 34.7875Q96.67812 34.4125 95.6 34.4125Q94.2875 34.4125 93.33437 34.803123Q92.39687 35.19375 91.81875 35.85Q91.24062 36.490623 90.9125 37.25625Q90.36562 38.584373 90.36562 40.146873Q90.36562 42.053123 91.02187 43.35Q91.69375 44.63125 92.94375 45.25625Q94.20937 45.88125 95.61562 45.88125Q96.85 45.88125 98.02187 45.4125Q99.19375 44.94375 99.80312 44.396873L99.80312 41.740623L95.6 41.740623ZM111.45937 47.35L111.45937 45.81875Q110.25625 47.584373 108.17812 47.584373Q107.25625 47.584373 106.45937 47.240623Q105.6625 46.88125 105.27187 46.35Q104.89687 45.81875 104.74062 45.0375Q104.63125 44.521873 104.63125 43.396873L104.63125 36.975L106.38125 36.975L106.38125 42.725Q106.38125 44.1 106.49062 44.584373Q106.6625 45.271873 107.19375 45.678123Q107.74062 46.06875 108.52187 46.06875Q109.31875 46.06875 110.00625 45.6625Q110.70937 45.25625 110.99062 44.56875Q111.2875 43.865623 111.2875 42.5375L111.2875 36.975L113.0375 36.975L113.0375 47.35L111.45937 47.35ZM114.6625 47.35L114.6625 36.975L116.24062 36.975L116.24062 38.428123Q116.725 37.678123 117.5375 37.209373Q118.35 36.740623 119.38125 36.740623Q120.5375 36.740623 121.27187 37.225Q122.00625 37.69375 122.31875 38.553123Q123.55312 36.740623 125.52187 36.740623Q127.06875 36.740623 127.89687 37.6Q128.725 38.459373 128.725 40.225L128.725 47.35L126.975 47.35L126.975 40.81875Q126.975 39.75625 126.80312 39.303123Q126.63125 38.834373 126.17812 38.553123Q125.74062 38.271873 125.13125 38.271873Q124.0375 38.271873 123.30312 39.00625Q122.58437 39.725 122.58437 41.31875L122.58437 47.35L120.83437 47.35L120.83437 40.615623Q120.83437 39.44375 120.39687 38.865623Q119.975 38.271873 118.99062 38.271873Q118.25625 38.271873 117.61562 38.6625Q116.99062 39.053123 116.70937 39.803123Q116.42812 40.553123 116.42812 41.975L116.42812 47.35L114.6625 47.35ZM136.89688 47.35L136.89688 33.0375L141.81876 33.0375Q143.49063 33.0375 144.38126 33.240623Q145.6 33.521873 146.475 34.25625Q147.6 35.225 148.1625 36.709373Q148.725 38.19375 148.725 40.115623Q148.725 41.740623 148.35 43.00625Q147.975 44.25625 147.36563 45.084373Q146.77188 45.9125 146.06876 46.396873Q145.36563 46.865623 144.36563 47.115623Q143.36563 47.35 142.05313 47.35L136.89688 47.35ZM138.7875 45.6625L141.85 45.6625Q143.25626 45.6625 144.05313 45.396873Q144.86563 45.13125 145.35 44.646873Q146.02188 43.975 146.39688 42.85Q146.77188 41.709373 146.77188 40.084373Q146.77188 37.834373 146.0375 36.63125Q145.30313 35.428123 144.24063 35.021873Q143.49063 34.725 141.80313 34.725L138.7875 34.725L138.7875 45.6625ZM150.64688 47.35L150.64688 36.975L152.225 36.975L152.225 38.553123Q152.83438 37.44375 153.35 37.1Q153.86563 36.740623 154.475 36.740623Q155.36563 36.740623 156.2875 37.303123L155.67813 38.94375Q155.0375 38.553123 154.39688 38.553123Q153.81876 38.553123 153.35 38.9125Q152.89688 39.25625 152.69376 39.865623Q152.4125 40.803123 152.4125 41.9125L152.4125 47.35L150.64688 47.35ZM157.02188 42.1625Q157.02188 39.2875 158.61563 37.896873Q159.95938 36.740623 161.88126 36.740623Q164.02188 36.740623 165.36563 38.146873Q166.725 39.553123 166.725 42.021873Q166.725 44.021873 166.13126 45.178123Q165.5375 46.31875 164.38126 46.959373Q163.24063 47.584373 161.88126 47.584373Q159.69376 47.584373 158.35 46.19375Q157.02188 44.7875 157.02188 42.1625ZM158.81876 42.1625Q158.81876 44.1625 159.67813 45.146873Q160.55313 46.13125 161.88126 46.13125Q163.19376 46.13125 164.05313 45.146873Q164.92813 44.146873 164.92813 42.1Q164.92813 40.178123 164.05313 39.19375Q163.17813 38.19375 161.88126 38.19375Q160.55313 38.19375 159.67813 39.19375Q158.81876 40.178123 158.81876 42.1625ZM168.6625 51.31875L168.6625 36.975L170.27188 36.975L170.27188 38.31875Q170.83438 37.5375 171.5375 37.146873Q172.25626 36.740623 173.27188 36.740623Q174.6 36.740623 175.61563 37.428123Q176.63126 38.115623 177.14688 39.365623Q177.67813 40.6 177.67813 42.084373Q177.67813 43.678123 177.1 44.959373Q176.5375 46.225 175.44376 46.9125Q174.35 47.584373 173.14688 47.584373Q172.27188 47.584373 171.56876 47.209373Q170.88126 46.834373 170.42813 46.271873L170.42813 51.31875L168.6625 51.31875ZM170.25626 42.225Q170.25626 44.225 171.06876 45.178123Q171.88126 46.13125 173.0375 46.13125Q174.20938 46.13125 175.0375 45.146873Q175.88126 44.1625 175.88126 42.06875Q175.88126 40.1 175.05313 39.115623Q174.24063 38.115623 173.11563 38.115623Q171.99063 38.115623 171.11563 39.178123Q170.25626 40.225 170.25626 42.225ZM178.95938 44.25625L180.70938 43.975Q180.85 45.021873 181.52188 45.584373Q182.19376 46.13125 183.39688 46.13125Q184.6 46.13125 185.17813 45.646873Q185.77188 45.146873 185.77188 44.490623Q185.77188 43.896873 185.25626 43.553123Q184.89688 43.31875 183.45938 42.959373Q181.52188 42.459373 180.77188 42.115623Q180.0375 41.75625 179.64688 41.13125Q179.25626 40.490623 179.25626 39.725Q179.25626 39.0375 179.56876 38.44375Q179.89688 37.85 180.44376 37.459373Q180.85 37.1625 181.55313 36.959373Q182.27188 36.740623 183.08438 36.740623Q184.30313 36.740623 185.225 37.1Q186.14688 37.44375 186.58438 38.053123Q187.02188 38.646873 187.19376 39.646873L185.475 39.88125Q185.35 39.084373 184.7875 38.646873Q184.225 38.19375 183.20938 38.19375Q181.99063 38.19375 181.475 38.6Q180.95938 38.990623 180.95938 39.521873Q180.95938 39.865623 181.17813 40.146873Q181.38126 40.428123 181.85 40.615623Q182.11563 40.709373 183.39688 41.053123Q185.27188 41.553123 186.00626 41.88125Q186.74063 42.19375 187.1625 42.803123Q187.58438 43.396873 187.58438 44.303123Q187.58438 45.178123 187.06876 45.959373Q186.55313 46.740623 185.58438 47.1625Q184.61563 47.584373 183.39688 47.584373Q181.38126 47.584373 180.31876 46.740623Q179.25626 45.896873 178.95938 44.25625Z" fill-rule="nonzero"/></svg>