<svg version="1.1" viewBox="0.0 0.0 744.0 567.0" fill="none" stroke="none" stroke-linecap="square" stroke-miterlimit="10" width="744" height="567" xmlns:xlink="http://www.w3.org/1999/xlink" xmlns="http://www.w3.org/2000/svg"><path fill="#ffffff" d="M0 0L744.0 0L744.0 567.0L0 567.0L0 0Z" fill-rule="nonzero"/><path fill="#ffffff" d="M28.35 71.25L715.64996 71.25L715.64996 538.65L28.35 538.65L28.35 71.25Z" fill-rule="nonzero"/><path stroke="#cccccc" stroke-width="1.0" stroke-linecap="butt" d="M372.0 305.0C372.0 305.0 372.0 305.0 372.0 305.0C372.0 305.0 372.0 305.0 372.0 305.0C372.0 305.0 372.0 305.0 372.0 305.0C372.0 305.0 372.0 305.0 372.0 305.0" fill-rule="nonzero"/><path fill="#000000" d="M360.0625 297.04688L360.0625 298.35938Q360.0625 299.40625 359.875 300.125Q359.6875 300.84375 359.32812 301.28125Q358.98438 301.71875 358.48438 301.92188Q358.0 302.125 357.375 302.125Q356.89062 302.125 356.46875 302.0Q356.04688 301.875 355.71875 301.60938Q355.39062 301.32812 355.15625 300.89062Q354.92188 300.45312 354.79688 299.82812Q354.67188 299.1875 354.67188 298.35938L354.67188 297.04688Q354.67188 296.0 354.85938 295.29688Q355.0625 294.59375 355.40625 294.15625Q355.76562 293.71875 356.25 293.53125Q356.75 293.34375 357.35938 293.34375Q357.85938 293.34375 358.28125 293.46875Q358.70312 293.59375 359.03125 293.85938Q359.35938 294.10938 359.57812 294.54688Q359.8125 294.96875 359.9375 295.59375Q360.0625 296.21875 360.0625 297.04688ZM358.96875 298.53125L358.96875 296.875Q358.96875 296.29688 358.90625 295.85938Q358.84375 295.42188 358.70312 295.10938Q358.57812 294.79688 358.375 294.60938Q358.1875 294.42188 357.9375 294.32812Q357.6875 294.23438 357.35938 294.23438Q356.98438 294.23438 356.67188 294.375Q356.375 294.51562 356.17188 294.82812Q355.96875 295.14062 355.85938 295.65625Q355.76562 296.15625 355.76562 296.875L355.76562 298.53125Q355.76562 299.10938 355.82812 299.54688Q355.90625 299.98438 356.03125 300.3125Q356.17188 300.625 356.35938 300.82812Q356.5625 301.03125 356.8125 301.125Q357.0625 301.21875 357.375 301.21875Q357.78125 301.21875 358.07812 301.07812Q358.375 300.92188 358.57812 300.59375Q358.78125 300.26562 358.875 299.76562Q358.96875 299.25 358.96875 298.53125ZM362.8125 300.70312L362.8125 301.57812Q362.8125 302.125 362.53125 302.71875Q362.26562 303.3125 361.78125 303.70312L361.17188 303.28125Q361.35938 303.01562 361.48438 302.75Q361.60938 302.48438 361.67188 302.20312Q361.75 301.92188 361.75 301.59375L361.75 300.70312L362.8125 300.70312ZM369.0625 297.04688L369.0625 298.35938Q369.0625 299.40625 368.875 300.125Q368.6875 300.84375 368.32812 301.28125Q367.98438 301.71875 367.48438 301.92188Q367.0 302.125 366.375 302.125Q365.89062 302.125 365.46875 302.0Q365.04688 301.875 364.71875 301.60938Q364.39062 301.32812 364.15625 300.89062Q363.92188 300.45312 363.79688 299.82812Q363.67188 299.1875 363.67188 298.35938L363.67188 297.04688Q363.67188 296.0 363.85938 295.29688Q364.0625 294.59375 364.40625 294.15625Q364.76562 293.71875 365.25 293.53125Q365.75 293.34375 366.35938 293.34375Q366.85938 293.34375 367.28125 293.46875Q367.70312 293.59375 368.03125 293.85938Q368.35938 294.10938 368.57812 294.54688Q368.8125 294.96875 368.9375 295.59375Q369.0625 296.21875 369.0625 297.04688ZM367.96875 298.53125L367.96875 296.875Q367.96875 296.29688 367.90625 295.85938Q367.84375 295.42188 367.70312 295.10938Q367.57812 294.79688 367.375 294.60938Q367.1875 294.42188 366.9375 294.32812Q366.6875 294.23438 366.35938 294.23438Q365.98438 294.23438 365.67188 294.375Q365.375 294.51562 365.17188 294.82812Q364.96875 295.14062 364.85938 295.65625Q364.76562 296.15625 364.76562 296.875L364.76562 298.53125Q364.76562 299.10938 364.82812 299.54688Q364.90625 299.98438 365.03125 300.3125Q365.17188 300.625 365.35938 300.82812Q365.5625 301.03125 365.8125 301.125Q366.0625 301.21875 366.375 301.21875Q366.78125 301.21875 367.07812 301.07812Q367.375 300.92188 367.57812 300.59375Q367.78125 300.26562 367.875 299.76562Q367.96875 299.25 367.96875 298.53125Z" fill-rule="nonzero"/><path stroke="#cccccc" stroke-width="1.0" stroke-linecap="butt" d="M422.425 305.0C422.425 277.15103 399.84897 254.575 372.0 254.575C344.15103 254.575 321.575 277.15103 321.575 305.0C321.575 332.84897 344.15103 355.425 372.0 355.425C399.84897 355.425 422.425 332.84897 422.425 305.0" fill-rule="nonzero"/><path fill="#000000" d="M360.0625 246.62187L360.0625 247.93437Q360.0625 248.98125 359.875 249.7Q359.6875 250.41875 359.32812 250.85625Q358.98438 251.29375 358.48438 251.49687Q358.0 251.7 357.375 251.7Q356.89062 251.7 356.46875 251.575Q356.04688 251.45 355.71875 251.18437Q355.39062 250.90312 355.15625 250.46562Q354.92188 250.02812 354.79688 249.40312Q354.67188 248.7625 354.67188 247.93437L354.67188 246.62187Q354.67188 245.575 354.85938 244.87187Q355.0625 244.16875 355.40625 243.73125Q355.76562 243.29375 356.25 243.10625Q356.75 242.91875 357.35938 242.91875Q357.85938 242.91875 358.28125 243.04375Q358.70312 243.16875 359.03125 243.43437Q359.35938 243.68437 359.57812 244.12187Q359.8125 244.54375 359.9375 245.16875Q360.0625 245.79375 360.0625 246.62187ZM358.96875 248.10625L358.96875 246.45Q358.96875 245.87187 358.90625 245.43437Q358.84375 244.99687 358.70312 244.68437Q358.57812 244.37187 358.375 244.18437Q358.1875 243.99687 357.9375 243.90312Q357.6875 243.80937 357.35938 243.80937Q356.98438 243.80937 356.67188 243.95Q356.375 244.09062 356.17188 244.40312Q355.96875 244.71562 355.85938 245.23125Q355.76562 245.73125 355.76562 246.45L355.76562 248.10625Q355.76562 248.68437 355.82812 249.12187Q355.90625 249.55937 356.03125 249.8875Q356.17188 250.2 356.35938 250.40312Q356.5625 250.60625 356.8125 250.7Q357.0625 250.79375 357.375 250.79375Q357.78125 250.79375 358.07812 250.65312Q358.375 250.49687 358.57812 250.16875Q358.78125 249.84062 358.875 249.34062Q358.96875 248.825 358.96875 248.10625ZM362.8125 250.27812L362.8125 251.15312Q362.8125 251.7 362.53125 252.29375Q362.26562 252.8875 361.78125 253.27812L361.17188 252.85625Q361.35938 252.59062 361.48438 252.325Q361.60938 252.05937 361.67188 251.77812Q361.75 251.49687 361.75 251.16875L361.75 250.27812L362.8125 250.27812ZM367.26562 242.99687L367.26562 251.575L366.1875 251.575L366.1875 244.35625L364.0 245.15312L364.0 244.16875L367.10938 242.99687L367.26562 242.99687Z" fill-rule="nonzero"/><path stroke="#cccccc" stroke-width="1.0" stroke-linecap="butt" d="M472.85 305.0C472.85 249.30208 427.6979 204.15 372.0 204.15C316.3021 204.15 271.15 249.30208 271.15 305.0C271.15 360.6979 316.3021 405.85 372.0 405.85C427.6979 405.85 472.85 360.6979 472.85 305.0" fill-rule="nonzero"/><path fill="#000000" d="M360.0625 196.19687L360.0625 197.50937Q360.0625 198.55624 359.875 199.275Q359.6875 199.99374 359.32812 200.43124Q358.98438 200.86874 358.48438 201.07187Q358.0 201.275 357.375 201.275Q356.89062 201.275 356.46875 201.15Q356.04688 201.025 355.71875 200.75937Q355.39062 200.47812 355.15625 200.04062Q354.92188 199.60312 354.79688 198.97812Q354.67188 198.3375 354.67188 197.50937L354.67188 196.19687Q354.67188 195.15 354.85938 194.44687Q355.0625 193.74374 355.40625 193.30624Q355.76562 192.86874 356.25 192.68124Q356.75 192.49374 357.35938 192.49374Q357.85938 192.49374 358.28125 192.61874Q358.70312 192.74374 359.03125 193.00937Q359.35938 193.25937 359.57812 193.69687Q359.8125 194.11874 359.9375 194.74374Q360.0625 195.36874 360.0625 196.19687ZM358.96875 197.68124L358.96875 196.025Q358.96875 195.44687 358.90625 195.00937Q358.84375 194.57187 358.70312 194.25937Q358.57812 193.94687 358.375 193.75937Q358.1875 193.57187 357.9375 193.47812Q357.6875 193.38437 357.35938 193.38437Q356.98438 193.38437 356.67188 193.525Q356.375 193.66562 356.17188 193.97812Q355.96875 194.29062 355.85938 194.80624Q355.76562 195.30624 355.76562 196.025L355.76562 197.68124Q355.76562 198.25937 355.82812 198.69687Q355.90625 199.13437 356.03125 199.4625Q356.17188 199.775 356.35938 199.97812Q356.5625 200.18124 356.8125 200.275Q357.0625 200.36874 357.375 200.36874Q357.78125 200.36874 358.07812 200.22812Q358.375 200.07187 358.57812 199.74374Q358.78125 199.41562 358.875 198.91562Q358.96875 198.4 358.96875 197.68124ZM362.8125 199.85312L362.8125 200.72812Q362.8125 201.275 362.53125 201.86874Q362.26562 202.4625 361.78125 202.85312L361.17188 202.43124Q361.35938 202.16562 361.48438 201.9Q361.60938 201.63437 361.67188 201.35312Q361.75 201.07187 361.75 200.74374L361.75 199.85312L362.8125 199.85312ZM369.29688 200.25937L369.29688 201.15L363.71875 201.15L363.71875 200.36874L366.51562 197.25937Q367.03125 196.68124 367.3125 196.29062Q367.59375 195.88437 367.70312 195.57187Q367.82812 195.24374 367.82812 194.91562Q367.82812 194.49374 367.65625 194.15Q367.48438 193.80624 367.14062 193.60312Q366.8125 193.38437 366.32812 193.38437Q365.76562 193.38437 365.39062 193.61874Q365.01562 193.8375 364.82812 194.22812Q364.64062 194.61874 364.64062 195.11874L363.54688 195.11874Q363.54688 194.4 363.85938 193.80624Q364.1875 193.2125 364.79688 192.85312Q365.42188 192.49374 366.32812 192.49374Q367.14062 192.49374 367.71875 192.79062Q368.29688 193.07187 368.59375 193.5875Q368.90625 194.0875 368.90625 194.775Q368.90625 195.15 368.78125 195.54062Q368.65625 195.91562 368.4375 196.30624Q368.21875 196.68124 367.92188 197.05624Q367.64062 197.41562 367.3125 197.775L365.01562 200.25937L369.29688 200.25937Z" fill-rule="nonzero"/><path stroke="#cccccc" stroke-width="1.0" stroke-linecap="butt" d="M523.275 305.0C523.275 221.45312 455.54688 153.725 372.0 153.725C288.45312 153.725 220.725 221.45312 220.725 305.0C220.725 388.54688 288.45312 456.275 372.0 456.275C455.54688 456.275 523.275 388.54688 523.275 305.0" fill-rule="nonzero"/><path fill="#000000" d="M360.0625 145.77188L360.0625 147.08438Q360.0625 148.13126 359.875 148.85Q359.6875 149.56876 359.32812 150.00626Q358.98438 150.44376 358.48438 150.64688Q358.0 150.85 357.375 150.85Q356.89062 150.85 356.46875 150.725Q356.04688 150.6 355.71875 150.33438Q355.39062 150.05313 355.15625 149.61563Q354.92188 149.17813 354.79688 148.55313Q354.67188 147.9125 354.67188 147.08438L354.67188 145.77188Q354.67188 144.725 354.85938 144.02188Q355.0625 143.31876 355.40625 142.88126Q355.76562 142.44376 356.25 142.25626Q356.75 142.06876 357.35938 142.06876Q357.85938 142.06876 358.28125 142.19376Q358.70312 142.31876 359.03125 142.58438Q359.35938 142.83438 359.57812 143.27188Q359.8125 143.69376 359.9375 144.31876Q360.0625 144.94376 360.0625 145.77188ZM358.96875 147.25626L358.96875 145.6Q358.96875 145.02188 358.90625 144.58438Q358.84375 144.14688 358.70312 143.83438Q358.57812 143.52188 358.375 143.33438Q358.1875 143.14688 357.9375 143.05313Q357.6875 142.95938 357.35938 142.95938Q356.98438 142.95938 356.67188 143.1Q356.375 143.24063 356.17188 143.55313Q355.96875 143.86563 355.85938 144.38126Q355.76562 144.88126 355.76562 145.6L355.76562 147.25626Q355.76562 147.83438 355.82812 148.27188Q355.90625 148.70938 356.03125 149.0375Q356.17188 149.35 356.35938 149.55313Q356.5625 149.75626 356.8125 149.85Q357.0625 149.94376 357.375 149.94376Q357.78125 149.94376 358.07812 149.80313Q358.375 149.64688 358.57812 149.31876Q358.78125 148.99063 358.875 148.49063Q358.96875 147.975 358.96875 147.25626ZM362.8125 149.42813L362.8125 150.30313Q362.8125 150.85 362.53125 151.44376Q362.26562 152.0375 361.78125 152.42813L361.17188 152.00626Q361.35938 151.74063 361.48438 151.475Q361.60938 151.20938 361.67188 150.92813Q361.75 150.64688 361.75 150.31876L361.75 149.42813L362.8125 149.42813ZM365.29688 145.92813L366.0625 145.92813Q366.64062 145.92813 367.0 145.74063Q367.375 145.5375 367.5625 145.20938Q367.75 144.88126 367.75 144.45938Q367.75 143.975 367.57812 143.64688Q367.42188 143.30313 367.09375 143.13126Q366.76562 142.95938 366.26562 142.95938Q365.79688 142.95938 365.45312 143.14688Q365.10938 143.31876 364.90625 143.64688Q364.71875 143.975 364.71875 144.42813L363.625 144.42813Q363.625 143.77188 363.95312 143.24063Q364.28125 142.70938 364.875 142.39688Q365.46875 142.06876 366.26562 142.06876Q367.03125 142.06876 367.60938 142.35Q368.1875 142.61563 368.51562 143.1625Q368.84375 143.69376 368.84375 144.49063Q368.84375 144.81876 368.6875 145.17813Q368.53125 145.5375 368.21875 145.86563Q367.90625 146.17813 367.40625 146.38126Q366.92188 146.58438 366.21875 146.58438L365.29688 146.58438L365.29688 145.92813ZM365.29688 146.81876L365.29688 146.1625L366.21875 146.1625Q367.03125 146.1625 367.5625 146.36563Q368.09375 146.55313 368.40625 146.88126Q368.71875 147.19376 368.84375 147.58438Q368.96875 147.95938 368.96875 148.35Q368.96875 148.94376 368.76562 149.4125Q368.5625 149.86563 368.1875 150.19376Q367.82812 150.50626 367.32812 150.67813Q366.84375 150.85 366.26562 150.85Q365.70312 150.85 365.21875 150.69376Q364.73438 150.52188 364.35938 150.225Q363.98438 149.92813 363.76562 149.49063Q363.5625 149.0375 363.5625 148.475L364.64062 148.475Q364.64062 148.9125 364.82812 149.25626Q365.03125 149.58438 365.39062 149.77188Q365.76562 149.94376 366.26562 149.94376Q366.76562 149.94376 367.125 149.77188Q367.48438 149.6 367.67188 149.25626Q367.875 148.89688 367.875 148.36563Q367.875 147.83438 367.65625 147.49063Q367.4375 147.14688 367.01562 146.99063Q366.60938 146.81876 366.0625 146.81876L365.29688 146.81876Z" fill-rule="nonzero"/><path stroke="#cccccc" stroke-width="1.0" stroke-linecap="butt" d="M573.7 305.0C573.7 193.60417 483.39584 103.3 372.0 103.3C260.60416 103.3 170.3 193.60417 170.3 305.0C170.3 416.39584 260.60416 506.7 372.0 506.7C483.39584 506.7 573.7 416.39584 573.7 305.0" fill-rule="nonzero"/><path fill="#000000" d="M360.0625 95.34688L360.0625 96.65938Q360.0625 97.70625 359.875 98.425Q359.6875 99.14375 359.32812 99.58125Q358.98438 100.01875 358.48438 100.22188Q358.0 100.425 357.375 100.425Q356.89062 100.425 356.46875 100.3Q356.04688 100.175 355.71875 99.90938Q355.39062 99.62813 355.15625 99.19063Q354.92188 98.75313 354.79688 98.12813Q354.67188 97.4875 354.67188 96.65938L354.67188 95.34688Q354.67188 94.3 354.85938 93.59688Q355.0625 92.89375 355.40625 92.45625Q355.76562 92.01875 356.25 91.83125Q356.75 91.64375 357.35938 91.64375Q357.85938 91.64375 358.28125 91.76875Q358.70312 91.89375 359.03125 92.15938Q359.35938 92.40938 359.57812 92.84688Q359.8125 93.26875 359.9375 93.89375Q360.0625 94.51875 360.0625 95.34688ZM358.96875 96.83125L358.96875 95.175Q358.96875 94.59688 358.90625 94.15938Q358.84375 93.72188 358.70312 93.40938Q358.57812 93.09688 358.375 92.90938Q358.1875 92.72188 357.9375 92.62813Q357.6875 92.53438 357.35938 92.53438Q356.98438 92.53438 356.67188 92.675Q356.375 92.81563 356.17188 93.12813Q355.96875 93.44063 355.85938 93.95625Q355.76562 94.45625 355.76562 95.175L355.76562 96.83125Q355.76562 97.40938 355.82812 97.84688Q355.90625 98.28438 356.03125 98.6125Q356.17188 98.925 356.35938 99.12813Q356.5625 99.33125 356.8125 99.425Q357.0625 99.51875 357.375 99.51875Q357.78125 99.51875 358.07812 99.37813Q358.375 99.22188 358.57812 98.89375Q358.78125 98.56563 358.875 98.06563Q358.96875 97.55 358.96875 96.83125ZM362.8125 99.00313L362.8125 99.87813Q362.8125 100.425 362.53125 101.01875Q362.26562 101.6125 361.78125 102.00313L361.17188 101.58125Q361.35938 101.31563 361.48438 101.05Q361.60938 100.78438 361.67188 100.50313Q361.75 100.22188 361.75 99.89375L361.75 99.00313L362.8125 99.00313ZM369.46875 97.425L369.46875 98.31563L363.3125 98.31563L363.3125 97.675L367.125 91.76875L368.01562 91.76875L367.0625 93.47188L364.54688 97.425L369.46875 97.425ZM368.28125 91.76875L368.28125 100.3L367.20312 100.3L367.20312 91.76875L368.28125 91.76875Z" fill-rule="nonzero"/><path stroke="#cccccc" stroke-width="1.0" stroke-linecap="butt" d="M372.0 305.0L372.0 103.0" fill-rule="nonzero"/><path fill="#000000" d="M354.67188 84.578125L354.67188 85.5L350.40625 85.5L350.40625 84.578125L354.67188 84.578125ZM350.625 76.96875L350.625 85.5L349.48438 85.5L349.48438 76.96875L350.625 76.96875ZM356.5 79.15625L356.5 85.5L355.42188 85.5L355.42188 79.15625L356.5 79.15625ZM355.32812 77.484375Q355.32812 77.21875 355.48438 77.03125Q355.65625 76.84375 355.96875 76.84375Q356.28125 76.84375 356.4375 77.03125Q356.60938 77.21875 356.60938 77.484375Q356.60938 77.734375 356.4375 77.921875Q356.28125 78.09375 355.96875 78.09375Q355.65625 78.09375 355.48438 77.921875Q355.32812 77.734375 355.32812 77.484375ZM359.40625 80.421875L359.40625 85.5L358.3125 85.5L358.3125 79.15625L359.34375 79.15625L359.40625 80.421875ZM359.1875 82.09375L358.67188 82.078125Q358.6875 81.421875 358.84375 80.875Q359.01562 80.3125 359.32812 79.90625Q359.65625 79.5 360.14062 79.28125Q360.625 79.046875 361.25 79.046875Q361.70312 79.046875 362.07812 79.171875Q362.45312 79.296875 362.71875 79.5625Q363.0 79.828125 363.14062 80.25Q363.29688 80.671875 363.29688 81.28125L363.29688 85.5L362.21875 85.5L362.21875 81.328125Q362.21875 80.828125 362.04688 80.53125Q361.89062 80.234375 361.57812 80.09375Q361.28125 79.953125 360.85938 79.953125Q360.39062 79.953125 360.0625 80.125Q359.73438 80.296875 359.54688 80.59375Q359.35938 80.890625 359.26562 81.28125Q359.1875 81.65625 359.1875 82.09375ZM363.29688 81.484375L362.5625 81.71875Q362.5625 81.1875 362.73438 80.71875Q362.90625 80.234375 363.21875 79.859375Q363.54688 79.484375 364.01562 79.265625Q364.48438 79.046875 365.07812 79.046875Q365.59375 79.046875 365.98438 79.1875Q366.39062 79.3125 366.65625 79.59375Q366.92188 79.875 367.0625 80.3125Q367.20312 80.734375 367.20312 81.328125L367.20312 85.5L366.125 85.5L366.125 81.328125Q366.125 80.78125 365.95312 80.5Q365.78125 80.203125 365.48438 80.078125Q365.1875 79.953125 364.76562 79.953125Q364.40625 79.953125 364.125 80.078125Q363.85938 80.203125 363.67188 80.421875Q363.48438 80.625 363.39062 80.90625Q363.29688 81.1875 363.29688 81.484375ZM369.04688 82.40625L369.04688 82.265625Q369.04688 81.578125 369.23438 81.0Q369.4375 80.40625 369.8125 79.96875Q370.1875 79.53125 370.71875 79.296875Q371.25 79.046875 371.92188 79.046875Q372.57812 79.046875 373.10938 79.296875Q373.65625 79.53125 374.03125 79.96875Q374.40625 80.40625 374.60938 81.0Q374.8125 81.578125 374.8125 82.265625L374.8125 82.40625Q374.8125 83.078125 374.60938 83.671875Q374.40625 84.25 374.03125 84.6875Q373.65625 85.125 373.125 85.375Q372.59375 85.625 371.92188 85.625Q371.26562 85.625 370.71875 85.375Q370.1875 85.125 369.8125 84.6875Q369.4375 84.25 369.23438 83.671875Q369.04688 83.078125 369.04688 82.40625ZM370.125 82.265625L370.125 82.40625Q370.125 82.875 370.23438 83.296875Q370.34375 83.71875 370.5625 84.046875Q370.79688 84.359375 371.14062 84.546875Q371.48438 84.71875 371.92188 84.71875Q372.375 84.71875 372.70312 84.546875Q373.04688 84.359375 373.26562 84.046875Q373.5 83.71875 373.60938 83.296875Q373.71875 82.875 373.71875 82.40625L373.71875 82.265625Q373.71875 81.796875 373.60938 81.375Q373.5 80.953125 373.26562 80.640625Q373.04688 80.3125 372.70312 80.125Q372.375 79.9375 371.92188 79.9375Q371.46875 79.9375 371.125 80.125Q370.79688 80.3125 370.5625 80.640625Q370.34375 80.953125 370.23438 81.375Q370.125 81.796875 370.125 82.265625ZM377.40625 80.515625L377.40625 85.5L376.32812 85.5L376.32812 79.15625L377.35938 79.15625L377.40625 80.515625ZM377.15625 82.09375L376.70312 82.078125Q376.70312 81.421875 376.89062 80.875Q377.07812 80.3125 377.42188 79.90625Q377.76562 79.5 378.23438 79.28125Q378.70312 79.046875 379.28125 79.046875Q379.75 79.046875 380.125 79.171875Q380.5 79.296875 380.76562 79.578125Q381.03125 79.84375 381.17188 80.28125Q381.3125 80.71875 381.3125 81.34375L381.3125 85.5L380.21875 85.5L380.21875 81.328125Q380.21875 80.828125 380.07812 80.53125Q379.9375 80.234375 379.65625 80.09375Q379.375 79.953125 378.95312 79.953125Q378.54688 79.953125 378.21875 80.125Q377.89062 80.296875 377.65625 80.59375Q377.42188 80.890625 377.28125 81.28125Q377.15625 81.65625 377.15625 82.09375ZM385.95312 85.625Q385.29688 85.625 384.75 85.40625Q384.21875 85.171875 383.82812 84.765625Q383.45312 84.34375 383.25 83.78125Q383.04688 83.21875 383.04688 82.546875L383.04688 82.3125Q383.04688 81.53125 383.26562 80.921875Q383.5 80.3125 383.89062 79.890625Q384.28125 79.46875 384.78125 79.265625Q385.28125 79.046875 385.8125 79.046875Q386.5 79.046875 386.98438 79.28125Q387.48438 79.515625 387.79688 79.9375Q388.125 80.34375 388.26562 80.921875Q388.42188 81.484375 388.42188 82.140625L388.42188 82.640625L383.6875 82.640625L383.6875 81.75L387.34375 81.75L387.34375 81.671875Q387.3125 81.25 387.15625 80.859375Q387.01562 80.453125 386.6875 80.203125Q386.375 79.9375 385.8125 79.9375Q385.45312 79.9375 385.14062 80.09375Q384.82812 80.25 384.59375 80.5625Q384.375 80.859375 384.25 81.296875Q384.14062 81.734375 384.14062 82.3125L384.14062 82.546875Q384.14062 83.0 384.26562 83.40625Q384.39062 83.796875 384.625 84.09375Q384.875 84.390625 385.21875 84.5625Q385.57812 84.734375 386.01562 84.734375Q386.59375 84.734375 386.98438 84.5Q387.39062 84.265625 387.6875 83.875L388.34375 84.390625Q388.14062 84.703125 387.8125 84.984375Q387.5 85.265625 387.03125 85.453125Q386.57812 85.625 385.95312 85.625ZM390.40625 80.515625L390.40625 85.5L389.32812 85.5L389.32812 79.15625L390.35938 79.15625L390.40625 80.515625ZM390.15625 82.09375L389.70312 82.078125Q389.70312 81.421875 389.89062 80.875Q390.07812 80.3125 390.42188 79.90625Q390.76562 79.5 391.23438 79.28125Q391.70312 79.046875 392.28125 79.046875Q392.75 79.046875 393.125 79.171875Q393.5 79.296875 393.76562 79.578125Q394.03125 79.84375 394.17188 80.28125Q394.3125 80.71875 394.3125 81.34375L394.3125 85.5L393.21875 85.5L393.21875 81.328125Q393.21875 80.828125 393.07812 80.53125Q392.9375 80.234375 392.65625 80.09375Q392.375 79.953125 391.95312 79.953125Q391.54688 79.953125 391.21875 80.125Q390.89062 80.296875 390.65625 80.59375Q390.42188 80.890625 390.28125 81.28125Q390.15625 81.65625 390.15625 82.09375Z" fill-rule="nonzero"/><path stroke="#cccccc" stroke-width="1.0" stroke-linecap="butt" d="M372.0 305.0L547.0 204.0" fill-rule="nonzero"/><path fill="#000000" d="M547.84375 188.96875L548.9375 188.96875L551.7344 195.92188L554.53125 188.96875L555.625 188.96875L552.15625 197.5L551.3125 197.5L547.84375 188.96875ZM547.4844 188.96875L548.4531 188.96875L548.6094 194.17188L548.6094 197.5L547.4844 197.5L547.4844 188.96875ZM555.0156 188.96875L555.9844 188.96875L555.9844 197.5L554.8594 197.5L554.8594 194.17188L555.0156 188.96875ZM559.1094 196.84375L560.875 191.15625L562.03125 191.15625L559.4844 198.48438Q559.40625 198.71875 559.25 198.98438Q559.1094 199.26562 558.8906 199.5Q558.6719 199.75 558.3594 199.90625Q558.0469 200.0625 557.6094 200.0625Q557.4844 200.0625 557.28125 200.01562Q557.0781 199.98438 557.0 199.96875L557.0 199.09375Q557.0469 199.09375 557.1406 199.09375Q557.25 199.10938 557.28125 199.10938Q557.65625 199.10938 557.90625 199.01562Q558.1719 198.92188 558.34375 198.6875Q558.53125 198.46875 558.65625 198.07812L559.1094 196.84375ZM557.8125 191.15625L559.4531 196.07812L559.7344 197.21875L558.96875 197.625L556.625 191.15625L557.8125 191.15625ZM564.40625 192.15625L564.40625 197.5L563.3281 197.5L563.3281 191.15625L564.375 191.15625L564.40625 192.15625ZM566.3906 191.125L566.3906 192.125Q566.25 192.10938 566.125 192.09375Q566.0156 192.07812 565.8594 192.07812Q565.4844 192.07812 565.1875 192.20312Q564.90625 192.3125 564.7031 192.53125Q564.5156 192.73438 564.3906 193.03125Q564.28125 193.32812 564.25 193.67188L563.9375 193.84375Q563.9375 193.26562 564.0469 192.76562Q564.1719 192.26562 564.40625 191.875Q564.65625 191.48438 565.0156 191.26562Q565.3906 191.04688 565.90625 191.04688Q566.03125 191.04688 566.1719 191.07812Q566.3281 191.09375 566.3906 191.125ZM569.8594 196.71875Q570.25 196.71875 570.5781 196.5625Q570.90625 196.40625 571.1094 196.14062Q571.3281 195.85938 571.3594 195.5L572.3906 195.5Q572.3594 196.0625 572.0 196.54688Q571.65625 197.03125 571.09375 197.32812Q570.53125 197.625 569.8594 197.625Q569.15625 197.625 568.625 197.375Q568.09375 197.10938 567.7344 196.67188Q567.3906 196.23438 567.21875 195.67188Q567.0469 195.09375 567.0469 194.45312L567.0469 194.20312Q567.0469 193.5625 567.21875 193.0Q567.3906 192.42188 567.7344 191.98438Q568.09375 191.54688 568.625 191.29688Q569.15625 191.04688 569.8594 191.04688Q570.6094 191.04688 571.15625 191.34375Q571.71875 191.64062 572.03125 192.17188Q572.3594 192.6875 572.3906 193.34375L571.3594 193.34375Q571.3281 192.95312 571.1406 192.64062Q570.9531 192.3125 570.625 192.125Q570.2969 191.9375 569.8594 191.9375Q569.3594 191.9375 569.0156 192.14062Q568.6875 192.32812 568.4844 192.65625Q568.2969 192.98438 568.2031 193.39062Q568.125 193.79688 568.125 194.20312L568.125 194.45312Q568.125 194.875 568.2031 195.28125Q568.2969 195.67188 568.4844 196.0Q568.6875 196.32812 569.0156 196.53125Q569.3594 196.71875 569.8594 196.71875ZM575.9531 197.625Q575.2969 197.625 574.75 197.40625Q574.21875 197.17188 573.8281 196.76562Q573.4531 196.34375 573.25 195.78125Q573.0469 195.21875 573.0469 194.54688L573.0469 194.3125Q573.0469 193.53125 573.2656 192.92188Q573.5 192.3125 573.8906 191.89062Q574.28125 191.46875 574.78125 191.26562Q575.28125 191.04688 575.8125 191.04688Q576.5 191.04688 576.9844 191.28125Q577.4844 191.51562 577.7969 191.9375Q578.125 192.34375 578.2656 192.92188Q578.4219 193.48438 578.4219 194.14062L578.4219 194.64062L573.6875 194.64062L573.6875 193.75L577.34375 193.75L577.34375 193.67188Q577.3125 193.25 577.15625 192.85938Q577.0156 192.45312 576.6875 192.20312Q576.375 191.9375 575.8125 191.9375Q575.4531 191.9375 575.1406 192.09375Q574.8281 192.25 574.59375 192.5625Q574.375 192.85938 574.25 193.29688Q574.1406 193.73438 574.1406 194.3125L574.1406 194.54688Q574.1406 195.0 574.2656 195.40625Q574.3906 195.79688 574.625 196.09375Q574.875 196.39062 575.21875 196.5625Q575.5781 196.73438 576.0156 196.73438Q576.59375 196.73438 576.9844 196.5Q577.3906 196.26562 577.6875 195.875L578.34375 196.39062Q578.1406 196.70312 577.8125 196.98438Q577.5 197.26562 577.03125 197.45312Q576.5781 197.625 575.9531 197.625ZM580.40625 192.51562L580.40625 197.5L579.3281 197.5L579.3281 191.15625L580.3594 191.15625L580.40625 192.51562ZM580.15625 194.09375L579.7031 194.07812Q579.7031 193.42188 579.8906 192.875Q580.0781 192.3125 580.4219 191.90625Q580.7656 191.5 581.2344 191.28125Q581.7031 191.04688 582.28125 191.04688Q582.75 191.04688 583.125 191.17188Q583.5 191.29688 583.7656 191.57812Q584.03125 191.84375 584.1719 192.28125Q584.3125 192.71875 584.3125 193.34375L584.3125 197.5L583.21875 197.5L583.21875 193.32812Q583.21875 192.82812 583.0781 192.53125Q582.9375 192.23438 582.65625 192.09375Q582.375 191.95312 581.9531 191.95312Q581.5469 191.95312 581.21875 192.125Q580.8906 192.29688 580.65625 192.59375Q580.4219 192.89062 580.28125 193.28125Q580.15625 193.65625 580.15625 194.09375Z" fill-rule="nonzero"/><path stroke="#cccccc" stroke-width="1.0" stroke-linecap="butt" d="M372.0 305.0L547.0 406.0" fill-rule="nonzero"/><path fill="#000000" d="M550.6719 420.57812L550.6719 421.5L546.40625 421.5L546.40625 420.57812L550.6719 420.57812ZM546.625 412.96875L546.625 421.5L545.4844 421.5L545.4844 412.96875L546.625 412.96875ZM552.5 415.15625L552.5 421.5L551.4219 421.5L551.4219 415.15625L552.5 415.15625ZM551.3281 413.48438Q551.3281 413.21875 551.4844 413.03125Q551.65625 412.84375 551.96875 412.84375Q552.28125 412.84375 552.4375 413.03125Q552.6094 413.21875 552.6094 413.48438Q552.6094 413.73438 552.4375 413.92188Q552.28125 414.09375 551.96875 414.09375Q551.65625 414.09375 551.4844 413.92188Q551.3281 413.73438 551.3281 413.48438ZM555.40625 416.51562L555.40625 421.5L554.3281 421.5L554.3281 415.15625L555.3594 415.15625L555.40625 416.51562ZM555.15625 418.09375L554.7031 418.07812Q554.7031 417.42188 554.8906 416.875Q555.0781 416.3125 555.4219 415.90625Q555.7656 415.5 556.2344 415.28125Q556.7031 415.04688 557.28125 415.04688Q557.75 415.04688 558.125 415.17188Q558.5 415.29688 558.7656 415.57812Q559.03125 415.84375 559.1719 416.28125Q559.3125 416.71875 559.3125 417.34375L559.3125 421.5L558.21875 421.5L558.21875 417.32812Q558.21875 416.82812 558.0781 416.53125Q557.9375 416.23438 557.65625 416.09375Q557.375 415.95312 556.9531 415.95312Q556.5469 415.95312 556.21875 416.125Q555.8906 416.29688 555.65625 416.59375Q555.4219 416.89062 555.28125 417.28125Q555.15625 417.65625 555.15625 418.09375ZM565.0625 420.42188L565.0625 417.15625Q565.0625 416.78125 564.90625 416.5Q564.7656 416.21875 564.46875 416.07812Q564.1719 415.92188 563.7344 415.92188Q563.3125 415.92188 563.0 416.0625Q562.7031 416.20312 562.53125 416.4375Q562.3594 416.65625 562.3594 416.92188L561.28125 416.92188Q561.28125 416.57812 561.4531 416.25Q561.625 415.90625 561.9531 415.64062Q562.28125 415.35938 562.75 415.20312Q563.21875 415.04688 563.7969 415.04688Q564.4844 415.04688 565.0156 415.28125Q565.5469 415.51562 565.84375 415.98438Q566.15625 416.45312 566.15625 417.15625L566.15625 420.10938Q566.15625 420.4375 566.2031 420.79688Q566.2656 421.14062 566.375 421.40625L566.375 421.5L565.2344 421.5Q565.15625 421.3125 565.1094 421.0Q565.0625 420.6875 565.0625 420.42188ZM565.25 417.65625L565.2656 418.42188L564.1719 418.42188Q563.7031 418.42188 563.34375 418.5Q562.9844 418.5625 562.7344 418.71875Q562.4844 418.85938 562.3594 419.07812Q562.2344 419.29688 562.2344 419.59375Q562.2344 419.89062 562.3594 420.14062Q562.5 420.375 562.7656 420.53125Q563.0469 420.67188 563.4375 420.67188Q563.9375 420.67188 564.3125 420.46875Q564.7031 420.25 564.9219 419.95312Q565.15625 419.64062 565.1719 419.34375L565.6406 419.875Q565.59375 420.10938 565.40625 420.42188Q565.2344 420.71875 564.9219 421.0Q564.625 421.26562 564.2031 421.45312Q563.7969 421.625 563.28125 421.625Q562.6406 421.625 562.15625 421.375Q561.6719 421.10938 561.40625 420.6875Q561.1406 420.26562 561.1406 419.73438Q561.1406 419.21875 561.3281 418.84375Q561.53125 418.45312 561.90625 418.1875Q562.28125 417.92188 562.8125 417.79688Q563.34375 417.65625 564.0 417.65625L565.25 417.65625ZM569.5 412.5L569.5 421.5L568.4219 421.5L568.4219 412.5L569.5 412.5ZM571.0469 418.40625L571.0469 418.26562Q571.0469 417.57812 571.2344 417.0Q571.4375 416.40625 571.8125 415.96875Q572.1875 415.53125 572.71875 415.29688Q573.25 415.04688 573.9219 415.04688Q574.5781 415.04688 575.1094 415.29688Q575.65625 415.53125 576.03125 415.96875Q576.40625 416.40625 576.6094 417.0Q576.8125 417.57812 576.8125 418.26562L576.8125 418.40625Q576.8125 419.07812 576.6094 419.67188Q576.40625 420.25 576.03125 420.6875Q575.65625 421.125 575.125 421.375Q574.59375 421.625 573.9219 421.625Q573.2656 421.625 572.71875 421.375Q572.1875 421.125 571.8125 420.6875Q571.4375 420.25 571.2344 419.67188Q571.0469 419.07812 571.0469 418.40625ZM572.125 418.26562L572.125 418.40625Q572.125 418.875 572.2344 419.29688Q572.34375 419.71875 572.5625 420.04688Q572.7969 420.35938 573.1406 420.54688Q573.4844 420.71875 573.9219 420.71875Q574.375 420.71875 574.7031 420.54688Q575.0469 420.35938 575.2656 420.04688Q575.5 419.71875 575.6094 419.29688Q575.71875 418.875 575.71875 418.40625L575.71875 418.26562Q575.71875 417.79688 575.6094 417.375Q575.5 416.95312 575.2656 416.64062Q575.0469 416.3125 574.7031 416.125Q574.375 415.9375 573.9219 415.9375Q573.46875 415.9375 573.125 416.125Q572.7969 416.3125 572.5625 416.64062Q572.34375 416.95312 572.2344 417.375Q572.125 417.79688 572.125 418.26562ZM578.0469 418.40625L578.0469 418.26562Q578.0469 417.57812 578.2344 417.0Q578.4375 416.40625 578.8125 415.96875Q579.1875 415.53125 579.71875 415.29688Q580.25 415.04688 580.9219 415.04688Q581.5781 415.04688 582.1094 415.29688Q582.65625 415.53125 583.03125 415.96875Q583.40625 416.40625 583.6094 417.0Q583.8125 417.57812 583.8125 418.26562L583.8125 418.40625Q583.8125 419.07812 583.6094 419.67188Q583.40625 420.25 583.03125 420.6875Q582.65625 421.125 582.125 421.375Q581.59375 421.625 580.9219 421.625Q580.2656 421.625 579.71875 421.375Q579.1875 421.125 578.8125 420.6875Q578.4375 420.25 578.2344 419.67188Q578.0469 419.07812 578.0469 418.40625ZM579.125 418.26562L579.125 418.40625Q579.125 418.875 579.2344 419.29688Q579.34375 419.71875 579.5625 420.04688Q579.7969 420.35938 580.1406 420.54688Q580.4844 420.71875 580.9219 420.71875Q581.375 420.71875 581.7031 420.54688Q582.0469 420.35938 582.2656 420.04688Q582.5 419.71875 582.6094 419.29688Q582.71875 418.875 582.71875 418.40625L582.71875 418.26562Q582.71875 417.79688 582.6094 417.375Q582.5 416.95312 582.2656 416.64062Q582.0469 416.3125 581.7031 416.125Q581.375 415.9375 580.9219 415.9375Q580.46875 415.9375 580.125 416.125Q579.7969 416.3125 579.5625 416.64062Q579.34375 416.95312 579.2344 417.375Q579.125 417.79688 579.125 418.26562ZM586.5 412.5L586.5 421.5L585.4219 421.5L585.4219 412.5L586.5 412.5Z" fill-rule="nonzero"/><path stroke="#cccccc" stroke-width="1.0" stroke-linecap="butt" d="M372.0 305.0L372.0 507.0" fill-rule="nonzero"/><path fill="#000000" d="M342.64062 530.78125L343.76562 530.78125Q343.67188 531.59375 343.29688 532.2344Q342.92188 532.875 342.23438 533.25Q341.5625 533.625 340.53125 533.625Q339.78125 533.625 339.17188 533.34375Q338.5625 533.0469 338.10938 532.53125Q337.67188 532.0156 337.4375 531.2969Q337.20312 530.5625 337.20312 529.65625L337.20312 528.8125Q337.20312 527.9219 337.4375 527.1875Q337.67188 526.4531 338.125 525.9375Q338.57812 525.40625 339.20312 525.125Q339.84375 524.84375 340.625 524.84375Q341.59375 524.84375 342.26562 525.21875Q342.9375 525.5781 343.29688 526.21875Q343.67188 526.8594 343.76562 527.7031L342.64062 527.7031Q342.5625 527.1094 342.32812 526.6875Q342.10938 526.25 341.70312 526.0156Q341.29688 525.78125 340.625 525.78125Q340.0625 525.78125 339.625 526.0Q339.20312 526.2031 338.90625 526.6094Q338.625 527.0 338.46875 527.5625Q338.32812 528.125 338.32812 528.7969L338.32812 529.65625Q338.32812 530.28125 338.45312 530.84375Q338.59375 531.3906 338.85938 531.8125Q339.125 532.21875 339.54688 532.46875Q339.96875 532.7031 340.53125 532.7031Q341.25 532.7031 341.67188 532.46875Q342.10938 532.2344 342.32812 531.8125Q342.54688 531.3906 342.64062 530.78125ZM349.0625 532.4219L349.0625 529.15625Q349.0625 528.78125 348.90625 528.5Q348.76562 528.21875 348.46875 528.0781Q348.17188 527.9219 347.73438 527.9219Q347.3125 527.9219 347.0 528.0625Q346.70312 528.2031 346.53125 528.4375Q346.35938 528.65625 346.35938 528.9219L345.28125 528.9219Q345.28125 528.5781 345.45312 528.25Q345.625 527.90625 345.95312 527.6406Q346.28125 527.3594 346.75 527.2031Q347.21875 527.0469 347.79688 527.0469Q348.48438 527.0469 349.01562 527.28125Q349.54688 527.5156 349.84375 527.9844Q350.15625 528.4531 350.15625 529.15625L350.15625 532.1094Q350.15625 532.4375 350.20312 532.7969Q350.26562 533.1406 350.375 533.40625L350.375 533.5L349.23438 533.5Q349.15625 533.3125 349.10938 533.0Q349.0625 532.6875 349.0625 532.4219ZM349.25 529.65625L349.26562 530.4219L348.17188 530.4219Q347.70312 530.4219 347.34375 530.5Q346.98438 530.5625 346.73438 530.71875Q346.48438 530.8594 346.35938 531.0781Q346.23438 531.2969 346.23438 531.59375Q346.23438 531.8906 346.35938 532.1406Q346.5 532.375 346.76562 532.53125Q347.04688 532.6719 347.4375 532.6719Q347.9375 532.6719 348.3125 532.46875Q348.70312 532.25 348.92188 531.9531Q349.15625 531.6406 349.17188 531.34375L349.64062 531.875Q349.59375 532.1094 349.40625 532.4219Q349.23438 532.71875 348.92188 533.0Q348.625 533.2656 348.20312 533.4531Q347.79688 533.625 347.28125 533.625Q346.64062 533.625 346.15625 533.375Q345.67188 533.1094 345.40625 532.6875Q345.14062 532.2656 345.14062 531.7344Q345.14062 531.21875 345.32812 530.84375Q345.53125 530.4531 345.90625 530.1875Q346.28125 529.9219 346.8125 529.7969Q347.34375 529.65625 348.0 529.65625L349.25 529.65625ZM353.40625 528.15625L353.40625 533.5L352.32812 533.5L352.32812 527.15625L353.375 527.15625L353.40625 528.15625ZM355.39062 527.125L355.39062 528.125Q355.25 528.1094 355.125 528.09375Q355.01562 528.0781 354.85938 528.0781Q354.48438 528.0781 354.1875 528.2031Q353.90625 528.3125 353.70312 528.53125Q353.51562 528.7344 353.39062 529.03125Q353.28125 529.3281 353.25 529.6719L352.9375 529.84375Q352.9375 529.2656 353.04688 528.7656Q353.17188 528.2656 353.40625 527.875Q353.65625 527.4844 354.01562 527.2656Q354.39062 527.0469 354.90625 527.0469Q355.03125 527.0469 355.17188 527.0781Q355.32812 527.09375 355.39062 527.125ZM358.10938 532.84375L359.875 527.15625L361.03125 527.15625L358.48438 534.4844Q358.40625 534.71875 358.25 534.9844Q358.10938 535.2656 357.89062 535.5Q357.67188 535.75 357.35938 535.90625Q357.04688 536.0625 356.60938 536.0625Q356.48438 536.0625 356.28125 536.0156Q356.07812 535.9844 356.0 535.96875L356.0 535.09375Q356.04688 535.09375 356.14062 535.09375Q356.25 535.1094 356.28125 535.1094Q356.65625 535.1094 356.90625 535.0156Q357.17188 534.9219 357.34375 534.6875Q357.53125 534.46875 357.65625 534.0781L358.10938 532.84375ZM356.8125 527.15625L358.45312 532.0781L358.73438 533.21875L357.96875 533.625L355.625 527.15625L356.8125 527.15625ZM362.04688 530.40625L362.04688 530.2656Q362.04688 529.5781 362.23438 529.0Q362.4375 528.40625 362.8125 527.96875Q363.1875 527.53125 363.71875 527.2969Q364.25 527.0469 364.92188 527.0469Q365.57812 527.0469 366.10938 527.2969Q366.65625 527.53125 367.03125 527.96875Q367.40625 528.40625 367.60938 529.0Q367.8125 529.5781 367.8125 530.2656L367.8125 530.40625Q367.8125 531.0781 367.60938 531.6719Q367.40625 532.25 367.03125 532.6875Q366.65625 533.125 366.125 533.375Q365.59375 533.625 364.92188 533.625Q364.26562 533.625 363.71875 533.375Q363.1875 533.125 362.8125 532.6875Q362.4375 532.25 362.23438 531.6719Q362.04688 531.0781 362.04688 530.40625ZM363.125 530.2656L363.125 530.40625Q363.125 530.875 363.23438 531.2969Q363.34375 531.71875 363.5625 532.0469Q363.79688 532.3594 364.14062 532.5469Q364.48438 532.71875 364.92188 532.71875Q365.375 532.71875 365.70312 532.5469Q366.04688 532.3594 366.26562 532.0469Q366.5 531.71875 366.60938 531.2969Q366.71875 530.875 366.71875 530.40625L366.71875 530.2656Q366.71875 529.7969 366.60938 529.375Q366.5 528.9531 366.26562 528.6406Q366.04688 528.3125 365.70312 528.125Q365.375 527.9375 364.92188 527.9375Q364.46875 527.9375 364.125 528.125Q363.79688 528.3125 363.5625 528.6406Q363.34375 528.9531 363.23438 529.375Q363.125 529.7969 363.125 530.2656ZM370.40625 528.375L370.40625 535.9375L369.32812 535.9375L369.32812 527.15625L370.3125 527.15625L370.40625 528.375ZM374.6875 530.28125L374.6875 530.40625Q374.6875 531.09375 374.51562 531.6875Q374.35938 532.2656 374.04688 532.7031Q373.73438 533.1406 373.26562 533.3906Q372.8125 533.625 372.21875 533.625Q371.625 533.625 371.15625 533.4219Q370.6875 533.21875 370.35938 532.84375Q370.04688 532.4531 369.85938 531.9219Q369.67188 531.3906 369.59375 530.71875L369.59375 530.0625Q369.67188 529.3594 369.85938 528.8125Q370.04688 528.25 370.35938 527.8594Q370.6875 527.4531 371.14062 527.25Q371.60938 527.0469 372.20312 527.0469Q372.79688 527.0469 373.26562 527.28125Q373.73438 527.5 374.04688 527.9375Q374.35938 528.3594 374.51562 528.9531Q374.6875 529.5469 374.6875 530.28125ZM373.59375 530.40625L373.59375 530.28125Q373.59375 529.7969 373.48438 529.3906Q373.39062 528.96875 373.1875 528.65625Q372.98438 528.3281 372.65625 528.1406Q372.32812 527.9531 371.89062 527.9531Q371.48438 527.9531 371.17188 528.09375Q370.875 528.2344 370.65625 528.4844Q370.45312 528.71875 370.3125 529.0156Q370.1875 529.3125 370.125 529.6406L370.125 531.15625Q370.23438 531.5625 370.4375 531.9219Q370.65625 532.28125 371.0 532.5Q371.35938 532.71875 371.90625 532.71875Q372.34375 532.71875 372.65625 532.5469Q372.98438 532.3594 373.1875 532.0469Q373.39062 531.71875 373.48438 531.2969Q373.59375 530.875 373.59375 530.40625ZM377.40625 524.5L377.40625 533.5L376.32812 533.5L376.32812 524.5L377.40625 524.5ZM377.15625 530.09375L376.70312 530.0781Q376.70312 529.4219 376.89062 528.875Q377.07812 528.3125 377.42188 527.90625Q377.76562 527.5 378.23438 527.28125Q378.70312 527.0469 379.28125 527.0469Q379.75 527.0469 380.125 527.1719Q380.5 527.2969 380.76562 527.5781Q381.03125 527.84375 381.17188 528.28125Q381.3125 528.71875 381.3125 529.34375L381.3125 533.5L380.21875 533.5L380.21875 529.3281Q380.21875 528.8281 380.07812 528.53125Q379.9375 528.2344 379.65625 528.09375Q379.375 527.9531 378.95312 527.9531Q378.54688 527.9531 378.21875 528.125Q377.89062 528.2969 377.65625 528.59375Q377.42188 528.8906 377.28125 529.28125Q377.15625 529.65625 377.15625 530.09375ZM385.10938 532.84375L386.875 527.15625L388.03125 527.15625L385.48438 534.4844Q385.40625 534.71875 385.25 534.9844Q385.10938 535.2656 384.89062 535.5Q384.67188 535.75 384.35938 535.90625Q384.04688 536.0625 383.60938 536.0625Q383.48438 536.0625 383.28125 536.0156Q383.07812 535.9844 383.0 535.96875L383.0 535.09375Q383.04688 535.09375 383.14062 535.09375Q383.25 535.1094 383.28125 535.1094Q383.65625 535.1094 383.90625 535.0156Q384.17188 534.9219 384.34375 534.6875Q384.53125 534.46875 384.65625 534.0781L385.10938 532.84375ZM383.8125 527.15625L385.45312 532.0781L385.73438 533.21875L384.96875 533.625L382.625 527.15625L383.8125 527.15625ZM390.5 524.5L390.5 533.5L389.42188 533.5L389.42188 524.5L390.5 524.5ZM393.5 524.5L393.5 533.5L392.42188 533.5L392.42188 524.5L393.5 524.5ZM397.95312 533.625Q397.29688 533.625 396.75 533.40625Q396.21875 533.1719 395.82812 532.7656Q395.45312 532.34375 395.25 531.78125Q395.04688 531.21875 395.04688 530.5469L395.04688 530.3125Q395.04688 529.53125 395.26562 528.9219Q395.5 528.3125 395.89062 527.8906Q396.28125 527.46875 396.78125 527.2656Q397.28125 527.0469 397.8125 527.0469Q398.5 527.0469 398.98438 527.28125Q399.48438 527.5156 399.79688 527.9375Q400.125 528.34375 400.26562 528.9219Q400.42188 529.4844 400.42188 530.1406L400.42188 530.6406L395.6875 530.6406L395.6875 529.75L399.34375 529.75L399.34375 529.6719Q399.3125 529.25 399.15625 528.8594Q399.01562 528.4531 398.6875 528.2031Q398.375 527.9375 397.8125 527.9375Q397.45312 527.9375 397.14062 528.09375Q396.82812 528.25 396.59375 528.5625Q396.375 528.8594 396.25 529.2969Q396.14062 529.7344 396.14062 530.3125L396.14062 530.5469Q396.14062 531.0 396.26562 531.40625Q396.39062 531.7969 396.625 532.09375Q396.875 532.3906 397.21875 532.5625Q397.57812 532.7344 398.01562 532.7344Q398.59375 532.7344 398.98438 532.5Q399.39062 532.2656 399.6875 531.875L400.34375 532.3906Q400.14062 532.7031 399.8125 532.9844Q399.5 533.2656 399.03125 533.4531Q398.57812 533.625 397.95312 533.625ZM402.40625 528.5156L402.40625 533.5L401.32812 533.5L401.32812 527.15625L402.35938 527.15625L402.40625 528.5156ZM402.15625 530.09375L401.70312 530.0781Q401.70312 529.4219 401.89062 528.875Q402.07812 528.3125 402.42188 527.90625Q402.76562 527.5 403.23438 527.28125Q403.70312 527.0469 404.28125 527.0469Q404.75 527.0469 405.125 527.1719Q405.5 527.2969 405.76562 527.5781Q406.03125 527.84375 406.17188 528.28125Q406.3125 528.71875 406.3125 529.34375L406.3125 533.5L405.21875 533.5L405.21875 529.3281Q405.21875 528.8281 405.07812 528.53125Q404.9375 528.2344 404.65625 528.09375Q404.375 527.9531 403.95312 527.9531Q403.54688 527.9531 403.21875 528.125Q402.89062 528.2969 402.65625 528.59375Q402.42188 528.8906 402.28125 529.28125Q402.15625 529.65625 402.15625 530.09375Z" fill-rule="nonzero"/><path stroke="#cccccc" stroke-width="1.0" stroke-linecap="butt" d="M372.0 305.0L197.0 406.0" fill-rule="nonzero"/><path fill="#000000" d="M159.03125 417.51562L156.875 417.51562L156.85938 416.59375L158.82812 416.59375Q159.3125 416.59375 159.67188 416.4375Q160.03125 416.26562 160.23438 415.96875Q160.4375 415.65625 160.4375 415.23438Q160.4375 414.76562 160.25 414.46875Q160.07812 414.17188 159.70312 414.03125Q159.34375 413.89062 158.78125 413.89062L157.125 413.89062L157.125 421.5L155.98438 421.5L155.98438 412.96875L158.78125 412.96875Q159.4375 412.96875 159.95312 413.10938Q160.46875 413.23438 160.82812 413.51562Q161.1875 413.78125 161.375 414.21875Q161.5625 414.64062 161.5625 415.23438Q161.5625 415.76562 161.29688 416.20312Q161.03125 416.625 160.54688 416.89062Q160.07812 417.15625 159.4375 417.23438L159.03125 417.51562ZM158.98438 421.5L156.42188 421.5L157.0625 420.57812L158.98438 420.57812Q159.51562 420.57812 159.89062 420.39062Q160.28125 420.20312 160.46875 419.85938Q160.67188 419.51562 160.67188 419.04688Q160.67188 418.57812 160.5 418.23438Q160.32812 417.89062 159.96875 417.70312Q159.60938 417.51562 159.03125 417.51562L157.42188 417.51562L157.4375 416.59375L159.64062 416.59375L159.875 416.92188Q160.48438 416.98438 160.90625 417.28125Q161.34375 417.57812 161.5625 418.03125Q161.79688 418.48438 161.79688 419.03125Q161.79688 419.82812 161.4375 420.39062Q161.09375 420.9375 160.45312 421.21875Q159.82812 421.5 158.98438 421.5ZM166.70312 420.03125L166.70312 415.15625L167.79688 415.15625L167.79688 421.5L166.76562 421.5L166.70312 420.03125ZM166.90625 418.70312L167.35938 418.6875Q167.35938 419.3125 167.21875 419.85938Q167.09375 420.39062 166.79688 420.78125Q166.51562 421.17188 166.03125 421.40625Q165.5625 421.625 164.89062 421.625Q164.42188 421.625 164.03125 421.48438Q163.65625 421.34375 163.375 421.0625Q163.10938 420.78125 162.95312 420.32812Q162.79688 419.875 162.79688 419.25L162.79688 415.15625L163.89062 415.15625L163.89062 419.26562Q163.89062 419.6875 163.98438 419.96875Q164.07812 420.25 164.25 420.40625Q164.42188 420.5625 164.625 420.64062Q164.82812 420.70312 165.04688 420.70312Q165.75 420.70312 166.14062 420.4375Q166.54688 420.15625 166.71875 419.70312Q166.90625 419.25 166.90625 418.70312ZM171.0 412.5L171.0 421.5L169.92188 421.5L169.92188 412.5L171.0 412.5ZM173.90625 416.51562L173.90625 421.5L172.82812 421.5L172.82812 415.15625L173.85938 415.15625L173.90625 416.51562ZM173.65625 418.09375L173.20312 418.07812Q173.20312 417.42188 173.39062 416.875Q173.57812 416.3125 173.92188 415.90625Q174.26562 415.5 174.73438 415.28125Q175.20312 415.04688 175.78125 415.04688Q176.25 415.04688 176.625 415.17188Q177.0 415.29688 177.26562 415.57812Q177.53125 415.84375 177.67188 416.28125Q177.8125 416.71875 177.8125 417.34375L177.8125 421.5L176.71875 421.5L176.71875 417.32812Q176.71875 416.82812 176.57812 416.53125Q176.4375 416.23438 176.15625 416.09375Q175.875 415.95312 175.45312 415.95312Q175.04688 415.95312 174.71875 416.125Q174.39062 416.29688 174.15625 416.59375Q173.92188 416.89062 173.78125 417.28125Q173.65625 417.65625 173.65625 418.09375ZM182.45312 421.625Q181.79688 421.625 181.25 421.40625Q180.71875 421.17188 180.32812 420.76562Q179.95312 420.34375 179.75 419.78125Q179.54688 419.21875 179.54688 418.54688L179.54688 418.3125Q179.54688 417.53125 179.76562 416.92188Q180.0 416.3125 180.39062 415.89062Q180.78125 415.46875 181.28125 415.26562Q181.78125 415.04688 182.3125 415.04688Q183.0 415.04688 183.48438 415.28125Q183.98438 415.51562 184.29688 415.9375Q184.625 416.34375 184.76562 416.92188Q184.92188 417.48438 184.92188 418.14062L184.92188 418.64062L180.1875 418.64062L180.1875 417.75L183.84375 417.75L183.84375 417.67188Q183.8125 417.25 183.65625 416.85938Q183.51562 416.45312 183.1875 416.20312Q182.875 415.9375 182.3125 415.9375Q181.95312 415.9375 181.64062 416.09375Q181.32812 416.25 181.09375 416.5625Q180.875 416.85938 180.75 417.29688Q180.64062 417.73438 180.64062 418.3125L180.64062 418.54688Q180.64062 419.0 180.76562 419.40625Q180.89062 419.79688 181.125 420.09375Q181.375 420.39062 181.71875 420.5625Q182.07812 420.73438 182.51562 420.73438Q183.09375 420.73438 183.48438 420.5Q183.89062 420.26562 184.1875 419.875L184.84375 420.39062Q184.64062 420.70312 184.3125 420.98438Q184.0 421.26562 183.53125 421.45312Q183.07812 421.625 182.45312 421.625ZM189.51562 419.8125Q189.51562 419.57812 189.40625 419.375Q189.3125 419.17188 189.0 419.01562Q188.6875 418.84375 188.0625 418.71875Q187.53125 418.60938 187.10938 418.46875Q186.6875 418.3125 186.39062 418.09375Q186.09375 417.875 185.9375 417.57812Q185.78125 417.28125 185.78125 416.89062Q185.78125 416.51562 185.9375 416.1875Q186.10938 415.84375 186.40625 415.59375Q186.71875 415.32812 187.15625 415.1875Q187.59375 415.04688 188.125 415.04688Q188.89062 415.04688 189.42188 415.3125Q189.96875 415.57812 190.25 416.03125Q190.53125 416.48438 190.53125 417.01562L189.45312 417.01562Q189.45312 416.76562 189.29688 416.51562Q189.14062 416.26562 188.84375 416.10938Q188.54688 415.9375 188.125 415.9375Q187.67188 415.9375 187.39062 416.07812Q187.10938 416.20312 186.98438 416.42188Q186.85938 416.625 186.85938 416.85938Q186.85938 417.04688 186.92188 417.1875Q186.98438 417.3125 187.14062 417.4375Q187.29688 417.54688 187.57812 417.65625Q187.875 417.75 188.32812 417.84375Q189.10938 418.01562 189.60938 418.26562Q190.10938 418.51562 190.35938 418.875Q190.60938 419.21875 190.60938 419.73438Q190.60938 420.15625 190.42188 420.5Q190.25 420.84375 189.92188 421.09375Q189.60938 421.34375 189.15625 421.48438Q188.70312 421.625 188.15625 421.625Q187.3125 421.625 186.73438 421.32812Q186.15625 421.01562 185.85938 420.54688Q185.5625 420.0625 185.5625 419.54688L186.64062 419.54688Q186.67188 419.98438 186.90625 420.25Q187.14062 420.51562 187.46875 420.625Q187.8125 420.71875 188.15625 420.71875Q188.59375 420.71875 188.89062 420.60938Q189.20312 420.48438 189.35938 420.28125Q189.51562 420.07812 189.51562 419.8125ZM191.54688 418.40625L191.54688 418.26562Q191.54688 417.57812 191.73438 417.0Q191.9375 416.40625 192.3125 415.96875Q192.6875 415.53125 193.21875 415.29688Q193.75 415.04688 194.42188 415.04688Q195.07812 415.04688 195.60938 415.29688Q196.15625 415.53125 196.53125 415.96875Q196.90625 416.40625 197.10938 417.0Q197.3125 417.57812 197.3125 418.26562L197.3125 418.40625Q197.3125 419.07812 197.10938 419.67188Q196.90625 420.25 196.53125 420.6875Q196.15625 421.125 195.625 421.375Q195.09375 421.625 194.42188 421.625Q193.76562 421.625 193.21875 421.375Q192.6875 421.125 192.3125 420.6875Q191.9375 420.25 191.73438 419.67188Q191.54688 419.07812 191.54688 418.40625ZM192.625 418.26562L192.625 418.40625Q192.625 418.875 192.73438 419.29688Q192.84375 419.71875 193.0625 420.04688Q193.29688 420.35938 193.64062 420.54688Q193.98438 420.71875 194.42188 420.71875Q194.875 420.71875 195.20312 420.54688Q195.54688 420.35938 195.76562 420.04688Q196.0 419.71875 196.10938 419.29688Q196.21875 418.875 196.21875 418.40625L196.21875 418.26562Q196.21875 417.79688 196.10938 417.375Q196.0 416.95312 195.76562 416.64062Q195.54688 416.3125 195.20312 416.125Q194.875 415.9375 194.42188 415.9375Q193.96875 415.9375 193.625 416.125Q193.29688 416.3125 193.0625 416.64062Q192.84375 416.95312 192.73438 417.375Q192.625 417.79688 192.625 418.26562ZM200.0 412.5L200.0 421.5L198.92188 421.5L198.92188 412.5L200.0 412.5Z" fill-rule="nonzero"/><path stroke="#cccccc" stroke-width="1.0" stroke-linecap="butt" d="M372.0 305.0L197.0 204.0" fill-rule="nonzero"/><path fill="#000000" d="M160.03125 195.34375Q160.03125 195.04688 159.9375 194.8125Q159.85938 194.57812 159.625 194.39062Q159.40625 194.20312 159.0 194.03125Q158.60938 193.85938 158.01562 193.6875Q157.375 193.5 156.85938 193.28125Q156.35938 193.04688 155.98438 192.75Q155.625 192.4375 155.4375 192.0625Q155.25 191.67188 155.25 191.17188Q155.25 190.67188 155.45312 190.25Q155.65625 189.82812 156.03125 189.51562Q156.42188 189.20312 156.95312 189.03125Q157.48438 188.84375 158.14062 188.84375Q159.10938 188.84375 159.78125 189.21875Q160.45312 189.57812 160.79688 190.17188Q161.15625 190.76562 161.15625 191.42188L160.03125 191.42188Q160.03125 190.95312 159.8125 190.57812Q159.60938 190.20312 159.1875 190.0Q158.78125 189.78125 158.14062 189.78125Q157.54688 189.78125 157.14062 189.96875Q156.75 190.14062 156.5625 190.45312Q156.375 190.76562 156.375 191.15625Q156.375 191.42188 156.48438 191.65625Q156.60938 191.875 156.84375 192.0625Q157.09375 192.25 157.46875 192.40625Q157.84375 192.5625 158.375 192.70312Q159.09375 192.90625 159.625 193.17188Q160.15625 193.42188 160.5 193.73438Q160.84375 194.04688 161.0 194.4375Q161.17188 194.82812 161.17188 195.32812Q161.17188 195.85938 160.95312 196.28125Q160.75 196.70312 160.35938 197.0Q159.96875 197.29688 159.42188 197.46875Q158.875 197.625 158.20312 197.625Q157.60938 197.625 157.03125 197.45312Q156.46875 197.28125 156.0 196.95312Q155.53125 196.625 155.25 196.15625Q154.96875 195.67188 154.96875 195.03125L156.09375 195.03125Q156.09375 195.46875 156.26562 195.78125Q156.4375 196.09375 156.73438 196.29688Q157.03125 196.5 157.40625 196.60938Q157.78125 196.70312 158.20312 196.70312Q158.79688 196.70312 159.20312 196.54688Q159.60938 196.375 159.8125 196.07812Q160.03125 195.76562 160.03125 195.34375ZM162.04688 194.40625L162.04688 194.26562Q162.04688 193.57812 162.23438 193.0Q162.4375 192.40625 162.8125 191.96875Q163.1875 191.53125 163.71875 191.29688Q164.25 191.04688 164.92188 191.04688Q165.57812 191.04688 166.10938 191.29688Q166.65625 191.53125 167.03125 191.96875Q167.40625 192.40625 167.60938 193.0Q167.8125 193.57812 167.8125 194.26562L167.8125 194.40625Q167.8125 195.07812 167.60938 195.67188Q167.40625 196.25 167.03125 196.6875Q166.65625 197.125 166.125 197.375Q165.59375 197.625 164.92188 197.625Q164.26562 197.625 163.71875 197.375Q163.1875 197.125 162.8125 196.6875Q162.4375 196.25 162.23438 195.67188Q162.04688 195.07812 162.04688 194.40625ZM163.125 194.26562L163.125 194.40625Q163.125 194.875 163.23438 195.29688Q163.34375 195.71875 163.5625 196.04688Q163.79688 196.35938 164.14062 196.54688Q164.48438 196.71875 164.92188 196.71875Q165.375 196.71875 165.70312 196.54688Q166.04688 196.35938 166.26562 196.04688Q166.5 195.71875 166.60938 195.29688Q166.71875 194.875 166.71875 194.40625L166.71875 194.26562Q166.71875 193.79688 166.60938 193.375Q166.5 192.95312 166.26562 192.64062Q166.04688 192.3125 165.70312 192.125Q165.375 191.9375 164.92188 191.9375Q164.46875 191.9375 164.125 192.125Q163.79688 192.3125 163.5625 192.64062Q163.34375 192.95312 163.23438 193.375Q163.125 193.79688 163.125 194.26562ZM170.40625 192.51562L170.40625 197.5L169.32812 197.5L169.32812 191.15625L170.35938 191.15625L170.40625 192.51562ZM170.15625 194.09375L169.70312 194.07812Q169.70312 193.42188 169.89062 192.875Q170.07812 192.3125 170.42188 191.90625Q170.76562 191.5 171.23438 191.28125Q171.70312 191.04688 172.28125 191.04688Q172.75 191.04688 173.125 191.17188Q173.5 191.29688 173.76562 191.57812Q174.03125 191.84375 174.17188 192.28125Q174.3125 192.71875 174.3125 193.34375L174.3125 197.5L173.21875 197.5L173.21875 193.32812Q173.21875 192.82812 173.07812 192.53125Q172.9375 192.23438 172.65625 192.09375Q172.375 191.95312 171.95312 191.95312Q171.54688 191.95312 171.21875 192.125Q170.89062 192.29688 170.65625 192.59375Q170.42188 192.89062 170.28125 193.28125Q170.15625 193.65625 170.15625 194.09375ZM180.01562 195.8125Q180.01562 195.57812 179.90625 195.375Q179.8125 195.17188 179.5 195.01562Q179.1875 194.84375 178.5625 194.71875Q178.03125 194.60938 177.60938 194.46875Q177.1875 194.3125 176.89062 194.09375Q176.59375 193.875 176.4375 193.57812Q176.28125 193.28125 176.28125 192.89062Q176.28125 192.51562 176.4375 192.1875Q176.60938 191.84375 176.90625 191.59375Q177.21875 191.32812 177.65625 191.1875Q178.09375 191.04688 178.625 191.04688Q179.39062 191.04688 179.92188 191.3125Q180.46875 191.57812 180.75 192.03125Q181.03125 192.48438 181.03125 193.01562L179.95312 193.01562Q179.95312 192.76562 179.79688 192.51562Q179.64062 192.26562 179.34375 192.10938Q179.04688 191.9375 178.625 191.9375Q178.17188 191.9375 177.89062 192.07812Q177.60938 192.20312 177.48438 192.42188Q177.35938 192.625 177.35938 192.85938Q177.35938 193.04688 177.42188 193.1875Q177.48438 193.3125 177.64062 193.4375Q177.79688 193.54688 178.07812 193.65625Q178.375 193.75 178.82812 193.84375Q179.60938 194.01562 180.10938 194.26562Q180.60938 194.51562 180.85938 194.875Q181.10938 195.21875 181.10938 195.73438Q181.10938 196.15625 180.92188 196.5Q180.75 196.84375 180.42188 197.09375Q180.10938 197.34375 179.65625 197.48438Q179.20312 197.625 178.65625 197.625Q177.8125 197.625 177.23438 197.32812Q176.65625 197.01562 176.35938 196.54688Q176.0625 196.0625 176.0625 195.54688L177.14062 195.54688Q177.17188 195.98438 177.40625 196.25Q177.64062 196.51562 177.96875 196.625Q178.3125 196.71875 178.65625 196.71875Q179.09375 196.71875 179.39062 196.60938Q179.70312 196.48438 179.85938 196.28125Q180.01562 196.07812 180.01562 195.8125ZM184.98438 191.15625L184.98438 191.98438L181.54688 191.98438L181.54688 191.15625L184.98438 191.15625ZM182.71875 189.625L183.79688 189.625L183.79688 195.92188Q183.79688 196.25 183.89062 196.42188Q184.0 196.57812 184.15625 196.64062Q184.3125 196.6875 184.5 196.6875Q184.625 196.6875 184.76562 196.65625Q184.92188 196.625 185.0 196.60938L185.01562 197.5Q184.875 197.54688 184.67188 197.57812Q184.46875 197.625 184.17188 197.625Q183.78125 197.625 183.4375 197.46875Q183.10938 197.29688 182.90625 196.9375Q182.71875 196.5625 182.71875 195.92188L182.71875 189.625ZM187.5 191.15625L187.5 197.5L186.42188 197.5L186.42188 191.15625L187.5 191.15625ZM186.32812 189.48438Q186.32812 189.21875 186.48438 189.03125Q186.65625 188.84375 186.96875 188.84375Q187.28125 188.84375 187.4375 189.03125Q187.60938 189.21875 187.60938 189.48438Q187.60938 189.73438 187.4375 189.92188Q187.28125 190.09375 186.96875 190.09375Q186.65625 190.09375 186.48438 189.92188Q186.32812 189.73438 186.32812 189.48438ZM193.4375 191.15625L194.42188 191.15625L194.42188 197.35938Q194.42188 198.20312 194.07812 198.79688Q193.73438 199.39062 193.125 199.6875Q192.53125 200.0 191.73438 200.0Q191.40625 200.0 190.95312 199.89062Q190.51562 199.79688 190.09375 199.54688Q189.67188 199.3125 189.39062 198.90625L189.95312 198.25Q190.35938 198.73438 190.78125 198.92188Q191.21875 199.10938 191.65625 199.10938Q192.17188 199.10938 192.54688 198.90625Q192.92188 198.71875 193.125 198.34375Q193.32812 197.96875 193.32812 197.42188L193.32812 192.54688L193.4375 191.15625ZM189.0625 194.40625L189.0625 194.28125Q189.0625 193.54688 189.23438 192.95312Q189.42188 192.35938 189.73438 191.9375Q190.0625 191.5 190.51562 191.28125Q190.98438 191.04688 191.57812 191.04688Q192.17188 191.04688 192.60938 191.25Q193.0625 191.45312 193.375 191.85938Q193.6875 192.25 193.875 192.8125Q194.0625 193.35938 194.125 194.0625L194.125 194.60938Q194.0625 195.29688 193.875 195.85938Q193.6875 196.42188 193.375 196.8125Q193.0625 197.20312 192.60938 197.42188Q192.15625 197.625 191.5625 197.625Q190.98438 197.625 190.53125 197.39062Q190.07812 197.14062 189.75 196.70312Q189.42188 196.26562 189.23438 195.6875Q189.0625 195.09375 189.0625 194.40625ZM190.15625 194.28125L190.15625 194.40625Q190.15625 194.875 190.25 195.29688Q190.34375 195.70312 190.54688 196.03125Q190.75 196.34375 191.0625 196.53125Q191.39062 196.70312 191.82812 196.70312Q192.35938 196.70312 192.70312 196.46875Q193.0625 196.23438 193.26562 195.85938Q193.48438 195.48438 193.59375 195.04688L193.59375 193.64062Q193.53125 193.3125 193.39062 193.01562Q193.26562 192.71875 193.0625 192.48438Q192.85938 192.23438 192.54688 192.09375Q192.25 191.95312 191.82812 191.95312Q191.39062 191.95312 191.0625 192.14062Q190.75 192.32812 190.54688 192.65625Q190.34375 192.96875 190.25 193.39062Q190.15625 193.79688 190.15625 194.28125ZM198.95312 197.625Q198.29688 197.625 197.75 197.40625Q197.21875 197.17188 196.82812 196.76562Q196.45312 196.34375 196.25 195.78125Q196.04688 195.21875 196.04688 194.54688L196.04688 194.3125Q196.04688 193.53125 196.26562 192.92188Q196.5 192.3125 196.89062 191.89062Q197.28125 191.46875 197.78125 191.26562Q198.28125 191.04688 198.8125 191.04688Q199.5 191.04688 199.98438 191.28125Q200.48438 191.51562 200.79688 191.9375Q201.125 192.34375 201.26562 192.92188Q201.42188 193.48438 201.42188 194.14062L201.42188 194.64062L196.6875 194.64062L196.6875 193.75L200.34375 193.75L200.34375 193.67188Q200.3125 193.25 200.15625 192.85938Q200.01562 192.45312 199.6875 192.20312Q199.375 191.9375 198.8125 191.9375Q198.45312 191.9375 198.14062 192.09375Q197.82812 192.25 197.59375 192.5625Q197.375 192.85938 197.25 193.29688Q197.14062 193.73438 197.14062 194.3125L197.14062 194.54688Q197.14062 195.0 197.26562 195.40625Q197.39062 195.79688 197.625 196.09375Q197.875 196.39062 198.21875 196.5625Q198.57812 196.73438 199.01562 196.73438Q199.59375 196.73438 199.98438 196.5Q200.39062 196.26562 200.6875 195.875L201.34375 196.39062Q201.14062 196.70312 200.8125 196.98438Q200.5 197.26562 200.03125 197.45312Q199.57812 197.625 198.95312 197.625Z" fill-rule="nonzero"/><path stroke="#cccccc" stroke-width="1.0" stroke-linecap="butt" d="M372.0 305.0L372.0 103.0" fill-rule="nonzero"/><path stroke="#ff0000" stroke-width="2.0" stroke-linecap="butt" stroke-opacity="0.7019608" stroke-dasharray="8.0,6.0,2.0,6.0" d="M372.0 154.0L433.0 270.0L411.0 328.0L372.0 335.0L359.0 313.0L175.0 192.0Z" fill-rule="nonzero"/><path fill="#ff0000" fill-opacity="0.7019608" d="M368.81802 150.81802L372.0 152.875L375.18198 150.81802L373.125 154.0L375.18198 157.18198L372.0 155.125L368.81802 157.18198L370.875 154.0Z" fill-rule="nonzero"/><path fill="#ff0000" fill-opacity="0.7019608" d="M429.81802 266.81802L433.0 268.875L436.18198 266.81802L434.125 270.0L436.18198 273.18198L433.0 271.125L429.81802 273.18198L431.875 270.0Z" fill-rule="nonzero"/><path fill="#ff0000" fill-opacity="0.7019608" d="M407.81802 324.81802L411.0 326.875L414.18198 324.81802L412.125 328.0L414.18198 331.18198L411.0 329.125L407.81802 331.18198L409.875 328.0Z" fill-rule="nonzero"/><path fill="#ff0000" fill-opacity="0.7019608" d="M368.81802 331.81802L372.0 333.875L375.18198 331.81802L373.125 335.0L375.18198 338.18198L372.0 336.125L368.81802 338.18198L370.875 335.0Z" fill-rule="nonzero"/><path fill="#ff0000" fill-opacity="0.7019608" d="M355.81802 309.81802L359.0 311.875L362.18198 309.81802L360.125 313.0L362.18198 316.18198L359.0 314.125L355.81802 316.18198L357.875 313.0Z" fill-rule="nonzero"/><path fill="#ff0000" fill-opacity="0.7019608" d="M171.81802 188.81802L175.0 190.875L178.18198 188.81802L176.125 192.0L178.18198 195.18198L175.0 193.125L171.81802 195.18198L173.875 192.0Z" fill-rule="nonzero"/><path fill="#757575" d="M29.834375 47.35L29.834375 33.0375L32.69375 33.0375L36.06875 43.1625Q36.5375 44.584373 36.75625 45.2875Q37.00625 44.50625 37.521873 42.990623L40.94375 33.0375L43.490623 33.0375L43.490623 47.35L41.678123 47.35L41.678123 35.365623L37.50625 47.35L35.803123 47.35L31.6625 35.1625L31.6625 47.35L29.834375 47.35ZM53.44375 46.06875Q52.459373 46.896873 51.553123 47.240623Q50.646873 47.584373 49.615623 47.584373Q47.9125 47.584373 46.990623 46.75625Q46.06875 45.9125 46.06875 44.615623Q46.06875 43.85 46.4125 43.225Q46.771873 42.6 47.334373 42.225Q47.896873 41.834373 48.6 41.63125Q49.115623 41.50625 50.1625 41.365623Q52.2875 41.115623 53.2875 40.771873Q53.303123 40.4125 53.303123 40.303123Q53.303123 39.240623 52.803123 38.7875Q52.13125 38.19375 50.803123 38.19375Q49.553123 38.19375 48.959373 38.63125Q48.38125 39.06875 48.1 40.178123L46.38125 39.94375Q46.615623 38.834373 47.146873 38.1625Q47.678123 37.475 48.69375 37.115623Q49.709373 36.740623 51.053123 36.740623Q52.38125 36.740623 53.209373 37.053123Q54.0375 37.365623 54.428123 37.85Q54.81875 38.31875 54.975 39.0375Q55.06875 39.490623 55.06875 40.6625L55.06875 43.00625Q55.06875 45.459373 55.178123 46.115623Q55.2875 46.75625 55.63125 47.35L53.7875 47.35Q53.521873 46.803123 53.44375 46.06875ZM53.2875 42.146873Q52.334373 42.5375 50.4125 42.803123Q49.334373 42.959373 48.88125 43.1625Q48.44375 43.35 48.19375 43.725Q47.94375 44.1 47.94375 44.56875Q47.94375 45.271873 48.475 45.740623Q49.00625 46.209373 50.0375 46.209373Q51.053123 46.209373 51.834373 45.771873Q52.63125 45.31875 53.00625 44.553123Q53.2875 43.94375 53.2875 42.7875L53.2875 42.146873ZM56.959373 44.25625L58.709373 43.975Q58.85 45.021873 59.521873 45.584373Q60.19375 46.13125 61.396873 46.13125Q62.6 46.13125 63.178123 45.646873Q63.771873 45.146873 63.771873 44.490623Q63.771873 43.896873 63.25625 43.553123Q62.896873 43.31875 61.459373 42.959373Q59.521873 42.459373 58.771873 42.115623Q58.0375 41.75625 57.646873 41.13125Q57.25625 40.490623 57.25625 39.725Q57.25625 39.0375 57.56875 38.44375Q57.896873 37.85 58.44375 37.459373Q58.85 37.1625 59.553123 36.959373Q60.271873 36.740623 61.084373 36.740623Q62.303123 36.740623 63.225 37.1Q64.14687 37.44375 64.58437 38.053123Q65.02187 38.646873 65.19375 39.646873L63.475 39.88125Q63.35 39.084373 62.7875 38.646873Q62.225 38.19375 61.209373 38.19375Q59.990623 38.19375 59.475 38.6Q58.959373 38.990623 58.959373 39.521873Q58.959373 39.865623 59.178123 40.146873Q59.38125 40.428123 59.85 40.615623Q60.115623 40.709373 61.396873 41.053123Q63.271873 41.553123 64.00625 41.88125Q64.74062 42.19375 65.1625 42.803123Q65.58437 43.396873 65.58437 44.303123Q65.58437 45.178123 65.06875 45.959373Q64.55312 46.740623 63.584373 47.1625Q62.615623 47.584373 61.396873 47.584373Q59.38125 47.584373 58.31875 46.740623Q57.25625 45.896873 56.959373 44.25625ZM71.50625 45.771873L71.75625 47.334373Q71.02187 47.490623 70.42812 47.490623Q69.475 47.490623 68.94375 47.19375Q68.42812 46.88125 68.20937 46.396873Q67.99062 45.896873 67.99062 44.31875L67.99062 38.35L66.70937 38.35L66.70937 36.975L67.99062 36.975L67.99062 34.4125L69.74062 33.35L69.74062 36.975L71.50625 36.975L71.50625 38.35L69.74062 38.35L69.74062 44.4125Q69.74062 45.1625 69.83437 45.38125Q69.92812 45.584373 70.13125 45.725Q70.35 45.85 70.74062 45.85Q71.02187 45.85 71.50625 45.771873ZM80.77187 44.00625L82.58437 44.240623Q82.1625 45.81875 80.99062 46.709373Q79.83437 47.584373 78.02187 47.584373Q75.75625 47.584373 74.4125 46.19375Q73.08437 44.7875 73.08437 42.25625Q73.08437 39.63125 74.42812 38.19375Q75.77187 36.740623 77.92812 36.740623Q80.00625 36.740623 81.31875 38.1625Q82.64687 39.56875 82.64687 42.146873Q82.64687 42.303123 82.63125 42.615623L74.89687 42.615623Q74.99062 44.31875 75.86562 45.225Q76.74062 46.13125 78.0375 46.13125Q79.00625 46.13125 79.67812 45.63125Q80.36562 45.115623 80.77187 44.00625ZM74.99062 41.1625L80.7875 41.1625Q80.67812 39.865623 80.13125 39.209373Q79.2875 38.19375 77.94375 38.19375Q76.74062 38.19375 75.9125 39.00625Q75.08437 39.803123 74.99062 41.1625ZM84.64687 47.35L84.64687 36.975L86.225 36.975L86.225 38.553123Q86.83437 37.44375 87.35 37.1Q87.86562 36.740623 88.475 36.740623Q89.36562 36.740623 90.2875 37.303123L89.67812 38.94375Q89.0375 38.553123 88.39687 38.553123Q87.81875 38.553123 87.35 38.9125Q86.89687 39.25625 86.69375 39.865623Q86.4125 40.803123 86.4125 41.9125L86.4125 47.35L84.64687 47.35ZM91.6625 51.31875L91.6625 36.975L93.27187 36.975L93.27187 38.31875Q93.83437 37.5375 94.5375 37.146873Q95.25625 36.740623 96.27187 36.740623Q97.6 36.740623 98.61562 37.428123Q99.63125 38.115623 100.14687 39.365623Q100.67812 40.6 100.67812 42.084373Q100.67812 43.678123 100.1 44.959373Q99.5375 46.225 98.44375 46.9125Q97.35 47.584373 96.14687 47.584373Q95.27187 47.584373 94.56875 47.209373Q93.88125 46.834373 93.42812 46.271873L93.42812 51.31875L91.6625 51.31875ZM93.25625 42.225Q93.25625 44.225 94.06875 45.178123Q94.88125 46.13125 96.0375 46.13125Q97.20937 46.13125 98.0375 45.146873Q98.88125 44.1625 98.88125 42.06875Q98.88125 40.1 98.05312 39.115623Q97.24062 38.115623 96.11562 38.115623Q94.99062 38.115623 94.11562 39.178123Q93.25625 40.225 93.25625 42.225ZM102.67812 35.053123L102.67812 33.0375L104.44375 33.0375L104.44375 35.053123L102.67812 35.053123ZM102.67812 47.35L102.67812 36.975L104.44375 36.975L104.44375 47.35L102.67812 47.35ZM113.77187 44.00625L115.58437 44.240623Q115.1625 45.81875 113.99062 46.709373Q112.83437 47.584373 111.02187 47.584373Q108.75625 47.584373 107.4125 46.19375Q106.08437 44.7875 106.08437 42.25625Q106.08437 39.63125 107.42812 38.19375Q108.77187 36.740623 110.92812 36.740623Q113.00625 36.740623 114.31875 38.1625Q115.64687 39.56875 115.64687 42.146873Q115.64687 42.303123 115.63125 42.615623L107.89687 42.615623Q107.99062 44.31875 108.86562 45.225Q109.74062 46.13125 111.0375 46.13125Q112.00625 46.13125 112.67812 45.63125Q113.36562 45.115623 113.77187 44.00625ZM107.99062 41.1625L113.7875 41.1625Q113.67812 39.865623 113.13125 39.209373Q112.2875 38.19375 110.94375 38.19375Q109.74062 38.19375 108.9125 39.00625Q108.08437 39.803123 107.99062 41.1625ZM124.44375 43.553123L126.1625 43.771873Q125.88125 45.56875 124.70937 46.584373Q123.55312 47.584373 121.85 47.584373Q119.725 47.584373 118.42812 46.19375Q117.13125 44.803123 117.13125 42.209373Q117.13125 40.521873 117.67812 39.271873Q118.24062 38.00625 119.38125 37.38125Q120.52187 36.740623 121.86562 36.740623Q123.55312 36.740623 124.61562 37.6Q125.69375 38.459373 126.00625 40.021873L124.2875 40.2875Q124.05312 39.240623 123.42812 38.725Q122.80312 38.19375 121.92812 38.19375Q120.6 38.19375 119.77187 39.146873Q118.94375 40.1 118.94375 42.146873Q118.94375 44.240623 119.74062 45.19375Q120.5375 46.13125 121.83437 46.13125Q122.86562 46.13125 123.55312 45.50625Q124.25625 44.865623 124.44375 43.553123ZM134.77188 44.00625L136.58438 44.240623Q136.1625 45.81875 134.99063 46.709373Q133.83438 47.584373 132.02188 47.584373Q129.75626 47.584373 128.4125 46.19375Q127.08437 44.7875 127.08437 42.25625Q127.08437 39.63125 128.42813 38.19375Q129.77188 36.740623 131.92813 36.740623Q134.00626 36.740623 135.31876 38.1625Q136.64688 39.56875 136.64688 42.146873Q136.64688 42.303123 136.63126 42.615623L128.89688 42.615623Q128.99063 44.31875 129.86563 45.225Q130.74063 46.13125 132.0375 46.13125Q133.00626 46.13125 133.67813 45.63125Q134.36563 45.115623 134.77188 44.00625ZM128.99063 41.1625L134.7875 41.1625Q134.67813 39.865623 134.13126 39.209373Q133.2875 38.19375 131.94376 38.19375Q130.74063 38.19375 129.9125 39.00625Q129.08438 39.803123 128.99063 41.1625Z" fill-rule="nonzero"/></svg>