<svg version="1.1" viewBox="0.0 0.0 690.0 571.0" fill="none" stroke="none" stroke-linecap="square" stroke-miterlimit="10" width="690" height="571" xmlns:xlink="http://www.w3.org/1999/xlink" xmlns="http://www.w3.org/2000/svg"><path fill="#ffffff" d="M0 0L690.0 0L690.0 571.0L0 571.0L0 0Z" fill-rule="nonzero"/><path fill="#ffffff" d="M28.55 105.5L661.45 105.5L661.45 542.45L28.55 542.45L28.55 105.5Z" fill-rule="nonzero"/><path stroke="#cccccc" stroke-width="1.0" stroke-linecap="butt" d="M345.0 324.0C345.0 324.0 345.0 324.0 345.0 324.0C345.0 324.0 345.0 324.0 345.0 324.0C345.0 324.0 345.0 324.0 345.0 324.0C345.0 324.0 345.0 324.0 345.0 324.0" fill-rule="nonzero"/><path fill="#000000" d="M333.0625 316.04688L333.0625 317.35938Q333.0625 318.40625 332.875 319.125Q332.6875 319.84375 332.32812 320.28125Q331.98438 320.71875 331.48438 320.92188Q331.0 321.125 330.375 321.125Q329.89062 321.125 329.46875 321.0Q329.04688 320.875 328.71875 320.60938Q328.39062 320.32812 328.15625 319.89062Q327.92188 319.45312 327.79688 318.82812Q327.67188 318.1875 327.67188 317.35938L327.67188 316.04688Q327.67188 315.0 327.85938 314.29688Q328.0625 313.59375 328.40625 313.15625Q328.76562 312.71875 329.25 312.53125Q329.75 312.34375 330.35938 312.34375Q330.85938 312.34375 331.28125 312.46875Q331.70312 312.59375 332.03125 312.85938Q332.35938 313.10938 332.57812 313.54688Q332.8125 313.96875 332.9375 314.59375Q333.0625 315.21875 333.0625 316.04688ZM331.96875 317.53125L331.96875 315.875Q331.96875 315.29688 331.90625 314.85938Q331.84375 314.42188 331.70312 314.10938Q331.57812 313.79688 331.375 313.60938Q331.1875 313.42188 330.9375 313.32812Q330.6875 313.23438 330.35938 313.23438Q329.98438 313.23438 329.67188 313.375Q329.375 313.51562 329.17188 313.82812Q328.96875 314.14062 328.85938 314.65625Q328.76562 315.15625 328.76562 315.875L328.76562 317.53125Q328.76562 318.10938 328.82812 318.54688Q328.90625 318.98438 329.03125 319.3125Q329.17188 319.625 329.35938 319.82812Q329.5625 320.03125 329.8125 320.125Q330.0625 320.21875 330.375 320.21875Q330.78125 320.21875 331.07812 320.07812Q331.375 319.92188 331.57812 319.59375Q331.78125 319.26562 331.875 318.76562Q331.96875 318.25 331.96875 317.53125ZM335.8125 319.70312L335.8125 320.57812Q335.8125 321.125 335.53125 321.71875Q335.26562 322.3125 334.78125 322.70312L334.17188 322.28125Q334.35938 322.01562 334.48438 321.75Q334.60938 321.48438 334.67188 321.20312Q334.75 320.92188 334.75 320.59375L334.75 319.70312L335.8125 319.70312ZM342.0625 316.04688L342.0625 317.35938Q342.0625 318.40625 341.875 319.125Q341.6875 319.84375 341.32812 320.28125Q340.98438 320.71875 340.48438 320.92188Q340.0 321.125 339.375 321.125Q338.89062 321.125 338.46875 321.0Q338.04688 320.875 337.71875 320.60938Q337.39062 320.32812 337.15625 319.89062Q336.92188 319.45312 336.79688 318.82812Q336.67188 318.1875 336.67188 317.35938L336.67188 316.04688Q336.67188 315.0 336.85938 314.29688Q337.0625 313.59375 337.40625 313.15625Q337.76562 312.71875 338.25 312.53125Q338.75 312.34375 339.35938 312.34375Q339.85938 312.34375 340.28125 312.46875Q340.70312 312.59375 341.03125 312.85938Q341.35938 313.10938 341.57812 313.54688Q341.8125 313.96875 341.9375 314.59375Q342.0625 315.21875 342.0625 316.04688ZM340.96875 317.53125L340.96875 315.875Q340.96875 315.29688 340.90625 314.85938Q340.84375 314.42188 340.70312 314.10938Q340.57812 313.79688 340.375 313.60938Q340.1875 313.42188 339.9375 313.32812Q339.6875 313.23438 339.35938 313.23438Q338.98438 313.23438 338.67188 313.375Q338.375 313.51562 338.17188 313.82812Q337.96875 314.14062 337.85938 314.65625Q337.76562 315.15625 337.76562 315.875L337.76562 317.53125Q337.76562 318.10938 337.82812 318.54688Q337.90625 318.98438 338.03125 319.3125Q338.17188 319.625 338.35938 319.82812Q338.5625 320.03125 338.8125 320.125Q339.0625 320.21875 339.375 320.21875Q339.78125 320.21875 340.07812 320.07812Q340.375 319.92188 340.57812 319.59375Q340.78125 319.26562 340.875 318.76562Q340.96875 318.25 340.96875 317.53125Z" fill-rule="nonzero"/><path stroke="#cccccc" stroke-width="1.0" stroke-linecap="butt" d="M391.61874 324.0C391.61874 298.25317 370.74683 277.38126 345.0 277.38126C319.25317 277.38126 298.38126 298.25317 298.38126 324.0C298.38126 349.74683 319.25317 370.61874 345.0 370.61874C370.74683 370.61874 391.61874 349.74683 391.61874 324.0" fill-rule="nonzero"/><path fill="#000000" d="M333.0625 269.42813L333.0625 270.74063Q333.0625 271.7875 332.875 272.50626Q332.6875 273.225 332.32812 273.6625Q331.98438 274.1 331.48438 274.30313Q331.0 274.50626 330.375 274.50626Q329.89062 274.50626 329.46875 274.38126Q329.04688 274.25626 328.71875 273.99063Q328.39062 273.70938 328.15625 273.27188Q327.92188 272.83438 327.79688 272.20938Q327.67188 271.56876 327.67188 270.74063L327.67188 269.42813Q327.67188 268.38126 327.85938 267.67813Q328.0625 266.975 328.40625 266.5375Q328.76562 266.1 329.25 265.9125Q329.75 265.725 330.35938 265.725Q330.85938 265.725 331.28125 265.85Q331.70312 265.975 332.03125 266.24063Q332.35938 266.49063 332.57812 266.92813Q332.8125 267.35 332.9375 267.975Q333.0625 268.6 333.0625 269.42813ZM331.96875 270.9125L331.96875 269.25626Q331.96875 268.67813 331.90625 268.24063Q331.84375 267.80313 331.70312 267.49063Q331.57812 267.17813 331.375 266.99063Q331.1875 266.80313 330.9375 266.70938Q330.6875 266.61563 330.35938 266.61563Q329.98438 266.61563 329.67188 266.75626Q329.375 266.89688 329.17188 267.20938Q328.96875 267.52188 328.85938 268.0375Q328.76562 268.5375 328.76562 269.25626L328.76562 270.9125Q328.76562 271.49063 328.82812 271.92813Q328.90625 272.36563 329.03125 272.69376Q329.17188 273.00626 329.35938 273.20938Q329.5625 273.4125 329.8125 273.50626Q330.0625 273.6 330.375 273.6Q330.78125 273.6 331.07812 273.45938Q331.375 273.30313 331.57812 272.975Q331.78125 272.64688 331.875 272.14688Q331.96875 271.63126 331.96875 270.9125ZM335.8125 273.08438L335.8125 273.95938Q335.8125 274.50626 335.53125 275.1Q335.26562 275.69376 334.78125 276.08438L334.17188 275.6625Q334.35938 275.39688 334.48438 275.13126Q334.60938 274.86563 334.67188 274.58438Q334.75 274.30313 334.75 273.975L334.75 273.08438L335.8125 273.08438ZM340.26562 265.80313L340.26562 274.38126L339.1875 274.38126L339.1875 267.1625L337.0 267.95938L337.0 266.975L340.10938 265.80313L340.26562 265.80313Z" fill-rule="nonzero"/><path stroke="#cccccc" stroke-width="1.0" stroke-linecap="butt" d="M438.2375 324.0C438.2375 272.50635 396.49365 230.7625 345.0 230.7625C293.50635 230.7625 251.7625 272.50635 251.7625 324.0C251.7625 375.49365 293.50635 417.2375 345.0 417.2375C396.49365 417.2375 438.2375 375.49365 438.2375 324.0" fill-rule="nonzero"/><path fill="#000000" d="M333.0625 222.80937L333.0625 224.12187Q333.0625 225.16875 332.875 225.8875Q332.6875 226.60625 332.32812 227.04375Q331.98438 227.48125 331.48438 227.68437Q331.0 227.8875 330.375 227.8875Q329.89062 227.8875 329.46875 227.7625Q329.04688 227.6375 328.71875 227.37187Q328.39062 227.09062 328.15625 226.65312Q327.92188 226.21562 327.79688 225.59062Q327.67188 224.95 327.67188 224.12187L327.67188 222.80937Q327.67188 221.7625 327.85938 221.05937Q328.0625 220.35625 328.40625 219.91875Q328.76562 219.48125 329.25 219.29375Q329.75 219.10625 330.35938 219.10625Q330.85938 219.10625 331.28125 219.23125Q331.70312 219.35625 332.03125 219.62187Q332.35938 219.87187 332.57812 220.30937Q332.8125 220.73125 332.9375 221.35625Q333.0625 221.98125 333.0625 222.80937ZM331.96875 224.29375L331.96875 222.6375Q331.96875 222.05937 331.90625 221.62187Q331.84375 221.18437 331.70312 220.87187Q331.57812 220.55937 331.375 220.37187Q331.1875 220.18437 330.9375 220.09062Q330.6875 219.99687 330.35938 219.99687Q329.98438 219.99687 329.67188 220.1375Q329.375 220.27812 329.17188 220.59062Q328.96875 220.90312 328.85938 221.41875Q328.76562 221.91875 328.76562 222.6375L328.76562 224.29375Q328.76562 224.87187 328.82812 225.30937Q328.90625 225.74687 329.03125 226.075Q329.17188 226.3875 329.35938 226.59062Q329.5625 226.79375 329.8125 226.8875Q330.0625 226.98125 330.375 226.98125Q330.78125 226.98125 331.07812 226.84062Q331.375 226.68437 331.57812 226.35625Q331.78125 226.02812 331.875 225.52812Q331.96875 225.0125 331.96875 224.29375ZM335.8125 226.46562L335.8125 227.34062Q335.8125 227.8875 335.53125 228.48125Q335.26562 229.075 334.78125 229.46562L334.17188 229.04375Q334.35938 228.77812 334.48438 228.5125Q334.60938 228.24687 334.67188 227.96562Q334.75 227.68437 334.75 227.35625L334.75 226.46562L335.8125 226.46562ZM342.29688 226.87187L342.29688 227.7625L336.71875 227.7625L336.71875 226.98125L339.51562 223.87187Q340.03125 223.29375 340.3125 222.90312Q340.59375 222.49687 340.70312 222.18437Q340.82812 221.85625 340.82812 221.52812Q340.82812 221.10625 340.65625 220.7625Q340.48438 220.41875 340.14062 220.21562Q339.8125 219.99687 339.32812 219.99687Q338.76562 219.99687 338.39062 220.23125Q338.01562 220.45 337.82812 220.84062Q337.64062 221.23125 337.64062 221.73125L336.54688 221.73125Q336.54688 221.0125 336.85938 220.41875Q337.1875 219.825 337.79688 219.46562Q338.42188 219.10625 339.32812 219.10625Q340.14062 219.10625 340.71875 219.40312Q341.29688 219.68437 341.59375 220.2Q341.90625 220.7 341.90625 221.3875Q341.90625 221.7625 341.78125 222.15312Q341.65625 222.52812 341.4375 222.91875Q341.21875 223.29375 340.92188 223.66875Q340.64062 224.02812 340.3125 224.3875L338.01562 226.87187L342.29688 226.87187Z" fill-rule="nonzero"/><path stroke="#cccccc" stroke-width="1.0" stroke-linecap="butt" d="M484.85626 324.0C484.85626 246.75952 422.24048 184.14375 345.0 184.14375C267.75952 184.14375 205.14375 246.75952 205.14375 324.0C205.14375 401.24048 267.75952 463.85626 345.0 463.85626C422.24048 463.85626 484.85626 401.24048 484.85626 324.0" fill-rule="nonzero"/><path fill="#000000" d="M333.0625 176.19063L333.0625 177.50313Q333.0625 178.55 332.875 179.26875Q332.6875 179.9875 332.32812 180.425Q331.98438 180.8625 331.48438 181.06563Q331.0 181.26875 330.375 181.26875Q329.89062 181.26875 329.46875 181.14375Q329.04688 181.01875 328.71875 180.75313Q328.39062 180.47188 328.15625 180.03438Q327.92188 179.59688 327.79688 178.97188Q327.67188 178.33125 327.67188 177.50313L327.67188 176.19063Q327.67188 175.14375 327.85938 174.44063Q328.0625 173.7375 328.40625 173.3Q328.76562 172.8625 329.25 172.675Q329.75 172.4875 330.35938 172.4875Q330.85938 172.4875 331.28125 172.6125Q331.70312 172.7375 332.03125 173.00313Q332.35938 173.25313 332.57812 173.69063Q332.8125 174.1125 332.9375 174.7375Q333.0625 175.3625 333.0625 176.19063ZM331.96875 177.675L331.96875 176.01875Q331.96875 175.44063 331.90625 175.00313Q331.84375 174.56563 331.70312 174.25313Q331.57812 173.94063 331.375 173.75313Q331.1875 173.56563 330.9375 173.47188Q330.6875 173.37813 330.35938 173.37813Q329.98438 173.37813 329.67188 173.51875Q329.375 173.65938 329.17188 173.97188Q328.96875 174.28438 328.85938 174.8Q328.76562 175.3 328.76562 176.01875L328.76562 177.675Q328.76562 178.25313 328.82812 178.69063Q328.90625 179.12813 329.03125 179.45625Q329.17188 179.76875 329.35938 179.97188Q329.5625 180.175 329.8125 180.26875Q330.0625 180.3625 330.375 180.3625Q330.78125 180.3625 331.07812 180.22188Q331.375 180.06563 331.57812 179.7375Q331.78125 179.40938 331.875 178.90938Q331.96875 178.39375 331.96875 177.675ZM335.8125 179.84688L335.8125 180.72188Q335.8125 181.26875 335.53125 181.8625Q335.26562 182.45625 334.78125 182.84688L334.17188 182.425Q334.35938 182.15938 334.48438 181.89375Q334.60938 181.62813 334.67188 181.34688Q334.75 181.06563 334.75 180.7375L334.75 179.84688L335.8125 179.84688ZM338.29688 176.34688L339.0625 176.34688Q339.64062 176.34688 340.0 176.15938Q340.375 175.95625 340.5625 175.62813Q340.75 175.3 340.75 174.87813Q340.75 174.39375 340.57812 174.06563Q340.42188 173.72188 340.09375 173.55Q339.76562 173.37813 339.26562 173.37813Q338.79688 173.37813 338.45312 173.56563Q338.10938 173.7375 337.90625 174.06563Q337.71875 174.39375 337.71875 174.84688L336.625 174.84688Q336.625 174.19063 336.95312 173.65938Q337.28125 173.12813 337.875 172.81563Q338.46875 172.4875 339.26562 172.4875Q340.03125 172.4875 340.60938 172.76875Q341.1875 173.03438 341.51562 173.58125Q341.84375 174.1125 341.84375 174.90938Q341.84375 175.2375 341.6875 175.59688Q341.53125 175.95625 341.21875 176.28438Q340.90625 176.59688 340.40625 176.8Q339.92188 177.00313 339.21875 177.00313L338.29688 177.00313L338.29688 176.34688ZM338.29688 177.2375L338.29688 176.58125L339.21875 176.58125Q340.03125 176.58125 340.5625 176.78438Q341.09375 176.97188 341.40625 177.3Q341.71875 177.6125 341.84375 178.00313Q341.96875 178.37813 341.96875 178.76875Q341.96875 179.3625 341.76562 179.83125Q341.5625 180.28438 341.1875 180.6125Q340.82812 180.925 340.32812 181.09688Q339.84375 181.26875 339.26562 181.26875Q338.70312 181.26875 338.21875 181.1125Q337.73438 180.94063 337.35938 180.64375Q336.98438 180.34688 336.76562 179.90938Q336.5625 179.45625 336.5625 178.89375L337.64062 178.89375Q337.64062 179.33125 337.82812 179.675Q338.03125 180.00313 338.39062 180.19063Q338.76562 180.3625 339.26562 180.3625Q339.76562 180.3625 340.125 180.19063Q340.48438 180.01875 340.67188 179.675Q340.875 179.31563 340.875 178.78438Q340.875 178.25313 340.65625 177.90938Q340.4375 177.56563 340.01562 177.40938Q339.60938 177.2375 339.0625 177.2375L338.29688 177.2375Z" fill-rule="nonzero"/><path stroke="#cccccc" stroke-width="1.0" stroke-linecap="butt" d="M531.475 324.0C531.475 221.0127 447.9873 137.525 345.0 137.525C242.0127 137.525 158.525 221.0127 158.525 324.0C158.525 426.9873 242.0127 510.475 345.0 510.475C447.9873 510.475 531.475 426.9873 531.475 324.0" fill-rule="nonzero"/><path fill="#000000" d="M333.0625 129.57187L333.0625 130.88437Q333.0625 131.93124 332.875 132.65Q332.6875 133.36874 332.32812 133.80624Q331.98438 134.24374 331.48438 134.44687Q331.0 134.65 330.375 134.65Q329.89062 134.65 329.46875 134.525Q329.04688 134.4 328.71875 134.13437Q328.39062 133.85312 328.15625 133.41562Q327.92188 132.97812 327.79688 132.35312Q327.67188 131.7125 327.67188 130.88437L327.67188 129.57187Q327.67188 128.525 327.85938 127.82187Q328.0625 127.118744 328.40625 126.681244Q328.76562 126.243744 329.25 126.056244Q329.75 125.868744 330.35938 125.868744Q330.85938 125.868744 331.28125 125.993744Q331.70312 126.118744 332.03125 126.38437Q332.35938 126.63437 332.57812 127.07187Q332.8125 127.493744 332.9375 128.11874Q333.0625 128.74374 333.0625 129.57187ZM331.96875 131.05624L331.96875 129.4Q331.96875 128.82187 331.90625 128.38437Q331.84375 127.94687 331.70312 127.63437Q331.57812 127.32187 331.375 127.13437Q331.1875 126.94687 330.9375 126.85312Q330.6875 126.75937 330.35938 126.75937Q329.98438 126.75937 329.67188 126.899994Q329.375 127.04062 329.17188 127.35312Q328.96875 127.66562 328.85938 128.18124Q328.76562 128.68124 328.76562 129.4L328.76562 131.05624Q328.76562 131.63437 328.82812 132.07187Q328.90625 132.50937 329.03125 132.8375Q329.17188 133.15 329.35938 133.35312Q329.5625 133.55624 329.8125 133.65Q330.0625 133.74374 330.375 133.74374Q330.78125 133.74374 331.07812 133.60312Q331.375 133.44687 331.57812 133.11874Q331.78125 132.79062 331.875 132.29062Q331.96875 131.775 331.96875 131.05624ZM335.8125 133.22812L335.8125 134.10312Q335.8125 134.65 335.53125 135.24374Q335.26562 135.8375 334.78125 136.22812L334.17188 135.80624Q334.35938 135.54062 334.48438 135.275Q334.60938 135.00937 334.67188 134.72812Q334.75 134.44687 334.75 134.11874L334.75 133.22812L335.8125 133.22812ZM342.46875 131.65L342.46875 132.54062L336.3125 132.54062L336.3125 131.9L340.125 125.993744L341.01562 125.993744L340.0625 127.69687L337.54688 131.65L342.46875 131.65ZM341.28125 125.993744L341.28125 134.525L340.20312 134.525L340.20312 125.993744L341.28125 125.993744Z" fill-rule="nonzero"/><path stroke="#cccccc" stroke-width="1.0" stroke-linecap="butt" d="M345.0 324.0L345.0 138.0" fill-rule="nonzero"/><path fill="#000000" d="M326.84375 77.96875L327.9375 77.96875L330.73438 84.921875L333.53125 77.96875L334.625 77.96875L331.15625 86.5L330.3125 86.5L326.84375 77.96875ZM326.48438 77.96875L327.45312 77.96875L327.60938 83.171875L327.60938 86.5L326.48438 86.5L326.48438 77.96875ZM334.01562 77.96875L334.98438 77.96875L334.98438 86.5L333.85938 86.5L333.85938 83.171875L334.01562 77.96875ZM338.10938 85.84375L339.875 80.15625L341.03125 80.15625L338.48438 87.484375Q338.40625 87.71875 338.25 87.984375Q338.10938 88.265625 337.89062 88.5Q337.67188 88.75 337.35938 88.90625Q337.04688 89.0625 336.60938 89.0625Q336.48438 89.0625 336.28125 89.015625Q336.07812 88.984375 336.0 88.96875L336.0 88.09375Q336.04688 88.09375 336.14062 88.09375Q336.25 88.109375 336.28125 88.109375Q336.65625 88.109375 336.90625 88.015625Q337.17188 87.921875 337.34375 87.6875Q337.53125 87.46875 337.65625 87.078125L338.10938 85.84375ZM336.8125 80.15625L338.45312 85.078125L338.73438 86.21875L337.96875 86.625L335.625 80.15625L336.8125 80.15625ZM343.40625 81.15625L343.40625 86.5L342.32812 86.5L342.32812 80.15625L343.375 80.15625L343.40625 81.15625ZM345.39062 80.125L345.39062 81.125Q345.25 81.109375 345.125 81.09375Q345.01562 81.078125 344.85938 81.078125Q344.48438 81.078125 344.1875 81.203125Q343.90625 81.3125 343.70312 81.53125Q343.51562 81.734375 343.39062 82.03125Q343.28125 82.328125 343.25 82.671875L342.9375 82.84375Q342.9375 82.265625 343.04688 81.765625Q343.17188 81.265625 343.40625 80.875Q343.65625 80.484375 344.01562 80.265625Q344.39062 80.046875 344.90625 80.046875Q345.03125 80.046875 345.17188 80.078125Q345.32812 80.09375 345.39062 80.125ZM348.85938 85.71875Q349.25 85.71875 349.57812 85.5625Q349.90625 85.40625 350.10938 85.140625Q350.32812 84.859375 350.35938 84.5L351.39062 84.5Q351.35938 85.0625 351.0 85.546875Q350.65625 86.03125 350.09375 86.328125Q349.53125 86.625 348.85938 86.625Q348.15625 86.625 347.625 86.375Q347.09375 86.109375 346.73438 85.671875Q346.39062 85.234375 346.21875 84.671875Q346.04688 84.09375 346.04688 83.453125L346.04688 83.203125Q346.04688 82.5625 346.21875 82.0Q346.39062 81.421875 346.73438 80.984375Q347.09375 80.546875 347.625 80.296875Q348.15625 80.046875 348.85938 80.046875Q349.60938 80.046875 350.15625 80.34375Q350.71875 80.640625 351.03125 81.171875Q351.35938 81.6875 351.39062 82.34375L350.35938 82.34375Q350.32812 81.953125 350.14062 81.640625Q349.95312 81.3125 349.625 81.125Q349.29688 80.9375 348.85938 80.9375Q348.35938 80.9375 348.01562 81.140625Q347.6875 81.328125 347.48438 81.65625Q347.29688 81.984375 347.20312 82.390625Q347.125 82.796875 347.125 83.203125L347.125 83.453125Q347.125 83.875 347.20312 84.28125Q347.29688 84.671875 347.48438 85.0Q347.6875 85.328125 348.01562 85.53125Q348.35938 85.71875 348.85938 85.71875ZM354.95312 86.625Q354.29688 86.625 353.75 86.40625Q353.21875 86.171875 352.82812 85.765625Q352.45312 85.34375 352.25 84.78125Q352.04688 84.21875 352.04688 83.546875L352.04688 83.3125Q352.04688 82.53125 352.26562 81.921875Q352.5 81.3125 352.89062 80.890625Q353.28125 80.46875 353.78125 80.265625Q354.28125 80.046875 354.8125 80.046875Q355.5 80.046875 355.98438 80.28125Q356.48438 80.515625 356.79688 80.9375Q357.125 81.34375 357.26562 81.921875Q357.42188 82.484375 357.42188 83.140625L357.42188 83.640625L352.6875 83.640625L352.6875 82.75L356.34375 82.75L356.34375 82.671875Q356.3125 82.25 356.15625 81.859375Q356.01562 81.453125 355.6875 81.203125Q355.375 80.9375 354.8125 80.9375Q354.45312 80.9375 354.14062 81.09375Q353.82812 81.25 353.59375 81.5625Q353.375 81.859375 353.25 82.296875Q353.14062 82.734375 353.14062 83.3125L353.14062 83.546875Q353.14062 84.0 353.26562 84.40625Q353.39062 84.796875 353.625 85.09375Q353.875 85.390625 354.21875 85.5625Q354.57812 85.734375 355.01562 85.734375Q355.59375 85.734375 355.98438 85.5Q356.39062 85.265625 356.6875 84.875L357.34375 85.390625Q357.14062 85.703125 356.8125 85.984375Q356.5 86.265625 356.03125 86.453125Q355.57812 86.625 354.95312 86.625ZM359.40625 81.515625L359.40625 86.5L358.32812 86.5L358.32812 80.15625L359.35938 80.15625L359.40625 81.515625ZM359.15625 83.09375L358.70312 83.078125Q358.70312 82.421875 358.89062 81.875Q359.07812 81.3125 359.42188 80.90625Q359.76562 80.5 360.23438 80.28125Q360.70312 80.046875 361.28125 80.046875Q361.75 80.046875 362.125 80.171875Q362.5 80.296875 362.76562 80.578125Q363.03125 80.84375 363.17188 81.28125Q363.3125 81.71875 363.3125 82.34375L363.3125 86.5L362.21875 86.5L362.21875 82.328125Q362.21875 81.828125 362.07812 81.53125Q361.9375 81.234375 361.65625 81.09375Q361.375 80.953125 360.95312 80.953125Q360.54688 80.953125 360.21875 81.125Q359.89062 81.296875 359.65625 81.59375Q359.42188 81.890625 359.28125 82.28125Q359.15625 82.65625 359.15625 83.09375Z" fill-rule="nonzero"/><path stroke="#cccccc" stroke-width="1.0" stroke-linecap="butt" d="M345.0 324.0L506.0 231.0" fill-rule="nonzero"/><path fill="#000000" d="M524.6406 204.78125L525.7656 204.78125Q525.6719 205.59375 525.2969 206.23438Q524.9219 206.875 524.2344 207.25Q523.5625 207.625 522.53125 207.625Q521.78125 207.625 521.1719 207.34375Q520.5625 207.04688 520.1094 206.53125Q519.6719 206.01562 519.4375 205.29688Q519.2031 204.5625 519.2031 203.65625L519.2031 202.8125Q519.2031 201.92188 519.4375 201.1875Q519.6719 200.45312 520.125 199.9375Q520.5781 199.40625 521.2031 199.125Q521.84375 198.84375 522.625 198.84375Q523.59375 198.84375 524.2656 199.21875Q524.9375 199.57812 525.2969 200.21875Q525.6719 200.85938 525.7656 201.70312L524.6406 201.70312Q524.5625 201.10938 524.3281 200.6875Q524.1094 200.25 523.7031 200.01562Q523.2969 199.78125 522.625 199.78125Q522.0625 199.78125 521.625 200.0Q521.2031 200.20312 520.90625 200.60938Q520.625 201.0 520.46875 201.5625Q520.3281 202.125 520.3281 202.79688L520.3281 203.65625Q520.3281 204.28125 520.4531 204.84375Q520.59375 205.39062 520.8594 205.8125Q521.125 206.21875 521.5469 206.46875Q521.96875 206.70312 522.53125 206.70312Q523.25 206.70312 523.6719 206.46875Q524.1094 206.23438 524.3281 205.8125Q524.5469 205.39062 524.6406 204.78125ZM531.0625 206.42188L531.0625 203.15625Q531.0625 202.78125 530.90625 202.5Q530.7656 202.21875 530.46875 202.07812Q530.1719 201.92188 529.7344 201.92188Q529.3125 201.92188 529.0 202.0625Q528.7031 202.20312 528.53125 202.4375Q528.3594 202.65625 528.3594 202.92188L527.28125 202.92188Q527.28125 202.57812 527.4531 202.25Q527.625 201.90625 527.9531 201.64062Q528.28125 201.35938 528.75 201.20312Q529.21875 201.04688 529.7969 201.04688Q530.4844 201.04688 531.0156 201.28125Q531.5469 201.51562 531.84375 201.98438Q532.15625 202.45312 532.15625 203.15625L532.15625 206.10938Q532.15625 206.4375 532.2031 206.79688Q532.2656 207.14062 532.375 207.40625L532.375 207.5L531.2344 207.5Q531.15625 207.3125 531.1094 207.0Q531.0625 206.6875 531.0625 206.42188ZM531.25 203.65625L531.2656 204.42188L530.1719 204.42188Q529.7031 204.42188 529.34375 204.5Q528.9844 204.5625 528.7344 204.71875Q528.4844 204.85938 528.3594 205.07812Q528.2344 205.29688 528.2344 205.59375Q528.2344 205.89062 528.3594 206.14062Q528.5 206.375 528.7656 206.53125Q529.0469 206.67188 529.4375 206.67188Q529.9375 206.67188 530.3125 206.46875Q530.7031 206.25 530.9219 205.95312Q531.15625 205.64062 531.1719 205.34375L531.6406 205.875Q531.59375 206.10938 531.40625 206.42188Q531.2344 206.71875 530.9219 207.0Q530.625 207.26562 530.2031 207.45312Q529.7969 207.625 529.28125 207.625Q528.6406 207.625 528.15625 207.375Q527.6719 207.10938 527.40625 206.6875Q527.1406 206.26562 527.1406 205.73438Q527.1406 205.21875 527.3281 204.84375Q527.53125 204.45312 527.90625 204.1875Q528.28125 203.92188 528.8125 203.79688Q529.34375 203.65625 530.0 203.65625L531.25 203.65625ZM535.40625 202.15625L535.40625 207.5L534.3281 207.5L534.3281 201.15625L535.375 201.15625L535.40625 202.15625ZM537.3906 201.125L537.3906 202.125Q537.25 202.10938 537.125 202.09375Q537.0156 202.07812 536.8594 202.07812Q536.4844 202.07812 536.1875 202.20312Q535.90625 202.3125 535.7031 202.53125Q535.5156 202.73438 535.3906 203.03125Q535.28125 203.32812 535.25 203.67188L534.9375 203.84375Q534.9375 203.26562 535.0469 202.76562Q535.1719 202.26562 535.40625 201.875Q535.65625 201.48438 536.0156 201.26562Q536.3906 201.04688 536.90625 201.04688Q537.03125 201.04688 537.1719 201.07812Q537.3281 201.09375 537.3906 201.125ZM540.1094 206.84375L541.875 201.15625L543.03125 201.15625L540.4844 208.48438Q540.40625 208.71875 540.25 208.98438Q540.1094 209.26562 539.8906 209.5Q539.6719 209.75 539.3594 209.90625Q539.0469 210.0625 538.6094 210.0625Q538.4844 210.0625 538.28125 210.01562Q538.0781 209.98438 538.0 209.96875L538.0 209.09375Q538.0469 209.09375 538.1406 209.09375Q538.25 209.10938 538.28125 209.10938Q538.65625 209.10938 538.90625 209.01562Q539.1719 208.92188 539.34375 208.6875Q539.53125 208.46875 539.65625 208.07812L540.1094 206.84375ZM538.8125 201.15625L540.4531 206.07812L540.7344 207.21875L539.96875 207.625L537.625 201.15625L538.8125 201.15625ZM544.0469 204.40625L544.0469 204.26562Q544.0469 203.57812 544.2344 203.0Q544.4375 202.40625 544.8125 201.96875Q545.1875 201.53125 545.71875 201.29688Q546.25 201.04688 546.9219 201.04688Q547.5781 201.04688 548.1094 201.29688Q548.65625 201.53125 549.03125 201.96875Q549.40625 202.40625 549.6094 203.0Q549.8125 203.57812 549.8125 204.26562L549.8125 204.40625Q549.8125 205.07812 549.6094 205.67188Q549.40625 206.25 549.03125 206.6875Q548.65625 207.125 548.125 207.375Q547.59375 207.625 546.9219 207.625Q546.2656 207.625 545.71875 207.375Q545.1875 207.125 544.8125 206.6875Q544.4375 206.25 544.2344 205.67188Q544.0469 205.07812 544.0469 204.40625ZM545.125 204.26562L545.125 204.40625Q545.125 204.875 545.2344 205.29688Q545.34375 205.71875 545.5625 206.04688Q545.7969 206.35938 546.1406 206.54688Q546.4844 206.71875 546.9219 206.71875Q547.375 206.71875 547.7031 206.54688Q548.0469 206.35938 548.2656 206.04688Q548.5 205.71875 548.6094 205.29688Q548.71875 204.875 548.71875 204.40625L548.71875 204.26562Q548.71875 203.79688 548.6094 203.375Q548.5 202.95312 548.2656 202.64062Q548.0469 202.3125 547.7031 202.125Q547.375 201.9375 546.9219 201.9375Q546.46875 201.9375 546.125 202.125Q545.7969 202.3125 545.5625 202.64062Q545.34375 202.95312 545.2344 203.375Q545.125 203.79688 545.125 204.26562ZM552.40625 202.375L552.40625 209.9375L551.3281 209.9375L551.3281 201.15625L552.3125 201.15625L552.40625 202.375ZM556.6875 204.28125L556.6875 204.40625Q556.6875 205.09375 556.5156 205.6875Q556.3594 206.26562 556.0469 206.70312Q555.7344 207.14062 555.2656 207.39062Q554.8125 207.625 554.21875 207.625Q553.625 207.625 553.15625 207.42188Q552.6875 207.21875 552.3594 206.84375Q552.0469 206.45312 551.8594 205.92188Q551.6719 205.39062 551.59375 204.71875L551.59375 204.0625Q551.6719 203.35938 551.8594 202.8125Q552.0469 202.25 552.3594 201.85938Q552.6875 201.45312 553.1406 201.25Q553.6094 201.04688 554.2031 201.04688Q554.7969 201.04688 555.2656 201.28125Q555.7344 201.5 556.0469 201.9375Q556.3594 202.35938 556.5156 202.95312Q556.6875 203.54688 556.6875 204.28125ZM555.59375 204.40625L555.59375 204.28125Q555.59375 203.79688 555.4844 203.39062Q555.3906 202.96875 555.1875 202.65625Q554.9844 202.32812 554.65625 202.14062Q554.3281 201.95312 553.8906 201.95312Q553.4844 201.95312 553.1719 202.09375Q552.875 202.23438 552.65625 202.48438Q552.4531 202.71875 552.3125 203.01562Q552.1875 203.3125 552.125 203.64062L552.125 205.15625Q552.2344 205.5625 552.4375 205.92188Q552.65625 206.28125 553.0 206.5Q553.3594 206.71875 553.90625 206.71875Q554.34375 206.71875 554.65625 206.54688Q554.9844 206.35938 555.1875 206.04688Q555.3906 205.71875 555.4844 205.29688Q555.59375 204.875 555.59375 204.40625ZM559.40625 198.5L559.40625 207.5L558.3281 207.5L558.3281 198.5L559.40625 198.5ZM559.15625 204.09375L558.7031 204.07812Q558.7031 203.42188 558.8906 202.875Q559.0781 202.3125 559.4219 201.90625Q559.7656 201.5 560.2344 201.28125Q560.7031 201.04688 561.28125 201.04688Q561.75 201.04688 562.125 201.17188Q562.5 201.29688 562.7656 201.57812Q563.03125 201.84375 563.1719 202.28125Q563.3125 202.71875 563.3125 203.34375L563.3125 207.5L562.21875 207.5L562.21875 203.32812Q562.21875 202.82812 562.0781 202.53125Q561.9375 202.23438 561.65625 202.09375Q561.375 201.95312 560.9531 201.95312Q560.5469 201.95312 560.21875 202.125Q559.8906 202.29688 559.65625 202.59375Q559.4219 202.89062 559.28125 203.28125Q559.15625 203.65625 559.15625 204.09375ZM567.1094 206.84375L568.875 201.15625L570.03125 201.15625L567.4844 208.48438Q567.40625 208.71875 567.25 208.98438Q567.1094 209.26562 566.8906 209.5Q566.6719 209.75 566.3594 209.90625Q566.0469 210.0625 565.6094 210.0625Q565.4844 210.0625 565.28125 210.01562Q565.0781 209.98438 565.0 209.96875L565.0 209.09375Q565.0469 209.09375 565.1406 209.09375Q565.25 209.10938 565.28125 209.10938Q565.65625 209.10938 565.90625 209.01562Q566.1719 208.92188 566.34375 208.6875Q566.53125 208.46875 566.65625 208.07812L567.1094 206.84375ZM565.8125 201.15625L567.4531 206.07812L567.7344 207.21875L566.96875 207.625L564.625 201.15625L565.8125 201.15625ZM572.5 198.5L572.5 207.5L571.4219 207.5L571.4219 198.5L572.5 198.5ZM575.5 198.5L575.5 207.5L574.4219 207.5L574.4219 198.5L575.5 198.5ZM579.9531 207.625Q579.2969 207.625 578.75 207.40625Q578.21875 207.17188 577.8281 206.76562Q577.4531 206.34375 577.25 205.78125Q577.0469 205.21875 577.0469 204.54688L577.0469 204.3125Q577.0469 203.53125 577.2656 202.92188Q577.5 202.3125 577.8906 201.89062Q578.28125 201.46875 578.78125 201.26562Q579.28125 201.04688 579.8125 201.04688Q580.5 201.04688 580.9844 201.28125Q581.4844 201.51562 581.7969 201.9375Q582.125 202.34375 582.2656 202.92188Q582.4219 203.48438 582.4219 204.14062L582.4219 204.64062L577.6875 204.64062L577.6875 203.75L581.34375 203.75L581.34375 203.67188Q581.3125 203.25 581.15625 202.85938Q581.0156 202.45312 580.6875 202.20312Q580.375 201.9375 579.8125 201.9375Q579.4531 201.9375 579.1406 202.09375Q578.8281 202.25 578.59375 202.5625Q578.375 202.85938 578.25 203.29688Q578.1406 203.73438 578.1406 204.3125L578.1406 204.54688Q578.1406 205.0 578.2656 205.40625Q578.3906 205.79688 578.625 206.09375Q578.875 206.39062 579.21875 206.5625Q579.5781 206.73438 580.0156 206.73438Q580.59375 206.73438 580.9844 206.5Q581.3906 206.26562 581.6875 205.875L582.34375 206.39062Q582.1406 206.70312 581.8125 206.98438Q581.5 207.26562 581.03125 207.45312Q580.5781 207.625 579.9531 207.625ZM584.40625 202.51562L584.40625 207.5L583.3281 207.5L583.3281 201.15625L584.3594 201.15625L584.40625 202.51562ZM584.15625 204.09375L583.7031 204.07812Q583.7031 203.42188 583.8906 202.875Q584.0781 202.3125 584.4219 201.90625Q584.7656 201.5 585.2344 201.28125Q585.7031 201.04688 586.28125 201.04688Q586.75 201.04688 587.125 201.17188Q587.5 201.29688 587.7656 201.57812Q588.03125 201.84375 588.1719 202.28125Q588.3125 202.71875 588.3125 203.34375L588.3125 207.5L587.21875 207.5L587.21875 203.32812Q587.21875 202.82812 587.0781 202.53125Q586.9375 202.23438 586.65625 202.09375Q586.375 201.95312 585.9531 201.95312Q585.5469 201.95312 585.21875 202.125Q584.8906 202.29688 584.65625 202.59375Q584.4219 202.89062 584.28125 203.28125Q584.15625 203.65625 584.15625 204.09375Z" fill-rule="nonzero"/><path stroke="#cccccc" stroke-width="1.0" stroke-linecap="butt" d="M345.0 324.0L506.0 417.0" fill-rule="nonzero"/><path fill="#000000" d="M506.53125 447.34375Q506.53125 447.04688 506.4375 446.8125Q506.35938 446.57812 506.125 446.39062Q505.90625 446.20312 505.5 446.03125Q505.10938 445.85938 504.51562 445.6875Q503.875 445.5 503.35938 445.28125Q502.85938 445.04688 502.48438 444.75Q502.125 444.4375 501.9375 444.0625Q501.75 443.67188 501.75 443.17188Q501.75 442.67188 501.95312 442.25Q502.15625 441.82812 502.53125 441.51562Q502.92188 441.20312 503.45312 441.03125Q503.98438 440.84375 504.64062 440.84375Q505.60938 440.84375 506.28125 441.21875Q506.95312 441.57812 507.29688 442.17188Q507.65625 442.76562 507.65625 443.42188L506.53125 443.42188Q506.53125 442.95312 506.3125 442.57812Q506.10938 442.20312 505.6875 442.0Q505.28125 441.78125 504.64062 441.78125Q504.04688 441.78125 503.64062 441.96875Q503.25 442.14062 503.0625 442.45312Q502.875 442.76562 502.875 443.15625Q502.875 443.42188 502.98438 443.65625Q503.10938 443.875 503.34375 444.0625Q503.59375 444.25 503.96875 444.40625Q504.34375 444.5625 504.875 444.70312Q505.59375 444.90625 506.125 445.17188Q506.65625 445.42188 507.0 445.73438Q507.34375 446.04688 507.5 446.4375Q507.67188 446.82812 507.67188 447.32812Q507.67188 447.85938 507.45312 448.28125Q507.25 448.70312 506.85938 449.0Q506.46875 449.29688 505.92188 449.46875Q505.375 449.625 504.70312 449.625Q504.10938 449.625 503.53125 449.45312Q502.96875 449.28125 502.5 448.95312Q502.03125 448.625 501.75 448.15625Q501.46875 447.67188 501.46875 447.03125L502.59375 447.03125Q502.59375 447.46875 502.76562 447.78125Q502.9375 448.09375 503.23438 448.29688Q503.53125 448.5 503.90625 448.60938Q504.28125 448.70312 504.70312 448.70312Q505.29688 448.70312 505.70312 448.54688Q506.10938 448.375 506.3125 448.07812Q506.53125 447.76562 506.53125 447.34375ZM511.45312 449.625Q510.79688 449.625 510.25 449.40625Q509.71875 449.17188 509.32812 448.76562Q508.95312 448.34375 508.75 447.78125Q508.54688 447.21875 508.54688 446.54688L508.54688 446.3125Q508.54688 445.53125 508.76562 444.92188Q509.0 444.3125 509.39062 443.89062Q509.78125 443.46875 510.28125 443.26562Q510.78125 443.04688 511.3125 443.04688Q512.0 443.04688 512.4844 443.28125Q512.9844 443.51562 513.2969 443.9375Q513.625 444.34375 513.7656 444.92188Q513.9219 445.48438 513.9219 446.14062L513.9219 446.64062L509.1875 446.64062L509.1875 445.75L512.84375 445.75L512.84375 445.67188Q512.8125 445.25 512.65625 444.85938Q512.5156 444.45312 512.1875 444.20312Q511.875 443.9375 511.3125 443.9375Q510.95312 443.9375 510.64062 444.09375Q510.32812 444.25 510.09375 444.5625Q509.875 444.85938 509.75 445.29688Q509.64062 445.73438 509.64062 446.3125L509.64062 446.54688Q509.64062 447.0 509.76562 447.40625Q509.89062 447.79688 510.125 448.09375Q510.375 448.39062 510.71875 448.5625Q511.07812 448.73438 511.51562 448.73438Q512.09375 448.73438 512.4844 448.5Q512.8906 448.26562 513.1875 447.875L513.84375 448.39062Q513.6406 448.70312 513.3125 448.98438Q513.0 449.26562 512.53125 449.45312Q512.0781 449.625 511.45312 449.625ZM516.0 440.5L516.0 449.5L514.9219 449.5L514.9219 440.5L516.0 440.5ZM519.0 443.15625L519.0 449.5L517.9219 449.5L517.9219 443.15625L519.0 443.15625ZM517.8281 441.48438Q517.8281 441.21875 517.9844 441.03125Q518.15625 440.84375 518.46875 440.84375Q518.78125 440.84375 518.9375 441.03125Q519.1094 441.21875 519.1094 441.48438Q519.1094 441.73438 518.9375 441.92188Q518.78125 442.09375 518.46875 442.09375Q518.15625 442.09375 517.9844 441.92188Q517.8281 441.73438 517.8281 441.48438ZM521.90625 444.51562L521.90625 449.5L520.8281 449.5L520.8281 443.15625L521.8594 443.15625L521.90625 444.51562ZM521.65625 446.09375L521.2031 446.07812Q521.2031 445.42188 521.3906 444.875Q521.5781 444.3125 521.9219 443.90625Q522.2656 443.5 522.7344 443.28125Q523.2031 443.04688 523.78125 443.04688Q524.25 443.04688 524.625 443.17188Q525.0 443.29688 525.2656 443.57812Q525.53125 443.84375 525.6719 444.28125Q525.8125 444.71875 525.8125 445.34375L525.8125 449.5L524.71875 449.5L524.71875 445.32812Q524.71875 444.82812 524.5781 444.53125Q524.4375 444.23438 524.15625 444.09375Q523.875 443.95312 523.4531 443.95312Q523.0469 443.95312 522.71875 444.125Q522.3906 444.29688 522.15625 444.59375Q521.9219 444.89062 521.78125 445.28125Q521.65625 445.65625 521.65625 446.09375ZM531.5625 448.42188L531.5625 445.15625Q531.5625 444.78125 531.40625 444.5Q531.2656 444.21875 530.96875 444.07812Q530.6719 443.92188 530.2344 443.92188Q529.8125 443.92188 529.5 444.0625Q529.2031 444.20312 529.03125 444.4375Q528.8594 444.65625 528.8594 444.92188L527.78125 444.92188Q527.78125 444.57812 527.9531 444.25Q528.125 443.90625 528.4531 443.64062Q528.78125 443.35938 529.25 443.20312Q529.71875 443.04688 530.2969 443.04688Q530.9844 443.04688 531.5156 443.28125Q532.0469 443.51562 532.34375 443.98438Q532.65625 444.45312 532.65625 445.15625L532.65625 448.10938Q532.65625 448.4375 532.7031 448.79688Q532.7656 449.14062 532.875 449.40625L532.875 449.5L531.7344 449.5Q531.65625 449.3125 531.6094 449.0Q531.5625 448.6875 531.5625 448.42188ZM531.75 445.65625L531.7656 446.42188L530.6719 446.42188Q530.2031 446.42188 529.84375 446.5Q529.4844 446.5625 529.2344 446.71875Q528.9844 446.85938 528.8594 447.07812Q528.7344 447.29688 528.7344 447.59375Q528.7344 447.89062 528.8594 448.14062Q529.0 448.375 529.2656 448.53125Q529.5469 448.67188 529.9375 448.67188Q530.4375 448.67188 530.8125 448.46875Q531.2031 448.25 531.4219 447.95312Q531.65625 447.64062 531.6719 447.34375L532.1406 447.875Q532.09375 448.10938 531.90625 448.42188Q531.7344 448.71875 531.4219 449.0Q531.125 449.26562 530.7031 449.45312Q530.2969 449.625 529.78125 449.625Q529.1406 449.625 528.65625 449.375Q528.1719 449.10938 527.90625 448.6875Q527.6406 448.26562 527.6406 447.73438Q527.6406 447.21875 527.8281 446.84375Q528.03125 446.45312 528.40625 446.1875Q528.78125 445.92188 529.3125 445.79688Q529.84375 445.65625 530.5 445.65625L531.75 445.65625ZM537.0781 445.42188L537.0781 446.3125L534.21875 446.3125L534.21875 445.42188L537.0781 445.42188ZM539.2969 444.70312L540.0625 444.70312Q540.6406 444.70312 541.0 444.51562Q541.375 444.3125 541.5625 443.98438Q541.75 443.65625 541.75 443.23438Q541.75 442.75 541.5781 442.42188Q541.4219 442.07812 541.09375 441.90625Q540.7656 441.73438 540.2656 441.73438Q539.7969 441.73438 539.4531 441.92188Q539.1094 442.09375 538.90625 442.42188Q538.71875 442.75 538.71875 443.20312L537.625 443.20312Q537.625 442.54688 537.9531 442.01562Q538.28125 441.48438 538.875 441.17188Q539.46875 440.84375 540.2656 440.84375Q541.03125 440.84375 541.6094 441.125Q542.1875 441.39062 542.5156 441.9375Q542.84375 442.46875 542.84375 443.26562Q542.84375 443.59375 542.6875 443.95312Q542.53125 444.3125 542.21875 444.64062Q541.90625 444.95312 541.40625 445.15625Q540.9219 445.35938 540.21875 445.35938L539.2969 445.35938L539.2969 444.70312ZM539.2969 445.59375L539.2969 444.9375L540.21875 444.9375Q541.03125 444.9375 541.5625 445.14062Q542.09375 445.32812 542.40625 445.65625Q542.71875 445.96875 542.84375 446.35938Q542.96875 446.73438 542.96875 447.125Q542.96875 447.71875 542.7656 448.1875Q542.5625 448.64062 542.1875 448.96875Q541.8281 449.28125 541.3281 449.45312Q540.84375 449.625 540.2656 449.625Q539.7031 449.625 539.21875 449.46875Q538.7344 449.29688 538.3594 449.0Q537.9844 448.70312 537.7656 448.26562Q537.5625 447.8125 537.5625 447.25L538.6406 447.25Q538.6406 447.6875 538.8281 448.03125Q539.03125 448.35938 539.3906 448.54688Q539.7656 448.71875 540.2656 448.71875Q540.7656 448.71875 541.125 448.54688Q541.4844 448.375 541.6719 448.03125Q541.875 447.67188 541.875 447.14062Q541.875 446.60938 541.65625 446.26562Q541.4375 445.92188 541.0156 445.76562Q540.6094 445.59375 540.0625 445.59375L539.2969 445.59375ZM545.8125 448.20312L545.8125 449.07812Q545.8125 449.625 545.53125 450.21875Q545.2656 450.8125 544.78125 451.20312L544.1719 450.78125Q544.3594 450.51562 544.4844 450.25Q544.6094 449.98438 544.6719 449.70312Q544.75 449.42188 544.75 449.09375L544.75 448.20312L545.8125 448.20312ZM552.21875 440.96875L552.21875 441.57812L548.6875 449.5L547.5469 449.5L551.0781 441.85938L546.4531 441.85938L546.4531 440.96875L552.21875 440.96875ZM553.78125 446.09375L553.78125 446.03125Q553.78125 444.75 554.0625 443.71875Q554.3594 442.6875 554.7969 441.90625Q555.25 441.125 555.7344 440.60938Q556.2344 440.09375 556.65625 439.875L556.875 440.59375Q556.53125 440.84375 556.1719 441.3125Q555.8281 441.78125 555.53125 442.45312Q555.2344 443.125 555.0469 444.01562Q554.875 444.90625 554.875 446.01562L554.875 446.09375Q554.875 447.21875 555.0469 448.10938Q555.2344 449.0 555.53125 449.67188Q555.8281 450.35938 556.1719 450.82812Q556.53125 451.3125 556.875 451.59375L556.65625 452.25Q556.2344 452.03125 555.7344 451.51562Q555.25 451.0 554.7969 450.21875Q554.3594 449.45312 554.0625 448.42188Q553.78125 447.375 553.78125 446.09375ZM561.2656 440.92188L561.2656 449.5L560.1875 449.5L560.1875 442.28125L558.0 443.07812L558.0 442.09375L561.1094 440.92188L561.2656 440.92188ZM568.2656 440.92188L568.2656 449.5L567.1875 449.5L567.1875 442.28125L565.0 443.07812L565.0 442.09375L568.1094 440.92188L568.2656 440.92188ZM574.3281 446.03125L574.3281 446.09375Q574.3281 447.375 574.03125 448.42188Q573.75 449.45312 573.2969 450.21875Q572.8594 451.0 572.3594 451.51562Q571.875 452.03125 571.4531 452.25L571.2344 451.59375Q571.5781 451.32812 571.9219 450.85938Q572.28125 450.39062 572.5781 449.70312Q572.875 449.01562 573.0469 448.125Q573.2344 447.21875 573.2344 446.09375L573.2344 446.01562Q573.2344 444.90625 573.0469 444.01562Q572.8594 443.10938 572.5469 442.42188Q572.2344 441.73438 571.8906 441.26562Q571.5469 440.79688 571.2344 440.53125L571.4531 439.875Q571.875 440.09375 572.3594 440.60938Q572.8594 441.125 573.2969 441.90625Q573.75 442.6875 574.03125 443.71875Q574.3281 444.75 574.3281 446.03125ZM578.0781 445.42188L578.0781 446.3125L575.21875 446.3125L575.21875 445.42188L578.0781 445.42188ZM582.8281 448.26562L582.8281 440.5L583.90625 440.5L583.90625 449.5L582.9219 449.5L582.8281 448.26562ZM578.5625 446.40625L578.5625 446.28125Q578.5625 445.54688 578.7344 444.95312Q578.9219 444.35938 579.25 443.9375Q579.5781 443.5 580.03125 443.28125Q580.5 443.04688 581.0625 443.04688Q581.65625 443.04688 582.1094 443.25Q582.5625 443.45312 582.875 443.85938Q583.1875 444.25 583.3594 444.8125Q583.5469 445.35938 583.625 446.0625L583.625 446.60938Q583.5625 447.29688 583.375 447.85938Q583.1875 448.42188 582.875 448.8125Q582.5625 449.20312 582.1094 449.42188Q581.65625 449.625 581.0469 449.625Q580.5 449.625 580.03125 449.39062Q579.5781 449.14062 579.25 448.70312Q578.9219 448.26562 578.7344 447.6875Q578.5625 447.09375 578.5625 446.40625ZM579.6406 446.28125L579.6406 446.40625Q579.6406 446.875 579.7344 447.29688Q579.84375 447.70312 580.0469 448.03125Q580.25 448.34375 580.5625 448.53125Q580.8906 448.70312 581.3281 448.70312Q581.8594 448.70312 582.2031 448.46875Q582.5625 448.23438 582.7656 447.85938Q582.9844 447.48438 583.09375 447.04688L583.09375 445.64062Q583.03125 445.3125 582.8906 445.01562Q582.7656 444.71875 582.5469 444.48438Q582.34375 444.23438 582.0469 444.09375Q581.75 443.95312 581.3281 443.95312Q580.8906 443.95312 580.5625 444.14062Q580.25 444.32812 580.0469 444.65625Q579.84375 444.96875 579.7344 445.39062Q579.6406 445.79688 579.6406 446.28125ZM587.0 443.15625L587.0 449.5L585.9219 449.5L585.9219 443.15625L587.0 443.15625ZM585.8281 441.48438Q585.8281 441.21875 585.9844 441.03125Q586.15625 440.84375 586.46875 440.84375Q586.78125 440.84375 586.9375 441.03125Q587.1094 441.21875 587.1094 441.48438Q587.1094 441.73438 586.9375 441.92188Q586.78125 442.09375 586.46875 442.09375Q586.15625 442.09375 585.9844 441.92188Q585.8281 441.73438 585.8281 441.48438ZM591.4531 449.625Q590.7969 449.625 590.25 449.40625Q589.71875 449.17188 589.3281 448.76562Q588.9531 448.34375 588.75 447.78125Q588.5469 447.21875 588.5469 446.54688L588.5469 446.3125Q588.5469 445.53125 588.7656 444.92188Q589.0 444.3125 589.3906 443.89062Q589.78125 443.46875 590.28125 443.26562Q590.78125 443.04688 591.3125 443.04688Q592.0 443.04688 592.4844 443.28125Q592.9844 443.51562 593.2969 443.9375Q593.625 444.34375 593.7656 444.92188Q593.9219 445.48438 593.9219 446.14062L593.9219 446.64062L589.1875 446.64062L589.1875 445.75L592.84375 445.75L592.84375 445.67188Q592.8125 445.25 592.65625 444.85938Q592.5156 444.45312 592.1875 444.20312Q591.875 443.9375 591.3125 443.9375Q590.9531 443.9375 590.6406 444.09375Q590.3281 444.25 590.09375 444.5625Q589.875 444.85938 589.75 445.29688Q589.6406 445.73438 589.6406 446.3125L589.6406 446.54688Q589.6406 447.0 589.7656 447.40625Q589.8906 447.79688 590.125 448.09375Q590.375 448.39062 590.71875 448.5625Q591.0781 448.73438 591.5156 448.73438Q592.09375 448.73438 592.4844 448.5Q592.8906 448.26562 593.1875 447.875L593.84375 448.39062Q593.6406 448.70312 593.3125 448.98438Q593.0 449.26562 592.53125 449.45312Q592.0781 449.625 591.4531 449.625ZM595.90625 444.51562L595.90625 449.5L594.8281 449.5L594.8281 443.15625L595.8594 443.15625L595.90625 444.51562ZM595.65625 446.09375L595.2031 446.07812Q595.2031 445.42188 595.3906 444.875Q595.5781 444.3125 595.9219 443.90625Q596.2656 443.5 596.7344 443.28125Q597.2031 443.04688 597.78125 443.04688Q598.25 443.04688 598.625 443.17188Q599.0 443.29688 599.2656 443.57812Q599.53125 443.84375 599.6719 444.28125Q599.8125 444.71875 599.8125 445.34375L599.8125 449.5L598.71875 449.5L598.71875 445.32812Q598.71875 444.82812 598.5781 444.53125Q598.4375 444.23438 598.15625 444.09375Q597.875 443.95312 597.4531 443.95312Q597.0469 443.95312 596.71875 444.125Q596.3906 444.29688 596.15625 444.59375Q595.9219 444.89062 595.78125 445.28125Q595.65625 445.65625 595.65625 446.09375ZM604.4531 449.625Q603.7969 449.625 603.25 449.40625Q602.71875 449.17188 602.3281 448.76562Q601.9531 448.34375 601.75 447.78125Q601.5469 447.21875 601.5469 446.54688L601.5469 446.3125Q601.5469 445.53125 601.7656 444.92188Q602.0 444.3125 602.3906 443.89062Q602.78125 443.46875 603.28125 443.26562Q603.78125 443.04688 604.3125 443.04688Q605.0 443.04688 605.4844 443.28125Q605.9844 443.51562 606.2969 443.9375Q606.625 444.34375 606.7656 444.92188Q606.9219 445.48438 606.9219 446.14062L606.9219 446.64062L602.1875 446.64062L602.1875 445.75L605.84375 445.75L605.84375 445.67188Q605.8125 445.25 605.65625 444.85938Q605.5156 444.45312 605.1875 444.20312Q604.875 443.9375 604.3125 443.9375Q603.9531 443.9375 603.6406 444.09375Q603.3281 444.25 603.09375 444.5625Q602.875 444.85938 602.75 445.29688Q602.6406 445.73438 602.6406 446.3125L602.6406 446.54688Q602.6406 447.0 602.7656 447.40625Q602.8906 447.79688 603.125 448.09375Q603.375 448.39062 603.71875 448.5625Q604.0781 448.73438 604.5156 448.73438Q605.09375 448.73438 605.4844 448.5Q605.8906 448.26562 606.1875 447.875L606.84375 448.39062Q606.6406 448.70312 606.3125 448.98438Q606.0 449.26562 605.53125 449.45312Q605.0781 449.625 604.4531 449.625Z" fill-rule="nonzero"/><path stroke="#cccccc" stroke-width="1.0" stroke-linecap="butt" d="M345.0 324.0L345.0 510.0" fill-rule="nonzero"/><path stroke="#cccccc" stroke-width="1.0" stroke-linecap="butt" d="M345.0 324.0L184.0 417.0" fill-rule="nonzero"/><path fill="#000000" d="M77.53125 447.34375Q77.53125 447.04688 77.4375 446.8125Q77.359375 446.57812 77.125 446.39062Q76.90625 446.20312 76.5 446.03125Q76.109375 445.85938 75.515625 445.6875Q74.875 445.5 74.359375 445.28125Q73.859375 445.04688 73.484375 444.75Q73.125 444.4375 72.9375 444.0625Q72.75 443.67188 72.75 443.17188Q72.75 442.67188 72.953125 442.25Q73.15625 441.82812 73.53125 441.51562Q73.921875 441.20312 74.453125 441.03125Q74.984375 440.84375 75.640625 440.84375Q76.609375 440.84375 77.28125 441.21875Q77.953125 441.57812 78.296875 442.17188Q78.65625 442.76562 78.65625 443.42188L77.53125 443.42188Q77.53125 442.95312 77.3125 442.57812Q77.109375 442.20312 76.6875 442.0Q76.28125 441.78125 75.640625 441.78125Q75.046875 441.78125 74.640625 441.96875Q74.25 442.14062 74.0625 442.45312Q73.875 442.76562 73.875 443.15625Q73.875 443.42188 73.984375 443.65625Q74.109375 443.875 74.34375 444.0625Q74.59375 444.25 74.96875 444.40625Q75.34375 444.5625 75.875 444.70312Q76.59375 444.90625 77.125 445.17188Q77.65625 445.42188 78.0 445.73438Q78.34375 446.04688 78.5 446.4375Q78.671875 446.82812 78.671875 447.32812Q78.671875 447.85938 78.453125 448.28125Q78.25 448.70312 77.859375 449.0Q77.46875 449.29688 76.921875 449.46875Q76.375 449.625 75.703125 449.625Q75.109375 449.625 74.53125 449.45312Q73.96875 449.28125 73.5 448.95312Q73.03125 448.625 72.75 448.15625Q72.46875 447.67188 72.46875 447.03125L73.59375 447.03125Q73.59375 447.46875 73.765625 447.78125Q73.9375 448.09375 74.234375 448.29688Q74.53125 448.5 74.90625 448.60938Q75.28125 448.70312 75.703125 448.70312Q76.296875 448.70312 76.703125 448.54688Q77.109375 448.375 77.3125 448.07812Q77.53125 447.76562 77.53125 447.34375ZM82.453125 449.625Q81.796875 449.625 81.25 449.40625Q80.71875 449.17188 80.328125 448.76562Q79.953125 448.34375 79.75 447.78125Q79.546875 447.21875 79.546875 446.54688L79.546875 446.3125Q79.546875 445.53125 79.765625 444.92188Q80.0 444.3125 80.390625 443.89062Q80.78125 443.46875 81.28125 443.26562Q81.78125 443.04688 82.3125 443.04688Q83.0 443.04688 83.484375 443.28125Q83.984375 443.51562 84.296875 443.9375Q84.625 444.34375 84.765625 444.92188Q84.921875 445.48438 84.921875 446.14062L84.921875 446.64062L80.1875 446.64062L80.1875 445.75L83.84375 445.75L83.84375 445.67188Q83.8125 445.25 83.65625 444.85938Q83.515625 444.45312 83.1875 444.20312Q82.875 443.9375 82.3125 443.9375Q81.953125 443.9375 81.640625 444.09375Q81.328125 444.25 81.09375 444.5625Q80.875 444.85938 80.75 445.29688Q80.640625 445.73438 80.640625 446.3125L80.640625 446.54688Q80.640625 447.0 80.765625 447.40625Q80.890625 447.79688 81.125 448.09375Q81.375 448.39062 81.71875 448.5625Q82.078125 448.73438 82.515625 448.73438Q83.09375 448.73438 83.484375 448.5Q83.890625 448.26562 84.1875 447.875L84.84375 448.39062Q84.640625 448.70312 84.3125 448.98438Q84.0 449.26562 83.53125 449.45312Q83.078125 449.625 82.453125 449.625ZM87.0 440.5L87.0 449.5L85.921875 449.5L85.921875 440.5L87.0 440.5ZM90.0 443.15625L90.0 449.5L88.921875 449.5L88.921875 443.15625L90.0 443.15625ZM88.828125 441.48438Q88.828125 441.21875 88.984375 441.03125Q89.15625 440.84375 89.46875 440.84375Q89.78125 440.84375 89.9375 441.03125Q90.109375 441.21875 90.109375 441.48438Q90.109375 441.73438 89.9375 441.92188Q89.78125 442.09375 89.46875 442.09375Q89.15625 442.09375 88.984375 441.92188Q88.828125 441.73438 88.828125 441.48438ZM92.90625 444.51562L92.90625 449.5L91.828125 449.5L91.828125 443.15625L92.859375 443.15625L92.90625 444.51562ZM92.65625 446.09375L92.203125 446.07812Q92.203125 445.42188 92.390625 444.875Q92.578125 444.3125 92.921875 443.90625Q93.265625 443.5 93.734375 443.28125Q94.203125 443.04688 94.78125 443.04688Q95.25 443.04688 95.625 443.17188Q96.0 443.29688 96.265625 443.57812Q96.53125 443.84375 96.671875 444.28125Q96.8125 444.71875 96.8125 445.34375L96.8125 449.5L95.71875 449.5L95.71875 445.32812Q95.71875 444.82812 95.578125 444.53125Q95.4375 444.23438 95.15625 444.09375Q94.875 443.95312 94.453125 443.95312Q94.046875 443.95312 93.71875 444.125Q93.390625 444.29688 93.15625 444.59375Q92.921875 444.89062 92.78125 445.28125Q92.65625 445.65625 92.65625 446.09375ZM102.5625 448.42188L102.5625 445.15625Q102.5625 444.78125 102.40625 444.5Q102.265625 444.21875 101.96875 444.07812Q101.671875 443.92188 101.234375 443.92188Q100.8125 443.92188 100.5 444.0625Q100.203125 444.20312 100.03125 444.4375Q99.859375 444.65625 99.859375 444.92188L98.78125 444.92188Q98.78125 444.57812 98.953125 444.25Q99.125 443.90625 99.453125 443.64062Q99.78125 443.35938 100.25 443.20312Q100.71875 443.04688 101.296875 443.04688Q101.984375 443.04688 102.515625 443.28125Q103.046875 443.51562 103.34375 443.98438Q103.65625 444.45312 103.65625 445.15625L103.65625 448.10938Q103.65625 448.4375 103.703125 448.79688Q103.765625 449.14062 103.875 449.40625L103.875 449.5L102.734375 449.5Q102.65625 449.3125 102.609375 449.0Q102.5625 448.6875 102.5625 448.42188ZM102.75 445.65625L102.765625 446.42188L101.671875 446.42188Q101.203125 446.42188 100.84375 446.5Q100.484375 446.5625 100.234375 446.71875Q99.984375 446.85938 99.859375 447.07812Q99.734375 447.29688 99.734375 447.59375Q99.734375 447.89062 99.859375 448.14062Q100.0 448.375 100.265625 448.53125Q100.546875 448.67188 100.9375 448.67188Q101.4375 448.67188 101.8125 448.46875Q102.203125 448.25 102.421875 447.95312Q102.65625 447.64062 102.671875 447.34375L103.140625 447.875Q103.09375 448.10938 102.90625 448.42188Q102.734375 448.71875 102.421875 449.0Q102.125 449.26562 101.703125 449.45312Q101.296875 449.625 100.78125 449.625Q100.140625 449.625 99.65625 449.375Q99.171875 449.10938 98.90625 448.6875Q98.640625 448.26562 98.640625 447.73438Q98.640625 447.21875 98.828125 446.84375Q99.03125 446.45312 99.40625 446.1875Q99.78125 445.92188 100.3125 445.79688Q100.84375 445.65625 101.5 445.65625L102.75 445.65625ZM108.078125 445.42188L108.078125 446.3125L105.21875 446.3125L105.21875 445.42188L108.078125 445.42188ZM114.46875 446.625L114.46875 447.51562L108.3125 447.51562L108.3125 446.875L112.125 440.96875L113.015625 440.96875L112.0625 442.67188L109.546875 446.625L114.46875 446.625ZM113.28125 440.96875L113.28125 449.5L112.203125 449.5L112.203125 440.96875L113.28125 440.96875ZM115.78125 446.09375L115.78125 446.03125Q115.78125 444.75 116.0625 443.71875Q116.359375 442.6875 116.796875 441.90625Q117.25 441.125 117.734375 440.60938Q118.234375 440.09375 118.65625 439.875L118.875 440.59375Q118.53125 440.84375 118.171875 441.3125Q117.828125 441.78125 117.53125 442.45312Q117.234375 443.125 117.046875 444.01562Q116.875 444.90625 116.875 446.01562L116.875 446.09375Q116.875 447.21875 117.046875 448.10938Q117.234375 449.0 117.53125 449.67188Q117.828125 450.35938 118.171875 450.82812Q118.53125 451.3125 118.875 451.59375L118.65625 452.25Q118.234375 452.03125 117.734375 451.51562Q117.25 451.0 116.796875 450.21875Q116.359375 449.45312 116.0625 448.42188Q115.78125 447.375 115.78125 446.09375ZM123.265625 440.92188L123.265625 449.5L122.1875 449.5L122.1875 442.28125L120.0 443.07812L120.0 442.09375L123.109375 440.92188L123.265625 440.92188ZM128.07812 445.4375L127.21875 445.21875L127.640625 440.96875L132.01562 440.96875L132.01562 441.96875L128.5625 441.96875L128.29688 444.29688Q128.53125 444.15625 128.89062 444.04688Q129.26562 443.92188 129.73438 443.92188Q130.3125 443.92188 130.78125 444.125Q131.25 444.32812 131.57812 444.70312Q131.92188 445.07812 132.09375 445.60938Q132.26562 446.125 132.26562 446.78125Q132.26562 447.39062 132.09375 447.90625Q131.9375 448.42188 131.59375 448.8125Q131.26562 449.1875 130.75 449.40625Q130.25 449.625 129.5625 449.625Q129.04688 449.625 128.59375 449.48438Q128.14062 449.32812 127.765625 449.03125Q127.40625 448.73438 127.1875 448.29688Q126.96875 447.85938 126.90625 447.25L127.9375 447.25Q128.0 447.73438 128.20312 448.0625Q128.42188 448.39062 128.76562 448.5625Q129.10938 448.71875 129.5625 448.71875Q129.95312 448.71875 130.25 448.59375Q130.54688 448.45312 130.75 448.20312Q130.96875 447.95312 131.07812 447.59375Q131.1875 447.23438 131.1875 446.79688Q131.1875 446.39062 131.0625 446.04688Q130.95312 445.70312 130.73438 445.45312Q130.51562 445.1875 130.20312 445.04688Q129.89062 444.89062 129.46875 444.89062Q128.9375 444.89062 128.65625 445.04688Q128.375 445.1875 128.07812 445.4375ZM136.32812 446.03125L136.32812 446.09375Q136.32812 447.375 136.03125 448.42188Q135.75 449.45312 135.29688 450.21875Q134.85938 451.0 134.35938 451.51562Q133.875 452.03125 133.45312 452.25L133.23438 451.59375Q133.57812 451.32812 133.92188 450.85938Q134.28125 450.39062 134.57812 449.70312Q134.875 449.01562 135.04688 448.125Q135.23438 447.21875 135.23438 446.09375L135.23438 446.01562Q135.23438 444.90625 135.04688 444.01562Q134.85938 443.10938 134.54688 442.42188Q134.23438 441.73438 133.89062 441.26562Q133.54688 440.79688 133.23438 440.53125L133.45312 439.875Q133.875 440.09375 134.35938 440.60938Q134.85938 441.125 135.29688 441.90625Q135.75 442.6875 136.03125 443.71875Q136.32812 444.75 136.32812 446.03125ZM138.8125 448.20312L138.8125 449.07812Q138.8125 449.625 138.53125 450.21875Q138.26562 450.8125 137.78125 451.20312L137.17188 450.78125Q137.35938 450.51562 137.48438 450.25Q137.60938 449.98438 137.67188 449.70312Q137.75 449.42188 137.75 449.09375L137.75 448.20312L138.8125 448.20312ZM145.21875 440.96875L145.21875 441.57812L141.6875 449.5L140.54688 449.5L144.07812 441.85938L139.45312 441.85938L139.45312 440.96875L145.21875 440.96875ZM146.78125 446.09375L146.78125 446.03125Q146.78125 444.75 147.0625 443.71875Q147.35938 442.6875 147.79688 441.90625Q148.25 441.125 148.73438 440.60938Q149.23438 440.09375 149.65625 439.875L149.875 440.59375Q149.53125 440.84375 149.17188 441.3125Q148.82812 441.78125 148.53125 442.45312Q148.23438 443.125 148.04688 444.01562Q147.875 444.90625 147.875 446.01562L147.875 446.09375Q147.875 447.21875 148.04688 448.10938Q148.23438 449.0 148.53125 449.67188Q148.82812 450.35938 149.17188 450.82812Q149.53125 451.3125 149.875 451.59375L149.65625 452.25Q149.23438 452.03125 148.73438 451.51562Q148.25 451.0 147.79688 450.21875Q147.35938 449.45312 147.0625 448.42188Q146.78125 447.375 146.78125 446.09375ZM154.26562 440.92188L154.26562 449.5L153.1875 449.5L153.1875 442.28125L151.0 443.07812L151.0 442.09375L154.10938 440.92188L154.26562 440.92188ZM161.26562 440.92188L161.26562 449.5L160.1875 449.5L160.1875 442.28125L158.0 443.07812L158.0 442.09375L161.10938 440.92188L161.26562 440.92188ZM167.32812 446.03125L167.32812 446.09375Q167.32812 447.375 167.03125 448.42188Q166.75 449.45312 166.29688 450.21875Q165.85938 451.0 165.35938 451.51562Q164.875 452.03125 164.45312 452.25L164.23438 451.59375Q164.57812 451.32812 164.92188 450.85938Q165.28125 450.39062 165.57812 449.70312Q165.875 449.01562 166.04688 448.125Q166.23438 447.21875 166.23438 446.09375L166.23438 446.01562Q166.23438 444.90625 166.04688 444.01562Q165.85938 443.10938 165.54688 442.42188Q165.23438 441.73438 164.89062 441.26562Q164.54688 440.79688 164.23438 440.53125L164.45312 439.875Q164.875 440.09375 165.35938 440.60938Q165.85938 441.125 166.29688 441.90625Q166.75 442.6875 167.03125 443.71875Q167.32812 444.75 167.32812 446.03125ZM171.07812 445.42188L171.07812 446.3125L168.21875 446.3125L168.21875 445.42188L171.07812 445.42188ZM175.82812 448.26562L175.82812 440.5L176.90625 440.5L176.90625 449.5L175.92188 449.5L175.82812 448.26562ZM171.5625 446.40625L171.5625 446.28125Q171.5625 445.54688 171.73438 444.95312Q171.92188 444.35938 172.25 443.9375Q172.57812 443.5 173.03125 443.28125Q173.5 443.04688 174.0625 443.04688Q174.65625 443.04688 175.10938 443.25Q175.5625 443.45312 175.875 443.85938Q176.1875 444.25 176.35938 444.8125Q176.54688 445.35938 176.625 446.0625L176.625 446.60938Q176.5625 447.29688 176.375 447.85938Q176.1875 448.42188 175.875 448.8125Q175.5625 449.20312 175.10938 449.42188Q174.65625 449.625 174.04688 449.625Q173.5 449.625 173.03125 449.39062Q172.57812 449.14062 172.25 448.70312Q171.92188 448.26562 171.73438 447.6875Q171.5625 447.09375 171.5625 446.40625ZM172.64062 446.28125L172.64062 446.40625Q172.64062 446.875 172.73438 447.29688Q172.84375 447.70312 173.04688 448.03125Q173.25 448.34375 173.5625 448.53125Q173.89062 448.70312 174.32812 448.70312Q174.85938 448.70312 175.20312 448.46875Q175.5625 448.23438 175.76562 447.85938Q175.98438 447.48438 176.09375 447.04688L176.09375 445.64062Q176.03125 445.3125 175.89062 445.01562Q175.76562 444.71875 175.54688 444.48438Q175.34375 444.23438 175.04688 444.09375Q174.75 443.95312 174.32812 443.95312Q173.89062 443.95312 173.5625 444.14062Q173.25 444.32812 173.04688 444.65625Q172.84375 444.96875 172.73438 445.39062Q172.64062 445.79688 172.64062 446.28125ZM180.0 443.15625L180.0 449.5L178.92188 449.5L178.92188 443.15625L180.0 443.15625ZM178.82812 441.48438Q178.82812 441.21875 178.98438 441.03125Q179.15625 440.84375 179.46875 440.84375Q179.78125 440.84375 179.9375 441.03125Q180.10938 441.21875 180.10938 441.48438Q180.10938 441.73438 179.9375 441.92188Q179.78125 442.09375 179.46875 442.09375Q179.15625 442.09375 178.98438 441.92188Q178.82812 441.73438 178.82812 441.48438ZM184.45312 449.625Q183.79688 449.625 183.25 449.40625Q182.71875 449.17188 182.32812 448.76562Q181.95312 448.34375 181.75 447.78125Q181.54688 447.21875 181.54688 446.54688L181.54688 446.3125Q181.54688 445.53125 181.76562 444.92188Q182.0 444.3125 182.39062 443.89062Q182.78125 443.46875 183.28125 443.26562Q183.78125 443.04688 184.3125 443.04688Q185.0 443.04688 185.48438 443.28125Q185.98438 443.51562 186.29688 443.9375Q186.625 444.34375 186.76562 444.92188Q186.92188 445.48438 186.92188 446.14062L186.92188 446.64062L182.1875 446.64062L182.1875 445.75L185.84375 445.75L185.84375 445.67188Q185.8125 445.25 185.65625 444.85938Q185.51562 444.45312 185.1875 444.20312Q184.875 443.9375 184.3125 443.9375Q183.95312 443.9375 183.64062 444.09375Q183.32812 444.25 183.09375 444.5625Q182.875 444.85938 182.75 445.29688Q182.64062 445.73438 182.64062 446.3125L182.64062 446.54688Q182.64062 447.0 182.76562 447.40625Q182.89062 447.79688 183.125 448.09375Q183.375 448.39062 183.71875 448.5625Q184.07812 448.73438 184.51562 448.73438Q185.09375 448.73438 185.48438 448.5Q185.89062 448.26562 186.1875 447.875L186.84375 448.39062Q186.64062 448.70312 186.3125 448.98438Q186.0 449.26562 185.53125 449.45312Q185.07812 449.625 184.45312 449.625ZM188.90625 444.51562L188.90625 449.5L187.82812 449.5L187.82812 443.15625L188.85938 443.15625L188.90625 444.51562ZM188.65625 446.09375L188.20312 446.07812Q188.20312 445.42188 188.39062 444.875Q188.57812 444.3125 188.92188 443.90625Q189.26562 443.5 189.73438 443.28125Q190.20312 443.04688 190.78125 443.04688Q191.25 443.04688 191.625 443.17188Q192.0 443.29688 192.26562 443.57812Q192.53125 443.84375 192.67188 444.28125Q192.8125 444.71875 192.8125 445.34375L192.8125 449.5L191.71875 449.5L191.71875 445.32812Q191.71875 444.82812 191.57812 444.53125Q191.4375 444.23438 191.15625 444.09375Q190.875 443.95312 190.45312 443.95312Q190.04688 443.95312 189.71875 444.125Q189.39062 444.29688 189.15625 444.59375Q188.92188 444.89062 188.78125 445.28125Q188.65625 445.65625 188.65625 446.09375ZM197.45312 449.625Q196.79688 449.625 196.25 449.40625Q195.71875 449.17188 195.32812 448.76562Q194.95312 448.34375 194.75 447.78125Q194.54688 447.21875 194.54688 446.54688L194.54688 446.3125Q194.54688 445.53125 194.76562 444.92188Q195.0 444.3125 195.39062 443.89062Q195.78125 443.46875 196.28125 443.26562Q196.78125 443.04688 197.3125 443.04688Q198.0 443.04688 198.48438 443.28125Q198.98438 443.51562 199.29688 443.9375Q199.625 444.34375 199.76562 444.92188Q199.92188 445.48438 199.92188 446.14062L199.92188 446.64062L195.1875 446.64062L195.1875 445.75L198.84375 445.75L198.84375 445.67188Q198.8125 445.25 198.65625 444.85938Q198.51562 444.45312 198.1875 444.20312Q197.875 443.9375 197.3125 443.9375Q196.95312 443.9375 196.64062 444.09375Q196.32812 444.25 196.09375 444.5625Q195.875 444.85938 195.75 445.29688Q195.64062 445.73438 195.64062 446.3125L195.64062 446.54688Q195.64062 447.0 195.76562 447.40625Q195.89062 447.79688 196.125 448.09375Q196.375 448.39062 196.71875 448.5625Q197.07812 448.73438 197.51562 448.73438Q198.09375 448.73438 198.48438 448.5Q198.89062 448.26562 199.1875 447.875L199.84375 448.39062Q199.64062 448.70312 199.3125 448.98438Q199.0 449.26562 198.53125 449.45312Q198.07812 449.625 197.45312 449.625Z" fill-rule="nonzero"/><path stroke="#cccccc" stroke-width="1.0" stroke-linecap="butt" d="M345.0 324.0L184.0 231.0" fill-rule="nonzero"/><path fill="#000000" d="M118.03125 205.34375Q118.03125 205.04688 117.9375 204.8125Q117.859375 204.57812 117.625 204.39062Q117.40625 204.20312 117.0 204.03125Q116.609375 203.85938 116.015625 203.6875Q115.375 203.5 114.859375 203.28125Q114.359375 203.04688 113.984375 202.75Q113.625 202.4375 113.4375 202.0625Q113.25 201.67188 113.25 201.17188Q113.25 200.67188 113.453125 200.25Q113.65625 199.82812 114.03125 199.51562Q114.421875 199.20312 114.953125 199.03125Q115.484375 198.84375 116.140625 198.84375Q117.109375 198.84375 117.78125 199.21875Q118.453125 199.57812 118.796875 200.17188Q119.15625 200.76562 119.15625 201.42188L118.03125 201.42188Q118.03125 200.95312 117.8125 200.57812Q117.609375 200.20312 117.1875 200.0Q116.78125 199.78125 116.140625 199.78125Q115.546875 199.78125 115.140625 199.96875Q114.75 200.14062 114.5625 200.45312Q114.375 200.76562 114.375 201.15625Q114.375 201.42188 114.484375 201.65625Q114.609375 201.875 114.84375 202.0625Q115.09375 202.25 115.46875 202.40625Q115.84375 202.5625 116.375 202.70312Q117.09375 202.90625 117.625 203.17188Q118.15625 203.42188 118.5 203.73438Q118.84375 204.04688 119.0 204.4375Q119.171875 204.82812 119.171875 205.32812Q119.171875 205.85938 118.953125 206.28125Q118.75 206.70312 118.359375 207.0Q117.96875 207.29688 117.421875 207.46875Q116.875 207.625 116.203125 207.625Q115.609375 207.625 115.03125 207.45312Q114.46875 207.28125 114.0 206.95312Q113.53125 206.625 113.25 206.15625Q112.96875 205.67188 112.96875 205.03125L114.09375 205.03125Q114.09375 205.46875 114.265625 205.78125Q114.4375 206.09375 114.734375 206.29688Q115.03125 206.5 115.40625 206.60938Q115.78125 206.70312 116.203125 206.70312Q116.796875 206.70312 117.203125 206.54688Q117.609375 206.375 117.8125 206.07812Q118.03125 205.76562 118.03125 205.34375ZM120.046875 204.40625L120.046875 204.26562Q120.046875 203.57812 120.234375 203.0Q120.4375 202.40625 120.8125 201.96875Q121.1875 201.53125 121.71875 201.29688Q122.25 201.04688 122.921875 201.04688Q123.578125 201.04688 124.109375 201.29688Q124.65625 201.53125 125.03125 201.96875Q125.40625 202.40625 125.609375 203.0Q125.8125 203.57812 125.8125 204.26562L125.8125 204.40625Q125.8125 205.07812 125.609375 205.67188Q125.40625 206.25 125.03125 206.6875Q124.65625 207.125 124.125 207.375Q123.59375 207.625 122.921875 207.625Q122.265625 207.625 121.71875 207.375Q121.1875 207.125 120.8125 206.6875Q120.4375 206.25 120.234375 205.67188Q120.046875 205.07812 120.046875 204.40625ZM121.125 204.26562L121.125 204.40625Q121.125 204.875 121.234375 205.29688Q121.34375 205.71875 121.5625 206.04688Q121.796875 206.35938 122.140625 206.54688Q122.484375 206.71875 122.921875 206.71875Q123.375 206.71875 123.703125 206.54688Q124.046875 206.35938 124.265625 206.04688Q124.5 205.71875 124.609375 205.29688Q124.71875 204.875 124.71875 204.40625L124.71875 204.26562Q124.71875 203.79688 124.609375 203.375Q124.5 202.95312 124.265625 202.64062Q124.046875 202.3125 123.703125 202.125Q123.375 201.9375 122.921875 201.9375Q122.46875 201.9375 122.125 202.125Q121.796875 202.3125 121.5625 202.64062Q121.34375 202.95312 121.234375 203.375Q121.125 203.79688 121.125 204.26562ZM128.40625 202.51562L128.40625 207.5L127.328125 207.5L127.328125 201.15625L128.35938 201.15625L128.40625 202.51562ZM128.15625 204.09375L127.703125 204.07812Q127.703125 203.42188 127.890625 202.875Q128.07812 202.3125 128.42188 201.90625Q128.76562 201.5 129.23438 201.28125Q129.70312 201.04688 130.28125 201.04688Q130.75 201.04688 131.125 201.17188Q131.5 201.29688 131.76562 201.57812Q132.03125 201.84375 132.17188 202.28125Q132.3125 202.71875 132.3125 203.34375L132.3125 207.5L131.21875 207.5L131.21875 203.32812Q131.21875 202.82812 131.07812 202.53125Q130.9375 202.23438 130.65625 202.09375Q130.375 201.95312 129.95312 201.95312Q129.54688 201.95312 129.21875 202.125Q128.89062 202.29688 128.65625 202.59375Q128.42188 202.89062 128.28125 203.28125Q128.15625 203.65625 128.15625 204.09375ZM138.01562 205.8125Q138.01562 205.57812 137.90625 205.375Q137.8125 205.17188 137.5 205.01562Q137.1875 204.84375 136.5625 204.71875Q136.03125 204.60938 135.60938 204.46875Q135.1875 204.3125 134.89062 204.09375Q134.59375 203.875 134.4375 203.57812Q134.28125 203.28125 134.28125 202.89062Q134.28125 202.51562 134.4375 202.1875Q134.60938 201.84375 134.90625 201.59375Q135.21875 201.32812 135.65625 201.1875Q136.09375 201.04688 136.625 201.04688Q137.39062 201.04688 137.92188 201.3125Q138.46875 201.57812 138.75 202.03125Q139.03125 202.48438 139.03125 203.01562L137.95312 203.01562Q137.95312 202.76562 137.79688 202.51562Q137.64062 202.26562 137.34375 202.10938Q137.04688 201.9375 136.625 201.9375Q136.17188 201.9375 135.89062 202.07812Q135.60938 202.20312 135.48438 202.42188Q135.35938 202.625 135.35938 202.85938Q135.35938 203.04688 135.42188 203.1875Q135.48438 203.3125 135.64062 203.4375Q135.79688 203.54688 136.07812 203.65625Q136.375 203.75 136.82812 203.84375Q137.60938 204.01562 138.10938 204.26562Q138.60938 204.51562 138.85938 204.875Q139.10938 205.21875 139.10938 205.73438Q139.10938 206.15625 138.92188 206.5Q138.75 206.84375 138.42188 207.09375Q138.10938 207.34375 137.65625 207.48438Q137.20312 207.625 136.65625 207.625Q135.8125 207.625 135.23438 207.32812Q134.65625 207.01562 134.35938 206.54688Q134.0625 206.0625 134.0625 205.54688L135.14062 205.54688Q135.17188 205.98438 135.40625 206.25Q135.64062 206.51562 135.96875 206.625Q136.3125 206.71875 136.65625 206.71875Q137.09375 206.71875 137.39062 206.60938Q137.70312 206.48438 137.85938 206.28125Q138.01562 206.07812 138.01562 205.8125ZM142.98438 201.15625L142.98438 201.98438L139.54688 201.98438L139.54688 201.15625L142.98438 201.15625ZM140.71875 199.625L141.79688 199.625L141.79688 205.92188Q141.79688 206.25 141.89062 206.42188Q142.0 206.57812 142.15625 206.64062Q142.3125 206.6875 142.5 206.6875Q142.625 206.6875 142.76562 206.65625Q142.92188 206.625 143.0 206.60938L143.01562 207.5Q142.875 207.54688 142.67188 207.57812Q142.46875 207.625 142.17188 207.625Q141.78125 207.625 141.4375 207.46875Q141.10938 207.29688 140.90625 206.9375Q140.71875 206.5625 140.71875 205.92188L140.71875 199.625ZM145.5 201.15625L145.5 207.5L144.42188 207.5L144.42188 201.15625L145.5 201.15625ZM144.32812 199.48438Q144.32812 199.21875 144.48438 199.03125Q144.65625 198.84375 144.96875 198.84375Q145.28125 198.84375 145.4375 199.03125Q145.60938 199.21875 145.60938 199.48438Q145.60938 199.73438 145.4375 199.92188Q145.28125 200.09375 144.96875 200.09375Q144.65625 200.09375 144.48438 199.92188Q144.32812 199.73438 144.32812 199.48438ZM151.4375 201.15625L152.42188 201.15625L152.42188 207.35938Q152.42188 208.20312 152.07812 208.79688Q151.73438 209.39062 151.125 209.6875Q150.53125 210.0 149.73438 210.0Q149.40625 210.0 148.95312 209.89062Q148.51562 209.79688 148.09375 209.54688Q147.67188 209.3125 147.39062 208.90625L147.95312 208.25Q148.35938 208.73438 148.78125 208.92188Q149.21875 209.10938 149.65625 209.10938Q150.17188 209.10938 150.54688 208.90625Q150.92188 208.71875 151.125 208.34375Q151.32812 207.96875 151.32812 207.42188L151.32812 202.54688L151.4375 201.15625ZM147.0625 204.40625L147.0625 204.28125Q147.0625 203.54688 147.23438 202.95312Q147.42188 202.35938 147.73438 201.9375Q148.0625 201.5 148.51562 201.28125Q148.98438 201.04688 149.57812 201.04688Q150.17188 201.04688 150.60938 201.25Q151.0625 201.45312 151.375 201.85938Q151.6875 202.25 151.875 202.8125Q152.0625 203.35938 152.125 204.0625L152.125 204.60938Q152.0625 205.29688 151.875 205.85938Q151.6875 206.42188 151.375 206.8125Q151.0625 207.20312 150.60938 207.42188Q150.15625 207.625 149.5625 207.625Q148.98438 207.625 148.53125 207.39062Q148.07812 207.14062 147.75 206.70312Q147.42188 206.26562 147.23438 205.6875Q147.0625 205.09375 147.0625 204.40625ZM148.15625 204.28125L148.15625 204.40625Q148.15625 204.875 148.25 205.29688Q148.34375 205.70312 148.54688 206.03125Q148.75 206.34375 149.0625 206.53125Q149.39062 206.70312 149.82812 206.70312Q150.35938 206.70312 150.70312 206.46875Q151.0625 206.23438 151.26562 205.85938Q151.48438 205.48438 151.59375 205.04688L151.59375 203.64062Q151.53125 203.3125 151.39062 203.01562Q151.26562 202.71875 151.0625 202.48438Q150.85938 202.23438 150.54688 202.09375Q150.25 201.95312 149.82812 201.95312Q149.39062 201.95312 149.0625 202.14062Q148.75 202.32812 148.54688 202.65625Q148.34375 202.96875 148.25 203.39062Q148.15625 203.79688 148.15625 204.28125ZM156.95312 207.625Q156.29688 207.625 155.75 207.40625Q155.21875 207.17188 154.82812 206.76562Q154.45312 206.34375 154.25 205.78125Q154.04688 205.21875 154.04688 204.54688L154.04688 204.3125Q154.04688 203.53125 154.26562 202.92188Q154.5 202.3125 154.89062 201.89062Q155.28125 201.46875 155.78125 201.26562Q156.28125 201.04688 156.8125 201.04688Q157.5 201.04688 157.98438 201.28125Q158.48438 201.51562 158.79688 201.9375Q159.125 202.34375 159.26562 202.92188Q159.42188 203.48438 159.42188 204.14062L159.42188 204.64062L154.6875 204.64062L154.6875 203.75L158.34375 203.75L158.34375 203.67188Q158.3125 203.25 158.15625 202.85938Q158.01562 202.45312 157.6875 202.20312Q157.375 201.9375 156.8125 201.9375Q156.45312 201.9375 156.14062 202.09375Q155.82812 202.25 155.59375 202.5625Q155.375 202.85938 155.25 203.29688Q155.14062 203.73438 155.14062 204.3125L155.14062 204.54688Q155.14062 205.0 155.26562 205.40625Q155.39062 205.79688 155.625 206.09375Q155.875 206.39062 156.21875 206.5625Q156.57812 206.73438 157.01562 206.73438Q157.59375 206.73438 157.98438 206.5Q158.39062 206.26562 158.6875 205.875L159.34375 206.39062Q159.14062 206.70312 158.8125 206.98438Q158.5 207.26562 158.03125 207.45312Q157.57812 207.625 156.95312 207.625Z" fill-rule="nonzero"/><path stroke="#cccccc" stroke-width="1.0" stroke-linecap="butt" d="M345.0 324.0L345.0 138.0" fill-rule="nonzero"/><path stroke="#ff0000" stroke-width="2.0" stroke-linecap="butt" stroke-opacity="0.7019608" stroke-dasharray="8.0,6.0,2.0,6.0" d="M345.0 175.0L385.0 301.0L381.0 345.0L345.0 366.0L313.0 343.0L216.0 249.0Z" fill-rule="nonzero"/><path fill="#ff0000" fill-opacity="0.7019608" d="M341.81802 171.81802L345.0 173.875L348.18198 171.81802L346.125 175.0L348.18198 178.18198L345.0 176.125L341.81802 178.18198L343.875 175.0Z" fill-rule="nonzero"/><path fill="#ff0000" fill-opacity="0.7019608" d="M381.81802 297.81802L385.0 299.875L388.18198 297.81802L386.125 301.0L388.18198 304.18198L385.0 302.125L381.81802 304.18198L383.875 301.0Z" fill-rule="nonzero"/><path fill="#ff0000" fill-opacity="0.7019608" d="M377.81802 341.81802L381.0 343.875L384.18198 341.81802L382.125 345.0L384.18198 348.18198L381.0 346.125L377.81802 348.18198L379.875 345.0Z" fill-rule="nonzero"/><path fill="#ff0000" fill-opacity="0.7019608" d="M341.81802 362.81802L345.0 364.875L348.18198 362.81802L346.125 366.0L348.18198 369.18198L345.0 367.125L341.81802 369.18198L343.875 366.0Z" fill-rule="nonzero"/><path fill="#ff0000" fill-opacity="0.7019608" d="M309.81802 339.81802L313.0 341.875L316.18198 339.81802L314.125 343.0L316.18198 346.18198L313.0 344.125L309.81802 346.18198L311.875 343.0Z" fill-rule="nonzero"/><path fill="#ff0000" fill-opacity="0.7019608" d="M212.81802 245.81802L216.0 247.875L219.18198 245.81802L217.125 249.0L219.18198 252.18198L216.0 250.125L212.81802 252.18198L214.875 249.0Z" fill-rule="nonzero"/><path fill="#757575" d="M30.034374 47.55L30.034374 33.2375L32.89375 33.2375L36.26875 43.3625Q36.7375 44.784374 36.95625 45.4875Q37.20625 44.70625 37.721874 43.190624L41.14375 33.2375L43.690624 33.2375L43.690624 47.55L41.878124 47.55L41.878124 35.565624L37.70625 47.55L36.003124 47.55L31.8625 35.3625L31.8625 47.55L30.034374 47.55ZM53.971874 44.20625L55.784374 44.440624Q55.3625 46.01875 54.190624 46.909374Q53.034374 47.784374 51.221874 47.784374Q48.95625 47.784374 47.6125 46.39375Q46.284374 44.9875 46.284374 42.45625Q46.284374 39.83125 47.628124 38.39375Q48.971874 36.940624 51.128124 36.940624Q53.20625 36.940624 54.51875 38.3625Q55.846874 39.76875 55.846874 42.346874Q55.846874 42.503124 55.83125 42.815624L48.096874 42.815624Q48.190624 44.51875 49.065624 45.425Q49.940624 46.33125 51.2375 46.33125Q52.20625 46.33125 52.878124 45.83125Q53.565624 45.315624 53.971874 44.20625ZM48.190624 41.3625L53.9875 41.3625Q53.878124 40.065624 53.33125 39.409374Q52.4875 38.39375 51.14375 38.39375Q49.940624 38.39375 49.1125 39.20625Q48.284374 40.003124 48.190624 41.3625ZM57.83125 47.55L57.83125 33.2375L59.58125 33.2375L59.58125 47.55L57.83125 47.55ZM61.83125 47.55L61.83125 33.2375L63.58125 33.2375L63.58125 47.55L61.83125 47.55ZM65.22188 42.3625Q65.22188 39.4875 66.81563 38.096874Q68.15938 36.940624 70.08125 36.940624Q72.22188 36.940624 73.56563 38.346874Q74.925 39.753124 74.925 42.221874Q74.925 44.221874 74.33125 45.378124Q73.7375 46.51875 72.58125 47.159374Q71.44063 47.784374 70.08125 47.784374Q67.89375 47.784374 66.55 46.39375Q65.22188 44.9875 65.22188 42.3625ZM67.01875 42.3625Q67.01875 44.3625 67.87813 45.346874Q68.75313 46.33125 70.08125 46.33125Q71.39375 46.33125 72.25313 45.346874Q73.12813 44.346874 73.12813 42.3Q73.12813 40.378124 72.25313 39.39375Q71.37813 38.39375 70.08125 38.39375Q68.75313 38.39375 67.87813 39.39375Q67.01875 40.378124 67.01875 42.3625ZM78.78438 47.55L75.6125 37.175L77.425 37.175L79.08125 43.159374L79.69063 45.39375Q79.7375 45.221874 80.22188 43.253124L81.87813 37.175L83.69063 37.175L85.2375 43.190624L85.75313 45.175L86.34688 43.175L88.12813 37.175L89.83125 37.175L86.59688 47.55L84.76875 47.55L83.1125 41.33125L82.72188 39.565624L80.6125 47.55L78.78438 47.55ZM90.94063 47.55L90.94063 46.128124L97.55 38.55Q96.425 38.596874 95.56563 38.596874L91.33125 38.596874L91.33125 37.175L99.81563 37.175L99.81563 38.346874L94.19063 44.925L93.1125 46.128124Q94.28438 46.034374 95.33125 46.034374L100.12813 46.034374L100.12813 47.55L90.94063 47.55Z" fill-rule="nonzero"/></svg>