<svg version="1.1" viewBox="0.0 0.0 744.0 567.0" fill="none" stroke="none" stroke-linecap="square" stroke-miterlimit="10" width="744" height="567" xmlns:xlink="http://www.w3.org/1999/xlink" xmlns="http://www.w3.org/2000/svg"><path fill="#ffffff" d="M0 0L744.0 0L744.0 567.0L0 567.0L0 0Z" fill-rule="nonzero"/><path fill="#ffffff" d="M28.35 71.25L715.64996 71.25L715.64996 538.65L28.35 538.65L28.35 71.25Z" fill-rule="nonzero"/><path stroke="#cccccc" stroke-width="1.0" stroke-linecap="butt" d="M372.0 305.0C372.0 305.0 372.0 305.0 372.0 305.0C372.0 305.0 372.0 305.0 372.0 305.0C372.0 305.0 372.0 305.0 372.0 305.0C372.0 305.0 372.0 305.0 372.0 305.0" fill-rule="nonzero"/><path fill="#000000" d="M360.0625 297.04688L360.0625 298.35938Q360.0625 299.40625 359.875 300.125Q359.6875 300.84375 359.32812 301.28125Q358.98438 301.71875 358.48438 301.92188Q358.0 302.125 357.375 302.125Q356.89062 302.125 356.46875 302.0Q356.04688 301.875 355.71875 301.60938Q355.39062 301.32812 355.15625 300.89062Q354.92188 300.45312 354.79688 299.82812Q354.67188 299.1875 354.67188 298.35938L354.67188 297.04688Q354.67188 296.0 354.85938 295.29688Q355.0625 294.59375 355.40625 294.15625Q355.76562 293.71875 356.25 293.53125Q356.75 293.34375 357.35938 293.34375Q357.85938 293.34375 358.28125 293.46875Q358.70312 293.59375 359.03125 293.85938Q359.35938 294.10938 359.57812 294.54688Q359.8125 294.96875 359.9375 295.59375Q360.0625 296.21875 360.0625 297.04688ZM358.96875 298.53125L358.96875 296.875Q358.96875 296.29688 358.90625 295.85938Q358.84375 295.42188 358.70312 295.10938Q358.57812 294.79688 358.375 294.60938Q358.1875 294.42188 357.9375 294.32812Q357.6875 294.23438 357.35938 294.23438Q356.98438 294.23438 356.67188 294.375Q356.375 294.51562 356.17188 294.82812Q355.96875 295.14062 355.85938 295.65625Q355.76562 296.15625 355.76562 296.875L355.76562 298.53125Q355.76562 299.10938 355.82812 299.54688Q355.90625 299.98438 356.03125 300.3125Q356.17188 300.625 356.35938 300.82812Q356.5625 301.03125 356.8125 301.125Q357.0625 301.21875 357.375 301.21875Q357.78125 301.21875 358.07812 301.07812Q358.375 300.92188 358.57812 300.59375Q358.78125 300.26562 358.875 299.76562Q358.96875 299.25 358.96875 298.53125ZM362.8125 300.70312L362.8125 301.57812Q362.8125 302.125 362.53125 302.71875Q362.26562 303.3125 361.78125 303.70312L361.17188 303.28125Q361.35938 303.01562 361.48438 302.75Q361.60938 302.48438 361.67188 302.20312Q361.75 301.92188 361.75 301.59375L361.75 300.70312L362.8125 300.70312ZM369.0625 297.04688L369.0625 298.35938Q369.0625 299.40625 368.875 300.125Q368.6875 300.84375 368.32812 301.28125Q367.98438 301.71875 367.48438 301.92188Q367.0 302.125 366.375 302.125Q365.89062 302.125 365.46875 302.0Q365.04688 301.875 364.71875 301.60938Q364.39062 301.32812 364.15625 300.89062Q363.92188 300.45312 363.79688 299.82812Q363.67188 299.1875 363.67188 298.35938L363.67188 297.04688Q363.67188 296.0 363.85938 295.29688Q364.0625 294.59375 364.40625 294.15625Q364.76562 293.71875 365.25 293.53125Q365.75 293.34375 366.35938 293.34375Q366.85938 293.34375 367.28125 293.46875Q367.70312 293.59375 368.03125 293.85938Q368.35938 294.10938 368.57812 294.54688Q368.8125 294.96875 368.9375 295.59375Q369.0625 296.21875 369.0625 297.04688ZM367.96875 298.53125L367.96875 296.875Q367.96875 296.29688 367.90625 295.85938Q367.84375 295.42188 367.70312 295.10938Q367.57812 294.79688 367.375 294.60938Q367.1875 294.42188 366.9375 294.32812Q366.6875 294.23438 366.35938 294.23438Q365.98438 294.23438 365.67188 294.375Q365.375 294.51562 365.17188 294.82812Q364.96875 295.14062 364.85938 295.65625Q364.76562 296.15625 364.76562 296.875L364.76562 298.53125Q364.76562 299.10938 364.82812 299.54688Q364.90625 299.98438 365.03125 300.3125Q365.17188 300.625 365.35938 300.82812Q365.5625 301.03125 365.8125 301.125Q366.0625 301.21875 366.375 301.21875Q366.78125 301.21875 367.07812 301.07812Q367.375 300.92188 367.57812 300.59375Q367.78125 300.26562 367.875 299.76562Q367.96875 299.25 367.96875 298.53125Z" fill-rule="nonzero"/><path stroke="#cccccc" stroke-width="1.0" stroke-linecap="butt" d="M422.425 305.0C422.425 277.15103 399.84897 254.575 372.0 254.575C344.15103 254.575 321.575 277.15103 321.575 305.0C321.575 332.84897 344.15103 355.425 372.0 355.425C399.84897 355.425 422.425 332.84897 422.425 305.0" fill-rule="nonzero"/><path fill="#000000" d="M360.0625 246.62187L360.0625 247.93437Q360.0625 248.98125 359.875 249.7Q359.6875 250.41875 359.32812 250.85625Q358.98438 251.29375 358.48438 251.49687Q358.0 251.7 357.375 251.7Q356.89062 251.7 356.46875 251.575Q356.04688 251.45 355.71875 251.18437Q355.39062 250.90312 355.15625 250.46562Q354.92188 250.02812 354.79688 249.40312Q354.67188 248.7625 354.67188 247.93437L354.67188 246.62187Q354.67188 245.575 354.85938 244.87187Q355.0625 244.16875 355.40625 243.73125Q355.76562 243.29375 356.25 243.10625Q356.75 242.91875 357.35938 242.91875Q357.85938 242.91875 358.28125 243.04375Q358.70312 243.16875 359.03125 243.43437Q359.35938 243.68437 359.57812 244.12187Q359.8125 244.54375 359.9375 245.16875Q360.0625 245.79375 360.0625 246.62187ZM358.96875 248.10625L358.96875 246.45Q358.96875 245.87187 358.90625 245.43437Q358.84375 244.99687 358.70312 244.68437Q358.57812 244.37187 358.375 244.18437Q358.1875 243.99687 357.9375 243.90312Q357.6875 243.80937 357.35938 243.80937Q356.98438 243.80937 356.67188 243.95Q356.375 244.09062 356.17188 244.40312Q355.96875 244.71562 355.85938 245.23125Q355.76562 245.73125 355.76562 246.45L355.76562 248.10625Q355.76562 248.68437 355.82812 249.12187Q355.90625 249.55937 356.03125 249.8875Q356.17188 250.2 356.35938 250.40312Q356.5625 250.60625 356.8125 250.7Q357.0625 250.79375 357.375 250.79375Q357.78125 250.79375 358.07812 250.65312Q358.375 250.49687 358.57812 250.16875Q358.78125 249.84062 358.875 249.34062Q358.96875 248.825 358.96875 248.10625ZM362.8125 250.27812L362.8125 251.15312Q362.8125 251.7 362.53125 252.29375Q362.26562 252.8875 361.78125 253.27812L361.17188 252.85625Q361.35938 252.59062 361.48438 252.325Q361.60938 252.05937 361.67188 251.77812Q361.75 251.49687 361.75 251.16875L361.75 250.27812L362.8125 250.27812ZM367.26562 242.99687L367.26562 251.575L366.1875 251.575L366.1875 244.35625L364.0 245.15312L364.0 244.16875L367.10938 242.99687L367.26562 242.99687Z" fill-rule="nonzero"/><path stroke="#cccccc" stroke-width="1.0" stroke-linecap="butt" d="M472.85 305.0C472.85 249.30208 427.6979 204.15 372.0 204.15C316.3021 204.15 271.15 249.30208 271.15 305.0C271.15 360.6979 316.3021 405.85 372.0 405.85C427.6979 405.85 472.85 360.6979 472.85 305.0" fill-rule="nonzero"/><path fill="#000000" d="M360.0625 196.19687L360.0625 197.50937Q360.0625 198.55624 359.875 199.275Q359.6875 199.99374 359.32812 200.43124Q358.98438 200.86874 358.48438 201.07187Q358.0 201.275 357.375 201.275Q356.89062 201.275 356.46875 201.15Q356.04688 201.025 355.71875 200.75937Q355.39062 200.47812 355.15625 200.04062Q354.92188 199.60312 354.79688 198.97812Q354.67188 198.3375 354.67188 197.50937L354.67188 196.19687Q354.67188 195.15 354.85938 194.44687Q355.0625 193.74374 355.40625 193.30624Q355.76562 192.86874 356.25 192.68124Q356.75 192.49374 357.35938 192.49374Q357.85938 192.49374 358.28125 192.61874Q358.70312 192.74374 359.03125 193.00937Q359.35938 193.25937 359.57812 193.69687Q359.8125 194.11874 359.9375 194.74374Q360.0625 195.36874 360.0625 196.19687ZM358.96875 197.68124L358.96875 196.025Q358.96875 195.44687 358.90625 195.00937Q358.84375 194.57187 358.70312 194.25937Q358.57812 193.94687 358.375 193.75937Q358.1875 193.57187 357.9375 193.47812Q357.6875 193.38437 357.35938 193.38437Q356.98438 193.38437 356.67188 193.525Q356.375 193.66562 356.17188 193.97812Q355.96875 194.29062 355.85938 194.80624Q355.76562 195.30624 355.76562 196.025L355.76562 197.68124Q355.76562 198.25937 355.82812 198.69687Q355.90625 199.13437 356.03125 199.4625Q356.17188 199.775 356.35938 199.97812Q356.5625 200.18124 356.8125 200.275Q357.0625 200.36874 357.375 200.36874Q357.78125 200.36874 358.07812 200.22812Q358.375 200.07187 358.57812 199.74374Q358.78125 199.41562 358.875 198.91562Q358.96875 198.4 358.96875 197.68124ZM362.8125 199.85312L362.8125 200.72812Q362.8125 201.275 362.53125 201.86874Q362.26562 202.4625 361.78125 202.85312L361.17188 202.43124Q361.35938 202.16562 361.48438 201.9Q361.60938 201.63437 361.67188 201.35312Q361.75 201.07187 361.75 200.74374L361.75 199.85312L362.8125 199.85312ZM369.29688 200.25937L369.29688 201.15L363.71875 201.15L363.71875 200.36874L366.51562 197.25937Q367.03125 196.68124 367.3125 196.29062Q367.59375 195.88437 367.70312 195.57187Q367.82812 195.24374 367.82812 194.91562Q367.82812 194.49374 367.65625 194.15Q367.48438 193.80624 367.14062 193.60312Q366.8125 193.38437 366.32812 193.38437Q365.76562 193.38437 365.39062 193.61874Q365.01562 193.8375 364.82812 194.22812Q364.64062 194.61874 364.64062 195.11874L363.54688 195.11874Q363.54688 194.4 363.85938 193.80624Q364.1875 193.2125 364.79688 192.85312Q365.42188 192.49374 366.32812 192.49374Q367.14062 192.49374 367.71875 192.79062Q368.29688 193.07187 368.59375 193.5875Q368.90625 194.0875 368.90625 194.775Q368.90625 195.15 368.78125 195.54062Q368.65625 195.91562 368.4375 196.30624Q368.21875 196.68124 367.92188 197.05624Q367.64062 197.41562 367.3125 197.775L365.01562 200.25937L369.29688 200.25937Z" fill-rule="nonzero"/><path stroke="#cccccc" stroke-width="1.0" stroke-linecap="butt" d="M523.275 305.0C523.275 221.45312 455.54688 153.725 372.0 153.725C288.45312 153.725 220.725 221.45312 220.725 305.0C220.725 388.54688 288.45312 456.275 372.0 456.275C455.54688 456.275 523.275 388.54688 523.275 305.0" fill-rule="nonzero"/><path fill="#000000" d="M360.0625 145.77188L360.0625 147.08438Q360.0625 148.13126 359.875 148.85Q359.6875 149.56876 359.32812 150.00626Q358.98438 150.44376 358.48438 150.64688Q358.0 150.85 357.375 150.85Q356.89062 150.85 356.46875 150.725Q356.04688 150.6 355.71875 150.33438Q355.39062 150.05313 355.15625 149.61563Q354.92188 149.17813 354.79688 148.55313Q354.67188 147.9125 354.67188 147.08438L354.67188 145.77188Q354.67188 144.725 354.85938 144.02188Q355.0625 143.31876 355.40625 142.88126Q355.76562 142.44376 356.25 142.25626Q356.75 142.06876 357.35938 142.06876Q357.85938 142.06876 358.28125 142.19376Q358.70312 142.31876 359.03125 142.58438Q359.35938 142.83438 359.57812 143.27188Q359.8125 143.69376 359.9375 144.31876Q360.0625 144.94376 360.0625 145.77188ZM358.96875 147.25626L358.96875 145.6Q358.96875 145.02188 358.90625 144.58438Q358.84375 144.14688 358.70312 143.83438Q358.57812 143.52188 358.375 143.33438Q358.1875 143.14688 357.9375 143.05313Q357.6875 142.95938 357.35938 142.95938Q356.98438 142.95938 356.67188 143.1Q356.375 143.24063 356.17188 143.55313Q355.96875 143.86563 355.85938 144.38126Q355.76562 144.88126 355.76562 145.6L355.76562 147.25626Q355.76562 147.83438 355.82812 148.27188Q355.90625 148.70938 356.03125 149.0375Q356.17188 149.35 356.35938 149.55313Q356.5625 149.75626 356.8125 149.85Q357.0625 149.94376 357.375 149.94376Q357.78125 149.94376 358.07812 149.80313Q358.375 149.64688 358.57812 149.31876Q358.78125 148.99063 358.875 148.49063Q358.96875 147.975 358.96875 147.25626ZM362.8125 149.42813L362.8125 150.30313Q362.8125 150.85 362.53125 151.44376Q362.26562 152.0375 361.78125 152.42813L361.17188 152.00626Q361.35938 151.74063 361.48438 151.475Q361.60938 151.20938 361.67188 150.92813Q361.75 150.64688 361.75 150.31876L361.75 149.42813L362.8125 149.42813ZM365.29688 145.92813L366.0625 145.92813Q366.64062 145.92813 367.0 145.74063Q367.375 145.5375 367.5625 145.20938Q367.75 144.88126 367.75 144.45938Q367.75 143.975 367.57812 143.64688Q367.42188 143.30313 367.09375 143.13126Q366.76562 142.95938 366.26562 142.95938Q365.79688 142.95938 365.45312 143.14688Q365.10938 143.31876 364.90625 143.64688Q364.71875 143.975 364.71875 144.42813L363.625 144.42813Q363.625 143.77188 363.95312 143.24063Q364.28125 142.70938 364.875 142.39688Q365.46875 142.06876 366.26562 142.06876Q367.03125 142.06876 367.60938 142.35Q368.1875 142.61563 368.51562 143.1625Q368.84375 143.69376 368.84375 144.49063Q368.84375 144.81876 368.6875 145.17813Q368.53125 145.5375 368.21875 145.86563Q367.90625 146.17813 367.40625 146.38126Q366.92188 146.58438 366.21875 146.58438L365.29688 146.58438L365.29688 145.92813ZM365.29688 146.81876L365.29688 146.1625L366.21875 146.1625Q367.03125 146.1625 367.5625 146.36563Q368.09375 146.55313 368.40625 146.88126Q368.71875 147.19376 368.84375 147.58438Q368.96875 147.95938 368.96875 148.35Q368.96875 148.94376 368.76562 149.4125Q368.5625 149.86563 368.1875 150.19376Q367.82812 150.50626 367.32812 150.67813Q366.84375 150.85 366.26562 150.85Q365.70312 150.85 365.21875 150.69376Q364.73438 150.52188 364.35938 150.225Q363.98438 149.92813 363.76562 149.49063Q363.5625 149.0375 363.5625 148.475L364.64062 148.475Q364.64062 148.9125 364.82812 149.25626Q365.03125 149.58438 365.39062 149.77188Q365.76562 149.94376 366.26562 149.94376Q366.76562 149.94376 367.125 149.77188Q367.48438 149.6 367.67188 149.25626Q367.875 148.89688 367.875 148.36563Q367.875 147.83438 367.65625 147.49063Q367.4375 147.14688 367.01562 146.99063Q366.60938 146.81876 366.0625 146.81876L365.29688 146.81876Z" fill-rule="nonzero"/><path stroke="#cccccc" stroke-width="1.0" stroke-linecap="butt" d="M573.7 305.0C573.7 193.60417 483.39584 103.3 372.0 103.3C260.60416 103.3 170.3 193.60417 170.3 305.0C170.3 416.39584 260.60416 506.7 372.0 506.7C483.39584 506.7 573.7 416.39584 573.7 305.0" fill-rule="nonzero"/><path fill="#000000" d="M360.0625 95.34688L360.0625 96.65938Q360.0625 97.70625 359.875 98.425Q359.6875 99.14375 359.32812 99.58125Q358.98438 100.01875 358.48438 100.22188Q358.0 100.425 357.375 100.425Q356.89062 100.425 356.46875 100.3Q356.04688 100.175 355.71875 99.90938Q355.39062 99.62813 355.15625 99.19063Q354.92188 98.75313 354.79688 98.12813Q354.67188 97.4875 354.67188 96.65938L354.67188 95.34688Q354.67188 94.3 354.85938 93.59688Q355.0625 92.89375 355.40625 92.45625Q355.76562 92.01875 356.25 91.83125Q356.75 91.64375 357.35938 91.64375Q357.85938 91.64375 358.28125 91.76875Q358.70312 91.89375 359.03125 92.15938Q359.35938 92.40938 359.57812 92.84688Q359.8125 93.26875 359.9375 93.89375Q360.0625 94.51875 360.0625 95.34688ZM358.96875 96.83125L358.96875 95.175Q358.96875 94.59688 358.90625 94.15938Q358.84375 93.72188 358.70312 93.40938Q358.57812 93.09688 358.375 92.90938Q358.1875 92.72188 357.9375 92.62813Q357.6875 92.53438 357.35938 92.53438Q356.98438 92.53438 356.67188 92.675Q356.375 92.81563 356.17188 93.12813Q355.96875 93.44063 355.85938 93.95625Q355.76562 94.45625 355.76562 95.175L355.76562 96.83125Q355.76562 97.40938 355.82812 97.84688Q355.90625 98.28438 356.03125 98.6125Q356.17188 98.925 356.35938 99.12813Q356.5625 99.33125 356.8125 99.425Q357.0625 99.51875 357.375 99.51875Q357.78125 99.51875 358.07812 99.37813Q358.375 99.22188 358.57812 98.89375Q358.78125 98.56563 358.875 98.06563Q358.96875 97.55 358.96875 96.83125ZM362.8125 99.00313L362.8125 99.87813Q362.8125 100.425 362.53125 101.01875Q362.26562 101.6125 361.78125 102.00313L361.17188 101.58125Q361.35938 101.31563 361.48438 101.05Q361.60938 100.78438 361.67188 100.50313Q361.75 100.22188 361.75 99.89375L361.75 99.00313L362.8125 99.00313ZM369.46875 97.425L369.46875 98.31563L363.3125 98.31563L363.3125 97.675L367.125 91.76875L368.01562 91.76875L367.0625 93.47188L364.54688 97.425L369.46875 97.425ZM368.28125 91.76875L368.28125 100.3L367.20312 100.3L367.20312 91.76875L368.28125 91.76875Z" fill-rule="nonzero"/><path stroke="#cccccc" stroke-width="1.0" stroke-linecap="butt" d="M372.0 305.0L372.0 103.0" fill-rule="nonzero"/><path fill="#000000" d="M324.53125 75.34375Q324.53125 75.046875 324.4375 74.8125Q324.35938 74.578125 324.125 74.390625Q323.90625 74.203125 323.5 74.03125Q323.10938 73.859375 322.51562 73.6875Q321.875 73.5 321.35938 73.28125Q320.85938 73.046875 320.48438 72.75Q320.125 72.4375 319.9375 72.0625Q319.75 71.671875 319.75 71.171875Q319.75 70.671875 319.95312 70.25Q320.15625 69.828125 320.53125 69.515625Q320.92188 69.203125 321.45312 69.03125Q321.98438 68.84375 322.64062 68.84375Q323.60938 68.84375 324.28125 69.21875Q324.95312 69.578125 325.29688 70.171875Q325.65625 70.765625 325.65625 71.421875L324.53125 71.421875Q324.53125 70.953125 324.3125 70.578125Q324.10938 70.203125 323.6875 70.0Q323.28125 69.78125 322.64062 69.78125Q322.04688 69.78125 321.64062 69.96875Q321.25 70.140625 321.0625 70.453125Q320.875 70.765625 320.875 71.15625Q320.875 71.421875 320.98438 71.65625Q321.10938 71.875 321.34375 72.0625Q321.59375 72.25 321.96875 72.40625Q322.34375 72.5625 322.875 72.703125Q323.59375 72.90625 324.125 73.171875Q324.65625 73.421875 325.0 73.734375Q325.34375 74.046875 325.5 74.4375Q325.67188 74.828125 325.67188 75.328125Q325.67188 75.859375 325.45312 76.28125Q325.25 76.703125 324.85938 77.0Q324.46875 77.296875 323.92188 77.46875Q323.375 77.625 322.70312 77.625Q322.10938 77.625 321.53125 77.453125Q320.96875 77.28125 320.5 76.953125Q320.03125 76.625 319.75 76.15625Q319.46875 75.671875 319.46875 75.03125L320.59375 75.03125Q320.59375 75.46875 320.76562 75.78125Q320.9375 76.09375 321.23438 76.296875Q321.53125 76.5 321.90625 76.609375Q322.28125 76.703125 322.70312 76.703125Q323.29688 76.703125 323.70312 76.546875Q324.10938 76.375 324.3125 76.078125Q324.53125 75.765625 324.53125 75.34375ZM329.45312 77.625Q328.79688 77.625 328.25 77.40625Q327.71875 77.171875 327.32812 76.765625Q326.95312 76.34375 326.75 75.78125Q326.54688 75.21875 326.54688 74.546875L326.54688 74.3125Q326.54688 73.53125 326.76562 72.921875Q327.0 72.3125 327.39062 71.890625Q327.78125 71.46875 328.28125 71.265625Q328.78125 71.046875 329.3125 71.046875Q330.0 71.046875 330.48438 71.28125Q330.98438 71.515625 331.29688 71.9375Q331.625 72.34375 331.76562 72.921875Q331.92188 73.484375 331.92188 74.140625L331.92188 74.640625L327.1875 74.640625L327.1875 73.75L330.84375 73.75L330.84375 73.671875Q330.8125 73.25 330.65625 72.859375Q330.51562 72.453125 330.1875 72.203125Q329.875 71.9375 329.3125 71.9375Q328.95312 71.9375 328.64062 72.09375Q328.32812 72.25 328.09375 72.5625Q327.875 72.859375 327.75 73.296875Q327.64062 73.734375 327.64062 74.3125L327.64062 74.546875Q327.64062 75.0 327.76562 75.40625Q327.89062 75.796875 328.125 76.09375Q328.375 76.390625 328.71875 76.5625Q329.07812 76.734375 329.51562 76.734375Q330.09375 76.734375 330.48438 76.5Q330.89062 76.265625 331.1875 75.875L331.84375 76.390625Q331.64062 76.703125 331.3125 76.984375Q331.0 77.265625 330.53125 77.453125Q330.07812 77.625 329.45312 77.625ZM334.0 68.5L334.0 77.5L332.92188 77.5L332.92188 68.5L334.0 68.5ZM337.0 71.15625L337.0 77.5L335.92188 77.5L335.92188 71.15625L337.0 71.15625ZM335.82812 69.484375Q335.82812 69.21875 335.98438 69.03125Q336.15625 68.84375 336.46875 68.84375Q336.78125 68.84375 336.9375 69.03125Q337.10938 69.21875 337.10938 69.484375Q337.10938 69.734375 336.9375 69.921875Q336.78125 70.09375 336.46875 70.09375Q336.15625 70.09375 335.98438 69.921875Q335.82812 69.734375 335.82812 69.484375ZM339.90625 72.515625L339.90625 77.5L338.82812 77.5L338.82812 71.15625L339.85938 71.15625L339.90625 72.515625ZM339.65625 74.09375L339.20312 74.078125Q339.20312 73.421875 339.39062 72.875Q339.57812 72.3125 339.92188 71.90625Q340.26562 71.5 340.73438 71.28125Q341.20312 71.046875 341.78125 71.046875Q342.25 71.046875 342.625 71.171875Q343.0 71.296875 343.26562 71.578125Q343.53125 71.84375 343.67188 72.28125Q343.8125 72.71875 343.8125 73.34375L343.8125 77.5L342.71875 77.5L342.71875 73.328125Q342.71875 72.828125 342.57812 72.53125Q342.4375 72.234375 342.15625 72.09375Q341.875 71.953125 341.45312 71.953125Q341.04688 71.953125 340.71875 72.125Q340.39062 72.296875 340.15625 72.59375Q339.92188 72.890625 339.78125 73.28125Q339.65625 73.65625 339.65625 74.09375ZM349.5625 76.421875L349.5625 73.15625Q349.5625 72.78125 349.40625 72.5Q349.26562 72.21875 348.96875 72.078125Q348.67188 71.921875 348.23438 71.921875Q347.8125 71.921875 347.5 72.0625Q347.20312 72.203125 347.03125 72.4375Q346.85938 72.65625 346.85938 72.921875L345.78125 72.921875Q345.78125 72.578125 345.95312 72.25Q346.125 71.90625 346.45312 71.640625Q346.78125 71.359375 347.25 71.203125Q347.71875 71.046875 348.29688 71.046875Q348.98438 71.046875 349.51562 71.28125Q350.04688 71.515625 350.34375 71.984375Q350.65625 72.453125 350.65625 73.15625L350.65625 76.109375Q350.65625 76.4375 350.70312 76.796875Q350.76562 77.140625 350.875 77.40625L350.875 77.5L349.73438 77.5Q349.65625 77.3125 349.60938 77.0Q349.5625 76.6875 349.5625 76.421875ZM349.75 73.65625L349.76562 74.421875L348.67188 74.421875Q348.20312 74.421875 347.84375 74.5Q347.48438 74.5625 347.23438 74.71875Q346.98438 74.859375 346.85938 75.078125Q346.73438 75.296875 346.73438 75.59375Q346.73438 75.890625 346.85938 76.140625Q347.0 76.375 347.26562 76.53125Q347.54688 76.671875 347.9375 76.671875Q348.4375 76.671875 348.8125 76.46875Q349.20312 76.25 349.42188 75.953125Q349.65625 75.640625 349.67188 75.34375L350.14062 75.875Q350.09375 76.109375 349.90625 76.421875Q349.73438 76.71875 349.42188 77.0Q349.125 77.265625 348.70312 77.453125Q348.29688 77.625 347.78125 77.625Q347.14062 77.625 346.65625 77.375Q346.17188 77.109375 345.90625 76.6875Q345.64062 76.265625 345.64062 75.734375Q345.64062 75.21875 345.82812 74.84375Q346.03125 74.453125 346.40625 74.1875Q346.78125 73.921875 347.3125 73.796875Q347.84375 73.65625 348.5 73.65625L349.75 73.65625ZM355.07812 73.421875L355.07812 74.3125L352.21875 74.3125L352.21875 73.421875L355.07812 73.421875ZM357.29688 72.703125L358.0625 72.703125Q358.64062 72.703125 359.0 72.515625Q359.375 72.3125 359.5625 71.984375Q359.75 71.65625 359.75 71.234375Q359.75 70.75 359.57812 70.421875Q359.42188 70.078125 359.09375 69.90625Q358.76562 69.734375 358.26562 69.734375Q357.79688 69.734375 357.45312 69.921875Q357.10938 70.09375 356.90625 70.421875Q356.71875 70.75 356.71875 71.203125L355.625 71.203125Q355.625 70.546875 355.95312 70.015625Q356.28125 69.484375 356.875 69.171875Q357.46875 68.84375 358.26562 68.84375Q359.03125 68.84375 359.60938 69.125Q360.1875 69.390625 360.51562 69.9375Q360.84375 70.46875 360.84375 71.265625Q360.84375 71.59375 360.6875 71.953125Q360.53125 72.3125 360.21875 72.640625Q359.90625 72.953125 359.40625 73.15625Q358.92188 73.359375 358.21875 73.359375L357.29688 73.359375L357.29688 72.703125ZM357.29688 73.59375L357.29688 72.9375L358.21875 72.9375Q359.03125 72.9375 359.5625 73.140625Q360.09375 73.328125 360.40625 73.65625Q360.71875 73.96875 360.84375 74.359375Q360.96875 74.734375 360.96875 75.125Q360.96875 75.71875 360.76562 76.1875Q360.5625 76.640625 360.1875 76.96875Q359.82812 77.28125 359.32812 77.453125Q358.84375 77.625 358.26562 77.625Q357.70312 77.625 357.21875 77.46875Q356.73438 77.296875 356.35938 77.0Q355.98438 76.703125 355.76562 76.265625Q355.5625 75.8125 355.5625 75.25L356.64062 75.25Q356.64062 75.6875 356.82812 76.03125Q357.03125 76.359375 357.39062 76.546875Q357.76562 76.71875 358.26562 76.71875Q358.76562 76.71875 359.125 76.546875Q359.48438 76.375 359.67188 76.03125Q359.875 75.671875 359.875 75.140625Q359.875 74.609375 359.65625 74.265625Q359.4375 73.921875 359.01562 73.765625Q358.60938 73.59375 358.0625 73.59375L357.29688 73.59375ZM363.8125 76.203125L363.8125 77.078125Q363.8125 77.625 363.53125 78.21875Q363.26562 78.8125 362.78125 79.203125L362.17188 78.78125Q362.35938 78.515625 362.48438 78.25Q362.60938 77.984375 362.67188 77.703125Q362.75 77.421875 362.75 77.09375L362.75 76.203125L363.8125 76.203125ZM370.21875 68.96875L370.21875 69.578125L366.6875 77.5L365.54688 77.5L369.07812 69.859375L364.45312 69.859375L364.45312 68.96875L370.21875 68.96875ZM371.78125 74.09375L371.78125 74.03125Q371.78125 72.75 372.0625 71.71875Q372.35938 70.6875 372.79688 69.90625Q373.25 69.125 373.73438 68.609375Q374.23438 68.09375 374.65625 67.875L374.875 68.59375Q374.53125 68.84375 374.17188 69.3125Q373.82812 69.78125 373.53125 70.453125Q373.23438 71.125 373.04688 72.015625Q372.875 72.90625 372.875 74.015625L372.875 74.09375Q372.875 75.21875 373.04688 76.109375Q373.23438 77.0 373.53125 77.671875Q373.82812 78.359375 374.17188 78.828125Q374.53125 79.3125 374.875 79.59375L374.65625 80.25Q374.23438 80.03125 373.73438 79.515625Q373.25 79.0 372.79688 78.21875Q372.35938 77.453125 372.0625 76.421875Q371.78125 75.375 371.78125 74.09375ZM379.26562 68.921875L379.26562 77.5L378.1875 77.5L378.1875 70.28125L376.0 71.078125L376.0 70.09375L379.10938 68.921875L379.26562 68.921875ZM386.26562 68.921875L386.26562 77.5L385.1875 77.5L385.1875 70.28125L383.0 71.078125L383.0 70.09375L386.10938 68.921875L386.26562 68.921875ZM392.32812 74.03125L392.32812 74.09375Q392.32812 75.375 392.03125 76.421875Q391.75 77.453125 391.29688 78.21875Q390.85938 79.0 390.35938 79.515625Q389.875 80.03125 389.45312 80.25L389.23438 79.59375Q389.57812 79.328125 389.92188 78.859375Q390.28125 78.390625 390.57812 77.703125Q390.875 77.015625 391.04688 76.125Q391.23438 75.21875 391.23438 74.09375L391.23438 74.015625Q391.23438 72.90625 391.04688 72.015625Q390.85938 71.109375 390.54688 70.421875Q390.23438 69.734375 389.89062 69.265625Q389.54688 68.796875 389.23438 68.53125L389.45312 67.875Q389.875 68.09375 390.35938 68.609375Q390.85938 69.125 391.29688 69.90625Q391.75 70.6875 392.03125 71.71875Q392.32812 72.75 392.32812 74.03125ZM396.07812 73.421875L396.07812 74.3125L393.21875 74.3125L393.21875 73.421875L396.07812 73.421875ZM400.82812 76.265625L400.82812 68.5L401.90625 68.5L401.90625 77.5L400.92188 77.5L400.82812 76.265625ZM396.5625 74.40625L396.5625 74.28125Q396.5625 73.546875 396.73438 72.953125Q396.92188 72.359375 397.25 71.9375Q397.57812 71.5 398.03125 71.28125Q398.5 71.046875 399.0625 71.046875Q399.65625 71.046875 400.10938 71.25Q400.5625 71.453125 400.875 71.859375Q401.1875 72.25 401.35938 72.8125Q401.54688 73.359375 401.625 74.0625L401.625 74.609375Q401.5625 75.296875 401.375 75.859375Q401.1875 76.421875 400.875 76.8125Q400.5625 77.203125 400.10938 77.421875Q399.65625 77.625 399.04688 77.625Q398.5 77.625 398.03125 77.390625Q397.57812 77.140625 397.25 76.703125Q396.92188 76.265625 396.73438 75.6875Q396.5625 75.09375 396.5625 74.40625ZM397.64062 74.28125L397.64062 74.40625Q397.64062 74.875 397.73438 75.296875Q397.84375 75.703125 398.04688 76.03125Q398.25 76.34375 398.5625 76.53125Q398.89062 76.703125 399.32812 76.703125Q399.85938 76.703125 400.20312 76.46875Q400.5625 76.234375 400.76562 75.859375Q400.98438 75.484375 401.09375 75.046875L401.09375 73.640625Q401.03125 73.3125 400.89062 73.015625Q400.76562 72.71875 400.54688 72.484375Q400.34375 72.234375 400.04688 72.09375Q399.75 71.953125 399.32812 71.953125Q398.89062 71.953125 398.5625 72.140625Q398.25 72.328125 398.04688 72.65625Q397.84375 72.96875 397.73438 73.390625Q397.64062 73.796875 397.64062 74.28125ZM405.0 71.15625L405.0 77.5L403.92188 77.5L403.92188 71.15625L405.0 71.15625ZM403.82812 69.484375Q403.82812 69.21875 403.98438 69.03125Q404.15625 68.84375 404.46875 68.84375Q404.78125 68.84375 404.9375 69.03125Q405.10938 69.21875 405.10938 69.484375Q405.10938 69.734375 404.9375 69.921875Q404.78125 70.09375 404.46875 70.09375Q404.15625 70.09375 403.98438 69.921875Q403.82812 69.734375 403.82812 69.484375ZM409.45312 77.625Q408.79688 77.625 408.25 77.40625Q407.71875 77.171875 407.32812 76.765625Q406.95312 76.34375 406.75 75.78125Q406.54688 75.21875 406.54688 74.546875L406.54688 74.3125Q406.54688 73.53125 406.76562 72.921875Q407.0 72.3125 407.39062 71.890625Q407.78125 71.46875 408.28125 71.265625Q408.78125 71.046875 409.3125 71.046875Q410.0 71.046875 410.48438 71.28125Q410.98438 71.515625 411.29688 71.9375Q411.625 72.34375 411.76562 72.921875Q411.92188 73.484375 411.92188 74.140625L411.92188 74.640625L407.1875 74.640625L407.1875 73.75L410.84375 73.75L410.84375 73.671875Q410.8125 73.25 410.65625 72.859375Q410.51562 72.453125 410.1875 72.203125Q409.875 71.9375 409.3125 71.9375Q408.95312 71.9375 408.64062 72.09375Q408.32812 72.25 408.09375 72.5625Q407.875 72.859375 407.75 73.296875Q407.64062 73.734375 407.64062 74.3125L407.64062 74.546875Q407.64062 75.0 407.76562 75.40625Q407.89062 75.796875 408.125 76.09375Q408.375 76.390625 408.71875 76.5625Q409.07812 76.734375 409.51562 76.734375Q410.09375 76.734375 410.48438 76.5Q410.89062 76.265625 411.1875 75.875L411.84375 76.390625Q411.64062 76.703125 411.3125 76.984375Q411.0 77.265625 410.53125 77.453125Q410.07812 77.625 409.45312 77.625ZM413.90625 72.515625L413.90625 77.5L412.82812 77.5L412.82812 71.15625L413.85938 71.15625L413.90625 72.515625ZM413.65625 74.09375L413.20312 74.078125Q413.20312 73.421875 413.39062 72.875Q413.57812 72.3125 413.92188 71.90625Q414.26562 71.5 414.73438 71.28125Q415.20312 71.046875 415.78125 71.046875Q416.25 71.046875 416.625 71.171875Q417.0 71.296875 417.26562 71.578125Q417.53125 71.84375 417.67188 72.28125Q417.8125 72.71875 417.8125 73.34375L417.8125 77.5L416.71875 77.5L416.71875 73.328125Q416.71875 72.828125 416.57812 72.53125Q416.4375 72.234375 416.15625 72.09375Q415.875 71.953125 415.45312 71.953125Q415.04688 71.953125 414.71875 72.125Q414.39062 72.296875 414.15625 72.59375Q413.92188 72.890625 413.78125 73.28125Q413.65625 73.65625 413.65625 74.09375ZM422.45312 77.625Q421.79688 77.625 421.25 77.40625Q420.71875 77.171875 420.32812 76.765625Q419.95312 76.34375 419.75 75.78125Q419.54688 75.21875 419.54688 74.546875L419.54688 74.3125Q419.54688 73.53125 419.76562 72.921875Q420.0 72.3125 420.39062 71.890625Q420.78125 71.46875 421.28125 71.265625Q421.78125 71.046875 422.3125 71.046875Q423.0 71.046875 423.48438 71.28125Q423.98438 71.515625 424.29688 71.9375Q424.625 72.34375 424.76562 72.921875Q424.92188 73.484375 424.92188 74.140625L424.92188 74.640625L420.1875 74.640625L420.1875 73.75L423.84375 73.75L423.84375 73.671875Q423.8125 73.25 423.65625 72.859375Q423.51562 72.453125 423.1875 72.203125Q422.875 71.9375 422.3125 71.9375Q421.95312 71.9375 421.64062 72.09375Q421.32812 72.25 421.09375 72.5625Q420.875 72.859375 420.75 73.296875Q420.64062 73.734375 420.64062 74.3125L420.64062 74.546875Q420.64062 75.0 420.76562 75.40625Q420.89062 75.796875 421.125 76.09375Q421.375 76.390625 421.71875 76.5625Q422.07812 76.734375 422.51562 76.734375Q423.09375 76.734375 423.48438 76.5Q423.89062 76.265625 424.1875 75.875L424.84375 76.390625Q424.64062 76.703125 424.3125 76.984375Q424.0 77.265625 423.53125 77.453125Q423.07812 77.625 422.45312 77.625Z" fill-rule="nonzero"/><path stroke="#cccccc" stroke-width="1.0" stroke-linecap="butt" d="M372.0 305.0L547.0 204.0" fill-rule="nonzero"/><path fill="#000000" d="M543.6406 190.78125L544.7656 190.78125Q544.6719 191.59375 544.2969 192.23438Q543.9219 192.875 543.2344 193.25Q542.5625 193.625 541.53125 193.625Q540.78125 193.625 540.1719 193.34375Q539.5625 193.04688 539.1094 192.53125Q538.6719 192.01562 538.4375 191.29688Q538.2031 190.5625 538.2031 189.65625L538.2031 188.8125Q538.2031 187.92188 538.4375 187.1875Q538.6719 186.45312 539.125 185.9375Q539.5781 185.40625 540.2031 185.125Q540.84375 184.84375 541.625 184.84375Q542.59375 184.84375 543.2656 185.21875Q543.9375 185.57812 544.2969 186.21875Q544.6719 186.85938 544.7656 187.70312L543.6406 187.70312Q543.5625 187.10938 543.3281 186.6875Q543.1094 186.25 542.7031 186.01562Q542.2969 185.78125 541.625 185.78125Q541.0625 185.78125 540.625 186.0Q540.2031 186.20312 539.90625 186.60938Q539.625 187.0 539.46875 187.5625Q539.3281 188.125 539.3281 188.79688L539.3281 189.65625Q539.3281 190.28125 539.4531 190.84375Q539.59375 191.39062 539.8594 191.8125Q540.125 192.21875 540.5469 192.46875Q540.96875 192.70312 541.53125 192.70312Q542.25 192.70312 542.6719 192.46875Q543.1094 192.23438 543.3281 191.8125Q543.5469 191.39062 543.6406 190.78125ZM550.0625 192.42188L550.0625 189.15625Q550.0625 188.78125 549.90625 188.5Q549.7656 188.21875 549.46875 188.07812Q549.1719 187.92188 548.7344 187.92188Q548.3125 187.92188 548.0 188.0625Q547.7031 188.20312 547.53125 188.4375Q547.3594 188.65625 547.3594 188.92188L546.28125 188.92188Q546.28125 188.57812 546.4531 188.25Q546.625 187.90625 546.9531 187.64062Q547.28125 187.35938 547.75 187.20312Q548.21875 187.04688 548.7969 187.04688Q549.4844 187.04688 550.0156 187.28125Q550.5469 187.51562 550.84375 187.98438Q551.15625 188.45312 551.15625 189.15625L551.15625 192.10938Q551.15625 192.4375 551.2031 192.79688Q551.2656 193.14062 551.375 193.40625L551.375 193.5L550.2344 193.5Q550.15625 193.3125 550.1094 193.0Q550.0625 192.6875 550.0625 192.42188ZM550.25 189.65625L550.2656 190.42188L549.1719 190.42188Q548.7031 190.42188 548.34375 190.5Q547.9844 190.5625 547.7344 190.71875Q547.4844 190.85938 547.3594 191.07812Q547.2344 191.29688 547.2344 191.59375Q547.2344 191.89062 547.3594 192.14062Q547.5 192.375 547.7656 192.53125Q548.0469 192.67188 548.4375 192.67188Q548.9375 192.67188 549.3125 192.46875Q549.7031 192.25 549.9219 191.95312Q550.15625 191.64062 550.1719 191.34375L550.6406 191.875Q550.59375 192.10938 550.40625 192.42188Q550.2344 192.71875 549.9219 193.0Q549.625 193.26562 549.2031 193.45312Q548.7969 193.625 548.28125 193.625Q547.6406 193.625 547.15625 193.375Q546.6719 193.10938 546.40625 192.6875Q546.1406 192.26562 546.1406 191.73438Q546.1406 191.21875 546.3281 190.84375Q546.53125 190.45312 546.90625 190.1875Q547.28125 189.92188 547.8125 189.79688Q548.34375 189.65625 549.0 189.65625L550.25 189.65625ZM554.40625 188.15625L554.40625 193.5L553.3281 193.5L553.3281 187.15625L554.375 187.15625L554.40625 188.15625ZM556.3906 187.125L556.3906 188.125Q556.25 188.10938 556.125 188.09375Q556.0156 188.07812 555.8594 188.07812Q555.4844 188.07812 555.1875 188.20312Q554.90625 188.3125 554.7031 188.53125Q554.5156 188.73438 554.3906 189.03125Q554.28125 189.32812 554.25 189.67188L553.9375 189.84375Q553.9375 189.26562 554.0469 188.76562Q554.1719 188.26562 554.40625 187.875Q554.65625 187.48438 555.0156 187.26562Q555.3906 187.04688 555.90625 187.04688Q556.03125 187.04688 556.1719 187.07812Q556.3281 187.09375 556.3906 187.125ZM559.1094 192.84375L560.875 187.15625L562.03125 187.15625L559.4844 194.48438Q559.40625 194.71875 559.25 194.98438Q559.1094 195.26562 558.8906 195.5Q558.6719 195.75 558.3594 195.90625Q558.0469 196.0625 557.6094 196.0625Q557.4844 196.0625 557.28125 196.01562Q557.0781 195.98438 557.0 195.96875L557.0 195.09375Q557.0469 195.09375 557.1406 195.09375Q557.25 195.10938 557.28125 195.10938Q557.65625 195.10938 557.90625 195.01562Q558.1719 194.92188 558.34375 194.6875Q558.53125 194.46875 558.65625 194.07812L559.1094 192.84375ZM557.8125 187.15625L559.4531 192.07812L559.7344 193.21875L558.96875 193.625L556.625 187.15625L557.8125 187.15625ZM563.0469 190.40625L563.0469 190.26562Q563.0469 189.57812 563.2344 189.0Q563.4375 188.40625 563.8125 187.96875Q564.1875 187.53125 564.71875 187.29688Q565.25 187.04688 565.9219 187.04688Q566.5781 187.04688 567.1094 187.29688Q567.65625 187.53125 568.03125 187.96875Q568.40625 188.40625 568.6094 189.0Q568.8125 189.57812 568.8125 190.26562L568.8125 190.40625Q568.8125 191.07812 568.6094 191.67188Q568.40625 192.25 568.03125 192.6875Q567.65625 193.125 567.125 193.375Q566.59375 193.625 565.9219 193.625Q565.2656 193.625 564.71875 193.375Q564.1875 193.125 563.8125 192.6875Q563.4375 192.25 563.2344 191.67188Q563.0469 191.07812 563.0469 190.40625ZM564.125 190.26562L564.125 190.40625Q564.125 190.875 564.2344 191.29688Q564.34375 191.71875 564.5625 192.04688Q564.7969 192.35938 565.1406 192.54688Q565.4844 192.71875 565.9219 192.71875Q566.375 192.71875 566.7031 192.54688Q567.0469 192.35938 567.2656 192.04688Q567.5 191.71875 567.6094 191.29688Q567.71875 190.875 567.71875 190.40625L567.71875 190.26562Q567.71875 189.79688 567.6094 189.375Q567.5 188.95312 567.2656 188.64062Q567.0469 188.3125 566.7031 188.125Q566.375 187.9375 565.9219 187.9375Q565.46875 187.9375 565.125 188.125Q564.7969 188.3125 564.5625 188.64062Q564.34375 188.95312 564.2344 189.375Q564.125 189.79688 564.125 190.26562ZM571.40625 188.375L571.40625 195.9375L570.3281 195.9375L570.3281 187.15625L571.3125 187.15625L571.40625 188.375ZM575.6875 190.28125L575.6875 190.40625Q575.6875 191.09375 575.5156 191.6875Q575.3594 192.26562 575.0469 192.70312Q574.7344 193.14062 574.2656 193.39062Q573.8125 193.625 573.21875 193.625Q572.625 193.625 572.15625 193.42188Q571.6875 193.21875 571.3594 192.84375Q571.0469 192.45312 570.8594 191.92188Q570.6719 191.39062 570.59375 190.71875L570.59375 190.0625Q570.6719 189.35938 570.8594 188.8125Q571.0469 188.25 571.3594 187.85938Q571.6875 187.45312 572.1406 187.25Q572.6094 187.04688 573.2031 187.04688Q573.7969 187.04688 574.2656 187.28125Q574.7344 187.5 575.0469 187.9375Q575.3594 188.35938 575.5156 188.95312Q575.6875 189.54688 575.6875 190.28125ZM574.59375 190.40625L574.59375 190.28125Q574.59375 189.79688 574.4844 189.39062Q574.3906 188.96875 574.1875 188.65625Q573.9844 188.32812 573.65625 188.14062Q573.3281 187.95312 572.8906 187.95312Q572.4844 187.95312 572.1719 188.09375Q571.875 188.23438 571.65625 188.48438Q571.4531 188.71875 571.3125 189.01562Q571.1875 189.3125 571.125 189.64062L571.125 191.15625Q571.2344 191.5625 571.4375 191.92188Q571.65625 192.28125 572.0 192.5Q572.3594 192.71875 572.90625 192.71875Q573.34375 192.71875 573.65625 192.54688Q573.9844 192.35938 574.1875 192.04688Q574.3906 191.71875 574.4844 191.29688Q574.59375 190.875 574.59375 190.40625ZM578.40625 184.5L578.40625 193.5L577.3281 193.5L577.3281 184.5L578.40625 184.5ZM578.15625 190.09375L577.7031 190.07812Q577.7031 189.42188 577.8906 188.875Q578.0781 188.3125 578.4219 187.90625Q578.7656 187.5 579.2344 187.28125Q579.7031 187.04688 580.28125 187.04688Q580.75 187.04688 581.125 187.17188Q581.5 187.29688 581.7656 187.57812Q582.03125 187.84375 582.1719 188.28125Q582.3125 188.71875 582.3125 189.34375L582.3125 193.5L581.21875 193.5L581.21875 189.32812Q581.21875 188.82812 581.0781 188.53125Q580.9375 188.23438 580.65625 188.09375Q580.375 187.95312 579.9531 187.95312Q579.5469 187.95312 579.21875 188.125Q578.8906 188.29688 578.65625 188.59375Q578.4219 188.89062 578.28125 189.28125Q578.15625 189.65625 578.15625 190.09375ZM586.1094 192.84375L587.875 187.15625L589.03125 187.15625L586.4844 194.48438Q586.40625 194.71875 586.25 194.98438Q586.1094 195.26562 585.8906 195.5Q585.6719 195.75 585.3594 195.90625Q585.0469 196.0625 584.6094 196.0625Q584.4844 196.0625 584.28125 196.01562Q584.0781 195.98438 584.0 195.96875L584.0 195.09375Q584.0469 195.09375 584.1406 195.09375Q584.25 195.10938 584.28125 195.10938Q584.65625 195.10938 584.90625 195.01562Q585.1719 194.92188 585.34375 194.6875Q585.53125 194.46875 585.65625 194.07812L586.1094 192.84375ZM584.8125 187.15625L586.4531 192.07812L586.7344 193.21875L585.96875 193.625L583.625 187.15625L584.8125 187.15625ZM591.5 184.5L591.5 193.5L590.4219 193.5L590.4219 184.5L591.5 184.5ZM594.5 184.5L594.5 193.5L593.4219 193.5L593.4219 184.5L594.5 184.5ZM598.9531 193.625Q598.2969 193.625 597.75 193.40625Q597.21875 193.17188 596.8281 192.76562Q596.4531 192.34375 596.25 191.78125Q596.0469 191.21875 596.0469 190.54688L596.0469 190.3125Q596.0469 189.53125 596.2656 188.92188Q596.5 188.3125 596.8906 187.89062Q597.28125 187.46875 597.78125 187.26562Q598.28125 187.04688 598.8125 187.04688Q599.5 187.04688 599.9844 187.28125Q600.4844 187.51562 600.7969 187.9375Q601.125 188.34375 601.2656 188.92188Q601.4219 189.48438 601.4219 190.14062L601.4219 190.64062L596.6875 190.64062L596.6875 189.75L600.34375 189.75L600.34375 189.67188Q600.3125 189.25 600.15625 188.85938Q600.0156 188.45312 599.6875 188.20312Q599.375 187.9375 598.8125 187.9375Q598.4531 187.9375 598.1406 188.09375Q597.8281 188.25 597.59375 188.5625Q597.375 188.85938 597.25 189.29688Q597.1406 189.73438 597.1406 190.3125L597.1406 190.54688Q597.1406 191.0 597.2656 191.40625Q597.3906 191.79688 597.625 192.09375Q597.875 192.39062 598.21875 192.5625Q598.5781 192.73438 599.0156 192.73438Q599.59375 192.73438 599.9844 192.5Q600.3906 192.26562 600.6875 191.875L601.34375 192.39062Q601.1406 192.70312 600.8125 192.98438Q600.5 193.26562 600.03125 193.45312Q599.5781 193.625 598.9531 193.625ZM603.40625 188.51562L603.40625 193.5L602.3281 193.5L602.3281 187.15625L603.3594 187.15625L603.40625 188.51562ZM603.15625 190.09375L602.7031 190.07812Q602.7031 189.42188 602.8906 188.875Q603.0781 188.3125 603.4219 187.90625Q603.7656 187.5 604.2344 187.28125Q604.7031 187.04688 605.28125 187.04688Q605.75 187.04688 606.125 187.17188Q606.5 187.29688 606.7656 187.57812Q607.03125 187.84375 607.1719 188.28125Q607.3125 188.71875 607.3125 189.34375L607.3125 193.5L606.21875 193.5L606.21875 189.32812Q606.21875 188.82812 606.0781 188.53125Q605.9375 188.23438 605.65625 188.09375Q605.375 187.95312 604.9531 187.95312Q604.5469 187.95312 604.21875 188.125Q603.8906 188.29688 603.65625 188.59375Q603.4219 188.89062 603.28125 189.28125Q603.15625 189.65625 603.15625 190.09375Z" fill-rule="nonzero"/><path stroke="#cccccc" stroke-width="1.0" stroke-linecap="butt" d="M372.0 305.0L547.0 406.0" fill-rule="nonzero"/><path fill="#000000" d="M555.6719 424.57812L555.6719 425.5L551.40625 425.5L551.40625 424.57812L555.6719 424.57812ZM551.625 416.96875L551.625 425.5L550.4844 425.5L550.4844 416.96875L551.625 416.96875ZM557.5 419.15625L557.5 425.5L556.4219 425.5L556.4219 419.15625L557.5 419.15625ZM556.3281 417.48438Q556.3281 417.21875 556.4844 417.03125Q556.65625 416.84375 556.96875 416.84375Q557.28125 416.84375 557.4375 417.03125Q557.6094 417.21875 557.6094 417.48438Q557.6094 417.73438 557.4375 417.92188Q557.28125 418.09375 556.96875 418.09375Q556.65625 418.09375 556.4844 417.92188Q556.3281 417.73438 556.3281 417.48438ZM560.40625 420.42188L560.40625 425.5L559.3125 425.5L559.3125 419.15625L560.34375 419.15625L560.40625 420.42188ZM560.1875 422.09375L559.6719 422.07812Q559.6875 421.42188 559.84375 420.875Q560.0156 420.3125 560.3281 419.90625Q560.65625 419.5 561.1406 419.28125Q561.625 419.04688 562.25 419.04688Q562.7031 419.04688 563.0781 419.17188Q563.4531 419.29688 563.71875 419.5625Q564.0 419.82812 564.1406 420.25Q564.2969 420.67188 564.2969 421.28125L564.2969 425.5L563.21875 425.5L563.21875 421.32812Q563.21875 420.82812 563.0469 420.53125Q562.8906 420.23438 562.5781 420.09375Q562.28125 419.95312 561.8594 419.95312Q561.3906 419.95312 561.0625 420.125Q560.7344 420.29688 560.5469 420.59375Q560.3594 420.89062 560.2656 421.28125Q560.1875 421.65625 560.1875 422.09375ZM564.2969 421.48438L563.5625 421.71875Q563.5625 421.1875 563.7344 420.71875Q563.90625 420.23438 564.21875 419.85938Q564.5469 419.48438 565.0156 419.26562Q565.4844 419.04688 566.0781 419.04688Q566.59375 419.04688 566.9844 419.1875Q567.3906 419.3125 567.65625 419.59375Q567.9219 419.875 568.0625 420.3125Q568.2031 420.73438 568.2031 421.32812L568.2031 425.5L567.125 425.5L567.125 421.32812Q567.125 420.78125 566.9531 420.5Q566.78125 420.20312 566.4844 420.07812Q566.1875 419.95312 565.7656 419.95312Q565.40625 419.95312 565.125 420.07812Q564.8594 420.20312 564.6719 420.42188Q564.4844 420.625 564.3906 420.90625Q564.2969 421.1875 564.2969 421.48438ZM570.0469 422.40625L570.0469 422.26562Q570.0469 421.57812 570.2344 421.0Q570.4375 420.40625 570.8125 419.96875Q571.1875 419.53125 571.71875 419.29688Q572.25 419.04688 572.9219 419.04688Q573.5781 419.04688 574.1094 419.29688Q574.65625 419.53125 575.03125 419.96875Q575.40625 420.40625 575.6094 421.0Q575.8125 421.57812 575.8125 422.26562L575.8125 422.40625Q575.8125 423.07812 575.6094 423.67188Q575.40625 424.25 575.03125 424.6875Q574.65625 425.125 574.125 425.375Q573.59375 425.625 572.9219 425.625Q572.2656 425.625 571.71875 425.375Q571.1875 425.125 570.8125 424.6875Q570.4375 424.25 570.2344 423.67188Q570.0469 423.07812 570.0469 422.40625ZM571.125 422.26562L571.125 422.40625Q571.125 422.875 571.2344 423.29688Q571.34375 423.71875 571.5625 424.04688Q571.7969 424.35938 572.1406 424.54688Q572.4844 424.71875 572.9219 424.71875Q573.375 424.71875 573.7031 424.54688Q574.0469 424.35938 574.2656 424.04688Q574.5 423.71875 574.6094 423.29688Q574.71875 422.875 574.71875 422.40625L574.71875 422.26562Q574.71875 421.79688 574.6094 421.375Q574.5 420.95312 574.2656 420.64062Q574.0469 420.3125 573.7031 420.125Q573.375 419.9375 572.9219 419.9375Q572.46875 419.9375 572.125 420.125Q571.7969 420.3125 571.5625 420.64062Q571.34375 420.95312 571.2344 421.375Q571.125 421.79688 571.125 422.26562ZM578.40625 420.51562L578.40625 425.5L577.3281 425.5L577.3281 419.15625L578.3594 419.15625L578.40625 420.51562ZM578.15625 422.09375L577.7031 422.07812Q577.7031 421.42188 577.8906 420.875Q578.0781 420.3125 578.4219 419.90625Q578.7656 419.5 579.2344 419.28125Q579.7031 419.04688 580.28125 419.04688Q580.75 419.04688 581.125 419.17188Q581.5 419.29688 581.7656 419.57812Q582.03125 419.84375 582.1719 420.28125Q582.3125 420.71875 582.3125 421.34375L582.3125 425.5L581.21875 425.5L581.21875 421.32812Q581.21875 420.82812 581.0781 420.53125Q580.9375 420.23438 580.65625 420.09375Q580.375 419.95312 579.9531 419.95312Q579.5469 419.95312 579.21875 420.125Q578.8906 420.29688 578.65625 420.59375Q578.4219 420.89062 578.28125 421.28125Q578.15625 421.65625 578.15625 422.09375ZM586.9531 425.625Q586.2969 425.625 585.75 425.40625Q585.21875 425.17188 584.8281 424.76562Q584.4531 424.34375 584.25 423.78125Q584.0469 423.21875 584.0469 422.54688L584.0469 422.3125Q584.0469 421.53125 584.2656 420.92188Q584.5 420.3125 584.8906 419.89062Q585.28125 419.46875 585.78125 419.26562Q586.28125 419.04688 586.8125 419.04688Q587.5 419.04688 587.9844 419.28125Q588.4844 419.51562 588.7969 419.9375Q589.125 420.34375 589.2656 420.92188Q589.4219 421.48438 589.4219 422.14062L589.4219 422.64062L584.6875 422.64062L584.6875 421.75L588.34375 421.75L588.34375 421.67188Q588.3125 421.25 588.15625 420.85938Q588.0156 420.45312 587.6875 420.20312Q587.375 419.9375 586.8125 419.9375Q586.4531 419.9375 586.1406 420.09375Q585.8281 420.25 585.59375 420.5625Q585.375 420.85938 585.25 421.29688Q585.1406 421.73438 585.1406 422.3125L585.1406 422.54688Q585.1406 423.0 585.2656 423.40625Q585.3906 423.79688 585.625 424.09375Q585.875 424.39062 586.21875 424.5625Q586.5781 424.73438 587.0156 424.73438Q587.59375 424.73438 587.9844 424.5Q588.3906 424.26562 588.6875 423.875L589.34375 424.39062Q589.1406 424.70312 588.8125 424.98438Q588.5 425.26562 588.03125 425.45312Q587.5781 425.625 586.9531 425.625ZM591.40625 420.51562L591.40625 425.5L590.3281 425.5L590.3281 419.15625L591.3594 419.15625L591.40625 420.51562ZM591.15625 422.09375L590.7031 422.07812Q590.7031 421.42188 590.8906 420.875Q591.0781 420.3125 591.4219 419.90625Q591.7656 419.5 592.2344 419.28125Q592.7031 419.04688 593.28125 419.04688Q593.75 419.04688 594.125 419.17188Q594.5 419.29688 594.7656 419.57812Q595.03125 419.84375 595.1719 420.28125Q595.3125 420.71875 595.3125 421.34375L595.3125 425.5L594.21875 425.5L594.21875 421.32812Q594.21875 420.82812 594.0781 420.53125Q593.9375 420.23438 593.65625 420.09375Q593.375 419.95312 592.9531 419.95312Q592.5469 419.95312 592.21875 420.125Q591.8906 420.29688 591.65625 420.59375Q591.4219 420.89062 591.28125 421.28125Q591.15625 421.65625 591.15625 422.09375Z" fill-rule="nonzero"/><path stroke="#cccccc" stroke-width="1.0" stroke-linecap="butt" d="M372.0 305.0L372.0 507.0" fill-rule="nonzero"/><path fill="#000000" d="M342.59375 538.5625L342.59375 538.4375Q342.59375 537.6875 342.75 537.0781Q342.92188 536.4531 343.23438 536.0Q343.54688 535.5469 344.0 535.2969Q344.46875 535.0469 345.0625 535.0469Q345.51562 535.0469 345.875 535.1875Q346.25 535.3125 346.53125 535.5781Q346.8125 535.8281 347.01562 536.2031Q347.21875 536.5781 347.34375 537.0625Q347.46875 537.53125 347.51562 538.09375L347.51562 538.5781Q347.45312 539.28125 347.26562 539.84375Q347.09375 540.40625 346.79688 540.8125Q346.5 541.2031 346.0625 541.4219Q345.64062 541.625 345.04688 541.625Q344.46875 541.625 344.0 541.40625Q343.54688 541.1719 343.23438 540.7656Q342.92188 540.34375 342.75 539.7969Q342.59375 539.2344 342.59375 538.5625ZM343.67188 538.4375L343.67188 538.5625Q343.67188 539.0156 343.76562 539.40625Q343.85938 539.7969 344.04688 540.09375Q344.25 540.3906 344.5625 540.5625Q344.89062 540.7344 345.32812 540.7344Q345.75 540.7344 346.04688 540.5625Q346.35938 540.375 346.5625 540.0781Q346.78125 539.78125 346.90625 539.3906Q347.04688 539.0 347.14062 538.59375L347.14062 538.2031Q347.07812 537.7656 346.9375 537.375Q346.8125 536.96875 346.59375 536.6406Q346.39062 536.3125 346.07812 536.125Q345.76562 535.9375 345.32812 535.9375Q344.89062 535.9375 344.57812 536.1406Q344.26562 536.3281 344.0625 536.6719Q343.85938 537.0156 343.76562 537.4844Q343.67188 537.9375 343.67188 538.4375ZM346.98438 535.15625L347.90625 535.15625L347.90625 539.7656Q347.90625 540.0469 347.9375 540.21875Q347.96875 540.375 348.03125 540.4844Q348.10938 540.5781 348.1875 540.625Q348.28125 540.65625 348.375 540.65625Q348.42188 540.65625 348.46875 540.6406Q348.53125 540.625 348.5625 540.6094L348.70312 541.4219Q348.51562 541.5469 348.34375 541.5781Q348.17188 541.625 347.98438 541.625Q347.70312 541.625 347.48438 541.5156Q347.28125 541.4219 347.125 541.2031Q346.96875 540.9844 346.89062 540.625Q346.8125 540.2656 346.8125 539.7656L346.8125 536.53125L346.98438 535.15625ZM352.07812 537.4219L352.07812 538.3125L349.21875 538.3125L349.21875 537.4219L352.07812 537.4219ZM358.5625 536.6406L358.5625 537.5625L353.95312 537.5625L353.95312 536.6406L358.5625 536.6406ZM354.125 532.96875L354.125 541.5L352.98438 541.5L352.98438 532.96875L354.125 532.96875ZM359.54688 532.96875L359.54688 541.5L358.42188 541.5L358.42188 532.96875L359.54688 532.96875ZM365.70312 540.03125L365.70312 535.15625L366.79688 535.15625L366.79688 541.5L365.76562 541.5L365.70312 540.03125ZM365.90625 538.7031L366.35938 538.6875Q366.35938 539.3125 366.21875 539.8594Q366.09375 540.3906 365.79688 540.78125Q365.51562 541.1719 365.03125 541.40625Q364.5625 541.625 363.89062 541.625Q363.42188 541.625 363.03125 541.4844Q362.65625 541.34375 362.375 541.0625Q362.10938 540.78125 361.95312 540.3281Q361.79688 539.875 361.79688 539.25L361.79688 535.15625L362.89062 535.15625L362.89062 539.2656Q362.89062 539.6875 362.98438 539.96875Q363.07812 540.25 363.25 540.40625Q363.42188 540.5625 363.625 540.6406Q363.82812 540.7031 364.04688 540.7031Q364.75 540.7031 365.14062 540.4375Q365.54688 540.15625 365.71875 539.7031Q365.90625 539.25 365.90625 538.7031ZM369.90625 536.4219L369.90625 541.5L368.8125 541.5L368.8125 535.15625L369.84375 535.15625L369.90625 536.4219ZM369.6875 538.09375L369.17188 538.0781Q369.1875 537.4219 369.34375 536.875Q369.51562 536.3125 369.82812 535.90625Q370.15625 535.5 370.64062 535.28125Q371.125 535.0469 371.75 535.0469Q372.20312 535.0469 372.57812 535.1719Q372.95312 535.2969 373.21875 535.5625Q373.5 535.8281 373.64062 536.25Q373.79688 536.6719 373.79688 537.28125L373.79688 541.5L372.71875 541.5L372.71875 537.3281Q372.71875 536.8281 372.54688 536.53125Q372.39062 536.2344 372.07812 536.09375Q371.78125 535.9531 371.35938 535.9531Q370.89062 535.9531 370.5625 536.125Q370.23438 536.2969 370.04688 536.59375Q369.85938 536.8906 369.76562 537.28125Q369.6875 537.65625 369.6875 538.09375ZM373.79688 537.4844L373.0625 537.71875Q373.0625 537.1875 373.23438 536.71875Q373.40625 536.2344 373.71875 535.8594Q374.04688 535.4844 374.51562 535.2656Q374.98438 535.0469 375.57812 535.0469Q376.09375 535.0469 376.48438 535.1875Q376.89062 535.3125 377.15625 535.59375Q377.42188 535.875 377.5625 536.3125Q377.70312 536.7344 377.70312 537.3281L377.70312 541.5L376.625 541.5L376.625 537.3281Q376.625 536.78125 376.45312 536.5Q376.28125 536.2031 375.98438 536.0781Q375.6875 535.9531 375.26562 535.9531Q374.90625 535.9531 374.625 536.0781Q374.35938 536.2031 374.17188 536.4219Q373.98438 536.625 373.89062 536.90625Q373.79688 537.1875 373.79688 537.4844ZM383.70312 540.03125L383.70312 535.15625L384.79688 535.15625L384.79688 541.5L383.76562 541.5L383.70312 540.03125ZM383.90625 538.7031L384.35938 538.6875Q384.35938 539.3125 384.21875 539.8594Q384.09375 540.3906 383.79688 540.78125Q383.51562 541.1719 383.03125 541.40625Q382.5625 541.625 381.89062 541.625Q381.42188 541.625 381.03125 541.4844Q380.65625 541.34375 380.375 541.0625Q380.10938 540.78125 379.95312 540.3281Q379.79688 539.875 379.79688 539.25L379.79688 535.15625L380.89062 535.15625L380.89062 539.2656Q380.89062 539.6875 380.98438 539.96875Q381.07812 540.25 381.25 540.40625Q381.42188 540.5625 381.625 540.6406Q381.82812 540.7031 382.04688 540.7031Q382.75 540.7031 383.14062 540.4375Q383.54688 540.15625 383.71875 539.7031Q383.90625 539.25 383.90625 538.7031ZM388.0 532.5L388.0 541.5L386.92188 541.5L386.92188 532.5L388.0 532.5ZM392.45312 541.625Q391.79688 541.625 391.25 541.40625Q390.71875 541.1719 390.32812 540.7656Q389.95312 540.34375 389.75 539.78125Q389.54688 539.21875 389.54688 538.5469L389.54688 538.3125Q389.54688 537.53125 389.76562 536.9219Q390.0 536.3125 390.39062 535.8906Q390.78125 535.46875 391.28125 535.2656Q391.78125 535.0469 392.3125 535.0469Q393.0 535.0469 393.48438 535.28125Q393.98438 535.5156 394.29688 535.9375Q394.625 536.34375 394.76562 536.9219Q394.92188 537.4844 394.92188 538.1406L394.92188 538.6406L390.1875 538.6406L390.1875 537.75L393.84375 537.75L393.84375 537.6719Q393.8125 537.25 393.65625 536.8594Q393.51562 536.4531 393.1875 536.2031Q392.875 535.9375 392.3125 535.9375Q391.95312 535.9375 391.64062 536.09375Q391.32812 536.25 391.09375 536.5625Q390.875 536.8594 390.75 537.2969Q390.64062 537.7344 390.64062 538.3125L390.64062 538.5469Q390.64062 539.0 390.76562 539.40625Q390.89062 539.7969 391.125 540.09375Q391.375 540.3906 391.71875 540.5625Q392.07812 540.7344 392.51562 540.7344Q393.09375 540.7344 393.48438 540.5Q393.89062 540.2656 394.1875 539.875L394.84375 540.3906Q394.64062 540.7031 394.3125 540.9844Q394.0 541.2656 393.53125 541.4531Q393.07812 541.625 392.45312 541.625ZM396.90625 536.5156L396.90625 541.5L395.82812 541.5L395.82812 535.15625L396.85938 535.15625L396.90625 536.5156ZM396.65625 538.09375L396.20312 538.0781Q396.20312 537.4219 396.39062 536.875Q396.57812 536.3125 396.92188 535.90625Q397.26562 535.5 397.73438 535.28125Q398.20312 535.0469 398.78125 535.0469Q399.25 535.0469 399.625 535.1719Q400.0 535.2969 400.26562 535.5781Q400.53125 535.84375 400.67188 536.28125Q400.8125 536.71875 400.8125 537.34375L400.8125 541.5L399.71875 541.5L399.71875 537.3281Q399.71875 536.8281 399.57812 536.53125Q399.4375 536.2344 399.15625 536.09375Q398.875 535.9531 398.45312 535.9531Q398.04688 535.9531 397.71875 536.125Q397.39062 536.2969 397.15625 536.59375Q396.92188 536.8906 396.78125 537.28125Q396.65625 537.65625 396.65625 538.09375Z" fill-rule="nonzero"/><path stroke="#cccccc" stroke-width="1.0" stroke-linecap="butt" d="M372.0 305.0L197.0 406.0" fill-rule="nonzero"/><path fill="#000000" d="M141.59375 422.5625L141.59375 422.4375Q141.59375 421.6875 141.75 421.07812Q141.92188 420.45312 142.23438 420.0Q142.54688 419.54688 143.0 419.29688Q143.46875 419.04688 144.0625 419.04688Q144.51562 419.04688 144.875 419.1875Q145.25 419.3125 145.53125 419.57812Q145.8125 419.82812 146.01562 420.20312Q146.21875 420.57812 146.34375 421.0625Q146.46875 421.53125 146.51562 422.09375L146.51562 422.57812Q146.45312 423.28125 146.26562 423.84375Q146.09375 424.40625 145.79688 424.8125Q145.5 425.20312 145.0625 425.42188Q144.64062 425.625 144.04688 425.625Q143.46875 425.625 143.0 425.40625Q142.54688 425.17188 142.23438 424.76562Q141.92188 424.34375 141.75 423.79688Q141.59375 423.23438 141.59375 422.5625ZM142.67188 422.4375L142.67188 422.5625Q142.67188 423.01562 142.76562 423.40625Q142.85938 423.79688 143.04688 424.09375Q143.25 424.39062 143.5625 424.5625Q143.89062 424.73438 144.32812 424.73438Q144.75 424.73438 145.04688 424.5625Q145.35938 424.375 145.5625 424.07812Q145.78125 423.78125 145.90625 423.39062Q146.04688 423.0 146.14062 422.59375L146.14062 422.20312Q146.07812 421.76562 145.9375 421.375Q145.8125 420.96875 145.59375 420.64062Q145.39062 420.3125 145.07812 420.125Q144.76562 419.9375 144.32812 419.9375Q143.89062 419.9375 143.57812 420.14062Q143.26562 420.32812 143.0625 420.67188Q142.85938 421.01562 142.76562 421.48438Q142.67188 421.9375 142.67188 422.4375ZM145.98438 419.15625L146.90625 419.15625L146.90625 423.76562Q146.90625 424.04688 146.9375 424.21875Q146.96875 424.375 147.03125 424.48438Q147.10938 424.57812 147.1875 424.625Q147.28125 424.65625 147.375 424.65625Q147.42188 424.65625 147.46875 424.64062Q147.53125 424.625 147.5625 424.60938L147.70312 425.42188Q147.51562 425.54688 147.34375 425.57812Q147.17188 425.625 146.98438 425.625Q146.70312 425.625 146.48438 425.51562Q146.28125 425.42188 146.125 425.20312Q145.96875 424.98438 145.89062 424.625Q145.8125 424.26562 145.8125 423.76562L145.8125 420.53125L145.98438 419.15625ZM151.07812 421.42188L151.07812 422.3125L148.21875 422.3125L148.21875 421.42188L151.07812 421.42188ZM155.03125 421.51562L152.875 421.51562L152.85938 420.59375L154.82812 420.59375Q155.3125 420.59375 155.67188 420.4375Q156.03125 420.26562 156.23438 419.96875Q156.4375 419.65625 156.4375 419.23438Q156.4375 418.76562 156.25 418.46875Q156.07812 418.17188 155.70312 418.03125Q155.34375 417.89062 154.78125 417.89062L153.125 417.89062L153.125 425.5L151.98438 425.5L151.98438 416.96875L154.78125 416.96875Q155.4375 416.96875 155.95312 417.10938Q156.46875 417.23438 156.82812 417.51562Q157.1875 417.78125 157.375 418.21875Q157.5625 418.64062 157.5625 419.23438Q157.5625 419.76562 157.29688 420.20312Q157.03125 420.625 156.54688 420.89062Q156.07812 421.15625 155.4375 421.23438L155.03125 421.51562ZM154.98438 425.5L152.42188 425.5L153.0625 424.57812L154.98438 424.57812Q155.51562 424.57812 155.89062 424.39062Q156.28125 424.20312 156.46875 423.85938Q156.67188 423.51562 156.67188 423.04688Q156.67188 422.57812 156.5 422.23438Q156.32812 421.89062 155.96875 421.70312Q155.60938 421.51562 155.03125 421.51562L153.42188 421.51562L153.4375 420.59375L155.64062 420.59375L155.875 420.92188Q156.48438 420.98438 156.90625 421.28125Q157.34375 421.57812 157.5625 422.03125Q157.79688 422.48438 157.79688 423.03125Q157.79688 423.82812 157.4375 424.39062Q157.09375 424.9375 156.45312 425.21875Q155.82812 425.5 154.98438 425.5ZM160.0 419.15625L160.0 425.5L158.92188 425.5L158.92188 419.15625L160.0 419.15625ZM158.82812 417.48438Q158.82812 417.21875 158.98438 417.03125Q159.15625 416.84375 159.46875 416.84375Q159.78125 416.84375 159.9375 417.03125Q160.10938 417.21875 160.10938 417.48438Q160.10938 417.73438 159.9375 417.92188Q159.78125 418.09375 159.46875 418.09375Q159.15625 418.09375 158.98438 417.92188Q158.82812 417.73438 158.82812 417.48438ZM165.51562 423.8125Q165.51562 423.57812 165.40625 423.375Q165.3125 423.17188 165.0 423.01562Q164.6875 422.84375 164.0625 422.71875Q163.53125 422.60938 163.10938 422.46875Q162.6875 422.3125 162.39062 422.09375Q162.09375 421.875 161.9375 421.57812Q161.78125 421.28125 161.78125 420.89062Q161.78125 420.51562 161.9375 420.1875Q162.10938 419.84375 162.40625 419.59375Q162.71875 419.32812 163.15625 419.1875Q163.59375 419.04688 164.125 419.04688Q164.89062 419.04688 165.42188 419.3125Q165.96875 419.57812 166.25 420.03125Q166.53125 420.48438 166.53125 421.01562L165.45312 421.01562Q165.45312 420.76562 165.29688 420.51562Q165.14062 420.26562 164.84375 420.10938Q164.54688 419.9375 164.125 419.9375Q163.67188 419.9375 163.39062 420.07812Q163.10938 420.20312 162.98438 420.42188Q162.85938 420.625 162.85938 420.85938Q162.85938 421.04688 162.92188 421.1875Q162.98438 421.3125 163.14062 421.4375Q163.29688 421.54688 163.57812 421.65625Q163.875 421.75 164.32812 421.84375Q165.10938 422.01562 165.60938 422.26562Q166.10938 422.51562 166.35938 422.875Q166.60938 423.21875 166.60938 423.73438Q166.60938 424.15625 166.42188 424.5Q166.25 424.84375 165.92188 425.09375Q165.60938 425.34375 165.15625 425.48438Q164.70312 425.625 164.15625 425.625Q163.3125 425.625 162.73438 425.32812Q162.15625 425.01562 161.85938 424.54688Q161.5625 424.0625 161.5625 423.54688L162.64062 423.54688Q162.67188 423.98438 162.90625 424.25Q163.14062 424.51562 163.46875 424.625Q163.8125 424.71875 164.15625 424.71875Q164.59375 424.71875 164.89062 424.60938Q165.20312 424.48438 165.35938 424.28125Q165.51562 424.07812 165.51562 423.8125ZM171.5625 424.42188L171.5625 421.15625Q171.5625 420.78125 171.40625 420.5Q171.26562 420.21875 170.96875 420.07812Q170.67188 419.92188 170.23438 419.92188Q169.8125 419.92188 169.5 420.0625Q169.20312 420.20312 169.03125 420.4375Q168.85938 420.65625 168.85938 420.92188L167.78125 420.92188Q167.78125 420.57812 167.95312 420.25Q168.125 419.90625 168.45312 419.64062Q168.78125 419.35938 169.25 419.20312Q169.71875 419.04688 170.29688 419.04688Q170.98438 419.04688 171.51562 419.28125Q172.04688 419.51562 172.34375 419.98438Q172.65625 420.45312 172.65625 421.15625L172.65625 424.10938Q172.65625 424.4375 172.70312 424.79688Q172.76562 425.14062 172.875 425.40625L172.875 425.5L171.73438 425.5Q171.65625 425.3125 171.60938 425.0Q171.5625 424.6875 171.5625 424.42188ZM171.75 421.65625L171.76562 422.42188L170.67188 422.42188Q170.20312 422.42188 169.84375 422.5Q169.48438 422.5625 169.23438 422.71875Q168.98438 422.85938 168.85938 423.07812Q168.73438 423.29688 168.73438 423.59375Q168.73438 423.89062 168.85938 424.14062Q169.0 424.375 169.26562 424.53125Q169.54688 424.67188 169.9375 424.67188Q170.4375 424.67188 170.8125 424.46875Q171.20312 424.25 171.42188 423.95312Q171.65625 423.64062 171.67188 423.34375L172.14062 423.875Q172.09375 424.10938 171.90625 424.42188Q171.73438 424.71875 171.42188 425.0Q171.125 425.26562 170.70312 425.45312Q170.29688 425.625 169.78125 425.625Q169.14062 425.625 168.65625 425.375Q168.17188 425.10938 167.90625 424.6875Q167.64062 424.26562 167.64062 423.73438Q167.64062 423.21875 167.82812 422.84375Q168.03125 422.45312 168.40625 422.1875Q168.78125 421.92188 169.3125 421.79688Q169.84375 421.65625 170.5 421.65625L171.75 421.65625ZM174.82812 416.5L175.90625 416.5L175.90625 424.26562L175.8125 425.5L174.82812 425.5L174.82812 416.5ZM180.1875 422.28125L180.1875 422.40625Q180.1875 423.09375 180.01562 423.6875Q179.85938 424.26562 179.54688 424.70312Q179.23438 425.14062 178.76562 425.39062Q178.3125 425.625 177.73438 425.625Q177.125 425.625 176.67188 425.42188Q176.21875 425.20312 175.90625 424.8125Q175.59375 424.42188 175.40625 423.85938Q175.21875 423.29688 175.15625 422.60938L175.15625 422.0625Q175.21875 421.35938 175.40625 420.8125Q175.59375 420.25 175.90625 419.85938Q176.21875 419.45312 176.67188 419.25Q177.125 419.04688 177.71875 419.04688Q178.3125 419.04688 178.76562 419.28125Q179.23438 419.5 179.54688 419.9375Q179.85938 420.35938 180.01562 420.95312Q180.1875 421.54688 180.1875 422.28125ZM179.10938 422.40625L179.10938 422.28125Q179.10938 421.79688 179.01562 421.39062Q178.92188 420.96875 178.73438 420.65625Q178.54688 420.32812 178.21875 420.14062Q177.90625 419.95312 177.45312 419.95312Q177.03125 419.95312 176.73438 420.09375Q176.4375 420.23438 176.21875 420.48438Q176.01562 420.71875 175.875 421.01562Q175.75 421.3125 175.6875 421.64062L175.6875 423.04688Q175.78125 423.45312 175.98438 423.84375Q176.20312 424.21875 176.5625 424.46875Q176.92188 424.70312 177.45312 424.70312Q177.89062 424.70312 178.20312 424.53125Q178.53125 424.34375 178.71875 424.03125Q178.92188 423.70312 179.01562 423.29688Q179.10938 422.875 179.10938 422.40625ZM181.54688 422.40625L181.54688 422.26562Q181.54688 421.57812 181.73438 421.0Q181.9375 420.40625 182.3125 419.96875Q182.6875 419.53125 183.21875 419.29688Q183.75 419.04688 184.42188 419.04688Q185.07812 419.04688 185.60938 419.29688Q186.15625 419.53125 186.53125 419.96875Q186.90625 420.40625 187.10938 421.0Q187.3125 421.57812 187.3125 422.26562L187.3125 422.40625Q187.3125 423.07812 187.10938 423.67188Q186.90625 424.25 186.53125 424.6875Q186.15625 425.125 185.625 425.375Q185.09375 425.625 184.42188 425.625Q183.76562 425.625 183.21875 425.375Q182.6875 425.125 182.3125 424.6875Q181.9375 424.25 181.73438 423.67188Q181.54688 423.07812 181.54688 422.40625ZM182.625 422.26562L182.625 422.40625Q182.625 422.875 182.73438 423.29688Q182.84375 423.71875 183.0625 424.04688Q183.29688 424.35938 183.64062 424.54688Q183.98438 424.71875 184.42188 424.71875Q184.875 424.71875 185.20312 424.54688Q185.54688 424.35938 185.76562 424.04688Q186.0 423.71875 186.10938 423.29688Q186.21875 422.875 186.21875 422.40625L186.21875 422.26562Q186.21875 421.79688 186.10938 421.375Q186.0 420.95312 185.76562 420.64062Q185.54688 420.3125 185.20312 420.125Q184.875 419.9375 184.42188 419.9375Q183.96875 419.9375 183.625 420.125Q183.29688 420.3125 183.0625 420.64062Q182.84375 420.95312 182.73438 421.375Q182.625 421.79688 182.625 422.26562ZM190.0 416.5L190.0 425.5L188.92188 425.5L188.92188 416.5L190.0 416.5ZM191.54688 422.40625L191.54688 422.26562Q191.54688 421.57812 191.73438 421.0Q191.9375 420.40625 192.3125 419.96875Q192.6875 419.53125 193.21875 419.29688Q193.75 419.04688 194.42188 419.04688Q195.07812 419.04688 195.60938 419.29688Q196.15625 419.53125 196.53125 419.96875Q196.90625 420.40625 197.10938 421.0Q197.3125 421.57812 197.3125 422.26562L197.3125 422.40625Q197.3125 423.07812 197.10938 423.67188Q196.90625 424.25 196.53125 424.6875Q196.15625 425.125 195.625 425.375Q195.09375 425.625 194.42188 425.625Q193.76562 425.625 193.21875 425.375Q192.6875 425.125 192.3125 424.6875Q191.9375 424.25 191.73438 423.67188Q191.54688 423.07812 191.54688 422.40625ZM192.625 422.26562L192.625 422.40625Q192.625 422.875 192.73438 423.29688Q192.84375 423.71875 193.0625 424.04688Q193.29688 424.35938 193.64062 424.54688Q193.98438 424.71875 194.42188 424.71875Q194.875 424.71875 195.20312 424.54688Q195.54688 424.35938 195.76562 424.04688Q196.0 423.71875 196.10938 423.29688Q196.21875 422.875 196.21875 422.40625L196.21875 422.26562Q196.21875 421.79688 196.10938 421.375Q196.0 420.95312 195.76562 420.64062Q195.54688 420.3125 195.20312 420.125Q194.875 419.9375 194.42188 419.9375Q193.96875 419.9375 193.625 420.125Q193.29688 420.3125 193.0625 420.64062Q192.84375 420.95312 192.73438 421.375Q192.625 421.79688 192.625 422.26562ZM200.0 416.5L200.0 425.5L198.92188 425.5L198.92188 416.5L200.0 416.5Z" fill-rule="nonzero"/><path stroke="#cccccc" stroke-width="1.0" stroke-linecap="butt" d="M372.0 305.0L197.0 204.0" fill-rule="nonzero"/><path fill="#000000" d="M153.03125 191.34375Q153.03125 191.04688 152.9375 190.8125Q152.85938 190.57812 152.625 190.39062Q152.40625 190.20312 152.0 190.03125Q151.60938 189.85938 151.01562 189.6875Q150.375 189.5 149.85938 189.28125Q149.35938 189.04688 148.98438 188.75Q148.625 188.4375 148.4375 188.0625Q148.25 187.67188 148.25 187.17188Q148.25 186.67188 148.45312 186.25Q148.65625 185.82812 149.03125 185.51562Q149.42188 185.20312 149.95312 185.03125Q150.48438 184.84375 151.14062 184.84375Q152.10938 184.84375 152.78125 185.21875Q153.45312 185.57812 153.79688 186.17188Q154.15625 186.76562 154.15625 187.42188L153.03125 187.42188Q153.03125 186.95312 152.8125 186.57812Q152.60938 186.20312 152.1875 186.0Q151.78125 185.78125 151.14062 185.78125Q150.54688 185.78125 150.14062 185.96875Q149.75 186.14062 149.5625 186.45312Q149.375 186.76562 149.375 187.15625Q149.375 187.42188 149.48438 187.65625Q149.60938 187.875 149.84375 188.0625Q150.09375 188.25 150.46875 188.40625Q150.84375 188.5625 151.375 188.70312Q152.09375 188.90625 152.625 189.17188Q153.15625 189.42188 153.5 189.73438Q153.84375 190.04688 154.0 190.4375Q154.17188 190.82812 154.17188 191.32812Q154.17188 191.85938 153.95312 192.28125Q153.75 192.70312 153.35938 193.0Q152.96875 193.29688 152.42188 193.46875Q151.875 193.625 151.20312 193.625Q150.60938 193.625 150.03125 193.45312Q149.46875 193.28125 149.0 192.95312Q148.53125 192.625 148.25 192.15625Q147.96875 191.67188 147.96875 191.03125L149.09375 191.03125Q149.09375 191.46875 149.26562 191.78125Q149.4375 192.09375 149.73438 192.29688Q150.03125 192.5 150.40625 192.60938Q150.78125 192.70312 151.20312 192.70312Q151.79688 192.70312 152.20312 192.54688Q152.60938 192.375 152.8125 192.07812Q153.03125 191.76562 153.03125 191.34375ZM155.04688 190.40625L155.04688 190.26562Q155.04688 189.57812 155.23438 189.0Q155.4375 188.40625 155.8125 187.96875Q156.1875 187.53125 156.71875 187.29688Q157.25 187.04688 157.92188 187.04688Q158.57812 187.04688 159.10938 187.29688Q159.65625 187.53125 160.03125 187.96875Q160.40625 188.40625 160.60938 189.0Q160.8125 189.57812 160.8125 190.26562L160.8125 190.40625Q160.8125 191.07812 160.60938 191.67188Q160.40625 192.25 160.03125 192.6875Q159.65625 193.125 159.125 193.375Q158.59375 193.625 157.92188 193.625Q157.26562 193.625 156.71875 193.375Q156.1875 193.125 155.8125 192.6875Q155.4375 192.25 155.23438 191.67188Q155.04688 191.07812 155.04688 190.40625ZM156.125 190.26562L156.125 190.40625Q156.125 190.875 156.23438 191.29688Q156.34375 191.71875 156.5625 192.04688Q156.79688 192.35938 157.14062 192.54688Q157.48438 192.71875 157.92188 192.71875Q158.375 192.71875 158.70312 192.54688Q159.04688 192.35938 159.26562 192.04688Q159.5 191.71875 159.60938 191.29688Q159.71875 190.875 159.71875 190.40625L159.71875 190.26562Q159.71875 189.79688 159.60938 189.375Q159.5 188.95312 159.26562 188.64062Q159.04688 188.3125 158.70312 188.125Q158.375 187.9375 157.92188 187.9375Q157.46875 187.9375 157.125 188.125Q156.79688 188.3125 156.5625 188.64062Q156.34375 188.95312 156.23438 189.375Q156.125 189.79688 156.125 190.26562ZM163.40625 188.51562L163.40625 193.5L162.32812 193.5L162.32812 187.15625L163.35938 187.15625L163.40625 188.51562ZM163.15625 190.09375L162.70312 190.07812Q162.70312 189.42188 162.89062 188.875Q163.07812 188.3125 163.42188 187.90625Q163.76562 187.5 164.23438 187.28125Q164.70312 187.04688 165.28125 187.04688Q165.75 187.04688 166.125 187.17188Q166.5 187.29688 166.76562 187.57812Q167.03125 187.84375 167.17188 188.28125Q167.3125 188.71875 167.3125 189.34375L167.3125 193.5L166.21875 193.5L166.21875 189.32812Q166.21875 188.82812 166.07812 188.53125Q165.9375 188.23438 165.65625 188.09375Q165.375 187.95312 164.95312 187.95312Q164.54688 187.95312 164.21875 188.125Q163.89062 188.29688 163.65625 188.59375Q163.42188 188.89062 163.28125 189.28125Q163.15625 189.65625 163.15625 190.09375ZM173.01562 191.8125Q173.01562 191.57812 172.90625 191.375Q172.8125 191.17188 172.5 191.01562Q172.1875 190.84375 171.5625 190.71875Q171.03125 190.60938 170.60938 190.46875Q170.1875 190.3125 169.89062 190.09375Q169.59375 189.875 169.4375 189.57812Q169.28125 189.28125 169.28125 188.89062Q169.28125 188.51562 169.4375 188.1875Q169.60938 187.84375 169.90625 187.59375Q170.21875 187.32812 170.65625 187.1875Q171.09375 187.04688 171.625 187.04688Q172.39062 187.04688 172.92188 187.3125Q173.46875 187.57812 173.75 188.03125Q174.03125 188.48438 174.03125 189.01562L172.95312 189.01562Q172.95312 188.76562 172.79688 188.51562Q172.64062 188.26562 172.34375 188.10938Q172.04688 187.9375 171.625 187.9375Q171.17188 187.9375 170.89062 188.07812Q170.60938 188.20312 170.48438 188.42188Q170.35938 188.625 170.35938 188.85938Q170.35938 189.04688 170.42188 189.1875Q170.48438 189.3125 170.64062 189.4375Q170.79688 189.54688 171.07812 189.65625Q171.375 189.75 171.82812 189.84375Q172.60938 190.01562 173.10938 190.26562Q173.60938 190.51562 173.85938 190.875Q174.10938 191.21875 174.10938 191.73438Q174.10938 192.15625 173.92188 192.5Q173.75 192.84375 173.42188 193.09375Q173.10938 193.34375 172.65625 193.48438Q172.20312 193.625 171.65625 193.625Q170.8125 193.625 170.23438 193.32812Q169.65625 193.01562 169.35938 192.54688Q169.0625 192.0625 169.0625 191.54688L170.14062 191.54688Q170.17188 191.98438 170.40625 192.25Q170.64062 192.51562 170.96875 192.625Q171.3125 192.71875 171.65625 192.71875Q172.09375 192.71875 172.39062 192.60938Q172.70312 192.48438 172.85938 192.28125Q173.01562 192.07812 173.01562 191.8125ZM177.98438 187.15625L177.98438 187.98438L174.54688 187.98438L174.54688 187.15625L177.98438 187.15625ZM175.71875 185.625L176.79688 185.625L176.79688 191.92188Q176.79688 192.25 176.89062 192.42188Q177.0 192.57812 177.15625 192.64062Q177.3125 192.6875 177.5 192.6875Q177.625 192.6875 177.76562 192.65625Q177.92188 192.625 178.0 192.60938L178.01562 193.5Q177.875 193.54688 177.67188 193.57812Q177.46875 193.625 177.17188 193.625Q176.78125 193.625 176.4375 193.46875Q176.10938 193.29688 175.90625 192.9375Q175.71875 192.5625 175.71875 191.92188L175.71875 185.625ZM180.5 187.15625L180.5 193.5L179.42188 193.5L179.42188 187.15625L180.5 187.15625ZM179.32812 185.48438Q179.32812 185.21875 179.48438 185.03125Q179.65625 184.84375 179.96875 184.84375Q180.28125 184.84375 180.4375 185.03125Q180.60938 185.21875 180.60938 185.48438Q180.60938 185.73438 180.4375 185.92188Q180.28125 186.09375 179.96875 186.09375Q179.65625 186.09375 179.48438 185.92188Q179.32812 185.73438 179.32812 185.48438ZM186.4375 187.15625L187.42188 187.15625L187.42188 193.35938Q187.42188 194.20312 187.07812 194.79688Q186.73438 195.39062 186.125 195.6875Q185.53125 196.0 184.73438 196.0Q184.40625 196.0 183.95312 195.89062Q183.51562 195.79688 183.09375 195.54688Q182.67188 195.3125 182.39062 194.90625L182.95312 194.25Q183.35938 194.73438 183.78125 194.92188Q184.21875 195.10938 184.65625 195.10938Q185.17188 195.10938 185.54688 194.90625Q185.92188 194.71875 186.125 194.34375Q186.32812 193.96875 186.32812 193.42188L186.32812 188.54688L186.4375 187.15625ZM182.0625 190.40625L182.0625 190.28125Q182.0625 189.54688 182.23438 188.95312Q182.42188 188.35938 182.73438 187.9375Q183.0625 187.5 183.51562 187.28125Q183.98438 187.04688 184.57812 187.04688Q185.17188 187.04688 185.60938 187.25Q186.0625 187.45312 186.375 187.85938Q186.6875 188.25 186.875 188.8125Q187.0625 189.35938 187.125 190.0625L187.125 190.60938Q187.0625 191.29688 186.875 191.85938Q186.6875 192.42188 186.375 192.8125Q186.0625 193.20312 185.60938 193.42188Q185.15625 193.625 184.5625 193.625Q183.98438 193.625 183.53125 193.39062Q183.07812 193.14062 182.75 192.70312Q182.42188 192.26562 182.23438 191.6875Q182.0625 191.09375 182.0625 190.40625ZM183.15625 190.28125L183.15625 190.40625Q183.15625 190.875 183.25 191.29688Q183.34375 191.70312 183.54688 192.03125Q183.75 192.34375 184.0625 192.53125Q184.39062 192.70312 184.82812 192.70312Q185.35938 192.70312 185.70312 192.46875Q186.0625 192.23438 186.26562 191.85938Q186.48438 191.48438 186.59375 191.04688L186.59375 189.64062Q186.53125 189.3125 186.39062 189.01562Q186.26562 188.71875 186.0625 188.48438Q185.85938 188.23438 185.54688 188.09375Q185.25 187.95312 184.82812 187.95312Q184.39062 187.95312 184.0625 188.14062Q183.75 188.32812 183.54688 188.65625Q183.34375 188.96875 183.25 189.39062Q183.15625 189.79688 183.15625 190.28125ZM191.95312 193.625Q191.29688 193.625 190.75 193.40625Q190.21875 193.17188 189.82812 192.76562Q189.45312 192.34375 189.25 191.78125Q189.04688 191.21875 189.04688 190.54688L189.04688 190.3125Q189.04688 189.53125 189.26562 188.92188Q189.5 188.3125 189.89062 187.89062Q190.28125 187.46875 190.78125 187.26562Q191.28125 187.04688 191.8125 187.04688Q192.5 187.04688 192.98438 187.28125Q193.48438 187.51562 193.79688 187.9375Q194.125 188.34375 194.26562 188.92188Q194.42188 189.48438 194.42188 190.14062L194.42188 190.64062L189.6875 190.64062L189.6875 189.75L193.34375 189.75L193.34375 189.67188Q193.3125 189.25 193.15625 188.85938Q193.01562 188.45312 192.6875 188.20312Q192.375 187.9375 191.8125 187.9375Q191.45312 187.9375 191.14062 188.09375Q190.82812 188.25 190.59375 188.5625Q190.375 188.85938 190.25 189.29688Q190.14062 189.73438 190.14062 190.3125L190.14062 190.54688Q190.14062 191.0 190.26562 191.40625Q190.39062 191.79688 190.625 192.09375Q190.875 192.39062 191.21875 192.5625Q191.57812 192.73438 192.01562 192.73438Q192.59375 192.73438 192.98438 192.5Q193.39062 192.26562 193.6875 191.875L194.34375 192.39062Q194.14062 192.70312 193.8125 192.98438Q193.5 193.26562 193.03125 193.45312Q192.57812 193.625 191.95312 193.625Z" fill-rule="nonzero"/><path stroke="#cccccc" stroke-width="1.0" stroke-linecap="butt" d="M372.0 305.0L372.0 103.0" fill-rule="nonzero"/><path stroke="#ff0000" stroke-width="2.0" stroke-linecap="butt" stroke-opacity="0.7019608" stroke-dasharray="8.0,6.0,2.0,6.0" d="M372.0 219.0L442.0 265.0L438.0 343.0L372.0 360.0L346.0 320.0L219.0 217.0Z" fill-rule="nonzero"/><path fill="#ff0000" fill-opacity="0.7019608" d="M368.81802 215.81802L372.0 217.875L375.18198 215.81802L373.125 219.0L375.18198 222.18198L372.0 220.125L368.81802 222.18198L370.875 219.0Z" fill-rule="nonzero"/><path fill="#ff0000" fill-opacity="0.7019608" d="M438.81802 261.81802L442.0 263.875L445.18198 261.81802L443.125 265.0L445.18198 268.18198L442.0 266.125L438.81802 268.18198L440.875 265.0Z" fill-rule="nonzero"/><path fill="#ff0000" fill-opacity="0.7019608" d="M434.81802 339.81802L438.0 341.875L441.18198 339.81802L439.125 343.0L441.18198 346.18198L438.0 344.125L434.81802 346.18198L436.875 343.0Z" fill-rule="nonzero"/><path fill="#ff0000" fill-opacity="0.7019608" d="M368.81802 356.81802L372.0 358.875L375.18198 356.81802L373.125 360.0L375.18198 363.18198L372.0 361.125L368.81802 363.18198L370.875 360.0Z" fill-rule="nonzero"/><path fill="#ff0000" fill-opacity="0.7019608" d="M342.81802 316.81802L346.0 318.875L349.18198 316.81802L347.125 320.0L349.18198 323.18198L346.0 321.125L342.81802 323.18198L344.875 320.0Z" fill-rule="nonzero"/><path fill="#ff0000" fill-opacity="0.7019608" d="M215.81802 213.81802L219.0 215.875L222.18198 213.81802L220.125 217.0L222.18198 220.18198L219.0 218.125L215.81802 220.18198L217.875 217.0Z" fill-rule="nonzero"/><path fill="#757575" d="M29.834375 47.35L29.834375 33.0375L32.69375 33.0375L36.06875 43.1625Q36.5375 44.584373 36.75625 45.2875Q37.00625 44.50625 37.521873 42.990623L40.94375 33.0375L43.490623 33.0375L43.490623 47.35L41.678123 47.35L41.678123 35.365623L37.50625 47.35L35.803123 47.35L31.6625 35.1625L31.6625 47.35L29.834375 47.35ZM46.678123 35.053123L46.678123 33.0375L48.44375 33.0375L48.44375 35.053123L46.678123 35.053123ZM46.678123 47.35L46.678123 36.975L48.44375 36.975L48.44375 47.35L46.678123 47.35ZM50.646873 47.35L50.646873 36.975L52.225 36.975L52.225 38.553123Q52.834373 37.44375 53.35 37.1Q53.865623 36.740623 54.475 36.740623Q55.365623 36.740623 56.2875 37.303123L55.678123 38.94375Q55.0375 38.553123 54.396873 38.553123Q53.81875 38.553123 53.35 38.9125Q52.896873 39.25625 52.69375 39.865623Q52.4125 40.803123 52.4125 41.9125L52.4125 47.35L50.646873 47.35ZM64.44375 46.06875Q63.459373 46.896873 62.553123 47.240623Q61.646873 47.584373 60.615623 47.584373Q58.9125 47.584373 57.990623 46.75625Q57.06875 45.9125 57.06875 44.615623Q57.06875 43.85 57.4125 43.225Q57.771873 42.6 58.334373 42.225Q58.896873 41.834373 59.6 41.63125Q60.115623 41.50625 61.1625 41.365623Q63.2875 41.115623 64.2875 40.771873Q64.30312 40.4125 64.30312 40.303123Q64.30312 39.240623 63.803123 38.7875Q63.13125 38.19375 61.803123 38.19375Q60.553123 38.19375 59.959373 38.63125Q59.38125 39.06875 59.1 40.178123L57.38125 39.94375Q57.615623 38.834373 58.146873 38.1625Q58.678123 37.475 59.69375 37.115623Q60.709373 36.740623 62.053123 36.740623Q63.38125 36.740623 64.20937 37.053123Q65.0375 37.365623 65.42812 37.85Q65.81875 38.31875 65.975 39.0375Q66.06875 39.490623 66.06875 40.6625L66.06875 43.00625Q66.06875 45.459373 66.17812 46.115623Q66.2875 46.75625 66.63125 47.35L64.7875 47.35Q64.52187 46.803123 64.44375 46.06875ZM64.2875 42.146873Q63.334373 42.5375 61.4125 42.803123Q60.334373 42.959373 59.88125 43.1625Q59.44375 43.35 59.19375 43.725Q58.94375 44.1 58.94375 44.56875Q58.94375 45.271873 59.475 45.740623Q60.00625 46.209373 61.0375 46.209373Q62.053123 46.209373 62.834373 45.771873Q63.63125 45.31875 64.00625 44.553123Q64.2875 43.94375 64.2875 42.7875L64.2875 42.146873ZM75.44375 43.553123L77.1625 43.771873Q76.88125 45.56875 75.70937 46.584373Q74.55312 47.584373 72.85 47.584373Q70.725 47.584373 69.42812 46.19375Q68.13125 44.803123 68.13125 42.209373Q68.13125 40.521873 68.67812 39.271873Q69.24062 38.00625 70.38125 37.38125Q71.52187 36.740623 72.86562 36.740623Q74.55312 36.740623 75.61562 37.6Q76.69375 38.459373 77.00625 40.021873L75.2875 40.2875Q75.05312 39.240623 74.42812 38.725Q73.80312 38.19375 72.92812 38.19375Q71.6 38.19375 70.77187 39.146873Q69.94375 40.1 69.94375 42.146873Q69.94375 44.240623 70.74062 45.19375Q71.5375 46.13125 72.83437 46.13125Q73.86562 46.13125 74.55312 45.50625Q75.25625 44.865623 75.44375 43.553123ZM78.63125 47.35L78.63125 33.0375L80.38125 33.0375L80.38125 47.35L78.63125 47.35ZM89.77187 44.00625L91.58437 44.240623Q91.1625 45.81875 89.99062 46.709373Q88.83437 47.584373 87.02187 47.584373Q84.75625 47.584373 83.4125 46.19375Q82.08437 44.7875 82.08437 42.25625Q82.08437 39.63125 83.42812 38.19375Q84.77187 36.740623 86.92812 36.740623Q89.00625 36.740623 90.31875 38.1625Q91.64687 39.56875 91.64687 42.146873Q91.64687 42.303123 91.63125 42.615623L83.89687 42.615623Q83.99062 44.31875 84.86562 45.225Q85.74062 46.13125 87.0375 46.13125Q88.00625 46.13125 88.67812 45.63125Q89.36562 45.115623 89.77187 44.00625ZM83.99062 41.1625L89.7875 41.1625Q89.67812 39.865623 89.13125 39.209373Q88.2875 38.19375 86.94375 38.19375Q85.74062 38.19375 84.9125 39.00625Q84.08437 39.803123 83.99062 41.1625ZM92.05312 51.31875L92.05312 50.053123L103.69375 50.053123L103.69375 51.31875L92.05312 51.31875ZM104.83437 47.35L104.83437 33.0375L107.69375 33.0375L111.06875 43.1625Q111.5375 44.584373 111.75625 45.2875Q112.00625 44.50625 112.52187 42.990623L115.94375 33.0375L118.49062 33.0375L118.49062 47.35L116.67812 47.35L116.67812 35.365623L112.50625 47.35L110.80312 47.35L106.6625 35.1625L106.6625 47.35L104.83437 47.35ZM121.67812 35.053123L121.67812 33.0375L123.44375 33.0375L123.44375 35.053123L121.67812 35.053123ZM121.67812 47.35L121.67812 36.975L123.44375 36.975L123.44375 47.35L121.67812 47.35ZM125.6625 47.35L125.6625 36.975L127.25625 36.975L127.25625 38.459373Q128.39688 36.740623 130.55313 36.740623Q131.49063 36.740623 132.27188 37.084373Q133.06876 37.4125 133.45938 37.959373Q133.85 38.50625 134.00626 39.25625Q134.1 39.75625 134.1 40.975L134.1 47.35L132.33438 47.35L132.33438 41.0375Q132.33438 39.959373 132.13126 39.428123Q131.92813 38.896873 131.39688 38.584373Q130.88126 38.271873 130.17813 38.271873Q129.05313 38.271873 128.24063 38.990623Q127.42812 39.69375 127.42812 41.678123L127.42812 47.35L125.6625 47.35ZM139.50626 45.771873L139.75626 47.334373Q139.02188 47.490623 138.42813 47.490623Q137.475 47.490623 136.94376 47.19375Q136.42813 46.88125 136.20938 46.396873Q135.99063 45.896873 135.99063 44.31875L135.99063 38.35L134.70938 38.35L134.70938 36.975L135.99063 36.975L135.99063 34.4125L137.74063 33.35L137.74063 36.975L139.50626 36.975L139.50626 38.35L137.74063 38.35L137.74063 44.4125Q137.74063 45.1625 137.83438 45.38125Q137.92813 45.584373 138.13126 45.725Q138.35 45.85 138.74063 45.85Q139.02188 45.85 139.50626 45.771873ZM140.95938 44.25625L142.70938 43.975Q142.85 45.021873 143.52188 45.584373Q144.19376 46.13125 145.39688 46.13125Q146.6 46.13125 147.17813 45.646873Q147.77188 45.146873 147.77188 44.490623Q147.77188 43.896873 147.25626 43.553123Q146.89688 43.31875 145.45938 42.959373Q143.52188 42.459373 142.77188 42.115623Q142.0375 41.75625 141.64688 41.13125Q141.25626 40.490623 141.25626 39.725Q141.25626 39.0375 141.56876 38.44375Q141.89688 37.85 142.44376 37.459373Q142.85 37.1625 143.55313 36.959373Q144.27188 36.740623 145.08438 36.740623Q146.30313 36.740623 147.225 37.1Q148.14688 37.44375 148.58438 38.053123Q149.02188 38.646873 149.19376 39.646873L147.475 39.88125Q147.35 39.084373 146.7875 38.646873Q146.225 38.19375 145.20938 38.19375Q143.99063 38.19375 143.475 38.6Q142.95938 38.990623 142.95938 39.521873Q142.95938 39.865623 143.17813 40.146873Q143.38126 40.428123 143.85 40.615623Q144.11563 40.709373 145.39688 41.053123Q147.27188 41.553123 148.00626 41.88125Q148.74063 42.19375 149.1625 42.803123Q149.58438 43.396873 149.58438 44.303123Q149.58438 45.178123 149.06876 45.959373Q148.55313 46.740623 147.58438 47.1625Q146.61563 47.584373 145.39688 47.584373Q143.38126 47.584373 142.31876 46.740623Q141.25626 45.896873 140.95938 44.25625Z" fill-rule="nonzero"/></svg>