<svg version="1.1" viewBox="0.0 0.0 744.0 567.0" fill="none" stroke="none" stroke-linecap="square" stroke-miterlimit="10" width="744" height="567" xmlns:xlink="http://www.w3.org/1999/xlink" xmlns="http://www.w3.org/2000/svg"><path fill="#ffffff" d="M0 0L744.0 0L744.0 567.0L0 567.0L0 0Z" fill-rule="nonzero"/><path fill="#ffffff" d="M28.35 71.25L715.64996 71.25L715.64996 538.65L28.35 538.65L28.35 71.25Z" fill-rule="nonzero"/><path stroke="#cccccc" stroke-width="1.0" stroke-linecap="butt" d="M372.0 305.0C372.0 305.0 372.0 305.0 372.0 305.0C372.0 305.0 372.0 305.0 372.0 305.0C372.0 305.0 372.0 305.0 372.0 305.0C372.0 305.0 372.0 305.0 372.0 305.0" fill-rule="nonzero"/><path fill="#000000" d="M360.0625 297.04688L360.0625 298.35938Q360.0625 299.40625 359.875 300.125Q359.6875 300.84375 359.32812 301.28125Q358.98438 301.71875 358.48438 301.92188Q358.0 302.125 357.375 302.125Q356.89062 302.125 356.46875 302.0Q356.04688 301.875 355.71875 301.60938Q355.39062 301.32812 355.15625 300.89062Q354.92188 300.45312 354.79688 299.82812Q354.67188 299.1875 354.67188 298.35938L354.67188 297.04688Q354.67188 296.0 354.85938 295.29688Q355.0625 294.59375 355.40625 294.15625Q355.76562 293.71875 356.25 293.53125Q356.75 293.34375 357.35938 293.34375Q357.85938 293.34375 358.28125 293.46875Q358.70312 293.59375 359.03125 293.85938Q359.35938 294.10938 359.57812 294.54688Q359.8125 294.96875 359.9375 295.59375Q360.0625 296.21875 360.0625 297.04688ZM358.96875 298.53125L358.96875 296.875Q358.96875 296.29688 358.90625 295.85938Q358.84375 295.42188 358.70312 295.10938Q358.57812 294.79688 358.375 294.60938Q358.1875 294.42188 357.9375 294.32812Q357.6875 294.23438 357.35938 294.23438Q356.98438 294.23438 356.67188 294.375Q356.375 294.51562 356.17188 294.82812Q355.96875 295.14062 355.85938 295.65625Q355.76562 296.15625 355.76562 296.875L355.76562 298.53125Q355.76562 299.10938 355.82812 299.54688Q355.90625 299.98438 356.03125 300.3125Q356.17188 300.625 356.35938 300.82812Q356.5625 301.03125 356.8125 301.125Q357.0625 301.21875 357.375 301.21875Q357.78125 301.21875 358.07812 301.07812Q358.375 300.92188 358.57812 300.59375Q358.78125 300.26562 358.875 299.76562Q358.96875 299.25 358.96875 298.53125ZM362.8125 300.70312L362.8125 301.57812Q362.8125 302.125 362.53125 302.71875Q362.26562 303.3125 361.78125 303.70312L361.17188 303.28125Q361.35938 303.01562 361.48438 302.75Q361.60938 302.48438 361.67188 302.20312Q361.75 301.92188 361.75 301.59375L361.75 300.70312L362.8125 300.70312ZM369.0625 297.04688L369.0625 298.35938Q369.0625 299.40625 368.875 300.125Q368.6875 300.84375 368.32812 301.28125Q367.98438 301.71875 367.48438 301.92188Q367.0 302.125 366.375 302.125Q365.89062 302.125 365.46875 302.0Q365.04688 301.875 364.71875 301.60938Q364.39062 301.32812 364.15625 300.89062Q363.92188 300.45312 363.79688 299.82812Q363.67188 299.1875 363.67188 298.35938L363.67188 297.04688Q363.67188 296.0 363.85938 295.29688Q364.0625 294.59375 364.40625 294.15625Q364.76562 293.71875 365.25 293.53125Q365.75 293.34375 366.35938 293.34375Q366.85938 293.34375 367.28125 293.46875Q367.70312 293.59375 368.03125 293.85938Q368.35938 294.10938 368.57812 294.54688Q368.8125 294.96875 368.9375 295.59375Q369.0625 296.21875 369.0625 297.04688ZM367.96875 298.53125L367.96875 296.875Q367.96875 296.29688 367.90625 295.85938Q367.84375 295.42188 367.70312 295.10938Q367.57812 294.79688 367.375 294.60938Q367.1875 294.42188 366.9375 294.32812Q366.6875 294.23438 366.35938 294.23438Q365.98438 294.23438 365.67188 294.375Q365.375 294.51562 365.17188 294.82812Q364.96875 295.14062 364.85938 295.65625Q364.76562 296.15625 364.76562 296.875L364.76562 298.53125Q364.76562 299.10938 364.82812 299.54688Q364.90625 299.98438 365.03125 300.3125Q365.17188 300.625 365.35938 300.82812Q365.5625 301.03125 365.8125 301.125Q366.0625 301.21875 366.375 301.21875Q366.78125 301.21875 367.07812 301.07812Q367.375 300.92188 367.57812 300.59375Q367.78125 300.26562 367.875 299.76562Q367.96875 299.25 367.96875 298.53125Z" fill-rule="nonzero"/><path stroke="#cccccc" stroke-width="1.0" stroke-linecap="butt" d="M422.425 305.0C422.425 277.15103 399.84897 254.575 372.0 254.575C344.15103 254.575 321.575 277.15103 321.575 305.0C321.575 332.84897 344.15103 355.425 372.0 355.425C399.84897 355.425 422.425 332.84897 422.425 305.0" fill-rule="nonzero"/><path fill="#000000" d="M360.0625 246.62187L360.0625 247.93437Q360.0625 248.98125 359.875 249.7Q359.6875 250.41875 359.32812 250.85625Q358.98438 251.29375 358.48438 251.49687Q358.0 251.7 357.375 251.7Q356.89062 251.7 356.46875 251.575Q356.04688 251.45 355.71875 251.18437Q355.39062 250.90312 355.15625 250.46562Q354.92188 250.02812 354.79688 249.40312Q354.67188 248.7625 354.67188 247.93437L354.67188 246.62187Q354.67188 245.575 354.85938 244.87187Q355.0625 244.16875 355.40625 243.73125Q355.76562 243.29375 356.25 243.10625Q356.75 242.91875 357.35938 242.91875Q357.85938 242.91875 358.28125 243.04375Q358.70312 243.16875 359.03125 243.43437Q359.35938 243.68437 359.57812 244.12187Q359.8125 244.54375 359.9375 245.16875Q360.0625 245.79375 360.0625 246.62187ZM358.96875 248.10625L358.96875 246.45Q358.96875 245.87187 358.90625 245.43437Q358.84375 244.99687 358.70312 244.68437Q358.57812 244.37187 358.375 244.18437Q358.1875 243.99687 357.9375 243.90312Q357.6875 243.80937 357.35938 243.80937Q356.98438 243.80937 356.67188 243.95Q356.375 244.09062 356.17188 244.40312Q355.96875 244.71562 355.85938 245.23125Q355.76562 245.73125 355.76562 246.45L355.76562 248.10625Q355.76562 248.68437 355.82812 249.12187Q355.90625 249.55937 356.03125 249.8875Q356.17188 250.2 356.35938 250.40312Q356.5625 250.60625 356.8125 250.7Q357.0625 250.79375 357.375 250.79375Q357.78125 250.79375 358.07812 250.65312Q358.375 250.49687 358.57812 250.16875Q358.78125 249.84062 358.875 249.34062Q358.96875 248.825 358.96875 248.10625ZM362.8125 250.27812L362.8125 251.15312Q362.8125 251.7 362.53125 252.29375Q362.26562 252.8875 361.78125 253.27812L361.17188 252.85625Q361.35938 252.59062 361.48438 252.325Q361.60938 252.05937 361.67188 251.77812Q361.75 251.49687 361.75 251.16875L361.75 250.27812L362.8125 250.27812ZM367.26562 242.99687L367.26562 251.575L366.1875 251.575L366.1875 244.35625L364.0 245.15312L364.0 244.16875L367.10938 242.99687L367.26562 242.99687Z" fill-rule="nonzero"/><path stroke="#cccccc" stroke-width="1.0" stroke-linecap="butt" d="M472.85 305.0C472.85 249.30208 427.6979 204.15 372.0 204.15C316.3021 204.15 271.15 249.30208 271.15 305.0C271.15 360.6979 316.3021 405.85 372.0 405.85C427.6979 405.85 472.85 360.6979 472.85 305.0" fill-rule="nonzero"/><path fill="#000000" d="M360.0625 196.19687L360.0625 197.50937Q360.0625 198.55624 359.875 199.275Q359.6875 199.99374 359.32812 200.43124Q358.98438 200.86874 358.48438 201.07187Q358.0 201.275 357.375 201.275Q356.89062 201.275 356.46875 201.15Q356.04688 201.025 355.71875 200.75937Q355.39062 200.47812 355.15625 200.04062Q354.92188 199.60312 354.79688 198.97812Q354.67188 198.3375 354.67188 197.50937L354.67188 196.19687Q354.67188 195.15 354.85938 194.44687Q355.0625 193.74374 355.40625 193.30624Q355.76562 192.86874 356.25 192.68124Q356.75 192.49374 357.35938 192.49374Q357.85938 192.49374 358.28125 192.61874Q358.70312 192.74374 359.03125 193.00937Q359.35938 193.25937 359.57812 193.69687Q359.8125 194.11874 359.9375 194.74374Q360.0625 195.36874 360.0625 196.19687ZM358.96875 197.68124L358.96875 196.025Q358.96875 195.44687 358.90625 195.00937Q358.84375 194.57187 358.70312 194.25937Q358.57812 193.94687 358.375 193.75937Q358.1875 193.57187 357.9375 193.47812Q357.6875 193.38437 357.35938 193.38437Q356.98438 193.38437 356.67188 193.525Q356.375 193.66562 356.17188 193.97812Q355.96875 194.29062 355.85938 194.80624Q355.76562 195.30624 355.76562 196.025L355.76562 197.68124Q355.76562 198.25937 355.82812 198.69687Q355.90625 199.13437 356.03125 199.4625Q356.17188 199.775 356.35938 199.97812Q356.5625 200.18124 356.8125 200.275Q357.0625 200.36874 357.375 200.36874Q357.78125 200.36874 358.07812 200.22812Q358.375 200.07187 358.57812 199.74374Q358.78125 199.41562 358.875 198.91562Q358.96875 198.4 358.96875 197.68124ZM362.8125 199.85312L362.8125 200.72812Q362.8125 201.275 362.53125 201.86874Q362.26562 202.4625 361.78125 202.85312L361.17188 202.43124Q361.35938 202.16562 361.48438 201.9Q361.60938 201.63437 361.67188 201.35312Q361.75 201.07187 361.75 200.74374L361.75 199.85312L362.8125 199.85312ZM369.29688 200.25937L369.29688 201.15L363.71875 201.15L363.71875 200.36874L366.51562 197.25937Q367.03125 196.68124 367.3125 196.29062Q367.59375 195.88437 367.70312 195.57187Q367.82812 195.24374 367.82812 194.91562Q367.82812 194.49374 367.65625 194.15Q367.48438 193.80624 367.14062 193.60312Q366.8125 193.38437 366.32812 193.38437Q365.76562 193.38437 365.39062 193.61874Q365.01562 193.8375 364.82812 194.22812Q364.64062 194.61874 364.64062 195.11874L363.54688 195.11874Q363.54688 194.4 363.85938 193.80624Q364.1875 193.2125 364.79688 192.85312Q365.42188 192.49374 366.32812 192.49374Q367.14062 192.49374 367.71875 192.79062Q368.29688 193.07187 368.59375 193.5875Q368.90625 194.0875 368.90625 194.775Q368.90625 195.15 368.78125 195.54062Q368.65625 195.91562 368.4375 196.30624Q368.21875 196.68124 367.92188 197.05624Q367.64062 197.41562 367.3125 197.775L365.01562 200.25937L369.29688 200.25937Z" fill-rule="nonzero"/><path stroke="#cccccc" stroke-width="1.0" stroke-linecap="butt" d="M523.275 305.0C523.275 221.45312 455.54688 153.725 372.0 153.725C288.45312 153.725 220.725 221.45312 220.725 305.0C220.725 388.54688 288.45312 456.275 372.0 456.275C455.54688 456.275 523.275 388.54688 523.275 305.0" fill-rule="nonzero"/><path fill="#000000" d="M360.0625 145.77188L360.0625 147.08438Q360.0625 148.13126 359.875 148.85Q359.6875 149.56876 359.32812 150.00626Q358.98438 150.44376 358.48438 150.64688Q358.0 150.85 357.375 150.85Q356.89062 150.85 356.46875 150.725Q356.04688 150.6 355.71875 150.33438Q355.39062 150.05313 355.15625 149.61563Q354.92188 149.17813 354.79688 148.55313Q354.67188 147.9125 354.67188 147.08438L354.67188 145.77188Q354.67188 144.725 354.85938 144.02188Q355.0625 143.31876 355.40625 142.88126Q355.76562 142.44376 356.25 142.25626Q356.75 142.06876 357.35938 142.06876Q357.85938 142.06876 358.28125 142.19376Q358.70312 142.31876 359.03125 142.58438Q359.35938 142.83438 359.57812 143.27188Q359.8125 143.69376 359.9375 144.31876Q360.0625 144.94376 360.0625 145.77188ZM358.96875 147.25626L358.96875 145.6Q358.96875 145.02188 358.90625 144.58438Q358.84375 144.14688 358.70312 143.83438Q358.57812 143.52188 358.375 143.33438Q358.1875 143.14688 357.9375 143.05313Q357.6875 142.95938 357.35938 142.95938Q356.98438 142.95938 356.67188 143.1Q356.375 143.24063 356.17188 143.55313Q355.96875 143.86563 355.85938 144.38126Q355.76562 144.88126 355.76562 145.6L355.76562 147.25626Q355.76562 147.83438 355.82812 148.27188Q355.90625 148.70938 356.03125 149.0375Q356.17188 149.35 356.35938 149.55313Q356.5625 149.75626 356.8125 149.85Q357.0625 149.94376 357.375 149.94376Q357.78125 149.94376 358.07812 149.80313Q358.375 149.64688 358.57812 149.31876Q358.78125 148.99063 358.875 148.49063Q358.96875 147.975 358.96875 147.25626ZM362.8125 149.42813L362.8125 150.30313Q362.8125 150.85 362.53125 151.44376Q362.26562 152.0375 361.78125 152.42813L361.17188 152.00626Q361.35938 151.74063 361.48438 151.475Q361.60938 151.20938 361.67188 150.92813Q361.75 150.64688 361.75 150.31876L361.75 149.42813L362.8125 149.42813ZM365.29688 145.92813L366.0625 145.92813Q366.64062 145.92813 367.0 145.74063Q367.375 145.5375 367.5625 145.20938Q367.75 144.88126 367.75 144.45938Q367.75 143.975 367.57812 143.64688Q367.42188 143.30313 367.09375 143.13126Q366.76562 142.95938 366.26562 142.95938Q365.79688 142.95938 365.45312 143.14688Q365.10938 143.31876 364.90625 143.64688Q364.71875 143.975 364.71875 144.42813L363.625 144.42813Q363.625 143.77188 363.95312 143.24063Q364.28125 142.70938 364.875 142.39688Q365.46875 142.06876 366.26562 142.06876Q367.03125 142.06876 367.60938 142.35Q368.1875 142.61563 368.51562 143.1625Q368.84375 143.69376 368.84375 144.49063Q368.84375 144.81876 368.6875 145.17813Q368.53125 145.5375 368.21875 145.86563Q367.90625 146.17813 367.40625 146.38126Q366.92188 146.58438 366.21875 146.58438L365.29688 146.58438L365.29688 145.92813ZM365.29688 146.81876L365.29688 146.1625L366.21875 146.1625Q367.03125 146.1625 367.5625 146.36563Q368.09375 146.55313 368.40625 146.88126Q368.71875 147.19376 368.84375 147.58438Q368.96875 147.95938 368.96875 148.35Q368.96875 148.94376 368.76562 149.4125Q368.5625 149.86563 368.1875 150.19376Q367.82812 150.50626 367.32812 150.67813Q366.84375 150.85 366.26562 150.85Q365.70312 150.85 365.21875 150.69376Q364.73438 150.52188 364.35938 150.225Q363.98438 149.92813 363.76562 149.49063Q363.5625 149.0375 363.5625 148.475L364.64062 148.475Q364.64062 148.9125 364.82812 149.25626Q365.03125 149.58438 365.39062 149.77188Q365.76562 149.94376 366.26562 149.94376Q366.76562 149.94376 367.125 149.77188Q367.48438 149.6 367.67188 149.25626Q367.875 148.89688 367.875 148.36563Q367.875 147.83438 367.65625 147.49063Q367.4375 147.14688 367.01562 146.99063Q366.60938 146.81876 366.0625 146.81876L365.29688 146.81876Z" fill-rule="nonzero"/><path stroke="#cccccc" stroke-width="1.0" stroke-linecap="butt" d="M573.7 305.0C573.7 193.60417 483.39584 103.3 372.0 103.3C260.60416 103.3 170.3 193.60417 170.3 305.0C170.3 416.39584 260.60416 506.7 372.0 506.7C483.39584 506.7 573.7 416.39584 573.7 305.0" fill-rule="nonzero"/><path fill="#000000" d="M360.0625 95.34688L360.0625 96.65938Q360.0625 97.70625 359.875 98.425Q359.6875 99.14375 359.32812 99.58125Q358.98438 100.01875 358.48438 100.22188Q358.0 100.425 357.375 100.425Q356.89062 100.425 356.46875 100.3Q356.04688 100.175 355.71875 99.90938Q355.39062 99.62813 355.15625 99.19063Q354.92188 98.75313 354.79688 98.12813Q354.67188 97.4875 354.67188 96.65938L354.67188 95.34688Q354.67188 94.3 354.85938 93.59688Q355.0625 92.89375 355.40625 92.45625Q355.76562 92.01875 356.25 91.83125Q356.75 91.64375 357.35938 91.64375Q357.85938 91.64375 358.28125 91.76875Q358.70312 91.89375 359.03125 92.15938Q359.35938 92.40938 359.57812 92.84688Q359.8125 93.26875 359.9375 93.89375Q360.0625 94.51875 360.0625 95.34688ZM358.96875 96.83125L358.96875 95.175Q358.96875 94.59688 358.90625 94.15938Q358.84375 93.72188 358.70312 93.40938Q358.57812 93.09688 358.375 92.90938Q358.1875 92.72188 357.9375 92.62813Q357.6875 92.53438 357.35938 92.53438Q356.98438 92.53438 356.67188 92.675Q356.375 92.81563 356.17188 93.12813Q355.96875 93.44063 355.85938 93.95625Q355.76562 94.45625 355.76562 95.175L355.76562 96.83125Q355.76562 97.40938 355.82812 97.84688Q355.90625 98.28438 356.03125 98.6125Q356.17188 98.925 356.35938 99.12813Q356.5625 99.33125 356.8125 99.425Q357.0625 99.51875 357.375 99.51875Q357.78125 99.51875 358.07812 99.37813Q358.375 99.22188 358.57812 98.89375Q358.78125 98.56563 358.875 98.06563Q358.96875 97.55 358.96875 96.83125ZM362.8125 99.00313L362.8125 99.87813Q362.8125 100.425 362.53125 101.01875Q362.26562 101.6125 361.78125 102.00313L361.17188 101.58125Q361.35938 101.31563 361.48438 101.05Q361.60938 100.78438 361.67188 100.50313Q361.75 100.22188 361.75 99.89375L361.75 99.00313L362.8125 99.00313ZM369.46875 97.425L369.46875 98.31563L363.3125 98.31563L363.3125 97.675L367.125 91.76875L368.01562 91.76875L367.0625 93.47188L364.54688 97.425L369.46875 97.425ZM368.28125 91.76875L368.28125 100.3L367.20312 100.3L367.20312 91.76875L368.28125 91.76875Z" fill-rule="nonzero"/><path stroke="#cccccc" stroke-width="1.0" stroke-linecap="butt" d="M372.0 305.0L372.0 103.0" fill-rule="nonzero"/><path fill="#000000" d="M342.64062 78.78125L343.76562 78.78125Q343.67188 79.59375 343.29688 80.234375Q342.92188 80.875 342.23438 81.25Q341.5625 81.625 340.53125 81.625Q339.78125 81.625 339.17188 81.34375Q338.5625 81.046875 338.10938 80.53125Q337.67188 80.015625 337.4375 79.296875Q337.20312 78.5625 337.20312 77.65625L337.20312 76.8125Q337.20312 75.921875 337.4375 75.1875Q337.67188 74.453125 338.125 73.9375Q338.57812 73.40625 339.20312 73.125Q339.84375 72.84375 340.625 72.84375Q341.59375 72.84375 342.26562 73.21875Q342.9375 73.578125 343.29688 74.21875Q343.67188 74.859375 343.76562 75.703125L342.64062 75.703125Q342.5625 75.109375 342.32812 74.6875Q342.10938 74.25 341.70312 74.015625Q341.29688 73.78125 340.625 73.78125Q340.0625 73.78125 339.625 74.0Q339.20312 74.203125 338.90625 74.609375Q338.625 75.0 338.46875 75.5625Q338.32812 76.125 338.32812 76.796875L338.32812 77.65625Q338.32812 78.28125 338.45312 78.84375Q338.59375 79.390625 338.85938 79.8125Q339.125 80.21875 339.54688 80.46875Q339.96875 80.703125 340.53125 80.703125Q341.25 80.703125 341.67188 80.46875Q342.10938 80.234375 342.32812 79.8125Q342.54688 79.390625 342.64062 78.78125ZM349.0625 80.421875L349.0625 77.15625Q349.0625 76.78125 348.90625 76.5Q348.76562 76.21875 348.46875 76.078125Q348.17188 75.921875 347.73438 75.921875Q347.3125 75.921875 347.0 76.0625Q346.70312 76.203125 346.53125 76.4375Q346.35938 76.65625 346.35938 76.921875L345.28125 76.921875Q345.28125 76.578125 345.45312 76.25Q345.625 75.90625 345.95312 75.640625Q346.28125 75.359375 346.75 75.203125Q347.21875 75.046875 347.79688 75.046875Q348.48438 75.046875 349.01562 75.28125Q349.54688 75.515625 349.84375 75.984375Q350.15625 76.453125 350.15625 77.15625L350.15625 80.109375Q350.15625 80.4375 350.20312 80.796875Q350.26562 81.140625 350.375 81.40625L350.375 81.5L349.23438 81.5Q349.15625 81.3125 349.10938 81.0Q349.0625 80.6875 349.0625 80.421875ZM349.25 77.65625L349.26562 78.421875L348.17188 78.421875Q347.70312 78.421875 347.34375 78.5Q346.98438 78.5625 346.73438 78.71875Q346.48438 78.859375 346.35938 79.078125Q346.23438 79.296875 346.23438 79.59375Q346.23438 79.890625 346.35938 80.140625Q346.5 80.375 346.76562 80.53125Q347.04688 80.671875 347.4375 80.671875Q347.9375 80.671875 348.3125 80.46875Q348.70312 80.25 348.92188 79.953125Q349.15625 79.640625 349.17188 79.34375L349.64062 79.875Q349.59375 80.109375 349.40625 80.421875Q349.23438 80.71875 348.92188 81.0Q348.625 81.265625 348.20312 81.453125Q347.79688 81.625 347.28125 81.625Q346.64062 81.625 346.15625 81.375Q345.67188 81.109375 345.40625 80.6875Q345.14062 80.265625 345.14062 79.734375Q345.14062 79.21875 345.32812 78.84375Q345.53125 78.453125 345.90625 78.1875Q346.28125 77.921875 346.8125 77.796875Q347.34375 77.65625 348.0 77.65625L349.25 77.65625ZM353.40625 76.15625L353.40625 81.5L352.32812 81.5L352.32812 75.15625L353.375 75.15625L353.40625 76.15625ZM355.39062 75.125L355.39062 76.125Q355.25 76.109375 355.125 76.09375Q355.01562 76.078125 354.85938 76.078125Q354.48438 76.078125 354.1875 76.203125Q353.90625 76.3125 353.70312 76.53125Q353.51562 76.734375 353.39062 77.03125Q353.28125 77.328125 353.25 77.671875L352.9375 77.84375Q352.9375 77.265625 353.04688 76.765625Q353.17188 76.265625 353.40625 75.875Q353.65625 75.484375 354.01562 75.265625Q354.39062 75.046875 354.90625 75.046875Q355.03125 75.046875 355.17188 75.078125Q355.32812 75.09375 355.39062 75.125ZM358.10938 80.84375L359.875 75.15625L361.03125 75.15625L358.48438 82.484375Q358.40625 82.71875 358.25 82.984375Q358.10938 83.265625 357.89062 83.5Q357.67188 83.75 357.35938 83.90625Q357.04688 84.0625 356.60938 84.0625Q356.48438 84.0625 356.28125 84.015625Q356.07812 83.984375 356.0 83.96875L356.0 83.09375Q356.04688 83.09375 356.14062 83.09375Q356.25 83.109375 356.28125 83.109375Q356.65625 83.109375 356.90625 83.015625Q357.17188 82.921875 357.34375 82.6875Q357.53125 82.46875 357.65625 82.078125L358.10938 80.84375ZM356.8125 75.15625L358.45312 80.078125L358.73438 81.21875L357.96875 81.625L355.625 75.15625L356.8125 75.15625ZM362.04688 78.40625L362.04688 78.265625Q362.04688 77.578125 362.23438 77.0Q362.4375 76.40625 362.8125 75.96875Q363.1875 75.53125 363.71875 75.296875Q364.25 75.046875 364.92188 75.046875Q365.57812 75.046875 366.10938 75.296875Q366.65625 75.53125 367.03125 75.96875Q367.40625 76.40625 367.60938 77.0Q367.8125 77.578125 367.8125 78.265625L367.8125 78.40625Q367.8125 79.078125 367.60938 79.671875Q367.40625 80.25 367.03125 80.6875Q366.65625 81.125 366.125 81.375Q365.59375 81.625 364.92188 81.625Q364.26562 81.625 363.71875 81.375Q363.1875 81.125 362.8125 80.6875Q362.4375 80.25 362.23438 79.671875Q362.04688 79.078125 362.04688 78.40625ZM363.125 78.265625L363.125 78.40625Q363.125 78.875 363.23438 79.296875Q363.34375 79.71875 363.5625 80.046875Q363.79688 80.359375 364.14062 80.546875Q364.48438 80.71875 364.92188 80.71875Q365.375 80.71875 365.70312 80.546875Q366.04688 80.359375 366.26562 80.046875Q366.5 79.71875 366.60938 79.296875Q366.71875 78.875 366.71875 78.40625L366.71875 78.265625Q366.71875 77.796875 366.60938 77.375Q366.5 76.953125 366.26562 76.640625Q366.04688 76.3125 365.70312 76.125Q365.375 75.9375 364.92188 75.9375Q364.46875 75.9375 364.125 76.125Q363.79688 76.3125 363.5625 76.640625Q363.34375 76.953125 363.23438 77.375Q363.125 77.796875 363.125 78.265625ZM370.40625 76.375L370.40625 83.9375L369.32812 83.9375L369.32812 75.15625L370.3125 75.15625L370.40625 76.375ZM374.6875 78.28125L374.6875 78.40625Q374.6875 79.09375 374.51562 79.6875Q374.35938 80.265625 374.04688 80.703125Q373.73438 81.140625 373.26562 81.390625Q372.8125 81.625 372.21875 81.625Q371.625 81.625 371.15625 81.421875Q370.6875 81.21875 370.35938 80.84375Q370.04688 80.453125 369.85938 79.921875Q369.67188 79.390625 369.59375 78.71875L369.59375 78.0625Q369.67188 77.359375 369.85938 76.8125Q370.04688 76.25 370.35938 75.859375Q370.6875 75.453125 371.14062 75.25Q371.60938 75.046875 372.20312 75.046875Q372.79688 75.046875 373.26562 75.28125Q373.73438 75.5 374.04688 75.9375Q374.35938 76.359375 374.51562 76.953125Q374.6875 77.546875 374.6875 78.28125ZM373.59375 78.40625L373.59375 78.28125Q373.59375 77.796875 373.48438 77.390625Q373.39062 76.96875 373.1875 76.65625Q372.98438 76.328125 372.65625 76.140625Q372.32812 75.953125 371.89062 75.953125Q371.48438 75.953125 371.17188 76.09375Q370.875 76.234375 370.65625 76.484375Q370.45312 76.71875 370.3125 77.015625Q370.1875 77.3125 370.125 77.640625L370.125 79.15625Q370.23438 79.5625 370.4375 79.921875Q370.65625 80.28125 371.0 80.5Q371.35938 80.71875 371.90625 80.71875Q372.34375 80.71875 372.65625 80.546875Q372.98438 80.359375 373.1875 80.046875Q373.39062 79.71875 373.48438 79.296875Q373.59375 78.875 373.59375 78.40625ZM377.40625 72.5L377.40625 81.5L376.32812 81.5L376.32812 72.5L377.40625 72.5ZM377.15625 78.09375L376.70312 78.078125Q376.70312 77.421875 376.89062 76.875Q377.07812 76.3125 377.42188 75.90625Q377.76562 75.5 378.23438 75.28125Q378.70312 75.046875 379.28125 75.046875Q379.75 75.046875 380.125 75.171875Q380.5 75.296875 380.76562 75.578125Q381.03125 75.84375 381.17188 76.28125Q381.3125 76.71875 381.3125 77.34375L381.3125 81.5L380.21875 81.5L380.21875 77.328125Q380.21875 76.828125 380.07812 76.53125Q379.9375 76.234375 379.65625 76.09375Q379.375 75.953125 378.95312 75.953125Q378.54688 75.953125 378.21875 76.125Q377.89062 76.296875 377.65625 76.59375Q377.42188 76.890625 377.28125 77.28125Q377.15625 77.65625 377.15625 78.09375ZM385.10938 80.84375L386.875 75.15625L388.03125 75.15625L385.48438 82.484375Q385.40625 82.71875 385.25 82.984375Q385.10938 83.265625 384.89062 83.5Q384.67188 83.75 384.35938 83.90625Q384.04688 84.0625 383.60938 84.0625Q383.48438 84.0625 383.28125 84.015625Q383.07812 83.984375 383.0 83.96875L383.0 83.09375Q383.04688 83.09375 383.14062 83.09375Q383.25 83.109375 383.28125 83.109375Q383.65625 83.109375 383.90625 83.015625Q384.17188 82.921875 384.34375 82.6875Q384.53125 82.46875 384.65625 82.078125L385.10938 80.84375ZM383.8125 75.15625L385.45312 80.078125L385.73438 81.21875L384.96875 81.625L382.625 75.15625L383.8125 75.15625ZM390.5 72.5L390.5 81.5L389.42188 81.5L389.42188 72.5L390.5 72.5ZM393.5 72.5L393.5 81.5L392.42188 81.5L392.42188 72.5L393.5 72.5ZM397.95312 81.625Q397.29688 81.625 396.75 81.40625Q396.21875 81.171875 395.82812 80.765625Q395.45312 80.34375 395.25 79.78125Q395.04688 79.21875 395.04688 78.546875L395.04688 78.3125Q395.04688 77.53125 395.26562 76.921875Q395.5 76.3125 395.89062 75.890625Q396.28125 75.46875 396.78125 75.265625Q397.28125 75.046875 397.8125 75.046875Q398.5 75.046875 398.98438 75.28125Q399.48438 75.515625 399.79688 75.9375Q400.125 76.34375 400.26562 76.921875Q400.42188 77.484375 400.42188 78.140625L400.42188 78.640625L395.6875 78.640625L395.6875 77.75L399.34375 77.75L399.34375 77.671875Q399.3125 77.25 399.15625 76.859375Q399.01562 76.453125 398.6875 76.203125Q398.375 75.9375 397.8125 75.9375Q397.45312 75.9375 397.14062 76.09375Q396.82812 76.25 396.59375 76.5625Q396.375 76.859375 396.25 77.296875Q396.14062 77.734375 396.14062 78.3125L396.14062 78.546875Q396.14062 79.0 396.26562 79.40625Q396.39062 79.796875 396.625 80.09375Q396.875 80.390625 397.21875 80.5625Q397.57812 80.734375 398.01562 80.734375Q398.59375 80.734375 398.98438 80.5Q399.39062 80.265625 399.6875 79.875L400.34375 80.390625Q400.14062 80.703125 399.8125 80.984375Q399.5 81.265625 399.03125 81.453125Q398.57812 81.625 397.95312 81.625ZM402.40625 76.515625L402.40625 81.5L401.32812 81.5L401.32812 75.15625L402.35938 75.15625L402.40625 76.515625ZM402.15625 78.09375L401.70312 78.078125Q401.70312 77.421875 401.89062 76.875Q402.07812 76.3125 402.42188 75.90625Q402.76562 75.5 403.23438 75.28125Q403.70312 75.046875 404.28125 75.046875Q404.75 75.046875 405.125 75.171875Q405.5 75.296875 405.76562 75.578125Q406.03125 75.84375 406.17188 76.28125Q406.3125 76.71875 406.3125 77.34375L406.3125 81.5L405.21875 81.5L405.21875 77.328125Q405.21875 76.828125 405.07812 76.53125Q404.9375 76.234375 404.65625 76.09375Q404.375 75.953125 403.95312 75.953125Q403.54688 75.953125 403.21875 76.125Q402.89062 76.296875 402.65625 76.59375Q402.42188 76.890625 402.28125 77.28125Q402.15625 77.65625 402.15625 78.09375Z" fill-rule="nonzero"/><path stroke="#cccccc" stroke-width="1.0" stroke-linecap="butt" d="M372.0 305.0L547.0 204.0" fill-rule="nonzero"/><path fill="#000000" d="M550.84375 186.96875L551.9375 186.96875L554.7344 193.92188L557.53125 186.96875L558.625 186.96875L555.15625 195.5L554.3125 195.5L550.84375 186.96875ZM550.4844 186.96875L551.4531 186.96875L551.6094 192.17188L551.6094 195.5L550.4844 195.5L550.4844 186.96875ZM558.0156 186.96875L558.9844 186.96875L558.9844 195.5L557.8594 195.5L557.8594 192.17188L558.0156 186.96875ZM562.1094 194.84375L563.875 189.15625L565.03125 189.15625L562.4844 196.48438Q562.40625 196.71875 562.25 196.98438Q562.1094 197.26562 561.8906 197.5Q561.6719 197.75 561.3594 197.90625Q561.0469 198.0625 560.6094 198.0625Q560.4844 198.0625 560.28125 198.01562Q560.0781 197.98438 560.0 197.96875L560.0 197.09375Q560.0469 197.09375 560.1406 197.09375Q560.25 197.10938 560.28125 197.10938Q560.65625 197.10938 560.90625 197.01562Q561.1719 196.92188 561.34375 196.6875Q561.53125 196.46875 561.65625 196.07812L562.1094 194.84375ZM560.8125 189.15625L562.4531 194.07812L562.7344 195.21875L561.96875 195.625L559.625 189.15625L560.8125 189.15625ZM567.40625 190.15625L567.40625 195.5L566.3281 195.5L566.3281 189.15625L567.375 189.15625L567.40625 190.15625ZM569.3906 189.125L569.3906 190.125Q569.25 190.10938 569.125 190.09375Q569.0156 190.07812 568.8594 190.07812Q568.4844 190.07812 568.1875 190.20312Q567.90625 190.3125 567.7031 190.53125Q567.5156 190.73438 567.3906 191.03125Q567.28125 191.32812 567.25 191.67188L566.9375 191.84375Q566.9375 191.26562 567.0469 190.76562Q567.1719 190.26562 567.40625 189.875Q567.65625 189.48438 568.0156 189.26562Q568.3906 189.04688 568.90625 189.04688Q569.03125 189.04688 569.1719 189.07812Q569.3281 189.09375 569.3906 189.125ZM572.8594 194.71875Q573.25 194.71875 573.5781 194.5625Q573.90625 194.40625 574.1094 194.14062Q574.3281 193.85938 574.3594 193.5L575.3906 193.5Q575.3594 194.0625 575.0 194.54688Q574.65625 195.03125 574.09375 195.32812Q573.53125 195.625 572.8594 195.625Q572.15625 195.625 571.625 195.375Q571.09375 195.10938 570.7344 194.67188Q570.3906 194.23438 570.21875 193.67188Q570.0469 193.09375 570.0469 192.45312L570.0469 192.20312Q570.0469 191.5625 570.21875 191.0Q570.3906 190.42188 570.7344 189.98438Q571.09375 189.54688 571.625 189.29688Q572.15625 189.04688 572.8594 189.04688Q573.6094 189.04688 574.15625 189.34375Q574.71875 189.64062 575.03125 190.17188Q575.3594 190.6875 575.3906 191.34375L574.3594 191.34375Q574.3281 190.95312 574.1406 190.64062Q573.9531 190.3125 573.625 190.125Q573.2969 189.9375 572.8594 189.9375Q572.3594 189.9375 572.0156 190.14062Q571.6875 190.32812 571.4844 190.65625Q571.2969 190.98438 571.2031 191.39062Q571.125 191.79688 571.125 192.20312L571.125 192.45312Q571.125 192.875 571.2031 193.28125Q571.2969 193.67188 571.4844 194.0Q571.6875 194.32812 572.0156 194.53125Q572.3594 194.71875 572.8594 194.71875ZM578.9531 195.625Q578.2969 195.625 577.75 195.40625Q577.21875 195.17188 576.8281 194.76562Q576.4531 194.34375 576.25 193.78125Q576.0469 193.21875 576.0469 192.54688L576.0469 192.3125Q576.0469 191.53125 576.2656 190.92188Q576.5 190.3125 576.8906 189.89062Q577.28125 189.46875 577.78125 189.26562Q578.28125 189.04688 578.8125 189.04688Q579.5 189.04688 579.9844 189.28125Q580.4844 189.51562 580.7969 189.9375Q581.125 190.34375 581.2656 190.92188Q581.4219 191.48438 581.4219 192.14062L581.4219 192.64062L576.6875 192.64062L576.6875 191.75L580.34375 191.75L580.34375 191.67188Q580.3125 191.25 580.15625 190.85938Q580.0156 190.45312 579.6875 190.20312Q579.375 189.9375 578.8125 189.9375Q578.4531 189.9375 578.1406 190.09375Q577.8281 190.25 577.59375 190.5625Q577.375 190.85938 577.25 191.29688Q577.1406 191.73438 577.1406 192.3125L577.1406 192.54688Q577.1406 193.0 577.2656 193.40625Q577.3906 193.79688 577.625 194.09375Q577.875 194.39062 578.21875 194.5625Q578.5781 194.73438 579.0156 194.73438Q579.59375 194.73438 579.9844 194.5Q580.3906 194.26562 580.6875 193.875L581.34375 194.39062Q581.1406 194.70312 580.8125 194.98438Q580.5 195.26562 580.03125 195.45312Q579.5781 195.625 578.9531 195.625ZM583.40625 190.51562L583.40625 195.5L582.3281 195.5L582.3281 189.15625L583.3594 189.15625L583.40625 190.51562ZM583.15625 192.09375L582.7031 192.07812Q582.7031 191.42188 582.8906 190.875Q583.0781 190.3125 583.4219 189.90625Q583.7656 189.5 584.2344 189.28125Q584.7031 189.04688 585.28125 189.04688Q585.75 189.04688 586.125 189.17188Q586.5 189.29688 586.7656 189.57812Q587.03125 189.84375 587.1719 190.28125Q587.3125 190.71875 587.3125 191.34375L587.3125 195.5L586.21875 195.5L586.21875 191.32812Q586.21875 190.82812 586.0781 190.53125Q585.9375 190.23438 585.65625 190.09375Q585.375 189.95312 584.9531 189.95312Q584.5469 189.95312 584.21875 190.125Q583.8906 190.29688 583.65625 190.59375Q583.4219 190.89062 583.28125 191.28125Q583.15625 191.65625 583.15625 192.09375Z" fill-rule="nonzero"/><path stroke="#cccccc" stroke-width="1.0" stroke-linecap="butt" d="M372.0 305.0L547.0 406.0" fill-rule="nonzero"/><path fill="#000000" d="M539.59375 420.5625L539.59375 420.4375Q539.59375 419.6875 539.75 419.07812Q539.9219 418.45312 540.2344 418.0Q540.5469 417.54688 541.0 417.29688Q541.46875 417.04688 542.0625 417.04688Q542.5156 417.04688 542.875 417.1875Q543.25 417.3125 543.53125 417.57812Q543.8125 417.82812 544.0156 418.20312Q544.21875 418.57812 544.34375 419.0625Q544.46875 419.53125 544.5156 420.09375L544.5156 420.57812Q544.4531 421.28125 544.2656 421.84375Q544.09375 422.40625 543.7969 422.8125Q543.5 423.20312 543.0625 423.42188Q542.6406 423.625 542.0469 423.625Q541.46875 423.625 541.0 423.40625Q540.5469 423.17188 540.2344 422.76562Q539.9219 422.34375 539.75 421.79688Q539.59375 421.23438 539.59375 420.5625ZM540.6719 420.4375L540.6719 420.5625Q540.6719 421.01562 540.7656 421.40625Q540.8594 421.79688 541.0469 422.09375Q541.25 422.39062 541.5625 422.5625Q541.8906 422.73438 542.3281 422.73438Q542.75 422.73438 543.0469 422.5625Q543.3594 422.375 543.5625 422.07812Q543.78125 421.78125 543.90625 421.39062Q544.0469 421.0 544.1406 420.59375L544.1406 420.20312Q544.0781 419.76562 543.9375 419.375Q543.8125 418.96875 543.59375 418.64062Q543.3906 418.3125 543.0781 418.125Q542.7656 417.9375 542.3281 417.9375Q541.8906 417.9375 541.5781 418.14062Q541.2656 418.32812 541.0625 418.67188Q540.8594 419.01562 540.7656 419.48438Q540.6719 419.9375 540.6719 420.4375ZM543.9844 417.15625L544.90625 417.15625L544.90625 421.76562Q544.90625 422.04688 544.9375 422.21875Q544.96875 422.375 545.03125 422.48438Q545.1094 422.57812 545.1875 422.625Q545.28125 422.65625 545.375 422.65625Q545.4219 422.65625 545.46875 422.64062Q545.53125 422.625 545.5625 422.60938L545.7031 423.42188Q545.5156 423.54688 545.34375 423.57812Q545.1719 423.625 544.9844 423.625Q544.7031 423.625 544.4844 423.51562Q544.28125 423.42188 544.125 423.20312Q543.96875 422.98438 543.8906 422.625Q543.8125 422.26562 543.8125 421.76562L543.8125 418.53125L543.9844 417.15625ZM549.0781 419.42188L549.0781 420.3125L546.21875 420.3125L546.21875 419.42188L549.0781 419.42188ZM555.5625 418.64062L555.5625 419.5625L550.9531 419.5625L550.9531 418.64062L555.5625 418.64062ZM551.125 414.96875L551.125 423.5L549.9844 423.5L549.9844 414.96875L551.125 414.96875ZM556.5469 414.96875L556.5469 423.5L555.4219 423.5L555.4219 414.96875L556.5469 414.96875ZM562.7031 422.03125L562.7031 417.15625L563.7969 417.15625L563.7969 423.5L562.7656 423.5L562.7031 422.03125ZM562.90625 420.70312L563.3594 420.6875Q563.3594 421.3125 563.21875 421.85938Q563.09375 422.39062 562.7969 422.78125Q562.5156 423.17188 562.03125 423.40625Q561.5625 423.625 560.8906 423.625Q560.4219 423.625 560.03125 423.48438Q559.65625 423.34375 559.375 423.0625Q559.1094 422.78125 558.9531 422.32812Q558.7969 421.875 558.7969 421.25L558.7969 417.15625L559.8906 417.15625L559.8906 421.26562Q559.8906 421.6875 559.9844 421.96875Q560.0781 422.25 560.25 422.40625Q560.4219 422.5625 560.625 422.64062Q560.8281 422.70312 561.0469 422.70312Q561.75 422.70312 562.1406 422.4375Q562.5469 422.15625 562.71875 421.70312Q562.90625 421.25 562.90625 420.70312ZM566.90625 418.42188L566.90625 423.5L565.8125 423.5L565.8125 417.15625L566.84375 417.15625L566.90625 418.42188ZM566.6875 420.09375L566.1719 420.07812Q566.1875 419.42188 566.34375 418.875Q566.5156 418.3125 566.8281 417.90625Q567.15625 417.5 567.6406 417.28125Q568.125 417.04688 568.75 417.04688Q569.2031 417.04688 569.5781 417.17188Q569.9531 417.29688 570.21875 417.5625Q570.5 417.82812 570.6406 418.25Q570.7969 418.67188 570.7969 419.28125L570.7969 423.5L569.71875 423.5L569.71875 419.32812Q569.71875 418.82812 569.5469 418.53125Q569.3906 418.23438 569.0781 418.09375Q568.78125 417.95312 568.3594 417.95312Q567.8906 417.95312 567.5625 418.125Q567.2344 418.29688 567.0469 418.59375Q566.8594 418.89062 566.7656 419.28125Q566.6875 419.65625 566.6875 420.09375ZM570.7969 419.48438L570.0625 419.71875Q570.0625 419.1875 570.2344 418.71875Q570.40625 418.23438 570.71875 417.85938Q571.0469 417.48438 571.5156 417.26562Q571.9844 417.04688 572.5781 417.04688Q573.09375 417.04688 573.4844 417.1875Q573.8906 417.3125 574.15625 417.59375Q574.4219 417.875 574.5625 418.3125Q574.7031 418.73438 574.7031 419.32812L574.7031 423.5L573.625 423.5L573.625 419.32812Q573.625 418.78125 573.4531 418.5Q573.28125 418.20312 572.9844 418.07812Q572.6875 417.95312 572.2656 417.95312Q571.90625 417.95312 571.625 418.07812Q571.3594 418.20312 571.1719 418.42188Q570.9844 418.625 570.8906 418.90625Q570.7969 419.1875 570.7969 419.48438ZM580.7031 422.03125L580.7031 417.15625L581.7969 417.15625L581.7969 423.5L580.7656 423.5L580.7031 422.03125ZM580.90625 420.70312L581.3594 420.6875Q581.3594 421.3125 581.21875 421.85938Q581.09375 422.39062 580.7969 422.78125Q580.5156 423.17188 580.03125 423.40625Q579.5625 423.625 578.8906 423.625Q578.4219 423.625 578.03125 423.48438Q577.65625 423.34375 577.375 423.0625Q577.1094 422.78125 576.9531 422.32812Q576.7969 421.875 576.7969 421.25L576.7969 417.15625L577.8906 417.15625L577.8906 421.26562Q577.8906 421.6875 577.9844 421.96875Q578.0781 422.25 578.25 422.40625Q578.4219 422.5625 578.625 422.64062Q578.8281 422.70312 579.0469 422.70312Q579.75 422.70312 580.1406 422.4375Q580.5469 422.15625 580.71875 421.70312Q580.90625 421.25 580.90625 420.70312ZM585.0 414.5L585.0 423.5L583.9219 423.5L583.9219 414.5L585.0 414.5ZM589.4531 423.625Q588.7969 423.625 588.25 423.40625Q587.71875 423.17188 587.3281 422.76562Q586.9531 422.34375 586.75 421.78125Q586.5469 421.21875 586.5469 420.54688L586.5469 420.3125Q586.5469 419.53125 586.7656 418.92188Q587.0 418.3125 587.3906 417.89062Q587.78125 417.46875 588.28125 417.26562Q588.78125 417.04688 589.3125 417.04688Q590.0 417.04688 590.4844 417.28125Q590.9844 417.51562 591.2969 417.9375Q591.625 418.34375 591.7656 418.92188Q591.9219 419.48438 591.9219 420.14062L591.9219 420.64062L587.1875 420.64062L587.1875 419.75L590.84375 419.75L590.84375 419.67188Q590.8125 419.25 590.65625 418.85938Q590.5156 418.45312 590.1875 418.20312Q589.875 417.9375 589.3125 417.9375Q588.9531 417.9375 588.6406 418.09375Q588.3281 418.25 588.09375 418.5625Q587.875 418.85938 587.75 419.29688Q587.6406 419.73438 587.6406 420.3125L587.6406 420.54688Q587.6406 421.0 587.7656 421.40625Q587.8906 421.79688 588.125 422.09375Q588.375 422.39062 588.71875 422.5625Q589.0781 422.73438 589.5156 422.73438Q590.09375 422.73438 590.4844 422.5Q590.8906 422.26562 591.1875 421.875L591.84375 422.39062Q591.6406 422.70312 591.3125 422.98438Q591.0 423.26562 590.53125 423.45312Q590.0781 423.625 589.4531 423.625ZM593.90625 418.51562L593.90625 423.5L592.8281 423.5L592.8281 417.15625L593.8594 417.15625L593.90625 418.51562ZM593.65625 420.09375L593.2031 420.07812Q593.2031 419.42188 593.3906 418.875Q593.5781 418.3125 593.9219 417.90625Q594.2656 417.5 594.7344 417.28125Q595.2031 417.04688 595.78125 417.04688Q596.25 417.04688 596.625 417.17188Q597.0 417.29688 597.2656 417.57812Q597.53125 417.84375 597.6719 418.28125Q597.8125 418.71875 597.8125 419.34375L597.8125 423.5L596.71875 423.5L596.71875 419.32812Q596.71875 418.82812 596.5781 418.53125Q596.4375 418.23438 596.15625 418.09375Q595.875 417.95312 595.4531 417.95312Q595.0469 417.95312 594.71875 418.125Q594.3906 418.29688 594.15625 418.59375Q593.9219 418.89062 593.78125 419.28125Q593.65625 419.65625 593.65625 420.09375Z" fill-rule="nonzero"/><path stroke="#cccccc" stroke-width="1.0" stroke-linecap="butt" d="M372.0 305.0L372.0 507.0" fill-rule="nonzero"/><path fill="#000000" d="M354.67188 536.5781L354.67188 537.5L350.40625 537.5L350.40625 536.5781L354.67188 536.5781ZM350.625 528.96875L350.625 537.5L349.48438 537.5L349.48438 528.96875L350.625 528.96875ZM356.5 531.15625L356.5 537.5L355.42188 537.5L355.42188 531.15625L356.5 531.15625ZM355.32812 529.4844Q355.32812 529.21875 355.48438 529.03125Q355.65625 528.84375 355.96875 528.84375Q356.28125 528.84375 356.4375 529.03125Q356.60938 529.21875 356.60938 529.4844Q356.60938 529.7344 356.4375 529.9219Q356.28125 530.09375 355.96875 530.09375Q355.65625 530.09375 355.48438 529.9219Q355.32812 529.7344 355.32812 529.4844ZM359.40625 532.4219L359.40625 537.5L358.3125 537.5L358.3125 531.15625L359.34375 531.15625L359.40625 532.4219ZM359.1875 534.09375L358.67188 534.0781Q358.6875 533.4219 358.84375 532.875Q359.01562 532.3125 359.32812 531.90625Q359.65625 531.5 360.14062 531.28125Q360.625 531.0469 361.25 531.0469Q361.70312 531.0469 362.07812 531.1719Q362.45312 531.2969 362.71875 531.5625Q363.0 531.8281 363.14062 532.25Q363.29688 532.6719 363.29688 533.28125L363.29688 537.5L362.21875 537.5L362.21875 533.3281Q362.21875 532.8281 362.04688 532.53125Q361.89062 532.2344 361.57812 532.09375Q361.28125 531.9531 360.85938 531.9531Q360.39062 531.9531 360.0625 532.125Q359.73438 532.2969 359.54688 532.59375Q359.35938 532.8906 359.26562 533.28125Q359.1875 533.65625 359.1875 534.09375ZM363.29688 533.4844L362.5625 533.71875Q362.5625 533.1875 362.73438 532.71875Q362.90625 532.2344 363.21875 531.8594Q363.54688 531.4844 364.01562 531.2656Q364.48438 531.0469 365.07812 531.0469Q365.59375 531.0469 365.98438 531.1875Q366.39062 531.3125 366.65625 531.59375Q366.92188 531.875 367.0625 532.3125Q367.20312 532.7344 367.20312 533.3281L367.20312 537.5L366.125 537.5L366.125 533.3281Q366.125 532.78125 365.95312 532.5Q365.78125 532.2031 365.48438 532.0781Q365.1875 531.9531 364.76562 531.9531Q364.40625 531.9531 364.125 532.0781Q363.85938 532.2031 363.67188 532.4219Q363.48438 532.625 363.39062 532.90625Q363.29688 533.1875 363.29688 533.4844ZM369.04688 534.40625L369.04688 534.2656Q369.04688 533.5781 369.23438 533.0Q369.4375 532.40625 369.8125 531.96875Q370.1875 531.53125 370.71875 531.2969Q371.25 531.0469 371.92188 531.0469Q372.57812 531.0469 373.10938 531.2969Q373.65625 531.53125 374.03125 531.96875Q374.40625 532.40625 374.60938 533.0Q374.8125 533.5781 374.8125 534.2656L374.8125 534.40625Q374.8125 535.0781 374.60938 535.6719Q374.40625 536.25 374.03125 536.6875Q373.65625 537.125 373.125 537.375Q372.59375 537.625 371.92188 537.625Q371.26562 537.625 370.71875 537.375Q370.1875 537.125 369.8125 536.6875Q369.4375 536.25 369.23438 535.6719Q369.04688 535.0781 369.04688 534.40625ZM370.125 534.2656L370.125 534.40625Q370.125 534.875 370.23438 535.2969Q370.34375 535.71875 370.5625 536.0469Q370.79688 536.3594 371.14062 536.5469Q371.48438 536.71875 371.92188 536.71875Q372.375 536.71875 372.70312 536.5469Q373.04688 536.3594 373.26562 536.0469Q373.5 535.71875 373.60938 535.2969Q373.71875 534.875 373.71875 534.40625L373.71875 534.2656Q373.71875 533.7969 373.60938 533.375Q373.5 532.9531 373.26562 532.6406Q373.04688 532.3125 372.70312 532.125Q372.375 531.9375 371.92188 531.9375Q371.46875 531.9375 371.125 532.125Q370.79688 532.3125 370.5625 532.6406Q370.34375 532.9531 370.23438 533.375Q370.125 533.7969 370.125 534.2656ZM377.40625 532.5156L377.40625 537.5L376.32812 537.5L376.32812 531.15625L377.35938 531.15625L377.40625 532.5156ZM377.15625 534.09375L376.70312 534.0781Q376.70312 533.4219 376.89062 532.875Q377.07812 532.3125 377.42188 531.90625Q377.76562 531.5 378.23438 531.28125Q378.70312 531.0469 379.28125 531.0469Q379.75 531.0469 380.125 531.1719Q380.5 531.2969 380.76562 531.5781Q381.03125 531.84375 381.17188 532.28125Q381.3125 532.71875 381.3125 533.34375L381.3125 537.5L380.21875 537.5L380.21875 533.3281Q380.21875 532.8281 380.07812 532.53125Q379.9375 532.2344 379.65625 532.09375Q379.375 531.9531 378.95312 531.9531Q378.54688 531.9531 378.21875 532.125Q377.89062 532.2969 377.65625 532.59375Q377.42188 532.8906 377.28125 533.28125Q377.15625 533.65625 377.15625 534.09375ZM385.95312 537.625Q385.29688 537.625 384.75 537.40625Q384.21875 537.1719 383.82812 536.7656Q383.45312 536.34375 383.25 535.78125Q383.04688 535.21875 383.04688 534.5469L383.04688 534.3125Q383.04688 533.53125 383.26562 532.9219Q383.5 532.3125 383.89062 531.8906Q384.28125 531.46875 384.78125 531.2656Q385.28125 531.0469 385.8125 531.0469Q386.5 531.0469 386.98438 531.28125Q387.48438 531.5156 387.79688 531.9375Q388.125 532.34375 388.26562 532.9219Q388.42188 533.4844 388.42188 534.1406L388.42188 534.6406L383.6875 534.6406L383.6875 533.75L387.34375 533.75L387.34375 533.6719Q387.3125 533.25 387.15625 532.8594Q387.01562 532.4531 386.6875 532.2031Q386.375 531.9375 385.8125 531.9375Q385.45312 531.9375 385.14062 532.09375Q384.82812 532.25 384.59375 532.5625Q384.375 532.8594 384.25 533.2969Q384.14062 533.7344 384.14062 534.3125L384.14062 534.5469Q384.14062 535.0 384.26562 535.40625Q384.39062 535.7969 384.625 536.09375Q384.875 536.3906 385.21875 536.5625Q385.57812 536.7344 386.01562 536.7344Q386.59375 536.7344 386.98438 536.5Q387.39062 536.2656 387.6875 535.875L388.34375 536.3906Q388.14062 536.7031 387.8125 536.9844Q387.5 537.2656 387.03125 537.4531Q386.57812 537.625 385.95312 537.625ZM390.40625 532.5156L390.40625 537.5L389.32812 537.5L389.32812 531.15625L390.35938 531.15625L390.40625 532.5156ZM390.15625 534.09375L389.70312 534.0781Q389.70312 533.4219 389.89062 532.875Q390.07812 532.3125 390.42188 531.90625Q390.76562 531.5 391.23438 531.28125Q391.70312 531.0469 392.28125 531.0469Q392.75 531.0469 393.125 531.1719Q393.5 531.2969 393.76562 531.5781Q394.03125 531.84375 394.17188 532.28125Q394.3125 532.71875 394.3125 533.34375L394.3125 537.5L393.21875 537.5L393.21875 533.3281Q393.21875 532.8281 393.07812 532.53125Q392.9375 532.2344 392.65625 532.09375Q392.375 531.9531 391.95312 531.9531Q391.54688 531.9531 391.21875 532.125Q390.89062 532.2969 390.65625 532.59375Q390.42188 532.8906 390.28125 533.28125Q390.15625 533.65625 390.15625 534.09375Z" fill-rule="nonzero"/><path stroke="#cccccc" stroke-width="1.0" stroke-linecap="butt" d="M372.0 305.0L197.0 406.0" fill-rule="nonzero"/><path fill="#000000" d="M152.125 414.96875L152.125 423.5L150.98438 423.5L150.98438 414.96875L152.125 414.96875ZM155.70312 418.8125L155.70312 419.73438L151.875 419.73438L151.875 418.8125L155.70312 418.8125ZM156.28125 414.96875L156.28125 415.89062L151.875 415.89062L151.875 414.96875L156.28125 414.96875ZM161.5625 422.42188L161.5625 419.15625Q161.5625 418.78125 161.40625 418.5Q161.26562 418.21875 160.96875 418.07812Q160.67188 417.92188 160.23438 417.92188Q159.8125 417.92188 159.5 418.0625Q159.20312 418.20312 159.03125 418.4375Q158.85938 418.65625 158.85938 418.92188L157.78125 418.92188Q157.78125 418.57812 157.95312 418.25Q158.125 417.90625 158.45312 417.64062Q158.78125 417.35938 159.25 417.20312Q159.71875 417.04688 160.29688 417.04688Q160.98438 417.04688 161.51562 417.28125Q162.04688 417.51562 162.34375 417.98438Q162.65625 418.45312 162.65625 419.15625L162.65625 422.10938Q162.65625 422.4375 162.70312 422.79688Q162.76562 423.14062 162.875 423.40625L162.875 423.5L161.73438 423.5Q161.65625 423.3125 161.60938 423.0Q161.5625 422.6875 161.5625 422.42188ZM161.75 419.65625L161.76562 420.42188L160.67188 420.42188Q160.20312 420.42188 159.84375 420.5Q159.48438 420.5625 159.23438 420.71875Q158.98438 420.85938 158.85938 421.07812Q158.73438 421.29688 158.73438 421.59375Q158.73438 421.89062 158.85938 422.14062Q159.0 422.375 159.26562 422.53125Q159.54688 422.67188 159.9375 422.67188Q160.4375 422.67188 160.8125 422.46875Q161.20312 422.25 161.42188 421.95312Q161.65625 421.64062 161.67188 421.34375L162.14062 421.875Q162.09375 422.10938 161.90625 422.42188Q161.73438 422.71875 161.42188 423.0Q161.125 423.26562 160.70312 423.45312Q160.29688 423.625 159.78125 423.625Q159.14062 423.625 158.65625 423.375Q158.17188 423.10938 157.90625 422.6875Q157.64062 422.26562 157.64062 421.73438Q157.64062 421.21875 157.82812 420.84375Q158.03125 420.45312 158.40625 420.1875Q158.78125 419.92188 159.3125 419.79688Q159.84375 419.65625 160.5 419.65625L161.75 419.65625ZM165.90625 418.15625L165.90625 423.5L164.82812 423.5L164.82812 417.15625L165.875 417.15625L165.90625 418.15625ZM167.89062 417.125L167.89062 418.125Q167.75 418.10938 167.625 418.09375Q167.51562 418.07812 167.35938 418.07812Q166.98438 418.07812 166.6875 418.20312Q166.40625 418.3125 166.20312 418.53125Q166.01562 418.73438 165.89062 419.03125Q165.78125 419.32812 165.75 419.67188L165.4375 419.84375Q165.4375 419.26562 165.54688 418.76562Q165.67188 418.26562 165.90625 417.875Q166.15625 417.48438 166.51562 417.26562Q166.89062 417.04688 167.40625 417.04688Q167.53125 417.04688 167.67188 417.07812Q167.82812 417.09375 167.89062 417.125ZM169.90625 418.51562L169.90625 423.5L168.82812 423.5L168.82812 417.15625L169.85938 417.15625L169.90625 418.51562ZM169.65625 420.09375L169.20312 420.07812Q169.20312 419.42188 169.39062 418.875Q169.57812 418.3125 169.92188 417.90625Q170.26562 417.5 170.73438 417.28125Q171.20312 417.04688 171.78125 417.04688Q172.25 417.04688 172.625 417.17188Q173.0 417.29688 173.26562 417.57812Q173.53125 417.84375 173.67188 418.28125Q173.8125 418.71875 173.8125 419.34375L173.8125 423.5L172.71875 423.5L172.71875 419.32812Q172.71875 418.82812 172.57812 418.53125Q172.4375 418.23438 172.15625 418.09375Q171.875 417.95312 171.45312 417.95312Q171.04688 417.95312 170.71875 418.125Q170.39062 418.29688 170.15625 418.59375Q169.92188 418.89062 169.78125 419.28125Q169.65625 419.65625 169.65625 420.09375ZM178.45312 423.625Q177.79688 423.625 177.25 423.40625Q176.71875 423.17188 176.32812 422.76562Q175.95312 422.34375 175.75 421.78125Q175.54688 421.21875 175.54688 420.54688L175.54688 420.3125Q175.54688 419.53125 175.76562 418.92188Q176.0 418.3125 176.39062 417.89062Q176.78125 417.46875 177.28125 417.26562Q177.78125 417.04688 178.3125 417.04688Q179.0 417.04688 179.48438 417.28125Q179.98438 417.51562 180.29688 417.9375Q180.625 418.34375 180.76562 418.92188Q180.92188 419.48438 180.92188 420.14062L180.92188 420.64062L176.1875 420.64062L176.1875 419.75L179.84375 419.75L179.84375 419.67188Q179.8125 419.25 179.65625 418.85938Q179.51562 418.45312 179.1875 418.20312Q178.875 417.9375 178.3125 417.9375Q177.95312 417.9375 177.64062 418.09375Q177.32812 418.25 177.09375 418.5625Q176.875 418.85938 176.75 419.29688Q176.64062 419.73438 176.64062 420.3125L176.64062 420.54688Q176.64062 421.0 176.76562 421.40625Q176.89062 421.79688 177.125 422.09375Q177.375 422.39062 177.71875 422.5625Q178.07812 422.73438 178.51562 422.73438Q179.09375 422.73438 179.48438 422.5Q179.89062 422.26562 180.1875 421.875L180.84375 422.39062Q180.64062 422.70312 180.3125 422.98438Q180.0 423.26562 179.53125 423.45312Q179.07812 423.625 178.45312 423.625ZM185.51562 421.8125Q185.51562 421.57812 185.40625 421.375Q185.3125 421.17188 185.0 421.01562Q184.6875 420.84375 184.0625 420.71875Q183.53125 420.60938 183.10938 420.46875Q182.6875 420.3125 182.39062 420.09375Q182.09375 419.875 181.9375 419.57812Q181.78125 419.28125 181.78125 418.89062Q181.78125 418.51562 181.9375 418.1875Q182.10938 417.84375 182.40625 417.59375Q182.71875 417.32812 183.15625 417.1875Q183.59375 417.04688 184.125 417.04688Q184.89062 417.04688 185.42188 417.3125Q185.96875 417.57812 186.25 418.03125Q186.53125 418.48438 186.53125 419.01562L185.45312 419.01562Q185.45312 418.76562 185.29688 418.51562Q185.14062 418.26562 184.84375 418.10938Q184.54688 417.9375 184.125 417.9375Q183.67188 417.9375 183.39062 418.07812Q183.10938 418.20312 182.98438 418.42188Q182.85938 418.625 182.85938 418.85938Q182.85938 419.04688 182.92188 419.1875Q182.98438 419.3125 183.14062 419.4375Q183.29688 419.54688 183.57812 419.65625Q183.875 419.75 184.32812 419.84375Q185.10938 420.01562 185.60938 420.26562Q186.10938 420.51562 186.35938 420.875Q186.60938 421.21875 186.60938 421.73438Q186.60938 422.15625 186.42188 422.5Q186.25 422.84375 185.92188 423.09375Q185.60938 423.34375 185.15625 423.48438Q184.70312 423.625 184.15625 423.625Q183.3125 423.625 182.73438 423.32812Q182.15625 423.01562 181.85938 422.54688Q181.5625 422.0625 181.5625 421.54688L182.64062 421.54688Q182.67188 421.98438 182.90625 422.25Q183.14062 422.51562 183.46875 422.625Q183.8125 422.71875 184.15625 422.71875Q184.59375 422.71875 184.89062 422.60938Q185.20312 422.48438 185.35938 422.28125Q185.51562 422.07812 185.51562 421.8125ZM190.45312 423.625Q189.79688 423.625 189.25 423.40625Q188.71875 423.17188 188.32812 422.76562Q187.95312 422.34375 187.75 421.78125Q187.54688 421.21875 187.54688 420.54688L187.54688 420.3125Q187.54688 419.53125 187.76562 418.92188Q188.0 418.3125 188.39062 417.89062Q188.78125 417.46875 189.28125 417.26562Q189.78125 417.04688 190.3125 417.04688Q191.0 417.04688 191.48438 417.28125Q191.98438 417.51562 192.29688 417.9375Q192.625 418.34375 192.76562 418.92188Q192.92188 419.48438 192.92188 420.14062L192.92188 420.64062L188.1875 420.64062L188.1875 419.75L191.84375 419.75L191.84375 419.67188Q191.8125 419.25 191.65625 418.85938Q191.51562 418.45312 191.1875 418.20312Q190.875 417.9375 190.3125 417.9375Q189.95312 417.9375 189.64062 418.09375Q189.32812 418.25 189.09375 418.5625Q188.875 418.85938 188.75 419.29688Q188.64062 419.73438 188.64062 420.3125L188.64062 420.54688Q188.64062 421.0 188.76562 421.40625Q188.89062 421.79688 189.125 422.09375Q189.375 422.39062 189.71875 422.5625Q190.07812 422.73438 190.51562 422.73438Q191.09375 422.73438 191.48438 422.5Q191.89062 422.26562 192.1875 421.875L192.84375 422.39062Q192.64062 422.70312 192.3125 422.98438Q192.0 423.26562 191.53125 423.45312Q191.07812 423.625 190.45312 423.625ZM194.90625 418.51562L194.90625 423.5L193.82812 423.5L193.82812 417.15625L194.85938 417.15625L194.90625 418.51562ZM194.65625 420.09375L194.20312 420.07812Q194.20312 419.42188 194.39062 418.875Q194.57812 418.3125 194.92188 417.90625Q195.26562 417.5 195.73438 417.28125Q196.20312 417.04688 196.78125 417.04688Q197.25 417.04688 197.625 417.17188Q198.0 417.29688 198.26562 417.57812Q198.53125 417.84375 198.67188 418.28125Q198.8125 418.71875 198.8125 419.34375L198.8125 423.5L197.71875 423.5L197.71875 419.32812Q197.71875 418.82812 197.57812 418.53125Q197.4375 418.23438 197.15625 418.09375Q196.875 417.95312 196.45312 417.95312Q196.04688 417.95312 195.71875 418.125Q195.39062 418.29688 195.15625 418.59375Q194.92188 418.89062 194.78125 419.28125Q194.65625 419.65625 194.65625 420.09375Z" fill-rule="nonzero"/><path stroke="#cccccc" stroke-width="1.0" stroke-linecap="butt" d="M372.0 305.0L197.0 204.0" fill-rule="nonzero"/><path fill="#000000" d="M157.03125 193.34375Q157.03125 193.04688 156.9375 192.8125Q156.85938 192.57812 156.625 192.39062Q156.40625 192.20312 156.0 192.03125Q155.60938 191.85938 155.01562 191.6875Q154.375 191.5 153.85938 191.28125Q153.35938 191.04688 152.98438 190.75Q152.625 190.4375 152.4375 190.0625Q152.25 189.67188 152.25 189.17188Q152.25 188.67188 152.45312 188.25Q152.65625 187.82812 153.03125 187.51562Q153.42188 187.20312 153.95312 187.03125Q154.48438 186.84375 155.14062 186.84375Q156.10938 186.84375 156.78125 187.21875Q157.45312 187.57812 157.79688 188.17188Q158.15625 188.76562 158.15625 189.42188L157.03125 189.42188Q157.03125 188.95312 156.8125 188.57812Q156.60938 188.20312 156.1875 188.0Q155.78125 187.78125 155.14062 187.78125Q154.54688 187.78125 154.14062 187.96875Q153.75 188.14062 153.5625 188.45312Q153.375 188.76562 153.375 189.15625Q153.375 189.42188 153.48438 189.65625Q153.60938 189.875 153.84375 190.0625Q154.09375 190.25 154.46875 190.40625Q154.84375 190.5625 155.375 190.70312Q156.09375 190.90625 156.625 191.17188Q157.15625 191.42188 157.5 191.73438Q157.84375 192.04688 158.0 192.4375Q158.17188 192.82812 158.17188 193.32812Q158.17188 193.85938 157.95312 194.28125Q157.75 194.70312 157.35938 195.0Q156.96875 195.29688 156.42188 195.46875Q155.875 195.625 155.20312 195.625Q154.60938 195.625 154.03125 195.45312Q153.46875 195.28125 153.0 194.95312Q152.53125 194.625 152.25 194.15625Q151.96875 193.67188 151.96875 193.03125L153.09375 193.03125Q153.09375 193.46875 153.26562 193.78125Q153.4375 194.09375 153.73438 194.29688Q154.03125 194.5 154.40625 194.60938Q154.78125 194.70312 155.20312 194.70312Q155.79688 194.70312 156.20312 194.54688Q156.60938 194.375 156.8125 194.07812Q157.03125 193.76562 157.03125 193.34375ZM159.04688 192.40625L159.04688 192.26562Q159.04688 191.57812 159.23438 191.0Q159.4375 190.40625 159.8125 189.96875Q160.1875 189.53125 160.71875 189.29688Q161.25 189.04688 161.92188 189.04688Q162.57812 189.04688 163.10938 189.29688Q163.65625 189.53125 164.03125 189.96875Q164.40625 190.40625 164.60938 191.0Q164.8125 191.57812 164.8125 192.26562L164.8125 192.40625Q164.8125 193.07812 164.60938 193.67188Q164.40625 194.25 164.03125 194.6875Q163.65625 195.125 163.125 195.375Q162.59375 195.625 161.92188 195.625Q161.26562 195.625 160.71875 195.375Q160.1875 195.125 159.8125 194.6875Q159.4375 194.25 159.23438 193.67188Q159.04688 193.07812 159.04688 192.40625ZM160.125 192.26562L160.125 192.40625Q160.125 192.875 160.23438 193.29688Q160.34375 193.71875 160.5625 194.04688Q160.79688 194.35938 161.14062 194.54688Q161.48438 194.71875 161.92188 194.71875Q162.375 194.71875 162.70312 194.54688Q163.04688 194.35938 163.26562 194.04688Q163.5 193.71875 163.60938 193.29688Q163.71875 192.875 163.71875 192.40625L163.71875 192.26562Q163.71875 191.79688 163.60938 191.375Q163.5 190.95312 163.26562 190.64062Q163.04688 190.3125 162.70312 190.125Q162.375 189.9375 161.92188 189.9375Q161.46875 189.9375 161.125 190.125Q160.79688 190.3125 160.5625 190.64062Q160.34375 190.95312 160.23438 191.375Q160.125 191.79688 160.125 192.26562ZM167.40625 190.51562L167.40625 195.5L166.32812 195.5L166.32812 189.15625L167.35938 189.15625L167.40625 190.51562ZM167.15625 192.09375L166.70312 192.07812Q166.70312 191.42188 166.89062 190.875Q167.07812 190.3125 167.42188 189.90625Q167.76562 189.5 168.23438 189.28125Q168.70312 189.04688 169.28125 189.04688Q169.75 189.04688 170.125 189.17188Q170.5 189.29688 170.76562 189.57812Q171.03125 189.84375 171.17188 190.28125Q171.3125 190.71875 171.3125 191.34375L171.3125 195.5L170.21875 195.5L170.21875 191.32812Q170.21875 190.82812 170.07812 190.53125Q169.9375 190.23438 169.65625 190.09375Q169.375 189.95312 168.95312 189.95312Q168.54688 189.95312 168.21875 190.125Q167.89062 190.29688 167.65625 190.59375Q167.42188 190.89062 167.28125 191.28125Q167.15625 191.65625 167.15625 192.09375ZM177.01562 193.8125Q177.01562 193.57812 176.90625 193.375Q176.8125 193.17188 176.5 193.01562Q176.1875 192.84375 175.5625 192.71875Q175.03125 192.60938 174.60938 192.46875Q174.1875 192.3125 173.89062 192.09375Q173.59375 191.875 173.4375 191.57812Q173.28125 191.28125 173.28125 190.89062Q173.28125 190.51562 173.4375 190.1875Q173.60938 189.84375 173.90625 189.59375Q174.21875 189.32812 174.65625 189.1875Q175.09375 189.04688 175.625 189.04688Q176.39062 189.04688 176.92188 189.3125Q177.46875 189.57812 177.75 190.03125Q178.03125 190.48438 178.03125 191.01562L176.95312 191.01562Q176.95312 190.76562 176.79688 190.51562Q176.64062 190.26562 176.34375 190.10938Q176.04688 189.9375 175.625 189.9375Q175.17188 189.9375 174.89062 190.07812Q174.60938 190.20312 174.48438 190.42188Q174.35938 190.625 174.35938 190.85938Q174.35938 191.04688 174.42188 191.1875Q174.48438 191.3125 174.64062 191.4375Q174.79688 191.54688 175.07812 191.65625Q175.375 191.75 175.82812 191.84375Q176.60938 192.01562 177.10938 192.26562Q177.60938 192.51562 177.85938 192.875Q178.10938 193.21875 178.10938 193.73438Q178.10938 194.15625 177.92188 194.5Q177.75 194.84375 177.42188 195.09375Q177.10938 195.34375 176.65625 195.48438Q176.20312 195.625 175.65625 195.625Q174.8125 195.625 174.23438 195.32812Q173.65625 195.01562 173.35938 194.54688Q173.0625 194.0625 173.0625 193.54688L174.14062 193.54688Q174.17188 193.98438 174.40625 194.25Q174.64062 194.51562 174.96875 194.625Q175.3125 194.71875 175.65625 194.71875Q176.09375 194.71875 176.39062 194.60938Q176.70312 194.48438 176.85938 194.28125Q177.01562 194.07812 177.01562 193.8125ZM181.98438 189.15625L181.98438 189.98438L178.54688 189.98438L178.54688 189.15625L181.98438 189.15625ZM179.71875 187.625L180.79688 187.625L180.79688 193.92188Q180.79688 194.25 180.89062 194.42188Q181.0 194.57812 181.15625 194.64062Q181.3125 194.6875 181.5 194.6875Q181.625 194.6875 181.76562 194.65625Q181.92188 194.625 182.0 194.60938L182.01562 195.5Q181.875 195.54688 181.67188 195.57812Q181.46875 195.625 181.17188 195.625Q180.78125 195.625 180.4375 195.46875Q180.10938 195.29688 179.90625 194.9375Q179.71875 194.5625 179.71875 193.92188L179.71875 187.625ZM184.5 189.15625L184.5 195.5L183.42188 195.5L183.42188 189.15625L184.5 189.15625ZM183.32812 187.48438Q183.32812 187.21875 183.48438 187.03125Q183.65625 186.84375 183.96875 186.84375Q184.28125 186.84375 184.4375 187.03125Q184.60938 187.21875 184.60938 187.48438Q184.60938 187.73438 184.4375 187.92188Q184.28125 188.09375 183.96875 188.09375Q183.65625 188.09375 183.48438 187.92188Q183.32812 187.73438 183.32812 187.48438ZM190.4375 189.15625L191.42188 189.15625L191.42188 195.35938Q191.42188 196.20312 191.07812 196.79688Q190.73438 197.39062 190.125 197.6875Q189.53125 198.0 188.73438 198.0Q188.40625 198.0 187.95312 197.89062Q187.51562 197.79688 187.09375 197.54688Q186.67188 197.3125 186.39062 196.90625L186.95312 196.25Q187.35938 196.73438 187.78125 196.92188Q188.21875 197.10938 188.65625 197.10938Q189.17188 197.10938 189.54688 196.90625Q189.92188 196.71875 190.125 196.34375Q190.32812 195.96875 190.32812 195.42188L190.32812 190.54688L190.4375 189.15625ZM186.0625 192.40625L186.0625 192.28125Q186.0625 191.54688 186.23438 190.95312Q186.42188 190.35938 186.73438 189.9375Q187.0625 189.5 187.51562 189.28125Q187.98438 189.04688 188.57812 189.04688Q189.17188 189.04688 189.60938 189.25Q190.0625 189.45312 190.375 189.85938Q190.6875 190.25 190.875 190.8125Q191.0625 191.35938 191.125 192.0625L191.125 192.60938Q191.0625 193.29688 190.875 193.85938Q190.6875 194.42188 190.375 194.8125Q190.0625 195.20312 189.60938 195.42188Q189.15625 195.625 188.5625 195.625Q187.98438 195.625 187.53125 195.39062Q187.07812 195.14062 186.75 194.70312Q186.42188 194.26562 186.23438 193.6875Q186.0625 193.09375 186.0625 192.40625ZM187.15625 192.28125L187.15625 192.40625Q187.15625 192.875 187.25 193.29688Q187.34375 193.70312 187.54688 194.03125Q187.75 194.34375 188.0625 194.53125Q188.39062 194.70312 188.82812 194.70312Q189.35938 194.70312 189.70312 194.46875Q190.0625 194.23438 190.26562 193.85938Q190.48438 193.48438 190.59375 193.04688L190.59375 191.64062Q190.53125 191.3125 190.39062 191.01562Q190.26562 190.71875 190.0625 190.48438Q189.85938 190.23438 189.54688 190.09375Q189.25 189.95312 188.82812 189.95312Q188.39062 189.95312 188.0625 190.14062Q187.75 190.32812 187.54688 190.65625Q187.34375 190.96875 187.25 191.39062Q187.15625 191.79688 187.15625 192.28125ZM195.95312 195.625Q195.29688 195.625 194.75 195.40625Q194.21875 195.17188 193.82812 194.76562Q193.45312 194.34375 193.25 193.78125Q193.04688 193.21875 193.04688 192.54688L193.04688 192.3125Q193.04688 191.53125 193.26562 190.92188Q193.5 190.3125 193.89062 189.89062Q194.28125 189.46875 194.78125 189.26562Q195.28125 189.04688 195.8125 189.04688Q196.5 189.04688 196.98438 189.28125Q197.48438 189.51562 197.79688 189.9375Q198.125 190.34375 198.26562 190.92188Q198.42188 191.48438 198.42188 192.14062L198.42188 192.64062L193.6875 192.64062L193.6875 191.75L197.34375 191.75L197.34375 191.67188Q197.3125 191.25 197.15625 190.85938Q197.01562 190.45312 196.6875 190.20312Q196.375 189.9375 195.8125 189.9375Q195.45312 189.9375 195.14062 190.09375Q194.82812 190.25 194.59375 190.5625Q194.375 190.85938 194.25 191.29688Q194.14062 191.73438 194.14062 192.3125L194.14062 192.54688Q194.14062 193.0 194.26562 193.40625Q194.39062 193.79688 194.625 194.09375Q194.875 194.39062 195.21875 194.5625Q195.57812 194.73438 196.01562 194.73438Q196.59375 194.73438 196.98438 194.5Q197.39062 194.26562 197.6875 193.875L198.34375 194.39062Q198.14062 194.70312 197.8125 194.98438Q197.5 195.26562 197.03125 195.45312Q196.57812 195.625 195.95312 195.625Z" fill-rule="nonzero"/><path stroke="#cccccc" stroke-width="1.0" stroke-linecap="butt" d="M372.0 305.0L372.0 103.0" fill-rule="nonzero"/><path stroke="#ff0000" stroke-width="2.0" stroke-linecap="butt" stroke-opacity="0.7019608" stroke-dasharray="8.0,6.0,2.0,6.0" d="M372.0 63.0L433.0 270.0L416.0 330.0L372.0 345.0L346.0 320.0L324.0 277.0Z" fill-rule="nonzero"/><path fill="#ff0000" fill-opacity="0.7019608" d="M368.81802 59.81802L372.0 61.875L375.18198 59.81802L373.125 63.0L375.18198 66.181984L372.0 64.125L368.81802 66.181984L370.875 63.0Z" fill-rule="nonzero"/><path fill="#ff0000" fill-opacity="0.7019608" d="M429.81802 266.81802L433.0 268.875L436.18198 266.81802L434.125 270.0L436.18198 273.18198L433.0 271.125L429.81802 273.18198L431.875 270.0Z" fill-rule="nonzero"/><path fill="#ff0000" fill-opacity="0.7019608" d="M412.81802 326.81802L416.0 328.875L419.18198 326.81802L417.125 330.0L419.18198 333.18198L416.0 331.125L412.81802 333.18198L414.875 330.0Z" fill-rule="nonzero"/><path fill="#ff0000" fill-opacity="0.7019608" d="M368.81802 341.81802L372.0 343.875L375.18198 341.81802L373.125 345.0L375.18198 348.18198L372.0 346.125L368.81802 348.18198L370.875 345.0Z" fill-rule="nonzero"/><path fill="#ff0000" fill-opacity="0.7019608" d="M342.81802 316.81802L346.0 318.875L349.18198 316.81802L347.125 320.0L349.18198 323.18198L346.0 321.125L342.81802 323.18198L344.875 320.0Z" fill-rule="nonzero"/><path fill="#ff0000" fill-opacity="0.7019608" d="M320.81802 273.81802L324.0 275.875L327.18198 273.81802L325.125 277.0L327.18198 280.18198L324.0 278.125L320.81802 280.18198L322.875 277.0Z" fill-rule="nonzero"/><path fill="#757575" d="M29.834375 47.35L29.834375 33.0375L32.69375 33.0375L36.06875 43.1625Q36.5375 44.584373 36.75625 45.2875Q37.00625 44.50625 37.521873 42.990623L40.94375 33.0375L43.490623 33.0375L43.490623 47.35L41.678123 47.35L41.678123 35.365623L37.50625 47.35L35.803123 47.35L31.6625 35.1625L31.6625 47.35L29.834375 47.35ZM46.021873 42.1625Q46.021873 39.2875 47.615623 37.896873Q48.959373 36.740623 50.88125 36.740623Q53.021873 36.740623 54.365623 38.146873Q55.725 39.553123 55.725 42.021873Q55.725 44.021873 55.13125 45.178123Q54.5375 46.31875 53.38125 46.959373Q52.240623 47.584373 50.88125 47.584373Q48.69375 47.584373 47.35 46.19375Q46.021873 44.7875 46.021873 42.1625ZM47.81875 42.1625Q47.81875 44.1625 48.678123 45.146873Q49.553123 46.13125 50.88125 46.13125Q52.19375 46.13125 53.053123 45.146873Q53.928123 44.146873 53.928123 42.1Q53.928123 40.178123 53.053123 39.19375Q52.178123 38.19375 50.88125 38.19375Q49.553123 38.19375 48.678123 39.19375Q47.81875 40.178123 47.81875 42.1625ZM64.39687 47.35L64.39687 46.0375Q63.4125 47.584373 61.490623 47.584373Q60.25625 47.584373 59.209373 46.896873Q58.178123 46.209373 57.6 44.990623Q57.0375 43.771873 57.0375 42.178123Q57.0375 40.615623 57.553123 39.35Q58.06875 38.084373 59.1 37.4125Q60.146873 36.740623 61.4125 36.740623Q62.35 36.740623 63.084373 37.146873Q63.81875 37.5375 64.2875 38.1625L64.2875 33.0375L66.02187 33.0375L66.02187 47.35L64.39687 47.35ZM58.834373 42.178123Q58.834373 44.1625 59.678123 45.146873Q60.521873 46.13125 61.6625 46.13125Q62.81875 46.13125 63.615623 45.19375Q64.42812 44.25625 64.42812 42.31875Q64.42812 40.19375 63.6 39.19375Q62.7875 38.19375 61.584373 38.19375Q60.4125 38.19375 59.615623 39.1625Q58.834373 40.115623 58.834373 42.178123ZM68.67812 35.053123L68.67812 33.0375L70.44375 33.0375L70.44375 35.053123L68.67812 35.053123ZM68.67812 47.35L68.67812 36.975L70.44375 36.975L70.44375 47.35L68.67812 47.35ZM73.08437 47.35L73.08437 38.35L71.5375 38.35L71.5375 36.975L73.08437 36.975L73.08437 35.88125Q73.08437 34.834373 73.27187 34.31875Q73.52187 33.63125 74.1625 33.209373Q74.80312 32.7875 75.95937 32.7875Q76.70937 32.7875 77.6 32.959373L77.33437 34.490623Q76.7875 34.396873 76.30312 34.396873Q75.50625 34.396873 75.1625 34.740623Q74.83437 35.084373 74.83437 36.021873L74.83437 36.975L76.86562 36.975L76.86562 38.35L74.83437 38.35L74.83437 47.35L73.08437 47.35ZM78.67812 35.053123L78.67812 33.0375L80.44375 33.0375L80.44375 35.053123L78.67812 35.053123ZM78.67812 47.35L78.67812 36.975L80.44375 36.975L80.44375 47.35L78.67812 47.35ZM89.77187 44.00625L91.58437 44.240623Q91.1625 45.81875 89.99062 46.709373Q88.83437 47.584373 87.02187 47.584373Q84.75625 47.584373 83.4125 46.19375Q82.08437 44.7875 82.08437 42.25625Q82.08437 39.63125 83.42812 38.19375Q84.77187 36.740623 86.92812 36.740623Q89.00625 36.740623 90.31875 38.1625Q91.64687 39.56875 91.64687 42.146873Q91.64687 42.303123 91.63125 42.615623L83.89687 42.615623Q83.99062 44.31875 84.86562 45.225Q85.74062 46.13125 87.0375 46.13125Q88.00625 46.13125 88.67812 45.63125Q89.36562 45.115623 89.77187 44.00625ZM83.99062 41.1625L89.7875 41.1625Q89.67812 39.865623 89.13125 39.209373Q88.2875 38.19375 86.94375 38.19375Q85.74062 38.19375 84.9125 39.00625Q84.08437 39.803123 83.99062 41.1625ZM100.39687 47.35L100.39687 46.0375Q99.4125 47.584373 97.49062 47.584373Q96.25625 47.584373 95.20937 46.896873Q94.17812 46.209373 93.6 44.990623Q93.0375 43.771873 93.0375 42.178123Q93.0375 40.615623 93.55312 39.35Q94.06875 38.084373 95.1 37.4125Q96.14687 36.740623 97.4125 36.740623Q98.35 36.740623 99.08437 37.146873Q99.81875 37.5375 100.2875 38.1625L100.2875 33.0375L102.02187 33.0375L102.02187 47.35L100.39687 47.35ZM94.83437 42.178123Q94.83437 44.1625 95.67812 45.146873Q96.52187 46.13125 97.6625 46.13125Q98.81875 46.13125 99.61562 45.19375Q100.42812 44.25625 100.42812 42.31875Q100.42812 40.19375 99.6 39.19375Q98.7875 38.19375 97.58437 38.19375Q96.4125 38.19375 95.61562 39.1625Q94.83437 40.115623 94.83437 42.178123ZM117.6 41.740623L117.6 40.053123L123.6625 40.0375L123.6625 45.35Q122.25625 46.475 120.77187 47.0375Q119.2875 47.6 117.725 47.6Q115.61562 47.6 113.89687 46.69375Q112.17812 45.7875 111.2875 44.084373Q110.4125 42.365623 110.4125 40.25625Q110.4125 38.1625 111.2875 36.365623Q112.1625 34.553123 113.80312 33.678123Q115.44375 32.7875 117.58437 32.7875Q119.13125 32.7875 120.38125 33.2875Q121.64687 33.7875 122.35 34.69375Q123.06875 35.584373 123.44375 37.0375L121.74062 37.50625Q121.4125 36.4125 120.92812 35.7875Q120.45937 35.1625 119.56875 34.7875Q118.67812 34.4125 117.6 34.4125Q116.2875 34.4125 115.33437 34.803123Q114.39687 35.19375 113.81875 35.85Q113.24062 36.490623 112.9125 37.25625Q112.36562 38.584373 112.36562 40.146873Q112.36562 42.053123 113.02187 43.35Q113.69375 44.63125 114.94375 45.25625Q116.20937 45.88125 117.61562 45.88125Q118.85 45.88125 120.02187 45.4125Q121.19375 44.94375 121.80312 44.396873L121.80312 41.740623L117.6 41.740623ZM126.64687 47.35L126.64687 36.975L128.225 36.975L128.225 38.553123Q128.83438 37.44375 129.35 37.1Q129.86563 36.740623 130.475 36.740623Q131.36563 36.740623 132.2875 37.303123L131.67813 38.94375Q131.0375 38.553123 130.39688 38.553123Q129.81876 38.553123 129.35 38.9125Q128.89688 39.25625 128.69376 39.865623Q128.4125 40.803123 128.4125 41.9125L128.4125 47.35L126.64687 47.35ZM140.44376 46.06875Q139.45938 46.896873 138.55313 47.240623Q137.64688 47.584373 136.61563 47.584373Q134.9125 47.584373 133.99063 46.75625Q133.06876 45.9125 133.06876 44.615623Q133.06876 43.85 133.4125 43.225Q133.77188 42.6 134.33438 42.225Q134.89688 41.834373 135.6 41.63125Q136.11563 41.50625 137.1625 41.365623Q139.2875 41.115623 140.2875 40.771873Q140.30313 40.4125 140.30313 40.303123Q140.30313 39.240623 139.80313 38.7875Q139.13126 38.19375 137.80313 38.19375Q136.55313 38.19375 135.95938 38.63125Q135.38126 39.06875 135.1 40.178123L133.38126 39.94375Q133.61563 38.834373 134.14688 38.1625Q134.67813 37.475 135.69376 37.115623Q136.70938 36.740623 138.05313 36.740623Q139.38126 36.740623 140.20938 37.053123Q141.0375 37.365623 141.42813 37.85Q141.81876 38.31875 141.975 39.0375Q142.06876 39.490623 142.06876 40.6625L142.06876 43.00625Q142.06876 45.459373 142.17813 46.115623Q142.2875 46.75625 142.63126 47.35L140.7875 47.35Q140.52188 46.803123 140.44376 46.06875ZM140.2875 42.146873Q139.33438 42.5375 137.4125 42.803123Q136.33438 42.959373 135.88126 43.1625Q135.44376 43.35 135.19376 43.725Q134.94376 44.1 134.94376 44.56875Q134.94376 45.271873 135.475 45.740623Q136.00626 46.209373 137.0375 46.209373Q138.05313 46.209373 138.83438 45.771873Q139.63126 45.31875 140.00626 44.553123Q140.2875 43.94375 140.2875 42.7875L140.2875 42.146873ZM144.6625 51.31875L144.6625 36.975L146.27188 36.975L146.27188 38.31875Q146.83438 37.5375 147.5375 37.146873Q148.25626 36.740623 149.27188 36.740623Q150.6 36.740623 151.61563 37.428123Q152.63126 38.115623 153.14688 39.365623Q153.67813 40.6 153.67813 42.084373Q153.67813 43.678123 153.1 44.959373Q152.5375 46.225 151.44376 46.9125Q150.35 47.584373 149.14688 47.584373Q148.27188 47.584373 147.56876 47.209373Q146.88126 46.834373 146.42813 46.271873L146.42813 51.31875L144.6625 51.31875ZM146.25626 42.225Q146.25626 44.225 147.06876 45.178123Q147.88126 46.13125 149.0375 46.13125Q150.20938 46.13125 151.0375 45.146873Q151.88126 44.1625 151.88126 42.06875Q151.88126 40.1 151.05313 39.115623Q150.24063 38.115623 149.11563 38.115623Q147.99063 38.115623 147.11563 39.178123Q146.25626 40.225 146.25626 42.225ZM162.77188 44.00625L164.58438 44.240623Q164.1625 45.81875 162.99063 46.709373Q161.83438 47.584373 160.02188 47.584373Q157.75626 47.584373 156.4125 46.19375Q155.08438 44.7875 155.08438 42.25625Q155.08438 39.63125 156.42813 38.19375Q157.77188 36.740623 159.92813 36.740623Q162.00626 36.740623 163.31876 38.1625Q164.64688 39.56875 164.64688 42.146873Q164.64688 42.303123 164.63126 42.615623L156.89688 42.615623Q156.99063 44.31875 157.86563 45.225Q158.74063 46.13125 160.0375 46.13125Q161.00626 46.13125 161.67813 45.63125Q162.36563 45.115623 162.77188 44.00625ZM156.99063 41.1625L162.7875 41.1625Q162.67813 39.865623 162.13126 39.209373Q161.2875 38.19375 159.94376 38.19375Q158.74063 38.19375 157.9125 39.00625Q157.08438 39.803123 156.99063 41.1625ZM165.95938 44.25625L167.70938 43.975Q167.85 45.021873 168.52188 45.584373Q169.19376 46.13125 170.39688 46.13125Q171.6 46.13125 172.17813 45.646873Q172.77188 45.146873 172.77188 44.490623Q172.77188 43.896873 172.25626 43.553123Q171.89688 43.31875 170.45938 42.959373Q168.52188 42.459373 167.77188 42.115623Q167.0375 41.75625 166.64688 41.13125Q166.25626 40.490623 166.25626 39.725Q166.25626 39.0375 166.56876 38.44375Q166.89688 37.85 167.44376 37.459373Q167.85 37.1625 168.55313 36.959373Q169.27188 36.740623 170.08438 36.740623Q171.30313 36.740623 172.225 37.1Q173.14688 37.44375 173.58438 38.053123Q174.02188 38.646873 174.19376 39.646873L172.475 39.88125Q172.35 39.084373 171.7875 38.646873Q171.225 38.19375 170.20938 38.19375Q168.99063 38.19375 168.475 38.6Q167.95938 38.990623 167.95938 39.521873Q167.95938 39.865623 168.17813 40.146873Q168.38126 40.428123 168.85 40.615623Q169.11563 40.709373 170.39688 41.053123Q172.27188 41.553123 173.00626 41.88125Q173.74063 42.19375 174.1625 42.803123Q174.58438 43.396873 174.58438 44.303123Q174.58438 45.178123 174.06876 45.959373Q173.55313 46.740623 172.58438 47.1625Q171.61563 47.584373 170.39688 47.584373Q168.38126 47.584373 167.31876 46.740623Q166.25626 45.896873 165.95938 44.25625Z" fill-rule="nonzero"/></svg>