<svg version="1.1" viewBox="0.0 0.0 744.0 567.0" fill="none" stroke="none" stroke-linecap="square" stroke-miterlimit="10" width="744" height="567" xmlns:xlink="http://www.w3.org/1999/xlink" xmlns="http://www.w3.org/2000/svg"><path fill="#ffffff" d="M0 0L744.0 0L744.0 567.0L0 567.0L0 0Z" fill-rule="nonzero"/><path fill="#ffffff" d="M28.35 71.25L715.64996 71.25L715.64996 538.65L28.35 538.65L28.35 71.25Z" fill-rule="nonzero"/><path stroke="#cccccc" stroke-width="1.0" stroke-linecap="butt" d="M372.0 305.0C372.0 305.0 372.0 305.0 372.0 305.0C372.0 305.0 372.0 305.0 372.0 305.0C372.0 305.0 372.0 305.0 372.0 305.0C372.0 305.0 372.0 305.0 372.0 305.0" fill-rule="nonzero"/><path fill="#000000" d="M360.0625 297.04688L360.0625 298.35938Q360.0625 299.40625 359.875 300.125Q359.6875 300.84375 359.32812 301.28125Q358.98438 301.71875 358.48438 301.92188Q358.0 302.125 357.375 302.125Q356.89062 302.125 356.46875 302.0Q356.04688 301.875 355.71875 301.60938Q355.39062 301.32812 355.15625 300.89062Q354.92188 300.45312 354.79688 299.82812Q354.67188 299.1875 354.67188 298.35938L354.67188 297.04688Q354.67188 296.0 354.85938 295.29688Q355.0625 294.59375 355.40625 294.15625Q355.76562 293.71875 356.25 293.53125Q356.75 293.34375 357.35938 293.34375Q357.85938 293.34375 358.28125 293.46875Q358.70312 293.59375 359.03125 293.85938Q359.35938 294.10938 359.57812 294.54688Q359.8125 294.96875 359.9375 295.59375Q360.0625 296.21875 360.0625 297.04688ZM358.96875 298.53125L358.96875 296.875Q358.96875 296.29688 358.90625 295.85938Q358.84375 295.42188 358.70312 295.10938Q358.57812 294.79688 358.375 294.60938Q358.1875 294.42188 357.9375 294.32812Q357.6875 294.23438 357.35938 294.23438Q356.98438 294.23438 356.67188 294.375Q356.375 294.51562 356.17188 294.82812Q355.96875 295.14062 355.85938 295.65625Q355.76562 296.15625 355.76562 296.875L355.76562 298.53125Q355.76562 299.10938 355.82812 299.54688Q355.90625 299.98438 356.03125 300.3125Q356.17188 300.625 356.35938 300.82812Q356.5625 301.03125 356.8125 301.125Q357.0625 301.21875 357.375 301.21875Q357.78125 301.21875 358.07812 301.07812Q358.375 300.92188 358.57812 300.59375Q358.78125 300.26562 358.875 299.76562Q358.96875 299.25 358.96875 298.53125ZM362.8125 300.70312L362.8125 301.57812Q362.8125 302.125 362.53125 302.71875Q362.26562 303.3125 361.78125 303.70312L361.17188 303.28125Q361.35938 303.01562 361.48438 302.75Q361.60938 302.48438 361.67188 302.20312Q361.75 301.92188 361.75 301.59375L361.75 300.70312L362.8125 300.70312ZM369.0625 297.04688L369.0625 298.35938Q369.0625 299.40625 368.875 300.125Q368.6875 300.84375 368.32812 301.28125Q367.98438 301.71875 367.48438 301.92188Q367.0 302.125 366.375 302.125Q365.89062 302.125 365.46875 302.0Q365.04688 301.875 364.71875 301.60938Q364.39062 301.32812 364.15625 300.89062Q363.92188 300.45312 363.79688 299.82812Q363.67188 299.1875 363.67188 298.35938L363.67188 297.04688Q363.67188 296.0 363.85938 295.29688Q364.0625 294.59375 364.40625 294.15625Q364.76562 293.71875 365.25 293.53125Q365.75 293.34375 366.35938 293.34375Q366.85938 293.34375 367.28125 293.46875Q367.70312 293.59375 368.03125 293.85938Q368.35938 294.10938 368.57812 294.54688Q368.8125 294.96875 368.9375 295.59375Q369.0625 296.21875 369.0625 297.04688ZM367.96875 298.53125L367.96875 296.875Q367.96875 296.29688 367.90625 295.85938Q367.84375 295.42188 367.70312 295.10938Q367.57812 294.79688 367.375 294.60938Q367.1875 294.42188 366.9375 294.32812Q366.6875 294.23438 366.35938 294.23438Q365.98438 294.23438 365.67188 294.375Q365.375 294.51562 365.17188 294.82812Q364.96875 295.14062 364.85938 295.65625Q364.76562 296.15625 364.76562 296.875L364.76562 298.53125Q364.76562 299.10938 364.82812 299.54688Q364.90625 299.98438 365.03125 300.3125Q365.17188 300.625 365.35938 300.82812Q365.5625 301.03125 365.8125 301.125Q366.0625 301.21875 366.375 301.21875Q366.78125 301.21875 367.07812 301.07812Q367.375 300.92188 367.57812 300.59375Q367.78125 300.26562 367.875 299.76562Q367.96875 299.25 367.96875 298.53125Z" fill-rule="nonzero"/><path stroke="#cccccc" stroke-width="1.0" stroke-linecap="butt" d="M422.425 305.0C422.425 277.15103 399.84897 254.575 372.0 254.575C344.15103 254.575 321.575 277.15103 321.575 305.0C321.575 332.84897 344.15103 355.425 372.0 355.425C399.84897 355.425 422.425 332.84897 422.425 305.0" fill-rule="nonzero"/><path fill="#000000" d="M360.0625 246.62187L360.0625 247.93437Q360.0625 248.98125 359.875 249.7Q359.6875 250.41875 359.32812 250.85625Q358.98438 251.29375 358.48438 251.49687Q358.0 251.7 357.375 251.7Q356.89062 251.7 356.46875 251.575Q356.04688 251.45 355.71875 251.18437Q355.39062 250.90312 355.15625 250.46562Q354.92188 250.02812 354.79688 249.40312Q354.67188 248.7625 354.67188 247.93437L354.67188 246.62187Q354.67188 245.575 354.85938 244.87187Q355.0625 244.16875 355.40625 243.73125Q355.76562 243.29375 356.25 243.10625Q356.75 242.91875 357.35938 242.91875Q357.85938 242.91875 358.28125 243.04375Q358.70312 243.16875 359.03125 243.43437Q359.35938 243.68437 359.57812 244.12187Q359.8125 244.54375 359.9375 245.16875Q360.0625 245.79375 360.0625 246.62187ZM358.96875 248.10625L358.96875 246.45Q358.96875 245.87187 358.90625 245.43437Q358.84375 244.99687 358.70312 244.68437Q358.57812 244.37187 358.375 244.18437Q358.1875 243.99687 357.9375 243.90312Q357.6875 243.80937 357.35938 243.80937Q356.98438 243.80937 356.67188 243.95Q356.375 244.09062 356.17188 244.40312Q355.96875 244.71562 355.85938 245.23125Q355.76562 245.73125 355.76562 246.45L355.76562 248.10625Q355.76562 248.68437 355.82812 249.12187Q355.90625 249.55937 356.03125 249.8875Q356.17188 250.2 356.35938 250.40312Q356.5625 250.60625 356.8125 250.7Q357.0625 250.79375 357.375 250.79375Q357.78125 250.79375 358.07812 250.65312Q358.375 250.49687 358.57812 250.16875Q358.78125 249.84062 358.875 249.34062Q358.96875 248.825 358.96875 248.10625ZM362.8125 250.27812L362.8125 251.15312Q362.8125 251.7 362.53125 252.29375Q362.26562 252.8875 361.78125 253.27812L361.17188 252.85625Q361.35938 252.59062 361.48438 252.325Q361.60938 252.05937 361.67188 251.77812Q361.75 251.49687 361.75 251.16875L361.75 250.27812L362.8125 250.27812ZM367.26562 242.99687L367.26562 251.575L366.1875 251.575L366.1875 244.35625L364.0 245.15312L364.0 244.16875L367.10938 242.99687L367.26562 242.99687Z" fill-rule="nonzero"/><path stroke="#cccccc" stroke-width="1.0" stroke-linecap="butt" d="M472.85 305.0C472.85 249.30208 427.6979 204.15 372.0 204.15C316.3021 204.15 271.15 249.30208 271.15 305.0C271.15 360.6979 316.3021 405.85 372.0 405.85C427.6979 405.85 472.85 360.6979 472.85 305.0" fill-rule="nonzero"/><path fill="#000000" d="M360.0625 196.19687L360.0625 197.50937Q360.0625 198.55624 359.875 199.275Q359.6875 199.99374 359.32812 200.43124Q358.98438 200.86874 358.48438 201.07187Q358.0 201.275 357.375 201.275Q356.89062 201.275 356.46875 201.15Q356.04688 201.025 355.71875 200.75937Q355.39062 200.47812 355.15625 200.04062Q354.92188 199.60312 354.79688 198.97812Q354.67188 198.3375 354.67188 197.50937L354.67188 196.19687Q354.67188 195.15 354.85938 194.44687Q355.0625 193.74374 355.40625 193.30624Q355.76562 192.86874 356.25 192.68124Q356.75 192.49374 357.35938 192.49374Q357.85938 192.49374 358.28125 192.61874Q358.70312 192.74374 359.03125 193.00937Q359.35938 193.25937 359.57812 193.69687Q359.8125 194.11874 359.9375 194.74374Q360.0625 195.36874 360.0625 196.19687ZM358.96875 197.68124L358.96875 196.025Q358.96875 195.44687 358.90625 195.00937Q358.84375 194.57187 358.70312 194.25937Q358.57812 193.94687 358.375 193.75937Q358.1875 193.57187 357.9375 193.47812Q357.6875 193.38437 357.35938 193.38437Q356.98438 193.38437 356.67188 193.525Q356.375 193.66562 356.17188 193.97812Q355.96875 194.29062 355.85938 194.80624Q355.76562 195.30624 355.76562 196.025L355.76562 197.68124Q355.76562 198.25937 355.82812 198.69687Q355.90625 199.13437 356.03125 199.4625Q356.17188 199.775 356.35938 199.97812Q356.5625 200.18124 356.8125 200.275Q357.0625 200.36874 357.375 200.36874Q357.78125 200.36874 358.07812 200.22812Q358.375 200.07187 358.57812 199.74374Q358.78125 199.41562 358.875 198.91562Q358.96875 198.4 358.96875 197.68124ZM362.8125 199.85312L362.8125 200.72812Q362.8125 201.275 362.53125 201.86874Q362.26562 202.4625 361.78125 202.85312L361.17188 202.43124Q361.35938 202.16562 361.48438 201.9Q361.60938 201.63437 361.67188 201.35312Q361.75 201.07187 361.75 200.74374L361.75 199.85312L362.8125 199.85312ZM369.29688 200.25937L369.29688 201.15L363.71875 201.15L363.71875 200.36874L366.51562 197.25937Q367.03125 196.68124 367.3125 196.29062Q367.59375 195.88437 367.70312 195.57187Q367.82812 195.24374 367.82812 194.91562Q367.82812 194.49374 367.65625 194.15Q367.48438 193.80624 367.14062 193.60312Q366.8125 193.38437 366.32812 193.38437Q365.76562 193.38437 365.39062 193.61874Q365.01562 193.8375 364.82812 194.22812Q364.64062 194.61874 364.64062 195.11874L363.54688 195.11874Q363.54688 194.4 363.85938 193.80624Q364.1875 193.2125 364.79688 192.85312Q365.42188 192.49374 366.32812 192.49374Q367.14062 192.49374 367.71875 192.79062Q368.29688 193.07187 368.59375 193.5875Q368.90625 194.0875 368.90625 194.775Q368.90625 195.15 368.78125 195.54062Q368.65625 195.91562 368.4375 196.30624Q368.21875 196.68124 367.92188 197.05624Q367.64062 197.41562 367.3125 197.775L365.01562 200.25937L369.29688 200.25937Z" fill-rule="nonzero"/><path stroke="#cccccc" stroke-width="1.0" stroke-linecap="butt" d="M523.275 305.0C523.275 221.45312 455.54688 153.725 372.0 153.725C288.45312 153.725 220.725 221.45312 220.725 305.0C220.725 388.54688 288.45312 456.275 372.0 456.275C455.54688 456.275 523.275 388.54688 523.275 305.0" fill-rule="nonzero"/><path fill="#000000" d="M360.0625 145.77188L360.0625 147.08438Q360.0625 148.13126 359.875 148.85Q359.6875 149.56876 359.32812 150.00626Q358.98438 150.44376 358.48438 150.64688Q358.0 150.85 357.375 150.85Q356.89062 150.85 356.46875 150.725Q356.04688 150.6 355.71875 150.33438Q355.39062 150.05313 355.15625 149.61563Q354.92188 149.17813 354.79688 148.55313Q354.67188 147.9125 354.67188 147.08438L354.67188 145.77188Q354.67188 144.725 354.85938 144.02188Q355.0625 143.31876 355.40625 142.88126Q355.76562 142.44376 356.25 142.25626Q356.75 142.06876 357.35938 142.06876Q357.85938 142.06876 358.28125 142.19376Q358.70312 142.31876 359.03125 142.58438Q359.35938 142.83438 359.57812 143.27188Q359.8125 143.69376 359.9375 144.31876Q360.0625 144.94376 360.0625 145.77188ZM358.96875 147.25626L358.96875 145.6Q358.96875 145.02188 358.90625 144.58438Q358.84375 144.14688 358.70312 143.83438Q358.57812 143.52188 358.375 143.33438Q358.1875 143.14688 357.9375 143.05313Q357.6875 142.95938 357.35938 142.95938Q356.98438 142.95938 356.67188 143.1Q356.375 143.24063 356.17188 143.55313Q355.96875 143.86563 355.85938 144.38126Q355.76562 144.88126 355.76562 145.6L355.76562 147.25626Q355.76562 147.83438 355.82812 148.27188Q355.90625 148.70938 356.03125 149.0375Q356.17188 149.35 356.35938 149.55313Q356.5625 149.75626 356.8125 149.85Q357.0625 149.94376 357.375 149.94376Q357.78125 149.94376 358.07812 149.80313Q358.375 149.64688 358.57812 149.31876Q358.78125 148.99063 358.875 148.49063Q358.96875 147.975 358.96875 147.25626ZM362.8125 149.42813L362.8125 150.30313Q362.8125 150.85 362.53125 151.44376Q362.26562 152.0375 361.78125 152.42813L361.17188 152.00626Q361.35938 151.74063 361.48438 151.475Q361.60938 151.20938 361.67188 150.92813Q361.75 150.64688 361.75 150.31876L361.75 149.42813L362.8125 149.42813ZM365.29688 145.92813L366.0625 145.92813Q366.64062 145.92813 367.0 145.74063Q367.375 145.5375 367.5625 145.20938Q367.75 144.88126 367.75 144.45938Q367.75 143.975 367.57812 143.64688Q367.42188 143.30313 367.09375 143.13126Q366.76562 142.95938 366.26562 142.95938Q365.79688 142.95938 365.45312 143.14688Q365.10938 143.31876 364.90625 143.64688Q364.71875 143.975 364.71875 144.42813L363.625 144.42813Q363.625 143.77188 363.95312 143.24063Q364.28125 142.70938 364.875 142.39688Q365.46875 142.06876 366.26562 142.06876Q367.03125 142.06876 367.60938 142.35Q368.1875 142.61563 368.51562 143.1625Q368.84375 143.69376 368.84375 144.49063Q368.84375 144.81876 368.6875 145.17813Q368.53125 145.5375 368.21875 145.86563Q367.90625 146.17813 367.40625 146.38126Q366.92188 146.58438 366.21875 146.58438L365.29688 146.58438L365.29688 145.92813ZM365.29688 146.81876L365.29688 146.1625L366.21875 146.1625Q367.03125 146.1625 367.5625 146.36563Q368.09375 146.55313 368.40625 146.88126Q368.71875 147.19376 368.84375 147.58438Q368.96875 147.95938 368.96875 148.35Q368.96875 148.94376 368.76562 149.4125Q368.5625 149.86563 368.1875 150.19376Q367.82812 150.50626 367.32812 150.67813Q366.84375 150.85 366.26562 150.85Q365.70312 150.85 365.21875 150.69376Q364.73438 150.52188 364.35938 150.225Q363.98438 149.92813 363.76562 149.49063Q363.5625 149.0375 363.5625 148.475L364.64062 148.475Q364.64062 148.9125 364.82812 149.25626Q365.03125 149.58438 365.39062 149.77188Q365.76562 149.94376 366.26562 149.94376Q366.76562 149.94376 367.125 149.77188Q367.48438 149.6 367.67188 149.25626Q367.875 148.89688 367.875 148.36563Q367.875 147.83438 367.65625 147.49063Q367.4375 147.14688 367.01562 146.99063Q366.60938 146.81876 366.0625 146.81876L365.29688 146.81876Z" fill-rule="nonzero"/><path stroke="#cccccc" stroke-width="1.0" stroke-linecap="butt" d="M573.7 305.0C573.7 193.60417 483.39584 103.3 372.0 103.3C260.60416 103.3 170.3 193.60417 170.3 305.0C170.3 416.39584 260.60416 506.7 372.0 506.7C483.39584 506.7 573.7 416.39584 573.7 305.0" fill-rule="nonzero"/><path fill="#000000" d="M360.0625 95.34688L360.0625 96.65938Q360.0625 97.70625 359.875 98.425Q359.6875 99.14375 359.32812 99.58125Q358.98438 100.01875 358.48438 100.22188Q358.0 100.425 357.375 100.425Q356.89062 100.425 356.46875 100.3Q356.04688 100.175 355.71875 99.90938Q355.39062 99.62813 355.15625 99.19063Q354.92188 98.75313 354.79688 98.12813Q354.67188 97.4875 354.67188 96.65938L354.67188 95.34688Q354.67188 94.3 354.85938 93.59688Q355.0625 92.89375 355.40625 92.45625Q355.76562 92.01875 356.25 91.83125Q356.75 91.64375 357.35938 91.64375Q357.85938 91.64375 358.28125 91.76875Q358.70312 91.89375 359.03125 92.15938Q359.35938 92.40938 359.57812 92.84688Q359.8125 93.26875 359.9375 93.89375Q360.0625 94.51875 360.0625 95.34688ZM358.96875 96.83125L358.96875 95.175Q358.96875 94.59688 358.90625 94.15938Q358.84375 93.72188 358.70312 93.40938Q358.57812 93.09688 358.375 92.90938Q358.1875 92.72188 357.9375 92.62813Q357.6875 92.53438 357.35938 92.53438Q356.98438 92.53438 356.67188 92.675Q356.375 92.81563 356.17188 93.12813Q355.96875 93.44063 355.85938 93.95625Q355.76562 94.45625 355.76562 95.175L355.76562 96.83125Q355.76562 97.40938 355.82812 97.84688Q355.90625 98.28438 356.03125 98.6125Q356.17188 98.925 356.35938 99.12813Q356.5625 99.33125 356.8125 99.425Q357.0625 99.51875 357.375 99.51875Q357.78125 99.51875 358.07812 99.37813Q358.375 99.22188 358.57812 98.89375Q358.78125 98.56563 358.875 98.06563Q358.96875 97.55 358.96875 96.83125ZM362.8125 99.00313L362.8125 99.87813Q362.8125 100.425 362.53125 101.01875Q362.26562 101.6125 361.78125 102.00313L361.17188 101.58125Q361.35938 101.31563 361.48438 101.05Q361.60938 100.78438 361.67188 100.50313Q361.75 100.22188 361.75 99.89375L361.75 99.00313L362.8125 99.00313ZM369.46875 97.425L369.46875 98.31563L363.3125 98.31563L363.3125 97.675L367.125 91.76875L368.01562 91.76875L367.0625 93.47188L364.54688 97.425L369.46875 97.425ZM368.28125 91.76875L368.28125 100.3L367.20312 100.3L367.20312 91.76875L368.28125 91.76875Z" fill-rule="nonzero"/><path stroke="#cccccc" stroke-width="1.0" stroke-linecap="butt" d="M372.0 305.0L372.0 103.0" fill-rule="nonzero"/><path fill="#000000" d="M342.64062 82.78125L343.76562 82.78125Q343.67188 83.59375 343.29688 84.234375Q342.92188 84.875 342.23438 85.25Q341.5625 85.625 340.53125 85.625Q339.78125 85.625 339.17188 85.34375Q338.5625 85.046875 338.10938 84.53125Q337.67188 84.015625 337.4375 83.296875Q337.20312 82.5625 337.20312 81.65625L337.20312 80.8125Q337.20312 79.921875 337.4375 79.1875Q337.67188 78.453125 338.125 77.9375Q338.57812 77.40625 339.20312 77.125Q339.84375 76.84375 340.625 76.84375Q341.59375 76.84375 342.26562 77.21875Q342.9375 77.578125 343.29688 78.21875Q343.67188 78.859375 343.76562 79.703125L342.64062 79.703125Q342.5625 79.109375 342.32812 78.6875Q342.10938 78.25 341.70312 78.015625Q341.29688 77.78125 340.625 77.78125Q340.0625 77.78125 339.625 78.0Q339.20312 78.203125 338.90625 78.609375Q338.625 79.0 338.46875 79.5625Q338.32812 80.125 338.32812 80.796875L338.32812 81.65625Q338.32812 82.28125 338.45312 82.84375Q338.59375 83.390625 338.85938 83.8125Q339.125 84.21875 339.54688 84.46875Q339.96875 84.703125 340.53125 84.703125Q341.25 84.703125 341.67188 84.46875Q342.10938 84.234375 342.32812 83.8125Q342.54688 83.390625 342.64062 82.78125ZM349.0625 84.421875L349.0625 81.15625Q349.0625 80.78125 348.90625 80.5Q348.76562 80.21875 348.46875 80.078125Q348.17188 79.921875 347.73438 79.921875Q347.3125 79.921875 347.0 80.0625Q346.70312 80.203125 346.53125 80.4375Q346.35938 80.65625 346.35938 80.921875L345.28125 80.921875Q345.28125 80.578125 345.45312 80.25Q345.625 79.90625 345.95312 79.640625Q346.28125 79.359375 346.75 79.203125Q347.21875 79.046875 347.79688 79.046875Q348.48438 79.046875 349.01562 79.28125Q349.54688 79.515625 349.84375 79.984375Q350.15625 80.453125 350.15625 81.15625L350.15625 84.109375Q350.15625 84.4375 350.20312 84.796875Q350.26562 85.140625 350.375 85.40625L350.375 85.5L349.23438 85.5Q349.15625 85.3125 349.10938 85.0Q349.0625 84.6875 349.0625 84.421875ZM349.25 81.65625L349.26562 82.421875L348.17188 82.421875Q347.70312 82.421875 347.34375 82.5Q346.98438 82.5625 346.73438 82.71875Q346.48438 82.859375 346.35938 83.078125Q346.23438 83.296875 346.23438 83.59375Q346.23438 83.890625 346.35938 84.140625Q346.5 84.375 346.76562 84.53125Q347.04688 84.671875 347.4375 84.671875Q347.9375 84.671875 348.3125 84.46875Q348.70312 84.25 348.92188 83.953125Q349.15625 83.640625 349.17188 83.34375L349.64062 83.875Q349.59375 84.109375 349.40625 84.421875Q349.23438 84.71875 348.92188 85.0Q348.625 85.265625 348.20312 85.453125Q347.79688 85.625 347.28125 85.625Q346.64062 85.625 346.15625 85.375Q345.67188 85.109375 345.40625 84.6875Q345.14062 84.265625 345.14062 83.734375Q345.14062 83.21875 345.32812 82.84375Q345.53125 82.453125 345.90625 82.1875Q346.28125 81.921875 346.8125 81.796875Q347.34375 81.65625 348.0 81.65625L349.25 81.65625ZM353.40625 80.15625L353.40625 85.5L352.32812 85.5L352.32812 79.15625L353.375 79.15625L353.40625 80.15625ZM355.39062 79.125L355.39062 80.125Q355.25 80.109375 355.125 80.09375Q355.01562 80.078125 354.85938 80.078125Q354.48438 80.078125 354.1875 80.203125Q353.90625 80.3125 353.70312 80.53125Q353.51562 80.734375 353.39062 81.03125Q353.28125 81.328125 353.25 81.671875L352.9375 81.84375Q352.9375 81.265625 353.04688 80.765625Q353.17188 80.265625 353.40625 79.875Q353.65625 79.484375 354.01562 79.265625Q354.39062 79.046875 354.90625 79.046875Q355.03125 79.046875 355.17188 79.078125Q355.32812 79.09375 355.39062 79.125ZM358.10938 84.84375L359.875 79.15625L361.03125 79.15625L358.48438 86.484375Q358.40625 86.71875 358.25 86.984375Q358.10938 87.265625 357.89062 87.5Q357.67188 87.75 357.35938 87.90625Q357.04688 88.0625 356.60938 88.0625Q356.48438 88.0625 356.28125 88.015625Q356.07812 87.984375 356.0 87.96875L356.0 87.09375Q356.04688 87.09375 356.14062 87.09375Q356.25 87.109375 356.28125 87.109375Q356.65625 87.109375 356.90625 87.015625Q357.17188 86.921875 357.34375 86.6875Q357.53125 86.46875 357.65625 86.078125L358.10938 84.84375ZM356.8125 79.15625L358.45312 84.078125L358.73438 85.21875L357.96875 85.625L355.625 79.15625L356.8125 79.15625ZM362.04688 82.40625L362.04688 82.265625Q362.04688 81.578125 362.23438 81.0Q362.4375 80.40625 362.8125 79.96875Q363.1875 79.53125 363.71875 79.296875Q364.25 79.046875 364.92188 79.046875Q365.57812 79.046875 366.10938 79.296875Q366.65625 79.53125 367.03125 79.96875Q367.40625 80.40625 367.60938 81.0Q367.8125 81.578125 367.8125 82.265625L367.8125 82.40625Q367.8125 83.078125 367.60938 83.671875Q367.40625 84.25 367.03125 84.6875Q366.65625 85.125 366.125 85.375Q365.59375 85.625 364.92188 85.625Q364.26562 85.625 363.71875 85.375Q363.1875 85.125 362.8125 84.6875Q362.4375 84.25 362.23438 83.671875Q362.04688 83.078125 362.04688 82.40625ZM363.125 82.265625L363.125 82.40625Q363.125 82.875 363.23438 83.296875Q363.34375 83.71875 363.5625 84.046875Q363.79688 84.359375 364.14062 84.546875Q364.48438 84.71875 364.92188 84.71875Q365.375 84.71875 365.70312 84.546875Q366.04688 84.359375 366.26562 84.046875Q366.5 83.71875 366.60938 83.296875Q366.71875 82.875 366.71875 82.40625L366.71875 82.265625Q366.71875 81.796875 366.60938 81.375Q366.5 80.953125 366.26562 80.640625Q366.04688 80.3125 365.70312 80.125Q365.375 79.9375 364.92188 79.9375Q364.46875 79.9375 364.125 80.125Q363.79688 80.3125 363.5625 80.640625Q363.34375 80.953125 363.23438 81.375Q363.125 81.796875 363.125 82.265625ZM370.40625 80.375L370.40625 87.9375L369.32812 87.9375L369.32812 79.15625L370.3125 79.15625L370.40625 80.375ZM374.6875 82.28125L374.6875 82.40625Q374.6875 83.09375 374.51562 83.6875Q374.35938 84.265625 374.04688 84.703125Q373.73438 85.140625 373.26562 85.390625Q372.8125 85.625 372.21875 85.625Q371.625 85.625 371.15625 85.421875Q370.6875 85.21875 370.35938 84.84375Q370.04688 84.453125 369.85938 83.921875Q369.67188 83.390625 369.59375 82.71875L369.59375 82.0625Q369.67188 81.359375 369.85938 80.8125Q370.04688 80.25 370.35938 79.859375Q370.6875 79.453125 371.14062 79.25Q371.60938 79.046875 372.20312 79.046875Q372.79688 79.046875 373.26562 79.28125Q373.73438 79.5 374.04688 79.9375Q374.35938 80.359375 374.51562 80.953125Q374.6875 81.546875 374.6875 82.28125ZM373.59375 82.40625L373.59375 82.28125Q373.59375 81.796875 373.48438 81.390625Q373.39062 80.96875 373.1875 80.65625Q372.98438 80.328125 372.65625 80.140625Q372.32812 79.953125 371.89062 79.953125Q371.48438 79.953125 371.17188 80.09375Q370.875 80.234375 370.65625 80.484375Q370.45312 80.71875 370.3125 81.015625Q370.1875 81.3125 370.125 81.640625L370.125 83.15625Q370.23438 83.5625 370.4375 83.921875Q370.65625 84.28125 371.0 84.5Q371.35938 84.71875 371.90625 84.71875Q372.34375 84.71875 372.65625 84.546875Q372.98438 84.359375 373.1875 84.046875Q373.39062 83.71875 373.48438 83.296875Q373.59375 82.875 373.59375 82.40625ZM377.40625 76.5L377.40625 85.5L376.32812 85.5L376.32812 76.5L377.40625 76.5ZM377.15625 82.09375L376.70312 82.078125Q376.70312 81.421875 376.89062 80.875Q377.07812 80.3125 377.42188 79.90625Q377.76562 79.5 378.23438 79.28125Q378.70312 79.046875 379.28125 79.046875Q379.75 79.046875 380.125 79.171875Q380.5 79.296875 380.76562 79.578125Q381.03125 79.84375 381.17188 80.28125Q381.3125 80.71875 381.3125 81.34375L381.3125 85.5L380.21875 85.5L380.21875 81.328125Q380.21875 80.828125 380.07812 80.53125Q379.9375 80.234375 379.65625 80.09375Q379.375 79.953125 378.95312 79.953125Q378.54688 79.953125 378.21875 80.125Q377.89062 80.296875 377.65625 80.59375Q377.42188 80.890625 377.28125 81.28125Q377.15625 81.65625 377.15625 82.09375ZM385.10938 84.84375L386.875 79.15625L388.03125 79.15625L385.48438 86.484375Q385.40625 86.71875 385.25 86.984375Q385.10938 87.265625 384.89062 87.5Q384.67188 87.75 384.35938 87.90625Q384.04688 88.0625 383.60938 88.0625Q383.48438 88.0625 383.28125 88.015625Q383.07812 87.984375 383.0 87.96875L383.0 87.09375Q383.04688 87.09375 383.14062 87.09375Q383.25 87.109375 383.28125 87.109375Q383.65625 87.109375 383.90625 87.015625Q384.17188 86.921875 384.34375 86.6875Q384.53125 86.46875 384.65625 86.078125L385.10938 84.84375ZM383.8125 79.15625L385.45312 84.078125L385.73438 85.21875L384.96875 85.625L382.625 79.15625L383.8125 79.15625ZM390.5 76.5L390.5 85.5L389.42188 85.5L389.42188 76.5L390.5 76.5ZM393.5 76.5L393.5 85.5L392.42188 85.5L392.42188 76.5L393.5 76.5ZM397.95312 85.625Q397.29688 85.625 396.75 85.40625Q396.21875 85.171875 395.82812 84.765625Q395.45312 84.34375 395.25 83.78125Q395.04688 83.21875 395.04688 82.546875L395.04688 82.3125Q395.04688 81.53125 395.26562 80.921875Q395.5 80.3125 395.89062 79.890625Q396.28125 79.46875 396.78125 79.265625Q397.28125 79.046875 397.8125 79.046875Q398.5 79.046875 398.98438 79.28125Q399.48438 79.515625 399.79688 79.9375Q400.125 80.34375 400.26562 80.921875Q400.42188 81.484375 400.42188 82.140625L400.42188 82.640625L395.6875 82.640625L395.6875 81.75L399.34375 81.75L399.34375 81.671875Q399.3125 81.25 399.15625 80.859375Q399.01562 80.453125 398.6875 80.203125Q398.375 79.9375 397.8125 79.9375Q397.45312 79.9375 397.14062 80.09375Q396.82812 80.25 396.59375 80.5625Q396.375 80.859375 396.25 81.296875Q396.14062 81.734375 396.14062 82.3125L396.14062 82.546875Q396.14062 83.0 396.26562 83.40625Q396.39062 83.796875 396.625 84.09375Q396.875 84.390625 397.21875 84.5625Q397.57812 84.734375 398.01562 84.734375Q398.59375 84.734375 398.98438 84.5Q399.39062 84.265625 399.6875 83.875L400.34375 84.390625Q400.14062 84.703125 399.8125 84.984375Q399.5 85.265625 399.03125 85.453125Q398.57812 85.625 397.95312 85.625ZM402.40625 80.515625L402.40625 85.5L401.32812 85.5L401.32812 79.15625L402.35938 79.15625L402.40625 80.515625ZM402.15625 82.09375L401.70312 82.078125Q401.70312 81.421875 401.89062 80.875Q402.07812 80.3125 402.42188 79.90625Q402.76562 79.5 403.23438 79.28125Q403.70312 79.046875 404.28125 79.046875Q404.75 79.046875 405.125 79.171875Q405.5 79.296875 405.76562 79.578125Q406.03125 79.84375 406.17188 80.28125Q406.3125 80.71875 406.3125 81.34375L406.3125 85.5L405.21875 85.5L405.21875 81.328125Q405.21875 80.828125 405.07812 80.53125Q404.9375 80.234375 404.65625 80.09375Q404.375 79.953125 403.95312 79.953125Q403.54688 79.953125 403.21875 80.125Q402.89062 80.296875 402.65625 80.59375Q402.42188 80.890625 402.28125 81.28125Q402.15625 81.65625 402.15625 82.09375Z" fill-rule="nonzero"/><path stroke="#cccccc" stroke-width="1.0" stroke-linecap="butt" d="M372.0 305.0L547.0 204.0" fill-rule="nonzero"/><path fill="#000000" d="M548.6719 196.57812L548.6719 197.5L544.40625 197.5L544.40625 196.57812L548.6719 196.57812ZM544.625 188.96875L544.625 197.5L543.4844 197.5L543.4844 188.96875L544.625 188.96875ZM550.5 191.15625L550.5 197.5L549.4219 197.5L549.4219 191.15625L550.5 191.15625ZM549.3281 189.48438Q549.3281 189.21875 549.4844 189.03125Q549.65625 188.84375 549.96875 188.84375Q550.28125 188.84375 550.4375 189.03125Q550.6094 189.21875 550.6094 189.48438Q550.6094 189.73438 550.4375 189.92188Q550.28125 190.09375 549.96875 190.09375Q549.65625 190.09375 549.4844 189.92188Q549.3281 189.73438 549.3281 189.48438ZM553.40625 192.42188L553.40625 197.5L552.3125 197.5L552.3125 191.15625L553.34375 191.15625L553.40625 192.42188ZM553.1875 194.09375L552.6719 194.07812Q552.6875 193.42188 552.84375 192.875Q553.0156 192.3125 553.3281 191.90625Q553.65625 191.5 554.1406 191.28125Q554.625 191.04688 555.25 191.04688Q555.7031 191.04688 556.0781 191.17188Q556.4531 191.29688 556.71875 191.5625Q557.0 191.82812 557.1406 192.25Q557.2969 192.67188 557.2969 193.28125L557.2969 197.5L556.21875 197.5L556.21875 193.32812Q556.21875 192.82812 556.0469 192.53125Q555.8906 192.23438 555.5781 192.09375Q555.28125 191.95312 554.8594 191.95312Q554.3906 191.95312 554.0625 192.125Q553.7344 192.29688 553.5469 192.59375Q553.3594 192.89062 553.2656 193.28125Q553.1875 193.65625 553.1875 194.09375ZM557.2969 193.48438L556.5625 193.71875Q556.5625 193.1875 556.7344 192.71875Q556.90625 192.23438 557.21875 191.85938Q557.5469 191.48438 558.0156 191.26562Q558.4844 191.04688 559.0781 191.04688Q559.59375 191.04688 559.9844 191.1875Q560.3906 191.3125 560.65625 191.59375Q560.9219 191.875 561.0625 192.3125Q561.2031 192.73438 561.2031 193.32812L561.2031 197.5L560.125 197.5L560.125 193.32812Q560.125 192.78125 559.9531 192.5Q559.78125 192.20312 559.4844 192.07812Q559.1875 191.95312 558.7656 191.95312Q558.40625 191.95312 558.125 192.07812Q557.8594 192.20312 557.6719 192.42188Q557.4844 192.625 557.3906 192.90625Q557.2969 193.1875 557.2969 193.48438ZM563.0469 194.40625L563.0469 194.26562Q563.0469 193.57812 563.2344 193.0Q563.4375 192.40625 563.8125 191.96875Q564.1875 191.53125 564.71875 191.29688Q565.25 191.04688 565.9219 191.04688Q566.5781 191.04688 567.1094 191.29688Q567.65625 191.53125 568.03125 191.96875Q568.40625 192.40625 568.6094 193.0Q568.8125 193.57812 568.8125 194.26562L568.8125 194.40625Q568.8125 195.07812 568.6094 195.67188Q568.40625 196.25 568.03125 196.6875Q567.65625 197.125 567.125 197.375Q566.59375 197.625 565.9219 197.625Q565.2656 197.625 564.71875 197.375Q564.1875 197.125 563.8125 196.6875Q563.4375 196.25 563.2344 195.67188Q563.0469 195.07812 563.0469 194.40625ZM564.125 194.26562L564.125 194.40625Q564.125 194.875 564.2344 195.29688Q564.34375 195.71875 564.5625 196.04688Q564.7969 196.35938 565.1406 196.54688Q565.4844 196.71875 565.9219 196.71875Q566.375 196.71875 566.7031 196.54688Q567.0469 196.35938 567.2656 196.04688Q567.5 195.71875 567.6094 195.29688Q567.71875 194.875 567.71875 194.40625L567.71875 194.26562Q567.71875 193.79688 567.6094 193.375Q567.5 192.95312 567.2656 192.64062Q567.0469 192.3125 566.7031 192.125Q566.375 191.9375 565.9219 191.9375Q565.46875 191.9375 565.125 192.125Q564.7969 192.3125 564.5625 192.64062Q564.34375 192.95312 564.2344 193.375Q564.125 193.79688 564.125 194.26562ZM571.40625 192.51562L571.40625 197.5L570.3281 197.5L570.3281 191.15625L571.3594 191.15625L571.40625 192.51562ZM571.15625 194.09375L570.7031 194.07812Q570.7031 193.42188 570.8906 192.875Q571.0781 192.3125 571.4219 191.90625Q571.7656 191.5 572.2344 191.28125Q572.7031 191.04688 573.28125 191.04688Q573.75 191.04688 574.125 191.17188Q574.5 191.29688 574.7656 191.57812Q575.03125 191.84375 575.1719 192.28125Q575.3125 192.71875 575.3125 193.34375L575.3125 197.5L574.21875 197.5L574.21875 193.32812Q574.21875 192.82812 574.0781 192.53125Q573.9375 192.23438 573.65625 192.09375Q573.375 191.95312 572.9531 191.95312Q572.5469 191.95312 572.21875 192.125Q571.8906 192.29688 571.65625 192.59375Q571.4219 192.89062 571.28125 193.28125Q571.15625 193.65625 571.15625 194.09375ZM579.9531 197.625Q579.2969 197.625 578.75 197.40625Q578.21875 197.17188 577.8281 196.76562Q577.4531 196.34375 577.25 195.78125Q577.0469 195.21875 577.0469 194.54688L577.0469 194.3125Q577.0469 193.53125 577.2656 192.92188Q577.5 192.3125 577.8906 191.89062Q578.28125 191.46875 578.78125 191.26562Q579.28125 191.04688 579.8125 191.04688Q580.5 191.04688 580.9844 191.28125Q581.4844 191.51562 581.7969 191.9375Q582.125 192.34375 582.2656 192.92188Q582.4219 193.48438 582.4219 194.14062L582.4219 194.64062L577.6875 194.64062L577.6875 193.75L581.34375 193.75L581.34375 193.67188Q581.3125 193.25 581.15625 192.85938Q581.0156 192.45312 580.6875 192.20312Q580.375 191.9375 579.8125 191.9375Q579.4531 191.9375 579.1406 192.09375Q578.8281 192.25 578.59375 192.5625Q578.375 192.85938 578.25 193.29688Q578.1406 193.73438 578.1406 194.3125L578.1406 194.54688Q578.1406 195.0 578.2656 195.40625Q578.3906 195.79688 578.625 196.09375Q578.875 196.39062 579.21875 196.5625Q579.5781 196.73438 580.0156 196.73438Q580.59375 196.73438 580.9844 196.5Q581.3906 196.26562 581.6875 195.875L582.34375 196.39062Q582.1406 196.70312 581.8125 196.98438Q581.5 197.26562 581.03125 197.45312Q580.5781 197.625 579.9531 197.625ZM584.40625 192.51562L584.40625 197.5L583.3281 197.5L583.3281 191.15625L584.3594 191.15625L584.40625 192.51562ZM584.15625 194.09375L583.7031 194.07812Q583.7031 193.42188 583.8906 192.875Q584.0781 192.3125 584.4219 191.90625Q584.7656 191.5 585.2344 191.28125Q585.7031 191.04688 586.28125 191.04688Q586.75 191.04688 587.125 191.17188Q587.5 191.29688 587.7656 191.57812Q588.03125 191.84375 588.1719 192.28125Q588.3125 192.71875 588.3125 193.34375L588.3125 197.5L587.21875 197.5L587.21875 193.32812Q587.21875 192.82812 587.0781 192.53125Q586.9375 192.23438 586.65625 192.09375Q586.375 191.95312 585.9531 191.95312Q585.5469 191.95312 585.21875 192.125Q584.8906 192.29688 584.65625 192.59375Q584.4219 192.89062 584.28125 193.28125Q584.15625 193.65625 584.15625 194.09375Z" fill-rule="nonzero"/><path stroke="#cccccc" stroke-width="1.0" stroke-linecap="butt" d="M372.0 305.0L547.0 406.0" fill-rule="nonzero"/><path fill="#000000" d="M550.6719 420.57812L550.6719 421.5L546.40625 421.5L546.40625 420.57812L550.6719 420.57812ZM546.625 412.96875L546.625 421.5L545.4844 421.5L545.4844 412.96875L546.625 412.96875ZM552.5 415.15625L552.5 421.5L551.4219 421.5L551.4219 415.15625L552.5 415.15625ZM551.3281 413.48438Q551.3281 413.21875 551.4844 413.03125Q551.65625 412.84375 551.96875 412.84375Q552.28125 412.84375 552.4375 413.03125Q552.6094 413.21875 552.6094 413.48438Q552.6094 413.73438 552.4375 413.92188Q552.28125 414.09375 551.96875 414.09375Q551.65625 414.09375 551.4844 413.92188Q551.3281 413.73438 551.3281 413.48438ZM555.40625 416.51562L555.40625 421.5L554.3281 421.5L554.3281 415.15625L555.3594 415.15625L555.40625 416.51562ZM555.15625 418.09375L554.7031 418.07812Q554.7031 417.42188 554.8906 416.875Q555.0781 416.3125 555.4219 415.90625Q555.7656 415.5 556.2344 415.28125Q556.7031 415.04688 557.28125 415.04688Q557.75 415.04688 558.125 415.17188Q558.5 415.29688 558.7656 415.57812Q559.03125 415.84375 559.1719 416.28125Q559.3125 416.71875 559.3125 417.34375L559.3125 421.5L558.21875 421.5L558.21875 417.32812Q558.21875 416.82812 558.0781 416.53125Q557.9375 416.23438 557.65625 416.09375Q557.375 415.95312 556.9531 415.95312Q556.5469 415.95312 556.21875 416.125Q555.8906 416.29688 555.65625 416.59375Q555.4219 416.89062 555.28125 417.28125Q555.15625 417.65625 555.15625 418.09375ZM565.0625 420.42188L565.0625 417.15625Q565.0625 416.78125 564.90625 416.5Q564.7656 416.21875 564.46875 416.07812Q564.1719 415.92188 563.7344 415.92188Q563.3125 415.92188 563.0 416.0625Q562.7031 416.20312 562.53125 416.4375Q562.3594 416.65625 562.3594 416.92188L561.28125 416.92188Q561.28125 416.57812 561.4531 416.25Q561.625 415.90625 561.9531 415.64062Q562.28125 415.35938 562.75 415.20312Q563.21875 415.04688 563.7969 415.04688Q564.4844 415.04688 565.0156 415.28125Q565.5469 415.51562 565.84375 415.98438Q566.15625 416.45312 566.15625 417.15625L566.15625 420.10938Q566.15625 420.4375 566.2031 420.79688Q566.2656 421.14062 566.375 421.40625L566.375 421.5L565.2344 421.5Q565.15625 421.3125 565.1094 421.0Q565.0625 420.6875 565.0625 420.42188ZM565.25 417.65625L565.2656 418.42188L564.1719 418.42188Q563.7031 418.42188 563.34375 418.5Q562.9844 418.5625 562.7344 418.71875Q562.4844 418.85938 562.3594 419.07812Q562.2344 419.29688 562.2344 419.59375Q562.2344 419.89062 562.3594 420.14062Q562.5 420.375 562.7656 420.53125Q563.0469 420.67188 563.4375 420.67188Q563.9375 420.67188 564.3125 420.46875Q564.7031 420.25 564.9219 419.95312Q565.15625 419.64062 565.1719 419.34375L565.6406 419.875Q565.59375 420.10938 565.40625 420.42188Q565.2344 420.71875 564.9219 421.0Q564.625 421.26562 564.2031 421.45312Q563.7969 421.625 563.28125 421.625Q562.6406 421.625 562.15625 421.375Q561.6719 421.10938 561.40625 420.6875Q561.1406 420.26562 561.1406 419.73438Q561.1406 419.21875 561.3281 418.84375Q561.53125 418.45312 561.90625 418.1875Q562.28125 417.92188 562.8125 417.79688Q563.34375 417.65625 564.0 417.65625L565.25 417.65625ZM569.5 412.5L569.5 421.5L568.4219 421.5L568.4219 412.5L569.5 412.5ZM571.0469 418.40625L571.0469 418.26562Q571.0469 417.57812 571.2344 417.0Q571.4375 416.40625 571.8125 415.96875Q572.1875 415.53125 572.71875 415.29688Q573.25 415.04688 573.9219 415.04688Q574.5781 415.04688 575.1094 415.29688Q575.65625 415.53125 576.03125 415.96875Q576.40625 416.40625 576.6094 417.0Q576.8125 417.57812 576.8125 418.26562L576.8125 418.40625Q576.8125 419.07812 576.6094 419.67188Q576.40625 420.25 576.03125 420.6875Q575.65625 421.125 575.125 421.375Q574.59375 421.625 573.9219 421.625Q573.2656 421.625 572.71875 421.375Q572.1875 421.125 571.8125 420.6875Q571.4375 420.25 571.2344 419.67188Q571.0469 419.07812 571.0469 418.40625ZM572.125 418.26562L572.125 418.40625Q572.125 418.875 572.2344 419.29688Q572.34375 419.71875 572.5625 420.04688Q572.7969 420.35938 573.1406 420.54688Q573.4844 420.71875 573.9219 420.71875Q574.375 420.71875 574.7031 420.54688Q575.0469 420.35938 575.2656 420.04688Q575.5 419.71875 575.6094 419.29688Q575.71875 418.875 575.71875 418.40625L575.71875 418.26562Q575.71875 417.79688 575.6094 417.375Q575.5 416.95312 575.2656 416.64062Q575.0469 416.3125 574.7031 416.125Q574.375 415.9375 573.9219 415.9375Q573.46875 415.9375 573.125 416.125Q572.7969 416.3125 572.5625 416.64062Q572.34375 416.95312 572.2344 417.375Q572.125 417.79688 572.125 418.26562ZM578.0469 418.40625L578.0469 418.26562Q578.0469 417.57812 578.2344 417.0Q578.4375 416.40625 578.8125 415.96875Q579.1875 415.53125 579.71875 415.29688Q580.25 415.04688 580.9219 415.04688Q581.5781 415.04688 582.1094 415.29688Q582.65625 415.53125 583.03125 415.96875Q583.40625 416.40625 583.6094 417.0Q583.8125 417.57812 583.8125 418.26562L583.8125 418.40625Q583.8125 419.07812 583.6094 419.67188Q583.40625 420.25 583.03125 420.6875Q582.65625 421.125 582.125 421.375Q581.59375 421.625 580.9219 421.625Q580.2656 421.625 579.71875 421.375Q579.1875 421.125 578.8125 420.6875Q578.4375 420.25 578.2344 419.67188Q578.0469 419.07812 578.0469 418.40625ZM579.125 418.26562L579.125 418.40625Q579.125 418.875 579.2344 419.29688Q579.34375 419.71875 579.5625 420.04688Q579.7969 420.35938 580.1406 420.54688Q580.4844 420.71875 580.9219 420.71875Q581.375 420.71875 581.7031 420.54688Q582.0469 420.35938 582.2656 420.04688Q582.5 419.71875 582.6094 419.29688Q582.71875 418.875 582.71875 418.40625L582.71875 418.26562Q582.71875 417.79688 582.6094 417.375Q582.5 416.95312 582.2656 416.64062Q582.0469 416.3125 581.7031 416.125Q581.375 415.9375 580.9219 415.9375Q580.46875 415.9375 580.125 416.125Q579.7969 416.3125 579.5625 416.64062Q579.34375 416.95312 579.2344 417.375Q579.125 417.79688 579.125 418.26562ZM586.5 412.5L586.5 421.5L585.4219 421.5L585.4219 412.5L586.5 412.5Z" fill-rule="nonzero"/><path stroke="#cccccc" stroke-width="1.0" stroke-linecap="butt" d="M372.0 305.0L372.0 507.0" fill-rule="nonzero"/><path fill="#000000" d="M353.5625 528.6406L353.5625 529.5625L348.95312 529.5625L348.95312 528.6406L353.5625 528.6406ZM349.125 524.96875L349.125 533.5L347.98438 533.5L347.98438 524.96875L349.125 524.96875ZM354.54688 524.96875L354.54688 533.5L353.42188 533.5L353.42188 524.96875L354.54688 524.96875ZM360.70312 532.03125L360.70312 527.15625L361.79688 527.15625L361.79688 533.5L360.76562 533.5L360.70312 532.03125ZM360.90625 530.7031L361.35938 530.6875Q361.35938 531.3125 361.21875 531.8594Q361.09375 532.3906 360.79688 532.78125Q360.51562 533.1719 360.03125 533.40625Q359.5625 533.625 358.89062 533.625Q358.42188 533.625 358.03125 533.4844Q357.65625 533.34375 357.375 533.0625Q357.10938 532.78125 356.95312 532.3281Q356.79688 531.875 356.79688 531.25L356.79688 527.15625L357.89062 527.15625L357.89062 531.2656Q357.89062 531.6875 357.98438 531.96875Q358.07812 532.25 358.25 532.40625Q358.42188 532.5625 358.625 532.6406Q358.82812 532.7031 359.04688 532.7031Q359.75 532.7031 360.14062 532.4375Q360.54688 532.15625 360.71875 531.7031Q360.90625 531.25 360.90625 530.7031ZM364.90625 528.4219L364.90625 533.5L363.8125 533.5L363.8125 527.15625L364.84375 527.15625L364.90625 528.4219ZM364.6875 530.09375L364.17188 530.0781Q364.1875 529.4219 364.34375 528.875Q364.51562 528.3125 364.82812 527.90625Q365.15625 527.5 365.64062 527.28125Q366.125 527.0469 366.75 527.0469Q367.20312 527.0469 367.57812 527.1719Q367.95312 527.2969 368.21875 527.5625Q368.5 527.8281 368.64062 528.25Q368.79688 528.6719 368.79688 529.28125L368.79688 533.5L367.71875 533.5L367.71875 529.3281Q367.71875 528.8281 367.54688 528.53125Q367.39062 528.2344 367.07812 528.09375Q366.78125 527.9531 366.35938 527.9531Q365.89062 527.9531 365.5625 528.125Q365.23438 528.2969 365.04688 528.59375Q364.85938 528.8906 364.76562 529.28125Q364.6875 529.65625 364.6875 530.09375ZM368.79688 529.4844L368.0625 529.71875Q368.0625 529.1875 368.23438 528.71875Q368.40625 528.2344 368.71875 527.8594Q369.04688 527.4844 369.51562 527.2656Q369.98438 527.0469 370.57812 527.0469Q371.09375 527.0469 371.48438 527.1875Q371.89062 527.3125 372.15625 527.59375Q372.42188 527.875 372.5625 528.3125Q372.70312 528.7344 372.70312 529.3281L372.70312 533.5L371.625 533.5L371.625 529.3281Q371.625 528.78125 371.45312 528.5Q371.28125 528.2031 370.98438 528.0781Q370.6875 527.9531 370.26562 527.9531Q369.90625 527.9531 369.625 528.0781Q369.35938 528.2031 369.17188 528.4219Q368.98438 528.625 368.89062 528.90625Q368.79688 529.1875 368.79688 529.4844ZM378.70312 532.03125L378.70312 527.15625L379.79688 527.15625L379.79688 533.5L378.76562 533.5L378.70312 532.03125ZM378.90625 530.7031L379.35938 530.6875Q379.35938 531.3125 379.21875 531.8594Q379.09375 532.3906 378.79688 532.78125Q378.51562 533.1719 378.03125 533.40625Q377.5625 533.625 376.89062 533.625Q376.42188 533.625 376.03125 533.4844Q375.65625 533.34375 375.375 533.0625Q375.10938 532.78125 374.95312 532.3281Q374.79688 531.875 374.79688 531.25L374.79688 527.15625L375.89062 527.15625L375.89062 531.2656Q375.89062 531.6875 375.98438 531.96875Q376.07812 532.25 376.25 532.40625Q376.42188 532.5625 376.625 532.6406Q376.82812 532.7031 377.04688 532.7031Q377.75 532.7031 378.14062 532.4375Q378.54688 532.15625 378.71875 531.7031Q378.90625 531.25 378.90625 530.7031ZM383.0 524.5L383.0 533.5L381.92188 533.5L381.92188 524.5L383.0 524.5ZM387.45312 533.625Q386.79688 533.625 386.25 533.40625Q385.71875 533.1719 385.32812 532.7656Q384.95312 532.34375 384.75 531.78125Q384.54688 531.21875 384.54688 530.5469L384.54688 530.3125Q384.54688 529.53125 384.76562 528.9219Q385.0 528.3125 385.39062 527.8906Q385.78125 527.46875 386.28125 527.2656Q386.78125 527.0469 387.3125 527.0469Q388.0 527.0469 388.48438 527.28125Q388.98438 527.5156 389.29688 527.9375Q389.625 528.34375 389.76562 528.9219Q389.92188 529.4844 389.92188 530.1406L389.92188 530.6406L385.1875 530.6406L385.1875 529.75L388.84375 529.75L388.84375 529.6719Q388.8125 529.25 388.65625 528.8594Q388.51562 528.4531 388.1875 528.2031Q387.875 527.9375 387.3125 527.9375Q386.95312 527.9375 386.64062 528.09375Q386.32812 528.25 386.09375 528.5625Q385.875 528.8594 385.75 529.2969Q385.64062 529.7344 385.64062 530.3125L385.64062 530.5469Q385.64062 531.0 385.76562 531.40625Q385.89062 531.7969 386.125 532.09375Q386.375 532.3906 386.71875 532.5625Q387.07812 532.7344 387.51562 532.7344Q388.09375 532.7344 388.48438 532.5Q388.89062 532.2656 389.1875 531.875L389.84375 532.3906Q389.64062 532.7031 389.3125 532.9844Q389.0 533.2656 388.53125 533.4531Q388.07812 533.625 387.45312 533.625ZM391.90625 528.5156L391.90625 533.5L390.82812 533.5L390.82812 527.15625L391.85938 527.15625L391.90625 528.5156ZM391.65625 530.09375L391.20312 530.0781Q391.20312 529.4219 391.39062 528.875Q391.57812 528.3125 391.92188 527.90625Q392.26562 527.5 392.73438 527.28125Q393.20312 527.0469 393.78125 527.0469Q394.25 527.0469 394.625 527.1719Q395.0 527.2969 395.26562 527.5781Q395.53125 527.84375 395.67188 528.28125Q395.8125 528.71875 395.8125 529.34375L395.8125 533.5L394.71875 533.5L394.71875 529.3281Q394.71875 528.8281 394.57812 528.53125Q394.4375 528.2344 394.15625 528.09375Q393.875 527.9531 393.45312 527.9531Q393.04688 527.9531 392.71875 528.125Q392.39062 528.2969 392.15625 528.59375Q391.92188 528.8906 391.78125 529.28125Q391.65625 529.65625 391.65625 530.09375Z" fill-rule="nonzero"/><path stroke="#cccccc" stroke-width="1.0" stroke-linecap="butt" d="M372.0 305.0L197.0 406.0" fill-rule="nonzero"/><path fill="#000000" d="M159.84375 412.96875L160.9375 412.96875L163.73438 419.92188L166.53125 412.96875L167.625 412.96875L164.15625 421.5L163.3125 421.5L159.84375 412.96875ZM159.48438 412.96875L160.45312 412.96875L160.60938 418.17188L160.60938 421.5L159.48438 421.5L159.48438 412.96875ZM167.01562 412.96875L167.98438 412.96875L167.98438 421.5L166.85938 421.5L166.85938 418.17188L167.01562 412.96875ZM171.10938 420.84375L172.875 415.15625L174.03125 415.15625L171.48438 422.48438Q171.40625 422.71875 171.25 422.98438Q171.10938 423.26562 170.89062 423.5Q170.67188 423.75 170.35938 423.90625Q170.04688 424.0625 169.60938 424.0625Q169.48438 424.0625 169.28125 424.01562Q169.07812 423.98438 169.0 423.96875L169.0 423.09375Q169.04688 423.09375 169.14062 423.09375Q169.25 423.10938 169.28125 423.10938Q169.65625 423.10938 169.90625 423.01562Q170.17188 422.92188 170.34375 422.6875Q170.53125 422.46875 170.65625 422.07812L171.10938 420.84375ZM169.8125 415.15625L171.45312 420.07812L171.73438 421.21875L170.96875 421.625L168.625 415.15625L169.8125 415.15625ZM176.40625 416.15625L176.40625 421.5L175.32812 421.5L175.32812 415.15625L176.375 415.15625L176.40625 416.15625ZM178.39062 415.125L178.39062 416.125Q178.25 416.10938 178.125 416.09375Q178.01562 416.07812 177.85938 416.07812Q177.48438 416.07812 177.1875 416.20312Q176.90625 416.3125 176.70312 416.53125Q176.51562 416.73438 176.39062 417.03125Q176.28125 417.32812 176.25 417.67188L175.9375 417.84375Q175.9375 417.26562 176.04688 416.76562Q176.17188 416.26562 176.40625 415.875Q176.65625 415.48438 177.01562 415.26562Q177.39062 415.04688 177.90625 415.04688Q178.03125 415.04688 178.17188 415.07812Q178.32812 415.09375 178.39062 415.125ZM181.85938 420.71875Q182.25 420.71875 182.57812 420.5625Q182.90625 420.40625 183.10938 420.14062Q183.32812 419.85938 183.35938 419.5L184.39062 419.5Q184.35938 420.0625 184.0 420.54688Q183.65625 421.03125 183.09375 421.32812Q182.53125 421.625 181.85938 421.625Q181.15625 421.625 180.625 421.375Q180.09375 421.10938 179.73438 420.67188Q179.39062 420.23438 179.21875 419.67188Q179.04688 419.09375 179.04688 418.45312L179.04688 418.20312Q179.04688 417.5625 179.21875 417.0Q179.39062 416.42188 179.73438 415.98438Q180.09375 415.54688 180.625 415.29688Q181.15625 415.04688 181.85938 415.04688Q182.60938 415.04688 183.15625 415.34375Q183.71875 415.64062 184.03125 416.17188Q184.35938 416.6875 184.39062 417.34375L183.35938 417.34375Q183.32812 416.95312 183.14062 416.64062Q182.95312 416.3125 182.625 416.125Q182.29688 415.9375 181.85938 415.9375Q181.35938 415.9375 181.01562 416.14062Q180.6875 416.32812 180.48438 416.65625Q180.29688 416.98438 180.20312 417.39062Q180.125 417.79688 180.125 418.20312L180.125 418.45312Q180.125 418.875 180.20312 419.28125Q180.29688 419.67188 180.48438 420.0Q180.6875 420.32812 181.01562 420.53125Q181.35938 420.71875 181.85938 420.71875ZM187.95312 421.625Q187.29688 421.625 186.75 421.40625Q186.21875 421.17188 185.82812 420.76562Q185.45312 420.34375 185.25 419.78125Q185.04688 419.21875 185.04688 418.54688L185.04688 418.3125Q185.04688 417.53125 185.26562 416.92188Q185.5 416.3125 185.89062 415.89062Q186.28125 415.46875 186.78125 415.26562Q187.28125 415.04688 187.8125 415.04688Q188.5 415.04688 188.98438 415.28125Q189.48438 415.51562 189.79688 415.9375Q190.125 416.34375 190.26562 416.92188Q190.42188 417.48438 190.42188 418.14062L190.42188 418.64062L185.6875 418.64062L185.6875 417.75L189.34375 417.75L189.34375 417.67188Q189.3125 417.25 189.15625 416.85938Q189.01562 416.45312 188.6875 416.20312Q188.375 415.9375 187.8125 415.9375Q187.45312 415.9375 187.14062 416.09375Q186.82812 416.25 186.59375 416.5625Q186.375 416.85938 186.25 417.29688Q186.14062 417.73438 186.14062 418.3125L186.14062 418.54688Q186.14062 419.0 186.26562 419.40625Q186.39062 419.79688 186.625 420.09375Q186.875 420.39062 187.21875 420.5625Q187.57812 420.73438 188.01562 420.73438Q188.59375 420.73438 188.98438 420.5Q189.39062 420.26562 189.6875 419.875L190.34375 420.39062Q190.14062 420.70312 189.8125 420.98438Q189.5 421.26562 189.03125 421.45312Q188.57812 421.625 187.95312 421.625ZM192.40625 416.51562L192.40625 421.5L191.32812 421.5L191.32812 415.15625L192.35938 415.15625L192.40625 416.51562ZM192.15625 418.09375L191.70312 418.07812Q191.70312 417.42188 191.89062 416.875Q192.07812 416.3125 192.42188 415.90625Q192.76562 415.5 193.23438 415.28125Q193.70312 415.04688 194.28125 415.04688Q194.75 415.04688 195.125 415.17188Q195.5 415.29688 195.76562 415.57812Q196.03125 415.84375 196.17188 416.28125Q196.3125 416.71875 196.3125 417.34375L196.3125 421.5L195.21875 421.5L195.21875 417.32812Q195.21875 416.82812 195.07812 416.53125Q194.9375 416.23438 194.65625 416.09375Q194.375 415.95312 193.95312 415.95312Q193.54688 415.95312 193.21875 416.125Q192.89062 416.29688 192.65625 416.59375Q192.42188 416.89062 192.28125 417.28125Q192.15625 417.65625 192.15625 418.09375Z" fill-rule="nonzero"/><path stroke="#cccccc" stroke-width="1.0" stroke-linecap="butt" d="M372.0 305.0L197.0 204.0" fill-rule="nonzero"/><path fill="#000000" d="M160.03125 195.34375Q160.03125 195.04688 159.9375 194.8125Q159.85938 194.57812 159.625 194.39062Q159.40625 194.20312 159.0 194.03125Q158.60938 193.85938 158.01562 193.6875Q157.375 193.5 156.85938 193.28125Q156.35938 193.04688 155.98438 192.75Q155.625 192.4375 155.4375 192.0625Q155.25 191.67188 155.25 191.17188Q155.25 190.67188 155.45312 190.25Q155.65625 189.82812 156.03125 189.51562Q156.42188 189.20312 156.95312 189.03125Q157.48438 188.84375 158.14062 188.84375Q159.10938 188.84375 159.78125 189.21875Q160.45312 189.57812 160.79688 190.17188Q161.15625 190.76562 161.15625 191.42188L160.03125 191.42188Q160.03125 190.95312 159.8125 190.57812Q159.60938 190.20312 159.1875 190.0Q158.78125 189.78125 158.14062 189.78125Q157.54688 189.78125 157.14062 189.96875Q156.75 190.14062 156.5625 190.45312Q156.375 190.76562 156.375 191.15625Q156.375 191.42188 156.48438 191.65625Q156.60938 191.875 156.84375 192.0625Q157.09375 192.25 157.46875 192.40625Q157.84375 192.5625 158.375 192.70312Q159.09375 192.90625 159.625 193.17188Q160.15625 193.42188 160.5 193.73438Q160.84375 194.04688 161.0 194.4375Q161.17188 194.82812 161.17188 195.32812Q161.17188 195.85938 160.95312 196.28125Q160.75 196.70312 160.35938 197.0Q159.96875 197.29688 159.42188 197.46875Q158.875 197.625 158.20312 197.625Q157.60938 197.625 157.03125 197.45312Q156.46875 197.28125 156.0 196.95312Q155.53125 196.625 155.25 196.15625Q154.96875 195.67188 154.96875 195.03125L156.09375 195.03125Q156.09375 195.46875 156.26562 195.78125Q156.4375 196.09375 156.73438 196.29688Q157.03125 196.5 157.40625 196.60938Q157.78125 196.70312 158.20312 196.70312Q158.79688 196.70312 159.20312 196.54688Q159.60938 196.375 159.8125 196.07812Q160.03125 195.76562 160.03125 195.34375ZM162.04688 194.40625L162.04688 194.26562Q162.04688 193.57812 162.23438 193.0Q162.4375 192.40625 162.8125 191.96875Q163.1875 191.53125 163.71875 191.29688Q164.25 191.04688 164.92188 191.04688Q165.57812 191.04688 166.10938 191.29688Q166.65625 191.53125 167.03125 191.96875Q167.40625 192.40625 167.60938 193.0Q167.8125 193.57812 167.8125 194.26562L167.8125 194.40625Q167.8125 195.07812 167.60938 195.67188Q167.40625 196.25 167.03125 196.6875Q166.65625 197.125 166.125 197.375Q165.59375 197.625 164.92188 197.625Q164.26562 197.625 163.71875 197.375Q163.1875 197.125 162.8125 196.6875Q162.4375 196.25 162.23438 195.67188Q162.04688 195.07812 162.04688 194.40625ZM163.125 194.26562L163.125 194.40625Q163.125 194.875 163.23438 195.29688Q163.34375 195.71875 163.5625 196.04688Q163.79688 196.35938 164.14062 196.54688Q164.48438 196.71875 164.92188 196.71875Q165.375 196.71875 165.70312 196.54688Q166.04688 196.35938 166.26562 196.04688Q166.5 195.71875 166.60938 195.29688Q166.71875 194.875 166.71875 194.40625L166.71875 194.26562Q166.71875 193.79688 166.60938 193.375Q166.5 192.95312 166.26562 192.64062Q166.04688 192.3125 165.70312 192.125Q165.375 191.9375 164.92188 191.9375Q164.46875 191.9375 164.125 192.125Q163.79688 192.3125 163.5625 192.64062Q163.34375 192.95312 163.23438 193.375Q163.125 193.79688 163.125 194.26562ZM170.40625 192.51562L170.40625 197.5L169.32812 197.5L169.32812 191.15625L170.35938 191.15625L170.40625 192.51562ZM170.15625 194.09375L169.70312 194.07812Q169.70312 193.42188 169.89062 192.875Q170.07812 192.3125 170.42188 191.90625Q170.76562 191.5 171.23438 191.28125Q171.70312 191.04688 172.28125 191.04688Q172.75 191.04688 173.125 191.17188Q173.5 191.29688 173.76562 191.57812Q174.03125 191.84375 174.17188 192.28125Q174.3125 192.71875 174.3125 193.34375L174.3125 197.5L173.21875 197.5L173.21875 193.32812Q173.21875 192.82812 173.07812 192.53125Q172.9375 192.23438 172.65625 192.09375Q172.375 191.95312 171.95312 191.95312Q171.54688 191.95312 171.21875 192.125Q170.89062 192.29688 170.65625 192.59375Q170.42188 192.89062 170.28125 193.28125Q170.15625 193.65625 170.15625 194.09375ZM180.01562 195.8125Q180.01562 195.57812 179.90625 195.375Q179.8125 195.17188 179.5 195.01562Q179.1875 194.84375 178.5625 194.71875Q178.03125 194.60938 177.60938 194.46875Q177.1875 194.3125 176.89062 194.09375Q176.59375 193.875 176.4375 193.57812Q176.28125 193.28125 176.28125 192.89062Q176.28125 192.51562 176.4375 192.1875Q176.60938 191.84375 176.90625 191.59375Q177.21875 191.32812 177.65625 191.1875Q178.09375 191.04688 178.625 191.04688Q179.39062 191.04688 179.92188 191.3125Q180.46875 191.57812 180.75 192.03125Q181.03125 192.48438 181.03125 193.01562L179.95312 193.01562Q179.95312 192.76562 179.79688 192.51562Q179.64062 192.26562 179.34375 192.10938Q179.04688 191.9375 178.625 191.9375Q178.17188 191.9375 177.89062 192.07812Q177.60938 192.20312 177.48438 192.42188Q177.35938 192.625 177.35938 192.85938Q177.35938 193.04688 177.42188 193.1875Q177.48438 193.3125 177.64062 193.4375Q177.79688 193.54688 178.07812 193.65625Q178.375 193.75 178.82812 193.84375Q179.60938 194.01562 180.10938 194.26562Q180.60938 194.51562 180.85938 194.875Q181.10938 195.21875 181.10938 195.73438Q181.10938 196.15625 180.92188 196.5Q180.75 196.84375 180.42188 197.09375Q180.10938 197.34375 179.65625 197.48438Q179.20312 197.625 178.65625 197.625Q177.8125 197.625 177.23438 197.32812Q176.65625 197.01562 176.35938 196.54688Q176.0625 196.0625 176.0625 195.54688L177.14062 195.54688Q177.17188 195.98438 177.40625 196.25Q177.64062 196.51562 177.96875 196.625Q178.3125 196.71875 178.65625 196.71875Q179.09375 196.71875 179.39062 196.60938Q179.70312 196.48438 179.85938 196.28125Q180.01562 196.07812 180.01562 195.8125ZM184.98438 191.15625L184.98438 191.98438L181.54688 191.98438L181.54688 191.15625L184.98438 191.15625ZM182.71875 189.625L183.79688 189.625L183.79688 195.92188Q183.79688 196.25 183.89062 196.42188Q184.0 196.57812 184.15625 196.64062Q184.3125 196.6875 184.5 196.6875Q184.625 196.6875 184.76562 196.65625Q184.92188 196.625 185.0 196.60938L185.01562 197.5Q184.875 197.54688 184.67188 197.57812Q184.46875 197.625 184.17188 197.625Q183.78125 197.625 183.4375 197.46875Q183.10938 197.29688 182.90625 196.9375Q182.71875 196.5625 182.71875 195.92188L182.71875 189.625ZM187.5 191.15625L187.5 197.5L186.42188 197.5L186.42188 191.15625L187.5 191.15625ZM186.32812 189.48438Q186.32812 189.21875 186.48438 189.03125Q186.65625 188.84375 186.96875 188.84375Q187.28125 188.84375 187.4375 189.03125Q187.60938 189.21875 187.60938 189.48438Q187.60938 189.73438 187.4375 189.92188Q187.28125 190.09375 186.96875 190.09375Q186.65625 190.09375 186.48438 189.92188Q186.32812 189.73438 186.32812 189.48438ZM193.4375 191.15625L194.42188 191.15625L194.42188 197.35938Q194.42188 198.20312 194.07812 198.79688Q193.73438 199.39062 193.125 199.6875Q192.53125 200.0 191.73438 200.0Q191.40625 200.0 190.95312 199.89062Q190.51562 199.79688 190.09375 199.54688Q189.67188 199.3125 189.39062 198.90625L189.95312 198.25Q190.35938 198.73438 190.78125 198.92188Q191.21875 199.10938 191.65625 199.10938Q192.17188 199.10938 192.54688 198.90625Q192.92188 198.71875 193.125 198.34375Q193.32812 197.96875 193.32812 197.42188L193.32812 192.54688L193.4375 191.15625ZM189.0625 194.40625L189.0625 194.28125Q189.0625 193.54688 189.23438 192.95312Q189.42188 192.35938 189.73438 191.9375Q190.0625 191.5 190.51562 191.28125Q190.98438 191.04688 191.57812 191.04688Q192.17188 191.04688 192.60938 191.25Q193.0625 191.45312 193.375 191.85938Q193.6875 192.25 193.875 192.8125Q194.0625 193.35938 194.125 194.0625L194.125 194.60938Q194.0625 195.29688 193.875 195.85938Q193.6875 196.42188 193.375 196.8125Q193.0625 197.20312 192.60938 197.42188Q192.15625 197.625 191.5625 197.625Q190.98438 197.625 190.53125 197.39062Q190.07812 197.14062 189.75 196.70312Q189.42188 196.26562 189.23438 195.6875Q189.0625 195.09375 189.0625 194.40625ZM190.15625 194.28125L190.15625 194.40625Q190.15625 194.875 190.25 195.29688Q190.34375 195.70312 190.54688 196.03125Q190.75 196.34375 191.0625 196.53125Q191.39062 196.70312 191.82812 196.70312Q192.35938 196.70312 192.70312 196.46875Q193.0625 196.23438 193.26562 195.85938Q193.48438 195.48438 193.59375 195.04688L193.59375 193.64062Q193.53125 193.3125 193.39062 193.01562Q193.26562 192.71875 193.0625 192.48438Q192.85938 192.23438 192.54688 192.09375Q192.25 191.95312 191.82812 191.95312Q191.39062 191.95312 191.0625 192.14062Q190.75 192.32812 190.54688 192.65625Q190.34375 192.96875 190.25 193.39062Q190.15625 193.79688 190.15625 194.28125ZM198.95312 197.625Q198.29688 197.625 197.75 197.40625Q197.21875 197.17188 196.82812 196.76562Q196.45312 196.34375 196.25 195.78125Q196.04688 195.21875 196.04688 194.54688L196.04688 194.3125Q196.04688 193.53125 196.26562 192.92188Q196.5 192.3125 196.89062 191.89062Q197.28125 191.46875 197.78125 191.26562Q198.28125 191.04688 198.8125 191.04688Q199.5 191.04688 199.98438 191.28125Q200.48438 191.51562 200.79688 191.9375Q201.125 192.34375 201.26562 192.92188Q201.42188 193.48438 201.42188 194.14062L201.42188 194.64062L196.6875 194.64062L196.6875 193.75L200.34375 193.75L200.34375 193.67188Q200.3125 193.25 200.15625 192.85938Q200.01562 192.45312 199.6875 192.20312Q199.375 191.9375 198.8125 191.9375Q198.45312 191.9375 198.14062 192.09375Q197.82812 192.25 197.59375 192.5625Q197.375 192.85938 197.25 193.29688Q197.14062 193.73438 197.14062 194.3125L197.14062 194.54688Q197.14062 195.0 197.26562 195.40625Q197.39062 195.79688 197.625 196.09375Q197.875 196.39062 198.21875 196.5625Q198.57812 196.73438 199.01562 196.73438Q199.59375 196.73438 199.98438 196.5Q200.39062 196.26562 200.6875 195.875L201.34375 196.39062Q201.14062 196.70312 200.8125 196.98438Q200.5 197.26562 200.03125 197.45312Q199.57812 197.625 198.95312 197.625Z" fill-rule="nonzero"/><path stroke="#cccccc" stroke-width="1.0" stroke-linecap="butt" d="M372.0 305.0L372.0 103.0" fill-rule="nonzero"/><path stroke="#ff0000" stroke-width="2.0" stroke-linecap="butt" stroke-opacity="0.7019608" stroke-dasharray="8.0,6.0,2.0,6.0" d="M372.0 129.0L429.0 272.0L424.0 335.0L372.0 366.0L324.0 333.0L298.0 262.0Z" fill-rule="nonzero"/><path fill="#ff0000" fill-opacity="0.7019608" d="M368.81802 125.818016L372.0 127.875L375.18198 125.818016L373.125 129.0L375.18198 132.18198L372.0 130.125L368.81802 132.18198L370.875 129.0Z" fill-rule="nonzero"/><path fill="#ff0000" fill-opacity="0.7019608" d="M425.81802 268.81802L429.0 270.875L432.18198 268.81802L430.125 272.0L432.18198 275.18198L429.0 273.125L425.81802 275.18198L427.875 272.0Z" fill-rule="nonzero"/><path fill="#ff0000" fill-opacity="0.7019608" d="M420.81802 331.81802L424.0 333.875L427.18198 331.81802L425.125 335.0L427.18198 338.18198L424.0 336.125L420.81802 338.18198L422.875 335.0Z" fill-rule="nonzero"/><path fill="#ff0000" fill-opacity="0.7019608" d="M368.81802 362.81802L372.0 364.875L375.18198 362.81802L373.125 366.0L375.18198 369.18198L372.0 367.125L368.81802 369.18198L370.875 366.0Z" fill-rule="nonzero"/><path fill="#ff0000" fill-opacity="0.7019608" d="M320.81802 329.81802L324.0 331.875L327.18198 329.81802L325.125 333.0L327.18198 336.18198L324.0 334.125L320.81802 336.18198L322.875 333.0Z" fill-rule="nonzero"/><path fill="#ff0000" fill-opacity="0.7019608" d="M294.81802 258.81802L298.0 260.875L301.18198 258.81802L299.125 262.0L301.18198 265.18198L298.0 263.125L294.81802 265.18198L296.875 262.0Z" fill-rule="nonzero"/><path fill="#757575" d="M29.31875 40.38125Q29.31875 36.81875 31.225 34.803123Q33.146873 32.771873 36.178123 32.771873Q38.1625 32.771873 39.740623 33.725Q41.334373 34.678123 42.1625 36.38125Q43.00625 38.06875 43.00625 40.209373Q43.00625 42.38125 42.13125 44.1Q41.25625 45.81875 39.63125 46.709373Q38.021873 47.6 36.1625 47.6Q34.146873 47.6 32.553123 46.63125Q30.959375 45.646873 30.13125 43.959373Q29.31875 42.25625 29.31875 40.38125ZM31.271875 40.4125Q31.271875 42.990623 32.6625 44.490623Q34.053123 45.975 36.146873 45.975Q38.2875 45.975 39.6625 44.475Q41.053123 42.959373 41.053123 40.19375Q41.053123 38.459373 40.459373 37.1625Q39.88125 35.85 38.740623 35.13125Q37.6 34.4125 36.178123 34.4125Q34.178123 34.4125 32.725 35.803123Q31.271875 37.178123 31.271875 40.4125ZM45.646873 47.35L45.646873 36.975L47.225 36.975L47.225 38.553123Q47.834373 37.44375 48.35 37.1Q48.865623 36.740623 49.475 36.740623Q50.365623 36.740623 51.2875 37.303123L50.678123 38.94375Q50.0375 38.553123 49.396873 38.553123Q48.81875 38.553123 48.35 38.9125Q47.896873 39.25625 47.69375 39.865623Q47.4125 40.803123 47.4125 41.9125L47.4125 47.35L45.646873 47.35ZM59.44375 46.06875Q58.459373 46.896873 57.553123 47.240623Q56.646873 47.584373 55.615623 47.584373Q53.9125 47.584373 52.990623 46.75625Q52.06875 45.9125 52.06875 44.615623Q52.06875 43.85 52.4125 43.225Q52.771873 42.6 53.334373 42.225Q53.896873 41.834373 54.6 41.63125Q55.115623 41.50625 56.1625 41.365623Q58.2875 41.115623 59.2875 40.771873Q59.303123 40.4125 59.303123 40.303123Q59.303123 39.240623 58.803123 38.7875Q58.13125 38.19375 56.803123 38.19375Q55.553123 38.19375 54.959373 38.63125Q54.38125 39.06875 54.1 40.178123L52.38125 39.94375Q52.615623 38.834373 53.146873 38.1625Q53.678123 37.475 54.69375 37.115623Q55.709373 36.740623 57.053123 36.740623Q58.38125 36.740623 59.209373 37.053123Q60.0375 37.365623 60.428123 37.85Q60.81875 38.31875 60.975 39.0375Q61.06875 39.490623 61.06875 40.6625L61.06875 43.00625Q61.06875 45.459373 61.178123 46.115623Q61.2875 46.75625 61.63125 47.35L59.7875 47.35Q59.521873 46.803123 59.44375 46.06875ZM59.2875 42.146873Q58.334373 42.5375 56.4125 42.803123Q55.334373 42.959373 54.88125 43.1625Q54.44375 43.35 54.19375 43.725Q53.94375 44.1 53.94375 44.56875Q53.94375 45.271873 54.475 45.740623Q55.00625 46.209373 56.0375 46.209373Q57.053123 46.209373 57.834373 45.771873Q58.63125 45.31875 59.00625 44.553123Q59.2875 43.94375 59.2875 42.7875L59.2875 42.146873ZM63.6625 47.35L63.6625 36.975L65.25625 36.975L65.25625 38.459373Q66.39687 36.740623 68.55312 36.740623Q69.49062 36.740623 70.27187 37.084373Q71.06875 37.4125 71.45937 37.959373Q71.85 38.50625 72.00625 39.25625Q72.1 39.75625 72.1 40.975L72.1 47.35L70.33437 47.35L70.33437 41.0375Q70.33437 39.959373 70.13125 39.428123Q69.92812 38.896873 69.39687 38.584373Q68.88125 38.271873 68.17812 38.271873Q67.05312 38.271873 66.24062 38.990623Q65.42812 39.69375 65.42812 41.678123L65.42812 47.35L63.6625 47.35ZM74.35 48.209373L76.05312 48.459373Q76.1625 49.25625 76.64687 49.615623Q77.30312 50.1 78.44375 50.1Q79.6625 50.1 80.31875 49.615623Q80.99062 49.13125 81.225 48.25625Q81.36562 47.709373 81.35 45.990623Q80.19375 47.35 78.475 47.35Q76.33437 47.35 75.1625 45.803123Q73.99062 44.25625 73.99062 42.1Q73.99062 40.615623 74.52187 39.365623Q75.06875 38.115623 76.08437 37.428123Q77.11562 36.740623 78.49062 36.740623Q80.31875 36.740623 81.52187 38.225L81.52187 36.975L83.13125 36.975L83.13125 45.94375Q83.13125 48.365623 82.63125 49.365623Q82.14687 50.38125 81.06875 50.959373Q80.00625 51.553123 78.44375 51.553123Q76.6 51.553123 75.44375 50.725Q74.30312 49.896873 74.35 48.209373ZM75.80312 41.975Q75.80312 44.021873 76.61562 44.959373Q77.42812 45.896873 78.64687 45.896873Q79.85 45.896873 80.6625 44.959373Q81.49062 44.021873 81.49062 42.0375Q81.49062 40.13125 80.64687 39.1625Q79.80312 38.19375 78.61562 38.19375Q77.44375 38.19375 76.61562 39.146873Q75.80312 40.1 75.80312 41.975ZM92.77187 44.00625L94.58437 44.240623Q94.1625 45.81875 92.99062 46.709373Q91.83437 47.584373 90.02187 47.584373Q87.75625 47.584373 86.4125 46.19375Q85.08437 44.7875 85.08437 42.25625Q85.08437 39.63125 86.42812 38.19375Q87.77187 36.740623 89.92812 36.740623Q92.00625 36.740623 93.31875 38.1625Q94.64687 39.56875 94.64687 42.146873Q94.64687 42.303123 94.63125 42.615623L86.89687 42.615623Q86.99062 44.31875 87.86562 45.225Q88.74062 46.13125 90.0375 46.13125Q91.00625 46.13125 91.67812 45.63125Q92.36562 45.115623 92.77187 44.00625ZM86.99062 41.1625L92.7875 41.1625Q92.67812 39.865623 92.13125 39.209373Q91.2875 38.19375 89.94375 38.19375Q88.74062 38.19375 87.9125 39.00625Q87.08437 39.803123 86.99062 41.1625ZM102.25625 42.75625L104.0375 42.6Q104.1625 43.6625 104.61562 44.35Q105.08437 45.0375 106.05312 45.475Q107.0375 45.896873 108.27187 45.896873Q109.35 45.896873 110.17812 45.584373Q111.00625 45.25625 111.4125 44.69375Q111.81875 44.13125 111.81875 43.459373Q111.81875 42.7875 111.42812 42.2875Q111.0375 41.7875 110.14687 41.44375Q109.56875 41.209373 107.58437 40.740623Q105.61562 40.271873 104.83437 39.85Q103.80312 39.31875 103.30312 38.521873Q102.80312 37.725 102.80312 36.740623Q102.80312 35.646873 103.4125 34.709373Q104.02187 33.771873 105.20937 33.2875Q106.39687 32.7875 107.83437 32.7875Q109.42812 32.7875 110.64687 33.303123Q111.86562 33.81875 112.50625 34.81875Q113.1625 35.803123 113.20937 37.06875L111.39687 37.209373Q111.25625 35.85 110.4125 35.1625Q109.56875 34.459373 107.9125 34.459373Q106.19375 34.459373 105.39687 35.1Q104.61562 35.725 104.61562 36.6Q104.61562 37.38125 105.17812 37.88125Q105.725 38.38125 108.0375 38.896873Q110.35 39.4125 111.20937 39.803123Q112.45937 40.38125 113.05312 41.271873Q113.64687 42.146873 113.64687 43.303123Q113.64687 44.44375 112.99062 45.459373Q112.33437 46.475 111.1 47.0375Q109.88125 47.6 108.35 47.6Q106.4125 47.6 105.1 47.0375Q103.7875 46.459373 103.0375 45.31875Q102.2875 44.178123 102.25625 42.75625ZM115.6625 47.35L115.6625 33.0375L117.42812 33.0375L117.42812 38.1625Q118.6625 36.740623 120.5375 36.740623Q121.67812 36.740623 122.52187 37.19375Q123.38125 37.646873 123.74062 38.459373Q124.11562 39.25625 124.11562 40.771873L124.11562 47.35L122.36562 47.35L122.36562 40.771873Q122.36562 39.459373 121.7875 38.865623Q121.20937 38.25625 120.17812 38.25625Q119.39687 38.25625 118.69375 38.6625Q118.00625 39.06875 117.70937 39.771873Q117.42812 40.459373 117.42812 41.678123L117.42812 47.35L115.6625 47.35ZM133.77188 44.00625L135.58438 44.240623Q135.1625 45.81875 133.99063 46.709373Q132.83438 47.584373 131.02188 47.584373Q128.75626 47.584373 127.4125 46.19375Q126.08437 44.7875 126.08437 42.25625Q126.08437 39.63125 127.42812 38.19375Q128.77188 36.740623 130.92813 36.740623Q133.00626 36.740623 134.31876 38.1625Q135.64688 39.56875 135.64688 42.146873Q135.64688 42.303123 135.63126 42.615623L127.89687 42.615623Q127.99062 44.31875 128.86563 45.225Q129.74063 46.13125 131.0375 46.13125Q132.00626 46.13125 132.67813 45.63125Q133.36563 45.115623 133.77188 44.00625ZM127.99062 41.1625L133.7875 41.1625Q133.67813 39.865623 133.13126 39.209373Q132.2875 38.19375 130.94376 38.19375Q129.74063 38.19375 128.9125 39.00625Q128.08438 39.803123 127.99062 41.1625ZM137.64688 47.35L137.64688 36.975L139.225 36.975L139.225 38.553123Q139.83438 37.44375 140.35 37.1Q140.86563 36.740623 141.475 36.740623Q142.36563 36.740623 143.2875 37.303123L142.67813 38.94375Q142.0375 38.553123 141.39688 38.553123Q140.81876 38.553123 140.35 38.9125Q139.89688 39.25625 139.69376 39.865623Q139.4125 40.803123 139.4125 41.9125L139.4125 47.35L137.64688 47.35ZM146.2875 47.35L144.6625 47.35L144.6625 33.0375L146.4125 33.0375L146.4125 38.146873Q147.5375 36.740623 149.25626 36.740623Q150.20938 36.740623 151.06876 37.13125Q151.92813 37.521873 152.475 38.225Q153.02188 38.9125 153.33438 39.896873Q153.64688 40.88125 153.64688 42.00625Q153.64688 44.678123 152.33438 46.13125Q151.02188 47.584373 149.17813 47.584373Q147.33438 47.584373 146.2875 46.053123L146.2875 47.35ZM146.27188 42.084373Q146.27188 43.94375 146.77188 44.7875Q147.61563 46.13125 149.02188 46.13125Q150.17813 46.13125 151.00626 45.13125Q151.85 44.13125 151.85 42.146873Q151.85 40.115623 151.0375 39.1625Q150.24063 38.19375 149.1 38.19375Q147.94376 38.19375 147.1 39.19375Q146.27188 40.19375 146.27188 42.084373ZM162.77188 44.00625L164.58438 44.240623Q164.1625 45.81875 162.99063 46.709373Q161.83438 47.584373 160.02188 47.584373Q157.75626 47.584373 156.4125 46.19375Q155.08438 44.7875 155.08438 42.25625Q155.08438 39.63125 156.42813 38.19375Q157.77188 36.740623 159.92813 36.740623Q162.00626 36.740623 163.31876 38.1625Q164.64688 39.56875 164.64688 42.146873Q164.64688 42.303123 164.63126 42.615623L156.89688 42.615623Q156.99063 44.31875 157.86563 45.225Q158.74063 46.13125 160.0375 46.13125Q161.00626 46.13125 161.67813 45.63125Q162.36563 45.115623 162.77188 44.00625ZM156.99063 41.1625L162.7875 41.1625Q162.67813 39.865623 162.13126 39.209373Q161.2875 38.19375 159.94376 38.19375Q158.74063 38.19375 157.9125 39.00625Q157.08438 39.803123 156.99063 41.1625ZM166.64688 47.35L166.64688 36.975L168.225 36.975L168.225 38.553123Q168.83438 37.44375 169.35 37.1Q169.86563 36.740623 170.475 36.740623Q171.36563 36.740623 172.2875 37.303123L171.67813 38.94375Q171.0375 38.553123 170.39688 38.553123Q169.81876 38.553123 169.35 38.9125Q168.89688 39.25625 168.69376 39.865623Q168.4125 40.803123 168.4125 41.9125L168.4125 47.35L166.64688 47.35ZM177.50626 45.771873L177.75626 47.334373Q177.02188 47.490623 176.42813 47.490623Q175.475 47.490623 174.94376 47.19375Q174.42813 46.88125 174.20938 46.396873Q173.99063 45.896873 173.99063 44.31875L173.99063 38.35L172.70938 38.35L172.70938 36.975L173.99063 36.975L173.99063 34.4125L175.74063 33.35L175.74063 36.975L177.50626 36.975L177.50626 38.35L175.74063 38.35L175.74063 44.4125Q175.74063 45.1625 175.83438 45.38125Q175.92813 45.584373 176.13126 45.725Q176.35 45.85 176.74063 45.85Q177.02188 45.85 177.50626 45.771873Z" fill-rule="nonzero"/></svg>