<svg version="1.1" viewBox="0.0 0.0 744.0 567.0" fill="none" stroke="none" stroke-linecap="square" stroke-miterlimit="10" width="744" height="567" xmlns:xlink="http://www.w3.org/1999/xlink" xmlns="http://www.w3.org/2000/svg"><path fill="#ffffff" d="M0 0L744.0 0L744.0 567.0L0 567.0L0 0Z" fill-rule="nonzero"/><path fill="#ffffff" d="M28.35 71.25L715.64996 71.25L715.64996 538.65L28.35 538.65L28.35 71.25Z" fill-rule="nonzero"/><path stroke="#cccccc" stroke-width="1.0" stroke-linecap="butt" d="M372.0 305.0C372.0 305.0 372.0 305.0 372.0 305.0C372.0 305.0 372.0 305.0 372.0 305.0C372.0 305.0 372.0 305.0 372.0 305.0C372.0 305.0 372.0 305.0 372.0 305.0" fill-rule="nonzero"/><path fill="#000000" d="M360.0625 297.04688L360.0625 298.35938Q360.0625 299.40625 359.875 300.125Q359.6875 300.84375 359.32812 301.28125Q358.98438 301.71875 358.48438 301.92188Q358.0 302.125 357.375 302.125Q356.89062 302.125 356.46875 302.0Q356.04688 301.875 355.71875 301.60938Q355.39062 301.32812 355.15625 300.89062Q354.92188 300.45312 354.79688 299.82812Q354.67188 299.1875 354.67188 298.35938L354.67188 297.04688Q354.67188 296.0 354.85938 295.29688Q355.0625 294.59375 355.40625 294.15625Q355.76562 293.71875 356.25 293.53125Q356.75 293.34375 357.35938 293.34375Q357.85938 293.34375 358.28125 293.46875Q358.70312 293.59375 359.03125 293.85938Q359.35938 294.10938 359.57812 294.54688Q359.8125 294.96875 359.9375 295.59375Q360.0625 296.21875 360.0625 297.04688ZM358.96875 298.53125L358.96875 296.875Q358.96875 296.29688 358.90625 295.85938Q358.84375 295.42188 358.70312 295.10938Q358.57812 294.79688 358.375 294.60938Q358.1875 294.42188 357.9375 294.32812Q357.6875 294.23438 357.35938 294.23438Q356.98438 294.23438 356.67188 294.375Q356.375 294.51562 356.17188 294.82812Q355.96875 295.14062 355.85938 295.65625Q355.76562 296.15625 355.76562 296.875L355.76562 298.53125Q355.76562 299.10938 355.82812 299.54688Q355.90625 299.98438 356.03125 300.3125Q356.17188 300.625 356.35938 300.82812Q356.5625 301.03125 356.8125 301.125Q357.0625 301.21875 357.375 301.21875Q357.78125 301.21875 358.07812 301.07812Q358.375 300.92188 358.57812 300.59375Q358.78125 300.26562 358.875 299.76562Q358.96875 299.25 358.96875 298.53125ZM362.8125 300.70312L362.8125 301.57812Q362.8125 302.125 362.53125 302.71875Q362.26562 303.3125 361.78125 303.70312L361.17188 303.28125Q361.35938 303.01562 361.48438 302.75Q361.60938 302.48438 361.67188 302.20312Q361.75 301.92188 361.75 301.59375L361.75 300.70312L362.8125 300.70312ZM369.0625 297.04688L369.0625 298.35938Q369.0625 299.40625 368.875 300.125Q368.6875 300.84375 368.32812 301.28125Q367.98438 301.71875 367.48438 301.92188Q367.0 302.125 366.375 302.125Q365.89062 302.125 365.46875 302.0Q365.04688 301.875 364.71875 301.60938Q364.39062 301.32812 364.15625 300.89062Q363.92188 300.45312 363.79688 299.82812Q363.67188 299.1875 363.67188 298.35938L363.67188 297.04688Q363.67188 296.0 363.85938 295.29688Q364.0625 294.59375 364.40625 294.15625Q364.76562 293.71875 365.25 293.53125Q365.75 293.34375 366.35938 293.34375Q366.85938 293.34375 367.28125 293.46875Q367.70312 293.59375 368.03125 293.85938Q368.35938 294.10938 368.57812 294.54688Q368.8125 294.96875 368.9375 295.59375Q369.0625 296.21875 369.0625 297.04688ZM367.96875 298.53125L367.96875 296.875Q367.96875 296.29688 367.90625 295.85938Q367.84375 295.42188 367.70312 295.10938Q367.57812 294.79688 367.375 294.60938Q367.1875 294.42188 366.9375 294.32812Q366.6875 294.23438 366.35938 294.23438Q365.98438 294.23438 365.67188 294.375Q365.375 294.51562 365.17188 294.82812Q364.96875 295.14062 364.85938 295.65625Q364.76562 296.15625 364.76562 296.875L364.76562 298.53125Q364.76562 299.10938 364.82812 299.54688Q364.90625 299.98438 365.03125 300.3125Q365.17188 300.625 365.35938 300.82812Q365.5625 301.03125 365.8125 301.125Q366.0625 301.21875 366.375 301.21875Q366.78125 301.21875 367.07812 301.07812Q367.375 300.92188 367.57812 300.59375Q367.78125 300.26562 367.875 299.76562Q367.96875 299.25 367.96875 298.53125Z" fill-rule="nonzero"/><path stroke="#cccccc" stroke-width="1.0" stroke-linecap="butt" d="M422.425 305.0C422.425 277.15103 399.84897 254.575 372.0 254.575C344.15103 254.575 321.575 277.15103 321.575 305.0C321.575 332.84897 344.15103 355.425 372.0 355.425C399.84897 355.425 422.425 332.84897 422.425 305.0" fill-rule="nonzero"/><path fill="#000000" d="M360.0625 246.62187L360.0625 247.93437Q360.0625 248.98125 359.875 249.7Q359.6875 250.41875 359.32812 250.85625Q358.98438 251.29375 358.48438 251.49687Q358.0 251.7 357.375 251.7Q356.89062 251.7 356.46875 251.575Q356.04688 251.45 355.71875 251.18437Q355.39062 250.90312 355.15625 250.46562Q354.92188 250.02812 354.79688 249.40312Q354.67188 248.7625 354.67188 247.93437L354.67188 246.62187Q354.67188 245.575 354.85938 244.87187Q355.0625 244.16875 355.40625 243.73125Q355.76562 243.29375 356.25 243.10625Q356.75 242.91875 357.35938 242.91875Q357.85938 242.91875 358.28125 243.04375Q358.70312 243.16875 359.03125 243.43437Q359.35938 243.68437 359.57812 244.12187Q359.8125 244.54375 359.9375 245.16875Q360.0625 245.79375 360.0625 246.62187ZM358.96875 248.10625L358.96875 246.45Q358.96875 245.87187 358.90625 245.43437Q358.84375 244.99687 358.70312 244.68437Q358.57812 244.37187 358.375 244.18437Q358.1875 243.99687 357.9375 243.90312Q357.6875 243.80937 357.35938 243.80937Q356.98438 243.80937 356.67188 243.95Q356.375 244.09062 356.17188 244.40312Q355.96875 244.71562 355.85938 245.23125Q355.76562 245.73125 355.76562 246.45L355.76562 248.10625Q355.76562 248.68437 355.82812 249.12187Q355.90625 249.55937 356.03125 249.8875Q356.17188 250.2 356.35938 250.40312Q356.5625 250.60625 356.8125 250.7Q357.0625 250.79375 357.375 250.79375Q357.78125 250.79375 358.07812 250.65312Q358.375 250.49687 358.57812 250.16875Q358.78125 249.84062 358.875 249.34062Q358.96875 248.825 358.96875 248.10625ZM362.8125 250.27812L362.8125 251.15312Q362.8125 251.7 362.53125 252.29375Q362.26562 252.8875 361.78125 253.27812L361.17188 252.85625Q361.35938 252.59062 361.48438 252.325Q361.60938 252.05937 361.67188 251.77812Q361.75 251.49687 361.75 251.16875L361.75 250.27812L362.8125 250.27812ZM367.26562 242.99687L367.26562 251.575L366.1875 251.575L366.1875 244.35625L364.0 245.15312L364.0 244.16875L367.10938 242.99687L367.26562 242.99687Z" fill-rule="nonzero"/><path stroke="#cccccc" stroke-width="1.0" stroke-linecap="butt" d="M472.85 305.0C472.85 249.30208 427.6979 204.15 372.0 204.15C316.3021 204.15 271.15 249.30208 271.15 305.0C271.15 360.6979 316.3021 405.85 372.0 405.85C427.6979 405.85 472.85 360.6979 472.85 305.0" fill-rule="nonzero"/><path fill="#000000" d="M360.0625 196.19687L360.0625 197.50937Q360.0625 198.55624 359.875 199.275Q359.6875 199.99374 359.32812 200.43124Q358.98438 200.86874 358.48438 201.07187Q358.0 201.275 357.375 201.275Q356.89062 201.275 356.46875 201.15Q356.04688 201.025 355.71875 200.75937Q355.39062 200.47812 355.15625 200.04062Q354.92188 199.60312 354.79688 198.97812Q354.67188 198.3375 354.67188 197.50937L354.67188 196.19687Q354.67188 195.15 354.85938 194.44687Q355.0625 193.74374 355.40625 193.30624Q355.76562 192.86874 356.25 192.68124Q356.75 192.49374 357.35938 192.49374Q357.85938 192.49374 358.28125 192.61874Q358.70312 192.74374 359.03125 193.00937Q359.35938 193.25937 359.57812 193.69687Q359.8125 194.11874 359.9375 194.74374Q360.0625 195.36874 360.0625 196.19687ZM358.96875 197.68124L358.96875 196.025Q358.96875 195.44687 358.90625 195.00937Q358.84375 194.57187 358.70312 194.25937Q358.57812 193.94687 358.375 193.75937Q358.1875 193.57187 357.9375 193.47812Q357.6875 193.38437 357.35938 193.38437Q356.98438 193.38437 356.67188 193.525Q356.375 193.66562 356.17188 193.97812Q355.96875 194.29062 355.85938 194.80624Q355.76562 195.30624 355.76562 196.025L355.76562 197.68124Q355.76562 198.25937 355.82812 198.69687Q355.90625 199.13437 356.03125 199.4625Q356.17188 199.775 356.35938 199.97812Q356.5625 200.18124 356.8125 200.275Q357.0625 200.36874 357.375 200.36874Q357.78125 200.36874 358.07812 200.22812Q358.375 200.07187 358.57812 199.74374Q358.78125 199.41562 358.875 198.91562Q358.96875 198.4 358.96875 197.68124ZM362.8125 199.85312L362.8125 200.72812Q362.8125 201.275 362.53125 201.86874Q362.26562 202.4625 361.78125 202.85312L361.17188 202.43124Q361.35938 202.16562 361.48438 201.9Q361.60938 201.63437 361.67188 201.35312Q361.75 201.07187 361.75 200.74374L361.75 199.85312L362.8125 199.85312ZM369.29688 200.25937L369.29688 201.15L363.71875 201.15L363.71875 200.36874L366.51562 197.25937Q367.03125 196.68124 367.3125 196.29062Q367.59375 195.88437 367.70312 195.57187Q367.82812 195.24374 367.82812 194.91562Q367.82812 194.49374 367.65625 194.15Q367.48438 193.80624 367.14062 193.60312Q366.8125 193.38437 366.32812 193.38437Q365.76562 193.38437 365.39062 193.61874Q365.01562 193.8375 364.82812 194.22812Q364.64062 194.61874 364.64062 195.11874L363.54688 195.11874Q363.54688 194.4 363.85938 193.80624Q364.1875 193.2125 364.79688 192.85312Q365.42188 192.49374 366.32812 192.49374Q367.14062 192.49374 367.71875 192.79062Q368.29688 193.07187 368.59375 193.5875Q368.90625 194.0875 368.90625 194.775Q368.90625 195.15 368.78125 195.54062Q368.65625 195.91562 368.4375 196.30624Q368.21875 196.68124 367.92188 197.05624Q367.64062 197.41562 367.3125 197.775L365.01562 200.25937L369.29688 200.25937Z" fill-rule="nonzero"/><path stroke="#cccccc" stroke-width="1.0" stroke-linecap="butt" d="M523.275 305.0C523.275 221.45312 455.54688 153.725 372.0 153.725C288.45312 153.725 220.725 221.45312 220.725 305.0C220.725 388.54688 288.45312 456.275 372.0 456.275C455.54688 456.275 523.275 388.54688 523.275 305.0" fill-rule="nonzero"/><path fill="#000000" d="M360.0625 145.77188L360.0625 147.08438Q360.0625 148.13126 359.875 148.85Q359.6875 149.56876 359.32812 150.00626Q358.98438 150.44376 358.48438 150.64688Q358.0 150.85 357.375 150.85Q356.89062 150.85 356.46875 150.725Q356.04688 150.6 355.71875 150.33438Q355.39062 150.05313 355.15625 149.61563Q354.92188 149.17813 354.79688 148.55313Q354.67188 147.9125 354.67188 147.08438L354.67188 145.77188Q354.67188 144.725 354.85938 144.02188Q355.0625 143.31876 355.40625 142.88126Q355.76562 142.44376 356.25 142.25626Q356.75 142.06876 357.35938 142.06876Q357.85938 142.06876 358.28125 142.19376Q358.70312 142.31876 359.03125 142.58438Q359.35938 142.83438 359.57812 143.27188Q359.8125 143.69376 359.9375 144.31876Q360.0625 144.94376 360.0625 145.77188ZM358.96875 147.25626L358.96875 145.6Q358.96875 145.02188 358.90625 144.58438Q358.84375 144.14688 358.70312 143.83438Q358.57812 143.52188 358.375 143.33438Q358.1875 143.14688 357.9375 143.05313Q357.6875 142.95938 357.35938 142.95938Q356.98438 142.95938 356.67188 143.1Q356.375 143.24063 356.17188 143.55313Q355.96875 143.86563 355.85938 144.38126Q355.76562 144.88126 355.76562 145.6L355.76562 147.25626Q355.76562 147.83438 355.82812 148.27188Q355.90625 148.70938 356.03125 149.0375Q356.17188 149.35 356.35938 149.55313Q356.5625 149.75626 356.8125 149.85Q357.0625 149.94376 357.375 149.94376Q357.78125 149.94376 358.07812 149.80313Q358.375 149.64688 358.57812 149.31876Q358.78125 148.99063 358.875 148.49063Q358.96875 147.975 358.96875 147.25626ZM362.8125 149.42813L362.8125 150.30313Q362.8125 150.85 362.53125 151.44376Q362.26562 152.0375 361.78125 152.42813L361.17188 152.00626Q361.35938 151.74063 361.48438 151.475Q361.60938 151.20938 361.67188 150.92813Q361.75 150.64688 361.75 150.31876L361.75 149.42813L362.8125 149.42813ZM365.29688 145.92813L366.0625 145.92813Q366.64062 145.92813 367.0 145.74063Q367.375 145.5375 367.5625 145.20938Q367.75 144.88126 367.75 144.45938Q367.75 143.975 367.57812 143.64688Q367.42188 143.30313 367.09375 143.13126Q366.76562 142.95938 366.26562 142.95938Q365.79688 142.95938 365.45312 143.14688Q365.10938 143.31876 364.90625 143.64688Q364.71875 143.975 364.71875 144.42813L363.625 144.42813Q363.625 143.77188 363.95312 143.24063Q364.28125 142.70938 364.875 142.39688Q365.46875 142.06876 366.26562 142.06876Q367.03125 142.06876 367.60938 142.35Q368.1875 142.61563 368.51562 143.1625Q368.84375 143.69376 368.84375 144.49063Q368.84375 144.81876 368.6875 145.17813Q368.53125 145.5375 368.21875 145.86563Q367.90625 146.17813 367.40625 146.38126Q366.92188 146.58438 366.21875 146.58438L365.29688 146.58438L365.29688 145.92813ZM365.29688 146.81876L365.29688 146.1625L366.21875 146.1625Q367.03125 146.1625 367.5625 146.36563Q368.09375 146.55313 368.40625 146.88126Q368.71875 147.19376 368.84375 147.58438Q368.96875 147.95938 368.96875 148.35Q368.96875 148.94376 368.76562 149.4125Q368.5625 149.86563 368.1875 150.19376Q367.82812 150.50626 367.32812 150.67813Q366.84375 150.85 366.26562 150.85Q365.70312 150.85 365.21875 150.69376Q364.73438 150.52188 364.35938 150.225Q363.98438 149.92813 363.76562 149.49063Q363.5625 149.0375 363.5625 148.475L364.64062 148.475Q364.64062 148.9125 364.82812 149.25626Q365.03125 149.58438 365.39062 149.77188Q365.76562 149.94376 366.26562 149.94376Q366.76562 149.94376 367.125 149.77188Q367.48438 149.6 367.67188 149.25626Q367.875 148.89688 367.875 148.36563Q367.875 147.83438 367.65625 147.49063Q367.4375 147.14688 367.01562 146.99063Q366.60938 146.81876 366.0625 146.81876L365.29688 146.81876Z" fill-rule="nonzero"/><path stroke="#cccccc" stroke-width="1.0" stroke-linecap="butt" d="M573.7 305.0C573.7 193.60417 483.39584 103.3 372.0 103.3C260.60416 103.3 170.3 193.60417 170.3 305.0C170.3 416.39584 260.60416 506.7 372.0 506.7C483.39584 506.7 573.7 416.39584 573.7 305.0" fill-rule="nonzero"/><path fill="#000000" d="M360.0625 95.34688L360.0625 96.65938Q360.0625 97.70625 359.875 98.425Q359.6875 99.14375 359.32812 99.58125Q358.98438 100.01875 358.48438 100.22188Q358.0 100.425 357.375 100.425Q356.89062 100.425 356.46875 100.3Q356.04688 100.175 355.71875 99.90938Q355.39062 99.62813 355.15625 99.19063Q354.92188 98.75313 354.79688 98.12813Q354.67188 97.4875 354.67188 96.65938L354.67188 95.34688Q354.67188 94.3 354.85938 93.59688Q355.0625 92.89375 355.40625 92.45625Q355.76562 92.01875 356.25 91.83125Q356.75 91.64375 357.35938 91.64375Q357.85938 91.64375 358.28125 91.76875Q358.70312 91.89375 359.03125 92.15938Q359.35938 92.40938 359.57812 92.84688Q359.8125 93.26875 359.9375 93.89375Q360.0625 94.51875 360.0625 95.34688ZM358.96875 96.83125L358.96875 95.175Q358.96875 94.59688 358.90625 94.15938Q358.84375 93.72188 358.70312 93.40938Q358.57812 93.09688 358.375 92.90938Q358.1875 92.72188 357.9375 92.62813Q357.6875 92.53438 357.35938 92.53438Q356.98438 92.53438 356.67188 92.675Q356.375 92.81563 356.17188 93.12813Q355.96875 93.44063 355.85938 93.95625Q355.76562 94.45625 355.76562 95.175L355.76562 96.83125Q355.76562 97.40938 355.82812 97.84688Q355.90625 98.28438 356.03125 98.6125Q356.17188 98.925 356.35938 99.12813Q356.5625 99.33125 356.8125 99.425Q357.0625 99.51875 357.375 99.51875Q357.78125 99.51875 358.07812 99.37813Q358.375 99.22188 358.57812 98.89375Q358.78125 98.56563 358.875 98.06563Q358.96875 97.55 358.96875 96.83125ZM362.8125 99.00313L362.8125 99.87813Q362.8125 100.425 362.53125 101.01875Q362.26562 101.6125 361.78125 102.00313L361.17188 101.58125Q361.35938 101.31563 361.48438 101.05Q361.60938 100.78438 361.67188 100.50313Q361.75 100.22188 361.75 99.89375L361.75 99.00313L362.8125 99.00313ZM369.46875 97.425L369.46875 98.31563L363.3125 98.31563L363.3125 97.675L367.125 91.76875L368.01562 91.76875L367.0625 93.47188L364.54688 97.425L369.46875 97.425ZM368.28125 91.76875L368.28125 100.3L367.20312 100.3L367.20312 91.76875L368.28125 91.76875Z" fill-rule="nonzero"/><path stroke="#cccccc" stroke-width="1.0" stroke-linecap="butt" d="M372.0 305.0L372.0 103.0" fill-rule="nonzero"/><path fill="#000000" d="M354.67188 76.578125L354.67188 77.5L350.40625 77.5L350.40625 76.578125L354.67188 76.578125ZM350.625 68.96875L350.625 77.5L349.48438 77.5L349.48438 68.96875L350.625 68.96875ZM356.5 71.15625L356.5 77.5L355.42188 77.5L355.42188 71.15625L356.5 71.15625ZM355.32812 69.484375Q355.32812 69.21875 355.48438 69.03125Q355.65625 68.84375 355.96875 68.84375Q356.28125 68.84375 356.4375 69.03125Q356.60938 69.21875 356.60938 69.484375Q356.60938 69.734375 356.4375 69.921875Q356.28125 70.09375 355.96875 70.09375Q355.65625 70.09375 355.48438 69.921875Q355.32812 69.734375 355.32812 69.484375ZM359.40625 72.421875L359.40625 77.5L358.3125 77.5L358.3125 71.15625L359.34375 71.15625L359.40625 72.421875ZM359.1875 74.09375L358.67188 74.078125Q358.6875 73.421875 358.84375 72.875Q359.01562 72.3125 359.32812 71.90625Q359.65625 71.5 360.14062 71.28125Q360.625 71.046875 361.25 71.046875Q361.70312 71.046875 362.07812 71.171875Q362.45312 71.296875 362.71875 71.5625Q363.0 71.828125 363.14062 72.25Q363.29688 72.671875 363.29688 73.28125L363.29688 77.5L362.21875 77.5L362.21875 73.328125Q362.21875 72.828125 362.04688 72.53125Q361.89062 72.234375 361.57812 72.09375Q361.28125 71.953125 360.85938 71.953125Q360.39062 71.953125 360.0625 72.125Q359.73438 72.296875 359.54688 72.59375Q359.35938 72.890625 359.26562 73.28125Q359.1875 73.65625 359.1875 74.09375ZM363.29688 73.484375L362.5625 73.71875Q362.5625 73.1875 362.73438 72.71875Q362.90625 72.234375 363.21875 71.859375Q363.54688 71.484375 364.01562 71.265625Q364.48438 71.046875 365.07812 71.046875Q365.59375 71.046875 365.98438 71.1875Q366.39062 71.3125 366.65625 71.59375Q366.92188 71.875 367.0625 72.3125Q367.20312 72.734375 367.20312 73.328125L367.20312 77.5L366.125 77.5L366.125 73.328125Q366.125 72.78125 365.95312 72.5Q365.78125 72.203125 365.48438 72.078125Q365.1875 71.953125 364.76562 71.953125Q364.40625 71.953125 364.125 72.078125Q363.85938 72.203125 363.67188 72.421875Q363.48438 72.625 363.39062 72.90625Q363.29688 73.1875 363.29688 73.484375ZM369.04688 74.40625L369.04688 74.265625Q369.04688 73.578125 369.23438 73.0Q369.4375 72.40625 369.8125 71.96875Q370.1875 71.53125 370.71875 71.296875Q371.25 71.046875 371.92188 71.046875Q372.57812 71.046875 373.10938 71.296875Q373.65625 71.53125 374.03125 71.96875Q374.40625 72.40625 374.60938 73.0Q374.8125 73.578125 374.8125 74.265625L374.8125 74.40625Q374.8125 75.078125 374.60938 75.671875Q374.40625 76.25 374.03125 76.6875Q373.65625 77.125 373.125 77.375Q372.59375 77.625 371.92188 77.625Q371.26562 77.625 370.71875 77.375Q370.1875 77.125 369.8125 76.6875Q369.4375 76.25 369.23438 75.671875Q369.04688 75.078125 369.04688 74.40625ZM370.125 74.265625L370.125 74.40625Q370.125 74.875 370.23438 75.296875Q370.34375 75.71875 370.5625 76.046875Q370.79688 76.359375 371.14062 76.546875Q371.48438 76.71875 371.92188 76.71875Q372.375 76.71875 372.70312 76.546875Q373.04688 76.359375 373.26562 76.046875Q373.5 75.71875 373.60938 75.296875Q373.71875 74.875 373.71875 74.40625L373.71875 74.265625Q373.71875 73.796875 373.60938 73.375Q373.5 72.953125 373.26562 72.640625Q373.04688 72.3125 372.70312 72.125Q372.375 71.9375 371.92188 71.9375Q371.46875 71.9375 371.125 72.125Q370.79688 72.3125 370.5625 72.640625Q370.34375 72.953125 370.23438 73.375Q370.125 73.796875 370.125 74.265625ZM377.40625 72.515625L377.40625 77.5L376.32812 77.5L376.32812 71.15625L377.35938 71.15625L377.40625 72.515625ZM377.15625 74.09375L376.70312 74.078125Q376.70312 73.421875 376.89062 72.875Q377.07812 72.3125 377.42188 71.90625Q377.76562 71.5 378.23438 71.28125Q378.70312 71.046875 379.28125 71.046875Q379.75 71.046875 380.125 71.171875Q380.5 71.296875 380.76562 71.578125Q381.03125 71.84375 381.17188 72.28125Q381.3125 72.71875 381.3125 73.34375L381.3125 77.5L380.21875 77.5L380.21875 73.328125Q380.21875 72.828125 380.07812 72.53125Q379.9375 72.234375 379.65625 72.09375Q379.375 71.953125 378.95312 71.953125Q378.54688 71.953125 378.21875 72.125Q377.89062 72.296875 377.65625 72.59375Q377.42188 72.890625 377.28125 73.28125Q377.15625 73.65625 377.15625 74.09375ZM385.95312 77.625Q385.29688 77.625 384.75 77.40625Q384.21875 77.171875 383.82812 76.765625Q383.45312 76.34375 383.25 75.78125Q383.04688 75.21875 383.04688 74.546875L383.04688 74.3125Q383.04688 73.53125 383.26562 72.921875Q383.5 72.3125 383.89062 71.890625Q384.28125 71.46875 384.78125 71.265625Q385.28125 71.046875 385.8125 71.046875Q386.5 71.046875 386.98438 71.28125Q387.48438 71.515625 387.79688 71.9375Q388.125 72.34375 388.26562 72.921875Q388.42188 73.484375 388.42188 74.140625L388.42188 74.640625L383.6875 74.640625L383.6875 73.75L387.34375 73.75L387.34375 73.671875Q387.3125 73.25 387.15625 72.859375Q387.01562 72.453125 386.6875 72.203125Q386.375 71.9375 385.8125 71.9375Q385.45312 71.9375 385.14062 72.09375Q384.82812 72.25 384.59375 72.5625Q384.375 72.859375 384.25 73.296875Q384.14062 73.734375 384.14062 74.3125L384.14062 74.546875Q384.14062 75.0 384.26562 75.40625Q384.39062 75.796875 384.625 76.09375Q384.875 76.390625 385.21875 76.5625Q385.57812 76.734375 386.01562 76.734375Q386.59375 76.734375 386.98438 76.5Q387.39062 76.265625 387.6875 75.875L388.34375 76.390625Q388.14062 76.703125 387.8125 76.984375Q387.5 77.265625 387.03125 77.453125Q386.57812 77.625 385.95312 77.625ZM390.40625 72.515625L390.40625 77.5L389.32812 77.5L389.32812 71.15625L390.35938 71.15625L390.40625 72.515625ZM390.15625 74.09375L389.70312 74.078125Q389.70312 73.421875 389.89062 72.875Q390.07812 72.3125 390.42188 71.90625Q390.76562 71.5 391.23438 71.28125Q391.70312 71.046875 392.28125 71.046875Q392.75 71.046875 393.125 71.171875Q393.5 71.296875 393.76562 71.578125Q394.03125 71.84375 394.17188 72.28125Q394.3125 72.71875 394.3125 73.34375L394.3125 77.5L393.21875 77.5L393.21875 73.328125Q393.21875 72.828125 393.07812 72.53125Q392.9375 72.234375 392.65625 72.09375Q392.375 71.953125 391.95312 71.953125Q391.54688 71.953125 391.21875 72.125Q390.89062 72.296875 390.65625 72.59375Q390.42188 72.890625 390.28125 73.28125Q390.15625 73.65625 390.15625 74.09375Z" fill-rule="nonzero"/><path stroke="#cccccc" stroke-width="1.0" stroke-linecap="butt" d="M372.0 305.0L547.0 204.0" fill-rule="nonzero"/><path fill="#000000" d="M554.84375 184.96875L555.9375 184.96875L558.7344 191.92188L561.53125 184.96875L562.625 184.96875L559.15625 193.5L558.3125 193.5L554.84375 184.96875ZM554.4844 184.96875L555.4531 184.96875L555.6094 190.17188L555.6094 193.5L554.4844 193.5L554.4844 184.96875ZM562.0156 184.96875L562.9844 184.96875L562.9844 193.5L561.8594 193.5L561.8594 190.17188L562.0156 184.96875ZM566.1094 192.84375L567.875 187.15625L569.03125 187.15625L566.4844 194.48438Q566.40625 194.71875 566.25 194.98438Q566.1094 195.26562 565.8906 195.5Q565.6719 195.75 565.3594 195.90625Q565.0469 196.0625 564.6094 196.0625Q564.4844 196.0625 564.28125 196.01562Q564.0781 195.98438 564.0 195.96875L564.0 195.09375Q564.0469 195.09375 564.1406 195.09375Q564.25 195.10938 564.28125 195.10938Q564.65625 195.10938 564.90625 195.01562Q565.1719 194.92188 565.34375 194.6875Q565.53125 194.46875 565.65625 194.07812L566.1094 192.84375ZM564.8125 187.15625L566.4531 192.07812L566.7344 193.21875L565.96875 193.625L563.625 187.15625L564.8125 187.15625ZM571.40625 188.15625L571.40625 193.5L570.3281 193.5L570.3281 187.15625L571.375 187.15625L571.40625 188.15625ZM573.3906 187.125L573.3906 188.125Q573.25 188.10938 573.125 188.09375Q573.0156 188.07812 572.8594 188.07812Q572.4844 188.07812 572.1875 188.20312Q571.90625 188.3125 571.7031 188.53125Q571.5156 188.73438 571.3906 189.03125Q571.28125 189.32812 571.25 189.67188L570.9375 189.84375Q570.9375 189.26562 571.0469 188.76562Q571.1719 188.26562 571.40625 187.875Q571.65625 187.48438 572.0156 187.26562Q572.3906 187.04688 572.90625 187.04688Q573.03125 187.04688 573.1719 187.07812Q573.3281 187.09375 573.3906 187.125ZM576.8594 192.71875Q577.25 192.71875 577.5781 192.5625Q577.90625 192.40625 578.1094 192.14062Q578.3281 191.85938 578.3594 191.5L579.3906 191.5Q579.3594 192.0625 579.0 192.54688Q578.65625 193.03125 578.09375 193.32812Q577.53125 193.625 576.8594 193.625Q576.15625 193.625 575.625 193.375Q575.09375 193.10938 574.7344 192.67188Q574.3906 192.23438 574.21875 191.67188Q574.0469 191.09375 574.0469 190.45312L574.0469 190.20312Q574.0469 189.5625 574.21875 189.0Q574.3906 188.42188 574.7344 187.98438Q575.09375 187.54688 575.625 187.29688Q576.15625 187.04688 576.8594 187.04688Q577.6094 187.04688 578.15625 187.34375Q578.71875 187.64062 579.03125 188.17188Q579.3594 188.6875 579.3906 189.34375L578.3594 189.34375Q578.3281 188.95312 578.1406 188.64062Q577.9531 188.3125 577.625 188.125Q577.2969 187.9375 576.8594 187.9375Q576.3594 187.9375 576.0156 188.14062Q575.6875 188.32812 575.4844 188.65625Q575.2969 188.98438 575.2031 189.39062Q575.125 189.79688 575.125 190.20312L575.125 190.45312Q575.125 190.875 575.2031 191.28125Q575.2969 191.67188 575.4844 192.0Q575.6875 192.32812 576.0156 192.53125Q576.3594 192.71875 576.8594 192.71875ZM582.9531 193.625Q582.2969 193.625 581.75 193.40625Q581.21875 193.17188 580.8281 192.76562Q580.4531 192.34375 580.25 191.78125Q580.0469 191.21875 580.0469 190.54688L580.0469 190.3125Q580.0469 189.53125 580.2656 188.92188Q580.5 188.3125 580.8906 187.89062Q581.28125 187.46875 581.78125 187.26562Q582.28125 187.04688 582.8125 187.04688Q583.5 187.04688 583.9844 187.28125Q584.4844 187.51562 584.7969 187.9375Q585.125 188.34375 585.2656 188.92188Q585.4219 189.48438 585.4219 190.14062L585.4219 190.64062L580.6875 190.64062L580.6875 189.75L584.34375 189.75L584.34375 189.67188Q584.3125 189.25 584.15625 188.85938Q584.0156 188.45312 583.6875 188.20312Q583.375 187.9375 582.8125 187.9375Q582.4531 187.9375 582.1406 188.09375Q581.8281 188.25 581.59375 188.5625Q581.375 188.85938 581.25 189.29688Q581.1406 189.73438 581.1406 190.3125L581.1406 190.54688Q581.1406 191.0 581.2656 191.40625Q581.3906 191.79688 581.625 192.09375Q581.875 192.39062 582.21875 192.5625Q582.5781 192.73438 583.0156 192.73438Q583.59375 192.73438 583.9844 192.5Q584.3906 192.26562 584.6875 191.875L585.34375 192.39062Q585.1406 192.70312 584.8125 192.98438Q584.5 193.26562 584.03125 193.45312Q583.5781 193.625 582.9531 193.625ZM587.40625 188.51562L587.40625 193.5L586.3281 193.5L586.3281 187.15625L587.3594 187.15625L587.40625 188.51562ZM587.15625 190.09375L586.7031 190.07812Q586.7031 189.42188 586.8906 188.875Q587.0781 188.3125 587.4219 187.90625Q587.7656 187.5 588.2344 187.28125Q588.7031 187.04688 589.28125 187.04688Q589.75 187.04688 590.125 187.17188Q590.5 187.29688 590.7656 187.57812Q591.03125 187.84375 591.1719 188.28125Q591.3125 188.71875 591.3125 189.34375L591.3125 193.5L590.21875 193.5L590.21875 189.32812Q590.21875 188.82812 590.0781 188.53125Q589.9375 188.23438 589.65625 188.09375Q589.375 187.95312 588.9531 187.95312Q588.5469 187.95312 588.21875 188.125Q587.8906 188.29688 587.65625 188.59375Q587.4219 188.89062 587.28125 189.28125Q587.15625 189.65625 587.15625 190.09375Z" fill-rule="nonzero"/><path stroke="#cccccc" stroke-width="1.0" stroke-linecap="butt" d="M372.0 305.0L547.0 406.0" fill-rule="nonzero"/><path fill="#000000" d="M543.6406 422.78125L544.7656 422.78125Q544.6719 423.59375 544.2969 424.23438Q543.9219 424.875 543.2344 425.25Q542.5625 425.625 541.53125 425.625Q540.78125 425.625 540.1719 425.34375Q539.5625 425.04688 539.1094 424.53125Q538.6719 424.01562 538.4375 423.29688Q538.2031 422.5625 538.2031 421.65625L538.2031 420.8125Q538.2031 419.92188 538.4375 419.1875Q538.6719 418.45312 539.125 417.9375Q539.5781 417.40625 540.2031 417.125Q540.84375 416.84375 541.625 416.84375Q542.59375 416.84375 543.2656 417.21875Q543.9375 417.57812 544.2969 418.21875Q544.6719 418.85938 544.7656 419.70312L543.6406 419.70312Q543.5625 419.10938 543.3281 418.6875Q543.1094 418.25 542.7031 418.01562Q542.2969 417.78125 541.625 417.78125Q541.0625 417.78125 540.625 418.0Q540.2031 418.20312 539.90625 418.60938Q539.625 419.0 539.46875 419.5625Q539.3281 420.125 539.3281 420.79688L539.3281 421.65625Q539.3281 422.28125 539.4531 422.84375Q539.59375 423.39062 539.8594 423.8125Q540.125 424.21875 540.5469 424.46875Q540.96875 424.70312 541.53125 424.70312Q542.25 424.70312 542.6719 424.46875Q543.1094 424.23438 543.3281 423.8125Q543.5469 423.39062 543.6406 422.78125ZM550.0625 424.42188L550.0625 421.15625Q550.0625 420.78125 549.90625 420.5Q549.7656 420.21875 549.46875 420.07812Q549.1719 419.92188 548.7344 419.92188Q548.3125 419.92188 548.0 420.0625Q547.7031 420.20312 547.53125 420.4375Q547.3594 420.65625 547.3594 420.92188L546.28125 420.92188Q546.28125 420.57812 546.4531 420.25Q546.625 419.90625 546.9531 419.64062Q547.28125 419.35938 547.75 419.20312Q548.21875 419.04688 548.7969 419.04688Q549.4844 419.04688 550.0156 419.28125Q550.5469 419.51562 550.84375 419.98438Q551.15625 420.45312 551.15625 421.15625L551.15625 424.10938Q551.15625 424.4375 551.2031 424.79688Q551.2656 425.14062 551.375 425.40625L551.375 425.5L550.2344 425.5Q550.15625 425.3125 550.1094 425.0Q550.0625 424.6875 550.0625 424.42188ZM550.25 421.65625L550.2656 422.42188L549.1719 422.42188Q548.7031 422.42188 548.34375 422.5Q547.9844 422.5625 547.7344 422.71875Q547.4844 422.85938 547.3594 423.07812Q547.2344 423.29688 547.2344 423.59375Q547.2344 423.89062 547.3594 424.14062Q547.5 424.375 547.7656 424.53125Q548.0469 424.67188 548.4375 424.67188Q548.9375 424.67188 549.3125 424.46875Q549.7031 424.25 549.9219 423.95312Q550.15625 423.64062 550.1719 423.34375L550.6406 423.875Q550.59375 424.10938 550.40625 424.42188Q550.2344 424.71875 549.9219 425.0Q549.625 425.26562 549.2031 425.45312Q548.7969 425.625 548.28125 425.625Q547.6406 425.625 547.15625 425.375Q546.6719 425.10938 546.40625 424.6875Q546.1406 424.26562 546.1406 423.73438Q546.1406 423.21875 546.3281 422.84375Q546.53125 422.45312 546.90625 422.1875Q547.28125 421.92188 547.8125 421.79688Q548.34375 421.65625 549.0 421.65625L550.25 421.65625ZM554.40625 420.15625L554.40625 425.5L553.3281 425.5L553.3281 419.15625L554.375 419.15625L554.40625 420.15625ZM556.3906 419.125L556.3906 420.125Q556.25 420.10938 556.125 420.09375Q556.0156 420.07812 555.8594 420.07812Q555.4844 420.07812 555.1875 420.20312Q554.90625 420.3125 554.7031 420.53125Q554.5156 420.73438 554.3906 421.03125Q554.28125 421.32812 554.25 421.67188L553.9375 421.84375Q553.9375 421.26562 554.0469 420.76562Q554.1719 420.26562 554.40625 419.875Q554.65625 419.48438 555.0156 419.26562Q555.3906 419.04688 555.90625 419.04688Q556.03125 419.04688 556.1719 419.07812Q556.3281 419.09375 556.3906 419.125ZM559.1094 424.84375L560.875 419.15625L562.03125 419.15625L559.4844 426.48438Q559.40625 426.71875 559.25 426.98438Q559.1094 427.26562 558.8906 427.5Q558.6719 427.75 558.3594 427.90625Q558.0469 428.0625 557.6094 428.0625Q557.4844 428.0625 557.28125 428.01562Q557.0781 427.98438 557.0 427.96875L557.0 427.09375Q557.0469 427.09375 557.1406 427.09375Q557.25 427.10938 557.28125 427.10938Q557.65625 427.10938 557.90625 427.01562Q558.1719 426.92188 558.34375 426.6875Q558.53125 426.46875 558.65625 426.07812L559.1094 424.84375ZM557.8125 419.15625L559.4531 424.07812L559.7344 425.21875L558.96875 425.625L556.625 419.15625L557.8125 419.15625ZM563.0469 422.40625L563.0469 422.26562Q563.0469 421.57812 563.2344 421.0Q563.4375 420.40625 563.8125 419.96875Q564.1875 419.53125 564.71875 419.29688Q565.25 419.04688 565.9219 419.04688Q566.5781 419.04688 567.1094 419.29688Q567.65625 419.53125 568.03125 419.96875Q568.40625 420.40625 568.6094 421.0Q568.8125 421.57812 568.8125 422.26562L568.8125 422.40625Q568.8125 423.07812 568.6094 423.67188Q568.40625 424.25 568.03125 424.6875Q567.65625 425.125 567.125 425.375Q566.59375 425.625 565.9219 425.625Q565.2656 425.625 564.71875 425.375Q564.1875 425.125 563.8125 424.6875Q563.4375 424.25 563.2344 423.67188Q563.0469 423.07812 563.0469 422.40625ZM564.125 422.26562L564.125 422.40625Q564.125 422.875 564.2344 423.29688Q564.34375 423.71875 564.5625 424.04688Q564.7969 424.35938 565.1406 424.54688Q565.4844 424.71875 565.9219 424.71875Q566.375 424.71875 566.7031 424.54688Q567.0469 424.35938 567.2656 424.04688Q567.5 423.71875 567.6094 423.29688Q567.71875 422.875 567.71875 422.40625L567.71875 422.26562Q567.71875 421.79688 567.6094 421.375Q567.5 420.95312 567.2656 420.64062Q567.0469 420.3125 566.7031 420.125Q566.375 419.9375 565.9219 419.9375Q565.46875 419.9375 565.125 420.125Q564.7969 420.3125 564.5625 420.64062Q564.34375 420.95312 564.2344 421.375Q564.125 421.79688 564.125 422.26562ZM571.40625 420.375L571.40625 427.9375L570.3281 427.9375L570.3281 419.15625L571.3125 419.15625L571.40625 420.375ZM575.6875 422.28125L575.6875 422.40625Q575.6875 423.09375 575.5156 423.6875Q575.3594 424.26562 575.0469 424.70312Q574.7344 425.14062 574.2656 425.39062Q573.8125 425.625 573.21875 425.625Q572.625 425.625 572.15625 425.42188Q571.6875 425.21875 571.3594 424.84375Q571.0469 424.45312 570.8594 423.92188Q570.6719 423.39062 570.59375 422.71875L570.59375 422.0625Q570.6719 421.35938 570.8594 420.8125Q571.0469 420.25 571.3594 419.85938Q571.6875 419.45312 572.1406 419.25Q572.6094 419.04688 573.2031 419.04688Q573.7969 419.04688 574.2656 419.28125Q574.7344 419.5 575.0469 419.9375Q575.3594 420.35938 575.5156 420.95312Q575.6875 421.54688 575.6875 422.28125ZM574.59375 422.40625L574.59375 422.28125Q574.59375 421.79688 574.4844 421.39062Q574.3906 420.96875 574.1875 420.65625Q573.9844 420.32812 573.65625 420.14062Q573.3281 419.95312 572.8906 419.95312Q572.4844 419.95312 572.1719 420.09375Q571.875 420.23438 571.65625 420.48438Q571.4531 420.71875 571.3125 421.01562Q571.1875 421.3125 571.125 421.64062L571.125 423.15625Q571.2344 423.5625 571.4375 423.92188Q571.65625 424.28125 572.0 424.5Q572.3594 424.71875 572.90625 424.71875Q573.34375 424.71875 573.65625 424.54688Q573.9844 424.35938 574.1875 424.04688Q574.3906 423.71875 574.4844 423.29688Q574.59375 422.875 574.59375 422.40625ZM578.40625 416.5L578.40625 425.5L577.3281 425.5L577.3281 416.5L578.40625 416.5ZM578.15625 422.09375L577.7031 422.07812Q577.7031 421.42188 577.8906 420.875Q578.0781 420.3125 578.4219 419.90625Q578.7656 419.5 579.2344 419.28125Q579.7031 419.04688 580.28125 419.04688Q580.75 419.04688 581.125 419.17188Q581.5 419.29688 581.7656 419.57812Q582.03125 419.84375 582.1719 420.28125Q582.3125 420.71875 582.3125 421.34375L582.3125 425.5L581.21875 425.5L581.21875 421.32812Q581.21875 420.82812 581.0781 420.53125Q580.9375 420.23438 580.65625 420.09375Q580.375 419.95312 579.9531 419.95312Q579.5469 419.95312 579.21875 420.125Q578.8906 420.29688 578.65625 420.59375Q578.4219 420.89062 578.28125 421.28125Q578.15625 421.65625 578.15625 422.09375ZM586.1094 424.84375L587.875 419.15625L589.03125 419.15625L586.4844 426.48438Q586.40625 426.71875 586.25 426.98438Q586.1094 427.26562 585.8906 427.5Q585.6719 427.75 585.3594 427.90625Q585.0469 428.0625 584.6094 428.0625Q584.4844 428.0625 584.28125 428.01562Q584.0781 427.98438 584.0 427.96875L584.0 427.09375Q584.0469 427.09375 584.1406 427.09375Q584.25 427.10938 584.28125 427.10938Q584.65625 427.10938 584.90625 427.01562Q585.1719 426.92188 585.34375 426.6875Q585.53125 426.46875 585.65625 426.07812L586.1094 424.84375ZM584.8125 419.15625L586.4531 424.07812L586.7344 425.21875L585.96875 425.625L583.625 419.15625L584.8125 419.15625ZM591.5 416.5L591.5 425.5L590.4219 425.5L590.4219 416.5L591.5 416.5ZM594.5 416.5L594.5 425.5L593.4219 425.5L593.4219 416.5L594.5 416.5ZM598.9531 425.625Q598.2969 425.625 597.75 425.40625Q597.21875 425.17188 596.8281 424.76562Q596.4531 424.34375 596.25 423.78125Q596.0469 423.21875 596.0469 422.54688L596.0469 422.3125Q596.0469 421.53125 596.2656 420.92188Q596.5 420.3125 596.8906 419.89062Q597.28125 419.46875 597.78125 419.26562Q598.28125 419.04688 598.8125 419.04688Q599.5 419.04688 599.9844 419.28125Q600.4844 419.51562 600.7969 419.9375Q601.125 420.34375 601.2656 420.92188Q601.4219 421.48438 601.4219 422.14062L601.4219 422.64062L596.6875 422.64062L596.6875 421.75L600.34375 421.75L600.34375 421.67188Q600.3125 421.25 600.15625 420.85938Q600.0156 420.45312 599.6875 420.20312Q599.375 419.9375 598.8125 419.9375Q598.4531 419.9375 598.1406 420.09375Q597.8281 420.25 597.59375 420.5625Q597.375 420.85938 597.25 421.29688Q597.1406 421.73438 597.1406 422.3125L597.1406 422.54688Q597.1406 423.0 597.2656 423.40625Q597.3906 423.79688 597.625 424.09375Q597.875 424.39062 598.21875 424.5625Q598.5781 424.73438 599.0156 424.73438Q599.59375 424.73438 599.9844 424.5Q600.3906 424.26562 600.6875 423.875L601.34375 424.39062Q601.1406 424.70312 600.8125 424.98438Q600.5 425.26562 600.03125 425.45312Q599.5781 425.625 598.9531 425.625ZM603.40625 420.51562L603.40625 425.5L602.3281 425.5L602.3281 419.15625L603.3594 419.15625L603.40625 420.51562ZM603.15625 422.09375L602.7031 422.07812Q602.7031 421.42188 602.8906 420.875Q603.0781 420.3125 603.4219 419.90625Q603.7656 419.5 604.2344 419.28125Q604.7031 419.04688 605.28125 419.04688Q605.75 419.04688 606.125 419.17188Q606.5 419.29688 606.7656 419.57812Q607.03125 419.84375 607.1719 420.28125Q607.3125 420.71875 607.3125 421.34375L607.3125 425.5L606.21875 425.5L606.21875 421.32812Q606.21875 420.82812 606.0781 420.53125Q605.9375 420.23438 605.65625 420.09375Q605.375 419.95312 604.9531 419.95312Q604.5469 419.95312 604.21875 420.125Q603.8906 420.29688 603.65625 420.59375Q603.4219 420.89062 603.28125 421.28125Q603.15625 421.65625 603.15625 422.09375Z" fill-rule="nonzero"/><path stroke="#cccccc" stroke-width="1.0" stroke-linecap="butt" d="M372.0 305.0L372.0 507.0" fill-rule="nonzero"/><path fill="#000000" d="M349.125 532.96875L349.125 541.5L347.98438 541.5L347.98438 532.96875L349.125 532.96875ZM352.70312 536.8125L352.70312 537.7344L348.875 537.7344L348.875 536.8125L352.70312 536.8125ZM353.28125 532.96875L353.28125 533.8906L348.875 533.8906L348.875 532.96875L353.28125 532.96875ZM358.5625 540.4219L358.5625 537.15625Q358.5625 536.78125 358.40625 536.5Q358.26562 536.21875 357.96875 536.0781Q357.67188 535.9219 357.23438 535.9219Q356.8125 535.9219 356.5 536.0625Q356.20312 536.2031 356.03125 536.4375Q355.85938 536.65625 355.85938 536.9219L354.78125 536.9219Q354.78125 536.5781 354.95312 536.25Q355.125 535.90625 355.45312 535.6406Q355.78125 535.3594 356.25 535.2031Q356.71875 535.0469 357.29688 535.0469Q357.98438 535.0469 358.51562 535.28125Q359.04688 535.5156 359.34375 535.9844Q359.65625 536.4531 359.65625 537.15625L359.65625 540.1094Q359.65625 540.4375 359.70312 540.7969Q359.76562 541.1406 359.875 541.40625L359.875 541.5L358.73438 541.5Q358.65625 541.3125 358.60938 541.0Q358.5625 540.6875 358.5625 540.4219ZM358.75 537.65625L358.76562 538.4219L357.67188 538.4219Q357.20312 538.4219 356.84375 538.5Q356.48438 538.5625 356.23438 538.71875Q355.98438 538.8594 355.85938 539.0781Q355.73438 539.2969 355.73438 539.59375Q355.73438 539.8906 355.85938 540.1406Q356.0 540.375 356.26562 540.53125Q356.54688 540.6719 356.9375 540.6719Q357.4375 540.6719 357.8125 540.46875Q358.20312 540.25 358.42188 539.9531Q358.65625 539.6406 358.67188 539.34375L359.14062 539.875Q359.09375 540.1094 358.90625 540.4219Q358.73438 540.71875 358.42188 541.0Q358.125 541.2656 357.70312 541.4531Q357.29688 541.625 356.78125 541.625Q356.14062 541.625 355.65625 541.375Q355.17188 541.1094 354.90625 540.6875Q354.64062 540.2656 354.64062 539.7344Q354.64062 539.21875 354.82812 538.84375Q355.03125 538.4531 355.40625 538.1875Q355.78125 537.9219 356.3125 537.7969Q356.84375 537.65625 357.5 537.65625L358.75 537.65625ZM362.90625 536.15625L362.90625 541.5L361.82812 541.5L361.82812 535.15625L362.875 535.15625L362.90625 536.15625ZM364.89062 535.125L364.89062 536.125Q364.75 536.1094 364.625 536.09375Q364.51562 536.0781 364.35938 536.0781Q363.98438 536.0781 363.6875 536.2031Q363.40625 536.3125 363.20312 536.53125Q363.01562 536.7344 362.89062 537.03125Q362.78125 537.3281 362.75 537.6719L362.4375 537.84375Q362.4375 537.2656 362.54688 536.7656Q362.67188 536.2656 362.90625 535.875Q363.15625 535.4844 363.51562 535.2656Q363.89062 535.0469 364.40625 535.0469Q364.53125 535.0469 364.67188 535.0781Q364.82812 535.09375 364.89062 535.125ZM366.90625 536.5156L366.90625 541.5L365.82812 541.5L365.82812 535.15625L366.85938 535.15625L366.90625 536.5156ZM366.65625 538.09375L366.20312 538.0781Q366.20312 537.4219 366.39062 536.875Q366.57812 536.3125 366.92188 535.90625Q367.26562 535.5 367.73438 535.28125Q368.20312 535.0469 368.78125 535.0469Q369.25 535.0469 369.625 535.1719Q370.0 535.2969 370.26562 535.5781Q370.53125 535.84375 370.67188 536.28125Q370.8125 536.71875 370.8125 537.34375L370.8125 541.5L369.71875 541.5L369.71875 537.3281Q369.71875 536.8281 369.57812 536.53125Q369.4375 536.2344 369.15625 536.09375Q368.875 535.9531 368.45312 535.9531Q368.04688 535.9531 367.71875 536.125Q367.39062 536.2969 367.15625 536.59375Q366.92188 536.8906 366.78125 537.28125Q366.65625 537.65625 366.65625 538.09375ZM375.45312 541.625Q374.79688 541.625 374.25 541.40625Q373.71875 541.1719 373.32812 540.7656Q372.95312 540.34375 372.75 539.78125Q372.54688 539.21875 372.54688 538.5469L372.54688 538.3125Q372.54688 537.53125 372.76562 536.9219Q373.0 536.3125 373.39062 535.8906Q373.78125 535.46875 374.28125 535.2656Q374.78125 535.0469 375.3125 535.0469Q376.0 535.0469 376.48438 535.28125Q376.98438 535.5156 377.29688 535.9375Q377.625 536.34375 377.76562 536.9219Q377.92188 537.4844 377.92188 538.1406L377.92188 538.6406L373.1875 538.6406L373.1875 537.75L376.84375 537.75L376.84375 537.6719Q376.8125 537.25 376.65625 536.8594Q376.51562 536.4531 376.1875 536.2031Q375.875 535.9375 375.3125 535.9375Q374.95312 535.9375 374.64062 536.09375Q374.32812 536.25 374.09375 536.5625Q373.875 536.8594 373.75 537.2969Q373.64062 537.7344 373.64062 538.3125L373.64062 538.5469Q373.64062 539.0 373.76562 539.40625Q373.89062 539.7969 374.125 540.09375Q374.375 540.3906 374.71875 540.5625Q375.07812 540.7344 375.51562 540.7344Q376.09375 540.7344 376.48438 540.5Q376.89062 540.2656 377.1875 539.875L377.84375 540.3906Q377.64062 540.7031 377.3125 540.9844Q377.0 541.2656 376.53125 541.4531Q376.07812 541.625 375.45312 541.625ZM382.51562 539.8125Q382.51562 539.5781 382.40625 539.375Q382.3125 539.1719 382.0 539.0156Q381.6875 538.84375 381.0625 538.71875Q380.53125 538.6094 380.10938 538.46875Q379.6875 538.3125 379.39062 538.09375Q379.09375 537.875 378.9375 537.5781Q378.78125 537.28125 378.78125 536.8906Q378.78125 536.5156 378.9375 536.1875Q379.10938 535.84375 379.40625 535.59375Q379.71875 535.3281 380.15625 535.1875Q380.59375 535.0469 381.125 535.0469Q381.89062 535.0469 382.42188 535.3125Q382.96875 535.5781 383.25 536.03125Q383.53125 536.4844 383.53125 537.0156L382.45312 537.0156Q382.45312 536.7656 382.29688 536.5156Q382.14062 536.2656 381.84375 536.1094Q381.54688 535.9375 381.125 535.9375Q380.67188 535.9375 380.39062 536.0781Q380.10938 536.2031 379.98438 536.4219Q379.85938 536.625 379.85938 536.8594Q379.85938 537.0469 379.92188 537.1875Q379.98438 537.3125 380.14062 537.4375Q380.29688 537.5469 380.57812 537.65625Q380.875 537.75 381.32812 537.84375Q382.10938 538.0156 382.60938 538.2656Q383.10938 538.5156 383.35938 538.875Q383.60938 539.21875 383.60938 539.7344Q383.60938 540.15625 383.42188 540.5Q383.25 540.84375 382.92188 541.09375Q382.60938 541.34375 382.15625 541.4844Q381.70312 541.625 381.15625 541.625Q380.3125 541.625 379.73438 541.3281Q379.15625 541.0156 378.85938 540.5469Q378.5625 540.0625 378.5625 539.5469L379.64062 539.5469Q379.67188 539.9844 379.90625 540.25Q380.14062 540.5156 380.46875 540.625Q380.8125 540.71875 381.15625 540.71875Q381.59375 540.71875 381.89062 540.6094Q382.20312 540.4844 382.35938 540.28125Q382.51562 540.0781 382.51562 539.8125ZM387.45312 541.625Q386.79688 541.625 386.25 541.40625Q385.71875 541.1719 385.32812 540.7656Q384.95312 540.34375 384.75 539.78125Q384.54688 539.21875 384.54688 538.5469L384.54688 538.3125Q384.54688 537.53125 384.76562 536.9219Q385.0 536.3125 385.39062 535.8906Q385.78125 535.46875 386.28125 535.2656Q386.78125 535.0469 387.3125 535.0469Q388.0 535.0469 388.48438 535.28125Q388.98438 535.5156 389.29688 535.9375Q389.625 536.34375 389.76562 536.9219Q389.92188 537.4844 389.92188 538.1406L389.92188 538.6406L385.1875 538.6406L385.1875 537.75L388.84375 537.75L388.84375 537.6719Q388.8125 537.25 388.65625 536.8594Q388.51562 536.4531 388.1875 536.2031Q387.875 535.9375 387.3125 535.9375Q386.95312 535.9375 386.64062 536.09375Q386.32812 536.25 386.09375 536.5625Q385.875 536.8594 385.75 537.2969Q385.64062 537.7344 385.64062 538.3125L385.64062 538.5469Q385.64062 539.0 385.76562 539.40625Q385.89062 539.7969 386.125 540.09375Q386.375 540.3906 386.71875 540.5625Q387.07812 540.7344 387.51562 540.7344Q388.09375 540.7344 388.48438 540.5Q388.89062 540.2656 389.1875 539.875L389.84375 540.3906Q389.64062 540.7031 389.3125 540.9844Q389.0 541.2656 388.53125 541.4531Q388.07812 541.625 387.45312 541.625ZM391.90625 536.5156L391.90625 541.5L390.82812 541.5L390.82812 535.15625L391.85938 535.15625L391.90625 536.5156ZM391.65625 538.09375L391.20312 538.0781Q391.20312 537.4219 391.39062 536.875Q391.57812 536.3125 391.92188 535.90625Q392.26562 535.5 392.73438 535.28125Q393.20312 535.0469 393.78125 535.0469Q394.25 535.0469 394.625 535.1719Q395.0 535.2969 395.26562 535.5781Q395.53125 535.84375 395.67188 536.28125Q395.8125 536.71875 395.8125 537.34375L395.8125 541.5L394.71875 541.5L394.71875 537.3281Q394.71875 536.8281 394.57812 536.53125Q394.4375 536.2344 394.15625 536.09375Q393.875 535.9531 393.45312 535.9531Q393.04688 535.9531 392.71875 536.125Q392.39062 536.2969 392.15625 536.59375Q391.92188 536.8906 391.78125 537.28125Q391.65625 537.65625 391.65625 538.09375Z" fill-rule="nonzero"/><path stroke="#cccccc" stroke-width="1.0" stroke-linecap="butt" d="M372.0 305.0L197.0 406.0" fill-rule="nonzero"/><path fill="#000000" d="M141.59375 422.5625L141.59375 422.4375Q141.59375 421.6875 141.75 421.07812Q141.92188 420.45312 142.23438 420.0Q142.54688 419.54688 143.0 419.29688Q143.46875 419.04688 144.0625 419.04688Q144.51562 419.04688 144.875 419.1875Q145.25 419.3125 145.53125 419.57812Q145.8125 419.82812 146.01562 420.20312Q146.21875 420.57812 146.34375 421.0625Q146.46875 421.53125 146.51562 422.09375L146.51562 422.57812Q146.45312 423.28125 146.26562 423.84375Q146.09375 424.40625 145.79688 424.8125Q145.5 425.20312 145.0625 425.42188Q144.64062 425.625 144.04688 425.625Q143.46875 425.625 143.0 425.40625Q142.54688 425.17188 142.23438 424.76562Q141.92188 424.34375 141.75 423.79688Q141.59375 423.23438 141.59375 422.5625ZM142.67188 422.4375L142.67188 422.5625Q142.67188 423.01562 142.76562 423.40625Q142.85938 423.79688 143.04688 424.09375Q143.25 424.39062 143.5625 424.5625Q143.89062 424.73438 144.32812 424.73438Q144.75 424.73438 145.04688 424.5625Q145.35938 424.375 145.5625 424.07812Q145.78125 423.78125 145.90625 423.39062Q146.04688 423.0 146.14062 422.59375L146.14062 422.20312Q146.07812 421.76562 145.9375 421.375Q145.8125 420.96875 145.59375 420.64062Q145.39062 420.3125 145.07812 420.125Q144.76562 419.9375 144.32812 419.9375Q143.89062 419.9375 143.57812 420.14062Q143.26562 420.32812 143.0625 420.67188Q142.85938 421.01562 142.76562 421.48438Q142.67188 421.9375 142.67188 422.4375ZM145.98438 419.15625L146.90625 419.15625L146.90625 423.76562Q146.90625 424.04688 146.9375 424.21875Q146.96875 424.375 147.03125 424.48438Q147.10938 424.57812 147.1875 424.625Q147.28125 424.65625 147.375 424.65625Q147.42188 424.65625 147.46875 424.64062Q147.53125 424.625 147.5625 424.60938L147.70312 425.42188Q147.51562 425.54688 147.34375 425.57812Q147.17188 425.625 146.98438 425.625Q146.70312 425.625 146.48438 425.51562Q146.28125 425.42188 146.125 425.20312Q145.96875 424.98438 145.89062 424.625Q145.8125 424.26562 145.8125 423.76562L145.8125 420.53125L145.98438 419.15625ZM151.07812 421.42188L151.07812 422.3125L148.21875 422.3125L148.21875 421.42188L151.07812 421.42188ZM157.5625 420.64062L157.5625 421.5625L152.95312 421.5625L152.95312 420.64062L157.5625 420.64062ZM153.125 416.96875L153.125 425.5L151.98438 425.5L151.98438 416.96875L153.125 416.96875ZM158.54688 416.96875L158.54688 425.5L157.42188 425.5L157.42188 416.96875L158.54688 416.96875ZM164.70312 424.03125L164.70312 419.15625L165.79688 419.15625L165.79688 425.5L164.76562 425.5L164.70312 424.03125ZM164.90625 422.70312L165.35938 422.6875Q165.35938 423.3125 165.21875 423.85938Q165.09375 424.39062 164.79688 424.78125Q164.51562 425.17188 164.03125 425.40625Q163.5625 425.625 162.89062 425.625Q162.42188 425.625 162.03125 425.48438Q161.65625 425.34375 161.375 425.0625Q161.10938 424.78125 160.95312 424.32812Q160.79688 423.875 160.79688 423.25L160.79688 419.15625L161.89062 419.15625L161.89062 423.26562Q161.89062 423.6875 161.98438 423.96875Q162.07812 424.25 162.25 424.40625Q162.42188 424.5625 162.625 424.64062Q162.82812 424.70312 163.04688 424.70312Q163.75 424.70312 164.14062 424.4375Q164.54688 424.15625 164.71875 423.70312Q164.90625 423.25 164.90625 422.70312ZM168.90625 420.42188L168.90625 425.5L167.8125 425.5L167.8125 419.15625L168.84375 419.15625L168.90625 420.42188ZM168.6875 422.09375L168.17188 422.07812Q168.1875 421.42188 168.34375 420.875Q168.51562 420.3125 168.82812 419.90625Q169.15625 419.5 169.64062 419.28125Q170.125 419.04688 170.75 419.04688Q171.20312 419.04688 171.57812 419.17188Q171.95312 419.29688 172.21875 419.5625Q172.5 419.82812 172.64062 420.25Q172.79688 420.67188 172.79688 421.28125L172.79688 425.5L171.71875 425.5L171.71875 421.32812Q171.71875 420.82812 171.54688 420.53125Q171.39062 420.23438 171.07812 420.09375Q170.78125 419.95312 170.35938 419.95312Q169.89062 419.95312 169.5625 420.125Q169.23438 420.29688 169.04688 420.59375Q168.85938 420.89062 168.76562 421.28125Q168.6875 421.65625 168.6875 422.09375ZM172.79688 421.48438L172.0625 421.71875Q172.0625 421.1875 172.23438 420.71875Q172.40625 420.23438 172.71875 419.85938Q173.04688 419.48438 173.51562 419.26562Q173.98438 419.04688 174.57812 419.04688Q175.09375 419.04688 175.48438 419.1875Q175.89062 419.3125 176.15625 419.59375Q176.42188 419.875 176.5625 420.3125Q176.70312 420.73438 176.70312 421.32812L176.70312 425.5L175.625 425.5L175.625 421.32812Q175.625 420.78125 175.45312 420.5Q175.28125 420.20312 174.98438 420.07812Q174.6875 419.95312 174.26562 419.95312Q173.90625 419.95312 173.625 420.07812Q173.35938 420.20312 173.17188 420.42188Q172.98438 420.625 172.89062 420.90625Q172.79688 421.1875 172.79688 421.48438ZM182.70312 424.03125L182.70312 419.15625L183.79688 419.15625L183.79688 425.5L182.76562 425.5L182.70312 424.03125ZM182.90625 422.70312L183.35938 422.6875Q183.35938 423.3125 183.21875 423.85938Q183.09375 424.39062 182.79688 424.78125Q182.51562 425.17188 182.03125 425.40625Q181.5625 425.625 180.89062 425.625Q180.42188 425.625 180.03125 425.48438Q179.65625 425.34375 179.375 425.0625Q179.10938 424.78125 178.95312 424.32812Q178.79688 423.875 178.79688 423.25L178.79688 419.15625L179.89062 419.15625L179.89062 423.26562Q179.89062 423.6875 179.98438 423.96875Q180.07812 424.25 180.25 424.40625Q180.42188 424.5625 180.625 424.64062Q180.82812 424.70312 181.04688 424.70312Q181.75 424.70312 182.14062 424.4375Q182.54688 424.15625 182.71875 423.70312Q182.90625 423.25 182.90625 422.70312ZM187.0 416.5L187.0 425.5L185.92188 425.5L185.92188 416.5L187.0 416.5ZM191.45312 425.625Q190.79688 425.625 190.25 425.40625Q189.71875 425.17188 189.32812 424.76562Q188.95312 424.34375 188.75 423.78125Q188.54688 423.21875 188.54688 422.54688L188.54688 422.3125Q188.54688 421.53125 188.76562 420.92188Q189.0 420.3125 189.39062 419.89062Q189.78125 419.46875 190.28125 419.26562Q190.78125 419.04688 191.3125 419.04688Q192.0 419.04688 192.48438 419.28125Q192.98438 419.51562 193.29688 419.9375Q193.625 420.34375 193.76562 420.92188Q193.92188 421.48438 193.92188 422.14062L193.92188 422.64062L189.1875 422.64062L189.1875 421.75L192.84375 421.75L192.84375 421.67188Q192.8125 421.25 192.65625 420.85938Q192.51562 420.45312 192.1875 420.20312Q191.875 419.9375 191.3125 419.9375Q190.95312 419.9375 190.64062 420.09375Q190.32812 420.25 190.09375 420.5625Q189.875 420.85938 189.75 421.29688Q189.64062 421.73438 189.64062 422.3125L189.64062 422.54688Q189.64062 423.0 189.76562 423.40625Q189.89062 423.79688 190.125 424.09375Q190.375 424.39062 190.71875 424.5625Q191.07812 424.73438 191.51562 424.73438Q192.09375 424.73438 192.48438 424.5Q192.89062 424.26562 193.1875 423.875L193.84375 424.39062Q193.64062 424.70312 193.3125 424.98438Q193.0 425.26562 192.53125 425.45312Q192.07812 425.625 191.45312 425.625ZM195.90625 420.51562L195.90625 425.5L194.82812 425.5L194.82812 419.15625L195.85938 419.15625L195.90625 420.51562ZM195.65625 422.09375L195.20312 422.07812Q195.20312 421.42188 195.39062 420.875Q195.57812 420.3125 195.92188 419.90625Q196.26562 419.5 196.73438 419.28125Q197.20312 419.04688 197.78125 419.04688Q198.25 419.04688 198.625 419.17188Q199.0 419.29688 199.26562 419.57812Q199.53125 419.84375 199.67188 420.28125Q199.8125 420.71875 199.8125 421.34375L199.8125 425.5L198.71875 425.5L198.71875 421.32812Q198.71875 420.82812 198.57812 420.53125Q198.4375 420.23438 198.15625 420.09375Q197.875 419.95312 197.45312 419.95312Q197.04688 419.95312 196.71875 420.125Q196.39062 420.29688 196.15625 420.59375Q195.92188 420.89062 195.78125 421.28125Q195.65625 421.65625 195.65625 422.09375Z" fill-rule="nonzero"/><path stroke="#cccccc" stroke-width="1.0" stroke-linecap="butt" d="M372.0 305.0L197.0 204.0" fill-rule="nonzero"/><path fill="#000000" d="M153.03125 191.34375Q153.03125 191.04688 152.9375 190.8125Q152.85938 190.57812 152.625 190.39062Q152.40625 190.20312 152.0 190.03125Q151.60938 189.85938 151.01562 189.6875Q150.375 189.5 149.85938 189.28125Q149.35938 189.04688 148.98438 188.75Q148.625 188.4375 148.4375 188.0625Q148.25 187.67188 148.25 187.17188Q148.25 186.67188 148.45312 186.25Q148.65625 185.82812 149.03125 185.51562Q149.42188 185.20312 149.95312 185.03125Q150.48438 184.84375 151.14062 184.84375Q152.10938 184.84375 152.78125 185.21875Q153.45312 185.57812 153.79688 186.17188Q154.15625 186.76562 154.15625 187.42188L153.03125 187.42188Q153.03125 186.95312 152.8125 186.57812Q152.60938 186.20312 152.1875 186.0Q151.78125 185.78125 151.14062 185.78125Q150.54688 185.78125 150.14062 185.96875Q149.75 186.14062 149.5625 186.45312Q149.375 186.76562 149.375 187.15625Q149.375 187.42188 149.48438 187.65625Q149.60938 187.875 149.84375 188.0625Q150.09375 188.25 150.46875 188.40625Q150.84375 188.5625 151.375 188.70312Q152.09375 188.90625 152.625 189.17188Q153.15625 189.42188 153.5 189.73438Q153.84375 190.04688 154.0 190.4375Q154.17188 190.82812 154.17188 191.32812Q154.17188 191.85938 153.95312 192.28125Q153.75 192.70312 153.35938 193.0Q152.96875 193.29688 152.42188 193.46875Q151.875 193.625 151.20312 193.625Q150.60938 193.625 150.03125 193.45312Q149.46875 193.28125 149.0 192.95312Q148.53125 192.625 148.25 192.15625Q147.96875 191.67188 147.96875 191.03125L149.09375 191.03125Q149.09375 191.46875 149.26562 191.78125Q149.4375 192.09375 149.73438 192.29688Q150.03125 192.5 150.40625 192.60938Q150.78125 192.70312 151.20312 192.70312Q151.79688 192.70312 152.20312 192.54688Q152.60938 192.375 152.8125 192.07812Q153.03125 191.76562 153.03125 191.34375ZM155.04688 190.40625L155.04688 190.26562Q155.04688 189.57812 155.23438 189.0Q155.4375 188.40625 155.8125 187.96875Q156.1875 187.53125 156.71875 187.29688Q157.25 187.04688 157.92188 187.04688Q158.57812 187.04688 159.10938 187.29688Q159.65625 187.53125 160.03125 187.96875Q160.40625 188.40625 160.60938 189.0Q160.8125 189.57812 160.8125 190.26562L160.8125 190.40625Q160.8125 191.07812 160.60938 191.67188Q160.40625 192.25 160.03125 192.6875Q159.65625 193.125 159.125 193.375Q158.59375 193.625 157.92188 193.625Q157.26562 193.625 156.71875 193.375Q156.1875 193.125 155.8125 192.6875Q155.4375 192.25 155.23438 191.67188Q155.04688 191.07812 155.04688 190.40625ZM156.125 190.26562L156.125 190.40625Q156.125 190.875 156.23438 191.29688Q156.34375 191.71875 156.5625 192.04688Q156.79688 192.35938 157.14062 192.54688Q157.48438 192.71875 157.92188 192.71875Q158.375 192.71875 158.70312 192.54688Q159.04688 192.35938 159.26562 192.04688Q159.5 191.71875 159.60938 191.29688Q159.71875 190.875 159.71875 190.40625L159.71875 190.26562Q159.71875 189.79688 159.60938 189.375Q159.5 188.95312 159.26562 188.64062Q159.04688 188.3125 158.70312 188.125Q158.375 187.9375 157.92188 187.9375Q157.46875 187.9375 157.125 188.125Q156.79688 188.3125 156.5625 188.64062Q156.34375 188.95312 156.23438 189.375Q156.125 189.79688 156.125 190.26562ZM163.40625 188.51562L163.40625 193.5L162.32812 193.5L162.32812 187.15625L163.35938 187.15625L163.40625 188.51562ZM163.15625 190.09375L162.70312 190.07812Q162.70312 189.42188 162.89062 188.875Q163.07812 188.3125 163.42188 187.90625Q163.76562 187.5 164.23438 187.28125Q164.70312 187.04688 165.28125 187.04688Q165.75 187.04688 166.125 187.17188Q166.5 187.29688 166.76562 187.57812Q167.03125 187.84375 167.17188 188.28125Q167.3125 188.71875 167.3125 189.34375L167.3125 193.5L166.21875 193.5L166.21875 189.32812Q166.21875 188.82812 166.07812 188.53125Q165.9375 188.23438 165.65625 188.09375Q165.375 187.95312 164.95312 187.95312Q164.54688 187.95312 164.21875 188.125Q163.89062 188.29688 163.65625 188.59375Q163.42188 188.89062 163.28125 189.28125Q163.15625 189.65625 163.15625 190.09375ZM173.01562 191.8125Q173.01562 191.57812 172.90625 191.375Q172.8125 191.17188 172.5 191.01562Q172.1875 190.84375 171.5625 190.71875Q171.03125 190.60938 170.60938 190.46875Q170.1875 190.3125 169.89062 190.09375Q169.59375 189.875 169.4375 189.57812Q169.28125 189.28125 169.28125 188.89062Q169.28125 188.51562 169.4375 188.1875Q169.60938 187.84375 169.90625 187.59375Q170.21875 187.32812 170.65625 187.1875Q171.09375 187.04688 171.625 187.04688Q172.39062 187.04688 172.92188 187.3125Q173.46875 187.57812 173.75 188.03125Q174.03125 188.48438 174.03125 189.01562L172.95312 189.01562Q172.95312 188.76562 172.79688 188.51562Q172.64062 188.26562 172.34375 188.10938Q172.04688 187.9375 171.625 187.9375Q171.17188 187.9375 170.89062 188.07812Q170.60938 188.20312 170.48438 188.42188Q170.35938 188.625 170.35938 188.85938Q170.35938 189.04688 170.42188 189.1875Q170.48438 189.3125 170.64062 189.4375Q170.79688 189.54688 171.07812 189.65625Q171.375 189.75 171.82812 189.84375Q172.60938 190.01562 173.10938 190.26562Q173.60938 190.51562 173.85938 190.875Q174.10938 191.21875 174.10938 191.73438Q174.10938 192.15625 173.92188 192.5Q173.75 192.84375 173.42188 193.09375Q173.10938 193.34375 172.65625 193.48438Q172.20312 193.625 171.65625 193.625Q170.8125 193.625 170.23438 193.32812Q169.65625 193.01562 169.35938 192.54688Q169.0625 192.0625 169.0625 191.54688L170.14062 191.54688Q170.17188 191.98438 170.40625 192.25Q170.64062 192.51562 170.96875 192.625Q171.3125 192.71875 171.65625 192.71875Q172.09375 192.71875 172.39062 192.60938Q172.70312 192.48438 172.85938 192.28125Q173.01562 192.07812 173.01562 191.8125ZM177.98438 187.15625L177.98438 187.98438L174.54688 187.98438L174.54688 187.15625L177.98438 187.15625ZM175.71875 185.625L176.79688 185.625L176.79688 191.92188Q176.79688 192.25 176.89062 192.42188Q177.0 192.57812 177.15625 192.64062Q177.3125 192.6875 177.5 192.6875Q177.625 192.6875 177.76562 192.65625Q177.92188 192.625 178.0 192.60938L178.01562 193.5Q177.875 193.54688 177.67188 193.57812Q177.46875 193.625 177.17188 193.625Q176.78125 193.625 176.4375 193.46875Q176.10938 193.29688 175.90625 192.9375Q175.71875 192.5625 175.71875 191.92188L175.71875 185.625ZM180.5 187.15625L180.5 193.5L179.42188 193.5L179.42188 187.15625L180.5 187.15625ZM179.32812 185.48438Q179.32812 185.21875 179.48438 185.03125Q179.65625 184.84375 179.96875 184.84375Q180.28125 184.84375 180.4375 185.03125Q180.60938 185.21875 180.60938 185.48438Q180.60938 185.73438 180.4375 185.92188Q180.28125 186.09375 179.96875 186.09375Q179.65625 186.09375 179.48438 185.92188Q179.32812 185.73438 179.32812 185.48438ZM186.4375 187.15625L187.42188 187.15625L187.42188 193.35938Q187.42188 194.20312 187.07812 194.79688Q186.73438 195.39062 186.125 195.6875Q185.53125 196.0 184.73438 196.0Q184.40625 196.0 183.95312 195.89062Q183.51562 195.79688 183.09375 195.54688Q182.67188 195.3125 182.39062 194.90625L182.95312 194.25Q183.35938 194.73438 183.78125 194.92188Q184.21875 195.10938 184.65625 195.10938Q185.17188 195.10938 185.54688 194.90625Q185.92188 194.71875 186.125 194.34375Q186.32812 193.96875 186.32812 193.42188L186.32812 188.54688L186.4375 187.15625ZM182.0625 190.40625L182.0625 190.28125Q182.0625 189.54688 182.23438 188.95312Q182.42188 188.35938 182.73438 187.9375Q183.0625 187.5 183.51562 187.28125Q183.98438 187.04688 184.57812 187.04688Q185.17188 187.04688 185.60938 187.25Q186.0625 187.45312 186.375 187.85938Q186.6875 188.25 186.875 188.8125Q187.0625 189.35938 187.125 190.0625L187.125 190.60938Q187.0625 191.29688 186.875 191.85938Q186.6875 192.42188 186.375 192.8125Q186.0625 193.20312 185.60938 193.42188Q185.15625 193.625 184.5625 193.625Q183.98438 193.625 183.53125 193.39062Q183.07812 193.14062 182.75 192.70312Q182.42188 192.26562 182.23438 191.6875Q182.0625 191.09375 182.0625 190.40625ZM183.15625 190.28125L183.15625 190.40625Q183.15625 190.875 183.25 191.29688Q183.34375 191.70312 183.54688 192.03125Q183.75 192.34375 184.0625 192.53125Q184.39062 192.70312 184.82812 192.70312Q185.35938 192.70312 185.70312 192.46875Q186.0625 192.23438 186.26562 191.85938Q186.48438 191.48438 186.59375 191.04688L186.59375 189.64062Q186.53125 189.3125 186.39062 189.01562Q186.26562 188.71875 186.0625 188.48438Q185.85938 188.23438 185.54688 188.09375Q185.25 187.95312 184.82812 187.95312Q184.39062 187.95312 184.0625 188.14062Q183.75 188.32812 183.54688 188.65625Q183.34375 188.96875 183.25 189.39062Q183.15625 189.79688 183.15625 190.28125ZM191.95312 193.625Q191.29688 193.625 190.75 193.40625Q190.21875 193.17188 189.82812 192.76562Q189.45312 192.34375 189.25 191.78125Q189.04688 191.21875 189.04688 190.54688L189.04688 190.3125Q189.04688 189.53125 189.26562 188.92188Q189.5 188.3125 189.89062 187.89062Q190.28125 187.46875 190.78125 187.26562Q191.28125 187.04688 191.8125 187.04688Q192.5 187.04688 192.98438 187.28125Q193.48438 187.51562 193.79688 187.9375Q194.125 188.34375 194.26562 188.92188Q194.42188 189.48438 194.42188 190.14062L194.42188 190.64062L189.6875 190.64062L189.6875 189.75L193.34375 189.75L193.34375 189.67188Q193.3125 189.25 193.15625 188.85938Q193.01562 188.45312 192.6875 188.20312Q192.375 187.9375 191.8125 187.9375Q191.45312 187.9375 191.14062 188.09375Q190.82812 188.25 190.59375 188.5625Q190.375 188.85938 190.25 189.29688Q190.14062 189.73438 190.14062 190.3125L190.14062 190.54688Q190.14062 191.0 190.26562 191.40625Q190.39062 191.79688 190.625 192.09375Q190.875 192.39062 191.21875 192.5625Q191.57812 192.73438 192.01562 192.73438Q192.59375 192.73438 192.98438 192.5Q193.39062 192.26562 193.6875 191.875L194.34375 192.39062Q194.14062 192.70312 193.8125 192.98438Q193.5 193.26562 193.03125 193.45312Q192.57812 193.625 191.95312 193.625Z" fill-rule="nonzero"/><path stroke="#cccccc" stroke-width="1.0" stroke-linecap="butt" d="M372.0 305.0L372.0 103.0" fill-rule="nonzero"/><path stroke="#ff0000" stroke-width="2.0" stroke-linecap="butt" stroke-opacity="0.7019608" stroke-dasharray="8.0,6.0,2.0,6.0" d="M372.0 174.0L455.0 257.0L446.0 348.0L372.0 371.0L341.0 323.0L293.0 260.0Z" fill-rule="nonzero"/><path fill="#ff0000" fill-opacity="0.7019608" d="M368.81802 170.81802L372.0 172.875L375.18198 170.81802L373.125 174.0L375.18198 177.18198L372.0 175.125L368.81802 177.18198L370.875 174.0Z" fill-rule="nonzero"/><path fill="#ff0000" fill-opacity="0.7019608" d="M451.81802 253.81802L455.0 255.875L458.18198 253.81802L456.125 257.0L458.18198 260.18198L455.0 258.125L451.81802 260.18198L453.875 257.0Z" fill-rule="nonzero"/><path fill="#ff0000" fill-opacity="0.7019608" d="M442.81802 344.81802L446.0 346.875L449.18198 344.81802L447.125 348.0L449.18198 351.18198L446.0 349.125L442.81802 351.18198L444.875 348.0Z" fill-rule="nonzero"/><path fill="#ff0000" fill-opacity="0.7019608" d="M368.81802 367.81802L372.0 369.875L375.18198 367.81802L373.125 371.0L375.18198 374.18198L372.0 372.125L368.81802 374.18198L370.875 371.0Z" fill-rule="nonzero"/><path fill="#ff0000" fill-opacity="0.7019608" d="M337.81802 319.81802L341.0 321.875L344.18198 319.81802L342.125 323.0L344.18198 326.18198L341.0 324.125L337.81802 326.18198L339.875 323.0Z" fill-rule="nonzero"/><path fill="#ff0000" fill-opacity="0.7019608" d="M289.81802 256.81802L293.0 258.875L296.18198 256.81802L294.125 260.0L296.18198 263.18198L293.0 261.125L289.81802 263.18198L291.875 260.0Z" fill-rule="nonzero"/><path fill="#757575" d="M29.896875 47.35L29.896875 33.0375L35.2875 33.0375Q36.725 33.0375 37.475 33.1625Q38.521873 33.35 39.240623 33.85Q39.959373 34.334373 40.38125 35.225Q40.81875 36.115623 40.81875 37.178123Q40.81875 39.00625 39.646873 40.271873Q38.490623 41.521873 35.459373 41.521873L31.7875 41.521873L31.7875 47.35L29.896875 47.35ZM31.7875 39.834373L35.490623 39.834373Q37.31875 39.834373 38.084373 39.1625Q38.865623 38.475 38.865623 37.225Q38.865623 36.334373 38.4125 35.69375Q37.959373 35.053123 37.225 34.85Q36.740623 34.725 35.44375 34.725L31.7875 34.725L31.7875 39.834373ZM49.771873 44.00625L51.584373 44.240623Q51.1625 45.81875 49.990623 46.709373Q48.834373 47.584373 47.021873 47.584373Q44.75625 47.584373 43.4125 46.19375Q42.084373 44.7875 42.084373 42.25625Q42.084373 39.63125 43.428123 38.19375Q44.771873 36.740623 46.928123 36.740623Q49.00625 36.740623 50.31875 38.1625Q51.646873 39.56875 51.646873 42.146873Q51.646873 42.303123 51.63125 42.615623L43.896873 42.615623Q43.990623 44.31875 44.865623 45.225Q45.740623 46.13125 47.0375 46.13125Q48.00625 46.13125 48.678123 45.63125Q49.365623 45.115623 49.771873 44.00625ZM43.990623 41.1625L49.7875 41.1625Q49.678123 39.865623 49.13125 39.209373Q48.2875 38.19375 46.94375 38.19375Q45.740623 38.19375 44.9125 39.00625Q44.084373 39.803123 43.990623 41.1625ZM60.44375 46.06875Q59.459373 46.896873 58.553123 47.240623Q57.646873 47.584373 56.615623 47.584373Q54.9125 47.584373 53.990623 46.75625Q53.06875 45.9125 53.06875 44.615623Q53.06875 43.85 53.4125 43.225Q53.771873 42.6 54.334373 42.225Q54.896873 41.834373 55.6 41.63125Q56.115623 41.50625 57.1625 41.365623Q59.2875 41.115623 60.2875 40.771873Q60.303123 40.4125 60.303123 40.303123Q60.303123 39.240623 59.803123 38.7875Q59.13125 38.19375 57.803123 38.19375Q56.553123 38.19375 55.959373 38.63125Q55.38125 39.06875 55.1 40.178123L53.38125 39.94375Q53.615623 38.834373 54.146873 38.1625Q54.678123 37.475 55.69375 37.115623Q56.709373 36.740623 58.053123 36.740623Q59.38125 36.740623 60.209373 37.053123Q61.0375 37.365623 61.428123 37.85Q61.81875 38.31875 61.975 39.0375Q62.06875 39.490623 62.06875 40.6625L62.06875 43.00625Q62.06875 45.459373 62.178123 46.115623Q62.2875 46.75625 62.63125 47.35L60.7875 47.35Q60.521873 46.803123 60.44375 46.06875ZM60.2875 42.146873Q59.334373 42.5375 57.4125 42.803123Q56.334373 42.959373 55.88125 43.1625Q55.44375 43.35 55.19375 43.725Q54.94375 44.1 54.94375 44.56875Q54.94375 45.271873 55.475 45.740623Q56.00625 46.209373 57.0375 46.209373Q58.053123 46.209373 58.834373 45.771873Q59.63125 45.31875 60.00625 44.553123Q60.2875 43.94375 60.2875 42.7875L60.2875 42.146873ZM71.44375 43.553123L73.1625 43.771873Q72.88125 45.56875 71.70937 46.584373Q70.55312 47.584373 68.85 47.584373Q66.725 47.584373 65.42812 46.19375Q64.13125 44.803123 64.13125 42.209373Q64.13125 40.521873 64.67812 39.271873Q65.24062 38.00625 66.38125 37.38125Q67.52187 36.740623 68.86562 36.740623Q70.55312 36.740623 71.61562 37.6Q72.69375 38.459373 73.00625 40.021873L71.2875 40.2875Q71.05312 39.240623 70.42812 38.725Q69.80312 38.19375 68.92812 38.19375Q67.6 38.19375 66.77187 39.146873Q65.94375 40.1 65.94375 42.146873Q65.94375 44.240623 66.74062 45.19375Q67.5375 46.13125 68.83437 46.13125Q69.86562 46.13125 70.55312 45.50625Q71.25625 44.865623 71.44375 43.553123ZM74.6625 47.35L74.6625 33.0375L76.42812 33.0375L76.42812 38.1625Q77.6625 36.740623 79.5375 36.740623Q80.67812 36.740623 81.52187 37.19375Q82.38125 37.646873 82.74062 38.459373Q83.11562 39.25625 83.11562 40.771873L83.11562 47.35L81.36562 47.35L81.36562 40.771873Q81.36562 39.459373 80.7875 38.865623Q80.20937 38.25625 79.17812 38.25625Q78.39687 38.25625 77.69375 38.6625Q77.00625 39.06875 76.70937 39.771873Q76.42812 40.459373 76.42812 41.678123L76.42812 47.35L74.6625 47.35ZM101.11562 42.334373L103.00625 42.803123Q102.4125 45.146873 100.86562 46.38125Q99.31875 47.6 97.06875 47.6Q94.75625 47.6 93.30312 46.6625Q91.86562 45.709373 91.1 43.928123Q90.35 42.13125 90.35 40.084373Q90.35 37.85 91.19375 36.19375Q92.05312 34.521873 93.63125 33.6625Q95.20937 32.7875 97.1 32.7875Q99.25625 32.7875 100.70937 33.88125Q102.17812 34.975 102.75625 36.959373L100.89687 37.396873Q100.39687 35.834373 99.44375 35.13125Q98.50625 34.4125 97.06875 34.4125Q95.4125 34.4125 94.30312 35.209373Q93.19375 35.990623 92.74062 37.334373Q92.30312 38.6625 92.30312 40.06875Q92.30312 41.896873 92.83437 43.271873Q93.36562 44.63125 94.49062 45.303123Q95.61562 45.975 96.9125 45.975Q98.50625 45.975 99.61562 45.053123Q100.725 44.13125 101.11562 42.334373ZM104.6625 47.35L104.6625 33.0375L106.42812 33.0375L106.42812 38.1625Q107.6625 36.740623 109.5375 36.740623Q110.67812 36.740623 111.52187 37.19375Q112.38125 37.646873 112.74062 38.459373Q113.11562 39.25625 113.11562 40.771873L113.11562 47.35L111.36562 47.35L111.36562 40.771873Q111.36562 39.459373 110.7875 38.865623Q110.20937 38.25625 109.17812 38.25625Q108.39687 38.25625 107.69375 38.6625Q107.00625 39.06875 106.70937 39.771873Q106.42812 40.459373 106.42812 41.678123L106.42812 47.35L104.6625 47.35ZM121.77187 44.00625L123.58437 44.240623Q123.1625 45.81875 121.99062 46.709373Q120.83437 47.584373 119.02187 47.584373Q116.75625 47.584373 115.4125 46.19375Q114.08437 44.7875 114.08437 42.25625Q114.08437 39.63125 115.42812 38.19375Q116.77187 36.740623 118.92812 36.740623Q121.00625 36.740623 122.31875 38.1625Q123.64687 39.56875 123.64687 42.146873Q123.64687 42.303123 123.63125 42.615623L115.89687 42.615623Q115.99062 44.31875 116.86562 45.225Q117.74062 46.13125 119.0375 46.13125Q120.00625 46.13125 120.67812 45.63125Q121.36562 45.115623 121.77187 44.00625ZM115.99062 41.1625L121.7875 41.1625Q121.67812 39.865623 121.13125 39.209373Q120.2875 38.19375 118.94375 38.19375Q117.74062 38.19375 116.9125 39.00625Q116.08437 39.803123 115.99062 41.1625ZM125.6625 47.35L125.6625 36.975L127.24062 36.975L127.24062 38.428123Q127.725 37.678123 128.5375 37.209373Q129.35 36.740623 130.38126 36.740623Q131.5375 36.740623 132.27188 37.225Q133.00626 37.69375 133.31876 38.553123Q134.55313 36.740623 136.52188 36.740623Q138.06876 36.740623 138.89688 37.6Q139.725 38.459373 139.725 40.225L139.725 47.35L137.975 47.35L137.975 40.81875Q137.975 39.75625 137.80313 39.303123Q137.63126 38.834373 137.17813 38.553123Q136.74063 38.271873 136.13126 38.271873Q135.0375 38.271873 134.30313 39.00625Q133.58438 39.725 133.58438 41.31875L133.58438 47.35L131.83438 47.35L131.83438 40.615623Q131.83438 39.44375 131.39688 38.865623Q130.975 38.271873 129.99063 38.271873Q129.25626 38.271873 128.61563 38.6625Q127.99062 39.053123 127.70937 39.803123Q127.42812 40.553123 127.42812 41.975L127.42812 47.35L125.6625 47.35ZM148.77188 44.00625L150.58438 44.240623Q150.1625 45.81875 148.99063 46.709373Q147.83438 47.584373 146.02188 47.584373Q143.75626 47.584373 142.4125 46.19375Q141.08438 44.7875 141.08438 42.25625Q141.08438 39.63125 142.42813 38.19375Q143.77188 36.740623 145.92813 36.740623Q148.00626 36.740623 149.31876 38.1625Q150.64688 39.56875 150.64688 42.146873Q150.64688 42.303123 150.63126 42.615623L142.89688 42.615623Q142.99063 44.31875 143.86563 45.225Q144.74063 46.13125 146.0375 46.13125Q147.00626 46.13125 147.67813 45.63125Q148.36563 45.115623 148.77188 44.00625ZM142.99063 41.1625L148.7875 41.1625Q148.67813 39.865623 148.13126 39.209373Q147.2875 38.19375 145.94376 38.19375Q144.74063 38.19375 143.9125 39.00625Q143.08438 39.803123 142.99063 41.1625ZM152.6625 47.35L152.6625 36.975L154.25626 36.975L154.25626 38.459373Q155.39688 36.740623 157.55313 36.740623Q158.49063 36.740623 159.27188 37.084373Q160.06876 37.4125 160.45938 37.959373Q160.85 38.50625 161.00626 39.25625Q161.1 39.75625 161.1 40.975L161.1 47.35L159.33438 47.35L159.33438 41.0375Q159.33438 39.959373 159.13126 39.428123Q158.92813 38.896873 158.39688 38.584373Q157.88126 38.271873 157.17813 38.271873Q156.05313 38.271873 155.24063 38.990623Q154.42813 39.69375 154.42813 41.678123L154.42813 47.35L152.6625 47.35ZM166.50626 45.771873L166.75626 47.334373Q166.02188 47.490623 165.42813 47.490623Q164.475 47.490623 163.94376 47.19375Q163.42813 46.88125 163.20938 46.396873Q162.99063 45.896873 162.99063 44.31875L162.99063 38.35L161.70938 38.35L161.70938 36.975L162.99063 36.975L162.99063 34.4125L164.74063 33.35L164.74063 36.975L166.50626 36.975L166.50626 38.35L164.74063 38.35L164.74063 44.4125Q164.74063 45.1625 164.83438 45.38125Q164.92813 45.584373 165.13126 45.725Q165.35 45.85 165.74063 45.85Q166.02188 45.85 166.50626 45.771873ZM168.67813 35.053123L168.67813 33.0375L170.44376 33.0375L170.44376 35.053123L168.67813 35.053123ZM168.67813 47.35L168.67813 36.975L170.44376 36.975L170.44376 47.35L168.67813 47.35ZM172.6625 47.35L172.6625 36.975L174.25626 36.975L174.25626 38.459373Q175.39688 36.740623 177.55313 36.740623Q178.49063 36.740623 179.27188 37.084373Q180.06876 37.4125 180.45938 37.959373Q180.85 38.50625 181.00626 39.25625Q181.1 39.75625 181.1 40.975L181.1 47.35L179.33438 47.35L179.33438 41.0375Q179.33438 39.959373 179.13126 39.428123Q178.92813 38.896873 178.39688 38.584373Q177.88126 38.271873 177.17813 38.271873Q176.05313 38.271873 175.24063 38.990623Q174.42813 39.69375 174.42813 41.678123L174.42813 47.35L172.6625 47.35ZM189.77188 44.00625L191.58438 44.240623Q191.1625 45.81875 189.99063 46.709373Q188.83438 47.584373 187.02188 47.584373Q184.75626 47.584373 183.4125 46.19375Q182.08438 44.7875 182.08438 42.25625Q182.08438 39.63125 183.42813 38.19375Q184.77188 36.740623 186.92813 36.740623Q189.00626 36.740623 190.31876 38.1625Q191.64688 39.56875 191.64688 42.146873Q191.64688 42.303123 191.63126 42.615623L183.89688 42.615623Q183.99063 44.31875 184.86563 45.225Q185.74063 46.13125 187.0375 46.13125Q188.00626 46.13125 188.67813 45.63125Q189.36563 45.115623 189.77188 44.00625ZM183.99063 41.1625L189.7875 41.1625Q189.67813 39.865623 189.13126 39.209373Q188.2875 38.19375 186.94376 38.19375Q185.74063 38.19375 184.9125 39.00625Q184.08438 39.803123 183.99063 41.1625Z" fill-rule="nonzero"/></svg>