<svg version="1.1" viewBox="0.0 0.0 744.0 567.0" fill="none" stroke="none" stroke-linecap="square" stroke-miterlimit="10" width="744" height="567" xmlns:xlink="http://www.w3.org/1999/xlink" xmlns="http://www.w3.org/2000/svg"><path fill="#ffffff" d="M0 0L744.0 0L744.0 567.0L0 567.0L0 0Z" fill-rule="nonzero"/><path fill="#ffffff" d="M28.35 71.25L715.64996 71.25L715.64996 538.65L28.35 538.65L28.35 71.25Z" fill-rule="nonzero"/><path stroke="#cccccc" stroke-width="1.0" stroke-linecap="butt" d="M372.0 305.0C372.0 305.0 372.0 305.0 372.0 305.0C372.0 305.0 372.0 305.0 372.0 305.0C372.0 305.0 372.0 305.0 372.0 305.0C372.0 305.0 372.0 305.0 372.0 305.0" fill-rule="nonzero"/><path fill="#000000" d="M360.0625 297.04688L360.0625 298.35938Q360.0625 299.40625 359.875 300.125Q359.6875 300.84375 359.32812 301.28125Q358.98438 301.71875 358.48438 301.92188Q358.0 302.125 357.375 302.125Q356.89062 302.125 356.46875 302.0Q356.04688 301.875 355.71875 301.60938Q355.39062 301.32812 355.15625 300.89062Q354.92188 300.45312 354.79688 299.82812Q354.67188 299.1875 354.67188 298.35938L354.67188 297.04688Q354.67188 296.0 354.85938 295.29688Q355.0625 294.59375 355.40625 294.15625Q355.76562 293.71875 356.25 293.53125Q356.75 293.34375 357.35938 293.34375Q357.85938 293.34375 358.28125 293.46875Q358.70312 293.59375 359.03125 293.85938Q359.35938 294.10938 359.57812 294.54688Q359.8125 294.96875 359.9375 295.59375Q360.0625 296.21875 360.0625 297.04688ZM358.96875 298.53125L358.96875 296.875Q358.96875 296.29688 358.90625 295.85938Q358.84375 295.42188 358.70312 295.10938Q358.57812 294.79688 358.375 294.60938Q358.1875 294.42188 357.9375 294.32812Q357.6875 294.23438 357.35938 294.23438Q356.98438 294.23438 356.67188 294.375Q356.375 294.51562 356.17188 294.82812Q355.96875 295.14062 355.85938 295.65625Q355.76562 296.15625 355.76562 296.875L355.76562 298.53125Q355.76562 299.10938 355.82812 299.54688Q355.90625 299.98438 356.03125 300.3125Q356.17188 300.625 356.35938 300.82812Q356.5625 301.03125 356.8125 301.125Q357.0625 301.21875 357.375 301.21875Q357.78125 301.21875 358.07812 301.07812Q358.375 300.92188 358.57812 300.59375Q358.78125 300.26562 358.875 299.76562Q358.96875 299.25 358.96875 298.53125ZM362.8125 300.70312L362.8125 301.57812Q362.8125 302.125 362.53125 302.71875Q362.26562 303.3125 361.78125 303.70312L361.17188 303.28125Q361.35938 303.01562 361.48438 302.75Q361.60938 302.48438 361.67188 302.20312Q361.75 301.92188 361.75 301.59375L361.75 300.70312L362.8125 300.70312ZM369.0625 297.04688L369.0625 298.35938Q369.0625 299.40625 368.875 300.125Q368.6875 300.84375 368.32812 301.28125Q367.98438 301.71875 367.48438 301.92188Q367.0 302.125 366.375 302.125Q365.89062 302.125 365.46875 302.0Q365.04688 301.875 364.71875 301.60938Q364.39062 301.32812 364.15625 300.89062Q363.92188 300.45312 363.79688 299.82812Q363.67188 299.1875 363.67188 298.35938L363.67188 297.04688Q363.67188 296.0 363.85938 295.29688Q364.0625 294.59375 364.40625 294.15625Q364.76562 293.71875 365.25 293.53125Q365.75 293.34375 366.35938 293.34375Q366.85938 293.34375 367.28125 293.46875Q367.70312 293.59375 368.03125 293.85938Q368.35938 294.10938 368.57812 294.54688Q368.8125 294.96875 368.9375 295.59375Q369.0625 296.21875 369.0625 297.04688ZM367.96875 298.53125L367.96875 296.875Q367.96875 296.29688 367.90625 295.85938Q367.84375 295.42188 367.70312 295.10938Q367.57812 294.79688 367.375 294.60938Q367.1875 294.42188 366.9375 294.32812Q366.6875 294.23438 366.35938 294.23438Q365.98438 294.23438 365.67188 294.375Q365.375 294.51562 365.17188 294.82812Q364.96875 295.14062 364.85938 295.65625Q364.76562 296.15625 364.76562 296.875L364.76562 298.53125Q364.76562 299.10938 364.82812 299.54688Q364.90625 299.98438 365.03125 300.3125Q365.17188 300.625 365.35938 300.82812Q365.5625 301.03125 365.8125 301.125Q366.0625 301.21875 366.375 301.21875Q366.78125 301.21875 367.07812 301.07812Q367.375 300.92188 367.57812 300.59375Q367.78125 300.26562 367.875 299.76562Q367.96875 299.25 367.96875 298.53125Z" fill-rule="nonzero"/><path stroke="#cccccc" stroke-width="1.0" stroke-linecap="butt" d="M422.425 305.0C422.425 277.15103 399.84897 254.575 372.0 254.575C344.15103 254.575 321.575 277.15103 321.575 305.0C321.575 332.84897 344.15103 355.425 372.0 355.425C399.84897 355.425 422.425 332.84897 422.425 305.0" fill-rule="nonzero"/><path fill="#000000" d="M360.0625 246.62187L360.0625 247.93437Q360.0625 248.98125 359.875 249.7Q359.6875 250.41875 359.32812 250.85625Q358.98438 251.29375 358.48438 251.49687Q358.0 251.7 357.375 251.7Q356.89062 251.7 356.46875 251.575Q356.04688 251.45 355.71875 251.18437Q355.39062 250.90312 355.15625 250.46562Q354.92188 250.02812 354.79688 249.40312Q354.67188 248.7625 354.67188 247.93437L354.67188 246.62187Q354.67188 245.575 354.85938 244.87187Q355.0625 244.16875 355.40625 243.73125Q355.76562 243.29375 356.25 243.10625Q356.75 242.91875 357.35938 242.91875Q357.85938 242.91875 358.28125 243.04375Q358.70312 243.16875 359.03125 243.43437Q359.35938 243.68437 359.57812 244.12187Q359.8125 244.54375 359.9375 245.16875Q360.0625 245.79375 360.0625 246.62187ZM358.96875 248.10625L358.96875 246.45Q358.96875 245.87187 358.90625 245.43437Q358.84375 244.99687 358.70312 244.68437Q358.57812 244.37187 358.375 244.18437Q358.1875 243.99687 357.9375 243.90312Q357.6875 243.80937 357.35938 243.80937Q356.98438 243.80937 356.67188 243.95Q356.375 244.09062 356.17188 244.40312Q355.96875 244.71562 355.85938 245.23125Q355.76562 245.73125 355.76562 246.45L355.76562 248.10625Q355.76562 248.68437 355.82812 249.12187Q355.90625 249.55937 356.03125 249.8875Q356.17188 250.2 356.35938 250.40312Q356.5625 250.60625 356.8125 250.7Q357.0625 250.79375 357.375 250.79375Q357.78125 250.79375 358.07812 250.65312Q358.375 250.49687 358.57812 250.16875Q358.78125 249.84062 358.875 249.34062Q358.96875 248.825 358.96875 248.10625ZM362.8125 250.27812L362.8125 251.15312Q362.8125 251.7 362.53125 252.29375Q362.26562 252.8875 361.78125 253.27812L361.17188 252.85625Q361.35938 252.59062 361.48438 252.325Q361.60938 252.05937 361.67188 251.77812Q361.75 251.49687 361.75 251.16875L361.75 250.27812L362.8125 250.27812ZM367.26562 242.99687L367.26562 251.575L366.1875 251.575L366.1875 244.35625L364.0 245.15312L364.0 244.16875L367.10938 242.99687L367.26562 242.99687Z" fill-rule="nonzero"/><path stroke="#cccccc" stroke-width="1.0" stroke-linecap="butt" d="M472.85 305.0C472.85 249.30208 427.6979 204.15 372.0 204.15C316.3021 204.15 271.15 249.30208 271.15 305.0C271.15 360.6979 316.3021 405.85 372.0 405.85C427.6979 405.85 472.85 360.6979 472.85 305.0" fill-rule="nonzero"/><path fill="#000000" d="M360.0625 196.19687L360.0625 197.50937Q360.0625 198.55624 359.875 199.275Q359.6875 199.99374 359.32812 200.43124Q358.98438 200.86874 358.48438 201.07187Q358.0 201.275 357.375 201.275Q356.89062 201.275 356.46875 201.15Q356.04688 201.025 355.71875 200.75937Q355.39062 200.47812 355.15625 200.04062Q354.92188 199.60312 354.79688 198.97812Q354.67188 198.3375 354.67188 197.50937L354.67188 196.19687Q354.67188 195.15 354.85938 194.44687Q355.0625 193.74374 355.40625 193.30624Q355.76562 192.86874 356.25 192.68124Q356.75 192.49374 357.35938 192.49374Q357.85938 192.49374 358.28125 192.61874Q358.70312 192.74374 359.03125 193.00937Q359.35938 193.25937 359.57812 193.69687Q359.8125 194.11874 359.9375 194.74374Q360.0625 195.36874 360.0625 196.19687ZM358.96875 197.68124L358.96875 196.025Q358.96875 195.44687 358.90625 195.00937Q358.84375 194.57187 358.70312 194.25937Q358.57812 193.94687 358.375 193.75937Q358.1875 193.57187 357.9375 193.47812Q357.6875 193.38437 357.35938 193.38437Q356.98438 193.38437 356.67188 193.525Q356.375 193.66562 356.17188 193.97812Q355.96875 194.29062 355.85938 194.80624Q355.76562 195.30624 355.76562 196.025L355.76562 197.68124Q355.76562 198.25937 355.82812 198.69687Q355.90625 199.13437 356.03125 199.4625Q356.17188 199.775 356.35938 199.97812Q356.5625 200.18124 356.8125 200.275Q357.0625 200.36874 357.375 200.36874Q357.78125 200.36874 358.07812 200.22812Q358.375 200.07187 358.57812 199.74374Q358.78125 199.41562 358.875 198.91562Q358.96875 198.4 358.96875 197.68124ZM362.8125 199.85312L362.8125 200.72812Q362.8125 201.275 362.53125 201.86874Q362.26562 202.4625 361.78125 202.85312L361.17188 202.43124Q361.35938 202.16562 361.48438 201.9Q361.60938 201.63437 361.67188 201.35312Q361.75 201.07187 361.75 200.74374L361.75 199.85312L362.8125 199.85312ZM369.29688 200.25937L369.29688 201.15L363.71875 201.15L363.71875 200.36874L366.51562 197.25937Q367.03125 196.68124 367.3125 196.29062Q367.59375 195.88437 367.70312 195.57187Q367.82812 195.24374 367.82812 194.91562Q367.82812 194.49374 367.65625 194.15Q367.48438 193.80624 367.14062 193.60312Q366.8125 193.38437 366.32812 193.38437Q365.76562 193.38437 365.39062 193.61874Q365.01562 193.8375 364.82812 194.22812Q364.64062 194.61874 364.64062 195.11874L363.54688 195.11874Q363.54688 194.4 363.85938 193.80624Q364.1875 193.2125 364.79688 192.85312Q365.42188 192.49374 366.32812 192.49374Q367.14062 192.49374 367.71875 192.79062Q368.29688 193.07187 368.59375 193.5875Q368.90625 194.0875 368.90625 194.775Q368.90625 195.15 368.78125 195.54062Q368.65625 195.91562 368.4375 196.30624Q368.21875 196.68124 367.92188 197.05624Q367.64062 197.41562 367.3125 197.775L365.01562 200.25937L369.29688 200.25937Z" fill-rule="nonzero"/><path stroke="#cccccc" stroke-width="1.0" stroke-linecap="butt" d="M523.275 305.0C523.275 221.45312 455.54688 153.725 372.0 153.725C288.45312 153.725 220.725 221.45312 220.725 305.0C220.725 388.54688 288.45312 456.275 372.0 456.275C455.54688 456.275 523.275 388.54688 523.275 305.0" fill-rule="nonzero"/><path fill="#000000" d="M360.0625 145.77188L360.0625 147.08438Q360.0625 148.13126 359.875 148.85Q359.6875 149.56876 359.32812 150.00626Q358.98438 150.44376 358.48438 150.64688Q358.0 150.85 357.375 150.85Q356.89062 150.85 356.46875 150.725Q356.04688 150.6 355.71875 150.33438Q355.39062 150.05313 355.15625 149.61563Q354.92188 149.17813 354.79688 148.55313Q354.67188 147.9125 354.67188 147.08438L354.67188 145.77188Q354.67188 144.725 354.85938 144.02188Q355.0625 143.31876 355.40625 142.88126Q355.76562 142.44376 356.25 142.25626Q356.75 142.06876 357.35938 142.06876Q357.85938 142.06876 358.28125 142.19376Q358.70312 142.31876 359.03125 142.58438Q359.35938 142.83438 359.57812 143.27188Q359.8125 143.69376 359.9375 144.31876Q360.0625 144.94376 360.0625 145.77188ZM358.96875 147.25626L358.96875 145.6Q358.96875 145.02188 358.90625 144.58438Q358.84375 144.14688 358.70312 143.83438Q358.57812 143.52188 358.375 143.33438Q358.1875 143.14688 357.9375 143.05313Q357.6875 142.95938 357.35938 142.95938Q356.98438 142.95938 356.67188 143.1Q356.375 143.24063 356.17188 143.55313Q355.96875 143.86563 355.85938 144.38126Q355.76562 144.88126 355.76562 145.6L355.76562 147.25626Q355.76562 147.83438 355.82812 148.27188Q355.90625 148.70938 356.03125 149.0375Q356.17188 149.35 356.35938 149.55313Q356.5625 149.75626 356.8125 149.85Q357.0625 149.94376 357.375 149.94376Q357.78125 149.94376 358.07812 149.80313Q358.375 149.64688 358.57812 149.31876Q358.78125 148.99063 358.875 148.49063Q358.96875 147.975 358.96875 147.25626ZM362.8125 149.42813L362.8125 150.30313Q362.8125 150.85 362.53125 151.44376Q362.26562 152.0375 361.78125 152.42813L361.17188 152.00626Q361.35938 151.74063 361.48438 151.475Q361.60938 151.20938 361.67188 150.92813Q361.75 150.64688 361.75 150.31876L361.75 149.42813L362.8125 149.42813ZM365.29688 145.92813L366.0625 145.92813Q366.64062 145.92813 367.0 145.74063Q367.375 145.5375 367.5625 145.20938Q367.75 144.88126 367.75 144.45938Q367.75 143.975 367.57812 143.64688Q367.42188 143.30313 367.09375 143.13126Q366.76562 142.95938 366.26562 142.95938Q365.79688 142.95938 365.45312 143.14688Q365.10938 143.31876 364.90625 143.64688Q364.71875 143.975 364.71875 144.42813L363.625 144.42813Q363.625 143.77188 363.95312 143.24063Q364.28125 142.70938 364.875 142.39688Q365.46875 142.06876 366.26562 142.06876Q367.03125 142.06876 367.60938 142.35Q368.1875 142.61563 368.51562 143.1625Q368.84375 143.69376 368.84375 144.49063Q368.84375 144.81876 368.6875 145.17813Q368.53125 145.5375 368.21875 145.86563Q367.90625 146.17813 367.40625 146.38126Q366.92188 146.58438 366.21875 146.58438L365.29688 146.58438L365.29688 145.92813ZM365.29688 146.81876L365.29688 146.1625L366.21875 146.1625Q367.03125 146.1625 367.5625 146.36563Q368.09375 146.55313 368.40625 146.88126Q368.71875 147.19376 368.84375 147.58438Q368.96875 147.95938 368.96875 148.35Q368.96875 148.94376 368.76562 149.4125Q368.5625 149.86563 368.1875 150.19376Q367.82812 150.50626 367.32812 150.67813Q366.84375 150.85 366.26562 150.85Q365.70312 150.85 365.21875 150.69376Q364.73438 150.52188 364.35938 150.225Q363.98438 149.92813 363.76562 149.49063Q363.5625 149.0375 363.5625 148.475L364.64062 148.475Q364.64062 148.9125 364.82812 149.25626Q365.03125 149.58438 365.39062 149.77188Q365.76562 149.94376 366.26562 149.94376Q366.76562 149.94376 367.125 149.77188Q367.48438 149.6 367.67188 149.25626Q367.875 148.89688 367.875 148.36563Q367.875 147.83438 367.65625 147.49063Q367.4375 147.14688 367.01562 146.99063Q366.60938 146.81876 366.0625 146.81876L365.29688 146.81876Z" fill-rule="nonzero"/><path stroke="#cccccc" stroke-width="1.0" stroke-linecap="butt" d="M573.7 305.0C573.7 193.60417 483.39584 103.3 372.0 103.3C260.60416 103.3 170.3 193.60417 170.3 305.0C170.3 416.39584 260.60416 506.7 372.0 506.7C483.39584 506.7 573.7 416.39584 573.7 305.0" fill-rule="nonzero"/><path fill="#000000" d="M360.0625 95.34688L360.0625 96.65938Q360.0625 97.70625 359.875 98.425Q359.6875 99.14375 359.32812 99.58125Q358.98438 100.01875 358.48438 100.22188Q358.0 100.425 357.375 100.425Q356.89062 100.425 356.46875 100.3Q356.04688 100.175 355.71875 99.90938Q355.39062 99.62813 355.15625 99.19063Q354.92188 98.75313 354.79688 98.12813Q354.67188 97.4875 354.67188 96.65938L354.67188 95.34688Q354.67188 94.3 354.85938 93.59688Q355.0625 92.89375 355.40625 92.45625Q355.76562 92.01875 356.25 91.83125Q356.75 91.64375 357.35938 91.64375Q357.85938 91.64375 358.28125 91.76875Q358.70312 91.89375 359.03125 92.15938Q359.35938 92.40938 359.57812 92.84688Q359.8125 93.26875 359.9375 93.89375Q360.0625 94.51875 360.0625 95.34688ZM358.96875 96.83125L358.96875 95.175Q358.96875 94.59688 358.90625 94.15938Q358.84375 93.72188 358.70312 93.40938Q358.57812 93.09688 358.375 92.90938Q358.1875 92.72188 357.9375 92.62813Q357.6875 92.53438 357.35938 92.53438Q356.98438 92.53438 356.67188 92.675Q356.375 92.81563 356.17188 93.12813Q355.96875 93.44063 355.85938 93.95625Q355.76562 94.45625 355.76562 95.175L355.76562 96.83125Q355.76562 97.40938 355.82812 97.84688Q355.90625 98.28438 356.03125 98.6125Q356.17188 98.925 356.35938 99.12813Q356.5625 99.33125 356.8125 99.425Q357.0625 99.51875 357.375 99.51875Q357.78125 99.51875 358.07812 99.37813Q358.375 99.22188 358.57812 98.89375Q358.78125 98.56563 358.875 98.06563Q358.96875 97.55 358.96875 96.83125ZM362.8125 99.00313L362.8125 99.87813Q362.8125 100.425 362.53125 101.01875Q362.26562 101.6125 361.78125 102.00313L361.17188 101.58125Q361.35938 101.31563 361.48438 101.05Q361.60938 100.78438 361.67188 100.50313Q361.75 100.22188 361.75 99.89375L361.75 99.00313L362.8125 99.00313ZM369.46875 97.425L369.46875 98.31563L363.3125 98.31563L363.3125 97.675L367.125 91.76875L368.01562 91.76875L367.0625 93.47188L364.54688 97.425L369.46875 97.425ZM368.28125 91.76875L368.28125 100.3L367.20312 100.3L367.20312 91.76875L368.28125 91.76875Z" fill-rule="nonzero"/><path stroke="#cccccc" stroke-width="1.0" stroke-linecap="butt" d="M372.0 305.0L372.0 103.0" fill-rule="nonzero"/><path fill="#000000" d="M342.64062 79.78125L343.76562 79.78125Q343.67188 80.59375 343.29688 81.234375Q342.92188 81.875 342.23438 82.25Q341.5625 82.625 340.53125 82.625Q339.78125 82.625 339.17188 82.34375Q338.5625 82.046875 338.10938 81.53125Q337.67188 81.015625 337.4375 80.296875Q337.20312 79.5625 337.20312 78.65625L337.20312 77.8125Q337.20312 76.921875 337.4375 76.1875Q337.67188 75.453125 338.125 74.9375Q338.57812 74.40625 339.20312 74.125Q339.84375 73.84375 340.625 73.84375Q341.59375 73.84375 342.26562 74.21875Q342.9375 74.578125 343.29688 75.21875Q343.67188 75.859375 343.76562 76.703125L342.64062 76.703125Q342.5625 76.109375 342.32812 75.6875Q342.10938 75.25 341.70312 75.015625Q341.29688 74.78125 340.625 74.78125Q340.0625 74.78125 339.625 75.0Q339.20312 75.203125 338.90625 75.609375Q338.625 76.0 338.46875 76.5625Q338.32812 77.125 338.32812 77.796875L338.32812 78.65625Q338.32812 79.28125 338.45312 79.84375Q338.59375 80.390625 338.85938 80.8125Q339.125 81.21875 339.54688 81.46875Q339.96875 81.703125 340.53125 81.703125Q341.25 81.703125 341.67188 81.46875Q342.10938 81.234375 342.32812 80.8125Q342.54688 80.390625 342.64062 79.78125ZM349.0625 81.421875L349.0625 78.15625Q349.0625 77.78125 348.90625 77.5Q348.76562 77.21875 348.46875 77.078125Q348.17188 76.921875 347.73438 76.921875Q347.3125 76.921875 347.0 77.0625Q346.70312 77.203125 346.53125 77.4375Q346.35938 77.65625 346.35938 77.921875L345.28125 77.921875Q345.28125 77.578125 345.45312 77.25Q345.625 76.90625 345.95312 76.640625Q346.28125 76.359375 346.75 76.203125Q347.21875 76.046875 347.79688 76.046875Q348.48438 76.046875 349.01562 76.28125Q349.54688 76.515625 349.84375 76.984375Q350.15625 77.453125 350.15625 78.15625L350.15625 81.109375Q350.15625 81.4375 350.20312 81.796875Q350.26562 82.140625 350.375 82.40625L350.375 82.5L349.23438 82.5Q349.15625 82.3125 349.10938 82.0Q349.0625 81.6875 349.0625 81.421875ZM349.25 78.65625L349.26562 79.421875L348.17188 79.421875Q347.70312 79.421875 347.34375 79.5Q346.98438 79.5625 346.73438 79.71875Q346.48438 79.859375 346.35938 80.078125Q346.23438 80.296875 346.23438 80.59375Q346.23438 80.890625 346.35938 81.140625Q346.5 81.375 346.76562 81.53125Q347.04688 81.671875 347.4375 81.671875Q347.9375 81.671875 348.3125 81.46875Q348.70312 81.25 348.92188 80.953125Q349.15625 80.640625 349.17188 80.34375L349.64062 80.875Q349.59375 81.109375 349.40625 81.421875Q349.23438 81.71875 348.92188 82.0Q348.625 82.265625 348.20312 82.453125Q347.79688 82.625 347.28125 82.625Q346.64062 82.625 346.15625 82.375Q345.67188 82.109375 345.40625 81.6875Q345.14062 81.265625 345.14062 80.734375Q345.14062 80.21875 345.32812 79.84375Q345.53125 79.453125 345.90625 79.1875Q346.28125 78.921875 346.8125 78.796875Q347.34375 78.65625 348.0 78.65625L349.25 78.65625ZM353.40625 77.15625L353.40625 82.5L352.32812 82.5L352.32812 76.15625L353.375 76.15625L353.40625 77.15625ZM355.39062 76.125L355.39062 77.125Q355.25 77.109375 355.125 77.09375Q355.01562 77.078125 354.85938 77.078125Q354.48438 77.078125 354.1875 77.203125Q353.90625 77.3125 353.70312 77.53125Q353.51562 77.734375 353.39062 78.03125Q353.28125 78.328125 353.25 78.671875L352.9375 78.84375Q352.9375 78.265625 353.04688 77.765625Q353.17188 77.265625 353.40625 76.875Q353.65625 76.484375 354.01562 76.265625Q354.39062 76.046875 354.90625 76.046875Q355.03125 76.046875 355.17188 76.078125Q355.32812 76.09375 355.39062 76.125ZM358.10938 81.84375L359.875 76.15625L361.03125 76.15625L358.48438 83.484375Q358.40625 83.71875 358.25 83.984375Q358.10938 84.265625 357.89062 84.5Q357.67188 84.75 357.35938 84.90625Q357.04688 85.0625 356.60938 85.0625Q356.48438 85.0625 356.28125 85.015625Q356.07812 84.984375 356.0 84.96875L356.0 84.09375Q356.04688 84.09375 356.14062 84.09375Q356.25 84.109375 356.28125 84.109375Q356.65625 84.109375 356.90625 84.015625Q357.17188 83.921875 357.34375 83.6875Q357.53125 83.46875 357.65625 83.078125L358.10938 81.84375ZM356.8125 76.15625L358.45312 81.078125L358.73438 82.21875L357.96875 82.625L355.625 76.15625L356.8125 76.15625ZM362.04688 79.40625L362.04688 79.265625Q362.04688 78.578125 362.23438 78.0Q362.4375 77.40625 362.8125 76.96875Q363.1875 76.53125 363.71875 76.296875Q364.25 76.046875 364.92188 76.046875Q365.57812 76.046875 366.10938 76.296875Q366.65625 76.53125 367.03125 76.96875Q367.40625 77.40625 367.60938 78.0Q367.8125 78.578125 367.8125 79.265625L367.8125 79.40625Q367.8125 80.078125 367.60938 80.671875Q367.40625 81.25 367.03125 81.6875Q366.65625 82.125 366.125 82.375Q365.59375 82.625 364.92188 82.625Q364.26562 82.625 363.71875 82.375Q363.1875 82.125 362.8125 81.6875Q362.4375 81.25 362.23438 80.671875Q362.04688 80.078125 362.04688 79.40625ZM363.125 79.265625L363.125 79.40625Q363.125 79.875 363.23438 80.296875Q363.34375 80.71875 363.5625 81.046875Q363.79688 81.359375 364.14062 81.546875Q364.48438 81.71875 364.92188 81.71875Q365.375 81.71875 365.70312 81.546875Q366.04688 81.359375 366.26562 81.046875Q366.5 80.71875 366.60938 80.296875Q366.71875 79.875 366.71875 79.40625L366.71875 79.265625Q366.71875 78.796875 366.60938 78.375Q366.5 77.953125 366.26562 77.640625Q366.04688 77.3125 365.70312 77.125Q365.375 76.9375 364.92188 76.9375Q364.46875 76.9375 364.125 77.125Q363.79688 77.3125 363.5625 77.640625Q363.34375 77.953125 363.23438 78.375Q363.125 78.796875 363.125 79.265625ZM370.40625 77.375L370.40625 84.9375L369.32812 84.9375L369.32812 76.15625L370.3125 76.15625L370.40625 77.375ZM374.6875 79.28125L374.6875 79.40625Q374.6875 80.09375 374.51562 80.6875Q374.35938 81.265625 374.04688 81.703125Q373.73438 82.140625 373.26562 82.390625Q372.8125 82.625 372.21875 82.625Q371.625 82.625 371.15625 82.421875Q370.6875 82.21875 370.35938 81.84375Q370.04688 81.453125 369.85938 80.921875Q369.67188 80.390625 369.59375 79.71875L369.59375 79.0625Q369.67188 78.359375 369.85938 77.8125Q370.04688 77.25 370.35938 76.859375Q370.6875 76.453125 371.14062 76.25Q371.60938 76.046875 372.20312 76.046875Q372.79688 76.046875 373.26562 76.28125Q373.73438 76.5 374.04688 76.9375Q374.35938 77.359375 374.51562 77.953125Q374.6875 78.546875 374.6875 79.28125ZM373.59375 79.40625L373.59375 79.28125Q373.59375 78.796875 373.48438 78.390625Q373.39062 77.96875 373.1875 77.65625Q372.98438 77.328125 372.65625 77.140625Q372.32812 76.953125 371.89062 76.953125Q371.48438 76.953125 371.17188 77.09375Q370.875 77.234375 370.65625 77.484375Q370.45312 77.71875 370.3125 78.015625Q370.1875 78.3125 370.125 78.640625L370.125 80.15625Q370.23438 80.5625 370.4375 80.921875Q370.65625 81.28125 371.0 81.5Q371.35938 81.71875 371.90625 81.71875Q372.34375 81.71875 372.65625 81.546875Q372.98438 81.359375 373.1875 81.046875Q373.39062 80.71875 373.48438 80.296875Q373.59375 79.875 373.59375 79.40625ZM377.40625 73.5L377.40625 82.5L376.32812 82.5L376.32812 73.5L377.40625 73.5ZM377.15625 79.09375L376.70312 79.078125Q376.70312 78.421875 376.89062 77.875Q377.07812 77.3125 377.42188 76.90625Q377.76562 76.5 378.23438 76.28125Q378.70312 76.046875 379.28125 76.046875Q379.75 76.046875 380.125 76.171875Q380.5 76.296875 380.76562 76.578125Q381.03125 76.84375 381.17188 77.28125Q381.3125 77.71875 381.3125 78.34375L381.3125 82.5L380.21875 82.5L380.21875 78.328125Q380.21875 77.828125 380.07812 77.53125Q379.9375 77.234375 379.65625 77.09375Q379.375 76.953125 378.95312 76.953125Q378.54688 76.953125 378.21875 77.125Q377.89062 77.296875 377.65625 77.59375Q377.42188 77.890625 377.28125 78.28125Q377.15625 78.65625 377.15625 79.09375ZM385.10938 81.84375L386.875 76.15625L388.03125 76.15625L385.48438 83.484375Q385.40625 83.71875 385.25 83.984375Q385.10938 84.265625 384.89062 84.5Q384.67188 84.75 384.35938 84.90625Q384.04688 85.0625 383.60938 85.0625Q383.48438 85.0625 383.28125 85.015625Q383.07812 84.984375 383.0 84.96875L383.0 84.09375Q383.04688 84.09375 383.14062 84.09375Q383.25 84.109375 383.28125 84.109375Q383.65625 84.109375 383.90625 84.015625Q384.17188 83.921875 384.34375 83.6875Q384.53125 83.46875 384.65625 83.078125L385.10938 81.84375ZM383.8125 76.15625L385.45312 81.078125L385.73438 82.21875L384.96875 82.625L382.625 76.15625L383.8125 76.15625ZM390.5 73.5L390.5 82.5L389.42188 82.5L389.42188 73.5L390.5 73.5ZM393.5 73.5L393.5 82.5L392.42188 82.5L392.42188 73.5L393.5 73.5ZM397.95312 82.625Q397.29688 82.625 396.75 82.40625Q396.21875 82.171875 395.82812 81.765625Q395.45312 81.34375 395.25 80.78125Q395.04688 80.21875 395.04688 79.546875L395.04688 79.3125Q395.04688 78.53125 395.26562 77.921875Q395.5 77.3125 395.89062 76.890625Q396.28125 76.46875 396.78125 76.265625Q397.28125 76.046875 397.8125 76.046875Q398.5 76.046875 398.98438 76.28125Q399.48438 76.515625 399.79688 76.9375Q400.125 77.34375 400.26562 77.921875Q400.42188 78.484375 400.42188 79.140625L400.42188 79.640625L395.6875 79.640625L395.6875 78.75L399.34375 78.75L399.34375 78.671875Q399.3125 78.25 399.15625 77.859375Q399.01562 77.453125 398.6875 77.203125Q398.375 76.9375 397.8125 76.9375Q397.45312 76.9375 397.14062 77.09375Q396.82812 77.25 396.59375 77.5625Q396.375 77.859375 396.25 78.296875Q396.14062 78.734375 396.14062 79.3125L396.14062 79.546875Q396.14062 80.0 396.26562 80.40625Q396.39062 80.796875 396.625 81.09375Q396.875 81.390625 397.21875 81.5625Q397.57812 81.734375 398.01562 81.734375Q398.59375 81.734375 398.98438 81.5Q399.39062 81.265625 399.6875 80.875L400.34375 81.390625Q400.14062 81.703125 399.8125 81.984375Q399.5 82.265625 399.03125 82.453125Q398.57812 82.625 397.95312 82.625ZM402.40625 77.515625L402.40625 82.5L401.32812 82.5L401.32812 76.15625L402.35938 76.15625L402.40625 77.515625ZM402.15625 79.09375L401.70312 79.078125Q401.70312 78.421875 401.89062 77.875Q402.07812 77.3125 402.42188 76.90625Q402.76562 76.5 403.23438 76.28125Q403.70312 76.046875 404.28125 76.046875Q404.75 76.046875 405.125 76.171875Q405.5 76.296875 405.76562 76.578125Q406.03125 76.84375 406.17188 77.28125Q406.3125 77.71875 406.3125 78.34375L406.3125 82.5L405.21875 82.5L405.21875 78.328125Q405.21875 77.828125 405.07812 77.53125Q404.9375 77.234375 404.65625 77.09375Q404.375 76.953125 403.95312 76.953125Q403.54688 76.953125 403.21875 77.125Q402.89062 77.296875 402.65625 77.59375Q402.42188 77.890625 402.28125 78.28125Q402.15625 78.65625 402.15625 79.09375Z" fill-rule="nonzero"/><path stroke="#cccccc" stroke-width="1.0" stroke-linecap="butt" d="M372.0 305.0L547.0 204.0" fill-rule="nonzero"/><path fill="#000000" d="M546.53125 191.67188L547.3906 191.67188Q548.2031 191.67188 548.7656 191.98438Q549.34375 192.28125 549.6406 192.8125Q549.9531 193.34375 549.9531 194.01562Q549.9531 194.84375 549.6094 195.42188Q549.2656 196.0 548.6719 196.3125Q548.0781 196.625 547.2969 196.625Q546.84375 196.625 546.3906 196.5Q545.9375 196.35938 545.5625 196.09375Q545.2031 195.82812 544.9844 195.40625Q544.7656 194.98438 544.7656 194.40625L545.1875 194.15625Q545.1875 194.59375 545.4375 194.95312Q545.7031 195.29688 546.1406 195.51562Q546.59375 195.73438 547.1875 195.73438Q547.71875 195.73438 548.09375 195.51562Q548.46875 195.29688 548.6719 194.92188Q548.875 194.53125 548.875 194.03125Q548.875 193.625 548.6875 193.25Q548.5156 192.85938 548.1875 192.60938Q547.8594 192.35938 547.375 192.35938L546.53125 192.35938L546.53125 191.67188ZM547.0469 187.84375Q547.8125 187.84375 548.375 188.14062Q548.9375 188.4375 549.2344 188.95312Q549.5469 189.46875 549.5469 190.14062Q549.5469 190.70312 549.2344 191.17188Q548.9375 191.625 548.375 191.90625Q547.8125 192.17188 547.0469 192.17188L546.53125 192.17188L546.53125 191.46875L547.03125 191.46875Q547.5469 191.46875 547.8594 191.29688Q548.1719 191.125 548.3125 190.82812Q548.46875 190.51562 548.46875 190.125Q548.46875 189.76562 548.3125 189.45312Q548.15625 189.14062 547.84375 188.9375Q547.53125 188.73438 547.0469 188.73438Q546.625 188.73438 546.28125 188.9375Q545.9375 189.125 545.7344 189.46875Q545.53125 189.79688 545.53125 190.21875L545.53125 198.75L544.4375 198.75L544.4375 190.21875Q544.4375 189.5625 544.7969 189.03125Q545.15625 188.48438 545.75 188.17188Q546.34375 187.84375 547.0469 187.84375ZM553.5781 192.42188L553.5781 193.3125L550.71875 193.3125L550.71875 192.42188L553.5781 192.42188ZM554.84375 187.96875L555.9375 187.96875L558.7344 194.92188L561.53125 187.96875L562.625 187.96875L559.15625 196.5L558.3125 196.5L554.84375 187.96875ZM554.4844 187.96875L555.4531 187.96875L555.6094 193.17188L555.6094 196.5L554.4844 196.5L554.4844 187.96875ZM562.0156 187.96875L562.9844 187.96875L562.9844 196.5L561.8594 196.5L561.8594 193.17188L562.0156 187.96875ZM566.1094 195.84375L567.875 190.15625L569.03125 190.15625L566.4844 197.48438Q566.40625 197.71875 566.25 197.98438Q566.1094 198.26562 565.8906 198.5Q565.6719 198.75 565.3594 198.90625Q565.0469 199.0625 564.6094 199.0625Q564.4844 199.0625 564.28125 199.01562Q564.0781 198.98438 564.0 198.96875L564.0 198.09375Q564.0469 198.09375 564.1406 198.09375Q564.25 198.10938 564.28125 198.10938Q564.65625 198.10938 564.90625 198.01562Q565.1719 197.92188 565.34375 197.6875Q565.53125 197.46875 565.65625 197.07812L566.1094 195.84375ZM564.8125 190.15625L566.4531 195.07812L566.7344 196.21875L565.96875 196.625L563.625 190.15625L564.8125 190.15625ZM571.40625 191.15625L571.40625 196.5L570.3281 196.5L570.3281 190.15625L571.375 190.15625L571.40625 191.15625ZM573.3906 190.125L573.3906 191.125Q573.25 191.10938 573.125 191.09375Q573.0156 191.07812 572.8594 191.07812Q572.4844 191.07812 572.1875 191.20312Q571.90625 191.3125 571.7031 191.53125Q571.5156 191.73438 571.3906 192.03125Q571.28125 192.32812 571.25 192.67188L570.9375 192.84375Q570.9375 192.26562 571.0469 191.76562Q571.1719 191.26562 571.40625 190.875Q571.65625 190.48438 572.0156 190.26562Q572.3906 190.04688 572.90625 190.04688Q573.03125 190.04688 573.1719 190.07812Q573.3281 190.09375 573.3906 190.125ZM576.8594 195.71875Q577.25 195.71875 577.5781 195.5625Q577.90625 195.40625 578.1094 195.14062Q578.3281 194.85938 578.3594 194.5L579.3906 194.5Q579.3594 195.0625 579.0 195.54688Q578.65625 196.03125 578.09375 196.32812Q577.53125 196.625 576.8594 196.625Q576.15625 196.625 575.625 196.375Q575.09375 196.10938 574.7344 195.67188Q574.3906 195.23438 574.21875 194.67188Q574.0469 194.09375 574.0469 193.45312L574.0469 193.20312Q574.0469 192.5625 574.21875 192.0Q574.3906 191.42188 574.7344 190.98438Q575.09375 190.54688 575.625 190.29688Q576.15625 190.04688 576.8594 190.04688Q577.6094 190.04688 578.15625 190.34375Q578.71875 190.64062 579.03125 191.17188Q579.3594 191.6875 579.3906 192.34375L578.3594 192.34375Q578.3281 191.95312 578.1406 191.64062Q577.9531 191.3125 577.625 191.125Q577.2969 190.9375 576.8594 190.9375Q576.3594 190.9375 576.0156 191.14062Q575.6875 191.32812 575.4844 191.65625Q575.2969 191.98438 575.2031 192.39062Q575.125 192.79688 575.125 193.20312L575.125 193.45312Q575.125 193.875 575.2031 194.28125Q575.2969 194.67188 575.4844 195.0Q575.6875 195.32812 576.0156 195.53125Q576.3594 195.71875 576.8594 195.71875ZM582.9531 196.625Q582.2969 196.625 581.75 196.40625Q581.21875 196.17188 580.8281 195.76562Q580.4531 195.34375 580.25 194.78125Q580.0469 194.21875 580.0469 193.54688L580.0469 193.3125Q580.0469 192.53125 580.2656 191.92188Q580.5 191.3125 580.8906 190.89062Q581.28125 190.46875 581.78125 190.26562Q582.28125 190.04688 582.8125 190.04688Q583.5 190.04688 583.9844 190.28125Q584.4844 190.51562 584.7969 190.9375Q585.125 191.34375 585.2656 191.92188Q585.4219 192.48438 585.4219 193.14062L585.4219 193.64062L580.6875 193.64062L580.6875 192.75L584.34375 192.75L584.34375 192.67188Q584.3125 192.25 584.15625 191.85938Q584.0156 191.45312 583.6875 191.20312Q583.375 190.9375 582.8125 190.9375Q582.4531 190.9375 582.1406 191.09375Q581.8281 191.25 581.59375 191.5625Q581.375 191.85938 581.25 192.29688Q581.1406 192.73438 581.1406 193.3125L581.1406 193.54688Q581.1406 194.0 581.2656 194.40625Q581.3906 194.79688 581.625 195.09375Q581.875 195.39062 582.21875 195.5625Q582.5781 195.73438 583.0156 195.73438Q583.59375 195.73438 583.9844 195.5Q584.3906 195.26562 584.6875 194.875L585.34375 195.39062Q585.1406 195.70312 584.8125 195.98438Q584.5 196.26562 584.03125 196.45312Q583.5781 196.625 582.9531 196.625ZM587.40625 191.51562L587.40625 196.5L586.3281 196.5L586.3281 190.15625L587.3594 190.15625L587.40625 191.51562ZM587.15625 193.09375L586.7031 193.07812Q586.7031 192.42188 586.8906 191.875Q587.0781 191.3125 587.4219 190.90625Q587.7656 190.5 588.2344 190.28125Q588.7031 190.04688 589.28125 190.04688Q589.75 190.04688 590.125 190.17188Q590.5 190.29688 590.7656 190.57812Q591.03125 190.84375 591.1719 191.28125Q591.3125 191.71875 591.3125 192.34375L591.3125 196.5L590.21875 196.5L590.21875 192.32812Q590.21875 191.82812 590.0781 191.53125Q589.9375 191.23438 589.65625 191.09375Q589.375 190.95312 588.9531 190.95312Q588.5469 190.95312 588.21875 191.125Q587.8906 191.29688 587.65625 191.59375Q587.4219 191.89062 587.28125 192.28125Q587.15625 192.65625 587.15625 193.09375Z" fill-rule="nonzero"/><path stroke="#cccccc" stroke-width="1.0" stroke-linecap="butt" d="M372.0 305.0L547.0 406.0" fill-rule="nonzero"/><path fill="#000000" d="M542.2969 422.5L540.5156 422.5L540.53125 421.57812L542.2969 421.57812Q543.21875 421.57812 543.8281 421.20312Q544.4375 420.8125 544.7344 420.125Q545.0469 419.42188 545.0469 418.48438L545.0469 417.96875Q545.0469 417.23438 544.875 416.67188Q544.7031 416.09375 544.3594 415.70312Q544.0156 415.29688 543.5156 415.09375Q543.03125 414.89062 542.40625 414.89062L540.4844 414.89062L540.4844 413.96875L542.40625 413.96875Q543.25 413.96875 543.9375 414.25Q544.625 414.53125 545.125 415.0625Q545.625 415.57812 545.8906 416.32812Q546.1719 417.0625 546.1719 417.98438L546.1719 418.48438Q546.1719 419.42188 545.8906 420.17188Q545.625 420.90625 545.1094 421.42188Q544.6094 421.9375 543.8906 422.21875Q543.1875 422.5 542.2969 422.5ZM541.125 413.96875L541.125 422.5L539.9844 422.5L539.9844 413.96875L541.125 413.96875ZM550.0781 418.42188L550.0781 419.3125L547.21875 419.3125L547.21875 418.42188L550.0781 418.42188ZM556.1719 421.57812L556.1719 422.5L551.90625 422.5L551.90625 421.57812L556.1719 421.57812ZM552.125 413.96875L552.125 422.5L550.9844 422.5L550.9844 413.96875L552.125 413.96875ZM558.0 416.15625L558.0 422.5L556.9219 422.5L556.9219 416.15625L558.0 416.15625ZM556.8281 414.48438Q556.8281 414.21875 556.9844 414.03125Q557.15625 413.84375 557.46875 413.84375Q557.78125 413.84375 557.9375 414.03125Q558.1094 414.21875 558.1094 414.48438Q558.1094 414.73438 557.9375 414.92188Q557.78125 415.09375 557.46875 415.09375Q557.15625 415.09375 556.9844 414.92188Q556.8281 414.73438 556.8281 414.48438ZM560.90625 417.42188L560.90625 422.5L559.8125 422.5L559.8125 416.15625L560.84375 416.15625L560.90625 417.42188ZM560.6875 419.09375L560.1719 419.07812Q560.1875 418.42188 560.34375 417.875Q560.5156 417.3125 560.8281 416.90625Q561.15625 416.5 561.6406 416.28125Q562.125 416.04688 562.75 416.04688Q563.2031 416.04688 563.5781 416.17188Q563.9531 416.29688 564.21875 416.5625Q564.5 416.82812 564.6406 417.25Q564.7969 417.67188 564.7969 418.28125L564.7969 422.5L563.71875 422.5L563.71875 418.32812Q563.71875 417.82812 563.5469 417.53125Q563.3906 417.23438 563.0781 417.09375Q562.78125 416.95312 562.3594 416.95312Q561.8906 416.95312 561.5625 417.125Q561.2344 417.29688 561.0469 417.59375Q560.8594 417.89062 560.7656 418.28125Q560.6875 418.65625 560.6875 419.09375ZM564.7969 418.48438L564.0625 418.71875Q564.0625 418.1875 564.2344 417.71875Q564.40625 417.23438 564.71875 416.85938Q565.0469 416.48438 565.5156 416.26562Q565.9844 416.04688 566.5781 416.04688Q567.09375 416.04688 567.4844 416.1875Q567.8906 416.3125 568.15625 416.59375Q568.4219 416.875 568.5625 417.3125Q568.7031 417.73438 568.7031 418.32812L568.7031 422.5L567.625 422.5L567.625 418.32812Q567.625 417.78125 567.4531 417.5Q567.28125 417.20312 566.9844 417.07812Q566.6875 416.95312 566.2656 416.95312Q565.90625 416.95312 565.625 417.07812Q565.3594 417.20312 565.1719 417.42188Q564.9844 417.625 564.8906 417.90625Q564.7969 418.1875 564.7969 418.48438ZM570.5469 419.40625L570.5469 419.26562Q570.5469 418.57812 570.7344 418.0Q570.9375 417.40625 571.3125 416.96875Q571.6875 416.53125 572.21875 416.29688Q572.75 416.04688 573.4219 416.04688Q574.0781 416.04688 574.6094 416.29688Q575.15625 416.53125 575.53125 416.96875Q575.90625 417.40625 576.1094 418.0Q576.3125 418.57812 576.3125 419.26562L576.3125 419.40625Q576.3125 420.07812 576.1094 420.67188Q575.90625 421.25 575.53125 421.6875Q575.15625 422.125 574.625 422.375Q574.09375 422.625 573.4219 422.625Q572.7656 422.625 572.21875 422.375Q571.6875 422.125 571.3125 421.6875Q570.9375 421.25 570.7344 420.67188Q570.5469 420.07812 570.5469 419.40625ZM571.625 419.26562L571.625 419.40625Q571.625 419.875 571.7344 420.29688Q571.84375 420.71875 572.0625 421.04688Q572.2969 421.35938 572.6406 421.54688Q572.9844 421.71875 573.4219 421.71875Q573.875 421.71875 574.2031 421.54688Q574.5469 421.35938 574.7656 421.04688Q575.0 420.71875 575.1094 420.29688Q575.21875 419.875 575.21875 419.40625L575.21875 419.26562Q575.21875 418.79688 575.1094 418.375Q575.0 417.95312 574.7656 417.64062Q574.5469 417.3125 574.2031 417.125Q573.875 416.9375 573.4219 416.9375Q572.96875 416.9375 572.625 417.125Q572.2969 417.3125 572.0625 417.64062Q571.84375 417.95312 571.7344 418.375Q571.625 418.79688 571.625 419.26562ZM578.90625 417.51562L578.90625 422.5L577.8281 422.5L577.8281 416.15625L578.8594 416.15625L578.90625 417.51562ZM578.65625 419.09375L578.2031 419.07812Q578.2031 418.42188 578.3906 417.875Q578.5781 417.3125 578.9219 416.90625Q579.2656 416.5 579.7344 416.28125Q580.2031 416.04688 580.78125 416.04688Q581.25 416.04688 581.625 416.17188Q582.0 416.29688 582.2656 416.57812Q582.53125 416.84375 582.6719 417.28125Q582.8125 417.71875 582.8125 418.34375L582.8125 422.5L581.71875 422.5L581.71875 418.32812Q581.71875 417.82812 581.5781 417.53125Q581.4375 417.23438 581.15625 417.09375Q580.875 416.95312 580.4531 416.95312Q580.0469 416.95312 579.71875 417.125Q579.3906 417.29688 579.15625 417.59375Q578.9219 417.89062 578.78125 418.28125Q578.65625 418.65625 578.65625 419.09375ZM587.4531 422.625Q586.7969 422.625 586.25 422.40625Q585.71875 422.17188 585.3281 421.76562Q584.9531 421.34375 584.75 420.78125Q584.5469 420.21875 584.5469 419.54688L584.5469 419.3125Q584.5469 418.53125 584.7656 417.92188Q585.0 417.3125 585.3906 416.89062Q585.78125 416.46875 586.28125 416.26562Q586.78125 416.04688 587.3125 416.04688Q588.0 416.04688 588.4844 416.28125Q588.9844 416.51562 589.2969 416.9375Q589.625 417.34375 589.7656 417.92188Q589.9219 418.48438 589.9219 419.14062L589.9219 419.64062L585.1875 419.64062L585.1875 418.75L588.84375 418.75L588.84375 418.67188Q588.8125 418.25 588.65625 417.85938Q588.5156 417.45312 588.1875 417.20312Q587.875 416.9375 587.3125 416.9375Q586.9531 416.9375 586.6406 417.09375Q586.3281 417.25 586.09375 417.5625Q585.875 417.85938 585.75 418.29688Q585.6406 418.73438 585.6406 419.3125L585.6406 419.54688Q585.6406 420.0 585.7656 420.40625Q585.8906 420.79688 586.125 421.09375Q586.375 421.39062 586.71875 421.5625Q587.0781 421.73438 587.5156 421.73438Q588.09375 421.73438 588.4844 421.5Q588.8906 421.26562 589.1875 420.875L589.84375 421.39062Q589.6406 421.70312 589.3125 421.98438Q589.0 422.26562 588.53125 422.45312Q588.0781 422.625 587.4531 422.625ZM591.90625 417.51562L591.90625 422.5L590.8281 422.5L590.8281 416.15625L591.8594 416.15625L591.90625 417.51562ZM591.65625 419.09375L591.2031 419.07812Q591.2031 418.42188 591.3906 417.875Q591.5781 417.3125 591.9219 416.90625Q592.2656 416.5 592.7344 416.28125Q593.2031 416.04688 593.78125 416.04688Q594.25 416.04688 594.625 416.17188Q595.0 416.29688 595.2656 416.57812Q595.53125 416.84375 595.6719 417.28125Q595.8125 417.71875 595.8125 418.34375L595.8125 422.5L594.71875 422.5L594.71875 418.32812Q594.71875 417.82812 594.5781 417.53125Q594.4375 417.23438 594.15625 417.09375Q593.875 416.95312 593.4531 416.95312Q593.0469 416.95312 592.71875 417.125Q592.3906 417.29688 592.15625 417.59375Q591.9219 417.89062 591.78125 418.28125Q591.65625 418.65625 591.65625 419.09375Z" fill-rule="nonzero"/><path stroke="#cccccc" stroke-width="1.0" stroke-linecap="butt" d="M372.0 305.0L372.0 507.0" fill-rule="nonzero"/><path fill="#000000" d="M353.5625 531.6406L353.5625 532.5625L348.95312 532.5625L348.95312 531.6406L353.5625 531.6406ZM349.125 527.96875L349.125 536.5L347.98438 536.5L347.98438 527.96875L349.125 527.96875ZM354.54688 527.96875L354.54688 536.5L353.42188 536.5L353.42188 527.96875L354.54688 527.96875ZM360.70312 535.03125L360.70312 530.15625L361.79688 530.15625L361.79688 536.5L360.76562 536.5L360.70312 535.03125ZM360.90625 533.7031L361.35938 533.6875Q361.35938 534.3125 361.21875 534.8594Q361.09375 535.3906 360.79688 535.78125Q360.51562 536.1719 360.03125 536.40625Q359.5625 536.625 358.89062 536.625Q358.42188 536.625 358.03125 536.4844Q357.65625 536.34375 357.375 536.0625Q357.10938 535.78125 356.95312 535.3281Q356.79688 534.875 356.79688 534.25L356.79688 530.15625L357.89062 530.15625L357.89062 534.2656Q357.89062 534.6875 357.98438 534.96875Q358.07812 535.25 358.25 535.40625Q358.42188 535.5625 358.625 535.6406Q358.82812 535.7031 359.04688 535.7031Q359.75 535.7031 360.14062 535.4375Q360.54688 535.15625 360.71875 534.7031Q360.90625 534.25 360.90625 533.7031ZM364.90625 531.4219L364.90625 536.5L363.8125 536.5L363.8125 530.15625L364.84375 530.15625L364.90625 531.4219ZM364.6875 533.09375L364.17188 533.0781Q364.1875 532.4219 364.34375 531.875Q364.51562 531.3125 364.82812 530.90625Q365.15625 530.5 365.64062 530.28125Q366.125 530.0469 366.75 530.0469Q367.20312 530.0469 367.57812 530.1719Q367.95312 530.2969 368.21875 530.5625Q368.5 530.8281 368.64062 531.25Q368.79688 531.6719 368.79688 532.28125L368.79688 536.5L367.71875 536.5L367.71875 532.3281Q367.71875 531.8281 367.54688 531.53125Q367.39062 531.2344 367.07812 531.09375Q366.78125 530.9531 366.35938 530.9531Q365.89062 530.9531 365.5625 531.125Q365.23438 531.2969 365.04688 531.59375Q364.85938 531.8906 364.76562 532.28125Q364.6875 532.65625 364.6875 533.09375ZM368.79688 532.4844L368.0625 532.71875Q368.0625 532.1875 368.23438 531.71875Q368.40625 531.2344 368.71875 530.8594Q369.04688 530.4844 369.51562 530.2656Q369.98438 530.0469 370.57812 530.0469Q371.09375 530.0469 371.48438 530.1875Q371.89062 530.3125 372.15625 530.59375Q372.42188 530.875 372.5625 531.3125Q372.70312 531.7344 372.70312 532.3281L372.70312 536.5L371.625 536.5L371.625 532.3281Q371.625 531.78125 371.45312 531.5Q371.28125 531.2031 370.98438 531.0781Q370.6875 530.9531 370.26562 530.9531Q369.90625 530.9531 369.625 531.0781Q369.35938 531.2031 369.17188 531.4219Q368.98438 531.625 368.89062 531.90625Q368.79688 532.1875 368.79688 532.4844ZM378.70312 535.03125L378.70312 530.15625L379.79688 530.15625L379.79688 536.5L378.76562 536.5L378.70312 535.03125ZM378.90625 533.7031L379.35938 533.6875Q379.35938 534.3125 379.21875 534.8594Q379.09375 535.3906 378.79688 535.78125Q378.51562 536.1719 378.03125 536.40625Q377.5625 536.625 376.89062 536.625Q376.42188 536.625 376.03125 536.4844Q375.65625 536.34375 375.375 536.0625Q375.10938 535.78125 374.95312 535.3281Q374.79688 534.875 374.79688 534.25L374.79688 530.15625L375.89062 530.15625L375.89062 534.2656Q375.89062 534.6875 375.98438 534.96875Q376.07812 535.25 376.25 535.40625Q376.42188 535.5625 376.625 535.6406Q376.82812 535.7031 377.04688 535.7031Q377.75 535.7031 378.14062 535.4375Q378.54688 535.15625 378.71875 534.7031Q378.90625 534.25 378.90625 533.7031ZM383.0 527.5L383.0 536.5L381.92188 536.5L381.92188 527.5L383.0 527.5ZM387.45312 536.625Q386.79688 536.625 386.25 536.40625Q385.71875 536.1719 385.32812 535.7656Q384.95312 535.34375 384.75 534.78125Q384.54688 534.21875 384.54688 533.5469L384.54688 533.3125Q384.54688 532.53125 384.76562 531.9219Q385.0 531.3125 385.39062 530.8906Q385.78125 530.46875 386.28125 530.2656Q386.78125 530.0469 387.3125 530.0469Q388.0 530.0469 388.48438 530.28125Q388.98438 530.5156 389.29688 530.9375Q389.625 531.34375 389.76562 531.9219Q389.92188 532.4844 389.92188 533.1406L389.92188 533.6406L385.1875 533.6406L385.1875 532.75L388.84375 532.75L388.84375 532.6719Q388.8125 532.25 388.65625 531.8594Q388.51562 531.4531 388.1875 531.2031Q387.875 530.9375 387.3125 530.9375Q386.95312 530.9375 386.64062 531.09375Q386.32812 531.25 386.09375 531.5625Q385.875 531.8594 385.75 532.2969Q385.64062 532.7344 385.64062 533.3125L385.64062 533.5469Q385.64062 534.0 385.76562 534.40625Q385.89062 534.7969 386.125 535.09375Q386.375 535.3906 386.71875 535.5625Q387.07812 535.7344 387.51562 535.7344Q388.09375 535.7344 388.48438 535.5Q388.89062 535.2656 389.1875 534.875L389.84375 535.3906Q389.64062 535.7031 389.3125 535.9844Q389.0 536.2656 388.53125 536.4531Q388.07812 536.625 387.45312 536.625ZM391.90625 531.5156L391.90625 536.5L390.82812 536.5L390.82812 530.15625L391.85938 530.15625L391.90625 531.5156ZM391.65625 533.09375L391.20312 533.0781Q391.20312 532.4219 391.39062 531.875Q391.57812 531.3125 391.92188 530.90625Q392.26562 530.5 392.73438 530.28125Q393.20312 530.0469 393.78125 530.0469Q394.25 530.0469 394.625 530.1719Q395.0 530.2969 395.26562 530.5781Q395.53125 530.84375 395.67188 531.28125Q395.8125 531.71875 395.8125 532.34375L395.8125 536.5L394.71875 536.5L394.71875 532.3281Q394.71875 531.8281 394.57812 531.53125Q394.4375 531.2344 394.15625 531.09375Q393.875 530.9531 393.45312 530.9531Q393.04688 530.9531 392.71875 531.125Q392.39062 531.2969 392.15625 531.59375Q391.92188 531.8906 391.78125 532.28125Q391.65625 532.65625 391.65625 533.09375Z" fill-rule="nonzero"/><path stroke="#cccccc" stroke-width="1.0" stroke-linecap="butt" d="M372.0 305.0L197.0 406.0" fill-rule="nonzero"/><path fill="#000000" d="M160.67188 421.57812L160.67188 422.5L156.40625 422.5L156.40625 421.57812L160.67188 421.57812ZM156.625 413.96875L156.625 422.5L155.48438 422.5L155.48438 413.96875L156.625 413.96875ZM162.5 416.15625L162.5 422.5L161.42188 422.5L161.42188 416.15625L162.5 416.15625ZM161.32812 414.48438Q161.32812 414.21875 161.48438 414.03125Q161.65625 413.84375 161.96875 413.84375Q162.28125 413.84375 162.4375 414.03125Q162.60938 414.21875 162.60938 414.48438Q162.60938 414.73438 162.4375 414.92188Q162.28125 415.09375 161.96875 415.09375Q161.65625 415.09375 161.48438 414.92188Q161.32812 414.73438 161.32812 414.48438ZM165.40625 417.51562L165.40625 422.5L164.32812 422.5L164.32812 416.15625L165.35938 416.15625L165.40625 417.51562ZM165.15625 419.09375L164.70312 419.07812Q164.70312 418.42188 164.89062 417.875Q165.07812 417.3125 165.42188 416.90625Q165.76562 416.5 166.23438 416.28125Q166.70312 416.04688 167.28125 416.04688Q167.75 416.04688 168.125 416.17188Q168.5 416.29688 168.76562 416.57812Q169.03125 416.84375 169.17188 417.28125Q169.3125 417.71875 169.3125 418.34375L169.3125 422.5L168.21875 422.5L168.21875 418.32812Q168.21875 417.82812 168.07812 417.53125Q167.9375 417.23438 167.65625 417.09375Q167.375 416.95312 166.95312 416.95312Q166.54688 416.95312 166.21875 417.125Q165.89062 417.29688 165.65625 417.59375Q165.42188 417.89062 165.28125 418.28125Q165.15625 418.65625 165.15625 419.09375ZM175.0625 421.42188L175.0625 418.15625Q175.0625 417.78125 174.90625 417.5Q174.76562 417.21875 174.46875 417.07812Q174.17188 416.92188 173.73438 416.92188Q173.3125 416.92188 173.0 417.0625Q172.70312 417.20312 172.53125 417.4375Q172.35938 417.65625 172.35938 417.92188L171.28125 417.92188Q171.28125 417.57812 171.45312 417.25Q171.625 416.90625 171.95312 416.64062Q172.28125 416.35938 172.75 416.20312Q173.21875 416.04688 173.79688 416.04688Q174.48438 416.04688 175.01562 416.28125Q175.54688 416.51562 175.84375 416.98438Q176.15625 417.45312 176.15625 418.15625L176.15625 421.10938Q176.15625 421.4375 176.20312 421.79688Q176.26562 422.14062 176.375 422.40625L176.375 422.5L175.23438 422.5Q175.15625 422.3125 175.10938 422.0Q175.0625 421.6875 175.0625 421.42188ZM175.25 418.65625L175.26562 419.42188L174.17188 419.42188Q173.70312 419.42188 173.34375 419.5Q172.98438 419.5625 172.73438 419.71875Q172.48438 419.85938 172.35938 420.07812Q172.23438 420.29688 172.23438 420.59375Q172.23438 420.89062 172.35938 421.14062Q172.5 421.375 172.76562 421.53125Q173.04688 421.67188 173.4375 421.67188Q173.9375 421.67188 174.3125 421.46875Q174.70312 421.25 174.92188 420.95312Q175.15625 420.64062 175.17188 420.34375L175.64062 420.875Q175.59375 421.10938 175.40625 421.42188Q175.23438 421.71875 174.92188 422.0Q174.625 422.26562 174.20312 422.45312Q173.79688 422.625 173.28125 422.625Q172.64062 422.625 172.15625 422.375Q171.67188 422.10938 171.40625 421.6875Q171.14062 421.26562 171.14062 420.73438Q171.14062 420.21875 171.32812 419.84375Q171.53125 419.45312 171.90625 419.1875Q172.28125 418.92188 172.8125 418.79688Q173.34375 418.65625 174.0 418.65625L175.25 418.65625ZM179.5 413.5L179.5 422.5L178.42188 422.5L178.42188 413.5L179.5 413.5ZM181.04688 419.40625L181.04688 419.26562Q181.04688 418.57812 181.23438 418.0Q181.4375 417.40625 181.8125 416.96875Q182.1875 416.53125 182.71875 416.29688Q183.25 416.04688 183.92188 416.04688Q184.57812 416.04688 185.10938 416.29688Q185.65625 416.53125 186.03125 416.96875Q186.40625 417.40625 186.60938 418.0Q186.8125 418.57812 186.8125 419.26562L186.8125 419.40625Q186.8125 420.07812 186.60938 420.67188Q186.40625 421.25 186.03125 421.6875Q185.65625 422.125 185.125 422.375Q184.59375 422.625 183.92188 422.625Q183.26562 422.625 182.71875 422.375Q182.1875 422.125 181.8125 421.6875Q181.4375 421.25 181.23438 420.67188Q181.04688 420.07812 181.04688 419.40625ZM182.125 419.26562L182.125 419.40625Q182.125 419.875 182.23438 420.29688Q182.34375 420.71875 182.5625 421.04688Q182.79688 421.35938 183.14062 421.54688Q183.48438 421.71875 183.92188 421.71875Q184.375 421.71875 184.70312 421.54688Q185.04688 421.35938 185.26562 421.04688Q185.5 420.71875 185.60938 420.29688Q185.71875 419.875 185.71875 419.40625L185.71875 419.26562Q185.71875 418.79688 185.60938 418.375Q185.5 417.95312 185.26562 417.64062Q185.04688 417.3125 184.70312 417.125Q184.375 416.9375 183.92188 416.9375Q183.46875 416.9375 183.125 417.125Q182.79688 417.3125 182.5625 417.64062Q182.34375 417.95312 182.23438 418.375Q182.125 418.79688 182.125 419.26562ZM188.04688 419.40625L188.04688 419.26562Q188.04688 418.57812 188.23438 418.0Q188.4375 417.40625 188.8125 416.96875Q189.1875 416.53125 189.71875 416.29688Q190.25 416.04688 190.92188 416.04688Q191.57812 416.04688 192.10938 416.29688Q192.65625 416.53125 193.03125 416.96875Q193.40625 417.40625 193.60938 418.0Q193.8125 418.57812 193.8125 419.26562L193.8125 419.40625Q193.8125 420.07812 193.60938 420.67188Q193.40625 421.25 193.03125 421.6875Q192.65625 422.125 192.125 422.375Q191.59375 422.625 190.92188 422.625Q190.26562 422.625 189.71875 422.375Q189.1875 422.125 188.8125 421.6875Q188.4375 421.25 188.23438 420.67188Q188.04688 420.07812 188.04688 419.40625ZM189.125 419.26562L189.125 419.40625Q189.125 419.875 189.23438 420.29688Q189.34375 420.71875 189.5625 421.04688Q189.79688 421.35938 190.14062 421.54688Q190.48438 421.71875 190.92188 421.71875Q191.375 421.71875 191.70312 421.54688Q192.04688 421.35938 192.26562 421.04688Q192.5 420.71875 192.60938 420.29688Q192.71875 419.875 192.71875 419.40625L192.71875 419.26562Q192.71875 418.79688 192.60938 418.375Q192.5 417.95312 192.26562 417.64062Q192.04688 417.3125 191.70312 417.125Q191.375 416.9375 190.92188 416.9375Q190.46875 416.9375 190.125 417.125Q189.79688 417.3125 189.5625 417.64062Q189.34375 417.95312 189.23438 418.375Q189.125 418.79688 189.125 419.26562ZM196.5 413.5L196.5 422.5L195.42188 422.5L195.42188 413.5L196.5 413.5Z" fill-rule="nonzero"/><path stroke="#cccccc" stroke-width="1.0" stroke-linecap="butt" d="M372.0 305.0L197.0 204.0" fill-rule="nonzero"/><path fill="#000000" d="M158.03125 194.34375Q158.03125 194.04688 157.9375 193.8125Q157.85938 193.57812 157.625 193.39062Q157.40625 193.20312 157.0 193.03125Q156.60938 192.85938 156.01562 192.6875Q155.375 192.5 154.85938 192.28125Q154.35938 192.04688 153.98438 191.75Q153.625 191.4375 153.4375 191.0625Q153.25 190.67188 153.25 190.17188Q153.25 189.67188 153.45312 189.25Q153.65625 188.82812 154.03125 188.51562Q154.42188 188.20312 154.95312 188.03125Q155.48438 187.84375 156.14062 187.84375Q157.10938 187.84375 157.78125 188.21875Q158.45312 188.57812 158.79688 189.17188Q159.15625 189.76562 159.15625 190.42188L158.03125 190.42188Q158.03125 189.95312 157.8125 189.57812Q157.60938 189.20312 157.1875 189.0Q156.78125 188.78125 156.14062 188.78125Q155.54688 188.78125 155.14062 188.96875Q154.75 189.14062 154.5625 189.45312Q154.375 189.76562 154.375 190.15625Q154.375 190.42188 154.48438 190.65625Q154.60938 190.875 154.84375 191.0625Q155.09375 191.25 155.46875 191.40625Q155.84375 191.5625 156.375 191.70312Q157.09375 191.90625 157.625 192.17188Q158.15625 192.42188 158.5 192.73438Q158.84375 193.04688 159.0 193.4375Q159.17188 193.82812 159.17188 194.32812Q159.17188 194.85938 158.95312 195.28125Q158.75 195.70312 158.35938 196.0Q157.96875 196.29688 157.42188 196.46875Q156.875 196.625 156.20312 196.625Q155.60938 196.625 155.03125 196.45312Q154.46875 196.28125 154.0 195.95312Q153.53125 195.625 153.25 195.15625Q152.96875 194.67188 152.96875 194.03125L154.09375 194.03125Q154.09375 194.46875 154.26562 194.78125Q154.4375 195.09375 154.73438 195.29688Q155.03125 195.5 155.40625 195.60938Q155.78125 195.70312 156.20312 195.70312Q156.79688 195.70312 157.20312 195.54688Q157.60938 195.375 157.8125 195.07812Q158.03125 194.76562 158.03125 194.34375ZM160.04688 193.40625L160.04688 193.26562Q160.04688 192.57812 160.23438 192.0Q160.4375 191.40625 160.8125 190.96875Q161.1875 190.53125 161.71875 190.29688Q162.25 190.04688 162.92188 190.04688Q163.57812 190.04688 164.10938 190.29688Q164.65625 190.53125 165.03125 190.96875Q165.40625 191.40625 165.60938 192.0Q165.8125 192.57812 165.8125 193.26562L165.8125 193.40625Q165.8125 194.07812 165.60938 194.67188Q165.40625 195.25 165.03125 195.6875Q164.65625 196.125 164.125 196.375Q163.59375 196.625 162.92188 196.625Q162.26562 196.625 161.71875 196.375Q161.1875 196.125 160.8125 195.6875Q160.4375 195.25 160.23438 194.67188Q160.04688 194.07812 160.04688 193.40625ZM161.125 193.26562L161.125 193.40625Q161.125 193.875 161.23438 194.29688Q161.34375 194.71875 161.5625 195.04688Q161.79688 195.35938 162.14062 195.54688Q162.48438 195.71875 162.92188 195.71875Q163.375 195.71875 163.70312 195.54688Q164.04688 195.35938 164.26562 195.04688Q164.5 194.71875 164.60938 194.29688Q164.71875 193.875 164.71875 193.40625L164.71875 193.26562Q164.71875 192.79688 164.60938 192.375Q164.5 191.95312 164.26562 191.64062Q164.04688 191.3125 163.70312 191.125Q163.375 190.9375 162.92188 190.9375Q162.46875 190.9375 162.125 191.125Q161.79688 191.3125 161.5625 191.64062Q161.34375 191.95312 161.23438 192.375Q161.125 192.79688 161.125 193.26562ZM168.40625 191.51562L168.40625 196.5L167.32812 196.5L167.32812 190.15625L168.35938 190.15625L168.40625 191.51562ZM168.15625 193.09375L167.70312 193.07812Q167.70312 192.42188 167.89062 191.875Q168.07812 191.3125 168.42188 190.90625Q168.76562 190.5 169.23438 190.28125Q169.70312 190.04688 170.28125 190.04688Q170.75 190.04688 171.125 190.17188Q171.5 190.29688 171.76562 190.57812Q172.03125 190.84375 172.17188 191.28125Q172.3125 191.71875 172.3125 192.34375L172.3125 196.5L171.21875 196.5L171.21875 192.32812Q171.21875 191.82812 171.07812 191.53125Q170.9375 191.23438 170.65625 191.09375Q170.375 190.95312 169.95312 190.95312Q169.54688 190.95312 169.21875 191.125Q168.89062 191.29688 168.65625 191.59375Q168.42188 191.89062 168.28125 192.28125Q168.15625 192.65625 168.15625 193.09375ZM178.01562 194.8125Q178.01562 194.57812 177.90625 194.375Q177.8125 194.17188 177.5 194.01562Q177.1875 193.84375 176.5625 193.71875Q176.03125 193.60938 175.60938 193.46875Q175.1875 193.3125 174.89062 193.09375Q174.59375 192.875 174.4375 192.57812Q174.28125 192.28125 174.28125 191.89062Q174.28125 191.51562 174.4375 191.1875Q174.60938 190.84375 174.90625 190.59375Q175.21875 190.32812 175.65625 190.1875Q176.09375 190.04688 176.625 190.04688Q177.39062 190.04688 177.92188 190.3125Q178.46875 190.57812 178.75 191.03125Q179.03125 191.48438 179.03125 192.01562L177.95312 192.01562Q177.95312 191.76562 177.79688 191.51562Q177.64062 191.26562 177.34375 191.10938Q177.04688 190.9375 176.625 190.9375Q176.17188 190.9375 175.89062 191.07812Q175.60938 191.20312 175.48438 191.42188Q175.35938 191.625 175.35938 191.85938Q175.35938 192.04688 175.42188 192.1875Q175.48438 192.3125 175.64062 192.4375Q175.79688 192.54688 176.07812 192.65625Q176.375 192.75 176.82812 192.84375Q177.60938 193.01562 178.10938 193.26562Q178.60938 193.51562 178.85938 193.875Q179.10938 194.21875 179.10938 194.73438Q179.10938 195.15625 178.92188 195.5Q178.75 195.84375 178.42188 196.09375Q178.10938 196.34375 177.65625 196.48438Q177.20312 196.625 176.65625 196.625Q175.8125 196.625 175.23438 196.32812Q174.65625 196.01562 174.35938 195.54688Q174.0625 195.0625 174.0625 194.54688L175.14062 194.54688Q175.17188 194.98438 175.40625 195.25Q175.64062 195.51562 175.96875 195.625Q176.3125 195.71875 176.65625 195.71875Q177.09375 195.71875 177.39062 195.60938Q177.70312 195.48438 177.85938 195.28125Q178.01562 195.07812 178.01562 194.8125ZM182.98438 190.15625L182.98438 190.98438L179.54688 190.98438L179.54688 190.15625L182.98438 190.15625ZM180.71875 188.625L181.79688 188.625L181.79688 194.92188Q181.79688 195.25 181.89062 195.42188Q182.0 195.57812 182.15625 195.64062Q182.3125 195.6875 182.5 195.6875Q182.625 195.6875 182.76562 195.65625Q182.92188 195.625 183.0 195.60938L183.01562 196.5Q182.875 196.54688 182.67188 196.57812Q182.46875 196.625 182.17188 196.625Q181.78125 196.625 181.4375 196.46875Q181.10938 196.29688 180.90625 195.9375Q180.71875 195.5625 180.71875 194.92188L180.71875 188.625ZM185.5 190.15625L185.5 196.5L184.42188 196.5L184.42188 190.15625L185.5 190.15625ZM184.32812 188.48438Q184.32812 188.21875 184.48438 188.03125Q184.65625 187.84375 184.96875 187.84375Q185.28125 187.84375 185.4375 188.03125Q185.60938 188.21875 185.60938 188.48438Q185.60938 188.73438 185.4375 188.92188Q185.28125 189.09375 184.96875 189.09375Q184.65625 189.09375 184.48438 188.92188Q184.32812 188.73438 184.32812 188.48438ZM191.4375 190.15625L192.42188 190.15625L192.42188 196.35938Q192.42188 197.20312 192.07812 197.79688Q191.73438 198.39062 191.125 198.6875Q190.53125 199.0 189.73438 199.0Q189.40625 199.0 188.95312 198.89062Q188.51562 198.79688 188.09375 198.54688Q187.67188 198.3125 187.39062 197.90625L187.95312 197.25Q188.35938 197.73438 188.78125 197.92188Q189.21875 198.10938 189.65625 198.10938Q190.17188 198.10938 190.54688 197.90625Q190.92188 197.71875 191.125 197.34375Q191.32812 196.96875 191.32812 196.42188L191.32812 191.54688L191.4375 190.15625ZM187.0625 193.40625L187.0625 193.28125Q187.0625 192.54688 187.23438 191.95312Q187.42188 191.35938 187.73438 190.9375Q188.0625 190.5 188.51562 190.28125Q188.98438 190.04688 189.57812 190.04688Q190.17188 190.04688 190.60938 190.25Q191.0625 190.45312 191.375 190.85938Q191.6875 191.25 191.875 191.8125Q192.0625 192.35938 192.125 193.0625L192.125 193.60938Q192.0625 194.29688 191.875 194.85938Q191.6875 195.42188 191.375 195.8125Q191.0625 196.20312 190.60938 196.42188Q190.15625 196.625 189.5625 196.625Q188.98438 196.625 188.53125 196.39062Q188.07812 196.14062 187.75 195.70312Q187.42188 195.26562 187.23438 194.6875Q187.0625 194.09375 187.0625 193.40625ZM188.15625 193.28125L188.15625 193.40625Q188.15625 193.875 188.25 194.29688Q188.34375 194.70312 188.54688 195.03125Q188.75 195.34375 189.0625 195.53125Q189.39062 195.70312 189.82812 195.70312Q190.35938 195.70312 190.70312 195.46875Q191.0625 195.23438 191.26562 194.85938Q191.48438 194.48438 191.59375 194.04688L191.59375 192.64062Q191.53125 192.3125 191.39062 192.01562Q191.26562 191.71875 191.0625 191.48438Q190.85938 191.23438 190.54688 191.09375Q190.25 190.95312 189.82812 190.95312Q189.39062 190.95312 189.0625 191.14062Q188.75 191.32812 188.54688 191.65625Q188.34375 191.96875 188.25 192.39062Q188.15625 192.79688 188.15625 193.28125ZM196.95312 196.625Q196.29688 196.625 195.75 196.40625Q195.21875 196.17188 194.82812 195.76562Q194.45312 195.34375 194.25 194.78125Q194.04688 194.21875 194.04688 193.54688L194.04688 193.3125Q194.04688 192.53125 194.26562 191.92188Q194.5 191.3125 194.89062 190.89062Q195.28125 190.46875 195.78125 190.26562Q196.28125 190.04688 196.8125 190.04688Q197.5 190.04688 197.98438 190.28125Q198.48438 190.51562 198.79688 190.9375Q199.125 191.34375 199.26562 191.92188Q199.42188 192.48438 199.42188 193.14062L199.42188 193.64062L194.6875 193.64062L194.6875 192.75L198.34375 192.75L198.34375 192.67188Q198.3125 192.25 198.15625 191.85938Q198.01562 191.45312 197.6875 191.20312Q197.375 190.9375 196.8125 190.9375Q196.45312 190.9375 196.14062 191.09375Q195.82812 191.25 195.59375 191.5625Q195.375 191.85938 195.25 192.29688Q195.14062 192.73438 195.14062 193.3125L195.14062 193.54688Q195.14062 194.0 195.26562 194.40625Q195.39062 194.79688 195.625 195.09375Q195.875 195.39062 196.21875 195.5625Q196.57812 195.73438 197.01562 195.73438Q197.59375 195.73438 197.98438 195.5Q198.39062 195.26562 198.6875 194.875L199.34375 195.39062Q199.14062 195.70312 198.8125 195.98438Q198.5 196.26562 198.03125 196.45312Q197.57812 196.625 196.95312 196.625Z" fill-rule="nonzero"/><path stroke="#cccccc" stroke-width="1.0" stroke-linecap="butt" d="M372.0 305.0L372.0 103.0" fill-rule="nonzero"/><path stroke="#ff0000" stroke-width="2.0" stroke-linecap="butt" stroke-opacity="0.7019608" stroke-dasharray="8.0,6.0,2.0,6.0" d="M372.0 139.0L472.0 247.0L429.0 338.0L372.0 366.0L328.0 330.0L341.0 287.0Z" fill-rule="nonzero"/><path fill="#ff0000" fill-opacity="0.7019608" d="M368.81802 135.81802L372.0 137.875L375.18198 135.81802L373.125 139.0L375.18198 142.18198L372.0 140.125L368.81802 142.18198L370.875 139.0Z" fill-rule="nonzero"/><path fill="#ff0000" fill-opacity="0.7019608" d="M468.81802 243.81802L472.0 245.875L475.18198 243.81802L473.125 247.0L475.18198 250.18198L472.0 248.125L468.81802 250.18198L470.875 247.0Z" fill-rule="nonzero"/><path fill="#ff0000" fill-opacity="0.7019608" d="M425.81802 334.81802L429.0 336.875L432.18198 334.81802L430.125 338.0L432.18198 341.18198L429.0 339.125L425.81802 341.18198L427.875 338.0Z" fill-rule="nonzero"/><path fill="#ff0000" fill-opacity="0.7019608" d="M368.81802 362.81802L372.0 364.875L375.18198 362.81802L373.125 366.0L375.18198 369.18198L372.0 367.125L368.81802 369.18198L370.875 366.0Z" fill-rule="nonzero"/><path fill="#ff0000" fill-opacity="0.7019608" d="M324.81802 326.81802L328.0 328.875L331.18198 326.81802L329.125 330.0L331.18198 333.18198L328.0 331.125L324.81802 333.18198L326.875 330.0Z" fill-rule="nonzero"/><path fill="#ff0000" fill-opacity="0.7019608" d="M337.81802 283.81802L341.0 285.875L344.18198 283.81802L342.125 287.0L344.18198 290.18198L341.0 288.125L337.81802 290.18198L339.875 287.0Z" fill-rule="nonzero"/><path fill="#757575" d="M29.896875 47.35L29.896875 33.0375L35.2875 33.0375Q36.725 33.0375 37.475 33.1625Q38.521873 33.35 39.240623 33.85Q39.959373 34.334373 40.38125 35.225Q40.81875 36.115623 40.81875 37.178123Q40.81875 39.00625 39.646873 40.271873Q38.490623 41.521873 35.459373 41.521873L31.7875 41.521873L31.7875 47.35L29.896875 47.35ZM31.7875 39.834373L35.490623 39.834373Q37.31875 39.834373 38.084373 39.1625Q38.865623 38.475 38.865623 37.225Q38.865623 36.334373 38.4125 35.69375Q37.959373 35.053123 37.225 34.85Q36.740623 34.725 35.44375 34.725L31.7875 34.725L31.7875 39.834373ZM42.678123 35.053123L42.678123 33.0375L44.44375 33.0375L44.44375 35.053123L42.678123 35.053123ZM42.678123 47.35L42.678123 36.975L44.44375 36.975L44.44375 47.35L42.678123 47.35ZM46.6625 47.35L46.6625 36.975L48.25625 36.975L48.25625 38.459373Q49.396873 36.740623 51.553123 36.740623Q52.490623 36.740623 53.271873 37.084373Q54.06875 37.4125 54.459373 37.959373Q54.85 38.50625 55.00625 39.25625Q55.1 39.75625 55.1 40.975L55.1 47.35L53.334373 47.35L53.334373 41.0375Q53.334373 39.959373 53.13125 39.428123Q52.928123 38.896873 52.396873 38.584373Q51.88125 38.271873 51.178123 38.271873Q50.053123 38.271873 49.240623 38.990623Q48.428123 39.69375 48.428123 41.678123L48.428123 47.35L46.6625 47.35ZM63.771873 44.00625L65.58437 44.240623Q65.1625 45.81875 63.990623 46.709373Q62.834373 47.584373 61.021873 47.584373Q58.75625 47.584373 57.4125 46.19375Q56.084373 44.7875 56.084373 42.25625Q56.084373 39.63125 57.428123 38.19375Q58.771873 36.740623 60.928123 36.740623Q63.00625 36.740623 64.31875 38.1625Q65.64687 39.56875 65.64687 42.146873Q65.64687 42.303123 65.63125 42.615623L57.896873 42.615623Q57.990623 44.31875 58.865623 45.225Q59.740623 46.13125 61.0375 46.13125Q62.00625 46.13125 62.678123 45.63125Q63.365623 45.115623 63.771873 44.00625ZM57.990623 41.1625L63.7875 41.1625Q63.678123 39.865623 63.13125 39.209373Q62.2875 38.19375 60.94375 38.19375Q59.740623 38.19375 58.9125 39.00625Q58.084373 39.803123 57.990623 41.1625ZM74.44375 46.06875Q73.45937 46.896873 72.55312 47.240623Q71.64687 47.584373 70.61562 47.584373Q68.9125 47.584373 67.99062 46.75625Q67.06875 45.9125 67.06875 44.615623Q67.06875 43.85 67.4125 43.225Q67.77187 42.6 68.33437 42.225Q68.89687 41.834373 69.6 41.63125Q70.11562 41.50625 71.1625 41.365623Q73.2875 41.115623 74.2875 40.771873Q74.30312 40.4125 74.30312 40.303123Q74.30312 39.240623 73.80312 38.7875Q73.13125 38.19375 71.80312 38.19375Q70.55312 38.19375 69.95937 38.63125Q69.38125 39.06875 69.1 40.178123L67.38125 39.94375Q67.61562 38.834373 68.14687 38.1625Q68.67812 37.475 69.69375 37.115623Q70.70937 36.740623 72.05312 36.740623Q73.38125 36.740623 74.20937 37.053123Q75.0375 37.365623 75.42812 37.85Q75.81875 38.31875 75.975 39.0375Q76.06875 39.490623 76.06875 40.6625L76.06875 43.00625Q76.06875 45.459373 76.17812 46.115623Q76.2875 46.75625 76.63125 47.35L74.7875 47.35Q74.52187 46.803123 74.44375 46.06875ZM74.2875 42.146873Q73.33437 42.5375 71.4125 42.803123Q70.33437 42.959373 69.88125 43.1625Q69.44375 43.35 69.19375 43.725Q68.94375 44.1 68.94375 44.56875Q68.94375 45.271873 69.475 45.740623Q70.00625 46.209373 71.0375 46.209373Q72.05312 46.209373 72.83437 45.771873Q73.63125 45.31875 74.00625 44.553123Q74.2875 43.94375 74.2875 42.7875L74.2875 42.146873ZM78.6625 51.31875L78.6625 36.975L80.27187 36.975L80.27187 38.31875Q80.83437 37.5375 81.5375 37.146873Q82.25625 36.740623 83.27187 36.740623Q84.6 36.740623 85.61562 37.428123Q86.63125 38.115623 87.14687 39.365623Q87.67812 40.6 87.67812 42.084373Q87.67812 43.678123 87.1 44.959373Q86.5375 46.225 85.44375 46.9125Q84.35 47.584373 83.14687 47.584373Q82.27187 47.584373 81.56875 47.209373Q80.88125 46.834373 80.42812 46.271873L80.42812 51.31875L78.6625 51.31875ZM80.25625 42.225Q80.25625 44.225 81.06875 45.178123Q81.88125 46.13125 83.0375 46.13125Q84.20937 46.13125 85.0375 45.146873Q85.88125 44.1625 85.88125 42.06875Q85.88125 40.1 85.05312 39.115623Q84.24062 38.115623 83.11562 38.115623Q81.99062 38.115623 81.11562 39.178123Q80.25625 40.225 80.25625 42.225ZM89.6625 51.31875L89.6625 36.975L91.27187 36.975L91.27187 38.31875Q91.83437 37.5375 92.5375 37.146873Q93.25625 36.740623 94.27187 36.740623Q95.6 36.740623 96.61562 37.428123Q97.63125 38.115623 98.14687 39.365623Q98.67812 40.6 98.67812 42.084373Q98.67812 43.678123 98.1 44.959373Q97.5375 46.225 96.44375 46.9125Q95.35 47.584373 94.14687 47.584373Q93.27187 47.584373 92.56875 47.209373Q91.88125 46.834373 91.42812 46.271873L91.42812 51.31875L89.6625 51.31875ZM91.25625 42.225Q91.25625 44.225 92.06875 45.178123Q92.88125 46.13125 94.0375 46.13125Q95.20937 46.13125 96.0375 45.146873Q96.88125 44.1625 96.88125 42.06875Q96.88125 40.1 96.05312 39.115623Q95.24062 38.115623 94.11562 38.115623Q92.99062 38.115623 92.11562 39.178123Q91.25625 40.225 91.25625 42.225ZM100.63125 47.35L100.63125 33.0375L102.38125 33.0375L102.38125 47.35L100.63125 47.35ZM111.77187 44.00625L113.58437 44.240623Q113.1625 45.81875 111.99062 46.709373Q110.83437 47.584373 109.02187 47.584373Q106.75625 47.584373 105.4125 46.19375Q104.08437 44.7875 104.08437 42.25625Q104.08437 39.63125 105.42812 38.19375Q106.77187 36.740623 108.92812 36.740623Q111.00625 36.740623 112.31875 38.1625Q113.64687 39.56875 113.64687 42.146873Q113.64687 42.303123 113.63125 42.615623L105.89687 42.615623Q105.99062 44.31875 106.86562 45.225Q107.74062 46.13125 109.0375 46.13125Q110.00625 46.13125 110.67812 45.63125Q111.36562 45.115623 111.77187 44.00625ZM105.99062 41.1625L111.7875 41.1625Q111.67812 39.865623 111.13125 39.209373Q110.2875 38.19375 108.94375 38.19375Q107.74062 38.19375 106.9125 39.00625Q106.08437 39.803123 105.99062 41.1625ZM128.6 41.740623L128.6 40.053123L134.6625 40.0375L134.6625 45.35Q133.25626 46.475 131.77188 47.0375Q130.2875 47.6 128.725 47.6Q126.61562 47.6 124.89687 46.69375Q123.17812 45.7875 122.2875 44.084373Q121.4125 42.365623 121.4125 40.25625Q121.4125 38.1625 122.2875 36.365623Q123.1625 34.553123 124.80312 33.678123Q126.44375 32.7875 128.58438 32.7875Q130.13126 32.7875 131.38126 33.2875Q132.64688 33.7875 133.35 34.69375Q134.06876 35.584373 134.44376 37.0375L132.74063 37.50625Q132.4125 36.4125 131.92813 35.7875Q131.45938 35.1625 130.56876 34.7875Q129.67813 34.4125 128.6 34.4125Q127.2875 34.4125 126.33437 34.803123Q125.39687 35.19375 124.81875 35.85Q124.24062 36.490623 123.9125 37.25625Q123.36562 38.584373 123.36562 40.146873Q123.36562 42.053123 124.02187 43.35Q124.69375 44.63125 125.94375 45.25625Q127.20937 45.88125 128.61563 45.88125Q129.85 45.88125 131.02188 45.4125Q132.19376 44.94375 132.80313 44.396873L132.80313 41.740623L128.6 41.740623ZM137.02188 42.1625Q137.02188 39.2875 138.61563 37.896873Q139.95938 36.740623 141.88126 36.740623Q144.02188 36.740623 145.36563 38.146873Q146.725 39.553123 146.725 42.021873Q146.725 44.021873 146.13126 45.178123Q145.5375 46.31875 144.38126 46.959373Q143.24063 47.584373 141.88126 47.584373Q139.69376 47.584373 138.35 46.19375Q137.02188 44.7875 137.02188 42.1625ZM138.81876 42.1625Q138.81876 44.1625 139.67813 45.146873Q140.55313 46.13125 141.88126 46.13125Q143.19376 46.13125 144.05313 45.146873Q144.92813 44.146873 144.92813 42.1Q144.92813 40.178123 144.05313 39.19375Q143.17813 38.19375 141.88126 38.19375Q140.55313 38.19375 139.67813 39.19375Q138.81876 40.178123 138.81876 42.1625ZM155.39688 47.35L155.39688 46.0375Q154.4125 47.584373 152.49063 47.584373Q151.25626 47.584373 150.20938 46.896873Q149.17813 46.209373 148.6 44.990623Q148.0375 43.771873 148.0375 42.178123Q148.0375 40.615623 148.55313 39.35Q149.06876 38.084373 150.1 37.4125Q151.14688 36.740623 152.4125 36.740623Q153.35 36.740623 154.08438 37.146873Q154.81876 37.5375 155.2875 38.1625L155.2875 33.0375L157.02188 33.0375L157.02188 47.35L155.39688 47.35ZM149.83438 42.178123Q149.83438 44.1625 150.67813 45.146873Q151.52188 46.13125 152.6625 46.13125Q153.81876 46.13125 154.61563 45.19375Q155.42813 44.25625 155.42813 42.31875Q155.42813 40.19375 154.6 39.19375Q153.7875 38.19375 152.58438 38.19375Q151.4125 38.19375 150.61563 39.1625Q149.83438 40.115623 149.83438 42.178123Z" fill-rule="nonzero"/></svg>