<svg version="1.1" viewBox="0.0 0.0 744.0 567.0" fill="none" stroke="none" stroke-linecap="square" stroke-miterlimit="10" width="744" height="567" xmlns:xlink="http://www.w3.org/1999/xlink" xmlns="http://www.w3.org/2000/svg"><path fill="#ffffff" d="M0 0L744.0 0L744.0 567.0L0 567.0L0 0Z" fill-rule="nonzero"/><path fill="#ffffff" d="M28.35 71.25L715.64996 71.25L715.64996 538.65L28.35 538.65L28.35 71.25Z" fill-rule="nonzero"/><path stroke="#cccccc" stroke-width="1.0" stroke-linecap="butt" d="M372.0 305.0C372.0 305.0 372.0 305.0 372.0 305.0C372.0 305.0 372.0 305.0 372.0 305.0C372.0 305.0 372.0 305.0 372.0 305.0C372.0 305.0 372.0 305.0 372.0 305.0" fill-rule="nonzero"/><path fill="#000000" d="M360.0625 297.04688L360.0625 298.35938Q360.0625 299.40625 359.875 300.125Q359.6875 300.84375 359.32812 301.28125Q358.98438 301.71875 358.48438 301.92188Q358.0 302.125 357.375 302.125Q356.89062 302.125 356.46875 302.0Q356.04688 301.875 355.71875 301.60938Q355.39062 301.32812 355.15625 300.89062Q354.92188 300.45312 354.79688 299.82812Q354.67188 299.1875 354.67188 298.35938L354.67188 297.04688Q354.67188 296.0 354.85938 295.29688Q355.0625 294.59375 355.40625 294.15625Q355.76562 293.71875 356.25 293.53125Q356.75 293.34375 357.35938 293.34375Q357.85938 293.34375 358.28125 293.46875Q358.70312 293.59375 359.03125 293.85938Q359.35938 294.10938 359.57812 294.54688Q359.8125 294.96875 359.9375 295.59375Q360.0625 296.21875 360.0625 297.04688ZM358.96875 298.53125L358.96875 296.875Q358.96875 296.29688 358.90625 295.85938Q358.84375 295.42188 358.70312 295.10938Q358.57812 294.79688 358.375 294.60938Q358.1875 294.42188 357.9375 294.32812Q357.6875 294.23438 357.35938 294.23438Q356.98438 294.23438 356.67188 294.375Q356.375 294.51562 356.17188 294.82812Q355.96875 295.14062 355.85938 295.65625Q355.76562 296.15625 355.76562 296.875L355.76562 298.53125Q355.76562 299.10938 355.82812 299.54688Q355.90625 299.98438 356.03125 300.3125Q356.17188 300.625 356.35938 300.82812Q356.5625 301.03125 356.8125 301.125Q357.0625 301.21875 357.375 301.21875Q357.78125 301.21875 358.07812 301.07812Q358.375 300.92188 358.57812 300.59375Q358.78125 300.26562 358.875 299.76562Q358.96875 299.25 358.96875 298.53125ZM362.8125 300.70312L362.8125 301.57812Q362.8125 302.125 362.53125 302.71875Q362.26562 303.3125 361.78125 303.70312L361.17188 303.28125Q361.35938 303.01562 361.48438 302.75Q361.60938 302.48438 361.67188 302.20312Q361.75 301.92188 361.75 301.59375L361.75 300.70312L362.8125 300.70312ZM369.0625 297.04688L369.0625 298.35938Q369.0625 299.40625 368.875 300.125Q368.6875 300.84375 368.32812 301.28125Q367.98438 301.71875 367.48438 301.92188Q367.0 302.125 366.375 302.125Q365.89062 302.125 365.46875 302.0Q365.04688 301.875 364.71875 301.60938Q364.39062 301.32812 364.15625 300.89062Q363.92188 300.45312 363.79688 299.82812Q363.67188 299.1875 363.67188 298.35938L363.67188 297.04688Q363.67188 296.0 363.85938 295.29688Q364.0625 294.59375 364.40625 294.15625Q364.76562 293.71875 365.25 293.53125Q365.75 293.34375 366.35938 293.34375Q366.85938 293.34375 367.28125 293.46875Q367.70312 293.59375 368.03125 293.85938Q368.35938 294.10938 368.57812 294.54688Q368.8125 294.96875 368.9375 295.59375Q369.0625 296.21875 369.0625 297.04688ZM367.96875 298.53125L367.96875 296.875Q367.96875 296.29688 367.90625 295.85938Q367.84375 295.42188 367.70312 295.10938Q367.57812 294.79688 367.375 294.60938Q367.1875 294.42188 366.9375 294.32812Q366.6875 294.23438 366.35938 294.23438Q365.98438 294.23438 365.67188 294.375Q365.375 294.51562 365.17188 294.82812Q364.96875 295.14062 364.85938 295.65625Q364.76562 296.15625 364.76562 296.875L364.76562 298.53125Q364.76562 299.10938 364.82812 299.54688Q364.90625 299.98438 365.03125 300.3125Q365.17188 300.625 365.35938 300.82812Q365.5625 301.03125 365.8125 301.125Q366.0625 301.21875 366.375 301.21875Q366.78125 301.21875 367.07812 301.07812Q367.375 300.92188 367.57812 300.59375Q367.78125 300.26562 367.875 299.76562Q367.96875 299.25 367.96875 298.53125Z" fill-rule="nonzero"/><path stroke="#cccccc" stroke-width="1.0" stroke-linecap="butt" d="M422.425 305.0C422.425 277.15103 399.84897 254.575 372.0 254.575C344.15103 254.575 321.575 277.15103 321.575 305.0C321.575 332.84897 344.15103 355.425 372.0 355.425C399.84897 355.425 422.425 332.84897 422.425 305.0" fill-rule="nonzero"/><path fill="#000000" d="M360.0625 246.62187L360.0625 247.93437Q360.0625 248.98125 359.875 249.7Q359.6875 250.41875 359.32812 250.85625Q358.98438 251.29375 358.48438 251.49687Q358.0 251.7 357.375 251.7Q356.89062 251.7 356.46875 251.575Q356.04688 251.45 355.71875 251.18437Q355.39062 250.90312 355.15625 250.46562Q354.92188 250.02812 354.79688 249.40312Q354.67188 248.7625 354.67188 247.93437L354.67188 246.62187Q354.67188 245.575 354.85938 244.87187Q355.0625 244.16875 355.40625 243.73125Q355.76562 243.29375 356.25 243.10625Q356.75 242.91875 357.35938 242.91875Q357.85938 242.91875 358.28125 243.04375Q358.70312 243.16875 359.03125 243.43437Q359.35938 243.68437 359.57812 244.12187Q359.8125 244.54375 359.9375 245.16875Q360.0625 245.79375 360.0625 246.62187ZM358.96875 248.10625L358.96875 246.45Q358.96875 245.87187 358.90625 245.43437Q358.84375 244.99687 358.70312 244.68437Q358.57812 244.37187 358.375 244.18437Q358.1875 243.99687 357.9375 243.90312Q357.6875 243.80937 357.35938 243.80937Q356.98438 243.80937 356.67188 243.95Q356.375 244.09062 356.17188 244.40312Q355.96875 244.71562 355.85938 245.23125Q355.76562 245.73125 355.76562 246.45L355.76562 248.10625Q355.76562 248.68437 355.82812 249.12187Q355.90625 249.55937 356.03125 249.8875Q356.17188 250.2 356.35938 250.40312Q356.5625 250.60625 356.8125 250.7Q357.0625 250.79375 357.375 250.79375Q357.78125 250.79375 358.07812 250.65312Q358.375 250.49687 358.57812 250.16875Q358.78125 249.84062 358.875 249.34062Q358.96875 248.825 358.96875 248.10625ZM362.8125 250.27812L362.8125 251.15312Q362.8125 251.7 362.53125 252.29375Q362.26562 252.8875 361.78125 253.27812L361.17188 252.85625Q361.35938 252.59062 361.48438 252.325Q361.60938 252.05937 361.67188 251.77812Q361.75 251.49687 361.75 251.16875L361.75 250.27812L362.8125 250.27812ZM369.29688 250.68437L369.29688 251.575L363.71875 251.575L363.71875 250.79375L366.51562 247.68437Q367.03125 247.10625 367.3125 246.71562Q367.59375 246.30937 367.70312 245.99687Q367.82812 245.66875 367.82812 245.34062Q367.82812 244.91875 367.65625 244.575Q367.48438 244.23125 367.14062 244.02812Q366.8125 243.80937 366.32812 243.80937Q365.76562 243.80937 365.39062 244.04375Q365.01562 244.2625 364.82812 244.65312Q364.64062 245.04375 364.64062 245.54375L363.54688 245.54375Q363.54688 244.825 363.85938 244.23125Q364.1875 243.6375 364.79688 243.27812Q365.42188 242.91875 366.32812 242.91875Q367.14062 242.91875 367.71875 243.21562Q368.29688 243.49687 368.59375 244.0125Q368.90625 244.5125 368.90625 245.2Q368.90625 245.575 368.78125 245.96562Q368.65625 246.34062 368.4375 246.73125Q368.21875 247.10625 367.92188 247.48125Q367.64062 247.84062 367.3125 248.2L365.01562 250.68437L369.29688 250.68437Z" fill-rule="nonzero"/><path stroke="#cccccc" stroke-width="1.0" stroke-linecap="butt" d="M472.85 305.0C472.85 249.30208 427.6979 204.15 372.0 204.15C316.3021 204.15 271.15 249.30208 271.15 305.0C271.15 360.6979 316.3021 405.85 372.0 405.85C427.6979 405.85 472.85 360.6979 472.85 305.0" fill-rule="nonzero"/><path fill="#000000" d="M360.0625 196.19687L360.0625 197.50937Q360.0625 198.55624 359.875 199.275Q359.6875 199.99374 359.32812 200.43124Q358.98438 200.86874 358.48438 201.07187Q358.0 201.275 357.375 201.275Q356.89062 201.275 356.46875 201.15Q356.04688 201.025 355.71875 200.75937Q355.39062 200.47812 355.15625 200.04062Q354.92188 199.60312 354.79688 198.97812Q354.67188 198.3375 354.67188 197.50937L354.67188 196.19687Q354.67188 195.15 354.85938 194.44687Q355.0625 193.74374 355.40625 193.30624Q355.76562 192.86874 356.25 192.68124Q356.75 192.49374 357.35938 192.49374Q357.85938 192.49374 358.28125 192.61874Q358.70312 192.74374 359.03125 193.00937Q359.35938 193.25937 359.57812 193.69687Q359.8125 194.11874 359.9375 194.74374Q360.0625 195.36874 360.0625 196.19687ZM358.96875 197.68124L358.96875 196.025Q358.96875 195.44687 358.90625 195.00937Q358.84375 194.57187 358.70312 194.25937Q358.57812 193.94687 358.375 193.75937Q358.1875 193.57187 357.9375 193.47812Q357.6875 193.38437 357.35938 193.38437Q356.98438 193.38437 356.67188 193.525Q356.375 193.66562 356.17188 193.97812Q355.96875 194.29062 355.85938 194.80624Q355.76562 195.30624 355.76562 196.025L355.76562 197.68124Q355.76562 198.25937 355.82812 198.69687Q355.90625 199.13437 356.03125 199.4625Q356.17188 199.775 356.35938 199.97812Q356.5625 200.18124 356.8125 200.275Q357.0625 200.36874 357.375 200.36874Q357.78125 200.36874 358.07812 200.22812Q358.375 200.07187 358.57812 199.74374Q358.78125 199.41562 358.875 198.91562Q358.96875 198.4 358.96875 197.68124ZM362.8125 199.85312L362.8125 200.72812Q362.8125 201.275 362.53125 201.86874Q362.26562 202.4625 361.78125 202.85312L361.17188 202.43124Q361.35938 202.16562 361.48438 201.9Q361.60938 201.63437 361.67188 201.35312Q361.75 201.07187 361.75 200.74374L361.75 199.85312L362.8125 199.85312ZM369.46875 198.275L369.46875 199.16562L363.3125 199.16562L363.3125 198.525L367.125 192.61874L368.01562 192.61874L367.0625 194.32187L364.54688 198.275L369.46875 198.275ZM368.28125 192.61874L368.28125 201.15L367.20312 201.15L367.20312 192.61874L368.28125 192.61874Z" fill-rule="nonzero"/><path stroke="#cccccc" stroke-width="1.0" stroke-linecap="butt" d="M523.275 305.0C523.275 221.45312 455.54688 153.725 372.0 153.725C288.45312 153.725 220.725 221.45312 220.725 305.0C220.725 388.54688 288.45312 456.275 372.0 456.275C455.54688 456.275 523.275 388.54688 523.275 305.0" fill-rule="nonzero"/><path fill="#000000" d="M360.0625 145.77188L360.0625 147.08438Q360.0625 148.13126 359.875 148.85Q359.6875 149.56876 359.32812 150.00626Q358.98438 150.44376 358.48438 150.64688Q358.0 150.85 357.375 150.85Q356.89062 150.85 356.46875 150.725Q356.04688 150.6 355.71875 150.33438Q355.39062 150.05313 355.15625 149.61563Q354.92188 149.17813 354.79688 148.55313Q354.67188 147.9125 354.67188 147.08438L354.67188 145.77188Q354.67188 144.725 354.85938 144.02188Q355.0625 143.31876 355.40625 142.88126Q355.76562 142.44376 356.25 142.25626Q356.75 142.06876 357.35938 142.06876Q357.85938 142.06876 358.28125 142.19376Q358.70312 142.31876 359.03125 142.58438Q359.35938 142.83438 359.57812 143.27188Q359.8125 143.69376 359.9375 144.31876Q360.0625 144.94376 360.0625 145.77188ZM358.96875 147.25626L358.96875 145.6Q358.96875 145.02188 358.90625 144.58438Q358.84375 144.14688 358.70312 143.83438Q358.57812 143.52188 358.375 143.33438Q358.1875 143.14688 357.9375 143.05313Q357.6875 142.95938 357.35938 142.95938Q356.98438 142.95938 356.67188 143.1Q356.375 143.24063 356.17188 143.55313Q355.96875 143.86563 355.85938 144.38126Q355.76562 144.88126 355.76562 145.6L355.76562 147.25626Q355.76562 147.83438 355.82812 148.27188Q355.90625 148.70938 356.03125 149.0375Q356.17188 149.35 356.35938 149.55313Q356.5625 149.75626 356.8125 149.85Q357.0625 149.94376 357.375 149.94376Q357.78125 149.94376 358.07812 149.80313Q358.375 149.64688 358.57812 149.31876Q358.78125 148.99063 358.875 148.49063Q358.96875 147.975 358.96875 147.25626ZM362.8125 149.42813L362.8125 150.30313Q362.8125 150.85 362.53125 151.44376Q362.26562 152.0375 361.78125 152.42813L361.17188 152.00626Q361.35938 151.74063 361.48438 151.475Q361.60938 151.20938 361.67188 150.92813Q361.75 150.64688 361.75 150.31876L361.75 149.42813L362.8125 149.42813ZM367.875 142.17813L367.96875 142.17813L367.96875 143.1L367.875 143.1Q367.01562 143.1 366.42188 143.38126Q365.84375 143.6625 365.5 144.13126Q365.17188 144.58438 365.01562 145.17813Q364.875 145.75626 364.875 146.35L364.875 147.6Q364.875 148.1625 365.0 148.6Q365.14062 149.0375 365.375 149.35Q365.60938 149.64688 365.90625 149.80313Q366.20312 149.94376 366.51562 149.94376Q366.89062 149.94376 367.1875 149.80313Q367.48438 149.6625 367.6875 149.39688Q367.89062 149.13126 367.98438 148.7875Q368.09375 148.42813 368.09375 147.99063Q368.09375 147.61563 368.0 147.25626Q367.90625 146.89688 367.71875 146.63126Q367.53125 146.35 367.23438 146.19376Q366.9375 146.02188 366.54688 146.02188Q366.09375 146.02188 365.70312 146.24063Q365.3125 146.45938 365.0625 146.81876Q364.8125 147.17813 364.78125 147.58438L364.20312 147.58438Q364.29688 146.92813 364.51562 146.45938Q364.73438 145.99063 365.07812 145.69376Q365.42188 145.39688 365.82812 145.27188Q366.25 145.13126 366.71875 145.13126Q367.35938 145.13126 367.8125 145.38126Q368.28125 145.61563 368.57812 146.02188Q368.89062 146.4125 369.03125 146.9125Q369.17188 147.4125 369.17188 147.94376Q369.17188 148.5375 369.0 149.06876Q368.82812 149.6 368.48438 150.00626Q368.15625 150.39688 367.65625 150.63126Q367.17188 150.85 366.51562 150.85Q365.82812 150.85 365.3125 150.56876Q364.79688 150.27188 364.45312 149.80313Q364.125 149.31876 363.95312 148.74063Q363.78125 148.1625 363.78125 147.56876L363.78125 147.05313Q363.78125 146.14688 363.95312 145.2875Q364.14062 144.4125 364.59375 143.70938Q365.04688 143.00626 365.84375 142.6Q366.64062 142.17813 367.875 142.17813Z" fill-rule="nonzero"/><path stroke="#cccccc" stroke-width="1.0" stroke-linecap="butt" d="M573.7 305.0C573.7 193.60417 483.39584 103.3 372.0 103.3C260.60416 103.3 170.3 193.60417 170.3 305.0C170.3 416.39584 260.60416 506.7 372.0 506.7C483.39584 506.7 573.7 416.39584 573.7 305.0" fill-rule="nonzero"/><path fill="#000000" d="M360.0625 95.34688L360.0625 96.65938Q360.0625 97.70625 359.875 98.425Q359.6875 99.14375 359.32812 99.58125Q358.98438 100.01875 358.48438 100.22188Q358.0 100.425 357.375 100.425Q356.89062 100.425 356.46875 100.3Q356.04688 100.175 355.71875 99.90938Q355.39062 99.62813 355.15625 99.19063Q354.92188 98.75313 354.79688 98.12813Q354.67188 97.4875 354.67188 96.65938L354.67188 95.34688Q354.67188 94.3 354.85938 93.59688Q355.0625 92.89375 355.40625 92.45625Q355.76562 92.01875 356.25 91.83125Q356.75 91.64375 357.35938 91.64375Q357.85938 91.64375 358.28125 91.76875Q358.70312 91.89375 359.03125 92.15938Q359.35938 92.40938 359.57812 92.84688Q359.8125 93.26875 359.9375 93.89375Q360.0625 94.51875 360.0625 95.34688ZM358.96875 96.83125L358.96875 95.175Q358.96875 94.59688 358.90625 94.15938Q358.84375 93.72188 358.70312 93.40938Q358.57812 93.09688 358.375 92.90938Q358.1875 92.72188 357.9375 92.62813Q357.6875 92.53438 357.35938 92.53438Q356.98438 92.53438 356.67188 92.675Q356.375 92.81563 356.17188 93.12813Q355.96875 93.44063 355.85938 93.95625Q355.76562 94.45625 355.76562 95.175L355.76562 96.83125Q355.76562 97.40938 355.82812 97.84688Q355.90625 98.28438 356.03125 98.6125Q356.17188 98.925 356.35938 99.12813Q356.5625 99.33125 356.8125 99.425Q357.0625 99.51875 357.375 99.51875Q357.78125 99.51875 358.07812 99.37813Q358.375 99.22188 358.57812 98.89375Q358.78125 98.56563 358.875 98.06563Q358.96875 97.55 358.96875 96.83125ZM362.8125 99.00313L362.8125 99.87813Q362.8125 100.425 362.53125 101.01875Q362.26562 101.6125 361.78125 102.00313L361.17188 101.58125Q361.35938 101.31563 361.48438 101.05Q361.60938 100.78438 361.67188 100.50313Q361.75 100.22188 361.75 99.89375L361.75 99.00313L362.8125 99.00313ZM369.09375 97.9875Q369.09375 98.76875 368.73438 99.31563Q368.375 99.84688 367.75 100.14375Q367.14062 100.425 366.375 100.425Q365.60938 100.425 364.98438 100.14375Q364.375 99.84688 364.01562 99.31563Q363.65625 98.76875 363.65625 97.9875Q363.65625 97.4875 363.85938 97.06563Q364.0625 96.62813 364.42188 96.31563Q364.78125 96.00313 365.26562 95.83125Q365.76562 95.65938 366.35938 95.65938Q367.15625 95.65938 367.76562 95.95625Q368.375 96.25313 368.73438 96.78438Q369.09375 97.31563 369.09375 97.9875ZM368.0 97.97188Q368.0 97.4875 367.79688 97.12813Q367.59375 96.75313 367.21875 96.55Q366.84375 96.34688 366.35938 96.34688Q365.85938 96.34688 365.5 96.55Q365.14062 96.75313 364.9375 97.12813Q364.75 97.4875 364.75 97.97188Q364.75 98.45625 364.9375 98.81563Q365.14062 99.15938 365.5 99.34688Q365.875 99.51875 366.375 99.51875Q366.875 99.51875 367.23438 99.34688Q367.60938 99.15938 367.79688 98.81563Q368.0 98.45625 368.0 97.97188ZM368.89062 93.9875Q368.89062 94.6125 368.5625 95.1125Q368.23438 95.6125 367.65625 95.89375Q367.09375 96.175 366.375 96.175Q365.64062 96.175 365.0625 95.89375Q364.5 95.6125 364.17188 95.1125Q363.85938 94.6125 363.85938 93.9875Q363.85938 93.2375 364.17188 92.72188Q364.5 92.20625 365.0625 91.925Q365.64062 91.64375 366.375 91.64375Q367.10938 91.64375 367.67188 91.925Q368.23438 92.20625 368.5625 92.72188Q368.89062 93.2375 368.89062 93.9875ZM367.8125 94.00313Q367.8125 93.58125 367.625 93.25313Q367.4375 92.925 367.10938 92.7375Q366.79688 92.53438 366.375 92.53438Q365.9375 92.53438 365.60938 92.72188Q365.29688 92.89375 365.125 93.22188Q364.95312 93.55 364.95312 94.00313Q364.95312 94.44063 365.125 94.76875Q365.29688 95.09688 365.625 95.28438Q365.95312 95.47188 366.375 95.47188Q366.79688 95.47188 367.10938 95.28438Q367.4375 95.09688 367.625 94.76875Q367.8125 94.44063 367.8125 94.00313Z" fill-rule="nonzero"/><path stroke="#cccccc" stroke-width="1.0" stroke-linecap="butt" d="M372.0 305.0L372.0 103.0" fill-rule="nonzero"/><path fill="#000000" d="M346.29688 77.5L344.51562 77.5L344.53125 76.578125L346.29688 76.578125Q347.21875 76.578125 347.82812 76.203125Q348.4375 75.8125 348.73438 75.125Q349.04688 74.421875 349.04688 73.484375L349.04688 72.96875Q349.04688 72.234375 348.875 71.671875Q348.70312 71.09375 348.35938 70.703125Q348.01562 70.296875 347.51562 70.09375Q347.03125 69.890625 346.40625 69.890625L344.48438 69.890625L344.48438 68.96875L346.40625 68.96875Q347.25 68.96875 347.9375 69.25Q348.625 69.53125 349.125 70.0625Q349.625 70.578125 349.89062 71.328125Q350.17188 72.0625 350.17188 72.984375L350.17188 73.484375Q350.17188 74.421875 349.89062 75.171875Q349.625 75.90625 349.10938 76.421875Q348.60938 76.9375 347.89062 77.21875Q347.1875 77.5 346.29688 77.5ZM345.125 68.96875L345.125 77.5L343.98438 77.5L343.98438 68.96875L345.125 68.96875ZM354.07812 73.421875L354.07812 74.3125L351.21875 74.3125L351.21875 73.421875L354.07812 73.421875ZM360.17188 76.578125L360.17188 77.5L355.90625 77.5L355.90625 76.578125L360.17188 76.578125ZM356.125 68.96875L356.125 77.5L354.98438 77.5L354.98438 68.96875L356.125 68.96875ZM362.0 71.15625L362.0 77.5L360.92188 77.5L360.92188 71.15625L362.0 71.15625ZM360.82812 69.484375Q360.82812 69.21875 360.98438 69.03125Q361.15625 68.84375 361.46875 68.84375Q361.78125 68.84375 361.9375 69.03125Q362.10938 69.21875 362.10938 69.484375Q362.10938 69.734375 361.9375 69.921875Q361.78125 70.09375 361.46875 70.09375Q361.15625 70.09375 360.98438 69.921875Q360.82812 69.734375 360.82812 69.484375ZM364.90625 72.421875L364.90625 77.5L363.8125 77.5L363.8125 71.15625L364.84375 71.15625L364.90625 72.421875ZM364.6875 74.09375L364.17188 74.078125Q364.1875 73.421875 364.34375 72.875Q364.51562 72.3125 364.82812 71.90625Q365.15625 71.5 365.64062 71.28125Q366.125 71.046875 366.75 71.046875Q367.20312 71.046875 367.57812 71.171875Q367.95312 71.296875 368.21875 71.5625Q368.5 71.828125 368.64062 72.25Q368.79688 72.671875 368.79688 73.28125L368.79688 77.5L367.71875 77.5L367.71875 73.328125Q367.71875 72.828125 367.54688 72.53125Q367.39062 72.234375 367.07812 72.09375Q366.78125 71.953125 366.35938 71.953125Q365.89062 71.953125 365.5625 72.125Q365.23438 72.296875 365.04688 72.59375Q364.85938 72.890625 364.76562 73.28125Q364.6875 73.65625 364.6875 74.09375ZM368.79688 73.484375L368.0625 73.71875Q368.0625 73.1875 368.23438 72.71875Q368.40625 72.234375 368.71875 71.859375Q369.04688 71.484375 369.51562 71.265625Q369.98438 71.046875 370.57812 71.046875Q371.09375 71.046875 371.48438 71.1875Q371.89062 71.3125 372.15625 71.59375Q372.42188 71.875 372.5625 72.3125Q372.70312 72.734375 372.70312 73.328125L372.70312 77.5L371.625 77.5L371.625 73.328125Q371.625 72.78125 371.45312 72.5Q371.28125 72.203125 370.98438 72.078125Q370.6875 71.953125 370.26562 71.953125Q369.90625 71.953125 369.625 72.078125Q369.35938 72.203125 369.17188 72.421875Q368.98438 72.625 368.89062 72.90625Q368.79688 73.1875 368.79688 73.484375ZM374.54688 74.40625L374.54688 74.265625Q374.54688 73.578125 374.73438 73.0Q374.9375 72.40625 375.3125 71.96875Q375.6875 71.53125 376.21875 71.296875Q376.75 71.046875 377.42188 71.046875Q378.07812 71.046875 378.60938 71.296875Q379.15625 71.53125 379.53125 71.96875Q379.90625 72.40625 380.10938 73.0Q380.3125 73.578125 380.3125 74.265625L380.3125 74.40625Q380.3125 75.078125 380.10938 75.671875Q379.90625 76.25 379.53125 76.6875Q379.15625 77.125 378.625 77.375Q378.09375 77.625 377.42188 77.625Q376.76562 77.625 376.21875 77.375Q375.6875 77.125 375.3125 76.6875Q374.9375 76.25 374.73438 75.671875Q374.54688 75.078125 374.54688 74.40625ZM375.625 74.265625L375.625 74.40625Q375.625 74.875 375.73438 75.296875Q375.84375 75.71875 376.0625 76.046875Q376.29688 76.359375 376.64062 76.546875Q376.98438 76.71875 377.42188 76.71875Q377.875 76.71875 378.20312 76.546875Q378.54688 76.359375 378.76562 76.046875Q379.0 75.71875 379.10938 75.296875Q379.21875 74.875 379.21875 74.40625L379.21875 74.265625Q379.21875 73.796875 379.10938 73.375Q379.0 72.953125 378.76562 72.640625Q378.54688 72.3125 378.20312 72.125Q377.875 71.9375 377.42188 71.9375Q376.96875 71.9375 376.625 72.125Q376.29688 72.3125 376.0625 72.640625Q375.84375 72.953125 375.73438 73.375Q375.625 73.796875 375.625 74.265625ZM382.90625 72.515625L382.90625 77.5L381.82812 77.5L381.82812 71.15625L382.85938 71.15625L382.90625 72.515625ZM382.65625 74.09375L382.20312 74.078125Q382.20312 73.421875 382.39062 72.875Q382.57812 72.3125 382.92188 71.90625Q383.26562 71.5 383.73438 71.28125Q384.20312 71.046875 384.78125 71.046875Q385.25 71.046875 385.625 71.171875Q386.0 71.296875 386.26562 71.578125Q386.53125 71.84375 386.67188 72.28125Q386.8125 72.71875 386.8125 73.34375L386.8125 77.5L385.71875 77.5L385.71875 73.328125Q385.71875 72.828125 385.57812 72.53125Q385.4375 72.234375 385.15625 72.09375Q384.875 71.953125 384.45312 71.953125Q384.04688 71.953125 383.71875 72.125Q383.39062 72.296875 383.15625 72.59375Q382.92188 72.890625 382.78125 73.28125Q382.65625 73.65625 382.65625 74.09375ZM391.45312 77.625Q390.79688 77.625 390.25 77.40625Q389.71875 77.171875 389.32812 76.765625Q388.95312 76.34375 388.75 75.78125Q388.54688 75.21875 388.54688 74.546875L388.54688 74.3125Q388.54688 73.53125 388.76562 72.921875Q389.0 72.3125 389.39062 71.890625Q389.78125 71.46875 390.28125 71.265625Q390.78125 71.046875 391.3125 71.046875Q392.0 71.046875 392.48438 71.28125Q392.98438 71.515625 393.29688 71.9375Q393.625 72.34375 393.76562 72.921875Q393.92188 73.484375 393.92188 74.140625L393.92188 74.640625L389.1875 74.640625L389.1875 73.75L392.84375 73.75L392.84375 73.671875Q392.8125 73.25 392.65625 72.859375Q392.51562 72.453125 392.1875 72.203125Q391.875 71.9375 391.3125 71.9375Q390.95312 71.9375 390.64062 72.09375Q390.32812 72.25 390.09375 72.5625Q389.875 72.859375 389.75 73.296875Q389.64062 73.734375 389.64062 74.3125L389.64062 74.546875Q389.64062 75.0 389.76562 75.40625Q389.89062 75.796875 390.125 76.09375Q390.375 76.390625 390.71875 76.5625Q391.07812 76.734375 391.51562 76.734375Q392.09375 76.734375 392.48438 76.5Q392.89062 76.265625 393.1875 75.875L393.84375 76.390625Q393.64062 76.703125 393.3125 76.984375Q393.0 77.265625 392.53125 77.453125Q392.07812 77.625 391.45312 77.625ZM395.90625 72.515625L395.90625 77.5L394.82812 77.5L394.82812 71.15625L395.85938 71.15625L395.90625 72.515625ZM395.65625 74.09375L395.20312 74.078125Q395.20312 73.421875 395.39062 72.875Q395.57812 72.3125 395.92188 71.90625Q396.26562 71.5 396.73438 71.28125Q397.20312 71.046875 397.78125 71.046875Q398.25 71.046875 398.625 71.171875Q399.0 71.296875 399.26562 71.578125Q399.53125 71.84375 399.67188 72.28125Q399.8125 72.71875 399.8125 73.34375L399.8125 77.5L398.71875 77.5L398.71875 73.328125Q398.71875 72.828125 398.57812 72.53125Q398.4375 72.234375 398.15625 72.09375Q397.875 71.953125 397.45312 71.953125Q397.04688 71.953125 396.71875 72.125Q396.39062 72.296875 396.15625 72.59375Q395.92188 72.890625 395.78125 73.28125Q395.65625 73.65625 395.65625 74.09375Z" fill-rule="nonzero"/><path stroke="#cccccc" stroke-width="1.0" stroke-linecap="butt" d="M372.0 305.0L547.0 204.0" fill-rule="nonzero"/><path fill="#000000" d="M543.6406 190.78125L544.7656 190.78125Q544.6719 191.59375 544.2969 192.23438Q543.9219 192.875 543.2344 193.25Q542.5625 193.625 541.53125 193.625Q540.78125 193.625 540.1719 193.34375Q539.5625 193.04688 539.1094 192.53125Q538.6719 192.01562 538.4375 191.29688Q538.2031 190.5625 538.2031 189.65625L538.2031 188.8125Q538.2031 187.92188 538.4375 187.1875Q538.6719 186.45312 539.125 185.9375Q539.5781 185.40625 540.2031 185.125Q540.84375 184.84375 541.625 184.84375Q542.59375 184.84375 543.2656 185.21875Q543.9375 185.57812 544.2969 186.21875Q544.6719 186.85938 544.7656 187.70312L543.6406 187.70312Q543.5625 187.10938 543.3281 186.6875Q543.1094 186.25 542.7031 186.01562Q542.2969 185.78125 541.625 185.78125Q541.0625 185.78125 540.625 186.0Q540.2031 186.20312 539.90625 186.60938Q539.625 187.0 539.46875 187.5625Q539.3281 188.125 539.3281 188.79688L539.3281 189.65625Q539.3281 190.28125 539.4531 190.84375Q539.59375 191.39062 539.8594 191.8125Q540.125 192.21875 540.5469 192.46875Q540.96875 192.70312 541.53125 192.70312Q542.25 192.70312 542.6719 192.46875Q543.1094 192.23438 543.3281 191.8125Q543.5469 191.39062 543.6406 190.78125ZM550.0625 192.42188L550.0625 189.15625Q550.0625 188.78125 549.90625 188.5Q549.7656 188.21875 549.46875 188.07812Q549.1719 187.92188 548.7344 187.92188Q548.3125 187.92188 548.0 188.0625Q547.7031 188.20312 547.53125 188.4375Q547.3594 188.65625 547.3594 188.92188L546.28125 188.92188Q546.28125 188.57812 546.4531 188.25Q546.625 187.90625 546.9531 187.64062Q547.28125 187.35938 547.75 187.20312Q548.21875 187.04688 548.7969 187.04688Q549.4844 187.04688 550.0156 187.28125Q550.5469 187.51562 550.84375 187.98438Q551.15625 188.45312 551.15625 189.15625L551.15625 192.10938Q551.15625 192.4375 551.2031 192.79688Q551.2656 193.14062 551.375 193.40625L551.375 193.5L550.2344 193.5Q550.15625 193.3125 550.1094 193.0Q550.0625 192.6875 550.0625 192.42188ZM550.25 189.65625L550.2656 190.42188L549.1719 190.42188Q548.7031 190.42188 548.34375 190.5Q547.9844 190.5625 547.7344 190.71875Q547.4844 190.85938 547.3594 191.07812Q547.2344 191.29688 547.2344 191.59375Q547.2344 191.89062 547.3594 192.14062Q547.5 192.375 547.7656 192.53125Q548.0469 192.67188 548.4375 192.67188Q548.9375 192.67188 549.3125 192.46875Q549.7031 192.25 549.9219 191.95312Q550.15625 191.64062 550.1719 191.34375L550.6406 191.875Q550.59375 192.10938 550.40625 192.42188Q550.2344 192.71875 549.9219 193.0Q549.625 193.26562 549.2031 193.45312Q548.7969 193.625 548.28125 193.625Q547.6406 193.625 547.15625 193.375Q546.6719 193.10938 546.40625 192.6875Q546.1406 192.26562 546.1406 191.73438Q546.1406 191.21875 546.3281 190.84375Q546.53125 190.45312 546.90625 190.1875Q547.28125 189.92188 547.8125 189.79688Q548.34375 189.65625 549.0 189.65625L550.25 189.65625ZM554.40625 188.15625L554.40625 193.5L553.3281 193.5L553.3281 187.15625L554.375 187.15625L554.40625 188.15625ZM556.3906 187.125L556.3906 188.125Q556.25 188.10938 556.125 188.09375Q556.0156 188.07812 555.8594 188.07812Q555.4844 188.07812 555.1875 188.20312Q554.90625 188.3125 554.7031 188.53125Q554.5156 188.73438 554.3906 189.03125Q554.28125 189.32812 554.25 189.67188L553.9375 189.84375Q553.9375 189.26562 554.0469 188.76562Q554.1719 188.26562 554.40625 187.875Q554.65625 187.48438 555.0156 187.26562Q555.3906 187.04688 555.90625 187.04688Q556.03125 187.04688 556.1719 187.07812Q556.3281 187.09375 556.3906 187.125ZM559.1094 192.84375L560.875 187.15625L562.03125 187.15625L559.4844 194.48438Q559.40625 194.71875 559.25 194.98438Q559.1094 195.26562 558.8906 195.5Q558.6719 195.75 558.3594 195.90625Q558.0469 196.0625 557.6094 196.0625Q557.4844 196.0625 557.28125 196.01562Q557.0781 195.98438 557.0 195.96875L557.0 195.09375Q557.0469 195.09375 557.1406 195.09375Q557.25 195.10938 557.28125 195.10938Q557.65625 195.10938 557.90625 195.01562Q558.1719 194.92188 558.34375 194.6875Q558.53125 194.46875 558.65625 194.07812L559.1094 192.84375ZM557.8125 187.15625L559.4531 192.07812L559.7344 193.21875L558.96875 193.625L556.625 187.15625L557.8125 187.15625ZM563.0469 190.40625L563.0469 190.26562Q563.0469 189.57812 563.2344 189.0Q563.4375 188.40625 563.8125 187.96875Q564.1875 187.53125 564.71875 187.29688Q565.25 187.04688 565.9219 187.04688Q566.5781 187.04688 567.1094 187.29688Q567.65625 187.53125 568.03125 187.96875Q568.40625 188.40625 568.6094 189.0Q568.8125 189.57812 568.8125 190.26562L568.8125 190.40625Q568.8125 191.07812 568.6094 191.67188Q568.40625 192.25 568.03125 192.6875Q567.65625 193.125 567.125 193.375Q566.59375 193.625 565.9219 193.625Q565.2656 193.625 564.71875 193.375Q564.1875 193.125 563.8125 192.6875Q563.4375 192.25 563.2344 191.67188Q563.0469 191.07812 563.0469 190.40625ZM564.125 190.26562L564.125 190.40625Q564.125 190.875 564.2344 191.29688Q564.34375 191.71875 564.5625 192.04688Q564.7969 192.35938 565.1406 192.54688Q565.4844 192.71875 565.9219 192.71875Q566.375 192.71875 566.7031 192.54688Q567.0469 192.35938 567.2656 192.04688Q567.5 191.71875 567.6094 191.29688Q567.71875 190.875 567.71875 190.40625L567.71875 190.26562Q567.71875 189.79688 567.6094 189.375Q567.5 188.95312 567.2656 188.64062Q567.0469 188.3125 566.7031 188.125Q566.375 187.9375 565.9219 187.9375Q565.46875 187.9375 565.125 188.125Q564.7969 188.3125 564.5625 188.64062Q564.34375 188.95312 564.2344 189.375Q564.125 189.79688 564.125 190.26562ZM571.40625 188.375L571.40625 195.9375L570.3281 195.9375L570.3281 187.15625L571.3125 187.15625L571.40625 188.375ZM575.6875 190.28125L575.6875 190.40625Q575.6875 191.09375 575.5156 191.6875Q575.3594 192.26562 575.0469 192.70312Q574.7344 193.14062 574.2656 193.39062Q573.8125 193.625 573.21875 193.625Q572.625 193.625 572.15625 193.42188Q571.6875 193.21875 571.3594 192.84375Q571.0469 192.45312 570.8594 191.92188Q570.6719 191.39062 570.59375 190.71875L570.59375 190.0625Q570.6719 189.35938 570.8594 188.8125Q571.0469 188.25 571.3594 187.85938Q571.6875 187.45312 572.1406 187.25Q572.6094 187.04688 573.2031 187.04688Q573.7969 187.04688 574.2656 187.28125Q574.7344 187.5 575.0469 187.9375Q575.3594 188.35938 575.5156 188.95312Q575.6875 189.54688 575.6875 190.28125ZM574.59375 190.40625L574.59375 190.28125Q574.59375 189.79688 574.4844 189.39062Q574.3906 188.96875 574.1875 188.65625Q573.9844 188.32812 573.65625 188.14062Q573.3281 187.95312 572.8906 187.95312Q572.4844 187.95312 572.1719 188.09375Q571.875 188.23438 571.65625 188.48438Q571.4531 188.71875 571.3125 189.01562Q571.1875 189.3125 571.125 189.64062L571.125 191.15625Q571.2344 191.5625 571.4375 191.92188Q571.65625 192.28125 572.0 192.5Q572.3594 192.71875 572.90625 192.71875Q573.34375 192.71875 573.65625 192.54688Q573.9844 192.35938 574.1875 192.04688Q574.3906 191.71875 574.4844 191.29688Q574.59375 190.875 574.59375 190.40625ZM578.40625 184.5L578.40625 193.5L577.3281 193.5L577.3281 184.5L578.40625 184.5ZM578.15625 190.09375L577.7031 190.07812Q577.7031 189.42188 577.8906 188.875Q578.0781 188.3125 578.4219 187.90625Q578.7656 187.5 579.2344 187.28125Q579.7031 187.04688 580.28125 187.04688Q580.75 187.04688 581.125 187.17188Q581.5 187.29688 581.7656 187.57812Q582.03125 187.84375 582.1719 188.28125Q582.3125 188.71875 582.3125 189.34375L582.3125 193.5L581.21875 193.5L581.21875 189.32812Q581.21875 188.82812 581.0781 188.53125Q580.9375 188.23438 580.65625 188.09375Q580.375 187.95312 579.9531 187.95312Q579.5469 187.95312 579.21875 188.125Q578.8906 188.29688 578.65625 188.59375Q578.4219 188.89062 578.28125 189.28125Q578.15625 189.65625 578.15625 190.09375ZM586.1094 192.84375L587.875 187.15625L589.03125 187.15625L586.4844 194.48438Q586.40625 194.71875 586.25 194.98438Q586.1094 195.26562 585.8906 195.5Q585.6719 195.75 585.3594 195.90625Q585.0469 196.0625 584.6094 196.0625Q584.4844 196.0625 584.28125 196.01562Q584.0781 195.98438 584.0 195.96875L584.0 195.09375Q584.0469 195.09375 584.1406 195.09375Q584.25 195.10938 584.28125 195.10938Q584.65625 195.10938 584.90625 195.01562Q585.1719 194.92188 585.34375 194.6875Q585.53125 194.46875 585.65625 194.07812L586.1094 192.84375ZM584.8125 187.15625L586.4531 192.07812L586.7344 193.21875L585.96875 193.625L583.625 187.15625L584.8125 187.15625ZM591.5 184.5L591.5 193.5L590.4219 193.5L590.4219 184.5L591.5 184.5ZM594.5 184.5L594.5 193.5L593.4219 193.5L593.4219 184.5L594.5 184.5ZM598.9531 193.625Q598.2969 193.625 597.75 193.40625Q597.21875 193.17188 596.8281 192.76562Q596.4531 192.34375 596.25 191.78125Q596.0469 191.21875 596.0469 190.54688L596.0469 190.3125Q596.0469 189.53125 596.2656 188.92188Q596.5 188.3125 596.8906 187.89062Q597.28125 187.46875 597.78125 187.26562Q598.28125 187.04688 598.8125 187.04688Q599.5 187.04688 599.9844 187.28125Q600.4844 187.51562 600.7969 187.9375Q601.125 188.34375 601.2656 188.92188Q601.4219 189.48438 601.4219 190.14062L601.4219 190.64062L596.6875 190.64062L596.6875 189.75L600.34375 189.75L600.34375 189.67188Q600.3125 189.25 600.15625 188.85938Q600.0156 188.45312 599.6875 188.20312Q599.375 187.9375 598.8125 187.9375Q598.4531 187.9375 598.1406 188.09375Q597.8281 188.25 597.59375 188.5625Q597.375 188.85938 597.25 189.29688Q597.1406 189.73438 597.1406 190.3125L597.1406 190.54688Q597.1406 191.0 597.2656 191.40625Q597.3906 191.79688 597.625 192.09375Q597.875 192.39062 598.21875 192.5625Q598.5781 192.73438 599.0156 192.73438Q599.59375 192.73438 599.9844 192.5Q600.3906 192.26562 600.6875 191.875L601.34375 192.39062Q601.1406 192.70312 600.8125 192.98438Q600.5 193.26562 600.03125 193.45312Q599.5781 193.625 598.9531 193.625ZM603.40625 188.51562L603.40625 193.5L602.3281 193.5L602.3281 187.15625L603.3594 187.15625L603.40625 188.51562ZM603.15625 190.09375L602.7031 190.07812Q602.7031 189.42188 602.8906 188.875Q603.0781 188.3125 603.4219 187.90625Q603.7656 187.5 604.2344 187.28125Q604.7031 187.04688 605.28125 187.04688Q605.75 187.04688 606.125 187.17188Q606.5 187.29688 606.7656 187.57812Q607.03125 187.84375 607.1719 188.28125Q607.3125 188.71875 607.3125 189.34375L607.3125 193.5L606.21875 193.5L606.21875 189.32812Q606.21875 188.82812 606.0781 188.53125Q605.9375 188.23438 605.65625 188.09375Q605.375 187.95312 604.9531 187.95312Q604.5469 187.95312 604.21875 188.125Q603.8906 188.29688 603.65625 188.59375Q603.4219 188.89062 603.28125 189.28125Q603.15625 189.65625 603.15625 190.09375Z" fill-rule="nonzero"/><path stroke="#cccccc" stroke-width="1.0" stroke-linecap="butt" d="M372.0 305.0L547.0 406.0" fill-rule="nonzero"/><path fill="#000000" d="M556.03125 423.34375Q556.03125 423.04688 555.9375 422.8125Q555.8594 422.57812 555.625 422.39062Q555.40625 422.20312 555.0 422.03125Q554.6094 421.85938 554.0156 421.6875Q553.375 421.5 552.8594 421.28125Q552.3594 421.04688 551.9844 420.75Q551.625 420.4375 551.4375 420.0625Q551.25 419.67188 551.25 419.17188Q551.25 418.67188 551.4531 418.25Q551.65625 417.82812 552.03125 417.51562Q552.4219 417.20312 552.9531 417.03125Q553.4844 416.84375 554.1406 416.84375Q555.1094 416.84375 555.78125 417.21875Q556.4531 417.57812 556.7969 418.17188Q557.15625 418.76562 557.15625 419.42188L556.03125 419.42188Q556.03125 418.95312 555.8125 418.57812Q555.6094 418.20312 555.1875 418.0Q554.78125 417.78125 554.1406 417.78125Q553.5469 417.78125 553.1406 417.96875Q552.75 418.14062 552.5625 418.45312Q552.375 418.76562 552.375 419.15625Q552.375 419.42188 552.4844 419.65625Q552.6094 419.875 552.84375 420.0625Q553.09375 420.25 553.46875 420.40625Q553.84375 420.5625 554.375 420.70312Q555.09375 420.90625 555.625 421.17188Q556.15625 421.42188 556.5 421.73438Q556.84375 422.04688 557.0 422.4375Q557.1719 422.82812 557.1719 423.32812Q557.1719 423.85938 556.9531 424.28125Q556.75 424.70312 556.3594 425.0Q555.96875 425.29688 555.4219 425.46875Q554.875 425.625 554.2031 425.625Q553.6094 425.625 553.03125 425.45312Q552.46875 425.28125 552.0 424.95312Q551.53125 424.625 551.25 424.15625Q550.96875 423.67188 550.96875 423.03125L552.09375 423.03125Q552.09375 423.46875 552.2656 423.78125Q552.4375 424.09375 552.7344 424.29688Q553.03125 424.5 553.40625 424.60938Q553.78125 424.70312 554.2031 424.70312Q554.7969 424.70312 555.2031 424.54688Q555.6094 424.375 555.8125 424.07812Q556.03125 423.76562 556.03125 423.34375ZM560.9531 425.625Q560.2969 425.625 559.75 425.40625Q559.21875 425.17188 558.8281 424.76562Q558.4531 424.34375 558.25 423.78125Q558.0469 423.21875 558.0469 422.54688L558.0469 422.3125Q558.0469 421.53125 558.2656 420.92188Q558.5 420.3125 558.8906 419.89062Q559.28125 419.46875 559.78125 419.26562Q560.28125 419.04688 560.8125 419.04688Q561.5 419.04688 561.9844 419.28125Q562.4844 419.51562 562.7969 419.9375Q563.125 420.34375 563.2656 420.92188Q563.4219 421.48438 563.4219 422.14062L563.4219 422.64062L558.6875 422.64062L558.6875 421.75L562.34375 421.75L562.34375 421.67188Q562.3125 421.25 562.15625 420.85938Q562.0156 420.45312 561.6875 420.20312Q561.375 419.9375 560.8125 419.9375Q560.4531 419.9375 560.1406 420.09375Q559.8281 420.25 559.59375 420.5625Q559.375 420.85938 559.25 421.29688Q559.1406 421.73438 559.1406 422.3125L559.1406 422.54688Q559.1406 423.0 559.2656 423.40625Q559.3906 423.79688 559.625 424.09375Q559.875 424.39062 560.21875 424.5625Q560.5781 424.73438 561.0156 424.73438Q561.59375 424.73438 561.9844 424.5Q562.3906 424.26562 562.6875 423.875L563.34375 424.39062Q563.1406 424.70312 562.8125 424.98438Q562.5 425.26562 562.03125 425.45312Q561.5781 425.625 560.9531 425.625ZM565.5 416.5L565.5 425.5L564.4219 425.5L564.4219 416.5L565.5 416.5ZM568.5 419.15625L568.5 425.5L567.4219 425.5L567.4219 419.15625L568.5 419.15625ZM567.3281 417.48438Q567.3281 417.21875 567.4844 417.03125Q567.65625 416.84375 567.96875 416.84375Q568.28125 416.84375 568.4375 417.03125Q568.6094 417.21875 568.6094 417.48438Q568.6094 417.73438 568.4375 417.92188Q568.28125 418.09375 567.96875 418.09375Q567.65625 418.09375 567.4844 417.92188Q567.3281 417.73438 567.3281 417.48438ZM571.40625 420.51562L571.40625 425.5L570.3281 425.5L570.3281 419.15625L571.3594 419.15625L571.40625 420.51562ZM571.15625 422.09375L570.7031 422.07812Q570.7031 421.42188 570.8906 420.875Q571.0781 420.3125 571.4219 419.90625Q571.7656 419.5 572.2344 419.28125Q572.7031 419.04688 573.28125 419.04688Q573.75 419.04688 574.125 419.17188Q574.5 419.29688 574.7656 419.57812Q575.03125 419.84375 575.1719 420.28125Q575.3125 420.71875 575.3125 421.34375L575.3125 425.5L574.21875 425.5L574.21875 421.32812Q574.21875 420.82812 574.0781 420.53125Q573.9375 420.23438 573.65625 420.09375Q573.375 419.95312 572.9531 419.95312Q572.5469 419.95312 572.21875 420.125Q571.8906 420.29688 571.65625 420.59375Q571.4219 420.89062 571.28125 421.28125Q571.15625 421.65625 571.15625 422.09375ZM579.9531 425.625Q579.2969 425.625 578.75 425.40625Q578.21875 425.17188 577.8281 424.76562Q577.4531 424.34375 577.25 423.78125Q577.0469 423.21875 577.0469 422.54688L577.0469 422.3125Q577.0469 421.53125 577.2656 420.92188Q577.5 420.3125 577.8906 419.89062Q578.28125 419.46875 578.78125 419.26562Q579.28125 419.04688 579.8125 419.04688Q580.5 419.04688 580.9844 419.28125Q581.4844 419.51562 581.7969 419.9375Q582.125 420.34375 582.2656 420.92188Q582.4219 421.48438 582.4219 422.14062L582.4219 422.64062L577.6875 422.64062L577.6875 421.75L581.34375 421.75L581.34375 421.67188Q581.3125 421.25 581.15625 420.85938Q581.0156 420.45312 580.6875 420.20312Q580.375 419.9375 579.8125 419.9375Q579.4531 419.9375 579.1406 420.09375Q578.8281 420.25 578.59375 420.5625Q578.375 420.85938 578.25 421.29688Q578.1406 421.73438 578.1406 422.3125L578.1406 422.54688Q578.1406 423.0 578.2656 423.40625Q578.3906 423.79688 578.625 424.09375Q578.875 424.39062 579.21875 424.5625Q579.5781 424.73438 580.0156 424.73438Q580.59375 424.73438 580.9844 424.5Q581.3906 424.26562 581.6875 423.875L582.34375 424.39062Q582.1406 424.70312 581.8125 424.98438Q581.5 425.26562 581.03125 425.45312Q580.5781 425.625 579.9531 425.625ZM584.40625 420.51562L584.40625 425.5L583.3281 425.5L583.3281 419.15625L584.3594 419.15625L584.40625 420.51562ZM584.15625 422.09375L583.7031 422.07812Q583.7031 421.42188 583.8906 420.875Q584.0781 420.3125 584.4219 419.90625Q584.7656 419.5 585.2344 419.28125Q585.7031 419.04688 586.28125 419.04688Q586.75 419.04688 587.125 419.17188Q587.5 419.29688 587.7656 419.57812Q588.03125 419.84375 588.1719 420.28125Q588.3125 420.71875 588.3125 421.34375L588.3125 425.5L587.21875 425.5L587.21875 421.32812Q587.21875 420.82812 587.0781 420.53125Q586.9375 420.23438 586.65625 420.09375Q586.375 419.95312 585.9531 419.95312Q585.5469 419.95312 585.21875 420.125Q584.8906 420.29688 584.65625 420.59375Q584.4219 420.89062 584.28125 421.28125Q584.15625 421.65625 584.15625 422.09375ZM592.9531 425.625Q592.2969 425.625 591.75 425.40625Q591.21875 425.17188 590.8281 424.76562Q590.4531 424.34375 590.25 423.78125Q590.0469 423.21875 590.0469 422.54688L590.0469 422.3125Q590.0469 421.53125 590.2656 420.92188Q590.5 420.3125 590.8906 419.89062Q591.28125 419.46875 591.78125 419.26562Q592.28125 419.04688 592.8125 419.04688Q593.5 419.04688 593.9844 419.28125Q594.4844 419.51562 594.7969 419.9375Q595.125 420.34375 595.2656 420.92188Q595.4219 421.48438 595.4219 422.14062L595.4219 422.64062L590.6875 422.64062L590.6875 421.75L594.34375 421.75L594.34375 421.67188Q594.3125 421.25 594.15625 420.85938Q594.0156 420.45312 593.6875 420.20312Q593.375 419.9375 592.8125 419.9375Q592.4531 419.9375 592.1406 420.09375Q591.8281 420.25 591.59375 420.5625Q591.375 420.85938 591.25 421.29688Q591.1406 421.73438 591.1406 422.3125L591.1406 422.54688Q591.1406 423.0 591.2656 423.40625Q591.3906 423.79688 591.625 424.09375Q591.875 424.39062 592.21875 424.5625Q592.5781 424.73438 593.0156 424.73438Q593.59375 424.73438 593.9844 424.5Q594.3906 424.26562 594.6875 423.875L595.34375 424.39062Q595.1406 424.70312 594.8125 424.98438Q594.5 425.26562 594.03125 425.45312Q593.5781 425.625 592.9531 425.625Z" fill-rule="nonzero"/><path stroke="#cccccc" stroke-width="1.0" stroke-linecap="butt" d="M372.0 305.0L372.0 507.0" fill-rule="nonzero"/><path fill="#000000" d="M359.0625 536.96875L359.0625 537.5Q359.0625 538.46875 358.8125 539.2344Q358.57812 539.9844 358.125 540.5156Q357.67188 541.0469 357.04688 541.34375Q356.42188 541.625 355.64062 541.625Q354.875 541.625 354.25 541.34375Q353.625 541.0469 353.15625 540.5156Q352.70312 539.9844 352.45312 539.2344Q352.20312 538.46875 352.20312 537.5L352.20312 536.96875Q352.20312 536.0 352.45312 535.25Q352.70312 534.4844 353.15625 533.9531Q353.60938 533.40625 354.23438 533.125Q354.875 532.84375 355.625 532.84375Q356.40625 532.84375 357.03125 533.125Q357.67188 533.40625 358.125 533.9531Q358.57812 534.4844 358.8125 535.25Q359.0625 536.0 359.0625 536.96875ZM357.9375 537.5L357.9375 536.9531Q357.9375 536.1875 357.78125 535.6094Q357.625 535.0156 357.32812 534.625Q357.03125 534.21875 356.59375 534.0156Q356.17188 533.8125 355.625 533.8125Q355.09375 533.8125 354.67188 534.0156Q354.25 534.21875 353.9375 534.625Q353.64062 535.0156 353.46875 535.6094Q353.3125 536.1875 353.3125 536.9531L353.3125 537.5Q353.3125 538.2656 353.46875 538.8594Q353.64062 539.4531 353.95312 539.8594Q354.26562 540.25 354.6875 540.4531Q355.10938 540.65625 355.64062 540.65625Q356.1875 540.65625 356.60938 540.4531Q357.04688 540.25 357.34375 539.8594Q357.64062 539.4531 357.78125 538.8594Q357.9375 538.2656 357.9375 537.5ZM362.85938 540.71875Q363.25 540.71875 363.57812 540.5625Q363.90625 540.40625 364.10938 540.1406Q364.32812 539.8594 364.35938 539.5L365.39062 539.5Q365.35938 540.0625 365.0 540.5469Q364.65625 541.03125 364.09375 541.3281Q363.53125 541.625 362.85938 541.625Q362.15625 541.625 361.625 541.375Q361.09375 541.1094 360.73438 540.6719Q360.39062 540.2344 360.21875 539.6719Q360.04688 539.09375 360.04688 538.4531L360.04688 538.2031Q360.04688 537.5625 360.21875 537.0Q360.39062 536.4219 360.73438 535.9844Q361.09375 535.5469 361.625 535.2969Q362.15625 535.0469 362.85938 535.0469Q363.60938 535.0469 364.15625 535.34375Q364.71875 535.6406 365.03125 536.1719Q365.35938 536.6875 365.39062 537.34375L364.35938 537.34375Q364.32812 536.9531 364.14062 536.6406Q363.95312 536.3125 363.625 536.125Q363.29688 535.9375 362.85938 535.9375Q362.35938 535.9375 362.01562 536.1406Q361.6875 536.3281 361.48438 536.65625Q361.29688 536.9844 361.20312 537.3906Q361.125 537.7969 361.125 538.2031L361.125 538.4531Q361.125 538.875 361.20312 539.28125Q361.29688 539.6719 361.48438 540.0Q361.6875 540.3281 362.01562 540.53125Q362.35938 540.71875 362.85938 540.71875ZM367.5 535.15625L367.5 541.5L366.42188 541.5L366.42188 535.15625L367.5 535.15625ZM366.32812 533.4844Q366.32812 533.21875 366.48438 533.03125Q366.65625 532.84375 366.96875 532.84375Q367.28125 532.84375 367.4375 533.03125Q367.60938 533.21875 367.60938 533.4844Q367.60938 533.7344 367.4375 533.9219Q367.28125 534.09375 366.96875 534.09375Q366.65625 534.09375 366.48438 533.9219Q366.32812 533.7344 366.32812 533.4844ZM370.40625 536.4219L370.40625 541.5L369.3125 541.5L369.3125 535.15625L370.34375 535.15625L370.40625 536.4219ZM370.1875 538.09375L369.67188 538.0781Q369.6875 537.4219 369.84375 536.875Q370.01562 536.3125 370.32812 535.90625Q370.65625 535.5 371.14062 535.28125Q371.625 535.0469 372.25 535.0469Q372.70312 535.0469 373.07812 535.1719Q373.45312 535.2969 373.71875 535.5625Q374.0 535.8281 374.14062 536.25Q374.29688 536.6719 374.29688 537.28125L374.29688 541.5L373.21875 541.5L373.21875 537.3281Q373.21875 536.8281 373.04688 536.53125Q372.89062 536.2344 372.57812 536.09375Q372.28125 535.9531 371.85938 535.9531Q371.39062 535.9531 371.0625 536.125Q370.73438 536.2969 370.54688 536.59375Q370.35938 536.8906 370.26562 537.28125Q370.1875 537.65625 370.1875 538.09375ZM374.29688 537.4844L373.5625 537.71875Q373.5625 537.1875 373.73438 536.71875Q373.90625 536.2344 374.21875 535.8594Q374.54688 535.4844 375.01562 535.2656Q375.48438 535.0469 376.07812 535.0469Q376.59375 535.0469 376.98438 535.1875Q377.39062 535.3125 377.65625 535.59375Q377.92188 535.875 378.0625 536.3125Q378.20312 536.7344 378.20312 537.3281L378.20312 541.5L377.125 541.5L377.125 537.3281Q377.125 536.78125 376.95312 536.5Q376.78125 536.2031 376.48438 536.0781Q376.1875 535.9531 375.76562 535.9531Q375.40625 535.9531 375.125 536.0781Q374.85938 536.2031 374.67188 536.4219Q374.48438 536.625 374.39062 536.90625Q374.29688 537.1875 374.29688 537.4844ZM382.95312 541.625Q382.29688 541.625 381.75 541.40625Q381.21875 541.1719 380.82812 540.7656Q380.45312 540.34375 380.25 539.78125Q380.04688 539.21875 380.04688 538.5469L380.04688 538.3125Q380.04688 537.53125 380.26562 536.9219Q380.5 536.3125 380.89062 535.8906Q381.28125 535.46875 381.78125 535.2656Q382.28125 535.0469 382.8125 535.0469Q383.5 535.0469 383.98438 535.28125Q384.48438 535.5156 384.79688 535.9375Q385.125 536.34375 385.26562 536.9219Q385.42188 537.4844 385.42188 538.1406L385.42188 538.6406L380.6875 538.6406L380.6875 537.75L384.34375 537.75L384.34375 537.6719Q384.3125 537.25 384.15625 536.8594Q384.01562 536.4531 383.6875 536.2031Q383.375 535.9375 382.8125 535.9375Q382.45312 535.9375 382.14062 536.09375Q381.82812 536.25 381.59375 536.5625Q381.375 536.8594 381.25 537.2969Q381.14062 537.7344 381.14062 538.3125L381.14062 538.5469Q381.14062 539.0 381.26562 539.40625Q381.39062 539.7969 381.625 540.09375Q381.875 540.3906 382.21875 540.5625Q382.57812 540.7344 383.01562 540.7344Q383.59375 540.7344 383.98438 540.5Q384.39062 540.2656 384.6875 539.875L385.34375 540.3906Q385.14062 540.7031 384.8125 540.9844Q384.5 541.2656 384.03125 541.4531Q383.57812 541.625 382.95312 541.625ZM387.40625 536.5156L387.40625 541.5L386.32812 541.5L386.32812 535.15625L387.35938 535.15625L387.40625 536.5156ZM387.15625 538.09375L386.70312 538.0781Q386.70312 537.4219 386.89062 536.875Q387.07812 536.3125 387.42188 535.90625Q387.76562 535.5 388.23438 535.28125Q388.70312 535.0469 389.28125 535.0469Q389.75 535.0469 390.125 535.1719Q390.5 535.2969 390.76562 535.5781Q391.03125 535.84375 391.17188 536.28125Q391.3125 536.71875 391.3125 537.34375L391.3125 541.5L390.21875 541.5L390.21875 537.3281Q390.21875 536.8281 390.07812 536.53125Q389.9375 536.2344 389.65625 536.09375Q389.375 535.9531 388.95312 535.9531Q388.54688 535.9531 388.21875 536.125Q387.89062 536.2969 387.65625 536.59375Q387.42188 536.8906 387.28125 537.28125Q387.15625 537.65625 387.15625 538.09375Z" fill-rule="nonzero"/><path stroke="#cccccc" stroke-width="1.0" stroke-linecap="butt" d="M372.0 305.0L197.0 406.0" fill-rule="nonzero"/><path fill="#000000" d="M143.79688 421.25L143.79688 424.375Q143.64062 424.60938 143.29688 424.90625Q142.95312 425.1875 142.34375 425.40625Q141.73438 425.625 140.78125 425.625Q140.0 425.625 139.34375 425.35938Q138.6875 425.07812 138.20312 424.54688Q137.73438 424.01562 137.46875 423.26562Q137.21875 422.51562 137.21875 421.5625L137.21875 420.90625Q137.21875 419.9375 137.4375 419.1875Q137.67188 418.4375 138.10938 417.92188Q138.54688 417.39062 139.1875 417.125Q139.82812 416.84375 140.65625 416.84375Q141.625 416.84375 142.28125 417.1875Q142.95312 417.53125 143.3125 418.125Q143.6875 418.70312 143.79688 419.46875L142.67188 419.46875Q142.59375 419.0 142.35938 418.625Q142.14062 418.23438 141.71875 418.01562Q141.3125 417.78125 140.65625 417.78125Q140.0625 417.78125 139.625 418.0Q139.1875 418.20312 138.90625 418.60938Q138.625 419.01562 138.48438 419.59375Q138.35938 420.17188 138.35938 420.89062L138.35938 421.5625Q138.35938 422.29688 138.53125 422.875Q138.70312 423.45312 139.01562 423.875Q139.34375 424.28125 139.78125 424.5Q140.23438 424.70312 140.78125 424.70312Q141.39062 424.70312 141.76562 424.59375Q142.14062 424.48438 142.34375 424.34375Q142.5625 424.20312 142.67188 424.07812L142.67188 422.17188L140.70312 422.17188L140.70312 421.25L143.79688 421.25ZM147.95312 425.625Q147.29688 425.625 146.75 425.40625Q146.21875 425.17188 145.82812 424.76562Q145.45312 424.34375 145.25 423.78125Q145.04688 423.21875 145.04688 422.54688L145.04688 422.3125Q145.04688 421.53125 145.26562 420.92188Q145.5 420.3125 145.89062 419.89062Q146.28125 419.46875 146.78125 419.26562Q147.28125 419.04688 147.8125 419.04688Q148.5 419.04688 148.98438 419.28125Q149.48438 419.51562 149.79688 419.9375Q150.125 420.34375 150.26562 420.92188Q150.42188 421.48438 150.42188 422.14062L150.42188 422.64062L145.6875 422.64062L145.6875 421.75L149.34375 421.75L149.34375 421.67188Q149.3125 421.25 149.15625 420.85938Q149.01562 420.45312 148.6875 420.20312Q148.375 419.9375 147.8125 419.9375Q147.45312 419.9375 147.14062 420.09375Q146.82812 420.25 146.59375 420.5625Q146.375 420.85938 146.25 421.29688Q146.14062 421.73438 146.14062 422.3125L146.14062 422.54688Q146.14062 423.0 146.26562 423.40625Q146.39062 423.79688 146.625 424.09375Q146.875 424.39062 147.21875 424.5625Q147.57812 424.73438 148.01562 424.73438Q148.59375 424.73438 148.98438 424.5Q149.39062 424.26562 149.6875 423.875L150.34375 424.39062Q150.14062 424.70312 149.8125 424.98438Q149.5 425.26562 149.03125 425.45312Q148.57812 425.625 147.95312 425.625ZM152.40625 420.15625L152.40625 425.5L151.32812 425.5L151.32812 419.15625L152.375 419.15625L152.40625 420.15625ZM154.39062 419.125L154.39062 420.125Q154.25 420.10938 154.125 420.09375Q154.01562 420.07812 153.85938 420.07812Q153.48438 420.07812 153.1875 420.20312Q152.90625 420.3125 152.70312 420.53125Q152.51562 420.73438 152.39062 421.03125Q152.28125 421.32812 152.25 421.67188L151.9375 421.84375Q151.9375 421.26562 152.04688 420.76562Q152.17188 420.26562 152.40625 419.875Q152.65625 419.48438 153.01562 419.26562Q153.39062 419.04688 153.90625 419.04688Q154.03125 419.04688 154.17188 419.07812Q154.32812 419.09375 154.39062 419.125ZM156.40625 420.42188L156.40625 425.5L155.3125 425.5L155.3125 419.15625L156.34375 419.15625L156.40625 420.42188ZM156.1875 422.09375L155.67188 422.07812Q155.6875 421.42188 155.84375 420.875Q156.01562 420.3125 156.32812 419.90625Q156.65625 419.5 157.14062 419.28125Q157.625 419.04688 158.25 419.04688Q158.70312 419.04688 159.07812 419.17188Q159.45312 419.29688 159.71875 419.5625Q160.0 419.82812 160.14062 420.25Q160.29688 420.67188 160.29688 421.28125L160.29688 425.5L159.21875 425.5L159.21875 421.32812Q159.21875 420.82812 159.04688 420.53125Q158.89062 420.23438 158.57812 420.09375Q158.28125 419.95312 157.85938 419.95312Q157.39062 419.95312 157.0625 420.125Q156.73438 420.29688 156.54688 420.59375Q156.35938 420.89062 156.26562 421.28125Q156.1875 421.65625 156.1875 422.09375ZM160.29688 421.48438L159.5625 421.71875Q159.5625 421.1875 159.73438 420.71875Q159.90625 420.23438 160.21875 419.85938Q160.54688 419.48438 161.01562 419.26562Q161.48438 419.04688 162.07812 419.04688Q162.59375 419.04688 162.98438 419.1875Q163.39062 419.3125 163.65625 419.59375Q163.92188 419.875 164.0625 420.3125Q164.20312 420.73438 164.20312 421.32812L164.20312 425.5L163.125 425.5L163.125 421.32812Q163.125 420.78125 162.95312 420.5Q162.78125 420.20312 162.48438 420.07812Q162.1875 419.95312 161.76562 419.95312Q161.40625 419.95312 161.125 420.07812Q160.85938 420.20312 160.67188 420.42188Q160.48438 420.625 160.39062 420.90625Q160.29688 421.1875 160.29688 421.48438ZM170.0625 424.42188L170.0625 421.15625Q170.0625 420.78125 169.90625 420.5Q169.76562 420.21875 169.46875 420.07812Q169.17188 419.92188 168.73438 419.92188Q168.3125 419.92188 168.0 420.0625Q167.70312 420.20312 167.53125 420.4375Q167.35938 420.65625 167.35938 420.92188L166.28125 420.92188Q166.28125 420.57812 166.45312 420.25Q166.625 419.90625 166.95312 419.64062Q167.28125 419.35938 167.75 419.20312Q168.21875 419.04688 168.79688 419.04688Q169.48438 419.04688 170.01562 419.28125Q170.54688 419.51562 170.84375 419.98438Q171.15625 420.45312 171.15625 421.15625L171.15625 424.10938Q171.15625 424.4375 171.20312 424.79688Q171.26562 425.14062 171.375 425.40625L171.375 425.5L170.23438 425.5Q170.15625 425.3125 170.10938 425.0Q170.0625 424.6875 170.0625 424.42188ZM170.25 421.65625L170.26562 422.42188L169.17188 422.42188Q168.70312 422.42188 168.34375 422.5Q167.98438 422.5625 167.73438 422.71875Q167.48438 422.85938 167.35938 423.07812Q167.23438 423.29688 167.23438 423.59375Q167.23438 423.89062 167.35938 424.14062Q167.5 424.375 167.76562 424.53125Q168.04688 424.67188 168.4375 424.67188Q168.9375 424.67188 169.3125 424.46875Q169.70312 424.25 169.92188 423.95312Q170.15625 423.64062 170.17188 423.34375L170.64062 423.875Q170.59375 424.10938 170.40625 424.42188Q170.23438 424.71875 169.92188 425.0Q169.625 425.26562 169.20312 425.45312Q168.79688 425.625 168.28125 425.625Q167.64062 425.625 167.15625 425.375Q166.67188 425.10938 166.40625 424.6875Q166.14062 424.26562 166.14062 423.73438Q166.14062 423.21875 166.32812 422.84375Q166.53125 422.45312 166.90625 422.1875Q167.28125 421.92188 167.8125 421.79688Q168.34375 421.65625 169.0 421.65625L170.25 421.65625ZM175.85938 424.71875Q176.25 424.71875 176.57812 424.5625Q176.90625 424.40625 177.10938 424.14062Q177.32812 423.85938 177.35938 423.5L178.39062 423.5Q178.35938 424.0625 178.0 424.54688Q177.65625 425.03125 177.09375 425.32812Q176.53125 425.625 175.85938 425.625Q175.15625 425.625 174.625 425.375Q174.09375 425.10938 173.73438 424.67188Q173.39062 424.23438 173.21875 423.67188Q173.04688 423.09375 173.04688 422.45312L173.04688 422.20312Q173.04688 421.5625 173.21875 421.0Q173.39062 420.42188 173.73438 419.98438Q174.09375 419.54688 174.625 419.29688Q175.15625 419.04688 175.85938 419.04688Q176.60938 419.04688 177.15625 419.34375Q177.71875 419.64062 178.03125 420.17188Q178.35938 420.6875 178.39062 421.34375L177.35938 421.34375Q177.32812 420.95312 177.14062 420.64062Q176.95312 420.3125 176.625 420.125Q176.29688 419.9375 175.85938 419.9375Q175.35938 419.9375 175.01562 420.14062Q174.6875 420.32812 174.48438 420.65625Q174.29688 420.98438 174.20312 421.39062Q174.125 421.79688 174.125 422.20312L174.125 422.45312Q174.125 422.875 174.20312 423.28125Q174.29688 423.67188 174.48438 424.0Q174.6875 424.32812 175.01562 424.53125Q175.35938 424.71875 175.85938 424.71875ZM180.40625 420.15625L180.40625 425.5L179.32812 425.5L179.32812 419.15625L180.375 419.15625L180.40625 420.15625ZM182.39062 419.125L182.39062 420.125Q182.25 420.10938 182.125 420.09375Q182.01562 420.07812 181.85938 420.07812Q181.48438 420.07812 181.1875 420.20312Q180.90625 420.3125 180.70312 420.53125Q180.51562 420.73438 180.39062 421.03125Q180.28125 421.32812 180.25 421.67188L179.9375 421.84375Q179.9375 421.26562 180.04688 420.76562Q180.17188 420.26562 180.40625 419.875Q180.65625 419.48438 181.01562 419.26562Q181.39062 419.04688 181.90625 419.04688Q182.03125 419.04688 182.17188 419.07812Q182.32812 419.09375 182.39062 419.125ZM185.95312 425.625Q185.29688 425.625 184.75 425.40625Q184.21875 425.17188 183.82812 424.76562Q183.45312 424.34375 183.25 423.78125Q183.04688 423.21875 183.04688 422.54688L183.04688 422.3125Q183.04688 421.53125 183.26562 420.92188Q183.5 420.3125 183.89062 419.89062Q184.28125 419.46875 184.78125 419.26562Q185.28125 419.04688 185.8125 419.04688Q186.5 419.04688 186.98438 419.28125Q187.48438 419.51562 187.79688 419.9375Q188.125 420.34375 188.26562 420.92188Q188.42188 421.48438 188.42188 422.14062L188.42188 422.64062L183.6875 422.64062L183.6875 421.75L187.34375 421.75L187.34375 421.67188Q187.3125 421.25 187.15625 420.85938Q187.01562 420.45312 186.6875 420.20312Q186.375 419.9375 185.8125 419.9375Q185.45312 419.9375 185.14062 420.09375Q184.82812 420.25 184.59375 420.5625Q184.375 420.85938 184.25 421.29688Q184.14062 421.73438 184.14062 422.3125L184.14062 422.54688Q184.14062 423.0 184.26562 423.40625Q184.39062 423.79688 184.625 424.09375Q184.875 424.39062 185.21875 424.5625Q185.57812 424.73438 186.01562 424.73438Q186.59375 424.73438 186.98438 424.5Q187.39062 424.26562 187.6875 423.875L188.34375 424.39062Q188.14062 424.70312 187.8125 424.98438Q187.5 425.26562 187.03125 425.45312Q186.57812 425.625 185.95312 425.625ZM190.40625 420.51562L190.40625 425.5L189.32812 425.5L189.32812 419.15625L190.35938 419.15625L190.40625 420.51562ZM190.15625 422.09375L189.70312 422.07812Q189.70312 421.42188 189.89062 420.875Q190.07812 420.3125 190.42188 419.90625Q190.76562 419.5 191.23438 419.28125Q191.70312 419.04688 192.28125 419.04688Q192.75 419.04688 193.125 419.17188Q193.5 419.29688 193.76562 419.57812Q194.03125 419.84375 194.17188 420.28125Q194.3125 420.71875 194.3125 421.34375L194.3125 425.5L193.21875 425.5L193.21875 421.32812Q193.21875 420.82812 193.07812 420.53125Q192.9375 420.23438 192.65625 420.09375Q192.375 419.95312 191.95312 419.95312Q191.54688 419.95312 191.21875 420.125Q190.89062 420.29688 190.65625 420.59375Q190.42188 420.89062 190.28125 421.28125Q190.15625 421.65625 190.15625 422.09375ZM202.53125 421.51562L200.375 421.51562L200.35938 420.59375L202.32812 420.59375Q202.8125 420.59375 203.17188 420.4375Q203.53125 420.26562 203.73438 419.96875Q203.9375 419.65625 203.9375 419.23438Q203.9375 418.76562 203.75 418.46875Q203.57812 418.17188 203.20312 418.03125Q202.84375 417.89062 202.28125 417.89062L200.625 417.89062L200.625 425.5L199.48438 425.5L199.48438 416.96875L202.28125 416.96875Q202.9375 416.96875 203.45312 417.10938Q203.96875 417.23438 204.32812 417.51562Q204.6875 417.78125 204.875 418.21875Q205.0625 418.64062 205.0625 419.23438Q205.0625 419.76562 204.79688 420.20312Q204.53125 420.625 204.04688 420.89062Q203.57812 421.15625 202.9375 421.23438L202.53125 421.51562ZM202.48438 425.5L199.92188 425.5L200.5625 424.57812L202.48438 424.57812Q203.01562 424.57812 203.39062 424.39062Q203.78125 424.20312 203.96875 423.85938Q204.17188 423.51562 204.17188 423.04688Q204.17188 422.57812 204.0 422.23438Q203.82812 421.89062 203.46875 421.70312Q203.10938 421.51562 202.53125 421.51562L200.92188 421.51562L200.9375 420.59375L203.14062 420.59375L203.375 420.92188Q203.98438 420.98438 204.40625 421.28125Q204.84375 421.57812 205.0625 422.03125Q205.29688 422.48438 205.29688 423.03125Q205.29688 423.82812 204.9375 424.39062Q204.59375 424.9375 203.95312 425.21875Q203.32812 425.5 202.48438 425.5Z" fill-rule="nonzero"/><path stroke="#cccccc" stroke-width="1.0" stroke-linecap="butt" d="M372.0 305.0L197.0 204.0" fill-rule="nonzero"/><path fill="#000000" d="M153.03125 191.34375Q153.03125 191.04688 152.9375 190.8125Q152.85938 190.57812 152.625 190.39062Q152.40625 190.20312 152.0 190.03125Q151.60938 189.85938 151.01562 189.6875Q150.375 189.5 149.85938 189.28125Q149.35938 189.04688 148.98438 188.75Q148.625 188.4375 148.4375 188.0625Q148.25 187.67188 148.25 187.17188Q148.25 186.67188 148.45312 186.25Q148.65625 185.82812 149.03125 185.51562Q149.42188 185.20312 149.95312 185.03125Q150.48438 184.84375 151.14062 184.84375Q152.10938 184.84375 152.78125 185.21875Q153.45312 185.57812 153.79688 186.17188Q154.15625 186.76562 154.15625 187.42188L153.03125 187.42188Q153.03125 186.95312 152.8125 186.57812Q152.60938 186.20312 152.1875 186.0Q151.78125 185.78125 151.14062 185.78125Q150.54688 185.78125 150.14062 185.96875Q149.75 186.14062 149.5625 186.45312Q149.375 186.76562 149.375 187.15625Q149.375 187.42188 149.48438 187.65625Q149.60938 187.875 149.84375 188.0625Q150.09375 188.25 150.46875 188.40625Q150.84375 188.5625 151.375 188.70312Q152.09375 188.90625 152.625 189.17188Q153.15625 189.42188 153.5 189.73438Q153.84375 190.04688 154.0 190.4375Q154.17188 190.82812 154.17188 191.32812Q154.17188 191.85938 153.95312 192.28125Q153.75 192.70312 153.35938 193.0Q152.96875 193.29688 152.42188 193.46875Q151.875 193.625 151.20312 193.625Q150.60938 193.625 150.03125 193.45312Q149.46875 193.28125 149.0 192.95312Q148.53125 192.625 148.25 192.15625Q147.96875 191.67188 147.96875 191.03125L149.09375 191.03125Q149.09375 191.46875 149.26562 191.78125Q149.4375 192.09375 149.73438 192.29688Q150.03125 192.5 150.40625 192.60938Q150.78125 192.70312 151.20312 192.70312Q151.79688 192.70312 152.20312 192.54688Q152.60938 192.375 152.8125 192.07812Q153.03125 191.76562 153.03125 191.34375ZM155.04688 190.40625L155.04688 190.26562Q155.04688 189.57812 155.23438 189.0Q155.4375 188.40625 155.8125 187.96875Q156.1875 187.53125 156.71875 187.29688Q157.25 187.04688 157.92188 187.04688Q158.57812 187.04688 159.10938 187.29688Q159.65625 187.53125 160.03125 187.96875Q160.40625 188.40625 160.60938 189.0Q160.8125 189.57812 160.8125 190.26562L160.8125 190.40625Q160.8125 191.07812 160.60938 191.67188Q160.40625 192.25 160.03125 192.6875Q159.65625 193.125 159.125 193.375Q158.59375 193.625 157.92188 193.625Q157.26562 193.625 156.71875 193.375Q156.1875 193.125 155.8125 192.6875Q155.4375 192.25 155.23438 191.67188Q155.04688 191.07812 155.04688 190.40625ZM156.125 190.26562L156.125 190.40625Q156.125 190.875 156.23438 191.29688Q156.34375 191.71875 156.5625 192.04688Q156.79688 192.35938 157.14062 192.54688Q157.48438 192.71875 157.92188 192.71875Q158.375 192.71875 158.70312 192.54688Q159.04688 192.35938 159.26562 192.04688Q159.5 191.71875 159.60938 191.29688Q159.71875 190.875 159.71875 190.40625L159.71875 190.26562Q159.71875 189.79688 159.60938 189.375Q159.5 188.95312 159.26562 188.64062Q159.04688 188.3125 158.70312 188.125Q158.375 187.9375 157.92188 187.9375Q157.46875 187.9375 157.125 188.125Q156.79688 188.3125 156.5625 188.64062Q156.34375 188.95312 156.23438 189.375Q156.125 189.79688 156.125 190.26562ZM163.40625 188.51562L163.40625 193.5L162.32812 193.5L162.32812 187.15625L163.35938 187.15625L163.40625 188.51562ZM163.15625 190.09375L162.70312 190.07812Q162.70312 189.42188 162.89062 188.875Q163.07812 188.3125 163.42188 187.90625Q163.76562 187.5 164.23438 187.28125Q164.70312 187.04688 165.28125 187.04688Q165.75 187.04688 166.125 187.17188Q166.5 187.29688 166.76562 187.57812Q167.03125 187.84375 167.17188 188.28125Q167.3125 188.71875 167.3125 189.34375L167.3125 193.5L166.21875 193.5L166.21875 189.32812Q166.21875 188.82812 166.07812 188.53125Q165.9375 188.23438 165.65625 188.09375Q165.375 187.95312 164.95312 187.95312Q164.54688 187.95312 164.21875 188.125Q163.89062 188.29688 163.65625 188.59375Q163.42188 188.89062 163.28125 189.28125Q163.15625 189.65625 163.15625 190.09375ZM173.01562 191.8125Q173.01562 191.57812 172.90625 191.375Q172.8125 191.17188 172.5 191.01562Q172.1875 190.84375 171.5625 190.71875Q171.03125 190.60938 170.60938 190.46875Q170.1875 190.3125 169.89062 190.09375Q169.59375 189.875 169.4375 189.57812Q169.28125 189.28125 169.28125 188.89062Q169.28125 188.51562 169.4375 188.1875Q169.60938 187.84375 169.90625 187.59375Q170.21875 187.32812 170.65625 187.1875Q171.09375 187.04688 171.625 187.04688Q172.39062 187.04688 172.92188 187.3125Q173.46875 187.57812 173.75 188.03125Q174.03125 188.48438 174.03125 189.01562L172.95312 189.01562Q172.95312 188.76562 172.79688 188.51562Q172.64062 188.26562 172.34375 188.10938Q172.04688 187.9375 171.625 187.9375Q171.17188 187.9375 170.89062 188.07812Q170.60938 188.20312 170.48438 188.42188Q170.35938 188.625 170.35938 188.85938Q170.35938 189.04688 170.42188 189.1875Q170.48438 189.3125 170.64062 189.4375Q170.79688 189.54688 171.07812 189.65625Q171.375 189.75 171.82812 189.84375Q172.60938 190.01562 173.10938 190.26562Q173.60938 190.51562 173.85938 190.875Q174.10938 191.21875 174.10938 191.73438Q174.10938 192.15625 173.92188 192.5Q173.75 192.84375 173.42188 193.09375Q173.10938 193.34375 172.65625 193.48438Q172.20312 193.625 171.65625 193.625Q170.8125 193.625 170.23438 193.32812Q169.65625 193.01562 169.35938 192.54688Q169.0625 192.0625 169.0625 191.54688L170.14062 191.54688Q170.17188 191.98438 170.40625 192.25Q170.64062 192.51562 170.96875 192.625Q171.3125 192.71875 171.65625 192.71875Q172.09375 192.71875 172.39062 192.60938Q172.70312 192.48438 172.85938 192.28125Q173.01562 192.07812 173.01562 191.8125ZM177.98438 187.15625L177.98438 187.98438L174.54688 187.98438L174.54688 187.15625L177.98438 187.15625ZM175.71875 185.625L176.79688 185.625L176.79688 191.92188Q176.79688 192.25 176.89062 192.42188Q177.0 192.57812 177.15625 192.64062Q177.3125 192.6875 177.5 192.6875Q177.625 192.6875 177.76562 192.65625Q177.92188 192.625 178.0 192.60938L178.01562 193.5Q177.875 193.54688 177.67188 193.57812Q177.46875 193.625 177.17188 193.625Q176.78125 193.625 176.4375 193.46875Q176.10938 193.29688 175.90625 192.9375Q175.71875 192.5625 175.71875 191.92188L175.71875 185.625ZM180.5 187.15625L180.5 193.5L179.42188 193.5L179.42188 187.15625L180.5 187.15625ZM179.32812 185.48438Q179.32812 185.21875 179.48438 185.03125Q179.65625 184.84375 179.96875 184.84375Q180.28125 184.84375 180.4375 185.03125Q180.60938 185.21875 180.60938 185.48438Q180.60938 185.73438 180.4375 185.92188Q180.28125 186.09375 179.96875 186.09375Q179.65625 186.09375 179.48438 185.92188Q179.32812 185.73438 179.32812 185.48438ZM186.4375 187.15625L187.42188 187.15625L187.42188 193.35938Q187.42188 194.20312 187.07812 194.79688Q186.73438 195.39062 186.125 195.6875Q185.53125 196.0 184.73438 196.0Q184.40625 196.0 183.95312 195.89062Q183.51562 195.79688 183.09375 195.54688Q182.67188 195.3125 182.39062 194.90625L182.95312 194.25Q183.35938 194.73438 183.78125 194.92188Q184.21875 195.10938 184.65625 195.10938Q185.17188 195.10938 185.54688 194.90625Q185.92188 194.71875 186.125 194.34375Q186.32812 193.96875 186.32812 193.42188L186.32812 188.54688L186.4375 187.15625ZM182.0625 190.40625L182.0625 190.28125Q182.0625 189.54688 182.23438 188.95312Q182.42188 188.35938 182.73438 187.9375Q183.0625 187.5 183.51562 187.28125Q183.98438 187.04688 184.57812 187.04688Q185.17188 187.04688 185.60938 187.25Q186.0625 187.45312 186.375 187.85938Q186.6875 188.25 186.875 188.8125Q187.0625 189.35938 187.125 190.0625L187.125 190.60938Q187.0625 191.29688 186.875 191.85938Q186.6875 192.42188 186.375 192.8125Q186.0625 193.20312 185.60938 193.42188Q185.15625 193.625 184.5625 193.625Q183.98438 193.625 183.53125 193.39062Q183.07812 193.14062 182.75 192.70312Q182.42188 192.26562 182.23438 191.6875Q182.0625 191.09375 182.0625 190.40625ZM183.15625 190.28125L183.15625 190.40625Q183.15625 190.875 183.25 191.29688Q183.34375 191.70312 183.54688 192.03125Q183.75 192.34375 184.0625 192.53125Q184.39062 192.70312 184.82812 192.70312Q185.35938 192.70312 185.70312 192.46875Q186.0625 192.23438 186.26562 191.85938Q186.48438 191.48438 186.59375 191.04688L186.59375 189.64062Q186.53125 189.3125 186.39062 189.01562Q186.26562 188.71875 186.0625 188.48438Q185.85938 188.23438 185.54688 188.09375Q185.25 187.95312 184.82812 187.95312Q184.39062 187.95312 184.0625 188.14062Q183.75 188.32812 183.54688 188.65625Q183.34375 188.96875 183.25 189.39062Q183.15625 189.79688 183.15625 190.28125ZM191.95312 193.625Q191.29688 193.625 190.75 193.40625Q190.21875 193.17188 189.82812 192.76562Q189.45312 192.34375 189.25 191.78125Q189.04688 191.21875 189.04688 190.54688L189.04688 190.3125Q189.04688 189.53125 189.26562 188.92188Q189.5 188.3125 189.89062 187.89062Q190.28125 187.46875 190.78125 187.26562Q191.28125 187.04688 191.8125 187.04688Q192.5 187.04688 192.98438 187.28125Q193.48438 187.51562 193.79688 187.9375Q194.125 188.34375 194.26562 188.92188Q194.42188 189.48438 194.42188 190.14062L194.42188 190.64062L189.6875 190.64062L189.6875 189.75L193.34375 189.75L193.34375 189.67188Q193.3125 189.25 193.15625 188.85938Q193.01562 188.45312 192.6875 188.20312Q192.375 187.9375 191.8125 187.9375Q191.45312 187.9375 191.14062 188.09375Q190.82812 188.25 190.59375 188.5625Q190.375 188.85938 190.25 189.29688Q190.14062 189.73438 190.14062 190.3125L190.14062 190.54688Q190.14062 191.0 190.26562 191.40625Q190.39062 191.79688 190.625 192.09375Q190.875 192.39062 191.21875 192.5625Q191.57812 192.73438 192.01562 192.73438Q192.59375 192.73438 192.98438 192.5Q193.39062 192.26562 193.6875 191.875L194.34375 192.39062Q194.14062 192.70312 193.8125 192.98438Q193.5 193.26562 193.03125 193.45312Q192.57812 193.625 191.95312 193.625Z" fill-rule="nonzero"/><path stroke="#cccccc" stroke-width="1.0" stroke-linecap="butt" d="M372.0 305.0L372.0 103.0" fill-rule="nonzero"/><path stroke="#ff0000" stroke-width="2.0" stroke-linecap="butt" stroke-opacity="0.7019608" stroke-dasharray="8.0,6.0,2.0,6.0" d="M372.0 260.0L389.0 295.0L387.0 314.0L372.0 320.0L361.0 311.0L254.0 237.0Z" fill-rule="nonzero"/><path fill="#ff0000" fill-opacity="0.7019608" d="M368.81802 256.81802L372.0 258.875L375.18198 256.81802L373.125 260.0L375.18198 263.18198L372.0 261.125L368.81802 263.18198L370.875 260.0Z" fill-rule="nonzero"/><path fill="#ff0000" fill-opacity="0.7019608" d="M385.81802 291.81802L389.0 293.875L392.18198 291.81802L390.125 295.0L392.18198 298.18198L389.0 296.125L385.81802 298.18198L387.875 295.0Z" fill-rule="nonzero"/><path fill="#ff0000" fill-opacity="0.7019608" d="M383.81802 310.81802L387.0 312.875L390.18198 310.81802L388.125 314.0L390.18198 317.18198L387.0 315.125L383.81802 317.18198L385.875 314.0Z" fill-rule="nonzero"/><path fill="#ff0000" fill-opacity="0.7019608" d="M368.81802 316.81802L372.0 318.875L375.18198 316.81802L373.125 320.0L375.18198 323.18198L372.0 321.125L368.81802 323.18198L370.875 320.0Z" fill-rule="nonzero"/><path fill="#ff0000" fill-opacity="0.7019608" d="M357.81802 307.81802L361.0 309.875L364.18198 307.81802L362.125 311.0L364.18198 314.18198L361.0 312.125L357.81802 314.18198L359.875 311.0Z" fill-rule="nonzero"/><path fill="#ff0000" fill-opacity="0.7019608" d="M250.81802 233.81802L254.0 235.875L257.18198 233.81802L255.125 237.0L257.18198 240.18198L254.0 238.125L250.81802 240.18198L252.875 237.0Z" fill-rule="nonzero"/><path fill="#757575" d="M29.896875 47.35L29.896875 33.0375L35.2875 33.0375Q36.725 33.0375 37.475 33.1625Q38.521873 33.35 39.240623 33.85Q39.959373 34.334373 40.38125 35.225Q40.81875 36.115623 40.81875 37.178123Q40.81875 39.00625 39.646873 40.271873Q38.490623 41.521873 35.459373 41.521873L31.7875 41.521873L31.7875 47.35L29.896875 47.35ZM31.7875 39.834373L35.490623 39.834373Q37.31875 39.834373 38.084373 39.1625Q38.865623 38.475 38.865623 37.225Q38.865623 36.334373 38.4125 35.69375Q37.959373 35.053123 37.225 34.85Q36.740623 34.725 35.44375 34.725L31.7875 34.725L31.7875 39.834373ZM42.678123 35.053123L42.678123 33.0375L44.44375 33.0375L44.44375 35.053123L42.678123 35.053123ZM42.678123 47.35L42.678123 36.975L44.44375 36.975L44.44375 47.35L42.678123 47.35ZM46.6625 47.35L46.6625 36.975L48.25625 36.975L48.25625 38.459373Q49.396873 36.740623 51.553123 36.740623Q52.490623 36.740623 53.271873 37.084373Q54.06875 37.4125 54.459373 37.959373Q54.85 38.50625 55.00625 39.25625Q55.1 39.75625 55.1 40.975L55.1 47.35L53.334373 47.35L53.334373 41.0375Q53.334373 39.959373 53.13125 39.428123Q52.928123 38.896873 52.396873 38.584373Q51.88125 38.271873 51.178123 38.271873Q50.053123 38.271873 49.240623 38.990623Q48.428123 39.69375 48.428123 41.678123L48.428123 47.35L46.6625 47.35ZM63.771873 44.00625L65.58437 44.240623Q65.1625 45.81875 63.990623 46.709373Q62.834373 47.584373 61.021873 47.584373Q58.75625 47.584373 57.4125 46.19375Q56.084373 44.7875 56.084373 42.25625Q56.084373 39.63125 57.428123 38.19375Q58.771873 36.740623 60.928123 36.740623Q63.00625 36.740623 64.31875 38.1625Q65.64687 39.56875 65.64687 42.146873Q65.64687 42.303123 65.63125 42.615623L57.896873 42.615623Q57.990623 44.31875 58.865623 45.225Q59.740623 46.13125 61.0375 46.13125Q62.00625 46.13125 62.678123 45.63125Q63.365623 45.115623 63.771873 44.00625ZM57.990623 41.1625L63.7875 41.1625Q63.678123 39.865623 63.13125 39.209373Q62.2875 38.19375 60.94375 38.19375Q59.740623 38.19375 58.9125 39.00625Q58.084373 39.803123 57.990623 41.1625ZM74.44375 46.06875Q73.45937 46.896873 72.55312 47.240623Q71.64687 47.584373 70.61562 47.584373Q68.9125 47.584373 67.99062 46.75625Q67.06875 45.9125 67.06875 44.615623Q67.06875 43.85 67.4125 43.225Q67.77187 42.6 68.33437 42.225Q68.89687 41.834373 69.6 41.63125Q70.11562 41.50625 71.1625 41.365623Q73.2875 41.115623 74.2875 40.771873Q74.30312 40.4125 74.30312 40.303123Q74.30312 39.240623 73.80312 38.7875Q73.13125 38.19375 71.80312 38.19375Q70.55312 38.19375 69.95937 38.63125Q69.38125 39.06875 69.1 40.178123L67.38125 39.94375Q67.61562 38.834373 68.14687 38.1625Q68.67812 37.475 69.69375 37.115623Q70.70937 36.740623 72.05312 36.740623Q73.38125 36.740623 74.20937 37.053123Q75.0375 37.365623 75.42812 37.85Q75.81875 38.31875 75.975 39.0375Q76.06875 39.490623 76.06875 40.6625L76.06875 43.00625Q76.06875 45.459373 76.17812 46.115623Q76.2875 46.75625 76.63125 47.35L74.7875 47.35Q74.52187 46.803123 74.44375 46.06875ZM74.2875 42.146873Q73.33437 42.5375 71.4125 42.803123Q70.33437 42.959373 69.88125 43.1625Q69.44375 43.35 69.19375 43.725Q68.94375 44.1 68.94375 44.56875Q68.94375 45.271873 69.475 45.740623Q70.00625 46.209373 71.0375 46.209373Q72.05312 46.209373 72.83437 45.771873Q73.63125 45.31875 74.00625 44.553123Q74.2875 43.94375 74.2875 42.7875L74.2875 42.146873ZM78.6625 51.31875L78.6625 36.975L80.27187 36.975L80.27187 38.31875Q80.83437 37.5375 81.5375 37.146873Q82.25625 36.740623 83.27187 36.740623Q84.6 36.740623 85.61562 37.428123Q86.63125 38.115623 87.14687 39.365623Q87.67812 40.6 87.67812 42.084373Q87.67812 43.678123 87.1 44.959373Q86.5375 46.225 85.44375 46.9125Q84.35 47.584373 83.14687 47.584373Q82.27187 47.584373 81.56875 47.209373Q80.88125 46.834373 80.42812 46.271873L80.42812 51.31875L78.6625 51.31875ZM80.25625 42.225Q80.25625 44.225 81.06875 45.178123Q81.88125 46.13125 83.0375 46.13125Q84.20937 46.13125 85.0375 45.146873Q85.88125 44.1625 85.88125 42.06875Q85.88125 40.1 85.05312 39.115623Q84.24062 38.115623 83.11562 38.115623Q81.99062 38.115623 81.11562 39.178123Q80.25625 40.225 80.25625 42.225ZM89.6625 51.31875L89.6625 36.975L91.27187 36.975L91.27187 38.31875Q91.83437 37.5375 92.5375 37.146873Q93.25625 36.740623 94.27187 36.740623Q95.6 36.740623 96.61562 37.428123Q97.63125 38.115623 98.14687 39.365623Q98.67812 40.6 98.67812 42.084373Q98.67812 43.678123 98.1 44.959373Q97.5375 46.225 96.44375 46.9125Q95.35 47.584373 94.14687 47.584373Q93.27187 47.584373 92.56875 47.209373Q91.88125 46.834373 91.42812 46.271873L91.42812 51.31875L89.6625 51.31875ZM91.25625 42.225Q91.25625 44.225 92.06875 45.178123Q92.88125 46.13125 94.0375 46.13125Q95.20937 46.13125 96.0375 45.146873Q96.88125 44.1625 96.88125 42.06875Q96.88125 40.1 96.05312 39.115623Q95.24062 38.115623 94.11562 38.115623Q92.99062 38.115623 92.11562 39.178123Q91.25625 40.225 91.25625 42.225ZM100.63125 47.35L100.63125 33.0375L102.38125 33.0375L102.38125 47.35L100.63125 47.35ZM111.77187 44.00625L113.58437 44.240623Q113.1625 45.81875 111.99062 46.709373Q110.83437 47.584373 109.02187 47.584373Q106.75625 47.584373 105.4125 46.19375Q104.08437 44.7875 104.08437 42.25625Q104.08437 39.63125 105.42812 38.19375Q106.77187 36.740623 108.92812 36.740623Q111.00625 36.740623 112.31875 38.1625Q113.64687 39.56875 113.64687 42.146873Q113.64687 42.303123 113.63125 42.615623L105.89687 42.615623Q105.99062 44.31875 106.86562 45.225Q107.74062 46.13125 109.0375 46.13125Q110.00625 46.13125 110.67812 45.63125Q111.36562 45.115623 111.77187 44.00625ZM105.99062 41.1625L111.7875 41.1625Q111.67812 39.865623 111.13125 39.209373Q110.2875 38.19375 108.94375 38.19375Q107.74062 38.19375 106.9125 39.00625Q106.08437 39.803123 105.99062 41.1625ZM121.99062 47.35L121.99062 33.0375L131.64688 33.0375L131.64688 34.725L123.88125 34.725L123.88125 39.1625L130.6 39.1625L130.6 40.85L123.88125 40.85L123.88125 47.35L121.99062 47.35ZM133.64688 47.35L133.64688 36.975L135.225 36.975L135.225 38.553123Q135.83438 37.44375 136.35 37.1Q136.86563 36.740623 137.475 36.740623Q138.36563 36.740623 139.2875 37.303123L138.67813 38.94375Q138.0375 38.553123 137.39688 38.553123Q136.81876 38.553123 136.35 38.9125Q135.89688 39.25625 135.69376 39.865623Q135.4125 40.803123 135.4125 41.9125L135.4125 47.35L133.64688 47.35ZM147.45938 47.35L147.45938 45.81875Q146.25626 47.584373 144.17813 47.584373Q143.25626 47.584373 142.45938 47.240623Q141.6625 46.88125 141.27188 46.35Q140.89688 45.81875 140.74063 45.0375Q140.63126 44.521873 140.63126 43.396873L140.63126 36.975L142.38126 36.975L142.38126 42.725Q142.38126 44.1 142.49063 44.584373Q142.6625 45.271873 143.19376 45.678123Q143.74063 46.06875 144.52188 46.06875Q145.31876 46.06875 146.00626 45.6625Q146.70938 45.25625 146.99063 44.56875Q147.2875 43.865623 147.2875 42.5375L147.2875 36.975L149.0375 36.975L149.0375 47.35L147.45938 47.35ZM149.74063 47.35L149.74063 45.928123L156.35 38.35Q155.225 38.396873 154.36563 38.396873L150.13126 38.396873L150.13126 36.975L158.61563 36.975L158.61563 38.146873L152.99063 44.725L151.9125 45.928123Q153.08438 45.834373 154.13126 45.834373L158.92813 45.834373L158.92813 47.35L149.74063 47.35Z" fill-rule="nonzero"/></svg>