<svg version="1.1" viewBox="0.0 0.0 744.0 567.0" fill="none" stroke="none" stroke-linecap="square" stroke-miterlimit="10" width="744" height="567" xmlns:xlink="http://www.w3.org/1999/xlink" xmlns="http://www.w3.org/2000/svg"><path fill="#ffffff" d="M0 0L744.0 0L744.0 567.0L0 567.0L0 0Z" fill-rule="nonzero"/><path fill="#ffffff" d="M28.35 71.25L715.64996 71.25L715.64996 538.65L28.35 538.65L28.35 71.25Z" fill-rule="nonzero"/><path stroke="#cccccc" stroke-width="1.0" stroke-linecap="butt" d="M372.0 305.0C372.0 305.0 372.0 305.0 372.0 305.0C372.0 305.0 372.0 305.0 372.0 305.0C372.0 305.0 372.0 305.0 372.0 305.0C372.0 305.0 372.0 305.0 372.0 305.0" fill-rule="nonzero"/><path fill="#000000" d="M360.0625 297.04688L360.0625 298.35938Q360.0625 299.40625 359.875 300.125Q359.6875 300.84375 359.32812 301.28125Q358.98438 301.71875 358.48438 301.92188Q358.0 302.125 357.375 302.125Q356.89062 302.125 356.46875 302.0Q356.04688 301.875 355.71875 301.60938Q355.39062 301.32812 355.15625 300.89062Q354.92188 300.45312 354.79688 299.82812Q354.67188 299.1875 354.67188 298.35938L354.67188 297.04688Q354.67188 296.0 354.85938 295.29688Q355.0625 294.59375 355.40625 294.15625Q355.76562 293.71875 356.25 293.53125Q356.75 293.34375 357.35938 293.34375Q357.85938 293.34375 358.28125 293.46875Q358.70312 293.59375 359.03125 293.85938Q359.35938 294.10938 359.57812 294.54688Q359.8125 294.96875 359.9375 295.59375Q360.0625 296.21875 360.0625 297.04688ZM358.96875 298.53125L358.96875 296.875Q358.96875 296.29688 358.90625 295.85938Q358.84375 295.42188 358.70312 295.10938Q358.57812 294.79688 358.375 294.60938Q358.1875 294.42188 357.9375 294.32812Q357.6875 294.23438 357.35938 294.23438Q356.98438 294.23438 356.67188 294.375Q356.375 294.51562 356.17188 294.82812Q355.96875 295.14062 355.85938 295.65625Q355.76562 296.15625 355.76562 296.875L355.76562 298.53125Q355.76562 299.10938 355.82812 299.54688Q355.90625 299.98438 356.03125 300.3125Q356.17188 300.625 356.35938 300.82812Q356.5625 301.03125 356.8125 301.125Q357.0625 301.21875 357.375 301.21875Q357.78125 301.21875 358.07812 301.07812Q358.375 300.92188 358.57812 300.59375Q358.78125 300.26562 358.875 299.76562Q358.96875 299.25 358.96875 298.53125ZM362.8125 300.70312L362.8125 301.57812Q362.8125 302.125 362.53125 302.71875Q362.26562 303.3125 361.78125 303.70312L361.17188 303.28125Q361.35938 303.01562 361.48438 302.75Q361.60938 302.48438 361.67188 302.20312Q361.75 301.92188 361.75 301.59375L361.75 300.70312L362.8125 300.70312ZM369.0625 297.04688L369.0625 298.35938Q369.0625 299.40625 368.875 300.125Q368.6875 300.84375 368.32812 301.28125Q367.98438 301.71875 367.48438 301.92188Q367.0 302.125 366.375 302.125Q365.89062 302.125 365.46875 302.0Q365.04688 301.875 364.71875 301.60938Q364.39062 301.32812 364.15625 300.89062Q363.92188 300.45312 363.79688 299.82812Q363.67188 299.1875 363.67188 298.35938L363.67188 297.04688Q363.67188 296.0 363.85938 295.29688Q364.0625 294.59375 364.40625 294.15625Q364.76562 293.71875 365.25 293.53125Q365.75 293.34375 366.35938 293.34375Q366.85938 293.34375 367.28125 293.46875Q367.70312 293.59375 368.03125 293.85938Q368.35938 294.10938 368.57812 294.54688Q368.8125 294.96875 368.9375 295.59375Q369.0625 296.21875 369.0625 297.04688ZM367.96875 298.53125L367.96875 296.875Q367.96875 296.29688 367.90625 295.85938Q367.84375 295.42188 367.70312 295.10938Q367.57812 294.79688 367.375 294.60938Q367.1875 294.42188 366.9375 294.32812Q366.6875 294.23438 366.35938 294.23438Q365.98438 294.23438 365.67188 294.375Q365.375 294.51562 365.17188 294.82812Q364.96875 295.14062 364.85938 295.65625Q364.76562 296.15625 364.76562 296.875L364.76562 298.53125Q364.76562 299.10938 364.82812 299.54688Q364.90625 299.98438 365.03125 300.3125Q365.17188 300.625 365.35938 300.82812Q365.5625 301.03125 365.8125 301.125Q366.0625 301.21875 366.375 301.21875Q366.78125 301.21875 367.07812 301.07812Q367.375 300.92188 367.57812 300.59375Q367.78125 300.26562 367.875 299.76562Q367.96875 299.25 367.96875 298.53125Z" fill-rule="nonzero"/><path stroke="#cccccc" stroke-width="1.0" stroke-linecap="butt" d="M422.425 305.0C422.425 277.15103 399.84897 254.575 372.0 254.575C344.15103 254.575 321.575 277.15103 321.575 305.0C321.575 332.84897 344.15103 355.425 372.0 355.425C399.84897 355.425 422.425 332.84897 422.425 305.0" fill-rule="nonzero"/><path fill="#000000" d="M360.0625 246.62187L360.0625 247.93437Q360.0625 248.98125 359.875 249.7Q359.6875 250.41875 359.32812 250.85625Q358.98438 251.29375 358.48438 251.49687Q358.0 251.7 357.375 251.7Q356.89062 251.7 356.46875 251.575Q356.04688 251.45 355.71875 251.18437Q355.39062 250.90312 355.15625 250.46562Q354.92188 250.02812 354.79688 249.40312Q354.67188 248.7625 354.67188 247.93437L354.67188 246.62187Q354.67188 245.575 354.85938 244.87187Q355.0625 244.16875 355.40625 243.73125Q355.76562 243.29375 356.25 243.10625Q356.75 242.91875 357.35938 242.91875Q357.85938 242.91875 358.28125 243.04375Q358.70312 243.16875 359.03125 243.43437Q359.35938 243.68437 359.57812 244.12187Q359.8125 244.54375 359.9375 245.16875Q360.0625 245.79375 360.0625 246.62187ZM358.96875 248.10625L358.96875 246.45Q358.96875 245.87187 358.90625 245.43437Q358.84375 244.99687 358.70312 244.68437Q358.57812 244.37187 358.375 244.18437Q358.1875 243.99687 357.9375 243.90312Q357.6875 243.80937 357.35938 243.80937Q356.98438 243.80937 356.67188 243.95Q356.375 244.09062 356.17188 244.40312Q355.96875 244.71562 355.85938 245.23125Q355.76562 245.73125 355.76562 246.45L355.76562 248.10625Q355.76562 248.68437 355.82812 249.12187Q355.90625 249.55937 356.03125 249.8875Q356.17188 250.2 356.35938 250.40312Q356.5625 250.60625 356.8125 250.7Q357.0625 250.79375 357.375 250.79375Q357.78125 250.79375 358.07812 250.65312Q358.375 250.49687 358.57812 250.16875Q358.78125 249.84062 358.875 249.34062Q358.96875 248.825 358.96875 248.10625ZM362.8125 250.27812L362.8125 251.15312Q362.8125 251.7 362.53125 252.29375Q362.26562 252.8875 361.78125 253.27812L361.17188 252.85625Q361.35938 252.59062 361.48438 252.325Q361.60938 252.05937 361.67188 251.77812Q361.75 251.49687 361.75 251.16875L361.75 250.27812L362.8125 250.27812ZM367.26562 242.99687L367.26562 251.575L366.1875 251.575L366.1875 244.35625L364.0 245.15312L364.0 244.16875L367.10938 242.99687L367.26562 242.99687Z" fill-rule="nonzero"/><path stroke="#cccccc" stroke-width="1.0" stroke-linecap="butt" d="M472.85 305.0C472.85 249.30208 427.6979 204.15 372.0 204.15C316.3021 204.15 271.15 249.30208 271.15 305.0C271.15 360.6979 316.3021 405.85 372.0 405.85C427.6979 405.85 472.85 360.6979 472.85 305.0" fill-rule="nonzero"/><path fill="#000000" d="M360.0625 196.19687L360.0625 197.50937Q360.0625 198.55624 359.875 199.275Q359.6875 199.99374 359.32812 200.43124Q358.98438 200.86874 358.48438 201.07187Q358.0 201.275 357.375 201.275Q356.89062 201.275 356.46875 201.15Q356.04688 201.025 355.71875 200.75937Q355.39062 200.47812 355.15625 200.04062Q354.92188 199.60312 354.79688 198.97812Q354.67188 198.3375 354.67188 197.50937L354.67188 196.19687Q354.67188 195.15 354.85938 194.44687Q355.0625 193.74374 355.40625 193.30624Q355.76562 192.86874 356.25 192.68124Q356.75 192.49374 357.35938 192.49374Q357.85938 192.49374 358.28125 192.61874Q358.70312 192.74374 359.03125 193.00937Q359.35938 193.25937 359.57812 193.69687Q359.8125 194.11874 359.9375 194.74374Q360.0625 195.36874 360.0625 196.19687ZM358.96875 197.68124L358.96875 196.025Q358.96875 195.44687 358.90625 195.00937Q358.84375 194.57187 358.70312 194.25937Q358.57812 193.94687 358.375 193.75937Q358.1875 193.57187 357.9375 193.47812Q357.6875 193.38437 357.35938 193.38437Q356.98438 193.38437 356.67188 193.525Q356.375 193.66562 356.17188 193.97812Q355.96875 194.29062 355.85938 194.80624Q355.76562 195.30624 355.76562 196.025L355.76562 197.68124Q355.76562 198.25937 355.82812 198.69687Q355.90625 199.13437 356.03125 199.4625Q356.17188 199.775 356.35938 199.97812Q356.5625 200.18124 356.8125 200.275Q357.0625 200.36874 357.375 200.36874Q357.78125 200.36874 358.07812 200.22812Q358.375 200.07187 358.57812 199.74374Q358.78125 199.41562 358.875 198.91562Q358.96875 198.4 358.96875 197.68124ZM362.8125 199.85312L362.8125 200.72812Q362.8125 201.275 362.53125 201.86874Q362.26562 202.4625 361.78125 202.85312L361.17188 202.43124Q361.35938 202.16562 361.48438 201.9Q361.60938 201.63437 361.67188 201.35312Q361.75 201.07187 361.75 200.74374L361.75 199.85312L362.8125 199.85312ZM369.29688 200.25937L369.29688 201.15L363.71875 201.15L363.71875 200.36874L366.51562 197.25937Q367.03125 196.68124 367.3125 196.29062Q367.59375 195.88437 367.70312 195.57187Q367.82812 195.24374 367.82812 194.91562Q367.82812 194.49374 367.65625 194.15Q367.48438 193.80624 367.14062 193.60312Q366.8125 193.38437 366.32812 193.38437Q365.76562 193.38437 365.39062 193.61874Q365.01562 193.8375 364.82812 194.22812Q364.64062 194.61874 364.64062 195.11874L363.54688 195.11874Q363.54688 194.4 363.85938 193.80624Q364.1875 193.2125 364.79688 192.85312Q365.42188 192.49374 366.32812 192.49374Q367.14062 192.49374 367.71875 192.79062Q368.29688 193.07187 368.59375 193.5875Q368.90625 194.0875 368.90625 194.775Q368.90625 195.15 368.78125 195.54062Q368.65625 195.91562 368.4375 196.30624Q368.21875 196.68124 367.92188 197.05624Q367.64062 197.41562 367.3125 197.775L365.01562 200.25937L369.29688 200.25937Z" fill-rule="nonzero"/><path stroke="#cccccc" stroke-width="1.0" stroke-linecap="butt" d="M523.275 305.0C523.275 221.45312 455.54688 153.725 372.0 153.725C288.45312 153.725 220.725 221.45312 220.725 305.0C220.725 388.54688 288.45312 456.275 372.0 456.275C455.54688 456.275 523.275 388.54688 523.275 305.0" fill-rule="nonzero"/><path fill="#000000" d="M360.0625 145.77188L360.0625 147.08438Q360.0625 148.13126 359.875 148.85Q359.6875 149.56876 359.32812 150.00626Q358.98438 150.44376 358.48438 150.64688Q358.0 150.85 357.375 150.85Q356.89062 150.85 356.46875 150.725Q356.04688 150.6 355.71875 150.33438Q355.39062 150.05313 355.15625 149.61563Q354.92188 149.17813 354.79688 148.55313Q354.67188 147.9125 354.67188 147.08438L354.67188 145.77188Q354.67188 144.725 354.85938 144.02188Q355.0625 143.31876 355.40625 142.88126Q355.76562 142.44376 356.25 142.25626Q356.75 142.06876 357.35938 142.06876Q357.85938 142.06876 358.28125 142.19376Q358.70312 142.31876 359.03125 142.58438Q359.35938 142.83438 359.57812 143.27188Q359.8125 143.69376 359.9375 144.31876Q360.0625 144.94376 360.0625 145.77188ZM358.96875 147.25626L358.96875 145.6Q358.96875 145.02188 358.90625 144.58438Q358.84375 144.14688 358.70312 143.83438Q358.57812 143.52188 358.375 143.33438Q358.1875 143.14688 357.9375 143.05313Q357.6875 142.95938 357.35938 142.95938Q356.98438 142.95938 356.67188 143.1Q356.375 143.24063 356.17188 143.55313Q355.96875 143.86563 355.85938 144.38126Q355.76562 144.88126 355.76562 145.6L355.76562 147.25626Q355.76562 147.83438 355.82812 148.27188Q355.90625 148.70938 356.03125 149.0375Q356.17188 149.35 356.35938 149.55313Q356.5625 149.75626 356.8125 149.85Q357.0625 149.94376 357.375 149.94376Q357.78125 149.94376 358.07812 149.80313Q358.375 149.64688 358.57812 149.31876Q358.78125 148.99063 358.875 148.49063Q358.96875 147.975 358.96875 147.25626ZM362.8125 149.42813L362.8125 150.30313Q362.8125 150.85 362.53125 151.44376Q362.26562 152.0375 361.78125 152.42813L361.17188 152.00626Q361.35938 151.74063 361.48438 151.475Q361.60938 151.20938 361.67188 150.92813Q361.75 150.64688 361.75 150.31876L361.75 149.42813L362.8125 149.42813ZM365.29688 145.92813L366.0625 145.92813Q366.64062 145.92813 367.0 145.74063Q367.375 145.5375 367.5625 145.20938Q367.75 144.88126 367.75 144.45938Q367.75 143.975 367.57812 143.64688Q367.42188 143.30313 367.09375 143.13126Q366.76562 142.95938 366.26562 142.95938Q365.79688 142.95938 365.45312 143.14688Q365.10938 143.31876 364.90625 143.64688Q364.71875 143.975 364.71875 144.42813L363.625 144.42813Q363.625 143.77188 363.95312 143.24063Q364.28125 142.70938 364.875 142.39688Q365.46875 142.06876 366.26562 142.06876Q367.03125 142.06876 367.60938 142.35Q368.1875 142.61563 368.51562 143.1625Q368.84375 143.69376 368.84375 144.49063Q368.84375 144.81876 368.6875 145.17813Q368.53125 145.5375 368.21875 145.86563Q367.90625 146.17813 367.40625 146.38126Q366.92188 146.58438 366.21875 146.58438L365.29688 146.58438L365.29688 145.92813ZM365.29688 146.81876L365.29688 146.1625L366.21875 146.1625Q367.03125 146.1625 367.5625 146.36563Q368.09375 146.55313 368.40625 146.88126Q368.71875 147.19376 368.84375 147.58438Q368.96875 147.95938 368.96875 148.35Q368.96875 148.94376 368.76562 149.4125Q368.5625 149.86563 368.1875 150.19376Q367.82812 150.50626 367.32812 150.67813Q366.84375 150.85 366.26562 150.85Q365.70312 150.85 365.21875 150.69376Q364.73438 150.52188 364.35938 150.225Q363.98438 149.92813 363.76562 149.49063Q363.5625 149.0375 363.5625 148.475L364.64062 148.475Q364.64062 148.9125 364.82812 149.25626Q365.03125 149.58438 365.39062 149.77188Q365.76562 149.94376 366.26562 149.94376Q366.76562 149.94376 367.125 149.77188Q367.48438 149.6 367.67188 149.25626Q367.875 148.89688 367.875 148.36563Q367.875 147.83438 367.65625 147.49063Q367.4375 147.14688 367.01562 146.99063Q366.60938 146.81876 366.0625 146.81876L365.29688 146.81876Z" fill-rule="nonzero"/><path stroke="#cccccc" stroke-width="1.0" stroke-linecap="butt" d="M573.7 305.0C573.7 193.60417 483.39584 103.3 372.0 103.3C260.60416 103.3 170.3 193.60417 170.3 305.0C170.3 416.39584 260.60416 506.7 372.0 506.7C483.39584 506.7 573.7 416.39584 573.7 305.0" fill-rule="nonzero"/><path fill="#000000" d="M360.0625 95.34688L360.0625 96.65938Q360.0625 97.70625 359.875 98.425Q359.6875 99.14375 359.32812 99.58125Q358.98438 100.01875 358.48438 100.22188Q358.0 100.425 357.375 100.425Q356.89062 100.425 356.46875 100.3Q356.04688 100.175 355.71875 99.90938Q355.39062 99.62813 355.15625 99.19063Q354.92188 98.75313 354.79688 98.12813Q354.67188 97.4875 354.67188 96.65938L354.67188 95.34688Q354.67188 94.3 354.85938 93.59688Q355.0625 92.89375 355.40625 92.45625Q355.76562 92.01875 356.25 91.83125Q356.75 91.64375 357.35938 91.64375Q357.85938 91.64375 358.28125 91.76875Q358.70312 91.89375 359.03125 92.15938Q359.35938 92.40938 359.57812 92.84688Q359.8125 93.26875 359.9375 93.89375Q360.0625 94.51875 360.0625 95.34688ZM358.96875 96.83125L358.96875 95.175Q358.96875 94.59688 358.90625 94.15938Q358.84375 93.72188 358.70312 93.40938Q358.57812 93.09688 358.375 92.90938Q358.1875 92.72188 357.9375 92.62813Q357.6875 92.53438 357.35938 92.53438Q356.98438 92.53438 356.67188 92.675Q356.375 92.81563 356.17188 93.12813Q355.96875 93.44063 355.85938 93.95625Q355.76562 94.45625 355.76562 95.175L355.76562 96.83125Q355.76562 97.40938 355.82812 97.84688Q355.90625 98.28438 356.03125 98.6125Q356.17188 98.925 356.35938 99.12813Q356.5625 99.33125 356.8125 99.425Q357.0625 99.51875 357.375 99.51875Q357.78125 99.51875 358.07812 99.37813Q358.375 99.22188 358.57812 98.89375Q358.78125 98.56563 358.875 98.06563Q358.96875 97.55 358.96875 96.83125ZM362.8125 99.00313L362.8125 99.87813Q362.8125 100.425 362.53125 101.01875Q362.26562 101.6125 361.78125 102.00313L361.17188 101.58125Q361.35938 101.31563 361.48438 101.05Q361.60938 100.78438 361.67188 100.50313Q361.75 100.22188 361.75 99.89375L361.75 99.00313L362.8125 99.00313ZM369.46875 97.425L369.46875 98.31563L363.3125 98.31563L363.3125 97.675L367.125 91.76875L368.01562 91.76875L367.0625 93.47188L364.54688 97.425L369.46875 97.425ZM368.28125 91.76875L368.28125 100.3L367.20312 100.3L367.20312 91.76875L368.28125 91.76875Z" fill-rule="nonzero"/><path stroke="#cccccc" stroke-width="1.0" stroke-linecap="butt" d="M372.0 305.0L372.0 103.0" fill-rule="nonzero"/><path fill="#000000" d="M342.64062 79.78125L343.76562 79.78125Q343.67188 80.59375 343.29688 81.234375Q342.92188 81.875 342.23438 82.25Q341.5625 82.625 340.53125 82.625Q339.78125 82.625 339.17188 82.34375Q338.5625 82.046875 338.10938 81.53125Q337.67188 81.015625 337.4375 80.296875Q337.20312 79.5625 337.20312 78.65625L337.20312 77.8125Q337.20312 76.921875 337.4375 76.1875Q337.67188 75.453125 338.125 74.9375Q338.57812 74.40625 339.20312 74.125Q339.84375 73.84375 340.625 73.84375Q341.59375 73.84375 342.26562 74.21875Q342.9375 74.578125 343.29688 75.21875Q343.67188 75.859375 343.76562 76.703125L342.64062 76.703125Q342.5625 76.109375 342.32812 75.6875Q342.10938 75.25 341.70312 75.015625Q341.29688 74.78125 340.625 74.78125Q340.0625 74.78125 339.625 75.0Q339.20312 75.203125 338.90625 75.609375Q338.625 76.0 338.46875 76.5625Q338.32812 77.125 338.32812 77.796875L338.32812 78.65625Q338.32812 79.28125 338.45312 79.84375Q338.59375 80.390625 338.85938 80.8125Q339.125 81.21875 339.54688 81.46875Q339.96875 81.703125 340.53125 81.703125Q341.25 81.703125 341.67188 81.46875Q342.10938 81.234375 342.32812 80.8125Q342.54688 80.390625 342.64062 79.78125ZM349.0625 81.421875L349.0625 78.15625Q349.0625 77.78125 348.90625 77.5Q348.76562 77.21875 348.46875 77.078125Q348.17188 76.921875 347.73438 76.921875Q347.3125 76.921875 347.0 77.0625Q346.70312 77.203125 346.53125 77.4375Q346.35938 77.65625 346.35938 77.921875L345.28125 77.921875Q345.28125 77.578125 345.45312 77.25Q345.625 76.90625 345.95312 76.640625Q346.28125 76.359375 346.75 76.203125Q347.21875 76.046875 347.79688 76.046875Q348.48438 76.046875 349.01562 76.28125Q349.54688 76.515625 349.84375 76.984375Q350.15625 77.453125 350.15625 78.15625L350.15625 81.109375Q350.15625 81.4375 350.20312 81.796875Q350.26562 82.140625 350.375 82.40625L350.375 82.5L349.23438 82.5Q349.15625 82.3125 349.10938 82.0Q349.0625 81.6875 349.0625 81.421875ZM349.25 78.65625L349.26562 79.421875L348.17188 79.421875Q347.70312 79.421875 347.34375 79.5Q346.98438 79.5625 346.73438 79.71875Q346.48438 79.859375 346.35938 80.078125Q346.23438 80.296875 346.23438 80.59375Q346.23438 80.890625 346.35938 81.140625Q346.5 81.375 346.76562 81.53125Q347.04688 81.671875 347.4375 81.671875Q347.9375 81.671875 348.3125 81.46875Q348.70312 81.25 348.92188 80.953125Q349.15625 80.640625 349.17188 80.34375L349.64062 80.875Q349.59375 81.109375 349.40625 81.421875Q349.23438 81.71875 348.92188 82.0Q348.625 82.265625 348.20312 82.453125Q347.79688 82.625 347.28125 82.625Q346.64062 82.625 346.15625 82.375Q345.67188 82.109375 345.40625 81.6875Q345.14062 81.265625 345.14062 80.734375Q345.14062 80.21875 345.32812 79.84375Q345.53125 79.453125 345.90625 79.1875Q346.28125 78.921875 346.8125 78.796875Q347.34375 78.65625 348.0 78.65625L349.25 78.65625ZM353.40625 77.15625L353.40625 82.5L352.32812 82.5L352.32812 76.15625L353.375 76.15625L353.40625 77.15625ZM355.39062 76.125L355.39062 77.125Q355.25 77.109375 355.125 77.09375Q355.01562 77.078125 354.85938 77.078125Q354.48438 77.078125 354.1875 77.203125Q353.90625 77.3125 353.70312 77.53125Q353.51562 77.734375 353.39062 78.03125Q353.28125 78.328125 353.25 78.671875L352.9375 78.84375Q352.9375 78.265625 353.04688 77.765625Q353.17188 77.265625 353.40625 76.875Q353.65625 76.484375 354.01562 76.265625Q354.39062 76.046875 354.90625 76.046875Q355.03125 76.046875 355.17188 76.078125Q355.32812 76.09375 355.39062 76.125ZM358.10938 81.84375L359.875 76.15625L361.03125 76.15625L358.48438 83.484375Q358.40625 83.71875 358.25 83.984375Q358.10938 84.265625 357.89062 84.5Q357.67188 84.75 357.35938 84.90625Q357.04688 85.0625 356.60938 85.0625Q356.48438 85.0625 356.28125 85.015625Q356.07812 84.984375 356.0 84.96875L356.0 84.09375Q356.04688 84.09375 356.14062 84.09375Q356.25 84.109375 356.28125 84.109375Q356.65625 84.109375 356.90625 84.015625Q357.17188 83.921875 357.34375 83.6875Q357.53125 83.46875 357.65625 83.078125L358.10938 81.84375ZM356.8125 76.15625L358.45312 81.078125L358.73438 82.21875L357.96875 82.625L355.625 76.15625L356.8125 76.15625ZM362.04688 79.40625L362.04688 79.265625Q362.04688 78.578125 362.23438 78.0Q362.4375 77.40625 362.8125 76.96875Q363.1875 76.53125 363.71875 76.296875Q364.25 76.046875 364.92188 76.046875Q365.57812 76.046875 366.10938 76.296875Q366.65625 76.53125 367.03125 76.96875Q367.40625 77.40625 367.60938 78.0Q367.8125 78.578125 367.8125 79.265625L367.8125 79.40625Q367.8125 80.078125 367.60938 80.671875Q367.40625 81.25 367.03125 81.6875Q366.65625 82.125 366.125 82.375Q365.59375 82.625 364.92188 82.625Q364.26562 82.625 363.71875 82.375Q363.1875 82.125 362.8125 81.6875Q362.4375 81.25 362.23438 80.671875Q362.04688 80.078125 362.04688 79.40625ZM363.125 79.265625L363.125 79.40625Q363.125 79.875 363.23438 80.296875Q363.34375 80.71875 363.5625 81.046875Q363.79688 81.359375 364.14062 81.546875Q364.48438 81.71875 364.92188 81.71875Q365.375 81.71875 365.70312 81.546875Q366.04688 81.359375 366.26562 81.046875Q366.5 80.71875 366.60938 80.296875Q366.71875 79.875 366.71875 79.40625L366.71875 79.265625Q366.71875 78.796875 366.60938 78.375Q366.5 77.953125 366.26562 77.640625Q366.04688 77.3125 365.70312 77.125Q365.375 76.9375 364.92188 76.9375Q364.46875 76.9375 364.125 77.125Q363.79688 77.3125 363.5625 77.640625Q363.34375 77.953125 363.23438 78.375Q363.125 78.796875 363.125 79.265625ZM370.40625 77.375L370.40625 84.9375L369.32812 84.9375L369.32812 76.15625L370.3125 76.15625L370.40625 77.375ZM374.6875 79.28125L374.6875 79.40625Q374.6875 80.09375 374.51562 80.6875Q374.35938 81.265625 374.04688 81.703125Q373.73438 82.140625 373.26562 82.390625Q372.8125 82.625 372.21875 82.625Q371.625 82.625 371.15625 82.421875Q370.6875 82.21875 370.35938 81.84375Q370.04688 81.453125 369.85938 80.921875Q369.67188 80.390625 369.59375 79.71875L369.59375 79.0625Q369.67188 78.359375 369.85938 77.8125Q370.04688 77.25 370.35938 76.859375Q370.6875 76.453125 371.14062 76.25Q371.60938 76.046875 372.20312 76.046875Q372.79688 76.046875 373.26562 76.28125Q373.73438 76.5 374.04688 76.9375Q374.35938 77.359375 374.51562 77.953125Q374.6875 78.546875 374.6875 79.28125ZM373.59375 79.40625L373.59375 79.28125Q373.59375 78.796875 373.48438 78.390625Q373.39062 77.96875 373.1875 77.65625Q372.98438 77.328125 372.65625 77.140625Q372.32812 76.953125 371.89062 76.953125Q371.48438 76.953125 371.17188 77.09375Q370.875 77.234375 370.65625 77.484375Q370.45312 77.71875 370.3125 78.015625Q370.1875 78.3125 370.125 78.640625L370.125 80.15625Q370.23438 80.5625 370.4375 80.921875Q370.65625 81.28125 371.0 81.5Q371.35938 81.71875 371.90625 81.71875Q372.34375 81.71875 372.65625 81.546875Q372.98438 81.359375 373.1875 81.046875Q373.39062 80.71875 373.48438 80.296875Q373.59375 79.875 373.59375 79.40625ZM377.40625 73.5L377.40625 82.5L376.32812 82.5L376.32812 73.5L377.40625 73.5ZM377.15625 79.09375L376.70312 79.078125Q376.70312 78.421875 376.89062 77.875Q377.07812 77.3125 377.42188 76.90625Q377.76562 76.5 378.23438 76.28125Q378.70312 76.046875 379.28125 76.046875Q379.75 76.046875 380.125 76.171875Q380.5 76.296875 380.76562 76.578125Q381.03125 76.84375 381.17188 77.28125Q381.3125 77.71875 381.3125 78.34375L381.3125 82.5L380.21875 82.5L380.21875 78.328125Q380.21875 77.828125 380.07812 77.53125Q379.9375 77.234375 379.65625 77.09375Q379.375 76.953125 378.95312 76.953125Q378.54688 76.953125 378.21875 77.125Q377.89062 77.296875 377.65625 77.59375Q377.42188 77.890625 377.28125 78.28125Q377.15625 78.65625 377.15625 79.09375ZM385.10938 81.84375L386.875 76.15625L388.03125 76.15625L385.48438 83.484375Q385.40625 83.71875 385.25 83.984375Q385.10938 84.265625 384.89062 84.5Q384.67188 84.75 384.35938 84.90625Q384.04688 85.0625 383.60938 85.0625Q383.48438 85.0625 383.28125 85.015625Q383.07812 84.984375 383.0 84.96875L383.0 84.09375Q383.04688 84.09375 383.14062 84.09375Q383.25 84.109375 383.28125 84.109375Q383.65625 84.109375 383.90625 84.015625Q384.17188 83.921875 384.34375 83.6875Q384.53125 83.46875 384.65625 83.078125L385.10938 81.84375ZM383.8125 76.15625L385.45312 81.078125L385.73438 82.21875L384.96875 82.625L382.625 76.15625L383.8125 76.15625ZM390.5 73.5L390.5 82.5L389.42188 82.5L389.42188 73.5L390.5 73.5ZM393.5 73.5L393.5 82.5L392.42188 82.5L392.42188 73.5L393.5 73.5ZM397.95312 82.625Q397.29688 82.625 396.75 82.40625Q396.21875 82.171875 395.82812 81.765625Q395.45312 81.34375 395.25 80.78125Q395.04688 80.21875 395.04688 79.546875L395.04688 79.3125Q395.04688 78.53125 395.26562 77.921875Q395.5 77.3125 395.89062 76.890625Q396.28125 76.46875 396.78125 76.265625Q397.28125 76.046875 397.8125 76.046875Q398.5 76.046875 398.98438 76.28125Q399.48438 76.515625 399.79688 76.9375Q400.125 77.34375 400.26562 77.921875Q400.42188 78.484375 400.42188 79.140625L400.42188 79.640625L395.6875 79.640625L395.6875 78.75L399.34375 78.75L399.34375 78.671875Q399.3125 78.25 399.15625 77.859375Q399.01562 77.453125 398.6875 77.203125Q398.375 76.9375 397.8125 76.9375Q397.45312 76.9375 397.14062 77.09375Q396.82812 77.25 396.59375 77.5625Q396.375 77.859375 396.25 78.296875Q396.14062 78.734375 396.14062 79.3125L396.14062 79.546875Q396.14062 80.0 396.26562 80.40625Q396.39062 80.796875 396.625 81.09375Q396.875 81.390625 397.21875 81.5625Q397.57812 81.734375 398.01562 81.734375Q398.59375 81.734375 398.98438 81.5Q399.39062 81.265625 399.6875 80.875L400.34375 81.390625Q400.14062 81.703125 399.8125 81.984375Q399.5 82.265625 399.03125 82.453125Q398.57812 82.625 397.95312 82.625ZM402.40625 77.515625L402.40625 82.5L401.32812 82.5L401.32812 76.15625L402.35938 76.15625L402.40625 77.515625ZM402.15625 79.09375L401.70312 79.078125Q401.70312 78.421875 401.89062 77.875Q402.07812 77.3125 402.42188 76.90625Q402.76562 76.5 403.23438 76.28125Q403.70312 76.046875 404.28125 76.046875Q404.75 76.046875 405.125 76.171875Q405.5 76.296875 405.76562 76.578125Q406.03125 76.84375 406.17188 77.28125Q406.3125 77.71875 406.3125 78.34375L406.3125 82.5L405.21875 82.5L405.21875 78.328125Q405.21875 77.828125 405.07812 77.53125Q404.9375 77.234375 404.65625 77.09375Q404.375 76.953125 403.95312 76.953125Q403.54688 76.953125 403.21875 77.125Q402.89062 77.296875 402.65625 77.59375Q402.42188 77.890625 402.28125 78.28125Q402.15625 78.65625 402.15625 79.09375Z" fill-rule="nonzero"/><path stroke="#cccccc" stroke-width="1.0" stroke-linecap="butt" d="M372.0 305.0L547.0 204.0" fill-rule="nonzero"/><path fill="#000000" d="M546.53125 191.67188L547.3906 191.67188Q548.2031 191.67188 548.7656 191.98438Q549.34375 192.28125 549.6406 192.8125Q549.9531 193.34375 549.9531 194.01562Q549.9531 194.84375 549.6094 195.42188Q549.2656 196.0 548.6719 196.3125Q548.0781 196.625 547.2969 196.625Q546.84375 196.625 546.3906 196.5Q545.9375 196.35938 545.5625 196.09375Q545.2031 195.82812 544.9844 195.40625Q544.7656 194.98438 544.7656 194.40625L545.1875 194.15625Q545.1875 194.59375 545.4375 194.95312Q545.7031 195.29688 546.1406 195.51562Q546.59375 195.73438 547.1875 195.73438Q547.71875 195.73438 548.09375 195.51562Q548.46875 195.29688 548.6719 194.92188Q548.875 194.53125 548.875 194.03125Q548.875 193.625 548.6875 193.25Q548.5156 192.85938 548.1875 192.60938Q547.8594 192.35938 547.375 192.35938L546.53125 192.35938L546.53125 191.67188ZM547.0469 187.84375Q547.8125 187.84375 548.375 188.14062Q548.9375 188.4375 549.2344 188.95312Q549.5469 189.46875 549.5469 190.14062Q549.5469 190.70312 549.2344 191.17188Q548.9375 191.625 548.375 191.90625Q547.8125 192.17188 547.0469 192.17188L546.53125 192.17188L546.53125 191.46875L547.03125 191.46875Q547.5469 191.46875 547.8594 191.29688Q548.1719 191.125 548.3125 190.82812Q548.46875 190.51562 548.46875 190.125Q548.46875 189.76562 548.3125 189.45312Q548.15625 189.14062 547.84375 188.9375Q547.53125 188.73438 547.0469 188.73438Q546.625 188.73438 546.28125 188.9375Q545.9375 189.125 545.7344 189.46875Q545.53125 189.79688 545.53125 190.21875L545.53125 198.75L544.4375 198.75L544.4375 190.21875Q544.4375 189.5625 544.7969 189.03125Q545.15625 188.48438 545.75 188.17188Q546.34375 187.84375 547.0469 187.84375ZM553.5781 192.42188L553.5781 193.3125L550.71875 193.3125L550.71875 192.42188L553.5781 192.42188ZM554.84375 187.96875L555.9375 187.96875L558.7344 194.92188L561.53125 187.96875L562.625 187.96875L559.15625 196.5L558.3125 196.5L554.84375 187.96875ZM554.4844 187.96875L555.4531 187.96875L555.6094 193.17188L555.6094 196.5L554.4844 196.5L554.4844 187.96875ZM562.0156 187.96875L562.9844 187.96875L562.9844 196.5L561.8594 196.5L561.8594 193.17188L562.0156 187.96875ZM566.1094 195.84375L567.875 190.15625L569.03125 190.15625L566.4844 197.48438Q566.40625 197.71875 566.25 197.98438Q566.1094 198.26562 565.8906 198.5Q565.6719 198.75 565.3594 198.90625Q565.0469 199.0625 564.6094 199.0625Q564.4844 199.0625 564.28125 199.01562Q564.0781 198.98438 564.0 198.96875L564.0 198.09375Q564.0469 198.09375 564.1406 198.09375Q564.25 198.10938 564.28125 198.10938Q564.65625 198.10938 564.90625 198.01562Q565.1719 197.92188 565.34375 197.6875Q565.53125 197.46875 565.65625 197.07812L566.1094 195.84375ZM564.8125 190.15625L566.4531 195.07812L566.7344 196.21875L565.96875 196.625L563.625 190.15625L564.8125 190.15625ZM571.40625 191.15625L571.40625 196.5L570.3281 196.5L570.3281 190.15625L571.375 190.15625L571.40625 191.15625ZM573.3906 190.125L573.3906 191.125Q573.25 191.10938 573.125 191.09375Q573.0156 191.07812 572.8594 191.07812Q572.4844 191.07812 572.1875 191.20312Q571.90625 191.3125 571.7031 191.53125Q571.5156 191.73438 571.3906 192.03125Q571.28125 192.32812 571.25 192.67188L570.9375 192.84375Q570.9375 192.26562 571.0469 191.76562Q571.1719 191.26562 571.40625 190.875Q571.65625 190.48438 572.0156 190.26562Q572.3906 190.04688 572.90625 190.04688Q573.03125 190.04688 573.1719 190.07812Q573.3281 190.09375 573.3906 190.125ZM576.8594 195.71875Q577.25 195.71875 577.5781 195.5625Q577.90625 195.40625 578.1094 195.14062Q578.3281 194.85938 578.3594 194.5L579.3906 194.5Q579.3594 195.0625 579.0 195.54688Q578.65625 196.03125 578.09375 196.32812Q577.53125 196.625 576.8594 196.625Q576.15625 196.625 575.625 196.375Q575.09375 196.10938 574.7344 195.67188Q574.3906 195.23438 574.21875 194.67188Q574.0469 194.09375 574.0469 193.45312L574.0469 193.20312Q574.0469 192.5625 574.21875 192.0Q574.3906 191.42188 574.7344 190.98438Q575.09375 190.54688 575.625 190.29688Q576.15625 190.04688 576.8594 190.04688Q577.6094 190.04688 578.15625 190.34375Q578.71875 190.64062 579.03125 191.17188Q579.3594 191.6875 579.3906 192.34375L578.3594 192.34375Q578.3281 191.95312 578.1406 191.64062Q577.9531 191.3125 577.625 191.125Q577.2969 190.9375 576.8594 190.9375Q576.3594 190.9375 576.0156 191.14062Q575.6875 191.32812 575.4844 191.65625Q575.2969 191.98438 575.2031 192.39062Q575.125 192.79688 575.125 193.20312L575.125 193.45312Q575.125 193.875 575.2031 194.28125Q575.2969 194.67188 575.4844 195.0Q575.6875 195.32812 576.0156 195.53125Q576.3594 195.71875 576.8594 195.71875ZM582.9531 196.625Q582.2969 196.625 581.75 196.40625Q581.21875 196.17188 580.8281 195.76562Q580.4531 195.34375 580.25 194.78125Q580.0469 194.21875 580.0469 193.54688L580.0469 193.3125Q580.0469 192.53125 580.2656 191.92188Q580.5 191.3125 580.8906 190.89062Q581.28125 190.46875 581.78125 190.26562Q582.28125 190.04688 582.8125 190.04688Q583.5 190.04688 583.9844 190.28125Q584.4844 190.51562 584.7969 190.9375Q585.125 191.34375 585.2656 191.92188Q585.4219 192.48438 585.4219 193.14062L585.4219 193.64062L580.6875 193.64062L580.6875 192.75L584.34375 192.75L584.34375 192.67188Q584.3125 192.25 584.15625 191.85938Q584.0156 191.45312 583.6875 191.20312Q583.375 190.9375 582.8125 190.9375Q582.4531 190.9375 582.1406 191.09375Q581.8281 191.25 581.59375 191.5625Q581.375 191.85938 581.25 192.29688Q581.1406 192.73438 581.1406 193.3125L581.1406 193.54688Q581.1406 194.0 581.2656 194.40625Q581.3906 194.79688 581.625 195.09375Q581.875 195.39062 582.21875 195.5625Q582.5781 195.73438 583.0156 195.73438Q583.59375 195.73438 583.9844 195.5Q584.3906 195.26562 584.6875 194.875L585.34375 195.39062Q585.1406 195.70312 584.8125 195.98438Q584.5 196.26562 584.03125 196.45312Q583.5781 196.625 582.9531 196.625ZM587.40625 191.51562L587.40625 196.5L586.3281 196.5L586.3281 190.15625L587.3594 190.15625L587.40625 191.51562ZM587.15625 193.09375L586.7031 193.07812Q586.7031 192.42188 586.8906 191.875Q587.0781 191.3125 587.4219 190.90625Q587.7656 190.5 588.2344 190.28125Q588.7031 190.04688 589.28125 190.04688Q589.75 190.04688 590.125 190.17188Q590.5 190.29688 590.7656 190.57812Q591.03125 190.84375 591.1719 191.28125Q591.3125 191.71875 591.3125 192.34375L591.3125 196.5L590.21875 196.5L590.21875 192.32812Q590.21875 191.82812 590.0781 191.53125Q589.9375 191.23438 589.65625 191.09375Q589.375 190.95312 588.9531 190.95312Q588.5469 190.95312 588.21875 191.125Q587.8906 191.29688 587.65625 191.59375Q587.4219 191.89062 587.28125 192.28125Q587.15625 192.65625 587.15625 193.09375Z" fill-rule="nonzero"/><path stroke="#cccccc" stroke-width="1.0" stroke-linecap="butt" d="M372.0 305.0L547.0 406.0" fill-rule="nonzero"/><path fill="#000000" d="M542.2969 422.5L540.5156 422.5L540.53125 421.57812L542.2969 421.57812Q543.21875 421.57812 543.8281 421.20312Q544.4375 420.8125 544.7344 420.125Q545.0469 419.42188 545.0469 418.48438L545.0469 417.96875Q545.0469 417.23438 544.875 416.67188Q544.7031 416.09375 544.3594 415.70312Q544.0156 415.29688 543.5156 415.09375Q543.03125 414.89062 542.40625 414.89062L540.4844 414.89062L540.4844 413.96875L542.40625 413.96875Q543.25 413.96875 543.9375 414.25Q544.625 414.53125 545.125 415.0625Q545.625 415.57812 545.8906 416.32812Q546.1719 417.0625 546.1719 417.98438L546.1719 418.48438Q546.1719 419.42188 545.8906 420.17188Q545.625 420.90625 545.1094 421.42188Q544.6094 421.9375 543.8906 422.21875Q543.1875 422.5 542.2969 422.5ZM541.125 413.96875L541.125 422.5L539.9844 422.5L539.9844 413.96875L541.125 413.96875ZM550.0781 418.42188L550.0781 419.3125L547.21875 419.3125L547.21875 418.42188L550.0781 418.42188ZM556.1719 421.57812L556.1719 422.5L551.90625 422.5L551.90625 421.57812L556.1719 421.57812ZM552.125 413.96875L552.125 422.5L550.9844 422.5L550.9844 413.96875L552.125 413.96875ZM558.0 416.15625L558.0 422.5L556.9219 422.5L556.9219 416.15625L558.0 416.15625ZM556.8281 414.48438Q556.8281 414.21875 556.9844 414.03125Q557.15625 413.84375 557.46875 413.84375Q557.78125 413.84375 557.9375 414.03125Q558.1094 414.21875 558.1094 414.48438Q558.1094 414.73438 557.9375 414.92188Q557.78125 415.09375 557.46875 415.09375Q557.15625 415.09375 556.9844 414.92188Q556.8281 414.73438 556.8281 414.48438ZM560.90625 417.42188L560.90625 422.5L559.8125 422.5L559.8125 416.15625L560.84375 416.15625L560.90625 417.42188ZM560.6875 419.09375L560.1719 419.07812Q560.1875 418.42188 560.34375 417.875Q560.5156 417.3125 560.8281 416.90625Q561.15625 416.5 561.6406 416.28125Q562.125 416.04688 562.75 416.04688Q563.2031 416.04688 563.5781 416.17188Q563.9531 416.29688 564.21875 416.5625Q564.5 416.82812 564.6406 417.25Q564.7969 417.67188 564.7969 418.28125L564.7969 422.5L563.71875 422.5L563.71875 418.32812Q563.71875 417.82812 563.5469 417.53125Q563.3906 417.23438 563.0781 417.09375Q562.78125 416.95312 562.3594 416.95312Q561.8906 416.95312 561.5625 417.125Q561.2344 417.29688 561.0469 417.59375Q560.8594 417.89062 560.7656 418.28125Q560.6875 418.65625 560.6875 419.09375ZM564.7969 418.48438L564.0625 418.71875Q564.0625 418.1875 564.2344 417.71875Q564.40625 417.23438 564.71875 416.85938Q565.0469 416.48438 565.5156 416.26562Q565.9844 416.04688 566.5781 416.04688Q567.09375 416.04688 567.4844 416.1875Q567.8906 416.3125 568.15625 416.59375Q568.4219 416.875 568.5625 417.3125Q568.7031 417.73438 568.7031 418.32812L568.7031 422.5L567.625 422.5L567.625 418.32812Q567.625 417.78125 567.4531 417.5Q567.28125 417.20312 566.9844 417.07812Q566.6875 416.95312 566.2656 416.95312Q565.90625 416.95312 565.625 417.07812Q565.3594 417.20312 565.1719 417.42188Q564.9844 417.625 564.8906 417.90625Q564.7969 418.1875 564.7969 418.48438ZM570.5469 419.40625L570.5469 419.26562Q570.5469 418.57812 570.7344 418.0Q570.9375 417.40625 571.3125 416.96875Q571.6875 416.53125 572.21875 416.29688Q572.75 416.04688 573.4219 416.04688Q574.0781 416.04688 574.6094 416.29688Q575.15625 416.53125 575.53125 416.96875Q575.90625 417.40625 576.1094 418.0Q576.3125 418.57812 576.3125 419.26562L576.3125 419.40625Q576.3125 420.07812 576.1094 420.67188Q575.90625 421.25 575.53125 421.6875Q575.15625 422.125 574.625 422.375Q574.09375 422.625 573.4219 422.625Q572.7656 422.625 572.21875 422.375Q571.6875 422.125 571.3125 421.6875Q570.9375 421.25 570.7344 420.67188Q570.5469 420.07812 570.5469 419.40625ZM571.625 419.26562L571.625 419.40625Q571.625 419.875 571.7344 420.29688Q571.84375 420.71875 572.0625 421.04688Q572.2969 421.35938 572.6406 421.54688Q572.9844 421.71875 573.4219 421.71875Q573.875 421.71875 574.2031 421.54688Q574.5469 421.35938 574.7656 421.04688Q575.0 420.71875 575.1094 420.29688Q575.21875 419.875 575.21875 419.40625L575.21875 419.26562Q575.21875 418.79688 575.1094 418.375Q575.0 417.95312 574.7656 417.64062Q574.5469 417.3125 574.2031 417.125Q573.875 416.9375 573.4219 416.9375Q572.96875 416.9375 572.625 417.125Q572.2969 417.3125 572.0625 417.64062Q571.84375 417.95312 571.7344 418.375Q571.625 418.79688 571.625 419.26562ZM578.90625 417.51562L578.90625 422.5L577.8281 422.5L577.8281 416.15625L578.8594 416.15625L578.90625 417.51562ZM578.65625 419.09375L578.2031 419.07812Q578.2031 418.42188 578.3906 417.875Q578.5781 417.3125 578.9219 416.90625Q579.2656 416.5 579.7344 416.28125Q580.2031 416.04688 580.78125 416.04688Q581.25 416.04688 581.625 416.17188Q582.0 416.29688 582.2656 416.57812Q582.53125 416.84375 582.6719 417.28125Q582.8125 417.71875 582.8125 418.34375L582.8125 422.5L581.71875 422.5L581.71875 418.32812Q581.71875 417.82812 581.5781 417.53125Q581.4375 417.23438 581.15625 417.09375Q580.875 416.95312 580.4531 416.95312Q580.0469 416.95312 579.71875 417.125Q579.3906 417.29688 579.15625 417.59375Q578.9219 417.89062 578.78125 418.28125Q578.65625 418.65625 578.65625 419.09375ZM587.4531 422.625Q586.7969 422.625 586.25 422.40625Q585.71875 422.17188 585.3281 421.76562Q584.9531 421.34375 584.75 420.78125Q584.5469 420.21875 584.5469 419.54688L584.5469 419.3125Q584.5469 418.53125 584.7656 417.92188Q585.0 417.3125 585.3906 416.89062Q585.78125 416.46875 586.28125 416.26562Q586.78125 416.04688 587.3125 416.04688Q588.0 416.04688 588.4844 416.28125Q588.9844 416.51562 589.2969 416.9375Q589.625 417.34375 589.7656 417.92188Q589.9219 418.48438 589.9219 419.14062L589.9219 419.64062L585.1875 419.64062L585.1875 418.75L588.84375 418.75L588.84375 418.67188Q588.8125 418.25 588.65625 417.85938Q588.5156 417.45312 588.1875 417.20312Q587.875 416.9375 587.3125 416.9375Q586.9531 416.9375 586.6406 417.09375Q586.3281 417.25 586.09375 417.5625Q585.875 417.85938 585.75 418.29688Q585.6406 418.73438 585.6406 419.3125L585.6406 419.54688Q585.6406 420.0 585.7656 420.40625Q585.8906 420.79688 586.125 421.09375Q586.375 421.39062 586.71875 421.5625Q587.0781 421.73438 587.5156 421.73438Q588.09375 421.73438 588.4844 421.5Q588.8906 421.26562 589.1875 420.875L589.84375 421.39062Q589.6406 421.70312 589.3125 421.98438Q589.0 422.26562 588.53125 422.45312Q588.0781 422.625 587.4531 422.625ZM591.90625 417.51562L591.90625 422.5L590.8281 422.5L590.8281 416.15625L591.8594 416.15625L591.90625 417.51562ZM591.65625 419.09375L591.2031 419.07812Q591.2031 418.42188 591.3906 417.875Q591.5781 417.3125 591.9219 416.90625Q592.2656 416.5 592.7344 416.28125Q593.2031 416.04688 593.78125 416.04688Q594.25 416.04688 594.625 416.17188Q595.0 416.29688 595.2656 416.57812Q595.53125 416.84375 595.6719 417.28125Q595.8125 417.71875 595.8125 418.34375L595.8125 422.5L594.71875 422.5L594.71875 418.32812Q594.71875 417.82812 594.5781 417.53125Q594.4375 417.23438 594.15625 417.09375Q593.875 416.95312 593.4531 416.95312Q593.0469 416.95312 592.71875 417.125Q592.3906 417.29688 592.15625 417.59375Q591.9219 417.89062 591.78125 418.28125Q591.65625 418.65625 591.65625 419.09375Z" fill-rule="nonzero"/><path stroke="#cccccc" stroke-width="1.0" stroke-linecap="butt" d="M372.0 305.0L372.0 507.0" fill-rule="nonzero"/><path fill="#000000" d="M356.67188 535.5781L356.67188 536.5L352.40625 536.5L352.40625 535.5781L356.67188 535.5781ZM352.625 527.96875L352.625 536.5L351.48438 536.5L351.48438 527.96875L352.625 527.96875ZM358.5 530.15625L358.5 536.5L357.42188 536.5L357.42188 530.15625L358.5 530.15625ZM357.32812 528.4844Q357.32812 528.21875 357.48438 528.03125Q357.65625 527.84375 357.96875 527.84375Q358.28125 527.84375 358.4375 528.03125Q358.60938 528.21875 358.60938 528.4844Q358.60938 528.7344 358.4375 528.9219Q358.28125 529.09375 357.96875 529.09375Q357.65625 529.09375 357.48438 528.9219Q357.32812 528.7344 357.32812 528.4844ZM361.40625 531.5156L361.40625 536.5L360.32812 536.5L360.32812 530.15625L361.35938 530.15625L361.40625 531.5156ZM361.15625 533.09375L360.70312 533.0781Q360.70312 532.4219 360.89062 531.875Q361.07812 531.3125 361.42188 530.90625Q361.76562 530.5 362.23438 530.28125Q362.70312 530.0469 363.28125 530.0469Q363.75 530.0469 364.125 530.1719Q364.5 530.2969 364.76562 530.5781Q365.03125 530.84375 365.17188 531.28125Q365.3125 531.71875 365.3125 532.34375L365.3125 536.5L364.21875 536.5L364.21875 532.3281Q364.21875 531.8281 364.07812 531.53125Q363.9375 531.2344 363.65625 531.09375Q363.375 530.9531 362.95312 530.9531Q362.54688 530.9531 362.21875 531.125Q361.89062 531.2969 361.65625 531.59375Q361.42188 531.8906 361.28125 532.28125Q361.15625 532.65625 361.15625 533.09375ZM371.0625 535.4219L371.0625 532.15625Q371.0625 531.78125 370.90625 531.5Q370.76562 531.21875 370.46875 531.0781Q370.17188 530.9219 369.73438 530.9219Q369.3125 530.9219 369.0 531.0625Q368.70312 531.2031 368.53125 531.4375Q368.35938 531.65625 368.35938 531.9219L367.28125 531.9219Q367.28125 531.5781 367.45312 531.25Q367.625 530.90625 367.95312 530.6406Q368.28125 530.3594 368.75 530.2031Q369.21875 530.0469 369.79688 530.0469Q370.48438 530.0469 371.01562 530.28125Q371.54688 530.5156 371.84375 530.9844Q372.15625 531.4531 372.15625 532.15625L372.15625 535.1094Q372.15625 535.4375 372.20312 535.7969Q372.26562 536.1406 372.375 536.40625L372.375 536.5L371.23438 536.5Q371.15625 536.3125 371.10938 536.0Q371.0625 535.6875 371.0625 535.4219ZM371.25 532.65625L371.26562 533.4219L370.17188 533.4219Q369.70312 533.4219 369.34375 533.5Q368.98438 533.5625 368.73438 533.71875Q368.48438 533.8594 368.35938 534.0781Q368.23438 534.2969 368.23438 534.59375Q368.23438 534.8906 368.35938 535.1406Q368.5 535.375 368.76562 535.53125Q369.04688 535.6719 369.4375 535.6719Q369.9375 535.6719 370.3125 535.46875Q370.70312 535.25 370.92188 534.9531Q371.15625 534.6406 371.17188 534.34375L371.64062 534.875Q371.59375 535.1094 371.40625 535.4219Q371.23438 535.71875 370.92188 536.0Q370.625 536.2656 370.20312 536.4531Q369.79688 536.625 369.28125 536.625Q368.64062 536.625 368.15625 536.375Q367.67188 536.1094 367.40625 535.6875Q367.14062 535.2656 367.14062 534.7344Q367.14062 534.21875 367.32812 533.84375Q367.53125 533.4531 367.90625 533.1875Q368.28125 532.9219 368.8125 532.7969Q369.34375 532.65625 370.0 532.65625L371.25 532.65625ZM375.5 527.5L375.5 536.5L374.42188 536.5L374.42188 527.5L375.5 527.5ZM377.04688 533.40625L377.04688 533.2656Q377.04688 532.5781 377.23438 532.0Q377.4375 531.40625 377.8125 530.96875Q378.1875 530.53125 378.71875 530.2969Q379.25 530.0469 379.92188 530.0469Q380.57812 530.0469 381.10938 530.2969Q381.65625 530.53125 382.03125 530.96875Q382.40625 531.40625 382.60938 532.0Q382.8125 532.5781 382.8125 533.2656L382.8125 533.40625Q382.8125 534.0781 382.60938 534.6719Q382.40625 535.25 382.03125 535.6875Q381.65625 536.125 381.125 536.375Q380.59375 536.625 379.92188 536.625Q379.26562 536.625 378.71875 536.375Q378.1875 536.125 377.8125 535.6875Q377.4375 535.25 377.23438 534.6719Q377.04688 534.0781 377.04688 533.40625ZM378.125 533.2656L378.125 533.40625Q378.125 533.875 378.23438 534.2969Q378.34375 534.71875 378.5625 535.0469Q378.79688 535.3594 379.14062 535.5469Q379.48438 535.71875 379.92188 535.71875Q380.375 535.71875 380.70312 535.5469Q381.04688 535.3594 381.26562 535.0469Q381.5 534.71875 381.60938 534.2969Q381.71875 533.875 381.71875 533.40625L381.71875 533.2656Q381.71875 532.7969 381.60938 532.375Q381.5 531.9531 381.26562 531.6406Q381.04688 531.3125 380.70312 531.125Q380.375 530.9375 379.92188 530.9375Q379.46875 530.9375 379.125 531.125Q378.79688 531.3125 378.5625 531.6406Q378.34375 531.9531 378.23438 532.375Q378.125 532.7969 378.125 533.2656ZM384.04688 533.40625L384.04688 533.2656Q384.04688 532.5781 384.23438 532.0Q384.4375 531.40625 384.8125 530.96875Q385.1875 530.53125 385.71875 530.2969Q386.25 530.0469 386.92188 530.0469Q387.57812 530.0469 388.10938 530.2969Q388.65625 530.53125 389.03125 530.96875Q389.40625 531.40625 389.60938 532.0Q389.8125 532.5781 389.8125 533.2656L389.8125 533.40625Q389.8125 534.0781 389.60938 534.6719Q389.40625 535.25 389.03125 535.6875Q388.65625 536.125 388.125 536.375Q387.59375 536.625 386.92188 536.625Q386.26562 536.625 385.71875 536.375Q385.1875 536.125 384.8125 535.6875Q384.4375 535.25 384.23438 534.6719Q384.04688 534.0781 384.04688 533.40625ZM385.125 533.2656L385.125 533.40625Q385.125 533.875 385.23438 534.2969Q385.34375 534.71875 385.5625 535.0469Q385.79688 535.3594 386.14062 535.5469Q386.48438 535.71875 386.92188 535.71875Q387.375 535.71875 387.70312 535.5469Q388.04688 535.3594 388.26562 535.0469Q388.5 534.71875 388.60938 534.2969Q388.71875 533.875 388.71875 533.40625L388.71875 533.2656Q388.71875 532.7969 388.60938 532.375Q388.5 531.9531 388.26562 531.6406Q388.04688 531.3125 387.70312 531.125Q387.375 530.9375 386.92188 530.9375Q386.46875 530.9375 386.125 531.125Q385.79688 531.3125 385.5625 531.6406Q385.34375 531.9531 385.23438 532.375Q385.125 532.7969 385.125 533.2656ZM392.5 527.5L392.5 536.5L391.42188 536.5L391.42188 527.5L392.5 527.5Z" fill-rule="nonzero"/><path stroke="#cccccc" stroke-width="1.0" stroke-linecap="butt" d="M372.0 305.0L197.0 406.0" fill-rule="nonzero"/><path fill="#000000" d="M157.5625 417.64062L157.5625 418.5625L152.95312 418.5625L152.95312 417.64062L157.5625 417.64062ZM153.125 413.96875L153.125 422.5L151.98438 422.5L151.98438 413.96875L153.125 413.96875ZM158.54688 413.96875L158.54688 422.5L157.42188 422.5L157.42188 413.96875L158.54688 413.96875ZM164.70312 421.03125L164.70312 416.15625L165.79688 416.15625L165.79688 422.5L164.76562 422.5L164.70312 421.03125ZM164.90625 419.70312L165.35938 419.6875Q165.35938 420.3125 165.21875 420.85938Q165.09375 421.39062 164.79688 421.78125Q164.51562 422.17188 164.03125 422.40625Q163.5625 422.625 162.89062 422.625Q162.42188 422.625 162.03125 422.48438Q161.65625 422.34375 161.375 422.0625Q161.10938 421.78125 160.95312 421.32812Q160.79688 420.875 160.79688 420.25L160.79688 416.15625L161.89062 416.15625L161.89062 420.26562Q161.89062 420.6875 161.98438 420.96875Q162.07812 421.25 162.25 421.40625Q162.42188 421.5625 162.625 421.64062Q162.82812 421.70312 163.04688 421.70312Q163.75 421.70312 164.14062 421.4375Q164.54688 421.15625 164.71875 420.70312Q164.90625 420.25 164.90625 419.70312ZM168.90625 417.42188L168.90625 422.5L167.8125 422.5L167.8125 416.15625L168.84375 416.15625L168.90625 417.42188ZM168.6875 419.09375L168.17188 419.07812Q168.1875 418.42188 168.34375 417.875Q168.51562 417.3125 168.82812 416.90625Q169.15625 416.5 169.64062 416.28125Q170.125 416.04688 170.75 416.04688Q171.20312 416.04688 171.57812 416.17188Q171.95312 416.29688 172.21875 416.5625Q172.5 416.82812 172.64062 417.25Q172.79688 417.67188 172.79688 418.28125L172.79688 422.5L171.71875 422.5L171.71875 418.32812Q171.71875 417.82812 171.54688 417.53125Q171.39062 417.23438 171.07812 417.09375Q170.78125 416.95312 170.35938 416.95312Q169.89062 416.95312 169.5625 417.125Q169.23438 417.29688 169.04688 417.59375Q168.85938 417.89062 168.76562 418.28125Q168.6875 418.65625 168.6875 419.09375ZM172.79688 418.48438L172.0625 418.71875Q172.0625 418.1875 172.23438 417.71875Q172.40625 417.23438 172.71875 416.85938Q173.04688 416.48438 173.51562 416.26562Q173.98438 416.04688 174.57812 416.04688Q175.09375 416.04688 175.48438 416.1875Q175.89062 416.3125 176.15625 416.59375Q176.42188 416.875 176.5625 417.3125Q176.70312 417.73438 176.70312 418.32812L176.70312 422.5L175.625 422.5L175.625 418.32812Q175.625 417.78125 175.45312 417.5Q175.28125 417.20312 174.98438 417.07812Q174.6875 416.95312 174.26562 416.95312Q173.90625 416.95312 173.625 417.07812Q173.35938 417.20312 173.17188 417.42188Q172.98438 417.625 172.89062 417.90625Q172.79688 418.1875 172.79688 418.48438ZM182.70312 421.03125L182.70312 416.15625L183.79688 416.15625L183.79688 422.5L182.76562 422.5L182.70312 421.03125ZM182.90625 419.70312L183.35938 419.6875Q183.35938 420.3125 183.21875 420.85938Q183.09375 421.39062 182.79688 421.78125Q182.51562 422.17188 182.03125 422.40625Q181.5625 422.625 180.89062 422.625Q180.42188 422.625 180.03125 422.48438Q179.65625 422.34375 179.375 422.0625Q179.10938 421.78125 178.95312 421.32812Q178.79688 420.875 178.79688 420.25L178.79688 416.15625L179.89062 416.15625L179.89062 420.26562Q179.89062 420.6875 179.98438 420.96875Q180.07812 421.25 180.25 421.40625Q180.42188 421.5625 180.625 421.64062Q180.82812 421.70312 181.04688 421.70312Q181.75 421.70312 182.14062 421.4375Q182.54688 421.15625 182.71875 420.70312Q182.90625 420.25 182.90625 419.70312ZM187.0 413.5L187.0 422.5L185.92188 422.5L185.92188 413.5L187.0 413.5ZM191.45312 422.625Q190.79688 422.625 190.25 422.40625Q189.71875 422.17188 189.32812 421.76562Q188.95312 421.34375 188.75 420.78125Q188.54688 420.21875 188.54688 419.54688L188.54688 419.3125Q188.54688 418.53125 188.76562 417.92188Q189.0 417.3125 189.39062 416.89062Q189.78125 416.46875 190.28125 416.26562Q190.78125 416.04688 191.3125 416.04688Q192.0 416.04688 192.48438 416.28125Q192.98438 416.51562 193.29688 416.9375Q193.625 417.34375 193.76562 417.92188Q193.92188 418.48438 193.92188 419.14062L193.92188 419.64062L189.1875 419.64062L189.1875 418.75L192.84375 418.75L192.84375 418.67188Q192.8125 418.25 192.65625 417.85938Q192.51562 417.45312 192.1875 417.20312Q191.875 416.9375 191.3125 416.9375Q190.95312 416.9375 190.64062 417.09375Q190.32812 417.25 190.09375 417.5625Q189.875 417.85938 189.75 418.29688Q189.64062 418.73438 189.64062 419.3125L189.64062 419.54688Q189.64062 420.0 189.76562 420.40625Q189.89062 420.79688 190.125 421.09375Q190.375 421.39062 190.71875 421.5625Q191.07812 421.73438 191.51562 421.73438Q192.09375 421.73438 192.48438 421.5Q192.89062 421.26562 193.1875 420.875L193.84375 421.39062Q193.64062 421.70312 193.3125 421.98438Q193.0 422.26562 192.53125 422.45312Q192.07812 422.625 191.45312 422.625ZM195.90625 417.51562L195.90625 422.5L194.82812 422.5L194.82812 416.15625L195.85938 416.15625L195.90625 417.51562ZM195.65625 419.09375L195.20312 419.07812Q195.20312 418.42188 195.39062 417.875Q195.57812 417.3125 195.92188 416.90625Q196.26562 416.5 196.73438 416.28125Q197.20312 416.04688 197.78125 416.04688Q198.25 416.04688 198.625 416.17188Q199.0 416.29688 199.26562 416.57812Q199.53125 416.84375 199.67188 417.28125Q199.8125 417.71875 199.8125 418.34375L199.8125 422.5L198.71875 422.5L198.71875 418.32812Q198.71875 417.82812 198.57812 417.53125Q198.4375 417.23438 198.15625 417.09375Q197.875 416.95312 197.45312 416.95312Q197.04688 416.95312 196.71875 417.125Q196.39062 417.29688 196.15625 417.59375Q195.92188 417.89062 195.78125 418.28125Q195.65625 418.65625 195.65625 419.09375Z" fill-rule="nonzero"/><path stroke="#cccccc" stroke-width="1.0" stroke-linecap="butt" d="M372.0 305.0L197.0 204.0" fill-rule="nonzero"/><path fill="#000000" d="M158.03125 194.34375Q158.03125 194.04688 157.9375 193.8125Q157.85938 193.57812 157.625 193.39062Q157.40625 193.20312 157.0 193.03125Q156.60938 192.85938 156.01562 192.6875Q155.375 192.5 154.85938 192.28125Q154.35938 192.04688 153.98438 191.75Q153.625 191.4375 153.4375 191.0625Q153.25 190.67188 153.25 190.17188Q153.25 189.67188 153.45312 189.25Q153.65625 188.82812 154.03125 188.51562Q154.42188 188.20312 154.95312 188.03125Q155.48438 187.84375 156.14062 187.84375Q157.10938 187.84375 157.78125 188.21875Q158.45312 188.57812 158.79688 189.17188Q159.15625 189.76562 159.15625 190.42188L158.03125 190.42188Q158.03125 189.95312 157.8125 189.57812Q157.60938 189.20312 157.1875 189.0Q156.78125 188.78125 156.14062 188.78125Q155.54688 188.78125 155.14062 188.96875Q154.75 189.14062 154.5625 189.45312Q154.375 189.76562 154.375 190.15625Q154.375 190.42188 154.48438 190.65625Q154.60938 190.875 154.84375 191.0625Q155.09375 191.25 155.46875 191.40625Q155.84375 191.5625 156.375 191.70312Q157.09375 191.90625 157.625 192.17188Q158.15625 192.42188 158.5 192.73438Q158.84375 193.04688 159.0 193.4375Q159.17188 193.82812 159.17188 194.32812Q159.17188 194.85938 158.95312 195.28125Q158.75 195.70312 158.35938 196.0Q157.96875 196.29688 157.42188 196.46875Q156.875 196.625 156.20312 196.625Q155.60938 196.625 155.03125 196.45312Q154.46875 196.28125 154.0 195.95312Q153.53125 195.625 153.25 195.15625Q152.96875 194.67188 152.96875 194.03125L154.09375 194.03125Q154.09375 194.46875 154.26562 194.78125Q154.4375 195.09375 154.73438 195.29688Q155.03125 195.5 155.40625 195.60938Q155.78125 195.70312 156.20312 195.70312Q156.79688 195.70312 157.20312 195.54688Q157.60938 195.375 157.8125 195.07812Q158.03125 194.76562 158.03125 194.34375ZM160.04688 193.40625L160.04688 193.26562Q160.04688 192.57812 160.23438 192.0Q160.4375 191.40625 160.8125 190.96875Q161.1875 190.53125 161.71875 190.29688Q162.25 190.04688 162.92188 190.04688Q163.57812 190.04688 164.10938 190.29688Q164.65625 190.53125 165.03125 190.96875Q165.40625 191.40625 165.60938 192.0Q165.8125 192.57812 165.8125 193.26562L165.8125 193.40625Q165.8125 194.07812 165.60938 194.67188Q165.40625 195.25 165.03125 195.6875Q164.65625 196.125 164.125 196.375Q163.59375 196.625 162.92188 196.625Q162.26562 196.625 161.71875 196.375Q161.1875 196.125 160.8125 195.6875Q160.4375 195.25 160.23438 194.67188Q160.04688 194.07812 160.04688 193.40625ZM161.125 193.26562L161.125 193.40625Q161.125 193.875 161.23438 194.29688Q161.34375 194.71875 161.5625 195.04688Q161.79688 195.35938 162.14062 195.54688Q162.48438 195.71875 162.92188 195.71875Q163.375 195.71875 163.70312 195.54688Q164.04688 195.35938 164.26562 195.04688Q164.5 194.71875 164.60938 194.29688Q164.71875 193.875 164.71875 193.40625L164.71875 193.26562Q164.71875 192.79688 164.60938 192.375Q164.5 191.95312 164.26562 191.64062Q164.04688 191.3125 163.70312 191.125Q163.375 190.9375 162.92188 190.9375Q162.46875 190.9375 162.125 191.125Q161.79688 191.3125 161.5625 191.64062Q161.34375 191.95312 161.23438 192.375Q161.125 192.79688 161.125 193.26562ZM168.40625 191.51562L168.40625 196.5L167.32812 196.5L167.32812 190.15625L168.35938 190.15625L168.40625 191.51562ZM168.15625 193.09375L167.70312 193.07812Q167.70312 192.42188 167.89062 191.875Q168.07812 191.3125 168.42188 190.90625Q168.76562 190.5 169.23438 190.28125Q169.70312 190.04688 170.28125 190.04688Q170.75 190.04688 171.125 190.17188Q171.5 190.29688 171.76562 190.57812Q172.03125 190.84375 172.17188 191.28125Q172.3125 191.71875 172.3125 192.34375L172.3125 196.5L171.21875 196.5L171.21875 192.32812Q171.21875 191.82812 171.07812 191.53125Q170.9375 191.23438 170.65625 191.09375Q170.375 190.95312 169.95312 190.95312Q169.54688 190.95312 169.21875 191.125Q168.89062 191.29688 168.65625 191.59375Q168.42188 191.89062 168.28125 192.28125Q168.15625 192.65625 168.15625 193.09375ZM178.01562 194.8125Q178.01562 194.57812 177.90625 194.375Q177.8125 194.17188 177.5 194.01562Q177.1875 193.84375 176.5625 193.71875Q176.03125 193.60938 175.60938 193.46875Q175.1875 193.3125 174.89062 193.09375Q174.59375 192.875 174.4375 192.57812Q174.28125 192.28125 174.28125 191.89062Q174.28125 191.51562 174.4375 191.1875Q174.60938 190.84375 174.90625 190.59375Q175.21875 190.32812 175.65625 190.1875Q176.09375 190.04688 176.625 190.04688Q177.39062 190.04688 177.92188 190.3125Q178.46875 190.57812 178.75 191.03125Q179.03125 191.48438 179.03125 192.01562L177.95312 192.01562Q177.95312 191.76562 177.79688 191.51562Q177.64062 191.26562 177.34375 191.10938Q177.04688 190.9375 176.625 190.9375Q176.17188 190.9375 175.89062 191.07812Q175.60938 191.20312 175.48438 191.42188Q175.35938 191.625 175.35938 191.85938Q175.35938 192.04688 175.42188 192.1875Q175.48438 192.3125 175.64062 192.4375Q175.79688 192.54688 176.07812 192.65625Q176.375 192.75 176.82812 192.84375Q177.60938 193.01562 178.10938 193.26562Q178.60938 193.51562 178.85938 193.875Q179.10938 194.21875 179.10938 194.73438Q179.10938 195.15625 178.92188 195.5Q178.75 195.84375 178.42188 196.09375Q178.10938 196.34375 177.65625 196.48438Q177.20312 196.625 176.65625 196.625Q175.8125 196.625 175.23438 196.32812Q174.65625 196.01562 174.35938 195.54688Q174.0625 195.0625 174.0625 194.54688L175.14062 194.54688Q175.17188 194.98438 175.40625 195.25Q175.64062 195.51562 175.96875 195.625Q176.3125 195.71875 176.65625 195.71875Q177.09375 195.71875 177.39062 195.60938Q177.70312 195.48438 177.85938 195.28125Q178.01562 195.07812 178.01562 194.8125ZM182.98438 190.15625L182.98438 190.98438L179.54688 190.98438L179.54688 190.15625L182.98438 190.15625ZM180.71875 188.625L181.79688 188.625L181.79688 194.92188Q181.79688 195.25 181.89062 195.42188Q182.0 195.57812 182.15625 195.64062Q182.3125 195.6875 182.5 195.6875Q182.625 195.6875 182.76562 195.65625Q182.92188 195.625 183.0 195.60938L183.01562 196.5Q182.875 196.54688 182.67188 196.57812Q182.46875 196.625 182.17188 196.625Q181.78125 196.625 181.4375 196.46875Q181.10938 196.29688 180.90625 195.9375Q180.71875 195.5625 180.71875 194.92188L180.71875 188.625ZM185.5 190.15625L185.5 196.5L184.42188 196.5L184.42188 190.15625L185.5 190.15625ZM184.32812 188.48438Q184.32812 188.21875 184.48438 188.03125Q184.65625 187.84375 184.96875 187.84375Q185.28125 187.84375 185.4375 188.03125Q185.60938 188.21875 185.60938 188.48438Q185.60938 188.73438 185.4375 188.92188Q185.28125 189.09375 184.96875 189.09375Q184.65625 189.09375 184.48438 188.92188Q184.32812 188.73438 184.32812 188.48438ZM191.4375 190.15625L192.42188 190.15625L192.42188 196.35938Q192.42188 197.20312 192.07812 197.79688Q191.73438 198.39062 191.125 198.6875Q190.53125 199.0 189.73438 199.0Q189.40625 199.0 188.95312 198.89062Q188.51562 198.79688 188.09375 198.54688Q187.67188 198.3125 187.39062 197.90625L187.95312 197.25Q188.35938 197.73438 188.78125 197.92188Q189.21875 198.10938 189.65625 198.10938Q190.17188 198.10938 190.54688 197.90625Q190.92188 197.71875 191.125 197.34375Q191.32812 196.96875 191.32812 196.42188L191.32812 191.54688L191.4375 190.15625ZM187.0625 193.40625L187.0625 193.28125Q187.0625 192.54688 187.23438 191.95312Q187.42188 191.35938 187.73438 190.9375Q188.0625 190.5 188.51562 190.28125Q188.98438 190.04688 189.57812 190.04688Q190.17188 190.04688 190.60938 190.25Q191.0625 190.45312 191.375 190.85938Q191.6875 191.25 191.875 191.8125Q192.0625 192.35938 192.125 193.0625L192.125 193.60938Q192.0625 194.29688 191.875 194.85938Q191.6875 195.42188 191.375 195.8125Q191.0625 196.20312 190.60938 196.42188Q190.15625 196.625 189.5625 196.625Q188.98438 196.625 188.53125 196.39062Q188.07812 196.14062 187.75 195.70312Q187.42188 195.26562 187.23438 194.6875Q187.0625 194.09375 187.0625 193.40625ZM188.15625 193.28125L188.15625 193.40625Q188.15625 193.875 188.25 194.29688Q188.34375 194.70312 188.54688 195.03125Q188.75 195.34375 189.0625 195.53125Q189.39062 195.70312 189.82812 195.70312Q190.35938 195.70312 190.70312 195.46875Q191.0625 195.23438 191.26562 194.85938Q191.48438 194.48438 191.59375 194.04688L191.59375 192.64062Q191.53125 192.3125 191.39062 192.01562Q191.26562 191.71875 191.0625 191.48438Q190.85938 191.23438 190.54688 191.09375Q190.25 190.95312 189.82812 190.95312Q189.39062 190.95312 189.0625 191.14062Q188.75 191.32812 188.54688 191.65625Q188.34375 191.96875 188.25 192.39062Q188.15625 192.79688 188.15625 193.28125ZM196.95312 196.625Q196.29688 196.625 195.75 196.40625Q195.21875 196.17188 194.82812 195.76562Q194.45312 195.34375 194.25 194.78125Q194.04688 194.21875 194.04688 193.54688L194.04688 193.3125Q194.04688 192.53125 194.26562 191.92188Q194.5 191.3125 194.89062 190.89062Q195.28125 190.46875 195.78125 190.26562Q196.28125 190.04688 196.8125 190.04688Q197.5 190.04688 197.98438 190.28125Q198.48438 190.51562 198.79688 190.9375Q199.125 191.34375 199.26562 191.92188Q199.42188 192.48438 199.42188 193.14062L199.42188 193.64062L194.6875 193.64062L194.6875 192.75L198.34375 192.75L198.34375 192.67188Q198.3125 192.25 198.15625 191.85938Q198.01562 191.45312 197.6875 191.20312Q197.375 190.9375 196.8125 190.9375Q196.45312 190.9375 196.14062 191.09375Q195.82812 191.25 195.59375 191.5625Q195.375 191.85938 195.25 192.29688Q195.14062 192.73438 195.14062 193.3125L195.14062 193.54688Q195.14062 194.0 195.26562 194.40625Q195.39062 194.79688 195.625 195.09375Q195.875 195.39062 196.21875 195.5625Q196.57812 195.73438 197.01562 195.73438Q197.59375 195.73438 197.98438 195.5Q198.39062 195.26562 198.6875 194.875L199.34375 195.39062Q199.14062 195.70312 198.8125 195.98438Q198.5 196.26562 198.03125 196.45312Q197.57812 196.625 196.95312 196.625Z" fill-rule="nonzero"/><path stroke="#cccccc" stroke-width="1.0" stroke-linecap="butt" d="M372.0 305.0L372.0 103.0" fill-rule="nonzero"/><path stroke="#ff0000" stroke-width="2.0" stroke-linecap="butt" stroke-opacity="0.7019608" stroke-dasharray="8.0,6.0,2.0,6.0" d="M372.0 159.0L438.0 267.0L433.0 340.0L372.0 376.0L337.0 325.0L285.0 255.0Z" fill-rule="nonzero"/><path fill="#ff0000" fill-opacity="0.7019608" d="M368.81802 155.81802L372.0 157.875L375.18198 155.81802L373.125 159.0L375.18198 162.18198L372.0 160.125L368.81802 162.18198L370.875 159.0Z" fill-rule="nonzero"/><path fill="#ff0000" fill-opacity="0.7019608" d="M434.81802 263.81802L438.0 265.875L441.18198 263.81802L439.125 267.0L441.18198 270.18198L438.0 268.125L434.81802 270.18198L436.875 267.0Z" fill-rule="nonzero"/><path fill="#ff0000" fill-opacity="0.7019608" d="M429.81802 336.81802L433.0 338.875L436.18198 336.81802L434.125 340.0L436.18198 343.18198L433.0 341.125L429.81802 343.18198L431.875 340.0Z" fill-rule="nonzero"/><path fill="#ff0000" fill-opacity="0.7019608" d="M368.81802 372.81802L372.0 374.875L375.18198 372.81802L373.125 376.0L375.18198 379.18198L372.0 377.125L368.81802 379.18198L370.875 376.0Z" fill-rule="nonzero"/><path fill="#ff0000" fill-opacity="0.7019608" d="M333.81802 321.81802L337.0 323.875L340.18198 321.81802L338.125 325.0L340.18198 328.18198L337.0 326.125L333.81802 328.18198L335.875 325.0Z" fill-rule="nonzero"/><path fill="#ff0000" fill-opacity="0.7019608" d="M281.81802 251.81802L285.0 253.875L288.18198 251.81802L286.125 255.0L288.18198 258.18198L285.0 256.125L281.81802 258.18198L283.875 255.0Z" fill-rule="nonzero"/><path fill="#757575" d="M29.896875 47.35L29.896875 33.0375L35.2875 33.0375Q36.725 33.0375 37.475 33.1625Q38.521873 33.35 39.240623 33.85Q39.959373 34.334373 40.38125 35.225Q40.81875 36.115623 40.81875 37.178123Q40.81875 39.00625 39.646873 40.271873Q38.490623 41.521873 35.459373 41.521873L31.7875 41.521873L31.7875 47.35L29.896875 47.35ZM31.7875 39.834373L35.490623 39.834373Q37.31875 39.834373 38.084373 39.1625Q38.865623 38.475 38.865623 37.225Q38.865623 36.334373 38.4125 35.69375Q37.959373 35.053123 37.225 34.85Q36.740623 34.725 35.44375 34.725L31.7875 34.725L31.7875 39.834373ZM42.63125 47.35L42.63125 33.0375L44.38125 33.0375L44.38125 47.35L42.63125 47.35ZM53.44375 46.06875Q52.459373 46.896873 51.553123 47.240623Q50.646873 47.584373 49.615623 47.584373Q47.9125 47.584373 46.990623 46.75625Q46.06875 45.9125 46.06875 44.615623Q46.06875 43.85 46.4125 43.225Q46.771873 42.6 47.334373 42.225Q47.896873 41.834373 48.6 41.63125Q49.115623 41.50625 50.1625 41.365623Q52.2875 41.115623 53.2875 40.771873Q53.303123 40.4125 53.303123 40.303123Q53.303123 39.240623 52.803123 38.7875Q52.13125 38.19375 50.803123 38.19375Q49.553123 38.19375 48.959373 38.63125Q48.38125 39.06875 48.1 40.178123L46.38125 39.94375Q46.615623 38.834373 47.146873 38.1625Q47.678123 37.475 48.69375 37.115623Q49.709373 36.740623 51.053123 36.740623Q52.38125 36.740623 53.209373 37.053123Q54.0375 37.365623 54.428123 37.85Q54.81875 38.31875 54.975 39.0375Q55.06875 39.490623 55.06875 40.6625L55.06875 43.00625Q55.06875 45.459373 55.178123 46.115623Q55.2875 46.75625 55.63125 47.35L53.7875 47.35Q53.521873 46.803123 53.44375 46.06875ZM53.2875 42.146873Q52.334373 42.5375 50.4125 42.803123Q49.334373 42.959373 48.88125 43.1625Q48.44375 43.35 48.19375 43.725Q47.94375 44.1 47.94375 44.56875Q47.94375 45.271873 48.475 45.740623Q49.00625 46.209373 50.0375 46.209373Q51.053123 46.209373 51.834373 45.771873Q52.63125 45.31875 53.00625 44.553123Q53.2875 43.94375 53.2875 42.7875L53.2875 42.146873ZM61.50625 45.771873L61.75625 47.334373Q61.021873 47.490623 60.428123 47.490623Q59.475 47.490623 58.94375 47.19375Q58.428123 46.88125 58.209373 46.396873Q57.990623 45.896873 57.990623 44.31875L57.990623 38.35L56.709373 38.35L56.709373 36.975L57.990623 36.975L57.990623 34.4125L59.740623 33.35L59.740623 36.975L61.50625 36.975L61.50625 38.35L59.740623 38.35L59.740623 44.4125Q59.740623 45.1625 59.834373 45.38125Q59.928123 45.584373 60.13125 45.725Q60.35 45.85 60.740623 45.85Q61.021873 45.85 61.50625 45.771873ZM63.678123 35.053123L63.678123 33.0375L65.44375 33.0375L65.44375 35.053123L63.678123 35.053123ZM63.678123 47.35L63.678123 36.975L65.44375 36.975L65.44375 47.35L63.678123 47.35ZM67.6625 47.35L67.6625 36.975L69.25625 36.975L69.25625 38.459373Q70.39687 36.740623 72.55312 36.740623Q73.49062 36.740623 74.27187 37.084373Q75.06875 37.4125 75.45937 37.959373Q75.85 38.50625 76.00625 39.25625Q76.1 39.75625 76.1 40.975L76.1 47.35L74.33437 47.35L74.33437 41.0375Q74.33437 39.959373 74.13125 39.428123Q73.92812 38.896873 73.39687 38.584373Q72.88125 38.271873 72.17812 38.271873Q71.05312 38.271873 70.24062 38.990623Q69.42812 39.69375 69.42812 41.678123L69.42812 47.35L67.6625 47.35ZM84.45937 47.35L84.45937 45.81875Q83.25625 47.584373 81.17812 47.584373Q80.25625 47.584373 79.45937 47.240623Q78.6625 46.88125 78.27187 46.35Q77.89687 45.81875 77.74062 45.0375Q77.63125 44.521873 77.63125 43.396873L77.63125 36.975L79.38125 36.975L79.38125 42.725Q79.38125 44.1 79.49062 44.584373Q79.6625 45.271873 80.19375 45.678123Q80.74062 46.06875 81.52187 46.06875Q82.31875 46.06875 83.00625 45.6625Q83.70937 45.25625 83.99062 44.56875Q84.2875 43.865623 84.2875 42.5375L84.2875 36.975L86.0375 36.975L86.0375 47.35L84.45937 47.35ZM87.6625 47.35L87.6625 36.975L89.24062 36.975L89.24062 38.428123Q89.725 37.678123 90.5375 37.209373Q91.35 36.740623 92.38125 36.740623Q93.5375 36.740623 94.27187 37.225Q95.00625 37.69375 95.31875 38.553123Q96.55312 36.740623 98.52187 36.740623Q100.06875 36.740623 100.89687 37.6Q101.725 38.459373 101.725 40.225L101.725 47.35L99.975 47.35L99.975 40.81875Q99.975 39.75625 99.80312 39.303123Q99.63125 38.834373 99.17812 38.553123Q98.74062 38.271873 98.13125 38.271873Q97.0375 38.271873 96.30312 39.00625Q95.58437 39.725 95.58437 41.31875L95.58437 47.35L93.83437 47.35L93.83437 40.615623Q93.83437 39.44375 93.39687 38.865623Q92.975 38.271873 91.99062 38.271873Q91.25625 38.271873 90.61562 38.6625Q89.99062 39.053123 89.70937 39.803123Q89.42812 40.553123 89.42812 41.975L89.42812 47.35L87.6625 47.35ZM102.05312 51.31875L102.05312 50.053123L113.69375 50.053123L113.69375 51.31875L102.05312 51.31875ZM114.81875 47.35L114.81875 33.0375L116.70937 33.0375L116.70937 40.13125L123.81875 33.0375L126.38125 33.0375L120.38125 38.834373L126.64687 47.35L124.14687 47.35L119.05312 40.1L116.70937 42.38125L116.70937 47.35L114.81875 47.35ZM134.45938 47.35L134.45938 45.81875Q133.25626 47.584373 131.17813 47.584373Q130.25626 47.584373 129.45938 47.240623Q128.6625 46.88125 128.27188 46.35Q127.89687 45.81875 127.74062 45.0375Q127.63125 44.521873 127.63125 43.396873L127.63125 36.975L129.38126 36.975L129.38126 42.725Q129.38126 44.1 129.49063 44.584373Q129.6625 45.271873 130.19376 45.678123Q130.74063 46.06875 131.52188 46.06875Q132.31876 46.06875 133.00626 45.6625Q133.70938 45.25625 133.99063 44.56875Q134.2875 43.865623 134.2875 42.5375L134.2875 36.975L136.0375 36.975L136.0375 47.35L134.45938 47.35ZM136.95938 44.25625L138.70938 43.975Q138.85 45.021873 139.52188 45.584373Q140.19376 46.13125 141.39688 46.13125Q142.6 46.13125 143.17813 45.646873Q143.77188 45.146873 143.77188 44.490623Q143.77188 43.896873 143.25626 43.553123Q142.89688 43.31875 141.45938 42.959373Q139.52188 42.459373 138.77188 42.115623Q138.0375 41.75625 137.64688 41.13125Q137.25626 40.490623 137.25626 39.725Q137.25626 39.0375 137.56876 38.44375Q137.89688 37.85 138.44376 37.459373Q138.85 37.1625 139.55313 36.959373Q140.27188 36.740623 141.08438 36.740623Q142.30313 36.740623 143.225 37.1Q144.14688 37.44375 144.58438 38.053123Q145.02188 38.646873 145.19376 39.646873L143.475 39.88125Q143.35 39.084373 142.7875 38.646873Q142.225 38.19375 141.20938 38.19375Q139.99063 38.19375 139.475 38.6Q138.95938 38.990623 138.95938 39.521873Q138.95938 39.865623 139.17813 40.146873Q139.38126 40.428123 139.85 40.615623Q140.11563 40.709373 141.39688 41.053123Q143.27188 41.553123 144.00626 41.88125Q144.74063 42.19375 145.1625 42.803123Q145.58438 43.396873 145.58438 44.303123Q145.58438 45.178123 145.06876 45.959373Q144.55313 46.740623 143.58438 47.1625Q142.61563 47.584373 141.39688 47.584373Q139.38126 47.584373 138.31876 46.740623Q137.25626 45.896873 136.95938 44.25625ZM147.6625 47.35L147.6625 33.0375L149.42813 33.0375L149.42813 38.1625Q150.6625 36.740623 152.5375 36.740623Q153.67813 36.740623 154.52188 37.19375Q155.38126 37.646873 155.74063 38.459373Q156.11563 39.25625 156.11563 40.771873L156.11563 47.35L154.36563 47.35L154.36563 40.771873Q154.36563 39.459373 153.7875 38.865623Q153.20938 38.25625 152.17813 38.25625Q151.39688 38.25625 150.69376 38.6625Q150.00626 39.06875 149.70938 39.771873Q149.42813 40.459373 149.42813 41.678123L149.42813 47.35L147.6625 47.35Z" fill-rule="nonzero"/></svg>