<svg version="1.1" viewBox="0.0 0.0 744.0 567.0" fill="none" stroke="none" stroke-linecap="square" stroke-miterlimit="10" width="744" height="567" xmlns:xlink="http://www.w3.org/1999/xlink" xmlns="http://www.w3.org/2000/svg"><path fill="#ffffff" d="M0 0L744.0 0L744.0 567.0L0 567.0L0 0Z" fill-rule="nonzero"/><path fill="#ffffff" d="M28.35 71.25L715.64996 71.25L715.64996 538.65L28.35 538.65L28.35 71.25Z" fill-rule="nonzero"/><path stroke="#cccccc" stroke-width="1.0" stroke-linecap="butt" d="M372.0 305.0C372.0 305.0 372.0 305.0 372.0 305.0C372.0 305.0 372.0 305.0 372.0 305.0C372.0 305.0 372.0 305.0 372.0 305.0C372.0 305.0 372.0 305.0 372.0 305.0" fill-rule="nonzero"/><path fill="#000000" d="M353.0625 297.04688L353.0625 298.35938Q353.0625 299.40625 352.875 300.125Q352.6875 300.84375 352.32812 301.28125Q351.98438 301.71875 351.48438 301.92188Q351.0 302.125 350.375 302.125Q349.89062 302.125 349.46875 302.0Q349.04688 301.875 348.71875 301.60938Q348.39062 301.32812 348.15625 300.89062Q347.92188 300.45312 347.79688 299.82812Q347.67188 299.1875 347.67188 298.35938L347.67188 297.04688Q347.67188 296.0 347.85938 295.29688Q348.0625 294.59375 348.40625 294.15625Q348.76562 293.71875 349.25 293.53125Q349.75 293.34375 350.35938 293.34375Q350.85938 293.34375 351.28125 293.46875Q351.70312 293.59375 352.03125 293.85938Q352.35938 294.10938 352.57812 294.54688Q352.8125 294.96875 352.9375 295.59375Q353.0625 296.21875 353.0625 297.04688ZM351.96875 298.53125L351.96875 296.875Q351.96875 296.29688 351.90625 295.85938Q351.84375 295.42188 351.70312 295.10938Q351.57812 294.79688 351.375 294.60938Q351.1875 294.42188 350.9375 294.32812Q350.6875 294.23438 350.35938 294.23438Q349.98438 294.23438 349.67188 294.375Q349.375 294.51562 349.17188 294.82812Q348.96875 295.14062 348.85938 295.65625Q348.76562 296.15625 348.76562 296.875L348.76562 298.53125Q348.76562 299.10938 348.82812 299.54688Q348.90625 299.98438 349.03125 300.3125Q349.17188 300.625 349.35938 300.82812Q349.5625 301.03125 349.8125 301.125Q350.0625 301.21875 350.375 301.21875Q350.78125 301.21875 351.07812 301.07812Q351.375 300.92188 351.57812 300.59375Q351.78125 300.26562 351.875 299.76562Q351.96875 299.25 351.96875 298.53125ZM355.8125 300.70312L355.8125 301.57812Q355.8125 302.125 355.53125 302.71875Q355.26562 303.3125 354.78125 303.70312L354.17188 303.28125Q354.35938 303.01562 354.48438 302.75Q354.60938 302.48438 354.67188 302.20312Q354.75 301.92188 354.75 301.59375L354.75 300.70312L355.8125 300.70312ZM362.0625 297.04688L362.0625 298.35938Q362.0625 299.40625 361.875 300.125Q361.6875 300.84375 361.32812 301.28125Q360.98438 301.71875 360.48438 301.92188Q360.0 302.125 359.375 302.125Q358.89062 302.125 358.46875 302.0Q358.04688 301.875 357.71875 301.60938Q357.39062 301.32812 357.15625 300.89062Q356.92188 300.45312 356.79688 299.82812Q356.67188 299.1875 356.67188 298.35938L356.67188 297.04688Q356.67188 296.0 356.85938 295.29688Q357.0625 294.59375 357.40625 294.15625Q357.76562 293.71875 358.25 293.53125Q358.75 293.34375 359.35938 293.34375Q359.85938 293.34375 360.28125 293.46875Q360.70312 293.59375 361.03125 293.85938Q361.35938 294.10938 361.57812 294.54688Q361.8125 294.96875 361.9375 295.59375Q362.0625 296.21875 362.0625 297.04688ZM360.96875 298.53125L360.96875 296.875Q360.96875 296.29688 360.90625 295.85938Q360.84375 295.42188 360.70312 295.10938Q360.57812 294.79688 360.375 294.60938Q360.1875 294.42188 359.9375 294.32812Q359.6875 294.23438 359.35938 294.23438Q358.98438 294.23438 358.67188 294.375Q358.375 294.51562 358.17188 294.82812Q357.96875 295.14062 357.85938 295.65625Q357.76562 296.15625 357.76562 296.875L357.76562 298.53125Q357.76562 299.10938 357.82812 299.54688Q357.90625 299.98438 358.03125 300.3125Q358.17188 300.625 358.35938 300.82812Q358.5625 301.03125 358.8125 301.125Q359.0625 301.21875 359.375 301.21875Q359.78125 301.21875 360.07812 301.07812Q360.375 300.92188 360.57812 300.59375Q360.78125 300.26562 360.875 299.76562Q360.96875 299.25 360.96875 298.53125ZM369.0625 297.04688L369.0625 298.35938Q369.0625 299.40625 368.875 300.125Q368.6875 300.84375 368.32812 301.28125Q367.98438 301.71875 367.48438 301.92188Q367.0 302.125 366.375 302.125Q365.89062 302.125 365.46875 302.0Q365.04688 301.875 364.71875 301.60938Q364.39062 301.32812 364.15625 300.89062Q363.92188 300.45312 363.79688 299.82812Q363.67188 299.1875 363.67188 298.35938L363.67188 297.04688Q363.67188 296.0 363.85938 295.29688Q364.0625 294.59375 364.40625 294.15625Q364.76562 293.71875 365.25 293.53125Q365.75 293.34375 366.35938 293.34375Q366.85938 293.34375 367.28125 293.46875Q367.70312 293.59375 368.03125 293.85938Q368.35938 294.10938 368.57812 294.54688Q368.8125 294.96875 368.9375 295.59375Q369.0625 296.21875 369.0625 297.04688ZM367.96875 298.53125L367.96875 296.875Q367.96875 296.29688 367.90625 295.85938Q367.84375 295.42188 367.70312 295.10938Q367.57812 294.79688 367.375 294.60938Q367.1875 294.42188 366.9375 294.32812Q366.6875 294.23438 366.35938 294.23438Q365.98438 294.23438 365.67188 294.375Q365.375 294.51562 365.17188 294.82812Q364.96875 295.14062 364.85938 295.65625Q364.76562 296.15625 364.76562 296.875L364.76562 298.53125Q364.76562 299.10938 364.82812 299.54688Q364.90625 299.98438 365.03125 300.3125Q365.17188 300.625 365.35938 300.82812Q365.5625 301.03125 365.8125 301.125Q366.0625 301.21875 366.375 301.21875Q366.78125 301.21875 367.07812 301.07812Q367.375 300.92188 367.57812 300.59375Q367.78125 300.26562 367.875 299.76562Q367.96875 299.25 367.96875 298.53125Z" fill-rule="nonzero"/><path stroke="#cccccc" stroke-width="1.0" stroke-linecap="butt" d="M422.425 305.0C422.425 277.15103 399.84897 254.575 372.0 254.575C344.15103 254.575 321.575 277.15103 321.575 305.0C321.575 332.84897 344.15103 355.425 372.0 355.425C399.84897 355.425 422.425 332.84897 422.425 305.0" fill-rule="nonzero"/><path fill="#000000" d="M353.0625 246.62187L353.0625 247.93437Q353.0625 248.98125 352.875 249.7Q352.6875 250.41875 352.32812 250.85625Q351.98438 251.29375 351.48438 251.49687Q351.0 251.7 350.375 251.7Q349.89062 251.7 349.46875 251.575Q349.04688 251.45 348.71875 251.18437Q348.39062 250.90312 348.15625 250.46562Q347.92188 250.02812 347.79688 249.40312Q347.67188 248.7625 347.67188 247.93437L347.67188 246.62187Q347.67188 245.575 347.85938 244.87187Q348.0625 244.16875 348.40625 243.73125Q348.76562 243.29375 349.25 243.10625Q349.75 242.91875 350.35938 242.91875Q350.85938 242.91875 351.28125 243.04375Q351.70312 243.16875 352.03125 243.43437Q352.35938 243.68437 352.57812 244.12187Q352.8125 244.54375 352.9375 245.16875Q353.0625 245.79375 353.0625 246.62187ZM351.96875 248.10625L351.96875 246.45Q351.96875 245.87187 351.90625 245.43437Q351.84375 244.99687 351.70312 244.68437Q351.57812 244.37187 351.375 244.18437Q351.1875 243.99687 350.9375 243.90312Q350.6875 243.80937 350.35938 243.80937Q349.98438 243.80937 349.67188 243.95Q349.375 244.09062 349.17188 244.40312Q348.96875 244.71562 348.85938 245.23125Q348.76562 245.73125 348.76562 246.45L348.76562 248.10625Q348.76562 248.68437 348.82812 249.12187Q348.90625 249.55937 349.03125 249.8875Q349.17188 250.2 349.35938 250.40312Q349.5625 250.60625 349.8125 250.7Q350.0625 250.79375 350.375 250.79375Q350.78125 250.79375 351.07812 250.65312Q351.375 250.49687 351.57812 250.16875Q351.78125 249.84062 351.875 249.34062Q351.96875 248.825 351.96875 248.10625ZM355.8125 250.27812L355.8125 251.15312Q355.8125 251.7 355.53125 252.29375Q355.26562 252.8875 354.78125 253.27812L354.17188 252.85625Q354.35938 252.59062 354.48438 252.325Q354.60938 252.05937 354.67188 251.77812Q354.75 251.49687 354.75 251.16875L354.75 250.27812L355.8125 250.27812ZM362.0625 246.62187L362.0625 247.93437Q362.0625 248.98125 361.875 249.7Q361.6875 250.41875 361.32812 250.85625Q360.98438 251.29375 360.48438 251.49687Q360.0 251.7 359.375 251.7Q358.89062 251.7 358.46875 251.575Q358.04688 251.45 357.71875 251.18437Q357.39062 250.90312 357.15625 250.46562Q356.92188 250.02812 356.79688 249.40312Q356.67188 248.7625 356.67188 247.93437L356.67188 246.62187Q356.67188 245.575 356.85938 244.87187Q357.0625 244.16875 357.40625 243.73125Q357.76562 243.29375 358.25 243.10625Q358.75 242.91875 359.35938 242.91875Q359.85938 242.91875 360.28125 243.04375Q360.70312 243.16875 361.03125 243.43437Q361.35938 243.68437 361.57812 244.12187Q361.8125 244.54375 361.9375 245.16875Q362.0625 245.79375 362.0625 246.62187ZM360.96875 248.10625L360.96875 246.45Q360.96875 245.87187 360.90625 245.43437Q360.84375 244.99687 360.70312 244.68437Q360.57812 244.37187 360.375 244.18437Q360.1875 243.99687 359.9375 243.90312Q359.6875 243.80937 359.35938 243.80937Q358.98438 243.80937 358.67188 243.95Q358.375 244.09062 358.17188 244.40312Q357.96875 244.71562 357.85938 245.23125Q357.76562 245.73125 357.76562 246.45L357.76562 248.10625Q357.76562 248.68437 357.82812 249.12187Q357.90625 249.55937 358.03125 249.8875Q358.17188 250.2 358.35938 250.40312Q358.5625 250.60625 358.8125 250.7Q359.0625 250.79375 359.375 250.79375Q359.78125 250.79375 360.07812 250.65312Q360.375 250.49687 360.57812 250.16875Q360.78125 249.84062 360.875 249.34062Q360.96875 248.825 360.96875 248.10625ZM365.07812 247.5125L364.21875 247.29375L364.64062 243.04375L369.01562 243.04375L369.01562 244.04375L365.5625 244.04375L365.29688 246.37187Q365.53125 246.23125 365.89062 246.12187Q366.26562 245.99687 366.73438 245.99687Q367.3125 245.99687 367.78125 246.2Q368.25 246.40312 368.57812 246.77812Q368.92188 247.15312 369.09375 247.68437Q369.26562 248.2 369.26562 248.85625Q369.26562 249.46562 369.09375 249.98125Q368.9375 250.49687 368.59375 250.8875Q368.26562 251.2625 367.75 251.48125Q367.25 251.7 366.5625 251.7Q366.04688 251.7 365.59375 251.55937Q365.14062 251.40312 364.76562 251.10625Q364.40625 250.80937 364.1875 250.37187Q363.96875 249.93437 363.90625 249.325L364.9375 249.325Q365.0 249.80937 365.20312 250.1375Q365.42188 250.46562 365.76562 250.6375Q366.10938 250.79375 366.5625 250.79375Q366.95312 250.79375 367.25 250.66875Q367.54688 250.52812 367.75 250.27812Q367.96875 250.02812 368.07812 249.66875Q368.1875 249.30937 368.1875 248.87187Q368.1875 248.46562 368.0625 248.12187Q367.95312 247.77812 367.73438 247.52812Q367.51562 247.2625 367.20312 247.12187Q366.89062 246.96562 366.46875 246.96562Q365.9375 246.96562 365.65625 247.12187Q365.375 247.2625 365.07812 247.5125Z" fill-rule="nonzero"/><path stroke="#cccccc" stroke-width="1.0" stroke-linecap="butt" d="M472.85 305.0C472.85 249.30208 427.6979 204.15 372.0 204.15C316.3021 204.15 271.15 249.30208 271.15 305.0C271.15 360.6979 316.3021 405.85 372.0 405.85C427.6979 405.85 472.85 360.6979 472.85 305.0" fill-rule="nonzero"/><path fill="#000000" d="M353.0625 196.19687L353.0625 197.50937Q353.0625 198.55624 352.875 199.275Q352.6875 199.99374 352.32812 200.43124Q351.98438 200.86874 351.48438 201.07187Q351.0 201.275 350.375 201.275Q349.89062 201.275 349.46875 201.15Q349.04688 201.025 348.71875 200.75937Q348.39062 200.47812 348.15625 200.04062Q347.92188 199.60312 347.79688 198.97812Q347.67188 198.3375 347.67188 197.50937L347.67188 196.19687Q347.67188 195.15 347.85938 194.44687Q348.0625 193.74374 348.40625 193.30624Q348.76562 192.86874 349.25 192.68124Q349.75 192.49374 350.35938 192.49374Q350.85938 192.49374 351.28125 192.61874Q351.70312 192.74374 352.03125 193.00937Q352.35938 193.25937 352.57812 193.69687Q352.8125 194.11874 352.9375 194.74374Q353.0625 195.36874 353.0625 196.19687ZM351.96875 197.68124L351.96875 196.025Q351.96875 195.44687 351.90625 195.00937Q351.84375 194.57187 351.70312 194.25937Q351.57812 193.94687 351.375 193.75937Q351.1875 193.57187 350.9375 193.47812Q350.6875 193.38437 350.35938 193.38437Q349.98438 193.38437 349.67188 193.525Q349.375 193.66562 349.17188 193.97812Q348.96875 194.29062 348.85938 194.80624Q348.76562 195.30624 348.76562 196.025L348.76562 197.68124Q348.76562 198.25937 348.82812 198.69687Q348.90625 199.13437 349.03125 199.4625Q349.17188 199.775 349.35938 199.97812Q349.5625 200.18124 349.8125 200.275Q350.0625 200.36874 350.375 200.36874Q350.78125 200.36874 351.07812 200.22812Q351.375 200.07187 351.57812 199.74374Q351.78125 199.41562 351.875 198.91562Q351.96875 198.4 351.96875 197.68124ZM355.8125 199.85312L355.8125 200.72812Q355.8125 201.275 355.53125 201.86874Q355.26562 202.4625 354.78125 202.85312L354.17188 202.43124Q354.35938 202.16562 354.48438 201.9Q354.60938 201.63437 354.67188 201.35312Q354.75 201.07187 354.75 200.74374L354.75 199.85312L355.8125 199.85312ZM360.26562 192.57187L360.26562 201.15L359.1875 201.15L359.1875 193.93124L357.0 194.72812L357.0 193.74374L360.10938 192.57187L360.26562 192.57187ZM369.0625 196.19687L369.0625 197.50937Q369.0625 198.55624 368.875 199.275Q368.6875 199.99374 368.32812 200.43124Q367.98438 200.86874 367.48438 201.07187Q367.0 201.275 366.375 201.275Q365.89062 201.275 365.46875 201.15Q365.04688 201.025 364.71875 200.75937Q364.39062 200.47812 364.15625 200.04062Q363.92188 199.60312 363.79688 198.97812Q363.67188 198.3375 363.67188 197.50937L363.67188 196.19687Q363.67188 195.15 363.85938 194.44687Q364.0625 193.74374 364.40625 193.30624Q364.76562 192.86874 365.25 192.68124Q365.75 192.49374 366.35938 192.49374Q366.85938 192.49374 367.28125 192.61874Q367.70312 192.74374 368.03125 193.00937Q368.35938 193.25937 368.57812 193.69687Q368.8125 194.11874 368.9375 194.74374Q369.0625 195.36874 369.0625 196.19687ZM367.96875 197.68124L367.96875 196.025Q367.96875 195.44687 367.90625 195.00937Q367.84375 194.57187 367.70312 194.25937Q367.57812 193.94687 367.375 193.75937Q367.1875 193.57187 366.9375 193.47812Q366.6875 193.38437 366.35938 193.38437Q365.98438 193.38437 365.67188 193.525Q365.375 193.66562 365.17188 193.97812Q364.96875 194.29062 364.85938 194.80624Q364.76562 195.30624 364.76562 196.025L364.76562 197.68124Q364.76562 198.25937 364.82812 198.69687Q364.90625 199.13437 365.03125 199.4625Q365.17188 199.775 365.35938 199.97812Q365.5625 200.18124 365.8125 200.275Q366.0625 200.36874 366.375 200.36874Q366.78125 200.36874 367.07812 200.22812Q367.375 200.07187 367.57812 199.74374Q367.78125 199.41562 367.875 198.91562Q367.96875 198.4 367.96875 197.68124Z" fill-rule="nonzero"/><path stroke="#cccccc" stroke-width="1.0" stroke-linecap="butt" d="M523.275 305.0C523.275 221.45312 455.54688 153.725 372.0 153.725C288.45312 153.725 220.725 221.45312 220.725 305.0C220.725 388.54688 288.45312 456.275 372.0 456.275C455.54688 456.275 523.275 388.54688 523.275 305.0" fill-rule="nonzero"/><path fill="#000000" d="M353.0625 145.77188L353.0625 147.08438Q353.0625 148.13126 352.875 148.85Q352.6875 149.56876 352.32812 150.00626Q351.98438 150.44376 351.48438 150.64688Q351.0 150.85 350.375 150.85Q349.89062 150.85 349.46875 150.725Q349.04688 150.6 348.71875 150.33438Q348.39062 150.05313 348.15625 149.61563Q347.92188 149.17813 347.79688 148.55313Q347.67188 147.9125 347.67188 147.08438L347.67188 145.77188Q347.67188 144.725 347.85938 144.02188Q348.0625 143.31876 348.40625 142.88126Q348.76562 142.44376 349.25 142.25626Q349.75 142.06876 350.35938 142.06876Q350.85938 142.06876 351.28125 142.19376Q351.70312 142.31876 352.03125 142.58438Q352.35938 142.83438 352.57812 143.27188Q352.8125 143.69376 352.9375 144.31876Q353.0625 144.94376 353.0625 145.77188ZM351.96875 147.25626L351.96875 145.6Q351.96875 145.02188 351.90625 144.58438Q351.84375 144.14688 351.70312 143.83438Q351.57812 143.52188 351.375 143.33438Q351.1875 143.14688 350.9375 143.05313Q350.6875 142.95938 350.35938 142.95938Q349.98438 142.95938 349.67188 143.1Q349.375 143.24063 349.17188 143.55313Q348.96875 143.86563 348.85938 144.38126Q348.76562 144.88126 348.76562 145.6L348.76562 147.25626Q348.76562 147.83438 348.82812 148.27188Q348.90625 148.70938 349.03125 149.0375Q349.17188 149.35 349.35938 149.55313Q349.5625 149.75626 349.8125 149.85Q350.0625 149.94376 350.375 149.94376Q350.78125 149.94376 351.07812 149.80313Q351.375 149.64688 351.57812 149.31876Q351.78125 148.99063 351.875 148.49063Q351.96875 147.975 351.96875 147.25626ZM355.8125 149.42813L355.8125 150.30313Q355.8125 150.85 355.53125 151.44376Q355.26562 152.0375 354.78125 152.42813L354.17188 152.00626Q354.35938 151.74063 354.48438 151.475Q354.60938 151.20938 354.67188 150.92813Q354.75 150.64688 354.75 150.31876L354.75 149.42813L355.8125 149.42813ZM360.26562 142.14688L360.26562 150.725L359.1875 150.725L359.1875 143.50626L357.0 144.30313L357.0 143.31876L360.10938 142.14688L360.26562 142.14688ZM365.07812 146.6625L364.21875 146.44376L364.64062 142.19376L369.01562 142.19376L369.01562 143.19376L365.5625 143.19376L365.29688 145.52188Q365.53125 145.38126 365.89062 145.27188Q366.26562 145.14688 366.73438 145.14688Q367.3125 145.14688 367.78125 145.35Q368.25 145.55313 368.57812 145.92813Q368.92188 146.30313 369.09375 146.83438Q369.26562 147.35 369.26562 148.00626Q369.26562 148.61563 369.09375 149.13126Q368.9375 149.64688 368.59375 150.0375Q368.26562 150.4125 367.75 150.63126Q367.25 150.85 366.5625 150.85Q366.04688 150.85 365.59375 150.70938Q365.14062 150.55313 364.76562 150.25626Q364.40625 149.95938 364.1875 149.52188Q363.96875 149.08438 363.90625 148.475L364.9375 148.475Q365.0 148.95938 365.20312 149.2875Q365.42188 149.61563 365.76562 149.7875Q366.10938 149.94376 366.5625 149.94376Q366.95312 149.94376 367.25 149.81876Q367.54688 149.67813 367.75 149.42813Q367.96875 149.17813 368.07812 148.81876Q368.1875 148.45938 368.1875 148.02188Q368.1875 147.61563 368.0625 147.27188Q367.95312 146.92813 367.73438 146.67813Q367.51562 146.4125 367.20312 146.27188Q366.89062 146.11563 366.46875 146.11563Q365.9375 146.11563 365.65625 146.27188Q365.375 146.4125 365.07812 146.6625Z" fill-rule="nonzero"/><path stroke="#cccccc" stroke-width="1.0" stroke-linecap="butt" d="M573.7 305.0C573.7 193.60417 483.39584 103.3 372.0 103.3C260.60416 103.3 170.3 193.60417 170.3 305.0C170.3 416.39584 260.60416 506.7 372.0 506.7C483.39584 506.7 573.7 416.39584 573.7 305.0" fill-rule="nonzero"/><path fill="#000000" d="M353.0625 95.34688L353.0625 96.65938Q353.0625 97.70625 352.875 98.425Q352.6875 99.14375 352.32812 99.58125Q351.98438 100.01875 351.48438 100.22188Q351.0 100.425 350.375 100.425Q349.89062 100.425 349.46875 100.3Q349.04688 100.175 348.71875 99.90938Q348.39062 99.62813 348.15625 99.19063Q347.92188 98.75313 347.79688 98.12813Q347.67188 97.4875 347.67188 96.65938L347.67188 95.34688Q347.67188 94.3 347.85938 93.59688Q348.0625 92.89375 348.40625 92.45625Q348.76562 92.01875 349.25 91.83125Q349.75 91.64375 350.35938 91.64375Q350.85938 91.64375 351.28125 91.76875Q351.70312 91.89375 352.03125 92.15938Q352.35938 92.40938 352.57812 92.84688Q352.8125 93.26875 352.9375 93.89375Q353.0625 94.51875 353.0625 95.34688ZM351.96875 96.83125L351.96875 95.175Q351.96875 94.59688 351.90625 94.15938Q351.84375 93.72188 351.70312 93.40938Q351.57812 93.09688 351.375 92.90938Q351.1875 92.72188 350.9375 92.62813Q350.6875 92.53438 350.35938 92.53438Q349.98438 92.53438 349.67188 92.675Q349.375 92.81563 349.17188 93.12813Q348.96875 93.44063 348.85938 93.95625Q348.76562 94.45625 348.76562 95.175L348.76562 96.83125Q348.76562 97.40938 348.82812 97.84688Q348.90625 98.28438 349.03125 98.6125Q349.17188 98.925 349.35938 99.12813Q349.5625 99.33125 349.8125 99.425Q350.0625 99.51875 350.375 99.51875Q350.78125 99.51875 351.07812 99.37813Q351.375 99.22188 351.57812 98.89375Q351.78125 98.56563 351.875 98.06563Q351.96875 97.55 351.96875 96.83125ZM355.8125 99.00313L355.8125 99.87813Q355.8125 100.425 355.53125 101.01875Q355.26562 101.6125 354.78125 102.00313L354.17188 101.58125Q354.35938 101.31563 354.48438 101.05Q354.60938 100.78438 354.67188 100.50313Q354.75 100.22188 354.75 99.89375L354.75 99.00313L355.8125 99.00313ZM362.29688 99.40938L362.29688 100.3L356.71875 100.3L356.71875 99.51875L359.51562 96.40938Q360.03125 95.83125 360.3125 95.44063Q360.59375 95.03438 360.70312 94.72188Q360.82812 94.39375 360.82812 94.06563Q360.82812 93.64375 360.65625 93.3Q360.48438 92.95625 360.14062 92.75313Q359.8125 92.53438 359.32812 92.53438Q358.76562 92.53438 358.39062 92.76875Q358.01562 92.9875 357.82812 93.37813Q357.64062 93.76875 357.64062 94.26875L356.54688 94.26875Q356.54688 93.55 356.85938 92.95625Q357.1875 92.3625 357.79688 92.00313Q358.42188 91.64375 359.32812 91.64375Q360.14062 91.64375 360.71875 91.94063Q361.29688 92.22188 361.59375 92.7375Q361.90625 93.2375 361.90625 93.925Q361.90625 94.3 361.78125 94.69063Q361.65625 95.06563 361.4375 95.45625Q361.21875 95.83125 360.92188 96.20625Q360.64062 96.56563 360.3125 96.925L358.01562 99.40938L362.29688 99.40938ZM369.0625 95.34688L369.0625 96.65938Q369.0625 97.70625 368.875 98.425Q368.6875 99.14375 368.32812 99.58125Q367.98438 100.01875 367.48438 100.22188Q367.0 100.425 366.375 100.425Q365.89062 100.425 365.46875 100.3Q365.04688 100.175 364.71875 99.90938Q364.39062 99.62813 364.15625 99.19063Q363.92188 98.75313 363.79688 98.12813Q363.67188 97.4875 363.67188 96.65938L363.67188 95.34688Q363.67188 94.3 363.85938 93.59688Q364.0625 92.89375 364.40625 92.45625Q364.76562 92.01875 365.25 91.83125Q365.75 91.64375 366.35938 91.64375Q366.85938 91.64375 367.28125 91.76875Q367.70312 91.89375 368.03125 92.15938Q368.35938 92.40938 368.57812 92.84688Q368.8125 93.26875 368.9375 93.89375Q369.0625 94.51875 369.0625 95.34688ZM367.96875 96.83125L367.96875 95.175Q367.96875 94.59688 367.90625 94.15938Q367.84375 93.72188 367.70312 93.40938Q367.57812 93.09688 367.375 92.90938Q367.1875 92.72188 366.9375 92.62813Q366.6875 92.53438 366.35938 92.53438Q365.98438 92.53438 365.67188 92.675Q365.375 92.81563 365.17188 93.12813Q364.96875 93.44063 364.85938 93.95625Q364.76562 94.45625 364.76562 95.175L364.76562 96.83125Q364.76562 97.40938 364.82812 97.84688Q364.90625 98.28438 365.03125 98.6125Q365.17188 98.925 365.35938 99.12813Q365.5625 99.33125 365.8125 99.425Q366.0625 99.51875 366.375 99.51875Q366.78125 99.51875 367.07812 99.37813Q367.375 99.22188 367.57812 98.89375Q367.78125 98.56563 367.875 98.06563Q367.96875 97.55 367.96875 96.83125Z" fill-rule="nonzero"/><path stroke="#cccccc" stroke-width="1.0" stroke-linecap="butt" d="M372.0 305.0L372.0 103.0" fill-rule="nonzero"/><path fill="#000000" d="M342.64062 78.78125L343.76562 78.78125Q343.67188 79.59375 343.29688 80.234375Q342.92188 80.875 342.23438 81.25Q341.5625 81.625 340.53125 81.625Q339.78125 81.625 339.17188 81.34375Q338.5625 81.046875 338.10938 80.53125Q337.67188 80.015625 337.4375 79.296875Q337.20312 78.5625 337.20312 77.65625L337.20312 76.8125Q337.20312 75.921875 337.4375 75.1875Q337.67188 74.453125 338.125 73.9375Q338.57812 73.40625 339.20312 73.125Q339.84375 72.84375 340.625 72.84375Q341.59375 72.84375 342.26562 73.21875Q342.9375 73.578125 343.29688 74.21875Q343.67188 74.859375 343.76562 75.703125L342.64062 75.703125Q342.5625 75.109375 342.32812 74.6875Q342.10938 74.25 341.70312 74.015625Q341.29688 73.78125 340.625 73.78125Q340.0625 73.78125 339.625 74.0Q339.20312 74.203125 338.90625 74.609375Q338.625 75.0 338.46875 75.5625Q338.32812 76.125 338.32812 76.796875L338.32812 77.65625Q338.32812 78.28125 338.45312 78.84375Q338.59375 79.390625 338.85938 79.8125Q339.125 80.21875 339.54688 80.46875Q339.96875 80.703125 340.53125 80.703125Q341.25 80.703125 341.67188 80.46875Q342.10938 80.234375 342.32812 79.8125Q342.54688 79.390625 342.64062 78.78125ZM349.0625 80.421875L349.0625 77.15625Q349.0625 76.78125 348.90625 76.5Q348.76562 76.21875 348.46875 76.078125Q348.17188 75.921875 347.73438 75.921875Q347.3125 75.921875 347.0 76.0625Q346.70312 76.203125 346.53125 76.4375Q346.35938 76.65625 346.35938 76.921875L345.28125 76.921875Q345.28125 76.578125 345.45312 76.25Q345.625 75.90625 345.95312 75.640625Q346.28125 75.359375 346.75 75.203125Q347.21875 75.046875 347.79688 75.046875Q348.48438 75.046875 349.01562 75.28125Q349.54688 75.515625 349.84375 75.984375Q350.15625 76.453125 350.15625 77.15625L350.15625 80.109375Q350.15625 80.4375 350.20312 80.796875Q350.26562 81.140625 350.375 81.40625L350.375 81.5L349.23438 81.5Q349.15625 81.3125 349.10938 81.0Q349.0625 80.6875 349.0625 80.421875ZM349.25 77.65625L349.26562 78.421875L348.17188 78.421875Q347.70312 78.421875 347.34375 78.5Q346.98438 78.5625 346.73438 78.71875Q346.48438 78.859375 346.35938 79.078125Q346.23438 79.296875 346.23438 79.59375Q346.23438 79.890625 346.35938 80.140625Q346.5 80.375 346.76562 80.53125Q347.04688 80.671875 347.4375 80.671875Q347.9375 80.671875 348.3125 80.46875Q348.70312 80.25 348.92188 79.953125Q349.15625 79.640625 349.17188 79.34375L349.64062 79.875Q349.59375 80.109375 349.40625 80.421875Q349.23438 80.71875 348.92188 81.0Q348.625 81.265625 348.20312 81.453125Q347.79688 81.625 347.28125 81.625Q346.64062 81.625 346.15625 81.375Q345.67188 81.109375 345.40625 80.6875Q345.14062 80.265625 345.14062 79.734375Q345.14062 79.21875 345.32812 78.84375Q345.53125 78.453125 345.90625 78.1875Q346.28125 77.921875 346.8125 77.796875Q347.34375 77.65625 348.0 77.65625L349.25 77.65625ZM353.40625 76.15625L353.40625 81.5L352.32812 81.5L352.32812 75.15625L353.375 75.15625L353.40625 76.15625ZM355.39062 75.125L355.39062 76.125Q355.25 76.109375 355.125 76.09375Q355.01562 76.078125 354.85938 76.078125Q354.48438 76.078125 354.1875 76.203125Q353.90625 76.3125 353.70312 76.53125Q353.51562 76.734375 353.39062 77.03125Q353.28125 77.328125 353.25 77.671875L352.9375 77.84375Q352.9375 77.265625 353.04688 76.765625Q353.17188 76.265625 353.40625 75.875Q353.65625 75.484375 354.01562 75.265625Q354.39062 75.046875 354.90625 75.046875Q355.03125 75.046875 355.17188 75.078125Q355.32812 75.09375 355.39062 75.125ZM358.10938 80.84375L359.875 75.15625L361.03125 75.15625L358.48438 82.484375Q358.40625 82.71875 358.25 82.984375Q358.10938 83.265625 357.89062 83.5Q357.67188 83.75 357.35938 83.90625Q357.04688 84.0625 356.60938 84.0625Q356.48438 84.0625 356.28125 84.015625Q356.07812 83.984375 356.0 83.96875L356.0 83.09375Q356.04688 83.09375 356.14062 83.09375Q356.25 83.109375 356.28125 83.109375Q356.65625 83.109375 356.90625 83.015625Q357.17188 82.921875 357.34375 82.6875Q357.53125 82.46875 357.65625 82.078125L358.10938 80.84375ZM356.8125 75.15625L358.45312 80.078125L358.73438 81.21875L357.96875 81.625L355.625 75.15625L356.8125 75.15625ZM362.04688 78.40625L362.04688 78.265625Q362.04688 77.578125 362.23438 77.0Q362.4375 76.40625 362.8125 75.96875Q363.1875 75.53125 363.71875 75.296875Q364.25 75.046875 364.92188 75.046875Q365.57812 75.046875 366.10938 75.296875Q366.65625 75.53125 367.03125 75.96875Q367.40625 76.40625 367.60938 77.0Q367.8125 77.578125 367.8125 78.265625L367.8125 78.40625Q367.8125 79.078125 367.60938 79.671875Q367.40625 80.25 367.03125 80.6875Q366.65625 81.125 366.125 81.375Q365.59375 81.625 364.92188 81.625Q364.26562 81.625 363.71875 81.375Q363.1875 81.125 362.8125 80.6875Q362.4375 80.25 362.23438 79.671875Q362.04688 79.078125 362.04688 78.40625ZM363.125 78.265625L363.125 78.40625Q363.125 78.875 363.23438 79.296875Q363.34375 79.71875 363.5625 80.046875Q363.79688 80.359375 364.14062 80.546875Q364.48438 80.71875 364.92188 80.71875Q365.375 80.71875 365.70312 80.546875Q366.04688 80.359375 366.26562 80.046875Q366.5 79.71875 366.60938 79.296875Q366.71875 78.875 366.71875 78.40625L366.71875 78.265625Q366.71875 77.796875 366.60938 77.375Q366.5 76.953125 366.26562 76.640625Q366.04688 76.3125 365.70312 76.125Q365.375 75.9375 364.92188 75.9375Q364.46875 75.9375 364.125 76.125Q363.79688 76.3125 363.5625 76.640625Q363.34375 76.953125 363.23438 77.375Q363.125 77.796875 363.125 78.265625ZM370.40625 76.375L370.40625 83.9375L369.32812 83.9375L369.32812 75.15625L370.3125 75.15625L370.40625 76.375ZM374.6875 78.28125L374.6875 78.40625Q374.6875 79.09375 374.51562 79.6875Q374.35938 80.265625 374.04688 80.703125Q373.73438 81.140625 373.26562 81.390625Q372.8125 81.625 372.21875 81.625Q371.625 81.625 371.15625 81.421875Q370.6875 81.21875 370.35938 80.84375Q370.04688 80.453125 369.85938 79.921875Q369.67188 79.390625 369.59375 78.71875L369.59375 78.0625Q369.67188 77.359375 369.85938 76.8125Q370.04688 76.25 370.35938 75.859375Q370.6875 75.453125 371.14062 75.25Q371.60938 75.046875 372.20312 75.046875Q372.79688 75.046875 373.26562 75.28125Q373.73438 75.5 374.04688 75.9375Q374.35938 76.359375 374.51562 76.953125Q374.6875 77.546875 374.6875 78.28125ZM373.59375 78.40625L373.59375 78.28125Q373.59375 77.796875 373.48438 77.390625Q373.39062 76.96875 373.1875 76.65625Q372.98438 76.328125 372.65625 76.140625Q372.32812 75.953125 371.89062 75.953125Q371.48438 75.953125 371.17188 76.09375Q370.875 76.234375 370.65625 76.484375Q370.45312 76.71875 370.3125 77.015625Q370.1875 77.3125 370.125 77.640625L370.125 79.15625Q370.23438 79.5625 370.4375 79.921875Q370.65625 80.28125 371.0 80.5Q371.35938 80.71875 371.90625 80.71875Q372.34375 80.71875 372.65625 80.546875Q372.98438 80.359375 373.1875 80.046875Q373.39062 79.71875 373.48438 79.296875Q373.59375 78.875 373.59375 78.40625ZM377.40625 72.5L377.40625 81.5L376.32812 81.5L376.32812 72.5L377.40625 72.5ZM377.15625 78.09375L376.70312 78.078125Q376.70312 77.421875 376.89062 76.875Q377.07812 76.3125 377.42188 75.90625Q377.76562 75.5 378.23438 75.28125Q378.70312 75.046875 379.28125 75.046875Q379.75 75.046875 380.125 75.171875Q380.5 75.296875 380.76562 75.578125Q381.03125 75.84375 381.17188 76.28125Q381.3125 76.71875 381.3125 77.34375L381.3125 81.5L380.21875 81.5L380.21875 77.328125Q380.21875 76.828125 380.07812 76.53125Q379.9375 76.234375 379.65625 76.09375Q379.375 75.953125 378.95312 75.953125Q378.54688 75.953125 378.21875 76.125Q377.89062 76.296875 377.65625 76.59375Q377.42188 76.890625 377.28125 77.28125Q377.15625 77.65625 377.15625 78.09375ZM385.10938 80.84375L386.875 75.15625L388.03125 75.15625L385.48438 82.484375Q385.40625 82.71875 385.25 82.984375Q385.10938 83.265625 384.89062 83.5Q384.67188 83.75 384.35938 83.90625Q384.04688 84.0625 383.60938 84.0625Q383.48438 84.0625 383.28125 84.015625Q383.07812 83.984375 383.0 83.96875L383.0 83.09375Q383.04688 83.09375 383.14062 83.09375Q383.25 83.109375 383.28125 83.109375Q383.65625 83.109375 383.90625 83.015625Q384.17188 82.921875 384.34375 82.6875Q384.53125 82.46875 384.65625 82.078125L385.10938 80.84375ZM383.8125 75.15625L385.45312 80.078125L385.73438 81.21875L384.96875 81.625L382.625 75.15625L383.8125 75.15625ZM390.5 72.5L390.5 81.5L389.42188 81.5L389.42188 72.5L390.5 72.5ZM393.5 72.5L393.5 81.5L392.42188 81.5L392.42188 72.5L393.5 72.5ZM397.95312 81.625Q397.29688 81.625 396.75 81.40625Q396.21875 81.171875 395.82812 80.765625Q395.45312 80.34375 395.25 79.78125Q395.04688 79.21875 395.04688 78.546875L395.04688 78.3125Q395.04688 77.53125 395.26562 76.921875Q395.5 76.3125 395.89062 75.890625Q396.28125 75.46875 396.78125 75.265625Q397.28125 75.046875 397.8125 75.046875Q398.5 75.046875 398.98438 75.28125Q399.48438 75.515625 399.79688 75.9375Q400.125 76.34375 400.26562 76.921875Q400.42188 77.484375 400.42188 78.140625L400.42188 78.640625L395.6875 78.640625L395.6875 77.75L399.34375 77.75L399.34375 77.671875Q399.3125 77.25 399.15625 76.859375Q399.01562 76.453125 398.6875 76.203125Q398.375 75.9375 397.8125 75.9375Q397.45312 75.9375 397.14062 76.09375Q396.82812 76.25 396.59375 76.5625Q396.375 76.859375 396.25 77.296875Q396.14062 77.734375 396.14062 78.3125L396.14062 78.546875Q396.14062 79.0 396.26562 79.40625Q396.39062 79.796875 396.625 80.09375Q396.875 80.390625 397.21875 80.5625Q397.57812 80.734375 398.01562 80.734375Q398.59375 80.734375 398.98438 80.5Q399.39062 80.265625 399.6875 79.875L400.34375 80.390625Q400.14062 80.703125 399.8125 80.984375Q399.5 81.265625 399.03125 81.453125Q398.57812 81.625 397.95312 81.625ZM402.40625 76.515625L402.40625 81.5L401.32812 81.5L401.32812 75.15625L402.35938 75.15625L402.40625 76.515625ZM402.15625 78.09375L401.70312 78.078125Q401.70312 77.421875 401.89062 76.875Q402.07812 76.3125 402.42188 75.90625Q402.76562 75.5 403.23438 75.28125Q403.70312 75.046875 404.28125 75.046875Q404.75 75.046875 405.125 75.171875Q405.5 75.296875 405.76562 75.578125Q406.03125 75.84375 406.17188 76.28125Q406.3125 76.71875 406.3125 77.34375L406.3125 81.5L405.21875 81.5L405.21875 77.328125Q405.21875 76.828125 405.07812 76.53125Q404.9375 76.234375 404.65625 76.09375Q404.375 75.953125 403.95312 75.953125Q403.54688 75.953125 403.21875 76.125Q402.89062 76.296875 402.65625 76.59375Q402.42188 76.890625 402.28125 77.28125Q402.15625 77.65625 402.15625 78.09375Z" fill-rule="nonzero"/><path stroke="#cccccc" stroke-width="1.0" stroke-linecap="butt" d="M372.0 305.0L547.0 204.0" fill-rule="nonzero"/><path fill="#000000" d="M553.6719 194.57812L553.6719 195.5L549.40625 195.5L549.40625 194.57812L553.6719 194.57812ZM549.625 186.96875L549.625 195.5L548.4844 195.5L548.4844 186.96875L549.625 186.96875ZM555.5 189.15625L555.5 195.5L554.4219 195.5L554.4219 189.15625L555.5 189.15625ZM554.3281 187.48438Q554.3281 187.21875 554.4844 187.03125Q554.65625 186.84375 554.96875 186.84375Q555.28125 186.84375 555.4375 187.03125Q555.6094 187.21875 555.6094 187.48438Q555.6094 187.73438 555.4375 187.92188Q555.28125 188.09375 554.96875 188.09375Q554.65625 188.09375 554.4844 187.92188Q554.3281 187.73438 554.3281 187.48438ZM558.40625 190.51562L558.40625 195.5L557.3281 195.5L557.3281 189.15625L558.3594 189.15625L558.40625 190.51562ZM558.15625 192.09375L557.7031 192.07812Q557.7031 191.42188 557.8906 190.875Q558.0781 190.3125 558.4219 189.90625Q558.7656 189.5 559.2344 189.28125Q559.7031 189.04688 560.28125 189.04688Q560.75 189.04688 561.125 189.17188Q561.5 189.29688 561.7656 189.57812Q562.03125 189.84375 562.1719 190.28125Q562.3125 190.71875 562.3125 191.34375L562.3125 195.5L561.21875 195.5L561.21875 191.32812Q561.21875 190.82812 561.0781 190.53125Q560.9375 190.23438 560.65625 190.09375Q560.375 189.95312 559.9531 189.95312Q559.5469 189.95312 559.21875 190.125Q558.8906 190.29688 558.65625 190.59375Q558.4219 190.89062 558.28125 191.28125Q558.15625 191.65625 558.15625 192.09375ZM568.0625 194.42188L568.0625 191.15625Q568.0625 190.78125 567.90625 190.5Q567.7656 190.21875 567.46875 190.07812Q567.1719 189.92188 566.7344 189.92188Q566.3125 189.92188 566.0 190.0625Q565.7031 190.20312 565.53125 190.4375Q565.3594 190.65625 565.3594 190.92188L564.28125 190.92188Q564.28125 190.57812 564.4531 190.25Q564.625 189.90625 564.9531 189.64062Q565.28125 189.35938 565.75 189.20312Q566.21875 189.04688 566.7969 189.04688Q567.4844 189.04688 568.0156 189.28125Q568.5469 189.51562 568.84375 189.98438Q569.15625 190.45312 569.15625 191.15625L569.15625 194.10938Q569.15625 194.4375 569.2031 194.79688Q569.2656 195.14062 569.375 195.40625L569.375 195.5L568.2344 195.5Q568.15625 195.3125 568.1094 195.0Q568.0625 194.6875 568.0625 194.42188ZM568.25 191.65625L568.2656 192.42188L567.1719 192.42188Q566.7031 192.42188 566.34375 192.5Q565.9844 192.5625 565.7344 192.71875Q565.4844 192.85938 565.3594 193.07812Q565.2344 193.29688 565.2344 193.59375Q565.2344 193.89062 565.3594 194.14062Q565.5 194.375 565.7656 194.53125Q566.0469 194.67188 566.4375 194.67188Q566.9375 194.67188 567.3125 194.46875Q567.7031 194.25 567.9219 193.95312Q568.15625 193.64062 568.1719 193.34375L568.6406 193.875Q568.59375 194.10938 568.40625 194.42188Q568.2344 194.71875 567.9219 195.0Q567.625 195.26562 567.2031 195.45312Q566.7969 195.625 566.28125 195.625Q565.6406 195.625 565.15625 195.375Q564.6719 195.10938 564.40625 194.6875Q564.1406 194.26562 564.1406 193.73438Q564.1406 193.21875 564.3281 192.84375Q564.53125 192.45312 564.90625 192.1875Q565.28125 191.92188 565.8125 191.79688Q566.34375 191.65625 567.0 191.65625L568.25 191.65625ZM572.5 186.5L572.5 195.5L571.4219 195.5L571.4219 186.5L572.5 186.5ZM574.0469 192.40625L574.0469 192.26562Q574.0469 191.57812 574.2344 191.0Q574.4375 190.40625 574.8125 189.96875Q575.1875 189.53125 575.71875 189.29688Q576.25 189.04688 576.9219 189.04688Q577.5781 189.04688 578.1094 189.29688Q578.65625 189.53125 579.03125 189.96875Q579.40625 190.40625 579.6094 191.0Q579.8125 191.57812 579.8125 192.26562L579.8125 192.40625Q579.8125 193.07812 579.6094 193.67188Q579.40625 194.25 579.03125 194.6875Q578.65625 195.125 578.125 195.375Q577.59375 195.625 576.9219 195.625Q576.2656 195.625 575.71875 195.375Q575.1875 195.125 574.8125 194.6875Q574.4375 194.25 574.2344 193.67188Q574.0469 193.07812 574.0469 192.40625ZM575.125 192.26562L575.125 192.40625Q575.125 192.875 575.2344 193.29688Q575.34375 193.71875 575.5625 194.04688Q575.7969 194.35938 576.1406 194.54688Q576.4844 194.71875 576.9219 194.71875Q577.375 194.71875 577.7031 194.54688Q578.0469 194.35938 578.2656 194.04688Q578.5 193.71875 578.6094 193.29688Q578.71875 192.875 578.71875 192.40625L578.71875 192.26562Q578.71875 191.79688 578.6094 191.375Q578.5 190.95312 578.2656 190.64062Q578.0469 190.3125 577.7031 190.125Q577.375 189.9375 576.9219 189.9375Q576.46875 189.9375 576.125 190.125Q575.7969 190.3125 575.5625 190.64062Q575.34375 190.95312 575.2344 191.375Q575.125 191.79688 575.125 192.26562ZM581.0469 192.40625L581.0469 192.26562Q581.0469 191.57812 581.2344 191.0Q581.4375 190.40625 581.8125 189.96875Q582.1875 189.53125 582.71875 189.29688Q583.25 189.04688 583.9219 189.04688Q584.5781 189.04688 585.1094 189.29688Q585.65625 189.53125 586.03125 189.96875Q586.40625 190.40625 586.6094 191.0Q586.8125 191.57812 586.8125 192.26562L586.8125 192.40625Q586.8125 193.07812 586.6094 193.67188Q586.40625 194.25 586.03125 194.6875Q585.65625 195.125 585.125 195.375Q584.59375 195.625 583.9219 195.625Q583.2656 195.625 582.71875 195.375Q582.1875 195.125 581.8125 194.6875Q581.4375 194.25 581.2344 193.67188Q581.0469 193.07812 581.0469 192.40625ZM582.125 192.26562L582.125 192.40625Q582.125 192.875 582.2344 193.29688Q582.34375 193.71875 582.5625 194.04688Q582.7969 194.35938 583.1406 194.54688Q583.4844 194.71875 583.9219 194.71875Q584.375 194.71875 584.7031 194.54688Q585.0469 194.35938 585.2656 194.04688Q585.5 193.71875 585.6094 193.29688Q585.71875 192.875 585.71875 192.40625L585.71875 192.26562Q585.71875 191.79688 585.6094 191.375Q585.5 190.95312 585.2656 190.64062Q585.0469 190.3125 584.7031 190.125Q584.375 189.9375 583.9219 189.9375Q583.46875 189.9375 583.125 190.125Q582.7969 190.3125 582.5625 190.64062Q582.34375 190.95312 582.2344 191.375Q582.125 191.79688 582.125 192.26562ZM589.5 186.5L589.5 195.5L588.4219 195.5L588.4219 186.5L589.5 186.5Z" fill-rule="nonzero"/><path stroke="#cccccc" stroke-width="1.0" stroke-linecap="butt" d="M372.0 305.0L547.0 406.0" fill-rule="nonzero"/><path fill="#000000" d="M551.6719 422.57812L551.6719 423.5L547.40625 423.5L547.40625 422.57812L551.6719 422.57812ZM547.625 414.96875L547.625 423.5L546.4844 423.5L546.4844 414.96875L547.625 414.96875ZM553.5 417.15625L553.5 423.5L552.4219 423.5L552.4219 417.15625L553.5 417.15625ZM552.3281 415.48438Q552.3281 415.21875 552.4844 415.03125Q552.65625 414.84375 552.96875 414.84375Q553.28125 414.84375 553.4375 415.03125Q553.6094 415.21875 553.6094 415.48438Q553.6094 415.73438 553.4375 415.92188Q553.28125 416.09375 552.96875 416.09375Q552.65625 416.09375 552.4844 415.92188Q552.3281 415.73438 552.3281 415.48438ZM556.40625 418.42188L556.40625 423.5L555.3125 423.5L555.3125 417.15625L556.34375 417.15625L556.40625 418.42188ZM556.1875 420.09375L555.6719 420.07812Q555.6875 419.42188 555.84375 418.875Q556.0156 418.3125 556.3281 417.90625Q556.65625 417.5 557.1406 417.28125Q557.625 417.04688 558.25 417.04688Q558.7031 417.04688 559.0781 417.17188Q559.4531 417.29688 559.71875 417.5625Q560.0 417.82812 560.1406 418.25Q560.2969 418.67188 560.2969 419.28125L560.2969 423.5L559.21875 423.5L559.21875 419.32812Q559.21875 418.82812 559.0469 418.53125Q558.8906 418.23438 558.5781 418.09375Q558.28125 417.95312 557.8594 417.95312Q557.3906 417.95312 557.0625 418.125Q556.7344 418.29688 556.5469 418.59375Q556.3594 418.89062 556.2656 419.28125Q556.1875 419.65625 556.1875 420.09375ZM560.2969 419.48438L559.5625 419.71875Q559.5625 419.1875 559.7344 418.71875Q559.90625 418.23438 560.21875 417.85938Q560.5469 417.48438 561.0156 417.26562Q561.4844 417.04688 562.0781 417.04688Q562.59375 417.04688 562.9844 417.1875Q563.3906 417.3125 563.65625 417.59375Q563.9219 417.875 564.0625 418.3125Q564.2031 418.73438 564.2031 419.32812L564.2031 423.5L563.125 423.5L563.125 419.32812Q563.125 418.78125 562.9531 418.5Q562.78125 418.20312 562.4844 418.07812Q562.1875 417.95312 561.7656 417.95312Q561.40625 417.95312 561.125 418.07812Q560.8594 418.20312 560.6719 418.42188Q560.4844 418.625 560.3906 418.90625Q560.2969 419.1875 560.2969 419.48438ZM566.0469 420.40625L566.0469 420.26562Q566.0469 419.57812 566.2344 419.0Q566.4375 418.40625 566.8125 417.96875Q567.1875 417.53125 567.71875 417.29688Q568.25 417.04688 568.9219 417.04688Q569.5781 417.04688 570.1094 417.29688Q570.65625 417.53125 571.03125 417.96875Q571.40625 418.40625 571.6094 419.0Q571.8125 419.57812 571.8125 420.26562L571.8125 420.40625Q571.8125 421.07812 571.6094 421.67188Q571.40625 422.25 571.03125 422.6875Q570.65625 423.125 570.125 423.375Q569.59375 423.625 568.9219 423.625Q568.2656 423.625 567.71875 423.375Q567.1875 423.125 566.8125 422.6875Q566.4375 422.25 566.2344 421.67188Q566.0469 421.07812 566.0469 420.40625ZM567.125 420.26562L567.125 420.40625Q567.125 420.875 567.2344 421.29688Q567.34375 421.71875 567.5625 422.04688Q567.7969 422.35938 568.1406 422.54688Q568.4844 422.71875 568.9219 422.71875Q569.375 422.71875 569.7031 422.54688Q570.0469 422.35938 570.2656 422.04688Q570.5 421.71875 570.6094 421.29688Q570.71875 420.875 570.71875 420.40625L570.71875 420.26562Q570.71875 419.79688 570.6094 419.375Q570.5 418.95312 570.2656 418.64062Q570.0469 418.3125 569.7031 418.125Q569.375 417.9375 568.9219 417.9375Q568.46875 417.9375 568.125 418.125Q567.7969 418.3125 567.5625 418.64062Q567.34375 418.95312 567.2344 419.375Q567.125 419.79688 567.125 420.26562ZM574.40625 418.51562L574.40625 423.5L573.3281 423.5L573.3281 417.15625L574.3594 417.15625L574.40625 418.51562ZM574.15625 420.09375L573.7031 420.07812Q573.7031 419.42188 573.8906 418.875Q574.0781 418.3125 574.4219 417.90625Q574.7656 417.5 575.2344 417.28125Q575.7031 417.04688 576.28125 417.04688Q576.75 417.04688 577.125 417.17188Q577.5 417.29688 577.7656 417.57812Q578.03125 417.84375 578.1719 418.28125Q578.3125 418.71875 578.3125 419.34375L578.3125 423.5L577.21875 423.5L577.21875 419.32812Q577.21875 418.82812 577.0781 418.53125Q576.9375 418.23438 576.65625 418.09375Q576.375 417.95312 575.9531 417.95312Q575.5469 417.95312 575.21875 418.125Q574.8906 418.29688 574.65625 418.59375Q574.4219 418.89062 574.28125 419.28125Q574.15625 419.65625 574.15625 420.09375ZM582.9531 423.625Q582.2969 423.625 581.75 423.40625Q581.21875 423.17188 580.8281 422.76562Q580.4531 422.34375 580.25 421.78125Q580.0469 421.21875 580.0469 420.54688L580.0469 420.3125Q580.0469 419.53125 580.2656 418.92188Q580.5 418.3125 580.8906 417.89062Q581.28125 417.46875 581.78125 417.26562Q582.28125 417.04688 582.8125 417.04688Q583.5 417.04688 583.9844 417.28125Q584.4844 417.51562 584.7969 417.9375Q585.125 418.34375 585.2656 418.92188Q585.4219 419.48438 585.4219 420.14062L585.4219 420.64062L580.6875 420.64062L580.6875 419.75L584.34375 419.75L584.34375 419.67188Q584.3125 419.25 584.15625 418.85938Q584.0156 418.45312 583.6875 418.20312Q583.375 417.9375 582.8125 417.9375Q582.4531 417.9375 582.1406 418.09375Q581.8281 418.25 581.59375 418.5625Q581.375 418.85938 581.25 419.29688Q581.1406 419.73438 581.1406 420.3125L581.1406 420.54688Q581.1406 421.0 581.2656 421.40625Q581.3906 421.79688 581.625 422.09375Q581.875 422.39062 582.21875 422.5625Q582.5781 422.73438 583.0156 422.73438Q583.59375 422.73438 583.9844 422.5Q584.3906 422.26562 584.6875 421.875L585.34375 422.39062Q585.1406 422.70312 584.8125 422.98438Q584.5 423.26562 584.03125 423.45312Q583.5781 423.625 582.9531 423.625ZM587.40625 418.51562L587.40625 423.5L586.3281 423.5L586.3281 417.15625L587.3594 417.15625L587.40625 418.51562ZM587.15625 420.09375L586.7031 420.07812Q586.7031 419.42188 586.8906 418.875Q587.0781 418.3125 587.4219 417.90625Q587.7656 417.5 588.2344 417.28125Q588.7031 417.04688 589.28125 417.04688Q589.75 417.04688 590.125 417.17188Q590.5 417.29688 590.7656 417.57812Q591.03125 417.84375 591.1719 418.28125Q591.3125 418.71875 591.3125 419.34375L591.3125 423.5L590.21875 423.5L590.21875 419.32812Q590.21875 418.82812 590.0781 418.53125Q589.9375 418.23438 589.65625 418.09375Q589.375 417.95312 588.9531 417.95312Q588.5469 417.95312 588.21875 418.125Q587.8906 418.29688 587.65625 418.59375Q587.4219 418.89062 587.28125 419.28125Q587.15625 419.65625 587.15625 420.09375Z" fill-rule="nonzero"/><path stroke="#cccccc" stroke-width="1.0" stroke-linecap="butt" d="M372.0 305.0L372.0 507.0" fill-rule="nonzero"/><path fill="#000000" d="M353.84375 528.96875L354.9375 528.96875L357.73438 535.9219L360.53125 528.96875L361.625 528.96875L358.15625 537.5L357.3125 537.5L353.84375 528.96875ZM353.48438 528.96875L354.45312 528.96875L354.60938 534.1719L354.60938 537.5L353.48438 537.5L353.48438 528.96875ZM361.01562 528.96875L361.98438 528.96875L361.98438 537.5L360.85938 537.5L360.85938 534.1719L361.01562 528.96875ZM365.10938 536.84375L366.875 531.15625L368.03125 531.15625L365.48438 538.4844Q365.40625 538.71875 365.25 538.9844Q365.10938 539.2656 364.89062 539.5Q364.67188 539.75 364.35938 539.90625Q364.04688 540.0625 363.60938 540.0625Q363.48438 540.0625 363.28125 540.0156Q363.07812 539.9844 363.0 539.96875L363.0 539.09375Q363.04688 539.09375 363.14062 539.09375Q363.25 539.1094 363.28125 539.1094Q363.65625 539.1094 363.90625 539.0156Q364.17188 538.9219 364.34375 538.6875Q364.53125 538.46875 364.65625 538.0781L365.10938 536.84375ZM363.8125 531.15625L365.45312 536.0781L365.73438 537.21875L364.96875 537.625L362.625 531.15625L363.8125 531.15625ZM370.40625 532.15625L370.40625 537.5L369.32812 537.5L369.32812 531.15625L370.375 531.15625L370.40625 532.15625ZM372.39062 531.125L372.39062 532.125Q372.25 532.1094 372.125 532.09375Q372.01562 532.0781 371.85938 532.0781Q371.48438 532.0781 371.1875 532.2031Q370.90625 532.3125 370.70312 532.53125Q370.51562 532.7344 370.39062 533.03125Q370.28125 533.3281 370.25 533.6719L369.9375 533.84375Q369.9375 533.2656 370.04688 532.7656Q370.17188 532.2656 370.40625 531.875Q370.65625 531.4844 371.01562 531.2656Q371.39062 531.0469 371.90625 531.0469Q372.03125 531.0469 372.17188 531.0781Q372.32812 531.09375 372.39062 531.125ZM375.85938 536.71875Q376.25 536.71875 376.57812 536.5625Q376.90625 536.40625 377.10938 536.1406Q377.32812 535.8594 377.35938 535.5L378.39062 535.5Q378.35938 536.0625 378.0 536.5469Q377.65625 537.03125 377.09375 537.3281Q376.53125 537.625 375.85938 537.625Q375.15625 537.625 374.625 537.375Q374.09375 537.1094 373.73438 536.6719Q373.39062 536.2344 373.21875 535.6719Q373.04688 535.09375 373.04688 534.4531L373.04688 534.2031Q373.04688 533.5625 373.21875 533.0Q373.39062 532.4219 373.73438 531.9844Q374.09375 531.5469 374.625 531.2969Q375.15625 531.0469 375.85938 531.0469Q376.60938 531.0469 377.15625 531.34375Q377.71875 531.6406 378.03125 532.1719Q378.35938 532.6875 378.39062 533.34375L377.35938 533.34375Q377.32812 532.9531 377.14062 532.6406Q376.95312 532.3125 376.625 532.125Q376.29688 531.9375 375.85938 531.9375Q375.35938 531.9375 375.01562 532.1406Q374.6875 532.3281 374.48438 532.65625Q374.29688 532.9844 374.20312 533.3906Q374.125 533.7969 374.125 534.2031L374.125 534.4531Q374.125 534.875 374.20312 535.28125Q374.29688 535.6719 374.48438 536.0Q374.6875 536.3281 375.01562 536.53125Q375.35938 536.71875 375.85938 536.71875ZM381.95312 537.625Q381.29688 537.625 380.75 537.40625Q380.21875 537.1719 379.82812 536.7656Q379.45312 536.34375 379.25 535.78125Q379.04688 535.21875 379.04688 534.5469L379.04688 534.3125Q379.04688 533.53125 379.26562 532.9219Q379.5 532.3125 379.89062 531.8906Q380.28125 531.46875 380.78125 531.2656Q381.28125 531.0469 381.8125 531.0469Q382.5 531.0469 382.98438 531.28125Q383.48438 531.5156 383.79688 531.9375Q384.125 532.34375 384.26562 532.9219Q384.42188 533.4844 384.42188 534.1406L384.42188 534.6406L379.6875 534.6406L379.6875 533.75L383.34375 533.75L383.34375 533.6719Q383.3125 533.25 383.15625 532.8594Q383.01562 532.4531 382.6875 532.2031Q382.375 531.9375 381.8125 531.9375Q381.45312 531.9375 381.14062 532.09375Q380.82812 532.25 380.59375 532.5625Q380.375 532.8594 380.25 533.2969Q380.14062 533.7344 380.14062 534.3125L380.14062 534.5469Q380.14062 535.0 380.26562 535.40625Q380.39062 535.7969 380.625 536.09375Q380.875 536.3906 381.21875 536.5625Q381.57812 536.7344 382.01562 536.7344Q382.59375 536.7344 382.98438 536.5Q383.39062 536.2656 383.6875 535.875L384.34375 536.3906Q384.14062 536.7031 383.8125 536.9844Q383.5 537.2656 383.03125 537.4531Q382.57812 537.625 381.95312 537.625ZM386.40625 532.5156L386.40625 537.5L385.32812 537.5L385.32812 531.15625L386.35938 531.15625L386.40625 532.5156ZM386.15625 534.09375L385.70312 534.0781Q385.70312 533.4219 385.89062 532.875Q386.07812 532.3125 386.42188 531.90625Q386.76562 531.5 387.23438 531.28125Q387.70312 531.0469 388.28125 531.0469Q388.75 531.0469 389.125 531.1719Q389.5 531.2969 389.76562 531.5781Q390.03125 531.84375 390.17188 532.28125Q390.3125 532.71875 390.3125 533.34375L390.3125 537.5L389.21875 537.5L389.21875 533.3281Q389.21875 532.8281 389.07812 532.53125Q388.9375 532.2344 388.65625 532.09375Q388.375 531.9531 387.95312 531.9531Q387.54688 531.9531 387.21875 532.125Q386.89062 532.2969 386.65625 532.59375Q386.42188 532.8906 386.28125 533.28125Q386.15625 533.65625 386.15625 534.09375Z" fill-rule="nonzero"/><path stroke="#cccccc" stroke-width="1.0" stroke-linecap="butt" d="M372.0 305.0L197.0 406.0" fill-rule="nonzero"/><path fill="#000000" d="M145.59375 420.5625L145.59375 420.4375Q145.59375 419.6875 145.75 419.07812Q145.92188 418.45312 146.23438 418.0Q146.54688 417.54688 147.0 417.29688Q147.46875 417.04688 148.0625 417.04688Q148.51562 417.04688 148.875 417.1875Q149.25 417.3125 149.53125 417.57812Q149.8125 417.82812 150.01562 418.20312Q150.21875 418.57812 150.34375 419.0625Q150.46875 419.53125 150.51562 420.09375L150.51562 420.57812Q150.45312 421.28125 150.26562 421.84375Q150.09375 422.40625 149.79688 422.8125Q149.5 423.20312 149.0625 423.42188Q148.64062 423.625 148.04688 423.625Q147.46875 423.625 147.0 423.40625Q146.54688 423.17188 146.23438 422.76562Q145.92188 422.34375 145.75 421.79688Q145.59375 421.23438 145.59375 420.5625ZM146.67188 420.4375L146.67188 420.5625Q146.67188 421.01562 146.76562 421.40625Q146.85938 421.79688 147.04688 422.09375Q147.25 422.39062 147.5625 422.5625Q147.89062 422.73438 148.32812 422.73438Q148.75 422.73438 149.04688 422.5625Q149.35938 422.375 149.5625 422.07812Q149.78125 421.78125 149.90625 421.39062Q150.04688 421.0 150.14062 420.59375L150.14062 420.20312Q150.07812 419.76562 149.9375 419.375Q149.8125 418.96875 149.59375 418.64062Q149.39062 418.3125 149.07812 418.125Q148.76562 417.9375 148.32812 417.9375Q147.89062 417.9375 147.57812 418.14062Q147.26562 418.32812 147.0625 418.67188Q146.85938 419.01562 146.76562 419.48438Q146.67188 419.9375 146.67188 420.4375ZM149.98438 417.15625L150.90625 417.15625L150.90625 421.76562Q150.90625 422.04688 150.9375 422.21875Q150.96875 422.375 151.03125 422.48438Q151.10938 422.57812 151.1875 422.625Q151.28125 422.65625 151.375 422.65625Q151.42188 422.65625 151.46875 422.64062Q151.53125 422.625 151.5625 422.60938L151.70312 423.42188Q151.51562 423.54688 151.34375 423.57812Q151.17188 423.625 150.98438 423.625Q150.70312 423.625 150.48438 423.51562Q150.28125 423.42188 150.125 423.20312Q149.96875 422.98438 149.89062 422.625Q149.8125 422.26562 149.8125 421.76562L149.8125 418.53125L149.98438 417.15625ZM155.07812 419.42188L155.07812 420.3125L152.21875 420.3125L152.21875 419.42188L155.07812 419.42188ZM161.5625 418.64062L161.5625 419.5625L156.95312 419.5625L156.95312 418.64062L161.5625 418.64062ZM157.125 414.96875L157.125 423.5L155.98438 423.5L155.98438 414.96875L157.125 414.96875ZM162.54688 414.96875L162.54688 423.5L161.42188 423.5L161.42188 414.96875L162.54688 414.96875ZM168.70312 422.03125L168.70312 417.15625L169.79688 417.15625L169.79688 423.5L168.76562 423.5L168.70312 422.03125ZM168.90625 420.70312L169.35938 420.6875Q169.35938 421.3125 169.21875 421.85938Q169.09375 422.39062 168.79688 422.78125Q168.51562 423.17188 168.03125 423.40625Q167.5625 423.625 166.89062 423.625Q166.42188 423.625 166.03125 423.48438Q165.65625 423.34375 165.375 423.0625Q165.10938 422.78125 164.95312 422.32812Q164.79688 421.875 164.79688 421.25L164.79688 417.15625L165.89062 417.15625L165.89062 421.26562Q165.89062 421.6875 165.98438 421.96875Q166.07812 422.25 166.25 422.40625Q166.42188 422.5625 166.625 422.64062Q166.82812 422.70312 167.04688 422.70312Q167.75 422.70312 168.14062 422.4375Q168.54688 422.15625 168.71875 421.70312Q168.90625 421.25 168.90625 420.70312ZM172.90625 418.42188L172.90625 423.5L171.8125 423.5L171.8125 417.15625L172.84375 417.15625L172.90625 418.42188ZM172.6875 420.09375L172.17188 420.07812Q172.1875 419.42188 172.34375 418.875Q172.51562 418.3125 172.82812 417.90625Q173.15625 417.5 173.64062 417.28125Q174.125 417.04688 174.75 417.04688Q175.20312 417.04688 175.57812 417.17188Q175.95312 417.29688 176.21875 417.5625Q176.5 417.82812 176.64062 418.25Q176.79688 418.67188 176.79688 419.28125L176.79688 423.5L175.71875 423.5L175.71875 419.32812Q175.71875 418.82812 175.54688 418.53125Q175.39062 418.23438 175.07812 418.09375Q174.78125 417.95312 174.35938 417.95312Q173.89062 417.95312 173.5625 418.125Q173.23438 418.29688 173.04688 418.59375Q172.85938 418.89062 172.76562 419.28125Q172.6875 419.65625 172.6875 420.09375ZM176.79688 419.48438L176.0625 419.71875Q176.0625 419.1875 176.23438 418.71875Q176.40625 418.23438 176.71875 417.85938Q177.04688 417.48438 177.51562 417.26562Q177.98438 417.04688 178.57812 417.04688Q179.09375 417.04688 179.48438 417.1875Q179.89062 417.3125 180.15625 417.59375Q180.42188 417.875 180.5625 418.3125Q180.70312 418.73438 180.70312 419.32812L180.70312 423.5L179.625 423.5L179.625 419.32812Q179.625 418.78125 179.45312 418.5Q179.28125 418.20312 178.98438 418.07812Q178.6875 417.95312 178.26562 417.95312Q177.90625 417.95312 177.625 418.07812Q177.35938 418.20312 177.17188 418.42188Q176.98438 418.625 176.89062 418.90625Q176.79688 419.1875 176.79688 419.48438ZM186.70312 422.03125L186.70312 417.15625L187.79688 417.15625L187.79688 423.5L186.76562 423.5L186.70312 422.03125ZM186.90625 420.70312L187.35938 420.6875Q187.35938 421.3125 187.21875 421.85938Q187.09375 422.39062 186.79688 422.78125Q186.51562 423.17188 186.03125 423.40625Q185.5625 423.625 184.89062 423.625Q184.42188 423.625 184.03125 423.48438Q183.65625 423.34375 183.375 423.0625Q183.10938 422.78125 182.95312 422.32812Q182.79688 421.875 182.79688 421.25L182.79688 417.15625L183.89062 417.15625L183.89062 421.26562Q183.89062 421.6875 183.98438 421.96875Q184.07812 422.25 184.25 422.40625Q184.42188 422.5625 184.625 422.64062Q184.82812 422.70312 185.04688 422.70312Q185.75 422.70312 186.14062 422.4375Q186.54688 422.15625 186.71875 421.70312Q186.90625 421.25 186.90625 420.70312ZM191.0 414.5L191.0 423.5L189.92188 423.5L189.92188 414.5L191.0 414.5ZM195.45312 423.625Q194.79688 423.625 194.25 423.40625Q193.71875 423.17188 193.32812 422.76562Q192.95312 422.34375 192.75 421.78125Q192.54688 421.21875 192.54688 420.54688L192.54688 420.3125Q192.54688 419.53125 192.76562 418.92188Q193.0 418.3125 193.39062 417.89062Q193.78125 417.46875 194.28125 417.26562Q194.78125 417.04688 195.3125 417.04688Q196.0 417.04688 196.48438 417.28125Q196.98438 417.51562 197.29688 417.9375Q197.625 418.34375 197.76562 418.92188Q197.92188 419.48438 197.92188 420.14062L197.92188 420.64062L193.1875 420.64062L193.1875 419.75L196.84375 419.75L196.84375 419.67188Q196.8125 419.25 196.65625 418.85938Q196.51562 418.45312 196.1875 418.20312Q195.875 417.9375 195.3125 417.9375Q194.95312 417.9375 194.64062 418.09375Q194.32812 418.25 194.09375 418.5625Q193.875 418.85938 193.75 419.29688Q193.64062 419.73438 193.64062 420.3125L193.64062 420.54688Q193.64062 421.0 193.76562 421.40625Q193.89062 421.79688 194.125 422.09375Q194.375 422.39062 194.71875 422.5625Q195.07812 422.73438 195.51562 422.73438Q196.09375 422.73438 196.48438 422.5Q196.89062 422.26562 197.1875 421.875L197.84375 422.39062Q197.64062 422.70312 197.3125 422.98438Q197.0 423.26562 196.53125 423.45312Q196.07812 423.625 195.45312 423.625ZM199.90625 418.51562L199.90625 423.5L198.82812 423.5L198.82812 417.15625L199.85938 417.15625L199.90625 418.51562ZM199.65625 420.09375L199.20312 420.07812Q199.20312 419.42188 199.39062 418.875Q199.57812 418.3125 199.92188 417.90625Q200.26562 417.5 200.73438 417.28125Q201.20312 417.04688 201.78125 417.04688Q202.25 417.04688 202.625 417.17188Q203.0 417.29688 203.26562 417.57812Q203.53125 417.84375 203.67188 418.28125Q203.8125 418.71875 203.8125 419.34375L203.8125 423.5L202.71875 423.5L202.71875 419.32812Q202.71875 418.82812 202.57812 418.53125Q202.4375 418.23438 202.15625 418.09375Q201.875 417.95312 201.45312 417.95312Q201.04688 417.95312 200.71875 418.125Q200.39062 418.29688 200.15625 418.59375Q199.92188 418.89062 199.78125 419.28125Q199.65625 419.65625 199.65625 420.09375Z" fill-rule="nonzero"/><path stroke="#cccccc" stroke-width="1.0" stroke-linecap="butt" d="M372.0 305.0L197.0 204.0" fill-rule="nonzero"/><path fill="#000000" d="M157.03125 193.34375Q157.03125 193.04688 156.9375 192.8125Q156.85938 192.57812 156.625 192.39062Q156.40625 192.20312 156.0 192.03125Q155.60938 191.85938 155.01562 191.6875Q154.375 191.5 153.85938 191.28125Q153.35938 191.04688 152.98438 190.75Q152.625 190.4375 152.4375 190.0625Q152.25 189.67188 152.25 189.17188Q152.25 188.67188 152.45312 188.25Q152.65625 187.82812 153.03125 187.51562Q153.42188 187.20312 153.95312 187.03125Q154.48438 186.84375 155.14062 186.84375Q156.10938 186.84375 156.78125 187.21875Q157.45312 187.57812 157.79688 188.17188Q158.15625 188.76562 158.15625 189.42188L157.03125 189.42188Q157.03125 188.95312 156.8125 188.57812Q156.60938 188.20312 156.1875 188.0Q155.78125 187.78125 155.14062 187.78125Q154.54688 187.78125 154.14062 187.96875Q153.75 188.14062 153.5625 188.45312Q153.375 188.76562 153.375 189.15625Q153.375 189.42188 153.48438 189.65625Q153.60938 189.875 153.84375 190.0625Q154.09375 190.25 154.46875 190.40625Q154.84375 190.5625 155.375 190.70312Q156.09375 190.90625 156.625 191.17188Q157.15625 191.42188 157.5 191.73438Q157.84375 192.04688 158.0 192.4375Q158.17188 192.82812 158.17188 193.32812Q158.17188 193.85938 157.95312 194.28125Q157.75 194.70312 157.35938 195.0Q156.96875 195.29688 156.42188 195.46875Q155.875 195.625 155.20312 195.625Q154.60938 195.625 154.03125 195.45312Q153.46875 195.28125 153.0 194.95312Q152.53125 194.625 152.25 194.15625Q151.96875 193.67188 151.96875 193.03125L153.09375 193.03125Q153.09375 193.46875 153.26562 193.78125Q153.4375 194.09375 153.73438 194.29688Q154.03125 194.5 154.40625 194.60938Q154.78125 194.70312 155.20312 194.70312Q155.79688 194.70312 156.20312 194.54688Q156.60938 194.375 156.8125 194.07812Q157.03125 193.76562 157.03125 193.34375ZM159.04688 192.40625L159.04688 192.26562Q159.04688 191.57812 159.23438 191.0Q159.4375 190.40625 159.8125 189.96875Q160.1875 189.53125 160.71875 189.29688Q161.25 189.04688 161.92188 189.04688Q162.57812 189.04688 163.10938 189.29688Q163.65625 189.53125 164.03125 189.96875Q164.40625 190.40625 164.60938 191.0Q164.8125 191.57812 164.8125 192.26562L164.8125 192.40625Q164.8125 193.07812 164.60938 193.67188Q164.40625 194.25 164.03125 194.6875Q163.65625 195.125 163.125 195.375Q162.59375 195.625 161.92188 195.625Q161.26562 195.625 160.71875 195.375Q160.1875 195.125 159.8125 194.6875Q159.4375 194.25 159.23438 193.67188Q159.04688 193.07812 159.04688 192.40625ZM160.125 192.26562L160.125 192.40625Q160.125 192.875 160.23438 193.29688Q160.34375 193.71875 160.5625 194.04688Q160.79688 194.35938 161.14062 194.54688Q161.48438 194.71875 161.92188 194.71875Q162.375 194.71875 162.70312 194.54688Q163.04688 194.35938 163.26562 194.04688Q163.5 193.71875 163.60938 193.29688Q163.71875 192.875 163.71875 192.40625L163.71875 192.26562Q163.71875 191.79688 163.60938 191.375Q163.5 190.95312 163.26562 190.64062Q163.04688 190.3125 162.70312 190.125Q162.375 189.9375 161.92188 189.9375Q161.46875 189.9375 161.125 190.125Q160.79688 190.3125 160.5625 190.64062Q160.34375 190.95312 160.23438 191.375Q160.125 191.79688 160.125 192.26562ZM167.40625 190.51562L167.40625 195.5L166.32812 195.5L166.32812 189.15625L167.35938 189.15625L167.40625 190.51562ZM167.15625 192.09375L166.70312 192.07812Q166.70312 191.42188 166.89062 190.875Q167.07812 190.3125 167.42188 189.90625Q167.76562 189.5 168.23438 189.28125Q168.70312 189.04688 169.28125 189.04688Q169.75 189.04688 170.125 189.17188Q170.5 189.29688 170.76562 189.57812Q171.03125 189.84375 171.17188 190.28125Q171.3125 190.71875 171.3125 191.34375L171.3125 195.5L170.21875 195.5L170.21875 191.32812Q170.21875 190.82812 170.07812 190.53125Q169.9375 190.23438 169.65625 190.09375Q169.375 189.95312 168.95312 189.95312Q168.54688 189.95312 168.21875 190.125Q167.89062 190.29688 167.65625 190.59375Q167.42188 190.89062 167.28125 191.28125Q167.15625 191.65625 167.15625 192.09375ZM177.01562 193.8125Q177.01562 193.57812 176.90625 193.375Q176.8125 193.17188 176.5 193.01562Q176.1875 192.84375 175.5625 192.71875Q175.03125 192.60938 174.60938 192.46875Q174.1875 192.3125 173.89062 192.09375Q173.59375 191.875 173.4375 191.57812Q173.28125 191.28125 173.28125 190.89062Q173.28125 190.51562 173.4375 190.1875Q173.60938 189.84375 173.90625 189.59375Q174.21875 189.32812 174.65625 189.1875Q175.09375 189.04688 175.625 189.04688Q176.39062 189.04688 176.92188 189.3125Q177.46875 189.57812 177.75 190.03125Q178.03125 190.48438 178.03125 191.01562L176.95312 191.01562Q176.95312 190.76562 176.79688 190.51562Q176.64062 190.26562 176.34375 190.10938Q176.04688 189.9375 175.625 189.9375Q175.17188 189.9375 174.89062 190.07812Q174.60938 190.20312 174.48438 190.42188Q174.35938 190.625 174.35938 190.85938Q174.35938 191.04688 174.42188 191.1875Q174.48438 191.3125 174.64062 191.4375Q174.79688 191.54688 175.07812 191.65625Q175.375 191.75 175.82812 191.84375Q176.60938 192.01562 177.10938 192.26562Q177.60938 192.51562 177.85938 192.875Q178.10938 193.21875 178.10938 193.73438Q178.10938 194.15625 177.92188 194.5Q177.75 194.84375 177.42188 195.09375Q177.10938 195.34375 176.65625 195.48438Q176.20312 195.625 175.65625 195.625Q174.8125 195.625 174.23438 195.32812Q173.65625 195.01562 173.35938 194.54688Q173.0625 194.0625 173.0625 193.54688L174.14062 193.54688Q174.17188 193.98438 174.40625 194.25Q174.64062 194.51562 174.96875 194.625Q175.3125 194.71875 175.65625 194.71875Q176.09375 194.71875 176.39062 194.60938Q176.70312 194.48438 176.85938 194.28125Q177.01562 194.07812 177.01562 193.8125ZM181.98438 189.15625L181.98438 189.98438L178.54688 189.98438L178.54688 189.15625L181.98438 189.15625ZM179.71875 187.625L180.79688 187.625L180.79688 193.92188Q180.79688 194.25 180.89062 194.42188Q181.0 194.57812 181.15625 194.64062Q181.3125 194.6875 181.5 194.6875Q181.625 194.6875 181.76562 194.65625Q181.92188 194.625 182.0 194.60938L182.01562 195.5Q181.875 195.54688 181.67188 195.57812Q181.46875 195.625 181.17188 195.625Q180.78125 195.625 180.4375 195.46875Q180.10938 195.29688 179.90625 194.9375Q179.71875 194.5625 179.71875 193.92188L179.71875 187.625ZM184.5 189.15625L184.5 195.5L183.42188 195.5L183.42188 189.15625L184.5 189.15625ZM183.32812 187.48438Q183.32812 187.21875 183.48438 187.03125Q183.65625 186.84375 183.96875 186.84375Q184.28125 186.84375 184.4375 187.03125Q184.60938 187.21875 184.60938 187.48438Q184.60938 187.73438 184.4375 187.92188Q184.28125 188.09375 183.96875 188.09375Q183.65625 188.09375 183.48438 187.92188Q183.32812 187.73438 183.32812 187.48438ZM190.4375 189.15625L191.42188 189.15625L191.42188 195.35938Q191.42188 196.20312 191.07812 196.79688Q190.73438 197.39062 190.125 197.6875Q189.53125 198.0 188.73438 198.0Q188.40625 198.0 187.95312 197.89062Q187.51562 197.79688 187.09375 197.54688Q186.67188 197.3125 186.39062 196.90625L186.95312 196.25Q187.35938 196.73438 187.78125 196.92188Q188.21875 197.10938 188.65625 197.10938Q189.17188 197.10938 189.54688 196.90625Q189.92188 196.71875 190.125 196.34375Q190.32812 195.96875 190.32812 195.42188L190.32812 190.54688L190.4375 189.15625ZM186.0625 192.40625L186.0625 192.28125Q186.0625 191.54688 186.23438 190.95312Q186.42188 190.35938 186.73438 189.9375Q187.0625 189.5 187.51562 189.28125Q187.98438 189.04688 188.57812 189.04688Q189.17188 189.04688 189.60938 189.25Q190.0625 189.45312 190.375 189.85938Q190.6875 190.25 190.875 190.8125Q191.0625 191.35938 191.125 192.0625L191.125 192.60938Q191.0625 193.29688 190.875 193.85938Q190.6875 194.42188 190.375 194.8125Q190.0625 195.20312 189.60938 195.42188Q189.15625 195.625 188.5625 195.625Q187.98438 195.625 187.53125 195.39062Q187.07812 195.14062 186.75 194.70312Q186.42188 194.26562 186.23438 193.6875Q186.0625 193.09375 186.0625 192.40625ZM187.15625 192.28125L187.15625 192.40625Q187.15625 192.875 187.25 193.29688Q187.34375 193.70312 187.54688 194.03125Q187.75 194.34375 188.0625 194.53125Q188.39062 194.70312 188.82812 194.70312Q189.35938 194.70312 189.70312 194.46875Q190.0625 194.23438 190.26562 193.85938Q190.48438 193.48438 190.59375 193.04688L190.59375 191.64062Q190.53125 191.3125 190.39062 191.01562Q190.26562 190.71875 190.0625 190.48438Q189.85938 190.23438 189.54688 190.09375Q189.25 189.95312 188.82812 189.95312Q188.39062 189.95312 188.0625 190.14062Q187.75 190.32812 187.54688 190.65625Q187.34375 190.96875 187.25 191.39062Q187.15625 191.79688 187.15625 192.28125ZM195.95312 195.625Q195.29688 195.625 194.75 195.40625Q194.21875 195.17188 193.82812 194.76562Q193.45312 194.34375 193.25 193.78125Q193.04688 193.21875 193.04688 192.54688L193.04688 192.3125Q193.04688 191.53125 193.26562 190.92188Q193.5 190.3125 193.89062 189.89062Q194.28125 189.46875 194.78125 189.26562Q195.28125 189.04688 195.8125 189.04688Q196.5 189.04688 196.98438 189.28125Q197.48438 189.51562 197.79688 189.9375Q198.125 190.34375 198.26562 190.92188Q198.42188 191.48438 198.42188 192.14062L198.42188 192.64062L193.6875 192.64062L193.6875 191.75L197.34375 191.75L197.34375 191.67188Q197.3125 191.25 197.15625 190.85938Q197.01562 190.45312 196.6875 190.20312Q196.375 189.9375 195.8125 189.9375Q195.45312 189.9375 195.14062 190.09375Q194.82812 190.25 194.59375 190.5625Q194.375 190.85938 194.25 191.29688Q194.14062 191.73438 194.14062 192.3125L194.14062 192.54688Q194.14062 193.0 194.26562 193.40625Q194.39062 193.79688 194.625 194.09375Q194.875 194.39062 195.21875 194.5625Q195.57812 194.73438 196.01562 194.73438Q196.59375 194.73438 196.98438 194.5Q197.39062 194.26562 197.6875 193.875L198.34375 194.39062Q198.14062 194.70312 197.8125 194.98438Q197.5 195.26562 197.03125 195.45312Q196.57812 195.625 195.95312 195.625Z" fill-rule="nonzero"/><path stroke="#cccccc" stroke-width="1.0" stroke-linecap="butt" d="M372.0 305.0L372.0 103.0" fill-rule="nonzero"/><path stroke="#ff0000" stroke-width="2.0" stroke-linecap="butt" stroke-opacity="0.7019608" stroke-dasharray="8.0,6.0,2.0,6.0" d="M372.0 53.0L529.0 214.0L503.0 381.0L372.0 396.0L302.0 345.0L154.0 179.0Z" fill-rule="nonzero"/><path fill="#ff0000" fill-opacity="0.7019608" d="M368.81802 49.81802L372.0 51.875L375.18198 49.81802L373.125 53.0L375.18198 56.18198L372.0 54.125L368.81802 56.18198L370.875 53.0Z" fill-rule="nonzero"/><path fill="#ff0000" fill-opacity="0.7019608" d="M525.818 210.81802L529.0 212.875L532.182 210.81802L530.125 214.0L532.182 217.18198L529.0 215.125L525.818 217.18198L527.875 214.0Z" fill-rule="nonzero"/><path fill="#ff0000" fill-opacity="0.7019608" d="M499.81802 377.81802L503.0 379.875L506.18198 377.81802L504.125 381.0L506.18198 384.18198L503.0 382.125L499.81802 384.18198L501.875 381.0Z" fill-rule="nonzero"/><path fill="#ff0000" fill-opacity="0.7019608" d="M368.81802 392.81802L372.0 394.875L375.18198 392.81802L373.125 396.0L375.18198 399.18198L372.0 397.125L368.81802 399.18198L370.875 396.0Z" fill-rule="nonzero"/><path fill="#ff0000" fill-opacity="0.7019608" d="M298.81802 341.81802L302.0 343.875L305.18198 341.81802L303.125 345.0L305.18198 348.18198L302.0 346.125L298.81802 348.18198L300.875 345.0Z" fill-rule="nonzero"/><path fill="#ff0000" fill-opacity="0.7019608" d="M150.81802 175.81802L154.0 177.875L157.18198 175.81802L155.125 179.0L157.18198 182.18198L154.0 180.125L150.81802 182.18198L152.875 179.0Z" fill-rule="nonzero"/><path fill="#757575" d="M29.896875 47.35L29.896875 33.0375L35.2875 33.0375Q36.725 33.0375 37.475 33.1625Q38.521873 33.35 39.240623 33.85Q39.959373 34.334373 40.38125 35.225Q40.81875 36.115623 40.81875 37.178123Q40.81875 39.00625 39.646873 40.271873Q38.490623 41.521873 35.459373 41.521873L31.7875 41.521873L31.7875 47.35L29.896875 47.35ZM31.7875 39.834373L35.490623 39.834373Q37.31875 39.834373 38.084373 39.1625Q38.865623 38.475 38.865623 37.225Q38.865623 36.334373 38.4125 35.69375Q37.959373 35.053123 37.225 34.85Q36.740623 34.725 35.44375 34.725L31.7875 34.725L31.7875 39.834373ZM42.63125 47.35L42.63125 33.0375L44.38125 33.0375L44.38125 47.35L42.63125 47.35ZM53.459373 47.35L53.459373 45.81875Q52.25625 47.584373 50.178123 47.584373Q49.25625 47.584373 48.459373 47.240623Q47.6625 46.88125 47.271873 46.35Q46.896873 45.81875 46.740623 45.0375Q46.63125 44.521873 46.63125 43.396873L46.63125 36.975L48.38125 36.975L48.38125 42.725Q48.38125 44.1 48.490623 44.584373Q48.6625 45.271873 49.19375 45.678123Q49.740623 46.06875 50.521873 46.06875Q51.31875 46.06875 52.00625 45.6625Q52.709373 45.25625 52.990623 44.56875Q53.2875 43.865623 53.2875 42.5375L53.2875 36.975L55.0375 36.975L55.0375 47.35L53.459373 47.35ZM56.6625 47.35L56.6625 36.975L58.240623 36.975L58.240623 38.428123Q58.725 37.678123 59.5375 37.209373Q60.35 36.740623 61.38125 36.740623Q62.5375 36.740623 63.271873 37.225Q64.00625 37.69375 64.31875 38.553123Q65.55312 36.740623 67.52187 36.740623Q69.06875 36.740623 69.89687 37.6Q70.725 38.459373 70.725 40.225L70.725 47.35L68.975 47.35L68.975 40.81875Q68.975 39.75625 68.80312 39.303123Q68.63125 38.834373 68.17812 38.553123Q67.74062 38.271873 67.13125 38.271873Q66.0375 38.271873 65.30312 39.00625Q64.58437 39.725 64.58437 41.31875L64.58437 47.35L62.834373 47.35L62.834373 40.615623Q62.834373 39.44375 62.396873 38.865623Q61.975 38.271873 60.990623 38.271873Q60.25625 38.271873 59.615623 38.6625Q58.990623 39.053123 58.709373 39.803123Q58.428123 40.553123 58.428123 41.975L58.428123 47.35L56.6625 47.35ZM78.89687 47.35L78.89687 33.0375L83.81875 33.0375Q85.49062 33.0375 86.38125 33.240623Q87.6 33.521873 88.475 34.25625Q89.6 35.225 90.1625 36.709373Q90.725 38.19375 90.725 40.115623Q90.725 41.740623 90.35 43.00625Q89.975 44.25625 89.36562 45.084373Q88.77187 45.9125 88.06875 46.396873Q87.36562 46.865623 86.36562 47.115623Q85.36562 47.35 84.05312 47.35L78.89687 47.35ZM80.7875 45.6625L83.85 45.6625Q85.25625 45.6625 86.05312 45.396873Q86.86562 45.13125 87.35 44.646873Q88.02187 43.975 88.39687 42.85Q88.77187 41.709373 88.77187 40.084373Q88.77187 37.834373 88.0375 36.63125Q87.30312 35.428123 86.24062 35.021873Q85.49062 34.725 83.80312 34.725L80.7875 34.725L80.7875 45.6625ZM92.64687 47.35L92.64687 36.975L94.225 36.975L94.225 38.553123Q94.83437 37.44375 95.35 37.1Q95.86562 36.740623 96.475 36.740623Q97.36562 36.740623 98.2875 37.303123L97.67812 38.94375Q97.0375 38.553123 96.39687 38.553123Q95.81875 38.553123 95.35 38.9125Q94.89687 39.25625 94.69375 39.865623Q94.4125 40.803123 94.4125 41.9125L94.4125 47.35L92.64687 47.35ZM99.67812 35.053123L99.67812 33.0375L101.44375 33.0375L101.44375 35.053123L99.67812 35.053123ZM99.67812 47.35L99.67812 36.975L101.44375 36.975L101.44375 47.35L99.67812 47.35ZM106.55312 47.35L102.6 36.975L104.45937 36.975L106.69375 43.19375Q107.05312 44.19375 107.35 45.271873Q107.58437 44.459373 108.00625 43.303123L110.30312 36.975L112.11562 36.975L108.19375 47.35L106.55312 47.35ZM119.77187 44.00625L121.58437 44.240623Q121.1625 45.81875 119.99062 46.709373Q118.83437 47.584373 117.02187 47.584373Q114.75625 47.584373 113.4125 46.19375Q112.08437 44.7875 112.08437 42.25625Q112.08437 39.63125 113.42812 38.19375Q114.77187 36.740623 116.92812 36.740623Q119.00625 36.740623 120.31875 38.1625Q121.64687 39.56875 121.64687 42.146873Q121.64687 42.303123 121.63125 42.615623L113.89687 42.615623Q113.99062 44.31875 114.86562 45.225Q115.74062 46.13125 117.0375 46.13125Q118.00625 46.13125 118.67812 45.63125Q119.36562 45.115623 119.77187 44.00625ZM113.99062 41.1625L119.7875 41.1625Q119.67812 39.865623 119.13125 39.209373Q118.2875 38.19375 116.94375 38.19375Q115.74062 38.19375 114.9125 39.00625Q114.08437 39.803123 113.99062 41.1625ZM123.64687 47.35L123.64687 36.975L125.225 36.975L125.225 38.553123Q125.83437 37.44375 126.35 37.1Q126.86562 36.740623 127.475 36.740623Q128.36563 36.740623 129.2875 37.303123L128.67813 38.94375Q128.0375 38.553123 127.39687 38.553123Q126.81875 38.553123 126.35 38.9125Q125.89687 39.25625 125.69375 39.865623Q125.4125 40.803123 125.4125 41.9125L125.4125 47.35L123.64687 47.35Z" fill-rule="nonzero"/></svg>