<svg version="1.1" viewBox="0.0 0.0 744.0 567.0" fill="none" stroke="none" stroke-linecap="square" stroke-miterlimit="10" width="744" height="567" xmlns:xlink="http://www.w3.org/1999/xlink" xmlns="http://www.w3.org/2000/svg"><path fill="#ffffff" d="M0 0L744.0 0L744.0 567.0L0 567.0L0 0Z" fill-rule="nonzero"/><path fill="#ffffff" d="M28.35 71.25L715.64996 71.25L715.64996 538.65L28.35 538.65L28.35 71.25Z" fill-rule="nonzero"/><path stroke="#cccccc" stroke-width="1.0" stroke-linecap="butt" d="M372.0 305.0C372.0 305.0 372.0 305.0 372.0 305.0C372.0 305.0 372.0 305.0 372.0 305.0C372.0 305.0 372.0 305.0 372.0 305.0C372.0 305.0 372.0 305.0 372.0 305.0" fill-rule="nonzero"/><path fill="#000000" d="M360.0625 297.04688L360.0625 298.35938Q360.0625 299.40625 359.875 300.125Q359.6875 300.84375 359.32812 301.28125Q358.98438 301.71875 358.48438 301.92188Q358.0 302.125 357.375 302.125Q356.89062 302.125 356.46875 302.0Q356.04688 301.875 355.71875 301.60938Q355.39062 301.32812 355.15625 300.89062Q354.92188 300.45312 354.79688 299.82812Q354.67188 299.1875 354.67188 298.35938L354.67188 297.04688Q354.67188 296.0 354.85938 295.29688Q355.0625 294.59375 355.40625 294.15625Q355.76562 293.71875 356.25 293.53125Q356.75 293.34375 357.35938 293.34375Q357.85938 293.34375 358.28125 293.46875Q358.70312 293.59375 359.03125 293.85938Q359.35938 294.10938 359.57812 294.54688Q359.8125 294.96875 359.9375 295.59375Q360.0625 296.21875 360.0625 297.04688ZM358.96875 298.53125L358.96875 296.875Q358.96875 296.29688 358.90625 295.85938Q358.84375 295.42188 358.70312 295.10938Q358.57812 294.79688 358.375 294.60938Q358.1875 294.42188 357.9375 294.32812Q357.6875 294.23438 357.35938 294.23438Q356.98438 294.23438 356.67188 294.375Q356.375 294.51562 356.17188 294.82812Q355.96875 295.14062 355.85938 295.65625Q355.76562 296.15625 355.76562 296.875L355.76562 298.53125Q355.76562 299.10938 355.82812 299.54688Q355.90625 299.98438 356.03125 300.3125Q356.17188 300.625 356.35938 300.82812Q356.5625 301.03125 356.8125 301.125Q357.0625 301.21875 357.375 301.21875Q357.78125 301.21875 358.07812 301.07812Q358.375 300.92188 358.57812 300.59375Q358.78125 300.26562 358.875 299.76562Q358.96875 299.25 358.96875 298.53125ZM362.8125 300.70312L362.8125 301.57812Q362.8125 302.125 362.53125 302.71875Q362.26562 303.3125 361.78125 303.70312L361.17188 303.28125Q361.35938 303.01562 361.48438 302.75Q361.60938 302.48438 361.67188 302.20312Q361.75 301.92188 361.75 301.59375L361.75 300.70312L362.8125 300.70312ZM369.0625 297.04688L369.0625 298.35938Q369.0625 299.40625 368.875 300.125Q368.6875 300.84375 368.32812 301.28125Q367.98438 301.71875 367.48438 301.92188Q367.0 302.125 366.375 302.125Q365.89062 302.125 365.46875 302.0Q365.04688 301.875 364.71875 301.60938Q364.39062 301.32812 364.15625 300.89062Q363.92188 300.45312 363.79688 299.82812Q363.67188 299.1875 363.67188 298.35938L363.67188 297.04688Q363.67188 296.0 363.85938 295.29688Q364.0625 294.59375 364.40625 294.15625Q364.76562 293.71875 365.25 293.53125Q365.75 293.34375 366.35938 293.34375Q366.85938 293.34375 367.28125 293.46875Q367.70312 293.59375 368.03125 293.85938Q368.35938 294.10938 368.57812 294.54688Q368.8125 294.96875 368.9375 295.59375Q369.0625 296.21875 369.0625 297.04688ZM367.96875 298.53125L367.96875 296.875Q367.96875 296.29688 367.90625 295.85938Q367.84375 295.42188 367.70312 295.10938Q367.57812 294.79688 367.375 294.60938Q367.1875 294.42188 366.9375 294.32812Q366.6875 294.23438 366.35938 294.23438Q365.98438 294.23438 365.67188 294.375Q365.375 294.51562 365.17188 294.82812Q364.96875 295.14062 364.85938 295.65625Q364.76562 296.15625 364.76562 296.875L364.76562 298.53125Q364.76562 299.10938 364.82812 299.54688Q364.90625 299.98438 365.03125 300.3125Q365.17188 300.625 365.35938 300.82812Q365.5625 301.03125 365.8125 301.125Q366.0625 301.21875 366.375 301.21875Q366.78125 301.21875 367.07812 301.07812Q367.375 300.92188 367.57812 300.59375Q367.78125 300.26562 367.875 299.76562Q367.96875 299.25 367.96875 298.53125Z" fill-rule="nonzero"/><path stroke="#cccccc" stroke-width="1.0" stroke-linecap="butt" d="M422.425 305.0C422.425 277.15103 399.84897 254.575 372.0 254.575C344.15103 254.575 321.575 277.15103 321.575 305.0C321.575 332.84897 344.15103 355.425 372.0 355.425C399.84897 355.425 422.425 332.84897 422.425 305.0" fill-rule="nonzero"/><path fill="#000000" d="M360.0625 246.62187L360.0625 247.93437Q360.0625 248.98125 359.875 249.7Q359.6875 250.41875 359.32812 250.85625Q358.98438 251.29375 358.48438 251.49687Q358.0 251.7 357.375 251.7Q356.89062 251.7 356.46875 251.575Q356.04688 251.45 355.71875 251.18437Q355.39062 250.90312 355.15625 250.46562Q354.92188 250.02812 354.79688 249.40312Q354.67188 248.7625 354.67188 247.93437L354.67188 246.62187Q354.67188 245.575 354.85938 244.87187Q355.0625 244.16875 355.40625 243.73125Q355.76562 243.29375 356.25 243.10625Q356.75 242.91875 357.35938 242.91875Q357.85938 242.91875 358.28125 243.04375Q358.70312 243.16875 359.03125 243.43437Q359.35938 243.68437 359.57812 244.12187Q359.8125 244.54375 359.9375 245.16875Q360.0625 245.79375 360.0625 246.62187ZM358.96875 248.10625L358.96875 246.45Q358.96875 245.87187 358.90625 245.43437Q358.84375 244.99687 358.70312 244.68437Q358.57812 244.37187 358.375 244.18437Q358.1875 243.99687 357.9375 243.90312Q357.6875 243.80937 357.35938 243.80937Q356.98438 243.80937 356.67188 243.95Q356.375 244.09062 356.17188 244.40312Q355.96875 244.71562 355.85938 245.23125Q355.76562 245.73125 355.76562 246.45L355.76562 248.10625Q355.76562 248.68437 355.82812 249.12187Q355.90625 249.55937 356.03125 249.8875Q356.17188 250.2 356.35938 250.40312Q356.5625 250.60625 356.8125 250.7Q357.0625 250.79375 357.375 250.79375Q357.78125 250.79375 358.07812 250.65312Q358.375 250.49687 358.57812 250.16875Q358.78125 249.84062 358.875 249.34062Q358.96875 248.825 358.96875 248.10625ZM362.8125 250.27812L362.8125 251.15312Q362.8125 251.7 362.53125 252.29375Q362.26562 252.8875 361.78125 253.27812L361.17188 252.85625Q361.35938 252.59062 361.48438 252.325Q361.60938 252.05937 361.67188 251.77812Q361.75 251.49687 361.75 251.16875L361.75 250.27812L362.8125 250.27812ZM367.26562 242.99687L367.26562 251.575L366.1875 251.575L366.1875 244.35625L364.0 245.15312L364.0 244.16875L367.10938 242.99687L367.26562 242.99687Z" fill-rule="nonzero"/><path stroke="#cccccc" stroke-width="1.0" stroke-linecap="butt" d="M472.85 305.0C472.85 249.30208 427.6979 204.15 372.0 204.15C316.3021 204.15 271.15 249.30208 271.15 305.0C271.15 360.6979 316.3021 405.85 372.0 405.85C427.6979 405.85 472.85 360.6979 472.85 305.0" fill-rule="nonzero"/><path fill="#000000" d="M360.0625 196.19687L360.0625 197.50937Q360.0625 198.55624 359.875 199.275Q359.6875 199.99374 359.32812 200.43124Q358.98438 200.86874 358.48438 201.07187Q358.0 201.275 357.375 201.275Q356.89062 201.275 356.46875 201.15Q356.04688 201.025 355.71875 200.75937Q355.39062 200.47812 355.15625 200.04062Q354.92188 199.60312 354.79688 198.97812Q354.67188 198.3375 354.67188 197.50937L354.67188 196.19687Q354.67188 195.15 354.85938 194.44687Q355.0625 193.74374 355.40625 193.30624Q355.76562 192.86874 356.25 192.68124Q356.75 192.49374 357.35938 192.49374Q357.85938 192.49374 358.28125 192.61874Q358.70312 192.74374 359.03125 193.00937Q359.35938 193.25937 359.57812 193.69687Q359.8125 194.11874 359.9375 194.74374Q360.0625 195.36874 360.0625 196.19687ZM358.96875 197.68124L358.96875 196.025Q358.96875 195.44687 358.90625 195.00937Q358.84375 194.57187 358.70312 194.25937Q358.57812 193.94687 358.375 193.75937Q358.1875 193.57187 357.9375 193.47812Q357.6875 193.38437 357.35938 193.38437Q356.98438 193.38437 356.67188 193.525Q356.375 193.66562 356.17188 193.97812Q355.96875 194.29062 355.85938 194.80624Q355.76562 195.30624 355.76562 196.025L355.76562 197.68124Q355.76562 198.25937 355.82812 198.69687Q355.90625 199.13437 356.03125 199.4625Q356.17188 199.775 356.35938 199.97812Q356.5625 200.18124 356.8125 200.275Q357.0625 200.36874 357.375 200.36874Q357.78125 200.36874 358.07812 200.22812Q358.375 200.07187 358.57812 199.74374Q358.78125 199.41562 358.875 198.91562Q358.96875 198.4 358.96875 197.68124ZM362.8125 199.85312L362.8125 200.72812Q362.8125 201.275 362.53125 201.86874Q362.26562 202.4625 361.78125 202.85312L361.17188 202.43124Q361.35938 202.16562 361.48438 201.9Q361.60938 201.63437 361.67188 201.35312Q361.75 201.07187 361.75 200.74374L361.75 199.85312L362.8125 199.85312ZM369.29688 200.25937L369.29688 201.15L363.71875 201.15L363.71875 200.36874L366.51562 197.25937Q367.03125 196.68124 367.3125 196.29062Q367.59375 195.88437 367.70312 195.57187Q367.82812 195.24374 367.82812 194.91562Q367.82812 194.49374 367.65625 194.15Q367.48438 193.80624 367.14062 193.60312Q366.8125 193.38437 366.32812 193.38437Q365.76562 193.38437 365.39062 193.61874Q365.01562 193.8375 364.82812 194.22812Q364.64062 194.61874 364.64062 195.11874L363.54688 195.11874Q363.54688 194.4 363.85938 193.80624Q364.1875 193.2125 364.79688 192.85312Q365.42188 192.49374 366.32812 192.49374Q367.14062 192.49374 367.71875 192.79062Q368.29688 193.07187 368.59375 193.5875Q368.90625 194.0875 368.90625 194.775Q368.90625 195.15 368.78125 195.54062Q368.65625 195.91562 368.4375 196.30624Q368.21875 196.68124 367.92188 197.05624Q367.64062 197.41562 367.3125 197.775L365.01562 200.25937L369.29688 200.25937Z" fill-rule="nonzero"/><path stroke="#cccccc" stroke-width="1.0" stroke-linecap="butt" d="M523.275 305.0C523.275 221.45312 455.54688 153.725 372.0 153.725C288.45312 153.725 220.725 221.45312 220.725 305.0C220.725 388.54688 288.45312 456.275 372.0 456.275C455.54688 456.275 523.275 388.54688 523.275 305.0" fill-rule="nonzero"/><path fill="#000000" d="M360.0625 145.77188L360.0625 147.08438Q360.0625 148.13126 359.875 148.85Q359.6875 149.56876 359.32812 150.00626Q358.98438 150.44376 358.48438 150.64688Q358.0 150.85 357.375 150.85Q356.89062 150.85 356.46875 150.725Q356.04688 150.6 355.71875 150.33438Q355.39062 150.05313 355.15625 149.61563Q354.92188 149.17813 354.79688 148.55313Q354.67188 147.9125 354.67188 147.08438L354.67188 145.77188Q354.67188 144.725 354.85938 144.02188Q355.0625 143.31876 355.40625 142.88126Q355.76562 142.44376 356.25 142.25626Q356.75 142.06876 357.35938 142.06876Q357.85938 142.06876 358.28125 142.19376Q358.70312 142.31876 359.03125 142.58438Q359.35938 142.83438 359.57812 143.27188Q359.8125 143.69376 359.9375 144.31876Q360.0625 144.94376 360.0625 145.77188ZM358.96875 147.25626L358.96875 145.6Q358.96875 145.02188 358.90625 144.58438Q358.84375 144.14688 358.70312 143.83438Q358.57812 143.52188 358.375 143.33438Q358.1875 143.14688 357.9375 143.05313Q357.6875 142.95938 357.35938 142.95938Q356.98438 142.95938 356.67188 143.1Q356.375 143.24063 356.17188 143.55313Q355.96875 143.86563 355.85938 144.38126Q355.76562 144.88126 355.76562 145.6L355.76562 147.25626Q355.76562 147.83438 355.82812 148.27188Q355.90625 148.70938 356.03125 149.0375Q356.17188 149.35 356.35938 149.55313Q356.5625 149.75626 356.8125 149.85Q357.0625 149.94376 357.375 149.94376Q357.78125 149.94376 358.07812 149.80313Q358.375 149.64688 358.57812 149.31876Q358.78125 148.99063 358.875 148.49063Q358.96875 147.975 358.96875 147.25626ZM362.8125 149.42813L362.8125 150.30313Q362.8125 150.85 362.53125 151.44376Q362.26562 152.0375 361.78125 152.42813L361.17188 152.00626Q361.35938 151.74063 361.48438 151.475Q361.60938 151.20938 361.67188 150.92813Q361.75 150.64688 361.75 150.31876L361.75 149.42813L362.8125 149.42813ZM365.29688 145.92813L366.0625 145.92813Q366.64062 145.92813 367.0 145.74063Q367.375 145.5375 367.5625 145.20938Q367.75 144.88126 367.75 144.45938Q367.75 143.975 367.57812 143.64688Q367.42188 143.30313 367.09375 143.13126Q366.76562 142.95938 366.26562 142.95938Q365.79688 142.95938 365.45312 143.14688Q365.10938 143.31876 364.90625 143.64688Q364.71875 143.975 364.71875 144.42813L363.625 144.42813Q363.625 143.77188 363.95312 143.24063Q364.28125 142.70938 364.875 142.39688Q365.46875 142.06876 366.26562 142.06876Q367.03125 142.06876 367.60938 142.35Q368.1875 142.61563 368.51562 143.1625Q368.84375 143.69376 368.84375 144.49063Q368.84375 144.81876 368.6875 145.17813Q368.53125 145.5375 368.21875 145.86563Q367.90625 146.17813 367.40625 146.38126Q366.92188 146.58438 366.21875 146.58438L365.29688 146.58438L365.29688 145.92813ZM365.29688 146.81876L365.29688 146.1625L366.21875 146.1625Q367.03125 146.1625 367.5625 146.36563Q368.09375 146.55313 368.40625 146.88126Q368.71875 147.19376 368.84375 147.58438Q368.96875 147.95938 368.96875 148.35Q368.96875 148.94376 368.76562 149.4125Q368.5625 149.86563 368.1875 150.19376Q367.82812 150.50626 367.32812 150.67813Q366.84375 150.85 366.26562 150.85Q365.70312 150.85 365.21875 150.69376Q364.73438 150.52188 364.35938 150.225Q363.98438 149.92813 363.76562 149.49063Q363.5625 149.0375 363.5625 148.475L364.64062 148.475Q364.64062 148.9125 364.82812 149.25626Q365.03125 149.58438 365.39062 149.77188Q365.76562 149.94376 366.26562 149.94376Q366.76562 149.94376 367.125 149.77188Q367.48438 149.6 367.67188 149.25626Q367.875 148.89688 367.875 148.36563Q367.875 147.83438 367.65625 147.49063Q367.4375 147.14688 367.01562 146.99063Q366.60938 146.81876 366.0625 146.81876L365.29688 146.81876Z" fill-rule="nonzero"/><path stroke="#cccccc" stroke-width="1.0" stroke-linecap="butt" d="M573.7 305.0C573.7 193.60417 483.39584 103.3 372.0 103.3C260.60416 103.3 170.3 193.60417 170.3 305.0C170.3 416.39584 260.60416 506.7 372.0 506.7C483.39584 506.7 573.7 416.39584 573.7 305.0" fill-rule="nonzero"/><path fill="#000000" d="M360.0625 95.34688L360.0625 96.65938Q360.0625 97.70625 359.875 98.425Q359.6875 99.14375 359.32812 99.58125Q358.98438 100.01875 358.48438 100.22188Q358.0 100.425 357.375 100.425Q356.89062 100.425 356.46875 100.3Q356.04688 100.175 355.71875 99.90938Q355.39062 99.62813 355.15625 99.19063Q354.92188 98.75313 354.79688 98.12813Q354.67188 97.4875 354.67188 96.65938L354.67188 95.34688Q354.67188 94.3 354.85938 93.59688Q355.0625 92.89375 355.40625 92.45625Q355.76562 92.01875 356.25 91.83125Q356.75 91.64375 357.35938 91.64375Q357.85938 91.64375 358.28125 91.76875Q358.70312 91.89375 359.03125 92.15938Q359.35938 92.40938 359.57812 92.84688Q359.8125 93.26875 359.9375 93.89375Q360.0625 94.51875 360.0625 95.34688ZM358.96875 96.83125L358.96875 95.175Q358.96875 94.59688 358.90625 94.15938Q358.84375 93.72188 358.70312 93.40938Q358.57812 93.09688 358.375 92.90938Q358.1875 92.72188 357.9375 92.62813Q357.6875 92.53438 357.35938 92.53438Q356.98438 92.53438 356.67188 92.675Q356.375 92.81563 356.17188 93.12813Q355.96875 93.44063 355.85938 93.95625Q355.76562 94.45625 355.76562 95.175L355.76562 96.83125Q355.76562 97.40938 355.82812 97.84688Q355.90625 98.28438 356.03125 98.6125Q356.17188 98.925 356.35938 99.12813Q356.5625 99.33125 356.8125 99.425Q357.0625 99.51875 357.375 99.51875Q357.78125 99.51875 358.07812 99.37813Q358.375 99.22188 358.57812 98.89375Q358.78125 98.56563 358.875 98.06563Q358.96875 97.55 358.96875 96.83125ZM362.8125 99.00313L362.8125 99.87813Q362.8125 100.425 362.53125 101.01875Q362.26562 101.6125 361.78125 102.00313L361.17188 101.58125Q361.35938 101.31563 361.48438 101.05Q361.60938 100.78438 361.67188 100.50313Q361.75 100.22188 361.75 99.89375L361.75 99.00313L362.8125 99.00313ZM369.46875 97.425L369.46875 98.31563L363.3125 98.31563L363.3125 97.675L367.125 91.76875L368.01562 91.76875L367.0625 93.47188L364.54688 97.425L369.46875 97.425ZM368.28125 91.76875L368.28125 100.3L367.20312 100.3L367.20312 91.76875L368.28125 91.76875Z" fill-rule="nonzero"/><path stroke="#cccccc" stroke-width="1.0" stroke-linecap="butt" d="M372.0 305.0L372.0 103.0" fill-rule="nonzero"/><path fill="#000000" d="M354.67188 76.578125L354.67188 77.5L350.40625 77.5L350.40625 76.578125L354.67188 76.578125ZM350.625 68.96875L350.625 77.5L349.48438 77.5L349.48438 68.96875L350.625 68.96875ZM356.5 71.15625L356.5 77.5L355.42188 77.5L355.42188 71.15625L356.5 71.15625ZM355.32812 69.484375Q355.32812 69.21875 355.48438 69.03125Q355.65625 68.84375 355.96875 68.84375Q356.28125 68.84375 356.4375 69.03125Q356.60938 69.21875 356.60938 69.484375Q356.60938 69.734375 356.4375 69.921875Q356.28125 70.09375 355.96875 70.09375Q355.65625 70.09375 355.48438 69.921875Q355.32812 69.734375 355.32812 69.484375ZM359.40625 72.421875L359.40625 77.5L358.3125 77.5L358.3125 71.15625L359.34375 71.15625L359.40625 72.421875ZM359.1875 74.09375L358.67188 74.078125Q358.6875 73.421875 358.84375 72.875Q359.01562 72.3125 359.32812 71.90625Q359.65625 71.5 360.14062 71.28125Q360.625 71.046875 361.25 71.046875Q361.70312 71.046875 362.07812 71.171875Q362.45312 71.296875 362.71875 71.5625Q363.0 71.828125 363.14062 72.25Q363.29688 72.671875 363.29688 73.28125L363.29688 77.5L362.21875 77.5L362.21875 73.328125Q362.21875 72.828125 362.04688 72.53125Q361.89062 72.234375 361.57812 72.09375Q361.28125 71.953125 360.85938 71.953125Q360.39062 71.953125 360.0625 72.125Q359.73438 72.296875 359.54688 72.59375Q359.35938 72.890625 359.26562 73.28125Q359.1875 73.65625 359.1875 74.09375ZM363.29688 73.484375L362.5625 73.71875Q362.5625 73.1875 362.73438 72.71875Q362.90625 72.234375 363.21875 71.859375Q363.54688 71.484375 364.01562 71.265625Q364.48438 71.046875 365.07812 71.046875Q365.59375 71.046875 365.98438 71.1875Q366.39062 71.3125 366.65625 71.59375Q366.92188 71.875 367.0625 72.3125Q367.20312 72.734375 367.20312 73.328125L367.20312 77.5L366.125 77.5L366.125 73.328125Q366.125 72.78125 365.95312 72.5Q365.78125 72.203125 365.48438 72.078125Q365.1875 71.953125 364.76562 71.953125Q364.40625 71.953125 364.125 72.078125Q363.85938 72.203125 363.67188 72.421875Q363.48438 72.625 363.39062 72.90625Q363.29688 73.1875 363.29688 73.484375ZM369.04688 74.40625L369.04688 74.265625Q369.04688 73.578125 369.23438 73.0Q369.4375 72.40625 369.8125 71.96875Q370.1875 71.53125 370.71875 71.296875Q371.25 71.046875 371.92188 71.046875Q372.57812 71.046875 373.10938 71.296875Q373.65625 71.53125 374.03125 71.96875Q374.40625 72.40625 374.60938 73.0Q374.8125 73.578125 374.8125 74.265625L374.8125 74.40625Q374.8125 75.078125 374.60938 75.671875Q374.40625 76.25 374.03125 76.6875Q373.65625 77.125 373.125 77.375Q372.59375 77.625 371.92188 77.625Q371.26562 77.625 370.71875 77.375Q370.1875 77.125 369.8125 76.6875Q369.4375 76.25 369.23438 75.671875Q369.04688 75.078125 369.04688 74.40625ZM370.125 74.265625L370.125 74.40625Q370.125 74.875 370.23438 75.296875Q370.34375 75.71875 370.5625 76.046875Q370.79688 76.359375 371.14062 76.546875Q371.48438 76.71875 371.92188 76.71875Q372.375 76.71875 372.70312 76.546875Q373.04688 76.359375 373.26562 76.046875Q373.5 75.71875 373.60938 75.296875Q373.71875 74.875 373.71875 74.40625L373.71875 74.265625Q373.71875 73.796875 373.60938 73.375Q373.5 72.953125 373.26562 72.640625Q373.04688 72.3125 372.70312 72.125Q372.375 71.9375 371.92188 71.9375Q371.46875 71.9375 371.125 72.125Q370.79688 72.3125 370.5625 72.640625Q370.34375 72.953125 370.23438 73.375Q370.125 73.796875 370.125 74.265625ZM377.40625 72.515625L377.40625 77.5L376.32812 77.5L376.32812 71.15625L377.35938 71.15625L377.40625 72.515625ZM377.15625 74.09375L376.70312 74.078125Q376.70312 73.421875 376.89062 72.875Q377.07812 72.3125 377.42188 71.90625Q377.76562 71.5 378.23438 71.28125Q378.70312 71.046875 379.28125 71.046875Q379.75 71.046875 380.125 71.171875Q380.5 71.296875 380.76562 71.578125Q381.03125 71.84375 381.17188 72.28125Q381.3125 72.71875 381.3125 73.34375L381.3125 77.5L380.21875 77.5L380.21875 73.328125Q380.21875 72.828125 380.07812 72.53125Q379.9375 72.234375 379.65625 72.09375Q379.375 71.953125 378.95312 71.953125Q378.54688 71.953125 378.21875 72.125Q377.89062 72.296875 377.65625 72.59375Q377.42188 72.890625 377.28125 73.28125Q377.15625 73.65625 377.15625 74.09375ZM385.95312 77.625Q385.29688 77.625 384.75 77.40625Q384.21875 77.171875 383.82812 76.765625Q383.45312 76.34375 383.25 75.78125Q383.04688 75.21875 383.04688 74.546875L383.04688 74.3125Q383.04688 73.53125 383.26562 72.921875Q383.5 72.3125 383.89062 71.890625Q384.28125 71.46875 384.78125 71.265625Q385.28125 71.046875 385.8125 71.046875Q386.5 71.046875 386.98438 71.28125Q387.48438 71.515625 387.79688 71.9375Q388.125 72.34375 388.26562 72.921875Q388.42188 73.484375 388.42188 74.140625L388.42188 74.640625L383.6875 74.640625L383.6875 73.75L387.34375 73.75L387.34375 73.671875Q387.3125 73.25 387.15625 72.859375Q387.01562 72.453125 386.6875 72.203125Q386.375 71.9375 385.8125 71.9375Q385.45312 71.9375 385.14062 72.09375Q384.82812 72.25 384.59375 72.5625Q384.375 72.859375 384.25 73.296875Q384.14062 73.734375 384.14062 74.3125L384.14062 74.546875Q384.14062 75.0 384.26562 75.40625Q384.39062 75.796875 384.625 76.09375Q384.875 76.390625 385.21875 76.5625Q385.57812 76.734375 386.01562 76.734375Q386.59375 76.734375 386.98438 76.5Q387.39062 76.265625 387.6875 75.875L388.34375 76.390625Q388.14062 76.703125 387.8125 76.984375Q387.5 77.265625 387.03125 77.453125Q386.57812 77.625 385.95312 77.625ZM390.40625 72.515625L390.40625 77.5L389.32812 77.5L389.32812 71.15625L390.35938 71.15625L390.40625 72.515625ZM390.15625 74.09375L389.70312 74.078125Q389.70312 73.421875 389.89062 72.875Q390.07812 72.3125 390.42188 71.90625Q390.76562 71.5 391.23438 71.28125Q391.70312 71.046875 392.28125 71.046875Q392.75 71.046875 393.125 71.171875Q393.5 71.296875 393.76562 71.578125Q394.03125 71.84375 394.17188 72.28125Q394.3125 72.71875 394.3125 73.34375L394.3125 77.5L393.21875 77.5L393.21875 73.328125Q393.21875 72.828125 393.07812 72.53125Q392.9375 72.234375 392.65625 72.09375Q392.375 71.953125 391.95312 71.953125Q391.54688 71.953125 391.21875 72.125Q390.89062 72.296875 390.65625 72.59375Q390.42188 72.890625 390.28125 73.28125Q390.15625 73.65625 390.15625 74.09375Z" fill-rule="nonzero"/><path stroke="#cccccc" stroke-width="1.0" stroke-linecap="butt" d="M372.0 305.0L547.0 204.0" fill-rule="nonzero"/><path fill="#000000" d="M554.84375 184.96875L555.9375 184.96875L558.7344 191.92188L561.53125 184.96875L562.625 184.96875L559.15625 193.5L558.3125 193.5L554.84375 184.96875ZM554.4844 184.96875L555.4531 184.96875L555.6094 190.17188L555.6094 193.5L554.4844 193.5L554.4844 184.96875ZM562.0156 184.96875L562.9844 184.96875L562.9844 193.5L561.8594 193.5L561.8594 190.17188L562.0156 184.96875ZM566.1094 192.84375L567.875 187.15625L569.03125 187.15625L566.4844 194.48438Q566.40625 194.71875 566.25 194.98438Q566.1094 195.26562 565.8906 195.5Q565.6719 195.75 565.3594 195.90625Q565.0469 196.0625 564.6094 196.0625Q564.4844 196.0625 564.28125 196.01562Q564.0781 195.98438 564.0 195.96875L564.0 195.09375Q564.0469 195.09375 564.1406 195.09375Q564.25 195.10938 564.28125 195.10938Q564.65625 195.10938 564.90625 195.01562Q565.1719 194.92188 565.34375 194.6875Q565.53125 194.46875 565.65625 194.07812L566.1094 192.84375ZM564.8125 187.15625L566.4531 192.07812L566.7344 193.21875L565.96875 193.625L563.625 187.15625L564.8125 187.15625ZM571.40625 188.15625L571.40625 193.5L570.3281 193.5L570.3281 187.15625L571.375 187.15625L571.40625 188.15625ZM573.3906 187.125L573.3906 188.125Q573.25 188.10938 573.125 188.09375Q573.0156 188.07812 572.8594 188.07812Q572.4844 188.07812 572.1875 188.20312Q571.90625 188.3125 571.7031 188.53125Q571.5156 188.73438 571.3906 189.03125Q571.28125 189.32812 571.25 189.67188L570.9375 189.84375Q570.9375 189.26562 571.0469 188.76562Q571.1719 188.26562 571.40625 187.875Q571.65625 187.48438 572.0156 187.26562Q572.3906 187.04688 572.90625 187.04688Q573.03125 187.04688 573.1719 187.07812Q573.3281 187.09375 573.3906 187.125ZM576.8594 192.71875Q577.25 192.71875 577.5781 192.5625Q577.90625 192.40625 578.1094 192.14062Q578.3281 191.85938 578.3594 191.5L579.3906 191.5Q579.3594 192.0625 579.0 192.54688Q578.65625 193.03125 578.09375 193.32812Q577.53125 193.625 576.8594 193.625Q576.15625 193.625 575.625 193.375Q575.09375 193.10938 574.7344 192.67188Q574.3906 192.23438 574.21875 191.67188Q574.0469 191.09375 574.0469 190.45312L574.0469 190.20312Q574.0469 189.5625 574.21875 189.0Q574.3906 188.42188 574.7344 187.98438Q575.09375 187.54688 575.625 187.29688Q576.15625 187.04688 576.8594 187.04688Q577.6094 187.04688 578.15625 187.34375Q578.71875 187.64062 579.03125 188.17188Q579.3594 188.6875 579.3906 189.34375L578.3594 189.34375Q578.3281 188.95312 578.1406 188.64062Q577.9531 188.3125 577.625 188.125Q577.2969 187.9375 576.8594 187.9375Q576.3594 187.9375 576.0156 188.14062Q575.6875 188.32812 575.4844 188.65625Q575.2969 188.98438 575.2031 189.39062Q575.125 189.79688 575.125 190.20312L575.125 190.45312Q575.125 190.875 575.2031 191.28125Q575.2969 191.67188 575.4844 192.0Q575.6875 192.32812 576.0156 192.53125Q576.3594 192.71875 576.8594 192.71875ZM582.9531 193.625Q582.2969 193.625 581.75 193.40625Q581.21875 193.17188 580.8281 192.76562Q580.4531 192.34375 580.25 191.78125Q580.0469 191.21875 580.0469 190.54688L580.0469 190.3125Q580.0469 189.53125 580.2656 188.92188Q580.5 188.3125 580.8906 187.89062Q581.28125 187.46875 581.78125 187.26562Q582.28125 187.04688 582.8125 187.04688Q583.5 187.04688 583.9844 187.28125Q584.4844 187.51562 584.7969 187.9375Q585.125 188.34375 585.2656 188.92188Q585.4219 189.48438 585.4219 190.14062L585.4219 190.64062L580.6875 190.64062L580.6875 189.75L584.34375 189.75L584.34375 189.67188Q584.3125 189.25 584.15625 188.85938Q584.0156 188.45312 583.6875 188.20312Q583.375 187.9375 582.8125 187.9375Q582.4531 187.9375 582.1406 188.09375Q581.8281 188.25 581.59375 188.5625Q581.375 188.85938 581.25 189.29688Q581.1406 189.73438 581.1406 190.3125L581.1406 190.54688Q581.1406 191.0 581.2656 191.40625Q581.3906 191.79688 581.625 192.09375Q581.875 192.39062 582.21875 192.5625Q582.5781 192.73438 583.0156 192.73438Q583.59375 192.73438 583.9844 192.5Q584.3906 192.26562 584.6875 191.875L585.34375 192.39062Q585.1406 192.70312 584.8125 192.98438Q584.5 193.26562 584.03125 193.45312Q583.5781 193.625 582.9531 193.625ZM587.40625 188.51562L587.40625 193.5L586.3281 193.5L586.3281 187.15625L587.3594 187.15625L587.40625 188.51562ZM587.15625 190.09375L586.7031 190.07812Q586.7031 189.42188 586.8906 188.875Q587.0781 188.3125 587.4219 187.90625Q587.7656 187.5 588.2344 187.28125Q588.7031 187.04688 589.28125 187.04688Q589.75 187.04688 590.125 187.17188Q590.5 187.29688 590.7656 187.57812Q591.03125 187.84375 591.1719 188.28125Q591.3125 188.71875 591.3125 189.34375L591.3125 193.5L590.21875 193.5L590.21875 189.32812Q590.21875 188.82812 590.0781 188.53125Q589.9375 188.23438 589.65625 188.09375Q589.375 187.95312 588.9531 187.95312Q588.5469 187.95312 588.21875 188.125Q587.8906 188.29688 587.65625 188.59375Q587.4219 188.89062 587.28125 189.28125Q587.15625 189.65625 587.15625 190.09375Z" fill-rule="nonzero"/><path stroke="#cccccc" stroke-width="1.0" stroke-linecap="butt" d="M372.0 305.0L547.0 406.0" fill-rule="nonzero"/><path fill="#000000" d="M555.53125 420.67188L556.3906 420.67188Q557.2031 420.67188 557.7656 420.98438Q558.34375 421.28125 558.6406 421.8125Q558.9531 422.34375 558.9531 423.01562Q558.9531 423.84375 558.6094 424.42188Q558.2656 425.0 557.6719 425.3125Q557.0781 425.625 556.2969 425.625Q555.84375 425.625 555.3906 425.5Q554.9375 425.35938 554.5625 425.09375Q554.2031 424.82812 553.9844 424.40625Q553.7656 423.98438 553.7656 423.40625L554.1875 423.15625Q554.1875 423.59375 554.4375 423.95312Q554.7031 424.29688 555.1406 424.51562Q555.59375 424.73438 556.1875 424.73438Q556.71875 424.73438 557.09375 424.51562Q557.46875 424.29688 557.6719 423.92188Q557.875 423.53125 557.875 423.03125Q557.875 422.625 557.6875 422.25Q557.5156 421.85938 557.1875 421.60938Q556.8594 421.35938 556.375 421.35938L555.53125 421.35938L555.53125 420.67188ZM556.0469 416.84375Q556.8125 416.84375 557.375 417.14062Q557.9375 417.4375 558.2344 417.95312Q558.5469 418.46875 558.5469 419.14062Q558.5469 419.70312 558.2344 420.17188Q557.9375 420.625 557.375 420.90625Q556.8125 421.17188 556.0469 421.17188L555.53125 421.17188L555.53125 420.46875L556.03125 420.46875Q556.5469 420.46875 556.8594 420.29688Q557.1719 420.125 557.3125 419.82812Q557.46875 419.51562 557.46875 419.125Q557.46875 418.76562 557.3125 418.45312Q557.15625 418.14062 556.84375 417.9375Q556.53125 417.73438 556.0469 417.73438Q555.625 417.73438 555.28125 417.9375Q554.9375 418.125 554.7344 418.46875Q554.53125 418.79688 554.53125 419.21875L554.53125 427.75L553.4375 427.75L553.4375 419.21875Q553.4375 418.5625 553.7969 418.03125Q554.15625 417.48438 554.75 417.17188Q555.34375 416.84375 556.0469 416.84375ZM562.5781 421.42188L562.5781 422.3125L559.71875 422.3125L559.71875 421.42188L562.5781 421.42188ZM566.6406 422.15625L564.3594 422.15625L564.3594 421.23438L566.6406 421.23438Q567.2969 421.23438 567.7031 421.03125Q568.125 420.8125 568.3125 420.4375Q568.5 420.0625 568.5 419.57812Q568.5 419.14062 568.3125 418.76562Q568.125 418.375 567.7031 418.14062Q567.2969 417.89062 566.6406 417.89062L564.625 417.89062L564.625 425.5L563.4844 425.5L563.4844 416.96875L566.6406 416.96875Q567.6094 416.96875 568.2656 417.3125Q568.9375 417.64062 569.28125 418.23438Q569.625 418.8125 569.625 419.5625Q569.625 420.39062 569.28125 420.96875Q568.9375 421.54688 568.2656 421.85938Q567.6094 422.15625 566.6406 422.15625ZM572.5 419.15625L572.5 425.5L571.4219 425.5L571.4219 419.15625L572.5 419.15625ZM571.3281 417.48438Q571.3281 417.21875 571.4844 417.03125Q571.65625 416.84375 571.96875 416.84375Q572.28125 416.84375 572.4375 417.03125Q572.6094 417.21875 572.6094 417.48438Q572.6094 417.73438 572.4375 417.92188Q572.28125 418.09375 571.96875 418.09375Q571.65625 418.09375 571.4844 417.92188Q571.3281 417.73438 571.3281 417.48438ZM575.40625 420.51562L575.40625 425.5L574.3281 425.5L574.3281 419.15625L575.3594 419.15625L575.40625 420.51562ZM575.15625 422.09375L574.7031 422.07812Q574.7031 421.42188 574.8906 420.875Q575.0781 420.3125 575.4219 419.90625Q575.7656 419.5 576.2344 419.28125Q576.7031 419.04688 577.28125 419.04688Q577.75 419.04688 578.125 419.17188Q578.5 419.29688 578.7656 419.57812Q579.03125 419.84375 579.1719 420.28125Q579.3125 420.71875 579.3125 421.34375L579.3125 425.5L578.21875 425.5L578.21875 421.32812Q578.21875 420.82812 578.0781 420.53125Q577.9375 420.23438 577.65625 420.09375Q577.375 419.95312 576.9531 419.95312Q576.5469 419.95312 576.21875 420.125Q575.8906 420.29688 575.65625 420.59375Q575.4219 420.89062 575.28125 421.28125Q575.15625 421.65625 575.15625 422.09375ZM583.9531 425.625Q583.2969 425.625 582.75 425.40625Q582.21875 425.17188 581.8281 424.76562Q581.4531 424.34375 581.25 423.78125Q581.0469 423.21875 581.0469 422.54688L581.0469 422.3125Q581.0469 421.53125 581.2656 420.92188Q581.5 420.3125 581.8906 419.89062Q582.28125 419.46875 582.78125 419.26562Q583.28125 419.04688 583.8125 419.04688Q584.5 419.04688 584.9844 419.28125Q585.4844 419.51562 585.7969 419.9375Q586.125 420.34375 586.2656 420.92188Q586.4219 421.48438 586.4219 422.14062L586.4219 422.64062L581.6875 422.64062L581.6875 421.75L585.34375 421.75L585.34375 421.67188Q585.3125 421.25 585.15625 420.85938Q585.0156 420.45312 584.6875 420.20312Q584.375 419.9375 583.8125 419.9375Q583.4531 419.9375 583.1406 420.09375Q582.8281 420.25 582.59375 420.5625Q582.375 420.85938 582.25 421.29688Q582.1406 421.73438 582.1406 422.3125L582.1406 422.54688Q582.1406 423.0 582.2656 423.40625Q582.3906 423.79688 582.625 424.09375Q582.875 424.39062 583.21875 424.5625Q583.5781 424.73438 584.0156 424.73438Q584.59375 424.73438 584.9844 424.5Q585.3906 424.26562 585.6875 423.875L586.34375 424.39062Q586.1406 424.70312 585.8125 424.98438Q585.5 425.26562 585.03125 425.45312Q584.5781 425.625 583.9531 425.625ZM588.40625 420.51562L588.40625 425.5L587.3281 425.5L587.3281 419.15625L588.3594 419.15625L588.40625 420.51562ZM588.15625 422.09375L587.7031 422.07812Q587.7031 421.42188 587.8906 420.875Q588.0781 420.3125 588.4219 419.90625Q588.7656 419.5 589.2344 419.28125Q589.7031 419.04688 590.28125 419.04688Q590.75 419.04688 591.125 419.17188Q591.5 419.29688 591.7656 419.57812Q592.03125 419.84375 592.1719 420.28125Q592.3125 420.71875 592.3125 421.34375L592.3125 425.5L591.21875 425.5L591.21875 421.32812Q591.21875 420.82812 591.0781 420.53125Q590.9375 420.23438 590.65625 420.09375Q590.375 419.95312 589.9531 419.95312Q589.5469 419.95312 589.21875 420.125Q588.8906 420.29688 588.65625 420.59375Q588.4219 420.89062 588.28125 421.28125Q588.15625 421.65625 588.15625 422.09375Z" fill-rule="nonzero"/><path stroke="#cccccc" stroke-width="1.0" stroke-linecap="butt" d="M372.0 305.0L372.0 507.0" fill-rule="nonzero"/><path fill="#000000" d="M356.67188 540.5781L356.67188 541.5L352.40625 541.5L352.40625 540.5781L356.67188 540.5781ZM352.625 532.96875L352.625 541.5L351.48438 541.5L351.48438 532.96875L352.625 532.96875ZM358.5 535.15625L358.5 541.5L357.42188 541.5L357.42188 535.15625L358.5 535.15625ZM357.32812 533.4844Q357.32812 533.21875 357.48438 533.03125Q357.65625 532.84375 357.96875 532.84375Q358.28125 532.84375 358.4375 533.03125Q358.60938 533.21875 358.60938 533.4844Q358.60938 533.7344 358.4375 533.9219Q358.28125 534.09375 357.96875 534.09375Q357.65625 534.09375 357.48438 533.9219Q357.32812 533.7344 357.32812 533.4844ZM361.40625 536.5156L361.40625 541.5L360.32812 541.5L360.32812 535.15625L361.35938 535.15625L361.40625 536.5156ZM361.15625 538.09375L360.70312 538.0781Q360.70312 537.4219 360.89062 536.875Q361.07812 536.3125 361.42188 535.90625Q361.76562 535.5 362.23438 535.28125Q362.70312 535.0469 363.28125 535.0469Q363.75 535.0469 364.125 535.1719Q364.5 535.2969 364.76562 535.5781Q365.03125 535.84375 365.17188 536.28125Q365.3125 536.71875 365.3125 537.34375L365.3125 541.5L364.21875 541.5L364.21875 537.3281Q364.21875 536.8281 364.07812 536.53125Q363.9375 536.2344 363.65625 536.09375Q363.375 535.9531 362.95312 535.9531Q362.54688 535.9531 362.21875 536.125Q361.89062 536.2969 361.65625 536.59375Q361.42188 536.8906 361.28125 537.28125Q361.15625 537.65625 361.15625 538.09375ZM371.0625 540.4219L371.0625 537.15625Q371.0625 536.78125 370.90625 536.5Q370.76562 536.21875 370.46875 536.0781Q370.17188 535.9219 369.73438 535.9219Q369.3125 535.9219 369.0 536.0625Q368.70312 536.2031 368.53125 536.4375Q368.35938 536.65625 368.35938 536.9219L367.28125 536.9219Q367.28125 536.5781 367.45312 536.25Q367.625 535.90625 367.95312 535.6406Q368.28125 535.3594 368.75 535.2031Q369.21875 535.0469 369.79688 535.0469Q370.48438 535.0469 371.01562 535.28125Q371.54688 535.5156 371.84375 535.9844Q372.15625 536.4531 372.15625 537.15625L372.15625 540.1094Q372.15625 540.4375 372.20312 540.7969Q372.26562 541.1406 372.375 541.40625L372.375 541.5L371.23438 541.5Q371.15625 541.3125 371.10938 541.0Q371.0625 540.6875 371.0625 540.4219ZM371.25 537.65625L371.26562 538.4219L370.17188 538.4219Q369.70312 538.4219 369.34375 538.5Q368.98438 538.5625 368.73438 538.71875Q368.48438 538.8594 368.35938 539.0781Q368.23438 539.2969 368.23438 539.59375Q368.23438 539.8906 368.35938 540.1406Q368.5 540.375 368.76562 540.53125Q369.04688 540.6719 369.4375 540.6719Q369.9375 540.6719 370.3125 540.46875Q370.70312 540.25 370.92188 539.9531Q371.15625 539.6406 371.17188 539.34375L371.64062 539.875Q371.59375 540.1094 371.40625 540.4219Q371.23438 540.71875 370.92188 541.0Q370.625 541.2656 370.20312 541.4531Q369.79688 541.625 369.28125 541.625Q368.64062 541.625 368.15625 541.375Q367.67188 541.1094 367.40625 540.6875Q367.14062 540.2656 367.14062 539.7344Q367.14062 539.21875 367.32812 538.84375Q367.53125 538.4531 367.90625 538.1875Q368.28125 537.9219 368.8125 537.7969Q369.34375 537.65625 370.0 537.65625L371.25 537.65625ZM375.5 532.5L375.5 541.5L374.42188 541.5L374.42188 532.5L375.5 532.5ZM377.04688 538.40625L377.04688 538.2656Q377.04688 537.5781 377.23438 537.0Q377.4375 536.40625 377.8125 535.96875Q378.1875 535.53125 378.71875 535.2969Q379.25 535.0469 379.92188 535.0469Q380.57812 535.0469 381.10938 535.2969Q381.65625 535.53125 382.03125 535.96875Q382.40625 536.40625 382.60938 537.0Q382.8125 537.5781 382.8125 538.2656L382.8125 538.40625Q382.8125 539.0781 382.60938 539.6719Q382.40625 540.25 382.03125 540.6875Q381.65625 541.125 381.125 541.375Q380.59375 541.625 379.92188 541.625Q379.26562 541.625 378.71875 541.375Q378.1875 541.125 377.8125 540.6875Q377.4375 540.25 377.23438 539.6719Q377.04688 539.0781 377.04688 538.40625ZM378.125 538.2656L378.125 538.40625Q378.125 538.875 378.23438 539.2969Q378.34375 539.71875 378.5625 540.0469Q378.79688 540.3594 379.14062 540.5469Q379.48438 540.71875 379.92188 540.71875Q380.375 540.71875 380.70312 540.5469Q381.04688 540.3594 381.26562 540.0469Q381.5 539.71875 381.60938 539.2969Q381.71875 538.875 381.71875 538.40625L381.71875 538.2656Q381.71875 537.7969 381.60938 537.375Q381.5 536.9531 381.26562 536.6406Q381.04688 536.3125 380.70312 536.125Q380.375 535.9375 379.92188 535.9375Q379.46875 535.9375 379.125 536.125Q378.79688 536.3125 378.5625 536.6406Q378.34375 536.9531 378.23438 537.375Q378.125 537.7969 378.125 538.2656ZM384.04688 538.40625L384.04688 538.2656Q384.04688 537.5781 384.23438 537.0Q384.4375 536.40625 384.8125 535.96875Q385.1875 535.53125 385.71875 535.2969Q386.25 535.0469 386.92188 535.0469Q387.57812 535.0469 388.10938 535.2969Q388.65625 535.53125 389.03125 535.96875Q389.40625 536.40625 389.60938 537.0Q389.8125 537.5781 389.8125 538.2656L389.8125 538.40625Q389.8125 539.0781 389.60938 539.6719Q389.40625 540.25 389.03125 540.6875Q388.65625 541.125 388.125 541.375Q387.59375 541.625 386.92188 541.625Q386.26562 541.625 385.71875 541.375Q385.1875 541.125 384.8125 540.6875Q384.4375 540.25 384.23438 539.6719Q384.04688 539.0781 384.04688 538.40625ZM385.125 538.2656L385.125 538.40625Q385.125 538.875 385.23438 539.2969Q385.34375 539.71875 385.5625 540.0469Q385.79688 540.3594 386.14062 540.5469Q386.48438 540.71875 386.92188 540.71875Q387.375 540.71875 387.70312 540.5469Q388.04688 540.3594 388.26562 540.0469Q388.5 539.71875 388.60938 539.2969Q388.71875 538.875 388.71875 538.40625L388.71875 538.2656Q388.71875 537.7969 388.60938 537.375Q388.5 536.9531 388.26562 536.6406Q388.04688 536.3125 387.70312 536.125Q387.375 535.9375 386.92188 535.9375Q386.46875 535.9375 386.125 536.125Q385.79688 536.3125 385.5625 536.6406Q385.34375 536.9531 385.23438 537.375Q385.125 537.7969 385.125 538.2656ZM392.5 532.5L392.5 541.5L391.42188 541.5L391.42188 532.5L392.5 532.5Z" fill-rule="nonzero"/><path stroke="#cccccc" stroke-width="1.0" stroke-linecap="butt" d="M372.0 305.0L197.0 406.0" fill-rule="nonzero"/><path fill="#000000" d="M141.64062 422.78125L142.76562 422.78125Q142.67188 423.59375 142.29688 424.23438Q141.92188 424.875 141.23438 425.25Q140.5625 425.625 139.53125 425.625Q138.78125 425.625 138.17188 425.34375Q137.5625 425.04688 137.10938 424.53125Q136.67188 424.01562 136.4375 423.29688Q136.20312 422.5625 136.20312 421.65625L136.20312 420.8125Q136.20312 419.92188 136.4375 419.1875Q136.67188 418.45312 137.125 417.9375Q137.57812 417.40625 138.20312 417.125Q138.84375 416.84375 139.625 416.84375Q140.59375 416.84375 141.26562 417.21875Q141.9375 417.57812 142.29688 418.21875Q142.67188 418.85938 142.76562 419.70312L141.64062 419.70312Q141.5625 419.10938 141.32812 418.6875Q141.10938 418.25 140.70312 418.01562Q140.29688 417.78125 139.625 417.78125Q139.0625 417.78125 138.625 418.0Q138.20312 418.20312 137.90625 418.60938Q137.625 419.0 137.46875 419.5625Q137.32812 420.125 137.32812 420.79688L137.32812 421.65625Q137.32812 422.28125 137.45312 422.84375Q137.59375 423.39062 137.85938 423.8125Q138.125 424.21875 138.54688 424.46875Q138.96875 424.70312 139.53125 424.70312Q140.25 424.70312 140.67188 424.46875Q141.10938 424.23438 141.32812 423.8125Q141.54688 423.39062 141.64062 422.78125ZM148.0625 424.42188L148.0625 421.15625Q148.0625 420.78125 147.90625 420.5Q147.76562 420.21875 147.46875 420.07812Q147.17188 419.92188 146.73438 419.92188Q146.3125 419.92188 146.0 420.0625Q145.70312 420.20312 145.53125 420.4375Q145.35938 420.65625 145.35938 420.92188L144.28125 420.92188Q144.28125 420.57812 144.45312 420.25Q144.625 419.90625 144.95312 419.64062Q145.28125 419.35938 145.75 419.20312Q146.21875 419.04688 146.79688 419.04688Q147.48438 419.04688 148.01562 419.28125Q148.54688 419.51562 148.84375 419.98438Q149.15625 420.45312 149.15625 421.15625L149.15625 424.10938Q149.15625 424.4375 149.20312 424.79688Q149.26562 425.14062 149.375 425.40625L149.375 425.5L148.23438 425.5Q148.15625 425.3125 148.10938 425.0Q148.0625 424.6875 148.0625 424.42188ZM148.25 421.65625L148.26562 422.42188L147.17188 422.42188Q146.70312 422.42188 146.34375 422.5Q145.98438 422.5625 145.73438 422.71875Q145.48438 422.85938 145.35938 423.07812Q145.23438 423.29688 145.23438 423.59375Q145.23438 423.89062 145.35938 424.14062Q145.5 424.375 145.76562 424.53125Q146.04688 424.67188 146.4375 424.67188Q146.9375 424.67188 147.3125 424.46875Q147.70312 424.25 147.92188 423.95312Q148.15625 423.64062 148.17188 423.34375L148.64062 423.875Q148.59375 424.10938 148.40625 424.42188Q148.23438 424.71875 147.92188 425.0Q147.625 425.26562 147.20312 425.45312Q146.79688 425.625 146.28125 425.625Q145.64062 425.625 145.15625 425.375Q144.67188 425.10938 144.40625 424.6875Q144.14062 424.26562 144.14062 423.73438Q144.14062 423.21875 144.32812 422.84375Q144.53125 422.45312 144.90625 422.1875Q145.28125 421.92188 145.8125 421.79688Q146.34375 421.65625 147.0 421.65625L148.25 421.65625ZM152.40625 420.15625L152.40625 425.5L151.32812 425.5L151.32812 419.15625L152.375 419.15625L152.40625 420.15625ZM154.39062 419.125L154.39062 420.125Q154.25 420.10938 154.125 420.09375Q154.01562 420.07812 153.85938 420.07812Q153.48438 420.07812 153.1875 420.20312Q152.90625 420.3125 152.70312 420.53125Q152.51562 420.73438 152.39062 421.03125Q152.28125 421.32812 152.25 421.67188L151.9375 421.84375Q151.9375 421.26562 152.04688 420.76562Q152.17188 420.26562 152.40625 419.875Q152.65625 419.48438 153.01562 419.26562Q153.39062 419.04688 153.90625 419.04688Q154.03125 419.04688 154.17188 419.07812Q154.32812 419.09375 154.39062 419.125ZM157.10938 424.84375L158.875 419.15625L160.03125 419.15625L157.48438 426.48438Q157.40625 426.71875 157.25 426.98438Q157.10938 427.26562 156.89062 427.5Q156.67188 427.75 156.35938 427.90625Q156.04688 428.0625 155.60938 428.0625Q155.48438 428.0625 155.28125 428.01562Q155.07812 427.98438 155.0 427.96875L155.0 427.09375Q155.04688 427.09375 155.14062 427.09375Q155.25 427.10938 155.28125 427.10938Q155.65625 427.10938 155.90625 427.01562Q156.17188 426.92188 156.34375 426.6875Q156.53125 426.46875 156.65625 426.07812L157.10938 424.84375ZM155.8125 419.15625L157.45312 424.07812L157.73438 425.21875L156.96875 425.625L154.625 419.15625L155.8125 419.15625ZM161.04688 422.40625L161.04688 422.26562Q161.04688 421.57812 161.23438 421.0Q161.4375 420.40625 161.8125 419.96875Q162.1875 419.53125 162.71875 419.29688Q163.25 419.04688 163.92188 419.04688Q164.57812 419.04688 165.10938 419.29688Q165.65625 419.53125 166.03125 419.96875Q166.40625 420.40625 166.60938 421.0Q166.8125 421.57812 166.8125 422.26562L166.8125 422.40625Q166.8125 423.07812 166.60938 423.67188Q166.40625 424.25 166.03125 424.6875Q165.65625 425.125 165.125 425.375Q164.59375 425.625 163.92188 425.625Q163.26562 425.625 162.71875 425.375Q162.1875 425.125 161.8125 424.6875Q161.4375 424.25 161.23438 423.67188Q161.04688 423.07812 161.04688 422.40625ZM162.125 422.26562L162.125 422.40625Q162.125 422.875 162.23438 423.29688Q162.34375 423.71875 162.5625 424.04688Q162.79688 424.35938 163.14062 424.54688Q163.48438 424.71875 163.92188 424.71875Q164.375 424.71875 164.70312 424.54688Q165.04688 424.35938 165.26562 424.04688Q165.5 423.71875 165.60938 423.29688Q165.71875 422.875 165.71875 422.40625L165.71875 422.26562Q165.71875 421.79688 165.60938 421.375Q165.5 420.95312 165.26562 420.64062Q165.04688 420.3125 164.70312 420.125Q164.375 419.9375 163.92188 419.9375Q163.46875 419.9375 163.125 420.125Q162.79688 420.3125 162.5625 420.64062Q162.34375 420.95312 162.23438 421.375Q162.125 421.79688 162.125 422.26562ZM169.40625 420.375L169.40625 427.9375L168.32812 427.9375L168.32812 419.15625L169.3125 419.15625L169.40625 420.375ZM173.6875 422.28125L173.6875 422.40625Q173.6875 423.09375 173.51562 423.6875Q173.35938 424.26562 173.04688 424.70312Q172.73438 425.14062 172.26562 425.39062Q171.8125 425.625 171.21875 425.625Q170.625 425.625 170.15625 425.42188Q169.6875 425.21875 169.35938 424.84375Q169.04688 424.45312 168.85938 423.92188Q168.67188 423.39062 168.59375 422.71875L168.59375 422.0625Q168.67188 421.35938 168.85938 420.8125Q169.04688 420.25 169.35938 419.85938Q169.6875 419.45312 170.14062 419.25Q170.60938 419.04688 171.20312 419.04688Q171.79688 419.04688 172.26562 419.28125Q172.73438 419.5 173.04688 419.9375Q173.35938 420.35938 173.51562 420.95312Q173.6875 421.54688 173.6875 422.28125ZM172.59375 422.40625L172.59375 422.28125Q172.59375 421.79688 172.48438 421.39062Q172.39062 420.96875 172.1875 420.65625Q171.98438 420.32812 171.65625 420.14062Q171.32812 419.95312 170.89062 419.95312Q170.48438 419.95312 170.17188 420.09375Q169.875 420.23438 169.65625 420.48438Q169.45312 420.71875 169.3125 421.01562Q169.1875 421.3125 169.125 421.64062L169.125 423.15625Q169.23438 423.5625 169.4375 423.92188Q169.65625 424.28125 170.0 424.5Q170.35938 424.71875 170.90625 424.71875Q171.34375 424.71875 171.65625 424.54688Q171.98438 424.35938 172.1875 424.04688Q172.39062 423.71875 172.48438 423.29688Q172.59375 422.875 172.59375 422.40625ZM176.40625 416.5L176.40625 425.5L175.32812 425.5L175.32812 416.5L176.40625 416.5ZM176.15625 422.09375L175.70312 422.07812Q175.70312 421.42188 175.89062 420.875Q176.07812 420.3125 176.42188 419.90625Q176.76562 419.5 177.23438 419.28125Q177.70312 419.04688 178.28125 419.04688Q178.75 419.04688 179.125 419.17188Q179.5 419.29688 179.76562 419.57812Q180.03125 419.84375 180.17188 420.28125Q180.3125 420.71875 180.3125 421.34375L180.3125 425.5L179.21875 425.5L179.21875 421.32812Q179.21875 420.82812 179.07812 420.53125Q178.9375 420.23438 178.65625 420.09375Q178.375 419.95312 177.95312 419.95312Q177.54688 419.95312 177.21875 420.125Q176.89062 420.29688 176.65625 420.59375Q176.42188 420.89062 176.28125 421.28125Q176.15625 421.65625 176.15625 422.09375ZM184.10938 424.84375L185.875 419.15625L187.03125 419.15625L184.48438 426.48438Q184.40625 426.71875 184.25 426.98438Q184.10938 427.26562 183.89062 427.5Q183.67188 427.75 183.35938 427.90625Q183.04688 428.0625 182.60938 428.0625Q182.48438 428.0625 182.28125 428.01562Q182.07812 427.98438 182.0 427.96875L182.0 427.09375Q182.04688 427.09375 182.14062 427.09375Q182.25 427.10938 182.28125 427.10938Q182.65625 427.10938 182.90625 427.01562Q183.17188 426.92188 183.34375 426.6875Q183.53125 426.46875 183.65625 426.07812L184.10938 424.84375ZM182.8125 419.15625L184.45312 424.07812L184.73438 425.21875L183.96875 425.625L181.625 419.15625L182.8125 419.15625ZM189.5 416.5L189.5 425.5L188.42188 425.5L188.42188 416.5L189.5 416.5ZM192.5 416.5L192.5 425.5L191.42188 425.5L191.42188 416.5L192.5 416.5ZM196.95312 425.625Q196.29688 425.625 195.75 425.40625Q195.21875 425.17188 194.82812 424.76562Q194.45312 424.34375 194.25 423.78125Q194.04688 423.21875 194.04688 422.54688L194.04688 422.3125Q194.04688 421.53125 194.26562 420.92188Q194.5 420.3125 194.89062 419.89062Q195.28125 419.46875 195.78125 419.26562Q196.28125 419.04688 196.8125 419.04688Q197.5 419.04688 197.98438 419.28125Q198.48438 419.51562 198.79688 419.9375Q199.125 420.34375 199.26562 420.92188Q199.42188 421.48438 199.42188 422.14062L199.42188 422.64062L194.6875 422.64062L194.6875 421.75L198.34375 421.75L198.34375 421.67188Q198.3125 421.25 198.15625 420.85938Q198.01562 420.45312 197.6875 420.20312Q197.375 419.9375 196.8125 419.9375Q196.45312 419.9375 196.14062 420.09375Q195.82812 420.25 195.59375 420.5625Q195.375 420.85938 195.25 421.29688Q195.14062 421.73438 195.14062 422.3125L195.14062 422.54688Q195.14062 423.0 195.26562 423.40625Q195.39062 423.79688 195.625 424.09375Q195.875 424.39062 196.21875 424.5625Q196.57812 424.73438 197.01562 424.73438Q197.59375 424.73438 197.98438 424.5Q198.39062 424.26562 198.6875 423.875L199.34375 424.39062Q199.14062 424.70312 198.8125 424.98438Q198.5 425.26562 198.03125 425.45312Q197.57812 425.625 196.95312 425.625ZM201.40625 420.51562L201.40625 425.5L200.32812 425.5L200.32812 419.15625L201.35938 419.15625L201.40625 420.51562ZM201.15625 422.09375L200.70312 422.07812Q200.70312 421.42188 200.89062 420.875Q201.07812 420.3125 201.42188 419.90625Q201.76562 419.5 202.23438 419.28125Q202.70312 419.04688 203.28125 419.04688Q203.75 419.04688 204.125 419.17188Q204.5 419.29688 204.76562 419.57812Q205.03125 419.84375 205.17188 420.28125Q205.3125 420.71875 205.3125 421.34375L205.3125 425.5L204.21875 425.5L204.21875 421.32812Q204.21875 420.82812 204.07812 420.53125Q203.9375 420.23438 203.65625 420.09375Q203.375 419.95312 202.95312 419.95312Q202.54688 419.95312 202.21875 420.125Q201.89062 420.29688 201.65625 420.59375Q201.42188 420.89062 201.28125 421.28125Q201.15625 421.65625 201.15625 422.09375Z" fill-rule="nonzero"/><path stroke="#cccccc" stroke-width="1.0" stroke-linecap="butt" d="M372.0 305.0L197.0 204.0" fill-rule="nonzero"/><path fill="#000000" d="M153.03125 191.34375Q153.03125 191.04688 152.9375 190.8125Q152.85938 190.57812 152.625 190.39062Q152.40625 190.20312 152.0 190.03125Q151.60938 189.85938 151.01562 189.6875Q150.375 189.5 149.85938 189.28125Q149.35938 189.04688 148.98438 188.75Q148.625 188.4375 148.4375 188.0625Q148.25 187.67188 148.25 187.17188Q148.25 186.67188 148.45312 186.25Q148.65625 185.82812 149.03125 185.51562Q149.42188 185.20312 149.95312 185.03125Q150.48438 184.84375 151.14062 184.84375Q152.10938 184.84375 152.78125 185.21875Q153.45312 185.57812 153.79688 186.17188Q154.15625 186.76562 154.15625 187.42188L153.03125 187.42188Q153.03125 186.95312 152.8125 186.57812Q152.60938 186.20312 152.1875 186.0Q151.78125 185.78125 151.14062 185.78125Q150.54688 185.78125 150.14062 185.96875Q149.75 186.14062 149.5625 186.45312Q149.375 186.76562 149.375 187.15625Q149.375 187.42188 149.48438 187.65625Q149.60938 187.875 149.84375 188.0625Q150.09375 188.25 150.46875 188.40625Q150.84375 188.5625 151.375 188.70312Q152.09375 188.90625 152.625 189.17188Q153.15625 189.42188 153.5 189.73438Q153.84375 190.04688 154.0 190.4375Q154.17188 190.82812 154.17188 191.32812Q154.17188 191.85938 153.95312 192.28125Q153.75 192.70312 153.35938 193.0Q152.96875 193.29688 152.42188 193.46875Q151.875 193.625 151.20312 193.625Q150.60938 193.625 150.03125 193.45312Q149.46875 193.28125 149.0 192.95312Q148.53125 192.625 148.25 192.15625Q147.96875 191.67188 147.96875 191.03125L149.09375 191.03125Q149.09375 191.46875 149.26562 191.78125Q149.4375 192.09375 149.73438 192.29688Q150.03125 192.5 150.40625 192.60938Q150.78125 192.70312 151.20312 192.70312Q151.79688 192.70312 152.20312 192.54688Q152.60938 192.375 152.8125 192.07812Q153.03125 191.76562 153.03125 191.34375ZM155.04688 190.40625L155.04688 190.26562Q155.04688 189.57812 155.23438 189.0Q155.4375 188.40625 155.8125 187.96875Q156.1875 187.53125 156.71875 187.29688Q157.25 187.04688 157.92188 187.04688Q158.57812 187.04688 159.10938 187.29688Q159.65625 187.53125 160.03125 187.96875Q160.40625 188.40625 160.60938 189.0Q160.8125 189.57812 160.8125 190.26562L160.8125 190.40625Q160.8125 191.07812 160.60938 191.67188Q160.40625 192.25 160.03125 192.6875Q159.65625 193.125 159.125 193.375Q158.59375 193.625 157.92188 193.625Q157.26562 193.625 156.71875 193.375Q156.1875 193.125 155.8125 192.6875Q155.4375 192.25 155.23438 191.67188Q155.04688 191.07812 155.04688 190.40625ZM156.125 190.26562L156.125 190.40625Q156.125 190.875 156.23438 191.29688Q156.34375 191.71875 156.5625 192.04688Q156.79688 192.35938 157.14062 192.54688Q157.48438 192.71875 157.92188 192.71875Q158.375 192.71875 158.70312 192.54688Q159.04688 192.35938 159.26562 192.04688Q159.5 191.71875 159.60938 191.29688Q159.71875 190.875 159.71875 190.40625L159.71875 190.26562Q159.71875 189.79688 159.60938 189.375Q159.5 188.95312 159.26562 188.64062Q159.04688 188.3125 158.70312 188.125Q158.375 187.9375 157.92188 187.9375Q157.46875 187.9375 157.125 188.125Q156.79688 188.3125 156.5625 188.64062Q156.34375 188.95312 156.23438 189.375Q156.125 189.79688 156.125 190.26562ZM163.40625 188.51562L163.40625 193.5L162.32812 193.5L162.32812 187.15625L163.35938 187.15625L163.40625 188.51562ZM163.15625 190.09375L162.70312 190.07812Q162.70312 189.42188 162.89062 188.875Q163.07812 188.3125 163.42188 187.90625Q163.76562 187.5 164.23438 187.28125Q164.70312 187.04688 165.28125 187.04688Q165.75 187.04688 166.125 187.17188Q166.5 187.29688 166.76562 187.57812Q167.03125 187.84375 167.17188 188.28125Q167.3125 188.71875 167.3125 189.34375L167.3125 193.5L166.21875 193.5L166.21875 189.32812Q166.21875 188.82812 166.07812 188.53125Q165.9375 188.23438 165.65625 188.09375Q165.375 187.95312 164.95312 187.95312Q164.54688 187.95312 164.21875 188.125Q163.89062 188.29688 163.65625 188.59375Q163.42188 188.89062 163.28125 189.28125Q163.15625 189.65625 163.15625 190.09375ZM173.01562 191.8125Q173.01562 191.57812 172.90625 191.375Q172.8125 191.17188 172.5 191.01562Q172.1875 190.84375 171.5625 190.71875Q171.03125 190.60938 170.60938 190.46875Q170.1875 190.3125 169.89062 190.09375Q169.59375 189.875 169.4375 189.57812Q169.28125 189.28125 169.28125 188.89062Q169.28125 188.51562 169.4375 188.1875Q169.60938 187.84375 169.90625 187.59375Q170.21875 187.32812 170.65625 187.1875Q171.09375 187.04688 171.625 187.04688Q172.39062 187.04688 172.92188 187.3125Q173.46875 187.57812 173.75 188.03125Q174.03125 188.48438 174.03125 189.01562L172.95312 189.01562Q172.95312 188.76562 172.79688 188.51562Q172.64062 188.26562 172.34375 188.10938Q172.04688 187.9375 171.625 187.9375Q171.17188 187.9375 170.89062 188.07812Q170.60938 188.20312 170.48438 188.42188Q170.35938 188.625 170.35938 188.85938Q170.35938 189.04688 170.42188 189.1875Q170.48438 189.3125 170.64062 189.4375Q170.79688 189.54688 171.07812 189.65625Q171.375 189.75 171.82812 189.84375Q172.60938 190.01562 173.10938 190.26562Q173.60938 190.51562 173.85938 190.875Q174.10938 191.21875 174.10938 191.73438Q174.10938 192.15625 173.92188 192.5Q173.75 192.84375 173.42188 193.09375Q173.10938 193.34375 172.65625 193.48438Q172.20312 193.625 171.65625 193.625Q170.8125 193.625 170.23438 193.32812Q169.65625 193.01562 169.35938 192.54688Q169.0625 192.0625 169.0625 191.54688L170.14062 191.54688Q170.17188 191.98438 170.40625 192.25Q170.64062 192.51562 170.96875 192.625Q171.3125 192.71875 171.65625 192.71875Q172.09375 192.71875 172.39062 192.60938Q172.70312 192.48438 172.85938 192.28125Q173.01562 192.07812 173.01562 191.8125ZM177.98438 187.15625L177.98438 187.98438L174.54688 187.98438L174.54688 187.15625L177.98438 187.15625ZM175.71875 185.625L176.79688 185.625L176.79688 191.92188Q176.79688 192.25 176.89062 192.42188Q177.0 192.57812 177.15625 192.64062Q177.3125 192.6875 177.5 192.6875Q177.625 192.6875 177.76562 192.65625Q177.92188 192.625 178.0 192.60938L178.01562 193.5Q177.875 193.54688 177.67188 193.57812Q177.46875 193.625 177.17188 193.625Q176.78125 193.625 176.4375 193.46875Q176.10938 193.29688 175.90625 192.9375Q175.71875 192.5625 175.71875 191.92188L175.71875 185.625ZM180.5 187.15625L180.5 193.5L179.42188 193.5L179.42188 187.15625L180.5 187.15625ZM179.32812 185.48438Q179.32812 185.21875 179.48438 185.03125Q179.65625 184.84375 179.96875 184.84375Q180.28125 184.84375 180.4375 185.03125Q180.60938 185.21875 180.60938 185.48438Q180.60938 185.73438 180.4375 185.92188Q180.28125 186.09375 179.96875 186.09375Q179.65625 186.09375 179.48438 185.92188Q179.32812 185.73438 179.32812 185.48438ZM186.4375 187.15625L187.42188 187.15625L187.42188 193.35938Q187.42188 194.20312 187.07812 194.79688Q186.73438 195.39062 186.125 195.6875Q185.53125 196.0 184.73438 196.0Q184.40625 196.0 183.95312 195.89062Q183.51562 195.79688 183.09375 195.54688Q182.67188 195.3125 182.39062 194.90625L182.95312 194.25Q183.35938 194.73438 183.78125 194.92188Q184.21875 195.10938 184.65625 195.10938Q185.17188 195.10938 185.54688 194.90625Q185.92188 194.71875 186.125 194.34375Q186.32812 193.96875 186.32812 193.42188L186.32812 188.54688L186.4375 187.15625ZM182.0625 190.40625L182.0625 190.28125Q182.0625 189.54688 182.23438 188.95312Q182.42188 188.35938 182.73438 187.9375Q183.0625 187.5 183.51562 187.28125Q183.98438 187.04688 184.57812 187.04688Q185.17188 187.04688 185.60938 187.25Q186.0625 187.45312 186.375 187.85938Q186.6875 188.25 186.875 188.8125Q187.0625 189.35938 187.125 190.0625L187.125 190.60938Q187.0625 191.29688 186.875 191.85938Q186.6875 192.42188 186.375 192.8125Q186.0625 193.20312 185.60938 193.42188Q185.15625 193.625 184.5625 193.625Q183.98438 193.625 183.53125 193.39062Q183.07812 193.14062 182.75 192.70312Q182.42188 192.26562 182.23438 191.6875Q182.0625 191.09375 182.0625 190.40625ZM183.15625 190.28125L183.15625 190.40625Q183.15625 190.875 183.25 191.29688Q183.34375 191.70312 183.54688 192.03125Q183.75 192.34375 184.0625 192.53125Q184.39062 192.70312 184.82812 192.70312Q185.35938 192.70312 185.70312 192.46875Q186.0625 192.23438 186.26562 191.85938Q186.48438 191.48438 186.59375 191.04688L186.59375 189.64062Q186.53125 189.3125 186.39062 189.01562Q186.26562 188.71875 186.0625 188.48438Q185.85938 188.23438 185.54688 188.09375Q185.25 187.95312 184.82812 187.95312Q184.39062 187.95312 184.0625 188.14062Q183.75 188.32812 183.54688 188.65625Q183.34375 188.96875 183.25 189.39062Q183.15625 189.79688 183.15625 190.28125ZM191.95312 193.625Q191.29688 193.625 190.75 193.40625Q190.21875 193.17188 189.82812 192.76562Q189.45312 192.34375 189.25 191.78125Q189.04688 191.21875 189.04688 190.54688L189.04688 190.3125Q189.04688 189.53125 189.26562 188.92188Q189.5 188.3125 189.89062 187.89062Q190.28125 187.46875 190.78125 187.26562Q191.28125 187.04688 191.8125 187.04688Q192.5 187.04688 192.98438 187.28125Q193.48438 187.51562 193.79688 187.9375Q194.125 188.34375 194.26562 188.92188Q194.42188 189.48438 194.42188 190.14062L194.42188 190.64062L189.6875 190.64062L189.6875 189.75L193.34375 189.75L193.34375 189.67188Q193.3125 189.25 193.15625 188.85938Q193.01562 188.45312 192.6875 188.20312Q192.375 187.9375 191.8125 187.9375Q191.45312 187.9375 191.14062 188.09375Q190.82812 188.25 190.59375 188.5625Q190.375 188.85938 190.25 189.29688Q190.14062 189.73438 190.14062 190.3125L190.14062 190.54688Q190.14062 191.0 190.26562 191.40625Q190.39062 191.79688 190.625 192.09375Q190.875 192.39062 191.21875 192.5625Q191.57812 192.73438 192.01562 192.73438Q192.59375 192.73438 192.98438 192.5Q193.39062 192.26562 193.6875 191.875L194.34375 192.39062Q194.14062 192.70312 193.8125 192.98438Q193.5 193.26562 193.03125 193.45312Q192.57812 193.625 191.95312 193.625Z" fill-rule="nonzero"/><path stroke="#cccccc" stroke-width="1.0" stroke-linecap="butt" d="M372.0 305.0L372.0 103.0" fill-rule="nonzero"/><path stroke="#ff0000" stroke-width="2.0" stroke-linecap="butt" stroke-opacity="0.7019608" stroke-dasharray="8.0,6.0,2.0,6.0" d="M372.0 134.0L442.0 265.0L403.0 323.0L372.0 340.0L346.0 320.0L263.0 242.0Z" fill-rule="nonzero"/><path fill="#ff0000" fill-opacity="0.7019608" d="M368.81802 130.81802L372.0 132.875L375.18198 130.81802L373.125 134.0L375.18198 137.18198L372.0 135.125L368.81802 137.18198L370.875 134.0Z" fill-rule="nonzero"/><path fill="#ff0000" fill-opacity="0.7019608" d="M438.81802 261.81802L442.0 263.875L445.18198 261.81802L443.125 265.0L445.18198 268.18198L442.0 266.125L438.81802 268.18198L440.875 265.0Z" fill-rule="nonzero"/><path fill="#ff0000" fill-opacity="0.7019608" d="M399.81802 319.81802L403.0 321.875L406.18198 319.81802L404.125 323.0L406.18198 326.18198L403.0 324.125L399.81802 326.18198L401.875 323.0Z" fill-rule="nonzero"/><path fill="#ff0000" fill-opacity="0.7019608" d="M368.81802 336.81802L372.0 338.875L375.18198 336.81802L373.125 340.0L375.18198 343.18198L372.0 341.125L368.81802 343.18198L370.875 340.0Z" fill-rule="nonzero"/><path fill="#ff0000" fill-opacity="0.7019608" d="M342.81802 316.81802L346.0 318.875L349.18198 316.81802L347.125 320.0L349.18198 323.18198L346.0 321.125L342.81802 323.18198L344.875 320.0Z" fill-rule="nonzero"/><path fill="#ff0000" fill-opacity="0.7019608" d="M259.81802 238.81802L263.0 240.875L266.18198 238.81802L264.125 242.0L266.18198 245.18198L263.0 243.125L259.81802 245.18198L261.875 242.0Z" fill-rule="nonzero"/><path fill="#757575" d="M29.896875 47.35L29.896875 33.0375L35.2875 33.0375Q36.725 33.0375 37.475 33.1625Q38.521873 33.35 39.240623 33.85Q39.959373 34.334373 40.38125 35.225Q40.81875 36.115623 40.81875 37.178123Q40.81875 39.00625 39.646873 40.271873Q38.490623 41.521873 35.459373 41.521873L31.7875 41.521873L31.7875 47.35L29.896875 47.35ZM31.7875 39.834373L35.490623 39.834373Q37.31875 39.834373 38.084373 39.1625Q38.865623 38.475 38.865623 37.225Q38.865623 36.334373 38.4125 35.69375Q37.959373 35.053123 37.225 34.85Q36.740623 34.725 35.44375 34.725L31.7875 34.725L31.7875 39.834373ZM42.646873 47.35L42.646873 36.975L44.225 36.975L44.225 38.553123Q44.834373 37.44375 45.35 37.1Q45.865623 36.740623 46.475 36.740623Q47.365623 36.740623 48.2875 37.303123L47.678123 38.94375Q47.0375 38.553123 46.396873 38.553123Q45.81875 38.553123 45.35 38.9125Q44.896873 39.25625 44.69375 39.865623Q44.4125 40.803123 44.4125 41.9125L44.4125 47.35L42.646873 47.35ZM49.678123 35.053123L49.678123 33.0375L51.44375 33.0375L51.44375 35.053123L49.678123 35.053123ZM49.678123 47.35L49.678123 36.975L51.44375 36.975L51.44375 47.35L49.678123 47.35ZM56.553123 47.35L52.6 36.975L54.459373 36.975L56.69375 43.19375Q57.053123 44.19375 57.35 45.271873Q57.584373 44.459373 58.00625 43.303123L60.303123 36.975L62.115623 36.975L58.19375 47.35L56.553123 47.35ZM69.44375 46.06875Q68.45937 46.896873 67.55312 47.240623Q66.64687 47.584373 65.61562 47.584373Q63.9125 47.584373 62.990623 46.75625Q62.06875 45.9125 62.06875 44.615623Q62.06875 43.85 62.4125 43.225Q62.771873 42.6 63.334373 42.225Q63.896873 41.834373 64.6 41.63125Q65.11562 41.50625 66.1625 41.365623Q68.2875 41.115623 69.2875 40.771873Q69.30312 40.4125 69.30312 40.303123Q69.30312 39.240623 68.80312 38.7875Q68.13125 38.19375 66.80312 38.19375Q65.55312 38.19375 64.95937 38.63125Q64.38125 39.06875 64.1 40.178123L62.38125 39.94375Q62.615623 38.834373 63.146873 38.1625Q63.678123 37.475 64.69375 37.115623Q65.70937 36.740623 67.05312 36.740623Q68.38125 36.740623 69.20937 37.053123Q70.0375 37.365623 70.42812 37.85Q70.81875 38.31875 70.975 39.0375Q71.06875 39.490623 71.06875 40.6625L71.06875 43.00625Q71.06875 45.459373 71.17812 46.115623Q71.2875 46.75625 71.63125 47.35L69.7875 47.35Q69.52187 46.803123 69.44375 46.06875ZM69.2875 42.146873Q68.33437 42.5375 66.4125 42.803123Q65.33437 42.959373 64.88125 43.1625Q64.44375 43.35 64.19375 43.725Q63.94375 44.1 63.94375 44.56875Q63.94375 45.271873 64.475 45.740623Q65.00625 46.209373 66.0375 46.209373Q67.05312 46.209373 67.83437 45.771873Q68.63125 45.31875 69.00625 44.553123Q69.2875 43.94375 69.2875 42.7875L69.2875 42.146873ZM77.50625 45.771873L77.75625 47.334373Q77.02187 47.490623 76.42812 47.490623Q75.475 47.490623 74.94375 47.19375Q74.42812 46.88125 74.20937 46.396873Q73.99062 45.896873 73.99062 44.31875L73.99062 38.35L72.70937 38.35L72.70937 36.975L73.99062 36.975L73.99062 34.4125L75.74062 33.35L75.74062 36.975L77.50625 36.975L77.50625 38.35L75.74062 38.35L75.74062 44.4125Q75.74062 45.1625 75.83437 45.38125Q75.92812 45.584373 76.13125 45.725Q76.35 45.85 76.74062 45.85Q77.02187 45.85 77.50625 45.771873ZM86.77187 44.00625L88.58437 44.240623Q88.1625 45.81875 86.99062 46.709373Q85.83437 47.584373 84.02187 47.584373Q81.75625 47.584373 80.4125 46.19375Q79.08437 44.7875 79.08437 42.25625Q79.08437 39.63125 80.42812 38.19375Q81.77187 36.740623 83.92812 36.740623Q86.00625 36.740623 87.31875 38.1625Q88.64687 39.56875 88.64687 42.146873Q88.64687 42.303123 88.63125 42.615623L80.89687 42.615623Q80.99062 44.31875 81.86562 45.225Q82.74062 46.13125 84.0375 46.13125Q85.00625 46.13125 85.67812 45.63125Q86.36562 45.115623 86.77187 44.00625ZM80.99062 41.1625L86.7875 41.1625Q86.67812 39.865623 86.13125 39.209373Q85.2875 38.19375 83.94375 38.19375Q82.74062 38.19375 81.9125 39.00625Q81.08437 39.803123 80.99062 41.1625ZM96.81875 47.35L96.81875 33.0375L102.19375 33.0375Q103.83437 33.0375 104.81875 33.475Q105.80312 33.896873 106.36562 34.803123Q106.92812 35.709373 106.92812 36.69375Q106.92812 37.615623 106.42812 38.428123Q105.94375 39.240623 104.92812 39.725Q106.225 40.115623 106.92812 41.0375Q107.63125 41.94375 107.63125 43.19375Q107.63125 44.209373 107.19375 45.06875Q106.77187 45.928123 106.14687 46.396873Q105.52187 46.865623 104.58437 47.115623Q103.64687 47.35 102.27187 47.35L96.81875 47.35ZM98.70937 39.053123L101.80312 39.053123Q103.06875 39.053123 103.61562 38.88125Q104.33437 38.6625 104.69375 38.178123Q105.06875 37.678123 105.06875 36.9125Q105.06875 36.209373 104.725 35.6625Q104.38125 35.115623 103.74062 34.928123Q103.11562 34.725 101.56875 34.725L98.70937 34.725L98.70937 39.053123ZM98.70937 45.6625L102.27187 45.6625Q103.19375 45.6625 103.56875 45.584373Q104.225 45.475 104.6625 45.209373Q105.1 44.928123 105.38125 44.4125Q105.6625 43.88125 105.6625 43.19375Q105.6625 42.396873 105.25625 41.803123Q104.85 41.209373 104.11562 40.975Q103.38125 40.740623 102.02187 40.740623L98.70937 40.740623L98.70937 45.6625ZM116.44375 46.06875Q115.45937 46.896873 114.55312 47.240623Q113.64687 47.584373 112.61562 47.584373Q110.9125 47.584373 109.99062 46.75625Q109.06875 45.9125 109.06875 44.615623Q109.06875 43.85 109.4125 43.225Q109.77187 42.6 110.33437 42.225Q110.89687 41.834373 111.6 41.63125Q112.11562 41.50625 113.1625 41.365623Q115.2875 41.115623 116.2875 40.771873Q116.30312 40.4125 116.30312 40.303123Q116.30312 39.240623 115.80312 38.7875Q115.13125 38.19375 113.80312 38.19375Q112.55312 38.19375 111.95937 38.63125Q111.38125 39.06875 111.1 40.178123L109.38125 39.94375Q109.61562 38.834373 110.14687 38.1625Q110.67812 37.475 111.69375 37.115623Q112.70937 36.740623 114.05312 36.740623Q115.38125 36.740623 116.20937 37.053123Q117.0375 37.365623 117.42812 37.85Q117.81875 38.31875 117.975 39.0375Q118.06875 39.490623 118.06875 40.6625L118.06875 43.00625Q118.06875 45.459373 118.17812 46.115623Q118.2875 46.75625 118.63125 47.35L116.7875 47.35Q116.52187 46.803123 116.44375 46.06875ZM116.2875 42.146873Q115.33437 42.5375 113.4125 42.803123Q112.33437 42.959373 111.88125 43.1625Q111.44375 43.35 111.19375 43.725Q110.94375 44.1 110.94375 44.56875Q110.94375 45.271873 111.475 45.740623Q112.00625 46.209373 113.0375 46.209373Q114.05312 46.209373 114.83437 45.771873Q115.63125 45.31875 116.00625 44.553123Q116.2875 43.94375 116.2875 42.7875L116.2875 42.146873ZM120.6625 47.35L120.6625 36.975L122.25625 36.975L122.25625 38.459373Q123.39687 36.740623 125.55312 36.740623Q126.49062 36.740623 127.27187 37.084373Q128.06876 37.4125 128.45938 37.959373Q128.85 38.50625 129.00626 39.25625Q129.1 39.75625 129.1 40.975L129.1 47.35L127.33437 47.35L127.33437 41.0375Q127.33437 39.959373 127.13125 39.428123Q126.92812 38.896873 126.39687 38.584373Q125.88125 38.271873 125.17812 38.271873Q124.05312 38.271873 123.24062 38.990623Q122.42812 39.69375 122.42812 41.678123L122.42812 47.35L120.6625 47.35ZM137.44376 46.06875Q136.45938 46.896873 135.55313 47.240623Q134.64688 47.584373 133.61563 47.584373Q131.9125 47.584373 130.99063 46.75625Q130.06876 45.9125 130.06876 44.615623Q130.06876 43.85 130.4125 43.225Q130.77188 42.6 131.33438 42.225Q131.89688 41.834373 132.6 41.63125Q133.11563 41.50625 134.1625 41.365623Q136.2875 41.115623 137.2875 40.771873Q137.30313 40.4125 137.30313 40.303123Q137.30313 39.240623 136.80313 38.7875Q136.13126 38.19375 134.80313 38.19375Q133.55313 38.19375 132.95938 38.63125Q132.38126 39.06875 132.1 40.178123L130.38126 39.94375Q130.61563 38.834373 131.14688 38.1625Q131.67813 37.475 132.69376 37.115623Q133.70938 36.740623 135.05313 36.740623Q136.38126 36.740623 137.20938 37.053123Q138.0375 37.365623 138.42813 37.85Q138.81876 38.31875 138.975 39.0375Q139.06876 39.490623 139.06876 40.6625L139.06876 43.00625Q139.06876 45.459373 139.17813 46.115623Q139.2875 46.75625 139.63126 47.35L137.7875 47.35Q137.52188 46.803123 137.44376 46.06875ZM137.2875 42.146873Q136.33438 42.5375 134.4125 42.803123Q133.33438 42.959373 132.88126 43.1625Q132.44376 43.35 132.19376 43.725Q131.94376 44.1 131.94376 44.56875Q131.94376 45.271873 132.475 45.740623Q133.00626 46.209373 134.0375 46.209373Q135.05313 46.209373 135.83438 45.771873Q136.63126 45.31875 137.00626 44.553123Q137.2875 43.94375 137.2875 42.7875L137.2875 42.146873ZM141.6625 47.35L141.6625 36.975L143.25626 36.975L143.25626 38.459373Q144.39688 36.740623 146.55313 36.740623Q147.49063 36.740623 148.27188 37.084373Q149.06876 37.4125 149.45938 37.959373Q149.85 38.50625 150.00626 39.25625Q150.1 39.75625 150.1 40.975L150.1 47.35L148.33438 47.35L148.33438 41.0375Q148.33438 39.959373 148.13126 39.428123Q147.92813 38.896873 147.39688 38.584373Q146.88126 38.271873 146.17813 38.271873Q145.05313 38.271873 144.24063 38.990623Q143.42813 39.69375 143.42813 41.678123L143.42813 47.35L141.6625 47.35ZM158.44376 46.06875Q157.45938 46.896873 156.55313 47.240623Q155.64688 47.584373 154.61563 47.584373Q152.9125 47.584373 151.99063 46.75625Q151.06876 45.9125 151.06876 44.615623Q151.06876 43.85 151.4125 43.225Q151.77188 42.6 152.33438 42.225Q152.89688 41.834373 153.6 41.63125Q154.11563 41.50625 155.1625 41.365623Q157.2875 41.115623 158.2875 40.771873Q158.30313 40.4125 158.30313 40.303123Q158.30313 39.240623 157.80313 38.7875Q157.13126 38.19375 155.80313 38.19375Q154.55313 38.19375 153.95938 38.63125Q153.38126 39.06875 153.1 40.178123L151.38126 39.94375Q151.61563 38.834373 152.14688 38.1625Q152.67813 37.475 153.69376 37.115623Q154.70938 36.740623 156.05313 36.740623Q157.38126 36.740623 158.20938 37.053123Q159.0375 37.365623 159.42813 37.85Q159.81876 38.31875 159.975 39.0375Q160.06876 39.490623 160.06876 40.6625L160.06876 43.00625Q160.06876 45.459373 160.17813 46.115623Q160.2875 46.75625 160.63126 47.35L158.7875 47.35Q158.52188 46.803123 158.44376 46.06875ZM158.2875 42.146873Q157.33438 42.5375 155.4125 42.803123Q154.33438 42.959373 153.88126 43.1625Q153.44376 43.35 153.19376 43.725Q152.94376 44.1 152.94376 44.56875Q152.94376 45.271873 153.475 45.740623Q154.00626 46.209373 155.0375 46.209373Q156.05313 46.209373 156.83438 45.771873Q157.63126 45.31875 158.00626 44.553123Q158.2875 43.94375 158.2875 42.7875L158.2875 42.146873Z" fill-rule="nonzero"/></svg>