<svg version="1.1" viewBox="0.0 0.0 744.0 567.0" fill="none" stroke="none" stroke-linecap="square" stroke-miterlimit="10" width="744" height="567" xmlns:xlink="http://www.w3.org/1999/xlink" xmlns="http://www.w3.org/2000/svg"><path fill="#ffffff" d="M0 0L744.0 0L744.0 567.0L0 567.0L0 0Z" fill-rule="nonzero"/><path fill="#ffffff" d="M28.35 71.25L715.64996 71.25L715.64996 538.65L28.35 538.65L28.35 71.25Z" fill-rule="nonzero"/><path stroke="#cccccc" stroke-width="1.0" stroke-linecap="butt" d="M372.0 305.0C372.0 305.0 372.0 305.0 372.0 305.0C372.0 305.0 372.0 305.0 372.0 305.0C372.0 305.0 372.0 305.0 372.0 305.0C372.0 305.0 372.0 305.0 372.0 305.0" fill-rule="nonzero"/><path fill="#000000" d="M360.0625 297.04688L360.0625 298.35938Q360.0625 299.40625 359.875 300.125Q359.6875 300.84375 359.32812 301.28125Q358.98438 301.71875 358.48438 301.92188Q358.0 302.125 357.375 302.125Q356.89062 302.125 356.46875 302.0Q356.04688 301.875 355.71875 301.60938Q355.39062 301.32812 355.15625 300.89062Q354.92188 300.45312 354.79688 299.82812Q354.67188 299.1875 354.67188 298.35938L354.67188 297.04688Q354.67188 296.0 354.85938 295.29688Q355.0625 294.59375 355.40625 294.15625Q355.76562 293.71875 356.25 293.53125Q356.75 293.34375 357.35938 293.34375Q357.85938 293.34375 358.28125 293.46875Q358.70312 293.59375 359.03125 293.85938Q359.35938 294.10938 359.57812 294.54688Q359.8125 294.96875 359.9375 295.59375Q360.0625 296.21875 360.0625 297.04688ZM358.96875 298.53125L358.96875 296.875Q358.96875 296.29688 358.90625 295.85938Q358.84375 295.42188 358.70312 295.10938Q358.57812 294.79688 358.375 294.60938Q358.1875 294.42188 357.9375 294.32812Q357.6875 294.23438 357.35938 294.23438Q356.98438 294.23438 356.67188 294.375Q356.375 294.51562 356.17188 294.82812Q355.96875 295.14062 355.85938 295.65625Q355.76562 296.15625 355.76562 296.875L355.76562 298.53125Q355.76562 299.10938 355.82812 299.54688Q355.90625 299.98438 356.03125 300.3125Q356.17188 300.625 356.35938 300.82812Q356.5625 301.03125 356.8125 301.125Q357.0625 301.21875 357.375 301.21875Q357.78125 301.21875 358.07812 301.07812Q358.375 300.92188 358.57812 300.59375Q358.78125 300.26562 358.875 299.76562Q358.96875 299.25 358.96875 298.53125ZM362.8125 300.70312L362.8125 301.57812Q362.8125 302.125 362.53125 302.71875Q362.26562 303.3125 361.78125 303.70312L361.17188 303.28125Q361.35938 303.01562 361.48438 302.75Q361.60938 302.48438 361.67188 302.20312Q361.75 301.92188 361.75 301.59375L361.75 300.70312L362.8125 300.70312ZM369.0625 297.04688L369.0625 298.35938Q369.0625 299.40625 368.875 300.125Q368.6875 300.84375 368.32812 301.28125Q367.98438 301.71875 367.48438 301.92188Q367.0 302.125 366.375 302.125Q365.89062 302.125 365.46875 302.0Q365.04688 301.875 364.71875 301.60938Q364.39062 301.32812 364.15625 300.89062Q363.92188 300.45312 363.79688 299.82812Q363.67188 299.1875 363.67188 298.35938L363.67188 297.04688Q363.67188 296.0 363.85938 295.29688Q364.0625 294.59375 364.40625 294.15625Q364.76562 293.71875 365.25 293.53125Q365.75 293.34375 366.35938 293.34375Q366.85938 293.34375 367.28125 293.46875Q367.70312 293.59375 368.03125 293.85938Q368.35938 294.10938 368.57812 294.54688Q368.8125 294.96875 368.9375 295.59375Q369.0625 296.21875 369.0625 297.04688ZM367.96875 298.53125L367.96875 296.875Q367.96875 296.29688 367.90625 295.85938Q367.84375 295.42188 367.70312 295.10938Q367.57812 294.79688 367.375 294.60938Q367.1875 294.42188 366.9375 294.32812Q366.6875 294.23438 366.35938 294.23438Q365.98438 294.23438 365.67188 294.375Q365.375 294.51562 365.17188 294.82812Q364.96875 295.14062 364.85938 295.65625Q364.76562 296.15625 364.76562 296.875L364.76562 298.53125Q364.76562 299.10938 364.82812 299.54688Q364.90625 299.98438 365.03125 300.3125Q365.17188 300.625 365.35938 300.82812Q365.5625 301.03125 365.8125 301.125Q366.0625 301.21875 366.375 301.21875Q366.78125 301.21875 367.07812 301.07812Q367.375 300.92188 367.57812 300.59375Q367.78125 300.26562 367.875 299.76562Q367.96875 299.25 367.96875 298.53125Z" fill-rule="nonzero"/><path stroke="#cccccc" stroke-width="1.0" stroke-linecap="butt" d="M422.425 305.0C422.425 277.15103 399.84897 254.575 372.0 254.575C344.15103 254.575 321.575 277.15103 321.575 305.0C321.575 332.84897 344.15103 355.425 372.0 355.425C399.84897 355.425 422.425 332.84897 422.425 305.0" fill-rule="nonzero"/><path fill="#000000" d="M360.0625 246.62187L360.0625 247.93437Q360.0625 248.98125 359.875 249.7Q359.6875 250.41875 359.32812 250.85625Q358.98438 251.29375 358.48438 251.49687Q358.0 251.7 357.375 251.7Q356.89062 251.7 356.46875 251.575Q356.04688 251.45 355.71875 251.18437Q355.39062 250.90312 355.15625 250.46562Q354.92188 250.02812 354.79688 249.40312Q354.67188 248.7625 354.67188 247.93437L354.67188 246.62187Q354.67188 245.575 354.85938 244.87187Q355.0625 244.16875 355.40625 243.73125Q355.76562 243.29375 356.25 243.10625Q356.75 242.91875 357.35938 242.91875Q357.85938 242.91875 358.28125 243.04375Q358.70312 243.16875 359.03125 243.43437Q359.35938 243.68437 359.57812 244.12187Q359.8125 244.54375 359.9375 245.16875Q360.0625 245.79375 360.0625 246.62187ZM358.96875 248.10625L358.96875 246.45Q358.96875 245.87187 358.90625 245.43437Q358.84375 244.99687 358.70312 244.68437Q358.57812 244.37187 358.375 244.18437Q358.1875 243.99687 357.9375 243.90312Q357.6875 243.80937 357.35938 243.80937Q356.98438 243.80937 356.67188 243.95Q356.375 244.09062 356.17188 244.40312Q355.96875 244.71562 355.85938 245.23125Q355.76562 245.73125 355.76562 246.45L355.76562 248.10625Q355.76562 248.68437 355.82812 249.12187Q355.90625 249.55937 356.03125 249.8875Q356.17188 250.2 356.35938 250.40312Q356.5625 250.60625 356.8125 250.7Q357.0625 250.79375 357.375 250.79375Q357.78125 250.79375 358.07812 250.65312Q358.375 250.49687 358.57812 250.16875Q358.78125 249.84062 358.875 249.34062Q358.96875 248.825 358.96875 248.10625ZM362.8125 250.27812L362.8125 251.15312Q362.8125 251.7 362.53125 252.29375Q362.26562 252.8875 361.78125 253.27812L361.17188 252.85625Q361.35938 252.59062 361.48438 252.325Q361.60938 252.05937 361.67188 251.77812Q361.75 251.49687 361.75 251.16875L361.75 250.27812L362.8125 250.27812ZM369.29688 250.68437L369.29688 251.575L363.71875 251.575L363.71875 250.79375L366.51562 247.68437Q367.03125 247.10625 367.3125 246.71562Q367.59375 246.30937 367.70312 245.99687Q367.82812 245.66875 367.82812 245.34062Q367.82812 244.91875 367.65625 244.575Q367.48438 244.23125 367.14062 244.02812Q366.8125 243.80937 366.32812 243.80937Q365.76562 243.80937 365.39062 244.04375Q365.01562 244.2625 364.82812 244.65312Q364.64062 245.04375 364.64062 245.54375L363.54688 245.54375Q363.54688 244.825 363.85938 244.23125Q364.1875 243.6375 364.79688 243.27812Q365.42188 242.91875 366.32812 242.91875Q367.14062 242.91875 367.71875 243.21562Q368.29688 243.49687 368.59375 244.0125Q368.90625 244.5125 368.90625 245.2Q368.90625 245.575 368.78125 245.96562Q368.65625 246.34062 368.4375 246.73125Q368.21875 247.10625 367.92188 247.48125Q367.64062 247.84062 367.3125 248.2L365.01562 250.68437L369.29688 250.68437Z" fill-rule="nonzero"/><path stroke="#cccccc" stroke-width="1.0" stroke-linecap="butt" d="M472.85 305.0C472.85 249.30208 427.6979 204.15 372.0 204.15C316.3021 204.15 271.15 249.30208 271.15 305.0C271.15 360.6979 316.3021 405.85 372.0 405.85C427.6979 405.85 472.85 360.6979 472.85 305.0" fill-rule="nonzero"/><path fill="#000000" d="M360.0625 196.19687L360.0625 197.50937Q360.0625 198.55624 359.875 199.275Q359.6875 199.99374 359.32812 200.43124Q358.98438 200.86874 358.48438 201.07187Q358.0 201.275 357.375 201.275Q356.89062 201.275 356.46875 201.15Q356.04688 201.025 355.71875 200.75937Q355.39062 200.47812 355.15625 200.04062Q354.92188 199.60312 354.79688 198.97812Q354.67188 198.3375 354.67188 197.50937L354.67188 196.19687Q354.67188 195.15 354.85938 194.44687Q355.0625 193.74374 355.40625 193.30624Q355.76562 192.86874 356.25 192.68124Q356.75 192.49374 357.35938 192.49374Q357.85938 192.49374 358.28125 192.61874Q358.70312 192.74374 359.03125 193.00937Q359.35938 193.25937 359.57812 193.69687Q359.8125 194.11874 359.9375 194.74374Q360.0625 195.36874 360.0625 196.19687ZM358.96875 197.68124L358.96875 196.025Q358.96875 195.44687 358.90625 195.00937Q358.84375 194.57187 358.70312 194.25937Q358.57812 193.94687 358.375 193.75937Q358.1875 193.57187 357.9375 193.47812Q357.6875 193.38437 357.35938 193.38437Q356.98438 193.38437 356.67188 193.525Q356.375 193.66562 356.17188 193.97812Q355.96875 194.29062 355.85938 194.80624Q355.76562 195.30624 355.76562 196.025L355.76562 197.68124Q355.76562 198.25937 355.82812 198.69687Q355.90625 199.13437 356.03125 199.4625Q356.17188 199.775 356.35938 199.97812Q356.5625 200.18124 356.8125 200.275Q357.0625 200.36874 357.375 200.36874Q357.78125 200.36874 358.07812 200.22812Q358.375 200.07187 358.57812 199.74374Q358.78125 199.41562 358.875 198.91562Q358.96875 198.4 358.96875 197.68124ZM362.8125 199.85312L362.8125 200.72812Q362.8125 201.275 362.53125 201.86874Q362.26562 202.4625 361.78125 202.85312L361.17188 202.43124Q361.35938 202.16562 361.48438 201.9Q361.60938 201.63437 361.67188 201.35312Q361.75 201.07187 361.75 200.74374L361.75 199.85312L362.8125 199.85312ZM369.46875 198.275L369.46875 199.16562L363.3125 199.16562L363.3125 198.525L367.125 192.61874L368.01562 192.61874L367.0625 194.32187L364.54688 198.275L369.46875 198.275ZM368.28125 192.61874L368.28125 201.15L367.20312 201.15L367.20312 192.61874L368.28125 192.61874Z" fill-rule="nonzero"/><path stroke="#cccccc" stroke-width="1.0" stroke-linecap="butt" d="M523.275 305.0C523.275 221.45312 455.54688 153.725 372.0 153.725C288.45312 153.725 220.725 221.45312 220.725 305.0C220.725 388.54688 288.45312 456.275 372.0 456.275C455.54688 456.275 523.275 388.54688 523.275 305.0" fill-rule="nonzero"/><path fill="#000000" d="M360.0625 145.77188L360.0625 147.08438Q360.0625 148.13126 359.875 148.85Q359.6875 149.56876 359.32812 150.00626Q358.98438 150.44376 358.48438 150.64688Q358.0 150.85 357.375 150.85Q356.89062 150.85 356.46875 150.725Q356.04688 150.6 355.71875 150.33438Q355.39062 150.05313 355.15625 149.61563Q354.92188 149.17813 354.79688 148.55313Q354.67188 147.9125 354.67188 147.08438L354.67188 145.77188Q354.67188 144.725 354.85938 144.02188Q355.0625 143.31876 355.40625 142.88126Q355.76562 142.44376 356.25 142.25626Q356.75 142.06876 357.35938 142.06876Q357.85938 142.06876 358.28125 142.19376Q358.70312 142.31876 359.03125 142.58438Q359.35938 142.83438 359.57812 143.27188Q359.8125 143.69376 359.9375 144.31876Q360.0625 144.94376 360.0625 145.77188ZM358.96875 147.25626L358.96875 145.6Q358.96875 145.02188 358.90625 144.58438Q358.84375 144.14688 358.70312 143.83438Q358.57812 143.52188 358.375 143.33438Q358.1875 143.14688 357.9375 143.05313Q357.6875 142.95938 357.35938 142.95938Q356.98438 142.95938 356.67188 143.1Q356.375 143.24063 356.17188 143.55313Q355.96875 143.86563 355.85938 144.38126Q355.76562 144.88126 355.76562 145.6L355.76562 147.25626Q355.76562 147.83438 355.82812 148.27188Q355.90625 148.70938 356.03125 149.0375Q356.17188 149.35 356.35938 149.55313Q356.5625 149.75626 356.8125 149.85Q357.0625 149.94376 357.375 149.94376Q357.78125 149.94376 358.07812 149.80313Q358.375 149.64688 358.57812 149.31876Q358.78125 148.99063 358.875 148.49063Q358.96875 147.975 358.96875 147.25626ZM362.8125 149.42813L362.8125 150.30313Q362.8125 150.85 362.53125 151.44376Q362.26562 152.0375 361.78125 152.42813L361.17188 152.00626Q361.35938 151.74063 361.48438 151.475Q361.60938 151.20938 361.67188 150.92813Q361.75 150.64688 361.75 150.31876L361.75 149.42813L362.8125 149.42813ZM367.875 142.17813L367.96875 142.17813L367.96875 143.1L367.875 143.1Q367.01562 143.1 366.42188 143.38126Q365.84375 143.6625 365.5 144.13126Q365.17188 144.58438 365.01562 145.17813Q364.875 145.75626 364.875 146.35L364.875 147.6Q364.875 148.1625 365.0 148.6Q365.14062 149.0375 365.375 149.35Q365.60938 149.64688 365.90625 149.80313Q366.20312 149.94376 366.51562 149.94376Q366.89062 149.94376 367.1875 149.80313Q367.48438 149.6625 367.6875 149.39688Q367.89062 149.13126 367.98438 148.7875Q368.09375 148.42813 368.09375 147.99063Q368.09375 147.61563 368.0 147.25626Q367.90625 146.89688 367.71875 146.63126Q367.53125 146.35 367.23438 146.19376Q366.9375 146.02188 366.54688 146.02188Q366.09375 146.02188 365.70312 146.24063Q365.3125 146.45938 365.0625 146.81876Q364.8125 147.17813 364.78125 147.58438L364.20312 147.58438Q364.29688 146.92813 364.51562 146.45938Q364.73438 145.99063 365.07812 145.69376Q365.42188 145.39688 365.82812 145.27188Q366.25 145.13126 366.71875 145.13126Q367.35938 145.13126 367.8125 145.38126Q368.28125 145.61563 368.57812 146.02188Q368.89062 146.4125 369.03125 146.9125Q369.17188 147.4125 369.17188 147.94376Q369.17188 148.5375 369.0 149.06876Q368.82812 149.6 368.48438 150.00626Q368.15625 150.39688 367.65625 150.63126Q367.17188 150.85 366.51562 150.85Q365.82812 150.85 365.3125 150.56876Q364.79688 150.27188 364.45312 149.80313Q364.125 149.31876 363.95312 148.74063Q363.78125 148.1625 363.78125 147.56876L363.78125 147.05313Q363.78125 146.14688 363.95312 145.2875Q364.14062 144.4125 364.59375 143.70938Q365.04688 143.00626 365.84375 142.6Q366.64062 142.17813 367.875 142.17813Z" fill-rule="nonzero"/><path stroke="#cccccc" stroke-width="1.0" stroke-linecap="butt" d="M573.7 305.0C573.7 193.60417 483.39584 103.3 372.0 103.3C260.60416 103.3 170.3 193.60417 170.3 305.0C170.3 416.39584 260.60416 506.7 372.0 506.7C483.39584 506.7 573.7 416.39584 573.7 305.0" fill-rule="nonzero"/><path fill="#000000" d="M360.0625 95.34688L360.0625 96.65938Q360.0625 97.70625 359.875 98.425Q359.6875 99.14375 359.32812 99.58125Q358.98438 100.01875 358.48438 100.22188Q358.0 100.425 357.375 100.425Q356.89062 100.425 356.46875 100.3Q356.04688 100.175 355.71875 99.90938Q355.39062 99.62813 355.15625 99.19063Q354.92188 98.75313 354.79688 98.12813Q354.67188 97.4875 354.67188 96.65938L354.67188 95.34688Q354.67188 94.3 354.85938 93.59688Q355.0625 92.89375 355.40625 92.45625Q355.76562 92.01875 356.25 91.83125Q356.75 91.64375 357.35938 91.64375Q357.85938 91.64375 358.28125 91.76875Q358.70312 91.89375 359.03125 92.15938Q359.35938 92.40938 359.57812 92.84688Q359.8125 93.26875 359.9375 93.89375Q360.0625 94.51875 360.0625 95.34688ZM358.96875 96.83125L358.96875 95.175Q358.96875 94.59688 358.90625 94.15938Q358.84375 93.72188 358.70312 93.40938Q358.57812 93.09688 358.375 92.90938Q358.1875 92.72188 357.9375 92.62813Q357.6875 92.53438 357.35938 92.53438Q356.98438 92.53438 356.67188 92.675Q356.375 92.81563 356.17188 93.12813Q355.96875 93.44063 355.85938 93.95625Q355.76562 94.45625 355.76562 95.175L355.76562 96.83125Q355.76562 97.40938 355.82812 97.84688Q355.90625 98.28438 356.03125 98.6125Q356.17188 98.925 356.35938 99.12813Q356.5625 99.33125 356.8125 99.425Q357.0625 99.51875 357.375 99.51875Q357.78125 99.51875 358.07812 99.37813Q358.375 99.22188 358.57812 98.89375Q358.78125 98.56563 358.875 98.06563Q358.96875 97.55 358.96875 96.83125ZM362.8125 99.00313L362.8125 99.87813Q362.8125 100.425 362.53125 101.01875Q362.26562 101.6125 361.78125 102.00313L361.17188 101.58125Q361.35938 101.31563 361.48438 101.05Q361.60938 100.78438 361.67188 100.50313Q361.75 100.22188 361.75 99.89375L361.75 99.00313L362.8125 99.00313ZM369.09375 97.9875Q369.09375 98.76875 368.73438 99.31563Q368.375 99.84688 367.75 100.14375Q367.14062 100.425 366.375 100.425Q365.60938 100.425 364.98438 100.14375Q364.375 99.84688 364.01562 99.31563Q363.65625 98.76875 363.65625 97.9875Q363.65625 97.4875 363.85938 97.06563Q364.0625 96.62813 364.42188 96.31563Q364.78125 96.00313 365.26562 95.83125Q365.76562 95.65938 366.35938 95.65938Q367.15625 95.65938 367.76562 95.95625Q368.375 96.25313 368.73438 96.78438Q369.09375 97.31563 369.09375 97.9875ZM368.0 97.97188Q368.0 97.4875 367.79688 97.12813Q367.59375 96.75313 367.21875 96.55Q366.84375 96.34688 366.35938 96.34688Q365.85938 96.34688 365.5 96.55Q365.14062 96.75313 364.9375 97.12813Q364.75 97.4875 364.75 97.97188Q364.75 98.45625 364.9375 98.81563Q365.14062 99.15938 365.5 99.34688Q365.875 99.51875 366.375 99.51875Q366.875 99.51875 367.23438 99.34688Q367.60938 99.15938 367.79688 98.81563Q368.0 98.45625 368.0 97.97188ZM368.89062 93.9875Q368.89062 94.6125 368.5625 95.1125Q368.23438 95.6125 367.65625 95.89375Q367.09375 96.175 366.375 96.175Q365.64062 96.175 365.0625 95.89375Q364.5 95.6125 364.17188 95.1125Q363.85938 94.6125 363.85938 93.9875Q363.85938 93.2375 364.17188 92.72188Q364.5 92.20625 365.0625 91.925Q365.64062 91.64375 366.375 91.64375Q367.10938 91.64375 367.67188 91.925Q368.23438 92.20625 368.5625 92.72188Q368.89062 93.2375 368.89062 93.9875ZM367.8125 94.00313Q367.8125 93.58125 367.625 93.25313Q367.4375 92.925 367.10938 92.7375Q366.79688 92.53438 366.375 92.53438Q365.9375 92.53438 365.60938 92.72188Q365.29688 92.89375 365.125 93.22188Q364.95312 93.55 364.95312 94.00313Q364.95312 94.44063 365.125 94.76875Q365.29688 95.09688 365.625 95.28438Q365.95312 95.47188 366.375 95.47188Q366.79688 95.47188 367.10938 95.28438Q367.4375 95.09688 367.625 94.76875Q367.8125 94.44063 367.8125 94.00313Z" fill-rule="nonzero"/><path stroke="#cccccc" stroke-width="1.0" stroke-linecap="butt" d="M372.0 305.0L372.0 103.0" fill-rule="nonzero"/><path fill="#000000" d="M346.29688 77.5L344.51562 77.5L344.53125 76.578125L346.29688 76.578125Q347.21875 76.578125 347.82812 76.203125Q348.4375 75.8125 348.73438 75.125Q349.04688 74.421875 349.04688 73.484375L349.04688 72.96875Q349.04688 72.234375 348.875 71.671875Q348.70312 71.09375 348.35938 70.703125Q348.01562 70.296875 347.51562 70.09375Q347.03125 69.890625 346.40625 69.890625L344.48438 69.890625L344.48438 68.96875L346.40625 68.96875Q347.25 68.96875 347.9375 69.25Q348.625 69.53125 349.125 70.0625Q349.625 70.578125 349.89062 71.328125Q350.17188 72.0625 350.17188 72.984375L350.17188 73.484375Q350.17188 74.421875 349.89062 75.171875Q349.625 75.90625 349.10938 76.421875Q348.60938 76.9375 347.89062 77.21875Q347.1875 77.5 346.29688 77.5ZM345.125 68.96875L345.125 77.5L343.98438 77.5L343.98438 68.96875L345.125 68.96875ZM354.07812 73.421875L354.07812 74.3125L351.21875 74.3125L351.21875 73.421875L354.07812 73.421875ZM360.17188 76.578125L360.17188 77.5L355.90625 77.5L355.90625 76.578125L360.17188 76.578125ZM356.125 68.96875L356.125 77.5L354.98438 77.5L354.98438 68.96875L356.125 68.96875ZM362.0 71.15625L362.0 77.5L360.92188 77.5L360.92188 71.15625L362.0 71.15625ZM360.82812 69.484375Q360.82812 69.21875 360.98438 69.03125Q361.15625 68.84375 361.46875 68.84375Q361.78125 68.84375 361.9375 69.03125Q362.10938 69.21875 362.10938 69.484375Q362.10938 69.734375 361.9375 69.921875Q361.78125 70.09375 361.46875 70.09375Q361.15625 70.09375 360.98438 69.921875Q360.82812 69.734375 360.82812 69.484375ZM364.90625 72.421875L364.90625 77.5L363.8125 77.5L363.8125 71.15625L364.84375 71.15625L364.90625 72.421875ZM364.6875 74.09375L364.17188 74.078125Q364.1875 73.421875 364.34375 72.875Q364.51562 72.3125 364.82812 71.90625Q365.15625 71.5 365.64062 71.28125Q366.125 71.046875 366.75 71.046875Q367.20312 71.046875 367.57812 71.171875Q367.95312 71.296875 368.21875 71.5625Q368.5 71.828125 368.64062 72.25Q368.79688 72.671875 368.79688 73.28125L368.79688 77.5L367.71875 77.5L367.71875 73.328125Q367.71875 72.828125 367.54688 72.53125Q367.39062 72.234375 367.07812 72.09375Q366.78125 71.953125 366.35938 71.953125Q365.89062 71.953125 365.5625 72.125Q365.23438 72.296875 365.04688 72.59375Q364.85938 72.890625 364.76562 73.28125Q364.6875 73.65625 364.6875 74.09375ZM368.79688 73.484375L368.0625 73.71875Q368.0625 73.1875 368.23438 72.71875Q368.40625 72.234375 368.71875 71.859375Q369.04688 71.484375 369.51562 71.265625Q369.98438 71.046875 370.57812 71.046875Q371.09375 71.046875 371.48438 71.1875Q371.89062 71.3125 372.15625 71.59375Q372.42188 71.875 372.5625 72.3125Q372.70312 72.734375 372.70312 73.328125L372.70312 77.5L371.625 77.5L371.625 73.328125Q371.625 72.78125 371.45312 72.5Q371.28125 72.203125 370.98438 72.078125Q370.6875 71.953125 370.26562 71.953125Q369.90625 71.953125 369.625 72.078125Q369.35938 72.203125 369.17188 72.421875Q368.98438 72.625 368.89062 72.90625Q368.79688 73.1875 368.79688 73.484375ZM374.54688 74.40625L374.54688 74.265625Q374.54688 73.578125 374.73438 73.0Q374.9375 72.40625 375.3125 71.96875Q375.6875 71.53125 376.21875 71.296875Q376.75 71.046875 377.42188 71.046875Q378.07812 71.046875 378.60938 71.296875Q379.15625 71.53125 379.53125 71.96875Q379.90625 72.40625 380.10938 73.0Q380.3125 73.578125 380.3125 74.265625L380.3125 74.40625Q380.3125 75.078125 380.10938 75.671875Q379.90625 76.25 379.53125 76.6875Q379.15625 77.125 378.625 77.375Q378.09375 77.625 377.42188 77.625Q376.76562 77.625 376.21875 77.375Q375.6875 77.125 375.3125 76.6875Q374.9375 76.25 374.73438 75.671875Q374.54688 75.078125 374.54688 74.40625ZM375.625 74.265625L375.625 74.40625Q375.625 74.875 375.73438 75.296875Q375.84375 75.71875 376.0625 76.046875Q376.29688 76.359375 376.64062 76.546875Q376.98438 76.71875 377.42188 76.71875Q377.875 76.71875 378.20312 76.546875Q378.54688 76.359375 378.76562 76.046875Q379.0 75.71875 379.10938 75.296875Q379.21875 74.875 379.21875 74.40625L379.21875 74.265625Q379.21875 73.796875 379.10938 73.375Q379.0 72.953125 378.76562 72.640625Q378.54688 72.3125 378.20312 72.125Q377.875 71.9375 377.42188 71.9375Q376.96875 71.9375 376.625 72.125Q376.29688 72.3125 376.0625 72.640625Q375.84375 72.953125 375.73438 73.375Q375.625 73.796875 375.625 74.265625ZM382.90625 72.515625L382.90625 77.5L381.82812 77.5L381.82812 71.15625L382.85938 71.15625L382.90625 72.515625ZM382.65625 74.09375L382.20312 74.078125Q382.20312 73.421875 382.39062 72.875Q382.57812 72.3125 382.92188 71.90625Q383.26562 71.5 383.73438 71.28125Q384.20312 71.046875 384.78125 71.046875Q385.25 71.046875 385.625 71.171875Q386.0 71.296875 386.26562 71.578125Q386.53125 71.84375 386.67188 72.28125Q386.8125 72.71875 386.8125 73.34375L386.8125 77.5L385.71875 77.5L385.71875 73.328125Q385.71875 72.828125 385.57812 72.53125Q385.4375 72.234375 385.15625 72.09375Q384.875 71.953125 384.45312 71.953125Q384.04688 71.953125 383.71875 72.125Q383.39062 72.296875 383.15625 72.59375Q382.92188 72.890625 382.78125 73.28125Q382.65625 73.65625 382.65625 74.09375ZM391.45312 77.625Q390.79688 77.625 390.25 77.40625Q389.71875 77.171875 389.32812 76.765625Q388.95312 76.34375 388.75 75.78125Q388.54688 75.21875 388.54688 74.546875L388.54688 74.3125Q388.54688 73.53125 388.76562 72.921875Q389.0 72.3125 389.39062 71.890625Q389.78125 71.46875 390.28125 71.265625Q390.78125 71.046875 391.3125 71.046875Q392.0 71.046875 392.48438 71.28125Q392.98438 71.515625 393.29688 71.9375Q393.625 72.34375 393.76562 72.921875Q393.92188 73.484375 393.92188 74.140625L393.92188 74.640625L389.1875 74.640625L389.1875 73.75L392.84375 73.75L392.84375 73.671875Q392.8125 73.25 392.65625 72.859375Q392.51562 72.453125 392.1875 72.203125Q391.875 71.9375 391.3125 71.9375Q390.95312 71.9375 390.64062 72.09375Q390.32812 72.25 390.09375 72.5625Q389.875 72.859375 389.75 73.296875Q389.64062 73.734375 389.64062 74.3125L389.64062 74.546875Q389.64062 75.0 389.76562 75.40625Q389.89062 75.796875 390.125 76.09375Q390.375 76.390625 390.71875 76.5625Q391.07812 76.734375 391.51562 76.734375Q392.09375 76.734375 392.48438 76.5Q392.89062 76.265625 393.1875 75.875L393.84375 76.390625Q393.64062 76.703125 393.3125 76.984375Q393.0 77.265625 392.53125 77.453125Q392.07812 77.625 391.45312 77.625ZM395.90625 72.515625L395.90625 77.5L394.82812 77.5L394.82812 71.15625L395.85938 71.15625L395.90625 72.515625ZM395.65625 74.09375L395.20312 74.078125Q395.20312 73.421875 395.39062 72.875Q395.57812 72.3125 395.92188 71.90625Q396.26562 71.5 396.73438 71.28125Q397.20312 71.046875 397.78125 71.046875Q398.25 71.046875 398.625 71.171875Q399.0 71.296875 399.26562 71.578125Q399.53125 71.84375 399.67188 72.28125Q399.8125 72.71875 399.8125 73.34375L399.8125 77.5L398.71875 77.5L398.71875 73.328125Q398.71875 72.828125 398.57812 72.53125Q398.4375 72.234375 398.15625 72.09375Q397.875 71.953125 397.45312 71.953125Q397.04688 71.953125 396.71875 72.125Q396.39062 72.296875 396.15625 72.59375Q395.92188 72.890625 395.78125 73.28125Q395.65625 73.65625 395.65625 74.09375Z" fill-rule="nonzero"/><path stroke="#cccccc" stroke-width="1.0" stroke-linecap="butt" d="M372.0 305.0L547.0 204.0" fill-rule="nonzero"/><path fill="#000000" d="M543.6406 190.78125L544.7656 190.78125Q544.6719 191.59375 544.2969 192.23438Q543.9219 192.875 543.2344 193.25Q542.5625 193.625 541.53125 193.625Q540.78125 193.625 540.1719 193.34375Q539.5625 193.04688 539.1094 192.53125Q538.6719 192.01562 538.4375 191.29688Q538.2031 190.5625 538.2031 189.65625L538.2031 188.8125Q538.2031 187.92188 538.4375 187.1875Q538.6719 186.45312 539.125 185.9375Q539.5781 185.40625 540.2031 185.125Q540.84375 184.84375 541.625 184.84375Q542.59375 184.84375 543.2656 185.21875Q543.9375 185.57812 544.2969 186.21875Q544.6719 186.85938 544.7656 187.70312L543.6406 187.70312Q543.5625 187.10938 543.3281 186.6875Q543.1094 186.25 542.7031 186.01562Q542.2969 185.78125 541.625 185.78125Q541.0625 185.78125 540.625 186.0Q540.2031 186.20312 539.90625 186.60938Q539.625 187.0 539.46875 187.5625Q539.3281 188.125 539.3281 188.79688L539.3281 189.65625Q539.3281 190.28125 539.4531 190.84375Q539.59375 191.39062 539.8594 191.8125Q540.125 192.21875 540.5469 192.46875Q540.96875 192.70312 541.53125 192.70312Q542.25 192.70312 542.6719 192.46875Q543.1094 192.23438 543.3281 191.8125Q543.5469 191.39062 543.6406 190.78125ZM550.0625 192.42188L550.0625 189.15625Q550.0625 188.78125 549.90625 188.5Q549.7656 188.21875 549.46875 188.07812Q549.1719 187.92188 548.7344 187.92188Q548.3125 187.92188 548.0 188.0625Q547.7031 188.20312 547.53125 188.4375Q547.3594 188.65625 547.3594 188.92188L546.28125 188.92188Q546.28125 188.57812 546.4531 188.25Q546.625 187.90625 546.9531 187.64062Q547.28125 187.35938 547.75 187.20312Q548.21875 187.04688 548.7969 187.04688Q549.4844 187.04688 550.0156 187.28125Q550.5469 187.51562 550.84375 187.98438Q551.15625 188.45312 551.15625 189.15625L551.15625 192.10938Q551.15625 192.4375 551.2031 192.79688Q551.2656 193.14062 551.375 193.40625L551.375 193.5L550.2344 193.5Q550.15625 193.3125 550.1094 193.0Q550.0625 192.6875 550.0625 192.42188ZM550.25 189.65625L550.2656 190.42188L549.1719 190.42188Q548.7031 190.42188 548.34375 190.5Q547.9844 190.5625 547.7344 190.71875Q547.4844 190.85938 547.3594 191.07812Q547.2344 191.29688 547.2344 191.59375Q547.2344 191.89062 547.3594 192.14062Q547.5 192.375 547.7656 192.53125Q548.0469 192.67188 548.4375 192.67188Q548.9375 192.67188 549.3125 192.46875Q549.7031 192.25 549.9219 191.95312Q550.15625 191.64062 550.1719 191.34375L550.6406 191.875Q550.59375 192.10938 550.40625 192.42188Q550.2344 192.71875 549.9219 193.0Q549.625 193.26562 549.2031 193.45312Q548.7969 193.625 548.28125 193.625Q547.6406 193.625 547.15625 193.375Q546.6719 193.10938 546.40625 192.6875Q546.1406 192.26562 546.1406 191.73438Q546.1406 191.21875 546.3281 190.84375Q546.53125 190.45312 546.90625 190.1875Q547.28125 189.92188 547.8125 189.79688Q548.34375 189.65625 549.0 189.65625L550.25 189.65625ZM554.40625 188.15625L554.40625 193.5L553.3281 193.5L553.3281 187.15625L554.375 187.15625L554.40625 188.15625ZM556.3906 187.125L556.3906 188.125Q556.25 188.10938 556.125 188.09375Q556.0156 188.07812 555.8594 188.07812Q555.4844 188.07812 555.1875 188.20312Q554.90625 188.3125 554.7031 188.53125Q554.5156 188.73438 554.3906 189.03125Q554.28125 189.32812 554.25 189.67188L553.9375 189.84375Q553.9375 189.26562 554.0469 188.76562Q554.1719 188.26562 554.40625 187.875Q554.65625 187.48438 555.0156 187.26562Q555.3906 187.04688 555.90625 187.04688Q556.03125 187.04688 556.1719 187.07812Q556.3281 187.09375 556.3906 187.125ZM559.1094 192.84375L560.875 187.15625L562.03125 187.15625L559.4844 194.48438Q559.40625 194.71875 559.25 194.98438Q559.1094 195.26562 558.8906 195.5Q558.6719 195.75 558.3594 195.90625Q558.0469 196.0625 557.6094 196.0625Q557.4844 196.0625 557.28125 196.01562Q557.0781 195.98438 557.0 195.96875L557.0 195.09375Q557.0469 195.09375 557.1406 195.09375Q557.25 195.10938 557.28125 195.10938Q557.65625 195.10938 557.90625 195.01562Q558.1719 194.92188 558.34375 194.6875Q558.53125 194.46875 558.65625 194.07812L559.1094 192.84375ZM557.8125 187.15625L559.4531 192.07812L559.7344 193.21875L558.96875 193.625L556.625 187.15625L557.8125 187.15625ZM563.0469 190.40625L563.0469 190.26562Q563.0469 189.57812 563.2344 189.0Q563.4375 188.40625 563.8125 187.96875Q564.1875 187.53125 564.71875 187.29688Q565.25 187.04688 565.9219 187.04688Q566.5781 187.04688 567.1094 187.29688Q567.65625 187.53125 568.03125 187.96875Q568.40625 188.40625 568.6094 189.0Q568.8125 189.57812 568.8125 190.26562L568.8125 190.40625Q568.8125 191.07812 568.6094 191.67188Q568.40625 192.25 568.03125 192.6875Q567.65625 193.125 567.125 193.375Q566.59375 193.625 565.9219 193.625Q565.2656 193.625 564.71875 193.375Q564.1875 193.125 563.8125 192.6875Q563.4375 192.25 563.2344 191.67188Q563.0469 191.07812 563.0469 190.40625ZM564.125 190.26562L564.125 190.40625Q564.125 190.875 564.2344 191.29688Q564.34375 191.71875 564.5625 192.04688Q564.7969 192.35938 565.1406 192.54688Q565.4844 192.71875 565.9219 192.71875Q566.375 192.71875 566.7031 192.54688Q567.0469 192.35938 567.2656 192.04688Q567.5 191.71875 567.6094 191.29688Q567.71875 190.875 567.71875 190.40625L567.71875 190.26562Q567.71875 189.79688 567.6094 189.375Q567.5 188.95312 567.2656 188.64062Q567.0469 188.3125 566.7031 188.125Q566.375 187.9375 565.9219 187.9375Q565.46875 187.9375 565.125 188.125Q564.7969 188.3125 564.5625 188.64062Q564.34375 188.95312 564.2344 189.375Q564.125 189.79688 564.125 190.26562ZM571.40625 188.375L571.40625 195.9375L570.3281 195.9375L570.3281 187.15625L571.3125 187.15625L571.40625 188.375ZM575.6875 190.28125L575.6875 190.40625Q575.6875 191.09375 575.5156 191.6875Q575.3594 192.26562 575.0469 192.70312Q574.7344 193.14062 574.2656 193.39062Q573.8125 193.625 573.21875 193.625Q572.625 193.625 572.15625 193.42188Q571.6875 193.21875 571.3594 192.84375Q571.0469 192.45312 570.8594 191.92188Q570.6719 191.39062 570.59375 190.71875L570.59375 190.0625Q570.6719 189.35938 570.8594 188.8125Q571.0469 188.25 571.3594 187.85938Q571.6875 187.45312 572.1406 187.25Q572.6094 187.04688 573.2031 187.04688Q573.7969 187.04688 574.2656 187.28125Q574.7344 187.5 575.0469 187.9375Q575.3594 188.35938 575.5156 188.95312Q575.6875 189.54688 575.6875 190.28125ZM574.59375 190.40625L574.59375 190.28125Q574.59375 189.79688 574.4844 189.39062Q574.3906 188.96875 574.1875 188.65625Q573.9844 188.32812 573.65625 188.14062Q573.3281 187.95312 572.8906 187.95312Q572.4844 187.95312 572.1719 188.09375Q571.875 188.23438 571.65625 188.48438Q571.4531 188.71875 571.3125 189.01562Q571.1875 189.3125 571.125 189.64062L571.125 191.15625Q571.2344 191.5625 571.4375 191.92188Q571.65625 192.28125 572.0 192.5Q572.3594 192.71875 572.90625 192.71875Q573.34375 192.71875 573.65625 192.54688Q573.9844 192.35938 574.1875 192.04688Q574.3906 191.71875 574.4844 191.29688Q574.59375 190.875 574.59375 190.40625ZM578.40625 184.5L578.40625 193.5L577.3281 193.5L577.3281 184.5L578.40625 184.5ZM578.15625 190.09375L577.7031 190.07812Q577.7031 189.42188 577.8906 188.875Q578.0781 188.3125 578.4219 187.90625Q578.7656 187.5 579.2344 187.28125Q579.7031 187.04688 580.28125 187.04688Q580.75 187.04688 581.125 187.17188Q581.5 187.29688 581.7656 187.57812Q582.03125 187.84375 582.1719 188.28125Q582.3125 188.71875 582.3125 189.34375L582.3125 193.5L581.21875 193.5L581.21875 189.32812Q581.21875 188.82812 581.0781 188.53125Q580.9375 188.23438 580.65625 188.09375Q580.375 187.95312 579.9531 187.95312Q579.5469 187.95312 579.21875 188.125Q578.8906 188.29688 578.65625 188.59375Q578.4219 188.89062 578.28125 189.28125Q578.15625 189.65625 578.15625 190.09375ZM586.1094 192.84375L587.875 187.15625L589.03125 187.15625L586.4844 194.48438Q586.40625 194.71875 586.25 194.98438Q586.1094 195.26562 585.8906 195.5Q585.6719 195.75 585.3594 195.90625Q585.0469 196.0625 584.6094 196.0625Q584.4844 196.0625 584.28125 196.01562Q584.0781 195.98438 584.0 195.96875L584.0 195.09375Q584.0469 195.09375 584.1406 195.09375Q584.25 195.10938 584.28125 195.10938Q584.65625 195.10938 584.90625 195.01562Q585.1719 194.92188 585.34375 194.6875Q585.53125 194.46875 585.65625 194.07812L586.1094 192.84375ZM584.8125 187.15625L586.4531 192.07812L586.7344 193.21875L585.96875 193.625L583.625 187.15625L584.8125 187.15625ZM591.5 184.5L591.5 193.5L590.4219 193.5L590.4219 184.5L591.5 184.5ZM594.5 184.5L594.5 193.5L593.4219 193.5L593.4219 184.5L594.5 184.5ZM598.9531 193.625Q598.2969 193.625 597.75 193.40625Q597.21875 193.17188 596.8281 192.76562Q596.4531 192.34375 596.25 191.78125Q596.0469 191.21875 596.0469 190.54688L596.0469 190.3125Q596.0469 189.53125 596.2656 188.92188Q596.5 188.3125 596.8906 187.89062Q597.28125 187.46875 597.78125 187.26562Q598.28125 187.04688 598.8125 187.04688Q599.5 187.04688 599.9844 187.28125Q600.4844 187.51562 600.7969 187.9375Q601.125 188.34375 601.2656 188.92188Q601.4219 189.48438 601.4219 190.14062L601.4219 190.64062L596.6875 190.64062L596.6875 189.75L600.34375 189.75L600.34375 189.67188Q600.3125 189.25 600.15625 188.85938Q600.0156 188.45312 599.6875 188.20312Q599.375 187.9375 598.8125 187.9375Q598.4531 187.9375 598.1406 188.09375Q597.8281 188.25 597.59375 188.5625Q597.375 188.85938 597.25 189.29688Q597.1406 189.73438 597.1406 190.3125L597.1406 190.54688Q597.1406 191.0 597.2656 191.40625Q597.3906 191.79688 597.625 192.09375Q597.875 192.39062 598.21875 192.5625Q598.5781 192.73438 599.0156 192.73438Q599.59375 192.73438 599.9844 192.5Q600.3906 192.26562 600.6875 191.875L601.34375 192.39062Q601.1406 192.70312 600.8125 192.98438Q600.5 193.26562 600.03125 193.45312Q599.5781 193.625 598.9531 193.625ZM603.40625 188.51562L603.40625 193.5L602.3281 193.5L602.3281 187.15625L603.3594 187.15625L603.40625 188.51562ZM603.15625 190.09375L602.7031 190.07812Q602.7031 189.42188 602.8906 188.875Q603.0781 188.3125 603.4219 187.90625Q603.7656 187.5 604.2344 187.28125Q604.7031 187.04688 605.28125 187.04688Q605.75 187.04688 606.125 187.17188Q606.5 187.29688 606.7656 187.57812Q607.03125 187.84375 607.1719 188.28125Q607.3125 188.71875 607.3125 189.34375L607.3125 193.5L606.21875 193.5L606.21875 189.32812Q606.21875 188.82812 606.0781 188.53125Q605.9375 188.23438 605.65625 188.09375Q605.375 187.95312 604.9531 187.95312Q604.5469 187.95312 604.21875 188.125Q603.8906 188.29688 603.65625 188.59375Q603.4219 188.89062 603.28125 189.28125Q603.15625 189.65625 603.15625 190.09375Z" fill-rule="nonzero"/><path stroke="#cccccc" stroke-width="1.0" stroke-linecap="butt" d="M372.0 305.0L547.0 406.0" fill-rule="nonzero"/><path fill="#000000" d="M545.7969 421.25L545.7969 424.375Q545.6406 424.60938 545.2969 424.90625Q544.9531 425.1875 544.34375 425.40625Q543.7344 425.625 542.78125 425.625Q542.0 425.625 541.34375 425.35938Q540.6875 425.07812 540.2031 424.54688Q539.7344 424.01562 539.46875 423.26562Q539.21875 422.51562 539.21875 421.5625L539.21875 420.90625Q539.21875 419.9375 539.4375 419.1875Q539.6719 418.4375 540.1094 417.92188Q540.5469 417.39062 541.1875 417.125Q541.8281 416.84375 542.65625 416.84375Q543.625 416.84375 544.28125 417.1875Q544.9531 417.53125 545.3125 418.125Q545.6875 418.70312 545.7969 419.46875L544.6719 419.46875Q544.59375 419.0 544.3594 418.625Q544.1406 418.23438 543.71875 418.01562Q543.3125 417.78125 542.65625 417.78125Q542.0625 417.78125 541.625 418.0Q541.1875 418.20312 540.90625 418.60938Q540.625 419.01562 540.4844 419.59375Q540.3594 420.17188 540.3594 420.89062L540.3594 421.5625Q540.3594 422.29688 540.53125 422.875Q540.7031 423.45312 541.0156 423.875Q541.34375 424.28125 541.78125 424.5Q542.2344 424.70312 542.78125 424.70312Q543.3906 424.70312 543.7656 424.59375Q544.1406 424.48438 544.34375 424.34375Q544.5625 424.20312 544.6719 424.07812L544.6719 422.17188L542.7031 422.17188L542.7031 421.25L545.7969 421.25ZM549.9531 425.625Q549.2969 425.625 548.75 425.40625Q548.21875 425.17188 547.8281 424.76562Q547.4531 424.34375 547.25 423.78125Q547.0469 423.21875 547.0469 422.54688L547.0469 422.3125Q547.0469 421.53125 547.2656 420.92188Q547.5 420.3125 547.8906 419.89062Q548.28125 419.46875 548.78125 419.26562Q549.28125 419.04688 549.8125 419.04688Q550.5 419.04688 550.9844 419.28125Q551.4844 419.51562 551.7969 419.9375Q552.125 420.34375 552.2656 420.92188Q552.4219 421.48438 552.4219 422.14062L552.4219 422.64062L547.6875 422.64062L547.6875 421.75L551.34375 421.75L551.34375 421.67188Q551.3125 421.25 551.15625 420.85938Q551.0156 420.45312 550.6875 420.20312Q550.375 419.9375 549.8125 419.9375Q549.4531 419.9375 549.1406 420.09375Q548.8281 420.25 548.59375 420.5625Q548.375 420.85938 548.25 421.29688Q548.1406 421.73438 548.1406 422.3125L548.1406 422.54688Q548.1406 423.0 548.2656 423.40625Q548.3906 423.79688 548.625 424.09375Q548.875 424.39062 549.21875 424.5625Q549.5781 424.73438 550.0156 424.73438Q550.59375 424.73438 550.9844 424.5Q551.3906 424.26562 551.6875 423.875L552.34375 424.39062Q552.1406 424.70312 551.8125 424.98438Q551.5 425.26562 551.03125 425.45312Q550.5781 425.625 549.9531 425.625ZM554.40625 420.15625L554.40625 425.5L553.3281 425.5L553.3281 419.15625L554.375 419.15625L554.40625 420.15625ZM556.3906 419.125L556.3906 420.125Q556.25 420.10938 556.125 420.09375Q556.0156 420.07812 555.8594 420.07812Q555.4844 420.07812 555.1875 420.20312Q554.90625 420.3125 554.7031 420.53125Q554.5156 420.73438 554.3906 421.03125Q554.28125 421.32812 554.25 421.67188L553.9375 421.84375Q553.9375 421.26562 554.0469 420.76562Q554.1719 420.26562 554.40625 419.875Q554.65625 419.48438 555.0156 419.26562Q555.3906 419.04688 555.90625 419.04688Q556.03125 419.04688 556.1719 419.07812Q556.3281 419.09375 556.3906 419.125ZM558.40625 420.42188L558.40625 425.5L557.3125 425.5L557.3125 419.15625L558.34375 419.15625L558.40625 420.42188ZM558.1875 422.09375L557.6719 422.07812Q557.6875 421.42188 557.84375 420.875Q558.0156 420.3125 558.3281 419.90625Q558.65625 419.5 559.1406 419.28125Q559.625 419.04688 560.25 419.04688Q560.7031 419.04688 561.0781 419.17188Q561.4531 419.29688 561.71875 419.5625Q562.0 419.82812 562.1406 420.25Q562.2969 420.67188 562.2969 421.28125L562.2969 425.5L561.21875 425.5L561.21875 421.32812Q561.21875 420.82812 561.0469 420.53125Q560.8906 420.23438 560.5781 420.09375Q560.28125 419.95312 559.8594 419.95312Q559.3906 419.95312 559.0625 420.125Q558.7344 420.29688 558.5469 420.59375Q558.3594 420.89062 558.2656 421.28125Q558.1875 421.65625 558.1875 422.09375ZM562.2969 421.48438L561.5625 421.71875Q561.5625 421.1875 561.7344 420.71875Q561.90625 420.23438 562.21875 419.85938Q562.5469 419.48438 563.0156 419.26562Q563.4844 419.04688 564.0781 419.04688Q564.59375 419.04688 564.9844 419.1875Q565.3906 419.3125 565.65625 419.59375Q565.9219 419.875 566.0625 420.3125Q566.2031 420.73438 566.2031 421.32812L566.2031 425.5L565.125 425.5L565.125 421.32812Q565.125 420.78125 564.9531 420.5Q564.78125 420.20312 564.4844 420.07812Q564.1875 419.95312 563.7656 419.95312Q563.40625 419.95312 563.125 420.07812Q562.8594 420.20312 562.6719 420.42188Q562.4844 420.625 562.3906 420.90625Q562.2969 421.1875 562.2969 421.48438ZM572.0625 424.42188L572.0625 421.15625Q572.0625 420.78125 571.90625 420.5Q571.7656 420.21875 571.46875 420.07812Q571.1719 419.92188 570.7344 419.92188Q570.3125 419.92188 570.0 420.0625Q569.7031 420.20312 569.53125 420.4375Q569.3594 420.65625 569.3594 420.92188L568.28125 420.92188Q568.28125 420.57812 568.4531 420.25Q568.625 419.90625 568.9531 419.64062Q569.28125 419.35938 569.75 419.20312Q570.21875 419.04688 570.7969 419.04688Q571.4844 419.04688 572.0156 419.28125Q572.5469 419.51562 572.84375 419.98438Q573.15625 420.45312 573.15625 421.15625L573.15625 424.10938Q573.15625 424.4375 573.2031 424.79688Q573.2656 425.14062 573.375 425.40625L573.375 425.5L572.2344 425.5Q572.15625 425.3125 572.1094 425.0Q572.0625 424.6875 572.0625 424.42188ZM572.25 421.65625L572.2656 422.42188L571.1719 422.42188Q570.7031 422.42188 570.34375 422.5Q569.9844 422.5625 569.7344 422.71875Q569.4844 422.85938 569.3594 423.07812Q569.2344 423.29688 569.2344 423.59375Q569.2344 423.89062 569.3594 424.14062Q569.5 424.375 569.7656 424.53125Q570.0469 424.67188 570.4375 424.67188Q570.9375 424.67188 571.3125 424.46875Q571.7031 424.25 571.9219 423.95312Q572.15625 423.64062 572.1719 423.34375L572.6406 423.875Q572.59375 424.10938 572.40625 424.42188Q572.2344 424.71875 571.9219 425.0Q571.625 425.26562 571.2031 425.45312Q570.7969 425.625 570.28125 425.625Q569.6406 425.625 569.15625 425.375Q568.6719 425.10938 568.40625 424.6875Q568.1406 424.26562 568.1406 423.73438Q568.1406 423.21875 568.3281 422.84375Q568.53125 422.45312 568.90625 422.1875Q569.28125 421.92188 569.8125 421.79688Q570.34375 421.65625 571.0 421.65625L572.25 421.65625ZM577.8594 424.71875Q578.25 424.71875 578.5781 424.5625Q578.90625 424.40625 579.1094 424.14062Q579.3281 423.85938 579.3594 423.5L580.3906 423.5Q580.3594 424.0625 580.0 424.54688Q579.65625 425.03125 579.09375 425.32812Q578.53125 425.625 577.8594 425.625Q577.15625 425.625 576.625 425.375Q576.09375 425.10938 575.7344 424.67188Q575.3906 424.23438 575.21875 423.67188Q575.0469 423.09375 575.0469 422.45312L575.0469 422.20312Q575.0469 421.5625 575.21875 421.0Q575.3906 420.42188 575.7344 419.98438Q576.09375 419.54688 576.625 419.29688Q577.15625 419.04688 577.8594 419.04688Q578.6094 419.04688 579.15625 419.34375Q579.71875 419.64062 580.03125 420.17188Q580.3594 420.6875 580.3906 421.34375L579.3594 421.34375Q579.3281 420.95312 579.1406 420.64062Q578.9531 420.3125 578.625 420.125Q578.2969 419.9375 577.8594 419.9375Q577.3594 419.9375 577.0156 420.14062Q576.6875 420.32812 576.4844 420.65625Q576.2969 420.98438 576.2031 421.39062Q576.125 421.79688 576.125 422.20312L576.125 422.45312Q576.125 422.875 576.2031 423.28125Q576.2969 423.67188 576.4844 424.0Q576.6875 424.32812 577.0156 424.53125Q577.3594 424.71875 577.8594 424.71875ZM582.40625 420.15625L582.40625 425.5L581.3281 425.5L581.3281 419.15625L582.375 419.15625L582.40625 420.15625ZM584.3906 419.125L584.3906 420.125Q584.25 420.10938 584.125 420.09375Q584.0156 420.07812 583.8594 420.07812Q583.4844 420.07812 583.1875 420.20312Q582.90625 420.3125 582.7031 420.53125Q582.5156 420.73438 582.3906 421.03125Q582.28125 421.32812 582.25 421.67188L581.9375 421.84375Q581.9375 421.26562 582.0469 420.76562Q582.1719 420.26562 582.40625 419.875Q582.65625 419.48438 583.0156 419.26562Q583.3906 419.04688 583.90625 419.04688Q584.03125 419.04688 584.1719 419.07812Q584.3281 419.09375 584.3906 419.125ZM587.9531 425.625Q587.2969 425.625 586.75 425.40625Q586.21875 425.17188 585.8281 424.76562Q585.4531 424.34375 585.25 423.78125Q585.0469 423.21875 585.0469 422.54688L585.0469 422.3125Q585.0469 421.53125 585.2656 420.92188Q585.5 420.3125 585.8906 419.89062Q586.28125 419.46875 586.78125 419.26562Q587.28125 419.04688 587.8125 419.04688Q588.5 419.04688 588.9844 419.28125Q589.4844 419.51562 589.7969 419.9375Q590.125 420.34375 590.2656 420.92188Q590.4219 421.48438 590.4219 422.14062L590.4219 422.64062L585.6875 422.64062L585.6875 421.75L589.34375 421.75L589.34375 421.67188Q589.3125 421.25 589.15625 420.85938Q589.0156 420.45312 588.6875 420.20312Q588.375 419.9375 587.8125 419.9375Q587.4531 419.9375 587.1406 420.09375Q586.8281 420.25 586.59375 420.5625Q586.375 420.85938 586.25 421.29688Q586.1406 421.73438 586.1406 422.3125L586.1406 422.54688Q586.1406 423.0 586.2656 423.40625Q586.3906 423.79688 586.625 424.09375Q586.875 424.39062 587.21875 424.5625Q587.5781 424.73438 588.0156 424.73438Q588.59375 424.73438 588.9844 424.5Q589.3906 424.26562 589.6875 423.875L590.34375 424.39062Q590.1406 424.70312 589.8125 424.98438Q589.5 425.26562 589.03125 425.45312Q588.5781 425.625 587.9531 425.625ZM592.40625 420.51562L592.40625 425.5L591.3281 425.5L591.3281 419.15625L592.3594 419.15625L592.40625 420.51562ZM592.15625 422.09375L591.7031 422.07812Q591.7031 421.42188 591.8906 420.875Q592.0781 420.3125 592.4219 419.90625Q592.7656 419.5 593.2344 419.28125Q593.7031 419.04688 594.28125 419.04688Q594.75 419.04688 595.125 419.17188Q595.5 419.29688 595.7656 419.57812Q596.03125 419.84375 596.1719 420.28125Q596.3125 420.71875 596.3125 421.34375L596.3125 425.5L595.21875 425.5L595.21875 421.32812Q595.21875 420.82812 595.0781 420.53125Q594.9375 420.23438 594.65625 420.09375Q594.375 419.95312 593.9531 419.95312Q593.5469 419.95312 593.21875 420.125Q592.8906 420.29688 592.65625 420.59375Q592.4219 420.89062 592.28125 421.28125Q592.15625 421.65625 592.15625 422.09375ZM604.53125 421.51562L602.375 421.51562L602.3594 420.59375L604.3281 420.59375Q604.8125 420.59375 605.1719 420.4375Q605.53125 420.26562 605.7344 419.96875Q605.9375 419.65625 605.9375 419.23438Q605.9375 418.76562 605.75 418.46875Q605.5781 418.17188 605.2031 418.03125Q604.84375 417.89062 604.28125 417.89062L602.625 417.89062L602.625 425.5L601.4844 425.5L601.4844 416.96875L604.28125 416.96875Q604.9375 416.96875 605.4531 417.10938Q605.96875 417.23438 606.3281 417.51562Q606.6875 417.78125 606.875 418.21875Q607.0625 418.64062 607.0625 419.23438Q607.0625 419.76562 606.7969 420.20312Q606.53125 420.625 606.0469 420.89062Q605.5781 421.15625 604.9375 421.23438L604.53125 421.51562ZM604.4844 425.5L601.9219 425.5L602.5625 424.57812L604.4844 424.57812Q605.0156 424.57812 605.3906 424.39062Q605.78125 424.20312 605.96875 423.85938Q606.1719 423.51562 606.1719 423.04688Q606.1719 422.57812 606.0 422.23438Q605.8281 421.89062 605.46875 421.70312Q605.1094 421.51562 604.53125 421.51562L602.9219 421.51562L602.9375 420.59375L605.1406 420.59375L605.375 420.92188Q605.9844 420.98438 606.40625 421.28125Q606.84375 421.57812 607.0625 422.03125Q607.2969 422.48438 607.2969 423.03125Q607.2969 423.82812 606.9375 424.39062Q606.59375 424.9375 605.9531 425.21875Q605.3281 425.5 604.4844 425.5Z" fill-rule="nonzero"/><path stroke="#cccccc" stroke-width="1.0" stroke-linecap="butt" d="M372.0 305.0L372.0 507.0" fill-rule="nonzero"/><path fill="#000000" d="M355.03125 539.34375Q355.03125 539.0469 354.9375 538.8125Q354.85938 538.5781 354.625 538.3906Q354.40625 538.2031 354.0 538.03125Q353.60938 537.8594 353.01562 537.6875Q352.375 537.5 351.85938 537.28125Q351.35938 537.0469 350.98438 536.75Q350.625 536.4375 350.4375 536.0625Q350.25 535.6719 350.25 535.1719Q350.25 534.6719 350.45312 534.25Q350.65625 533.8281 351.03125 533.5156Q351.42188 533.2031 351.95312 533.03125Q352.48438 532.84375 353.14062 532.84375Q354.10938 532.84375 354.78125 533.21875Q355.45312 533.5781 355.79688 534.1719Q356.15625 534.7656 356.15625 535.4219L355.03125 535.4219Q355.03125 534.9531 354.8125 534.5781Q354.60938 534.2031 354.1875 534.0Q353.78125 533.78125 353.14062 533.78125Q352.54688 533.78125 352.14062 533.96875Q351.75 534.1406 351.5625 534.4531Q351.375 534.7656 351.375 535.15625Q351.375 535.4219 351.48438 535.65625Q351.60938 535.875 351.84375 536.0625Q352.09375 536.25 352.46875 536.40625Q352.84375 536.5625 353.375 536.7031Q354.09375 536.90625 354.625 537.1719Q355.15625 537.4219 355.5 537.7344Q355.84375 538.0469 356.0 538.4375Q356.17188 538.8281 356.17188 539.3281Q356.17188 539.8594 355.95312 540.28125Q355.75 540.7031 355.35938 541.0Q354.96875 541.2969 354.42188 541.46875Q353.875 541.625 353.20312 541.625Q352.60938 541.625 352.03125 541.4531Q351.46875 541.28125 351.0 540.9531Q350.53125 540.625 350.25 540.15625Q349.96875 539.6719 349.96875 539.03125L351.09375 539.03125Q351.09375 539.46875 351.26562 539.78125Q351.4375 540.09375 351.73438 540.2969Q352.03125 540.5 352.40625 540.6094Q352.78125 540.7031 353.20312 540.7031Q353.79688 540.7031 354.20312 540.5469Q354.60938 540.375 354.8125 540.0781Q355.03125 539.7656 355.03125 539.34375ZM359.95312 541.625Q359.29688 541.625 358.75 541.40625Q358.21875 541.1719 357.82812 540.7656Q357.45312 540.34375 357.25 539.78125Q357.04688 539.21875 357.04688 538.5469L357.04688 538.3125Q357.04688 537.53125 357.26562 536.9219Q357.5 536.3125 357.89062 535.8906Q358.28125 535.46875 358.78125 535.2656Q359.28125 535.0469 359.8125 535.0469Q360.5 535.0469 360.98438 535.28125Q361.48438 535.5156 361.79688 535.9375Q362.125 536.34375 362.26562 536.9219Q362.42188 537.4844 362.42188 538.1406L362.42188 538.6406L357.6875 538.6406L357.6875 537.75L361.34375 537.75L361.34375 537.6719Q361.3125 537.25 361.15625 536.8594Q361.01562 536.4531 360.6875 536.2031Q360.375 535.9375 359.8125 535.9375Q359.45312 535.9375 359.14062 536.09375Q358.82812 536.25 358.59375 536.5625Q358.375 536.8594 358.25 537.2969Q358.14062 537.7344 358.14062 538.3125L358.14062 538.5469Q358.14062 539.0 358.26562 539.40625Q358.39062 539.7969 358.625 540.09375Q358.875 540.3906 359.21875 540.5625Q359.57812 540.7344 360.01562 540.7344Q360.59375 540.7344 360.98438 540.5Q361.39062 540.2656 361.6875 539.875L362.34375 540.3906Q362.14062 540.7031 361.8125 540.9844Q361.5 541.2656 361.03125 541.4531Q360.57812 541.625 359.95312 541.625ZM364.5 532.5L364.5 541.5L363.42188 541.5L363.42188 532.5L364.5 532.5ZM367.5 535.15625L367.5 541.5L366.42188 541.5L366.42188 535.15625L367.5 535.15625ZM366.32812 533.4844Q366.32812 533.21875 366.48438 533.03125Q366.65625 532.84375 366.96875 532.84375Q367.28125 532.84375 367.4375 533.03125Q367.60938 533.21875 367.60938 533.4844Q367.60938 533.7344 367.4375 533.9219Q367.28125 534.09375 366.96875 534.09375Q366.65625 534.09375 366.48438 533.9219Q366.32812 533.7344 366.32812 533.4844ZM370.40625 536.5156L370.40625 541.5L369.32812 541.5L369.32812 535.15625L370.35938 535.15625L370.40625 536.5156ZM370.15625 538.09375L369.70312 538.0781Q369.70312 537.4219 369.89062 536.875Q370.07812 536.3125 370.42188 535.90625Q370.76562 535.5 371.23438 535.28125Q371.70312 535.0469 372.28125 535.0469Q372.75 535.0469 373.125 535.1719Q373.5 535.2969 373.76562 535.5781Q374.03125 535.84375 374.17188 536.28125Q374.3125 536.71875 374.3125 537.34375L374.3125 541.5L373.21875 541.5L373.21875 537.3281Q373.21875 536.8281 373.07812 536.53125Q372.9375 536.2344 372.65625 536.09375Q372.375 535.9531 371.95312 535.9531Q371.54688 535.9531 371.21875 536.125Q370.89062 536.2969 370.65625 536.59375Q370.42188 536.8906 370.28125 537.28125Q370.15625 537.65625 370.15625 538.09375ZM378.95312 541.625Q378.29688 541.625 377.75 541.40625Q377.21875 541.1719 376.82812 540.7656Q376.45312 540.34375 376.25 539.78125Q376.04688 539.21875 376.04688 538.5469L376.04688 538.3125Q376.04688 537.53125 376.26562 536.9219Q376.5 536.3125 376.89062 535.8906Q377.28125 535.46875 377.78125 535.2656Q378.28125 535.0469 378.8125 535.0469Q379.5 535.0469 379.98438 535.28125Q380.48438 535.5156 380.79688 535.9375Q381.125 536.34375 381.26562 536.9219Q381.42188 537.4844 381.42188 538.1406L381.42188 538.6406L376.6875 538.6406L376.6875 537.75L380.34375 537.75L380.34375 537.6719Q380.3125 537.25 380.15625 536.8594Q380.01562 536.4531 379.6875 536.2031Q379.375 535.9375 378.8125 535.9375Q378.45312 535.9375 378.14062 536.09375Q377.82812 536.25 377.59375 536.5625Q377.375 536.8594 377.25 537.2969Q377.14062 537.7344 377.14062 538.3125L377.14062 538.5469Q377.14062 539.0 377.26562 539.40625Q377.39062 539.7969 377.625 540.09375Q377.875 540.3906 378.21875 540.5625Q378.57812 540.7344 379.01562 540.7344Q379.59375 540.7344 379.98438 540.5Q380.39062 540.2656 380.6875 539.875L381.34375 540.3906Q381.14062 540.7031 380.8125 540.9844Q380.5 541.2656 380.03125 541.4531Q379.57812 541.625 378.95312 541.625ZM383.40625 536.5156L383.40625 541.5L382.32812 541.5L382.32812 535.15625L383.35938 535.15625L383.40625 536.5156ZM383.15625 538.09375L382.70312 538.0781Q382.70312 537.4219 382.89062 536.875Q383.07812 536.3125 383.42188 535.90625Q383.76562 535.5 384.23438 535.28125Q384.70312 535.0469 385.28125 535.0469Q385.75 535.0469 386.125 535.1719Q386.5 535.2969 386.76562 535.5781Q387.03125 535.84375 387.17188 536.28125Q387.3125 536.71875 387.3125 537.34375L387.3125 541.5L386.21875 541.5L386.21875 537.3281Q386.21875 536.8281 386.07812 536.53125Q385.9375 536.2344 385.65625 536.09375Q385.375 535.9531 384.95312 535.9531Q384.54688 535.9531 384.21875 536.125Q383.89062 536.2969 383.65625 536.59375Q383.42188 536.8906 383.28125 537.28125Q383.15625 537.65625 383.15625 538.09375ZM391.95312 541.625Q391.29688 541.625 390.75 541.40625Q390.21875 541.1719 389.82812 540.7656Q389.45312 540.34375 389.25 539.78125Q389.04688 539.21875 389.04688 538.5469L389.04688 538.3125Q389.04688 537.53125 389.26562 536.9219Q389.5 536.3125 389.89062 535.8906Q390.28125 535.46875 390.78125 535.2656Q391.28125 535.0469 391.8125 535.0469Q392.5 535.0469 392.98438 535.28125Q393.48438 535.5156 393.79688 535.9375Q394.125 536.34375 394.26562 536.9219Q394.42188 537.4844 394.42188 538.1406L394.42188 538.6406L389.6875 538.6406L389.6875 537.75L393.34375 537.75L393.34375 537.6719Q393.3125 537.25 393.15625 536.8594Q393.01562 536.4531 392.6875 536.2031Q392.375 535.9375 391.8125 535.9375Q391.45312 535.9375 391.14062 536.09375Q390.82812 536.25 390.59375 536.5625Q390.375 536.8594 390.25 537.2969Q390.14062 537.7344 390.14062 538.3125L390.14062 538.5469Q390.14062 539.0 390.26562 539.40625Q390.39062 539.7969 390.625 540.09375Q390.875 540.3906 391.21875 540.5625Q391.57812 540.7344 392.01562 540.7344Q392.59375 540.7344 392.98438 540.5Q393.39062 540.2656 393.6875 539.875L394.34375 540.3906Q394.14062 540.7031 393.8125 540.9844Q393.5 541.2656 393.03125 541.4531Q392.57812 541.625 391.95312 541.625Z" fill-rule="nonzero"/><path stroke="#cccccc" stroke-width="1.0" stroke-linecap="butt" d="M372.0 305.0L197.0 406.0" fill-rule="nonzero"/><path fill="#000000" d="M154.03125 423.34375Q154.03125 423.04688 153.9375 422.8125Q153.85938 422.57812 153.625 422.39062Q153.40625 422.20312 153.0 422.03125Q152.60938 421.85938 152.01562 421.6875Q151.375 421.5 150.85938 421.28125Q150.35938 421.04688 149.98438 420.75Q149.625 420.4375 149.4375 420.0625Q149.25 419.67188 149.25 419.17188Q149.25 418.67188 149.45312 418.25Q149.65625 417.82812 150.03125 417.51562Q150.42188 417.20312 150.95312 417.03125Q151.48438 416.84375 152.14062 416.84375Q153.10938 416.84375 153.78125 417.21875Q154.45312 417.57812 154.79688 418.17188Q155.15625 418.76562 155.15625 419.42188L154.03125 419.42188Q154.03125 418.95312 153.8125 418.57812Q153.60938 418.20312 153.1875 418.0Q152.78125 417.78125 152.14062 417.78125Q151.54688 417.78125 151.14062 417.96875Q150.75 418.14062 150.5625 418.45312Q150.375 418.76562 150.375 419.15625Q150.375 419.42188 150.48438 419.65625Q150.60938 419.875 150.84375 420.0625Q151.09375 420.25 151.46875 420.40625Q151.84375 420.5625 152.375 420.70312Q153.09375 420.90625 153.625 421.17188Q154.15625 421.42188 154.5 421.73438Q154.84375 422.04688 155.0 422.4375Q155.17188 422.82812 155.17188 423.32812Q155.17188 423.85938 154.95312 424.28125Q154.75 424.70312 154.35938 425.0Q153.96875 425.29688 153.42188 425.46875Q152.875 425.625 152.20312 425.625Q151.60938 425.625 151.03125 425.45312Q150.46875 425.28125 150.0 424.95312Q149.53125 424.625 149.25 424.15625Q148.96875 423.67188 148.96875 423.03125L150.09375 423.03125Q150.09375 423.46875 150.26562 423.78125Q150.4375 424.09375 150.73438 424.29688Q151.03125 424.5 151.40625 424.60938Q151.78125 424.70312 152.20312 424.70312Q152.79688 424.70312 153.20312 424.54688Q153.60938 424.375 153.8125 424.07812Q154.03125 423.76562 154.03125 423.34375ZM158.95312 425.625Q158.29688 425.625 157.75 425.40625Q157.21875 425.17188 156.82812 424.76562Q156.45312 424.34375 156.25 423.78125Q156.04688 423.21875 156.04688 422.54688L156.04688 422.3125Q156.04688 421.53125 156.26562 420.92188Q156.5 420.3125 156.89062 419.89062Q157.28125 419.46875 157.78125 419.26562Q158.28125 419.04688 158.8125 419.04688Q159.5 419.04688 159.98438 419.28125Q160.48438 419.51562 160.79688 419.9375Q161.125 420.34375 161.26562 420.92188Q161.42188 421.48438 161.42188 422.14062L161.42188 422.64062L156.6875 422.64062L156.6875 421.75L160.34375 421.75L160.34375 421.67188Q160.3125 421.25 160.15625 420.85938Q160.01562 420.45312 159.6875 420.20312Q159.375 419.9375 158.8125 419.9375Q158.45312 419.9375 158.14062 420.09375Q157.82812 420.25 157.59375 420.5625Q157.375 420.85938 157.25 421.29688Q157.14062 421.73438 157.14062 422.3125L157.14062 422.54688Q157.14062 423.0 157.26562 423.40625Q157.39062 423.79688 157.625 424.09375Q157.875 424.39062 158.21875 424.5625Q158.57812 424.73438 159.01562 424.73438Q159.59375 424.73438 159.98438 424.5Q160.39062 424.26562 160.6875 423.875L161.34375 424.39062Q161.14062 424.70312 160.8125 424.98438Q160.5 425.26562 160.03125 425.45312Q159.57812 425.625 158.95312 425.625ZM163.5 416.5L163.5 425.5L162.42188 425.5L162.42188 416.5L163.5 416.5ZM166.5 419.15625L166.5 425.5L165.42188 425.5L165.42188 419.15625L166.5 419.15625ZM165.32812 417.48438Q165.32812 417.21875 165.48438 417.03125Q165.65625 416.84375 165.96875 416.84375Q166.28125 416.84375 166.4375 417.03125Q166.60938 417.21875 166.60938 417.48438Q166.60938 417.73438 166.4375 417.92188Q166.28125 418.09375 165.96875 418.09375Q165.65625 418.09375 165.48438 417.92188Q165.32812 417.73438 165.32812 417.48438ZM169.40625 420.51562L169.40625 425.5L168.32812 425.5L168.32812 419.15625L169.35938 419.15625L169.40625 420.51562ZM169.15625 422.09375L168.70312 422.07812Q168.70312 421.42188 168.89062 420.875Q169.07812 420.3125 169.42188 419.90625Q169.76562 419.5 170.23438 419.28125Q170.70312 419.04688 171.28125 419.04688Q171.75 419.04688 172.125 419.17188Q172.5 419.29688 172.76562 419.57812Q173.03125 419.84375 173.17188 420.28125Q173.3125 420.71875 173.3125 421.34375L173.3125 425.5L172.21875 425.5L172.21875 421.32812Q172.21875 420.82812 172.07812 420.53125Q171.9375 420.23438 171.65625 420.09375Q171.375 419.95312 170.95312 419.95312Q170.54688 419.95312 170.21875 420.125Q169.89062 420.29688 169.65625 420.59375Q169.42188 420.89062 169.28125 421.28125Q169.15625 421.65625 169.15625 422.09375ZM177.95312 425.625Q177.29688 425.625 176.75 425.40625Q176.21875 425.17188 175.82812 424.76562Q175.45312 424.34375 175.25 423.78125Q175.04688 423.21875 175.04688 422.54688L175.04688 422.3125Q175.04688 421.53125 175.26562 420.92188Q175.5 420.3125 175.89062 419.89062Q176.28125 419.46875 176.78125 419.26562Q177.28125 419.04688 177.8125 419.04688Q178.5 419.04688 178.98438 419.28125Q179.48438 419.51562 179.79688 419.9375Q180.125 420.34375 180.26562 420.92188Q180.42188 421.48438 180.42188 422.14062L180.42188 422.64062L175.6875 422.64062L175.6875 421.75L179.34375 421.75L179.34375 421.67188Q179.3125 421.25 179.15625 420.85938Q179.01562 420.45312 178.6875 420.20312Q178.375 419.9375 177.8125 419.9375Q177.45312 419.9375 177.14062 420.09375Q176.82812 420.25 176.59375 420.5625Q176.375 420.85938 176.25 421.29688Q176.14062 421.73438 176.14062 422.3125L176.14062 422.54688Q176.14062 423.0 176.26562 423.40625Q176.39062 423.79688 176.625 424.09375Q176.875 424.39062 177.21875 424.5625Q177.57812 424.73438 178.01562 424.73438Q178.59375 424.73438 178.98438 424.5Q179.39062 424.26562 179.6875 423.875L180.34375 424.39062Q180.14062 424.70312 179.8125 424.98438Q179.5 425.26562 179.03125 425.45312Q178.57812 425.625 177.95312 425.625ZM182.40625 420.51562L182.40625 425.5L181.32812 425.5L181.32812 419.15625L182.35938 419.15625L182.40625 420.51562ZM182.15625 422.09375L181.70312 422.07812Q181.70312 421.42188 181.89062 420.875Q182.07812 420.3125 182.42188 419.90625Q182.76562 419.5 183.23438 419.28125Q183.70312 419.04688 184.28125 419.04688Q184.75 419.04688 185.125 419.17188Q185.5 419.29688 185.76562 419.57812Q186.03125 419.84375 186.17188 420.28125Q186.3125 420.71875 186.3125 421.34375L186.3125 425.5L185.21875 425.5L185.21875 421.32812Q185.21875 420.82812 185.07812 420.53125Q184.9375 420.23438 184.65625 420.09375Q184.375 419.95312 183.95312 419.95312Q183.54688 419.95312 183.21875 420.125Q182.89062 420.29688 182.65625 420.59375Q182.42188 420.89062 182.28125 421.28125Q182.15625 421.65625 182.15625 422.09375ZM190.95312 425.625Q190.29688 425.625 189.75 425.40625Q189.21875 425.17188 188.82812 424.76562Q188.45312 424.34375 188.25 423.78125Q188.04688 423.21875 188.04688 422.54688L188.04688 422.3125Q188.04688 421.53125 188.26562 420.92188Q188.5 420.3125 188.89062 419.89062Q189.28125 419.46875 189.78125 419.26562Q190.28125 419.04688 190.8125 419.04688Q191.5 419.04688 191.98438 419.28125Q192.48438 419.51562 192.79688 419.9375Q193.125 420.34375 193.26562 420.92188Q193.42188 421.48438 193.42188 422.14062L193.42188 422.64062L188.6875 422.64062L188.6875 421.75L192.34375 421.75L192.34375 421.67188Q192.3125 421.25 192.15625 420.85938Q192.01562 420.45312 191.6875 420.20312Q191.375 419.9375 190.8125 419.9375Q190.45312 419.9375 190.14062 420.09375Q189.82812 420.25 189.59375 420.5625Q189.375 420.85938 189.25 421.29688Q189.14062 421.73438 189.14062 422.3125L189.14062 422.54688Q189.14062 423.0 189.26562 423.40625Q189.39062 423.79688 189.625 424.09375Q189.875 424.39062 190.21875 424.5625Q190.57812 424.73438 191.01562 424.73438Q191.59375 424.73438 191.98438 424.5Q192.39062 424.26562 192.6875 423.875L193.34375 424.39062Q193.14062 424.70312 192.8125 424.98438Q192.5 425.26562 192.03125 425.45312Q191.57812 425.625 190.95312 425.625Z" fill-rule="nonzero"/><path stroke="#cccccc" stroke-width="1.0" stroke-linecap="butt" d="M372.0 305.0L197.0 204.0" fill-rule="nonzero"/><path fill="#000000" d="M153.03125 191.34375Q153.03125 191.04688 152.9375 190.8125Q152.85938 190.57812 152.625 190.39062Q152.40625 190.20312 152.0 190.03125Q151.60938 189.85938 151.01562 189.6875Q150.375 189.5 149.85938 189.28125Q149.35938 189.04688 148.98438 188.75Q148.625 188.4375 148.4375 188.0625Q148.25 187.67188 148.25 187.17188Q148.25 186.67188 148.45312 186.25Q148.65625 185.82812 149.03125 185.51562Q149.42188 185.20312 149.95312 185.03125Q150.48438 184.84375 151.14062 184.84375Q152.10938 184.84375 152.78125 185.21875Q153.45312 185.57812 153.79688 186.17188Q154.15625 186.76562 154.15625 187.42188L153.03125 187.42188Q153.03125 186.95312 152.8125 186.57812Q152.60938 186.20312 152.1875 186.0Q151.78125 185.78125 151.14062 185.78125Q150.54688 185.78125 150.14062 185.96875Q149.75 186.14062 149.5625 186.45312Q149.375 186.76562 149.375 187.15625Q149.375 187.42188 149.48438 187.65625Q149.60938 187.875 149.84375 188.0625Q150.09375 188.25 150.46875 188.40625Q150.84375 188.5625 151.375 188.70312Q152.09375 188.90625 152.625 189.17188Q153.15625 189.42188 153.5 189.73438Q153.84375 190.04688 154.0 190.4375Q154.17188 190.82812 154.17188 191.32812Q154.17188 191.85938 153.95312 192.28125Q153.75 192.70312 153.35938 193.0Q152.96875 193.29688 152.42188 193.46875Q151.875 193.625 151.20312 193.625Q150.60938 193.625 150.03125 193.45312Q149.46875 193.28125 149.0 192.95312Q148.53125 192.625 148.25 192.15625Q147.96875 191.67188 147.96875 191.03125L149.09375 191.03125Q149.09375 191.46875 149.26562 191.78125Q149.4375 192.09375 149.73438 192.29688Q150.03125 192.5 150.40625 192.60938Q150.78125 192.70312 151.20312 192.70312Q151.79688 192.70312 152.20312 192.54688Q152.60938 192.375 152.8125 192.07812Q153.03125 191.76562 153.03125 191.34375ZM155.04688 190.40625L155.04688 190.26562Q155.04688 189.57812 155.23438 189.0Q155.4375 188.40625 155.8125 187.96875Q156.1875 187.53125 156.71875 187.29688Q157.25 187.04688 157.92188 187.04688Q158.57812 187.04688 159.10938 187.29688Q159.65625 187.53125 160.03125 187.96875Q160.40625 188.40625 160.60938 189.0Q160.8125 189.57812 160.8125 190.26562L160.8125 190.40625Q160.8125 191.07812 160.60938 191.67188Q160.40625 192.25 160.03125 192.6875Q159.65625 193.125 159.125 193.375Q158.59375 193.625 157.92188 193.625Q157.26562 193.625 156.71875 193.375Q156.1875 193.125 155.8125 192.6875Q155.4375 192.25 155.23438 191.67188Q155.04688 191.07812 155.04688 190.40625ZM156.125 190.26562L156.125 190.40625Q156.125 190.875 156.23438 191.29688Q156.34375 191.71875 156.5625 192.04688Q156.79688 192.35938 157.14062 192.54688Q157.48438 192.71875 157.92188 192.71875Q158.375 192.71875 158.70312 192.54688Q159.04688 192.35938 159.26562 192.04688Q159.5 191.71875 159.60938 191.29688Q159.71875 190.875 159.71875 190.40625L159.71875 190.26562Q159.71875 189.79688 159.60938 189.375Q159.5 188.95312 159.26562 188.64062Q159.04688 188.3125 158.70312 188.125Q158.375 187.9375 157.92188 187.9375Q157.46875 187.9375 157.125 188.125Q156.79688 188.3125 156.5625 188.64062Q156.34375 188.95312 156.23438 189.375Q156.125 189.79688 156.125 190.26562ZM163.40625 188.51562L163.40625 193.5L162.32812 193.5L162.32812 187.15625L163.35938 187.15625L163.40625 188.51562ZM163.15625 190.09375L162.70312 190.07812Q162.70312 189.42188 162.89062 188.875Q163.07812 188.3125 163.42188 187.90625Q163.76562 187.5 164.23438 187.28125Q164.70312 187.04688 165.28125 187.04688Q165.75 187.04688 166.125 187.17188Q166.5 187.29688 166.76562 187.57812Q167.03125 187.84375 167.17188 188.28125Q167.3125 188.71875 167.3125 189.34375L167.3125 193.5L166.21875 193.5L166.21875 189.32812Q166.21875 188.82812 166.07812 188.53125Q165.9375 188.23438 165.65625 188.09375Q165.375 187.95312 164.95312 187.95312Q164.54688 187.95312 164.21875 188.125Q163.89062 188.29688 163.65625 188.59375Q163.42188 188.89062 163.28125 189.28125Q163.15625 189.65625 163.15625 190.09375ZM173.01562 191.8125Q173.01562 191.57812 172.90625 191.375Q172.8125 191.17188 172.5 191.01562Q172.1875 190.84375 171.5625 190.71875Q171.03125 190.60938 170.60938 190.46875Q170.1875 190.3125 169.89062 190.09375Q169.59375 189.875 169.4375 189.57812Q169.28125 189.28125 169.28125 188.89062Q169.28125 188.51562 169.4375 188.1875Q169.60938 187.84375 169.90625 187.59375Q170.21875 187.32812 170.65625 187.1875Q171.09375 187.04688 171.625 187.04688Q172.39062 187.04688 172.92188 187.3125Q173.46875 187.57812 173.75 188.03125Q174.03125 188.48438 174.03125 189.01562L172.95312 189.01562Q172.95312 188.76562 172.79688 188.51562Q172.64062 188.26562 172.34375 188.10938Q172.04688 187.9375 171.625 187.9375Q171.17188 187.9375 170.89062 188.07812Q170.60938 188.20312 170.48438 188.42188Q170.35938 188.625 170.35938 188.85938Q170.35938 189.04688 170.42188 189.1875Q170.48438 189.3125 170.64062 189.4375Q170.79688 189.54688 171.07812 189.65625Q171.375 189.75 171.82812 189.84375Q172.60938 190.01562 173.10938 190.26562Q173.60938 190.51562 173.85938 190.875Q174.10938 191.21875 174.10938 191.73438Q174.10938 192.15625 173.92188 192.5Q173.75 192.84375 173.42188 193.09375Q173.10938 193.34375 172.65625 193.48438Q172.20312 193.625 171.65625 193.625Q170.8125 193.625 170.23438 193.32812Q169.65625 193.01562 169.35938 192.54688Q169.0625 192.0625 169.0625 191.54688L170.14062 191.54688Q170.17188 191.98438 170.40625 192.25Q170.64062 192.51562 170.96875 192.625Q171.3125 192.71875 171.65625 192.71875Q172.09375 192.71875 172.39062 192.60938Q172.70312 192.48438 172.85938 192.28125Q173.01562 192.07812 173.01562 191.8125ZM177.98438 187.15625L177.98438 187.98438L174.54688 187.98438L174.54688 187.15625L177.98438 187.15625ZM175.71875 185.625L176.79688 185.625L176.79688 191.92188Q176.79688 192.25 176.89062 192.42188Q177.0 192.57812 177.15625 192.64062Q177.3125 192.6875 177.5 192.6875Q177.625 192.6875 177.76562 192.65625Q177.92188 192.625 178.0 192.60938L178.01562 193.5Q177.875 193.54688 177.67188 193.57812Q177.46875 193.625 177.17188 193.625Q176.78125 193.625 176.4375 193.46875Q176.10938 193.29688 175.90625 192.9375Q175.71875 192.5625 175.71875 191.92188L175.71875 185.625ZM180.5 187.15625L180.5 193.5L179.42188 193.5L179.42188 187.15625L180.5 187.15625ZM179.32812 185.48438Q179.32812 185.21875 179.48438 185.03125Q179.65625 184.84375 179.96875 184.84375Q180.28125 184.84375 180.4375 185.03125Q180.60938 185.21875 180.60938 185.48438Q180.60938 185.73438 180.4375 185.92188Q180.28125 186.09375 179.96875 186.09375Q179.65625 186.09375 179.48438 185.92188Q179.32812 185.73438 179.32812 185.48438ZM186.4375 187.15625L187.42188 187.15625L187.42188 193.35938Q187.42188 194.20312 187.07812 194.79688Q186.73438 195.39062 186.125 195.6875Q185.53125 196.0 184.73438 196.0Q184.40625 196.0 183.95312 195.89062Q183.51562 195.79688 183.09375 195.54688Q182.67188 195.3125 182.39062 194.90625L182.95312 194.25Q183.35938 194.73438 183.78125 194.92188Q184.21875 195.10938 184.65625 195.10938Q185.17188 195.10938 185.54688 194.90625Q185.92188 194.71875 186.125 194.34375Q186.32812 193.96875 186.32812 193.42188L186.32812 188.54688L186.4375 187.15625ZM182.0625 190.40625L182.0625 190.28125Q182.0625 189.54688 182.23438 188.95312Q182.42188 188.35938 182.73438 187.9375Q183.0625 187.5 183.51562 187.28125Q183.98438 187.04688 184.57812 187.04688Q185.17188 187.04688 185.60938 187.25Q186.0625 187.45312 186.375 187.85938Q186.6875 188.25 186.875 188.8125Q187.0625 189.35938 187.125 190.0625L187.125 190.60938Q187.0625 191.29688 186.875 191.85938Q186.6875 192.42188 186.375 192.8125Q186.0625 193.20312 185.60938 193.42188Q185.15625 193.625 184.5625 193.625Q183.98438 193.625 183.53125 193.39062Q183.07812 193.14062 182.75 192.70312Q182.42188 192.26562 182.23438 191.6875Q182.0625 191.09375 182.0625 190.40625ZM183.15625 190.28125L183.15625 190.40625Q183.15625 190.875 183.25 191.29688Q183.34375 191.70312 183.54688 192.03125Q183.75 192.34375 184.0625 192.53125Q184.39062 192.70312 184.82812 192.70312Q185.35938 192.70312 185.70312 192.46875Q186.0625 192.23438 186.26562 191.85938Q186.48438 191.48438 186.59375 191.04688L186.59375 189.64062Q186.53125 189.3125 186.39062 189.01562Q186.26562 188.71875 186.0625 188.48438Q185.85938 188.23438 185.54688 188.09375Q185.25 187.95312 184.82812 187.95312Q184.39062 187.95312 184.0625 188.14062Q183.75 188.32812 183.54688 188.65625Q183.34375 188.96875 183.25 189.39062Q183.15625 189.79688 183.15625 190.28125ZM191.95312 193.625Q191.29688 193.625 190.75 193.40625Q190.21875 193.17188 189.82812 192.76562Q189.45312 192.34375 189.25 191.78125Q189.04688 191.21875 189.04688 190.54688L189.04688 190.3125Q189.04688 189.53125 189.26562 188.92188Q189.5 188.3125 189.89062 187.89062Q190.28125 187.46875 190.78125 187.26562Q191.28125 187.04688 191.8125 187.04688Q192.5 187.04688 192.98438 187.28125Q193.48438 187.51562 193.79688 187.9375Q194.125 188.34375 194.26562 188.92188Q194.42188 189.48438 194.42188 190.14062L194.42188 190.64062L189.6875 190.64062L189.6875 189.75L193.34375 189.75L193.34375 189.67188Q193.3125 189.25 193.15625 188.85938Q193.01562 188.45312 192.6875 188.20312Q192.375 187.9375 191.8125 187.9375Q191.45312 187.9375 191.14062 188.09375Q190.82812 188.25 190.59375 188.5625Q190.375 188.85938 190.25 189.29688Q190.14062 189.73438 190.14062 190.3125L190.14062 190.54688Q190.14062 191.0 190.26562 191.40625Q190.39062 191.79688 190.625 192.09375Q190.875 192.39062 191.21875 192.5625Q191.57812 192.73438 192.01562 192.73438Q192.59375 192.73438 192.98438 192.5Q193.39062 192.26562 193.6875 191.875L194.34375 192.39062Q194.14062 192.70312 193.8125 192.98438Q193.5 193.26562 193.03125 193.45312Q192.57812 193.625 191.95312 193.625Z" fill-rule="nonzero"/><path stroke="#cccccc" stroke-width="1.0" stroke-linecap="butt" d="M372.0 305.0L372.0 103.0" fill-rule="nonzero"/><path stroke="#ff0000" stroke-width="2.0" stroke-linecap="butt" stroke-opacity="0.7019608" stroke-dasharray="8.0,6.0,2.0,6.0" d="M372.0 275.0L392.0 294.0L389.0 315.0L372.0 323.0L357.0 314.0L252.0 236.0Z" fill-rule="nonzero"/><path fill="#ff0000" fill-opacity="0.7019608" d="M368.81802 271.81802L372.0 273.875L375.18198 271.81802L373.125 275.0L375.18198 278.18198L372.0 276.125L368.81802 278.18198L370.875 275.0Z" fill-rule="nonzero"/><path fill="#ff0000" fill-opacity="0.7019608" d="M388.81802 290.81802L392.0 292.875L395.18198 290.81802L393.125 294.0L395.18198 297.18198L392.0 295.125L388.81802 297.18198L390.875 294.0Z" fill-rule="nonzero"/><path fill="#ff0000" fill-opacity="0.7019608" d="M385.81802 311.81802L389.0 313.875L392.18198 311.81802L390.125 315.0L392.18198 318.18198L389.0 316.125L385.81802 318.18198L387.875 315.0Z" fill-rule="nonzero"/><path fill="#ff0000" fill-opacity="0.7019608" d="M368.81802 319.81802L372.0 321.875L375.18198 319.81802L373.125 323.0L375.18198 326.18198L372.0 324.125L368.81802 326.18198L370.875 323.0Z" fill-rule="nonzero"/><path fill="#ff0000" fill-opacity="0.7019608" d="M353.81802 310.81802L357.0 312.875L360.18198 310.81802L358.125 314.0L360.18198 317.18198L357.0 315.125L353.81802 317.18198L355.875 314.0Z" fill-rule="nonzero"/><path fill="#ff0000" fill-opacity="0.7019608" d="M248.81802 232.81802L252.0 234.875L255.18198 232.81802L253.125 236.0L255.18198 239.18198L252.0 237.125L248.81802 239.18198L250.875 236.0Z" fill-rule="nonzero"/><path fill="#757575" d="M29.928125 47.35L29.928125 33.0375L36.271873 33.0375Q38.178123 33.0375 39.178123 33.428123Q40.178123 33.803123 40.771873 34.7875Q41.365623 35.75625 41.365623 36.94375Q41.365623 38.459373 40.38125 39.50625Q39.396873 40.553123 37.334373 40.834373Q38.084373 41.19375 38.475 41.553123Q39.303123 42.303123 40.053123 43.459373L42.5375 47.35L40.1625 47.35L38.25625 44.365623Q37.428123 43.084373 36.896873 42.396873Q36.365623 41.709373 35.928123 41.44375Q35.50625 41.1625 35.06875 41.053123Q34.740623 40.990623 34.021873 40.990623L31.81875 40.990623L31.81875 47.35L29.928125 47.35ZM31.81875 39.35L35.896873 39.35Q37.19375 39.35 37.9125 39.084373Q38.646873 38.81875 39.021873 38.225Q39.4125 37.63125 39.4125 36.94375Q39.4125 35.928123 38.678123 35.271873Q37.94375 34.615623 36.35 34.615623L31.81875 34.615623L31.81875 39.35ZM50.771873 44.00625L52.584373 44.240623Q52.1625 45.81875 50.990623 46.709373Q49.834373 47.584373 48.021873 47.584373Q45.75625 47.584373 44.4125 46.19375Q43.084373 44.7875 43.084373 42.25625Q43.084373 39.63125 44.428123 38.19375Q45.771873 36.740623 47.928123 36.740623Q50.00625 36.740623 51.31875 38.1625Q52.646873 39.56875 52.646873 42.146873Q52.646873 42.303123 52.63125 42.615623L44.896873 42.615623Q44.990623 44.31875 45.865623 45.225Q46.740623 46.13125 48.0375 46.13125Q49.00625 46.13125 49.678123 45.63125Q50.365623 45.115623 50.771873 44.00625ZM44.990623 41.1625L50.7875 41.1625Q50.678123 39.865623 50.13125 39.209373Q49.2875 38.19375 47.94375 38.19375Q46.740623 38.19375 45.9125 39.00625Q45.084373 39.803123 44.990623 41.1625ZM61.396873 47.35L61.396873 46.0375Q60.4125 47.584373 58.490623 47.584373Q57.25625 47.584373 56.209373 46.896873Q55.178123 46.209373 54.6 44.990623Q54.0375 43.771873 54.0375 42.178123Q54.0375 40.615623 54.553123 39.35Q55.06875 38.084373 56.1 37.4125Q57.146873 36.740623 58.4125 36.740623Q59.35 36.740623 60.084373 37.146873Q60.81875 37.5375 61.2875 38.1625L61.2875 33.0375L63.021873 33.0375L63.021873 47.35L61.396873 47.35ZM55.834373 42.178123Q55.834373 44.1625 56.678123 45.146873Q57.521873 46.13125 58.6625 46.13125Q59.81875 46.13125 60.615623 45.19375Q61.428123 44.25625 61.428123 42.31875Q61.428123 40.19375 60.6 39.19375Q59.7875 38.19375 58.584373 38.19375Q57.4125 38.19375 56.615623 39.1625Q55.834373 40.115623 55.834373 42.178123ZM71.92812 47.35L71.92812 33.0375L78.27187 33.0375Q80.17812 33.0375 81.17812 33.428123Q82.17812 33.803123 82.77187 34.7875Q83.36562 35.75625 83.36562 36.94375Q83.36562 38.459373 82.38125 39.50625Q81.39687 40.553123 79.33437 40.834373Q80.08437 41.19375 80.475 41.553123Q81.30312 42.303123 82.05312 43.459373L84.5375 47.35L82.1625 47.35L80.25625 44.365623Q79.42812 43.084373 78.89687 42.396873Q78.36562 41.709373 77.92812 41.44375Q77.50625 41.1625 77.06875 41.053123Q76.74062 40.990623 76.02187 40.990623L73.81875 40.990623L73.81875 47.35L71.92812 47.35ZM73.81875 39.35L77.89687 39.35Q79.19375 39.35 79.9125 39.084373Q80.64687 38.81875 81.02187 38.225Q81.4125 37.63125 81.4125 36.94375Q81.4125 35.928123 80.67812 35.271873Q79.94375 34.615623 78.35 34.615623L73.81875 34.615623L73.81875 39.35ZM85.02187 42.1625Q85.02187 39.2875 86.61562 37.896873Q87.95937 36.740623 89.88125 36.740623Q92.02187 36.740623 93.36562 38.146873Q94.725 39.553123 94.725 42.021873Q94.725 44.021873 94.13125 45.178123Q93.5375 46.31875 92.38125 46.959373Q91.24062 47.584373 89.88125 47.584373Q87.69375 47.584373 86.35 46.19375Q85.02187 44.7875 85.02187 42.1625ZM86.81875 42.1625Q86.81875 44.1625 87.67812 45.146873Q88.55312 46.13125 89.88125 46.13125Q91.19375 46.13125 92.05312 45.146873Q92.92812 44.146873 92.92812 42.1Q92.92812 40.178123 92.05312 39.19375Q91.17812 38.19375 89.88125 38.19375Q88.55312 38.19375 87.67812 39.19375Q86.81875 40.178123 86.81875 42.1625ZM95.74062 47.35L95.74062 45.928123L102.35 38.35Q101.225 38.396873 100.36562 38.396873L96.13125 38.396873L96.13125 36.975L104.61562 36.975L104.61562 38.146873L98.99062 44.725L97.9125 45.928123Q99.08437 45.834373 100.13125 45.834373L104.92812 45.834373L104.92812 47.35L95.74062 47.35ZM112.44375 46.06875Q111.45937 46.896873 110.55312 47.240623Q109.64687 47.584373 108.61562 47.584373Q106.9125 47.584373 105.99062 46.75625Q105.06875 45.9125 105.06875 44.615623Q105.06875 43.85 105.4125 43.225Q105.77187 42.6 106.33437 42.225Q106.89687 41.834373 107.6 41.63125Q108.11562 41.50625 109.1625 41.365623Q111.2875 41.115623 112.2875 40.771873Q112.30312 40.4125 112.30312 40.303123Q112.30312 39.240623 111.80312 38.7875Q111.13125 38.19375 109.80312 38.19375Q108.55312 38.19375 107.95937 38.63125Q107.38125 39.06875 107.1 40.178123L105.38125 39.94375Q105.61562 38.834373 106.14687 38.1625Q106.67812 37.475 107.69375 37.115623Q108.70937 36.740623 110.05312 36.740623Q111.38125 36.740623 112.20937 37.053123Q113.0375 37.365623 113.42812 37.85Q113.81875 38.31875 113.975 39.0375Q114.06875 39.490623 114.06875 40.6625L114.06875 43.00625Q114.06875 45.459373 114.17812 46.115623Q114.2875 46.75625 114.63125 47.35L112.7875 47.35Q112.52187 46.803123 112.44375 46.06875ZM112.2875 42.146873Q111.33437 42.5375 109.4125 42.803123Q108.33437 42.959373 107.88125 43.1625Q107.44375 43.35 107.19375 43.725Q106.94375 44.1 106.94375 44.56875Q106.94375 45.271873 107.475 45.740623Q108.00625 46.209373 109.0375 46.209373Q110.05312 46.209373 110.83437 45.771873Q111.63125 45.31875 112.00625 44.553123Q112.2875 43.94375 112.2875 42.7875L112.2875 42.146873ZM116.58437 51.35L116.39687 49.69375Q116.975 49.85 117.39687 49.85Q117.99062 49.85 118.33437 49.646873Q118.69375 49.459373 118.9125 49.115623Q119.08437 48.85 119.45937 47.803123Q119.50625 47.646873 119.61562 47.365623L115.67812 36.975L117.56875 36.975L119.725 42.990623Q120.14687 44.13125 120.475 45.38125Q120.7875 44.178123 121.19375 43.021873L123.4125 36.975L125.17812 36.975L121.225 47.521873Q120.6 49.240623 120.24062 49.88125Q119.77187 50.75625 119.1625 51.146873Q118.56875 51.553123 117.725 51.553123Q117.20937 51.553123 116.58437 51.35Z" fill-rule="nonzero"/></svg>