<svg version="1.1" viewBox="0.0 0.0 744.0 567.0" fill="none" stroke="none" stroke-linecap="square" stroke-miterlimit="10" width="744" height="567" xmlns:xlink="http://www.w3.org/1999/xlink" xmlns="http://www.w3.org/2000/svg"><path fill="#ffffff" d="M0 0L744.0 0L744.0 567.0L0 567.0L0 0Z" fill-rule="nonzero"/><path fill="#ffffff" d="M28.35 71.25L715.64996 71.25L715.64996 538.65L28.35 538.65L28.35 71.25Z" fill-rule="nonzero"/><path stroke="#cccccc" stroke-width="1.0" stroke-linecap="butt" d="M372.0 305.0C372.0 305.0 372.0 305.0 372.0 305.0C372.0 305.0 372.0 305.0 372.0 305.0C372.0 305.0 372.0 305.0 372.0 305.0C372.0 305.0 372.0 305.0 372.0 305.0" fill-rule="nonzero"/><path fill="#000000" d="M360.0625 297.04688L360.0625 298.35938Q360.0625 299.40625 359.875 300.125Q359.6875 300.84375 359.32812 301.28125Q358.98438 301.71875 358.48438 301.92188Q358.0 302.125 357.375 302.125Q356.89062 302.125 356.46875 302.0Q356.04688 301.875 355.71875 301.60938Q355.39062 301.32812 355.15625 300.89062Q354.92188 300.45312 354.79688 299.82812Q354.67188 299.1875 354.67188 298.35938L354.67188 297.04688Q354.67188 296.0 354.85938 295.29688Q355.0625 294.59375 355.40625 294.15625Q355.76562 293.71875 356.25 293.53125Q356.75 293.34375 357.35938 293.34375Q357.85938 293.34375 358.28125 293.46875Q358.70312 293.59375 359.03125 293.85938Q359.35938 294.10938 359.57812 294.54688Q359.8125 294.96875 359.9375 295.59375Q360.0625 296.21875 360.0625 297.04688ZM358.96875 298.53125L358.96875 296.875Q358.96875 296.29688 358.90625 295.85938Q358.84375 295.42188 358.70312 295.10938Q358.57812 294.79688 358.375 294.60938Q358.1875 294.42188 357.9375 294.32812Q357.6875 294.23438 357.35938 294.23438Q356.98438 294.23438 356.67188 294.375Q356.375 294.51562 356.17188 294.82812Q355.96875 295.14062 355.85938 295.65625Q355.76562 296.15625 355.76562 296.875L355.76562 298.53125Q355.76562 299.10938 355.82812 299.54688Q355.90625 299.98438 356.03125 300.3125Q356.17188 300.625 356.35938 300.82812Q356.5625 301.03125 356.8125 301.125Q357.0625 301.21875 357.375 301.21875Q357.78125 301.21875 358.07812 301.07812Q358.375 300.92188 358.57812 300.59375Q358.78125 300.26562 358.875 299.76562Q358.96875 299.25 358.96875 298.53125ZM362.8125 300.70312L362.8125 301.57812Q362.8125 302.125 362.53125 302.71875Q362.26562 303.3125 361.78125 303.70312L361.17188 303.28125Q361.35938 303.01562 361.48438 302.75Q361.60938 302.48438 361.67188 302.20312Q361.75 301.92188 361.75 301.59375L361.75 300.70312L362.8125 300.70312ZM369.0625 297.04688L369.0625 298.35938Q369.0625 299.40625 368.875 300.125Q368.6875 300.84375 368.32812 301.28125Q367.98438 301.71875 367.48438 301.92188Q367.0 302.125 366.375 302.125Q365.89062 302.125 365.46875 302.0Q365.04688 301.875 364.71875 301.60938Q364.39062 301.32812 364.15625 300.89062Q363.92188 300.45312 363.79688 299.82812Q363.67188 299.1875 363.67188 298.35938L363.67188 297.04688Q363.67188 296.0 363.85938 295.29688Q364.0625 294.59375 364.40625 294.15625Q364.76562 293.71875 365.25 293.53125Q365.75 293.34375 366.35938 293.34375Q366.85938 293.34375 367.28125 293.46875Q367.70312 293.59375 368.03125 293.85938Q368.35938 294.10938 368.57812 294.54688Q368.8125 294.96875 368.9375 295.59375Q369.0625 296.21875 369.0625 297.04688ZM367.96875 298.53125L367.96875 296.875Q367.96875 296.29688 367.90625 295.85938Q367.84375 295.42188 367.70312 295.10938Q367.57812 294.79688 367.375 294.60938Q367.1875 294.42188 366.9375 294.32812Q366.6875 294.23438 366.35938 294.23438Q365.98438 294.23438 365.67188 294.375Q365.375 294.51562 365.17188 294.82812Q364.96875 295.14062 364.85938 295.65625Q364.76562 296.15625 364.76562 296.875L364.76562 298.53125Q364.76562 299.10938 364.82812 299.54688Q364.90625 299.98438 365.03125 300.3125Q365.17188 300.625 365.35938 300.82812Q365.5625 301.03125 365.8125 301.125Q366.0625 301.21875 366.375 301.21875Q366.78125 301.21875 367.07812 301.07812Q367.375 300.92188 367.57812 300.59375Q367.78125 300.26562 367.875 299.76562Q367.96875 299.25 367.96875 298.53125Z" fill-rule="nonzero"/><path stroke="#cccccc" stroke-width="1.0" stroke-linecap="butt" d="M422.425 305.0C422.425 277.15103 399.84897 254.575 372.0 254.575C344.15103 254.575 321.575 277.15103 321.575 305.0C321.575 332.84897 344.15103 355.425 372.0 355.425C399.84897 355.425 422.425 332.84897 422.425 305.0" fill-rule="nonzero"/><path fill="#000000" d="M360.0625 246.62187L360.0625 247.93437Q360.0625 248.98125 359.875 249.7Q359.6875 250.41875 359.32812 250.85625Q358.98438 251.29375 358.48438 251.49687Q358.0 251.7 357.375 251.7Q356.89062 251.7 356.46875 251.575Q356.04688 251.45 355.71875 251.18437Q355.39062 250.90312 355.15625 250.46562Q354.92188 250.02812 354.79688 249.40312Q354.67188 248.7625 354.67188 247.93437L354.67188 246.62187Q354.67188 245.575 354.85938 244.87187Q355.0625 244.16875 355.40625 243.73125Q355.76562 243.29375 356.25 243.10625Q356.75 242.91875 357.35938 242.91875Q357.85938 242.91875 358.28125 243.04375Q358.70312 243.16875 359.03125 243.43437Q359.35938 243.68437 359.57812 244.12187Q359.8125 244.54375 359.9375 245.16875Q360.0625 245.79375 360.0625 246.62187ZM358.96875 248.10625L358.96875 246.45Q358.96875 245.87187 358.90625 245.43437Q358.84375 244.99687 358.70312 244.68437Q358.57812 244.37187 358.375 244.18437Q358.1875 243.99687 357.9375 243.90312Q357.6875 243.80937 357.35938 243.80937Q356.98438 243.80937 356.67188 243.95Q356.375 244.09062 356.17188 244.40312Q355.96875 244.71562 355.85938 245.23125Q355.76562 245.73125 355.76562 246.45L355.76562 248.10625Q355.76562 248.68437 355.82812 249.12187Q355.90625 249.55937 356.03125 249.8875Q356.17188 250.2 356.35938 250.40312Q356.5625 250.60625 356.8125 250.7Q357.0625 250.79375 357.375 250.79375Q357.78125 250.79375 358.07812 250.65312Q358.375 250.49687 358.57812 250.16875Q358.78125 249.84062 358.875 249.34062Q358.96875 248.825 358.96875 248.10625ZM362.8125 250.27812L362.8125 251.15312Q362.8125 251.7 362.53125 252.29375Q362.26562 252.8875 361.78125 253.27812L361.17188 252.85625Q361.35938 252.59062 361.48438 252.325Q361.60938 252.05937 361.67188 251.77812Q361.75 251.49687 361.75 251.16875L361.75 250.27812L362.8125 250.27812ZM367.26562 242.99687L367.26562 251.575L366.1875 251.575L366.1875 244.35625L364.0 245.15312L364.0 244.16875L367.10938 242.99687L367.26562 242.99687Z" fill-rule="nonzero"/><path stroke="#cccccc" stroke-width="1.0" stroke-linecap="butt" d="M472.85 305.0C472.85 249.30208 427.6979 204.15 372.0 204.15C316.3021 204.15 271.15 249.30208 271.15 305.0C271.15 360.6979 316.3021 405.85 372.0 405.85C427.6979 405.85 472.85 360.6979 472.85 305.0" fill-rule="nonzero"/><path fill="#000000" d="M360.0625 196.19687L360.0625 197.50937Q360.0625 198.55624 359.875 199.275Q359.6875 199.99374 359.32812 200.43124Q358.98438 200.86874 358.48438 201.07187Q358.0 201.275 357.375 201.275Q356.89062 201.275 356.46875 201.15Q356.04688 201.025 355.71875 200.75937Q355.39062 200.47812 355.15625 200.04062Q354.92188 199.60312 354.79688 198.97812Q354.67188 198.3375 354.67188 197.50937L354.67188 196.19687Q354.67188 195.15 354.85938 194.44687Q355.0625 193.74374 355.40625 193.30624Q355.76562 192.86874 356.25 192.68124Q356.75 192.49374 357.35938 192.49374Q357.85938 192.49374 358.28125 192.61874Q358.70312 192.74374 359.03125 193.00937Q359.35938 193.25937 359.57812 193.69687Q359.8125 194.11874 359.9375 194.74374Q360.0625 195.36874 360.0625 196.19687ZM358.96875 197.68124L358.96875 196.025Q358.96875 195.44687 358.90625 195.00937Q358.84375 194.57187 358.70312 194.25937Q358.57812 193.94687 358.375 193.75937Q358.1875 193.57187 357.9375 193.47812Q357.6875 193.38437 357.35938 193.38437Q356.98438 193.38437 356.67188 193.525Q356.375 193.66562 356.17188 193.97812Q355.96875 194.29062 355.85938 194.80624Q355.76562 195.30624 355.76562 196.025L355.76562 197.68124Q355.76562 198.25937 355.82812 198.69687Q355.90625 199.13437 356.03125 199.4625Q356.17188 199.775 356.35938 199.97812Q356.5625 200.18124 356.8125 200.275Q357.0625 200.36874 357.375 200.36874Q357.78125 200.36874 358.07812 200.22812Q358.375 200.07187 358.57812 199.74374Q358.78125 199.41562 358.875 198.91562Q358.96875 198.4 358.96875 197.68124ZM362.8125 199.85312L362.8125 200.72812Q362.8125 201.275 362.53125 201.86874Q362.26562 202.4625 361.78125 202.85312L361.17188 202.43124Q361.35938 202.16562 361.48438 201.9Q361.60938 201.63437 361.67188 201.35312Q361.75 201.07187 361.75 200.74374L361.75 199.85312L362.8125 199.85312ZM369.29688 200.25937L369.29688 201.15L363.71875 201.15L363.71875 200.36874L366.51562 197.25937Q367.03125 196.68124 367.3125 196.29062Q367.59375 195.88437 367.70312 195.57187Q367.82812 195.24374 367.82812 194.91562Q367.82812 194.49374 367.65625 194.15Q367.48438 193.80624 367.14062 193.60312Q366.8125 193.38437 366.32812 193.38437Q365.76562 193.38437 365.39062 193.61874Q365.01562 193.8375 364.82812 194.22812Q364.64062 194.61874 364.64062 195.11874L363.54688 195.11874Q363.54688 194.4 363.85938 193.80624Q364.1875 193.2125 364.79688 192.85312Q365.42188 192.49374 366.32812 192.49374Q367.14062 192.49374 367.71875 192.79062Q368.29688 193.07187 368.59375 193.5875Q368.90625 194.0875 368.90625 194.775Q368.90625 195.15 368.78125 195.54062Q368.65625 195.91562 368.4375 196.30624Q368.21875 196.68124 367.92188 197.05624Q367.64062 197.41562 367.3125 197.775L365.01562 200.25937L369.29688 200.25937Z" fill-rule="nonzero"/><path stroke="#cccccc" stroke-width="1.0" stroke-linecap="butt" d="M523.275 305.0C523.275 221.45312 455.54688 153.725 372.0 153.725C288.45312 153.725 220.725 221.45312 220.725 305.0C220.725 388.54688 288.45312 456.275 372.0 456.275C455.54688 456.275 523.275 388.54688 523.275 305.0" fill-rule="nonzero"/><path fill="#000000" d="M360.0625 145.77188L360.0625 147.08438Q360.0625 148.13126 359.875 148.85Q359.6875 149.56876 359.32812 150.00626Q358.98438 150.44376 358.48438 150.64688Q358.0 150.85 357.375 150.85Q356.89062 150.85 356.46875 150.725Q356.04688 150.6 355.71875 150.33438Q355.39062 150.05313 355.15625 149.61563Q354.92188 149.17813 354.79688 148.55313Q354.67188 147.9125 354.67188 147.08438L354.67188 145.77188Q354.67188 144.725 354.85938 144.02188Q355.0625 143.31876 355.40625 142.88126Q355.76562 142.44376 356.25 142.25626Q356.75 142.06876 357.35938 142.06876Q357.85938 142.06876 358.28125 142.19376Q358.70312 142.31876 359.03125 142.58438Q359.35938 142.83438 359.57812 143.27188Q359.8125 143.69376 359.9375 144.31876Q360.0625 144.94376 360.0625 145.77188ZM358.96875 147.25626L358.96875 145.6Q358.96875 145.02188 358.90625 144.58438Q358.84375 144.14688 358.70312 143.83438Q358.57812 143.52188 358.375 143.33438Q358.1875 143.14688 357.9375 143.05313Q357.6875 142.95938 357.35938 142.95938Q356.98438 142.95938 356.67188 143.1Q356.375 143.24063 356.17188 143.55313Q355.96875 143.86563 355.85938 144.38126Q355.76562 144.88126 355.76562 145.6L355.76562 147.25626Q355.76562 147.83438 355.82812 148.27188Q355.90625 148.70938 356.03125 149.0375Q356.17188 149.35 356.35938 149.55313Q356.5625 149.75626 356.8125 149.85Q357.0625 149.94376 357.375 149.94376Q357.78125 149.94376 358.07812 149.80313Q358.375 149.64688 358.57812 149.31876Q358.78125 148.99063 358.875 148.49063Q358.96875 147.975 358.96875 147.25626ZM362.8125 149.42813L362.8125 150.30313Q362.8125 150.85 362.53125 151.44376Q362.26562 152.0375 361.78125 152.42813L361.17188 152.00626Q361.35938 151.74063 361.48438 151.475Q361.60938 151.20938 361.67188 150.92813Q361.75 150.64688 361.75 150.31876L361.75 149.42813L362.8125 149.42813ZM365.29688 145.92813L366.0625 145.92813Q366.64062 145.92813 367.0 145.74063Q367.375 145.5375 367.5625 145.20938Q367.75 144.88126 367.75 144.45938Q367.75 143.975 367.57812 143.64688Q367.42188 143.30313 367.09375 143.13126Q366.76562 142.95938 366.26562 142.95938Q365.79688 142.95938 365.45312 143.14688Q365.10938 143.31876 364.90625 143.64688Q364.71875 143.975 364.71875 144.42813L363.625 144.42813Q363.625 143.77188 363.95312 143.24063Q364.28125 142.70938 364.875 142.39688Q365.46875 142.06876 366.26562 142.06876Q367.03125 142.06876 367.60938 142.35Q368.1875 142.61563 368.51562 143.1625Q368.84375 143.69376 368.84375 144.49063Q368.84375 144.81876 368.6875 145.17813Q368.53125 145.5375 368.21875 145.86563Q367.90625 146.17813 367.40625 146.38126Q366.92188 146.58438 366.21875 146.58438L365.29688 146.58438L365.29688 145.92813ZM365.29688 146.81876L365.29688 146.1625L366.21875 146.1625Q367.03125 146.1625 367.5625 146.36563Q368.09375 146.55313 368.40625 146.88126Q368.71875 147.19376 368.84375 147.58438Q368.96875 147.95938 368.96875 148.35Q368.96875 148.94376 368.76562 149.4125Q368.5625 149.86563 368.1875 150.19376Q367.82812 150.50626 367.32812 150.67813Q366.84375 150.85 366.26562 150.85Q365.70312 150.85 365.21875 150.69376Q364.73438 150.52188 364.35938 150.225Q363.98438 149.92813 363.76562 149.49063Q363.5625 149.0375 363.5625 148.475L364.64062 148.475Q364.64062 148.9125 364.82812 149.25626Q365.03125 149.58438 365.39062 149.77188Q365.76562 149.94376 366.26562 149.94376Q366.76562 149.94376 367.125 149.77188Q367.48438 149.6 367.67188 149.25626Q367.875 148.89688 367.875 148.36563Q367.875 147.83438 367.65625 147.49063Q367.4375 147.14688 367.01562 146.99063Q366.60938 146.81876 366.0625 146.81876L365.29688 146.81876Z" fill-rule="nonzero"/><path stroke="#cccccc" stroke-width="1.0" stroke-linecap="butt" d="M573.7 305.0C573.7 193.60417 483.39584 103.3 372.0 103.3C260.60416 103.3 170.3 193.60417 170.3 305.0C170.3 416.39584 260.60416 506.7 372.0 506.7C483.39584 506.7 573.7 416.39584 573.7 305.0" fill-rule="nonzero"/><path fill="#000000" d="M360.0625 95.34688L360.0625 96.65938Q360.0625 97.70625 359.875 98.425Q359.6875 99.14375 359.32812 99.58125Q358.98438 100.01875 358.48438 100.22188Q358.0 100.425 357.375 100.425Q356.89062 100.425 356.46875 100.3Q356.04688 100.175 355.71875 99.90938Q355.39062 99.62813 355.15625 99.19063Q354.92188 98.75313 354.79688 98.12813Q354.67188 97.4875 354.67188 96.65938L354.67188 95.34688Q354.67188 94.3 354.85938 93.59688Q355.0625 92.89375 355.40625 92.45625Q355.76562 92.01875 356.25 91.83125Q356.75 91.64375 357.35938 91.64375Q357.85938 91.64375 358.28125 91.76875Q358.70312 91.89375 359.03125 92.15938Q359.35938 92.40938 359.57812 92.84688Q359.8125 93.26875 359.9375 93.89375Q360.0625 94.51875 360.0625 95.34688ZM358.96875 96.83125L358.96875 95.175Q358.96875 94.59688 358.90625 94.15938Q358.84375 93.72188 358.70312 93.40938Q358.57812 93.09688 358.375 92.90938Q358.1875 92.72188 357.9375 92.62813Q357.6875 92.53438 357.35938 92.53438Q356.98438 92.53438 356.67188 92.675Q356.375 92.81563 356.17188 93.12813Q355.96875 93.44063 355.85938 93.95625Q355.76562 94.45625 355.76562 95.175L355.76562 96.83125Q355.76562 97.40938 355.82812 97.84688Q355.90625 98.28438 356.03125 98.6125Q356.17188 98.925 356.35938 99.12813Q356.5625 99.33125 356.8125 99.425Q357.0625 99.51875 357.375 99.51875Q357.78125 99.51875 358.07812 99.37813Q358.375 99.22188 358.57812 98.89375Q358.78125 98.56563 358.875 98.06563Q358.96875 97.55 358.96875 96.83125ZM362.8125 99.00313L362.8125 99.87813Q362.8125 100.425 362.53125 101.01875Q362.26562 101.6125 361.78125 102.00313L361.17188 101.58125Q361.35938 101.31563 361.48438 101.05Q361.60938 100.78438 361.67188 100.50313Q361.75 100.22188 361.75 99.89375L361.75 99.00313L362.8125 99.00313ZM369.46875 97.425L369.46875 98.31563L363.3125 98.31563L363.3125 97.675L367.125 91.76875L368.01562 91.76875L367.0625 93.47188L364.54688 97.425L369.46875 97.425ZM368.28125 91.76875L368.28125 100.3L367.20312 100.3L367.20312 91.76875L368.28125 91.76875Z" fill-rule="nonzero"/><path stroke="#cccccc" stroke-width="1.0" stroke-linecap="butt" d="M372.0 305.0L372.0 103.0" fill-rule="nonzero"/><path fill="#000000" d="M354.67188 76.578125L354.67188 77.5L350.40625 77.5L350.40625 76.578125L354.67188 76.578125ZM350.625 68.96875L350.625 77.5L349.48438 77.5L349.48438 68.96875L350.625 68.96875ZM356.5 71.15625L356.5 77.5L355.42188 77.5L355.42188 71.15625L356.5 71.15625ZM355.32812 69.484375Q355.32812 69.21875 355.48438 69.03125Q355.65625 68.84375 355.96875 68.84375Q356.28125 68.84375 356.4375 69.03125Q356.60938 69.21875 356.60938 69.484375Q356.60938 69.734375 356.4375 69.921875Q356.28125 70.09375 355.96875 70.09375Q355.65625 70.09375 355.48438 69.921875Q355.32812 69.734375 355.32812 69.484375ZM359.40625 72.421875L359.40625 77.5L358.3125 77.5L358.3125 71.15625L359.34375 71.15625L359.40625 72.421875ZM359.1875 74.09375L358.67188 74.078125Q358.6875 73.421875 358.84375 72.875Q359.01562 72.3125 359.32812 71.90625Q359.65625 71.5 360.14062 71.28125Q360.625 71.046875 361.25 71.046875Q361.70312 71.046875 362.07812 71.171875Q362.45312 71.296875 362.71875 71.5625Q363.0 71.828125 363.14062 72.25Q363.29688 72.671875 363.29688 73.28125L363.29688 77.5L362.21875 77.5L362.21875 73.328125Q362.21875 72.828125 362.04688 72.53125Q361.89062 72.234375 361.57812 72.09375Q361.28125 71.953125 360.85938 71.953125Q360.39062 71.953125 360.0625 72.125Q359.73438 72.296875 359.54688 72.59375Q359.35938 72.890625 359.26562 73.28125Q359.1875 73.65625 359.1875 74.09375ZM363.29688 73.484375L362.5625 73.71875Q362.5625 73.1875 362.73438 72.71875Q362.90625 72.234375 363.21875 71.859375Q363.54688 71.484375 364.01562 71.265625Q364.48438 71.046875 365.07812 71.046875Q365.59375 71.046875 365.98438 71.1875Q366.39062 71.3125 366.65625 71.59375Q366.92188 71.875 367.0625 72.3125Q367.20312 72.734375 367.20312 73.328125L367.20312 77.5L366.125 77.5L366.125 73.328125Q366.125 72.78125 365.95312 72.5Q365.78125 72.203125 365.48438 72.078125Q365.1875 71.953125 364.76562 71.953125Q364.40625 71.953125 364.125 72.078125Q363.85938 72.203125 363.67188 72.421875Q363.48438 72.625 363.39062 72.90625Q363.29688 73.1875 363.29688 73.484375ZM369.04688 74.40625L369.04688 74.265625Q369.04688 73.578125 369.23438 73.0Q369.4375 72.40625 369.8125 71.96875Q370.1875 71.53125 370.71875 71.296875Q371.25 71.046875 371.92188 71.046875Q372.57812 71.046875 373.10938 71.296875Q373.65625 71.53125 374.03125 71.96875Q374.40625 72.40625 374.60938 73.0Q374.8125 73.578125 374.8125 74.265625L374.8125 74.40625Q374.8125 75.078125 374.60938 75.671875Q374.40625 76.25 374.03125 76.6875Q373.65625 77.125 373.125 77.375Q372.59375 77.625 371.92188 77.625Q371.26562 77.625 370.71875 77.375Q370.1875 77.125 369.8125 76.6875Q369.4375 76.25 369.23438 75.671875Q369.04688 75.078125 369.04688 74.40625ZM370.125 74.265625L370.125 74.40625Q370.125 74.875 370.23438 75.296875Q370.34375 75.71875 370.5625 76.046875Q370.79688 76.359375 371.14062 76.546875Q371.48438 76.71875 371.92188 76.71875Q372.375 76.71875 372.70312 76.546875Q373.04688 76.359375 373.26562 76.046875Q373.5 75.71875 373.60938 75.296875Q373.71875 74.875 373.71875 74.40625L373.71875 74.265625Q373.71875 73.796875 373.60938 73.375Q373.5 72.953125 373.26562 72.640625Q373.04688 72.3125 372.70312 72.125Q372.375 71.9375 371.92188 71.9375Q371.46875 71.9375 371.125 72.125Q370.79688 72.3125 370.5625 72.640625Q370.34375 72.953125 370.23438 73.375Q370.125 73.796875 370.125 74.265625ZM377.40625 72.515625L377.40625 77.5L376.32812 77.5L376.32812 71.15625L377.35938 71.15625L377.40625 72.515625ZM377.15625 74.09375L376.70312 74.078125Q376.70312 73.421875 376.89062 72.875Q377.07812 72.3125 377.42188 71.90625Q377.76562 71.5 378.23438 71.28125Q378.70312 71.046875 379.28125 71.046875Q379.75 71.046875 380.125 71.171875Q380.5 71.296875 380.76562 71.578125Q381.03125 71.84375 381.17188 72.28125Q381.3125 72.71875 381.3125 73.34375L381.3125 77.5L380.21875 77.5L380.21875 73.328125Q380.21875 72.828125 380.07812 72.53125Q379.9375 72.234375 379.65625 72.09375Q379.375 71.953125 378.95312 71.953125Q378.54688 71.953125 378.21875 72.125Q377.89062 72.296875 377.65625 72.59375Q377.42188 72.890625 377.28125 73.28125Q377.15625 73.65625 377.15625 74.09375ZM385.95312 77.625Q385.29688 77.625 384.75 77.40625Q384.21875 77.171875 383.82812 76.765625Q383.45312 76.34375 383.25 75.78125Q383.04688 75.21875 383.04688 74.546875L383.04688 74.3125Q383.04688 73.53125 383.26562 72.921875Q383.5 72.3125 383.89062 71.890625Q384.28125 71.46875 384.78125 71.265625Q385.28125 71.046875 385.8125 71.046875Q386.5 71.046875 386.98438 71.28125Q387.48438 71.515625 387.79688 71.9375Q388.125 72.34375 388.26562 72.921875Q388.42188 73.484375 388.42188 74.140625L388.42188 74.640625L383.6875 74.640625L383.6875 73.75L387.34375 73.75L387.34375 73.671875Q387.3125 73.25 387.15625 72.859375Q387.01562 72.453125 386.6875 72.203125Q386.375 71.9375 385.8125 71.9375Q385.45312 71.9375 385.14062 72.09375Q384.82812 72.25 384.59375 72.5625Q384.375 72.859375 384.25 73.296875Q384.14062 73.734375 384.14062 74.3125L384.14062 74.546875Q384.14062 75.0 384.26562 75.40625Q384.39062 75.796875 384.625 76.09375Q384.875 76.390625 385.21875 76.5625Q385.57812 76.734375 386.01562 76.734375Q386.59375 76.734375 386.98438 76.5Q387.39062 76.265625 387.6875 75.875L388.34375 76.390625Q388.14062 76.703125 387.8125 76.984375Q387.5 77.265625 387.03125 77.453125Q386.57812 77.625 385.95312 77.625ZM390.40625 72.515625L390.40625 77.5L389.32812 77.5L389.32812 71.15625L390.35938 71.15625L390.40625 72.515625ZM390.15625 74.09375L389.70312 74.078125Q389.70312 73.421875 389.89062 72.875Q390.07812 72.3125 390.42188 71.90625Q390.76562 71.5 391.23438 71.28125Q391.70312 71.046875 392.28125 71.046875Q392.75 71.046875 393.125 71.171875Q393.5 71.296875 393.76562 71.578125Q394.03125 71.84375 394.17188 72.28125Q394.3125 72.71875 394.3125 73.34375L394.3125 77.5L393.21875 77.5L393.21875 73.328125Q393.21875 72.828125 393.07812 72.53125Q392.9375 72.234375 392.65625 72.09375Q392.375 71.953125 391.95312 71.953125Q391.54688 71.953125 391.21875 72.125Q390.89062 72.296875 390.65625 72.59375Q390.42188 72.890625 390.28125 73.28125Q390.15625 73.65625 390.15625 74.09375Z" fill-rule="nonzero"/><path stroke="#cccccc" stroke-width="1.0" stroke-linecap="butt" d="M372.0 305.0L547.0 204.0" fill-rule="nonzero"/><path fill="#000000" d="M557.6719 192.57812L557.6719 193.5L553.40625 193.5L553.40625 192.57812L557.6719 192.57812ZM553.625 184.96875L553.625 193.5L552.4844 193.5L552.4844 184.96875L553.625 184.96875ZM559.5 187.15625L559.5 193.5L558.4219 193.5L558.4219 187.15625L559.5 187.15625ZM558.3281 185.48438Q558.3281 185.21875 558.4844 185.03125Q558.65625 184.84375 558.96875 184.84375Q559.28125 184.84375 559.4375 185.03125Q559.6094 185.21875 559.6094 185.48438Q559.6094 185.73438 559.4375 185.92188Q559.28125 186.09375 558.96875 186.09375Q558.65625 186.09375 558.4844 185.92188Q558.3281 185.73438 558.3281 185.48438ZM562.40625 188.51562L562.40625 193.5L561.3281 193.5L561.3281 187.15625L562.3594 187.15625L562.40625 188.51562ZM562.15625 190.09375L561.7031 190.07812Q561.7031 189.42188 561.8906 188.875Q562.0781 188.3125 562.4219 187.90625Q562.7656 187.5 563.2344 187.28125Q563.7031 187.04688 564.28125 187.04688Q564.75 187.04688 565.125 187.17188Q565.5 187.29688 565.7656 187.57812Q566.03125 187.84375 566.1719 188.28125Q566.3125 188.71875 566.3125 189.34375L566.3125 193.5L565.21875 193.5L565.21875 189.32812Q565.21875 188.82812 565.0781 188.53125Q564.9375 188.23438 564.65625 188.09375Q564.375 187.95312 563.9531 187.95312Q563.5469 187.95312 563.21875 188.125Q562.8906 188.29688 562.65625 188.59375Q562.4219 188.89062 562.28125 189.28125Q562.15625 189.65625 562.15625 190.09375ZM572.0625 192.42188L572.0625 189.15625Q572.0625 188.78125 571.90625 188.5Q571.7656 188.21875 571.46875 188.07812Q571.1719 187.92188 570.7344 187.92188Q570.3125 187.92188 570.0 188.0625Q569.7031 188.20312 569.53125 188.4375Q569.3594 188.65625 569.3594 188.92188L568.28125 188.92188Q568.28125 188.57812 568.4531 188.25Q568.625 187.90625 568.9531 187.64062Q569.28125 187.35938 569.75 187.20312Q570.21875 187.04688 570.7969 187.04688Q571.4844 187.04688 572.0156 187.28125Q572.5469 187.51562 572.84375 187.98438Q573.15625 188.45312 573.15625 189.15625L573.15625 192.10938Q573.15625 192.4375 573.2031 192.79688Q573.2656 193.14062 573.375 193.40625L573.375 193.5L572.2344 193.5Q572.15625 193.3125 572.1094 193.0Q572.0625 192.6875 572.0625 192.42188ZM572.25 189.65625L572.2656 190.42188L571.1719 190.42188Q570.7031 190.42188 570.34375 190.5Q569.9844 190.5625 569.7344 190.71875Q569.4844 190.85938 569.3594 191.07812Q569.2344 191.29688 569.2344 191.59375Q569.2344 191.89062 569.3594 192.14062Q569.5 192.375 569.7656 192.53125Q570.0469 192.67188 570.4375 192.67188Q570.9375 192.67188 571.3125 192.46875Q571.7031 192.25 571.9219 191.95312Q572.15625 191.64062 572.1719 191.34375L572.6406 191.875Q572.59375 192.10938 572.40625 192.42188Q572.2344 192.71875 571.9219 193.0Q571.625 193.26562 571.2031 193.45312Q570.7969 193.625 570.28125 193.625Q569.6406 193.625 569.15625 193.375Q568.6719 193.10938 568.40625 192.6875Q568.1406 192.26562 568.1406 191.73438Q568.1406 191.21875 568.3281 190.84375Q568.53125 190.45312 568.90625 190.1875Q569.28125 189.92188 569.8125 189.79688Q570.34375 189.65625 571.0 189.65625L572.25 189.65625ZM576.5 184.5L576.5 193.5L575.4219 193.5L575.4219 184.5L576.5 184.5ZM578.0469 190.40625L578.0469 190.26562Q578.0469 189.57812 578.2344 189.0Q578.4375 188.40625 578.8125 187.96875Q579.1875 187.53125 579.71875 187.29688Q580.25 187.04688 580.9219 187.04688Q581.5781 187.04688 582.1094 187.29688Q582.65625 187.53125 583.03125 187.96875Q583.40625 188.40625 583.6094 189.0Q583.8125 189.57812 583.8125 190.26562L583.8125 190.40625Q583.8125 191.07812 583.6094 191.67188Q583.40625 192.25 583.03125 192.6875Q582.65625 193.125 582.125 193.375Q581.59375 193.625 580.9219 193.625Q580.2656 193.625 579.71875 193.375Q579.1875 193.125 578.8125 192.6875Q578.4375 192.25 578.2344 191.67188Q578.0469 191.07812 578.0469 190.40625ZM579.125 190.26562L579.125 190.40625Q579.125 190.875 579.2344 191.29688Q579.34375 191.71875 579.5625 192.04688Q579.7969 192.35938 580.1406 192.54688Q580.4844 192.71875 580.9219 192.71875Q581.375 192.71875 581.7031 192.54688Q582.0469 192.35938 582.2656 192.04688Q582.5 191.71875 582.6094 191.29688Q582.71875 190.875 582.71875 190.40625L582.71875 190.26562Q582.71875 189.79688 582.6094 189.375Q582.5 188.95312 582.2656 188.64062Q582.0469 188.3125 581.7031 188.125Q581.375 187.9375 580.9219 187.9375Q580.46875 187.9375 580.125 188.125Q579.7969 188.3125 579.5625 188.64062Q579.34375 188.95312 579.2344 189.375Q579.125 189.79688 579.125 190.26562ZM585.0469 190.40625L585.0469 190.26562Q585.0469 189.57812 585.2344 189.0Q585.4375 188.40625 585.8125 187.96875Q586.1875 187.53125 586.71875 187.29688Q587.25 187.04688 587.9219 187.04688Q588.5781 187.04688 589.1094 187.29688Q589.65625 187.53125 590.03125 187.96875Q590.40625 188.40625 590.6094 189.0Q590.8125 189.57812 590.8125 190.26562L590.8125 190.40625Q590.8125 191.07812 590.6094 191.67188Q590.40625 192.25 590.03125 192.6875Q589.65625 193.125 589.125 193.375Q588.59375 193.625 587.9219 193.625Q587.2656 193.625 586.71875 193.375Q586.1875 193.125 585.8125 192.6875Q585.4375 192.25 585.2344 191.67188Q585.0469 191.07812 585.0469 190.40625ZM586.125 190.26562L586.125 190.40625Q586.125 190.875 586.2344 191.29688Q586.34375 191.71875 586.5625 192.04688Q586.7969 192.35938 587.1406 192.54688Q587.4844 192.71875 587.9219 192.71875Q588.375 192.71875 588.7031 192.54688Q589.0469 192.35938 589.2656 192.04688Q589.5 191.71875 589.6094 191.29688Q589.71875 190.875 589.71875 190.40625L589.71875 190.26562Q589.71875 189.79688 589.6094 189.375Q589.5 188.95312 589.2656 188.64062Q589.0469 188.3125 588.7031 188.125Q588.375 187.9375 587.9219 187.9375Q587.46875 187.9375 587.125 188.125Q586.7969 188.3125 586.5625 188.64062Q586.34375 188.95312 586.2344 189.375Q586.125 189.79688 586.125 190.26562ZM593.5 184.5L593.5 193.5L592.4219 193.5L592.4219 184.5L593.5 184.5Z" fill-rule="nonzero"/><path stroke="#cccccc" stroke-width="1.0" stroke-linecap="butt" d="M372.0 305.0L547.0 406.0" fill-rule="nonzero"/><path fill="#000000" d="M554.84375 416.96875L555.9375 416.96875L558.7344 423.92188L561.53125 416.96875L562.625 416.96875L559.15625 425.5L558.3125 425.5L554.84375 416.96875ZM554.4844 416.96875L555.4531 416.96875L555.6094 422.17188L555.6094 425.5L554.4844 425.5L554.4844 416.96875ZM562.0156 416.96875L562.9844 416.96875L562.9844 425.5L561.8594 425.5L561.8594 422.17188L562.0156 416.96875ZM566.1094 424.84375L567.875 419.15625L569.03125 419.15625L566.4844 426.48438Q566.40625 426.71875 566.25 426.98438Q566.1094 427.26562 565.8906 427.5Q565.6719 427.75 565.3594 427.90625Q565.0469 428.0625 564.6094 428.0625Q564.4844 428.0625 564.28125 428.01562Q564.0781 427.98438 564.0 427.96875L564.0 427.09375Q564.0469 427.09375 564.1406 427.09375Q564.25 427.10938 564.28125 427.10938Q564.65625 427.10938 564.90625 427.01562Q565.1719 426.92188 565.34375 426.6875Q565.53125 426.46875 565.65625 426.07812L566.1094 424.84375ZM564.8125 419.15625L566.4531 424.07812L566.7344 425.21875L565.96875 425.625L563.625 419.15625L564.8125 419.15625ZM571.40625 420.15625L571.40625 425.5L570.3281 425.5L570.3281 419.15625L571.375 419.15625L571.40625 420.15625ZM573.3906 419.125L573.3906 420.125Q573.25 420.10938 573.125 420.09375Q573.0156 420.07812 572.8594 420.07812Q572.4844 420.07812 572.1875 420.20312Q571.90625 420.3125 571.7031 420.53125Q571.5156 420.73438 571.3906 421.03125Q571.28125 421.32812 571.25 421.67188L570.9375 421.84375Q570.9375 421.26562 571.0469 420.76562Q571.1719 420.26562 571.40625 419.875Q571.65625 419.48438 572.0156 419.26562Q572.3906 419.04688 572.90625 419.04688Q573.03125 419.04688 573.1719 419.07812Q573.3281 419.09375 573.3906 419.125ZM576.8594 424.71875Q577.25 424.71875 577.5781 424.5625Q577.90625 424.40625 578.1094 424.14062Q578.3281 423.85938 578.3594 423.5L579.3906 423.5Q579.3594 424.0625 579.0 424.54688Q578.65625 425.03125 578.09375 425.32812Q577.53125 425.625 576.8594 425.625Q576.15625 425.625 575.625 425.375Q575.09375 425.10938 574.7344 424.67188Q574.3906 424.23438 574.21875 423.67188Q574.0469 423.09375 574.0469 422.45312L574.0469 422.20312Q574.0469 421.5625 574.21875 421.0Q574.3906 420.42188 574.7344 419.98438Q575.09375 419.54688 575.625 419.29688Q576.15625 419.04688 576.8594 419.04688Q577.6094 419.04688 578.15625 419.34375Q578.71875 419.64062 579.03125 420.17188Q579.3594 420.6875 579.3906 421.34375L578.3594 421.34375Q578.3281 420.95312 578.1406 420.64062Q577.9531 420.3125 577.625 420.125Q577.2969 419.9375 576.8594 419.9375Q576.3594 419.9375 576.0156 420.14062Q575.6875 420.32812 575.4844 420.65625Q575.2969 420.98438 575.2031 421.39062Q575.125 421.79688 575.125 422.20312L575.125 422.45312Q575.125 422.875 575.2031 423.28125Q575.2969 423.67188 575.4844 424.0Q575.6875 424.32812 576.0156 424.53125Q576.3594 424.71875 576.8594 424.71875ZM582.9531 425.625Q582.2969 425.625 581.75 425.40625Q581.21875 425.17188 580.8281 424.76562Q580.4531 424.34375 580.25 423.78125Q580.0469 423.21875 580.0469 422.54688L580.0469 422.3125Q580.0469 421.53125 580.2656 420.92188Q580.5 420.3125 580.8906 419.89062Q581.28125 419.46875 581.78125 419.26562Q582.28125 419.04688 582.8125 419.04688Q583.5 419.04688 583.9844 419.28125Q584.4844 419.51562 584.7969 419.9375Q585.125 420.34375 585.2656 420.92188Q585.4219 421.48438 585.4219 422.14062L585.4219 422.64062L580.6875 422.64062L580.6875 421.75L584.34375 421.75L584.34375 421.67188Q584.3125 421.25 584.15625 420.85938Q584.0156 420.45312 583.6875 420.20312Q583.375 419.9375 582.8125 419.9375Q582.4531 419.9375 582.1406 420.09375Q581.8281 420.25 581.59375 420.5625Q581.375 420.85938 581.25 421.29688Q581.1406 421.73438 581.1406 422.3125L581.1406 422.54688Q581.1406 423.0 581.2656 423.40625Q581.3906 423.79688 581.625 424.09375Q581.875 424.39062 582.21875 424.5625Q582.5781 424.73438 583.0156 424.73438Q583.59375 424.73438 583.9844 424.5Q584.3906 424.26562 584.6875 423.875L585.34375 424.39062Q585.1406 424.70312 584.8125 424.98438Q584.5 425.26562 584.03125 425.45312Q583.5781 425.625 582.9531 425.625ZM587.40625 420.51562L587.40625 425.5L586.3281 425.5L586.3281 419.15625L587.3594 419.15625L587.40625 420.51562ZM587.15625 422.09375L586.7031 422.07812Q586.7031 421.42188 586.8906 420.875Q587.0781 420.3125 587.4219 419.90625Q587.7656 419.5 588.2344 419.28125Q588.7031 419.04688 589.28125 419.04688Q589.75 419.04688 590.125 419.17188Q590.5 419.29688 590.7656 419.57812Q591.03125 419.84375 591.1719 420.28125Q591.3125 420.71875 591.3125 421.34375L591.3125 425.5L590.21875 425.5L590.21875 421.32812Q590.21875 420.82812 590.0781 420.53125Q589.9375 420.23438 589.65625 420.09375Q589.375 419.95312 588.9531 419.95312Q588.5469 419.95312 588.21875 420.125Q587.8906 420.29688 587.65625 420.59375Q587.4219 420.89062 587.28125 421.28125Q587.15625 421.65625 587.15625 422.09375Z" fill-rule="nonzero"/><path stroke="#cccccc" stroke-width="1.0" stroke-linecap="butt" d="M372.0 305.0L372.0 507.0" fill-rule="nonzero"/><path fill="#000000" d="M342.64062 538.78125L343.76562 538.78125Q343.67188 539.59375 343.29688 540.2344Q342.92188 540.875 342.23438 541.25Q341.5625 541.625 340.53125 541.625Q339.78125 541.625 339.17188 541.34375Q338.5625 541.0469 338.10938 540.53125Q337.67188 540.0156 337.4375 539.2969Q337.20312 538.5625 337.20312 537.65625L337.20312 536.8125Q337.20312 535.9219 337.4375 535.1875Q337.67188 534.4531 338.125 533.9375Q338.57812 533.40625 339.20312 533.125Q339.84375 532.84375 340.625 532.84375Q341.59375 532.84375 342.26562 533.21875Q342.9375 533.5781 343.29688 534.21875Q343.67188 534.8594 343.76562 535.7031L342.64062 535.7031Q342.5625 535.1094 342.32812 534.6875Q342.10938 534.25 341.70312 534.0156Q341.29688 533.78125 340.625 533.78125Q340.0625 533.78125 339.625 534.0Q339.20312 534.2031 338.90625 534.6094Q338.625 535.0 338.46875 535.5625Q338.32812 536.125 338.32812 536.7969L338.32812 537.65625Q338.32812 538.28125 338.45312 538.84375Q338.59375 539.3906 338.85938 539.8125Q339.125 540.21875 339.54688 540.46875Q339.96875 540.7031 340.53125 540.7031Q341.25 540.7031 341.67188 540.46875Q342.10938 540.2344 342.32812 539.8125Q342.54688 539.3906 342.64062 538.78125ZM349.0625 540.4219L349.0625 537.15625Q349.0625 536.78125 348.90625 536.5Q348.76562 536.21875 348.46875 536.0781Q348.17188 535.9219 347.73438 535.9219Q347.3125 535.9219 347.0 536.0625Q346.70312 536.2031 346.53125 536.4375Q346.35938 536.65625 346.35938 536.9219L345.28125 536.9219Q345.28125 536.5781 345.45312 536.25Q345.625 535.90625 345.95312 535.6406Q346.28125 535.3594 346.75 535.2031Q347.21875 535.0469 347.79688 535.0469Q348.48438 535.0469 349.01562 535.28125Q349.54688 535.5156 349.84375 535.9844Q350.15625 536.4531 350.15625 537.15625L350.15625 540.1094Q350.15625 540.4375 350.20312 540.7969Q350.26562 541.1406 350.375 541.40625L350.375 541.5L349.23438 541.5Q349.15625 541.3125 349.10938 541.0Q349.0625 540.6875 349.0625 540.4219ZM349.25 537.65625L349.26562 538.4219L348.17188 538.4219Q347.70312 538.4219 347.34375 538.5Q346.98438 538.5625 346.73438 538.71875Q346.48438 538.8594 346.35938 539.0781Q346.23438 539.2969 346.23438 539.59375Q346.23438 539.8906 346.35938 540.1406Q346.5 540.375 346.76562 540.53125Q347.04688 540.6719 347.4375 540.6719Q347.9375 540.6719 348.3125 540.46875Q348.70312 540.25 348.92188 539.9531Q349.15625 539.6406 349.17188 539.34375L349.64062 539.875Q349.59375 540.1094 349.40625 540.4219Q349.23438 540.71875 348.92188 541.0Q348.625 541.2656 348.20312 541.4531Q347.79688 541.625 347.28125 541.625Q346.64062 541.625 346.15625 541.375Q345.67188 541.1094 345.40625 540.6875Q345.14062 540.2656 345.14062 539.7344Q345.14062 539.21875 345.32812 538.84375Q345.53125 538.4531 345.90625 538.1875Q346.28125 537.9219 346.8125 537.7969Q347.34375 537.65625 348.0 537.65625L349.25 537.65625ZM353.40625 536.15625L353.40625 541.5L352.32812 541.5L352.32812 535.15625L353.375 535.15625L353.40625 536.15625ZM355.39062 535.125L355.39062 536.125Q355.25 536.1094 355.125 536.09375Q355.01562 536.0781 354.85938 536.0781Q354.48438 536.0781 354.1875 536.2031Q353.90625 536.3125 353.70312 536.53125Q353.51562 536.7344 353.39062 537.03125Q353.28125 537.3281 353.25 537.6719L352.9375 537.84375Q352.9375 537.2656 353.04688 536.7656Q353.17188 536.2656 353.40625 535.875Q353.65625 535.4844 354.01562 535.2656Q354.39062 535.0469 354.90625 535.0469Q355.03125 535.0469 355.17188 535.0781Q355.32812 535.09375 355.39062 535.125ZM358.10938 540.84375L359.875 535.15625L361.03125 535.15625L358.48438 542.4844Q358.40625 542.71875 358.25 542.9844Q358.10938 543.2656 357.89062 543.5Q357.67188 543.75 357.35938 543.90625Q357.04688 544.0625 356.60938 544.0625Q356.48438 544.0625 356.28125 544.0156Q356.07812 543.9844 356.0 543.96875L356.0 543.09375Q356.04688 543.09375 356.14062 543.09375Q356.25 543.1094 356.28125 543.1094Q356.65625 543.1094 356.90625 543.0156Q357.17188 542.9219 357.34375 542.6875Q357.53125 542.46875 357.65625 542.0781L358.10938 540.84375ZM356.8125 535.15625L358.45312 540.0781L358.73438 541.21875L357.96875 541.625L355.625 535.15625L356.8125 535.15625ZM362.04688 538.40625L362.04688 538.2656Q362.04688 537.5781 362.23438 537.0Q362.4375 536.40625 362.8125 535.96875Q363.1875 535.53125 363.71875 535.2969Q364.25 535.0469 364.92188 535.0469Q365.57812 535.0469 366.10938 535.2969Q366.65625 535.53125 367.03125 535.96875Q367.40625 536.40625 367.60938 537.0Q367.8125 537.5781 367.8125 538.2656L367.8125 538.40625Q367.8125 539.0781 367.60938 539.6719Q367.40625 540.25 367.03125 540.6875Q366.65625 541.125 366.125 541.375Q365.59375 541.625 364.92188 541.625Q364.26562 541.625 363.71875 541.375Q363.1875 541.125 362.8125 540.6875Q362.4375 540.25 362.23438 539.6719Q362.04688 539.0781 362.04688 538.40625ZM363.125 538.2656L363.125 538.40625Q363.125 538.875 363.23438 539.2969Q363.34375 539.71875 363.5625 540.0469Q363.79688 540.3594 364.14062 540.5469Q364.48438 540.71875 364.92188 540.71875Q365.375 540.71875 365.70312 540.5469Q366.04688 540.3594 366.26562 540.0469Q366.5 539.71875 366.60938 539.2969Q366.71875 538.875 366.71875 538.40625L366.71875 538.2656Q366.71875 537.7969 366.60938 537.375Q366.5 536.9531 366.26562 536.6406Q366.04688 536.3125 365.70312 536.125Q365.375 535.9375 364.92188 535.9375Q364.46875 535.9375 364.125 536.125Q363.79688 536.3125 363.5625 536.6406Q363.34375 536.9531 363.23438 537.375Q363.125 537.7969 363.125 538.2656ZM370.40625 536.375L370.40625 543.9375L369.32812 543.9375L369.32812 535.15625L370.3125 535.15625L370.40625 536.375ZM374.6875 538.28125L374.6875 538.40625Q374.6875 539.09375 374.51562 539.6875Q374.35938 540.2656 374.04688 540.7031Q373.73438 541.1406 373.26562 541.3906Q372.8125 541.625 372.21875 541.625Q371.625 541.625 371.15625 541.4219Q370.6875 541.21875 370.35938 540.84375Q370.04688 540.4531 369.85938 539.9219Q369.67188 539.3906 369.59375 538.71875L369.59375 538.0625Q369.67188 537.3594 369.85938 536.8125Q370.04688 536.25 370.35938 535.8594Q370.6875 535.4531 371.14062 535.25Q371.60938 535.0469 372.20312 535.0469Q372.79688 535.0469 373.26562 535.28125Q373.73438 535.5 374.04688 535.9375Q374.35938 536.3594 374.51562 536.9531Q374.6875 537.5469 374.6875 538.28125ZM373.59375 538.40625L373.59375 538.28125Q373.59375 537.7969 373.48438 537.3906Q373.39062 536.96875 373.1875 536.65625Q372.98438 536.3281 372.65625 536.1406Q372.32812 535.9531 371.89062 535.9531Q371.48438 535.9531 371.17188 536.09375Q370.875 536.2344 370.65625 536.4844Q370.45312 536.71875 370.3125 537.0156Q370.1875 537.3125 370.125 537.6406L370.125 539.15625Q370.23438 539.5625 370.4375 539.9219Q370.65625 540.28125 371.0 540.5Q371.35938 540.71875 371.90625 540.71875Q372.34375 540.71875 372.65625 540.5469Q372.98438 540.3594 373.1875 540.0469Q373.39062 539.71875 373.48438 539.2969Q373.59375 538.875 373.59375 538.40625ZM377.40625 532.5L377.40625 541.5L376.32812 541.5L376.32812 532.5L377.40625 532.5ZM377.15625 538.09375L376.70312 538.0781Q376.70312 537.4219 376.89062 536.875Q377.07812 536.3125 377.42188 535.90625Q377.76562 535.5 378.23438 535.28125Q378.70312 535.0469 379.28125 535.0469Q379.75 535.0469 380.125 535.1719Q380.5 535.2969 380.76562 535.5781Q381.03125 535.84375 381.17188 536.28125Q381.3125 536.71875 381.3125 537.34375L381.3125 541.5L380.21875 541.5L380.21875 537.3281Q380.21875 536.8281 380.07812 536.53125Q379.9375 536.2344 379.65625 536.09375Q379.375 535.9531 378.95312 535.9531Q378.54688 535.9531 378.21875 536.125Q377.89062 536.2969 377.65625 536.59375Q377.42188 536.8906 377.28125 537.28125Q377.15625 537.65625 377.15625 538.09375ZM385.10938 540.84375L386.875 535.15625L388.03125 535.15625L385.48438 542.4844Q385.40625 542.71875 385.25 542.9844Q385.10938 543.2656 384.89062 543.5Q384.67188 543.75 384.35938 543.90625Q384.04688 544.0625 383.60938 544.0625Q383.48438 544.0625 383.28125 544.0156Q383.07812 543.9844 383.0 543.96875L383.0 543.09375Q383.04688 543.09375 383.14062 543.09375Q383.25 543.1094 383.28125 543.1094Q383.65625 543.1094 383.90625 543.0156Q384.17188 542.9219 384.34375 542.6875Q384.53125 542.46875 384.65625 542.0781L385.10938 540.84375ZM383.8125 535.15625L385.45312 540.0781L385.73438 541.21875L384.96875 541.625L382.625 535.15625L383.8125 535.15625ZM390.5 532.5L390.5 541.5L389.42188 541.5L389.42188 532.5L390.5 532.5ZM393.5 532.5L393.5 541.5L392.42188 541.5L392.42188 532.5L393.5 532.5ZM397.95312 541.625Q397.29688 541.625 396.75 541.40625Q396.21875 541.1719 395.82812 540.7656Q395.45312 540.34375 395.25 539.78125Q395.04688 539.21875 395.04688 538.5469L395.04688 538.3125Q395.04688 537.53125 395.26562 536.9219Q395.5 536.3125 395.89062 535.8906Q396.28125 535.46875 396.78125 535.2656Q397.28125 535.0469 397.8125 535.0469Q398.5 535.0469 398.98438 535.28125Q399.48438 535.5156 399.79688 535.9375Q400.125 536.34375 400.26562 536.9219Q400.42188 537.4844 400.42188 538.1406L400.42188 538.6406L395.6875 538.6406L395.6875 537.75L399.34375 537.75L399.34375 537.6719Q399.3125 537.25 399.15625 536.8594Q399.01562 536.4531 398.6875 536.2031Q398.375 535.9375 397.8125 535.9375Q397.45312 535.9375 397.14062 536.09375Q396.82812 536.25 396.59375 536.5625Q396.375 536.8594 396.25 537.2969Q396.14062 537.7344 396.14062 538.3125L396.14062 538.5469Q396.14062 539.0 396.26562 539.40625Q396.39062 539.7969 396.625 540.09375Q396.875 540.3906 397.21875 540.5625Q397.57812 540.7344 398.01562 540.7344Q398.59375 540.7344 398.98438 540.5Q399.39062 540.2656 399.6875 539.875L400.34375 540.3906Q400.14062 540.7031 399.8125 540.9844Q399.5 541.2656 399.03125 541.4531Q398.57812 541.625 397.95312 541.625ZM402.40625 536.5156L402.40625 541.5L401.32812 541.5L401.32812 535.15625L402.35938 535.15625L402.40625 536.5156ZM402.15625 538.09375L401.70312 538.0781Q401.70312 537.4219 401.89062 536.875Q402.07812 536.3125 402.42188 535.90625Q402.76562 535.5 403.23438 535.28125Q403.70312 535.0469 404.28125 535.0469Q404.75 535.0469 405.125 535.1719Q405.5 535.2969 405.76562 535.5781Q406.03125 535.84375 406.17188 536.28125Q406.3125 536.71875 406.3125 537.34375L406.3125 541.5L405.21875 541.5L405.21875 537.3281Q405.21875 536.8281 405.07812 536.53125Q404.9375 536.2344 404.65625 536.09375Q404.375 535.9531 403.95312 535.9531Q403.54688 535.9531 403.21875 536.125Q402.89062 536.2969 402.65625 536.59375Q402.42188 536.8906 402.28125 537.28125Q402.15625 537.65625 402.15625 538.09375Z" fill-rule="nonzero"/><path stroke="#cccccc" stroke-width="1.0" stroke-linecap="butt" d="M372.0 305.0L197.0 406.0" fill-rule="nonzero"/><path fill="#000000" d="M143.79688 421.25L143.79688 424.375Q143.64062 424.60938 143.29688 424.90625Q142.95312 425.1875 142.34375 425.40625Q141.73438 425.625 140.78125 425.625Q140.0 425.625 139.34375 425.35938Q138.6875 425.07812 138.20312 424.54688Q137.73438 424.01562 137.46875 423.26562Q137.21875 422.51562 137.21875 421.5625L137.21875 420.90625Q137.21875 419.9375 137.4375 419.1875Q137.67188 418.4375 138.10938 417.92188Q138.54688 417.39062 139.1875 417.125Q139.82812 416.84375 140.65625 416.84375Q141.625 416.84375 142.28125 417.1875Q142.95312 417.53125 143.3125 418.125Q143.6875 418.70312 143.79688 419.46875L142.67188 419.46875Q142.59375 419.0 142.35938 418.625Q142.14062 418.23438 141.71875 418.01562Q141.3125 417.78125 140.65625 417.78125Q140.0625 417.78125 139.625 418.0Q139.1875 418.20312 138.90625 418.60938Q138.625 419.01562 138.48438 419.59375Q138.35938 420.17188 138.35938 420.89062L138.35938 421.5625Q138.35938 422.29688 138.53125 422.875Q138.70312 423.45312 139.01562 423.875Q139.34375 424.28125 139.78125 424.5Q140.23438 424.70312 140.78125 424.70312Q141.39062 424.70312 141.76562 424.59375Q142.14062 424.48438 142.34375 424.34375Q142.5625 424.20312 142.67188 424.07812L142.67188 422.17188L140.70312 422.17188L140.70312 421.25L143.79688 421.25ZM147.95312 425.625Q147.29688 425.625 146.75 425.40625Q146.21875 425.17188 145.82812 424.76562Q145.45312 424.34375 145.25 423.78125Q145.04688 423.21875 145.04688 422.54688L145.04688 422.3125Q145.04688 421.53125 145.26562 420.92188Q145.5 420.3125 145.89062 419.89062Q146.28125 419.46875 146.78125 419.26562Q147.28125 419.04688 147.8125 419.04688Q148.5 419.04688 148.98438 419.28125Q149.48438 419.51562 149.79688 419.9375Q150.125 420.34375 150.26562 420.92188Q150.42188 421.48438 150.42188 422.14062L150.42188 422.64062L145.6875 422.64062L145.6875 421.75L149.34375 421.75L149.34375 421.67188Q149.3125 421.25 149.15625 420.85938Q149.01562 420.45312 148.6875 420.20312Q148.375 419.9375 147.8125 419.9375Q147.45312 419.9375 147.14062 420.09375Q146.82812 420.25 146.59375 420.5625Q146.375 420.85938 146.25 421.29688Q146.14062 421.73438 146.14062 422.3125L146.14062 422.54688Q146.14062 423.0 146.26562 423.40625Q146.39062 423.79688 146.625 424.09375Q146.875 424.39062 147.21875 424.5625Q147.57812 424.73438 148.01562 424.73438Q148.59375 424.73438 148.98438 424.5Q149.39062 424.26562 149.6875 423.875L150.34375 424.39062Q150.14062 424.70312 149.8125 424.98438Q149.5 425.26562 149.03125 425.45312Q148.57812 425.625 147.95312 425.625ZM152.40625 420.15625L152.40625 425.5L151.32812 425.5L151.32812 419.15625L152.375 419.15625L152.40625 420.15625ZM154.39062 419.125L154.39062 420.125Q154.25 420.10938 154.125 420.09375Q154.01562 420.07812 153.85938 420.07812Q153.48438 420.07812 153.1875 420.20312Q152.90625 420.3125 152.70312 420.53125Q152.51562 420.73438 152.39062 421.03125Q152.28125 421.32812 152.25 421.67188L151.9375 421.84375Q151.9375 421.26562 152.04688 420.76562Q152.17188 420.26562 152.40625 419.875Q152.65625 419.48438 153.01562 419.26562Q153.39062 419.04688 153.90625 419.04688Q154.03125 419.04688 154.17188 419.07812Q154.32812 419.09375 154.39062 419.125ZM156.40625 420.42188L156.40625 425.5L155.3125 425.5L155.3125 419.15625L156.34375 419.15625L156.40625 420.42188ZM156.1875 422.09375L155.67188 422.07812Q155.6875 421.42188 155.84375 420.875Q156.01562 420.3125 156.32812 419.90625Q156.65625 419.5 157.14062 419.28125Q157.625 419.04688 158.25 419.04688Q158.70312 419.04688 159.07812 419.17188Q159.45312 419.29688 159.71875 419.5625Q160.0 419.82812 160.14062 420.25Q160.29688 420.67188 160.29688 421.28125L160.29688 425.5L159.21875 425.5L159.21875 421.32812Q159.21875 420.82812 159.04688 420.53125Q158.89062 420.23438 158.57812 420.09375Q158.28125 419.95312 157.85938 419.95312Q157.39062 419.95312 157.0625 420.125Q156.73438 420.29688 156.54688 420.59375Q156.35938 420.89062 156.26562 421.28125Q156.1875 421.65625 156.1875 422.09375ZM160.29688 421.48438L159.5625 421.71875Q159.5625 421.1875 159.73438 420.71875Q159.90625 420.23438 160.21875 419.85938Q160.54688 419.48438 161.01562 419.26562Q161.48438 419.04688 162.07812 419.04688Q162.59375 419.04688 162.98438 419.1875Q163.39062 419.3125 163.65625 419.59375Q163.92188 419.875 164.0625 420.3125Q164.20312 420.73438 164.20312 421.32812L164.20312 425.5L163.125 425.5L163.125 421.32812Q163.125 420.78125 162.95312 420.5Q162.78125 420.20312 162.48438 420.07812Q162.1875 419.95312 161.76562 419.95312Q161.40625 419.95312 161.125 420.07812Q160.85938 420.20312 160.67188 420.42188Q160.48438 420.625 160.39062 420.90625Q160.29688 421.1875 160.29688 421.48438ZM170.0625 424.42188L170.0625 421.15625Q170.0625 420.78125 169.90625 420.5Q169.76562 420.21875 169.46875 420.07812Q169.17188 419.92188 168.73438 419.92188Q168.3125 419.92188 168.0 420.0625Q167.70312 420.20312 167.53125 420.4375Q167.35938 420.65625 167.35938 420.92188L166.28125 420.92188Q166.28125 420.57812 166.45312 420.25Q166.625 419.90625 166.95312 419.64062Q167.28125 419.35938 167.75 419.20312Q168.21875 419.04688 168.79688 419.04688Q169.48438 419.04688 170.01562 419.28125Q170.54688 419.51562 170.84375 419.98438Q171.15625 420.45312 171.15625 421.15625L171.15625 424.10938Q171.15625 424.4375 171.20312 424.79688Q171.26562 425.14062 171.375 425.40625L171.375 425.5L170.23438 425.5Q170.15625 425.3125 170.10938 425.0Q170.0625 424.6875 170.0625 424.42188ZM170.25 421.65625L170.26562 422.42188L169.17188 422.42188Q168.70312 422.42188 168.34375 422.5Q167.98438 422.5625 167.73438 422.71875Q167.48438 422.85938 167.35938 423.07812Q167.23438 423.29688 167.23438 423.59375Q167.23438 423.89062 167.35938 424.14062Q167.5 424.375 167.76562 424.53125Q168.04688 424.67188 168.4375 424.67188Q168.9375 424.67188 169.3125 424.46875Q169.70312 424.25 169.92188 423.95312Q170.15625 423.64062 170.17188 423.34375L170.64062 423.875Q170.59375 424.10938 170.40625 424.42188Q170.23438 424.71875 169.92188 425.0Q169.625 425.26562 169.20312 425.45312Q168.79688 425.625 168.28125 425.625Q167.64062 425.625 167.15625 425.375Q166.67188 425.10938 166.40625 424.6875Q166.14062 424.26562 166.14062 423.73438Q166.14062 423.21875 166.32812 422.84375Q166.53125 422.45312 166.90625 422.1875Q167.28125 421.92188 167.8125 421.79688Q168.34375 421.65625 169.0 421.65625L170.25 421.65625ZM175.85938 424.71875Q176.25 424.71875 176.57812 424.5625Q176.90625 424.40625 177.10938 424.14062Q177.32812 423.85938 177.35938 423.5L178.39062 423.5Q178.35938 424.0625 178.0 424.54688Q177.65625 425.03125 177.09375 425.32812Q176.53125 425.625 175.85938 425.625Q175.15625 425.625 174.625 425.375Q174.09375 425.10938 173.73438 424.67188Q173.39062 424.23438 173.21875 423.67188Q173.04688 423.09375 173.04688 422.45312L173.04688 422.20312Q173.04688 421.5625 173.21875 421.0Q173.39062 420.42188 173.73438 419.98438Q174.09375 419.54688 174.625 419.29688Q175.15625 419.04688 175.85938 419.04688Q176.60938 419.04688 177.15625 419.34375Q177.71875 419.64062 178.03125 420.17188Q178.35938 420.6875 178.39062 421.34375L177.35938 421.34375Q177.32812 420.95312 177.14062 420.64062Q176.95312 420.3125 176.625 420.125Q176.29688 419.9375 175.85938 419.9375Q175.35938 419.9375 175.01562 420.14062Q174.6875 420.32812 174.48438 420.65625Q174.29688 420.98438 174.20312 421.39062Q174.125 421.79688 174.125 422.20312L174.125 422.45312Q174.125 422.875 174.20312 423.28125Q174.29688 423.67188 174.48438 424.0Q174.6875 424.32812 175.01562 424.53125Q175.35938 424.71875 175.85938 424.71875ZM180.40625 420.15625L180.40625 425.5L179.32812 425.5L179.32812 419.15625L180.375 419.15625L180.40625 420.15625ZM182.39062 419.125L182.39062 420.125Q182.25 420.10938 182.125 420.09375Q182.01562 420.07812 181.85938 420.07812Q181.48438 420.07812 181.1875 420.20312Q180.90625 420.3125 180.70312 420.53125Q180.51562 420.73438 180.39062 421.03125Q180.28125 421.32812 180.25 421.67188L179.9375 421.84375Q179.9375 421.26562 180.04688 420.76562Q180.17188 420.26562 180.40625 419.875Q180.65625 419.48438 181.01562 419.26562Q181.39062 419.04688 181.90625 419.04688Q182.03125 419.04688 182.17188 419.07812Q182.32812 419.09375 182.39062 419.125ZM185.95312 425.625Q185.29688 425.625 184.75 425.40625Q184.21875 425.17188 183.82812 424.76562Q183.45312 424.34375 183.25 423.78125Q183.04688 423.21875 183.04688 422.54688L183.04688 422.3125Q183.04688 421.53125 183.26562 420.92188Q183.5 420.3125 183.89062 419.89062Q184.28125 419.46875 184.78125 419.26562Q185.28125 419.04688 185.8125 419.04688Q186.5 419.04688 186.98438 419.28125Q187.48438 419.51562 187.79688 419.9375Q188.125 420.34375 188.26562 420.92188Q188.42188 421.48438 188.42188 422.14062L188.42188 422.64062L183.6875 422.64062L183.6875 421.75L187.34375 421.75L187.34375 421.67188Q187.3125 421.25 187.15625 420.85938Q187.01562 420.45312 186.6875 420.20312Q186.375 419.9375 185.8125 419.9375Q185.45312 419.9375 185.14062 420.09375Q184.82812 420.25 184.59375 420.5625Q184.375 420.85938 184.25 421.29688Q184.14062 421.73438 184.14062 422.3125L184.14062 422.54688Q184.14062 423.0 184.26562 423.40625Q184.39062 423.79688 184.625 424.09375Q184.875 424.39062 185.21875 424.5625Q185.57812 424.73438 186.01562 424.73438Q186.59375 424.73438 186.98438 424.5Q187.39062 424.26562 187.6875 423.875L188.34375 424.39062Q188.14062 424.70312 187.8125 424.98438Q187.5 425.26562 187.03125 425.45312Q186.57812 425.625 185.95312 425.625ZM190.40625 420.51562L190.40625 425.5L189.32812 425.5L189.32812 419.15625L190.35938 419.15625L190.40625 420.51562ZM190.15625 422.09375L189.70312 422.07812Q189.70312 421.42188 189.89062 420.875Q190.07812 420.3125 190.42188 419.90625Q190.76562 419.5 191.23438 419.28125Q191.70312 419.04688 192.28125 419.04688Q192.75 419.04688 193.125 419.17188Q193.5 419.29688 193.76562 419.57812Q194.03125 419.84375 194.17188 420.28125Q194.3125 420.71875 194.3125 421.34375L194.3125 425.5L193.21875 425.5L193.21875 421.32812Q193.21875 420.82812 193.07812 420.53125Q192.9375 420.23438 192.65625 420.09375Q192.375 419.95312 191.95312 419.95312Q191.54688 419.95312 191.21875 420.125Q190.89062 420.29688 190.65625 420.59375Q190.42188 420.89062 190.28125 421.28125Q190.15625 421.65625 190.15625 422.09375ZM202.53125 421.51562L200.375 421.51562L200.35938 420.59375L202.32812 420.59375Q202.8125 420.59375 203.17188 420.4375Q203.53125 420.26562 203.73438 419.96875Q203.9375 419.65625 203.9375 419.23438Q203.9375 418.76562 203.75 418.46875Q203.57812 418.17188 203.20312 418.03125Q202.84375 417.89062 202.28125 417.89062L200.625 417.89062L200.625 425.5L199.48438 425.5L199.48438 416.96875L202.28125 416.96875Q202.9375 416.96875 203.45312 417.10938Q203.96875 417.23438 204.32812 417.51562Q204.6875 417.78125 204.875 418.21875Q205.0625 418.64062 205.0625 419.23438Q205.0625 419.76562 204.79688 420.20312Q204.53125 420.625 204.04688 420.89062Q203.57812 421.15625 202.9375 421.23438L202.53125 421.51562ZM202.48438 425.5L199.92188 425.5L200.5625 424.57812L202.48438 424.57812Q203.01562 424.57812 203.39062 424.39062Q203.78125 424.20312 203.96875 423.85938Q204.17188 423.51562 204.17188 423.04688Q204.17188 422.57812 204.0 422.23438Q203.82812 421.89062 203.46875 421.70312Q203.10938 421.51562 202.53125 421.51562L200.92188 421.51562L200.9375 420.59375L203.14062 420.59375L203.375 420.92188Q203.98438 420.98438 204.40625 421.28125Q204.84375 421.57812 205.0625 422.03125Q205.29688 422.48438 205.29688 423.03125Q205.29688 423.82812 204.9375 424.39062Q204.59375 424.9375 203.95312 425.21875Q203.32812 425.5 202.48438 425.5Z" fill-rule="nonzero"/><path stroke="#cccccc" stroke-width="1.0" stroke-linecap="butt" d="M372.0 305.0L197.0 204.0" fill-rule="nonzero"/><path fill="#000000" d="M153.03125 191.34375Q153.03125 191.04688 152.9375 190.8125Q152.85938 190.57812 152.625 190.39062Q152.40625 190.20312 152.0 190.03125Q151.60938 189.85938 151.01562 189.6875Q150.375 189.5 149.85938 189.28125Q149.35938 189.04688 148.98438 188.75Q148.625 188.4375 148.4375 188.0625Q148.25 187.67188 148.25 187.17188Q148.25 186.67188 148.45312 186.25Q148.65625 185.82812 149.03125 185.51562Q149.42188 185.20312 149.95312 185.03125Q150.48438 184.84375 151.14062 184.84375Q152.10938 184.84375 152.78125 185.21875Q153.45312 185.57812 153.79688 186.17188Q154.15625 186.76562 154.15625 187.42188L153.03125 187.42188Q153.03125 186.95312 152.8125 186.57812Q152.60938 186.20312 152.1875 186.0Q151.78125 185.78125 151.14062 185.78125Q150.54688 185.78125 150.14062 185.96875Q149.75 186.14062 149.5625 186.45312Q149.375 186.76562 149.375 187.15625Q149.375 187.42188 149.48438 187.65625Q149.60938 187.875 149.84375 188.0625Q150.09375 188.25 150.46875 188.40625Q150.84375 188.5625 151.375 188.70312Q152.09375 188.90625 152.625 189.17188Q153.15625 189.42188 153.5 189.73438Q153.84375 190.04688 154.0 190.4375Q154.17188 190.82812 154.17188 191.32812Q154.17188 191.85938 153.95312 192.28125Q153.75 192.70312 153.35938 193.0Q152.96875 193.29688 152.42188 193.46875Q151.875 193.625 151.20312 193.625Q150.60938 193.625 150.03125 193.45312Q149.46875 193.28125 149.0 192.95312Q148.53125 192.625 148.25 192.15625Q147.96875 191.67188 147.96875 191.03125L149.09375 191.03125Q149.09375 191.46875 149.26562 191.78125Q149.4375 192.09375 149.73438 192.29688Q150.03125 192.5 150.40625 192.60938Q150.78125 192.70312 151.20312 192.70312Q151.79688 192.70312 152.20312 192.54688Q152.60938 192.375 152.8125 192.07812Q153.03125 191.76562 153.03125 191.34375ZM155.04688 190.40625L155.04688 190.26562Q155.04688 189.57812 155.23438 189.0Q155.4375 188.40625 155.8125 187.96875Q156.1875 187.53125 156.71875 187.29688Q157.25 187.04688 157.92188 187.04688Q158.57812 187.04688 159.10938 187.29688Q159.65625 187.53125 160.03125 187.96875Q160.40625 188.40625 160.60938 189.0Q160.8125 189.57812 160.8125 190.26562L160.8125 190.40625Q160.8125 191.07812 160.60938 191.67188Q160.40625 192.25 160.03125 192.6875Q159.65625 193.125 159.125 193.375Q158.59375 193.625 157.92188 193.625Q157.26562 193.625 156.71875 193.375Q156.1875 193.125 155.8125 192.6875Q155.4375 192.25 155.23438 191.67188Q155.04688 191.07812 155.04688 190.40625ZM156.125 190.26562L156.125 190.40625Q156.125 190.875 156.23438 191.29688Q156.34375 191.71875 156.5625 192.04688Q156.79688 192.35938 157.14062 192.54688Q157.48438 192.71875 157.92188 192.71875Q158.375 192.71875 158.70312 192.54688Q159.04688 192.35938 159.26562 192.04688Q159.5 191.71875 159.60938 191.29688Q159.71875 190.875 159.71875 190.40625L159.71875 190.26562Q159.71875 189.79688 159.60938 189.375Q159.5 188.95312 159.26562 188.64062Q159.04688 188.3125 158.70312 188.125Q158.375 187.9375 157.92188 187.9375Q157.46875 187.9375 157.125 188.125Q156.79688 188.3125 156.5625 188.64062Q156.34375 188.95312 156.23438 189.375Q156.125 189.79688 156.125 190.26562ZM163.40625 188.51562L163.40625 193.5L162.32812 193.5L162.32812 187.15625L163.35938 187.15625L163.40625 188.51562ZM163.15625 190.09375L162.70312 190.07812Q162.70312 189.42188 162.89062 188.875Q163.07812 188.3125 163.42188 187.90625Q163.76562 187.5 164.23438 187.28125Q164.70312 187.04688 165.28125 187.04688Q165.75 187.04688 166.125 187.17188Q166.5 187.29688 166.76562 187.57812Q167.03125 187.84375 167.17188 188.28125Q167.3125 188.71875 167.3125 189.34375L167.3125 193.5L166.21875 193.5L166.21875 189.32812Q166.21875 188.82812 166.07812 188.53125Q165.9375 188.23438 165.65625 188.09375Q165.375 187.95312 164.95312 187.95312Q164.54688 187.95312 164.21875 188.125Q163.89062 188.29688 163.65625 188.59375Q163.42188 188.89062 163.28125 189.28125Q163.15625 189.65625 163.15625 190.09375ZM173.01562 191.8125Q173.01562 191.57812 172.90625 191.375Q172.8125 191.17188 172.5 191.01562Q172.1875 190.84375 171.5625 190.71875Q171.03125 190.60938 170.60938 190.46875Q170.1875 190.3125 169.89062 190.09375Q169.59375 189.875 169.4375 189.57812Q169.28125 189.28125 169.28125 188.89062Q169.28125 188.51562 169.4375 188.1875Q169.60938 187.84375 169.90625 187.59375Q170.21875 187.32812 170.65625 187.1875Q171.09375 187.04688 171.625 187.04688Q172.39062 187.04688 172.92188 187.3125Q173.46875 187.57812 173.75 188.03125Q174.03125 188.48438 174.03125 189.01562L172.95312 189.01562Q172.95312 188.76562 172.79688 188.51562Q172.64062 188.26562 172.34375 188.10938Q172.04688 187.9375 171.625 187.9375Q171.17188 187.9375 170.89062 188.07812Q170.60938 188.20312 170.48438 188.42188Q170.35938 188.625 170.35938 188.85938Q170.35938 189.04688 170.42188 189.1875Q170.48438 189.3125 170.64062 189.4375Q170.79688 189.54688 171.07812 189.65625Q171.375 189.75 171.82812 189.84375Q172.60938 190.01562 173.10938 190.26562Q173.60938 190.51562 173.85938 190.875Q174.10938 191.21875 174.10938 191.73438Q174.10938 192.15625 173.92188 192.5Q173.75 192.84375 173.42188 193.09375Q173.10938 193.34375 172.65625 193.48438Q172.20312 193.625 171.65625 193.625Q170.8125 193.625 170.23438 193.32812Q169.65625 193.01562 169.35938 192.54688Q169.0625 192.0625 169.0625 191.54688L170.14062 191.54688Q170.17188 191.98438 170.40625 192.25Q170.64062 192.51562 170.96875 192.625Q171.3125 192.71875 171.65625 192.71875Q172.09375 192.71875 172.39062 192.60938Q172.70312 192.48438 172.85938 192.28125Q173.01562 192.07812 173.01562 191.8125ZM177.98438 187.15625L177.98438 187.98438L174.54688 187.98438L174.54688 187.15625L177.98438 187.15625ZM175.71875 185.625L176.79688 185.625L176.79688 191.92188Q176.79688 192.25 176.89062 192.42188Q177.0 192.57812 177.15625 192.64062Q177.3125 192.6875 177.5 192.6875Q177.625 192.6875 177.76562 192.65625Q177.92188 192.625 178.0 192.60938L178.01562 193.5Q177.875 193.54688 177.67188 193.57812Q177.46875 193.625 177.17188 193.625Q176.78125 193.625 176.4375 193.46875Q176.10938 193.29688 175.90625 192.9375Q175.71875 192.5625 175.71875 191.92188L175.71875 185.625ZM180.5 187.15625L180.5 193.5L179.42188 193.5L179.42188 187.15625L180.5 187.15625ZM179.32812 185.48438Q179.32812 185.21875 179.48438 185.03125Q179.65625 184.84375 179.96875 184.84375Q180.28125 184.84375 180.4375 185.03125Q180.60938 185.21875 180.60938 185.48438Q180.60938 185.73438 180.4375 185.92188Q180.28125 186.09375 179.96875 186.09375Q179.65625 186.09375 179.48438 185.92188Q179.32812 185.73438 179.32812 185.48438ZM186.4375 187.15625L187.42188 187.15625L187.42188 193.35938Q187.42188 194.20312 187.07812 194.79688Q186.73438 195.39062 186.125 195.6875Q185.53125 196.0 184.73438 196.0Q184.40625 196.0 183.95312 195.89062Q183.51562 195.79688 183.09375 195.54688Q182.67188 195.3125 182.39062 194.90625L182.95312 194.25Q183.35938 194.73438 183.78125 194.92188Q184.21875 195.10938 184.65625 195.10938Q185.17188 195.10938 185.54688 194.90625Q185.92188 194.71875 186.125 194.34375Q186.32812 193.96875 186.32812 193.42188L186.32812 188.54688L186.4375 187.15625ZM182.0625 190.40625L182.0625 190.28125Q182.0625 189.54688 182.23438 188.95312Q182.42188 188.35938 182.73438 187.9375Q183.0625 187.5 183.51562 187.28125Q183.98438 187.04688 184.57812 187.04688Q185.17188 187.04688 185.60938 187.25Q186.0625 187.45312 186.375 187.85938Q186.6875 188.25 186.875 188.8125Q187.0625 189.35938 187.125 190.0625L187.125 190.60938Q187.0625 191.29688 186.875 191.85938Q186.6875 192.42188 186.375 192.8125Q186.0625 193.20312 185.60938 193.42188Q185.15625 193.625 184.5625 193.625Q183.98438 193.625 183.53125 193.39062Q183.07812 193.14062 182.75 192.70312Q182.42188 192.26562 182.23438 191.6875Q182.0625 191.09375 182.0625 190.40625ZM183.15625 190.28125L183.15625 190.40625Q183.15625 190.875 183.25 191.29688Q183.34375 191.70312 183.54688 192.03125Q183.75 192.34375 184.0625 192.53125Q184.39062 192.70312 184.82812 192.70312Q185.35938 192.70312 185.70312 192.46875Q186.0625 192.23438 186.26562 191.85938Q186.48438 191.48438 186.59375 191.04688L186.59375 189.64062Q186.53125 189.3125 186.39062 189.01562Q186.26562 188.71875 186.0625 188.48438Q185.85938 188.23438 185.54688 188.09375Q185.25 187.95312 184.82812 187.95312Q184.39062 187.95312 184.0625 188.14062Q183.75 188.32812 183.54688 188.65625Q183.34375 188.96875 183.25 189.39062Q183.15625 189.79688 183.15625 190.28125ZM191.95312 193.625Q191.29688 193.625 190.75 193.40625Q190.21875 193.17188 189.82812 192.76562Q189.45312 192.34375 189.25 191.78125Q189.04688 191.21875 189.04688 190.54688L189.04688 190.3125Q189.04688 189.53125 189.26562 188.92188Q189.5 188.3125 189.89062 187.89062Q190.28125 187.46875 190.78125 187.26562Q191.28125 187.04688 191.8125 187.04688Q192.5 187.04688 192.98438 187.28125Q193.48438 187.51562 193.79688 187.9375Q194.125 188.34375 194.26562 188.92188Q194.42188 189.48438 194.42188 190.14062L194.42188 190.64062L189.6875 190.64062L189.6875 189.75L193.34375 189.75L193.34375 189.67188Q193.3125 189.25 193.15625 188.85938Q193.01562 188.45312 192.6875 188.20312Q192.375 187.9375 191.8125 187.9375Q191.45312 187.9375 191.14062 188.09375Q190.82812 188.25 190.59375 188.5625Q190.375 188.85938 190.25 189.29688Q190.14062 189.73438 190.14062 190.3125L190.14062 190.54688Q190.14062 191.0 190.26562 191.40625Q190.39062 191.79688 190.625 192.09375Q190.875 192.39062 191.21875 192.5625Q191.57812 192.73438 192.01562 192.73438Q192.59375 192.73438 192.98438 192.5Q193.39062 192.26562 193.6875 191.875L194.34375 192.39062Q194.14062 192.70312 193.8125 192.98438Q193.5 193.26562 193.03125 193.45312Q192.57812 193.625 191.95312 193.625Z" fill-rule="nonzero"/><path stroke="#cccccc" stroke-width="1.0" stroke-linecap="butt" d="M372.0 305.0L372.0 103.0" fill-rule="nonzero"/><path stroke="#ff0000" stroke-width="2.0" stroke-linecap="butt" stroke-opacity="0.7019608" stroke-dasharray="8.0,6.0,2.0,6.0" d="M372.0 234.0L429.0 272.0L429.0 338.0L372.0 355.0L337.0 325.0L189.0 199.0Z" fill-rule="nonzero"/><path fill="#ff0000" fill-opacity="0.7019608" d="M368.81802 230.81802L372.0 232.875L375.18198 230.81802L373.125 234.0L375.18198 237.18198L372.0 235.125L368.81802 237.18198L370.875 234.0Z" fill-rule="nonzero"/><path fill="#ff0000" fill-opacity="0.7019608" d="M425.81802 268.81802L429.0 270.875L432.18198 268.81802L430.125 272.0L432.18198 275.18198L429.0 273.125L425.81802 275.18198L427.875 272.0Z" fill-rule="nonzero"/><path fill="#ff0000" fill-opacity="0.7019608" d="M425.81802 334.81802L429.0 336.875L432.18198 334.81802L430.125 338.0L432.18198 341.18198L429.0 339.125L425.81802 341.18198L427.875 338.0Z" fill-rule="nonzero"/><path fill="#ff0000" fill-opacity="0.7019608" d="M368.81802 351.81802L372.0 353.875L375.18198 351.81802L373.125 355.0L375.18198 358.18198L372.0 356.125L368.81802 358.18198L370.875 355.0Z" fill-rule="nonzero"/><path fill="#ff0000" fill-opacity="0.7019608" d="M333.81802 321.81802L337.0 323.875L340.18198 321.81802L338.125 325.0L340.18198 328.18198L337.0 326.125L333.81802 328.18198L335.875 325.0Z" fill-rule="nonzero"/><path fill="#ff0000" fill-opacity="0.7019608" d="M185.81802 195.81802L189.0 197.875L192.18198 195.81802L190.125 199.0L192.18198 202.18198L189.0 200.125L185.81802 202.18198L187.875 199.0Z" fill-rule="nonzero"/><path fill="#757575" d="M29.928125 47.35L29.928125 33.0375L36.271873 33.0375Q38.178123 33.0375 39.178123 33.428123Q40.178123 33.803123 40.771873 34.7875Q41.365623 35.75625 41.365623 36.94375Q41.365623 38.459373 40.38125 39.50625Q39.396873 40.553123 37.334373 40.834373Q38.084373 41.19375 38.475 41.553123Q39.303123 42.303123 40.053123 43.459373L42.5375 47.35L40.1625 47.35L38.25625 44.365623Q37.428123 43.084373 36.896873 42.396873Q36.365623 41.709373 35.928123 41.44375Q35.50625 41.1625 35.06875 41.053123Q34.740623 40.990623 34.021873 40.990623L31.81875 40.990623L31.81875 47.35L29.928125 47.35ZM31.81875 39.35L35.896873 39.35Q37.19375 39.35 37.9125 39.084373Q38.646873 38.81875 39.021873 38.225Q39.4125 37.63125 39.4125 36.94375Q39.4125 35.928123 38.678123 35.271873Q37.94375 34.615623 36.35 34.615623L31.81875 34.615623L31.81875 39.35ZM43.021873 42.1625Q43.021873 39.2875 44.615623 37.896873Q45.959373 36.740623 47.88125 36.740623Q50.021873 36.740623 51.365623 38.146873Q52.725 39.553123 52.725 42.021873Q52.725 44.021873 52.13125 45.178123Q51.5375 46.31875 50.38125 46.959373Q49.240623 47.584373 47.88125 47.584373Q45.69375 47.584373 44.35 46.19375Q43.021873 44.7875 43.021873 42.1625ZM44.81875 42.1625Q44.81875 44.1625 45.678123 45.146873Q46.553123 46.13125 47.88125 46.13125Q49.19375 46.13125 50.053123 45.146873Q50.928123 44.146873 50.928123 42.1Q50.928123 40.178123 50.053123 39.19375Q49.178123 38.19375 47.88125 38.19375Q46.553123 38.19375 45.678123 39.19375Q44.81875 40.178123 44.81875 42.1625ZM53.959373 44.25625L55.709373 43.975Q55.85 45.021873 56.521873 45.584373Q57.19375 46.13125 58.396873 46.13125Q59.6 46.13125 60.178123 45.646873Q60.771873 45.146873 60.771873 44.490623Q60.771873 43.896873 60.25625 43.553123Q59.896873 43.31875 58.459373 42.959373Q56.521873 42.459373 55.771873 42.115623Q55.0375 41.75625 54.646873 41.13125Q54.25625 40.490623 54.25625 39.725Q54.25625 39.0375 54.56875 38.44375Q54.896873 37.85 55.44375 37.459373Q55.85 37.1625 56.553123 36.959373Q57.271873 36.740623 58.084373 36.740623Q59.303123 36.740623 60.225 37.1Q61.146873 37.44375 61.584373 38.053123Q62.021873 38.646873 62.19375 39.646873L60.475 39.88125Q60.35 39.084373 59.7875 38.646873Q59.225 38.19375 58.209373 38.19375Q56.990623 38.19375 56.475 38.6Q55.959373 38.990623 55.959373 39.521873Q55.959373 39.865623 56.178123 40.146873Q56.38125 40.428123 56.85 40.615623Q57.115623 40.709373 58.396873 41.053123Q60.271873 41.553123 61.00625 41.88125Q61.740623 42.19375 62.1625 42.803123Q62.584373 43.396873 62.584373 44.303123Q62.584373 45.178123 62.06875 45.959373Q61.553123 46.740623 60.584373 47.1625Q59.615623 47.584373 58.396873 47.584373Q56.38125 47.584373 55.31875 46.740623Q54.25625 45.896873 53.959373 44.25625ZM71.77187 44.00625L73.58437 44.240623Q73.1625 45.81875 71.99062 46.709373Q70.83437 47.584373 69.02187 47.584373Q66.75625 47.584373 65.4125 46.19375Q64.08437 44.7875 64.08437 42.25625Q64.08437 39.63125 65.42812 38.19375Q66.77187 36.740623 68.92812 36.740623Q71.00625 36.740623 72.31875 38.1625Q73.64687 39.56875 73.64687 42.146873Q73.64687 42.303123 73.63125 42.615623L65.89687 42.615623Q65.99062 44.31875 66.86562 45.225Q67.74062 46.13125 69.0375 46.13125Q70.00625 46.13125 70.67812 45.63125Q71.36562 45.115623 71.77187 44.00625ZM65.99062 41.1625L71.7875 41.1625Q71.67812 39.865623 71.13125 39.209373Q70.2875 38.19375 68.94375 38.19375Q67.74062 38.19375 66.9125 39.00625Q66.08437 39.803123 65.99062 41.1625ZM88.6 41.740623L88.6 40.053123L94.6625 40.0375L94.6625 45.35Q93.25625 46.475 91.77187 47.0375Q90.2875 47.6 88.725 47.6Q86.61562 47.6 84.89687 46.69375Q83.17812 45.7875 82.2875 44.084373Q81.4125 42.365623 81.4125 40.25625Q81.4125 38.1625 82.2875 36.365623Q83.1625 34.553123 84.80312 33.678123Q86.44375 32.7875 88.58437 32.7875Q90.13125 32.7875 91.38125 33.2875Q92.64687 33.7875 93.35 34.69375Q94.06875 35.584373 94.44375 37.0375L92.74062 37.50625Q92.4125 36.4125 91.92812 35.7875Q91.45937 35.1625 90.56875 34.7875Q89.67812 34.4125 88.6 34.4125Q87.2875 34.4125 86.33437 34.803123Q85.39687 35.19375 84.81875 35.85Q84.24062 36.490623 83.9125 37.25625Q83.36562 38.584373 83.36562 40.146873Q83.36562 42.053123 84.02187 43.35Q84.69375 44.63125 85.94375 45.25625Q87.20937 45.88125 88.61562 45.88125Q89.85 45.88125 91.02187 45.4125Q92.19375 44.94375 92.80312 44.396873L92.80312 41.740623L88.6 41.740623ZM97.02187 42.1625Q97.02187 39.2875 98.61562 37.896873Q99.95937 36.740623 101.88125 36.740623Q104.02187 36.740623 105.36562 38.146873Q106.725 39.553123 106.725 42.021873Q106.725 44.021873 106.13125 45.178123Q105.5375 46.31875 104.38125 46.959373Q103.24062 47.584373 101.88125 47.584373Q99.69375 47.584373 98.35 46.19375Q97.02187 44.7875 97.02187 42.1625ZM98.81875 42.1625Q98.81875 44.1625 99.67812 45.146873Q100.55312 46.13125 101.88125 46.13125Q103.19375 46.13125 104.05312 45.146873Q104.92812 44.146873 104.92812 42.1Q104.92812 40.178123 104.05312 39.19375Q103.17812 38.19375 101.88125 38.19375Q100.55312 38.19375 99.67812 39.19375Q98.81875 40.178123 98.81875 42.1625ZM108.63125 47.35L108.63125 33.0375L110.38125 33.0375L110.38125 47.35L108.63125 47.35ZM119.39687 47.35L119.39687 46.0375Q118.4125 47.584373 116.49062 47.584373Q115.25625 47.584373 114.20937 46.896873Q113.17812 46.209373 112.6 44.990623Q112.0375 43.771873 112.0375 42.178123Q112.0375 40.615623 112.55312 39.35Q113.06875 38.084373 114.1 37.4125Q115.14687 36.740623 116.4125 36.740623Q117.35 36.740623 118.08437 37.146873Q118.81875 37.5375 119.2875 38.1625L119.2875 33.0375L121.02187 33.0375L121.02187 47.35L119.39687 47.35ZM113.83437 42.178123Q113.83437 44.1625 114.67812 45.146873Q115.52187 46.13125 116.6625 46.13125Q117.81875 46.13125 118.61562 45.19375Q119.42812 44.25625 119.42812 42.31875Q119.42812 40.19375 118.6 39.19375Q117.7875 38.19375 116.58437 38.19375Q115.4125 38.19375 114.61562 39.1625Q113.83437 40.115623 113.83437 42.178123ZM129.89688 47.35L129.89688 33.0375L135.2875 33.0375Q136.725 33.0375 137.475 33.1625Q138.52188 33.35 139.24063 33.85Q139.95938 34.334373 140.38126 35.225Q140.81876 36.115623 140.81876 37.178123Q140.81876 39.00625 139.64688 40.271873Q138.49063 41.521873 135.45938 41.521873L131.7875 41.521873L131.7875 47.35L129.89688 47.35ZM131.7875 39.834373L135.49063 39.834373Q137.31876 39.834373 138.08438 39.1625Q138.86563 38.475 138.86563 37.225Q138.86563 36.334373 138.4125 35.69375Q137.95938 35.053123 137.225 34.85Q136.74063 34.725 135.44376 34.725L131.7875 34.725L131.7875 39.834373ZM149.44376 46.06875Q148.45938 46.896873 147.55313 47.240623Q146.64688 47.584373 145.61563 47.584373Q143.9125 47.584373 142.99063 46.75625Q142.06876 45.9125 142.06876 44.615623Q142.06876 43.85 142.4125 43.225Q142.77188 42.6 143.33438 42.225Q143.89688 41.834373 144.6 41.63125Q145.11563 41.50625 146.1625 41.365623Q148.2875 41.115623 149.2875 40.771873Q149.30313 40.4125 149.30313 40.303123Q149.30313 39.240623 148.80313 38.7875Q148.13126 38.19375 146.80313 38.19375Q145.55313 38.19375 144.95938 38.63125Q144.38126 39.06875 144.1 40.178123L142.38126 39.94375Q142.61563 38.834373 143.14688 38.1625Q143.67813 37.475 144.69376 37.115623Q145.70938 36.740623 147.05313 36.740623Q148.38126 36.740623 149.20938 37.053123Q150.0375 37.365623 150.42813 37.85Q150.81876 38.31875 150.975 39.0375Q151.06876 39.490623 151.06876 40.6625L151.06876 43.00625Q151.06876 45.459373 151.17813 46.115623Q151.2875 46.75625 151.63126 47.35L149.7875 47.35Q149.52188 46.803123 149.44376 46.06875ZM149.2875 42.146873Q148.33438 42.5375 146.4125 42.803123Q145.33438 42.959373 144.88126 43.1625Q144.44376 43.35 144.19376 43.725Q143.94376 44.1 143.94376 44.56875Q143.94376 45.271873 144.475 45.740623Q145.00626 46.209373 146.0375 46.209373Q147.05313 46.209373 147.83438 45.771873Q148.63126 45.31875 149.00626 44.553123Q149.2875 43.94375 149.2875 42.7875L149.2875 42.146873ZM156.55313 47.35L152.6 36.975L154.45938 36.975L156.69376 43.19375Q157.05313 44.19375 157.35 45.271873Q157.58438 44.459373 158.00626 43.303123L160.30313 36.975L162.11563 36.975L158.19376 47.35L156.55313 47.35ZM169.77188 44.00625L171.58438 44.240623Q171.1625 45.81875 169.99063 46.709373Q168.83438 47.584373 167.02188 47.584373Q164.75626 47.584373 163.4125 46.19375Q162.08438 44.7875 162.08438 42.25625Q162.08438 39.63125 163.42813 38.19375Q164.77188 36.740623 166.92813 36.740623Q169.00626 36.740623 170.31876 38.1625Q171.64688 39.56875 171.64688 42.146873Q171.64688 42.303123 171.63126 42.615623L163.89688 42.615623Q163.99063 44.31875 164.86563 45.225Q165.74063 46.13125 167.0375 46.13125Q168.00626 46.13125 168.67813 45.63125Q169.36563 45.115623 169.77188 44.00625ZM163.99063 41.1625L169.7875 41.1625Q169.67813 39.865623 169.13126 39.209373Q168.2875 38.19375 166.94376 38.19375Q165.74063 38.19375 164.9125 39.00625Q164.08438 39.803123 163.99063 41.1625ZM165.89688 35.69375L167.19376 32.959373L169.49063 32.959373L167.35 35.69375L165.89688 35.69375Z" fill-rule="nonzero"/></svg>