<svg version="1.1" viewBox="0.0 0.0 744.0 567.0" fill="none" stroke="none" stroke-linecap="square" stroke-miterlimit="10" width="744" height="567" xmlns:xlink="http://www.w3.org/1999/xlink" xmlns="http://www.w3.org/2000/svg"><path fill="#ffffff" d="M0 0L744.0 0L744.0 567.0L0 567.0L0 0Z" fill-rule="nonzero"/><path fill="#ffffff" d="M28.35 71.25L715.64996 71.25L715.64996 538.65L28.35 538.65L28.35 71.25Z" fill-rule="nonzero"/><path stroke="#cccccc" stroke-width="1.0" stroke-linecap="butt" d="M372.0 305.0C372.0 305.0 372.0 305.0 372.0 305.0C372.0 305.0 372.0 305.0 372.0 305.0C372.0 305.0 372.0 305.0 372.0 305.0C372.0 305.0 372.0 305.0 372.0 305.0" fill-rule="nonzero"/><path fill="#000000" d="M360.0625 297.04688L360.0625 298.35938Q360.0625 299.40625 359.875 300.125Q359.6875 300.84375 359.32812 301.28125Q358.98438 301.71875 358.48438 301.92188Q358.0 302.125 357.375 302.125Q356.89062 302.125 356.46875 302.0Q356.04688 301.875 355.71875 301.60938Q355.39062 301.32812 355.15625 300.89062Q354.92188 300.45312 354.79688 299.82812Q354.67188 299.1875 354.67188 298.35938L354.67188 297.04688Q354.67188 296.0 354.85938 295.29688Q355.0625 294.59375 355.40625 294.15625Q355.76562 293.71875 356.25 293.53125Q356.75 293.34375 357.35938 293.34375Q357.85938 293.34375 358.28125 293.46875Q358.70312 293.59375 359.03125 293.85938Q359.35938 294.10938 359.57812 294.54688Q359.8125 294.96875 359.9375 295.59375Q360.0625 296.21875 360.0625 297.04688ZM358.96875 298.53125L358.96875 296.875Q358.96875 296.29688 358.90625 295.85938Q358.84375 295.42188 358.70312 295.10938Q358.57812 294.79688 358.375 294.60938Q358.1875 294.42188 357.9375 294.32812Q357.6875 294.23438 357.35938 294.23438Q356.98438 294.23438 356.67188 294.375Q356.375 294.51562 356.17188 294.82812Q355.96875 295.14062 355.85938 295.65625Q355.76562 296.15625 355.76562 296.875L355.76562 298.53125Q355.76562 299.10938 355.82812 299.54688Q355.90625 299.98438 356.03125 300.3125Q356.17188 300.625 356.35938 300.82812Q356.5625 301.03125 356.8125 301.125Q357.0625 301.21875 357.375 301.21875Q357.78125 301.21875 358.07812 301.07812Q358.375 300.92188 358.57812 300.59375Q358.78125 300.26562 358.875 299.76562Q358.96875 299.25 358.96875 298.53125ZM362.8125 300.70312L362.8125 301.57812Q362.8125 302.125 362.53125 302.71875Q362.26562 303.3125 361.78125 303.70312L361.17188 303.28125Q361.35938 303.01562 361.48438 302.75Q361.60938 302.48438 361.67188 302.20312Q361.75 301.92188 361.75 301.59375L361.75 300.70312L362.8125 300.70312ZM369.0625 297.04688L369.0625 298.35938Q369.0625 299.40625 368.875 300.125Q368.6875 300.84375 368.32812 301.28125Q367.98438 301.71875 367.48438 301.92188Q367.0 302.125 366.375 302.125Q365.89062 302.125 365.46875 302.0Q365.04688 301.875 364.71875 301.60938Q364.39062 301.32812 364.15625 300.89062Q363.92188 300.45312 363.79688 299.82812Q363.67188 299.1875 363.67188 298.35938L363.67188 297.04688Q363.67188 296.0 363.85938 295.29688Q364.0625 294.59375 364.40625 294.15625Q364.76562 293.71875 365.25 293.53125Q365.75 293.34375 366.35938 293.34375Q366.85938 293.34375 367.28125 293.46875Q367.70312 293.59375 368.03125 293.85938Q368.35938 294.10938 368.57812 294.54688Q368.8125 294.96875 368.9375 295.59375Q369.0625 296.21875 369.0625 297.04688ZM367.96875 298.53125L367.96875 296.875Q367.96875 296.29688 367.90625 295.85938Q367.84375 295.42188 367.70312 295.10938Q367.57812 294.79688 367.375 294.60938Q367.1875 294.42188 366.9375 294.32812Q366.6875 294.23438 366.35938 294.23438Q365.98438 294.23438 365.67188 294.375Q365.375 294.51562 365.17188 294.82812Q364.96875 295.14062 364.85938 295.65625Q364.76562 296.15625 364.76562 296.875L364.76562 298.53125Q364.76562 299.10938 364.82812 299.54688Q364.90625 299.98438 365.03125 300.3125Q365.17188 300.625 365.35938 300.82812Q365.5625 301.03125 365.8125 301.125Q366.0625 301.21875 366.375 301.21875Q366.78125 301.21875 367.07812 301.07812Q367.375 300.92188 367.57812 300.59375Q367.78125 300.26562 367.875 299.76562Q367.96875 299.25 367.96875 298.53125Z" fill-rule="nonzero"/><path stroke="#cccccc" stroke-width="1.0" stroke-linecap="butt" d="M405.61667 305.0C405.61667 286.43402 390.56598 271.38333 372.0 271.38333C353.43402 271.38333 338.38333 286.43402 338.38333 305.0C338.38333 323.56598 353.43402 338.61667 372.0 338.61667C390.56598 338.61667 405.61667 323.56598 405.61667 305.0" fill-rule="nonzero"/><path fill="#000000" d="M360.0625 263.4302L360.0625 264.7427Q360.0625 265.78958 359.875 266.50833Q359.6875 267.22708 359.32812 267.66458Q358.98438 268.10208 358.48438 268.3052Q358.0 268.50833 357.375 268.50833Q356.89062 268.50833 356.46875 268.38333Q356.04688 268.25833 355.71875 267.9927Q355.39062 267.71146 355.15625 267.27396Q354.92188 266.83646 354.79688 266.21146Q354.67188 265.57083 354.67188 264.7427L354.67188 263.4302Q354.67188 262.38333 354.85938 261.6802Q355.0625 260.97708 355.40625 260.53958Q355.76562 260.10208 356.25 259.91458Q356.75 259.72708 357.35938 259.72708Q357.85938 259.72708 358.28125 259.85208Q358.70312 259.97708 359.03125 260.2427Q359.35938 260.4927 359.57812 260.9302Q359.8125 261.35208 359.9375 261.97708Q360.0625 262.60208 360.0625 263.4302ZM358.96875 264.91458L358.96875 263.25833Q358.96875 262.6802 358.90625 262.2427Q358.84375 261.8052 358.70312 261.4927Q358.57812 261.1802 358.375 260.9927Q358.1875 260.8052 357.9375 260.71146Q357.6875 260.6177 357.35938 260.6177Q356.98438 260.6177 356.67188 260.75833Q356.375 260.89896 356.17188 261.21146Q355.96875 261.52396 355.85938 262.03958Q355.76562 262.53958 355.76562 263.25833L355.76562 264.91458Q355.76562 265.4927 355.82812 265.9302Q355.90625 266.3677 356.03125 266.69583Q356.17188 267.00833 356.35938 267.21146Q356.5625 267.41458 356.8125 267.50833Q357.0625 267.60208 357.375 267.60208Q357.78125 267.60208 358.07812 267.46146Q358.375 267.3052 358.57812 266.97708Q358.78125 266.64896 358.875 266.14896Q358.96875 265.63333 358.96875 264.91458ZM362.8125 267.08646L362.8125 267.96146Q362.8125 268.50833 362.53125 269.10208Q362.26562 269.69583 361.78125 270.08646L361.17188 269.66458Q361.35938 269.39896 361.48438 269.13333Q361.60938 268.8677 361.67188 268.58646Q361.75 268.3052 361.75 267.97708L361.75 267.08646L362.8125 267.08646ZM367.26562 259.8052L367.26562 268.38333L366.1875 268.38333L366.1875 261.16458L364.0 261.96146L364.0 260.97708L367.10938 259.8052L367.26562 259.8052Z" fill-rule="nonzero"/><path stroke="#cccccc" stroke-width="1.0" stroke-linecap="butt" d="M439.23334 305.0C439.23334 267.86804 409.13196 237.76666 372.0 237.76666C334.86804 237.76666 304.76666 267.86804 304.76666 305.0C304.76666 342.13196 334.86804 372.23334 372.0 372.23334C409.13196 372.23334 439.23334 342.13196 439.23334 305.0" fill-rule="nonzero"/><path fill="#000000" d="M360.0625 229.81354L360.0625 231.12604Q360.0625 232.17291 359.875 232.89166Q359.6875 233.61041 359.32812 234.04791Q358.98438 234.48541 358.48438 234.68854Q358.0 234.89166 357.375 234.89166Q356.89062 234.89166 356.46875 234.76666Q356.04688 234.64166 355.71875 234.37604Q355.39062 234.09479 355.15625 233.65729Q354.92188 233.21979 354.79688 232.59479Q354.67188 231.95416 354.67188 231.12604L354.67188 229.81354Q354.67188 228.76666 354.85938 228.06354Q355.0625 227.36041 355.40625 226.92291Q355.76562 226.48541 356.25 226.29791Q356.75 226.11041 357.35938 226.11041Q357.85938 226.11041 358.28125 226.23541Q358.70312 226.36041 359.03125 226.62604Q359.35938 226.87604 359.57812 227.31354Q359.8125 227.73541 359.9375 228.36041Q360.0625 228.98541 360.0625 229.81354ZM358.96875 231.29791L358.96875 229.64166Q358.96875 229.06354 358.90625 228.62604Q358.84375 228.18854 358.70312 227.87604Q358.57812 227.56354 358.375 227.37604Q358.1875 227.18854 357.9375 227.09479Q357.6875 227.00104 357.35938 227.00104Q356.98438 227.00104 356.67188 227.14166Q356.375 227.28229 356.17188 227.59479Q355.96875 227.90729 355.85938 228.42291Q355.76562 228.92291 355.76562 229.64166L355.76562 231.29791Q355.76562 231.87604 355.82812 232.31354Q355.90625 232.75104 356.03125 233.07916Q356.17188 233.39166 356.35938 233.59479Q356.5625 233.79791 356.8125 233.89166Q357.0625 233.98541 357.375 233.98541Q357.78125 233.98541 358.07812 233.84479Q358.375 233.68854 358.57812 233.36041Q358.78125 233.03229 358.875 232.53229Q358.96875 232.01666 358.96875 231.29791ZM362.8125 233.46979L362.8125 234.34479Q362.8125 234.89166 362.53125 235.48541Q362.26562 236.07916 361.78125 236.46979L361.17188 236.04791Q361.35938 235.78229 361.48438 235.51666Q361.60938 235.25104 361.67188 234.96979Q361.75 234.68854 361.75 234.36041L361.75 233.46979L362.8125 233.46979ZM369.29688 233.87604L369.29688 234.76666L363.71875 234.76666L363.71875 233.98541L366.51562 230.87604Q367.03125 230.29791 367.3125 229.90729Q367.59375 229.50104 367.70312 229.18854Q367.82812 228.86041 367.82812 228.53229Q367.82812 228.11041 367.65625 227.76666Q367.48438 227.42291 367.14062 227.21979Q366.8125 227.00104 366.32812 227.00104Q365.76562 227.00104 365.39062 227.23541Q365.01562 227.45416 364.82812 227.84479Q364.64062 228.23541 364.64062 228.73541L363.54688 228.73541Q363.54688 228.01666 363.85938 227.42291Q364.1875 226.82916 364.79688 226.46979Q365.42188 226.11041 366.32812 226.11041Q367.14062 226.11041 367.71875 226.40729Q368.29688 226.68854 368.59375 227.20416Q368.90625 227.70416 368.90625 228.39166Q368.90625 228.76666 368.78125 229.15729Q368.65625 229.53229 368.4375 229.92291Q368.21875 230.29791 367.92188 230.67291Q367.64062 231.03229 367.3125 231.39166L365.01562 233.87604L369.29688 233.87604Z" fill-rule="nonzero"/><path stroke="#cccccc" stroke-width="1.0" stroke-linecap="butt" d="M472.85 305.0C472.85 249.30208 427.6979 204.15 372.0 204.15C316.3021 204.15 271.15 249.30208 271.15 305.0C271.15 360.6979 316.3021 405.85 372.0 405.85C427.6979 405.85 472.85 360.6979 472.85 305.0" fill-rule="nonzero"/><path fill="#000000" d="M360.0625 196.19687L360.0625 197.50937Q360.0625 198.55624 359.875 199.275Q359.6875 199.99374 359.32812 200.43124Q358.98438 200.86874 358.48438 201.07187Q358.0 201.275 357.375 201.275Q356.89062 201.275 356.46875 201.15Q356.04688 201.025 355.71875 200.75937Q355.39062 200.47812 355.15625 200.04062Q354.92188 199.60312 354.79688 198.97812Q354.67188 198.3375 354.67188 197.50937L354.67188 196.19687Q354.67188 195.15 354.85938 194.44687Q355.0625 193.74374 355.40625 193.30624Q355.76562 192.86874 356.25 192.68124Q356.75 192.49374 357.35938 192.49374Q357.85938 192.49374 358.28125 192.61874Q358.70312 192.74374 359.03125 193.00937Q359.35938 193.25937 359.57812 193.69687Q359.8125 194.11874 359.9375 194.74374Q360.0625 195.36874 360.0625 196.19687ZM358.96875 197.68124L358.96875 196.025Q358.96875 195.44687 358.90625 195.00937Q358.84375 194.57187 358.70312 194.25937Q358.57812 193.94687 358.375 193.75937Q358.1875 193.57187 357.9375 193.47812Q357.6875 193.38437 357.35938 193.38437Q356.98438 193.38437 356.67188 193.525Q356.375 193.66562 356.17188 193.97812Q355.96875 194.29062 355.85938 194.80624Q355.76562 195.30624 355.76562 196.025L355.76562 197.68124Q355.76562 198.25937 355.82812 198.69687Q355.90625 199.13437 356.03125 199.4625Q356.17188 199.775 356.35938 199.97812Q356.5625 200.18124 356.8125 200.275Q357.0625 200.36874 357.375 200.36874Q357.78125 200.36874 358.07812 200.22812Q358.375 200.07187 358.57812 199.74374Q358.78125 199.41562 358.875 198.91562Q358.96875 198.4 358.96875 197.68124ZM362.8125 199.85312L362.8125 200.72812Q362.8125 201.275 362.53125 201.86874Q362.26562 202.4625 361.78125 202.85312L361.17188 202.43124Q361.35938 202.16562 361.48438 201.9Q361.60938 201.63437 361.67188 201.35312Q361.75 201.07187 361.75 200.74374L361.75 199.85312L362.8125 199.85312ZM365.29688 196.35312L366.0625 196.35312Q366.64062 196.35312 367.0 196.16562Q367.375 195.9625 367.5625 195.63437Q367.75 195.30624 367.75 194.88437Q367.75 194.4 367.57812 194.07187Q367.42188 193.72812 367.09375 193.55624Q366.76562 193.38437 366.26562 193.38437Q365.79688 193.38437 365.45312 193.57187Q365.10938 193.74374 364.90625 194.07187Q364.71875 194.4 364.71875 194.85312L363.625 194.85312Q363.625 194.19687 363.95312 193.66562Q364.28125 193.13437 364.875 192.82187Q365.46875 192.49374 366.26562 192.49374Q367.03125 192.49374 367.60938 192.775Q368.1875 193.04062 368.51562 193.5875Q368.84375 194.11874 368.84375 194.91562Q368.84375 195.24374 368.6875 195.60312Q368.53125 195.9625 368.21875 196.29062Q367.90625 196.60312 367.40625 196.80624Q366.92188 197.00937 366.21875 197.00937L365.29688 197.00937L365.29688 196.35312ZM365.29688 197.24374L365.29688 196.5875L366.21875 196.5875Q367.03125 196.5875 367.5625 196.79062Q368.09375 196.97812 368.40625 197.30624Q368.71875 197.61874 368.84375 198.00937Q368.96875 198.38437 368.96875 198.775Q368.96875 199.36874 368.76562 199.8375Q368.5625 200.29062 368.1875 200.61874Q367.82812 200.93124 367.32812 201.10312Q366.84375 201.275 366.26562 201.275Q365.70312 201.275 365.21875 201.11874Q364.73438 200.94687 364.35938 200.65Q363.98438 200.35312 363.76562 199.91562Q363.5625 199.4625 363.5625 198.9L364.64062 198.9Q364.64062 199.3375 364.82812 199.68124Q365.03125 200.00937 365.39062 200.19687Q365.76562 200.36874 366.26562 200.36874Q366.76562 200.36874 367.125 200.19687Q367.48438 200.025 367.67188 199.68124Q367.875 199.32187 367.875 198.79062Q367.875 198.25937 367.65625 197.91562Q367.4375 197.57187 367.01562 197.41562Q366.60938 197.24374 366.0625 197.24374L365.29688 197.24374Z" fill-rule="nonzero"/><path stroke="#cccccc" stroke-width="1.0" stroke-linecap="butt" d="M506.46667 305.0C506.46667 230.73611 446.2639 170.53334 372.0 170.53334C297.7361 170.53334 237.53334 230.73611 237.53334 305.0C237.53334 379.2639 297.7361 439.46667 372.0 439.46667C446.2639 439.46667 506.46667 379.2639 506.46667 305.0" fill-rule="nonzero"/><path fill="#000000" d="M360.0625 162.58022L360.0625 163.89272Q360.0625 164.93959 359.875 165.65834Q359.6875 166.37709 359.32812 166.81459Q358.98438 167.25209 358.48438 167.45522Q358.0 167.65834 357.375 167.65834Q356.89062 167.65834 356.46875 167.53334Q356.04688 167.40834 355.71875 167.14272Q355.39062 166.86147 355.15625 166.42397Q354.92188 165.98647 354.79688 165.36147Q354.67188 164.72084 354.67188 163.89272L354.67188 162.58022Q354.67188 161.53334 354.85938 160.83022Q355.0625 160.12709 355.40625 159.68959Q355.76562 159.25209 356.25 159.06459Q356.75 158.87709 357.35938 158.87709Q357.85938 158.87709 358.28125 159.00209Q358.70312 159.12709 359.03125 159.39272Q359.35938 159.64272 359.57812 160.08022Q359.8125 160.50209 359.9375 161.12709Q360.0625 161.75209 360.0625 162.58022ZM358.96875 164.06459L358.96875 162.40834Q358.96875 161.83022 358.90625 161.39272Q358.84375 160.95522 358.70312 160.64272Q358.57812 160.33022 358.375 160.14272Q358.1875 159.95522 357.9375 159.86147Q357.6875 159.76772 357.35938 159.76772Q356.98438 159.76772 356.67188 159.90834Q356.375 160.04897 356.17188 160.36147Q355.96875 160.67397 355.85938 161.18959Q355.76562 161.68959 355.76562 162.40834L355.76562 164.06459Q355.76562 164.64272 355.82812 165.08022Q355.90625 165.51772 356.03125 165.84584Q356.17188 166.15834 356.35938 166.36147Q356.5625 166.56459 356.8125 166.65834Q357.0625 166.75209 357.375 166.75209Q357.78125 166.75209 358.07812 166.61147Q358.375 166.45522 358.57812 166.12709Q358.78125 165.79897 358.875 165.29897Q358.96875 164.78334 358.96875 164.06459ZM362.8125 166.23647L362.8125 167.11147Q362.8125 167.65834 362.53125 168.25209Q362.26562 168.84584 361.78125 169.23647L361.17188 168.81459Q361.35938 168.54897 361.48438 168.28334Q361.60938 168.01772 361.67188 167.73647Q361.75 167.45522 361.75 167.12709L361.75 166.23647L362.8125 166.23647ZM369.46875 164.65834L369.46875 165.54897L363.3125 165.54897L363.3125 164.90834L367.125 159.00209L368.01562 159.00209L367.0625 160.70522L364.54688 164.65834L369.46875 164.65834ZM368.28125 159.00209L368.28125 167.53334L367.20312 167.53334L367.20312 159.00209L368.28125 159.00209Z" fill-rule="nonzero"/><path stroke="#cccccc" stroke-width="1.0" stroke-linecap="butt" d="M540.0833 305.0C540.0833 212.17014 464.82986 136.91667 372.0 136.91667C279.17014 136.91667 203.91667 212.17014 203.91667 305.0C203.91667 397.82986 279.17014 473.08334 372.0 473.08334C464.82986 473.08334 540.0833 397.82986 540.0833 305.0" fill-rule="nonzero"/><path fill="#000000" d="M360.0625 128.96355L360.0625 130.27605Q360.0625 131.32292 359.875 132.04167Q359.6875 132.76042 359.32812 133.19792Q358.98438 133.63542 358.48438 133.83855Q358.0 134.04167 357.375 134.04167Q356.89062 134.04167 356.46875 133.91667Q356.04688 133.79167 355.71875 133.52605Q355.39062 133.2448 355.15625 132.8073Q354.92188 132.3698 354.79688 131.7448Q354.67188 131.10417 354.67188 130.27605L354.67188 128.96355Q354.67188 127.91667 354.85938 127.21355Q355.0625 126.51042 355.40625 126.07292Q355.76562 125.63542 356.25 125.44792Q356.75 125.26042 357.35938 125.26042Q357.85938 125.26042 358.28125 125.38542Q358.70312 125.51042 359.03125 125.77605Q359.35938 126.02605 359.57812 126.46355Q359.8125 126.88542 359.9375 127.51042Q360.0625 128.13542 360.0625 128.96355ZM358.96875 130.44792L358.96875 128.79167Q358.96875 128.21355 358.90625 127.77605Q358.84375 127.33855 358.70312 127.02605Q358.57812 126.71355 358.375 126.52605Q358.1875 126.33855 357.9375 126.2448Q357.6875 126.15105 357.35938 126.15105Q356.98438 126.15105 356.67188 126.29167Q356.375 126.4323 356.17188 126.7448Q355.96875 127.0573 355.85938 127.57292Q355.76562 128.07292 355.76562 128.79167L355.76562 130.44792Q355.76562 131.02605 355.82812 131.46355Q355.90625 131.90105 356.03125 132.22917Q356.17188 132.54167 356.35938 132.7448Q356.5625 132.94792 356.8125 133.04167Q357.0625 133.13542 357.375 133.13542Q357.78125 133.13542 358.07812 132.9948Q358.375 132.83855 358.57812 132.51042Q358.78125 132.1823 358.875 131.6823Q358.96875 131.16667 358.96875 130.44792ZM362.8125 132.6198L362.8125 133.4948Q362.8125 134.04167 362.53125 134.63542Q362.26562 135.22917 361.78125 135.6198L361.17188 135.19792Q361.35938 134.9323 361.48438 134.66667Q361.60938 134.40105 361.67188 134.1198Q361.75 133.83855 361.75 133.51042L361.75 132.6198L362.8125 132.6198ZM365.07812 129.85417L364.21875 129.63542L364.64062 125.38542L369.01562 125.38542L369.01562 126.38542L365.5625 126.38542L365.29688 128.71355Q365.53125 128.57292 365.89062 128.46355Q366.26562 128.33855 366.73438 128.33855Q367.3125 128.33855 367.78125 128.54167Q368.25 128.7448 368.57812 129.1198Q368.92188 129.4948 369.09375 130.02605Q369.26562 130.54167 369.26562 131.19792Q369.26562 131.8073 369.09375 132.32292Q368.9375 132.83855 368.59375 133.22917Q368.26562 133.60417 367.75 133.82292Q367.25 134.04167 366.5625 134.04167Q366.04688 134.04167 365.59375 133.90105Q365.14062 133.7448 364.76562 133.44792Q364.40625 133.15105 364.1875 132.71355Q363.96875 132.27605 363.90625 131.66667L364.9375 131.66667Q365.0 132.15105 365.20312 132.47917Q365.42188 132.8073 365.76562 132.97917Q366.10938 133.13542 366.5625 133.13542Q366.95312 133.13542 367.25 133.01042Q367.54688 132.8698 367.75 132.6198Q367.96875 132.3698 368.07812 132.01042Q368.1875 131.65105 368.1875 131.21355Q368.1875 130.8073 368.0625 130.46355Q367.95312 130.1198 367.73438 129.8698Q367.51562 129.60417 367.20312 129.46355Q366.89062 129.3073 366.46875 129.3073Q365.9375 129.3073 365.65625 129.46355Q365.375 129.60417 365.07812 129.85417Z" fill-rule="nonzero"/><path stroke="#cccccc" stroke-width="1.0" stroke-linecap="butt" d="M573.7 305.0C573.7 193.60417 483.39584 103.3 372.0 103.3C260.60416 103.3 170.3 193.60417 170.3 305.0C170.3 416.39584 260.60416 506.7 372.0 506.7C483.39584 506.7 573.7 416.39584 573.7 305.0" fill-rule="nonzero"/><path fill="#000000" d="M360.0625 95.34688L360.0625 96.65938Q360.0625 97.70625 359.875 98.425Q359.6875 99.14375 359.32812 99.58125Q358.98438 100.01875 358.48438 100.22188Q358.0 100.425 357.375 100.425Q356.89062 100.425 356.46875 100.3Q356.04688 100.175 355.71875 99.90938Q355.39062 99.62813 355.15625 99.19063Q354.92188 98.75313 354.79688 98.12813Q354.67188 97.4875 354.67188 96.65938L354.67188 95.34688Q354.67188 94.3 354.85938 93.59688Q355.0625 92.89375 355.40625 92.45625Q355.76562 92.01875 356.25 91.83125Q356.75 91.64375 357.35938 91.64375Q357.85938 91.64375 358.28125 91.76875Q358.70312 91.89375 359.03125 92.15938Q359.35938 92.40938 359.57812 92.84688Q359.8125 93.26875 359.9375 93.89375Q360.0625 94.51875 360.0625 95.34688ZM358.96875 96.83125L358.96875 95.175Q358.96875 94.59688 358.90625 94.15938Q358.84375 93.72188 358.70312 93.40938Q358.57812 93.09688 358.375 92.90938Q358.1875 92.72188 357.9375 92.62813Q357.6875 92.53438 357.35938 92.53438Q356.98438 92.53438 356.67188 92.675Q356.375 92.81563 356.17188 93.12813Q355.96875 93.44063 355.85938 93.95625Q355.76562 94.45625 355.76562 95.175L355.76562 96.83125Q355.76562 97.40938 355.82812 97.84688Q355.90625 98.28438 356.03125 98.6125Q356.17188 98.925 356.35938 99.12813Q356.5625 99.33125 356.8125 99.425Q357.0625 99.51875 357.375 99.51875Q357.78125 99.51875 358.07812 99.37813Q358.375 99.22188 358.57812 98.89375Q358.78125 98.56563 358.875 98.06563Q358.96875 97.55 358.96875 96.83125ZM362.8125 99.00313L362.8125 99.87813Q362.8125 100.425 362.53125 101.01875Q362.26562 101.6125 361.78125 102.00313L361.17188 101.58125Q361.35938 101.31563 361.48438 101.05Q361.60938 100.78438 361.67188 100.50313Q361.75 100.22188 361.75 99.89375L361.75 99.00313L362.8125 99.00313ZM367.875 91.75313L367.96875 91.75313L367.96875 92.675L367.875 92.675Q367.01562 92.675 366.42188 92.95625Q365.84375 93.2375 365.5 93.70625Q365.17188 94.15938 365.01562 94.75313Q364.875 95.33125 364.875 95.925L364.875 97.175Q364.875 97.7375 365.0 98.175Q365.14062 98.6125 365.375 98.925Q365.60938 99.22188 365.90625 99.37813Q366.20312 99.51875 366.51562 99.51875Q366.89062 99.51875 367.1875 99.37813Q367.48438 99.2375 367.6875 98.97188Q367.89062 98.70625 367.98438 98.3625Q368.09375 98.00313 368.09375 97.56563Q368.09375 97.19063 368.0 96.83125Q367.90625 96.47188 367.71875 96.20625Q367.53125 95.925 367.23438 95.76875Q366.9375 95.59688 366.54688 95.59688Q366.09375 95.59688 365.70312 95.81563Q365.3125 96.03438 365.0625 96.39375Q364.8125 96.75313 364.78125 97.15938L364.20312 97.15938Q364.29688 96.50313 364.51562 96.03438Q364.73438 95.56563 365.07812 95.26875Q365.42188 94.97188 365.82812 94.84688Q366.25 94.70625 366.71875 94.70625Q367.35938 94.70625 367.8125 94.95625Q368.28125 95.19063 368.57812 95.59688Q368.89062 95.9875 369.03125 96.4875Q369.17188 96.9875 369.17188 97.51875Q369.17188 98.1125 369.0 98.64375Q368.82812 99.175 368.48438 99.58125Q368.15625 99.97188 367.65625 100.20625Q367.17188 100.425 366.51562 100.425Q365.82812 100.425 365.3125 100.14375Q364.79688 99.84688 364.45312 99.37813Q364.125 98.89375 363.95312 98.31563Q363.78125 97.7375 363.78125 97.14375L363.78125 96.62813Q363.78125 95.72188 363.95312 94.8625Q364.14062 93.9875 364.59375 93.28438Q365.04688 92.58125 365.84375 92.175Q366.64062 91.75313 367.875 91.75313Z" fill-rule="nonzero"/><path stroke="#cccccc" stroke-width="1.0" stroke-linecap="butt" d="M372.0 305.0L372.0 103.0" fill-rule="nonzero"/><path fill="#000000" d="M346.29688 77.5L344.51562 77.5L344.53125 76.578125L346.29688 76.578125Q347.21875 76.578125 347.82812 76.203125Q348.4375 75.8125 348.73438 75.125Q349.04688 74.421875 349.04688 73.484375L349.04688 72.96875Q349.04688 72.234375 348.875 71.671875Q348.70312 71.09375 348.35938 70.703125Q348.01562 70.296875 347.51562 70.09375Q347.03125 69.890625 346.40625 69.890625L344.48438 69.890625L344.48438 68.96875L346.40625 68.96875Q347.25 68.96875 347.9375 69.25Q348.625 69.53125 349.125 70.0625Q349.625 70.578125 349.89062 71.328125Q350.17188 72.0625 350.17188 72.984375L350.17188 73.484375Q350.17188 74.421875 349.89062 75.171875Q349.625 75.90625 349.10938 76.421875Q348.60938 76.9375 347.89062 77.21875Q347.1875 77.5 346.29688 77.5ZM345.125 68.96875L345.125 77.5L343.98438 77.5L343.98438 68.96875L345.125 68.96875ZM354.07812 73.421875L354.07812 74.3125L351.21875 74.3125L351.21875 73.421875L354.07812 73.421875ZM360.17188 76.578125L360.17188 77.5L355.90625 77.5L355.90625 76.578125L360.17188 76.578125ZM356.125 68.96875L356.125 77.5L354.98438 77.5L354.98438 68.96875L356.125 68.96875ZM362.0 71.15625L362.0 77.5L360.92188 77.5L360.92188 71.15625L362.0 71.15625ZM360.82812 69.484375Q360.82812 69.21875 360.98438 69.03125Q361.15625 68.84375 361.46875 68.84375Q361.78125 68.84375 361.9375 69.03125Q362.10938 69.21875 362.10938 69.484375Q362.10938 69.734375 361.9375 69.921875Q361.78125 70.09375 361.46875 70.09375Q361.15625 70.09375 360.98438 69.921875Q360.82812 69.734375 360.82812 69.484375ZM364.90625 72.421875L364.90625 77.5L363.8125 77.5L363.8125 71.15625L364.84375 71.15625L364.90625 72.421875ZM364.6875 74.09375L364.17188 74.078125Q364.1875 73.421875 364.34375 72.875Q364.51562 72.3125 364.82812 71.90625Q365.15625 71.5 365.64062 71.28125Q366.125 71.046875 366.75 71.046875Q367.20312 71.046875 367.57812 71.171875Q367.95312 71.296875 368.21875 71.5625Q368.5 71.828125 368.64062 72.25Q368.79688 72.671875 368.79688 73.28125L368.79688 77.5L367.71875 77.5L367.71875 73.328125Q367.71875 72.828125 367.54688 72.53125Q367.39062 72.234375 367.07812 72.09375Q366.78125 71.953125 366.35938 71.953125Q365.89062 71.953125 365.5625 72.125Q365.23438 72.296875 365.04688 72.59375Q364.85938 72.890625 364.76562 73.28125Q364.6875 73.65625 364.6875 74.09375ZM368.79688 73.484375L368.0625 73.71875Q368.0625 73.1875 368.23438 72.71875Q368.40625 72.234375 368.71875 71.859375Q369.04688 71.484375 369.51562 71.265625Q369.98438 71.046875 370.57812 71.046875Q371.09375 71.046875 371.48438 71.1875Q371.89062 71.3125 372.15625 71.59375Q372.42188 71.875 372.5625 72.3125Q372.70312 72.734375 372.70312 73.328125L372.70312 77.5L371.625 77.5L371.625 73.328125Q371.625 72.78125 371.45312 72.5Q371.28125 72.203125 370.98438 72.078125Q370.6875 71.953125 370.26562 71.953125Q369.90625 71.953125 369.625 72.078125Q369.35938 72.203125 369.17188 72.421875Q368.98438 72.625 368.89062 72.90625Q368.79688 73.1875 368.79688 73.484375ZM374.54688 74.40625L374.54688 74.265625Q374.54688 73.578125 374.73438 73.0Q374.9375 72.40625 375.3125 71.96875Q375.6875 71.53125 376.21875 71.296875Q376.75 71.046875 377.42188 71.046875Q378.07812 71.046875 378.60938 71.296875Q379.15625 71.53125 379.53125 71.96875Q379.90625 72.40625 380.10938 73.0Q380.3125 73.578125 380.3125 74.265625L380.3125 74.40625Q380.3125 75.078125 380.10938 75.671875Q379.90625 76.25 379.53125 76.6875Q379.15625 77.125 378.625 77.375Q378.09375 77.625 377.42188 77.625Q376.76562 77.625 376.21875 77.375Q375.6875 77.125 375.3125 76.6875Q374.9375 76.25 374.73438 75.671875Q374.54688 75.078125 374.54688 74.40625ZM375.625 74.265625L375.625 74.40625Q375.625 74.875 375.73438 75.296875Q375.84375 75.71875 376.0625 76.046875Q376.29688 76.359375 376.64062 76.546875Q376.98438 76.71875 377.42188 76.71875Q377.875 76.71875 378.20312 76.546875Q378.54688 76.359375 378.76562 76.046875Q379.0 75.71875 379.10938 75.296875Q379.21875 74.875 379.21875 74.40625L379.21875 74.265625Q379.21875 73.796875 379.10938 73.375Q379.0 72.953125 378.76562 72.640625Q378.54688 72.3125 378.20312 72.125Q377.875 71.9375 377.42188 71.9375Q376.96875 71.9375 376.625 72.125Q376.29688 72.3125 376.0625 72.640625Q375.84375 72.953125 375.73438 73.375Q375.625 73.796875 375.625 74.265625ZM382.90625 72.515625L382.90625 77.5L381.82812 77.5L381.82812 71.15625L382.85938 71.15625L382.90625 72.515625ZM382.65625 74.09375L382.20312 74.078125Q382.20312 73.421875 382.39062 72.875Q382.57812 72.3125 382.92188 71.90625Q383.26562 71.5 383.73438 71.28125Q384.20312 71.046875 384.78125 71.046875Q385.25 71.046875 385.625 71.171875Q386.0 71.296875 386.26562 71.578125Q386.53125 71.84375 386.67188 72.28125Q386.8125 72.71875 386.8125 73.34375L386.8125 77.5L385.71875 77.5L385.71875 73.328125Q385.71875 72.828125 385.57812 72.53125Q385.4375 72.234375 385.15625 72.09375Q384.875 71.953125 384.45312 71.953125Q384.04688 71.953125 383.71875 72.125Q383.39062 72.296875 383.15625 72.59375Q382.92188 72.890625 382.78125 73.28125Q382.65625 73.65625 382.65625 74.09375ZM391.45312 77.625Q390.79688 77.625 390.25 77.40625Q389.71875 77.171875 389.32812 76.765625Q388.95312 76.34375 388.75 75.78125Q388.54688 75.21875 388.54688 74.546875L388.54688 74.3125Q388.54688 73.53125 388.76562 72.921875Q389.0 72.3125 389.39062 71.890625Q389.78125 71.46875 390.28125 71.265625Q390.78125 71.046875 391.3125 71.046875Q392.0 71.046875 392.48438 71.28125Q392.98438 71.515625 393.29688 71.9375Q393.625 72.34375 393.76562 72.921875Q393.92188 73.484375 393.92188 74.140625L393.92188 74.640625L389.1875 74.640625L389.1875 73.75L392.84375 73.75L392.84375 73.671875Q392.8125 73.25 392.65625 72.859375Q392.51562 72.453125 392.1875 72.203125Q391.875 71.9375 391.3125 71.9375Q390.95312 71.9375 390.64062 72.09375Q390.32812 72.25 390.09375 72.5625Q389.875 72.859375 389.75 73.296875Q389.64062 73.734375 389.64062 74.3125L389.64062 74.546875Q389.64062 75.0 389.76562 75.40625Q389.89062 75.796875 390.125 76.09375Q390.375 76.390625 390.71875 76.5625Q391.07812 76.734375 391.51562 76.734375Q392.09375 76.734375 392.48438 76.5Q392.89062 76.265625 393.1875 75.875L393.84375 76.390625Q393.64062 76.703125 393.3125 76.984375Q393.0 77.265625 392.53125 77.453125Q392.07812 77.625 391.45312 77.625ZM395.90625 72.515625L395.90625 77.5L394.82812 77.5L394.82812 71.15625L395.85938 71.15625L395.90625 72.515625ZM395.65625 74.09375L395.20312 74.078125Q395.20312 73.421875 395.39062 72.875Q395.57812 72.3125 395.92188 71.90625Q396.26562 71.5 396.73438 71.28125Q397.20312 71.046875 397.78125 71.046875Q398.25 71.046875 398.625 71.171875Q399.0 71.296875 399.26562 71.578125Q399.53125 71.84375 399.67188 72.28125Q399.8125 72.71875 399.8125 73.34375L399.8125 77.5L398.71875 77.5L398.71875 73.328125Q398.71875 72.828125 398.57812 72.53125Q398.4375 72.234375 398.15625 72.09375Q397.875 71.953125 397.45312 71.953125Q397.04688 71.953125 396.71875 72.125Q396.39062 72.296875 396.15625 72.59375Q395.92188 72.890625 395.78125 73.28125Q395.65625 73.65625 395.65625 74.09375Z" fill-rule="nonzero"/><path stroke="#cccccc" stroke-width="1.0" stroke-linecap="butt" d="M372.0 305.0L547.0 204.0" fill-rule="nonzero"/><path fill="#000000" d="M543.6406 190.78125L544.7656 190.78125Q544.6719 191.59375 544.2969 192.23438Q543.9219 192.875 543.2344 193.25Q542.5625 193.625 541.53125 193.625Q540.78125 193.625 540.1719 193.34375Q539.5625 193.04688 539.1094 192.53125Q538.6719 192.01562 538.4375 191.29688Q538.2031 190.5625 538.2031 189.65625L538.2031 188.8125Q538.2031 187.92188 538.4375 187.1875Q538.6719 186.45312 539.125 185.9375Q539.5781 185.40625 540.2031 185.125Q540.84375 184.84375 541.625 184.84375Q542.59375 184.84375 543.2656 185.21875Q543.9375 185.57812 544.2969 186.21875Q544.6719 186.85938 544.7656 187.70312L543.6406 187.70312Q543.5625 187.10938 543.3281 186.6875Q543.1094 186.25 542.7031 186.01562Q542.2969 185.78125 541.625 185.78125Q541.0625 185.78125 540.625 186.0Q540.2031 186.20312 539.90625 186.60938Q539.625 187.0 539.46875 187.5625Q539.3281 188.125 539.3281 188.79688L539.3281 189.65625Q539.3281 190.28125 539.4531 190.84375Q539.59375 191.39062 539.8594 191.8125Q540.125 192.21875 540.5469 192.46875Q540.96875 192.70312 541.53125 192.70312Q542.25 192.70312 542.6719 192.46875Q543.1094 192.23438 543.3281 191.8125Q543.5469 191.39062 543.6406 190.78125ZM550.0625 192.42188L550.0625 189.15625Q550.0625 188.78125 549.90625 188.5Q549.7656 188.21875 549.46875 188.07812Q549.1719 187.92188 548.7344 187.92188Q548.3125 187.92188 548.0 188.0625Q547.7031 188.20312 547.53125 188.4375Q547.3594 188.65625 547.3594 188.92188L546.28125 188.92188Q546.28125 188.57812 546.4531 188.25Q546.625 187.90625 546.9531 187.64062Q547.28125 187.35938 547.75 187.20312Q548.21875 187.04688 548.7969 187.04688Q549.4844 187.04688 550.0156 187.28125Q550.5469 187.51562 550.84375 187.98438Q551.15625 188.45312 551.15625 189.15625L551.15625 192.10938Q551.15625 192.4375 551.2031 192.79688Q551.2656 193.14062 551.375 193.40625L551.375 193.5L550.2344 193.5Q550.15625 193.3125 550.1094 193.0Q550.0625 192.6875 550.0625 192.42188ZM550.25 189.65625L550.2656 190.42188L549.1719 190.42188Q548.7031 190.42188 548.34375 190.5Q547.9844 190.5625 547.7344 190.71875Q547.4844 190.85938 547.3594 191.07812Q547.2344 191.29688 547.2344 191.59375Q547.2344 191.89062 547.3594 192.14062Q547.5 192.375 547.7656 192.53125Q548.0469 192.67188 548.4375 192.67188Q548.9375 192.67188 549.3125 192.46875Q549.7031 192.25 549.9219 191.95312Q550.15625 191.64062 550.1719 191.34375L550.6406 191.875Q550.59375 192.10938 550.40625 192.42188Q550.2344 192.71875 549.9219 193.0Q549.625 193.26562 549.2031 193.45312Q548.7969 193.625 548.28125 193.625Q547.6406 193.625 547.15625 193.375Q546.6719 193.10938 546.40625 192.6875Q546.1406 192.26562 546.1406 191.73438Q546.1406 191.21875 546.3281 190.84375Q546.53125 190.45312 546.90625 190.1875Q547.28125 189.92188 547.8125 189.79688Q548.34375 189.65625 549.0 189.65625L550.25 189.65625ZM554.40625 188.15625L554.40625 193.5L553.3281 193.5L553.3281 187.15625L554.375 187.15625L554.40625 188.15625ZM556.3906 187.125L556.3906 188.125Q556.25 188.10938 556.125 188.09375Q556.0156 188.07812 555.8594 188.07812Q555.4844 188.07812 555.1875 188.20312Q554.90625 188.3125 554.7031 188.53125Q554.5156 188.73438 554.3906 189.03125Q554.28125 189.32812 554.25 189.67188L553.9375 189.84375Q553.9375 189.26562 554.0469 188.76562Q554.1719 188.26562 554.40625 187.875Q554.65625 187.48438 555.0156 187.26562Q555.3906 187.04688 555.90625 187.04688Q556.03125 187.04688 556.1719 187.07812Q556.3281 187.09375 556.3906 187.125ZM559.1094 192.84375L560.875 187.15625L562.03125 187.15625L559.4844 194.48438Q559.40625 194.71875 559.25 194.98438Q559.1094 195.26562 558.8906 195.5Q558.6719 195.75 558.3594 195.90625Q558.0469 196.0625 557.6094 196.0625Q557.4844 196.0625 557.28125 196.01562Q557.0781 195.98438 557.0 195.96875L557.0 195.09375Q557.0469 195.09375 557.1406 195.09375Q557.25 195.10938 557.28125 195.10938Q557.65625 195.10938 557.90625 195.01562Q558.1719 194.92188 558.34375 194.6875Q558.53125 194.46875 558.65625 194.07812L559.1094 192.84375ZM557.8125 187.15625L559.4531 192.07812L559.7344 193.21875L558.96875 193.625L556.625 187.15625L557.8125 187.15625ZM563.0469 190.40625L563.0469 190.26562Q563.0469 189.57812 563.2344 189.0Q563.4375 188.40625 563.8125 187.96875Q564.1875 187.53125 564.71875 187.29688Q565.25 187.04688 565.9219 187.04688Q566.5781 187.04688 567.1094 187.29688Q567.65625 187.53125 568.03125 187.96875Q568.40625 188.40625 568.6094 189.0Q568.8125 189.57812 568.8125 190.26562L568.8125 190.40625Q568.8125 191.07812 568.6094 191.67188Q568.40625 192.25 568.03125 192.6875Q567.65625 193.125 567.125 193.375Q566.59375 193.625 565.9219 193.625Q565.2656 193.625 564.71875 193.375Q564.1875 193.125 563.8125 192.6875Q563.4375 192.25 563.2344 191.67188Q563.0469 191.07812 563.0469 190.40625ZM564.125 190.26562L564.125 190.40625Q564.125 190.875 564.2344 191.29688Q564.34375 191.71875 564.5625 192.04688Q564.7969 192.35938 565.1406 192.54688Q565.4844 192.71875 565.9219 192.71875Q566.375 192.71875 566.7031 192.54688Q567.0469 192.35938 567.2656 192.04688Q567.5 191.71875 567.6094 191.29688Q567.71875 190.875 567.71875 190.40625L567.71875 190.26562Q567.71875 189.79688 567.6094 189.375Q567.5 188.95312 567.2656 188.64062Q567.0469 188.3125 566.7031 188.125Q566.375 187.9375 565.9219 187.9375Q565.46875 187.9375 565.125 188.125Q564.7969 188.3125 564.5625 188.64062Q564.34375 188.95312 564.2344 189.375Q564.125 189.79688 564.125 190.26562ZM571.40625 188.375L571.40625 195.9375L570.3281 195.9375L570.3281 187.15625L571.3125 187.15625L571.40625 188.375ZM575.6875 190.28125L575.6875 190.40625Q575.6875 191.09375 575.5156 191.6875Q575.3594 192.26562 575.0469 192.70312Q574.7344 193.14062 574.2656 193.39062Q573.8125 193.625 573.21875 193.625Q572.625 193.625 572.15625 193.42188Q571.6875 193.21875 571.3594 192.84375Q571.0469 192.45312 570.8594 191.92188Q570.6719 191.39062 570.59375 190.71875L570.59375 190.0625Q570.6719 189.35938 570.8594 188.8125Q571.0469 188.25 571.3594 187.85938Q571.6875 187.45312 572.1406 187.25Q572.6094 187.04688 573.2031 187.04688Q573.7969 187.04688 574.2656 187.28125Q574.7344 187.5 575.0469 187.9375Q575.3594 188.35938 575.5156 188.95312Q575.6875 189.54688 575.6875 190.28125ZM574.59375 190.40625L574.59375 190.28125Q574.59375 189.79688 574.4844 189.39062Q574.3906 188.96875 574.1875 188.65625Q573.9844 188.32812 573.65625 188.14062Q573.3281 187.95312 572.8906 187.95312Q572.4844 187.95312 572.1719 188.09375Q571.875 188.23438 571.65625 188.48438Q571.4531 188.71875 571.3125 189.01562Q571.1875 189.3125 571.125 189.64062L571.125 191.15625Q571.2344 191.5625 571.4375 191.92188Q571.65625 192.28125 572.0 192.5Q572.3594 192.71875 572.90625 192.71875Q573.34375 192.71875 573.65625 192.54688Q573.9844 192.35938 574.1875 192.04688Q574.3906 191.71875 574.4844 191.29688Q574.59375 190.875 574.59375 190.40625ZM578.40625 184.5L578.40625 193.5L577.3281 193.5L577.3281 184.5L578.40625 184.5ZM578.15625 190.09375L577.7031 190.07812Q577.7031 189.42188 577.8906 188.875Q578.0781 188.3125 578.4219 187.90625Q578.7656 187.5 579.2344 187.28125Q579.7031 187.04688 580.28125 187.04688Q580.75 187.04688 581.125 187.17188Q581.5 187.29688 581.7656 187.57812Q582.03125 187.84375 582.1719 188.28125Q582.3125 188.71875 582.3125 189.34375L582.3125 193.5L581.21875 193.5L581.21875 189.32812Q581.21875 188.82812 581.0781 188.53125Q580.9375 188.23438 580.65625 188.09375Q580.375 187.95312 579.9531 187.95312Q579.5469 187.95312 579.21875 188.125Q578.8906 188.29688 578.65625 188.59375Q578.4219 188.89062 578.28125 189.28125Q578.15625 189.65625 578.15625 190.09375ZM586.1094 192.84375L587.875 187.15625L589.03125 187.15625L586.4844 194.48438Q586.40625 194.71875 586.25 194.98438Q586.1094 195.26562 585.8906 195.5Q585.6719 195.75 585.3594 195.90625Q585.0469 196.0625 584.6094 196.0625Q584.4844 196.0625 584.28125 196.01562Q584.0781 195.98438 584.0 195.96875L584.0 195.09375Q584.0469 195.09375 584.1406 195.09375Q584.25 195.10938 584.28125 195.10938Q584.65625 195.10938 584.90625 195.01562Q585.1719 194.92188 585.34375 194.6875Q585.53125 194.46875 585.65625 194.07812L586.1094 192.84375ZM584.8125 187.15625L586.4531 192.07812L586.7344 193.21875L585.96875 193.625L583.625 187.15625L584.8125 187.15625ZM591.5 184.5L591.5 193.5L590.4219 193.5L590.4219 184.5L591.5 184.5ZM594.5 184.5L594.5 193.5L593.4219 193.5L593.4219 184.5L594.5 184.5ZM598.9531 193.625Q598.2969 193.625 597.75 193.40625Q597.21875 193.17188 596.8281 192.76562Q596.4531 192.34375 596.25 191.78125Q596.0469 191.21875 596.0469 190.54688L596.0469 190.3125Q596.0469 189.53125 596.2656 188.92188Q596.5 188.3125 596.8906 187.89062Q597.28125 187.46875 597.78125 187.26562Q598.28125 187.04688 598.8125 187.04688Q599.5 187.04688 599.9844 187.28125Q600.4844 187.51562 600.7969 187.9375Q601.125 188.34375 601.2656 188.92188Q601.4219 189.48438 601.4219 190.14062L601.4219 190.64062L596.6875 190.64062L596.6875 189.75L600.34375 189.75L600.34375 189.67188Q600.3125 189.25 600.15625 188.85938Q600.0156 188.45312 599.6875 188.20312Q599.375 187.9375 598.8125 187.9375Q598.4531 187.9375 598.1406 188.09375Q597.8281 188.25 597.59375 188.5625Q597.375 188.85938 597.25 189.29688Q597.1406 189.73438 597.1406 190.3125L597.1406 190.54688Q597.1406 191.0 597.2656 191.40625Q597.3906 191.79688 597.625 192.09375Q597.875 192.39062 598.21875 192.5625Q598.5781 192.73438 599.0156 192.73438Q599.59375 192.73438 599.9844 192.5Q600.3906 192.26562 600.6875 191.875L601.34375 192.39062Q601.1406 192.70312 600.8125 192.98438Q600.5 193.26562 600.03125 193.45312Q599.5781 193.625 598.9531 193.625ZM603.40625 188.51562L603.40625 193.5L602.3281 193.5L602.3281 187.15625L603.3594 187.15625L603.40625 188.51562ZM603.15625 190.09375L602.7031 190.07812Q602.7031 189.42188 602.8906 188.875Q603.0781 188.3125 603.4219 187.90625Q603.7656 187.5 604.2344 187.28125Q604.7031 187.04688 605.28125 187.04688Q605.75 187.04688 606.125 187.17188Q606.5 187.29688 606.7656 187.57812Q607.03125 187.84375 607.1719 188.28125Q607.3125 188.71875 607.3125 189.34375L607.3125 193.5L606.21875 193.5L606.21875 189.32812Q606.21875 188.82812 606.0781 188.53125Q605.9375 188.23438 605.65625 188.09375Q605.375 187.95312 604.9531 187.95312Q604.5469 187.95312 604.21875 188.125Q603.8906 188.29688 603.65625 188.59375Q603.4219 188.89062 603.28125 189.28125Q603.15625 189.65625 603.15625 190.09375Z" fill-rule="nonzero"/><path stroke="#cccccc" stroke-width="1.0" stroke-linecap="butt" d="M372.0 305.0L547.0 406.0" fill-rule="nonzero"/><path fill="#000000" d="M557.6719 424.57812L557.6719 425.5L553.40625 425.5L553.40625 424.57812L557.6719 424.57812ZM553.625 416.96875L553.625 425.5L552.4844 425.5L552.4844 416.96875L553.625 416.96875ZM559.5 419.15625L559.5 425.5L558.4219 425.5L558.4219 419.15625L559.5 419.15625ZM558.3281 417.48438Q558.3281 417.21875 558.4844 417.03125Q558.65625 416.84375 558.96875 416.84375Q559.28125 416.84375 559.4375 417.03125Q559.6094 417.21875 559.6094 417.48438Q559.6094 417.73438 559.4375 417.92188Q559.28125 418.09375 558.96875 418.09375Q558.65625 418.09375 558.4844 417.92188Q558.3281 417.73438 558.3281 417.48438ZM562.40625 420.51562L562.40625 425.5L561.3281 425.5L561.3281 419.15625L562.3594 419.15625L562.40625 420.51562ZM562.15625 422.09375L561.7031 422.07812Q561.7031 421.42188 561.8906 420.875Q562.0781 420.3125 562.4219 419.90625Q562.7656 419.5 563.2344 419.28125Q563.7031 419.04688 564.28125 419.04688Q564.75 419.04688 565.125 419.17188Q565.5 419.29688 565.7656 419.57812Q566.03125 419.84375 566.1719 420.28125Q566.3125 420.71875 566.3125 421.34375L566.3125 425.5L565.21875 425.5L565.21875 421.32812Q565.21875 420.82812 565.0781 420.53125Q564.9375 420.23438 564.65625 420.09375Q564.375 419.95312 563.9531 419.95312Q563.5469 419.95312 563.21875 420.125Q562.8906 420.29688 562.65625 420.59375Q562.4219 420.89062 562.28125 421.28125Q562.15625 421.65625 562.15625 422.09375ZM572.0625 424.42188L572.0625 421.15625Q572.0625 420.78125 571.90625 420.5Q571.7656 420.21875 571.46875 420.07812Q571.1719 419.92188 570.7344 419.92188Q570.3125 419.92188 570.0 420.0625Q569.7031 420.20312 569.53125 420.4375Q569.3594 420.65625 569.3594 420.92188L568.28125 420.92188Q568.28125 420.57812 568.4531 420.25Q568.625 419.90625 568.9531 419.64062Q569.28125 419.35938 569.75 419.20312Q570.21875 419.04688 570.7969 419.04688Q571.4844 419.04688 572.0156 419.28125Q572.5469 419.51562 572.84375 419.98438Q573.15625 420.45312 573.15625 421.15625L573.15625 424.10938Q573.15625 424.4375 573.2031 424.79688Q573.2656 425.14062 573.375 425.40625L573.375 425.5L572.2344 425.5Q572.15625 425.3125 572.1094 425.0Q572.0625 424.6875 572.0625 424.42188ZM572.25 421.65625L572.2656 422.42188L571.1719 422.42188Q570.7031 422.42188 570.34375 422.5Q569.9844 422.5625 569.7344 422.71875Q569.4844 422.85938 569.3594 423.07812Q569.2344 423.29688 569.2344 423.59375Q569.2344 423.89062 569.3594 424.14062Q569.5 424.375 569.7656 424.53125Q570.0469 424.67188 570.4375 424.67188Q570.9375 424.67188 571.3125 424.46875Q571.7031 424.25 571.9219 423.95312Q572.15625 423.64062 572.1719 423.34375L572.6406 423.875Q572.59375 424.10938 572.40625 424.42188Q572.2344 424.71875 571.9219 425.0Q571.625 425.26562 571.2031 425.45312Q570.7969 425.625 570.28125 425.625Q569.6406 425.625 569.15625 425.375Q568.6719 425.10938 568.40625 424.6875Q568.1406 424.26562 568.1406 423.73438Q568.1406 423.21875 568.3281 422.84375Q568.53125 422.45312 568.90625 422.1875Q569.28125 421.92188 569.8125 421.79688Q570.34375 421.65625 571.0 421.65625L572.25 421.65625ZM576.5 416.5L576.5 425.5L575.4219 425.5L575.4219 416.5L576.5 416.5ZM578.0469 422.40625L578.0469 422.26562Q578.0469 421.57812 578.2344 421.0Q578.4375 420.40625 578.8125 419.96875Q579.1875 419.53125 579.71875 419.29688Q580.25 419.04688 580.9219 419.04688Q581.5781 419.04688 582.1094 419.29688Q582.65625 419.53125 583.03125 419.96875Q583.40625 420.40625 583.6094 421.0Q583.8125 421.57812 583.8125 422.26562L583.8125 422.40625Q583.8125 423.07812 583.6094 423.67188Q583.40625 424.25 583.03125 424.6875Q582.65625 425.125 582.125 425.375Q581.59375 425.625 580.9219 425.625Q580.2656 425.625 579.71875 425.375Q579.1875 425.125 578.8125 424.6875Q578.4375 424.25 578.2344 423.67188Q578.0469 423.07812 578.0469 422.40625ZM579.125 422.26562L579.125 422.40625Q579.125 422.875 579.2344 423.29688Q579.34375 423.71875 579.5625 424.04688Q579.7969 424.35938 580.1406 424.54688Q580.4844 424.71875 580.9219 424.71875Q581.375 424.71875 581.7031 424.54688Q582.0469 424.35938 582.2656 424.04688Q582.5 423.71875 582.6094 423.29688Q582.71875 422.875 582.71875 422.40625L582.71875 422.26562Q582.71875 421.79688 582.6094 421.375Q582.5 420.95312 582.2656 420.64062Q582.0469 420.3125 581.7031 420.125Q581.375 419.9375 580.9219 419.9375Q580.46875 419.9375 580.125 420.125Q579.7969 420.3125 579.5625 420.64062Q579.34375 420.95312 579.2344 421.375Q579.125 421.79688 579.125 422.26562ZM585.0469 422.40625L585.0469 422.26562Q585.0469 421.57812 585.2344 421.0Q585.4375 420.40625 585.8125 419.96875Q586.1875 419.53125 586.71875 419.29688Q587.25 419.04688 587.9219 419.04688Q588.5781 419.04688 589.1094 419.29688Q589.65625 419.53125 590.03125 419.96875Q590.40625 420.40625 590.6094 421.0Q590.8125 421.57812 590.8125 422.26562L590.8125 422.40625Q590.8125 423.07812 590.6094 423.67188Q590.40625 424.25 590.03125 424.6875Q589.65625 425.125 589.125 425.375Q588.59375 425.625 587.9219 425.625Q587.2656 425.625 586.71875 425.375Q586.1875 425.125 585.8125 424.6875Q585.4375 424.25 585.2344 423.67188Q585.0469 423.07812 585.0469 422.40625ZM586.125 422.26562L586.125 422.40625Q586.125 422.875 586.2344 423.29688Q586.34375 423.71875 586.5625 424.04688Q586.7969 424.35938 587.1406 424.54688Q587.4844 424.71875 587.9219 424.71875Q588.375 424.71875 588.7031 424.54688Q589.0469 424.35938 589.2656 424.04688Q589.5 423.71875 589.6094 423.29688Q589.71875 422.875 589.71875 422.40625L589.71875 422.26562Q589.71875 421.79688 589.6094 421.375Q589.5 420.95312 589.2656 420.64062Q589.0469 420.3125 588.7031 420.125Q588.375 419.9375 587.9219 419.9375Q587.46875 419.9375 587.125 420.125Q586.7969 420.3125 586.5625 420.64062Q586.34375 420.95312 586.2344 421.375Q586.125 421.79688 586.125 422.26562ZM593.5 416.5L593.5 425.5L592.4219 425.5L592.4219 416.5L593.5 416.5Z" fill-rule="nonzero"/><path stroke="#cccccc" stroke-width="1.0" stroke-linecap="butt" d="M372.0 305.0L372.0 507.0" fill-rule="nonzero"/><path fill="#000000" d="M344.79688 537.25L344.79688 540.375Q344.64062 540.6094 344.29688 540.90625Q343.95312 541.1875 343.34375 541.40625Q342.73438 541.625 341.78125 541.625Q341.0 541.625 340.34375 541.3594Q339.6875 541.0781 339.20312 540.5469Q338.73438 540.0156 338.46875 539.2656Q338.21875 538.5156 338.21875 537.5625L338.21875 536.90625Q338.21875 535.9375 338.4375 535.1875Q338.67188 534.4375 339.10938 533.9219Q339.54688 533.3906 340.1875 533.125Q340.82812 532.84375 341.65625 532.84375Q342.625 532.84375 343.28125 533.1875Q343.95312 533.53125 344.3125 534.125Q344.6875 534.7031 344.79688 535.46875L343.67188 535.46875Q343.59375 535.0 343.35938 534.625Q343.14062 534.2344 342.71875 534.0156Q342.3125 533.78125 341.65625 533.78125Q341.0625 533.78125 340.625 534.0Q340.1875 534.2031 339.90625 534.6094Q339.625 535.0156 339.48438 535.59375Q339.35938 536.1719 339.35938 536.8906L339.35938 537.5625Q339.35938 538.2969 339.53125 538.875Q339.70312 539.4531 340.01562 539.875Q340.34375 540.28125 340.78125 540.5Q341.23438 540.7031 341.78125 540.7031Q342.39062 540.7031 342.76562 540.59375Q343.14062 540.4844 343.34375 540.34375Q343.5625 540.2031 343.67188 540.0781L343.67188 538.1719L341.70312 538.1719L341.70312 537.25L344.79688 537.25ZM348.95312 541.625Q348.29688 541.625 347.75 541.40625Q347.21875 541.1719 346.82812 540.7656Q346.45312 540.34375 346.25 539.78125Q346.04688 539.21875 346.04688 538.5469L346.04688 538.3125Q346.04688 537.53125 346.26562 536.9219Q346.5 536.3125 346.89062 535.8906Q347.28125 535.46875 347.78125 535.2656Q348.28125 535.0469 348.8125 535.0469Q349.5 535.0469 349.98438 535.28125Q350.48438 535.5156 350.79688 535.9375Q351.125 536.34375 351.26562 536.9219Q351.42188 537.4844 351.42188 538.1406L351.42188 538.6406L346.6875 538.6406L346.6875 537.75L350.34375 537.75L350.34375 537.6719Q350.3125 537.25 350.15625 536.8594Q350.01562 536.4531 349.6875 536.2031Q349.375 535.9375 348.8125 535.9375Q348.45312 535.9375 348.14062 536.09375Q347.82812 536.25 347.59375 536.5625Q347.375 536.8594 347.25 537.2969Q347.14062 537.7344 347.14062 538.3125L347.14062 538.5469Q347.14062 539.0 347.26562 539.40625Q347.39062 539.7969 347.625 540.09375Q347.875 540.3906 348.21875 540.5625Q348.57812 540.7344 349.01562 540.7344Q349.59375 540.7344 349.98438 540.5Q350.39062 540.2656 350.6875 539.875L351.34375 540.3906Q351.14062 540.7031 350.8125 540.9844Q350.5 541.2656 350.03125 541.4531Q349.57812 541.625 348.95312 541.625ZM353.40625 536.15625L353.40625 541.5L352.32812 541.5L352.32812 535.15625L353.375 535.15625L353.40625 536.15625ZM355.39062 535.125L355.39062 536.125Q355.25 536.1094 355.125 536.09375Q355.01562 536.0781 354.85938 536.0781Q354.48438 536.0781 354.1875 536.2031Q353.90625 536.3125 353.70312 536.53125Q353.51562 536.7344 353.39062 537.03125Q353.28125 537.3281 353.25 537.6719L352.9375 537.84375Q352.9375 537.2656 353.04688 536.7656Q353.17188 536.2656 353.40625 535.875Q353.65625 535.4844 354.01562 535.2656Q354.39062 535.0469 354.90625 535.0469Q355.03125 535.0469 355.17188 535.0781Q355.32812 535.09375 355.39062 535.125ZM357.40625 536.4219L357.40625 541.5L356.3125 541.5L356.3125 535.15625L357.34375 535.15625L357.40625 536.4219ZM357.1875 538.09375L356.67188 538.0781Q356.6875 537.4219 356.84375 536.875Q357.01562 536.3125 357.32812 535.90625Q357.65625 535.5 358.14062 535.28125Q358.625 535.0469 359.25 535.0469Q359.70312 535.0469 360.07812 535.1719Q360.45312 535.2969 360.71875 535.5625Q361.0 535.8281 361.14062 536.25Q361.29688 536.6719 361.29688 537.28125L361.29688 541.5L360.21875 541.5L360.21875 537.3281Q360.21875 536.8281 360.04688 536.53125Q359.89062 536.2344 359.57812 536.09375Q359.28125 535.9531 358.85938 535.9531Q358.39062 535.9531 358.0625 536.125Q357.73438 536.2969 357.54688 536.59375Q357.35938 536.8906 357.26562 537.28125Q357.1875 537.65625 357.1875 538.09375ZM361.29688 537.4844L360.5625 537.71875Q360.5625 537.1875 360.73438 536.71875Q360.90625 536.2344 361.21875 535.8594Q361.54688 535.4844 362.01562 535.2656Q362.48438 535.0469 363.07812 535.0469Q363.59375 535.0469 363.98438 535.1875Q364.39062 535.3125 364.65625 535.59375Q364.92188 535.875 365.0625 536.3125Q365.20312 536.7344 365.20312 537.3281L365.20312 541.5L364.125 541.5L364.125 537.3281Q364.125 536.78125 363.95312 536.5Q363.78125 536.2031 363.48438 536.0781Q363.1875 535.9531 362.76562 535.9531Q362.40625 535.9531 362.125 536.0781Q361.85938 536.2031 361.67188 536.4219Q361.48438 536.625 361.39062 536.90625Q361.29688 537.1875 361.29688 537.4844ZM371.0625 540.4219L371.0625 537.15625Q371.0625 536.78125 370.90625 536.5Q370.76562 536.21875 370.46875 536.0781Q370.17188 535.9219 369.73438 535.9219Q369.3125 535.9219 369.0 536.0625Q368.70312 536.2031 368.53125 536.4375Q368.35938 536.65625 368.35938 536.9219L367.28125 536.9219Q367.28125 536.5781 367.45312 536.25Q367.625 535.90625 367.95312 535.6406Q368.28125 535.3594 368.75 535.2031Q369.21875 535.0469 369.79688 535.0469Q370.48438 535.0469 371.01562 535.28125Q371.54688 535.5156 371.84375 535.9844Q372.15625 536.4531 372.15625 537.15625L372.15625 540.1094Q372.15625 540.4375 372.20312 540.7969Q372.26562 541.1406 372.375 541.40625L372.375 541.5L371.23438 541.5Q371.15625 541.3125 371.10938 541.0Q371.0625 540.6875 371.0625 540.4219ZM371.25 537.65625L371.26562 538.4219L370.17188 538.4219Q369.70312 538.4219 369.34375 538.5Q368.98438 538.5625 368.73438 538.71875Q368.48438 538.8594 368.35938 539.0781Q368.23438 539.2969 368.23438 539.59375Q368.23438 539.8906 368.35938 540.1406Q368.5 540.375 368.76562 540.53125Q369.04688 540.6719 369.4375 540.6719Q369.9375 540.6719 370.3125 540.46875Q370.70312 540.25 370.92188 539.9531Q371.15625 539.6406 371.17188 539.34375L371.64062 539.875Q371.59375 540.1094 371.40625 540.4219Q371.23438 540.71875 370.92188 541.0Q370.625 541.2656 370.20312 541.4531Q369.79688 541.625 369.28125 541.625Q368.64062 541.625 368.15625 541.375Q367.67188 541.1094 367.40625 540.6875Q367.14062 540.2656 367.14062 539.7344Q367.14062 539.21875 367.32812 538.84375Q367.53125 538.4531 367.90625 538.1875Q368.28125 537.9219 368.8125 537.7969Q369.34375 537.65625 370.0 537.65625L371.25 537.65625ZM376.85938 540.71875Q377.25 540.71875 377.57812 540.5625Q377.90625 540.40625 378.10938 540.1406Q378.32812 539.8594 378.35938 539.5L379.39062 539.5Q379.35938 540.0625 379.0 540.5469Q378.65625 541.03125 378.09375 541.3281Q377.53125 541.625 376.85938 541.625Q376.15625 541.625 375.625 541.375Q375.09375 541.1094 374.73438 540.6719Q374.39062 540.2344 374.21875 539.6719Q374.04688 539.09375 374.04688 538.4531L374.04688 538.2031Q374.04688 537.5625 374.21875 537.0Q374.39062 536.4219 374.73438 535.9844Q375.09375 535.5469 375.625 535.2969Q376.15625 535.0469 376.85938 535.0469Q377.60938 535.0469 378.15625 535.34375Q378.71875 535.6406 379.03125 536.1719Q379.35938 536.6875 379.39062 537.34375L378.35938 537.34375Q378.32812 536.9531 378.14062 536.6406Q377.95312 536.3125 377.625 536.125Q377.29688 535.9375 376.85938 535.9375Q376.35938 535.9375 376.01562 536.1406Q375.6875 536.3281 375.48438 536.65625Q375.29688 536.9844 375.20312 537.3906Q375.125 537.7969 375.125 538.2031L375.125 538.4531Q375.125 538.875 375.20312 539.28125Q375.29688 539.6719 375.48438 540.0Q375.6875 540.3281 376.01562 540.53125Q376.35938 540.71875 376.85938 540.71875ZM381.40625 536.15625L381.40625 541.5L380.32812 541.5L380.32812 535.15625L381.375 535.15625L381.40625 536.15625ZM383.39062 535.125L383.39062 536.125Q383.25 536.1094 383.125 536.09375Q383.01562 536.0781 382.85938 536.0781Q382.48438 536.0781 382.1875 536.2031Q381.90625 536.3125 381.70312 536.53125Q381.51562 536.7344 381.39062 537.03125Q381.28125 537.3281 381.25 537.6719L380.9375 537.84375Q380.9375 537.2656 381.04688 536.7656Q381.17188 536.2656 381.40625 535.875Q381.65625 535.4844 382.01562 535.2656Q382.39062 535.0469 382.90625 535.0469Q383.03125 535.0469 383.17188 535.0781Q383.32812 535.09375 383.39062 535.125ZM386.95312 541.625Q386.29688 541.625 385.75 541.40625Q385.21875 541.1719 384.82812 540.7656Q384.45312 540.34375 384.25 539.78125Q384.04688 539.21875 384.04688 538.5469L384.04688 538.3125Q384.04688 537.53125 384.26562 536.9219Q384.5 536.3125 384.89062 535.8906Q385.28125 535.46875 385.78125 535.2656Q386.28125 535.0469 386.8125 535.0469Q387.5 535.0469 387.98438 535.28125Q388.48438 535.5156 388.79688 535.9375Q389.125 536.34375 389.26562 536.9219Q389.42188 537.4844 389.42188 538.1406L389.42188 538.6406L384.6875 538.6406L384.6875 537.75L388.34375 537.75L388.34375 537.6719Q388.3125 537.25 388.15625 536.8594Q388.01562 536.4531 387.6875 536.2031Q387.375 535.9375 386.8125 535.9375Q386.45312 535.9375 386.14062 536.09375Q385.82812 536.25 385.59375 536.5625Q385.375 536.8594 385.25 537.2969Q385.14062 537.7344 385.14062 538.3125L385.14062 538.5469Q385.14062 539.0 385.26562 539.40625Q385.39062 539.7969 385.625 540.09375Q385.875 540.3906 386.21875 540.5625Q386.57812 540.7344 387.01562 540.7344Q387.59375 540.7344 387.98438 540.5Q388.39062 540.2656 388.6875 539.875L389.34375 540.3906Q389.14062 540.7031 388.8125 540.9844Q388.5 541.2656 388.03125 541.4531Q387.57812 541.625 386.95312 541.625ZM391.40625 536.5156L391.40625 541.5L390.32812 541.5L390.32812 535.15625L391.35938 535.15625L391.40625 536.5156ZM391.15625 538.09375L390.70312 538.0781Q390.70312 537.4219 390.89062 536.875Q391.07812 536.3125 391.42188 535.90625Q391.76562 535.5 392.23438 535.28125Q392.70312 535.0469 393.28125 535.0469Q393.75 535.0469 394.125 535.1719Q394.5 535.2969 394.76562 535.5781Q395.03125 535.84375 395.17188 536.28125Q395.3125 536.71875 395.3125 537.34375L395.3125 541.5L394.21875 541.5L394.21875 537.3281Q394.21875 536.8281 394.07812 536.53125Q393.9375 536.2344 393.65625 536.09375Q393.375 535.9531 392.95312 535.9531Q392.54688 535.9531 392.21875 536.125Q391.89062 536.2969 391.65625 536.59375Q391.42188 536.8906 391.28125 537.28125Q391.15625 537.65625 391.15625 538.09375ZM403.53125 537.5156L401.375 537.5156L401.35938 536.59375L403.32812 536.59375Q403.8125 536.59375 404.17188 536.4375Q404.53125 536.2656 404.73438 535.96875Q404.9375 535.65625 404.9375 535.2344Q404.9375 534.7656 404.75 534.46875Q404.57812 534.1719 404.20312 534.03125Q403.84375 533.8906 403.28125 533.8906L401.625 533.8906L401.625 541.5L400.48438 541.5L400.48438 532.96875L403.28125 532.96875Q403.9375 532.96875 404.45312 533.1094Q404.96875 533.2344 405.32812 533.5156Q405.6875 533.78125 405.875 534.21875Q406.0625 534.6406 406.0625 535.2344Q406.0625 535.7656 405.79688 536.2031Q405.53125 536.625 405.04688 536.8906Q404.57812 537.15625 403.9375 537.2344L403.53125 537.5156ZM403.48438 541.5L400.92188 541.5L401.5625 540.5781L403.48438 540.5781Q404.01562 540.5781 404.39062 540.3906Q404.78125 540.2031 404.96875 539.8594Q405.17188 539.5156 405.17188 539.0469Q405.17188 538.5781 405.0 538.2344Q404.82812 537.8906 404.46875 537.7031Q404.10938 537.5156 403.53125 537.5156L401.92188 537.5156L401.9375 536.59375L404.14062 536.59375L404.375 536.9219Q404.98438 536.9844 405.40625 537.28125Q405.84375 537.5781 406.0625 538.03125Q406.29688 538.4844 406.29688 539.03125Q406.29688 539.8281 405.9375 540.3906Q405.59375 540.9375 404.95312 541.21875Q404.32812 541.5 403.48438 541.5Z" fill-rule="nonzero"/><path stroke="#cccccc" stroke-width="1.0" stroke-linecap="butt" d="M372.0 305.0L197.0 406.0" fill-rule="nonzero"/><path fill="#000000" d="M154.03125 423.34375Q154.03125 423.04688 153.9375 422.8125Q153.85938 422.57812 153.625 422.39062Q153.40625 422.20312 153.0 422.03125Q152.60938 421.85938 152.01562 421.6875Q151.375 421.5 150.85938 421.28125Q150.35938 421.04688 149.98438 420.75Q149.625 420.4375 149.4375 420.0625Q149.25 419.67188 149.25 419.17188Q149.25 418.67188 149.45312 418.25Q149.65625 417.82812 150.03125 417.51562Q150.42188 417.20312 150.95312 417.03125Q151.48438 416.84375 152.14062 416.84375Q153.10938 416.84375 153.78125 417.21875Q154.45312 417.57812 154.79688 418.17188Q155.15625 418.76562 155.15625 419.42188L154.03125 419.42188Q154.03125 418.95312 153.8125 418.57812Q153.60938 418.20312 153.1875 418.0Q152.78125 417.78125 152.14062 417.78125Q151.54688 417.78125 151.14062 417.96875Q150.75 418.14062 150.5625 418.45312Q150.375 418.76562 150.375 419.15625Q150.375 419.42188 150.48438 419.65625Q150.60938 419.875 150.84375 420.0625Q151.09375 420.25 151.46875 420.40625Q151.84375 420.5625 152.375 420.70312Q153.09375 420.90625 153.625 421.17188Q154.15625 421.42188 154.5 421.73438Q154.84375 422.04688 155.0 422.4375Q155.17188 422.82812 155.17188 423.32812Q155.17188 423.85938 154.95312 424.28125Q154.75 424.70312 154.35938 425.0Q153.96875 425.29688 153.42188 425.46875Q152.875 425.625 152.20312 425.625Q151.60938 425.625 151.03125 425.45312Q150.46875 425.28125 150.0 424.95312Q149.53125 424.625 149.25 424.15625Q148.96875 423.67188 148.96875 423.03125L150.09375 423.03125Q150.09375 423.46875 150.26562 423.78125Q150.4375 424.09375 150.73438 424.29688Q151.03125 424.5 151.40625 424.60938Q151.78125 424.70312 152.20312 424.70312Q152.79688 424.70312 153.20312 424.54688Q153.60938 424.375 153.8125 424.07812Q154.03125 423.76562 154.03125 423.34375ZM158.95312 425.625Q158.29688 425.625 157.75 425.40625Q157.21875 425.17188 156.82812 424.76562Q156.45312 424.34375 156.25 423.78125Q156.04688 423.21875 156.04688 422.54688L156.04688 422.3125Q156.04688 421.53125 156.26562 420.92188Q156.5 420.3125 156.89062 419.89062Q157.28125 419.46875 157.78125 419.26562Q158.28125 419.04688 158.8125 419.04688Q159.5 419.04688 159.98438 419.28125Q160.48438 419.51562 160.79688 419.9375Q161.125 420.34375 161.26562 420.92188Q161.42188 421.48438 161.42188 422.14062L161.42188 422.64062L156.6875 422.64062L156.6875 421.75L160.34375 421.75L160.34375 421.67188Q160.3125 421.25 160.15625 420.85938Q160.01562 420.45312 159.6875 420.20312Q159.375 419.9375 158.8125 419.9375Q158.45312 419.9375 158.14062 420.09375Q157.82812 420.25 157.59375 420.5625Q157.375 420.85938 157.25 421.29688Q157.14062 421.73438 157.14062 422.3125L157.14062 422.54688Q157.14062 423.0 157.26562 423.40625Q157.39062 423.79688 157.625 424.09375Q157.875 424.39062 158.21875 424.5625Q158.57812 424.73438 159.01562 424.73438Q159.59375 424.73438 159.98438 424.5Q160.39062 424.26562 160.6875 423.875L161.34375 424.39062Q161.14062 424.70312 160.8125 424.98438Q160.5 425.26562 160.03125 425.45312Q159.57812 425.625 158.95312 425.625ZM163.5 416.5L163.5 425.5L162.42188 425.5L162.42188 416.5L163.5 416.5ZM166.5 419.15625L166.5 425.5L165.42188 425.5L165.42188 419.15625L166.5 419.15625ZM165.32812 417.48438Q165.32812 417.21875 165.48438 417.03125Q165.65625 416.84375 165.96875 416.84375Q166.28125 416.84375 166.4375 417.03125Q166.60938 417.21875 166.60938 417.48438Q166.60938 417.73438 166.4375 417.92188Q166.28125 418.09375 165.96875 418.09375Q165.65625 418.09375 165.48438 417.92188Q165.32812 417.73438 165.32812 417.48438ZM169.40625 420.51562L169.40625 425.5L168.32812 425.5L168.32812 419.15625L169.35938 419.15625L169.40625 420.51562ZM169.15625 422.09375L168.70312 422.07812Q168.70312 421.42188 168.89062 420.875Q169.07812 420.3125 169.42188 419.90625Q169.76562 419.5 170.23438 419.28125Q170.70312 419.04688 171.28125 419.04688Q171.75 419.04688 172.125 419.17188Q172.5 419.29688 172.76562 419.57812Q173.03125 419.84375 173.17188 420.28125Q173.3125 420.71875 173.3125 421.34375L173.3125 425.5L172.21875 425.5L172.21875 421.32812Q172.21875 420.82812 172.07812 420.53125Q171.9375 420.23438 171.65625 420.09375Q171.375 419.95312 170.95312 419.95312Q170.54688 419.95312 170.21875 420.125Q169.89062 420.29688 169.65625 420.59375Q169.42188 420.89062 169.28125 421.28125Q169.15625 421.65625 169.15625 422.09375ZM177.95312 425.625Q177.29688 425.625 176.75 425.40625Q176.21875 425.17188 175.82812 424.76562Q175.45312 424.34375 175.25 423.78125Q175.04688 423.21875 175.04688 422.54688L175.04688 422.3125Q175.04688 421.53125 175.26562 420.92188Q175.5 420.3125 175.89062 419.89062Q176.28125 419.46875 176.78125 419.26562Q177.28125 419.04688 177.8125 419.04688Q178.5 419.04688 178.98438 419.28125Q179.48438 419.51562 179.79688 419.9375Q180.125 420.34375 180.26562 420.92188Q180.42188 421.48438 180.42188 422.14062L180.42188 422.64062L175.6875 422.64062L175.6875 421.75L179.34375 421.75L179.34375 421.67188Q179.3125 421.25 179.15625 420.85938Q179.01562 420.45312 178.6875 420.20312Q178.375 419.9375 177.8125 419.9375Q177.45312 419.9375 177.14062 420.09375Q176.82812 420.25 176.59375 420.5625Q176.375 420.85938 176.25 421.29688Q176.14062 421.73438 176.14062 422.3125L176.14062 422.54688Q176.14062 423.0 176.26562 423.40625Q176.39062 423.79688 176.625 424.09375Q176.875 424.39062 177.21875 424.5625Q177.57812 424.73438 178.01562 424.73438Q178.59375 424.73438 178.98438 424.5Q179.39062 424.26562 179.6875 423.875L180.34375 424.39062Q180.14062 424.70312 179.8125 424.98438Q179.5 425.26562 179.03125 425.45312Q178.57812 425.625 177.95312 425.625ZM182.40625 420.51562L182.40625 425.5L181.32812 425.5L181.32812 419.15625L182.35938 419.15625L182.40625 420.51562ZM182.15625 422.09375L181.70312 422.07812Q181.70312 421.42188 181.89062 420.875Q182.07812 420.3125 182.42188 419.90625Q182.76562 419.5 183.23438 419.28125Q183.70312 419.04688 184.28125 419.04688Q184.75 419.04688 185.125 419.17188Q185.5 419.29688 185.76562 419.57812Q186.03125 419.84375 186.17188 420.28125Q186.3125 420.71875 186.3125 421.34375L186.3125 425.5L185.21875 425.5L185.21875 421.32812Q185.21875 420.82812 185.07812 420.53125Q184.9375 420.23438 184.65625 420.09375Q184.375 419.95312 183.95312 419.95312Q183.54688 419.95312 183.21875 420.125Q182.89062 420.29688 182.65625 420.59375Q182.42188 420.89062 182.28125 421.28125Q182.15625 421.65625 182.15625 422.09375ZM190.95312 425.625Q190.29688 425.625 189.75 425.40625Q189.21875 425.17188 188.82812 424.76562Q188.45312 424.34375 188.25 423.78125Q188.04688 423.21875 188.04688 422.54688L188.04688 422.3125Q188.04688 421.53125 188.26562 420.92188Q188.5 420.3125 188.89062 419.89062Q189.28125 419.46875 189.78125 419.26562Q190.28125 419.04688 190.8125 419.04688Q191.5 419.04688 191.98438 419.28125Q192.48438 419.51562 192.79688 419.9375Q193.125 420.34375 193.26562 420.92188Q193.42188 421.48438 193.42188 422.14062L193.42188 422.64062L188.6875 422.64062L188.6875 421.75L192.34375 421.75L192.34375 421.67188Q192.3125 421.25 192.15625 420.85938Q192.01562 420.45312 191.6875 420.20312Q191.375 419.9375 190.8125 419.9375Q190.45312 419.9375 190.14062 420.09375Q189.82812 420.25 189.59375 420.5625Q189.375 420.85938 189.25 421.29688Q189.14062 421.73438 189.14062 422.3125L189.14062 422.54688Q189.14062 423.0 189.26562 423.40625Q189.39062 423.79688 189.625 424.09375Q189.875 424.39062 190.21875 424.5625Q190.57812 424.73438 191.01562 424.73438Q191.59375 424.73438 191.98438 424.5Q192.39062 424.26562 192.6875 423.875L193.34375 424.39062Q193.14062 424.70312 192.8125 424.98438Q192.5 425.26562 192.03125 425.45312Q191.57812 425.625 190.95312 425.625Z" fill-rule="nonzero"/><path stroke="#cccccc" stroke-width="1.0" stroke-linecap="butt" d="M372.0 305.0L197.0 204.0" fill-rule="nonzero"/><path fill="#000000" d="M153.03125 191.34375Q153.03125 191.04688 152.9375 190.8125Q152.85938 190.57812 152.625 190.39062Q152.40625 190.20312 152.0 190.03125Q151.60938 189.85938 151.01562 189.6875Q150.375 189.5 149.85938 189.28125Q149.35938 189.04688 148.98438 188.75Q148.625 188.4375 148.4375 188.0625Q148.25 187.67188 148.25 187.17188Q148.25 186.67188 148.45312 186.25Q148.65625 185.82812 149.03125 185.51562Q149.42188 185.20312 149.95312 185.03125Q150.48438 184.84375 151.14062 184.84375Q152.10938 184.84375 152.78125 185.21875Q153.45312 185.57812 153.79688 186.17188Q154.15625 186.76562 154.15625 187.42188L153.03125 187.42188Q153.03125 186.95312 152.8125 186.57812Q152.60938 186.20312 152.1875 186.0Q151.78125 185.78125 151.14062 185.78125Q150.54688 185.78125 150.14062 185.96875Q149.75 186.14062 149.5625 186.45312Q149.375 186.76562 149.375 187.15625Q149.375 187.42188 149.48438 187.65625Q149.60938 187.875 149.84375 188.0625Q150.09375 188.25 150.46875 188.40625Q150.84375 188.5625 151.375 188.70312Q152.09375 188.90625 152.625 189.17188Q153.15625 189.42188 153.5 189.73438Q153.84375 190.04688 154.0 190.4375Q154.17188 190.82812 154.17188 191.32812Q154.17188 191.85938 153.95312 192.28125Q153.75 192.70312 153.35938 193.0Q152.96875 193.29688 152.42188 193.46875Q151.875 193.625 151.20312 193.625Q150.60938 193.625 150.03125 193.45312Q149.46875 193.28125 149.0 192.95312Q148.53125 192.625 148.25 192.15625Q147.96875 191.67188 147.96875 191.03125L149.09375 191.03125Q149.09375 191.46875 149.26562 191.78125Q149.4375 192.09375 149.73438 192.29688Q150.03125 192.5 150.40625 192.60938Q150.78125 192.70312 151.20312 192.70312Q151.79688 192.70312 152.20312 192.54688Q152.60938 192.375 152.8125 192.07812Q153.03125 191.76562 153.03125 191.34375ZM155.04688 190.40625L155.04688 190.26562Q155.04688 189.57812 155.23438 189.0Q155.4375 188.40625 155.8125 187.96875Q156.1875 187.53125 156.71875 187.29688Q157.25 187.04688 157.92188 187.04688Q158.57812 187.04688 159.10938 187.29688Q159.65625 187.53125 160.03125 187.96875Q160.40625 188.40625 160.60938 189.0Q160.8125 189.57812 160.8125 190.26562L160.8125 190.40625Q160.8125 191.07812 160.60938 191.67188Q160.40625 192.25 160.03125 192.6875Q159.65625 193.125 159.125 193.375Q158.59375 193.625 157.92188 193.625Q157.26562 193.625 156.71875 193.375Q156.1875 193.125 155.8125 192.6875Q155.4375 192.25 155.23438 191.67188Q155.04688 191.07812 155.04688 190.40625ZM156.125 190.26562L156.125 190.40625Q156.125 190.875 156.23438 191.29688Q156.34375 191.71875 156.5625 192.04688Q156.79688 192.35938 157.14062 192.54688Q157.48438 192.71875 157.92188 192.71875Q158.375 192.71875 158.70312 192.54688Q159.04688 192.35938 159.26562 192.04688Q159.5 191.71875 159.60938 191.29688Q159.71875 190.875 159.71875 190.40625L159.71875 190.26562Q159.71875 189.79688 159.60938 189.375Q159.5 188.95312 159.26562 188.64062Q159.04688 188.3125 158.70312 188.125Q158.375 187.9375 157.92188 187.9375Q157.46875 187.9375 157.125 188.125Q156.79688 188.3125 156.5625 188.64062Q156.34375 188.95312 156.23438 189.375Q156.125 189.79688 156.125 190.26562ZM163.40625 188.51562L163.40625 193.5L162.32812 193.5L162.32812 187.15625L163.35938 187.15625L163.40625 188.51562ZM163.15625 190.09375L162.70312 190.07812Q162.70312 189.42188 162.89062 188.875Q163.07812 188.3125 163.42188 187.90625Q163.76562 187.5 164.23438 187.28125Q164.70312 187.04688 165.28125 187.04688Q165.75 187.04688 166.125 187.17188Q166.5 187.29688 166.76562 187.57812Q167.03125 187.84375 167.17188 188.28125Q167.3125 188.71875 167.3125 189.34375L167.3125 193.5L166.21875 193.5L166.21875 189.32812Q166.21875 188.82812 166.07812 188.53125Q165.9375 188.23438 165.65625 188.09375Q165.375 187.95312 164.95312 187.95312Q164.54688 187.95312 164.21875 188.125Q163.89062 188.29688 163.65625 188.59375Q163.42188 188.89062 163.28125 189.28125Q163.15625 189.65625 163.15625 190.09375ZM173.01562 191.8125Q173.01562 191.57812 172.90625 191.375Q172.8125 191.17188 172.5 191.01562Q172.1875 190.84375 171.5625 190.71875Q171.03125 190.60938 170.60938 190.46875Q170.1875 190.3125 169.89062 190.09375Q169.59375 189.875 169.4375 189.57812Q169.28125 189.28125 169.28125 188.89062Q169.28125 188.51562 169.4375 188.1875Q169.60938 187.84375 169.90625 187.59375Q170.21875 187.32812 170.65625 187.1875Q171.09375 187.04688 171.625 187.04688Q172.39062 187.04688 172.92188 187.3125Q173.46875 187.57812 173.75 188.03125Q174.03125 188.48438 174.03125 189.01562L172.95312 189.01562Q172.95312 188.76562 172.79688 188.51562Q172.64062 188.26562 172.34375 188.10938Q172.04688 187.9375 171.625 187.9375Q171.17188 187.9375 170.89062 188.07812Q170.60938 188.20312 170.48438 188.42188Q170.35938 188.625 170.35938 188.85938Q170.35938 189.04688 170.42188 189.1875Q170.48438 189.3125 170.64062 189.4375Q170.79688 189.54688 171.07812 189.65625Q171.375 189.75 171.82812 189.84375Q172.60938 190.01562 173.10938 190.26562Q173.60938 190.51562 173.85938 190.875Q174.10938 191.21875 174.10938 191.73438Q174.10938 192.15625 173.92188 192.5Q173.75 192.84375 173.42188 193.09375Q173.10938 193.34375 172.65625 193.48438Q172.20312 193.625 171.65625 193.625Q170.8125 193.625 170.23438 193.32812Q169.65625 193.01562 169.35938 192.54688Q169.0625 192.0625 169.0625 191.54688L170.14062 191.54688Q170.17188 191.98438 170.40625 192.25Q170.64062 192.51562 170.96875 192.625Q171.3125 192.71875 171.65625 192.71875Q172.09375 192.71875 172.39062 192.60938Q172.70312 192.48438 172.85938 192.28125Q173.01562 192.07812 173.01562 191.8125ZM177.98438 187.15625L177.98438 187.98438L174.54688 187.98438L174.54688 187.15625L177.98438 187.15625ZM175.71875 185.625L176.79688 185.625L176.79688 191.92188Q176.79688 192.25 176.89062 192.42188Q177.0 192.57812 177.15625 192.64062Q177.3125 192.6875 177.5 192.6875Q177.625 192.6875 177.76562 192.65625Q177.92188 192.625 178.0 192.60938L178.01562 193.5Q177.875 193.54688 177.67188 193.57812Q177.46875 193.625 177.17188 193.625Q176.78125 193.625 176.4375 193.46875Q176.10938 193.29688 175.90625 192.9375Q175.71875 192.5625 175.71875 191.92188L175.71875 185.625ZM180.5 187.15625L180.5 193.5L179.42188 193.5L179.42188 187.15625L180.5 187.15625ZM179.32812 185.48438Q179.32812 185.21875 179.48438 185.03125Q179.65625 184.84375 179.96875 184.84375Q180.28125 184.84375 180.4375 185.03125Q180.60938 185.21875 180.60938 185.48438Q180.60938 185.73438 180.4375 185.92188Q180.28125 186.09375 179.96875 186.09375Q179.65625 186.09375 179.48438 185.92188Q179.32812 185.73438 179.32812 185.48438ZM186.4375 187.15625L187.42188 187.15625L187.42188 193.35938Q187.42188 194.20312 187.07812 194.79688Q186.73438 195.39062 186.125 195.6875Q185.53125 196.0 184.73438 196.0Q184.40625 196.0 183.95312 195.89062Q183.51562 195.79688 183.09375 195.54688Q182.67188 195.3125 182.39062 194.90625L182.95312 194.25Q183.35938 194.73438 183.78125 194.92188Q184.21875 195.10938 184.65625 195.10938Q185.17188 195.10938 185.54688 194.90625Q185.92188 194.71875 186.125 194.34375Q186.32812 193.96875 186.32812 193.42188L186.32812 188.54688L186.4375 187.15625ZM182.0625 190.40625L182.0625 190.28125Q182.0625 189.54688 182.23438 188.95312Q182.42188 188.35938 182.73438 187.9375Q183.0625 187.5 183.51562 187.28125Q183.98438 187.04688 184.57812 187.04688Q185.17188 187.04688 185.60938 187.25Q186.0625 187.45312 186.375 187.85938Q186.6875 188.25 186.875 188.8125Q187.0625 189.35938 187.125 190.0625L187.125 190.60938Q187.0625 191.29688 186.875 191.85938Q186.6875 192.42188 186.375 192.8125Q186.0625 193.20312 185.60938 193.42188Q185.15625 193.625 184.5625 193.625Q183.98438 193.625 183.53125 193.39062Q183.07812 193.14062 182.75 192.70312Q182.42188 192.26562 182.23438 191.6875Q182.0625 191.09375 182.0625 190.40625ZM183.15625 190.28125L183.15625 190.40625Q183.15625 190.875 183.25 191.29688Q183.34375 191.70312 183.54688 192.03125Q183.75 192.34375 184.0625 192.53125Q184.39062 192.70312 184.82812 192.70312Q185.35938 192.70312 185.70312 192.46875Q186.0625 192.23438 186.26562 191.85938Q186.48438 191.48438 186.59375 191.04688L186.59375 189.64062Q186.53125 189.3125 186.39062 189.01562Q186.26562 188.71875 186.0625 188.48438Q185.85938 188.23438 185.54688 188.09375Q185.25 187.95312 184.82812 187.95312Q184.39062 187.95312 184.0625 188.14062Q183.75 188.32812 183.54688 188.65625Q183.34375 188.96875 183.25 189.39062Q183.15625 189.79688 183.15625 190.28125ZM191.95312 193.625Q191.29688 193.625 190.75 193.40625Q190.21875 193.17188 189.82812 192.76562Q189.45312 192.34375 189.25 191.78125Q189.04688 191.21875 189.04688 190.54688L189.04688 190.3125Q189.04688 189.53125 189.26562 188.92188Q189.5 188.3125 189.89062 187.89062Q190.28125 187.46875 190.78125 187.26562Q191.28125 187.04688 191.8125 187.04688Q192.5 187.04688 192.98438 187.28125Q193.48438 187.51562 193.79688 187.9375Q194.125 188.34375 194.26562 188.92188Q194.42188 189.48438 194.42188 190.14062L194.42188 190.64062L189.6875 190.64062L189.6875 189.75L193.34375 189.75L193.34375 189.67188Q193.3125 189.25 193.15625 188.85938Q193.01562 188.45312 192.6875 188.20312Q192.375 187.9375 191.8125 187.9375Q191.45312 187.9375 191.14062 188.09375Q190.82812 188.25 190.59375 188.5625Q190.375 188.85938 190.25 189.29688Q190.14062 189.73438 190.14062 190.3125L190.14062 190.54688Q190.14062 191.0 190.26562 191.40625Q190.39062 191.79688 190.625 192.09375Q190.875 192.39062 191.21875 192.5625Q191.57812 192.73438 192.01562 192.73438Q192.59375 192.73438 192.98438 192.5Q193.39062 192.26562 193.6875 191.875L194.34375 192.39062Q194.14062 192.70312 193.8125 192.98438Q193.5 193.26562 193.03125 193.45312Q192.57812 193.625 191.95312 193.625Z" fill-rule="nonzero"/><path stroke="#cccccc" stroke-width="1.0" stroke-linecap="butt" d="M372.0 305.0L372.0 103.0" fill-rule="nonzero"/><path stroke="#ff0000" stroke-width="2.0" stroke-linecap="butt" stroke-opacity="0.7019608" stroke-dasharray="8.0,6.0,2.0,6.0" d="M372.0 231.0L398.0 290.0L392.0 317.0L372.0 322.0L357.0 313.0L221.0 218.0Z" fill-rule="nonzero"/><path fill="#ff0000" fill-opacity="0.7019608" d="M368.81802 227.81802L372.0 229.875L375.18198 227.81802L373.125 231.0L375.18198 234.18198L372.0 232.125L368.81802 234.18198L370.875 231.0Z" fill-rule="nonzero"/><path fill="#ff0000" fill-opacity="0.7019608" d="M394.81802 286.81802L398.0 288.875L401.18198 286.81802L399.125 290.0L401.18198 293.18198L398.0 291.125L394.81802 293.18198L396.875 290.0Z" fill-rule="nonzero"/><path fill="#ff0000" fill-opacity="0.7019608" d="M388.81802 313.81802L392.0 315.875L395.18198 313.81802L393.125 317.0L395.18198 320.18198L392.0 318.125L388.81802 320.18198L390.875 317.0Z" fill-rule="nonzero"/><path fill="#ff0000" fill-opacity="0.7019608" d="M368.81802 318.81802L372.0 320.875L375.18198 318.81802L373.125 322.0L375.18198 325.18198L372.0 323.125L368.81802 325.18198L370.875 322.0Z" fill-rule="nonzero"/><path fill="#ff0000" fill-opacity="0.7019608" d="M353.81802 309.81802L357.0 311.875L360.18198 309.81802L358.125 313.0L360.18198 316.18198L357.0 314.125L353.81802 316.18198L355.875 313.0Z" fill-rule="nonzero"/><path fill="#ff0000" fill-opacity="0.7019608" d="M217.81802 214.81802L221.0 216.875L224.18198 214.81802L222.125 218.0L224.18198 221.18198L221.0 219.125L217.81802 221.18198L219.875 218.0Z" fill-rule="nonzero"/><path fill="#757575" d="M29.25625 42.75625L31.0375 42.6Q31.1625 43.6625 31.615625 44.35Q32.084373 45.0375 33.053123 45.475Q34.0375 45.896873 35.271873 45.896873Q36.35 45.896873 37.178123 45.584373Q38.00625 45.25625 38.4125 44.69375Q38.81875 44.13125 38.81875 43.459373Q38.81875 42.7875 38.428123 42.2875Q38.0375 41.7875 37.146873 41.44375Q36.56875 41.209373 34.584373 40.740623Q32.615623 40.271873 31.834375 39.85Q30.803125 39.31875 30.303125 38.521873Q29.803125 37.725 29.803125 36.740623Q29.803125 35.646873 30.4125 34.709373Q31.021875 33.771873 32.209373 33.2875Q33.396873 32.7875 34.834373 32.7875Q36.428123 32.7875 37.646873 33.303123Q38.865623 33.81875 39.50625 34.81875Q40.1625 35.803123 40.209373 37.06875L38.396873 37.209373Q38.25625 35.85 37.4125 35.1625Q36.56875 34.459373 34.9125 34.459373Q33.19375 34.459373 32.396873 35.1Q31.615625 35.725 31.615625 36.6Q31.615625 37.38125 32.178123 37.88125Q32.725 38.38125 35.0375 38.896873Q37.35 39.4125 38.209373 39.803123Q39.459373 40.38125 40.053123 41.271873Q40.646873 42.146873 40.646873 43.303123Q40.646873 44.44375 39.990623 45.459373Q39.334373 46.475 38.1 47.0375Q36.88125 47.6 35.35 47.6Q33.4125 47.6 32.1 47.0375Q30.7875 46.459373 30.0375 45.31875Q29.2875 44.178123 29.25625 42.75625ZM49.44375 43.553123L51.1625 43.771873Q50.88125 45.56875 49.709373 46.584373Q48.553123 47.584373 46.85 47.584373Q44.725 47.584373 43.428123 46.19375Q42.13125 44.803123 42.13125 42.209373Q42.13125 40.521873 42.678123 39.271873Q43.240623 38.00625 44.38125 37.38125Q45.521873 36.740623 46.865623 36.740623Q48.553123 36.740623 49.615623 37.6Q50.69375 38.459373 51.00625 40.021873L49.2875 40.2875Q49.053123 39.240623 48.428123 38.725Q47.803123 38.19375 46.928123 38.19375Q45.6 38.19375 44.771873 39.146873Q43.94375 40.1 43.94375 42.146873Q43.94375 44.240623 44.740623 45.19375Q45.5375 46.13125 46.834373 46.13125Q47.865623 46.13125 48.553123 45.50625Q49.25625 44.865623 49.44375 43.553123ZM59.771873 44.00625L61.584373 44.240623Q61.1625 45.81875 59.990623 46.709373Q58.834373 47.584373 57.021873 47.584373Q54.75625 47.584373 53.4125 46.19375Q52.084373 44.7875 52.084373 42.25625Q52.084373 39.63125 53.428123 38.19375Q54.771873 36.740623 56.928123 36.740623Q59.00625 36.740623 60.31875 38.1625Q61.646873 39.56875 61.646873 42.146873Q61.646873 42.303123 61.63125 42.615623L53.896873 42.615623Q53.990623 44.31875 54.865623 45.225Q55.740623 46.13125 57.0375 46.13125Q58.00625 46.13125 58.678123 45.63125Q59.365623 45.115623 59.771873 44.00625ZM53.990623 41.1625L59.7875 41.1625Q59.678123 39.865623 59.13125 39.209373Q58.2875 38.19375 56.94375 38.19375Q55.740623 38.19375 54.9125 39.00625Q54.084373 39.803123 53.990623 41.1625ZM63.6625 47.35L63.6625 36.975L65.25625 36.975L65.25625 38.459373Q66.39687 36.740623 68.55312 36.740623Q69.49062 36.740623 70.27187 37.084373Q71.06875 37.4125 71.45937 37.959373Q71.85 38.50625 72.00625 39.25625Q72.1 39.75625 72.1 40.975L72.1 47.35L70.33437 47.35L70.33437 41.0375Q70.33437 39.959373 70.13125 39.428123Q69.92812 38.896873 69.39687 38.584373Q68.88125 38.271873 68.17812 38.271873Q67.05312 38.271873 66.24062 38.990623Q65.42812 39.69375 65.42812 41.678123L65.42812 47.35L63.6625 47.35ZM77.50625 45.771873L77.75625 47.334373Q77.02187 47.490623 76.42812 47.490623Q75.475 47.490623 74.94375 47.19375Q74.42812 46.88125 74.20937 46.396873Q73.99062 45.896873 73.99062 44.31875L73.99062 38.35L72.70937 38.35L72.70937 36.975L73.99062 36.975L73.99062 34.4125L75.74062 33.35L75.74062 36.975L77.50625 36.975L77.50625 38.35L75.74062 38.35L75.74062 44.4125Q75.74062 45.1625 75.83437 45.38125Q75.92812 45.584373 76.13125 45.725Q76.35 45.85 76.74062 45.85Q77.02187 45.85 77.50625 45.771873ZM86.77187 44.00625L88.58437 44.240623Q88.1625 45.81875 86.99062 46.709373Q85.83437 47.584373 84.02187 47.584373Q81.75625 47.584373 80.4125 46.19375Q79.08437 44.7875 79.08437 42.25625Q79.08437 39.63125 80.42812 38.19375Q81.77187 36.740623 83.92812 36.740623Q86.00625 36.740623 87.31875 38.1625Q88.64687 39.56875 88.64687 42.146873Q88.64687 42.303123 88.63125 42.615623L80.89687 42.615623Q80.99062 44.31875 81.86562 45.225Q82.74062 46.13125 84.0375 46.13125Q85.00625 46.13125 85.67812 45.63125Q86.36562 45.115623 86.77187 44.00625ZM80.99062 41.1625L86.7875 41.1625Q86.67812 39.865623 86.13125 39.209373Q85.2875 38.19375 83.94375 38.19375Q82.74062 38.19375 81.9125 39.00625Q81.08437 39.803123 80.99062 41.1625ZM97.39687 47.35L97.39687 46.0375Q96.4125 47.584373 94.49062 47.584373Q93.25625 47.584373 92.20937 46.896873Q91.17812 46.209373 90.6 44.990623Q90.0375 43.771873 90.0375 42.178123Q90.0375 40.615623 90.55312 39.35Q91.06875 38.084373 92.1 37.4125Q93.14687 36.740623 94.4125 36.740623Q95.35 36.740623 96.08437 37.146873Q96.81875 37.5375 97.2875 38.1625L97.2875 33.0375L99.02187 33.0375L99.02187 47.35L97.39687 47.35ZM91.83437 42.178123Q91.83437 44.1625 92.67812 45.146873Q93.52187 46.13125 94.6625 46.13125Q95.81875 46.13125 96.61562 45.19375Q97.42812 44.25625 97.42812 42.31875Q97.42812 40.19375 96.6 39.19375Q95.7875 38.19375 94.58437 38.19375Q93.4125 38.19375 92.61562 39.1625Q91.83437 40.115623 91.83437 42.178123ZM107.83437 47.35L107.83437 33.0375L110.69375 33.0375L114.06875 43.1625Q114.5375 44.584373 114.75625 45.2875Q115.00625 44.50625 115.52187 42.990623L118.94375 33.0375L121.49062 33.0375L121.49062 47.35L119.67812 47.35L119.67812 35.365623L115.50625 47.35L113.80312 47.35L109.6625 35.1625L109.6625 47.35L107.83437 47.35ZM131.44376 46.06875Q130.45938 46.896873 129.55313 47.240623Q128.64688 47.584373 127.61562 47.584373Q125.9125 47.584373 124.99062 46.75625Q124.06875 45.9125 124.06875 44.615623Q124.06875 43.85 124.4125 43.225Q124.77187 42.6 125.33437 42.225Q125.89687 41.834373 126.6 41.63125Q127.11562 41.50625 128.1625 41.365623Q130.2875 41.115623 131.2875 40.771873Q131.30313 40.4125 131.30313 40.303123Q131.30313 39.240623 130.80313 38.7875Q130.13126 38.19375 128.80313 38.19375Q127.55312 38.19375 126.95937 38.63125Q126.38125 39.06875 126.1 40.178123L124.38125 39.94375Q124.61562 38.834373 125.14687 38.1625Q125.67812 37.475 126.69375 37.115623Q127.70937 36.740623 129.05313 36.740623Q130.38126 36.740623 131.20938 37.053123Q132.0375 37.365623 132.42813 37.85Q132.81876 38.31875 132.975 39.0375Q133.06876 39.490623 133.06876 40.6625L133.06876 43.00625Q133.06876 45.459373 133.17813 46.115623Q133.2875 46.75625 133.63126 47.35L131.7875 47.35Q131.52188 46.803123 131.44376 46.06875ZM131.2875 42.146873Q130.33438 42.5375 128.4125 42.803123Q127.33437 42.959373 126.88125 43.1625Q126.44375 43.35 126.19375 43.725Q125.94375 44.1 125.94375 44.56875Q125.94375 45.271873 126.475 45.740623Q127.00625 46.209373 128.0375 46.209373Q129.05313 46.209373 129.83438 45.771873Q130.63126 45.31875 131.00626 44.553123Q131.2875 43.94375 131.2875 42.7875L131.2875 42.146873ZM135.64688 47.35L135.64688 36.975L137.225 36.975L137.225 38.553123Q137.83438 37.44375 138.35 37.1Q138.86563 36.740623 139.475 36.740623Q140.36563 36.740623 141.2875 37.303123L140.67813 38.94375Q140.0375 38.553123 139.39688 38.553123Q138.81876 38.553123 138.35 38.9125Q137.89688 39.25625 137.69376 39.865623Q137.4125 40.803123 137.4125 41.9125L137.4125 47.35L135.64688 47.35ZM142.67813 47.35L142.67813 33.0375L144.44376 33.0375L144.44376 41.19375L148.6 36.975L150.86563 36.975L146.9125 40.81875L151.27188 47.35L149.1 47.35L145.67813 42.053123L144.44376 43.240623L144.44376 47.35L142.67813 47.35ZM159.77188 44.00625L161.58438 44.240623Q161.1625 45.81875 159.99063 46.709373Q158.83438 47.584373 157.02188 47.584373Q154.75626 47.584373 153.4125 46.19375Q152.08438 44.7875 152.08438 42.25625Q152.08438 39.63125 153.42813 38.19375Q154.77188 36.740623 156.92813 36.740623Q159.00626 36.740623 160.31876 38.1625Q161.64688 39.56875 161.64688 42.146873Q161.64688 42.303123 161.63126 42.615623L153.89688 42.615623Q153.99063 44.31875 154.86563 45.225Q155.74063 46.13125 157.0375 46.13125Q158.00626 46.13125 158.67813 45.63125Q159.36563 45.115623 159.77188 44.00625ZM153.99063 41.1625L159.7875 41.1625Q159.67813 39.865623 159.13126 39.209373Q158.2875 38.19375 156.94376 38.19375Q155.74063 38.19375 154.9125 39.00625Q154.08438 39.803123 153.99063 41.1625ZM163.64688 47.35L163.64688 36.975L165.225 36.975L165.225 38.553123Q165.83438 37.44375 166.35 37.1Q166.86563 36.740623 167.475 36.740623Q168.36563 36.740623 169.2875 37.303123L168.67813 38.94375Q168.0375 38.553123 167.39688 38.553123Q166.81876 38.553123 166.35 38.9125Q165.89688 39.25625 165.69376 39.865623Q165.4125 40.803123 165.4125 41.9125L165.4125 47.35L163.64688 47.35Z" fill-rule="nonzero"/></svg>