<svg version="1.1" viewBox="0.0 0.0 744.0 567.0" fill="none" stroke="none" stroke-linecap="square" stroke-miterlimit="10" width="744" height="567" xmlns:xlink="http://www.w3.org/1999/xlink" xmlns="http://www.w3.org/2000/svg"><path fill="#ffffff" d="M0 0L744.0 0L744.0 567.0L0 567.0L0 0Z" fill-rule="nonzero"/><path fill="#ffffff" d="M28.35 71.25L715.64996 71.25L715.64996 538.65L28.35 538.65L28.35 71.25Z" fill-rule="nonzero"/><path stroke="#cccccc" stroke-width="1.0" stroke-linecap="butt" d="M372.0 305.0C372.0 305.0 372.0 305.0 372.0 305.0C372.0 305.0 372.0 305.0 372.0 305.0C372.0 305.0 372.0 305.0 372.0 305.0C372.0 305.0 372.0 305.0 372.0 305.0" fill-rule="nonzero"/><path fill="#000000" d="M353.0625 297.04688L353.0625 298.35938Q353.0625 299.40625 352.875 300.125Q352.6875 300.84375 352.32812 301.28125Q351.98438 301.71875 351.48438 301.92188Q351.0 302.125 350.375 302.125Q349.89062 302.125 349.46875 302.0Q349.04688 301.875 348.71875 301.60938Q348.39062 301.32812 348.15625 300.89062Q347.92188 300.45312 347.79688 299.82812Q347.67188 299.1875 347.67188 298.35938L347.67188 297.04688Q347.67188 296.0 347.85938 295.29688Q348.0625 294.59375 348.40625 294.15625Q348.76562 293.71875 349.25 293.53125Q349.75 293.34375 350.35938 293.34375Q350.85938 293.34375 351.28125 293.46875Q351.70312 293.59375 352.03125 293.85938Q352.35938 294.10938 352.57812 294.54688Q352.8125 294.96875 352.9375 295.59375Q353.0625 296.21875 353.0625 297.04688ZM351.96875 298.53125L351.96875 296.875Q351.96875 296.29688 351.90625 295.85938Q351.84375 295.42188 351.70312 295.10938Q351.57812 294.79688 351.375 294.60938Q351.1875 294.42188 350.9375 294.32812Q350.6875 294.23438 350.35938 294.23438Q349.98438 294.23438 349.67188 294.375Q349.375 294.51562 349.17188 294.82812Q348.96875 295.14062 348.85938 295.65625Q348.76562 296.15625 348.76562 296.875L348.76562 298.53125Q348.76562 299.10938 348.82812 299.54688Q348.90625 299.98438 349.03125 300.3125Q349.17188 300.625 349.35938 300.82812Q349.5625 301.03125 349.8125 301.125Q350.0625 301.21875 350.375 301.21875Q350.78125 301.21875 351.07812 301.07812Q351.375 300.92188 351.57812 300.59375Q351.78125 300.26562 351.875 299.76562Q351.96875 299.25 351.96875 298.53125ZM355.8125 300.70312L355.8125 301.57812Q355.8125 302.125 355.53125 302.71875Q355.26562 303.3125 354.78125 303.70312L354.17188 303.28125Q354.35938 303.01562 354.48438 302.75Q354.60938 302.48438 354.67188 302.20312Q354.75 301.92188 354.75 301.59375L354.75 300.70312L355.8125 300.70312ZM362.0625 297.04688L362.0625 298.35938Q362.0625 299.40625 361.875 300.125Q361.6875 300.84375 361.32812 301.28125Q360.98438 301.71875 360.48438 301.92188Q360.0 302.125 359.375 302.125Q358.89062 302.125 358.46875 302.0Q358.04688 301.875 357.71875 301.60938Q357.39062 301.32812 357.15625 300.89062Q356.92188 300.45312 356.79688 299.82812Q356.67188 299.1875 356.67188 298.35938L356.67188 297.04688Q356.67188 296.0 356.85938 295.29688Q357.0625 294.59375 357.40625 294.15625Q357.76562 293.71875 358.25 293.53125Q358.75 293.34375 359.35938 293.34375Q359.85938 293.34375 360.28125 293.46875Q360.70312 293.59375 361.03125 293.85938Q361.35938 294.10938 361.57812 294.54688Q361.8125 294.96875 361.9375 295.59375Q362.0625 296.21875 362.0625 297.04688ZM360.96875 298.53125L360.96875 296.875Q360.96875 296.29688 360.90625 295.85938Q360.84375 295.42188 360.70312 295.10938Q360.57812 294.79688 360.375 294.60938Q360.1875 294.42188 359.9375 294.32812Q359.6875 294.23438 359.35938 294.23438Q358.98438 294.23438 358.67188 294.375Q358.375 294.51562 358.17188 294.82812Q357.96875 295.14062 357.85938 295.65625Q357.76562 296.15625 357.76562 296.875L357.76562 298.53125Q357.76562 299.10938 357.82812 299.54688Q357.90625 299.98438 358.03125 300.3125Q358.17188 300.625 358.35938 300.82812Q358.5625 301.03125 358.8125 301.125Q359.0625 301.21875 359.375 301.21875Q359.78125 301.21875 360.07812 301.07812Q360.375 300.92188 360.57812 300.59375Q360.78125 300.26562 360.875 299.76562Q360.96875 299.25 360.96875 298.53125ZM369.0625 297.04688L369.0625 298.35938Q369.0625 299.40625 368.875 300.125Q368.6875 300.84375 368.32812 301.28125Q367.98438 301.71875 367.48438 301.92188Q367.0 302.125 366.375 302.125Q365.89062 302.125 365.46875 302.0Q365.04688 301.875 364.71875 301.60938Q364.39062 301.32812 364.15625 300.89062Q363.92188 300.45312 363.79688 299.82812Q363.67188 299.1875 363.67188 298.35938L363.67188 297.04688Q363.67188 296.0 363.85938 295.29688Q364.0625 294.59375 364.40625 294.15625Q364.76562 293.71875 365.25 293.53125Q365.75 293.34375 366.35938 293.34375Q366.85938 293.34375 367.28125 293.46875Q367.70312 293.59375 368.03125 293.85938Q368.35938 294.10938 368.57812 294.54688Q368.8125 294.96875 368.9375 295.59375Q369.0625 296.21875 369.0625 297.04688ZM367.96875 298.53125L367.96875 296.875Q367.96875 296.29688 367.90625 295.85938Q367.84375 295.42188 367.70312 295.10938Q367.57812 294.79688 367.375 294.60938Q367.1875 294.42188 366.9375 294.32812Q366.6875 294.23438 366.35938 294.23438Q365.98438 294.23438 365.67188 294.375Q365.375 294.51562 365.17188 294.82812Q364.96875 295.14062 364.85938 295.65625Q364.76562 296.15625 364.76562 296.875L364.76562 298.53125Q364.76562 299.10938 364.82812 299.54688Q364.90625 299.98438 365.03125 300.3125Q365.17188 300.625 365.35938 300.82812Q365.5625 301.03125 365.8125 301.125Q366.0625 301.21875 366.375 301.21875Q366.78125 301.21875 367.07812 301.07812Q367.375 300.92188 367.57812 300.59375Q367.78125 300.26562 367.875 299.76562Q367.96875 299.25 367.96875 298.53125Z" fill-rule="nonzero"/><path stroke="#cccccc" stroke-width="1.0" stroke-linecap="butt" d="M405.61667 305.0C405.61667 286.43402 390.56598 271.38333 372.0 271.38333C353.43402 271.38333 338.38333 286.43402 338.38333 305.0C338.38333 323.56598 353.43402 338.61667 372.0 338.61667C390.56598 338.61667 405.61667 323.56598 405.61667 305.0" fill-rule="nonzero"/><path fill="#000000" d="M353.0625 263.4302L353.0625 264.7427Q353.0625 265.78958 352.875 266.50833Q352.6875 267.22708 352.32812 267.66458Q351.98438 268.10208 351.48438 268.3052Q351.0 268.50833 350.375 268.50833Q349.89062 268.50833 349.46875 268.38333Q349.04688 268.25833 348.71875 267.9927Q348.39062 267.71146 348.15625 267.27396Q347.92188 266.83646 347.79688 266.21146Q347.67188 265.57083 347.67188 264.7427L347.67188 263.4302Q347.67188 262.38333 347.85938 261.6802Q348.0625 260.97708 348.40625 260.53958Q348.76562 260.10208 349.25 259.91458Q349.75 259.72708 350.35938 259.72708Q350.85938 259.72708 351.28125 259.85208Q351.70312 259.97708 352.03125 260.2427Q352.35938 260.4927 352.57812 260.9302Q352.8125 261.35208 352.9375 261.97708Q353.0625 262.60208 353.0625 263.4302ZM351.96875 264.91458L351.96875 263.25833Q351.96875 262.6802 351.90625 262.2427Q351.84375 261.8052 351.70312 261.4927Q351.57812 261.1802 351.375 260.9927Q351.1875 260.8052 350.9375 260.71146Q350.6875 260.6177 350.35938 260.6177Q349.98438 260.6177 349.67188 260.75833Q349.375 260.89896 349.17188 261.21146Q348.96875 261.52396 348.85938 262.03958Q348.76562 262.53958 348.76562 263.25833L348.76562 264.91458Q348.76562 265.4927 348.82812 265.9302Q348.90625 266.3677 349.03125 266.69583Q349.17188 267.00833 349.35938 267.21146Q349.5625 267.41458 349.8125 267.50833Q350.0625 267.60208 350.375 267.60208Q350.78125 267.60208 351.07812 267.46146Q351.375 267.3052 351.57812 266.97708Q351.78125 266.64896 351.875 266.14896Q351.96875 265.63333 351.96875 264.91458ZM355.8125 267.08646L355.8125 267.96146Q355.8125 268.50833 355.53125 269.10208Q355.26562 269.69583 354.78125 270.08646L354.17188 269.66458Q354.35938 269.39896 354.48438 269.13333Q354.60938 268.8677 354.67188 268.58646Q354.75 268.3052 354.75 267.97708L354.75 267.08646L355.8125 267.08646ZM362.0625 263.4302L362.0625 264.7427Q362.0625 265.78958 361.875 266.50833Q361.6875 267.22708 361.32812 267.66458Q360.98438 268.10208 360.48438 268.3052Q360.0 268.50833 359.375 268.50833Q358.89062 268.50833 358.46875 268.38333Q358.04688 268.25833 357.71875 267.9927Q357.39062 267.71146 357.15625 267.27396Q356.92188 266.83646 356.79688 266.21146Q356.67188 265.57083 356.67188 264.7427L356.67188 263.4302Q356.67188 262.38333 356.85938 261.6802Q357.0625 260.97708 357.40625 260.53958Q357.76562 260.10208 358.25 259.91458Q358.75 259.72708 359.35938 259.72708Q359.85938 259.72708 360.28125 259.85208Q360.70312 259.97708 361.03125 260.2427Q361.35938 260.4927 361.57812 260.9302Q361.8125 261.35208 361.9375 261.97708Q362.0625 262.60208 362.0625 263.4302ZM360.96875 264.91458L360.96875 263.25833Q360.96875 262.6802 360.90625 262.2427Q360.84375 261.8052 360.70312 261.4927Q360.57812 261.1802 360.375 260.9927Q360.1875 260.8052 359.9375 260.71146Q359.6875 260.6177 359.35938 260.6177Q358.98438 260.6177 358.67188 260.75833Q358.375 260.89896 358.17188 261.21146Q357.96875 261.52396 357.85938 262.03958Q357.76562 262.53958 357.76562 263.25833L357.76562 264.91458Q357.76562 265.4927 357.82812 265.9302Q357.90625 266.3677 358.03125 266.69583Q358.17188 267.00833 358.35938 267.21146Q358.5625 267.41458 358.8125 267.50833Q359.0625 267.60208 359.375 267.60208Q359.78125 267.60208 360.07812 267.46146Q360.375 267.3052 360.57812 266.97708Q360.78125 266.64896 360.875 266.14896Q360.96875 265.63333 360.96875 264.91458ZM365.07812 264.32083L364.21875 264.10208L364.64062 259.85208L369.01562 259.85208L369.01562 260.85208L365.5625 260.85208L365.29688 263.1802Q365.53125 263.03958 365.89062 262.9302Q366.26562 262.8052 366.73438 262.8052Q367.3125 262.8052 367.78125 263.00833Q368.25 263.21146 368.57812 263.58646Q368.92188 263.96146 369.09375 264.4927Q369.26562 265.00833 369.26562 265.66458Q369.26562 266.27396 369.09375 266.78958Q368.9375 267.3052 368.59375 267.69583Q368.26562 268.07083 367.75 268.28958Q367.25 268.50833 366.5625 268.50833Q366.04688 268.50833 365.59375 268.3677Q365.14062 268.21146 364.76562 267.91458Q364.40625 267.6177 364.1875 267.1802Q363.96875 266.7427 363.90625 266.13333L364.9375 266.13333Q365.0 266.6177 365.20312 266.94583Q365.42188 267.27396 365.76562 267.44583Q366.10938 267.60208 366.5625 267.60208Q366.95312 267.60208 367.25 267.47708Q367.54688 267.33646 367.75 267.08646Q367.96875 266.83646 368.07812 266.47708Q368.1875 266.1177 368.1875 265.6802Q368.1875 265.27396 368.0625 264.9302Q367.95312 264.58646 367.73438 264.33646Q367.51562 264.07083 367.20312 263.9302Q366.89062 263.77396 366.46875 263.77396Q365.9375 263.77396 365.65625 263.9302Q365.375 264.07083 365.07812 264.32083Z" fill-rule="nonzero"/><path stroke="#cccccc" stroke-width="1.0" stroke-linecap="butt" d="M439.23334 305.0C439.23334 267.86804 409.13196 237.76666 372.0 237.76666C334.86804 237.76666 304.76666 267.86804 304.76666 305.0C304.76666 342.13196 334.86804 372.23334 372.0 372.23334C409.13196 372.23334 439.23334 342.13196 439.23334 305.0" fill-rule="nonzero"/><path fill="#000000" d="M353.0625 229.81354L353.0625 231.12604Q353.0625 232.17291 352.875 232.89166Q352.6875 233.61041 352.32812 234.04791Q351.98438 234.48541 351.48438 234.68854Q351.0 234.89166 350.375 234.89166Q349.89062 234.89166 349.46875 234.76666Q349.04688 234.64166 348.71875 234.37604Q348.39062 234.09479 348.15625 233.65729Q347.92188 233.21979 347.79688 232.59479Q347.67188 231.95416 347.67188 231.12604L347.67188 229.81354Q347.67188 228.76666 347.85938 228.06354Q348.0625 227.36041 348.40625 226.92291Q348.76562 226.48541 349.25 226.29791Q349.75 226.11041 350.35938 226.11041Q350.85938 226.11041 351.28125 226.23541Q351.70312 226.36041 352.03125 226.62604Q352.35938 226.87604 352.57812 227.31354Q352.8125 227.73541 352.9375 228.36041Q353.0625 228.98541 353.0625 229.81354ZM351.96875 231.29791L351.96875 229.64166Q351.96875 229.06354 351.90625 228.62604Q351.84375 228.18854 351.70312 227.87604Q351.57812 227.56354 351.375 227.37604Q351.1875 227.18854 350.9375 227.09479Q350.6875 227.00104 350.35938 227.00104Q349.98438 227.00104 349.67188 227.14166Q349.375 227.28229 349.17188 227.59479Q348.96875 227.90729 348.85938 228.42291Q348.76562 228.92291 348.76562 229.64166L348.76562 231.29791Q348.76562 231.87604 348.82812 232.31354Q348.90625 232.75104 349.03125 233.07916Q349.17188 233.39166 349.35938 233.59479Q349.5625 233.79791 349.8125 233.89166Q350.0625 233.98541 350.375 233.98541Q350.78125 233.98541 351.07812 233.84479Q351.375 233.68854 351.57812 233.36041Q351.78125 233.03229 351.875 232.53229Q351.96875 232.01666 351.96875 231.29791ZM355.8125 233.46979L355.8125 234.34479Q355.8125 234.89166 355.53125 235.48541Q355.26562 236.07916 354.78125 236.46979L354.17188 236.04791Q354.35938 235.78229 354.48438 235.51666Q354.60938 235.25104 354.67188 234.96979Q354.75 234.68854 354.75 234.36041L354.75 233.46979L355.8125 233.46979ZM360.26562 226.18854L360.26562 234.76666L359.1875 234.76666L359.1875 227.54791L357.0 228.34479L357.0 227.36041L360.10938 226.18854L360.26562 226.18854ZM369.0625 229.81354L369.0625 231.12604Q369.0625 232.17291 368.875 232.89166Q368.6875 233.61041 368.32812 234.04791Q367.98438 234.48541 367.48438 234.68854Q367.0 234.89166 366.375 234.89166Q365.89062 234.89166 365.46875 234.76666Q365.04688 234.64166 364.71875 234.37604Q364.39062 234.09479 364.15625 233.65729Q363.92188 233.21979 363.79688 232.59479Q363.67188 231.95416 363.67188 231.12604L363.67188 229.81354Q363.67188 228.76666 363.85938 228.06354Q364.0625 227.36041 364.40625 226.92291Q364.76562 226.48541 365.25 226.29791Q365.75 226.11041 366.35938 226.11041Q366.85938 226.11041 367.28125 226.23541Q367.70312 226.36041 368.03125 226.62604Q368.35938 226.87604 368.57812 227.31354Q368.8125 227.73541 368.9375 228.36041Q369.0625 228.98541 369.0625 229.81354ZM367.96875 231.29791L367.96875 229.64166Q367.96875 229.06354 367.90625 228.62604Q367.84375 228.18854 367.70312 227.87604Q367.57812 227.56354 367.375 227.37604Q367.1875 227.18854 366.9375 227.09479Q366.6875 227.00104 366.35938 227.00104Q365.98438 227.00104 365.67188 227.14166Q365.375 227.28229 365.17188 227.59479Q364.96875 227.90729 364.85938 228.42291Q364.76562 228.92291 364.76562 229.64166L364.76562 231.29791Q364.76562 231.87604 364.82812 232.31354Q364.90625 232.75104 365.03125 233.07916Q365.17188 233.39166 365.35938 233.59479Q365.5625 233.79791 365.8125 233.89166Q366.0625 233.98541 366.375 233.98541Q366.78125 233.98541 367.07812 233.84479Q367.375 233.68854 367.57812 233.36041Q367.78125 233.03229 367.875 232.53229Q367.96875 232.01666 367.96875 231.29791Z" fill-rule="nonzero"/><path stroke="#cccccc" stroke-width="1.0" stroke-linecap="butt" d="M472.85 305.0C472.85 249.30208 427.6979 204.15 372.0 204.15C316.3021 204.15 271.15 249.30208 271.15 305.0C271.15 360.6979 316.3021 405.85 372.0 405.85C427.6979 405.85 472.85 360.6979 472.85 305.0" fill-rule="nonzero"/><path fill="#000000" d="M353.0625 196.19687L353.0625 197.50937Q353.0625 198.55624 352.875 199.275Q352.6875 199.99374 352.32812 200.43124Q351.98438 200.86874 351.48438 201.07187Q351.0 201.275 350.375 201.275Q349.89062 201.275 349.46875 201.15Q349.04688 201.025 348.71875 200.75937Q348.39062 200.47812 348.15625 200.04062Q347.92188 199.60312 347.79688 198.97812Q347.67188 198.3375 347.67188 197.50937L347.67188 196.19687Q347.67188 195.15 347.85938 194.44687Q348.0625 193.74374 348.40625 193.30624Q348.76562 192.86874 349.25 192.68124Q349.75 192.49374 350.35938 192.49374Q350.85938 192.49374 351.28125 192.61874Q351.70312 192.74374 352.03125 193.00937Q352.35938 193.25937 352.57812 193.69687Q352.8125 194.11874 352.9375 194.74374Q353.0625 195.36874 353.0625 196.19687ZM351.96875 197.68124L351.96875 196.025Q351.96875 195.44687 351.90625 195.00937Q351.84375 194.57187 351.70312 194.25937Q351.57812 193.94687 351.375 193.75937Q351.1875 193.57187 350.9375 193.47812Q350.6875 193.38437 350.35938 193.38437Q349.98438 193.38437 349.67188 193.525Q349.375 193.66562 349.17188 193.97812Q348.96875 194.29062 348.85938 194.80624Q348.76562 195.30624 348.76562 196.025L348.76562 197.68124Q348.76562 198.25937 348.82812 198.69687Q348.90625 199.13437 349.03125 199.4625Q349.17188 199.775 349.35938 199.97812Q349.5625 200.18124 349.8125 200.275Q350.0625 200.36874 350.375 200.36874Q350.78125 200.36874 351.07812 200.22812Q351.375 200.07187 351.57812 199.74374Q351.78125 199.41562 351.875 198.91562Q351.96875 198.4 351.96875 197.68124ZM355.8125 199.85312L355.8125 200.72812Q355.8125 201.275 355.53125 201.86874Q355.26562 202.4625 354.78125 202.85312L354.17188 202.43124Q354.35938 202.16562 354.48438 201.9Q354.60938 201.63437 354.67188 201.35312Q354.75 201.07187 354.75 200.74374L354.75 199.85312L355.8125 199.85312ZM360.26562 192.57187L360.26562 201.15L359.1875 201.15L359.1875 193.93124L357.0 194.72812L357.0 193.74374L360.10938 192.57187L360.26562 192.57187ZM365.07812 197.0875L364.21875 196.86874L364.64062 192.61874L369.01562 192.61874L369.01562 193.61874L365.5625 193.61874L365.29688 195.94687Q365.53125 195.80624 365.89062 195.69687Q366.26562 195.57187 366.73438 195.57187Q367.3125 195.57187 367.78125 195.775Q368.25 195.97812 368.57812 196.35312Q368.92188 196.72812 369.09375 197.25937Q369.26562 197.775 369.26562 198.43124Q369.26562 199.04062 369.09375 199.55624Q368.9375 200.07187 368.59375 200.4625Q368.26562 200.8375 367.75 201.05624Q367.25 201.275 366.5625 201.275Q366.04688 201.275 365.59375 201.13437Q365.14062 200.97812 364.76562 200.68124Q364.40625 200.38437 364.1875 199.94687Q363.96875 199.50937 363.90625 198.9L364.9375 198.9Q365.0 199.38437 365.20312 199.7125Q365.42188 200.04062 365.76562 200.2125Q366.10938 200.36874 366.5625 200.36874Q366.95312 200.36874 367.25 200.24374Q367.54688 200.10312 367.75 199.85312Q367.96875 199.60312 368.07812 199.24374Q368.1875 198.88437 368.1875 198.44687Q368.1875 198.04062 368.0625 197.69687Q367.95312 197.35312 367.73438 197.10312Q367.51562 196.8375 367.20312 196.69687Q366.89062 196.54062 366.46875 196.54062Q365.9375 196.54062 365.65625 196.69687Q365.375 196.8375 365.07812 197.0875Z" fill-rule="nonzero"/><path stroke="#cccccc" stroke-width="1.0" stroke-linecap="butt" d="M506.46667 305.0C506.46667 230.73611 446.2639 170.53334 372.0 170.53334C297.7361 170.53334 237.53334 230.73611 237.53334 305.0C237.53334 379.2639 297.7361 439.46667 372.0 439.46667C446.2639 439.46667 506.46667 379.2639 506.46667 305.0" fill-rule="nonzero"/><path fill="#000000" d="M353.0625 162.58022L353.0625 163.89272Q353.0625 164.93959 352.875 165.65834Q352.6875 166.37709 352.32812 166.81459Q351.98438 167.25209 351.48438 167.45522Q351.0 167.65834 350.375 167.65834Q349.89062 167.65834 349.46875 167.53334Q349.04688 167.40834 348.71875 167.14272Q348.39062 166.86147 348.15625 166.42397Q347.92188 165.98647 347.79688 165.36147Q347.67188 164.72084 347.67188 163.89272L347.67188 162.58022Q347.67188 161.53334 347.85938 160.83022Q348.0625 160.12709 348.40625 159.68959Q348.76562 159.25209 349.25 159.06459Q349.75 158.87709 350.35938 158.87709Q350.85938 158.87709 351.28125 159.00209Q351.70312 159.12709 352.03125 159.39272Q352.35938 159.64272 352.57812 160.08022Q352.8125 160.50209 352.9375 161.12709Q353.0625 161.75209 353.0625 162.58022ZM351.96875 164.06459L351.96875 162.40834Q351.96875 161.83022 351.90625 161.39272Q351.84375 160.95522 351.70312 160.64272Q351.57812 160.33022 351.375 160.14272Q351.1875 159.95522 350.9375 159.86147Q350.6875 159.76772 350.35938 159.76772Q349.98438 159.76772 349.67188 159.90834Q349.375 160.04897 349.17188 160.36147Q348.96875 160.67397 348.85938 161.18959Q348.76562 161.68959 348.76562 162.40834L348.76562 164.06459Q348.76562 164.64272 348.82812 165.08022Q348.90625 165.51772 349.03125 165.84584Q349.17188 166.15834 349.35938 166.36147Q349.5625 166.56459 349.8125 166.65834Q350.0625 166.75209 350.375 166.75209Q350.78125 166.75209 351.07812 166.61147Q351.375 166.45522 351.57812 166.12709Q351.78125 165.79897 351.875 165.29897Q351.96875 164.78334 351.96875 164.06459ZM355.8125 166.23647L355.8125 167.11147Q355.8125 167.65834 355.53125 168.25209Q355.26562 168.84584 354.78125 169.23647L354.17188 168.81459Q354.35938 168.54897 354.48438 168.28334Q354.60938 168.01772 354.67188 167.73647Q354.75 167.45522 354.75 167.12709L354.75 166.23647L355.8125 166.23647ZM362.29688 166.64272L362.29688 167.53334L356.71875 167.53334L356.71875 166.75209L359.51562 163.64272Q360.03125 163.06459 360.3125 162.67397Q360.59375 162.26772 360.70312 161.95522Q360.82812 161.62709 360.82812 161.29897Q360.82812 160.87709 360.65625 160.53334Q360.48438 160.18959 360.14062 159.98647Q359.8125 159.76772 359.32812 159.76772Q358.76562 159.76772 358.39062 160.00209Q358.01562 160.22084 357.82812 160.61147Q357.64062 161.00209 357.64062 161.50209L356.54688 161.50209Q356.54688 160.78334 356.85938 160.18959Q357.1875 159.59584 357.79688 159.23647Q358.42188 158.87709 359.32812 158.87709Q360.14062 158.87709 360.71875 159.17397Q361.29688 159.45522 361.59375 159.97084Q361.90625 160.47084 361.90625 161.15834Q361.90625 161.53334 361.78125 161.92397Q361.65625 162.29897 361.4375 162.68959Q361.21875 163.06459 360.92188 163.43959Q360.64062 163.79897 360.3125 164.15834L358.01562 166.64272L362.29688 166.64272ZM369.0625 162.58022L369.0625 163.89272Q369.0625 164.93959 368.875 165.65834Q368.6875 166.37709 368.32812 166.81459Q367.98438 167.25209 367.48438 167.45522Q367.0 167.65834 366.375 167.65834Q365.89062 167.65834 365.46875 167.53334Q365.04688 167.40834 364.71875 167.14272Q364.39062 166.86147 364.15625 166.42397Q363.92188 165.98647 363.79688 165.36147Q363.67188 164.72084 363.67188 163.89272L363.67188 162.58022Q363.67188 161.53334 363.85938 160.83022Q364.0625 160.12709 364.40625 159.68959Q364.76562 159.25209 365.25 159.06459Q365.75 158.87709 366.35938 158.87709Q366.85938 158.87709 367.28125 159.00209Q367.70312 159.12709 368.03125 159.39272Q368.35938 159.64272 368.57812 160.08022Q368.8125 160.50209 368.9375 161.12709Q369.0625 161.75209 369.0625 162.58022ZM367.96875 164.06459L367.96875 162.40834Q367.96875 161.83022 367.90625 161.39272Q367.84375 160.95522 367.70312 160.64272Q367.57812 160.33022 367.375 160.14272Q367.1875 159.95522 366.9375 159.86147Q366.6875 159.76772 366.35938 159.76772Q365.98438 159.76772 365.67188 159.90834Q365.375 160.04897 365.17188 160.36147Q364.96875 160.67397 364.85938 161.18959Q364.76562 161.68959 364.76562 162.40834L364.76562 164.06459Q364.76562 164.64272 364.82812 165.08022Q364.90625 165.51772 365.03125 165.84584Q365.17188 166.15834 365.35938 166.36147Q365.5625 166.56459 365.8125 166.65834Q366.0625 166.75209 366.375 166.75209Q366.78125 166.75209 367.07812 166.61147Q367.375 166.45522 367.57812 166.12709Q367.78125 165.79897 367.875 165.29897Q367.96875 164.78334 367.96875 164.06459Z" fill-rule="nonzero"/><path stroke="#cccccc" stroke-width="1.0" stroke-linecap="butt" d="M540.0833 305.0C540.0833 212.17014 464.82986 136.91667 372.0 136.91667C279.17014 136.91667 203.91667 212.17014 203.91667 305.0C203.91667 397.82986 279.17014 473.08334 372.0 473.08334C464.82986 473.08334 540.0833 397.82986 540.0833 305.0" fill-rule="nonzero"/><path fill="#000000" d="M353.0625 128.96355L353.0625 130.27605Q353.0625 131.32292 352.875 132.04167Q352.6875 132.76042 352.32812 133.19792Q351.98438 133.63542 351.48438 133.83855Q351.0 134.04167 350.375 134.04167Q349.89062 134.04167 349.46875 133.91667Q349.04688 133.79167 348.71875 133.52605Q348.39062 133.2448 348.15625 132.8073Q347.92188 132.3698 347.79688 131.7448Q347.67188 131.10417 347.67188 130.27605L347.67188 128.96355Q347.67188 127.91667 347.85938 127.21355Q348.0625 126.51042 348.40625 126.07292Q348.76562 125.63542 349.25 125.44792Q349.75 125.26042 350.35938 125.26042Q350.85938 125.26042 351.28125 125.38542Q351.70312 125.51042 352.03125 125.77605Q352.35938 126.02605 352.57812 126.46355Q352.8125 126.88542 352.9375 127.51042Q353.0625 128.13542 353.0625 128.96355ZM351.96875 130.44792L351.96875 128.79167Q351.96875 128.21355 351.90625 127.77605Q351.84375 127.33855 351.70312 127.02605Q351.57812 126.71355 351.375 126.52605Q351.1875 126.33855 350.9375 126.2448Q350.6875 126.15105 350.35938 126.15105Q349.98438 126.15105 349.67188 126.29167Q349.375 126.4323 349.17188 126.7448Q348.96875 127.0573 348.85938 127.57292Q348.76562 128.07292 348.76562 128.79167L348.76562 130.44792Q348.76562 131.02605 348.82812 131.46355Q348.90625 131.90105 349.03125 132.22917Q349.17188 132.54167 349.35938 132.7448Q349.5625 132.94792 349.8125 133.04167Q350.0625 133.13542 350.375 133.13542Q350.78125 133.13542 351.07812 132.9948Q351.375 132.83855 351.57812 132.51042Q351.78125 132.1823 351.875 131.6823Q351.96875 131.16667 351.96875 130.44792ZM355.8125 132.6198L355.8125 133.4948Q355.8125 134.04167 355.53125 134.63542Q355.26562 135.22917 354.78125 135.6198L354.17188 135.19792Q354.35938 134.9323 354.48438 134.66667Q354.60938 134.40105 354.67188 134.1198Q354.75 133.83855 354.75 133.51042L354.75 132.6198L355.8125 132.6198ZM362.29688 133.02605L362.29688 133.91667L356.71875 133.91667L356.71875 133.13542L359.51562 130.02605Q360.03125 129.44792 360.3125 129.0573Q360.59375 128.65105 360.70312 128.33855Q360.82812 128.01042 360.82812 127.6823Q360.82812 127.26042 360.65625 126.91667Q360.48438 126.57292 360.14062 126.3698Q359.8125 126.15105 359.32812 126.15105Q358.76562 126.15105 358.39062 126.38542Q358.01562 126.60417 357.82812 126.9948Q357.64062 127.38542 357.64062 127.88542L356.54688 127.88542Q356.54688 127.16667 356.85938 126.57292Q357.1875 125.97917 357.79688 125.6198Q358.42188 125.26042 359.32812 125.26042Q360.14062 125.26042 360.71875 125.5573Q361.29688 125.83855 361.59375 126.35417Q361.90625 126.85417 361.90625 127.54167Q361.90625 127.91667 361.78125 128.3073Q361.65625 128.6823 361.4375 129.07292Q361.21875 129.44792 360.92188 129.82292Q360.64062 130.1823 360.3125 130.54167L358.01562 133.02605L362.29688 133.02605ZM365.07812 129.85417L364.21875 129.63542L364.64062 125.38542L369.01562 125.38542L369.01562 126.38542L365.5625 126.38542L365.29688 128.71355Q365.53125 128.57292 365.89062 128.46355Q366.26562 128.33855 366.73438 128.33855Q367.3125 128.33855 367.78125 128.54167Q368.25 128.7448 368.57812 129.1198Q368.92188 129.4948 369.09375 130.02605Q369.26562 130.54167 369.26562 131.19792Q369.26562 131.8073 369.09375 132.32292Q368.9375 132.83855 368.59375 133.22917Q368.26562 133.60417 367.75 133.82292Q367.25 134.04167 366.5625 134.04167Q366.04688 134.04167 365.59375 133.90105Q365.14062 133.7448 364.76562 133.44792Q364.40625 133.15105 364.1875 132.71355Q363.96875 132.27605 363.90625 131.66667L364.9375 131.66667Q365.0 132.15105 365.20312 132.47917Q365.42188 132.8073 365.76562 132.97917Q366.10938 133.13542 366.5625 133.13542Q366.95312 133.13542 367.25 133.01042Q367.54688 132.8698 367.75 132.6198Q367.96875 132.3698 368.07812 132.01042Q368.1875 131.65105 368.1875 131.21355Q368.1875 130.8073 368.0625 130.46355Q367.95312 130.1198 367.73438 129.8698Q367.51562 129.60417 367.20312 129.46355Q366.89062 129.3073 366.46875 129.3073Q365.9375 129.3073 365.65625 129.46355Q365.375 129.60417 365.07812 129.85417Z" fill-rule="nonzero"/><path stroke="#cccccc" stroke-width="1.0" stroke-linecap="butt" d="M573.7 305.0C573.7 193.60417 483.39584 103.3 372.0 103.3C260.60416 103.3 170.3 193.60417 170.3 305.0C170.3 416.39584 260.60416 506.7 372.0 506.7C483.39584 506.7 573.7 416.39584 573.7 305.0" fill-rule="nonzero"/><path fill="#000000" d="M353.0625 95.34688L353.0625 96.65938Q353.0625 97.70625 352.875 98.425Q352.6875 99.14375 352.32812 99.58125Q351.98438 100.01875 351.48438 100.22188Q351.0 100.425 350.375 100.425Q349.89062 100.425 349.46875 100.3Q349.04688 100.175 348.71875 99.90938Q348.39062 99.62813 348.15625 99.19063Q347.92188 98.75313 347.79688 98.12813Q347.67188 97.4875 347.67188 96.65938L347.67188 95.34688Q347.67188 94.3 347.85938 93.59688Q348.0625 92.89375 348.40625 92.45625Q348.76562 92.01875 349.25 91.83125Q349.75 91.64375 350.35938 91.64375Q350.85938 91.64375 351.28125 91.76875Q351.70312 91.89375 352.03125 92.15938Q352.35938 92.40938 352.57812 92.84688Q352.8125 93.26875 352.9375 93.89375Q353.0625 94.51875 353.0625 95.34688ZM351.96875 96.83125L351.96875 95.175Q351.96875 94.59688 351.90625 94.15938Q351.84375 93.72188 351.70312 93.40938Q351.57812 93.09688 351.375 92.90938Q351.1875 92.72188 350.9375 92.62813Q350.6875 92.53438 350.35938 92.53438Q349.98438 92.53438 349.67188 92.675Q349.375 92.81563 349.17188 93.12813Q348.96875 93.44063 348.85938 93.95625Q348.76562 94.45625 348.76562 95.175L348.76562 96.83125Q348.76562 97.40938 348.82812 97.84688Q348.90625 98.28438 349.03125 98.6125Q349.17188 98.925 349.35938 99.12813Q349.5625 99.33125 349.8125 99.425Q350.0625 99.51875 350.375 99.51875Q350.78125 99.51875 351.07812 99.37813Q351.375 99.22188 351.57812 98.89375Q351.78125 98.56563 351.875 98.06563Q351.96875 97.55 351.96875 96.83125ZM355.8125 99.00313L355.8125 99.87813Q355.8125 100.425 355.53125 101.01875Q355.26562 101.6125 354.78125 102.00313L354.17188 101.58125Q354.35938 101.31563 354.48438 101.05Q354.60938 100.78438 354.67188 100.50313Q354.75 100.22188 354.75 99.89375L354.75 99.00313L355.8125 99.00313ZM358.29688 95.50313L359.0625 95.50313Q359.64062 95.50313 360.0 95.31563Q360.375 95.1125 360.5625 94.78438Q360.75 94.45625 360.75 94.03438Q360.75 93.55 360.57812 93.22188Q360.42188 92.87813 360.09375 92.70625Q359.76562 92.53438 359.26562 92.53438Q358.79688 92.53438 358.45312 92.72188Q358.10938 92.89375 357.90625 93.22188Q357.71875 93.55 357.71875 94.00313L356.625 94.00313Q356.625 93.34688 356.95312 92.81563Q357.28125 92.28438 357.875 91.97188Q358.46875 91.64375 359.26562 91.64375Q360.03125 91.64375 360.60938 91.925Q361.1875 92.19063 361.51562 92.7375Q361.84375 93.26875 361.84375 94.06563Q361.84375 94.39375 361.6875 94.75313Q361.53125 95.1125 361.21875 95.44063Q360.90625 95.75313 360.40625 95.95625Q359.92188 96.15938 359.21875 96.15938L358.29688 96.15938L358.29688 95.50313ZM358.29688 96.39375L358.29688 95.7375L359.21875 95.7375Q360.03125 95.7375 360.5625 95.94063Q361.09375 96.12813 361.40625 96.45625Q361.71875 96.76875 361.84375 97.15938Q361.96875 97.53438 361.96875 97.925Q361.96875 98.51875 361.76562 98.9875Q361.5625 99.44063 361.1875 99.76875Q360.82812 100.08125 360.32812 100.25313Q359.84375 100.425 359.26562 100.425Q358.70312 100.425 358.21875 100.26875Q357.73438 100.09688 357.35938 99.8Q356.98438 99.50313 356.76562 99.06563Q356.5625 98.6125 356.5625 98.05L357.64062 98.05Q357.64062 98.4875 357.82812 98.83125Q358.03125 99.15938 358.39062 99.34688Q358.76562 99.51875 359.26562 99.51875Q359.76562 99.51875 360.125 99.34688Q360.48438 99.175 360.67188 98.83125Q360.875 98.47188 360.875 97.94063Q360.875 97.40938 360.65625 97.06563Q360.4375 96.72188 360.01562 96.56563Q359.60938 96.39375 359.0625 96.39375L358.29688 96.39375ZM369.0625 95.34688L369.0625 96.65938Q369.0625 97.70625 368.875 98.425Q368.6875 99.14375 368.32812 99.58125Q367.98438 100.01875 367.48438 100.22188Q367.0 100.425 366.375 100.425Q365.89062 100.425 365.46875 100.3Q365.04688 100.175 364.71875 99.90938Q364.39062 99.62813 364.15625 99.19063Q363.92188 98.75313 363.79688 98.12813Q363.67188 97.4875 363.67188 96.65938L363.67188 95.34688Q363.67188 94.3 363.85938 93.59688Q364.0625 92.89375 364.40625 92.45625Q364.76562 92.01875 365.25 91.83125Q365.75 91.64375 366.35938 91.64375Q366.85938 91.64375 367.28125 91.76875Q367.70312 91.89375 368.03125 92.15938Q368.35938 92.40938 368.57812 92.84688Q368.8125 93.26875 368.9375 93.89375Q369.0625 94.51875 369.0625 95.34688ZM367.96875 96.83125L367.96875 95.175Q367.96875 94.59688 367.90625 94.15938Q367.84375 93.72188 367.70312 93.40938Q367.57812 93.09688 367.375 92.90938Q367.1875 92.72188 366.9375 92.62813Q366.6875 92.53438 366.35938 92.53438Q365.98438 92.53438 365.67188 92.675Q365.375 92.81563 365.17188 93.12813Q364.96875 93.44063 364.85938 93.95625Q364.76562 94.45625 364.76562 95.175L364.76562 96.83125Q364.76562 97.40938 364.82812 97.84688Q364.90625 98.28438 365.03125 98.6125Q365.17188 98.925 365.35938 99.12813Q365.5625 99.33125 365.8125 99.425Q366.0625 99.51875 366.375 99.51875Q366.78125 99.51875 367.07812 99.37813Q367.375 99.22188 367.57812 98.89375Q367.78125 98.56563 367.875 98.06563Q367.96875 97.55 367.96875 96.83125Z" fill-rule="nonzero"/><path stroke="#cccccc" stroke-width="1.0" stroke-linecap="butt" d="M372.0 305.0L372.0 103.0" fill-rule="nonzero"/><path fill="#000000" d="M350.53125 72.671875L351.39062 72.671875Q352.20312 72.671875 352.76562 72.984375Q353.34375 73.28125 353.64062 73.8125Q353.95312 74.34375 353.95312 75.015625Q353.95312 75.84375 353.60938 76.421875Q353.26562 77.0 352.67188 77.3125Q352.07812 77.625 351.29688 77.625Q350.84375 77.625 350.39062 77.5Q349.9375 77.359375 349.5625 77.09375Q349.20312 76.828125 348.98438 76.40625Q348.76562 75.984375 348.76562 75.40625L349.1875 75.15625Q349.1875 75.59375 349.4375 75.953125Q349.70312 76.296875 350.14062 76.515625Q350.59375 76.734375 351.1875 76.734375Q351.71875 76.734375 352.09375 76.515625Q352.46875 76.296875 352.67188 75.921875Q352.875 75.53125 352.875 75.03125Q352.875 74.625 352.6875 74.25Q352.51562 73.859375 352.1875 73.609375Q351.85938 73.359375 351.375 73.359375L350.53125 73.359375L350.53125 72.671875ZM351.04688 68.84375Q351.8125 68.84375 352.375 69.140625Q352.9375 69.4375 353.23438 69.953125Q353.54688 70.46875 353.54688 71.140625Q353.54688 71.703125 353.23438 72.171875Q352.9375 72.625 352.375 72.90625Q351.8125 73.171875 351.04688 73.171875L350.53125 73.171875L350.53125 72.46875L351.03125 72.46875Q351.54688 72.46875 351.85938 72.296875Q352.17188 72.125 352.3125 71.828125Q352.46875 71.515625 352.46875 71.125Q352.46875 70.765625 352.3125 70.453125Q352.15625 70.140625 351.84375 69.9375Q351.53125 69.734375 351.04688 69.734375Q350.625 69.734375 350.28125 69.9375Q349.9375 70.125 349.73438 70.46875Q349.53125 70.796875 349.53125 71.21875L349.53125 79.75L348.4375 79.75L348.4375 71.21875Q348.4375 70.5625 348.79688 70.03125Q349.15625 69.484375 349.75 69.171875Q350.34375 68.84375 351.04688 68.84375ZM357.57812 73.421875L357.57812 74.3125L354.71875 74.3125L354.71875 73.421875L357.57812 73.421875ZM358.84375 68.96875L359.9375 68.96875L362.73438 75.921875L365.53125 68.96875L366.625 68.96875L363.15625 77.5L362.3125 77.5L358.84375 68.96875ZM358.48438 68.96875L359.45312 68.96875L359.60938 74.171875L359.60938 77.5L358.48438 77.5L358.48438 68.96875ZM366.01562 68.96875L366.98438 68.96875L366.98438 77.5L365.85938 77.5L365.85938 74.171875L366.01562 68.96875ZM370.10938 76.84375L371.875 71.15625L373.03125 71.15625L370.48438 78.484375Q370.40625 78.71875 370.25 78.984375Q370.10938 79.265625 369.89062 79.5Q369.67188 79.75 369.35938 79.90625Q369.04688 80.0625 368.60938 80.0625Q368.48438 80.0625 368.28125 80.015625Q368.07812 79.984375 368.0 79.96875L368.0 79.09375Q368.04688 79.09375 368.14062 79.09375Q368.25 79.109375 368.28125 79.109375Q368.65625 79.109375 368.90625 79.015625Q369.17188 78.921875 369.34375 78.6875Q369.53125 78.46875 369.65625 78.078125L370.10938 76.84375ZM368.8125 71.15625L370.45312 76.078125L370.73438 77.21875L369.96875 77.625L367.625 71.15625L368.8125 71.15625ZM375.40625 72.15625L375.40625 77.5L374.32812 77.5L374.32812 71.15625L375.375 71.15625L375.40625 72.15625ZM377.39062 71.125L377.39062 72.125Q377.25 72.109375 377.125 72.09375Q377.01562 72.078125 376.85938 72.078125Q376.48438 72.078125 376.1875 72.203125Q375.90625 72.3125 375.70312 72.53125Q375.51562 72.734375 375.39062 73.03125Q375.28125 73.328125 375.25 73.671875L374.9375 73.84375Q374.9375 73.265625 375.04688 72.765625Q375.17188 72.265625 375.40625 71.875Q375.65625 71.484375 376.01562 71.265625Q376.39062 71.046875 376.90625 71.046875Q377.03125 71.046875 377.17188 71.078125Q377.32812 71.09375 377.39062 71.125ZM380.85938 76.71875Q381.25 76.71875 381.57812 76.5625Q381.90625 76.40625 382.10938 76.140625Q382.32812 75.859375 382.35938 75.5L383.39062 75.5Q383.35938 76.0625 383.0 76.546875Q382.65625 77.03125 382.09375 77.328125Q381.53125 77.625 380.85938 77.625Q380.15625 77.625 379.625 77.375Q379.09375 77.109375 378.73438 76.671875Q378.39062 76.234375 378.21875 75.671875Q378.04688 75.09375 378.04688 74.453125L378.04688 74.203125Q378.04688 73.5625 378.21875 73.0Q378.39062 72.421875 378.73438 71.984375Q379.09375 71.546875 379.625 71.296875Q380.15625 71.046875 380.85938 71.046875Q381.60938 71.046875 382.15625 71.34375Q382.71875 71.640625 383.03125 72.171875Q383.35938 72.6875 383.39062 73.34375L382.35938 73.34375Q382.32812 72.953125 382.14062 72.640625Q381.95312 72.3125 381.625 72.125Q381.29688 71.9375 380.85938 71.9375Q380.35938 71.9375 380.01562 72.140625Q379.6875 72.328125 379.48438 72.65625Q379.29688 72.984375 379.20312 73.390625Q379.125 73.796875 379.125 74.203125L379.125 74.453125Q379.125 74.875 379.20312 75.28125Q379.29688 75.671875 379.48438 76.0Q379.6875 76.328125 380.01562 76.53125Q380.35938 76.71875 380.85938 76.71875ZM386.95312 77.625Q386.29688 77.625 385.75 77.40625Q385.21875 77.171875 384.82812 76.765625Q384.45312 76.34375 384.25 75.78125Q384.04688 75.21875 384.04688 74.546875L384.04688 74.3125Q384.04688 73.53125 384.26562 72.921875Q384.5 72.3125 384.89062 71.890625Q385.28125 71.46875 385.78125 71.265625Q386.28125 71.046875 386.8125 71.046875Q387.5 71.046875 387.98438 71.28125Q388.48438 71.515625 388.79688 71.9375Q389.125 72.34375 389.26562 72.921875Q389.42188 73.484375 389.42188 74.140625L389.42188 74.640625L384.6875 74.640625L384.6875 73.75L388.34375 73.75L388.34375 73.671875Q388.3125 73.25 388.15625 72.859375Q388.01562 72.453125 387.6875 72.203125Q387.375 71.9375 386.8125 71.9375Q386.45312 71.9375 386.14062 72.09375Q385.82812 72.25 385.59375 72.5625Q385.375 72.859375 385.25 73.296875Q385.14062 73.734375 385.14062 74.3125L385.14062 74.546875Q385.14062 75.0 385.26562 75.40625Q385.39062 75.796875 385.625 76.09375Q385.875 76.390625 386.21875 76.5625Q386.57812 76.734375 387.01562 76.734375Q387.59375 76.734375 387.98438 76.5Q388.39062 76.265625 388.6875 75.875L389.34375 76.390625Q389.14062 76.703125 388.8125 76.984375Q388.5 77.265625 388.03125 77.453125Q387.57812 77.625 386.95312 77.625ZM391.40625 72.515625L391.40625 77.5L390.32812 77.5L390.32812 71.15625L391.35938 71.15625L391.40625 72.515625ZM391.15625 74.09375L390.70312 74.078125Q390.70312 73.421875 390.89062 72.875Q391.07812 72.3125 391.42188 71.90625Q391.76562 71.5 392.23438 71.28125Q392.70312 71.046875 393.28125 71.046875Q393.75 71.046875 394.125 71.171875Q394.5 71.296875 394.76562 71.578125Q395.03125 71.84375 395.17188 72.28125Q395.3125 72.71875 395.3125 73.34375L395.3125 77.5L394.21875 77.5L394.21875 73.328125Q394.21875 72.828125 394.07812 72.53125Q393.9375 72.234375 393.65625 72.09375Q393.375 71.953125 392.95312 71.953125Q392.54688 71.953125 392.21875 72.125Q391.89062 72.296875 391.65625 72.59375Q391.42188 72.890625 391.28125 73.28125Q391.15625 73.65625 391.15625 74.09375Z" fill-rule="nonzero"/><path stroke="#cccccc" stroke-width="1.0" stroke-linecap="butt" d="M372.0 305.0L547.0 204.0" fill-rule="nonzero"/><path fill="#000000" d="M543.6406 190.78125L544.7656 190.78125Q544.6719 191.59375 544.2969 192.23438Q543.9219 192.875 543.2344 193.25Q542.5625 193.625 541.53125 193.625Q540.78125 193.625 540.1719 193.34375Q539.5625 193.04688 539.1094 192.53125Q538.6719 192.01562 538.4375 191.29688Q538.2031 190.5625 538.2031 189.65625L538.2031 188.8125Q538.2031 187.92188 538.4375 187.1875Q538.6719 186.45312 539.125 185.9375Q539.5781 185.40625 540.2031 185.125Q540.84375 184.84375 541.625 184.84375Q542.59375 184.84375 543.2656 185.21875Q543.9375 185.57812 544.2969 186.21875Q544.6719 186.85938 544.7656 187.70312L543.6406 187.70312Q543.5625 187.10938 543.3281 186.6875Q543.1094 186.25 542.7031 186.01562Q542.2969 185.78125 541.625 185.78125Q541.0625 185.78125 540.625 186.0Q540.2031 186.20312 539.90625 186.60938Q539.625 187.0 539.46875 187.5625Q539.3281 188.125 539.3281 188.79688L539.3281 189.65625Q539.3281 190.28125 539.4531 190.84375Q539.59375 191.39062 539.8594 191.8125Q540.125 192.21875 540.5469 192.46875Q540.96875 192.70312 541.53125 192.70312Q542.25 192.70312 542.6719 192.46875Q543.1094 192.23438 543.3281 191.8125Q543.5469 191.39062 543.6406 190.78125ZM550.0625 192.42188L550.0625 189.15625Q550.0625 188.78125 549.90625 188.5Q549.7656 188.21875 549.46875 188.07812Q549.1719 187.92188 548.7344 187.92188Q548.3125 187.92188 548.0 188.0625Q547.7031 188.20312 547.53125 188.4375Q547.3594 188.65625 547.3594 188.92188L546.28125 188.92188Q546.28125 188.57812 546.4531 188.25Q546.625 187.90625 546.9531 187.64062Q547.28125 187.35938 547.75 187.20312Q548.21875 187.04688 548.7969 187.04688Q549.4844 187.04688 550.0156 187.28125Q550.5469 187.51562 550.84375 187.98438Q551.15625 188.45312 551.15625 189.15625L551.15625 192.10938Q551.15625 192.4375 551.2031 192.79688Q551.2656 193.14062 551.375 193.40625L551.375 193.5L550.2344 193.5Q550.15625 193.3125 550.1094 193.0Q550.0625 192.6875 550.0625 192.42188ZM550.25 189.65625L550.2656 190.42188L549.1719 190.42188Q548.7031 190.42188 548.34375 190.5Q547.9844 190.5625 547.7344 190.71875Q547.4844 190.85938 547.3594 191.07812Q547.2344 191.29688 547.2344 191.59375Q547.2344 191.89062 547.3594 192.14062Q547.5 192.375 547.7656 192.53125Q548.0469 192.67188 548.4375 192.67188Q548.9375 192.67188 549.3125 192.46875Q549.7031 192.25 549.9219 191.95312Q550.15625 191.64062 550.1719 191.34375L550.6406 191.875Q550.59375 192.10938 550.40625 192.42188Q550.2344 192.71875 549.9219 193.0Q549.625 193.26562 549.2031 193.45312Q548.7969 193.625 548.28125 193.625Q547.6406 193.625 547.15625 193.375Q546.6719 193.10938 546.40625 192.6875Q546.1406 192.26562 546.1406 191.73438Q546.1406 191.21875 546.3281 190.84375Q546.53125 190.45312 546.90625 190.1875Q547.28125 189.92188 547.8125 189.79688Q548.34375 189.65625 549.0 189.65625L550.25 189.65625ZM554.40625 188.15625L554.40625 193.5L553.3281 193.5L553.3281 187.15625L554.375 187.15625L554.40625 188.15625ZM556.3906 187.125L556.3906 188.125Q556.25 188.10938 556.125 188.09375Q556.0156 188.07812 555.8594 188.07812Q555.4844 188.07812 555.1875 188.20312Q554.90625 188.3125 554.7031 188.53125Q554.5156 188.73438 554.3906 189.03125Q554.28125 189.32812 554.25 189.67188L553.9375 189.84375Q553.9375 189.26562 554.0469 188.76562Q554.1719 188.26562 554.40625 187.875Q554.65625 187.48438 555.0156 187.26562Q555.3906 187.04688 555.90625 187.04688Q556.03125 187.04688 556.1719 187.07812Q556.3281 187.09375 556.3906 187.125ZM559.1094 192.84375L560.875 187.15625L562.03125 187.15625L559.4844 194.48438Q559.40625 194.71875 559.25 194.98438Q559.1094 195.26562 558.8906 195.5Q558.6719 195.75 558.3594 195.90625Q558.0469 196.0625 557.6094 196.0625Q557.4844 196.0625 557.28125 196.01562Q557.0781 195.98438 557.0 195.96875L557.0 195.09375Q557.0469 195.09375 557.1406 195.09375Q557.25 195.10938 557.28125 195.10938Q557.65625 195.10938 557.90625 195.01562Q558.1719 194.92188 558.34375 194.6875Q558.53125 194.46875 558.65625 194.07812L559.1094 192.84375ZM557.8125 187.15625L559.4531 192.07812L559.7344 193.21875L558.96875 193.625L556.625 187.15625L557.8125 187.15625ZM563.0469 190.40625L563.0469 190.26562Q563.0469 189.57812 563.2344 189.0Q563.4375 188.40625 563.8125 187.96875Q564.1875 187.53125 564.71875 187.29688Q565.25 187.04688 565.9219 187.04688Q566.5781 187.04688 567.1094 187.29688Q567.65625 187.53125 568.03125 187.96875Q568.40625 188.40625 568.6094 189.0Q568.8125 189.57812 568.8125 190.26562L568.8125 190.40625Q568.8125 191.07812 568.6094 191.67188Q568.40625 192.25 568.03125 192.6875Q567.65625 193.125 567.125 193.375Q566.59375 193.625 565.9219 193.625Q565.2656 193.625 564.71875 193.375Q564.1875 193.125 563.8125 192.6875Q563.4375 192.25 563.2344 191.67188Q563.0469 191.07812 563.0469 190.40625ZM564.125 190.26562L564.125 190.40625Q564.125 190.875 564.2344 191.29688Q564.34375 191.71875 564.5625 192.04688Q564.7969 192.35938 565.1406 192.54688Q565.4844 192.71875 565.9219 192.71875Q566.375 192.71875 566.7031 192.54688Q567.0469 192.35938 567.2656 192.04688Q567.5 191.71875 567.6094 191.29688Q567.71875 190.875 567.71875 190.40625L567.71875 190.26562Q567.71875 189.79688 567.6094 189.375Q567.5 188.95312 567.2656 188.64062Q567.0469 188.3125 566.7031 188.125Q566.375 187.9375 565.9219 187.9375Q565.46875 187.9375 565.125 188.125Q564.7969 188.3125 564.5625 188.64062Q564.34375 188.95312 564.2344 189.375Q564.125 189.79688 564.125 190.26562ZM571.40625 188.375L571.40625 195.9375L570.3281 195.9375L570.3281 187.15625L571.3125 187.15625L571.40625 188.375ZM575.6875 190.28125L575.6875 190.40625Q575.6875 191.09375 575.5156 191.6875Q575.3594 192.26562 575.0469 192.70312Q574.7344 193.14062 574.2656 193.39062Q573.8125 193.625 573.21875 193.625Q572.625 193.625 572.15625 193.42188Q571.6875 193.21875 571.3594 192.84375Q571.0469 192.45312 570.8594 191.92188Q570.6719 191.39062 570.59375 190.71875L570.59375 190.0625Q570.6719 189.35938 570.8594 188.8125Q571.0469 188.25 571.3594 187.85938Q571.6875 187.45312 572.1406 187.25Q572.6094 187.04688 573.2031 187.04688Q573.7969 187.04688 574.2656 187.28125Q574.7344 187.5 575.0469 187.9375Q575.3594 188.35938 575.5156 188.95312Q575.6875 189.54688 575.6875 190.28125ZM574.59375 190.40625L574.59375 190.28125Q574.59375 189.79688 574.4844 189.39062Q574.3906 188.96875 574.1875 188.65625Q573.9844 188.32812 573.65625 188.14062Q573.3281 187.95312 572.8906 187.95312Q572.4844 187.95312 572.1719 188.09375Q571.875 188.23438 571.65625 188.48438Q571.4531 188.71875 571.3125 189.01562Q571.1875 189.3125 571.125 189.64062L571.125 191.15625Q571.2344 191.5625 571.4375 191.92188Q571.65625 192.28125 572.0 192.5Q572.3594 192.71875 572.90625 192.71875Q573.34375 192.71875 573.65625 192.54688Q573.9844 192.35938 574.1875 192.04688Q574.3906 191.71875 574.4844 191.29688Q574.59375 190.875 574.59375 190.40625ZM578.40625 184.5L578.40625 193.5L577.3281 193.5L577.3281 184.5L578.40625 184.5ZM578.15625 190.09375L577.7031 190.07812Q577.7031 189.42188 577.8906 188.875Q578.0781 188.3125 578.4219 187.90625Q578.7656 187.5 579.2344 187.28125Q579.7031 187.04688 580.28125 187.04688Q580.75 187.04688 581.125 187.17188Q581.5 187.29688 581.7656 187.57812Q582.03125 187.84375 582.1719 188.28125Q582.3125 188.71875 582.3125 189.34375L582.3125 193.5L581.21875 193.5L581.21875 189.32812Q581.21875 188.82812 581.0781 188.53125Q580.9375 188.23438 580.65625 188.09375Q580.375 187.95312 579.9531 187.95312Q579.5469 187.95312 579.21875 188.125Q578.8906 188.29688 578.65625 188.59375Q578.4219 188.89062 578.28125 189.28125Q578.15625 189.65625 578.15625 190.09375ZM586.1094 192.84375L587.875 187.15625L589.03125 187.15625L586.4844 194.48438Q586.40625 194.71875 586.25 194.98438Q586.1094 195.26562 585.8906 195.5Q585.6719 195.75 585.3594 195.90625Q585.0469 196.0625 584.6094 196.0625Q584.4844 196.0625 584.28125 196.01562Q584.0781 195.98438 584.0 195.96875L584.0 195.09375Q584.0469 195.09375 584.1406 195.09375Q584.25 195.10938 584.28125 195.10938Q584.65625 195.10938 584.90625 195.01562Q585.1719 194.92188 585.34375 194.6875Q585.53125 194.46875 585.65625 194.07812L586.1094 192.84375ZM584.8125 187.15625L586.4531 192.07812L586.7344 193.21875L585.96875 193.625L583.625 187.15625L584.8125 187.15625ZM591.5 184.5L591.5 193.5L590.4219 193.5L590.4219 184.5L591.5 184.5ZM594.5 184.5L594.5 193.5L593.4219 193.5L593.4219 184.5L594.5 184.5ZM598.9531 193.625Q598.2969 193.625 597.75 193.40625Q597.21875 193.17188 596.8281 192.76562Q596.4531 192.34375 596.25 191.78125Q596.0469 191.21875 596.0469 190.54688L596.0469 190.3125Q596.0469 189.53125 596.2656 188.92188Q596.5 188.3125 596.8906 187.89062Q597.28125 187.46875 597.78125 187.26562Q598.28125 187.04688 598.8125 187.04688Q599.5 187.04688 599.9844 187.28125Q600.4844 187.51562 600.7969 187.9375Q601.125 188.34375 601.2656 188.92188Q601.4219 189.48438 601.4219 190.14062L601.4219 190.64062L596.6875 190.64062L596.6875 189.75L600.34375 189.75L600.34375 189.67188Q600.3125 189.25 600.15625 188.85938Q600.0156 188.45312 599.6875 188.20312Q599.375 187.9375 598.8125 187.9375Q598.4531 187.9375 598.1406 188.09375Q597.8281 188.25 597.59375 188.5625Q597.375 188.85938 597.25 189.29688Q597.1406 189.73438 597.1406 190.3125L597.1406 190.54688Q597.1406 191.0 597.2656 191.40625Q597.3906 191.79688 597.625 192.09375Q597.875 192.39062 598.21875 192.5625Q598.5781 192.73438 599.0156 192.73438Q599.59375 192.73438 599.9844 192.5Q600.3906 192.26562 600.6875 191.875L601.34375 192.39062Q601.1406 192.70312 600.8125 192.98438Q600.5 193.26562 600.03125 193.45312Q599.5781 193.625 598.9531 193.625ZM603.40625 188.51562L603.40625 193.5L602.3281 193.5L602.3281 187.15625L603.3594 187.15625L603.40625 188.51562ZM603.15625 190.09375L602.7031 190.07812Q602.7031 189.42188 602.8906 188.875Q603.0781 188.3125 603.4219 187.90625Q603.7656 187.5 604.2344 187.28125Q604.7031 187.04688 605.28125 187.04688Q605.75 187.04688 606.125 187.17188Q606.5 187.29688 606.7656 187.57812Q607.03125 187.84375 607.1719 188.28125Q607.3125 188.71875 607.3125 189.34375L607.3125 193.5L606.21875 193.5L606.21875 189.32812Q606.21875 188.82812 606.0781 188.53125Q605.9375 188.23438 605.65625 188.09375Q605.375 187.95312 604.9531 187.95312Q604.5469 187.95312 604.21875 188.125Q603.8906 188.29688 603.65625 188.59375Q603.4219 188.89062 603.28125 189.28125Q603.15625 189.65625 603.15625 190.09375Z" fill-rule="nonzero"/><path stroke="#cccccc" stroke-width="1.0" stroke-linecap="butt" d="M372.0 305.0L547.0 406.0" fill-rule="nonzero"/><path fill="#000000" d="M547.2969 425.5L545.5156 425.5L545.53125 424.57812L547.2969 424.57812Q548.21875 424.57812 548.8281 424.20312Q549.4375 423.8125 549.7344 423.125Q550.0469 422.42188 550.0469 421.48438L550.0469 420.96875Q550.0469 420.23438 549.875 419.67188Q549.7031 419.09375 549.3594 418.70312Q549.0156 418.29688 548.5156 418.09375Q548.03125 417.89062 547.40625 417.89062L545.4844 417.89062L545.4844 416.96875L547.40625 416.96875Q548.25 416.96875 548.9375 417.25Q549.625 417.53125 550.125 418.0625Q550.625 418.57812 550.8906 419.32812Q551.1719 420.0625 551.1719 420.98438L551.1719 421.48438Q551.1719 422.42188 550.8906 423.17188Q550.625 423.90625 550.1094 424.42188Q549.6094 424.9375 548.8906 425.21875Q548.1875 425.5 547.2969 425.5ZM546.125 416.96875L546.125 425.5L544.9844 425.5L544.9844 416.96875L546.125 416.96875ZM555.0781 421.42188L555.0781 422.3125L552.21875 422.3125L552.21875 421.42188L555.0781 421.42188ZM561.1719 424.57812L561.1719 425.5L556.90625 425.5L556.90625 424.57812L561.1719 424.57812ZM557.125 416.96875L557.125 425.5L555.9844 425.5L555.9844 416.96875L557.125 416.96875ZM563.0 419.15625L563.0 425.5L561.9219 425.5L561.9219 419.15625L563.0 419.15625ZM561.8281 417.48438Q561.8281 417.21875 561.9844 417.03125Q562.15625 416.84375 562.46875 416.84375Q562.78125 416.84375 562.9375 417.03125Q563.1094 417.21875 563.1094 417.48438Q563.1094 417.73438 562.9375 417.92188Q562.78125 418.09375 562.46875 418.09375Q562.15625 418.09375 561.9844 417.92188Q561.8281 417.73438 561.8281 417.48438ZM565.90625 420.42188L565.90625 425.5L564.8125 425.5L564.8125 419.15625L565.84375 419.15625L565.90625 420.42188ZM565.6875 422.09375L565.1719 422.07812Q565.1875 421.42188 565.34375 420.875Q565.5156 420.3125 565.8281 419.90625Q566.15625 419.5 566.6406 419.28125Q567.125 419.04688 567.75 419.04688Q568.2031 419.04688 568.5781 419.17188Q568.9531 419.29688 569.21875 419.5625Q569.5 419.82812 569.6406 420.25Q569.7969 420.67188 569.7969 421.28125L569.7969 425.5L568.71875 425.5L568.71875 421.32812Q568.71875 420.82812 568.5469 420.53125Q568.3906 420.23438 568.0781 420.09375Q567.78125 419.95312 567.3594 419.95312Q566.8906 419.95312 566.5625 420.125Q566.2344 420.29688 566.0469 420.59375Q565.8594 420.89062 565.7656 421.28125Q565.6875 421.65625 565.6875 422.09375ZM569.7969 421.48438L569.0625 421.71875Q569.0625 421.1875 569.2344 420.71875Q569.40625 420.23438 569.71875 419.85938Q570.0469 419.48438 570.5156 419.26562Q570.9844 419.04688 571.5781 419.04688Q572.09375 419.04688 572.4844 419.1875Q572.8906 419.3125 573.15625 419.59375Q573.4219 419.875 573.5625 420.3125Q573.7031 420.73438 573.7031 421.32812L573.7031 425.5L572.625 425.5L572.625 421.32812Q572.625 420.78125 572.4531 420.5Q572.28125 420.20312 571.9844 420.07812Q571.6875 419.95312 571.2656 419.95312Q570.90625 419.95312 570.625 420.07812Q570.3594 420.20312 570.1719 420.42188Q569.9844 420.625 569.8906 420.90625Q569.7969 421.1875 569.7969 421.48438ZM575.5469 422.40625L575.5469 422.26562Q575.5469 421.57812 575.7344 421.0Q575.9375 420.40625 576.3125 419.96875Q576.6875 419.53125 577.21875 419.29688Q577.75 419.04688 578.4219 419.04688Q579.0781 419.04688 579.6094 419.29688Q580.15625 419.53125 580.53125 419.96875Q580.90625 420.40625 581.1094 421.0Q581.3125 421.57812 581.3125 422.26562L581.3125 422.40625Q581.3125 423.07812 581.1094 423.67188Q580.90625 424.25 580.53125 424.6875Q580.15625 425.125 579.625 425.375Q579.09375 425.625 578.4219 425.625Q577.7656 425.625 577.21875 425.375Q576.6875 425.125 576.3125 424.6875Q575.9375 424.25 575.7344 423.67188Q575.5469 423.07812 575.5469 422.40625ZM576.625 422.26562L576.625 422.40625Q576.625 422.875 576.7344 423.29688Q576.84375 423.71875 577.0625 424.04688Q577.2969 424.35938 577.6406 424.54688Q577.9844 424.71875 578.4219 424.71875Q578.875 424.71875 579.2031 424.54688Q579.5469 424.35938 579.7656 424.04688Q580.0 423.71875 580.1094 423.29688Q580.21875 422.875 580.21875 422.40625L580.21875 422.26562Q580.21875 421.79688 580.1094 421.375Q580.0 420.95312 579.7656 420.64062Q579.5469 420.3125 579.2031 420.125Q578.875 419.9375 578.4219 419.9375Q577.96875 419.9375 577.625 420.125Q577.2969 420.3125 577.0625 420.64062Q576.84375 420.95312 576.7344 421.375Q576.625 421.79688 576.625 422.26562ZM583.90625 420.51562L583.90625 425.5L582.8281 425.5L582.8281 419.15625L583.8594 419.15625L583.90625 420.51562ZM583.65625 422.09375L583.2031 422.07812Q583.2031 421.42188 583.3906 420.875Q583.5781 420.3125 583.9219 419.90625Q584.2656 419.5 584.7344 419.28125Q585.2031 419.04688 585.78125 419.04688Q586.25 419.04688 586.625 419.17188Q587.0 419.29688 587.2656 419.57812Q587.53125 419.84375 587.6719 420.28125Q587.8125 420.71875 587.8125 421.34375L587.8125 425.5L586.71875 425.5L586.71875 421.32812Q586.71875 420.82812 586.5781 420.53125Q586.4375 420.23438 586.15625 420.09375Q585.875 419.95312 585.4531 419.95312Q585.0469 419.95312 584.71875 420.125Q584.3906 420.29688 584.15625 420.59375Q583.9219 420.89062 583.78125 421.28125Q583.65625 421.65625 583.65625 422.09375ZM592.4531 425.625Q591.7969 425.625 591.25 425.40625Q590.71875 425.17188 590.3281 424.76562Q589.9531 424.34375 589.75 423.78125Q589.5469 423.21875 589.5469 422.54688L589.5469 422.3125Q589.5469 421.53125 589.7656 420.92188Q590.0 420.3125 590.3906 419.89062Q590.78125 419.46875 591.28125 419.26562Q591.78125 419.04688 592.3125 419.04688Q593.0 419.04688 593.4844 419.28125Q593.9844 419.51562 594.2969 419.9375Q594.625 420.34375 594.7656 420.92188Q594.9219 421.48438 594.9219 422.14062L594.9219 422.64062L590.1875 422.64062L590.1875 421.75L593.84375 421.75L593.84375 421.67188Q593.8125 421.25 593.65625 420.85938Q593.5156 420.45312 593.1875 420.20312Q592.875 419.9375 592.3125 419.9375Q591.9531 419.9375 591.6406 420.09375Q591.3281 420.25 591.09375 420.5625Q590.875 420.85938 590.75 421.29688Q590.6406 421.73438 590.6406 422.3125L590.6406 422.54688Q590.6406 423.0 590.7656 423.40625Q590.8906 423.79688 591.125 424.09375Q591.375 424.39062 591.71875 424.5625Q592.0781 424.73438 592.5156 424.73438Q593.09375 424.73438 593.4844 424.5Q593.8906 424.26562 594.1875 423.875L594.84375 424.39062Q594.6406 424.70312 594.3125 424.98438Q594.0 425.26562 593.53125 425.45312Q593.0781 425.625 592.4531 425.625ZM596.90625 420.51562L596.90625 425.5L595.8281 425.5L595.8281 419.15625L596.8594 419.15625L596.90625 420.51562ZM596.65625 422.09375L596.2031 422.07812Q596.2031 421.42188 596.3906 420.875Q596.5781 420.3125 596.9219 419.90625Q597.2656 419.5 597.7344 419.28125Q598.2031 419.04688 598.78125 419.04688Q599.25 419.04688 599.625 419.17188Q600.0 419.29688 600.2656 419.57812Q600.53125 419.84375 600.6719 420.28125Q600.8125 420.71875 600.8125 421.34375L600.8125 425.5L599.71875 425.5L599.71875 421.32812Q599.71875 420.82812 599.5781 420.53125Q599.4375 420.23438 599.15625 420.09375Q598.875 419.95312 598.4531 419.95312Q598.0469 419.95312 597.71875 420.125Q597.3906 420.29688 597.15625 420.59375Q596.9219 420.89062 596.78125 421.28125Q596.65625 421.65625 596.65625 422.09375Z" fill-rule="nonzero"/><path stroke="#cccccc" stroke-width="1.0" stroke-linecap="butt" d="M372.0 305.0L372.0 507.0" fill-rule="nonzero"/><path fill="#000000" d="M356.67188 540.5781L356.67188 541.5L352.40625 541.5L352.40625 540.5781L356.67188 540.5781ZM352.625 532.96875L352.625 541.5L351.48438 541.5L351.48438 532.96875L352.625 532.96875ZM358.5 535.15625L358.5 541.5L357.42188 541.5L357.42188 535.15625L358.5 535.15625ZM357.32812 533.4844Q357.32812 533.21875 357.48438 533.03125Q357.65625 532.84375 357.96875 532.84375Q358.28125 532.84375 358.4375 533.03125Q358.60938 533.21875 358.60938 533.4844Q358.60938 533.7344 358.4375 533.9219Q358.28125 534.09375 357.96875 534.09375Q357.65625 534.09375 357.48438 533.9219Q357.32812 533.7344 357.32812 533.4844ZM361.40625 536.5156L361.40625 541.5L360.32812 541.5L360.32812 535.15625L361.35938 535.15625L361.40625 536.5156ZM361.15625 538.09375L360.70312 538.0781Q360.70312 537.4219 360.89062 536.875Q361.07812 536.3125 361.42188 535.90625Q361.76562 535.5 362.23438 535.28125Q362.70312 535.0469 363.28125 535.0469Q363.75 535.0469 364.125 535.1719Q364.5 535.2969 364.76562 535.5781Q365.03125 535.84375 365.17188 536.28125Q365.3125 536.71875 365.3125 537.34375L365.3125 541.5L364.21875 541.5L364.21875 537.3281Q364.21875 536.8281 364.07812 536.53125Q363.9375 536.2344 363.65625 536.09375Q363.375 535.9531 362.95312 535.9531Q362.54688 535.9531 362.21875 536.125Q361.89062 536.2969 361.65625 536.59375Q361.42188 536.8906 361.28125 537.28125Q361.15625 537.65625 361.15625 538.09375ZM371.0625 540.4219L371.0625 537.15625Q371.0625 536.78125 370.90625 536.5Q370.76562 536.21875 370.46875 536.0781Q370.17188 535.9219 369.73438 535.9219Q369.3125 535.9219 369.0 536.0625Q368.70312 536.2031 368.53125 536.4375Q368.35938 536.65625 368.35938 536.9219L367.28125 536.9219Q367.28125 536.5781 367.45312 536.25Q367.625 535.90625 367.95312 535.6406Q368.28125 535.3594 368.75 535.2031Q369.21875 535.0469 369.79688 535.0469Q370.48438 535.0469 371.01562 535.28125Q371.54688 535.5156 371.84375 535.9844Q372.15625 536.4531 372.15625 537.15625L372.15625 540.1094Q372.15625 540.4375 372.20312 540.7969Q372.26562 541.1406 372.375 541.40625L372.375 541.5L371.23438 541.5Q371.15625 541.3125 371.10938 541.0Q371.0625 540.6875 371.0625 540.4219ZM371.25 537.65625L371.26562 538.4219L370.17188 538.4219Q369.70312 538.4219 369.34375 538.5Q368.98438 538.5625 368.73438 538.71875Q368.48438 538.8594 368.35938 539.0781Q368.23438 539.2969 368.23438 539.59375Q368.23438 539.8906 368.35938 540.1406Q368.5 540.375 368.76562 540.53125Q369.04688 540.6719 369.4375 540.6719Q369.9375 540.6719 370.3125 540.46875Q370.70312 540.25 370.92188 539.9531Q371.15625 539.6406 371.17188 539.34375L371.64062 539.875Q371.59375 540.1094 371.40625 540.4219Q371.23438 540.71875 370.92188 541.0Q370.625 541.2656 370.20312 541.4531Q369.79688 541.625 369.28125 541.625Q368.64062 541.625 368.15625 541.375Q367.67188 541.1094 367.40625 540.6875Q367.14062 540.2656 367.14062 539.7344Q367.14062 539.21875 367.32812 538.84375Q367.53125 538.4531 367.90625 538.1875Q368.28125 537.9219 368.8125 537.7969Q369.34375 537.65625 370.0 537.65625L371.25 537.65625ZM375.5 532.5L375.5 541.5L374.42188 541.5L374.42188 532.5L375.5 532.5ZM377.04688 538.40625L377.04688 538.2656Q377.04688 537.5781 377.23438 537.0Q377.4375 536.40625 377.8125 535.96875Q378.1875 535.53125 378.71875 535.2969Q379.25 535.0469 379.92188 535.0469Q380.57812 535.0469 381.10938 535.2969Q381.65625 535.53125 382.03125 535.96875Q382.40625 536.40625 382.60938 537.0Q382.8125 537.5781 382.8125 538.2656L382.8125 538.40625Q382.8125 539.0781 382.60938 539.6719Q382.40625 540.25 382.03125 540.6875Q381.65625 541.125 381.125 541.375Q380.59375 541.625 379.92188 541.625Q379.26562 541.625 378.71875 541.375Q378.1875 541.125 377.8125 540.6875Q377.4375 540.25 377.23438 539.6719Q377.04688 539.0781 377.04688 538.40625ZM378.125 538.2656L378.125 538.40625Q378.125 538.875 378.23438 539.2969Q378.34375 539.71875 378.5625 540.0469Q378.79688 540.3594 379.14062 540.5469Q379.48438 540.71875 379.92188 540.71875Q380.375 540.71875 380.70312 540.5469Q381.04688 540.3594 381.26562 540.0469Q381.5 539.71875 381.60938 539.2969Q381.71875 538.875 381.71875 538.40625L381.71875 538.2656Q381.71875 537.7969 381.60938 537.375Q381.5 536.9531 381.26562 536.6406Q381.04688 536.3125 380.70312 536.125Q380.375 535.9375 379.92188 535.9375Q379.46875 535.9375 379.125 536.125Q378.79688 536.3125 378.5625 536.6406Q378.34375 536.9531 378.23438 537.375Q378.125 537.7969 378.125 538.2656ZM384.04688 538.40625L384.04688 538.2656Q384.04688 537.5781 384.23438 537.0Q384.4375 536.40625 384.8125 535.96875Q385.1875 535.53125 385.71875 535.2969Q386.25 535.0469 386.92188 535.0469Q387.57812 535.0469 388.10938 535.2969Q388.65625 535.53125 389.03125 535.96875Q389.40625 536.40625 389.60938 537.0Q389.8125 537.5781 389.8125 538.2656L389.8125 538.40625Q389.8125 539.0781 389.60938 539.6719Q389.40625 540.25 389.03125 540.6875Q388.65625 541.125 388.125 541.375Q387.59375 541.625 386.92188 541.625Q386.26562 541.625 385.71875 541.375Q385.1875 541.125 384.8125 540.6875Q384.4375 540.25 384.23438 539.6719Q384.04688 539.0781 384.04688 538.40625ZM385.125 538.2656L385.125 538.40625Q385.125 538.875 385.23438 539.2969Q385.34375 539.71875 385.5625 540.0469Q385.79688 540.3594 386.14062 540.5469Q386.48438 540.71875 386.92188 540.71875Q387.375 540.71875 387.70312 540.5469Q388.04688 540.3594 388.26562 540.0469Q388.5 539.71875 388.60938 539.2969Q388.71875 538.875 388.71875 538.40625L388.71875 538.2656Q388.71875 537.7969 388.60938 537.375Q388.5 536.9531 388.26562 536.6406Q388.04688 536.3125 387.70312 536.125Q387.375 535.9375 386.92188 535.9375Q386.46875 535.9375 386.125 536.125Q385.79688 536.3125 385.5625 536.6406Q385.34375 536.9531 385.23438 537.375Q385.125 537.7969 385.125 538.2656ZM392.5 532.5L392.5 541.5L391.42188 541.5L391.42188 532.5L392.5 532.5Z" fill-rule="nonzero"/><path stroke="#cccccc" stroke-width="1.0" stroke-linecap="butt" d="M372.0 305.0L197.0 406.0" fill-rule="nonzero"/><path fill="#000000" d="M152.5625 420.64062L152.5625 421.5625L147.95312 421.5625L147.95312 420.64062L152.5625 420.64062ZM148.125 416.96875L148.125 425.5L146.98438 425.5L146.98438 416.96875L148.125 416.96875ZM153.54688 416.96875L153.54688 425.5L152.42188 425.5L152.42188 416.96875L153.54688 416.96875ZM159.70312 424.03125L159.70312 419.15625L160.79688 419.15625L160.79688 425.5L159.76562 425.5L159.70312 424.03125ZM159.90625 422.70312L160.35938 422.6875Q160.35938 423.3125 160.21875 423.85938Q160.09375 424.39062 159.79688 424.78125Q159.51562 425.17188 159.03125 425.40625Q158.5625 425.625 157.89062 425.625Q157.42188 425.625 157.03125 425.48438Q156.65625 425.34375 156.375 425.0625Q156.10938 424.78125 155.95312 424.32812Q155.79688 423.875 155.79688 423.25L155.79688 419.15625L156.89062 419.15625L156.89062 423.26562Q156.89062 423.6875 156.98438 423.96875Q157.07812 424.25 157.25 424.40625Q157.42188 424.5625 157.625 424.64062Q157.82812 424.70312 158.04688 424.70312Q158.75 424.70312 159.14062 424.4375Q159.54688 424.15625 159.71875 423.70312Q159.90625 423.25 159.90625 422.70312ZM163.90625 420.42188L163.90625 425.5L162.8125 425.5L162.8125 419.15625L163.84375 419.15625L163.90625 420.42188ZM163.6875 422.09375L163.17188 422.07812Q163.1875 421.42188 163.34375 420.875Q163.51562 420.3125 163.82812 419.90625Q164.15625 419.5 164.64062 419.28125Q165.125 419.04688 165.75 419.04688Q166.20312 419.04688 166.57812 419.17188Q166.95312 419.29688 167.21875 419.5625Q167.5 419.82812 167.64062 420.25Q167.79688 420.67188 167.79688 421.28125L167.79688 425.5L166.71875 425.5L166.71875 421.32812Q166.71875 420.82812 166.54688 420.53125Q166.39062 420.23438 166.07812 420.09375Q165.78125 419.95312 165.35938 419.95312Q164.89062 419.95312 164.5625 420.125Q164.23438 420.29688 164.04688 420.59375Q163.85938 420.89062 163.76562 421.28125Q163.6875 421.65625 163.6875 422.09375ZM167.79688 421.48438L167.0625 421.71875Q167.0625 421.1875 167.23438 420.71875Q167.40625 420.23438 167.71875 419.85938Q168.04688 419.48438 168.51562 419.26562Q168.98438 419.04688 169.57812 419.04688Q170.09375 419.04688 170.48438 419.1875Q170.89062 419.3125 171.15625 419.59375Q171.42188 419.875 171.5625 420.3125Q171.70312 420.73438 171.70312 421.32812L171.70312 425.5L170.625 425.5L170.625 421.32812Q170.625 420.78125 170.45312 420.5Q170.28125 420.20312 169.98438 420.07812Q169.6875 419.95312 169.26562 419.95312Q168.90625 419.95312 168.625 420.07812Q168.35938 420.20312 168.17188 420.42188Q167.98438 420.625 167.89062 420.90625Q167.79688 421.1875 167.79688 421.48438ZM177.70312 424.03125L177.70312 419.15625L178.79688 419.15625L178.79688 425.5L177.76562 425.5L177.70312 424.03125ZM177.90625 422.70312L178.35938 422.6875Q178.35938 423.3125 178.21875 423.85938Q178.09375 424.39062 177.79688 424.78125Q177.51562 425.17188 177.03125 425.40625Q176.5625 425.625 175.89062 425.625Q175.42188 425.625 175.03125 425.48438Q174.65625 425.34375 174.375 425.0625Q174.10938 424.78125 173.95312 424.32812Q173.79688 423.875 173.79688 423.25L173.79688 419.15625L174.89062 419.15625L174.89062 423.26562Q174.89062 423.6875 174.98438 423.96875Q175.07812 424.25 175.25 424.40625Q175.42188 424.5625 175.625 424.64062Q175.82812 424.70312 176.04688 424.70312Q176.75 424.70312 177.14062 424.4375Q177.54688 424.15625 177.71875 423.70312Q177.90625 423.25 177.90625 422.70312ZM182.0 416.5L182.0 425.5L180.92188 425.5L180.92188 416.5L182.0 416.5ZM186.45312 425.625Q185.79688 425.625 185.25 425.40625Q184.71875 425.17188 184.32812 424.76562Q183.95312 424.34375 183.75 423.78125Q183.54688 423.21875 183.54688 422.54688L183.54688 422.3125Q183.54688 421.53125 183.76562 420.92188Q184.0 420.3125 184.39062 419.89062Q184.78125 419.46875 185.28125 419.26562Q185.78125 419.04688 186.3125 419.04688Q187.0 419.04688 187.48438 419.28125Q187.98438 419.51562 188.29688 419.9375Q188.625 420.34375 188.76562 420.92188Q188.92188 421.48438 188.92188 422.14062L188.92188 422.64062L184.1875 422.64062L184.1875 421.75L187.84375 421.75L187.84375 421.67188Q187.8125 421.25 187.65625 420.85938Q187.51562 420.45312 187.1875 420.20312Q186.875 419.9375 186.3125 419.9375Q185.95312 419.9375 185.64062 420.09375Q185.32812 420.25 185.09375 420.5625Q184.875 420.85938 184.75 421.29688Q184.64062 421.73438 184.64062 422.3125L184.64062 422.54688Q184.64062 423.0 184.76562 423.40625Q184.89062 423.79688 185.125 424.09375Q185.375 424.39062 185.71875 424.5625Q186.07812 424.73438 186.51562 424.73438Q187.09375 424.73438 187.48438 424.5Q187.89062 424.26562 188.1875 423.875L188.84375 424.39062Q188.64062 424.70312 188.3125 424.98438Q188.0 425.26562 187.53125 425.45312Q187.07812 425.625 186.45312 425.625ZM190.90625 420.51562L190.90625 425.5L189.82812 425.5L189.82812 419.15625L190.85938 419.15625L190.90625 420.51562ZM190.65625 422.09375L190.20312 422.07812Q190.20312 421.42188 190.39062 420.875Q190.57812 420.3125 190.92188 419.90625Q191.26562 419.5 191.73438 419.28125Q192.20312 419.04688 192.78125 419.04688Q193.25 419.04688 193.625 419.17188Q194.0 419.29688 194.26562 419.57812Q194.53125 419.84375 194.67188 420.28125Q194.8125 420.71875 194.8125 421.34375L194.8125 425.5L193.71875 425.5L193.71875 421.32812Q193.71875 420.82812 193.57812 420.53125Q193.4375 420.23438 193.15625 420.09375Q192.875 419.95312 192.45312 419.95312Q192.04688 419.95312 191.71875 420.125Q191.39062 420.29688 191.15625 420.59375Q190.92188 420.89062 190.78125 421.28125Q190.65625 421.65625 190.65625 422.09375Z" fill-rule="nonzero"/><path stroke="#cccccc" stroke-width="1.0" stroke-linecap="butt" d="M372.0 305.0L197.0 204.0" fill-rule="nonzero"/><path fill="#000000" d="M153.03125 191.34375Q153.03125 191.04688 152.9375 190.8125Q152.85938 190.57812 152.625 190.39062Q152.40625 190.20312 152.0 190.03125Q151.60938 189.85938 151.01562 189.6875Q150.375 189.5 149.85938 189.28125Q149.35938 189.04688 148.98438 188.75Q148.625 188.4375 148.4375 188.0625Q148.25 187.67188 148.25 187.17188Q148.25 186.67188 148.45312 186.25Q148.65625 185.82812 149.03125 185.51562Q149.42188 185.20312 149.95312 185.03125Q150.48438 184.84375 151.14062 184.84375Q152.10938 184.84375 152.78125 185.21875Q153.45312 185.57812 153.79688 186.17188Q154.15625 186.76562 154.15625 187.42188L153.03125 187.42188Q153.03125 186.95312 152.8125 186.57812Q152.60938 186.20312 152.1875 186.0Q151.78125 185.78125 151.14062 185.78125Q150.54688 185.78125 150.14062 185.96875Q149.75 186.14062 149.5625 186.45312Q149.375 186.76562 149.375 187.15625Q149.375 187.42188 149.48438 187.65625Q149.60938 187.875 149.84375 188.0625Q150.09375 188.25 150.46875 188.40625Q150.84375 188.5625 151.375 188.70312Q152.09375 188.90625 152.625 189.17188Q153.15625 189.42188 153.5 189.73438Q153.84375 190.04688 154.0 190.4375Q154.17188 190.82812 154.17188 191.32812Q154.17188 191.85938 153.95312 192.28125Q153.75 192.70312 153.35938 193.0Q152.96875 193.29688 152.42188 193.46875Q151.875 193.625 151.20312 193.625Q150.60938 193.625 150.03125 193.45312Q149.46875 193.28125 149.0 192.95312Q148.53125 192.625 148.25 192.15625Q147.96875 191.67188 147.96875 191.03125L149.09375 191.03125Q149.09375 191.46875 149.26562 191.78125Q149.4375 192.09375 149.73438 192.29688Q150.03125 192.5 150.40625 192.60938Q150.78125 192.70312 151.20312 192.70312Q151.79688 192.70312 152.20312 192.54688Q152.60938 192.375 152.8125 192.07812Q153.03125 191.76562 153.03125 191.34375ZM155.04688 190.40625L155.04688 190.26562Q155.04688 189.57812 155.23438 189.0Q155.4375 188.40625 155.8125 187.96875Q156.1875 187.53125 156.71875 187.29688Q157.25 187.04688 157.92188 187.04688Q158.57812 187.04688 159.10938 187.29688Q159.65625 187.53125 160.03125 187.96875Q160.40625 188.40625 160.60938 189.0Q160.8125 189.57812 160.8125 190.26562L160.8125 190.40625Q160.8125 191.07812 160.60938 191.67188Q160.40625 192.25 160.03125 192.6875Q159.65625 193.125 159.125 193.375Q158.59375 193.625 157.92188 193.625Q157.26562 193.625 156.71875 193.375Q156.1875 193.125 155.8125 192.6875Q155.4375 192.25 155.23438 191.67188Q155.04688 191.07812 155.04688 190.40625ZM156.125 190.26562L156.125 190.40625Q156.125 190.875 156.23438 191.29688Q156.34375 191.71875 156.5625 192.04688Q156.79688 192.35938 157.14062 192.54688Q157.48438 192.71875 157.92188 192.71875Q158.375 192.71875 158.70312 192.54688Q159.04688 192.35938 159.26562 192.04688Q159.5 191.71875 159.60938 191.29688Q159.71875 190.875 159.71875 190.40625L159.71875 190.26562Q159.71875 189.79688 159.60938 189.375Q159.5 188.95312 159.26562 188.64062Q159.04688 188.3125 158.70312 188.125Q158.375 187.9375 157.92188 187.9375Q157.46875 187.9375 157.125 188.125Q156.79688 188.3125 156.5625 188.64062Q156.34375 188.95312 156.23438 189.375Q156.125 189.79688 156.125 190.26562ZM163.40625 188.51562L163.40625 193.5L162.32812 193.5L162.32812 187.15625L163.35938 187.15625L163.40625 188.51562ZM163.15625 190.09375L162.70312 190.07812Q162.70312 189.42188 162.89062 188.875Q163.07812 188.3125 163.42188 187.90625Q163.76562 187.5 164.23438 187.28125Q164.70312 187.04688 165.28125 187.04688Q165.75 187.04688 166.125 187.17188Q166.5 187.29688 166.76562 187.57812Q167.03125 187.84375 167.17188 188.28125Q167.3125 188.71875 167.3125 189.34375L167.3125 193.5L166.21875 193.5L166.21875 189.32812Q166.21875 188.82812 166.07812 188.53125Q165.9375 188.23438 165.65625 188.09375Q165.375 187.95312 164.95312 187.95312Q164.54688 187.95312 164.21875 188.125Q163.89062 188.29688 163.65625 188.59375Q163.42188 188.89062 163.28125 189.28125Q163.15625 189.65625 163.15625 190.09375ZM173.01562 191.8125Q173.01562 191.57812 172.90625 191.375Q172.8125 191.17188 172.5 191.01562Q172.1875 190.84375 171.5625 190.71875Q171.03125 190.60938 170.60938 190.46875Q170.1875 190.3125 169.89062 190.09375Q169.59375 189.875 169.4375 189.57812Q169.28125 189.28125 169.28125 188.89062Q169.28125 188.51562 169.4375 188.1875Q169.60938 187.84375 169.90625 187.59375Q170.21875 187.32812 170.65625 187.1875Q171.09375 187.04688 171.625 187.04688Q172.39062 187.04688 172.92188 187.3125Q173.46875 187.57812 173.75 188.03125Q174.03125 188.48438 174.03125 189.01562L172.95312 189.01562Q172.95312 188.76562 172.79688 188.51562Q172.64062 188.26562 172.34375 188.10938Q172.04688 187.9375 171.625 187.9375Q171.17188 187.9375 170.89062 188.07812Q170.60938 188.20312 170.48438 188.42188Q170.35938 188.625 170.35938 188.85938Q170.35938 189.04688 170.42188 189.1875Q170.48438 189.3125 170.64062 189.4375Q170.79688 189.54688 171.07812 189.65625Q171.375 189.75 171.82812 189.84375Q172.60938 190.01562 173.10938 190.26562Q173.60938 190.51562 173.85938 190.875Q174.10938 191.21875 174.10938 191.73438Q174.10938 192.15625 173.92188 192.5Q173.75 192.84375 173.42188 193.09375Q173.10938 193.34375 172.65625 193.48438Q172.20312 193.625 171.65625 193.625Q170.8125 193.625 170.23438 193.32812Q169.65625 193.01562 169.35938 192.54688Q169.0625 192.0625 169.0625 191.54688L170.14062 191.54688Q170.17188 191.98438 170.40625 192.25Q170.64062 192.51562 170.96875 192.625Q171.3125 192.71875 171.65625 192.71875Q172.09375 192.71875 172.39062 192.60938Q172.70312 192.48438 172.85938 192.28125Q173.01562 192.07812 173.01562 191.8125ZM177.98438 187.15625L177.98438 187.98438L174.54688 187.98438L174.54688 187.15625L177.98438 187.15625ZM175.71875 185.625L176.79688 185.625L176.79688 191.92188Q176.79688 192.25 176.89062 192.42188Q177.0 192.57812 177.15625 192.64062Q177.3125 192.6875 177.5 192.6875Q177.625 192.6875 177.76562 192.65625Q177.92188 192.625 178.0 192.60938L178.01562 193.5Q177.875 193.54688 177.67188 193.57812Q177.46875 193.625 177.17188 193.625Q176.78125 193.625 176.4375 193.46875Q176.10938 193.29688 175.90625 192.9375Q175.71875 192.5625 175.71875 191.92188L175.71875 185.625ZM180.5 187.15625L180.5 193.5L179.42188 193.5L179.42188 187.15625L180.5 187.15625ZM179.32812 185.48438Q179.32812 185.21875 179.48438 185.03125Q179.65625 184.84375 179.96875 184.84375Q180.28125 184.84375 180.4375 185.03125Q180.60938 185.21875 180.60938 185.48438Q180.60938 185.73438 180.4375 185.92188Q180.28125 186.09375 179.96875 186.09375Q179.65625 186.09375 179.48438 185.92188Q179.32812 185.73438 179.32812 185.48438ZM186.4375 187.15625L187.42188 187.15625L187.42188 193.35938Q187.42188 194.20312 187.07812 194.79688Q186.73438 195.39062 186.125 195.6875Q185.53125 196.0 184.73438 196.0Q184.40625 196.0 183.95312 195.89062Q183.51562 195.79688 183.09375 195.54688Q182.67188 195.3125 182.39062 194.90625L182.95312 194.25Q183.35938 194.73438 183.78125 194.92188Q184.21875 195.10938 184.65625 195.10938Q185.17188 195.10938 185.54688 194.90625Q185.92188 194.71875 186.125 194.34375Q186.32812 193.96875 186.32812 193.42188L186.32812 188.54688L186.4375 187.15625ZM182.0625 190.40625L182.0625 190.28125Q182.0625 189.54688 182.23438 188.95312Q182.42188 188.35938 182.73438 187.9375Q183.0625 187.5 183.51562 187.28125Q183.98438 187.04688 184.57812 187.04688Q185.17188 187.04688 185.60938 187.25Q186.0625 187.45312 186.375 187.85938Q186.6875 188.25 186.875 188.8125Q187.0625 189.35938 187.125 190.0625L187.125 190.60938Q187.0625 191.29688 186.875 191.85938Q186.6875 192.42188 186.375 192.8125Q186.0625 193.20312 185.60938 193.42188Q185.15625 193.625 184.5625 193.625Q183.98438 193.625 183.53125 193.39062Q183.07812 193.14062 182.75 192.70312Q182.42188 192.26562 182.23438 191.6875Q182.0625 191.09375 182.0625 190.40625ZM183.15625 190.28125L183.15625 190.40625Q183.15625 190.875 183.25 191.29688Q183.34375 191.70312 183.54688 192.03125Q183.75 192.34375 184.0625 192.53125Q184.39062 192.70312 184.82812 192.70312Q185.35938 192.70312 185.70312 192.46875Q186.0625 192.23438 186.26562 191.85938Q186.48438 191.48438 186.59375 191.04688L186.59375 189.64062Q186.53125 189.3125 186.39062 189.01562Q186.26562 188.71875 186.0625 188.48438Q185.85938 188.23438 185.54688 188.09375Q185.25 187.95312 184.82812 187.95312Q184.39062 187.95312 184.0625 188.14062Q183.75 188.32812 183.54688 188.65625Q183.34375 188.96875 183.25 189.39062Q183.15625 189.79688 183.15625 190.28125ZM191.95312 193.625Q191.29688 193.625 190.75 193.40625Q190.21875 193.17188 189.82812 192.76562Q189.45312 192.34375 189.25 191.78125Q189.04688 191.21875 189.04688 190.54688L189.04688 190.3125Q189.04688 189.53125 189.26562 188.92188Q189.5 188.3125 189.89062 187.89062Q190.28125 187.46875 190.78125 187.26562Q191.28125 187.04688 191.8125 187.04688Q192.5 187.04688 192.98438 187.28125Q193.48438 187.51562 193.79688 187.9375Q194.125 188.34375 194.26562 188.92188Q194.42188 189.48438 194.42188 190.14062L194.42188 190.64062L189.6875 190.64062L189.6875 189.75L193.34375 189.75L193.34375 189.67188Q193.3125 189.25 193.15625 188.85938Q193.01562 188.45312 192.6875 188.20312Q192.375 187.9375 191.8125 187.9375Q191.45312 187.9375 191.14062 188.09375Q190.82812 188.25 190.59375 188.5625Q190.375 188.85938 190.25 189.29688Q190.14062 189.73438 190.14062 190.3125L190.14062 190.54688Q190.14062 191.0 190.26562 191.40625Q190.39062 191.79688 190.625 192.09375Q190.875 192.39062 191.21875 192.5625Q191.57812 192.73438 192.01562 192.73438Q192.59375 192.73438 192.98438 192.5Q193.39062 192.26562 193.6875 191.875L194.34375 192.39062Q194.14062 192.70312 193.8125 192.98438Q193.5 193.26562 193.03125 193.45312Q192.57812 193.625 191.95312 193.625Z" fill-rule="nonzero"/><path stroke="#cccccc" stroke-width="1.0" stroke-linecap="butt" d="M372.0 305.0L372.0 103.0" fill-rule="nonzero"/><path stroke="#ff0000" stroke-width="2.0" stroke-linecap="butt" stroke-opacity="0.7019608" stroke-dasharray="8.0,6.0,2.0,6.0" d="M372.0 150.0L483.0 241.0L465.0 359.0L372.0 359.0L343.0 322.0L226.0 221.0Z" fill-rule="nonzero"/><path fill="#ff0000" fill-opacity="0.7019608" d="M368.81802 146.81802L372.0 148.875L375.18198 146.81802L373.125 150.0L375.18198 153.18198L372.0 151.125L368.81802 153.18198L370.875 150.0Z" fill-rule="nonzero"/><path fill="#ff0000" fill-opacity="0.7019608" d="M479.81802 237.81802L483.0 239.875L486.18198 237.81802L484.125 241.0L486.18198 244.18198L483.0 242.125L479.81802 244.18198L481.875 241.0Z" fill-rule="nonzero"/><path fill="#ff0000" fill-opacity="0.7019608" d="M461.81802 355.81802L465.0 357.875L468.18198 355.81802L466.125 359.0L468.18198 362.18198L465.0 360.125L461.81802 362.18198L463.875 359.0Z" fill-rule="nonzero"/><path fill="#ff0000" fill-opacity="0.7019608" d="M368.81802 355.81802L372.0 357.875L375.18198 355.81802L373.125 359.0L375.18198 362.18198L372.0 360.125L368.81802 362.18198L370.875 359.0Z" fill-rule="nonzero"/><path fill="#ff0000" fill-opacity="0.7019608" d="M339.81802 318.81802L343.0 320.875L346.18198 318.81802L344.125 322.0L346.18198 325.18198L343.0 323.125L339.81802 325.18198L341.875 322.0Z" fill-rule="nonzero"/><path fill="#ff0000" fill-opacity="0.7019608" d="M222.81802 217.81802L226.0 219.875L229.18198 217.81802L227.125 221.0L229.18198 224.18198L226.0 222.125L222.81802 224.18198L224.875 221.0Z" fill-rule="nonzero"/><path fill="#757575" d="M29.25625 42.75625L31.0375 42.6Q31.1625 43.6625 31.615625 44.35Q32.084373 45.0375 33.053123 45.475Q34.0375 45.896873 35.271873 45.896873Q36.35 45.896873 37.178123 45.584373Q38.00625 45.25625 38.4125 44.69375Q38.81875 44.13125 38.81875 43.459373Q38.81875 42.7875 38.428123 42.2875Q38.0375 41.7875 37.146873 41.44375Q36.56875 41.209373 34.584373 40.740623Q32.615623 40.271873 31.834375 39.85Q30.803125 39.31875 30.303125 38.521873Q29.803125 37.725 29.803125 36.740623Q29.803125 35.646873 30.4125 34.709373Q31.021875 33.771873 32.209373 33.2875Q33.396873 32.7875 34.834373 32.7875Q36.428123 32.7875 37.646873 33.303123Q38.865623 33.81875 39.50625 34.81875Q40.1625 35.803123 40.209373 37.06875L38.396873 37.209373Q38.25625 35.85 37.4125 35.1625Q36.56875 34.459373 34.9125 34.459373Q33.19375 34.459373 32.396873 35.1Q31.615625 35.725 31.615625 36.6Q31.615625 37.38125 32.178123 37.88125Q32.725 38.38125 35.0375 38.896873Q37.35 39.4125 38.209373 39.803123Q39.459373 40.38125 40.053123 41.271873Q40.646873 42.146873 40.646873 43.303123Q40.646873 44.44375 39.990623 45.459373Q39.334373 46.475 38.1 47.0375Q36.88125 47.6 35.35 47.6Q33.4125 47.6 32.1 47.0375Q30.7875 46.459373 30.0375 45.31875Q29.2875 44.178123 29.25625 42.75625ZM49.44375 43.553123L51.1625 43.771873Q50.88125 45.56875 49.709373 46.584373Q48.553123 47.584373 46.85 47.584373Q44.725 47.584373 43.428123 46.19375Q42.13125 44.803123 42.13125 42.209373Q42.13125 40.521873 42.678123 39.271873Q43.240623 38.00625 44.38125 37.38125Q45.521873 36.740623 46.865623 36.740623Q48.553123 36.740623 49.615623 37.6Q50.69375 38.459373 51.00625 40.021873L49.2875 40.2875Q49.053123 39.240623 48.428123 38.725Q47.803123 38.19375 46.928123 38.19375Q45.6 38.19375 44.771873 39.146873Q43.94375 40.1 43.94375 42.146873Q43.94375 44.240623 44.740623 45.19375Q45.5375 46.13125 46.834373 46.13125Q47.865623 46.13125 48.553123 45.50625Q49.25625 44.865623 49.44375 43.553123ZM52.021873 42.1625Q52.021873 39.2875 53.615623 37.896873Q54.959373 36.740623 56.88125 36.740623Q59.021873 36.740623 60.365623 38.146873Q61.725 39.553123 61.725 42.021873Q61.725 44.021873 61.13125 45.178123Q60.5375 46.31875 59.38125 46.959373Q58.240623 47.584373 56.88125 47.584373Q54.69375 47.584373 53.35 46.19375Q52.021873 44.7875 52.021873 42.1625ZM53.81875 42.1625Q53.81875 44.1625 54.678123 45.146873Q55.553123 46.13125 56.88125 46.13125Q58.19375 46.13125 59.053123 45.146873Q59.928123 44.146873 59.928123 42.1Q59.928123 40.178123 59.053123 39.19375Q58.178123 38.19375 56.88125 38.19375Q55.553123 38.19375 54.678123 39.19375Q53.81875 40.178123 53.81875 42.1625ZM63.021873 42.1625Q63.021873 39.2875 64.61562 37.896873Q65.95937 36.740623 67.88125 36.740623Q70.02187 36.740623 71.36562 38.146873Q72.725 39.553123 72.725 42.021873Q72.725 44.021873 72.13125 45.178123Q71.5375 46.31875 70.38125 46.959373Q69.24062 47.584373 67.88125 47.584373Q65.69375 47.584373 64.35 46.19375Q63.021873 44.7875 63.021873 42.1625ZM64.81875 42.1625Q64.81875 44.1625 65.67812 45.146873Q66.55312 46.13125 67.88125 46.13125Q69.19375 46.13125 70.05312 45.146873Q70.92812 44.146873 70.92812 42.1Q70.92812 40.178123 70.05312 39.19375Q69.17812 38.19375 67.88125 38.19375Q66.55312 38.19375 65.67812 39.19375Q64.81875 40.178123 64.81875 42.1625ZM74.6625 51.31875L74.6625 36.975L76.27187 36.975L76.27187 38.31875Q76.83437 37.5375 77.5375 37.146873Q78.25625 36.740623 79.27187 36.740623Q80.6 36.740623 81.61562 37.428123Q82.63125 38.115623 83.14687 39.365623Q83.67812 40.6 83.67812 42.084373Q83.67812 43.678123 83.1 44.959373Q82.5375 46.225 81.44375 46.9125Q80.35 47.584373 79.14687 47.584373Q78.27187 47.584373 77.56875 47.209373Q76.88125 46.834373 76.42812 46.271873L76.42812 51.31875L74.6625 51.31875ZM76.25625 42.225Q76.25625 44.225 77.06875 45.178123Q77.88125 46.13125 79.0375 46.13125Q80.20937 46.13125 81.0375 45.146873Q81.88125 44.1625 81.88125 42.06875Q81.88125 40.1 81.05312 39.115623Q80.24062 38.115623 79.11562 38.115623Q77.99062 38.115623 77.11562 39.178123Q76.25625 40.225 76.25625 42.225ZM84.95937 44.25625L86.70937 43.975Q86.85 45.021873 87.52187 45.584373Q88.19375 46.13125 89.39687 46.13125Q90.6 46.13125 91.17812 45.646873Q91.77187 45.146873 91.77187 44.490623Q91.77187 43.896873 91.25625 43.553123Q90.89687 43.31875 89.45937 42.959373Q87.52187 42.459373 86.77187 42.115623Q86.0375 41.75625 85.64687 41.13125Q85.25625 40.490623 85.25625 39.725Q85.25625 39.0375 85.56875 38.44375Q85.89687 37.85 86.44375 37.459373Q86.85 37.1625 87.55312 36.959373Q88.27187 36.740623 89.08437 36.740623Q90.30312 36.740623 91.225 37.1Q92.14687 37.44375 92.58437 38.053123Q93.02187 38.646873 93.19375 39.646873L91.475 39.88125Q91.35 39.084373 90.7875 38.646873Q90.225 38.19375 89.20937 38.19375Q87.99062 38.19375 87.475 38.6Q86.95937 38.990623 86.95937 39.521873Q86.95937 39.865623 87.17812 40.146873Q87.38125 40.428123 87.85 40.615623Q88.11562 40.709373 89.39687 41.053123Q91.27187 41.553123 92.00625 41.88125Q92.74062 42.19375 93.1625 42.803123Q93.58437 43.396873 93.58437 44.303123Q93.58437 45.178123 93.06875 45.959373Q92.55312 46.740623 91.58437 47.1625Q90.61562 47.584373 89.39687 47.584373Q87.38125 47.584373 86.31875 46.740623Q85.25625 45.896873 84.95937 44.25625Z" fill-rule="nonzero"/></svg>