<svg version="1.1" viewBox="0.0 0.0 744.0 567.0" fill="none" stroke="none" stroke-linecap="square" stroke-miterlimit="10" width="744" height="567" xmlns:xlink="http://www.w3.org/1999/xlink" xmlns="http://www.w3.org/2000/svg"><path fill="#ffffff" d="M0 0L744.0 0L744.0 567.0L0 567.0L0 0Z" fill-rule="nonzero"/><path fill="#ffffff" d="M28.35 71.25L715.64996 71.25L715.64996 538.65L28.35 538.65L28.35 71.25Z" fill-rule="nonzero"/><path stroke="#cccccc" stroke-width="1.0" stroke-linecap="butt" d="M372.0 305.0C372.0 305.0 372.0 305.0 372.0 305.0C372.0 305.0 372.0 305.0 372.0 305.0C372.0 305.0 372.0 305.0 372.0 305.0C372.0 305.0 372.0 305.0 372.0 305.0" fill-rule="nonzero"/><path fill="#000000" d="M353.0625 297.04688L353.0625 298.35938Q353.0625 299.40625 352.875 300.125Q352.6875 300.84375 352.32812 301.28125Q351.98438 301.71875 351.48438 301.92188Q351.0 302.125 350.375 302.125Q349.89062 302.125 349.46875 302.0Q349.04688 301.875 348.71875 301.60938Q348.39062 301.32812 348.15625 300.89062Q347.92188 300.45312 347.79688 299.82812Q347.67188 299.1875 347.67188 298.35938L347.67188 297.04688Q347.67188 296.0 347.85938 295.29688Q348.0625 294.59375 348.40625 294.15625Q348.76562 293.71875 349.25 293.53125Q349.75 293.34375 350.35938 293.34375Q350.85938 293.34375 351.28125 293.46875Q351.70312 293.59375 352.03125 293.85938Q352.35938 294.10938 352.57812 294.54688Q352.8125 294.96875 352.9375 295.59375Q353.0625 296.21875 353.0625 297.04688ZM351.96875 298.53125L351.96875 296.875Q351.96875 296.29688 351.90625 295.85938Q351.84375 295.42188 351.70312 295.10938Q351.57812 294.79688 351.375 294.60938Q351.1875 294.42188 350.9375 294.32812Q350.6875 294.23438 350.35938 294.23438Q349.98438 294.23438 349.67188 294.375Q349.375 294.51562 349.17188 294.82812Q348.96875 295.14062 348.85938 295.65625Q348.76562 296.15625 348.76562 296.875L348.76562 298.53125Q348.76562 299.10938 348.82812 299.54688Q348.90625 299.98438 349.03125 300.3125Q349.17188 300.625 349.35938 300.82812Q349.5625 301.03125 349.8125 301.125Q350.0625 301.21875 350.375 301.21875Q350.78125 301.21875 351.07812 301.07812Q351.375 300.92188 351.57812 300.59375Q351.78125 300.26562 351.875 299.76562Q351.96875 299.25 351.96875 298.53125ZM355.8125 300.70312L355.8125 301.57812Q355.8125 302.125 355.53125 302.71875Q355.26562 303.3125 354.78125 303.70312L354.17188 303.28125Q354.35938 303.01562 354.48438 302.75Q354.60938 302.48438 354.67188 302.20312Q354.75 301.92188 354.75 301.59375L354.75 300.70312L355.8125 300.70312ZM362.0625 297.04688L362.0625 298.35938Q362.0625 299.40625 361.875 300.125Q361.6875 300.84375 361.32812 301.28125Q360.98438 301.71875 360.48438 301.92188Q360.0 302.125 359.375 302.125Q358.89062 302.125 358.46875 302.0Q358.04688 301.875 357.71875 301.60938Q357.39062 301.32812 357.15625 300.89062Q356.92188 300.45312 356.79688 299.82812Q356.67188 299.1875 356.67188 298.35938L356.67188 297.04688Q356.67188 296.0 356.85938 295.29688Q357.0625 294.59375 357.40625 294.15625Q357.76562 293.71875 358.25 293.53125Q358.75 293.34375 359.35938 293.34375Q359.85938 293.34375 360.28125 293.46875Q360.70312 293.59375 361.03125 293.85938Q361.35938 294.10938 361.57812 294.54688Q361.8125 294.96875 361.9375 295.59375Q362.0625 296.21875 362.0625 297.04688ZM360.96875 298.53125L360.96875 296.875Q360.96875 296.29688 360.90625 295.85938Q360.84375 295.42188 360.70312 295.10938Q360.57812 294.79688 360.375 294.60938Q360.1875 294.42188 359.9375 294.32812Q359.6875 294.23438 359.35938 294.23438Q358.98438 294.23438 358.67188 294.375Q358.375 294.51562 358.17188 294.82812Q357.96875 295.14062 357.85938 295.65625Q357.76562 296.15625 357.76562 296.875L357.76562 298.53125Q357.76562 299.10938 357.82812 299.54688Q357.90625 299.98438 358.03125 300.3125Q358.17188 300.625 358.35938 300.82812Q358.5625 301.03125 358.8125 301.125Q359.0625 301.21875 359.375 301.21875Q359.78125 301.21875 360.07812 301.07812Q360.375 300.92188 360.57812 300.59375Q360.78125 300.26562 360.875 299.76562Q360.96875 299.25 360.96875 298.53125ZM369.0625 297.04688L369.0625 298.35938Q369.0625 299.40625 368.875 300.125Q368.6875 300.84375 368.32812 301.28125Q367.98438 301.71875 367.48438 301.92188Q367.0 302.125 366.375 302.125Q365.89062 302.125 365.46875 302.0Q365.04688 301.875 364.71875 301.60938Q364.39062 301.32812 364.15625 300.89062Q363.92188 300.45312 363.79688 299.82812Q363.67188 299.1875 363.67188 298.35938L363.67188 297.04688Q363.67188 296.0 363.85938 295.29688Q364.0625 294.59375 364.40625 294.15625Q364.76562 293.71875 365.25 293.53125Q365.75 293.34375 366.35938 293.34375Q366.85938 293.34375 367.28125 293.46875Q367.70312 293.59375 368.03125 293.85938Q368.35938 294.10938 368.57812 294.54688Q368.8125 294.96875 368.9375 295.59375Q369.0625 296.21875 369.0625 297.04688ZM367.96875 298.53125L367.96875 296.875Q367.96875 296.29688 367.90625 295.85938Q367.84375 295.42188 367.70312 295.10938Q367.57812 294.79688 367.375 294.60938Q367.1875 294.42188 366.9375 294.32812Q366.6875 294.23438 366.35938 294.23438Q365.98438 294.23438 365.67188 294.375Q365.375 294.51562 365.17188 294.82812Q364.96875 295.14062 364.85938 295.65625Q364.76562 296.15625 364.76562 296.875L364.76562 298.53125Q364.76562 299.10938 364.82812 299.54688Q364.90625 299.98438 365.03125 300.3125Q365.17188 300.625 365.35938 300.82812Q365.5625 301.03125 365.8125 301.125Q366.0625 301.21875 366.375 301.21875Q366.78125 301.21875 367.07812 301.07812Q367.375 300.92188 367.57812 300.59375Q367.78125 300.26562 367.875 299.76562Q367.96875 299.25 367.96875 298.53125Z" fill-rule="nonzero"/><path stroke="#cccccc" stroke-width="1.0" stroke-linecap="butt" d="M405.61667 305.0C405.61667 286.43402 390.56598 271.38333 372.0 271.38333C353.43402 271.38333 338.38333 286.43402 338.38333 305.0C338.38333 323.56598 353.43402 338.61667 372.0 338.61667C390.56598 338.61667 405.61667 323.56598 405.61667 305.0" fill-rule="nonzero"/><path fill="#000000" d="M353.0625 263.4302L353.0625 264.7427Q353.0625 265.78958 352.875 266.50833Q352.6875 267.22708 352.32812 267.66458Q351.98438 268.10208 351.48438 268.3052Q351.0 268.50833 350.375 268.50833Q349.89062 268.50833 349.46875 268.38333Q349.04688 268.25833 348.71875 267.9927Q348.39062 267.71146 348.15625 267.27396Q347.92188 266.83646 347.79688 266.21146Q347.67188 265.57083 347.67188 264.7427L347.67188 263.4302Q347.67188 262.38333 347.85938 261.6802Q348.0625 260.97708 348.40625 260.53958Q348.76562 260.10208 349.25 259.91458Q349.75 259.72708 350.35938 259.72708Q350.85938 259.72708 351.28125 259.85208Q351.70312 259.97708 352.03125 260.2427Q352.35938 260.4927 352.57812 260.9302Q352.8125 261.35208 352.9375 261.97708Q353.0625 262.60208 353.0625 263.4302ZM351.96875 264.91458L351.96875 263.25833Q351.96875 262.6802 351.90625 262.2427Q351.84375 261.8052 351.70312 261.4927Q351.57812 261.1802 351.375 260.9927Q351.1875 260.8052 350.9375 260.71146Q350.6875 260.6177 350.35938 260.6177Q349.98438 260.6177 349.67188 260.75833Q349.375 260.89896 349.17188 261.21146Q348.96875 261.52396 348.85938 262.03958Q348.76562 262.53958 348.76562 263.25833L348.76562 264.91458Q348.76562 265.4927 348.82812 265.9302Q348.90625 266.3677 349.03125 266.69583Q349.17188 267.00833 349.35938 267.21146Q349.5625 267.41458 349.8125 267.50833Q350.0625 267.60208 350.375 267.60208Q350.78125 267.60208 351.07812 267.46146Q351.375 267.3052 351.57812 266.97708Q351.78125 266.64896 351.875 266.14896Q351.96875 265.63333 351.96875 264.91458ZM355.8125 267.08646L355.8125 267.96146Q355.8125 268.50833 355.53125 269.10208Q355.26562 269.69583 354.78125 270.08646L354.17188 269.66458Q354.35938 269.39896 354.48438 269.13333Q354.60938 268.8677 354.67188 268.58646Q354.75 268.3052 354.75 267.97708L354.75 267.08646L355.8125 267.08646ZM362.0625 263.4302L362.0625 264.7427Q362.0625 265.78958 361.875 266.50833Q361.6875 267.22708 361.32812 267.66458Q360.98438 268.10208 360.48438 268.3052Q360.0 268.50833 359.375 268.50833Q358.89062 268.50833 358.46875 268.38333Q358.04688 268.25833 357.71875 267.9927Q357.39062 267.71146 357.15625 267.27396Q356.92188 266.83646 356.79688 266.21146Q356.67188 265.57083 356.67188 264.7427L356.67188 263.4302Q356.67188 262.38333 356.85938 261.6802Q357.0625 260.97708 357.40625 260.53958Q357.76562 260.10208 358.25 259.91458Q358.75 259.72708 359.35938 259.72708Q359.85938 259.72708 360.28125 259.85208Q360.70312 259.97708 361.03125 260.2427Q361.35938 260.4927 361.57812 260.9302Q361.8125 261.35208 361.9375 261.97708Q362.0625 262.60208 362.0625 263.4302ZM360.96875 264.91458L360.96875 263.25833Q360.96875 262.6802 360.90625 262.2427Q360.84375 261.8052 360.70312 261.4927Q360.57812 261.1802 360.375 260.9927Q360.1875 260.8052 359.9375 260.71146Q359.6875 260.6177 359.35938 260.6177Q358.98438 260.6177 358.67188 260.75833Q358.375 260.89896 358.17188 261.21146Q357.96875 261.52396 357.85938 262.03958Q357.76562 262.53958 357.76562 263.25833L357.76562 264.91458Q357.76562 265.4927 357.82812 265.9302Q357.90625 266.3677 358.03125 266.69583Q358.17188 267.00833 358.35938 267.21146Q358.5625 267.41458 358.8125 267.50833Q359.0625 267.60208 359.375 267.60208Q359.78125 267.60208 360.07812 267.46146Q360.375 267.3052 360.57812 266.97708Q360.78125 266.64896 360.875 266.14896Q360.96875 265.63333 360.96875 264.91458ZM365.07812 264.32083L364.21875 264.10208L364.64062 259.85208L369.01562 259.85208L369.01562 260.85208L365.5625 260.85208L365.29688 263.1802Q365.53125 263.03958 365.89062 262.9302Q366.26562 262.8052 366.73438 262.8052Q367.3125 262.8052 367.78125 263.00833Q368.25 263.21146 368.57812 263.58646Q368.92188 263.96146 369.09375 264.4927Q369.26562 265.00833 369.26562 265.66458Q369.26562 266.27396 369.09375 266.78958Q368.9375 267.3052 368.59375 267.69583Q368.26562 268.07083 367.75 268.28958Q367.25 268.50833 366.5625 268.50833Q366.04688 268.50833 365.59375 268.3677Q365.14062 268.21146 364.76562 267.91458Q364.40625 267.6177 364.1875 267.1802Q363.96875 266.7427 363.90625 266.13333L364.9375 266.13333Q365.0 266.6177 365.20312 266.94583Q365.42188 267.27396 365.76562 267.44583Q366.10938 267.60208 366.5625 267.60208Q366.95312 267.60208 367.25 267.47708Q367.54688 267.33646 367.75 267.08646Q367.96875 266.83646 368.07812 266.47708Q368.1875 266.1177 368.1875 265.6802Q368.1875 265.27396 368.0625 264.9302Q367.95312 264.58646 367.73438 264.33646Q367.51562 264.07083 367.20312 263.9302Q366.89062 263.77396 366.46875 263.77396Q365.9375 263.77396 365.65625 263.9302Q365.375 264.07083 365.07812 264.32083Z" fill-rule="nonzero"/><path stroke="#cccccc" stroke-width="1.0" stroke-linecap="butt" d="M439.23334 305.0C439.23334 267.86804 409.13196 237.76666 372.0 237.76666C334.86804 237.76666 304.76666 267.86804 304.76666 305.0C304.76666 342.13196 334.86804 372.23334 372.0 372.23334C409.13196 372.23334 439.23334 342.13196 439.23334 305.0" fill-rule="nonzero"/><path fill="#000000" d="M353.0625 229.81354L353.0625 231.12604Q353.0625 232.17291 352.875 232.89166Q352.6875 233.61041 352.32812 234.04791Q351.98438 234.48541 351.48438 234.68854Q351.0 234.89166 350.375 234.89166Q349.89062 234.89166 349.46875 234.76666Q349.04688 234.64166 348.71875 234.37604Q348.39062 234.09479 348.15625 233.65729Q347.92188 233.21979 347.79688 232.59479Q347.67188 231.95416 347.67188 231.12604L347.67188 229.81354Q347.67188 228.76666 347.85938 228.06354Q348.0625 227.36041 348.40625 226.92291Q348.76562 226.48541 349.25 226.29791Q349.75 226.11041 350.35938 226.11041Q350.85938 226.11041 351.28125 226.23541Q351.70312 226.36041 352.03125 226.62604Q352.35938 226.87604 352.57812 227.31354Q352.8125 227.73541 352.9375 228.36041Q353.0625 228.98541 353.0625 229.81354ZM351.96875 231.29791L351.96875 229.64166Q351.96875 229.06354 351.90625 228.62604Q351.84375 228.18854 351.70312 227.87604Q351.57812 227.56354 351.375 227.37604Q351.1875 227.18854 350.9375 227.09479Q350.6875 227.00104 350.35938 227.00104Q349.98438 227.00104 349.67188 227.14166Q349.375 227.28229 349.17188 227.59479Q348.96875 227.90729 348.85938 228.42291Q348.76562 228.92291 348.76562 229.64166L348.76562 231.29791Q348.76562 231.87604 348.82812 232.31354Q348.90625 232.75104 349.03125 233.07916Q349.17188 233.39166 349.35938 233.59479Q349.5625 233.79791 349.8125 233.89166Q350.0625 233.98541 350.375 233.98541Q350.78125 233.98541 351.07812 233.84479Q351.375 233.68854 351.57812 233.36041Q351.78125 233.03229 351.875 232.53229Q351.96875 232.01666 351.96875 231.29791ZM355.8125 233.46979L355.8125 234.34479Q355.8125 234.89166 355.53125 235.48541Q355.26562 236.07916 354.78125 236.46979L354.17188 236.04791Q354.35938 235.78229 354.48438 235.51666Q354.60938 235.25104 354.67188 234.96979Q354.75 234.68854 354.75 234.36041L354.75 233.46979L355.8125 233.46979ZM360.26562 226.18854L360.26562 234.76666L359.1875 234.76666L359.1875 227.54791L357.0 228.34479L357.0 227.36041L360.10938 226.18854L360.26562 226.18854ZM369.0625 229.81354L369.0625 231.12604Q369.0625 232.17291 368.875 232.89166Q368.6875 233.61041 368.32812 234.04791Q367.98438 234.48541 367.48438 234.68854Q367.0 234.89166 366.375 234.89166Q365.89062 234.89166 365.46875 234.76666Q365.04688 234.64166 364.71875 234.37604Q364.39062 234.09479 364.15625 233.65729Q363.92188 233.21979 363.79688 232.59479Q363.67188 231.95416 363.67188 231.12604L363.67188 229.81354Q363.67188 228.76666 363.85938 228.06354Q364.0625 227.36041 364.40625 226.92291Q364.76562 226.48541 365.25 226.29791Q365.75 226.11041 366.35938 226.11041Q366.85938 226.11041 367.28125 226.23541Q367.70312 226.36041 368.03125 226.62604Q368.35938 226.87604 368.57812 227.31354Q368.8125 227.73541 368.9375 228.36041Q369.0625 228.98541 369.0625 229.81354ZM367.96875 231.29791L367.96875 229.64166Q367.96875 229.06354 367.90625 228.62604Q367.84375 228.18854 367.70312 227.87604Q367.57812 227.56354 367.375 227.37604Q367.1875 227.18854 366.9375 227.09479Q366.6875 227.00104 366.35938 227.00104Q365.98438 227.00104 365.67188 227.14166Q365.375 227.28229 365.17188 227.59479Q364.96875 227.90729 364.85938 228.42291Q364.76562 228.92291 364.76562 229.64166L364.76562 231.29791Q364.76562 231.87604 364.82812 232.31354Q364.90625 232.75104 365.03125 233.07916Q365.17188 233.39166 365.35938 233.59479Q365.5625 233.79791 365.8125 233.89166Q366.0625 233.98541 366.375 233.98541Q366.78125 233.98541 367.07812 233.84479Q367.375 233.68854 367.57812 233.36041Q367.78125 233.03229 367.875 232.53229Q367.96875 232.01666 367.96875 231.29791Z" fill-rule="nonzero"/><path stroke="#cccccc" stroke-width="1.0" stroke-linecap="butt" d="M472.85 305.0C472.85 249.30208 427.6979 204.15 372.0 204.15C316.3021 204.15 271.15 249.30208 271.15 305.0C271.15 360.6979 316.3021 405.85 372.0 405.85C427.6979 405.85 472.85 360.6979 472.85 305.0" fill-rule="nonzero"/><path fill="#000000" d="M353.0625 196.19687L353.0625 197.50937Q353.0625 198.55624 352.875 199.275Q352.6875 199.99374 352.32812 200.43124Q351.98438 200.86874 351.48438 201.07187Q351.0 201.275 350.375 201.275Q349.89062 201.275 349.46875 201.15Q349.04688 201.025 348.71875 200.75937Q348.39062 200.47812 348.15625 200.04062Q347.92188 199.60312 347.79688 198.97812Q347.67188 198.3375 347.67188 197.50937L347.67188 196.19687Q347.67188 195.15 347.85938 194.44687Q348.0625 193.74374 348.40625 193.30624Q348.76562 192.86874 349.25 192.68124Q349.75 192.49374 350.35938 192.49374Q350.85938 192.49374 351.28125 192.61874Q351.70312 192.74374 352.03125 193.00937Q352.35938 193.25937 352.57812 193.69687Q352.8125 194.11874 352.9375 194.74374Q353.0625 195.36874 353.0625 196.19687ZM351.96875 197.68124L351.96875 196.025Q351.96875 195.44687 351.90625 195.00937Q351.84375 194.57187 351.70312 194.25937Q351.57812 193.94687 351.375 193.75937Q351.1875 193.57187 350.9375 193.47812Q350.6875 193.38437 350.35938 193.38437Q349.98438 193.38437 349.67188 193.525Q349.375 193.66562 349.17188 193.97812Q348.96875 194.29062 348.85938 194.80624Q348.76562 195.30624 348.76562 196.025L348.76562 197.68124Q348.76562 198.25937 348.82812 198.69687Q348.90625 199.13437 349.03125 199.4625Q349.17188 199.775 349.35938 199.97812Q349.5625 200.18124 349.8125 200.275Q350.0625 200.36874 350.375 200.36874Q350.78125 200.36874 351.07812 200.22812Q351.375 200.07187 351.57812 199.74374Q351.78125 199.41562 351.875 198.91562Q351.96875 198.4 351.96875 197.68124ZM355.8125 199.85312L355.8125 200.72812Q355.8125 201.275 355.53125 201.86874Q355.26562 202.4625 354.78125 202.85312L354.17188 202.43124Q354.35938 202.16562 354.48438 201.9Q354.60938 201.63437 354.67188 201.35312Q354.75 201.07187 354.75 200.74374L354.75 199.85312L355.8125 199.85312ZM360.26562 192.57187L360.26562 201.15L359.1875 201.15L359.1875 193.93124L357.0 194.72812L357.0 193.74374L360.10938 192.57187L360.26562 192.57187ZM365.07812 197.0875L364.21875 196.86874L364.64062 192.61874L369.01562 192.61874L369.01562 193.61874L365.5625 193.61874L365.29688 195.94687Q365.53125 195.80624 365.89062 195.69687Q366.26562 195.57187 366.73438 195.57187Q367.3125 195.57187 367.78125 195.775Q368.25 195.97812 368.57812 196.35312Q368.92188 196.72812 369.09375 197.25937Q369.26562 197.775 369.26562 198.43124Q369.26562 199.04062 369.09375 199.55624Q368.9375 200.07187 368.59375 200.4625Q368.26562 200.8375 367.75 201.05624Q367.25 201.275 366.5625 201.275Q366.04688 201.275 365.59375 201.13437Q365.14062 200.97812 364.76562 200.68124Q364.40625 200.38437 364.1875 199.94687Q363.96875 199.50937 363.90625 198.9L364.9375 198.9Q365.0 199.38437 365.20312 199.7125Q365.42188 200.04062 365.76562 200.2125Q366.10938 200.36874 366.5625 200.36874Q366.95312 200.36874 367.25 200.24374Q367.54688 200.10312 367.75 199.85312Q367.96875 199.60312 368.07812 199.24374Q368.1875 198.88437 368.1875 198.44687Q368.1875 198.04062 368.0625 197.69687Q367.95312 197.35312 367.73438 197.10312Q367.51562 196.8375 367.20312 196.69687Q366.89062 196.54062 366.46875 196.54062Q365.9375 196.54062 365.65625 196.69687Q365.375 196.8375 365.07812 197.0875Z" fill-rule="nonzero"/><path stroke="#cccccc" stroke-width="1.0" stroke-linecap="butt" d="M506.46667 305.0C506.46667 230.73611 446.2639 170.53334 372.0 170.53334C297.7361 170.53334 237.53334 230.73611 237.53334 305.0C237.53334 379.2639 297.7361 439.46667 372.0 439.46667C446.2639 439.46667 506.46667 379.2639 506.46667 305.0" fill-rule="nonzero"/><path fill="#000000" d="M353.0625 162.58022L353.0625 163.89272Q353.0625 164.93959 352.875 165.65834Q352.6875 166.37709 352.32812 166.81459Q351.98438 167.25209 351.48438 167.45522Q351.0 167.65834 350.375 167.65834Q349.89062 167.65834 349.46875 167.53334Q349.04688 167.40834 348.71875 167.14272Q348.39062 166.86147 348.15625 166.42397Q347.92188 165.98647 347.79688 165.36147Q347.67188 164.72084 347.67188 163.89272L347.67188 162.58022Q347.67188 161.53334 347.85938 160.83022Q348.0625 160.12709 348.40625 159.68959Q348.76562 159.25209 349.25 159.06459Q349.75 158.87709 350.35938 158.87709Q350.85938 158.87709 351.28125 159.00209Q351.70312 159.12709 352.03125 159.39272Q352.35938 159.64272 352.57812 160.08022Q352.8125 160.50209 352.9375 161.12709Q353.0625 161.75209 353.0625 162.58022ZM351.96875 164.06459L351.96875 162.40834Q351.96875 161.83022 351.90625 161.39272Q351.84375 160.95522 351.70312 160.64272Q351.57812 160.33022 351.375 160.14272Q351.1875 159.95522 350.9375 159.86147Q350.6875 159.76772 350.35938 159.76772Q349.98438 159.76772 349.67188 159.90834Q349.375 160.04897 349.17188 160.36147Q348.96875 160.67397 348.85938 161.18959Q348.76562 161.68959 348.76562 162.40834L348.76562 164.06459Q348.76562 164.64272 348.82812 165.08022Q348.90625 165.51772 349.03125 165.84584Q349.17188 166.15834 349.35938 166.36147Q349.5625 166.56459 349.8125 166.65834Q350.0625 166.75209 350.375 166.75209Q350.78125 166.75209 351.07812 166.61147Q351.375 166.45522 351.57812 166.12709Q351.78125 165.79897 351.875 165.29897Q351.96875 164.78334 351.96875 164.06459ZM355.8125 166.23647L355.8125 167.11147Q355.8125 167.65834 355.53125 168.25209Q355.26562 168.84584 354.78125 169.23647L354.17188 168.81459Q354.35938 168.54897 354.48438 168.28334Q354.60938 168.01772 354.67188 167.73647Q354.75 167.45522 354.75 167.12709L354.75 166.23647L355.8125 166.23647ZM362.29688 166.64272L362.29688 167.53334L356.71875 167.53334L356.71875 166.75209L359.51562 163.64272Q360.03125 163.06459 360.3125 162.67397Q360.59375 162.26772 360.70312 161.95522Q360.82812 161.62709 360.82812 161.29897Q360.82812 160.87709 360.65625 160.53334Q360.48438 160.18959 360.14062 159.98647Q359.8125 159.76772 359.32812 159.76772Q358.76562 159.76772 358.39062 160.00209Q358.01562 160.22084 357.82812 160.61147Q357.64062 161.00209 357.64062 161.50209L356.54688 161.50209Q356.54688 160.78334 356.85938 160.18959Q357.1875 159.59584 357.79688 159.23647Q358.42188 158.87709 359.32812 158.87709Q360.14062 158.87709 360.71875 159.17397Q361.29688 159.45522 361.59375 159.97084Q361.90625 160.47084 361.90625 161.15834Q361.90625 161.53334 361.78125 161.92397Q361.65625 162.29897 361.4375 162.68959Q361.21875 163.06459 360.92188 163.43959Q360.64062 163.79897 360.3125 164.15834L358.01562 166.64272L362.29688 166.64272ZM369.0625 162.58022L369.0625 163.89272Q369.0625 164.93959 368.875 165.65834Q368.6875 166.37709 368.32812 166.81459Q367.98438 167.25209 367.48438 167.45522Q367.0 167.65834 366.375 167.65834Q365.89062 167.65834 365.46875 167.53334Q365.04688 167.40834 364.71875 167.14272Q364.39062 166.86147 364.15625 166.42397Q363.92188 165.98647 363.79688 165.36147Q363.67188 164.72084 363.67188 163.89272L363.67188 162.58022Q363.67188 161.53334 363.85938 160.83022Q364.0625 160.12709 364.40625 159.68959Q364.76562 159.25209 365.25 159.06459Q365.75 158.87709 366.35938 158.87709Q366.85938 158.87709 367.28125 159.00209Q367.70312 159.12709 368.03125 159.39272Q368.35938 159.64272 368.57812 160.08022Q368.8125 160.50209 368.9375 161.12709Q369.0625 161.75209 369.0625 162.58022ZM367.96875 164.06459L367.96875 162.40834Q367.96875 161.83022 367.90625 161.39272Q367.84375 160.95522 367.70312 160.64272Q367.57812 160.33022 367.375 160.14272Q367.1875 159.95522 366.9375 159.86147Q366.6875 159.76772 366.35938 159.76772Q365.98438 159.76772 365.67188 159.90834Q365.375 160.04897 365.17188 160.36147Q364.96875 160.67397 364.85938 161.18959Q364.76562 161.68959 364.76562 162.40834L364.76562 164.06459Q364.76562 164.64272 364.82812 165.08022Q364.90625 165.51772 365.03125 165.84584Q365.17188 166.15834 365.35938 166.36147Q365.5625 166.56459 365.8125 166.65834Q366.0625 166.75209 366.375 166.75209Q366.78125 166.75209 367.07812 166.61147Q367.375 166.45522 367.57812 166.12709Q367.78125 165.79897 367.875 165.29897Q367.96875 164.78334 367.96875 164.06459Z" fill-rule="nonzero"/><path stroke="#cccccc" stroke-width="1.0" stroke-linecap="butt" d="M540.0833 305.0C540.0833 212.17014 464.82986 136.91667 372.0 136.91667C279.17014 136.91667 203.91667 212.17014 203.91667 305.0C203.91667 397.82986 279.17014 473.08334 372.0 473.08334C464.82986 473.08334 540.0833 397.82986 540.0833 305.0" fill-rule="nonzero"/><path fill="#000000" d="M353.0625 128.96355L353.0625 130.27605Q353.0625 131.32292 352.875 132.04167Q352.6875 132.76042 352.32812 133.19792Q351.98438 133.63542 351.48438 133.83855Q351.0 134.04167 350.375 134.04167Q349.89062 134.04167 349.46875 133.91667Q349.04688 133.79167 348.71875 133.52605Q348.39062 133.2448 348.15625 132.8073Q347.92188 132.3698 347.79688 131.7448Q347.67188 131.10417 347.67188 130.27605L347.67188 128.96355Q347.67188 127.91667 347.85938 127.21355Q348.0625 126.51042 348.40625 126.07292Q348.76562 125.63542 349.25 125.44792Q349.75 125.26042 350.35938 125.26042Q350.85938 125.26042 351.28125 125.38542Q351.70312 125.51042 352.03125 125.77605Q352.35938 126.02605 352.57812 126.46355Q352.8125 126.88542 352.9375 127.51042Q353.0625 128.13542 353.0625 128.96355ZM351.96875 130.44792L351.96875 128.79167Q351.96875 128.21355 351.90625 127.77605Q351.84375 127.33855 351.70312 127.02605Q351.57812 126.71355 351.375 126.52605Q351.1875 126.33855 350.9375 126.2448Q350.6875 126.15105 350.35938 126.15105Q349.98438 126.15105 349.67188 126.29167Q349.375 126.4323 349.17188 126.7448Q348.96875 127.0573 348.85938 127.57292Q348.76562 128.07292 348.76562 128.79167L348.76562 130.44792Q348.76562 131.02605 348.82812 131.46355Q348.90625 131.90105 349.03125 132.22917Q349.17188 132.54167 349.35938 132.7448Q349.5625 132.94792 349.8125 133.04167Q350.0625 133.13542 350.375 133.13542Q350.78125 133.13542 351.07812 132.9948Q351.375 132.83855 351.57812 132.51042Q351.78125 132.1823 351.875 131.6823Q351.96875 131.16667 351.96875 130.44792ZM355.8125 132.6198L355.8125 133.4948Q355.8125 134.04167 355.53125 134.63542Q355.26562 135.22917 354.78125 135.6198L354.17188 135.19792Q354.35938 134.9323 354.48438 134.66667Q354.60938 134.40105 354.67188 134.1198Q354.75 133.83855 354.75 133.51042L354.75 132.6198L355.8125 132.6198ZM362.29688 133.02605L362.29688 133.91667L356.71875 133.91667L356.71875 133.13542L359.51562 130.02605Q360.03125 129.44792 360.3125 129.0573Q360.59375 128.65105 360.70312 128.33855Q360.82812 128.01042 360.82812 127.6823Q360.82812 127.26042 360.65625 126.91667Q360.48438 126.57292 360.14062 126.3698Q359.8125 126.15105 359.32812 126.15105Q358.76562 126.15105 358.39062 126.38542Q358.01562 126.60417 357.82812 126.9948Q357.64062 127.38542 357.64062 127.88542L356.54688 127.88542Q356.54688 127.16667 356.85938 126.57292Q357.1875 125.97917 357.79688 125.6198Q358.42188 125.26042 359.32812 125.26042Q360.14062 125.26042 360.71875 125.5573Q361.29688 125.83855 361.59375 126.35417Q361.90625 126.85417 361.90625 127.54167Q361.90625 127.91667 361.78125 128.3073Q361.65625 128.6823 361.4375 129.07292Q361.21875 129.44792 360.92188 129.82292Q360.64062 130.1823 360.3125 130.54167L358.01562 133.02605L362.29688 133.02605ZM365.07812 129.85417L364.21875 129.63542L364.64062 125.38542L369.01562 125.38542L369.01562 126.38542L365.5625 126.38542L365.29688 128.71355Q365.53125 128.57292 365.89062 128.46355Q366.26562 128.33855 366.73438 128.33855Q367.3125 128.33855 367.78125 128.54167Q368.25 128.7448 368.57812 129.1198Q368.92188 129.4948 369.09375 130.02605Q369.26562 130.54167 369.26562 131.19792Q369.26562 131.8073 369.09375 132.32292Q368.9375 132.83855 368.59375 133.22917Q368.26562 133.60417 367.75 133.82292Q367.25 134.04167 366.5625 134.04167Q366.04688 134.04167 365.59375 133.90105Q365.14062 133.7448 364.76562 133.44792Q364.40625 133.15105 364.1875 132.71355Q363.96875 132.27605 363.90625 131.66667L364.9375 131.66667Q365.0 132.15105 365.20312 132.47917Q365.42188 132.8073 365.76562 132.97917Q366.10938 133.13542 366.5625 133.13542Q366.95312 133.13542 367.25 133.01042Q367.54688 132.8698 367.75 132.6198Q367.96875 132.3698 368.07812 132.01042Q368.1875 131.65105 368.1875 131.21355Q368.1875 130.8073 368.0625 130.46355Q367.95312 130.1198 367.73438 129.8698Q367.51562 129.60417 367.20312 129.46355Q366.89062 129.3073 366.46875 129.3073Q365.9375 129.3073 365.65625 129.46355Q365.375 129.60417 365.07812 129.85417Z" fill-rule="nonzero"/><path stroke="#cccccc" stroke-width="1.0" stroke-linecap="butt" d="M573.7 305.0C573.7 193.60417 483.39584 103.3 372.0 103.3C260.60416 103.3 170.3 193.60417 170.3 305.0C170.3 416.39584 260.60416 506.7 372.0 506.7C483.39584 506.7 573.7 416.39584 573.7 305.0" fill-rule="nonzero"/><path fill="#000000" d="M353.0625 95.34688L353.0625 96.65938Q353.0625 97.70625 352.875 98.425Q352.6875 99.14375 352.32812 99.58125Q351.98438 100.01875 351.48438 100.22188Q351.0 100.425 350.375 100.425Q349.89062 100.425 349.46875 100.3Q349.04688 100.175 348.71875 99.90938Q348.39062 99.62813 348.15625 99.19063Q347.92188 98.75313 347.79688 98.12813Q347.67188 97.4875 347.67188 96.65938L347.67188 95.34688Q347.67188 94.3 347.85938 93.59688Q348.0625 92.89375 348.40625 92.45625Q348.76562 92.01875 349.25 91.83125Q349.75 91.64375 350.35938 91.64375Q350.85938 91.64375 351.28125 91.76875Q351.70312 91.89375 352.03125 92.15938Q352.35938 92.40938 352.57812 92.84688Q352.8125 93.26875 352.9375 93.89375Q353.0625 94.51875 353.0625 95.34688ZM351.96875 96.83125L351.96875 95.175Q351.96875 94.59688 351.90625 94.15938Q351.84375 93.72188 351.70312 93.40938Q351.57812 93.09688 351.375 92.90938Q351.1875 92.72188 350.9375 92.62813Q350.6875 92.53438 350.35938 92.53438Q349.98438 92.53438 349.67188 92.675Q349.375 92.81563 349.17188 93.12813Q348.96875 93.44063 348.85938 93.95625Q348.76562 94.45625 348.76562 95.175L348.76562 96.83125Q348.76562 97.40938 348.82812 97.84688Q348.90625 98.28438 349.03125 98.6125Q349.17188 98.925 349.35938 99.12813Q349.5625 99.33125 349.8125 99.425Q350.0625 99.51875 350.375 99.51875Q350.78125 99.51875 351.07812 99.37813Q351.375 99.22188 351.57812 98.89375Q351.78125 98.56563 351.875 98.06563Q351.96875 97.55 351.96875 96.83125ZM355.8125 99.00313L355.8125 99.87813Q355.8125 100.425 355.53125 101.01875Q355.26562 101.6125 354.78125 102.00313L354.17188 101.58125Q354.35938 101.31563 354.48438 101.05Q354.60938 100.78438 354.67188 100.50313Q354.75 100.22188 354.75 99.89375L354.75 99.00313L355.8125 99.00313ZM358.29688 95.50313L359.0625 95.50313Q359.64062 95.50313 360.0 95.31563Q360.375 95.1125 360.5625 94.78438Q360.75 94.45625 360.75 94.03438Q360.75 93.55 360.57812 93.22188Q360.42188 92.87813 360.09375 92.70625Q359.76562 92.53438 359.26562 92.53438Q358.79688 92.53438 358.45312 92.72188Q358.10938 92.89375 357.90625 93.22188Q357.71875 93.55 357.71875 94.00313L356.625 94.00313Q356.625 93.34688 356.95312 92.81563Q357.28125 92.28438 357.875 91.97188Q358.46875 91.64375 359.26562 91.64375Q360.03125 91.64375 360.60938 91.925Q361.1875 92.19063 361.51562 92.7375Q361.84375 93.26875 361.84375 94.06563Q361.84375 94.39375 361.6875 94.75313Q361.53125 95.1125 361.21875 95.44063Q360.90625 95.75313 360.40625 95.95625Q359.92188 96.15938 359.21875 96.15938L358.29688 96.15938L358.29688 95.50313ZM358.29688 96.39375L358.29688 95.7375L359.21875 95.7375Q360.03125 95.7375 360.5625 95.94063Q361.09375 96.12813 361.40625 96.45625Q361.71875 96.76875 361.84375 97.15938Q361.96875 97.53438 361.96875 97.925Q361.96875 98.51875 361.76562 98.9875Q361.5625 99.44063 361.1875 99.76875Q360.82812 100.08125 360.32812 100.25313Q359.84375 100.425 359.26562 100.425Q358.70312 100.425 358.21875 100.26875Q357.73438 100.09688 357.35938 99.8Q356.98438 99.50313 356.76562 99.06563Q356.5625 98.6125 356.5625 98.05L357.64062 98.05Q357.64062 98.4875 357.82812 98.83125Q358.03125 99.15938 358.39062 99.34688Q358.76562 99.51875 359.26562 99.51875Q359.76562 99.51875 360.125 99.34688Q360.48438 99.175 360.67188 98.83125Q360.875 98.47188 360.875 97.94063Q360.875 97.40938 360.65625 97.06563Q360.4375 96.72188 360.01562 96.56563Q359.60938 96.39375 359.0625 96.39375L358.29688 96.39375ZM369.0625 95.34688L369.0625 96.65938Q369.0625 97.70625 368.875 98.425Q368.6875 99.14375 368.32812 99.58125Q367.98438 100.01875 367.48438 100.22188Q367.0 100.425 366.375 100.425Q365.89062 100.425 365.46875 100.3Q365.04688 100.175 364.71875 99.90938Q364.39062 99.62813 364.15625 99.19063Q363.92188 98.75313 363.79688 98.12813Q363.67188 97.4875 363.67188 96.65938L363.67188 95.34688Q363.67188 94.3 363.85938 93.59688Q364.0625 92.89375 364.40625 92.45625Q364.76562 92.01875 365.25 91.83125Q365.75 91.64375 366.35938 91.64375Q366.85938 91.64375 367.28125 91.76875Q367.70312 91.89375 368.03125 92.15938Q368.35938 92.40938 368.57812 92.84688Q368.8125 93.26875 368.9375 93.89375Q369.0625 94.51875 369.0625 95.34688ZM367.96875 96.83125L367.96875 95.175Q367.96875 94.59688 367.90625 94.15938Q367.84375 93.72188 367.70312 93.40938Q367.57812 93.09688 367.375 92.90938Q367.1875 92.72188 366.9375 92.62813Q366.6875 92.53438 366.35938 92.53438Q365.98438 92.53438 365.67188 92.675Q365.375 92.81563 365.17188 93.12813Q364.96875 93.44063 364.85938 93.95625Q364.76562 94.45625 364.76562 95.175L364.76562 96.83125Q364.76562 97.40938 364.82812 97.84688Q364.90625 98.28438 365.03125 98.6125Q365.17188 98.925 365.35938 99.12813Q365.5625 99.33125 365.8125 99.425Q366.0625 99.51875 366.375 99.51875Q366.78125 99.51875 367.07812 99.37813Q367.375 99.22188 367.57812 98.89375Q367.78125 98.56563 367.875 98.06563Q367.96875 97.55 367.96875 96.83125Z" fill-rule="nonzero"/><path stroke="#cccccc" stroke-width="1.0" stroke-linecap="butt" d="M372.0 305.0L372.0 103.0" fill-rule="nonzero"/><path fill="#000000" d="M342.64062 79.78125L343.76562 79.78125Q343.67188 80.59375 343.29688 81.234375Q342.92188 81.875 342.23438 82.25Q341.5625 82.625 340.53125 82.625Q339.78125 82.625 339.17188 82.34375Q338.5625 82.046875 338.10938 81.53125Q337.67188 81.015625 337.4375 80.296875Q337.20312 79.5625 337.20312 78.65625L337.20312 77.8125Q337.20312 76.921875 337.4375 76.1875Q337.67188 75.453125 338.125 74.9375Q338.57812 74.40625 339.20312 74.125Q339.84375 73.84375 340.625 73.84375Q341.59375 73.84375 342.26562 74.21875Q342.9375 74.578125 343.29688 75.21875Q343.67188 75.859375 343.76562 76.703125L342.64062 76.703125Q342.5625 76.109375 342.32812 75.6875Q342.10938 75.25 341.70312 75.015625Q341.29688 74.78125 340.625 74.78125Q340.0625 74.78125 339.625 75.0Q339.20312 75.203125 338.90625 75.609375Q338.625 76.0 338.46875 76.5625Q338.32812 77.125 338.32812 77.796875L338.32812 78.65625Q338.32812 79.28125 338.45312 79.84375Q338.59375 80.390625 338.85938 80.8125Q339.125 81.21875 339.54688 81.46875Q339.96875 81.703125 340.53125 81.703125Q341.25 81.703125 341.67188 81.46875Q342.10938 81.234375 342.32812 80.8125Q342.54688 80.390625 342.64062 79.78125ZM349.0625 81.421875L349.0625 78.15625Q349.0625 77.78125 348.90625 77.5Q348.76562 77.21875 348.46875 77.078125Q348.17188 76.921875 347.73438 76.921875Q347.3125 76.921875 347.0 77.0625Q346.70312 77.203125 346.53125 77.4375Q346.35938 77.65625 346.35938 77.921875L345.28125 77.921875Q345.28125 77.578125 345.45312 77.25Q345.625 76.90625 345.95312 76.640625Q346.28125 76.359375 346.75 76.203125Q347.21875 76.046875 347.79688 76.046875Q348.48438 76.046875 349.01562 76.28125Q349.54688 76.515625 349.84375 76.984375Q350.15625 77.453125 350.15625 78.15625L350.15625 81.109375Q350.15625 81.4375 350.20312 81.796875Q350.26562 82.140625 350.375 82.40625L350.375 82.5L349.23438 82.5Q349.15625 82.3125 349.10938 82.0Q349.0625 81.6875 349.0625 81.421875ZM349.25 78.65625L349.26562 79.421875L348.17188 79.421875Q347.70312 79.421875 347.34375 79.5Q346.98438 79.5625 346.73438 79.71875Q346.48438 79.859375 346.35938 80.078125Q346.23438 80.296875 346.23438 80.59375Q346.23438 80.890625 346.35938 81.140625Q346.5 81.375 346.76562 81.53125Q347.04688 81.671875 347.4375 81.671875Q347.9375 81.671875 348.3125 81.46875Q348.70312 81.25 348.92188 80.953125Q349.15625 80.640625 349.17188 80.34375L349.64062 80.875Q349.59375 81.109375 349.40625 81.421875Q349.23438 81.71875 348.92188 82.0Q348.625 82.265625 348.20312 82.453125Q347.79688 82.625 347.28125 82.625Q346.64062 82.625 346.15625 82.375Q345.67188 82.109375 345.40625 81.6875Q345.14062 81.265625 345.14062 80.734375Q345.14062 80.21875 345.32812 79.84375Q345.53125 79.453125 345.90625 79.1875Q346.28125 78.921875 346.8125 78.796875Q347.34375 78.65625 348.0 78.65625L349.25 78.65625ZM353.40625 77.15625L353.40625 82.5L352.32812 82.5L352.32812 76.15625L353.375 76.15625L353.40625 77.15625ZM355.39062 76.125L355.39062 77.125Q355.25 77.109375 355.125 77.09375Q355.01562 77.078125 354.85938 77.078125Q354.48438 77.078125 354.1875 77.203125Q353.90625 77.3125 353.70312 77.53125Q353.51562 77.734375 353.39062 78.03125Q353.28125 78.328125 353.25 78.671875L352.9375 78.84375Q352.9375 78.265625 353.04688 77.765625Q353.17188 77.265625 353.40625 76.875Q353.65625 76.484375 354.01562 76.265625Q354.39062 76.046875 354.90625 76.046875Q355.03125 76.046875 355.17188 76.078125Q355.32812 76.09375 355.39062 76.125ZM358.10938 81.84375L359.875 76.15625L361.03125 76.15625L358.48438 83.484375Q358.40625 83.71875 358.25 83.984375Q358.10938 84.265625 357.89062 84.5Q357.67188 84.75 357.35938 84.90625Q357.04688 85.0625 356.60938 85.0625Q356.48438 85.0625 356.28125 85.015625Q356.07812 84.984375 356.0 84.96875L356.0 84.09375Q356.04688 84.09375 356.14062 84.09375Q356.25 84.109375 356.28125 84.109375Q356.65625 84.109375 356.90625 84.015625Q357.17188 83.921875 357.34375 83.6875Q357.53125 83.46875 357.65625 83.078125L358.10938 81.84375ZM356.8125 76.15625L358.45312 81.078125L358.73438 82.21875L357.96875 82.625L355.625 76.15625L356.8125 76.15625ZM362.04688 79.40625L362.04688 79.265625Q362.04688 78.578125 362.23438 78.0Q362.4375 77.40625 362.8125 76.96875Q363.1875 76.53125 363.71875 76.296875Q364.25 76.046875 364.92188 76.046875Q365.57812 76.046875 366.10938 76.296875Q366.65625 76.53125 367.03125 76.96875Q367.40625 77.40625 367.60938 78.0Q367.8125 78.578125 367.8125 79.265625L367.8125 79.40625Q367.8125 80.078125 367.60938 80.671875Q367.40625 81.25 367.03125 81.6875Q366.65625 82.125 366.125 82.375Q365.59375 82.625 364.92188 82.625Q364.26562 82.625 363.71875 82.375Q363.1875 82.125 362.8125 81.6875Q362.4375 81.25 362.23438 80.671875Q362.04688 80.078125 362.04688 79.40625ZM363.125 79.265625L363.125 79.40625Q363.125 79.875 363.23438 80.296875Q363.34375 80.71875 363.5625 81.046875Q363.79688 81.359375 364.14062 81.546875Q364.48438 81.71875 364.92188 81.71875Q365.375 81.71875 365.70312 81.546875Q366.04688 81.359375 366.26562 81.046875Q366.5 80.71875 366.60938 80.296875Q366.71875 79.875 366.71875 79.40625L366.71875 79.265625Q366.71875 78.796875 366.60938 78.375Q366.5 77.953125 366.26562 77.640625Q366.04688 77.3125 365.70312 77.125Q365.375 76.9375 364.92188 76.9375Q364.46875 76.9375 364.125 77.125Q363.79688 77.3125 363.5625 77.640625Q363.34375 77.953125 363.23438 78.375Q363.125 78.796875 363.125 79.265625ZM370.40625 77.375L370.40625 84.9375L369.32812 84.9375L369.32812 76.15625L370.3125 76.15625L370.40625 77.375ZM374.6875 79.28125L374.6875 79.40625Q374.6875 80.09375 374.51562 80.6875Q374.35938 81.265625 374.04688 81.703125Q373.73438 82.140625 373.26562 82.390625Q372.8125 82.625 372.21875 82.625Q371.625 82.625 371.15625 82.421875Q370.6875 82.21875 370.35938 81.84375Q370.04688 81.453125 369.85938 80.921875Q369.67188 80.390625 369.59375 79.71875L369.59375 79.0625Q369.67188 78.359375 369.85938 77.8125Q370.04688 77.25 370.35938 76.859375Q370.6875 76.453125 371.14062 76.25Q371.60938 76.046875 372.20312 76.046875Q372.79688 76.046875 373.26562 76.28125Q373.73438 76.5 374.04688 76.9375Q374.35938 77.359375 374.51562 77.953125Q374.6875 78.546875 374.6875 79.28125ZM373.59375 79.40625L373.59375 79.28125Q373.59375 78.796875 373.48438 78.390625Q373.39062 77.96875 373.1875 77.65625Q372.98438 77.328125 372.65625 77.140625Q372.32812 76.953125 371.89062 76.953125Q371.48438 76.953125 371.17188 77.09375Q370.875 77.234375 370.65625 77.484375Q370.45312 77.71875 370.3125 78.015625Q370.1875 78.3125 370.125 78.640625L370.125 80.15625Q370.23438 80.5625 370.4375 80.921875Q370.65625 81.28125 371.0 81.5Q371.35938 81.71875 371.90625 81.71875Q372.34375 81.71875 372.65625 81.546875Q372.98438 81.359375 373.1875 81.046875Q373.39062 80.71875 373.48438 80.296875Q373.59375 79.875 373.59375 79.40625ZM377.40625 73.5L377.40625 82.5L376.32812 82.5L376.32812 73.5L377.40625 73.5ZM377.15625 79.09375L376.70312 79.078125Q376.70312 78.421875 376.89062 77.875Q377.07812 77.3125 377.42188 76.90625Q377.76562 76.5 378.23438 76.28125Q378.70312 76.046875 379.28125 76.046875Q379.75 76.046875 380.125 76.171875Q380.5 76.296875 380.76562 76.578125Q381.03125 76.84375 381.17188 77.28125Q381.3125 77.71875 381.3125 78.34375L381.3125 82.5L380.21875 82.5L380.21875 78.328125Q380.21875 77.828125 380.07812 77.53125Q379.9375 77.234375 379.65625 77.09375Q379.375 76.953125 378.95312 76.953125Q378.54688 76.953125 378.21875 77.125Q377.89062 77.296875 377.65625 77.59375Q377.42188 77.890625 377.28125 78.28125Q377.15625 78.65625 377.15625 79.09375ZM385.10938 81.84375L386.875 76.15625L388.03125 76.15625L385.48438 83.484375Q385.40625 83.71875 385.25 83.984375Q385.10938 84.265625 384.89062 84.5Q384.67188 84.75 384.35938 84.90625Q384.04688 85.0625 383.60938 85.0625Q383.48438 85.0625 383.28125 85.015625Q383.07812 84.984375 383.0 84.96875L383.0 84.09375Q383.04688 84.09375 383.14062 84.09375Q383.25 84.109375 383.28125 84.109375Q383.65625 84.109375 383.90625 84.015625Q384.17188 83.921875 384.34375 83.6875Q384.53125 83.46875 384.65625 83.078125L385.10938 81.84375ZM383.8125 76.15625L385.45312 81.078125L385.73438 82.21875L384.96875 82.625L382.625 76.15625L383.8125 76.15625ZM390.5 73.5L390.5 82.5L389.42188 82.5L389.42188 73.5L390.5 73.5ZM393.5 73.5L393.5 82.5L392.42188 82.5L392.42188 73.5L393.5 73.5ZM397.95312 82.625Q397.29688 82.625 396.75 82.40625Q396.21875 82.171875 395.82812 81.765625Q395.45312 81.34375 395.25 80.78125Q395.04688 80.21875 395.04688 79.546875L395.04688 79.3125Q395.04688 78.53125 395.26562 77.921875Q395.5 77.3125 395.89062 76.890625Q396.28125 76.46875 396.78125 76.265625Q397.28125 76.046875 397.8125 76.046875Q398.5 76.046875 398.98438 76.28125Q399.48438 76.515625 399.79688 76.9375Q400.125 77.34375 400.26562 77.921875Q400.42188 78.484375 400.42188 79.140625L400.42188 79.640625L395.6875 79.640625L395.6875 78.75L399.34375 78.75L399.34375 78.671875Q399.3125 78.25 399.15625 77.859375Q399.01562 77.453125 398.6875 77.203125Q398.375 76.9375 397.8125 76.9375Q397.45312 76.9375 397.14062 77.09375Q396.82812 77.25 396.59375 77.5625Q396.375 77.859375 396.25 78.296875Q396.14062 78.734375 396.14062 79.3125L396.14062 79.546875Q396.14062 80.0 396.26562 80.40625Q396.39062 80.796875 396.625 81.09375Q396.875 81.390625 397.21875 81.5625Q397.57812 81.734375 398.01562 81.734375Q398.59375 81.734375 398.98438 81.5Q399.39062 81.265625 399.6875 80.875L400.34375 81.390625Q400.14062 81.703125 399.8125 81.984375Q399.5 82.265625 399.03125 82.453125Q398.57812 82.625 397.95312 82.625ZM402.40625 77.515625L402.40625 82.5L401.32812 82.5L401.32812 76.15625L402.35938 76.15625L402.40625 77.515625ZM402.15625 79.09375L401.70312 79.078125Q401.70312 78.421875 401.89062 77.875Q402.07812 77.3125 402.42188 76.90625Q402.76562 76.5 403.23438 76.28125Q403.70312 76.046875 404.28125 76.046875Q404.75 76.046875 405.125 76.171875Q405.5 76.296875 405.76562 76.578125Q406.03125 76.84375 406.17188 77.28125Q406.3125 77.71875 406.3125 78.34375L406.3125 82.5L405.21875 82.5L405.21875 78.328125Q405.21875 77.828125 405.07812 77.53125Q404.9375 77.234375 404.65625 77.09375Q404.375 76.953125 403.95312 76.953125Q403.54688 76.953125 403.21875 77.125Q402.89062 77.296875 402.65625 77.59375Q402.42188 77.890625 402.28125 78.28125Q402.15625 78.65625 402.15625 79.09375Z" fill-rule="nonzero"/><path stroke="#cccccc" stroke-width="1.0" stroke-linecap="butt" d="M372.0 305.0L547.0 204.0" fill-rule="nonzero"/><path fill="#000000" d="M546.53125 191.67188L547.3906 191.67188Q548.2031 191.67188 548.7656 191.98438Q549.34375 192.28125 549.6406 192.8125Q549.9531 193.34375 549.9531 194.01562Q549.9531 194.84375 549.6094 195.42188Q549.2656 196.0 548.6719 196.3125Q548.0781 196.625 547.2969 196.625Q546.84375 196.625 546.3906 196.5Q545.9375 196.35938 545.5625 196.09375Q545.2031 195.82812 544.9844 195.40625Q544.7656 194.98438 544.7656 194.40625L545.1875 194.15625Q545.1875 194.59375 545.4375 194.95312Q545.7031 195.29688 546.1406 195.51562Q546.59375 195.73438 547.1875 195.73438Q547.71875 195.73438 548.09375 195.51562Q548.46875 195.29688 548.6719 194.92188Q548.875 194.53125 548.875 194.03125Q548.875 193.625 548.6875 193.25Q548.5156 192.85938 548.1875 192.60938Q547.8594 192.35938 547.375 192.35938L546.53125 192.35938L546.53125 191.67188ZM547.0469 187.84375Q547.8125 187.84375 548.375 188.14062Q548.9375 188.4375 549.2344 188.95312Q549.5469 189.46875 549.5469 190.14062Q549.5469 190.70312 549.2344 191.17188Q548.9375 191.625 548.375 191.90625Q547.8125 192.17188 547.0469 192.17188L546.53125 192.17188L546.53125 191.46875L547.03125 191.46875Q547.5469 191.46875 547.8594 191.29688Q548.1719 191.125 548.3125 190.82812Q548.46875 190.51562 548.46875 190.125Q548.46875 189.76562 548.3125 189.45312Q548.15625 189.14062 547.84375 188.9375Q547.53125 188.73438 547.0469 188.73438Q546.625 188.73438 546.28125 188.9375Q545.9375 189.125 545.7344 189.46875Q545.53125 189.79688 545.53125 190.21875L545.53125 198.75L544.4375 198.75L544.4375 190.21875Q544.4375 189.5625 544.7969 189.03125Q545.15625 188.48438 545.75 188.17188Q546.34375 187.84375 547.0469 187.84375ZM553.5781 192.42188L553.5781 193.3125L550.71875 193.3125L550.71875 192.42188L553.5781 192.42188ZM554.84375 187.96875L555.9375 187.96875L558.7344 194.92188L561.53125 187.96875L562.625 187.96875L559.15625 196.5L558.3125 196.5L554.84375 187.96875ZM554.4844 187.96875L555.4531 187.96875L555.6094 193.17188L555.6094 196.5L554.4844 196.5L554.4844 187.96875ZM562.0156 187.96875L562.9844 187.96875L562.9844 196.5L561.8594 196.5L561.8594 193.17188L562.0156 187.96875ZM566.1094 195.84375L567.875 190.15625L569.03125 190.15625L566.4844 197.48438Q566.40625 197.71875 566.25 197.98438Q566.1094 198.26562 565.8906 198.5Q565.6719 198.75 565.3594 198.90625Q565.0469 199.0625 564.6094 199.0625Q564.4844 199.0625 564.28125 199.01562Q564.0781 198.98438 564.0 198.96875L564.0 198.09375Q564.0469 198.09375 564.1406 198.09375Q564.25 198.10938 564.28125 198.10938Q564.65625 198.10938 564.90625 198.01562Q565.1719 197.92188 565.34375 197.6875Q565.53125 197.46875 565.65625 197.07812L566.1094 195.84375ZM564.8125 190.15625L566.4531 195.07812L566.7344 196.21875L565.96875 196.625L563.625 190.15625L564.8125 190.15625ZM571.40625 191.15625L571.40625 196.5L570.3281 196.5L570.3281 190.15625L571.375 190.15625L571.40625 191.15625ZM573.3906 190.125L573.3906 191.125Q573.25 191.10938 573.125 191.09375Q573.0156 191.07812 572.8594 191.07812Q572.4844 191.07812 572.1875 191.20312Q571.90625 191.3125 571.7031 191.53125Q571.5156 191.73438 571.3906 192.03125Q571.28125 192.32812 571.25 192.67188L570.9375 192.84375Q570.9375 192.26562 571.0469 191.76562Q571.1719 191.26562 571.40625 190.875Q571.65625 190.48438 572.0156 190.26562Q572.3906 190.04688 572.90625 190.04688Q573.03125 190.04688 573.1719 190.07812Q573.3281 190.09375 573.3906 190.125ZM576.8594 195.71875Q577.25 195.71875 577.5781 195.5625Q577.90625 195.40625 578.1094 195.14062Q578.3281 194.85938 578.3594 194.5L579.3906 194.5Q579.3594 195.0625 579.0 195.54688Q578.65625 196.03125 578.09375 196.32812Q577.53125 196.625 576.8594 196.625Q576.15625 196.625 575.625 196.375Q575.09375 196.10938 574.7344 195.67188Q574.3906 195.23438 574.21875 194.67188Q574.0469 194.09375 574.0469 193.45312L574.0469 193.20312Q574.0469 192.5625 574.21875 192.0Q574.3906 191.42188 574.7344 190.98438Q575.09375 190.54688 575.625 190.29688Q576.15625 190.04688 576.8594 190.04688Q577.6094 190.04688 578.15625 190.34375Q578.71875 190.64062 579.03125 191.17188Q579.3594 191.6875 579.3906 192.34375L578.3594 192.34375Q578.3281 191.95312 578.1406 191.64062Q577.9531 191.3125 577.625 191.125Q577.2969 190.9375 576.8594 190.9375Q576.3594 190.9375 576.0156 191.14062Q575.6875 191.32812 575.4844 191.65625Q575.2969 191.98438 575.2031 192.39062Q575.125 192.79688 575.125 193.20312L575.125 193.45312Q575.125 193.875 575.2031 194.28125Q575.2969 194.67188 575.4844 195.0Q575.6875 195.32812 576.0156 195.53125Q576.3594 195.71875 576.8594 195.71875ZM582.9531 196.625Q582.2969 196.625 581.75 196.40625Q581.21875 196.17188 580.8281 195.76562Q580.4531 195.34375 580.25 194.78125Q580.0469 194.21875 580.0469 193.54688L580.0469 193.3125Q580.0469 192.53125 580.2656 191.92188Q580.5 191.3125 580.8906 190.89062Q581.28125 190.46875 581.78125 190.26562Q582.28125 190.04688 582.8125 190.04688Q583.5 190.04688 583.9844 190.28125Q584.4844 190.51562 584.7969 190.9375Q585.125 191.34375 585.2656 191.92188Q585.4219 192.48438 585.4219 193.14062L585.4219 193.64062L580.6875 193.64062L580.6875 192.75L584.34375 192.75L584.34375 192.67188Q584.3125 192.25 584.15625 191.85938Q584.0156 191.45312 583.6875 191.20312Q583.375 190.9375 582.8125 190.9375Q582.4531 190.9375 582.1406 191.09375Q581.8281 191.25 581.59375 191.5625Q581.375 191.85938 581.25 192.29688Q581.1406 192.73438 581.1406 193.3125L581.1406 193.54688Q581.1406 194.0 581.2656 194.40625Q581.3906 194.79688 581.625 195.09375Q581.875 195.39062 582.21875 195.5625Q582.5781 195.73438 583.0156 195.73438Q583.59375 195.73438 583.9844 195.5Q584.3906 195.26562 584.6875 194.875L585.34375 195.39062Q585.1406 195.70312 584.8125 195.98438Q584.5 196.26562 584.03125 196.45312Q583.5781 196.625 582.9531 196.625ZM587.40625 191.51562L587.40625 196.5L586.3281 196.5L586.3281 190.15625L587.3594 190.15625L587.40625 191.51562ZM587.15625 193.09375L586.7031 193.07812Q586.7031 192.42188 586.8906 191.875Q587.0781 191.3125 587.4219 190.90625Q587.7656 190.5 588.2344 190.28125Q588.7031 190.04688 589.28125 190.04688Q589.75 190.04688 590.125 190.17188Q590.5 190.29688 590.7656 190.57812Q591.03125 190.84375 591.1719 191.28125Q591.3125 191.71875 591.3125 192.34375L591.3125 196.5L590.21875 196.5L590.21875 192.32812Q590.21875 191.82812 590.0781 191.53125Q589.9375 191.23438 589.65625 191.09375Q589.375 190.95312 588.9531 190.95312Q588.5469 190.95312 588.21875 191.125Q587.8906 191.29688 587.65625 191.59375Q587.4219 191.89062 587.28125 192.28125Q587.15625 192.65625 587.15625 193.09375Z" fill-rule="nonzero"/><path stroke="#cccccc" stroke-width="1.0" stroke-linecap="butt" d="M372.0 305.0L547.0 406.0" fill-rule="nonzero"/><path fill="#000000" d="M542.2969 422.5L540.5156 422.5L540.53125 421.57812L542.2969 421.57812Q543.21875 421.57812 543.8281 421.20312Q544.4375 420.8125 544.7344 420.125Q545.0469 419.42188 545.0469 418.48438L545.0469 417.96875Q545.0469 417.23438 544.875 416.67188Q544.7031 416.09375 544.3594 415.70312Q544.0156 415.29688 543.5156 415.09375Q543.03125 414.89062 542.40625 414.89062L540.4844 414.89062L540.4844 413.96875L542.40625 413.96875Q543.25 413.96875 543.9375 414.25Q544.625 414.53125 545.125 415.0625Q545.625 415.57812 545.8906 416.32812Q546.1719 417.0625 546.1719 417.98438L546.1719 418.48438Q546.1719 419.42188 545.8906 420.17188Q545.625 420.90625 545.1094 421.42188Q544.6094 421.9375 543.8906 422.21875Q543.1875 422.5 542.2969 422.5ZM541.125 413.96875L541.125 422.5L539.9844 422.5L539.9844 413.96875L541.125 413.96875ZM550.0781 418.42188L550.0781 419.3125L547.21875 419.3125L547.21875 418.42188L550.0781 418.42188ZM556.1719 421.57812L556.1719 422.5L551.90625 422.5L551.90625 421.57812L556.1719 421.57812ZM552.125 413.96875L552.125 422.5L550.9844 422.5L550.9844 413.96875L552.125 413.96875ZM558.0 416.15625L558.0 422.5L556.9219 422.5L556.9219 416.15625L558.0 416.15625ZM556.8281 414.48438Q556.8281 414.21875 556.9844 414.03125Q557.15625 413.84375 557.46875 413.84375Q557.78125 413.84375 557.9375 414.03125Q558.1094 414.21875 558.1094 414.48438Q558.1094 414.73438 557.9375 414.92188Q557.78125 415.09375 557.46875 415.09375Q557.15625 415.09375 556.9844 414.92188Q556.8281 414.73438 556.8281 414.48438ZM560.90625 417.42188L560.90625 422.5L559.8125 422.5L559.8125 416.15625L560.84375 416.15625L560.90625 417.42188ZM560.6875 419.09375L560.1719 419.07812Q560.1875 418.42188 560.34375 417.875Q560.5156 417.3125 560.8281 416.90625Q561.15625 416.5 561.6406 416.28125Q562.125 416.04688 562.75 416.04688Q563.2031 416.04688 563.5781 416.17188Q563.9531 416.29688 564.21875 416.5625Q564.5 416.82812 564.6406 417.25Q564.7969 417.67188 564.7969 418.28125L564.7969 422.5L563.71875 422.5L563.71875 418.32812Q563.71875 417.82812 563.5469 417.53125Q563.3906 417.23438 563.0781 417.09375Q562.78125 416.95312 562.3594 416.95312Q561.8906 416.95312 561.5625 417.125Q561.2344 417.29688 561.0469 417.59375Q560.8594 417.89062 560.7656 418.28125Q560.6875 418.65625 560.6875 419.09375ZM564.7969 418.48438L564.0625 418.71875Q564.0625 418.1875 564.2344 417.71875Q564.40625 417.23438 564.71875 416.85938Q565.0469 416.48438 565.5156 416.26562Q565.9844 416.04688 566.5781 416.04688Q567.09375 416.04688 567.4844 416.1875Q567.8906 416.3125 568.15625 416.59375Q568.4219 416.875 568.5625 417.3125Q568.7031 417.73438 568.7031 418.32812L568.7031 422.5L567.625 422.5L567.625 418.32812Q567.625 417.78125 567.4531 417.5Q567.28125 417.20312 566.9844 417.07812Q566.6875 416.95312 566.2656 416.95312Q565.90625 416.95312 565.625 417.07812Q565.3594 417.20312 565.1719 417.42188Q564.9844 417.625 564.8906 417.90625Q564.7969 418.1875 564.7969 418.48438ZM570.5469 419.40625L570.5469 419.26562Q570.5469 418.57812 570.7344 418.0Q570.9375 417.40625 571.3125 416.96875Q571.6875 416.53125 572.21875 416.29688Q572.75 416.04688 573.4219 416.04688Q574.0781 416.04688 574.6094 416.29688Q575.15625 416.53125 575.53125 416.96875Q575.90625 417.40625 576.1094 418.0Q576.3125 418.57812 576.3125 419.26562L576.3125 419.40625Q576.3125 420.07812 576.1094 420.67188Q575.90625 421.25 575.53125 421.6875Q575.15625 422.125 574.625 422.375Q574.09375 422.625 573.4219 422.625Q572.7656 422.625 572.21875 422.375Q571.6875 422.125 571.3125 421.6875Q570.9375 421.25 570.7344 420.67188Q570.5469 420.07812 570.5469 419.40625ZM571.625 419.26562L571.625 419.40625Q571.625 419.875 571.7344 420.29688Q571.84375 420.71875 572.0625 421.04688Q572.2969 421.35938 572.6406 421.54688Q572.9844 421.71875 573.4219 421.71875Q573.875 421.71875 574.2031 421.54688Q574.5469 421.35938 574.7656 421.04688Q575.0 420.71875 575.1094 420.29688Q575.21875 419.875 575.21875 419.40625L575.21875 419.26562Q575.21875 418.79688 575.1094 418.375Q575.0 417.95312 574.7656 417.64062Q574.5469 417.3125 574.2031 417.125Q573.875 416.9375 573.4219 416.9375Q572.96875 416.9375 572.625 417.125Q572.2969 417.3125 572.0625 417.64062Q571.84375 417.95312 571.7344 418.375Q571.625 418.79688 571.625 419.26562ZM578.90625 417.51562L578.90625 422.5L577.8281 422.5L577.8281 416.15625L578.8594 416.15625L578.90625 417.51562ZM578.65625 419.09375L578.2031 419.07812Q578.2031 418.42188 578.3906 417.875Q578.5781 417.3125 578.9219 416.90625Q579.2656 416.5 579.7344 416.28125Q580.2031 416.04688 580.78125 416.04688Q581.25 416.04688 581.625 416.17188Q582.0 416.29688 582.2656 416.57812Q582.53125 416.84375 582.6719 417.28125Q582.8125 417.71875 582.8125 418.34375L582.8125 422.5L581.71875 422.5L581.71875 418.32812Q581.71875 417.82812 581.5781 417.53125Q581.4375 417.23438 581.15625 417.09375Q580.875 416.95312 580.4531 416.95312Q580.0469 416.95312 579.71875 417.125Q579.3906 417.29688 579.15625 417.59375Q578.9219 417.89062 578.78125 418.28125Q578.65625 418.65625 578.65625 419.09375ZM587.4531 422.625Q586.7969 422.625 586.25 422.40625Q585.71875 422.17188 585.3281 421.76562Q584.9531 421.34375 584.75 420.78125Q584.5469 420.21875 584.5469 419.54688L584.5469 419.3125Q584.5469 418.53125 584.7656 417.92188Q585.0 417.3125 585.3906 416.89062Q585.78125 416.46875 586.28125 416.26562Q586.78125 416.04688 587.3125 416.04688Q588.0 416.04688 588.4844 416.28125Q588.9844 416.51562 589.2969 416.9375Q589.625 417.34375 589.7656 417.92188Q589.9219 418.48438 589.9219 419.14062L589.9219 419.64062L585.1875 419.64062L585.1875 418.75L588.84375 418.75L588.84375 418.67188Q588.8125 418.25 588.65625 417.85938Q588.5156 417.45312 588.1875 417.20312Q587.875 416.9375 587.3125 416.9375Q586.9531 416.9375 586.6406 417.09375Q586.3281 417.25 586.09375 417.5625Q585.875 417.85938 585.75 418.29688Q585.6406 418.73438 585.6406 419.3125L585.6406 419.54688Q585.6406 420.0 585.7656 420.40625Q585.8906 420.79688 586.125 421.09375Q586.375 421.39062 586.71875 421.5625Q587.0781 421.73438 587.5156 421.73438Q588.09375 421.73438 588.4844 421.5Q588.8906 421.26562 589.1875 420.875L589.84375 421.39062Q589.6406 421.70312 589.3125 421.98438Q589.0 422.26562 588.53125 422.45312Q588.0781 422.625 587.4531 422.625ZM591.90625 417.51562L591.90625 422.5L590.8281 422.5L590.8281 416.15625L591.8594 416.15625L591.90625 417.51562ZM591.65625 419.09375L591.2031 419.07812Q591.2031 418.42188 591.3906 417.875Q591.5781 417.3125 591.9219 416.90625Q592.2656 416.5 592.7344 416.28125Q593.2031 416.04688 593.78125 416.04688Q594.25 416.04688 594.625 416.17188Q595.0 416.29688 595.2656 416.57812Q595.53125 416.84375 595.6719 417.28125Q595.8125 417.71875 595.8125 418.34375L595.8125 422.5L594.71875 422.5L594.71875 418.32812Q594.71875 417.82812 594.5781 417.53125Q594.4375 417.23438 594.15625 417.09375Q593.875 416.95312 593.4531 416.95312Q593.0469 416.95312 592.71875 417.125Q592.3906 417.29688 592.15625 417.59375Q591.9219 417.89062 591.78125 418.28125Q591.65625 418.65625 591.65625 419.09375Z" fill-rule="nonzero"/><path stroke="#cccccc" stroke-width="1.0" stroke-linecap="butt" d="M372.0 305.0L372.0 507.0" fill-rule="nonzero"/><path fill="#000000" d="M353.5625 531.6406L353.5625 532.5625L348.95312 532.5625L348.95312 531.6406L353.5625 531.6406ZM349.125 527.96875L349.125 536.5L347.98438 536.5L347.98438 527.96875L349.125 527.96875ZM354.54688 527.96875L354.54688 536.5L353.42188 536.5L353.42188 527.96875L354.54688 527.96875ZM360.70312 535.03125L360.70312 530.15625L361.79688 530.15625L361.79688 536.5L360.76562 536.5L360.70312 535.03125ZM360.90625 533.7031L361.35938 533.6875Q361.35938 534.3125 361.21875 534.8594Q361.09375 535.3906 360.79688 535.78125Q360.51562 536.1719 360.03125 536.40625Q359.5625 536.625 358.89062 536.625Q358.42188 536.625 358.03125 536.4844Q357.65625 536.34375 357.375 536.0625Q357.10938 535.78125 356.95312 535.3281Q356.79688 534.875 356.79688 534.25L356.79688 530.15625L357.89062 530.15625L357.89062 534.2656Q357.89062 534.6875 357.98438 534.96875Q358.07812 535.25 358.25 535.40625Q358.42188 535.5625 358.625 535.6406Q358.82812 535.7031 359.04688 535.7031Q359.75 535.7031 360.14062 535.4375Q360.54688 535.15625 360.71875 534.7031Q360.90625 534.25 360.90625 533.7031ZM364.90625 531.4219L364.90625 536.5L363.8125 536.5L363.8125 530.15625L364.84375 530.15625L364.90625 531.4219ZM364.6875 533.09375L364.17188 533.0781Q364.1875 532.4219 364.34375 531.875Q364.51562 531.3125 364.82812 530.90625Q365.15625 530.5 365.64062 530.28125Q366.125 530.0469 366.75 530.0469Q367.20312 530.0469 367.57812 530.1719Q367.95312 530.2969 368.21875 530.5625Q368.5 530.8281 368.64062 531.25Q368.79688 531.6719 368.79688 532.28125L368.79688 536.5L367.71875 536.5L367.71875 532.3281Q367.71875 531.8281 367.54688 531.53125Q367.39062 531.2344 367.07812 531.09375Q366.78125 530.9531 366.35938 530.9531Q365.89062 530.9531 365.5625 531.125Q365.23438 531.2969 365.04688 531.59375Q364.85938 531.8906 364.76562 532.28125Q364.6875 532.65625 364.6875 533.09375ZM368.79688 532.4844L368.0625 532.71875Q368.0625 532.1875 368.23438 531.71875Q368.40625 531.2344 368.71875 530.8594Q369.04688 530.4844 369.51562 530.2656Q369.98438 530.0469 370.57812 530.0469Q371.09375 530.0469 371.48438 530.1875Q371.89062 530.3125 372.15625 530.59375Q372.42188 530.875 372.5625 531.3125Q372.70312 531.7344 372.70312 532.3281L372.70312 536.5L371.625 536.5L371.625 532.3281Q371.625 531.78125 371.45312 531.5Q371.28125 531.2031 370.98438 531.0781Q370.6875 530.9531 370.26562 530.9531Q369.90625 530.9531 369.625 531.0781Q369.35938 531.2031 369.17188 531.4219Q368.98438 531.625 368.89062 531.90625Q368.79688 532.1875 368.79688 532.4844ZM378.70312 535.03125L378.70312 530.15625L379.79688 530.15625L379.79688 536.5L378.76562 536.5L378.70312 535.03125ZM378.90625 533.7031L379.35938 533.6875Q379.35938 534.3125 379.21875 534.8594Q379.09375 535.3906 378.79688 535.78125Q378.51562 536.1719 378.03125 536.40625Q377.5625 536.625 376.89062 536.625Q376.42188 536.625 376.03125 536.4844Q375.65625 536.34375 375.375 536.0625Q375.10938 535.78125 374.95312 535.3281Q374.79688 534.875 374.79688 534.25L374.79688 530.15625L375.89062 530.15625L375.89062 534.2656Q375.89062 534.6875 375.98438 534.96875Q376.07812 535.25 376.25 535.40625Q376.42188 535.5625 376.625 535.6406Q376.82812 535.7031 377.04688 535.7031Q377.75 535.7031 378.14062 535.4375Q378.54688 535.15625 378.71875 534.7031Q378.90625 534.25 378.90625 533.7031ZM383.0 527.5L383.0 536.5L381.92188 536.5L381.92188 527.5L383.0 527.5ZM387.45312 536.625Q386.79688 536.625 386.25 536.40625Q385.71875 536.1719 385.32812 535.7656Q384.95312 535.34375 384.75 534.78125Q384.54688 534.21875 384.54688 533.5469L384.54688 533.3125Q384.54688 532.53125 384.76562 531.9219Q385.0 531.3125 385.39062 530.8906Q385.78125 530.46875 386.28125 530.2656Q386.78125 530.0469 387.3125 530.0469Q388.0 530.0469 388.48438 530.28125Q388.98438 530.5156 389.29688 530.9375Q389.625 531.34375 389.76562 531.9219Q389.92188 532.4844 389.92188 533.1406L389.92188 533.6406L385.1875 533.6406L385.1875 532.75L388.84375 532.75L388.84375 532.6719Q388.8125 532.25 388.65625 531.8594Q388.51562 531.4531 388.1875 531.2031Q387.875 530.9375 387.3125 530.9375Q386.95312 530.9375 386.64062 531.09375Q386.32812 531.25 386.09375 531.5625Q385.875 531.8594 385.75 532.2969Q385.64062 532.7344 385.64062 533.3125L385.64062 533.5469Q385.64062 534.0 385.76562 534.40625Q385.89062 534.7969 386.125 535.09375Q386.375 535.3906 386.71875 535.5625Q387.07812 535.7344 387.51562 535.7344Q388.09375 535.7344 388.48438 535.5Q388.89062 535.2656 389.1875 534.875L389.84375 535.3906Q389.64062 535.7031 389.3125 535.9844Q389.0 536.2656 388.53125 536.4531Q388.07812 536.625 387.45312 536.625ZM391.90625 531.5156L391.90625 536.5L390.82812 536.5L390.82812 530.15625L391.85938 530.15625L391.90625 531.5156ZM391.65625 533.09375L391.20312 533.0781Q391.20312 532.4219 391.39062 531.875Q391.57812 531.3125 391.92188 530.90625Q392.26562 530.5 392.73438 530.28125Q393.20312 530.0469 393.78125 530.0469Q394.25 530.0469 394.625 530.1719Q395.0 530.2969 395.26562 530.5781Q395.53125 530.84375 395.67188 531.28125Q395.8125 531.71875 395.8125 532.34375L395.8125 536.5L394.71875 536.5L394.71875 532.3281Q394.71875 531.8281 394.57812 531.53125Q394.4375 531.2344 394.15625 531.09375Q393.875 530.9531 393.45312 530.9531Q393.04688 530.9531 392.71875 531.125Q392.39062 531.2969 392.15625 531.59375Q391.92188 531.8906 391.78125 532.28125Q391.65625 532.65625 391.65625 533.09375Z" fill-rule="nonzero"/><path stroke="#cccccc" stroke-width="1.0" stroke-linecap="butt" d="M372.0 305.0L197.0 406.0" fill-rule="nonzero"/><path fill="#000000" d="M160.67188 421.57812L160.67188 422.5L156.40625 422.5L156.40625 421.57812L160.67188 421.57812ZM156.625 413.96875L156.625 422.5L155.48438 422.5L155.48438 413.96875L156.625 413.96875ZM162.5 416.15625L162.5 422.5L161.42188 422.5L161.42188 416.15625L162.5 416.15625ZM161.32812 414.48438Q161.32812 414.21875 161.48438 414.03125Q161.65625 413.84375 161.96875 413.84375Q162.28125 413.84375 162.4375 414.03125Q162.60938 414.21875 162.60938 414.48438Q162.60938 414.73438 162.4375 414.92188Q162.28125 415.09375 161.96875 415.09375Q161.65625 415.09375 161.48438 414.92188Q161.32812 414.73438 161.32812 414.48438ZM165.40625 417.51562L165.40625 422.5L164.32812 422.5L164.32812 416.15625L165.35938 416.15625L165.40625 417.51562ZM165.15625 419.09375L164.70312 419.07812Q164.70312 418.42188 164.89062 417.875Q165.07812 417.3125 165.42188 416.90625Q165.76562 416.5 166.23438 416.28125Q166.70312 416.04688 167.28125 416.04688Q167.75 416.04688 168.125 416.17188Q168.5 416.29688 168.76562 416.57812Q169.03125 416.84375 169.17188 417.28125Q169.3125 417.71875 169.3125 418.34375L169.3125 422.5L168.21875 422.5L168.21875 418.32812Q168.21875 417.82812 168.07812 417.53125Q167.9375 417.23438 167.65625 417.09375Q167.375 416.95312 166.95312 416.95312Q166.54688 416.95312 166.21875 417.125Q165.89062 417.29688 165.65625 417.59375Q165.42188 417.89062 165.28125 418.28125Q165.15625 418.65625 165.15625 419.09375ZM175.0625 421.42188L175.0625 418.15625Q175.0625 417.78125 174.90625 417.5Q174.76562 417.21875 174.46875 417.07812Q174.17188 416.92188 173.73438 416.92188Q173.3125 416.92188 173.0 417.0625Q172.70312 417.20312 172.53125 417.4375Q172.35938 417.65625 172.35938 417.92188L171.28125 417.92188Q171.28125 417.57812 171.45312 417.25Q171.625 416.90625 171.95312 416.64062Q172.28125 416.35938 172.75 416.20312Q173.21875 416.04688 173.79688 416.04688Q174.48438 416.04688 175.01562 416.28125Q175.54688 416.51562 175.84375 416.98438Q176.15625 417.45312 176.15625 418.15625L176.15625 421.10938Q176.15625 421.4375 176.20312 421.79688Q176.26562 422.14062 176.375 422.40625L176.375 422.5L175.23438 422.5Q175.15625 422.3125 175.10938 422.0Q175.0625 421.6875 175.0625 421.42188ZM175.25 418.65625L175.26562 419.42188L174.17188 419.42188Q173.70312 419.42188 173.34375 419.5Q172.98438 419.5625 172.73438 419.71875Q172.48438 419.85938 172.35938 420.07812Q172.23438 420.29688 172.23438 420.59375Q172.23438 420.89062 172.35938 421.14062Q172.5 421.375 172.76562 421.53125Q173.04688 421.67188 173.4375 421.67188Q173.9375 421.67188 174.3125 421.46875Q174.70312 421.25 174.92188 420.95312Q175.15625 420.64062 175.17188 420.34375L175.64062 420.875Q175.59375 421.10938 175.40625 421.42188Q175.23438 421.71875 174.92188 422.0Q174.625 422.26562 174.20312 422.45312Q173.79688 422.625 173.28125 422.625Q172.64062 422.625 172.15625 422.375Q171.67188 422.10938 171.40625 421.6875Q171.14062 421.26562 171.14062 420.73438Q171.14062 420.21875 171.32812 419.84375Q171.53125 419.45312 171.90625 419.1875Q172.28125 418.92188 172.8125 418.79688Q173.34375 418.65625 174.0 418.65625L175.25 418.65625ZM179.5 413.5L179.5 422.5L178.42188 422.5L178.42188 413.5L179.5 413.5ZM181.04688 419.40625L181.04688 419.26562Q181.04688 418.57812 181.23438 418.0Q181.4375 417.40625 181.8125 416.96875Q182.1875 416.53125 182.71875 416.29688Q183.25 416.04688 183.92188 416.04688Q184.57812 416.04688 185.10938 416.29688Q185.65625 416.53125 186.03125 416.96875Q186.40625 417.40625 186.60938 418.0Q186.8125 418.57812 186.8125 419.26562L186.8125 419.40625Q186.8125 420.07812 186.60938 420.67188Q186.40625 421.25 186.03125 421.6875Q185.65625 422.125 185.125 422.375Q184.59375 422.625 183.92188 422.625Q183.26562 422.625 182.71875 422.375Q182.1875 422.125 181.8125 421.6875Q181.4375 421.25 181.23438 420.67188Q181.04688 420.07812 181.04688 419.40625ZM182.125 419.26562L182.125 419.40625Q182.125 419.875 182.23438 420.29688Q182.34375 420.71875 182.5625 421.04688Q182.79688 421.35938 183.14062 421.54688Q183.48438 421.71875 183.92188 421.71875Q184.375 421.71875 184.70312 421.54688Q185.04688 421.35938 185.26562 421.04688Q185.5 420.71875 185.60938 420.29688Q185.71875 419.875 185.71875 419.40625L185.71875 419.26562Q185.71875 418.79688 185.60938 418.375Q185.5 417.95312 185.26562 417.64062Q185.04688 417.3125 184.70312 417.125Q184.375 416.9375 183.92188 416.9375Q183.46875 416.9375 183.125 417.125Q182.79688 417.3125 182.5625 417.64062Q182.34375 417.95312 182.23438 418.375Q182.125 418.79688 182.125 419.26562ZM188.04688 419.40625L188.04688 419.26562Q188.04688 418.57812 188.23438 418.0Q188.4375 417.40625 188.8125 416.96875Q189.1875 416.53125 189.71875 416.29688Q190.25 416.04688 190.92188 416.04688Q191.57812 416.04688 192.10938 416.29688Q192.65625 416.53125 193.03125 416.96875Q193.40625 417.40625 193.60938 418.0Q193.8125 418.57812 193.8125 419.26562L193.8125 419.40625Q193.8125 420.07812 193.60938 420.67188Q193.40625 421.25 193.03125 421.6875Q192.65625 422.125 192.125 422.375Q191.59375 422.625 190.92188 422.625Q190.26562 422.625 189.71875 422.375Q189.1875 422.125 188.8125 421.6875Q188.4375 421.25 188.23438 420.67188Q188.04688 420.07812 188.04688 419.40625ZM189.125 419.26562L189.125 419.40625Q189.125 419.875 189.23438 420.29688Q189.34375 420.71875 189.5625 421.04688Q189.79688 421.35938 190.14062 421.54688Q190.48438 421.71875 190.92188 421.71875Q191.375 421.71875 191.70312 421.54688Q192.04688 421.35938 192.26562 421.04688Q192.5 420.71875 192.60938 420.29688Q192.71875 419.875 192.71875 419.40625L192.71875 419.26562Q192.71875 418.79688 192.60938 418.375Q192.5 417.95312 192.26562 417.64062Q192.04688 417.3125 191.70312 417.125Q191.375 416.9375 190.92188 416.9375Q190.46875 416.9375 190.125 417.125Q189.79688 417.3125 189.5625 417.64062Q189.34375 417.95312 189.23438 418.375Q189.125 418.79688 189.125 419.26562ZM196.5 413.5L196.5 422.5L195.42188 422.5L195.42188 413.5L196.5 413.5Z" fill-rule="nonzero"/><path stroke="#cccccc" stroke-width="1.0" stroke-linecap="butt" d="M372.0 305.0L197.0 204.0" fill-rule="nonzero"/><path fill="#000000" d="M158.03125 194.34375Q158.03125 194.04688 157.9375 193.8125Q157.85938 193.57812 157.625 193.39062Q157.40625 193.20312 157.0 193.03125Q156.60938 192.85938 156.01562 192.6875Q155.375 192.5 154.85938 192.28125Q154.35938 192.04688 153.98438 191.75Q153.625 191.4375 153.4375 191.0625Q153.25 190.67188 153.25 190.17188Q153.25 189.67188 153.45312 189.25Q153.65625 188.82812 154.03125 188.51562Q154.42188 188.20312 154.95312 188.03125Q155.48438 187.84375 156.14062 187.84375Q157.10938 187.84375 157.78125 188.21875Q158.45312 188.57812 158.79688 189.17188Q159.15625 189.76562 159.15625 190.42188L158.03125 190.42188Q158.03125 189.95312 157.8125 189.57812Q157.60938 189.20312 157.1875 189.0Q156.78125 188.78125 156.14062 188.78125Q155.54688 188.78125 155.14062 188.96875Q154.75 189.14062 154.5625 189.45312Q154.375 189.76562 154.375 190.15625Q154.375 190.42188 154.48438 190.65625Q154.60938 190.875 154.84375 191.0625Q155.09375 191.25 155.46875 191.40625Q155.84375 191.5625 156.375 191.70312Q157.09375 191.90625 157.625 192.17188Q158.15625 192.42188 158.5 192.73438Q158.84375 193.04688 159.0 193.4375Q159.17188 193.82812 159.17188 194.32812Q159.17188 194.85938 158.95312 195.28125Q158.75 195.70312 158.35938 196.0Q157.96875 196.29688 157.42188 196.46875Q156.875 196.625 156.20312 196.625Q155.60938 196.625 155.03125 196.45312Q154.46875 196.28125 154.0 195.95312Q153.53125 195.625 153.25 195.15625Q152.96875 194.67188 152.96875 194.03125L154.09375 194.03125Q154.09375 194.46875 154.26562 194.78125Q154.4375 195.09375 154.73438 195.29688Q155.03125 195.5 155.40625 195.60938Q155.78125 195.70312 156.20312 195.70312Q156.79688 195.70312 157.20312 195.54688Q157.60938 195.375 157.8125 195.07812Q158.03125 194.76562 158.03125 194.34375ZM160.04688 193.40625L160.04688 193.26562Q160.04688 192.57812 160.23438 192.0Q160.4375 191.40625 160.8125 190.96875Q161.1875 190.53125 161.71875 190.29688Q162.25 190.04688 162.92188 190.04688Q163.57812 190.04688 164.10938 190.29688Q164.65625 190.53125 165.03125 190.96875Q165.40625 191.40625 165.60938 192.0Q165.8125 192.57812 165.8125 193.26562L165.8125 193.40625Q165.8125 194.07812 165.60938 194.67188Q165.40625 195.25 165.03125 195.6875Q164.65625 196.125 164.125 196.375Q163.59375 196.625 162.92188 196.625Q162.26562 196.625 161.71875 196.375Q161.1875 196.125 160.8125 195.6875Q160.4375 195.25 160.23438 194.67188Q160.04688 194.07812 160.04688 193.40625ZM161.125 193.26562L161.125 193.40625Q161.125 193.875 161.23438 194.29688Q161.34375 194.71875 161.5625 195.04688Q161.79688 195.35938 162.14062 195.54688Q162.48438 195.71875 162.92188 195.71875Q163.375 195.71875 163.70312 195.54688Q164.04688 195.35938 164.26562 195.04688Q164.5 194.71875 164.60938 194.29688Q164.71875 193.875 164.71875 193.40625L164.71875 193.26562Q164.71875 192.79688 164.60938 192.375Q164.5 191.95312 164.26562 191.64062Q164.04688 191.3125 163.70312 191.125Q163.375 190.9375 162.92188 190.9375Q162.46875 190.9375 162.125 191.125Q161.79688 191.3125 161.5625 191.64062Q161.34375 191.95312 161.23438 192.375Q161.125 192.79688 161.125 193.26562ZM168.40625 191.51562L168.40625 196.5L167.32812 196.5L167.32812 190.15625L168.35938 190.15625L168.40625 191.51562ZM168.15625 193.09375L167.70312 193.07812Q167.70312 192.42188 167.89062 191.875Q168.07812 191.3125 168.42188 190.90625Q168.76562 190.5 169.23438 190.28125Q169.70312 190.04688 170.28125 190.04688Q170.75 190.04688 171.125 190.17188Q171.5 190.29688 171.76562 190.57812Q172.03125 190.84375 172.17188 191.28125Q172.3125 191.71875 172.3125 192.34375L172.3125 196.5L171.21875 196.5L171.21875 192.32812Q171.21875 191.82812 171.07812 191.53125Q170.9375 191.23438 170.65625 191.09375Q170.375 190.95312 169.95312 190.95312Q169.54688 190.95312 169.21875 191.125Q168.89062 191.29688 168.65625 191.59375Q168.42188 191.89062 168.28125 192.28125Q168.15625 192.65625 168.15625 193.09375ZM178.01562 194.8125Q178.01562 194.57812 177.90625 194.375Q177.8125 194.17188 177.5 194.01562Q177.1875 193.84375 176.5625 193.71875Q176.03125 193.60938 175.60938 193.46875Q175.1875 193.3125 174.89062 193.09375Q174.59375 192.875 174.4375 192.57812Q174.28125 192.28125 174.28125 191.89062Q174.28125 191.51562 174.4375 191.1875Q174.60938 190.84375 174.90625 190.59375Q175.21875 190.32812 175.65625 190.1875Q176.09375 190.04688 176.625 190.04688Q177.39062 190.04688 177.92188 190.3125Q178.46875 190.57812 178.75 191.03125Q179.03125 191.48438 179.03125 192.01562L177.95312 192.01562Q177.95312 191.76562 177.79688 191.51562Q177.64062 191.26562 177.34375 191.10938Q177.04688 190.9375 176.625 190.9375Q176.17188 190.9375 175.89062 191.07812Q175.60938 191.20312 175.48438 191.42188Q175.35938 191.625 175.35938 191.85938Q175.35938 192.04688 175.42188 192.1875Q175.48438 192.3125 175.64062 192.4375Q175.79688 192.54688 176.07812 192.65625Q176.375 192.75 176.82812 192.84375Q177.60938 193.01562 178.10938 193.26562Q178.60938 193.51562 178.85938 193.875Q179.10938 194.21875 179.10938 194.73438Q179.10938 195.15625 178.92188 195.5Q178.75 195.84375 178.42188 196.09375Q178.10938 196.34375 177.65625 196.48438Q177.20312 196.625 176.65625 196.625Q175.8125 196.625 175.23438 196.32812Q174.65625 196.01562 174.35938 195.54688Q174.0625 195.0625 174.0625 194.54688L175.14062 194.54688Q175.17188 194.98438 175.40625 195.25Q175.64062 195.51562 175.96875 195.625Q176.3125 195.71875 176.65625 195.71875Q177.09375 195.71875 177.39062 195.60938Q177.70312 195.48438 177.85938 195.28125Q178.01562 195.07812 178.01562 194.8125ZM182.98438 190.15625L182.98438 190.98438L179.54688 190.98438L179.54688 190.15625L182.98438 190.15625ZM180.71875 188.625L181.79688 188.625L181.79688 194.92188Q181.79688 195.25 181.89062 195.42188Q182.0 195.57812 182.15625 195.64062Q182.3125 195.6875 182.5 195.6875Q182.625 195.6875 182.76562 195.65625Q182.92188 195.625 183.0 195.60938L183.01562 196.5Q182.875 196.54688 182.67188 196.57812Q182.46875 196.625 182.17188 196.625Q181.78125 196.625 181.4375 196.46875Q181.10938 196.29688 180.90625 195.9375Q180.71875 195.5625 180.71875 194.92188L180.71875 188.625ZM185.5 190.15625L185.5 196.5L184.42188 196.5L184.42188 190.15625L185.5 190.15625ZM184.32812 188.48438Q184.32812 188.21875 184.48438 188.03125Q184.65625 187.84375 184.96875 187.84375Q185.28125 187.84375 185.4375 188.03125Q185.60938 188.21875 185.60938 188.48438Q185.60938 188.73438 185.4375 188.92188Q185.28125 189.09375 184.96875 189.09375Q184.65625 189.09375 184.48438 188.92188Q184.32812 188.73438 184.32812 188.48438ZM191.4375 190.15625L192.42188 190.15625L192.42188 196.35938Q192.42188 197.20312 192.07812 197.79688Q191.73438 198.39062 191.125 198.6875Q190.53125 199.0 189.73438 199.0Q189.40625 199.0 188.95312 198.89062Q188.51562 198.79688 188.09375 198.54688Q187.67188 198.3125 187.39062 197.90625L187.95312 197.25Q188.35938 197.73438 188.78125 197.92188Q189.21875 198.10938 189.65625 198.10938Q190.17188 198.10938 190.54688 197.90625Q190.92188 197.71875 191.125 197.34375Q191.32812 196.96875 191.32812 196.42188L191.32812 191.54688L191.4375 190.15625ZM187.0625 193.40625L187.0625 193.28125Q187.0625 192.54688 187.23438 191.95312Q187.42188 191.35938 187.73438 190.9375Q188.0625 190.5 188.51562 190.28125Q188.98438 190.04688 189.57812 190.04688Q190.17188 190.04688 190.60938 190.25Q191.0625 190.45312 191.375 190.85938Q191.6875 191.25 191.875 191.8125Q192.0625 192.35938 192.125 193.0625L192.125 193.60938Q192.0625 194.29688 191.875 194.85938Q191.6875 195.42188 191.375 195.8125Q191.0625 196.20312 190.60938 196.42188Q190.15625 196.625 189.5625 196.625Q188.98438 196.625 188.53125 196.39062Q188.07812 196.14062 187.75 195.70312Q187.42188 195.26562 187.23438 194.6875Q187.0625 194.09375 187.0625 193.40625ZM188.15625 193.28125L188.15625 193.40625Q188.15625 193.875 188.25 194.29688Q188.34375 194.70312 188.54688 195.03125Q188.75 195.34375 189.0625 195.53125Q189.39062 195.70312 189.82812 195.70312Q190.35938 195.70312 190.70312 195.46875Q191.0625 195.23438 191.26562 194.85938Q191.48438 194.48438 191.59375 194.04688L191.59375 192.64062Q191.53125 192.3125 191.39062 192.01562Q191.26562 191.71875 191.0625 191.48438Q190.85938 191.23438 190.54688 191.09375Q190.25 190.95312 189.82812 190.95312Q189.39062 190.95312 189.0625 191.14062Q188.75 191.32812 188.54688 191.65625Q188.34375 191.96875 188.25 192.39062Q188.15625 192.79688 188.15625 193.28125ZM196.95312 196.625Q196.29688 196.625 195.75 196.40625Q195.21875 196.17188 194.82812 195.76562Q194.45312 195.34375 194.25 194.78125Q194.04688 194.21875 194.04688 193.54688L194.04688 193.3125Q194.04688 192.53125 194.26562 191.92188Q194.5 191.3125 194.89062 190.89062Q195.28125 190.46875 195.78125 190.26562Q196.28125 190.04688 196.8125 190.04688Q197.5 190.04688 197.98438 190.28125Q198.48438 190.51562 198.79688 190.9375Q199.125 191.34375 199.26562 191.92188Q199.42188 192.48438 199.42188 193.14062L199.42188 193.64062L194.6875 193.64062L194.6875 192.75L198.34375 192.75L198.34375 192.67188Q198.3125 192.25 198.15625 191.85938Q198.01562 191.45312 197.6875 191.20312Q197.375 190.9375 196.8125 190.9375Q196.45312 190.9375 196.14062 191.09375Q195.82812 191.25 195.59375 191.5625Q195.375 191.85938 195.25 192.29688Q195.14062 192.73438 195.14062 193.3125L195.14062 193.54688Q195.14062 194.0 195.26562 194.40625Q195.39062 194.79688 195.625 195.09375Q195.875 195.39062 196.21875 195.5625Q196.57812 195.73438 197.01562 195.73438Q197.59375 195.73438 197.98438 195.5Q198.39062 195.26562 198.6875 194.875L199.34375 195.39062Q199.14062 195.70312 198.8125 195.98438Q198.5 196.26562 198.03125 196.45312Q197.57812 196.625 196.95312 196.625Z" fill-rule="nonzero"/><path stroke="#cccccc" stroke-width="1.0" stroke-linecap="butt" d="M372.0 305.0L372.0 103.0" fill-rule="nonzero"/><path stroke="#ff0000" stroke-width="2.0" stroke-linecap="butt" stroke-opacity="0.7019608" stroke-dasharray="8.0,6.0,2.0,6.0" d="M372.0 110.0L500.0 231.0L471.0 362.0L372.0 352.0L337.0 325.0L261.0 241.0Z" fill-rule="nonzero"/><path fill="#ff0000" fill-opacity="0.7019608" d="M368.81802 106.818016L372.0 108.875L375.18198 106.818016L373.125 110.0L375.18198 113.181984L372.0 111.125L368.81802 113.181984L370.875 110.0Z" fill-rule="nonzero"/><path fill="#ff0000" fill-opacity="0.7019608" d="M496.81802 227.81802L500.0 229.875L503.18198 227.81802L501.125 231.0L503.18198 234.18198L500.0 232.125L496.81802 234.18198L498.875 231.0Z" fill-rule="nonzero"/><path fill="#ff0000" fill-opacity="0.7019608" d="M467.81802 358.81802L471.0 360.875L474.18198 358.81802L472.125 362.0L474.18198 365.18198L471.0 363.125L467.81802 365.18198L469.875 362.0Z" fill-rule="nonzero"/><path fill="#ff0000" fill-opacity="0.7019608" d="M368.81802 348.81802L372.0 350.875L375.18198 348.81802L373.125 352.0L375.18198 355.18198L372.0 353.125L368.81802 355.18198L370.875 352.0Z" fill-rule="nonzero"/><path fill="#ff0000" fill-opacity="0.7019608" d="M333.81802 321.81802L337.0 323.875L340.18198 321.81802L338.125 325.0L340.18198 328.18198L337.0 326.125L333.81802 328.18198L335.875 325.0Z" fill-rule="nonzero"/><path fill="#ff0000" fill-opacity="0.7019608" d="M257.81802 237.81802L261.0 239.875L264.18198 237.81802L262.125 241.0L264.18198 244.18198L261.0 242.125L257.81802 244.18198L259.875 241.0Z" fill-rule="nonzero"/><path fill="#757575" d="M29.25625 42.75625L31.0375 42.6Q31.1625 43.6625 31.615625 44.35Q32.084373 45.0375 33.053123 45.475Q34.0375 45.896873 35.271873 45.896873Q36.35 45.896873 37.178123 45.584373Q38.00625 45.25625 38.4125 44.69375Q38.81875 44.13125 38.81875 43.459373Q38.81875 42.7875 38.428123 42.2875Q38.0375 41.7875 37.146873 41.44375Q36.56875 41.209373 34.584373 40.740623Q32.615623 40.271873 31.834375 39.85Q30.803125 39.31875 30.303125 38.521873Q29.803125 37.725 29.803125 36.740623Q29.803125 35.646873 30.4125 34.709373Q31.021875 33.771873 32.209373 33.2875Q33.396873 32.7875 34.834373 32.7875Q36.428123 32.7875 37.646873 33.303123Q38.865623 33.81875 39.50625 34.81875Q40.1625 35.803123 40.209373 37.06875L38.396873 37.209373Q38.25625 35.85 37.4125 35.1625Q36.56875 34.459373 34.9125 34.459373Q33.19375 34.459373 32.396873 35.1Q31.615625 35.725 31.615625 36.6Q31.615625 37.38125 32.178123 37.88125Q32.725 38.38125 35.0375 38.896873Q37.35 39.4125 38.209373 39.803123Q39.459373 40.38125 40.053123 41.271873Q40.646873 42.146873 40.646873 43.303123Q40.646873 44.44375 39.990623 45.459373Q39.334373 46.475 38.1 47.0375Q36.88125 47.6 35.35 47.6Q33.4125 47.6 32.1 47.0375Q30.7875 46.459373 30.0375 45.31875Q29.2875 44.178123 29.25625 42.75625ZM42.6625 51.31875L42.6625 36.975L44.271873 36.975L44.271873 38.31875Q44.834373 37.5375 45.5375 37.146873Q46.25625 36.740623 47.271873 36.740623Q48.6 36.740623 49.615623 37.428123Q50.63125 38.115623 51.146873 39.365623Q51.678123 40.6 51.678123 42.084373Q51.678123 43.678123 51.1 44.959373Q50.5375 46.225 49.44375 46.9125Q48.35 47.584373 47.146873 47.584373Q46.271873 47.584373 45.56875 47.209373Q44.88125 46.834373 44.428123 46.271873L44.428123 51.31875L42.6625 51.31875ZM44.25625 42.225Q44.25625 44.225 45.06875 45.178123Q45.88125 46.13125 47.0375 46.13125Q48.209373 46.13125 49.0375 45.146873Q49.88125 44.1625 49.88125 42.06875Q49.88125 40.1 49.053123 39.115623Q48.240623 38.115623 47.115623 38.115623Q45.990623 38.115623 45.115623 39.178123Q44.25625 40.225 44.25625 42.225ZM53.678123 35.053123L53.678123 33.0375L55.44375 33.0375L55.44375 35.053123L53.678123 35.053123ZM53.678123 47.35L53.678123 36.975L55.44375 36.975L55.44375 47.35L53.678123 47.35ZM64.44375 43.553123L66.1625 43.771873Q65.88125 45.56875 64.70937 46.584373Q63.553123 47.584373 61.85 47.584373Q59.725 47.584373 58.428123 46.19375Q57.13125 44.803123 57.13125 42.209373Q57.13125 40.521873 57.678123 39.271873Q58.240623 38.00625 59.38125 37.38125Q60.521873 36.740623 61.865623 36.740623Q63.553123 36.740623 64.61562 37.6Q65.69375 38.459373 66.00625 40.021873L64.2875 40.2875Q64.05312 39.240623 63.428123 38.725Q62.803123 38.19375 61.928123 38.19375Q60.6 38.19375 59.771873 39.146873Q58.94375 40.1 58.94375 42.146873Q58.94375 44.240623 59.740623 45.19375Q60.5375 46.13125 61.834373 46.13125Q62.865623 46.13125 63.553123 45.50625Q64.25625 44.865623 64.44375 43.553123ZM74.77187 44.00625L76.58437 44.240623Q76.1625 45.81875 74.99062 46.709373Q73.83437 47.584373 72.02187 47.584373Q69.75625 47.584373 68.4125 46.19375Q67.08437 44.7875 67.08437 42.25625Q67.08437 39.63125 68.42812 38.19375Q69.77187 36.740623 71.92812 36.740623Q74.00625 36.740623 75.31875 38.1625Q76.64687 39.56875 76.64687 42.146873Q76.64687 42.303123 76.63125 42.615623L68.89687 42.615623Q68.99062 44.31875 69.86562 45.225Q70.74062 46.13125 72.0375 46.13125Q73.00625 46.13125 73.67812 45.63125Q74.36562 45.115623 74.77187 44.00625ZM68.99062 41.1625L74.7875 41.1625Q74.67812 39.865623 74.13125 39.209373Q73.2875 38.19375 71.94375 38.19375Q70.74062 38.19375 69.9125 39.00625Q69.08437 39.803123 68.99062 41.1625ZM85.39687 47.35L85.39687 46.0375Q84.4125 47.584373 82.49062 47.584373Q81.25625 47.584373 80.20937 46.896873Q79.17812 46.209373 78.6 44.990623Q78.0375 43.771873 78.0375 42.178123Q78.0375 40.615623 78.55312 39.35Q79.06875 38.084373 80.1 37.4125Q81.14687 36.740623 82.4125 36.740623Q83.35 36.740623 84.08437 37.146873Q84.81875 37.5375 85.2875 38.1625L85.2875 33.0375L87.02187 33.0375L87.02187 47.35L85.39687 47.35ZM79.83437 42.178123Q79.83437 44.1625 80.67812 45.146873Q81.52187 46.13125 82.6625 46.13125Q83.81875 46.13125 84.61562 45.19375Q85.42812 44.25625 85.42812 42.31875Q85.42812 40.19375 84.6 39.19375Q83.7875 38.19375 82.58437 38.19375Q81.4125 38.19375 80.61562 39.1625Q79.83437 40.115623 79.83437 42.178123ZM95.92812 47.35L95.92812 33.0375L106.2875 33.0375L106.2875 34.725L97.83437 34.725L97.83437 39.1L105.74062 39.1L105.74062 40.7875L97.83437 40.7875L97.83437 45.6625L106.61562 45.6625L106.61562 47.35L95.92812 47.35ZM115.44375 46.06875Q114.45937 46.896873 113.55312 47.240623Q112.64687 47.584373 111.61562 47.584373Q109.9125 47.584373 108.99062 46.75625Q108.06875 45.9125 108.06875 44.615623Q108.06875 43.85 108.4125 43.225Q108.77187 42.6 109.33437 42.225Q109.89687 41.834373 110.6 41.63125Q111.11562 41.50625 112.1625 41.365623Q114.2875 41.115623 115.2875 40.771873Q115.30312 40.4125 115.30312 40.303123Q115.30312 39.240623 114.80312 38.7875Q114.13125 38.19375 112.80312 38.19375Q111.55312 38.19375 110.95937 38.63125Q110.38125 39.06875 110.1 40.178123L108.38125 39.94375Q108.61562 38.834373 109.14687 38.1625Q109.67812 37.475 110.69375 37.115623Q111.70937 36.740623 113.05312 36.740623Q114.38125 36.740623 115.20937 37.053123Q116.0375 37.365623 116.42812 37.85Q116.81875 38.31875 116.975 39.0375Q117.06875 39.490623 117.06875 40.6625L117.06875 43.00625Q117.06875 45.459373 117.17812 46.115623Q117.2875 46.75625 117.63125 47.35L115.7875 47.35Q115.52187 46.803123 115.44375 46.06875ZM115.2875 42.146873Q114.33437 42.5375 112.4125 42.803123Q111.33437 42.959373 110.88125 43.1625Q110.44375 43.35 110.19375 43.725Q109.94375 44.1 109.94375 44.56875Q109.94375 45.271873 110.475 45.740623Q111.00625 46.209373 112.0375 46.209373Q113.05312 46.209373 113.83437 45.771873Q114.63125 45.31875 115.00625 44.553123Q115.2875 43.94375 115.2875 42.7875L115.2875 42.146873ZM119.64687 47.35L119.64687 36.975L121.225 36.975L121.225 38.553123Q121.83437 37.44375 122.35 37.1Q122.86562 36.740623 123.475 36.740623Q124.36562 36.740623 125.2875 37.303123L124.67812 38.94375Q124.0375 38.553123 123.39687 38.553123Q122.81875 38.553123 122.35 38.9125Q121.89687 39.25625 121.69375 39.865623Q121.4125 40.803123 121.4125 41.9125L121.4125 47.35L119.64687 47.35ZM130.50626 45.771873L130.75626 47.334373Q130.02188 47.490623 129.42813 47.490623Q128.475 47.490623 127.94375 47.19375Q127.42812 46.88125 127.20937 46.396873Q126.99062 45.896873 126.99062 44.31875L126.99062 38.35L125.70937 38.35L125.70937 36.975L126.99062 36.975L126.99062 34.4125L128.74063 33.35L128.74063 36.975L130.50626 36.975L130.50626 38.35L128.74063 38.35L128.74063 44.4125Q128.74063 45.1625 128.83438 45.38125Q128.92813 45.584373 129.13126 45.725Q129.35 45.85 129.74063 45.85Q130.02188 45.85 130.50626 45.771873ZM132.6625 47.35L132.6625 33.0375L134.42813 33.0375L134.42813 38.1625Q135.6625 36.740623 137.5375 36.740623Q138.67813 36.740623 139.52188 37.19375Q140.38126 37.646873 140.74063 38.459373Q141.11563 39.25625 141.11563 40.771873L141.11563 47.35L139.36563 47.35L139.36563 40.771873Q139.36563 39.459373 138.7875 38.865623Q138.20938 38.25625 137.17813 38.25625Q136.39688 38.25625 135.69376 38.6625Q135.00626 39.06875 134.70938 39.771873Q134.42813 40.459373 134.42813 41.678123L134.42813 47.35L132.6625 47.35ZM148.81876 47.35L148.81876 33.0375L150.70938 33.0375L150.70938 40.13125L157.81876 33.0375L160.38126 33.0375L154.38126 38.834373L160.64688 47.35L158.14688 47.35L153.05313 40.1L150.70938 42.38125L150.70938 47.35L148.81876 47.35ZM168.45938 47.35L168.45938 45.81875Q167.25626 47.584373 165.17813 47.584373Q164.25626 47.584373 163.45938 47.240623Q162.6625 46.88125 162.27188 46.35Q161.89688 45.81875 161.74063 45.0375Q161.63126 44.521873 161.63126 43.396873L161.63126 36.975L163.38126 36.975L163.38126 42.725Q163.38126 44.1 163.49063 44.584373Q163.6625 45.271873 164.19376 45.678123Q164.74063 46.06875 165.52188 46.06875Q166.31876 46.06875 167.00626 45.6625Q167.70938 45.25625 167.99063 44.56875Q168.2875 43.865623 168.2875 42.5375L168.2875 36.975L170.0375 36.975L170.0375 47.35L168.45938 47.35ZM170.95938 44.25625L172.70938 43.975Q172.85 45.021873 173.52188 45.584373Q174.19376 46.13125 175.39688 46.13125Q176.6 46.13125 177.17813 45.646873Q177.77188 45.146873 177.77188 44.490623Q177.77188 43.896873 177.25626 43.553123Q176.89688 43.31875 175.45938 42.959373Q173.52188 42.459373 172.77188 42.115623Q172.0375 41.75625 171.64688 41.13125Q171.25626 40.490623 171.25626 39.725Q171.25626 39.0375 171.56876 38.44375Q171.89688 37.85 172.44376 37.459373Q172.85 37.1625 173.55313 36.959373Q174.27188 36.740623 175.08438 36.740623Q176.30313 36.740623 177.225 37.1Q178.14688 37.44375 178.58438 38.053123Q179.02188 38.646873 179.19376 39.646873L177.475 39.88125Q177.35 39.084373 176.7875 38.646873Q176.225 38.19375 175.20938 38.19375Q173.99063 38.19375 173.475 38.6Q172.95938 38.990623 172.95938 39.521873Q172.95938 39.865623 173.17813 40.146873Q173.38126 40.428123 173.85 40.615623Q174.11563 40.709373 175.39688 41.053123Q177.27188 41.553123 178.00626 41.88125Q178.74063 42.19375 179.1625 42.803123Q179.58438 43.396873 179.58438 44.303123Q179.58438 45.178123 179.06876 45.959373Q178.55313 46.740623 177.58438 47.1625Q176.61563 47.584373 175.39688 47.584373Q173.38126 47.584373 172.31876 46.740623Q171.25626 45.896873 170.95938 44.25625ZM181.6625 47.35L181.6625 33.0375L183.42813 33.0375L183.42813 38.1625Q184.6625 36.740623 186.5375 36.740623Q187.67813 36.740623 188.52188 37.19375Q189.38126 37.646873 189.74063 38.459373Q190.11563 39.25625 190.11563 40.771873L190.11563 47.35L188.36563 47.35L188.36563 40.771873Q188.36563 39.459373 187.7875 38.865623Q187.20938 38.25625 186.17813 38.25625Q185.39688 38.25625 184.69376 38.6625Q184.00626 39.06875 183.70938 39.771873Q183.42813 40.459373 183.42813 41.678123L183.42813 47.35L181.6625 47.35Z" fill-rule="nonzero"/></svg>