<svg version="1.1" viewBox="0.0 0.0 744.0 567.0" fill="none" stroke="none" stroke-linecap="square" stroke-miterlimit="10" width="744" height="567" xmlns:xlink="http://www.w3.org/1999/xlink" xmlns="http://www.w3.org/2000/svg"><path fill="#ffffff" d="M0 0L744.0 0L744.0 567.0L0 567.0L0 0Z" fill-rule="nonzero"/><path fill="#ffffff" d="M28.35 71.25L715.64996 71.25L715.64996 538.65L28.35 538.65L28.35 71.25Z" fill-rule="nonzero"/><path stroke="#cccccc" stroke-width="1.0" stroke-linecap="butt" d="M372.0 305.0C372.0 305.0 372.0 305.0 372.0 305.0C372.0 305.0 372.0 305.0 372.0 305.0C372.0 305.0 372.0 305.0 372.0 305.0C372.0 305.0 372.0 305.0 372.0 305.0" fill-rule="nonzero"/><path fill="#000000" d="M360.0625 297.04688L360.0625 298.35938Q360.0625 299.40625 359.875 300.125Q359.6875 300.84375 359.32812 301.28125Q358.98438 301.71875 358.48438 301.92188Q358.0 302.125 357.375 302.125Q356.89062 302.125 356.46875 302.0Q356.04688 301.875 355.71875 301.60938Q355.39062 301.32812 355.15625 300.89062Q354.92188 300.45312 354.79688 299.82812Q354.67188 299.1875 354.67188 298.35938L354.67188 297.04688Q354.67188 296.0 354.85938 295.29688Q355.0625 294.59375 355.40625 294.15625Q355.76562 293.71875 356.25 293.53125Q356.75 293.34375 357.35938 293.34375Q357.85938 293.34375 358.28125 293.46875Q358.70312 293.59375 359.03125 293.85938Q359.35938 294.10938 359.57812 294.54688Q359.8125 294.96875 359.9375 295.59375Q360.0625 296.21875 360.0625 297.04688ZM358.96875 298.53125L358.96875 296.875Q358.96875 296.29688 358.90625 295.85938Q358.84375 295.42188 358.70312 295.10938Q358.57812 294.79688 358.375 294.60938Q358.1875 294.42188 357.9375 294.32812Q357.6875 294.23438 357.35938 294.23438Q356.98438 294.23438 356.67188 294.375Q356.375 294.51562 356.17188 294.82812Q355.96875 295.14062 355.85938 295.65625Q355.76562 296.15625 355.76562 296.875L355.76562 298.53125Q355.76562 299.10938 355.82812 299.54688Q355.90625 299.98438 356.03125 300.3125Q356.17188 300.625 356.35938 300.82812Q356.5625 301.03125 356.8125 301.125Q357.0625 301.21875 357.375 301.21875Q357.78125 301.21875 358.07812 301.07812Q358.375 300.92188 358.57812 300.59375Q358.78125 300.26562 358.875 299.76562Q358.96875 299.25 358.96875 298.53125ZM362.8125 300.70312L362.8125 301.57812Q362.8125 302.125 362.53125 302.71875Q362.26562 303.3125 361.78125 303.70312L361.17188 303.28125Q361.35938 303.01562 361.48438 302.75Q361.60938 302.48438 361.67188 302.20312Q361.75 301.92188 361.75 301.59375L361.75 300.70312L362.8125 300.70312ZM369.0625 297.04688L369.0625 298.35938Q369.0625 299.40625 368.875 300.125Q368.6875 300.84375 368.32812 301.28125Q367.98438 301.71875 367.48438 301.92188Q367.0 302.125 366.375 302.125Q365.89062 302.125 365.46875 302.0Q365.04688 301.875 364.71875 301.60938Q364.39062 301.32812 364.15625 300.89062Q363.92188 300.45312 363.79688 299.82812Q363.67188 299.1875 363.67188 298.35938L363.67188 297.04688Q363.67188 296.0 363.85938 295.29688Q364.0625 294.59375 364.40625 294.15625Q364.76562 293.71875 365.25 293.53125Q365.75 293.34375 366.35938 293.34375Q366.85938 293.34375 367.28125 293.46875Q367.70312 293.59375 368.03125 293.85938Q368.35938 294.10938 368.57812 294.54688Q368.8125 294.96875 368.9375 295.59375Q369.0625 296.21875 369.0625 297.04688ZM367.96875 298.53125L367.96875 296.875Q367.96875 296.29688 367.90625 295.85938Q367.84375 295.42188 367.70312 295.10938Q367.57812 294.79688 367.375 294.60938Q367.1875 294.42188 366.9375 294.32812Q366.6875 294.23438 366.35938 294.23438Q365.98438 294.23438 365.67188 294.375Q365.375 294.51562 365.17188 294.82812Q364.96875 295.14062 364.85938 295.65625Q364.76562 296.15625 364.76562 296.875L364.76562 298.53125Q364.76562 299.10938 364.82812 299.54688Q364.90625 299.98438 365.03125 300.3125Q365.17188 300.625 365.35938 300.82812Q365.5625 301.03125 365.8125 301.125Q366.0625 301.21875 366.375 301.21875Q366.78125 301.21875 367.07812 301.07812Q367.375 300.92188 367.57812 300.59375Q367.78125 300.26562 367.875 299.76562Q367.96875 299.25 367.96875 298.53125Z" fill-rule="nonzero"/><path stroke="#cccccc" stroke-width="1.0" stroke-linecap="butt" d="M422.425 305.0C422.425 277.15103 399.84897 254.575 372.0 254.575C344.15103 254.575 321.575 277.15103 321.575 305.0C321.575 332.84897 344.15103 355.425 372.0 355.425C399.84897 355.425 422.425 332.84897 422.425 305.0" fill-rule="nonzero"/><path fill="#000000" d="M360.0625 246.62187L360.0625 247.93437Q360.0625 248.98125 359.875 249.7Q359.6875 250.41875 359.32812 250.85625Q358.98438 251.29375 358.48438 251.49687Q358.0 251.7 357.375 251.7Q356.89062 251.7 356.46875 251.575Q356.04688 251.45 355.71875 251.18437Q355.39062 250.90312 355.15625 250.46562Q354.92188 250.02812 354.79688 249.40312Q354.67188 248.7625 354.67188 247.93437L354.67188 246.62187Q354.67188 245.575 354.85938 244.87187Q355.0625 244.16875 355.40625 243.73125Q355.76562 243.29375 356.25 243.10625Q356.75 242.91875 357.35938 242.91875Q357.85938 242.91875 358.28125 243.04375Q358.70312 243.16875 359.03125 243.43437Q359.35938 243.68437 359.57812 244.12187Q359.8125 244.54375 359.9375 245.16875Q360.0625 245.79375 360.0625 246.62187ZM358.96875 248.10625L358.96875 246.45Q358.96875 245.87187 358.90625 245.43437Q358.84375 244.99687 358.70312 244.68437Q358.57812 244.37187 358.375 244.18437Q358.1875 243.99687 357.9375 243.90312Q357.6875 243.80937 357.35938 243.80937Q356.98438 243.80937 356.67188 243.95Q356.375 244.09062 356.17188 244.40312Q355.96875 244.71562 355.85938 245.23125Q355.76562 245.73125 355.76562 246.45L355.76562 248.10625Q355.76562 248.68437 355.82812 249.12187Q355.90625 249.55937 356.03125 249.8875Q356.17188 250.2 356.35938 250.40312Q356.5625 250.60625 356.8125 250.7Q357.0625 250.79375 357.375 250.79375Q357.78125 250.79375 358.07812 250.65312Q358.375 250.49687 358.57812 250.16875Q358.78125 249.84062 358.875 249.34062Q358.96875 248.825 358.96875 248.10625ZM362.8125 250.27812L362.8125 251.15312Q362.8125 251.7 362.53125 252.29375Q362.26562 252.8875 361.78125 253.27812L361.17188 252.85625Q361.35938 252.59062 361.48438 252.325Q361.60938 252.05937 361.67188 251.77812Q361.75 251.49687 361.75 251.16875L361.75 250.27812L362.8125 250.27812ZM367.26562 242.99687L367.26562 251.575L366.1875 251.575L366.1875 244.35625L364.0 245.15312L364.0 244.16875L367.10938 242.99687L367.26562 242.99687Z" fill-rule="nonzero"/><path stroke="#cccccc" stroke-width="1.0" stroke-linecap="butt" d="M472.85 305.0C472.85 249.30208 427.6979 204.15 372.0 204.15C316.3021 204.15 271.15 249.30208 271.15 305.0C271.15 360.6979 316.3021 405.85 372.0 405.85C427.6979 405.85 472.85 360.6979 472.85 305.0" fill-rule="nonzero"/><path fill="#000000" d="M360.0625 196.19687L360.0625 197.50937Q360.0625 198.55624 359.875 199.275Q359.6875 199.99374 359.32812 200.43124Q358.98438 200.86874 358.48438 201.07187Q358.0 201.275 357.375 201.275Q356.89062 201.275 356.46875 201.15Q356.04688 201.025 355.71875 200.75937Q355.39062 200.47812 355.15625 200.04062Q354.92188 199.60312 354.79688 198.97812Q354.67188 198.3375 354.67188 197.50937L354.67188 196.19687Q354.67188 195.15 354.85938 194.44687Q355.0625 193.74374 355.40625 193.30624Q355.76562 192.86874 356.25 192.68124Q356.75 192.49374 357.35938 192.49374Q357.85938 192.49374 358.28125 192.61874Q358.70312 192.74374 359.03125 193.00937Q359.35938 193.25937 359.57812 193.69687Q359.8125 194.11874 359.9375 194.74374Q360.0625 195.36874 360.0625 196.19687ZM358.96875 197.68124L358.96875 196.025Q358.96875 195.44687 358.90625 195.00937Q358.84375 194.57187 358.70312 194.25937Q358.57812 193.94687 358.375 193.75937Q358.1875 193.57187 357.9375 193.47812Q357.6875 193.38437 357.35938 193.38437Q356.98438 193.38437 356.67188 193.525Q356.375 193.66562 356.17188 193.97812Q355.96875 194.29062 355.85938 194.80624Q355.76562 195.30624 355.76562 196.025L355.76562 197.68124Q355.76562 198.25937 355.82812 198.69687Q355.90625 199.13437 356.03125 199.4625Q356.17188 199.775 356.35938 199.97812Q356.5625 200.18124 356.8125 200.275Q357.0625 200.36874 357.375 200.36874Q357.78125 200.36874 358.07812 200.22812Q358.375 200.07187 358.57812 199.74374Q358.78125 199.41562 358.875 198.91562Q358.96875 198.4 358.96875 197.68124ZM362.8125 199.85312L362.8125 200.72812Q362.8125 201.275 362.53125 201.86874Q362.26562 202.4625 361.78125 202.85312L361.17188 202.43124Q361.35938 202.16562 361.48438 201.9Q361.60938 201.63437 361.67188 201.35312Q361.75 201.07187 361.75 200.74374L361.75 199.85312L362.8125 199.85312ZM369.29688 200.25937L369.29688 201.15L363.71875 201.15L363.71875 200.36874L366.51562 197.25937Q367.03125 196.68124 367.3125 196.29062Q367.59375 195.88437 367.70312 195.57187Q367.82812 195.24374 367.82812 194.91562Q367.82812 194.49374 367.65625 194.15Q367.48438 193.80624 367.14062 193.60312Q366.8125 193.38437 366.32812 193.38437Q365.76562 193.38437 365.39062 193.61874Q365.01562 193.8375 364.82812 194.22812Q364.64062 194.61874 364.64062 195.11874L363.54688 195.11874Q363.54688 194.4 363.85938 193.80624Q364.1875 193.2125 364.79688 192.85312Q365.42188 192.49374 366.32812 192.49374Q367.14062 192.49374 367.71875 192.79062Q368.29688 193.07187 368.59375 193.5875Q368.90625 194.0875 368.90625 194.775Q368.90625 195.15 368.78125 195.54062Q368.65625 195.91562 368.4375 196.30624Q368.21875 196.68124 367.92188 197.05624Q367.64062 197.41562 367.3125 197.775L365.01562 200.25937L369.29688 200.25937Z" fill-rule="nonzero"/><path stroke="#cccccc" stroke-width="1.0" stroke-linecap="butt" d="M523.275 305.0C523.275 221.45312 455.54688 153.725 372.0 153.725C288.45312 153.725 220.725 221.45312 220.725 305.0C220.725 388.54688 288.45312 456.275 372.0 456.275C455.54688 456.275 523.275 388.54688 523.275 305.0" fill-rule="nonzero"/><path fill="#000000" d="M360.0625 145.77188L360.0625 147.08438Q360.0625 148.13126 359.875 148.85Q359.6875 149.56876 359.32812 150.00626Q358.98438 150.44376 358.48438 150.64688Q358.0 150.85 357.375 150.85Q356.89062 150.85 356.46875 150.725Q356.04688 150.6 355.71875 150.33438Q355.39062 150.05313 355.15625 149.61563Q354.92188 149.17813 354.79688 148.55313Q354.67188 147.9125 354.67188 147.08438L354.67188 145.77188Q354.67188 144.725 354.85938 144.02188Q355.0625 143.31876 355.40625 142.88126Q355.76562 142.44376 356.25 142.25626Q356.75 142.06876 357.35938 142.06876Q357.85938 142.06876 358.28125 142.19376Q358.70312 142.31876 359.03125 142.58438Q359.35938 142.83438 359.57812 143.27188Q359.8125 143.69376 359.9375 144.31876Q360.0625 144.94376 360.0625 145.77188ZM358.96875 147.25626L358.96875 145.6Q358.96875 145.02188 358.90625 144.58438Q358.84375 144.14688 358.70312 143.83438Q358.57812 143.52188 358.375 143.33438Q358.1875 143.14688 357.9375 143.05313Q357.6875 142.95938 357.35938 142.95938Q356.98438 142.95938 356.67188 143.1Q356.375 143.24063 356.17188 143.55313Q355.96875 143.86563 355.85938 144.38126Q355.76562 144.88126 355.76562 145.6L355.76562 147.25626Q355.76562 147.83438 355.82812 148.27188Q355.90625 148.70938 356.03125 149.0375Q356.17188 149.35 356.35938 149.55313Q356.5625 149.75626 356.8125 149.85Q357.0625 149.94376 357.375 149.94376Q357.78125 149.94376 358.07812 149.80313Q358.375 149.64688 358.57812 149.31876Q358.78125 148.99063 358.875 148.49063Q358.96875 147.975 358.96875 147.25626ZM362.8125 149.42813L362.8125 150.30313Q362.8125 150.85 362.53125 151.44376Q362.26562 152.0375 361.78125 152.42813L361.17188 152.00626Q361.35938 151.74063 361.48438 151.475Q361.60938 151.20938 361.67188 150.92813Q361.75 150.64688 361.75 150.31876L361.75 149.42813L362.8125 149.42813ZM365.29688 145.92813L366.0625 145.92813Q366.64062 145.92813 367.0 145.74063Q367.375 145.5375 367.5625 145.20938Q367.75 144.88126 367.75 144.45938Q367.75 143.975 367.57812 143.64688Q367.42188 143.30313 367.09375 143.13126Q366.76562 142.95938 366.26562 142.95938Q365.79688 142.95938 365.45312 143.14688Q365.10938 143.31876 364.90625 143.64688Q364.71875 143.975 364.71875 144.42813L363.625 144.42813Q363.625 143.77188 363.95312 143.24063Q364.28125 142.70938 364.875 142.39688Q365.46875 142.06876 366.26562 142.06876Q367.03125 142.06876 367.60938 142.35Q368.1875 142.61563 368.51562 143.1625Q368.84375 143.69376 368.84375 144.49063Q368.84375 144.81876 368.6875 145.17813Q368.53125 145.5375 368.21875 145.86563Q367.90625 146.17813 367.40625 146.38126Q366.92188 146.58438 366.21875 146.58438L365.29688 146.58438L365.29688 145.92813ZM365.29688 146.81876L365.29688 146.1625L366.21875 146.1625Q367.03125 146.1625 367.5625 146.36563Q368.09375 146.55313 368.40625 146.88126Q368.71875 147.19376 368.84375 147.58438Q368.96875 147.95938 368.96875 148.35Q368.96875 148.94376 368.76562 149.4125Q368.5625 149.86563 368.1875 150.19376Q367.82812 150.50626 367.32812 150.67813Q366.84375 150.85 366.26562 150.85Q365.70312 150.85 365.21875 150.69376Q364.73438 150.52188 364.35938 150.225Q363.98438 149.92813 363.76562 149.49063Q363.5625 149.0375 363.5625 148.475L364.64062 148.475Q364.64062 148.9125 364.82812 149.25626Q365.03125 149.58438 365.39062 149.77188Q365.76562 149.94376 366.26562 149.94376Q366.76562 149.94376 367.125 149.77188Q367.48438 149.6 367.67188 149.25626Q367.875 148.89688 367.875 148.36563Q367.875 147.83438 367.65625 147.49063Q367.4375 147.14688 367.01562 146.99063Q366.60938 146.81876 366.0625 146.81876L365.29688 146.81876Z" fill-rule="nonzero"/><path stroke="#cccccc" stroke-width="1.0" stroke-linecap="butt" d="M573.7 305.0C573.7 193.60417 483.39584 103.3 372.0 103.3C260.60416 103.3 170.3 193.60417 170.3 305.0C170.3 416.39584 260.60416 506.7 372.0 506.7C483.39584 506.7 573.7 416.39584 573.7 305.0" fill-rule="nonzero"/><path fill="#000000" d="M360.0625 95.34688L360.0625 96.65938Q360.0625 97.70625 359.875 98.425Q359.6875 99.14375 359.32812 99.58125Q358.98438 100.01875 358.48438 100.22188Q358.0 100.425 357.375 100.425Q356.89062 100.425 356.46875 100.3Q356.04688 100.175 355.71875 99.90938Q355.39062 99.62813 355.15625 99.19063Q354.92188 98.75313 354.79688 98.12813Q354.67188 97.4875 354.67188 96.65938L354.67188 95.34688Q354.67188 94.3 354.85938 93.59688Q355.0625 92.89375 355.40625 92.45625Q355.76562 92.01875 356.25 91.83125Q356.75 91.64375 357.35938 91.64375Q357.85938 91.64375 358.28125 91.76875Q358.70312 91.89375 359.03125 92.15938Q359.35938 92.40938 359.57812 92.84688Q359.8125 93.26875 359.9375 93.89375Q360.0625 94.51875 360.0625 95.34688ZM358.96875 96.83125L358.96875 95.175Q358.96875 94.59688 358.90625 94.15938Q358.84375 93.72188 358.70312 93.40938Q358.57812 93.09688 358.375 92.90938Q358.1875 92.72188 357.9375 92.62813Q357.6875 92.53438 357.35938 92.53438Q356.98438 92.53438 356.67188 92.675Q356.375 92.81563 356.17188 93.12813Q355.96875 93.44063 355.85938 93.95625Q355.76562 94.45625 355.76562 95.175L355.76562 96.83125Q355.76562 97.40938 355.82812 97.84688Q355.90625 98.28438 356.03125 98.6125Q356.17188 98.925 356.35938 99.12813Q356.5625 99.33125 356.8125 99.425Q357.0625 99.51875 357.375 99.51875Q357.78125 99.51875 358.07812 99.37813Q358.375 99.22188 358.57812 98.89375Q358.78125 98.56563 358.875 98.06563Q358.96875 97.55 358.96875 96.83125ZM362.8125 99.00313L362.8125 99.87813Q362.8125 100.425 362.53125 101.01875Q362.26562 101.6125 361.78125 102.00313L361.17188 101.58125Q361.35938 101.31563 361.48438 101.05Q361.60938 100.78438 361.67188 100.50313Q361.75 100.22188 361.75 99.89375L361.75 99.00313L362.8125 99.00313ZM369.46875 97.425L369.46875 98.31563L363.3125 98.31563L363.3125 97.675L367.125 91.76875L368.01562 91.76875L367.0625 93.47188L364.54688 97.425L369.46875 97.425ZM368.28125 91.76875L368.28125 100.3L367.20312 100.3L367.20312 91.76875L368.28125 91.76875Z" fill-rule="nonzero"/><path stroke="#cccccc" stroke-width="1.0" stroke-linecap="butt" d="M372.0 305.0L372.0 103.0" fill-rule="nonzero"/><path fill="#000000" d="M353.84375 68.96875L354.9375 68.96875L357.73438 75.921875L360.53125 68.96875L361.625 68.96875L358.15625 77.5L357.3125 77.5L353.84375 68.96875ZM353.48438 68.96875L354.45312 68.96875L354.60938 74.171875L354.60938 77.5L353.48438 77.5L353.48438 68.96875ZM361.01562 68.96875L361.98438 68.96875L361.98438 77.5L360.85938 77.5L360.85938 74.171875L361.01562 68.96875ZM365.10938 76.84375L366.875 71.15625L368.03125 71.15625L365.48438 78.484375Q365.40625 78.71875 365.25 78.984375Q365.10938 79.265625 364.89062 79.5Q364.67188 79.75 364.35938 79.90625Q364.04688 80.0625 363.60938 80.0625Q363.48438 80.0625 363.28125 80.015625Q363.07812 79.984375 363.0 79.96875L363.0 79.09375Q363.04688 79.09375 363.14062 79.09375Q363.25 79.109375 363.28125 79.109375Q363.65625 79.109375 363.90625 79.015625Q364.17188 78.921875 364.34375 78.6875Q364.53125 78.46875 364.65625 78.078125L365.10938 76.84375ZM363.8125 71.15625L365.45312 76.078125L365.73438 77.21875L364.96875 77.625L362.625 71.15625L363.8125 71.15625ZM370.40625 72.15625L370.40625 77.5L369.32812 77.5L369.32812 71.15625L370.375 71.15625L370.40625 72.15625ZM372.39062 71.125L372.39062 72.125Q372.25 72.109375 372.125 72.09375Q372.01562 72.078125 371.85938 72.078125Q371.48438 72.078125 371.1875 72.203125Q370.90625 72.3125 370.70312 72.53125Q370.51562 72.734375 370.39062 73.03125Q370.28125 73.328125 370.25 73.671875L369.9375 73.84375Q369.9375 73.265625 370.04688 72.765625Q370.17188 72.265625 370.40625 71.875Q370.65625 71.484375 371.01562 71.265625Q371.39062 71.046875 371.90625 71.046875Q372.03125 71.046875 372.17188 71.078125Q372.32812 71.09375 372.39062 71.125ZM375.85938 76.71875Q376.25 76.71875 376.57812 76.5625Q376.90625 76.40625 377.10938 76.140625Q377.32812 75.859375 377.35938 75.5L378.39062 75.5Q378.35938 76.0625 378.0 76.546875Q377.65625 77.03125 377.09375 77.328125Q376.53125 77.625 375.85938 77.625Q375.15625 77.625 374.625 77.375Q374.09375 77.109375 373.73438 76.671875Q373.39062 76.234375 373.21875 75.671875Q373.04688 75.09375 373.04688 74.453125L373.04688 74.203125Q373.04688 73.5625 373.21875 73.0Q373.39062 72.421875 373.73438 71.984375Q374.09375 71.546875 374.625 71.296875Q375.15625 71.046875 375.85938 71.046875Q376.60938 71.046875 377.15625 71.34375Q377.71875 71.640625 378.03125 72.171875Q378.35938 72.6875 378.39062 73.34375L377.35938 73.34375Q377.32812 72.953125 377.14062 72.640625Q376.95312 72.3125 376.625 72.125Q376.29688 71.9375 375.85938 71.9375Q375.35938 71.9375 375.01562 72.140625Q374.6875 72.328125 374.48438 72.65625Q374.29688 72.984375 374.20312 73.390625Q374.125 73.796875 374.125 74.203125L374.125 74.453125Q374.125 74.875 374.20312 75.28125Q374.29688 75.671875 374.48438 76.0Q374.6875 76.328125 375.01562 76.53125Q375.35938 76.71875 375.85938 76.71875ZM381.95312 77.625Q381.29688 77.625 380.75 77.40625Q380.21875 77.171875 379.82812 76.765625Q379.45312 76.34375 379.25 75.78125Q379.04688 75.21875 379.04688 74.546875L379.04688 74.3125Q379.04688 73.53125 379.26562 72.921875Q379.5 72.3125 379.89062 71.890625Q380.28125 71.46875 380.78125 71.265625Q381.28125 71.046875 381.8125 71.046875Q382.5 71.046875 382.98438 71.28125Q383.48438 71.515625 383.79688 71.9375Q384.125 72.34375 384.26562 72.921875Q384.42188 73.484375 384.42188 74.140625L384.42188 74.640625L379.6875 74.640625L379.6875 73.75L383.34375 73.75L383.34375 73.671875Q383.3125 73.25 383.15625 72.859375Q383.01562 72.453125 382.6875 72.203125Q382.375 71.9375 381.8125 71.9375Q381.45312 71.9375 381.14062 72.09375Q380.82812 72.25 380.59375 72.5625Q380.375 72.859375 380.25 73.296875Q380.14062 73.734375 380.14062 74.3125L380.14062 74.546875Q380.14062 75.0 380.26562 75.40625Q380.39062 75.796875 380.625 76.09375Q380.875 76.390625 381.21875 76.5625Q381.57812 76.734375 382.01562 76.734375Q382.59375 76.734375 382.98438 76.5Q383.39062 76.265625 383.6875 75.875L384.34375 76.390625Q384.14062 76.703125 383.8125 76.984375Q383.5 77.265625 383.03125 77.453125Q382.57812 77.625 381.95312 77.625ZM386.40625 72.515625L386.40625 77.5L385.32812 77.5L385.32812 71.15625L386.35938 71.15625L386.40625 72.515625ZM386.15625 74.09375L385.70312 74.078125Q385.70312 73.421875 385.89062 72.875Q386.07812 72.3125 386.42188 71.90625Q386.76562 71.5 387.23438 71.28125Q387.70312 71.046875 388.28125 71.046875Q388.75 71.046875 389.125 71.171875Q389.5 71.296875 389.76562 71.578125Q390.03125 71.84375 390.17188 72.28125Q390.3125 72.71875 390.3125 73.34375L390.3125 77.5L389.21875 77.5L389.21875 73.328125Q389.21875 72.828125 389.07812 72.53125Q388.9375 72.234375 388.65625 72.09375Q388.375 71.953125 387.95312 71.953125Q387.54688 71.953125 387.21875 72.125Q386.89062 72.296875 386.65625 72.59375Q386.42188 72.890625 386.28125 73.28125Q386.15625 73.65625 386.15625 74.09375Z" fill-rule="nonzero"/><path stroke="#cccccc" stroke-width="1.0" stroke-linecap="butt" d="M372.0 305.0L547.0 204.0" fill-rule="nonzero"/><path fill="#000000" d="M553.09375 190.5625L553.09375 190.4375Q553.09375 189.6875 553.25 189.07812Q553.4219 188.45312 553.7344 188.0Q554.0469 187.54688 554.5 187.29688Q554.96875 187.04688 555.5625 187.04688Q556.0156 187.04688 556.375 187.1875Q556.75 187.3125 557.03125 187.57812Q557.3125 187.82812 557.5156 188.20312Q557.71875 188.57812 557.84375 189.0625Q557.96875 189.53125 558.0156 190.09375L558.0156 190.57812Q557.9531 191.28125 557.7656 191.84375Q557.59375 192.40625 557.2969 192.8125Q557.0 193.20312 556.5625 193.42188Q556.1406 193.625 555.5469 193.625Q554.96875 193.625 554.5 193.40625Q554.0469 193.17188 553.7344 192.76562Q553.4219 192.34375 553.25 191.79688Q553.09375 191.23438 553.09375 190.5625ZM554.1719 190.4375L554.1719 190.5625Q554.1719 191.01562 554.2656 191.40625Q554.3594 191.79688 554.5469 192.09375Q554.75 192.39062 555.0625 192.5625Q555.3906 192.73438 555.8281 192.73438Q556.25 192.73438 556.5469 192.5625Q556.8594 192.375 557.0625 192.07812Q557.28125 191.78125 557.40625 191.39062Q557.5469 191.0 557.6406 190.59375L557.6406 190.20312Q557.5781 189.76562 557.4375 189.375Q557.3125 188.96875 557.09375 188.64062Q556.8906 188.3125 556.5781 188.125Q556.2656 187.9375 555.8281 187.9375Q555.3906 187.9375 555.0781 188.14062Q554.7656 188.32812 554.5625 188.67188Q554.3594 189.01562 554.2656 189.48438Q554.1719 189.9375 554.1719 190.4375ZM557.4844 187.15625L558.40625 187.15625L558.40625 191.76562Q558.40625 192.04688 558.4375 192.21875Q558.46875 192.375 558.53125 192.48438Q558.6094 192.57812 558.6875 192.625Q558.78125 192.65625 558.875 192.65625Q558.9219 192.65625 558.96875 192.64062Q559.03125 192.625 559.0625 192.60938L559.2031 193.42188Q559.0156 193.54688 558.84375 193.57812Q558.6719 193.625 558.4844 193.625Q558.2031 193.625 557.9844 193.51562Q557.78125 193.42188 557.625 193.20312Q557.46875 192.98438 557.3906 192.625Q557.3125 192.26562 557.3125 191.76562L557.3125 188.53125L557.4844 187.15625ZM562.5781 189.42188L562.5781 190.3125L559.71875 190.3125L559.71875 189.42188L562.5781 189.42188ZM566.6406 190.15625L564.3594 190.15625L564.3594 189.23438L566.6406 189.23438Q567.2969 189.23438 567.7031 189.03125Q568.125 188.8125 568.3125 188.4375Q568.5 188.0625 568.5 187.57812Q568.5 187.14062 568.3125 186.76562Q568.125 186.375 567.7031 186.14062Q567.2969 185.89062 566.6406 185.89062L564.625 185.89062L564.625 193.5L563.4844 193.5L563.4844 184.96875L566.6406 184.96875Q567.6094 184.96875 568.2656 185.3125Q568.9375 185.64062 569.28125 186.23438Q569.625 186.8125 569.625 187.5625Q569.625 188.39062 569.28125 188.96875Q568.9375 189.54688 568.2656 189.85938Q567.6094 190.15625 566.6406 190.15625ZM572.5 187.15625L572.5 193.5L571.4219 193.5L571.4219 187.15625L572.5 187.15625ZM571.3281 185.48438Q571.3281 185.21875 571.4844 185.03125Q571.65625 184.84375 571.96875 184.84375Q572.28125 184.84375 572.4375 185.03125Q572.6094 185.21875 572.6094 185.48438Q572.6094 185.73438 572.4375 185.92188Q572.28125 186.09375 571.96875 186.09375Q571.65625 186.09375 571.4844 185.92188Q571.3281 185.73438 571.3281 185.48438ZM575.40625 188.51562L575.40625 193.5L574.3281 193.5L574.3281 187.15625L575.3594 187.15625L575.40625 188.51562ZM575.15625 190.09375L574.7031 190.07812Q574.7031 189.42188 574.8906 188.875Q575.0781 188.3125 575.4219 187.90625Q575.7656 187.5 576.2344 187.28125Q576.7031 187.04688 577.28125 187.04688Q577.75 187.04688 578.125 187.17188Q578.5 187.29688 578.7656 187.57812Q579.03125 187.84375 579.1719 188.28125Q579.3125 188.71875 579.3125 189.34375L579.3125 193.5L578.21875 193.5L578.21875 189.32812Q578.21875 188.82812 578.0781 188.53125Q577.9375 188.23438 577.65625 188.09375Q577.375 187.95312 576.9531 187.95312Q576.5469 187.95312 576.21875 188.125Q575.8906 188.29688 575.65625 188.59375Q575.4219 188.89062 575.28125 189.28125Q575.15625 189.65625 575.15625 190.09375ZM583.9531 193.625Q583.2969 193.625 582.75 193.40625Q582.21875 193.17188 581.8281 192.76562Q581.4531 192.34375 581.25 191.78125Q581.0469 191.21875 581.0469 190.54688L581.0469 190.3125Q581.0469 189.53125 581.2656 188.92188Q581.5 188.3125 581.8906 187.89062Q582.28125 187.46875 582.78125 187.26562Q583.28125 187.04688 583.8125 187.04688Q584.5 187.04688 584.9844 187.28125Q585.4844 187.51562 585.7969 187.9375Q586.125 188.34375 586.2656 188.92188Q586.4219 189.48438 586.4219 190.14062L586.4219 190.64062L581.6875 190.64062L581.6875 189.75L585.34375 189.75L585.34375 189.67188Q585.3125 189.25 585.15625 188.85938Q585.0156 188.45312 584.6875 188.20312Q584.375 187.9375 583.8125 187.9375Q583.4531 187.9375 583.1406 188.09375Q582.8281 188.25 582.59375 188.5625Q582.375 188.85938 582.25 189.29688Q582.1406 189.73438 582.1406 190.3125L582.1406 190.54688Q582.1406 191.0 582.2656 191.40625Q582.3906 191.79688 582.625 192.09375Q582.875 192.39062 583.21875 192.5625Q583.5781 192.73438 584.0156 192.73438Q584.59375 192.73438 584.9844 192.5Q585.3906 192.26562 585.6875 191.875L586.34375 192.39062Q586.1406 192.70312 585.8125 192.98438Q585.5 193.26562 585.03125 193.45312Q584.5781 193.625 583.9531 193.625ZM588.40625 188.51562L588.40625 193.5L587.3281 193.5L587.3281 187.15625L588.3594 187.15625L588.40625 188.51562ZM588.15625 190.09375L587.7031 190.07812Q587.7031 189.42188 587.8906 188.875Q588.0781 188.3125 588.4219 187.90625Q588.7656 187.5 589.2344 187.28125Q589.7031 187.04688 590.28125 187.04688Q590.75 187.04688 591.125 187.17188Q591.5 187.29688 591.7656 187.57812Q592.03125 187.84375 592.1719 188.28125Q592.3125 188.71875 592.3125 189.34375L592.3125 193.5L591.21875 193.5L591.21875 189.32812Q591.21875 188.82812 591.0781 188.53125Q590.9375 188.23438 590.65625 188.09375Q590.375 187.95312 589.9531 187.95312Q589.5469 187.95312 589.21875 188.125Q588.8906 188.29688 588.65625 188.59375Q588.4219 188.89062 588.28125 189.28125Q588.15625 189.65625 588.15625 190.09375Z" fill-rule="nonzero"/><path stroke="#cccccc" stroke-width="1.0" stroke-linecap="butt" d="M372.0 305.0L547.0 406.0" fill-rule="nonzero"/><path fill="#000000" d="M543.6406 422.78125L544.7656 422.78125Q544.6719 423.59375 544.2969 424.23438Q543.9219 424.875 543.2344 425.25Q542.5625 425.625 541.53125 425.625Q540.78125 425.625 540.1719 425.34375Q539.5625 425.04688 539.1094 424.53125Q538.6719 424.01562 538.4375 423.29688Q538.2031 422.5625 538.2031 421.65625L538.2031 420.8125Q538.2031 419.92188 538.4375 419.1875Q538.6719 418.45312 539.125 417.9375Q539.5781 417.40625 540.2031 417.125Q540.84375 416.84375 541.625 416.84375Q542.59375 416.84375 543.2656 417.21875Q543.9375 417.57812 544.2969 418.21875Q544.6719 418.85938 544.7656 419.70312L543.6406 419.70312Q543.5625 419.10938 543.3281 418.6875Q543.1094 418.25 542.7031 418.01562Q542.2969 417.78125 541.625 417.78125Q541.0625 417.78125 540.625 418.0Q540.2031 418.20312 539.90625 418.60938Q539.625 419.0 539.46875 419.5625Q539.3281 420.125 539.3281 420.79688L539.3281 421.65625Q539.3281 422.28125 539.4531 422.84375Q539.59375 423.39062 539.8594 423.8125Q540.125 424.21875 540.5469 424.46875Q540.96875 424.70312 541.53125 424.70312Q542.25 424.70312 542.6719 424.46875Q543.1094 424.23438 543.3281 423.8125Q543.5469 423.39062 543.6406 422.78125ZM550.0625 424.42188L550.0625 421.15625Q550.0625 420.78125 549.90625 420.5Q549.7656 420.21875 549.46875 420.07812Q549.1719 419.92188 548.7344 419.92188Q548.3125 419.92188 548.0 420.0625Q547.7031 420.20312 547.53125 420.4375Q547.3594 420.65625 547.3594 420.92188L546.28125 420.92188Q546.28125 420.57812 546.4531 420.25Q546.625 419.90625 546.9531 419.64062Q547.28125 419.35938 547.75 419.20312Q548.21875 419.04688 548.7969 419.04688Q549.4844 419.04688 550.0156 419.28125Q550.5469 419.51562 550.84375 419.98438Q551.15625 420.45312 551.15625 421.15625L551.15625 424.10938Q551.15625 424.4375 551.2031 424.79688Q551.2656 425.14062 551.375 425.40625L551.375 425.5L550.2344 425.5Q550.15625 425.3125 550.1094 425.0Q550.0625 424.6875 550.0625 424.42188ZM550.25 421.65625L550.2656 422.42188L549.1719 422.42188Q548.7031 422.42188 548.34375 422.5Q547.9844 422.5625 547.7344 422.71875Q547.4844 422.85938 547.3594 423.07812Q547.2344 423.29688 547.2344 423.59375Q547.2344 423.89062 547.3594 424.14062Q547.5 424.375 547.7656 424.53125Q548.0469 424.67188 548.4375 424.67188Q548.9375 424.67188 549.3125 424.46875Q549.7031 424.25 549.9219 423.95312Q550.15625 423.64062 550.1719 423.34375L550.6406 423.875Q550.59375 424.10938 550.40625 424.42188Q550.2344 424.71875 549.9219 425.0Q549.625 425.26562 549.2031 425.45312Q548.7969 425.625 548.28125 425.625Q547.6406 425.625 547.15625 425.375Q546.6719 425.10938 546.40625 424.6875Q546.1406 424.26562 546.1406 423.73438Q546.1406 423.21875 546.3281 422.84375Q546.53125 422.45312 546.90625 422.1875Q547.28125 421.92188 547.8125 421.79688Q548.34375 421.65625 549.0 421.65625L550.25 421.65625ZM554.40625 420.15625L554.40625 425.5L553.3281 425.5L553.3281 419.15625L554.375 419.15625L554.40625 420.15625ZM556.3906 419.125L556.3906 420.125Q556.25 420.10938 556.125 420.09375Q556.0156 420.07812 555.8594 420.07812Q555.4844 420.07812 555.1875 420.20312Q554.90625 420.3125 554.7031 420.53125Q554.5156 420.73438 554.3906 421.03125Q554.28125 421.32812 554.25 421.67188L553.9375 421.84375Q553.9375 421.26562 554.0469 420.76562Q554.1719 420.26562 554.40625 419.875Q554.65625 419.48438 555.0156 419.26562Q555.3906 419.04688 555.90625 419.04688Q556.03125 419.04688 556.1719 419.07812Q556.3281 419.09375 556.3906 419.125ZM559.1094 424.84375L560.875 419.15625L562.03125 419.15625L559.4844 426.48438Q559.40625 426.71875 559.25 426.98438Q559.1094 427.26562 558.8906 427.5Q558.6719 427.75 558.3594 427.90625Q558.0469 428.0625 557.6094 428.0625Q557.4844 428.0625 557.28125 428.01562Q557.0781 427.98438 557.0 427.96875L557.0 427.09375Q557.0469 427.09375 557.1406 427.09375Q557.25 427.10938 557.28125 427.10938Q557.65625 427.10938 557.90625 427.01562Q558.1719 426.92188 558.34375 426.6875Q558.53125 426.46875 558.65625 426.07812L559.1094 424.84375ZM557.8125 419.15625L559.4531 424.07812L559.7344 425.21875L558.96875 425.625L556.625 419.15625L557.8125 419.15625ZM563.0469 422.40625L563.0469 422.26562Q563.0469 421.57812 563.2344 421.0Q563.4375 420.40625 563.8125 419.96875Q564.1875 419.53125 564.71875 419.29688Q565.25 419.04688 565.9219 419.04688Q566.5781 419.04688 567.1094 419.29688Q567.65625 419.53125 568.03125 419.96875Q568.40625 420.40625 568.6094 421.0Q568.8125 421.57812 568.8125 422.26562L568.8125 422.40625Q568.8125 423.07812 568.6094 423.67188Q568.40625 424.25 568.03125 424.6875Q567.65625 425.125 567.125 425.375Q566.59375 425.625 565.9219 425.625Q565.2656 425.625 564.71875 425.375Q564.1875 425.125 563.8125 424.6875Q563.4375 424.25 563.2344 423.67188Q563.0469 423.07812 563.0469 422.40625ZM564.125 422.26562L564.125 422.40625Q564.125 422.875 564.2344 423.29688Q564.34375 423.71875 564.5625 424.04688Q564.7969 424.35938 565.1406 424.54688Q565.4844 424.71875 565.9219 424.71875Q566.375 424.71875 566.7031 424.54688Q567.0469 424.35938 567.2656 424.04688Q567.5 423.71875 567.6094 423.29688Q567.71875 422.875 567.71875 422.40625L567.71875 422.26562Q567.71875 421.79688 567.6094 421.375Q567.5 420.95312 567.2656 420.64062Q567.0469 420.3125 566.7031 420.125Q566.375 419.9375 565.9219 419.9375Q565.46875 419.9375 565.125 420.125Q564.7969 420.3125 564.5625 420.64062Q564.34375 420.95312 564.2344 421.375Q564.125 421.79688 564.125 422.26562ZM571.40625 420.375L571.40625 427.9375L570.3281 427.9375L570.3281 419.15625L571.3125 419.15625L571.40625 420.375ZM575.6875 422.28125L575.6875 422.40625Q575.6875 423.09375 575.5156 423.6875Q575.3594 424.26562 575.0469 424.70312Q574.7344 425.14062 574.2656 425.39062Q573.8125 425.625 573.21875 425.625Q572.625 425.625 572.15625 425.42188Q571.6875 425.21875 571.3594 424.84375Q571.0469 424.45312 570.8594 423.92188Q570.6719 423.39062 570.59375 422.71875L570.59375 422.0625Q570.6719 421.35938 570.8594 420.8125Q571.0469 420.25 571.3594 419.85938Q571.6875 419.45312 572.1406 419.25Q572.6094 419.04688 573.2031 419.04688Q573.7969 419.04688 574.2656 419.28125Q574.7344 419.5 575.0469 419.9375Q575.3594 420.35938 575.5156 420.95312Q575.6875 421.54688 575.6875 422.28125ZM574.59375 422.40625L574.59375 422.28125Q574.59375 421.79688 574.4844 421.39062Q574.3906 420.96875 574.1875 420.65625Q573.9844 420.32812 573.65625 420.14062Q573.3281 419.95312 572.8906 419.95312Q572.4844 419.95312 572.1719 420.09375Q571.875 420.23438 571.65625 420.48438Q571.4531 420.71875 571.3125 421.01562Q571.1875 421.3125 571.125 421.64062L571.125 423.15625Q571.2344 423.5625 571.4375 423.92188Q571.65625 424.28125 572.0 424.5Q572.3594 424.71875 572.90625 424.71875Q573.34375 424.71875 573.65625 424.54688Q573.9844 424.35938 574.1875 424.04688Q574.3906 423.71875 574.4844 423.29688Q574.59375 422.875 574.59375 422.40625ZM578.40625 416.5L578.40625 425.5L577.3281 425.5L577.3281 416.5L578.40625 416.5ZM578.15625 422.09375L577.7031 422.07812Q577.7031 421.42188 577.8906 420.875Q578.0781 420.3125 578.4219 419.90625Q578.7656 419.5 579.2344 419.28125Q579.7031 419.04688 580.28125 419.04688Q580.75 419.04688 581.125 419.17188Q581.5 419.29688 581.7656 419.57812Q582.03125 419.84375 582.1719 420.28125Q582.3125 420.71875 582.3125 421.34375L582.3125 425.5L581.21875 425.5L581.21875 421.32812Q581.21875 420.82812 581.0781 420.53125Q580.9375 420.23438 580.65625 420.09375Q580.375 419.95312 579.9531 419.95312Q579.5469 419.95312 579.21875 420.125Q578.8906 420.29688 578.65625 420.59375Q578.4219 420.89062 578.28125 421.28125Q578.15625 421.65625 578.15625 422.09375ZM586.1094 424.84375L587.875 419.15625L589.03125 419.15625L586.4844 426.48438Q586.40625 426.71875 586.25 426.98438Q586.1094 427.26562 585.8906 427.5Q585.6719 427.75 585.3594 427.90625Q585.0469 428.0625 584.6094 428.0625Q584.4844 428.0625 584.28125 428.01562Q584.0781 427.98438 584.0 427.96875L584.0 427.09375Q584.0469 427.09375 584.1406 427.09375Q584.25 427.10938 584.28125 427.10938Q584.65625 427.10938 584.90625 427.01562Q585.1719 426.92188 585.34375 426.6875Q585.53125 426.46875 585.65625 426.07812L586.1094 424.84375ZM584.8125 419.15625L586.4531 424.07812L586.7344 425.21875L585.96875 425.625L583.625 419.15625L584.8125 419.15625ZM591.5 416.5L591.5 425.5L590.4219 425.5L590.4219 416.5L591.5 416.5ZM594.5 416.5L594.5 425.5L593.4219 425.5L593.4219 416.5L594.5 416.5ZM598.9531 425.625Q598.2969 425.625 597.75 425.40625Q597.21875 425.17188 596.8281 424.76562Q596.4531 424.34375 596.25 423.78125Q596.0469 423.21875 596.0469 422.54688L596.0469 422.3125Q596.0469 421.53125 596.2656 420.92188Q596.5 420.3125 596.8906 419.89062Q597.28125 419.46875 597.78125 419.26562Q598.28125 419.04688 598.8125 419.04688Q599.5 419.04688 599.9844 419.28125Q600.4844 419.51562 600.7969 419.9375Q601.125 420.34375 601.2656 420.92188Q601.4219 421.48438 601.4219 422.14062L601.4219 422.64062L596.6875 422.64062L596.6875 421.75L600.34375 421.75L600.34375 421.67188Q600.3125 421.25 600.15625 420.85938Q600.0156 420.45312 599.6875 420.20312Q599.375 419.9375 598.8125 419.9375Q598.4531 419.9375 598.1406 420.09375Q597.8281 420.25 597.59375 420.5625Q597.375 420.85938 597.25 421.29688Q597.1406 421.73438 597.1406 422.3125L597.1406 422.54688Q597.1406 423.0 597.2656 423.40625Q597.3906 423.79688 597.625 424.09375Q597.875 424.39062 598.21875 424.5625Q598.5781 424.73438 599.0156 424.73438Q599.59375 424.73438 599.9844 424.5Q600.3906 424.26562 600.6875 423.875L601.34375 424.39062Q601.1406 424.70312 600.8125 424.98438Q600.5 425.26562 600.03125 425.45312Q599.5781 425.625 598.9531 425.625ZM603.40625 420.51562L603.40625 425.5L602.3281 425.5L602.3281 419.15625L603.3594 419.15625L603.40625 420.51562ZM603.15625 422.09375L602.7031 422.07812Q602.7031 421.42188 602.8906 420.875Q603.0781 420.3125 603.4219 419.90625Q603.7656 419.5 604.2344 419.28125Q604.7031 419.04688 605.28125 419.04688Q605.75 419.04688 606.125 419.17188Q606.5 419.29688 606.7656 419.57812Q607.03125 419.84375 607.1719 420.28125Q607.3125 420.71875 607.3125 421.34375L607.3125 425.5L606.21875 425.5L606.21875 421.32812Q606.21875 420.82812 606.0781 420.53125Q605.9375 420.23438 605.65625 420.09375Q605.375 419.95312 604.9531 419.95312Q604.5469 419.95312 604.21875 420.125Q603.8906 420.29688 603.65625 420.59375Q603.4219 420.89062 603.28125 421.28125Q603.15625 421.65625 603.15625 422.09375Z" fill-rule="nonzero"/><path stroke="#cccccc" stroke-width="1.0" stroke-linecap="butt" d="M372.0 305.0L372.0 507.0" fill-rule="nonzero"/><path fill="#000000" d="M354.67188 540.5781L354.67188 541.5L350.40625 541.5L350.40625 540.5781L354.67188 540.5781ZM350.625 532.96875L350.625 541.5L349.48438 541.5L349.48438 532.96875L350.625 532.96875ZM356.5 535.15625L356.5 541.5L355.42188 541.5L355.42188 535.15625L356.5 535.15625ZM355.32812 533.4844Q355.32812 533.21875 355.48438 533.03125Q355.65625 532.84375 355.96875 532.84375Q356.28125 532.84375 356.4375 533.03125Q356.60938 533.21875 356.60938 533.4844Q356.60938 533.7344 356.4375 533.9219Q356.28125 534.09375 355.96875 534.09375Q355.65625 534.09375 355.48438 533.9219Q355.32812 533.7344 355.32812 533.4844ZM359.40625 536.4219L359.40625 541.5L358.3125 541.5L358.3125 535.15625L359.34375 535.15625L359.40625 536.4219ZM359.1875 538.09375L358.67188 538.0781Q358.6875 537.4219 358.84375 536.875Q359.01562 536.3125 359.32812 535.90625Q359.65625 535.5 360.14062 535.28125Q360.625 535.0469 361.25 535.0469Q361.70312 535.0469 362.07812 535.1719Q362.45312 535.2969 362.71875 535.5625Q363.0 535.8281 363.14062 536.25Q363.29688 536.6719 363.29688 537.28125L363.29688 541.5L362.21875 541.5L362.21875 537.3281Q362.21875 536.8281 362.04688 536.53125Q361.89062 536.2344 361.57812 536.09375Q361.28125 535.9531 360.85938 535.9531Q360.39062 535.9531 360.0625 536.125Q359.73438 536.2969 359.54688 536.59375Q359.35938 536.8906 359.26562 537.28125Q359.1875 537.65625 359.1875 538.09375ZM363.29688 537.4844L362.5625 537.71875Q362.5625 537.1875 362.73438 536.71875Q362.90625 536.2344 363.21875 535.8594Q363.54688 535.4844 364.01562 535.2656Q364.48438 535.0469 365.07812 535.0469Q365.59375 535.0469 365.98438 535.1875Q366.39062 535.3125 366.65625 535.59375Q366.92188 535.875 367.0625 536.3125Q367.20312 536.7344 367.20312 537.3281L367.20312 541.5L366.125 541.5L366.125 537.3281Q366.125 536.78125 365.95312 536.5Q365.78125 536.2031 365.48438 536.0781Q365.1875 535.9531 364.76562 535.9531Q364.40625 535.9531 364.125 536.0781Q363.85938 536.2031 363.67188 536.4219Q363.48438 536.625 363.39062 536.90625Q363.29688 537.1875 363.29688 537.4844ZM369.04688 538.40625L369.04688 538.2656Q369.04688 537.5781 369.23438 537.0Q369.4375 536.40625 369.8125 535.96875Q370.1875 535.53125 370.71875 535.2969Q371.25 535.0469 371.92188 535.0469Q372.57812 535.0469 373.10938 535.2969Q373.65625 535.53125 374.03125 535.96875Q374.40625 536.40625 374.60938 537.0Q374.8125 537.5781 374.8125 538.2656L374.8125 538.40625Q374.8125 539.0781 374.60938 539.6719Q374.40625 540.25 374.03125 540.6875Q373.65625 541.125 373.125 541.375Q372.59375 541.625 371.92188 541.625Q371.26562 541.625 370.71875 541.375Q370.1875 541.125 369.8125 540.6875Q369.4375 540.25 369.23438 539.6719Q369.04688 539.0781 369.04688 538.40625ZM370.125 538.2656L370.125 538.40625Q370.125 538.875 370.23438 539.2969Q370.34375 539.71875 370.5625 540.0469Q370.79688 540.3594 371.14062 540.5469Q371.48438 540.71875 371.92188 540.71875Q372.375 540.71875 372.70312 540.5469Q373.04688 540.3594 373.26562 540.0469Q373.5 539.71875 373.60938 539.2969Q373.71875 538.875 373.71875 538.40625L373.71875 538.2656Q373.71875 537.7969 373.60938 537.375Q373.5 536.9531 373.26562 536.6406Q373.04688 536.3125 372.70312 536.125Q372.375 535.9375 371.92188 535.9375Q371.46875 535.9375 371.125 536.125Q370.79688 536.3125 370.5625 536.6406Q370.34375 536.9531 370.23438 537.375Q370.125 537.7969 370.125 538.2656ZM377.40625 536.5156L377.40625 541.5L376.32812 541.5L376.32812 535.15625L377.35938 535.15625L377.40625 536.5156ZM377.15625 538.09375L376.70312 538.0781Q376.70312 537.4219 376.89062 536.875Q377.07812 536.3125 377.42188 535.90625Q377.76562 535.5 378.23438 535.28125Q378.70312 535.0469 379.28125 535.0469Q379.75 535.0469 380.125 535.1719Q380.5 535.2969 380.76562 535.5781Q381.03125 535.84375 381.17188 536.28125Q381.3125 536.71875 381.3125 537.34375L381.3125 541.5L380.21875 541.5L380.21875 537.3281Q380.21875 536.8281 380.07812 536.53125Q379.9375 536.2344 379.65625 536.09375Q379.375 535.9531 378.95312 535.9531Q378.54688 535.9531 378.21875 536.125Q377.89062 536.2969 377.65625 536.59375Q377.42188 536.8906 377.28125 537.28125Q377.15625 537.65625 377.15625 538.09375ZM385.95312 541.625Q385.29688 541.625 384.75 541.40625Q384.21875 541.1719 383.82812 540.7656Q383.45312 540.34375 383.25 539.78125Q383.04688 539.21875 383.04688 538.5469L383.04688 538.3125Q383.04688 537.53125 383.26562 536.9219Q383.5 536.3125 383.89062 535.8906Q384.28125 535.46875 384.78125 535.2656Q385.28125 535.0469 385.8125 535.0469Q386.5 535.0469 386.98438 535.28125Q387.48438 535.5156 387.79688 535.9375Q388.125 536.34375 388.26562 536.9219Q388.42188 537.4844 388.42188 538.1406L388.42188 538.6406L383.6875 538.6406L383.6875 537.75L387.34375 537.75L387.34375 537.6719Q387.3125 537.25 387.15625 536.8594Q387.01562 536.4531 386.6875 536.2031Q386.375 535.9375 385.8125 535.9375Q385.45312 535.9375 385.14062 536.09375Q384.82812 536.25 384.59375 536.5625Q384.375 536.8594 384.25 537.2969Q384.14062 537.7344 384.14062 538.3125L384.14062 538.5469Q384.14062 539.0 384.26562 539.40625Q384.39062 539.7969 384.625 540.09375Q384.875 540.3906 385.21875 540.5625Q385.57812 540.7344 386.01562 540.7344Q386.59375 540.7344 386.98438 540.5Q387.39062 540.2656 387.6875 539.875L388.34375 540.3906Q388.14062 540.7031 387.8125 540.9844Q387.5 541.2656 387.03125 541.4531Q386.57812 541.625 385.95312 541.625ZM390.40625 536.5156L390.40625 541.5L389.32812 541.5L389.32812 535.15625L390.35938 535.15625L390.40625 536.5156ZM390.15625 538.09375L389.70312 538.0781Q389.70312 537.4219 389.89062 536.875Q390.07812 536.3125 390.42188 535.90625Q390.76562 535.5 391.23438 535.28125Q391.70312 535.0469 392.28125 535.0469Q392.75 535.0469 393.125 535.1719Q393.5 535.2969 393.76562 535.5781Q394.03125 535.84375 394.17188 536.28125Q394.3125 536.71875 394.3125 537.34375L394.3125 541.5L393.21875 541.5L393.21875 537.3281Q393.21875 536.8281 393.07812 536.53125Q392.9375 536.2344 392.65625 536.09375Q392.375 535.9531 391.95312 535.9531Q391.54688 535.9531 391.21875 536.125Q390.89062 536.2969 390.65625 536.59375Q390.42188 536.8906 390.28125 537.28125Q390.15625 537.65625 390.15625 538.09375Z" fill-rule="nonzero"/><path stroke="#cccccc" stroke-width="1.0" stroke-linecap="butt" d="M372.0 305.0L197.0 406.0" fill-rule="nonzero"/><path fill="#000000" d="M148.125 416.96875L148.125 425.5L146.98438 425.5L146.98438 416.96875L148.125 416.96875ZM151.70312 420.8125L151.70312 421.73438L147.875 421.73438L147.875 420.8125L151.70312 420.8125ZM152.28125 416.96875L152.28125 417.89062L147.875 417.89062L147.875 416.96875L152.28125 416.96875ZM157.5625 424.42188L157.5625 421.15625Q157.5625 420.78125 157.40625 420.5Q157.26562 420.21875 156.96875 420.07812Q156.67188 419.92188 156.23438 419.92188Q155.8125 419.92188 155.5 420.0625Q155.20312 420.20312 155.03125 420.4375Q154.85938 420.65625 154.85938 420.92188L153.78125 420.92188Q153.78125 420.57812 153.95312 420.25Q154.125 419.90625 154.45312 419.64062Q154.78125 419.35938 155.25 419.20312Q155.71875 419.04688 156.29688 419.04688Q156.98438 419.04688 157.51562 419.28125Q158.04688 419.51562 158.34375 419.98438Q158.65625 420.45312 158.65625 421.15625L158.65625 424.10938Q158.65625 424.4375 158.70312 424.79688Q158.76562 425.14062 158.875 425.40625L158.875 425.5L157.73438 425.5Q157.65625 425.3125 157.60938 425.0Q157.5625 424.6875 157.5625 424.42188ZM157.75 421.65625L157.76562 422.42188L156.67188 422.42188Q156.20312 422.42188 155.84375 422.5Q155.48438 422.5625 155.23438 422.71875Q154.98438 422.85938 154.85938 423.07812Q154.73438 423.29688 154.73438 423.59375Q154.73438 423.89062 154.85938 424.14062Q155.0 424.375 155.26562 424.53125Q155.54688 424.67188 155.9375 424.67188Q156.4375 424.67188 156.8125 424.46875Q157.20312 424.25 157.42188 423.95312Q157.65625 423.64062 157.67188 423.34375L158.14062 423.875Q158.09375 424.10938 157.90625 424.42188Q157.73438 424.71875 157.42188 425.0Q157.125 425.26562 156.70312 425.45312Q156.29688 425.625 155.78125 425.625Q155.14062 425.625 154.65625 425.375Q154.17188 425.10938 153.90625 424.6875Q153.64062 424.26562 153.64062 423.73438Q153.64062 423.21875 153.82812 422.84375Q154.03125 422.45312 154.40625 422.1875Q154.78125 421.92188 155.3125 421.79688Q155.84375 421.65625 156.5 421.65625L157.75 421.65625ZM161.90625 420.15625L161.90625 425.5L160.82812 425.5L160.82812 419.15625L161.875 419.15625L161.90625 420.15625ZM163.89062 419.125L163.89062 420.125Q163.75 420.10938 163.625 420.09375Q163.51562 420.07812 163.35938 420.07812Q162.98438 420.07812 162.6875 420.20312Q162.40625 420.3125 162.20312 420.53125Q162.01562 420.73438 161.89062 421.03125Q161.78125 421.32812 161.75 421.67188L161.4375 421.84375Q161.4375 421.26562 161.54688 420.76562Q161.67188 420.26562 161.90625 419.875Q162.15625 419.48438 162.51562 419.26562Q162.89062 419.04688 163.40625 419.04688Q163.53125 419.04688 163.67188 419.07812Q163.82812 419.09375 163.89062 419.125ZM165.90625 420.51562L165.90625 425.5L164.82812 425.5L164.82812 419.15625L165.85938 419.15625L165.90625 420.51562ZM165.65625 422.09375L165.20312 422.07812Q165.20312 421.42188 165.39062 420.875Q165.57812 420.3125 165.92188 419.90625Q166.26562 419.5 166.73438 419.28125Q167.20312 419.04688 167.78125 419.04688Q168.25 419.04688 168.625 419.17188Q169.0 419.29688 169.26562 419.57812Q169.53125 419.84375 169.67188 420.28125Q169.8125 420.71875 169.8125 421.34375L169.8125 425.5L168.71875 425.5L168.71875 421.32812Q168.71875 420.82812 168.57812 420.53125Q168.4375 420.23438 168.15625 420.09375Q167.875 419.95312 167.45312 419.95312Q167.04688 419.95312 166.71875 420.125Q166.39062 420.29688 166.15625 420.59375Q165.92188 420.89062 165.78125 421.28125Q165.65625 421.65625 165.65625 422.09375ZM174.45312 425.625Q173.79688 425.625 173.25 425.40625Q172.71875 425.17188 172.32812 424.76562Q171.95312 424.34375 171.75 423.78125Q171.54688 423.21875 171.54688 422.54688L171.54688 422.3125Q171.54688 421.53125 171.76562 420.92188Q172.0 420.3125 172.39062 419.89062Q172.78125 419.46875 173.28125 419.26562Q173.78125 419.04688 174.3125 419.04688Q175.0 419.04688 175.48438 419.28125Q175.98438 419.51562 176.29688 419.9375Q176.625 420.34375 176.76562 420.92188Q176.92188 421.48438 176.92188 422.14062L176.92188 422.64062L172.1875 422.64062L172.1875 421.75L175.84375 421.75L175.84375 421.67188Q175.8125 421.25 175.65625 420.85938Q175.51562 420.45312 175.1875 420.20312Q174.875 419.9375 174.3125 419.9375Q173.95312 419.9375 173.64062 420.09375Q173.32812 420.25 173.09375 420.5625Q172.875 420.85938 172.75 421.29688Q172.64062 421.73438 172.64062 422.3125L172.64062 422.54688Q172.64062 423.0 172.76562 423.40625Q172.89062 423.79688 173.125 424.09375Q173.375 424.39062 173.71875 424.5625Q174.07812 424.73438 174.51562 424.73438Q175.09375 424.73438 175.48438 424.5Q175.89062 424.26562 176.1875 423.875L176.84375 424.39062Q176.64062 424.70312 176.3125 424.98438Q176.0 425.26562 175.53125 425.45312Q175.07812 425.625 174.45312 425.625ZM181.51562 423.8125Q181.51562 423.57812 181.40625 423.375Q181.3125 423.17188 181.0 423.01562Q180.6875 422.84375 180.0625 422.71875Q179.53125 422.60938 179.10938 422.46875Q178.6875 422.3125 178.39062 422.09375Q178.09375 421.875 177.9375 421.57812Q177.78125 421.28125 177.78125 420.89062Q177.78125 420.51562 177.9375 420.1875Q178.10938 419.84375 178.40625 419.59375Q178.71875 419.32812 179.15625 419.1875Q179.59375 419.04688 180.125 419.04688Q180.89062 419.04688 181.42188 419.3125Q181.96875 419.57812 182.25 420.03125Q182.53125 420.48438 182.53125 421.01562L181.45312 421.01562Q181.45312 420.76562 181.29688 420.51562Q181.14062 420.26562 180.84375 420.10938Q180.54688 419.9375 180.125 419.9375Q179.67188 419.9375 179.39062 420.07812Q179.10938 420.20312 178.98438 420.42188Q178.85938 420.625 178.85938 420.85938Q178.85938 421.04688 178.92188 421.1875Q178.98438 421.3125 179.14062 421.4375Q179.29688 421.54688 179.57812 421.65625Q179.875 421.75 180.32812 421.84375Q181.10938 422.01562 181.60938 422.26562Q182.10938 422.51562 182.35938 422.875Q182.60938 423.21875 182.60938 423.73438Q182.60938 424.15625 182.42188 424.5Q182.25 424.84375 181.92188 425.09375Q181.60938 425.34375 181.15625 425.48438Q180.70312 425.625 180.15625 425.625Q179.3125 425.625 178.73438 425.32812Q178.15625 425.01562 177.85938 424.54688Q177.5625 424.0625 177.5625 423.54688L178.64062 423.54688Q178.67188 423.98438 178.90625 424.25Q179.14062 424.51562 179.46875 424.625Q179.8125 424.71875 180.15625 424.71875Q180.59375 424.71875 180.89062 424.60938Q181.20312 424.48438 181.35938 424.28125Q181.51562 424.07812 181.51562 423.8125ZM186.45312 425.625Q185.79688 425.625 185.25 425.40625Q184.71875 425.17188 184.32812 424.76562Q183.95312 424.34375 183.75 423.78125Q183.54688 423.21875 183.54688 422.54688L183.54688 422.3125Q183.54688 421.53125 183.76562 420.92188Q184.0 420.3125 184.39062 419.89062Q184.78125 419.46875 185.28125 419.26562Q185.78125 419.04688 186.3125 419.04688Q187.0 419.04688 187.48438 419.28125Q187.98438 419.51562 188.29688 419.9375Q188.625 420.34375 188.76562 420.92188Q188.92188 421.48438 188.92188 422.14062L188.92188 422.64062L184.1875 422.64062L184.1875 421.75L187.84375 421.75L187.84375 421.67188Q187.8125 421.25 187.65625 420.85938Q187.51562 420.45312 187.1875 420.20312Q186.875 419.9375 186.3125 419.9375Q185.95312 419.9375 185.64062 420.09375Q185.32812 420.25 185.09375 420.5625Q184.875 420.85938 184.75 421.29688Q184.64062 421.73438 184.64062 422.3125L184.64062 422.54688Q184.64062 423.0 184.76562 423.40625Q184.89062 423.79688 185.125 424.09375Q185.375 424.39062 185.71875 424.5625Q186.07812 424.73438 186.51562 424.73438Q187.09375 424.73438 187.48438 424.5Q187.89062 424.26562 188.1875 423.875L188.84375 424.39062Q188.64062 424.70312 188.3125 424.98438Q188.0 425.26562 187.53125 425.45312Q187.07812 425.625 186.45312 425.625ZM190.90625 420.51562L190.90625 425.5L189.82812 425.5L189.82812 419.15625L190.85938 419.15625L190.90625 420.51562ZM190.65625 422.09375L190.20312 422.07812Q190.20312 421.42188 190.39062 420.875Q190.57812 420.3125 190.92188 419.90625Q191.26562 419.5 191.73438 419.28125Q192.20312 419.04688 192.78125 419.04688Q193.25 419.04688 193.625 419.17188Q194.0 419.29688 194.26562 419.57812Q194.53125 419.84375 194.67188 420.28125Q194.8125 420.71875 194.8125 421.34375L194.8125 425.5L193.71875 425.5L193.71875 421.32812Q193.71875 420.82812 193.57812 420.53125Q193.4375 420.23438 193.15625 420.09375Q192.875 419.95312 192.45312 419.95312Q192.04688 419.95312 191.71875 420.125Q191.39062 420.29688 191.15625 420.59375Q190.92188 420.89062 190.78125 421.28125Q190.65625 421.65625 190.65625 422.09375Z" fill-rule="nonzero"/><path stroke="#cccccc" stroke-width="1.0" stroke-linecap="butt" d="M372.0 305.0L197.0 204.0" fill-rule="nonzero"/><path fill="#000000" d="M153.03125 191.34375Q153.03125 191.04688 152.9375 190.8125Q152.85938 190.57812 152.625 190.39062Q152.40625 190.20312 152.0 190.03125Q151.60938 189.85938 151.01562 189.6875Q150.375 189.5 149.85938 189.28125Q149.35938 189.04688 148.98438 188.75Q148.625 188.4375 148.4375 188.0625Q148.25 187.67188 148.25 187.17188Q148.25 186.67188 148.45312 186.25Q148.65625 185.82812 149.03125 185.51562Q149.42188 185.20312 149.95312 185.03125Q150.48438 184.84375 151.14062 184.84375Q152.10938 184.84375 152.78125 185.21875Q153.45312 185.57812 153.79688 186.17188Q154.15625 186.76562 154.15625 187.42188L153.03125 187.42188Q153.03125 186.95312 152.8125 186.57812Q152.60938 186.20312 152.1875 186.0Q151.78125 185.78125 151.14062 185.78125Q150.54688 185.78125 150.14062 185.96875Q149.75 186.14062 149.5625 186.45312Q149.375 186.76562 149.375 187.15625Q149.375 187.42188 149.48438 187.65625Q149.60938 187.875 149.84375 188.0625Q150.09375 188.25 150.46875 188.40625Q150.84375 188.5625 151.375 188.70312Q152.09375 188.90625 152.625 189.17188Q153.15625 189.42188 153.5 189.73438Q153.84375 190.04688 154.0 190.4375Q154.17188 190.82812 154.17188 191.32812Q154.17188 191.85938 153.95312 192.28125Q153.75 192.70312 153.35938 193.0Q152.96875 193.29688 152.42188 193.46875Q151.875 193.625 151.20312 193.625Q150.60938 193.625 150.03125 193.45312Q149.46875 193.28125 149.0 192.95312Q148.53125 192.625 148.25 192.15625Q147.96875 191.67188 147.96875 191.03125L149.09375 191.03125Q149.09375 191.46875 149.26562 191.78125Q149.4375 192.09375 149.73438 192.29688Q150.03125 192.5 150.40625 192.60938Q150.78125 192.70312 151.20312 192.70312Q151.79688 192.70312 152.20312 192.54688Q152.60938 192.375 152.8125 192.07812Q153.03125 191.76562 153.03125 191.34375ZM155.04688 190.40625L155.04688 190.26562Q155.04688 189.57812 155.23438 189.0Q155.4375 188.40625 155.8125 187.96875Q156.1875 187.53125 156.71875 187.29688Q157.25 187.04688 157.92188 187.04688Q158.57812 187.04688 159.10938 187.29688Q159.65625 187.53125 160.03125 187.96875Q160.40625 188.40625 160.60938 189.0Q160.8125 189.57812 160.8125 190.26562L160.8125 190.40625Q160.8125 191.07812 160.60938 191.67188Q160.40625 192.25 160.03125 192.6875Q159.65625 193.125 159.125 193.375Q158.59375 193.625 157.92188 193.625Q157.26562 193.625 156.71875 193.375Q156.1875 193.125 155.8125 192.6875Q155.4375 192.25 155.23438 191.67188Q155.04688 191.07812 155.04688 190.40625ZM156.125 190.26562L156.125 190.40625Q156.125 190.875 156.23438 191.29688Q156.34375 191.71875 156.5625 192.04688Q156.79688 192.35938 157.14062 192.54688Q157.48438 192.71875 157.92188 192.71875Q158.375 192.71875 158.70312 192.54688Q159.04688 192.35938 159.26562 192.04688Q159.5 191.71875 159.60938 191.29688Q159.71875 190.875 159.71875 190.40625L159.71875 190.26562Q159.71875 189.79688 159.60938 189.375Q159.5 188.95312 159.26562 188.64062Q159.04688 188.3125 158.70312 188.125Q158.375 187.9375 157.92188 187.9375Q157.46875 187.9375 157.125 188.125Q156.79688 188.3125 156.5625 188.64062Q156.34375 188.95312 156.23438 189.375Q156.125 189.79688 156.125 190.26562ZM163.40625 188.51562L163.40625 193.5L162.32812 193.5L162.32812 187.15625L163.35938 187.15625L163.40625 188.51562ZM163.15625 190.09375L162.70312 190.07812Q162.70312 189.42188 162.89062 188.875Q163.07812 188.3125 163.42188 187.90625Q163.76562 187.5 164.23438 187.28125Q164.70312 187.04688 165.28125 187.04688Q165.75 187.04688 166.125 187.17188Q166.5 187.29688 166.76562 187.57812Q167.03125 187.84375 167.17188 188.28125Q167.3125 188.71875 167.3125 189.34375L167.3125 193.5L166.21875 193.5L166.21875 189.32812Q166.21875 188.82812 166.07812 188.53125Q165.9375 188.23438 165.65625 188.09375Q165.375 187.95312 164.95312 187.95312Q164.54688 187.95312 164.21875 188.125Q163.89062 188.29688 163.65625 188.59375Q163.42188 188.89062 163.28125 189.28125Q163.15625 189.65625 163.15625 190.09375ZM173.01562 191.8125Q173.01562 191.57812 172.90625 191.375Q172.8125 191.17188 172.5 191.01562Q172.1875 190.84375 171.5625 190.71875Q171.03125 190.60938 170.60938 190.46875Q170.1875 190.3125 169.89062 190.09375Q169.59375 189.875 169.4375 189.57812Q169.28125 189.28125 169.28125 188.89062Q169.28125 188.51562 169.4375 188.1875Q169.60938 187.84375 169.90625 187.59375Q170.21875 187.32812 170.65625 187.1875Q171.09375 187.04688 171.625 187.04688Q172.39062 187.04688 172.92188 187.3125Q173.46875 187.57812 173.75 188.03125Q174.03125 188.48438 174.03125 189.01562L172.95312 189.01562Q172.95312 188.76562 172.79688 188.51562Q172.64062 188.26562 172.34375 188.10938Q172.04688 187.9375 171.625 187.9375Q171.17188 187.9375 170.89062 188.07812Q170.60938 188.20312 170.48438 188.42188Q170.35938 188.625 170.35938 188.85938Q170.35938 189.04688 170.42188 189.1875Q170.48438 189.3125 170.64062 189.4375Q170.79688 189.54688 171.07812 189.65625Q171.375 189.75 171.82812 189.84375Q172.60938 190.01562 173.10938 190.26562Q173.60938 190.51562 173.85938 190.875Q174.10938 191.21875 174.10938 191.73438Q174.10938 192.15625 173.92188 192.5Q173.75 192.84375 173.42188 193.09375Q173.10938 193.34375 172.65625 193.48438Q172.20312 193.625 171.65625 193.625Q170.8125 193.625 170.23438 193.32812Q169.65625 193.01562 169.35938 192.54688Q169.0625 192.0625 169.0625 191.54688L170.14062 191.54688Q170.17188 191.98438 170.40625 192.25Q170.64062 192.51562 170.96875 192.625Q171.3125 192.71875 171.65625 192.71875Q172.09375 192.71875 172.39062 192.60938Q172.70312 192.48438 172.85938 192.28125Q173.01562 192.07812 173.01562 191.8125ZM177.98438 187.15625L177.98438 187.98438L174.54688 187.98438L174.54688 187.15625L177.98438 187.15625ZM175.71875 185.625L176.79688 185.625L176.79688 191.92188Q176.79688 192.25 176.89062 192.42188Q177.0 192.57812 177.15625 192.64062Q177.3125 192.6875 177.5 192.6875Q177.625 192.6875 177.76562 192.65625Q177.92188 192.625 178.0 192.60938L178.01562 193.5Q177.875 193.54688 177.67188 193.57812Q177.46875 193.625 177.17188 193.625Q176.78125 193.625 176.4375 193.46875Q176.10938 193.29688 175.90625 192.9375Q175.71875 192.5625 175.71875 191.92188L175.71875 185.625ZM180.5 187.15625L180.5 193.5L179.42188 193.5L179.42188 187.15625L180.5 187.15625ZM179.32812 185.48438Q179.32812 185.21875 179.48438 185.03125Q179.65625 184.84375 179.96875 184.84375Q180.28125 184.84375 180.4375 185.03125Q180.60938 185.21875 180.60938 185.48438Q180.60938 185.73438 180.4375 185.92188Q180.28125 186.09375 179.96875 186.09375Q179.65625 186.09375 179.48438 185.92188Q179.32812 185.73438 179.32812 185.48438ZM186.4375 187.15625L187.42188 187.15625L187.42188 193.35938Q187.42188 194.20312 187.07812 194.79688Q186.73438 195.39062 186.125 195.6875Q185.53125 196.0 184.73438 196.0Q184.40625 196.0 183.95312 195.89062Q183.51562 195.79688 183.09375 195.54688Q182.67188 195.3125 182.39062 194.90625L182.95312 194.25Q183.35938 194.73438 183.78125 194.92188Q184.21875 195.10938 184.65625 195.10938Q185.17188 195.10938 185.54688 194.90625Q185.92188 194.71875 186.125 194.34375Q186.32812 193.96875 186.32812 193.42188L186.32812 188.54688L186.4375 187.15625ZM182.0625 190.40625L182.0625 190.28125Q182.0625 189.54688 182.23438 188.95312Q182.42188 188.35938 182.73438 187.9375Q183.0625 187.5 183.51562 187.28125Q183.98438 187.04688 184.57812 187.04688Q185.17188 187.04688 185.60938 187.25Q186.0625 187.45312 186.375 187.85938Q186.6875 188.25 186.875 188.8125Q187.0625 189.35938 187.125 190.0625L187.125 190.60938Q187.0625 191.29688 186.875 191.85938Q186.6875 192.42188 186.375 192.8125Q186.0625 193.20312 185.60938 193.42188Q185.15625 193.625 184.5625 193.625Q183.98438 193.625 183.53125 193.39062Q183.07812 193.14062 182.75 192.70312Q182.42188 192.26562 182.23438 191.6875Q182.0625 191.09375 182.0625 190.40625ZM183.15625 190.28125L183.15625 190.40625Q183.15625 190.875 183.25 191.29688Q183.34375 191.70312 183.54688 192.03125Q183.75 192.34375 184.0625 192.53125Q184.39062 192.70312 184.82812 192.70312Q185.35938 192.70312 185.70312 192.46875Q186.0625 192.23438 186.26562 191.85938Q186.48438 191.48438 186.59375 191.04688L186.59375 189.64062Q186.53125 189.3125 186.39062 189.01562Q186.26562 188.71875 186.0625 188.48438Q185.85938 188.23438 185.54688 188.09375Q185.25 187.95312 184.82812 187.95312Q184.39062 187.95312 184.0625 188.14062Q183.75 188.32812 183.54688 188.65625Q183.34375 188.96875 183.25 189.39062Q183.15625 189.79688 183.15625 190.28125ZM191.95312 193.625Q191.29688 193.625 190.75 193.40625Q190.21875 193.17188 189.82812 192.76562Q189.45312 192.34375 189.25 191.78125Q189.04688 191.21875 189.04688 190.54688L189.04688 190.3125Q189.04688 189.53125 189.26562 188.92188Q189.5 188.3125 189.89062 187.89062Q190.28125 187.46875 190.78125 187.26562Q191.28125 187.04688 191.8125 187.04688Q192.5 187.04688 192.98438 187.28125Q193.48438 187.51562 193.79688 187.9375Q194.125 188.34375 194.26562 188.92188Q194.42188 189.48438 194.42188 190.14062L194.42188 190.64062L189.6875 190.64062L189.6875 189.75L193.34375 189.75L193.34375 189.67188Q193.3125 189.25 193.15625 188.85938Q193.01562 188.45312 192.6875 188.20312Q192.375 187.9375 191.8125 187.9375Q191.45312 187.9375 191.14062 188.09375Q190.82812 188.25 190.59375 188.5625Q190.375 188.85938 190.25 189.29688Q190.14062 189.73438 190.14062 190.3125L190.14062 190.54688Q190.14062 191.0 190.26562 191.40625Q190.39062 191.79688 190.625 192.09375Q190.875 192.39062 191.21875 192.5625Q191.57812 192.73438 192.01562 192.73438Q192.59375 192.73438 192.98438 192.5Q193.39062 192.26562 193.6875 191.875L194.34375 192.39062Q194.14062 192.70312 193.8125 192.98438Q193.5 193.26562 193.03125 193.45312Q192.57812 193.625 191.95312 193.625Z" fill-rule="nonzero"/><path stroke="#cccccc" stroke-width="1.0" stroke-linecap="butt" d="M372.0 305.0L372.0 103.0" fill-rule="nonzero"/><path stroke="#ff0000" stroke-width="2.0" stroke-linecap="butt" stroke-opacity="0.7019608" stroke-dasharray="8.0,6.0,2.0,6.0" d="M372.0 154.0L433.0 270.0L411.0 328.0L372.0 335.0L359.0 313.0L175.0 192.0Z" fill-rule="nonzero"/><path fill="#ff0000" fill-opacity="0.7019608" d="M368.81802 150.81802L372.0 152.875L375.18198 150.81802L373.125 154.0L375.18198 157.18198L372.0 155.125L368.81802 157.18198L370.875 154.0Z" fill-rule="nonzero"/><path fill="#ff0000" fill-opacity="0.7019608" d="M429.81802 266.81802L433.0 268.875L436.18198 266.81802L434.125 270.0L436.18198 273.18198L433.0 271.125L429.81802 273.18198L431.875 270.0Z" fill-rule="nonzero"/><path fill="#ff0000" fill-opacity="0.7019608" d="M407.81802 324.81802L411.0 326.875L414.18198 324.81802L412.125 328.0L414.18198 331.18198L411.0 329.125L407.81802 331.18198L409.875 328.0Z" fill-rule="nonzero"/><path fill="#ff0000" fill-opacity="0.7019608" d="M368.81802 331.81802L372.0 333.875L375.18198 331.81802L373.125 335.0L375.18198 338.18198L372.0 336.125L368.81802 338.18198L370.875 335.0Z" fill-rule="nonzero"/><path fill="#ff0000" fill-opacity="0.7019608" d="M355.81802 309.81802L359.0 311.875L362.18198 309.81802L360.125 313.0L362.18198 316.18198L359.0 314.125L355.81802 316.18198L357.875 313.0Z" fill-rule="nonzero"/><path fill="#ff0000" fill-opacity="0.7019608" d="M171.81802 188.81802L175.0 190.875L178.18198 188.81802L176.125 192.0L178.18198 195.18198L175.0 193.125L171.81802 195.18198L173.875 192.0Z" fill-rule="nonzero"/><path fill="#757575" d="M29.25625 42.75625L31.0375 42.6Q31.1625 43.6625 31.615625 44.35Q32.084373 45.0375 33.053123 45.475Q34.0375 45.896873 35.271873 45.896873Q36.35 45.896873 37.178123 45.584373Q38.00625 45.25625 38.4125 44.69375Q38.81875 44.13125 38.81875 43.459373Q38.81875 42.7875 38.428123 42.2875Q38.0375 41.7875 37.146873 41.44375Q36.56875 41.209373 34.584373 40.740623Q32.615623 40.271873 31.834375 39.85Q30.803125 39.31875 30.303125 38.521873Q29.803125 37.725 29.803125 36.740623Q29.803125 35.646873 30.4125 34.709373Q31.021875 33.771873 32.209373 33.2875Q33.396873 32.7875 34.834373 32.7875Q36.428123 32.7875 37.646873 33.303123Q38.865623 33.81875 39.50625 34.81875Q40.1625 35.803123 40.209373 37.06875L38.396873 37.209373Q38.25625 35.85 37.4125 35.1625Q36.56875 34.459373 34.9125 34.459373Q33.19375 34.459373 32.396873 35.1Q31.615625 35.725 31.615625 36.6Q31.615625 37.38125 32.178123 37.88125Q32.725 38.38125 35.0375 38.896873Q37.35 39.4125 38.209373 39.803123Q39.459373 40.38125 40.053123 41.271873Q40.646873 42.146873 40.646873 43.303123Q40.646873 44.44375 39.990623 45.459373Q39.334373 46.475 38.1 47.0375Q36.88125 47.6 35.35 47.6Q33.4125 47.6 32.1 47.0375Q30.7875 46.459373 30.0375 45.31875Q29.2875 44.178123 29.25625 42.75625ZM46.50625 45.771873L46.75625 47.334373Q46.021873 47.490623 45.428123 47.490623Q44.475 47.490623 43.94375 47.19375Q43.428123 46.88125 43.209373 46.396873Q42.990623 45.896873 42.990623 44.31875L42.990623 38.35L41.709373 38.35L41.709373 36.975L42.990623 36.975L42.990623 34.4125L44.740623 33.35L44.740623 36.975L46.50625 36.975L46.50625 38.35L44.740623 38.35L44.740623 44.4125Q44.740623 45.1625 44.834373 45.38125Q44.928123 45.584373 45.13125 45.725Q45.35 45.85 45.740623 45.85Q46.021873 45.85 46.50625 45.771873ZM55.44375 46.06875Q54.459373 46.896873 53.553123 47.240623Q52.646873 47.584373 51.615623 47.584373Q49.9125 47.584373 48.990623 46.75625Q48.06875 45.9125 48.06875 44.615623Q48.06875 43.85 48.4125 43.225Q48.771873 42.6 49.334373 42.225Q49.896873 41.834373 50.6 41.63125Q51.115623 41.50625 52.1625 41.365623Q54.2875 41.115623 55.2875 40.771873Q55.303123 40.4125 55.303123 40.303123Q55.303123 39.240623 54.803123 38.7875Q54.13125 38.19375 52.803123 38.19375Q51.553123 38.19375 50.959373 38.63125Q50.38125 39.06875 50.1 40.178123L48.38125 39.94375Q48.615623 38.834373 49.146873 38.1625Q49.678123 37.475 50.69375 37.115623Q51.709373 36.740623 53.053123 36.740623Q54.38125 36.740623 55.209373 37.053123Q56.0375 37.365623 56.428123 37.85Q56.81875 38.31875 56.975 39.0375Q57.06875 39.490623 57.06875 40.6625L57.06875 43.00625Q57.06875 45.459373 57.178123 46.115623Q57.2875 46.75625 57.63125 47.35L55.7875 47.35Q55.521873 46.803123 55.44375 46.06875ZM55.2875 42.146873Q54.334373 42.5375 52.4125 42.803123Q51.334373 42.959373 50.88125 43.1625Q50.44375 43.35 50.19375 43.725Q49.94375 44.1 49.94375 44.56875Q49.94375 45.271873 50.475 45.740623Q51.00625 46.209373 52.0375 46.209373Q53.053123 46.209373 53.834373 45.771873Q54.63125 45.31875 55.00625 44.553123Q55.2875 43.94375 55.2875 42.7875L55.2875 42.146873ZM59.646873 47.35L59.646873 36.975L61.225 36.975L61.225 38.553123Q61.834373 37.44375 62.35 37.1Q62.865623 36.740623 63.475 36.740623Q64.36562 36.740623 65.2875 37.303123L64.67812 38.94375Q64.0375 38.553123 63.396873 38.553123Q62.81875 38.553123 62.35 38.9125Q61.896873 39.25625 61.69375 39.865623Q61.4125 40.803123 61.4125 41.9125L61.4125 47.35L59.646873 47.35ZM72.25625 42.75625L74.0375 42.6Q74.1625 43.6625 74.61562 44.35Q75.08437 45.0375 76.05312 45.475Q77.0375 45.896873 78.27187 45.896873Q79.35 45.896873 80.17812 45.584373Q81.00625 45.25625 81.4125 44.69375Q81.81875 44.13125 81.81875 43.459373Q81.81875 42.7875 81.42812 42.2875Q81.0375 41.7875 80.14687 41.44375Q79.56875 41.209373 77.58437 40.740623Q75.61562 40.271873 74.83437 39.85Q73.80312 39.31875 73.30312 38.521873Q72.80312 37.725 72.80312 36.740623Q72.80312 35.646873 73.4125 34.709373Q74.02187 33.771873 75.20937 33.2875Q76.39687 32.7875 77.83437 32.7875Q79.42812 32.7875 80.64687 33.303123Q81.86562 33.81875 82.50625 34.81875Q83.1625 35.803123 83.20937 37.06875L81.39687 37.209373Q81.25625 35.85 80.4125 35.1625Q79.56875 34.459373 77.9125 34.459373Q76.19375 34.459373 75.39687 35.1Q74.61562 35.725 74.61562 36.6Q74.61562 37.38125 75.17812 37.88125Q75.725 38.38125 78.0375 38.896873Q80.35 39.4125 81.20937 39.803123Q82.45937 40.38125 83.05312 41.271873Q83.64687 42.146873 83.64687 43.303123Q83.64687 44.44375 82.99062 45.459373Q82.33437 46.475 81.1 47.0375Q79.88125 47.6 78.35 47.6Q76.4125 47.6 75.1 47.0375Q73.7875 46.459373 73.0375 45.31875Q72.2875 44.178123 72.25625 42.75625ZM89.50625 45.771873L89.75625 47.334373Q89.02187 47.490623 88.42812 47.490623Q87.475 47.490623 86.94375 47.19375Q86.42812 46.88125 86.20937 46.396873Q85.99062 45.896873 85.99062 44.31875L85.99062 38.35L84.70937 38.35L84.70937 36.975L85.99062 36.975L85.99062 34.4125L87.74062 33.35L87.74062 36.975L89.50625 36.975L89.50625 38.35L87.74062 38.35L87.74062 44.4125Q87.74062 45.1625 87.83437 45.38125Q87.92812 45.584373 88.13125 45.725Q88.35 45.85 88.74062 45.85Q89.02187 45.85 89.50625 45.771873ZM91.64687 47.35L91.64687 36.975L93.225 36.975L93.225 38.553123Q93.83437 37.44375 94.35 37.1Q94.86562 36.740623 95.475 36.740623Q96.36562 36.740623 97.2875 37.303123L96.67812 38.94375Q96.0375 38.553123 95.39687 38.553123Q94.81875 38.553123 94.35 38.9125Q93.89687 39.25625 93.69375 39.865623Q93.4125 40.803123 93.4125 41.9125L93.4125 47.35L91.64687 47.35ZM105.45937 47.35L105.45937 45.81875Q104.25625 47.584373 102.17812 47.584373Q101.25625 47.584373 100.45937 47.240623Q99.6625 46.88125 99.27187 46.35Q98.89687 45.81875 98.74062 45.0375Q98.63125 44.521873 98.63125 43.396873L98.63125 36.975L100.38125 36.975L100.38125 42.725Q100.38125 44.1 100.49062 44.584373Q100.6625 45.271873 101.19375 45.678123Q101.74062 46.06875 102.52187 46.06875Q103.31875 46.06875 104.00625 45.6625Q104.70937 45.25625 104.99062 44.56875Q105.2875 43.865623 105.2875 42.5375L105.2875 36.975L107.0375 36.975L107.0375 47.35L105.45937 47.35ZM115.44375 43.553123L117.1625 43.771873Q116.88125 45.56875 115.70937 46.584373Q114.55312 47.584373 112.85 47.584373Q110.725 47.584373 109.42812 46.19375Q108.13125 44.803123 108.13125 42.209373Q108.13125 40.521873 108.67812 39.271873Q109.24062 38.00625 110.38125 37.38125Q111.52187 36.740623 112.86562 36.740623Q114.55312 36.740623 115.61562 37.6Q116.69375 38.459373 117.00625 40.021873L115.2875 40.2875Q115.05312 39.240623 114.42812 38.725Q113.80312 38.19375 112.92812 38.19375Q111.6 38.19375 110.77187 39.146873Q109.94375 40.1 109.94375 42.146873Q109.94375 44.240623 110.74062 45.19375Q111.5375 46.13125 112.83437 46.13125Q113.86562 46.13125 114.55312 45.50625Q115.25625 44.865623 115.44375 43.553123ZM118.67812 47.35L118.67812 33.0375L120.44375 33.0375L120.44375 41.19375L124.6 36.975L126.86562 36.975L122.9125 40.81875L127.27187 47.35L125.1 47.35L121.67812 42.053123L120.44375 43.240623L120.44375 47.35L118.67812 47.35Z" fill-rule="nonzero"/></svg>