<svg version="1.1" viewBox="0.0 0.0 744.0 567.0" fill="none" stroke="none" stroke-linecap="square" stroke-miterlimit="10" width="744" height="567" xmlns:xlink="http://www.w3.org/1999/xlink" xmlns="http://www.w3.org/2000/svg"><path fill="#ffffff" d="M0 0L744.0 0L744.0 567.0L0 567.0L0 0Z" fill-rule="nonzero"/><path fill="#ffffff" d="M28.35 71.25L715.64996 71.25L715.64996 538.65L28.35 538.65L28.35 71.25Z" fill-rule="nonzero"/><path stroke="#cccccc" stroke-width="1.0" stroke-linecap="butt" d="M372.0 305.0C372.0 305.0 372.0 305.0 372.0 305.0C372.0 305.0 372.0 305.0 372.0 305.0C372.0 305.0 372.0 305.0 372.0 305.0C372.0 305.0 372.0 305.0 372.0 305.0" fill-rule="nonzero"/><path fill="#000000" d="M353.0625 297.04688L353.0625 298.35938Q353.0625 299.40625 352.875 300.125Q352.6875 300.84375 352.32812 301.28125Q351.98438 301.71875 351.48438 301.92188Q351.0 302.125 350.375 302.125Q349.89062 302.125 349.46875 302.0Q349.04688 301.875 348.71875 301.60938Q348.39062 301.32812 348.15625 300.89062Q347.92188 300.45312 347.79688 299.82812Q347.67188 299.1875 347.67188 298.35938L347.67188 297.04688Q347.67188 296.0 347.85938 295.29688Q348.0625 294.59375 348.40625 294.15625Q348.76562 293.71875 349.25 293.53125Q349.75 293.34375 350.35938 293.34375Q350.85938 293.34375 351.28125 293.46875Q351.70312 293.59375 352.03125 293.85938Q352.35938 294.10938 352.57812 294.54688Q352.8125 294.96875 352.9375 295.59375Q353.0625 296.21875 353.0625 297.04688ZM351.96875 298.53125L351.96875 296.875Q351.96875 296.29688 351.90625 295.85938Q351.84375 295.42188 351.70312 295.10938Q351.57812 294.79688 351.375 294.60938Q351.1875 294.42188 350.9375 294.32812Q350.6875 294.23438 350.35938 294.23438Q349.98438 294.23438 349.67188 294.375Q349.375 294.51562 349.17188 294.82812Q348.96875 295.14062 348.85938 295.65625Q348.76562 296.15625 348.76562 296.875L348.76562 298.53125Q348.76562 299.10938 348.82812 299.54688Q348.90625 299.98438 349.03125 300.3125Q349.17188 300.625 349.35938 300.82812Q349.5625 301.03125 349.8125 301.125Q350.0625 301.21875 350.375 301.21875Q350.78125 301.21875 351.07812 301.07812Q351.375 300.92188 351.57812 300.59375Q351.78125 300.26562 351.875 299.76562Q351.96875 299.25 351.96875 298.53125ZM355.8125 300.70312L355.8125 301.57812Q355.8125 302.125 355.53125 302.71875Q355.26562 303.3125 354.78125 303.70312L354.17188 303.28125Q354.35938 303.01562 354.48438 302.75Q354.60938 302.48438 354.67188 302.20312Q354.75 301.92188 354.75 301.59375L354.75 300.70312L355.8125 300.70312ZM362.0625 297.04688L362.0625 298.35938Q362.0625 299.40625 361.875 300.125Q361.6875 300.84375 361.32812 301.28125Q360.98438 301.71875 360.48438 301.92188Q360.0 302.125 359.375 302.125Q358.89062 302.125 358.46875 302.0Q358.04688 301.875 357.71875 301.60938Q357.39062 301.32812 357.15625 300.89062Q356.92188 300.45312 356.79688 299.82812Q356.67188 299.1875 356.67188 298.35938L356.67188 297.04688Q356.67188 296.0 356.85938 295.29688Q357.0625 294.59375 357.40625 294.15625Q357.76562 293.71875 358.25 293.53125Q358.75 293.34375 359.35938 293.34375Q359.85938 293.34375 360.28125 293.46875Q360.70312 293.59375 361.03125 293.85938Q361.35938 294.10938 361.57812 294.54688Q361.8125 294.96875 361.9375 295.59375Q362.0625 296.21875 362.0625 297.04688ZM360.96875 298.53125L360.96875 296.875Q360.96875 296.29688 360.90625 295.85938Q360.84375 295.42188 360.70312 295.10938Q360.57812 294.79688 360.375 294.60938Q360.1875 294.42188 359.9375 294.32812Q359.6875 294.23438 359.35938 294.23438Q358.98438 294.23438 358.67188 294.375Q358.375 294.51562 358.17188 294.82812Q357.96875 295.14062 357.85938 295.65625Q357.76562 296.15625 357.76562 296.875L357.76562 298.53125Q357.76562 299.10938 357.82812 299.54688Q357.90625 299.98438 358.03125 300.3125Q358.17188 300.625 358.35938 300.82812Q358.5625 301.03125 358.8125 301.125Q359.0625 301.21875 359.375 301.21875Q359.78125 301.21875 360.07812 301.07812Q360.375 300.92188 360.57812 300.59375Q360.78125 300.26562 360.875 299.76562Q360.96875 299.25 360.96875 298.53125ZM369.0625 297.04688L369.0625 298.35938Q369.0625 299.40625 368.875 300.125Q368.6875 300.84375 368.32812 301.28125Q367.98438 301.71875 367.48438 301.92188Q367.0 302.125 366.375 302.125Q365.89062 302.125 365.46875 302.0Q365.04688 301.875 364.71875 301.60938Q364.39062 301.32812 364.15625 300.89062Q363.92188 300.45312 363.79688 299.82812Q363.67188 299.1875 363.67188 298.35938L363.67188 297.04688Q363.67188 296.0 363.85938 295.29688Q364.0625 294.59375 364.40625 294.15625Q364.76562 293.71875 365.25 293.53125Q365.75 293.34375 366.35938 293.34375Q366.85938 293.34375 367.28125 293.46875Q367.70312 293.59375 368.03125 293.85938Q368.35938 294.10938 368.57812 294.54688Q368.8125 294.96875 368.9375 295.59375Q369.0625 296.21875 369.0625 297.04688ZM367.96875 298.53125L367.96875 296.875Q367.96875 296.29688 367.90625 295.85938Q367.84375 295.42188 367.70312 295.10938Q367.57812 294.79688 367.375 294.60938Q367.1875 294.42188 366.9375 294.32812Q366.6875 294.23438 366.35938 294.23438Q365.98438 294.23438 365.67188 294.375Q365.375 294.51562 365.17188 294.82812Q364.96875 295.14062 364.85938 295.65625Q364.76562 296.15625 364.76562 296.875L364.76562 298.53125Q364.76562 299.10938 364.82812 299.54688Q364.90625 299.98438 365.03125 300.3125Q365.17188 300.625 365.35938 300.82812Q365.5625 301.03125 365.8125 301.125Q366.0625 301.21875 366.375 301.21875Q366.78125 301.21875 367.07812 301.07812Q367.375 300.92188 367.57812 300.59375Q367.78125 300.26562 367.875 299.76562Q367.96875 299.25 367.96875 298.53125Z" fill-rule="nonzero"/><path stroke="#cccccc" stroke-width="1.0" stroke-linecap="butt" d="M422.425 305.0C422.425 277.15103 399.84897 254.575 372.0 254.575C344.15103 254.575 321.575 277.15103 321.575 305.0C321.575 332.84897 344.15103 355.425 372.0 355.425C399.84897 355.425 422.425 332.84897 422.425 305.0" fill-rule="nonzero"/><path fill="#000000" d="M353.0625 246.62187L353.0625 247.93437Q353.0625 248.98125 352.875 249.7Q352.6875 250.41875 352.32812 250.85625Q351.98438 251.29375 351.48438 251.49687Q351.0 251.7 350.375 251.7Q349.89062 251.7 349.46875 251.575Q349.04688 251.45 348.71875 251.18437Q348.39062 250.90312 348.15625 250.46562Q347.92188 250.02812 347.79688 249.40312Q347.67188 248.7625 347.67188 247.93437L347.67188 246.62187Q347.67188 245.575 347.85938 244.87187Q348.0625 244.16875 348.40625 243.73125Q348.76562 243.29375 349.25 243.10625Q349.75 242.91875 350.35938 242.91875Q350.85938 242.91875 351.28125 243.04375Q351.70312 243.16875 352.03125 243.43437Q352.35938 243.68437 352.57812 244.12187Q352.8125 244.54375 352.9375 245.16875Q353.0625 245.79375 353.0625 246.62187ZM351.96875 248.10625L351.96875 246.45Q351.96875 245.87187 351.90625 245.43437Q351.84375 244.99687 351.70312 244.68437Q351.57812 244.37187 351.375 244.18437Q351.1875 243.99687 350.9375 243.90312Q350.6875 243.80937 350.35938 243.80937Q349.98438 243.80937 349.67188 243.95Q349.375 244.09062 349.17188 244.40312Q348.96875 244.71562 348.85938 245.23125Q348.76562 245.73125 348.76562 246.45L348.76562 248.10625Q348.76562 248.68437 348.82812 249.12187Q348.90625 249.55937 349.03125 249.8875Q349.17188 250.2 349.35938 250.40312Q349.5625 250.60625 349.8125 250.7Q350.0625 250.79375 350.375 250.79375Q350.78125 250.79375 351.07812 250.65312Q351.375 250.49687 351.57812 250.16875Q351.78125 249.84062 351.875 249.34062Q351.96875 248.825 351.96875 248.10625ZM355.8125 250.27812L355.8125 251.15312Q355.8125 251.7 355.53125 252.29375Q355.26562 252.8875 354.78125 253.27812L354.17188 252.85625Q354.35938 252.59062 354.48438 252.325Q354.60938 252.05937 354.67188 251.77812Q354.75 251.49687 354.75 251.16875L354.75 250.27812L355.8125 250.27812ZM362.0625 246.62187L362.0625 247.93437Q362.0625 248.98125 361.875 249.7Q361.6875 250.41875 361.32812 250.85625Q360.98438 251.29375 360.48438 251.49687Q360.0 251.7 359.375 251.7Q358.89062 251.7 358.46875 251.575Q358.04688 251.45 357.71875 251.18437Q357.39062 250.90312 357.15625 250.46562Q356.92188 250.02812 356.79688 249.40312Q356.67188 248.7625 356.67188 247.93437L356.67188 246.62187Q356.67188 245.575 356.85938 244.87187Q357.0625 244.16875 357.40625 243.73125Q357.76562 243.29375 358.25 243.10625Q358.75 242.91875 359.35938 242.91875Q359.85938 242.91875 360.28125 243.04375Q360.70312 243.16875 361.03125 243.43437Q361.35938 243.68437 361.57812 244.12187Q361.8125 244.54375 361.9375 245.16875Q362.0625 245.79375 362.0625 246.62187ZM360.96875 248.10625L360.96875 246.45Q360.96875 245.87187 360.90625 245.43437Q360.84375 244.99687 360.70312 244.68437Q360.57812 244.37187 360.375 244.18437Q360.1875 243.99687 359.9375 243.90312Q359.6875 243.80937 359.35938 243.80937Q358.98438 243.80937 358.67188 243.95Q358.375 244.09062 358.17188 244.40312Q357.96875 244.71562 357.85938 245.23125Q357.76562 245.73125 357.76562 246.45L357.76562 248.10625Q357.76562 248.68437 357.82812 249.12187Q357.90625 249.55937 358.03125 249.8875Q358.17188 250.2 358.35938 250.40312Q358.5625 250.60625 358.8125 250.7Q359.0625 250.79375 359.375 250.79375Q359.78125 250.79375 360.07812 250.65312Q360.375 250.49687 360.57812 250.16875Q360.78125 249.84062 360.875 249.34062Q360.96875 248.825 360.96875 248.10625ZM365.07812 247.5125L364.21875 247.29375L364.64062 243.04375L369.01562 243.04375L369.01562 244.04375L365.5625 244.04375L365.29688 246.37187Q365.53125 246.23125 365.89062 246.12187Q366.26562 245.99687 366.73438 245.99687Q367.3125 245.99687 367.78125 246.2Q368.25 246.40312 368.57812 246.77812Q368.92188 247.15312 369.09375 247.68437Q369.26562 248.2 369.26562 248.85625Q369.26562 249.46562 369.09375 249.98125Q368.9375 250.49687 368.59375 250.8875Q368.26562 251.2625 367.75 251.48125Q367.25 251.7 366.5625 251.7Q366.04688 251.7 365.59375 251.55937Q365.14062 251.40312 364.76562 251.10625Q364.40625 250.80937 364.1875 250.37187Q363.96875 249.93437 363.90625 249.325L364.9375 249.325Q365.0 249.80937 365.20312 250.1375Q365.42188 250.46562 365.76562 250.6375Q366.10938 250.79375 366.5625 250.79375Q366.95312 250.79375 367.25 250.66875Q367.54688 250.52812 367.75 250.27812Q367.96875 250.02812 368.07812 249.66875Q368.1875 249.30937 368.1875 248.87187Q368.1875 248.46562 368.0625 248.12187Q367.95312 247.77812 367.73438 247.52812Q367.51562 247.2625 367.20312 247.12187Q366.89062 246.96562 366.46875 246.96562Q365.9375 246.96562 365.65625 247.12187Q365.375 247.2625 365.07812 247.5125Z" fill-rule="nonzero"/><path stroke="#cccccc" stroke-width="1.0" stroke-linecap="butt" d="M472.85 305.0C472.85 249.30208 427.6979 204.15 372.0 204.15C316.3021 204.15 271.15 249.30208 271.15 305.0C271.15 360.6979 316.3021 405.85 372.0 405.85C427.6979 405.85 472.85 360.6979 472.85 305.0" fill-rule="nonzero"/><path fill="#000000" d="M353.0625 196.19687L353.0625 197.50937Q353.0625 198.55624 352.875 199.275Q352.6875 199.99374 352.32812 200.43124Q351.98438 200.86874 351.48438 201.07187Q351.0 201.275 350.375 201.275Q349.89062 201.275 349.46875 201.15Q349.04688 201.025 348.71875 200.75937Q348.39062 200.47812 348.15625 200.04062Q347.92188 199.60312 347.79688 198.97812Q347.67188 198.3375 347.67188 197.50937L347.67188 196.19687Q347.67188 195.15 347.85938 194.44687Q348.0625 193.74374 348.40625 193.30624Q348.76562 192.86874 349.25 192.68124Q349.75 192.49374 350.35938 192.49374Q350.85938 192.49374 351.28125 192.61874Q351.70312 192.74374 352.03125 193.00937Q352.35938 193.25937 352.57812 193.69687Q352.8125 194.11874 352.9375 194.74374Q353.0625 195.36874 353.0625 196.19687ZM351.96875 197.68124L351.96875 196.025Q351.96875 195.44687 351.90625 195.00937Q351.84375 194.57187 351.70312 194.25937Q351.57812 193.94687 351.375 193.75937Q351.1875 193.57187 350.9375 193.47812Q350.6875 193.38437 350.35938 193.38437Q349.98438 193.38437 349.67188 193.525Q349.375 193.66562 349.17188 193.97812Q348.96875 194.29062 348.85938 194.80624Q348.76562 195.30624 348.76562 196.025L348.76562 197.68124Q348.76562 198.25937 348.82812 198.69687Q348.90625 199.13437 349.03125 199.4625Q349.17188 199.775 349.35938 199.97812Q349.5625 200.18124 349.8125 200.275Q350.0625 200.36874 350.375 200.36874Q350.78125 200.36874 351.07812 200.22812Q351.375 200.07187 351.57812 199.74374Q351.78125 199.41562 351.875 198.91562Q351.96875 198.4 351.96875 197.68124ZM355.8125 199.85312L355.8125 200.72812Q355.8125 201.275 355.53125 201.86874Q355.26562 202.4625 354.78125 202.85312L354.17188 202.43124Q354.35938 202.16562 354.48438 201.9Q354.60938 201.63437 354.67188 201.35312Q354.75 201.07187 354.75 200.74374L354.75 199.85312L355.8125 199.85312ZM360.26562 192.57187L360.26562 201.15L359.1875 201.15L359.1875 193.93124L357.0 194.72812L357.0 193.74374L360.10938 192.57187L360.26562 192.57187ZM369.0625 196.19687L369.0625 197.50937Q369.0625 198.55624 368.875 199.275Q368.6875 199.99374 368.32812 200.43124Q367.98438 200.86874 367.48438 201.07187Q367.0 201.275 366.375 201.275Q365.89062 201.275 365.46875 201.15Q365.04688 201.025 364.71875 200.75937Q364.39062 200.47812 364.15625 200.04062Q363.92188 199.60312 363.79688 198.97812Q363.67188 198.3375 363.67188 197.50937L363.67188 196.19687Q363.67188 195.15 363.85938 194.44687Q364.0625 193.74374 364.40625 193.30624Q364.76562 192.86874 365.25 192.68124Q365.75 192.49374 366.35938 192.49374Q366.85938 192.49374 367.28125 192.61874Q367.70312 192.74374 368.03125 193.00937Q368.35938 193.25937 368.57812 193.69687Q368.8125 194.11874 368.9375 194.74374Q369.0625 195.36874 369.0625 196.19687ZM367.96875 197.68124L367.96875 196.025Q367.96875 195.44687 367.90625 195.00937Q367.84375 194.57187 367.70312 194.25937Q367.57812 193.94687 367.375 193.75937Q367.1875 193.57187 366.9375 193.47812Q366.6875 193.38437 366.35938 193.38437Q365.98438 193.38437 365.67188 193.525Q365.375 193.66562 365.17188 193.97812Q364.96875 194.29062 364.85938 194.80624Q364.76562 195.30624 364.76562 196.025L364.76562 197.68124Q364.76562 198.25937 364.82812 198.69687Q364.90625 199.13437 365.03125 199.4625Q365.17188 199.775 365.35938 199.97812Q365.5625 200.18124 365.8125 200.275Q366.0625 200.36874 366.375 200.36874Q366.78125 200.36874 367.07812 200.22812Q367.375 200.07187 367.57812 199.74374Q367.78125 199.41562 367.875 198.91562Q367.96875 198.4 367.96875 197.68124Z" fill-rule="nonzero"/><path stroke="#cccccc" stroke-width="1.0" stroke-linecap="butt" d="M523.275 305.0C523.275 221.45312 455.54688 153.725 372.0 153.725C288.45312 153.725 220.725 221.45312 220.725 305.0C220.725 388.54688 288.45312 456.275 372.0 456.275C455.54688 456.275 523.275 388.54688 523.275 305.0" fill-rule="nonzero"/><path fill="#000000" d="M353.0625 145.77188L353.0625 147.08438Q353.0625 148.13126 352.875 148.85Q352.6875 149.56876 352.32812 150.00626Q351.98438 150.44376 351.48438 150.64688Q351.0 150.85 350.375 150.85Q349.89062 150.85 349.46875 150.725Q349.04688 150.6 348.71875 150.33438Q348.39062 150.05313 348.15625 149.61563Q347.92188 149.17813 347.79688 148.55313Q347.67188 147.9125 347.67188 147.08438L347.67188 145.77188Q347.67188 144.725 347.85938 144.02188Q348.0625 143.31876 348.40625 142.88126Q348.76562 142.44376 349.25 142.25626Q349.75 142.06876 350.35938 142.06876Q350.85938 142.06876 351.28125 142.19376Q351.70312 142.31876 352.03125 142.58438Q352.35938 142.83438 352.57812 143.27188Q352.8125 143.69376 352.9375 144.31876Q353.0625 144.94376 353.0625 145.77188ZM351.96875 147.25626L351.96875 145.6Q351.96875 145.02188 351.90625 144.58438Q351.84375 144.14688 351.70312 143.83438Q351.57812 143.52188 351.375 143.33438Q351.1875 143.14688 350.9375 143.05313Q350.6875 142.95938 350.35938 142.95938Q349.98438 142.95938 349.67188 143.1Q349.375 143.24063 349.17188 143.55313Q348.96875 143.86563 348.85938 144.38126Q348.76562 144.88126 348.76562 145.6L348.76562 147.25626Q348.76562 147.83438 348.82812 148.27188Q348.90625 148.70938 349.03125 149.0375Q349.17188 149.35 349.35938 149.55313Q349.5625 149.75626 349.8125 149.85Q350.0625 149.94376 350.375 149.94376Q350.78125 149.94376 351.07812 149.80313Q351.375 149.64688 351.57812 149.31876Q351.78125 148.99063 351.875 148.49063Q351.96875 147.975 351.96875 147.25626ZM355.8125 149.42813L355.8125 150.30313Q355.8125 150.85 355.53125 151.44376Q355.26562 152.0375 354.78125 152.42813L354.17188 152.00626Q354.35938 151.74063 354.48438 151.475Q354.60938 151.20938 354.67188 150.92813Q354.75 150.64688 354.75 150.31876L354.75 149.42813L355.8125 149.42813ZM360.26562 142.14688L360.26562 150.725L359.1875 150.725L359.1875 143.50626L357.0 144.30313L357.0 143.31876L360.10938 142.14688L360.26562 142.14688ZM365.07812 146.6625L364.21875 146.44376L364.64062 142.19376L369.01562 142.19376L369.01562 143.19376L365.5625 143.19376L365.29688 145.52188Q365.53125 145.38126 365.89062 145.27188Q366.26562 145.14688 366.73438 145.14688Q367.3125 145.14688 367.78125 145.35Q368.25 145.55313 368.57812 145.92813Q368.92188 146.30313 369.09375 146.83438Q369.26562 147.35 369.26562 148.00626Q369.26562 148.61563 369.09375 149.13126Q368.9375 149.64688 368.59375 150.0375Q368.26562 150.4125 367.75 150.63126Q367.25 150.85 366.5625 150.85Q366.04688 150.85 365.59375 150.70938Q365.14062 150.55313 364.76562 150.25626Q364.40625 149.95938 364.1875 149.52188Q363.96875 149.08438 363.90625 148.475L364.9375 148.475Q365.0 148.95938 365.20312 149.2875Q365.42188 149.61563 365.76562 149.7875Q366.10938 149.94376 366.5625 149.94376Q366.95312 149.94376 367.25 149.81876Q367.54688 149.67813 367.75 149.42813Q367.96875 149.17813 368.07812 148.81876Q368.1875 148.45938 368.1875 148.02188Q368.1875 147.61563 368.0625 147.27188Q367.95312 146.92813 367.73438 146.67813Q367.51562 146.4125 367.20312 146.27188Q366.89062 146.11563 366.46875 146.11563Q365.9375 146.11563 365.65625 146.27188Q365.375 146.4125 365.07812 146.6625Z" fill-rule="nonzero"/><path stroke="#cccccc" stroke-width="1.0" stroke-linecap="butt" d="M573.7 305.0C573.7 193.60417 483.39584 103.3 372.0 103.3C260.60416 103.3 170.3 193.60417 170.3 305.0C170.3 416.39584 260.60416 506.7 372.0 506.7C483.39584 506.7 573.7 416.39584 573.7 305.0" fill-rule="nonzero"/><path fill="#000000" d="M353.0625 95.34688L353.0625 96.65938Q353.0625 97.70625 352.875 98.425Q352.6875 99.14375 352.32812 99.58125Q351.98438 100.01875 351.48438 100.22188Q351.0 100.425 350.375 100.425Q349.89062 100.425 349.46875 100.3Q349.04688 100.175 348.71875 99.90938Q348.39062 99.62813 348.15625 99.19063Q347.92188 98.75313 347.79688 98.12813Q347.67188 97.4875 347.67188 96.65938L347.67188 95.34688Q347.67188 94.3 347.85938 93.59688Q348.0625 92.89375 348.40625 92.45625Q348.76562 92.01875 349.25 91.83125Q349.75 91.64375 350.35938 91.64375Q350.85938 91.64375 351.28125 91.76875Q351.70312 91.89375 352.03125 92.15938Q352.35938 92.40938 352.57812 92.84688Q352.8125 93.26875 352.9375 93.89375Q353.0625 94.51875 353.0625 95.34688ZM351.96875 96.83125L351.96875 95.175Q351.96875 94.59688 351.90625 94.15938Q351.84375 93.72188 351.70312 93.40938Q351.57812 93.09688 351.375 92.90938Q351.1875 92.72188 350.9375 92.62813Q350.6875 92.53438 350.35938 92.53438Q349.98438 92.53438 349.67188 92.675Q349.375 92.81563 349.17188 93.12813Q348.96875 93.44063 348.85938 93.95625Q348.76562 94.45625 348.76562 95.175L348.76562 96.83125Q348.76562 97.40938 348.82812 97.84688Q348.90625 98.28438 349.03125 98.6125Q349.17188 98.925 349.35938 99.12813Q349.5625 99.33125 349.8125 99.425Q350.0625 99.51875 350.375 99.51875Q350.78125 99.51875 351.07812 99.37813Q351.375 99.22188 351.57812 98.89375Q351.78125 98.56563 351.875 98.06563Q351.96875 97.55 351.96875 96.83125ZM355.8125 99.00313L355.8125 99.87813Q355.8125 100.425 355.53125 101.01875Q355.26562 101.6125 354.78125 102.00313L354.17188 101.58125Q354.35938 101.31563 354.48438 101.05Q354.60938 100.78438 354.67188 100.50313Q354.75 100.22188 354.75 99.89375L354.75 99.00313L355.8125 99.00313ZM362.29688 99.40938L362.29688 100.3L356.71875 100.3L356.71875 99.51875L359.51562 96.40938Q360.03125 95.83125 360.3125 95.44063Q360.59375 95.03438 360.70312 94.72188Q360.82812 94.39375 360.82812 94.06563Q360.82812 93.64375 360.65625 93.3Q360.48438 92.95625 360.14062 92.75313Q359.8125 92.53438 359.32812 92.53438Q358.76562 92.53438 358.39062 92.76875Q358.01562 92.9875 357.82812 93.37813Q357.64062 93.76875 357.64062 94.26875L356.54688 94.26875Q356.54688 93.55 356.85938 92.95625Q357.1875 92.3625 357.79688 92.00313Q358.42188 91.64375 359.32812 91.64375Q360.14062 91.64375 360.71875 91.94063Q361.29688 92.22188 361.59375 92.7375Q361.90625 93.2375 361.90625 93.925Q361.90625 94.3 361.78125 94.69063Q361.65625 95.06563 361.4375 95.45625Q361.21875 95.83125 360.92188 96.20625Q360.64062 96.56563 360.3125 96.925L358.01562 99.40938L362.29688 99.40938ZM369.0625 95.34688L369.0625 96.65938Q369.0625 97.70625 368.875 98.425Q368.6875 99.14375 368.32812 99.58125Q367.98438 100.01875 367.48438 100.22188Q367.0 100.425 366.375 100.425Q365.89062 100.425 365.46875 100.3Q365.04688 100.175 364.71875 99.90938Q364.39062 99.62813 364.15625 99.19063Q363.92188 98.75313 363.79688 98.12813Q363.67188 97.4875 363.67188 96.65938L363.67188 95.34688Q363.67188 94.3 363.85938 93.59688Q364.0625 92.89375 364.40625 92.45625Q364.76562 92.01875 365.25 91.83125Q365.75 91.64375 366.35938 91.64375Q366.85938 91.64375 367.28125 91.76875Q367.70312 91.89375 368.03125 92.15938Q368.35938 92.40938 368.57812 92.84688Q368.8125 93.26875 368.9375 93.89375Q369.0625 94.51875 369.0625 95.34688ZM367.96875 96.83125L367.96875 95.175Q367.96875 94.59688 367.90625 94.15938Q367.84375 93.72188 367.70312 93.40938Q367.57812 93.09688 367.375 92.90938Q367.1875 92.72188 366.9375 92.62813Q366.6875 92.53438 366.35938 92.53438Q365.98438 92.53438 365.67188 92.675Q365.375 92.81563 365.17188 93.12813Q364.96875 93.44063 364.85938 93.95625Q364.76562 94.45625 364.76562 95.175L364.76562 96.83125Q364.76562 97.40938 364.82812 97.84688Q364.90625 98.28438 365.03125 98.6125Q365.17188 98.925 365.35938 99.12813Q365.5625 99.33125 365.8125 99.425Q366.0625 99.51875 366.375 99.51875Q366.78125 99.51875 367.07812 99.37813Q367.375 99.22188 367.57812 98.89375Q367.78125 98.56563 367.875 98.06563Q367.96875 97.55 367.96875 96.83125Z" fill-rule="nonzero"/><path stroke="#cccccc" stroke-width="1.0" stroke-linecap="butt" d="M372.0 305.0L372.0 103.0" fill-rule="nonzero"/><path fill="#000000" d="M353.84375 68.96875L354.9375 68.96875L357.73438 75.921875L360.53125 68.96875L361.625 68.96875L358.15625 77.5L357.3125 77.5L353.84375 68.96875ZM353.48438 68.96875L354.45312 68.96875L354.60938 74.171875L354.60938 77.5L353.48438 77.5L353.48438 68.96875ZM361.01562 68.96875L361.98438 68.96875L361.98438 77.5L360.85938 77.5L360.85938 74.171875L361.01562 68.96875ZM365.10938 76.84375L366.875 71.15625L368.03125 71.15625L365.48438 78.484375Q365.40625 78.71875 365.25 78.984375Q365.10938 79.265625 364.89062 79.5Q364.67188 79.75 364.35938 79.90625Q364.04688 80.0625 363.60938 80.0625Q363.48438 80.0625 363.28125 80.015625Q363.07812 79.984375 363.0 79.96875L363.0 79.09375Q363.04688 79.09375 363.14062 79.09375Q363.25 79.109375 363.28125 79.109375Q363.65625 79.109375 363.90625 79.015625Q364.17188 78.921875 364.34375 78.6875Q364.53125 78.46875 364.65625 78.078125L365.10938 76.84375ZM363.8125 71.15625L365.45312 76.078125L365.73438 77.21875L364.96875 77.625L362.625 71.15625L363.8125 71.15625ZM370.40625 72.15625L370.40625 77.5L369.32812 77.5L369.32812 71.15625L370.375 71.15625L370.40625 72.15625ZM372.39062 71.125L372.39062 72.125Q372.25 72.109375 372.125 72.09375Q372.01562 72.078125 371.85938 72.078125Q371.48438 72.078125 371.1875 72.203125Q370.90625 72.3125 370.70312 72.53125Q370.51562 72.734375 370.39062 73.03125Q370.28125 73.328125 370.25 73.671875L369.9375 73.84375Q369.9375 73.265625 370.04688 72.765625Q370.17188 72.265625 370.40625 71.875Q370.65625 71.484375 371.01562 71.265625Q371.39062 71.046875 371.90625 71.046875Q372.03125 71.046875 372.17188 71.078125Q372.32812 71.09375 372.39062 71.125ZM375.85938 76.71875Q376.25 76.71875 376.57812 76.5625Q376.90625 76.40625 377.10938 76.140625Q377.32812 75.859375 377.35938 75.5L378.39062 75.5Q378.35938 76.0625 378.0 76.546875Q377.65625 77.03125 377.09375 77.328125Q376.53125 77.625 375.85938 77.625Q375.15625 77.625 374.625 77.375Q374.09375 77.109375 373.73438 76.671875Q373.39062 76.234375 373.21875 75.671875Q373.04688 75.09375 373.04688 74.453125L373.04688 74.203125Q373.04688 73.5625 373.21875 73.0Q373.39062 72.421875 373.73438 71.984375Q374.09375 71.546875 374.625 71.296875Q375.15625 71.046875 375.85938 71.046875Q376.60938 71.046875 377.15625 71.34375Q377.71875 71.640625 378.03125 72.171875Q378.35938 72.6875 378.39062 73.34375L377.35938 73.34375Q377.32812 72.953125 377.14062 72.640625Q376.95312 72.3125 376.625 72.125Q376.29688 71.9375 375.85938 71.9375Q375.35938 71.9375 375.01562 72.140625Q374.6875 72.328125 374.48438 72.65625Q374.29688 72.984375 374.20312 73.390625Q374.125 73.796875 374.125 74.203125L374.125 74.453125Q374.125 74.875 374.20312 75.28125Q374.29688 75.671875 374.48438 76.0Q374.6875 76.328125 375.01562 76.53125Q375.35938 76.71875 375.85938 76.71875ZM381.95312 77.625Q381.29688 77.625 380.75 77.40625Q380.21875 77.171875 379.82812 76.765625Q379.45312 76.34375 379.25 75.78125Q379.04688 75.21875 379.04688 74.546875L379.04688 74.3125Q379.04688 73.53125 379.26562 72.921875Q379.5 72.3125 379.89062 71.890625Q380.28125 71.46875 380.78125 71.265625Q381.28125 71.046875 381.8125 71.046875Q382.5 71.046875 382.98438 71.28125Q383.48438 71.515625 383.79688 71.9375Q384.125 72.34375 384.26562 72.921875Q384.42188 73.484375 384.42188 74.140625L384.42188 74.640625L379.6875 74.640625L379.6875 73.75L383.34375 73.75L383.34375 73.671875Q383.3125 73.25 383.15625 72.859375Q383.01562 72.453125 382.6875 72.203125Q382.375 71.9375 381.8125 71.9375Q381.45312 71.9375 381.14062 72.09375Q380.82812 72.25 380.59375 72.5625Q380.375 72.859375 380.25 73.296875Q380.14062 73.734375 380.14062 74.3125L380.14062 74.546875Q380.14062 75.0 380.26562 75.40625Q380.39062 75.796875 380.625 76.09375Q380.875 76.390625 381.21875 76.5625Q381.57812 76.734375 382.01562 76.734375Q382.59375 76.734375 382.98438 76.5Q383.39062 76.265625 383.6875 75.875L384.34375 76.390625Q384.14062 76.703125 383.8125 76.984375Q383.5 77.265625 383.03125 77.453125Q382.57812 77.625 381.95312 77.625ZM386.40625 72.515625L386.40625 77.5L385.32812 77.5L385.32812 71.15625L386.35938 71.15625L386.40625 72.515625ZM386.15625 74.09375L385.70312 74.078125Q385.70312 73.421875 385.89062 72.875Q386.07812 72.3125 386.42188 71.90625Q386.76562 71.5 387.23438 71.28125Q387.70312 71.046875 388.28125 71.046875Q388.75 71.046875 389.125 71.171875Q389.5 71.296875 389.76562 71.578125Q390.03125 71.84375 390.17188 72.28125Q390.3125 72.71875 390.3125 73.34375L390.3125 77.5L389.21875 77.5L389.21875 73.328125Q389.21875 72.828125 389.07812 72.53125Q388.9375 72.234375 388.65625 72.09375Q388.375 71.953125 387.95312 71.953125Q387.54688 71.953125 387.21875 72.125Q386.89062 72.296875 386.65625 72.59375Q386.42188 72.890625 386.28125 73.28125Q386.15625 73.65625 386.15625 74.09375Z" fill-rule="nonzero"/><path stroke="#cccccc" stroke-width="1.0" stroke-linecap="butt" d="M372.0 305.0L547.0 204.0" fill-rule="nonzero"/><path fill="#000000" d="M543.6406 190.78125L544.7656 190.78125Q544.6719 191.59375 544.2969 192.23438Q543.9219 192.875 543.2344 193.25Q542.5625 193.625 541.53125 193.625Q540.78125 193.625 540.1719 193.34375Q539.5625 193.04688 539.1094 192.53125Q538.6719 192.01562 538.4375 191.29688Q538.2031 190.5625 538.2031 189.65625L538.2031 188.8125Q538.2031 187.92188 538.4375 187.1875Q538.6719 186.45312 539.125 185.9375Q539.5781 185.40625 540.2031 185.125Q540.84375 184.84375 541.625 184.84375Q542.59375 184.84375 543.2656 185.21875Q543.9375 185.57812 544.2969 186.21875Q544.6719 186.85938 544.7656 187.70312L543.6406 187.70312Q543.5625 187.10938 543.3281 186.6875Q543.1094 186.25 542.7031 186.01562Q542.2969 185.78125 541.625 185.78125Q541.0625 185.78125 540.625 186.0Q540.2031 186.20312 539.90625 186.60938Q539.625 187.0 539.46875 187.5625Q539.3281 188.125 539.3281 188.79688L539.3281 189.65625Q539.3281 190.28125 539.4531 190.84375Q539.59375 191.39062 539.8594 191.8125Q540.125 192.21875 540.5469 192.46875Q540.96875 192.70312 541.53125 192.70312Q542.25 192.70312 542.6719 192.46875Q543.1094 192.23438 543.3281 191.8125Q543.5469 191.39062 543.6406 190.78125ZM550.0625 192.42188L550.0625 189.15625Q550.0625 188.78125 549.90625 188.5Q549.7656 188.21875 549.46875 188.07812Q549.1719 187.92188 548.7344 187.92188Q548.3125 187.92188 548.0 188.0625Q547.7031 188.20312 547.53125 188.4375Q547.3594 188.65625 547.3594 188.92188L546.28125 188.92188Q546.28125 188.57812 546.4531 188.25Q546.625 187.90625 546.9531 187.64062Q547.28125 187.35938 547.75 187.20312Q548.21875 187.04688 548.7969 187.04688Q549.4844 187.04688 550.0156 187.28125Q550.5469 187.51562 550.84375 187.98438Q551.15625 188.45312 551.15625 189.15625L551.15625 192.10938Q551.15625 192.4375 551.2031 192.79688Q551.2656 193.14062 551.375 193.40625L551.375 193.5L550.2344 193.5Q550.15625 193.3125 550.1094 193.0Q550.0625 192.6875 550.0625 192.42188ZM550.25 189.65625L550.2656 190.42188L549.1719 190.42188Q548.7031 190.42188 548.34375 190.5Q547.9844 190.5625 547.7344 190.71875Q547.4844 190.85938 547.3594 191.07812Q547.2344 191.29688 547.2344 191.59375Q547.2344 191.89062 547.3594 192.14062Q547.5 192.375 547.7656 192.53125Q548.0469 192.67188 548.4375 192.67188Q548.9375 192.67188 549.3125 192.46875Q549.7031 192.25 549.9219 191.95312Q550.15625 191.64062 550.1719 191.34375L550.6406 191.875Q550.59375 192.10938 550.40625 192.42188Q550.2344 192.71875 549.9219 193.0Q549.625 193.26562 549.2031 193.45312Q548.7969 193.625 548.28125 193.625Q547.6406 193.625 547.15625 193.375Q546.6719 193.10938 546.40625 192.6875Q546.1406 192.26562 546.1406 191.73438Q546.1406 191.21875 546.3281 190.84375Q546.53125 190.45312 546.90625 190.1875Q547.28125 189.92188 547.8125 189.79688Q548.34375 189.65625 549.0 189.65625L550.25 189.65625ZM554.40625 188.15625L554.40625 193.5L553.3281 193.5L553.3281 187.15625L554.375 187.15625L554.40625 188.15625ZM556.3906 187.125L556.3906 188.125Q556.25 188.10938 556.125 188.09375Q556.0156 188.07812 555.8594 188.07812Q555.4844 188.07812 555.1875 188.20312Q554.90625 188.3125 554.7031 188.53125Q554.5156 188.73438 554.3906 189.03125Q554.28125 189.32812 554.25 189.67188L553.9375 189.84375Q553.9375 189.26562 554.0469 188.76562Q554.1719 188.26562 554.40625 187.875Q554.65625 187.48438 555.0156 187.26562Q555.3906 187.04688 555.90625 187.04688Q556.03125 187.04688 556.1719 187.07812Q556.3281 187.09375 556.3906 187.125ZM559.1094 192.84375L560.875 187.15625L562.03125 187.15625L559.4844 194.48438Q559.40625 194.71875 559.25 194.98438Q559.1094 195.26562 558.8906 195.5Q558.6719 195.75 558.3594 195.90625Q558.0469 196.0625 557.6094 196.0625Q557.4844 196.0625 557.28125 196.01562Q557.0781 195.98438 557.0 195.96875L557.0 195.09375Q557.0469 195.09375 557.1406 195.09375Q557.25 195.10938 557.28125 195.10938Q557.65625 195.10938 557.90625 195.01562Q558.1719 194.92188 558.34375 194.6875Q558.53125 194.46875 558.65625 194.07812L559.1094 192.84375ZM557.8125 187.15625L559.4531 192.07812L559.7344 193.21875L558.96875 193.625L556.625 187.15625L557.8125 187.15625ZM563.0469 190.40625L563.0469 190.26562Q563.0469 189.57812 563.2344 189.0Q563.4375 188.40625 563.8125 187.96875Q564.1875 187.53125 564.71875 187.29688Q565.25 187.04688 565.9219 187.04688Q566.5781 187.04688 567.1094 187.29688Q567.65625 187.53125 568.03125 187.96875Q568.40625 188.40625 568.6094 189.0Q568.8125 189.57812 568.8125 190.26562L568.8125 190.40625Q568.8125 191.07812 568.6094 191.67188Q568.40625 192.25 568.03125 192.6875Q567.65625 193.125 567.125 193.375Q566.59375 193.625 565.9219 193.625Q565.2656 193.625 564.71875 193.375Q564.1875 193.125 563.8125 192.6875Q563.4375 192.25 563.2344 191.67188Q563.0469 191.07812 563.0469 190.40625ZM564.125 190.26562L564.125 190.40625Q564.125 190.875 564.2344 191.29688Q564.34375 191.71875 564.5625 192.04688Q564.7969 192.35938 565.1406 192.54688Q565.4844 192.71875 565.9219 192.71875Q566.375 192.71875 566.7031 192.54688Q567.0469 192.35938 567.2656 192.04688Q567.5 191.71875 567.6094 191.29688Q567.71875 190.875 567.71875 190.40625L567.71875 190.26562Q567.71875 189.79688 567.6094 189.375Q567.5 188.95312 567.2656 188.64062Q567.0469 188.3125 566.7031 188.125Q566.375 187.9375 565.9219 187.9375Q565.46875 187.9375 565.125 188.125Q564.7969 188.3125 564.5625 188.64062Q564.34375 188.95312 564.2344 189.375Q564.125 189.79688 564.125 190.26562ZM571.40625 188.375L571.40625 195.9375L570.3281 195.9375L570.3281 187.15625L571.3125 187.15625L571.40625 188.375ZM575.6875 190.28125L575.6875 190.40625Q575.6875 191.09375 575.5156 191.6875Q575.3594 192.26562 575.0469 192.70312Q574.7344 193.14062 574.2656 193.39062Q573.8125 193.625 573.21875 193.625Q572.625 193.625 572.15625 193.42188Q571.6875 193.21875 571.3594 192.84375Q571.0469 192.45312 570.8594 191.92188Q570.6719 191.39062 570.59375 190.71875L570.59375 190.0625Q570.6719 189.35938 570.8594 188.8125Q571.0469 188.25 571.3594 187.85938Q571.6875 187.45312 572.1406 187.25Q572.6094 187.04688 573.2031 187.04688Q573.7969 187.04688 574.2656 187.28125Q574.7344 187.5 575.0469 187.9375Q575.3594 188.35938 575.5156 188.95312Q575.6875 189.54688 575.6875 190.28125ZM574.59375 190.40625L574.59375 190.28125Q574.59375 189.79688 574.4844 189.39062Q574.3906 188.96875 574.1875 188.65625Q573.9844 188.32812 573.65625 188.14062Q573.3281 187.95312 572.8906 187.95312Q572.4844 187.95312 572.1719 188.09375Q571.875 188.23438 571.65625 188.48438Q571.4531 188.71875 571.3125 189.01562Q571.1875 189.3125 571.125 189.64062L571.125 191.15625Q571.2344 191.5625 571.4375 191.92188Q571.65625 192.28125 572.0 192.5Q572.3594 192.71875 572.90625 192.71875Q573.34375 192.71875 573.65625 192.54688Q573.9844 192.35938 574.1875 192.04688Q574.3906 191.71875 574.4844 191.29688Q574.59375 190.875 574.59375 190.40625ZM578.40625 184.5L578.40625 193.5L577.3281 193.5L577.3281 184.5L578.40625 184.5ZM578.15625 190.09375L577.7031 190.07812Q577.7031 189.42188 577.8906 188.875Q578.0781 188.3125 578.4219 187.90625Q578.7656 187.5 579.2344 187.28125Q579.7031 187.04688 580.28125 187.04688Q580.75 187.04688 581.125 187.17188Q581.5 187.29688 581.7656 187.57812Q582.03125 187.84375 582.1719 188.28125Q582.3125 188.71875 582.3125 189.34375L582.3125 193.5L581.21875 193.5L581.21875 189.32812Q581.21875 188.82812 581.0781 188.53125Q580.9375 188.23438 580.65625 188.09375Q580.375 187.95312 579.9531 187.95312Q579.5469 187.95312 579.21875 188.125Q578.8906 188.29688 578.65625 188.59375Q578.4219 188.89062 578.28125 189.28125Q578.15625 189.65625 578.15625 190.09375ZM586.1094 192.84375L587.875 187.15625L589.03125 187.15625L586.4844 194.48438Q586.40625 194.71875 586.25 194.98438Q586.1094 195.26562 585.8906 195.5Q585.6719 195.75 585.3594 195.90625Q585.0469 196.0625 584.6094 196.0625Q584.4844 196.0625 584.28125 196.01562Q584.0781 195.98438 584.0 195.96875L584.0 195.09375Q584.0469 195.09375 584.1406 195.09375Q584.25 195.10938 584.28125 195.10938Q584.65625 195.10938 584.90625 195.01562Q585.1719 194.92188 585.34375 194.6875Q585.53125 194.46875 585.65625 194.07812L586.1094 192.84375ZM584.8125 187.15625L586.4531 192.07812L586.7344 193.21875L585.96875 193.625L583.625 187.15625L584.8125 187.15625ZM591.5 184.5L591.5 193.5L590.4219 193.5L590.4219 184.5L591.5 184.5ZM594.5 184.5L594.5 193.5L593.4219 193.5L593.4219 184.5L594.5 184.5ZM598.9531 193.625Q598.2969 193.625 597.75 193.40625Q597.21875 193.17188 596.8281 192.76562Q596.4531 192.34375 596.25 191.78125Q596.0469 191.21875 596.0469 190.54688L596.0469 190.3125Q596.0469 189.53125 596.2656 188.92188Q596.5 188.3125 596.8906 187.89062Q597.28125 187.46875 597.78125 187.26562Q598.28125 187.04688 598.8125 187.04688Q599.5 187.04688 599.9844 187.28125Q600.4844 187.51562 600.7969 187.9375Q601.125 188.34375 601.2656 188.92188Q601.4219 189.48438 601.4219 190.14062L601.4219 190.64062L596.6875 190.64062L596.6875 189.75L600.34375 189.75L600.34375 189.67188Q600.3125 189.25 600.15625 188.85938Q600.0156 188.45312 599.6875 188.20312Q599.375 187.9375 598.8125 187.9375Q598.4531 187.9375 598.1406 188.09375Q597.8281 188.25 597.59375 188.5625Q597.375 188.85938 597.25 189.29688Q597.1406 189.73438 597.1406 190.3125L597.1406 190.54688Q597.1406 191.0 597.2656 191.40625Q597.3906 191.79688 597.625 192.09375Q597.875 192.39062 598.21875 192.5625Q598.5781 192.73438 599.0156 192.73438Q599.59375 192.73438 599.9844 192.5Q600.3906 192.26562 600.6875 191.875L601.34375 192.39062Q601.1406 192.70312 600.8125 192.98438Q600.5 193.26562 600.03125 193.45312Q599.5781 193.625 598.9531 193.625ZM603.40625 188.51562L603.40625 193.5L602.3281 193.5L602.3281 187.15625L603.3594 187.15625L603.40625 188.51562ZM603.15625 190.09375L602.7031 190.07812Q602.7031 189.42188 602.8906 188.875Q603.0781 188.3125 603.4219 187.90625Q603.7656 187.5 604.2344 187.28125Q604.7031 187.04688 605.28125 187.04688Q605.75 187.04688 606.125 187.17188Q606.5 187.29688 606.7656 187.57812Q607.03125 187.84375 607.1719 188.28125Q607.3125 188.71875 607.3125 189.34375L607.3125 193.5L606.21875 193.5L606.21875 189.32812Q606.21875 188.82812 606.0781 188.53125Q605.9375 188.23438 605.65625 188.09375Q605.375 187.95312 604.9531 187.95312Q604.5469 187.95312 604.21875 188.125Q603.8906 188.29688 603.65625 188.59375Q603.4219 188.89062 603.28125 189.28125Q603.15625 189.65625 603.15625 190.09375Z" fill-rule="nonzero"/><path stroke="#cccccc" stroke-width="1.0" stroke-linecap="butt" d="M372.0 305.0L547.0 406.0" fill-rule="nonzero"/><path fill="#000000" d="M555.6719 424.57812L555.6719 425.5L551.40625 425.5L551.40625 424.57812L555.6719 424.57812ZM551.625 416.96875L551.625 425.5L550.4844 425.5L550.4844 416.96875L551.625 416.96875ZM557.5 419.15625L557.5 425.5L556.4219 425.5L556.4219 419.15625L557.5 419.15625ZM556.3281 417.48438Q556.3281 417.21875 556.4844 417.03125Q556.65625 416.84375 556.96875 416.84375Q557.28125 416.84375 557.4375 417.03125Q557.6094 417.21875 557.6094 417.48438Q557.6094 417.73438 557.4375 417.92188Q557.28125 418.09375 556.96875 418.09375Q556.65625 418.09375 556.4844 417.92188Q556.3281 417.73438 556.3281 417.48438ZM560.40625 420.42188L560.40625 425.5L559.3125 425.5L559.3125 419.15625L560.34375 419.15625L560.40625 420.42188ZM560.1875 422.09375L559.6719 422.07812Q559.6875 421.42188 559.84375 420.875Q560.0156 420.3125 560.3281 419.90625Q560.65625 419.5 561.1406 419.28125Q561.625 419.04688 562.25 419.04688Q562.7031 419.04688 563.0781 419.17188Q563.4531 419.29688 563.71875 419.5625Q564.0 419.82812 564.1406 420.25Q564.2969 420.67188 564.2969 421.28125L564.2969 425.5L563.21875 425.5L563.21875 421.32812Q563.21875 420.82812 563.0469 420.53125Q562.8906 420.23438 562.5781 420.09375Q562.28125 419.95312 561.8594 419.95312Q561.3906 419.95312 561.0625 420.125Q560.7344 420.29688 560.5469 420.59375Q560.3594 420.89062 560.2656 421.28125Q560.1875 421.65625 560.1875 422.09375ZM564.2969 421.48438L563.5625 421.71875Q563.5625 421.1875 563.7344 420.71875Q563.90625 420.23438 564.21875 419.85938Q564.5469 419.48438 565.0156 419.26562Q565.4844 419.04688 566.0781 419.04688Q566.59375 419.04688 566.9844 419.1875Q567.3906 419.3125 567.65625 419.59375Q567.9219 419.875 568.0625 420.3125Q568.2031 420.73438 568.2031 421.32812L568.2031 425.5L567.125 425.5L567.125 421.32812Q567.125 420.78125 566.9531 420.5Q566.78125 420.20312 566.4844 420.07812Q566.1875 419.95312 565.7656 419.95312Q565.40625 419.95312 565.125 420.07812Q564.8594 420.20312 564.6719 420.42188Q564.4844 420.625 564.3906 420.90625Q564.2969 421.1875 564.2969 421.48438ZM570.0469 422.40625L570.0469 422.26562Q570.0469 421.57812 570.2344 421.0Q570.4375 420.40625 570.8125 419.96875Q571.1875 419.53125 571.71875 419.29688Q572.25 419.04688 572.9219 419.04688Q573.5781 419.04688 574.1094 419.29688Q574.65625 419.53125 575.03125 419.96875Q575.40625 420.40625 575.6094 421.0Q575.8125 421.57812 575.8125 422.26562L575.8125 422.40625Q575.8125 423.07812 575.6094 423.67188Q575.40625 424.25 575.03125 424.6875Q574.65625 425.125 574.125 425.375Q573.59375 425.625 572.9219 425.625Q572.2656 425.625 571.71875 425.375Q571.1875 425.125 570.8125 424.6875Q570.4375 424.25 570.2344 423.67188Q570.0469 423.07812 570.0469 422.40625ZM571.125 422.26562L571.125 422.40625Q571.125 422.875 571.2344 423.29688Q571.34375 423.71875 571.5625 424.04688Q571.7969 424.35938 572.1406 424.54688Q572.4844 424.71875 572.9219 424.71875Q573.375 424.71875 573.7031 424.54688Q574.0469 424.35938 574.2656 424.04688Q574.5 423.71875 574.6094 423.29688Q574.71875 422.875 574.71875 422.40625L574.71875 422.26562Q574.71875 421.79688 574.6094 421.375Q574.5 420.95312 574.2656 420.64062Q574.0469 420.3125 573.7031 420.125Q573.375 419.9375 572.9219 419.9375Q572.46875 419.9375 572.125 420.125Q571.7969 420.3125 571.5625 420.64062Q571.34375 420.95312 571.2344 421.375Q571.125 421.79688 571.125 422.26562ZM578.40625 420.51562L578.40625 425.5L577.3281 425.5L577.3281 419.15625L578.3594 419.15625L578.40625 420.51562ZM578.15625 422.09375L577.7031 422.07812Q577.7031 421.42188 577.8906 420.875Q578.0781 420.3125 578.4219 419.90625Q578.7656 419.5 579.2344 419.28125Q579.7031 419.04688 580.28125 419.04688Q580.75 419.04688 581.125 419.17188Q581.5 419.29688 581.7656 419.57812Q582.03125 419.84375 582.1719 420.28125Q582.3125 420.71875 582.3125 421.34375L582.3125 425.5L581.21875 425.5L581.21875 421.32812Q581.21875 420.82812 581.0781 420.53125Q580.9375 420.23438 580.65625 420.09375Q580.375 419.95312 579.9531 419.95312Q579.5469 419.95312 579.21875 420.125Q578.8906 420.29688 578.65625 420.59375Q578.4219 420.89062 578.28125 421.28125Q578.15625 421.65625 578.15625 422.09375ZM586.9531 425.625Q586.2969 425.625 585.75 425.40625Q585.21875 425.17188 584.8281 424.76562Q584.4531 424.34375 584.25 423.78125Q584.0469 423.21875 584.0469 422.54688L584.0469 422.3125Q584.0469 421.53125 584.2656 420.92188Q584.5 420.3125 584.8906 419.89062Q585.28125 419.46875 585.78125 419.26562Q586.28125 419.04688 586.8125 419.04688Q587.5 419.04688 587.9844 419.28125Q588.4844 419.51562 588.7969 419.9375Q589.125 420.34375 589.2656 420.92188Q589.4219 421.48438 589.4219 422.14062L589.4219 422.64062L584.6875 422.64062L584.6875 421.75L588.34375 421.75L588.34375 421.67188Q588.3125 421.25 588.15625 420.85938Q588.0156 420.45312 587.6875 420.20312Q587.375 419.9375 586.8125 419.9375Q586.4531 419.9375 586.1406 420.09375Q585.8281 420.25 585.59375 420.5625Q585.375 420.85938 585.25 421.29688Q585.1406 421.73438 585.1406 422.3125L585.1406 422.54688Q585.1406 423.0 585.2656 423.40625Q585.3906 423.79688 585.625 424.09375Q585.875 424.39062 586.21875 424.5625Q586.5781 424.73438 587.0156 424.73438Q587.59375 424.73438 587.9844 424.5Q588.3906 424.26562 588.6875 423.875L589.34375 424.39062Q589.1406 424.70312 588.8125 424.98438Q588.5 425.26562 588.03125 425.45312Q587.5781 425.625 586.9531 425.625ZM591.40625 420.51562L591.40625 425.5L590.3281 425.5L590.3281 419.15625L591.3594 419.15625L591.40625 420.51562ZM591.15625 422.09375L590.7031 422.07812Q590.7031 421.42188 590.8906 420.875Q591.0781 420.3125 591.4219 419.90625Q591.7656 419.5 592.2344 419.28125Q592.7031 419.04688 593.28125 419.04688Q593.75 419.04688 594.125 419.17188Q594.5 419.29688 594.7656 419.57812Q595.03125 419.84375 595.1719 420.28125Q595.3125 420.71875 595.3125 421.34375L595.3125 425.5L594.21875 425.5L594.21875 421.32812Q594.21875 420.82812 594.0781 420.53125Q593.9375 420.23438 593.65625 420.09375Q593.375 419.95312 592.9531 419.95312Q592.5469 419.95312 592.21875 420.125Q591.8906 420.29688 591.65625 420.59375Q591.4219 420.89062 591.28125 421.28125Q591.15625 421.65625 591.15625 422.09375Z" fill-rule="nonzero"/><path stroke="#cccccc" stroke-width="1.0" stroke-linecap="butt" d="M372.0 305.0L372.0 507.0" fill-rule="nonzero"/><path fill="#000000" d="M349.125 532.96875L349.125 541.5L347.98438 541.5L347.98438 532.96875L349.125 532.96875ZM352.70312 536.8125L352.70312 537.7344L348.875 537.7344L348.875 536.8125L352.70312 536.8125ZM353.28125 532.96875L353.28125 533.8906L348.875 533.8906L348.875 532.96875L353.28125 532.96875ZM358.5625 540.4219L358.5625 537.15625Q358.5625 536.78125 358.40625 536.5Q358.26562 536.21875 357.96875 536.0781Q357.67188 535.9219 357.23438 535.9219Q356.8125 535.9219 356.5 536.0625Q356.20312 536.2031 356.03125 536.4375Q355.85938 536.65625 355.85938 536.9219L354.78125 536.9219Q354.78125 536.5781 354.95312 536.25Q355.125 535.90625 355.45312 535.6406Q355.78125 535.3594 356.25 535.2031Q356.71875 535.0469 357.29688 535.0469Q357.98438 535.0469 358.51562 535.28125Q359.04688 535.5156 359.34375 535.9844Q359.65625 536.4531 359.65625 537.15625L359.65625 540.1094Q359.65625 540.4375 359.70312 540.7969Q359.76562 541.1406 359.875 541.40625L359.875 541.5L358.73438 541.5Q358.65625 541.3125 358.60938 541.0Q358.5625 540.6875 358.5625 540.4219ZM358.75 537.65625L358.76562 538.4219L357.67188 538.4219Q357.20312 538.4219 356.84375 538.5Q356.48438 538.5625 356.23438 538.71875Q355.98438 538.8594 355.85938 539.0781Q355.73438 539.2969 355.73438 539.59375Q355.73438 539.8906 355.85938 540.1406Q356.0 540.375 356.26562 540.53125Q356.54688 540.6719 356.9375 540.6719Q357.4375 540.6719 357.8125 540.46875Q358.20312 540.25 358.42188 539.9531Q358.65625 539.6406 358.67188 539.34375L359.14062 539.875Q359.09375 540.1094 358.90625 540.4219Q358.73438 540.71875 358.42188 541.0Q358.125 541.2656 357.70312 541.4531Q357.29688 541.625 356.78125 541.625Q356.14062 541.625 355.65625 541.375Q355.17188 541.1094 354.90625 540.6875Q354.64062 540.2656 354.64062 539.7344Q354.64062 539.21875 354.82812 538.84375Q355.03125 538.4531 355.40625 538.1875Q355.78125 537.9219 356.3125 537.7969Q356.84375 537.65625 357.5 537.65625L358.75 537.65625ZM362.90625 536.15625L362.90625 541.5L361.82812 541.5L361.82812 535.15625L362.875 535.15625L362.90625 536.15625ZM364.89062 535.125L364.89062 536.125Q364.75 536.1094 364.625 536.09375Q364.51562 536.0781 364.35938 536.0781Q363.98438 536.0781 363.6875 536.2031Q363.40625 536.3125 363.20312 536.53125Q363.01562 536.7344 362.89062 537.03125Q362.78125 537.3281 362.75 537.6719L362.4375 537.84375Q362.4375 537.2656 362.54688 536.7656Q362.67188 536.2656 362.90625 535.875Q363.15625 535.4844 363.51562 535.2656Q363.89062 535.0469 364.40625 535.0469Q364.53125 535.0469 364.67188 535.0781Q364.82812 535.09375 364.89062 535.125ZM366.90625 536.5156L366.90625 541.5L365.82812 541.5L365.82812 535.15625L366.85938 535.15625L366.90625 536.5156ZM366.65625 538.09375L366.20312 538.0781Q366.20312 537.4219 366.39062 536.875Q366.57812 536.3125 366.92188 535.90625Q367.26562 535.5 367.73438 535.28125Q368.20312 535.0469 368.78125 535.0469Q369.25 535.0469 369.625 535.1719Q370.0 535.2969 370.26562 535.5781Q370.53125 535.84375 370.67188 536.28125Q370.8125 536.71875 370.8125 537.34375L370.8125 541.5L369.71875 541.5L369.71875 537.3281Q369.71875 536.8281 369.57812 536.53125Q369.4375 536.2344 369.15625 536.09375Q368.875 535.9531 368.45312 535.9531Q368.04688 535.9531 367.71875 536.125Q367.39062 536.2969 367.15625 536.59375Q366.92188 536.8906 366.78125 537.28125Q366.65625 537.65625 366.65625 538.09375ZM375.45312 541.625Q374.79688 541.625 374.25 541.40625Q373.71875 541.1719 373.32812 540.7656Q372.95312 540.34375 372.75 539.78125Q372.54688 539.21875 372.54688 538.5469L372.54688 538.3125Q372.54688 537.53125 372.76562 536.9219Q373.0 536.3125 373.39062 535.8906Q373.78125 535.46875 374.28125 535.2656Q374.78125 535.0469 375.3125 535.0469Q376.0 535.0469 376.48438 535.28125Q376.98438 535.5156 377.29688 535.9375Q377.625 536.34375 377.76562 536.9219Q377.92188 537.4844 377.92188 538.1406L377.92188 538.6406L373.1875 538.6406L373.1875 537.75L376.84375 537.75L376.84375 537.6719Q376.8125 537.25 376.65625 536.8594Q376.51562 536.4531 376.1875 536.2031Q375.875 535.9375 375.3125 535.9375Q374.95312 535.9375 374.64062 536.09375Q374.32812 536.25 374.09375 536.5625Q373.875 536.8594 373.75 537.2969Q373.64062 537.7344 373.64062 538.3125L373.64062 538.5469Q373.64062 539.0 373.76562 539.40625Q373.89062 539.7969 374.125 540.09375Q374.375 540.3906 374.71875 540.5625Q375.07812 540.7344 375.51562 540.7344Q376.09375 540.7344 376.48438 540.5Q376.89062 540.2656 377.1875 539.875L377.84375 540.3906Q377.64062 540.7031 377.3125 540.9844Q377.0 541.2656 376.53125 541.4531Q376.07812 541.625 375.45312 541.625ZM382.51562 539.8125Q382.51562 539.5781 382.40625 539.375Q382.3125 539.1719 382.0 539.0156Q381.6875 538.84375 381.0625 538.71875Q380.53125 538.6094 380.10938 538.46875Q379.6875 538.3125 379.39062 538.09375Q379.09375 537.875 378.9375 537.5781Q378.78125 537.28125 378.78125 536.8906Q378.78125 536.5156 378.9375 536.1875Q379.10938 535.84375 379.40625 535.59375Q379.71875 535.3281 380.15625 535.1875Q380.59375 535.0469 381.125 535.0469Q381.89062 535.0469 382.42188 535.3125Q382.96875 535.5781 383.25 536.03125Q383.53125 536.4844 383.53125 537.0156L382.45312 537.0156Q382.45312 536.7656 382.29688 536.5156Q382.14062 536.2656 381.84375 536.1094Q381.54688 535.9375 381.125 535.9375Q380.67188 535.9375 380.39062 536.0781Q380.10938 536.2031 379.98438 536.4219Q379.85938 536.625 379.85938 536.8594Q379.85938 537.0469 379.92188 537.1875Q379.98438 537.3125 380.14062 537.4375Q380.29688 537.5469 380.57812 537.65625Q380.875 537.75 381.32812 537.84375Q382.10938 538.0156 382.60938 538.2656Q383.10938 538.5156 383.35938 538.875Q383.60938 539.21875 383.60938 539.7344Q383.60938 540.15625 383.42188 540.5Q383.25 540.84375 382.92188 541.09375Q382.60938 541.34375 382.15625 541.4844Q381.70312 541.625 381.15625 541.625Q380.3125 541.625 379.73438 541.3281Q379.15625 541.0156 378.85938 540.5469Q378.5625 540.0625 378.5625 539.5469L379.64062 539.5469Q379.67188 539.9844 379.90625 540.25Q380.14062 540.5156 380.46875 540.625Q380.8125 540.71875 381.15625 540.71875Q381.59375 540.71875 381.89062 540.6094Q382.20312 540.4844 382.35938 540.28125Q382.51562 540.0781 382.51562 539.8125ZM387.45312 541.625Q386.79688 541.625 386.25 541.40625Q385.71875 541.1719 385.32812 540.7656Q384.95312 540.34375 384.75 539.78125Q384.54688 539.21875 384.54688 538.5469L384.54688 538.3125Q384.54688 537.53125 384.76562 536.9219Q385.0 536.3125 385.39062 535.8906Q385.78125 535.46875 386.28125 535.2656Q386.78125 535.0469 387.3125 535.0469Q388.0 535.0469 388.48438 535.28125Q388.98438 535.5156 389.29688 535.9375Q389.625 536.34375 389.76562 536.9219Q389.92188 537.4844 389.92188 538.1406L389.92188 538.6406L385.1875 538.6406L385.1875 537.75L388.84375 537.75L388.84375 537.6719Q388.8125 537.25 388.65625 536.8594Q388.51562 536.4531 388.1875 536.2031Q387.875 535.9375 387.3125 535.9375Q386.95312 535.9375 386.64062 536.09375Q386.32812 536.25 386.09375 536.5625Q385.875 536.8594 385.75 537.2969Q385.64062 537.7344 385.64062 538.3125L385.64062 538.5469Q385.64062 539.0 385.76562 539.40625Q385.89062 539.7969 386.125 540.09375Q386.375 540.3906 386.71875 540.5625Q387.07812 540.7344 387.51562 540.7344Q388.09375 540.7344 388.48438 540.5Q388.89062 540.2656 389.1875 539.875L389.84375 540.3906Q389.64062 540.7031 389.3125 540.9844Q389.0 541.2656 388.53125 541.4531Q388.07812 541.625 387.45312 541.625ZM391.90625 536.5156L391.90625 541.5L390.82812 541.5L390.82812 535.15625L391.85938 535.15625L391.90625 536.5156ZM391.65625 538.09375L391.20312 538.0781Q391.20312 537.4219 391.39062 536.875Q391.57812 536.3125 391.92188 535.90625Q392.26562 535.5 392.73438 535.28125Q393.20312 535.0469 393.78125 535.0469Q394.25 535.0469 394.625 535.1719Q395.0 535.2969 395.26562 535.5781Q395.53125 535.84375 395.67188 536.28125Q395.8125 536.71875 395.8125 537.34375L395.8125 541.5L394.71875 541.5L394.71875 537.3281Q394.71875 536.8281 394.57812 536.53125Q394.4375 536.2344 394.15625 536.09375Q393.875 535.9531 393.45312 535.9531Q393.04688 535.9531 392.71875 536.125Q392.39062 536.2969 392.15625 536.59375Q391.92188 536.8906 391.78125 537.28125Q391.65625 537.65625 391.65625 538.09375Z" fill-rule="nonzero"/><path stroke="#cccccc" stroke-width="1.0" stroke-linecap="butt" d="M372.0 305.0L197.0 406.0" fill-rule="nonzero"/><path fill="#000000" d="M141.59375 422.5625L141.59375 422.4375Q141.59375 421.6875 141.75 421.07812Q141.92188 420.45312 142.23438 420.0Q142.54688 419.54688 143.0 419.29688Q143.46875 419.04688 144.0625 419.04688Q144.51562 419.04688 144.875 419.1875Q145.25 419.3125 145.53125 419.57812Q145.8125 419.82812 146.01562 420.20312Q146.21875 420.57812 146.34375 421.0625Q146.46875 421.53125 146.51562 422.09375L146.51562 422.57812Q146.45312 423.28125 146.26562 423.84375Q146.09375 424.40625 145.79688 424.8125Q145.5 425.20312 145.0625 425.42188Q144.64062 425.625 144.04688 425.625Q143.46875 425.625 143.0 425.40625Q142.54688 425.17188 142.23438 424.76562Q141.92188 424.34375 141.75 423.79688Q141.59375 423.23438 141.59375 422.5625ZM142.67188 422.4375L142.67188 422.5625Q142.67188 423.01562 142.76562 423.40625Q142.85938 423.79688 143.04688 424.09375Q143.25 424.39062 143.5625 424.5625Q143.89062 424.73438 144.32812 424.73438Q144.75 424.73438 145.04688 424.5625Q145.35938 424.375 145.5625 424.07812Q145.78125 423.78125 145.90625 423.39062Q146.04688 423.0 146.14062 422.59375L146.14062 422.20312Q146.07812 421.76562 145.9375 421.375Q145.8125 420.96875 145.59375 420.64062Q145.39062 420.3125 145.07812 420.125Q144.76562 419.9375 144.32812 419.9375Q143.89062 419.9375 143.57812 420.14062Q143.26562 420.32812 143.0625 420.67188Q142.85938 421.01562 142.76562 421.48438Q142.67188 421.9375 142.67188 422.4375ZM145.98438 419.15625L146.90625 419.15625L146.90625 423.76562Q146.90625 424.04688 146.9375 424.21875Q146.96875 424.375 147.03125 424.48438Q147.10938 424.57812 147.1875 424.625Q147.28125 424.65625 147.375 424.65625Q147.42188 424.65625 147.46875 424.64062Q147.53125 424.625 147.5625 424.60938L147.70312 425.42188Q147.51562 425.54688 147.34375 425.57812Q147.17188 425.625 146.98438 425.625Q146.70312 425.625 146.48438 425.51562Q146.28125 425.42188 146.125 425.20312Q145.96875 424.98438 145.89062 424.625Q145.8125 424.26562 145.8125 423.76562L145.8125 420.53125L145.98438 419.15625ZM151.07812 421.42188L151.07812 422.3125L148.21875 422.3125L148.21875 421.42188L151.07812 421.42188ZM157.5625 420.64062L157.5625 421.5625L152.95312 421.5625L152.95312 420.64062L157.5625 420.64062ZM153.125 416.96875L153.125 425.5L151.98438 425.5L151.98438 416.96875L153.125 416.96875ZM158.54688 416.96875L158.54688 425.5L157.42188 425.5L157.42188 416.96875L158.54688 416.96875ZM164.70312 424.03125L164.70312 419.15625L165.79688 419.15625L165.79688 425.5L164.76562 425.5L164.70312 424.03125ZM164.90625 422.70312L165.35938 422.6875Q165.35938 423.3125 165.21875 423.85938Q165.09375 424.39062 164.79688 424.78125Q164.51562 425.17188 164.03125 425.40625Q163.5625 425.625 162.89062 425.625Q162.42188 425.625 162.03125 425.48438Q161.65625 425.34375 161.375 425.0625Q161.10938 424.78125 160.95312 424.32812Q160.79688 423.875 160.79688 423.25L160.79688 419.15625L161.89062 419.15625L161.89062 423.26562Q161.89062 423.6875 161.98438 423.96875Q162.07812 424.25 162.25 424.40625Q162.42188 424.5625 162.625 424.64062Q162.82812 424.70312 163.04688 424.70312Q163.75 424.70312 164.14062 424.4375Q164.54688 424.15625 164.71875 423.70312Q164.90625 423.25 164.90625 422.70312ZM168.90625 420.42188L168.90625 425.5L167.8125 425.5L167.8125 419.15625L168.84375 419.15625L168.90625 420.42188ZM168.6875 422.09375L168.17188 422.07812Q168.1875 421.42188 168.34375 420.875Q168.51562 420.3125 168.82812 419.90625Q169.15625 419.5 169.64062 419.28125Q170.125 419.04688 170.75 419.04688Q171.20312 419.04688 171.57812 419.17188Q171.95312 419.29688 172.21875 419.5625Q172.5 419.82812 172.64062 420.25Q172.79688 420.67188 172.79688 421.28125L172.79688 425.5L171.71875 425.5L171.71875 421.32812Q171.71875 420.82812 171.54688 420.53125Q171.39062 420.23438 171.07812 420.09375Q170.78125 419.95312 170.35938 419.95312Q169.89062 419.95312 169.5625 420.125Q169.23438 420.29688 169.04688 420.59375Q168.85938 420.89062 168.76562 421.28125Q168.6875 421.65625 168.6875 422.09375ZM172.79688 421.48438L172.0625 421.71875Q172.0625 421.1875 172.23438 420.71875Q172.40625 420.23438 172.71875 419.85938Q173.04688 419.48438 173.51562 419.26562Q173.98438 419.04688 174.57812 419.04688Q175.09375 419.04688 175.48438 419.1875Q175.89062 419.3125 176.15625 419.59375Q176.42188 419.875 176.5625 420.3125Q176.70312 420.73438 176.70312 421.32812L176.70312 425.5L175.625 425.5L175.625 421.32812Q175.625 420.78125 175.45312 420.5Q175.28125 420.20312 174.98438 420.07812Q174.6875 419.95312 174.26562 419.95312Q173.90625 419.95312 173.625 420.07812Q173.35938 420.20312 173.17188 420.42188Q172.98438 420.625 172.89062 420.90625Q172.79688 421.1875 172.79688 421.48438ZM182.70312 424.03125L182.70312 419.15625L183.79688 419.15625L183.79688 425.5L182.76562 425.5L182.70312 424.03125ZM182.90625 422.70312L183.35938 422.6875Q183.35938 423.3125 183.21875 423.85938Q183.09375 424.39062 182.79688 424.78125Q182.51562 425.17188 182.03125 425.40625Q181.5625 425.625 180.89062 425.625Q180.42188 425.625 180.03125 425.48438Q179.65625 425.34375 179.375 425.0625Q179.10938 424.78125 178.95312 424.32812Q178.79688 423.875 178.79688 423.25L178.79688 419.15625L179.89062 419.15625L179.89062 423.26562Q179.89062 423.6875 179.98438 423.96875Q180.07812 424.25 180.25 424.40625Q180.42188 424.5625 180.625 424.64062Q180.82812 424.70312 181.04688 424.70312Q181.75 424.70312 182.14062 424.4375Q182.54688 424.15625 182.71875 423.70312Q182.90625 423.25 182.90625 422.70312ZM187.0 416.5L187.0 425.5L185.92188 425.5L185.92188 416.5L187.0 416.5ZM191.45312 425.625Q190.79688 425.625 190.25 425.40625Q189.71875 425.17188 189.32812 424.76562Q188.95312 424.34375 188.75 423.78125Q188.54688 423.21875 188.54688 422.54688L188.54688 422.3125Q188.54688 421.53125 188.76562 420.92188Q189.0 420.3125 189.39062 419.89062Q189.78125 419.46875 190.28125 419.26562Q190.78125 419.04688 191.3125 419.04688Q192.0 419.04688 192.48438 419.28125Q192.98438 419.51562 193.29688 419.9375Q193.625 420.34375 193.76562 420.92188Q193.92188 421.48438 193.92188 422.14062L193.92188 422.64062L189.1875 422.64062L189.1875 421.75L192.84375 421.75L192.84375 421.67188Q192.8125 421.25 192.65625 420.85938Q192.51562 420.45312 192.1875 420.20312Q191.875 419.9375 191.3125 419.9375Q190.95312 419.9375 190.64062 420.09375Q190.32812 420.25 190.09375 420.5625Q189.875 420.85938 189.75 421.29688Q189.64062 421.73438 189.64062 422.3125L189.64062 422.54688Q189.64062 423.0 189.76562 423.40625Q189.89062 423.79688 190.125 424.09375Q190.375 424.39062 190.71875 424.5625Q191.07812 424.73438 191.51562 424.73438Q192.09375 424.73438 192.48438 424.5Q192.89062 424.26562 193.1875 423.875L193.84375 424.39062Q193.64062 424.70312 193.3125 424.98438Q193.0 425.26562 192.53125 425.45312Q192.07812 425.625 191.45312 425.625ZM195.90625 420.51562L195.90625 425.5L194.82812 425.5L194.82812 419.15625L195.85938 419.15625L195.90625 420.51562ZM195.65625 422.09375L195.20312 422.07812Q195.20312 421.42188 195.39062 420.875Q195.57812 420.3125 195.92188 419.90625Q196.26562 419.5 196.73438 419.28125Q197.20312 419.04688 197.78125 419.04688Q198.25 419.04688 198.625 419.17188Q199.0 419.29688 199.26562 419.57812Q199.53125 419.84375 199.67188 420.28125Q199.8125 420.71875 199.8125 421.34375L199.8125 425.5L198.71875 425.5L198.71875 421.32812Q198.71875 420.82812 198.57812 420.53125Q198.4375 420.23438 198.15625 420.09375Q197.875 419.95312 197.45312 419.95312Q197.04688 419.95312 196.71875 420.125Q196.39062 420.29688 196.15625 420.59375Q195.92188 420.89062 195.78125 421.28125Q195.65625 421.65625 195.65625 422.09375Z" fill-rule="nonzero"/><path stroke="#cccccc" stroke-width="1.0" stroke-linecap="butt" d="M372.0 305.0L197.0 204.0" fill-rule="nonzero"/><path fill="#000000" d="M153.03125 191.34375Q153.03125 191.04688 152.9375 190.8125Q152.85938 190.57812 152.625 190.39062Q152.40625 190.20312 152.0 190.03125Q151.60938 189.85938 151.01562 189.6875Q150.375 189.5 149.85938 189.28125Q149.35938 189.04688 148.98438 188.75Q148.625 188.4375 148.4375 188.0625Q148.25 187.67188 148.25 187.17188Q148.25 186.67188 148.45312 186.25Q148.65625 185.82812 149.03125 185.51562Q149.42188 185.20312 149.95312 185.03125Q150.48438 184.84375 151.14062 184.84375Q152.10938 184.84375 152.78125 185.21875Q153.45312 185.57812 153.79688 186.17188Q154.15625 186.76562 154.15625 187.42188L153.03125 187.42188Q153.03125 186.95312 152.8125 186.57812Q152.60938 186.20312 152.1875 186.0Q151.78125 185.78125 151.14062 185.78125Q150.54688 185.78125 150.14062 185.96875Q149.75 186.14062 149.5625 186.45312Q149.375 186.76562 149.375 187.15625Q149.375 187.42188 149.48438 187.65625Q149.60938 187.875 149.84375 188.0625Q150.09375 188.25 150.46875 188.40625Q150.84375 188.5625 151.375 188.70312Q152.09375 188.90625 152.625 189.17188Q153.15625 189.42188 153.5 189.73438Q153.84375 190.04688 154.0 190.4375Q154.17188 190.82812 154.17188 191.32812Q154.17188 191.85938 153.95312 192.28125Q153.75 192.70312 153.35938 193.0Q152.96875 193.29688 152.42188 193.46875Q151.875 193.625 151.20312 193.625Q150.60938 193.625 150.03125 193.45312Q149.46875 193.28125 149.0 192.95312Q148.53125 192.625 148.25 192.15625Q147.96875 191.67188 147.96875 191.03125L149.09375 191.03125Q149.09375 191.46875 149.26562 191.78125Q149.4375 192.09375 149.73438 192.29688Q150.03125 192.5 150.40625 192.60938Q150.78125 192.70312 151.20312 192.70312Q151.79688 192.70312 152.20312 192.54688Q152.60938 192.375 152.8125 192.07812Q153.03125 191.76562 153.03125 191.34375ZM155.04688 190.40625L155.04688 190.26562Q155.04688 189.57812 155.23438 189.0Q155.4375 188.40625 155.8125 187.96875Q156.1875 187.53125 156.71875 187.29688Q157.25 187.04688 157.92188 187.04688Q158.57812 187.04688 159.10938 187.29688Q159.65625 187.53125 160.03125 187.96875Q160.40625 188.40625 160.60938 189.0Q160.8125 189.57812 160.8125 190.26562L160.8125 190.40625Q160.8125 191.07812 160.60938 191.67188Q160.40625 192.25 160.03125 192.6875Q159.65625 193.125 159.125 193.375Q158.59375 193.625 157.92188 193.625Q157.26562 193.625 156.71875 193.375Q156.1875 193.125 155.8125 192.6875Q155.4375 192.25 155.23438 191.67188Q155.04688 191.07812 155.04688 190.40625ZM156.125 190.26562L156.125 190.40625Q156.125 190.875 156.23438 191.29688Q156.34375 191.71875 156.5625 192.04688Q156.79688 192.35938 157.14062 192.54688Q157.48438 192.71875 157.92188 192.71875Q158.375 192.71875 158.70312 192.54688Q159.04688 192.35938 159.26562 192.04688Q159.5 191.71875 159.60938 191.29688Q159.71875 190.875 159.71875 190.40625L159.71875 190.26562Q159.71875 189.79688 159.60938 189.375Q159.5 188.95312 159.26562 188.64062Q159.04688 188.3125 158.70312 188.125Q158.375 187.9375 157.92188 187.9375Q157.46875 187.9375 157.125 188.125Q156.79688 188.3125 156.5625 188.64062Q156.34375 188.95312 156.23438 189.375Q156.125 189.79688 156.125 190.26562ZM163.40625 188.51562L163.40625 193.5L162.32812 193.5L162.32812 187.15625L163.35938 187.15625L163.40625 188.51562ZM163.15625 190.09375L162.70312 190.07812Q162.70312 189.42188 162.89062 188.875Q163.07812 188.3125 163.42188 187.90625Q163.76562 187.5 164.23438 187.28125Q164.70312 187.04688 165.28125 187.04688Q165.75 187.04688 166.125 187.17188Q166.5 187.29688 166.76562 187.57812Q167.03125 187.84375 167.17188 188.28125Q167.3125 188.71875 167.3125 189.34375L167.3125 193.5L166.21875 193.5L166.21875 189.32812Q166.21875 188.82812 166.07812 188.53125Q165.9375 188.23438 165.65625 188.09375Q165.375 187.95312 164.95312 187.95312Q164.54688 187.95312 164.21875 188.125Q163.89062 188.29688 163.65625 188.59375Q163.42188 188.89062 163.28125 189.28125Q163.15625 189.65625 163.15625 190.09375ZM173.01562 191.8125Q173.01562 191.57812 172.90625 191.375Q172.8125 191.17188 172.5 191.01562Q172.1875 190.84375 171.5625 190.71875Q171.03125 190.60938 170.60938 190.46875Q170.1875 190.3125 169.89062 190.09375Q169.59375 189.875 169.4375 189.57812Q169.28125 189.28125 169.28125 188.89062Q169.28125 188.51562 169.4375 188.1875Q169.60938 187.84375 169.90625 187.59375Q170.21875 187.32812 170.65625 187.1875Q171.09375 187.04688 171.625 187.04688Q172.39062 187.04688 172.92188 187.3125Q173.46875 187.57812 173.75 188.03125Q174.03125 188.48438 174.03125 189.01562L172.95312 189.01562Q172.95312 188.76562 172.79688 188.51562Q172.64062 188.26562 172.34375 188.10938Q172.04688 187.9375 171.625 187.9375Q171.17188 187.9375 170.89062 188.07812Q170.60938 188.20312 170.48438 188.42188Q170.35938 188.625 170.35938 188.85938Q170.35938 189.04688 170.42188 189.1875Q170.48438 189.3125 170.64062 189.4375Q170.79688 189.54688 171.07812 189.65625Q171.375 189.75 171.82812 189.84375Q172.60938 190.01562 173.10938 190.26562Q173.60938 190.51562 173.85938 190.875Q174.10938 191.21875 174.10938 191.73438Q174.10938 192.15625 173.92188 192.5Q173.75 192.84375 173.42188 193.09375Q173.10938 193.34375 172.65625 193.48438Q172.20312 193.625 171.65625 193.625Q170.8125 193.625 170.23438 193.32812Q169.65625 193.01562 169.35938 192.54688Q169.0625 192.0625 169.0625 191.54688L170.14062 191.54688Q170.17188 191.98438 170.40625 192.25Q170.64062 192.51562 170.96875 192.625Q171.3125 192.71875 171.65625 192.71875Q172.09375 192.71875 172.39062 192.60938Q172.70312 192.48438 172.85938 192.28125Q173.01562 192.07812 173.01562 191.8125ZM177.98438 187.15625L177.98438 187.98438L174.54688 187.98438L174.54688 187.15625L177.98438 187.15625ZM175.71875 185.625L176.79688 185.625L176.79688 191.92188Q176.79688 192.25 176.89062 192.42188Q177.0 192.57812 177.15625 192.64062Q177.3125 192.6875 177.5 192.6875Q177.625 192.6875 177.76562 192.65625Q177.92188 192.625 178.0 192.60938L178.01562 193.5Q177.875 193.54688 177.67188 193.57812Q177.46875 193.625 177.17188 193.625Q176.78125 193.625 176.4375 193.46875Q176.10938 193.29688 175.90625 192.9375Q175.71875 192.5625 175.71875 191.92188L175.71875 185.625ZM180.5 187.15625L180.5 193.5L179.42188 193.5L179.42188 187.15625L180.5 187.15625ZM179.32812 185.48438Q179.32812 185.21875 179.48438 185.03125Q179.65625 184.84375 179.96875 184.84375Q180.28125 184.84375 180.4375 185.03125Q180.60938 185.21875 180.60938 185.48438Q180.60938 185.73438 180.4375 185.92188Q180.28125 186.09375 179.96875 186.09375Q179.65625 186.09375 179.48438 185.92188Q179.32812 185.73438 179.32812 185.48438ZM186.4375 187.15625L187.42188 187.15625L187.42188 193.35938Q187.42188 194.20312 187.07812 194.79688Q186.73438 195.39062 186.125 195.6875Q185.53125 196.0 184.73438 196.0Q184.40625 196.0 183.95312 195.89062Q183.51562 195.79688 183.09375 195.54688Q182.67188 195.3125 182.39062 194.90625L182.95312 194.25Q183.35938 194.73438 183.78125 194.92188Q184.21875 195.10938 184.65625 195.10938Q185.17188 195.10938 185.54688 194.90625Q185.92188 194.71875 186.125 194.34375Q186.32812 193.96875 186.32812 193.42188L186.32812 188.54688L186.4375 187.15625ZM182.0625 190.40625L182.0625 190.28125Q182.0625 189.54688 182.23438 188.95312Q182.42188 188.35938 182.73438 187.9375Q183.0625 187.5 183.51562 187.28125Q183.98438 187.04688 184.57812 187.04688Q185.17188 187.04688 185.60938 187.25Q186.0625 187.45312 186.375 187.85938Q186.6875 188.25 186.875 188.8125Q187.0625 189.35938 187.125 190.0625L187.125 190.60938Q187.0625 191.29688 186.875 191.85938Q186.6875 192.42188 186.375 192.8125Q186.0625 193.20312 185.60938 193.42188Q185.15625 193.625 184.5625 193.625Q183.98438 193.625 183.53125 193.39062Q183.07812 193.14062 182.75 192.70312Q182.42188 192.26562 182.23438 191.6875Q182.0625 191.09375 182.0625 190.40625ZM183.15625 190.28125L183.15625 190.40625Q183.15625 190.875 183.25 191.29688Q183.34375 191.70312 183.54688 192.03125Q183.75 192.34375 184.0625 192.53125Q184.39062 192.70312 184.82812 192.70312Q185.35938 192.70312 185.70312 192.46875Q186.0625 192.23438 186.26562 191.85938Q186.48438 191.48438 186.59375 191.04688L186.59375 189.64062Q186.53125 189.3125 186.39062 189.01562Q186.26562 188.71875 186.0625 188.48438Q185.85938 188.23438 185.54688 188.09375Q185.25 187.95312 184.82812 187.95312Q184.39062 187.95312 184.0625 188.14062Q183.75 188.32812 183.54688 188.65625Q183.34375 188.96875 183.25 189.39062Q183.15625 189.79688 183.15625 190.28125ZM191.95312 193.625Q191.29688 193.625 190.75 193.40625Q190.21875 193.17188 189.82812 192.76562Q189.45312 192.34375 189.25 191.78125Q189.04688 191.21875 189.04688 190.54688L189.04688 190.3125Q189.04688 189.53125 189.26562 188.92188Q189.5 188.3125 189.89062 187.89062Q190.28125 187.46875 190.78125 187.26562Q191.28125 187.04688 191.8125 187.04688Q192.5 187.04688 192.98438 187.28125Q193.48438 187.51562 193.79688 187.9375Q194.125 188.34375 194.26562 188.92188Q194.42188 189.48438 194.42188 190.14062L194.42188 190.64062L189.6875 190.64062L189.6875 189.75L193.34375 189.75L193.34375 189.67188Q193.3125 189.25 193.15625 188.85938Q193.01562 188.45312 192.6875 188.20312Q192.375 187.9375 191.8125 187.9375Q191.45312 187.9375 191.14062 188.09375Q190.82812 188.25 190.59375 188.5625Q190.375 188.85938 190.25 189.29688Q190.14062 189.73438 190.14062 190.3125L190.14062 190.54688Q190.14062 191.0 190.26562 191.40625Q190.39062 191.79688 190.625 192.09375Q190.875 192.39062 191.21875 192.5625Q191.57812 192.73438 192.01562 192.73438Q192.59375 192.73438 192.98438 192.5Q193.39062 192.26562 193.6875 191.875L194.34375 192.39062Q194.14062 192.70312 193.8125 192.98438Q193.5 193.26562 193.03125 193.45312Q192.57812 193.625 191.95312 193.625Z" fill-rule="nonzero"/><path stroke="#cccccc" stroke-width="1.0" stroke-linecap="butt" d="M372.0 305.0L372.0 103.0" fill-rule="nonzero"/><path stroke="#ff0000" stroke-width="2.0" stroke-linecap="butt" stroke-opacity="0.7019608" stroke-dasharray="8.0,6.0,2.0,6.0" d="M372.0 73.0L520.0 219.0L494.0 376.0L372.0 426.0L320.0 335.0L224.0 219.0Z" fill-rule="nonzero"/><path fill="#ff0000" fill-opacity="0.7019608" d="M368.81802 69.818016L372.0 71.875L375.18198 69.818016L373.125 73.0L375.18198 76.181984L372.0 74.125L368.81802 76.181984L370.875 73.0Z" fill-rule="nonzero"/><path fill="#ff0000" fill-opacity="0.7019608" d="M516.818 215.81802L520.0 217.875L523.182 215.81802L521.125 219.0L523.182 222.18198L520.0 220.125L516.818 222.18198L518.875 219.0Z" fill-rule="nonzero"/><path fill="#ff0000" fill-opacity="0.7019608" d="M490.81802 372.81802L494.0 374.875L497.18198 372.81802L495.125 376.0L497.18198 379.18198L494.0 377.125L490.81802 379.18198L492.875 376.0Z" fill-rule="nonzero"/><path fill="#ff0000" fill-opacity="0.7019608" d="M368.81802 422.81802L372.0 424.875L375.18198 422.81802L373.125 426.0L375.18198 429.18198L372.0 427.125L368.81802 429.18198L370.875 426.0Z" fill-rule="nonzero"/><path fill="#ff0000" fill-opacity="0.7019608" d="M316.81802 331.81802L320.0 333.875L323.18198 331.81802L321.125 335.0L323.18198 338.18198L320.0 336.125L316.81802 338.18198L318.875 335.0Z" fill-rule="nonzero"/><path fill="#ff0000" fill-opacity="0.7019608" d="M220.81802 215.81802L224.0 217.875L227.18198 215.81802L225.125 219.0L227.18198 222.18198L224.0 220.125L220.81802 222.18198L222.875 219.0Z" fill-rule="nonzero"/><path fill="#757575" d="M33.5375 47.35L33.5375 34.725L28.81875 34.725L28.81875 33.0375L40.1625 33.0375L40.1625 34.725L35.428123 34.725L35.428123 47.35L33.5375 47.35ZM41.646873 47.35L41.646873 36.975L43.225 36.975L43.225 38.553123Q43.834373 37.44375 44.35 37.1Q44.865623 36.740623 45.475 36.740623Q46.365623 36.740623 47.2875 37.303123L46.678123 38.94375Q46.0375 38.553123 45.396873 38.553123Q44.81875 38.553123 44.35 38.9125Q43.896873 39.25625 43.69375 39.865623Q43.4125 40.803123 43.4125 41.9125L43.4125 47.35L41.646873 47.35ZM48.678123 35.053123L48.678123 33.0375L50.44375 33.0375L50.44375 35.053123L48.678123 35.053123ZM48.678123 47.35L48.678123 36.975L50.44375 36.975L50.44375 47.35L48.678123 47.35ZM59.44375 46.06875Q58.459373 46.896873 57.553123 47.240623Q56.646873 47.584373 55.615623 47.584373Q53.9125 47.584373 52.990623 46.75625Q52.06875 45.9125 52.06875 44.615623Q52.06875 43.85 52.4125 43.225Q52.771873 42.6 53.334373 42.225Q53.896873 41.834373 54.6 41.63125Q55.115623 41.50625 56.1625 41.365623Q58.2875 41.115623 59.2875 40.771873Q59.303123 40.4125 59.303123 40.303123Q59.303123 39.240623 58.803123 38.7875Q58.13125 38.19375 56.803123 38.19375Q55.553123 38.19375 54.959373 38.63125Q54.38125 39.06875 54.1 40.178123L52.38125 39.94375Q52.615623 38.834373 53.146873 38.1625Q53.678123 37.475 54.69375 37.115623Q55.709373 36.740623 57.053123 36.740623Q58.38125 36.740623 59.209373 37.053123Q60.0375 37.365623 60.428123 37.85Q60.81875 38.31875 60.975 39.0375Q61.06875 39.490623 61.06875 40.6625L61.06875 43.00625Q61.06875 45.459373 61.178123 46.115623Q61.2875 46.75625 61.63125 47.35L59.7875 47.35Q59.521873 46.803123 59.44375 46.06875ZM59.2875 42.146873Q58.334373 42.5375 56.4125 42.803123Q55.334373 42.959373 54.88125 43.1625Q54.44375 43.35 54.19375 43.725Q53.94375 44.1 53.94375 44.56875Q53.94375 45.271873 54.475 45.740623Q55.00625 46.209373 56.0375 46.209373Q57.053123 46.209373 57.834373 45.771873Q58.63125 45.31875 59.00625 44.553123Q59.2875 43.94375 59.2875 42.7875L59.2875 42.146873ZM63.6625 47.35L63.6625 36.975L65.25625 36.975L65.25625 38.459373Q66.39687 36.740623 68.55312 36.740623Q69.49062 36.740623 70.27187 37.084373Q71.06875 37.4125 71.45937 37.959373Q71.85 38.50625 72.00625 39.25625Q72.1 39.75625 72.1 40.975L72.1 47.35L70.33437 47.35L70.33437 41.0375Q70.33437 39.959373 70.13125 39.428123Q69.92812 38.896873 69.39687 38.584373Q68.88125 38.271873 68.17812 38.271873Q67.05312 38.271873 66.24062 38.990623Q65.42812 39.69375 65.42812 41.678123L65.42812 47.35L63.6625 47.35ZM73.35 48.209373L75.05312 48.459373Q75.1625 49.25625 75.64687 49.615623Q76.30312 50.1 77.44375 50.1Q78.6625 50.1 79.31875 49.615623Q79.99062 49.13125 80.225 48.25625Q80.36562 47.709373 80.35 45.990623Q79.19375 47.35 77.475 47.35Q75.33437 47.35 74.1625 45.803123Q72.99062 44.25625 72.99062 42.1Q72.99062 40.615623 73.52187 39.365623Q74.06875 38.115623 75.08437 37.428123Q76.11562 36.740623 77.49062 36.740623Q79.31875 36.740623 80.52187 38.225L80.52187 36.975L82.13125 36.975L82.13125 45.94375Q82.13125 48.365623 81.63125 49.365623Q81.14687 50.38125 80.06875 50.959373Q79.00625 51.553123 77.44375 51.553123Q75.6 51.553123 74.44375 50.725Q73.30312 49.896873 73.35 48.209373ZM74.80312 41.975Q74.80312 44.021873 75.61562 44.959373Q76.42812 45.896873 77.64687 45.896873Q78.85 45.896873 79.6625 44.959373Q80.49062 44.021873 80.49062 42.0375Q80.49062 40.13125 79.64687 39.1625Q78.80312 38.19375 77.61562 38.19375Q76.44375 38.19375 75.61562 39.146873Q74.80312 40.1 74.80312 41.975ZM84.63125 47.35L84.63125 33.0375L86.38125 33.0375L86.38125 47.35L84.63125 47.35ZM95.77187 44.00625L97.58437 44.240623Q97.1625 45.81875 95.99062 46.709373Q94.83437 47.584373 93.02187 47.584373Q90.75625 47.584373 89.4125 46.19375Q88.08437 44.7875 88.08437 42.25625Q88.08437 39.63125 89.42812 38.19375Q90.77187 36.740623 92.92812 36.740623Q95.00625 36.740623 96.31875 38.1625Q97.64687 39.56875 97.64687 42.146873Q97.64687 42.303123 97.63125 42.615623L89.89687 42.615623Q89.99062 44.31875 90.86562 45.225Q91.74062 46.13125 93.0375 46.13125Q94.00625 46.13125 94.67812 45.63125Q95.36562 45.115623 95.77187 44.00625ZM89.99062 41.1625L95.7875 41.1625Q95.67812 39.865623 95.13125 39.209373Q94.2875 38.19375 92.94375 38.19375Q91.74062 38.19375 90.9125 39.00625Q90.08437 39.803123 89.99062 41.1625ZM105.31875 40.38125Q105.31875 36.81875 107.225 34.803123Q109.14687 32.771873 112.17812 32.771873Q114.1625 32.771873 115.74062 33.725Q117.33437 34.678123 118.1625 36.38125Q119.00625 38.06875 119.00625 40.209373Q119.00625 42.38125 118.13125 44.1Q117.25625 45.81875 115.63125 46.709373Q114.02187 47.6 112.1625 47.6Q110.14687 47.6 108.55312 46.63125Q106.95937 45.646873 106.13125 43.959373Q105.31875 42.25625 105.31875 40.38125ZM107.27187 40.4125Q107.27187 42.990623 108.6625 44.490623Q110.05312 45.975 112.14687 45.975Q114.2875 45.975 115.6625 44.475Q117.05312 42.959373 117.05312 40.19375Q117.05312 38.459373 116.45937 37.1625Q115.88125 35.85 114.74062 35.13125Q113.6 34.4125 112.17812 34.4125Q110.17812 34.4125 108.725 35.803123Q107.27187 37.178123 107.27187 40.4125ZM128.44376 43.553123L130.1625 43.771873Q129.88126 45.56875 128.70938 46.584373Q127.55312 47.584373 125.85 47.584373Q123.725 47.584373 122.42812 46.19375Q121.13125 44.803123 121.13125 42.209373Q121.13125 40.521873 121.67812 39.271873Q122.24062 38.00625 123.38125 37.38125Q124.52187 36.740623 125.86562 36.740623Q127.55312 36.740623 128.61563 37.6Q129.69376 38.459373 130.00626 40.021873L128.2875 40.2875Q128.05313 39.240623 127.42812 38.725Q126.80312 38.19375 125.92812 38.19375Q124.6 38.19375 123.77187 39.146873Q122.94375 40.1 122.94375 42.146873Q122.94375 44.240623 123.74062 45.19375Q124.5375 46.13125 125.83437 46.13125Q126.86562 46.13125 127.55312 45.50625Q128.25626 44.865623 128.44376 43.553123ZM135.50626 45.771873L135.75626 47.334373Q135.02188 47.490623 134.42813 47.490623Q133.475 47.490623 132.94376 47.19375Q132.42813 46.88125 132.20938 46.396873Q131.99063 45.896873 131.99063 44.31875L131.99063 38.35L130.70938 38.35L130.70938 36.975L131.99063 36.975L131.99063 34.4125L133.74063 33.35L133.74063 36.975L135.50626 36.975L135.50626 38.35L133.74063 38.35L133.74063 44.4125Q133.74063 45.1625 133.83438 45.38125Q133.92813 45.584373 134.13126 45.725Q134.35 45.85 134.74063 45.85Q135.02188 45.85 135.50626 45.771873ZM144.44376 46.06875Q143.45938 46.896873 142.55313 47.240623Q141.64688 47.584373 140.61563 47.584373Q138.9125 47.584373 137.99063 46.75625Q137.06876 45.9125 137.06876 44.615623Q137.06876 43.85 137.4125 43.225Q137.77188 42.6 138.33438 42.225Q138.89688 41.834373 139.6 41.63125Q140.11563 41.50625 141.1625 41.365623Q143.2875 41.115623 144.2875 40.771873Q144.30313 40.4125 144.30313 40.303123Q144.30313 39.240623 143.80313 38.7875Q143.13126 38.19375 141.80313 38.19375Q140.55313 38.19375 139.95938 38.63125Q139.38126 39.06875 139.1 40.178123L137.38126 39.94375Q137.61563 38.834373 138.14688 38.1625Q138.67813 37.475 139.69376 37.115623Q140.70938 36.740623 142.05313 36.740623Q143.38126 36.740623 144.20938 37.053123Q145.0375 37.365623 145.42813 37.85Q145.81876 38.31875 145.975 39.0375Q146.06876 39.490623 146.06876 40.6625L146.06876 43.00625Q146.06876 45.459373 146.17813 46.115623Q146.2875 46.75625 146.63126 47.35L144.7875 47.35Q144.52188 46.803123 144.44376 46.06875ZM144.2875 42.146873Q143.33438 42.5375 141.4125 42.803123Q140.33438 42.959373 139.88126 43.1625Q139.44376 43.35 139.19376 43.725Q138.94376 44.1 138.94376 44.56875Q138.94376 45.271873 139.475 45.740623Q140.00626 46.209373 141.0375 46.209373Q142.05313 46.209373 142.83438 45.771873Q143.63126 45.31875 144.00626 44.553123Q144.2875 43.94375 144.2875 42.7875L144.2875 42.146873ZM148.6625 47.35L148.6625 36.975L150.25626 36.975L150.25626 38.459373Q151.39688 36.740623 153.55313 36.740623Q154.49063 36.740623 155.27188 37.084373Q156.06876 37.4125 156.45938 37.959373Q156.85 38.50625 157.00626 39.25625Q157.1 39.75625 157.1 40.975L157.1 47.35L155.33438 47.35L155.33438 41.0375Q155.33438 39.959373 155.13126 39.428123Q154.92813 38.896873 154.39688 38.584373Q153.88126 38.271873 153.17813 38.271873Q152.05313 38.271873 151.24063 38.990623Q150.42813 39.69375 150.42813 41.678123L150.42813 47.35L148.6625 47.35ZM165.77188 44.00625L167.58438 44.240623Q167.1625 45.81875 165.99063 46.709373Q164.83438 47.584373 163.02188 47.584373Q160.75626 47.584373 159.4125 46.19375Q158.08438 44.7875 158.08438 42.25625Q158.08438 39.63125 159.42813 38.19375Q160.77188 36.740623 162.92813 36.740623Q165.00626 36.740623 166.31876 38.1625Q167.64688 39.56875 167.64688 42.146873Q167.64688 42.303123 167.63126 42.615623L159.89688 42.615623Q159.99063 44.31875 160.86563 45.225Q161.74063 46.13125 163.0375 46.13125Q164.00626 46.13125 164.67813 45.63125Q165.36563 45.115623 165.77188 44.00625ZM159.99063 41.1625L165.7875 41.1625Q165.67813 39.865623 165.13126 39.209373Q164.2875 38.19375 162.94376 38.19375Q161.74063 38.19375 160.9125 39.00625Q160.08438 39.803123 159.99063 41.1625Z" fill-rule="nonzero"/></svg>