<svg version="1.1" viewBox="0.0 0.0 744.0 567.0" fill="none" stroke="none" stroke-linecap="square" stroke-miterlimit="10" width="744" height="567" xmlns:xlink="http://www.w3.org/1999/xlink" xmlns="http://www.w3.org/2000/svg"><path fill="#ffffff" d="M0 0L744.0 0L744.0 567.0L0 567.0L0 0Z" fill-rule="nonzero"/><path fill="#ffffff" d="M28.35 71.25L715.64996 71.25L715.64996 538.65L28.35 538.65L28.35 71.25Z" fill-rule="nonzero"/><path stroke="#cccccc" stroke-width="1.0" stroke-linecap="butt" d="M372.0 305.0C372.0 305.0 372.0 305.0 372.0 305.0C372.0 305.0 372.0 305.0 372.0 305.0C372.0 305.0 372.0 305.0 372.0 305.0C372.0 305.0 372.0 305.0 372.0 305.0" fill-rule="nonzero"/><path fill="#000000" d="M360.0625 297.04688L360.0625 298.35938Q360.0625 299.40625 359.875 300.125Q359.6875 300.84375 359.32812 301.28125Q358.98438 301.71875 358.48438 301.92188Q358.0 302.125 357.375 302.125Q356.89062 302.125 356.46875 302.0Q356.04688 301.875 355.71875 301.60938Q355.39062 301.32812 355.15625 300.89062Q354.92188 300.45312 354.79688 299.82812Q354.67188 299.1875 354.67188 298.35938L354.67188 297.04688Q354.67188 296.0 354.85938 295.29688Q355.0625 294.59375 355.40625 294.15625Q355.76562 293.71875 356.25 293.53125Q356.75 293.34375 357.35938 293.34375Q357.85938 293.34375 358.28125 293.46875Q358.70312 293.59375 359.03125 293.85938Q359.35938 294.10938 359.57812 294.54688Q359.8125 294.96875 359.9375 295.59375Q360.0625 296.21875 360.0625 297.04688ZM358.96875 298.53125L358.96875 296.875Q358.96875 296.29688 358.90625 295.85938Q358.84375 295.42188 358.70312 295.10938Q358.57812 294.79688 358.375 294.60938Q358.1875 294.42188 357.9375 294.32812Q357.6875 294.23438 357.35938 294.23438Q356.98438 294.23438 356.67188 294.375Q356.375 294.51562 356.17188 294.82812Q355.96875 295.14062 355.85938 295.65625Q355.76562 296.15625 355.76562 296.875L355.76562 298.53125Q355.76562 299.10938 355.82812 299.54688Q355.90625 299.98438 356.03125 300.3125Q356.17188 300.625 356.35938 300.82812Q356.5625 301.03125 356.8125 301.125Q357.0625 301.21875 357.375 301.21875Q357.78125 301.21875 358.07812 301.07812Q358.375 300.92188 358.57812 300.59375Q358.78125 300.26562 358.875 299.76562Q358.96875 299.25 358.96875 298.53125ZM362.8125 300.70312L362.8125 301.57812Q362.8125 302.125 362.53125 302.71875Q362.26562 303.3125 361.78125 303.70312L361.17188 303.28125Q361.35938 303.01562 361.48438 302.75Q361.60938 302.48438 361.67188 302.20312Q361.75 301.92188 361.75 301.59375L361.75 300.70312L362.8125 300.70312ZM369.0625 297.04688L369.0625 298.35938Q369.0625 299.40625 368.875 300.125Q368.6875 300.84375 368.32812 301.28125Q367.98438 301.71875 367.48438 301.92188Q367.0 302.125 366.375 302.125Q365.89062 302.125 365.46875 302.0Q365.04688 301.875 364.71875 301.60938Q364.39062 301.32812 364.15625 300.89062Q363.92188 300.45312 363.79688 299.82812Q363.67188 299.1875 363.67188 298.35938L363.67188 297.04688Q363.67188 296.0 363.85938 295.29688Q364.0625 294.59375 364.40625 294.15625Q364.76562 293.71875 365.25 293.53125Q365.75 293.34375 366.35938 293.34375Q366.85938 293.34375 367.28125 293.46875Q367.70312 293.59375 368.03125 293.85938Q368.35938 294.10938 368.57812 294.54688Q368.8125 294.96875 368.9375 295.59375Q369.0625 296.21875 369.0625 297.04688ZM367.96875 298.53125L367.96875 296.875Q367.96875 296.29688 367.90625 295.85938Q367.84375 295.42188 367.70312 295.10938Q367.57812 294.79688 367.375 294.60938Q367.1875 294.42188 366.9375 294.32812Q366.6875 294.23438 366.35938 294.23438Q365.98438 294.23438 365.67188 294.375Q365.375 294.51562 365.17188 294.82812Q364.96875 295.14062 364.85938 295.65625Q364.76562 296.15625 364.76562 296.875L364.76562 298.53125Q364.76562 299.10938 364.82812 299.54688Q364.90625 299.98438 365.03125 300.3125Q365.17188 300.625 365.35938 300.82812Q365.5625 301.03125 365.8125 301.125Q366.0625 301.21875 366.375 301.21875Q366.78125 301.21875 367.07812 301.07812Q367.375 300.92188 367.57812 300.59375Q367.78125 300.26562 367.875 299.76562Q367.96875 299.25 367.96875 298.53125Z" fill-rule="nonzero"/><path stroke="#cccccc" stroke-width="1.0" stroke-linecap="butt" d="M422.425 305.0C422.425 277.15103 399.84897 254.575 372.0 254.575C344.15103 254.575 321.575 277.15103 321.575 305.0C321.575 332.84897 344.15103 355.425 372.0 355.425C399.84897 355.425 422.425 332.84897 422.425 305.0" fill-rule="nonzero"/><path fill="#000000" d="M360.0625 246.62187L360.0625 247.93437Q360.0625 248.98125 359.875 249.7Q359.6875 250.41875 359.32812 250.85625Q358.98438 251.29375 358.48438 251.49687Q358.0 251.7 357.375 251.7Q356.89062 251.7 356.46875 251.575Q356.04688 251.45 355.71875 251.18437Q355.39062 250.90312 355.15625 250.46562Q354.92188 250.02812 354.79688 249.40312Q354.67188 248.7625 354.67188 247.93437L354.67188 246.62187Q354.67188 245.575 354.85938 244.87187Q355.0625 244.16875 355.40625 243.73125Q355.76562 243.29375 356.25 243.10625Q356.75 242.91875 357.35938 242.91875Q357.85938 242.91875 358.28125 243.04375Q358.70312 243.16875 359.03125 243.43437Q359.35938 243.68437 359.57812 244.12187Q359.8125 244.54375 359.9375 245.16875Q360.0625 245.79375 360.0625 246.62187ZM358.96875 248.10625L358.96875 246.45Q358.96875 245.87187 358.90625 245.43437Q358.84375 244.99687 358.70312 244.68437Q358.57812 244.37187 358.375 244.18437Q358.1875 243.99687 357.9375 243.90312Q357.6875 243.80937 357.35938 243.80937Q356.98438 243.80937 356.67188 243.95Q356.375 244.09062 356.17188 244.40312Q355.96875 244.71562 355.85938 245.23125Q355.76562 245.73125 355.76562 246.45L355.76562 248.10625Q355.76562 248.68437 355.82812 249.12187Q355.90625 249.55937 356.03125 249.8875Q356.17188 250.2 356.35938 250.40312Q356.5625 250.60625 356.8125 250.7Q357.0625 250.79375 357.375 250.79375Q357.78125 250.79375 358.07812 250.65312Q358.375 250.49687 358.57812 250.16875Q358.78125 249.84062 358.875 249.34062Q358.96875 248.825 358.96875 248.10625ZM362.8125 250.27812L362.8125 251.15312Q362.8125 251.7 362.53125 252.29375Q362.26562 252.8875 361.78125 253.27812L361.17188 252.85625Q361.35938 252.59062 361.48438 252.325Q361.60938 252.05937 361.67188 251.77812Q361.75 251.49687 361.75 251.16875L361.75 250.27812L362.8125 250.27812ZM367.26562 242.99687L367.26562 251.575L366.1875 251.575L366.1875 244.35625L364.0 245.15312L364.0 244.16875L367.10938 242.99687L367.26562 242.99687Z" fill-rule="nonzero"/><path stroke="#cccccc" stroke-width="1.0" stroke-linecap="butt" d="M472.85 305.0C472.85 249.30208 427.6979 204.15 372.0 204.15C316.3021 204.15 271.15 249.30208 271.15 305.0C271.15 360.6979 316.3021 405.85 372.0 405.85C427.6979 405.85 472.85 360.6979 472.85 305.0" fill-rule="nonzero"/><path fill="#000000" d="M360.0625 196.19687L360.0625 197.50937Q360.0625 198.55624 359.875 199.275Q359.6875 199.99374 359.32812 200.43124Q358.98438 200.86874 358.48438 201.07187Q358.0 201.275 357.375 201.275Q356.89062 201.275 356.46875 201.15Q356.04688 201.025 355.71875 200.75937Q355.39062 200.47812 355.15625 200.04062Q354.92188 199.60312 354.79688 198.97812Q354.67188 198.3375 354.67188 197.50937L354.67188 196.19687Q354.67188 195.15 354.85938 194.44687Q355.0625 193.74374 355.40625 193.30624Q355.76562 192.86874 356.25 192.68124Q356.75 192.49374 357.35938 192.49374Q357.85938 192.49374 358.28125 192.61874Q358.70312 192.74374 359.03125 193.00937Q359.35938 193.25937 359.57812 193.69687Q359.8125 194.11874 359.9375 194.74374Q360.0625 195.36874 360.0625 196.19687ZM358.96875 197.68124L358.96875 196.025Q358.96875 195.44687 358.90625 195.00937Q358.84375 194.57187 358.70312 194.25937Q358.57812 193.94687 358.375 193.75937Q358.1875 193.57187 357.9375 193.47812Q357.6875 193.38437 357.35938 193.38437Q356.98438 193.38437 356.67188 193.525Q356.375 193.66562 356.17188 193.97812Q355.96875 194.29062 355.85938 194.80624Q355.76562 195.30624 355.76562 196.025L355.76562 197.68124Q355.76562 198.25937 355.82812 198.69687Q355.90625 199.13437 356.03125 199.4625Q356.17188 199.775 356.35938 199.97812Q356.5625 200.18124 356.8125 200.275Q357.0625 200.36874 357.375 200.36874Q357.78125 200.36874 358.07812 200.22812Q358.375 200.07187 358.57812 199.74374Q358.78125 199.41562 358.875 198.91562Q358.96875 198.4 358.96875 197.68124ZM362.8125 199.85312L362.8125 200.72812Q362.8125 201.275 362.53125 201.86874Q362.26562 202.4625 361.78125 202.85312L361.17188 202.43124Q361.35938 202.16562 361.48438 201.9Q361.60938 201.63437 361.67188 201.35312Q361.75 201.07187 361.75 200.74374L361.75 199.85312L362.8125 199.85312ZM369.29688 200.25937L369.29688 201.15L363.71875 201.15L363.71875 200.36874L366.51562 197.25937Q367.03125 196.68124 367.3125 196.29062Q367.59375 195.88437 367.70312 195.57187Q367.82812 195.24374 367.82812 194.91562Q367.82812 194.49374 367.65625 194.15Q367.48438 193.80624 367.14062 193.60312Q366.8125 193.38437 366.32812 193.38437Q365.76562 193.38437 365.39062 193.61874Q365.01562 193.8375 364.82812 194.22812Q364.64062 194.61874 364.64062 195.11874L363.54688 195.11874Q363.54688 194.4 363.85938 193.80624Q364.1875 193.2125 364.79688 192.85312Q365.42188 192.49374 366.32812 192.49374Q367.14062 192.49374 367.71875 192.79062Q368.29688 193.07187 368.59375 193.5875Q368.90625 194.0875 368.90625 194.775Q368.90625 195.15 368.78125 195.54062Q368.65625 195.91562 368.4375 196.30624Q368.21875 196.68124 367.92188 197.05624Q367.64062 197.41562 367.3125 197.775L365.01562 200.25937L369.29688 200.25937Z" fill-rule="nonzero"/><path stroke="#cccccc" stroke-width="1.0" stroke-linecap="butt" d="M523.275 305.0C523.275 221.45312 455.54688 153.725 372.0 153.725C288.45312 153.725 220.725 221.45312 220.725 305.0C220.725 388.54688 288.45312 456.275 372.0 456.275C455.54688 456.275 523.275 388.54688 523.275 305.0" fill-rule="nonzero"/><path fill="#000000" d="M360.0625 145.77188L360.0625 147.08438Q360.0625 148.13126 359.875 148.85Q359.6875 149.56876 359.32812 150.00626Q358.98438 150.44376 358.48438 150.64688Q358.0 150.85 357.375 150.85Q356.89062 150.85 356.46875 150.725Q356.04688 150.6 355.71875 150.33438Q355.39062 150.05313 355.15625 149.61563Q354.92188 149.17813 354.79688 148.55313Q354.67188 147.9125 354.67188 147.08438L354.67188 145.77188Q354.67188 144.725 354.85938 144.02188Q355.0625 143.31876 355.40625 142.88126Q355.76562 142.44376 356.25 142.25626Q356.75 142.06876 357.35938 142.06876Q357.85938 142.06876 358.28125 142.19376Q358.70312 142.31876 359.03125 142.58438Q359.35938 142.83438 359.57812 143.27188Q359.8125 143.69376 359.9375 144.31876Q360.0625 144.94376 360.0625 145.77188ZM358.96875 147.25626L358.96875 145.6Q358.96875 145.02188 358.90625 144.58438Q358.84375 144.14688 358.70312 143.83438Q358.57812 143.52188 358.375 143.33438Q358.1875 143.14688 357.9375 143.05313Q357.6875 142.95938 357.35938 142.95938Q356.98438 142.95938 356.67188 143.1Q356.375 143.24063 356.17188 143.55313Q355.96875 143.86563 355.85938 144.38126Q355.76562 144.88126 355.76562 145.6L355.76562 147.25626Q355.76562 147.83438 355.82812 148.27188Q355.90625 148.70938 356.03125 149.0375Q356.17188 149.35 356.35938 149.55313Q356.5625 149.75626 356.8125 149.85Q357.0625 149.94376 357.375 149.94376Q357.78125 149.94376 358.07812 149.80313Q358.375 149.64688 358.57812 149.31876Q358.78125 148.99063 358.875 148.49063Q358.96875 147.975 358.96875 147.25626ZM362.8125 149.42813L362.8125 150.30313Q362.8125 150.85 362.53125 151.44376Q362.26562 152.0375 361.78125 152.42813L361.17188 152.00626Q361.35938 151.74063 361.48438 151.475Q361.60938 151.20938 361.67188 150.92813Q361.75 150.64688 361.75 150.31876L361.75 149.42813L362.8125 149.42813ZM365.29688 145.92813L366.0625 145.92813Q366.64062 145.92813 367.0 145.74063Q367.375 145.5375 367.5625 145.20938Q367.75 144.88126 367.75 144.45938Q367.75 143.975 367.57812 143.64688Q367.42188 143.30313 367.09375 143.13126Q366.76562 142.95938 366.26562 142.95938Q365.79688 142.95938 365.45312 143.14688Q365.10938 143.31876 364.90625 143.64688Q364.71875 143.975 364.71875 144.42813L363.625 144.42813Q363.625 143.77188 363.95312 143.24063Q364.28125 142.70938 364.875 142.39688Q365.46875 142.06876 366.26562 142.06876Q367.03125 142.06876 367.60938 142.35Q368.1875 142.61563 368.51562 143.1625Q368.84375 143.69376 368.84375 144.49063Q368.84375 144.81876 368.6875 145.17813Q368.53125 145.5375 368.21875 145.86563Q367.90625 146.17813 367.40625 146.38126Q366.92188 146.58438 366.21875 146.58438L365.29688 146.58438L365.29688 145.92813ZM365.29688 146.81876L365.29688 146.1625L366.21875 146.1625Q367.03125 146.1625 367.5625 146.36563Q368.09375 146.55313 368.40625 146.88126Q368.71875 147.19376 368.84375 147.58438Q368.96875 147.95938 368.96875 148.35Q368.96875 148.94376 368.76562 149.4125Q368.5625 149.86563 368.1875 150.19376Q367.82812 150.50626 367.32812 150.67813Q366.84375 150.85 366.26562 150.85Q365.70312 150.85 365.21875 150.69376Q364.73438 150.52188 364.35938 150.225Q363.98438 149.92813 363.76562 149.49063Q363.5625 149.0375 363.5625 148.475L364.64062 148.475Q364.64062 148.9125 364.82812 149.25626Q365.03125 149.58438 365.39062 149.77188Q365.76562 149.94376 366.26562 149.94376Q366.76562 149.94376 367.125 149.77188Q367.48438 149.6 367.67188 149.25626Q367.875 148.89688 367.875 148.36563Q367.875 147.83438 367.65625 147.49063Q367.4375 147.14688 367.01562 146.99063Q366.60938 146.81876 366.0625 146.81876L365.29688 146.81876Z" fill-rule="nonzero"/><path stroke="#cccccc" stroke-width="1.0" stroke-linecap="butt" d="M573.7 305.0C573.7 193.60417 483.39584 103.3 372.0 103.3C260.60416 103.3 170.3 193.60417 170.3 305.0C170.3 416.39584 260.60416 506.7 372.0 506.7C483.39584 506.7 573.7 416.39584 573.7 305.0" fill-rule="nonzero"/><path fill="#000000" d="M360.0625 95.34688L360.0625 96.65938Q360.0625 97.70625 359.875 98.425Q359.6875 99.14375 359.32812 99.58125Q358.98438 100.01875 358.48438 100.22188Q358.0 100.425 357.375 100.425Q356.89062 100.425 356.46875 100.3Q356.04688 100.175 355.71875 99.90938Q355.39062 99.62813 355.15625 99.19063Q354.92188 98.75313 354.79688 98.12813Q354.67188 97.4875 354.67188 96.65938L354.67188 95.34688Q354.67188 94.3 354.85938 93.59688Q355.0625 92.89375 355.40625 92.45625Q355.76562 92.01875 356.25 91.83125Q356.75 91.64375 357.35938 91.64375Q357.85938 91.64375 358.28125 91.76875Q358.70312 91.89375 359.03125 92.15938Q359.35938 92.40938 359.57812 92.84688Q359.8125 93.26875 359.9375 93.89375Q360.0625 94.51875 360.0625 95.34688ZM358.96875 96.83125L358.96875 95.175Q358.96875 94.59688 358.90625 94.15938Q358.84375 93.72188 358.70312 93.40938Q358.57812 93.09688 358.375 92.90938Q358.1875 92.72188 357.9375 92.62813Q357.6875 92.53438 357.35938 92.53438Q356.98438 92.53438 356.67188 92.675Q356.375 92.81563 356.17188 93.12813Q355.96875 93.44063 355.85938 93.95625Q355.76562 94.45625 355.76562 95.175L355.76562 96.83125Q355.76562 97.40938 355.82812 97.84688Q355.90625 98.28438 356.03125 98.6125Q356.17188 98.925 356.35938 99.12813Q356.5625 99.33125 356.8125 99.425Q357.0625 99.51875 357.375 99.51875Q357.78125 99.51875 358.07812 99.37813Q358.375 99.22188 358.57812 98.89375Q358.78125 98.56563 358.875 98.06563Q358.96875 97.55 358.96875 96.83125ZM362.8125 99.00313L362.8125 99.87813Q362.8125 100.425 362.53125 101.01875Q362.26562 101.6125 361.78125 102.00313L361.17188 101.58125Q361.35938 101.31563 361.48438 101.05Q361.60938 100.78438 361.67188 100.50313Q361.75 100.22188 361.75 99.89375L361.75 99.00313L362.8125 99.00313ZM369.46875 97.425L369.46875 98.31563L363.3125 98.31563L363.3125 97.675L367.125 91.76875L368.01562 91.76875L367.0625 93.47188L364.54688 97.425L369.46875 97.425ZM368.28125 91.76875L368.28125 100.3L367.20312 100.3L367.20312 91.76875L368.28125 91.76875Z" fill-rule="nonzero"/><path stroke="#cccccc" stroke-width="1.0" stroke-linecap="butt" d="M372.0 305.0L372.0 103.0" fill-rule="nonzero"/><path fill="#000000" d="M353.84375 68.96875L354.9375 68.96875L357.73438 75.921875L360.53125 68.96875L361.625 68.96875L358.15625 77.5L357.3125 77.5L353.84375 68.96875ZM353.48438 68.96875L354.45312 68.96875L354.60938 74.171875L354.60938 77.5L353.48438 77.5L353.48438 68.96875ZM361.01562 68.96875L361.98438 68.96875L361.98438 77.5L360.85938 77.5L360.85938 74.171875L361.01562 68.96875ZM365.10938 76.84375L366.875 71.15625L368.03125 71.15625L365.48438 78.484375Q365.40625 78.71875 365.25 78.984375Q365.10938 79.265625 364.89062 79.5Q364.67188 79.75 364.35938 79.90625Q364.04688 80.0625 363.60938 80.0625Q363.48438 80.0625 363.28125 80.015625Q363.07812 79.984375 363.0 79.96875L363.0 79.09375Q363.04688 79.09375 363.14062 79.09375Q363.25 79.109375 363.28125 79.109375Q363.65625 79.109375 363.90625 79.015625Q364.17188 78.921875 364.34375 78.6875Q364.53125 78.46875 364.65625 78.078125L365.10938 76.84375ZM363.8125 71.15625L365.45312 76.078125L365.73438 77.21875L364.96875 77.625L362.625 71.15625L363.8125 71.15625ZM370.40625 72.15625L370.40625 77.5L369.32812 77.5L369.32812 71.15625L370.375 71.15625L370.40625 72.15625ZM372.39062 71.125L372.39062 72.125Q372.25 72.109375 372.125 72.09375Q372.01562 72.078125 371.85938 72.078125Q371.48438 72.078125 371.1875 72.203125Q370.90625 72.3125 370.70312 72.53125Q370.51562 72.734375 370.39062 73.03125Q370.28125 73.328125 370.25 73.671875L369.9375 73.84375Q369.9375 73.265625 370.04688 72.765625Q370.17188 72.265625 370.40625 71.875Q370.65625 71.484375 371.01562 71.265625Q371.39062 71.046875 371.90625 71.046875Q372.03125 71.046875 372.17188 71.078125Q372.32812 71.09375 372.39062 71.125ZM375.85938 76.71875Q376.25 76.71875 376.57812 76.5625Q376.90625 76.40625 377.10938 76.140625Q377.32812 75.859375 377.35938 75.5L378.39062 75.5Q378.35938 76.0625 378.0 76.546875Q377.65625 77.03125 377.09375 77.328125Q376.53125 77.625 375.85938 77.625Q375.15625 77.625 374.625 77.375Q374.09375 77.109375 373.73438 76.671875Q373.39062 76.234375 373.21875 75.671875Q373.04688 75.09375 373.04688 74.453125L373.04688 74.203125Q373.04688 73.5625 373.21875 73.0Q373.39062 72.421875 373.73438 71.984375Q374.09375 71.546875 374.625 71.296875Q375.15625 71.046875 375.85938 71.046875Q376.60938 71.046875 377.15625 71.34375Q377.71875 71.640625 378.03125 72.171875Q378.35938 72.6875 378.39062 73.34375L377.35938 73.34375Q377.32812 72.953125 377.14062 72.640625Q376.95312 72.3125 376.625 72.125Q376.29688 71.9375 375.85938 71.9375Q375.35938 71.9375 375.01562 72.140625Q374.6875 72.328125 374.48438 72.65625Q374.29688 72.984375 374.20312 73.390625Q374.125 73.796875 374.125 74.203125L374.125 74.453125Q374.125 74.875 374.20312 75.28125Q374.29688 75.671875 374.48438 76.0Q374.6875 76.328125 375.01562 76.53125Q375.35938 76.71875 375.85938 76.71875ZM381.95312 77.625Q381.29688 77.625 380.75 77.40625Q380.21875 77.171875 379.82812 76.765625Q379.45312 76.34375 379.25 75.78125Q379.04688 75.21875 379.04688 74.546875L379.04688 74.3125Q379.04688 73.53125 379.26562 72.921875Q379.5 72.3125 379.89062 71.890625Q380.28125 71.46875 380.78125 71.265625Q381.28125 71.046875 381.8125 71.046875Q382.5 71.046875 382.98438 71.28125Q383.48438 71.515625 383.79688 71.9375Q384.125 72.34375 384.26562 72.921875Q384.42188 73.484375 384.42188 74.140625L384.42188 74.640625L379.6875 74.640625L379.6875 73.75L383.34375 73.75L383.34375 73.671875Q383.3125 73.25 383.15625 72.859375Q383.01562 72.453125 382.6875 72.203125Q382.375 71.9375 381.8125 71.9375Q381.45312 71.9375 381.14062 72.09375Q380.82812 72.25 380.59375 72.5625Q380.375 72.859375 380.25 73.296875Q380.14062 73.734375 380.14062 74.3125L380.14062 74.546875Q380.14062 75.0 380.26562 75.40625Q380.39062 75.796875 380.625 76.09375Q380.875 76.390625 381.21875 76.5625Q381.57812 76.734375 382.01562 76.734375Q382.59375 76.734375 382.98438 76.5Q383.39062 76.265625 383.6875 75.875L384.34375 76.390625Q384.14062 76.703125 383.8125 76.984375Q383.5 77.265625 383.03125 77.453125Q382.57812 77.625 381.95312 77.625ZM386.40625 72.515625L386.40625 77.5L385.32812 77.5L385.32812 71.15625L386.35938 71.15625L386.40625 72.515625ZM386.15625 74.09375L385.70312 74.078125Q385.70312 73.421875 385.89062 72.875Q386.07812 72.3125 386.42188 71.90625Q386.76562 71.5 387.23438 71.28125Q387.70312 71.046875 388.28125 71.046875Q388.75 71.046875 389.125 71.171875Q389.5 71.296875 389.76562 71.578125Q390.03125 71.84375 390.17188 72.28125Q390.3125 72.71875 390.3125 73.34375L390.3125 77.5L389.21875 77.5L389.21875 73.328125Q389.21875 72.828125 389.07812 72.53125Q388.9375 72.234375 388.65625 72.09375Q388.375 71.953125 387.95312 71.953125Q387.54688 71.953125 387.21875 72.125Q386.89062 72.296875 386.65625 72.59375Q386.42188 72.890625 386.28125 73.28125Q386.15625 73.65625 386.15625 74.09375Z" fill-rule="nonzero"/><path stroke="#cccccc" stroke-width="1.0" stroke-linecap="butt" d="M372.0 305.0L547.0 204.0" fill-rule="nonzero"/><path fill="#000000" d="M543.6406 190.78125L544.7656 190.78125Q544.6719 191.59375 544.2969 192.23438Q543.9219 192.875 543.2344 193.25Q542.5625 193.625 541.53125 193.625Q540.78125 193.625 540.1719 193.34375Q539.5625 193.04688 539.1094 192.53125Q538.6719 192.01562 538.4375 191.29688Q538.2031 190.5625 538.2031 189.65625L538.2031 188.8125Q538.2031 187.92188 538.4375 187.1875Q538.6719 186.45312 539.125 185.9375Q539.5781 185.40625 540.2031 185.125Q540.84375 184.84375 541.625 184.84375Q542.59375 184.84375 543.2656 185.21875Q543.9375 185.57812 544.2969 186.21875Q544.6719 186.85938 544.7656 187.70312L543.6406 187.70312Q543.5625 187.10938 543.3281 186.6875Q543.1094 186.25 542.7031 186.01562Q542.2969 185.78125 541.625 185.78125Q541.0625 185.78125 540.625 186.0Q540.2031 186.20312 539.90625 186.60938Q539.625 187.0 539.46875 187.5625Q539.3281 188.125 539.3281 188.79688L539.3281 189.65625Q539.3281 190.28125 539.4531 190.84375Q539.59375 191.39062 539.8594 191.8125Q540.125 192.21875 540.5469 192.46875Q540.96875 192.70312 541.53125 192.70312Q542.25 192.70312 542.6719 192.46875Q543.1094 192.23438 543.3281 191.8125Q543.5469 191.39062 543.6406 190.78125ZM550.0625 192.42188L550.0625 189.15625Q550.0625 188.78125 549.90625 188.5Q549.7656 188.21875 549.46875 188.07812Q549.1719 187.92188 548.7344 187.92188Q548.3125 187.92188 548.0 188.0625Q547.7031 188.20312 547.53125 188.4375Q547.3594 188.65625 547.3594 188.92188L546.28125 188.92188Q546.28125 188.57812 546.4531 188.25Q546.625 187.90625 546.9531 187.64062Q547.28125 187.35938 547.75 187.20312Q548.21875 187.04688 548.7969 187.04688Q549.4844 187.04688 550.0156 187.28125Q550.5469 187.51562 550.84375 187.98438Q551.15625 188.45312 551.15625 189.15625L551.15625 192.10938Q551.15625 192.4375 551.2031 192.79688Q551.2656 193.14062 551.375 193.40625L551.375 193.5L550.2344 193.5Q550.15625 193.3125 550.1094 193.0Q550.0625 192.6875 550.0625 192.42188ZM550.25 189.65625L550.2656 190.42188L549.1719 190.42188Q548.7031 190.42188 548.34375 190.5Q547.9844 190.5625 547.7344 190.71875Q547.4844 190.85938 547.3594 191.07812Q547.2344 191.29688 547.2344 191.59375Q547.2344 191.89062 547.3594 192.14062Q547.5 192.375 547.7656 192.53125Q548.0469 192.67188 548.4375 192.67188Q548.9375 192.67188 549.3125 192.46875Q549.7031 192.25 549.9219 191.95312Q550.15625 191.64062 550.1719 191.34375L550.6406 191.875Q550.59375 192.10938 550.40625 192.42188Q550.2344 192.71875 549.9219 193.0Q549.625 193.26562 549.2031 193.45312Q548.7969 193.625 548.28125 193.625Q547.6406 193.625 547.15625 193.375Q546.6719 193.10938 546.40625 192.6875Q546.1406 192.26562 546.1406 191.73438Q546.1406 191.21875 546.3281 190.84375Q546.53125 190.45312 546.90625 190.1875Q547.28125 189.92188 547.8125 189.79688Q548.34375 189.65625 549.0 189.65625L550.25 189.65625ZM554.40625 188.15625L554.40625 193.5L553.3281 193.5L553.3281 187.15625L554.375 187.15625L554.40625 188.15625ZM556.3906 187.125L556.3906 188.125Q556.25 188.10938 556.125 188.09375Q556.0156 188.07812 555.8594 188.07812Q555.4844 188.07812 555.1875 188.20312Q554.90625 188.3125 554.7031 188.53125Q554.5156 188.73438 554.3906 189.03125Q554.28125 189.32812 554.25 189.67188L553.9375 189.84375Q553.9375 189.26562 554.0469 188.76562Q554.1719 188.26562 554.40625 187.875Q554.65625 187.48438 555.0156 187.26562Q555.3906 187.04688 555.90625 187.04688Q556.03125 187.04688 556.1719 187.07812Q556.3281 187.09375 556.3906 187.125ZM559.1094 192.84375L560.875 187.15625L562.03125 187.15625L559.4844 194.48438Q559.40625 194.71875 559.25 194.98438Q559.1094 195.26562 558.8906 195.5Q558.6719 195.75 558.3594 195.90625Q558.0469 196.0625 557.6094 196.0625Q557.4844 196.0625 557.28125 196.01562Q557.0781 195.98438 557.0 195.96875L557.0 195.09375Q557.0469 195.09375 557.1406 195.09375Q557.25 195.10938 557.28125 195.10938Q557.65625 195.10938 557.90625 195.01562Q558.1719 194.92188 558.34375 194.6875Q558.53125 194.46875 558.65625 194.07812L559.1094 192.84375ZM557.8125 187.15625L559.4531 192.07812L559.7344 193.21875L558.96875 193.625L556.625 187.15625L557.8125 187.15625ZM563.0469 190.40625L563.0469 190.26562Q563.0469 189.57812 563.2344 189.0Q563.4375 188.40625 563.8125 187.96875Q564.1875 187.53125 564.71875 187.29688Q565.25 187.04688 565.9219 187.04688Q566.5781 187.04688 567.1094 187.29688Q567.65625 187.53125 568.03125 187.96875Q568.40625 188.40625 568.6094 189.0Q568.8125 189.57812 568.8125 190.26562L568.8125 190.40625Q568.8125 191.07812 568.6094 191.67188Q568.40625 192.25 568.03125 192.6875Q567.65625 193.125 567.125 193.375Q566.59375 193.625 565.9219 193.625Q565.2656 193.625 564.71875 193.375Q564.1875 193.125 563.8125 192.6875Q563.4375 192.25 563.2344 191.67188Q563.0469 191.07812 563.0469 190.40625ZM564.125 190.26562L564.125 190.40625Q564.125 190.875 564.2344 191.29688Q564.34375 191.71875 564.5625 192.04688Q564.7969 192.35938 565.1406 192.54688Q565.4844 192.71875 565.9219 192.71875Q566.375 192.71875 566.7031 192.54688Q567.0469 192.35938 567.2656 192.04688Q567.5 191.71875 567.6094 191.29688Q567.71875 190.875 567.71875 190.40625L567.71875 190.26562Q567.71875 189.79688 567.6094 189.375Q567.5 188.95312 567.2656 188.64062Q567.0469 188.3125 566.7031 188.125Q566.375 187.9375 565.9219 187.9375Q565.46875 187.9375 565.125 188.125Q564.7969 188.3125 564.5625 188.64062Q564.34375 188.95312 564.2344 189.375Q564.125 189.79688 564.125 190.26562ZM571.40625 188.375L571.40625 195.9375L570.3281 195.9375L570.3281 187.15625L571.3125 187.15625L571.40625 188.375ZM575.6875 190.28125L575.6875 190.40625Q575.6875 191.09375 575.5156 191.6875Q575.3594 192.26562 575.0469 192.70312Q574.7344 193.14062 574.2656 193.39062Q573.8125 193.625 573.21875 193.625Q572.625 193.625 572.15625 193.42188Q571.6875 193.21875 571.3594 192.84375Q571.0469 192.45312 570.8594 191.92188Q570.6719 191.39062 570.59375 190.71875L570.59375 190.0625Q570.6719 189.35938 570.8594 188.8125Q571.0469 188.25 571.3594 187.85938Q571.6875 187.45312 572.1406 187.25Q572.6094 187.04688 573.2031 187.04688Q573.7969 187.04688 574.2656 187.28125Q574.7344 187.5 575.0469 187.9375Q575.3594 188.35938 575.5156 188.95312Q575.6875 189.54688 575.6875 190.28125ZM574.59375 190.40625L574.59375 190.28125Q574.59375 189.79688 574.4844 189.39062Q574.3906 188.96875 574.1875 188.65625Q573.9844 188.32812 573.65625 188.14062Q573.3281 187.95312 572.8906 187.95312Q572.4844 187.95312 572.1719 188.09375Q571.875 188.23438 571.65625 188.48438Q571.4531 188.71875 571.3125 189.01562Q571.1875 189.3125 571.125 189.64062L571.125 191.15625Q571.2344 191.5625 571.4375 191.92188Q571.65625 192.28125 572.0 192.5Q572.3594 192.71875 572.90625 192.71875Q573.34375 192.71875 573.65625 192.54688Q573.9844 192.35938 574.1875 192.04688Q574.3906 191.71875 574.4844 191.29688Q574.59375 190.875 574.59375 190.40625ZM578.40625 184.5L578.40625 193.5L577.3281 193.5L577.3281 184.5L578.40625 184.5ZM578.15625 190.09375L577.7031 190.07812Q577.7031 189.42188 577.8906 188.875Q578.0781 188.3125 578.4219 187.90625Q578.7656 187.5 579.2344 187.28125Q579.7031 187.04688 580.28125 187.04688Q580.75 187.04688 581.125 187.17188Q581.5 187.29688 581.7656 187.57812Q582.03125 187.84375 582.1719 188.28125Q582.3125 188.71875 582.3125 189.34375L582.3125 193.5L581.21875 193.5L581.21875 189.32812Q581.21875 188.82812 581.0781 188.53125Q580.9375 188.23438 580.65625 188.09375Q580.375 187.95312 579.9531 187.95312Q579.5469 187.95312 579.21875 188.125Q578.8906 188.29688 578.65625 188.59375Q578.4219 188.89062 578.28125 189.28125Q578.15625 189.65625 578.15625 190.09375ZM586.1094 192.84375L587.875 187.15625L589.03125 187.15625L586.4844 194.48438Q586.40625 194.71875 586.25 194.98438Q586.1094 195.26562 585.8906 195.5Q585.6719 195.75 585.3594 195.90625Q585.0469 196.0625 584.6094 196.0625Q584.4844 196.0625 584.28125 196.01562Q584.0781 195.98438 584.0 195.96875L584.0 195.09375Q584.0469 195.09375 584.1406 195.09375Q584.25 195.10938 584.28125 195.10938Q584.65625 195.10938 584.90625 195.01562Q585.1719 194.92188 585.34375 194.6875Q585.53125 194.46875 585.65625 194.07812L586.1094 192.84375ZM584.8125 187.15625L586.4531 192.07812L586.7344 193.21875L585.96875 193.625L583.625 187.15625L584.8125 187.15625ZM591.5 184.5L591.5 193.5L590.4219 193.5L590.4219 184.5L591.5 184.5ZM594.5 184.5L594.5 193.5L593.4219 193.5L593.4219 184.5L594.5 184.5ZM598.9531 193.625Q598.2969 193.625 597.75 193.40625Q597.21875 193.17188 596.8281 192.76562Q596.4531 192.34375 596.25 191.78125Q596.0469 191.21875 596.0469 190.54688L596.0469 190.3125Q596.0469 189.53125 596.2656 188.92188Q596.5 188.3125 596.8906 187.89062Q597.28125 187.46875 597.78125 187.26562Q598.28125 187.04688 598.8125 187.04688Q599.5 187.04688 599.9844 187.28125Q600.4844 187.51562 600.7969 187.9375Q601.125 188.34375 601.2656 188.92188Q601.4219 189.48438 601.4219 190.14062L601.4219 190.64062L596.6875 190.64062L596.6875 189.75L600.34375 189.75L600.34375 189.67188Q600.3125 189.25 600.15625 188.85938Q600.0156 188.45312 599.6875 188.20312Q599.375 187.9375 598.8125 187.9375Q598.4531 187.9375 598.1406 188.09375Q597.8281 188.25 597.59375 188.5625Q597.375 188.85938 597.25 189.29688Q597.1406 189.73438 597.1406 190.3125L597.1406 190.54688Q597.1406 191.0 597.2656 191.40625Q597.3906 191.79688 597.625 192.09375Q597.875 192.39062 598.21875 192.5625Q598.5781 192.73438 599.0156 192.73438Q599.59375 192.73438 599.9844 192.5Q600.3906 192.26562 600.6875 191.875L601.34375 192.39062Q601.1406 192.70312 600.8125 192.98438Q600.5 193.26562 600.03125 193.45312Q599.5781 193.625 598.9531 193.625ZM603.40625 188.51562L603.40625 193.5L602.3281 193.5L602.3281 187.15625L603.3594 187.15625L603.40625 188.51562ZM603.15625 190.09375L602.7031 190.07812Q602.7031 189.42188 602.8906 188.875Q603.0781 188.3125 603.4219 187.90625Q603.7656 187.5 604.2344 187.28125Q604.7031 187.04688 605.28125 187.04688Q605.75 187.04688 606.125 187.17188Q606.5 187.29688 606.7656 187.57812Q607.03125 187.84375 607.1719 188.28125Q607.3125 188.71875 607.3125 189.34375L607.3125 193.5L606.21875 193.5L606.21875 189.32812Q606.21875 188.82812 606.0781 188.53125Q605.9375 188.23438 605.65625 188.09375Q605.375 187.95312 604.9531 187.95312Q604.5469 187.95312 604.21875 188.125Q603.8906 188.29688 603.65625 188.59375Q603.4219 188.89062 603.28125 189.28125Q603.15625 189.65625 603.15625 190.09375Z" fill-rule="nonzero"/><path stroke="#cccccc" stroke-width="1.0" stroke-linecap="butt" d="M372.0 305.0L547.0 406.0" fill-rule="nonzero"/><path fill="#000000" d="M557.6719 424.57812L557.6719 425.5L553.40625 425.5L553.40625 424.57812L557.6719 424.57812ZM553.625 416.96875L553.625 425.5L552.4844 425.5L552.4844 416.96875L553.625 416.96875ZM559.5 419.15625L559.5 425.5L558.4219 425.5L558.4219 419.15625L559.5 419.15625ZM558.3281 417.48438Q558.3281 417.21875 558.4844 417.03125Q558.65625 416.84375 558.96875 416.84375Q559.28125 416.84375 559.4375 417.03125Q559.6094 417.21875 559.6094 417.48438Q559.6094 417.73438 559.4375 417.92188Q559.28125 418.09375 558.96875 418.09375Q558.65625 418.09375 558.4844 417.92188Q558.3281 417.73438 558.3281 417.48438ZM562.40625 420.51562L562.40625 425.5L561.3281 425.5L561.3281 419.15625L562.3594 419.15625L562.40625 420.51562ZM562.15625 422.09375L561.7031 422.07812Q561.7031 421.42188 561.8906 420.875Q562.0781 420.3125 562.4219 419.90625Q562.7656 419.5 563.2344 419.28125Q563.7031 419.04688 564.28125 419.04688Q564.75 419.04688 565.125 419.17188Q565.5 419.29688 565.7656 419.57812Q566.03125 419.84375 566.1719 420.28125Q566.3125 420.71875 566.3125 421.34375L566.3125 425.5L565.21875 425.5L565.21875 421.32812Q565.21875 420.82812 565.0781 420.53125Q564.9375 420.23438 564.65625 420.09375Q564.375 419.95312 563.9531 419.95312Q563.5469 419.95312 563.21875 420.125Q562.8906 420.29688 562.65625 420.59375Q562.4219 420.89062 562.28125 421.28125Q562.15625 421.65625 562.15625 422.09375ZM572.0625 424.42188L572.0625 421.15625Q572.0625 420.78125 571.90625 420.5Q571.7656 420.21875 571.46875 420.07812Q571.1719 419.92188 570.7344 419.92188Q570.3125 419.92188 570.0 420.0625Q569.7031 420.20312 569.53125 420.4375Q569.3594 420.65625 569.3594 420.92188L568.28125 420.92188Q568.28125 420.57812 568.4531 420.25Q568.625 419.90625 568.9531 419.64062Q569.28125 419.35938 569.75 419.20312Q570.21875 419.04688 570.7969 419.04688Q571.4844 419.04688 572.0156 419.28125Q572.5469 419.51562 572.84375 419.98438Q573.15625 420.45312 573.15625 421.15625L573.15625 424.10938Q573.15625 424.4375 573.2031 424.79688Q573.2656 425.14062 573.375 425.40625L573.375 425.5L572.2344 425.5Q572.15625 425.3125 572.1094 425.0Q572.0625 424.6875 572.0625 424.42188ZM572.25 421.65625L572.2656 422.42188L571.1719 422.42188Q570.7031 422.42188 570.34375 422.5Q569.9844 422.5625 569.7344 422.71875Q569.4844 422.85938 569.3594 423.07812Q569.2344 423.29688 569.2344 423.59375Q569.2344 423.89062 569.3594 424.14062Q569.5 424.375 569.7656 424.53125Q570.0469 424.67188 570.4375 424.67188Q570.9375 424.67188 571.3125 424.46875Q571.7031 424.25 571.9219 423.95312Q572.15625 423.64062 572.1719 423.34375L572.6406 423.875Q572.59375 424.10938 572.40625 424.42188Q572.2344 424.71875 571.9219 425.0Q571.625 425.26562 571.2031 425.45312Q570.7969 425.625 570.28125 425.625Q569.6406 425.625 569.15625 425.375Q568.6719 425.10938 568.40625 424.6875Q568.1406 424.26562 568.1406 423.73438Q568.1406 423.21875 568.3281 422.84375Q568.53125 422.45312 568.90625 422.1875Q569.28125 421.92188 569.8125 421.79688Q570.34375 421.65625 571.0 421.65625L572.25 421.65625ZM576.5 416.5L576.5 425.5L575.4219 425.5L575.4219 416.5L576.5 416.5ZM578.0469 422.40625L578.0469 422.26562Q578.0469 421.57812 578.2344 421.0Q578.4375 420.40625 578.8125 419.96875Q579.1875 419.53125 579.71875 419.29688Q580.25 419.04688 580.9219 419.04688Q581.5781 419.04688 582.1094 419.29688Q582.65625 419.53125 583.03125 419.96875Q583.40625 420.40625 583.6094 421.0Q583.8125 421.57812 583.8125 422.26562L583.8125 422.40625Q583.8125 423.07812 583.6094 423.67188Q583.40625 424.25 583.03125 424.6875Q582.65625 425.125 582.125 425.375Q581.59375 425.625 580.9219 425.625Q580.2656 425.625 579.71875 425.375Q579.1875 425.125 578.8125 424.6875Q578.4375 424.25 578.2344 423.67188Q578.0469 423.07812 578.0469 422.40625ZM579.125 422.26562L579.125 422.40625Q579.125 422.875 579.2344 423.29688Q579.34375 423.71875 579.5625 424.04688Q579.7969 424.35938 580.1406 424.54688Q580.4844 424.71875 580.9219 424.71875Q581.375 424.71875 581.7031 424.54688Q582.0469 424.35938 582.2656 424.04688Q582.5 423.71875 582.6094 423.29688Q582.71875 422.875 582.71875 422.40625L582.71875 422.26562Q582.71875 421.79688 582.6094 421.375Q582.5 420.95312 582.2656 420.64062Q582.0469 420.3125 581.7031 420.125Q581.375 419.9375 580.9219 419.9375Q580.46875 419.9375 580.125 420.125Q579.7969 420.3125 579.5625 420.64062Q579.34375 420.95312 579.2344 421.375Q579.125 421.79688 579.125 422.26562ZM585.0469 422.40625L585.0469 422.26562Q585.0469 421.57812 585.2344 421.0Q585.4375 420.40625 585.8125 419.96875Q586.1875 419.53125 586.71875 419.29688Q587.25 419.04688 587.9219 419.04688Q588.5781 419.04688 589.1094 419.29688Q589.65625 419.53125 590.03125 419.96875Q590.40625 420.40625 590.6094 421.0Q590.8125 421.57812 590.8125 422.26562L590.8125 422.40625Q590.8125 423.07812 590.6094 423.67188Q590.40625 424.25 590.03125 424.6875Q589.65625 425.125 589.125 425.375Q588.59375 425.625 587.9219 425.625Q587.2656 425.625 586.71875 425.375Q586.1875 425.125 585.8125 424.6875Q585.4375 424.25 585.2344 423.67188Q585.0469 423.07812 585.0469 422.40625ZM586.125 422.26562L586.125 422.40625Q586.125 422.875 586.2344 423.29688Q586.34375 423.71875 586.5625 424.04688Q586.7969 424.35938 587.1406 424.54688Q587.4844 424.71875 587.9219 424.71875Q588.375 424.71875 588.7031 424.54688Q589.0469 424.35938 589.2656 424.04688Q589.5 423.71875 589.6094 423.29688Q589.71875 422.875 589.71875 422.40625L589.71875 422.26562Q589.71875 421.79688 589.6094 421.375Q589.5 420.95312 589.2656 420.64062Q589.0469 420.3125 588.7031 420.125Q588.375 419.9375 587.9219 419.9375Q587.46875 419.9375 587.125 420.125Q586.7969 420.3125 586.5625 420.64062Q586.34375 420.95312 586.2344 421.375Q586.125 421.79688 586.125 422.26562ZM593.5 416.5L593.5 425.5L592.4219 425.5L592.4219 416.5L593.5 416.5Z" fill-rule="nonzero"/><path stroke="#cccccc" stroke-width="1.0" stroke-linecap="butt" d="M372.0 305.0L372.0 507.0" fill-rule="nonzero"/><path fill="#000000" d="M354.67188 540.5781L354.67188 541.5L350.40625 541.5L350.40625 540.5781L354.67188 540.5781ZM350.625 532.96875L350.625 541.5L349.48438 541.5L349.48438 532.96875L350.625 532.96875ZM356.5 535.15625L356.5 541.5L355.42188 541.5L355.42188 535.15625L356.5 535.15625ZM355.32812 533.4844Q355.32812 533.21875 355.48438 533.03125Q355.65625 532.84375 355.96875 532.84375Q356.28125 532.84375 356.4375 533.03125Q356.60938 533.21875 356.60938 533.4844Q356.60938 533.7344 356.4375 533.9219Q356.28125 534.09375 355.96875 534.09375Q355.65625 534.09375 355.48438 533.9219Q355.32812 533.7344 355.32812 533.4844ZM359.40625 536.4219L359.40625 541.5L358.3125 541.5L358.3125 535.15625L359.34375 535.15625L359.40625 536.4219ZM359.1875 538.09375L358.67188 538.0781Q358.6875 537.4219 358.84375 536.875Q359.01562 536.3125 359.32812 535.90625Q359.65625 535.5 360.14062 535.28125Q360.625 535.0469 361.25 535.0469Q361.70312 535.0469 362.07812 535.1719Q362.45312 535.2969 362.71875 535.5625Q363.0 535.8281 363.14062 536.25Q363.29688 536.6719 363.29688 537.28125L363.29688 541.5L362.21875 541.5L362.21875 537.3281Q362.21875 536.8281 362.04688 536.53125Q361.89062 536.2344 361.57812 536.09375Q361.28125 535.9531 360.85938 535.9531Q360.39062 535.9531 360.0625 536.125Q359.73438 536.2969 359.54688 536.59375Q359.35938 536.8906 359.26562 537.28125Q359.1875 537.65625 359.1875 538.09375ZM363.29688 537.4844L362.5625 537.71875Q362.5625 537.1875 362.73438 536.71875Q362.90625 536.2344 363.21875 535.8594Q363.54688 535.4844 364.01562 535.2656Q364.48438 535.0469 365.07812 535.0469Q365.59375 535.0469 365.98438 535.1875Q366.39062 535.3125 366.65625 535.59375Q366.92188 535.875 367.0625 536.3125Q367.20312 536.7344 367.20312 537.3281L367.20312 541.5L366.125 541.5L366.125 537.3281Q366.125 536.78125 365.95312 536.5Q365.78125 536.2031 365.48438 536.0781Q365.1875 535.9531 364.76562 535.9531Q364.40625 535.9531 364.125 536.0781Q363.85938 536.2031 363.67188 536.4219Q363.48438 536.625 363.39062 536.90625Q363.29688 537.1875 363.29688 537.4844ZM369.04688 538.40625L369.04688 538.2656Q369.04688 537.5781 369.23438 537.0Q369.4375 536.40625 369.8125 535.96875Q370.1875 535.53125 370.71875 535.2969Q371.25 535.0469 371.92188 535.0469Q372.57812 535.0469 373.10938 535.2969Q373.65625 535.53125 374.03125 535.96875Q374.40625 536.40625 374.60938 537.0Q374.8125 537.5781 374.8125 538.2656L374.8125 538.40625Q374.8125 539.0781 374.60938 539.6719Q374.40625 540.25 374.03125 540.6875Q373.65625 541.125 373.125 541.375Q372.59375 541.625 371.92188 541.625Q371.26562 541.625 370.71875 541.375Q370.1875 541.125 369.8125 540.6875Q369.4375 540.25 369.23438 539.6719Q369.04688 539.0781 369.04688 538.40625ZM370.125 538.2656L370.125 538.40625Q370.125 538.875 370.23438 539.2969Q370.34375 539.71875 370.5625 540.0469Q370.79688 540.3594 371.14062 540.5469Q371.48438 540.71875 371.92188 540.71875Q372.375 540.71875 372.70312 540.5469Q373.04688 540.3594 373.26562 540.0469Q373.5 539.71875 373.60938 539.2969Q373.71875 538.875 373.71875 538.40625L373.71875 538.2656Q373.71875 537.7969 373.60938 537.375Q373.5 536.9531 373.26562 536.6406Q373.04688 536.3125 372.70312 536.125Q372.375 535.9375 371.92188 535.9375Q371.46875 535.9375 371.125 536.125Q370.79688 536.3125 370.5625 536.6406Q370.34375 536.9531 370.23438 537.375Q370.125 537.7969 370.125 538.2656ZM377.40625 536.5156L377.40625 541.5L376.32812 541.5L376.32812 535.15625L377.35938 535.15625L377.40625 536.5156ZM377.15625 538.09375L376.70312 538.0781Q376.70312 537.4219 376.89062 536.875Q377.07812 536.3125 377.42188 535.90625Q377.76562 535.5 378.23438 535.28125Q378.70312 535.0469 379.28125 535.0469Q379.75 535.0469 380.125 535.1719Q380.5 535.2969 380.76562 535.5781Q381.03125 535.84375 381.17188 536.28125Q381.3125 536.71875 381.3125 537.34375L381.3125 541.5L380.21875 541.5L380.21875 537.3281Q380.21875 536.8281 380.07812 536.53125Q379.9375 536.2344 379.65625 536.09375Q379.375 535.9531 378.95312 535.9531Q378.54688 535.9531 378.21875 536.125Q377.89062 536.2969 377.65625 536.59375Q377.42188 536.8906 377.28125 537.28125Q377.15625 537.65625 377.15625 538.09375ZM385.95312 541.625Q385.29688 541.625 384.75 541.40625Q384.21875 541.1719 383.82812 540.7656Q383.45312 540.34375 383.25 539.78125Q383.04688 539.21875 383.04688 538.5469L383.04688 538.3125Q383.04688 537.53125 383.26562 536.9219Q383.5 536.3125 383.89062 535.8906Q384.28125 535.46875 384.78125 535.2656Q385.28125 535.0469 385.8125 535.0469Q386.5 535.0469 386.98438 535.28125Q387.48438 535.5156 387.79688 535.9375Q388.125 536.34375 388.26562 536.9219Q388.42188 537.4844 388.42188 538.1406L388.42188 538.6406L383.6875 538.6406L383.6875 537.75L387.34375 537.75L387.34375 537.6719Q387.3125 537.25 387.15625 536.8594Q387.01562 536.4531 386.6875 536.2031Q386.375 535.9375 385.8125 535.9375Q385.45312 535.9375 385.14062 536.09375Q384.82812 536.25 384.59375 536.5625Q384.375 536.8594 384.25 537.2969Q384.14062 537.7344 384.14062 538.3125L384.14062 538.5469Q384.14062 539.0 384.26562 539.40625Q384.39062 539.7969 384.625 540.09375Q384.875 540.3906 385.21875 540.5625Q385.57812 540.7344 386.01562 540.7344Q386.59375 540.7344 386.98438 540.5Q387.39062 540.2656 387.6875 539.875L388.34375 540.3906Q388.14062 540.7031 387.8125 540.9844Q387.5 541.2656 387.03125 541.4531Q386.57812 541.625 385.95312 541.625ZM390.40625 536.5156L390.40625 541.5L389.32812 541.5L389.32812 535.15625L390.35938 535.15625L390.40625 536.5156ZM390.15625 538.09375L389.70312 538.0781Q389.70312 537.4219 389.89062 536.875Q390.07812 536.3125 390.42188 535.90625Q390.76562 535.5 391.23438 535.28125Q391.70312 535.0469 392.28125 535.0469Q392.75 535.0469 393.125 535.1719Q393.5 535.2969 393.76562 535.5781Q394.03125 535.84375 394.17188 536.28125Q394.3125 536.71875 394.3125 537.34375L394.3125 541.5L393.21875 541.5L393.21875 537.3281Q393.21875 536.8281 393.07812 536.53125Q392.9375 536.2344 392.65625 536.09375Q392.375 535.9531 391.95312 535.9531Q391.54688 535.9531 391.21875 536.125Q390.89062 536.2969 390.65625 536.59375Q390.42188 536.8906 390.28125 537.28125Q390.15625 537.65625 390.15625 538.09375Z" fill-rule="nonzero"/><path stroke="#cccccc" stroke-width="1.0" stroke-linecap="butt" d="M372.0 305.0L197.0 406.0" fill-rule="nonzero"/><path fill="#000000" d="M152.5625 420.64062L152.5625 421.5625L147.95312 421.5625L147.95312 420.64062L152.5625 420.64062ZM148.125 416.96875L148.125 425.5L146.98438 425.5L146.98438 416.96875L148.125 416.96875ZM153.54688 416.96875L153.54688 425.5L152.42188 425.5L152.42188 416.96875L153.54688 416.96875ZM159.70312 424.03125L159.70312 419.15625L160.79688 419.15625L160.79688 425.5L159.76562 425.5L159.70312 424.03125ZM159.90625 422.70312L160.35938 422.6875Q160.35938 423.3125 160.21875 423.85938Q160.09375 424.39062 159.79688 424.78125Q159.51562 425.17188 159.03125 425.40625Q158.5625 425.625 157.89062 425.625Q157.42188 425.625 157.03125 425.48438Q156.65625 425.34375 156.375 425.0625Q156.10938 424.78125 155.95312 424.32812Q155.79688 423.875 155.79688 423.25L155.79688 419.15625L156.89062 419.15625L156.89062 423.26562Q156.89062 423.6875 156.98438 423.96875Q157.07812 424.25 157.25 424.40625Q157.42188 424.5625 157.625 424.64062Q157.82812 424.70312 158.04688 424.70312Q158.75 424.70312 159.14062 424.4375Q159.54688 424.15625 159.71875 423.70312Q159.90625 423.25 159.90625 422.70312ZM163.90625 420.42188L163.90625 425.5L162.8125 425.5L162.8125 419.15625L163.84375 419.15625L163.90625 420.42188ZM163.6875 422.09375L163.17188 422.07812Q163.1875 421.42188 163.34375 420.875Q163.51562 420.3125 163.82812 419.90625Q164.15625 419.5 164.64062 419.28125Q165.125 419.04688 165.75 419.04688Q166.20312 419.04688 166.57812 419.17188Q166.95312 419.29688 167.21875 419.5625Q167.5 419.82812 167.64062 420.25Q167.79688 420.67188 167.79688 421.28125L167.79688 425.5L166.71875 425.5L166.71875 421.32812Q166.71875 420.82812 166.54688 420.53125Q166.39062 420.23438 166.07812 420.09375Q165.78125 419.95312 165.35938 419.95312Q164.89062 419.95312 164.5625 420.125Q164.23438 420.29688 164.04688 420.59375Q163.85938 420.89062 163.76562 421.28125Q163.6875 421.65625 163.6875 422.09375ZM167.79688 421.48438L167.0625 421.71875Q167.0625 421.1875 167.23438 420.71875Q167.40625 420.23438 167.71875 419.85938Q168.04688 419.48438 168.51562 419.26562Q168.98438 419.04688 169.57812 419.04688Q170.09375 419.04688 170.48438 419.1875Q170.89062 419.3125 171.15625 419.59375Q171.42188 419.875 171.5625 420.3125Q171.70312 420.73438 171.70312 421.32812L171.70312 425.5L170.625 425.5L170.625 421.32812Q170.625 420.78125 170.45312 420.5Q170.28125 420.20312 169.98438 420.07812Q169.6875 419.95312 169.26562 419.95312Q168.90625 419.95312 168.625 420.07812Q168.35938 420.20312 168.17188 420.42188Q167.98438 420.625 167.89062 420.90625Q167.79688 421.1875 167.79688 421.48438ZM177.70312 424.03125L177.70312 419.15625L178.79688 419.15625L178.79688 425.5L177.76562 425.5L177.70312 424.03125ZM177.90625 422.70312L178.35938 422.6875Q178.35938 423.3125 178.21875 423.85938Q178.09375 424.39062 177.79688 424.78125Q177.51562 425.17188 177.03125 425.40625Q176.5625 425.625 175.89062 425.625Q175.42188 425.625 175.03125 425.48438Q174.65625 425.34375 174.375 425.0625Q174.10938 424.78125 173.95312 424.32812Q173.79688 423.875 173.79688 423.25L173.79688 419.15625L174.89062 419.15625L174.89062 423.26562Q174.89062 423.6875 174.98438 423.96875Q175.07812 424.25 175.25 424.40625Q175.42188 424.5625 175.625 424.64062Q175.82812 424.70312 176.04688 424.70312Q176.75 424.70312 177.14062 424.4375Q177.54688 424.15625 177.71875 423.70312Q177.90625 423.25 177.90625 422.70312ZM182.0 416.5L182.0 425.5L180.92188 425.5L180.92188 416.5L182.0 416.5ZM186.45312 425.625Q185.79688 425.625 185.25 425.40625Q184.71875 425.17188 184.32812 424.76562Q183.95312 424.34375 183.75 423.78125Q183.54688 423.21875 183.54688 422.54688L183.54688 422.3125Q183.54688 421.53125 183.76562 420.92188Q184.0 420.3125 184.39062 419.89062Q184.78125 419.46875 185.28125 419.26562Q185.78125 419.04688 186.3125 419.04688Q187.0 419.04688 187.48438 419.28125Q187.98438 419.51562 188.29688 419.9375Q188.625 420.34375 188.76562 420.92188Q188.92188 421.48438 188.92188 422.14062L188.92188 422.64062L184.1875 422.64062L184.1875 421.75L187.84375 421.75L187.84375 421.67188Q187.8125 421.25 187.65625 420.85938Q187.51562 420.45312 187.1875 420.20312Q186.875 419.9375 186.3125 419.9375Q185.95312 419.9375 185.64062 420.09375Q185.32812 420.25 185.09375 420.5625Q184.875 420.85938 184.75 421.29688Q184.64062 421.73438 184.64062 422.3125L184.64062 422.54688Q184.64062 423.0 184.76562 423.40625Q184.89062 423.79688 185.125 424.09375Q185.375 424.39062 185.71875 424.5625Q186.07812 424.73438 186.51562 424.73438Q187.09375 424.73438 187.48438 424.5Q187.89062 424.26562 188.1875 423.875L188.84375 424.39062Q188.64062 424.70312 188.3125 424.98438Q188.0 425.26562 187.53125 425.45312Q187.07812 425.625 186.45312 425.625ZM190.90625 420.51562L190.90625 425.5L189.82812 425.5L189.82812 419.15625L190.85938 419.15625L190.90625 420.51562ZM190.65625 422.09375L190.20312 422.07812Q190.20312 421.42188 190.39062 420.875Q190.57812 420.3125 190.92188 419.90625Q191.26562 419.5 191.73438 419.28125Q192.20312 419.04688 192.78125 419.04688Q193.25 419.04688 193.625 419.17188Q194.0 419.29688 194.26562 419.57812Q194.53125 419.84375 194.67188 420.28125Q194.8125 420.71875 194.8125 421.34375L194.8125 425.5L193.71875 425.5L193.71875 421.32812Q193.71875 420.82812 193.57812 420.53125Q193.4375 420.23438 193.15625 420.09375Q192.875 419.95312 192.45312 419.95312Q192.04688 419.95312 191.71875 420.125Q191.39062 420.29688 191.15625 420.59375Q190.92188 420.89062 190.78125 421.28125Q190.65625 421.65625 190.65625 422.09375Z" fill-rule="nonzero"/><path stroke="#cccccc" stroke-width="1.0" stroke-linecap="butt" d="M372.0 305.0L197.0 204.0" fill-rule="nonzero"/><path fill="#000000" d="M153.03125 191.34375Q153.03125 191.04688 152.9375 190.8125Q152.85938 190.57812 152.625 190.39062Q152.40625 190.20312 152.0 190.03125Q151.60938 189.85938 151.01562 189.6875Q150.375 189.5 149.85938 189.28125Q149.35938 189.04688 148.98438 188.75Q148.625 188.4375 148.4375 188.0625Q148.25 187.67188 148.25 187.17188Q148.25 186.67188 148.45312 186.25Q148.65625 185.82812 149.03125 185.51562Q149.42188 185.20312 149.95312 185.03125Q150.48438 184.84375 151.14062 184.84375Q152.10938 184.84375 152.78125 185.21875Q153.45312 185.57812 153.79688 186.17188Q154.15625 186.76562 154.15625 187.42188L153.03125 187.42188Q153.03125 186.95312 152.8125 186.57812Q152.60938 186.20312 152.1875 186.0Q151.78125 185.78125 151.14062 185.78125Q150.54688 185.78125 150.14062 185.96875Q149.75 186.14062 149.5625 186.45312Q149.375 186.76562 149.375 187.15625Q149.375 187.42188 149.48438 187.65625Q149.60938 187.875 149.84375 188.0625Q150.09375 188.25 150.46875 188.40625Q150.84375 188.5625 151.375 188.70312Q152.09375 188.90625 152.625 189.17188Q153.15625 189.42188 153.5 189.73438Q153.84375 190.04688 154.0 190.4375Q154.17188 190.82812 154.17188 191.32812Q154.17188 191.85938 153.95312 192.28125Q153.75 192.70312 153.35938 193.0Q152.96875 193.29688 152.42188 193.46875Q151.875 193.625 151.20312 193.625Q150.60938 193.625 150.03125 193.45312Q149.46875 193.28125 149.0 192.95312Q148.53125 192.625 148.25 192.15625Q147.96875 191.67188 147.96875 191.03125L149.09375 191.03125Q149.09375 191.46875 149.26562 191.78125Q149.4375 192.09375 149.73438 192.29688Q150.03125 192.5 150.40625 192.60938Q150.78125 192.70312 151.20312 192.70312Q151.79688 192.70312 152.20312 192.54688Q152.60938 192.375 152.8125 192.07812Q153.03125 191.76562 153.03125 191.34375ZM155.04688 190.40625L155.04688 190.26562Q155.04688 189.57812 155.23438 189.0Q155.4375 188.40625 155.8125 187.96875Q156.1875 187.53125 156.71875 187.29688Q157.25 187.04688 157.92188 187.04688Q158.57812 187.04688 159.10938 187.29688Q159.65625 187.53125 160.03125 187.96875Q160.40625 188.40625 160.60938 189.0Q160.8125 189.57812 160.8125 190.26562L160.8125 190.40625Q160.8125 191.07812 160.60938 191.67188Q160.40625 192.25 160.03125 192.6875Q159.65625 193.125 159.125 193.375Q158.59375 193.625 157.92188 193.625Q157.26562 193.625 156.71875 193.375Q156.1875 193.125 155.8125 192.6875Q155.4375 192.25 155.23438 191.67188Q155.04688 191.07812 155.04688 190.40625ZM156.125 190.26562L156.125 190.40625Q156.125 190.875 156.23438 191.29688Q156.34375 191.71875 156.5625 192.04688Q156.79688 192.35938 157.14062 192.54688Q157.48438 192.71875 157.92188 192.71875Q158.375 192.71875 158.70312 192.54688Q159.04688 192.35938 159.26562 192.04688Q159.5 191.71875 159.60938 191.29688Q159.71875 190.875 159.71875 190.40625L159.71875 190.26562Q159.71875 189.79688 159.60938 189.375Q159.5 188.95312 159.26562 188.64062Q159.04688 188.3125 158.70312 188.125Q158.375 187.9375 157.92188 187.9375Q157.46875 187.9375 157.125 188.125Q156.79688 188.3125 156.5625 188.64062Q156.34375 188.95312 156.23438 189.375Q156.125 189.79688 156.125 190.26562ZM163.40625 188.51562L163.40625 193.5L162.32812 193.5L162.32812 187.15625L163.35938 187.15625L163.40625 188.51562ZM163.15625 190.09375L162.70312 190.07812Q162.70312 189.42188 162.89062 188.875Q163.07812 188.3125 163.42188 187.90625Q163.76562 187.5 164.23438 187.28125Q164.70312 187.04688 165.28125 187.04688Q165.75 187.04688 166.125 187.17188Q166.5 187.29688 166.76562 187.57812Q167.03125 187.84375 167.17188 188.28125Q167.3125 188.71875 167.3125 189.34375L167.3125 193.5L166.21875 193.5L166.21875 189.32812Q166.21875 188.82812 166.07812 188.53125Q165.9375 188.23438 165.65625 188.09375Q165.375 187.95312 164.95312 187.95312Q164.54688 187.95312 164.21875 188.125Q163.89062 188.29688 163.65625 188.59375Q163.42188 188.89062 163.28125 189.28125Q163.15625 189.65625 163.15625 190.09375ZM173.01562 191.8125Q173.01562 191.57812 172.90625 191.375Q172.8125 191.17188 172.5 191.01562Q172.1875 190.84375 171.5625 190.71875Q171.03125 190.60938 170.60938 190.46875Q170.1875 190.3125 169.89062 190.09375Q169.59375 189.875 169.4375 189.57812Q169.28125 189.28125 169.28125 188.89062Q169.28125 188.51562 169.4375 188.1875Q169.60938 187.84375 169.90625 187.59375Q170.21875 187.32812 170.65625 187.1875Q171.09375 187.04688 171.625 187.04688Q172.39062 187.04688 172.92188 187.3125Q173.46875 187.57812 173.75 188.03125Q174.03125 188.48438 174.03125 189.01562L172.95312 189.01562Q172.95312 188.76562 172.79688 188.51562Q172.64062 188.26562 172.34375 188.10938Q172.04688 187.9375 171.625 187.9375Q171.17188 187.9375 170.89062 188.07812Q170.60938 188.20312 170.48438 188.42188Q170.35938 188.625 170.35938 188.85938Q170.35938 189.04688 170.42188 189.1875Q170.48438 189.3125 170.64062 189.4375Q170.79688 189.54688 171.07812 189.65625Q171.375 189.75 171.82812 189.84375Q172.60938 190.01562 173.10938 190.26562Q173.60938 190.51562 173.85938 190.875Q174.10938 191.21875 174.10938 191.73438Q174.10938 192.15625 173.92188 192.5Q173.75 192.84375 173.42188 193.09375Q173.10938 193.34375 172.65625 193.48438Q172.20312 193.625 171.65625 193.625Q170.8125 193.625 170.23438 193.32812Q169.65625 193.01562 169.35938 192.54688Q169.0625 192.0625 169.0625 191.54688L170.14062 191.54688Q170.17188 191.98438 170.40625 192.25Q170.64062 192.51562 170.96875 192.625Q171.3125 192.71875 171.65625 192.71875Q172.09375 192.71875 172.39062 192.60938Q172.70312 192.48438 172.85938 192.28125Q173.01562 192.07812 173.01562 191.8125ZM177.98438 187.15625L177.98438 187.98438L174.54688 187.98438L174.54688 187.15625L177.98438 187.15625ZM175.71875 185.625L176.79688 185.625L176.79688 191.92188Q176.79688 192.25 176.89062 192.42188Q177.0 192.57812 177.15625 192.64062Q177.3125 192.6875 177.5 192.6875Q177.625 192.6875 177.76562 192.65625Q177.92188 192.625 178.0 192.60938L178.01562 193.5Q177.875 193.54688 177.67188 193.57812Q177.46875 193.625 177.17188 193.625Q176.78125 193.625 176.4375 193.46875Q176.10938 193.29688 175.90625 192.9375Q175.71875 192.5625 175.71875 191.92188L175.71875 185.625ZM180.5 187.15625L180.5 193.5L179.42188 193.5L179.42188 187.15625L180.5 187.15625ZM179.32812 185.48438Q179.32812 185.21875 179.48438 185.03125Q179.65625 184.84375 179.96875 184.84375Q180.28125 184.84375 180.4375 185.03125Q180.60938 185.21875 180.60938 185.48438Q180.60938 185.73438 180.4375 185.92188Q180.28125 186.09375 179.96875 186.09375Q179.65625 186.09375 179.48438 185.92188Q179.32812 185.73438 179.32812 185.48438ZM186.4375 187.15625L187.42188 187.15625L187.42188 193.35938Q187.42188 194.20312 187.07812 194.79688Q186.73438 195.39062 186.125 195.6875Q185.53125 196.0 184.73438 196.0Q184.40625 196.0 183.95312 195.89062Q183.51562 195.79688 183.09375 195.54688Q182.67188 195.3125 182.39062 194.90625L182.95312 194.25Q183.35938 194.73438 183.78125 194.92188Q184.21875 195.10938 184.65625 195.10938Q185.17188 195.10938 185.54688 194.90625Q185.92188 194.71875 186.125 194.34375Q186.32812 193.96875 186.32812 193.42188L186.32812 188.54688L186.4375 187.15625ZM182.0625 190.40625L182.0625 190.28125Q182.0625 189.54688 182.23438 188.95312Q182.42188 188.35938 182.73438 187.9375Q183.0625 187.5 183.51562 187.28125Q183.98438 187.04688 184.57812 187.04688Q185.17188 187.04688 185.60938 187.25Q186.0625 187.45312 186.375 187.85938Q186.6875 188.25 186.875 188.8125Q187.0625 189.35938 187.125 190.0625L187.125 190.60938Q187.0625 191.29688 186.875 191.85938Q186.6875 192.42188 186.375 192.8125Q186.0625 193.20312 185.60938 193.42188Q185.15625 193.625 184.5625 193.625Q183.98438 193.625 183.53125 193.39062Q183.07812 193.14062 182.75 192.70312Q182.42188 192.26562 182.23438 191.6875Q182.0625 191.09375 182.0625 190.40625ZM183.15625 190.28125L183.15625 190.40625Q183.15625 190.875 183.25 191.29688Q183.34375 191.70312 183.54688 192.03125Q183.75 192.34375 184.0625 192.53125Q184.39062 192.70312 184.82812 192.70312Q185.35938 192.70312 185.70312 192.46875Q186.0625 192.23438 186.26562 191.85938Q186.48438 191.48438 186.59375 191.04688L186.59375 189.64062Q186.53125 189.3125 186.39062 189.01562Q186.26562 188.71875 186.0625 188.48438Q185.85938 188.23438 185.54688 188.09375Q185.25 187.95312 184.82812 187.95312Q184.39062 187.95312 184.0625 188.14062Q183.75 188.32812 183.54688 188.65625Q183.34375 188.96875 183.25 189.39062Q183.15625 189.79688 183.15625 190.28125ZM191.95312 193.625Q191.29688 193.625 190.75 193.40625Q190.21875 193.17188 189.82812 192.76562Q189.45312 192.34375 189.25 191.78125Q189.04688 191.21875 189.04688 190.54688L189.04688 190.3125Q189.04688 189.53125 189.26562 188.92188Q189.5 188.3125 189.89062 187.89062Q190.28125 187.46875 190.78125 187.26562Q191.28125 187.04688 191.8125 187.04688Q192.5 187.04688 192.98438 187.28125Q193.48438 187.51562 193.79688 187.9375Q194.125 188.34375 194.26562 188.92188Q194.42188 189.48438 194.42188 190.14062L194.42188 190.64062L189.6875 190.64062L189.6875 189.75L193.34375 189.75L193.34375 189.67188Q193.3125 189.25 193.15625 188.85938Q193.01562 188.45312 192.6875 188.20312Q192.375 187.9375 191.8125 187.9375Q191.45312 187.9375 191.14062 188.09375Q190.82812 188.25 190.59375 188.5625Q190.375 188.85938 190.25 189.29688Q190.14062 189.73438 190.14062 190.3125L190.14062 190.54688Q190.14062 191.0 190.26562 191.40625Q190.39062 191.79688 190.625 192.09375Q190.875 192.39062 191.21875 192.5625Q191.57812 192.73438 192.01562 192.73438Q192.59375 192.73438 192.98438 192.5Q193.39062 192.26562 193.6875 191.875L194.34375 192.39062Q194.14062 192.70312 193.8125 192.98438Q193.5 193.26562 193.03125 193.45312Q192.57812 193.625 191.95312 193.625Z" fill-rule="nonzero"/><path stroke="#cccccc" stroke-width="1.0" stroke-linecap="butt" d="M372.0 305.0L372.0 103.0" fill-rule="nonzero"/><path stroke="#ff0000" stroke-width="2.0" stroke-linecap="butt" stroke-opacity="0.7019608" stroke-dasharray="8.0,6.0,2.0,6.0" d="M372.0 144.0L494.0 234.0L429.0 338.0L372.0 366.0L337.0 325.0L341.0 287.0Z" fill-rule="nonzero"/><path fill="#ff0000" fill-opacity="0.7019608" d="M368.81802 140.81802L372.0 142.875L375.18198 140.81802L373.125 144.0L375.18198 147.18198L372.0 145.125L368.81802 147.18198L370.875 144.0Z" fill-rule="nonzero"/><path fill="#ff0000" fill-opacity="0.7019608" d="M490.81802 230.81802L494.0 232.875L497.18198 230.81802L495.125 234.0L497.18198 237.18198L494.0 235.125L490.81802 237.18198L492.875 234.0Z" fill-rule="nonzero"/><path fill="#ff0000" fill-opacity="0.7019608" d="M425.81802 334.81802L429.0 336.875L432.18198 334.81802L430.125 338.0L432.18198 341.18198L429.0 339.125L425.81802 341.18198L427.875 338.0Z" fill-rule="nonzero"/><path fill="#ff0000" fill-opacity="0.7019608" d="M368.81802 362.81802L372.0 364.875L375.18198 362.81802L373.125 366.0L375.18198 369.18198L372.0 367.125L368.81802 369.18198L370.875 366.0Z" fill-rule="nonzero"/><path fill="#ff0000" fill-opacity="0.7019608" d="M333.81802 321.81802L337.0 323.875L340.18198 321.81802L338.125 325.0L340.18198 328.18198L337.0 326.125L333.81802 328.18198L335.875 325.0Z" fill-rule="nonzero"/><path fill="#ff0000" fill-opacity="0.7019608" d="M337.81802 283.81802L341.0 285.875L344.18198 283.81802L342.125 287.0L344.18198 290.18198L341.0 288.125L337.81802 290.18198L339.875 287.0Z" fill-rule="nonzero"/><path fill="#757575" d="M34.5375 45.35L34.5375 32.725L29.81875 32.725L29.81875 31.037498L41.1625 31.037498L41.1625 32.725L36.428123 32.725L36.428123 45.35L34.5375 45.35ZM42.646873 45.35L42.646873 34.975L44.225 34.975L44.225 36.553123Q44.834373 35.44375 45.35 35.1Q45.865623 34.740623 46.475 34.740623Q47.365623 34.740623 48.2875 35.303123L47.678123 36.94375Q47.0375 36.553123 46.396873 36.553123Q45.81875 36.553123 45.35 36.9125Q44.896873 37.25625 44.69375 37.865623Q44.4125 38.803123 44.4125 39.9125L44.4125 45.35L42.646873 45.35ZM49.678123 33.053123L49.678123 31.037498L51.44375 31.037498L51.44375 33.053123L49.678123 33.053123ZM49.678123 45.35L49.678123 34.975L51.44375 34.975L51.44375 45.35L49.678123 45.35ZM60.44375 44.06875Q59.459373 44.896873 58.553123 45.240623Q57.646873 45.584373 56.615623 45.584373Q54.9125 45.584373 53.990623 44.75625Q53.06875 43.9125 53.06875 42.615623Q53.06875 41.85 53.4125 41.225Q53.771873 40.6 54.334373 40.225Q54.896873 39.834373 55.6 39.63125Q56.115623 39.50625 57.1625 39.365623Q59.2875 39.115623 60.2875 38.771873Q60.303123 38.4125 60.303123 38.303123Q60.303123 37.240623 59.803123 36.7875Q59.13125 36.19375 57.803123 36.19375Q56.553123 36.19375 55.959373 36.63125Q55.38125 37.06875 55.1 38.178123L53.38125 37.94375Q53.615623 36.834373 54.146873 36.1625Q54.678123 35.475 55.69375 35.115623Q56.709373 34.740623 58.053123 34.740623Q59.38125 34.740623 60.209373 35.053123Q61.0375 35.365623 61.428123 35.85Q61.81875 36.31875 61.975 37.0375Q62.06875 37.490623 62.06875 38.6625L62.06875 41.00625Q62.06875 43.459373 62.178123 44.115623Q62.2875 44.75625 62.63125 45.35L60.7875 45.35Q60.521873 44.803123 60.44375 44.06875ZM60.2875 40.146873Q59.334373 40.5375 57.4125 40.803123Q56.334373 40.959373 55.88125 41.1625Q55.44375 41.35 55.19375 41.725Q54.94375 42.1 54.94375 42.56875Q54.94375 43.271873 55.475 43.740623Q56.00625 44.209373 57.0375 44.209373Q58.053123 44.209373 58.834373 43.771873Q59.63125 43.31875 60.00625 42.553123Q60.2875 41.94375 60.2875 40.7875L60.2875 40.146873ZM64.6625 45.35L64.6625 34.975L66.25625 34.975L66.25625 36.459373Q67.39687 34.740623 69.55312 34.740623Q70.49062 34.740623 71.27187 35.084373Q72.06875 35.4125 72.45937 35.959373Q72.85 36.50625 73.00625 37.25625Q73.1 37.75625 73.1 38.975L73.1 45.35L71.33437 45.35L71.33437 39.0375Q71.33437 37.959373 71.13125 37.428123Q70.92812 36.896873 70.39687 36.584373Q69.88125 36.271873 69.17812 36.271873Q68.05312 36.271873 67.24062 36.990623Q66.42812 37.69375 66.42812 39.678123L66.42812 45.35L64.6625 45.35ZM75.35 46.209373L77.05312 46.459373Q77.1625 47.25625 77.64687 47.615623Q78.30312 48.1 79.44375 48.1Q80.6625 48.1 81.31875 47.615623Q81.99062 47.13125 82.225 46.25625Q82.36562 45.709373 82.35 43.990623Q81.19375 45.35 79.475 45.35Q77.33437 45.35 76.1625 43.803123Q74.99062 42.25625 74.99062 40.1Q74.99062 38.615623 75.52187 37.365623Q76.06875 36.115623 77.08437 35.428123Q78.11562 34.740623 79.49062 34.740623Q81.31875 34.740623 82.52187 36.225L82.52187 34.975L84.13125 34.975L84.13125 43.94375Q84.13125 46.365623 83.63125 47.365623Q83.14687 48.38125 82.06875 48.959373Q81.00625 49.553123 79.44375 49.553123Q77.6 49.553123 76.44375 48.725Q75.30312 47.896873 75.35 46.209373ZM76.80312 39.975Q76.80312 42.021873 77.61562 42.959373Q78.42812 43.896873 79.64687 43.896873Q80.85 43.896873 81.6625 42.959373Q82.49062 42.021873 82.49062 40.0375Q82.49062 38.13125 81.64687 37.1625Q80.80312 36.19375 79.61562 36.19375Q78.44375 36.19375 77.61562 37.146873Q76.80312 38.1 76.80312 39.975ZM86.63125 45.35L86.63125 31.037498L88.38125 31.037498L88.38125 45.35L86.63125 45.35ZM97.77187 42.00625L99.58437 42.240623Q99.1625 43.81875 97.99062 44.709373Q96.83437 45.584373 95.02187 45.584373Q92.75625 45.584373 91.4125 44.19375Q90.08437 42.7875 90.08437 40.25625Q90.08437 37.63125 91.42812 36.19375Q92.77187 34.740623 94.92812 34.740623Q97.00625 34.740623 98.31875 36.1625Q99.64687 37.56875 99.64687 40.146873Q99.64687 40.303123 99.63125 40.615623L91.89687 40.615623Q91.99062 42.31875 92.86562 43.225Q93.74062 44.13125 95.0375 44.13125Q96.00625 44.13125 96.67812 43.63125Q97.36562 43.115623 97.77187 42.00625ZM91.99062 39.1625L97.7875 39.1625Q97.67812 37.865623 97.13125 37.209373Q96.2875 36.19375 94.94375 36.19375Q93.74062 36.19375 92.9125 37.00625Q92.08437 37.803123 91.99062 39.1625ZM107.83437 45.35L107.83437 31.037498L110.69375 31.037498L114.06875 41.1625Q114.5375 42.584373 114.75625 43.2875Q115.00625 42.50625 115.52187 40.990623L118.94375 31.037498L121.49062 31.037498L121.49062 45.35L119.67812 45.35L119.67812 33.365623L115.50625 45.35L113.80312 45.35L109.6625 33.1625L109.6625 45.35L107.83437 45.35ZM124.67812 33.053123L124.67812 31.037498L126.44375 31.037498L126.44375 33.053123L124.67812 33.053123ZM124.67812 45.35L124.67812 34.975L126.44375 34.975L126.44375 45.35L124.67812 45.35ZM128.6625 45.35L128.6625 34.975L130.25626 34.975L130.25626 36.459373Q131.39688 34.740623 133.55313 34.740623Q134.49063 34.740623 135.27188 35.084373Q136.06876 35.4125 136.45938 35.959373Q136.85 36.50625 137.00626 37.25625Q137.1 37.75625 137.1 38.975L137.1 45.35L135.33438 45.35L135.33438 39.0375Q135.33438 37.959373 135.13126 37.428123Q134.92813 36.896873 134.39688 36.584373Q133.88126 36.271873 133.17813 36.271873Q132.05313 36.271873 131.24063 36.990623Q130.42813 37.69375 130.42813 39.678123L130.42813 45.35L128.6625 45.35ZM143.50626 43.771873L143.75626 45.334373Q143.02188 45.490623 142.42813 45.490623Q141.475 45.490623 140.94376 45.19375Q140.42813 44.88125 140.20938 44.396873Q139.99063 43.896873 139.99063 42.31875L139.99063 36.35L138.70938 36.35L138.70938 34.975L139.99063 34.975L139.99063 32.4125L141.74063 31.349998L141.74063 34.975L143.50626 34.975L143.50626 36.35L141.74063 36.35L141.74063 42.4125Q141.74063 43.1625 141.83438 43.38125Q141.92813 43.584373 142.13126 43.725Q142.35 43.85 142.74063 43.85Q143.02188 43.85 143.50626 43.771873ZM144.95938 42.25625L146.70938 41.975Q146.85 43.021873 147.52188 43.584373Q148.19376 44.13125 149.39688 44.13125Q150.6 44.13125 151.17813 43.646873Q151.77188 43.146873 151.77188 42.490623Q151.77188 41.896873 151.25626 41.553123Q150.89688 41.31875 149.45938 40.959373Q147.52188 40.459373 146.77188 40.115623Q146.0375 39.75625 145.64688 39.13125Q145.25626 38.490623 145.25626 37.725Q145.25626 37.0375 145.56876 36.44375Q145.89688 35.85 146.44376 35.459373Q146.85 35.1625 147.55313 34.959373Q148.27188 34.740623 149.08438 34.740623Q150.30313 34.740623 151.225 35.1Q152.14688 35.44375 152.58438 36.053123Q153.02188 36.646873 153.19376 37.646873L151.475 37.88125Q151.35 37.084373 150.7875 36.646873Q150.225 36.19375 149.20938 36.19375Q147.99063 36.19375 147.475 36.6Q146.95938 36.990623 146.95938 37.521873Q146.95938 37.865623 147.17813 38.146873Q147.38126 38.428123 147.85 38.615623Q148.11563 38.709373 149.39688 39.053123Q151.27188 39.553123 152.00626 39.88125Q152.74063 40.19375 153.1625 40.803123Q153.58438 41.396873 153.58438 42.303123Q153.58438 43.178123 153.06876 43.959373Q152.55313 44.740623 151.58438 45.1625Q150.61563 45.584373 149.39688 45.584373Q147.38126 45.584373 146.31876 44.740623Q145.25626 43.896873 144.95938 42.25625Z" fill-rule="nonzero"/></svg>