<svg version="1.1" viewBox="0.0 0.0 744.0 567.0" fill="none" stroke="none" stroke-linecap="square" stroke-miterlimit="10" width="744" height="567" xmlns:xlink="http://www.w3.org/1999/xlink" xmlns="http://www.w3.org/2000/svg"><path fill="#ffffff" d="M0 0L744.0 0L744.0 567.0L0 567.0L0 0Z" fill-rule="nonzero"/><path fill="#ffffff" d="M28.35 71.25L715.64996 71.25L715.64996 538.65L28.35 538.65L28.35 71.25Z" fill-rule="nonzero"/><path stroke="#cccccc" stroke-width="1.0" stroke-linecap="butt" d="M372.0 305.0C372.0 305.0 372.0 305.0 372.0 305.0C372.0 305.0 372.0 305.0 372.0 305.0C372.0 305.0 372.0 305.0 372.0 305.0C372.0 305.0 372.0 305.0 372.0 305.0" fill-rule="nonzero"/><path fill="#000000" d="M360.0625 297.04688L360.0625 298.35938Q360.0625 299.40625 359.875 300.125Q359.6875 300.84375 359.32812 301.28125Q358.98438 301.71875 358.48438 301.92188Q358.0 302.125 357.375 302.125Q356.89062 302.125 356.46875 302.0Q356.04688 301.875 355.71875 301.60938Q355.39062 301.32812 355.15625 300.89062Q354.92188 300.45312 354.79688 299.82812Q354.67188 299.1875 354.67188 298.35938L354.67188 297.04688Q354.67188 296.0 354.85938 295.29688Q355.0625 294.59375 355.40625 294.15625Q355.76562 293.71875 356.25 293.53125Q356.75 293.34375 357.35938 293.34375Q357.85938 293.34375 358.28125 293.46875Q358.70312 293.59375 359.03125 293.85938Q359.35938 294.10938 359.57812 294.54688Q359.8125 294.96875 359.9375 295.59375Q360.0625 296.21875 360.0625 297.04688ZM358.96875 298.53125L358.96875 296.875Q358.96875 296.29688 358.90625 295.85938Q358.84375 295.42188 358.70312 295.10938Q358.57812 294.79688 358.375 294.60938Q358.1875 294.42188 357.9375 294.32812Q357.6875 294.23438 357.35938 294.23438Q356.98438 294.23438 356.67188 294.375Q356.375 294.51562 356.17188 294.82812Q355.96875 295.14062 355.85938 295.65625Q355.76562 296.15625 355.76562 296.875L355.76562 298.53125Q355.76562 299.10938 355.82812 299.54688Q355.90625 299.98438 356.03125 300.3125Q356.17188 300.625 356.35938 300.82812Q356.5625 301.03125 356.8125 301.125Q357.0625 301.21875 357.375 301.21875Q357.78125 301.21875 358.07812 301.07812Q358.375 300.92188 358.57812 300.59375Q358.78125 300.26562 358.875 299.76562Q358.96875 299.25 358.96875 298.53125ZM362.8125 300.70312L362.8125 301.57812Q362.8125 302.125 362.53125 302.71875Q362.26562 303.3125 361.78125 303.70312L361.17188 303.28125Q361.35938 303.01562 361.48438 302.75Q361.60938 302.48438 361.67188 302.20312Q361.75 301.92188 361.75 301.59375L361.75 300.70312L362.8125 300.70312ZM369.0625 297.04688L369.0625 298.35938Q369.0625 299.40625 368.875 300.125Q368.6875 300.84375 368.32812 301.28125Q367.98438 301.71875 367.48438 301.92188Q367.0 302.125 366.375 302.125Q365.89062 302.125 365.46875 302.0Q365.04688 301.875 364.71875 301.60938Q364.39062 301.32812 364.15625 300.89062Q363.92188 300.45312 363.79688 299.82812Q363.67188 299.1875 363.67188 298.35938L363.67188 297.04688Q363.67188 296.0 363.85938 295.29688Q364.0625 294.59375 364.40625 294.15625Q364.76562 293.71875 365.25 293.53125Q365.75 293.34375 366.35938 293.34375Q366.85938 293.34375 367.28125 293.46875Q367.70312 293.59375 368.03125 293.85938Q368.35938 294.10938 368.57812 294.54688Q368.8125 294.96875 368.9375 295.59375Q369.0625 296.21875 369.0625 297.04688ZM367.96875 298.53125L367.96875 296.875Q367.96875 296.29688 367.90625 295.85938Q367.84375 295.42188 367.70312 295.10938Q367.57812 294.79688 367.375 294.60938Q367.1875 294.42188 366.9375 294.32812Q366.6875 294.23438 366.35938 294.23438Q365.98438 294.23438 365.67188 294.375Q365.375 294.51562 365.17188 294.82812Q364.96875 295.14062 364.85938 295.65625Q364.76562 296.15625 364.76562 296.875L364.76562 298.53125Q364.76562 299.10938 364.82812 299.54688Q364.90625 299.98438 365.03125 300.3125Q365.17188 300.625 365.35938 300.82812Q365.5625 301.03125 365.8125 301.125Q366.0625 301.21875 366.375 301.21875Q366.78125 301.21875 367.07812 301.07812Q367.375 300.92188 367.57812 300.59375Q367.78125 300.26562 367.875 299.76562Q367.96875 299.25 367.96875 298.53125Z" fill-rule="nonzero"/><path stroke="#cccccc" stroke-width="1.0" stroke-linecap="butt" d="M422.425 305.0C422.425 277.15103 399.84897 254.575 372.0 254.575C344.15103 254.575 321.575 277.15103 321.575 305.0C321.575 332.84897 344.15103 355.425 372.0 355.425C399.84897 355.425 422.425 332.84897 422.425 305.0" fill-rule="nonzero"/><path fill="#000000" d="M360.0625 246.62187L360.0625 247.93437Q360.0625 248.98125 359.875 249.7Q359.6875 250.41875 359.32812 250.85625Q358.98438 251.29375 358.48438 251.49687Q358.0 251.7 357.375 251.7Q356.89062 251.7 356.46875 251.575Q356.04688 251.45 355.71875 251.18437Q355.39062 250.90312 355.15625 250.46562Q354.92188 250.02812 354.79688 249.40312Q354.67188 248.7625 354.67188 247.93437L354.67188 246.62187Q354.67188 245.575 354.85938 244.87187Q355.0625 244.16875 355.40625 243.73125Q355.76562 243.29375 356.25 243.10625Q356.75 242.91875 357.35938 242.91875Q357.85938 242.91875 358.28125 243.04375Q358.70312 243.16875 359.03125 243.43437Q359.35938 243.68437 359.57812 244.12187Q359.8125 244.54375 359.9375 245.16875Q360.0625 245.79375 360.0625 246.62187ZM358.96875 248.10625L358.96875 246.45Q358.96875 245.87187 358.90625 245.43437Q358.84375 244.99687 358.70312 244.68437Q358.57812 244.37187 358.375 244.18437Q358.1875 243.99687 357.9375 243.90312Q357.6875 243.80937 357.35938 243.80937Q356.98438 243.80937 356.67188 243.95Q356.375 244.09062 356.17188 244.40312Q355.96875 244.71562 355.85938 245.23125Q355.76562 245.73125 355.76562 246.45L355.76562 248.10625Q355.76562 248.68437 355.82812 249.12187Q355.90625 249.55937 356.03125 249.8875Q356.17188 250.2 356.35938 250.40312Q356.5625 250.60625 356.8125 250.7Q357.0625 250.79375 357.375 250.79375Q357.78125 250.79375 358.07812 250.65312Q358.375 250.49687 358.57812 250.16875Q358.78125 249.84062 358.875 249.34062Q358.96875 248.825 358.96875 248.10625ZM362.8125 250.27812L362.8125 251.15312Q362.8125 251.7 362.53125 252.29375Q362.26562 252.8875 361.78125 253.27812L361.17188 252.85625Q361.35938 252.59062 361.48438 252.325Q361.60938 252.05937 361.67188 251.77812Q361.75 251.49687 361.75 251.16875L361.75 250.27812L362.8125 250.27812ZM369.29688 250.68437L369.29688 251.575L363.71875 251.575L363.71875 250.79375L366.51562 247.68437Q367.03125 247.10625 367.3125 246.71562Q367.59375 246.30937 367.70312 245.99687Q367.82812 245.66875 367.82812 245.34062Q367.82812 244.91875 367.65625 244.575Q367.48438 244.23125 367.14062 244.02812Q366.8125 243.80937 366.32812 243.80937Q365.76562 243.80937 365.39062 244.04375Q365.01562 244.2625 364.82812 244.65312Q364.64062 245.04375 364.64062 245.54375L363.54688 245.54375Q363.54688 244.825 363.85938 244.23125Q364.1875 243.6375 364.79688 243.27812Q365.42188 242.91875 366.32812 242.91875Q367.14062 242.91875 367.71875 243.21562Q368.29688 243.49687 368.59375 244.0125Q368.90625 244.5125 368.90625 245.2Q368.90625 245.575 368.78125 245.96562Q368.65625 246.34062 368.4375 246.73125Q368.21875 247.10625 367.92188 247.48125Q367.64062 247.84062 367.3125 248.2L365.01562 250.68437L369.29688 250.68437Z" fill-rule="nonzero"/><path stroke="#cccccc" stroke-width="1.0" stroke-linecap="butt" d="M472.85 305.0C472.85 249.30208 427.6979 204.15 372.0 204.15C316.3021 204.15 271.15 249.30208 271.15 305.0C271.15 360.6979 316.3021 405.85 372.0 405.85C427.6979 405.85 472.85 360.6979 472.85 305.0" fill-rule="nonzero"/><path fill="#000000" d="M360.0625 196.19687L360.0625 197.50937Q360.0625 198.55624 359.875 199.275Q359.6875 199.99374 359.32812 200.43124Q358.98438 200.86874 358.48438 201.07187Q358.0 201.275 357.375 201.275Q356.89062 201.275 356.46875 201.15Q356.04688 201.025 355.71875 200.75937Q355.39062 200.47812 355.15625 200.04062Q354.92188 199.60312 354.79688 198.97812Q354.67188 198.3375 354.67188 197.50937L354.67188 196.19687Q354.67188 195.15 354.85938 194.44687Q355.0625 193.74374 355.40625 193.30624Q355.76562 192.86874 356.25 192.68124Q356.75 192.49374 357.35938 192.49374Q357.85938 192.49374 358.28125 192.61874Q358.70312 192.74374 359.03125 193.00937Q359.35938 193.25937 359.57812 193.69687Q359.8125 194.11874 359.9375 194.74374Q360.0625 195.36874 360.0625 196.19687ZM358.96875 197.68124L358.96875 196.025Q358.96875 195.44687 358.90625 195.00937Q358.84375 194.57187 358.70312 194.25937Q358.57812 193.94687 358.375 193.75937Q358.1875 193.57187 357.9375 193.47812Q357.6875 193.38437 357.35938 193.38437Q356.98438 193.38437 356.67188 193.525Q356.375 193.66562 356.17188 193.97812Q355.96875 194.29062 355.85938 194.80624Q355.76562 195.30624 355.76562 196.025L355.76562 197.68124Q355.76562 198.25937 355.82812 198.69687Q355.90625 199.13437 356.03125 199.4625Q356.17188 199.775 356.35938 199.97812Q356.5625 200.18124 356.8125 200.275Q357.0625 200.36874 357.375 200.36874Q357.78125 200.36874 358.07812 200.22812Q358.375 200.07187 358.57812 199.74374Q358.78125 199.41562 358.875 198.91562Q358.96875 198.4 358.96875 197.68124ZM362.8125 199.85312L362.8125 200.72812Q362.8125 201.275 362.53125 201.86874Q362.26562 202.4625 361.78125 202.85312L361.17188 202.43124Q361.35938 202.16562 361.48438 201.9Q361.60938 201.63437 361.67188 201.35312Q361.75 201.07187 361.75 200.74374L361.75 199.85312L362.8125 199.85312ZM369.46875 198.275L369.46875 199.16562L363.3125 199.16562L363.3125 198.525L367.125 192.61874L368.01562 192.61874L367.0625 194.32187L364.54688 198.275L369.46875 198.275ZM368.28125 192.61874L368.28125 201.15L367.20312 201.15L367.20312 192.61874L368.28125 192.61874Z" fill-rule="nonzero"/><path stroke="#cccccc" stroke-width="1.0" stroke-linecap="butt" d="M523.275 305.0C523.275 221.45312 455.54688 153.725 372.0 153.725C288.45312 153.725 220.725 221.45312 220.725 305.0C220.725 388.54688 288.45312 456.275 372.0 456.275C455.54688 456.275 523.275 388.54688 523.275 305.0" fill-rule="nonzero"/><path fill="#000000" d="M360.0625 145.77188L360.0625 147.08438Q360.0625 148.13126 359.875 148.85Q359.6875 149.56876 359.32812 150.00626Q358.98438 150.44376 358.48438 150.64688Q358.0 150.85 357.375 150.85Q356.89062 150.85 356.46875 150.725Q356.04688 150.6 355.71875 150.33438Q355.39062 150.05313 355.15625 149.61563Q354.92188 149.17813 354.79688 148.55313Q354.67188 147.9125 354.67188 147.08438L354.67188 145.77188Q354.67188 144.725 354.85938 144.02188Q355.0625 143.31876 355.40625 142.88126Q355.76562 142.44376 356.25 142.25626Q356.75 142.06876 357.35938 142.06876Q357.85938 142.06876 358.28125 142.19376Q358.70312 142.31876 359.03125 142.58438Q359.35938 142.83438 359.57812 143.27188Q359.8125 143.69376 359.9375 144.31876Q360.0625 144.94376 360.0625 145.77188ZM358.96875 147.25626L358.96875 145.6Q358.96875 145.02188 358.90625 144.58438Q358.84375 144.14688 358.70312 143.83438Q358.57812 143.52188 358.375 143.33438Q358.1875 143.14688 357.9375 143.05313Q357.6875 142.95938 357.35938 142.95938Q356.98438 142.95938 356.67188 143.1Q356.375 143.24063 356.17188 143.55313Q355.96875 143.86563 355.85938 144.38126Q355.76562 144.88126 355.76562 145.6L355.76562 147.25626Q355.76562 147.83438 355.82812 148.27188Q355.90625 148.70938 356.03125 149.0375Q356.17188 149.35 356.35938 149.55313Q356.5625 149.75626 356.8125 149.85Q357.0625 149.94376 357.375 149.94376Q357.78125 149.94376 358.07812 149.80313Q358.375 149.64688 358.57812 149.31876Q358.78125 148.99063 358.875 148.49063Q358.96875 147.975 358.96875 147.25626ZM362.8125 149.42813L362.8125 150.30313Q362.8125 150.85 362.53125 151.44376Q362.26562 152.0375 361.78125 152.42813L361.17188 152.00626Q361.35938 151.74063 361.48438 151.475Q361.60938 151.20938 361.67188 150.92813Q361.75 150.64688 361.75 150.31876L361.75 149.42813L362.8125 149.42813ZM367.875 142.17813L367.96875 142.17813L367.96875 143.1L367.875 143.1Q367.01562 143.1 366.42188 143.38126Q365.84375 143.6625 365.5 144.13126Q365.17188 144.58438 365.01562 145.17813Q364.875 145.75626 364.875 146.35L364.875 147.6Q364.875 148.1625 365.0 148.6Q365.14062 149.0375 365.375 149.35Q365.60938 149.64688 365.90625 149.80313Q366.20312 149.94376 366.51562 149.94376Q366.89062 149.94376 367.1875 149.80313Q367.48438 149.6625 367.6875 149.39688Q367.89062 149.13126 367.98438 148.7875Q368.09375 148.42813 368.09375 147.99063Q368.09375 147.61563 368.0 147.25626Q367.90625 146.89688 367.71875 146.63126Q367.53125 146.35 367.23438 146.19376Q366.9375 146.02188 366.54688 146.02188Q366.09375 146.02188 365.70312 146.24063Q365.3125 146.45938 365.0625 146.81876Q364.8125 147.17813 364.78125 147.58438L364.20312 147.58438Q364.29688 146.92813 364.51562 146.45938Q364.73438 145.99063 365.07812 145.69376Q365.42188 145.39688 365.82812 145.27188Q366.25 145.13126 366.71875 145.13126Q367.35938 145.13126 367.8125 145.38126Q368.28125 145.61563 368.57812 146.02188Q368.89062 146.4125 369.03125 146.9125Q369.17188 147.4125 369.17188 147.94376Q369.17188 148.5375 369.0 149.06876Q368.82812 149.6 368.48438 150.00626Q368.15625 150.39688 367.65625 150.63126Q367.17188 150.85 366.51562 150.85Q365.82812 150.85 365.3125 150.56876Q364.79688 150.27188 364.45312 149.80313Q364.125 149.31876 363.95312 148.74063Q363.78125 148.1625 363.78125 147.56876L363.78125 147.05313Q363.78125 146.14688 363.95312 145.2875Q364.14062 144.4125 364.59375 143.70938Q365.04688 143.00626 365.84375 142.6Q366.64062 142.17813 367.875 142.17813Z" fill-rule="nonzero"/><path stroke="#cccccc" stroke-width="1.0" stroke-linecap="butt" d="M573.7 305.0C573.7 193.60417 483.39584 103.3 372.0 103.3C260.60416 103.3 170.3 193.60417 170.3 305.0C170.3 416.39584 260.60416 506.7 372.0 506.7C483.39584 506.7 573.7 416.39584 573.7 305.0" fill-rule="nonzero"/><path fill="#000000" d="M360.0625 95.34688L360.0625 96.65938Q360.0625 97.70625 359.875 98.425Q359.6875 99.14375 359.32812 99.58125Q358.98438 100.01875 358.48438 100.22188Q358.0 100.425 357.375 100.425Q356.89062 100.425 356.46875 100.3Q356.04688 100.175 355.71875 99.90938Q355.39062 99.62813 355.15625 99.19063Q354.92188 98.75313 354.79688 98.12813Q354.67188 97.4875 354.67188 96.65938L354.67188 95.34688Q354.67188 94.3 354.85938 93.59688Q355.0625 92.89375 355.40625 92.45625Q355.76562 92.01875 356.25 91.83125Q356.75 91.64375 357.35938 91.64375Q357.85938 91.64375 358.28125 91.76875Q358.70312 91.89375 359.03125 92.15938Q359.35938 92.40938 359.57812 92.84688Q359.8125 93.26875 359.9375 93.89375Q360.0625 94.51875 360.0625 95.34688ZM358.96875 96.83125L358.96875 95.175Q358.96875 94.59688 358.90625 94.15938Q358.84375 93.72188 358.70312 93.40938Q358.57812 93.09688 358.375 92.90938Q358.1875 92.72188 357.9375 92.62813Q357.6875 92.53438 357.35938 92.53438Q356.98438 92.53438 356.67188 92.675Q356.375 92.81563 356.17188 93.12813Q355.96875 93.44063 355.85938 93.95625Q355.76562 94.45625 355.76562 95.175L355.76562 96.83125Q355.76562 97.40938 355.82812 97.84688Q355.90625 98.28438 356.03125 98.6125Q356.17188 98.925 356.35938 99.12813Q356.5625 99.33125 356.8125 99.425Q357.0625 99.51875 357.375 99.51875Q357.78125 99.51875 358.07812 99.37813Q358.375 99.22188 358.57812 98.89375Q358.78125 98.56563 358.875 98.06563Q358.96875 97.55 358.96875 96.83125ZM362.8125 99.00313L362.8125 99.87813Q362.8125 100.425 362.53125 101.01875Q362.26562 101.6125 361.78125 102.00313L361.17188 101.58125Q361.35938 101.31563 361.48438 101.05Q361.60938 100.78438 361.67188 100.50313Q361.75 100.22188 361.75 99.89375L361.75 99.00313L362.8125 99.00313ZM369.09375 97.9875Q369.09375 98.76875 368.73438 99.31563Q368.375 99.84688 367.75 100.14375Q367.14062 100.425 366.375 100.425Q365.60938 100.425 364.98438 100.14375Q364.375 99.84688 364.01562 99.31563Q363.65625 98.76875 363.65625 97.9875Q363.65625 97.4875 363.85938 97.06563Q364.0625 96.62813 364.42188 96.31563Q364.78125 96.00313 365.26562 95.83125Q365.76562 95.65938 366.35938 95.65938Q367.15625 95.65938 367.76562 95.95625Q368.375 96.25313 368.73438 96.78438Q369.09375 97.31563 369.09375 97.9875ZM368.0 97.97188Q368.0 97.4875 367.79688 97.12813Q367.59375 96.75313 367.21875 96.55Q366.84375 96.34688 366.35938 96.34688Q365.85938 96.34688 365.5 96.55Q365.14062 96.75313 364.9375 97.12813Q364.75 97.4875 364.75 97.97188Q364.75 98.45625 364.9375 98.81563Q365.14062 99.15938 365.5 99.34688Q365.875 99.51875 366.375 99.51875Q366.875 99.51875 367.23438 99.34688Q367.60938 99.15938 367.79688 98.81563Q368.0 98.45625 368.0 97.97188ZM368.89062 93.9875Q368.89062 94.6125 368.5625 95.1125Q368.23438 95.6125 367.65625 95.89375Q367.09375 96.175 366.375 96.175Q365.64062 96.175 365.0625 95.89375Q364.5 95.6125 364.17188 95.1125Q363.85938 94.6125 363.85938 93.9875Q363.85938 93.2375 364.17188 92.72188Q364.5 92.20625 365.0625 91.925Q365.64062 91.64375 366.375 91.64375Q367.10938 91.64375 367.67188 91.925Q368.23438 92.20625 368.5625 92.72188Q368.89062 93.2375 368.89062 93.9875ZM367.8125 94.00313Q367.8125 93.58125 367.625 93.25313Q367.4375 92.925 367.10938 92.7375Q366.79688 92.53438 366.375 92.53438Q365.9375 92.53438 365.60938 92.72188Q365.29688 92.89375 365.125 93.22188Q364.95312 93.55 364.95312 94.00313Q364.95312 94.44063 365.125 94.76875Q365.29688 95.09688 365.625 95.28438Q365.95312 95.47188 366.375 95.47188Q366.79688 95.47188 367.10938 95.28438Q367.4375 95.09688 367.625 94.76875Q367.8125 94.44063 367.8125 94.00313Z" fill-rule="nonzero"/><path stroke="#cccccc" stroke-width="1.0" stroke-linecap="butt" d="M372.0 305.0L372.0 103.0" fill-rule="nonzero"/><path fill="#000000" d="M342.64062 78.78125L343.76562 78.78125Q343.67188 79.59375 343.29688 80.234375Q342.92188 80.875 342.23438 81.25Q341.5625 81.625 340.53125 81.625Q339.78125 81.625 339.17188 81.34375Q338.5625 81.046875 338.10938 80.53125Q337.67188 80.015625 337.4375 79.296875Q337.20312 78.5625 337.20312 77.65625L337.20312 76.8125Q337.20312 75.921875 337.4375 75.1875Q337.67188 74.453125 338.125 73.9375Q338.57812 73.40625 339.20312 73.125Q339.84375 72.84375 340.625 72.84375Q341.59375 72.84375 342.26562 73.21875Q342.9375 73.578125 343.29688 74.21875Q343.67188 74.859375 343.76562 75.703125L342.64062 75.703125Q342.5625 75.109375 342.32812 74.6875Q342.10938 74.25 341.70312 74.015625Q341.29688 73.78125 340.625 73.78125Q340.0625 73.78125 339.625 74.0Q339.20312 74.203125 338.90625 74.609375Q338.625 75.0 338.46875 75.5625Q338.32812 76.125 338.32812 76.796875L338.32812 77.65625Q338.32812 78.28125 338.45312 78.84375Q338.59375 79.390625 338.85938 79.8125Q339.125 80.21875 339.54688 80.46875Q339.96875 80.703125 340.53125 80.703125Q341.25 80.703125 341.67188 80.46875Q342.10938 80.234375 342.32812 79.8125Q342.54688 79.390625 342.64062 78.78125ZM349.0625 80.421875L349.0625 77.15625Q349.0625 76.78125 348.90625 76.5Q348.76562 76.21875 348.46875 76.078125Q348.17188 75.921875 347.73438 75.921875Q347.3125 75.921875 347.0 76.0625Q346.70312 76.203125 346.53125 76.4375Q346.35938 76.65625 346.35938 76.921875L345.28125 76.921875Q345.28125 76.578125 345.45312 76.25Q345.625 75.90625 345.95312 75.640625Q346.28125 75.359375 346.75 75.203125Q347.21875 75.046875 347.79688 75.046875Q348.48438 75.046875 349.01562 75.28125Q349.54688 75.515625 349.84375 75.984375Q350.15625 76.453125 350.15625 77.15625L350.15625 80.109375Q350.15625 80.4375 350.20312 80.796875Q350.26562 81.140625 350.375 81.40625L350.375 81.5L349.23438 81.5Q349.15625 81.3125 349.10938 81.0Q349.0625 80.6875 349.0625 80.421875ZM349.25 77.65625L349.26562 78.421875L348.17188 78.421875Q347.70312 78.421875 347.34375 78.5Q346.98438 78.5625 346.73438 78.71875Q346.48438 78.859375 346.35938 79.078125Q346.23438 79.296875 346.23438 79.59375Q346.23438 79.890625 346.35938 80.140625Q346.5 80.375 346.76562 80.53125Q347.04688 80.671875 347.4375 80.671875Q347.9375 80.671875 348.3125 80.46875Q348.70312 80.25 348.92188 79.953125Q349.15625 79.640625 349.17188 79.34375L349.64062 79.875Q349.59375 80.109375 349.40625 80.421875Q349.23438 80.71875 348.92188 81.0Q348.625 81.265625 348.20312 81.453125Q347.79688 81.625 347.28125 81.625Q346.64062 81.625 346.15625 81.375Q345.67188 81.109375 345.40625 80.6875Q345.14062 80.265625 345.14062 79.734375Q345.14062 79.21875 345.32812 78.84375Q345.53125 78.453125 345.90625 78.1875Q346.28125 77.921875 346.8125 77.796875Q347.34375 77.65625 348.0 77.65625L349.25 77.65625ZM353.40625 76.15625L353.40625 81.5L352.32812 81.5L352.32812 75.15625L353.375 75.15625L353.40625 76.15625ZM355.39062 75.125L355.39062 76.125Q355.25 76.109375 355.125 76.09375Q355.01562 76.078125 354.85938 76.078125Q354.48438 76.078125 354.1875 76.203125Q353.90625 76.3125 353.70312 76.53125Q353.51562 76.734375 353.39062 77.03125Q353.28125 77.328125 353.25 77.671875L352.9375 77.84375Q352.9375 77.265625 353.04688 76.765625Q353.17188 76.265625 353.40625 75.875Q353.65625 75.484375 354.01562 75.265625Q354.39062 75.046875 354.90625 75.046875Q355.03125 75.046875 355.17188 75.078125Q355.32812 75.09375 355.39062 75.125ZM358.10938 80.84375L359.875 75.15625L361.03125 75.15625L358.48438 82.484375Q358.40625 82.71875 358.25 82.984375Q358.10938 83.265625 357.89062 83.5Q357.67188 83.75 357.35938 83.90625Q357.04688 84.0625 356.60938 84.0625Q356.48438 84.0625 356.28125 84.015625Q356.07812 83.984375 356.0 83.96875L356.0 83.09375Q356.04688 83.09375 356.14062 83.09375Q356.25 83.109375 356.28125 83.109375Q356.65625 83.109375 356.90625 83.015625Q357.17188 82.921875 357.34375 82.6875Q357.53125 82.46875 357.65625 82.078125L358.10938 80.84375ZM356.8125 75.15625L358.45312 80.078125L358.73438 81.21875L357.96875 81.625L355.625 75.15625L356.8125 75.15625ZM362.04688 78.40625L362.04688 78.265625Q362.04688 77.578125 362.23438 77.0Q362.4375 76.40625 362.8125 75.96875Q363.1875 75.53125 363.71875 75.296875Q364.25 75.046875 364.92188 75.046875Q365.57812 75.046875 366.10938 75.296875Q366.65625 75.53125 367.03125 75.96875Q367.40625 76.40625 367.60938 77.0Q367.8125 77.578125 367.8125 78.265625L367.8125 78.40625Q367.8125 79.078125 367.60938 79.671875Q367.40625 80.25 367.03125 80.6875Q366.65625 81.125 366.125 81.375Q365.59375 81.625 364.92188 81.625Q364.26562 81.625 363.71875 81.375Q363.1875 81.125 362.8125 80.6875Q362.4375 80.25 362.23438 79.671875Q362.04688 79.078125 362.04688 78.40625ZM363.125 78.265625L363.125 78.40625Q363.125 78.875 363.23438 79.296875Q363.34375 79.71875 363.5625 80.046875Q363.79688 80.359375 364.14062 80.546875Q364.48438 80.71875 364.92188 80.71875Q365.375 80.71875 365.70312 80.546875Q366.04688 80.359375 366.26562 80.046875Q366.5 79.71875 366.60938 79.296875Q366.71875 78.875 366.71875 78.40625L366.71875 78.265625Q366.71875 77.796875 366.60938 77.375Q366.5 76.953125 366.26562 76.640625Q366.04688 76.3125 365.70312 76.125Q365.375 75.9375 364.92188 75.9375Q364.46875 75.9375 364.125 76.125Q363.79688 76.3125 363.5625 76.640625Q363.34375 76.953125 363.23438 77.375Q363.125 77.796875 363.125 78.265625ZM370.40625 76.375L370.40625 83.9375L369.32812 83.9375L369.32812 75.15625L370.3125 75.15625L370.40625 76.375ZM374.6875 78.28125L374.6875 78.40625Q374.6875 79.09375 374.51562 79.6875Q374.35938 80.265625 374.04688 80.703125Q373.73438 81.140625 373.26562 81.390625Q372.8125 81.625 372.21875 81.625Q371.625 81.625 371.15625 81.421875Q370.6875 81.21875 370.35938 80.84375Q370.04688 80.453125 369.85938 79.921875Q369.67188 79.390625 369.59375 78.71875L369.59375 78.0625Q369.67188 77.359375 369.85938 76.8125Q370.04688 76.25 370.35938 75.859375Q370.6875 75.453125 371.14062 75.25Q371.60938 75.046875 372.20312 75.046875Q372.79688 75.046875 373.26562 75.28125Q373.73438 75.5 374.04688 75.9375Q374.35938 76.359375 374.51562 76.953125Q374.6875 77.546875 374.6875 78.28125ZM373.59375 78.40625L373.59375 78.28125Q373.59375 77.796875 373.48438 77.390625Q373.39062 76.96875 373.1875 76.65625Q372.98438 76.328125 372.65625 76.140625Q372.32812 75.953125 371.89062 75.953125Q371.48438 75.953125 371.17188 76.09375Q370.875 76.234375 370.65625 76.484375Q370.45312 76.71875 370.3125 77.015625Q370.1875 77.3125 370.125 77.640625L370.125 79.15625Q370.23438 79.5625 370.4375 79.921875Q370.65625 80.28125 371.0 80.5Q371.35938 80.71875 371.90625 80.71875Q372.34375 80.71875 372.65625 80.546875Q372.98438 80.359375 373.1875 80.046875Q373.39062 79.71875 373.48438 79.296875Q373.59375 78.875 373.59375 78.40625ZM377.40625 72.5L377.40625 81.5L376.32812 81.5L376.32812 72.5L377.40625 72.5ZM377.15625 78.09375L376.70312 78.078125Q376.70312 77.421875 376.89062 76.875Q377.07812 76.3125 377.42188 75.90625Q377.76562 75.5 378.23438 75.28125Q378.70312 75.046875 379.28125 75.046875Q379.75 75.046875 380.125 75.171875Q380.5 75.296875 380.76562 75.578125Q381.03125 75.84375 381.17188 76.28125Q381.3125 76.71875 381.3125 77.34375L381.3125 81.5L380.21875 81.5L380.21875 77.328125Q380.21875 76.828125 380.07812 76.53125Q379.9375 76.234375 379.65625 76.09375Q379.375 75.953125 378.95312 75.953125Q378.54688 75.953125 378.21875 76.125Q377.89062 76.296875 377.65625 76.59375Q377.42188 76.890625 377.28125 77.28125Q377.15625 77.65625 377.15625 78.09375ZM385.10938 80.84375L386.875 75.15625L388.03125 75.15625L385.48438 82.484375Q385.40625 82.71875 385.25 82.984375Q385.10938 83.265625 384.89062 83.5Q384.67188 83.75 384.35938 83.90625Q384.04688 84.0625 383.60938 84.0625Q383.48438 84.0625 383.28125 84.015625Q383.07812 83.984375 383.0 83.96875L383.0 83.09375Q383.04688 83.09375 383.14062 83.09375Q383.25 83.109375 383.28125 83.109375Q383.65625 83.109375 383.90625 83.015625Q384.17188 82.921875 384.34375 82.6875Q384.53125 82.46875 384.65625 82.078125L385.10938 80.84375ZM383.8125 75.15625L385.45312 80.078125L385.73438 81.21875L384.96875 81.625L382.625 75.15625L383.8125 75.15625ZM390.5 72.5L390.5 81.5L389.42188 81.5L389.42188 72.5L390.5 72.5ZM393.5 72.5L393.5 81.5L392.42188 81.5L392.42188 72.5L393.5 72.5ZM397.95312 81.625Q397.29688 81.625 396.75 81.40625Q396.21875 81.171875 395.82812 80.765625Q395.45312 80.34375 395.25 79.78125Q395.04688 79.21875 395.04688 78.546875L395.04688 78.3125Q395.04688 77.53125 395.26562 76.921875Q395.5 76.3125 395.89062 75.890625Q396.28125 75.46875 396.78125 75.265625Q397.28125 75.046875 397.8125 75.046875Q398.5 75.046875 398.98438 75.28125Q399.48438 75.515625 399.79688 75.9375Q400.125 76.34375 400.26562 76.921875Q400.42188 77.484375 400.42188 78.140625L400.42188 78.640625L395.6875 78.640625L395.6875 77.75L399.34375 77.75L399.34375 77.671875Q399.3125 77.25 399.15625 76.859375Q399.01562 76.453125 398.6875 76.203125Q398.375 75.9375 397.8125 75.9375Q397.45312 75.9375 397.14062 76.09375Q396.82812 76.25 396.59375 76.5625Q396.375 76.859375 396.25 77.296875Q396.14062 77.734375 396.14062 78.3125L396.14062 78.546875Q396.14062 79.0 396.26562 79.40625Q396.39062 79.796875 396.625 80.09375Q396.875 80.390625 397.21875 80.5625Q397.57812 80.734375 398.01562 80.734375Q398.59375 80.734375 398.98438 80.5Q399.39062 80.265625 399.6875 79.875L400.34375 80.390625Q400.14062 80.703125 399.8125 80.984375Q399.5 81.265625 399.03125 81.453125Q398.57812 81.625 397.95312 81.625ZM402.40625 76.515625L402.40625 81.5L401.32812 81.5L401.32812 75.15625L402.35938 75.15625L402.40625 76.515625ZM402.15625 78.09375L401.70312 78.078125Q401.70312 77.421875 401.89062 76.875Q402.07812 76.3125 402.42188 75.90625Q402.76562 75.5 403.23438 75.28125Q403.70312 75.046875 404.28125 75.046875Q404.75 75.046875 405.125 75.171875Q405.5 75.296875 405.76562 75.578125Q406.03125 75.84375 406.17188 76.28125Q406.3125 76.71875 406.3125 77.34375L406.3125 81.5L405.21875 81.5L405.21875 77.328125Q405.21875 76.828125 405.07812 76.53125Q404.9375 76.234375 404.65625 76.09375Q404.375 75.953125 403.95312 75.953125Q403.54688 75.953125 403.21875 76.125Q402.89062 76.296875 402.65625 76.59375Q402.42188 76.890625 402.28125 77.28125Q402.15625 77.65625 402.15625 78.09375Z" fill-rule="nonzero"/><path stroke="#cccccc" stroke-width="1.0" stroke-linecap="butt" d="M372.0 305.0L547.0 204.0" fill-rule="nonzero"/><path fill="#000000" d="M553.6719 194.57812L553.6719 195.5L549.40625 195.5L549.40625 194.57812L553.6719 194.57812ZM549.625 186.96875L549.625 195.5L548.4844 195.5L548.4844 186.96875L549.625 186.96875ZM555.5 189.15625L555.5 195.5L554.4219 195.5L554.4219 189.15625L555.5 189.15625ZM554.3281 187.48438Q554.3281 187.21875 554.4844 187.03125Q554.65625 186.84375 554.96875 186.84375Q555.28125 186.84375 555.4375 187.03125Q555.6094 187.21875 555.6094 187.48438Q555.6094 187.73438 555.4375 187.92188Q555.28125 188.09375 554.96875 188.09375Q554.65625 188.09375 554.4844 187.92188Q554.3281 187.73438 554.3281 187.48438ZM558.40625 190.51562L558.40625 195.5L557.3281 195.5L557.3281 189.15625L558.3594 189.15625L558.40625 190.51562ZM558.15625 192.09375L557.7031 192.07812Q557.7031 191.42188 557.8906 190.875Q558.0781 190.3125 558.4219 189.90625Q558.7656 189.5 559.2344 189.28125Q559.7031 189.04688 560.28125 189.04688Q560.75 189.04688 561.125 189.17188Q561.5 189.29688 561.7656 189.57812Q562.03125 189.84375 562.1719 190.28125Q562.3125 190.71875 562.3125 191.34375L562.3125 195.5L561.21875 195.5L561.21875 191.32812Q561.21875 190.82812 561.0781 190.53125Q560.9375 190.23438 560.65625 190.09375Q560.375 189.95312 559.9531 189.95312Q559.5469 189.95312 559.21875 190.125Q558.8906 190.29688 558.65625 190.59375Q558.4219 190.89062 558.28125 191.28125Q558.15625 191.65625 558.15625 192.09375ZM568.0625 194.42188L568.0625 191.15625Q568.0625 190.78125 567.90625 190.5Q567.7656 190.21875 567.46875 190.07812Q567.1719 189.92188 566.7344 189.92188Q566.3125 189.92188 566.0 190.0625Q565.7031 190.20312 565.53125 190.4375Q565.3594 190.65625 565.3594 190.92188L564.28125 190.92188Q564.28125 190.57812 564.4531 190.25Q564.625 189.90625 564.9531 189.64062Q565.28125 189.35938 565.75 189.20312Q566.21875 189.04688 566.7969 189.04688Q567.4844 189.04688 568.0156 189.28125Q568.5469 189.51562 568.84375 189.98438Q569.15625 190.45312 569.15625 191.15625L569.15625 194.10938Q569.15625 194.4375 569.2031 194.79688Q569.2656 195.14062 569.375 195.40625L569.375 195.5L568.2344 195.5Q568.15625 195.3125 568.1094 195.0Q568.0625 194.6875 568.0625 194.42188ZM568.25 191.65625L568.2656 192.42188L567.1719 192.42188Q566.7031 192.42188 566.34375 192.5Q565.9844 192.5625 565.7344 192.71875Q565.4844 192.85938 565.3594 193.07812Q565.2344 193.29688 565.2344 193.59375Q565.2344 193.89062 565.3594 194.14062Q565.5 194.375 565.7656 194.53125Q566.0469 194.67188 566.4375 194.67188Q566.9375 194.67188 567.3125 194.46875Q567.7031 194.25 567.9219 193.95312Q568.15625 193.64062 568.1719 193.34375L568.6406 193.875Q568.59375 194.10938 568.40625 194.42188Q568.2344 194.71875 567.9219 195.0Q567.625 195.26562 567.2031 195.45312Q566.7969 195.625 566.28125 195.625Q565.6406 195.625 565.15625 195.375Q564.6719 195.10938 564.40625 194.6875Q564.1406 194.26562 564.1406 193.73438Q564.1406 193.21875 564.3281 192.84375Q564.53125 192.45312 564.90625 192.1875Q565.28125 191.92188 565.8125 191.79688Q566.34375 191.65625 567.0 191.65625L568.25 191.65625ZM572.5 186.5L572.5 195.5L571.4219 195.5L571.4219 186.5L572.5 186.5ZM574.0469 192.40625L574.0469 192.26562Q574.0469 191.57812 574.2344 191.0Q574.4375 190.40625 574.8125 189.96875Q575.1875 189.53125 575.71875 189.29688Q576.25 189.04688 576.9219 189.04688Q577.5781 189.04688 578.1094 189.29688Q578.65625 189.53125 579.03125 189.96875Q579.40625 190.40625 579.6094 191.0Q579.8125 191.57812 579.8125 192.26562L579.8125 192.40625Q579.8125 193.07812 579.6094 193.67188Q579.40625 194.25 579.03125 194.6875Q578.65625 195.125 578.125 195.375Q577.59375 195.625 576.9219 195.625Q576.2656 195.625 575.71875 195.375Q575.1875 195.125 574.8125 194.6875Q574.4375 194.25 574.2344 193.67188Q574.0469 193.07812 574.0469 192.40625ZM575.125 192.26562L575.125 192.40625Q575.125 192.875 575.2344 193.29688Q575.34375 193.71875 575.5625 194.04688Q575.7969 194.35938 576.1406 194.54688Q576.4844 194.71875 576.9219 194.71875Q577.375 194.71875 577.7031 194.54688Q578.0469 194.35938 578.2656 194.04688Q578.5 193.71875 578.6094 193.29688Q578.71875 192.875 578.71875 192.40625L578.71875 192.26562Q578.71875 191.79688 578.6094 191.375Q578.5 190.95312 578.2656 190.64062Q578.0469 190.3125 577.7031 190.125Q577.375 189.9375 576.9219 189.9375Q576.46875 189.9375 576.125 190.125Q575.7969 190.3125 575.5625 190.64062Q575.34375 190.95312 575.2344 191.375Q575.125 191.79688 575.125 192.26562ZM581.0469 192.40625L581.0469 192.26562Q581.0469 191.57812 581.2344 191.0Q581.4375 190.40625 581.8125 189.96875Q582.1875 189.53125 582.71875 189.29688Q583.25 189.04688 583.9219 189.04688Q584.5781 189.04688 585.1094 189.29688Q585.65625 189.53125 586.03125 189.96875Q586.40625 190.40625 586.6094 191.0Q586.8125 191.57812 586.8125 192.26562L586.8125 192.40625Q586.8125 193.07812 586.6094 193.67188Q586.40625 194.25 586.03125 194.6875Q585.65625 195.125 585.125 195.375Q584.59375 195.625 583.9219 195.625Q583.2656 195.625 582.71875 195.375Q582.1875 195.125 581.8125 194.6875Q581.4375 194.25 581.2344 193.67188Q581.0469 193.07812 581.0469 192.40625ZM582.125 192.26562L582.125 192.40625Q582.125 192.875 582.2344 193.29688Q582.34375 193.71875 582.5625 194.04688Q582.7969 194.35938 583.1406 194.54688Q583.4844 194.71875 583.9219 194.71875Q584.375 194.71875 584.7031 194.54688Q585.0469 194.35938 585.2656 194.04688Q585.5 193.71875 585.6094 193.29688Q585.71875 192.875 585.71875 192.40625L585.71875 192.26562Q585.71875 191.79688 585.6094 191.375Q585.5 190.95312 585.2656 190.64062Q585.0469 190.3125 584.7031 190.125Q584.375 189.9375 583.9219 189.9375Q583.46875 189.9375 583.125 190.125Q582.7969 190.3125 582.5625 190.64062Q582.34375 190.95312 582.2344 191.375Q582.125 191.79688 582.125 192.26562ZM589.5 186.5L589.5 195.5L588.4219 195.5L588.4219 186.5L589.5 186.5Z" fill-rule="nonzero"/><path stroke="#cccccc" stroke-width="1.0" stroke-linecap="butt" d="M372.0 305.0L547.0 406.0" fill-rule="nonzero"/><path fill="#000000" d="M539.59375 420.5625L539.59375 420.4375Q539.59375 419.6875 539.75 419.07812Q539.9219 418.45312 540.2344 418.0Q540.5469 417.54688 541.0 417.29688Q541.46875 417.04688 542.0625 417.04688Q542.5156 417.04688 542.875 417.1875Q543.25 417.3125 543.53125 417.57812Q543.8125 417.82812 544.0156 418.20312Q544.21875 418.57812 544.34375 419.0625Q544.46875 419.53125 544.5156 420.09375L544.5156 420.57812Q544.4531 421.28125 544.2656 421.84375Q544.09375 422.40625 543.7969 422.8125Q543.5 423.20312 543.0625 423.42188Q542.6406 423.625 542.0469 423.625Q541.46875 423.625 541.0 423.40625Q540.5469 423.17188 540.2344 422.76562Q539.9219 422.34375 539.75 421.79688Q539.59375 421.23438 539.59375 420.5625ZM540.6719 420.4375L540.6719 420.5625Q540.6719 421.01562 540.7656 421.40625Q540.8594 421.79688 541.0469 422.09375Q541.25 422.39062 541.5625 422.5625Q541.8906 422.73438 542.3281 422.73438Q542.75 422.73438 543.0469 422.5625Q543.3594 422.375 543.5625 422.07812Q543.78125 421.78125 543.90625 421.39062Q544.0469 421.0 544.1406 420.59375L544.1406 420.20312Q544.0781 419.76562 543.9375 419.375Q543.8125 418.96875 543.59375 418.64062Q543.3906 418.3125 543.0781 418.125Q542.7656 417.9375 542.3281 417.9375Q541.8906 417.9375 541.5781 418.14062Q541.2656 418.32812 541.0625 418.67188Q540.8594 419.01562 540.7656 419.48438Q540.6719 419.9375 540.6719 420.4375ZM543.9844 417.15625L544.90625 417.15625L544.90625 421.76562Q544.90625 422.04688 544.9375 422.21875Q544.96875 422.375 545.03125 422.48438Q545.1094 422.57812 545.1875 422.625Q545.28125 422.65625 545.375 422.65625Q545.4219 422.65625 545.46875 422.64062Q545.53125 422.625 545.5625 422.60938L545.7031 423.42188Q545.5156 423.54688 545.34375 423.57812Q545.1719 423.625 544.9844 423.625Q544.7031 423.625 544.4844 423.51562Q544.28125 423.42188 544.125 423.20312Q543.96875 422.98438 543.8906 422.625Q543.8125 422.26562 543.8125 421.76562L543.8125 418.53125L543.9844 417.15625ZM549.0781 419.42188L549.0781 420.3125L546.21875 420.3125L546.21875 419.42188L549.0781 419.42188ZM555.5625 418.64062L555.5625 419.5625L550.9531 419.5625L550.9531 418.64062L555.5625 418.64062ZM551.125 414.96875L551.125 423.5L549.9844 423.5L549.9844 414.96875L551.125 414.96875ZM556.5469 414.96875L556.5469 423.5L555.4219 423.5L555.4219 414.96875L556.5469 414.96875ZM562.7031 422.03125L562.7031 417.15625L563.7969 417.15625L563.7969 423.5L562.7656 423.5L562.7031 422.03125ZM562.90625 420.70312L563.3594 420.6875Q563.3594 421.3125 563.21875 421.85938Q563.09375 422.39062 562.7969 422.78125Q562.5156 423.17188 562.03125 423.40625Q561.5625 423.625 560.8906 423.625Q560.4219 423.625 560.03125 423.48438Q559.65625 423.34375 559.375 423.0625Q559.1094 422.78125 558.9531 422.32812Q558.7969 421.875 558.7969 421.25L558.7969 417.15625L559.8906 417.15625L559.8906 421.26562Q559.8906 421.6875 559.9844 421.96875Q560.0781 422.25 560.25 422.40625Q560.4219 422.5625 560.625 422.64062Q560.8281 422.70312 561.0469 422.70312Q561.75 422.70312 562.1406 422.4375Q562.5469 422.15625 562.71875 421.70312Q562.90625 421.25 562.90625 420.70312ZM566.90625 418.42188L566.90625 423.5L565.8125 423.5L565.8125 417.15625L566.84375 417.15625L566.90625 418.42188ZM566.6875 420.09375L566.1719 420.07812Q566.1875 419.42188 566.34375 418.875Q566.5156 418.3125 566.8281 417.90625Q567.15625 417.5 567.6406 417.28125Q568.125 417.04688 568.75 417.04688Q569.2031 417.04688 569.5781 417.17188Q569.9531 417.29688 570.21875 417.5625Q570.5 417.82812 570.6406 418.25Q570.7969 418.67188 570.7969 419.28125L570.7969 423.5L569.71875 423.5L569.71875 419.32812Q569.71875 418.82812 569.5469 418.53125Q569.3906 418.23438 569.0781 418.09375Q568.78125 417.95312 568.3594 417.95312Q567.8906 417.95312 567.5625 418.125Q567.2344 418.29688 567.0469 418.59375Q566.8594 418.89062 566.7656 419.28125Q566.6875 419.65625 566.6875 420.09375ZM570.7969 419.48438L570.0625 419.71875Q570.0625 419.1875 570.2344 418.71875Q570.40625 418.23438 570.71875 417.85938Q571.0469 417.48438 571.5156 417.26562Q571.9844 417.04688 572.5781 417.04688Q573.09375 417.04688 573.4844 417.1875Q573.8906 417.3125 574.15625 417.59375Q574.4219 417.875 574.5625 418.3125Q574.7031 418.73438 574.7031 419.32812L574.7031 423.5L573.625 423.5L573.625 419.32812Q573.625 418.78125 573.4531 418.5Q573.28125 418.20312 572.9844 418.07812Q572.6875 417.95312 572.2656 417.95312Q571.90625 417.95312 571.625 418.07812Q571.3594 418.20312 571.1719 418.42188Q570.9844 418.625 570.8906 418.90625Q570.7969 419.1875 570.7969 419.48438ZM580.7031 422.03125L580.7031 417.15625L581.7969 417.15625L581.7969 423.5L580.7656 423.5L580.7031 422.03125ZM580.90625 420.70312L581.3594 420.6875Q581.3594 421.3125 581.21875 421.85938Q581.09375 422.39062 580.7969 422.78125Q580.5156 423.17188 580.03125 423.40625Q579.5625 423.625 578.8906 423.625Q578.4219 423.625 578.03125 423.48438Q577.65625 423.34375 577.375 423.0625Q577.1094 422.78125 576.9531 422.32812Q576.7969 421.875 576.7969 421.25L576.7969 417.15625L577.8906 417.15625L577.8906 421.26562Q577.8906 421.6875 577.9844 421.96875Q578.0781 422.25 578.25 422.40625Q578.4219 422.5625 578.625 422.64062Q578.8281 422.70312 579.0469 422.70312Q579.75 422.70312 580.1406 422.4375Q580.5469 422.15625 580.71875 421.70312Q580.90625 421.25 580.90625 420.70312ZM585.0 414.5L585.0 423.5L583.9219 423.5L583.9219 414.5L585.0 414.5ZM589.4531 423.625Q588.7969 423.625 588.25 423.40625Q587.71875 423.17188 587.3281 422.76562Q586.9531 422.34375 586.75 421.78125Q586.5469 421.21875 586.5469 420.54688L586.5469 420.3125Q586.5469 419.53125 586.7656 418.92188Q587.0 418.3125 587.3906 417.89062Q587.78125 417.46875 588.28125 417.26562Q588.78125 417.04688 589.3125 417.04688Q590.0 417.04688 590.4844 417.28125Q590.9844 417.51562 591.2969 417.9375Q591.625 418.34375 591.7656 418.92188Q591.9219 419.48438 591.9219 420.14062L591.9219 420.64062L587.1875 420.64062L587.1875 419.75L590.84375 419.75L590.84375 419.67188Q590.8125 419.25 590.65625 418.85938Q590.5156 418.45312 590.1875 418.20312Q589.875 417.9375 589.3125 417.9375Q588.9531 417.9375 588.6406 418.09375Q588.3281 418.25 588.09375 418.5625Q587.875 418.85938 587.75 419.29688Q587.6406 419.73438 587.6406 420.3125L587.6406 420.54688Q587.6406 421.0 587.7656 421.40625Q587.8906 421.79688 588.125 422.09375Q588.375 422.39062 588.71875 422.5625Q589.0781 422.73438 589.5156 422.73438Q590.09375 422.73438 590.4844 422.5Q590.8906 422.26562 591.1875 421.875L591.84375 422.39062Q591.6406 422.70312 591.3125 422.98438Q591.0 423.26562 590.53125 423.45312Q590.0781 423.625 589.4531 423.625ZM593.90625 418.51562L593.90625 423.5L592.8281 423.5L592.8281 417.15625L593.8594 417.15625L593.90625 418.51562ZM593.65625 420.09375L593.2031 420.07812Q593.2031 419.42188 593.3906 418.875Q593.5781 418.3125 593.9219 417.90625Q594.2656 417.5 594.7344 417.28125Q595.2031 417.04688 595.78125 417.04688Q596.25 417.04688 596.625 417.17188Q597.0 417.29688 597.2656 417.57812Q597.53125 417.84375 597.6719 418.28125Q597.8125 418.71875 597.8125 419.34375L597.8125 423.5L596.71875 423.5L596.71875 419.32812Q596.71875 418.82812 596.5781 418.53125Q596.4375 418.23438 596.15625 418.09375Q595.875 417.95312 595.4531 417.95312Q595.0469 417.95312 594.71875 418.125Q594.3906 418.29688 594.15625 418.59375Q593.9219 418.89062 593.78125 419.28125Q593.65625 419.65625 593.65625 420.09375Z" fill-rule="nonzero"/><path stroke="#cccccc" stroke-width="1.0" stroke-linecap="butt" d="M372.0 305.0L372.0 507.0" fill-rule="nonzero"/><path fill="#000000" d="M354.67188 536.5781L354.67188 537.5L350.40625 537.5L350.40625 536.5781L354.67188 536.5781ZM350.625 528.96875L350.625 537.5L349.48438 537.5L349.48438 528.96875L350.625 528.96875ZM356.5 531.15625L356.5 537.5L355.42188 537.5L355.42188 531.15625L356.5 531.15625ZM355.32812 529.4844Q355.32812 529.21875 355.48438 529.03125Q355.65625 528.84375 355.96875 528.84375Q356.28125 528.84375 356.4375 529.03125Q356.60938 529.21875 356.60938 529.4844Q356.60938 529.7344 356.4375 529.9219Q356.28125 530.09375 355.96875 530.09375Q355.65625 530.09375 355.48438 529.9219Q355.32812 529.7344 355.32812 529.4844ZM359.40625 532.4219L359.40625 537.5L358.3125 537.5L358.3125 531.15625L359.34375 531.15625L359.40625 532.4219ZM359.1875 534.09375L358.67188 534.0781Q358.6875 533.4219 358.84375 532.875Q359.01562 532.3125 359.32812 531.90625Q359.65625 531.5 360.14062 531.28125Q360.625 531.0469 361.25 531.0469Q361.70312 531.0469 362.07812 531.1719Q362.45312 531.2969 362.71875 531.5625Q363.0 531.8281 363.14062 532.25Q363.29688 532.6719 363.29688 533.28125L363.29688 537.5L362.21875 537.5L362.21875 533.3281Q362.21875 532.8281 362.04688 532.53125Q361.89062 532.2344 361.57812 532.09375Q361.28125 531.9531 360.85938 531.9531Q360.39062 531.9531 360.0625 532.125Q359.73438 532.2969 359.54688 532.59375Q359.35938 532.8906 359.26562 533.28125Q359.1875 533.65625 359.1875 534.09375ZM363.29688 533.4844L362.5625 533.71875Q362.5625 533.1875 362.73438 532.71875Q362.90625 532.2344 363.21875 531.8594Q363.54688 531.4844 364.01562 531.2656Q364.48438 531.0469 365.07812 531.0469Q365.59375 531.0469 365.98438 531.1875Q366.39062 531.3125 366.65625 531.59375Q366.92188 531.875 367.0625 532.3125Q367.20312 532.7344 367.20312 533.3281L367.20312 537.5L366.125 537.5L366.125 533.3281Q366.125 532.78125 365.95312 532.5Q365.78125 532.2031 365.48438 532.0781Q365.1875 531.9531 364.76562 531.9531Q364.40625 531.9531 364.125 532.0781Q363.85938 532.2031 363.67188 532.4219Q363.48438 532.625 363.39062 532.90625Q363.29688 533.1875 363.29688 533.4844ZM369.04688 534.40625L369.04688 534.2656Q369.04688 533.5781 369.23438 533.0Q369.4375 532.40625 369.8125 531.96875Q370.1875 531.53125 370.71875 531.2969Q371.25 531.0469 371.92188 531.0469Q372.57812 531.0469 373.10938 531.2969Q373.65625 531.53125 374.03125 531.96875Q374.40625 532.40625 374.60938 533.0Q374.8125 533.5781 374.8125 534.2656L374.8125 534.40625Q374.8125 535.0781 374.60938 535.6719Q374.40625 536.25 374.03125 536.6875Q373.65625 537.125 373.125 537.375Q372.59375 537.625 371.92188 537.625Q371.26562 537.625 370.71875 537.375Q370.1875 537.125 369.8125 536.6875Q369.4375 536.25 369.23438 535.6719Q369.04688 535.0781 369.04688 534.40625ZM370.125 534.2656L370.125 534.40625Q370.125 534.875 370.23438 535.2969Q370.34375 535.71875 370.5625 536.0469Q370.79688 536.3594 371.14062 536.5469Q371.48438 536.71875 371.92188 536.71875Q372.375 536.71875 372.70312 536.5469Q373.04688 536.3594 373.26562 536.0469Q373.5 535.71875 373.60938 535.2969Q373.71875 534.875 373.71875 534.40625L373.71875 534.2656Q373.71875 533.7969 373.60938 533.375Q373.5 532.9531 373.26562 532.6406Q373.04688 532.3125 372.70312 532.125Q372.375 531.9375 371.92188 531.9375Q371.46875 531.9375 371.125 532.125Q370.79688 532.3125 370.5625 532.6406Q370.34375 532.9531 370.23438 533.375Q370.125 533.7969 370.125 534.2656ZM377.40625 532.5156L377.40625 537.5L376.32812 537.5L376.32812 531.15625L377.35938 531.15625L377.40625 532.5156ZM377.15625 534.09375L376.70312 534.0781Q376.70312 533.4219 376.89062 532.875Q377.07812 532.3125 377.42188 531.90625Q377.76562 531.5 378.23438 531.28125Q378.70312 531.0469 379.28125 531.0469Q379.75 531.0469 380.125 531.1719Q380.5 531.2969 380.76562 531.5781Q381.03125 531.84375 381.17188 532.28125Q381.3125 532.71875 381.3125 533.34375L381.3125 537.5L380.21875 537.5L380.21875 533.3281Q380.21875 532.8281 380.07812 532.53125Q379.9375 532.2344 379.65625 532.09375Q379.375 531.9531 378.95312 531.9531Q378.54688 531.9531 378.21875 532.125Q377.89062 532.2969 377.65625 532.59375Q377.42188 532.8906 377.28125 533.28125Q377.15625 533.65625 377.15625 534.09375ZM385.95312 537.625Q385.29688 537.625 384.75 537.40625Q384.21875 537.1719 383.82812 536.7656Q383.45312 536.34375 383.25 535.78125Q383.04688 535.21875 383.04688 534.5469L383.04688 534.3125Q383.04688 533.53125 383.26562 532.9219Q383.5 532.3125 383.89062 531.8906Q384.28125 531.46875 384.78125 531.2656Q385.28125 531.0469 385.8125 531.0469Q386.5 531.0469 386.98438 531.28125Q387.48438 531.5156 387.79688 531.9375Q388.125 532.34375 388.26562 532.9219Q388.42188 533.4844 388.42188 534.1406L388.42188 534.6406L383.6875 534.6406L383.6875 533.75L387.34375 533.75L387.34375 533.6719Q387.3125 533.25 387.15625 532.8594Q387.01562 532.4531 386.6875 532.2031Q386.375 531.9375 385.8125 531.9375Q385.45312 531.9375 385.14062 532.09375Q384.82812 532.25 384.59375 532.5625Q384.375 532.8594 384.25 533.2969Q384.14062 533.7344 384.14062 534.3125L384.14062 534.5469Q384.14062 535.0 384.26562 535.40625Q384.39062 535.7969 384.625 536.09375Q384.875 536.3906 385.21875 536.5625Q385.57812 536.7344 386.01562 536.7344Q386.59375 536.7344 386.98438 536.5Q387.39062 536.2656 387.6875 535.875L388.34375 536.3906Q388.14062 536.7031 387.8125 536.9844Q387.5 537.2656 387.03125 537.4531Q386.57812 537.625 385.95312 537.625ZM390.40625 532.5156L390.40625 537.5L389.32812 537.5L389.32812 531.15625L390.35938 531.15625L390.40625 532.5156ZM390.15625 534.09375L389.70312 534.0781Q389.70312 533.4219 389.89062 532.875Q390.07812 532.3125 390.42188 531.90625Q390.76562 531.5 391.23438 531.28125Q391.70312 531.0469 392.28125 531.0469Q392.75 531.0469 393.125 531.1719Q393.5 531.2969 393.76562 531.5781Q394.03125 531.84375 394.17188 532.28125Q394.3125 532.71875 394.3125 533.34375L394.3125 537.5L393.21875 537.5L393.21875 533.3281Q393.21875 532.8281 393.07812 532.53125Q392.9375 532.2344 392.65625 532.09375Q392.375 531.9531 391.95312 531.9531Q391.54688 531.9531 391.21875 532.125Q390.89062 532.2969 390.65625 532.59375Q390.42188 532.8906 390.28125 533.28125Q390.15625 533.65625 390.15625 534.09375Z" fill-rule="nonzero"/><path stroke="#cccccc" stroke-width="1.0" stroke-linecap="butt" d="M372.0 305.0L197.0 406.0" fill-rule="nonzero"/><path fill="#000000" d="M145.59375 420.5625L145.59375 420.4375Q145.59375 419.6875 145.75 419.07812Q145.92188 418.45312 146.23438 418.0Q146.54688 417.54688 147.0 417.29688Q147.46875 417.04688 148.0625 417.04688Q148.51562 417.04688 148.875 417.1875Q149.25 417.3125 149.53125 417.57812Q149.8125 417.82812 150.01562 418.20312Q150.21875 418.57812 150.34375 419.0625Q150.46875 419.53125 150.51562 420.09375L150.51562 420.57812Q150.45312 421.28125 150.26562 421.84375Q150.09375 422.40625 149.79688 422.8125Q149.5 423.20312 149.0625 423.42188Q148.64062 423.625 148.04688 423.625Q147.46875 423.625 147.0 423.40625Q146.54688 423.17188 146.23438 422.76562Q145.92188 422.34375 145.75 421.79688Q145.59375 421.23438 145.59375 420.5625ZM146.67188 420.4375L146.67188 420.5625Q146.67188 421.01562 146.76562 421.40625Q146.85938 421.79688 147.04688 422.09375Q147.25 422.39062 147.5625 422.5625Q147.89062 422.73438 148.32812 422.73438Q148.75 422.73438 149.04688 422.5625Q149.35938 422.375 149.5625 422.07812Q149.78125 421.78125 149.90625 421.39062Q150.04688 421.0 150.14062 420.59375L150.14062 420.20312Q150.07812 419.76562 149.9375 419.375Q149.8125 418.96875 149.59375 418.64062Q149.39062 418.3125 149.07812 418.125Q148.76562 417.9375 148.32812 417.9375Q147.89062 417.9375 147.57812 418.14062Q147.26562 418.32812 147.0625 418.67188Q146.85938 419.01562 146.76562 419.48438Q146.67188 419.9375 146.67188 420.4375ZM149.98438 417.15625L150.90625 417.15625L150.90625 421.76562Q150.90625 422.04688 150.9375 422.21875Q150.96875 422.375 151.03125 422.48438Q151.10938 422.57812 151.1875 422.625Q151.28125 422.65625 151.375 422.65625Q151.42188 422.65625 151.46875 422.64062Q151.53125 422.625 151.5625 422.60938L151.70312 423.42188Q151.51562 423.54688 151.34375 423.57812Q151.17188 423.625 150.98438 423.625Q150.70312 423.625 150.48438 423.51562Q150.28125 423.42188 150.125 423.20312Q149.96875 422.98438 149.89062 422.625Q149.8125 422.26562 149.8125 421.76562L149.8125 418.53125L149.98438 417.15625ZM155.07812 419.42188L155.07812 420.3125L152.21875 420.3125L152.21875 419.42188L155.07812 419.42188ZM161.5625 418.64062L161.5625 419.5625L156.95312 419.5625L156.95312 418.64062L161.5625 418.64062ZM157.125 414.96875L157.125 423.5L155.98438 423.5L155.98438 414.96875L157.125 414.96875ZM162.54688 414.96875L162.54688 423.5L161.42188 423.5L161.42188 414.96875L162.54688 414.96875ZM168.70312 422.03125L168.70312 417.15625L169.79688 417.15625L169.79688 423.5L168.76562 423.5L168.70312 422.03125ZM168.90625 420.70312L169.35938 420.6875Q169.35938 421.3125 169.21875 421.85938Q169.09375 422.39062 168.79688 422.78125Q168.51562 423.17188 168.03125 423.40625Q167.5625 423.625 166.89062 423.625Q166.42188 423.625 166.03125 423.48438Q165.65625 423.34375 165.375 423.0625Q165.10938 422.78125 164.95312 422.32812Q164.79688 421.875 164.79688 421.25L164.79688 417.15625L165.89062 417.15625L165.89062 421.26562Q165.89062 421.6875 165.98438 421.96875Q166.07812 422.25 166.25 422.40625Q166.42188 422.5625 166.625 422.64062Q166.82812 422.70312 167.04688 422.70312Q167.75 422.70312 168.14062 422.4375Q168.54688 422.15625 168.71875 421.70312Q168.90625 421.25 168.90625 420.70312ZM172.90625 418.42188L172.90625 423.5L171.8125 423.5L171.8125 417.15625L172.84375 417.15625L172.90625 418.42188ZM172.6875 420.09375L172.17188 420.07812Q172.1875 419.42188 172.34375 418.875Q172.51562 418.3125 172.82812 417.90625Q173.15625 417.5 173.64062 417.28125Q174.125 417.04688 174.75 417.04688Q175.20312 417.04688 175.57812 417.17188Q175.95312 417.29688 176.21875 417.5625Q176.5 417.82812 176.64062 418.25Q176.79688 418.67188 176.79688 419.28125L176.79688 423.5L175.71875 423.5L175.71875 419.32812Q175.71875 418.82812 175.54688 418.53125Q175.39062 418.23438 175.07812 418.09375Q174.78125 417.95312 174.35938 417.95312Q173.89062 417.95312 173.5625 418.125Q173.23438 418.29688 173.04688 418.59375Q172.85938 418.89062 172.76562 419.28125Q172.6875 419.65625 172.6875 420.09375ZM176.79688 419.48438L176.0625 419.71875Q176.0625 419.1875 176.23438 418.71875Q176.40625 418.23438 176.71875 417.85938Q177.04688 417.48438 177.51562 417.26562Q177.98438 417.04688 178.57812 417.04688Q179.09375 417.04688 179.48438 417.1875Q179.89062 417.3125 180.15625 417.59375Q180.42188 417.875 180.5625 418.3125Q180.70312 418.73438 180.70312 419.32812L180.70312 423.5L179.625 423.5L179.625 419.32812Q179.625 418.78125 179.45312 418.5Q179.28125 418.20312 178.98438 418.07812Q178.6875 417.95312 178.26562 417.95312Q177.90625 417.95312 177.625 418.07812Q177.35938 418.20312 177.17188 418.42188Q176.98438 418.625 176.89062 418.90625Q176.79688 419.1875 176.79688 419.48438ZM186.70312 422.03125L186.70312 417.15625L187.79688 417.15625L187.79688 423.5L186.76562 423.5L186.70312 422.03125ZM186.90625 420.70312L187.35938 420.6875Q187.35938 421.3125 187.21875 421.85938Q187.09375 422.39062 186.79688 422.78125Q186.51562 423.17188 186.03125 423.40625Q185.5625 423.625 184.89062 423.625Q184.42188 423.625 184.03125 423.48438Q183.65625 423.34375 183.375 423.0625Q183.10938 422.78125 182.95312 422.32812Q182.79688 421.875 182.79688 421.25L182.79688 417.15625L183.89062 417.15625L183.89062 421.26562Q183.89062 421.6875 183.98438 421.96875Q184.07812 422.25 184.25 422.40625Q184.42188 422.5625 184.625 422.64062Q184.82812 422.70312 185.04688 422.70312Q185.75 422.70312 186.14062 422.4375Q186.54688 422.15625 186.71875 421.70312Q186.90625 421.25 186.90625 420.70312ZM191.0 414.5L191.0 423.5L189.92188 423.5L189.92188 414.5L191.0 414.5ZM195.45312 423.625Q194.79688 423.625 194.25 423.40625Q193.71875 423.17188 193.32812 422.76562Q192.95312 422.34375 192.75 421.78125Q192.54688 421.21875 192.54688 420.54688L192.54688 420.3125Q192.54688 419.53125 192.76562 418.92188Q193.0 418.3125 193.39062 417.89062Q193.78125 417.46875 194.28125 417.26562Q194.78125 417.04688 195.3125 417.04688Q196.0 417.04688 196.48438 417.28125Q196.98438 417.51562 197.29688 417.9375Q197.625 418.34375 197.76562 418.92188Q197.92188 419.48438 197.92188 420.14062L197.92188 420.64062L193.1875 420.64062L193.1875 419.75L196.84375 419.75L196.84375 419.67188Q196.8125 419.25 196.65625 418.85938Q196.51562 418.45312 196.1875 418.20312Q195.875 417.9375 195.3125 417.9375Q194.95312 417.9375 194.64062 418.09375Q194.32812 418.25 194.09375 418.5625Q193.875 418.85938 193.75 419.29688Q193.64062 419.73438 193.64062 420.3125L193.64062 420.54688Q193.64062 421.0 193.76562 421.40625Q193.89062 421.79688 194.125 422.09375Q194.375 422.39062 194.71875 422.5625Q195.07812 422.73438 195.51562 422.73438Q196.09375 422.73438 196.48438 422.5Q196.89062 422.26562 197.1875 421.875L197.84375 422.39062Q197.64062 422.70312 197.3125 422.98438Q197.0 423.26562 196.53125 423.45312Q196.07812 423.625 195.45312 423.625ZM199.90625 418.51562L199.90625 423.5L198.82812 423.5L198.82812 417.15625L199.85938 417.15625L199.90625 418.51562ZM199.65625 420.09375L199.20312 420.07812Q199.20312 419.42188 199.39062 418.875Q199.57812 418.3125 199.92188 417.90625Q200.26562 417.5 200.73438 417.28125Q201.20312 417.04688 201.78125 417.04688Q202.25 417.04688 202.625 417.17188Q203.0 417.29688 203.26562 417.57812Q203.53125 417.84375 203.67188 418.28125Q203.8125 418.71875 203.8125 419.34375L203.8125 423.5L202.71875 423.5L202.71875 419.32812Q202.71875 418.82812 202.57812 418.53125Q202.4375 418.23438 202.15625 418.09375Q201.875 417.95312 201.45312 417.95312Q201.04688 417.95312 200.71875 418.125Q200.39062 418.29688 200.15625 418.59375Q199.92188 418.89062 199.78125 419.28125Q199.65625 419.65625 199.65625 420.09375Z" fill-rule="nonzero"/><path stroke="#cccccc" stroke-width="1.0" stroke-linecap="butt" d="M372.0 305.0L197.0 204.0" fill-rule="nonzero"/><path fill="#000000" d="M157.03125 193.34375Q157.03125 193.04688 156.9375 192.8125Q156.85938 192.57812 156.625 192.39062Q156.40625 192.20312 156.0 192.03125Q155.60938 191.85938 155.01562 191.6875Q154.375 191.5 153.85938 191.28125Q153.35938 191.04688 152.98438 190.75Q152.625 190.4375 152.4375 190.0625Q152.25 189.67188 152.25 189.17188Q152.25 188.67188 152.45312 188.25Q152.65625 187.82812 153.03125 187.51562Q153.42188 187.20312 153.95312 187.03125Q154.48438 186.84375 155.14062 186.84375Q156.10938 186.84375 156.78125 187.21875Q157.45312 187.57812 157.79688 188.17188Q158.15625 188.76562 158.15625 189.42188L157.03125 189.42188Q157.03125 188.95312 156.8125 188.57812Q156.60938 188.20312 156.1875 188.0Q155.78125 187.78125 155.14062 187.78125Q154.54688 187.78125 154.14062 187.96875Q153.75 188.14062 153.5625 188.45312Q153.375 188.76562 153.375 189.15625Q153.375 189.42188 153.48438 189.65625Q153.60938 189.875 153.84375 190.0625Q154.09375 190.25 154.46875 190.40625Q154.84375 190.5625 155.375 190.70312Q156.09375 190.90625 156.625 191.17188Q157.15625 191.42188 157.5 191.73438Q157.84375 192.04688 158.0 192.4375Q158.17188 192.82812 158.17188 193.32812Q158.17188 193.85938 157.95312 194.28125Q157.75 194.70312 157.35938 195.0Q156.96875 195.29688 156.42188 195.46875Q155.875 195.625 155.20312 195.625Q154.60938 195.625 154.03125 195.45312Q153.46875 195.28125 153.0 194.95312Q152.53125 194.625 152.25 194.15625Q151.96875 193.67188 151.96875 193.03125L153.09375 193.03125Q153.09375 193.46875 153.26562 193.78125Q153.4375 194.09375 153.73438 194.29688Q154.03125 194.5 154.40625 194.60938Q154.78125 194.70312 155.20312 194.70312Q155.79688 194.70312 156.20312 194.54688Q156.60938 194.375 156.8125 194.07812Q157.03125 193.76562 157.03125 193.34375ZM159.04688 192.40625L159.04688 192.26562Q159.04688 191.57812 159.23438 191.0Q159.4375 190.40625 159.8125 189.96875Q160.1875 189.53125 160.71875 189.29688Q161.25 189.04688 161.92188 189.04688Q162.57812 189.04688 163.10938 189.29688Q163.65625 189.53125 164.03125 189.96875Q164.40625 190.40625 164.60938 191.0Q164.8125 191.57812 164.8125 192.26562L164.8125 192.40625Q164.8125 193.07812 164.60938 193.67188Q164.40625 194.25 164.03125 194.6875Q163.65625 195.125 163.125 195.375Q162.59375 195.625 161.92188 195.625Q161.26562 195.625 160.71875 195.375Q160.1875 195.125 159.8125 194.6875Q159.4375 194.25 159.23438 193.67188Q159.04688 193.07812 159.04688 192.40625ZM160.125 192.26562L160.125 192.40625Q160.125 192.875 160.23438 193.29688Q160.34375 193.71875 160.5625 194.04688Q160.79688 194.35938 161.14062 194.54688Q161.48438 194.71875 161.92188 194.71875Q162.375 194.71875 162.70312 194.54688Q163.04688 194.35938 163.26562 194.04688Q163.5 193.71875 163.60938 193.29688Q163.71875 192.875 163.71875 192.40625L163.71875 192.26562Q163.71875 191.79688 163.60938 191.375Q163.5 190.95312 163.26562 190.64062Q163.04688 190.3125 162.70312 190.125Q162.375 189.9375 161.92188 189.9375Q161.46875 189.9375 161.125 190.125Q160.79688 190.3125 160.5625 190.64062Q160.34375 190.95312 160.23438 191.375Q160.125 191.79688 160.125 192.26562ZM167.40625 190.51562L167.40625 195.5L166.32812 195.5L166.32812 189.15625L167.35938 189.15625L167.40625 190.51562ZM167.15625 192.09375L166.70312 192.07812Q166.70312 191.42188 166.89062 190.875Q167.07812 190.3125 167.42188 189.90625Q167.76562 189.5 168.23438 189.28125Q168.70312 189.04688 169.28125 189.04688Q169.75 189.04688 170.125 189.17188Q170.5 189.29688 170.76562 189.57812Q171.03125 189.84375 171.17188 190.28125Q171.3125 190.71875 171.3125 191.34375L171.3125 195.5L170.21875 195.5L170.21875 191.32812Q170.21875 190.82812 170.07812 190.53125Q169.9375 190.23438 169.65625 190.09375Q169.375 189.95312 168.95312 189.95312Q168.54688 189.95312 168.21875 190.125Q167.89062 190.29688 167.65625 190.59375Q167.42188 190.89062 167.28125 191.28125Q167.15625 191.65625 167.15625 192.09375ZM177.01562 193.8125Q177.01562 193.57812 176.90625 193.375Q176.8125 193.17188 176.5 193.01562Q176.1875 192.84375 175.5625 192.71875Q175.03125 192.60938 174.60938 192.46875Q174.1875 192.3125 173.89062 192.09375Q173.59375 191.875 173.4375 191.57812Q173.28125 191.28125 173.28125 190.89062Q173.28125 190.51562 173.4375 190.1875Q173.60938 189.84375 173.90625 189.59375Q174.21875 189.32812 174.65625 189.1875Q175.09375 189.04688 175.625 189.04688Q176.39062 189.04688 176.92188 189.3125Q177.46875 189.57812 177.75 190.03125Q178.03125 190.48438 178.03125 191.01562L176.95312 191.01562Q176.95312 190.76562 176.79688 190.51562Q176.64062 190.26562 176.34375 190.10938Q176.04688 189.9375 175.625 189.9375Q175.17188 189.9375 174.89062 190.07812Q174.60938 190.20312 174.48438 190.42188Q174.35938 190.625 174.35938 190.85938Q174.35938 191.04688 174.42188 191.1875Q174.48438 191.3125 174.64062 191.4375Q174.79688 191.54688 175.07812 191.65625Q175.375 191.75 175.82812 191.84375Q176.60938 192.01562 177.10938 192.26562Q177.60938 192.51562 177.85938 192.875Q178.10938 193.21875 178.10938 193.73438Q178.10938 194.15625 177.92188 194.5Q177.75 194.84375 177.42188 195.09375Q177.10938 195.34375 176.65625 195.48438Q176.20312 195.625 175.65625 195.625Q174.8125 195.625 174.23438 195.32812Q173.65625 195.01562 173.35938 194.54688Q173.0625 194.0625 173.0625 193.54688L174.14062 193.54688Q174.17188 193.98438 174.40625 194.25Q174.64062 194.51562 174.96875 194.625Q175.3125 194.71875 175.65625 194.71875Q176.09375 194.71875 176.39062 194.60938Q176.70312 194.48438 176.85938 194.28125Q177.01562 194.07812 177.01562 193.8125ZM181.98438 189.15625L181.98438 189.98438L178.54688 189.98438L178.54688 189.15625L181.98438 189.15625ZM179.71875 187.625L180.79688 187.625L180.79688 193.92188Q180.79688 194.25 180.89062 194.42188Q181.0 194.57812 181.15625 194.64062Q181.3125 194.6875 181.5 194.6875Q181.625 194.6875 181.76562 194.65625Q181.92188 194.625 182.0 194.60938L182.01562 195.5Q181.875 195.54688 181.67188 195.57812Q181.46875 195.625 181.17188 195.625Q180.78125 195.625 180.4375 195.46875Q180.10938 195.29688 179.90625 194.9375Q179.71875 194.5625 179.71875 193.92188L179.71875 187.625ZM184.5 189.15625L184.5 195.5L183.42188 195.5L183.42188 189.15625L184.5 189.15625ZM183.32812 187.48438Q183.32812 187.21875 183.48438 187.03125Q183.65625 186.84375 183.96875 186.84375Q184.28125 186.84375 184.4375 187.03125Q184.60938 187.21875 184.60938 187.48438Q184.60938 187.73438 184.4375 187.92188Q184.28125 188.09375 183.96875 188.09375Q183.65625 188.09375 183.48438 187.92188Q183.32812 187.73438 183.32812 187.48438ZM190.4375 189.15625L191.42188 189.15625L191.42188 195.35938Q191.42188 196.20312 191.07812 196.79688Q190.73438 197.39062 190.125 197.6875Q189.53125 198.0 188.73438 198.0Q188.40625 198.0 187.95312 197.89062Q187.51562 197.79688 187.09375 197.54688Q186.67188 197.3125 186.39062 196.90625L186.95312 196.25Q187.35938 196.73438 187.78125 196.92188Q188.21875 197.10938 188.65625 197.10938Q189.17188 197.10938 189.54688 196.90625Q189.92188 196.71875 190.125 196.34375Q190.32812 195.96875 190.32812 195.42188L190.32812 190.54688L190.4375 189.15625ZM186.0625 192.40625L186.0625 192.28125Q186.0625 191.54688 186.23438 190.95312Q186.42188 190.35938 186.73438 189.9375Q187.0625 189.5 187.51562 189.28125Q187.98438 189.04688 188.57812 189.04688Q189.17188 189.04688 189.60938 189.25Q190.0625 189.45312 190.375 189.85938Q190.6875 190.25 190.875 190.8125Q191.0625 191.35938 191.125 192.0625L191.125 192.60938Q191.0625 193.29688 190.875 193.85938Q190.6875 194.42188 190.375 194.8125Q190.0625 195.20312 189.60938 195.42188Q189.15625 195.625 188.5625 195.625Q187.98438 195.625 187.53125 195.39062Q187.07812 195.14062 186.75 194.70312Q186.42188 194.26562 186.23438 193.6875Q186.0625 193.09375 186.0625 192.40625ZM187.15625 192.28125L187.15625 192.40625Q187.15625 192.875 187.25 193.29688Q187.34375 193.70312 187.54688 194.03125Q187.75 194.34375 188.0625 194.53125Q188.39062 194.70312 188.82812 194.70312Q189.35938 194.70312 189.70312 194.46875Q190.0625 194.23438 190.26562 193.85938Q190.48438 193.48438 190.59375 193.04688L190.59375 191.64062Q190.53125 191.3125 190.39062 191.01562Q190.26562 190.71875 190.0625 190.48438Q189.85938 190.23438 189.54688 190.09375Q189.25 189.95312 188.82812 189.95312Q188.39062 189.95312 188.0625 190.14062Q187.75 190.32812 187.54688 190.65625Q187.34375 190.96875 187.25 191.39062Q187.15625 191.79688 187.15625 192.28125ZM195.95312 195.625Q195.29688 195.625 194.75 195.40625Q194.21875 195.17188 193.82812 194.76562Q193.45312 194.34375 193.25 193.78125Q193.04688 193.21875 193.04688 192.54688L193.04688 192.3125Q193.04688 191.53125 193.26562 190.92188Q193.5 190.3125 193.89062 189.89062Q194.28125 189.46875 194.78125 189.26562Q195.28125 189.04688 195.8125 189.04688Q196.5 189.04688 196.98438 189.28125Q197.48438 189.51562 197.79688 189.9375Q198.125 190.34375 198.26562 190.92188Q198.42188 191.48438 198.42188 192.14062L198.42188 192.64062L193.6875 192.64062L193.6875 191.75L197.34375 191.75L197.34375 191.67188Q197.3125 191.25 197.15625 190.85938Q197.01562 190.45312 196.6875 190.20312Q196.375 189.9375 195.8125 189.9375Q195.45312 189.9375 195.14062 190.09375Q194.82812 190.25 194.59375 190.5625Q194.375 190.85938 194.25 191.29688Q194.14062 191.73438 194.14062 192.3125L194.14062 192.54688Q194.14062 193.0 194.26562 193.40625Q194.39062 193.79688 194.625 194.09375Q194.875 194.39062 195.21875 194.5625Q195.57812 194.73438 196.01562 194.73438Q196.59375 194.73438 196.98438 194.5Q197.39062 194.26562 197.6875 193.875L198.34375 194.39062Q198.14062 194.70312 197.8125 194.98438Q197.5 195.26562 197.03125 195.45312Q196.57812 195.625 195.95312 195.625Z" fill-rule="nonzero"/><path stroke="#cccccc" stroke-width="1.0" stroke-linecap="butt" d="M372.0 305.0L372.0 103.0" fill-rule="nonzero"/><path stroke="#ff0000" stroke-width="2.0" stroke-linecap="butt" stroke-opacity="0.7019608" stroke-dasharray="8.0,6.0,2.0,6.0" d="M372.0 171.0L398.0 290.0L398.0 320.0L372.0 330.0L361.0 311.0L352.0 294.0Z" fill-rule="nonzero"/><path fill="#ff0000" fill-opacity="0.7019608" d="M368.81802 167.81802L372.0 169.875L375.18198 167.81802L373.125 171.0L375.18198 174.18198L372.0 172.125L368.81802 174.18198L370.875 171.0Z" fill-rule="nonzero"/><path fill="#ff0000" fill-opacity="0.7019608" d="M394.81802 286.81802L398.0 288.875L401.18198 286.81802L399.125 290.0L401.18198 293.18198L398.0 291.125L394.81802 293.18198L396.875 290.0Z" fill-rule="nonzero"/><path fill="#ff0000" fill-opacity="0.7019608" d="M394.81802 316.81802L398.0 318.875L401.18198 316.81802L399.125 320.0L401.18198 323.18198L398.0 321.125L394.81802 323.18198L396.875 320.0Z" fill-rule="nonzero"/><path fill="#ff0000" fill-opacity="0.7019608" d="M368.81802 326.81802L372.0 328.875L375.18198 326.81802L373.125 330.0L375.18198 333.18198L372.0 331.125L368.81802 333.18198L370.875 330.0Z" fill-rule="nonzero"/><path fill="#ff0000" fill-opacity="0.7019608" d="M357.81802 307.81802L361.0 309.875L364.18198 307.81802L362.125 311.0L364.18198 314.18198L361.0 312.125L357.81802 314.18198L359.875 311.0Z" fill-rule="nonzero"/><path fill="#ff0000" fill-opacity="0.7019608" d="M348.81802 290.81802L352.0 292.875L355.18198 290.81802L353.125 294.0L355.18198 297.18198L352.0 295.125L348.81802 297.18198L350.875 294.0Z" fill-rule="nonzero"/><path fill="#757575" d="M33.5375 47.35L33.5375 34.725L28.81875 34.725L28.81875 33.0375L40.1625 33.0375L40.1625 34.725L35.428123 34.725L35.428123 47.35L33.5375 47.35ZM41.646873 47.35L41.646873 36.975L43.225 36.975L43.225 38.553123Q43.834373 37.44375 44.35 37.1Q44.865623 36.740623 45.475 36.740623Q46.365623 36.740623 47.2875 37.303123L46.678123 38.94375Q46.0375 38.553123 45.396873 38.553123Q44.81875 38.553123 44.35 38.9125Q43.896873 39.25625 43.69375 39.865623Q43.4125 40.803123 43.4125 41.9125L43.4125 47.35L41.646873 47.35ZM48.021873 42.1625Q48.021873 39.2875 49.615623 37.896873Q50.959373 36.740623 52.88125 36.740623Q55.021873 36.740623 56.365623 38.146873Q57.725 39.553123 57.725 42.021873Q57.725 44.021873 57.13125 45.178123Q56.5375 46.31875 55.38125 46.959373Q54.240623 47.584373 52.88125 47.584373Q50.69375 47.584373 49.35 46.19375Q48.021873 44.7875 48.021873 42.1625ZM49.81875 42.1625Q49.81875 44.1625 50.678123 45.146873Q51.553123 46.13125 52.88125 46.13125Q54.19375 46.13125 55.053123 45.146873Q55.928123 44.146873 55.928123 42.1Q55.928123 40.178123 55.053123 39.19375Q54.178123 38.19375 52.88125 38.19375Q51.553123 38.19375 50.678123 39.19375Q49.81875 40.178123 49.81875 42.1625ZM59.6625 51.31875L59.6625 36.975L61.271873 36.975L61.271873 38.31875Q61.834373 37.5375 62.5375 37.146873Q63.25625 36.740623 64.27187 36.740623Q65.6 36.740623 66.61562 37.428123Q67.63125 38.115623 68.14687 39.365623Q68.67812 40.6 68.67812 42.084373Q68.67812 43.678123 68.1 44.959373Q67.5375 46.225 66.44375 46.9125Q65.35 47.584373 64.14687 47.584373Q63.271873 47.584373 62.56875 47.209373Q61.88125 46.834373 61.428123 46.271873L61.428123 51.31875L59.6625 51.31875ZM61.25625 42.225Q61.25625 44.225 62.06875 45.178123Q62.88125 46.13125 64.0375 46.13125Q65.20937 46.13125 66.0375 45.146873Q66.88125 44.1625 66.88125 42.06875Q66.88125 40.1 66.05312 39.115623Q65.24062 38.115623 64.11562 38.115623Q62.990623 38.115623 62.115623 39.178123Q61.25625 40.225 61.25625 42.225ZM70.67812 35.053123L70.67812 33.0375L72.44375 33.0375L72.44375 35.053123L70.67812 35.053123ZM70.67812 47.35L70.67812 36.975L72.44375 36.975L72.44375 47.35L70.67812 47.35ZM81.44375 43.553123L83.1625 43.771873Q82.88125 45.56875 81.70937 46.584373Q80.55312 47.584373 78.85 47.584373Q76.725 47.584373 75.42812 46.19375Q74.13125 44.803123 74.13125 42.209373Q74.13125 40.521873 74.67812 39.271873Q75.24062 38.00625 76.38125 37.38125Q77.52187 36.740623 78.86562 36.740623Q80.55312 36.740623 81.61562 37.6Q82.69375 38.459373 83.00625 40.021873L81.2875 40.2875Q81.05312 39.240623 80.42812 38.725Q79.80312 38.19375 78.92812 38.19375Q77.6 38.19375 76.77187 39.146873Q75.94375 40.1 75.94375 42.146873Q75.94375 44.240623 76.74062 45.19375Q77.5375 46.13125 78.83437 46.13125Q79.86562 46.13125 80.55312 45.50625Q81.25625 44.865623 81.44375 43.553123ZM91.44375 46.06875Q90.45937 46.896873 89.55312 47.240623Q88.64687 47.584373 87.61562 47.584373Q85.9125 47.584373 84.99062 46.75625Q84.06875 45.9125 84.06875 44.615623Q84.06875 43.85 84.4125 43.225Q84.77187 42.6 85.33437 42.225Q85.89687 41.834373 86.6 41.63125Q87.11562 41.50625 88.1625 41.365623Q90.2875 41.115623 91.2875 40.771873Q91.30312 40.4125 91.30312 40.303123Q91.30312 39.240623 90.80312 38.7875Q90.13125 38.19375 88.80312 38.19375Q87.55312 38.19375 86.95937 38.63125Q86.38125 39.06875 86.1 40.178123L84.38125 39.94375Q84.61562 38.834373 85.14687 38.1625Q85.67812 37.475 86.69375 37.115623Q87.70937 36.740623 89.05312 36.740623Q90.38125 36.740623 91.20937 37.053123Q92.0375 37.365623 92.42812 37.85Q92.81875 38.31875 92.975 39.0375Q93.06875 39.490623 93.06875 40.6625L93.06875 43.00625Q93.06875 45.459373 93.17812 46.115623Q93.2875 46.75625 93.63125 47.35L91.7875 47.35Q91.52187 46.803123 91.44375 46.06875ZM91.2875 42.146873Q90.33437 42.5375 88.4125 42.803123Q87.33437 42.959373 86.88125 43.1625Q86.44375 43.35 86.19375 43.725Q85.94375 44.1 85.94375 44.56875Q85.94375 45.271873 86.475 45.740623Q87.00625 46.209373 88.0375 46.209373Q89.05312 46.209373 89.83437 45.771873Q90.63125 45.31875 91.00625 44.553123Q91.2875 43.94375 91.2875 42.7875L91.2875 42.146873ZM95.6625 47.35L95.6625 36.975L97.25625 36.975L97.25625 38.459373Q98.39687 36.740623 100.55312 36.740623Q101.49062 36.740623 102.27187 37.084373Q103.06875 37.4125 103.45937 37.959373Q103.85 38.50625 104.00625 39.25625Q104.1 39.75625 104.1 40.975L104.1 47.35L102.33437 47.35L102.33437 41.0375Q102.33437 39.959373 102.13125 39.428123Q101.92812 38.896873 101.39687 38.584373Q100.88125 38.271873 100.17812 38.271873Q99.05312 38.271873 98.24062 38.990623Q97.42812 39.69375 97.42812 41.678123L97.42812 47.35L95.6625 47.35ZM112.44375 46.06875Q111.45937 46.896873 110.55312 47.240623Q109.64687 47.584373 108.61562 47.584373Q106.9125 47.584373 105.99062 46.75625Q105.06875 45.9125 105.06875 44.615623Q105.06875 43.85 105.4125 43.225Q105.77187 42.6 106.33437 42.225Q106.89687 41.834373 107.6 41.63125Q108.11562 41.50625 109.1625 41.365623Q111.2875 41.115623 112.2875 40.771873Q112.30312 40.4125 112.30312 40.303123Q112.30312 39.240623 111.80312 38.7875Q111.13125 38.19375 109.80312 38.19375Q108.55312 38.19375 107.95937 38.63125Q107.38125 39.06875 107.1 40.178123L105.38125 39.94375Q105.61562 38.834373 106.14687 38.1625Q106.67812 37.475 107.69375 37.115623Q108.70937 36.740623 110.05312 36.740623Q111.38125 36.740623 112.20937 37.053123Q113.0375 37.365623 113.42812 37.85Q113.81875 38.31875 113.975 39.0375Q114.06875 39.490623 114.06875 40.6625L114.06875 43.00625Q114.06875 45.459373 114.17812 46.115623Q114.2875 46.75625 114.63125 47.35L112.7875 47.35Q112.52187 46.803123 112.44375 46.06875ZM112.2875 42.146873Q111.33437 42.5375 109.4125 42.803123Q108.33437 42.959373 107.88125 43.1625Q107.44375 43.35 107.19375 43.725Q106.94375 44.1 106.94375 44.56875Q106.94375 45.271873 107.475 45.740623Q108.00625 46.209373 109.0375 46.209373Q110.05312 46.209373 110.83437 45.771873Q111.63125 45.31875 112.00625 44.553123Q112.2875 43.94375 112.2875 42.7875L112.2875 42.146873ZM133.11563 42.334373L135.00626 42.803123Q134.4125 45.146873 132.86563 46.38125Q131.31876 47.6 129.06876 47.6Q126.75625 47.6 125.30312 46.6625Q123.86562 45.709373 123.1 43.928123Q122.35 42.13125 122.35 40.084373Q122.35 37.85 123.19375 36.19375Q124.05312 34.521873 125.63125 33.6625Q127.20937 32.7875 129.1 32.7875Q131.25626 32.7875 132.70938 33.88125Q134.17813 34.975 134.75626 36.959373L132.89688 37.396873Q132.39688 35.834373 131.44376 35.13125Q130.50626 34.4125 129.06876 34.4125Q127.4125 34.4125 126.30312 35.209373Q125.19375 35.990623 124.74062 37.334373Q124.30312 38.6625 124.30312 40.06875Q124.30312 41.896873 124.83437 43.271873Q125.36562 44.63125 126.49062 45.303123Q127.61562 45.975 128.9125 45.975Q130.50626 45.975 131.61563 45.053123Q132.725 44.13125 133.11563 42.334373ZM136.02188 42.1625Q136.02188 39.2875 137.61563 37.896873Q138.95938 36.740623 140.88126 36.740623Q143.02188 36.740623 144.36563 38.146873Q145.725 39.553123 145.725 42.021873Q145.725 44.021873 145.13126 45.178123Q144.5375 46.31875 143.38126 46.959373Q142.24063 47.584373 140.88126 47.584373Q138.69376 47.584373 137.35 46.19375Q136.02188 44.7875 136.02188 42.1625ZM137.81876 42.1625Q137.81876 44.1625 138.67813 45.146873Q139.55313 46.13125 140.88126 46.13125Q142.19376 46.13125 143.05313 45.146873Q143.92813 44.146873 143.92813 42.1Q143.92813 40.178123 143.05313 39.19375Q142.17813 38.19375 140.88126 38.19375Q139.55313 38.19375 138.67813 39.19375Q137.81876 40.178123 137.81876 42.1625ZM147.02188 42.1625Q147.02188 39.2875 148.61563 37.896873Q149.95938 36.740623 151.88126 36.740623Q154.02188 36.740623 155.36563 38.146873Q156.725 39.553123 156.725 42.021873Q156.725 44.021873 156.13126 45.178123Q155.5375 46.31875 154.38126 46.959373Q153.24063 47.584373 151.88126 47.584373Q149.69376 47.584373 148.35 46.19375Q147.02188 44.7875 147.02188 42.1625ZM148.81876 42.1625Q148.81876 44.1625 149.67813 45.146873Q150.55313 46.13125 151.88126 46.13125Q153.19376 46.13125 154.05313 45.146873Q154.92813 44.146873 154.92813 42.1Q154.92813 40.178123 154.05313 39.19375Q153.17813 38.19375 151.88126 38.19375Q150.55313 38.19375 149.67813 39.19375Q148.81876 40.178123 148.81876 42.1625ZM158.67813 47.35L158.67813 33.0375L160.44376 33.0375L160.44376 41.19375L164.6 36.975L166.86563 36.975L162.9125 40.81875L167.27188 47.35L165.1 47.35L161.67813 42.053123L160.44376 43.240623L160.44376 47.35L158.67813 47.35ZM168.67813 35.053123L168.67813 33.0375L170.44376 33.0375L170.44376 35.053123L168.67813 35.053123ZM168.67813 47.35L168.67813 36.975L170.44376 36.975L170.44376 47.35L168.67813 47.35ZM179.77188 44.00625L181.58438 44.240623Q181.1625 45.81875 179.99063 46.709373Q178.83438 47.584373 177.02188 47.584373Q174.75626 47.584373 173.4125 46.19375Q172.08438 44.7875 172.08438 42.25625Q172.08438 39.63125 173.42813 38.19375Q174.77188 36.740623 176.92813 36.740623Q179.00626 36.740623 180.31876 38.1625Q181.64688 39.56875 181.64688 42.146873Q181.64688 42.303123 181.63126 42.615623L173.89688 42.615623Q173.99063 44.31875 174.86563 45.225Q175.74063 46.13125 177.0375 46.13125Q178.00626 46.13125 178.67813 45.63125Q179.36563 45.115623 179.77188 44.00625ZM173.99063 41.1625L179.7875 41.1625Q179.67813 39.865623 179.13126 39.209373Q178.2875 38.19375 176.94376 38.19375Q175.74063 38.19375 174.9125 39.00625Q174.08438 39.803123 173.99063 41.1625ZM182.95938 44.25625L184.70938 43.975Q184.85 45.021873 185.52188 45.584373Q186.19376 46.13125 187.39688 46.13125Q188.6 46.13125 189.17813 45.646873Q189.77188 45.146873 189.77188 44.490623Q189.77188 43.896873 189.25626 43.553123Q188.89688 43.31875 187.45938 42.959373Q185.52188 42.459373 184.77188 42.115623Q184.0375 41.75625 183.64688 41.13125Q183.25626 40.490623 183.25626 39.725Q183.25626 39.0375 183.56876 38.44375Q183.89688 37.85 184.44376 37.459373Q184.85 37.1625 185.55313 36.959373Q186.27188 36.740623 187.08438 36.740623Q188.30313 36.740623 189.225 37.1Q190.14688 37.44375 190.58438 38.053123Q191.02188 38.646873 191.19376 39.646873L189.475 39.88125Q189.35 39.084373 188.7875 38.646873Q188.225 38.19375 187.20938 38.19375Q185.99063 38.19375 185.475 38.6Q184.95938 38.990623 184.95938 39.521873Q184.95938 39.865623 185.17813 40.146873Q185.38126 40.428123 185.85 40.615623Q186.11563 40.709373 187.39688 41.053123Q189.27188 41.553123 190.00626 41.88125Q190.74063 42.19375 191.1625 42.803123Q191.58438 43.396873 191.58438 44.303123Q191.58438 45.178123 191.06876 45.959373Q190.55313 46.740623 189.58438 47.1625Q188.61563 47.584373 187.39688 47.584373Q185.38126 47.584373 184.31876 46.740623Q183.25626 45.896873 182.95938 44.25625Z" fill-rule="nonzero"/></svg>