<svg version="1.1" viewBox="0.0 0.0 744.0 567.0" fill="none" stroke="none" stroke-linecap="square" stroke-miterlimit="10" width="744" height="567" xmlns:xlink="http://www.w3.org/1999/xlink" xmlns="http://www.w3.org/2000/svg"><path fill="#ffffff" d="M0 0L744.0 0L744.0 567.0L0 567.0L0 0Z" fill-rule="nonzero"/><path fill="#ffffff" d="M28.35 71.25L715.64996 71.25L715.64996 538.65L28.35 538.65L28.35 71.25Z" fill-rule="nonzero"/><path stroke="#cccccc" stroke-width="1.0" stroke-linecap="butt" d="M372.0 305.0C372.0 305.0 372.0 305.0 372.0 305.0C372.0 305.0 372.0 305.0 372.0 305.0C372.0 305.0 372.0 305.0 372.0 305.0C372.0 305.0 372.0 305.0 372.0 305.0" fill-rule="nonzero"/><path fill="#000000" d="M360.0625 297.04688L360.0625 298.35938Q360.0625 299.40625 359.875 300.125Q359.6875 300.84375 359.32812 301.28125Q358.98438 301.71875 358.48438 301.92188Q358.0 302.125 357.375 302.125Q356.89062 302.125 356.46875 302.0Q356.04688 301.875 355.71875 301.60938Q355.39062 301.32812 355.15625 300.89062Q354.92188 300.45312 354.79688 299.82812Q354.67188 299.1875 354.67188 298.35938L354.67188 297.04688Q354.67188 296.0 354.85938 295.29688Q355.0625 294.59375 355.40625 294.15625Q355.76562 293.71875 356.25 293.53125Q356.75 293.34375 357.35938 293.34375Q357.85938 293.34375 358.28125 293.46875Q358.70312 293.59375 359.03125 293.85938Q359.35938 294.10938 359.57812 294.54688Q359.8125 294.96875 359.9375 295.59375Q360.0625 296.21875 360.0625 297.04688ZM358.96875 298.53125L358.96875 296.875Q358.96875 296.29688 358.90625 295.85938Q358.84375 295.42188 358.70312 295.10938Q358.57812 294.79688 358.375 294.60938Q358.1875 294.42188 357.9375 294.32812Q357.6875 294.23438 357.35938 294.23438Q356.98438 294.23438 356.67188 294.375Q356.375 294.51562 356.17188 294.82812Q355.96875 295.14062 355.85938 295.65625Q355.76562 296.15625 355.76562 296.875L355.76562 298.53125Q355.76562 299.10938 355.82812 299.54688Q355.90625 299.98438 356.03125 300.3125Q356.17188 300.625 356.35938 300.82812Q356.5625 301.03125 356.8125 301.125Q357.0625 301.21875 357.375 301.21875Q357.78125 301.21875 358.07812 301.07812Q358.375 300.92188 358.57812 300.59375Q358.78125 300.26562 358.875 299.76562Q358.96875 299.25 358.96875 298.53125ZM362.8125 300.70312L362.8125 301.57812Q362.8125 302.125 362.53125 302.71875Q362.26562 303.3125 361.78125 303.70312L361.17188 303.28125Q361.35938 303.01562 361.48438 302.75Q361.60938 302.48438 361.67188 302.20312Q361.75 301.92188 361.75 301.59375L361.75 300.70312L362.8125 300.70312ZM369.0625 297.04688L369.0625 298.35938Q369.0625 299.40625 368.875 300.125Q368.6875 300.84375 368.32812 301.28125Q367.98438 301.71875 367.48438 301.92188Q367.0 302.125 366.375 302.125Q365.89062 302.125 365.46875 302.0Q365.04688 301.875 364.71875 301.60938Q364.39062 301.32812 364.15625 300.89062Q363.92188 300.45312 363.79688 299.82812Q363.67188 299.1875 363.67188 298.35938L363.67188 297.04688Q363.67188 296.0 363.85938 295.29688Q364.0625 294.59375 364.40625 294.15625Q364.76562 293.71875 365.25 293.53125Q365.75 293.34375 366.35938 293.34375Q366.85938 293.34375 367.28125 293.46875Q367.70312 293.59375 368.03125 293.85938Q368.35938 294.10938 368.57812 294.54688Q368.8125 294.96875 368.9375 295.59375Q369.0625 296.21875 369.0625 297.04688ZM367.96875 298.53125L367.96875 296.875Q367.96875 296.29688 367.90625 295.85938Q367.84375 295.42188 367.70312 295.10938Q367.57812 294.79688 367.375 294.60938Q367.1875 294.42188 366.9375 294.32812Q366.6875 294.23438 366.35938 294.23438Q365.98438 294.23438 365.67188 294.375Q365.375 294.51562 365.17188 294.82812Q364.96875 295.14062 364.85938 295.65625Q364.76562 296.15625 364.76562 296.875L364.76562 298.53125Q364.76562 299.10938 364.82812 299.54688Q364.90625 299.98438 365.03125 300.3125Q365.17188 300.625 365.35938 300.82812Q365.5625 301.03125 365.8125 301.125Q366.0625 301.21875 366.375 301.21875Q366.78125 301.21875 367.07812 301.07812Q367.375 300.92188 367.57812 300.59375Q367.78125 300.26562 367.875 299.76562Q367.96875 299.25 367.96875 298.53125Z" fill-rule="nonzero"/><path stroke="#cccccc" stroke-width="1.0" stroke-linecap="butt" d="M422.425 305.0C422.425 277.15103 399.84897 254.575 372.0 254.575C344.15103 254.575 321.575 277.15103 321.575 305.0C321.575 332.84897 344.15103 355.425 372.0 355.425C399.84897 355.425 422.425 332.84897 422.425 305.0" fill-rule="nonzero"/><path fill="#000000" d="M360.0625 246.62187L360.0625 247.93437Q360.0625 248.98125 359.875 249.7Q359.6875 250.41875 359.32812 250.85625Q358.98438 251.29375 358.48438 251.49687Q358.0 251.7 357.375 251.7Q356.89062 251.7 356.46875 251.575Q356.04688 251.45 355.71875 251.18437Q355.39062 250.90312 355.15625 250.46562Q354.92188 250.02812 354.79688 249.40312Q354.67188 248.7625 354.67188 247.93437L354.67188 246.62187Q354.67188 245.575 354.85938 244.87187Q355.0625 244.16875 355.40625 243.73125Q355.76562 243.29375 356.25 243.10625Q356.75 242.91875 357.35938 242.91875Q357.85938 242.91875 358.28125 243.04375Q358.70312 243.16875 359.03125 243.43437Q359.35938 243.68437 359.57812 244.12187Q359.8125 244.54375 359.9375 245.16875Q360.0625 245.79375 360.0625 246.62187ZM358.96875 248.10625L358.96875 246.45Q358.96875 245.87187 358.90625 245.43437Q358.84375 244.99687 358.70312 244.68437Q358.57812 244.37187 358.375 244.18437Q358.1875 243.99687 357.9375 243.90312Q357.6875 243.80937 357.35938 243.80937Q356.98438 243.80937 356.67188 243.95Q356.375 244.09062 356.17188 244.40312Q355.96875 244.71562 355.85938 245.23125Q355.76562 245.73125 355.76562 246.45L355.76562 248.10625Q355.76562 248.68437 355.82812 249.12187Q355.90625 249.55937 356.03125 249.8875Q356.17188 250.2 356.35938 250.40312Q356.5625 250.60625 356.8125 250.7Q357.0625 250.79375 357.375 250.79375Q357.78125 250.79375 358.07812 250.65312Q358.375 250.49687 358.57812 250.16875Q358.78125 249.84062 358.875 249.34062Q358.96875 248.825 358.96875 248.10625ZM362.8125 250.27812L362.8125 251.15312Q362.8125 251.7 362.53125 252.29375Q362.26562 252.8875 361.78125 253.27812L361.17188 252.85625Q361.35938 252.59062 361.48438 252.325Q361.60938 252.05937 361.67188 251.77812Q361.75 251.49687 361.75 251.16875L361.75 250.27812L362.8125 250.27812ZM367.26562 242.99687L367.26562 251.575L366.1875 251.575L366.1875 244.35625L364.0 245.15312L364.0 244.16875L367.10938 242.99687L367.26562 242.99687Z" fill-rule="nonzero"/><path stroke="#cccccc" stroke-width="1.0" stroke-linecap="butt" d="M472.85 305.0C472.85 249.30208 427.6979 204.15 372.0 204.15C316.3021 204.15 271.15 249.30208 271.15 305.0C271.15 360.6979 316.3021 405.85 372.0 405.85C427.6979 405.85 472.85 360.6979 472.85 305.0" fill-rule="nonzero"/><path fill="#000000" d="M360.0625 196.19687L360.0625 197.50937Q360.0625 198.55624 359.875 199.275Q359.6875 199.99374 359.32812 200.43124Q358.98438 200.86874 358.48438 201.07187Q358.0 201.275 357.375 201.275Q356.89062 201.275 356.46875 201.15Q356.04688 201.025 355.71875 200.75937Q355.39062 200.47812 355.15625 200.04062Q354.92188 199.60312 354.79688 198.97812Q354.67188 198.3375 354.67188 197.50937L354.67188 196.19687Q354.67188 195.15 354.85938 194.44687Q355.0625 193.74374 355.40625 193.30624Q355.76562 192.86874 356.25 192.68124Q356.75 192.49374 357.35938 192.49374Q357.85938 192.49374 358.28125 192.61874Q358.70312 192.74374 359.03125 193.00937Q359.35938 193.25937 359.57812 193.69687Q359.8125 194.11874 359.9375 194.74374Q360.0625 195.36874 360.0625 196.19687ZM358.96875 197.68124L358.96875 196.025Q358.96875 195.44687 358.90625 195.00937Q358.84375 194.57187 358.70312 194.25937Q358.57812 193.94687 358.375 193.75937Q358.1875 193.57187 357.9375 193.47812Q357.6875 193.38437 357.35938 193.38437Q356.98438 193.38437 356.67188 193.525Q356.375 193.66562 356.17188 193.97812Q355.96875 194.29062 355.85938 194.80624Q355.76562 195.30624 355.76562 196.025L355.76562 197.68124Q355.76562 198.25937 355.82812 198.69687Q355.90625 199.13437 356.03125 199.4625Q356.17188 199.775 356.35938 199.97812Q356.5625 200.18124 356.8125 200.275Q357.0625 200.36874 357.375 200.36874Q357.78125 200.36874 358.07812 200.22812Q358.375 200.07187 358.57812 199.74374Q358.78125 199.41562 358.875 198.91562Q358.96875 198.4 358.96875 197.68124ZM362.8125 199.85312L362.8125 200.72812Q362.8125 201.275 362.53125 201.86874Q362.26562 202.4625 361.78125 202.85312L361.17188 202.43124Q361.35938 202.16562 361.48438 201.9Q361.60938 201.63437 361.67188 201.35312Q361.75 201.07187 361.75 200.74374L361.75 199.85312L362.8125 199.85312ZM369.29688 200.25937L369.29688 201.15L363.71875 201.15L363.71875 200.36874L366.51562 197.25937Q367.03125 196.68124 367.3125 196.29062Q367.59375 195.88437 367.70312 195.57187Q367.82812 195.24374 367.82812 194.91562Q367.82812 194.49374 367.65625 194.15Q367.48438 193.80624 367.14062 193.60312Q366.8125 193.38437 366.32812 193.38437Q365.76562 193.38437 365.39062 193.61874Q365.01562 193.8375 364.82812 194.22812Q364.64062 194.61874 364.64062 195.11874L363.54688 195.11874Q363.54688 194.4 363.85938 193.80624Q364.1875 193.2125 364.79688 192.85312Q365.42188 192.49374 366.32812 192.49374Q367.14062 192.49374 367.71875 192.79062Q368.29688 193.07187 368.59375 193.5875Q368.90625 194.0875 368.90625 194.775Q368.90625 195.15 368.78125 195.54062Q368.65625 195.91562 368.4375 196.30624Q368.21875 196.68124 367.92188 197.05624Q367.64062 197.41562 367.3125 197.775L365.01562 200.25937L369.29688 200.25937Z" fill-rule="nonzero"/><path stroke="#cccccc" stroke-width="1.0" stroke-linecap="butt" d="M523.275 305.0C523.275 221.45312 455.54688 153.725 372.0 153.725C288.45312 153.725 220.725 221.45312 220.725 305.0C220.725 388.54688 288.45312 456.275 372.0 456.275C455.54688 456.275 523.275 388.54688 523.275 305.0" fill-rule="nonzero"/><path fill="#000000" d="M360.0625 145.77188L360.0625 147.08438Q360.0625 148.13126 359.875 148.85Q359.6875 149.56876 359.32812 150.00626Q358.98438 150.44376 358.48438 150.64688Q358.0 150.85 357.375 150.85Q356.89062 150.85 356.46875 150.725Q356.04688 150.6 355.71875 150.33438Q355.39062 150.05313 355.15625 149.61563Q354.92188 149.17813 354.79688 148.55313Q354.67188 147.9125 354.67188 147.08438L354.67188 145.77188Q354.67188 144.725 354.85938 144.02188Q355.0625 143.31876 355.40625 142.88126Q355.76562 142.44376 356.25 142.25626Q356.75 142.06876 357.35938 142.06876Q357.85938 142.06876 358.28125 142.19376Q358.70312 142.31876 359.03125 142.58438Q359.35938 142.83438 359.57812 143.27188Q359.8125 143.69376 359.9375 144.31876Q360.0625 144.94376 360.0625 145.77188ZM358.96875 147.25626L358.96875 145.6Q358.96875 145.02188 358.90625 144.58438Q358.84375 144.14688 358.70312 143.83438Q358.57812 143.52188 358.375 143.33438Q358.1875 143.14688 357.9375 143.05313Q357.6875 142.95938 357.35938 142.95938Q356.98438 142.95938 356.67188 143.1Q356.375 143.24063 356.17188 143.55313Q355.96875 143.86563 355.85938 144.38126Q355.76562 144.88126 355.76562 145.6L355.76562 147.25626Q355.76562 147.83438 355.82812 148.27188Q355.90625 148.70938 356.03125 149.0375Q356.17188 149.35 356.35938 149.55313Q356.5625 149.75626 356.8125 149.85Q357.0625 149.94376 357.375 149.94376Q357.78125 149.94376 358.07812 149.80313Q358.375 149.64688 358.57812 149.31876Q358.78125 148.99063 358.875 148.49063Q358.96875 147.975 358.96875 147.25626ZM362.8125 149.42813L362.8125 150.30313Q362.8125 150.85 362.53125 151.44376Q362.26562 152.0375 361.78125 152.42813L361.17188 152.00626Q361.35938 151.74063 361.48438 151.475Q361.60938 151.20938 361.67188 150.92813Q361.75 150.64688 361.75 150.31876L361.75 149.42813L362.8125 149.42813ZM365.29688 145.92813L366.0625 145.92813Q366.64062 145.92813 367.0 145.74063Q367.375 145.5375 367.5625 145.20938Q367.75 144.88126 367.75 144.45938Q367.75 143.975 367.57812 143.64688Q367.42188 143.30313 367.09375 143.13126Q366.76562 142.95938 366.26562 142.95938Q365.79688 142.95938 365.45312 143.14688Q365.10938 143.31876 364.90625 143.64688Q364.71875 143.975 364.71875 144.42813L363.625 144.42813Q363.625 143.77188 363.95312 143.24063Q364.28125 142.70938 364.875 142.39688Q365.46875 142.06876 366.26562 142.06876Q367.03125 142.06876 367.60938 142.35Q368.1875 142.61563 368.51562 143.1625Q368.84375 143.69376 368.84375 144.49063Q368.84375 144.81876 368.6875 145.17813Q368.53125 145.5375 368.21875 145.86563Q367.90625 146.17813 367.40625 146.38126Q366.92188 146.58438 366.21875 146.58438L365.29688 146.58438L365.29688 145.92813ZM365.29688 146.81876L365.29688 146.1625L366.21875 146.1625Q367.03125 146.1625 367.5625 146.36563Q368.09375 146.55313 368.40625 146.88126Q368.71875 147.19376 368.84375 147.58438Q368.96875 147.95938 368.96875 148.35Q368.96875 148.94376 368.76562 149.4125Q368.5625 149.86563 368.1875 150.19376Q367.82812 150.50626 367.32812 150.67813Q366.84375 150.85 366.26562 150.85Q365.70312 150.85 365.21875 150.69376Q364.73438 150.52188 364.35938 150.225Q363.98438 149.92813 363.76562 149.49063Q363.5625 149.0375 363.5625 148.475L364.64062 148.475Q364.64062 148.9125 364.82812 149.25626Q365.03125 149.58438 365.39062 149.77188Q365.76562 149.94376 366.26562 149.94376Q366.76562 149.94376 367.125 149.77188Q367.48438 149.6 367.67188 149.25626Q367.875 148.89688 367.875 148.36563Q367.875 147.83438 367.65625 147.49063Q367.4375 147.14688 367.01562 146.99063Q366.60938 146.81876 366.0625 146.81876L365.29688 146.81876Z" fill-rule="nonzero"/><path stroke="#cccccc" stroke-width="1.0" stroke-linecap="butt" d="M573.7 305.0C573.7 193.60417 483.39584 103.3 372.0 103.3C260.60416 103.3 170.3 193.60417 170.3 305.0C170.3 416.39584 260.60416 506.7 372.0 506.7C483.39584 506.7 573.7 416.39584 573.7 305.0" fill-rule="nonzero"/><path fill="#000000" d="M360.0625 95.34688L360.0625 96.65938Q360.0625 97.70625 359.875 98.425Q359.6875 99.14375 359.32812 99.58125Q358.98438 100.01875 358.48438 100.22188Q358.0 100.425 357.375 100.425Q356.89062 100.425 356.46875 100.3Q356.04688 100.175 355.71875 99.90938Q355.39062 99.62813 355.15625 99.19063Q354.92188 98.75313 354.79688 98.12813Q354.67188 97.4875 354.67188 96.65938L354.67188 95.34688Q354.67188 94.3 354.85938 93.59688Q355.0625 92.89375 355.40625 92.45625Q355.76562 92.01875 356.25 91.83125Q356.75 91.64375 357.35938 91.64375Q357.85938 91.64375 358.28125 91.76875Q358.70312 91.89375 359.03125 92.15938Q359.35938 92.40938 359.57812 92.84688Q359.8125 93.26875 359.9375 93.89375Q360.0625 94.51875 360.0625 95.34688ZM358.96875 96.83125L358.96875 95.175Q358.96875 94.59688 358.90625 94.15938Q358.84375 93.72188 358.70312 93.40938Q358.57812 93.09688 358.375 92.90938Q358.1875 92.72188 357.9375 92.62813Q357.6875 92.53438 357.35938 92.53438Q356.98438 92.53438 356.67188 92.675Q356.375 92.81563 356.17188 93.12813Q355.96875 93.44063 355.85938 93.95625Q355.76562 94.45625 355.76562 95.175L355.76562 96.83125Q355.76562 97.40938 355.82812 97.84688Q355.90625 98.28438 356.03125 98.6125Q356.17188 98.925 356.35938 99.12813Q356.5625 99.33125 356.8125 99.425Q357.0625 99.51875 357.375 99.51875Q357.78125 99.51875 358.07812 99.37813Q358.375 99.22188 358.57812 98.89375Q358.78125 98.56563 358.875 98.06563Q358.96875 97.55 358.96875 96.83125ZM362.8125 99.00313L362.8125 99.87813Q362.8125 100.425 362.53125 101.01875Q362.26562 101.6125 361.78125 102.00313L361.17188 101.58125Q361.35938 101.31563 361.48438 101.05Q361.60938 100.78438 361.67188 100.50313Q361.75 100.22188 361.75 99.89375L361.75 99.00313L362.8125 99.00313ZM369.46875 97.425L369.46875 98.31563L363.3125 98.31563L363.3125 97.675L367.125 91.76875L368.01562 91.76875L367.0625 93.47188L364.54688 97.425L369.46875 97.425ZM368.28125 91.76875L368.28125 100.3L367.20312 100.3L367.20312 91.76875L368.28125 91.76875Z" fill-rule="nonzero"/><path stroke="#cccccc" stroke-width="1.0" stroke-linecap="butt" d="M372.0 305.0L372.0 103.0" fill-rule="nonzero"/><path fill="#000000" d="M349.125 68.96875L349.125 77.5L347.98438 77.5L347.98438 68.96875L349.125 68.96875ZM352.70312 72.8125L352.70312 73.734375L348.875 73.734375L348.875 72.8125L352.70312 72.8125ZM353.28125 68.96875L353.28125 69.890625L348.875 69.890625L348.875 68.96875L353.28125 68.96875ZM358.5625 76.421875L358.5625 73.15625Q358.5625 72.78125 358.40625 72.5Q358.26562 72.21875 357.96875 72.078125Q357.67188 71.921875 357.23438 71.921875Q356.8125 71.921875 356.5 72.0625Q356.20312 72.203125 356.03125 72.4375Q355.85938 72.65625 355.85938 72.921875L354.78125 72.921875Q354.78125 72.578125 354.95312 72.25Q355.125 71.90625 355.45312 71.640625Q355.78125 71.359375 356.25 71.203125Q356.71875 71.046875 357.29688 71.046875Q357.98438 71.046875 358.51562 71.28125Q359.04688 71.515625 359.34375 71.984375Q359.65625 72.453125 359.65625 73.15625L359.65625 76.109375Q359.65625 76.4375 359.70312 76.796875Q359.76562 77.140625 359.875 77.40625L359.875 77.5L358.73438 77.5Q358.65625 77.3125 358.60938 77.0Q358.5625 76.6875 358.5625 76.421875ZM358.75 73.65625L358.76562 74.421875L357.67188 74.421875Q357.20312 74.421875 356.84375 74.5Q356.48438 74.5625 356.23438 74.71875Q355.98438 74.859375 355.85938 75.078125Q355.73438 75.296875 355.73438 75.59375Q355.73438 75.890625 355.85938 76.140625Q356.0 76.375 356.26562 76.53125Q356.54688 76.671875 356.9375 76.671875Q357.4375 76.671875 357.8125 76.46875Q358.20312 76.25 358.42188 75.953125Q358.65625 75.640625 358.67188 75.34375L359.14062 75.875Q359.09375 76.109375 358.90625 76.421875Q358.73438 76.71875 358.42188 77.0Q358.125 77.265625 357.70312 77.453125Q357.29688 77.625 356.78125 77.625Q356.14062 77.625 355.65625 77.375Q355.17188 77.109375 354.90625 76.6875Q354.64062 76.265625 354.64062 75.734375Q354.64062 75.21875 354.82812 74.84375Q355.03125 74.453125 355.40625 74.1875Q355.78125 73.921875 356.3125 73.796875Q356.84375 73.65625 357.5 73.65625L358.75 73.65625ZM362.90625 72.15625L362.90625 77.5L361.82812 77.5L361.82812 71.15625L362.875 71.15625L362.90625 72.15625ZM364.89062 71.125L364.89062 72.125Q364.75 72.109375 364.625 72.09375Q364.51562 72.078125 364.35938 72.078125Q363.98438 72.078125 363.6875 72.203125Q363.40625 72.3125 363.20312 72.53125Q363.01562 72.734375 362.89062 73.03125Q362.78125 73.328125 362.75 73.671875L362.4375 73.84375Q362.4375 73.265625 362.54688 72.765625Q362.67188 72.265625 362.90625 71.875Q363.15625 71.484375 363.51562 71.265625Q363.89062 71.046875 364.40625 71.046875Q364.53125 71.046875 364.67188 71.078125Q364.82812 71.09375 364.89062 71.125ZM366.90625 72.515625L366.90625 77.5L365.82812 77.5L365.82812 71.15625L366.85938 71.15625L366.90625 72.515625ZM366.65625 74.09375L366.20312 74.078125Q366.20312 73.421875 366.39062 72.875Q366.57812 72.3125 366.92188 71.90625Q367.26562 71.5 367.73438 71.28125Q368.20312 71.046875 368.78125 71.046875Q369.25 71.046875 369.625 71.171875Q370.0 71.296875 370.26562 71.578125Q370.53125 71.84375 370.67188 72.28125Q370.8125 72.71875 370.8125 73.34375L370.8125 77.5L369.71875 77.5L369.71875 73.328125Q369.71875 72.828125 369.57812 72.53125Q369.4375 72.234375 369.15625 72.09375Q368.875 71.953125 368.45312 71.953125Q368.04688 71.953125 367.71875 72.125Q367.39062 72.296875 367.15625 72.59375Q366.92188 72.890625 366.78125 73.28125Q366.65625 73.65625 366.65625 74.09375ZM375.45312 77.625Q374.79688 77.625 374.25 77.40625Q373.71875 77.171875 373.32812 76.765625Q372.95312 76.34375 372.75 75.78125Q372.54688 75.21875 372.54688 74.546875L372.54688 74.3125Q372.54688 73.53125 372.76562 72.921875Q373.0 72.3125 373.39062 71.890625Q373.78125 71.46875 374.28125 71.265625Q374.78125 71.046875 375.3125 71.046875Q376.0 71.046875 376.48438 71.28125Q376.98438 71.515625 377.29688 71.9375Q377.625 72.34375 377.76562 72.921875Q377.92188 73.484375 377.92188 74.140625L377.92188 74.640625L373.1875 74.640625L373.1875 73.75L376.84375 73.75L376.84375 73.671875Q376.8125 73.25 376.65625 72.859375Q376.51562 72.453125 376.1875 72.203125Q375.875 71.9375 375.3125 71.9375Q374.95312 71.9375 374.64062 72.09375Q374.32812 72.25 374.09375 72.5625Q373.875 72.859375 373.75 73.296875Q373.64062 73.734375 373.64062 74.3125L373.64062 74.546875Q373.64062 75.0 373.76562 75.40625Q373.89062 75.796875 374.125 76.09375Q374.375 76.390625 374.71875 76.5625Q375.07812 76.734375 375.51562 76.734375Q376.09375 76.734375 376.48438 76.5Q376.89062 76.265625 377.1875 75.875L377.84375 76.390625Q377.64062 76.703125 377.3125 76.984375Q377.0 77.265625 376.53125 77.453125Q376.07812 77.625 375.45312 77.625ZM382.51562 75.8125Q382.51562 75.578125 382.40625 75.375Q382.3125 75.171875 382.0 75.015625Q381.6875 74.84375 381.0625 74.71875Q380.53125 74.609375 380.10938 74.46875Q379.6875 74.3125 379.39062 74.09375Q379.09375 73.875 378.9375 73.578125Q378.78125 73.28125 378.78125 72.890625Q378.78125 72.515625 378.9375 72.1875Q379.10938 71.84375 379.40625 71.59375Q379.71875 71.328125 380.15625 71.1875Q380.59375 71.046875 381.125 71.046875Q381.89062 71.046875 382.42188 71.3125Q382.96875 71.578125 383.25 72.03125Q383.53125 72.484375 383.53125 73.015625L382.45312 73.015625Q382.45312 72.765625 382.29688 72.515625Q382.14062 72.265625 381.84375 72.109375Q381.54688 71.9375 381.125 71.9375Q380.67188 71.9375 380.39062 72.078125Q380.10938 72.203125 379.98438 72.421875Q379.85938 72.625 379.85938 72.859375Q379.85938 73.046875 379.92188 73.1875Q379.98438 73.3125 380.14062 73.4375Q380.29688 73.546875 380.57812 73.65625Q380.875 73.75 381.32812 73.84375Q382.10938 74.015625 382.60938 74.265625Q383.10938 74.515625 383.35938 74.875Q383.60938 75.21875 383.60938 75.734375Q383.60938 76.15625 383.42188 76.5Q383.25 76.84375 382.92188 77.09375Q382.60938 77.34375 382.15625 77.484375Q381.70312 77.625 381.15625 77.625Q380.3125 77.625 379.73438 77.328125Q379.15625 77.015625 378.85938 76.546875Q378.5625 76.0625 378.5625 75.546875L379.64062 75.546875Q379.67188 75.984375 379.90625 76.25Q380.14062 76.515625 380.46875 76.625Q380.8125 76.71875 381.15625 76.71875Q381.59375 76.71875 381.89062 76.609375Q382.20312 76.484375 382.35938 76.28125Q382.51562 76.078125 382.51562 75.8125ZM387.45312 77.625Q386.79688 77.625 386.25 77.40625Q385.71875 77.171875 385.32812 76.765625Q384.95312 76.34375 384.75 75.78125Q384.54688 75.21875 384.54688 74.546875L384.54688 74.3125Q384.54688 73.53125 384.76562 72.921875Q385.0 72.3125 385.39062 71.890625Q385.78125 71.46875 386.28125 71.265625Q386.78125 71.046875 387.3125 71.046875Q388.0 71.046875 388.48438 71.28125Q388.98438 71.515625 389.29688 71.9375Q389.625 72.34375 389.76562 72.921875Q389.92188 73.484375 389.92188 74.140625L389.92188 74.640625L385.1875 74.640625L385.1875 73.75L388.84375 73.75L388.84375 73.671875Q388.8125 73.25 388.65625 72.859375Q388.51562 72.453125 388.1875 72.203125Q387.875 71.9375 387.3125 71.9375Q386.95312 71.9375 386.64062 72.09375Q386.32812 72.25 386.09375 72.5625Q385.875 72.859375 385.75 73.296875Q385.64062 73.734375 385.64062 74.3125L385.64062 74.546875Q385.64062 75.0 385.76562 75.40625Q385.89062 75.796875 386.125 76.09375Q386.375 76.390625 386.71875 76.5625Q387.07812 76.734375 387.51562 76.734375Q388.09375 76.734375 388.48438 76.5Q388.89062 76.265625 389.1875 75.875L389.84375 76.390625Q389.64062 76.703125 389.3125 76.984375Q389.0 77.265625 388.53125 77.453125Q388.07812 77.625 387.45312 77.625ZM391.90625 72.515625L391.90625 77.5L390.82812 77.5L390.82812 71.15625L391.85938 71.15625L391.90625 72.515625ZM391.65625 74.09375L391.20312 74.078125Q391.20312 73.421875 391.39062 72.875Q391.57812 72.3125 391.92188 71.90625Q392.26562 71.5 392.73438 71.28125Q393.20312 71.046875 393.78125 71.046875Q394.25 71.046875 394.625 71.171875Q395.0 71.296875 395.26562 71.578125Q395.53125 71.84375 395.67188 72.28125Q395.8125 72.71875 395.8125 73.34375L395.8125 77.5L394.71875 77.5L394.71875 73.328125Q394.71875 72.828125 394.57812 72.53125Q394.4375 72.234375 394.15625 72.09375Q393.875 71.953125 393.45312 71.953125Q393.04688 71.953125 392.71875 72.125Q392.39062 72.296875 392.15625 72.59375Q391.92188 72.890625 391.78125 73.28125Q391.65625 73.65625 391.65625 74.09375Z" fill-rule="nonzero"/><path stroke="#cccccc" stroke-width="1.0" stroke-linecap="butt" d="M372.0 305.0L547.0 204.0" fill-rule="nonzero"/><path fill="#000000" d="M543.6406 190.78125L544.7656 190.78125Q544.6719 191.59375 544.2969 192.23438Q543.9219 192.875 543.2344 193.25Q542.5625 193.625 541.53125 193.625Q540.78125 193.625 540.1719 193.34375Q539.5625 193.04688 539.1094 192.53125Q538.6719 192.01562 538.4375 191.29688Q538.2031 190.5625 538.2031 189.65625L538.2031 188.8125Q538.2031 187.92188 538.4375 187.1875Q538.6719 186.45312 539.125 185.9375Q539.5781 185.40625 540.2031 185.125Q540.84375 184.84375 541.625 184.84375Q542.59375 184.84375 543.2656 185.21875Q543.9375 185.57812 544.2969 186.21875Q544.6719 186.85938 544.7656 187.70312L543.6406 187.70312Q543.5625 187.10938 543.3281 186.6875Q543.1094 186.25 542.7031 186.01562Q542.2969 185.78125 541.625 185.78125Q541.0625 185.78125 540.625 186.0Q540.2031 186.20312 539.90625 186.60938Q539.625 187.0 539.46875 187.5625Q539.3281 188.125 539.3281 188.79688L539.3281 189.65625Q539.3281 190.28125 539.4531 190.84375Q539.59375 191.39062 539.8594 191.8125Q540.125 192.21875 540.5469 192.46875Q540.96875 192.70312 541.53125 192.70312Q542.25 192.70312 542.6719 192.46875Q543.1094 192.23438 543.3281 191.8125Q543.5469 191.39062 543.6406 190.78125ZM550.0625 192.42188L550.0625 189.15625Q550.0625 188.78125 549.90625 188.5Q549.7656 188.21875 549.46875 188.07812Q549.1719 187.92188 548.7344 187.92188Q548.3125 187.92188 548.0 188.0625Q547.7031 188.20312 547.53125 188.4375Q547.3594 188.65625 547.3594 188.92188L546.28125 188.92188Q546.28125 188.57812 546.4531 188.25Q546.625 187.90625 546.9531 187.64062Q547.28125 187.35938 547.75 187.20312Q548.21875 187.04688 548.7969 187.04688Q549.4844 187.04688 550.0156 187.28125Q550.5469 187.51562 550.84375 187.98438Q551.15625 188.45312 551.15625 189.15625L551.15625 192.10938Q551.15625 192.4375 551.2031 192.79688Q551.2656 193.14062 551.375 193.40625L551.375 193.5L550.2344 193.5Q550.15625 193.3125 550.1094 193.0Q550.0625 192.6875 550.0625 192.42188ZM550.25 189.65625L550.2656 190.42188L549.1719 190.42188Q548.7031 190.42188 548.34375 190.5Q547.9844 190.5625 547.7344 190.71875Q547.4844 190.85938 547.3594 191.07812Q547.2344 191.29688 547.2344 191.59375Q547.2344 191.89062 547.3594 192.14062Q547.5 192.375 547.7656 192.53125Q548.0469 192.67188 548.4375 192.67188Q548.9375 192.67188 549.3125 192.46875Q549.7031 192.25 549.9219 191.95312Q550.15625 191.64062 550.1719 191.34375L550.6406 191.875Q550.59375 192.10938 550.40625 192.42188Q550.2344 192.71875 549.9219 193.0Q549.625 193.26562 549.2031 193.45312Q548.7969 193.625 548.28125 193.625Q547.6406 193.625 547.15625 193.375Q546.6719 193.10938 546.40625 192.6875Q546.1406 192.26562 546.1406 191.73438Q546.1406 191.21875 546.3281 190.84375Q546.53125 190.45312 546.90625 190.1875Q547.28125 189.92188 547.8125 189.79688Q548.34375 189.65625 549.0 189.65625L550.25 189.65625ZM554.40625 188.15625L554.40625 193.5L553.3281 193.5L553.3281 187.15625L554.375 187.15625L554.40625 188.15625ZM556.3906 187.125L556.3906 188.125Q556.25 188.10938 556.125 188.09375Q556.0156 188.07812 555.8594 188.07812Q555.4844 188.07812 555.1875 188.20312Q554.90625 188.3125 554.7031 188.53125Q554.5156 188.73438 554.3906 189.03125Q554.28125 189.32812 554.25 189.67188L553.9375 189.84375Q553.9375 189.26562 554.0469 188.76562Q554.1719 188.26562 554.40625 187.875Q554.65625 187.48438 555.0156 187.26562Q555.3906 187.04688 555.90625 187.04688Q556.03125 187.04688 556.1719 187.07812Q556.3281 187.09375 556.3906 187.125ZM559.1094 192.84375L560.875 187.15625L562.03125 187.15625L559.4844 194.48438Q559.40625 194.71875 559.25 194.98438Q559.1094 195.26562 558.8906 195.5Q558.6719 195.75 558.3594 195.90625Q558.0469 196.0625 557.6094 196.0625Q557.4844 196.0625 557.28125 196.01562Q557.0781 195.98438 557.0 195.96875L557.0 195.09375Q557.0469 195.09375 557.1406 195.09375Q557.25 195.10938 557.28125 195.10938Q557.65625 195.10938 557.90625 195.01562Q558.1719 194.92188 558.34375 194.6875Q558.53125 194.46875 558.65625 194.07812L559.1094 192.84375ZM557.8125 187.15625L559.4531 192.07812L559.7344 193.21875L558.96875 193.625L556.625 187.15625L557.8125 187.15625ZM563.0469 190.40625L563.0469 190.26562Q563.0469 189.57812 563.2344 189.0Q563.4375 188.40625 563.8125 187.96875Q564.1875 187.53125 564.71875 187.29688Q565.25 187.04688 565.9219 187.04688Q566.5781 187.04688 567.1094 187.29688Q567.65625 187.53125 568.03125 187.96875Q568.40625 188.40625 568.6094 189.0Q568.8125 189.57812 568.8125 190.26562L568.8125 190.40625Q568.8125 191.07812 568.6094 191.67188Q568.40625 192.25 568.03125 192.6875Q567.65625 193.125 567.125 193.375Q566.59375 193.625 565.9219 193.625Q565.2656 193.625 564.71875 193.375Q564.1875 193.125 563.8125 192.6875Q563.4375 192.25 563.2344 191.67188Q563.0469 191.07812 563.0469 190.40625ZM564.125 190.26562L564.125 190.40625Q564.125 190.875 564.2344 191.29688Q564.34375 191.71875 564.5625 192.04688Q564.7969 192.35938 565.1406 192.54688Q565.4844 192.71875 565.9219 192.71875Q566.375 192.71875 566.7031 192.54688Q567.0469 192.35938 567.2656 192.04688Q567.5 191.71875 567.6094 191.29688Q567.71875 190.875 567.71875 190.40625L567.71875 190.26562Q567.71875 189.79688 567.6094 189.375Q567.5 188.95312 567.2656 188.64062Q567.0469 188.3125 566.7031 188.125Q566.375 187.9375 565.9219 187.9375Q565.46875 187.9375 565.125 188.125Q564.7969 188.3125 564.5625 188.64062Q564.34375 188.95312 564.2344 189.375Q564.125 189.79688 564.125 190.26562ZM571.40625 188.375L571.40625 195.9375L570.3281 195.9375L570.3281 187.15625L571.3125 187.15625L571.40625 188.375ZM575.6875 190.28125L575.6875 190.40625Q575.6875 191.09375 575.5156 191.6875Q575.3594 192.26562 575.0469 192.70312Q574.7344 193.14062 574.2656 193.39062Q573.8125 193.625 573.21875 193.625Q572.625 193.625 572.15625 193.42188Q571.6875 193.21875 571.3594 192.84375Q571.0469 192.45312 570.8594 191.92188Q570.6719 191.39062 570.59375 190.71875L570.59375 190.0625Q570.6719 189.35938 570.8594 188.8125Q571.0469 188.25 571.3594 187.85938Q571.6875 187.45312 572.1406 187.25Q572.6094 187.04688 573.2031 187.04688Q573.7969 187.04688 574.2656 187.28125Q574.7344 187.5 575.0469 187.9375Q575.3594 188.35938 575.5156 188.95312Q575.6875 189.54688 575.6875 190.28125ZM574.59375 190.40625L574.59375 190.28125Q574.59375 189.79688 574.4844 189.39062Q574.3906 188.96875 574.1875 188.65625Q573.9844 188.32812 573.65625 188.14062Q573.3281 187.95312 572.8906 187.95312Q572.4844 187.95312 572.1719 188.09375Q571.875 188.23438 571.65625 188.48438Q571.4531 188.71875 571.3125 189.01562Q571.1875 189.3125 571.125 189.64062L571.125 191.15625Q571.2344 191.5625 571.4375 191.92188Q571.65625 192.28125 572.0 192.5Q572.3594 192.71875 572.90625 192.71875Q573.34375 192.71875 573.65625 192.54688Q573.9844 192.35938 574.1875 192.04688Q574.3906 191.71875 574.4844 191.29688Q574.59375 190.875 574.59375 190.40625ZM578.40625 184.5L578.40625 193.5L577.3281 193.5L577.3281 184.5L578.40625 184.5ZM578.15625 190.09375L577.7031 190.07812Q577.7031 189.42188 577.8906 188.875Q578.0781 188.3125 578.4219 187.90625Q578.7656 187.5 579.2344 187.28125Q579.7031 187.04688 580.28125 187.04688Q580.75 187.04688 581.125 187.17188Q581.5 187.29688 581.7656 187.57812Q582.03125 187.84375 582.1719 188.28125Q582.3125 188.71875 582.3125 189.34375L582.3125 193.5L581.21875 193.5L581.21875 189.32812Q581.21875 188.82812 581.0781 188.53125Q580.9375 188.23438 580.65625 188.09375Q580.375 187.95312 579.9531 187.95312Q579.5469 187.95312 579.21875 188.125Q578.8906 188.29688 578.65625 188.59375Q578.4219 188.89062 578.28125 189.28125Q578.15625 189.65625 578.15625 190.09375ZM586.1094 192.84375L587.875 187.15625L589.03125 187.15625L586.4844 194.48438Q586.40625 194.71875 586.25 194.98438Q586.1094 195.26562 585.8906 195.5Q585.6719 195.75 585.3594 195.90625Q585.0469 196.0625 584.6094 196.0625Q584.4844 196.0625 584.28125 196.01562Q584.0781 195.98438 584.0 195.96875L584.0 195.09375Q584.0469 195.09375 584.1406 195.09375Q584.25 195.10938 584.28125 195.10938Q584.65625 195.10938 584.90625 195.01562Q585.1719 194.92188 585.34375 194.6875Q585.53125 194.46875 585.65625 194.07812L586.1094 192.84375ZM584.8125 187.15625L586.4531 192.07812L586.7344 193.21875L585.96875 193.625L583.625 187.15625L584.8125 187.15625ZM591.5 184.5L591.5 193.5L590.4219 193.5L590.4219 184.5L591.5 184.5ZM594.5 184.5L594.5 193.5L593.4219 193.5L593.4219 184.5L594.5 184.5ZM598.9531 193.625Q598.2969 193.625 597.75 193.40625Q597.21875 193.17188 596.8281 192.76562Q596.4531 192.34375 596.25 191.78125Q596.0469 191.21875 596.0469 190.54688L596.0469 190.3125Q596.0469 189.53125 596.2656 188.92188Q596.5 188.3125 596.8906 187.89062Q597.28125 187.46875 597.78125 187.26562Q598.28125 187.04688 598.8125 187.04688Q599.5 187.04688 599.9844 187.28125Q600.4844 187.51562 600.7969 187.9375Q601.125 188.34375 601.2656 188.92188Q601.4219 189.48438 601.4219 190.14062L601.4219 190.64062L596.6875 190.64062L596.6875 189.75L600.34375 189.75L600.34375 189.67188Q600.3125 189.25 600.15625 188.85938Q600.0156 188.45312 599.6875 188.20312Q599.375 187.9375 598.8125 187.9375Q598.4531 187.9375 598.1406 188.09375Q597.8281 188.25 597.59375 188.5625Q597.375 188.85938 597.25 189.29688Q597.1406 189.73438 597.1406 190.3125L597.1406 190.54688Q597.1406 191.0 597.2656 191.40625Q597.3906 191.79688 597.625 192.09375Q597.875 192.39062 598.21875 192.5625Q598.5781 192.73438 599.0156 192.73438Q599.59375 192.73438 599.9844 192.5Q600.3906 192.26562 600.6875 191.875L601.34375 192.39062Q601.1406 192.70312 600.8125 192.98438Q600.5 193.26562 600.03125 193.45312Q599.5781 193.625 598.9531 193.625ZM603.40625 188.51562L603.40625 193.5L602.3281 193.5L602.3281 187.15625L603.3594 187.15625L603.40625 188.51562ZM603.15625 190.09375L602.7031 190.07812Q602.7031 189.42188 602.8906 188.875Q603.0781 188.3125 603.4219 187.90625Q603.7656 187.5 604.2344 187.28125Q604.7031 187.04688 605.28125 187.04688Q605.75 187.04688 606.125 187.17188Q606.5 187.29688 606.7656 187.57812Q607.03125 187.84375 607.1719 188.28125Q607.3125 188.71875 607.3125 189.34375L607.3125 193.5L606.21875 193.5L606.21875 189.32812Q606.21875 188.82812 606.0781 188.53125Q605.9375 188.23438 605.65625 188.09375Q605.375 187.95312 604.9531 187.95312Q604.5469 187.95312 604.21875 188.125Q603.8906 188.29688 603.65625 188.59375Q603.4219 188.89062 603.28125 189.28125Q603.15625 189.65625 603.15625 190.09375Z" fill-rule="nonzero"/><path stroke="#cccccc" stroke-width="1.0" stroke-linecap="butt" d="M372.0 305.0L547.0 406.0" fill-rule="nonzero"/><path fill="#000000" d="M554.84375 416.96875L555.9375 416.96875L558.7344 423.92188L561.53125 416.96875L562.625 416.96875L559.15625 425.5L558.3125 425.5L554.84375 416.96875ZM554.4844 416.96875L555.4531 416.96875L555.6094 422.17188L555.6094 425.5L554.4844 425.5L554.4844 416.96875ZM562.0156 416.96875L562.9844 416.96875L562.9844 425.5L561.8594 425.5L561.8594 422.17188L562.0156 416.96875ZM566.1094 424.84375L567.875 419.15625L569.03125 419.15625L566.4844 426.48438Q566.40625 426.71875 566.25 426.98438Q566.1094 427.26562 565.8906 427.5Q565.6719 427.75 565.3594 427.90625Q565.0469 428.0625 564.6094 428.0625Q564.4844 428.0625 564.28125 428.01562Q564.0781 427.98438 564.0 427.96875L564.0 427.09375Q564.0469 427.09375 564.1406 427.09375Q564.25 427.10938 564.28125 427.10938Q564.65625 427.10938 564.90625 427.01562Q565.1719 426.92188 565.34375 426.6875Q565.53125 426.46875 565.65625 426.07812L566.1094 424.84375ZM564.8125 419.15625L566.4531 424.07812L566.7344 425.21875L565.96875 425.625L563.625 419.15625L564.8125 419.15625ZM571.40625 420.15625L571.40625 425.5L570.3281 425.5L570.3281 419.15625L571.375 419.15625L571.40625 420.15625ZM573.3906 419.125L573.3906 420.125Q573.25 420.10938 573.125 420.09375Q573.0156 420.07812 572.8594 420.07812Q572.4844 420.07812 572.1875 420.20312Q571.90625 420.3125 571.7031 420.53125Q571.5156 420.73438 571.3906 421.03125Q571.28125 421.32812 571.25 421.67188L570.9375 421.84375Q570.9375 421.26562 571.0469 420.76562Q571.1719 420.26562 571.40625 419.875Q571.65625 419.48438 572.0156 419.26562Q572.3906 419.04688 572.90625 419.04688Q573.03125 419.04688 573.1719 419.07812Q573.3281 419.09375 573.3906 419.125ZM576.8594 424.71875Q577.25 424.71875 577.5781 424.5625Q577.90625 424.40625 578.1094 424.14062Q578.3281 423.85938 578.3594 423.5L579.3906 423.5Q579.3594 424.0625 579.0 424.54688Q578.65625 425.03125 578.09375 425.32812Q577.53125 425.625 576.8594 425.625Q576.15625 425.625 575.625 425.375Q575.09375 425.10938 574.7344 424.67188Q574.3906 424.23438 574.21875 423.67188Q574.0469 423.09375 574.0469 422.45312L574.0469 422.20312Q574.0469 421.5625 574.21875 421.0Q574.3906 420.42188 574.7344 419.98438Q575.09375 419.54688 575.625 419.29688Q576.15625 419.04688 576.8594 419.04688Q577.6094 419.04688 578.15625 419.34375Q578.71875 419.64062 579.03125 420.17188Q579.3594 420.6875 579.3906 421.34375L578.3594 421.34375Q578.3281 420.95312 578.1406 420.64062Q577.9531 420.3125 577.625 420.125Q577.2969 419.9375 576.8594 419.9375Q576.3594 419.9375 576.0156 420.14062Q575.6875 420.32812 575.4844 420.65625Q575.2969 420.98438 575.2031 421.39062Q575.125 421.79688 575.125 422.20312L575.125 422.45312Q575.125 422.875 575.2031 423.28125Q575.2969 423.67188 575.4844 424.0Q575.6875 424.32812 576.0156 424.53125Q576.3594 424.71875 576.8594 424.71875ZM582.9531 425.625Q582.2969 425.625 581.75 425.40625Q581.21875 425.17188 580.8281 424.76562Q580.4531 424.34375 580.25 423.78125Q580.0469 423.21875 580.0469 422.54688L580.0469 422.3125Q580.0469 421.53125 580.2656 420.92188Q580.5 420.3125 580.8906 419.89062Q581.28125 419.46875 581.78125 419.26562Q582.28125 419.04688 582.8125 419.04688Q583.5 419.04688 583.9844 419.28125Q584.4844 419.51562 584.7969 419.9375Q585.125 420.34375 585.2656 420.92188Q585.4219 421.48438 585.4219 422.14062L585.4219 422.64062L580.6875 422.64062L580.6875 421.75L584.34375 421.75L584.34375 421.67188Q584.3125 421.25 584.15625 420.85938Q584.0156 420.45312 583.6875 420.20312Q583.375 419.9375 582.8125 419.9375Q582.4531 419.9375 582.1406 420.09375Q581.8281 420.25 581.59375 420.5625Q581.375 420.85938 581.25 421.29688Q581.1406 421.73438 581.1406 422.3125L581.1406 422.54688Q581.1406 423.0 581.2656 423.40625Q581.3906 423.79688 581.625 424.09375Q581.875 424.39062 582.21875 424.5625Q582.5781 424.73438 583.0156 424.73438Q583.59375 424.73438 583.9844 424.5Q584.3906 424.26562 584.6875 423.875L585.34375 424.39062Q585.1406 424.70312 584.8125 424.98438Q584.5 425.26562 584.03125 425.45312Q583.5781 425.625 582.9531 425.625ZM587.40625 420.51562L587.40625 425.5L586.3281 425.5L586.3281 419.15625L587.3594 419.15625L587.40625 420.51562ZM587.15625 422.09375L586.7031 422.07812Q586.7031 421.42188 586.8906 420.875Q587.0781 420.3125 587.4219 419.90625Q587.7656 419.5 588.2344 419.28125Q588.7031 419.04688 589.28125 419.04688Q589.75 419.04688 590.125 419.17188Q590.5 419.29688 590.7656 419.57812Q591.03125 419.84375 591.1719 420.28125Q591.3125 420.71875 591.3125 421.34375L591.3125 425.5L590.21875 425.5L590.21875 421.32812Q590.21875 420.82812 590.0781 420.53125Q589.9375 420.23438 589.65625 420.09375Q589.375 419.95312 588.9531 419.95312Q588.5469 419.95312 588.21875 420.125Q587.8906 420.29688 587.65625 420.59375Q587.4219 420.89062 587.28125 421.28125Q587.15625 421.65625 587.15625 422.09375Z" fill-rule="nonzero"/><path stroke="#cccccc" stroke-width="1.0" stroke-linecap="butt" d="M372.0 305.0L372.0 507.0" fill-rule="nonzero"/><path fill="#000000" d="M342.59375 538.5625L342.59375 538.4375Q342.59375 537.6875 342.75 537.0781Q342.92188 536.4531 343.23438 536.0Q343.54688 535.5469 344.0 535.2969Q344.46875 535.0469 345.0625 535.0469Q345.51562 535.0469 345.875 535.1875Q346.25 535.3125 346.53125 535.5781Q346.8125 535.8281 347.01562 536.2031Q347.21875 536.5781 347.34375 537.0625Q347.46875 537.53125 347.51562 538.09375L347.51562 538.5781Q347.45312 539.28125 347.26562 539.84375Q347.09375 540.40625 346.79688 540.8125Q346.5 541.2031 346.0625 541.4219Q345.64062 541.625 345.04688 541.625Q344.46875 541.625 344.0 541.40625Q343.54688 541.1719 343.23438 540.7656Q342.92188 540.34375 342.75 539.7969Q342.59375 539.2344 342.59375 538.5625ZM343.67188 538.4375L343.67188 538.5625Q343.67188 539.0156 343.76562 539.40625Q343.85938 539.7969 344.04688 540.09375Q344.25 540.3906 344.5625 540.5625Q344.89062 540.7344 345.32812 540.7344Q345.75 540.7344 346.04688 540.5625Q346.35938 540.375 346.5625 540.0781Q346.78125 539.78125 346.90625 539.3906Q347.04688 539.0 347.14062 538.59375L347.14062 538.2031Q347.07812 537.7656 346.9375 537.375Q346.8125 536.96875 346.59375 536.6406Q346.39062 536.3125 346.07812 536.125Q345.76562 535.9375 345.32812 535.9375Q344.89062 535.9375 344.57812 536.1406Q344.26562 536.3281 344.0625 536.6719Q343.85938 537.0156 343.76562 537.4844Q343.67188 537.9375 343.67188 538.4375ZM346.98438 535.15625L347.90625 535.15625L347.90625 539.7656Q347.90625 540.0469 347.9375 540.21875Q347.96875 540.375 348.03125 540.4844Q348.10938 540.5781 348.1875 540.625Q348.28125 540.65625 348.375 540.65625Q348.42188 540.65625 348.46875 540.6406Q348.53125 540.625 348.5625 540.6094L348.70312 541.4219Q348.51562 541.5469 348.34375 541.5781Q348.17188 541.625 347.98438 541.625Q347.70312 541.625 347.48438 541.5156Q347.28125 541.4219 347.125 541.2031Q346.96875 540.9844 346.89062 540.625Q346.8125 540.2656 346.8125 539.7656L346.8125 536.53125L346.98438 535.15625ZM352.07812 537.4219L352.07812 538.3125L349.21875 538.3125L349.21875 537.4219L352.07812 537.4219ZM358.5625 536.6406L358.5625 537.5625L353.95312 537.5625L353.95312 536.6406L358.5625 536.6406ZM354.125 532.96875L354.125 541.5L352.98438 541.5L352.98438 532.96875L354.125 532.96875ZM359.54688 532.96875L359.54688 541.5L358.42188 541.5L358.42188 532.96875L359.54688 532.96875ZM365.70312 540.03125L365.70312 535.15625L366.79688 535.15625L366.79688 541.5L365.76562 541.5L365.70312 540.03125ZM365.90625 538.7031L366.35938 538.6875Q366.35938 539.3125 366.21875 539.8594Q366.09375 540.3906 365.79688 540.78125Q365.51562 541.1719 365.03125 541.40625Q364.5625 541.625 363.89062 541.625Q363.42188 541.625 363.03125 541.4844Q362.65625 541.34375 362.375 541.0625Q362.10938 540.78125 361.95312 540.3281Q361.79688 539.875 361.79688 539.25L361.79688 535.15625L362.89062 535.15625L362.89062 539.2656Q362.89062 539.6875 362.98438 539.96875Q363.07812 540.25 363.25 540.40625Q363.42188 540.5625 363.625 540.6406Q363.82812 540.7031 364.04688 540.7031Q364.75 540.7031 365.14062 540.4375Q365.54688 540.15625 365.71875 539.7031Q365.90625 539.25 365.90625 538.7031ZM369.90625 536.4219L369.90625 541.5L368.8125 541.5L368.8125 535.15625L369.84375 535.15625L369.90625 536.4219ZM369.6875 538.09375L369.17188 538.0781Q369.1875 537.4219 369.34375 536.875Q369.51562 536.3125 369.82812 535.90625Q370.15625 535.5 370.64062 535.28125Q371.125 535.0469 371.75 535.0469Q372.20312 535.0469 372.57812 535.1719Q372.95312 535.2969 373.21875 535.5625Q373.5 535.8281 373.64062 536.25Q373.79688 536.6719 373.79688 537.28125L373.79688 541.5L372.71875 541.5L372.71875 537.3281Q372.71875 536.8281 372.54688 536.53125Q372.39062 536.2344 372.07812 536.09375Q371.78125 535.9531 371.35938 535.9531Q370.89062 535.9531 370.5625 536.125Q370.23438 536.2969 370.04688 536.59375Q369.85938 536.8906 369.76562 537.28125Q369.6875 537.65625 369.6875 538.09375ZM373.79688 537.4844L373.0625 537.71875Q373.0625 537.1875 373.23438 536.71875Q373.40625 536.2344 373.71875 535.8594Q374.04688 535.4844 374.51562 535.2656Q374.98438 535.0469 375.57812 535.0469Q376.09375 535.0469 376.48438 535.1875Q376.89062 535.3125 377.15625 535.59375Q377.42188 535.875 377.5625 536.3125Q377.70312 536.7344 377.70312 537.3281L377.70312 541.5L376.625 541.5L376.625 537.3281Q376.625 536.78125 376.45312 536.5Q376.28125 536.2031 375.98438 536.0781Q375.6875 535.9531 375.26562 535.9531Q374.90625 535.9531 374.625 536.0781Q374.35938 536.2031 374.17188 536.4219Q373.98438 536.625 373.89062 536.90625Q373.79688 537.1875 373.79688 537.4844ZM383.70312 540.03125L383.70312 535.15625L384.79688 535.15625L384.79688 541.5L383.76562 541.5L383.70312 540.03125ZM383.90625 538.7031L384.35938 538.6875Q384.35938 539.3125 384.21875 539.8594Q384.09375 540.3906 383.79688 540.78125Q383.51562 541.1719 383.03125 541.40625Q382.5625 541.625 381.89062 541.625Q381.42188 541.625 381.03125 541.4844Q380.65625 541.34375 380.375 541.0625Q380.10938 540.78125 379.95312 540.3281Q379.79688 539.875 379.79688 539.25L379.79688 535.15625L380.89062 535.15625L380.89062 539.2656Q380.89062 539.6875 380.98438 539.96875Q381.07812 540.25 381.25 540.40625Q381.42188 540.5625 381.625 540.6406Q381.82812 540.7031 382.04688 540.7031Q382.75 540.7031 383.14062 540.4375Q383.54688 540.15625 383.71875 539.7031Q383.90625 539.25 383.90625 538.7031ZM388.0 532.5L388.0 541.5L386.92188 541.5L386.92188 532.5L388.0 532.5ZM392.45312 541.625Q391.79688 541.625 391.25 541.40625Q390.71875 541.1719 390.32812 540.7656Q389.95312 540.34375 389.75 539.78125Q389.54688 539.21875 389.54688 538.5469L389.54688 538.3125Q389.54688 537.53125 389.76562 536.9219Q390.0 536.3125 390.39062 535.8906Q390.78125 535.46875 391.28125 535.2656Q391.78125 535.0469 392.3125 535.0469Q393.0 535.0469 393.48438 535.28125Q393.98438 535.5156 394.29688 535.9375Q394.625 536.34375 394.76562 536.9219Q394.92188 537.4844 394.92188 538.1406L394.92188 538.6406L390.1875 538.6406L390.1875 537.75L393.84375 537.75L393.84375 537.6719Q393.8125 537.25 393.65625 536.8594Q393.51562 536.4531 393.1875 536.2031Q392.875 535.9375 392.3125 535.9375Q391.95312 535.9375 391.64062 536.09375Q391.32812 536.25 391.09375 536.5625Q390.875 536.8594 390.75 537.2969Q390.64062 537.7344 390.64062 538.3125L390.64062 538.5469Q390.64062 539.0 390.76562 539.40625Q390.89062 539.7969 391.125 540.09375Q391.375 540.3906 391.71875 540.5625Q392.07812 540.7344 392.51562 540.7344Q393.09375 540.7344 393.48438 540.5Q393.89062 540.2656 394.1875 539.875L394.84375 540.3906Q394.64062 540.7031 394.3125 540.9844Q394.0 541.2656 393.53125 541.4531Q393.07812 541.625 392.45312 541.625ZM396.90625 536.5156L396.90625 541.5L395.82812 541.5L395.82812 535.15625L396.85938 535.15625L396.90625 536.5156ZM396.65625 538.09375L396.20312 538.0781Q396.20312 537.4219 396.39062 536.875Q396.57812 536.3125 396.92188 535.90625Q397.26562 535.5 397.73438 535.28125Q398.20312 535.0469 398.78125 535.0469Q399.25 535.0469 399.625 535.1719Q400.0 535.2969 400.26562 535.5781Q400.53125 535.84375 400.67188 536.28125Q400.8125 536.71875 400.8125 537.34375L400.8125 541.5L399.71875 541.5L399.71875 537.3281Q399.71875 536.8281 399.57812 536.53125Q399.4375 536.2344 399.15625 536.09375Q398.875 535.9531 398.45312 535.9531Q398.04688 535.9531 397.71875 536.125Q397.39062 536.2969 397.15625 536.59375Q396.92188 536.8906 396.78125 537.28125Q396.65625 537.65625 396.65625 538.09375Z" fill-rule="nonzero"/><path stroke="#cccccc" stroke-width="1.0" stroke-linecap="butt" d="M372.0 305.0L197.0 406.0" fill-rule="nonzero"/><path fill="#000000" d="M153.67188 424.57812L153.67188 425.5L149.40625 425.5L149.40625 424.57812L153.67188 424.57812ZM149.625 416.96875L149.625 425.5L148.48438 425.5L148.48438 416.96875L149.625 416.96875ZM155.5 419.15625L155.5 425.5L154.42188 425.5L154.42188 419.15625L155.5 419.15625ZM154.32812 417.48438Q154.32812 417.21875 154.48438 417.03125Q154.65625 416.84375 154.96875 416.84375Q155.28125 416.84375 155.4375 417.03125Q155.60938 417.21875 155.60938 417.48438Q155.60938 417.73438 155.4375 417.92188Q155.28125 418.09375 154.96875 418.09375Q154.65625 418.09375 154.48438 417.92188Q154.32812 417.73438 154.32812 417.48438ZM158.40625 420.42188L158.40625 425.5L157.3125 425.5L157.3125 419.15625L158.34375 419.15625L158.40625 420.42188ZM158.1875 422.09375L157.67188 422.07812Q157.6875 421.42188 157.84375 420.875Q158.01562 420.3125 158.32812 419.90625Q158.65625 419.5 159.14062 419.28125Q159.625 419.04688 160.25 419.04688Q160.70312 419.04688 161.07812 419.17188Q161.45312 419.29688 161.71875 419.5625Q162.0 419.82812 162.14062 420.25Q162.29688 420.67188 162.29688 421.28125L162.29688 425.5L161.21875 425.5L161.21875 421.32812Q161.21875 420.82812 161.04688 420.53125Q160.89062 420.23438 160.57812 420.09375Q160.28125 419.95312 159.85938 419.95312Q159.39062 419.95312 159.0625 420.125Q158.73438 420.29688 158.54688 420.59375Q158.35938 420.89062 158.26562 421.28125Q158.1875 421.65625 158.1875 422.09375ZM162.29688 421.48438L161.5625 421.71875Q161.5625 421.1875 161.73438 420.71875Q161.90625 420.23438 162.21875 419.85938Q162.54688 419.48438 163.01562 419.26562Q163.48438 419.04688 164.07812 419.04688Q164.59375 419.04688 164.98438 419.1875Q165.39062 419.3125 165.65625 419.59375Q165.92188 419.875 166.0625 420.3125Q166.20312 420.73438 166.20312 421.32812L166.20312 425.5L165.125 425.5L165.125 421.32812Q165.125 420.78125 164.95312 420.5Q164.78125 420.20312 164.48438 420.07812Q164.1875 419.95312 163.76562 419.95312Q163.40625 419.95312 163.125 420.07812Q162.85938 420.20312 162.67188 420.42188Q162.48438 420.625 162.39062 420.90625Q162.29688 421.1875 162.29688 421.48438ZM168.04688 422.40625L168.04688 422.26562Q168.04688 421.57812 168.23438 421.0Q168.4375 420.40625 168.8125 419.96875Q169.1875 419.53125 169.71875 419.29688Q170.25 419.04688 170.92188 419.04688Q171.57812 419.04688 172.10938 419.29688Q172.65625 419.53125 173.03125 419.96875Q173.40625 420.40625 173.60938 421.0Q173.8125 421.57812 173.8125 422.26562L173.8125 422.40625Q173.8125 423.07812 173.60938 423.67188Q173.40625 424.25 173.03125 424.6875Q172.65625 425.125 172.125 425.375Q171.59375 425.625 170.92188 425.625Q170.26562 425.625 169.71875 425.375Q169.1875 425.125 168.8125 424.6875Q168.4375 424.25 168.23438 423.67188Q168.04688 423.07812 168.04688 422.40625ZM169.125 422.26562L169.125 422.40625Q169.125 422.875 169.23438 423.29688Q169.34375 423.71875 169.5625 424.04688Q169.79688 424.35938 170.14062 424.54688Q170.48438 424.71875 170.92188 424.71875Q171.375 424.71875 171.70312 424.54688Q172.04688 424.35938 172.26562 424.04688Q172.5 423.71875 172.60938 423.29688Q172.71875 422.875 172.71875 422.40625L172.71875 422.26562Q172.71875 421.79688 172.60938 421.375Q172.5 420.95312 172.26562 420.64062Q172.04688 420.3125 171.70312 420.125Q171.375 419.9375 170.92188 419.9375Q170.46875 419.9375 170.125 420.125Q169.79688 420.3125 169.5625 420.64062Q169.34375 420.95312 169.23438 421.375Q169.125 421.79688 169.125 422.26562ZM176.40625 420.51562L176.40625 425.5L175.32812 425.5L175.32812 419.15625L176.35938 419.15625L176.40625 420.51562ZM176.15625 422.09375L175.70312 422.07812Q175.70312 421.42188 175.89062 420.875Q176.07812 420.3125 176.42188 419.90625Q176.76562 419.5 177.23438 419.28125Q177.70312 419.04688 178.28125 419.04688Q178.75 419.04688 179.125 419.17188Q179.5 419.29688 179.76562 419.57812Q180.03125 419.84375 180.17188 420.28125Q180.3125 420.71875 180.3125 421.34375L180.3125 425.5L179.21875 425.5L179.21875 421.32812Q179.21875 420.82812 179.07812 420.53125Q178.9375 420.23438 178.65625 420.09375Q178.375 419.95312 177.95312 419.95312Q177.54688 419.95312 177.21875 420.125Q176.89062 420.29688 176.65625 420.59375Q176.42188 420.89062 176.28125 421.28125Q176.15625 421.65625 176.15625 422.09375ZM184.95312 425.625Q184.29688 425.625 183.75 425.40625Q183.21875 425.17188 182.82812 424.76562Q182.45312 424.34375 182.25 423.78125Q182.04688 423.21875 182.04688 422.54688L182.04688 422.3125Q182.04688 421.53125 182.26562 420.92188Q182.5 420.3125 182.89062 419.89062Q183.28125 419.46875 183.78125 419.26562Q184.28125 419.04688 184.8125 419.04688Q185.5 419.04688 185.98438 419.28125Q186.48438 419.51562 186.79688 419.9375Q187.125 420.34375 187.26562 420.92188Q187.42188 421.48438 187.42188 422.14062L187.42188 422.64062L182.6875 422.64062L182.6875 421.75L186.34375 421.75L186.34375 421.67188Q186.3125 421.25 186.15625 420.85938Q186.01562 420.45312 185.6875 420.20312Q185.375 419.9375 184.8125 419.9375Q184.45312 419.9375 184.14062 420.09375Q183.82812 420.25 183.59375 420.5625Q183.375 420.85938 183.25 421.29688Q183.14062 421.73438 183.14062 422.3125L183.14062 422.54688Q183.14062 423.0 183.26562 423.40625Q183.39062 423.79688 183.625 424.09375Q183.875 424.39062 184.21875 424.5625Q184.57812 424.73438 185.01562 424.73438Q185.59375 424.73438 185.98438 424.5Q186.39062 424.26562 186.6875 423.875L187.34375 424.39062Q187.14062 424.70312 186.8125 424.98438Q186.5 425.26562 186.03125 425.45312Q185.57812 425.625 184.95312 425.625ZM189.40625 420.51562L189.40625 425.5L188.32812 425.5L188.32812 419.15625L189.35938 419.15625L189.40625 420.51562ZM189.15625 422.09375L188.70312 422.07812Q188.70312 421.42188 188.89062 420.875Q189.07812 420.3125 189.42188 419.90625Q189.76562 419.5 190.23438 419.28125Q190.70312 419.04688 191.28125 419.04688Q191.75 419.04688 192.125 419.17188Q192.5 419.29688 192.76562 419.57812Q193.03125 419.84375 193.17188 420.28125Q193.3125 420.71875 193.3125 421.34375L193.3125 425.5L192.21875 425.5L192.21875 421.32812Q192.21875 420.82812 192.07812 420.53125Q191.9375 420.23438 191.65625 420.09375Q191.375 419.95312 190.95312 419.95312Q190.54688 419.95312 190.21875 420.125Q189.89062 420.29688 189.65625 420.59375Q189.42188 420.89062 189.28125 421.28125Q189.15625 421.65625 189.15625 422.09375Z" fill-rule="nonzero"/><path stroke="#cccccc" stroke-width="1.0" stroke-linecap="butt" d="M372.0 305.0L197.0 204.0" fill-rule="nonzero"/><path fill="#000000" d="M153.03125 191.34375Q153.03125 191.04688 152.9375 190.8125Q152.85938 190.57812 152.625 190.39062Q152.40625 190.20312 152.0 190.03125Q151.60938 189.85938 151.01562 189.6875Q150.375 189.5 149.85938 189.28125Q149.35938 189.04688 148.98438 188.75Q148.625 188.4375 148.4375 188.0625Q148.25 187.67188 148.25 187.17188Q148.25 186.67188 148.45312 186.25Q148.65625 185.82812 149.03125 185.51562Q149.42188 185.20312 149.95312 185.03125Q150.48438 184.84375 151.14062 184.84375Q152.10938 184.84375 152.78125 185.21875Q153.45312 185.57812 153.79688 186.17188Q154.15625 186.76562 154.15625 187.42188L153.03125 187.42188Q153.03125 186.95312 152.8125 186.57812Q152.60938 186.20312 152.1875 186.0Q151.78125 185.78125 151.14062 185.78125Q150.54688 185.78125 150.14062 185.96875Q149.75 186.14062 149.5625 186.45312Q149.375 186.76562 149.375 187.15625Q149.375 187.42188 149.48438 187.65625Q149.60938 187.875 149.84375 188.0625Q150.09375 188.25 150.46875 188.40625Q150.84375 188.5625 151.375 188.70312Q152.09375 188.90625 152.625 189.17188Q153.15625 189.42188 153.5 189.73438Q153.84375 190.04688 154.0 190.4375Q154.17188 190.82812 154.17188 191.32812Q154.17188 191.85938 153.95312 192.28125Q153.75 192.70312 153.35938 193.0Q152.96875 193.29688 152.42188 193.46875Q151.875 193.625 151.20312 193.625Q150.60938 193.625 150.03125 193.45312Q149.46875 193.28125 149.0 192.95312Q148.53125 192.625 148.25 192.15625Q147.96875 191.67188 147.96875 191.03125L149.09375 191.03125Q149.09375 191.46875 149.26562 191.78125Q149.4375 192.09375 149.73438 192.29688Q150.03125 192.5 150.40625 192.60938Q150.78125 192.70312 151.20312 192.70312Q151.79688 192.70312 152.20312 192.54688Q152.60938 192.375 152.8125 192.07812Q153.03125 191.76562 153.03125 191.34375ZM155.04688 190.40625L155.04688 190.26562Q155.04688 189.57812 155.23438 189.0Q155.4375 188.40625 155.8125 187.96875Q156.1875 187.53125 156.71875 187.29688Q157.25 187.04688 157.92188 187.04688Q158.57812 187.04688 159.10938 187.29688Q159.65625 187.53125 160.03125 187.96875Q160.40625 188.40625 160.60938 189.0Q160.8125 189.57812 160.8125 190.26562L160.8125 190.40625Q160.8125 191.07812 160.60938 191.67188Q160.40625 192.25 160.03125 192.6875Q159.65625 193.125 159.125 193.375Q158.59375 193.625 157.92188 193.625Q157.26562 193.625 156.71875 193.375Q156.1875 193.125 155.8125 192.6875Q155.4375 192.25 155.23438 191.67188Q155.04688 191.07812 155.04688 190.40625ZM156.125 190.26562L156.125 190.40625Q156.125 190.875 156.23438 191.29688Q156.34375 191.71875 156.5625 192.04688Q156.79688 192.35938 157.14062 192.54688Q157.48438 192.71875 157.92188 192.71875Q158.375 192.71875 158.70312 192.54688Q159.04688 192.35938 159.26562 192.04688Q159.5 191.71875 159.60938 191.29688Q159.71875 190.875 159.71875 190.40625L159.71875 190.26562Q159.71875 189.79688 159.60938 189.375Q159.5 188.95312 159.26562 188.64062Q159.04688 188.3125 158.70312 188.125Q158.375 187.9375 157.92188 187.9375Q157.46875 187.9375 157.125 188.125Q156.79688 188.3125 156.5625 188.64062Q156.34375 188.95312 156.23438 189.375Q156.125 189.79688 156.125 190.26562ZM163.40625 188.51562L163.40625 193.5L162.32812 193.5L162.32812 187.15625L163.35938 187.15625L163.40625 188.51562ZM163.15625 190.09375L162.70312 190.07812Q162.70312 189.42188 162.89062 188.875Q163.07812 188.3125 163.42188 187.90625Q163.76562 187.5 164.23438 187.28125Q164.70312 187.04688 165.28125 187.04688Q165.75 187.04688 166.125 187.17188Q166.5 187.29688 166.76562 187.57812Q167.03125 187.84375 167.17188 188.28125Q167.3125 188.71875 167.3125 189.34375L167.3125 193.5L166.21875 193.5L166.21875 189.32812Q166.21875 188.82812 166.07812 188.53125Q165.9375 188.23438 165.65625 188.09375Q165.375 187.95312 164.95312 187.95312Q164.54688 187.95312 164.21875 188.125Q163.89062 188.29688 163.65625 188.59375Q163.42188 188.89062 163.28125 189.28125Q163.15625 189.65625 163.15625 190.09375ZM173.01562 191.8125Q173.01562 191.57812 172.90625 191.375Q172.8125 191.17188 172.5 191.01562Q172.1875 190.84375 171.5625 190.71875Q171.03125 190.60938 170.60938 190.46875Q170.1875 190.3125 169.89062 190.09375Q169.59375 189.875 169.4375 189.57812Q169.28125 189.28125 169.28125 188.89062Q169.28125 188.51562 169.4375 188.1875Q169.60938 187.84375 169.90625 187.59375Q170.21875 187.32812 170.65625 187.1875Q171.09375 187.04688 171.625 187.04688Q172.39062 187.04688 172.92188 187.3125Q173.46875 187.57812 173.75 188.03125Q174.03125 188.48438 174.03125 189.01562L172.95312 189.01562Q172.95312 188.76562 172.79688 188.51562Q172.64062 188.26562 172.34375 188.10938Q172.04688 187.9375 171.625 187.9375Q171.17188 187.9375 170.89062 188.07812Q170.60938 188.20312 170.48438 188.42188Q170.35938 188.625 170.35938 188.85938Q170.35938 189.04688 170.42188 189.1875Q170.48438 189.3125 170.64062 189.4375Q170.79688 189.54688 171.07812 189.65625Q171.375 189.75 171.82812 189.84375Q172.60938 190.01562 173.10938 190.26562Q173.60938 190.51562 173.85938 190.875Q174.10938 191.21875 174.10938 191.73438Q174.10938 192.15625 173.92188 192.5Q173.75 192.84375 173.42188 193.09375Q173.10938 193.34375 172.65625 193.48438Q172.20312 193.625 171.65625 193.625Q170.8125 193.625 170.23438 193.32812Q169.65625 193.01562 169.35938 192.54688Q169.0625 192.0625 169.0625 191.54688L170.14062 191.54688Q170.17188 191.98438 170.40625 192.25Q170.64062 192.51562 170.96875 192.625Q171.3125 192.71875 171.65625 192.71875Q172.09375 192.71875 172.39062 192.60938Q172.70312 192.48438 172.85938 192.28125Q173.01562 192.07812 173.01562 191.8125ZM177.98438 187.15625L177.98438 187.98438L174.54688 187.98438L174.54688 187.15625L177.98438 187.15625ZM175.71875 185.625L176.79688 185.625L176.79688 191.92188Q176.79688 192.25 176.89062 192.42188Q177.0 192.57812 177.15625 192.64062Q177.3125 192.6875 177.5 192.6875Q177.625 192.6875 177.76562 192.65625Q177.92188 192.625 178.0 192.60938L178.01562 193.5Q177.875 193.54688 177.67188 193.57812Q177.46875 193.625 177.17188 193.625Q176.78125 193.625 176.4375 193.46875Q176.10938 193.29688 175.90625 192.9375Q175.71875 192.5625 175.71875 191.92188L175.71875 185.625ZM180.5 187.15625L180.5 193.5L179.42188 193.5L179.42188 187.15625L180.5 187.15625ZM179.32812 185.48438Q179.32812 185.21875 179.48438 185.03125Q179.65625 184.84375 179.96875 184.84375Q180.28125 184.84375 180.4375 185.03125Q180.60938 185.21875 180.60938 185.48438Q180.60938 185.73438 180.4375 185.92188Q180.28125 186.09375 179.96875 186.09375Q179.65625 186.09375 179.48438 185.92188Q179.32812 185.73438 179.32812 185.48438ZM186.4375 187.15625L187.42188 187.15625L187.42188 193.35938Q187.42188 194.20312 187.07812 194.79688Q186.73438 195.39062 186.125 195.6875Q185.53125 196.0 184.73438 196.0Q184.40625 196.0 183.95312 195.89062Q183.51562 195.79688 183.09375 195.54688Q182.67188 195.3125 182.39062 194.90625L182.95312 194.25Q183.35938 194.73438 183.78125 194.92188Q184.21875 195.10938 184.65625 195.10938Q185.17188 195.10938 185.54688 194.90625Q185.92188 194.71875 186.125 194.34375Q186.32812 193.96875 186.32812 193.42188L186.32812 188.54688L186.4375 187.15625ZM182.0625 190.40625L182.0625 190.28125Q182.0625 189.54688 182.23438 188.95312Q182.42188 188.35938 182.73438 187.9375Q183.0625 187.5 183.51562 187.28125Q183.98438 187.04688 184.57812 187.04688Q185.17188 187.04688 185.60938 187.25Q186.0625 187.45312 186.375 187.85938Q186.6875 188.25 186.875 188.8125Q187.0625 189.35938 187.125 190.0625L187.125 190.60938Q187.0625 191.29688 186.875 191.85938Q186.6875 192.42188 186.375 192.8125Q186.0625 193.20312 185.60938 193.42188Q185.15625 193.625 184.5625 193.625Q183.98438 193.625 183.53125 193.39062Q183.07812 193.14062 182.75 192.70312Q182.42188 192.26562 182.23438 191.6875Q182.0625 191.09375 182.0625 190.40625ZM183.15625 190.28125L183.15625 190.40625Q183.15625 190.875 183.25 191.29688Q183.34375 191.70312 183.54688 192.03125Q183.75 192.34375 184.0625 192.53125Q184.39062 192.70312 184.82812 192.70312Q185.35938 192.70312 185.70312 192.46875Q186.0625 192.23438 186.26562 191.85938Q186.48438 191.48438 186.59375 191.04688L186.59375 189.64062Q186.53125 189.3125 186.39062 189.01562Q186.26562 188.71875 186.0625 188.48438Q185.85938 188.23438 185.54688 188.09375Q185.25 187.95312 184.82812 187.95312Q184.39062 187.95312 184.0625 188.14062Q183.75 188.32812 183.54688 188.65625Q183.34375 188.96875 183.25 189.39062Q183.15625 189.79688 183.15625 190.28125ZM191.95312 193.625Q191.29688 193.625 190.75 193.40625Q190.21875 193.17188 189.82812 192.76562Q189.45312 192.34375 189.25 191.78125Q189.04688 191.21875 189.04688 190.54688L189.04688 190.3125Q189.04688 189.53125 189.26562 188.92188Q189.5 188.3125 189.89062 187.89062Q190.28125 187.46875 190.78125 187.26562Q191.28125 187.04688 191.8125 187.04688Q192.5 187.04688 192.98438 187.28125Q193.48438 187.51562 193.79688 187.9375Q194.125 188.34375 194.26562 188.92188Q194.42188 189.48438 194.42188 190.14062L194.42188 190.64062L189.6875 190.64062L189.6875 189.75L193.34375 189.75L193.34375 189.67188Q193.3125 189.25 193.15625 188.85938Q193.01562 188.45312 192.6875 188.20312Q192.375 187.9375 191.8125 187.9375Q191.45312 187.9375 191.14062 188.09375Q190.82812 188.25 190.59375 188.5625Q190.375 188.85938 190.25 189.29688Q190.14062 189.73438 190.14062 190.3125L190.14062 190.54688Q190.14062 191.0 190.26562 191.40625Q190.39062 191.79688 190.625 192.09375Q190.875 192.39062 191.21875 192.5625Q191.57812 192.73438 192.01562 192.73438Q192.59375 192.73438 192.98438 192.5Q193.39062 192.26562 193.6875 191.875L194.34375 192.39062Q194.14062 192.70312 193.8125 192.98438Q193.5 193.26562 193.03125 193.45312Q192.57812 193.625 191.95312 193.625Z" fill-rule="nonzero"/><path stroke="#cccccc" stroke-width="1.0" stroke-linecap="butt" d="M372.0 305.0L372.0 103.0" fill-rule="nonzero"/><path stroke="#ff0000" stroke-width="2.0" stroke-linecap="butt" stroke-opacity="0.7019608" stroke-dasharray="8.0,6.0,2.0,6.0" d="M372.0 174.0L481.0 242.0L442.0 345.0L372.0 350.0L337.0 325.0L315.0 272.0Z" fill-rule="nonzero"/><path fill="#ff0000" fill-opacity="0.7019608" d="M368.81802 170.81802L372.0 172.875L375.18198 170.81802L373.125 174.0L375.18198 177.18198L372.0 175.125L368.81802 177.18198L370.875 174.0Z" fill-rule="nonzero"/><path fill="#ff0000" fill-opacity="0.7019608" d="M477.81802 238.81802L481.0 240.875L484.18198 238.81802L482.125 242.0L484.18198 245.18198L481.0 243.125L477.81802 245.18198L479.875 242.0Z" fill-rule="nonzero"/><path fill="#ff0000" fill-opacity="0.7019608" d="M438.81802 341.81802L442.0 343.875L445.18198 341.81802L443.125 345.0L445.18198 348.18198L442.0 346.125L438.81802 348.18198L440.875 345.0Z" fill-rule="nonzero"/><path fill="#ff0000" fill-opacity="0.7019608" d="M368.81802 346.81802L372.0 348.875L375.18198 346.81802L373.125 350.0L375.18198 353.18198L372.0 351.125L368.81802 353.18198L370.875 350.0Z" fill-rule="nonzero"/><path fill="#ff0000" fill-opacity="0.7019608" d="M333.81802 321.81802L337.0 323.875L340.18198 321.81802L338.125 325.0L340.18198 328.18198L337.0 326.125L333.81802 328.18198L335.875 325.0Z" fill-rule="nonzero"/><path fill="#ff0000" fill-opacity="0.7019608" d="M311.81802 268.81802L315.0 270.875L318.18198 268.81802L316.125 272.0L318.18198 275.18198L315.0 273.125L311.81802 275.18198L313.875 272.0Z" fill-rule="nonzero"/><path fill="#757575" d="M39.2875 33.0375L41.178123 33.0375L41.178123 41.303123Q41.178123 43.459373 40.69375 44.740623Q40.209373 46.00625 38.928123 46.803123Q37.6625 47.6 35.584373 47.6Q33.56875 47.6 32.2875 46.9125Q31.021875 46.209373 30.475 44.896873Q29.928125 43.584373 29.928125 41.303123L29.928125 33.0375L31.81875 33.0375L31.81875 41.2875Q31.81875 43.1625 32.1625 44.053123Q32.50625 44.928123 33.35 45.4125Q34.19375 45.88125 35.428123 45.88125Q37.50625 45.88125 38.396873 44.94375Q39.2875 43.990623 39.2875 41.2875L39.2875 33.0375ZM42.6625 47.35L42.6625 36.975L44.25625 36.975L44.25625 38.459373Q45.396873 36.740623 47.553123 36.740623Q48.490623 36.740623 49.271873 37.084373Q50.06875 37.4125 50.459373 37.959373Q50.85 38.50625 51.00625 39.25625Q51.1 39.75625 51.1 40.975L51.1 47.35L49.334373 47.35L49.334373 41.0375Q49.334373 39.959373 49.13125 39.428123Q48.928123 38.896873 48.396873 38.584373Q47.88125 38.271873 47.178123 38.271873Q46.053123 38.271873 45.240623 38.990623Q44.428123 39.69375 44.428123 41.678123L44.428123 47.35L42.6625 47.35ZM52.678123 35.053123L52.678123 33.0375L54.44375 33.0375L54.44375 35.053123L52.678123 35.053123ZM52.678123 47.35L52.678123 36.975L54.44375 36.975L54.44375 47.35L52.678123 47.35ZM63.44375 43.553123L65.1625 43.771873Q64.88125 45.56875 63.709373 46.584373Q62.553123 47.584373 60.85 47.584373Q58.725 47.584373 57.428123 46.19375Q56.13125 44.803123 56.13125 42.209373Q56.13125 40.521873 56.678123 39.271873Q57.240623 38.00625 58.38125 37.38125Q59.521873 36.740623 60.865623 36.740623Q62.553123 36.740623 63.615623 37.6Q64.69375 38.459373 65.00625 40.021873L63.2875 40.2875Q63.053123 39.240623 62.428123 38.725Q61.803123 38.19375 60.928123 38.19375Q59.6 38.19375 58.771873 39.146873Q57.94375 40.1 57.94375 42.146873Q57.94375 44.240623 58.740623 45.19375Q59.5375 46.13125 60.834373 46.13125Q61.865623 46.13125 62.553123 45.50625Q63.25625 44.865623 63.44375 43.553123ZM66.02187 42.1625Q66.02187 39.2875 67.61562 37.896873Q68.95937 36.740623 70.88125 36.740623Q73.02187 36.740623 74.36562 38.146873Q75.725 39.553123 75.725 42.021873Q75.725 44.021873 75.13125 45.178123Q74.5375 46.31875 73.38125 46.959373Q72.24062 47.584373 70.88125 47.584373Q68.69375 47.584373 67.35 46.19375Q66.02187 44.7875 66.02187 42.1625ZM67.81875 42.1625Q67.81875 44.1625 68.67812 45.146873Q69.55312 46.13125 70.88125 46.13125Q72.19375 46.13125 73.05312 45.146873Q73.92812 44.146873 73.92812 42.1Q73.92812 40.178123 73.05312 39.19375Q72.17812 38.19375 70.88125 38.19375Q69.55312 38.19375 68.67812 39.19375Q67.81875 40.178123 67.81875 42.1625ZM77.64687 47.35L77.64687 36.975L79.225 36.975L79.225 38.553123Q79.83437 37.44375 80.35 37.1Q80.86562 36.740623 81.475 36.740623Q82.36562 36.740623 83.2875 37.303123L82.67812 38.94375Q82.0375 38.553123 81.39687 38.553123Q80.81875 38.553123 80.35 38.9125Q79.89687 39.25625 79.69375 39.865623Q79.4125 40.803123 79.4125 41.9125L79.4125 47.35L77.64687 47.35ZM84.6625 47.35L84.6625 36.975L86.25625 36.975L86.25625 38.459373Q87.39687 36.740623 89.55312 36.740623Q90.49062 36.740623 91.27187 37.084373Q92.06875 37.4125 92.45937 37.959373Q92.85 38.50625 93.00625 39.25625Q93.1 39.75625 93.1 40.975L93.1 47.35L91.33437 47.35L91.33437 41.0375Q91.33437 39.959373 91.13125 39.428123Q90.92812 38.896873 90.39687 38.584373Q89.88125 38.271873 89.17812 38.271873Q88.05312 38.271873 87.24062 38.990623Q86.42812 39.69375 86.42812 41.678123L86.42812 47.35L84.6625 47.35ZM111.11562 42.334373L113.00625 42.803123Q112.4125 45.146873 110.86562 46.38125Q109.31875 47.6 107.06875 47.6Q104.75625 47.6 103.30312 46.6625Q101.86562 45.709373 101.1 43.928123Q100.35 42.13125 100.35 40.084373Q100.35 37.85 101.19375 36.19375Q102.05312 34.521873 103.63125 33.6625Q105.20937 32.7875 107.1 32.7875Q109.25625 32.7875 110.70937 33.88125Q112.17812 34.975 112.75625 36.959373L110.89687 37.396873Q110.39687 35.834373 109.44375 35.13125Q108.50625 34.4125 107.06875 34.4125Q105.4125 34.4125 104.30312 35.209373Q103.19375 35.990623 102.74062 37.334373Q102.30312 38.6625 102.30312 40.06875Q102.30312 41.896873 102.83437 43.271873Q103.36562 44.63125 104.49062 45.303123Q105.61562 45.975 106.9125 45.975Q108.50625 45.975 109.61562 45.053123Q110.725 44.13125 111.11562 42.334373ZM121.44375 46.06875Q120.45937 46.896873 119.55312 47.240623Q118.64687 47.584373 117.61562 47.584373Q115.9125 47.584373 114.99062 46.75625Q114.06875 45.9125 114.06875 44.615623Q114.06875 43.85 114.4125 43.225Q114.77187 42.6 115.33437 42.225Q115.89687 41.834373 116.6 41.63125Q117.11562 41.50625 118.1625 41.365623Q120.2875 41.115623 121.2875 40.771873Q121.30312 40.4125 121.30312 40.303123Q121.30312 39.240623 120.80312 38.7875Q120.13125 38.19375 118.80312 38.19375Q117.55312 38.19375 116.95937 38.63125Q116.38125 39.06875 116.1 40.178123L114.38125 39.94375Q114.61562 38.834373 115.14687 38.1625Q115.67812 37.475 116.69375 37.115623Q117.70937 36.740623 119.05312 36.740623Q120.38125 36.740623 121.20937 37.053123Q122.0375 37.365623 122.42812 37.85Q122.81875 38.31875 122.975 39.0375Q123.06875 39.490623 123.06875 40.6625L123.06875 43.00625Q123.06875 45.459373 123.17812 46.115623Q123.2875 46.75625 123.63125 47.35L121.7875 47.35Q121.52187 46.803123 121.44375 46.06875ZM121.2875 42.146873Q120.33437 42.5375 118.4125 42.803123Q117.33437 42.959373 116.88125 43.1625Q116.44375 43.35 116.19375 43.725Q115.94375 44.1 115.94375 44.56875Q115.94375 45.271873 116.475 45.740623Q117.00625 46.209373 118.0375 46.209373Q119.05312 46.209373 119.83437 45.771873Q120.63125 45.31875 121.00625 44.553123Q121.2875 43.94375 121.2875 42.7875L121.2875 42.146873ZM125.67812 47.35L125.67812 33.0375L127.44375 33.0375L127.44375 41.19375L131.6 36.975L133.86563 36.975L129.9125 40.81875L134.27188 47.35L132.1 47.35L128.67813 42.053123L127.44375 43.240623L127.44375 47.35L125.67812 47.35ZM142.77188 44.00625L144.58438 44.240623Q144.1625 45.81875 142.99063 46.709373Q141.83438 47.584373 140.02188 47.584373Q137.75626 47.584373 136.4125 46.19375Q135.08438 44.7875 135.08438 42.25625Q135.08438 39.63125 136.42813 38.19375Q137.77188 36.740623 139.92813 36.740623Q142.00626 36.740623 143.31876 38.1625Q144.64688 39.56875 144.64688 42.146873Q144.64688 42.303123 144.63126 42.615623L136.89688 42.615623Q136.99063 44.31875 137.86563 45.225Q138.74063 46.13125 140.0375 46.13125Q141.00626 46.13125 141.67813 45.63125Q142.36563 45.115623 142.77188 44.00625ZM136.99063 41.1625L142.7875 41.1625Q142.67813 39.865623 142.13126 39.209373Q141.2875 38.19375 139.94376 38.19375Q138.74063 38.19375 137.9125 39.00625Q137.08438 39.803123 136.99063 41.1625Z" fill-rule="nonzero"/></svg>