<svg version="1.1" viewBox="0.0 0.0 744.0 567.0" fill="none" stroke="none" stroke-linecap="square" stroke-miterlimit="10" width="744" height="567" xmlns:xlink="http://www.w3.org/1999/xlink" xmlns="http://www.w3.org/2000/svg"><path fill="#ffffff" d="M0 0L744.0 0L744.0 567.0L0 567.0L0 0Z" fill-rule="nonzero"/><path fill="#ffffff" d="M28.35 71.25L715.64996 71.25L715.64996 538.65L28.35 538.65L28.35 71.25Z" fill-rule="nonzero"/><path stroke="#cccccc" stroke-width="1.0" stroke-linecap="butt" d="M372.0 305.0C372.0 305.0 372.0 305.0 372.0 305.0C372.0 305.0 372.0 305.0 372.0 305.0C372.0 305.0 372.0 305.0 372.0 305.0C372.0 305.0 372.0 305.0 372.0 305.0" fill-rule="nonzero"/><path fill="#000000" d="M360.0625 297.04688L360.0625 298.35938Q360.0625 299.40625 359.875 300.125Q359.6875 300.84375 359.32812 301.28125Q358.98438 301.71875 358.48438 301.92188Q358.0 302.125 357.375 302.125Q356.89062 302.125 356.46875 302.0Q356.04688 301.875 355.71875 301.60938Q355.39062 301.32812 355.15625 300.89062Q354.92188 300.45312 354.79688 299.82812Q354.67188 299.1875 354.67188 298.35938L354.67188 297.04688Q354.67188 296.0 354.85938 295.29688Q355.0625 294.59375 355.40625 294.15625Q355.76562 293.71875 356.25 293.53125Q356.75 293.34375 357.35938 293.34375Q357.85938 293.34375 358.28125 293.46875Q358.70312 293.59375 359.03125 293.85938Q359.35938 294.10938 359.57812 294.54688Q359.8125 294.96875 359.9375 295.59375Q360.0625 296.21875 360.0625 297.04688ZM358.96875 298.53125L358.96875 296.875Q358.96875 296.29688 358.90625 295.85938Q358.84375 295.42188 358.70312 295.10938Q358.57812 294.79688 358.375 294.60938Q358.1875 294.42188 357.9375 294.32812Q357.6875 294.23438 357.35938 294.23438Q356.98438 294.23438 356.67188 294.375Q356.375 294.51562 356.17188 294.82812Q355.96875 295.14062 355.85938 295.65625Q355.76562 296.15625 355.76562 296.875L355.76562 298.53125Q355.76562 299.10938 355.82812 299.54688Q355.90625 299.98438 356.03125 300.3125Q356.17188 300.625 356.35938 300.82812Q356.5625 301.03125 356.8125 301.125Q357.0625 301.21875 357.375 301.21875Q357.78125 301.21875 358.07812 301.07812Q358.375 300.92188 358.57812 300.59375Q358.78125 300.26562 358.875 299.76562Q358.96875 299.25 358.96875 298.53125ZM362.8125 300.70312L362.8125 301.57812Q362.8125 302.125 362.53125 302.71875Q362.26562 303.3125 361.78125 303.70312L361.17188 303.28125Q361.35938 303.01562 361.48438 302.75Q361.60938 302.48438 361.67188 302.20312Q361.75 301.92188 361.75 301.59375L361.75 300.70312L362.8125 300.70312ZM369.0625 297.04688L369.0625 298.35938Q369.0625 299.40625 368.875 300.125Q368.6875 300.84375 368.32812 301.28125Q367.98438 301.71875 367.48438 301.92188Q367.0 302.125 366.375 302.125Q365.89062 302.125 365.46875 302.0Q365.04688 301.875 364.71875 301.60938Q364.39062 301.32812 364.15625 300.89062Q363.92188 300.45312 363.79688 299.82812Q363.67188 299.1875 363.67188 298.35938L363.67188 297.04688Q363.67188 296.0 363.85938 295.29688Q364.0625 294.59375 364.40625 294.15625Q364.76562 293.71875 365.25 293.53125Q365.75 293.34375 366.35938 293.34375Q366.85938 293.34375 367.28125 293.46875Q367.70312 293.59375 368.03125 293.85938Q368.35938 294.10938 368.57812 294.54688Q368.8125 294.96875 368.9375 295.59375Q369.0625 296.21875 369.0625 297.04688ZM367.96875 298.53125L367.96875 296.875Q367.96875 296.29688 367.90625 295.85938Q367.84375 295.42188 367.70312 295.10938Q367.57812 294.79688 367.375 294.60938Q367.1875 294.42188 366.9375 294.32812Q366.6875 294.23438 366.35938 294.23438Q365.98438 294.23438 365.67188 294.375Q365.375 294.51562 365.17188 294.82812Q364.96875 295.14062 364.85938 295.65625Q364.76562 296.15625 364.76562 296.875L364.76562 298.53125Q364.76562 299.10938 364.82812 299.54688Q364.90625 299.98438 365.03125 300.3125Q365.17188 300.625 365.35938 300.82812Q365.5625 301.03125 365.8125 301.125Q366.0625 301.21875 366.375 301.21875Q366.78125 301.21875 367.07812 301.07812Q367.375 300.92188 367.57812 300.59375Q367.78125 300.26562 367.875 299.76562Q367.96875 299.25 367.96875 298.53125Z" fill-rule="nonzero"/><path stroke="#cccccc" stroke-width="1.0" stroke-linecap="butt" d="M422.425 305.0C422.425 277.15103 399.84897 254.575 372.0 254.575C344.15103 254.575 321.575 277.15103 321.575 305.0C321.575 332.84897 344.15103 355.425 372.0 355.425C399.84897 355.425 422.425 332.84897 422.425 305.0" fill-rule="nonzero"/><path fill="#000000" d="M360.0625 246.62187L360.0625 247.93437Q360.0625 248.98125 359.875 249.7Q359.6875 250.41875 359.32812 250.85625Q358.98438 251.29375 358.48438 251.49687Q358.0 251.7 357.375 251.7Q356.89062 251.7 356.46875 251.575Q356.04688 251.45 355.71875 251.18437Q355.39062 250.90312 355.15625 250.46562Q354.92188 250.02812 354.79688 249.40312Q354.67188 248.7625 354.67188 247.93437L354.67188 246.62187Q354.67188 245.575 354.85938 244.87187Q355.0625 244.16875 355.40625 243.73125Q355.76562 243.29375 356.25 243.10625Q356.75 242.91875 357.35938 242.91875Q357.85938 242.91875 358.28125 243.04375Q358.70312 243.16875 359.03125 243.43437Q359.35938 243.68437 359.57812 244.12187Q359.8125 244.54375 359.9375 245.16875Q360.0625 245.79375 360.0625 246.62187ZM358.96875 248.10625L358.96875 246.45Q358.96875 245.87187 358.90625 245.43437Q358.84375 244.99687 358.70312 244.68437Q358.57812 244.37187 358.375 244.18437Q358.1875 243.99687 357.9375 243.90312Q357.6875 243.80937 357.35938 243.80937Q356.98438 243.80937 356.67188 243.95Q356.375 244.09062 356.17188 244.40312Q355.96875 244.71562 355.85938 245.23125Q355.76562 245.73125 355.76562 246.45L355.76562 248.10625Q355.76562 248.68437 355.82812 249.12187Q355.90625 249.55937 356.03125 249.8875Q356.17188 250.2 356.35938 250.40312Q356.5625 250.60625 356.8125 250.7Q357.0625 250.79375 357.375 250.79375Q357.78125 250.79375 358.07812 250.65312Q358.375 250.49687 358.57812 250.16875Q358.78125 249.84062 358.875 249.34062Q358.96875 248.825 358.96875 248.10625ZM362.8125 250.27812L362.8125 251.15312Q362.8125 251.7 362.53125 252.29375Q362.26562 252.8875 361.78125 253.27812L361.17188 252.85625Q361.35938 252.59062 361.48438 252.325Q361.60938 252.05937 361.67188 251.77812Q361.75 251.49687 361.75 251.16875L361.75 250.27812L362.8125 250.27812ZM367.26562 242.99687L367.26562 251.575L366.1875 251.575L366.1875 244.35625L364.0 245.15312L364.0 244.16875L367.10938 242.99687L367.26562 242.99687Z" fill-rule="nonzero"/><path stroke="#cccccc" stroke-width="1.0" stroke-linecap="butt" d="M472.85 305.0C472.85 249.30208 427.6979 204.15 372.0 204.15C316.3021 204.15 271.15 249.30208 271.15 305.0C271.15 360.6979 316.3021 405.85 372.0 405.85C427.6979 405.85 472.85 360.6979 472.85 305.0" fill-rule="nonzero"/><path fill="#000000" d="M360.0625 196.19687L360.0625 197.50937Q360.0625 198.55624 359.875 199.275Q359.6875 199.99374 359.32812 200.43124Q358.98438 200.86874 358.48438 201.07187Q358.0 201.275 357.375 201.275Q356.89062 201.275 356.46875 201.15Q356.04688 201.025 355.71875 200.75937Q355.39062 200.47812 355.15625 200.04062Q354.92188 199.60312 354.79688 198.97812Q354.67188 198.3375 354.67188 197.50937L354.67188 196.19687Q354.67188 195.15 354.85938 194.44687Q355.0625 193.74374 355.40625 193.30624Q355.76562 192.86874 356.25 192.68124Q356.75 192.49374 357.35938 192.49374Q357.85938 192.49374 358.28125 192.61874Q358.70312 192.74374 359.03125 193.00937Q359.35938 193.25937 359.57812 193.69687Q359.8125 194.11874 359.9375 194.74374Q360.0625 195.36874 360.0625 196.19687ZM358.96875 197.68124L358.96875 196.025Q358.96875 195.44687 358.90625 195.00937Q358.84375 194.57187 358.70312 194.25937Q358.57812 193.94687 358.375 193.75937Q358.1875 193.57187 357.9375 193.47812Q357.6875 193.38437 357.35938 193.38437Q356.98438 193.38437 356.67188 193.525Q356.375 193.66562 356.17188 193.97812Q355.96875 194.29062 355.85938 194.80624Q355.76562 195.30624 355.76562 196.025L355.76562 197.68124Q355.76562 198.25937 355.82812 198.69687Q355.90625 199.13437 356.03125 199.4625Q356.17188 199.775 356.35938 199.97812Q356.5625 200.18124 356.8125 200.275Q357.0625 200.36874 357.375 200.36874Q357.78125 200.36874 358.07812 200.22812Q358.375 200.07187 358.57812 199.74374Q358.78125 199.41562 358.875 198.91562Q358.96875 198.4 358.96875 197.68124ZM362.8125 199.85312L362.8125 200.72812Q362.8125 201.275 362.53125 201.86874Q362.26562 202.4625 361.78125 202.85312L361.17188 202.43124Q361.35938 202.16562 361.48438 201.9Q361.60938 201.63437 361.67188 201.35312Q361.75 201.07187 361.75 200.74374L361.75 199.85312L362.8125 199.85312ZM369.29688 200.25937L369.29688 201.15L363.71875 201.15L363.71875 200.36874L366.51562 197.25937Q367.03125 196.68124 367.3125 196.29062Q367.59375 195.88437 367.70312 195.57187Q367.82812 195.24374 367.82812 194.91562Q367.82812 194.49374 367.65625 194.15Q367.48438 193.80624 367.14062 193.60312Q366.8125 193.38437 366.32812 193.38437Q365.76562 193.38437 365.39062 193.61874Q365.01562 193.8375 364.82812 194.22812Q364.64062 194.61874 364.64062 195.11874L363.54688 195.11874Q363.54688 194.4 363.85938 193.80624Q364.1875 193.2125 364.79688 192.85312Q365.42188 192.49374 366.32812 192.49374Q367.14062 192.49374 367.71875 192.79062Q368.29688 193.07187 368.59375 193.5875Q368.90625 194.0875 368.90625 194.775Q368.90625 195.15 368.78125 195.54062Q368.65625 195.91562 368.4375 196.30624Q368.21875 196.68124 367.92188 197.05624Q367.64062 197.41562 367.3125 197.775L365.01562 200.25937L369.29688 200.25937Z" fill-rule="nonzero"/><path stroke="#cccccc" stroke-width="1.0" stroke-linecap="butt" d="M523.275 305.0C523.275 221.45312 455.54688 153.725 372.0 153.725C288.45312 153.725 220.725 221.45312 220.725 305.0C220.725 388.54688 288.45312 456.275 372.0 456.275C455.54688 456.275 523.275 388.54688 523.275 305.0" fill-rule="nonzero"/><path fill="#000000" d="M360.0625 145.77188L360.0625 147.08438Q360.0625 148.13126 359.875 148.85Q359.6875 149.56876 359.32812 150.00626Q358.98438 150.44376 358.48438 150.64688Q358.0 150.85 357.375 150.85Q356.89062 150.85 356.46875 150.725Q356.04688 150.6 355.71875 150.33438Q355.39062 150.05313 355.15625 149.61563Q354.92188 149.17813 354.79688 148.55313Q354.67188 147.9125 354.67188 147.08438L354.67188 145.77188Q354.67188 144.725 354.85938 144.02188Q355.0625 143.31876 355.40625 142.88126Q355.76562 142.44376 356.25 142.25626Q356.75 142.06876 357.35938 142.06876Q357.85938 142.06876 358.28125 142.19376Q358.70312 142.31876 359.03125 142.58438Q359.35938 142.83438 359.57812 143.27188Q359.8125 143.69376 359.9375 144.31876Q360.0625 144.94376 360.0625 145.77188ZM358.96875 147.25626L358.96875 145.6Q358.96875 145.02188 358.90625 144.58438Q358.84375 144.14688 358.70312 143.83438Q358.57812 143.52188 358.375 143.33438Q358.1875 143.14688 357.9375 143.05313Q357.6875 142.95938 357.35938 142.95938Q356.98438 142.95938 356.67188 143.1Q356.375 143.24063 356.17188 143.55313Q355.96875 143.86563 355.85938 144.38126Q355.76562 144.88126 355.76562 145.6L355.76562 147.25626Q355.76562 147.83438 355.82812 148.27188Q355.90625 148.70938 356.03125 149.0375Q356.17188 149.35 356.35938 149.55313Q356.5625 149.75626 356.8125 149.85Q357.0625 149.94376 357.375 149.94376Q357.78125 149.94376 358.07812 149.80313Q358.375 149.64688 358.57812 149.31876Q358.78125 148.99063 358.875 148.49063Q358.96875 147.975 358.96875 147.25626ZM362.8125 149.42813L362.8125 150.30313Q362.8125 150.85 362.53125 151.44376Q362.26562 152.0375 361.78125 152.42813L361.17188 152.00626Q361.35938 151.74063 361.48438 151.475Q361.60938 151.20938 361.67188 150.92813Q361.75 150.64688 361.75 150.31876L361.75 149.42813L362.8125 149.42813ZM365.29688 145.92813L366.0625 145.92813Q366.64062 145.92813 367.0 145.74063Q367.375 145.5375 367.5625 145.20938Q367.75 144.88126 367.75 144.45938Q367.75 143.975 367.57812 143.64688Q367.42188 143.30313 367.09375 143.13126Q366.76562 142.95938 366.26562 142.95938Q365.79688 142.95938 365.45312 143.14688Q365.10938 143.31876 364.90625 143.64688Q364.71875 143.975 364.71875 144.42813L363.625 144.42813Q363.625 143.77188 363.95312 143.24063Q364.28125 142.70938 364.875 142.39688Q365.46875 142.06876 366.26562 142.06876Q367.03125 142.06876 367.60938 142.35Q368.1875 142.61563 368.51562 143.1625Q368.84375 143.69376 368.84375 144.49063Q368.84375 144.81876 368.6875 145.17813Q368.53125 145.5375 368.21875 145.86563Q367.90625 146.17813 367.40625 146.38126Q366.92188 146.58438 366.21875 146.58438L365.29688 146.58438L365.29688 145.92813ZM365.29688 146.81876L365.29688 146.1625L366.21875 146.1625Q367.03125 146.1625 367.5625 146.36563Q368.09375 146.55313 368.40625 146.88126Q368.71875 147.19376 368.84375 147.58438Q368.96875 147.95938 368.96875 148.35Q368.96875 148.94376 368.76562 149.4125Q368.5625 149.86563 368.1875 150.19376Q367.82812 150.50626 367.32812 150.67813Q366.84375 150.85 366.26562 150.85Q365.70312 150.85 365.21875 150.69376Q364.73438 150.52188 364.35938 150.225Q363.98438 149.92813 363.76562 149.49063Q363.5625 149.0375 363.5625 148.475L364.64062 148.475Q364.64062 148.9125 364.82812 149.25626Q365.03125 149.58438 365.39062 149.77188Q365.76562 149.94376 366.26562 149.94376Q366.76562 149.94376 367.125 149.77188Q367.48438 149.6 367.67188 149.25626Q367.875 148.89688 367.875 148.36563Q367.875 147.83438 367.65625 147.49063Q367.4375 147.14688 367.01562 146.99063Q366.60938 146.81876 366.0625 146.81876L365.29688 146.81876Z" fill-rule="nonzero"/><path stroke="#cccccc" stroke-width="1.0" stroke-linecap="butt" d="M573.7 305.0C573.7 193.60417 483.39584 103.3 372.0 103.3C260.60416 103.3 170.3 193.60417 170.3 305.0C170.3 416.39584 260.60416 506.7 372.0 506.7C483.39584 506.7 573.7 416.39584 573.7 305.0" fill-rule="nonzero"/><path fill="#000000" d="M360.0625 95.34688L360.0625 96.65938Q360.0625 97.70625 359.875 98.425Q359.6875 99.14375 359.32812 99.58125Q358.98438 100.01875 358.48438 100.22188Q358.0 100.425 357.375 100.425Q356.89062 100.425 356.46875 100.3Q356.04688 100.175 355.71875 99.90938Q355.39062 99.62813 355.15625 99.19063Q354.92188 98.75313 354.79688 98.12813Q354.67188 97.4875 354.67188 96.65938L354.67188 95.34688Q354.67188 94.3 354.85938 93.59688Q355.0625 92.89375 355.40625 92.45625Q355.76562 92.01875 356.25 91.83125Q356.75 91.64375 357.35938 91.64375Q357.85938 91.64375 358.28125 91.76875Q358.70312 91.89375 359.03125 92.15938Q359.35938 92.40938 359.57812 92.84688Q359.8125 93.26875 359.9375 93.89375Q360.0625 94.51875 360.0625 95.34688ZM358.96875 96.83125L358.96875 95.175Q358.96875 94.59688 358.90625 94.15938Q358.84375 93.72188 358.70312 93.40938Q358.57812 93.09688 358.375 92.90938Q358.1875 92.72188 357.9375 92.62813Q357.6875 92.53438 357.35938 92.53438Q356.98438 92.53438 356.67188 92.675Q356.375 92.81563 356.17188 93.12813Q355.96875 93.44063 355.85938 93.95625Q355.76562 94.45625 355.76562 95.175L355.76562 96.83125Q355.76562 97.40938 355.82812 97.84688Q355.90625 98.28438 356.03125 98.6125Q356.17188 98.925 356.35938 99.12813Q356.5625 99.33125 356.8125 99.425Q357.0625 99.51875 357.375 99.51875Q357.78125 99.51875 358.07812 99.37813Q358.375 99.22188 358.57812 98.89375Q358.78125 98.56563 358.875 98.06563Q358.96875 97.55 358.96875 96.83125ZM362.8125 99.00313L362.8125 99.87813Q362.8125 100.425 362.53125 101.01875Q362.26562 101.6125 361.78125 102.00313L361.17188 101.58125Q361.35938 101.31563 361.48438 101.05Q361.60938 100.78438 361.67188 100.50313Q361.75 100.22188 361.75 99.89375L361.75 99.00313L362.8125 99.00313ZM369.46875 97.425L369.46875 98.31563L363.3125 98.31563L363.3125 97.675L367.125 91.76875L368.01562 91.76875L367.0625 93.47188L364.54688 97.425L369.46875 97.425ZM368.28125 91.76875L368.28125 100.3L367.20312 100.3L367.20312 91.76875L368.28125 91.76875Z" fill-rule="nonzero"/><path stroke="#cccccc" stroke-width="1.0" stroke-linecap="butt" d="M372.0 305.0L372.0 103.0" fill-rule="nonzero"/><path fill="#000000" d="M342.64062 82.78125L343.76562 82.78125Q343.67188 83.59375 343.29688 84.234375Q342.92188 84.875 342.23438 85.25Q341.5625 85.625 340.53125 85.625Q339.78125 85.625 339.17188 85.34375Q338.5625 85.046875 338.10938 84.53125Q337.67188 84.015625 337.4375 83.296875Q337.20312 82.5625 337.20312 81.65625L337.20312 80.8125Q337.20312 79.921875 337.4375 79.1875Q337.67188 78.453125 338.125 77.9375Q338.57812 77.40625 339.20312 77.125Q339.84375 76.84375 340.625 76.84375Q341.59375 76.84375 342.26562 77.21875Q342.9375 77.578125 343.29688 78.21875Q343.67188 78.859375 343.76562 79.703125L342.64062 79.703125Q342.5625 79.109375 342.32812 78.6875Q342.10938 78.25 341.70312 78.015625Q341.29688 77.78125 340.625 77.78125Q340.0625 77.78125 339.625 78.0Q339.20312 78.203125 338.90625 78.609375Q338.625 79.0 338.46875 79.5625Q338.32812 80.125 338.32812 80.796875L338.32812 81.65625Q338.32812 82.28125 338.45312 82.84375Q338.59375 83.390625 338.85938 83.8125Q339.125 84.21875 339.54688 84.46875Q339.96875 84.703125 340.53125 84.703125Q341.25 84.703125 341.67188 84.46875Q342.10938 84.234375 342.32812 83.8125Q342.54688 83.390625 342.64062 82.78125ZM349.0625 84.421875L349.0625 81.15625Q349.0625 80.78125 348.90625 80.5Q348.76562 80.21875 348.46875 80.078125Q348.17188 79.921875 347.73438 79.921875Q347.3125 79.921875 347.0 80.0625Q346.70312 80.203125 346.53125 80.4375Q346.35938 80.65625 346.35938 80.921875L345.28125 80.921875Q345.28125 80.578125 345.45312 80.25Q345.625 79.90625 345.95312 79.640625Q346.28125 79.359375 346.75 79.203125Q347.21875 79.046875 347.79688 79.046875Q348.48438 79.046875 349.01562 79.28125Q349.54688 79.515625 349.84375 79.984375Q350.15625 80.453125 350.15625 81.15625L350.15625 84.109375Q350.15625 84.4375 350.20312 84.796875Q350.26562 85.140625 350.375 85.40625L350.375 85.5L349.23438 85.5Q349.15625 85.3125 349.10938 85.0Q349.0625 84.6875 349.0625 84.421875ZM349.25 81.65625L349.26562 82.421875L348.17188 82.421875Q347.70312 82.421875 347.34375 82.5Q346.98438 82.5625 346.73438 82.71875Q346.48438 82.859375 346.35938 83.078125Q346.23438 83.296875 346.23438 83.59375Q346.23438 83.890625 346.35938 84.140625Q346.5 84.375 346.76562 84.53125Q347.04688 84.671875 347.4375 84.671875Q347.9375 84.671875 348.3125 84.46875Q348.70312 84.25 348.92188 83.953125Q349.15625 83.640625 349.17188 83.34375L349.64062 83.875Q349.59375 84.109375 349.40625 84.421875Q349.23438 84.71875 348.92188 85.0Q348.625 85.265625 348.20312 85.453125Q347.79688 85.625 347.28125 85.625Q346.64062 85.625 346.15625 85.375Q345.67188 85.109375 345.40625 84.6875Q345.14062 84.265625 345.14062 83.734375Q345.14062 83.21875 345.32812 82.84375Q345.53125 82.453125 345.90625 82.1875Q346.28125 81.921875 346.8125 81.796875Q347.34375 81.65625 348.0 81.65625L349.25 81.65625ZM353.40625 80.15625L353.40625 85.5L352.32812 85.5L352.32812 79.15625L353.375 79.15625L353.40625 80.15625ZM355.39062 79.125L355.39062 80.125Q355.25 80.109375 355.125 80.09375Q355.01562 80.078125 354.85938 80.078125Q354.48438 80.078125 354.1875 80.203125Q353.90625 80.3125 353.70312 80.53125Q353.51562 80.734375 353.39062 81.03125Q353.28125 81.328125 353.25 81.671875L352.9375 81.84375Q352.9375 81.265625 353.04688 80.765625Q353.17188 80.265625 353.40625 79.875Q353.65625 79.484375 354.01562 79.265625Q354.39062 79.046875 354.90625 79.046875Q355.03125 79.046875 355.17188 79.078125Q355.32812 79.09375 355.39062 79.125ZM358.10938 84.84375L359.875 79.15625L361.03125 79.15625L358.48438 86.484375Q358.40625 86.71875 358.25 86.984375Q358.10938 87.265625 357.89062 87.5Q357.67188 87.75 357.35938 87.90625Q357.04688 88.0625 356.60938 88.0625Q356.48438 88.0625 356.28125 88.015625Q356.07812 87.984375 356.0 87.96875L356.0 87.09375Q356.04688 87.09375 356.14062 87.09375Q356.25 87.109375 356.28125 87.109375Q356.65625 87.109375 356.90625 87.015625Q357.17188 86.921875 357.34375 86.6875Q357.53125 86.46875 357.65625 86.078125L358.10938 84.84375ZM356.8125 79.15625L358.45312 84.078125L358.73438 85.21875L357.96875 85.625L355.625 79.15625L356.8125 79.15625ZM362.04688 82.40625L362.04688 82.265625Q362.04688 81.578125 362.23438 81.0Q362.4375 80.40625 362.8125 79.96875Q363.1875 79.53125 363.71875 79.296875Q364.25 79.046875 364.92188 79.046875Q365.57812 79.046875 366.10938 79.296875Q366.65625 79.53125 367.03125 79.96875Q367.40625 80.40625 367.60938 81.0Q367.8125 81.578125 367.8125 82.265625L367.8125 82.40625Q367.8125 83.078125 367.60938 83.671875Q367.40625 84.25 367.03125 84.6875Q366.65625 85.125 366.125 85.375Q365.59375 85.625 364.92188 85.625Q364.26562 85.625 363.71875 85.375Q363.1875 85.125 362.8125 84.6875Q362.4375 84.25 362.23438 83.671875Q362.04688 83.078125 362.04688 82.40625ZM363.125 82.265625L363.125 82.40625Q363.125 82.875 363.23438 83.296875Q363.34375 83.71875 363.5625 84.046875Q363.79688 84.359375 364.14062 84.546875Q364.48438 84.71875 364.92188 84.71875Q365.375 84.71875 365.70312 84.546875Q366.04688 84.359375 366.26562 84.046875Q366.5 83.71875 366.60938 83.296875Q366.71875 82.875 366.71875 82.40625L366.71875 82.265625Q366.71875 81.796875 366.60938 81.375Q366.5 80.953125 366.26562 80.640625Q366.04688 80.3125 365.70312 80.125Q365.375 79.9375 364.92188 79.9375Q364.46875 79.9375 364.125 80.125Q363.79688 80.3125 363.5625 80.640625Q363.34375 80.953125 363.23438 81.375Q363.125 81.796875 363.125 82.265625ZM370.40625 80.375L370.40625 87.9375L369.32812 87.9375L369.32812 79.15625L370.3125 79.15625L370.40625 80.375ZM374.6875 82.28125L374.6875 82.40625Q374.6875 83.09375 374.51562 83.6875Q374.35938 84.265625 374.04688 84.703125Q373.73438 85.140625 373.26562 85.390625Q372.8125 85.625 372.21875 85.625Q371.625 85.625 371.15625 85.421875Q370.6875 85.21875 370.35938 84.84375Q370.04688 84.453125 369.85938 83.921875Q369.67188 83.390625 369.59375 82.71875L369.59375 82.0625Q369.67188 81.359375 369.85938 80.8125Q370.04688 80.25 370.35938 79.859375Q370.6875 79.453125 371.14062 79.25Q371.60938 79.046875 372.20312 79.046875Q372.79688 79.046875 373.26562 79.28125Q373.73438 79.5 374.04688 79.9375Q374.35938 80.359375 374.51562 80.953125Q374.6875 81.546875 374.6875 82.28125ZM373.59375 82.40625L373.59375 82.28125Q373.59375 81.796875 373.48438 81.390625Q373.39062 80.96875 373.1875 80.65625Q372.98438 80.328125 372.65625 80.140625Q372.32812 79.953125 371.89062 79.953125Q371.48438 79.953125 371.17188 80.09375Q370.875 80.234375 370.65625 80.484375Q370.45312 80.71875 370.3125 81.015625Q370.1875 81.3125 370.125 81.640625L370.125 83.15625Q370.23438 83.5625 370.4375 83.921875Q370.65625 84.28125 371.0 84.5Q371.35938 84.71875 371.90625 84.71875Q372.34375 84.71875 372.65625 84.546875Q372.98438 84.359375 373.1875 84.046875Q373.39062 83.71875 373.48438 83.296875Q373.59375 82.875 373.59375 82.40625ZM377.40625 76.5L377.40625 85.5L376.32812 85.5L376.32812 76.5L377.40625 76.5ZM377.15625 82.09375L376.70312 82.078125Q376.70312 81.421875 376.89062 80.875Q377.07812 80.3125 377.42188 79.90625Q377.76562 79.5 378.23438 79.28125Q378.70312 79.046875 379.28125 79.046875Q379.75 79.046875 380.125 79.171875Q380.5 79.296875 380.76562 79.578125Q381.03125 79.84375 381.17188 80.28125Q381.3125 80.71875 381.3125 81.34375L381.3125 85.5L380.21875 85.5L380.21875 81.328125Q380.21875 80.828125 380.07812 80.53125Q379.9375 80.234375 379.65625 80.09375Q379.375 79.953125 378.95312 79.953125Q378.54688 79.953125 378.21875 80.125Q377.89062 80.296875 377.65625 80.59375Q377.42188 80.890625 377.28125 81.28125Q377.15625 81.65625 377.15625 82.09375ZM385.10938 84.84375L386.875 79.15625L388.03125 79.15625L385.48438 86.484375Q385.40625 86.71875 385.25 86.984375Q385.10938 87.265625 384.89062 87.5Q384.67188 87.75 384.35938 87.90625Q384.04688 88.0625 383.60938 88.0625Q383.48438 88.0625 383.28125 88.015625Q383.07812 87.984375 383.0 87.96875L383.0 87.09375Q383.04688 87.09375 383.14062 87.09375Q383.25 87.109375 383.28125 87.109375Q383.65625 87.109375 383.90625 87.015625Q384.17188 86.921875 384.34375 86.6875Q384.53125 86.46875 384.65625 86.078125L385.10938 84.84375ZM383.8125 79.15625L385.45312 84.078125L385.73438 85.21875L384.96875 85.625L382.625 79.15625L383.8125 79.15625ZM390.5 76.5L390.5 85.5L389.42188 85.5L389.42188 76.5L390.5 76.5ZM393.5 76.5L393.5 85.5L392.42188 85.5L392.42188 76.5L393.5 76.5ZM397.95312 85.625Q397.29688 85.625 396.75 85.40625Q396.21875 85.171875 395.82812 84.765625Q395.45312 84.34375 395.25 83.78125Q395.04688 83.21875 395.04688 82.546875L395.04688 82.3125Q395.04688 81.53125 395.26562 80.921875Q395.5 80.3125 395.89062 79.890625Q396.28125 79.46875 396.78125 79.265625Q397.28125 79.046875 397.8125 79.046875Q398.5 79.046875 398.98438 79.28125Q399.48438 79.515625 399.79688 79.9375Q400.125 80.34375 400.26562 80.921875Q400.42188 81.484375 400.42188 82.140625L400.42188 82.640625L395.6875 82.640625L395.6875 81.75L399.34375 81.75L399.34375 81.671875Q399.3125 81.25 399.15625 80.859375Q399.01562 80.453125 398.6875 80.203125Q398.375 79.9375 397.8125 79.9375Q397.45312 79.9375 397.14062 80.09375Q396.82812 80.25 396.59375 80.5625Q396.375 80.859375 396.25 81.296875Q396.14062 81.734375 396.14062 82.3125L396.14062 82.546875Q396.14062 83.0 396.26562 83.40625Q396.39062 83.796875 396.625 84.09375Q396.875 84.390625 397.21875 84.5625Q397.57812 84.734375 398.01562 84.734375Q398.59375 84.734375 398.98438 84.5Q399.39062 84.265625 399.6875 83.875L400.34375 84.390625Q400.14062 84.703125 399.8125 84.984375Q399.5 85.265625 399.03125 85.453125Q398.57812 85.625 397.95312 85.625ZM402.40625 80.515625L402.40625 85.5L401.32812 85.5L401.32812 79.15625L402.35938 79.15625L402.40625 80.515625ZM402.15625 82.09375L401.70312 82.078125Q401.70312 81.421875 401.89062 80.875Q402.07812 80.3125 402.42188 79.90625Q402.76562 79.5 403.23438 79.28125Q403.70312 79.046875 404.28125 79.046875Q404.75 79.046875 405.125 79.171875Q405.5 79.296875 405.76562 79.578125Q406.03125 79.84375 406.17188 80.28125Q406.3125 80.71875 406.3125 81.34375L406.3125 85.5L405.21875 85.5L405.21875 81.328125Q405.21875 80.828125 405.07812 80.53125Q404.9375 80.234375 404.65625 80.09375Q404.375 79.953125 403.95312 79.953125Q403.54688 79.953125 403.21875 80.125Q402.89062 80.296875 402.65625 80.59375Q402.42188 80.890625 402.28125 81.28125Q402.15625 81.65625 402.15625 82.09375Z" fill-rule="nonzero"/><path stroke="#cccccc" stroke-width="1.0" stroke-linecap="butt" d="M372.0 305.0L547.0 204.0" fill-rule="nonzero"/><path fill="#000000" d="M547.84375 188.96875L548.9375 188.96875L551.7344 195.92188L554.53125 188.96875L555.625 188.96875L552.15625 197.5L551.3125 197.5L547.84375 188.96875ZM547.4844 188.96875L548.4531 188.96875L548.6094 194.17188L548.6094 197.5L547.4844 197.5L547.4844 188.96875ZM555.0156 188.96875L555.9844 188.96875L555.9844 197.5L554.8594 197.5L554.8594 194.17188L555.0156 188.96875ZM559.1094 196.84375L560.875 191.15625L562.03125 191.15625L559.4844 198.48438Q559.40625 198.71875 559.25 198.98438Q559.1094 199.26562 558.8906 199.5Q558.6719 199.75 558.3594 199.90625Q558.0469 200.0625 557.6094 200.0625Q557.4844 200.0625 557.28125 200.01562Q557.0781 199.98438 557.0 199.96875L557.0 199.09375Q557.0469 199.09375 557.1406 199.09375Q557.25 199.10938 557.28125 199.10938Q557.65625 199.10938 557.90625 199.01562Q558.1719 198.92188 558.34375 198.6875Q558.53125 198.46875 558.65625 198.07812L559.1094 196.84375ZM557.8125 191.15625L559.4531 196.07812L559.7344 197.21875L558.96875 197.625L556.625 191.15625L557.8125 191.15625ZM564.40625 192.15625L564.40625 197.5L563.3281 197.5L563.3281 191.15625L564.375 191.15625L564.40625 192.15625ZM566.3906 191.125L566.3906 192.125Q566.25 192.10938 566.125 192.09375Q566.0156 192.07812 565.8594 192.07812Q565.4844 192.07812 565.1875 192.20312Q564.90625 192.3125 564.7031 192.53125Q564.5156 192.73438 564.3906 193.03125Q564.28125 193.32812 564.25 193.67188L563.9375 193.84375Q563.9375 193.26562 564.0469 192.76562Q564.1719 192.26562 564.40625 191.875Q564.65625 191.48438 565.0156 191.26562Q565.3906 191.04688 565.90625 191.04688Q566.03125 191.04688 566.1719 191.07812Q566.3281 191.09375 566.3906 191.125ZM569.8594 196.71875Q570.25 196.71875 570.5781 196.5625Q570.90625 196.40625 571.1094 196.14062Q571.3281 195.85938 571.3594 195.5L572.3906 195.5Q572.3594 196.0625 572.0 196.54688Q571.65625 197.03125 571.09375 197.32812Q570.53125 197.625 569.8594 197.625Q569.15625 197.625 568.625 197.375Q568.09375 197.10938 567.7344 196.67188Q567.3906 196.23438 567.21875 195.67188Q567.0469 195.09375 567.0469 194.45312L567.0469 194.20312Q567.0469 193.5625 567.21875 193.0Q567.3906 192.42188 567.7344 191.98438Q568.09375 191.54688 568.625 191.29688Q569.15625 191.04688 569.8594 191.04688Q570.6094 191.04688 571.15625 191.34375Q571.71875 191.64062 572.03125 192.17188Q572.3594 192.6875 572.3906 193.34375L571.3594 193.34375Q571.3281 192.95312 571.1406 192.64062Q570.9531 192.3125 570.625 192.125Q570.2969 191.9375 569.8594 191.9375Q569.3594 191.9375 569.0156 192.14062Q568.6875 192.32812 568.4844 192.65625Q568.2969 192.98438 568.2031 193.39062Q568.125 193.79688 568.125 194.20312L568.125 194.45312Q568.125 194.875 568.2031 195.28125Q568.2969 195.67188 568.4844 196.0Q568.6875 196.32812 569.0156 196.53125Q569.3594 196.71875 569.8594 196.71875ZM575.9531 197.625Q575.2969 197.625 574.75 197.40625Q574.21875 197.17188 573.8281 196.76562Q573.4531 196.34375 573.25 195.78125Q573.0469 195.21875 573.0469 194.54688L573.0469 194.3125Q573.0469 193.53125 573.2656 192.92188Q573.5 192.3125 573.8906 191.89062Q574.28125 191.46875 574.78125 191.26562Q575.28125 191.04688 575.8125 191.04688Q576.5 191.04688 576.9844 191.28125Q577.4844 191.51562 577.7969 191.9375Q578.125 192.34375 578.2656 192.92188Q578.4219 193.48438 578.4219 194.14062L578.4219 194.64062L573.6875 194.64062L573.6875 193.75L577.34375 193.75L577.34375 193.67188Q577.3125 193.25 577.15625 192.85938Q577.0156 192.45312 576.6875 192.20312Q576.375 191.9375 575.8125 191.9375Q575.4531 191.9375 575.1406 192.09375Q574.8281 192.25 574.59375 192.5625Q574.375 192.85938 574.25 193.29688Q574.1406 193.73438 574.1406 194.3125L574.1406 194.54688Q574.1406 195.0 574.2656 195.40625Q574.3906 195.79688 574.625 196.09375Q574.875 196.39062 575.21875 196.5625Q575.5781 196.73438 576.0156 196.73438Q576.59375 196.73438 576.9844 196.5Q577.3906 196.26562 577.6875 195.875L578.34375 196.39062Q578.1406 196.70312 577.8125 196.98438Q577.5 197.26562 577.03125 197.45312Q576.5781 197.625 575.9531 197.625ZM580.40625 192.51562L580.40625 197.5L579.3281 197.5L579.3281 191.15625L580.3594 191.15625L580.40625 192.51562ZM580.15625 194.09375L579.7031 194.07812Q579.7031 193.42188 579.8906 192.875Q580.0781 192.3125 580.4219 191.90625Q580.7656 191.5 581.2344 191.28125Q581.7031 191.04688 582.28125 191.04688Q582.75 191.04688 583.125 191.17188Q583.5 191.29688 583.7656 191.57812Q584.03125 191.84375 584.1719 192.28125Q584.3125 192.71875 584.3125 193.34375L584.3125 197.5L583.21875 197.5L583.21875 193.32812Q583.21875 192.82812 583.0781 192.53125Q582.9375 192.23438 582.65625 192.09375Q582.375 191.95312 581.9531 191.95312Q581.5469 191.95312 581.21875 192.125Q580.8906 192.29688 580.65625 192.59375Q580.4219 192.89062 580.28125 193.28125Q580.15625 193.65625 580.15625 194.09375Z" fill-rule="nonzero"/><path stroke="#cccccc" stroke-width="1.0" stroke-linecap="butt" d="M372.0 305.0L547.0 406.0" fill-rule="nonzero"/><path fill="#000000" d="M548.6719 420.57812L548.6719 421.5L544.40625 421.5L544.40625 420.57812L548.6719 420.57812ZM544.625 412.96875L544.625 421.5L543.4844 421.5L543.4844 412.96875L544.625 412.96875ZM550.5 415.15625L550.5 421.5L549.4219 421.5L549.4219 415.15625L550.5 415.15625ZM549.3281 413.48438Q549.3281 413.21875 549.4844 413.03125Q549.65625 412.84375 549.96875 412.84375Q550.28125 412.84375 550.4375 413.03125Q550.6094 413.21875 550.6094 413.48438Q550.6094 413.73438 550.4375 413.92188Q550.28125 414.09375 549.96875 414.09375Q549.65625 414.09375 549.4844 413.92188Q549.3281 413.73438 549.3281 413.48438ZM553.40625 416.42188L553.40625 421.5L552.3125 421.5L552.3125 415.15625L553.34375 415.15625L553.40625 416.42188ZM553.1875 418.09375L552.6719 418.07812Q552.6875 417.42188 552.84375 416.875Q553.0156 416.3125 553.3281 415.90625Q553.65625 415.5 554.1406 415.28125Q554.625 415.04688 555.25 415.04688Q555.7031 415.04688 556.0781 415.17188Q556.4531 415.29688 556.71875 415.5625Q557.0 415.82812 557.1406 416.25Q557.2969 416.67188 557.2969 417.28125L557.2969 421.5L556.21875 421.5L556.21875 417.32812Q556.21875 416.82812 556.0469 416.53125Q555.8906 416.23438 555.5781 416.09375Q555.28125 415.95312 554.8594 415.95312Q554.3906 415.95312 554.0625 416.125Q553.7344 416.29688 553.5469 416.59375Q553.3594 416.89062 553.2656 417.28125Q553.1875 417.65625 553.1875 418.09375ZM557.2969 417.48438L556.5625 417.71875Q556.5625 417.1875 556.7344 416.71875Q556.90625 416.23438 557.21875 415.85938Q557.5469 415.48438 558.0156 415.26562Q558.4844 415.04688 559.0781 415.04688Q559.59375 415.04688 559.9844 415.1875Q560.3906 415.3125 560.65625 415.59375Q560.9219 415.875 561.0625 416.3125Q561.2031 416.73438 561.2031 417.32812L561.2031 421.5L560.125 421.5L560.125 417.32812Q560.125 416.78125 559.9531 416.5Q559.78125 416.20312 559.4844 416.07812Q559.1875 415.95312 558.7656 415.95312Q558.40625 415.95312 558.125 416.07812Q557.8594 416.20312 557.6719 416.42188Q557.4844 416.625 557.3906 416.90625Q557.2969 417.1875 557.2969 417.48438ZM563.0469 418.40625L563.0469 418.26562Q563.0469 417.57812 563.2344 417.0Q563.4375 416.40625 563.8125 415.96875Q564.1875 415.53125 564.71875 415.29688Q565.25 415.04688 565.9219 415.04688Q566.5781 415.04688 567.1094 415.29688Q567.65625 415.53125 568.03125 415.96875Q568.40625 416.40625 568.6094 417.0Q568.8125 417.57812 568.8125 418.26562L568.8125 418.40625Q568.8125 419.07812 568.6094 419.67188Q568.40625 420.25 568.03125 420.6875Q567.65625 421.125 567.125 421.375Q566.59375 421.625 565.9219 421.625Q565.2656 421.625 564.71875 421.375Q564.1875 421.125 563.8125 420.6875Q563.4375 420.25 563.2344 419.67188Q563.0469 419.07812 563.0469 418.40625ZM564.125 418.26562L564.125 418.40625Q564.125 418.875 564.2344 419.29688Q564.34375 419.71875 564.5625 420.04688Q564.7969 420.35938 565.1406 420.54688Q565.4844 420.71875 565.9219 420.71875Q566.375 420.71875 566.7031 420.54688Q567.0469 420.35938 567.2656 420.04688Q567.5 419.71875 567.6094 419.29688Q567.71875 418.875 567.71875 418.40625L567.71875 418.26562Q567.71875 417.79688 567.6094 417.375Q567.5 416.95312 567.2656 416.64062Q567.0469 416.3125 566.7031 416.125Q566.375 415.9375 565.9219 415.9375Q565.46875 415.9375 565.125 416.125Q564.7969 416.3125 564.5625 416.64062Q564.34375 416.95312 564.2344 417.375Q564.125 417.79688 564.125 418.26562ZM571.40625 416.51562L571.40625 421.5L570.3281 421.5L570.3281 415.15625L571.3594 415.15625L571.40625 416.51562ZM571.15625 418.09375L570.7031 418.07812Q570.7031 417.42188 570.8906 416.875Q571.0781 416.3125 571.4219 415.90625Q571.7656 415.5 572.2344 415.28125Q572.7031 415.04688 573.28125 415.04688Q573.75 415.04688 574.125 415.17188Q574.5 415.29688 574.7656 415.57812Q575.03125 415.84375 575.1719 416.28125Q575.3125 416.71875 575.3125 417.34375L575.3125 421.5L574.21875 421.5L574.21875 417.32812Q574.21875 416.82812 574.0781 416.53125Q573.9375 416.23438 573.65625 416.09375Q573.375 415.95312 572.9531 415.95312Q572.5469 415.95312 572.21875 416.125Q571.8906 416.29688 571.65625 416.59375Q571.4219 416.89062 571.28125 417.28125Q571.15625 417.65625 571.15625 418.09375ZM579.9531 421.625Q579.2969 421.625 578.75 421.40625Q578.21875 421.17188 577.8281 420.76562Q577.4531 420.34375 577.25 419.78125Q577.0469 419.21875 577.0469 418.54688L577.0469 418.3125Q577.0469 417.53125 577.2656 416.92188Q577.5 416.3125 577.8906 415.89062Q578.28125 415.46875 578.78125 415.26562Q579.28125 415.04688 579.8125 415.04688Q580.5 415.04688 580.9844 415.28125Q581.4844 415.51562 581.7969 415.9375Q582.125 416.34375 582.2656 416.92188Q582.4219 417.48438 582.4219 418.14062L582.4219 418.64062L577.6875 418.64062L577.6875 417.75L581.34375 417.75L581.34375 417.67188Q581.3125 417.25 581.15625 416.85938Q581.0156 416.45312 580.6875 416.20312Q580.375 415.9375 579.8125 415.9375Q579.4531 415.9375 579.1406 416.09375Q578.8281 416.25 578.59375 416.5625Q578.375 416.85938 578.25 417.29688Q578.1406 417.73438 578.1406 418.3125L578.1406 418.54688Q578.1406 419.0 578.2656 419.40625Q578.3906 419.79688 578.625 420.09375Q578.875 420.39062 579.21875 420.5625Q579.5781 420.73438 580.0156 420.73438Q580.59375 420.73438 580.9844 420.5Q581.3906 420.26562 581.6875 419.875L582.34375 420.39062Q582.1406 420.70312 581.8125 420.98438Q581.5 421.26562 581.03125 421.45312Q580.5781 421.625 579.9531 421.625ZM584.40625 416.51562L584.40625 421.5L583.3281 421.5L583.3281 415.15625L584.3594 415.15625L584.40625 416.51562ZM584.15625 418.09375L583.7031 418.07812Q583.7031 417.42188 583.8906 416.875Q584.0781 416.3125 584.4219 415.90625Q584.7656 415.5 585.2344 415.28125Q585.7031 415.04688 586.28125 415.04688Q586.75 415.04688 587.125 415.17188Q587.5 415.29688 587.7656 415.57812Q588.03125 415.84375 588.1719 416.28125Q588.3125 416.71875 588.3125 417.34375L588.3125 421.5L587.21875 421.5L587.21875 417.32812Q587.21875 416.82812 587.0781 416.53125Q586.9375 416.23438 586.65625 416.09375Q586.375 415.95312 585.9531 415.95312Q585.5469 415.95312 585.21875 416.125Q584.8906 416.29688 584.65625 416.59375Q584.4219 416.89062 584.28125 417.28125Q584.15625 417.65625 584.15625 418.09375Z" fill-rule="nonzero"/><path stroke="#cccccc" stroke-width="1.0" stroke-linecap="butt" d="M372.0 305.0L372.0 507.0" fill-rule="nonzero"/><path fill="#000000" d="M342.59375 530.5625L342.59375 530.4375Q342.59375 529.6875 342.75 529.0781Q342.92188 528.4531 343.23438 528.0Q343.54688 527.5469 344.0 527.2969Q344.46875 527.0469 345.0625 527.0469Q345.51562 527.0469 345.875 527.1875Q346.25 527.3125 346.53125 527.5781Q346.8125 527.8281 347.01562 528.2031Q347.21875 528.5781 347.34375 529.0625Q347.46875 529.53125 347.51562 530.09375L347.51562 530.5781Q347.45312 531.28125 347.26562 531.84375Q347.09375 532.40625 346.79688 532.8125Q346.5 533.2031 346.0625 533.4219Q345.64062 533.625 345.04688 533.625Q344.46875 533.625 344.0 533.40625Q343.54688 533.1719 343.23438 532.7656Q342.92188 532.34375 342.75 531.7969Q342.59375 531.2344 342.59375 530.5625ZM343.67188 530.4375L343.67188 530.5625Q343.67188 531.0156 343.76562 531.40625Q343.85938 531.7969 344.04688 532.09375Q344.25 532.3906 344.5625 532.5625Q344.89062 532.7344 345.32812 532.7344Q345.75 532.7344 346.04688 532.5625Q346.35938 532.375 346.5625 532.0781Q346.78125 531.78125 346.90625 531.3906Q347.04688 531.0 347.14062 530.59375L347.14062 530.2031Q347.07812 529.7656 346.9375 529.375Q346.8125 528.96875 346.59375 528.6406Q346.39062 528.3125 346.07812 528.125Q345.76562 527.9375 345.32812 527.9375Q344.89062 527.9375 344.57812 528.1406Q344.26562 528.3281 344.0625 528.6719Q343.85938 529.0156 343.76562 529.4844Q343.67188 529.9375 343.67188 530.4375ZM346.98438 527.15625L347.90625 527.15625L347.90625 531.7656Q347.90625 532.0469 347.9375 532.21875Q347.96875 532.375 348.03125 532.4844Q348.10938 532.5781 348.1875 532.625Q348.28125 532.65625 348.375 532.65625Q348.42188 532.65625 348.46875 532.6406Q348.53125 532.625 348.5625 532.6094L348.70312 533.4219Q348.51562 533.5469 348.34375 533.5781Q348.17188 533.625 347.98438 533.625Q347.70312 533.625 347.48438 533.5156Q347.28125 533.4219 347.125 533.2031Q346.96875 532.9844 346.89062 532.625Q346.8125 532.2656 346.8125 531.7656L346.8125 528.53125L346.98438 527.15625ZM352.07812 529.4219L352.07812 530.3125L349.21875 530.3125L349.21875 529.4219L352.07812 529.4219ZM358.5625 528.6406L358.5625 529.5625L353.95312 529.5625L353.95312 528.6406L358.5625 528.6406ZM354.125 524.96875L354.125 533.5L352.98438 533.5L352.98438 524.96875L354.125 524.96875ZM359.54688 524.96875L359.54688 533.5L358.42188 533.5L358.42188 524.96875L359.54688 524.96875ZM365.70312 532.03125L365.70312 527.15625L366.79688 527.15625L366.79688 533.5L365.76562 533.5L365.70312 532.03125ZM365.90625 530.7031L366.35938 530.6875Q366.35938 531.3125 366.21875 531.8594Q366.09375 532.3906 365.79688 532.78125Q365.51562 533.1719 365.03125 533.40625Q364.5625 533.625 363.89062 533.625Q363.42188 533.625 363.03125 533.4844Q362.65625 533.34375 362.375 533.0625Q362.10938 532.78125 361.95312 532.3281Q361.79688 531.875 361.79688 531.25L361.79688 527.15625L362.89062 527.15625L362.89062 531.2656Q362.89062 531.6875 362.98438 531.96875Q363.07812 532.25 363.25 532.40625Q363.42188 532.5625 363.625 532.6406Q363.82812 532.7031 364.04688 532.7031Q364.75 532.7031 365.14062 532.4375Q365.54688 532.15625 365.71875 531.7031Q365.90625 531.25 365.90625 530.7031ZM369.90625 528.4219L369.90625 533.5L368.8125 533.5L368.8125 527.15625L369.84375 527.15625L369.90625 528.4219ZM369.6875 530.09375L369.17188 530.0781Q369.1875 529.4219 369.34375 528.875Q369.51562 528.3125 369.82812 527.90625Q370.15625 527.5 370.64062 527.28125Q371.125 527.0469 371.75 527.0469Q372.20312 527.0469 372.57812 527.1719Q372.95312 527.2969 373.21875 527.5625Q373.5 527.8281 373.64062 528.25Q373.79688 528.6719 373.79688 529.28125L373.79688 533.5L372.71875 533.5L372.71875 529.3281Q372.71875 528.8281 372.54688 528.53125Q372.39062 528.2344 372.07812 528.09375Q371.78125 527.9531 371.35938 527.9531Q370.89062 527.9531 370.5625 528.125Q370.23438 528.2969 370.04688 528.59375Q369.85938 528.8906 369.76562 529.28125Q369.6875 529.65625 369.6875 530.09375ZM373.79688 529.4844L373.0625 529.71875Q373.0625 529.1875 373.23438 528.71875Q373.40625 528.2344 373.71875 527.8594Q374.04688 527.4844 374.51562 527.2656Q374.98438 527.0469 375.57812 527.0469Q376.09375 527.0469 376.48438 527.1875Q376.89062 527.3125 377.15625 527.59375Q377.42188 527.875 377.5625 528.3125Q377.70312 528.7344 377.70312 529.3281L377.70312 533.5L376.625 533.5L376.625 529.3281Q376.625 528.78125 376.45312 528.5Q376.28125 528.2031 375.98438 528.0781Q375.6875 527.9531 375.26562 527.9531Q374.90625 527.9531 374.625 528.0781Q374.35938 528.2031 374.17188 528.4219Q373.98438 528.625 373.89062 528.90625Q373.79688 529.1875 373.79688 529.4844ZM383.70312 532.03125L383.70312 527.15625L384.79688 527.15625L384.79688 533.5L383.76562 533.5L383.70312 532.03125ZM383.90625 530.7031L384.35938 530.6875Q384.35938 531.3125 384.21875 531.8594Q384.09375 532.3906 383.79688 532.78125Q383.51562 533.1719 383.03125 533.40625Q382.5625 533.625 381.89062 533.625Q381.42188 533.625 381.03125 533.4844Q380.65625 533.34375 380.375 533.0625Q380.10938 532.78125 379.95312 532.3281Q379.79688 531.875 379.79688 531.25L379.79688 527.15625L380.89062 527.15625L380.89062 531.2656Q380.89062 531.6875 380.98438 531.96875Q381.07812 532.25 381.25 532.40625Q381.42188 532.5625 381.625 532.6406Q381.82812 532.7031 382.04688 532.7031Q382.75 532.7031 383.14062 532.4375Q383.54688 532.15625 383.71875 531.7031Q383.90625 531.25 383.90625 530.7031ZM388.0 524.5L388.0 533.5L386.92188 533.5L386.92188 524.5L388.0 524.5ZM392.45312 533.625Q391.79688 533.625 391.25 533.40625Q390.71875 533.1719 390.32812 532.7656Q389.95312 532.34375 389.75 531.78125Q389.54688 531.21875 389.54688 530.5469L389.54688 530.3125Q389.54688 529.53125 389.76562 528.9219Q390.0 528.3125 390.39062 527.8906Q390.78125 527.46875 391.28125 527.2656Q391.78125 527.0469 392.3125 527.0469Q393.0 527.0469 393.48438 527.28125Q393.98438 527.5156 394.29688 527.9375Q394.625 528.34375 394.76562 528.9219Q394.92188 529.4844 394.92188 530.1406L394.92188 530.6406L390.1875 530.6406L390.1875 529.75L393.84375 529.75L393.84375 529.6719Q393.8125 529.25 393.65625 528.8594Q393.51562 528.4531 393.1875 528.2031Q392.875 527.9375 392.3125 527.9375Q391.95312 527.9375 391.64062 528.09375Q391.32812 528.25 391.09375 528.5625Q390.875 528.8594 390.75 529.2969Q390.64062 529.7344 390.64062 530.3125L390.64062 530.5469Q390.64062 531.0 390.76562 531.40625Q390.89062 531.7969 391.125 532.09375Q391.375 532.3906 391.71875 532.5625Q392.07812 532.7344 392.51562 532.7344Q393.09375 532.7344 393.48438 532.5Q393.89062 532.2656 394.1875 531.875L394.84375 532.3906Q394.64062 532.7031 394.3125 532.9844Q394.0 533.2656 393.53125 533.4531Q393.07812 533.625 392.45312 533.625ZM396.90625 528.5156L396.90625 533.5L395.82812 533.5L395.82812 527.15625L396.85938 527.15625L396.90625 528.5156ZM396.65625 530.09375L396.20312 530.0781Q396.20312 529.4219 396.39062 528.875Q396.57812 528.3125 396.92188 527.90625Q397.26562 527.5 397.73438 527.28125Q398.20312 527.0469 398.78125 527.0469Q399.25 527.0469 399.625 527.1719Q400.0 527.2969 400.26562 527.5781Q400.53125 527.84375 400.67188 528.28125Q400.8125 528.71875 400.8125 529.34375L400.8125 533.5L399.71875 533.5L399.71875 529.3281Q399.71875 528.8281 399.57812 528.53125Q399.4375 528.2344 399.15625 528.09375Q398.875 527.9531 398.45312 527.9531Q398.04688 527.9531 397.71875 528.125Q397.39062 528.2969 397.15625 528.59375Q396.92188 528.8906 396.78125 529.28125Q396.65625 529.65625 396.65625 530.09375Z" fill-rule="nonzero"/><path stroke="#cccccc" stroke-width="1.0" stroke-linecap="butt" d="M372.0 305.0L197.0 406.0" fill-rule="nonzero"/><path fill="#000000" d="M162.67188 420.57812L162.67188 421.5L158.40625 421.5L158.40625 420.57812L162.67188 420.57812ZM158.625 412.96875L158.625 421.5L157.48438 421.5L157.48438 412.96875L158.625 412.96875ZM164.5 415.15625L164.5 421.5L163.42188 421.5L163.42188 415.15625L164.5 415.15625ZM163.32812 413.48438Q163.32812 413.21875 163.48438 413.03125Q163.65625 412.84375 163.96875 412.84375Q164.28125 412.84375 164.4375 413.03125Q164.60938 413.21875 164.60938 413.48438Q164.60938 413.73438 164.4375 413.92188Q164.28125 414.09375 163.96875 414.09375Q163.65625 414.09375 163.48438 413.92188Q163.32812 413.73438 163.32812 413.48438ZM167.40625 416.51562L167.40625 421.5L166.32812 421.5L166.32812 415.15625L167.35938 415.15625L167.40625 416.51562ZM167.15625 418.09375L166.70312 418.07812Q166.70312 417.42188 166.89062 416.875Q167.07812 416.3125 167.42188 415.90625Q167.76562 415.5 168.23438 415.28125Q168.70312 415.04688 169.28125 415.04688Q169.75 415.04688 170.125 415.17188Q170.5 415.29688 170.76562 415.57812Q171.03125 415.84375 171.17188 416.28125Q171.3125 416.71875 171.3125 417.34375L171.3125 421.5L170.21875 421.5L170.21875 417.32812Q170.21875 416.82812 170.07812 416.53125Q169.9375 416.23438 169.65625 416.09375Q169.375 415.95312 168.95312 415.95312Q168.54688 415.95312 168.21875 416.125Q167.89062 416.29688 167.65625 416.59375Q167.42188 416.89062 167.28125 417.28125Q167.15625 417.65625 167.15625 418.09375ZM177.0625 420.42188L177.0625 417.15625Q177.0625 416.78125 176.90625 416.5Q176.76562 416.21875 176.46875 416.07812Q176.17188 415.92188 175.73438 415.92188Q175.3125 415.92188 175.0 416.0625Q174.70312 416.20312 174.53125 416.4375Q174.35938 416.65625 174.35938 416.92188L173.28125 416.92188Q173.28125 416.57812 173.45312 416.25Q173.625 415.90625 173.95312 415.64062Q174.28125 415.35938 174.75 415.20312Q175.21875 415.04688 175.79688 415.04688Q176.48438 415.04688 177.01562 415.28125Q177.54688 415.51562 177.84375 415.98438Q178.15625 416.45312 178.15625 417.15625L178.15625 420.10938Q178.15625 420.4375 178.20312 420.79688Q178.26562 421.14062 178.375 421.40625L178.375 421.5L177.23438 421.5Q177.15625 421.3125 177.10938 421.0Q177.0625 420.6875 177.0625 420.42188ZM177.25 417.65625L177.26562 418.42188L176.17188 418.42188Q175.70312 418.42188 175.34375 418.5Q174.98438 418.5625 174.73438 418.71875Q174.48438 418.85938 174.35938 419.07812Q174.23438 419.29688 174.23438 419.59375Q174.23438 419.89062 174.35938 420.14062Q174.5 420.375 174.76562 420.53125Q175.04688 420.67188 175.4375 420.67188Q175.9375 420.67188 176.3125 420.46875Q176.70312 420.25 176.92188 419.95312Q177.15625 419.64062 177.17188 419.34375L177.64062 419.875Q177.59375 420.10938 177.40625 420.42188Q177.23438 420.71875 176.92188 421.0Q176.625 421.26562 176.20312 421.45312Q175.79688 421.625 175.28125 421.625Q174.64062 421.625 174.15625 421.375Q173.67188 421.10938 173.40625 420.6875Q173.14062 420.26562 173.14062 419.73438Q173.14062 419.21875 173.32812 418.84375Q173.53125 418.45312 173.90625 418.1875Q174.28125 417.92188 174.8125 417.79688Q175.34375 417.65625 176.0 417.65625L177.25 417.65625ZM181.5 412.5L181.5 421.5L180.42188 421.5L180.42188 412.5L181.5 412.5ZM183.04688 418.40625L183.04688 418.26562Q183.04688 417.57812 183.23438 417.0Q183.4375 416.40625 183.8125 415.96875Q184.1875 415.53125 184.71875 415.29688Q185.25 415.04688 185.92188 415.04688Q186.57812 415.04688 187.10938 415.29688Q187.65625 415.53125 188.03125 415.96875Q188.40625 416.40625 188.60938 417.0Q188.8125 417.57812 188.8125 418.26562L188.8125 418.40625Q188.8125 419.07812 188.60938 419.67188Q188.40625 420.25 188.03125 420.6875Q187.65625 421.125 187.125 421.375Q186.59375 421.625 185.92188 421.625Q185.26562 421.625 184.71875 421.375Q184.1875 421.125 183.8125 420.6875Q183.4375 420.25 183.23438 419.67188Q183.04688 419.07812 183.04688 418.40625ZM184.125 418.26562L184.125 418.40625Q184.125 418.875 184.23438 419.29688Q184.34375 419.71875 184.5625 420.04688Q184.79688 420.35938 185.14062 420.54688Q185.48438 420.71875 185.92188 420.71875Q186.375 420.71875 186.70312 420.54688Q187.04688 420.35938 187.26562 420.04688Q187.5 419.71875 187.60938 419.29688Q187.71875 418.875 187.71875 418.40625L187.71875 418.26562Q187.71875 417.79688 187.60938 417.375Q187.5 416.95312 187.26562 416.64062Q187.04688 416.3125 186.70312 416.125Q186.375 415.9375 185.92188 415.9375Q185.46875 415.9375 185.125 416.125Q184.79688 416.3125 184.5625 416.64062Q184.34375 416.95312 184.23438 417.375Q184.125 417.79688 184.125 418.26562ZM190.04688 418.40625L190.04688 418.26562Q190.04688 417.57812 190.23438 417.0Q190.4375 416.40625 190.8125 415.96875Q191.1875 415.53125 191.71875 415.29688Q192.25 415.04688 192.92188 415.04688Q193.57812 415.04688 194.10938 415.29688Q194.65625 415.53125 195.03125 415.96875Q195.40625 416.40625 195.60938 417.0Q195.8125 417.57812 195.8125 418.26562L195.8125 418.40625Q195.8125 419.07812 195.60938 419.67188Q195.40625 420.25 195.03125 420.6875Q194.65625 421.125 194.125 421.375Q193.59375 421.625 192.92188 421.625Q192.26562 421.625 191.71875 421.375Q191.1875 421.125 190.8125 420.6875Q190.4375 420.25 190.23438 419.67188Q190.04688 419.07812 190.04688 418.40625ZM191.125 418.26562L191.125 418.40625Q191.125 418.875 191.23438 419.29688Q191.34375 419.71875 191.5625 420.04688Q191.79688 420.35938 192.14062 420.54688Q192.48438 420.71875 192.92188 420.71875Q193.375 420.71875 193.70312 420.54688Q194.04688 420.35938 194.26562 420.04688Q194.5 419.71875 194.60938 419.29688Q194.71875 418.875 194.71875 418.40625L194.71875 418.26562Q194.71875 417.79688 194.60938 417.375Q194.5 416.95312 194.26562 416.64062Q194.04688 416.3125 193.70312 416.125Q193.375 415.9375 192.92188 415.9375Q192.46875 415.9375 192.125 416.125Q191.79688 416.3125 191.5625 416.64062Q191.34375 416.95312 191.23438 417.375Q191.125 417.79688 191.125 418.26562ZM198.5 412.5L198.5 421.5L197.42188 421.5L197.42188 412.5L198.5 412.5Z" fill-rule="nonzero"/><path stroke="#cccccc" stroke-width="1.0" stroke-linecap="butt" d="M372.0 305.0L197.0 204.0" fill-rule="nonzero"/><path fill="#000000" d="M160.03125 195.34375Q160.03125 195.04688 159.9375 194.8125Q159.85938 194.57812 159.625 194.39062Q159.40625 194.20312 159.0 194.03125Q158.60938 193.85938 158.01562 193.6875Q157.375 193.5 156.85938 193.28125Q156.35938 193.04688 155.98438 192.75Q155.625 192.4375 155.4375 192.0625Q155.25 191.67188 155.25 191.17188Q155.25 190.67188 155.45312 190.25Q155.65625 189.82812 156.03125 189.51562Q156.42188 189.20312 156.95312 189.03125Q157.48438 188.84375 158.14062 188.84375Q159.10938 188.84375 159.78125 189.21875Q160.45312 189.57812 160.79688 190.17188Q161.15625 190.76562 161.15625 191.42188L160.03125 191.42188Q160.03125 190.95312 159.8125 190.57812Q159.60938 190.20312 159.1875 190.0Q158.78125 189.78125 158.14062 189.78125Q157.54688 189.78125 157.14062 189.96875Q156.75 190.14062 156.5625 190.45312Q156.375 190.76562 156.375 191.15625Q156.375 191.42188 156.48438 191.65625Q156.60938 191.875 156.84375 192.0625Q157.09375 192.25 157.46875 192.40625Q157.84375 192.5625 158.375 192.70312Q159.09375 192.90625 159.625 193.17188Q160.15625 193.42188 160.5 193.73438Q160.84375 194.04688 161.0 194.4375Q161.17188 194.82812 161.17188 195.32812Q161.17188 195.85938 160.95312 196.28125Q160.75 196.70312 160.35938 197.0Q159.96875 197.29688 159.42188 197.46875Q158.875 197.625 158.20312 197.625Q157.60938 197.625 157.03125 197.45312Q156.46875 197.28125 156.0 196.95312Q155.53125 196.625 155.25 196.15625Q154.96875 195.67188 154.96875 195.03125L156.09375 195.03125Q156.09375 195.46875 156.26562 195.78125Q156.4375 196.09375 156.73438 196.29688Q157.03125 196.5 157.40625 196.60938Q157.78125 196.70312 158.20312 196.70312Q158.79688 196.70312 159.20312 196.54688Q159.60938 196.375 159.8125 196.07812Q160.03125 195.76562 160.03125 195.34375ZM162.04688 194.40625L162.04688 194.26562Q162.04688 193.57812 162.23438 193.0Q162.4375 192.40625 162.8125 191.96875Q163.1875 191.53125 163.71875 191.29688Q164.25 191.04688 164.92188 191.04688Q165.57812 191.04688 166.10938 191.29688Q166.65625 191.53125 167.03125 191.96875Q167.40625 192.40625 167.60938 193.0Q167.8125 193.57812 167.8125 194.26562L167.8125 194.40625Q167.8125 195.07812 167.60938 195.67188Q167.40625 196.25 167.03125 196.6875Q166.65625 197.125 166.125 197.375Q165.59375 197.625 164.92188 197.625Q164.26562 197.625 163.71875 197.375Q163.1875 197.125 162.8125 196.6875Q162.4375 196.25 162.23438 195.67188Q162.04688 195.07812 162.04688 194.40625ZM163.125 194.26562L163.125 194.40625Q163.125 194.875 163.23438 195.29688Q163.34375 195.71875 163.5625 196.04688Q163.79688 196.35938 164.14062 196.54688Q164.48438 196.71875 164.92188 196.71875Q165.375 196.71875 165.70312 196.54688Q166.04688 196.35938 166.26562 196.04688Q166.5 195.71875 166.60938 195.29688Q166.71875 194.875 166.71875 194.40625L166.71875 194.26562Q166.71875 193.79688 166.60938 193.375Q166.5 192.95312 166.26562 192.64062Q166.04688 192.3125 165.70312 192.125Q165.375 191.9375 164.92188 191.9375Q164.46875 191.9375 164.125 192.125Q163.79688 192.3125 163.5625 192.64062Q163.34375 192.95312 163.23438 193.375Q163.125 193.79688 163.125 194.26562ZM170.40625 192.51562L170.40625 197.5L169.32812 197.5L169.32812 191.15625L170.35938 191.15625L170.40625 192.51562ZM170.15625 194.09375L169.70312 194.07812Q169.70312 193.42188 169.89062 192.875Q170.07812 192.3125 170.42188 191.90625Q170.76562 191.5 171.23438 191.28125Q171.70312 191.04688 172.28125 191.04688Q172.75 191.04688 173.125 191.17188Q173.5 191.29688 173.76562 191.57812Q174.03125 191.84375 174.17188 192.28125Q174.3125 192.71875 174.3125 193.34375L174.3125 197.5L173.21875 197.5L173.21875 193.32812Q173.21875 192.82812 173.07812 192.53125Q172.9375 192.23438 172.65625 192.09375Q172.375 191.95312 171.95312 191.95312Q171.54688 191.95312 171.21875 192.125Q170.89062 192.29688 170.65625 192.59375Q170.42188 192.89062 170.28125 193.28125Q170.15625 193.65625 170.15625 194.09375ZM180.01562 195.8125Q180.01562 195.57812 179.90625 195.375Q179.8125 195.17188 179.5 195.01562Q179.1875 194.84375 178.5625 194.71875Q178.03125 194.60938 177.60938 194.46875Q177.1875 194.3125 176.89062 194.09375Q176.59375 193.875 176.4375 193.57812Q176.28125 193.28125 176.28125 192.89062Q176.28125 192.51562 176.4375 192.1875Q176.60938 191.84375 176.90625 191.59375Q177.21875 191.32812 177.65625 191.1875Q178.09375 191.04688 178.625 191.04688Q179.39062 191.04688 179.92188 191.3125Q180.46875 191.57812 180.75 192.03125Q181.03125 192.48438 181.03125 193.01562L179.95312 193.01562Q179.95312 192.76562 179.79688 192.51562Q179.64062 192.26562 179.34375 192.10938Q179.04688 191.9375 178.625 191.9375Q178.17188 191.9375 177.89062 192.07812Q177.60938 192.20312 177.48438 192.42188Q177.35938 192.625 177.35938 192.85938Q177.35938 193.04688 177.42188 193.1875Q177.48438 193.3125 177.64062 193.4375Q177.79688 193.54688 178.07812 193.65625Q178.375 193.75 178.82812 193.84375Q179.60938 194.01562 180.10938 194.26562Q180.60938 194.51562 180.85938 194.875Q181.10938 195.21875 181.10938 195.73438Q181.10938 196.15625 180.92188 196.5Q180.75 196.84375 180.42188 197.09375Q180.10938 197.34375 179.65625 197.48438Q179.20312 197.625 178.65625 197.625Q177.8125 197.625 177.23438 197.32812Q176.65625 197.01562 176.35938 196.54688Q176.0625 196.0625 176.0625 195.54688L177.14062 195.54688Q177.17188 195.98438 177.40625 196.25Q177.64062 196.51562 177.96875 196.625Q178.3125 196.71875 178.65625 196.71875Q179.09375 196.71875 179.39062 196.60938Q179.70312 196.48438 179.85938 196.28125Q180.01562 196.07812 180.01562 195.8125ZM184.98438 191.15625L184.98438 191.98438L181.54688 191.98438L181.54688 191.15625L184.98438 191.15625ZM182.71875 189.625L183.79688 189.625L183.79688 195.92188Q183.79688 196.25 183.89062 196.42188Q184.0 196.57812 184.15625 196.64062Q184.3125 196.6875 184.5 196.6875Q184.625 196.6875 184.76562 196.65625Q184.92188 196.625 185.0 196.60938L185.01562 197.5Q184.875 197.54688 184.67188 197.57812Q184.46875 197.625 184.17188 197.625Q183.78125 197.625 183.4375 197.46875Q183.10938 197.29688 182.90625 196.9375Q182.71875 196.5625 182.71875 195.92188L182.71875 189.625ZM187.5 191.15625L187.5 197.5L186.42188 197.5L186.42188 191.15625L187.5 191.15625ZM186.32812 189.48438Q186.32812 189.21875 186.48438 189.03125Q186.65625 188.84375 186.96875 188.84375Q187.28125 188.84375 187.4375 189.03125Q187.60938 189.21875 187.60938 189.48438Q187.60938 189.73438 187.4375 189.92188Q187.28125 190.09375 186.96875 190.09375Q186.65625 190.09375 186.48438 189.92188Q186.32812 189.73438 186.32812 189.48438ZM193.4375 191.15625L194.42188 191.15625L194.42188 197.35938Q194.42188 198.20312 194.07812 198.79688Q193.73438 199.39062 193.125 199.6875Q192.53125 200.0 191.73438 200.0Q191.40625 200.0 190.95312 199.89062Q190.51562 199.79688 190.09375 199.54688Q189.67188 199.3125 189.39062 198.90625L189.95312 198.25Q190.35938 198.73438 190.78125 198.92188Q191.21875 199.10938 191.65625 199.10938Q192.17188 199.10938 192.54688 198.90625Q192.92188 198.71875 193.125 198.34375Q193.32812 197.96875 193.32812 197.42188L193.32812 192.54688L193.4375 191.15625ZM189.0625 194.40625L189.0625 194.28125Q189.0625 193.54688 189.23438 192.95312Q189.42188 192.35938 189.73438 191.9375Q190.0625 191.5 190.51562 191.28125Q190.98438 191.04688 191.57812 191.04688Q192.17188 191.04688 192.60938 191.25Q193.0625 191.45312 193.375 191.85938Q193.6875 192.25 193.875 192.8125Q194.0625 193.35938 194.125 194.0625L194.125 194.60938Q194.0625 195.29688 193.875 195.85938Q193.6875 196.42188 193.375 196.8125Q193.0625 197.20312 192.60938 197.42188Q192.15625 197.625 191.5625 197.625Q190.98438 197.625 190.53125 197.39062Q190.07812 197.14062 189.75 196.70312Q189.42188 196.26562 189.23438 195.6875Q189.0625 195.09375 189.0625 194.40625ZM190.15625 194.28125L190.15625 194.40625Q190.15625 194.875 190.25 195.29688Q190.34375 195.70312 190.54688 196.03125Q190.75 196.34375 191.0625 196.53125Q191.39062 196.70312 191.82812 196.70312Q192.35938 196.70312 192.70312 196.46875Q193.0625 196.23438 193.26562 195.85938Q193.48438 195.48438 193.59375 195.04688L193.59375 193.64062Q193.53125 193.3125 193.39062 193.01562Q193.26562 192.71875 193.0625 192.48438Q192.85938 192.23438 192.54688 192.09375Q192.25 191.95312 191.82812 191.95312Q191.39062 191.95312 191.0625 192.14062Q190.75 192.32812 190.54688 192.65625Q190.34375 192.96875 190.25 193.39062Q190.15625 193.79688 190.15625 194.28125ZM198.95312 197.625Q198.29688 197.625 197.75 197.40625Q197.21875 197.17188 196.82812 196.76562Q196.45312 196.34375 196.25 195.78125Q196.04688 195.21875 196.04688 194.54688L196.04688 194.3125Q196.04688 193.53125 196.26562 192.92188Q196.5 192.3125 196.89062 191.89062Q197.28125 191.46875 197.78125 191.26562Q198.28125 191.04688 198.8125 191.04688Q199.5 191.04688 199.98438 191.28125Q200.48438 191.51562 200.79688 191.9375Q201.125 192.34375 201.26562 192.92188Q201.42188 193.48438 201.42188 194.14062L201.42188 194.64062L196.6875 194.64062L196.6875 193.75L200.34375 193.75L200.34375 193.67188Q200.3125 193.25 200.15625 192.85938Q200.01562 192.45312 199.6875 192.20312Q199.375 191.9375 198.8125 191.9375Q198.45312 191.9375 198.14062 192.09375Q197.82812 192.25 197.59375 192.5625Q197.375 192.85938 197.25 193.29688Q197.14062 193.73438 197.14062 194.3125L197.14062 194.54688Q197.14062 195.0 197.26562 195.40625Q197.39062 195.79688 197.625 196.09375Q197.875 196.39062 198.21875 196.5625Q198.57812 196.73438 199.01562 196.73438Q199.59375 196.73438 199.98438 196.5Q200.39062 196.26562 200.6875 195.875L201.34375 196.39062Q201.14062 196.70312 200.8125 196.98438Q200.5 197.26562 200.03125 197.45312Q199.57812 197.625 198.95312 197.625Z" fill-rule="nonzero"/><path stroke="#cccccc" stroke-width="1.0" stroke-linecap="butt" d="M372.0 305.0L372.0 103.0" fill-rule="nonzero"/><path stroke="#ff0000" stroke-width="2.0" stroke-linecap="butt" stroke-opacity="0.7019608" stroke-dasharray="8.0,6.0,2.0,6.0" d="M372.0 159.0L468.0 250.0L446.0 348.0L372.0 340.0L346.0 320.0L298.0 262.0Z" fill-rule="nonzero"/><path fill="#ff0000" fill-opacity="0.7019608" d="M368.81802 155.81802L372.0 157.875L375.18198 155.81802L373.125 159.0L375.18198 162.18198L372.0 160.125L368.81802 162.18198L370.875 159.0Z" fill-rule="nonzero"/><path fill="#ff0000" fill-opacity="0.7019608" d="M464.81802 246.81802L468.0 248.875L471.18198 246.81802L469.125 250.0L471.18198 253.18198L468.0 251.125L464.81802 253.18198L466.875 250.0Z" fill-rule="nonzero"/><path fill="#ff0000" fill-opacity="0.7019608" d="M442.81802 344.81802L446.0 346.875L449.18198 344.81802L447.125 348.0L449.18198 351.18198L446.0 349.125L442.81802 351.18198L444.875 348.0Z" fill-rule="nonzero"/><path fill="#ff0000" fill-opacity="0.7019608" d="M368.81802 336.81802L372.0 338.875L375.18198 336.81802L373.125 340.0L375.18198 343.18198L372.0 341.125L368.81802 343.18198L370.875 340.0Z" fill-rule="nonzero"/><path fill="#ff0000" fill-opacity="0.7019608" d="M342.81802 316.81802L346.0 318.875L349.18198 316.81802L347.125 320.0L349.18198 323.18198L346.0 321.125L342.81802 323.18198L344.875 320.0Z" fill-rule="nonzero"/><path fill="#ff0000" fill-opacity="0.7019608" d="M294.81802 258.81802L298.0 260.875L301.18198 258.81802L299.125 262.0L301.18198 265.18198L298.0 263.125L294.81802 265.18198L296.875 262.0Z" fill-rule="nonzero"/><path fill="#757575" d="M32.396873 47.35L28.6 33.0375L30.5375 33.0375L32.709373 42.4125Q33.06875 43.896873 33.31875 45.35Q33.865623 43.053123 33.959373 42.69375L36.69375 33.0375L38.975 33.0375L41.021873 40.271873Q41.803123 42.975 42.146873 45.35Q42.4125 43.990623 42.85 42.225L45.1 33.0375L47.00625 33.0375L43.084373 47.35L41.25625 47.35L38.240623 36.44375Q37.85 35.06875 37.7875 34.75625Q37.553123 35.740623 37.365623 36.44375L34.334373 47.35L32.396873 47.35ZM55.44375 46.06875Q54.459373 46.896873 53.553123 47.240623Q52.646873 47.584373 51.615623 47.584373Q49.9125 47.584373 48.990623 46.75625Q48.06875 45.9125 48.06875 44.615623Q48.06875 43.85 48.4125 43.225Q48.771873 42.6 49.334373 42.225Q49.896873 41.834373 50.6 41.63125Q51.115623 41.50625 52.1625 41.365623Q54.2875 41.115623 55.2875 40.771873Q55.303123 40.4125 55.303123 40.303123Q55.303123 39.240623 54.803123 38.7875Q54.13125 38.19375 52.803123 38.19375Q51.553123 38.19375 50.959373 38.63125Q50.38125 39.06875 50.1 40.178123L48.38125 39.94375Q48.615623 38.834373 49.146873 38.1625Q49.678123 37.475 50.69375 37.115623Q51.709373 36.740623 53.053123 36.740623Q54.38125 36.740623 55.209373 37.053123Q56.0375 37.365623 56.428123 37.85Q56.81875 38.31875 56.975 39.0375Q57.06875 39.490623 57.06875 40.6625L57.06875 43.00625Q57.06875 45.459373 57.178123 46.115623Q57.2875 46.75625 57.63125 47.35L55.7875 47.35Q55.521873 46.803123 55.44375 46.06875ZM55.2875 42.146873Q54.334373 42.5375 52.4125 42.803123Q51.334373 42.959373 50.88125 43.1625Q50.44375 43.35 50.19375 43.725Q49.94375 44.1 49.94375 44.56875Q49.94375 45.271873 50.475 45.740623Q51.00625 46.209373 52.0375 46.209373Q53.053123 46.209373 53.834373 45.771873Q54.63125 45.31875 55.00625 44.553123Q55.2875 43.94375 55.2875 42.7875L55.2875 42.146873ZM60.084373 47.35L60.084373 38.35L58.5375 38.35L58.5375 36.975L60.084373 36.975L60.084373 35.88125Q60.084373 34.834373 60.271873 34.31875Q60.521873 33.63125 61.1625 33.209373Q61.803123 32.7875 62.959373 32.7875Q63.709373 32.7875 64.6 32.959373L64.33437 34.490623Q63.7875 34.396873 63.303123 34.396873Q62.50625 34.396873 62.1625 34.740623Q61.834373 35.084373 61.834373 36.021873L61.834373 36.975L63.865623 36.975L63.865623 38.35L61.834373 38.35L61.834373 47.35L60.084373 47.35ZM66.08437 47.35L66.08437 38.35L64.5375 38.35L64.5375 36.975L66.08437 36.975L66.08437 35.88125Q66.08437 34.834373 66.27187 34.31875Q66.52187 33.63125 67.1625 33.209373Q67.80312 32.7875 68.95937 32.7875Q69.70937 32.7875 70.6 32.959373L70.33437 34.490623Q69.7875 34.396873 69.30312 34.396873Q68.50625 34.396873 68.1625 34.740623Q67.83437 35.084373 67.83437 36.021873L67.83437 36.975L69.86562 36.975L69.86562 38.35L67.83437 38.35L67.83437 47.35L66.08437 47.35ZM71.63125 47.35L71.63125 33.0375L73.38125 33.0375L73.38125 47.35L71.63125 47.35ZM82.77187 44.00625L84.58437 44.240623Q84.1625 45.81875 82.99062 46.709373Q81.83437 47.584373 80.02187 47.584373Q77.75625 47.584373 76.4125 46.19375Q75.08437 44.7875 75.08437 42.25625Q75.08437 39.63125 76.42812 38.19375Q77.77187 36.740623 79.92812 36.740623Q82.00625 36.740623 83.31875 38.1625Q84.64687 39.56875 84.64687 42.146873Q84.64687 42.303123 84.63125 42.615623L76.89687 42.615623Q76.99062 44.31875 77.86562 45.225Q78.74062 46.13125 80.0375 46.13125Q81.00625 46.13125 81.67812 45.63125Q82.36562 45.115623 82.77187 44.00625ZM76.99062 41.1625L82.7875 41.1625Q82.67812 39.865623 82.13125 39.209373Q81.2875 38.19375 79.94375 38.19375Q78.74062 38.19375 77.9125 39.00625Q77.08437 39.803123 76.99062 41.1625ZM96.5375 47.35L96.5375 34.725L91.81875 34.725L91.81875 33.0375L103.1625 33.0375L103.1625 34.725L98.42812 34.725L98.42812 47.35L96.5375 47.35ZM104.64687 47.35L104.64687 36.975L106.225 36.975L106.225 38.553123Q106.83437 37.44375 107.35 37.1Q107.86562 36.740623 108.475 36.740623Q109.36562 36.740623 110.2875 37.303123L109.67812 38.94375Q109.0375 38.553123 108.39687 38.553123Q107.81875 38.553123 107.35 38.9125Q106.89687 39.25625 106.69375 39.865623Q106.4125 40.803123 106.4125 41.9125L106.4125 47.35L104.64687 47.35ZM118.45937 47.35L118.45937 45.81875Q117.25625 47.584373 115.17812 47.584373Q114.25625 47.584373 113.45937 47.240623Q112.6625 46.88125 112.27187 46.35Q111.89687 45.81875 111.74062 45.0375Q111.63125 44.521873 111.63125 43.396873L111.63125 36.975L113.38125 36.975L113.38125 42.725Q113.38125 44.1 113.49062 44.584373Q113.6625 45.271873 114.19375 45.678123Q114.74062 46.06875 115.52187 46.06875Q116.31875 46.06875 117.00625 45.6625Q117.70937 45.25625 117.99062 44.56875Q118.2875 43.865623 118.2875 42.5375L118.2875 36.975L120.0375 36.975L120.0375 47.35L118.45937 47.35ZM122.08437 47.35L122.08437 38.35L120.5375 38.35L120.5375 36.975L122.08437 36.975L122.08437 35.88125Q122.08437 34.834373 122.27187 34.31875Q122.52187 33.63125 123.1625 33.209373Q123.80312 32.7875 124.95937 32.7875Q125.70937 32.7875 126.6 32.959373L126.33437 34.490623Q125.7875 34.396873 125.30312 34.396873Q124.50625 34.396873 124.1625 34.740623Q123.83437 35.084373 123.83437 36.021873L123.83437 36.975L125.86562 36.975L125.86562 38.35L123.83437 38.35L123.83437 47.35L122.08437 47.35ZM128.08438 47.35L128.08438 38.35L126.5375 38.35L126.5375 36.975L128.08438 36.975L128.08438 35.88125Q128.08438 34.834373 128.27188 34.31875Q128.52188 33.63125 129.1625 33.209373Q129.80313 32.7875 130.95938 32.7875Q131.70938 32.7875 132.6 32.959373L132.33438 34.490623Q131.7875 34.396873 131.30313 34.396873Q130.50626 34.396873 130.1625 34.740623Q129.83438 35.084373 129.83438 36.021873L129.83438 36.975L131.86563 36.975L131.86563 38.35L129.83438 38.35L129.83438 47.35L128.08438 47.35ZM133.63126 47.35L133.63126 33.0375L135.38126 33.0375L135.38126 47.35L133.63126 47.35ZM144.77188 44.00625L146.58438 44.240623Q146.1625 45.81875 144.99063 46.709373Q143.83438 47.584373 142.02188 47.584373Q139.75626 47.584373 138.4125 46.19375Q137.08438 44.7875 137.08438 42.25625Q137.08438 39.63125 138.42813 38.19375Q139.77188 36.740623 141.92813 36.740623Q144.00626 36.740623 145.31876 38.1625Q146.64688 39.56875 146.64688 42.146873Q146.64688 42.303123 146.63126 42.615623L138.89688 42.615623Q138.99063 44.31875 139.86563 45.225Q140.74063 46.13125 142.0375 46.13125Q143.00626 46.13125 143.67813 45.63125Q144.36563 45.115623 144.77188 44.00625ZM138.99063 41.1625L144.7875 41.1625Q144.67813 39.865623 144.13126 39.209373Q143.2875 38.19375 141.94376 38.19375Q140.74063 38.19375 139.9125 39.00625Q139.08438 39.803123 138.99063 41.1625Z" fill-rule="nonzero"/></svg>