<svg version="1.1" viewBox="0.0 0.0 744.0 567.0" fill="none" stroke="none" stroke-linecap="square" stroke-miterlimit="10" width="744" height="567" xmlns:xlink="http://www.w3.org/1999/xlink" xmlns="http://www.w3.org/2000/svg"><path fill="#ffffff" d="M0 0L744.0 0L744.0 567.0L0 567.0L0 0Z" fill-rule="nonzero"/><path fill="#ffffff" d="M28.35 71.25L715.64996 71.25L715.64996 538.65L28.35 538.65L28.35 71.25Z" fill-rule="nonzero"/><path stroke="#cccccc" stroke-width="1.0" stroke-linecap="butt" d="M372.0 305.0C372.0 305.0 372.0 305.0 372.0 305.0C372.0 305.0 372.0 305.0 372.0 305.0C372.0 305.0 372.0 305.0 372.0 305.0C372.0 305.0 372.0 305.0 372.0 305.0" fill-rule="nonzero"/><path fill="#000000" d="M360.0625 297.04688L360.0625 298.35938Q360.0625 299.40625 359.875 300.125Q359.6875 300.84375 359.32812 301.28125Q358.98438 301.71875 358.48438 301.92188Q358.0 302.125 357.375 302.125Q356.89062 302.125 356.46875 302.0Q356.04688 301.875 355.71875 301.60938Q355.39062 301.32812 355.15625 300.89062Q354.92188 300.45312 354.79688 299.82812Q354.67188 299.1875 354.67188 298.35938L354.67188 297.04688Q354.67188 296.0 354.85938 295.29688Q355.0625 294.59375 355.40625 294.15625Q355.76562 293.71875 356.25 293.53125Q356.75 293.34375 357.35938 293.34375Q357.85938 293.34375 358.28125 293.46875Q358.70312 293.59375 359.03125 293.85938Q359.35938 294.10938 359.57812 294.54688Q359.8125 294.96875 359.9375 295.59375Q360.0625 296.21875 360.0625 297.04688ZM358.96875 298.53125L358.96875 296.875Q358.96875 296.29688 358.90625 295.85938Q358.84375 295.42188 358.70312 295.10938Q358.57812 294.79688 358.375 294.60938Q358.1875 294.42188 357.9375 294.32812Q357.6875 294.23438 357.35938 294.23438Q356.98438 294.23438 356.67188 294.375Q356.375 294.51562 356.17188 294.82812Q355.96875 295.14062 355.85938 295.65625Q355.76562 296.15625 355.76562 296.875L355.76562 298.53125Q355.76562 299.10938 355.82812 299.54688Q355.90625 299.98438 356.03125 300.3125Q356.17188 300.625 356.35938 300.82812Q356.5625 301.03125 356.8125 301.125Q357.0625 301.21875 357.375 301.21875Q357.78125 301.21875 358.07812 301.07812Q358.375 300.92188 358.57812 300.59375Q358.78125 300.26562 358.875 299.76562Q358.96875 299.25 358.96875 298.53125ZM362.8125 300.70312L362.8125 301.57812Q362.8125 302.125 362.53125 302.71875Q362.26562 303.3125 361.78125 303.70312L361.17188 303.28125Q361.35938 303.01562 361.48438 302.75Q361.60938 302.48438 361.67188 302.20312Q361.75 301.92188 361.75 301.59375L361.75 300.70312L362.8125 300.70312ZM369.0625 297.04688L369.0625 298.35938Q369.0625 299.40625 368.875 300.125Q368.6875 300.84375 368.32812 301.28125Q367.98438 301.71875 367.48438 301.92188Q367.0 302.125 366.375 302.125Q365.89062 302.125 365.46875 302.0Q365.04688 301.875 364.71875 301.60938Q364.39062 301.32812 364.15625 300.89062Q363.92188 300.45312 363.79688 299.82812Q363.67188 299.1875 363.67188 298.35938L363.67188 297.04688Q363.67188 296.0 363.85938 295.29688Q364.0625 294.59375 364.40625 294.15625Q364.76562 293.71875 365.25 293.53125Q365.75 293.34375 366.35938 293.34375Q366.85938 293.34375 367.28125 293.46875Q367.70312 293.59375 368.03125 293.85938Q368.35938 294.10938 368.57812 294.54688Q368.8125 294.96875 368.9375 295.59375Q369.0625 296.21875 369.0625 297.04688ZM367.96875 298.53125L367.96875 296.875Q367.96875 296.29688 367.90625 295.85938Q367.84375 295.42188 367.70312 295.10938Q367.57812 294.79688 367.375 294.60938Q367.1875 294.42188 366.9375 294.32812Q366.6875 294.23438 366.35938 294.23438Q365.98438 294.23438 365.67188 294.375Q365.375 294.51562 365.17188 294.82812Q364.96875 295.14062 364.85938 295.65625Q364.76562 296.15625 364.76562 296.875L364.76562 298.53125Q364.76562 299.10938 364.82812 299.54688Q364.90625 299.98438 365.03125 300.3125Q365.17188 300.625 365.35938 300.82812Q365.5625 301.03125 365.8125 301.125Q366.0625 301.21875 366.375 301.21875Q366.78125 301.21875 367.07812 301.07812Q367.375 300.92188 367.57812 300.59375Q367.78125 300.26562 367.875 299.76562Q367.96875 299.25 367.96875 298.53125Z" fill-rule="nonzero"/><path stroke="#cccccc" stroke-width="1.0" stroke-linecap="butt" d="M422.425 305.0C422.425 277.15103 399.84897 254.575 372.0 254.575C344.15103 254.575 321.575 277.15103 321.575 305.0C321.575 332.84897 344.15103 355.425 372.0 355.425C399.84897 355.425 422.425 332.84897 422.425 305.0" fill-rule="nonzero"/><path fill="#000000" d="M360.0625 246.62187L360.0625 247.93437Q360.0625 248.98125 359.875 249.7Q359.6875 250.41875 359.32812 250.85625Q358.98438 251.29375 358.48438 251.49687Q358.0 251.7 357.375 251.7Q356.89062 251.7 356.46875 251.575Q356.04688 251.45 355.71875 251.18437Q355.39062 250.90312 355.15625 250.46562Q354.92188 250.02812 354.79688 249.40312Q354.67188 248.7625 354.67188 247.93437L354.67188 246.62187Q354.67188 245.575 354.85938 244.87187Q355.0625 244.16875 355.40625 243.73125Q355.76562 243.29375 356.25 243.10625Q356.75 242.91875 357.35938 242.91875Q357.85938 242.91875 358.28125 243.04375Q358.70312 243.16875 359.03125 243.43437Q359.35938 243.68437 359.57812 244.12187Q359.8125 244.54375 359.9375 245.16875Q360.0625 245.79375 360.0625 246.62187ZM358.96875 248.10625L358.96875 246.45Q358.96875 245.87187 358.90625 245.43437Q358.84375 244.99687 358.70312 244.68437Q358.57812 244.37187 358.375 244.18437Q358.1875 243.99687 357.9375 243.90312Q357.6875 243.80937 357.35938 243.80937Q356.98438 243.80937 356.67188 243.95Q356.375 244.09062 356.17188 244.40312Q355.96875 244.71562 355.85938 245.23125Q355.76562 245.73125 355.76562 246.45L355.76562 248.10625Q355.76562 248.68437 355.82812 249.12187Q355.90625 249.55937 356.03125 249.8875Q356.17188 250.2 356.35938 250.40312Q356.5625 250.60625 356.8125 250.7Q357.0625 250.79375 357.375 250.79375Q357.78125 250.79375 358.07812 250.65312Q358.375 250.49687 358.57812 250.16875Q358.78125 249.84062 358.875 249.34062Q358.96875 248.825 358.96875 248.10625ZM362.8125 250.27812L362.8125 251.15312Q362.8125 251.7 362.53125 252.29375Q362.26562 252.8875 361.78125 253.27812L361.17188 252.85625Q361.35938 252.59062 361.48438 252.325Q361.60938 252.05937 361.67188 251.77812Q361.75 251.49687 361.75 251.16875L361.75 250.27812L362.8125 250.27812ZM367.26562 242.99687L367.26562 251.575L366.1875 251.575L366.1875 244.35625L364.0 245.15312L364.0 244.16875L367.10938 242.99687L367.26562 242.99687Z" fill-rule="nonzero"/><path stroke="#cccccc" stroke-width="1.0" stroke-linecap="butt" d="M472.85 305.0C472.85 249.30208 427.6979 204.15 372.0 204.15C316.3021 204.15 271.15 249.30208 271.15 305.0C271.15 360.6979 316.3021 405.85 372.0 405.85C427.6979 405.85 472.85 360.6979 472.85 305.0" fill-rule="nonzero"/><path fill="#000000" d="M360.0625 196.19687L360.0625 197.50937Q360.0625 198.55624 359.875 199.275Q359.6875 199.99374 359.32812 200.43124Q358.98438 200.86874 358.48438 201.07187Q358.0 201.275 357.375 201.275Q356.89062 201.275 356.46875 201.15Q356.04688 201.025 355.71875 200.75937Q355.39062 200.47812 355.15625 200.04062Q354.92188 199.60312 354.79688 198.97812Q354.67188 198.3375 354.67188 197.50937L354.67188 196.19687Q354.67188 195.15 354.85938 194.44687Q355.0625 193.74374 355.40625 193.30624Q355.76562 192.86874 356.25 192.68124Q356.75 192.49374 357.35938 192.49374Q357.85938 192.49374 358.28125 192.61874Q358.70312 192.74374 359.03125 193.00937Q359.35938 193.25937 359.57812 193.69687Q359.8125 194.11874 359.9375 194.74374Q360.0625 195.36874 360.0625 196.19687ZM358.96875 197.68124L358.96875 196.025Q358.96875 195.44687 358.90625 195.00937Q358.84375 194.57187 358.70312 194.25937Q358.57812 193.94687 358.375 193.75937Q358.1875 193.57187 357.9375 193.47812Q357.6875 193.38437 357.35938 193.38437Q356.98438 193.38437 356.67188 193.525Q356.375 193.66562 356.17188 193.97812Q355.96875 194.29062 355.85938 194.80624Q355.76562 195.30624 355.76562 196.025L355.76562 197.68124Q355.76562 198.25937 355.82812 198.69687Q355.90625 199.13437 356.03125 199.4625Q356.17188 199.775 356.35938 199.97812Q356.5625 200.18124 356.8125 200.275Q357.0625 200.36874 357.375 200.36874Q357.78125 200.36874 358.07812 200.22812Q358.375 200.07187 358.57812 199.74374Q358.78125 199.41562 358.875 198.91562Q358.96875 198.4 358.96875 197.68124ZM362.8125 199.85312L362.8125 200.72812Q362.8125 201.275 362.53125 201.86874Q362.26562 202.4625 361.78125 202.85312L361.17188 202.43124Q361.35938 202.16562 361.48438 201.9Q361.60938 201.63437 361.67188 201.35312Q361.75 201.07187 361.75 200.74374L361.75 199.85312L362.8125 199.85312ZM369.29688 200.25937L369.29688 201.15L363.71875 201.15L363.71875 200.36874L366.51562 197.25937Q367.03125 196.68124 367.3125 196.29062Q367.59375 195.88437 367.70312 195.57187Q367.82812 195.24374 367.82812 194.91562Q367.82812 194.49374 367.65625 194.15Q367.48438 193.80624 367.14062 193.60312Q366.8125 193.38437 366.32812 193.38437Q365.76562 193.38437 365.39062 193.61874Q365.01562 193.8375 364.82812 194.22812Q364.64062 194.61874 364.64062 195.11874L363.54688 195.11874Q363.54688 194.4 363.85938 193.80624Q364.1875 193.2125 364.79688 192.85312Q365.42188 192.49374 366.32812 192.49374Q367.14062 192.49374 367.71875 192.79062Q368.29688 193.07187 368.59375 193.5875Q368.90625 194.0875 368.90625 194.775Q368.90625 195.15 368.78125 195.54062Q368.65625 195.91562 368.4375 196.30624Q368.21875 196.68124 367.92188 197.05624Q367.64062 197.41562 367.3125 197.775L365.01562 200.25937L369.29688 200.25937Z" fill-rule="nonzero"/><path stroke="#cccccc" stroke-width="1.0" stroke-linecap="butt" d="M523.275 305.0C523.275 221.45312 455.54688 153.725 372.0 153.725C288.45312 153.725 220.725 221.45312 220.725 305.0C220.725 388.54688 288.45312 456.275 372.0 456.275C455.54688 456.275 523.275 388.54688 523.275 305.0" fill-rule="nonzero"/><path fill="#000000" d="M360.0625 145.77188L360.0625 147.08438Q360.0625 148.13126 359.875 148.85Q359.6875 149.56876 359.32812 150.00626Q358.98438 150.44376 358.48438 150.64688Q358.0 150.85 357.375 150.85Q356.89062 150.85 356.46875 150.725Q356.04688 150.6 355.71875 150.33438Q355.39062 150.05313 355.15625 149.61563Q354.92188 149.17813 354.79688 148.55313Q354.67188 147.9125 354.67188 147.08438L354.67188 145.77188Q354.67188 144.725 354.85938 144.02188Q355.0625 143.31876 355.40625 142.88126Q355.76562 142.44376 356.25 142.25626Q356.75 142.06876 357.35938 142.06876Q357.85938 142.06876 358.28125 142.19376Q358.70312 142.31876 359.03125 142.58438Q359.35938 142.83438 359.57812 143.27188Q359.8125 143.69376 359.9375 144.31876Q360.0625 144.94376 360.0625 145.77188ZM358.96875 147.25626L358.96875 145.6Q358.96875 145.02188 358.90625 144.58438Q358.84375 144.14688 358.70312 143.83438Q358.57812 143.52188 358.375 143.33438Q358.1875 143.14688 357.9375 143.05313Q357.6875 142.95938 357.35938 142.95938Q356.98438 142.95938 356.67188 143.1Q356.375 143.24063 356.17188 143.55313Q355.96875 143.86563 355.85938 144.38126Q355.76562 144.88126 355.76562 145.6L355.76562 147.25626Q355.76562 147.83438 355.82812 148.27188Q355.90625 148.70938 356.03125 149.0375Q356.17188 149.35 356.35938 149.55313Q356.5625 149.75626 356.8125 149.85Q357.0625 149.94376 357.375 149.94376Q357.78125 149.94376 358.07812 149.80313Q358.375 149.64688 358.57812 149.31876Q358.78125 148.99063 358.875 148.49063Q358.96875 147.975 358.96875 147.25626ZM362.8125 149.42813L362.8125 150.30313Q362.8125 150.85 362.53125 151.44376Q362.26562 152.0375 361.78125 152.42813L361.17188 152.00626Q361.35938 151.74063 361.48438 151.475Q361.60938 151.20938 361.67188 150.92813Q361.75 150.64688 361.75 150.31876L361.75 149.42813L362.8125 149.42813ZM365.29688 145.92813L366.0625 145.92813Q366.64062 145.92813 367.0 145.74063Q367.375 145.5375 367.5625 145.20938Q367.75 144.88126 367.75 144.45938Q367.75 143.975 367.57812 143.64688Q367.42188 143.30313 367.09375 143.13126Q366.76562 142.95938 366.26562 142.95938Q365.79688 142.95938 365.45312 143.14688Q365.10938 143.31876 364.90625 143.64688Q364.71875 143.975 364.71875 144.42813L363.625 144.42813Q363.625 143.77188 363.95312 143.24063Q364.28125 142.70938 364.875 142.39688Q365.46875 142.06876 366.26562 142.06876Q367.03125 142.06876 367.60938 142.35Q368.1875 142.61563 368.51562 143.1625Q368.84375 143.69376 368.84375 144.49063Q368.84375 144.81876 368.6875 145.17813Q368.53125 145.5375 368.21875 145.86563Q367.90625 146.17813 367.40625 146.38126Q366.92188 146.58438 366.21875 146.58438L365.29688 146.58438L365.29688 145.92813ZM365.29688 146.81876L365.29688 146.1625L366.21875 146.1625Q367.03125 146.1625 367.5625 146.36563Q368.09375 146.55313 368.40625 146.88126Q368.71875 147.19376 368.84375 147.58438Q368.96875 147.95938 368.96875 148.35Q368.96875 148.94376 368.76562 149.4125Q368.5625 149.86563 368.1875 150.19376Q367.82812 150.50626 367.32812 150.67813Q366.84375 150.85 366.26562 150.85Q365.70312 150.85 365.21875 150.69376Q364.73438 150.52188 364.35938 150.225Q363.98438 149.92813 363.76562 149.49063Q363.5625 149.0375 363.5625 148.475L364.64062 148.475Q364.64062 148.9125 364.82812 149.25626Q365.03125 149.58438 365.39062 149.77188Q365.76562 149.94376 366.26562 149.94376Q366.76562 149.94376 367.125 149.77188Q367.48438 149.6 367.67188 149.25626Q367.875 148.89688 367.875 148.36563Q367.875 147.83438 367.65625 147.49063Q367.4375 147.14688 367.01562 146.99063Q366.60938 146.81876 366.0625 146.81876L365.29688 146.81876Z" fill-rule="nonzero"/><path stroke="#cccccc" stroke-width="1.0" stroke-linecap="butt" d="M573.7 305.0C573.7 193.60417 483.39584 103.3 372.0 103.3C260.60416 103.3 170.3 193.60417 170.3 305.0C170.3 416.39584 260.60416 506.7 372.0 506.7C483.39584 506.7 573.7 416.39584 573.7 305.0" fill-rule="nonzero"/><path fill="#000000" d="M360.0625 95.34688L360.0625 96.65938Q360.0625 97.70625 359.875 98.425Q359.6875 99.14375 359.32812 99.58125Q358.98438 100.01875 358.48438 100.22188Q358.0 100.425 357.375 100.425Q356.89062 100.425 356.46875 100.3Q356.04688 100.175 355.71875 99.90938Q355.39062 99.62813 355.15625 99.19063Q354.92188 98.75313 354.79688 98.12813Q354.67188 97.4875 354.67188 96.65938L354.67188 95.34688Q354.67188 94.3 354.85938 93.59688Q355.0625 92.89375 355.40625 92.45625Q355.76562 92.01875 356.25 91.83125Q356.75 91.64375 357.35938 91.64375Q357.85938 91.64375 358.28125 91.76875Q358.70312 91.89375 359.03125 92.15938Q359.35938 92.40938 359.57812 92.84688Q359.8125 93.26875 359.9375 93.89375Q360.0625 94.51875 360.0625 95.34688ZM358.96875 96.83125L358.96875 95.175Q358.96875 94.59688 358.90625 94.15938Q358.84375 93.72188 358.70312 93.40938Q358.57812 93.09688 358.375 92.90938Q358.1875 92.72188 357.9375 92.62813Q357.6875 92.53438 357.35938 92.53438Q356.98438 92.53438 356.67188 92.675Q356.375 92.81563 356.17188 93.12813Q355.96875 93.44063 355.85938 93.95625Q355.76562 94.45625 355.76562 95.175L355.76562 96.83125Q355.76562 97.40938 355.82812 97.84688Q355.90625 98.28438 356.03125 98.6125Q356.17188 98.925 356.35938 99.12813Q356.5625 99.33125 356.8125 99.425Q357.0625 99.51875 357.375 99.51875Q357.78125 99.51875 358.07812 99.37813Q358.375 99.22188 358.57812 98.89375Q358.78125 98.56563 358.875 98.06563Q358.96875 97.55 358.96875 96.83125ZM362.8125 99.00313L362.8125 99.87813Q362.8125 100.425 362.53125 101.01875Q362.26562 101.6125 361.78125 102.00313L361.17188 101.58125Q361.35938 101.31563 361.48438 101.05Q361.60938 100.78438 361.67188 100.50313Q361.75 100.22188 361.75 99.89375L361.75 99.00313L362.8125 99.00313ZM369.46875 97.425L369.46875 98.31563L363.3125 98.31563L363.3125 97.675L367.125 91.76875L368.01562 91.76875L367.0625 93.47188L364.54688 97.425L369.46875 97.425ZM368.28125 91.76875L368.28125 100.3L367.20312 100.3L367.20312 91.76875L368.28125 91.76875Z" fill-rule="nonzero"/><path stroke="#cccccc" stroke-width="1.0" stroke-linecap="butt" d="M372.0 305.0L372.0 103.0" fill-rule="nonzero"/><path fill="#000000" d="M342.64062 78.78125L343.76562 78.78125Q343.67188 79.59375 343.29688 80.234375Q342.92188 80.875 342.23438 81.25Q341.5625 81.625 340.53125 81.625Q339.78125 81.625 339.17188 81.34375Q338.5625 81.046875 338.10938 80.53125Q337.67188 80.015625 337.4375 79.296875Q337.20312 78.5625 337.20312 77.65625L337.20312 76.8125Q337.20312 75.921875 337.4375 75.1875Q337.67188 74.453125 338.125 73.9375Q338.57812 73.40625 339.20312 73.125Q339.84375 72.84375 340.625 72.84375Q341.59375 72.84375 342.26562 73.21875Q342.9375 73.578125 343.29688 74.21875Q343.67188 74.859375 343.76562 75.703125L342.64062 75.703125Q342.5625 75.109375 342.32812 74.6875Q342.10938 74.25 341.70312 74.015625Q341.29688 73.78125 340.625 73.78125Q340.0625 73.78125 339.625 74.0Q339.20312 74.203125 338.90625 74.609375Q338.625 75.0 338.46875 75.5625Q338.32812 76.125 338.32812 76.796875L338.32812 77.65625Q338.32812 78.28125 338.45312 78.84375Q338.59375 79.390625 338.85938 79.8125Q339.125 80.21875 339.54688 80.46875Q339.96875 80.703125 340.53125 80.703125Q341.25 80.703125 341.67188 80.46875Q342.10938 80.234375 342.32812 79.8125Q342.54688 79.390625 342.64062 78.78125ZM349.0625 80.421875L349.0625 77.15625Q349.0625 76.78125 348.90625 76.5Q348.76562 76.21875 348.46875 76.078125Q348.17188 75.921875 347.73438 75.921875Q347.3125 75.921875 347.0 76.0625Q346.70312 76.203125 346.53125 76.4375Q346.35938 76.65625 346.35938 76.921875L345.28125 76.921875Q345.28125 76.578125 345.45312 76.25Q345.625 75.90625 345.95312 75.640625Q346.28125 75.359375 346.75 75.203125Q347.21875 75.046875 347.79688 75.046875Q348.48438 75.046875 349.01562 75.28125Q349.54688 75.515625 349.84375 75.984375Q350.15625 76.453125 350.15625 77.15625L350.15625 80.109375Q350.15625 80.4375 350.20312 80.796875Q350.26562 81.140625 350.375 81.40625L350.375 81.5L349.23438 81.5Q349.15625 81.3125 349.10938 81.0Q349.0625 80.6875 349.0625 80.421875ZM349.25 77.65625L349.26562 78.421875L348.17188 78.421875Q347.70312 78.421875 347.34375 78.5Q346.98438 78.5625 346.73438 78.71875Q346.48438 78.859375 346.35938 79.078125Q346.23438 79.296875 346.23438 79.59375Q346.23438 79.890625 346.35938 80.140625Q346.5 80.375 346.76562 80.53125Q347.04688 80.671875 347.4375 80.671875Q347.9375 80.671875 348.3125 80.46875Q348.70312 80.25 348.92188 79.953125Q349.15625 79.640625 349.17188 79.34375L349.64062 79.875Q349.59375 80.109375 349.40625 80.421875Q349.23438 80.71875 348.92188 81.0Q348.625 81.265625 348.20312 81.453125Q347.79688 81.625 347.28125 81.625Q346.64062 81.625 346.15625 81.375Q345.67188 81.109375 345.40625 80.6875Q345.14062 80.265625 345.14062 79.734375Q345.14062 79.21875 345.32812 78.84375Q345.53125 78.453125 345.90625 78.1875Q346.28125 77.921875 346.8125 77.796875Q347.34375 77.65625 348.0 77.65625L349.25 77.65625ZM353.40625 76.15625L353.40625 81.5L352.32812 81.5L352.32812 75.15625L353.375 75.15625L353.40625 76.15625ZM355.39062 75.125L355.39062 76.125Q355.25 76.109375 355.125 76.09375Q355.01562 76.078125 354.85938 76.078125Q354.48438 76.078125 354.1875 76.203125Q353.90625 76.3125 353.70312 76.53125Q353.51562 76.734375 353.39062 77.03125Q353.28125 77.328125 353.25 77.671875L352.9375 77.84375Q352.9375 77.265625 353.04688 76.765625Q353.17188 76.265625 353.40625 75.875Q353.65625 75.484375 354.01562 75.265625Q354.39062 75.046875 354.90625 75.046875Q355.03125 75.046875 355.17188 75.078125Q355.32812 75.09375 355.39062 75.125ZM358.10938 80.84375L359.875 75.15625L361.03125 75.15625L358.48438 82.484375Q358.40625 82.71875 358.25 82.984375Q358.10938 83.265625 357.89062 83.5Q357.67188 83.75 357.35938 83.90625Q357.04688 84.0625 356.60938 84.0625Q356.48438 84.0625 356.28125 84.015625Q356.07812 83.984375 356.0 83.96875L356.0 83.09375Q356.04688 83.09375 356.14062 83.09375Q356.25 83.109375 356.28125 83.109375Q356.65625 83.109375 356.90625 83.015625Q357.17188 82.921875 357.34375 82.6875Q357.53125 82.46875 357.65625 82.078125L358.10938 80.84375ZM356.8125 75.15625L358.45312 80.078125L358.73438 81.21875L357.96875 81.625L355.625 75.15625L356.8125 75.15625ZM362.04688 78.40625L362.04688 78.265625Q362.04688 77.578125 362.23438 77.0Q362.4375 76.40625 362.8125 75.96875Q363.1875 75.53125 363.71875 75.296875Q364.25 75.046875 364.92188 75.046875Q365.57812 75.046875 366.10938 75.296875Q366.65625 75.53125 367.03125 75.96875Q367.40625 76.40625 367.60938 77.0Q367.8125 77.578125 367.8125 78.265625L367.8125 78.40625Q367.8125 79.078125 367.60938 79.671875Q367.40625 80.25 367.03125 80.6875Q366.65625 81.125 366.125 81.375Q365.59375 81.625 364.92188 81.625Q364.26562 81.625 363.71875 81.375Q363.1875 81.125 362.8125 80.6875Q362.4375 80.25 362.23438 79.671875Q362.04688 79.078125 362.04688 78.40625ZM363.125 78.265625L363.125 78.40625Q363.125 78.875 363.23438 79.296875Q363.34375 79.71875 363.5625 80.046875Q363.79688 80.359375 364.14062 80.546875Q364.48438 80.71875 364.92188 80.71875Q365.375 80.71875 365.70312 80.546875Q366.04688 80.359375 366.26562 80.046875Q366.5 79.71875 366.60938 79.296875Q366.71875 78.875 366.71875 78.40625L366.71875 78.265625Q366.71875 77.796875 366.60938 77.375Q366.5 76.953125 366.26562 76.640625Q366.04688 76.3125 365.70312 76.125Q365.375 75.9375 364.92188 75.9375Q364.46875 75.9375 364.125 76.125Q363.79688 76.3125 363.5625 76.640625Q363.34375 76.953125 363.23438 77.375Q363.125 77.796875 363.125 78.265625ZM370.40625 76.375L370.40625 83.9375L369.32812 83.9375L369.32812 75.15625L370.3125 75.15625L370.40625 76.375ZM374.6875 78.28125L374.6875 78.40625Q374.6875 79.09375 374.51562 79.6875Q374.35938 80.265625 374.04688 80.703125Q373.73438 81.140625 373.26562 81.390625Q372.8125 81.625 372.21875 81.625Q371.625 81.625 371.15625 81.421875Q370.6875 81.21875 370.35938 80.84375Q370.04688 80.453125 369.85938 79.921875Q369.67188 79.390625 369.59375 78.71875L369.59375 78.0625Q369.67188 77.359375 369.85938 76.8125Q370.04688 76.25 370.35938 75.859375Q370.6875 75.453125 371.14062 75.25Q371.60938 75.046875 372.20312 75.046875Q372.79688 75.046875 373.26562 75.28125Q373.73438 75.5 374.04688 75.9375Q374.35938 76.359375 374.51562 76.953125Q374.6875 77.546875 374.6875 78.28125ZM373.59375 78.40625L373.59375 78.28125Q373.59375 77.796875 373.48438 77.390625Q373.39062 76.96875 373.1875 76.65625Q372.98438 76.328125 372.65625 76.140625Q372.32812 75.953125 371.89062 75.953125Q371.48438 75.953125 371.17188 76.09375Q370.875 76.234375 370.65625 76.484375Q370.45312 76.71875 370.3125 77.015625Q370.1875 77.3125 370.125 77.640625L370.125 79.15625Q370.23438 79.5625 370.4375 79.921875Q370.65625 80.28125 371.0 80.5Q371.35938 80.71875 371.90625 80.71875Q372.34375 80.71875 372.65625 80.546875Q372.98438 80.359375 373.1875 80.046875Q373.39062 79.71875 373.48438 79.296875Q373.59375 78.875 373.59375 78.40625ZM377.40625 72.5L377.40625 81.5L376.32812 81.5L376.32812 72.5L377.40625 72.5ZM377.15625 78.09375L376.70312 78.078125Q376.70312 77.421875 376.89062 76.875Q377.07812 76.3125 377.42188 75.90625Q377.76562 75.5 378.23438 75.28125Q378.70312 75.046875 379.28125 75.046875Q379.75 75.046875 380.125 75.171875Q380.5 75.296875 380.76562 75.578125Q381.03125 75.84375 381.17188 76.28125Q381.3125 76.71875 381.3125 77.34375L381.3125 81.5L380.21875 81.5L380.21875 77.328125Q380.21875 76.828125 380.07812 76.53125Q379.9375 76.234375 379.65625 76.09375Q379.375 75.953125 378.95312 75.953125Q378.54688 75.953125 378.21875 76.125Q377.89062 76.296875 377.65625 76.59375Q377.42188 76.890625 377.28125 77.28125Q377.15625 77.65625 377.15625 78.09375ZM385.10938 80.84375L386.875 75.15625L388.03125 75.15625L385.48438 82.484375Q385.40625 82.71875 385.25 82.984375Q385.10938 83.265625 384.89062 83.5Q384.67188 83.75 384.35938 83.90625Q384.04688 84.0625 383.60938 84.0625Q383.48438 84.0625 383.28125 84.015625Q383.07812 83.984375 383.0 83.96875L383.0 83.09375Q383.04688 83.09375 383.14062 83.09375Q383.25 83.109375 383.28125 83.109375Q383.65625 83.109375 383.90625 83.015625Q384.17188 82.921875 384.34375 82.6875Q384.53125 82.46875 384.65625 82.078125L385.10938 80.84375ZM383.8125 75.15625L385.45312 80.078125L385.73438 81.21875L384.96875 81.625L382.625 75.15625L383.8125 75.15625ZM390.5 72.5L390.5 81.5L389.42188 81.5L389.42188 72.5L390.5 72.5ZM393.5 72.5L393.5 81.5L392.42188 81.5L392.42188 72.5L393.5 72.5ZM397.95312 81.625Q397.29688 81.625 396.75 81.40625Q396.21875 81.171875 395.82812 80.765625Q395.45312 80.34375 395.25 79.78125Q395.04688 79.21875 395.04688 78.546875L395.04688 78.3125Q395.04688 77.53125 395.26562 76.921875Q395.5 76.3125 395.89062 75.890625Q396.28125 75.46875 396.78125 75.265625Q397.28125 75.046875 397.8125 75.046875Q398.5 75.046875 398.98438 75.28125Q399.48438 75.515625 399.79688 75.9375Q400.125 76.34375 400.26562 76.921875Q400.42188 77.484375 400.42188 78.140625L400.42188 78.640625L395.6875 78.640625L395.6875 77.75L399.34375 77.75L399.34375 77.671875Q399.3125 77.25 399.15625 76.859375Q399.01562 76.453125 398.6875 76.203125Q398.375 75.9375 397.8125 75.9375Q397.45312 75.9375 397.14062 76.09375Q396.82812 76.25 396.59375 76.5625Q396.375 76.859375 396.25 77.296875Q396.14062 77.734375 396.14062 78.3125L396.14062 78.546875Q396.14062 79.0 396.26562 79.40625Q396.39062 79.796875 396.625 80.09375Q396.875 80.390625 397.21875 80.5625Q397.57812 80.734375 398.01562 80.734375Q398.59375 80.734375 398.98438 80.5Q399.39062 80.265625 399.6875 79.875L400.34375 80.390625Q400.14062 80.703125 399.8125 80.984375Q399.5 81.265625 399.03125 81.453125Q398.57812 81.625 397.95312 81.625ZM402.40625 76.515625L402.40625 81.5L401.32812 81.5L401.32812 75.15625L402.35938 75.15625L402.40625 76.515625ZM402.15625 78.09375L401.70312 78.078125Q401.70312 77.421875 401.89062 76.875Q402.07812 76.3125 402.42188 75.90625Q402.76562 75.5 403.23438 75.28125Q403.70312 75.046875 404.28125 75.046875Q404.75 75.046875 405.125 75.171875Q405.5 75.296875 405.76562 75.578125Q406.03125 75.84375 406.17188 76.28125Q406.3125 76.71875 406.3125 77.34375L406.3125 81.5L405.21875 81.5L405.21875 77.328125Q405.21875 76.828125 405.07812 76.53125Q404.9375 76.234375 404.65625 76.09375Q404.375 75.953125 403.95312 75.953125Q403.54688 75.953125 403.21875 76.125Q402.89062 76.296875 402.65625 76.59375Q402.42188 76.890625 402.28125 77.28125Q402.15625 77.65625 402.15625 78.09375Z" fill-rule="nonzero"/><path stroke="#cccccc" stroke-width="1.0" stroke-linecap="butt" d="M372.0 305.0L547.0 204.0" fill-rule="nonzero"/><path fill="#000000" d="M553.6719 194.57812L553.6719 195.5L549.40625 195.5L549.40625 194.57812L553.6719 194.57812ZM549.625 186.96875L549.625 195.5L548.4844 195.5L548.4844 186.96875L549.625 186.96875ZM555.5 189.15625L555.5 195.5L554.4219 195.5L554.4219 189.15625L555.5 189.15625ZM554.3281 187.48438Q554.3281 187.21875 554.4844 187.03125Q554.65625 186.84375 554.96875 186.84375Q555.28125 186.84375 555.4375 187.03125Q555.6094 187.21875 555.6094 187.48438Q555.6094 187.73438 555.4375 187.92188Q555.28125 188.09375 554.96875 188.09375Q554.65625 188.09375 554.4844 187.92188Q554.3281 187.73438 554.3281 187.48438ZM558.40625 190.51562L558.40625 195.5L557.3281 195.5L557.3281 189.15625L558.3594 189.15625L558.40625 190.51562ZM558.15625 192.09375L557.7031 192.07812Q557.7031 191.42188 557.8906 190.875Q558.0781 190.3125 558.4219 189.90625Q558.7656 189.5 559.2344 189.28125Q559.7031 189.04688 560.28125 189.04688Q560.75 189.04688 561.125 189.17188Q561.5 189.29688 561.7656 189.57812Q562.03125 189.84375 562.1719 190.28125Q562.3125 190.71875 562.3125 191.34375L562.3125 195.5L561.21875 195.5L561.21875 191.32812Q561.21875 190.82812 561.0781 190.53125Q560.9375 190.23438 560.65625 190.09375Q560.375 189.95312 559.9531 189.95312Q559.5469 189.95312 559.21875 190.125Q558.8906 190.29688 558.65625 190.59375Q558.4219 190.89062 558.28125 191.28125Q558.15625 191.65625 558.15625 192.09375ZM568.0625 194.42188L568.0625 191.15625Q568.0625 190.78125 567.90625 190.5Q567.7656 190.21875 567.46875 190.07812Q567.1719 189.92188 566.7344 189.92188Q566.3125 189.92188 566.0 190.0625Q565.7031 190.20312 565.53125 190.4375Q565.3594 190.65625 565.3594 190.92188L564.28125 190.92188Q564.28125 190.57812 564.4531 190.25Q564.625 189.90625 564.9531 189.64062Q565.28125 189.35938 565.75 189.20312Q566.21875 189.04688 566.7969 189.04688Q567.4844 189.04688 568.0156 189.28125Q568.5469 189.51562 568.84375 189.98438Q569.15625 190.45312 569.15625 191.15625L569.15625 194.10938Q569.15625 194.4375 569.2031 194.79688Q569.2656 195.14062 569.375 195.40625L569.375 195.5L568.2344 195.5Q568.15625 195.3125 568.1094 195.0Q568.0625 194.6875 568.0625 194.42188ZM568.25 191.65625L568.2656 192.42188L567.1719 192.42188Q566.7031 192.42188 566.34375 192.5Q565.9844 192.5625 565.7344 192.71875Q565.4844 192.85938 565.3594 193.07812Q565.2344 193.29688 565.2344 193.59375Q565.2344 193.89062 565.3594 194.14062Q565.5 194.375 565.7656 194.53125Q566.0469 194.67188 566.4375 194.67188Q566.9375 194.67188 567.3125 194.46875Q567.7031 194.25 567.9219 193.95312Q568.15625 193.64062 568.1719 193.34375L568.6406 193.875Q568.59375 194.10938 568.40625 194.42188Q568.2344 194.71875 567.9219 195.0Q567.625 195.26562 567.2031 195.45312Q566.7969 195.625 566.28125 195.625Q565.6406 195.625 565.15625 195.375Q564.6719 195.10938 564.40625 194.6875Q564.1406 194.26562 564.1406 193.73438Q564.1406 193.21875 564.3281 192.84375Q564.53125 192.45312 564.90625 192.1875Q565.28125 191.92188 565.8125 191.79688Q566.34375 191.65625 567.0 191.65625L568.25 191.65625ZM572.5 186.5L572.5 195.5L571.4219 195.5L571.4219 186.5L572.5 186.5ZM574.0469 192.40625L574.0469 192.26562Q574.0469 191.57812 574.2344 191.0Q574.4375 190.40625 574.8125 189.96875Q575.1875 189.53125 575.71875 189.29688Q576.25 189.04688 576.9219 189.04688Q577.5781 189.04688 578.1094 189.29688Q578.65625 189.53125 579.03125 189.96875Q579.40625 190.40625 579.6094 191.0Q579.8125 191.57812 579.8125 192.26562L579.8125 192.40625Q579.8125 193.07812 579.6094 193.67188Q579.40625 194.25 579.03125 194.6875Q578.65625 195.125 578.125 195.375Q577.59375 195.625 576.9219 195.625Q576.2656 195.625 575.71875 195.375Q575.1875 195.125 574.8125 194.6875Q574.4375 194.25 574.2344 193.67188Q574.0469 193.07812 574.0469 192.40625ZM575.125 192.26562L575.125 192.40625Q575.125 192.875 575.2344 193.29688Q575.34375 193.71875 575.5625 194.04688Q575.7969 194.35938 576.1406 194.54688Q576.4844 194.71875 576.9219 194.71875Q577.375 194.71875 577.7031 194.54688Q578.0469 194.35938 578.2656 194.04688Q578.5 193.71875 578.6094 193.29688Q578.71875 192.875 578.71875 192.40625L578.71875 192.26562Q578.71875 191.79688 578.6094 191.375Q578.5 190.95312 578.2656 190.64062Q578.0469 190.3125 577.7031 190.125Q577.375 189.9375 576.9219 189.9375Q576.46875 189.9375 576.125 190.125Q575.7969 190.3125 575.5625 190.64062Q575.34375 190.95312 575.2344 191.375Q575.125 191.79688 575.125 192.26562ZM581.0469 192.40625L581.0469 192.26562Q581.0469 191.57812 581.2344 191.0Q581.4375 190.40625 581.8125 189.96875Q582.1875 189.53125 582.71875 189.29688Q583.25 189.04688 583.9219 189.04688Q584.5781 189.04688 585.1094 189.29688Q585.65625 189.53125 586.03125 189.96875Q586.40625 190.40625 586.6094 191.0Q586.8125 191.57812 586.8125 192.26562L586.8125 192.40625Q586.8125 193.07812 586.6094 193.67188Q586.40625 194.25 586.03125 194.6875Q585.65625 195.125 585.125 195.375Q584.59375 195.625 583.9219 195.625Q583.2656 195.625 582.71875 195.375Q582.1875 195.125 581.8125 194.6875Q581.4375 194.25 581.2344 193.67188Q581.0469 193.07812 581.0469 192.40625ZM582.125 192.26562L582.125 192.40625Q582.125 192.875 582.2344 193.29688Q582.34375 193.71875 582.5625 194.04688Q582.7969 194.35938 583.1406 194.54688Q583.4844 194.71875 583.9219 194.71875Q584.375 194.71875 584.7031 194.54688Q585.0469 194.35938 585.2656 194.04688Q585.5 193.71875 585.6094 193.29688Q585.71875 192.875 585.71875 192.40625L585.71875 192.26562Q585.71875 191.79688 585.6094 191.375Q585.5 190.95312 585.2656 190.64062Q585.0469 190.3125 584.7031 190.125Q584.375 189.9375 583.9219 189.9375Q583.46875 189.9375 583.125 190.125Q582.7969 190.3125 582.5625 190.64062Q582.34375 190.95312 582.2344 191.375Q582.125 191.79688 582.125 192.26562ZM589.5 186.5L589.5 195.5L588.4219 195.5L588.4219 186.5L589.5 186.5Z" fill-rule="nonzero"/><path stroke="#cccccc" stroke-width="1.0" stroke-linecap="butt" d="M372.0 305.0L547.0 406.0" fill-rule="nonzero"/><path fill="#000000" d="M551.6719 422.57812L551.6719 423.5L547.40625 423.5L547.40625 422.57812L551.6719 422.57812ZM547.625 414.96875L547.625 423.5L546.4844 423.5L546.4844 414.96875L547.625 414.96875ZM553.5 417.15625L553.5 423.5L552.4219 423.5L552.4219 417.15625L553.5 417.15625ZM552.3281 415.48438Q552.3281 415.21875 552.4844 415.03125Q552.65625 414.84375 552.96875 414.84375Q553.28125 414.84375 553.4375 415.03125Q553.6094 415.21875 553.6094 415.48438Q553.6094 415.73438 553.4375 415.92188Q553.28125 416.09375 552.96875 416.09375Q552.65625 416.09375 552.4844 415.92188Q552.3281 415.73438 552.3281 415.48438ZM556.40625 418.42188L556.40625 423.5L555.3125 423.5L555.3125 417.15625L556.34375 417.15625L556.40625 418.42188ZM556.1875 420.09375L555.6719 420.07812Q555.6875 419.42188 555.84375 418.875Q556.0156 418.3125 556.3281 417.90625Q556.65625 417.5 557.1406 417.28125Q557.625 417.04688 558.25 417.04688Q558.7031 417.04688 559.0781 417.17188Q559.4531 417.29688 559.71875 417.5625Q560.0 417.82812 560.1406 418.25Q560.2969 418.67188 560.2969 419.28125L560.2969 423.5L559.21875 423.5L559.21875 419.32812Q559.21875 418.82812 559.0469 418.53125Q558.8906 418.23438 558.5781 418.09375Q558.28125 417.95312 557.8594 417.95312Q557.3906 417.95312 557.0625 418.125Q556.7344 418.29688 556.5469 418.59375Q556.3594 418.89062 556.2656 419.28125Q556.1875 419.65625 556.1875 420.09375ZM560.2969 419.48438L559.5625 419.71875Q559.5625 419.1875 559.7344 418.71875Q559.90625 418.23438 560.21875 417.85938Q560.5469 417.48438 561.0156 417.26562Q561.4844 417.04688 562.0781 417.04688Q562.59375 417.04688 562.9844 417.1875Q563.3906 417.3125 563.65625 417.59375Q563.9219 417.875 564.0625 418.3125Q564.2031 418.73438 564.2031 419.32812L564.2031 423.5L563.125 423.5L563.125 419.32812Q563.125 418.78125 562.9531 418.5Q562.78125 418.20312 562.4844 418.07812Q562.1875 417.95312 561.7656 417.95312Q561.40625 417.95312 561.125 418.07812Q560.8594 418.20312 560.6719 418.42188Q560.4844 418.625 560.3906 418.90625Q560.2969 419.1875 560.2969 419.48438ZM566.0469 420.40625L566.0469 420.26562Q566.0469 419.57812 566.2344 419.0Q566.4375 418.40625 566.8125 417.96875Q567.1875 417.53125 567.71875 417.29688Q568.25 417.04688 568.9219 417.04688Q569.5781 417.04688 570.1094 417.29688Q570.65625 417.53125 571.03125 417.96875Q571.40625 418.40625 571.6094 419.0Q571.8125 419.57812 571.8125 420.26562L571.8125 420.40625Q571.8125 421.07812 571.6094 421.67188Q571.40625 422.25 571.03125 422.6875Q570.65625 423.125 570.125 423.375Q569.59375 423.625 568.9219 423.625Q568.2656 423.625 567.71875 423.375Q567.1875 423.125 566.8125 422.6875Q566.4375 422.25 566.2344 421.67188Q566.0469 421.07812 566.0469 420.40625ZM567.125 420.26562L567.125 420.40625Q567.125 420.875 567.2344 421.29688Q567.34375 421.71875 567.5625 422.04688Q567.7969 422.35938 568.1406 422.54688Q568.4844 422.71875 568.9219 422.71875Q569.375 422.71875 569.7031 422.54688Q570.0469 422.35938 570.2656 422.04688Q570.5 421.71875 570.6094 421.29688Q570.71875 420.875 570.71875 420.40625L570.71875 420.26562Q570.71875 419.79688 570.6094 419.375Q570.5 418.95312 570.2656 418.64062Q570.0469 418.3125 569.7031 418.125Q569.375 417.9375 568.9219 417.9375Q568.46875 417.9375 568.125 418.125Q567.7969 418.3125 567.5625 418.64062Q567.34375 418.95312 567.2344 419.375Q567.125 419.79688 567.125 420.26562ZM574.40625 418.51562L574.40625 423.5L573.3281 423.5L573.3281 417.15625L574.3594 417.15625L574.40625 418.51562ZM574.15625 420.09375L573.7031 420.07812Q573.7031 419.42188 573.8906 418.875Q574.0781 418.3125 574.4219 417.90625Q574.7656 417.5 575.2344 417.28125Q575.7031 417.04688 576.28125 417.04688Q576.75 417.04688 577.125 417.17188Q577.5 417.29688 577.7656 417.57812Q578.03125 417.84375 578.1719 418.28125Q578.3125 418.71875 578.3125 419.34375L578.3125 423.5L577.21875 423.5L577.21875 419.32812Q577.21875 418.82812 577.0781 418.53125Q576.9375 418.23438 576.65625 418.09375Q576.375 417.95312 575.9531 417.95312Q575.5469 417.95312 575.21875 418.125Q574.8906 418.29688 574.65625 418.59375Q574.4219 418.89062 574.28125 419.28125Q574.15625 419.65625 574.15625 420.09375ZM582.9531 423.625Q582.2969 423.625 581.75 423.40625Q581.21875 423.17188 580.8281 422.76562Q580.4531 422.34375 580.25 421.78125Q580.0469 421.21875 580.0469 420.54688L580.0469 420.3125Q580.0469 419.53125 580.2656 418.92188Q580.5 418.3125 580.8906 417.89062Q581.28125 417.46875 581.78125 417.26562Q582.28125 417.04688 582.8125 417.04688Q583.5 417.04688 583.9844 417.28125Q584.4844 417.51562 584.7969 417.9375Q585.125 418.34375 585.2656 418.92188Q585.4219 419.48438 585.4219 420.14062L585.4219 420.64062L580.6875 420.64062L580.6875 419.75L584.34375 419.75L584.34375 419.67188Q584.3125 419.25 584.15625 418.85938Q584.0156 418.45312 583.6875 418.20312Q583.375 417.9375 582.8125 417.9375Q582.4531 417.9375 582.1406 418.09375Q581.8281 418.25 581.59375 418.5625Q581.375 418.85938 581.25 419.29688Q581.1406 419.73438 581.1406 420.3125L581.1406 420.54688Q581.1406 421.0 581.2656 421.40625Q581.3906 421.79688 581.625 422.09375Q581.875 422.39062 582.21875 422.5625Q582.5781 422.73438 583.0156 422.73438Q583.59375 422.73438 583.9844 422.5Q584.3906 422.26562 584.6875 421.875L585.34375 422.39062Q585.1406 422.70312 584.8125 422.98438Q584.5 423.26562 584.03125 423.45312Q583.5781 423.625 582.9531 423.625ZM587.40625 418.51562L587.40625 423.5L586.3281 423.5L586.3281 417.15625L587.3594 417.15625L587.40625 418.51562ZM587.15625 420.09375L586.7031 420.07812Q586.7031 419.42188 586.8906 418.875Q587.0781 418.3125 587.4219 417.90625Q587.7656 417.5 588.2344 417.28125Q588.7031 417.04688 589.28125 417.04688Q589.75 417.04688 590.125 417.17188Q590.5 417.29688 590.7656 417.57812Q591.03125 417.84375 591.1719 418.28125Q591.3125 418.71875 591.3125 419.34375L591.3125 423.5L590.21875 423.5L590.21875 419.32812Q590.21875 418.82812 590.0781 418.53125Q589.9375 418.23438 589.65625 418.09375Q589.375 417.95312 588.9531 417.95312Q588.5469 417.95312 588.21875 418.125Q587.8906 418.29688 587.65625 418.59375Q587.4219 418.89062 587.28125 419.28125Q587.15625 419.65625 587.15625 420.09375Z" fill-rule="nonzero"/><path stroke="#cccccc" stroke-width="1.0" stroke-linecap="butt" d="M372.0 305.0L372.0 507.0" fill-rule="nonzero"/><path fill="#000000" d="M352.625 528.96875L352.625 537.5L351.48438 537.5L351.48438 528.96875L352.625 528.96875ZM356.20312 532.8125L356.20312 533.7344L352.375 533.7344L352.375 532.8125L356.20312 532.8125ZM356.78125 528.96875L356.78125 529.8906L352.375 529.8906L352.375 528.96875L356.78125 528.96875ZM360.95312 537.625Q360.29688 537.625 359.75 537.40625Q359.21875 537.1719 358.82812 536.7656Q358.45312 536.34375 358.25 535.78125Q358.04688 535.21875 358.04688 534.5469L358.04688 534.3125Q358.04688 533.53125 358.26562 532.9219Q358.5 532.3125 358.89062 531.8906Q359.28125 531.46875 359.78125 531.2656Q360.28125 531.0469 360.8125 531.0469Q361.5 531.0469 361.98438 531.28125Q362.48438 531.5156 362.79688 531.9375Q363.125 532.34375 363.26562 532.9219Q363.42188 533.4844 363.42188 534.1406L363.42188 534.6406L358.6875 534.6406L358.6875 533.75L362.34375 533.75L362.34375 533.6719Q362.3125 533.25 362.15625 532.8594Q362.01562 532.4531 361.6875 532.2031Q361.375 531.9375 360.8125 531.9375Q360.45312 531.9375 360.14062 532.09375Q359.82812 532.25 359.59375 532.5625Q359.375 532.8594 359.25 533.2969Q359.14062 533.7344 359.14062 534.3125L359.14062 534.5469Q359.14062 535.0 359.26562 535.40625Q359.39062 535.7969 359.625 536.09375Q359.875 536.3906 360.21875 536.5625Q360.57812 536.7344 361.01562 536.7344Q361.59375 536.7344 361.98438 536.5Q362.39062 536.2656 362.6875 535.875L363.34375 536.3906Q363.14062 536.7031 362.8125 536.9844Q362.5 537.2656 362.03125 537.4531Q361.57812 537.625 360.95312 537.625ZM365.40625 532.5156L365.40625 537.5L364.32812 537.5L364.32812 531.15625L365.35938 531.15625L365.40625 532.5156ZM365.15625 534.09375L364.70312 534.0781Q364.70312 533.4219 364.89062 532.875Q365.07812 532.3125 365.42188 531.90625Q365.76562 531.5 366.23438 531.28125Q366.70312 531.0469 367.28125 531.0469Q367.75 531.0469 368.125 531.1719Q368.5 531.2969 368.76562 531.5781Q369.03125 531.84375 369.17188 532.28125Q369.3125 532.71875 369.3125 533.34375L369.3125 537.5L368.21875 537.5L368.21875 533.3281Q368.21875 532.8281 368.07812 532.53125Q367.9375 532.2344 367.65625 532.09375Q367.375 531.9531 366.95312 531.9531Q366.54688 531.9531 366.21875 532.125Q365.89062 532.2969 365.65625 532.59375Q365.42188 532.8906 365.28125 533.28125Q365.15625 533.65625 365.15625 534.09375ZM373.85938 536.71875Q374.25 536.71875 374.57812 536.5625Q374.90625 536.40625 375.10938 536.1406Q375.32812 535.8594 375.35938 535.5L376.39062 535.5Q376.35938 536.0625 376.0 536.5469Q375.65625 537.03125 375.09375 537.3281Q374.53125 537.625 373.85938 537.625Q373.15625 537.625 372.625 537.375Q372.09375 537.1094 371.73438 536.6719Q371.39062 536.2344 371.21875 535.6719Q371.04688 535.09375 371.04688 534.4531L371.04688 534.2031Q371.04688 533.5625 371.21875 533.0Q371.39062 532.4219 371.73438 531.9844Q372.09375 531.5469 372.625 531.2969Q373.15625 531.0469 373.85938 531.0469Q374.60938 531.0469 375.15625 531.34375Q375.71875 531.6406 376.03125 532.1719Q376.35938 532.6875 376.39062 533.34375L375.35938 533.34375Q375.32812 532.9531 375.14062 532.6406Q374.95312 532.3125 374.625 532.125Q374.29688 531.9375 373.85938 531.9375Q373.35938 531.9375 373.01562 532.1406Q372.6875 532.3281 372.48438 532.65625Q372.29688 532.9844 372.20312 533.3906Q372.125 533.7969 372.125 534.2031L372.125 534.4531Q372.125 534.875 372.20312 535.28125Q372.29688 535.6719 372.48438 536.0Q372.6875 536.3281 373.01562 536.53125Q373.35938 536.71875 373.85938 536.71875ZM378.40625 528.5L378.40625 537.5L377.32812 537.5L377.32812 528.5L378.40625 528.5ZM378.15625 534.09375L377.70312 534.0781Q377.70312 533.4219 377.89062 532.875Q378.07812 532.3125 378.42188 531.90625Q378.76562 531.5 379.23438 531.28125Q379.70312 531.0469 380.28125 531.0469Q380.75 531.0469 381.125 531.1719Q381.5 531.2969 381.76562 531.5781Q382.03125 531.84375 382.17188 532.28125Q382.3125 532.71875 382.3125 533.34375L382.3125 537.5L381.21875 537.5L381.21875 533.3281Q381.21875 532.8281 381.07812 532.53125Q380.9375 532.2344 380.65625 532.09375Q380.375 531.9531 379.95312 531.9531Q379.54688 531.9531 379.21875 532.125Q378.89062 532.2969 378.65625 532.59375Q378.42188 532.8906 378.28125 533.28125Q378.15625 533.65625 378.15625 534.09375ZM384.04688 534.40625L384.04688 534.2656Q384.04688 533.5781 384.23438 533.0Q384.4375 532.40625 384.8125 531.96875Q385.1875 531.53125 385.71875 531.2969Q386.25 531.0469 386.92188 531.0469Q387.57812 531.0469 388.10938 531.2969Q388.65625 531.53125 389.03125 531.96875Q389.40625 532.40625 389.60938 533.0Q389.8125 533.5781 389.8125 534.2656L389.8125 534.40625Q389.8125 535.0781 389.60938 535.6719Q389.40625 536.25 389.03125 536.6875Q388.65625 537.125 388.125 537.375Q387.59375 537.625 386.92188 537.625Q386.26562 537.625 385.71875 537.375Q385.1875 537.125 384.8125 536.6875Q384.4375 536.25 384.23438 535.6719Q384.04688 535.0781 384.04688 534.40625ZM385.125 534.2656L385.125 534.40625Q385.125 534.875 385.23438 535.2969Q385.34375 535.71875 385.5625 536.0469Q385.79688 536.3594 386.14062 536.5469Q386.48438 536.71875 386.92188 536.71875Q387.375 536.71875 387.70312 536.5469Q388.04688 536.3594 388.26562 536.0469Q388.5 535.71875 388.60938 535.2969Q388.71875 534.875 388.71875 534.40625L388.71875 534.2656Q388.71875 533.7969 388.60938 533.375Q388.5 532.9531 388.26562 532.6406Q388.04688 532.3125 387.70312 532.125Q387.375 531.9375 386.92188 531.9375Q386.46875 531.9375 386.125 532.125Q385.79688 532.3125 385.5625 532.6406Q385.34375 532.9531 385.23438 533.375Q385.125 533.7969 385.125 534.2656ZM392.5 528.5L392.5 537.5L391.42188 537.5L391.42188 528.5L392.5 528.5Z" fill-rule="nonzero"/><path stroke="#cccccc" stroke-width="1.0" stroke-linecap="butt" d="M372.0 305.0L197.0 406.0" fill-rule="nonzero"/><path fill="#000000" d="M145.59375 420.5625L145.59375 420.4375Q145.59375 419.6875 145.75 419.07812Q145.92188 418.45312 146.23438 418.0Q146.54688 417.54688 147.0 417.29688Q147.46875 417.04688 148.0625 417.04688Q148.51562 417.04688 148.875 417.1875Q149.25 417.3125 149.53125 417.57812Q149.8125 417.82812 150.01562 418.20312Q150.21875 418.57812 150.34375 419.0625Q150.46875 419.53125 150.51562 420.09375L150.51562 420.57812Q150.45312 421.28125 150.26562 421.84375Q150.09375 422.40625 149.79688 422.8125Q149.5 423.20312 149.0625 423.42188Q148.64062 423.625 148.04688 423.625Q147.46875 423.625 147.0 423.40625Q146.54688 423.17188 146.23438 422.76562Q145.92188 422.34375 145.75 421.79688Q145.59375 421.23438 145.59375 420.5625ZM146.67188 420.4375L146.67188 420.5625Q146.67188 421.01562 146.76562 421.40625Q146.85938 421.79688 147.04688 422.09375Q147.25 422.39062 147.5625 422.5625Q147.89062 422.73438 148.32812 422.73438Q148.75 422.73438 149.04688 422.5625Q149.35938 422.375 149.5625 422.07812Q149.78125 421.78125 149.90625 421.39062Q150.04688 421.0 150.14062 420.59375L150.14062 420.20312Q150.07812 419.76562 149.9375 419.375Q149.8125 418.96875 149.59375 418.64062Q149.39062 418.3125 149.07812 418.125Q148.76562 417.9375 148.32812 417.9375Q147.89062 417.9375 147.57812 418.14062Q147.26562 418.32812 147.0625 418.67188Q146.85938 419.01562 146.76562 419.48438Q146.67188 419.9375 146.67188 420.4375ZM149.98438 417.15625L150.90625 417.15625L150.90625 421.76562Q150.90625 422.04688 150.9375 422.21875Q150.96875 422.375 151.03125 422.48438Q151.10938 422.57812 151.1875 422.625Q151.28125 422.65625 151.375 422.65625Q151.42188 422.65625 151.46875 422.64062Q151.53125 422.625 151.5625 422.60938L151.70312 423.42188Q151.51562 423.54688 151.34375 423.57812Q151.17188 423.625 150.98438 423.625Q150.70312 423.625 150.48438 423.51562Q150.28125 423.42188 150.125 423.20312Q149.96875 422.98438 149.89062 422.625Q149.8125 422.26562 149.8125 421.76562L149.8125 418.53125L149.98438 417.15625ZM155.07812 419.42188L155.07812 420.3125L152.21875 420.3125L152.21875 419.42188L155.07812 419.42188ZM159.03125 419.51562L156.875 419.51562L156.85938 418.59375L158.82812 418.59375Q159.3125 418.59375 159.67188 418.4375Q160.03125 418.26562 160.23438 417.96875Q160.4375 417.65625 160.4375 417.23438Q160.4375 416.76562 160.25 416.46875Q160.07812 416.17188 159.70312 416.03125Q159.34375 415.89062 158.78125 415.89062L157.125 415.89062L157.125 423.5L155.98438 423.5L155.98438 414.96875L158.78125 414.96875Q159.4375 414.96875 159.95312 415.10938Q160.46875 415.23438 160.82812 415.51562Q161.1875 415.78125 161.375 416.21875Q161.5625 416.64062 161.5625 417.23438Q161.5625 417.76562 161.29688 418.20312Q161.03125 418.625 160.54688 418.89062Q160.07812 419.15625 159.4375 419.23438L159.03125 419.51562ZM158.98438 423.5L156.42188 423.5L157.0625 422.57812L158.98438 422.57812Q159.51562 422.57812 159.89062 422.39062Q160.28125 422.20312 160.46875 421.85938Q160.67188 421.51562 160.67188 421.04688Q160.67188 420.57812 160.5 420.23438Q160.32812 419.89062 159.96875 419.70312Q159.60938 419.51562 159.03125 419.51562L157.42188 419.51562L157.4375 418.59375L159.64062 418.59375L159.875 418.92188Q160.48438 418.98438 160.90625 419.28125Q161.34375 419.57812 161.5625 420.03125Q161.79688 420.48438 161.79688 421.03125Q161.79688 421.82812 161.4375 422.39062Q161.09375 422.9375 160.45312 423.21875Q159.82812 423.5 158.98438 423.5ZM164.0 417.15625L164.0 423.5L162.92188 423.5L162.92188 417.15625L164.0 417.15625ZM162.82812 415.48438Q162.82812 415.21875 162.98438 415.03125Q163.15625 414.84375 163.46875 414.84375Q163.78125 414.84375 163.9375 415.03125Q164.10938 415.21875 164.10938 415.48438Q164.10938 415.73438 163.9375 415.92188Q163.78125 416.09375 163.46875 416.09375Q163.15625 416.09375 162.98438 415.92188Q162.82812 415.73438 162.82812 415.48438ZM169.51562 421.8125Q169.51562 421.57812 169.40625 421.375Q169.3125 421.17188 169.0 421.01562Q168.6875 420.84375 168.0625 420.71875Q167.53125 420.60938 167.10938 420.46875Q166.6875 420.3125 166.39062 420.09375Q166.09375 419.875 165.9375 419.57812Q165.78125 419.28125 165.78125 418.89062Q165.78125 418.51562 165.9375 418.1875Q166.10938 417.84375 166.40625 417.59375Q166.71875 417.32812 167.15625 417.1875Q167.59375 417.04688 168.125 417.04688Q168.89062 417.04688 169.42188 417.3125Q169.96875 417.57812 170.25 418.03125Q170.53125 418.48438 170.53125 419.01562L169.45312 419.01562Q169.45312 418.76562 169.29688 418.51562Q169.14062 418.26562 168.84375 418.10938Q168.54688 417.9375 168.125 417.9375Q167.67188 417.9375 167.39062 418.07812Q167.10938 418.20312 166.98438 418.42188Q166.85938 418.625 166.85938 418.85938Q166.85938 419.04688 166.92188 419.1875Q166.98438 419.3125 167.14062 419.4375Q167.29688 419.54688 167.57812 419.65625Q167.875 419.75 168.32812 419.84375Q169.10938 420.01562 169.60938 420.26562Q170.10938 420.51562 170.35938 420.875Q170.60938 421.21875 170.60938 421.73438Q170.60938 422.15625 170.42188 422.5Q170.25 422.84375 169.92188 423.09375Q169.60938 423.34375 169.15625 423.48438Q168.70312 423.625 168.15625 423.625Q167.3125 423.625 166.73438 423.32812Q166.15625 423.01562 165.85938 422.54688Q165.5625 422.0625 165.5625 421.54688L166.64062 421.54688Q166.67188 421.98438 166.90625 422.25Q167.14062 422.51562 167.46875 422.625Q167.8125 422.71875 168.15625 422.71875Q168.59375 422.71875 168.89062 422.60938Q169.20312 422.48438 169.35938 422.28125Q169.51562 422.07812 169.51562 421.8125ZM175.5625 422.42188L175.5625 419.15625Q175.5625 418.78125 175.40625 418.5Q175.26562 418.21875 174.96875 418.07812Q174.67188 417.92188 174.23438 417.92188Q173.8125 417.92188 173.5 418.0625Q173.20312 418.20312 173.03125 418.4375Q172.85938 418.65625 172.85938 418.92188L171.78125 418.92188Q171.78125 418.57812 171.95312 418.25Q172.125 417.90625 172.45312 417.64062Q172.78125 417.35938 173.25 417.20312Q173.71875 417.04688 174.29688 417.04688Q174.98438 417.04688 175.51562 417.28125Q176.04688 417.51562 176.34375 417.98438Q176.65625 418.45312 176.65625 419.15625L176.65625 422.10938Q176.65625 422.4375 176.70312 422.79688Q176.76562 423.14062 176.875 423.40625L176.875 423.5L175.73438 423.5Q175.65625 423.3125 175.60938 423.0Q175.5625 422.6875 175.5625 422.42188ZM175.75 419.65625L175.76562 420.42188L174.67188 420.42188Q174.20312 420.42188 173.84375 420.5Q173.48438 420.5625 173.23438 420.71875Q172.98438 420.85938 172.85938 421.07812Q172.73438 421.29688 172.73438 421.59375Q172.73438 421.89062 172.85938 422.14062Q173.0 422.375 173.26562 422.53125Q173.54688 422.67188 173.9375 422.67188Q174.4375 422.67188 174.8125 422.46875Q175.20312 422.25 175.42188 421.95312Q175.65625 421.64062 175.67188 421.34375L176.14062 421.875Q176.09375 422.10938 175.90625 422.42188Q175.73438 422.71875 175.42188 423.0Q175.125 423.26562 174.70312 423.45312Q174.29688 423.625 173.78125 423.625Q173.14062 423.625 172.65625 423.375Q172.17188 423.10938 171.90625 422.6875Q171.64062 422.26562 171.64062 421.73438Q171.64062 421.21875 171.82812 420.84375Q172.03125 420.45312 172.40625 420.1875Q172.78125 419.92188 173.3125 419.79688Q173.84375 419.65625 174.5 419.65625L175.75 419.65625ZM178.82812 414.5L179.90625 414.5L179.90625 422.26562L179.8125 423.5L178.82812 423.5L178.82812 414.5ZM184.1875 420.28125L184.1875 420.40625Q184.1875 421.09375 184.01562 421.6875Q183.85938 422.26562 183.54688 422.70312Q183.23438 423.14062 182.76562 423.39062Q182.3125 423.625 181.73438 423.625Q181.125 423.625 180.67188 423.42188Q180.21875 423.20312 179.90625 422.8125Q179.59375 422.42188 179.40625 421.85938Q179.21875 421.29688 179.15625 420.60938L179.15625 420.0625Q179.21875 419.35938 179.40625 418.8125Q179.59375 418.25 179.90625 417.85938Q180.21875 417.45312 180.67188 417.25Q181.125 417.04688 181.71875 417.04688Q182.3125 417.04688 182.76562 417.28125Q183.23438 417.5 183.54688 417.9375Q183.85938 418.35938 184.01562 418.95312Q184.1875 419.54688 184.1875 420.28125ZM183.10938 420.40625L183.10938 420.28125Q183.10938 419.79688 183.01562 419.39062Q182.92188 418.96875 182.73438 418.65625Q182.54688 418.32812 182.21875 418.14062Q181.90625 417.95312 181.45312 417.95312Q181.03125 417.95312 180.73438 418.09375Q180.4375 418.23438 180.21875 418.48438Q180.01562 418.71875 179.875 419.01562Q179.75 419.3125 179.6875 419.64062L179.6875 421.04688Q179.78125 421.45312 179.98438 421.84375Q180.20312 422.21875 180.5625 422.46875Q180.92188 422.70312 181.45312 422.70312Q181.89062 422.70312 182.20312 422.53125Q182.53125 422.34375 182.71875 422.03125Q182.92188 421.70312 183.01562 421.29688Q183.10938 420.875 183.10938 420.40625ZM185.54688 420.40625L185.54688 420.26562Q185.54688 419.57812 185.73438 419.0Q185.9375 418.40625 186.3125 417.96875Q186.6875 417.53125 187.21875 417.29688Q187.75 417.04688 188.42188 417.04688Q189.07812 417.04688 189.60938 417.29688Q190.15625 417.53125 190.53125 417.96875Q190.90625 418.40625 191.10938 419.0Q191.3125 419.57812 191.3125 420.26562L191.3125 420.40625Q191.3125 421.07812 191.10938 421.67188Q190.90625 422.25 190.53125 422.6875Q190.15625 423.125 189.625 423.375Q189.09375 423.625 188.42188 423.625Q187.76562 423.625 187.21875 423.375Q186.6875 423.125 186.3125 422.6875Q185.9375 422.25 185.73438 421.67188Q185.54688 421.07812 185.54688 420.40625ZM186.625 420.26562L186.625 420.40625Q186.625 420.875 186.73438 421.29688Q186.84375 421.71875 187.0625 422.04688Q187.29688 422.35938 187.64062 422.54688Q187.98438 422.71875 188.42188 422.71875Q188.875 422.71875 189.20312 422.54688Q189.54688 422.35938 189.76562 422.04688Q190.0 421.71875 190.10938 421.29688Q190.21875 420.875 190.21875 420.40625L190.21875 420.26562Q190.21875 419.79688 190.10938 419.375Q190.0 418.95312 189.76562 418.64062Q189.54688 418.3125 189.20312 418.125Q188.875 417.9375 188.42188 417.9375Q187.96875 417.9375 187.625 418.125Q187.29688 418.3125 187.0625 418.64062Q186.84375 418.95312 186.73438 419.375Q186.625 419.79688 186.625 420.26562ZM194.0 414.5L194.0 423.5L192.92188 423.5L192.92188 414.5L194.0 414.5ZM195.54688 420.40625L195.54688 420.26562Q195.54688 419.57812 195.73438 419.0Q195.9375 418.40625 196.3125 417.96875Q196.6875 417.53125 197.21875 417.29688Q197.75 417.04688 198.42188 417.04688Q199.07812 417.04688 199.60938 417.29688Q200.15625 417.53125 200.53125 417.96875Q200.90625 418.40625 201.10938 419.0Q201.3125 419.57812 201.3125 420.26562L201.3125 420.40625Q201.3125 421.07812 201.10938 421.67188Q200.90625 422.25 200.53125 422.6875Q200.15625 423.125 199.625 423.375Q199.09375 423.625 198.42188 423.625Q197.76562 423.625 197.21875 423.375Q196.6875 423.125 196.3125 422.6875Q195.9375 422.25 195.73438 421.67188Q195.54688 421.07812 195.54688 420.40625ZM196.625 420.26562L196.625 420.40625Q196.625 420.875 196.73438 421.29688Q196.84375 421.71875 197.0625 422.04688Q197.29688 422.35938 197.64062 422.54688Q197.98438 422.71875 198.42188 422.71875Q198.875 422.71875 199.20312 422.54688Q199.54688 422.35938 199.76562 422.04688Q200.0 421.71875 200.10938 421.29688Q200.21875 420.875 200.21875 420.40625L200.21875 420.26562Q200.21875 419.79688 200.10938 419.375Q200.0 418.95312 199.76562 418.64062Q199.54688 418.3125 199.20312 418.125Q198.875 417.9375 198.42188 417.9375Q197.96875 417.9375 197.625 418.125Q197.29688 418.3125 197.0625 418.64062Q196.84375 418.95312 196.73438 419.375Q196.625 419.79688 196.625 420.26562ZM204.0 414.5L204.0 423.5L202.92188 423.5L202.92188 414.5L204.0 414.5Z" fill-rule="nonzero"/><path stroke="#cccccc" stroke-width="1.0" stroke-linecap="butt" d="M372.0 305.0L197.0 204.0" fill-rule="nonzero"/><path fill="#000000" d="M157.03125 193.34375Q157.03125 193.04688 156.9375 192.8125Q156.85938 192.57812 156.625 192.39062Q156.40625 192.20312 156.0 192.03125Q155.60938 191.85938 155.01562 191.6875Q154.375 191.5 153.85938 191.28125Q153.35938 191.04688 152.98438 190.75Q152.625 190.4375 152.4375 190.0625Q152.25 189.67188 152.25 189.17188Q152.25 188.67188 152.45312 188.25Q152.65625 187.82812 153.03125 187.51562Q153.42188 187.20312 153.95312 187.03125Q154.48438 186.84375 155.14062 186.84375Q156.10938 186.84375 156.78125 187.21875Q157.45312 187.57812 157.79688 188.17188Q158.15625 188.76562 158.15625 189.42188L157.03125 189.42188Q157.03125 188.95312 156.8125 188.57812Q156.60938 188.20312 156.1875 188.0Q155.78125 187.78125 155.14062 187.78125Q154.54688 187.78125 154.14062 187.96875Q153.75 188.14062 153.5625 188.45312Q153.375 188.76562 153.375 189.15625Q153.375 189.42188 153.48438 189.65625Q153.60938 189.875 153.84375 190.0625Q154.09375 190.25 154.46875 190.40625Q154.84375 190.5625 155.375 190.70312Q156.09375 190.90625 156.625 191.17188Q157.15625 191.42188 157.5 191.73438Q157.84375 192.04688 158.0 192.4375Q158.17188 192.82812 158.17188 193.32812Q158.17188 193.85938 157.95312 194.28125Q157.75 194.70312 157.35938 195.0Q156.96875 195.29688 156.42188 195.46875Q155.875 195.625 155.20312 195.625Q154.60938 195.625 154.03125 195.45312Q153.46875 195.28125 153.0 194.95312Q152.53125 194.625 152.25 194.15625Q151.96875 193.67188 151.96875 193.03125L153.09375 193.03125Q153.09375 193.46875 153.26562 193.78125Q153.4375 194.09375 153.73438 194.29688Q154.03125 194.5 154.40625 194.60938Q154.78125 194.70312 155.20312 194.70312Q155.79688 194.70312 156.20312 194.54688Q156.60938 194.375 156.8125 194.07812Q157.03125 193.76562 157.03125 193.34375ZM159.04688 192.40625L159.04688 192.26562Q159.04688 191.57812 159.23438 191.0Q159.4375 190.40625 159.8125 189.96875Q160.1875 189.53125 160.71875 189.29688Q161.25 189.04688 161.92188 189.04688Q162.57812 189.04688 163.10938 189.29688Q163.65625 189.53125 164.03125 189.96875Q164.40625 190.40625 164.60938 191.0Q164.8125 191.57812 164.8125 192.26562L164.8125 192.40625Q164.8125 193.07812 164.60938 193.67188Q164.40625 194.25 164.03125 194.6875Q163.65625 195.125 163.125 195.375Q162.59375 195.625 161.92188 195.625Q161.26562 195.625 160.71875 195.375Q160.1875 195.125 159.8125 194.6875Q159.4375 194.25 159.23438 193.67188Q159.04688 193.07812 159.04688 192.40625ZM160.125 192.26562L160.125 192.40625Q160.125 192.875 160.23438 193.29688Q160.34375 193.71875 160.5625 194.04688Q160.79688 194.35938 161.14062 194.54688Q161.48438 194.71875 161.92188 194.71875Q162.375 194.71875 162.70312 194.54688Q163.04688 194.35938 163.26562 194.04688Q163.5 193.71875 163.60938 193.29688Q163.71875 192.875 163.71875 192.40625L163.71875 192.26562Q163.71875 191.79688 163.60938 191.375Q163.5 190.95312 163.26562 190.64062Q163.04688 190.3125 162.70312 190.125Q162.375 189.9375 161.92188 189.9375Q161.46875 189.9375 161.125 190.125Q160.79688 190.3125 160.5625 190.64062Q160.34375 190.95312 160.23438 191.375Q160.125 191.79688 160.125 192.26562ZM167.40625 190.51562L167.40625 195.5L166.32812 195.5L166.32812 189.15625L167.35938 189.15625L167.40625 190.51562ZM167.15625 192.09375L166.70312 192.07812Q166.70312 191.42188 166.89062 190.875Q167.07812 190.3125 167.42188 189.90625Q167.76562 189.5 168.23438 189.28125Q168.70312 189.04688 169.28125 189.04688Q169.75 189.04688 170.125 189.17188Q170.5 189.29688 170.76562 189.57812Q171.03125 189.84375 171.17188 190.28125Q171.3125 190.71875 171.3125 191.34375L171.3125 195.5L170.21875 195.5L170.21875 191.32812Q170.21875 190.82812 170.07812 190.53125Q169.9375 190.23438 169.65625 190.09375Q169.375 189.95312 168.95312 189.95312Q168.54688 189.95312 168.21875 190.125Q167.89062 190.29688 167.65625 190.59375Q167.42188 190.89062 167.28125 191.28125Q167.15625 191.65625 167.15625 192.09375ZM177.01562 193.8125Q177.01562 193.57812 176.90625 193.375Q176.8125 193.17188 176.5 193.01562Q176.1875 192.84375 175.5625 192.71875Q175.03125 192.60938 174.60938 192.46875Q174.1875 192.3125 173.89062 192.09375Q173.59375 191.875 173.4375 191.57812Q173.28125 191.28125 173.28125 190.89062Q173.28125 190.51562 173.4375 190.1875Q173.60938 189.84375 173.90625 189.59375Q174.21875 189.32812 174.65625 189.1875Q175.09375 189.04688 175.625 189.04688Q176.39062 189.04688 176.92188 189.3125Q177.46875 189.57812 177.75 190.03125Q178.03125 190.48438 178.03125 191.01562L176.95312 191.01562Q176.95312 190.76562 176.79688 190.51562Q176.64062 190.26562 176.34375 190.10938Q176.04688 189.9375 175.625 189.9375Q175.17188 189.9375 174.89062 190.07812Q174.60938 190.20312 174.48438 190.42188Q174.35938 190.625 174.35938 190.85938Q174.35938 191.04688 174.42188 191.1875Q174.48438 191.3125 174.64062 191.4375Q174.79688 191.54688 175.07812 191.65625Q175.375 191.75 175.82812 191.84375Q176.60938 192.01562 177.10938 192.26562Q177.60938 192.51562 177.85938 192.875Q178.10938 193.21875 178.10938 193.73438Q178.10938 194.15625 177.92188 194.5Q177.75 194.84375 177.42188 195.09375Q177.10938 195.34375 176.65625 195.48438Q176.20312 195.625 175.65625 195.625Q174.8125 195.625 174.23438 195.32812Q173.65625 195.01562 173.35938 194.54688Q173.0625 194.0625 173.0625 193.54688L174.14062 193.54688Q174.17188 193.98438 174.40625 194.25Q174.64062 194.51562 174.96875 194.625Q175.3125 194.71875 175.65625 194.71875Q176.09375 194.71875 176.39062 194.60938Q176.70312 194.48438 176.85938 194.28125Q177.01562 194.07812 177.01562 193.8125ZM181.98438 189.15625L181.98438 189.98438L178.54688 189.98438L178.54688 189.15625L181.98438 189.15625ZM179.71875 187.625L180.79688 187.625L180.79688 193.92188Q180.79688 194.25 180.89062 194.42188Q181.0 194.57812 181.15625 194.64062Q181.3125 194.6875 181.5 194.6875Q181.625 194.6875 181.76562 194.65625Q181.92188 194.625 182.0 194.60938L182.01562 195.5Q181.875 195.54688 181.67188 195.57812Q181.46875 195.625 181.17188 195.625Q180.78125 195.625 180.4375 195.46875Q180.10938 195.29688 179.90625 194.9375Q179.71875 194.5625 179.71875 193.92188L179.71875 187.625ZM184.5 189.15625L184.5 195.5L183.42188 195.5L183.42188 189.15625L184.5 189.15625ZM183.32812 187.48438Q183.32812 187.21875 183.48438 187.03125Q183.65625 186.84375 183.96875 186.84375Q184.28125 186.84375 184.4375 187.03125Q184.60938 187.21875 184.60938 187.48438Q184.60938 187.73438 184.4375 187.92188Q184.28125 188.09375 183.96875 188.09375Q183.65625 188.09375 183.48438 187.92188Q183.32812 187.73438 183.32812 187.48438ZM190.4375 189.15625L191.42188 189.15625L191.42188 195.35938Q191.42188 196.20312 191.07812 196.79688Q190.73438 197.39062 190.125 197.6875Q189.53125 198.0 188.73438 198.0Q188.40625 198.0 187.95312 197.89062Q187.51562 197.79688 187.09375 197.54688Q186.67188 197.3125 186.39062 196.90625L186.95312 196.25Q187.35938 196.73438 187.78125 196.92188Q188.21875 197.10938 188.65625 197.10938Q189.17188 197.10938 189.54688 196.90625Q189.92188 196.71875 190.125 196.34375Q190.32812 195.96875 190.32812 195.42188L190.32812 190.54688L190.4375 189.15625ZM186.0625 192.40625L186.0625 192.28125Q186.0625 191.54688 186.23438 190.95312Q186.42188 190.35938 186.73438 189.9375Q187.0625 189.5 187.51562 189.28125Q187.98438 189.04688 188.57812 189.04688Q189.17188 189.04688 189.60938 189.25Q190.0625 189.45312 190.375 189.85938Q190.6875 190.25 190.875 190.8125Q191.0625 191.35938 191.125 192.0625L191.125 192.60938Q191.0625 193.29688 190.875 193.85938Q190.6875 194.42188 190.375 194.8125Q190.0625 195.20312 189.60938 195.42188Q189.15625 195.625 188.5625 195.625Q187.98438 195.625 187.53125 195.39062Q187.07812 195.14062 186.75 194.70312Q186.42188 194.26562 186.23438 193.6875Q186.0625 193.09375 186.0625 192.40625ZM187.15625 192.28125L187.15625 192.40625Q187.15625 192.875 187.25 193.29688Q187.34375 193.70312 187.54688 194.03125Q187.75 194.34375 188.0625 194.53125Q188.39062 194.70312 188.82812 194.70312Q189.35938 194.70312 189.70312 194.46875Q190.0625 194.23438 190.26562 193.85938Q190.48438 193.48438 190.59375 193.04688L190.59375 191.64062Q190.53125 191.3125 190.39062 191.01562Q190.26562 190.71875 190.0625 190.48438Q189.85938 190.23438 189.54688 190.09375Q189.25 189.95312 188.82812 189.95312Q188.39062 189.95312 188.0625 190.14062Q187.75 190.32812 187.54688 190.65625Q187.34375 190.96875 187.25 191.39062Q187.15625 191.79688 187.15625 192.28125ZM195.95312 195.625Q195.29688 195.625 194.75 195.40625Q194.21875 195.17188 193.82812 194.76562Q193.45312 194.34375 193.25 193.78125Q193.04688 193.21875 193.04688 192.54688L193.04688 192.3125Q193.04688 191.53125 193.26562 190.92188Q193.5 190.3125 193.89062 189.89062Q194.28125 189.46875 194.78125 189.26562Q195.28125 189.04688 195.8125 189.04688Q196.5 189.04688 196.98438 189.28125Q197.48438 189.51562 197.79688 189.9375Q198.125 190.34375 198.26562 190.92188Q198.42188 191.48438 198.42188 192.14062L198.42188 192.64062L193.6875 192.64062L193.6875 191.75L197.34375 191.75L197.34375 191.67188Q197.3125 191.25 197.15625 190.85938Q197.01562 190.45312 196.6875 190.20312Q196.375 189.9375 195.8125 189.9375Q195.45312 189.9375 195.14062 190.09375Q194.82812 190.25 194.59375 190.5625Q194.375 190.85938 194.25 191.29688Q194.14062 191.73438 194.14062 192.3125L194.14062 192.54688Q194.14062 193.0 194.26562 193.40625Q194.39062 193.79688 194.625 194.09375Q194.875 194.39062 195.21875 194.5625Q195.57812 194.73438 196.01562 194.73438Q196.59375 194.73438 196.98438 194.5Q197.39062 194.26562 197.6875 193.875L198.34375 194.39062Q198.14062 194.70312 197.8125 194.98438Q197.5 195.26562 197.03125 195.45312Q196.57812 195.625 195.95312 195.625Z" fill-rule="nonzero"/><path stroke="#cccccc" stroke-width="1.0" stroke-linecap="butt" d="M372.0 305.0L372.0 103.0" fill-rule="nonzero"/><path stroke="#ff0000" stroke-width="2.0" stroke-linecap="butt" stroke-opacity="0.7019608" stroke-dasharray="8.0,6.0,2.0,6.0" d="M372.0 184.0L455.0 257.0L424.0 335.0L372.0 355.0L333.0 328.0L250.0 234.0Z" fill-rule="nonzero"/><path fill="#ff0000" fill-opacity="0.7019608" d="M368.81802 180.81802L372.0 182.875L375.18198 180.81802L373.125 184.0L375.18198 187.18198L372.0 185.125L368.81802 187.18198L370.875 184.0Z" fill-rule="nonzero"/><path fill="#ff0000" fill-opacity="0.7019608" d="M451.81802 253.81802L455.0 255.875L458.18198 253.81802L456.125 257.0L458.18198 260.18198L455.0 258.125L451.81802 260.18198L453.875 257.0Z" fill-rule="nonzero"/><path fill="#ff0000" fill-opacity="0.7019608" d="M420.81802 331.81802L424.0 333.875L427.18198 331.81802L425.125 335.0L427.18198 338.18198L424.0 336.125L420.81802 338.18198L422.875 335.0Z" fill-rule="nonzero"/><path fill="#ff0000" fill-opacity="0.7019608" d="M368.81802 351.81802L372.0 353.875L375.18198 351.81802L373.125 355.0L375.18198 358.18198L372.0 356.125L368.81802 358.18198L370.875 355.0Z" fill-rule="nonzero"/><path fill="#ff0000" fill-opacity="0.7019608" d="M329.81802 324.81802L333.0 326.875L336.18198 324.81802L334.125 328.0L336.18198 331.18198L333.0 329.125L329.81802 331.18198L331.875 328.0Z" fill-rule="nonzero"/><path fill="#ff0000" fill-opacity="0.7019608" d="M246.81802 230.81802L250.0 232.875L253.18198 230.81802L251.125 234.0L253.18198 237.18198L250.0 235.125L246.81802 237.18198L248.875 234.0Z" fill-rule="nonzero"/><path fill="#757575" d="M28.75625 47.35L28.75625 45.584373L36.084373 36.428123Q36.865623 35.44375 37.56875 34.725L29.584375 34.725L29.584375 33.0375L39.834373 33.0375L39.834373 34.725L31.803125 44.646873L30.928125 45.6625L40.06875 45.6625L40.06875 47.35L28.75625 47.35ZM41.021873 42.1625Q41.021873 39.2875 42.615623 37.896873Q43.959373 36.740623 45.88125 36.740623Q48.021873 36.740623 49.365623 38.146873Q50.725 39.553123 50.725 42.021873Q50.725 44.021873 50.13125 45.178123Q49.5375 46.31875 48.38125 46.959373Q47.240623 47.584373 45.88125 47.584373Q43.69375 47.584373 42.35 46.19375Q41.021873 44.7875 41.021873 42.1625ZM42.81875 42.1625Q42.81875 44.1625 43.678123 45.146873Q44.553123 46.13125 45.88125 46.13125Q47.19375 46.13125 48.053123 45.146873Q48.928123 44.146873 48.928123 42.1Q48.928123 40.178123 48.053123 39.19375Q47.178123 38.19375 45.88125 38.19375Q44.553123 38.19375 43.678123 39.19375Q42.81875 40.178123 42.81875 42.1625ZM52.021873 42.1625Q52.021873 39.2875 53.615623 37.896873Q54.959373 36.740623 56.88125 36.740623Q59.021873 36.740623 60.365623 38.146873Q61.725 39.553123 61.725 42.021873Q61.725 44.021873 61.13125 45.178123Q60.5375 46.31875 59.38125 46.959373Q58.240623 47.584373 56.88125 47.584373Q54.69375 47.584373 53.35 46.19375Q52.021873 44.7875 52.021873 42.1625ZM53.81875 42.1625Q53.81875 44.1625 54.678123 45.146873Q55.553123 46.13125 56.88125 46.13125Q58.19375 46.13125 59.053123 45.146873Q59.928123 44.146873 59.928123 42.1Q59.928123 40.178123 59.053123 39.19375Q58.178123 38.19375 56.88125 38.19375Q55.553123 38.19375 54.678123 39.19375Q53.81875 40.178123 53.81875 42.1625ZM63.678123 47.35L63.678123 33.0375L65.44375 33.0375L65.44375 41.19375L69.6 36.975L71.86562 36.975L67.9125 40.81875L72.27187 47.35L70.1 47.35L66.67812 42.053123L65.44375 43.240623L65.44375 47.35L63.678123 47.35ZM73.67812 35.053123L73.67812 33.0375L75.44375 33.0375L75.44375 35.053123L73.67812 35.053123ZM73.67812 47.35L73.67812 36.975L75.44375 36.975L75.44375 47.35L73.67812 47.35ZM84.77187 44.00625L86.58437 44.240623Q86.1625 45.81875 84.99062 46.709373Q83.83437 47.584373 82.02187 47.584373Q79.75625 47.584373 78.4125 46.19375Q77.08437 44.7875 77.08437 42.25625Q77.08437 39.63125 78.42812 38.19375Q79.77187 36.740623 81.92812 36.740623Q84.00625 36.740623 85.31875 38.1625Q86.64687 39.56875 86.64687 42.146873Q86.64687 42.303123 86.63125 42.615623L78.89687 42.615623Q78.99062 44.31875 79.86562 45.225Q80.74062 46.13125 82.0375 46.13125Q83.00625 46.13125 83.67812 45.63125Q84.36562 45.115623 84.77187 44.00625ZM78.99062 41.1625L84.7875 41.1625Q84.67812 39.865623 84.13125 39.209373Q83.2875 38.19375 81.94375 38.19375Q80.74062 38.19375 79.9125 39.00625Q79.08437 39.803123 78.99062 41.1625ZM87.95937 44.25625L89.70937 43.975Q89.85 45.021873 90.52187 45.584373Q91.19375 46.13125 92.39687 46.13125Q93.6 46.13125 94.17812 45.646873Q94.77187 45.146873 94.77187 44.490623Q94.77187 43.896873 94.25625 43.553123Q93.89687 43.31875 92.45937 42.959373Q90.52187 42.459373 89.77187 42.115623Q89.0375 41.75625 88.64687 41.13125Q88.25625 40.490623 88.25625 39.725Q88.25625 39.0375 88.56875 38.44375Q88.89687 37.85 89.44375 37.459373Q89.85 37.1625 90.55312 36.959373Q91.27187 36.740623 92.08437 36.740623Q93.30312 36.740623 94.225 37.1Q95.14687 37.44375 95.58437 38.053123Q96.02187 38.646873 96.19375 39.646873L94.475 39.88125Q94.35 39.084373 93.7875 38.646873Q93.225 38.19375 92.20937 38.19375Q90.99062 38.19375 90.475 38.6Q89.95937 38.990623 89.95937 39.521873Q89.95937 39.865623 90.17812 40.146873Q90.38125 40.428123 90.85 40.615623Q91.11562 40.709373 92.39687 41.053123Q94.27187 41.553123 95.00625 41.88125Q95.74062 42.19375 96.1625 42.803123Q96.58437 43.396873 96.58437 44.303123Q96.58437 45.178123 96.06875 45.959373Q95.55312 46.740623 94.58437 47.1625Q93.61562 47.584373 92.39687 47.584373Q90.38125 47.584373 89.31875 46.740623Q88.25625 45.896873 87.95937 44.25625Z" fill-rule="nonzero"/></svg>