<svg version="1.1" viewBox="0.0 0.0 744.0 567.0" fill="none" stroke="none" stroke-linecap="square" stroke-miterlimit="10" width="744" height="567" xmlns:xlink="http://www.w3.org/1999/xlink" xmlns="http://www.w3.org/2000/svg"><path fill="#ffffff" d="M0 0L744.0 0L744.0 567.0L0 567.0L0 0Z" fill-rule="nonzero"/><path fill="#ffffff" d="M28.35 71.25L715.64996 71.25L715.64996 538.65L28.35 538.65L28.35 71.25Z" fill-rule="nonzero"/><path stroke="#cccccc" stroke-width="1.0" stroke-linecap="butt" d="M372.0 305.0C372.0 305.0 372.0 305.0 372.0 305.0C372.0 305.0 372.0 305.0 372.0 305.0C372.0 305.0 372.0 305.0 372.0 305.0C372.0 305.0 372.0 305.0 372.0 305.0" fill-rule="nonzero"/><path fill="#000000" d="M360.0625 297.04688L360.0625 298.35938Q360.0625 299.40625 359.875 300.125Q359.6875 300.84375 359.32812 301.28125Q358.98438 301.71875 358.48438 301.92188Q358.0 302.125 357.375 302.125Q356.89062 302.125 356.46875 302.0Q356.04688 301.875 355.71875 301.60938Q355.39062 301.32812 355.15625 300.89062Q354.92188 300.45312 354.79688 299.82812Q354.67188 299.1875 354.67188 298.35938L354.67188 297.04688Q354.67188 296.0 354.85938 295.29688Q355.0625 294.59375 355.40625 294.15625Q355.76562 293.71875 356.25 293.53125Q356.75 293.34375 357.35938 293.34375Q357.85938 293.34375 358.28125 293.46875Q358.70312 293.59375 359.03125 293.85938Q359.35938 294.10938 359.57812 294.54688Q359.8125 294.96875 359.9375 295.59375Q360.0625 296.21875 360.0625 297.04688ZM358.96875 298.53125L358.96875 296.875Q358.96875 296.29688 358.90625 295.85938Q358.84375 295.42188 358.70312 295.10938Q358.57812 294.79688 358.375 294.60938Q358.1875 294.42188 357.9375 294.32812Q357.6875 294.23438 357.35938 294.23438Q356.98438 294.23438 356.67188 294.375Q356.375 294.51562 356.17188 294.82812Q355.96875 295.14062 355.85938 295.65625Q355.76562 296.15625 355.76562 296.875L355.76562 298.53125Q355.76562 299.10938 355.82812 299.54688Q355.90625 299.98438 356.03125 300.3125Q356.17188 300.625 356.35938 300.82812Q356.5625 301.03125 356.8125 301.125Q357.0625 301.21875 357.375 301.21875Q357.78125 301.21875 358.07812 301.07812Q358.375 300.92188 358.57812 300.59375Q358.78125 300.26562 358.875 299.76562Q358.96875 299.25 358.96875 298.53125ZM362.8125 300.70312L362.8125 301.57812Q362.8125 302.125 362.53125 302.71875Q362.26562 303.3125 361.78125 303.70312L361.17188 303.28125Q361.35938 303.01562 361.48438 302.75Q361.60938 302.48438 361.67188 302.20312Q361.75 301.92188 361.75 301.59375L361.75 300.70312L362.8125 300.70312ZM369.0625 297.04688L369.0625 298.35938Q369.0625 299.40625 368.875 300.125Q368.6875 300.84375 368.32812 301.28125Q367.98438 301.71875 367.48438 301.92188Q367.0 302.125 366.375 302.125Q365.89062 302.125 365.46875 302.0Q365.04688 301.875 364.71875 301.60938Q364.39062 301.32812 364.15625 300.89062Q363.92188 300.45312 363.79688 299.82812Q363.67188 299.1875 363.67188 298.35938L363.67188 297.04688Q363.67188 296.0 363.85938 295.29688Q364.0625 294.59375 364.40625 294.15625Q364.76562 293.71875 365.25 293.53125Q365.75 293.34375 366.35938 293.34375Q366.85938 293.34375 367.28125 293.46875Q367.70312 293.59375 368.03125 293.85938Q368.35938 294.10938 368.57812 294.54688Q368.8125 294.96875 368.9375 295.59375Q369.0625 296.21875 369.0625 297.04688ZM367.96875 298.53125L367.96875 296.875Q367.96875 296.29688 367.90625 295.85938Q367.84375 295.42188 367.70312 295.10938Q367.57812 294.79688 367.375 294.60938Q367.1875 294.42188 366.9375 294.32812Q366.6875 294.23438 366.35938 294.23438Q365.98438 294.23438 365.67188 294.375Q365.375 294.51562 365.17188 294.82812Q364.96875 295.14062 364.85938 295.65625Q364.76562 296.15625 364.76562 296.875L364.76562 298.53125Q364.76562 299.10938 364.82812 299.54688Q364.90625 299.98438 365.03125 300.3125Q365.17188 300.625 365.35938 300.82812Q365.5625 301.03125 365.8125 301.125Q366.0625 301.21875 366.375 301.21875Q366.78125 301.21875 367.07812 301.07812Q367.375 300.92188 367.57812 300.59375Q367.78125 300.26562 367.875 299.76562Q367.96875 299.25 367.96875 298.53125Z" fill-rule="nonzero"/><path stroke="#cccccc" stroke-width="1.0" stroke-linecap="butt" d="M422.425 305.0C422.425 277.15103 399.84897 254.575 372.0 254.575C344.15103 254.575 321.575 277.15103 321.575 305.0C321.575 332.84897 344.15103 355.425 372.0 355.425C399.84897 355.425 422.425 332.84897 422.425 305.0" fill-rule="nonzero"/><path fill="#000000" d="M360.0625 246.62187L360.0625 247.93437Q360.0625 248.98125 359.875 249.7Q359.6875 250.41875 359.32812 250.85625Q358.98438 251.29375 358.48438 251.49687Q358.0 251.7 357.375 251.7Q356.89062 251.7 356.46875 251.575Q356.04688 251.45 355.71875 251.18437Q355.39062 250.90312 355.15625 250.46562Q354.92188 250.02812 354.79688 249.40312Q354.67188 248.7625 354.67188 247.93437L354.67188 246.62187Q354.67188 245.575 354.85938 244.87187Q355.0625 244.16875 355.40625 243.73125Q355.76562 243.29375 356.25 243.10625Q356.75 242.91875 357.35938 242.91875Q357.85938 242.91875 358.28125 243.04375Q358.70312 243.16875 359.03125 243.43437Q359.35938 243.68437 359.57812 244.12187Q359.8125 244.54375 359.9375 245.16875Q360.0625 245.79375 360.0625 246.62187ZM358.96875 248.10625L358.96875 246.45Q358.96875 245.87187 358.90625 245.43437Q358.84375 244.99687 358.70312 244.68437Q358.57812 244.37187 358.375 244.18437Q358.1875 243.99687 357.9375 243.90312Q357.6875 243.80937 357.35938 243.80937Q356.98438 243.80937 356.67188 243.95Q356.375 244.09062 356.17188 244.40312Q355.96875 244.71562 355.85938 245.23125Q355.76562 245.73125 355.76562 246.45L355.76562 248.10625Q355.76562 248.68437 355.82812 249.12187Q355.90625 249.55937 356.03125 249.8875Q356.17188 250.2 356.35938 250.40312Q356.5625 250.60625 356.8125 250.7Q357.0625 250.79375 357.375 250.79375Q357.78125 250.79375 358.07812 250.65312Q358.375 250.49687 358.57812 250.16875Q358.78125 249.84062 358.875 249.34062Q358.96875 248.825 358.96875 248.10625ZM362.8125 250.27812L362.8125 251.15312Q362.8125 251.7 362.53125 252.29375Q362.26562 252.8875 361.78125 253.27812L361.17188 252.85625Q361.35938 252.59062 361.48438 252.325Q361.60938 252.05937 361.67188 251.77812Q361.75 251.49687 361.75 251.16875L361.75 250.27812L362.8125 250.27812ZM367.26562 242.99687L367.26562 251.575L366.1875 251.575L366.1875 244.35625L364.0 245.15312L364.0 244.16875L367.10938 242.99687L367.26562 242.99687Z" fill-rule="nonzero"/><path stroke="#cccccc" stroke-width="1.0" stroke-linecap="butt" d="M472.85 305.0C472.85 249.30208 427.6979 204.15 372.0 204.15C316.3021 204.15 271.15 249.30208 271.15 305.0C271.15 360.6979 316.3021 405.85 372.0 405.85C427.6979 405.85 472.85 360.6979 472.85 305.0" fill-rule="nonzero"/><path fill="#000000" d="M360.0625 196.19687L360.0625 197.50937Q360.0625 198.55624 359.875 199.275Q359.6875 199.99374 359.32812 200.43124Q358.98438 200.86874 358.48438 201.07187Q358.0 201.275 357.375 201.275Q356.89062 201.275 356.46875 201.15Q356.04688 201.025 355.71875 200.75937Q355.39062 200.47812 355.15625 200.04062Q354.92188 199.60312 354.79688 198.97812Q354.67188 198.3375 354.67188 197.50937L354.67188 196.19687Q354.67188 195.15 354.85938 194.44687Q355.0625 193.74374 355.40625 193.30624Q355.76562 192.86874 356.25 192.68124Q356.75 192.49374 357.35938 192.49374Q357.85938 192.49374 358.28125 192.61874Q358.70312 192.74374 359.03125 193.00937Q359.35938 193.25937 359.57812 193.69687Q359.8125 194.11874 359.9375 194.74374Q360.0625 195.36874 360.0625 196.19687ZM358.96875 197.68124L358.96875 196.025Q358.96875 195.44687 358.90625 195.00937Q358.84375 194.57187 358.70312 194.25937Q358.57812 193.94687 358.375 193.75937Q358.1875 193.57187 357.9375 193.47812Q357.6875 193.38437 357.35938 193.38437Q356.98438 193.38437 356.67188 193.525Q356.375 193.66562 356.17188 193.97812Q355.96875 194.29062 355.85938 194.80624Q355.76562 195.30624 355.76562 196.025L355.76562 197.68124Q355.76562 198.25937 355.82812 198.69687Q355.90625 199.13437 356.03125 199.4625Q356.17188 199.775 356.35938 199.97812Q356.5625 200.18124 356.8125 200.275Q357.0625 200.36874 357.375 200.36874Q357.78125 200.36874 358.07812 200.22812Q358.375 200.07187 358.57812 199.74374Q358.78125 199.41562 358.875 198.91562Q358.96875 198.4 358.96875 197.68124ZM362.8125 199.85312L362.8125 200.72812Q362.8125 201.275 362.53125 201.86874Q362.26562 202.4625 361.78125 202.85312L361.17188 202.43124Q361.35938 202.16562 361.48438 201.9Q361.60938 201.63437 361.67188 201.35312Q361.75 201.07187 361.75 200.74374L361.75 199.85312L362.8125 199.85312ZM369.29688 200.25937L369.29688 201.15L363.71875 201.15L363.71875 200.36874L366.51562 197.25937Q367.03125 196.68124 367.3125 196.29062Q367.59375 195.88437 367.70312 195.57187Q367.82812 195.24374 367.82812 194.91562Q367.82812 194.49374 367.65625 194.15Q367.48438 193.80624 367.14062 193.60312Q366.8125 193.38437 366.32812 193.38437Q365.76562 193.38437 365.39062 193.61874Q365.01562 193.8375 364.82812 194.22812Q364.64062 194.61874 364.64062 195.11874L363.54688 195.11874Q363.54688 194.4 363.85938 193.80624Q364.1875 193.2125 364.79688 192.85312Q365.42188 192.49374 366.32812 192.49374Q367.14062 192.49374 367.71875 192.79062Q368.29688 193.07187 368.59375 193.5875Q368.90625 194.0875 368.90625 194.775Q368.90625 195.15 368.78125 195.54062Q368.65625 195.91562 368.4375 196.30624Q368.21875 196.68124 367.92188 197.05624Q367.64062 197.41562 367.3125 197.775L365.01562 200.25937L369.29688 200.25937Z" fill-rule="nonzero"/><path stroke="#cccccc" stroke-width="1.0" stroke-linecap="butt" d="M523.275 305.0C523.275 221.45312 455.54688 153.725 372.0 153.725C288.45312 153.725 220.725 221.45312 220.725 305.0C220.725 388.54688 288.45312 456.275 372.0 456.275C455.54688 456.275 523.275 388.54688 523.275 305.0" fill-rule="nonzero"/><path fill="#000000" d="M360.0625 145.77188L360.0625 147.08438Q360.0625 148.13126 359.875 148.85Q359.6875 149.56876 359.32812 150.00626Q358.98438 150.44376 358.48438 150.64688Q358.0 150.85 357.375 150.85Q356.89062 150.85 356.46875 150.725Q356.04688 150.6 355.71875 150.33438Q355.39062 150.05313 355.15625 149.61563Q354.92188 149.17813 354.79688 148.55313Q354.67188 147.9125 354.67188 147.08438L354.67188 145.77188Q354.67188 144.725 354.85938 144.02188Q355.0625 143.31876 355.40625 142.88126Q355.76562 142.44376 356.25 142.25626Q356.75 142.06876 357.35938 142.06876Q357.85938 142.06876 358.28125 142.19376Q358.70312 142.31876 359.03125 142.58438Q359.35938 142.83438 359.57812 143.27188Q359.8125 143.69376 359.9375 144.31876Q360.0625 144.94376 360.0625 145.77188ZM358.96875 147.25626L358.96875 145.6Q358.96875 145.02188 358.90625 144.58438Q358.84375 144.14688 358.70312 143.83438Q358.57812 143.52188 358.375 143.33438Q358.1875 143.14688 357.9375 143.05313Q357.6875 142.95938 357.35938 142.95938Q356.98438 142.95938 356.67188 143.1Q356.375 143.24063 356.17188 143.55313Q355.96875 143.86563 355.85938 144.38126Q355.76562 144.88126 355.76562 145.6L355.76562 147.25626Q355.76562 147.83438 355.82812 148.27188Q355.90625 148.70938 356.03125 149.0375Q356.17188 149.35 356.35938 149.55313Q356.5625 149.75626 356.8125 149.85Q357.0625 149.94376 357.375 149.94376Q357.78125 149.94376 358.07812 149.80313Q358.375 149.64688 358.57812 149.31876Q358.78125 148.99063 358.875 148.49063Q358.96875 147.975 358.96875 147.25626ZM362.8125 149.42813L362.8125 150.30313Q362.8125 150.85 362.53125 151.44376Q362.26562 152.0375 361.78125 152.42813L361.17188 152.00626Q361.35938 151.74063 361.48438 151.475Q361.60938 151.20938 361.67188 150.92813Q361.75 150.64688 361.75 150.31876L361.75 149.42813L362.8125 149.42813ZM365.29688 145.92813L366.0625 145.92813Q366.64062 145.92813 367.0 145.74063Q367.375 145.5375 367.5625 145.20938Q367.75 144.88126 367.75 144.45938Q367.75 143.975 367.57812 143.64688Q367.42188 143.30313 367.09375 143.13126Q366.76562 142.95938 366.26562 142.95938Q365.79688 142.95938 365.45312 143.14688Q365.10938 143.31876 364.90625 143.64688Q364.71875 143.975 364.71875 144.42813L363.625 144.42813Q363.625 143.77188 363.95312 143.24063Q364.28125 142.70938 364.875 142.39688Q365.46875 142.06876 366.26562 142.06876Q367.03125 142.06876 367.60938 142.35Q368.1875 142.61563 368.51562 143.1625Q368.84375 143.69376 368.84375 144.49063Q368.84375 144.81876 368.6875 145.17813Q368.53125 145.5375 368.21875 145.86563Q367.90625 146.17813 367.40625 146.38126Q366.92188 146.58438 366.21875 146.58438L365.29688 146.58438L365.29688 145.92813ZM365.29688 146.81876L365.29688 146.1625L366.21875 146.1625Q367.03125 146.1625 367.5625 146.36563Q368.09375 146.55313 368.40625 146.88126Q368.71875 147.19376 368.84375 147.58438Q368.96875 147.95938 368.96875 148.35Q368.96875 148.94376 368.76562 149.4125Q368.5625 149.86563 368.1875 150.19376Q367.82812 150.50626 367.32812 150.67813Q366.84375 150.85 366.26562 150.85Q365.70312 150.85 365.21875 150.69376Q364.73438 150.52188 364.35938 150.225Q363.98438 149.92813 363.76562 149.49063Q363.5625 149.0375 363.5625 148.475L364.64062 148.475Q364.64062 148.9125 364.82812 149.25626Q365.03125 149.58438 365.39062 149.77188Q365.76562 149.94376 366.26562 149.94376Q366.76562 149.94376 367.125 149.77188Q367.48438 149.6 367.67188 149.25626Q367.875 148.89688 367.875 148.36563Q367.875 147.83438 367.65625 147.49063Q367.4375 147.14688 367.01562 146.99063Q366.60938 146.81876 366.0625 146.81876L365.29688 146.81876Z" fill-rule="nonzero"/><path stroke="#cccccc" stroke-width="1.0" stroke-linecap="butt" d="M573.7 305.0C573.7 193.60417 483.39584 103.3 372.0 103.3C260.60416 103.3 170.3 193.60417 170.3 305.0C170.3 416.39584 260.60416 506.7 372.0 506.7C483.39584 506.7 573.7 416.39584 573.7 305.0" fill-rule="nonzero"/><path fill="#000000" d="M360.0625 95.34688L360.0625 96.65938Q360.0625 97.70625 359.875 98.425Q359.6875 99.14375 359.32812 99.58125Q358.98438 100.01875 358.48438 100.22188Q358.0 100.425 357.375 100.425Q356.89062 100.425 356.46875 100.3Q356.04688 100.175 355.71875 99.90938Q355.39062 99.62813 355.15625 99.19063Q354.92188 98.75313 354.79688 98.12813Q354.67188 97.4875 354.67188 96.65938L354.67188 95.34688Q354.67188 94.3 354.85938 93.59688Q355.0625 92.89375 355.40625 92.45625Q355.76562 92.01875 356.25 91.83125Q356.75 91.64375 357.35938 91.64375Q357.85938 91.64375 358.28125 91.76875Q358.70312 91.89375 359.03125 92.15938Q359.35938 92.40938 359.57812 92.84688Q359.8125 93.26875 359.9375 93.89375Q360.0625 94.51875 360.0625 95.34688ZM358.96875 96.83125L358.96875 95.175Q358.96875 94.59688 358.90625 94.15938Q358.84375 93.72188 358.70312 93.40938Q358.57812 93.09688 358.375 92.90938Q358.1875 92.72188 357.9375 92.62813Q357.6875 92.53438 357.35938 92.53438Q356.98438 92.53438 356.67188 92.675Q356.375 92.81563 356.17188 93.12813Q355.96875 93.44063 355.85938 93.95625Q355.76562 94.45625 355.76562 95.175L355.76562 96.83125Q355.76562 97.40938 355.82812 97.84688Q355.90625 98.28438 356.03125 98.6125Q356.17188 98.925 356.35938 99.12813Q356.5625 99.33125 356.8125 99.425Q357.0625 99.51875 357.375 99.51875Q357.78125 99.51875 358.07812 99.37813Q358.375 99.22188 358.57812 98.89375Q358.78125 98.56563 358.875 98.06563Q358.96875 97.55 358.96875 96.83125ZM362.8125 99.00313L362.8125 99.87813Q362.8125 100.425 362.53125 101.01875Q362.26562 101.6125 361.78125 102.00313L361.17188 101.58125Q361.35938 101.31563 361.48438 101.05Q361.60938 100.78438 361.67188 100.50313Q361.75 100.22188 361.75 99.89375L361.75 99.00313L362.8125 99.00313ZM369.46875 97.425L369.46875 98.31563L363.3125 98.31563L363.3125 97.675L367.125 91.76875L368.01562 91.76875L367.0625 93.47188L364.54688 97.425L369.46875 97.425ZM368.28125 91.76875L368.28125 100.3L367.20312 100.3L367.20312 91.76875L368.28125 91.76875Z" fill-rule="nonzero"/><path stroke="#cccccc" stroke-width="1.0" stroke-linecap="butt" d="M372.0 305.0L372.0 103.0" fill-rule="nonzero"/><path fill="#000000" d="M347.64062 68.96875L347.64062 77.5L346.53125 77.5L346.53125 68.96875L347.64062 68.96875ZM350.39062 68.96875L350.39062 69.890625L343.79688 69.890625L343.79688 68.96875L350.39062 68.96875ZM353.95312 77.625Q353.29688 77.625 352.75 77.40625Q352.21875 77.171875 351.82812 76.765625Q351.45312 76.34375 351.25 75.78125Q351.04688 75.21875 351.04688 74.546875L351.04688 74.3125Q351.04688 73.53125 351.26562 72.921875Q351.5 72.3125 351.89062 71.890625Q352.28125 71.46875 352.78125 71.265625Q353.28125 71.046875 353.8125 71.046875Q354.5 71.046875 354.98438 71.28125Q355.48438 71.515625 355.79688 71.9375Q356.125 72.34375 356.26562 72.921875Q356.42188 73.484375 356.42188 74.140625L356.42188 74.640625L351.6875 74.640625L351.6875 73.75L355.34375 73.75L355.34375 73.671875Q355.3125 73.25 355.15625 72.859375Q355.01562 72.453125 354.6875 72.203125Q354.375 71.9375 353.8125 71.9375Q353.45312 71.9375 353.14062 72.09375Q352.82812 72.25 352.59375 72.5625Q352.375 72.859375 352.25 73.296875Q352.14062 73.734375 352.14062 74.3125L352.14062 74.546875Q352.14062 75.0 352.26562 75.40625Q352.39062 75.796875 352.625 76.09375Q352.875 76.390625 353.21875 76.5625Q353.57812 76.734375 354.01562 76.734375Q354.59375 76.734375 354.98438 76.5Q355.39062 76.265625 355.6875 75.875L356.34375 76.390625Q356.14062 76.703125 355.8125 76.984375Q355.5 77.265625 355.03125 77.453125Q354.57812 77.625 353.95312 77.625ZM358.40625 72.15625L358.40625 77.5L357.32812 77.5L357.32812 71.15625L358.375 71.15625L358.40625 72.15625ZM360.39062 71.125L360.39062 72.125Q360.25 72.109375 360.125 72.09375Q360.01562 72.078125 359.85938 72.078125Q359.48438 72.078125 359.1875 72.203125Q358.90625 72.3125 358.70312 72.53125Q358.51562 72.734375 358.39062 73.03125Q358.28125 73.328125 358.25 73.671875L357.9375 73.84375Q357.9375 73.265625 358.04688 72.765625Q358.17188 72.265625 358.40625 71.875Q358.65625 71.484375 359.01562 71.265625Q359.39062 71.046875 359.90625 71.046875Q360.03125 71.046875 360.17188 71.078125Q360.32812 71.09375 360.39062 71.125ZM362.40625 72.375L362.40625 79.9375L361.32812 79.9375L361.32812 71.15625L362.3125 71.15625L362.40625 72.375ZM366.6875 74.28125L366.6875 74.40625Q366.6875 75.09375 366.51562 75.6875Q366.35938 76.265625 366.04688 76.703125Q365.73438 77.140625 365.26562 77.390625Q364.8125 77.625 364.21875 77.625Q363.625 77.625 363.15625 77.421875Q362.6875 77.21875 362.35938 76.84375Q362.04688 76.453125 361.85938 75.921875Q361.67188 75.390625 361.59375 74.71875L361.59375 74.0625Q361.67188 73.359375 361.85938 72.8125Q362.04688 72.25 362.35938 71.859375Q362.6875 71.453125 363.14062 71.25Q363.60938 71.046875 364.20312 71.046875Q364.79688 71.046875 365.26562 71.28125Q365.73438 71.5 366.04688 71.9375Q366.35938 72.359375 366.51562 72.953125Q366.6875 73.546875 366.6875 74.28125ZM365.59375 74.40625L365.59375 74.28125Q365.59375 73.796875 365.48438 73.390625Q365.39062 72.96875 365.1875 72.65625Q364.98438 72.328125 364.65625 72.140625Q364.32812 71.953125 363.89062 71.953125Q363.48438 71.953125 363.17188 72.09375Q362.875 72.234375 362.65625 72.484375Q362.45312 72.71875 362.3125 73.015625Q362.1875 73.3125 362.125 73.640625L362.125 75.15625Q362.23438 75.5625 362.4375 75.921875Q362.65625 76.28125 363.0 76.5Q363.35938 76.71875 363.90625 76.71875Q364.34375 76.71875 364.65625 76.546875Q364.98438 76.359375 365.1875 76.046875Q365.39062 75.71875 365.48438 75.296875Q365.59375 74.875 365.59375 74.40625ZM369.5 71.15625L369.5 77.5L368.42188 77.5L368.42188 71.15625L369.5 71.15625ZM368.32812 69.484375Q368.32812 69.21875 368.48438 69.03125Q368.65625 68.84375 368.96875 68.84375Q369.28125 68.84375 369.4375 69.03125Q369.60938 69.21875 369.60938 69.484375Q369.60938 69.734375 369.4375 69.921875Q369.28125 70.09375 368.96875 70.09375Q368.65625 70.09375 368.48438 69.921875Q368.32812 69.734375 368.32812 69.484375ZM372.40625 72.515625L372.40625 77.5L371.32812 77.5L371.32812 71.15625L372.35938 71.15625L372.40625 72.515625ZM372.15625 74.09375L371.70312 74.078125Q371.70312 73.421875 371.89062 72.875Q372.07812 72.3125 372.42188 71.90625Q372.76562 71.5 373.23438 71.28125Q373.70312 71.046875 374.28125 71.046875Q374.75 71.046875 375.125 71.171875Q375.5 71.296875 375.76562 71.578125Q376.03125 71.84375 376.17188 72.28125Q376.3125 72.71875 376.3125 73.34375L376.3125 77.5L375.21875 77.5L375.21875 73.328125Q375.21875 72.828125 375.07812 72.53125Q374.9375 72.234375 374.65625 72.09375Q374.375 71.953125 373.95312 71.953125Q373.54688 71.953125 373.21875 72.125Q372.89062 72.296875 372.65625 72.59375Q372.42188 72.890625 372.28125 73.28125Q372.15625 73.65625 372.15625 74.09375ZM378.04688 74.40625L378.04688 74.265625Q378.04688 73.578125 378.23438 73.0Q378.4375 72.40625 378.8125 71.96875Q379.1875 71.53125 379.71875 71.296875Q380.25 71.046875 380.92188 71.046875Q381.57812 71.046875 382.10938 71.296875Q382.65625 71.53125 383.03125 71.96875Q383.40625 72.40625 383.60938 73.0Q383.8125 73.578125 383.8125 74.265625L383.8125 74.40625Q383.8125 75.078125 383.60938 75.671875Q383.40625 76.25 383.03125 76.6875Q382.65625 77.125 382.125 77.375Q381.59375 77.625 380.92188 77.625Q380.26562 77.625 379.71875 77.375Q379.1875 77.125 378.8125 76.6875Q378.4375 76.25 378.23438 75.671875Q378.04688 75.078125 378.04688 74.40625ZM379.125 74.265625L379.125 74.40625Q379.125 74.875 379.23438 75.296875Q379.34375 75.71875 379.5625 76.046875Q379.79688 76.359375 380.14062 76.546875Q380.48438 76.71875 380.92188 76.71875Q381.375 76.71875 381.70312 76.546875Q382.04688 76.359375 382.26562 76.046875Q382.5 75.71875 382.60938 75.296875Q382.71875 74.875 382.71875 74.40625L382.71875 74.265625Q382.71875 73.796875 382.60938 73.375Q382.5 72.953125 382.26562 72.640625Q382.04688 72.3125 381.70312 72.125Q381.375 71.9375 380.92188 71.9375Q380.46875 71.9375 380.125 72.125Q379.79688 72.3125 379.5625 72.640625Q379.34375 72.953125 379.23438 73.375Q379.125 73.796875 379.125 74.265625ZM386.5 68.5L386.5 77.5L385.42188 77.5L385.42188 68.5L386.5 68.5ZM390.95312 77.625Q390.29688 77.625 389.75 77.40625Q389.21875 77.171875 388.82812 76.765625Q388.45312 76.34375 388.25 75.78125Q388.04688 75.21875 388.04688 74.546875L388.04688 74.3125Q388.04688 73.53125 388.26562 72.921875Q388.5 72.3125 388.89062 71.890625Q389.28125 71.46875 389.78125 71.265625Q390.28125 71.046875 390.8125 71.046875Q391.5 71.046875 391.98438 71.28125Q392.48438 71.515625 392.79688 71.9375Q393.125 72.34375 393.26562 72.921875Q393.42188 73.484375 393.42188 74.140625L393.42188 74.640625L388.6875 74.640625L388.6875 73.75L392.34375 73.75L392.34375 73.671875Q392.3125 73.25 392.15625 72.859375Q392.01562 72.453125 391.6875 72.203125Q391.375 71.9375 390.8125 71.9375Q390.45312 71.9375 390.14062 72.09375Q389.82812 72.25 389.59375 72.5625Q389.375 72.859375 389.25 73.296875Q389.14062 73.734375 389.14062 74.3125L389.14062 74.546875Q389.14062 75.0 389.26562 75.40625Q389.39062 75.796875 389.625 76.09375Q389.875 76.390625 390.21875 76.5625Q390.57812 76.734375 391.01562 76.734375Q391.59375 76.734375 391.98438 76.5Q392.39062 76.265625 392.6875 75.875L393.34375 76.390625Q393.14062 76.703125 392.8125 76.984375Q392.5 77.265625 392.03125 77.453125Q391.57812 77.625 390.95312 77.625ZM395.40625 72.515625L395.40625 77.5L394.32812 77.5L394.32812 71.15625L395.35938 71.15625L395.40625 72.515625ZM395.15625 74.09375L394.70312 74.078125Q394.70312 73.421875 394.89062 72.875Q395.07812 72.3125 395.42188 71.90625Q395.76562 71.5 396.23438 71.28125Q396.70312 71.046875 397.28125 71.046875Q397.75 71.046875 398.125 71.171875Q398.5 71.296875 398.76562 71.578125Q399.03125 71.84375 399.17188 72.28125Q399.3125 72.71875 399.3125 73.34375L399.3125 77.5L398.21875 77.5L398.21875 73.328125Q398.21875 72.828125 398.07812 72.53125Q397.9375 72.234375 397.65625 72.09375Q397.375 71.953125 396.95312 71.953125Q396.54688 71.953125 396.21875 72.125Q395.89062 72.296875 395.65625 72.59375Q395.42188 72.890625 395.28125 73.28125Q395.15625 73.65625 395.15625 74.09375Z" fill-rule="nonzero"/><path stroke="#cccccc" stroke-width="1.0" stroke-linecap="butt" d="M372.0 305.0L547.0 204.0" fill-rule="nonzero"/><path fill="#000000" d="M543.6406 190.78125L544.7656 190.78125Q544.6719 191.59375 544.2969 192.23438Q543.9219 192.875 543.2344 193.25Q542.5625 193.625 541.53125 193.625Q540.78125 193.625 540.1719 193.34375Q539.5625 193.04688 539.1094 192.53125Q538.6719 192.01562 538.4375 191.29688Q538.2031 190.5625 538.2031 189.65625L538.2031 188.8125Q538.2031 187.92188 538.4375 187.1875Q538.6719 186.45312 539.125 185.9375Q539.5781 185.40625 540.2031 185.125Q540.84375 184.84375 541.625 184.84375Q542.59375 184.84375 543.2656 185.21875Q543.9375 185.57812 544.2969 186.21875Q544.6719 186.85938 544.7656 187.70312L543.6406 187.70312Q543.5625 187.10938 543.3281 186.6875Q543.1094 186.25 542.7031 186.01562Q542.2969 185.78125 541.625 185.78125Q541.0625 185.78125 540.625 186.0Q540.2031 186.20312 539.90625 186.60938Q539.625 187.0 539.46875 187.5625Q539.3281 188.125 539.3281 188.79688L539.3281 189.65625Q539.3281 190.28125 539.4531 190.84375Q539.59375 191.39062 539.8594 191.8125Q540.125 192.21875 540.5469 192.46875Q540.96875 192.70312 541.53125 192.70312Q542.25 192.70312 542.6719 192.46875Q543.1094 192.23438 543.3281 191.8125Q543.5469 191.39062 543.6406 190.78125ZM550.0625 192.42188L550.0625 189.15625Q550.0625 188.78125 549.90625 188.5Q549.7656 188.21875 549.46875 188.07812Q549.1719 187.92188 548.7344 187.92188Q548.3125 187.92188 548.0 188.0625Q547.7031 188.20312 547.53125 188.4375Q547.3594 188.65625 547.3594 188.92188L546.28125 188.92188Q546.28125 188.57812 546.4531 188.25Q546.625 187.90625 546.9531 187.64062Q547.28125 187.35938 547.75 187.20312Q548.21875 187.04688 548.7969 187.04688Q549.4844 187.04688 550.0156 187.28125Q550.5469 187.51562 550.84375 187.98438Q551.15625 188.45312 551.15625 189.15625L551.15625 192.10938Q551.15625 192.4375 551.2031 192.79688Q551.2656 193.14062 551.375 193.40625L551.375 193.5L550.2344 193.5Q550.15625 193.3125 550.1094 193.0Q550.0625 192.6875 550.0625 192.42188ZM550.25 189.65625L550.2656 190.42188L549.1719 190.42188Q548.7031 190.42188 548.34375 190.5Q547.9844 190.5625 547.7344 190.71875Q547.4844 190.85938 547.3594 191.07812Q547.2344 191.29688 547.2344 191.59375Q547.2344 191.89062 547.3594 192.14062Q547.5 192.375 547.7656 192.53125Q548.0469 192.67188 548.4375 192.67188Q548.9375 192.67188 549.3125 192.46875Q549.7031 192.25 549.9219 191.95312Q550.15625 191.64062 550.1719 191.34375L550.6406 191.875Q550.59375 192.10938 550.40625 192.42188Q550.2344 192.71875 549.9219 193.0Q549.625 193.26562 549.2031 193.45312Q548.7969 193.625 548.28125 193.625Q547.6406 193.625 547.15625 193.375Q546.6719 193.10938 546.40625 192.6875Q546.1406 192.26562 546.1406 191.73438Q546.1406 191.21875 546.3281 190.84375Q546.53125 190.45312 546.90625 190.1875Q547.28125 189.92188 547.8125 189.79688Q548.34375 189.65625 549.0 189.65625L550.25 189.65625ZM554.40625 188.15625L554.40625 193.5L553.3281 193.5L553.3281 187.15625L554.375 187.15625L554.40625 188.15625ZM556.3906 187.125L556.3906 188.125Q556.25 188.10938 556.125 188.09375Q556.0156 188.07812 555.8594 188.07812Q555.4844 188.07812 555.1875 188.20312Q554.90625 188.3125 554.7031 188.53125Q554.5156 188.73438 554.3906 189.03125Q554.28125 189.32812 554.25 189.67188L553.9375 189.84375Q553.9375 189.26562 554.0469 188.76562Q554.1719 188.26562 554.40625 187.875Q554.65625 187.48438 555.0156 187.26562Q555.3906 187.04688 555.90625 187.04688Q556.03125 187.04688 556.1719 187.07812Q556.3281 187.09375 556.3906 187.125ZM559.1094 192.84375L560.875 187.15625L562.03125 187.15625L559.4844 194.48438Q559.40625 194.71875 559.25 194.98438Q559.1094 195.26562 558.8906 195.5Q558.6719 195.75 558.3594 195.90625Q558.0469 196.0625 557.6094 196.0625Q557.4844 196.0625 557.28125 196.01562Q557.0781 195.98438 557.0 195.96875L557.0 195.09375Q557.0469 195.09375 557.1406 195.09375Q557.25 195.10938 557.28125 195.10938Q557.65625 195.10938 557.90625 195.01562Q558.1719 194.92188 558.34375 194.6875Q558.53125 194.46875 558.65625 194.07812L559.1094 192.84375ZM557.8125 187.15625L559.4531 192.07812L559.7344 193.21875L558.96875 193.625L556.625 187.15625L557.8125 187.15625ZM563.0469 190.40625L563.0469 190.26562Q563.0469 189.57812 563.2344 189.0Q563.4375 188.40625 563.8125 187.96875Q564.1875 187.53125 564.71875 187.29688Q565.25 187.04688 565.9219 187.04688Q566.5781 187.04688 567.1094 187.29688Q567.65625 187.53125 568.03125 187.96875Q568.40625 188.40625 568.6094 189.0Q568.8125 189.57812 568.8125 190.26562L568.8125 190.40625Q568.8125 191.07812 568.6094 191.67188Q568.40625 192.25 568.03125 192.6875Q567.65625 193.125 567.125 193.375Q566.59375 193.625 565.9219 193.625Q565.2656 193.625 564.71875 193.375Q564.1875 193.125 563.8125 192.6875Q563.4375 192.25 563.2344 191.67188Q563.0469 191.07812 563.0469 190.40625ZM564.125 190.26562L564.125 190.40625Q564.125 190.875 564.2344 191.29688Q564.34375 191.71875 564.5625 192.04688Q564.7969 192.35938 565.1406 192.54688Q565.4844 192.71875 565.9219 192.71875Q566.375 192.71875 566.7031 192.54688Q567.0469 192.35938 567.2656 192.04688Q567.5 191.71875 567.6094 191.29688Q567.71875 190.875 567.71875 190.40625L567.71875 190.26562Q567.71875 189.79688 567.6094 189.375Q567.5 188.95312 567.2656 188.64062Q567.0469 188.3125 566.7031 188.125Q566.375 187.9375 565.9219 187.9375Q565.46875 187.9375 565.125 188.125Q564.7969 188.3125 564.5625 188.64062Q564.34375 188.95312 564.2344 189.375Q564.125 189.79688 564.125 190.26562ZM571.40625 188.375L571.40625 195.9375L570.3281 195.9375L570.3281 187.15625L571.3125 187.15625L571.40625 188.375ZM575.6875 190.28125L575.6875 190.40625Q575.6875 191.09375 575.5156 191.6875Q575.3594 192.26562 575.0469 192.70312Q574.7344 193.14062 574.2656 193.39062Q573.8125 193.625 573.21875 193.625Q572.625 193.625 572.15625 193.42188Q571.6875 193.21875 571.3594 192.84375Q571.0469 192.45312 570.8594 191.92188Q570.6719 191.39062 570.59375 190.71875L570.59375 190.0625Q570.6719 189.35938 570.8594 188.8125Q571.0469 188.25 571.3594 187.85938Q571.6875 187.45312 572.1406 187.25Q572.6094 187.04688 573.2031 187.04688Q573.7969 187.04688 574.2656 187.28125Q574.7344 187.5 575.0469 187.9375Q575.3594 188.35938 575.5156 188.95312Q575.6875 189.54688 575.6875 190.28125ZM574.59375 190.40625L574.59375 190.28125Q574.59375 189.79688 574.4844 189.39062Q574.3906 188.96875 574.1875 188.65625Q573.9844 188.32812 573.65625 188.14062Q573.3281 187.95312 572.8906 187.95312Q572.4844 187.95312 572.1719 188.09375Q571.875 188.23438 571.65625 188.48438Q571.4531 188.71875 571.3125 189.01562Q571.1875 189.3125 571.125 189.64062L571.125 191.15625Q571.2344 191.5625 571.4375 191.92188Q571.65625 192.28125 572.0 192.5Q572.3594 192.71875 572.90625 192.71875Q573.34375 192.71875 573.65625 192.54688Q573.9844 192.35938 574.1875 192.04688Q574.3906 191.71875 574.4844 191.29688Q574.59375 190.875 574.59375 190.40625ZM578.40625 184.5L578.40625 193.5L577.3281 193.5L577.3281 184.5L578.40625 184.5ZM578.15625 190.09375L577.7031 190.07812Q577.7031 189.42188 577.8906 188.875Q578.0781 188.3125 578.4219 187.90625Q578.7656 187.5 579.2344 187.28125Q579.7031 187.04688 580.28125 187.04688Q580.75 187.04688 581.125 187.17188Q581.5 187.29688 581.7656 187.57812Q582.03125 187.84375 582.1719 188.28125Q582.3125 188.71875 582.3125 189.34375L582.3125 193.5L581.21875 193.5L581.21875 189.32812Q581.21875 188.82812 581.0781 188.53125Q580.9375 188.23438 580.65625 188.09375Q580.375 187.95312 579.9531 187.95312Q579.5469 187.95312 579.21875 188.125Q578.8906 188.29688 578.65625 188.59375Q578.4219 188.89062 578.28125 189.28125Q578.15625 189.65625 578.15625 190.09375ZM586.1094 192.84375L587.875 187.15625L589.03125 187.15625L586.4844 194.48438Q586.40625 194.71875 586.25 194.98438Q586.1094 195.26562 585.8906 195.5Q585.6719 195.75 585.3594 195.90625Q585.0469 196.0625 584.6094 196.0625Q584.4844 196.0625 584.28125 196.01562Q584.0781 195.98438 584.0 195.96875L584.0 195.09375Q584.0469 195.09375 584.1406 195.09375Q584.25 195.10938 584.28125 195.10938Q584.65625 195.10938 584.90625 195.01562Q585.1719 194.92188 585.34375 194.6875Q585.53125 194.46875 585.65625 194.07812L586.1094 192.84375ZM584.8125 187.15625L586.4531 192.07812L586.7344 193.21875L585.96875 193.625L583.625 187.15625L584.8125 187.15625ZM591.5 184.5L591.5 193.5L590.4219 193.5L590.4219 184.5L591.5 184.5ZM594.5 184.5L594.5 193.5L593.4219 193.5L593.4219 184.5L594.5 184.5ZM598.9531 193.625Q598.2969 193.625 597.75 193.40625Q597.21875 193.17188 596.8281 192.76562Q596.4531 192.34375 596.25 191.78125Q596.0469 191.21875 596.0469 190.54688L596.0469 190.3125Q596.0469 189.53125 596.2656 188.92188Q596.5 188.3125 596.8906 187.89062Q597.28125 187.46875 597.78125 187.26562Q598.28125 187.04688 598.8125 187.04688Q599.5 187.04688 599.9844 187.28125Q600.4844 187.51562 600.7969 187.9375Q601.125 188.34375 601.2656 188.92188Q601.4219 189.48438 601.4219 190.14062L601.4219 190.64062L596.6875 190.64062L596.6875 189.75L600.34375 189.75L600.34375 189.67188Q600.3125 189.25 600.15625 188.85938Q600.0156 188.45312 599.6875 188.20312Q599.375 187.9375 598.8125 187.9375Q598.4531 187.9375 598.1406 188.09375Q597.8281 188.25 597.59375 188.5625Q597.375 188.85938 597.25 189.29688Q597.1406 189.73438 597.1406 190.3125L597.1406 190.54688Q597.1406 191.0 597.2656 191.40625Q597.3906 191.79688 597.625 192.09375Q597.875 192.39062 598.21875 192.5625Q598.5781 192.73438 599.0156 192.73438Q599.59375 192.73438 599.9844 192.5Q600.3906 192.26562 600.6875 191.875L601.34375 192.39062Q601.1406 192.70312 600.8125 192.98438Q600.5 193.26562 600.03125 193.45312Q599.5781 193.625 598.9531 193.625ZM603.40625 188.51562L603.40625 193.5L602.3281 193.5L602.3281 187.15625L603.3594 187.15625L603.40625 188.51562ZM603.15625 190.09375L602.7031 190.07812Q602.7031 189.42188 602.8906 188.875Q603.0781 188.3125 603.4219 187.90625Q603.7656 187.5 604.2344 187.28125Q604.7031 187.04688 605.28125 187.04688Q605.75 187.04688 606.125 187.17188Q606.5 187.29688 606.7656 187.57812Q607.03125 187.84375 607.1719 188.28125Q607.3125 188.71875 607.3125 189.34375L607.3125 193.5L606.21875 193.5L606.21875 189.32812Q606.21875 188.82812 606.0781 188.53125Q605.9375 188.23438 605.65625 188.09375Q605.375 187.95312 604.9531 187.95312Q604.5469 187.95312 604.21875 188.125Q603.8906 188.29688 603.65625 188.59375Q603.4219 188.89062 603.28125 189.28125Q603.15625 189.65625 603.15625 190.09375Z" fill-rule="nonzero"/><path stroke="#cccccc" stroke-width="1.0" stroke-linecap="butt" d="M372.0 305.0L547.0 406.0" fill-rule="nonzero"/><path fill="#000000" d="M554.84375 416.96875L555.9375 416.96875L558.7344 423.92188L561.53125 416.96875L562.625 416.96875L559.15625 425.5L558.3125 425.5L554.84375 416.96875ZM554.4844 416.96875L555.4531 416.96875L555.6094 422.17188L555.6094 425.5L554.4844 425.5L554.4844 416.96875ZM562.0156 416.96875L562.9844 416.96875L562.9844 425.5L561.8594 425.5L561.8594 422.17188L562.0156 416.96875ZM566.1094 424.84375L567.875 419.15625L569.03125 419.15625L566.4844 426.48438Q566.40625 426.71875 566.25 426.98438Q566.1094 427.26562 565.8906 427.5Q565.6719 427.75 565.3594 427.90625Q565.0469 428.0625 564.6094 428.0625Q564.4844 428.0625 564.28125 428.01562Q564.0781 427.98438 564.0 427.96875L564.0 427.09375Q564.0469 427.09375 564.1406 427.09375Q564.25 427.10938 564.28125 427.10938Q564.65625 427.10938 564.90625 427.01562Q565.1719 426.92188 565.34375 426.6875Q565.53125 426.46875 565.65625 426.07812L566.1094 424.84375ZM564.8125 419.15625L566.4531 424.07812L566.7344 425.21875L565.96875 425.625L563.625 419.15625L564.8125 419.15625ZM571.40625 420.15625L571.40625 425.5L570.3281 425.5L570.3281 419.15625L571.375 419.15625L571.40625 420.15625ZM573.3906 419.125L573.3906 420.125Q573.25 420.10938 573.125 420.09375Q573.0156 420.07812 572.8594 420.07812Q572.4844 420.07812 572.1875 420.20312Q571.90625 420.3125 571.7031 420.53125Q571.5156 420.73438 571.3906 421.03125Q571.28125 421.32812 571.25 421.67188L570.9375 421.84375Q570.9375 421.26562 571.0469 420.76562Q571.1719 420.26562 571.40625 419.875Q571.65625 419.48438 572.0156 419.26562Q572.3906 419.04688 572.90625 419.04688Q573.03125 419.04688 573.1719 419.07812Q573.3281 419.09375 573.3906 419.125ZM576.8594 424.71875Q577.25 424.71875 577.5781 424.5625Q577.90625 424.40625 578.1094 424.14062Q578.3281 423.85938 578.3594 423.5L579.3906 423.5Q579.3594 424.0625 579.0 424.54688Q578.65625 425.03125 578.09375 425.32812Q577.53125 425.625 576.8594 425.625Q576.15625 425.625 575.625 425.375Q575.09375 425.10938 574.7344 424.67188Q574.3906 424.23438 574.21875 423.67188Q574.0469 423.09375 574.0469 422.45312L574.0469 422.20312Q574.0469 421.5625 574.21875 421.0Q574.3906 420.42188 574.7344 419.98438Q575.09375 419.54688 575.625 419.29688Q576.15625 419.04688 576.8594 419.04688Q577.6094 419.04688 578.15625 419.34375Q578.71875 419.64062 579.03125 420.17188Q579.3594 420.6875 579.3906 421.34375L578.3594 421.34375Q578.3281 420.95312 578.1406 420.64062Q577.9531 420.3125 577.625 420.125Q577.2969 419.9375 576.8594 419.9375Q576.3594 419.9375 576.0156 420.14062Q575.6875 420.32812 575.4844 420.65625Q575.2969 420.98438 575.2031 421.39062Q575.125 421.79688 575.125 422.20312L575.125 422.45312Q575.125 422.875 575.2031 423.28125Q575.2969 423.67188 575.4844 424.0Q575.6875 424.32812 576.0156 424.53125Q576.3594 424.71875 576.8594 424.71875ZM582.9531 425.625Q582.2969 425.625 581.75 425.40625Q581.21875 425.17188 580.8281 424.76562Q580.4531 424.34375 580.25 423.78125Q580.0469 423.21875 580.0469 422.54688L580.0469 422.3125Q580.0469 421.53125 580.2656 420.92188Q580.5 420.3125 580.8906 419.89062Q581.28125 419.46875 581.78125 419.26562Q582.28125 419.04688 582.8125 419.04688Q583.5 419.04688 583.9844 419.28125Q584.4844 419.51562 584.7969 419.9375Q585.125 420.34375 585.2656 420.92188Q585.4219 421.48438 585.4219 422.14062L585.4219 422.64062L580.6875 422.64062L580.6875 421.75L584.34375 421.75L584.34375 421.67188Q584.3125 421.25 584.15625 420.85938Q584.0156 420.45312 583.6875 420.20312Q583.375 419.9375 582.8125 419.9375Q582.4531 419.9375 582.1406 420.09375Q581.8281 420.25 581.59375 420.5625Q581.375 420.85938 581.25 421.29688Q581.1406 421.73438 581.1406 422.3125L581.1406 422.54688Q581.1406 423.0 581.2656 423.40625Q581.3906 423.79688 581.625 424.09375Q581.875 424.39062 582.21875 424.5625Q582.5781 424.73438 583.0156 424.73438Q583.59375 424.73438 583.9844 424.5Q584.3906 424.26562 584.6875 423.875L585.34375 424.39062Q585.1406 424.70312 584.8125 424.98438Q584.5 425.26562 584.03125 425.45312Q583.5781 425.625 582.9531 425.625ZM587.40625 420.51562L587.40625 425.5L586.3281 425.5L586.3281 419.15625L587.3594 419.15625L587.40625 420.51562ZM587.15625 422.09375L586.7031 422.07812Q586.7031 421.42188 586.8906 420.875Q587.0781 420.3125 587.4219 419.90625Q587.7656 419.5 588.2344 419.28125Q588.7031 419.04688 589.28125 419.04688Q589.75 419.04688 590.125 419.17188Q590.5 419.29688 590.7656 419.57812Q591.03125 419.84375 591.1719 420.28125Q591.3125 420.71875 591.3125 421.34375L591.3125 425.5L590.21875 425.5L590.21875 421.32812Q590.21875 420.82812 590.0781 420.53125Q589.9375 420.23438 589.65625 420.09375Q589.375 419.95312 588.9531 419.95312Q588.5469 419.95312 588.21875 420.125Q587.8906 420.29688 587.65625 420.59375Q587.4219 420.89062 587.28125 421.28125Q587.15625 421.65625 587.15625 422.09375Z" fill-rule="nonzero"/><path stroke="#cccccc" stroke-width="1.0" stroke-linecap="butt" d="M372.0 305.0L372.0 507.0" fill-rule="nonzero"/><path fill="#000000" d="M342.59375 538.5625L342.59375 538.4375Q342.59375 537.6875 342.75 537.0781Q342.92188 536.4531 343.23438 536.0Q343.54688 535.5469 344.0 535.2969Q344.46875 535.0469 345.0625 535.0469Q345.51562 535.0469 345.875 535.1875Q346.25 535.3125 346.53125 535.5781Q346.8125 535.8281 347.01562 536.2031Q347.21875 536.5781 347.34375 537.0625Q347.46875 537.53125 347.51562 538.09375L347.51562 538.5781Q347.45312 539.28125 347.26562 539.84375Q347.09375 540.40625 346.79688 540.8125Q346.5 541.2031 346.0625 541.4219Q345.64062 541.625 345.04688 541.625Q344.46875 541.625 344.0 541.40625Q343.54688 541.1719 343.23438 540.7656Q342.92188 540.34375 342.75 539.7969Q342.59375 539.2344 342.59375 538.5625ZM343.67188 538.4375L343.67188 538.5625Q343.67188 539.0156 343.76562 539.40625Q343.85938 539.7969 344.04688 540.09375Q344.25 540.3906 344.5625 540.5625Q344.89062 540.7344 345.32812 540.7344Q345.75 540.7344 346.04688 540.5625Q346.35938 540.375 346.5625 540.0781Q346.78125 539.78125 346.90625 539.3906Q347.04688 539.0 347.14062 538.59375L347.14062 538.2031Q347.07812 537.7656 346.9375 537.375Q346.8125 536.96875 346.59375 536.6406Q346.39062 536.3125 346.07812 536.125Q345.76562 535.9375 345.32812 535.9375Q344.89062 535.9375 344.57812 536.1406Q344.26562 536.3281 344.0625 536.6719Q343.85938 537.0156 343.76562 537.4844Q343.67188 537.9375 343.67188 538.4375ZM346.98438 535.15625L347.90625 535.15625L347.90625 539.7656Q347.90625 540.0469 347.9375 540.21875Q347.96875 540.375 348.03125 540.4844Q348.10938 540.5781 348.1875 540.625Q348.28125 540.65625 348.375 540.65625Q348.42188 540.65625 348.46875 540.6406Q348.53125 540.625 348.5625 540.6094L348.70312 541.4219Q348.51562 541.5469 348.34375 541.5781Q348.17188 541.625 347.98438 541.625Q347.70312 541.625 347.48438 541.5156Q347.28125 541.4219 347.125 541.2031Q346.96875 540.9844 346.89062 540.625Q346.8125 540.2656 346.8125 539.7656L346.8125 536.53125L346.98438 535.15625ZM352.07812 537.4219L352.07812 538.3125L349.21875 538.3125L349.21875 537.4219L352.07812 537.4219ZM358.5625 536.6406L358.5625 537.5625L353.95312 537.5625L353.95312 536.6406L358.5625 536.6406ZM354.125 532.96875L354.125 541.5L352.98438 541.5L352.98438 532.96875L354.125 532.96875ZM359.54688 532.96875L359.54688 541.5L358.42188 541.5L358.42188 532.96875L359.54688 532.96875ZM365.70312 540.03125L365.70312 535.15625L366.79688 535.15625L366.79688 541.5L365.76562 541.5L365.70312 540.03125ZM365.90625 538.7031L366.35938 538.6875Q366.35938 539.3125 366.21875 539.8594Q366.09375 540.3906 365.79688 540.78125Q365.51562 541.1719 365.03125 541.40625Q364.5625 541.625 363.89062 541.625Q363.42188 541.625 363.03125 541.4844Q362.65625 541.34375 362.375 541.0625Q362.10938 540.78125 361.95312 540.3281Q361.79688 539.875 361.79688 539.25L361.79688 535.15625L362.89062 535.15625L362.89062 539.2656Q362.89062 539.6875 362.98438 539.96875Q363.07812 540.25 363.25 540.40625Q363.42188 540.5625 363.625 540.6406Q363.82812 540.7031 364.04688 540.7031Q364.75 540.7031 365.14062 540.4375Q365.54688 540.15625 365.71875 539.7031Q365.90625 539.25 365.90625 538.7031ZM369.90625 536.4219L369.90625 541.5L368.8125 541.5L368.8125 535.15625L369.84375 535.15625L369.90625 536.4219ZM369.6875 538.09375L369.17188 538.0781Q369.1875 537.4219 369.34375 536.875Q369.51562 536.3125 369.82812 535.90625Q370.15625 535.5 370.64062 535.28125Q371.125 535.0469 371.75 535.0469Q372.20312 535.0469 372.57812 535.1719Q372.95312 535.2969 373.21875 535.5625Q373.5 535.8281 373.64062 536.25Q373.79688 536.6719 373.79688 537.28125L373.79688 541.5L372.71875 541.5L372.71875 537.3281Q372.71875 536.8281 372.54688 536.53125Q372.39062 536.2344 372.07812 536.09375Q371.78125 535.9531 371.35938 535.9531Q370.89062 535.9531 370.5625 536.125Q370.23438 536.2969 370.04688 536.59375Q369.85938 536.8906 369.76562 537.28125Q369.6875 537.65625 369.6875 538.09375ZM373.79688 537.4844L373.0625 537.71875Q373.0625 537.1875 373.23438 536.71875Q373.40625 536.2344 373.71875 535.8594Q374.04688 535.4844 374.51562 535.2656Q374.98438 535.0469 375.57812 535.0469Q376.09375 535.0469 376.48438 535.1875Q376.89062 535.3125 377.15625 535.59375Q377.42188 535.875 377.5625 536.3125Q377.70312 536.7344 377.70312 537.3281L377.70312 541.5L376.625 541.5L376.625 537.3281Q376.625 536.78125 376.45312 536.5Q376.28125 536.2031 375.98438 536.0781Q375.6875 535.9531 375.26562 535.9531Q374.90625 535.9531 374.625 536.0781Q374.35938 536.2031 374.17188 536.4219Q373.98438 536.625 373.89062 536.90625Q373.79688 537.1875 373.79688 537.4844ZM383.70312 540.03125L383.70312 535.15625L384.79688 535.15625L384.79688 541.5L383.76562 541.5L383.70312 540.03125ZM383.90625 538.7031L384.35938 538.6875Q384.35938 539.3125 384.21875 539.8594Q384.09375 540.3906 383.79688 540.78125Q383.51562 541.1719 383.03125 541.40625Q382.5625 541.625 381.89062 541.625Q381.42188 541.625 381.03125 541.4844Q380.65625 541.34375 380.375 541.0625Q380.10938 540.78125 379.95312 540.3281Q379.79688 539.875 379.79688 539.25L379.79688 535.15625L380.89062 535.15625L380.89062 539.2656Q380.89062 539.6875 380.98438 539.96875Q381.07812 540.25 381.25 540.40625Q381.42188 540.5625 381.625 540.6406Q381.82812 540.7031 382.04688 540.7031Q382.75 540.7031 383.14062 540.4375Q383.54688 540.15625 383.71875 539.7031Q383.90625 539.25 383.90625 538.7031ZM388.0 532.5L388.0 541.5L386.92188 541.5L386.92188 532.5L388.0 532.5ZM392.45312 541.625Q391.79688 541.625 391.25 541.40625Q390.71875 541.1719 390.32812 540.7656Q389.95312 540.34375 389.75 539.78125Q389.54688 539.21875 389.54688 538.5469L389.54688 538.3125Q389.54688 537.53125 389.76562 536.9219Q390.0 536.3125 390.39062 535.8906Q390.78125 535.46875 391.28125 535.2656Q391.78125 535.0469 392.3125 535.0469Q393.0 535.0469 393.48438 535.28125Q393.98438 535.5156 394.29688 535.9375Q394.625 536.34375 394.76562 536.9219Q394.92188 537.4844 394.92188 538.1406L394.92188 538.6406L390.1875 538.6406L390.1875 537.75L393.84375 537.75L393.84375 537.6719Q393.8125 537.25 393.65625 536.8594Q393.51562 536.4531 393.1875 536.2031Q392.875 535.9375 392.3125 535.9375Q391.95312 535.9375 391.64062 536.09375Q391.32812 536.25 391.09375 536.5625Q390.875 536.8594 390.75 537.2969Q390.64062 537.7344 390.64062 538.3125L390.64062 538.5469Q390.64062 539.0 390.76562 539.40625Q390.89062 539.7969 391.125 540.09375Q391.375 540.3906 391.71875 540.5625Q392.07812 540.7344 392.51562 540.7344Q393.09375 540.7344 393.48438 540.5Q393.89062 540.2656 394.1875 539.875L394.84375 540.3906Q394.64062 540.7031 394.3125 540.9844Q394.0 541.2656 393.53125 541.4531Q393.07812 541.625 392.45312 541.625ZM396.90625 536.5156L396.90625 541.5L395.82812 541.5L395.82812 535.15625L396.85938 535.15625L396.90625 536.5156ZM396.65625 538.09375L396.20312 538.0781Q396.20312 537.4219 396.39062 536.875Q396.57812 536.3125 396.92188 535.90625Q397.26562 535.5 397.73438 535.28125Q398.20312 535.0469 398.78125 535.0469Q399.25 535.0469 399.625 535.1719Q400.0 535.2969 400.26562 535.5781Q400.53125 535.84375 400.67188 536.28125Q400.8125 536.71875 400.8125 537.34375L400.8125 541.5L399.71875 541.5L399.71875 537.3281Q399.71875 536.8281 399.57812 536.53125Q399.4375 536.2344 399.15625 536.09375Q398.875 535.9531 398.45312 535.9531Q398.04688 535.9531 397.71875 536.125Q397.39062 536.2969 397.15625 536.59375Q396.92188 536.8906 396.78125 537.28125Q396.65625 537.65625 396.65625 538.09375Z" fill-rule="nonzero"/><path stroke="#cccccc" stroke-width="1.0" stroke-linecap="butt" d="M372.0 305.0L197.0 406.0" fill-rule="nonzero"/><path fill="#000000" d="M153.53125 420.67188L154.39062 420.67188Q155.20312 420.67188 155.76562 420.98438Q156.34375 421.28125 156.64062 421.8125Q156.95312 422.34375 156.95312 423.01562Q156.95312 423.84375 156.60938 424.42188Q156.26562 425.0 155.67188 425.3125Q155.07812 425.625 154.29688 425.625Q153.84375 425.625 153.39062 425.5Q152.9375 425.35938 152.5625 425.09375Q152.20312 424.82812 151.98438 424.40625Q151.76562 423.98438 151.76562 423.40625L152.1875 423.15625Q152.1875 423.59375 152.4375 423.95312Q152.70312 424.29688 153.14062 424.51562Q153.59375 424.73438 154.1875 424.73438Q154.71875 424.73438 155.09375 424.51562Q155.46875 424.29688 155.67188 423.92188Q155.875 423.53125 155.875 423.03125Q155.875 422.625 155.6875 422.25Q155.51562 421.85938 155.1875 421.60938Q154.85938 421.35938 154.375 421.35938L153.53125 421.35938L153.53125 420.67188ZM154.04688 416.84375Q154.8125 416.84375 155.375 417.14062Q155.9375 417.4375 156.23438 417.95312Q156.54688 418.46875 156.54688 419.14062Q156.54688 419.70312 156.23438 420.17188Q155.9375 420.625 155.375 420.90625Q154.8125 421.17188 154.04688 421.17188L153.53125 421.17188L153.53125 420.46875L154.03125 420.46875Q154.54688 420.46875 154.85938 420.29688Q155.17188 420.125 155.3125 419.82812Q155.46875 419.51562 155.46875 419.125Q155.46875 418.76562 155.3125 418.45312Q155.15625 418.14062 154.84375 417.9375Q154.53125 417.73438 154.04688 417.73438Q153.625 417.73438 153.28125 417.9375Q152.9375 418.125 152.73438 418.46875Q152.53125 418.79688 152.53125 419.21875L152.53125 427.75L151.4375 427.75L151.4375 419.21875Q151.4375 418.5625 151.79688 418.03125Q152.15625 417.48438 152.75 417.17188Q153.34375 416.84375 154.04688 416.84375ZM160.57812 421.42188L160.57812 422.3125L157.71875 422.3125L157.71875 421.42188L160.57812 421.42188ZM164.64062 422.15625L162.35938 422.15625L162.35938 421.23438L164.64062 421.23438Q165.29688 421.23438 165.70312 421.03125Q166.125 420.8125 166.3125 420.4375Q166.5 420.0625 166.5 419.57812Q166.5 419.14062 166.3125 418.76562Q166.125 418.375 165.70312 418.14062Q165.29688 417.89062 164.64062 417.89062L162.625 417.89062L162.625 425.5L161.48438 425.5L161.48438 416.96875L164.64062 416.96875Q165.60938 416.96875 166.26562 417.3125Q166.9375 417.64062 167.28125 418.23438Q167.625 418.8125 167.625 419.5625Q167.625 420.39062 167.28125 420.96875Q166.9375 421.54688 166.26562 421.85938Q165.60938 422.15625 164.64062 422.15625ZM170.5 419.15625L170.5 425.5L169.42188 425.5L169.42188 419.15625L170.5 419.15625ZM169.32812 417.48438Q169.32812 417.21875 169.48438 417.03125Q169.65625 416.84375 169.96875 416.84375Q170.28125 416.84375 170.4375 417.03125Q170.60938 417.21875 170.60938 417.48438Q170.60938 417.73438 170.4375 417.92188Q170.28125 418.09375 169.96875 418.09375Q169.65625 418.09375 169.48438 417.92188Q169.32812 417.73438 169.32812 417.48438ZM173.40625 420.51562L173.40625 425.5L172.32812 425.5L172.32812 419.15625L173.35938 419.15625L173.40625 420.51562ZM173.15625 422.09375L172.70312 422.07812Q172.70312 421.42188 172.89062 420.875Q173.07812 420.3125 173.42188 419.90625Q173.76562 419.5 174.23438 419.28125Q174.70312 419.04688 175.28125 419.04688Q175.75 419.04688 176.125 419.17188Q176.5 419.29688 176.76562 419.57812Q177.03125 419.84375 177.17188 420.28125Q177.3125 420.71875 177.3125 421.34375L177.3125 425.5L176.21875 425.5L176.21875 421.32812Q176.21875 420.82812 176.07812 420.53125Q175.9375 420.23438 175.65625 420.09375Q175.375 419.95312 174.95312 419.95312Q174.54688 419.95312 174.21875 420.125Q173.89062 420.29688 173.65625 420.59375Q173.42188 420.89062 173.28125 421.28125Q173.15625 421.65625 173.15625 422.09375ZM181.95312 425.625Q181.29688 425.625 180.75 425.40625Q180.21875 425.17188 179.82812 424.76562Q179.45312 424.34375 179.25 423.78125Q179.04688 423.21875 179.04688 422.54688L179.04688 422.3125Q179.04688 421.53125 179.26562 420.92188Q179.5 420.3125 179.89062 419.89062Q180.28125 419.46875 180.78125 419.26562Q181.28125 419.04688 181.8125 419.04688Q182.5 419.04688 182.98438 419.28125Q183.48438 419.51562 183.79688 419.9375Q184.125 420.34375 184.26562 420.92188Q184.42188 421.48438 184.42188 422.14062L184.42188 422.64062L179.6875 422.64062L179.6875 421.75L183.34375 421.75L183.34375 421.67188Q183.3125 421.25 183.15625 420.85938Q183.01562 420.45312 182.6875 420.20312Q182.375 419.9375 181.8125 419.9375Q181.45312 419.9375 181.14062 420.09375Q180.82812 420.25 180.59375 420.5625Q180.375 420.85938 180.25 421.29688Q180.14062 421.73438 180.14062 422.3125L180.14062 422.54688Q180.14062 423.0 180.26562 423.40625Q180.39062 423.79688 180.625 424.09375Q180.875 424.39062 181.21875 424.5625Q181.57812 424.73438 182.01562 424.73438Q182.59375 424.73438 182.98438 424.5Q183.39062 424.26562 183.6875 423.875L184.34375 424.39062Q184.14062 424.70312 183.8125 424.98438Q183.5 425.26562 183.03125 425.45312Q182.57812 425.625 181.95312 425.625ZM186.40625 420.51562L186.40625 425.5L185.32812 425.5L185.32812 419.15625L186.35938 419.15625L186.40625 420.51562ZM186.15625 422.09375L185.70312 422.07812Q185.70312 421.42188 185.89062 420.875Q186.07812 420.3125 186.42188 419.90625Q186.76562 419.5 187.23438 419.28125Q187.70312 419.04688 188.28125 419.04688Q188.75 419.04688 189.125 419.17188Q189.5 419.29688 189.76562 419.57812Q190.03125 419.84375 190.17188 420.28125Q190.3125 420.71875 190.3125 421.34375L190.3125 425.5L189.21875 425.5L189.21875 421.32812Q189.21875 420.82812 189.07812 420.53125Q188.9375 420.23438 188.65625 420.09375Q188.375 419.95312 187.95312 419.95312Q187.54688 419.95312 187.21875 420.125Q186.89062 420.29688 186.65625 420.59375Q186.42188 420.89062 186.28125 421.28125Q186.15625 421.65625 186.15625 422.09375Z" fill-rule="nonzero"/><path stroke="#cccccc" stroke-width="1.0" stroke-linecap="butt" d="M372.0 305.0L197.0 204.0" fill-rule="nonzero"/><path fill="#000000" d="M153.03125 191.34375Q153.03125 191.04688 152.9375 190.8125Q152.85938 190.57812 152.625 190.39062Q152.40625 190.20312 152.0 190.03125Q151.60938 189.85938 151.01562 189.6875Q150.375 189.5 149.85938 189.28125Q149.35938 189.04688 148.98438 188.75Q148.625 188.4375 148.4375 188.0625Q148.25 187.67188 148.25 187.17188Q148.25 186.67188 148.45312 186.25Q148.65625 185.82812 149.03125 185.51562Q149.42188 185.20312 149.95312 185.03125Q150.48438 184.84375 151.14062 184.84375Q152.10938 184.84375 152.78125 185.21875Q153.45312 185.57812 153.79688 186.17188Q154.15625 186.76562 154.15625 187.42188L153.03125 187.42188Q153.03125 186.95312 152.8125 186.57812Q152.60938 186.20312 152.1875 186.0Q151.78125 185.78125 151.14062 185.78125Q150.54688 185.78125 150.14062 185.96875Q149.75 186.14062 149.5625 186.45312Q149.375 186.76562 149.375 187.15625Q149.375 187.42188 149.48438 187.65625Q149.60938 187.875 149.84375 188.0625Q150.09375 188.25 150.46875 188.40625Q150.84375 188.5625 151.375 188.70312Q152.09375 188.90625 152.625 189.17188Q153.15625 189.42188 153.5 189.73438Q153.84375 190.04688 154.0 190.4375Q154.17188 190.82812 154.17188 191.32812Q154.17188 191.85938 153.95312 192.28125Q153.75 192.70312 153.35938 193.0Q152.96875 193.29688 152.42188 193.46875Q151.875 193.625 151.20312 193.625Q150.60938 193.625 150.03125 193.45312Q149.46875 193.28125 149.0 192.95312Q148.53125 192.625 148.25 192.15625Q147.96875 191.67188 147.96875 191.03125L149.09375 191.03125Q149.09375 191.46875 149.26562 191.78125Q149.4375 192.09375 149.73438 192.29688Q150.03125 192.5 150.40625 192.60938Q150.78125 192.70312 151.20312 192.70312Q151.79688 192.70312 152.20312 192.54688Q152.60938 192.375 152.8125 192.07812Q153.03125 191.76562 153.03125 191.34375ZM155.04688 190.40625L155.04688 190.26562Q155.04688 189.57812 155.23438 189.0Q155.4375 188.40625 155.8125 187.96875Q156.1875 187.53125 156.71875 187.29688Q157.25 187.04688 157.92188 187.04688Q158.57812 187.04688 159.10938 187.29688Q159.65625 187.53125 160.03125 187.96875Q160.40625 188.40625 160.60938 189.0Q160.8125 189.57812 160.8125 190.26562L160.8125 190.40625Q160.8125 191.07812 160.60938 191.67188Q160.40625 192.25 160.03125 192.6875Q159.65625 193.125 159.125 193.375Q158.59375 193.625 157.92188 193.625Q157.26562 193.625 156.71875 193.375Q156.1875 193.125 155.8125 192.6875Q155.4375 192.25 155.23438 191.67188Q155.04688 191.07812 155.04688 190.40625ZM156.125 190.26562L156.125 190.40625Q156.125 190.875 156.23438 191.29688Q156.34375 191.71875 156.5625 192.04688Q156.79688 192.35938 157.14062 192.54688Q157.48438 192.71875 157.92188 192.71875Q158.375 192.71875 158.70312 192.54688Q159.04688 192.35938 159.26562 192.04688Q159.5 191.71875 159.60938 191.29688Q159.71875 190.875 159.71875 190.40625L159.71875 190.26562Q159.71875 189.79688 159.60938 189.375Q159.5 188.95312 159.26562 188.64062Q159.04688 188.3125 158.70312 188.125Q158.375 187.9375 157.92188 187.9375Q157.46875 187.9375 157.125 188.125Q156.79688 188.3125 156.5625 188.64062Q156.34375 188.95312 156.23438 189.375Q156.125 189.79688 156.125 190.26562ZM163.40625 188.51562L163.40625 193.5L162.32812 193.5L162.32812 187.15625L163.35938 187.15625L163.40625 188.51562ZM163.15625 190.09375L162.70312 190.07812Q162.70312 189.42188 162.89062 188.875Q163.07812 188.3125 163.42188 187.90625Q163.76562 187.5 164.23438 187.28125Q164.70312 187.04688 165.28125 187.04688Q165.75 187.04688 166.125 187.17188Q166.5 187.29688 166.76562 187.57812Q167.03125 187.84375 167.17188 188.28125Q167.3125 188.71875 167.3125 189.34375L167.3125 193.5L166.21875 193.5L166.21875 189.32812Q166.21875 188.82812 166.07812 188.53125Q165.9375 188.23438 165.65625 188.09375Q165.375 187.95312 164.95312 187.95312Q164.54688 187.95312 164.21875 188.125Q163.89062 188.29688 163.65625 188.59375Q163.42188 188.89062 163.28125 189.28125Q163.15625 189.65625 163.15625 190.09375ZM173.01562 191.8125Q173.01562 191.57812 172.90625 191.375Q172.8125 191.17188 172.5 191.01562Q172.1875 190.84375 171.5625 190.71875Q171.03125 190.60938 170.60938 190.46875Q170.1875 190.3125 169.89062 190.09375Q169.59375 189.875 169.4375 189.57812Q169.28125 189.28125 169.28125 188.89062Q169.28125 188.51562 169.4375 188.1875Q169.60938 187.84375 169.90625 187.59375Q170.21875 187.32812 170.65625 187.1875Q171.09375 187.04688 171.625 187.04688Q172.39062 187.04688 172.92188 187.3125Q173.46875 187.57812 173.75 188.03125Q174.03125 188.48438 174.03125 189.01562L172.95312 189.01562Q172.95312 188.76562 172.79688 188.51562Q172.64062 188.26562 172.34375 188.10938Q172.04688 187.9375 171.625 187.9375Q171.17188 187.9375 170.89062 188.07812Q170.60938 188.20312 170.48438 188.42188Q170.35938 188.625 170.35938 188.85938Q170.35938 189.04688 170.42188 189.1875Q170.48438 189.3125 170.64062 189.4375Q170.79688 189.54688 171.07812 189.65625Q171.375 189.75 171.82812 189.84375Q172.60938 190.01562 173.10938 190.26562Q173.60938 190.51562 173.85938 190.875Q174.10938 191.21875 174.10938 191.73438Q174.10938 192.15625 173.92188 192.5Q173.75 192.84375 173.42188 193.09375Q173.10938 193.34375 172.65625 193.48438Q172.20312 193.625 171.65625 193.625Q170.8125 193.625 170.23438 193.32812Q169.65625 193.01562 169.35938 192.54688Q169.0625 192.0625 169.0625 191.54688L170.14062 191.54688Q170.17188 191.98438 170.40625 192.25Q170.64062 192.51562 170.96875 192.625Q171.3125 192.71875 171.65625 192.71875Q172.09375 192.71875 172.39062 192.60938Q172.70312 192.48438 172.85938 192.28125Q173.01562 192.07812 173.01562 191.8125ZM177.98438 187.15625L177.98438 187.98438L174.54688 187.98438L174.54688 187.15625L177.98438 187.15625ZM175.71875 185.625L176.79688 185.625L176.79688 191.92188Q176.79688 192.25 176.89062 192.42188Q177.0 192.57812 177.15625 192.64062Q177.3125 192.6875 177.5 192.6875Q177.625 192.6875 177.76562 192.65625Q177.92188 192.625 178.0 192.60938L178.01562 193.5Q177.875 193.54688 177.67188 193.57812Q177.46875 193.625 177.17188 193.625Q176.78125 193.625 176.4375 193.46875Q176.10938 193.29688 175.90625 192.9375Q175.71875 192.5625 175.71875 191.92188L175.71875 185.625ZM180.5 187.15625L180.5 193.5L179.42188 193.5L179.42188 187.15625L180.5 187.15625ZM179.32812 185.48438Q179.32812 185.21875 179.48438 185.03125Q179.65625 184.84375 179.96875 184.84375Q180.28125 184.84375 180.4375 185.03125Q180.60938 185.21875 180.60938 185.48438Q180.60938 185.73438 180.4375 185.92188Q180.28125 186.09375 179.96875 186.09375Q179.65625 186.09375 179.48438 185.92188Q179.32812 185.73438 179.32812 185.48438ZM186.4375 187.15625L187.42188 187.15625L187.42188 193.35938Q187.42188 194.20312 187.07812 194.79688Q186.73438 195.39062 186.125 195.6875Q185.53125 196.0 184.73438 196.0Q184.40625 196.0 183.95312 195.89062Q183.51562 195.79688 183.09375 195.54688Q182.67188 195.3125 182.39062 194.90625L182.95312 194.25Q183.35938 194.73438 183.78125 194.92188Q184.21875 195.10938 184.65625 195.10938Q185.17188 195.10938 185.54688 194.90625Q185.92188 194.71875 186.125 194.34375Q186.32812 193.96875 186.32812 193.42188L186.32812 188.54688L186.4375 187.15625ZM182.0625 190.40625L182.0625 190.28125Q182.0625 189.54688 182.23438 188.95312Q182.42188 188.35938 182.73438 187.9375Q183.0625 187.5 183.51562 187.28125Q183.98438 187.04688 184.57812 187.04688Q185.17188 187.04688 185.60938 187.25Q186.0625 187.45312 186.375 187.85938Q186.6875 188.25 186.875 188.8125Q187.0625 189.35938 187.125 190.0625L187.125 190.60938Q187.0625 191.29688 186.875 191.85938Q186.6875 192.42188 186.375 192.8125Q186.0625 193.20312 185.60938 193.42188Q185.15625 193.625 184.5625 193.625Q183.98438 193.625 183.53125 193.39062Q183.07812 193.14062 182.75 192.70312Q182.42188 192.26562 182.23438 191.6875Q182.0625 191.09375 182.0625 190.40625ZM183.15625 190.28125L183.15625 190.40625Q183.15625 190.875 183.25 191.29688Q183.34375 191.70312 183.54688 192.03125Q183.75 192.34375 184.0625 192.53125Q184.39062 192.70312 184.82812 192.70312Q185.35938 192.70312 185.70312 192.46875Q186.0625 192.23438 186.26562 191.85938Q186.48438 191.48438 186.59375 191.04688L186.59375 189.64062Q186.53125 189.3125 186.39062 189.01562Q186.26562 188.71875 186.0625 188.48438Q185.85938 188.23438 185.54688 188.09375Q185.25 187.95312 184.82812 187.95312Q184.39062 187.95312 184.0625 188.14062Q183.75 188.32812 183.54688 188.65625Q183.34375 188.96875 183.25 189.39062Q183.15625 189.79688 183.15625 190.28125ZM191.95312 193.625Q191.29688 193.625 190.75 193.40625Q190.21875 193.17188 189.82812 192.76562Q189.45312 192.34375 189.25 191.78125Q189.04688 191.21875 189.04688 190.54688L189.04688 190.3125Q189.04688 189.53125 189.26562 188.92188Q189.5 188.3125 189.89062 187.89062Q190.28125 187.46875 190.78125 187.26562Q191.28125 187.04688 191.8125 187.04688Q192.5 187.04688 192.98438 187.28125Q193.48438 187.51562 193.79688 187.9375Q194.125 188.34375 194.26562 188.92188Q194.42188 189.48438 194.42188 190.14062L194.42188 190.64062L189.6875 190.64062L189.6875 189.75L193.34375 189.75L193.34375 189.67188Q193.3125 189.25 193.15625 188.85938Q193.01562 188.45312 192.6875 188.20312Q192.375 187.9375 191.8125 187.9375Q191.45312 187.9375 191.14062 188.09375Q190.82812 188.25 190.59375 188.5625Q190.375 188.85938 190.25 189.29688Q190.14062 189.73438 190.14062 190.3125L190.14062 190.54688Q190.14062 191.0 190.26562 191.40625Q190.39062 191.79688 190.625 192.09375Q190.875 192.39062 191.21875 192.5625Q191.57812 192.73438 192.01562 192.73438Q192.59375 192.73438 192.98438 192.5Q193.39062 192.26562 193.6875 191.875L194.34375 192.39062Q194.14062 192.70312 193.8125 192.98438Q193.5 193.26562 193.03125 193.45312Q192.57812 193.625 191.95312 193.625Z" fill-rule="nonzero"/><path stroke="#cccccc" stroke-width="1.0" stroke-linecap="butt" d="M372.0 305.0L372.0 103.0" fill-rule="nonzero"/><path stroke="#ff0000" stroke-width="2.0" stroke-linecap="butt" stroke-opacity="0.7019608" stroke-dasharray="8.0,6.0,2.0,6.0" d="M372.0 149.0L459.0 255.0L446.0 348.0L372.0 335.0L350.0 318.0L280.0 252.0Z" fill-rule="nonzero"/><path fill="#ff0000" fill-opacity="0.7019608" d="M368.81802 145.81802L372.0 147.875L375.18198 145.81802L373.125 149.0L375.18198 152.18198L372.0 150.125L368.81802 152.18198L370.875 149.0Z" fill-rule="nonzero"/><path fill="#ff0000" fill-opacity="0.7019608" d="M455.81802 251.81802L459.0 253.875L462.18198 251.81802L460.125 255.0L462.18198 258.18198L459.0 256.125L455.81802 258.18198L457.875 255.0Z" fill-rule="nonzero"/><path fill="#ff0000" fill-opacity="0.7019608" d="M442.81802 344.81802L446.0 346.875L449.18198 344.81802L447.125 348.0L449.18198 351.18198L446.0 349.125L442.81802 351.18198L444.875 348.0Z" fill-rule="nonzero"/><path fill="#ff0000" fill-opacity="0.7019608" d="M368.81802 331.81802L372.0 333.875L375.18198 331.81802L373.125 335.0L375.18198 338.18198L372.0 336.125L368.81802 338.18198L370.875 335.0Z" fill-rule="nonzero"/><path fill="#ff0000" fill-opacity="0.7019608" d="M346.81802 314.81802L350.0 316.875L353.18198 314.81802L351.125 318.0L353.18198 321.18198L350.0 319.125L346.81802 321.18198L348.875 318.0Z" fill-rule="nonzero"/><path fill="#ff0000" fill-opacity="0.7019608" d="M276.81802 248.81802L280.0 250.875L283.18198 248.81802L281.125 252.0L283.18198 255.18198L280.0 253.125L276.81802 255.18198L278.875 252.0Z" fill-rule="nonzero"/><path fill="#757575" d="M28.75625 47.35L28.75625 45.584373L36.084373 36.428123Q36.865623 35.44375 37.56875 34.725L29.584375 34.725L29.584375 33.0375L39.834373 33.0375L39.834373 34.725L31.803125 44.646873L30.928125 45.6625L40.06875 45.6625L40.06875 47.35L28.75625 47.35ZM41.021873 42.1625Q41.021873 39.2875 42.615623 37.896873Q43.959373 36.740623 45.88125 36.740623Q48.021873 36.740623 49.365623 38.146873Q50.725 39.553123 50.725 42.021873Q50.725 44.021873 50.13125 45.178123Q49.5375 46.31875 48.38125 46.959373Q47.240623 47.584373 45.88125 47.584373Q43.69375 47.584373 42.35 46.19375Q41.021873 44.7875 41.021873 42.1625ZM42.81875 42.1625Q42.81875 44.1625 43.678123 45.146873Q44.553123 46.13125 45.88125 46.13125Q47.19375 46.13125 48.053123 45.146873Q48.928123 44.146873 48.928123 42.1Q48.928123 40.178123 48.053123 39.19375Q47.178123 38.19375 45.88125 38.19375Q44.553123 38.19375 43.678123 39.19375Q42.81875 40.178123 42.81875 42.1625ZM59.459373 47.35L59.459373 45.81875Q58.25625 47.584373 56.178123 47.584373Q55.25625 47.584373 54.459373 47.240623Q53.6625 46.88125 53.271873 46.35Q52.896873 45.81875 52.740623 45.0375Q52.63125 44.521873 52.63125 43.396873L52.63125 36.975L54.38125 36.975L54.38125 42.725Q54.38125 44.1 54.490623 44.584373Q54.6625 45.271873 55.19375 45.678123Q55.740623 46.06875 56.521873 46.06875Q57.31875 46.06875 58.00625 45.6625Q58.709373 45.25625 58.990623 44.56875Q59.2875 43.865623 59.2875 42.5375L59.2875 36.975L61.0375 36.975L61.0375 47.35L59.459373 47.35ZM62.646873 47.35L62.646873 36.975L64.225 36.975L64.225 38.553123Q64.83437 37.44375 65.35 37.1Q65.86562 36.740623 66.475 36.740623Q67.36562 36.740623 68.2875 37.303123L67.67812 38.94375Q67.0375 38.553123 66.39687 38.553123Q65.81875 38.553123 65.35 38.9125Q64.89687 39.25625 64.69375 39.865623Q64.4125 40.803123 64.4125 41.9125L64.4125 47.35L62.646873 47.35ZM74.31875 47.35L79.81875 33.0375L81.86562 33.0375L87.725 47.35L85.56875 47.35L83.89687 43.00625L77.9125 43.00625L76.33437 47.35L74.31875 47.35ZM78.45937 41.475L83.30312 41.475L81.81875 37.50625Q81.13125 35.69375 80.80312 34.5375Q80.52187 35.9125 80.02187 37.271873L78.45937 41.475ZM88.6625 51.31875L88.6625 36.975L90.27187 36.975L90.27187 38.31875Q90.83437 37.5375 91.5375 37.146873Q92.25625 36.740623 93.27187 36.740623Q94.6 36.740623 95.61562 37.428123Q96.63125 38.115623 97.14687 39.365623Q97.67812 40.6 97.67812 42.084373Q97.67812 43.678123 97.1 44.959373Q96.5375 46.225 95.44375 46.9125Q94.35 47.584373 93.14687 47.584373Q92.27187 47.584373 91.56875 47.209373Q90.88125 46.834373 90.42812 46.271873L90.42812 51.31875L88.6625 51.31875ZM90.25625 42.225Q90.25625 44.225 91.06875 45.178123Q91.88125 46.13125 93.0375 46.13125Q94.20937 46.13125 95.0375 45.146873Q95.88125 44.1625 95.88125 42.06875Q95.88125 40.1 95.05312 39.115623Q94.24062 38.115623 93.11562 38.115623Q91.99062 38.115623 91.11562 39.178123Q90.25625 40.225 90.25625 42.225ZM99.6625 51.31875L99.6625 36.975L101.27187 36.975L101.27187 38.31875Q101.83437 37.5375 102.5375 37.146873Q103.25625 36.740623 104.27187 36.740623Q105.6 36.740623 106.61562 37.428123Q107.63125 38.115623 108.14687 39.365623Q108.67812 40.6 108.67812 42.084373Q108.67812 43.678123 108.1 44.959373Q107.5375 46.225 106.44375 46.9125Q105.35 47.584373 104.14687 47.584373Q103.27187 47.584373 102.56875 47.209373Q101.88125 46.834373 101.42812 46.271873L101.42812 51.31875L99.6625 51.31875ZM101.25625 42.225Q101.25625 44.225 102.06875 45.178123Q102.88125 46.13125 104.0375 46.13125Q105.20937 46.13125 106.0375 45.146873Q106.88125 44.1625 106.88125 42.06875Q106.88125 40.1 106.05312 39.115623Q105.24062 38.115623 104.11562 38.115623Q102.99062 38.115623 102.11562 39.178123Q101.25625 40.225 101.25625 42.225ZM110.63125 47.35L110.63125 33.0375L112.38125 33.0375L112.38125 47.35L110.63125 47.35ZM121.77187 44.00625L123.58437 44.240623Q123.1625 45.81875 121.99062 46.709373Q120.83437 47.584373 119.02187 47.584373Q116.75625 47.584373 115.4125 46.19375Q114.08437 44.7875 114.08437 42.25625Q114.08437 39.63125 115.42812 38.19375Q116.77187 36.740623 118.92812 36.740623Q121.00625 36.740623 122.31875 38.1625Q123.64687 39.56875 123.64687 42.146873Q123.64687 42.303123 123.63125 42.615623L115.89687 42.615623Q115.99062 44.31875 116.86562 45.225Q117.74062 46.13125 119.0375 46.13125Q120.00625 46.13125 120.67812 45.63125Q121.36562 45.115623 121.77187 44.00625ZM115.99062 41.1625L121.7875 41.1625Q121.67812 39.865623 121.13125 39.209373Q120.2875 38.19375 118.94375 38.19375Q117.74062 38.19375 116.9125 39.00625Q116.08437 39.803123 115.99062 41.1625Z" fill-rule="nonzero"/></svg>